v -17.928534 4.057398 -16.833982
v -27.340490 0.001943 11.468716
v 7.448970 0.001943 21.736380
v -24.043530 9.623037 8.530787
v 10.259533 8.440777 -10.030749
v 12.374566 6.916386 17.082619
v 4.094250 10.762558 22.487959
v 8.350127 12.745689 -15.549473
v 8.188499 10.222919 3.696355
v -1.514663 10.881514 -28.809402
v -14.169172 13.114920 -22.643690
v -26.752657 2.842688 6.749095
v 2.638629 17.047926 -24.852802
v 9.289679 16.500118 -0.514257
v -10.735470 17.047926 -24.852802
v -20.104828 16.952959 -14.494259
v -15.816433 18.074383 9.055633
v -3.617407 14.206297 16.802664
v 4.805549 22.484070 -13.124995
v -0.173212 2.940744 -31.805779
v -0.236135 -0.013727 -31.211384
v 1.283623 22.835087 -3.638874
v 19.030001 5.016588 -21.504616
v -6.122924 22.704798 -11.715787
v 27.035831 0.001943 4.354012
v 24.280619 -0.009800 -20.434496
v -16.531214 0.001943 -12.834863
v -12.335565 6.714631 24.992050
v -19.641680 0.001943 22.272696
vt 0.060632 0.421762
vt 0.010810 0.125014
vt 0.527344 0.281250
vt 0.653391 0.448016
vt 0.445312 0.398438
vt 0.503906 0.199219
vt 0.917969 0.289062
vt 0.847656 0.593750
vt 0.653391 0.448016
vt 0.949331 0.000172
vt 1.000000 0.000686
vt 0.639791 0.000686
vt 0.949331 0.000172
vt 0.639791 0.000686
vt 0.141584 0.000686
vt 0.949331 0.000172
vt 0.141584 0.000686
vt -0.000000 0.000686
vt 0.949331 0.000172
vt -0.000000 0.000686
vt 0.198786 0.000686
vt 0.949331 0.000172
vt 0.198786 0.000686
vt 0.498459 0.000000
vt 0.474946 0.476840
vt 0.656363 0.558428
vt 0.691478 0.370019
vt 0.173089 0.178177
vt 0.242225 0.574587
vt 0.474946 0.476840
vt 0.474946 0.476840
vt 0.305372 0.746719
vt 0.551327 0.746719
vt 0.324219 0.605469
vt 0.066406 0.765625
vt 0.305372 0.746719
vt 0.007812 0.453125
vt 0.503906 0.796875
vt 0.066406 0.765625
vt 0.503906 0.796875
vt 0.060632 0.421762
vt 0.527344 0.281250
vt 0.653391 0.448016
vt 0.652344 0.757812
vt 0.436276 0.622353
vt 0.492188 0.761719
vt 0.671875 0.957031
vt 0.526408 1.000000
vt 0.211932 0.791643
vt 0.436276 0.622353
vt 0.526408 1.000000
vt 0.305372 0.746719
vt 0.066406 0.765625
vt 0.390199 0.994298
vt 0.551327 0.746719
vt 0.305372 0.746719
vt 0.390199 0.994298
vt 0.551327 0.746719
vt 0.390199 0.994298
vt 0.591177 0.984637
vt 0.852770 0.220156
vt 0.949331 0.000172
vt 0.499616 0.129305
vt 0.639791 0.000686
vt 1.000000 0.000686
vt 0.730374 0.303303
vt -0.000000 0.000686
vt 0.453125 0.000000
vt 0.527344 0.281250
vt 0.010810 0.125014
vt 0.277344 0.265625
vt 0.316406 0.000000
vt 1.000000 0.000686
vt 0.570312 0.000000
vt 0.675781 0.261719
vt 0.730374 0.303303
vt 0.275946 0.294473
vt 0.639791 0.000686
vt 0.275946 0.294473
vt 0.730374 0.303303
vt 0.578096 0.471634
vt 0.007812 0.453125
vt 0.324219 0.605469
vt 0.277344 0.265625
vt 0.010810 0.125014
vt 0.316406 0.000000
vt -0.000000 0.000686
vt 0.141584 0.000686
vt 0.639791 0.000686
vt 0.275946 0.294473
vt 0.526408 1.000000
vt 0.617188 0.914062
vt 0.398438 0.925781
vt 0.305372 0.746719
vt 0.474946 0.476840
vt 0.242225 0.574587
vt 0.390199 0.994298
vt 0.066406 0.765625
vt 0.503906 0.796875
vt 0.503906 0.796875
vt 0.526408 1.000000
vt 0.390199 0.994298
vt 0.652344 0.757812
vt 0.653391 0.448016
vt 0.847656 0.593750
vt 0.653391 0.448016
vt 0.503906 0.199219
vt 0.917969 0.289062
vt 0.527344 0.281250
vt 0.010810 0.125014
vt -0.000000 0.000686
vt 0.277344 0.265625
vt 0.010810 0.125014
vt 0.007812 0.453125
vt 0.198786 0.000686
vt 0.173089 0.178177
vt 0.499616 0.129305
vt 0.499616 0.129305
vt 0.949331 0.000172
vt 0.498459 0.000000
vt 0.882812 0.539062
vt 0.503906 0.199219
vt 1.000000 0.000686
vt 0.691478 0.370019
vt 0.852770 0.220156
vt 0.499616 0.129305
vt 0.671875 0.957031
vt 0.492188 0.761719
vt 0.812500 0.757812
vt 0.498459 0.000000
vt 0.198786 0.000686
vt 0.499616 0.129305
vt 0.551327 0.746719
vt 0.656363 0.558428
vt 0.474946 0.476840
vt 0.474946 0.476840
vt 0.499616 0.129305
vt 0.173089 0.178177
vt 0.474946 0.476840
vt 0.691478 0.370019
vt 0.499616 0.129305
vt 0.066406 0.765625
vt 0.324219 0.605469
vt 0.007812 0.453125
vt 0.526408 1.000000
vt 0.436276 0.622353
vt 0.673642 0.722744
vt 0.757812 0.554688
vt 0.812500 0.757812
vt 0.492188 0.761719
vt 1.000000 0.000686
vt 0.675781 0.261719
vt 0.902344 0.515625
vt 0.275946 0.294473
vt 0.578096 0.471634
vt 0.436276 0.622353
vt 0.436276 0.622353
vt 0.211932 0.791643
vt 0.275946 0.294473
vt 0.436276 0.622353
vt 0.445312 0.398438
vt 0.653391 0.448016
vn -0.949821 0.304701 0.070695
vn -0.997401 0.071201 -0.011023
vn -0.525501 0.635342 0.565852
vn 0.782418 0.604665 0.149003
vn 0.261983 0.928016 0.264861
vn 0.512533 0.858188 0.028686
vn 0.511279 0.858948 -0.028317
vn 0.955169 0.087548 -0.282821
vn 0.782418 0.604665 0.149003
vn -0.000075 -1.000000 0.000240
vn -0.000075 -1.000000 0.000240
vn -0.000075 -1.000000 0.000240
vn -0.000075 -1.000000 0.000240
vn -0.000075 -1.000000 0.000240
vn -0.000075 -1.000000 0.000240
vn -0.000075 -1.000000 0.000240
vn -0.000075 -1.000000 0.000240
vn -0.000075 -1.000000 0.000240
vn -0.000075 -1.000000 0.000240
vn -0.000075 -1.000000 0.000240
vn -0.000075 -1.000000 0.000240
vn -0.000075 -1.000000 0.000240
vn -0.000075 -1.000000 0.000240
vn -0.000075 -1.000000 0.000240
vn 0.833932 -0.066521 -0.547843
vn 0.955169 0.087548 -0.282821
vn 0.846618 -0.009861 -0.532110
vn -0.800252 -0.151849 -0.580120
vn -0.746435 -0.114524 -0.655530
vn -0.420346 0.076222 -0.904157
vn -0.420346 0.076222 -0.904157
vn -0.354081 0.594781 -0.721708
vn -0.007893 0.759567 -0.650382
vn -0.746435 -0.114524 -0.655530
vn -0.759522 0.582681 -0.289152
vn -0.354081 0.594781 -0.721708
vn -0.949821 0.304701 0.070695
vn -0.355594 0.877052 0.323007
vn -0.759522 0.582681 -0.289152
vn -0.355594 0.877052 0.323007
vn -0.949821 0.304701 0.070695
vn -0.525501 0.635342 0.565852
vn 0.782418 0.604665 0.149003
vn 0.868507 0.474119 0.144591
vn 0.257144 0.828006 0.498279
vn 0.868507 0.474119 0.144591
vn 0.459280 0.874764 -0.154436
vn 0.191358 0.952105 0.238491
vn -0.355594 0.877052 0.323007
vn 0.257144 0.828006 0.498279
vn 0.191358 0.952105 0.238491
vn -0.354081 0.594781 -0.721708
vn -0.759522 0.582681 -0.289152
vn -0.180078 0.977068 -0.113620
vn -0.007893 0.759567 -0.650382
vn -0.354081 0.594781 -0.721708
vn -0.180078 0.977068 -0.113620
vn -0.007893 0.759567 -0.650382
vn -0.180078 0.977068 -0.113620
vn 0.459280 0.874764 -0.154436
vn 0.457220 0.824689 -0.332924
vn 0.606321 0.314650 -0.730322
vn 0.425345 0.040812 -0.904111
vn 0.352743 0.011294 0.935652
vn 0.663453 0.030548 0.747594
vn 0.444021 -0.049324 0.894658
vn -0.657207 0.627289 0.417837
vn -0.682415 0.545747 0.486282
vn -0.525501 0.635342 0.565852
vn -0.997401 0.071201 -0.011023
vn -0.800252 -0.151849 -0.580120
vn -0.733852 -0.473565 -0.487029
vn 0.524546 0.851369 -0.004837
vn 0.606321 0.314650 -0.730322
vn 0.457220 0.824689 -0.332924
vn 0.444021 -0.049324 0.894658
vn 0.204644 -0.205712 0.956976
vn 0.352743 0.011294 0.935652
vn 0.204644 -0.205712 0.956976
vn 0.444021 -0.049324 0.894658
vn 0.257464 -0.556195 0.790164
vn -0.949821 0.304701 0.070695
vn -0.746435 -0.114524 -0.655530
vn -0.800252 -0.151849 -0.580120
vn -0.997401 0.071201 -0.011023
vn -0.733852 -0.473565 -0.487029
vn -0.821764 -0.437176 -0.365488
vn 0.018206 -0.392364 0.919630
vn 0.352743 0.011294 0.935652
vn 0.204644 -0.205712 0.956976
vn 0.191358 0.952105 0.238491
vn 0.459280 0.874764 -0.154436
vn -0.180078 0.977068 -0.113620
vn -0.354081 0.594781 -0.721708
vn -0.420346 0.076222 -0.904157
vn -0.746435 -0.114524 -0.655530
vn -0.180078 0.977068 -0.113620
vn -0.759522 0.582681 -0.289152
vn -0.355594 0.877052 0.323007
vn -0.355594 0.877052 0.323007
vn 0.191358 0.952105 0.238491
vn -0.180078 0.977068 -0.113620
vn 0.868507 0.474119 0.144591
vn 0.782418 0.604665 0.149003
vn 0.955169 0.087548 -0.282821
vn 0.782418 0.604665 0.149003
vn 0.512533 0.858188 0.028686
vn 0.511279 0.858948 -0.028317
vn -0.525501 0.635342 0.565852
vn -0.997401 0.071201 -0.011023
vn -0.657207 0.627289 0.417837
vn -0.800252 -0.151849 -0.580120
vn -0.997401 0.071201 -0.011023
vn -0.949821 0.304701 0.070695
vn -0.733852 -0.473565 -0.487029
vn -0.800252 -0.151849 -0.580120
vn -0.672985 -0.227295 -0.703866
vn 0.425345 0.040812 -0.904111
vn 0.606321 0.314650 -0.730322
vn 0.395163 -0.189262 -0.898903
vn 0.511279 0.858948 -0.028317
vn 0.512533 0.858188 0.028686
vn 0.524546 0.851369 -0.004837
vn 0.511279 0.858948 -0.028317
vn 0.457220 0.824689 -0.332924
vn 0.035572 0.964757 -0.260726
vn 0.459280 0.874764 -0.154436
vn 0.868507 0.474119 0.144591
vn 0.904877 0.214922 -0.367433
vn -0.743144 -0.116728 -0.658871
vn -0.733852 -0.473565 -0.487029
vn -0.672985 -0.227295 -0.703866
vn 0.904877 0.214922 -0.367433
vn 0.955169 0.087548 -0.282821
vn 0.833932 -0.066521 -0.547843
vn -0.420346 0.076222 -0.904157
vn -0.672985 -0.227295 -0.703866
vn -0.800252 -0.151849 -0.580120
vn 0.833932 -0.066521 -0.547843
vn 0.846618 -0.009861 -0.532110
vn 0.821418 0.317531 -0.473757
vn -0.759522 0.582681 -0.289152
vn -0.746435 -0.114524 -0.655530
vn -0.949821 0.304701 0.070695
vn 0.191358 0.952105 0.238491
vn 0.257144 0.828006 0.498279
vn 0.868507 0.474119 0.144591
vn 0.955169 0.087548 -0.282821
vn 0.904877 0.214922 -0.367433
vn 0.868507 0.474119 0.144591
vn 0.524546 0.851369 -0.004837
vn 0.457220 0.824689 -0.332924
vn 0.511279 0.858948 -0.028317
vn -0.525501 0.635342 0.565852
vn 0.261983 0.928016 0.264861
vn 0.257144 0.828006 0.498279
vn 0.257144 0.828006 0.498279
vn -0.355594 0.877052 0.323007
vn -0.525501 0.635342 0.565852
vn 0.257144 0.828006 0.498279
vn 0.261983 0.928016 0.264861
vn 0.782418 0.604665 0.149003
f 4/1/1 12/2/2 28/3/3
f 9/4/4 7/5/5 6/6/6
f 5/7/7 8/8/8 9/9/9
f 26/10/10 25/11/11 3/12/12
f 26/13/13 3/14/14 29/15/15
f 26/16/16 29/17/17 2/18/18
f 26/19/19 2/20/20 27/21/21
f 26/22/22 27/23/23 21/24/24
f 10/25/25 8/26/26 5/27/27
f 1/28/28 11/29/29 10/30/30
f 10/31/31 15/32/32 13/33/33
f 11/34/34 16/35/35 15/36/36
f 4/37/37 17/38/38 16/39/39
f 17/40/40 4/41/41 28/42/42
f 9/43/43 14/44/44 18/45/45
f 14/46/46 19/47/47 22/48/48
f 17/49/49 18/50/50 22/51/51
f 15/52/52 16/53/53 24/54/54
f 13/55/55 15/56/56 24/57/57
f 13/58/58 24/59/59 19/60/60
f 23/61/61 26/62/62 20/63/63
f 3/64/64 25/65/65 6/66/66
f 2/67/67 29/68/68 28/69/69
f 12/70/70 1/71/71 27/72/72
f 25/73/73 26/74/74 23/75/75
f 6/76/76 28/77/77 3/78/78
f 28/79/79 6/80/80 7/81/81
f 4/82/82 11/83/83 1/84/84
f 12/85/85 27/86/86 2/87/87
f 29/88/88 3/89/89 28/90/90
f 22/91/91 19/92/92 24/93/93
f 15/94/94 10/95/95 11/96/96
f 24/97/97 16/98/98 17/99/99
f 17/100/100 22/101/101 24/102/102
f 14/103/103 9/104/104 8/105/105
f 9/106/106 6/107/107 5/108/108
f 28/109/109 12/110/110 2/111/111
f 1/112/112 12/113/113 4/114/114
f 27/115/115 1/116/116 20/117/117
f 20/118/118 26/119/119 21/120/120
f 5/121/121 6/122/122 25/123/123
f 5/124/124 23/125/125 20/126/126
f 19/127/127 14/128/128 13/129/129
f 21/130/130 27/131/131 20/132/132
f 13/133/133 8/134/134 10/135/135
f 10/136/136 20/137/137 1/138/138
f 10/139/139 5/140/140 20/141/141
f 16/142/142 11/143/143 4/144/144
f 22/145/145 18/146/146 14/147/147
f 8/148/148 13/149/149 14/150/150
f 25/151/151 23/152/152 5/153/153
f 28/154/154 7/155/155 18/156/156
f 18/157/157 17/158/158 28/159/159
f 18/160/160 7/161/161 9/162/162
