v 12.000000 17.575005 16.000000
v 4.000000 20.575005 16.000000
v 4.000000 15.275002 8.000000
v -4.000000 20.575005 16.000000
v 4.000000 11.651649 16.000000
vt 0.000000 0.000000
vt 0.000000 0.000000
vt 0.000000 0.000000
vt 0.000000 0.000000
vt 0.000000 0.000000
vt 0.000000 0.000000
vt 0.000000 0.000000
vt 0.000000 0.000000
vt 0.000000 0.000000
vt 0.000000 0.000000
vt 0.000000 0.000000
vt 0.000000 0.000000
vt 0.000000 0.000000
vt 0.000000 0.000000
vt 0.000000 0.000000
vt 0.000000 0.000000
vt 0.000000 0.000000
vt 0.000000 0.000000
vn 0.150918 0.824102 -0.545968
vn 0.150918 0.824102 -0.545968
vn 0.298378 0.795675 -0.527135
vn 0.150918 0.824102 -0.545968
vn 0.000000 0.833650 -0.552293
vn 0.150918 0.824102 -0.545968
vn -0.712718 -0.638968 -0.289401
vn -0.712718 -0.638968 -0.289401
vn -0.712718 -0.638968 -0.289401
vn 0.559168 -0.755205 -0.342047
vn 0.559168 -0.755205 -0.342047
vn 0.559168 -0.755205 -0.342047
vn 0.000000 0.000000 1.000000
vn 0.000000 0.000000 1.000000
vn 0.000000 0.000000 1.000000
vn 0.000000 0.000000 1.000000
vn 0.000000 0.000000 1.000000
vn 0.000000 0.000000 1.000000
f 3/1/1 2/2/2 1/3/3
f 3/4/4 4/5/5 2/6/6
f 5/7/7 4/8/8 3/9/9
f 3/10/10 1/11/11 5/12/12
f 5/13/13 1/14/14 2/15/15
f 2/16/16 4/17/17 5/18/18
