v -4.000000 0.118683 -8.000000
v -12.000000 -11.424995 -16.000000
v 12.000000 -11.424995 -16.000000
v -4.000000 -11.424995 -16.000000
v 4.000000 -11.424995 -16.000000
v 4.000000 -5.871780 -12.000000
v -4.000000 -5.653156 -12.000000
v 0.000000 -5.653156 -14.365494
v 0.000000 -7.762468 -9.000000
vt 0.000000 0.000000
vt 0.000000 0.000000
vt 0.000000 0.000000
vt 0.000000 0.000000
vt 0.000000 0.000000
vt 0.000000 0.000000
vt 0.000000 0.000000
vt 0.000000 0.000000
vt 0.000000 0.000000
vt 0.000000 0.000000
vt 0.000000 0.000000
vt 0.000000 0.000000
vt 0.000000 0.000000
vt 0.000000 0.000000
vt 0.000000 0.000000
vt 0.000000 0.000000
vt 0.000000 0.000000
vt 0.000000 0.000000
vt 0.000000 0.000000
vt 0.000000 0.000000
vt 0.000000 0.000000
vt 0.000000 0.000000
vt 0.000000 0.000000
vt 0.000000 0.000000
vt 0.000000 0.000000
vt 0.000000 0.000000
vt 0.000000 0.000000
vt 0.000000 0.000000
vt 0.000000 0.000000
vt 0.000000 0.000000
vt 0.000000 0.000000
vt 0.000000 0.000000
vt 0.000000 0.000000
vt 0.000000 0.000000
vt 0.000000 0.000000
vt 0.000000 0.000000
vt 0.000000 0.000000
vt 0.000000 0.000000
vt 0.000000 0.000000
vt 0.000000 0.000000
vt 0.000000 0.000000
vt 0.000000 0.000000
vn -0.167142 0.574420 -0.801315
vn -0.380377 0.664525 -0.643210
vn -0.012369 0.587991 -0.808773
vn -0.380377 0.664525 -0.643210
vn -0.052913 0.722998 -0.688820
vn -0.012369 0.587991 -0.808773
vn 0.178346 0.593124 -0.785110
vn 0.000000 0.272472 -0.962164
vn -0.012369 0.587991 -0.808773
vn -0.012369 0.587991 -0.808773
vn 0.000000 0.272472 -0.962164
vn 0.000000 0.272472 -0.962164
vn -0.012369 0.587991 -0.808773
vn -0.052913 0.722998 -0.688820
vn 0.334418 0.804320 -0.491156
vn -0.012369 0.587991 -0.808773
vn 0.334418 0.804320 -0.491156
vn 0.178346 0.593124 -0.785110
vn -0.012369 0.587991 -0.808773
vn 0.000000 0.272472 -0.962164
vn -0.167142 0.574420 -0.801315
vn 0.000000 -0.584467 0.811418
vn 0.447572 -0.317807 0.835870
vn 0.239978 -0.691052 0.681805
vn 0.239978 -0.691052 0.681805
vn 0.447572 -0.317807 0.835870
vn 0.359412 -0.610407 0.705851
vn 0.359412 -0.610407 0.705851
vn 0.447572 -0.317807 0.835870
vn 0.539048 0.168887 0.825169
vn -0.675781 -0.419858 0.605838
vn -0.638860 -0.134067 0.757551
vn -0.638860 -0.134067 0.757551
vn -0.638860 -0.134067 0.757551
vn -0.638860 -0.134067 0.757551
vn -0.534185 0.165942 0.828921
vn 0.000000 -0.886047 0.463596
vn 0.239978 -0.691052 0.681805
vn 0.359412 -0.610407 0.705851
vn 0.359412 -0.610407 0.705851
vn 0.000000 -0.886047 0.463596
vn 0.000000 -0.886047 0.463596
f 2/1/1 7/2/2 8/3/3
f 7/4/4 1/5/5 8/6/6
f 3/7/7 5/8/8 8/9/9
f 8/10/10 5/11/11 4/12/12
f 8/13/13 1/14/14 6/15/15
f 8/16/16 6/17/17 3/18/18
f 8/19/19 4/20/20 2/21/21
f 3/22/22 6/23/23 5/24/24
f 5/25/25 6/26/26 9/27/27
f 9/28/28 6/29/29 1/30/30
f 1/31/31 7/32/32 9/33/33
f 9/34/34 7/35/35 2/36/36
f 4/37/37 5/38/38 9/39/39
f 9/40/40 2/41/41 4/42/42
