v 1.799697 -1.776807 -2.416916
v -0.232757 2.198544 3.419938
v 2.845380 0.508588 0.183376
v 1.763900 1.573513 3.547436
v -2.997919 1.041999 -2.223907
v -5.379903 0.691317 0.572659
v 0.568099 -3.183933 4.810029
v -4.679541 -1.164124 6.425667
vt 0.000000 0.000000
vt 0.000000 0.000000
vt 0.000000 0.000000
vt 0.000000 0.000000
vt 0.000000 0.000000
vt 0.000000 0.000000
vt 0.000000 0.000000
vt 0.000000 0.000000
vt 0.000000 0.000000
vt 0.000000 0.000000
vt 0.000000 0.000000
vt 0.000000 0.000000
vt 0.000000 0.000000
vt 0.000000 0.000000
vt 0.000000 0.000000
vt 0.000000 0.000000
vt 0.000000 0.000000
vt 0.000000 0.000000
vt 0.000000 0.000000
vt 0.000000 0.000000
vt 0.000000 0.000000
vt 0.000000 0.000000
vt 0.000000 0.000000
vt 0.000000 0.000000
vt 0.000000 0.000000
vt 0.000000 0.000000
vt 0.000000 0.000000
vt 0.000000 0.000000
vt 0.000000 0.000000
vt 0.000000 0.000000
vt 0.000000 0.000000
vt 0.000000 0.000000
vt 0.000000 0.000000
vt 0.000000 0.000000
vt 0.000000 0.000000
vt 0.000000 0.000000
vn 0.195200 0.880143 -0.432718
vn 0.841210 0.540509 0.014703
vn 0.548606 -0.504907 -0.666409
vn 0.841210 0.540509 0.014703
vn 0.195200 0.880143 -0.432718
vn -0.066937 0.974257 -0.215273
vn 0.841210 0.540509 0.014703
vn -0.066937 0.974257 -0.215273
vn 0.398227 0.871353 0.286633
vn 0.398227 0.871353 0.286633
vn -0.066937 0.974257 -0.215273
vn -0.029589 0.982366 0.184612
vn 0.288480 -0.948807 0.128628
vn -0.432565 -0.859538 -0.272179
vn 0.548606 -0.504907 -0.666409
vn -0.432565 -0.859538 -0.272179
vn 0.288480 -0.948807 0.128628
vn -0.364362 -0.882950 -0.296040
vn -0.432565 -0.859538 -0.272179
vn -0.364362 -0.882950 -0.296040
vn -0.364362 -0.882950 -0.296040
vn -0.066937 0.974257 -0.215273
vn 0.136692 0.601309 0.787237
vn -0.029589 0.982366 0.184612
vn 0.841210 0.540509 0.014703
vn 0.288480 -0.948807 0.128628
vn 0.548606 -0.504907 -0.666409
vn 0.288480 -0.948807 0.128628
vn 0.841210 0.540509 0.014703
vn 0.398227 0.871353 0.286633
vn 0.288480 -0.948807 0.128628
vn 0.398227 0.871353 0.286633
vn 0.136692 0.601309 0.787237
vn 0.136692 0.601309 0.787237
vn 0.398227 0.871353 0.286633
vn -0.029589 0.982366 0.184612
f 5/1/1 3/2/2 1/3/3
f 3/4/4 5/5/5 6/6/6
f 3/7/7 6/8/8 4/9/9
f 4/10/10 6/11/11 2/12/12
f 7/13/13 5/14/14 1/15/15
f 5/16/16 7/17/17 8/18/18
f 5/19/19 8/20/20 6/21/21
f 6/22/22 8/23/23 2/24/24
f 3/25/25 7/26/26 1/27/27
f 7/28/28 3/29/29 4/30/30
f 7/31/31 4/32/32 8/33/33
f 8/34/34 4/35/35 2/36/36
