v -0.000000 0.000000 1.062907
v 0.000000 -0.000000 2.093364
v 0.809017 0.587785 1.062907
v 0.809017 0.587785 2.093364
v 0.309017 0.951057 1.062907
v 0.309017 0.951056 2.093364
v -0.309017 0.951057 1.062907
v -0.309017 0.951056 2.093364
v -0.809017 0.587785 1.062907
v -0.809017 0.587785 2.093364
v -1.000000 0.000000 1.062907
v -1.000000 -0.000000 2.093364
v -0.809017 -0.587785 1.062907
v -0.809017 -0.587785 2.093364
v -0.309017 -0.951056 1.062907
v -0.309017 -0.951057 2.093364
v 0.309017 -0.951056 1.062907
v 0.309017 -0.951057 2.093364
v 0.809017 -0.587785 1.062907
v 0.809017 -0.587785 2.093364
v 1.000000 0.000000 1.062907
v 1.000000 -0.000000 2.093364
vt 0.000000 0.000000
vt 0.000000 0.000000
vt 0.000000 0.000000
vt 0.000000 0.000000
vt 0.000000 0.000000
vt 0.000000 0.000000
vt 0.000000 0.000000
vt 0.000000 0.000000
vt 0.000000 0.000000
vt 0.000000 0.000000
vt 0.000000 0.000000
vt 0.000000 0.000000
vt 0.000000 0.000000
vt 0.000000 0.000000
vt 0.000000 0.000000
vt 0.000000 0.000000
vt 0.000000 0.000000
vt 0.000000 0.000000
vt 0.000000 0.000000
vt 0.000000 0.000000
vt 0.000000 0.000000
vt 0.000000 0.000000
vt 0.000000 0.000000
vt 0.000000 0.000000
vt 0.000000 0.000000
vt 0.000000 0.000000
vt 0.000000 0.000000
vt 0.000000 0.000000
vt 0.000000 0.000000
vt 0.000000 0.000000
vt 0.000000 0.000000
vt 0.000000 0.000000
vt 0.000000 0.000000
vt 0.000000 0.000000
vt 0.000000 0.000000
vt 0.000000 0.000000
vt 0.000000 0.000000
vt 0.000000 0.000000
vt 0.000000 0.000000
vt 0.000000 0.000000
vt 0.000000 0.000000
vt 0.000000 0.000000
vt 0.000000 0.000000
vt 0.000000 0.000000
vt 0.000000 0.000000
vt 0.000000 0.000000
vt 0.000000 0.000000
vt 0.000000 0.000000
vt 0.000000 0.000000
vt 0.000000 0.000000
vt 0.000000 0.000000
vt 0.000000 0.000000
vt 0.000000 0.000000
vt 0.000000 0.000000
vt 0.000000 0.000000
vt 0.000000 0.000000
vt 0.000000 0.000000
vt 0.000000 0.000000
vt 0.000000 0.000000
vt 0.000000 0.000000
vt 0.000000 0.000000
vt 0.000000 0.000000
vt 0.000000 0.000000
vt 0.000000 0.000000
vt 0.000000 0.000000
vt 0.000000 0.000000
vt 0.000000 0.000000
vt 0.000000 0.000000
vt 0.000000 0.000000
vt 0.000000 0.000000
vt 0.000000 0.000000
vt 0.000000 0.000000
vt 0.000000 0.000000
vt 0.000000 0.000000
vt 0.000000 0.000000
vt 0.000000 0.000000
vt 0.000000 0.000000
vt 0.000000 0.000000
vt 0.000000 0.000000
vt 0.000000 0.000000
vt 0.000000 0.000000
vt 0.000000 0.000000
vt 0.000000 0.000000
vt 0.000000 0.000000
vt 0.000000 0.000000
vt 0.000000 0.000000
vt 0.000000 0.000000
vt 0.000000 0.000000
vt 0.000000 0.000000
vt 0.000000 0.000000
vt 0.000000 0.000000
vt 0.000000 0.000000
vt 0.000000 0.000000
vt 0.000000 0.000000
vt 0.000000 0.000000
vt 0.000000 0.000000
vt 0.000000 0.000000
vt 0.000000 0.000000
vt 0.000000 0.000000
vt 0.000000 0.000000
vt 0.000000 0.000000
vt 0.000000 0.000000
vt 0.000000 0.000000
vt 0.000000 0.000000
vt 0.000000 0.000000
vt 0.000000 0.000000
vt 0.000000 0.000000
vt 0.000000 0.000000
vt 0.000000 0.000000
vt 0.000000 0.000000
vt 0.000000 0.000000
vt 0.000000 0.000000
vt 0.000000 0.000000
vt 0.000000 0.000000
vt 0.000000 0.000000
vt 0.000000 0.000000
vt 0.000000 0.000000
vt 0.000000 0.000000
vt 0.000000 0.000000
vt 0.000000 0.000000
vn -0.000000 0.000000 -1.000000
vn -0.000000 0.000000 -1.000000
vn 0.000000 0.000000 -1.000000
vn 0.809017 0.587785 -0.000000
vn 0.309017 0.951057 0.000000
vn 0.309017 0.951057 0.000000
vn 0.809017 0.587785 -0.000000
vn 0.309017 0.951057 0.000000
vn 0.809017 0.587785 -0.000000
vn 0.000000 0.000000 1.000000
vn 0.000000 0.000000 1.000000
vn 0.000000 0.000000 1.000000
vn 0.000000 0.000000 -1.000000
vn -0.000000 0.000000 -1.000000
vn 0.000000 0.000000 -1.000000
vn 0.309017 0.951057 0.000000
vn -0.309017 0.951057 0.000000
vn -0.309017 0.951057 0.000000
vn 0.309017 0.951057 0.000000
vn -0.309017 0.951057 0.000000
vn 0.309017 0.951057 0.000000
vn 0.000000 0.000000 1.000000
vn 0.000000 0.000000 1.000000
vn 0.000000 0.000000 1.000000
vn 0.000000 0.000000 -1.000000
vn 0.000000 0.000000 -1.000000
vn 0.000000 0.000000 -1.000000
vn -0.309017 0.951057 0.000000
vn -0.809017 0.587785 0.000000
vn -0.809017 0.587785 0.000000
vn -0.309017 0.951057 0.000000
vn -0.809017 0.587785 0.000000
vn -0.309017 0.951057 0.000000
vn 0.000000 0.000000 1.000000
vn 0.000000 0.000000 1.000000
vn 0.000000 0.000000 1.000000
vn -0.000000 0.000000 -1.000000
vn 0.000000 0.000000 -1.000000
vn 0.000000 0.000000 -1.000000
vn -0.809017 0.587785 0.000000
vn -1.000000 0.000000 0.000000
vn -1.000000 0.000000 0.000000
vn -0.809017 0.587785 0.000000
vn -1.000000 0.000000 0.000000
vn -0.809017 0.587785 0.000000
vn 0.000000 0.000000 1.000000
vn 0.000000 0.000000 1.000000
vn 0.000000 0.000000 1.000000
vn -0.000000 0.000000 -1.000000
vn -0.000000 0.000000 -1.000000
vn 0.000000 0.000000 -1.000000
vn -1.000000 0.000000 0.000000
vn -0.809017 -0.587785 -0.000000
vn -0.809017 -0.587785 -0.000000
vn -1.000000 0.000000 0.000000
vn -0.809017 -0.587785 -0.000000
vn -1.000000 0.000000 0.000000
vn 0.000000 0.000000 1.000000
vn 0.000000 0.000000 1.000000
vn 0.000000 0.000000 1.000000
vn -0.000000 0.000000 -1.000000
vn -0.000000 0.000000 -1.000000
vn 0.000000 0.000000 -1.000000
vn -0.809017 -0.587785 -0.000000
vn -0.309017 -0.951056 -0.000000
vn -0.309017 -0.951056 -0.000000
vn -0.809017 -0.587785 -0.000000
vn -0.309017 -0.951056 -0.000000
vn -0.809017 -0.587785 -0.000000
vn 0.000000 0.000000 1.000000
vn 0.000000 0.000000 1.000000
vn 0.000000 0.000000 1.000000
vn 0.000000 0.000000 -1.000000
vn -0.000000 0.000000 -1.000000
vn 0.000000 0.000000 -1.000000
vn -0.309017 -0.951056 -0.000000
vn 0.309017 -0.951057 -0.000000
vn 0.309017 -0.951057 -0.000000
vn -0.309017 -0.951056 -0.000000
vn 0.309017 -0.951057 -0.000000
vn -0.309017 -0.951056 -0.000000
vn 0.000000 0.000000 1.000000
vn 0.000000 0.000000 1.000000
vn 0.000000 0.000000 1.000000
vn 0.000000 0.000000 -1.000000
vn 0.000000 0.000000 -1.000000
vn 0.000000 0.000000 -1.000000
vn 0.309017 -0.951057 -0.000000
vn 0.809017 -0.587785 -0.000000
vn 0.809017 -0.587785 -0.000000
vn 0.309017 -0.951057 -0.000000
vn 0.809017 -0.587785 -0.000000
vn 0.309017 -0.951057 -0.000000
vn 0.000000 0.000000 1.000000
vn 0.000000 0.000000 1.000000
vn 0.000000 0.000000 1.000000
vn -0.000000 0.000000 -1.000000
vn 0.000000 0.000000 -1.000000
vn 0.000000 0.000000 -1.000000
vn 0.809017 -0.587785 -0.000000
vn 1.000000 -0.000000 -0.000000
vn 1.000000 -0.000000 -0.000000
vn 0.809017 -0.587785 -0.000000
vn 1.000000 -0.000000 -0.000000
vn 0.809017 -0.587785 -0.000000
vn 0.000000 0.000000 1.000000
vn 0.000000 0.000000 1.000000
vn 0.000000 0.000000 1.000000
vn -0.000000 0.000000 -1.000000
vn -0.000000 0.000000 -1.000000
vn 0.000000 0.000000 -1.000000
vn 1.000000 -0.000000 -0.000000
vn 0.809017 0.587785 -0.000000
vn 0.809017 0.587785 -0.000000
vn 1.000000 -0.000000 -0.000000
vn 0.809017 0.587785 -0.000000
vn 1.000000 -0.000000 -0.000000
vn 0.000000 0.000000 1.000000
vn 0.000000 0.000000 1.000000
vn 0.000000 0.000000 1.000000
f 5/1/1 3/2/2 1/3/3
f 3/4/4 5/5/5 6/6/6
f 3/7/7 6/8/8 4/9/9
f 4/10/10 6/11/11 2/12/12
f 7/13/13 5/14/14 1/15/15
f 5/16/16 7/17/17 8/18/18
f 5/19/19 8/20/20 6/21/21
f 6/22/22 8/23/23 2/24/24
f 9/25/25 7/26/26 1/27/27
f 7/28/28 9/29/29 10/30/30
f 7/31/31 10/32/32 8/33/33
f 8/34/34 10/35/35 2/36/36
f 11/37/37 9/38/38 1/39/39
f 9/40/40 11/41/41 12/42/42
f 9/43/43 12/44/44 10/45/45
f 10/46/46 12/47/47 2/48/48
f 13/49/49 11/50/50 1/51/51
f 11/52/52 13/53/53 14/54/54
f 11/55/55 14/56/56 12/57/57
f 12/58/58 14/59/59 2/60/60
f 15/61/61 13/62/62 1/63/63
f 13/64/64 15/65/65 16/66/66
f 13/67/67 16/68/68 14/69/69
f 14/70/70 16/71/71 2/72/72
f 17/73/73 15/74/74 1/75/75
f 15/76/76 17/77/77 18/78/78
f 15/79/79 18/80/80 16/81/81
f 16/82/82 18/83/83 2/84/84
f 19/85/85 17/86/86 1/87/87
f 17/88/88 19/89/89 20/90/90
f 17/91/91 20/92/92 18/93/93
f 18/94/94 20/95/95 2/96/96
f 21/97/97 19/98/98 1/99/99
f 19/100/100 21/101/101 22/102/102
f 19/103/103 22/104/104 20/105/105
f 20/106/106 22/107/107 2/108/108
f 3/109/109 21/110/110 1/111/111
f 21/112/112 3/113/113 4/114/114
f 21/115/115 4/116/116 22/117/117
f 22/118/118 4/119/119 2/120/120
