v 1.375610 1.501437 -2.304142
v 1.375610 1.500374 1.356250
v 1.375610 1.767401 -2.304142
v 1.375610 1.766338 1.356250
v 1.641574 1.501437 -2.304142
v 1.641574 1.500374 1.356250
v 1.641574 1.767401 -2.304142
v 1.641574 1.766338 1.356250
v 1.641574 1.766338 -0.719523
v 1.641574 1.767401 -1.988250
v 1.641574 1.500374 -0.719523
v 1.641574 1.501437 -1.988250
v 1.375610 1.501247 -0.428537
v 1.375610 1.502299 -0.720069
v 1.641574 1.766338 -0.428964
v 1.641574 1.500374 -0.428964
v 2.009976 1.766338 -0.719523
v 2.009976 1.500374 -0.719523
v 2.009976 1.766338 -0.428964
v 2.009976 1.500374 -0.428964
v 2.009976 1.767401 -1.988250
v 2.009976 1.501437 -1.988250
v 2.009976 1.501437 -2.304142
v 2.009976 1.767401 -2.304142
v 1.375610 1.768263 -0.720069
v 1.375610 1.767211 -0.428537
v 1.375610 0.362965 -3.017897
v 1.375610 0.362965 0.619522
v 1.375610 0.628929 -3.017897
v 1.375610 0.628929 0.619522
v 1.641574 0.362965 -3.017897
v 1.641574 0.362965 0.619522
v 1.641574 0.628929 -3.017897
v 1.641574 0.628929 0.619522
v 1.375610 0.363716 -3.215211
v 1.375610 0.629667 -3.171044
v 1.641574 0.363716 -3.215211
v 1.641574 0.629667 -3.171044
v 1.375610 0.393211 -3.404769
v 1.375610 0.649287 -3.335114
v 1.641574 0.393211 -3.404769
v 1.641574 0.649287 -3.335114
v 1.375610 0.600723 -4.380373
v 1.375610 0.856799 -4.300896
v 1.641574 0.668256 -4.701410
v 1.641574 0.924332 -4.621933
v 1.398055 0.890479 -4.462317
v 1.398055 0.634402 -4.541796
v 1.498440 0.913983 -4.570171
v 1.498440 0.657907 -4.649649
v 1.641574 0.599494 -4.377250
v 1.641574 0.855571 -4.300228
v 1.966100 0.855571 -4.300228
v 1.966100 0.599494 -4.377250
v 1.966100 0.924332 -4.621933
v 1.966100 0.668256 -4.701410
v 1.641574 0.628929 -1.456250
v 1.641574 0.628929 -2.690518
v 1.641574 0.362965 -1.456250
v 1.641574 0.362965 -2.690518
v 1.641574 0.628929 0.156283
v 1.641574 0.362965 0.156283
v 1.641574 0.628929 -1.159949
v 1.641574 0.362965 -1.159949
v 2.009976 0.628929 -1.456250
v 2.009976 0.362965 -1.456250
v 2.009976 0.628929 -1.159949
v 2.009976 0.362965 -1.159949
v 2.009976 0.628929 -2.690518
v 2.009976 0.362965 -2.690518
v 2.009976 0.362965 -3.017897
v 2.009976 0.628929 -3.017897
v 1.372243 0.771215 -3.889971
v 1.641574 0.772267 -3.889706
v 1.375610 0.628929 -1.454901
v 1.375610 0.628929 -2.691168
v 1.375610 0.628929 -1.156554
v 1.375610 1.501684 -1.991273
v 1.375610 1.767601 -1.991262
v 1.375610 0.362965 -2.692251
v 1.375610 0.362965 -1.454746
v 1.375610 0.362965 -1.159969
v 1.641574 1.282513 -0.572943
v 1.641574 0.846790 -1.300785
v 1.375610 1.283495 -2.146145
v 1.641574 1.283310 -2.143715
v 1.375610 0.847271 -1.299910
v 1.375610 1.283167 -0.571774
v 1.223609 0.569738 -1.223448
v 1.223609 0.422394 -1.225340
v 1.223609 0.569738 -1.388732
v 1.223609 0.422394 -1.388646
v 1.230017 0.671442 -4.418314
v 1.230017 0.813309 -4.374284
v 1.242451 0.690101 -4.507742
v 1.242451 0.831967 -4.463711
v 1.223609 0.569651 -2.764150
v 1.223609 0.422307 -2.764750
v 1.223609 0.569651 -2.945158
v 1.223609 0.422307 -2.945158
v 1.223609 1.560936 -2.061042
v 1.223609 1.708254 -2.061037
v 1.223609 1.708143 -2.234370
v 1.223609 1.560798 -2.234370
v 1.223609 1.708136 -0.493549
v 1.223609 1.708719 -0.655058
v 1.223609 1.561375 -0.655058
v 1.223609 1.560792 -0.493549
vt 0.000000 0.000000
vt 0.000000 0.000000
vt 0.000000 0.000000
vt 0.000000 0.000000
vt 0.000000 0.000000
vt 0.000000 0.000000
vt 0.000000 0.000000
vt 0.000000 0.000000
vt 0.000000 0.000000
vt 0.000000 0.000000
vt 0.000000 0.000000
vt 0.000000 0.000000
vt 0.000000 0.000000
vt 0.000000 0.000000
vt 0.000000 0.000000
vt 0.000000 0.000000
vt 0.000000 0.000000
vt 0.000000 0.000000
vt 0.000000 0.000000
vt 0.000000 0.000000
vt 0.000000 0.000000
vt 0.000000 0.000000
vt 0.000000 0.000000
vt 0.000000 0.000000
vt 0.000000 0.000000
vt 0.000000 0.000000
vt 0.000000 0.000000
vt 0.000000 0.000000
vt 0.000000 0.000000
vt 0.000000 0.000000
vt 0.000000 0.000000
vt 0.000000 0.000000
vt 0.000000 0.000000
vt 0.000000 0.000000
vt 0.000000 0.000000
vt 0.000000 0.000000
vt 0.000000 0.000000
vt 0.000000 0.000000
vt 0.000000 0.000000
vt 0.000000 0.000000
vt 0.000000 0.000000
vt 0.000000 0.000000
vt 0.000000 0.000000
vt 0.000000 0.000000
vt 0.000000 0.000000
vt 0.000000 0.000000
vt 0.000000 0.000000
vt 0.000000 0.000000
vt 0.000000 0.000000
vt 0.000000 0.000000
vt 0.000000 0.000000
vt 0.000000 0.000000
vt 0.000000 0.000000
vt 0.000000 0.000000
vt 0.000000 0.000000
vt 0.000000 0.000000
vt 0.000000 0.000000
vt 0.000000 0.000000
vt 0.000000 0.000000
vt 0.000000 0.000000
vt 0.000000 0.000000
vt 0.000000 0.000000
vt 0.000000 0.000000
vt 0.000000 0.000000
vt 0.000000 0.000000
vt 0.000000 0.000000
vt 0.000000 0.000000
vt 0.000000 0.000000
vt 0.000000 0.000000
vt 0.000000 0.000000
vt 0.000000 0.000000
vt 0.000000 0.000000
vt 0.000000 0.000000
vt 0.000000 0.000000
vt 0.000000 0.000000
vt 0.000000 0.000000
vt 0.000000 0.000000
vt 0.000000 0.000000
vt 0.000000 0.000000
vt 0.000000 0.000000
vt 0.000000 0.000000
vt 0.000000 0.000000
vt 0.000000 0.000000
vt 0.000000 0.000000
vt 0.000000 0.000000
vt 0.000000 0.000000
vt 0.000000 0.000000
vt 0.000000 0.000000
vt 0.000000 0.000000
vt 0.000000 0.000000
vt 0.000000 0.000000
vt 0.000000 0.000000
vt 0.000000 0.000000
vt 0.000000 0.000000
vt 0.000000 0.000000
vt 0.000000 0.000000
vt 0.000000 0.000000
vt 0.000000 0.000000
vt 0.000000 0.000000
vt 0.000000 0.000000
vt 0.000000 0.000000
vt 0.000000 0.000000
vt 0.000000 0.000000
vt 0.000000 0.000000
vt 0.000000 0.000000
vt 0.000000 0.000000
vt 0.000000 0.000000
vt 0.000000 0.000000
vt 0.000000 0.000000
vt 0.000000 0.000000
vt 0.000000 0.000000
vt 0.000000 0.000000
vt 0.000000 0.000000
vt 0.000000 0.000000
vt 0.000000 0.000000
vt 0.000000 0.000000
vt 0.000000 0.000000
vt 0.000000 0.000000
vt 0.000000 0.000000
vt 0.000000 0.000000
vt 0.000000 0.000000
vt 0.000000 0.000000
vt 0.000000 0.000000
vt 0.000000 0.000000
vt 0.000000 0.000000
vt 0.000000 0.000000
vt 0.000000 0.000000
vt 0.000000 0.000000
vt 0.000000 0.000000
vt 0.000000 0.000000
vt 0.000000 0.000000
vt 0.000000 0.000000
vt 0.000000 0.000000
vt 0.000000 0.000000
vt 0.000000 0.000000
vt 0.000000 0.000000
vt 0.000000 0.000000
vt 0.000000 0.000000
vt 0.000000 0.000000
vt 0.000000 0.000000
vt 0.000000 0.000000
vt 0.000000 0.000000
vt 0.000000 0.000000
vt 0.000000 0.000000
vt 0.000000 0.000000
vt 0.000000 0.000000
vt 0.000000 0.000000
vt 0.000000 0.000000
vt 0.000000 0.000000
vt 0.000000 0.000000
vt 0.000000 0.000000
vt 0.000000 0.000000
vt 0.000000 0.000000
vt 0.000000 0.000000
vt 0.000000 0.000000
vt 0.000000 0.000000
vt 0.000000 0.000000
vt 0.000000 0.000000
vt 0.000000 0.000000
vt 0.000000 0.000000
vt 0.000000 0.000000
vt 0.000000 0.000000
vt 0.000000 0.000000
vt 0.000000 0.000000
vt 0.000000 0.000000
vt 0.000000 0.000000
vt 0.000000 0.000000
vt 0.000000 0.000000
vt 0.000000 0.000000
vt 0.000000 0.000000
vt 0.000000 0.000000
vt 0.000000 0.000000
vt 0.000000 0.000000
vt 0.000000 0.000000
vt 0.000000 0.000000
vt 0.000000 0.000000
vt 0.000000 0.000000
vt 0.000000 0.000000
vt 0.000000 0.000000
vt 0.000000 0.000000
vt 0.000000 0.000000
vt 0.000000 0.000000
vt 0.000000 0.000000
vt 0.000000 0.000000
vt 0.000000 0.000000
vt 0.000000 0.000000
vt 0.000000 0.000000
vt 0.000000 0.000000
vt 0.000000 0.000000
vt 0.000000 0.000000
vt 0.000000 0.000000
vt 0.000000 0.000000
vt 0.000000 0.000000
vt 0.000000 0.000000
vt 0.000000 0.000000
vt 0.000000 0.000000
vt 0.000000 0.000000
vt 0.000000 0.000000
vt 0.000000 0.000000
vt 0.000000 0.000000
vt 0.000000 0.000000
vt 0.000000 0.000000
vt 0.000000 0.000000
vt 0.000000 0.000000
vt 0.000000 0.000000
vt 0.000000 0.000000
vt 0.000000 0.000000
vt 0.000000 0.000000
vt 0.000000 0.000000
vt 0.000000 0.000000
vt 0.000000 0.000000
vt 0.000000 0.000000
vt 0.000000 0.000000
vt 0.000000 0.000000
vt 0.000000 0.000000
vt 0.000000 0.000000
vt 0.000000 0.000000
vt 0.000000 0.000000
vt 0.000000 0.000000
vt 0.000000 0.000000
vt 0.000000 0.000000
vt 0.000000 0.000000
vt 0.000000 0.000000
vt 0.000000 0.000000
vt 0.000000 0.000000
vt 0.000000 0.000000
vt 0.000000 0.000000
vt 0.000000 0.000000
vt 0.000000 0.000000
vt 0.000000 0.000000
vt 0.000000 0.000000
vt 0.000000 0.000000
vt 0.000000 0.000000
vt 0.000000 0.000000
vt 0.000000 0.000000
vt 0.000000 0.000000
vt 0.000000 0.000000
vt 0.000000 0.000000
vt 0.000000 0.000000
vt 0.000000 0.000000
vt 0.000000 0.000000
vt 0.000000 0.000000
vt 0.000000 0.000000
vt 0.000000 0.000000
vt 0.000000 0.000000
vt 0.000000 0.000000
vt 0.000000 0.000000
vt 0.000000 0.000000
vt 0.000000 0.000000
vt 0.000000 0.000000
vt 0.000000 0.000000
vt 0.000000 0.000000
vt 0.000000 0.000000
vt 0.000000 0.000000
vt 0.000000 0.000000
vt 0.000000 0.000000
vt 0.000000 0.000000
vt 0.000000 0.000000
vt 0.000000 0.000000
vt 0.000000 0.000000
vt 0.000000 0.000000
vt 0.000000 0.000000
vt 0.000000 0.000000
vt 0.000000 0.000000
vt 0.000000 0.000000
vt 0.000000 0.000000
vt 0.000000 0.000000
vt 0.000000 0.000000
vt 0.000000 0.000000
vt 0.000000 0.000000
vt 0.000000 0.000000
vt 0.000000 0.000000
vt 0.000000 0.000000
vt 0.000000 0.000000
vt 0.000000 0.000000
vt 0.000000 0.000000
vt 0.000000 0.000000
vt 0.000000 0.000000
vt 0.000000 0.000000
vt 0.000000 0.000000
vt 0.000000 0.000000
vt 0.000000 0.000000
vt 0.000000 0.000000
vt 0.000000 0.000000
vt 0.000000 0.000000
vt 0.000000 0.000000
vt 0.000000 0.000000
vt 0.000000 0.000000
vt 0.000000 0.000000
vt 0.000000 0.000000
vt 0.000000 0.000000
vt 0.000000 0.000000
vt 0.000000 0.000000
vt 0.000000 0.000000
vt 0.000000 0.000000
vt 0.000000 0.000000
vt 0.000000 0.000000
vt 0.000000 0.000000
vt 0.000000 0.000000
vt 0.000000 0.000000
vt 0.000000 0.000000
vt 0.000000 0.000000
vt 0.000000 0.000000
vt 0.000000 0.000000
vt 0.000000 0.000000
vt 0.000000 0.000000
vt 0.000000 0.000000
vt 0.000000 0.000000
vt 0.000000 0.000000
vt 0.000000 0.000000
vt 0.000000 0.000000
vt 0.000000 0.000000
vt 0.000000 0.000000
vt 0.000000 0.000000
vt 0.000000 0.000000
vt 0.000000 0.000000
vt 0.000000 0.000000
vt 0.000000 0.000000
vt 0.000000 0.000000
vt 0.000000 0.000000
vt 0.000000 0.000000
vt 0.000000 0.000000
vt 0.000000 0.000000
vt 0.000000 0.000000
vt 0.000000 0.000000
vt 0.000000 0.000000
vt 0.000000 0.000000
vt 0.000000 0.000000
vt 0.000000 0.000000
vt 0.000000 0.000000
vt 0.000000 0.000000
vt 0.000000 0.000000
vt 0.000000 0.000000
vt 0.000000 0.000000
vt 0.000000 0.000000
vt 0.000000 0.000000
vt 0.000000 0.000000
vt 0.000000 0.000000
vt 0.000000 0.000000
vt 0.000000 0.000000
vt 0.000000 0.000000
vt 0.000000 0.000000
vt 0.000000 0.000000
vt 0.000000 0.000000
vt 0.000000 0.000000
vt 0.000000 0.000000
vt 0.000000 0.000000
vt 0.000000 0.000000
vt 0.000000 0.000000
vt 0.000000 0.000000
vt 0.000000 0.000000
vt 0.000000 0.000000
vt 0.000000 0.000000
vt 0.000000 0.000000
vt 0.000000 0.000000
vt 0.000000 0.000000
vt 0.000000 0.000000
vt 0.000000 0.000000
vt 0.000000 0.000000
vt 0.000000 0.000000
vt 0.000000 0.000000
vt 0.000000 0.000000
vt 0.000000 0.000000
vt 0.000000 0.000000
vt 0.000000 0.000000
vt 0.000000 0.000000
vt 0.000000 0.000000
vt 0.000000 0.000000
vt 0.000000 0.000000
vt 0.000000 0.000000
vt 0.000000 0.000000
vt 0.000000 0.000000
vt 0.000000 0.000000
vt 0.000000 0.000000
vt 0.000000 0.000000
vt 0.000000 0.000000
vt 0.000000 0.000000
vt 0.000000 0.000000
vt 0.000000 0.000000
vt 0.000000 0.000000
vt 0.000000 0.000000
vt 0.000000 0.000000
vt 0.000000 0.000000
vt 0.000000 0.000000
vt 0.000000 0.000000
vt 0.000000 0.000000
vt 0.000000 0.000000
vt 0.000000 0.000000
vt 0.000000 0.000000
vt 0.000000 0.000000
vt 0.000000 0.000000
vt 0.000000 0.000000
vt 0.000000 0.000000
vt 0.000000 0.000000
vt 0.000000 0.000000
vt 0.000000 0.000000
vt 0.000000 0.000000
vt 0.000000 0.000000
vt 0.000000 0.000000
vt 0.000000 0.000000
vt 0.000000 0.000000
vt 0.000000 0.000000
vt 0.000000 0.000000
vt 0.000000 0.000000
vt 0.000000 0.000000
vt 0.000000 0.000000
vt 0.000000 0.000000
vt 0.000000 0.000000
vt 0.000000 0.000000
vt 0.000000 0.000000
vt 0.000000 0.000000
vt 0.000000 0.000000
vt 0.000000 0.000000
vt 0.000000 0.000000
vt 0.000000 0.000000
vt 0.000000 0.000000
vt 0.000000 0.000000
vt 0.000000 0.000000
vt 0.000000 0.000000
vt 0.000000 0.000000
vt 0.000000 0.000000
vt 0.000000 0.000000
vt 0.000000 0.000000
vt 0.000000 0.000000
vt 0.000000 0.000000
vt 0.000000 0.000000
vt 0.000000 0.000000
vt 0.000000 0.000000
vt 0.000000 0.000000
vt 0.000000 0.000000
vt 0.000000 0.000000
vt 0.000000 0.000000
vt 0.000000 0.000000
vt 0.000000 0.000000
vt 0.000000 0.000000
vt 0.000000 0.000000
vt 0.000000 0.000000
vt 0.000000 0.000000
vt 0.000000 0.000000
vt 0.000000 0.000000
vt 0.000000 0.000000
vt 0.000000 0.000000
vt 0.000000 0.000000
vt 0.000000 0.000000
vt 0.000000 0.000000
vt 0.000000 0.000000
vt 0.000000 0.000000
vt 0.000000 0.000000
vt 0.000000 0.000000
vt 0.000000 0.000000
vt 0.000000 0.000000
vt 0.000000 0.000000
vt 0.000000 0.000000
vt 0.000000 0.000000
vt 0.000000 0.000000
vt 0.000000 0.000000
vt 0.000000 0.000000
vt 0.000000 0.000000
vt 0.000000 0.000000
vt 0.000000 0.000000
vt 0.000000 0.000000
vt 0.000000 0.000000
vt 0.000000 0.000000
vt 0.000000 0.000000
vt 0.000000 0.000000
vt 0.000000 0.000000
vt 0.000000 0.000000
vt 0.000000 0.000000
vt 0.000000 0.000000
vt 0.000000 0.000000
vt 0.000000 0.000000
vt 0.000000 0.000000
vt 0.000000 0.000000
vt 0.000000 0.000000
vt 0.000000 0.000000
vt 0.000000 0.000000
vt 0.000000 0.000000
vt 0.000000 0.000000
vt 0.000000 0.000000
vt 0.000000 0.000000
vt 0.000000 0.000000
vt 0.000000 0.000000
vt 0.000000 0.000000
vt 0.000000 0.000000
vt 0.000000 0.000000
vt 0.000000 0.000000
vt 0.000000 0.000000
vt 0.000000 0.000000
vt 0.000000 0.000000
vt 0.000000 0.000000
vt 0.000000 0.000000
vt 0.000000 0.000000
vt 0.000000 0.000000
vt 0.000000 0.000000
vt 0.000000 0.000000
vt 0.000000 0.000000
vt 0.000000 0.000000
vt 0.000000 0.000000
vt 0.000000 0.000000
vt 0.000000 0.000000
vt 0.000000 0.000000
vt 0.000000 0.000000
vt 0.000000 0.000000
vt 0.000000 0.000000
vt 0.000000 0.000000
vt 0.000000 0.000000
vt 0.000000 0.000000
vt 0.000000 0.000000
vt 0.000000 0.000000
vt 0.000000 0.000000
vt 0.000000 0.000000
vt 0.000000 0.000000
vt 0.000000 0.000000
vt 0.000000 0.000000
vt 0.000000 0.000000
vt 0.000000 0.000000
vt 0.000000 0.000000
vt 0.000000 0.000000
vt 0.000000 0.000000
vt 0.000000 0.000000
vt 0.000000 0.000000
vt 0.000000 0.000000
vt 0.000000 0.000000
vt 0.000000 0.000000
vt 0.000000 0.000000
vt 0.000000 0.000000
vt 0.000000 0.000000
vt 0.000000 0.000000
vt 0.000000 0.000000
vt 0.000000 0.000000
vt 0.000000 0.000000
vt 0.000000 0.000000
vt 0.000000 0.000000
vt 0.000000 0.000000
vt 0.000000 0.000000
vt 0.000000 0.000000
vt 0.000000 0.000000
vt 0.000000 0.000000
vt 0.000000 0.000000
vt 0.000000 0.000000
vt 0.000000 0.000000
vt 0.000000 0.000000
vt 0.000000 0.000000
vt 0.000000 0.000000
vt 0.000000 0.000000
vt 0.000000 0.000000
vt 0.000000 0.000000
vt 0.000000 0.000000
vt 0.000000 0.000000
vt 0.000000 0.000000
vt 0.000000 0.000000
vt 0.000000 0.000000
vt 0.000000 0.000000
vt 0.000000 0.000000
vt 0.000000 0.000000
vt 0.000000 0.000000
vt 0.000000 0.000000
vt 0.000000 0.000000
vt 0.000000 0.000000
vt 0.000000 0.000000
vt 0.000000 0.000000
vt 0.000000 0.000000
vt 0.000000 0.000000
vt 0.000000 0.000000
vt 0.000000 0.000000
vt 0.000000 0.000000
vt 0.000000 0.000000
vt 0.000000 0.000000
vt 0.000000 0.000000
vt 0.000000 0.000000
vt 0.000000 0.000000
vt 0.000000 0.000000
vt 0.000000 0.000000
vt 0.000000 0.000000
vt 0.000000 0.000000
vt 0.000000 0.000000
vt 0.000000 0.000000
vt 0.000000 0.000000
vt 0.000000 0.000000
vt 0.000000 0.000000
vt 0.000000 0.000000
vt 0.000000 0.000000
vt 0.000000 0.000000
vt 0.000000 0.000000
vt 0.000000 0.000000
vt 0.000000 0.000000
vt 0.000000 0.000000
vt 0.000000 0.000000
vt 0.000000 0.000000
vt 0.000000 0.000000
vt 0.000000 0.000000
vt 0.000000 0.000000
vt 0.000000 0.000000
vt 0.000000 0.000000
vt 0.000000 0.000000
vt 0.000000 0.000000
vt 0.000000 0.000000
vt 0.000000 0.000000
vt 0.000000 0.000000
vt 0.000000 0.000000
vt 0.000000 0.000000
vt 0.000000 0.000000
vt 0.000000 0.000000
vt 0.000000 0.000000
vt 0.000000 0.000000
vt 0.000000 0.000000
vt 0.000000 0.000000
vt 0.000000 0.000000
vt 0.000000 0.000000
vt 0.000000 0.000000
vt 0.000000 0.000000
vt 0.000000 0.000000
vt 0.000000 0.000000
vt 0.000000 0.000000
vt 0.000000 0.000000
vt 0.000000 0.000000
vt 0.000000 0.000000
vt 0.000000 0.000000
vt 0.000000 0.000000
vt 0.000000 0.000000
vt 0.000000 0.000000
vt 0.000000 0.000000
vt 0.000000 0.000000
vt 0.000000 0.000000
vt 0.000000 0.000000
vt 0.000000 0.000000
vt 0.000000 0.000000
vt 0.000000 0.000000
vt 0.000000 0.000000
vt 0.000000 0.000000
vt 0.000000 0.000000
vt 0.000000 0.000000
vt 0.000000 0.000000
vt 0.000000 0.000000
vt 0.000000 0.000000
vt 0.000000 0.000000
vt 0.000000 0.000000
vt 0.000000 0.000000
vt 0.000000 0.000000
vt 0.000000 0.000000
vt 0.000000 0.000000
vt 0.000000 0.000000
vt 0.000000 0.000000
vt 0.000000 0.000000
vt 0.000000 0.000000
vt 0.000000 0.000000
vt 0.000000 0.000000
vt 0.000000 0.000000
vt 0.000000 0.000000
vt 0.000000 0.000000
vt 0.000000 0.000000
vt 0.000000 0.000000
vt 0.000000 0.000000
vt 0.000000 0.000000
vt 0.000000 0.000000
vt 0.000000 0.000000
vt 0.000000 0.000000
vt 0.000000 0.000000
vt 0.000000 0.000000
vt 0.000000 0.000000
vt 0.000000 0.000000
vt 0.000000 0.000000
vt 0.000000 0.000000
vt 0.000000 0.000000
vt 0.000000 0.000000
vt 0.000000 0.000000
vt 0.000000 0.000000
vt 0.000000 0.000000
vt 0.000000 0.000000
vt 0.000000 0.000000
vt 0.000000 0.000000
vt 0.000000 0.000000
vn -1.000000 0.000000 0.000000
vn -1.000000 0.000000 0.000000
vn -1.000000 0.000000 0.000000
vn -1.000000 0.000000 0.000000
vn -1.000000 0.000000 0.000000
vn -1.000000 0.000000 0.000000
vn 0.000000 0.000000 1.000000
vn 0.000000 0.000000 1.000000
vn 0.000000 0.000000 1.000000
vn 0.000000 0.000000 1.000000
vn 0.000000 0.000000 1.000000
vn 0.000000 0.000000 1.000000
vn 1.000000 0.000000 0.000000
vn 1.000000 0.000000 0.000000
vn 1.000000 0.000000 0.000000
vn 1.000000 0.000000 0.000000
vn 1.000000 0.000000 0.000000
vn 1.000000 0.000000 0.000000
vn 0.001021 0.989955 -0.141376
vn 0.001458 0.999999 -0.000054
vn 0.000000 1.000000 0.000000
vn 0.001021 0.989955 -0.141376
vn 0.000000 1.000000 0.000000
vn 0.000000 1.000000 0.000000
vn 0.001585 -0.906061 0.423145
vn -0.001641 -0.999999 -0.000245
vn -0.001641 -0.999999 -0.000245
vn 0.001585 -0.906061 0.423145
vn -0.001641 -0.999999 -0.000245
vn 0.001585 -0.906061 0.423145
vn -0.120750 0.992681 0.001833
vn 0.001642 0.999999 0.000245
vn 0.001642 0.999999 0.000245
vn -0.120750 0.992681 0.001833
vn 0.001642 0.999999 0.000245
vn 0.002300 0.999997 0.000684
vn 0.000000 0.000000 -1.000000
vn 0.000000 0.000000 -1.000000
vn 0.000000 0.000000 -1.000000
vn 0.000000 0.000000 -1.000000
vn 0.000000 0.000000 -1.000000
vn 0.000000 0.000000 -1.000000
vn 0.000000 -1.000000 0.000000
vn 0.000000 -1.000000 0.000000
vn 0.000000 -1.000000 0.000000
vn 0.000000 -1.000000 0.000000
vn 0.000000 -1.000000 0.000000
vn 0.000000 -1.000000 0.000000
vn 0.000000 0.000000 1.000000
vn 0.000000 0.000000 1.000000
vn 0.000000 0.000000 1.000000
vn 0.000000 0.000000 1.000000
vn 0.000000 0.000000 1.000000
vn 0.000000 0.000000 1.000000
vn 0.003085 0.999995 0.000655
vn 0.002300 0.999997 0.000684
vn 0.000000 1.000000 0.000000
vn 0.003085 0.999995 0.000655
vn 0.000000 1.000000 0.000000
vn 0.000000 1.000000 0.000000
vn 0.000000 -1.000000 0.000000
vn 0.000000 -1.000000 0.000000
vn 0.000000 -1.000000 0.000000
vn 0.000000 -1.000000 0.000000
vn 0.000000 -1.000000 0.000000
vn 0.000000 -1.000000 0.000000
vn 0.000000 0.000000 1.000000
vn 0.000000 0.000000 1.000000
vn 0.000000 0.000000 1.000000
vn 0.000000 0.000000 1.000000
vn 0.000000 0.000000 1.000000
vn 0.000000 0.000000 1.000000
vn 0.000000 0.000000 -1.000000
vn 0.000000 0.000000 -1.000000
vn 0.000000 0.000000 -1.000000
vn 0.000000 0.000000 -1.000000
vn 0.000000 0.000000 -1.000000
vn 0.000000 0.000000 -1.000000
vn 1.000000 0.000000 0.000000
vn 1.000000 0.000000 0.000000
vn 1.000000 0.000000 0.000000
vn 1.000000 0.000000 0.000000
vn 1.000000 0.000000 0.000000
vn 1.000000 0.000000 0.000000
vn 1.000000 0.000000 0.000000
vn 1.000000 0.000000 0.000000
vn 1.000000 0.000000 0.000000
vn 1.000000 0.000000 0.000000
vn 1.000000 0.000000 0.000000
vn 1.000000 0.000000 0.000000
vn 1.000000 0.000000 0.000000
vn 1.000000 0.000000 0.000000
vn 1.000000 0.000000 0.000000
vn 1.000000 0.000000 0.000000
vn 1.000000 0.000000 0.000000
vn 1.000000 0.000000 0.000000
vn -0.002025 0.976488 0.215563
vn -0.001014 0.985896 0.167353
vn -0.001014 0.985896 0.167353
vn -0.002025 0.976488 0.215563
vn -0.001014 0.985896 0.167353
vn -0.002025 0.976488 0.215563
vn -1.000000 0.000000 0.000000
vn -1.000000 0.000000 0.000000
vn -1.000000 0.000000 0.000000
vn -1.000000 0.000000 0.000000
vn -1.000000 0.000000 0.000000
vn -1.000000 0.000000 0.000000
vn -1.000000 0.000000 0.000000
vn -1.000000 0.000000 0.000000
vn -1.000000 0.000000 0.000000
vn -1.000000 0.000000 0.000000
vn -1.000000 0.000000 0.000000
vn -1.000000 0.000000 0.000000
vn 0.001458 0.999999 -0.000054
vn 0.001021 0.989955 -0.141376
vn -0.124548 0.981740 -0.143784
vn 0.001458 0.999999 -0.000054
vn -0.124548 0.981740 -0.143784
vn -0.121581 0.992581 -0.000257
vn -0.004082 -0.999992 -0.000176
vn -0.004082 -0.999992 -0.000176
vn -0.004082 -0.999992 -0.000176
vn -0.004082 -0.999992 -0.000176
vn -0.004082 -0.999992 -0.000176
vn -0.004082 -0.999992 -0.000176
vn 0.000000 1.000000 0.000000
vn 0.000000 1.000000 0.000000
vn 0.000000 1.000000 0.000000
vn 0.000000 1.000000 0.000000
vn 0.000000 1.000000 0.000000
vn 0.000000 1.000000 0.000000
vn -0.119965 0.992777 0.001804
vn -0.120750 0.992681 0.001833
vn 0.002300 0.999997 0.000684
vn -0.119965 0.992777 0.001804
vn 0.002300 0.999997 0.000684
vn 0.003085 0.999995 0.000655
vn -1.000000 0.000000 0.000000
vn -1.000000 0.000000 0.000000
vn -1.000000 0.000000 0.000000
vn -1.000000 0.000000 0.000000
vn -1.000000 0.000000 0.000000
vn -1.000000 0.000000 0.000000
vn 0.000000 0.000000 1.000000
vn 0.000000 0.000000 1.000000
vn 0.000000 0.000000 1.000000
vn 0.000000 0.000000 1.000000
vn 0.000000 0.000000 1.000000
vn 0.000000 0.000000 1.000000
vn 1.000000 0.000000 0.000000
vn 1.000000 0.000000 0.000000
vn 1.000000 0.000000 0.000000
vn 1.000000 0.000000 0.000000
vn 1.000000 0.000000 0.000000
vn 1.000000 0.000000 0.000000
vn -0.990782 0.040155 -0.129379
vn -0.990782 0.040155 -0.129379
vn -0.990782 0.040155 -0.129379
vn -0.990782 0.040155 -0.129379
vn -0.990782 0.040155 -0.129379
vn -0.990782 0.040155 -0.129379
vn 0.000000 -1.000000 0.000000
vn 0.000000 -1.000000 0.000000
vn 0.000000 -1.000000 0.000000
vn 0.000000 -1.000000 0.000000
vn 0.000000 -1.000000 0.000000
vn 0.000000 -1.000000 0.000000
vn 0.000000 -1.000000 0.000000
vn 0.000000 -1.000000 0.000000
vn -0.123274 -0.992373 0.000000
vn 0.000000 1.000000 0.000000
vn 0.000000 1.000000 0.000000
vn 0.000000 1.000000 0.000000
vn 0.000000 1.000000 0.000000
vn 0.000000 1.000000 0.000000
vn 0.000000 1.000000 0.000000
vn 0.000000 1.000000 0.000000
vn 0.000000 1.000000 0.000000
vn 0.000000 1.000000 0.000000
vn -1.000000 0.000000 0.000000
vn -1.000000 0.000000 0.000000
vn -1.000000 0.000000 0.000000
vn -1.000000 0.000000 0.000000
vn -1.000000 0.000000 0.000000
vn -1.000000 0.000000 0.000000
vn 1.000000 0.000000 0.000000
vn 1.000000 0.000000 0.000000
vn 1.000000 0.000000 0.000000
vn 1.000000 0.000000 0.000000
vn 1.000000 0.000000 0.000000
vn 1.000000 0.000000 0.000000
vn 0.000000 0.904682 -0.426087
vn 0.000000 0.904682 -0.426087
vn 0.000000 0.998084 0.061880
vn 0.000000 0.904682 -0.426087
vn 0.000000 0.998084 0.061880
vn 0.000000 0.998084 0.061880
vn 0.000000 -0.999999 -0.001269
vn -0.123114 -0.992392 -0.001289
vn 0.000000 -0.996875 -0.079001
vn 0.000000 -0.999999 -0.001269
vn 0.000000 -0.996875 -0.079001
vn 0.000000 -0.996875 -0.079001
vn 0.000000 0.998084 0.061880
vn 0.000000 0.998084 0.061880
vn -0.001014 0.985896 0.167353
vn 0.000000 0.998084 0.061880
vn -0.001014 0.985896 0.167353
vn -0.001014 0.985896 0.167353
vn 1.000000 0.000000 0.000000
vn 1.000000 0.000000 0.000000
vn 1.000000 0.000000 0.000000
vn 1.000000 0.000000 0.000000
vn 1.000000 0.000000 0.000000
vn 1.000000 0.000000 0.000000
vn 0.000000 -0.996875 -0.079001
vn 0.000000 -0.996875 -0.079001
vn -0.000561 -0.983517 -0.180814
vn 0.000000 -0.996875 -0.079001
vn -0.000561 -0.983517 -0.180814
vn -0.000561 -0.983517 -0.180814
vn -1.000000 0.000000 0.000000
vn -1.000000 0.000000 0.000000
vn -0.999995 -0.003064 -0.000658
vn -1.000000 0.000000 0.000000
vn -0.999995 -0.003064 -0.000658
vn -0.999995 -0.003064 -0.000658
vn 0.001851 0.999998 0.000840
vn 0.001342 0.977955 0.208812
vn 0.002683 0.977996 0.208605
vn 0.001851 0.999998 0.000840
vn 0.002683 0.977996 0.208605
vn -0.176267 0.967829 0.179547
vn 0.001851 0.999998 0.000840
vn -0.176267 0.967829 0.179547
vn -0.121371 0.992366 -0.021884
vn 1.000000 0.000000 0.000000
vn 1.000000 0.000000 0.000000
vn 1.000000 0.000000 0.000000
vn 1.000000 0.000000 0.000000
vn 1.000000 0.000000 0.000000
vn 1.000000 0.000000 0.000000
vn -0.000561 -0.983517 -0.180814
vn -0.000561 -0.983517 -0.180814
vn -0.190664 -0.954923 -0.227528
vn -0.000561 -0.983517 -0.180814
vn -0.190664 -0.954923 -0.227528
vn -0.190664 -0.954923 -0.227528
vn -0.000561 -0.983517 -0.180814
vn -0.190664 -0.954923 -0.227528
vn -0.001121 -0.978183 -0.207744
vn -0.000561 -0.983517 -0.180814
vn -0.001121 -0.978183 -0.207744
vn -0.000561 -0.978208 -0.207624
vn -0.000561 -0.983517 -0.180814
vn -0.000561 -0.978208 -0.207624
vn -0.000561 -0.978208 -0.207624
vn -0.999995 -0.003064 -0.000658
vn -0.999995 -0.003064 -0.000658
vn -0.999998 0.000413 -0.001781
vn -0.999995 -0.003064 -0.000658
vn -0.999998 0.000413 -0.001781
vn -0.999998 0.000413 -0.001781
vn -0.999995 -0.003064 -0.000658
vn -0.999998 0.000413 -0.001781
vn -0.999980 -0.006127 -0.001316
vn -0.557406 0.246099 -0.792927
vn -0.174880 0.291851 -0.940340
vn -0.174880 0.291851 -0.940340
vn -0.557406 0.246099 -0.792927
vn -0.174880 0.291851 -0.940340
vn -0.557406 0.246099 -0.792927
vn -0.557406 0.246099 -0.792927
vn -0.449986 0.264714 -0.852900
vn -0.449986 0.264714 -0.852900
vn -0.557406 0.246099 -0.792927
vn -0.449986 0.264714 -0.852900
vn -0.557406 0.246099 -0.792927
vn 1.000000 0.000000 0.000000
vn 1.000000 0.000000 0.000000
vn 1.000000 0.000000 0.000000
vn 1.000000 0.000000 0.000000
vn 1.000000 0.000000 0.000000
vn 1.000000 0.000000 0.000000
vn 1.000000 0.000000 0.000000
vn 1.000000 0.000000 0.000000
vn 1.000000 0.000000 0.000000
vn 0.000000 -0.288031 0.957621
vn 0.000000 -0.288031 0.957621
vn 0.000000 -0.288031 0.957621
vn 0.000000 -0.288031 0.957621
vn 0.000000 -0.288031 0.957621
vn 0.000000 -0.288031 0.957621
vn 0.001342 0.977955 0.208812
vn 0.001851 0.999998 0.000840
vn 0.000000 0.977912 0.209019
vn 0.001342 0.977955 0.208812
vn 0.000000 0.977912 0.209019
vn 0.000000 0.977912 0.209019
vn -0.000561 -0.978208 -0.207624
vn -0.000561 -0.978208 -0.207624
vn 0.000000 -0.978234 -0.207504
vn -0.000561 -0.978208 -0.207624
vn 0.000000 -0.978234 -0.207504
vn 0.000000 -0.978234 -0.207504
vn -0.174880 0.291851 -0.940340
vn -0.174880 0.291851 -0.940340
vn 0.000000 0.296419 -0.955058
vn -0.174880 0.291851 -0.940340
vn 0.000000 0.296419 -0.955058
vn 0.000000 0.296419 -0.955058
vn 1.000000 0.000000 0.000000
vn 1.000000 0.000000 0.000000
vn 1.000000 0.000000 0.000000
vn 1.000000 0.000000 0.000000
vn 1.000000 0.000000 0.000000
vn 1.000000 0.000000 0.000000
vn 1.000000 0.000000 0.000000
vn 1.000000 0.000000 0.000000
vn 1.000000 0.000000 0.000000
vn 1.000000 0.000000 0.000000
vn 1.000000 0.000000 0.000000
vn 1.000000 0.000000 0.000000
vn 1.000000 0.000000 0.000000
vn 1.000000 0.000000 0.000000
vn 1.000000 0.000000 0.000000
vn 1.000000 0.000000 0.000000
vn 1.000000 0.000000 0.000000
vn 1.000000 0.000000 0.000000
vn 1.000000 0.000000 0.000000
vn 1.000000 0.000000 0.000000
vn 1.000000 0.000000 0.000000
vn 1.000000 0.000000 0.000000
vn 1.000000 0.000000 0.000000
vn 1.000000 0.000000 0.000000
vn 0.000000 0.000000 -1.000000
vn 0.000000 0.000000 -1.000000
vn 0.000000 0.000000 -1.000000
vn 0.000000 0.000000 -1.000000
vn 0.000000 0.000000 -1.000000
vn 0.000000 0.000000 -1.000000
vn 0.000000 0.000000 1.000000
vn 0.000000 0.000000 1.000000
vn 0.000000 0.000000 1.000000
vn 0.000000 0.000000 1.000000
vn 0.000000 0.000000 1.000000
vn 0.000000 0.000000 1.000000
vn 0.000000 -1.000000 0.000000
vn 0.000000 -1.000000 0.000000
vn 0.000000 -1.000000 0.000000
vn 0.000000 -1.000000 0.000000
vn 0.000000 -1.000000 0.000000
vn 0.000000 -1.000000 0.000000
vn 0.000000 1.000000 0.000000
vn 0.000000 1.000000 0.000000
vn 0.000000 1.000000 0.000000
vn 0.000000 1.000000 0.000000
vn 0.000000 1.000000 0.000000
vn 0.000000 1.000000 0.000000
vn 0.000000 0.000000 1.000000
vn 0.000000 0.000000 1.000000
vn 0.000000 0.000000 1.000000
vn 0.000000 0.000000 1.000000
vn 0.000000 0.000000 1.000000
vn 0.000000 0.000000 1.000000
vn 0.000000 -1.000000 0.000000
vn 0.000000 -0.999999 -0.001269
vn 0.000000 -1.000000 0.000000
vn 0.000000 -1.000000 0.000000
vn 0.000000 -1.000000 0.000000
vn 0.000000 -1.000000 0.000000
vn 0.000000 0.000000 -1.000000
vn 0.000000 0.000000 -1.000000
vn 0.000000 0.000000 -1.000000
vn 0.000000 0.000000 -1.000000
vn 0.000000 0.000000 -1.000000
vn 0.000000 0.000000 -1.000000
vn 0.000000 1.000000 0.000000
vn 0.000000 1.000000 0.000000
vn 0.000000 1.000000 0.000000
vn 0.000000 1.000000 0.000000
vn 0.000000 1.000000 0.000000
vn 0.000000 1.000000 0.000000
vn -0.124548 0.981740 -0.143784
vn 0.001021 0.989955 -0.141376
vn 0.001851 0.999998 0.000840
vn -0.124548 0.981740 -0.143784
vn 0.001851 0.999998 0.000840
vn -0.121371 0.992366 -0.021884
vn -0.999998 0.000413 -0.001781
vn -0.999998 0.000413 -0.001781
vn -0.999973 0.006953 -0.002245
vn -0.999998 0.000413 -0.001781
vn -0.999973 0.006953 -0.002245
vn -0.999973 0.006953 -0.002245
vn 1.000000 0.000000 0.000000
vn 1.000000 0.000000 0.000000
vn 1.000000 0.000000 0.000000
vn 1.000000 0.000000 0.000000
vn 1.000000 0.000000 0.000000
vn 1.000000 0.000000 0.000000
vn 0.001579 -0.908430 0.418034
vn 0.001579 -0.908430 0.418034
vn 0.001579 -0.908430 0.418034
vn 0.001579 -0.908430 0.418034
vn 0.001579 -0.908430 0.418034
vn 0.001579 -0.908430 0.418034
vn 0.000000 0.904682 -0.426087
vn 0.000000 0.904682 -0.426087
vn 0.000000 0.633176 -0.774008
vn 0.000000 0.904682 -0.426087
vn 0.000000 0.633176 -0.774008
vn 0.000000 0.633176 -0.774008
vn 1.000000 0.000000 0.000000
vn 1.000000 0.000000 0.000000
vn 1.000000 0.000000 0.000000
vn -1.000000 0.000000 0.000000
vn -1.000000 0.000000 0.000000
vn -1.000000 0.000000 0.000000
vn -0.004671 -0.640536 0.767914
vn -0.004671 -0.640536 0.767914
vn -0.004671 -0.640536 0.767914
vn -0.004671 -0.640536 0.767914
vn -0.004671 -0.640536 0.767914
vn -0.004671 -0.640536 0.767914
vn -1.000000 0.000000 0.000000
vn -1.000000 0.000000 0.000000
vn -1.000000 0.000000 0.000000
vn 0.002540 0.663689 -0.748005
vn 0.002540 0.663689 -0.748005
vn 0.002540 0.663689 -0.748005
vn 0.002540 0.663689 -0.748005
vn 0.002540 0.663689 -0.748005
vn 0.002540 0.663689 -0.748005
vn 1.000000 0.000000 0.000000
vn 1.000000 0.000000 0.000000
vn 1.000000 0.000000 0.000000
vn 0.004514 -0.641699 0.766943
vn 0.004514 -0.641699 0.766943
vn 0.001585 -0.906061 0.423145
vn 0.004514 -0.641699 0.766943
vn 0.001585 -0.906061 0.423145
vn 0.001585 -0.906061 0.423145
vn 0.004514 -0.641699 0.766943
vn 0.001585 -0.906061 0.423145
vn 0.004514 -0.641699 0.766943
vn 0.004514 -0.641699 0.766943
vn 0.004514 -0.641699 0.766943
vn 0.004514 -0.641699 0.766943
vn -0.121581 0.992581 -0.000257
vn -0.119965 0.992777 0.001804
vn 0.003085 0.999995 0.000655
vn -0.121581 0.992581 -0.000257
vn 0.003085 0.999995 0.000655
vn 0.001458 0.999999 -0.000054
vn -1.000000 0.000000 0.000000
vn -1.000000 0.000000 0.000000
vn -1.000000 0.000000 0.000000
vn -1.000000 0.000000 0.000000
vn -1.000000 0.000000 0.000000
vn -1.000000 0.000000 0.000000
vn -0.123114 -0.992393 0.000000
vn -0.123114 -0.992392 -0.001289
vn 0.000000 -0.999999 -0.001269
vn -0.123114 -0.992393 0.000000
vn 0.000000 -0.999999 -0.001269
vn 0.000000 -1.000000 0.000000
vn 0.000000 -1.000000 0.000000
vn 0.000000 -1.000000 0.000000
vn -0.123274 -0.992373 0.000000
vn 0.000000 -1.000000 0.000000
vn -0.123274 -0.992373 0.000000
vn -0.123274 -0.992373 0.000000
vn 0.000000 -1.000000 0.000000
vn 0.000000 -1.000000 0.000000
vn -0.123274 -0.992373 0.000000
vn 0.000000 -1.000000 0.000000
vn -0.123274 -0.992373 0.000000
vn -0.123114 -0.992393 0.000000
vn -1.000000 0.000000 0.000000
vn -1.000000 0.000000 0.000000
vn -1.000000 0.000000 0.000000
vn -1.000000 0.000000 0.000000
vn -1.000000 0.000000 0.000000
vn -1.000000 0.000000 0.000000
vn -1.000000 0.000000 0.000000
vn -1.000000 0.000000 0.000000
vn -1.000000 0.000000 0.000000
vn -1.000000 0.000000 0.000000
vn -1.000000 0.000000 0.000000
vn -1.000000 0.000000 0.000000
vn -1.000000 0.000000 0.000000
vn -1.000000 0.000000 0.000000
vn -1.000000 0.000000 0.000000
vn -1.000000 0.000000 0.000000
vn -1.000000 0.000000 0.000000
vn -1.000000 0.000000 0.000000
vn -1.000000 0.000000 0.000000
vn -1.000000 0.000000 0.000000
vn -1.000000 0.000000 0.000000
vn -1.000000 0.000000 0.000000
vn -1.000000 0.000000 0.000000
vn -1.000000 0.000000 0.000000
vn -1.000000 0.000000 0.000000
vn -1.000000 0.000000 0.000000
vn -1.000000 0.000000 0.000000
vn 1.000000 0.000000 0.000000
vn 1.000000 0.000000 0.000000
vn 1.000000 0.000000 0.000000
vn 1.000000 0.000000 0.000000
vn 1.000000 0.000000 0.000000
vn 1.000000 0.000000 0.000000
vn 1.000000 0.000000 0.000000
vn 1.000000 0.000000 0.000000
vn 1.000000 0.000000 0.000000
vn -1.000000 0.000000 0.000000
vn -1.000000 0.000000 0.000000
vn -1.000000 0.000000 0.000000
vn -1.000000 0.000000 0.000000
vn -1.000000 0.000000 0.000000
vn -1.000000 0.000000 0.000000
vn 1.000000 0.000000 0.000000
vn 1.000000 0.000000 0.000000
vn 1.000000 0.000000 0.000000
vn 1.000000 0.000000 0.000000
vn 1.000000 0.000000 0.000000
vn 1.000000 0.000000 0.000000
vn -1.000000 0.000000 0.000000
vn -1.000000 0.000000 0.000000
vn -1.000000 0.000000 0.000000
vn -1.000000 0.000000 0.000000
vn -1.000000 0.000000 0.000000
vn -1.000000 0.000000 0.000000
vn -0.001787 0.725215 0.688520
vn -0.001787 0.725215 0.688520
vn -0.001787 0.725215 0.688520
vn -0.001787 0.725215 0.688520
vn -0.001787 0.725215 0.688520
vn -0.001787 0.725215 0.688520
vn 1.000000 0.000000 0.000000
vn 1.000000 0.000000 0.000000
vn 1.000000 0.000000 0.000000
vn 1.000000 0.000000 0.000000
vn 1.000000 0.000000 0.000000
vn 1.000000 0.000000 0.000000
vn 0.001146 -0.725216 -0.688521
vn 0.001146 -0.725216 -0.688521
vn 0.001146 -0.725216 -0.688521
vn 0.001146 -0.725216 -0.688521
vn 0.001146 -0.725216 -0.688521
vn 0.001146 -0.725216 -0.688521
vn -0.398935 -0.011773 0.916903
vn -0.398935 -0.011773 0.916903
vn -0.398935 -0.011773 0.916903
vn -0.398935 -0.011773 0.916903
vn -0.398935 -0.011773 0.916903
vn -0.398935 -0.011773 0.916903
vn -0.398964 -0.000536 -0.916966
vn -0.398964 -0.000536 -0.916966
vn -0.398964 -0.000536 -0.916966
vn -0.398964 -0.000536 -0.916966
vn -0.398964 -0.000536 -0.916966
vn -0.398964 -0.000536 -0.916966
vn -0.123274 -0.992373 0.000000
vn -0.123274 -0.992373 0.000000
vn -0.364135 -0.931346 0.000000
vn -0.123274 -0.992373 0.000000
vn -0.364135 -0.931346 0.000000
vn -0.364135 -0.931346 0.000000
vn -0.362870 0.931840 0.000000
vn -0.362870 0.931840 0.000000
vn -0.362870 0.931840 0.000000
vn -0.362870 0.931840 0.000000
vn -0.362870 0.931840 0.000000
vn -0.362870 0.931840 0.000000
vn -0.365657 -0.275891 0.888920
vn -0.365657 -0.275891 0.888920
vn -0.365657 -0.275891 0.888920
vn -0.365657 -0.275891 0.888920
vn -0.365657 -0.275891 0.888920
vn -0.365657 -0.275891 0.888920
vn -0.190664 -0.954923 -0.227528
vn -0.190664 -0.954923 -0.227528
vn -0.373179 -0.896466 -0.238926
vn -0.190664 -0.954923 -0.227528
vn -0.373179 -0.896466 -0.238926
vn -0.373179 -0.896466 -0.238926
vn -0.449986 0.264714 -0.852900
vn -0.449986 0.264714 -0.852900
vn -0.102370 0.294864 -0.950040
vn -0.449986 0.264714 -0.852900
vn -0.102370 0.294864 -0.950040
vn -0.102370 0.294864 -0.950040
vn -0.121371 0.992366 -0.021884
vn -0.176267 0.967829 0.179547
vn -0.349406 0.925751 0.144570
vn -0.121371 0.992366 -0.021884
vn -0.349406 0.925751 0.144570
vn -0.349406 0.925751 0.144570
vn -0.431666 -0.003674 0.902026
vn -0.431666 -0.003674 0.902026
vn -0.431666 -0.003674 0.902026
vn -0.431666 -0.003674 0.902026
vn -0.431666 -0.003674 0.902026
vn -0.431666 -0.003674 0.902026
vn -0.363329 0.931661 0.000000
vn -0.363329 0.931661 0.000000
vn -0.363329 0.931661 0.000000
vn -0.363329 0.931661 0.000000
vn -0.363329 0.931661 0.000000
vn -0.363329 0.931661 0.000000
vn -0.123114 -0.992392 -0.001289
vn -0.123114 -0.992393 0.000000
vn -0.363677 -0.931525 0.000000
vn -0.123114 -0.992392 -0.001289
vn -0.363677 -0.931525 0.000000
vn -0.363677 -0.931525 0.000000
vn -0.431665 0.000000 -0.902034
vn -0.431665 0.000000 -0.902034
vn -0.431665 0.000000 -0.902034
vn -0.431665 0.000000 -0.902034
vn -0.431665 0.000000 -0.902034
vn -0.431665 0.000000 -0.902034
vn -0.417172 -0.000035 0.908828
vn -0.417172 -0.000035 0.908828
vn -0.417172 -0.000035 0.908828
vn -0.417172 -0.000035 0.908828
vn -0.417172 -0.000035 0.908828
vn -0.417172 -0.000035 0.908828
vn -0.121581 0.992581 -0.000257
vn -0.124548 0.981740 -0.143784
vn -0.363465 0.931608 -0.000597
vn -0.121581 0.992581 -0.000257
vn -0.363465 0.931608 -0.000597
vn -0.363465 0.931608 -0.000597
vn -0.363485 -0.931600 0.000737
vn -0.363485 -0.931600 0.000737
vn -0.363485 -0.931600 0.000737
vn -0.363485 -0.931600 0.000737
vn -0.363485 -0.931600 0.000737
vn -0.363485 -0.931600 0.000737
vn -0.417172 0.000000 -0.908827
vn -0.417172 0.000000 -0.908827
vn -0.417172 0.000000 -0.908827
vn -0.417172 0.000000 -0.908827
vn -0.417172 0.000000 -0.908827
vn -0.417172 0.000000 -0.908827
vn -0.120750 0.992681 0.001833
vn -0.119965 0.992777 0.001804
vn -0.363499 0.931589 0.003361
vn -0.120750 0.992681 0.001833
vn -0.363499 0.931589 0.003361
vn -0.363499 0.931589 0.003361
vn -0.363503 -0.931587 -0.003361
vn -0.501202 -0.616998 0.606721
vn -0.501202 -0.616998 0.606721
vn -0.363503 -0.931587 -0.003361
vn -0.501202 -0.616998 0.606721
vn -0.363503 -0.931587 -0.003361
vn -0.393247 0.000000 -0.919433
vn -0.393247 0.000000 -0.919433
vn -0.393247 0.000000 -0.919433
vn -0.393247 0.000000 -0.919433
vn -0.393247 0.000000 -0.919433
vn -0.393247 0.000000 -0.919433
vn -0.501202 -0.616998 0.606721
vn -0.393248 0.000000 0.919433
vn -0.393248 0.000000 0.919433
vn -0.501202 -0.616998 0.606721
vn -0.393248 0.000000 0.919433
vn -0.501202 -0.616998 0.606721
f 13/1/1 2/2/2 4/3/3
f 13/4/4 4/5/5 26/6/6
f 2/7/7 6/8/8 8/9/9
f 2/10/10 8/11/11 4/12/12
f 22/13/13 23/14/14 24/15/15
f 22/16/16 24/17/17 21/18/18
f 7/19/19 10/20/20 21/21/21
f 7/22/22 21/23/23 24/24/24
f 16/25/25 6/26/26 2/27/27
f 16/28/28 2/29/29 13/30/30
f 26/31/31 4/32/32 8/33/33
f 26/34/34 8/35/35 15/36/36
f 5/37/37 7/38/38 24/39/39
f 5/40/40 24/41/41 23/42/42
f 12/43/43 5/44/44 23/45/45
f 12/46/46 23/47/47 22/48/48
f 10/49/49 12/50/50 22/51/51
f 10/52/52 22/53/53 21/54/54
f 9/55/55 15/56/56 19/57/57
f 9/58/58 19/59/59 17/60/60
f 16/61/61 11/62/62 18/63/63
f 16/64/64 18/65/65 20/66/66
f 15/67/67 16/68/68 20/69/69
f 15/70/70 20/71/71 19/72/72
f 11/73/73 9/74/74 17/75/75
f 11/76/76 17/77/77 18/78/78
f 10/79/79 9/80/80 11/81/81
f 10/82/82 11/83/83 12/84/84
f 17/85/85 19/86/86 20/87/87
f 17/88/88 20/89/89 18/90/90
f 8/91/91 6/92/92 16/93/93
f 8/94/94 16/95/95 15/96/96
f 73/97/97 40/98/98 42/99/99
f 73/100/100 42/101/101 74/102/102
f 102/103/103 103/104/104 104/105/105
f 102/106/106 104/107/107 101/108/108
f 105/109/109 106/110/110 107/111/111
f 105/112/112 107/113/113 108/114/114
f 10/115/115 7/116/116 3/117/117
f 10/118/118 3/119/119 79/120/120
f 12/121/121 11/122/122 14/123/123
f 12/124/124 14/125/125 78/126/126
f 76/127/127 75/128/128 57/129/129
f 76/130/130 57/131/131 58/132/132
f 25/133/133 26/134/134 15/135/135
f 25/136/136 15/137/137 9/138/138
f 82/139/139 28/140/140 30/141/141
f 82/142/142 30/143/143 77/144/144
f 28/145/145 32/146/146 34/147/147
f 28/148/148 34/149/149 30/150/150
f 70/151/151 71/152/152 72/153/153
f 70/154/154 72/155/155 69/156/156
f 95/157/157 93/158/158 94/159/159
f 95/160/160 94/161/161 96/162/162
f 64/163/163 62/164/164 32/165/165
f 64/166/166 32/167/167 28/168/168
f 64/169/169 28/170/170 82/171/171
f 77/172/172 30/173/173 34/174/174
f 77/175/175 34/176/176 61/177/177
f 77/178/178 61/179/179 63/180/180
f 27/181/181 29/182/182 36/183/183
f 27/184/184 36/185/185 35/186/186
f 33/187/187 31/188/188 37/189/189
f 33/190/190 37/191/191 38/192/192
f 29/193/193 33/194/194 38/195/195
f 29/196/196 38/197/197 36/198/198
f 31/199/199 27/200/200 35/201/201
f 31/202/202 35/203/203 37/204/204
f 36/205/205 38/206/206 42/207/207
f 36/208/208 42/209/209 40/210/210
f 38/211/211 37/212/212 41/213/213
f 38/214/214 41/215/215 42/216/216
f 37/217/217 35/218/218 39/219/219
f 37/220/220 39/221/221 41/222/222
f 35/223/223 36/224/224 40/225/225
f 35/226/226 40/227/227 39/228/228
f 52/229/229 46/230/230 49/231/231
f 52/232/232 49/233/233 47/234/234
f 52/235/235 47/236/236 44/237/237
f 54/238/238 56/239/239 55/240/240
f 54/241/241 55/242/242 53/243/243
f 41/244/244 39/245/245 43/246/246
f 41/247/247 43/248/248 48/249/249
f 41/250/250 48/251/251 50/252/252
f 41/253/253 50/254/254 45/255/255
f 41/256/256 45/257/257 51/258/258
f 39/259/259 40/260/260 73/261/261
f 39/262/262 73/263/263 44/264/264
f 39/265/265 44/266/266 43/267/267
f 49/268/268 46/269/269 45/270/270
f 49/271/271 45/272/272 50/273/273
f 50/274/274 48/275/275 47/276/276
f 50/277/277 47/278/278 49/279/279
f 52/280/280 74/281/281 42/282/282
f 52/283/283 42/284/284 41/285/285
f 52/286/286 41/287/287 51/288/288
f 52/289/289 51/290/290 54/291/291
f 52/292/292 54/293/293 53/294/294
f 46/295/295 52/296/296 53/297/297
f 46/298/298 53/299/299 55/300/300
f 51/301/301 45/302/302 56/303/303
f 51/304/304 56/305/305 54/306/306
f 45/307/307 46/308/308 55/309/309
f 45/310/310 55/311/311 56/312/312
f 61/313/313 34/314/314 32/315/315
f 61/316/316 32/317/317 62/318/318
f 63/319/319 61/320/320 62/321/321
f 63/322/322 62/323/323 64/324/324
f 65/325/325 67/326/326 68/327/327
f 65/328/328 68/329/329 66/330/330
f 58/331/331 57/332/332 59/333/333
f 58/334/334 59/335/335 60/336/336
f 59/337/337 57/338/338 65/339/339
f 59/340/340 65/341/341 66/342/342
f 63/343/343 64/344/344 68/345/345
f 63/346/346 68/347/347 67/348/348
f 64/349/349 59/350/350 66/351/351
f 64/352/352 66/353/353 68/354/354
f 57/355/355 63/356/356 67/357/357
f 57/358/358 67/359/359 65/360/360
f 58/361/361 60/362/362 70/363/363
f 58/364/364 70/365/365 69/366/366
f 60/367/367 31/368/368 71/369/369
f 60/370/370 71/371/371 70/372/372
f 31/373/373 33/374/374 72/375/375
f 31/376/376 72/377/377 71/378/378
f 33/379/379 58/380/380 69/381/381
f 33/382/382 69/383/383 72/384/384
f 3/385/385 7/386/386 52/387/387
f 3/388/388 52/389/389 44/390/390
f 44/391/391 73/392/392 1/393/393
f 44/394/394 1/395/395 3/396/396
f 52/397/397 7/398/398 5/399/399
f 52/400/400 5/401/401 74/402/402
f 74/403/403 5/404/404 1/405/405
f 74/406/406 1/407/407 73/408/408
f 33/409/409 29/410/410 1/411/411
f 33/412/412 1/413/413 5/414/414
f 5/415/415 12/416/416 86/417/417
f 85/418/418 78/419/419 1/420/420
f 85/421/421 76/422/422 58/423/423
f 85/424/424 58/425/425 86/426/426
f 88/427/427 13/428/428 14/429/429
f 87/430/430 14/431/431 11/432/432
f 87/433/433 11/434/434 84/435/435
f 11/436/436 16/437/437 83/438/438
f 63/439/439 83/440/440 16/441/441
f 63/442/442 16/443/443 13/444/444
f 63/445/445 13/446/446 88/447/447
f 63/448/448 88/449/449 77/450/450
f 79/451/451 25/452/452 9/453/453
f 79/454/454 9/455/455 10/456/456
f 78/457/457 14/458/458 25/459/459
f 78/460/460 25/461/461 79/462/462
f 80/463/463 27/464/464 31/465/465
f 80/466/466 31/467/467 60/468/468
f 59/469/469 64/470/470 82/471/471
f 59/472/472 82/473/473 81/474/474
f 60/475/475 59/476/476 81/477/477
f 60/478/478 81/479/479 80/480/480
f 97/481/481 99/482/482 100/483/483
f 97/484/484 100/485/485 98/486/486
f 75/487/487 76/488/488 80/489/489
f 75/490/490 80/491/491 81/492/492
f 89/493/493 91/494/494 92/495/495
f 89/496/496 92/497/497 90/498/498
f 14/499/499 87/500/500 75/501/501
f 14/502/502 75/503/503 77/504/504
f 14/505/505 77/506/506 88/507/507
f 83/508/508 63/509/509 57/510/510
f 83/511/511 57/512/512 84/513/513
f 83/514/514 84/515/515 11/516/516
f 1/517/517 29/518/518 76/519/519
f 1/520/520 76/521/521 85/522/522
f 86/523/523 58/524/524 33/525/525
f 86/526/526 33/527/527 5/528/528
f 85/529/529 75/530/530 87/531/531
f 85/532/532 87/533/533 78/534/534
f 78/535/535 87/536/536 84/537/537
f 78/538/538 84/539/539 12/540/540
f 12/541/541 84/542/542 57/543/543
f 12/544/544 57/545/545 86/546/546
f 86/547/547 57/548/548 75/549/549
f 86/550/550 75/551/551 85/552/552
f 82/553/553 77/554/554 89/555/555
f 82/556/556 89/557/557 90/558/558
f 75/559/559 81/560/560 92/561/561
f 75/562/562 92/563/563 91/564/564
f 81/565/565 82/566/566 90/567/567
f 81/568/568 90/569/569 92/570/570
f 77/571/571 75/572/572 91/573/573
f 77/574/574 91/575/575 89/576/576
f 43/577/577 44/578/578 94/579/579
f 43/580/580 94/581/581 93/582/582
f 48/583/583 43/584/584 93/585/585
f 48/586/586 93/587/587 95/588/588
f 47/589/589 48/590/590 95/591/591
f 47/592/592 95/593/593 96/594/594
f 44/595/595 47/596/596 96/597/597
f 44/598/598 96/599/599 94/600/600
f 80/601/601 76/602/602 97/603/603
f 80/604/604 97/605/605 98/606/606
f 76/607/607 29/608/608 99/609/609
f 76/610/610 99/611/611 97/612/612
f 27/613/613 80/614/614 98/615/615
f 27/616/616 98/617/617 100/618/618
f 29/619/619 27/620/620 100/621/621
f 29/622/622 100/623/623 99/624/624
f 78/625/625 79/626/626 102/627/627
f 78/628/628 102/629/629 101/630/630
f 79/631/631 3/632/632 103/633/633
f 79/634/634 103/635/635 102/636/636
f 1/637/637 78/638/638 101/639/639
f 1/640/640 101/641/641 104/642/642
f 3/643/643 1/644/644 104/645/645
f 3/646/646 104/647/647 103/648/648
f 26/649/649 25/650/650 106/651/651
f 26/652/652 106/653/653 105/654/654
f 14/655/655 13/656/656 108/657/657
f 14/658/658 108/659/659 107/660/660
f 25/661/661 14/662/662 107/663/663
f 25/664/664 107/665/665 106/666/666
f 13/667/667 26/668/668 105/669/669
f 13/670/670 105/671/671 108/672/672
