v 0.000000 -2.500000 0.000000
v 0.000000 2.500000 0.000000
v 1.000000 -2.500000 0.000000
v 1.000000 2.500000 0.000000
v 0.707107 -2.500000 -0.707107
v 0.707107 2.500000 -0.707107
v 0.000000 -2.500000 -1.000000
v 0.000000 2.500000 -1.000000
v -0.707107 -2.500000 -0.707107
v -0.707107 2.500000 -0.707107
v -1.000000 -2.500000 0.000000
v -1.000000 2.500000 0.000000
v -0.707107 -2.500000 0.707107
v -0.707107 2.500000 0.707107
v 0.000000 -2.500000 1.000000
v 0.000000 2.500000 1.000000
v 0.707107 -2.500000 0.707107
v 0.707107 2.500000 0.707107
v 0.000000 0.000000 1.000000
v 0.000000 0.000000 -1.000000
v 0.707107 0.000000 -0.707107
v 1.000000 0.000000 0.000000
v 0.707107 0.000000 0.707107
v -0.707107 0.000000 -0.707107
v -1.000000 0.000000 0.000000
v -0.707107 0.000000 0.707107
v -1.000000 -1.250000 0.000000
v -0.707107 -1.250000 0.707107
v -3.398977 -1.250000 1.962347
v -3.691870 -1.250000 1.255240
v -3.398977 0.000000 1.962347
v -3.691870 0.000000 1.255240
v -5.158339 -0.010831 3.533570
v -5.990371 -0.010831 1.631846
v -5.158339 -0.712331 3.533570
v -5.990371 -0.712331 1.631846
v -4.711520 -0.005415 1.730711
v -4.418627 -0.005415 2.437817
v -4.418627 -0.981166 2.437817
v -4.711520 -0.981166 1.730711
v -4.565074 -0.981166 2.084264
v -4.565074 -0.005415 2.084264
v -5.787547 -0.010831 2.095790
v -5.787547 -0.712331 2.095790
v -5.371531 -0.712331 3.046652
v -5.371531 -0.010831 3.046652
vt 0.000000 0.000000
vt 0.000000 0.000000
vt 0.000000 0.000000
vt 0.000000 0.000000
vt 0.000000 0.000000
vt 0.000000 0.000000
vt 0.000000 0.000000
vt 0.000000 0.000000
vt 0.000000 0.000000
vt 0.000000 0.000000
vt 0.000000 0.000000
vt 0.000000 0.000000
vt 0.000000 0.000000
vt 0.000000 0.000000
vt 0.000000 0.000000
vt 0.000000 0.000000
vt 0.000000 0.000000
vt 0.000000 0.000000
vt 0.000000 0.000000
vt 0.000000 0.000000
vt 0.000000 0.000000
vt 0.000000 0.000000
vt 0.000000 0.000000
vt 0.000000 0.000000
vt 0.000000 0.000000
vt 0.000000 0.000000
vt 0.000000 0.000000
vt 0.000000 0.000000
vt 0.000000 0.000000
vt 0.000000 0.000000
vt 0.000000 0.000000
vt 0.000000 0.000000
vt 0.000000 0.000000
vt 0.000000 0.000000
vt 0.000000 0.000000
vt 0.000000 0.000000
vt 0.000000 0.000000
vt 0.000000 0.000000
vt 0.000000 0.000000
vt 0.000000 0.000000
vt 0.000000 0.000000
vt 0.000000 0.000000
vt 0.000000 0.000000
vt 0.000000 0.000000
vt 0.000000 0.000000
vt 0.000000 0.000000
vt 0.000000 0.000000
vt 0.000000 0.000000
vt 0.000000 0.000000
vt 0.000000 0.000000
vt 0.000000 0.000000
vt 0.000000 0.000000
vt 0.000000 0.000000
vt 0.000000 0.000000
vt 0.000000 0.000000
vt 0.000000 0.000000
vt 0.000000 0.000000
vt 0.000000 0.000000
vt 0.000000 0.000000
vt 0.000000 0.000000
vt 0.000000 0.000000
vt 0.000000 0.000000
vt 0.000000 0.000000
vt 0.000000 0.000000
vt 0.000000 0.000000
vt 0.000000 0.000000
vt 0.000000 0.000000
vt 0.000000 0.000000
vt 0.000000 0.000000
vt 0.000000 0.000000
vt 0.000000 0.000000
vt 0.000000 0.000000
vt 0.000000 0.000000
vt 0.000000 0.000000
vt 0.000000 0.000000
vt 0.000000 0.000000
vt 0.000000 0.000000
vt 0.000000 0.000000
vt 0.000000 0.000000
vt 0.000000 0.000000
vt 0.000000 0.000000
vt 0.000000 0.000000
vt 0.000000 0.000000
vt 0.000000 0.000000
vt 0.000000 0.000000
vt 0.000000 0.000000
vt 0.000000 0.000000
vt 0.000000 0.000000
vt 0.000000 0.000000
vt 0.000000 0.000000
vt 0.000000 0.000000
vt 0.000000 0.000000
vt 0.000000 0.000000
vt 0.000000 0.000000
vt 0.000000 0.000000
vt 0.000000 0.000000
vt 0.000000 0.000000
vt 0.000000 0.000000
vt 0.000000 0.000000
vt 0.000000 0.000000
vt 0.000000 0.000000
vt 0.000000 0.000000
vt 0.000000 0.000000
vt 0.000000 0.000000
vt 0.000000 0.000000
vt 0.000000 0.000000
vt 0.000000 0.000000
vt 0.000000 0.000000
vt 0.000000 0.000000
vt 0.000000 0.000000
vt 0.000000 0.000000
vt 0.000000 0.000000
vt 0.000000 0.000000
vt 0.000000 0.000000
vt 0.000000 0.000000
vt 0.000000 0.000000
vt 0.000000 0.000000
vt 0.000000 0.000000
vt 0.000000 0.000000
vt 0.000000 0.000000
vt 0.000000 0.000000
vt 0.000000 0.000000
vt 0.000000 0.000000
vt 0.000000 0.000000
vt 0.000000 0.000000
vt 0.000000 0.000000
vt 0.000000 0.000000
vt 0.000000 0.000000
vt 0.000000 0.000000
vt 0.000000 0.000000
vt 0.000000 0.000000
vt 0.000000 0.000000
vt 0.000000 0.000000
vt 0.000000 0.000000
vt 0.000000 0.000000
vt 0.000000 0.000000
vt 0.000000 0.000000
vt 0.000000 0.000000
vt 0.000000 0.000000
vt 0.000000 0.000000
vt 0.000000 0.000000
vt 0.000000 0.000000
vt 0.000000 0.000000
vt 0.000000 0.000000
vt 0.000000 0.000000
vt 0.000000 0.000000
vt 0.000000 0.000000
vt 0.000000 0.000000
vt 0.000000 0.000000
vt 0.000000 0.000000
vt 0.000000 0.000000
vt 0.000000 0.000000
vt 0.000000 0.000000
vt 0.000000 0.000000
vt 0.000000 0.000000
vt 0.000000 0.000000
vt 0.000000 0.000000
vt 0.000000 0.000000
vt 0.000000 0.000000
vt 0.000000 0.000000
vt 0.000000 0.000000
vt 0.000000 0.000000
vt 0.000000 0.000000
vt 0.000000 0.000000
vt 0.000000 0.000000
vt 0.000000 0.000000
vt 0.000000 0.000000
vt 0.000000 0.000000
vt 0.000000 0.000000
vt 0.000000 0.000000
vt 0.000000 0.000000
vt 0.000000 0.000000
vt 0.000000 0.000000
vt 0.000000 0.000000
vt 0.000000 0.000000
vt 0.000000 0.000000
vt 0.000000 0.000000
vt 0.000000 0.000000
vt 0.000000 0.000000
vt 0.000000 0.000000
vt 0.000000 0.000000
vt 0.000000 0.000000
vt 0.000000 0.000000
vt 0.000000 0.000000
vt 0.000000 0.000000
vt 0.000000 0.000000
vt 0.000000 0.000000
vt 0.000000 0.000000
vt 0.000000 0.000000
vt 0.000000 0.000000
vt 0.000000 0.000000
vt 0.000000 0.000000
vt 0.000000 0.000000
vt 0.000000 0.000000
vt 0.000000 0.000000
vt 0.000000 0.000000
vt 0.000000 0.000000
vt 0.000000 0.000000
vt 0.000000 0.000000
vt 0.000000 0.000000
vt 0.000000 0.000000
vt 0.000000 0.000000
vt 0.000000 0.000000
vt 0.000000 0.000000
vt 0.000000 0.000000
vt 0.000000 0.000000
vt 0.000000 0.000000
vt 0.000000 0.000000
vt 0.000000 0.000000
vt 0.000000 0.000000
vt 0.000000 0.000000
vt 0.000000 0.000000
vt 0.000000 0.000000
vt 0.000000 0.000000
vt 0.000000 0.000000
vt 0.000000 0.000000
vt 0.000000 0.000000
vt 0.000000 0.000000
vt 0.000000 0.000000
vt 0.000000 0.000000
vt 0.000000 0.000000
vt 0.000000 0.000000
vt 0.000000 0.000000
vt 0.000000 0.000000
vt 0.000000 0.000000
vt 0.000000 0.000000
vt 0.000000 0.000000
vt 0.000000 0.000000
vt 0.000000 0.000000
vt 0.000000 0.000000
vt 0.000000 0.000000
vt 0.000000 0.000000
vt 0.000000 0.000000
vt 0.000000 0.000000
vt 0.000000 0.000000
vt 0.000000 0.000000
vt 0.000000 0.000000
vt 0.000000 0.000000
vt 0.000000 0.000000
vt 0.000000 0.000000
vt 0.000000 0.000000
vt 0.000000 0.000000
vt 0.000000 0.000000
vt 0.000000 0.000000
vt 0.000000 0.000000
vt 0.000000 0.000000
vt 0.000000 0.000000
vt 0.000000 0.000000
vt 0.000000 0.000000
vt 0.000000 0.000000
vt 0.000000 0.000000
vt 0.000000 0.000000
vt 0.000000 0.000000
vt 0.000000 0.000000
vt 0.000000 0.000000
vt 0.000000 0.000000
vt 0.000000 0.000000
vt 0.000000 0.000000
vt 0.000000 0.000000
vt 0.000000 0.000000
vt 0.000000 0.000000
vt 0.000000 0.000000
vt 0.000000 0.000000
vt 0.000000 0.000000
vn 0.000000 -1.000000 0.000000
vn 0.000000 -1.000000 0.000000
vn 0.000000 -1.000000 0.000000
vn 0.707107 0.000000 -0.707107
vn 0.707107 0.000000 -0.707107
vn 1.000000 0.000000 0.000000
vn 0.707107 0.000000 -0.707107
vn 1.000000 0.000000 0.000000
vn 1.000000 0.000000 0.000000
vn 0.000000 1.000000 0.000000
vn 0.000000 1.000000 0.000000
vn 0.000000 1.000000 0.000000
vn 0.000000 -1.000000 0.000000
vn 0.000000 -1.000000 0.000000
vn 0.000000 -1.000000 0.000000
vn -0.000000 0.000000 -1.000000
vn -0.000000 0.000000 -1.000000
vn 0.707107 0.000000 -0.707107
vn -0.000000 0.000000 -1.000000
vn 0.707107 0.000000 -0.707107
vn 0.707107 0.000000 -0.707107
vn 0.000000 1.000000 0.000000
vn 0.000000 1.000000 0.000000
vn 0.000000 1.000000 0.000000
vn 0.000000 -1.000000 0.000000
vn 0.000000 -1.000000 0.000000
vn 0.000000 -1.000000 0.000000
vn -0.707107 0.000000 -0.707107
vn -0.707107 0.000000 -0.707107
vn -0.000000 0.000000 -1.000000
vn -0.707107 0.000000 -0.707107
vn -0.000000 0.000000 -1.000000
vn -0.000000 0.000000 -1.000000
vn 0.000000 1.000000 0.000000
vn 0.000000 1.000000 0.000000
vn 0.000000 1.000000 0.000000
vn 0.000000 -1.000000 0.000000
vn 0.000000 -1.000000 0.000000
vn 0.000000 -1.000000 0.000000
vn -0.927342 0.000000 -0.374214
vn -1.000000 0.000000 0.000000
vn -0.707107 0.000000 -0.707107
vn -0.927342 0.000000 -0.374214
vn -0.707107 0.000000 -0.707107
vn -0.707107 0.000000 -0.707107
vn 0.000000 1.000000 0.000000
vn 0.000000 1.000000 0.000000
vn 0.000000 1.000000 0.000000
vn 0.000000 -1.000000 0.000000
vn 0.000000 -1.000000 0.000000
vn 0.000000 -1.000000 0.000000
vn -0.374428 0.000000 0.927256
vn -0.707107 0.000000 0.707107
vn -1.000000 0.000000 0.000000
vn -0.374428 0.000000 0.927256
vn -1.000000 0.000000 0.000000
vn -0.927342 0.000000 -0.374214
vn 0.000000 1.000000 0.000000
vn 0.000000 1.000000 0.000000
vn 0.000000 1.000000 0.000000
vn 0.000000 -1.000000 0.000000
vn 0.000000 -1.000000 0.000000
vn 0.000000 -1.000000 0.000000
vn 0.000000 0.000000 1.000000
vn 0.000000 0.000000 1.000000
vn -0.707107 0.000000 0.707107
vn 0.000000 0.000000 1.000000
vn -0.707107 0.000000 0.707107
vn -0.374428 0.000000 0.927256
vn 0.000000 1.000000 0.000000
vn 0.000000 1.000000 0.000000
vn 0.000000 1.000000 0.000000
vn 0.000000 -1.000000 0.000000
vn 0.000000 -1.000000 0.000000
vn 0.000000 -1.000000 0.000000
vn 0.707107 0.000000 0.707107
vn 0.707107 0.000000 0.707107
vn 0.000000 0.000000 1.000000
vn 0.707107 0.000000 0.707107
vn 0.000000 0.000000 1.000000
vn 0.000000 0.000000 1.000000
vn 0.000000 1.000000 0.000000
vn 0.000000 1.000000 0.000000
vn 0.000000 1.000000 0.000000
vn 0.000000 -1.000000 0.000000
vn 0.000000 -1.000000 0.000000
vn 0.000000 -1.000000 0.000000
vn 1.000000 0.000000 0.000000
vn 1.000000 0.000000 0.000000
vn 0.707107 0.000000 0.707107
vn 1.000000 0.000000 0.000000
vn 0.707107 0.000000 0.707107
vn 0.707107 0.000000 0.707107
vn 0.000000 1.000000 0.000000
vn 0.000000 1.000000 0.000000
vn 0.000000 1.000000 0.000000
vn -0.707107 0.000000 -0.707107
vn -0.707107 0.000000 -0.707107
vn -1.000000 0.000000 0.000000
vn -0.707107 0.000000 -0.707107
vn -1.000000 0.000000 0.000000
vn -0.928737 0.000000 -0.370741
vn -0.707107 0.000000 -0.707107
vn -0.928737 0.000000 -0.370741
vn -0.927342 0.000000 -0.374214
vn -0.374428 0.000000 0.927256
vn -0.370955 0.000000 0.928651
vn -0.707107 0.000000 0.707107
vn -0.374428 0.000000 0.927256
vn -0.707107 0.000000 0.707107
vn 0.000000 0.000000 1.000000
vn -0.374428 0.000000 0.927256
vn 0.000000 0.000000 1.000000
vn 0.000000 0.000000 1.000000
vn -0.928737 0.000000 -0.370741
vn -1.000000 0.000000 0.000000
vn -0.707107 0.000000 0.707107
vn -0.928737 0.000000 -0.370741
vn -0.707107 0.000000 0.707107
vn -0.370955 0.000000 0.928651
vn 0.707107 0.000000 0.707107
vn 0.707107 0.000000 0.707107
vn 1.000000 0.000000 0.000000
vn 0.707107 0.000000 0.707107
vn 1.000000 0.000000 0.000000
vn 1.000000 0.000000 0.000000
vn 1.000000 0.000000 0.000000
vn 1.000000 0.000000 0.000000
vn 0.707107 0.000000 -0.707107
vn 1.000000 0.000000 0.000000
vn 0.707107 0.000000 -0.707107
vn 0.707107 0.000000 -0.707107
vn 0.707107 0.000000 -0.707107
vn 0.707107 0.000000 -0.707107
vn -0.000000 0.000000 -1.000000
vn 0.707107 0.000000 -0.707107
vn -0.000000 0.000000 -1.000000
vn -0.000000 0.000000 -1.000000
vn -0.000000 0.000000 -1.000000
vn -0.000000 0.000000 -1.000000
vn -0.707107 0.000000 -0.707107
vn -0.000000 0.000000 -1.000000
vn -0.707107 0.000000 -0.707107
vn -0.707107 0.000000 -0.707107
vn 0.000000 0.000000 1.000000
vn 0.000000 0.000000 1.000000
vn 0.707107 0.000000 0.707107
vn 0.000000 0.000000 1.000000
vn 0.707107 0.000000 0.707107
vn 0.707107 0.000000 0.707107
vn -0.916268 0.000000 0.400567
vn -0.916268 0.000000 0.400567
vn -0.916268 0.000000 0.400567
vn -0.916268 0.000000 0.400567
vn -0.916268 0.000000 0.400567
vn -0.916268 0.000000 0.400567
vn 0.000000 -1.000000 0.000000
vn 0.000000 -1.000000 0.000000
vn -0.108200 -0.993118 0.044818
vn 0.000000 -1.000000 0.000000
vn -0.108200 -0.993118 0.044818
vn -0.108200 -0.993118 0.044818
vn -0.370955 0.000000 0.928651
vn -0.374428 0.000000 0.927256
vn 0.422618 0.000000 0.906308
vn -0.370955 0.000000 0.928651
vn 0.422618 0.000000 0.906308
vn 0.422618 0.000000 0.906308
vn -0.927342 0.000000 -0.374214
vn -0.928737 0.000000 -0.370741
vn -0.422618 0.000000 -0.906308
vn -0.927342 0.000000 -0.374214
vn -0.422618 0.000000 -0.906308
vn -0.422618 0.000000 -0.906308
vn 0.000000 1.000000 0.000000
vn 0.000000 1.000000 0.000000
vn -0.002226 0.999997 0.000922
vn 0.000000 1.000000 0.000000
vn -0.002226 0.999997 0.000922
vn -0.002226 0.999997 0.000922
vn -0.004463 0.999988 0.001910
vn -0.004463 0.999988 0.001910
vn -0.004457 0.999988 0.001877
vn -0.004463 0.999988 0.001910
vn -0.004457 0.999988 0.001877
vn -0.004437 0.999988 0.001877
vn 0.649301 0.000000 0.760532
vn 0.828821 0.000000 0.559514
vn 0.828821 0.000000 0.559514
vn 0.649301 0.000000 0.760532
vn 0.828821 0.000000 0.559514
vn 0.649301 0.000000 0.760532
vn -0.212313 -0.972982 0.090709
vn -0.212313 -0.972982 0.090709
vn -0.213612 -0.972777 0.089864
vn -0.212313 -0.972982 0.090709
vn -0.213612 -0.972777 0.089864
vn -0.214203 -0.972575 0.090631
vn -0.178625 0.000000 -0.983917
vn 0.077078 0.000000 -0.997025
vn 0.077078 0.000000 -0.997025
vn -0.178625 0.000000 -0.983917
vn 0.077078 0.000000 -0.997025
vn -0.178625 0.000000 -0.983917
vn 0.649301 0.000000 0.760532
vn 0.422618 0.000000 0.906308
vn 0.422618 0.000000 0.906308
vn 0.649301 0.000000 0.760532
vn 0.422618 0.000000 0.906308
vn 0.649301 0.000000 0.760532
vn -0.004457 0.999988 0.001877
vn -0.002226 0.999997 0.000922
vn -0.002226 0.999997 0.000922
vn -0.004457 0.999988 0.001877
vn -0.002226 0.999997 0.000922
vn -0.004423 0.999988 0.001861
vn -0.004457 0.999988 0.001877
vn -0.004423 0.999988 0.001861
vn -0.004437 0.999988 0.001877
vn -0.178625 0.000000 -0.983917
vn -0.422618 0.000000 -0.906308
vn -0.422618 0.000000 -0.906308
vn -0.178625 0.000000 -0.983917
vn -0.422618 0.000000 -0.906308
vn -0.178625 0.000000 -0.983917
vn -0.213612 -0.972777 0.089864
vn -0.108200 -0.993118 0.044818
vn -0.108200 -0.993118 0.044818
vn -0.213612 -0.972777 0.089864
vn -0.108200 -0.993118 0.044818
vn -0.215148 -0.972371 0.090591
vn -0.213612 -0.972777 0.089864
vn -0.215148 -0.972371 0.090591
vn -0.214203 -0.972575 0.090631
vn -0.214203 -0.972575 0.090631
vn -0.215148 -0.972371 0.090591
vn -0.215384 -0.972171 0.092164
vn -0.214203 -0.972575 0.090631
vn -0.215384 -0.972171 0.092164
vn -0.215384 -0.972171 0.092164
vn -0.004437 0.999988 0.001877
vn -0.004423 0.999988 0.001861
vn -0.004396 0.999989 0.001878
vn -0.004437 0.999988 0.001877
vn -0.004396 0.999989 0.001878
vn -0.004396 0.999989 0.001878
vn -0.916042 0.000000 0.401082
vn -0.916042 0.000000 0.401082
vn -0.916042 0.000000 0.401082
vn -0.916042 0.000000 0.401082
vn -0.916042 0.000000 0.401082
vn -0.916042 0.000000 0.401082
vn -0.766469 0.000000 -0.642282
vn -0.766469 0.000000 -0.642282
vn -0.766469 0.000000 -0.642282
vn -0.766469 0.000000 -0.642282
vn -0.766469 0.000000 -0.642282
vn -0.766469 0.000000 -0.642282
vn 0.009428 0.000000 0.999956
vn 0.009428 0.000000 0.999956
vn 0.009428 0.000000 0.999956
vn 0.009428 0.000000 0.999956
vn 0.009428 0.000000 0.999956
vn 0.009428 0.000000 0.999956
f 5/1/1 3/2/2 1/3/3
f 21/4/4 6/5/5 4/6/6
f 21/7/7 4/8/8 22/9/9
f 4/10/10 6/11/11 2/12/12
f 7/13/13 5/14/14 1/15/15
f 20/16/16 8/17/17 6/18/18
f 20/19/19 6/20/20 21/21/21
f 6/22/22 8/23/23 2/24/24
f 9/25/25 7/26/26 1/27/27
f 24/28/28 10/29/29 8/30/30
f 24/31/31 8/32/32 20/33/33
f 8/34/34 10/35/35 2/36/36
f 11/37/37 9/38/38 1/39/39
f 25/40/40 12/41/41 10/42/42
f 25/43/43 10/44/44 24/45/45
f 10/46/46 12/47/47 2/48/48
f 13/49/49 11/50/50 1/51/51
f 26/52/52 14/53/53 12/54/54
f 26/55/55 12/56/56 25/57/57
f 12/58/58 14/59/59 2/60/60
f 15/61/61 13/62/62 1/63/63
f 19/64/64 16/65/65 14/66/66
f 19/67/67 14/68/68 26/69/69
f 14/70/70 16/71/71 2/72/72
f 17/73/73 15/74/74 1/75/75
f 23/76/76 18/77/77 16/78/78
f 23/79/79 16/80/80 19/81/81
f 16/82/82 18/83/83 2/84/84
f 3/85/85 17/86/86 1/87/87
f 22/88/88 4/89/89 18/90/90
f 22/91/91 18/92/92 23/93/93
f 18/94/94 4/95/95 2/96/96
f 24/97/97 9/98/98 11/99/99
f 24/100/100 11/101/101 27/102/102
f 24/103/103 27/104/104 25/105/105
f 26/106/106 28/107/107 13/108/108
f 26/109/109 13/110/110 15/111/111
f 26/112/112 15/113/113 19/114/114
f 27/115/115 11/116/116 13/117/117
f 27/118/118 13/119/119 28/120/120
f 23/121/121 17/122/122 3/123/123
f 23/124/124 3/125/125 22/126/126
f 22/127/127 3/128/128 5/129/129
f 22/130/130 5/131/131 21/132/132
f 21/133/133 5/134/134 7/135/135
f 21/136/136 7/137/137 20/138/138
f 20/139/139 7/140/140 9/141/141
f 20/142/142 9/143/143 24/144/144
f 19/145/145 15/146/146 17/147/147
f 19/148/148 17/149/149 23/150/150
f 43/151/151 34/152/152 36/153/153
f 43/154/154 36/155/155 44/156/156
f 27/157/157 28/158/158 29/159/159
f 27/160/160 29/161/161 30/162/162
f 28/163/163 26/164/164 31/165/165
f 28/166/166 31/167/167 29/168/168
f 25/169/169 27/170/170 30/171/171
f 25/172/172 30/173/173 32/174/174
f 26/175/175 25/176/176 32/177/177
f 26/178/178 32/179/179 31/180/180
f 46/181/181 33/182/182 38/183/183
f 46/184/184 38/185/185 42/186/186
f 38/187/187 33/188/188 35/189/189
f 38/190/190 35/191/191 39/192/192
f 44/193/193 36/194/194 40/195/195
f 44/196/196 40/197/197 41/198/198
f 40/199/199 36/200/200 34/201/201
f 40/202/202 34/203/203 37/204/204
f 39/205/205 29/206/206 31/207/207
f 39/208/208 31/209/209 38/210/210
f 38/211/211 31/212/212 32/213/213
f 38/214/214 32/215/215 37/216/216
f 38/217/217 37/218/218 42/219/219
f 37/220/220 32/221/221 30/222/222
f 37/223/223 30/224/224 40/225/225
f 40/226/226 30/227/227 29/228/228
f 40/229/229 29/230/230 39/231/231
f 40/232/232 39/233/233 41/234/234
f 41/235/235 39/236/236 35/237/237
f 41/238/238 35/239/239 45/240/240
f 42/241/241 37/242/242 34/243/243
f 42/244/244 34/245/245 43/246/246
f 45/247/247 35/248/248 33/249/249
f 45/250/250 33/251/251 46/252/252
f 41/253/253 45/254/254 46/255/255
f 41/256/256 46/257/257 42/258/258
f 42/259/259 43/260/260 44/261/261
f 42/262/262 44/263/263 41/264/264
