v -0.000001 -3.330386 13.303579
v 0.000000 2.500000 0.000000
v 1.000002 -0.281926 0.000001
v 1.000000 2.500000 0.000000
v 0.707108 -0.281926 -0.707105
v 0.707107 2.500000 -0.707107
v 0.000001 -0.281926 -0.999998
v 0.000000 2.500000 -1.000000
v -0.707106 -0.281926 -0.707105
v -0.707107 2.500000 -0.707107
v -0.999999 -0.281926 0.000001
v -1.000000 2.500000 0.000000
v -0.707106 -0.281926 0.707108
v -0.707107 2.500000 0.707107
v 0.000001 -0.281926 1.000002
v 0.000000 2.500000 1.000000
v 0.707108 -0.281926 0.707108
v 0.707107 2.500000 0.707107
v 1.000000 -1.899936 0.831442
v 0.707107 -1.724996 1.516567
v 0.000000 -1.652533 1.800355
v -0.707107 -1.724996 1.516567
v -1.000000 -1.899936 0.831442
v -0.707107 -2.074878 0.146318
v 0.000000 -2.147341 -0.137470
v 0.707107 -2.074878 0.146318
v 0.707106 -3.296351 2.559258
v 0.999999 -2.938885 3.169355
v 0.707106 -2.581419 3.779451
v -0.000001 -3.444419 2.306548
v -0.707108 -3.296351 2.559258
v -1.000000 -2.938885 3.169355
v -0.707108 -2.581419 3.779451
v -0.000001 -2.433352 4.032161
v 0.707105 -2.985193 6.572397
v -0.000001 -2.842209 6.573511
v -0.707108 -2.985193 6.572397
v 0.999999 -3.330386 6.587296
v -1.000000 -3.330386 6.587296
v -0.707108 -3.675580 6.580994
v -0.000001 -3.870439 6.579878
v 0.707105 -3.675580 6.580994
v 0.707105 -3.675580 13.297277
v 0.999999 -3.330386 13.303579
v 0.707105 -2.985193 13.288681
v -0.000001 -3.870439 13.296162
v -0.707108 -3.675580 13.297277
v -1.000000 -3.330386 13.303579
v -0.707108 -2.985193 13.288681
v -0.000001 -2.842209 13.289793
vt 0.000000 0.000000
vt 0.000000 0.000000
vt 0.000000 0.000000
vt 0.000000 0.000000
vt 0.000000 0.000000
vt 0.000000 0.000000
vt 0.000000 0.000000
vt 0.000000 0.000000
vt 0.000000 0.000000
vt 0.000000 0.000000
vt 0.000000 0.000000
vt 0.000000 0.000000
vt 0.000000 0.000000
vt 0.000000 0.000000
vt 0.000000 0.000000
vt 0.000000 0.000000
vt 0.000000 0.000000
vt 0.000000 0.000000
vt 0.000000 0.000000
vt 0.000000 0.000000
vt 0.000000 0.000000
vt 0.000000 0.000000
vt 0.000000 0.000000
vt 0.000000 0.000000
vt 0.000000 0.000000
vt 0.000000 0.000000
vt 0.000000 0.000000
vt 0.000000 0.000000
vt 0.000000 0.000000
vt 0.000000 0.000000
vt 0.000000 0.000000
vt 0.000000 0.000000
vt 0.000000 0.000000
vt 0.000000 0.000000
vt 0.000000 0.000000
vt 0.000000 0.000000
vt 0.000000 0.000000
vt 0.000000 0.000000
vt 0.000000 0.000000
vt 0.000000 0.000000
vt 0.000000 0.000000
vt 0.000000 0.000000
vt 0.000000 0.000000
vt 0.000000 0.000000
vt 0.000000 0.000000
vt 0.000000 0.000000
vt 0.000000 0.000000
vt 0.000000 0.000000
vt 0.000000 0.000000
vt 0.000000 0.000000
vt 0.000000 0.000000
vt 0.000000 0.000000
vt 0.000000 0.000000
vt 0.000000 0.000000
vt 0.000000 0.000000
vt 0.000000 0.000000
vt 0.000000 0.000000
vt 0.000000 0.000000
vt 0.000000 0.000000
vt 0.000000 0.000000
vt 0.000000 0.000000
vt 0.000000 0.000000
vt 0.000000 0.000000
vt 0.000000 0.000000
vt 0.000000 0.000000
vt 0.000000 0.000000
vt 0.000000 0.000000
vt 0.000000 0.000000
vt 0.000000 0.000000
vt 0.000000 0.000000
vt 0.000000 0.000000
vt 0.000000 0.000000
vt 0.000000 0.000000
vt 0.000000 0.000000
vt 0.000000 0.000000
vt 0.000000 0.000000
vt 0.000000 0.000000
vt 0.000000 0.000000
vt 0.000000 0.000000
vt 0.000000 0.000000
vt 0.000000 0.000000
vt 0.000000 0.000000
vt 0.000000 0.000000
vt 0.000000 0.000000
vt 0.000000 0.000000
vt 0.000000 0.000000
vt 0.000000 0.000000
vt 0.000000 0.000000
vt 0.000000 0.000000
vt 0.000000 0.000000
vt 0.000000 0.000000
vt 0.000000 0.000000
vt 0.000000 0.000000
vt 0.000000 0.000000
vt 0.000000 0.000000
vt 0.000000 0.000000
vt 0.000000 0.000000
vt 0.000000 0.000000
vt 0.000000 0.000000
vt 0.000000 0.000000
vt 0.000000 0.000000
vt 0.000000 0.000000
vt 0.000000 0.000000
vt 0.000000 0.000000
vt 0.000000 0.000000
vt 0.000000 0.000000
vt 0.000000 0.000000
vt 0.000000 0.000000
vt 0.000000 0.000000
vt 0.000000 0.000000
vt 0.000000 0.000000
vt 0.000000 0.000000
vt 0.000000 0.000000
vt 0.000000 0.000000
vt 0.000000 0.000000
vt 0.000000 0.000000
vt 0.000000 0.000000
vt 0.000000 0.000000
vt 0.000000 0.000000
vt 0.000000 0.000000
vt 0.000000 0.000000
vt 0.000000 0.000000
vt 0.000000 0.000000
vt 0.000000 0.000000
vt 0.000000 0.000000
vt 0.000000 0.000000
vt 0.000000 0.000000
vt 0.000000 0.000000
vt 0.000000 0.000000
vt 0.000000 0.000000
vt 0.000000 0.000000
vt 0.000000 0.000000
vt 0.000000 0.000000
vt 0.000000 0.000000
vt 0.000000 0.000000
vt 0.000000 0.000000
vt 0.000000 0.000000
vt 0.000000 0.000000
vt 0.000000 0.000000
vt 0.000000 0.000000
vt 0.000000 0.000000
vt 0.000000 0.000000
vt 0.000000 0.000000
vt 0.000000 0.000000
vt 0.000000 0.000000
vt 0.000000 0.000000
vt 0.000000 0.000000
vt 0.000000 0.000000
vt 0.000000 0.000000
vt 0.000000 0.000000
vt 0.000000 0.000000
vt 0.000000 0.000000
vt 0.000000 0.000000
vt 0.000000 0.000000
vt 0.000000 0.000000
vt 0.000000 0.000000
vt 0.000000 0.000000
vt 0.000000 0.000000
vt 0.000000 0.000000
vt 0.000000 0.000000
vt 0.000000 0.000000
vt 0.000000 0.000000
vt 0.000000 0.000000
vt 0.000000 0.000000
vt 0.000000 0.000000
vt 0.000000 0.000000
vt 0.000000 0.000000
vt 0.000000 0.000000
vt 0.000000 0.000000
vt 0.000000 0.000000
vt 0.000000 0.000000
vt 0.000000 0.000000
vt 0.000000 0.000000
vt 0.000000 0.000000
vt 0.000000 0.000000
vt 0.000000 0.000000
vt 0.000000 0.000000
vt 0.000000 0.000000
vt 0.000000 0.000000
vt 0.000000 0.000000
vt 0.000000 0.000000
vt 0.000000 0.000000
vt 0.000000 0.000000
vt 0.000000 0.000000
vt 0.000000 0.000000
vt 0.000000 0.000000
vt 0.000000 0.000000
vt 0.000000 0.000000
vt 0.000000 0.000000
vt 0.000000 0.000000
vt 0.000000 0.000000
vt 0.000000 0.000000
vt 0.000000 0.000000
vt 0.000000 0.000000
vt 0.000000 0.000000
vt 0.000000 0.000000
vt 0.000000 0.000000
vt 0.000000 0.000000
vt 0.000000 0.000000
vt 0.000000 0.000000
vt 0.000000 0.000000
vt 0.000000 0.000000
vt 0.000000 0.000000
vt 0.000000 0.000000
vt 0.000000 0.000000
vt 0.000000 0.000000
vt 0.000000 0.000000
vt 0.000000 0.000000
vt 0.000000 0.000000
vt 0.000000 0.000000
vt 0.000000 0.000000
vt 0.000000 0.000000
vt 0.000000 0.000000
vt 0.000000 0.000000
vt 0.000000 0.000000
vt 0.000000 0.000000
vt 0.000000 0.000000
vt 0.000000 0.000000
vt 0.000000 0.000000
vt 0.000000 0.000000
vt 0.000000 0.000000
vt 0.000000 0.000000
vt 0.000000 0.000000
vt 0.000000 0.000000
vt 0.000000 0.000000
vt 0.000000 0.000000
vt 0.000000 0.000000
vt 0.000000 0.000000
vt 0.000000 0.000000
vt 0.000000 0.000000
vt 0.000000 0.000000
vt 0.000000 0.000000
vt 0.000000 0.000000
vt 0.000000 0.000000
vt 0.000000 0.000000
vt 0.000000 0.000000
vt 0.000000 0.000000
vt 0.000000 0.000000
vt 0.000000 0.000000
vt 0.000000 0.000000
vt 0.000000 0.000000
vt 0.000000 0.000000
vt 0.000000 0.000000
vt 0.000000 0.000000
vt 0.000000 0.000000
vt 0.000000 0.000000
vt 0.000000 0.000000
vt 0.000000 0.000000
vt 0.000000 0.000000
vt 0.000000 0.000000
vt 0.000000 0.000000
vt 0.000000 0.000000
vt 0.000000 0.000000
vt 0.000000 0.000000
vt 0.000000 0.000000
vt 0.000000 0.000000
vt 0.000000 0.000000
vt 0.000000 0.000000
vt 0.000000 0.000000
vt 0.000000 0.000000
vt 0.000000 0.000000
vt 0.000000 0.000000
vt 0.000000 0.000000
vt 0.000000 0.000000
vt 0.000000 0.000000
vt 0.000000 0.000000
vt 0.000000 0.000000
vt 0.000000 0.000000
vt 0.000000 0.000000
vt 0.000000 0.000000
vt 0.000000 0.000000
vt 0.000000 0.000000
vt 0.000000 0.000000
vt 0.000000 0.000000
vt 0.000000 0.000000
vt 0.000000 0.000000
vt 0.000000 0.000000
vt 0.000000 0.000000
vt 0.000000 0.000000
vt 0.000000 0.000000
vt 0.000000 0.000000
vt 0.000000 0.000000
vt 0.000000 0.000000
vt 0.000000 0.000000
vt 0.000000 0.000000
vt 0.000000 0.000000
vt 0.000000 0.000000
vt 0.000000 0.000000
vn 0.001103 -0.015993 0.999871
vn 0.000000 0.012439 0.999923
vn 0.000000 0.009844 0.999952
vn 0.999993 0.003783 -0.000685
vn 0.708251 -0.157383 -0.688194
vn 0.707107 -0.000000 -0.707107
vn 0.999993 0.003783 -0.000685
vn 0.707107 -0.000000 -0.707107
vn 1.000000 0.000000 0.000000
vn 0.000000 1.000000 0.000000
vn 0.000000 1.000000 0.000000
vn 0.000000 1.000000 0.000000
vn 0.000000 -0.013734 0.999906
vn 0.001103 -0.015993 0.999871
vn 0.000000 0.009844 0.999952
vn 0.708251 -0.157383 -0.688194
vn 0.000000 -0.218414 -0.975856
vn 0.000000 -0.000001 -1.000000
vn 0.708251 -0.157383 -0.688194
vn 0.000000 -0.000001 -1.000000
vn 0.707107 -0.000000 -0.707107
vn 0.000000 1.000000 0.000000
vn 0.000000 1.000000 0.000000
vn 0.000000 1.000000 0.000000
vn -0.001103 -0.015993 0.999871
vn 0.000000 -0.013734 0.999906
vn 0.000000 0.009844 0.999952
vn 0.000000 -0.218414 -0.975856
vn -0.708251 -0.157383 -0.688194
vn -0.707107 -0.000001 -0.707107
vn 0.000000 -0.218414 -0.975856
vn -0.707107 -0.000001 -0.707107
vn 0.000000 -0.000001 -1.000000
vn 0.000000 1.000000 0.000000
vn 0.000000 1.000000 0.000000
vn 0.000000 1.000000 0.000000
vn 0.000000 0.012439 0.999923
vn -0.001103 -0.015993 0.999871
vn 0.000000 0.009844 0.999952
vn -0.708251 -0.157383 -0.688194
vn -0.999993 0.003783 -0.000685
vn -1.000000 -0.000000 -0.000000
vn -0.708251 -0.157383 -0.688194
vn -1.000000 -0.000000 -0.000000
vn -0.707107 -0.000001 -0.707107
vn 0.000000 1.000000 0.000000
vn 0.000000 1.000000 0.000000
vn 0.000000 1.000000 0.000000
vn -0.003640 0.035675 0.999357
vn 0.000000 0.012439 0.999923
vn 0.000000 0.009844 0.999952
vn -0.999993 0.003783 -0.000685
vn -0.708552 0.180903 0.682076
vn -0.707107 0.000000 0.707107
vn -0.999993 0.003783 -0.000685
vn -0.707107 0.000000 0.707107
vn -1.000000 -0.000000 -0.000000
vn 0.000000 1.000000 0.000000
vn 0.000000 1.000000 0.000000
vn 0.000000 1.000000 0.000000
vn 0.000000 0.028229 0.999601
vn -0.003640 0.035675 0.999357
vn 0.000000 0.009844 0.999952
vn -0.708552 0.180903 0.682076
vn 0.000000 0.258460 0.966022
vn 0.000000 0.000001 1.000000
vn -0.708552 0.180903 0.682076
vn 0.000000 0.000001 1.000000
vn -0.707107 0.000000 0.707107
vn 0.000000 1.000000 0.000000
vn 0.000000 1.000000 0.000000
vn 0.000000 1.000000 0.000000
vn 0.003640 0.035675 0.999357
vn 0.000000 0.028229 0.999601
vn 0.000000 0.009844 0.999952
vn 0.000000 0.258460 0.966022
vn 0.708552 0.180902 0.682077
vn 0.707107 0.000001 0.707107
vn 0.000000 0.258460 0.966022
vn 0.707107 0.000001 0.707107
vn 0.000000 0.000001 1.000000
vn 0.000000 1.000000 0.000000
vn 0.000000 1.000000 0.000000
vn 0.000000 1.000000 0.000000
vn 0.000000 0.012439 0.999923
vn 0.003640 0.035675 0.999357
vn 0.000000 0.009844 0.999952
vn 0.708552 0.180902 0.682077
vn 0.999993 0.003783 -0.000685
vn 1.000000 0.000000 0.000000
vn 0.708552 0.180902 0.682077
vn 1.000000 0.000000 0.000000
vn 0.707107 0.000001 0.707107
vn 0.000000 1.000000 0.000000
vn 0.000000 1.000000 0.000000
vn 0.000000 1.000000 0.000000
vn 0.999993 0.003783 -0.000685
vn 0.708552 0.180902 0.682077
vn 0.670402 0.570040 0.474990
vn 0.999993 0.003783 -0.000685
vn 0.670402 0.570040 0.474990
vn 0.999915 0.011871 -0.005392
vn 0.708552 0.180902 0.682077
vn 0.000000 0.258460 0.966022
vn 0.000000 0.768278 0.640116
vn 0.708552 0.180902 0.682077
vn 0.000000 0.768278 0.640116
vn 0.670402 0.570040 0.474990
vn 0.000000 0.258460 0.966022
vn -0.708552 0.180903 0.682076
vn -0.670402 0.570040 0.474990
vn 0.000000 0.258460 0.966022
vn -0.670402 0.570040 0.474990
vn 0.000000 0.768278 0.640116
vn -0.708552 0.180903 0.682076
vn -0.999993 0.003783 -0.000685
vn -0.999915 0.011872 -0.005392
vn -0.708552 0.180903 0.682076
vn -0.999915 0.011872 -0.005392
vn -0.670402 0.570040 0.474990
vn -0.999993 0.003783 -0.000685
vn -0.708251 -0.157383 -0.688194
vn -0.681121 -0.519054 -0.516388
vn -0.999993 0.003783 -0.000685
vn -0.681121 -0.519054 -0.516388
vn -0.999915 0.011872 -0.005392
vn -0.708251 -0.157383 -0.688194
vn 0.000000 -0.218414 -0.975856
vn 0.000000 -0.695871 -0.718167
vn -0.708251 -0.157383 -0.688194
vn 0.000000 -0.695871 -0.718167
vn -0.681121 -0.519054 -0.516388
vn 0.000000 -0.218414 -0.975856
vn 0.708251 -0.157383 -0.688194
vn 0.681121 -0.519055 -0.516388
vn 0.000000 -0.218414 -0.975856
vn 0.681121 -0.519055 -0.516388
vn 0.000000 -0.695871 -0.718167
vn 0.708251 -0.157383 -0.688194
vn 0.999993 0.003783 -0.000685
vn 0.999915 0.011871 -0.005392
vn 0.708251 -0.157383 -0.688194
vn 0.999915 0.011871 -0.005392
vn 0.681121 -0.519055 -0.516388
vn 0.681121 -0.519055 -0.516388
vn 0.999915 0.011871 -0.005392
vn 0.837564 -0.528632 -0.137968
vn 0.681121 -0.519055 -0.516388
vn 0.837564 -0.528632 -0.137968
vn 0.597160 -0.772003 -0.217744
vn 0.999915 0.011871 -0.005392
vn 0.670402 0.570040 0.474990
vn 0.577684 0.791071 0.201218
vn 0.999915 0.011871 -0.005392
vn 0.577684 0.791071 0.201218
vn 0.831775 0.538132 0.136252
vn 0.000000 -0.695871 -0.718167
vn 0.681121 -0.519055 -0.516388
vn 0.597160 -0.772003 -0.217744
vn 0.000000 -0.695871 -0.718167
vn 0.597160 -0.772003 -0.217744
vn 0.000000 -0.959328 -0.282295
vn -0.681121 -0.519054 -0.516388
vn 0.000000 -0.695871 -0.718167
vn 0.000000 -0.959328 -0.282295
vn -0.681121 -0.519054 -0.516388
vn 0.000000 -0.959328 -0.282295
vn -0.597160 -0.772002 -0.217745
vn -0.999915 0.011872 -0.005392
vn -0.681121 -0.519054 -0.516388
vn -0.597160 -0.772002 -0.217745
vn -0.999915 0.011872 -0.005392
vn -0.597160 -0.772002 -0.217745
vn -0.837565 -0.528630 -0.137968
vn -0.670402 0.570040 0.474990
vn -0.999915 0.011872 -0.005392
vn -0.831775 0.538131 0.136252
vn -0.670402 0.570040 0.474990
vn -0.831775 0.538131 0.136252
vn -0.577684 0.791070 0.201218
vn 0.000000 0.768278 0.640116
vn -0.670402 0.570040 0.474990
vn -0.577684 0.791070 0.201218
vn 0.000000 0.768278 0.640116
vn -0.577684 0.791070 0.201218
vn 0.000000 0.968985 0.247121
vn 0.670402 0.570040 0.474990
vn 0.000000 0.768278 0.640116
vn 0.000000 0.968985 0.247121
vn 0.670402 0.570040 0.474990
vn 0.000000 0.968985 0.247121
vn 0.577684 0.791071 0.201218
vn 0.577684 0.791071 0.201218
vn 0.000000 0.968985 0.247121
vn 0.000000 0.997161 0.075297
vn 0.577684 0.791071 0.201218
vn 0.000000 0.997161 0.075297
vn 0.526869 0.847868 0.059406
vn 0.000000 0.968985 0.247121
vn -0.577684 0.791070 0.201218
vn -0.526869 0.847868 0.059406
vn 0.000000 0.968985 0.247121
vn -0.526869 0.847868 0.059406
vn 0.000000 0.997161 0.075297
vn 0.831775 0.538132 0.136252
vn 0.577684 0.791071 0.201218
vn 0.526869 0.847868 0.059406
vn 0.831775 0.538132 0.136252
vn 0.526869 0.847868 0.059406
vn 0.780585 0.623869 0.038414
vn -0.577684 0.791070 0.201218
vn -0.831775 0.538131 0.136252
vn -0.780586 0.623867 0.038413
vn -0.577684 0.791070 0.201218
vn -0.780586 0.623867 0.038413
vn -0.526869 0.847868 0.059406
vn -0.837565 -0.528630 -0.137968
vn -0.597160 -0.772002 -0.217745
vn -0.545301 -0.837230 -0.041148
vn -0.837565 -0.528630 -0.137968
vn -0.545301 -0.837230 -0.041148
vn -0.778381 -0.627005 -0.031416
vn -0.597160 -0.772002 -0.217745
vn 0.000000 -0.959328 -0.282295
vn 0.000000 -0.998825 -0.048469
vn -0.597160 -0.772002 -0.217745
vn 0.000000 -0.998825 -0.048469
vn -0.545301 -0.837230 -0.041148
vn 0.000000 -0.959328 -0.282295
vn 0.597160 -0.772003 -0.217744
vn 0.545300 -0.837230 -0.041148
vn 0.000000 -0.959328 -0.282295
vn 0.545300 -0.837230 -0.041148
vn 0.000000 -0.998825 -0.048469
vn 0.597160 -0.772003 -0.217744
vn 0.837564 -0.528632 -0.137968
vn 0.778380 -0.627007 -0.031416
vn 0.597160 -0.772003 -0.217744
vn 0.778380 -0.627007 -0.031416
vn 0.545300 -0.837230 -0.041148
vn 0.545300 -0.837230 -0.041148
vn 0.778380 -0.627007 -0.031416
vn 0.762508 -0.646979 0.000000
vn 0.545300 -0.837230 -0.041148
vn 0.762508 -0.646979 0.000000
vn 0.537980 -0.842957 0.000000
vn 0.780585 0.623869 0.038414
vn 0.526869 0.847868 0.059406
vn 0.508420 0.861109 0.000000
vn 0.780585 0.623869 0.038414
vn 0.508420 0.861109 0.000000
vn 0.762507 0.646980 0.000000
vn 0.000000 -0.998825 -0.048469
vn 0.545300 -0.837230 -0.041148
vn 0.537980 -0.842957 0.000000
vn 0.000000 -0.998825 -0.048469
vn 0.537980 -0.842957 0.000000
vn 0.000000 -1.000000 0.000000
vn -0.545301 -0.837230 -0.041148
vn 0.000000 -0.998825 -0.048469
vn 0.000000 -1.000000 0.000000
vn -0.545301 -0.837230 -0.041148
vn 0.000000 -1.000000 0.000000
vn -0.537981 -0.842957 0.000000
vn -0.778381 -0.627005 -0.031416
vn -0.545301 -0.837230 -0.041148
vn -0.537981 -0.842957 0.000000
vn -0.778381 -0.627005 -0.031416
vn -0.537981 -0.842957 0.000000
vn -0.762509 -0.646977 0.000000
vn -0.526869 0.847868 0.059406
vn -0.780586 0.623867 0.038413
vn -0.762508 0.646979 0.000000
vn -0.526869 0.847868 0.059406
vn -0.762508 0.646979 0.000000
vn -0.508421 0.861109 0.000000
vn 0.000000 0.997161 0.075297
vn -0.526869 0.847868 0.059406
vn -0.508421 0.861109 0.000000
vn 0.000000 0.997161 0.075297
vn -0.508421 0.861109 0.000000
vn 0.000000 1.000000 0.000000
vn 0.526869 0.847868 0.059406
vn 0.000000 0.997161 0.075297
vn 0.000000 1.000000 0.000000
vn 0.526869 0.847868 0.059406
vn 0.000000 1.000000 0.000000
vn 0.508420 0.861109 0.000000
f 43/1/1 44/2/2 1/3/3
f 3/4/4 5/5/5 6/6/6
f 3/7/7 6/8/8 4/9/9
f 4/10/10 6/11/11 2/12/12
f 46/13/13 43/14/14 1/15/15
f 5/16/16 7/17/17 8/18/18
f 5/19/19 8/20/20 6/21/21
f 6/22/22 8/23/23 2/24/24
f 47/25/25 46/26/26 1/27/27
f 7/28/28 9/29/29 10/30/30
f 7/31/31 10/32/32 8/33/33
f 8/34/34 10/35/35 2/36/36
f 48/37/37 47/38/38 1/39/39
f 9/40/40 11/41/41 12/42/42
f 9/43/43 12/44/44 10/45/45
f 10/46/46 12/47/47 2/48/48
f 49/49/49 48/50/50 1/51/51
f 11/52/52 13/53/53 14/54/54
f 11/55/55 14/56/56 12/57/57
f 12/58/58 14/59/59 2/60/60
f 50/61/61 49/62/62 1/63/63
f 13/64/64 15/65/65 16/66/66
f 13/67/67 16/68/68 14/69/69
f 14/70/70 16/71/71 2/72/72
f 45/73/73 50/74/74 1/75/75
f 15/76/76 17/77/77 18/78/78
f 15/79/79 18/80/80 16/81/81
f 16/82/82 18/83/83 2/84/84
f 44/85/85 45/86/86 1/87/87
f 17/88/88 3/89/89 4/90/90
f 17/91/91 4/92/92 18/93/93
f 18/94/94 4/95/95 2/96/96
f 3/97/97 17/98/98 20/99/99
f 3/100/100 20/101/101 19/102/102
f 17/103/103 15/104/104 21/105/105
f 17/106/106 21/107/107 20/108/108
f 15/109/109 13/110/110 22/111/111
f 15/112/112 22/113/113 21/114/114
f 13/115/115 11/116/116 23/117/117
f 13/118/118 23/119/119 22/120/120
f 11/121/121 9/122/122 24/123/123
f 11/124/124 24/125/125 23/126/126
f 9/127/127 7/128/128 25/129/129
f 9/130/130 25/131/131 24/132/132
f 7/133/133 5/134/134 26/135/135
f 7/136/136 26/137/137 25/138/138
f 5/139/139 3/140/140 19/141/141
f 5/142/142 19/143/143 26/144/144
f 26/145/145 19/146/146 28/147/147
f 26/148/148 28/149/149 27/150/150
f 19/151/151 20/152/152 29/153/153
f 19/154/154 29/155/155 28/156/156
f 25/157/157 26/158/158 27/159/159
f 25/160/160 27/161/161 30/162/162
f 24/163/163 25/164/164 30/165/165
f 24/166/166 30/167/167 31/168/168
f 23/169/169 24/170/170 31/171/171
f 23/172/172 31/173/173 32/174/174
f 22/175/175 23/176/176 32/177/177
f 22/178/178 32/179/179 33/180/180
f 21/181/181 22/182/182 33/183/183
f 21/184/184 33/185/185 34/186/186
f 20/187/187 21/188/188 34/189/189
f 20/190/190 34/191/191 29/192/192
f 29/193/193 34/194/194 36/195/195
f 29/196/196 36/197/197 35/198/198
f 34/199/199 33/200/200 37/201/201
f 34/202/202 37/203/203 36/204/204
f 28/205/205 29/206/206 35/207/207
f 28/208/208 35/209/209 38/210/210
f 33/211/211 32/212/212 39/213/213
f 33/214/214 39/215/215 37/216/216
f 32/217/217 31/218/218 40/219/219
f 32/220/220 40/221/221 39/222/222
f 31/223/223 30/224/224 41/225/225
f 31/226/226 41/227/227 40/228/228
f 30/229/229 27/230/230 42/231/231
f 30/232/232 42/233/233 41/234/234
f 27/235/235 28/236/236 38/237/237
f 27/238/238 38/239/239 42/240/240
f 42/241/241 38/242/242 44/243/243
f 42/244/244 44/245/245 43/246/246
f 38/247/247 35/248/248 45/249/249
f 38/250/250 45/251/251 44/252/252
f 41/253/253 42/254/254 43/255/255
f 41/256/256 43/257/257 46/258/258
f 40/259/259 41/260/260 46/261/261
f 40/262/262 46/263/263 47/264/264
f 39/265/265 40/266/266 47/267/267
f 39/268/268 47/269/269 48/270/270
f 37/271/271 39/272/272 48/273/273
f 37/274/274 48/275/275 49/276/276
f 36/277/277 37/278/278 49/279/279
f 36/280/280 49/281/281 50/282/282
f 35/283/283 36/284/284 50/285/285
f 35/286/286 50/287/287 45/288/288
