v 5.497510 7.537219 3.965077
v 12.364212 -0.000061 -2.517638
v -1.792822 -0.000061 -3.012014
v 12.234414 2.847415 -2.537765
v 3.219826 -0.000061 1.766909
v 13.106401 -0.000061 -8.644093
vt 0.941474 0.377786
vt 0.489310 1.000000
vt 0.336437 0.000000
vt 0.336437 0.000000
vt 0.950186 0.000000
vt 0.941474 0.377786
vt -0.000000 0.000000
vt 0.336437 0.000000
vt 0.489310 1.000000
vt 0.941474 0.377786
vt 0.859375 0.007812
vt 1.000000 0.000000
vt 0.336437 0.000000
vt -0.000000 0.000000
vt 1.000000 0.000000
vt 0.336437 0.000000
vt 1.000000 0.000000
vt 0.950186 0.000000
vt 0.941474 0.377786
vt 1.000000 0.000000
vt -0.000000 0.000000
vt 0.941474 0.377786
vt -0.000000 0.000000
vt 0.489310 1.000000
vn 0.721070 -0.115504 0.683167
vn 0.493436 -0.377620 0.783533
vn 0.469614 -0.180096 0.864308
vn 0.469614 -0.180096 0.864308
vn 0.809229 0.041030 0.586059
vn 0.721070 -0.115504 0.683167
vn -0.690029 -0.002563 0.723777
vn -0.690029 -0.002563 0.723777
vn -0.690029 -0.002563 0.723777
vn 0.721070 -0.115504 0.683167
vn 0.809229 0.041030 0.586059
vn 0.991688 0.046054 0.120138
vn 0.000000 -1.000000 0.000000
vn 0.000000 -1.000000 0.000000
vn 0.000000 -1.000000 0.000000
vn 0.000000 -1.000000 0.000000
vn 0.000000 -1.000000 0.000000
vn 0.000000 -1.000000 0.000000
vn -0.144804 0.808367 -0.570592
vn -0.144804 0.808367 -0.570592
vn -0.144804 0.808367 -0.570592
vn -0.144804 0.808367 -0.570592
vn -0.144804 0.808367 -0.570592
vn -0.144804 0.808367 -0.570592
f 4/1/1 1/2/2 5/3/3
f 5/4/4 2/5/5 4/6/6
f 3/7/7 5/8/8 1/9/9
f 4/10/10 2/11/11 6/12/12
f 5/13/13 3/14/14 6/15/15
f 5/16/16 6/17/17 2/18/18
f 4/19/19 6/20/20 3/21/21
f 4/22/22 3/23/23 1/24/24
