v 1.692404 0.005840 8.969963
v 3.908664 -0.005077 17.486240
v 8.526638 8.179262 4.421817
v -7.684224 -0.002132 11.252929
v -1.740750 5.854695 15.212885
v -7.662349 -0.004315 15.730421
v -4.358629 5.932386 11.921009
vt 0.000000 0.000000
vt 0.000000 0.000000
vt 0.000000 0.000000
vt 0.000000 0.000000
vt 0.000000 0.000000
vt 0.000000 0.000000
vt 0.000000 0.000000
vt 0.000000 0.000000
vt 0.000000 0.000000
vt 0.000000 0.000000
vt 0.000000 0.000000
vt 0.000000 0.000000
vt 0.000000 0.000000
vt 0.000000 0.000000
vt 0.000000 0.000000
vt 0.000000 0.000000
vt 0.000000 0.000000
vt 0.000000 0.000000
vt 0.000000 0.000000
vt 0.000000 0.000000
vt 0.000000 0.000000
vt 0.000000 0.000000
vt 0.000000 0.000000
vt 0.000000 0.000000
vt 0.000000 0.000000
vt 0.000000 0.000000
vt 0.000000 0.000000
vt 0.000000 0.000000
vt 0.000000 0.000000
vt 0.000000 0.000000
vn -0.581461 0.782729 0.221898
vn -0.872571 0.488466 0.004501
vn -0.628896 0.531972 0.567006
vn 0.173236 0.496912 0.850334
vn -0.115818 0.758633 0.641141
vn -0.628896 0.531972 0.567006
vn -0.369154 0.083966 -0.925567
vn -0.369154 0.083966 -0.925567
vn -0.230113 0.235256 -0.944300
vn -0.492480 -0.070898 -0.867431
vn -0.369154 0.083966 -0.925567
vn -0.369154 0.083966 -0.925567
vn 0.381849 -0.918757 -0.100385
vn 0.381849 -0.918757 -0.100385
vn 0.000317 -0.999999 -0.001063
vn 0.381849 -0.918757 -0.100385
vn 0.000317 -0.999999 -0.001063
vn 0.000317 -0.999999 -0.001063
vn -0.628896 0.531972 0.567006
vn -0.115818 0.758633 0.641141
vn -0.581461 0.782729 0.221898
vn 0.192256 0.905619 0.378010
vn -0.581461 0.782729 0.221898
vn -0.115818 0.758633 0.641141
vn 0.192256 0.905619 0.378010
vn -0.115818 0.758633 0.641141
vn 0.173236 0.496912 0.850334
vn 0.701509 -0.688647 -0.183442
vn 0.381849 -0.918757 -0.100385
vn 0.381849 -0.918757 -0.100385
f 7/1/1 4/2/2 6/3/3
f 2/4/4 5/5/5 6/6/6
f 7/7/7 1/8/8 4/9/9
f 3/10/10 1/11/11 7/12/12
f 1/13/13 2/14/14 6/15/15
f 1/16/16 6/17/17 4/18/18
f 6/19/19 5/20/20 7/21/21
f 3/22/22 7/23/23 5/24/24
f 3/25/25 5/26/26 2/27/27
f 3/28/28 2/29/29 1/30/30
