v -16.000000 0.000000 -16.000000
v -16.000000 0.000000 -8.000000
v -16.000000 0.000000 0.000000
v -16.000000 0.000000 8.000001
v -16.000000 0.000000 16.000000
v -8.000001 0.000000 -16.000000
v -10.899343 1.754654 -10.130025
v 8.099179 1.775290 2.758759
v -10.622005 0.360780 1.648460
v -8.000000 0.000000 16.000000
v 0.000000 0.000000 -16.000000
v -1.146296 0.029595 -10.004257
v -2.182230 1.771575 2.162838
v 3.893284 1.679890 11.182756
v 0.000000 0.000000 16.000000
v 8.000000 0.000000 -16.000000
v 4.084853 1.765539 -8.747236
v 1.554686 1.789854 -4.033813
v -8.874008 0.873155 11.198116
v 8.000001 0.000000 16.000000
v 16.000000 0.000000 -16.000000
v 16.000000 0.000000 -8.000001
v 16.000000 0.000000 0.000000
v 16.000000 0.000000 8.000000
v 16.000000 0.000000 16.000000
v -0.001487 -9.362386 -0.068242
v 8.112610 2.999060 5.492412
v 3.280715 1.730041 7.018126
v 4.415365 2.929117 0.752034
v 1.585595 3.315110 2.068639
v 4.034913 1.758064 -1.065345
v -2.141709 2.876588 -0.709057
v -1.416994 2.251992 -2.682172
v -9.174183 2.557114 -7.278820
v -5.071347 1.740246 -7.743246
v -14.070790 0.044631 -12.161668
v 5.982217 2.820221 8.659012
v -0.265208 1.746309 3.924885
v 0.405929 1.728721 -5.456427
v -4.716634 1.790704 3.067196
v -8.259195 1.961860 -3.098662
v -1.568902 1.739211 1.477108
v -4.110493 1.755476 -0.393217
v -6.024268 1.991642 -0.951737
v -11.099722 0.895352 10.769272
v -2.029718 -0.036214 11.280306
v 0.302153 -9.421021 -0.687349
v -2.022564 -2.669550 -0.793752
v 3.571325 -2.163322 0.744283
v -1.753965 -3.271380 -3.261575
v -0.205077 -2.594141 -1.228737
v -1.814965 -1.455182 2.605435
v 1.637354 -3.892069 3.136062
v 0.228145 -1.639091 1.020647
v 3.019538 -3.362185 4.234285
v 6.252710 -0.467266 5.298473
v 3.502582 -0.087768 7.200697
v 3.452840 -2.212984 1.955710
v -0.552958 -1.694717 2.657868
v -1.244852 -1.826562 -0.052118
v -1.200073 -9.510492 -0.815150
v 1.732963 -9.093329 -0.328826
v -6.994538 -0.447939 -2.150486
v 2.338204 -2.756650 0.231848
v 0.905093 -1.855204 -3.098380
v -1.102201 -1.920410 1.116770
v -4.250860 -3.295477 -4.003363
v 11.007113 1.392866 10.681856
vt 0.505200 0.170786
vt 0.491651 0.088555
vt 0.394653 0.118449
vt 0.868039 0.874961
vt 0.947586 0.392571
vt 0.522663 0.682052
vt 0.523125 0.436987
vt 0.647537 0.333026
vt 0.552242 0.301960
vt 0.531066 0.523628
vt 0.515776 0.494792
vt 0.495636 0.468197
vt 0.531066 0.523628
vt 0.495636 0.468197
vt 0.501100 0.498965
vt 0.588906 0.723488
vt 0.468599 0.550209
vt 0.468525 0.729333
vt 0.526204 0.000000
vt 0.394653 0.118449
vt 0.491651 0.088555
vt 0.373757 0.729594
vt 0.433170 0.657859
vt 0.489460 0.556702
vt 0.373757 0.729594
vt 0.489460 0.556702
vt 0.431533 0.553751
vt 0.315622 0.349740
vt 0.131551 0.355347
vt 0.379728 0.467854
vt 0.553008 0.583740
vt 0.574553 0.674028
vt 0.736898 0.763102
vt 0.644653 0.131551
vt 0.526204 0.000000
vt 0.491651 0.088555
vt 0.644653 0.131551
vt 0.491651 0.088555
vt 0.505200 0.170786
vt 0.881551 0.394653
vt 0.763102 0.263102
vt 0.647537 0.333026
vt 1.000000 0.526204
vt 0.881551 0.394653
vt 0.704319 0.437658
vt 0.736898 0.763102
vt 0.868449 0.644653
vt 0.589350 0.465840
vt 0.736898 0.763102
vt 0.574553 0.674028
vt 0.529800 0.714724
vt 0.184470 0.519878
vt 0.118449 0.605347
vt 0.284456 0.633641
vt 0.184470 0.519878
vt 0.431533 0.553751
vt 0.379728 0.467854
vt 0.184470 0.519878
vt 0.379728 0.467854
vt 0.158568 0.476929
vt 0.452481 0.496071
vt 0.479949 0.454284
vt 0.445606 0.426586
vt 0.315622 0.349740
vt 0.263102 0.236898
vt 0.131551 0.355347
vt 0.483858 0.241370
vt 0.505200 0.170786
vt 0.394653 0.118449
vt 0.483858 0.241370
vt 0.394653 0.118449
vt 0.263102 0.236898
vt 0.428667 0.318308
vt 0.483858 0.241370
vt 0.263102 0.236898
vt 0.647537 0.333026
vt 0.523125 0.436987
vt 0.595735 0.425887
vt 0.552242 0.301960
vt 0.647537 0.333026
vt 0.763102 0.263102
vt 0.505200 0.170786
vt 0.552242 0.301960
vt 0.644653 0.131551
vt 0.284456 0.633641
vt 0.118449 0.605347
vt 0.236898 0.736898
vt 0.373757 0.729594
vt 0.284456 0.633641
vt 0.236898 0.736898
vt 0.373757 0.729594
vt 0.236898 0.736898
vt 0.355347 0.868449
vt 0.704319 0.437658
vt 0.868449 0.644653
vt 1.000000 0.526204
vt 0.704319 0.437658
vt 0.881551 0.394653
vt 0.647537 0.333026
vt 0.374957 0.399932
vt 0.573931 0.156768
vt 0.173884 0.335926
vt 0.739262 0.450739
vt 0.783125 0.014535
vt 0.619099 0.424128
vt 0.021284 0.569744
vt 0.566522 0.674795
vt 0.720189 0.167259
vt 0.312332 0.253776
vt 0.772234 0.388058
vt 0.294764 0.720968
vt 0.763349 0.365930
vt 0.785331 0.273141
vt 0.588767 0.296773
vt 0.425783 0.465351
vt 0.263604 0.305600
vt 0.420087 0.536470
vt 0.867004 0.509533
vt 0.391159 0.423290
vt 0.832397 0.035198
vt 0.566700 0.821133
vt 0.393324 0.790949
vt 0.401853 0.241255
vt 0.773998 0.574355
vt 0.691103 0.406060
vt 0.276736 0.304036
vt 0.589892 0.566314
vt 0.501244 0.125496
vt 0.381990 0.462010
vt 0.535956 0.881948
vt 0.780799 0.443390
vt 0.674056 0.227428
vt 0.870285 0.362801
vt -0.002363 0.685505
vt 0.686290 0.933418
vt 0.283089 0.733963
vt 0.511293 0.801762
vt 0.382380 0.051524
vt 0.428667 0.318308
vt 0.315622 0.349740
vt 0.431800 0.353142
vt 0.374510 0.245689
vt 0.382780 0.297633
vt 0.565345 0.323213
vt 0.292377 0.719359
vt 0.375733 0.599308
vt 0.285489 0.490561
vt 0.380753 0.263370
vt 0.772425 0.657418
vt 0.519753 0.182547
vt 0.243193 0.805859
vt 0.800387 0.484010
vt 0.149605 0.367643
vt 0.569704 0.633211
vt 0.559576 0.528729
vt 0.428107 0.561024
vt 0.651138 0.668746
vt 0.857014 0.958765
vt 0.852584 0.512403
vt 0.565345 0.323213
vt 0.515643 0.130259
vt 0.374510 0.245689
vt 0.657590 0.193511
vt 0.440246 0.547436
vt 0.542253 0.566329
vt 0.657590 0.193511
vt 0.542253 0.566329
vt 0.677760 0.399612
vt 0.558594 0.476562
vt 0.671875 0.562500
vt 0.679688 0.390625
vt 0.418725 0.766758
vt 0.526829 0.523528
vt 0.516819 0.051534
vt 0.314472 0.399139
vt 0.418725 0.766758
vt 0.516819 0.051534
vt 0.427734 0.490234
vt 0.472674 0.573357
vt 0.501100 0.498965
vt 0.448107 0.530260
vt 0.486595 0.518863
vt 0.501100 0.498965
vt 0.379913 0.529815
vt 0.425796 0.561738
vt 0.561590 0.514440
vt 0.469753 0.514018
vt 0.379913 0.529815
vt 0.561590 0.514440
vt 0.513531 0.484499
vt 0.469753 0.514018
vt 0.561590 0.514440
vt 0.483106 0.454989
vt 0.482426 0.478758
vt 0.501100 0.498965
vt 0.483106 0.454989
vt 0.501100 0.498965
vt 0.495636 0.468197
vt 0.382780 0.297633
vt 0.515121 0.449024
vt 0.547364 0.468590
vt 0.315622 0.349740
vt 0.428667 0.318308
vt 0.263102 0.236898
vt 0.763102 0.263102
vt 0.644653 0.131551
vt 0.552242 0.301960
vt 0.565345 0.323213
vt 0.382780 0.297633
vt 0.547364 0.468590
vt 0.565345 0.323213
vt 0.547364 0.468590
vt 0.599228 0.508046
vt 0.704319 0.437658
vt 0.589350 0.465840
vt 0.868449 0.644653
vt 0.527663 0.422867
vt 0.502892 0.370825
vt 0.515776 0.494792
vt 0.517169 0.478435
vt 0.527663 0.422867
vt 0.515776 0.494792
vt 0.564350 0.469008
vt 0.517169 0.478435
vt 0.515776 0.494792
vt 0.564350 0.469008
vt 0.515776 0.494792
vt 0.531066 0.523628
vt 0.530807 0.541882
vt 0.564350 0.469008
vt 0.531066 0.523628
vt 0.530807 0.541882
vt 0.531066 0.523628
vt 0.501100 0.498965
vt 0.540639 0.569746
vt 0.530807 0.541882
vt 0.501100 0.498965
vt 0.518964 0.585735
vt 0.540639 0.569746
vt 0.501100 0.498965
vt 0.505451 0.681269
vt 0.518964 0.585735
vt 0.501100 0.498965
vt 0.475080 0.612346
vt 0.505451 0.681269
vt 0.501100 0.498965
vt 0.381990 0.462010
vt 0.191268 0.920768
vt 0.589892 0.566314
vt 0.493645 0.533721
vt 0.511950 0.965623
vt 0.618584 0.552803
vt 0.173884 0.335926
vt 0.217158 0.419667
vt 0.374957 0.399932
vt 0.679688 0.390625
vt 0.365898 0.406611
vt 0.558594 0.476562
vt 0.440246 0.547436
vt 0.278538 0.549309
vt 0.264176 0.655550
vt 0.375733 0.599308
vt 0.292377 0.719359
vt 0.584810 0.732121
vt 0.526273 0.495608
vt 0.654205 0.531557
vt 0.631676 0.930334
vt 0.822195 0.162795
vt 0.501244 0.125496
vt 0.589892 0.566314
vt 0.431800 0.353142
vt 0.315622 0.349740
vt 0.426454 0.386846
vt 0.264176 0.655550
vt 0.542253 0.566329
vt 0.440246 0.547436
vt 0.276736 0.304036
vt 0.366352 0.643047
vt 0.773998 0.574355
vt 0.619099 0.424128
vt 0.403789 0.974841
vt 0.739262 0.450739
vt 0.131551 0.355347
vt 0.000000 0.473796
vt 0.158568 0.476929
vt 0.355347 0.868449
vt 0.446186 0.726577
vt 0.373757 0.729594
vt 0.605347 0.881551
vt 0.736898 0.763102
vt 0.529800 0.714724
vt 0.852584 0.512403
vt 0.745372 0.397678
vt 0.651138 0.668746
vt 0.720189 0.167259
vt 0.566522 0.674795
vt 0.929519 0.525697
vt 0.781056 0.790445
vt 0.335548 0.856774
vt 0.749515 0.471568
vt 0.234146 0.929400
vt 0.858211 0.655257
vt 0.502486 0.025336
vt 0.285489 0.490561
vt 0.029773 0.284722
vt 0.292377 0.719359
vt 0.184470 0.519878
vt 0.000000 0.473796
vt 0.118449 0.605347
vt 0.158568 0.476929
vt 0.000000 0.473796
vt 0.184470 0.519878
vt 0.158568 0.476929
vt 0.379728 0.467854
vt 0.131551 0.355347
vt 0.284456 0.633641
vt 0.373757 0.729594
vt 0.431533 0.553751
vt 0.431533 0.553751
vt 0.184470 0.519878
vt 0.284456 0.633641
vt 0.736898 0.763102
vt 0.589350 0.465840
vt 0.577260 0.550576
vt 0.736898 0.763102
vt 0.577260 0.550576
vt 0.553008 0.583740
vt 0.445606 0.426586
vt 0.432124 0.496139
vt 0.452481 0.496071
vt 0.612076 0.361091
vt 0.637335 0.466968
vt 0.739640 0.420595
vt 0.612076 0.361091
vt 0.739640 0.420595
vt 0.767069 0.353726
vt 0.379728 0.467854
vt 0.426454 0.386846
vt 0.315622 0.349740
vt 0.647537 0.333026
vt 0.595735 0.425887
vt 0.704319 0.437658
vt 0.948276 0.408015
vt 0.364320 0.285073
vt 0.458426 0.558553
vt 0.529948 0.714844
vt 0.511955 0.895722
vt 0.605469 0.881510
vt 0.438317 0.881731
vt 0.448747 0.728232
vt 0.355291 0.869909
vt 0.468525 0.729333
vt 0.469242 0.548323
vt 0.351915 0.728143
vn -0.223122 0.952616 -0.206733
vn -0.164673 0.975718 -0.144421
vn -0.256061 0.964704 -0.061476
vn -0.306524 0.948427 0.080797
vn -0.786945 0.337141 0.516773
vn -0.755277 0.375186 0.537393
vn 0.037660 0.956602 -0.288955
vn 0.007494 0.981401 -0.191822
vn 0.200930 0.965816 -0.163790
vn -0.114913 0.982081 -0.149371
vn -0.114913 0.982081 -0.149371
vn -0.114913 0.982081 -0.149371
vn -0.114913 0.982081 -0.149371
vn -0.114913 0.982081 -0.149371
vn -0.114913 0.982081 -0.149371
vn 0.019928 0.947105 0.320304
vn 0.136706 0.982190 0.128898
vn 0.184694 0.967173 0.174540
vn -0.011565 0.999916 -0.005814
vn -0.256061 0.964704 -0.061476
vn -0.164673 0.975718 -0.144421
vn -0.256869 0.951916 0.166953
vn -0.186738 0.957665 0.219103
vn -0.186738 0.957665 0.219103
vn -0.256869 0.951916 0.166953
vn -0.186738 0.957665 0.219103
vn -0.087545 0.977748 0.190644
vn -0.114039 0.993086 0.027844
vn -0.155374 0.987203 -0.035902
vn -0.119394 0.992653 0.019604
vn 0.222546 0.943351 -0.246095
vn -0.257184 0.947649 -0.189256
vn 0.192438 0.966295 -0.171000
vn -0.034482 0.976264 -0.213822
vn -0.011565 0.999916 -0.005814
vn -0.164673 0.975718 -0.144421
vn -0.034482 0.976264 -0.213822
vn -0.164673 0.975718 -0.144421
vn -0.223122 0.952616 -0.206733
vn -0.074881 0.977427 -0.197559
vn 0.149843 0.987666 -0.045420
vn 0.007494 0.981401 -0.191822
vn 0.074010 0.990081 -0.119428
vn -0.074881 0.977427 -0.197559
vn -0.036737 0.986627 -0.158799
vn 0.192438 0.966295 -0.171000
vn 0.137213 0.990258 0.023697
vn 0.140275 0.989984 -0.015947
vn 0.192438 0.966295 -0.171000
vn -0.257184 0.947649 -0.189256
vn -0.306524 0.948427 0.080797
vn 0.044644 0.984211 0.171275
vn 0.042993 0.993084 0.109248
vn -0.060153 0.988362 0.139725
vn 0.044644 0.984211 0.171275
vn -0.087545 0.977748 0.190644
vn -0.119394 0.992653 0.019604
vn 0.044644 0.984211 0.171275
vn -0.119394 0.992653 0.019604
vn -0.094653 0.993766 0.058908
vn -0.181419 0.949826 0.254791
vn -0.365266 0.783197 0.503172
vn -0.099858 0.980618 0.168570
vn -0.114039 0.993086 0.027844
vn -0.185503 0.977017 0.105004
vn -0.155374 0.987203 -0.035902
vn -0.264477 0.960903 0.081956
vn -0.223122 0.952616 -0.206733
vn -0.256061 0.964704 -0.061476
vn -0.264477 0.960903 0.081956
vn -0.256061 0.964704 -0.061476
vn -0.185503 0.977017 0.105004
vn 0.447238 0.850176 0.277813
vn -0.264477 0.960903 0.081956
vn -0.185503 0.977017 0.105004
vn 0.007494 0.981401 -0.191822
vn 0.037660 0.956602 -0.288955
vn -0.210236 0.937178 -0.278385
vn 0.200930 0.965816 -0.163790
vn 0.007494 0.981401 -0.191822
vn 0.149843 0.987666 -0.045420
vn -0.223122 0.952616 -0.206733
vn 0.200930 0.965816 -0.163790
vn -0.034482 0.976264 -0.213822
vn -0.060153 0.988362 0.139725
vn 0.042993 0.993084 0.109248
vn -0.093366 0.984736 0.146896
vn -0.256869 0.951916 0.166953
vn -0.060153 0.988362 0.139725
vn -0.093366 0.984736 0.146896
vn -0.256869 0.951916 0.166953
vn -0.093366 0.984736 0.146896
vn 0.019928 0.947105 0.320304
vn -0.036737 0.986627 -0.158799
vn 0.137213 0.990258 0.023697
vn 0.074010 0.990081 -0.119428
vn -0.036737 0.986627 -0.158799
vn -0.074881 0.977427 -0.197559
vn 0.007494 0.981401 -0.191822
vn 0.171167 0.201853 -0.964343
vn 0.362429 0.086097 -0.928026
vn 0.106895 0.316700 -0.942483
vn -0.434629 0.070671 0.897833
vn -0.418210 0.088386 0.904040
vn -0.431877 0.083847 0.898027
vn 0.572726 0.504751 0.645919
vn 0.693661 0.460844 0.553585
vn 0.648389 0.388897 0.654485
vn -0.801549 -0.013805 0.597770
vn -0.493529 0.385264 0.779744
vn -0.628247 0.173773 0.758359
vn 0.768097 0.382197 0.513763
vn 0.590998 0.309085 0.745110
vn 0.648389 0.388897 0.654485
vn 0.552235 0.174669 0.815185
vn 0.332565 0.165209 0.928497
vn 0.762051 0.127350 0.634870
vn 0.874257 -0.064975 -0.481096
vn 0.947212 0.041838 -0.317867
vn 0.885948 -0.016635 -0.463486
vn 0.763060 0.331320 -0.554948
vn 0.805099 0.491167 -0.332523
vn 0.429484 0.706106 0.562991
vn -0.936037 0.280791 0.212109
vn -0.981674 0.130643 0.138736
vn -0.886225 0.284033 0.365966
vn -0.186094 0.933520 -0.306446
vn -0.366973 0.654100 -0.661425
vn -0.483416 0.689579 -0.539249
vn -0.257184 0.947649 -0.189256
vn -0.784738 0.617690 -0.051430
vn -0.814157 0.566763 0.126204
vn -0.306524 0.948427 0.080797
vn -0.814157 0.566763 0.126204
vn -0.786945 0.337141 0.516773
vn -0.938197 0.345125 -0.025983
vn -0.863497 0.409222 0.294806
vn -0.886225 0.284033 0.365966
vn 0.447238 0.850176 0.277813
vn -0.114039 0.993086 0.027844
vn 0.684645 0.558793 0.467988
vn 0.447238 0.850176 0.277813
vn 0.684645 0.558793 0.467988
vn 0.429484 0.706106 0.562991
vn -0.189493 0.342437 -0.920233
vn -0.553320 0.319953 -0.769069
vn 0.129960 0.324711 -0.936842
vn 0.947212 0.041838 -0.317867
vn 0.983996 0.105690 -0.143462
vn 0.943839 0.035045 -0.328543
vn -0.936037 0.280791 0.212109
vn -0.880447 0.035569 -0.472808
vn -0.981674 0.130643 0.138736
vn -0.826147 0.296291 -0.479262
vn -0.886092 0.204847 -0.415786
vn -0.553320 0.319953 -0.769069
vn -0.493529 0.385264 0.779744
vn -0.320091 0.530692 0.784797
vn 0.429484 0.706106 0.562991
vn 0.429484 0.706106 0.562991
vn 0.805099 0.491167 -0.332523
vn 0.447238 0.850176 0.277813
vn 0.619278 0.079600 -0.781127
vn 0.934799 0.143487 0.324902
vn 0.981830 0.119607 0.147323
vn 0.619278 0.079600 -0.781127
vn 0.981830 0.119607 0.147323
vn 0.864769 0.114958 -0.488835
vn 0.619278 0.079600 -0.781127
vn 0.864769 0.114958 -0.488835
vn 0.362429 0.086097 -0.928026
vn -0.483416 0.689579 -0.539249
vn -0.366973 0.654100 -0.661425
vn -0.363407 0.656770 -0.660749
vn 0.885948 -0.016635 -0.463486
vn 0.943839 0.035045 -0.328543
vn 0.895646 -0.007838 -0.444698
vn 0.822706 -0.018872 -0.568154
vn 0.885948 -0.016635 -0.463486
vn 0.895646 -0.007838 -0.444698
vn -0.553320 0.319953 -0.769069
vn -0.886092 0.204847 -0.415786
vn -0.900274 0.086907 -0.426560
vn 0.129960 0.324711 -0.936842
vn -0.553320 0.319953 -0.769069
vn 0.103332 0.339787 -0.934809
vn 0.981830 0.119607 0.147323
vn 0.762051 0.127350 0.634870
vn 0.971666 0.124328 -0.201017
vn 0.864769 0.114958 -0.488835
vn 0.981830 0.119607 0.147323
vn 0.971666 0.124328 -0.201017
vn 0.362429 0.086097 -0.928026
vn 0.864769 0.114958 -0.488835
vn 0.971666 0.124328 -0.201017
vn 0.362429 0.086097 -0.928026
vn 0.971666 0.124328 -0.201017
vn 0.431119 0.061241 -0.900214
vn 0.106895 0.316700 -0.942483
vn 0.362429 0.086097 -0.928026
vn 0.431119 0.061241 -0.900214
vn -0.114039 0.993086 0.027844
vn 0.447238 0.850176 0.277813
vn -0.185503 0.977017 0.105004
vn 0.149843 0.987666 -0.045420
vn -0.034482 0.976264 -0.213822
vn 0.200930 0.965816 -0.163790
vn 0.429484 0.706106 0.562991
vn 0.684645 0.558793 0.467988
vn 0.600148 0.578160 0.552769
vn 0.429484 0.706106 0.562991
vn 0.600148 0.578160 0.552769
vn -0.204036 0.374105 0.904663
vn -0.036737 0.986627 -0.158799
vn 0.140275 0.989984 -0.015947
vn 0.137213 0.990258 0.023697
vn -0.628247 0.173773 0.758359
vn 0.429484 0.706106 0.562991
vn -0.204036 0.374105 0.904663
vn -0.793237 -0.013136 0.608771
vn -0.628247 0.173773 0.758359
vn -0.204036 0.374105 0.904663
vn 0.648389 0.388897 0.654485
vn 0.590998 0.309085 0.745110
vn 0.417261 0.245580 0.874976
vn 0.648389 0.388897 0.654485
vn 0.417261 0.245580 0.874976
vn 0.417261 0.245580 0.874976
vn -0.886225 0.284033 0.365966
vn -0.981674 0.130643 0.138736
vn -0.912250 0.051172 0.406424
vn -0.163310 0.102419 -0.981244
vn -0.163310 0.102419 -0.981244
vn -0.163310 0.102419 -0.981244
vn -0.431877 0.083847 0.898027
vn -0.418210 0.088386 0.904040
vn -0.426139 0.110143 0.897928
vn -0.814157 0.566763 0.126204
vn -0.784738 0.617690 -0.051430
vn -0.896883 0.361017 0.255477
vn -0.786945 0.337141 0.516773
vn -0.814157 0.566763 0.126204
vn -0.896883 0.361017 0.255477
vn -0.366973 0.654100 -0.661425
vn -0.109008 0.709484 -0.696240
vn -0.363407 0.656770 -0.660749
vn -0.483416 0.689579 -0.539249
vn -0.256869 0.951916 0.166953
vn -0.186094 0.933520 -0.306446
vn 0.943839 0.035045 -0.328543
vn 0.885948 -0.016635 -0.463486
vn 0.947212 0.041838 -0.317867
vn 0.106895 0.316700 -0.942483
vn -0.143745 0.885094 -0.442658
vn 0.171167 0.201853 -0.964343
vn 0.362429 0.086097 -0.928026
vn 0.171167 0.201853 -0.964343
vn 0.619278 0.079600 -0.781127
vn 0.934799 0.143487 0.324902
vn 0.552235 0.174669 0.815185
vn 0.762051 0.127350 0.634870
vn -0.553320 0.319953 -0.769069
vn -0.189493 0.342437 -0.920233
vn -0.826147 0.296291 -0.479262
vn 0.885948 -0.016635 -0.463486
vn 0.822706 -0.018872 -0.568154
vn 0.874257 -0.064975 -0.481096
vn -0.109008 0.709484 -0.696240
vn -0.366973 0.654100 -0.661425
vn -0.186094 0.933520 -0.306446
vn 0.106895 0.316700 -0.942483
vn -0.114039 0.993086 0.027844
vn -0.143745 0.885094 -0.442658
vn 0.762051 0.127350 0.634870
vn 0.981830 0.119607 0.147323
vn 0.934799 0.143487 0.324902
vn -0.886225 0.284033 0.365966
vn -0.863497 0.409222 0.294806
vn -0.936037 0.280791 0.212109
vn -0.431877 0.083847 0.898027
vn -0.458886 0.074710 0.885349
vn -0.434629 0.070671 0.897833
vn -0.155374 0.987203 -0.035902
vn -0.066758 0.991608 0.110714
vn -0.094653 0.993766 0.058908
vn 0.019928 0.947105 0.320304
vn -0.186094 0.933520 -0.306446
vn -0.256869 0.951916 0.166953
vn 0.316061 0.948010 0.037192
vn 0.192438 0.966295 -0.171000
vn -0.306524 0.948427 0.080797
vn 0.429484 0.706106 0.562991
vn -0.628247 0.173773 0.758359
vn -0.493529 0.385264 0.779744
vn 0.648389 0.388897 0.654485
vn 0.693661 0.460844 0.553585
vn 0.768097 0.382197 0.513763
vn -0.628247 0.173773 0.758359
vn -0.793237 -0.013136 0.608771
vn -0.801549 -0.013805 0.597770
vn -0.814157 0.566763 0.126204
vn -0.306524 0.948427 0.080797
vn -0.257184 0.947649 -0.189256
vn 0.129960 0.324711 -0.936842
vn 0.183499 0.297334 -0.936974
vn -0.189493 0.342437 -0.920233
vn 0.044644 0.984211 0.171275
vn -0.066758 0.991608 0.110714
vn 0.042993 0.993084 0.109248
vn -0.094653 0.993766 0.058908
vn -0.066758 0.991608 0.110714
vn 0.044644 0.984211 0.171275
vn -0.094653 0.993766 0.058908
vn -0.119394 0.992653 0.019604
vn -0.155374 0.987203 -0.035902
vn -0.060153 0.988362 0.139725
vn -0.256869 0.951916 0.166953
vn -0.087545 0.977748 0.190644
vn -0.087545 0.977748 0.190644
vn 0.044644 0.984211 0.171275
vn -0.060153 0.988362 0.139725
vn 0.192438 0.966295 -0.171000
vn 0.140275 0.989984 -0.015947
vn 0.166559 0.922392 -0.348497
vn 0.192438 0.966295 -0.171000
vn 0.166559 0.922392 -0.348497
vn 0.222546 0.943351 -0.246095
vn -0.099858 0.980618 0.168570
vn 0.041048 0.999078 -0.012565
vn -0.181419 0.949826 0.254791
vn -0.119394 0.992653 0.019604
vn 0.041048 0.999078 -0.012565
vn -0.099858 0.980618 0.168570
vn -0.119394 0.992653 0.019604
vn -0.099858 0.980618 0.168570
vn -0.143745 0.885094 -0.442658
vn -0.119394 0.992653 0.019604
vn -0.143745 0.885094 -0.442658
vn -0.114039 0.993086 0.027844
vn 0.007494 0.981401 -0.191822
vn -0.210236 0.937178 -0.278385
vn -0.036737 0.986627 -0.158799
vn 0.434127 0.661179 -0.611863
vn -0.109008 0.709484 -0.696240
vn -0.186094 0.933520 -0.306446
vn 0.316061 0.948010 0.037192
vn -0.306524 0.948427 0.080797
vn 0.184694 0.967173 0.174540
vn 0.184694 0.967173 0.174540
vn -0.186094 0.933520 -0.306446
vn 0.019928 0.947105 0.320304
vn 0.184694 0.967173 0.174540
vn 0.136706 0.982190 0.128898
vn 0.316061 0.948010 0.037192
f 7/1/1 36/2/2 2/3/3
f 27/4/4 56/5/5 68/6/6
f 33/7/7 12/8/8 35/9/9
f 62/10/10 47/11/11 61/12/12
f 62/13/13 61/14/14 26/15/15
f 20/16/16 25/17/17 68/18/18
f 1/19/19 2/20/20 36/21/21
f 14/22/22 28/23/23 30/24/24
f 14/25/25 30/26/26 38/27/27
f 9/28/28 4/29/29 40/30/30
f 29/31/31 8/32/32 23/33/33
f 6/34/34 1/35/35 36/36/36
f 6/37/37 36/38/38 7/39/39
f 16/40/40 11/41/41 12/42/42
f 21/43/43 16/44/44 17/45/45
f 23/46/46 22/47/47 18/48/48
f 23/49/49 8/50/50 27/51/51
f 19/52/52 10/53/53 46/54/54
f 19/55/55 38/56/56 40/57/57
f 19/58/58 40/59/59 45/60/60
f 42/61/61 32/62/62 43/63/63
f 9/64/64 3/65/65 4/66/66
f 34/67/67 7/68/68 2/69/69
f 34/70/70 2/71/71 3/72/72
f 41/73/73 34/74/74 3/75/75
f 12/76/76 33/77/77 39/78/78
f 35/79/79 12/80/80 11/81/81
f 7/82/82 35/83/83 6/84/84
f 46/85/85 10/86/86 15/87/87
f 14/88/88 46/89/89 15/90/90
f 14/91/91 15/92/92 20/93/93
f 17/94/94 22/95/95 21/96/96
f 17/97/97 16/98/98 12/99/99
f 43/100/100 48/101/101 63/102/102
f 29/103/103 64/104/104 49/105/105
f 17/106/106 39/107/107 65/108/108
f 33/109/109 35/110/110 50/111/111
f 33/112/112 51/113/113 65/114/114
f 13/115/115 40/116/116 52/117/117
f 30/118/118 28/119/119 53/120/120
f 7/121/121 34/122/122 67/123/123
f 18/124/124 65/125/125 64/126/126
f 37/127/127 55/128/128 57/129/129
f 8/130/130 49/131/131 58/132/132
f 27/133/133 58/134/134 56/135/135
f 29/136/136 31/137/137 64/138/138
f 41/139/139 9/140/140 63/141/141
f 41/142/142 63/143/143 67/144/144
f 38/145/145 59/146/146 52/147/147
f 28/148/148 14/149/149 57/150/150
f 18/151/151 17/152/152 65/153/153
f 30/154/154 54/155/155 59/156/156
f 35/157/157 7/158/158 67/159/159
f 67/160/160 34/161/161 41/162/162
f 32/163/163 42/164/164 66/165/165
f 32/166/166 66/167/167 60/168/168
f 32/169/169 60/170/170 48/171/171
f 57/172/172 55/173/173 26/174/174
f 53/175/175 57/176/176 26/177/177
f 54/178/178 53/179/179 26/180/180
f 59/181/181 54/182/182 26/183/183
f 52/184/184 59/185/185 26/186/186
f 66/187/187 52/188/188 26/189/189
f 60/190/190 66/191/191 26/192/192
f 48/193/193 60/194/194 26/195/195
f 48/196/196 26/197/197 61/198/198
f 63/199/199 48/200/200 61/201/201
f 9/202/202 41/203/203 3/204/204
f 11/205/205 6/206/206 35/207/207
f 67/208/208 63/209/209 61/210/210
f 67/211/211 61/212/212 47/213/213
f 17/214/214 18/215/215 22/216/216
f 50/217/217 67/218/218 47/219/219
f 51/220/220 50/221/221 47/222/222
f 65/223/223 51/224/224 47/225/225
f 65/226/226 47/227/227 62/228/228
f 64/229/229 65/230/230 62/231/231
f 64/232/232 62/233/233 26/234/234
f 49/235/235 64/236/236 26/237/237
f 58/238/238 49/239/239 26/240/240
f 56/241/241 58/242/242 26/243/243
f 55/244/244 56/245/245 26/246/246
f 57/247/247 14/248/248 37/249/249
f 57/250/250 53/251/251 28/252/252
f 63/253/253 44/254/254 43/255/255
f 48/256/256 43/257/257 32/258/258
f 42/259/259 13/260/260 52/261/261
f 59/262/262 38/263/263 30/264/264
f 53/265/265 54/266/266 30/267/267
f 56/268/268 55/269/269 37/270/270
f 63/271/271 9/272/272 44/273/273
f 52/274/274 66/275/275 42/276/276
f 64/277/277 31/278/278 18/279/279
f 49/280/280 8/281/281 29/282/282
f 4/283/283 5/284/284 45/285/285
f 20/286/286 37/287/287 14/288/288
f 24/289/289 23/290/290 27/291/291
f 67/292/292 50/293/293 35/294/294
f 65/295/295 39/296/296 33/297/297
f 50/298/298 51/299/299 33/300/300
f 58/301/301 27/302/302 8/303/303
f 52/304/304 40/305/305 38/306/306
f 19/307/307 5/308/308 10/309/309
f 45/310/310 5/311/311 19/312/312
f 45/313/313 40/314/314 4/315/315
f 46/316/316 14/317/317 38/318/318
f 38/319/319 19/320/320 46/321/321
f 23/322/322 18/323/323 31/324/324
f 23/325/325 31/326/326 29/327/327
f 43/328/328 13/329/329 42/330/330
f 40/331/331 13/332/332 43/333/333
f 40/334/334 43/335/335 44/336/336
f 40/337/337 44/338/338 9/339/339
f 12/340/340 39/341/341 17/342/342
f 68/343/343 56/344/344 37/345/345
f 24/346/346 27/347/347 68/348/348
f 68/349/349 37/350/350 20/351/351
f 68/352/352 25/353/353 24/354/354
