v -0.862476 -0.000818 0.078975
v 1.131695 8.751369 0.697746
v 5.881345 0.096846 -1.144683
v 3.781125 -5.137972 0.294712
v 1.289711 9.012226 0.075561
v 3.820464 7.040349 -0.378310
v 5.997413 -0.000502 0.232866
v 4.848951 2.733122 0.762008
v 3.895952 6.611870 0.665312
v 0.686990 1.802982 -0.250037
v -0.874097 -0.178026 0.947524
v 0.214780 1.733342 0.568930
vt 0.109484 1.206372
vt 0.076221 1.073532
vt 0.892499 1.032057
vt 0.109484 1.206372
vt 0.892499 1.032057
vt 0.857267 1.163774
vt -0.376454 0.263065
vt -0.265625 0.406250
vt 0.798528 -0.265456
vt 0.574219 0.089844
vt 0.695813 0.155636
vt 0.175645 0.895519
vt 0.574219 0.089844
vt 0.175645 0.895519
vt 0.066406 0.789062
vt 0.574219 0.089844
vt 0.066406 0.789062
vt 0.300781 0.324219
vt 0.129809 1.214560
vt 0.169693 1.242357
vt 0.017566 0.474156
vt 0.129809 1.214560
vt 0.017566 0.474156
vt -0.101621 0.466736
vt -0.316464 0.533142
vt -0.197278 0.540563
vt -0.476562 0.222656
vt -0.316464 0.533142
vt -0.476562 0.222656
vt -0.591298 0.329471
vt 1.068048 0.573270
vt 0.827510 0.986580
vt 0.129809 1.214560
vt 1.068048 0.573270
vt 0.129809 1.214560
vt -0.101621 0.466736
vt 1.328625 0.292354
vt 1.199219 0.398438
vt 0.798528 -0.265456
vt 0.798528 -0.265456
vt -0.373521 0.281947
vt 0.017566 0.474156
vt 0.808457 1.032238
vt 1.328625 0.292354
vt 0.798528 -0.265456
vt 0.798528 -0.265456
vt 0.017566 0.474156
vt 0.169693 1.242357
vt 0.169693 1.242357
vt 0.808457 1.032238
vt 0.798528 -0.265456
vt 0.798528 -0.265456
vt 1.357921 0.281981
vt 1.068048 0.573270
vn 0.597383 0.730127 0.331734
vn 0.597383 0.730127 0.331734
vn 0.829747 0.518080 0.207639
vn 0.597383 0.730127 0.331734
vn 0.829747 0.518080 0.207639
vn 0.829747 0.518080 0.207639
vn 0.011212 -0.998833 -0.046986
vn 0.011212 -0.998833 -0.046986
vn 0.011212 -0.998833 -0.046986
vn 0.996623 -0.078570 -0.023864
vn 0.996623 -0.078570 -0.023864
vn 0.829747 0.518080 0.207639
vn 0.996623 -0.078570 -0.023864
vn 0.829747 0.518080 0.207639
vn 0.829747 0.518080 0.207639
vn 0.996623 -0.078570 -0.023864
vn 0.829747 0.518080 0.207639
vn 0.967223 0.246786 0.059798
vn -0.919671 0.110269 -0.376891
vn -0.919671 0.110269 -0.376891
vn -0.898579 0.342449 -0.274378
vn -0.919671 0.110269 -0.376891
vn -0.898579 0.342449 -0.274378
vn -0.898579 0.342449 -0.274378
vn -0.898579 0.342449 -0.274378
vn -0.898579 0.342449 -0.274378
vn -0.819205 0.552418 -0.154069
vn -0.898579 0.342449 -0.274378
vn -0.819205 0.552418 -0.154069
vn -0.819205 0.552418 -0.154069
vn 0.061151 -0.049557 0.996898
vn -0.022173 -0.003020 0.999750
vn -0.022173 -0.003020 0.999750
vn 0.061151 -0.049557 0.996898
vn -0.022173 -0.003020 0.999750
vn 0.054142 0.004508 0.998523
vn 0.996623 -0.078570 -0.023864
vn 0.996623 -0.078570 -0.023864
vn 0.912686 -0.394992 -0.104813
vn -0.166116 -0.036769 -0.985420
vn -0.078883 -0.112900 -0.990470
vn 0.075319 -0.044607 -0.996161
vn -0.398874 -0.026730 -0.916616
vn -0.566544 0.000718 -0.824031
vn -0.166116 -0.036769 -0.985420
vn -0.166116 -0.036769 -0.985420
vn 0.075319 -0.044607 -0.996161
vn 0.005698 -0.014482 -0.999879
vn 0.005698 -0.014482 -0.999879
vn -0.398874 -0.026730 -0.916616
vn -0.166116 -0.036769 -0.985420
vn 0.140395 -0.024489 0.989793
vn 0.233777 -0.089195 0.968190
vn 0.061151 -0.049557 0.996898
f 5/1/1 2/2/2 9/3/3
f 5/4/4 9/5/5 6/6/6
f 11/7/7 1/8/8 4/9/9
f 7/10/10 3/11/11 6/12/12
f 7/13/13 6/14/14 9/15/15
f 7/16/16 9/17/17 8/18/18
f 2/19/19 5/20/20 10/21/21
f 2/22/22 10/23/23 12/24/24
f 12/25/25 10/26/26 1/27/27
f 12/28/28 1/29/29 11/30/30
f 8/31/31 9/32/32 2/33/33
f 8/34/34 2/35/35 12/36/36
f 3/37/37 7/38/38 4/39/39
f 4/40/40 1/41/41 10/42/42
f 6/43/43 3/44/44 4/45/45
f 4/46/46 10/47/47 5/48/48
f 5/49/49 6/50/50 4/51/51
f 4/52/52 7/53/53 8/54/54
