v -12.306418 9.096956 -0.912301
v -9.444212 9.097204 -0.729949
v -1.813301 -0.189839 -2.127667
v -8.262605 -0.184104 -2.092961
v -9.143769 4.614614 -1.462146
v -8.680694 -0.182259 -1.013365
v -1.696930 -0.187989 0.184170
v -11.526760 7.148797 -1.095338
v -9.849833 8.978673 -1.267964
v -5.231253 5.024224 -0.566451
v -5.313446 4.098182 -1.588316
v -1.816416 -3.501836 -2.124334
vt 0.186078 0.109508
vt 1.392024 0.108790
vt 0.106115 0.710352
vt 0.186078 0.109508
vt 0.433594 0.273438
vt 1.371391 -0.306294
vt 1.371929 0.108558
vt 0.258273 0.109276
vt 0.106115 0.710352
vt 0.813899 0.155665
vt 0.542969 -0.050781
vt 0.167969 0.699219
vt 0.813899 0.155665
vt 0.167969 0.699219
vt 0.316406 0.804688
vt 0.781722 0.761659
vt -0.305377 1.027778
vt 0.106115 0.710352
vt 0.781722 0.761659
vt 0.106115 0.710352
vt 1.392024 0.108790
vt 0.767529 0.645665
vt 1.371929 0.108558
vt 0.106115 0.710352
vt 0.767529 0.645665
vt 0.106115 0.710352
vt -0.305377 1.027778
vt 0.054235 1.271831
vt -0.440007 1.271800
vt -0.305377 1.027778
vt 0.054235 1.271831
vt -0.305377 1.027778
vt 0.781722 0.761659
vt -0.015807 1.256984
vt 0.767529 0.645665
vt -0.305377 1.027778
vt -0.015807 1.256984
vt -0.305377 1.027778
vt -0.440007 1.271800
vt -0.015807 1.256984
vt 0.054235 1.271831
vt 0.781722 0.761659
vt -0.015807 1.256984
vt 0.781722 0.761659
vt 0.767529 0.645665
vt 0.106115 0.710352
vt 0.258273 0.109276
vt 0.186078 0.109508
vt -0.440007 1.271800
vt 0.054235 1.271831
vt -0.015807 1.256984
vt 1.392024 0.108790
vt 0.186078 0.109508
vt 1.371391 -0.306294
vt 0.258273 0.109276
vt 1.371929 0.108558
vt 1.371391 -0.306294
vt 1.371391 -0.306294
vt 1.371929 0.108558
vt 1.570312 0.121094
vn -0.168852 0.038444 0.984891
vn -0.183250 -0.011990 0.982993
vn -0.190379 -0.018590 0.981535
vn -0.000941 -0.999999 0.001006
vn -0.000941 -0.999999 0.001006
vn -0.000941 -0.999999 0.001006
vn -0.009180 0.082048 -0.996586
vn -0.005313 0.064332 -0.997914
vn -0.011055 0.123361 -0.992300
vn 0.973497 0.201662 -0.107866
vn 0.942580 0.304906 -0.136294
vn 0.381153 0.386287 -0.839943
vn 0.973497 0.201662 -0.107866
vn 0.381153 0.386287 -0.839943
vn 0.700783 0.592143 -0.397831
vn -0.153684 -0.098058 0.983242
vn -0.153684 -0.098058 0.983242
vn -0.190379 -0.018590 0.981535
vn -0.153684 -0.098058 0.983242
vn -0.190379 -0.018590 0.981535
vn -0.183250 -0.011990 0.982993
vn 0.381153 0.386287 -0.839943
vn -0.009180 0.082048 -0.996586
vn -0.011055 0.123361 -0.992300
vn 0.381153 0.386287 -0.839943
vn -0.011055 0.123361 -0.992300
vn -0.057933 0.057086 -0.996687
vn -0.096306 -0.083074 0.991879
vn -0.096306 -0.083074 0.991879
vn -0.153684 -0.098058 0.983242
vn -0.096306 -0.083074 0.991879
vn -0.153684 -0.098058 0.983242
vn -0.153684 -0.098058 0.983242
vn 0.205853 0.640465 -0.739884
vn 0.381153 0.386287 -0.839943
vn -0.057933 0.057086 -0.996687
vn 0.205853 0.640465 -0.739884
vn -0.057933 0.057086 -0.996687
vn -0.098668 -0.003455 -0.995114
vn 0.205853 0.640465 -0.739884
vn 0.323584 0.842199 -0.431272
vn 0.700783 0.592143 -0.397831
vn 0.205853 0.640465 -0.739884
vn 0.700783 0.592143 -0.397831
vn 0.381153 0.386287 -0.839943
vn -0.925521 -0.122860 -0.358211
vn -0.925521 -0.122860 -0.358211
vn -0.925521 -0.122860 -0.358211
vn 0.014275 0.974166 -0.225382
vn 0.323584 0.842199 -0.431272
vn 0.205853 0.640465 -0.739884
vn -0.183250 -0.011990 0.982993
vn -0.168852 0.038444 0.984891
vn 0.998735 -0.000990 -0.050273
vn -0.005313 0.064332 -0.997914
vn -0.009180 0.082048 -0.996586
vn -0.005382 -0.001001 -0.999985
vn 0.998735 -0.000990 -0.050273
vn 0.942580 0.304906 -0.136294
vn 0.973497 0.201662 -0.107866
f 6/1/1 7/2/2 5/3/3
f 6/4/4 4/5/5 12/6/6
f 3/7/7 4/8/8 5/9/9
f 7/10/10 3/11/11 11/12/12
f 7/13/13 11/14/14 10/15/15
f 10/16/16 8/17/17 5/18/18
f 10/19/19 5/20/20 7/21/21
f 11/22/22 3/23/23 5/24/24
f 11/25/25 5/26/26 8/27/27
f 2/28/28 1/29/29 8/30/30
f 2/31/31 8/32/32 10/33/33
f 9/34/34 11/35/35 8/36/36
f 9/37/37 8/38/38 1/39/39
f 9/40/40 2/41/41 10/42/42
f 9/43/43 10/44/44 11/45/45
f 5/46/46 4/47/47 6/48/48
f 1/49/49 2/50/50 9/51/51
f 7/52/52 6/53/53 12/54/54
f 4/55/55 3/56/56 12/57/57
f 12/58/58 3/59/59 7/60/60
