v 6.774554 -0.783917 5.134778
v 4.482735 0.423573 1.590925
v -0.839271 -0.771070 1.792314
v 1.878036 -4.700752 -1.049030
v -2.279572 -3.444620 4.384171
vt 0.159077 0.459481
vt 0.000000 0.878617
vt 1.000000 1.000000
vt 0.968750 0.304688
vt 0.843750 0.824219
vt 0.459195 0.000000
vt 0.000000 0.878617
vt 0.459195 0.000000
vt 1.000000 1.000000
vt 0.144531 0.851562
vt 0.011719 0.257812
vt 0.585938 0.042969
vt 1.000000 1.000000
vt 0.692764 0.339540
vt 0.159077 0.459481
vn -0.228022 0.821539 0.522570
vn -0.268802 0.741168 0.615155
vn -0.228022 0.821539 0.522570
vn 0.814152 -0.121293 -0.567842
vn 0.814152 -0.121293 -0.567842
vn 0.814152 -0.121293 -0.567842
vn 0.230982 -0.894195 0.383487
vn 0.230982 -0.894195 0.383487
vn 0.230982 -0.894195 0.383487
vn -0.801706 -0.133026 -0.582728
vn -0.801706 -0.133026 -0.582728
vn -0.801706 -0.133026 -0.582728
vn -0.228022 0.821539 0.522570
vn -0.183434 0.888196 0.421261
vn -0.228022 0.821539 0.522570
f 3/1/1 5/2/2 1/3/3
f 2/4/4 1/5/5 4/6/6
f 5/7/7 4/8/8 1/9/9
f 5/10/10 3/11/11 4/12/12
f 1/13/13 2/14/14 3/15/15
