v 6.774556 -0.783917 5.134780
v 3.992803 -0.872179 1.050625
v -0.839269 -0.771070 1.792315
v 1.878038 -4.700752 -1.049028
v -2.279570 -3.444620 4.384172
vt 0.336437 0.000000
vt 0.336437 0.000000
vt 0.945830 0.188893
vt 0.950186 0.000000
vt 0.945830 0.188893
vt 0.945830 0.188893
vt 0.950186 0.000000
vt 0.336437 0.000000
vt 0.950186 0.000000
vt 0.950186 0.000000
vt 0.336437 0.000000
vt 0.336437 0.000000
vt 0.945830 0.188893
vt 0.945830 0.188893
vt 0.336437 0.000000
vn -0.136480 0.939395 0.314500
vn -0.268802 0.741168 0.615155
vn -0.136480 0.939395 0.314500
vn 0.818861 -0.148195 -0.554531
vn 0.818861 -0.148195 -0.554531
vn 0.818861 -0.148195 -0.554531
vn 0.230982 -0.894195 0.383487
vn 0.230982 -0.894195 0.383487
vn 0.230982 -0.894195 0.383487
vn -0.801706 -0.133026 -0.582728
vn -0.801706 -0.133026 -0.582728
vn -0.801706 -0.133026 -0.582728
vn -0.136480 0.939395 0.314500
vn 0.015930 0.999346 -0.032447
vn -0.136480 0.939395 0.314500
f 3/1/1 5/2/2 1/3/3
f 2/4/4 1/5/5 4/6/6
f 5/7/7 4/8/8 1/9/9
f 5/10/10 3/11/11 4/12/12
f 1/13/13 2/14/14 3/15/15
