v -54.187969 48.502735 -54.176342
v -74.020813 9.352292 -76.242195
v -56.089317 2.485320 -71.883316
v -70.360382 2.055287 -58.324322
vt 0.000000 0.000000
vt 0.000000 0.000000
vt 0.000000 0.000000
vt 0.000000 0.000000
vt 0.000000 0.000000
vt 0.000000 0.000000
vt 0.000000 0.000000
vt 0.000000 0.000000
vt 0.000000 0.000000
vn 0.908013 -0.289079 -0.303224
vn 0.908013 -0.289079 -0.303224
vn 0.908013 -0.289079 -0.303224
vn -0.339223 -0.325585 0.882566
vn -0.339223 -0.325585 0.882566
vn -0.339223 -0.325585 0.882566
vn -0.663289 0.292466 -0.688847
vn -0.663289 0.292466 -0.688847
vn -0.663289 0.292466 -0.688847
f 4/1/1 2/2/2 1/3/3
f 2/4/4 3/5/5 1/6/6
f 3/7/7 4/8/8 1/9/9
