v -0.000017 -1.060694 0.077197
v 0.000166 -0.806964 1.043142
v -0.954019 -0.340460 0.077197
v -0.742399 -0.339114 1.043140
v 0.953807 -0.340460 0.077198
v 0.743300 -0.339114 1.043140
v -0.185262 0.467587 0.780494
v 0.371875 0.467587 0.780494
v 0.186163 0.467587 0.780494
v -0.370974 0.467587 0.780494
v 0.260401 0.393923 0.962027
v 0.145550 0.541470 1.463122
v -0.259594 0.393923 0.962027
v -0.185723 0.612525 1.463122
v -0.092867 0.612525 1.463122
v 0.092846 0.612525 1.463122
v 0.185702 0.612525 1.463122
v 0.134987 0.541470 1.463122
v -0.238794 0.393923 0.962027
v -0.145571 0.541470 1.463122
v 0.239601 0.393923 0.962027
v -0.135008 0.541470 1.463122
vt 0.500047 0.000000
vt 0.500143 1.000000
vt 0.889661 0.999998
vt 0.500047 0.000000
vt 0.889661 0.999998
vt 1.000000 0.000000
vt 0.500143 1.000000
vt 0.500047 0.000000
vt 0.000000 0.000000
vt 0.500143 1.000000
vt 0.000000 0.000000
vt 0.110922 0.999998
vt 0.000000 0.000000
vt 0.000000 0.000000
vt 0.000000 0.000000
vt 0.000000 0.000000
vt 0.000000 0.000000
vt 0.000000 0.000000
vt 0.000000 0.000000
vt 0.000000 0.000000
vt 0.000000 0.000000
vt 0.000000 0.000000
vt 0.000000 0.000000
vt 0.000000 0.000000
vt 0.000000 0.000000
vt 0.000000 0.000000
vt 0.000000 0.000000
vt 0.000000 0.000000
vt 0.000000 0.000000
vt 0.000000 0.000000
vt 0.000000 0.000000
vt 0.000000 0.000000
vt 0.000000 0.000000
vt 0.000000 0.000000
vt 0.000000 0.000000
vt 0.000000 0.000000
vt 0.000000 0.000000
vt 0.000000 0.000000
vt 0.000000 0.000000
vt 0.000000 0.000000
vt 0.000000 0.000000
vt 0.000000 0.000000
vt 0.000000 0.000000
vt 0.000000 0.000000
vt 0.000000 0.000000
vt 0.000000 0.000000
vt 0.000000 0.000000
vt 0.000000 0.000000
vt 0.000000 0.000000
vt 0.000000 0.000000
vt 0.000000 0.000000
vt 0.000000 0.000000
vt 0.000000 0.000000
vt 0.000000 0.000000
vt 0.000000 0.000000
vt 0.000000 0.000000
vt 0.000000 0.000000
vt 0.000000 0.000000
vt 0.000000 0.000000
vt 0.000000 0.000000
vt 0.000000 0.000000
vt 0.000000 0.000000
vt 0.000000 0.000000
vt 0.000000 0.000000
vt 0.000000 0.000000
vt 0.000000 0.000000
vn -0.565363 0.807516 -0.168171
vn -0.565363 0.807516 -0.168171
vn -0.565363 0.807516 -0.168171
vn -0.565363 0.807516 -0.168171
vn -0.565363 0.807516 -0.168171
vn -0.565363 0.807516 -0.168171
vn 0.565409 0.807396 -0.168594
vn 0.565409 0.807396 -0.168594
vn 0.565409 0.807396 -0.168594
vn 0.565409 0.807396 -0.168594
vn 0.565409 0.807396 -0.168594
vn 0.565409 0.807396 -0.168594
vn -0.825428 -0.463186 0.322688
vn -0.825428 -0.463186 0.322688
vn -0.826757 -0.460692 0.322857
vn -0.825428 -0.463186 0.322688
vn -0.826757 -0.460692 0.322857
vn -0.826757 -0.460692 0.322857
vn 0.000000 -0.959279 0.282459
vn 0.000000 -0.959279 0.282459
vn 0.000000 -0.956393 0.292081
vn 0.000000 -0.959279 0.282459
vn 0.000000 -0.956393 0.292081
vn 0.000000 -0.956393 0.292081
vn 0.000000 -0.959279 0.282459
vn 0.000000 -0.959279 0.282459
vn 0.000000 -0.956393 0.292081
vn 0.000000 -0.959279 0.282459
vn 0.000000 -0.956393 0.292081
vn 0.000000 -0.956393 0.292081
vn 0.000000 -0.926616 -0.376008
vn 0.000000 -0.926616 -0.376008
vn 0.000000 -0.926616 -0.376008
vn 0.000000 -0.926616 -0.376008
vn 0.000000 -0.926616 -0.376008
vn 0.000000 -0.926616 -0.376008
vn 0.000000 -0.926616 -0.376008
vn 0.000000 -0.926616 -0.376008
vn 0.000000 -0.926616 -0.376008
vn 0.000000 -0.926616 -0.376008
vn 0.000000 -0.926616 -0.376008
vn 0.000000 -0.926616 -0.376008
vn -0.846794 -0.531889 -0.005914
vn -0.846794 -0.531889 -0.005914
vn -0.832956 -0.553333 -0.002556
vn -0.846794 -0.531889 -0.005914
vn -0.832956 -0.553333 -0.002556
vn -0.832956 -0.553333 -0.002556
vn 0.826770 -0.459938 0.323896
vn 0.826770 -0.459938 0.323896
vn 0.825286 -0.462727 0.323706
vn 0.826770 -0.459938 0.323896
vn 0.825286 -0.462727 0.323706
vn 0.825286 -0.462727 0.323706
vn 0.833311 -0.552802 -0.001515
vn 0.833311 -0.552802 -0.001515
vn 0.846968 -0.531622 -0.004813
vn 0.833311 -0.552802 -0.001515
vn 0.846968 -0.531622 -0.004813
vn 0.846968 -0.531622 -0.004813
vn 0.000000 -0.978194 0.207694
vn 0.000000 -0.978194 0.207694
vn 0.000000 -0.978194 0.207694
vn 0.000000 -0.978194 0.207694
vn 0.000000 -0.978194 0.207694
vn 0.000000 -0.978194 0.207694
f 1/1/1 2/2/2 6/3/3
f 1/4/4 6/5/5 5/6/6
f 2/7/7 1/8/8 3/9/9
f 2/10/10 3/11/11 4/12/12
f 20/13/13 14/14/14 10/15/15
f 20/16/16 10/17/17 13/18/18
f 13/19/19 19/20/20 22/21/21
f 13/22/22 22/23/23 20/24/24
f 21/25/25 11/26/26 12/27/27
f 21/28/28 12/29/29 18/30/30
f 7/31/31 19/32/32 13/33/33
f 7/34/34 13/35/35 10/36/36
f 8/37/37 11/38/38 21/39/39
f 8/40/40 21/41/41 9/42/42
f 18/43/43 16/44/44 9/45/45
f 18/46/46 9/47/47 21/48/48
f 11/49/49 8/50/50 17/51/51
f 11/52/52 17/53/53 12/54/54
f 19/55/55 7/56/56 15/57/57
f 19/58/58 15/59/59 22/60/60
f 15/61/61 7/62/62 9/63/63
f 15/64/64 9/65/65 16/66/66
