v 1.161308 0.009734 2.460319
v 1.134320 -0.045712 2.964375
v -1.161292 0.009734 2.460319
v -1.134304 -0.045712 2.964375
v -1.091255 -0.148416 3.575811
v -1.214427 -0.045072 2.961470
v -1.158686 0.105666 1.515176
v -0.956336 0.138278 1.265708
v -1.026106 -0.077525 2.460197
v -0.960771 -0.019642 1.515010
v -1.309582 0.004630 2.456772
v -1.502160 0.095493 1.513277
v -1.054669 -0.106809 2.963206
v 1.026122 -0.077525 2.460197
v 1.054686 -0.106809 2.963206
v 1.091271 -0.148416 3.575811
v 0.961637 -0.019642 1.515010
v 0.956352 0.138278 1.265708
v 1.158703 0.105666 1.515176
v 1.309598 0.004630 2.456772
v 1.214443 -0.045072 2.961470
v -0.562760 -0.014078 -0.770041
v -1.846754 -0.145288 -1.379746
v -1.031307 -0.458756 -0.773461
v -2.011670 -0.396213 -1.374140
v 0.756866 0.190390 0.227949
v 1.743228 0.174007 0.232085
v 1.502176 0.095493 1.513277
v 0.012961 0.104741 -1.473570
v -0.550079 -0.029351 -1.145877
v -0.000145 -0.033677 -2.448326
v 0.550096 -0.029351 -1.145877
v -0.000147 0.042133 1.156439
v -0.000148 0.198102 0.934603
v 1.846771 -0.145288 -1.379746
v 2.011687 -0.396213 -1.374140
v 1.031324 -0.458756 -0.773461
v 0.549635 -0.014078 -0.770040
v -0.756850 0.190390 0.227949
v -1.743212 0.174007 0.232085
vt 0.139056 0.611062
vt 0.120668 0.611582
vt 0.132467 0.537636
vt 0.139056 0.611062
vt 0.132467 0.537636
vt 0.142402 0.537210
vt 0.139056 0.611062
vt 0.142402 0.537210
vt 0.152277 0.537381
vt 0.139056 0.611062
vt 0.152277 0.537381
vt 0.155819 0.611080
vt 0.142402 0.537210
vt 0.147740 0.447625
vt 0.152277 0.537381
vt 0.092773 0.787109
vt 0.000977 0.853516
vt 0.047852 0.670898
vt 0.092773 0.787109
vt 0.047852 0.670898
vt 0.110352 0.618164
vt 0.139379 0.749541
vt 0.139056 0.611062
vt 0.155819 0.611080
vt 0.139379 0.749541
vt 0.155819 0.611080
vt 0.163815 0.749565
vt 0.157646 0.613248
vt 0.153962 0.539258
vt 0.143694 0.539086
vt 0.157646 0.613248
vt 0.143694 0.539086
vt 0.140214 0.613230
vt -0.000468 -0.005424
vt 0.143158 0.057684
vt 0.143158 0.096726
vt -0.000468 -0.005424
vt 0.143158 0.096726
vt 0.000321 0.038452
vt 0.012211 0.710972
vt 0.042101 0.523257
vt 0.084691 0.522979
vt 0.012211 0.710972
vt 0.084691 0.522979
vt 0.134519 0.711578
vt 0.153962 0.539258
vt 0.149245 0.449147
vt 0.143694 0.539086
vt 0.149245 0.449147
vt 0.133362 0.539514
vt 0.143694 0.539086
vt 0.142402 0.537210
vt 0.132467 0.537636
vt 0.147740 0.447625
vt 0.000706 0.038541
vt 0.143442 0.096792
vt 0.143442 0.057765
vt 0.000706 0.038541
vt 0.143442 0.057765
vt -0.000082 -0.005318
vt 0.132369 0.711295
vt 0.082936 0.521988
vt 0.040683 0.522267
vt 0.132369 0.711295
vt 0.040683 0.522267
vt 0.011029 0.710687
vt 0.165961 0.752280
vt 0.157646 0.613248
vt 0.140214 0.613230
vt 0.165961 0.752280
vt 0.140214 0.613230
vt 0.140550 0.752256
vt 0.107179 0.522012
vt 0.082936 0.521988
vt 0.107829 0.558676
vt 0.140550 0.752256
vt 0.140214 0.613230
vt 0.121093 0.613752
vt 0.140550 0.752256
vt 0.121093 0.613752
vt 0.096260 0.752535
vt 0.143694 0.539086
vt 0.133362 0.539514
vt 0.121093 0.613752
vt 0.143694 0.539086
vt 0.121093 0.613752
vt 0.140214 0.613230
vt 0.119141 0.915039
vt 0.318359 0.915039
vt 0.119141 0.848633
vt 0.096788 0.749819
vt 0.120668 0.611582
vt 0.139056 0.611062
vt 0.096788 0.749819
vt 0.139056 0.611062
vt 0.139379 0.749541
vt 0.110352 0.618164
vt 0.047852 0.670898
vt 0.000977 0.853516
vt 0.110352 0.618164
vt 0.000977 0.853516
vt 0.092773 0.787109
vt 0.109783 0.559530
vt 0.084691 0.522979
vt 0.109127 0.523003
vt 0.119141 0.848633
vt 0.318359 0.915039
vt 0.119141 0.915039
vn -0.027222 0.994210 0.103949
vn -0.027222 0.994210 0.103949
vn -0.010283 0.990656 0.135999
vn -0.027222 0.994210 0.103949
vn -0.010283 0.990656 0.135999
vn -0.010283 0.990656 0.135999
vn 0.551657 0.830342 0.078776
vn 0.587335 0.805387 0.079935
vn 0.587335 0.805387 0.079935
vn 0.551657 0.830342 0.078776
vn 0.587335 0.805387 0.079935
vn 0.551657 0.830342 0.078776
vn 0.587335 0.805387 0.079935
vn 0.321423 0.937291 0.134808
vn 0.587335 0.805387 0.079935
vn 0.440749 -0.403895 -0.801629
vn 0.440749 -0.403895 -0.801629
vn 0.440749 -0.403895 -0.801629
vn 0.440749 -0.403895 -0.801629
vn 0.440749 -0.403895 -0.801629
vn 0.440749 -0.403895 -0.801629
vn 0.253084 0.947892 0.193518
vn 0.551657 0.830342 0.078776
vn 0.551657 0.830342 0.078776
vn 0.253084 0.947892 0.193518
vn 0.551657 0.830342 0.078776
vn 0.398491 0.832003 0.385974
vn -0.552144 0.830031 0.078648
vn -0.587335 0.805387 0.079935
vn -0.587335 0.805387 0.079935
vn -0.552144 0.830031 0.078648
vn -0.587335 0.805387 0.079935
vn -0.552144 0.830031 0.078648
vn 0.398491 0.832003 0.385974
vn 0.000019 0.831515 0.555503
vn 0.000019 0.831515 0.555503
vn 0.398491 0.832003 0.385974
vn 0.000019 0.831515 0.555503
vn 0.312397 0.793964 0.521564
vn -0.019823 0.997868 0.062180
vn -0.025923 0.996304 0.081888
vn 0.253084 0.947892 0.193518
vn -0.019823 0.997868 0.062180
vn 0.253084 0.947892 0.193518
vn -0.019823 0.997868 0.062180
vn -0.587335 0.805387 0.079935
vn -0.321423 0.937291 0.134808
vn -0.587335 0.805387 0.079935
vn -0.321423 0.937291 0.134808
vn 0.010283 0.990656 0.135999
vn 0.010283 0.990656 0.135999
vn -0.010283 0.990656 0.135999
vn -0.010283 0.990656 0.135999
vn 0.321423 0.937291 0.134808
vn -0.313028 0.793343 0.522130
vn 0.000019 0.831515 0.555503
vn 0.000019 0.831515 0.555503
vn -0.313028 0.793343 0.522130
vn 0.000019 0.831515 0.555503
vn -0.399309 0.831459 0.386301
vn 0.019823 0.997868 0.062180
vn -0.253742 0.947674 0.193724
vn 0.025923 0.996304 0.081888
vn 0.019823 0.997868 0.062180
vn 0.025923 0.996304 0.081888
vn 0.019823 0.997868 0.062180
vn -0.399309 0.831459 0.386301
vn -0.552144 0.830031 0.078648
vn -0.552144 0.830031 0.078648
vn -0.399309 0.831459 0.386301
vn -0.552144 0.830031 0.078648
vn -0.253742 0.947674 0.193724
vn -0.399309 0.831459 0.386301
vn -0.253742 0.947674 0.193724
vn -0.313028 0.793343 0.522130
vn -0.253742 0.947674 0.193724
vn 0.027222 0.994210 0.103949
vn 0.027222 0.994210 0.103949
vn -0.253742 0.947674 0.193724
vn 0.027222 0.994210 0.103949
vn 0.025923 0.996304 0.081888
vn 0.010283 0.990656 0.135999
vn 0.010283 0.990656 0.135999
vn 0.027222 0.994210 0.103949
vn 0.010283 0.990656 0.135999
vn 0.027222 0.994210 0.103949
vn 0.027222 0.994210 0.103949
vn 0.009104 0.990009 -0.140707
vn 0.009104 0.990009 -0.140707
vn -0.300739 0.944788 -0.130119
vn -0.025923 0.996304 0.081888
vn -0.027222 0.994210 0.103949
vn -0.027222 0.994210 0.103949
vn -0.025923 0.996304 0.081888
vn -0.027222 0.994210 0.103949
vn 0.253084 0.947892 0.193518
vn -0.437752 -0.409433 -0.800461
vn -0.437752 -0.409433 -0.800461
vn -0.437752 -0.409433 -0.800461
vn -0.437752 -0.409433 -0.800461
vn -0.437752 -0.409433 -0.800461
vn -0.437752 -0.409433 -0.800461
vn 0.312397 0.793964 0.521564
vn 0.253084 0.947892 0.193518
vn 0.398491 0.832003 0.385974
vn 0.318053 0.938052 -0.137483
vn 0.009104 0.990009 -0.140707
vn 0.009104 0.990009 -0.140707
f 3/1/1 11/2/2 6/3/3
f 3/4/4 6/5/5 4/6/6
f 3/7/7 4/8/8 13/9/9
f 3/10/10 13/11/11 9/12/12
f 4/13/13 5/14/14 13/15/15
f 22/16/16 24/17/17 25/18/18
f 22/19/19 25/20/20 23/21/21
f 7/22/22 3/23/23 9/24/24
f 7/25/25 9/26/26 10/27/27
f 14/28/28 15/29/29 2/30/30
f 14/31/31 2/32/32 1/33/33
f 10/34/34 33/35/35 34/36/36
f 10/37/37 34/38/38 8/39/39
f 40/40/40 12/41/41 7/42/42
f 40/43/43 7/44/44 39/45/45
f 15/46/46 16/47/47 2/48/48
f 16/49/49 21/50/50 2/51/51
f 4/52/52 6/53/53 5/54/54
f 18/55/55 34/56/56 33/57/57
f 18/58/58 33/59/59 17/60/60
f 26/61/61 19/62/62 28/63/63
f 26/64/64 28/65/65 27/66/66
f 17/67/67 14/68/68 1/69/69
f 17/70/70 1/71/71 19/72/72
f 17/73/73 19/74/74 18/75/75
f 19/76/76 1/77/77 20/78/78
f 19/79/79 20/80/80 28/81/81
f 2/82/82 21/83/83 20/84/84
f 2/85/85 20/86/86 1/87/87
f 29/88/88 31/89/89 30/90/90
f 12/91/91 11/92/92 3/93/93
f 12/94/94 3/95/95 7/96/96
f 35/97/97 36/98/98 37/99/99
f 35/100/100 37/101/101 38/102/102
f 8/103/103 7/104/104 10/105/105
f 32/106/106 31/107/107 29/108/108
