v -0.000040 1.025705 -1.141127
v -0.000148 0.198102 0.934603
v 0.756866 0.190390 0.227949
v -0.551723 0.473123 -1.141211
v 1.743228 0.174007 0.232085
v 1.846771 -0.145288 -1.379746
v 2.009443 0.200989 -1.374032
v 1.553820 -0.151796 2.456772
v 2.202540 -0.149278 0.231337
v 0.000090 1.027941 -0.768293
v 1.864141 -0.148755 1.514087
v 1.502176 0.095493 1.513277
v 1.158703 0.105666 1.515176
v 2.115192 -0.140374 -3.928076
v 1.962252 -0.146137 -2.826406
v 1.893561 -0.138082 -2.129658
v 2.106615 0.120823 -2.826406
v 2.060886 0.184354 -2.129658
v 1.364029 -0.150824 2.961882
v 2.485209 -0.148860 -1.374086
v 2.535489 -0.144424 -2.128597
v 2.474696 -0.140710 -2.826740
v 0.301736 0.550969 0.227670
v 1.091271 -0.148416 3.575811
v 1.309598 0.004630 2.456772
v 1.214443 -0.045072 2.961470
v 0.956352 0.138278 1.265708
v 0.549227 0.471121 -0.768330
v 0.549642 0.236080 -2.455141
v -0.550667 0.236081 -2.455141
v -0.885112 0.233335 -0.769185
v -0.879997 0.236266 -1.143418
v 0.551740 0.473123 -1.141211
v 0.882811 0.233335 -0.769185
v 0.880014 0.236266 -1.143418
v 0.000204 0.636656 -2.457574
v -0.000172 0.550969 0.227670
v -0.262586 0.232040 -1.471963
v 0.262368 0.232040 -1.471963
v -0.756850 0.190390 0.227949
v -1.743212 0.174007 0.232085
v -1.846754 -0.145288 -1.379746
v -2.009426 0.200989 -1.374032
v -1.553803 -0.151796 2.456772
v -2.202523 -0.149278 0.231336
v -1.864124 -0.148755 1.514087
v -1.502160 0.095493 1.513277
v -1.158686 0.105666 1.515176
v -2.115174 -0.140374 -3.928076
v -1.962235 -0.146137 -2.826406
v -1.893543 -0.138082 -2.129658
v -2.106598 0.120823 -2.826406
v -2.060869 0.184354 -2.129658
v -1.364013 -0.150824 2.961882
v -2.485192 -0.148860 -1.374086
v -2.535472 -0.144424 -2.128597
v -2.474679 -0.140710 -2.826740
v -0.301719 0.550969 0.227669
v -1.091255 -0.148416 3.575811
v -1.309582 0.004630 2.456772
v -1.214427 -0.045072 2.961470
v -0.956336 0.138278 1.265708
v -0.549210 0.471121 -0.768330
vt 0.098393 0.221162
vt 0.143446 0.221162
vt 0.143442 0.096792
vt 0.098393 0.221162
vt 0.143442 0.096792
vt 0.000706 0.038541
vt 0.098393 0.221162
vt 0.030475 0.221113
vt 0.061461 0.396388
vt 0.098393 0.221162
vt 0.061461 0.396388
vt 0.143407 0.396381
vt 0.101422 0.562862
vt 0.099648 0.709413
vt 0.069795 0.709413
vt 0.364258 0.875000
vt 0.497070 0.899414
vt 0.488281 0.861328
vt 0.364258 0.875000
vt 0.488281 0.861328
vt 0.348633 0.817383
vt 0.879568 0.815015
vt 0.872257 0.911239
vt 0.760742 0.901367
vt 0.879568 0.815015
vt 0.760742 0.901367
vt 0.766067 0.821311
vt 0.057005 0.802165
vt 0.090001 0.802165
vt 0.099019 0.709313
vt 0.057005 0.802165
vt 0.099019 0.709313
vt 0.070551 0.709313
vt 0.348292 0.816933
vt 0.363281 0.873047
vt 0.177734 0.835938
vt 0.348292 0.816933
vt 0.177734 0.835938
vt 0.160156 0.767578
vt 0.992188 0.823242
vt 0.988281 0.917969
vt 0.872257 0.911239
vt 0.992188 0.823242
vt 0.872257 0.911239
vt 0.879568 0.815015
vt 0.138021 0.063802
vt 0.349609 0.094401
vt 0.348958 0.042318
vt 0.138021 0.063802
vt 0.348958 0.042318
vt 0.138672 0.006510
vt 0.564453 0.888672
vt 0.568359 0.913086
vt 0.669922 0.932617
vt 0.069795 0.709413
vt 0.099648 0.709413
vt 0.090192 0.802098
vt 0.069795 0.709413
vt 0.090192 0.802098
vt 0.055589 0.802098
vt 0.348292 0.816933
vt 0.488129 0.860306
vt 0.497070 0.899414
vt 0.348292 0.816933
vt 0.497070 0.899414
vt 0.363281 0.873047
vt 0.668945 0.930664
vt 0.568359 0.913086
vt 0.564453 0.888672
vt 0.783354 0.417619
vt 0.831340 0.355749
vt 0.802018 0.355529
vt 0.143194 0.396433
vt 0.098109 0.221146
vt 0.143154 0.221146
vt 0.119141 0.848633
vt 0.318359 0.915039
vt 0.119141 0.915039
vt 0.045913 0.901856
vt 0.055589 0.802098
vt 0.090192 0.802098
vt 0.045913 0.901856
vt 0.090192 0.802098
vt 0.079553 0.902616
vt 0.143446 0.221162
vt 0.098393 0.221162
vt 0.143407 0.396381
vt 0.030121 0.221096
vt 0.098109 0.221146
vt 0.143194 0.396433
vt 0.030121 0.221096
vt 0.143194 0.396433
vt 0.061138 0.396440
vt 0.000321 0.038452
vt 0.143158 0.096726
vt 0.143154 0.221146
vt 0.000321 0.038452
vt 0.143154 0.221146
vt 0.098109 0.221146
vt 0.564453 0.888672
vt 0.568359 0.913086
vt 0.497070 0.899414
vt 0.564453 0.888672
vt 0.497070 0.899414
vt 0.488129 0.860306
vt 0.143194 0.396433
vt 0.143174 0.462051
vt 0.060763 0.462066
vt 0.143194 0.396433
vt 0.060763 0.462066
vt 0.061138 0.396440
vt 0.061086 0.461988
vt 0.061461 0.396388
vt 0.011681 0.396538
vt 0.061086 0.461988
vt 0.011681 0.396538
vt 0.012098 0.462377
vt 0.119141 0.915039
vt 0.119141 0.848633
vt 0.318359 0.915039
vt 0.119141 0.915039
vt 0.116211 0.998047
vt 0.318359 0.915039
vt 0.318359 0.915039
vt 0.116211 0.998047
vt 0.119141 0.915039
vt 0.061461 0.396388
vt 0.061086 0.461988
vt 0.143426 0.461973
vt 0.061461 0.396388
vt 0.143426 0.461973
vt 0.143407 0.396381
vt 0.488281 0.861328
vt 0.497070 0.899414
vt 0.568359 0.913086
vt 0.488281 0.861328
vt 0.568359 0.913086
vt 0.564453 0.888672
vt 0.119141 0.915039
vt 0.318359 0.915039
vt 0.119141 0.848633
vt 0.783354 0.417619
vt 0.831340 0.355749
vt 0.802018 0.355529
vt 0.079857 0.902863
vt 0.090001 0.802165
vt 0.057005 0.802165
vt 0.079857 0.902863
vt 0.057005 0.802165
vt 0.047778 0.902101
vt 0.138393 0.005580
vt 0.349330 0.042411
vt 0.349330 0.094308
vt 0.138393 0.005580
vt 0.349330 0.094308
vt 0.138393 0.063616
vt 0.161133 0.767578
vt 0.177734 0.836914
vt 0.364258 0.875000
vt 0.161133 0.767578
vt 0.364258 0.875000
vt 0.348633 0.817383
vt 0.061138 0.396440
vt 0.011134 0.396590
vt 0.030121 0.221096
vt 0.070551 0.709313
vt 0.099019 0.709313
vt 0.100711 0.562500
vt 0.585938 0.878906
vt 0.760742 0.901367
vt 0.766067 0.821311
vt 0.030475 0.221113
vt 0.011681 0.396538
vt 0.061461 0.396388
vt 0.879568 0.815015
vt 0.872257 0.911239
vt 0.988281 0.917969
vt 0.879568 0.815015
vt 0.988281 0.917969
vt 0.992188 0.823242
vt 0.318359 0.915039
vt 0.119141 0.848633
vt 0.119141 0.915039
vt 0.107829 0.558676
vt 0.082936 0.521988
vt 0.030475 0.221113
vt 0.107829 0.558676
vt 0.030475 0.221113
vt 0.098393 0.221162
vt 0.134519 0.711578
vt 0.084691 0.522979
vt 0.000321 0.038452
vt 0.134519 0.711578
vt 0.000321 0.038452
vt 0.098109 0.221146
vt 0.766067 0.821311
vt 0.760742 0.901367
vt 0.872257 0.911239
vt 0.766067 0.821311
vt 0.872257 0.911239
vt 0.879568 0.815015
vt 0.011725 0.462455
vt 0.011134 0.396590
vt 0.061138 0.396440
vt 0.011725 0.462455
vt 0.061138 0.396440
vt 0.060763 0.462066
vt 0.766067 0.821311
vt 0.760742 0.901367
vt 0.585938 0.878906
vn -0.029022 0.901618 0.431558
vn -0.000000 0.898349 0.439282
vn 0.000012 0.880652 0.473764
vn -0.029022 0.901618 0.431558
vn 0.000012 0.880652 0.473764
vn -0.238943 0.838234 0.490173
vn 0.651706 0.757198 0.043936
vn 0.607242 0.793517 0.039850
vn 0.641769 0.764101 0.065441
vn 0.651706 0.757198 0.043936
vn 0.641769 0.764101 0.065441
vn 0.709584 0.701975 0.061011
vn 0.873397 0.472303 -0.118779
vn 0.876718 0.468845 -0.107474
vn 0.876718 0.468845 -0.107474
vn 0.551912 0.816697 0.168520
vn 0.542668 0.818399 0.189036
vn 0.542668 0.818399 0.189036
vn 0.551912 0.816697 0.168520
vn 0.542668 0.818399 0.189036
vn 0.551912 0.816697 0.168520
vn -0.577433 0.816426 -0.004369
vn -0.577433 0.816426 -0.004369
vn -0.572675 0.811860 -0.113695
vn -0.577433 0.816426 -0.004369
vn -0.572675 0.811860 -0.113695
vn -0.572675 0.811860 -0.113695
vn -0.887607 0.453832 -0.078675
vn -0.887607 0.453832 -0.078675
vn -0.876718 0.468845 -0.107474
vn -0.887607 0.453832 -0.078675
vn -0.876718 0.468845 -0.107474
vn -0.876718 0.468845 -0.107474
vn -0.551912 0.816697 0.168520
vn -0.551912 0.816697 0.168520
vn -0.571630 0.810308 0.128995
vn -0.551912 0.816697 0.168520
vn -0.571630 0.810308 0.128995
vn -0.571630 0.810308 0.128995
vn -0.581288 0.810732 0.069414
vn -0.581288 0.810732 0.069414
vn -0.577433 0.816426 -0.004369
vn -0.581288 0.810732 0.069414
vn -0.577433 0.816426 -0.004369
vn -0.577433 0.816426 -0.004369
vn -0.571630 0.810308 0.128995
vn -0.581288 0.810732 0.069414
vn -0.581288 0.810732 0.069414
vn -0.571630 0.810308 0.128995
vn -0.581288 0.810732 0.069414
vn -0.571630 0.810308 0.128995
vn 0.551657 0.804759 0.219174
vn 0.551657 0.804759 0.219174
vn 0.559182 0.791915 0.245328
vn 0.876718 0.468845 -0.107474
vn 0.876718 0.468845 -0.107474
vn 0.887607 0.453832 -0.078675
vn 0.876718 0.468845 -0.107474
vn 0.887607 0.453832 -0.078675
vn 0.887607 0.453832 -0.078675
vn -0.551912 0.816697 0.168520
vn -0.542668 0.818399 0.189036
vn -0.542668 0.818399 0.189036
vn -0.551912 0.816697 0.168520
vn -0.542668 0.818399 0.189036
vn -0.551912 0.816697 0.168520
vn -0.559182 0.791915 0.245328
vn -0.551658 0.804759 0.219174
vn -0.551658 0.804759 0.219174
vn -0.895127 0.422839 -0.141264
vn -0.895758 0.432848 -0.101297
vn -0.895758 0.432848 -0.101297
vn -0.000000 0.901908 0.431928
vn 0.029034 0.901615 0.431564
vn -0.000000 0.898349 0.439282
vn -0.525830 0.837223 -0.150201
vn -0.525830 0.837223 -0.150201
vn -0.525830 0.837223 -0.150201
vn 0.895758 0.432848 -0.101296
vn 0.887607 0.453832 -0.078675
vn 0.887607 0.453832 -0.078675
vn 0.895758 0.432848 -0.101296
vn 0.887607 0.453832 -0.078675
vn 0.895758 0.432848 -0.101296
vn -0.000000 0.898349 0.439282
vn -0.029022 0.901618 0.431558
vn -0.000000 0.901908 0.431928
vn -0.606371 0.794165 0.040210
vn -0.651669 0.757231 0.043924
vn -0.709516 0.702034 0.061118
vn -0.606371 0.794165 0.040210
vn -0.709516 0.702034 0.061118
vn -0.640994 0.764760 0.065344
vn 0.238524 0.838589 0.489771
vn 0.000012 0.880652 0.473764
vn -0.000000 0.898349 0.439282
vn 0.238524 0.838589 0.489771
vn -0.000000 0.898349 0.439282
vn 0.029034 0.901615 0.431564
vn -0.551658 0.804759 0.219174
vn -0.551658 0.804759 0.219174
vn -0.542668 0.818399 0.189036
vn -0.551658 0.804759 0.219174
vn -0.542668 0.818399 0.189036
vn -0.542668 0.818399 0.189036
vn -0.709516 0.702034 0.061118
vn -0.705071 0.701811 -0.101664
vn -0.645450 0.758865 -0.086702
vn -0.709516 0.702034 0.061118
vn -0.645450 0.758865 -0.086702
vn -0.640994 0.764760 0.065344
vn 0.645778 0.758625 -0.086367
vn 0.641769 0.764101 0.065441
vn 0.580782 0.812094 0.056532
vn 0.645778 0.758625 -0.086367
vn 0.580782 0.812094 0.056532
vn 0.582169 0.810005 -0.070503
vn -0.581465 0.810452 -0.071173
vn -0.645450 0.758865 -0.086702
vn -0.578264 0.802807 -0.145297
vn 0.705051 0.701831 -0.101670
vn 0.645778 0.758625 -0.086367
vn 0.692682 0.691706 -0.204291
vn -0.692709 0.691611 -0.204520
vn -0.645450 0.758865 -0.086702
vn -0.705071 0.701811 -0.101664
vn 0.641769 0.764101 0.065441
vn 0.645778 0.758625 -0.086367
vn 0.705051 0.701831 -0.101670
vn 0.641769 0.764101 0.065441
vn 0.705051 0.701831 -0.101670
vn 0.709584 0.701975 0.061011
vn 0.542668 0.818399 0.189036
vn 0.542668 0.818399 0.189036
vn 0.551657 0.804759 0.219174
vn 0.542668 0.818399 0.189036
vn 0.551657 0.804759 0.219174
vn 0.551657 0.804759 0.219174
vn 0.525761 0.837192 -0.150613
vn 0.525761 0.837192 -0.150613
vn 0.525761 0.837192 -0.150613
vn 0.895758 0.432848 -0.101296
vn 0.895758 0.432848 -0.101296
vn 0.895127 0.422839 -0.141264
vn -0.895758 0.432848 -0.101297
vn -0.887607 0.453832 -0.078675
vn -0.887607 0.453832 -0.078675
vn -0.895758 0.432848 -0.101297
vn -0.887607 0.453832 -0.078675
vn -0.895758 0.432848 -0.101297
vn 0.571630 0.810308 0.128995
vn 0.581288 0.810732 0.069414
vn 0.581288 0.810732 0.069414
vn 0.571630 0.810308 0.128995
vn 0.581288 0.810732 0.069414
vn 0.571630 0.810308 0.128995
vn 0.571630 0.810308 0.128995
vn 0.571630 0.810308 0.128995
vn 0.551912 0.816697 0.168520
vn 0.571630 0.810308 0.128995
vn 0.551912 0.816697 0.168520
vn 0.551912 0.816697 0.168520
vn -0.640994 0.764760 0.065344
vn -0.578793 0.813538 0.056172
vn -0.606371 0.794165 0.040210
vn -0.876718 0.468845 -0.107474
vn -0.876718 0.468845 -0.107474
vn -0.873397 0.472303 -0.118779
vn 0.569045 0.801109 -0.185507
vn 0.572675 0.811860 -0.113695
vn 0.572675 0.811860 -0.113695
vn 0.607242 0.793517 0.039850
vn 0.580782 0.812094 0.056532
vn 0.641769 0.764101 0.065441
vn 0.577434 0.816426 -0.004369
vn 0.577434 0.816426 -0.004369
vn 0.581288 0.810732 0.069414
vn 0.577434 0.816426 -0.004369
vn 0.581288 0.810732 0.069414
vn 0.581288 0.810732 0.069414
vn 0.578224 0.802755 -0.145746
vn 0.645778 0.758625 -0.086367
vn 0.582169 0.810005 -0.070503
vn 0.128963 0.991334 0.024991
vn 0.060368 0.996185 0.063017
vn 0.607242 0.793517 0.039850
vn 0.128963 0.991334 0.024991
vn 0.607242 0.793517 0.039850
vn 0.651706 0.757198 0.043936
vn -0.053744 0.997871 -0.036949
vn -0.060368 0.996185 0.063017
vn -0.619037 0.781301 -0.079762
vn -0.053744 0.997871 -0.036949
vn -0.619037 0.781301 -0.079762
vn -0.651669 0.757231 0.043924
vn 0.572675 0.811860 -0.113695
vn 0.572675 0.811860 -0.113695
vn 0.577434 0.816426 -0.004369
vn 0.572675 0.811860 -0.113695
vn 0.577434 0.816426 -0.004369
vn 0.577434 0.816426 -0.004369
vn -0.581465 0.810452 -0.071173
vn -0.578793 0.813538 0.056172
vn -0.640994 0.764760 0.065344
vn -0.581465 0.810452 -0.071173
vn -0.640994 0.764760 0.065344
vn -0.645450 0.758865 -0.086702
vn -0.572675 0.811860 -0.113695
vn -0.572675 0.811860 -0.113695
vn -0.569045 0.801109 -0.185507
f 23/1/1 37/2/2 2/3/3
f 23/4/4 2/5/5 27/6/6
f 23/7/7 3/8/8 28/9/9
f 23/10/10 28/11/11 10/12/12
f 49/13/13 52/14/14 50/15/15
f 12/16/16 25/17/17 8/18/18
f 12/19/19 8/20/20 11/21/21
f 56/22/22 53/23/23 52/24/24
f 56/25/25 52/26/26 57/27/27
f 16/28/28 18/29/29 17/30/30
f 16/31/31 17/32/32 15/33/33
f 46/34/34 47/35/35 41/36/36
f 46/37/37 41/38/38 45/39/39
f 55/40/40 43/41/41 53/42/42
f 55/43/43 53/44/44 56/45/45
f 41/46/46 43/47/47 55/48/48
f 41/49/49 55/50/50 45/51/51
f 19/52/52 26/53/53 24/54/54
f 50/55/55 52/56/56 53/57/57
f 50/58/58 53/59/59 51/60/60
f 46/61/61 44/62/62 60/63/63
f 46/64/64 60/65/65 47/66/66
f 59/67/67 61/68/68 54/69/69
f 5/70/70 7/71/71 6/72/72
f 10/73/73 58/74/74 37/75/75
f 33/76/76 29/77/77 39/78/78
f 42/79/79 51/80/80 53/81/81
f 42/82/82 53/83/83 43/84/84
f 37/85/85 23/86/86 10/87/87
f 40/88/88 58/89/89 10/90/90
f 40/91/91 10/92/92 63/93/93
f 62/94/94 2/95/95 37/96/96
f 62/97/97 37/98/98 58/99/99
f 54/100/100 61/101/101 60/102/102
f 54/103/103 60/104/104 44/105/105
f 10/106/106 1/107/107 4/108/108
f 10/109/109 4/110/110 63/111/111
f 33/112/112 28/113/113 34/114/114
f 33/115/115 34/116/116 35/117/117
f 32/118/118 4/119/119 30/120/120
f 1/121/121 33/122/122 36/123/123
f 36/124/124 4/125/125 1/126/126
f 28/127/127 33/128/128 1/129/129
f 28/130/130 1/131/131 10/132/132
f 8/133/133 25/134/134 26/135/135
f 8/136/136 26/137/137 19/138/138
f 38/139/139 30/140/140 4/141/141
f 42/142/142 43/143/143 41/144/144
f 7/145/145 18/146/146 16/147/147
f 7/148/148 16/149/149 6/150/150
f 9/151/151 20/152/152 7/153/153
f 9/154/154 7/155/155 5/156/156
f 9/157/157 5/158/158 12/159/159
f 9/160/160 12/161/161 11/162/162
f 63/163/163 31/164/164 40/165/165
f 15/166/166 17/167/167 14/168/168
f 14/169/169 17/170/170 22/171/171
f 3/172/172 34/173/173 28/174/174
f 21/175/175 18/176/176 7/177/177
f 21/178/178 7/179/179 20/180/180
f 29/181/181 33/182/182 35/183/183
f 27/184/184 13/185/185 3/186/186
f 27/187/187 3/188/188 23/189/189
f 40/190/190 48/191/191 62/192/192
f 40/193/193 62/194/194 58/195/195
f 22/196/196 17/197/197 18/198/198
f 22/199/199 18/200/200 21/201/201
f 32/202/202 31/203/203 63/204/204
f 32/205/205 63/206/206 4/207/207
f 57/208/208 52/209/209 49/210/210
