v -1.076776 1.808017 -1.021231
v -1.211642 2.399163 -1.652945
v -1.106539 2.548971 -2.449533
v 0.969481 0.899876 -0.150658
v 0.761662 1.038285 -0.068080
v 0.749811 0.405203 0.488176
v -0.761662 1.038284 -0.068080
v -0.553498 0.516385 0.571529
v 0.553497 0.516386 0.571528
v 1.048344 2.121273 -1.812806
v 1.211641 2.916930 -3.035676
v 1.408315 2.547621 -2.447946
v 1.211641 2.755979 -2.330859
v 1.482444 2.122334 -1.809832
v 0.956817 1.619799 -1.120608
v 1.211641 1.783841 -2.007536
v 1.211641 2.274723 -2.595373
v 1.106538 2.548971 -2.449533
v 1.211641 2.399163 -1.652945
v 1.308167 1.622129 -1.115853
v 1.076775 1.808018 -1.021231
v -0.494711 1.088758 -0.032327
v -0.711938 0.645943 -0.309232
v 0.494711 1.088759 -0.032327
v -1.076775 1.381275 -1.257634
v -1.048345 2.121272 -1.812806
v -1.211642 2.916929 -3.035676
v -1.408316 2.547620 -2.447946
v -1.211642 2.755979 -2.330859
v -0.956818 1.619798 -1.120608
v -1.211642 1.783840 -2.007536
v -1.211642 2.274721 -2.595373
v -0.508821 0.115247 0.276652
v 0.236225 -0.393112 1.621723
v -0.000000 0.612193 0.630662
v -0.000000 0.726020 0.066468
v 0.494173 -0.204217 1.245648
v 0.388289 -0.450660 1.573741
v 0.198816 -0.095110 1.342841
v 0.327502 -0.119062 1.328057
v -0.327502 -0.119062 1.328057
v -0.198815 -0.095111 1.342841
v -0.283271 0.896397 -0.152871
v 0.283270 0.896397 -0.152871
vt 0.083594 0.294531
vt 0.109375 0.187500
vt 0.126953 0.281250
vt 0.000000 0.000000
vt 0.000000 0.000000
vt 0.000000 0.000000
vt 0.083008 0.293945
vt 0.126953 0.281250
vt 0.183594 0.460938
vt 0.375000 0.772135
vt 0.199075 0.561633
vt 0.167222 0.599186
vt 0.375000 0.772135
vt 0.167222 0.599186
vt 0.343750 0.805990
vt 0.183594 0.460938
vt 0.033203 0.478516
vt 0.083333 0.294271
vt 0.306641 0.564453
vt 0.238281 0.597656
vt 0.183594 0.460938
vt 0.306641 0.564453
vt 0.183594 0.460938
vt 0.248047 0.433594
vt 0.055042 0.470260
vt 0.167222 0.599186
vt 0.199075 0.561633
vt 0.761719 0.272461
vt 0.874023 0.291992
vt 0.855469 0.344727
vt 0.761719 0.272461
vt 0.855469 0.344727
vt 0.774414 0.357422
vt 0.558594 0.953125
vt 0.242188 0.915365
vt 0.246745 0.830078
vt 0.558594 0.953125
vt 0.246745 0.830078
vt 0.561198 0.876302
vt 0.183594 0.460938
vt 0.083333 0.294271
vt 0.033203 0.478516
vt 0.199075 0.561633
vt 0.162484 0.516201
vt 0.055042 0.470260
vt 0.183594 0.460938
vt 0.126953 0.281250
vt 0.083008 0.293945
vt 0.185547 0.621094
vt 0.033203 0.478516
vt 0.183594 0.460938
vt 0.185547 0.621094
vt 0.183594 0.460938
vt 0.238281 0.597656
vt 0.185547 0.621094
vt 0.238281 0.597656
vt 0.183594 0.460938
vt 0.185547 0.621094
vt 0.183594 0.460938
vt 0.033203 0.478516
vt 0.403646 0.764323
vt 0.346354 0.800781
vt 0.238281 0.597656
vt 0.403646 0.764323
vt 0.238281 0.597656
vt 0.306641 0.564453
vt 0.748063 0.885884
vt 0.784991 0.816280
vt 0.896480 0.979272
vt 0.774414 0.357422
vt 0.761719 0.272461
vt 0.874023 0.291992
vt 0.774414 0.357422
vt 0.874023 0.291992
vt 0.855469 0.344727
vt 0.126953 0.281250
vt 0.109375 0.187500
vt 0.140625 0.177734
vt 0.126953 0.281250
vt 0.140625 0.177734
vt 0.177734 0.263672
vt 0.411566 0.650061
vt 0.446262 0.589525
vt 0.636145 0.691695
vt 0.411566 0.650061
vt 0.636145 0.691695
vt 0.586837 0.777335
vt 0.661133 0.385742
vt 0.616211 0.322266
vt 0.761719 0.272461
vt 0.661133 0.385742
vt 0.761719 0.272461
vt 0.774414 0.357422
vt 0.055042 0.470260
vt 0.162484 0.516201
vt 0.199075 0.561633
vt 0.346354 0.800781
vt 0.238281 0.597656
vt 0.185547 0.621094
vt 0.586837 0.777335
vt 0.636145 0.691695
vt 0.784991 0.816280
vt 0.586837 0.777335
vt 0.784991 0.816280
vt 0.748063 0.885884
vt 0.970703 0.344727
vt 0.855469 0.344727
vt 0.874023 0.291992
vt 0.242188 0.915365
vt 0.173822 0.911784
vt 0.046875 0.795573
vt 0.242188 0.915365
vt 0.046875 0.795573
vt 0.246745 0.830078
vt 0.874023 0.291992
vt 0.855469 0.344727
vt 0.970703 0.344727
vt 0.177734 0.263672
vt 0.248047 0.433594
vt 0.183594 0.460938
vt 0.177734 0.263672
vt 0.183594 0.460938
vt 0.126953 0.281250
vt 0.167222 0.599186
vt 0.199075 0.561633
vt 0.375000 0.772135
vt 0.167222 0.599186
vt 0.375000 0.772135
vt 0.343750 0.805990
vt 0.874023 0.291992
vt 0.761719 0.272461
vt 0.774414 0.357422
vt 0.874023 0.291992
vt 0.774414 0.357422
vt 0.855469 0.344727
vt 0.761719 0.272461
vt 0.616211 0.322266
vt 0.661133 0.385742
vt 0.761719 0.272461
vt 0.661133 0.385742
vt 0.774414 0.357422
vt 0.616211 0.322266
vt 0.761719 0.272461
vt 0.774414 0.357422
vt 0.616211 0.322266
vt 0.774414 0.357422
vt 0.661133 0.385742
vt 0.970703 0.344727
vt 0.855469 0.344727
vt 0.874023 0.291992
vt 0.896480 0.979272
vt 0.747661 0.885542
vt 0.784991 0.816281
vt 0.636145 0.691695
vt 0.784991 0.816281
vt 0.747661 0.885542
vt 0.636145 0.691695
vt 0.747661 0.885542
vt 0.586084 0.777604
vt 0.199075 0.561633
vt 0.167222 0.599186
vt 0.055042 0.470260
vt 0.185547 0.621094
vt 0.238281 0.597656
vt 0.346354 0.800781
vn 0.123325 0.706796 0.696584
vn 0.239049 0.674085 0.698903
vn 0.383500 0.636906 0.668789
vn -0.123326 0.706796 0.696584
vn 0.123325 0.706796 0.696584
vn -0.000000 0.731002 0.682375
vn 0.123325 0.706796 0.696584
vn 0.383500 0.636906 0.668789
vn 0.360682 0.659126 0.659895
vn -0.807512 0.586243 0.065139
vn -0.598540 0.796217 0.088254
vn -0.735573 0.677443 0.001771
vn -0.807512 0.586243 0.065139
vn -0.735573 0.677443 0.001771
vn -0.870982 0.478718 0.110542
vn 0.360682 0.659126 0.659895
vn -0.000000 0.731002 0.682375
vn 0.123325 0.706796 0.696584
vn 0.599090 0.518406 0.610202
vn 0.416907 0.634804 0.650548
vn 0.360682 0.659126 0.659895
vn 0.599090 0.518406 0.610202
vn 0.360682 0.659126 0.659895
vn 0.577009 0.532655 0.619143
vn -0.548656 0.829728 0.102604
vn -0.735573 0.677443 0.001771
vn -0.598540 0.796217 0.088254
vn 0.739854 0.522051 0.424356
vn 0.764976 0.604858 0.221264
vn 0.764976 0.604858 0.221264
vn 0.739854 0.522051 0.424356
vn 0.764976 0.604858 0.221264
vn 0.739854 0.522051 0.424356
vn 0.798667 -0.310893 -0.515244
vn 0.486428 -0.494498 -0.720319
vn 0.636797 -0.400386 -0.658924
vn 0.798667 -0.310893 -0.515244
vn 0.636797 -0.400386 -0.658924
vn 0.894007 -0.220075 -0.390280
vn -0.360682 0.659126 0.659895
vn -0.123326 0.706796 0.696584
vn -0.000000 0.731002 0.682375
vn -0.598540 0.796217 0.088254
vn -0.400012 0.898408 0.181255
vn -0.548656 0.829728 0.102604
vn -0.360682 0.659126 0.659895
vn -0.383500 0.636906 0.668789
vn -0.123326 0.706796 0.696584
vn 0.214603 0.720483 0.659432
vn -0.000000 0.731002 0.682375
vn 0.360682 0.659126 0.659895
vn 0.214603 0.720483 0.659432
vn 0.360682 0.659126 0.659895
vn 0.416907 0.634804 0.650548
vn -0.214604 0.720483 0.659432
vn -0.416907 0.634804 0.650548
vn -0.360682 0.659126 0.659895
vn -0.214604 0.720483 0.659432
vn -0.360682 0.659126 0.659895
vn -0.000000 0.731002 0.682375
vn 0.659051 0.485092 0.574750
vn 0.528915 0.580128 0.619435
vn 0.416907 0.634804 0.650548
vn 0.659051 0.485092 0.574750
vn 0.416907 0.634804 0.650548
vn 0.599090 0.518406 0.610202
vn 0.933146 -0.236334 -0.270895
vn 0.933146 -0.236334 -0.270895
vn 0.934259 -0.201643 -0.294109
vn 0.899033 0.393276 0.192546
vn 0.884125 0.422719 0.199078
vn 0.905922 0.392530 0.158828
vn 0.899033 0.393276 0.192546
vn 0.905922 0.392530 0.158828
vn 0.913012 0.382903 0.140693
vn 0.383500 0.636906 0.668789
vn 0.239049 0.674085 0.698903
vn 0.479199 0.603629 0.637182
vn 0.383500 0.636906 0.668789
vn 0.479199 0.603629 0.637182
vn 0.545004 0.551915 0.631157
vn 0.798667 -0.310893 -0.515244
vn 0.894007 -0.220075 -0.390280
vn 0.921433 -0.269843 -0.279548
vn 0.798667 -0.310893 -0.515244
vn 0.921433 -0.269843 -0.279548
vn 0.921433 -0.269843 -0.279548
vn 0.870982 0.478718 0.110542
vn 0.807512 0.586244 0.065139
vn 0.884125 0.422719 0.199078
vn 0.870982 0.478718 0.110542
vn 0.884125 0.422719 0.199078
vn 0.899033 0.393276 0.192546
vn 0.548655 0.829729 0.102605
vn 0.400011 0.898408 0.181255
vn 0.598539 0.796218 0.088255
vn -0.528915 0.580128 0.619435
vn -0.416907 0.634804 0.650548
vn -0.214604 0.720483 0.659432
vn 0.921433 -0.269843 -0.279548
vn 0.921433 -0.269843 -0.279548
vn 0.933146 -0.236334 -0.270895
vn 0.921433 -0.269843 -0.279548
vn 0.933146 -0.236334 -0.270895
vn 0.933146 -0.236334 -0.270895
vn 0.908315 0.407790 0.093122
vn 0.913012 0.382903 0.140693
vn 0.905922 0.392530 0.158828
vn 0.486428 -0.494498 -0.720319
vn 0.442291 -0.526817 -0.725839
vn 0.442291 -0.526817 -0.725839
vn 0.486428 -0.494498 -0.720319
vn 0.442291 -0.526817 -0.725839
vn 0.636797 -0.400386 -0.658924
vn -0.764978 0.604857 0.221263
vn -0.764978 0.604857 0.221263
vn -0.758896 0.634869 0.144977
vn 0.545004 0.551915 0.631157
vn 0.577009 0.532655 0.619143
vn 0.360682 0.659126 0.659895
vn 0.545004 0.551915 0.631157
vn 0.360682 0.659126 0.659895
vn 0.383500 0.636906 0.668789
vn 0.735573 0.677444 0.001771
vn 0.598539 0.796218 0.088255
vn 0.807512 0.586244 0.065139
vn 0.735573 0.677444 0.001771
vn 0.807512 0.586244 0.065139
vn 0.870982 0.478718 0.110542
vn -0.905922 0.392529 0.158829
vn -0.884125 0.422719 0.199078
vn -0.899033 0.393276 0.192546
vn -0.905922 0.392529 0.158829
vn -0.899033 0.393276 0.192546
vn -0.913012 0.382903 0.140693
vn -0.884125 0.422719 0.199078
vn -0.807512 0.586243 0.065139
vn -0.870982 0.478718 0.110542
vn -0.884125 0.422719 0.199078
vn -0.870982 0.478718 0.110542
vn -0.899033 0.393276 0.192546
vn 0.659051 0.485092 0.574750
vn 0.739854 0.522051 0.424356
vn 0.739854 0.522051 0.424356
vn 0.659051 0.485092 0.574750
vn 0.739854 0.522051 0.424356
vn 0.528915 0.580128 0.619435
vn 0.758894 0.634871 0.144978
vn 0.764976 0.604858 0.221264
vn 0.764976 0.604858 0.221264
vn 0.814297 -0.328226 -0.478737
vn 0.823003 -0.377634 -0.424334
vn 0.823003 -0.377634 -0.424334
vn 0.816436 -0.504419 -0.281059
vn 0.823003 -0.377634 -0.424334
vn 0.823003 -0.377634 -0.424334
vn 0.816436 -0.504419 -0.281059
vn 0.823003 -0.377634 -0.424334
vn 0.816436 -0.504419 -0.281059
vn 0.598539 0.796218 0.088255
vn 0.735573 0.677444 0.001771
vn 0.548655 0.829729 0.102605
vn 0.214603 0.720483 0.659432
vn 0.416907 0.634804 0.650548
vn 0.528915 0.580128 0.619435
f 39/1/1 34/2/2 40/3/3
f 42/4/4 39/5/5 35/6/6
f 39/7/7 40/8/8 9/9/9
f 15/10/10 44/11/11 24/12/12
f 15/13/13 24/14/14 21/15/15
f 9/16/16 35/17/17 39/18/18
f 4/19/19 5/20/20 9/21/21
f 4/22/22 9/23/23 6/24/24
f 35/25/25 24/26/26 44/27/27
f 14/28/28 12/29/29 13/30/30
f 14/31/31 13/32/32 19/33/33
f 30/34/34 43/35/35 23/36/36
f 30/37/37 23/38/38 25/39/39
f 8/40/40 42/41/41 35/42/42
f 44/43/43 36/44/44 35/45/45
f 8/46/46 41/47/47 42/48/48
f 24/49/49 35/50/50 9/51/51
f 24/52/52 9/53/53 5/54/54
f 22/55/55 7/56/56 8/57/57
f 22/58/58 8/59/59 35/60/60
f 20/61/61 21/62/62 5/63/63
f 20/64/64 5/65/65 4/66/66
f 3/67/67 32/68/68 27/69/69
f 2/70/70 26/71/71 3/72/72
f 2/73/73 3/74/74 29/75/75
f 40/76/76 34/77/77 38/78/78
f 40/79/79 38/80/80 37/81/81
f 30/82/82 25/83/83 31/84/84
f 30/85/85 31/86/86 26/87/87
f 1/88/88 30/89/89 26/90/90
f 1/91/91 26/92/92 2/93/93
f 35/94/94 36/95/95 43/96/96
f 1/97/97 7/98/98 22/99/99
f 26/100/100 31/101/101 32/102/102
f 26/103/103 32/104/104 3/105/105
f 27/106/106 29/107/107 3/108/108
f 43/109/109 36/110/110 33/111/111
f 43/112/112 33/113/113 23/114/114
f 28/115/115 29/116/116 27/117/117
f 37/118/118 6/119/119 9/120/120
f 37/121/121 9/122/122 40/123/123
f 22/124/124 43/125/125 30/126/126
f 22/127/127 30/128/128 1/129/129
f 18/130/130 10/131/131 19/132/132
f 18/133/133 19/134/134 13/135/135
f 10/136/136 15/137/137 21/138/138
f 10/139/139 21/140/140 19/141/141
f 20/142/142 14/143/143 19/144/144
f 20/145/145 19/146/146 21/147/147
f 11/148/148 13/149/149 12/150/150
f 11/151/151 12/152/152 17/153/153
f 16/154/154 17/155/155 12/156/156
f 16/157/157 12/158/158 14/159/159
f 43/160/160 22/161/161 35/162/162
f 24/163/163 5/164/164 21/165/165
