v 0.168786 -0.595896 0.279265
v 0.168439 -0.315522 -1.545825
v 0.252026 -0.458516 -1.095452
v 0.237494 -0.514872 -0.594941
v 0.127860 -0.196738 -1.508991
v -0.168440 -0.315522 -1.545825
v -0.252027 -0.458516 -1.095452
v 0.508821 0.115247 0.276652
v -0.000000 -0.412230 0.336156
v -0.000000 -0.167378 -1.997454
v -0.000000 -0.176113 -1.014552
v -0.000000 -0.122437 -1.486985
v -0.000000 -0.254465 -0.524190
v 0.506301 -0.714903 0.904652
v -0.508821 0.115247 0.276652
v -0.127861 -0.196738 -1.508991
v 0.699139 -1.038531 -1.429230
v 0.814030 -1.007736 0.401768
v 0.654972 -0.699592 -0.274117
v 0.671128 -0.793302 -0.901709
v 0.611776 -0.714558 0.408956
v 0.844873 -0.829240 -0.274380
v 0.802607 -0.902626 -0.901709
v 0.950899 -1.096857 -0.274380
v 0.902806 -1.078577 -0.901710
v 0.746074 -0.809582 0.401768
v 0.572423 -0.780007 0.884925
v -0.699139 -1.038531 -1.429230
v -0.580352 -1.134285 -0.901709
v -0.536357 -1.157328 -0.273930
v -0.654973 -0.699592 -0.274117
v -0.671129 -0.793302 -0.901709
v -0.611777 -0.714558 0.408956
v -0.521103 -1.058504 0.407393
v -0.000002 0.487734 -0.850957
v 0.293099 0.276077 -0.072120
v -0.000000 0.649840 -0.083261
v -0.293100 0.276077 -0.072120
v -0.161207 0.374840 -0.419784
v -0.000002 0.566930 -0.420235
v 0.161203 0.374840 -0.419784
v -0.000000 0.726020 0.066468
v -0.142240 -0.512856 0.307194
v -0.177123 -0.355013 -0.552152
v -0.178563 -0.272831 -1.040174
v 0.178562 -0.272831 -1.040174
v 0.177122 -0.355013 -0.552152
v 0.142239 -0.512856 0.307194
v -0.506302 -0.714903 0.904652
vt 0.866891 0.136321
vt 0.875206 0.108032
vt 0.773548 0.073977
vt 0.866891 0.136321
vt 0.773548 0.073977
vt 0.761071 0.118199
vt 0.589844 0.130859
vt 0.589844 0.173828
vt 0.750000 0.189453
vt 0.761071 0.118199
vt 0.755287 0.141233
vt 0.644603 0.122573
vt 0.761071 0.118199
vt 0.644603 0.122573
vt 0.650914 0.098627
vt 0.977147 0.143313
vt 0.861924 0.154016
vt 0.866891 0.136321
vt 0.456944 0.061035
vt 0.450406 0.085000
vt 0.644603 0.122573
vt 0.456944 0.061035
vt 0.644603 0.122573
vt 0.650914 0.098627
vt 0.134985 0.133954
vt 0.275579 0.198163
vt 0.279714 0.111882
vt 0.526855 0.376061
vt 0.440014 0.403770
vt 0.526764 0.423208
vt 0.866891 0.136321
vt 0.861924 0.154016
vt 0.755287 0.141233
vt 0.866891 0.136321
vt 0.755287 0.141233
vt 0.761071 0.118199
vt 0.866891 0.136321
vt 0.875206 0.108032
vt 0.977147 0.143313
vt 0.596876 0.351820
vt 0.594632 0.443558
vt 0.526764 0.423208
vt 0.596876 0.351820
vt 0.526764 0.423208
vt 0.526855 0.376061
vt 0.279714 0.111882
vt 0.275579 0.198163
vt 0.432714 0.219231
vt 0.279714 0.111882
vt 0.432714 0.219231
vt 0.439951 0.108872
vt 0.650914 0.098627
vt 0.644603 0.122573
vt 0.450406 0.085000
vt 0.650914 0.098627
vt 0.450406 0.085000
vt 0.456944 0.061035
vt 0.594632 0.443558
vt 0.624789 0.462256
vt 0.667121 0.312345
vt 0.594632 0.443558
vt 0.667121 0.312345
vt 0.596876 0.351820
vt 0.650914 0.098627
vt 0.660573 0.060555
vt 0.773548 0.073977
vt 0.650914 0.098627
vt 0.773548 0.073977
vt 0.761071 0.118199
vt 0.761071 0.118199
vt 0.773548 0.073977
vt 0.875206 0.108032
vt 0.761071 0.118199
vt 0.875206 0.108032
vt 0.866891 0.136321
vt 0.761071 0.118199
vt 0.755287 0.141233
vt 0.861924 0.154016
vt 0.761071 0.118199
vt 0.861924 0.154016
vt 0.866891 0.136321
vt 0.650914 0.098627
vt 0.644603 0.122573
vt 0.755287 0.141233
vt 0.650914 0.098627
vt 0.755287 0.141233
vt 0.761071 0.118199
vt 0.866891 0.136321
vt 0.861924 0.154016
vt 0.977147 0.143313
vt 0.439951 0.108872
vt 0.432714 0.219231
vt 0.556641 0.218750
vt 0.439951 0.108872
vt 0.556641 0.218750
vt 0.570312 0.130859
vt 0.449219 0.166016
vt 0.449219 0.220703
vt 0.589844 0.216797
vt 0.449219 0.166016
vt 0.589844 0.216797
vt 0.589844 0.173828
vt 0.594632 0.443558
vt 0.596876 0.351820
vt 0.526855 0.376061
vt 0.594632 0.443558
vt 0.526855 0.376061
vt 0.526764 0.423208
vt 0.589844 0.173828
vt 0.589844 0.216797
vt 0.750000 0.216797
vt 0.589844 0.173828
vt 0.750000 0.216797
vt 0.750000 0.189453
vt 0.280434 0.154745
vt 0.279297 0.113281
vt 0.142578 0.134766
vt 0.279297 0.113281
vt 0.280434 0.154745
vt 0.449219 0.166016
vt 0.279297 0.113281
vt 0.449219 0.166016
vt 0.451172 0.111328
vt 0.451172 0.111328
vt 0.449219 0.166016
vt 0.589844 0.173828
vt 0.451172 0.111328
vt 0.589844 0.173828
vt 0.589844 0.130859
vt 0.280434 0.194351
vt 0.280434 0.154745
vt 0.142578 0.134766
vt 0.449219 0.220703
vt 0.449219 0.166016
vt 0.280434 0.154745
vt 0.449219 0.220703
vt 0.280434 0.154745
vt 0.280434 0.194351
vt 0.456944 0.061035
vt 0.463248 0.041258
vt 0.660573 0.060555
vt 0.456944 0.061035
vt 0.660573 0.060555
vt 0.650914 0.098627
vt 0.596876 0.351820
vt 0.667121 0.312345
vt 0.624789 0.462256
vt 0.596876 0.351820
vt 0.624789 0.462256
vt 0.594632 0.443558
vt 0.977147 0.143313
vt 0.875206 0.108032
vt 0.866891 0.136321
vt 0.526764 0.423208
vt 0.440014 0.403770
vt 0.526855 0.376061
vt 0.000000 0.000000
vt 0.000000 0.000000
vt 0.000000 0.000000
vn -0.750745 0.657309 -0.065780
vn -0.919521 0.370231 -0.131950
vn -0.930334 0.363383 -0.049305
vn -0.750745 0.657309 -0.065780
vn -0.930334 0.363383 -0.049305
vn -0.676821 0.733284 0.064860
vn 0.921286 0.315951 0.226733
vn 0.814818 0.547726 0.189914
vn 0.826313 0.496107 0.266617
vn 0.760611 0.645856 0.065892
vn 0.496404 0.860195 0.116821
vn 0.521667 0.839561 0.151659
vn 0.760611 0.645856 0.065892
vn 0.521667 0.839561 0.151659
vn 0.775858 0.618693 0.123543
vn 0.737579 0.657571 -0.153546
vn 0.495403 0.868626 0.007979
vn 0.750745 0.657309 -0.065780
vn -0.546457 0.821692 0.161886
vn -0.546457 0.821692 0.161886
vn -0.521667 0.839561 0.151659
vn -0.546457 0.821692 0.161886
vn -0.521667 0.839561 0.151659
vn -0.521667 0.839561 0.151659
vn 0.952531 0.253583 -0.168462
vn 0.960457 0.253723 -0.114656
vn 0.960457 0.253723 -0.114656
vn 0.767508 0.628518 -0.126084
vn 0.760844 0.638236 -0.117351
vn 0.767508 0.628518 -0.126084
vn 0.750745 0.657309 -0.065780
vn 0.495403 0.868626 0.007979
vn 0.496404 0.860195 0.116821
vn 0.750745 0.657309 -0.065780
vn 0.496404 0.860195 0.116821
vn 0.760611 0.645856 0.065892
vn 0.750745 0.657309 -0.065780
vn 0.919521 0.370231 -0.131950
vn 0.737579 0.657571 -0.153546
vn -0.777466 0.600531 -0.186839
vn -0.777466 0.600531 -0.186839
vn -0.767508 0.628518 -0.126080
vn -0.777466 0.600531 -0.186839
vn -0.767508 0.628518 -0.126080
vn -0.767508 0.628518 -0.126080
vn 0.960457 0.253723 -0.114656
vn 0.960457 0.253723 -0.114656
vn 0.965763 0.252697 -0.058700
vn 0.960457 0.253723 -0.114656
vn 0.965763 0.252697 -0.058700
vn 0.965763 0.252697 -0.058700
vn 0.775858 0.618693 0.123543
vn 0.521667 0.839561 0.151659
vn 0.546457 0.821692 0.161886
vn 0.775858 0.618693 0.123543
vn 0.546457 0.821692 0.161886
vn 0.789252 0.598344 0.138078
vn 0.777465 0.600531 -0.186843
vn 0.778551 0.580567 -0.238327
vn 0.778551 0.580567 -0.238327
vn 0.777465 0.600531 -0.186843
vn 0.778551 0.580567 -0.238327
vn 0.777465 0.600531 -0.186843
vn 0.775858 0.618693 0.123543
vn 0.941434 0.327243 0.081331
vn 0.934975 0.354642 0.007082
vn 0.775858 0.618693 0.123543
vn 0.934975 0.354642 0.007082
vn 0.760611 0.645856 0.065892
vn 0.760611 0.645856 0.065892
vn 0.934975 0.354642 0.007082
vn 0.919521 0.370231 -0.131950
vn 0.760611 0.645856 0.065892
vn 0.919521 0.370231 -0.131950
vn 0.750745 0.657309 -0.065780
vn -0.676821 0.733284 0.064860
vn -0.496404 0.860196 0.116821
vn -0.495403 0.868626 0.007979
vn -0.676821 0.733284 0.064860
vn -0.495403 0.868626 0.007979
vn -0.750745 0.657309 -0.065780
vn -0.521667 0.839561 0.151659
vn -0.521667 0.839561 0.151659
vn -0.496404 0.860196 0.116821
vn -0.521667 0.839561 0.151659
vn -0.496404 0.860196 0.116821
vn -0.676821 0.733284 0.064860
vn -0.750745 0.657309 -0.065780
vn -0.495403 0.868626 0.007979
vn -0.737579 0.657571 -0.153546
vn 0.965763 0.252697 -0.058700
vn 0.965763 0.252697 -0.058700
vn 0.959007 0.252088 -0.129447
vn 0.965763 0.252697 -0.058700
vn 0.959007 0.252088 -0.129447
vn 0.959007 0.252088 -0.129447
vn 0.797119 0.603773 0.007658
vn 0.587968 0.808368 -0.028876
vn 0.653280 0.744023 0.140197
vn 0.797119 0.603773 0.007658
vn 0.653280 0.744023 0.140197
vn 0.814818 0.547726 0.189914
vn 0.777465 0.600531 -0.186843
vn 0.777465 0.600531 -0.186843
vn 0.767508 0.628518 -0.126084
vn 0.777465 0.600531 -0.186843
vn 0.767508 0.628518 -0.126084
vn 0.767508 0.628518 -0.126084
vn 0.814818 0.547726 0.189914
vn 0.653280 0.744023 0.140197
vn 0.716992 0.662397 0.217147
vn 0.814818 0.547726 0.189914
vn 0.716992 0.662397 0.217147
vn 0.826313 0.496107 0.266617
vn 0.765034 0.612319 -0.199472
vn 0.888328 0.424748 -0.174537
vn 0.731342 0.611946 -0.301101
vn 0.888328 0.424748 -0.174537
vn 0.765034 0.612319 -0.199472
vn 0.797119 0.603773 0.007658
vn 0.888328 0.424748 -0.174537
vn 0.797119 0.603773 0.007658
vn 0.937136 0.346231 0.043583
vn 0.937136 0.346231 0.043583
vn 0.797119 0.603773 0.007658
vn 0.814818 0.547726 0.189914
vn 0.937136 0.346231 0.043583
vn 0.814818 0.547726 0.189914
vn 0.921286 0.315951 0.226733
vn 0.603427 0.768112 -0.214196
vn 0.765034 0.612319 -0.199472
vn 0.731342 0.611946 -0.301101
vn 0.587968 0.808368 -0.028876
vn 0.797119 0.603773 0.007658
vn 0.765034 0.612319 -0.199472
vn 0.587968 0.808368 -0.028876
vn 0.765034 0.612319 -0.199472
vn 0.603427 0.768112 -0.214196
vn 0.789252 0.598344 0.138078
vn 0.945703 0.309536 0.099163
vn 0.941434 0.327243 0.081331
vn 0.789252 0.598344 0.138078
vn 0.941434 0.327243 0.081331
vn 0.775858 0.618693 0.123543
vn -0.777466 0.600531 -0.186839
vn -0.778552 0.580567 -0.238326
vn -0.778552 0.580567 -0.238326
vn -0.777466 0.600531 -0.186839
vn -0.778552 0.580567 -0.238326
vn -0.777466 0.600531 -0.186839
vn -0.737579 0.657571 -0.153546
vn -0.919521 0.370231 -0.131950
vn -0.750745 0.657309 -0.065780
vn -0.767508 0.628518 -0.126080
vn -0.760844 0.638236 -0.117352
vn -0.767508 0.628518 -0.126080
vn 0.959007 0.252088 -0.129447
vn 0.959007 0.252088 -0.129447
vn 0.946939 0.250556 -0.201317
f 16/1/1 6/2/2 7/3/3
f 16/4/4 7/5/5 45/6/6
f 18/7/7 26/8/8 27/9/9
f 46/10/10 11/11/11 13/12/12
f 46/13/13 13/14/14 47/15/15
f 10/16/16 12/17/17 5/18/18
f 43/19/19 9/20/20 13/21/21
f 43/22/22 13/23/23 44/24/24
f 28/25/25 32/26/26 29/27/27
f 41/28/28 35/29/29 40/30/30
f 5/31/31 12/32/32 11/33/33
f 5/34/34 11/35/35 46/36/36
f 5/37/37 2/38/38 10/39/39
f 38/40/40 37/41/41 40/42/42
f 38/43/43 40/44/44 39/45/45
f 29/46/46 32/47/47 31/48/48
f 29/49/49 31/50/50 30/51/51
f 47/52/52 13/53/53 9/54/54
f 47/55/55 9/56/56 48/57/57
f 37/58/58 42/59/59 8/60/60
f 37/61/61 8/62/62 36/63/63
f 47/64/64 4/65/65 3/66/66
f 47/67/67 3/68/68 46/69/69
f 46/70/70 3/71/71 2/72/72
f 46/73/73 2/74/74 5/75/75
f 45/76/76 11/77/77 12/78/78
f 45/79/79 12/80/80 16/81/81
f 44/82/82 13/83/83 11/84/84
f 44/85/85 11/86/86 45/87/87
f 16/88/88 12/89/89 10/90/90
f 30/91/91 31/92/92 33/93/93
f 30/94/94 33/95/95 34/96/96
f 22/97/97 19/98/98 21/99/99
f 22/100/100 21/101/101 26/102/102
f 37/103/103 36/104/104 41/105/105
f 37/106/106 41/107/107 40/108/108
f 26/109/109 21/110/110 14/111/111
f 26/112/112 14/113/113 27/114/114
f 23/115/115 25/116/116 17/117/117
f 25/118/118 23/119/119 22/120/120
f 25/121/121 22/122/122 24/123/123
f 24/124/124 22/125/125 26/126/126
f 24/127/127 26/128/128 18/129/129
f 20/130/130 23/131/131 17/132/132
f 19/133/133 22/134/134 23/135/135
f 19/136/136 23/137/137 20/138/138
f 48/139/139 1/140/140 4/141/141
f 48/142/142 4/143/143 47/144/144
f 38/145/145 15/146/146 42/147/147
f 38/148/148 42/149/149 37/150/150
f 10/151/151 6/152/152 16/153/153
f 40/154/154 35/155/155 39/156/156
f 34/157/157 33/158/158 49/159/159
