v 0.750526 -0.172680 -5.598284
v 1.597754 -0.175219 -3.469407
v 1.274700 -0.522534 -1.789903
v 1.236681 0.341830 -1.790654
v 1.149916 0.165552 -3.468288
v 1.623074 -0.171252 0.084456
v 1.173171 0.164733 0.083965
v 1.391559 0.055386 0.080023
v 1.525160 0.171664 -1.788367
v 1.397120 0.016115 -3.463334
v 1.858647 -0.169932 -1.787811
v 1.196427 -0.444703 0.081246
v -0.750525 3.168060 -0.319115
v 0.530708 1.350935 1.163677
v 0.241868 4.810069 -0.774008
v 1.235132 -2.496411 2.839648
v -0.514419 -1.064992 -1.192167
v 0.000000 3.048946 -1.001616
v 0.000001 5.910815 -1.553319
v -0.000002 -1.536502 -1.191932
v -0.350532 4.782234 -0.987143
v 0.750526 3.168060 -0.319115
v 0.517863 3.261391 0.121361
v -1.149916 1.352335 0.082331
v -1.173172 0.164733 0.083966
v -0.379910 3.073236 -0.759471
v 0.514418 -1.064993 -1.192167
v -1.236681 0.341830 -1.790653
v 0.350533 4.782234 -0.987143
v 1.149916 1.352335 0.082331
v 0.000001 -0.130427 -2.462038
v -1.274699 -0.522535 -1.789899
v 1.770010 -2.188160 1.745281
v -0.481102 1.339850 -0.585461
v 0.000001 4.747077 -1.159871
v 0.379911 3.073236 -0.759471
v 0.000000 1.353609 -2.961661
v 0.481102 1.339850 -0.585461
v 1.396201 -1.645640 0.722623
v 1.523605 -2.951649 2.660497
v 1.745004 -2.661485 2.775030
v 1.361726 -3.091513 3.752823
v 1.631723 -1.679777 1.949474
v 1.723993 -2.361986 2.901532
v 1.026296 -1.832842 1.888338
v -0.750525 -0.162097 -5.574996
v -1.597754 -0.175219 -3.469407
v -1.222412 -0.389850 -3.464915
v -1.149916 0.165552 -3.468288
v -1.623075 -0.171252 0.084456
v -1.391559 0.055386 0.080023
v -1.525160 0.171664 -1.788367
v -1.397120 0.016115 -3.463334
v -1.858647 -0.169932 -1.787811
v 0.000000 2.201277 -0.991692
v 0.000001 0.991267 -1.098150
vt 0.564453 0.970703
vt 0.314752 0.933082
vt 0.564453 0.898438
vt 0.414418 0.987571
vt 0.414062 0.958008
vt 0.600586 0.946289
vt 0.414418 0.987571
vt 0.600586 0.946289
vt 0.600852 0.968750
vt 0.600852 0.968750
vt 0.600586 0.946289
vt 0.920455 0.920099
vt 0.578125 0.323438
vt 0.567969 0.350000
vt 0.715625 0.421094
vt 0.152344 0.912500
vt 0.414062 0.919922
vt 0.414062 0.958008
vt 0.152344 0.912500
vt 0.414062 0.958008
vt 0.153125 0.940625
vt 0.414062 0.958008
vt 0.414062 0.919922
vt 0.600586 0.919922
vt 0.414062 0.958008
vt 0.600586 0.919922
vt 0.600586 0.946289
vt 0.600586 0.946289
vt 0.600586 0.919922
vt 0.920455 0.920099
vt 0.153906 0.964844
vt 0.153125 0.940625
vt 0.414062 0.958008
vt 0.153906 0.964844
vt 0.414062 0.958008
vt 0.414062 0.986328
vt 0.364844 0.198438
vt 0.353906 0.259375
vt 0.567969 0.350000
vt 0.364844 0.198438
vt 0.567969 0.350000
vt 0.578125 0.323438
vt 0.835938 0.834635
vt 0.850260 0.781250
vt 0.974609 0.917969
vt 0.218750 0.773438
vt 0.460938 0.753906
vt 0.460938 0.699219
vt 0.218750 0.773438
vt 0.460938 0.699219
vt 0.460938 0.699219
vt 0.265625 0.687500
vt 0.460938 0.699219
vt 0.460938 0.753906
vt 0.265625 0.687500
vt 0.460938 0.753906
vt 0.218750 0.773438
vt 0.564453 0.970703
vt 0.314752 0.933082
vt 0.564453 0.898438
vt 0.522461 0.455078
vt 0.855469 0.579590
vt 0.609375 0.589844
vt 0.522461 0.455078
vt 0.609375 0.589844
vt 0.354492 0.419434
vt 0.935547 0.923828
vt 0.560547 0.977539
vt 0.560547 0.890625
vt 0.218750 0.865885
vt 0.218750 0.773438
vt 0.460938 0.753906
vt 0.218750 0.865885
vt 0.460938 0.753906
vt 0.460938 0.813802
vt 0.244792 0.294271
vt 0.235677 0.334635
vt 0.106771 0.227865
vt 0.136719 0.511719
vt 0.082031 0.613281
vt 0.218750 0.773438
vt 0.835938 0.834635
vt 0.822917 0.861979
vt 0.974609 0.917969
vt 0.560547 0.890625
vt 0.560547 0.977539
vt 0.378906 0.988281
vt 0.560547 0.890625
vt 0.378906 0.988281
vt 0.378906 0.881836
vt 0.920455 0.920099
vt 0.600586 0.919922
vt 0.600586 0.946289
vt 0.460938 0.699219
vt 0.636719 0.712891
vt 0.460938 0.753906
vt 0.729492 0.019531
vt 0.729492 0.173828
vt 0.485026 0.152995
vt 0.974609 0.917969
vt 0.850260 0.781250
vt 0.835938 0.834635
vt 0.920455 0.920099
vt 0.600586 0.946289
vt 0.600852 0.968750
vt 0.218750 0.865885
vt 0.218750 0.773438
vt 0.082031 0.613281
vt 0.082031 0.613281
vt 0.218750 0.773438
vt 0.218750 0.865885
vt 0.104687 0.094531
vt 0.103906 0.201563
vt 0.353906 0.259375
vt 0.104687 0.094531
vt 0.353906 0.259375
vt 0.364844 0.198438
vt 0.485026 0.152995
vt 0.729492 0.173828
vt 0.729492 0.019531
vt 0.803385 0.665365
vt 0.635417 0.721354
vt 0.636719 0.740885
vt 0.974609 0.917969
vt 0.822917 0.861979
vt 0.835938 0.834635
vt 0.600586 0.946289
vt 0.600586 0.919922
vt 0.414062 0.919922
vt 0.600586 0.946289
vt 0.414062 0.919922
vt 0.414062 0.958008
vt 0.636719 0.740885
vt 0.635417 0.721354
vt 0.803385 0.665365
vt 0.083333 0.615885
vt 0.139323 0.718750
vt 0.136719 0.511719
vt 0.460938 0.753906
vt 0.636719 0.712891
vt 0.460938 0.699219
vt 0.153125 0.940625
vt 0.414062 0.958008
vt 0.414062 0.919922
vt 0.153125 0.940625
vt 0.414062 0.919922
vt 0.152344 0.912500
vt 0.106771 0.227865
vt 0.250000 0.250000
vt 0.244792 0.294271
vt 0.136719 0.511719
vt 0.139323 0.718750
vt 0.083333 0.615885
vt 0.460938 0.753906
vt 0.635417 0.721354
vt 0.636719 0.740885
vt 0.460938 0.753906
vt 0.636719 0.740885
vt 0.460938 0.813802
vt 0.371094 0.358073
vt 0.354492 0.419434
vt 0.235677 0.334635
vt 0.371094 0.358073
vt 0.235677 0.334635
vt 0.244792 0.294271
vt 0.218750 0.773438
vt 0.082031 0.613281
vt 0.136719 0.511719
vt 0.218750 0.773438
vt 0.136719 0.511719
vt 0.265625 0.687500
vt 0.210938 0.317383
vt 0.230078 0.289062
vt 0.110352 0.231445
vt 0.230078 0.289062
vt 0.210938 0.317383
vt 0.333008 0.403320
vt 0.230078 0.289062
vt 0.333008 0.403320
vt 0.364453 0.355469
vt 0.522461 0.455078
vt 0.354492 0.419434
vt 0.371094 0.358073
vt 0.460938 0.813802
vt 0.636719 0.740885
vt 0.635417 0.721354
vt 0.460938 0.813802
vt 0.635417 0.721354
vt 0.460938 0.753906
vt 0.218750 0.865885
vt 0.460938 0.813802
vt 0.460938 0.753906
vt 0.218750 0.865885
vt 0.460938 0.753906
vt 0.218750 0.773438
vt 0.600852 0.968750
vt 0.600586 0.946289
vt 0.414062 0.958008
vt 0.600852 0.968750
vt 0.414062 0.958008
vt 0.414418 0.987571
vt 0.414062 0.986328
vt 0.414062 0.958008
vt 0.153125 0.940625
vt 0.414062 0.986328
vt 0.153125 0.940625
vt 0.153906 0.964844
vn 0.538294 0.532717 -0.653033
vn 0.892477 0.414361 -0.178298
vn 0.810684 0.208809 -0.546983
vn 0.752181 0.658940 0.004662
vn 0.608066 0.793799 -0.011814
vn 0.600059 0.778991 -0.181941
vn 0.752181 0.658940 0.004662
vn 0.600059 0.778991 -0.181941
vn 0.509376 0.843111 -0.172339
vn 0.509376 0.843111 -0.172339
vn 0.600059 0.778991 -0.181941
vn 0.587529 0.770870 -0.246108
vn 0.837369 0.402839 0.369504
vn 0.837369 0.402839 0.369504
vn 0.822967 0.437440 0.362452
vn 0.705727 0.702520 0.091735
vn 0.707171 0.706946 -0.011672
vn 0.608066 0.793799 -0.011814
vn 0.705727 0.702520 0.091735
vn 0.608066 0.793799 -0.011814
vn 0.599325 0.795012 0.093625
vn 0.608066 0.793799 -0.011814
vn 0.707171 0.706946 -0.011672
vn 0.683392 0.705085 -0.189290
vn 0.608066 0.793799 -0.011814
vn 0.683392 0.705085 -0.189290
vn 0.600059 0.778991 -0.181941
vn 0.600059 0.778991 -0.181941
vn 0.683392 0.705085 -0.189290
vn 0.587529 0.770870 -0.246108
vn 0.854282 0.514420 0.074658
vn 0.599325 0.795012 0.093625
vn 0.608066 0.793799 -0.011814
vn 0.854282 0.514420 0.074658
vn 0.608066 0.793799 -0.011814
vn 0.752181 0.658940 0.004662
vn 0.850392 0.319973 0.417674
vn 0.850392 0.319973 0.417674
vn 0.837369 0.402839 0.369504
vn 0.850392 0.319973 0.417674
vn 0.837369 0.402839 0.369504
vn 0.837369 0.402839 0.369504
vn 0.311504 -0.700694 -0.641867
vn 0.523280 -0.571217 -0.632367
vn 0.341657 0.058431 -0.938007
vn -0.619079 0.460088 -0.636443
vn -0.628782 -0.052815 -0.775786
vn -0.559481 -0.056769 -0.826897
vn -0.619079 0.460088 -0.636443
vn -0.559481 -0.056769 -0.826897
vn -0.810684 0.208809 -0.546983
vn 0.810684 0.208809 -0.546983
vn 0.559481 -0.056769 -0.826897
vn 0.628782 -0.052815 -0.775786
vn 0.810684 0.208809 -0.546983
vn 0.628782 -0.052815 -0.775786
vn 0.538294 0.532717 -0.653033
vn -0.810684 0.208809 -0.546983
vn -0.892476 0.414362 -0.178298
vn -0.619079 0.460088 -0.636443
vn 0.748102 -0.435996 -0.500251
vn 0.980410 0.063516 -0.186445
vn 0.980410 0.063516 -0.186445
vn 0.748102 -0.435996 -0.500251
vn 0.980410 0.063516 -0.186445
vn 0.973217 0.209143 -0.095436
vn 0.970977 -0.125505 0.203597
vn 0.987118 -0.101828 0.123406
vn 0.987118 -0.101828 0.123406
vn 0.638693 0.453422 -0.621675
vn 0.538294 0.532717 -0.653033
vn 0.628782 -0.052815 -0.775786
vn 0.638693 0.453422 -0.621675
vn 0.628782 -0.052815 -0.775786
vn 0.693511 -0.048462 -0.718814
vn 0.942462 -0.332322 0.036441
vn 0.985445 0.070709 0.154591
vn 0.910262 -0.364411 0.196541
vn -0.369300 -0.184446 -0.910822
vn -0.342154 0.603946 -0.719847
vn -0.619079 0.460088 -0.636443
vn -0.311507 -0.700693 -0.641867
vn -0.312131 -0.433981 -0.845124
vn -0.369300 -0.184446 -0.910822
vn 0.987118 -0.101828 0.123406
vn 0.987118 -0.101828 0.123406
vn 0.996100 -0.077413 0.042320
vn 0.987118 -0.101828 0.123406
vn 0.996100 -0.077413 0.042320
vn 0.996100 -0.077413 0.042320
vn -0.587680 0.771100 -0.245025
vn -0.683436 0.705121 -0.188996
vn -0.600113 0.779078 -0.181391
vn 0.559481 -0.056769 -0.826897
vn 0.000000 -0.182953 -0.983122
vn 0.628782 -0.052815 -0.775786
vn 0.999170 0.019615 0.035703
vn 0.854282 0.514420 0.074658
vn 0.752181 0.658940 0.004662
vn -0.369300 -0.184446 -0.910822
vn -0.523283 -0.571215 -0.632367
vn -0.311507 -0.700693 -0.641867
vn -0.587680 0.771100 -0.245025
vn -0.600113 0.779078 -0.181391
vn -0.509437 0.843237 -0.171538
vn -0.638693 0.453422 -0.621675
vn -0.619079 0.460088 -0.636443
vn -0.342154 0.603946 -0.719847
vn 0.342154 0.603947 -0.719847
vn 0.538294 0.532717 -0.653033
vn 0.638693 0.453422 -0.621675
vn 0.846821 0.271010 0.457654
vn 0.846821 0.271010 0.457654
vn 0.850392 0.319973 0.417674
vn 0.846821 0.271010 0.457654
vn 0.850392 0.319973 0.417674
vn 0.850392 0.319973 0.417674
vn -0.752181 0.658940 0.004662
vn -0.854282 0.514420 0.074659
vn -0.999170 0.019615 0.035704
vn 0.000001 -0.320280 -0.947323
vn 0.000000 -0.182953 -0.983122
vn -0.556842 -0.189879 -0.808624
vn 0.341657 0.058431 -0.938007
vn 0.312130 -0.433980 -0.845125
vn 0.311504 -0.700694 -0.641867
vn -0.600113 0.779078 -0.181391
vn -0.683436 0.705121 -0.188996
vn -0.707171 0.706946 -0.011672
vn -0.600113 0.779078 -0.181391
vn -0.707171 0.706946 -0.011672
vn -0.608066 0.793799 -0.011814
vn 0.556843 -0.189879 -0.808624
vn 0.000000 -0.182953 -0.983122
vn 0.000001 -0.320280 -0.947323
vn 0.342154 0.603947 -0.719847
vn 0.312130 -0.433980 -0.845125
vn 0.341657 0.058431 -0.938007
vn -0.628782 -0.052815 -0.775786
vn 0.000000 -0.182953 -0.983122
vn -0.559481 -0.056769 -0.826897
vn -0.599325 0.795012 0.093625
vn -0.608066 0.793799 -0.011814
vn -0.707171 0.706946 -0.011672
vn -0.599325 0.795012 0.093625
vn -0.707171 0.706946 -0.011672
vn -0.705727 0.702520 0.091735
vn 0.910262 -0.364411 0.196541
vn 0.782993 -0.609252 -0.125434
vn 0.942462 -0.332322 0.036441
vn -0.369300 -0.184446 -0.910822
vn -0.312131 -0.433981 -0.845124
vn -0.342154 0.603946 -0.719847
vn 0.628782 -0.052815 -0.775786
vn 0.000000 -0.182953 -0.983122
vn 0.556843 -0.189879 -0.808624
vn 0.628782 -0.052815 -0.775786
vn 0.556843 -0.189879 -0.808624
vn 0.693511 -0.048462 -0.718814
vn 0.975025 -0.111076 -0.192322
vn 0.973217 0.209143 -0.095436
vn 0.985445 0.070709 0.154591
vn 0.975025 -0.111076 -0.192322
vn 0.985445 0.070709 0.154591
vn 0.942462 -0.332322 0.036441
vn 0.538294 0.532717 -0.653033
vn 0.342154 0.603947 -0.719847
vn 0.341657 0.058431 -0.938007
vn 0.538294 0.532717 -0.653033
vn 0.341657 0.058431 -0.938007
vn 0.116498 0.767090 -0.630873
vn -0.276278 0.775585 0.567573
vn -0.276278 0.775585 0.567573
vn -0.285400 0.784374 0.550730
vn -0.276278 0.775585 0.567573
vn -0.276278 0.775585 0.567573
vn -0.267033 0.766450 0.584164
vn -0.276278 0.775585 0.567573
vn -0.267033 0.766450 0.584164
vn -0.267033 0.766450 0.584164
vn 0.748102 -0.435996 -0.500251
vn 0.973217 0.209143 -0.095436
vn 0.975025 -0.111076 -0.192322
vn -0.693511 -0.048462 -0.718815
vn -0.556842 -0.189879 -0.808624
vn 0.000000 -0.182953 -0.983122
vn -0.693511 -0.048462 -0.718815
vn 0.000000 -0.182953 -0.983122
vn -0.628782 -0.052815 -0.775786
vn -0.638693 0.453422 -0.621675
vn -0.693511 -0.048462 -0.718815
vn -0.628782 -0.052815 -0.775786
vn -0.638693 0.453422 -0.621675
vn -0.628782 -0.052815 -0.775786
vn -0.619079 0.460088 -0.636443
vn -0.509437 0.843237 -0.171538
vn -0.600113 0.779078 -0.181391
vn -0.608066 0.793799 -0.011814
vn -0.509437 0.843237 -0.171538
vn -0.608066 0.793799 -0.011814
vn -0.752181 0.658940 0.004662
vn -0.752181 0.658940 0.004662
vn -0.608066 0.793799 -0.011814
vn -0.599325 0.795012 0.093625
vn -0.752181 0.658940 0.004662
vn -0.599325 0.795012 0.093625
vn -0.854282 0.514420 0.074659
f 38/1/1 37/2/2 55/3/3
f 4/4/4 9/5/5 10/6/6
f 4/7/7 10/8/8 5/9/9
f 5/10/10 10/11/11 1/12/12
f 15/13/13 29/14/14 19/15/15
f 6/16/16 11/17/17 9/18/18
f 6/19/19 9/20/20 8/21/21
f 9/22/22 11/23/23 2/24/24
f 9/25/25 2/26/26 10/27/27
f 10/28/28 2/29/29 1/30/30
f 7/31/31 8/32/32 9/33/33
f 7/34/34 9/35/35 4/36/36
f 23/37/37 22/38/38 29/39/39
f 23/40/40 29/41/41 15/42/42
f 27/43/43 20/44/44 31/45/45
f 34/46/46 26/47/47 18/48/48
f 34/49/49 18/50/50 55/51/51
f 55/52/52 18/53/53 36/54/54
f 55/55/55 36/56/56 38/57/57
f 55/58/58 37/59/59 34/60/60
f 39/61/61 3/62/62 12/63/63
f 39/64/64 12/65/65 43/66/66
f 46/67/67 49/68/68 48/69/69
f 30/70/70 38/71/71 36/72/72
f 30/73/73 36/74/74 22/75/75
f 41/76/76 44/77/77 42/78/78
f 31/79/79 28/80/80 34/81/81
f 17/82/82 32/83/83 31/84/84
f 48/85/85 49/86/86 28/87/87
f 48/88/88 28/89/89 32/90/90
f 46/91/91 47/92/92 53/93/93
f 18/94/94 35/95/95 36/96/96
f 30/97/97 7/98/98 4/99/99
f 31/100/100 20/101/101 17/102/102
f 46/103/103 53/104/104 49/105/105
f 24/106/106 34/107/107 28/108/108
f 4/109/109 38/110/110 30/111/111
f 14/112/112 30/113/113 22/114/114
f 14/115/115 22/116/116 23/117/117
f 28/118/118 25/119/119 24/120/120
f 19/121/121 35/122/122 21/123/123
f 31/124/124 3/125/125 27/126/126
f 53/127/127 47/128/128 54/129/129
f 53/130/130 54/131/131 52/132/132
f 29/133/133 35/134/134 19/135/135
f 4/136/136 3/137/137 31/138/138
f 26/139/139 35/140/140 18/141/141
f 51/142/142 52/143/143 54/144/144
f 51/145/145 54/146/146 50/147/147
f 42/148/148 40/149/149 41/150/150
f 31/151/151 32/152/152 28/153/153
f 36/154/154 35/155/155 29/156/156
f 36/157/157 29/158/158 22/159/159
f 33/160/160 43/161/161 44/162/162
f 33/163/163 44/164/164 41/165/165
f 38/166/166 4/167/167 31/168/168
f 38/169/169 31/170/170 56/171/171
f 44/172/172 16/173/173 42/174/174
f 16/175/175 44/176/176 43/177/177
f 16/178/178 43/179/179 45/180/180
f 39/181/181 43/182/182 33/183/183
f 13/184/184 21/185/185 35/186/186
f 13/187/187 35/188/188 26/189/189
f 24/190/190 13/191/191 26/192/192
f 24/193/193 26/194/194 34/195/195
f 49/196/196 53/197/197 52/198/198
f 49/199/199 52/200/200 28/201/201
f 28/202/202 52/203/203 51/204/204
f 28/205/205 51/206/206 25/207/207
