v 0.967996 0.000027 0.039070
v 0.000136 0.000027 0.037095
v 1.070778 0.049731 0.039280
v 0.949469 0.000027 0.225571
v 0.894458 0.000027 0.407155
v 0.805079 0.000027 0.574518
v 0.684767 0.000027 0.721228
v 0.538144 0.000027 0.841648
v 0.370845 0.000027 0.931148
v 0.189301 0.000027 0.986291
v 0.000488 0.000027 1.004957
v -0.967725 0.000027 0.037447
v -1.070507 0.049731 0.037484
v 0.000525 0.049731 1.107739
v 0.209390 0.049731 1.087091
v 0.410213 0.049731 1.026092
v 0.595277 0.049731 0.927087
v 0.757471 0.049731 0.793880
v 0.890560 0.049731 0.631590
v 0.989430 0.049731 0.446454
v 1.050595 0.050211 0.245648
v -0.963991 0.049731 1.107738
v -1.070508 0.049731 1.006404
v -0.969309 0.000027 0.891393
v -0.862340 0.000027 1.006214
v -0.932076 0.000027 0.968154
v -1.033547 0.049731 1.073371
v 0.967996 0.000027 -0.036674
v 0.000136 0.000027 -0.034699
v 1.070778 0.049731 -0.036883
v 0.949469 0.000027 -0.223174
v 0.894458 0.000027 -0.404759
v 0.805079 0.000027 -0.572122
v 0.684766 0.000027 -0.718832
v 0.538144 0.000027 -0.839252
v 0.370845 0.000027 -0.928752
v 0.189301 0.000027 -0.983895
v 0.000488 0.000027 -1.002561
v -0.967725 0.000027 -0.035050
v -1.070507 0.049731 -0.035087
v 0.000525 0.049731 -1.105343
v 0.209390 0.049731 -1.084695
v 0.410213 0.049731 -1.023696
v 0.595277 0.049731 -0.924691
v 0.757470 0.049731 -0.791484
v 0.890560 0.049731 -0.629194
v 0.989430 0.049731 -0.444057
v 1.050595 0.050211 -0.243251
v -0.963991 0.049731 -1.105342
v -1.070508 0.049731 -1.004008
v -0.969309 0.000027 -0.888996
v -0.862340 0.000027 -1.003817
v -0.932076 0.000027 -0.965757
v -1.033547 0.049731 -1.070975
vt 0.935421 0.000000
vt 0.902889 0.000000
vt 0.500543 0.000000
vt 0.032715 0.001952
vt 0.468750 0.002604
vt 0.497082 0.326172
vt 0.032715 0.001952
vt 0.497082 0.326172
vt 0.000965 0.326172
vt 0.497082 0.326172
vt 0.000965 0.326172
vt 0.032715 0.001952
vt 0.497082 0.326172
vt 0.032715 0.001952
vt 0.468750 0.002604
vt 0.902889 0.000000
vt 0.500379 0.000000
vt 0.500543 0.000000
vt 0.497082 0.326172
vt 0.000965 0.326172
vt 0.032715 0.001952
vt 0.497082 0.326172
vt 0.032715 0.001952
vt 0.468750 0.002604
vt 0.500543 0.000000
vt 0.125036 0.000000
vt 0.083340 0.000000
vt 0.083340 0.000000
vt 0.057678 0.000000
vt 0.500543 0.000000
vt 0.500543 0.000000
vt 0.057678 0.000000
vt 0.049035 0.000000
vt 0.997082 0.326172
vt 0.500965 0.326172
vt 0.532715 0.001952
vt 0.997082 0.326172
vt 0.532715 0.001952
vt 0.968750 0.002604
vt 0.500543 0.000000
vt 0.952790 0.000000
vt 0.935421 0.000000
vt 0.500379 0.000000
vt 0.412297 0.000000
vt 0.500543 0.000000
vt 0.468750 0.002604
vt 0.497082 0.326172
vt 0.000965 0.326172
vt 0.468750 0.002604
vt 0.000965 0.326172
vt 0.032715 0.001952
vt 0.500543 0.000000
vt 0.952052 0.000000
vt 0.952790 0.000000
vt 0.532715 0.001952
vt 0.968750 0.002604
vt 0.997082 0.326172
vt 0.532715 0.001952
vt 0.997082 0.326172
vt 0.500965 0.326172
vt 0.032715 0.001952
vt 0.468750 0.002604
vt 0.497082 0.326172
vt 0.032715 0.001952
vt 0.497082 0.326172
vt 0.000965 0.326172
vt 0.327606 0.000000
vt 0.249562 0.000000
vt 0.500543 0.000000
vt 0.500543 0.000000
vt 0.249562 0.000000
vt 0.181162 0.000000
vt 0.181162 0.000000
vt 0.125036 0.000000
vt 0.500543 0.000000
vt 0.500543 0.000000
vt 0.412297 0.000000
vt 0.327606 0.000000
vt 0.032715 0.001952
vt 0.468750 0.002604
vt 0.497082 0.326172
vt 0.032715 0.001952
vt 0.497082 0.326172
vt 0.000965 0.326172
vt 0.532715 0.001952
vt 0.968750 0.002604
vt 0.997082 0.326172
vt 0.532715 0.001952
vt 0.997082 0.326172
vt 0.500965 0.326172
vt 0.032715 0.001952
vt 0.468750 0.002604
vt 0.497082 0.326172
vt 0.032715 0.001952
vt 0.497082 0.326172
vt 0.000965 0.326172
vt 0.468750 0.002604
vt 0.497082 0.326172
vt 0.000965 0.326172
vt 0.468750 0.002604
vt 0.000965 0.326172
vt 0.032715 0.001952
vt 0.968750 0.002604
vt 0.997082 0.326172
vt 0.500965 0.326172
vt 0.968750 0.002604
vt 0.500965 0.326172
vt 0.532715 0.001952
vt 0.500543 0.000000
vt 0.902889 0.000000
vt 0.935421 0.000000
vt 0.000965 0.326172
vt 0.497082 0.326172
vt 0.468750 0.002604
vt 0.000965 0.326172
vt 0.468750 0.002604
vt 0.032715 0.001952
vt 0.468750 0.002604
vt 0.032715 0.001952
vt 0.000965 0.326172
vt 0.468750 0.002604
vt 0.000965 0.326172
vt 0.497082 0.326172
vt 0.500543 0.000000
vt 0.500379 0.000000
vt 0.902889 0.000000
vt 0.468750 0.002604
vt 0.032715 0.001952
vt 0.000965 0.326172
vt 0.468750 0.002604
vt 0.000965 0.326172
vt 0.497082 0.326172
vt 0.083340 0.000000
vt 0.125036 0.000000
vt 0.500543 0.000000
vt 0.500543 0.000000
vt 0.057678 0.000000
vt 0.083340 0.000000
vt 0.049035 0.000000
vt 0.057678 0.000000
vt 0.500543 0.000000
vt 0.968750 0.002604
vt 0.532715 0.001952
vt 0.500965 0.326172
vt 0.968750 0.002604
vt 0.500965 0.326172
vt 0.997082 0.326172
vt 0.935421 0.000000
vt 0.952790 0.000000
vt 0.500543 0.000000
vt 0.500543 0.000000
vt 0.412297 0.000000
vt 0.500379 0.000000
vt 0.032715 0.001952
vt 0.000965 0.326172
vt 0.497082 0.326172
vt 0.032715 0.001952
vt 0.497082 0.326172
vt 0.468750 0.002604
vt 0.952790 0.000000
vt 0.952052 0.000000
vt 0.500543 0.000000
vt 0.500965 0.326172
vt 0.997082 0.326172
vt 0.968750 0.002604
vt 0.500965 0.326172
vt 0.968750 0.002604
vt 0.532715 0.001952
vt 0.000965 0.326172
vt 0.497082 0.326172
vt 0.468750 0.002604
vt 0.000965 0.326172
vt 0.468750 0.002604
vt 0.032715 0.001952
vt 0.500543 0.000000
vt 0.249562 0.000000
vt 0.327606 0.000000
vt 0.181162 0.000000
vt 0.249562 0.000000
vt 0.500543 0.000000
vt 0.500543 0.000000
vt 0.125036 0.000000
vt 0.181162 0.000000
vt 0.327606 0.000000
vt 0.412297 0.000000
vt 0.500543 0.000000
vt 0.000965 0.326172
vt 0.497082 0.326172
vt 0.468750 0.002604
vt 0.000965 0.326172
vt 0.468750 0.002604
vt 0.032715 0.001952
vt 0.500965 0.326172
vt 0.997082 0.326172
vt 0.968750 0.002604
vt 0.500965 0.326172
vt 0.968750 0.002604
vt 0.532715 0.001952
vt 0.000965 0.326172
vt 0.497082 0.326172
vt 0.468750 0.002604
vt 0.000965 0.326172
vt 0.468750 0.002604
vt 0.032715 0.001952
vt 0.032715 0.001952
vt 0.000965 0.326172
vt 0.497082 0.326172
vt 0.032715 0.001952
vt 0.497082 0.326172
vt 0.468750 0.002604
vt 0.532715 0.001952
vt 0.500965 0.326172
vt 0.997082 0.326172
vt 0.532715 0.001952
vt 0.997082 0.326172
vt 0.968750 0.002604
vn 0.114829 0.986712 -0.114950
vn 0.039723 0.981295 -0.188367
vn 0.000000 1.000000 0.000000
vn 0.114829 0.986712 -0.114950
vn 0.187653 0.981462 -0.038973
vn 0.369366 0.926112 -0.076712
vn 0.114829 0.986712 -0.114950
vn 0.369366 0.926112 -0.076712
vn 0.227180 0.946927 -0.227419
vn 0.227180 0.946927 -0.227419
vn 0.078173 0.925457 -0.370700
vn 0.039723 0.981295 -0.188367
vn 0.227180 0.946927 -0.227419
vn 0.039723 0.981295 -0.188367
vn 0.114829 0.986712 -0.114950
vn 0.039723 0.981295 -0.188367
vn -0.011108 0.974557 -0.223866
vn 0.000000 1.000000 0.000000
vn 0.078173 0.925457 -0.370700
vn -0.021654 0.899498 -0.436388
vn -0.011108 0.974557 -0.223866
vn 0.078173 0.925457 -0.370700
vn -0.011108 0.974557 -0.223866
vn 0.039723 0.981295 -0.188367
vn 0.000000 1.000000 0.000000
vn -0.185640 0.974770 -0.123943
vn -0.206609 0.974702 -0.085258
vn -0.206609 0.974702 -0.085258
vn -0.219562 0.974618 -0.043731
vn 0.000000 1.000000 0.000000
vn 0.000000 1.000000 0.000000
vn -0.219562 0.974618 -0.043731
vn -0.223705 0.974395 -0.022606
vn -0.428157 0.899672 -0.085278
vn -0.435954 0.898890 -0.044054
vn -0.223705 0.974395 -0.022606
vn -0.428157 0.899672 -0.085278
vn -0.223705 0.974395 -0.022606
vn -0.219562 0.974618 -0.043731
vn 0.000000 1.000000 0.000000
vn 0.187653 0.981462 -0.038973
vn 0.114829 0.986712 -0.114950
vn -0.011108 0.974557 -0.223866
vn -0.043626 0.974770 -0.218908
vn 0.000000 1.000000 0.000000
vn 0.224890 0.974384 0.000195
vn 0.438258 0.898849 0.000381
vn 0.369366 0.926112 -0.076712
vn 0.224890 0.974384 0.000195
vn 0.369366 0.926112 -0.076712
vn 0.187653 0.981462 -0.038973
vn 0.000000 1.000000 0.000000
vn 0.224890 0.974384 0.000195
vn 0.187653 0.981462 -0.038973
vn -0.043626 0.974770 -0.218908
vn -0.011108 0.974557 -0.223866
vn -0.021654 0.899498 -0.436388
vn -0.043626 0.974770 -0.218908
vn -0.021654 0.899498 -0.436388
vn -0.085088 0.900260 -0.426956
vn -0.085495 0.974770 -0.206191
vn -0.043626 0.974770 -0.218908
vn -0.085088 0.900260 -0.426956
vn -0.085495 0.974770 -0.206191
vn -0.085088 0.900260 -0.426956
vn -0.166748 0.900260 -0.402153
vn -0.085495 0.974770 -0.206191
vn -0.124078 0.974770 -0.185550
vn 0.000000 1.000000 0.000000
vn 0.000000 1.000000 0.000000
vn -0.124078 0.974770 -0.185550
vn -0.157893 0.974770 -0.157778
vn -0.157893 0.974770 -0.157778
vn -0.185640 0.974770 -0.123943
vn 0.000000 1.000000 0.000000
vn 0.000000 1.000000 0.000000
vn -0.043626 0.974770 -0.218908
vn -0.085495 0.974770 -0.206191
vn -0.219562 0.974618 -0.043731
vn -0.206609 0.974702 -0.085258
vn -0.402942 0.899994 -0.166276
vn -0.219562 0.974618 -0.043731
vn -0.402942 0.899994 -0.166276
vn -0.428157 0.899672 -0.085278
vn -0.206609 0.974702 -0.085258
vn -0.185640 0.974770 -0.123943
vn -0.362070 0.900260 -0.241737
vn -0.206609 0.974702 -0.085258
vn -0.362070 0.900260 -0.241737
vn -0.402942 0.899994 -0.166276
vn -0.185640 0.974770 -0.123943
vn -0.157893 0.974770 -0.157778
vn -0.307952 0.900260 -0.307728
vn -0.185640 0.974770 -0.123943
vn -0.307952 0.900260 -0.307728
vn -0.362070 0.900260 -0.241737
vn -0.124078 0.974770 -0.185550
vn -0.242000 0.900260 -0.361895
vn -0.307952 0.900260 -0.307728
vn -0.124078 0.974770 -0.185550
vn -0.307952 0.900260 -0.307728
vn -0.157893 0.974770 -0.157778
vn -0.085495 0.974770 -0.206191
vn -0.166748 0.900260 -0.402153
vn -0.242000 0.900260 -0.361895
vn -0.085495 0.974770 -0.206191
vn -0.242000 0.900260 -0.361895
vn -0.124078 0.974770 -0.185550
vn 0.000000 1.000000 0.000000
vn 0.039723 0.981295 0.188367
vn 0.114829 0.986712 0.114950
vn 0.227180 0.946927 0.227419
vn 0.369366 0.926112 0.076712
vn 0.187653 0.981462 0.038973
vn 0.227180 0.946927 0.227419
vn 0.187653 0.981462 0.038973
vn 0.114829 0.986712 0.114950
vn 0.114829 0.986712 0.114950
vn 0.039723 0.981295 0.188367
vn 0.078173 0.925457 0.370700
vn 0.114829 0.986712 0.114950
vn 0.078173 0.925457 0.370700
vn 0.227180 0.946927 0.227419
vn 0.000000 1.000000 0.000000
vn -0.011108 0.974557 0.223866
vn 0.039723 0.981295 0.188367
vn 0.039723 0.981295 0.188367
vn -0.011108 0.974557 0.223866
vn -0.021654 0.899498 0.436388
vn 0.039723 0.981295 0.188367
vn -0.021654 0.899498 0.436388
vn 0.078173 0.925457 0.370700
vn -0.206609 0.974702 0.085258
vn -0.185640 0.974770 0.123943
vn 0.000000 1.000000 0.000000
vn 0.000000 1.000000 0.000000
vn -0.219562 0.974618 0.043731
vn -0.206609 0.974702 0.085258
vn -0.223705 0.974395 0.022606
vn -0.219562 0.974618 0.043731
vn 0.000000 1.000000 0.000000
vn -0.219562 0.974618 0.043731
vn -0.223705 0.974395 0.022606
vn -0.435954 0.898890 0.044054
vn -0.219562 0.974618 0.043731
vn -0.435954 0.898890 0.044054
vn -0.428157 0.899672 0.085278
vn 0.114829 0.986712 0.114950
vn 0.187653 0.981462 0.038973
vn 0.000000 1.000000 0.000000
vn 0.000000 1.000000 0.000000
vn -0.043626 0.974770 0.218908
vn -0.011108 0.974557 0.223866
vn 0.187653 0.981462 0.038973
vn 0.369366 0.926112 0.076712
vn 0.438258 0.898849 -0.000381
vn 0.187653 0.981462 0.038973
vn 0.438258 0.898849 -0.000381
vn 0.224890 0.974384 -0.000196
vn 0.187653 0.981462 0.038973
vn 0.224890 0.974384 -0.000196
vn 0.000000 1.000000 0.000000
vn -0.085088 0.900260 0.426956
vn -0.021654 0.899498 0.436388
vn -0.011108 0.974557 0.223866
vn -0.085088 0.900260 0.426956
vn -0.011108 0.974557 0.223866
vn -0.043626 0.974770 0.218908
vn -0.166748 0.900260 0.402153
vn -0.085088 0.900260 0.426956
vn -0.043626 0.974770 0.218908
vn -0.166748 0.900260 0.402153
vn -0.043626 0.974770 0.218908
vn -0.085495 0.974770 0.206191
vn 0.000000 1.000000 0.000000
vn -0.124078 0.974770 0.185550
vn -0.085495 0.974770 0.206191
vn -0.157893 0.974770 0.157778
vn -0.124078 0.974770 0.185550
vn 0.000000 1.000000 0.000000
vn 0.000000 1.000000 0.000000
vn -0.185640 0.974770 0.123943
vn -0.157893 0.974770 0.157778
vn -0.085495 0.974770 0.206191
vn -0.043626 0.974770 0.218908
vn 0.000000 1.000000 0.000000
vn -0.428157 0.899672 0.085278
vn -0.402943 0.899994 0.166276
vn -0.206609 0.974702 0.085258
vn -0.428157 0.899672 0.085278
vn -0.206609 0.974702 0.085258
vn -0.219562 0.974618 0.043731
vn -0.402943 0.899994 0.166276
vn -0.362070 0.900261 0.241737
vn -0.185640 0.974770 0.123943
vn -0.402943 0.899994 0.166276
vn -0.185640 0.974770 0.123943
vn -0.206609 0.974702 0.085258
vn -0.362070 0.900261 0.241737
vn -0.307952 0.900260 0.307728
vn -0.157893 0.974770 0.157778
vn -0.362070 0.900261 0.241737
vn -0.157893 0.974770 0.157778
vn -0.185640 0.974770 0.123943
vn -0.157893 0.974770 0.157778
vn -0.307952 0.900260 0.307728
vn -0.242000 0.900260 0.361895
vn -0.157893 0.974770 0.157778
vn -0.242000 0.900260 0.361895
vn -0.124078 0.974770 0.185550
vn -0.124078 0.974770 0.185550
vn -0.242000 0.900260 0.361895
vn -0.166748 0.900260 0.402153
vn -0.124078 0.974770 0.185550
vn -0.166748 0.900260 0.402153
vn -0.085495 0.974770 0.206191
f 26/1/1 25/2/2 2/3/3
f 26/4/4 24/5/5 23/6/6
f 26/7/7 23/8/8 27/9/9
f 27/10/10 22/11/11 25/12/12
f 27/13/13 25/14/14 26/15/15
f 25/16/16 11/17/17 2/18/18
f 22/19/19 14/20/20 11/21/21
f 22/22/22 11/23/23 25/24/24
f 2/25/25 6/26/26 5/27/27
f 5/28/28 4/29/29 2/30/30
f 2/31/31 4/32/32 1/33/33
f 21/34/34 3/35/35 1/36/36
f 21/37/37 1/38/38 4/39/39
f 2/40/40 24/41/41 26/42/42
f 11/43/43 10/44/44 2/45/45
f 12/46/46 13/47/47 23/48/48
f 12/49/49 23/50/50 24/51/51
f 2/52/52 12/53/53 24/54/54
f 10/55/55 11/56/56 14/57/57
f 10/58/58 14/59/59 15/60/60
f 9/61/61 10/62/62 15/63/63
f 9/64/64 15/65/65 16/66/66
f 9/67/67 8/68/68 2/69/69
f 2/70/70 8/71/71 7/72/72
f 7/73/73 6/74/74 2/75/75
f 2/76/76 10/77/77 9/78/78
f 4/79/79 5/80/80 20/81/81
f 4/82/82 20/83/83 21/84/84
f 5/85/85 6/86/86 19/87/87
f 5/88/88 19/89/89 20/90/90
f 6/91/91 7/92/92 18/93/93
f 6/94/94 18/95/95 19/96/96
f 8/97/97 17/98/98 18/99/99
f 8/100/100 18/101/101 7/102/102
f 9/103/103 16/104/104 17/105/105
f 9/106/106 17/107/107 8/108/108
f 29/109/109 52/110/110 53/111/111
f 54/112/112 50/113/113 51/114/114
f 54/115/115 51/116/116 53/117/117
f 53/118/118 52/119/119 49/120/120
f 53/121/121 49/122/122 54/123/123
f 29/124/124 38/125/125 52/126/126
f 52/127/127 38/128/128 41/129/129
f 52/130/130 41/131/131 49/132/132
f 32/133/133 33/134/134 29/135/135
f 29/136/136 31/137/137 32/138/138
f 28/139/139 31/140/140 29/141/141
f 31/142/142 28/143/143 30/144/144
f 31/145/145 30/146/146 48/147/147
f 53/148/148 51/149/149 29/150/150
f 29/151/151 37/152/152 38/153/153
f 51/154/154 50/155/155 40/156/156
f 51/157/157 40/158/158 39/159/159
f 51/160/160 39/161/161 29/162/162
f 42/163/163 41/164/164 38/165/165
f 42/166/166 38/167/167 37/168/168
f 43/169/169 42/170/170 37/171/171
f 43/172/172 37/173/173 36/174/174
f 29/175/175 35/176/176 36/177/177
f 34/178/178 35/179/179 29/180/180
f 29/181/181 33/182/182 34/183/183
f 36/184/184 37/185/185 29/186/186
f 48/187/187 47/188/188 32/189/189
f 48/190/190 32/191/191 31/192/192
f 47/193/193 46/194/194 33/195/195
f 47/196/196 33/197/197 32/198/198
f 46/199/199 45/200/200 34/201/201
f 46/202/202 34/203/203 33/204/204
f 34/205/205 45/206/206 44/207/207
f 34/208/208 44/209/209 35/210/210
f 35/211/211 44/212/212 43/213/213
f 35/214/214 43/215/215 36/216/216
