v -1.925447 1.481905 -6.567274
v 2.701172 -2.624532 -7.150694
v 0.549294 -3.732279 0.506129
v 3.129337 3.295583 -5.760023
v 4.917373 5.582820 -3.311018
v -3.597432 5.038902 -2.441299
v -1.853942 5.330368 1.856221
v 2.304380 0.392478 4.320819
v -1.828283 -0.711965 -0.144137
vt 0.000000 0.000000
vt 0.000000 0.000000
vt 0.000000 0.000000
vt 0.000000 0.000000
vt 0.000000 0.000000
vt 0.000000 0.000000
vt 0.000000 0.000000
vt 0.000000 0.000000
vt 0.000000 0.000000
vt 0.000000 0.000000
vt 0.000000 0.000000
vt 0.000000 0.000000
vt 0.000000 0.000000
vt 0.000000 0.000000
vt 0.000000 0.000000
vt 0.000000 0.000000
vt 0.000000 0.000000
vt 0.000000 0.000000
vt 0.000000 0.000000
vt 0.000000 0.000000
vt 0.000000 0.000000
vt 0.000000 0.000000
vt 0.000000 0.000000
vt 0.000000 0.000000
vt 0.000000 0.000000
vt 0.000000 0.000000
vt 0.000000 0.000000
vt 0.000000 0.000000
vt 0.000000 0.000000
vt 0.000000 0.000000
vt 0.000000 0.000000
vt 0.000000 0.000000
vt 0.000000 0.000000
vt 0.000000 0.000000
vt 0.000000 0.000000
vt 0.000000 0.000000
vt 0.000000 0.000000
vt 0.000000 0.000000
vt 0.000000 0.000000
vt 0.000000 0.000000
vt 0.000000 0.000000
vt 0.000000 0.000000
vn 0.163894 0.517348 -0.839934
vn 0.778921 -0.011145 -0.627023
vn -0.038855 0.494712 -0.868188
vn 0.778921 -0.011145 -0.627023
vn 0.163894 0.517348 -0.839934
vn 0.840230 0.523577 -0.140995
vn -0.639800 -0.357132 0.680524
vn -0.663726 -0.295066 0.687317
vn -0.865360 -0.453210 0.213898
vn -0.816731 -0.184470 0.546738
vn -0.960430 -0.237054 0.146214
vn -0.865360 -0.453210 0.213898
vn -0.116164 0.872108 -0.475324
vn 0.163894 0.517348 -0.839934
vn -0.038855 0.494712 -0.868188
vn -0.116164 0.872108 -0.475324
vn 0.204820 0.927168 0.313701
vn 0.840230 0.523577 -0.140995
vn 0.840230 0.523577 -0.140995
vn 0.163894 0.517348 -0.839934
vn -0.116164 0.872108 -0.475324
vn -0.865360 -0.453210 0.213898
vn -0.960430 -0.237054 0.146214
vn -0.826178 -0.536872 -0.170875
vn -0.865360 -0.453210 0.213898
vn -0.663726 -0.295066 0.687317
vn -0.816731 -0.184470 0.546738
vn 0.840230 0.523577 -0.140995
vn 0.916824 -0.381116 0.119101
vn 0.778921 -0.011145 -0.627023
vn -0.691834 -0.672156 -0.263766
vn -0.865360 -0.453210 0.213898
vn -0.826178 -0.536872 -0.170875
vn -0.865360 -0.453210 0.213898
vn -0.691834 -0.672156 -0.263766
vn -0.719498 -0.629529 -0.293285
vn 0.891943 0.168128 0.419727
vn 0.916824 -0.381116 0.119101
vn 0.840230 0.523577 -0.140995
vn 0.840230 0.523577 -0.140995
vn 0.204820 0.927168 0.313701
vn 0.891943 0.168128 0.419727
f 4/1/1 2/2/2 1/3/3
f 2/4/4 4/5/5 5/6/6
f 3/7/7 8/8/8 9/9/9
f 7/10/10 6/11/11 9/12/12
f 6/13/13 4/14/14 1/15/15
f 6/16/16 7/17/17 5/18/18
f 5/19/19 4/20/20 6/21/21
f 9/22/22 6/23/23 1/24/24
f 9/25/25 8/26/26 7/27/27
f 5/28/28 3/29/29 2/30/30
f 2/31/31 9/32/32 1/33/33
f 9/34/34 2/35/35 3/36/36
f 8/37/37 3/38/38 5/39/39
f 5/40/40 7/41/41 8/42/42
