v -7.479626 3.146118 -13.462968
v 2.678765 -1.224251 18.593338
v 8.494256 -8.253250 -22.486469
v 12.638138 -12.481705 -1.084686
v 8.336391 -6.420731 15.429505
v 9.840686 10.363472 -18.113287
v 10.374061 10.461273 0.797182
v 6.123117 6.453972 7.751406
v -6.491929 7.618935 -4.362339
v -11.615942 11.731834 5.887722
v -8.605408 9.673859 11.620409
v -8.161712 -8.305923 -9.286689
v -6.643981 -11.407318 2.179636
v -12.543044 -11.970955 13.965692
vt 0.000000 0.000000
vt 0.000000 0.000000
vt 0.000000 0.000000
vt 0.000000 0.000000
vt 0.000000 0.000000
vt 0.000000 0.000000
vt 0.000000 0.000000
vt 0.000000 0.000000
vt 0.000000 0.000000
vt 0.000000 0.000000
vt 0.000000 0.000000
vt 0.000000 0.000000
vt 0.000000 0.000000
vt 0.000000 0.000000
vt 0.000000 0.000000
vt 0.000000 0.000000
vt 0.000000 0.000000
vt 0.000000 0.000000
vt 0.000000 0.000000
vt 0.000000 0.000000
vt 0.000000 0.000000
vt 0.000000 0.000000
vt 0.000000 0.000000
vt 0.000000 0.000000
vt 0.000000 0.000000
vt 0.000000 0.000000
vt 0.000000 0.000000
vt 0.000000 0.000000
vt 0.000000 0.000000
vt 0.000000 0.000000
vt 0.000000 0.000000
vt 0.000000 0.000000
vt 0.000000 0.000000
vt 0.000000 0.000000
vt 0.000000 0.000000
vt 0.000000 0.000000
vt 0.000000 0.000000
vt 0.000000 0.000000
vt 0.000000 0.000000
vt 0.000000 0.000000
vt 0.000000 0.000000
vt 0.000000 0.000000
vt 0.000000 0.000000
vt 0.000000 0.000000
vt 0.000000 0.000000
vt 0.000000 0.000000
vt 0.000000 0.000000
vt 0.000000 0.000000
vt 0.000000 0.000000
vt 0.000000 0.000000
vt 0.000000 0.000000
vt 0.000000 0.000000
vt 0.000000 0.000000
vt 0.000000 0.000000
vt 0.000000 0.000000
vt 0.000000 0.000000
vt 0.000000 0.000000
vt 0.000000 0.000000
vt 0.000000 0.000000
vt 0.000000 0.000000
vt 0.000000 0.000000
vt 0.000000 0.000000
vt 0.000000 0.000000
vt 0.000000 0.000000
vt 0.000000 0.000000
vt 0.000000 0.000000
vt 0.000000 0.000000
vt 0.000000 0.000000
vt 0.000000 0.000000
vt 0.000000 0.000000
vt 0.000000 0.000000
vt 0.000000 0.000000
vn -0.366495 0.791414 -0.489229
vn -0.492789 -0.001752 -0.870147
vn -0.740595 0.281530 -0.610131
vn 0.994886 0.022558 -0.098453
vn 0.997458 -0.065611 -0.027794
vn 0.992300 0.029520 0.120291
vn 0.972666 0.142133 0.183628
vn 0.992300 0.029520 0.120291
vn 0.619085 0.608283 0.496715
vn 0.860023 0.362190 0.359414
vn 0.619085 0.608283 0.496715
vn 0.222580 0.276563 0.934864
vn -0.221143 0.940813 -0.256839
vn -0.366495 0.791414 -0.489229
vn -0.740595 0.281530 -0.610131
vn -0.221143 0.940813 -0.256839
vn 0.147401 0.978892 0.141572
vn -0.008901 0.997695 0.067274
vn 0.147401 0.978892 0.141572
vn 0.073102 0.728129 0.681531
vn 0.619085 0.608283 0.496715
vn 0.619085 0.608283 0.496715
vn 0.073102 0.728129 0.681531
vn 0.222580 0.276563 0.934864
vn -0.947711 -0.037400 -0.316931
vn -0.956986 0.172484 -0.233295
vn -0.740595 0.281530 -0.610131
vn -0.947711 -0.037400 -0.316931
vn -0.991666 -0.128815 0.002329
vn -0.996152 -0.084431 -0.023525
vn -0.996414 -0.076986 -0.035106
vn -0.996152 -0.084431 -0.023525
vn -0.991666 -0.128815 0.002329
vn 0.073102 0.728129 0.681531
vn -0.035829 -0.560732 0.827222
vn 0.222580 0.276563 0.934864
vn -0.492789 -0.001752 -0.870147
vn -0.947711 -0.037400 -0.316931
vn -0.740595 0.281530 -0.610131
vn -0.112951 -0.971544 -0.208191
vn -0.129973 -0.977198 -0.167904
vn -0.075949 -0.996817 -0.024231
vn 0.056124 -0.996519 0.061642
vn -0.075949 -0.996817 -0.024231
vn 0.117330 -0.869771 0.479303
vn -0.035829 -0.560732 0.827222
vn 0.117330 -0.869771 0.479303
vn 0.222580 0.276563 0.934864
vn 0.992300 0.029520 0.120291
vn 0.972666 0.142133 0.183628
vn 0.994886 0.022558 -0.098453
vn -0.008901 0.997695 0.067274
vn -0.366495 0.791414 -0.489229
vn -0.221143 0.940813 -0.256839
vn 0.619085 0.608283 0.496715
vn 0.860023 0.362190 0.359414
vn 0.972666 0.142133 0.183628
vn 0.619085 0.608283 0.496715
vn -0.008901 0.997695 0.067274
vn 0.147401 0.978892 0.141572
vn -0.996152 -0.084431 -0.023525
vn -0.956986 0.172484 -0.233295
vn -0.947711 -0.037400 -0.316931
vn -0.075949 -0.996817 -0.024231
vn 0.056124 -0.996519 0.061642
vn -0.112951 -0.971544 -0.208191
vn 0.117330 -0.869771 0.479303
vn -0.035829 -0.560732 0.827222
vn 0.056124 -0.996519 0.061642
vn -0.991666 -0.128815 0.002329
vn -0.890560 0.114307 -0.440270
vn -0.996414 -0.076986 -0.035106
f 6/1/1 3/2/2 1/3/3
f 3/4/4 6/5/5 7/6/6
f 4/7/7 7/8/8 8/9/9
f 5/10/10 8/11/11 2/12/12
f 9/13/13 6/14/14 1/15/15
f 9/16/16 10/17/17 7/18/18
f 10/19/19 11/20/20 8/21/21
f 8/22/22 11/23/23 2/24/24
f 12/25/25 9/26/26 1/27/27
f 12/28/28 13/29/29 10/30/30
f 11/31/31 10/32/32 13/33/33
f 11/34/34 14/35/35 2/36/36
f 3/37/37 12/38/38 1/39/39
f 12/40/40 3/41/41 4/42/42
f 13/43/43 4/44/44 5/45/45
f 14/46/46 5/47/47 2/48/48
f 7/49/49 4/50/50 3/51/51
f 7/52/52 6/53/53 9/54/54
f 8/55/55 5/56/56 4/57/57
f 8/58/58 7/59/59 10/60/60
f 10/61/61 9/62/62 12/63/63
f 4/64/64 13/65/65 12/66/66
f 5/67/67 14/68/68 13/69/69
f 13/70/70 14/71/71 11/72/72
