v -6.054868 4.660080 -20.651814
v 2.678765 -1.224251 18.593338
v 8.494256 -8.253250 -22.486469
v 12.638138 -12.481705 -1.084686
v 12.049128 -11.077309 15.908645
v 9.840686 10.363472 -18.113287
v 18.101440 8.412086 -5.579256
v 14.215058 14.303505 7.886731
v -11.030257 5.795876 -6.528432
v -5.830008 16.762169 5.837175
v -1.201811 -11.795441 2.843339
v -6.163003 -17.528069 -11.686790
vt 0.000000 0.000000
vt 0.000000 0.000000
vt 0.000000 0.000000
vt 0.000000 0.000000
vt 0.000000 0.000000
vt 0.000000 0.000000
vt 0.000000 0.000000
vt 0.000000 0.000000
vt 0.000000 0.000000
vt 0.000000 0.000000
vt 0.000000 0.000000
vt 0.000000 0.000000
vt 0.000000 0.000000
vt 0.000000 0.000000
vt 0.000000 0.000000
vt 0.000000 0.000000
vt 0.000000 0.000000
vt 0.000000 0.000000
vt 0.000000 0.000000
vt 0.000000 0.000000
vt 0.000000 0.000000
vt 0.000000 0.000000
vt 0.000000 0.000000
vt 0.000000 0.000000
vt 0.000000 0.000000
vt 0.000000 0.000000
vt 0.000000 0.000000
vt 0.000000 0.000000
vt 0.000000 0.000000
vt 0.000000 0.000000
vt 0.000000 0.000000
vt 0.000000 0.000000
vt 0.000000 0.000000
vt 0.000000 0.000000
vt 0.000000 0.000000
vt 0.000000 0.000000
vt 0.000000 0.000000
vt 0.000000 0.000000
vt 0.000000 0.000000
vt 0.000000 0.000000
vt 0.000000 0.000000
vt 0.000000 0.000000
vt 0.000000 0.000000
vt 0.000000 0.000000
vt 0.000000 0.000000
vt 0.000000 0.000000
vt 0.000000 0.000000
vt 0.000000 0.000000
vt 0.000000 0.000000
vt 0.000000 0.000000
vt 0.000000 0.000000
vt 0.000000 0.000000
vt 0.000000 0.000000
vt 0.000000 0.000000
vt 0.000000 0.000000
vt 0.000000 0.000000
vt 0.000000 0.000000
vt 0.000000 0.000000
vt 0.000000 0.000000
vt 0.000000 0.000000
vn 0.509718 0.161636 -0.845021
vn 0.503851 -0.343621 -0.792501
vn -0.508738 -0.096887 -0.855452
vn 0.503851 -0.343621 -0.792501
vn 0.509718 0.161636 -0.845021
vn 0.969177 -0.120688 -0.214779
vn 0.593589 0.281534 0.753917
vn 0.818511 0.062620 0.571068
vn 0.581652 -0.812908 0.029361
vn 0.593589 0.281534 0.753917
vn 0.581652 -0.812908 0.029361
vn 0.969177 -0.120688 -0.214779
vn 0.818511 0.062620 0.571068
vn 0.593589 0.281534 0.753917
vn 0.245346 0.420128 0.873669
vn -0.161304 0.961122 -0.224112
vn -0.205440 0.978544 0.015699
vn -0.306011 0.934287 -0.182937
vn -0.161304 0.961122 -0.224112
vn 0.052494 0.855272 -0.515514
vn 0.003146 0.957545 -0.288266
vn 0.593589 0.281534 0.753917
vn -0.013259 0.574262 0.818564
vn 0.245346 0.420128 0.873669
vn -0.952758 -0.296504 -0.065855
vn -0.961799 -0.232626 0.144318
vn -0.508738 -0.096887 -0.855452
vn -0.952758 -0.296504 -0.065855
vn -0.817919 -0.355657 0.452235
vn -0.870037 -0.221697 0.440325
vn -0.817919 -0.355657 0.452235
vn -0.758536 -0.439011 0.481551
vn -0.870037 -0.221697 0.440325
vn 0.503851 -0.343621 -0.792501
vn -0.952758 -0.296504 -0.065855
vn -0.508738 -0.096887 -0.855452
vn 0.230420 -0.971600 0.053848
vn 0.503851 -0.343621 -0.792501
vn 0.581652 -0.812908 0.029361
vn 0.013584 -0.975778 0.218341
vn 0.581652 -0.812908 0.029361
vn -0.026293 -0.996332 0.081429
vn -0.518143 -0.645614 0.560991
vn -0.758536 -0.439011 0.481551
vn -0.817919 -0.355657 0.452235
vn 0.969177 -0.120688 -0.214779
vn 0.581652 -0.812908 0.029361
vn 0.503851 -0.343621 -0.792501
vn 0.003146 0.957545 -0.288266
vn -0.205440 0.978544 0.015699
vn -0.161304 0.961122 -0.224112
vn 0.149743 0.920970 -0.359711
vn 0.003146 0.957545 -0.288266
vn 0.052494 0.855272 -0.515514
vn -0.870037 -0.221697 0.440325
vn -0.961799 -0.232626 0.144318
vn -0.952758 -0.296504 -0.065855
vn 0.581652 -0.812908 0.029361
vn 0.013584 -0.975778 0.218341
vn 0.230420 -0.971600 0.053848
f 6/1/1 3/2/2 1/3/3
f 3/4/4 6/5/5 7/6/6
f 8/7/7 5/8/8 4/9/9
f 8/10/10 4/11/11 7/12/12
f 5/13/13 8/14/14 2/15/15
f 9/16/16 6/17/17 1/18/18
f 9/19/19 10/20/20 7/21/21
f 8/22/22 10/23/23 2/24/24
f 12/25/25 9/26/26 1/27/27
f 12/28/28 11/29/29 10/30/30
f 11/31/31 2/32/32 10/33/33
f 3/34/34 12/35/35 1/36/36
f 12/37/37 3/38/38 4/39/39
f 11/40/40 4/41/41 5/42/42
f 5/43/43 2/44/44 11/45/45
f 7/46/46 4/47/47 3/48/48
f 7/49/49 6/50/50 9/51/51
f 8/52/52 7/53/53 10/54/54
f 10/55/55 9/56/56 12/57/57
f 4/58/58 11/59/59 12/60/60
