v -5.706911 -0.442360 -13.122922
v 2.678764 -1.224251 18.593338
v 8.928017 -11.654877 -10.582559
v 12.638138 -12.481705 -1.084686
v 14.180632 -10.172394 7.632144
v 8.296537 2.413155 -10.248976
v 10.374062 10.461273 0.797182
v 6.686989 5.547455 8.737061
v -8.822720 7.391647 -4.995183
v -16.723547 7.611534 5.626354
v -3.004524 15.006012 11.845549
v -13.667809 -0.525475 -8.138082
v -12.502520 -8.992065 3.223041
v -12.543045 -11.970955 13.965692
vt 0.000000 0.000000
vt 0.000000 0.000000
vt 0.000000 0.000000
vt 0.000000 0.000000
vt 0.000000 0.000000
vt 0.000000 0.000000
vt 0.000000 0.000000
vt 0.000000 0.000000
vt 0.000000 0.000000
vt 0.000000 0.000000
vt 0.000000 0.000000
vt 0.000000 0.000000
vt 0.000000 0.000000
vt 0.000000 0.000000
vt 0.000000 0.000000
vt 0.000000 0.000000
vt 0.000000 0.000000
vt 0.000000 0.000000
vt 0.000000 0.000000
vt 0.000000 0.000000
vt 0.000000 0.000000
vt 0.000000 0.000000
vt 0.000000 0.000000
vt 0.000000 0.000000
vt 0.000000 0.000000
vt 0.000000 0.000000
vt 0.000000 0.000000
vt 0.000000 0.000000
vt 0.000000 0.000000
vt 0.000000 0.000000
vt 0.000000 0.000000
vt 0.000000 0.000000
vt 0.000000 0.000000
vt 0.000000 0.000000
vt 0.000000 0.000000
vt 0.000000 0.000000
vt 0.000000 0.000000
vt 0.000000 0.000000
vt 0.000000 0.000000
vt 0.000000 0.000000
vt 0.000000 0.000000
vt 0.000000 0.000000
vt 0.000000 0.000000
vt 0.000000 0.000000
vt 0.000000 0.000000
vt 0.000000 0.000000
vt 0.000000 0.000000
vt 0.000000 0.000000
vt 0.000000 0.000000
vt 0.000000 0.000000
vt 0.000000 0.000000
vt 0.000000 0.000000
vt 0.000000 0.000000
vt 0.000000 0.000000
vt 0.000000 0.000000
vt 0.000000 0.000000
vt 0.000000 0.000000
vt 0.000000 0.000000
vt 0.000000 0.000000
vt 0.000000 0.000000
vt 0.000000 0.000000
vt 0.000000 0.000000
vt 0.000000 0.000000
vt 0.000000 0.000000
vt 0.000000 0.000000
vt 0.000000 0.000000
vt 0.000000 0.000000
vt 0.000000 0.000000
vt 0.000000 0.000000
vt 0.000000 0.000000
vt 0.000000 0.000000
vt 0.000000 0.000000
vn 0.087507 0.562761 -0.821975
vn -0.280617 -0.677516 -0.679872
vn -0.205994 0.204264 -0.956997
vn 0.954333 0.084971 -0.286407
vn 0.974511 0.048935 -0.218936
vn 0.995914 0.078692 -0.044296
vn 0.973862 0.218401 -0.062396
vn 0.995914 0.078692 -0.044296
vn 0.865907 0.350068 0.357291
vn 0.896451 0.416749 0.150652
vn 0.865907 0.350068 0.357291
vn 0.716135 0.404256 0.568971
vn -0.252046 0.788511 -0.561003
vn 0.087507 0.562761 -0.821975
vn -0.205994 0.204264 -0.956997
vn -0.252046 0.788511 -0.561003
vn -0.619497 0.783135 -0.054067
vn -0.025702 0.997377 -0.067663
vn 0.156490 0.449393 -0.879521
vn 0.156490 0.449393 -0.879521
vn 0.156490 0.449393 -0.879521
vn 0.865907 0.350068 0.357291
vn 0.652431 0.474227 0.591137
vn 0.716135 0.404256 0.568971
vn -0.796989 0.350593 -0.491826
vn -0.252046 0.788511 -0.561003
vn -0.205994 0.204264 -0.956997
vn -0.796989 0.350593 -0.491826
vn -0.968941 -0.235328 -0.075990
vn -0.619497 0.783135 -0.054067
vn -0.653264 0.135136 0.744973
vn -0.306308 -0.212193 0.927982
vn -0.771205 0.078237 0.631761
vn -0.653264 0.135136 0.744973
vn -0.771930 0.316278 0.551446
vn -0.421653 0.218256 0.880099
vn -0.280617 -0.677516 -0.679872
vn -0.369080 -0.839016 -0.399790
vn -0.205994 0.204264 -0.956997
vn -0.369080 -0.839016 -0.399790
vn -0.280617 -0.677516 -0.679872
vn -0.263765 -0.961560 -0.076361
vn -0.105134 -0.973388 -0.203626
vn -0.263765 -0.961560 -0.076361
vn -0.044386 -0.999014 0.001176
vn 0.218903 -0.630665 0.744542
vn 0.218903 -0.630665 0.744542
vn 0.218903 -0.630665 0.744542
vn 0.995914 0.078692 -0.044296
vn 0.973862 0.218401 -0.062396
vn 0.954333 0.084971 -0.286407
vn -0.025702 0.997377 -0.067663
vn 0.087507 0.562761 -0.821975
vn -0.252046 0.788511 -0.561003
vn 0.865907 0.350068 0.357291
vn 0.896451 0.416749 0.150652
vn 0.973862 0.218401 -0.062396
vn 0.004747 0.849332 0.527838
vn -0.025702 0.997377 -0.067663
vn -0.619497 0.783135 -0.054067
vn -0.619497 0.783135 -0.054067
vn -0.252046 0.788511 -0.561003
vn -0.796989 0.350593 -0.491826
vn -0.263765 -0.961560 -0.076361
vn -0.105134 -0.973388 -0.203626
vn -0.369080 -0.839016 -0.399790
vn -0.044386 -0.999014 0.001176
vn 0.001527 -0.963638 -0.267207
vn -0.105134 -0.973388 -0.203626
vn -0.771205 0.078237 0.631761
vn -0.771930 0.316278 0.551446
vn -0.653264 0.135136 0.744973
f 6/1/1 3/2/2 1/3/3
f 3/4/4 6/5/5 7/6/6
f 4/7/7 7/8/8 8/9/9
f 5/10/10 8/11/11 2/12/12
f 9/13/13 6/14/14 1/15/15
f 9/16/16 10/17/17 7/18/18
f 10/19/19 11/20/20 8/21/21
f 8/22/22 11/23/23 2/24/24
f 12/25/25 9/26/26 1/27/27
f 12/28/28 13/29/29 10/30/30
f 11/31/31 10/32/32 13/33/33
f 11/34/34 14/35/35 2/36/36
f 3/37/37 12/38/38 1/39/39
f 12/40/40 3/41/41 4/42/42
f 13/43/43 4/44/44 5/45/45
f 14/46/46 5/47/47 2/48/48
f 7/49/49 4/50/50 3/51/51
f 7/52/52 6/53/53 9/54/54
f 8/55/55 5/56/56 4/57/57
f 8/58/58 7/59/59 10/60/60
f 10/61/61 9/62/62 12/63/63
f 4/64/64 13/65/65 12/66/66
f 5/67/67 14/68/68 13/69/69
f 13/70/70 14/71/71 11/72/72
