v -11.003342 102.531281 -48.000031
v 3.220868 123.850349 -40.000027
v -30.548187 57.505199 -40.000023
v 9.200664 117.086227 -32.000023
v -3.406060 97.810448 -32.000023
v -28.738661 65.779762 -32.000023
v 12.653932 112.755226 -24.000017
v -27.792351 68.663261 -24.000017
v -3.334388 92.028694 -16.000011
v -5.881567 74.056778 48.000031
v -15.550071 56.648235 48.000031
v -23.864737 44.950935 48.000031
v -27.678324 63.366665 8.000006
v 21.197136 105.468460 16.000011
v -19.998989 77.562370 16.000011
v -29.022627 55.088154 16.000011
v 25.793327 116.156487 24.000017
v -6.448881 87.188896 24.000017
v -30.391747 47.925224 24.000017
v 27.795166 126.878525 32.000023
v -5.582413 113.677361 31.999765
v -4.091015 98.008659 32.000023
v -12.139649 76.619392 32.000023
v -40.406769 64.337288 31.338217
v -31.313711 42.862774 32.000023
v 15.105727 108.824432 40.000027
v -14.486461 65.863335 40.000027
v -31.760197 39.802681 40.000027
v -17.279987 109.911331 -30.546322
v -6.975283 107.840569 -24.815823
v -1.248972 115.263908 -27.681091
v -1.152575 116.815094 -30.546337
v -4.627502 119.237679 -33.411594
v -11.175694 111.602142 -36.276836
v -38.845371 86.997131 -32.000092
v -38.819283 84.892601 -26.176121
v -47.721985 76.387505 -29.088125
v -48.066433 75.337952 -32.000095
v -37.489006 72.325996 -34.912098
v -30.374680 88.715500 -37.824108
v 5.837065 114.007111 29.951761
v 0.268692 109.361298 31.999769
v 1.041157 116.751984 31.999765
v 3.101036 112.130112 34.047810
v -40.276196 58.574924 26.458210
v -40.838589 55.486820 31.338211
v -39.441032 62.944317 21.578211
v -33.936611 76.653587 21.578211
v -19.982313 82.525787 26.458218
v -22.979218 76.078377 31.338226
v -29.960278 67.994217 16.698204
v -24.410767 69.517174 36.218220
v -36.294708 56.760609 41.098225
v -35.607643 53.620171 36.218216
v -25.046034 63.895973 41.098225
vt 0.319024 0.059124
vt 0.428627 0.193458
vt 0.303453 0.276693
vt 0.319024 0.059124
vt 0.303453 0.276693
vt 0.155174 0.194749
vt 0.428627 0.193458
vt 0.442648 0.299287
vt 0.311827 0.341248
vt 0.428627 0.193458
vt 0.311827 0.341248
vt 0.303453 0.276693
vt 0.220833 0.035143
vt 0.214947 0.000000
vt 0.164231 0.158683
vt 0.220833 0.035143
vt 0.164231 0.158683
vt 0.095277 0.180120
vt 0.214947 0.000000
vt 0.319024 0.059124
vt 0.155174 0.194749
vt 0.214947 0.000000
vt 0.155174 0.194749
vt 0.164231 0.158683
vt 0.442648 0.299287
vt 0.473583 0.422812
vt 0.330697 0.416599
vt 0.442648 0.299287
vt 0.330697 0.416599
vt 0.311827 0.341248
vt 0.311827 0.341248
vt 0.155174 0.194749
vt 0.303453 0.276693
vt 0.369982 0.433641
vt 0.268754 0.270614
vt 0.238674 0.323758
vt 0.369982 0.433641
vt 0.238674 0.323758
vt 0.186258 0.423205
vt 0.268754 0.270614
vt 0.251034 0.175542
vt 0.113699 0.265764
vt 0.268754 0.270614
vt 0.113699 0.265764
vt 0.238674 0.323758
vt 0.473583 0.422812
vt 0.548598 0.544195
vt 0.370202 0.490642
vt 0.473583 0.422812
vt 0.370202 0.490642
vt 0.330697 0.416599
vt 0.548598 0.544195
vt 0.369982 0.433641
vt 0.186258 0.423205
vt 0.548598 0.544195
vt 0.186258 0.423205
vt 0.370202 0.490642
vt 0.251034 0.175542
vt 0.232986 0.093281
vt 0.102690 0.215585
vt 0.251034 0.175542
vt 0.102690 0.215585
vt 0.113699 0.265764
vt 0.232986 0.093281
vt 0.220833 0.035143
vt 0.095277 0.180120
vt 0.232986 0.093281
vt 0.095277 0.180120
vt 0.102690 0.215585
vt 0.579680 0.668452
vt 0.832729 0.792663
vt 0.674484 0.830626
vt 0.579680 0.668452
vt 0.674484 0.830626
vt 0.637149 0.798828
vt 0.832729 0.792663
vt 1.000000 1.000000
vt 0.647331 0.883704
vt 0.832729 0.792663
vt 0.647331 0.883704
vt 0.674484 0.830626
vt 1.000000 1.000000
vt 0.973612 0.876866
vt 0.710551 0.852182
vt 1.000000 1.000000
vt 0.710551 0.852182
vt 0.647331 0.883704
vt 0.973612 0.876866
vt 0.579680 0.668452
vt 0.637149 0.798828
vt 0.973612 0.876866
vt 0.637149 0.798828
vt 0.710551 0.852182
vt 0.588709 0.666175
vt 0.488562 0.720390
vt 0.233211 0.561727
vt 0.588709 0.666175
vt 0.233211 0.561727
vt 0.121551 0.541992
vt 0.488562 0.720390
vt 0.230924 0.203300
vt 0.139431 0.373506
vt 0.488562 0.720390
vt 0.139431 0.373506
vt 0.233211 0.561727
vt 0.230924 0.203300
vt 0.254777 0.298327
vt 0.000000 0.408096
vt 0.230924 0.203300
vt 0.000000 0.408096
vt 0.139431 0.373506
vt 0.254777 0.298327
vt 0.267251 0.331442
vt 0.004541 0.420149
vt 0.254777 0.298327
vt 0.004541 0.420149
vt 0.000000 0.408096
vt 0.267251 0.331442
vt 0.589653 0.599776
vt 0.121895 0.517824
vt 0.267251 0.331442
vt 0.121895 0.517824
vt 0.004541 0.420149
vt 0.589653 0.599776
vt 0.588709 0.666175
vt 0.121551 0.541992
vt 0.589653 0.599776
vt 0.121551 0.541992
vt 0.121895 0.517824
vt 0.754889 0.887543
vt 0.676064 0.965224
vt 0.572608 0.912251
vt 0.754889 0.887543
vt 0.572608 0.912251
vt 0.618414 0.884429
vt 0.488562 0.720390
vt 0.588709 0.666175
vt 0.405824 0.805145
vt 0.488562 0.720390
vt 0.405824 0.805145
vt 0.486290 0.824562
vt 0.676064 0.965224
vt 0.488562 0.720390
vt 0.486290 0.824562
vt 0.676064 0.965224
vt 0.486290 0.824562
vt 0.572608 0.912251
vt 0.800410 0.837805
vt 0.754889 0.887543
vt 0.618414 0.884429
vt 0.800410 0.837805
vt 0.618414 0.884429
vt 0.617143 0.866615
vt 0.589653 0.599776
vt 0.800410 0.837805
vt 0.617143 0.866615
vt 0.589653 0.599776
vt 0.617143 0.866615
vt 0.541659 0.781364
vt 0.588709 0.666175
vt 0.589653 0.599776
vt 0.541659 0.781364
vt 0.588709 0.666175
vt 0.541659 0.781364
vt 0.405824 0.805145
vt 0.100969 0.281761
vt 0.186258 0.423205
vt 0.102690 0.215585
vt 0.186258 0.423205
vt 0.100969 0.281761
vt 0.370202 0.490642
vt 0.579680 0.668452
vt 0.913025 0.754122
vt 0.548598 0.544195
vt 0.913025 0.754122
vt 0.579680 0.668452
vt 0.973612 0.876866
vt 0.121895 0.517824
vt 0.121551 0.541992
vt 0.004541 0.420149
vt 0.405824 0.805145
vt 0.541659 0.781364
vt 0.617143 0.866615
vt 0.121551 0.541992
vt 0.233211 0.561727
vt 0.139431 0.373506
vt 0.155174 0.194749
vt 0.100969 0.281761
vt 0.164231 0.158683
vt 0.100969 0.281761
vt 0.155174 0.194749
vt 0.311827 0.341248
vt 0.556077 0.393382
vt 0.579680 0.668452
vt 0.442648 0.299287
vt 0.579680 0.668452
vt 0.556077 0.393382
vt 0.832729 0.792663
vt 0.710551 0.852182
vt 0.637149 0.798828
vt 0.560020 0.848395
vt 0.370202 0.490642
vt 0.100969 0.281761
vt 0.330697 0.416599
vt 0.102690 0.215585
vt 0.095277 0.180120
vt 0.100969 0.281761
vt 0.186258 0.423205
vt 0.113699 0.265764
vt 0.102690 0.215585
vt 0.548598 0.544195
vt 0.473583 0.422812
vt 0.579680 0.668452
vt 0.710551 0.852182
vt 0.560020 0.848395
vt 0.647331 0.883704
vt 0.238674 0.323758
vt 0.113699 0.265764
vt 0.186258 0.423205
vt 0.647331 0.883704
vt 0.560020 0.848395
vt 0.674484 0.830626
vt 0.674484 0.830626
vt 0.560020 0.848395
vt 0.637149 0.798828
vt 0.579680 0.668452
vt 0.473583 0.422812
vt 0.442648 0.299287
vt 0.311827 0.341248
vt 0.330697 0.416599
vt 0.100969 0.281761
vt 0.100969 0.281761
vt 0.095277 0.180120
vt 0.164231 0.158683
vt 0.121551 0.541992
vt 0.000000 0.408096
vt 0.004541 0.420149
vt 0.617143 0.866615
vt 0.618414 0.884429
vt 0.405824 0.805145
vt 0.572608 0.912251
vt 0.405824 0.805145
vt 0.618414 0.884429
vt 0.139431 0.373506
vt 0.000000 0.408096
vt 0.121551 0.541992
vt 0.572608 0.912251
vt 0.486290 0.824562
vt 0.405824 0.805145
vn -0.706097 0.559982 0.433413
vn -0.599571 0.529479 0.600139
vn -0.254067 0.547140 0.797551
vn -0.706097 0.559982 0.433413
vn -0.254067 0.547140 0.797551
vn -0.672312 0.230174 0.703574
vn -0.599571 0.529479 0.600139
vn -0.594197 0.547163 0.589527
vn -0.270505 0.634430 0.724103
vn -0.599571 0.529479 0.600139
vn -0.270505 0.634430 0.724103
vn -0.254067 0.547140 0.797551
vn -0.844445 -0.517083 -0.139777
vn -0.854700 -0.342705 0.389925
vn -0.865637 -0.265215 0.424658
vn -0.844445 -0.517083 -0.139777
vn -0.865637 -0.265215 0.424658
vn -0.958077 -0.262980 0.113715
vn -0.854700 -0.342705 0.389925
vn -0.706097 0.559982 0.433413
vn -0.672312 0.230174 0.703574
vn -0.854700 -0.342705 0.389925
vn -0.672312 0.230174 0.703574
vn -0.865637 -0.265215 0.424658
vn -0.594197 0.547163 0.589527
vn -0.077566 0.616163 0.783790
vn -0.256374 0.635786 0.728044
vn -0.594197 0.547163 0.589527
vn -0.256374 0.635786 0.728044
vn -0.270505 0.634430 0.724103
vn -0.270505 0.634430 0.724103
vn -0.672312 0.230174 0.703574
vn -0.254067 0.547140 0.797551
vn -0.572271 0.783779 -0.241238
vn -0.878721 0.470211 -0.082160
vn -0.619751 0.233022 -0.749406
vn -0.572271 0.783779 -0.241238
vn -0.619751 0.233022 -0.749406
vn -0.568110 0.700072 -0.432609
vn -0.878721 0.470211 -0.082160
vn -0.734880 -0.264284 -0.624584
vn -0.691064 -0.104931 -0.715136
vn -0.878721 0.470211 -0.082160
vn -0.691064 -0.104931 -0.715136
vn -0.619751 0.233022 -0.749406
vn -0.077566 0.616163 0.783790
vn -0.076545 0.626293 0.775821
vn -0.374100 0.818121 0.436723
vn -0.077566 0.616163 0.783790
vn -0.374100 0.818121 0.436723
vn -0.256374 0.635786 0.728044
vn -0.616330 0.732399 -0.289360
vn -0.572271 0.783779 -0.241238
vn -0.568110 0.700072 -0.432609
vn -0.616330 0.732399 -0.289360
vn -0.568110 0.700072 -0.432609
vn -0.374100 0.818121 0.436723
vn -0.734880 -0.264284 -0.624584
vn -0.690463 -0.526303 -0.496251
vn -0.957199 -0.089753 -0.275164
vn -0.734880 -0.264284 -0.624584
vn -0.957199 -0.089753 -0.275164
vn -0.691064 -0.104931 -0.715136
vn -0.690463 -0.526303 -0.496251
vn -0.844445 -0.517083 -0.139777
vn -0.958077 -0.262980 0.113715
vn -0.690463 -0.526303 -0.496251
vn -0.958077 -0.262980 0.113715
vn -0.957199 -0.089753 -0.275164
vn -0.863609 0.503963 -0.014158
vn -0.790133 0.504737 0.347751
vn -0.297504 0.148243 0.943141
vn -0.863609 0.503963 -0.014158
vn -0.297504 0.148243 0.943141
vn -0.385352 -0.135656 0.912744
vn -0.790133 0.504737 0.347751
vn -0.214925 0.478105 0.851600
vn -0.187107 0.410655 0.892387
vn -0.790133 0.504737 0.347751
vn -0.187107 0.410655 0.892387
vn -0.297504 0.148243 0.943141
vn -0.767481 0.494966 -0.407408
vn -0.669663 0.473437 -0.572197
vn -0.236908 0.202833 -0.950123
vn -0.767481 0.494966 -0.407408
vn -0.236908 0.202833 -0.950123
vn -0.211104 0.463474 -0.860597
vn -0.669663 0.473437 -0.572197
vn -0.863609 0.503963 -0.014158
vn -0.244546 -0.075766 -0.966673
vn -0.669663 0.473437 -0.572197
vn -0.244546 -0.075766 -0.966673
vn -0.236908 0.202833 -0.950123
vn -0.317145 0.902987 0.289885
vn -0.357573 0.899498 0.251088
vn -0.357573 0.899498 0.251088
vn -0.317145 0.902987 0.289885
vn -0.357573 0.899498 0.251088
vn -0.557919 0.809747 0.181759
vn -0.498987 0.063032 -0.864314
vn -0.498987 0.063032 -0.864314
vn -0.437616 0.115419 -0.891723
vn -0.498987 0.063032 -0.864314
vn -0.437616 0.115419 -0.891723
vn -0.539233 0.085207 -0.837835
vn -0.632010 -0.733307 0.250649
vn -0.528041 -0.793053 0.303711
vn -0.528041 -0.793053 0.303711
vn -0.632010 -0.733307 0.250649
vn -0.528041 -0.793053 0.303711
vn -0.632010 -0.733307 0.250649
vn -0.528041 -0.793053 0.303711
vn -0.414992 -0.839162 0.351552
vn -0.414992 -0.839162 0.351552
vn -0.528041 -0.793053 0.303711
vn -0.414992 -0.839162 0.351552
vn -0.528041 -0.793053 0.303711
vn -0.265720 -0.051462 0.962676
vn -0.265720 -0.051462 0.962676
vn -0.265720 -0.051462 0.962676
vn -0.265720 -0.051462 0.962676
vn -0.265720 -0.051462 0.962676
vn -0.265720 -0.051462 0.962676
vn -0.275718 0.903630 0.327769
vn -0.317145 0.902987 0.289885
vn -0.557919 0.809747 0.181759
vn -0.275718 0.903630 0.327769
vn -0.557919 0.809747 0.181759
vn -0.509622 0.808455 0.294424
vn -0.274303 0.715282 0.642751
vn -0.398776 0.673531 0.622362
vn -0.094720 0.694871 0.712869
vn -0.274303 0.715282 0.642751
vn -0.094720 0.694871 0.712869
vn -0.129485 0.793947 0.594038
vn -0.855138 -0.510210 -0.091787
vn -0.864385 -0.497518 0.072899
vn -0.864385 -0.497518 0.072899
vn -0.855138 -0.510210 -0.091787
vn -0.864385 -0.497518 0.072899
vn -0.855138 -0.510210 -0.091787
vn -0.645983 0.626885 -0.435571
vn -0.645983 0.626885 -0.435571
vn -0.621315 0.651110 -0.435917
vn -0.645983 0.626885 -0.435571
vn -0.621315 0.651110 -0.435917
vn -0.621315 0.651110 -0.435917
vn -0.419700 0.638659 0.644954
vn -0.274303 0.715282 0.642751
vn -0.129485 0.793947 0.594038
vn -0.419700 0.638659 0.644954
vn -0.129485 0.793947 0.594038
vn -0.206563 0.712257 0.670836
vn -0.585155 0.755944 0.293498
vn -0.419700 0.638659 0.644954
vn -0.206563 0.712257 0.670836
vn -0.585155 0.755944 0.293498
vn -0.206563 0.712257 0.670836
vn -0.236933 0.503475 0.830888
vn -0.864385 -0.497518 0.072899
vn -0.849976 -0.471209 0.235590
vn -0.849976 -0.471209 0.235590
vn -0.864385 -0.497518 0.072899
vn -0.849976 -0.471209 0.235590
vn -0.864385 -0.497518 0.072899
vn -0.991820 -0.012621 0.127015
vn -0.947097 0.313222 -0.069992
vn -0.957199 -0.089753 -0.275164
vn -0.568110 0.700072 -0.432609
vn -0.435398 0.646725 0.626239
vn -0.374100 0.818121 0.436723
vn -0.863609 0.503963 -0.014158
vn -0.683974 0.680764 -0.262183
vn -0.616330 0.732399 -0.289360
vn -0.683974 0.680764 -0.262183
vn -0.863609 0.503963 -0.014158
vn -0.669663 0.473437 -0.572197
vn -0.509622 0.808455 0.294424
vn -0.557919 0.809747 0.181759
vn -0.757932 0.649823 0.057183
vn -0.313703 0.663616 0.679120
vn -0.236933 0.503475 0.830888
vn -0.206563 0.712257 0.670836
vn -0.405081 0.141825 -0.903214
vn -0.539233 0.085207 -0.837835
vn -0.437616 0.115419 -0.891723
vn -0.672312 0.230174 0.703574
vn -0.991820 -0.012621 0.127015
vn -0.865637 -0.265215 0.424658
vn -0.435398 0.646725 0.626239
vn -0.672312 0.230174 0.703574
vn -0.270505 0.634430 0.724103
vn -0.810286 0.467389 0.353530
vn -0.863609 0.503963 -0.014158
vn -0.594197 0.547163 0.589527
vn -0.863609 0.503963 -0.014158
vn -0.810286 0.467389 0.353530
vn -0.790133 0.504737 0.347751
vn -0.236908 0.202833 -0.950123
vn -0.244546 -0.075766 -0.966673
vn -0.178183 0.078874 -0.980831
vn -0.374100 0.818121 0.436723
vn -0.435398 0.646725 0.626239
vn -0.256374 0.635786 0.728044
vn -0.957199 -0.089753 -0.275164
vn -0.958077 -0.262980 0.113715
vn -0.991820 -0.012621 0.127015
vn -0.947097 0.313222 -0.069992
vn -0.914132 0.367034 0.172186
vn -0.957199 -0.089753 -0.275164
vn -0.616330 0.732399 -0.289360
vn -0.935930 0.352184 -0.000727
vn -0.863609 0.503963 -0.014158
vn -0.236908 0.202833 -0.950123
vn -0.178183 0.078874 -0.980831
vn -0.211104 0.463474 -0.860597
vn -0.619751 0.233022 -0.749406
vn -0.691064 -0.104931 -0.715136
vn -0.568110 0.700072 -0.432609
vn -0.187107 0.410655 0.892387
vn -0.232517 -0.017756 0.972430
vn -0.297504 0.148243 0.943141
vn -0.297504 0.148243 0.943141
vn -0.232517 -0.017756 0.972430
vn -0.385352 -0.135656 0.912744
vn -0.863609 0.503963 -0.014158
vn -0.935930 0.352184 -0.000727
vn -0.594197 0.547163 0.589527
vn -0.270505 0.634430 0.724103
vn -0.256374 0.635786 0.728044
vn -0.435398 0.646725 0.626239
vn -0.991820 -0.012621 0.127015
vn -0.958077 -0.262980 0.113715
vn -0.865637 -0.265215 0.424658
vn -0.557919 0.809747 0.181759
vn -0.777719 0.615086 -0.129700
vn -0.757932 0.649823 0.057183
vn -0.206563 0.712257 0.670836
vn -0.129485 0.793947 0.594038
vn -0.313703 0.663616 0.679120
vn -0.094720 0.694871 0.712869
vn -0.313703 0.663616 0.679120
vn -0.129485 0.793947 0.594038
vn -0.437616 0.115419 -0.891723
vn -0.216010 0.170839 -0.961329
vn -0.405081 0.141825 -0.903214
vn -0.621315 0.651110 -0.435917
vn -0.621315 0.651110 -0.435917
vn -0.595904 0.674557 -0.435742
f 12/1/1 11/2/2 55/3/3
f 12/4/4 55/5/5 53/6/6
f 11/7/7 27/8/8 52/9/9
f 11/10/10 52/11/11 55/12/12
f 25/13/13 28/14/14 54/15/15
f 25/16/16 54/17/17 46/18/18
f 28/19/19 12/20/20 53/21/21
f 28/22/22 53/23/23 54/24/24
f 27/25/25 23/26/26 50/27/27
f 27/28/28 50/29/29 52/30/30
f 52/31/31 53/32/32 55/33/33
f 15/34/34 13/35/35 51/36/36
f 15/37/37 51/38/38 48/39/39
f 13/40/40 16/41/41 47/42/42
f 13/43/43 47/44/44 51/45/45
f 23/46/46 18/47/47 49/48/48
f 23/49/49 49/50/50 50/51/51
f 18/52/52 15/53/53 48/54/54
f 18/55/55 48/56/56 49/57/57
f 16/58/58 19/59/59 45/60/60
f 16/61/61 45/62/62 47/63/63
f 19/64/64 25/65/65 46/66/66
f 19/67/67 46/68/68 45/69/69
f 22/70/70 26/71/71 44/72/72
f 22/73/73 44/74/74 42/75/75
f 26/76/76 20/77/77 43/78/78
f 26/79/79 43/80/80 44/81/81
f 20/82/82 17/83/83 41/84/84
f 20/85/85 41/86/86 43/87/87
f 17/88/88 22/89/89 42/90/90
f 17/91/91 42/92/92 41/93/93
f 5/94/94 1/95/95 40/96/96
f 5/97/97 40/98/98 35/99/99
f 1/100/100 3/101/101 39/102/102
f 1/103/103 39/104/104 40/105/105
f 3/106/106 6/107/107 38/108/108
f 3/109/109 38/110/110 39/111/111
f 6/112/112 8/113/113 37/114/114
f 6/115/115 37/116/116 38/117/117
f 8/118/118 9/119/119 36/120/120
f 8/121/121 36/122/122 37/123/123
f 9/124/124 5/125/125 35/126/126
f 9/127/127 35/128/128 36/129/129
f 4/130/130 2/131/131 33/132/132
f 4/133/133 33/134/134 32/135/135
f 1/136/136 5/137/137 29/138/138
f 1/139/139 29/140/140 34/141/141
f 2/142/142 1/143/143 34/144/144
f 2/145/145 34/146/146 33/147/147
f 7/148/148 4/149/149 32/150/150
f 7/151/151 32/152/152 31/153/153
f 9/154/154 7/155/155 31/156/156
f 9/157/157 31/158/158 30/159/159
f 5/160/160 9/161/161 30/162/162
f 5/163/163 30/164/164 29/165/165
f 24/166/166 48/167/167 45/168/168
f 48/169/169 24/170/170 49/171/171
f 22/172/172 14/173/173 18/174/174
f 14/175/175 22/176/176 17/177/177
f 36/178/178 35/179/179 37/180/180
f 29/181/181 30/182/182 31/183/183
f 35/184/184 40/185/185 39/186/186
f 53/187/187 24/188/188 54/189/189
f 24/190/190 53/191/191 52/192/192
f 10/193/193 22/194/194 27/195/195
f 22/196/196 10/197/197 26/198/198
f 41/199/199 42/200/200 21/201/201
f 49/202/202 24/203/203 50/204/204
f 45/205/205 46/206/206 24/207/207
f 48/208/208 47/209/209 45/210/210
f 18/211/211 23/212/212 22/213/213
f 41/214/214 21/215/215 43/216/216
f 51/217/217 47/218/218 48/219/219
f 43/220/220 21/221/221 44/222/222
f 44/223/223 21/224/224 42/225/225
f 22/226/226 23/227/227 27/228/228
f 52/229/229 50/230/230 24/231/231
f 24/232/232 46/233/233 54/234/234
f 35/235/235 38/236/236 37/237/237
f 31/238/238 32/239/239 29/240/240
f 33/241/241 29/242/242 32/243/243
f 39/244/244 38/245/245 35/246/246
f 33/247/247 34/248/248 29/249/249
