v -32.000000 0.000000 -32.000000
v -32.000000 0.000000 -24.000000
v -32.000000 0.000000 -16.000000
v -32.000000 0.000000 -8.000000
v -32.000000 0.000000 0.000000
v -32.000000 0.000000 8.000000
v -32.000000 0.000000 16.000000
v -32.000000 0.000000 24.000000
v -32.000000 0.000000 32.000000
v -24.000000 0.000000 -32.000000
v -24.000000 0.000000 -24.000000
v -24.000000 0.000000 -16.000000
v -24.000000 0.000000 -8.000000
v -24.000000 0.000000 0.000000
v -24.000000 0.000000 8.000000
v -24.000000 0.000000 16.000000
v -24.000000 0.000000 24.000000
v -24.000000 0.000000 32.000000
v -16.000000 0.000000 -32.000000
v -16.000000 0.000000 -24.000000
v -16.000000 0.000000 -16.000000
v -16.000000 0.000000 -8.000000
v 10.844575 -0.025861 1.382913
v -16.000000 0.000000 8.000000
v -16.000000 0.000000 16.000000
v -16.000000 0.000000 24.000000
v -16.000000 0.000000 32.000000
v -8.000000 0.000000 -32.000000
v -8.000000 0.000000 -24.000000
v -8.000000 0.000000 -16.000000
v -5.455999 -2.987787 10.911998
v -10.911998 -2.987787 -5.455999
v -5.455999 -2.987787 -10.949084
v -8.000000 0.000000 16.000000
v -8.000000 0.000000 24.000000
v -8.000000 0.000000 32.000000
v 0.000000 0.000000 -32.000000
v 0.000000 0.000000 -24.000000
v 10.911998 -2.987787 -5.455999
v 10.911998 -2.987787 5.455999
v -10.911998 -2.987787 5.455999
v 0.000000 0.000000 24.000000
v 0.000000 0.000000 32.000000
v 8.000000 0.000000 -32.000000
v 8.000000 0.000000 -24.000000
v 8.000000 0.000000 -16.000000
v 5.455999 -2.987787 10.911998
v 32.000000 0.000000 32.000000
v 5.455999 -2.987787 -10.949084
v 8.000000 0.000000 16.000000
v 8.000000 0.000000 24.000000
v 8.000000 0.000000 32.000000
v 16.000000 0.000000 -32.000000
v 16.000000 0.000000 -24.000000
v 16.000000 0.000000 -16.000000
v 16.000000 0.000000 -8.000000
v 16.000000 0.000000 8.000000
v 16.000000 0.000000 16.000000
v 16.000000 0.000000 24.000000
v 16.000000 0.000000 32.000000
v 24.000000 0.000000 -32.000000
v 24.000000 0.000000 -24.000000
v 24.000000 0.000000 -16.000000
v 24.000000 0.000000 -8.000000
v 24.000000 0.000000 0.000000
v 24.000000 0.000000 8.000000
v 24.000000 0.000000 16.000000
v 24.000000 0.000000 24.000000
v 24.000000 0.000000 32.000000
v 32.000000 0.000000 -32.000000
v 32.000000 0.000000 -24.000000
v 32.000000 0.000000 -16.000000
v 32.000000 0.000000 -8.000000
v 32.000000 0.000000 0.000000
v 32.000000 0.000000 8.000000
v 32.000000 0.000000 16.000000
v 32.000000 0.000000 24.000000
v 10.844568 -0.025863 -1.382913
v -11.033259 0.124227 -1.382911
v -10.963862 0.031607 1.382914
vt 0.998047 0.001953
vt 0.751953 0.001953
vt 0.751953 0.251953
vt 0.998047 0.001953
vt 0.751953 0.251953
vt 0.998047 0.251953
vt 0.998047 0.501953
vt 0.998047 0.251953
vt 0.751953 0.251953
vt 0.998047 0.501953
vt 0.751953 0.251953
vt 0.751953 0.501953
vt 0.998047 0.501953
vt 0.998047 0.251953
vt 0.751953 0.251953
vt 0.998047 0.501953
vt 0.751953 0.251953
vt 0.751953 0.501953
vt 0.998047 0.501953
vt 0.998047 0.251953
vt 0.751953 0.251953
vt 0.998047 0.501953
vt 0.751953 0.251953
vt 0.751953 0.501953
vt 0.998047 0.501953
vt 0.998047 0.251953
vt 0.751953 0.251953
vt 0.998047 0.501953
vt 0.751953 0.251953
vt 0.751953 0.501953
vt 0.998047 0.501953
vt 0.998047 0.251953
vt 0.751953 0.251953
vt 0.998047 0.501953
vt 0.751953 0.251953
vt 0.751953 0.501953
vt 0.998047 0.501953
vt 0.998047 0.251953
vt 0.751953 0.251953
vt 0.998047 0.501953
vt 0.751953 0.251953
vt 0.751953 0.501953
vt 0.998047 0.251953
vt 0.998047 0.001953
vt 0.751953 0.001953
vt 0.998047 0.251953
vt 0.751953 0.001953
vt 0.751953 0.251953
vt 0.998047 0.251953
vt 0.751953 0.251953
vt 0.751953 0.501953
vt 0.998047 0.251953
vt 0.751953 0.501953
vt 0.998047 0.501953
vt 0.751953 0.251953
vt 0.751953 0.501953
vt 0.501953 0.501953
vt 0.751953 0.251953
vt 0.501953 0.501953
vt 0.501953 0.251953
vt 0.251953 0.501953
vt 0.501953 0.501953
vt 0.501953 0.751953
vt 0.251953 0.501953
vt 0.501953 0.751953
vt 0.251953 0.751953
vt 0.998047 0.751953
vt 0.856946 0.544313
vt 0.856946 0.455687
vt 0.998047 0.751953
vt 0.856946 0.455687
vt 0.998047 0.251953
vt 0.251953 0.251953
vt 0.501953 0.251953
vt 0.501953 0.501953
vt 0.251953 0.251953
vt 0.501953 0.501953
vt 0.251953 0.501953
vt 0.501953 0.251953
vt 0.751953 0.251953
vt 0.751953 0.501953
vt 0.501953 0.251953
vt 0.751953 0.501953
vt 0.501953 0.501953
vt 0.751953 0.501953
vt 0.998047 0.501953
vt 0.998047 0.251953
vt 0.751953 0.501953
vt 0.998047 0.251953
vt 0.751953 0.251953
vt 0.998047 0.251953
vt 0.751953 0.251953
vt 0.751953 0.501953
vt 0.998047 0.251953
vt 0.751953 0.501953
vt 0.998047 0.501953
vt 0.501953 0.251953
vt 0.501953 0.501953
vt 0.251953 0.501953
vt 0.501953 0.251953
vt 0.251953 0.501953
vt 0.251953 0.251953
vt 0.814453 0.001953
vt 0.189453 0.001953
vt 0.286621 0.251953
vt 0.814453 0.001953
vt 0.286621 0.251953
vt 0.717285 0.251953
vt 0.611328 0.251953
vt 0.873047 0.001953
vt 0.439453 0.000000
vt 0.286621 0.251953
vt 0.717285 0.251953
vt 0.814453 0.001953
vt 0.286621 0.251953
vt 0.814453 0.001953
vt 0.189453 0.001953
vt 0.250000 0.625000
vt 0.250000 0.750000
vt 0.375000 0.750000
vt 0.501953 0.751953
vt 0.501953 0.501953
vt 0.751953 0.501953
vt 0.501953 0.751953
vt 0.751953 0.501953
vt 0.751953 0.751953
vt 0.751953 0.501953
vt 0.998047 0.501953
vt 0.998047 0.251953
vt 0.751953 0.501953
vt 0.998047 0.251953
vt 0.751953 0.251953
vt 0.998047 0.251953
vt 0.751953 0.251953
vt 0.751953 0.501953
vt 0.998047 0.251953
vt 0.751953 0.501953
vt 0.998047 0.501953
vt 0.189453 0.001953
vt 0.564453 0.001953
vt 0.814453 0.251953
vt 0.751953 0.501953
vt 0.998047 0.501953
vt 0.998047 0.251953
vt 0.751953 0.501953
vt 0.998047 0.251953
vt 0.751953 0.251953
vt 0.998047 0.251953
vt 0.751953 0.251953
vt 0.751953 0.501953
vt 0.998047 0.251953
vt 0.751953 0.501953
vt 0.998047 0.501953
vt 0.814453 0.001953
vt 0.189453 0.001953
vt 0.286621 0.251953
vt 0.814453 0.001953
vt 0.286621 0.251953
vt 0.717285 0.251953
vt 0.998047 0.251953
vt 0.856946 0.455687
vt 0.856946 0.544313
vt 0.998047 0.251953
vt 0.856946 0.544313
vt 0.998047 0.751953
vt 0.189453 0.001953
vt 0.286621 0.251953
vt 0.717285 0.251953
vt 0.189453 0.001953
vt 0.717285 0.251953
vt 0.814453 0.001953
vt 0.751953 0.501953
vt 0.998047 0.501953
vt 0.998047 0.251953
vt 0.751953 0.501953
vt 0.998047 0.251953
vt 0.751953 0.251953
vt 0.251953 0.001953
vt 0.251953 0.251953
vt 0.501953 0.251953
vt 0.251953 0.001953
vt 0.501953 0.251953
vt 0.501953 0.001953
vt 0.751953 0.501953
vt 0.751953 0.751953
vt 0.501953 0.751953
vt 0.751953 0.501953
vt 0.501953 0.751953
vt 0.501953 0.501953
vt 0.439453 0.000000
vt 0.873047 0.001953
vt 0.611328 0.251953
vt 0.625000 0.750000
vt 0.750000 0.750000
vt 0.750000 0.625000
vt 0.251953 0.751953
vt 0.251953 0.501953
vt 0.501953 0.501953
vt 0.251953 0.751953
vt 0.501953 0.501953
vt 0.501953 0.751953
vt 0.751953 0.501953
vt 0.998047 0.501953
vt 0.998047 0.251953
vt 0.751953 0.501953
vt 0.998047 0.251953
vt 0.751953 0.251953
vt 0.501953 0.001953
vt 0.501953 0.251953
vt 0.751953 0.251953
vt 0.501953 0.001953
vt 0.751953 0.251953
vt 0.751953 0.001953
vt 0.751953 0.501953
vt 0.501953 0.501953
vt 0.501953 0.251953
vt 0.751953 0.501953
vt 0.501953 0.251953
vt 0.751953 0.251953
vt 0.501953 0.501953
vt 0.251953 0.501953
vt 0.251953 0.251953
vt 0.501953 0.501953
vt 0.251953 0.251953
vt 0.501953 0.251953
vt 0.501953 0.751953
vt 0.748047 0.751953
vt 0.748047 0.501953
vt 0.501953 0.751953
vt 0.748047 0.501953
vt 0.748047 0.251953
vt 0.501953 0.751953
vt 0.748047 0.251953
vt 0.501953 0.251953
vt 0.751953 0.501953
vt 0.501953 0.501953
vt 0.501953 0.251953
vt 0.751953 0.501953
vt 0.501953 0.251953
vt 0.751953 0.251953
vt 0.501953 0.501953
vt 0.501953 0.251953
vt 0.751953 0.251953
vt 0.501953 0.501953
vt 0.751953 0.251953
vt 0.751953 0.501953
vt 0.751953 0.501953
vt 0.998047 0.501953
vt 0.998047 0.251953
vt 0.751953 0.501953
vt 0.998047 0.251953
vt 0.751953 0.251953
vt 0.751953 0.001953
vt 0.751953 0.251953
vt 0.998047 0.251953
vt 0.751953 0.001953
vt 0.998047 0.251953
vt 0.998047 0.001953
vt 0.751953 0.251953
vt 0.751953 0.501953
vt 0.998047 0.501953
vt 0.751953 0.251953
vt 0.998047 0.501953
vt 0.998047 0.251953
vt 0.751953 0.251953
vt 0.751953 0.501953
vt 0.998047 0.501953
vt 0.751953 0.251953
vt 0.998047 0.501953
vt 0.998047 0.251953
vt 0.751953 0.251953
vt 0.751953 0.501953
vt 0.998047 0.501953
vt 0.751953 0.251953
vt 0.998047 0.501953
vt 0.998047 0.251953
vt 0.751953 0.251953
vt 0.751953 0.501953
vt 0.998047 0.501953
vt 0.751953 0.251953
vt 0.998047 0.501953
vt 0.998047 0.251953
vt 0.751953 0.251953
vt 0.751953 0.501953
vt 0.998047 0.501953
vt 0.751953 0.251953
vt 0.998047 0.501953
vt 0.998047 0.251953
vt 0.751953 0.251953
vt 0.751953 0.501953
vt 0.998047 0.501953
vt 0.751953 0.251953
vt 0.998047 0.501953
vt 0.998047 0.251953
vt 0.751953 0.251953
vt 0.998047 0.251953
vt 0.998047 0.001953
vt 0.751953 0.251953
vt 0.998047 0.001953
vt 0.751953 0.001953
vt 0.814453 0.251953
vt 0.564453 0.001953
vt 0.189453 0.001953
vt 0.375000 0.250000
vt 0.250000 0.250000
vt 0.250000 0.375000
vt 0.750000 0.375000
vt 0.750000 0.250000
vt 0.625000 0.250000
vt 0.251953 0.751953
vt 0.498047 0.751953
vt 0.498047 0.501953
vt 0.251953 0.751953
vt 0.498047 0.501953
vt 0.498047 0.251953
vt 0.251953 0.751953
vt 0.498047 0.251953
vt 0.251953 0.251953
vt 0.998047 0.751953
vt 0.998047 0.251953
vt 0.751953 0.439453
vt 0.998047 0.751953
vt 0.751953 0.439453
vt 0.751953 0.564453
vt 0.439453 0.000000
vt 0.873047 0.001953
vt 0.611328 0.251953
vt 0.998047 0.751953
vt 0.998047 0.251953
vt 0.751953 0.439453
vt 0.998047 0.751953
vt 0.751953 0.439453
vt 0.751953 0.564453
vt 0.611328 0.251953
vt 0.873047 0.001953
vt 0.439453 0.000000
vt 0.330078 0.751953
vt 0.673828 0.751953
vt 0.751953 0.251953
vt 0.330078 0.751953
vt 0.751953 0.251953
vt 0.501953 0.251953
vt 0.330078 0.751953
vt 0.501953 0.251953
vt 0.251953 0.251953
vt 0.189453 0.001953
vt 0.564453 0.001953
vt 0.814453 0.251953
vt 0.673828 0.751953
vt 0.751953 0.251953
vt 0.501953 0.251953
vt 0.673828 0.751953
vt 0.501953 0.251953
vt 0.251953 0.251953
vt 0.673828 0.751953
vt 0.251953 0.251953
vt 0.330078 0.751953
vt 0.814453 0.251953
vt 0.564453 0.001953
vt 0.189453 0.001953
vt 0.585250 0.328921
vt 0.414750 0.328921
vt 0.329500 0.414750
vt 0.585250 0.328921
vt 0.329500 0.414750
vt 0.329500 0.585250
vt 0.585250 0.328921
vt 0.329500 0.585250
vt 0.414750 0.670500
vt 0.585250 0.328921
vt 0.414750 0.670500
vt 0.585250 0.670500
vt 0.585250 0.328921
vt 0.585250 0.670500
vt 0.670500 0.585250
vt 0.585250 0.328921
vt 0.670500 0.585250
vt 0.670500 0.414750
vn 0.000000 1.000000 0.000000
vn 0.000000 1.000000 0.000000
vn 0.000000 1.000000 0.000000
vn 0.000000 1.000000 0.000000
vn 0.000000 1.000000 0.000000
vn 0.000000 1.000000 0.000000
vn 0.000000 1.000000 0.000000
vn 0.000000 1.000000 0.000000
vn 0.000000 1.000000 0.000000
vn 0.000000 1.000000 0.000000
vn 0.000000 1.000000 0.000000
vn 0.000000 1.000000 0.000000
vn 0.000000 1.000000 0.000000
vn 0.000000 1.000000 0.000000
vn 0.000000 1.000000 0.000000
vn 0.000000 1.000000 0.000000
vn 0.000000 1.000000 0.000000
vn 0.000000 1.000000 0.000000
vn 0.000000 1.000000 0.000000
vn 0.000000 1.000000 0.000000
vn 0.000000 1.000000 0.000000
vn 0.000000 1.000000 0.000000
vn 0.000000 1.000000 0.000000
vn 0.000000 1.000000 0.000000
vn 0.000000 1.000000 0.000000
vn 0.000000 1.000000 0.000000
vn 0.000000 1.000000 0.000000
vn 0.000000 1.000000 0.000000
vn 0.000000 1.000000 0.000000
vn 0.000000 1.000000 0.000000
vn 0.000000 1.000000 0.000000
vn 0.000000 1.000000 0.000000
vn 0.000000 1.000000 0.000000
vn 0.000000 1.000000 0.000000
vn 0.000000 1.000000 0.000000
vn 0.000000 1.000000 0.000000
vn 0.000000 1.000000 0.000000
vn 0.000000 1.000000 0.000000
vn 0.000000 1.000000 0.000000
vn 0.000000 1.000000 0.000000
vn 0.000000 1.000000 0.000000
vn 0.000000 1.000000 0.000000
vn 0.000000 1.000000 0.000000
vn 0.000000 1.000000 0.000000
vn 0.000000 1.000000 0.000000
vn 0.000000 1.000000 0.000000
vn 0.000000 1.000000 0.000000
vn 0.000000 1.000000 0.000000
vn 0.000000 1.000000 0.000000
vn 0.000000 1.000000 0.000000
vn 0.000000 1.000000 0.000000
vn 0.000000 1.000000 0.000000
vn 0.000000 1.000000 0.000000
vn 0.000000 1.000000 0.000000
vn 0.000000 1.000000 0.000000
vn 0.000000 1.000000 0.000000
vn 0.000000 1.000000 0.000000
vn 0.000000 1.000000 0.000000
vn 0.000000 1.000000 0.000000
vn 0.000000 1.000000 0.000000
vn 0.000000 1.000000 0.000000
vn 0.000000 1.000000 0.000000
vn -0.003894 0.999992 0.001248
vn 0.000000 1.000000 0.000000
vn -0.003894 0.999992 0.001248
vn 0.000000 1.000000 0.000000
vn -0.003894 0.999992 0.001248
vn -0.015577 0.999866 0.004992
vn -0.015577 0.999866 0.004992
vn -0.003894 0.999992 0.001248
vn -0.015577 0.999866 0.004992
vn -0.003894 0.999992 0.001248
vn 0.000000 1.000000 0.000000
vn 0.000000 1.000000 0.000000
vn 0.000000 1.000000 0.000000
vn 0.000000 1.000000 0.000000
vn 0.000000 1.000000 0.000000
vn -0.003894 0.999992 0.001248
vn 0.000000 1.000000 0.000000
vn 0.000000 1.000000 0.000000
vn 0.000000 1.000000 0.000000
vn 0.000000 1.000000 0.000000
vn 0.000000 1.000000 0.000000
vn 0.000000 1.000000 0.000000
vn 0.000000 1.000000 0.000000
vn 0.000000 1.000000 0.000000
vn 0.000000 1.000000 0.000000
vn 0.000000 1.000000 0.000000
vn 0.000000 1.000000 0.000000
vn 0.000000 1.000000 0.000000
vn 0.000000 1.000000 0.000000
vn 0.000000 1.000000 0.000000
vn 0.000000 0.998428 0.056056
vn 0.000000 1.000000 0.000000
vn 0.000000 0.998428 0.056056
vn 0.000000 1.000000 0.000000
vn 0.000000 1.000000 0.000000
vn 0.000000 1.000000 0.000000
vn 0.000000 1.000000 0.000000
vn 0.000000 1.000000 0.000000
vn 0.000000 1.000000 0.000000
vn 0.000000 0.998428 0.056056
vn 0.343604 0.874369 0.342660
vn 0.343604 0.874369 0.342660
vn 0.343604 0.874369 0.342660
vn 0.343604 0.874369 0.342660
vn 0.343604 0.874369 0.342660
vn 0.343604 0.874369 0.342660
vn 0.609747 0.638460 -0.469658
vn 0.609747 0.638460 -0.469658
vn 0.609747 0.638460 -0.469658
vn 0.297431 0.942526 -0.152248
vn 0.342495 0.874868 -0.342495
vn 0.342495 0.874868 -0.342495
vn 0.297431 0.942526 -0.152248
vn 0.342495 0.874868 -0.342495
vn 0.342495 0.874868 -0.342495
vn -0.003894 0.999992 0.001248
vn 0.000000 1.000000 0.000000
vn 0.000000 1.000000 0.000000
vn 0.000000 1.000000 0.000000
vn 0.000000 1.000000 0.000000
vn 0.000000 0.998436 -0.055903
vn 0.000000 1.000000 0.000000
vn 0.000000 0.998436 -0.055903
vn 0.000000 1.000000 0.000000
vn 0.000000 1.000000 0.000000
vn 0.000000 1.000000 0.000000
vn 0.000000 1.000000 0.000000
vn 0.000000 1.000000 0.000000
vn 0.000000 1.000000 0.000000
vn 0.000000 0.998436 -0.055903
vn 0.000000 1.000000 0.000000
vn 0.000000 0.998428 0.056056
vn 0.000000 0.997198 0.074807
vn 0.000000 1.000000 0.000000
vn 0.000000 0.997198 0.074807
vn 0.000000 1.000000 0.000000
vn -0.761388 0.648296 0.000000
vn -0.761388 0.648296 0.000000
vn -0.297431 0.942526 -0.152248
vn 0.000000 0.998436 -0.055903
vn 0.000000 1.000000 0.000000
vn 0.000000 1.000000 0.000000
vn 0.000000 0.998436 -0.055903
vn 0.000000 1.000000 0.000000
vn 0.000000 0.997213 -0.074603
vn 0.000000 1.000000 0.000000
vn 0.000000 0.997198 0.074807
vn 0.000000 0.998428 0.056056
vn 0.000000 1.000000 0.000000
vn 0.000000 0.998428 0.056056
vn 0.000000 1.000000 0.000000
vn -0.343604 0.874369 0.342660
vn -0.343604 0.874369 0.342660
vn -0.343604 0.874369 0.342660
vn -0.343604 0.874369 0.342660
vn -0.343604 0.874369 0.342660
vn -0.343604 0.874369 0.342660
vn -0.001254 0.999999 -0.000000
vn -0.005016 0.999987 -0.000000
vn -0.005016 0.999987 -0.000000
vn -0.001254 0.999999 -0.000000
vn -0.005016 0.999987 -0.000000
vn -0.001254 0.999999 -0.000000
vn -0.342495 0.874868 -0.342495
vn -0.342495 0.874868 -0.342495
vn -0.297431 0.942526 -0.152248
vn -0.342495 0.874868 -0.342495
vn -0.297431 0.942526 -0.152248
vn -0.342495 0.874868 -0.342495
vn 0.000000 0.997213 -0.074603
vn 0.000000 1.000000 0.000000
vn 0.000000 1.000000 0.000000
vn 0.000000 0.997213 -0.074603
vn 0.000000 1.000000 0.000000
vn 0.000000 0.998436 -0.055903
vn 0.000000 1.000000 0.000000
vn 0.000000 0.998428 0.056056
vn 0.000000 1.000000 0.000000
vn 0.000000 1.000000 0.000000
vn 0.000000 1.000000 0.000000
vn 0.000000 1.000000 0.000000
vn 0.000000 0.998428 0.056056
vn 0.000000 1.000000 0.000000
vn 0.000000 1.000000 0.000000
vn 0.000000 0.998428 0.056056
vn 0.000000 1.000000 0.000000
vn 0.000000 1.000000 0.000000
vn -0.609874 0.636110 -0.472672
vn -0.609874 0.636110 -0.472672
vn -0.609874 0.636110 -0.472672
vn 0.000000 1.000000 0.000000
vn 0.000000 1.000000 0.000000
vn -0.001254 0.999999 -0.000000
vn 0.000000 1.000000 0.000000
vn 0.000000 0.998436 -0.055903
vn 0.000000 1.000000 0.000000
vn 0.000000 1.000000 0.000000
vn 0.000000 1.000000 0.000000
vn 0.000000 1.000000 0.000000
vn 0.000000 0.998436 -0.055903
vn 0.000000 1.000000 0.000000
vn 0.000000 1.000000 0.000000
vn 0.000000 0.998436 -0.055903
vn 0.000000 1.000000 0.000000
vn 0.000000 1.000000 0.000000
vn 0.000000 1.000000 0.000000
vn 0.000000 1.000000 0.000000
vn 0.000000 1.000000 0.000000
vn 0.000000 1.000000 0.000000
vn 0.000000 1.000000 0.000000
vn 0.000000 1.000000 0.000000
vn 0.000000 1.000000 0.000000
vn 0.000000 1.000000 0.000000
vn 0.000000 1.000000 0.000000
vn 0.000000 1.000000 0.000000
vn 0.000000 1.000000 0.000000
vn 0.000000 1.000000 0.000000
vn 0.000000 1.000000 0.000000
vn -0.001254 0.999999 -0.000000
vn 0.000000 1.000000 0.000000
vn 0.000000 1.000000 0.000000
vn 0.000000 1.000000 0.000000
vn 0.000000 1.000000 0.000000
vn -0.001254 0.999999 -0.000000
vn 0.000000 1.000000 0.000000
vn 0.000000 1.000000 0.000000
vn -0.001254 0.999999 -0.000000
vn 0.000000 1.000000 0.000000
vn 0.000000 1.000000 0.000000
vn -0.001254 0.999999 -0.000000
vn 0.000000 1.000000 0.000000
vn -0.001254 0.999999 -0.000000
vn -0.001254 0.999999 -0.000000
vn 0.000000 1.000000 0.000000
vn 0.000000 1.000000 0.000000
vn -0.001254 0.999999 -0.000000
vn 0.000000 1.000000 0.000000
vn 0.000000 1.000000 0.000000
vn 0.000000 1.000000 0.000000
vn 0.000000 1.000000 0.000000
vn 0.000000 1.000000 0.000000
vn 0.000000 1.000000 0.000000
vn 0.000000 1.000000 0.000000
vn 0.000000 1.000000 0.000000
vn 0.000000 1.000000 0.000000
vn 0.000000 1.000000 0.000000
vn 0.000000 1.000000 0.000000
vn 0.000000 1.000000 0.000000
vn 0.000000 1.000000 0.000000
vn 0.000000 1.000000 0.000000
vn 0.000000 1.000000 0.000000
vn 0.000000 1.000000 0.000000
vn 0.000000 1.000000 0.000000
vn 0.000000 1.000000 0.000000
vn 0.000000 1.000000 0.000000
vn 0.000000 1.000000 0.000000
vn 0.000000 1.000000 0.000000
vn 0.000000 1.000000 0.000000
vn 0.000000 1.000000 0.000000
vn 0.000000 1.000000 0.000000
vn 0.000000 1.000000 0.000000
vn 0.000000 1.000000 0.000000
vn 0.000000 1.000000 0.000000
vn 0.000000 1.000000 0.000000
vn 0.000000 1.000000 0.000000
vn 0.000000 1.000000 0.000000
vn 0.000000 1.000000 0.000000
vn 0.000000 1.000000 0.000000
vn 0.000000 1.000000 0.000000
vn 0.000000 1.000000 0.000000
vn 0.000000 1.000000 0.000000
vn 0.000000 1.000000 0.000000
vn 0.000000 1.000000 0.000000
vn 0.000000 1.000000 0.000000
vn 0.000000 1.000000 0.000000
vn 0.000000 1.000000 0.000000
vn 0.000000 1.000000 0.000000
vn 0.000000 1.000000 0.000000
vn 0.000000 1.000000 0.000000
vn 0.000000 1.000000 0.000000
vn 0.000000 1.000000 0.000000
vn 0.000000 1.000000 0.000000
vn 0.000000 1.000000 0.000000
vn 0.000000 1.000000 0.000000
vn 0.000000 1.000000 0.000000
vn 0.000000 1.000000 0.000000
vn 0.000000 1.000000 0.000000
vn 0.000000 1.000000 0.000000
vn 0.000000 1.000000 0.000000
vn 0.000000 1.000000 0.000000
vn 0.000000 1.000000 0.000000
vn 0.000000 1.000000 0.000000
vn 0.000000 1.000000 0.000000
vn 0.000000 1.000000 0.000000
vn 0.000000 1.000000 0.000000
vn 0.000000 1.000000 0.000000
vn 0.000000 1.000000 0.000000
vn 0.000000 1.000000 0.000000
vn -0.761388 0.648296 0.000000
vn -0.761388 0.648296 0.000000
vn -0.761388 0.648296 0.000000
vn 0.000000 1.000000 0.000000
vn 0.000000 1.000000 0.000000
vn -0.003894 0.999992 0.001248
vn -0.001254 0.999999 -0.000000
vn 0.000000 1.000000 0.000000
vn 0.000000 1.000000 0.000000
vn -0.003894 0.999992 0.001248
vn 0.000000 1.000000 0.000000
vn 0.000000 1.000000 0.000000
vn -0.003894 0.999992 0.001248
vn 0.000000 1.000000 0.000000
vn 0.000000 1.000000 0.000000
vn -0.003894 0.999992 0.001248
vn 0.000000 1.000000 0.000000
vn -0.003894 0.999992 0.001248
vn 0.999590 0.028224 -0.004880
vn 0.999590 0.028224 -0.004880
vn 0.999590 0.028224 -0.004880
vn 0.999590 0.028224 -0.004880
vn 0.999590 0.028224 -0.004880
vn 0.999590 0.028224 -0.004880
vn 0.609629 0.640492 0.467036
vn 0.609629 0.640492 0.467036
vn 0.609629 0.640492 0.467036
vn -0.999741 -0.022758 0.000000
vn -0.999741 -0.022758 0.000000
vn -0.999741 -0.022758 0.000000
vn -0.999741 -0.022758 0.000000
vn -0.999741 -0.022758 0.000000
vn -0.999741 -0.022758 0.000000
vn -0.609874 0.636110 0.472671
vn -0.609874 0.636110 0.472671
vn -0.609874 0.636110 0.472671
vn 0.000000 0.993675 0.112290
vn 0.000000 0.993675 0.112290
vn 0.000000 0.998428 0.056056
vn 0.000000 0.993675 0.112290
vn 0.000000 0.998428 0.056056
vn 0.000000 0.997198 0.074807
vn 0.000000 0.993675 0.112290
vn 0.000000 0.997198 0.074807
vn 0.000000 0.998428 0.056056
vn 0.761388 0.648296 0.000000
vn 0.761388 0.648296 0.000000
vn 0.761388 0.648296 0.000000
vn 0.297431 0.942526 -0.152248
vn 0.000000 0.998436 -0.055903
vn 0.000000 0.997213 -0.074603
vn 0.297431 0.942526 -0.152248
vn 0.000000 0.997213 -0.074603
vn 0.000000 0.998436 -0.055903
vn 0.297431 0.942526 -0.152248
vn 0.000000 0.998436 -0.055903
vn -0.297431 0.942526 -0.152248
vn 0.297431 0.942526 -0.152248
vn 0.761388 0.648296 0.000000
vn 0.761388 0.648296 0.000000
vn 0.000000 0.993675 0.112290
vn 0.000000 0.993675 0.112290
vn 0.000000 1.000000 0.000000
vn 0.000000 0.993675 0.112290
vn 0.000000 1.000000 0.000000
vn 0.000000 1.000000 0.000000
vn 0.000000 0.993675 0.112290
vn 0.000000 1.000000 0.000000
vn 0.297431 0.942526 -0.152248
vn 0.000000 0.993675 0.112290
vn 0.297431 0.942526 -0.152248
vn -0.297431 0.942526 -0.152248
vn 0.000000 0.993675 0.112290
vn -0.297431 0.942526 -0.152248
vn 0.000000 1.000000 0.000000
vn 0.000000 0.993675 0.112290
vn 0.000000 1.000000 0.000000
vn 0.000000 1.000000 0.000000
f 1/1/1 2/2/2 11/3/3
f 1/4/4 11/5/5 10/6/6
f 2/7/7 3/8/8 12/9/9
f 2/10/10 12/11/11 11/12/12
f 3/13/13 4/14/14 13/15/15
f 3/16/16 13/17/17 12/18/18
f 4/19/19 5/20/20 14/21/21
f 4/22/22 14/23/23 13/24/24
f 5/25/25 6/26/26 15/27/27
f 5/28/28 15/29/29 14/30/30
f 6/31/31 7/32/32 16/33/33
f 6/34/34 16/35/35 15/36/36
f 7/37/37 8/38/38 17/39/39
f 7/40/40 17/41/41 16/42/42
f 8/43/43 9/44/44 18/45/45
f 8/46/46 18/47/47 17/48/48
f 10/49/49 11/50/50 20/51/51
f 10/52/52 20/53/53 19/54/54
f 11/55/55 12/56/56 21/57/57
f 11/58/58 21/59/59 20/60/60
f 12/61/61 13/62/62 22/63/63
f 12/64/64 22/65/65 21/66/66
f 24/67/67 80/68/68 79/69/69
f 24/70/70 79/71/71 22/72/72
f 15/73/73 16/74/74 25/75/75
f 15/76/76 25/77/77 24/78/78
f 16/79/79 17/80/80 26/81/81
f 16/82/82 26/83/83 25/84/84
f 17/85/85 18/86/86 27/87/87
f 17/88/88 27/89/89 26/90/90
f 19/91/91 20/92/92 29/93/93
f 19/94/94 29/95/95 28/96/96
f 20/97/97 21/98/98 30/99/99
f 20/100/100 30/101/101 29/102/102
f 30/103/103 22/104/104 32/105/105
f 30/106/106 32/107/107 33/108/108
f 32/109/109 22/110/110 79/111/111
f 31/112/112 41/113/113 24/114/114
f 31/115/115 24/116/116 34/117/117
f 24/118/118 25/119/119 34/120/120
f 25/121/121 26/122/122 35/123/123
f 25/124/124 35/125/125 34/126/126
f 26/127/127 27/128/128 36/129/129
f 26/130/130 36/131/131 35/132/132
f 28/133/133 29/134/134 38/135/135
f 28/136/136 38/137/137 37/138/138
f 51/139/139 50/140/140 47/141/141
f 35/142/142 36/143/143 43/144/144
f 35/145/145 43/146/146 42/147/147
f 37/148/148 38/149/149 45/150/150
f 37/151/151 45/152/152 44/153/153
f 56/154/154 46/155/155 49/156/156
f 56/157/157 49/158/158 39/159/159
f 56/160/160 78/161/161 23/162/162
f 56/163/163 23/164/164 57/165/165
f 57/166/166 40/167/167 47/168/168
f 57/169/169 47/170/170 50/171/171
f 42/172/172 43/173/173 52/174/174
f 42/175/175 52/176/176 51/177/177
f 44/178/178 45/179/179 54/180/180
f 44/181/181 54/182/182 53/183/183
f 45/184/184 46/185/185 55/186/186
f 45/187/187 55/188/188 54/189/189
f 78/190/190 56/191/191 39/192/192
f 50/193/193 58/194/194 57/195/195
f 50/196/196 51/197/197 59/198/198
f 50/199/199 59/200/200 58/201/201
f 51/202/202 52/203/203 60/204/204
f 51/205/205 60/206/206 59/207/207
f 53/208/208 54/209/209 62/210/210
f 53/211/211 62/212/212 61/213/213
f 54/214/214 55/215/215 63/216/216
f 54/217/217 63/218/218 62/219/219
f 55/220/220 56/221/221 64/222/222
f 55/223/223 64/224/224 63/225/225
f 57/226/226 66/227/227 65/228/228
f 57/229/229 65/230/230 64/231/231
f 57/232/232 64/233/233 56/234/234
f 57/235/235 58/236/236 67/237/237
f 57/238/238 67/239/239 66/240/240
f 58/241/241 59/242/242 68/243/243
f 58/244/244 68/245/245 67/246/246
f 59/247/247 60/248/248 69/249/249
f 59/250/250 69/251/251 68/252/252
f 61/253/253 62/254/254 71/255/255
f 61/256/256 71/257/257 70/258/258
f 62/259/259 63/260/260 72/261/261
f 62/262/262 72/263/263 71/264/264
f 63/265/265 64/266/266 73/267/267
f 63/268/268 73/269/269 72/270/270
f 64/271/271 65/272/272 74/273/273
f 64/274/274 74/275/275 73/276/276
f 65/277/277 66/278/278 75/279/279
f 65/280/280 75/281/281 74/282/282
f 66/283/283 67/284/284 76/285/285
f 66/286/286 76/287/287 75/288/288
f 67/289/289 68/290/290 77/291/291
f 67/292/292 77/293/293 76/294/294
f 68/295/295 69/296/296 48/297/297
f 68/298/298 48/299/299 77/300/300
f 49/301/301 46/302/302 45/303/303
f 30/304/304 21/305/305 22/306/306
f 56/307/307 55/308/308 46/309/309
f 22/310/310 13/311/311 14/312/312
f 22/313/313 14/314/314 15/315/315
f 22/316/316 15/317/317 24/318/318
f 41/319/319 32/320/320 79/321/321
f 41/322/322 79/323/323 80/324/324
f 80/325/325 24/326/326 41/327/327
f 39/328/328 40/329/329 23/330/330
f 39/331/331 23/332/332 78/333/333
f 40/334/334 57/335/335 23/336/336
f 33/337/337 49/338/338 45/339/339
f 33/340/340 45/341/341 38/342/342
f 33/343/343 38/344/344 29/345/345
f 29/346/346 30/347/347 33/348/348
f 31/349/349 35/350/350 42/351/351
f 31/352/352 42/353/353 51/354/354
f 31/355/355 51/356/356 47/357/357
f 31/358/358 34/359/359 35/360/360
f 49/361/361 33/362/362 32/363/363
f 49/364/364 32/365/365 41/366/366
f 49/367/367 41/368/368 31/369/369
f 49/370/370 31/371/371 47/372/372
f 49/373/373 47/374/374 40/375/375
f 49/376/376 40/377/377 39/378/378
