v -0.000000 -1.034930 -0.957864
v 0.379619 -1.960546 -0.444370
v -0.386072 -1.957872 -0.444370
v -0.925607 -1.414558 -0.444370
v 0.922933 -1.421010 -0.444370
v 0.925607 -0.655320 -0.444370
v 0.386071 -0.112006 -0.444370
v -0.379619 -0.109332 -0.444370
v -0.922933 -0.648867 -0.444370
v 0.386071 -0.112006 0.581321
v 0.925607 -0.655320 0.581321
v 0.922933 -1.421010 0.581321
v 0.379619 -1.960546 0.581321
v -0.379619 -0.109332 0.581321
v -0.925607 -1.414558 0.581322
v -0.922933 -0.648867 0.581322
v -0.386072 -1.957872 0.581321
v 0.586826 0.367919 -0.445628
v 1.406916 -0.457915 -0.445628
v 1.402852 -1.621759 -0.445628
v 0.577018 -2.441851 -0.445628
v -0.577019 0.371983 -0.445628
v -1.406916 -1.611952 -0.445628
v -1.402852 -0.448107 -0.445628
v -0.586826 -2.437785 -0.445628
v 0.519315 -2.301155 -0.758117
v -0.528142 -2.297497 -0.758117
v 1.262566 -1.563074 -0.758117
v 1.266222 -0.515615 -0.758117
v -1.262566 -0.506788 -0.758117
v -0.519315 0.231291 -0.758117
v 0.528142 0.227633 -0.758117
v -1.266223 -1.554247 -0.758117
v -0.925636 -1.414561 -0.959381
v -0.922963 -0.648860 -0.959381
v -0.379631 -0.109303 -0.959381
v -0.386083 -1.957891 -0.959381
v 0.379631 -1.960568 -0.959382
v 0.386083 -0.111977 -0.959382
v 0.925636 -0.655313 -0.959382
v 0.922963 -1.421013 -0.959382
vt 0.000000 0.000000
vt 0.000000 0.000000
vt 0.000000 0.000000
vt 0.000000 0.000000
vt 0.000000 0.000000
vt 0.000000 0.000000
vt 0.000000 0.000000
vt 0.000000 0.000000
vt 0.000000 0.000000
vt 0.000000 0.000000
vt 0.000000 0.000000
vt 0.000000 0.000000
vt 0.000000 0.000000
vt 0.000000 0.000000
vt 0.000000 0.000000
vt 0.000000 0.000000
vt 0.000000 0.000000
vt 0.000000 0.000000
vt 0.000000 0.000000
vt 0.000000 0.000000
vt 0.000000 0.000000
vt 0.000000 0.000000
vt 0.000000 0.000000
vt 0.000000 0.000000
vt 0.000000 0.000000
vt 0.000000 0.000000
vt 0.000000 0.000000
vt 0.000000 0.000000
vt 0.000000 0.000000
vt 0.000000 0.000000
vt 0.000000 0.000000
vt 0.000000 0.000000
vt 0.000000 0.000000
vt 0.000000 0.000000
vt 0.000000 0.000000
vt 0.000000 0.000000
vt 0.000000 0.000000
vt 0.000000 0.000000
vt 0.000000 0.000000
vt 0.000000 0.000000
vt 0.000000 0.000000
vt 0.000000 0.000000
vt 0.000000 0.000000
vt 0.000000 0.000000
vt 0.000000 0.000000
vt 0.000000 0.000000
vt 0.000000 0.000000
vt 0.000000 0.000000
vt 0.000000 0.000000
vt 0.000000 0.000000
vt 0.000000 0.000000
vt 0.000000 0.000000
vt 0.000000 0.000000
vt 0.000000 0.000000
vt 0.000000 0.000000
vt 0.000000 0.000000
vt 0.000000 0.000000
vt 0.000000 0.000000
vt 0.000000 0.000000
vt 0.000000 0.000000
vt 0.000000 0.000000
vt 0.000000 0.000000
vt 0.000000 0.000000
vt 0.000000 0.000000
vt 0.000000 0.000000
vt 0.000000 0.000000
vt 0.000000 0.000000
vt 0.000000 0.000000
vt 0.000000 0.000000
vt 0.000000 0.000000
vt 0.000000 0.000000
vt 0.000000 0.000000
vt 0.000000 0.000000
vt 0.000000 0.000000
vt 0.000000 0.000000
vt 0.000000 0.000000
vt 0.000000 0.000000
vt 0.000000 0.000000
vt 0.000000 0.000000
vt 0.000000 0.000000
vt 0.000000 0.000000
vt 0.000000 0.000000
vt 0.000000 0.000000
vt 0.000000 0.000000
vt 0.000000 0.000000
vt 0.000000 0.000000
vt 0.000000 0.000000
vt 0.000000 0.000000
vt 0.000000 0.000000
vt 0.000000 0.000000
vt 0.000000 0.000000
vt 0.000000 0.000000
vt 0.000000 0.000000
vt 0.000000 0.000000
vt 0.000000 0.000000
vt 0.000000 0.000000
vt 0.000000 0.000000
vt 0.000000 0.000000
vt 0.000000 0.000000
vt 0.000000 0.000000
vt 0.000000 0.000000
vt 0.000000 0.000000
vt 0.000000 0.000000
vt 0.000000 0.000000
vt 0.000000 0.000000
vt 0.000000 0.000000
vt 0.000000 0.000000
vt 0.000000 0.000000
vt 0.000000 0.000000
vt 0.000000 0.000000
vt 0.000000 0.000000
vt 0.000000 0.000000
vt 0.000000 0.000000
vt 0.000000 0.000000
vt 0.000000 0.000000
vt 0.000000 0.000000
vt 0.000000 0.000000
vt 0.000000 0.000000
vt 0.000000 0.000000
vt 0.000000 0.000000
vt 0.000000 0.000000
vt 0.000000 0.000000
vt 0.000000 0.000000
vt 0.000000 0.000000
vt 0.000000 0.000000
vt 0.000000 0.000000
vt 0.000000 0.000000
vt 0.000000 0.000000
vt 0.000000 0.000000
vt 0.000000 0.000000
vt 0.000000 0.000000
vt 0.000000 0.000000
vt 0.000000 0.000000
vt 0.000000 0.000000
vt 0.000000 0.000000
vt 0.000000 0.000000
vt 0.000000 0.000000
vt 0.000000 0.000000
vt 0.000000 0.000000
vt 0.000000 0.000000
vt 0.000000 0.000000
vt 0.000000 0.000000
vt 0.000000 0.000000
vt 0.000000 0.000000
vt 0.000000 0.000000
vt 0.000000 0.000000
vt 0.000000 0.000000
vt 0.000000 0.000000
vt 0.000000 0.000000
vt 0.000000 0.000000
vt 0.000000 0.000000
vt 0.000000 0.000000
vt 0.000000 0.000000
vt 0.000000 0.000000
vt 0.000000 0.000000
vt 0.000000 0.000000
vt 0.000000 0.000000
vt 0.000000 0.000000
vt 0.000000 0.000000
vt 0.000000 0.000000
vt 0.000000 0.000000
vt 0.000000 0.000000
vt 0.000000 0.000000
vt 0.000000 0.000000
vt 0.000000 0.000000
vt 0.000000 0.000000
vt 0.000000 0.000000
vt 0.000000 0.000000
vt 0.000000 0.000000
vt 0.000000 0.000000
vt 0.000000 0.000000
vt 0.000000 0.000000
vt 0.000000 0.000000
vt 0.000000 0.000000
vt 0.000000 0.000000
vt 0.000000 0.000000
vt 0.000000 0.000000
vt 0.000000 0.000000
vt 0.000000 0.000000
vt 0.000000 0.000000
vt 0.000000 0.000000
vt 0.000000 0.000000
vt 0.000000 0.000000
vt 0.000000 0.000000
vt 0.000000 0.000000
vt 0.000000 0.000000
vt 0.000000 0.000000
vt 0.000000 0.000000
vt 0.000000 0.000000
vt 0.000000 0.000000
vt 0.000000 0.000000
vt 0.000000 0.000000
vt 0.000000 0.000000
vt 0.000000 0.000000
vt 0.000000 0.000000
vt 0.000000 0.000000
vt 0.000000 0.000000
vt 0.000000 0.000000
vt 0.000000 0.000000
vt 0.000000 0.000000
vt 0.000000 0.000000
vt 0.000000 0.000000
vt 0.000000 0.000000
vt 0.000000 0.000000
vt 0.000000 0.000000
vt 0.000000 0.000000
vt 0.000000 0.000000
vt 0.000000 0.000000
vt 0.000000 0.000000
vt 0.000000 0.000000
vt 0.000000 0.000000
vt 0.000000 0.000000
vt 0.000000 0.000000
vt 0.000000 0.000000
vt 0.000000 0.000000
vt 0.000000 0.000000
vt 0.000000 0.000000
vt 0.000000 0.000000
vt 0.000000 0.000000
vt 0.000000 0.000000
vt 0.000000 0.000000
vt 0.000000 0.000000
vt 0.000000 0.000000
vt 0.000000 0.000000
vt 0.000000 0.000000
vt 0.000000 0.000000
vt 0.000000 0.000000
vt 0.000000 0.000000
vt 0.000000 0.000000
vt 0.000000 0.000000
vt 0.000000 0.000000
vt 0.000000 0.000000
vt 0.000000 0.000000
vt 0.000000 0.000000
vn 0.000585 0.001399 -0.999999
vn 0.001403 0.000576 -0.999999
vn -0.000000 -0.000000 -1.000000
vn -0.000576 0.001404 -0.999999
vn 0.000585 0.001399 -0.999999
vn -0.000000 -0.000000 -1.000000
vn 0.001403 0.000576 -0.999999
vn 0.001399 -0.000585 -0.999999
vn -0.000000 -0.000000 -1.000000
vn -0.001400 0.000585 -0.999999
vn -0.000576 0.001404 -0.999999
vn -0.000000 -0.000000 -1.000000
vn -0.001404 -0.000576 -0.999999
vn -0.001400 0.000585 -0.999999
vn -0.000000 -0.000000 -1.000000
vn 0.001399 -0.000585 -0.999999
vn 0.000576 -0.001404 -0.999999
vn -0.000000 -0.000000 -1.000000
vn -0.000586 -0.001400 -0.999999
vn -0.001404 -0.000576 -0.999999
vn -0.000000 -0.000000 -1.000000
vn 0.000576 -0.001404 -0.999999
vn -0.000586 -0.001400 -0.999999
vn -0.000000 -0.000000 -1.000000
vn 0.000000 -0.000000 1.000000
vn 0.000000 -0.000000 1.000000
vn 0.000000 -0.000000 1.000000
vn 0.000000 -0.000000 1.000000
vn 0.000000 -0.000000 1.000000
vn 0.000000 -0.000000 1.000000
vn 0.000000 -0.000000 1.000000
vn 0.000000 -0.000000 1.000000
vn 0.000000 -0.000000 1.000000
vn 0.000000 -0.000000 1.000000
vn 0.000000 -0.000000 1.000000
vn 0.000000 -0.000000 1.000000
vn 0.000000 -0.000000 1.000000
vn 0.000000 -0.000000 1.000000
vn 0.000000 -0.000000 1.000000
vn 0.000000 -0.000000 1.000000
vn 0.000000 -0.000000 1.000000
vn 0.000000 -0.000000 1.000000
vn 0.709570 0.704635 0.000000
vn 0.709570 0.704635 0.000000
vn 0.709570 0.704635 0.000000
vn 0.709570 0.704635 0.000000
vn 0.709570 0.704635 0.000000
vn 0.709570 0.704635 0.000000
vn 0.704635 -0.709570 0.000000
vn 0.704635 -0.709570 0.000000
vn 0.704635 -0.709570 0.000000
vn 0.704635 -0.709570 0.000000
vn 0.704635 -0.709570 0.000000
vn 0.704635 -0.709570 0.000000
vn 0.003492 0.999994 0.000000
vn 0.003492 0.999994 0.000000
vn 0.003492 0.999994 0.000000
vn 0.003492 0.999994 0.000000
vn 0.003492 0.999994 0.000000
vn 0.003492 0.999994 0.000000
vn -0.999994 0.003492 0.000000
vn -0.999994 0.003492 0.000000
vn -0.999994 0.003492 0.000000
vn -0.999994 0.003492 0.000000
vn -0.999994 0.003492 0.000000
vn -0.999994 0.003492 0.000000
vn 0.999994 -0.003492 0.000000
vn 0.999994 -0.003492 0.000000
vn 0.999994 -0.003492 0.000000
vn 0.999994 -0.003492 0.000000
vn 0.999994 -0.003492 0.000000
vn 0.999994 -0.003492 0.000000
vn -0.709570 -0.704635 0.000000
vn -0.709570 -0.704635 0.000000
vn -0.709570 -0.704635 0.000000
vn -0.709570 -0.704635 0.000000
vn -0.709570 -0.704635 0.000000
vn -0.709570 -0.704635 0.000000
vn -0.704635 0.709570 0.000000
vn -0.704635 0.709570 0.000000
vn -0.704635 0.709570 0.000000
vn -0.704635 0.709570 0.000000
vn -0.704635 0.709570 0.000000
vn -0.704635 0.709570 0.000000
vn -0.003492 -0.999994 0.000000
vn -0.003492 -0.999994 0.000000
vn -0.003492 -0.999994 0.000000
vn -0.003492 -0.999994 0.000000
vn -0.003492 -0.999994 0.000000
vn -0.003492 -0.999994 0.000000
vn 0.000933 0.002231 0.999997
vn 0.002238 0.000918 0.999997
vn 0.002238 0.000918 0.999997
vn 0.000933 0.002231 0.999997
vn 0.002238 0.000918 0.999997
vn 0.000933 0.002231 0.999997
vn 0.002231 -0.000933 0.999997
vn 0.000918 -0.002237 0.999997
vn 0.000918 -0.002237 0.999997
vn 0.002231 -0.000933 0.999997
vn 0.000918 -0.002237 0.999997
vn 0.002231 -0.000933 0.999997
vn -0.000918 0.002237 0.999997
vn 0.000933 0.002231 0.999997
vn 0.000933 0.002231 0.999997
vn -0.000918 0.002237 0.999997
vn 0.000933 0.002231 0.999997
vn -0.000918 0.002237 0.999997
vn -0.002237 -0.000918 0.999997
vn -0.002231 0.000933 0.999997
vn -0.002231 0.000933 0.999997
vn -0.002237 -0.000918 0.999997
vn -0.002231 0.000933 0.999997
vn -0.002237 -0.000918 0.999997
vn 0.002238 0.000918 0.999997
vn 0.002231 -0.000933 0.999997
vn 0.002231 -0.000933 0.999997
vn 0.002238 0.000918 0.999997
vn 0.002231 -0.000933 0.999997
vn 0.002238 0.000918 0.999997
vn -0.000933 -0.002231 0.999997
vn -0.002237 -0.000918 0.999997
vn -0.002237 -0.000918 0.999997
vn -0.000933 -0.002231 0.999997
vn -0.002237 -0.000918 0.999997
vn -0.000933 -0.002231 0.999997
vn -0.002231 0.000933 0.999997
vn -0.000918 0.002237 0.999997
vn -0.000918 0.002237 0.999997
vn -0.002231 0.000933 0.999997
vn -0.000918 0.002237 0.999997
vn -0.002231 0.000933 0.999997
vn 0.000918 -0.002237 0.999997
vn -0.000933 -0.002231 0.999997
vn -0.000933 -0.002231 0.999997
vn 0.000918 -0.002237 0.999997
vn -0.000933 -0.002231 0.999997
vn 0.000918 -0.002237 0.999997
vn -0.003186 -0.912055 -0.410056
vn -0.003186 -0.912055 -0.410056
vn -0.003186 -0.912055 -0.410056
vn -0.003186 -0.912055 -0.410056
vn -0.003186 -0.912055 -0.410056
vn -0.003186 -0.912055 -0.410056
vn 0.642670 -0.647170 -0.410056
vn 0.642670 -0.647170 -0.410056
vn 0.642670 -0.647170 -0.410056
vn 0.642670 -0.647170 -0.410056
vn 0.642670 -0.647170 -0.410056
vn 0.642670 -0.647170 -0.410056
vn 0.912057 -0.003184 -0.410051
vn 0.912057 -0.003184 -0.410051
vn 0.912057 -0.003184 -0.410051
vn 0.912057 -0.003184 -0.410051
vn 0.912057 -0.003184 -0.410051
vn 0.912057 -0.003184 -0.410051
vn -0.642671 0.647173 -0.410049
vn -0.642671 0.647173 -0.410049
vn -0.642671 0.647173 -0.410049
vn -0.642671 0.647173 -0.410049
vn -0.642671 0.647173 -0.410049
vn -0.642671 0.647173 -0.410049
vn 0.647172 0.642672 -0.410049
vn 0.647172 0.642672 -0.410049
vn 0.647172 0.642672 -0.410049
vn 0.647172 0.642672 -0.410049
vn 0.647172 0.642672 -0.410049
vn 0.647172 0.642672 -0.410049
vn 0.003185 0.912058 -0.410049
vn 0.003185 0.912058 -0.410049
vn 0.003185 0.912058 -0.410049
vn 0.003185 0.912058 -0.410049
vn 0.003185 0.912058 -0.410049
vn 0.003185 0.912058 -0.410049
vn -0.647170 -0.642670 -0.410056
vn -0.647170 -0.642670 -0.410056
vn -0.647170 -0.642670 -0.410056
vn -0.647170 -0.642670 -0.410056
vn -0.647170 -0.642670 -0.410056
vn -0.647170 -0.642670 -0.410056
vn -0.912057 0.003184 -0.410052
vn -0.912057 0.003184 -0.410052
vn -0.912057 0.003184 -0.410052
vn -0.912057 0.003184 -0.410052
vn -0.912057 0.003184 -0.410052
vn -0.912057 0.003184 -0.410052
vn -0.443842 -0.182033 -0.877422
vn -0.442558 0.185124 -0.877423
vn -0.442558 0.185124 -0.877423
vn -0.443842 -0.182033 -0.877422
vn -0.442558 0.185124 -0.877423
vn -0.443842 -0.182033 -0.877422
vn -0.442558 0.185124 -0.877423
vn -0.182030 0.443835 -0.877426
vn -0.182030 0.443835 -0.877426
vn -0.442558 0.185124 -0.877423
vn -0.182030 0.443835 -0.877426
vn -0.442558 0.185124 -0.877423
vn -0.185127 -0.442560 -0.877422
vn -0.443842 -0.182033 -0.877422
vn -0.443842 -0.182033 -0.877422
vn -0.185127 -0.442560 -0.877422
vn -0.443842 -0.182033 -0.877422
vn -0.185127 -0.442560 -0.877422
vn 0.182032 -0.443841 -0.877422
vn -0.185127 -0.442560 -0.877422
vn -0.185127 -0.442560 -0.877422
vn 0.182032 -0.443841 -0.877422
vn -0.185127 -0.442560 -0.877422
vn 0.182032 -0.443841 -0.877422
vn -0.182030 0.443835 -0.877426
vn 0.185124 0.442553 -0.877425
vn 0.185124 0.442553 -0.877425
vn -0.182030 0.443835 -0.877426
vn 0.185124 0.442553 -0.877425
vn -0.182030 0.443835 -0.877426
vn 0.185124 0.442553 -0.877425
vn 0.443839 0.182030 -0.877423
vn 0.443839 0.182030 -0.877423
vn 0.185124 0.442553 -0.877425
vn 0.443839 0.182030 -0.877423
vn 0.185124 0.442553 -0.877425
vn 0.443839 0.182030 -0.877423
vn 0.442560 -0.185127 -0.877421
vn 0.442560 -0.185127 -0.877421
vn 0.443839 0.182030 -0.877423
vn 0.442560 -0.185127 -0.877421
vn 0.443839 0.182030 -0.877423
vn 0.442560 -0.185127 -0.877421
vn 0.182032 -0.443841 -0.877422
vn 0.182032 -0.443841 -0.877422
vn 0.442560 -0.185127 -0.877421
vn 0.182032 -0.443841 -0.877422
vn 0.442560 -0.185127 -0.877421
f 37/1/1 34/2/2 1/3/3
f 38/4/4 37/5/5 1/6/6
f 34/7/7 35/8/8 1/9/9
f 41/10/10 38/11/11 1/12/12
f 40/13/13 41/14/14 1/15/15
f 35/16/16 36/17/17 1/18/18
f 39/19/19 40/20/20 1/21/21
f 36/22/22 39/23/23 1/24/24
f 11/25/25 10/26/26 14/27/27
f 11/28/28 14/29/29 16/30/30
f 11/31/31 16/32/32 15/33/33
f 11/34/34 15/35/35 17/36/36
f 11/37/37 17/38/38 13/39/39
f 11/40/40 13/41/41 12/42/42
f 6/43/43 7/44/44 10/45/45
f 6/46/46 10/47/47 11/48/48
f 2/49/49 5/50/50 12/51/51
f 2/52/52 12/53/53 13/54/54
f 7/55/55 8/56/56 14/57/57
f 7/58/58 14/59/59 10/60/60
f 9/61/61 4/62/62 15/63/63
f 9/64/64 15/65/65 16/66/66
f 5/67/67 6/68/68 11/69/69
f 5/70/70 11/71/71 12/72/72
f 4/73/73 3/74/74 17/75/75
f 4/76/76 17/77/77 15/78/78
f 8/79/79 9/80/80 16/81/81
f 8/82/82 16/83/83 14/84/84
f 3/85/85 2/86/86 13/87/87
f 3/88/88 13/89/89 17/90/90
f 7/91/91 6/92/92 19/93/93
f 7/94/94 19/95/95 18/96/96
f 5/97/97 2/98/98 21/99/99
f 5/100/100 21/101/101 20/102/102
f 8/103/103 7/104/104 18/105/105
f 8/106/106 18/107/107 22/108/108
f 4/109/109 9/110/110 24/111/111
f 4/112/112 24/113/113 23/114/114
f 6/115/115 5/116/116 20/117/117
f 6/118/118 20/119/119 19/120/120
f 3/121/121 4/122/122 23/123/123
f 3/124/124 23/125/125 25/126/126
f 9/127/127 8/128/128 22/129/129
f 9/130/130 22/131/131 24/132/132
f 2/133/133 3/134/134 25/135/135
f 2/136/136 25/137/137 21/138/138
f 21/139/139 25/140/140 27/141/141
f 21/142/142 27/143/143 26/144/144
f 20/145/145 21/146/146 26/147/147
f 20/148/148 26/149/149 28/150/150
f 19/151/151 20/152/152 28/153/153
f 19/154/154 28/155/155 29/156/156
f 24/157/157 22/158/158 31/159/159
f 24/160/160 31/161/161 30/162/162
f 18/163/163 19/164/164 29/165/165
f 18/166/166 29/167/167 32/168/168
f 22/169/169 18/170/170 32/171/171
f 22/172/172 32/173/173 31/174/174
f 25/175/175 23/176/176 33/177/177
f 25/178/178 33/179/179 27/180/180
f 23/181/181 24/182/182 30/183/183
f 23/184/184 30/185/185 33/186/186
f 33/187/187 30/188/188 35/189/189
f 33/190/190 35/191/191 34/192/192
f 30/193/193 31/194/194 36/195/195
f 30/196/196 36/197/197 35/198/198
f 27/199/199 33/200/200 34/201/201
f 27/202/202 34/203/203 37/204/204
f 26/205/205 27/206/206 37/207/207
f 26/208/208 37/209/209 38/210/210
f 31/211/211 32/212/212 39/213/213
f 31/214/214 39/215/215 36/216/216
f 32/217/217 29/218/218 40/219/219
f 32/220/220 40/221/221 39/222/222
f 29/223/223 28/224/224 41/225/225
f 29/226/226 41/227/227 40/228/228
f 28/229/229 26/230/230 38/231/231
f 28/232/232 38/233/233 41/234/234
