v -0.149263 2.368465 0.149264
v 0.000000 2.368465 0.211090
v -0.211090 2.368465 0.000001
v -0.149263 2.368465 -0.149262
v -0.000000 2.368465 -0.211089
v 0.149263 2.368465 -0.149263
v 0.211090 2.368465 0.000000
v 0.149263 2.368465 0.149263
v 0.092448 1.829097 -0.092448
v -0.000000 1.829097 -0.130740
v -0.092448 1.829097 0.092448
v 0.000000 1.829097 0.130741
v 0.130741 1.829097 0.000000
v -0.130741 1.829097 0.000000
v -0.092448 1.829097 -0.092447
v 0.092448 1.829097 0.092448
v 0.000000 1.931843 0.210548
v 0.148880 1.931843 0.148880
v -0.148880 1.931843 0.148880
v 0.210548 1.931843 0.000000
v -0.210548 1.931843 0.000000
v 0.148879 1.931843 -0.148879
v -0.148880 1.931843 -0.148879
v -0.000000 1.931843 -0.210547
v 0.130247 0.906070 0.000000
v -0.334925 0.504253 0.000000
v -0.213600 0.604927 0.000000
v -0.092098 0.906070 -0.092098
v -0.236828 0.504253 0.236828
v -0.151038 0.604927 0.151038
v 0.000000 0.816744 -0.207299
v 0.000000 0.504253 0.334925
v 0.000000 0.604927 0.213600
v 0.092098 0.906070 -0.092098
v 0.236828 0.504253 0.236828
v 0.151038 0.604927 0.151038
v 0.146583 0.816744 -0.146582
v 0.334925 0.504253 0.000000
v 0.213600 0.604927 0.000000
v 0.000000 0.906070 -0.130246
v 0.236828 0.504253 -0.236828
v 0.151038 0.604927 -0.151038
v -0.146582 0.816744 -0.146582
v 0.000000 0.504253 -0.334925
v 0.000000 0.604927 -0.213600
v 0.207299 0.816744 0.000000
v -0.236828 0.504253 -0.236828
v -0.151038 0.604927 -0.151038
v 0.000000 0.906070 0.130247
v 0.000000 0.816744 0.207299
v -0.092098 0.906070 0.092098
v -0.146582 0.816744 0.146583
v 0.092098 0.906070 0.092098
v 0.146583 0.816744 0.146583
v -0.130247 0.906070 0.000000
v -0.207299 0.816743 0.000000
v 0.000000 -0.260031 0.334925
v 0.236828 -0.260031 0.236828
v -0.236828 -0.260031 0.236828
v 0.334926 -0.260031 0.000000
v 0.236828 -0.260031 -0.236828
v -0.334925 -0.260031 0.000000
v -0.236828 -0.260031 -0.236828
v 0.000000 -0.260031 -0.334925
vt 0.745862 0.045582
vt 0.745862 0.004406
vt 0.789253 0.004406
vt 0.745862 0.045582
vt 0.789253 0.004406
vt 0.789253 0.045582
vt 0.788831 0.045582
vt 0.788831 0.004406
vt 0.832221 0.004406
vt 0.788831 0.045582
vt 0.832221 0.004406
vt 0.832221 0.045582
vt 0.745862 0.045582
vt 0.745862 0.004406
vt 0.789253 0.004406
vt 0.745862 0.045582
vt 0.789253 0.004406
vt 0.789253 0.045582
vt 0.788831 0.045582
vt 0.788831 0.004406
vt 0.832221 0.004406
vt 0.788831 0.045582
vt 0.832221 0.004406
vt 0.832221 0.045582
vt 0.745862 0.045582
vt 0.745862 0.004406
vt 0.789253 0.004406
vt 0.745862 0.045582
vt 0.789253 0.004406
vt 0.789253 0.045582
vt 0.788831 0.045582
vt 0.788831 0.004406
vt 0.832221 0.004406
vt 0.788831 0.045582
vt 0.832221 0.004406
vt 0.832221 0.045582
vt 0.745862 0.045582
vt 0.745862 0.004406
vt 0.789253 0.004406
vt 0.745862 0.045582
vt 0.789253 0.004406
vt 0.789253 0.045582
vt 0.788831 0.045582
vt 0.788831 0.004406
vt 0.832221 0.004406
vt 0.788831 0.045582
vt 0.832221 0.004406
vt 0.832221 0.045582
vt 0.615625 0.911719
vt 0.481250 0.911719
vt 0.481250 0.952344
vt 0.615625 0.911719
vt 0.481250 0.952344
vt 0.615625 0.950781
vt 0.616367 0.951985
vt 0.481490 0.951803
vt 0.480469 0.986719
vt 0.616367 0.951985
vt 0.480469 0.986719
vt 0.616367 0.988338
vt 0.615625 0.911719
vt 0.481250 0.911719
vt 0.481250 0.952344
vt 0.615625 0.911719
vt 0.481250 0.952344
vt 0.615625 0.950781
vt 0.616367 0.951985
vt 0.481490 0.951803
vt 0.480469 0.986719
vt 0.616367 0.951985
vt 0.480469 0.986719
vt 0.616367 0.988338
vt 0.722830 0.000000
vt 0.815130 0.000000
vt 0.722830 0.000000
vt 0.722830 0.000000
vt 0.722830 0.000000
vt 0.500000 0.000000
vt 0.722830 0.000000
vt 0.500000 0.000000
vt 0.277170 0.000000
vt 0.722830 0.000000
vt 0.277170 0.000000
vt 0.184870 0.000000
vt 0.722830 0.000000
vt 0.184870 0.000000
vt 0.277170 0.000000
vt 0.722830 0.000000
vt 0.277170 0.000000
vt 0.500000 0.000000
vt 0.615625 0.911719
vt 0.481250 0.911719
vt 0.481250 0.952344
vt 0.615625 0.911719
vt 0.481250 0.952344
vt 0.615625 0.950781
vt 0.616367 0.951985
vt 0.481490 0.951803
vt 0.480469 0.986719
vt 0.616367 0.951985
vt 0.480469 0.986719
vt 0.616367 0.988338
vt 0.615625 0.911719
vt 0.481250 0.911719
vt 0.481250 0.952344
vt 0.615625 0.911719
vt 0.481250 0.952344
vt 0.615625 0.950781
vt 0.616367 0.951985
vt 0.481490 0.951803
vt 0.480469 0.986719
vt 0.616367 0.951985
vt 0.480469 0.986719
vt 0.616367 0.988338
vt 0.831000 0.412448
vt 0.832221 0.045582
vt 0.788831 0.045582
vt 0.831000 0.412448
vt 0.788831 0.045582
vt 0.789281 0.412448
vt 0.993910 0.415395
vt 0.993910 0.012586
vt 0.857923 0.012586
vt 0.993910 0.415395
vt 0.857923 0.012586
vt 0.857923 0.415395
vt 0.316736 0.951172
vt 0.316736 0.993550
vt 0.348708 0.993550
vt 0.316736 0.951172
vt 0.348708 0.993550
vt 0.348708 0.951172
vt 0.784125 0.412448
vt 0.785346 0.045582
vt 0.741956 0.045582
vt 0.784125 0.412448
vt 0.741956 0.045582
vt 0.742406 0.412448
vt 0.993910 0.415395
vt 0.993910 0.012586
vt 0.857923 0.012586
vt 0.993910 0.415395
vt 0.857923 0.012586
vt 0.857923 0.415395
vt 0.316736 0.908793
vt 0.316736 0.951172
vt 0.348708 0.951172
vt 0.316736 0.908793
vt 0.348708 0.951172
vt 0.348708 0.908793
vt 0.831000 0.412448
vt 0.832221 0.045582
vt 0.788831 0.045582
vt 0.831000 0.412448
vt 0.788831 0.045582
vt 0.789281 0.412448
vt 0.993910 0.415395
vt 0.993910 0.012586
vt 0.857923 0.012586
vt 0.993910 0.415395
vt 0.857923 0.012586
vt 0.857923 0.415395
vt 0.316736 0.951172
vt 0.316736 0.993550
vt 0.348708 0.993550
vt 0.316736 0.951172
vt 0.348708 0.993550
vt 0.348708 0.951172
vt 0.784125 0.412448
vt 0.785346 0.045582
vt 0.741956 0.045582
vt 0.784125 0.412448
vt 0.741956 0.045582
vt 0.742406 0.412448
vt 0.993910 0.415395
vt 0.993910 0.012586
vt 0.857923 0.012586
vt 0.993910 0.415395
vt 0.857923 0.012586
vt 0.857923 0.415395
vt 0.316736 0.908793
vt 0.316736 0.951172
vt 0.348708 0.951172
vt 0.316736 0.908793
vt 0.348708 0.951172
vt 0.348708 0.908793
vt 0.460607 0.951172
vt 0.428636 0.951172
vt 0.428636 0.993550
vt 0.460607 0.951172
vt 0.428636 0.993550
vt 0.460607 0.993550
vt 0.831000 0.412448
vt 0.832221 0.045582
vt 0.788831 0.045582
vt 0.831000 0.412448
vt 0.788831 0.045582
vt 0.789281 0.412448
vt 0.993910 0.415395
vt 0.993910 0.012586
vt 0.857923 0.012586
vt 0.993910 0.415395
vt 0.857923 0.012586
vt 0.857923 0.415395
vt 0.316736 0.951172
vt 0.316736 0.993550
vt 0.348708 0.993550
vt 0.316736 0.951172
vt 0.348708 0.993550
vt 0.348708 0.951172
vt 0.784125 0.412448
vt 0.785346 0.045582
vt 0.741956 0.045582
vt 0.784125 0.412448
vt 0.741956 0.045582
vt 0.742406 0.412448
vt 0.831000 0.412448
vt 0.832221 0.045582
vt 0.788831 0.045582
vt 0.831000 0.412448
vt 0.788831 0.045582
vt 0.789281 0.412448
vt 0.993910 0.415395
vt 0.993910 0.012586
vt 0.857923 0.012586
vt 0.993910 0.415395
vt 0.857923 0.012586
vt 0.857923 0.415395
vt 0.316736 0.908793
vt 0.316736 0.951172
vt 0.348708 0.951172
vt 0.316736 0.908793
vt 0.348708 0.951172
vt 0.348708 0.908793
vt 0.784125 0.412448
vt 0.785346 0.045582
vt 0.741956 0.045582
vt 0.784125 0.412448
vt 0.741956 0.045582
vt 0.742406 0.412448
vt 0.993910 0.415395
vt 0.993910 0.012586
vt 0.857923 0.012586
vt 0.993910 0.415395
vt 0.857923 0.012586
vt 0.857923 0.415395
vt 0.316736 0.951172
vt 0.316736 0.993550
vt 0.348708 0.993550
vt 0.316736 0.951172
vt 0.348708 0.993550
vt 0.348708 0.951172
vt 0.460607 0.908793
vt 0.428636 0.908793
vt 0.428636 0.951172
vt 0.460607 0.908793
vt 0.428636 0.951172
vt 0.460607 0.951172
vt 0.993910 0.415395
vt 0.993910 0.012586
vt 0.857923 0.012586
vt 0.993910 0.415395
vt 0.857923 0.012586
vt 0.857923 0.415395
vt 0.316736 0.908793
vt 0.316736 0.951172
vt 0.348708 0.951172
vt 0.316736 0.908793
vt 0.348708 0.951172
vt 0.348708 0.908793
vt 0.460607 0.908793
vt 0.428636 0.908793
vt 0.428636 0.951172
vt 0.460607 0.908793
vt 0.428636 0.951172
vt 0.460607 0.951172
vt 0.460607 0.951172
vt 0.428636 0.951172
vt 0.428636 0.993550
vt 0.460607 0.951172
vt 0.428636 0.993550
vt 0.460607 0.993550
vt 0.460607 0.908793
vt 0.428636 0.908793
vt 0.428636 0.951172
vt 0.460607 0.908793
vt 0.428636 0.951172
vt 0.460607 0.951172
vt 0.460607 0.951172
vt 0.428636 0.951172
vt 0.428636 0.993550
vt 0.460607 0.951172
vt 0.428636 0.993550
vt 0.460607 0.993550
vt 0.460607 0.951172
vt 0.428636 0.951172
vt 0.428636 0.993550
vt 0.460607 0.951172
vt 0.428636 0.993550
vt 0.460607 0.993550
vt 0.460607 0.908793
vt 0.428636 0.908793
vt 0.428636 0.951172
vt 0.460607 0.908793
vt 0.428636 0.951172
vt 0.460607 0.951172
vt 0.428636 0.951172
vt 0.348708 0.951172
vt 0.348708 0.993550
vt 0.428636 0.951172
vt 0.348708 0.993550
vt 0.428636 0.993550
vt 0.428636 0.908793
vt 0.348708 0.908793
vt 0.348708 0.951172
vt 0.428636 0.908793
vt 0.348708 0.951172
vt 0.428636 0.951172
vt 0.428636 0.951172
vt 0.348708 0.951172
vt 0.348708 0.993550
vt 0.428636 0.951172
vt 0.348708 0.993550
vt 0.428636 0.993550
vt 0.428636 0.908793
vt 0.348708 0.908793
vt 0.348708 0.951172
vt 0.428636 0.908793
vt 0.348708 0.951172
vt 0.428636 0.951172
vt 0.428636 0.951172
vt 0.348708 0.951172
vt 0.348708 0.993550
vt 0.428636 0.951172
vt 0.348708 0.993550
vt 0.428636 0.993550
vt 0.428636 0.908793
vt 0.348708 0.908793
vt 0.348708 0.951172
vt 0.428636 0.908793
vt 0.348708 0.951172
vt 0.428636 0.951172
vt 0.428636 0.908793
vt 0.348708 0.908793
vt 0.348708 0.951172
vt 0.428636 0.908793
vt 0.348708 0.951172
vt 0.428636 0.951172
vt 0.428636 0.951172
vt 0.348708 0.951172
vt 0.348708 0.993550
vt 0.428636 0.951172
vt 0.348708 0.993550
vt 0.428636 0.993550
vn -0.667724 -0.329072 -0.667724
vn -0.667644 -0.329400 -0.667643
vn -0.000001 -0.329400 -0.944190
vn -0.667724 -0.329072 -0.667724
vn -0.000001 -0.329400 -0.944190
vn -0.000000 -0.329072 -0.944305
vn -0.000000 -0.329072 -0.944305
vn -0.000001 -0.329400 -0.944190
vn 0.667643 -0.329400 -0.667644
vn -0.000000 -0.329072 -0.944305
vn 0.667643 -0.329400 -0.667644
vn 0.667724 -0.329072 -0.667725
vn 0.667724 -0.329072 -0.667725
vn 0.667643 -0.329400 -0.667644
vn 0.944190 -0.329400 -0.000001
vn 0.667724 -0.329072 -0.667725
vn 0.944190 -0.329400 -0.000001
vn 0.944305 -0.329072 -0.000000
vn 0.944305 -0.329072 -0.000000
vn 0.944190 -0.329400 -0.000001
vn 0.667644 -0.329401 0.667643
vn 0.944305 -0.329072 -0.000000
vn 0.667644 -0.329401 0.667643
vn 0.667725 -0.329072 0.667724
vn 0.667725 -0.329072 0.667724
vn 0.667644 -0.329401 0.667643
vn 0.000001 -0.329401 0.944190
vn 0.667725 -0.329072 0.667724
vn 0.000001 -0.329401 0.944190
vn 0.000001 -0.329073 0.944305
vn 0.000001 -0.329073 0.944305
vn 0.000001 -0.329401 0.944190
vn -0.667643 -0.329401 0.667644
vn 0.000001 -0.329073 0.944305
vn -0.667643 -0.329401 0.667644
vn -0.667724 -0.329073 0.667725
vn -0.667724 -0.329073 0.667725
vn -0.667643 -0.329401 0.667644
vn -0.944190 -0.329401 0.000001
vn -0.667724 -0.329073 0.667725
vn -0.944190 -0.329401 0.000001
vn -0.944305 -0.329072 0.000000
vn -0.944305 -0.329072 0.000000
vn -0.944190 -0.329401 0.000001
vn -0.667644 -0.329400 -0.667643
vn -0.944305 -0.329072 0.000000
vn -0.667644 -0.329400 -0.667643
vn -0.667724 -0.329072 -0.667724
vn -0.667643 -0.329401 0.667644
vn -0.707106 -0.001242 0.707107
vn -0.999999 -0.001242 0.000001
vn -0.667643 -0.329401 0.667644
vn -0.999999 -0.001242 0.000001
vn -0.944190 -0.329401 0.000001
vn 0.000001 -0.329401 0.944190
vn 0.000001 -0.001242 0.999999
vn -0.707106 -0.001242 0.707107
vn 0.000001 -0.329401 0.944190
vn -0.707106 -0.001242 0.707107
vn -0.667643 -0.329401 0.667644
vn 0.667644 -0.329401 0.667643
vn 0.707107 -0.001242 0.707106
vn 0.000001 -0.001242 0.999999
vn 0.667644 -0.329401 0.667643
vn 0.000001 -0.001242 0.999999
vn 0.000001 -0.329401 0.944190
vn 0.944190 -0.329400 -0.000001
vn 0.999999 -0.001242 -0.000001
vn 0.707107 -0.001242 0.707106
vn 0.944190 -0.329400 -0.000001
vn 0.707107 -0.001242 0.707106
vn 0.667644 -0.329401 0.667643
vn -0.000000 1.000000 0.000000
vn -0.000000 1.000000 0.000000
vn -0.000000 1.000000 0.000000
vn -0.000000 1.000000 0.000000
vn -0.000000 1.000000 0.000000
vn -0.000000 1.000000 0.000000
vn -0.000000 1.000000 0.000000
vn -0.000000 1.000000 0.000000
vn -0.000000 1.000000 0.000000
vn -0.000000 1.000000 0.000000
vn -0.000000 1.000000 0.000000
vn -0.000000 1.000000 0.000000
vn -0.000000 1.000000 0.000000
vn -0.000000 1.000000 0.000000
vn -0.000000 1.000000 0.000000
vn -0.000000 1.000000 0.000000
vn -0.000000 1.000000 0.000000
vn -0.000000 1.000000 0.000000
vn 0.667643 -0.329400 -0.667644
vn 0.707106 -0.001242 -0.707107
vn 0.999999 -0.001242 -0.000001
vn 0.667643 -0.329400 -0.667644
vn 0.999999 -0.001242 -0.000001
vn 0.944190 -0.329400 -0.000001
vn -0.000001 -0.329400 -0.944190
vn -0.000001 -0.001242 -0.999999
vn 0.707106 -0.001242 -0.707107
vn -0.000001 -0.329400 -0.944190
vn 0.707106 -0.001242 -0.707107
vn 0.667643 -0.329400 -0.667644
vn -0.667644 -0.329400 -0.667643
vn -0.707107 -0.001242 -0.707106
vn -0.000001 -0.001242 -0.999999
vn -0.667644 -0.329400 -0.667643
vn -0.000001 -0.001242 -0.999999
vn -0.000001 -0.329400 -0.944190
vn -0.944190 -0.329401 0.000001
vn -0.999999 -0.001242 0.000001
vn -0.707107 -0.001242 -0.707106
vn -0.944190 -0.329401 0.000001
vn -0.707107 -0.001242 -0.707106
vn -0.667644 -0.329400 -0.667643
vn -0.661377 0.353781 0.661377
vn -0.667724 -0.329073 0.667725
vn -0.944305 -0.329072 0.000000
vn -0.661377 0.353781 0.661377
vn -0.944305 -0.329072 0.000000
vn -0.935328 0.353781 0.000000
vn -0.707107 -0.000000 0.707107
vn -0.636796 0.434719 0.636797
vn -0.900566 0.434719 0.000000
vn -0.707107 -0.000000 0.707107
vn -0.900566 0.434719 0.000000
vn -1.000000 -0.000000 -0.000000
vn -0.900566 0.434719 0.000000
vn -0.636796 0.434719 0.636797
vn -0.632289 0.447683 0.632290
vn -0.900566 0.434719 0.000000
vn -0.632289 0.447683 0.632290
vn -0.894192 0.447683 0.000000
vn 0.000000 0.353781 0.935328
vn 0.000001 -0.329073 0.944305
vn -0.667724 -0.329073 0.667725
vn 0.000000 0.353781 0.935328
vn -0.667724 -0.329073 0.667725
vn -0.661377 0.353781 0.661377
vn 0.000000 -0.000000 1.000000
vn 0.000000 0.434719 0.900566
vn -0.636796 0.434719 0.636797
vn 0.000000 -0.000000 1.000000
vn -0.636796 0.434719 0.636797
vn -0.707107 -0.000000 0.707107
vn -0.636796 0.434719 0.636797
vn 0.000000 0.434719 0.900566
vn 0.000000 0.447683 0.894192
vn -0.636796 0.434719 0.636797
vn 0.000000 0.447683 0.894192
vn -0.632289 0.447683 0.632290
vn 0.661377 0.353782 0.661377
vn 0.667725 -0.329072 0.667724
vn 0.000001 -0.329073 0.944305
vn 0.661377 0.353782 0.661377
vn 0.000001 -0.329073 0.944305
vn 0.000000 0.353781 0.935328
vn 0.707107 0.000000 0.707107
vn 0.636796 0.434719 0.636797
vn 0.000000 0.434719 0.900566
vn 0.707107 0.000000 0.707107
vn 0.000000 0.434719 0.900566
vn 0.000000 -0.000000 1.000000
vn 0.000000 0.434719 0.900566
vn 0.636796 0.434719 0.636797
vn 0.632289 0.447683 0.632290
vn 0.000000 0.434719 0.900566
vn 0.632289 0.447683 0.632290
vn 0.000000 0.447683 0.894192
vn 0.935328 0.353782 -0.000000
vn 0.944305 -0.329072 -0.000000
vn 0.667725 -0.329072 0.667724
vn 0.935328 0.353782 -0.000000
vn 0.667725 -0.329072 0.667724
vn 0.661377 0.353782 0.661377
vn 1.000000 0.000000 0.000000
vn 0.900566 0.434719 0.000000
vn 0.636796 0.434719 0.636797
vn 1.000000 0.000000 0.000000
vn 0.636796 0.434719 0.636797
vn 0.707107 0.000000 0.707107
vn 0.636796 0.434719 0.636797
vn 0.900566 0.434719 0.000000
vn 0.894192 0.447683 0.000000
vn 0.636796 0.434719 0.636797
vn 0.894192 0.447683 0.000000
vn 0.632289 0.447683 0.632290
vn -0.935328 0.353781 0.000000
vn -0.929972 0.367631 0.000000
vn -0.657589 0.367631 0.657589
vn -0.935328 0.353781 0.000000
vn -0.657589 0.367631 0.657589
vn -0.661377 0.353781 0.661377
vn 0.661377 0.353782 -0.661377
vn 0.667724 -0.329072 -0.667725
vn 0.944305 -0.329072 -0.000000
vn 0.661377 0.353782 -0.661377
vn 0.944305 -0.329072 -0.000000
vn 0.935328 0.353782 -0.000000
vn 0.707107 0.000000 -0.707107
vn 0.636796 0.434719 -0.636796
vn 0.900566 0.434719 0.000000
vn 0.707107 0.000000 -0.707107
vn 0.900566 0.434719 0.000000
vn 1.000000 0.000000 0.000000
vn 0.900566 0.434719 0.000000
vn 0.636796 0.434719 -0.636796
vn 0.632289 0.447683 -0.632289
vn 0.900566 0.434719 0.000000
vn 0.632289 0.447683 -0.632289
vn 0.894192 0.447683 0.000000
vn -0.000000 0.353781 -0.935328
vn -0.000000 -0.329072 -0.944305
vn 0.667724 -0.329072 -0.667725
vn -0.000000 0.353781 -0.935328
vn 0.667724 -0.329072 -0.667725
vn 0.661377 0.353782 -0.661377
vn -0.661377 0.353781 -0.661377
vn -0.667724 -0.329072 -0.667724
vn -0.000000 -0.329072 -0.944305
vn -0.661377 0.353781 -0.661377
vn -0.000000 -0.329072 -0.944305
vn -0.000000 0.353781 -0.935328
vn -0.000000 0.000000 -1.000000
vn -0.000000 0.434719 -0.900566
vn 0.636796 0.434719 -0.636796
vn -0.000000 0.000000 -1.000000
vn 0.636796 0.434719 -0.636796
vn 0.707107 0.000000 -0.707107
vn 0.636796 0.434719 -0.636796
vn -0.000000 0.434719 -0.900566
vn -0.000000 0.447683 -0.894192
vn 0.636796 0.434719 -0.636796
vn -0.000000 0.447683 -0.894192
vn 0.632289 0.447683 -0.632289
vn -0.935328 0.353781 0.000000
vn -0.944305 -0.329072 0.000000
vn -0.667724 -0.329072 -0.667724
vn -0.935328 0.353781 0.000000
vn -0.667724 -0.329072 -0.667724
vn -0.661377 0.353781 -0.661377
vn -0.707107 -0.000000 -0.707107
vn -0.636796 0.434719 -0.636797
vn -0.000000 0.434719 -0.900566
vn -0.707107 -0.000000 -0.707107
vn -0.000000 0.434719 -0.900566
vn -0.000000 0.000000 -1.000000
vn -0.000000 0.434719 -0.900566
vn -0.636796 0.434719 -0.636797
vn -0.632289 0.447683 -0.632289
vn -0.000000 0.434719 -0.900566
vn -0.632289 0.447683 -0.632289
vn -0.000000 0.447683 -0.894192
vn -0.661377 0.353781 -0.661377
vn -0.657589 0.367631 -0.657589
vn -0.929972 0.367631 0.000000
vn -0.661377 0.353781 -0.661377
vn -0.929972 0.367631 0.000000
vn -0.935328 0.353781 0.000000
vn -1.000000 -0.000000 -0.000000
vn -0.900566 0.434719 0.000000
vn -0.636796 0.434719 -0.636797
vn -1.000000 -0.000000 -0.000000
vn -0.636796 0.434719 -0.636797
vn -0.707107 -0.000000 -0.707107
vn -0.636796 0.434719 -0.636797
vn -0.900566 0.434719 0.000000
vn -0.894192 0.447683 0.000000
vn -0.636796 0.434719 -0.636797
vn -0.894192 0.447683 0.000000
vn -0.632289 0.447683 -0.632289
vn -0.661377 0.353781 0.661377
vn -0.657589 0.367631 0.657589
vn 0.000000 0.367631 0.929972
vn -0.661377 0.353781 0.661377
vn 0.000000 0.367631 0.929972
vn 0.000000 0.353781 0.935328
vn 0.000000 0.353781 0.935328
vn 0.000000 0.367631 0.929972
vn 0.657589 0.367631 0.657589
vn 0.000000 0.353781 0.935328
vn 0.657589 0.367631 0.657589
vn 0.661377 0.353782 0.661377
vn 0.661377 0.353782 0.661377
vn 0.657589 0.367631 0.657589
vn 0.929972 0.367631 -0.000000
vn 0.661377 0.353782 0.661377
vn 0.929972 0.367631 -0.000000
vn 0.935328 0.353782 -0.000000
vn 0.935328 0.353782 -0.000000
vn 0.929972 0.367631 -0.000000
vn 0.657589 0.367631 -0.657589
vn 0.935328 0.353782 -0.000000
vn 0.657589 0.367631 -0.657589
vn 0.661377 0.353782 -0.661377
vn -0.000000 0.353781 -0.935328
vn -0.000000 0.367631 -0.929972
vn -0.657589 0.367631 -0.657589
vn -0.000000 0.353781 -0.935328
vn -0.657589 0.367631 -0.657589
vn -0.661377 0.353781 -0.661377
vn 0.661377 0.353782 -0.661377
vn 0.657589 0.367631 -0.657589
vn -0.000000 0.367631 -0.929972
vn 0.661377 0.353782 -0.661377
vn -0.000000 0.367631 -0.929972
vn -0.000000 0.353781 -0.935328
vn -0.000000 0.367631 -0.929972
vn -0.000000 0.447683 -0.894192
vn -0.632289 0.447683 -0.632289
vn -0.000000 0.367631 -0.929972
vn -0.632289 0.447683 -0.632289
vn -0.657589 0.367631 -0.657589
vn -0.657589 0.367631 -0.657589
vn -0.632289 0.447683 -0.632289
vn -0.894192 0.447683 0.000000
vn -0.657589 0.367631 -0.657589
vn -0.894192 0.447683 0.000000
vn -0.929972 0.367631 0.000000
vn 0.000000 0.367631 0.929972
vn 0.000000 0.447683 0.894192
vn 0.632289 0.447683 0.632290
vn 0.000000 0.367631 0.929972
vn 0.632289 0.447683 0.632290
vn 0.657589 0.367631 0.657589
vn 0.657589 0.367631 0.657589
vn 0.632289 0.447683 0.632290
vn 0.894192 0.447683 0.000000
vn 0.657589 0.367631 0.657589
vn 0.894192 0.447683 0.000000
vn 0.929972 0.367631 -0.000000
vn 0.929972 0.367631 -0.000000
vn 0.894192 0.447683 0.000000
vn 0.632289 0.447683 -0.632289
vn 0.929972 0.367631 -0.000000
vn 0.632289 0.447683 -0.632289
vn 0.657589 0.367631 -0.657589
vn 0.657589 0.367631 -0.657589
vn 0.632289 0.447683 -0.632289
vn -0.000000 0.447683 -0.894192
vn 0.657589 0.367631 -0.657589
vn -0.000000 0.447683 -0.894192
vn -0.000000 0.367631 -0.929972
vn -0.657589 0.367631 0.657589
vn -0.632289 0.447683 0.632290
vn 0.000000 0.447683 0.894192
vn -0.657589 0.367631 0.657589
vn 0.000000 0.447683 0.894192
vn 0.000000 0.367631 0.929972
vn -0.929972 0.367631 0.000000
vn -0.894192 0.447683 0.000000
vn -0.632289 0.447683 0.632290
vn -0.929972 0.367631 0.000000
vn -0.632289 0.447683 0.632290
vn -0.657589 0.367631 0.657589
f 15/1/1 23/2/2 24/3/3
f 15/4/4 24/5/5 10/6/6
f 10/7/7 24/8/8 22/9/9
f 10/10/10 22/11/11 9/12/12
f 9/13/13 22/14/14 20/15/15
f 9/16/16 20/17/17 13/18/18
f 13/19/19 20/20/20 18/21/21
f 13/22/22 18/23/23 16/24/24
f 16/25/25 18/26/26 17/27/27
f 16/28/28 17/29/29 12/30/30
f 12/31/31 17/32/32 19/33/33
f 12/34/34 19/35/35 11/36/36
f 11/37/37 19/38/38 21/39/39
f 11/40/40 21/41/41 14/42/42
f 14/43/43 21/44/44 23/45/45
f 14/46/46 23/47/47 15/48/48
f 19/49/49 1/50/50 3/51/51
f 19/52/52 3/53/53 21/54/54
f 17/55/55 2/56/56 1/57/57
f 17/58/58 1/59/59 19/60/60
f 18/61/61 8/62/62 2/63/63
f 18/64/64 2/65/65 17/66/66
f 20/67/67 7/68/68 8/69/69
f 20/70/70 8/71/71 18/72/72
f 4/73/73 3/74/74 1/75/75
f 4/76/76 1/77/77 2/78/78
f 4/79/79 2/80/80 8/81/81
f 4/82/82 8/83/83 7/84/84
f 4/85/85 7/86/86 6/87/87
f 4/88/88 6/89/89 5/90/90
f 22/91/91 6/92/92 7/93/93
f 22/94/94 7/95/95 20/96/96
f 24/97/97 5/98/98 6/99/99
f 24/100/100 6/101/101 22/102/102
f 23/103/103 4/104/104 5/105/105
f 23/106/106 5/107/107 24/108/108
f 21/109/109 3/110/110 4/111/111
f 21/112/112 4/113/113 23/114/114
f 51/115/115 11/116/116 14/117/117
f 51/118/118 14/119/119 55/120/120
f 59/121/121 29/122/122 26/123/123
f 59/124/124 26/125/125 62/126/126
f 26/127/127 29/128/128 30/129/129
f 26/130/130 30/131/131 27/132/132
f 49/133/133 12/134/134 11/135/135
f 49/136/136 11/137/137 51/138/138
f 57/139/139 32/140/140 29/141/141
f 57/142/142 29/143/143 59/144/144
f 29/145/145 32/146/146 33/147/147
f 29/148/148 33/149/149 30/150/150
f 53/151/151 16/152/152 12/153/153
f 53/154/154 12/155/155 49/156/156
f 58/157/157 35/158/158 32/159/159
f 58/160/160 32/161/161 57/162/162
f 32/163/163 35/164/164 36/165/165
f 32/166/166 36/167/167 33/168/168
f 25/169/169 13/170/170 16/171/171
f 25/172/172 16/173/173 53/174/174
f 60/175/175 38/176/176 35/177/177
f 60/178/178 35/179/179 58/180/180
f 35/181/181 38/182/182 39/183/183
f 35/184/184 39/185/185 36/186/186
f 55/187/187 56/188/188 52/189/189
f 55/190/190 52/191/191 51/192/192
f 34/193/193 9/194/194 13/195/195
f 34/196/196 13/197/197 25/198/198
f 61/199/199 41/200/200 38/201/201
f 61/202/202 38/203/203 60/204/204
f 38/205/205 41/206/206 42/207/207
f 38/208/208 42/209/209 39/210/210
f 40/211/211 10/212/212 9/213/213
f 40/214/214 9/215/215 34/216/216
f 28/217/217 15/218/218 10/219/219
f 28/220/220 10/221/221 40/222/222
f 64/223/223 44/224/224 41/225/225
f 64/226/226 41/227/227 61/228/228
f 41/229/229 44/230/230 45/231/231
f 41/232/232 45/233/233 42/234/234
f 55/235/235 14/236/236 15/237/237
f 55/238/238 15/239/239 28/240/240
f 63/241/241 47/242/242 44/243/243
f 63/244/244 44/245/245 64/246/246
f 44/247/247 47/248/248 48/249/249
f 44/250/250 48/251/251 45/252/252
f 28/253/253 43/254/254 56/255/255
f 28/256/256 56/257/257 55/258/258
f 62/259/259 26/260/260 47/261/261
f 62/262/262 47/263/263 63/264/264
f 47/265/265 26/266/266 27/267/267
f 47/268/268 27/269/269 48/270/270
f 51/271/271 52/272/272 50/273/273
f 51/274/274 50/275/275 49/276/276
f 49/277/277 50/278/278 54/279/279
f 49/280/280 54/281/281 53/282/282
f 53/283/283 54/284/284 46/285/285
f 53/286/286 46/287/287 25/288/288
f 25/289/289 46/290/290 37/291/291
f 25/292/292 37/293/293 34/294/294
f 40/295/295 31/296/296 43/297/297
f 40/298/298 43/299/299 28/300/300
f 34/301/301 37/302/302 31/303/303
f 34/304/304 31/305/305 40/306/306
f 31/307/307 45/308/308 48/309/309
f 31/310/310 48/311/311 43/312/312
f 43/313/313 48/314/314 27/315/315
f 43/316/316 27/317/317 56/318/318
f 50/319/319 33/320/320 36/321/321
f 50/322/322 36/323/323 54/324/324
f 54/325/325 36/326/326 39/327/327
f 54/328/328 39/329/329 46/330/330
f 46/331/331 39/332/332 42/333/333
f 46/334/334 42/335/335 37/336/336
f 37/337/337 42/338/338 45/339/339
f 37/340/340 45/341/341 31/342/342
f 52/343/343 30/344/344 33/345/345
f 52/346/346 33/347/347 50/348/348
f 56/349/349 27/350/350 30/351/351
f 56/352/352 30/353/353 52/354/354
