v -5.000000 -1.000000 -7.000000
v -1.516000 -0.500000 -3.000000
v -5.000000 0.000000 -8.000000
v -1.516000 0.000000 -8.000000
v 1.516000 -0.500000 -3.000000
v 1.516000 0.000000 -8.000000
v 5.000000 0.000000 -8.000000
v 1.516000 0.000000 -3.000000
v -1.516000 0.000000 -3.000000
v -5.000000 0.000000 0.000000
v -1.516000 0.000000 0.000000
v 1.516000 0.000000 0.000000
v 5.000000 0.000000 0.000000
v -5.000000 -0.500000 -3.000000
v 5.000000 -0.500000 -3.000000
v -5.000000 0.000000 -3.000000
v 5.000000 0.000000 -3.000000
v 5.000000 -1.000000 -7.000000
v 1.516000 -1.000000 -7.000000
v -1.516000 -1.000000 -7.000000
vt 0.357153 0.479179
vt 0.356948 0.572928
vt 0.263198 0.572723
vt 0.357153 0.479179
vt 0.263198 0.572723
vt 0.263404 0.478974
vt 0.357153 0.482213
vt 0.356948 0.575963
vt 0.263199 0.575758
vt 0.357153 0.482213
vt 0.263199 0.575758
vt 0.263404 0.482008
vt 0.349609 0.445312
vt 0.449456 0.434272
vt 0.350586 0.422852
vt 0.350586 0.422852
vt 0.190430 0.410156
vt 0.220703 0.452148
vt 0.350586 0.422852
vt 0.220703 0.452148
vt 0.349609 0.445312
vt 0.433594 0.496094
vt 0.433594 0.402344
vt 0.339844 0.402344
vt 0.433594 0.496094
vt 0.339844 0.402344
vt 0.339844 0.496094
vt 0.343750 0.593750
vt 0.343750 0.718750
vt 0.437500 0.718750
vt 0.343750 0.593750
vt 0.437500 0.718750
vt 0.437500 0.593750
vt 0.437500 0.718750
vt 0.562500 0.718750
vt 0.562500 0.593750
vt 0.437500 0.718750
vt 0.562500 0.593750
vt 0.437500 0.593750
vt 0.216295 0.470760
vt 0.216831 0.345761
vt 0.373079 0.346431
vt 0.216295 0.470760
vt 0.373079 0.346431
vt 0.372811 0.408930
vt 0.407180 0.486539
vt 0.388607 0.487069
vt 0.390684 0.360129
vt 0.407180 0.486539
vt 0.390684 0.360129
vt 0.410210 0.360599
vt 0.562500 0.593750
vt 0.562500 0.718750
vt 0.656250 0.718750
vt 0.562500 0.593750
vt 0.656250 0.718750
vt 0.656250 0.593750
vt 0.433594 0.496094
vt 0.433594 0.402344
vt 0.339844 0.402344
vt 0.433594 0.496094
vt 0.339844 0.402344
vt 0.339844 0.496094
vt 0.349609 0.445312
vt 0.449456 0.434272
vt 0.350586 0.422852
vt 0.349609 0.445312
vt 0.449456 0.434272
vt 0.350586 0.422852
vt 0.349609 0.445312
vt 0.449456 0.434272
vt 0.350586 0.422852
vt 0.349609 0.445312
vt 0.220703 0.452148
vt 0.190430 0.410156
vt 0.349609 0.445312
vt 0.190430 0.410156
vt 0.350586 0.422852
vt 0.263404 0.482008
vt 0.263746 0.325758
vt 0.357495 0.325964
vt 0.263404 0.482008
vt 0.357495 0.325964
vt 0.357153 0.482213
vt 0.263404 0.478974
vt 0.263745 0.322724
vt 0.357495 0.322929
vt 0.263404 0.478974
vt 0.357495 0.322929
vt 0.357153 0.479179
vn 0.000000 1.000000 0.000000
vn 0.000000 1.000000 0.000000
vn 0.000000 1.000000 0.000000
vn 0.000000 1.000000 0.000000
vn 0.000000 1.000000 0.000000
vn 0.000000 1.000000 0.000000
vn 0.000000 1.000000 0.000000
vn 0.000000 1.000000 0.000000
vn 0.000000 1.000000 0.000000
vn 0.000000 1.000000 0.000000
vn 0.000000 1.000000 0.000000
vn 0.000000 1.000000 0.000000
vn 1.000000 0.000000 0.000000
vn 1.000000 0.000000 0.000000
vn 1.000000 0.000000 0.000000
vn -1.000000 0.000000 0.000000
vn -1.000000 0.000000 0.000000
vn -1.000000 0.000000 0.000000
vn -1.000000 0.000000 0.000000
vn -1.000000 0.000000 0.000000
vn -1.000000 0.000000 0.000000
vn 0.000000 -0.989542 0.144247
vn 0.000000 -0.986394 0.164399
vn 0.000000 -0.986394 0.164399
vn 0.000000 -0.989542 0.144247
vn 0.000000 -0.986394 0.164399
vn 0.000000 -0.990500 0.137515
vn 0.000000 -0.989542 0.144247
vn 0.000000 -0.992278 0.124035
vn 0.000000 -0.992278 0.124035
vn 0.000000 -0.989542 0.144247
vn 0.000000 -0.992278 0.124035
vn 0.000000 -0.990500 0.137515
vn 0.000000 -0.992278 0.124035
vn 0.000000 -0.992278 0.124035
vn 0.000000 -0.990500 0.137515
vn 0.000000 -0.992278 0.124035
vn 0.000000 -0.990500 0.137515
vn 0.000000 -0.990500 0.137515
vn 0.000000 1.000000 0.000000
vn 0.000000 1.000000 0.000000
vn 0.000000 1.000000 0.000000
vn 0.000000 1.000000 0.000000
vn 0.000000 1.000000 0.000000
vn 0.000000 1.000000 0.000000
vn 0.000000 0.000000 1.000000
vn 0.000000 0.000000 1.000000
vn 0.000000 0.000000 1.000000
vn 0.000000 0.000000 1.000000
vn 0.000000 0.000000 1.000000
vn 0.000000 0.000000 1.000000
vn 0.000000 -0.990500 0.137515
vn 0.000000 -0.992278 0.124035
vn 0.000000 -0.992278 0.124035
vn 0.000000 -0.990500 0.137515
vn 0.000000 -0.992278 0.124035
vn 0.000000 -0.989542 0.144247
vn 0.000000 -0.990500 0.137515
vn 0.000000 -0.986394 0.164399
vn 0.000000 -0.986394 0.164399
vn 0.000000 -0.990500 0.137515
vn 0.000000 -0.986394 0.164399
vn 0.000000 -0.989542 0.144247
vn -1.000000 0.000000 0.000000
vn -1.000000 0.000000 0.000000
vn -1.000000 0.000000 0.000000
vn 1.000000 0.000000 0.000000
vn 1.000000 0.000000 0.000000
vn 1.000000 0.000000 0.000000
vn -1.000000 0.000000 0.000000
vn -1.000000 0.000000 0.000000
vn -1.000000 0.000000 0.000000
vn 1.000000 0.000000 0.000000
vn 1.000000 0.000000 0.000000
vn 1.000000 0.000000 0.000000
vn 1.000000 0.000000 0.000000
vn 1.000000 0.000000 0.000000
vn 1.000000 0.000000 0.000000
vn 0.000000 1.000000 0.000000
vn 0.000000 1.000000 0.000000
vn 0.000000 1.000000 0.000000
vn 0.000000 1.000000 0.000000
vn 0.000000 1.000000 0.000000
vn 0.000000 1.000000 0.000000
vn 0.000000 1.000000 0.000000
vn 0.000000 1.000000 0.000000
vn 0.000000 1.000000 0.000000
vn 0.000000 1.000000 0.000000
vn 0.000000 1.000000 0.000000
vn 0.000000 1.000000 0.000000
f 16/1/1 10/2/2 11/3/3
f 16/4/4 11/5/5 9/6/6
f 8/7/7 12/8/8 13/9/9
f 8/10/10 13/11/11 17/12/12
f 17/13/13 13/14/14 15/15/15
f 16/16/16 3/17/17 1/18/18
f 16/19/19 1/20/20 14/21/21
f 15/22/22 13/23/23 12/24/24
f 15/25/25 12/26/26 5/27/27
f 14/28/28 1/29/29 20/30/30
f 14/31/31 20/32/32 2/33/33
f 20/34/34 19/35/35 5/36/36
f 20/37/37 5/38/38 2/39/39
f 4/40/40 9/41/41 8/42/42
f 4/43/43 8/44/44 6/45/45
f 5/46/46 8/47/47 9/48/48
f 5/49/49 9/50/50 2/51/51
f 5/52/52 19/53/53 18/54/54
f 5/55/55 18/56/56 15/57/57
f 2/58/58 11/59/59 10/60/60
f 2/61/61 10/62/62 14/63/63
f 14/64/64 10/65/65 16/66/66
f 9/67/67 11/68/68 2/69/69
f 5/70/70 12/71/71 8/72/72
f 15/73/73 18/74/74 7/75/75
f 15/76/76 7/77/77 17/78/78
f 17/79/79 7/80/80 6/81/81
f 17/82/82 6/83/83 8/84/84
f 9/85/85 4/86/86 3/87/87
f 9/88/88 3/89/89 16/90/90
