v -0.000008 -3.701222 14.510139
v -0.000014 -0.830251 14.855249
v -0.000001 -0.012570 12.648932
v -0.000001 1.195009 14.069431
v -0.905274 -0.805045 12.649843
v -1.056153 0.270456 14.022520
v 0.000001 -1.133401 13.023832
v 0.905272 -0.805045 12.649843
v 1.056150 0.270456 14.022520
v 0.000000 -3.348077 22.037451
v 0.000000 0.020877 20.068243
v 0.000000 1.523949 20.171885
v -0.971511 2.094079 20.793737
v -0.971511 0.539178 21.622877
v -0.000002 2.410155 21.400381
v -0.000002 0.855254 22.229521
v -4.674363 -7.378510 14.298326
v -7.545334 -7.314062 14.643435
v -3.916043 -5.774242 -10.505578
v -8.203082 -7.579338 -10.779851
v -14.551197 -10.188773 -12.099166
v -21.476414 -17.844734 -19.520304
v -11.298829 -10.188778 -16.000290
v -9.674741 -8.468175 -12.788481
v -6.636663 -7.579345 -13.336020
v -2.679397 -5.774242 -13.006191
v -13.842447 -9.703382 -12.943578
v -13.517399 -9.493027 -12.711311
v -8.966739 -7.880733 -11.642885
v -0.000000 -1.173439 6.251722
v -7.805855 -7.303132 -11.457072
v -3.916043 -6.593057 -10.505578
v -2.679397 -6.593057 -13.006191
v -13.842447 -10.674135 -12.943578
v -13.517399 -10.674135 -12.711311
v -8.966739 -8.548160 -11.642885
v -7.805855 -7.855519 -11.457072
v -2.679397 -6.183649 -13.653225
v 0.000000 -16.918686 15.144081
v -0.000000 -16.312096 6.178431
v 0.000001 -14.310349 -0.553574
v -0.000000 -9.396972 -6.739740
v 0.000001 -8.810700 -11.121534
v -0.000000 -7.105453 -13.446476
v -0.000000 -8.548717 -17.837851
v -6.950674 -7.258049 6.258743
v 0.000000 -8.791353 -22.022610
v -0.000001 -6.546970 -26.207369
v -0.000000 -1.753939 -25.236990
v -0.000001 -3.333241 -16.651468
v -0.000000 -0.279814 -6.731718
v 0.000001 3.059843 -0.583540
v -0.000000 5.812999 6.132959
v 0.000001 5.296343 12.591127
v 0.000001 -13.342659 6.265768
v -1.334508 -3.806278 -17.525740
v -1.334509 -2.910188 -12.156581
v -1.198553 4.056161 14.506092
v -1.719097 2.402589 12.646143
v -1.931042 -1.787480 -6.733723
v -1.931043 0.360530 -0.577921
v -1.931044 2.188353 6.138643
v -3.976169 -6.485340 -9.286985
v -11.035707 -7.061872 6.158533
v -9.977621 -6.974911 -0.565750
v -6.996536 -6.606658 -6.739741
v -1.092898 -5.685521 -17.502985
v -1.417518 -4.422935 -23.629801
v -0.961554 -3.300744 -25.722179
v -11.035708 -7.258049 12.657290
v -0.000001 2.402589 13.523462
v -0.000002 4.692971 15.383408
v 0.000003 -7.258049 -5.476265
v -8.276781 -7.258049 12.657291
v -0.000001 -14.503527 15.141296
v 0.000000 -15.711107 16.125923
v -9.656246 -7.258049 13.640528
v 0.000002 -2.145861 -12.156580
v 0.000005 -3.300744 -38.737053
v -7.242184 -6.352365 12.656246
v -8.449216 -6.201417 13.694141
v -7.242184 -8.163733 12.967791
v -8.449216 -8.314681 13.951202
v 0.971508 2.094079 20.793737
v 0.971508 0.539178 21.622877
v 3.916044 -5.774242 -10.505577
v 8.203083 -7.579338 -10.779850
v 14.551199 -10.188773 -12.099164
v 21.476416 -17.844734 -19.520300
v 11.298831 -10.188778 -16.000290
v 9.674743 -8.468175 -12.788479
v 6.636666 -7.579345 -13.336020
v 2.679399 -5.774242 -13.006191
v 13.842449 -9.703382 -12.943576
v 13.517401 -9.493027 -12.711309
v 8.966740 -7.880733 -11.642884
v 7.805858 -7.303132 -11.457071
v 3.916044 -6.593057 -10.505577
v 2.679399 -6.593057 -13.006191
v 13.842449 -10.674135 -12.943576
v 13.517401 -10.674135 -12.711309
v 8.966740 -8.548160 -11.642884
v 7.805858 -7.855519 -11.457071
v 2.679399 -6.183649 -13.653225
v 6.950674 -7.258049 6.258745
v 1.334511 -3.806278 -17.525740
v 1.334511 -2.910188 -12.156581
v 1.198550 4.056161 14.506092
v 1.719095 2.402589 12.646143
v 1.931043 -1.787480 -6.733723
v 1.931043 0.360530 -0.577921
v 1.931043 2.188353 6.138643
v 3.976171 -6.485340 -9.286985
v 11.035707 -7.061872 6.158537
v 9.977621 -6.974911 -0.565748
v 6.996538 -6.606658 -6.739740
v 1.092900 -5.685521 -17.502985
v 1.417522 -4.422935 -23.629801
v 0.961558 -3.300744 -25.722179
v 11.035707 -7.258049 12.657293
v 8.276779 -7.258049 12.657293
v 9.656243 -7.258049 13.640532
v 7.242182 -6.352365 12.656248
v 8.449213 -6.201417 13.694143
v 7.242182 -8.163733 12.967793
v 8.449213 -8.314681 13.951204
v 0.905272 -13.711053 14.869608
v 1.056152 -14.786554 15.854084
v -0.905274 -13.711053 14.869608
v -1.056152 -14.786554 15.854084
v -0.000008 -10.715389 16.567369
v -0.000014 -13.586360 16.912479
v 0.000001 -13.283210 15.081062
v 4.674362 -7.378510 14.298326
v 7.545332 -7.314062 14.643436
vt 0.096829 0.728640
vt 0.108694 0.663211
vt 0.093750 0.682031
vt 0.155777 0.882634
vt 0.161998 0.887911
vt 0.162013 0.900647
vt 0.128516 0.889063
vt 0.138383 0.920054
vt 0.139163 0.905196
vt 0.096829 0.728640
vt 0.108694 0.663211
vt 0.093750 0.682031
vt 0.128516 0.889063
vt 0.139163 0.905196
vt 0.131051 0.841366
vt 0.096829 0.728640
vt 0.108694 0.663211
vt 0.093750 0.682031
vt 0.162013 0.900647
vt 0.161998 0.887911
vt 0.155777 0.882634
vt 0.139163 0.905196
vt 0.138383 0.920054
vt 0.128516 0.889063
vt 0.096829 0.728640
vt 0.108694 0.663211
vt 0.093750 0.682031
vt 0.131051 0.841366
vt 0.139163 0.905196
vt 0.128516 0.889063
vt 0.005859 0.915527
vt 0.016602 0.909668
vt 0.009277 0.858887
vt 0.017578 0.938477
vt 0.026522 0.934503
vt 0.016602 0.909668
vt 0.017578 0.938477
vt 0.016602 0.909668
vt 0.005859 0.915527
vt 0.035645 0.901855
vt 0.016602 0.909668
vt 0.026522 0.934503
vt 0.026522 0.934503
vt 0.035156 0.930664
vt 0.035645 0.901855
vt 0.096829 0.728640
vt 0.108694 0.663211
vt 0.093750 0.682031
vt 0.035645 0.901855
vt 0.009277 0.858887
vt 0.016602 0.909668
vt 0.156709 0.769648
vt 0.161874 0.784203
vt 0.161891 0.798759
vt 0.096829 0.728640
vt 0.108694 0.663211
vt 0.093750 0.682031
vt 0.128516 0.889063
vt 0.139163 0.905196
vt 0.131051 0.841366
vt 0.026522 0.934503
vt 0.131119 0.966036
vt 0.146875 0.943359
vt 0.096829 0.728640
vt 0.108694 0.663211
vt 0.093750 0.682031
vt 0.128516 0.889063
vt 0.138383 0.920054
vt 0.139163 0.905196
vt 0.138383 0.920054
vt 0.128516 0.889063
vt 0.139163 0.905196
vt 0.139163 0.905196
vt 0.128516 0.889063
vt 0.131051 0.841366
vt 0.587753 0.744904
vt 0.638602 0.737103
vt 0.697159 0.614063
vt 0.596119 0.786656
vt 0.557443 0.759250
vt 0.588794 0.794891
vt 0.583889 0.748285
vt 0.585173 0.764755
vt 0.638602 0.737103
vt 0.583889 0.748285
vt 0.638602 0.737103
vt 0.587753 0.744904
vt 0.566115 0.774196
vt 0.585173 0.764755
vt 0.583889 0.748285
vt 0.563024 0.783479
vt 0.594281 0.779040
vt 0.585173 0.764755
vt 0.563024 0.783479
vt 0.585173 0.764755
vt 0.566115 0.774196
vt 0.547196 0.808050
vt 0.588794 0.808050
vt 0.594281 0.779040
vt 0.547196 0.808050
vt 0.594281 0.779040
vt 0.563024 0.783479
vt 0.697159 0.614063
vt 0.573706 0.737103
vt 0.587753 0.744904
vt 0.587753 0.744904
vt 0.573706 0.737103
vt 0.583889 0.748285
vt 0.583889 0.748285
vt 0.573706 0.737103
vt 0.551759 0.779040
vt 0.583889 0.748285
vt 0.551759 0.779040
vt 0.566115 0.774196
vt 0.566115 0.774196
vt 0.551759 0.779040
vt 0.563024 0.783479
vt 0.588794 0.794891
vt 0.557443 0.759250
vt 0.547196 0.794891
vt 0.680469 0.633594
vt 0.633984 0.732813
vt 0.587753 0.729303
vt 0.574661 0.854079
vt 0.547196 0.808050
vt 0.526924 0.796622
vt 0.587753 0.729303
vt 0.633984 0.732813
vt 0.583594 0.762500
vt 0.587753 0.729303
vt 0.583594 0.762500
vt 0.583889 0.729303
vt 0.583889 0.729303
vt 0.583594 0.762500
vt 0.566115 0.763470
vt 0.566115 0.763470
vt 0.585173 0.764755
vt 0.594281 0.779040
vt 0.566115 0.763470
vt 0.594281 0.779040
vt 0.563024 0.774601
vt 0.563024 0.774601
vt 0.594281 0.779040
vt 0.588794 0.794891
vt 0.563024 0.774601
vt 0.588794 0.794891
vt 0.547196 0.794891
vt 0.587753 0.729303
vt 0.573706 0.737103
vt 0.680469 0.633594
vt 0.583889 0.729303
vt 0.573706 0.737103
vt 0.587753 0.729303
vt 0.566115 0.763470
vt 0.551759 0.779040
vt 0.573706 0.737103
vt 0.566115 0.763470
vt 0.573706 0.737103
vt 0.583889 0.729303
vt 0.563024 0.774601
vt 0.551759 0.779040
vt 0.566115 0.763470
vt 0.574661 0.854079
vt 0.650670 0.844308
vt 0.663979 0.839678
vt 0.557443 0.759250
vt 0.526924 0.796622
vt 0.547196 0.794891
vt 0.599558 0.801470
vt 0.588794 0.794891
vt 0.594281 0.779040
vt 0.594281 0.779040
vt 0.588794 0.808050
vt 0.599558 0.801470
vt 0.526924 0.796622
vt 0.547196 0.808050
vt 0.563024 0.783479
vt 0.526924 0.796622
vt 0.563024 0.783479
vt 0.551759 0.779040
vt 0.551759 0.779040
vt 0.563024 0.774601
vt 0.547196 0.794891
vt 0.551759 0.779040
vt 0.547196 0.794891
vt 0.526924 0.796622
vt 0.547196 0.808050
vt 0.574661 0.854079
vt 0.588794 0.808050
vt 0.588794 0.808050
vt 0.663979 0.839678
vt 0.663600 0.809476
vt 0.588794 0.808050
vt 0.663600 0.809476
vt 0.599558 0.801470
vt 0.599558 0.801470
vt 0.663600 0.809476
vt 0.669171 0.763461
vt 0.599558 0.801470
vt 0.669171 0.763461
vt 0.596119 0.786656
vt 0.599558 0.801470
vt 0.596119 0.786656
vt 0.588794 0.794891
vt 0.125071 0.680496
vt 0.156709 0.769648
vt 0.145313 0.764453
vt 0.125071 0.680496
vt 0.145313 0.764453
vt 0.111719 0.662109
vt 0.161998 0.887911
vt 0.161891 0.798759
vt 0.148828 0.801562
vt 0.161998 0.887911
vt 0.148828 0.801562
vt 0.141406 0.905859
vt 0.139163 0.905196
vt 0.138383 0.920054
vt 0.147465 0.939462
vt 0.139163 0.905196
vt 0.147465 0.939462
vt 0.162060 0.939462
vt 0.268199 0.686416
vt 0.463532 0.784203
vt 0.268316 0.784203
vt 0.120506 0.628945
vt 0.104172 0.648353
vt 0.108694 0.663211
vt 0.808400 0.795631
vt 0.800329 0.847802
vt 0.995313 0.845312
vt 0.162975 0.985968
vt 0.131119 0.966036
vt 0.116524 0.976271
vt 0.268316 0.784203
vt 0.463532 0.784203
vt 0.268433 0.881990
vt 0.793527 0.870536
vt 0.663979 0.839678
vt 0.650670 0.844308
vt 0.147465 0.939462
vt 0.035156 0.930664
vt 0.026522 0.934503
vt 0.131119 0.966036
vt 0.026522 0.934503
vt 0.017578 0.938477
vt 0.131119 0.966036
vt 0.017578 0.938477
vt 0.116524 0.976271
vt 0.800329 0.847802
vt 0.808400 0.795631
vt 0.738786 0.759561
vt 0.800329 0.847802
vt 0.738786 0.759561
vt 0.765522 0.829767
vt 0.268316 0.784203
vt 0.161874 0.784203
vt 0.156709 0.769648
vt 0.268316 0.784203
vt 0.156709 0.769648
vt 0.125071 0.680496
vt 0.268316 0.784203
vt 0.125071 0.680496
vt 0.120552 0.667760
vt 0.268316 0.784203
vt 0.120552 0.667760
vt 0.268199 0.686416
vt 0.268433 0.881990
vt 0.162013 0.900647
vt 0.161998 0.887911
vt 0.268433 0.881990
vt 0.161998 0.887911
vt 0.161891 0.798759
vt 0.268433 0.881990
vt 0.161891 0.798759
vt 0.161874 0.784203
vt 0.268433 0.881990
vt 0.161874 0.784203
vt 0.268316 0.784203
vt 0.484550 0.794672
vt 0.484450 0.872122
vt 0.526924 0.796622
vt 0.381844 0.788754
vt 0.382046 0.906643
vt 0.484450 0.872122
vt 0.381844 0.788754
vt 0.484450 0.872122
vt 0.484550 0.794672
vt 0.269983 0.787356
vt 0.270314 0.936019
vt 0.382046 0.906643
vt 0.269983 0.787356
vt 0.382046 0.906643
vt 0.381844 0.788754
vt 0.161874 0.784203
vt 0.162060 0.939462
vt 0.270314 0.936019
vt 0.161874 0.784203
vt 0.270314 0.936019
vt 0.269983 0.787356
vt 0.765522 0.829767
vt 0.663600 0.809476
vt 0.663979 0.839678
vt 0.484450 0.872122
vt 0.483817 0.894531
vt 0.574661 0.854079
vt 0.526924 0.796622
vt 0.484550 0.749828
vt 0.484550 0.794672
vt 0.269983 0.787356
vt 0.269652 0.638694
vt 0.120506 0.628945
vt 0.269983 0.787356
vt 0.120506 0.628945
vt 0.161874 0.784203
vt 0.381844 0.788754
vt 0.381641 0.670864
vt 0.269652 0.638694
vt 0.381844 0.788754
vt 0.269652 0.638694
vt 0.269983 0.787356
vt 0.484550 0.794672
vt 0.484550 0.749828
vt 0.381641 0.670864
vt 0.484550 0.794672
vt 0.381641 0.670864
vt 0.381844 0.788754
vt 0.557443 0.759250
vt 0.484550 0.749828
vt 0.526924 0.796622
vt 0.382046 0.906643
vt 0.382140 0.950024
vt 0.483817 0.894531
vt 0.382046 0.906643
vt 0.483817 0.894531
vt 0.484450 0.872122
vt 0.162060 0.939462
vt 0.147465 0.939462
vt 0.131119 0.966036
vt 0.738786 0.759561
vt 0.669171 0.763461
vt 0.663600 0.809476
vt 0.738786 0.759561
vt 0.663600 0.809476
vt 0.765522 0.829767
vt 0.765522 0.829767
vt 0.793527 0.870536
vt 0.800329 0.847802
vt 0.663979 0.839678
vt 0.793527 0.870536
vt 0.765522 0.829767
vt 0.270314 0.936019
vt 0.270408 0.994271
vt 0.382140 0.950024
vt 0.270314 0.936019
vt 0.382140 0.950024
vt 0.382046 0.906643
vt 0.162060 0.939462
vt 0.131119 0.966036
vt 0.162975 0.985968
vt 0.162060 0.939462
vt 0.162975 0.985968
vt 0.270408 0.994271
vt 0.162060 0.939462
vt 0.270408 0.994271
vt 0.270314 0.936019
vt 0.995313 0.845312
vt 0.800329 0.847802
vt 0.793527 0.870536
vt 0.650670 0.844308
vt 0.574661 0.854079
vt 0.571987 0.863839
vt 0.571987 0.863839
vt 0.574661 0.854079
vt 0.483817 0.894531
vt 0.009277 0.858887
vt 0.016602 0.909668
vt 0.005859 0.915527
vt 0.005859 0.915527
vt 0.016602 0.909668
vt 0.026522 0.934503
vt 0.005859 0.915527
vt 0.026522 0.934503
vt 0.017578 0.938477
vt 0.026522 0.934503
vt 0.012729 0.909514
vt 0.035645 0.901855
vt 0.038590 0.901185
vt 0.036866 0.925341
vt 0.026522 0.934503
vt 0.111719 0.662109
vt 0.145313 0.764453
vt 0.156709 0.769648
vt 0.111719 0.662109
vt 0.156709 0.769648
vt 0.125071 0.680496
vt 0.012729 0.909514
vt 0.007324 0.855469
vt 0.035645 0.901855
vt 0.483817 0.894531
vt 0.574661 0.854079
vt 0.571987 0.863839
vt 0.571987 0.863839
vt 0.574661 0.854079
vt 0.650670 0.844308
vt 0.793527 0.870536
vt 0.800329 0.847802
vt 0.995313 0.845312
vt 0.146875 0.943359
vt 0.131119 0.966036
vt 0.026522 0.934503
vt 0.270314 0.936019
vt 0.270408 0.994271
vt 0.162975 0.985968
vt 0.270314 0.936019
vt 0.162975 0.985968
vt 0.131119 0.966036
vt 0.270314 0.936019
vt 0.131119 0.966036
vt 0.162060 0.939462
vt 0.382046 0.906643
vt 0.382140 0.950024
vt 0.270408 0.994271
vt 0.382046 0.906643
vt 0.270408 0.994271
vt 0.270314 0.936019
vt 0.765522 0.829767
vt 0.793527 0.870536
vt 0.663979 0.839678
vt 0.800329 0.847802
vt 0.793527 0.870536
vt 0.765522 0.829767
vt 0.680469 0.633594
vt 0.633984 0.732813
vt 0.587753 0.744904
vt 0.588794 0.794891
vt 0.557443 0.759250
vt 0.596119 0.786656
vt 0.587753 0.744904
vt 0.633984 0.732813
vt 0.583594 0.762500
vt 0.587753 0.744904
vt 0.583594 0.762500
vt 0.583889 0.748285
vt 0.583889 0.748285
vt 0.583594 0.762500
vt 0.566115 0.774196
vt 0.566115 0.774196
vt 0.585173 0.764755
vt 0.594281 0.779040
vt 0.566115 0.774196
vt 0.594281 0.779040
vt 0.563024 0.783479
vt 0.563024 0.783479
vt 0.594281 0.779040
vt 0.588794 0.808050
vt 0.563024 0.783479
vt 0.588794 0.808050
vt 0.547196 0.808050
vt 0.587753 0.744904
vt 0.573706 0.737103
vt 0.680469 0.633594
vt 0.583889 0.748285
vt 0.573706 0.737103
vt 0.587753 0.744904
vt 0.566115 0.774196
vt 0.551759 0.779040
vt 0.573706 0.737103
vt 0.566115 0.774196
vt 0.573706 0.737103
vt 0.583889 0.748285
vt 0.563024 0.783479
vt 0.551759 0.779040
vt 0.566115 0.774196
vt 0.547196 0.794891
vt 0.557443 0.759250
vt 0.588794 0.794891
vt 0.587753 0.729303
vt 0.633984 0.732813
vt 0.680469 0.633594
vt 0.526924 0.796622
vt 0.547196 0.808050
vt 0.574661 0.854079
vt 0.583889 0.729303
vt 0.583594 0.762500
vt 0.633984 0.732813
vt 0.583889 0.729303
vt 0.633984 0.732813
vt 0.587753 0.729303
vt 0.566115 0.763470
vt 0.583594 0.762500
vt 0.583889 0.729303
vt 0.563024 0.774601
vt 0.594281 0.779040
vt 0.585173 0.764755
vt 0.563024 0.774601
vt 0.585173 0.764755
vt 0.566115 0.763470
vt 0.547196 0.794891
vt 0.588794 0.794891
vt 0.594281 0.779040
vt 0.547196 0.794891
vt 0.594281 0.779040
vt 0.563024 0.774601
vt 0.680469 0.633594
vt 0.573706 0.737103
vt 0.587753 0.729303
vt 0.587753 0.729303
vt 0.573706 0.737103
vt 0.583889 0.729303
vt 0.583889 0.729303
vt 0.573706 0.737103
vt 0.551759 0.779040
vt 0.583889 0.729303
vt 0.551759 0.779040
vt 0.566115 0.763470
vt 0.566115 0.763470
vt 0.551759 0.779040
vt 0.563024 0.774601
vt 0.663979 0.839678
vt 0.650670 0.844308
vt 0.574661 0.854079
vt 0.547196 0.794891
vt 0.526924 0.796622
vt 0.557443 0.759250
vt 0.594281 0.779040
vt 0.588794 0.794891
vt 0.599558 0.801470
vt 0.599558 0.801470
vt 0.588794 0.808050
vt 0.594281 0.779040
vt 0.551759 0.779040
vt 0.563024 0.783479
vt 0.547196 0.808050
vt 0.551759 0.779040
vt 0.547196 0.808050
vt 0.526924 0.796622
vt 0.526924 0.796622
vt 0.547196 0.794891
vt 0.563024 0.774601
vt 0.526924 0.796622
vt 0.563024 0.774601
vt 0.551759 0.779040
vt 0.588794 0.808050
vt 0.574661 0.854079
vt 0.547196 0.808050
vt 0.599558 0.801470
vt 0.663600 0.809476
vt 0.663979 0.839678
vt 0.599558 0.801470
vt 0.663979 0.839678
vt 0.588794 0.808050
vt 0.588794 0.794891
vt 0.596119 0.786656
vt 0.669171 0.763461
vt 0.588794 0.794891
vt 0.669171 0.763461
vt 0.663600 0.809476
vt 0.588794 0.794891
vt 0.663600 0.809476
vt 0.599558 0.801470
vt 0.765522 0.829767
vt 0.663600 0.809476
vt 0.669171 0.763461
vt 0.765522 0.829767
vt 0.669171 0.763461
vt 0.738786 0.759561
vt 0.141406 0.905859
vt 0.148828 0.801562
vt 0.161891 0.798759
vt 0.141406 0.905859
vt 0.161891 0.798759
vt 0.161998 0.887911
vt 0.162060 0.939462
vt 0.147465 0.939462
vt 0.138383 0.920054
vt 0.162060 0.939462
vt 0.138383 0.920054
vt 0.139163 0.905196
vt 0.268316 0.784203
vt 0.463532 0.784203
vt 0.268199 0.686416
vt 0.161874 0.784203
vt 0.145518 0.784203
vt 0.140349 0.767222
vt 0.995313 0.845312
vt 0.800329 0.847802
vt 0.808400 0.795631
vt 0.116524 0.976271
vt 0.131119 0.966036
vt 0.162975 0.985968
vt 0.268433 0.881990
vt 0.463532 0.784203
vt 0.268316 0.784203
vt 0.650670 0.844308
vt 0.663979 0.839678
vt 0.793527 0.870536
vt 0.026522 0.934503
vt 0.035156 0.930664
vt 0.146875 0.943359
vt 0.116524 0.976271
vt 0.017578 0.938477
vt 0.026522 0.934503
vt 0.116524 0.976271
vt 0.026522 0.934503
vt 0.131119 0.966036
vt 0.765522 0.829767
vt 0.738786 0.759561
vt 0.808400 0.795631
vt 0.765522 0.829767
vt 0.808400 0.795631
vt 0.800329 0.847802
vt 0.268199 0.686416
vt 0.120552 0.667760
vt 0.125071 0.680496
vt 0.268199 0.686416
vt 0.125071 0.680496
vt 0.156709 0.769648
vt 0.268199 0.686416
vt 0.156709 0.769648
vt 0.161874 0.784203
vt 0.268199 0.686416
vt 0.161874 0.784203
vt 0.268316 0.784203
vt 0.268316 0.784203
vt 0.161874 0.784203
vt 0.161891 0.798759
vt 0.268316 0.784203
vt 0.161891 0.798759
vt 0.161998 0.887911
vt 0.268316 0.784203
vt 0.161998 0.887911
vt 0.162013 0.900647
vt 0.268316 0.784203
vt 0.162013 0.900647
vt 0.268433 0.881990
vt 0.526924 0.796622
vt 0.484450 0.872122
vt 0.484550 0.794672
vt 0.484550 0.794672
vt 0.484450 0.872122
vt 0.382046 0.906643
vt 0.484550 0.794672
vt 0.382046 0.906643
vt 0.381844 0.788754
vt 0.381844 0.788754
vt 0.382046 0.906643
vt 0.270314 0.936019
vt 0.381844 0.788754
vt 0.270314 0.936019
vt 0.269983 0.787356
vt 0.269983 0.787356
vt 0.270314 0.936019
vt 0.162060 0.939462
vt 0.269983 0.787356
vt 0.162060 0.939462
vt 0.161874 0.784203
vt 0.663979 0.839678
vt 0.663600 0.809476
vt 0.765522 0.829767
vt 0.574661 0.854079
vt 0.483817 0.894531
vt 0.484450 0.872122
vt 0.484550 0.794672
vt 0.484550 0.749828
vt 0.526924 0.796622
vt 0.161874 0.784203
vt 0.120506 0.628945
vt 0.269652 0.638694
vt 0.161874 0.784203
vt 0.269652 0.638694
vt 0.269983 0.787356
vt 0.269983 0.787356
vt 0.269652 0.638694
vt 0.381641 0.670864
vt 0.269983 0.787356
vt 0.381641 0.670864
vt 0.381844 0.788754
vt 0.381844 0.788754
vt 0.381641 0.670864
vt 0.484550 0.749828
vt 0.381844 0.788754
vt 0.484550 0.749828
vt 0.484550 0.794672
vt 0.526924 0.796622
vt 0.484550 0.749828
vt 0.557443 0.759250
vt 0.484450 0.872122
vt 0.483817 0.894531
vt 0.382140 0.950024
vt 0.484450 0.872122
vt 0.382140 0.950024
vt 0.382046 0.906643
vt 0.131119 0.966036
vt 0.147465 0.939462
vt 0.162060 0.939462
vt 0.108694 0.663211
vt 0.093750 0.682031
vt 0.096829 0.728640
vt 0.120552 0.667760
vt 0.125071 0.680496
vt 0.121554 0.687372
vt 0.108694 0.663211
vt 0.104172 0.648353
vt 0.093750 0.682031
vt 0.096829 0.728640
vt 0.125071 0.680496
vt 0.108694 0.663211
vt 0.096829 0.728640
vt 0.108694 0.663211
vt 0.093750 0.682031
vt 0.108694 0.663211
vt 0.093750 0.682031
vt 0.096829 0.728640
vt 0.121554 0.687372
vt 0.125071 0.680496
vt 0.120552 0.667760
vt 0.093750 0.682031
vt 0.104172 0.648353
vt 0.108694 0.663211
vt 0.108694 0.663211
vt 0.125071 0.680496
vt 0.096829 0.728640
vt 0.093750 0.682031
vt 0.108694 0.663211
vt 0.096829 0.728640
vt 0.131051 0.841366
vt 0.128516 0.889063
vt 0.139163 0.905196
vt 0.139163 0.905196
vt 0.128516 0.889063
vt 0.138383 0.920054
vt 0.139163 0.905196
vt 0.138383 0.920054
vt 0.128516 0.889063
vt 0.108694 0.663211
vt 0.093750 0.682031
vt 0.096829 0.728640
vt 0.108694 0.663211
vt 0.093750 0.682031
vt 0.096829 0.728640
vt 0.131051 0.841366
vt 0.139163 0.905196
vt 0.128516 0.889063
vt 0.161891 0.798759
vt 0.161874 0.784203
vt 0.156709 0.769648
vt 0.096829 0.728640
vt 0.108694 0.663211
vt 0.093750 0.682031
vt 0.108694 0.663211
vt 0.104172 0.648353
vt 0.120506 0.628945
vt 0.140349 0.767222
vt 0.145518 0.784203
vt 0.161874 0.784203
vt 0.144626 0.801185
vt 0.145518 0.784203
vt 0.161874 0.784203
vt 0.145313 0.764453
vt 0.111719 0.662109
vt 0.120506 0.628945
vt 0.145313 0.764453
vt 0.120506 0.628945
vt 0.161874 0.784203
vt 0.161874 0.784203
vt 0.120506 0.628945
vt 0.111719 0.662109
vt 0.161874 0.784203
vt 0.111719 0.662109
vt 0.145313 0.764453
vt 0.161874 0.784203
vt 0.145518 0.784203
vt 0.144626 0.801185
vt 0.141406 0.905859
vt 0.148828 0.801562
vt 0.161874 0.784203
vt 0.141406 0.905859
vt 0.161874 0.784203
vt 0.162060 0.939462
vt 0.162060 0.939462
vt 0.161874 0.784203
vt 0.148828 0.801562
vt 0.162060 0.939462
vt 0.148828 0.801562
vt 0.141406 0.905859
vt 0.484450 0.872122
vt 0.526924 0.796622
vt 0.574661 0.854079
vt 0.574661 0.854079
vt 0.526924 0.796622
vt 0.484450 0.872122
vt 0.663979 0.839678
vt 0.588794 0.808050
vt 0.574661 0.854079
vt 0.574661 0.854079
vt 0.588794 0.808050
vt 0.663979 0.839678
vn -0.000001 -0.500954 -0.865474
vn 0.221271 -0.401959 -0.888520
vn -0.000000 -0.412176 -0.911104
vn -0.000000 -0.412176 -0.911104
vn 0.221271 -0.401959 -0.888520
vn 0.266706 -0.305720 -0.914004
vn -0.337112 0.340561 0.877710
vn -0.371987 0.367794 0.852264
vn -0.394600 0.391879 0.831096
vn -0.965369 -0.246067 0.086686
vn -0.965369 -0.246067 0.086686
vn -0.965369 -0.246067 0.086686
vn -0.671912 -0.088394 0.735337
vn -0.671912 -0.088394 0.735337
vn -0.671912 -0.088394 0.735337
vn -0.000000 -0.412176 -0.911104
vn -0.221272 -0.401959 -0.888520
vn -0.000001 -0.500954 -0.865474
vn -0.266707 -0.305721 -0.914003
vn -0.221272 -0.401959 -0.888520
vn -0.000000 -0.412176 -0.911104
vn 0.394599 0.391878 0.831097
vn 0.371986 0.367792 0.852265
vn 0.337109 0.340558 0.877712
vn 0.965368 -0.246070 0.086688
vn 0.965368 -0.246070 0.086688
vn 0.965368 -0.246070 0.086688
vn 0.671902 -0.088392 0.735347
vn 0.671902 -0.088392 0.735347
vn 0.671902 -0.088392 0.735347
vn -0.562128 0.177363 0.807809
vn -0.562128 0.177363 0.807809
vn -0.520094 -0.038988 0.853218
vn -0.575697 0.384732 0.721495
vn -0.575697 0.384732 0.721495
vn -0.562128 0.177363 0.807809
vn -0.575697 0.384732 0.721495
vn -0.562128 0.177363 0.807809
vn -0.562128 0.177363 0.807809
vn -0.856195 -0.251982 -0.451039
vn -0.856195 -0.251982 -0.451039
vn -0.856998 -0.242471 -0.454711
vn -0.513361 0.059034 -0.856140
vn -0.513361 0.059034 -0.856140
vn -0.513361 0.059034 -0.856140
vn 0.323437 -0.160394 -0.932557
vn 0.490257 -0.147737 -0.858966
vn 0.323437 -0.160394 -0.932557
vn -0.856195 -0.251982 -0.451039
vn -0.855302 -0.261465 -0.447319
vn -0.856195 -0.251982 -0.451039
vn 0.323437 -0.160394 -0.932557
vn 0.145813 -0.167693 -0.974996
vn 0.323437 -0.160394 -0.932557
vn 0.227288 -0.964996 0.130851
vn 0.227288 -0.964996 0.130851
vn 0.227288 -0.964996 0.130851
vn 0.080460 -0.615220 0.784239
vn 0.080460 -0.615220 0.784239
vn 0.080460 -0.615220 0.784239
vn -0.711633 -0.691444 -0.124435
vn -0.838581 -0.527923 -0.134460
vn -0.711633 -0.691444 -0.124435
vn 0.267749 0.947730 0.173547
vn 0.267749 0.947730 0.173547
vn 0.267749 0.947730 0.173547
vn -0.422986 -0.225121 0.877726
vn -0.482102 -0.309763 0.819527
vn -0.513455 -0.362941 0.777585
vn -0.441706 0.465667 0.766844
vn -0.385113 0.397673 0.832793
vn -0.440502 0.456523 0.773010
vn 0.101439 0.692114 0.714625
vn 0.101439 0.692114 0.714625
vn 0.101439 0.692114 0.714625
vn -0.488095 0.837364 -0.246137
vn -0.338557 0.842365 -0.419285
vn -0.554738 0.771609 -0.311263
vn -0.000000 -0.806357 -0.591429
vn -0.000000 -0.966317 -0.257356
vn -0.383698 -0.821709 -0.421391
vn -0.373269 0.919109 -0.126131
vn -0.280491 0.902331 -0.327297
vn -0.338557 0.842365 -0.419285
vn -0.373269 0.919109 -0.126131
vn -0.338557 0.842365 -0.419285
vn -0.488095 0.837364 -0.246137
vn -0.368241 0.925223 -0.091442
vn -0.280491 0.902331 -0.327297
vn -0.373269 0.919109 -0.126131
vn -0.394723 0.918390 -0.027433
vn -0.337331 0.871744 -0.355344
vn -0.280491 0.902331 -0.327297
vn -0.394723 0.918390 -0.027433
vn -0.280491 0.902331 -0.327297
vn -0.368241 0.925223 -0.091442
vn -0.344616 0.905819 -0.246438
vn -0.336991 0.861395 -0.380046
vn -0.337331 0.871744 -0.355344
vn -0.344616 0.905819 -0.246438
vn -0.337331 0.871744 -0.355344
vn -0.394723 0.918390 -0.027433
vn -0.554738 0.771609 -0.311263
vn -0.544235 0.838754 0.017306
vn -0.488095 0.837364 -0.246137
vn -0.488095 0.837364 -0.246137
vn -0.544235 0.838754 0.017306
vn -0.373269 0.919109 -0.126131
vn -0.373269 0.919109 -0.126131
vn -0.544235 0.838754 0.017306
vn -0.411395 0.887590 0.207214
vn -0.373269 0.919109 -0.126131
vn -0.411395 0.887590 0.207214
vn -0.368241 0.925223 -0.091442
vn -0.368241 0.925223 -0.091442
vn -0.411395 0.887590 0.207214
vn -0.394723 0.918390 -0.027433
vn -0.383698 -0.821709 -0.421391
vn -0.000000 -0.966317 -0.257356
vn -0.502154 -0.858991 -0.099878
vn 0.361871 -0.809425 0.462472
vn 0.482589 -0.843274 0.236635
vn 0.397664 -0.839606 0.370034
vn -0.555030 0.730083 0.398647
vn -0.471419 0.796851 0.377879
vn -0.471419 0.796851 0.377879
vn 0.397664 -0.839606 0.370034
vn 0.482589 -0.843274 0.236635
vn 0.455126 -0.872400 0.178263
vn 0.397664 -0.839606 0.370034
vn 0.455126 -0.872400 0.178263
vn 0.455126 -0.872400 0.178263
vn 0.462490 -0.817627 -0.342914
vn 0.410652 -0.888943 -0.202841
vn 0.410652 -0.888943 -0.202841
vn 0.410652 -0.888943 -0.202841
vn 0.410652 -0.888943 -0.202841
vn 0.305814 -0.952002 0.013070
vn 0.410652 -0.888943 -0.202841
vn 0.305814 -0.952002 0.013070
vn 0.304858 -0.930053 0.205091
vn 0.304858 -0.930053 0.205091
vn 0.305814 -0.952002 0.013070
vn 0.261939 -0.961486 0.083261
vn 0.304858 -0.930053 0.205091
vn 0.261939 -0.961486 0.083261
vn 0.233260 -0.958694 0.162778
vn 0.397664 -0.839606 0.370034
vn 0.198127 -0.768706 0.608143
vn 0.361871 -0.809425 0.462472
vn -0.234860 -0.914774 0.328678
vn -0.234860 -0.914774 0.328678
vn -0.234860 -0.914774 0.328678
vn 0.260920 -0.735451 0.625326
vn 0.246914 -0.825479 0.507560
vn 0.145215 -0.691184 0.707939
vn 0.260920 -0.735451 0.625326
vn 0.145215 -0.691184 0.707939
vn 0.145215 -0.691184 0.707939
vn 0.304858 -0.930053 0.205091
vn 0.246914 -0.825479 0.507560
vn 0.260920 -0.735451 0.625326
vn -0.549555 0.804481 -0.225387
vn -0.389193 0.918117 -0.074771
vn -0.335254 0.942126 0.001988
vn -0.000000 -0.966317 -0.257356
vn -0.464473 -0.869353 -0.168787
vn -0.502154 -0.858991 -0.099878
vn 0.247257 -0.818805 -0.518095
vn 0.247257 -0.818805 -0.518095
vn 0.247257 -0.818805 -0.518095
vn -0.337331 0.871744 -0.355344
vn -0.336991 0.861395 -0.380046
vn -0.322666 0.799845 -0.506098
vn -0.471419 0.796851 0.377879
vn -0.471419 0.796851 0.377879
vn -0.394723 0.918390 -0.027433
vn -0.471419 0.796851 0.377879
vn -0.394723 0.918390 -0.027433
vn -0.411395 0.887590 0.207214
vn 0.246914 -0.825479 0.507560
vn 0.304858 -0.930053 0.205091
vn 0.233260 -0.958694 0.162778
vn 0.246914 -0.825479 0.507560
vn 0.233260 -0.958694 0.162778
vn 0.202911 -0.949043 0.241130
vn -0.784618 0.483542 -0.388023
vn -0.851429 0.469281 -0.234190
vn -0.851429 0.469281 -0.234190
vn -0.942940 -0.008754 -0.332848
vn -0.985309 -0.069227 -0.156123
vn -0.942719 -0.315651 -0.107917
vn -0.942940 -0.008754 -0.332848
vn -0.942719 -0.315651 -0.107917
vn -0.942940 -0.008754 -0.332848
vn -0.679405 -0.727179 -0.098084
vn -0.942719 -0.315651 -0.107917
vn -0.837313 -0.544247 -0.051988
vn -0.679405 -0.727179 -0.098084
vn -0.837313 -0.544247 -0.051988
vn -0.679405 -0.727179 -0.098084
vn -0.679405 -0.727179 -0.098084
vn -0.679405 -0.727179 -0.098084
vn -0.679405 -0.727179 -0.098084
vn 0.380029 0.644229 0.663737
vn 0.380029 0.644229 0.663737
vn 0.380029 0.644229 0.663737
vn 0.380029 0.644229 0.663737
vn 0.380029 0.644229 0.663737
vn 0.380029 0.644229 0.663737
vn -0.605009 -0.699366 0.380594
vn -0.605009 -0.699366 0.380594
vn -0.518248 -0.608123 0.601337
vn -0.605009 -0.699366 0.380594
vn -0.518248 -0.608123 0.601337
vn -0.518248 -0.608123 0.601337
vn -0.394600 0.391879 0.831096
vn -0.371987 0.367794 0.852264
vn -0.405894 0.394069 0.824597
vn -0.394600 0.391879 0.831096
vn -0.405894 0.394069 0.824597
vn -0.422160 0.416361 0.805248
vn 0.633942 0.735073 0.240385
vn 0.613449 0.701184 0.363347
vn 0.633942 0.735073 0.240385
vn -0.584593 -0.483777 0.651315
vn -0.546468 -0.409449 0.730565
vn -0.620589 -0.308864 0.720744
vn -0.941576 -0.298726 -0.155554
vn -0.941576 -0.298726 -0.155554
vn -0.959246 -0.273542 -0.070871
vn -0.736594 0.670409 0.089337
vn -0.677095 0.718992 0.156820
vn -0.550918 0.802386 0.229492
vn 0.637703 -0.728182 0.251169
vn 0.613809 -0.700758 0.363561
vn 0.637703 -0.728182 0.251169
vn -0.423237 0.891069 0.163912
vn -0.335254 0.942126 0.001988
vn -0.389193 0.918117 -0.074771
vn -0.711633 -0.691444 -0.124435
vn -0.554116 -0.825264 -0.109065
vn -0.711633 -0.691444 -0.124435
vn -0.677095 0.718992 0.156820
vn -0.541273 0.791747 0.283127
vn -0.541273 0.791747 0.283127
vn -0.677095 0.718992 0.156820
vn -0.541273 0.791747 0.283127
vn -0.550918 0.802386 0.229492
vn -0.941576 -0.298726 -0.155554
vn -0.941576 -0.298726 -0.155554
vn -0.937063 -0.327256 -0.121726
vn -0.941576 -0.298726 -0.155554
vn -0.937063 -0.327256 -0.121726
vn -0.962289 -0.262142 -0.072666
vn 0.633942 0.735073 0.240385
vn 0.643857 0.756695 0.113411
vn 0.643857 0.756695 0.113411
vn 0.633942 0.735073 0.240385
vn 0.643857 0.756695 0.113411
vn 0.643857 0.756695 0.113411
vn 0.633942 0.735073 0.240385
vn 0.643857 0.756695 0.113411
vn 0.643857 0.756695 0.113411
vn 0.633942 0.735073 0.240385
vn 0.643857 0.756695 0.113411
vn 0.633942 0.735073 0.240385
vn 0.637703 -0.728182 0.251169
vn 0.652698 -0.745444 0.135272
vn 0.605008 -0.699366 0.380594
vn 0.637703 -0.728182 0.251169
vn 0.605008 -0.699366 0.380594
vn 0.605008 -0.699366 0.380594
vn 0.637703 -0.728182 0.251169
vn 0.605008 -0.699366 0.380594
vn 0.652698 -0.745444 0.135272
vn 0.637703 -0.728182 0.251169
vn 0.652698 -0.745444 0.135272
vn 0.637703 -0.728182 0.251169
vn -0.611632 0.652481 -0.447409
vn -0.687894 0.649375 -0.324212
vn -0.542531 0.571030 -0.616104
vn -0.673277 0.710715 -0.203917
vn -0.727923 0.649636 -0.219321
vn -0.687894 0.649375 -0.324212
vn -0.673277 0.710715 -0.203917
vn -0.687894 0.649375 -0.324212
vn -0.611632 0.652481 -0.447409
vn -0.704305 0.706635 -0.067984
vn -0.788190 0.610344 -0.078970
vn -0.727923 0.649636 -0.219321
vn -0.704305 0.706635 -0.067984
vn -0.727923 0.649636 -0.219321
vn -0.673277 0.710715 -0.203917
vn -0.716269 0.697743 0.010703
vn -0.800439 0.599397 0.004535
vn -0.788190 0.610344 -0.078970
vn -0.716269 0.697743 0.010703
vn -0.788190 0.610344 -0.078970
vn -0.704305 0.706635 -0.067984
vn -0.962289 -0.262142 -0.072666
vn -0.942719 -0.315651 -0.107917
vn -0.985309 -0.069227 -0.156123
vn -0.687894 0.649375 -0.324212
vn -0.598355 0.754848 -0.268655
vn -0.549555 0.804481 -0.225387
vn -0.464473 -0.869353 -0.168787
vn -0.451488 -0.827218 -0.334468
vn -0.397616 -0.805744 -0.438952
vn -0.630488 -0.769193 -0.104056
vn -0.630488 -0.769193 -0.104056
vn -0.647544 -0.761004 -0.039504
vn -0.630488 -0.769193 -0.104056
vn -0.647544 -0.761004 -0.039504
vn -0.647544 -0.761004 -0.039504
vn -0.541750 -0.782066 -0.308025
vn -0.541750 -0.782066 -0.308025
vn -0.630488 -0.769193 -0.104056
vn -0.541750 -0.782066 -0.308025
vn -0.630488 -0.769193 -0.104056
vn -0.630488 -0.769193 -0.104056
vn -0.397616 -0.805744 -0.438952
vn -0.451488 -0.827218 -0.334468
vn -0.541750 -0.782066 -0.308025
vn -0.397616 -0.805744 -0.438952
vn -0.541750 -0.782066 -0.308025
vn -0.541750 -0.782066 -0.308025
vn -0.000000 -0.966317 -0.257356
vn -0.451488 -0.827218 -0.334468
vn -0.464473 -0.869353 -0.168787
vn -0.727923 0.649636 -0.219321
vn -0.777715 0.583738 -0.233259
vn -0.598355 0.754848 -0.268655
vn -0.727923 0.649636 -0.219321
vn -0.598355 0.754848 -0.268655
vn -0.687894 0.649375 -0.324212
vn -0.344851 -0.651509 0.675732
vn -0.344851 -0.651509 0.675732
vn -0.344851 -0.651509 0.675732
vn -0.937063 -0.327256 -0.121726
vn -0.837313 -0.544247 -0.051988
vn -0.942719 -0.315651 -0.107917
vn -0.937063 -0.327256 -0.121726
vn -0.942719 -0.315651 -0.107917
vn -0.962289 -0.262142 -0.072666
vn -0.876400 0.480901 0.025642
vn -0.865074 0.501632 -0.003612
vn -0.850830 0.525317 0.011451
vn -0.890919 0.452915 -0.033640
vn -0.865074 0.501632 -0.003612
vn -0.876400 0.480901 0.025642
vn -0.788190 0.610344 -0.078970
vn -0.859173 0.503944 -0.088665
vn -0.777715 0.583738 -0.233259
vn -0.788190 0.610344 -0.078970
vn -0.777715 0.583738 -0.233259
vn -0.727923 0.649636 -0.219321
vn -0.800439 0.599397 0.004535
vn -0.677095 0.718992 0.156820
vn -0.736594 0.670409 0.089337
vn -0.800439 0.599397 0.004535
vn -0.736594 0.670409 0.089337
vn -0.859173 0.503944 -0.088665
vn -0.800439 0.599397 0.004535
vn -0.859173 0.503944 -0.088665
vn -0.788190 0.610344 -0.078970
vn -0.838814 0.540879 -0.061973
vn -0.850830 0.525317 0.011451
vn -0.865074 0.501632 -0.003612
vn -0.389193 0.918117 -0.074771
vn -0.549555 0.804481 -0.225387
vn -0.480585 0.839098 -0.254860
vn -0.480585 0.839098 -0.254860
vn -0.549555 0.804481 -0.225387
vn -0.598355 0.754848 -0.268655
vn 0.520094 -0.038987 0.853218
vn 0.562128 0.177363 0.807809
vn 0.562128 0.177363 0.807809
vn 0.562128 0.177363 0.807809
vn 0.562128 0.177363 0.807809
vn 0.575697 0.384732 0.721495
vn 0.562128 0.177363 0.807809
vn 0.575697 0.384732 0.721495
vn 0.575697 0.384732 0.721495
vn 0.856999 -0.242471 -0.454710
vn 0.856196 -0.251981 -0.451038
vn 0.856196 -0.251981 -0.451038
vn 0.513363 0.059033 -0.856139
vn 0.513363 0.059033 -0.856139
vn 0.513363 0.059033 -0.856139
vn -0.380030 0.644229 0.663737
vn -0.380030 0.644229 0.663737
vn -0.380030 0.644229 0.663737
vn -0.380030 0.644229 0.663737
vn -0.380030 0.644229 0.663737
vn -0.380030 0.644229 0.663737
vn 0.856196 -0.251981 -0.451038
vn 0.855303 -0.261465 -0.447318
vn 0.856196 -0.251981 -0.451038
vn 0.598355 0.754848 -0.268655
vn 0.549555 0.804481 -0.225387
vn 0.480585 0.839097 -0.254860
vn 0.480585 0.839097 -0.254860
vn 0.549555 0.804481 -0.225387
vn 0.389192 0.918117 -0.074771
vn 0.865073 0.501633 -0.003611
vn 0.850829 0.525318 0.011452
vn 0.838814 0.540880 -0.061972
vn 0.711634 -0.691443 -0.124435
vn 0.838581 -0.527923 -0.134460
vn 0.711634 -0.691443 -0.124435
vn 0.788190 0.610344 -0.078970
vn 0.859173 0.503944 -0.088665
vn 0.736595 0.670408 0.089337
vn 0.788190 0.610344 -0.078970
vn 0.736595 0.670408 0.089337
vn 0.677095 0.718992 0.156820
vn 0.788190 0.610344 -0.078970
vn 0.677095 0.718992 0.156820
vn 0.800439 0.599397 0.004535
vn 0.727923 0.649635 -0.219321
vn 0.777715 0.583738 -0.233259
vn 0.859173 0.503944 -0.088665
vn 0.727923 0.649635 -0.219321
vn 0.859173 0.503944 -0.088665
vn 0.788190 0.610344 -0.078970
vn 0.876399 0.480903 0.025643
vn 0.865073 0.501633 -0.003611
vn 0.890918 0.452916 -0.033640
vn 0.850829 0.525318 0.011452
vn 0.865073 0.501633 -0.003611
vn 0.876399 0.480903 0.025643
vn 0.554738 0.771609 -0.311263
vn 0.338557 0.842365 -0.419285
vn 0.488095 0.837364 -0.246137
vn 0.383698 -0.821709 -0.421391
vn -0.000000 -0.966317 -0.257356
vn -0.000000 -0.806357 -0.591429
vn 0.488095 0.837364 -0.246137
vn 0.338557 0.842365 -0.419285
vn 0.280491 0.902331 -0.327297
vn 0.488095 0.837364 -0.246137
vn 0.280491 0.902331 -0.327297
vn 0.373269 0.919109 -0.126131
vn 0.373269 0.919109 -0.126131
vn 0.280491 0.902331 -0.327297
vn 0.368241 0.925223 -0.091442
vn 0.368241 0.925223 -0.091442
vn 0.280491 0.902331 -0.327297
vn 0.337331 0.871744 -0.355344
vn 0.368241 0.925223 -0.091442
vn 0.337331 0.871744 -0.355344
vn 0.394724 0.918390 -0.027433
vn 0.394724 0.918390 -0.027433
vn 0.337331 0.871744 -0.355344
vn 0.336991 0.861395 -0.380046
vn 0.394724 0.918390 -0.027433
vn 0.336991 0.861395 -0.380046
vn 0.344616 0.905819 -0.246438
vn 0.488095 0.837364 -0.246137
vn 0.544235 0.838754 0.017306
vn 0.554738 0.771609 -0.311263
vn 0.373269 0.919109 -0.126131
vn 0.544235 0.838754 0.017306
vn 0.488095 0.837364 -0.246137
vn 0.368241 0.925223 -0.091442
vn 0.411395 0.887590 0.207214
vn 0.544235 0.838754 0.017306
vn 0.368241 0.925223 -0.091442
vn 0.544235 0.838754 0.017306
vn 0.373269 0.919109 -0.126131
vn 0.394724 0.918390 -0.027433
vn 0.411395 0.887590 0.207214
vn 0.368241 0.925223 -0.091442
vn 0.502154 -0.858991 -0.099878
vn -0.000000 -0.966317 -0.257356
vn 0.383698 -0.821709 -0.421391
vn -0.397665 -0.839606 0.370034
vn -0.482589 -0.843274 0.236634
vn -0.361871 -0.809425 0.462472
vn 0.471419 0.796851 0.377879
vn 0.471419 0.796851 0.377879
vn 0.555030 0.730083 0.398648
vn -0.455126 -0.872400 0.178263
vn -0.455126 -0.872400 0.178263
vn -0.482589 -0.843274 0.236634
vn -0.455126 -0.872400 0.178263
vn -0.482589 -0.843274 0.236634
vn -0.397665 -0.839606 0.370034
vn -0.410653 -0.888943 -0.202842
vn -0.410653 -0.888943 -0.202842
vn -0.462489 -0.817626 -0.342915
vn -0.304858 -0.930053 0.205091
vn -0.305814 -0.952002 0.013070
vn -0.410653 -0.888943 -0.202842
vn -0.304858 -0.930053 0.205091
vn -0.410653 -0.888943 -0.202842
vn -0.410653 -0.888943 -0.202842
vn -0.233260 -0.958694 0.162778
vn -0.261939 -0.961486 0.083261
vn -0.305814 -0.952002 0.013070
vn -0.233260 -0.958694 0.162778
vn -0.305814 -0.952002 0.013070
vn -0.304858 -0.930053 0.205091
vn -0.361871 -0.809425 0.462472
vn -0.198127 -0.768706 0.608143
vn -0.397665 -0.839606 0.370034
vn 0.234860 -0.914774 0.328678
vn 0.234860 -0.914774 0.328678
vn 0.234860 -0.914774 0.328678
vn -0.145215 -0.691184 0.707939
vn -0.145215 -0.691184 0.707939
vn -0.246914 -0.825480 0.507560
vn -0.145215 -0.691184 0.707939
vn -0.246914 -0.825480 0.507560
vn -0.260921 -0.735451 0.625326
vn -0.260921 -0.735451 0.625326
vn -0.246914 -0.825480 0.507560
vn -0.304858 -0.930053 0.205091
vn 0.335253 0.942126 0.001988
vn 0.389192 0.918117 -0.074771
vn 0.549555 0.804481 -0.225387
vn 0.502154 -0.858991 -0.099878
vn 0.464473 -0.869353 -0.168787
vn -0.000000 -0.966317 -0.257356
vn -0.247257 -0.818805 -0.518095
vn -0.247257 -0.818805 -0.518095
vn -0.247257 -0.818805 -0.518095
vn 0.322666 0.799845 -0.506098
vn 0.336991 0.861395 -0.380046
vn 0.337331 0.871744 -0.355344
vn 0.411395 0.887590 0.207214
vn 0.394724 0.918390 -0.027433
vn 0.471419 0.796851 0.377879
vn 0.411395 0.887590 0.207214
vn 0.471419 0.796851 0.377879
vn 0.471419 0.796851 0.377879
vn -0.202911 -0.949043 0.241130
vn -0.233260 -0.958694 0.162778
vn -0.304858 -0.930053 0.205091
vn -0.202911 -0.949043 0.241130
vn -0.304858 -0.930053 0.205091
vn -0.246914 -0.825480 0.507560
vn 0.851429 0.469281 -0.234190
vn 0.851429 0.469281 -0.234190
vn 0.784618 0.483542 -0.388022
vn 0.942940 -0.008754 -0.332848
vn 0.942718 -0.315652 -0.107917
vn 0.985309 -0.069227 -0.156122
vn 0.942940 -0.008754 -0.332848
vn 0.985309 -0.069227 -0.156122
vn 0.942940 -0.008754 -0.332848
vn 0.679404 -0.727179 -0.098084
vn 0.679404 -0.727179 -0.098084
vn 0.837312 -0.544248 -0.051988
vn 0.679404 -0.727179 -0.098084
vn 0.837312 -0.544248 -0.051988
vn 0.942718 -0.315652 -0.107917
vn 0.679404 -0.727179 -0.098084
vn 0.942718 -0.315652 -0.107917
vn 0.679404 -0.727179 -0.098084
vn 0.962289 -0.262143 -0.072666
vn 0.942718 -0.315652 -0.107917
vn 0.837312 -0.544248 -0.051988
vn 0.962289 -0.262143 -0.072666
vn 0.837312 -0.544248 -0.051988
vn 0.937062 -0.327257 -0.121726
vn 0.518248 -0.608123 0.601337
vn 0.518248 -0.608123 0.601337
vn 0.605008 -0.699366 0.380594
vn 0.518248 -0.608123 0.601337
vn 0.605008 -0.699366 0.380594
vn 0.605008 -0.699366 0.380594
vn 0.422160 0.416361 0.805248
vn 0.405894 0.394069 0.824597
vn 0.371986 0.367792 0.852265
vn 0.422160 0.416361 0.805248
vn 0.371986 0.367792 0.852265
vn 0.394599 0.391878 0.831097
vn -0.633942 0.735073 0.240385
vn -0.613449 0.701184 0.363347
vn -0.633942 0.735073 0.240385
vn 0.551590 -0.426885 0.716602
vn 0.482102 -0.309764 0.819527
vn 0.513454 -0.362941 0.777585
vn 0.959245 -0.273544 -0.070870
vn 0.941576 -0.298727 -0.155555
vn 0.941576 -0.298727 -0.155555
vn 0.550918 0.802386 0.229492
vn 0.677095 0.718992 0.156820
vn 0.736595 0.670408 0.089337
vn -0.637703 -0.728182 0.251169
vn -0.613810 -0.700758 0.363561
vn -0.637703 -0.728182 0.251169
vn 0.389192 0.918117 -0.074771
vn 0.335253 0.942126 0.001988
vn 0.423236 0.891069 0.163912
vn 0.711634 -0.691443 -0.124435
vn 0.554118 -0.825263 -0.109065
vn 0.711634 -0.691443 -0.124435
vn 0.550918 0.802386 0.229492
vn 0.541273 0.791747 0.283128
vn 0.541273 0.791747 0.283128
vn 0.550918 0.802386 0.229492
vn 0.541273 0.791747 0.283128
vn 0.677095 0.718992 0.156820
vn 0.962289 -0.262143 -0.072666
vn 0.937062 -0.327257 -0.121726
vn 0.941576 -0.298727 -0.155555
vn 0.962289 -0.262143 -0.072666
vn 0.941576 -0.298727 -0.155555
vn 0.941576 -0.298727 -0.155555
vn -0.633942 0.735073 0.240385
vn -0.643857 0.756695 0.113411
vn -0.643857 0.756695 0.113411
vn -0.633942 0.735073 0.240385
vn -0.643857 0.756695 0.113411
vn -0.643857 0.756695 0.113411
vn -0.633942 0.735073 0.240385
vn -0.643857 0.756695 0.113411
vn -0.643857 0.756695 0.113411
vn -0.633942 0.735073 0.240385
vn -0.643857 0.756695 0.113411
vn -0.633942 0.735073 0.240385
vn -0.637703 -0.728182 0.251169
vn -0.652698 -0.745444 0.135272
vn -0.605009 -0.699366 0.380594
vn -0.637703 -0.728182 0.251169
vn -0.605009 -0.699366 0.380594
vn -0.605009 -0.699366 0.380594
vn -0.637703 -0.728182 0.251169
vn -0.605009 -0.699366 0.380594
vn -0.652698 -0.745444 0.135272
vn -0.637703 -0.728182 0.251169
vn -0.652698 -0.745444 0.135272
vn -0.637703 -0.728182 0.251169
vn 0.542531 0.571030 -0.616104
vn 0.687894 0.649375 -0.324212
vn 0.611632 0.652481 -0.447409
vn 0.611632 0.652481 -0.447409
vn 0.687894 0.649375 -0.324212
vn 0.727923 0.649635 -0.219321
vn 0.611632 0.652481 -0.447409
vn 0.727923 0.649635 -0.219321
vn 0.673277 0.710715 -0.203917
vn 0.673277 0.710715 -0.203917
vn 0.727923 0.649635 -0.219321
vn 0.788190 0.610344 -0.078970
vn 0.673277 0.710715 -0.203917
vn 0.788190 0.610344 -0.078970
vn 0.704305 0.706635 -0.067984
vn 0.704305 0.706635 -0.067984
vn 0.788190 0.610344 -0.078970
vn 0.800439 0.599397 0.004535
vn 0.704305 0.706635 -0.067984
vn 0.800439 0.599397 0.004535
vn 0.716269 0.697743 0.010703
vn 0.985309 -0.069227 -0.156122
vn 0.942718 -0.315652 -0.107917
vn 0.962289 -0.262143 -0.072666
vn 0.549555 0.804481 -0.225387
vn 0.598355 0.754848 -0.268655
vn 0.687894 0.649375 -0.324212
vn 0.397616 -0.805744 -0.438952
vn 0.451488 -0.827218 -0.334468
vn 0.464473 -0.869353 -0.168787
vn 0.647544 -0.761004 -0.039504
vn 0.647544 -0.761004 -0.039504
vn 0.630488 -0.769193 -0.104056
vn 0.647544 -0.761004 -0.039504
vn 0.630488 -0.769193 -0.104056
vn 0.630488 -0.769193 -0.104056
vn 0.630488 -0.769193 -0.104056
vn 0.630488 -0.769193 -0.104056
vn 0.541750 -0.782066 -0.308025
vn 0.630488 -0.769193 -0.104056
vn 0.541750 -0.782066 -0.308025
vn 0.541750 -0.782066 -0.308025
vn 0.541750 -0.782066 -0.308025
vn 0.541750 -0.782066 -0.308025
vn 0.451488 -0.827218 -0.334468
vn 0.541750 -0.782066 -0.308025
vn 0.451488 -0.827218 -0.334468
vn 0.397616 -0.805744 -0.438952
vn 0.464473 -0.869353 -0.168787
vn 0.451488 -0.827218 -0.334468
vn -0.000000 -0.966317 -0.257356
vn 0.687894 0.649375 -0.324212
vn 0.598355 0.754848 -0.268655
vn 0.777715 0.583738 -0.233259
vn 0.687894 0.649375 -0.324212
vn 0.777715 0.583738 -0.233259
vn 0.727923 0.649635 -0.219321
vn 0.344851 -0.651509 0.675732
vn 0.344851 -0.651509 0.675732
vn 0.344851 -0.651509 0.675732
vn 0.000000 0.500954 -0.865474
vn -0.034578 0.500654 -0.864956
vn 0.000000 0.500954 -0.865474
vn -0.000000 -0.049299 -0.998784
vn 0.248544 -0.047753 -0.967443
vn -0.000000 -0.049299 -0.998784
vn -0.620589 -0.308864 0.720744
vn -0.546468 -0.409449 0.730565
vn -0.633842 -0.116531 0.764634
vn -0.966886 0.232325 0.105623
vn -0.966886 0.232325 0.105623
vn -0.966886 0.232325 0.105623
vn -0.749046 0.079071 0.657783
vn -0.620589 -0.308864 0.720744
vn -0.633842 -0.116531 0.764634
vn 0.000000 0.500954 -0.865474
vn 0.034578 0.500655 -0.864956
vn 0.000000 0.500954 -0.865474
vn -0.000000 -0.049299 -0.998784
vn -0.248545 -0.047752 -0.967443
vn -0.000000 -0.049299 -0.998784
vn 0.633834 -0.116529 0.764640
vn 0.546467 -0.409446 0.730567
vn 0.620586 -0.308863 0.720748
vn 0.966885 0.232328 0.105625
vn 0.966885 0.232328 0.105625
vn 0.966885 0.232328 0.105625
vn 0.633834 -0.116529 0.764640
vn 0.620586 -0.308863 0.720748
vn 0.749036 0.079070 0.657794
vn -0.101439 0.692114 0.714625
vn -0.101439 0.692114 0.714625
vn -0.101439 0.692114 0.714625
vn 0.440502 0.456524 0.773010
vn 0.385112 0.397673 0.832793
vn 0.441705 0.465668 0.766844
vn 0.513454 -0.362941 0.777585
vn 0.482102 -0.309764 0.819527
vn 0.422986 -0.225122 0.877726
vn -0.267749 0.947730 0.173547
vn -0.267749 0.947730 0.173547
vn -0.267749 0.947730 0.173547
vn -0.323437 -0.160394 -0.932557
vn -0.490256 -0.147737 -0.858966
vn -0.323437 -0.160394 -0.932557
vn -0.080460 -0.615221 0.784238
vn -0.080460 -0.615221 0.784238
vn -0.080460 -0.615221 0.784238
vn -0.323437 -0.160394 -0.932557
vn -0.145814 -0.167693 -0.974996
vn -0.323437 -0.160394 -0.932557
vn -0.227289 -0.964996 0.130851
vn -0.227289 -0.964996 0.130851
vn -0.227289 -0.964996 0.130851
vn 0.620586 -0.308863 0.720748
vn 0.546467 -0.409446 0.730567
vn 0.584593 -0.483776 0.651315
vn -0.513455 -0.362941 0.777585
vn -0.482102 -0.309763 0.819527
vn -0.551591 -0.426884 0.716601
vn 0.440502 0.456524 0.773010
vn 0.441705 0.465668 0.766844
vn 0.466591 0.484288 0.740107
vn 0.513454 -0.362941 0.777585
vn 0.620586 -0.308863 0.720748
vn 0.584593 -0.483776 0.651315
vn 0.513454 -0.362941 0.777585
vn 0.584593 -0.483776 0.651315
vn 0.551590 -0.426885 0.716602
vn -0.551591 -0.426884 0.716601
vn -0.584593 -0.483777 0.651315
vn -0.620589 -0.308864 0.720744
vn -0.551591 -0.426884 0.716601
vn -0.620589 -0.308864 0.720744
vn -0.513455 -0.362941 0.777585
vn -0.466592 0.484287 0.740107
vn -0.441706 0.465667 0.766844
vn -0.440502 0.456523 0.773010
vn 0.394599 0.391878 0.831097
vn 0.440502 0.456524 0.773010
vn 0.466591 0.484288 0.740107
vn 0.394599 0.391878 0.831097
vn 0.466591 0.484288 0.740107
vn 0.422160 0.416361 0.805248
vn -0.422160 0.416361 0.805248
vn -0.466592 0.484287 0.740107
vn -0.440502 0.456523 0.773010
vn -0.422160 0.416361 0.805248
vn -0.440502 0.456523 0.773010
vn -0.394600 0.391879 0.831096
vn 0.687894 0.649375 -0.324212
vn 0.856833 0.478021 -0.193220
vn 0.549555 0.804481 -0.225387
vn -0.549555 0.804481 -0.225387
vn -0.856833 0.478021 -0.193220
vn -0.687894 0.649375 -0.324212
vn -0.894117 0.441724 -0.073722
vn -0.851429 0.469281 -0.234190
vn -0.851429 0.469281 -0.234190
vn 0.851429 0.469281 -0.234190
vn 0.851429 0.469281 -0.234190
vn 0.894117 0.441724 -0.073722
f 1/1/1 5/2/2 7/3/3
f 7/4/4 5/5/5 3/6/6
f 2/7/7 4/8/8 6/9/9
f 6/10/10 5/11/11 1/12/12
f 2/13/13 6/14/14 1/15/15
f 7/16/16 8/17/17 1/18/18
f 3/19/19 8/20/20 7/21/21
f 9/22/22 4/23/23 2/24/24
f 1/25/25 8/26/26 9/27/27
f 1/28/28 9/29/29 2/30/30
f 16/31/31 14/32/32 10/33/33
f 15/34/34 13/35/35 14/36/36
f 15/37/37 14/38/38 16/39/39
f 11/40/40 14/41/41 13/42/42
f 13/43/43 12/44/44 11/45/45
f 80/46/46 17/47/47 82/48/48
f 11/49/49 10/50/50 14/51/51
f 82/52/52 74/53/53 80/54/54
f 83/55/55 82/56/56 17/57/57
f 18/58/58 83/59/59 17/60/60
f 13/61/61 58/62/62 71/63/63
f 80/64/64 81/65/65 17/66/66
f 18/67/67 77/68/68 83/69/69
f 77/70/70 18/71/71 81/72/72
f 81/73/73 18/74/74 17/75/75
f 27/76/76 23/77/77 22/78/78
f 44/79/79 43/80/80 33/81/81
f 28/82/82 24/83/83 23/84/84
f 28/85/85 23/86/86 27/87/87
f 29/88/88 24/89/89 28/90/90
f 31/91/91 25/92/92 24/93/93
f 31/94/94 24/95/95 29/96/96
f 19/97/97 26/98/98 25/99/99
f 19/100/100 25/101/101 31/102/102
f 22/103/103 21/104/104 27/105/105
f 27/106/106 21/107/107 28/108/108
f 28/109/109 21/110/110 20/111/111
f 28/112/112 20/113/113 29/114/114
f 29/115/115 20/116/116 31/117/117
f 33/118/118 43/119/119 32/120/120
f 22/121/121 23/122/122 34/123/123
f 57/124/124 19/125/125 63/126/126
f 34/127/127 23/128/128 24/129/129
f 34/130/130 24/131/131 35/132/132
f 35/133/133 24/134/134 36/135/135
f 36/136/136 24/137/137 25/138/138
f 36/139/139 25/140/140 37/141/141
f 37/142/142 25/143/143 33/144/144
f 37/145/145 33/146/146 32/147/147
f 34/148/148 21/149/149 22/150/150
f 35/151/151 21/152/152 34/153/153
f 36/154/154 20/155/155 21/156/156
f 36/157/157 21/158/158 35/159/159
f 37/160/160 20/161/161 36/162/162
f 57/163/163 50/164/164 56/165/165
f 43/166/166 63/167/167 32/168/168
f 38/169/169 33/170/170 25/171/171
f 25/172/172 26/173/173 38/174/174
f 63/175/175 19/176/176 31/177/177
f 63/178/178 31/179/179 20/180/180
f 20/181/181 37/182/182 32/183/183
f 20/184/184 32/185/185 63/186/186
f 19/187/187 57/188/188 26/189/189
f 26/190/190 56/191/191 67/192/192
f 26/193/193 67/194/194 38/195/195
f 38/196/196 67/197/197 45/198/198
f 38/199/199 45/200/200 44/201/201
f 38/202/202 44/203/203 33/204/204
f 129/205/205 82/206/206 83/207/207
f 129/208/208 83/209/209 130/210/210
f 8/211/211 123/212/212 124/213/213
f 8/214/214 124/215/215 9/216/216
f 6/217/217 4/218/218 71/219/219
f 6/220/220 71/221/221 59/222/222
f 55/223/223 73/224/224 46/225/225
f 39/226/226 76/227/227 130/228/228
f 48/229/229 69/230/230 79/231/231
f 54/232/232 58/233/233 72/234/234
f 46/235/235 73/236/236 30/237/237
f 49/238/238 56/239/239 50/240/240
f 71/241/241 12/242/242 13/243/243
f 58/244/244 13/245/245 15/246/246
f 58/247/247 15/248/248 72/249/249
f 69/250/250 48/251/251 47/252/252
f 69/253/253 47/254/254 68/255/255
f 46/256/256 74/257/257 82/258/258
f 46/259/259 82/260/260 129/261/261
f 46/262/262 129/263/263 75/264/264
f 46/265/265 75/266/266 55/267/267
f 30/268/268 3/269/269 5/270/270
f 30/271/271 5/272/272 80/273/273
f 30/274/274 80/275/275 74/276/276
f 30/277/277 74/278/278 46/279/279
f 66/280/280 60/281/281 63/282/282
f 65/283/283 61/284/284 60/285/285
f 65/286/286 60/287/287 66/288/288
f 64/289/289 62/290/290 61/291/291
f 64/292/292 61/293/293 65/294/294
f 70/295/295 59/296/296 62/297/297
f 70/298/298 62/299/299 64/300/300
f 68/301/301 67/302/302 56/303/303
f 60/304/304 51/305/305 57/306/306
f 63/307/307 42/308/308 66/309/309
f 64/310/310 40/311/311 39/312/312
f 64/313/313 39/314/314 70/315/315
f 65/316/316 41/317/317 40/318/318
f 65/319/319 40/320/320 64/321/321
f 66/322/322 42/323/323 41/324/324
f 66/325/325 41/326/326 65/327/327
f 43/328/328 42/329/329 63/330/330
f 61/331/331 52/332/332 51/333/333
f 61/334/334 51/335/335 60/336/336
f 59/337/337 71/338/338 58/339/339
f 47/340/340 45/341/341 67/342/342
f 47/343/343 67/344/344 68/345/345
f 68/346/346 49/347/347 69/348/348
f 56/349/349 49/350/350 68/351/351
f 62/352/352 53/353/353 52/354/354
f 62/355/355 52/356/356 61/357/357
f 59/358/358 58/359/359 54/360/360
f 59/361/361 54/362/362 53/363/363
f 59/364/364 53/365/365 62/366/366
f 79/367/367 69/368/368 49/369/369
f 50/370/370 57/371/371 78/372/372
f 78/373/373 57/374/374 51/375/375
f 10/376/376 85/377/377 16/378/378
f 16/379/379 85/380/380 84/381/381
f 16/382/382 84/383/383 15/384/384
f 84/385/385 85/386/386 11/387/387
f 11/388/388 12/389/389 84/390/390
f 128/391/391 126/392/392 125/393/393
f 128/394/394 125/395/395 127/396/396
f 85/397/397 10/398/398 11/399/399
f 51/400/400 107/401/401 78/402/402
f 78/403/403 107/404/404 50/405/405
f 49/406/406 119/407/407 79/408/408
f 71/409/409 108/410/410 84/411/411
f 112/412/412 53/413/413 54/414/414
f 112/415/415 54/416/416 108/417/417
f 112/418/418 108/419/419 109/420/420
f 111/421/421 52/422/422 53/423/423
f 111/424/424 53/425/425 112/426/426
f 118/427/427 49/428/428 106/429/429
f 119/430/430 49/431/431 118/432/432
f 89/433/433 90/434/434 94/435/435
f 99/436/436 43/437/437 44/438/438
f 94/439/439 90/440/440 91/441/441
f 94/442/442 91/443/443 95/444/444
f 95/445/445 91/446/446 96/447/447
f 96/448/448 91/449/449 92/450/450
f 96/451/451 92/452/452 97/453/453
f 97/454/454 92/455/455 93/456/456
f 97/457/457 93/458/458 86/459/459
f 94/460/460 88/461/461 89/462/462
f 95/463/463 88/464/464 94/465/465
f 96/466/466 87/467/467 88/468/468
f 96/469/469 88/470/470 95/471/471
f 97/472/472 87/473/473 96/474/474
f 98/475/475 43/476/476 99/477/477
f 100/478/478 90/479/479 89/480/480
f 113/481/481 86/482/482 107/483/483
f 101/484/484 91/485/485 90/486/486
f 101/487/487 90/488/488 100/489/489
f 102/490/490 91/491/491 101/492/492
f 103/493/493 92/494/494 91/495/495
f 103/496/496 91/497/497 102/498/498
f 98/499/499 99/500/500 92/501/501
f 98/502/502 92/503/503 103/504/504
f 89/505/505 88/506/506 100/507/507
f 100/508/508 88/509/509 101/510/510
f 101/511/511 88/512/512 87/513/513
f 101/514/514 87/515/515 102/516/516
f 102/517/517 87/518/518 103/519/519
f 106/520/520 50/521/521 107/522/522
f 98/523/523 113/524/524 43/525/525
f 92/526/526 99/527/527 104/528/528
f 104/529/529 93/530/530 92/531/531
f 87/532/532 97/533/533 86/534/534
f 87/535/535 86/536/536 113/537/537
f 113/538/538 98/539/539 103/540/540
f 113/541/541 103/542/542 87/543/543
f 93/544/544 107/545/545 86/546/546
f 104/547/547 117/548/548 106/549/549
f 104/550/550 106/551/551 93/552/552
f 99/553/553 44/554/554 45/555/555
f 99/556/556 45/557/557 117/558/558
f 99/559/559 117/560/560 104/561/561
f 118/562/562 117/563/563 45/564/564
f 118/565/565 45/566/566 47/567/567
f 6/568/568 81/569/569 80/570/570
f 6/571/571 80/572/572 5/573/573
f 109/574/574 71/575/575 4/576/576
f 109/577/577 4/578/578 9/579/579
f 105/580/580 73/581/581 55/582/582
f 120/583/583 122/584/584 126/585/585
f 79/586/586 119/587/587 48/588/588
f 72/589/589 108/590/590 54/591/591
f 30/592/592 73/593/593 105/594/594
f 50/595/595 106/596/596 49/597/597
f 84/598/598 12/599/599 71/600/600
f 72/601/601 15/602/602 84/603/603
f 72/604/604 84/605/605 108/606/606
f 118/607/607 47/608/608 48/609/609
f 118/610/610 48/611/611 119/612/612
f 55/613/613 75/614/614 127/615/615
f 55/616/616 127/617/617 125/618/618
f 55/619/619 125/620/620 121/621/621
f 55/622/622 121/623/623 105/624/624
f 105/625/625 121/626/626 123/627/627
f 105/628/628 123/629/629 8/630/630
f 105/631/631 8/632/632 3/633/633
f 105/634/634 3/635/635 30/636/636
f 113/637/637 110/638/638 116/639/639
f 116/640/640 110/641/641 111/642/642
f 116/643/643 111/644/644 115/645/645
f 115/646/646 111/647/647 112/648/648
f 115/649/649 112/650/650 114/651/651
f 114/652/652 112/653/653 109/654/654
f 114/655/655 109/656/656 120/657/657
f 106/658/658 117/659/659 118/660/660
f 107/661/661 51/662/662 110/663/663
f 116/664/664 42/665/665 113/666/666
f 120/667/667 39/668/668 40/669/669
f 120/670/670 40/671/671 114/672/672
f 114/673/673 40/674/674 41/675/675
f 114/676/676 41/677/677 115/678/678
f 115/679/679 41/680/680 42/681/681
f 115/682/682 42/683/683 116/684/684
f 113/685/685 42/686/686 43/687/687
f 110/688/688 51/689/689 52/690/690
f 110/691/691 52/692/692 111/693/693
f 108/694/694 71/695/695 109/696/696
f 133/697/697 129/698/698 131/699/699
f 75/700/700 129/701/701 133/702/702
f 130/703/703 76/704/704 132/705/705
f 131/706/706 129/707/707 130/708/708
f 131/709/709 130/710/710 132/711/711
f 131/712/712 127/713/713 133/714/714
f 133/715/715 127/716/716 75/717/717
f 132/718/718 76/719/719 128/720/720
f 128/721/721 127/722/722 131/723/723
f 132/724/724 128/725/725 131/726/726
f 134/727/727 135/728/728 124/729/729
f 124/730/730 135/731/731 122/732/732
f 126/733/733 122/734/734 135/735/735
f 134/736/736 124/737/737 123/738/738
f 125/739/739 134/740/740 123/741/741
f 134/742/742 126/743/743 135/744/744
f 123/745/745 121/746/746 125/747/747
f 134/748/748 125/749/749 126/750/750
f 128/751/751 76/752/752 39/753/753
f 83/754/754 77/755/755 70/756/756
f 124/757/757 122/758/758 120/759/759
f 126/760/760 128/761/761 39/762/762
f 126/763/763 39/764/764 120/765/765
f 70/766/766 39/767/767 130/768/768
f 70/769/769 130/770/770 83/771/771
f 70/772/772 77/773/773 81/774/774
f 9/775/775 124/776/776 120/777/777
f 9/778/778 120/779/779 109/780/780
f 59/781/781 70/782/782 81/783/783
f 59/784/784 81/785/785 6/786/786
f 110/787/787 113/788/788 107/789/789
f 57/790/790 63/791/791 60/792/792
f 56/793/793 26/794/794 57/795/795
f 107/796/796 93/797/797 106/798/798
