v 3.780200 -5.269231 -0.391786
v 3.173841 -4.666377 -0.460280
v 3.320943 -5.270218 -0.818155
v 3.172606 -5.270218 -0.081838
v 3.593543 -4.894240 -0.429390
v 2.934492 -4.524735 -0.429993
v 2.856930 -5.272192 0.030038
v 2.656170 -5.275152 -1.117524
vt 0.000000 0.000000
vt 0.000000 0.000000
vt 0.000000 0.000000
vt 0.000000 0.000000
vt 0.000000 0.000000
vt 0.000000 0.000000
vt 0.000000 0.000000
vt 0.000000 0.000000
vt 0.000000 0.000000
vt 0.000000 0.000000
vt 0.000000 0.000000
vt 0.000000 0.000000
vt 0.000000 0.000000
vt 0.000000 0.000000
vt 0.000000 0.000000
vt 0.000000 0.000000
vt 0.000000 0.000000
vt 0.000000 0.000000
vt 0.000000 0.000000
vt 0.000000 0.000000
vt 0.000000 0.000000
vt 0.000000 0.000000
vt 0.000000 0.000000
vt 0.000000 0.000000
vn 0.514894 0.406883 -0.754540
vn 0.657383 0.256156 -0.708683
vn 0.458979 0.454138 -0.763608
vn 0.293381 0.495913 0.817311
vn 0.373090 0.457913 0.806920
vn 0.329361 0.483908 0.810774
vn 0.317067 0.559822 -0.765550
vn 0.514894 0.406883 -0.754540
vn 0.458979 0.454138 -0.763608
vn 0.458979 0.454138 -0.763608
vn 0.300820 0.569817 -0.764733
vn 0.317067 0.559822 -0.765550
vn 0.330461 0.414049 0.848150
vn 0.293381 0.495913 0.817311
vn 0.315546 0.446441 0.837330
vn 0.293381 0.495913 0.817311
vn 0.329361 0.483908 0.810774
vn 0.315546 0.446441 0.837330
vn 0.300820 0.569817 -0.764733
vn 0.258394 0.598747 -0.758113
vn 0.317067 0.559822 -0.765550
vn 0.315546 0.446441 0.837330
vn 0.432990 0.300739 0.849750
vn 0.330461 0.414049 0.848150
f 5/1/1 1/2/2 3/3/3
f 2/4/4 6/5/5 7/6/6
f 2/7/7 5/8/8 3/9/9
f 3/10/10 8/11/11 2/12/12
f 5/13/13 2/14/14 4/15/15
f 2/16/16 7/17/17 4/18/18
f 8/19/19 6/20/20 2/21/21
f 4/22/22 1/23/23 5/24/24
