v 0.000000 3.339761 -17.270702
v 0.522891 1.568582 -6.470792
v 0.253312 4.093254 -11.050052
v 0.386097 4.145730 -11.595003
v 0.285842 3.653245 -15.892314
v 0.151787 3.619344 -16.687817
v 0.000000 3.937166 -15.925395
v 0.000041 1.377108 -6.971651
v -0.000000 3.841109 -11.074332
v -0.000000 3.761411 -11.632010
v -0.000000 3.369324 -15.859228
v -0.000000 3.468578 -16.670250
v 0.000000 4.530049 -11.557995
v 0.000000 3.770112 -16.705385
v 0.000040 2.091447 -6.470793
v 0.000000 4.345399 -11.025772
v 0.261597 4.199090 -12.149137
v -0.000000 3.938698 -12.174211
v 0.000000 4.459482 -12.124063
v 0.000041 1.001528 -7.678746
v 0.000040 2.621678 -5.616387
v 0.000040 2.592220 -4.231661
v 0.000040 1.826331 -3.583491
v 0.000040 1.502302 -2.611236
v 0.000040 0.765870 -1.845217
v 0.000040 1.237186 -0.313179
v 0.000039 0.471298 3.399067
v 0.000039 0.854242 4.135624
v 0.000038 0.265097 8.054106
v 0.000004 -1.001529 -7.678746
v 0.000004 -1.502302 -6.735954
v 0.000004 -2.091447 -6.470793
v 0.000004 -2.621678 -5.616387
v 0.000004 -2.592221 -4.231661
v 0.000004 -1.826332 -3.583491
v 0.000004 -1.502302 -2.611236
v 0.000004 -0.765870 -1.845217
v 0.000003 -1.237186 -0.313179
v 0.000003 -0.471297 3.399067
v 0.000003 -0.854242 4.135624
v 0.000002 -0.265096 8.054106
v 1.001522 -0.000012 -7.678746
v 1.502295 -0.000012 -6.735954
v 2.091440 -0.000012 -6.470793
v 2.621671 -0.000012 -5.616387
v 2.592214 -0.000012 -4.231660
v 1.826324 -0.000012 -3.583491
v 1.502294 -0.000012 -2.611236
v 0.765863 -0.000012 -1.845217
v 1.237179 -0.000012 -0.313179
v 0.471289 -0.000012 3.399067
v 0.854234 -0.000012 4.135624
v 0.265088 -0.000012 8.054106
v 3.692388 -3.948177 -16.895298
v 0.861953 -0.863955 -6.885139
v 2.917843 -2.947172 -10.768954
v 2.969790 -2.999809 -11.322338
v 3.461987 -3.498547 -15.544481
v 3.675711 -3.631971 -16.311602
v 3.864199 -3.499168 -15.504030
v 0.800223 -1.536004 -6.607559
v 2.957123 -3.347599 -10.696363
v 2.957754 -3.537277 -11.226815
v 3.457298 -3.900733 -15.504032
v 3.673221 -3.845539 -16.290123
v 3.507371 -2.994871 -11.226816
v 1.473026 -1.483151 -6.329977
v 3.309819 -3.344357 -10.633694
v 3.495334 -3.532339 -11.131293
v 3.859509 -3.901353 -15.463574
v 3.886800 -3.845866 -16.268637
v 3.889293 -3.632302 -16.290123
v 1.534758 -0.811103 -6.607558
v 3.317717 -2.991735 -10.696362
v 3.143197 -3.175520 -11.849799
v 3.143113 -3.547856 -11.766206
v 3.515501 -3.180353 -11.766205
v 3.507345 -3.544509 -11.701486
v 0.000001 -0.000012 -8.149237
v 1.310856 1.310833 -5.616387
v 0.000001 -0.339849 8.630965
v 0.000047 0.339852 8.630965
v 0.339837 -0.000014 8.630965
v -0.000003 -0.000014 10.660393
v 2.268188 -0.324038 -4.231660
v 2.293967 0.327699 -5.616387
v 2.293963 -0.327720 -5.616387
v 2.268192 0.324017 -4.231661
vt 0.000000 0.000000
vt 0.000000 0.000000
vt 0.000000 0.000000
vt 0.000000 0.000000
vt 0.000000 0.000000
vt 0.000000 0.000000
vt 0.000000 0.000000
vt 0.000000 0.000000
vt 0.000000 0.000000
vt 0.000000 0.000000
vt 0.000000 0.000000
vt 0.000000 0.000000
vt 0.000000 0.000000
vt 0.000000 0.000000
vt 0.000000 0.000000
vt 0.000000 0.000000
vt 0.000000 0.000000
vt 0.000000 0.000000
vt 0.000000 0.000000
vt 0.000000 0.000000
vt 0.000000 0.000000
vt 0.000000 0.000000
vt 0.000000 0.000000
vt 0.000000 0.000000
vt 0.000000 0.000000
vt 0.000000 0.000000
vt 0.000000 0.000000
vt 0.000000 0.000000
vt 0.000000 0.000000
vt 0.000000 0.000000
vt 0.000000 0.000000
vt 0.000000 0.000000
vt 0.000000 0.000000
vt 0.000000 0.000000
vt 0.000000 0.000000
vt 0.000000 0.000000
vt 0.000000 0.000000
vt 0.000000 0.000000
vt 0.000000 0.000000
vt 0.000000 0.000000
vt 0.000000 0.000000
vt 0.000000 0.000000
vt 0.000000 0.000000
vt 0.000000 0.000000
vt 0.000000 0.000000
vt 0.000000 0.000000
vt 0.000000 0.000000
vt 0.000000 0.000000
vt 0.000000 0.000000
vt 0.000000 0.000000
vt 0.000000 0.000000
vt 0.000000 0.000000
vt 0.000000 0.000000
vt 0.000000 0.000000
vt 0.000000 0.000000
vt 0.000000 0.000000
vt 0.000000 0.000000
vt 0.000000 0.000000
vt 0.000000 0.000000
vt 0.000000 0.000000
vt 0.000000 0.000000
vt 0.000000 0.000000
vt 0.000000 0.000000
vt 0.000000 0.000000
vt 0.000000 0.000000
vt 0.000000 0.000000
vt 0.000000 0.000000
vt 0.000000 0.000000
vt 0.000000 0.000000
vt 0.000000 0.000000
vt 0.000000 0.000000
vt 0.000000 0.000000
vt 0.000000 0.000000
vt 0.000000 0.000000
vt 0.000000 0.000000
vt 0.000000 0.000000
vt 0.000000 0.000000
vt 0.000000 0.000000
vt 0.000000 0.000000
vt 0.000000 0.000000
vt 0.000000 0.000000
vt 0.000000 0.000000
vt 0.000000 0.000000
vt 0.000000 0.000000
vt 0.000000 0.000000
vt 0.000000 0.000000
vt 0.000000 0.000000
vt 0.000000 0.000000
vt 0.000000 0.000000
vt 0.000000 0.000000
vt 0.000000 0.000000
vt 0.000000 0.000000
vt 0.000000 0.000000
vt 0.000000 0.000000
vt 0.000000 0.000000
vt 0.000000 0.000000
vt 0.000000 0.000000
vt 0.000000 0.000000
vt 0.000000 0.000000
vt 0.000000 0.000000
vt 0.000000 0.000000
vt 0.000000 0.000000
vt 0.000000 0.000000
vt 0.000000 0.000000
vt 0.000000 0.000000
vt 0.000000 0.000000
vt 0.000000 0.000000
vt 0.000000 0.000000
vt 0.000000 0.000000
vt 0.000000 0.000000
vt 0.000000 0.000000
vt 0.000000 0.000000
vt 0.000000 0.000000
vt 0.000000 0.000000
vt 0.000000 0.000000
vt 0.000000 0.000000
vt 0.000000 0.000000
vt 0.000000 0.000000
vt 0.000000 0.000000
vt 0.000000 0.000000
vt 0.000000 0.000000
vt 0.000000 0.000000
vt 0.000000 0.000000
vt 0.000000 0.000000
vt 0.000000 0.000000
vt 0.000000 0.000000
vt 0.000000 0.000000
vt 0.000000 0.000000
vt 0.000000 0.000000
vt 0.000000 0.000000
vt 0.000000 0.000000
vt 0.000000 0.000000
vt 0.000000 0.000000
vt 0.000000 0.000000
vt 0.000000 0.000000
vt 0.000000 0.000000
vt 0.000000 0.000000
vt 0.000000 0.000000
vt 0.000000 0.000000
vt 0.000000 0.000000
vt 0.000000 0.000000
vt 0.000000 0.000000
vt 0.000000 0.000000
vt 0.000000 0.000000
vt 0.000000 0.000000
vt 0.000000 0.000000
vt 0.000000 0.000000
vt 0.000000 0.000000
vt 0.000000 0.000000
vt 0.000000 0.000000
vt 0.000000 0.000000
vt 0.000000 0.000000
vt 0.000000 0.000000
vt 0.000000 0.000000
vt 0.000000 0.000000
vt 0.000000 0.000000
vt 0.000000 0.000000
vt 0.000000 0.000000
vt 0.000000 0.000000
vt 0.000000 0.000000
vt 0.000000 0.000000
vt 0.000000 0.000000
vt 0.000000 0.000000
vt 0.000000 0.000000
vt 0.000000 0.000000
vt 0.000000 0.000000
vt 0.000000 0.000000
vt 0.000000 0.000000
vt 0.000000 0.000000
vt 0.000000 0.000000
vt 0.000000 0.000000
vt 0.000000 0.000000
vt 0.000000 0.000000
vt 0.000000 0.000000
vt 0.000000 0.000000
vt 0.000000 0.000000
vt 0.000000 0.000000
vt 0.000000 0.000000
vt 0.000000 0.000000
vt 0.000000 0.000000
vt 0.000000 0.000000
vt 0.000000 0.000000
vt 0.000000 0.000000
vt 0.000000 0.000000
vt 0.000000 0.000000
vt 0.000000 0.000000
vt 0.000000 0.000000
vt 0.000000 0.000000
vt 0.000000 0.000000
vt 0.000000 0.000000
vt 0.000000 0.000000
vt 0.000000 0.000000
vt 0.000000 0.000000
vt 0.000000 0.000000
vt 0.000000 0.000000
vt 0.000000 0.000000
vt 0.000000 0.000000
vt 0.000000 0.000000
vt 0.000000 0.000000
vt 0.000000 0.000000
vt 0.000000 0.000000
vt 0.000000 0.000000
vt 0.000000 0.000000
vt 0.000000 0.000000
vt 0.000000 0.000000
vt 0.000000 0.000000
vt 0.000000 0.000000
vt 0.000000 0.000000
vt 0.000000 0.000000
vt 0.000000 0.000000
vt 0.000000 0.000000
vt 0.000000 0.000000
vt 0.000000 0.000000
vt 0.000000 0.000000
vt 0.000000 0.000000
vt 0.000000 0.000000
vt 0.000000 0.000000
vt 0.000000 0.000000
vt 0.000000 0.000000
vt 0.000000 0.000000
vt 0.000000 0.000000
vt 0.000000 0.000000
vt 0.000000 0.000000
vt 0.000000 0.000000
vt 0.000000 0.000000
vt 0.000000 0.000000
vt 0.000000 0.000000
vt 0.000000 0.000000
vt 0.000000 0.000000
vt 0.000000 0.000000
vt 0.000000 0.000000
vt 0.000000 0.000000
vt 0.000000 0.000000
vt 0.000000 0.000000
vt 0.000000 0.000000
vt 0.000000 0.000000
vt 0.000000 0.000000
vt 0.000000 0.000000
vt 0.000000 0.000000
vt 0.000000 0.000000
vt 0.000000 0.000000
vt 0.000000 0.000000
vt 0.000000 0.000000
vt 0.000000 0.000000
vt 0.000000 0.000000
vt 0.000000 0.000000
vt 0.000000 0.000000
vt 0.000000 0.000000
vt 0.000000 0.000000
vt 0.000000 0.000000
vt 0.000000 0.000000
vt 0.000000 0.000000
vt 0.000000 0.000000
vt 0.000000 0.000000
vt 0.000000 0.000000
vt 0.000000 0.000000
vt 0.000000 0.000000
vt 0.000000 0.000000
vt 0.000000 0.000000
vt 0.000000 0.000000
vt 0.000000 0.000000
vt 0.000000 0.000000
vt 0.000000 0.000000
vt 0.000000 0.000000
vt 0.000000 0.000000
vt 0.000000 0.000000
vt 0.000000 0.000000
vt 0.000000 0.000000
vt 0.000000 0.000000
vt 0.000000 0.000000
vt 0.000000 0.000000
vt 0.000000 0.000000
vt 0.000000 0.000000
vt 0.000000 0.000000
vt 0.000000 0.000000
vt 0.000000 0.000000
vt 0.000000 0.000000
vt 0.000000 0.000000
vt 0.000000 0.000000
vt 0.000000 0.000000
vt 0.000000 0.000000
vt 0.000000 0.000000
vt 0.000000 0.000000
vt 0.000000 0.000000
vt 0.000000 0.000000
vt 0.000000 0.000000
vt 0.000000 0.000000
vt 0.000000 0.000000
vt 0.000000 0.000000
vt 0.000000 0.000000
vt 0.000000 0.000000
vt 0.000000 0.000000
vt 0.000000 0.000000
vt 0.000000 0.000000
vt 0.000000 0.000000
vt 0.000000 0.000000
vt 0.000000 0.000000
vt 0.000000 0.000000
vt 0.000000 0.000000
vt 0.000000 0.000000
vt 0.000000 0.000000
vt 0.000000 0.000000
vt 0.000000 0.000000
vt 0.000000 0.000000
vt 0.000000 0.000000
vt 0.000000 0.000000
vt 0.000000 0.000000
vt 0.000000 0.000000
vt 0.000000 0.000000
vt 0.000000 0.000000
vt 0.000000 0.000000
vt 0.000000 0.000000
vt 0.000000 0.000000
vt 0.000000 0.000000
vt 0.000000 0.000000
vt 0.000000 0.000000
vt 0.000000 0.000000
vt 0.000000 0.000000
vt 0.000000 0.000000
vt 0.000000 0.000000
vt 0.000000 0.000000
vt 0.000000 0.000000
vt 0.000000 0.000000
vt 0.000000 0.000000
vt 0.000000 0.000000
vt 0.000000 0.000000
vt 0.000000 0.000000
vt 0.000000 0.000000
vt 0.000000 0.000000
vt 0.000000 0.000000
vt 0.000000 0.000000
vt 0.000000 0.000000
vt 0.000000 0.000000
vt 0.000000 0.000000
vt 0.000000 0.000000
vt 0.000000 0.000000
vt 0.000000 0.000000
vt 0.000000 0.000000
vt 0.000000 0.000000
vt 0.000000 0.000000
vt 0.000000 0.000000
vt 0.000000 0.000000
vt 0.000000 0.000000
vt 0.000000 0.000000
vt 0.000000 0.000000
vt 0.000000 0.000000
vt 0.000000 0.000000
vt 0.000000 0.000000
vt 0.000000 0.000000
vt 0.000000 0.000000
vt 0.000000 0.000000
vt 0.000000 0.000000
vt 0.000000 0.000000
vt 0.000000 0.000000
vt 0.000000 0.000000
vt 0.000000 0.000000
vt 0.000000 0.000000
vt 0.000000 0.000000
vt 0.000000 0.000000
vt 0.000000 0.000000
vt 0.000000 0.000000
vt 0.000000 0.000000
vt 0.000000 0.000000
vt 0.000000 0.000000
vt 0.000000 0.000000
vt 0.000000 0.000000
vt 0.000000 0.000000
vt 0.000000 0.000000
vt 0.000000 0.000000
vt 0.000000 0.000000
vt 0.000000 0.000000
vt 0.000000 0.000000
vt 0.000000 0.000000
vt 0.000000 0.000000
vt 0.000000 0.000000
vt 0.000000 0.000000
vt 0.000000 0.000000
vt 0.000000 0.000000
vt 0.000000 0.000000
vt 0.000000 0.000000
vt 0.000000 0.000000
vt 0.000000 0.000000
vt 0.000000 0.000000
vt 0.000000 0.000000
vt 0.000000 0.000000
vt 0.000000 0.000000
vt 0.000000 0.000000
vt 0.000000 0.000000
vt 0.000000 0.000000
vt 0.000000 0.000000
vt 0.000000 0.000000
vt 0.000000 0.000000
vt 0.000000 0.000000
vt 0.000000 0.000000
vt 0.000000 0.000000
vt 0.000000 0.000000
vt 0.000000 0.000000
vt 0.000000 0.000000
vt 0.000000 0.000000
vt 0.000000 0.000000
vt 0.000000 0.000000
vt 0.000000 0.000000
vt 0.000000 0.000000
vt 0.000000 0.000000
vt 0.000000 0.000000
vt 0.000000 0.000000
vt 0.000000 0.000000
vt 0.000000 0.000000
vt 0.000000 0.000000
vt 0.000000 0.000000
vt 0.000000 0.000000
vt 0.000000 0.000000
vt 0.000000 0.000000
vt 0.000000 0.000000
vt 0.000000 0.000000
vt 0.000000 0.000000
vt 0.000000 0.000000
vt 0.000000 0.000000
vt 0.000000 0.000000
vt 0.000000 0.000000
vt 0.000000 0.000000
vt 0.000000 0.000000
vt 0.000000 0.000000
vt 0.000000 0.000000
vt 0.000000 0.000000
vt 0.000000 0.000000
vt 0.000000 0.000000
vt 0.000000 0.000000
vt 0.000000 0.000000
vn 0.701436 0.701419 -0.126486
vn 0.693127 0.693110 -0.197922
vn 0.687185 0.687169 0.235743
vn 0.701436 0.701419 -0.126486
vn 0.687185 0.687169 0.235743
vn 0.687185 0.687169 0.235743
vn 0.693127 0.693110 -0.197922
vn 0.693127 0.693111 -0.197921
vn 0.687185 0.687169 0.235743
vn 0.702279 0.702122 0.117601
vn 0.707124 0.706966 0.013247
vn 0.707124 0.706966 0.013247
vn 0.000000 0.000000 0.000000
vn 0.000000 0.000000 0.000000
vn 0.000000 0.000000 0.000000
vn 0.000000 0.000000 0.000000
vn 0.000000 0.000000 0.000000
vn 0.000000 0.000000 0.000000
vn 0.707146 0.707030 0.007268
vn 0.707146 0.707030 0.007268
vn 0.707124 0.706966 0.013247
vn 0.707146 0.707030 0.007268
vn 0.707124 0.706966 0.013247
vn 0.707124 0.706966 0.013247
vn 0.707087 -0.707089 0.007271
vn 0.707087 -0.707089 0.007271
vn 0.707043 -0.707046 0.013243
vn 0.707087 -0.707089 0.007271
vn 0.707043 -0.707046 0.013243
vn 0.707043 -0.707046 0.013243
vn 0.000000 0.000000 0.000000
vn 0.000000 0.000000 0.000000
vn 0.000000 0.000000 0.000000
vn 0.000000 0.000000 0.000000
vn 0.000000 0.000000 0.000000
vn 0.000000 0.000000 0.000000
vn 0.707146 0.707030 0.007268
vn 0.707146 0.707030 0.007268
vn 0.701782 0.701714 -0.122879
vn 0.707146 0.707030 0.007268
vn 0.701782 0.701714 -0.122879
vn 0.701782 0.701714 -0.122879
vn 0.000008 0.664474 -0.747312
vn 0.683223 -0.104680 -0.722667
vn 0.425195 -0.000011 -0.905102
vn 0.670511 0.656198 -0.346150
vn 0.709024 0.704047 -0.040041
vn 0.693127 0.693111 -0.197921
vn 0.670511 0.656198 -0.346150
vn 0.693127 0.693111 -0.197921
vn 0.693127 0.693110 -0.197922
vn 0.425195 -0.000011 -0.905102
vn 0.683223 -0.104680 -0.722667
vn 0.510208 -0.602871 -0.613379
vn -0.703360 0.703386 -0.102630
vn -0.703360 0.703386 -0.102630
vn -0.703360 0.703386 -0.102630
vn -0.703360 0.703386 -0.102630
vn -0.703360 0.703386 -0.102630
vn -0.703360 0.703386 -0.102630
vn 0.049094 0.878795 -0.474667
vn 0.034137 0.945125 -0.324922
vn 0.034137 0.945125 -0.324922
vn 0.707043 -0.707046 0.013243
vn 0.707043 -0.707046 0.013243
vn 0.702200 -0.702202 0.117588
vn 0.703335 0.703279 -0.103530
vn 0.701782 0.701714 -0.122879
vn 0.701782 0.701714 -0.122879
vn 0.703335 0.703279 -0.103530
vn 0.701782 0.701714 -0.122879
vn 0.703335 0.703279 -0.103530
vn 0.706705 0.706659 -0.034660
vn 0.703335 0.703279 -0.103530
vn 0.703335 0.703279 -0.103530
vn 0.706705 0.706659 -0.034660
vn 0.703335 0.703279 -0.103530
vn 0.706705 0.706659 -0.034660
vn 0.694211 0.694172 0.190253
vn 0.706705 0.706659 -0.034660
vn 0.706705 0.706659 -0.034660
vn 0.694211 0.694172 0.190253
vn 0.706705 0.706659 -0.034660
vn 0.694211 0.694172 0.190253
vn 0.647316 0.647288 0.402492
vn 0.694211 0.694172 0.190253
vn 0.694211 0.694172 0.190253
vn 0.647316 0.647288 0.402492
vn 0.694211 0.694172 0.190253
vn 0.647316 0.647288 0.402492
vn 0.632437 0.632418 0.447293
vn 0.647316 0.647288 0.402492
vn 0.647316 0.647288 0.402492
vn 0.632437 0.632418 0.447293
vn 0.647316 0.647288 0.402492
vn 0.632437 0.632418 0.447293
vn 0.687185 0.687169 0.235743
vn 0.632437 0.632418 0.447293
vn 0.632437 0.632418 0.447293
vn 0.687185 0.687169 0.235743
vn 0.632437 0.632418 0.447293
vn 0.662892 0.662876 0.348094
vn 0.687185 0.687169 0.235743
vn 0.662892 0.662876 0.348094
vn 0.687185 0.687169 0.235743
vn 0.693127 0.693110 -0.197922
vn 0.701436 0.701419 -0.126486
vn 0.693127 0.693110 -0.197923
vn 0.693127 0.693110 -0.197922
vn 0.693127 0.693110 -0.197923
vn 0.645446 0.162914 -0.746229
vn 0.693127 0.693110 -0.197922
vn 0.645446 0.162914 -0.746229
vn 0.670511 0.656198 -0.346150
vn 0.676812 0.135399 -0.723597
vn 0.683223 -0.104680 -0.722667
vn 0.000008 0.664474 -0.747312
vn 0.676812 0.135399 -0.723597
vn 0.000008 0.664474 -0.747312
vn 0.583822 0.561705 -0.586208
vn 0.604480 -0.259069 -0.753317
vn 0.645446 0.162914 -0.746229
vn 0.772601 -0.630604 -0.073664
vn 0.604480 -0.259069 -0.753317
vn 0.772601 -0.630604 -0.073664
vn 0.677469 -0.678043 -0.285121
vn 0.000000 0.000000 0.000000
vn 0.000000 0.000000 0.000000
vn 0.000000 0.000000 0.000000
vn 0.000000 0.000000 0.000000
vn 0.000000 0.000000 0.000000
vn 0.000000 0.000000 0.000000
vn 0.701747 -0.701749 -0.122879
vn 0.707087 -0.707089 0.007271
vn 0.707087 -0.707089 0.007271
vn 0.701747 -0.701749 -0.122879
vn 0.707087 -0.707089 0.007271
vn 0.701747 -0.701749 -0.122879
vn 0.703307 -0.703308 -0.103530
vn 0.701747 -0.701749 -0.122879
vn 0.701747 -0.701749 -0.122879
vn 0.703307 -0.703308 -0.103530
vn 0.701747 -0.701749 -0.122879
vn 0.703307 -0.703308 -0.103530
vn 0.706681 -0.706682 -0.034659
vn 0.703307 -0.703308 -0.103530
vn 0.703307 -0.703308 -0.103530
vn 0.706681 -0.706682 -0.034659
vn 0.703307 -0.703308 -0.103530
vn 0.706681 -0.706682 -0.034659
vn 0.694191 -0.694192 0.190253
vn 0.706681 -0.706682 -0.034659
vn 0.706681 -0.706682 -0.034659
vn 0.694191 -0.694192 0.190253
vn 0.706681 -0.706682 -0.034659
vn 0.694191 -0.694192 0.190253
vn 0.647302 -0.647302 0.402493
vn 0.694191 -0.694192 0.190253
vn 0.694191 -0.694192 0.190253
vn 0.647302 -0.647302 0.402493
vn 0.694191 -0.694192 0.190253
vn 0.647302 -0.647302 0.402493
vn 0.632427 -0.632428 0.447293
vn 0.647302 -0.647302 0.402493
vn 0.647302 -0.647302 0.402493
vn 0.632427 -0.632428 0.447293
vn 0.647302 -0.647302 0.402493
vn 0.632427 -0.632428 0.447293
vn 0.662884 -0.662884 0.348094
vn 0.632427 -0.632428 0.447293
vn 0.632427 -0.632428 0.447293
vn 0.662884 -0.662884 0.348094
vn 0.632427 -0.632428 0.447293
vn 0.662884 -0.662884 0.348094
vn 0.662884 -0.662884 0.348094
vn 0.662884 -0.662884 0.348094
vn 0.687177 -0.687177 0.235743
vn 0.688178 0.656947 -0.307947
vn 0.688178 0.656947 -0.307947
vn 0.652235 0.603139 -0.459144
vn 0.642861 -0.655356 -0.396534
vn 0.642861 -0.655356 -0.396534
vn 0.692225 -0.705395 -0.152457
vn 0.642861 -0.655356 -0.396534
vn 0.692225 -0.705395 -0.152457
vn 0.692225 -0.705395 -0.152457
vn 0.692225 -0.705395 -0.152457
vn 0.692225 -0.705395 -0.152457
vn 0.707091 -0.704461 -0.061300
vn 0.692225 -0.705395 -0.152457
vn 0.707091 -0.704461 -0.061300
vn 0.707091 -0.704461 -0.061300
vn 0.709896 -0.701913 -0.058007
vn 0.702707 -0.711402 0.010500
vn 0.702707 -0.711402 0.010500
vn 0.709896 -0.701913 -0.058007
vn 0.702707 -0.711402 0.010500
vn 0.709896 -0.701913 -0.058007
vn 0.702707 -0.711402 0.010500
vn 0.702707 -0.711402 0.010500
vn 0.706183 -0.707351 0.030992
vn 0.702707 -0.711402 0.010500
vn 0.706183 -0.707351 0.030992
vn 0.706183 -0.707351 0.030992
vn 0.706183 -0.707351 0.030992
vn 0.706183 -0.707351 0.030992
vn 0.705494 -0.692949 0.148660
vn 0.704212 0.699249 -0.123034
vn 0.704212 0.699249 -0.123034
vn 0.688178 0.656947 -0.307947
vn 0.704212 0.699249 -0.123034
vn 0.688178 0.656947 -0.307947
vn 0.688178 0.656947 -0.307947
vn 0.700442 0.707618 -0.093049
vn 0.704212 0.699249 -0.123034
vn 0.704212 0.699249 -0.123034
vn 0.700442 0.707618 -0.093049
vn 0.704212 0.699249 -0.123034
vn 0.700442 0.707618 -0.093049
vn 0.687177 -0.687177 0.235743
vn 0.662884 -0.662884 0.348094
vn 0.630149 -0.772829 -0.075151
vn 0.687177 -0.687177 0.235743
vn 0.630149 -0.772829 -0.075151
vn 0.702325 -0.702325 0.116099
vn 0.670511 0.656198 -0.346150
vn 0.645446 0.162914 -0.746229
vn 0.676812 0.135399 -0.723597
vn 0.670511 0.656198 -0.346150
vn 0.676812 0.135399 -0.723597
vn 0.583822 0.561705 -0.586208
vn 0.645446 0.162914 -0.746229
vn 0.604480 -0.259069 -0.753317
vn 0.514685 -0.514827 -0.685604
vn 0.645446 0.162914 -0.746229
vn 0.514685 -0.514827 -0.685604
vn 0.676812 0.135399 -0.723597
vn 0.257838 -0.603695 -0.754368
vn 0.257838 -0.603695 -0.754368
vn 0.335787 -0.624049 -0.705556
vn 0.257838 -0.603695 -0.754368
vn 0.335787 -0.624049 -0.705556
vn 0.514685 -0.514827 -0.685604
vn -0.969043 -0.078570 -0.234056
vn -0.969043 -0.078570 -0.234056
vn -0.900613 -0.117747 -0.418368
vn -0.969043 -0.078570 -0.234056
vn -0.900613 -0.117747 -0.418368
vn -0.900613 -0.117747 -0.418368
vn 0.685650 0.671302 0.281491
vn 0.685650 0.671302 0.281491
vn 0.707092 0.703212 0.074252
vn 0.685650 0.671302 0.281491
vn 0.707092 0.703212 0.074252
vn 0.707092 0.703212 0.074252
vn 0.709024 0.704047 -0.040041
vn 0.670511 0.656198 -0.346150
vn 0.685650 0.671302 0.281491
vn 0.709024 0.704047 -0.040041
vn 0.685650 0.671302 0.281491
vn 0.685650 0.671302 0.281491
vn -0.983239 -0.042791 -0.177227
vn -0.983239 -0.042791 -0.177227
vn -0.969043 -0.078570 -0.234056
vn -0.983239 -0.042791 -0.177227
vn -0.969043 -0.078570 -0.234056
vn -0.969043 -0.078570 -0.234056
vn -0.979627 -0.028133 -0.198846
vn -0.984364 -0.011471 -0.175771
vn -0.984364 -0.011471 -0.175771
vn -0.979627 -0.028133 -0.198846
vn -0.984364 -0.011471 -0.175771
vn -0.979627 -0.028133 -0.198846
vn -0.988601 -0.003610 -0.150516
vn -0.988601 -0.003610 -0.150516
vn -0.984364 -0.011471 -0.175771
vn -0.988601 -0.003610 -0.150516
vn -0.984364 -0.011471 -0.175771
vn -0.984364 -0.011471 -0.175771
vn -0.999418 0.008329 -0.033066
vn -0.988601 -0.003610 -0.150516
vn -0.988601 -0.003610 -0.150516
vn 0.034137 0.945125 -0.324922
vn 0.034137 0.945125 -0.324922
vn 0.019395 0.991917 -0.125397
vn 0.034137 0.945125 -0.324922
vn 0.019395 0.991917 -0.125397
vn 0.019395 0.991917 -0.125397
vn 0.041066 0.979170 -0.198846
vn 0.019395 0.991917 -0.125397
vn 0.019395 0.991917 -0.125397
vn 0.041066 0.979170 -0.198846
vn 0.019395 0.991917 -0.125397
vn 0.041066 0.979170 -0.198846
vn -0.061748 -0.933368 0.353568
vn -0.061748 -0.933368 0.353568
vn -0.072369 -0.925903 0.370763
vn -0.061748 -0.933368 0.353568
vn -0.072369 -0.925903 0.370763
vn -0.072369 -0.925903 0.370763
vn 0.709896 -0.701913 -0.058007
vn 0.707091 -0.704461 -0.061300
vn 0.707091 -0.704461 -0.061300
vn 0.709896 -0.701913 -0.058007
vn 0.707091 -0.704461 -0.061300
vn 0.709896 -0.701913 -0.058007
vn 0.700442 0.707618 -0.093049
vn 0.707092 0.703212 0.074252
vn 0.707092 0.703212 0.074252
vn 0.700442 0.707618 -0.093049
vn 0.707092 0.703212 0.074252
vn 0.700442 0.707618 -0.093049
vn 0.772601 -0.630604 -0.073664
vn 0.702325 -0.702325 0.116099
vn 0.630149 -0.772829 -0.075151
vn 0.772601 -0.630604 -0.073664
vn 0.630149 -0.772829 -0.075151
vn 0.677469 -0.678043 -0.285121
vn 0.514685 -0.514827 -0.685604
vn 0.510208 -0.602871 -0.613379
vn 0.683223 -0.104680 -0.722667
vn 0.683223 -0.104680 -0.722667
vn 0.676812 0.135399 -0.723597
vn 0.514685 -0.514827 -0.685604
vn 0.335787 -0.624049 -0.705556
vn 0.510208 -0.602871 -0.613379
vn 0.514685 -0.514827 -0.685604
vn 0.041066 0.979170 -0.198846
vn 0.055770 0.982589 -0.177226
vn 0.055770 0.982589 -0.177226
vn 0.041066 0.979170 -0.198846
vn 0.055770 0.982589 -0.177226
vn 0.041066 0.979170 -0.198846
vn -0.979627 -0.028133 -0.198846
vn -0.983239 -0.042791 -0.177227
vn -0.983239 -0.042791 -0.177227
vn -0.979627 -0.028133 -0.198846
vn -0.983239 -0.042791 -0.177227
vn -0.979627 -0.028133 -0.198846
vn -0.001952 -0.998346 0.057460
vn -0.023172 -0.983165 0.181244
vn -0.023172 -0.983165 0.181244
vn -0.001952 -0.998346 0.057460
vn -0.023172 -0.983165 0.181244
vn -0.001952 -0.998346 0.057460
vn 0.998285 -0.011230 0.057460
vn 0.983386 0.010188 0.181243
vn 0.983386 0.010188 0.181243
vn 0.998285 -0.011230 0.057460
vn 0.983386 0.010188 0.181243
vn 0.998285 -0.011230 0.057460
vn 0.956161 -0.040342 -0.290048
vn 0.991190 -0.024659 -0.130130
vn 0.991190 -0.024659 -0.130130
vn 0.991190 -0.024659 -0.130130
vn 0.991190 -0.024659 -0.130130
vn 0.997971 -0.006093 0.063378
vn 0.991190 -0.024659 -0.130130
vn 0.997971 -0.006093 0.063378
vn 0.997971 -0.006093 0.063378
vn 0.998285 -0.011230 0.057460
vn 0.997971 -0.006093 0.063378
vn 0.997971 -0.006093 0.063378
vn 0.998285 -0.011230 0.057460
vn 0.997971 -0.006093 0.063378
vn 0.998285 -0.011230 0.057460
vn 0.983386 0.010188 0.181243
vn 0.983386 0.010188 0.181243
vn 0.934103 0.049419 0.353568
vn 0.983386 0.010188 0.181243
vn 0.934103 0.049419 0.353568
vn 0.934103 0.049419 0.353568
vn 0.934103 0.049419 0.353568
vn 0.934103 0.049419 0.353568
vn 0.926778 0.060137 0.370764
vn 0.934103 0.049419 0.353568
vn 0.926778 0.060137 0.370764
vn 0.926778 0.060137 0.370764
vn 0.091358 0.967921 -0.234056
vn 0.091358 0.967921 -0.234056
vn 0.129629 0.898980 -0.418368
vn 0.091358 0.967921 -0.234056
vn 0.129629 0.898980 -0.418368
vn 0.129629 0.898980 -0.418368
vn 0.630149 -0.772829 -0.075151
vn 0.257838 -0.603695 -0.754368
vn 0.257838 -0.603695 -0.754368
vn 0.630149 -0.772829 -0.075151
vn 0.257838 -0.603695 -0.754368
vn 0.677469 -0.678043 -0.285121
vn 0.055770 0.982589 -0.177226
vn 0.055770 0.982589 -0.177226
vn 0.091358 0.967921 -0.234056
vn 0.055770 0.982589 -0.177226
vn 0.091358 0.967921 -0.234056
vn 0.091358 0.967921 -0.234056
vn -0.018274 -0.985851 0.166623
vn -0.006501 -0.998759 0.049370
vn -0.006501 -0.998759 0.049370
vn -0.006501 -0.998759 0.049370
vn -0.006501 -0.998759 0.049370
vn -0.001961 -0.999921 0.012448
vn -0.006501 -0.998759 0.049370
vn -0.001961 -0.999921 0.012448
vn -0.001961 -0.999921 0.012448
vn -0.001952 -0.998346 0.057460
vn -0.001961 -0.999921 0.012448
vn -0.001961 -0.999921 0.012448
vn -0.001952 -0.998346 0.057460
vn -0.001961 -0.999921 0.012448
vn -0.001952 -0.998346 0.057460
vn -0.023172 -0.983165 0.181244
vn -0.023172 -0.983165 0.181244
vn -0.061748 -0.933368 0.353568
vn -0.023172 -0.983165 0.181244
vn -0.061748 -0.933368 0.353568
vn -0.061748 -0.933368 0.353568
vn 0.702325 -0.702325 0.116099
vn 0.772601 -0.630604 -0.073664
vn 0.662884 -0.662884 0.348094
vn 0.702325 -0.702325 0.116099
vn 0.662884 -0.662884 0.348094
vn 0.687177 -0.687177 0.235743
vn 0.687185 0.687169 0.235743
vn 0.662892 0.662876 0.348094
vn 0.693127 0.693110 -0.197923
vn 0.687185 0.687169 0.235743
vn 0.693127 0.693110 -0.197923
vn 0.701436 0.701419 -0.126486
f 86/1/1 80/2/2 22/3/3
f 86/4/4 22/5/5 88/6/6
f 80/7/7 21/8/8 22/9/9
f 84/10/10 83/11/11 82/12/12
f 20/13/13 20/14/14 1/15/15
f 20/16/16 1/17/17 1/18/18
f 53/19/19 29/20/20 82/21/21
f 53/22/22 82/23/23 83/24/24
f 41/25/25 53/26/26 83/27/27
f 41/28/28 83/29/29 81/30/30
f 20/31/31 20/32/32 1/33/33
f 20/34/34 1/35/35 1/36/36
f 29/37/37 53/38/38 52/39/39
f 29/40/40 52/41/41 28/42/42
f 20/43/43 42/44/44 79/45/45
f 2/46/46 15/47/47 21/48/48
f 2/49/49 21/50/50 80/51/51
f 79/52/52 42/53/53 30/54/54
f 1/55/55 1/56/56 1/57/57
f 1/58/58 1/59/59 1/60/60
f 54/61/61 59/62/62 72/63/63
f 81/64/64 83/65/65 84/66/66
f 27/67/67 28/68/68 52/69/69
f 27/70/70 52/71/71 51/72/72
f 26/73/73 27/74/74 51/75/75
f 26/76/76 51/77/77 50/78/78
f 25/79/79 26/80/80 50/81/81
f 25/82/82 50/83/83 49/84/84
f 24/85/85 25/86/86 49/87/87
f 24/88/88 49/89/89 48/90/90
f 23/91/91 24/92/92 48/93/93
f 23/94/94 48/95/95 47/96/96
f 22/97/97 23/98/98 47/99/99
f 22/100/100 47/101/101 46/102/102
f 22/103/103 46/104/104 88/105/105
f 80/106/106 86/107/107 45/108/108
f 80/109/109 45/110/110 44/111/111
f 80/112/112 44/113/113 2/114/114
f 43/115/115 42/116/116 20/117/117
f 43/118/118 20/119/119 8/120/120
f 73/121/121 44/122/122 45/123/123
f 73/124/124 45/125/125 67/126/126
f 1/127/127 1/128/128 1/129/129
f 1/130/130 1/131/131 1/132/132
f 52/133/133 53/134/134 41/135/135
f 52/136/136 41/137/137 40/138/138
f 51/139/139 52/140/140 40/141/141
f 51/142/142 40/143/143 39/144/144
f 50/145/145 51/146/146 39/147/147
f 50/148/148 39/149/149 38/150/150
f 49/151/151 50/152/152 38/153/153
f 49/154/154 38/155/155 37/156/156
f 48/157/157 49/158/158 37/159/159
f 48/160/160 37/161/161 36/162/162
f 47/163/163 48/164/164 36/165/165
f 47/166/166 36/167/167 35/168/168
f 46/169/169 47/170/170 35/171/171
f 46/172/172 35/173/173 34/174/174
f 46/175/175 34/176/176 85/177/177
f 14/178/178 6/179/179 1/180/180
f 2/181/181 8/182/182 9/183/183
f 2/184/184 9/185/185 3/186/186
f 3/187/187 9/188/188 10/189/189
f 3/190/190 10/191/191 4/192/192
f 18/193/193 11/194/194 5/195/195
f 18/196/196 5/197/197 17/198/198
f 5/199/199 11/200/200 12/201/201
f 5/202/202 12/203/203 6/204/204
f 6/205/205 12/206/206 1/207/207
f 7/208/208 5/209/209 6/210/210
f 7/211/211 6/212/212 14/213/213
f 17/214/214 5/215/215 7/216/216
f 17/217/217 7/218/218 19/219/219
f 85/220/220 34/221/221 33/222/222
f 85/223/223 33/224/224 87/225/225
f 2/226/226 44/227/227 43/228/228
f 2/229/229 43/230/230 8/231/231
f 44/232/232 73/233/233 55/234/234
f 44/235/235 55/236/236 43/237/237
f 61/238/238 32/239/239 31/240/240
f 61/241/241 31/242/242 55/243/243
f 56/244/244 62/245/245 61/246/246
f 56/247/247 61/248/248 55/249/249
f 16/250/250 3/251/251 4/252/252
f 16/253/253 4/254/254 13/255/255
f 15/256/256 2/257/257 3/258/258
f 15/259/259 3/260/260 16/261/261
f 57/262/262 63/263/263 62/264/264
f 57/265/265 62/266/266 56/267/267
f 75/268/268 58/269/269 64/270/270
f 75/271/271 64/272/272 76/273/273
f 59/274/274 65/275/275 64/276/276
f 59/277/277 64/278/278 58/279/279
f 54/280/280 65/281/281 59/282/282
f 72/283/283 59/284/284 58/285/285
f 72/286/286 58/287/287 60/288/288
f 77/289/289 60/290/290 58/291/291
f 77/292/292 58/293/293 75/294/294
f 62/295/295 68/296/296 67/297/297
f 62/298/298 67/299/299 61/300/300
f 17/301/301 4/302/302 10/303/303
f 17/304/304 10/305/305 18/306/306
f 19/307/307 13/308/308 4/309/309
f 19/310/310 4/311/311 17/312/312
f 45/313/313 87/314/314 33/315/315
f 45/316/316 33/317/317 67/318/318
f 55/319/319 30/320/320 42/321/321
f 42/322/322 43/323/323 55/324/324
f 31/325/325 30/326/326 55/327/327
f 75/328/328 57/329/329 66/330/330
f 75/331/331 66/332/332 77/333/333
f 76/334/334 63/335/335 57/336/336
f 76/337/337 57/338/338 75/339/339
f 78/340/340 69/341/341 63/342/342
f 78/343/343 63/344/344 76/345/345
f 77/346/346 66/347/347 69/348/348
f 77/349/349 69/350/350 78/351/351
f 54/352/352 72/353/353 71/354/354
f 71/355/355 72/356/356 60/357/357
f 71/358/358 60/359/359 70/360/360
f 78/361/361 70/362/362 60/363/363
f 78/364/364 60/365/365 77/366/366
f 69/367/367 66/368/368 74/369/369
f 69/370/370 74/371/371 68/372/372
f 68/373/373 74/374/374 73/375/375
f 68/376/376 73/377/377 67/378/378
f 74/379/379 56/380/380 55/381/381
f 74/382/382 55/383/383 73/384/384
f 33/385/385 32/386/386 61/387/387
f 33/388/388 61/389/389 67/390/390
f 66/391/391 57/392/392 56/393/393
f 66/394/394 56/395/395 74/396/396
f 54/397/397 71/398/398 65/399/399
f 65/400/400 71/401/401 70/402/402
f 65/403/403 70/404/404 64/405/405
f 76/406/406 64/407/407 70/408/408
f 76/409/409 70/410/410 78/411/411
f 63/412/412 69/413/413 68/414/414
f 63/415/415 68/416/416 62/417/417
f 87/418/418 45/419/419 46/420/420
f 87/421/421 46/422/422 85/423/423
f 88/424/424 46/425/425 45/426/426
f 88/427/427 45/428/428 86/429/429
