v 2.268186 0.324038 4.231660
v 8.330278 0.000001 8.693458
v 0.000001 3.369321 15.859229
v 7.742497 0.000001 0.833394
v -0.000039 -2.091447 6.470793
v 9.534737 0.711992 3.705954
v 24.783384 0.401745 8.519783
v 13.902438 0.711993 10.118686
v 8.330278 0.711992 6.760731
v -0.000039 -1.001528 7.678746
v -0.000039 -2.621678 5.616387
v -0.000040 -2.592220 4.231661
v -0.000040 -1.826331 3.583491
v 0.000000 3.761410 11.632011
v -0.000040 -0.765870 1.845217
v -0.000040 -1.237186 0.313179
v -0.000038 -0.471298 -3.399067
v -0.000038 -0.854242 -4.135624
v -0.000039 -0.265097 -8.054106
v -0.000003 1.001529 7.678746
v -0.000004 2.091447 6.470793
v -0.000004 2.621678 5.616387
v -0.000004 2.592221 4.231661
v -0.000004 1.826332 3.583491
v -0.285842 3.653243 15.892315
v -0.000004 0.765870 1.845217
v -0.000004 1.237186 0.313179
v -0.000002 0.471297 -3.399067
v -0.000002 0.854242 -4.135624
v -0.000002 0.265096 -8.054106
v -1.001522 0.000012 7.678746
v 0.000000 4.530047 11.557996
v -2.091440 0.000012 6.470793
v 0.000001 3.339758 17.270702
v 13.787499 0.000001 12.247939
v -1.826324 0.000012 3.583491
v 0.000001 3.937163 15.925396
v -0.765863 0.000012 1.845217
v -1.237179 0.000012 0.313179
v -0.471289 0.000012 -3.399067
v -0.854233 0.000012 -4.135624
v -0.265088 0.000012 -8.054106
v -3.697822 3.776179 16.895298
v -0.861951 0.863954 7.101141
v 15.396652 -0.711989 10.512408
v -2.969789 2.999809 11.322338
v -3.461986 3.498547 15.544482
v 14.017379 0.000001 3.817606
v -3.864198 3.499168 15.504031
v -0.800222 1.536004 6.607559
v 24.783384 -1.022237 8.519783
v -2.957754 3.537277 11.226815
v -3.457298 3.900733 15.504033
v 26.737356 -0.775619 -1.010674
v -3.507370 2.994870 11.226817
v -1.473026 1.483151 6.329977
v 26.890608 -1.022237 7.025578
v -3.495334 3.532338 11.131294
v -3.859508 3.901353 15.463575
v 14.707017 0.000001 0.062276
v 1.534757 0.811103 6.607558
v -1.534757 0.811103 6.607558
v 13.902438 -0.711989 10.118686
v 15.396652 0.711993 10.512408
v 13.979066 -0.711989 -0.806528
v 9.534737 -0.711989 3.705954
v 8.330278 -0.711989 6.760731
v 0.000001 0.000012 8.149237
v 2.293962 0.327721 5.616387
v -0.000001 0.339849 -8.630965
v -0.000048 -0.339852 -8.630965
v -0.339839 0.000014 -8.630965
v 0.000001 0.000014 -10.660393
v -2.268186 0.324038 4.231661
v -2.293966 -0.327699 5.616387
v -2.293962 0.327720 5.616387
v -2.268192 -0.324017 4.231661
v -13.787499 -0.000001 12.247939
v -27.043859 -0.310251 9.565561
v -41.526245 -2.091998 -2.850019
v -26.737356 -0.775624 -1.010675
v -22.522905 -0.310251 4.813919
v -17.005806 -0.000001 6.116788
v -14.017378 -0.000001 3.817606
v -14.707017 -0.000001 0.062276
v -20.760498 -0.257608 -5.455760
v -13.251117 -0.000001 -3.693054
v -15.396652 -0.711992 10.512408
v -13.902438 -0.711991 10.118686
v -24.783382 -1.022241 8.519783
v -26.890606 -1.022241 7.025578
v -8.330279 -0.711991 6.760731
v -9.534736 -0.711991 3.705954
v -13.979066 -0.711991 -0.806528
v -15.396652 0.711990 10.512408
v -13.902438 0.711991 10.118686
v -24.783382 0.401740 8.519783
v -26.890606 0.401740 7.025578
v -8.330279 0.711990 6.760731
v -9.534736 0.711990 3.705954
v -13.979066 0.711989 -0.806528
v -8.330279 -0.000000 8.693457
v -7.742497 -0.000000 0.833394
v 0.285841 3.653243 15.892315
v 13.979066 0.711991 -0.806528
v 26.890608 0.401745 7.025578
v 1.001521 0.000012 7.678746
v 2.293966 -0.327699 5.616387
v 2.091440 0.000013 6.470793
v -0.386097 4.145728 11.595004
v 27.043861 -0.310246 9.565561
v 1.826324 0.000012 3.583491
v 2.268192 -0.324017 4.231661
v 0.765863 0.000012 1.845217
v 1.237179 0.000012 0.313179
v 0.471289 0.000012 -3.399067
v 0.854233 0.000012 -4.135624
v 0.265088 0.000012 -8.054106
v 3.697821 3.776179 16.895298
v 0.861951 0.863955 7.101141
v 22.522905 -0.310247 4.813919
v 2.969788 2.999809 11.322338
v 3.461985 3.498547 15.544481
v 13.251116 0.000001 -3.693053
v 3.864197 3.499169 15.504030
v 0.800222 1.536004 6.607559
v 17.005806 0.000001 6.116788
v 2.957753 3.537277 11.226815
v 3.457297 3.900733 15.504032
v 20.760498 -0.257604 -5.455759
v 3.507369 2.994871 11.226816
v 1.473026 1.483151 6.329977
v 41.526245 -2.091991 -2.850018
v 3.495333 3.532339 11.131293
v 3.859507 3.901353 15.463574
v 0.386096 4.145728 11.595004
v 0.339839 0.000014 -8.630965
vt 0.000000 0.000000
vt 0.000000 0.000000
vt 0.000000 0.000000
vt 0.000000 0.000000
vt 0.000000 0.000000
vt 0.000000 0.000000
vt 0.000000 0.000000
vt 0.000000 0.000000
vt 0.000000 0.000000
vt 0.000000 0.000000
vt 0.000000 0.000000
vt 0.000000 0.000000
vt 0.000000 0.000000
vt 0.000000 0.000000
vt 0.000000 0.000000
vt 0.000000 0.000000
vt 0.000000 0.000000
vt 0.000000 0.000000
vt 0.000000 0.000000
vt 0.000000 0.000000
vt 0.000000 0.000000
vt 0.000000 0.000000
vt 0.000000 0.000000
vt 0.000000 0.000000
vt 0.000000 0.000000
vt 0.000000 0.000000
vt 0.000000 0.000000
vt 0.000000 0.000000
vt 0.000000 0.000000
vt 0.000000 0.000000
vt 0.000000 0.000000
vt 0.000000 0.000000
vt 0.000000 0.000000
vt 0.000000 0.000000
vt 0.000000 0.000000
vt 0.000000 0.000000
vt 0.000000 0.000000
vt 0.000000 0.000000
vt 0.000000 0.000000
vt 0.000000 0.000000
vt 0.000000 0.000000
vt 0.000000 0.000000
vt 0.000000 0.000000
vt 0.000000 0.000000
vt 0.000000 0.000000
vt 0.000000 0.000000
vt 0.000000 0.000000
vt 0.000000 0.000000
vt 0.000000 0.000000
vt 0.000000 0.000000
vt 0.000000 0.000000
vt 0.000000 0.000000
vt 0.000000 0.000000
vt 0.000000 0.000000
vt 0.000000 0.000000
vt 0.000000 0.000000
vt 0.000000 0.000000
vt 0.000000 0.000000
vt 0.000000 0.000000
vt 0.000000 0.000000
vt 0.000000 0.000000
vt 0.000000 0.000000
vt 0.000000 0.000000
vt 0.000000 0.000000
vt 0.000000 0.000000
vt 0.000000 0.000000
vt 0.000000 0.000000
vt 0.000000 0.000000
vt 0.000000 0.000000
vt 0.000000 0.000000
vt 0.000000 0.000000
vt 0.000000 0.000000
vt 0.000000 0.000000
vt 0.000000 0.000000
vt 0.000000 0.000000
vt 0.000000 0.000000
vt 0.000000 0.000000
vt 0.000000 0.000000
vt 0.000000 0.000000
vt 0.000000 0.000000
vt 0.000000 0.000000
vt 0.000000 0.000000
vt 0.000000 0.000000
vt 0.000000 0.000000
vt 0.000000 0.000000
vt 0.000000 0.000000
vt 0.000000 0.000000
vt 0.000000 0.000000
vt 0.000000 0.000000
vt 0.000000 0.000000
vt 0.000000 0.000000
vt 0.000000 0.000000
vt 0.000000 0.000000
vt 0.000000 0.000000
vt 0.000000 0.000000
vt 0.000000 0.000000
vt 0.000000 0.000000
vt 0.000000 0.000000
vt 0.000000 0.000000
vt 0.000000 0.000000
vt 0.000000 0.000000
vt 0.000000 0.000000
vt 0.000000 0.000000
vt 0.000000 0.000000
vt 0.000000 0.000000
vt 0.000000 0.000000
vt 0.000000 0.000000
vt 0.000000 0.000000
vt 0.000000 0.000000
vt 0.000000 0.000000
vt 0.000000 0.000000
vt 0.000000 0.000000
vt 0.000000 0.000000
vt 0.000000 0.000000
vt 0.000000 0.000000
vt 0.000000 0.000000
vt 0.000000 0.000000
vt 0.000000 0.000000
vt 0.000000 0.000000
vt 0.000000 0.000000
vt 0.000000 0.000000
vt 0.000000 0.000000
vt 0.000000 0.000000
vt 0.000000 0.000000
vt 0.000000 0.000000
vt 0.000000 0.000000
vt 0.000000 0.000000
vt 0.000000 0.000000
vt 0.000000 0.000000
vt 0.000000 0.000000
vt 0.000000 0.000000
vt 0.000000 0.000000
vt 0.000000 0.000000
vt 0.000000 0.000000
vt 0.000000 0.000000
vt 0.000000 0.000000
vt 0.000000 0.000000
vt 0.000000 0.000000
vt 0.000000 0.000000
vt 0.000000 0.000000
vt 0.000000 0.000000
vt 0.000000 0.000000
vt 0.000000 0.000000
vt 0.000000 0.000000
vt 0.000000 0.000000
vt 0.000000 0.000000
vt 0.000000 0.000000
vt 0.000000 0.000000
vt 0.000000 0.000000
vt 0.000000 0.000000
vt 0.000000 0.000000
vt 0.000000 0.000000
vt 0.000000 0.000000
vt 0.000000 0.000000
vt 0.000000 0.000000
vt 0.000000 0.000000
vt 0.000000 0.000000
vt 0.000000 0.000000
vt 0.000000 0.000000
vt 0.000000 0.000000
vt 0.000000 0.000000
vt 0.000000 0.000000
vt 0.000000 0.000000
vt 0.000000 0.000000
vt 0.000000 0.000000
vt 0.000000 0.000000
vt 0.000000 0.000000
vt 0.000000 0.000000
vt 0.000000 0.000000
vt 0.000000 0.000000
vt 0.000000 0.000000
vt 0.000000 0.000000
vt 0.000000 0.000000
vt 0.000000 0.000000
vt 0.000000 0.000000
vt 0.000000 0.000000
vt 0.000000 0.000000
vt 0.000000 0.000000
vt 0.000000 0.000000
vt 0.000000 0.000000
vt 0.000000 0.000000
vt 0.000000 0.000000
vt 0.000000 0.000000
vt 0.000000 0.000000
vt 0.000000 0.000000
vt 0.000000 0.000000
vt 0.000000 0.000000
vt 0.000000 0.000000
vt 0.000000 0.000000
vt 0.000000 0.000000
vt 0.000000 0.000000
vt 0.000000 0.000000
vt 0.000000 0.000000
vt 0.000000 0.000000
vt 0.000000 0.000000
vt 0.000000 0.000000
vt 0.000000 0.000000
vt 0.000000 0.000000
vt 0.000000 0.000000
vt 0.000000 0.000000
vt 0.000000 0.000000
vt 0.000000 0.000000
vt 0.000000 0.000000
vt 0.000000 0.000000
vt 0.000000 0.000000
vt 0.000000 0.000000
vt 0.000000 0.000000
vt 0.000000 0.000000
vt 0.000000 0.000000
vt 0.000000 0.000000
vt 0.000000 0.000000
vt 0.000000 0.000000
vt 0.000000 0.000000
vt 0.000000 0.000000
vt 0.000000 0.000000
vt 0.000000 0.000000
vt 0.000000 0.000000
vt 0.000000 0.000000
vt 0.000000 0.000000
vt 0.000000 0.000000
vt 0.000000 0.000000
vt 0.000000 0.000000
vt 0.000000 0.000000
vt 0.000000 0.000000
vt 0.000000 0.000000
vt 0.000000 0.000000
vt 0.000000 0.000000
vt 0.000000 0.000000
vt 0.000000 0.000000
vt 0.000000 0.000000
vt 0.000000 0.000000
vt 0.000000 0.000000
vt 0.000000 0.000000
vt 0.000000 0.000000
vt 0.000000 0.000000
vt 0.000000 0.000000
vt 0.000000 0.000000
vt 0.000000 0.000000
vt 0.000000 0.000000
vt 0.000000 0.000000
vt 0.000000 0.000000
vt 0.000000 0.000000
vt 0.000000 0.000000
vt 0.000000 0.000000
vt 0.000000 0.000000
vt 0.000000 0.000000
vt 0.000000 0.000000
vt 0.000000 0.000000
vt 0.000000 0.000000
vt 0.000000 0.000000
vt 0.000000 0.000000
vt 0.000000 0.000000
vt 0.000000 0.000000
vt 0.000000 0.000000
vt 0.000000 0.000000
vt 0.000000 0.000000
vt 0.000000 0.000000
vt 0.000000 0.000000
vt 0.000000 0.000000
vt 0.000000 0.000000
vt 0.000000 0.000000
vt 0.000000 0.000000
vt 0.000000 0.000000
vt 0.000000 0.000000
vt 0.000000 0.000000
vt 0.000000 0.000000
vt 0.000000 0.000000
vt 0.000000 0.000000
vt 0.000000 0.000000
vt 0.000000 0.000000
vt 0.000000 0.000000
vt 0.000000 0.000000
vt 0.000000 0.000000
vt 0.000000 0.000000
vt 0.000000 0.000000
vt 0.000000 0.000000
vt 0.000000 0.000000
vt 0.000000 0.000000
vt 0.000000 0.000000
vt 0.000000 0.000000
vt 0.000000 0.000000
vt 0.000000 0.000000
vt 0.000000 0.000000
vt 0.000000 0.000000
vt 0.000000 0.000000
vt 0.000000 0.000000
vt 0.000000 0.000000
vt 0.000000 0.000000
vt 0.000000 0.000000
vt 0.000000 0.000000
vt 0.000000 0.000000
vt 0.000000 0.000000
vt 0.000000 0.000000
vt 0.000000 0.000000
vt 0.000000 0.000000
vt 0.000000 0.000000
vt 0.000000 0.000000
vt 0.000000 0.000000
vt 0.000000 0.000000
vt 0.000000 0.000000
vt 0.000000 0.000000
vt 0.000000 0.000000
vt 0.000000 0.000000
vt 0.000000 0.000000
vt 0.000000 0.000000
vt 0.000000 0.000000
vt 0.000000 0.000000
vt 0.000000 0.000000
vt 0.000000 0.000000
vt 0.000000 0.000000
vt 0.000000 0.000000
vt 0.000000 0.000000
vt 0.000000 0.000000
vt 0.000000 0.000000
vt 0.000000 0.000000
vt 0.000000 0.000000
vt 0.000000 0.000000
vt 0.000000 0.000000
vt 0.000000 0.000000
vt 0.000000 0.000000
vt 0.000000 0.000000
vt 0.000000 0.000000
vt 0.000000 0.000000
vt 0.000000 0.000000
vt 0.000000 0.000000
vt 0.000000 0.000000
vt 0.000000 0.000000
vt 0.000000 0.000000
vt 0.000000 0.000000
vt 0.000000 0.000000
vt 0.000000 0.000000
vt 0.000000 0.000000
vt 0.000000 0.000000
vt 0.000000 0.000000
vt 0.000000 0.000000
vt 0.000000 0.000000
vt 0.000000 0.000000
vt 0.000000 0.000000
vt 0.000000 0.000000
vt 0.000000 0.000000
vt 0.000000 0.000000
vt 0.000000 0.000000
vt 0.000000 0.000000
vt 0.000000 0.000000
vt 0.000000 0.000000
vt 0.000000 0.000000
vt 0.000000 0.000000
vt 0.000000 0.000000
vt 0.000000 0.000000
vt 0.000000 0.000000
vt 0.000000 0.000000
vt 0.000000 0.000000
vt 0.000000 0.000000
vt 0.000000 0.000000
vt 0.000000 0.000000
vt 0.000000 0.000000
vt 0.000000 0.000000
vt 0.000000 0.000000
vt 0.000000 0.000000
vt 0.000000 0.000000
vt 0.000000 0.000000
vt 0.000000 0.000000
vt 0.000000 0.000000
vt 0.000000 0.000000
vt 0.000000 0.000000
vt 0.000000 0.000000
vt 0.000000 0.000000
vt 0.000000 0.000000
vt 0.000000 0.000000
vt 0.000000 0.000000
vt 0.000000 0.000000
vt 0.000000 0.000000
vt 0.000000 0.000000
vt 0.000000 0.000000
vt 0.000000 0.000000
vt 0.000000 0.000000
vt 0.000000 0.000000
vt 0.000000 0.000000
vt 0.000000 0.000000
vt 0.000000 0.000000
vt 0.000000 0.000000
vt 0.000000 0.000000
vt 0.000000 0.000000
vt 0.000000 0.000000
vt 0.000000 0.000000
vt 0.000000 0.000000
vt 0.000000 0.000000
vt 0.000000 0.000000
vt 0.000000 0.000000
vt 0.000000 0.000000
vt 0.000000 0.000000
vt 0.000000 0.000000
vt 0.000000 0.000000
vt 0.000000 0.000000
vt 0.000000 0.000000
vt 0.000000 0.000000
vt 0.000000 0.000000
vt 0.000000 0.000000
vt 0.000000 0.000000
vt 0.000000 0.000000
vt 0.000000 0.000000
vt 0.000000 0.000000
vt 0.000000 0.000000
vt 0.000000 0.000000
vt 0.000000 0.000000
vt 0.000000 0.000000
vt 0.000000 0.000000
vt 0.000000 0.000000
vt 0.000000 0.000000
vt 0.000000 0.000000
vt 0.000000 0.000000
vt 0.000000 0.000000
vt 0.000000 0.000000
vt 0.000000 0.000000
vt 0.000000 0.000000
vt 0.000000 0.000000
vt 0.000000 0.000000
vt 0.000000 0.000000
vt 0.000000 0.000000
vt 0.000000 0.000000
vt 0.000000 0.000000
vt 0.000000 0.000000
vt 0.000000 0.000000
vt 0.000000 0.000000
vt 0.000000 0.000000
vt 0.000000 0.000000
vt 0.000000 0.000000
vt 0.000000 0.000000
vt 0.000000 0.000000
vt 0.000000 0.000000
vt 0.000000 0.000000
vt 0.000000 0.000000
vt 0.000000 0.000000
vt 0.000000 0.000000
vt 0.000000 0.000000
vt 0.000000 0.000000
vt 0.000000 0.000000
vt 0.000000 0.000000
vt 0.000000 0.000000
vt 0.000000 0.000000
vt 0.000000 0.000000
vt 0.000000 0.000000
vt 0.000000 0.000000
vt 0.000000 0.000000
vt 0.000000 0.000000
vt 0.000000 0.000000
vt 0.000000 0.000000
vt 0.000000 0.000000
vt 0.000000 0.000000
vt 0.000000 0.000000
vt 0.000000 0.000000
vt 0.000000 0.000000
vt 0.000000 0.000000
vt 0.000000 0.000000
vt 0.000000 0.000000
vt 0.000000 0.000000
vt 0.000000 0.000000
vt 0.000000 0.000000
vt 0.000000 0.000000
vt 0.000000 0.000000
vt 0.000000 0.000000
vt 0.000000 0.000000
vt 0.000000 0.000000
vt 0.000000 0.000000
vt 0.000000 0.000000
vt 0.000000 0.000000
vt 0.000000 0.000000
vt 0.000000 0.000000
vt 0.000000 0.000000
vt 0.000000 0.000000
vt 0.000000 0.000000
vt 0.000000 0.000000
vt 0.000000 0.000000
vt 0.000000 0.000000
vt 0.000000 0.000000
vt 0.000000 0.000000
vt 0.000000 0.000000
vt 0.000000 0.000000
vt 0.000000 0.000000
vt 0.000000 0.000000
vt 0.000000 0.000000
vt 0.000000 0.000000
vt 0.000000 0.000000
vt 0.000000 0.000000
vt 0.000000 0.000000
vt 0.000000 0.000000
vt 0.000000 0.000000
vt 0.000000 0.000000
vt 0.000000 0.000000
vt 0.000000 0.000000
vt 0.000000 0.000000
vt 0.000000 0.000000
vt 0.000000 0.000000
vt 0.000000 0.000000
vt 0.000000 0.000000
vt 0.000000 0.000000
vt 0.000000 0.000000
vt 0.000000 0.000000
vt 0.000000 0.000000
vt 0.000000 0.000000
vt 0.000000 0.000000
vt 0.000000 0.000000
vt 0.000000 0.000000
vt 0.000000 0.000000
vt 0.000000 0.000000
vt 0.000000 0.000000
vt 0.000000 0.000000
vt 0.000000 0.000000
vt 0.000000 0.000000
vt 0.000000 0.000000
vt 0.000000 0.000000
vt 0.000000 0.000000
vt 0.000000 0.000000
vt 0.000000 0.000000
vt 0.000000 0.000000
vt 0.000000 0.000000
vt 0.000000 0.000000
vt 0.000000 0.000000
vt 0.000000 0.000000
vt 0.000000 0.000000
vt 0.000000 0.000000
vt 0.000000 0.000000
vt 0.000000 0.000000
vt 0.000000 0.000000
vt 0.000000 0.000000
vt 0.000000 0.000000
vt 0.000000 0.000000
vt 0.000000 0.000000
vt 0.000000 0.000000
vt 0.000000 0.000000
vt 0.000000 0.000000
vt 0.000000 0.000000
vt 0.000000 0.000000
vt 0.000000 0.000000
vt 0.000000 0.000000
vt 0.000000 0.000000
vt 0.000000 0.000000
vt 0.000000 0.000000
vt 0.000000 0.000000
vt 0.000000 0.000000
vt 0.000000 0.000000
vt 0.000000 0.000000
vt 0.000000 0.000000
vt 0.000000 0.000000
vt 0.000000 0.000000
vt 0.000000 0.000000
vt 0.000000 0.000000
vt 0.000000 0.000000
vt 0.000000 0.000000
vt 0.000000 0.000000
vt 0.000000 0.000000
vt 0.000000 0.000000
vt 0.000000 0.000000
vt 0.000000 0.000000
vt 0.000000 0.000000
vt 0.000000 0.000000
vt 0.000000 0.000000
vt 0.000000 0.000000
vt 0.000000 0.000000
vt 0.000000 0.000000
vt 0.000000 0.000000
vt 0.000000 0.000000
vt 0.000000 0.000000
vt 0.000000 0.000000
vt 0.000000 0.000000
vt 0.000000 0.000000
vt 0.000000 0.000000
vt 0.000000 0.000000
vt 0.000000 0.000000
vt 0.000000 0.000000
vt 0.000000 0.000000
vt 0.000000 0.000000
vt 0.000000 0.000000
vt 0.000000 0.000000
vt 0.000000 0.000000
vt 0.000000 0.000000
vt 0.000000 0.000000
vt 0.000000 0.000000
vt 0.000000 0.000000
vt 0.000000 0.000000
vt 0.000000 0.000000
vt 0.000000 0.000000
vt 0.000000 0.000000
vt 0.000000 0.000000
vt 0.000000 0.000000
vt 0.000000 0.000000
vt 0.000000 0.000000
vt 0.000000 0.000000
vt 0.000000 0.000000
vt 0.000000 0.000000
vt 0.000000 0.000000
vt 0.000000 0.000000
vt 0.000000 0.000000
vt 0.000000 0.000000
vt 0.000000 0.000000
vt 0.000000 0.000000
vt 0.000000 0.000000
vt 0.000000 0.000000
vt 0.000000 0.000000
vt 0.000000 0.000000
vt 0.000000 0.000000
vt 0.000000 0.000000
vt 0.000000 0.000000
vt 0.000000 0.000000
vt 0.000000 0.000000
vt 0.000000 0.000000
vt 0.000000 0.000000
vt 0.000000 0.000000
vt 0.000000 0.000000
vt 0.000000 0.000000
vt 0.000000 0.000000
vt 0.000000 0.000000
vt 0.000000 0.000000
vt 0.000000 0.000000
vt 0.000000 0.000000
vt 0.000000 0.000000
vt 0.000000 0.000000
vt 0.000000 0.000000
vt 0.000000 0.000000
vt 0.000000 0.000000
vt 0.000000 0.000000
vt 0.000000 0.000000
vt 0.000000 0.000000
vt 0.000000 0.000000
vt 0.000000 0.000000
vt 0.000000 0.000000
vt 0.000000 0.000000
vt 0.000000 0.000000
vt 0.000000 0.000000
vt 0.000000 0.000000
vt 0.000000 0.000000
vt 0.000000 0.000000
vt 0.000000 0.000000
vt 0.000000 0.000000
vt 0.000000 0.000000
vt 0.000000 0.000000
vt 0.000000 0.000000
vt 0.000000 0.000000
vt 0.000000 0.000000
vt 0.000000 0.000000
vt 0.000000 0.000000
vt 0.000000 0.000000
vt 0.000000 0.000000
vt 0.000000 0.000000
vt 0.000000 0.000000
vt 0.000000 0.000000
vt 0.000000 0.000000
vt 0.000000 0.000000
vt 0.000000 0.000000
vt 0.000000 0.000000
vt 0.000000 0.000000
vt 0.000000 0.000000
vt 0.000000 0.000000
vt 0.000000 0.000000
vt 0.000000 0.000000
vt 0.000000 0.000000
vt 0.000000 0.000000
vt 0.000000 0.000000
vt 0.000000 0.000000
vt 0.000000 0.000000
vt 0.000000 0.000000
vt 0.000000 0.000000
vt 0.000000 0.000000
vt 0.000000 0.000000
vt 0.000000 0.000000
vt 0.000000 0.000000
vt 0.000000 0.000000
vt 0.000000 0.000000
vt 0.000000 0.000000
vt 0.000000 0.000000
vt 0.000000 0.000000
vt 0.000000 0.000000
vt 0.000000 0.000000
vt 0.000000 0.000000
vt 0.000000 0.000000
vt 0.000000 0.000000
vt 0.000000 0.000000
vt 0.000000 0.000000
vt 0.000000 0.000000
vt 0.000000 0.000000
vt 0.000000 0.000000
vt 0.000000 0.000000
vt 0.000000 0.000000
vt 0.000000 0.000000
vt 0.000000 0.000000
vt 0.000000 0.000000
vt 0.000000 0.000000
vt 0.000000 0.000000
vt 0.000000 0.000000
vt 0.000000 0.000000
vt 0.000000 0.000000
vt 0.000000 0.000000
vt 0.000000 0.000000
vt 0.000000 0.000000
vt 0.000000 0.000000
vt 0.000000 0.000000
vt 0.000000 0.000000
vt 0.000000 0.000000
vt 0.000000 0.000000
vt 0.000000 0.000000
vt 0.000000 0.000000
vt 0.000000 0.000000
vt 0.000000 0.000000
vt 0.000000 0.000000
vt 0.000000 0.000000
vt 0.000000 0.000000
vt 0.000000 0.000000
vt 0.000000 0.000000
vt 0.000000 0.000000
vt 0.000000 0.000000
vt 0.000000 0.000000
vt 0.000000 0.000000
vt 0.000000 0.000000
vt 0.000000 0.000000
vt 0.000000 0.000000
vt 0.000000 0.000000
vt 0.000000 0.000000
vt 0.000000 0.000000
vt 0.000000 0.000000
vt 0.000000 0.000000
vt 0.000000 0.000000
vt 0.000000 0.000000
vt 0.000000 0.000000
vt 0.000000 0.000000
vt 0.000000 0.000000
vt 0.000000 0.000000
vt 0.000000 0.000000
vt 0.000000 0.000000
vt 0.000000 0.000000
vt 0.000000 0.000000
vt 0.000000 0.000000
vt 0.000000 0.000000
vt 0.000000 0.000000
vt 0.000000 0.000000
vt 0.000000 0.000000
vt 0.000000 0.000000
vt 0.000000 0.000000
vt 0.000000 0.000000
vt 0.000000 0.000000
vt 0.000000 0.000000
vt 0.000000 0.000000
vt 0.000000 0.000000
vt 0.000000 0.000000
vt 0.000000 0.000000
vt 0.000000 0.000000
vt 0.000000 0.000000
vt 0.000000 0.000000
vt 0.000000 0.000000
vt 0.000000 0.000000
vt 0.000000 0.000000
vt 0.000000 0.000000
vt 0.000000 0.000000
vt 0.000000 0.000000
vt 0.000000 0.000000
vt 0.000000 0.000000
vt 0.000000 0.000000
vt 0.000000 0.000000
vt 0.000000 0.000000
vt 0.000000 0.000000
vt 0.000000 0.000000
vt 0.000000 0.000000
vt 0.000000 0.000000
vt 0.000000 0.000000
vt 0.000000 0.000000
vt 0.000000 0.000000
vt 0.000000 0.000000
vt 0.000000 0.000000
vt 0.000000 0.000000
vt 0.000000 0.000000
vt 0.000000 0.000000
vt 0.000000 0.000000
vt 0.000000 0.000000
vt 0.000000 0.000000
vt 0.000000 0.000000
vt 0.000000 0.000000
vt 0.000000 0.000000
vt 0.000000 0.000000
vt 0.000000 0.000000
vt 0.000000 0.000000
vt 0.000000 0.000000
vt 0.000000 0.000000
vt 0.000000 0.000000
vt 0.000000 0.000000
vt 0.000000 0.000000
vt 0.000000 0.000000
vt 0.000000 0.000000
vt 0.000000 0.000000
vt 0.000000 0.000000
vt 0.000000 0.000000
vt 0.000000 0.000000
vt 0.000000 0.000000
vt 0.000000 0.000000
vt 0.000000 0.000000
vt 0.000000 0.000000
vt 0.000000 0.000000
vt 0.000000 0.000000
vt 0.000000 0.000000
vt 0.000000 0.000000
vt 0.000000 0.000000
vt 0.000000 0.000000
vt 0.000000 0.000000
vt 0.000000 0.000000
vt 0.000000 0.000000
vt 0.000000 0.000000
vt 0.000000 0.000000
vt 0.000000 0.000000
vt 0.000000 0.000000
vt 0.000000 0.000000
vt 0.000000 0.000000
vt 0.000000 0.000000
vn -0.662892 -0.662876 -0.348093
vn -0.693127 -0.693110 0.197923
vn -0.379203 -0.902339 0.204915
vn -0.662892 -0.662876 -0.348093
vn -0.379203 -0.902339 0.204915
vn -0.381957 -0.860579 -0.336917
vn -0.707123 -0.706966 -0.013246
vn -0.707123 -0.706966 -0.013246
vn -0.702278 -0.702122 -0.117601
vn -0.008661 0.931300 -0.364149
vn -0.055473 0.992784 -0.106311
vn -0.381953 0.860582 -0.336914
vn -0.008661 0.931300 -0.364149
vn -0.381953 0.860582 -0.336914
vn -0.445266 0.669766 -0.594265
vn -0.707123 -0.706966 -0.013246
vn -0.707123 -0.706966 -0.013246
vn -0.707146 -0.707030 -0.007268
vn -0.707123 -0.706966 -0.013246
vn -0.707146 -0.707030 -0.007268
vn -0.707146 -0.707030 -0.007268
vn -0.707042 0.707047 -0.013242
vn -0.707042 0.707047 -0.013242
vn -0.707087 0.707089 -0.007271
vn -0.707042 0.707047 -0.013242
vn -0.707087 0.707089 -0.007271
vn -0.707087 0.707089 -0.007271
vn -0.445275 -0.669758 -0.594268
vn -0.564407 -0.564385 -0.602424
vn -0.662892 -0.662876 -0.348093
vn -0.445275 -0.669758 -0.594268
vn -0.662892 -0.662876 -0.348093
vn -0.381957 -0.860579 -0.336917
vn -0.701782 -0.701714 0.122879
vn -0.701782 -0.701714 0.122879
vn -0.707146 -0.707030 -0.007268
vn -0.701782 -0.701714 0.122879
vn -0.707146 -0.707030 -0.007268
vn -0.707146 -0.707030 -0.007268
vn -0.391296 -0.391273 0.832942
vn -0.553449 -0.553420 0.622431
vn -0.553449 -0.553420 0.622431
vn -0.379203 -0.902339 0.204915
vn -0.693127 -0.693110 0.197923
vn -0.654985 -0.654961 0.376857
vn -0.379203 -0.902339 0.204915
vn -0.654985 -0.654961 0.376857
vn -0.485478 -0.780548 0.393771
vn -0.486420 0.488370 0.724494
vn -0.488643 0.351962 0.798342
vn -0.391292 0.391293 0.832935
vn 0.069162 0.927252 -0.367994
vn 0.069162 0.927252 -0.367994
vn 0.038805 0.972754 -0.228567
vn 0.069162 0.927252 -0.367994
vn 0.038805 0.972754 -0.228567
vn 0.038805 0.972754 -0.228567
vn -0.018908 -0.983890 0.177774
vn -0.018908 -0.983890 0.177774
vn -0.025522 -0.970719 0.238858
vn -0.702198 0.702204 -0.117587
vn -0.707042 0.707047 -0.013242
vn -0.707042 0.707047 -0.013242
vn -0.703335 -0.703279 0.103530
vn -0.701782 -0.701714 0.122879
vn -0.701782 -0.701714 0.122879
vn -0.703335 -0.703279 0.103530
vn -0.701782 -0.701714 0.122879
vn -0.703335 -0.703279 0.103530
vn -0.706705 -0.706659 0.034659
vn -0.703335 -0.703279 0.103530
vn -0.703335 -0.703279 0.103530
vn -0.706705 -0.706659 0.034659
vn -0.703335 -0.703279 0.103530
vn -0.706705 -0.706659 0.034659
vn -0.690968 -0.690927 0.212563
vn -0.706705 -0.706659 0.034659
vn -0.706705 -0.706659 0.034659
vn -0.690968 -0.690927 0.212563
vn -0.706705 -0.706659 0.034659
vn -0.690968 -0.690927 0.212563
vn -0.445275 -0.669758 -0.594268
vn -0.584796 -0.584766 -0.562194
vn -0.584796 -0.584766 -0.562194
vn -0.445275 -0.669758 -0.594268
vn -0.584796 -0.584766 -0.562194
vn -0.564407 -0.564385 -0.602424
vn -0.381957 -0.860579 -0.336917
vn -0.055472 -0.992784 -0.106312
vn -0.008661 -0.931299 -0.364152
vn -0.381957 -0.860579 -0.336917
vn -0.008661 -0.931299 -0.364152
vn -0.445275 -0.669758 -0.594268
vn 0.060719 -0.934847 0.349821
vn -0.009137 -0.991631 0.128783
vn -0.379203 -0.902339 0.204915
vn 0.060719 -0.934847 0.349821
vn -0.379203 -0.902339 0.204915
vn -0.485478 -0.780548 0.393771
vn -0.654985 -0.654961 0.376857
vn -0.553449 -0.553420 0.622431
vn -0.553449 -0.553420 0.622431
vn -0.654985 -0.654961 0.376857
vn -0.553449 -0.553420 0.622431
vn -0.485478 -0.780548 0.393771
vn -0.687318 0.695397 0.209803
vn -0.515374 0.812178 0.273415
vn -0.680326 0.698121 -0.223123
vn 0.038805 0.972754 -0.228567
vn 0.038805 0.972754 -0.228567
vn -0.001161 0.999890 0.014798
vn 0.038805 0.972754 -0.228567
vn -0.001161 0.999890 0.014798
vn -0.001161 0.999890 0.014798
vn -0.701748 0.701749 0.122879
vn -0.707087 0.707089 -0.007271
vn -0.707087 0.707089 -0.007271
vn -0.701748 0.701749 0.122879
vn -0.707087 0.707089 -0.007271
vn -0.701748 0.701749 0.122879
vn -0.703307 0.703308 0.103530
vn -0.701748 0.701749 0.122879
vn -0.701748 0.701749 0.122879
vn -0.703307 0.703308 0.103530
vn -0.701748 0.701749 0.122879
vn -0.703307 0.703308 0.103530
vn -0.706682 0.706682 0.034659
vn -0.703307 0.703308 0.103530
vn -0.703307 0.703308 0.103530
vn -0.706682 0.706682 0.034659
vn -0.703307 0.703308 0.103530
vn -0.706682 0.706682 0.034659
vn -0.690947 0.690948 0.212563
vn -0.706682 0.706682 0.034659
vn -0.706682 0.706682 0.034659
vn -0.690947 0.690948 0.212563
vn -0.706682 0.706682 0.034659
vn -0.690947 0.690948 0.212563
vn -0.564396 0.564396 -0.602424
vn -0.584781 0.584782 -0.562194
vn -0.584781 0.584782 -0.562194
vn -0.564396 0.564396 -0.602424
vn -0.584781 0.584782 -0.562194
vn -0.445266 0.669766 -0.594265
vn -0.381953 0.860582 -0.336914
vn -0.680326 0.698121 -0.223123
vn -0.564396 0.564396 -0.602424
vn -0.381953 0.860582 -0.336914
vn -0.564396 0.564396 -0.602424
vn -0.445266 0.669766 -0.594265
vn -0.002069 0.998841 -0.048086
vn 0.209365 0.976555 0.050066
vn -0.089215 0.974951 -0.203745
vn -0.002069 0.998841 -0.048086
vn -0.089215 0.974951 -0.203745
vn -0.129921 0.967875 -0.215262
vn -0.002070 -0.998841 -0.048086
vn -0.129922 -0.967875 -0.215262
vn -0.120568 -0.973274 -0.195451
vn -0.002070 -0.998841 -0.048086
vn -0.120568 -0.973274 -0.195451
vn 0.187803 -0.980302 0.061141
vn -0.103221 -0.960648 -0.257876
vn -0.129922 -0.967875 -0.215262
vn -0.002070 -0.998841 -0.048086
vn -0.103221 -0.960648 -0.257876
vn -0.002070 -0.998841 -0.048086
vn -0.080842 -0.987125 -0.138020
vn -0.080839 0.987125 -0.138020
vn -0.002069 0.998841 -0.048086
vn -0.129921 0.967875 -0.215262
vn -0.080839 0.987125 -0.138020
vn -0.129921 0.967875 -0.215262
vn -0.103218 0.960649 -0.257877
vn -0.036205 0.990988 0.128966
vn -0.170505 0.922348 0.346703
vn -0.056772 0.932045 0.357868
vn -0.036205 0.990988 0.128966
vn -0.056772 0.932045 0.357868
vn -0.036935 0.993976 0.103187
vn -0.170507 -0.922347 0.346703
vn -0.036206 -0.990988 0.128966
vn -0.036935 -0.993976 0.103187
vn -0.170507 -0.922347 0.346703
vn -0.036935 -0.993976 0.103187
vn -0.072383 -0.929871 0.360696
vn -0.140743 0.916794 0.373738
vn -0.170505 0.922348 0.346703
vn -0.036205 0.990988 0.128966
vn -0.140743 0.916794 0.373738
vn -0.036205 0.990988 0.128966
vn -0.101086 0.977962 0.182681
vn -0.536779 0.401660 0.741982
vn -0.694108 0.258347 0.671916
vn -0.694108 0.258347 0.671916
vn -0.536779 0.401660 0.741982
vn -0.694108 0.258347 0.671916
vn -0.488643 0.351962 0.798342
vn -0.036935 0.993976 0.103187
vn -0.056772 0.932045 0.357868
vn 0.027644 0.992737 0.117089
vn 0.915439 0.129727 0.380975
vn 0.915439 0.129727 0.380975
vn 0.965678 0.065182 0.251432
vn 0.915439 0.129727 0.380975
vn 0.965678 0.065182 0.251432
vn 0.965678 0.065182 0.251432
vn -0.101089 -0.977961 0.182681
vn -0.036206 -0.990988 0.128966
vn -0.170507 -0.922347 0.346703
vn -0.101089 -0.977961 0.182681
vn -0.170507 -0.922347 0.346703
vn -0.140746 -0.916793 0.373739
vn 0.965678 0.065182 0.251432
vn 0.965678 0.065182 0.251432
vn 0.981468 0.007324 0.191483
vn 0.965678 0.065182 0.251432
vn 0.981468 0.007324 0.191483
vn 0.981468 0.007324 0.191483
vn 0.981468 0.007324 0.191483
vn 0.981468 0.007324 0.191483
vn 0.963890 0.015499 0.265849
vn -0.077925 -0.964733 0.251432
vn -0.077925 -0.964733 0.251432
vn -0.018908 -0.983890 0.177774
vn -0.077925 -0.964733 0.251432
vn -0.018908 -0.983890 0.177774
vn -0.018908 -0.983890 0.177774
vn -0.486420 0.488370 0.724494
vn -0.527904 0.533708 0.660662
vn -0.536779 0.401660 0.741982
vn 0.123360 0.990919 0.053505
vn -0.010056 0.989597 -0.143517
vn -0.043583 0.986643 -0.156957
vn 0.123360 0.990919 0.053505
vn -0.043583 0.986643 -0.156957
vn 0.054071 0.993791 0.097238
vn -0.994062 0.023510 0.106242
vn -0.994062 0.023510 0.106242
vn -0.973182 -0.025959 -0.228567
vn -0.994062 0.023510 0.106242
vn -0.973182 -0.025959 -0.228567
vn -0.973182 -0.025959 -0.228567
vn -0.994062 0.023510 0.106242
vn -0.994062 0.023510 0.106242
vn -0.955368 0.040583 0.292617
vn -0.928085 -0.056914 -0.367994
vn -0.928085 -0.056914 -0.367994
vn -0.973182 -0.025959 -0.228567
vn -0.928085 -0.056914 -0.367994
vn -0.973182 -0.025959 -0.228567
vn -0.973182 -0.025959 -0.228567
vn -0.141801 -0.913647 0.380975
vn -0.141801 -0.913647 0.380975
vn -0.077925 -0.964733 0.251432
vn -0.141801 -0.913647 0.380975
vn -0.077925 -0.964733 0.251432
vn -0.077925 -0.964733 0.251432
vn -0.687318 0.695397 0.209803
vn -0.365240 0.760000 0.537587
vn -0.365240 0.760000 0.537587
vn -0.687318 0.695397 0.209803
vn -0.365240 0.760000 0.537587
vn -0.515374 0.812178 0.273415
vn -0.001161 0.999890 0.014798
vn -0.001161 0.999890 0.014798
vn -0.009888 0.993493 0.113463
vn -0.079789 0.924232 0.373402
vn -0.011550 0.983090 0.182757
vn -0.009138 0.991631 0.128782
vn -0.079789 0.924232 0.373402
vn -0.009138 0.991631 0.128782
vn 0.060719 0.934847 0.349820
vn -0.015674 -0.993674 0.111203
vn -0.118888 -0.939354 0.321683
vn -0.007503 -0.992905 0.118674
vn -0.187803 -0.980302 0.061141
vn -0.490693 -0.829015 0.268242
vn -0.338214 -0.846787 0.410565
vn -0.009283 -0.992209 0.124238
vn 0.106279 -0.988226 -0.110062
vn 0.002785 -0.989604 -0.143792
vn -0.009283 -0.992209 0.124238
vn 0.002785 -0.989604 -0.143792
vn 0.005459 -0.992552 0.121696
vn -0.015674 -0.993674 0.111203
vn 0.113314 -0.992714 -0.040984
vn 0.106279 -0.988226 -0.110062
vn -0.015674 -0.993674 0.111203
vn 0.106279 -0.988226 -0.110062
vn -0.009283 -0.992209 0.124238
vn 0.036935 -0.993976 0.103187
vn 0.072383 -0.929871 0.360696
vn 0.005459 -0.992552 0.121696
vn -0.220508 0.975194 0.019321
vn -0.055473 0.992784 -0.106311
vn -0.209365 0.976555 0.050066
vn -0.209365 0.976555 0.050066
vn 0.089215 0.974951 -0.203745
vn 0.021651 0.971929 -0.234276
vn -0.009138 0.991631 0.128782
vn -0.220508 0.975194 0.019321
vn 0.036935 0.993976 0.103187
vn -0.007503 -0.992905 0.118674
vn 0.113314 -0.992714 -0.040984
vn -0.015674 -0.993674 0.111203
vn -0.009283 -0.992209 0.124238
vn -0.118888 -0.939354 0.321683
vn -0.015674 -0.993674 0.111203
vn 0.005459 -0.992552 0.121696
vn 0.072383 -0.929871 0.360696
vn -0.118888 -0.939354 0.321683
vn 0.005459 -0.992552 0.121696
vn -0.118888 -0.939354 0.321683
vn -0.009283 -0.992209 0.124238
vn 0.005459 -0.992552 0.121696
vn 0.002785 -0.989604 -0.143792
vn -0.220508 -0.975194 0.019321
vn 0.005459 -0.992552 0.121696
vn -0.220508 -0.975194 0.019321
vn 0.036935 -0.993976 0.103187
vn 0.036935 -0.993976 0.103187
vn -0.220508 -0.975194 0.019321
vn -0.009137 -0.991631 0.128783
vn -0.009137 -0.991631 0.128783
vn -0.220508 -0.975194 0.019321
vn -0.055472 -0.992784 -0.106312
vn -0.220508 -0.975194 0.019321
vn -0.490693 -0.829015 0.268242
vn -0.187803 -0.980302 0.061141
vn 0.084628 -0.972171 -0.218453
vn 0.120568 -0.973274 -0.195451
vn -0.187803 -0.980302 0.061141
vn -0.187803 -0.980302 0.061141
vn -0.055472 -0.992784 -0.106312
vn -0.220508 -0.975194 0.019321
vn -0.198791 0.978894 0.047423
vn -0.205511 0.928011 0.310741
vn -0.123360 0.990919 0.053505
vn -0.378628 0.845786 0.375883
vn -0.508650 0.824124 0.249189
vn -0.209365 0.976555 0.050066
vn -0.027644 0.992737 0.117089
vn -0.037472 0.988443 -0.146889
vn 0.043583 0.986643 -0.156957
vn -0.027644 0.992737 0.117089
vn 0.043583 0.986643 -0.156957
vn -0.054071 0.993791 0.097238
vn -0.054071 0.993791 0.097238
vn 0.043583 0.986643 -0.156957
vn 0.010055 0.989597 -0.143517
vn -0.054071 0.993791 0.097238
vn 0.010055 0.989597 -0.143517
vn -0.123360 0.990919 0.053505
vn -0.027644 0.992737 0.117089
vn 0.056772 0.932045 0.357868
vn 0.036935 0.993976 0.103187
vn -0.209365 0.976555 0.050066
vn -0.508650 0.824124 0.249189
vn -0.220508 0.975194 0.019321
vn -0.055473 0.992784 -0.106311
vn -0.220508 0.975194 0.019321
vn -0.009138 0.991631 0.128782
vn 0.036935 0.993976 0.103187
vn -0.220508 0.975194 0.019321
vn -0.037472 0.988443 -0.146889
vn 0.036935 0.993976 0.103187
vn -0.037472 0.988443 -0.146889
vn -0.027644 0.992737 0.117089
vn -0.123360 0.990919 0.053505
vn 0.010055 0.989597 -0.143517
vn -0.198791 0.978894 0.047423
vn -0.123360 0.990919 0.053505
vn -0.205511 0.928011 0.310741
vn -0.054071 0.993791 0.097238
vn -0.054071 0.993791 0.097238
vn -0.205511 0.928011 0.310741
vn 0.056772 0.932045 0.357868
vn -0.054071 0.993791 0.097238
vn 0.056772 0.932045 0.357868
vn -0.027644 0.992737 0.117089
vn -0.009137 -0.991631 0.128783
vn -0.055472 -0.992784 -0.106312
vn -0.381957 -0.860579 -0.336917
vn -0.009137 -0.991631 0.128783
vn -0.381957 -0.860579 -0.336917
vn -0.379203 -0.902339 0.204915
vn -0.011550 0.983090 0.182757
vn -0.381953 0.860582 -0.336914
vn -0.055473 0.992784 -0.106311
vn -0.011550 0.983090 0.182757
vn -0.055473 0.992784 -0.106311
vn -0.009138 0.991631 0.128782
vn 0.072383 -0.929871 0.360696
vn 0.036935 -0.993976 0.103187
vn -0.009137 -0.991631 0.128783
vn 0.072383 -0.929871 0.360696
vn -0.009137 -0.991631 0.128783
vn 0.060719 -0.934847 0.349821
vn 0.036935 0.993976 0.103187
vn 0.056772 0.932045 0.357868
vn 0.060719 0.934847 0.349820
vn 0.036935 0.993976 0.103187
vn 0.060719 0.934847 0.349820
vn -0.009138 0.991631 0.128782
vn -0.187803 -0.980302 0.061141
vn 0.120568 -0.973274 -0.195451
vn -0.008661 -0.931299 -0.364152
vn -0.187803 -0.980302 0.061141
vn -0.008661 -0.931299 -0.364152
vn -0.055472 -0.992784 -0.106312
vn -0.008661 0.931300 -0.364149
vn 0.089215 0.974951 -0.203745
vn -0.209365 0.976555 0.050066
vn -0.008661 0.931300 -0.364149
vn -0.209365 0.976555 0.050066
vn -0.055473 0.992784 -0.106311
vn 0.693114 -0.693122 0.197924
vn 0.662880 -0.662888 -0.348096
vn 0.662880 -0.662888 -0.348096
vn 0.693114 -0.693122 0.197924
vn 0.662880 -0.662888 -0.348096
vn 0.693114 -0.693122 0.197924
vn 0.702180 -0.702223 -0.117583
vn 0.707022 -0.707067 -0.013243
vn 0.707022 -0.707067 -0.013243
vn 0.707071 -0.707105 -0.007274
vn 0.707071 -0.707105 -0.007274
vn 0.707022 -0.707067 -0.013243
vn 0.707071 -0.707105 -0.007274
vn 0.707022 -0.707067 -0.013243
vn 0.707022 -0.707067 -0.013243
vn 0.707083 0.707093 -0.007269
vn 0.707083 0.707093 -0.007269
vn 0.707039 0.707050 -0.013241
vn 0.707083 0.707093 -0.007269
vn 0.707039 0.707050 -0.013241
vn 0.707039 0.707050 -0.013241
vn 0.662880 -0.662888 -0.348096
vn 0.662880 -0.662888 -0.348096
vn 0.564391 -0.564399 -0.602426
vn 0.662880 -0.662888 -0.348096
vn 0.564391 -0.564399 -0.602426
vn 0.564391 -0.564399 -0.602426
vn 0.707071 -0.707105 -0.007274
vn 0.707071 -0.707105 -0.007274
vn 0.701738 -0.701758 0.122879
vn 0.707071 -0.707105 -0.007274
vn 0.701738 -0.701758 0.122879
vn 0.701738 -0.701758 0.122879
vn 0.553434 -0.553444 0.622423
vn 0.553434 -0.553444 0.622423
vn 0.391291 -0.391299 0.832932
vn 0.654968 -0.654977 0.376859
vn 0.654968 -0.654977 0.376859
vn 0.693114 -0.693122 0.197924
vn 0.654968 -0.654977 0.376859
vn 0.693114 -0.693122 0.197924
vn 0.693114 -0.693122 0.197924
vn 0.391292 0.391296 0.832934
vn 0.488642 0.351964 0.798342
vn 0.486418 0.488371 0.724494
vn -0.038805 0.972754 -0.228567
vn -0.038805 0.972754 -0.228567
vn -0.069162 0.927252 -0.367994
vn -0.038805 0.972754 -0.228567
vn -0.069162 0.927252 -0.367994
vn -0.069162 0.927252 -0.367994
vn 0.025522 -0.970719 0.238858
vn 0.018908 -0.983890 0.177774
vn 0.018908 -0.983890 0.177774
vn 0.707039 0.707050 -0.013241
vn 0.707039 0.707050 -0.013241
vn 0.702197 0.702206 -0.117586
vn 0.703298 -0.703316 0.103530
vn 0.701738 -0.701758 0.122879
vn 0.701738 -0.701758 0.122879
vn 0.703298 -0.703316 0.103530
vn 0.701738 -0.701758 0.122879
vn 0.703298 -0.703316 0.103530
vn 0.706674 -0.706689 0.034660
vn 0.703298 -0.703316 0.103530
vn 0.703298 -0.703316 0.103530
vn 0.706674 -0.706689 0.034660
vn 0.703298 -0.703316 0.103530
vn 0.706674 -0.706689 0.034660
vn 0.690940 -0.690955 0.212563
vn 0.706674 -0.706689 0.034660
vn 0.706674 -0.706689 0.034660
vn 0.690940 -0.690955 0.212563
vn 0.706674 -0.706689 0.034660
vn 0.690940 -0.690955 0.212563
vn 0.564391 -0.564399 -0.602426
vn 0.584776 -0.584786 -0.562194
vn 0.584776 -0.584786 -0.562194
vn 0.564391 -0.564399 -0.602426
vn 0.584776 -0.584786 -0.562194
vn 0.564391 -0.564399 -0.602426
vn 0.654968 -0.654977 0.376859
vn 0.654968 -0.654977 0.376859
vn 0.553434 -0.553444 0.622423
vn 0.654968 -0.654977 0.376859
vn 0.553434 -0.553444 0.622423
vn 0.553434 -0.553444 0.622423
vn 0.680325 0.698122 -0.223123
vn 0.515373 0.812180 0.273415
vn 0.687317 0.695398 0.209803
vn -0.038805 0.972754 -0.228567
vn -0.038805 0.972754 -0.228567
vn 0.001161 0.999890 0.014798
vn -0.038805 0.972754 -0.228567
vn 0.001161 0.999890 0.014798
vn 0.001161 0.999890 0.014798
vn 0.701745 0.701751 0.122879
vn 0.707083 0.707093 -0.007269
vn 0.707083 0.707093 -0.007269
vn 0.701745 0.701751 0.122879
vn 0.707083 0.707093 -0.007269
vn 0.701745 0.701751 0.122879
vn 0.703304 0.703310 0.103530
vn 0.701745 0.701751 0.122879
vn 0.701745 0.701751 0.122879
vn 0.703304 0.703310 0.103530
vn 0.701745 0.701751 0.122879
vn 0.703304 0.703310 0.103530
vn 0.706679 0.706685 0.034659
vn 0.703304 0.703310 0.103530
vn 0.703304 0.703310 0.103530
vn 0.706679 0.706685 0.034659
vn 0.703304 0.703310 0.103530
vn 0.706679 0.706685 0.034659
vn 0.690944 0.690951 0.212563
vn 0.706679 0.706685 0.034659
vn 0.706679 0.706685 0.034659
vn 0.690944 0.690951 0.212563
vn 0.706679 0.706685 0.034659
vn 0.690944 0.690951 0.212563
vn 0.564394 0.564397 -0.602424
vn 0.584779 0.584783 -0.562194
vn 0.584779 0.584783 -0.562194
vn 0.564394 0.564397 -0.602424
vn 0.584779 0.584783 -0.562194
vn 0.564394 0.564397 -0.602424
vn 0.564394 0.564397 -0.602424
vn 0.564394 0.564397 -0.602424
vn 0.680325 0.698122 -0.223123
vn 0.564394 0.564397 -0.602424
vn 0.680325 0.698122 -0.223123
vn 0.662883 0.662885 -0.348094
vn -0.036205 0.990988 0.128966
vn -0.002069 0.998841 -0.048086
vn -0.080839 0.987125 -0.138020
vn -0.036205 0.990988 0.128966
vn -0.080839 0.987125 -0.138020
vn -0.101086 0.977962 0.182681
vn -0.101089 -0.977961 0.182681
vn -0.080842 -0.987125 -0.138020
vn -0.002070 -0.998841 -0.048086
vn -0.101089 -0.977961 0.182681
vn -0.002070 -0.998841 -0.048086
vn -0.036206 -0.990988 0.128966
vn 0.027644 0.992737 0.117089
vn -0.056772 0.932045 0.357868
vn 0.205511 0.928011 0.310741
vn 0.027644 0.992737 0.117089
vn 0.205511 0.928011 0.310741
vn 0.054071 0.993791 0.097238
vn 0.054071 0.993791 0.097238
vn 0.205511 0.928011 0.310741
vn 0.123360 0.990919 0.053505
vn 0.198791 0.978894 0.047423
vn -0.010056 0.989597 -0.143517
vn 0.123360 0.990919 0.053505
vn 0.027644 0.992737 0.117089
vn 0.037472 0.988443 -0.146889
vn 0.220508 0.975194 0.019321
vn 0.027644 0.992737 0.117089
vn 0.220508 0.975194 0.019321
vn -0.036935 0.993976 0.103187
vn -0.036205 0.990988 0.128966
vn 0.220508 0.975194 0.019321
vn -0.002069 0.998841 -0.048086
vn 0.488642 0.351964 0.798342
vn 0.694108 0.258347 0.671916
vn 0.694108 0.258347 0.671916
vn 0.488642 0.351964 0.798342
vn 0.694108 0.258347 0.671916
vn 0.536777 0.401661 0.741983
vn 0.054071 0.993791 0.097238
vn -0.043583 0.986643 -0.156957
vn 0.037472 0.988443 -0.146889
vn 0.054071 0.993791 0.097238
vn 0.037472 0.988443 -0.146889
vn 0.027644 0.992737 0.117089
vn -0.965678 0.065182 0.251432
vn -0.965678 0.065182 0.251432
vn -0.915439 0.129727 0.380975
vn -0.965678 0.065182 0.251432
vn -0.915439 0.129727 0.380975
vn -0.915439 0.129727 0.380975
vn 0.220508 0.975194 0.019321
vn 0.508650 0.824124 0.249189
vn 0.209365 0.976555 0.050066
vn -0.965678 0.065182 0.251432
vn -0.965678 0.065182 0.251432
vn -0.981469 0.007324 0.191483
vn -0.965678 0.065182 0.251432
vn -0.981469 0.007324 0.191483
vn -0.981469 0.007324 0.191483
vn -0.963890 0.015499 0.265848
vn -0.981469 0.007324 0.191483
vn -0.981469 0.007324 0.191483
vn 0.077925 -0.964733 0.251432
vn 0.077925 -0.964733 0.251432
vn 0.018908 -0.983890 0.177774
vn 0.077925 -0.964733 0.251432
vn 0.018908 -0.983890 0.177774
vn 0.018908 -0.983890 0.177774
vn 0.536777 0.401661 0.741983
vn 0.527901 0.533709 0.660663
vn 0.486418 0.488371 0.724494
vn 0.209365 0.976555 0.050066
vn 0.508650 0.824124 0.249189
vn 0.378628 0.845786 0.375883
vn 0.994062 0.023510 0.106242
vn 0.994062 0.023510 0.106242
vn 0.973182 -0.025959 -0.228567
vn 0.994062 0.023510 0.106242
vn 0.973182 -0.025959 -0.228567
vn 0.973182 -0.025959 -0.228567
vn 0.955368 0.040583 0.292617
vn 0.994062 0.023510 0.106242
vn 0.994062 0.023510 0.106242
vn 0.973182 -0.025959 -0.228567
vn 0.973182 -0.025959 -0.228567
vn 0.928085 -0.056914 -0.367994
vn 0.973182 -0.025959 -0.228567
vn 0.928085 -0.056914 -0.367994
vn 0.928085 -0.056914 -0.367994
vn 0.077925 -0.964733 0.251432
vn 0.077925 -0.964733 0.251432
vn 0.141802 -0.913647 0.380975
vn 0.077925 -0.964733 0.251432
vn 0.141802 -0.913647 0.380975
vn 0.141802 -0.913647 0.380975
vn 0.515373 0.812180 0.273415
vn 0.365238 0.760001 0.537586
vn 0.365238 0.760001 0.537586
vn 0.515373 0.812180 0.273415
vn 0.365238 0.760001 0.537586
vn 0.687317 0.695398 0.209803
vn 0.009888 0.993493 0.113463
vn 0.001161 0.999890 0.014798
vn 0.001161 0.999890 0.014798
vn 0.007503 -0.992905 0.118674
vn 0.118889 -0.939354 0.321683
vn 0.015674 -0.993674 0.111203
vn 0.338214 -0.846787 0.410565
vn 0.490693 -0.829015 0.268242
vn 0.187803 -0.980302 0.061141
vn -0.005459 -0.992552 0.121696
vn -0.002785 -0.989604 -0.143792
vn -0.106279 -0.988226 -0.110062
vn -0.005459 -0.992552 0.121696
vn -0.106279 -0.988226 -0.110062
vn 0.009283 -0.992209 0.124238
vn 0.009283 -0.992209 0.124238
vn -0.106279 -0.988226 -0.110062
vn -0.113314 -0.992714 -0.040984
vn 0.009283 -0.992209 0.124238
vn -0.113314 -0.992714 -0.040984
vn 0.015674 -0.993674 0.111203
vn -0.005459 -0.992552 0.121696
vn -0.072383 -0.929871 0.360696
vn -0.036935 -0.993976 0.103187
vn 0.209365 0.976555 0.050066
vn -0.002069 0.998841 -0.048086
vn 0.220508 0.975194 0.019321
vn -0.021651 0.971929 -0.234276
vn -0.089215 0.974951 -0.203745
vn 0.209365 0.976555 0.050066
vn -0.036935 0.993976 0.103187
vn 0.220508 0.975194 0.019321
vn -0.036205 0.990988 0.128966
vn 0.015674 -0.993674 0.111203
vn -0.113314 -0.992714 -0.040984
vn 0.007503 -0.992905 0.118674
vn 0.015674 -0.993674 0.111203
vn 0.118889 -0.939354 0.321683
vn 0.009283 -0.992209 0.124238
vn 0.009283 -0.992209 0.124238
vn 0.118889 -0.939354 0.321683
vn -0.072383 -0.929871 0.360696
vn 0.009283 -0.992209 0.124238
vn -0.072383 -0.929871 0.360696
vn -0.005459 -0.992552 0.121696
vn -0.036935 -0.993976 0.103187
vn 0.220508 -0.975194 0.019321
vn -0.002785 -0.989604 -0.143792
vn -0.036935 -0.993976 0.103187
vn -0.002785 -0.989604 -0.143792
vn -0.005459 -0.992552 0.121696
vn -0.036206 -0.990988 0.128966
vn 0.220508 -0.975194 0.019321
vn -0.036935 -0.993976 0.103187
vn -0.002070 -0.998841 -0.048086
vn 0.220508 -0.975194 0.019321
vn -0.036206 -0.990988 0.128966
vn 0.187803 -0.980302 0.061141
vn 0.490693 -0.829015 0.268242
vn 0.220508 -0.975194 0.019321
vn 0.187803 -0.980302 0.061141
vn -0.120568 -0.973274 -0.195451
vn -0.084628 -0.972171 -0.218453
vn 0.220508 -0.975194 0.019321
vn -0.002070 -0.998841 -0.048086
vn 0.187803 -0.980302 0.061141
vn 0.123360 0.990919 0.053505
vn 0.205511 0.928011 0.310741
vn 0.198791 0.978894 0.047423
vn 0.674683 0.728103 -0.121115
vn 0.674683 0.728103 -0.121115
vn 0.615007 0.714803 -0.332902
vn 0.674683 0.728103 -0.121115
vn 0.615007 0.714803 -0.332902
vn 0.615007 0.714803 -0.332902
vn 0.703796 0.699755 0.122533
vn 0.703796 0.699755 0.122533
vn 0.674683 0.728103 -0.121115
vn 0.703796 0.699755 0.122533
vn 0.674683 0.728103 -0.121115
vn 0.674683 0.728103 -0.121115
vn 0.705511 0.692983 0.148422
vn 0.703796 0.699755 0.122533
vn 0.703796 0.699755 0.122533
vn 0.705501 -0.692943 -0.148659
vn 0.705117 -0.700970 -0.107009
vn 0.705117 -0.700970 -0.107009
vn 0.705117 -0.700970 -0.107009
vn 0.705117 -0.700970 -0.107009
vn 0.750912 -0.642643 0.152125
vn 0.705117 -0.700970 -0.107009
vn 0.750912 -0.642643 0.152125
vn 0.750912 -0.642643 0.152125
vn 0.750912 -0.642643 0.152125
vn 0.750912 -0.642643 0.152125
vn 0.758032 -0.543035 0.361247
vn 0.750912 -0.642643 0.152125
vn 0.758032 -0.543035 0.361247
vn 0.758032 -0.543035 0.361247
vn -0.615009 0.714802 -0.332901
vn -0.615009 0.714802 -0.332901
vn -0.674683 0.728103 -0.121115
vn -0.615009 0.714802 -0.332901
vn -0.674683 0.728103 -0.121115
vn -0.674683 0.728103 -0.121115
vn -0.703793 0.699758 0.122533
vn -0.703793 0.699758 0.122533
vn -0.674683 0.728103 -0.121115
vn -0.703793 0.699758 0.122533
vn -0.674683 0.728103 -0.121115
vn -0.674683 0.728103 -0.121115
vn -0.703793 0.699758 0.122533
vn -0.703793 0.699758 0.122533
vn -0.705507 0.692987 0.148422
vn -0.705113 -0.700974 -0.107010
vn -0.705113 -0.700974 -0.107010
vn -0.705495 -0.692948 -0.148660
vn -0.705113 -0.700974 -0.107010
vn -0.705113 -0.700974 -0.107010
vn -0.750911 -0.642643 0.152124
vn -0.705113 -0.700974 -0.107010
vn -0.750911 -0.642643 0.152124
vn -0.750911 -0.642643 0.152124
vn -0.758034 -0.543034 0.361247
vn -0.758034 -0.543034 0.361247
vn -0.750911 -0.642643 0.152124
vn -0.758034 -0.543034 0.361247
vn -0.750911 -0.642643 0.152124
vn -0.750911 -0.642643 0.152124
vn 0.486418 0.488371 0.724494
vn 0.488642 0.351964 0.798342
vn 0.536777 0.401661 0.741983
vn -0.536779 0.401660 0.741982
vn -0.488643 0.351962 0.798342
vn -0.486420 0.488370 0.724494
vn -0.791976 0.604781 0.083749
vn -0.694108 0.258347 0.671916
vn -0.694108 0.258347 0.671916
vn -0.791976 0.604781 0.083749
vn -0.694108 0.258347 0.671916
vn -0.687318 0.695397 0.209803
vn 0.687317 0.695398 0.209803
vn 0.694108 0.258347 0.671916
vn 0.694108 0.258347 0.671916
vn 0.687317 0.695398 0.209803
vn 0.694108 0.258347 0.671916
vn 0.791975 0.604782 0.083748
vn 0.791975 0.604782 0.083748
vn 0.662883 0.662885 -0.348094
vn 0.680325 0.698122 -0.223123
vn 0.687317 0.695398 0.209803
vn 0.791975 0.604782 0.083748
vn 0.680325 0.698122 -0.223123
vn -0.680326 0.698121 -0.223123
vn -0.381953 0.860582 -0.336914
vn -0.791976 0.604781 0.083749
vn -0.791976 0.604781 0.083749
vn -0.687318 0.695397 0.209803
vn -0.680326 0.698121 -0.223123
f 12/1/1 11/2/2 75/3/3
f 12/4/4 75/5/5 77/6/6
f 71/7/7 72/8/8 73/9/9
f 103/10/10 100/11/11 74/12/12
f 103/13/13 74/14/14 36/15/15
f 72/16/16 71/17/17 19/18/18
f 72/19/19 19/20/20 42/21/21
f 70/22/22 72/23/23 42/24/24
f 70/25/25 42/26/26 30/27/27
f 36/28/28 13/29/29 12/30/30
f 36/31/31 12/32/32 77/33/33
f 18/34/34 41/35/35 42/36/36
f 18/37/37 42/38/38 19/39/39
f 68/40/40 31/41/41 10/42/42
f 75/43/43 11/44/44 5/45/45
f 75/46/46 5/47/47 33/48/48
f 20/49/49 31/50/50 68/51/51
f 50/52/52 56/53/53 58/54/54
f 50/55/55 58/56/56 52/57/57
f 49/58/58 47/59/59 43/60/60
f 73/61/61 72/62/62 70/63/63
f 40/64/64 41/65/65 18/66/66
f 40/67/67 18/68/68 17/69/69
f 39/70/70 40/71/71 17/72/72
f 39/73/73 17/74/74 16/75/75
f 38/76/76 39/77/77 16/78/78
f 38/79/79 16/80/80 15/81/81
f 36/82/82 38/83/83 15/84/84
f 36/85/85 15/86/86 13/87/87
f 77/88/88 93/89/89 103/90/90
f 77/91/91 103/92/92 36/93/93
f 102/94/94 92/95/95 75/96/96
f 102/97/97 75/98/98 33/99/99
f 5/100/100 10/101/101 31/102/102
f 5/103/103 31/104/104 33/105/105
f 56/106/106 22/107/107 23/108/108
f 52/109/109 58/110/110 59/111/111
f 52/112/112 59/113/113 53/114/114
f 29/115/115 30/116/116 42/117/117
f 29/118/118 42/119/119 41/120/120
f 28/121/121 29/122/122 41/123/123
f 28/124/124 41/125/125 40/126/126
f 27/127/127 28/128/128 40/129/129
f 27/130/130 40/131/131 39/132/132
f 26/133/133 27/134/134 39/135/135
f 26/136/136 39/137/137 38/138/138
f 24/139/139 26/140/140 38/141/141
f 24/142/142 38/143/143 36/144/144
f 74/145/145 23/146/146 24/147/147
f 74/148/148 24/149/149 36/150/150
f 6/151/151 105/152/152 124/153/153
f 6/154/154 124/155/155 4/156/156
f 66/157/157 4/158/158 124/159/159
f 66/160/160 124/161/161 65/162/162
f 112/163/163 4/164/164 66/165/165
f 112/166/166 66/167/167 113/168/168
f 1/169/169 6/170/170 4/171/171
f 1/172/172 4/173/173 112/174/174
f 9/175/175 2/176/176 35/177/177
f 9/178/178 35/179/179 8/180/180
f 2/181/181 67/182/182 63/183/183
f 2/184/184 63/185/185 35/186/186
f 109/187/187 2/188/188 9/189/189
f 109/190/190 9/191/191 69/192/192
f 44/193/193 62/194/194 33/195/195
f 44/196/196 33/197/197 31/198/198
f 8/199/199 35/200/200 64/201/201
f 44/202/202 50/203/203 52/204/204
f 44/205/205 52/206/206 46/207/207
f 108/208/208 67/209/209 2/210/210
f 108/211/211 2/212/212 109/213/213
f 46/214/214 52/215/215 53/216/216
f 46/217/217 53/218/218 47/219/219
f 47/220/220 53/221/221 43/222/222
f 55/223/223 46/224/224 47/225/225
f 55/226/226 47/227/227 49/228/228
f 20/229/229 50/230/230 44/231/231
f 106/232/232 54/233/233 121/234/234
f 106/235/235 121/236/236 7/237/237
f 49/238/238 59/239/239 58/240/240
f 49/241/241 58/242/242 55/243/243
f 59/244/244 49/245/245 43/246/246
f 56/247/247 62/248/248 55/249/249
f 56/250/250 55/251/251 58/252/252
f 62/253/253 44/254/254 46/255/255
f 62/256/256 46/257/257 55/258/258
f 56/259/259 50/260/260 21/261/261
f 56/262/262 21/263/263 22/264/264
f 53/265/265 59/266/266 43/267/267
f 33/268/268 76/269/269 99/270/270
f 33/271/271 99/272/272 102/273/273
f 91/274/274 79/275/275 80/276/276
f 94/277/277 85/278/278 86/279/279
f 90/280/280 82/281/281 83/282/282
f 90/283/283 83/284/284 88/285/285
f 91/286/286 81/287/287 82/288/288
f 91/289/289 82/290/290 90/291/291
f 89/292/292 78/293/293 88/294/294
f 84/295/295 100/296/296 101/297/297
f 101/298/298 87/299/299 86/300/300
f 99/301/301 84/302/302 96/303/303
f 80/304/304 81/305/305 91/306/306
f 90/307/307 79/308/308 91/309/309
f 88/310/310 78/311/311 79/312/312
f 88/313/313 79/314/314 90/315/315
f 88/316/316 83/317/317 84/318/318
f 88/319/319 84/320/320 89/321/321
f 89/322/322 84/323/323 92/324/324
f 92/325/325 84/326/326 93/327/327
f 84/328/328 85/329/329 94/330/330
f 86/331/331 87/332/332 94/333/333
f 94/334/334 93/335/335 84/336/336
f 80/337/337 79/338/338 98/339/339
f 86/340/340 85/341/341 101/342/342
f 95/343/343 83/344/344 82/345/345
f 95/346/346 82/347/347 97/348/348
f 97/349/349 82/350/350 81/351/351
f 97/352/352 81/353/353 98/354/354
f 95/355/355 78/356/356 96/357/357
f 101/358/358 85/359/359 84/360/360
f 100/361/361 84/362/362 99/363/363
f 96/364/364 84/365/365 83/366/366
f 96/367/367 83/368/368 95/369/369
f 98/370/370 81/371/371 80/372/372
f 98/373/373 79/374/374 97/375/375
f 97/376/376 79/377/377 78/378/378
f 97/379/379 78/380/380 95/381/381
f 92/382/382 93/383/383 77/384/384
f 92/385/385 77/386/386 75/387/387
f 76/388/388 74/389/389 100/390/390
f 76/391/391 100/392/392 99/393/393
f 78/394/394 89/395/395 92/396/396
f 78/397/397 92/398/398 102/399/399
f 96/400/400 78/401/401 102/402/402
f 96/403/403 102/404/404 99/405/405
f 94/406/406 87/407/407 103/408/408
f 94/409/409 103/410/410 93/411/411
f 103/412/412 87/413/413 101/414/414
f 103/415/415 101/416/416 100/417/417
f 11/418/418 12/419/419 113/420/420
f 11/421/421 113/422/422 108/423/423
f 73/424/424 137/425/425 71/426/426
f 118/427/427 19/428/428 71/429/429
f 118/430/430 71/431/431 137/432/432
f 30/433/433 118/434/434 137/435/435
f 30/436/436 137/437/437 70/438/438
f 113/439/439 12/440/440 13/441/441
f 113/442/442 13/443/443 112/444/444
f 19/445/445 118/446/446 117/447/447
f 19/448/448 117/449/449 18/450/450
f 10/451/451 107/452/452 68/453/453
f 109/454/454 5/455/455 11/456/456
f 109/457/457 11/458/458 108/459/459
f 68/460/460 107/461/461 20/462/462
f 128/463/463 134/464/464 132/465/465
f 128/466/466 132/467/467 126/468/468
f 119/469/469 123/470/470 125/471/471
f 70/472/472 137/473/473 73/474/474
f 17/475/475 18/476/476 117/477/477
f 17/478/478 117/479/479 116/480/480
f 16/481/481 17/482/482 116/483/483
f 16/484/484 116/485/485 115/486/486
f 15/487/487 16/488/488 115/489/489
f 15/490/490 115/491/491 114/492/492
f 13/493/493 15/494/494 114/495/495
f 13/496/496 114/497/497 112/498/498
f 5/499/499 109/500/500 107/501/501
f 5/502/502 107/503/503 10/504/504
f 23/505/505 22/506/506 132/507/507
f 134/508/508 128/509/509 129/510/510
f 134/511/511 129/512/512 135/513/513
f 117/514/514 118/515/515 30/516/516
f 117/517/517 30/518/518 29/519/519
f 116/520/520 117/521/521 29/522/522
f 116/523/523 29/524/524 28/525/525
f 115/526/526 116/527/527 28/528/528
f 115/529/529 28/530/530 27/531/531
f 114/532/532 115/533/533 27/534/534
f 114/535/535 27/536/536 26/537/537
f 112/538/538 114/539/539 26/540/540
f 112/541/541 26/542/542 24/543/543
f 112/544/544 24/545/545 23/546/546
f 112/547/547 23/548/548 1/549/549
f 9/550/550 6/551/551 1/552/552
f 9/553/553 1/554/554 69/555/555
f 108/556/556 113/557/557 66/558/558
f 108/559/559 66/560/560 67/561/561
f 64/562/562 35/563/563 111/564/564
f 64/565/565 111/566/566 7/567/567
f 7/568/568 111/569/569 106/570/570
f 133/571/571 54/572/572 106/573/573
f 64/574/574 127/575/575 48/576/576
f 64/577/577 48/578/578 8/579/579
f 9/580/580 48/581/581 6/582/582
f 107/583/583 109/584/584 61/585/585
f 107/586/586 61/587/587 120/588/588
f 7/589/589 121/590/590 127/591/591
f 7/592/592 127/593/593 64/594/594
f 122/595/595 128/596/596 126/597/597
f 122/598/598 126/599/599 120/600/600
f 48/601/601 60/602/602 105/603/603
f 128/604/604 122/605/605 123/606/606
f 128/607/607 123/608/608 129/609/609
f 119/610/610 129/611/611 123/612/612
f 122/613/613 131/614/614 125/615/615
f 122/616/616 125/617/617 123/618/618
f 120/619/619 126/620/620 20/621/621
f 105/622/622 60/623/623 130/624/624
f 135/625/625 125/626/626 131/627/627
f 135/628/628 131/629/629 134/630/630
f 119/631/631 125/632/632 135/633/633
f 134/634/634 131/635/635 61/636/636
f 134/637/637 61/638/638 132/639/639
f 131/640/640 122/641/641 120/642/642
f 131/643/643 120/644/644 61/645/645
f 22/646/646 21/647/647 126/648/648
f 22/649/649 126/650/650 132/651/651
f 119/652/652 135/653/653 129/654/654
f 133/655/655 111/656/656 57/657/657
f 130/658/658 60/659/659 65/660/660
f 45/661/661 127/662/662 121/663/663
f 45/664/664 121/665/665 51/666/666
f 51/667/667 121/668/668 54/669/669
f 51/670/670 54/671/671 57/672/672
f 45/673/673 35/674/674 63/675/675
f 105/676/676 6/677/677 48/678/678
f 130/679/679 124/680/680 105/681/681
f 8/682/682 48/683/683 9/684/684
f 57/685/685 54/686/686 133/687/687
f 57/688/688 111/689/689 51/690/690
f 51/691/691 111/692/692 35/693/693
f 51/694/694 35/695/695 45/696/696
f 63/697/697 48/698/698 127/699/699
f 63/700/700 127/701/701 45/702/702
f 67/703/703 48/704/704 63/705/705
f 66/706/706 48/707/707 67/708/708
f 65/709/709 60/710/710 48/711/711
f 65/712/712 124/713/713 130/714/714
f 48/715/715 66/716/716 65/717/717
f 106/718/718 111/719/719 133/720/720
f 32/721/721 136/722/722 126/723/723
f 32/724/724 126/725/725 21/726/726
f 37/727/727 104/728/728 136/729/729
f 37/730/730 136/731/731 32/732/732
f 34/733/733 104/734/734 37/735/735
f 34/736/736 3/737/737 104/738/738
f 104/739/739 3/740/740 14/741/741
f 104/742/742 14/743/743 136/744/744
f 136/745/745 14/746/746 20/747/747
f 136/748/748 20/749/749 126/750/750
f 21/751/751 50/752/752 110/753/753
f 21/754/754 110/755/755 32/756/756
f 25/757/757 37/758/758 32/759/759
f 25/760/760 32/761/761 110/762/762
f 37/763/763 25/764/764 34/765/765
f 25/766/766 3/767/767 34/768/768
f 3/769/769 25/770/770 110/771/771
f 3/772/772 110/773/773 14/774/774
f 50/775/775 20/776/776 14/777/777
f 50/778/778 14/779/779 110/780/780
f 20/781/781 107/782/782 120/783/783
f 44/784/784 31/785/785 20/786/786
f 76/787/787 33/788/788 62/789/789
f 76/790/790 62/791/791 56/792/792
f 132/793/793 61/794/794 109/795/795
f 132/796/796 109/797/797 69/798/798
f 69/799/799 1/800/800 23/801/801
f 132/802/802 69/803/803 23/804/804
f 23/805/805 74/806/806 76/807/807
f 76/808/808 56/809/809 23/810/810
