v -0.000001 -11.771641 5.844894
v -0.000000 -11.314917 3.548793
v -0.000000 -6.562652 4.995336
v -0.000000 -6.827553 6.327075
v -0.000000 -11.314917 10.437090
v -0.000001 -11.771641 8.140993
v -0.000000 -6.827552 7.658813
v -0.000000 -6.562652 8.990549
v -0.000000 -10.436235 1.427473
v -0.000000 -9.135600 -0.519067
v -0.000000 -5.298648 2.635976
v -0.000000 -6.053018 3.764971
v -0.000000 -9.135601 14.504950
v -0.000000 -10.436235 12.558409
v -0.000000 -6.053018 10.220913
v -0.000000 -5.298650 11.349909
v -0.000000 -7.512012 -2.142655
v -0.000000 -5.565471 -3.443291
v -0.000000 -3.227973 0.939926
v -0.000000 -4.356967 1.694295
v -0.000000 -5.565475 17.429176
v -0.000000 -7.512013 16.128538
v -0.000000 -4.356969 12.291588
v -0.000000 -3.227976 13.045959
v -0.000000 -3.444150 -4.321970
v -0.000000 -1.148049 -4.778693
v -0.000000 -0.665868 0.165392
v -0.000000 -1.997607 0.430293
v -0.000000 -1.148055 18.764580
v -0.000000 -3.444155 18.307856
v -0.000000 -1.997611 13.555593
v -0.000000 -0.665872 13.820494
v 0.000000 1.148052 -4.778693
v 0.000000 3.444152 -4.321969
v 0.000000 1.997609 0.430293
v 0.000000 0.665871 0.165393
v 0.000000 3.444146 18.307859
v 0.000000 1.148046 18.764580
v 0.000000 0.665866 13.820495
v 0.000000 1.997605 13.555595
v 0.000000 5.565472 -3.443289
v 0.000000 7.512012 -2.142652
v 0.000000 4.356969 1.694298
v 0.000000 3.227975 0.939928
v 0.000000 7.512007 16.128544
v 0.000000 5.565467 17.429180
v 0.000000 3.227970 13.045961
v 0.000000 4.356966 12.291594
v 0.000000 9.135600 -0.519064
v 0.000000 10.436234 1.427476
v 0.000000 6.053018 3.764973
v 0.000000 5.298649 2.635978
v 0.000000 10.436234 12.558416
v 0.000000 9.135595 14.504957
v 0.000000 5.298646 11.349913
v 0.000000 6.053016 10.220919
v 0.000000 11.314916 3.548796
v 0.000001 11.771637 5.844897
v 0.000000 6.827552 6.327077
v 0.000000 6.562652 4.995338
v 0.000001 11.771637 8.140997
v 0.000000 11.314913 10.437098
v 0.000000 6.562650 8.990554
v 0.000000 6.827550 7.658815
vt 0.451237 1.000000
vt 0.548764 1.000000
vt 0.549274 0.790000
vt 0.451237 1.000000
vt 0.549274 0.790000
vt 0.450726 0.790000
vt 0.451237 1.000000
vt 0.548764 1.000000
vt 0.549274 0.790000
vt 0.451237 1.000000
vt 0.549274 0.790000
vt 0.450726 0.790000
vt 0.451237 1.000000
vt 0.548764 1.000000
vt 0.549274 0.790000
vt 0.451237 1.000000
vt 0.549274 0.790000
vt 0.450726 0.790000
vt 0.451237 1.000000
vt 0.548764 1.000000
vt 0.549274 0.790000
vt 0.451237 1.000000
vt 0.549274 0.790000
vt 0.450726 0.790000
vt 0.451237 1.000000
vt 0.548764 1.000000
vt 0.549274 0.790000
vt 0.451237 1.000000
vt 0.549274 0.790000
vt 0.450726 0.790000
vt 0.451237 1.000000
vt 0.548764 1.000000
vt 0.549274 0.790000
vt 0.451237 1.000000
vt 0.549274 0.790000
vt 0.450726 0.790000
vt 0.451237 1.000000
vt 0.548764 1.000000
vt 0.549274 0.790000
vt 0.451237 1.000000
vt 0.549274 0.790000
vt 0.450726 0.790000
vt 0.451237 1.000000
vt 0.548764 1.000000
vt 0.549274 0.790000
vt 0.451237 1.000000
vt 0.549274 0.790000
vt 0.450726 0.790000
vt 0.451237 1.000000
vt 0.548764 1.000000
vt 0.549274 0.790000
vt 0.451237 1.000000
vt 0.549274 0.790000
vt 0.450726 0.790000
vt 0.451237 1.000000
vt 0.548764 1.000000
vt 0.549274 0.790000
vt 0.451237 1.000000
vt 0.549274 0.790000
vt 0.450726 0.790000
vt 0.451237 1.000000
vt 0.548764 1.000000
vt 0.549274 0.790000
vt 0.451237 1.000000
vt 0.549274 0.790000
vt 0.450726 0.790000
vt 0.451237 1.000000
vt 0.548764 1.000000
vt 0.549274 0.790000
vt 0.451237 1.000000
vt 0.549274 0.790000
vt 0.450726 0.790000
vt 0.451237 1.000000
vt 0.548764 1.000000
vt 0.549274 0.790000
vt 0.451237 1.000000
vt 0.549274 0.790000
vt 0.450726 0.790000
vt 0.451237 1.000000
vt 0.548764 1.000000
vt 0.549274 0.790000
vt 0.451237 1.000000
vt 0.549274 0.790000
vt 0.450726 0.790000
vt 0.451237 1.000000
vt 0.548764 1.000000
vt 0.549274 0.790000
vt 0.451237 1.000000
vt 0.549274 0.790000
vt 0.450726 0.790000
vt 0.451237 1.000000
vt 0.548764 1.000000
vt 0.549274 0.790000
vt 0.451237 1.000000
vt 0.549274 0.790000
vt 0.450726 0.790000
vt 0.450726 0.790000
vt 0.451237 1.000000
vt 0.548764 1.000000
vt 0.450726 0.790000
vt 0.548764 1.000000
vt 0.549274 0.790000
vt 0.548764 1.000000
vt 0.549274 0.790000
vt 0.450726 0.790000
vt 0.548764 1.000000
vt 0.450726 0.790000
vt 0.451237 1.000000
vt 0.548764 1.000000
vt 0.549274 0.790000
vt 0.450726 0.790000
vt 0.548764 1.000000
vt 0.450726 0.790000
vt 0.451237 1.000000
vt 0.450726 0.790000
vt 0.451237 1.000000
vt 0.548764 1.000000
vt 0.450726 0.790000
vt 0.548764 1.000000
vt 0.549274 0.790000
vt 0.450726 0.790000
vt 0.451237 1.000000
vt 0.548764 1.000000
vt 0.450726 0.790000
vt 0.548764 1.000000
vt 0.549274 0.790000
vt 0.548764 1.000000
vt 0.549274 0.790000
vt 0.450726 0.790000
vt 0.548764 1.000000
vt 0.450726 0.790000
vt 0.451237 1.000000
vt 0.548764 1.000000
vt 0.549274 0.790000
vt 0.450726 0.790000
vt 0.548764 1.000000
vt 0.450726 0.790000
vt 0.451237 1.000000
vt 0.450726 0.790000
vt 0.451237 1.000000
vt 0.548764 1.000000
vt 0.450726 0.790000
vt 0.548764 1.000000
vt 0.549274 0.790000
vt 0.548764 1.000000
vt 0.549274 0.790000
vt 0.450726 0.790000
vt 0.548764 1.000000
vt 0.450726 0.790000
vt 0.451237 1.000000
vt 0.548764 1.000000
vt 0.549274 0.790000
vt 0.450726 0.790000
vt 0.548764 1.000000
vt 0.450726 0.790000
vt 0.451237 1.000000
vt 0.450726 0.790000
vt 0.451237 1.000000
vt 0.548764 1.000000
vt 0.450726 0.790000
vt 0.548764 1.000000
vt 0.549274 0.790000
vt 0.548764 1.000000
vt 0.549274 0.790000
vt 0.450726 0.790000
vt 0.548764 1.000000
vt 0.450726 0.790000
vt 0.451237 1.000000
vt 0.450726 0.790000
vt 0.451237 1.000000
vt 0.548764 1.000000
vt 0.450726 0.790000
vt 0.548764 1.000000
vt 0.549274 0.790000
vt 0.450726 0.790000
vt 0.451237 1.000000
vt 0.548764 1.000000
vt 0.450726 0.790000
vt 0.548764 1.000000
vt 0.549274 0.790000
vt 0.548764 1.000000
vt 0.549274 0.790000
vt 0.450726 0.790000
vt 0.548764 1.000000
vt 0.450726 0.790000
vt 0.451237 1.000000
vt 0.450726 0.790000
vt 0.451237 1.000000
vt 0.548764 1.000000
vt 0.450726 0.790000
vt 0.548764 1.000000
vt 0.549274 0.790000
vn 1.000000 -0.000000 -0.000000
vn 1.000000 -0.000000 -0.000000
vn 1.000000 -0.000000 -0.000000
vn 1.000000 -0.000000 -0.000000
vn 1.000000 -0.000000 -0.000000
vn 1.000000 -0.000000 -0.000000
vn 1.000000 -0.000000 0.000000
vn 1.000000 -0.000000 0.000000
vn 1.000000 -0.000000 0.000000
vn 1.000000 -0.000000 0.000000
vn 1.000000 -0.000000 0.000000
vn 1.000000 -0.000000 0.000000
vn 1.000000 -0.000000 -0.000000
vn 1.000000 -0.000000 -0.000000
vn 1.000000 -0.000000 -0.000000
vn 1.000000 -0.000000 -0.000000
vn 1.000000 -0.000000 -0.000000
vn 1.000000 -0.000000 -0.000000
vn 1.000000 -0.000000 0.000000
vn 1.000000 -0.000000 0.000000
vn 1.000000 -0.000000 0.000000
vn 1.000000 -0.000000 0.000000
vn 1.000000 -0.000000 0.000000
vn 1.000000 -0.000000 0.000000
vn 1.000000 -0.000000 -0.000000
vn 1.000000 -0.000000 -0.000000
vn 1.000000 -0.000000 -0.000000
vn 1.000000 -0.000000 -0.000000
vn 1.000000 -0.000000 -0.000000
vn 1.000000 -0.000000 -0.000000
vn 1.000000 -0.000000 0.000000
vn 1.000000 -0.000000 0.000000
vn 1.000000 -0.000000 0.000000
vn 1.000000 -0.000000 0.000000
vn 1.000000 -0.000000 0.000000
vn 1.000000 -0.000000 0.000000
vn 1.000000 -0.000000 -0.000000
vn 1.000000 -0.000000 -0.000000
vn 1.000000 -0.000000 -0.000000
vn 1.000000 -0.000000 -0.000000
vn 1.000000 -0.000000 -0.000000
vn 1.000000 -0.000000 -0.000000
vn 1.000000 -0.000000 0.000000
vn 1.000000 -0.000000 0.000000
vn 1.000000 -0.000000 0.000000
vn 1.000000 -0.000000 0.000000
vn 1.000000 -0.000000 0.000000
vn 1.000000 -0.000000 0.000000
vn 1.000000 -0.000000 -0.000000
vn 1.000000 -0.000000 -0.000000
vn 1.000000 -0.000000 -0.000000
vn 1.000000 -0.000000 -0.000000
vn 1.000000 -0.000000 -0.000000
vn 1.000000 -0.000000 -0.000000
vn 1.000000 -0.000000 0.000000
vn 1.000000 -0.000000 0.000000
vn 1.000000 -0.000000 0.000000
vn 1.000000 -0.000000 0.000000
vn 1.000000 -0.000000 0.000000
vn 1.000000 -0.000000 0.000000
vn 1.000000 -0.000000 -0.000000
vn 1.000000 -0.000000 -0.000000
vn 1.000000 -0.000000 -0.000000
vn 1.000000 -0.000000 -0.000000
vn 1.000000 -0.000000 -0.000000
vn 1.000000 -0.000000 -0.000000
vn 1.000000 -0.000000 0.000000
vn 1.000000 -0.000000 0.000000
vn 1.000000 -0.000000 0.000000
vn 1.000000 -0.000000 0.000000
vn 1.000000 -0.000000 0.000000
vn 1.000000 -0.000000 0.000000
vn 1.000000 -0.000000 -0.000000
vn 1.000000 -0.000000 -0.000000
vn 1.000000 -0.000000 -0.000000
vn 1.000000 -0.000000 -0.000000
vn 1.000000 -0.000000 -0.000000
vn 1.000000 -0.000000 -0.000000
vn 1.000000 -0.000000 0.000000
vn 1.000000 -0.000000 0.000000
vn 1.000000 -0.000000 0.000000
vn 1.000000 -0.000000 0.000000
vn 1.000000 -0.000000 0.000000
vn 1.000000 -0.000000 0.000000
vn 1.000000 -0.000000 -0.000000
vn 1.000000 -0.000000 -0.000000
vn 1.000000 -0.000000 -0.000000
vn 1.000000 -0.000000 -0.000000
vn 1.000000 -0.000000 -0.000000
vn 1.000000 -0.000000 -0.000000
vn 1.000000 -0.000000 0.000000
vn 1.000000 -0.000000 0.000000
vn 1.000000 -0.000000 0.000000
vn 1.000000 -0.000000 0.000000
vn 1.000000 -0.000000 0.000000
vn 1.000000 -0.000000 0.000000
vn 1.000000 -0.000000 0.000000
vn 1.000000 -0.000000 0.000000
vn 1.000000 -0.000000 -0.000000
vn 1.000000 -0.000000 0.000000
vn 1.000000 -0.000000 -0.000000
vn 1.000000 -0.000000 -0.000000
vn 1.000000 -0.000000 -0.000000
vn 1.000000 -0.000000 -0.000000
vn 1.000000 -0.000000 -0.000000
vn 1.000000 -0.000000 -0.000000
vn 1.000000 -0.000000 -0.000000
vn 1.000000 -0.000000 -0.000000
vn 1.000000 -0.000000 0.000000
vn 1.000000 -0.000000 0.000000
vn 1.000000 -0.000000 0.000000
vn 1.000000 -0.000000 0.000000
vn 1.000000 -0.000000 0.000000
vn 1.000000 -0.000000 0.000000
vn 1.000000 -0.000000 -0.000000
vn 1.000000 -0.000000 -0.000000
vn 1.000000 -0.000000 -0.000000
vn 1.000000 -0.000000 -0.000000
vn 1.000000 -0.000000 -0.000000
vn 1.000000 -0.000000 -0.000000
vn 1.000000 -0.000000 -0.000000
vn 1.000000 -0.000000 -0.000000
vn 1.000000 -0.000000 0.000000
vn 1.000000 -0.000000 -0.000000
vn 1.000000 -0.000000 0.000000
vn 1.000000 -0.000000 0.000000
vn 1.000000 -0.000000 0.000000
vn 1.000000 -0.000000 0.000000
vn 1.000000 -0.000000 0.000000
vn 1.000000 -0.000000 0.000000
vn 1.000000 -0.000000 0.000000
vn 1.000000 -0.000000 0.000000
vn 1.000000 -0.000000 0.000000
vn 1.000000 -0.000000 0.000000
vn 1.000000 -0.000000 0.000000
vn 1.000000 -0.000000 0.000000
vn 1.000000 -0.000000 0.000000
vn 1.000000 -0.000000 0.000000
vn 1.000000 -0.000000 -0.000000
vn 1.000000 -0.000000 -0.000000
vn 1.000000 -0.000000 -0.000000
vn 1.000000 -0.000000 -0.000000
vn 1.000000 -0.000000 -0.000000
vn 1.000000 -0.000000 -0.000000
vn 1.000000 -0.000000 0.000000
vn 1.000000 -0.000000 0.000000
vn 1.000000 -0.000000 0.000000
vn 1.000000 -0.000000 0.000000
vn 1.000000 -0.000000 0.000000
vn 1.000000 -0.000000 0.000000
vn 1.000000 -0.000000 0.000000
vn 1.000000 -0.000000 0.000000
vn 1.000000 -0.000000 0.000000
vn 1.000000 -0.000000 0.000000
vn 1.000000 -0.000000 0.000000
vn 1.000000 -0.000000 0.000000
vn 1.000000 -0.000000 -0.000000
vn 1.000000 -0.000000 -0.000000
vn 1.000000 -0.000000 -0.000000
vn 1.000000 -0.000000 -0.000000
vn 1.000000 -0.000000 -0.000000
vn 1.000000 -0.000000 -0.000000
vn 1.000000 -0.000000 0.000000
vn 1.000000 -0.000000 0.000000
vn 1.000000 -0.000000 0.000000
vn 1.000000 -0.000000 0.000000
vn 1.000000 -0.000000 0.000000
vn 1.000000 -0.000000 0.000000
vn 1.000000 -0.000000 -0.000000
vn 1.000000 -0.000000 -0.000000
vn 1.000000 -0.000000 -0.000000
vn 1.000000 -0.000000 -0.000000
vn 1.000000 -0.000000 -0.000000
vn 1.000000 -0.000000 -0.000000
vn 1.000000 -0.000000 -0.000000
vn 1.000000 -0.000000 -0.000000
vn 1.000000 -0.000000 -0.000000
vn 1.000000 -0.000000 -0.000000
vn 1.000000 -0.000000 -0.000000
vn 1.000000 -0.000000 -0.000000
vn 1.000000 -0.000000 0.000000
vn 1.000000 -0.000000 0.000000
vn 1.000000 -0.000000 0.000000
vn 1.000000 -0.000000 0.000000
vn 1.000000 -0.000000 0.000000
vn 1.000000 -0.000000 0.000000
vn 1.000000 -0.000000 -0.000000
vn 1.000000 -0.000000 -0.000000
vn 1.000000 -0.000000 -0.000000
vn 1.000000 -0.000000 -0.000000
vn 1.000000 -0.000000 -0.000000
vn 1.000000 -0.000000 -0.000000
f 1/1/1 2/2/2 3/3/3
f 1/4/4 3/5/5 4/6/6
f 5/7/7 6/8/8 7/9/9
f 5/10/10 7/11/11 8/12/12
f 9/13/13 10/14/14 11/15/15
f 9/16/16 11/17/17 12/18/18
f 13/19/19 14/20/20 15/21/21
f 13/22/22 15/23/23 16/24/24
f 17/25/25 18/26/26 19/27/27
f 17/28/28 19/29/29 20/30/30
f 21/31/31 22/32/32 23/33/33
f 21/34/34 23/35/35 24/36/36
f 25/37/37 26/38/38 27/39/39
f 25/40/40 27/41/41 28/42/42
f 29/43/43 30/44/44 31/45/45
f 29/46/46 31/47/47 32/48/48
f 33/49/49 34/50/50 35/51/51
f 33/52/52 35/53/53 36/54/54
f 37/55/55 38/56/56 39/57/57
f 37/58/58 39/59/59 40/60/60
f 41/61/61 42/62/62 43/63/63
f 41/64/64 43/65/65 44/66/66
f 45/67/67 46/68/68 47/69/69
f 45/70/70 47/71/71 48/72/72
f 49/73/73 50/74/74 51/75/75
f 49/76/76 51/77/77 52/78/78
f 53/79/79 54/80/80 55/81/81
f 53/82/82 55/83/83 56/84/84
f 57/85/85 58/86/86 59/87/87
f 57/88/88 59/89/89 60/90/90
f 61/91/91 62/92/92 63/93/93
f 61/94/94 63/95/95 64/96/96
f 7/97/97 6/98/98 1/99/99
f 7/100/100 1/101/101 4/102/102
f 9/103/103 12/104/104 3/105/105
f 9/106/106 3/107/107 2/108/108
f 5/109/109 8/110/110 15/111/111
f 5/112/112 15/113/113 14/114/114
f 35/115/115 34/116/116 41/117/117
f 35/118/118 41/119/119 44/120/120
f 59/121/121 58/122/122 61/123/123
f 59/124/124 61/125/125 64/126/126
f 45/127/127 48/128/128 55/129/129
f 45/130/130 55/131/131 54/132/132
f 37/133/133 40/134/134 47/135/135
f 37/136/136 47/137/137 46/138/138
f 11/139/139 10/140/140 17/141/141
f 11/142/142 17/143/143 20/144/144
f 13/145/145 16/146/146 23/147/147
f 13/148/148 23/149/149 22/150/150
f 53/151/151 56/152/152 63/153/153
f 53/154/154 63/155/155 62/156/156
f 51/157/157 50/158/158 57/159/159
f 51/160/160 57/161/161 60/162/162
f 29/163/163 32/164/164 39/165/165
f 29/166/166 39/167/167 38/168/168
f 19/169/169 18/170/170 25/171/171
f 19/172/172 25/173/173 28/174/174
f 27/175/175 26/176/176 33/177/177
f 27/178/178 33/179/179 36/180/180
f 21/181/181 24/182/182 31/183/183
f 21/184/184 31/185/185 30/186/186
f 43/187/187 42/188/188 49/189/189
f 43/190/190 49/191/191 52/192/192
