v -7.008003 7.002285 -27.991997
v 7.008003 7.002285 -27.991997
v 7.008003 7.002285 -39.008003
v -7.008003 7.002285 -39.008003
v 3.008195 7.002285 -30.998394
v 3.008195 7.002285 -35.024399
v -4.994911 3.001135 -39.008003
v -3.021170 3.001135 -39.008003
v -3.021170 3.001135 -40.052006
v -4.994911 3.001135 -40.052006
v 7.008003 7.002285 -30.998394
v 7.008003 7.002285 -35.024399
v -7.008003 7.002285 -7.991997
v 7.008003 7.002285 -7.991997
v 7.008003 7.002285 -27.008003
v -7.008003 7.002285 -27.008003
v -2.999021 3.001135 -28.052006
v -4.994911 3.001135 -28.052006
v -4.994911 3.001135 -27.008003
v -2.999021 3.001135 -27.008003
vt 0.000000 0.000000
vt 0.000000 0.000000
vt 0.000000 0.000000
vt 0.000000 0.000000
vt 0.000000 0.000000
vt 0.000000 0.000000
vt 0.000000 0.000000
vt 0.000000 0.000000
vt 0.000000 0.000000
vt 0.000000 0.000000
vt 0.000000 0.000000
vt 0.000000 0.000000
vt 0.000000 0.000000
vt 0.000000 0.000000
vt 0.000000 0.000000
vt 0.000000 0.000000
vt 0.000000 0.000000
vt 0.000000 0.000000
vt 0.000000 0.000000
vt 0.000000 0.000000
vt 0.000000 0.000000
vt 0.000000 0.000000
vt 0.000000 0.000000
vt 0.000000 0.000000
vt 0.000000 0.052044
vt 1.000000 0.052044
vt 1.000000 1.000000
vt 0.000000 0.052044
vt 1.000000 1.000000
vt 0.000000 1.000000
vt 0.286029 0.052044
vt 0.143628 0.052044
vt 0.143628 0.000000
vt 0.286029 0.052044
vt 0.143628 0.000000
vt 0.286029 0.000000
vn 0.000000 -1.000000 0.000000
vn 0.000000 -1.000000 0.000000
vn 0.000000 -1.000000 0.000000
vn 0.000000 -1.000000 0.000000
vn 0.000000 -1.000000 0.000000
vn 0.000000 -1.000000 0.000000
vn 0.000000 -1.000000 0.000000
vn 0.000000 -1.000000 0.000000
vn 0.000000 -1.000000 0.000000
vn 0.000000 -1.000000 0.000000
vn 0.000000 -1.000000 0.000000
vn 0.000000 -1.000000 0.000000
vn 0.000000 -1.000000 0.000000
vn 0.000000 -1.000000 0.000000
vn 0.000000 -1.000000 0.000000
vn 0.000000 -1.000000 0.000000
vn 0.000000 -1.000000 0.000000
vn 0.000000 -1.000000 0.000000
vn 0.000000 -1.000000 0.000000
vn 0.000000 -1.000000 0.000000
vn 0.000000 -1.000000 0.000000
vn 0.000000 -1.000000 0.000000
vn 0.000000 -1.000000 0.000000
vn 0.000000 -1.000000 0.000000
vn 0.000000 -1.000000 0.000000
vn 0.000000 -1.000000 0.000000
vn 0.000000 -1.000000 0.000000
vn 0.000000 -1.000000 0.000000
vn 0.000000 -1.000000 0.000000
vn 0.000000 -1.000000 0.000000
vn 0.000000 -1.000000 0.000000
vn 0.000000 -1.000000 0.000000
vn 0.000000 -1.000000 0.000000
vn 0.000000 -1.000000 0.000000
vn 0.000000 -1.000000 0.000000
vn 0.000000 -1.000000 0.000000
f 6/1/1 5/2/2 1/3/3
f 6/4/4 1/5/5 4/6/6
f 5/7/7 11/8/8 2/9/9
f 5/10/10 2/11/11 1/12/12
f 8/13/13 7/14/14 10/15/15
f 8/16/16 10/17/17 9/18/18
f 4/19/19 3/20/20 12/21/21
f 4/22/22 12/23/23 6/24/24
f 16/25/25 15/26/26 14/27/27
f 16/28/28 14/29/29 13/30/30
f 20/31/31 19/32/32 18/33/33
f 20/34/34 18/35/35 17/36/36
