v -2.487960 -2.067290 -6.046269
v -2.487960 -2.067290 13.664557
v -2.487960 6.853925 -6.046269
v -2.487960 6.853925 13.664557
v 10.000000 -2.067290 -6.046269
v 10.000000 -2.067290 13.664557
v 10.000000 6.853925 -6.046269
v 10.000000 6.853925 13.664557
v -2.487960 6.853925 8.291094
v -2.487960 -2.067290 8.291094
v -2.487960 -2.067290 11.850142
v -2.487960 6.853925 11.850142
v -2.487960 3.290561 11.850142
v -2.487960 3.290561 8.291094
v -16.847013 3.290561 8.291094
v -16.847013 3.290561 11.850142
v -16.847013 -2.067290 8.291094
v -16.847013 -2.067290 11.850142
v -6.112000 -2.067290 8.291094
v -9.690337 -2.067290 8.291094
v -9.690337 3.290561 8.291094
v -6.112000 3.290561 8.291094
v -4.323200 3.290561 -6.099690
v -15.059731 -2.086231 6.477460
v -15.063776 -2.086232 -6.066350
v -4.282023 3.290561 6.466449
v -6.112000 3.290561 6.471957
v -9.690337 -2.067290 6.471957
v -6.112000 -2.067290 6.471957
v -9.690337 3.290561 6.471957
v -15.063003 3.290561 -6.066087
v -4.324686 -2.067290 -6.097831
v -4.284175 -2.036500 6.468263
v -15.057254 3.290561 6.482682
v 2.856485 -2.067290 -6.046269
v 6.428246 -2.067290 -6.046269
v 2.856485 6.853925 -6.046269
v 6.428246 6.853925 -6.046269
v 2.856485 3.344002 -6.046269
v 6.428246 3.344002 -6.046269
v 6.428246 3.344002 -13.209485
v 2.856485 3.344002 -13.209485
v 6.428246 -2.067290 -13.209485
v 2.856485 -2.067290 -13.209485
vt 0.000000 0.000000
vt 0.000000 0.000000
vt 0.000000 0.000000
vt 0.000000 0.000000
vt 0.000000 0.000000
vt 0.000000 0.000000
vt 0.000000 0.000000
vt 0.000000 0.000000
vt 0.000000 0.000000
vt 0.000000 0.000000
vt 0.000000 0.000000
vt 0.000000 0.000000
vt 0.000000 0.000000
vt 0.000000 0.000000
vt 0.000000 0.000000
vt 0.000000 0.000000
vt 0.000000 0.000000
vt 0.000000 0.000000
vt 0.000000 0.000000
vt 0.000000 0.000000
vt 0.000000 0.000000
vt 0.000000 0.000000
vt 0.000000 0.000000
vt 0.000000 0.000000
vt 0.000000 0.000000
vt 0.000000 0.000000
vt 0.000000 0.000000
vt 0.000000 0.000000
vt 0.000000 0.000000
vt 0.000000 0.000000
vt 0.000000 0.000000
vt 0.000000 0.000000
vt 0.000000 0.000000
vt 0.000000 0.000000
vt 0.000000 0.000000
vt 0.000000 0.000000
vt 0.000000 0.000000
vt 0.000000 0.000000
vt 0.000000 0.000000
vt 0.000000 0.000000
vt 0.000000 0.000000
vt 0.000000 0.000000
vt 0.000000 0.000000
vt 0.000000 0.000000
vt 0.000000 0.000000
vt 0.000000 0.000000
vt 0.000000 0.000000
vt 0.000000 0.000000
vt 0.000000 0.000000
vt 0.000000 0.000000
vt 0.000000 0.000000
vt 0.000000 0.000000
vt 0.000000 0.000000
vt 0.000000 0.000000
vt 0.000000 0.000000
vt 0.000000 0.000000
vt 0.000000 0.000000
vt 0.000000 0.000000
vt 0.000000 0.000000
vt 0.000000 0.000000
vt 0.000000 0.000000
vt 0.000000 0.000000
vt 0.000000 0.000000
vt 0.000000 0.000000
vt 0.000000 0.000000
vt 0.000000 0.000000
vt 0.000000 0.000000
vt 0.000000 0.000000
vt 0.000000 0.000000
vt 0.000000 0.000000
vt 0.000000 0.000000
vt 0.000000 0.000000
vt 0.000000 0.000000
vt 0.000000 0.000000
vt 0.000000 0.000000
vt 0.000000 0.000000
vt 0.000000 0.000000
vt 0.000000 0.000000
vt 0.000000 0.000000
vt 0.000000 0.000000
vt 0.000000 0.000000
vt 0.000000 0.000000
vt 0.000000 0.000000
vt 0.000000 0.000000
vt 0.000000 0.000000
vt 0.000000 0.000000
vt 0.000000 0.000000
vt 0.000000 0.000000
vt 0.000000 0.000000
vt 0.000000 0.000000
vt 0.000000 0.000000
vt 0.000000 0.000000
vt 0.000000 0.000000
vt 0.000000 0.000000
vt 0.000000 0.000000
vt 0.000000 0.000000
vt 0.000000 0.000000
vt 0.000000 0.000000
vt 0.000000 0.000000
vt 0.000000 0.000000
vt 0.000000 0.000000
vt 0.000000 0.000000
vt 0.000000 0.000000
vt 0.000000 0.000000
vt 0.000000 0.000000
vt 0.000000 0.000000
vt 0.000000 0.000000
vt 0.000000 0.000000
vt 0.000000 0.000000
vt 0.000000 0.000000
vt 0.000000 0.000000
vt 0.000000 0.000000
vt 0.000000 0.000000
vt 0.000000 0.000000
vt 0.000000 0.000000
vt 0.000000 0.000000
vt 0.000000 0.000000
vt 0.000000 0.000000
vt 0.000000 0.000000
vt 0.000000 0.000000
vt 0.000000 0.000000
vt 0.000000 0.000000
vt 0.000000 0.000000
vt 0.000000 0.000000
vt 0.000000 0.000000
vt 0.000000 0.000000
vt 0.000000 0.000000
vt 0.000000 0.000000
vt 0.000000 0.000000
vt 0.000000 0.000000
vt 0.000000 0.000000
vt 0.000000 0.000000
vt 0.000000 0.000000
vt 0.000000 0.000000
vt 0.000000 0.000000
vt 0.000000 0.000000
vt 0.000000 0.000000
vt 0.000000 0.000000
vt 0.000000 0.000000
vt 0.000000 0.000000
vt 0.000000 0.000000
vt 0.000000 0.000000
vt 0.000000 0.000000
vt 0.000000 0.000000
vt 0.000000 0.000000
vt 0.000000 0.000000
vt 0.000000 0.000000
vt 0.000000 0.000000
vt 0.000000 0.000000
vt 0.000000 0.000000
vt 0.000000 0.000000
vt 0.000000 0.000000
vt 0.000000 0.000000
vt 0.000000 0.000000
vt 0.000000 0.000000
vt 0.000000 0.000000
vt 0.000000 0.000000
vt 0.000000 0.000000
vt 0.000000 0.000000
vt 0.000000 0.000000
vt 0.000000 0.000000
vt 0.000000 0.000000
vt 0.000000 0.000000
vt 0.000000 0.000000
vt 0.000000 0.000000
vt 0.000000 0.000000
vt 0.000000 0.000000
vt 0.000000 0.000000
vt 0.000000 0.000000
vt 0.000000 0.000000
vt 0.000000 0.000000
vt 0.000000 0.000000
vt 0.000000 0.000000
vt 0.000000 0.000000
vt 0.000000 0.000000
vt 0.000000 0.000000
vt 0.000000 0.000000
vt 0.000000 0.000000
vt 0.000000 0.000000
vt 0.000000 0.000000
vt 0.000000 0.000000
vt 0.000000 0.000000
vt 0.000000 0.000000
vt 0.000000 0.000000
vt 0.000000 0.000000
vt 0.000000 0.000000
vt 0.000000 0.000000
vt 0.000000 0.000000
vt 0.000000 0.000000
vt 0.000000 0.000000
vt 0.000000 0.000000
vt 0.000000 0.000000
vt 0.000000 0.000000
vt 0.000000 0.000000
vt 0.000000 0.000000
vt 0.000000 0.000000
vt 0.000000 0.000000
vt 0.000000 0.000000
vt 0.000000 0.000000
vt 0.000000 0.000000
vt 0.000000 0.000000
vt 0.000000 0.000000
vt 0.000000 0.000000
vt 0.000000 0.000000
vt 0.000000 0.000000
vt 0.000000 0.000000
vt 0.000000 0.000000
vt 0.000000 0.000000
vt 0.000000 0.000000
vt 0.000000 0.000000
vt 0.000000 0.000000
vt 0.000000 0.000000
vt 0.000000 0.000000
vt 0.000000 0.000000
vt 0.000000 0.000000
vt 0.000000 0.000000
vt 0.000000 0.000000
vt 0.000000 0.000000
vt 0.000000 0.000000
vt 0.000000 0.000000
vt 0.000000 0.000000
vt 0.000000 0.000000
vt 0.000000 0.000000
vt 0.000000 0.000000
vt 0.000000 0.000000
vt 0.000000 0.000000
vt 0.000000 0.000000
vt 0.000000 0.000000
vt 0.000000 0.000000
vt 0.000000 0.000000
vt 0.000000 0.000000
vt 0.000000 0.000000
vt 0.000000 0.000000
vt 0.000000 0.000000
vt 0.000000 0.000000
vt 0.000000 0.000000
vt 0.000000 0.000000
vt 0.000000 0.000000
vt 0.000000 0.000000
vt 0.000000 0.000000
vn 1.000000 0.000000 0.000000
vn 1.000000 0.000000 0.000000
vn 1.000000 0.000000 0.000000
vn 1.000000 0.000000 0.000000
vn 1.000000 0.000000 0.000000
vn 1.000000 0.000000 0.000000
vn 1.000000 0.000000 0.000000
vn 1.000000 0.000000 0.000000
vn 1.000000 0.000000 0.000000
vn 0.000000 0.000000 -1.000000
vn 0.000000 0.000000 -1.000000
vn 0.000000 0.000000 -1.000000
vn 0.000000 0.000000 -1.000000
vn 0.000000 0.000000 -1.000000
vn 0.000000 0.000000 -1.000000
vn -1.000000 0.000000 0.000000
vn -1.000000 0.000000 0.000000
vn -1.000000 0.000000 0.000000
vn -1.000000 0.000000 0.000000
vn -1.000000 0.000000 0.000000
vn -1.000000 0.000000 0.000000
vn 0.000000 0.000000 1.000000
vn 0.000000 0.000000 1.000000
vn 0.000000 0.000000 1.000000
vn 0.000000 0.000000 1.000000
vn 0.000000 0.000000 1.000000
vn 0.000000 0.000000 1.000000
vn 0.000000 0.000000 1.000000
vn 0.000000 0.000000 1.000000
vn 0.000000 0.000000 1.000000
vn 0.000000 1.000000 0.000000
vn 0.000000 1.000000 0.000000
vn 0.000000 1.000000 0.000000
vn 0.000000 1.000000 0.000000
vn 0.000000 1.000000 0.000000
vn 0.000000 1.000000 0.000000
vn 0.000000 1.000000 0.000000
vn 0.000000 1.000000 0.000000
vn 0.000000 1.000000 0.000000
vn 0.000000 1.000000 0.000000
vn 0.000000 1.000000 0.000000
vn 0.000000 1.000000 0.000000
vn 0.000000 1.000000 0.000000
vn 0.000000 1.000000 0.000000
vn 0.000000 1.000000 0.000000
vn 0.000000 1.000000 0.000000
vn 0.000000 1.000000 0.000000
vn 0.447214 0.894427 0.000000
vn 0.000000 -1.000000 0.000000
vn 0.000000 -1.000000 0.000000
vn 0.000000 -1.000000 0.000000
vn 0.000000 -1.000000 0.000000
vn 0.000000 -1.000000 0.000000
vn 0.000000 -1.000000 0.000000
vn 0.000000 -1.000000 0.000000
vn 0.000000 -1.000000 0.000000
vn 0.000000 -1.000000 0.000000
vn 0.000000 -1.000000 0.000000
vn 0.000000 -1.000000 0.000000
vn 0.000000 -1.000000 0.000000
vn 0.000000 -1.000000 0.000000
vn 0.000000 -1.000000 0.000000
vn 0.000000 -1.000000 0.000000
vn 0.000000 -1.000000 0.000000
vn 0.000000 -1.000000 0.000000
vn 0.000000 -1.000000 0.000000
vn 1.000000 0.000000 0.000000
vn 1.000000 0.000000 0.000000
vn 1.000000 0.000000 0.000000
vn 1.000000 0.000000 0.000000
vn 1.000000 0.000000 0.000000
vn 1.000000 0.000000 0.000000
vn 1.000000 0.000000 0.000000
vn 1.000000 0.000000 0.000000
vn 1.000000 0.000000 0.000000
vn -0.001597 0.999999 -0.000290
vn -0.003194 0.999995 -0.000580
vn -0.003194 0.999995 -0.000580
vn -0.001597 0.999999 -0.000290
vn -0.003194 0.999995 -0.000580
vn -0.003194 0.999995 -0.000580
vn -0.001597 0.999999 -0.000290
vn -0.003194 0.999995 -0.000580
vn -0.003194 0.999995 -0.000580
vn -0.001597 0.999999 -0.000290
vn -0.003194 0.999995 -0.000580
vn -0.001597 0.999999 -0.000290
vn 1.000000 0.000000 0.000000
vn 1.000000 0.000000 0.000000
vn 1.000000 0.000000 0.000000
vn 1.000000 0.000000 0.000000
vn 1.000000 0.000000 0.000000
vn 1.000000 0.000000 0.000000
vn 0.000000 -1.000000 0.000000
vn 0.000000 -1.000000 0.000000
vn 0.000000 -1.000000 0.000000
vn 0.000000 -1.000000 0.000000
vn 0.000000 -1.000000 0.000000
vn 0.000000 -1.000000 0.000000
vn 0.000000 -1.000000 0.000000
vn 0.000000 -1.000000 0.000000
vn 0.000000 -1.000000 0.000000
vn 0.000000 -1.000000 0.000000
vn 0.000000 -1.000000 0.000000
vn 0.000000 -1.000000 0.000000
vn 0.000000 0.000000 1.000000
vn 0.000000 0.000000 1.000000
vn 0.000000 0.000000 1.000000
vn 0.000000 0.000000 1.000000
vn 0.000000 0.000000 1.000000
vn 0.000000 0.000000 1.000000
vn 0.000000 0.000000 -1.000000
vn 0.000000 0.000000 -1.000000
vn 0.000000 0.000000 -1.000000
vn 0.000000 0.000000 -1.000000
vn 0.000000 0.000000 -1.000000
vn 0.000000 0.000000 -1.000000
vn 0.000000 1.000000 0.000000
vn 0.000000 1.000000 0.000000
vn 0.000000 1.000000 0.000000
vn 0.000000 1.000000 0.000000
vn 0.000000 1.000000 0.000000
vn 0.000000 1.000000 0.000000
vn 0.000000 1.000000 0.000000
vn 0.000000 1.000000 0.000000
vn 0.000000 1.000000 0.000000
vn 0.000000 1.000000 0.000000
vn 0.000000 1.000000 0.000000
vn 0.000000 1.000000 0.000000
vn 0.000000 0.000000 1.000000
vn 0.000000 0.000000 1.000000
vn 0.000000 0.000000 1.000000
vn 0.000000 0.000000 1.000000
vn 0.000000 0.000000 1.000000
vn 0.000000 0.000000 1.000000
vn -0.002514 -0.000169 -0.999997
vn -0.002514 -0.000169 -0.999997
vn -0.002514 -0.000169 -0.999997
vn -0.002514 -0.000169 -0.999997
vn -0.002514 -0.000169 -0.999997
vn -0.002514 -0.000169 -0.999997
vn -0.001512 0.000487 -0.999999
vn -0.001512 0.000487 -0.999999
vn -0.001512 0.000487 -0.999999
vn -0.001512 0.000487 -0.999999
vn -0.001512 0.000487 -0.999999
vn -0.001512 0.000487 -0.999999
vn 0.000000 -1.000000 0.000000
vn 0.000000 -1.000000 0.000000
vn 0.000000 -1.000000 0.000000
vn 0.000000 -1.000000 0.000000
vn 0.000000 -1.000000 0.000000
vn 0.000000 -1.000000 0.000000
vn 0.000000 -1.000000 0.000000
vn 0.000000 -1.000000 0.000000
vn 0.000000 -1.000000 0.000000
vn 0.000000 -1.000000 0.000000
vn 0.000000 -1.000000 0.000000
vn 0.000000 -1.000000 0.000000
vn 0.000000 -1.000000 0.000000
vn 0.000000 -1.000000 0.000000
vn 0.000000 -1.000000 0.000000
vn 0.000000 -1.000000 0.000000
vn 0.000000 -1.000000 0.000000
vn 0.000000 -1.000000 0.000000
vn -0.001597 0.999999 -0.000290
vn 0.000000 1.000000 0.000000
vn 0.000000 1.000000 0.000000
vn -0.001597 0.999999 -0.000290
vn 0.000000 1.000000 0.000000
vn -0.001597 0.999999 -0.000290
vn -1.000000 0.000000 0.000000
vn -1.000000 0.000000 0.000000
vn -1.000000 0.000000 0.000000
vn -1.000000 0.000000 0.000000
vn -1.000000 0.000000 0.000000
vn -1.000000 0.000000 0.000000
vn 1.000000 0.000000 0.000000
vn 1.000000 0.000000 0.000000
vn 1.000000 0.000000 0.000000
vn 1.000000 0.000000 0.000000
vn 1.000000 0.000000 0.000000
vn 1.000000 0.000000 0.000000
vn 0.003030 0.000148 0.999995
vn 0.003030 0.000148 0.999995
vn 0.003030 0.000148 0.999995
vn 0.003030 0.000148 0.999995
vn 0.003030 0.000148 0.999995
vn 0.003030 0.000148 0.999995
vn 1.000000 -0.000302 -0.000390
vn 1.000000 -0.000302 -0.000390
vn 1.000000 -0.000302 -0.000390
vn 1.000000 -0.000302 -0.000390
vn 1.000000 -0.000302 -0.000390
vn 1.000000 -0.000302 -0.000390
vn -0.999995 0.000342 0.003250
vn -0.999995 0.000342 0.003250
vn -0.999995 0.000342 0.003250
vn -0.999995 0.000342 0.003250
vn -0.999995 0.000342 0.003250
vn -0.999995 0.000342 0.003250
vn 0.000000 0.000000 1.000000
vn 0.000000 0.000000 1.000000
vn 0.000000 0.000000 1.000000
vn 0.000000 0.000000 1.000000
vn 0.000000 0.000000 1.000000
vn 0.000000 0.000000 1.000000
vn 0.000000 0.000000 1.000000
vn 0.000000 0.000000 1.000000
vn 0.000000 0.000000 1.000000
vn 0.447214 0.894427 0.000000
vn 0.000000 1.000000 0.000000
vn 0.000000 1.000000 0.000000
vn 0.447214 0.894427 0.000000
vn 0.000000 1.000000 0.000000
vn 0.707107 0.707107 0.000000
vn 0.000000 0.000000 1.000000
vn 0.000000 0.000000 1.000000
vn 0.000000 0.000000 1.000000
vn 0.000000 0.000000 1.000000
vn 0.000000 0.000000 1.000000
vn 0.000000 0.000000 1.000000
vn -0.000000 -1.000000 0.000000
vn -0.000000 -1.000000 0.000000
vn -0.000000 -1.000000 0.000000
vn -0.000000 -1.000000 0.000000
vn -0.000000 -1.000000 0.000000
vn -0.000000 -1.000000 0.000000
vn -1.000000 0.000000 0.000000
vn -1.000000 0.000000 0.000000
vn -1.000000 0.000000 0.000000
vn -1.000000 0.000000 0.000000
vn -1.000000 0.000000 0.000000
vn -1.000000 0.000000 0.000000
vn 1.000000 0.000000 0.000000
vn 0.447214 0.894427 0.000000
vn 0.707107 0.707107 0.000000
vn 1.000000 0.000000 0.000000
vn 0.707107 0.707107 0.000000
vn 1.000000 0.000000 0.000000
f 13/1/1 12/2/2 4/3/3
f 13/4/4 4/5/5 2/6/6
f 13/7/7 2/8/8 11/9/9
f 4/10/10 8/11/11 6/12/12
f 4/13/13 6/14/14 2/15/15
f 8/16/16 7/17/17 5/18/18
f 8/19/19 5/20/20 6/21/21
f 37/22/22 3/23/23 1/24/24
f 37/25/25 1/26/26 35/27/27
f 37/28/28 35/29/29 39/30/30
f 1/31/31 10/32/32 11/33/33
f 1/34/34 11/35/35 2/36/36
f 1/37/37 2/38/38 6/39/39
f 1/40/40 6/41/41 5/42/42
f 1/43/43 5/44/44 36/45/45
f 1/46/46 36/47/47 35/48/48
f 7/49/49 8/50/50 4/51/51
f 7/52/52 4/53/53 12/54/54
f 7/55/55 12/56/56 9/57/57
f 7/58/58 9/59/59 3/60/60
f 7/61/61 3/62/62 37/63/63
f 7/64/64 37/65/65 38/66/66
f 14/67/67 10/68/68 1/69/69
f 14/70/70 1/71/71 3/72/72
f 14/73/73 3/74/74 9/75/75
f 29/76/76 33/77/77 32/78/78
f 29/79/79 32/80/80 25/81/81
f 29/82/82 25/83/83 24/84/84
f 29/85/85 24/86/86 28/87/87
f 14/88/88 9/89/89 12/90/90
f 14/91/91 12/92/92 13/93/93
f 14/94/94 13/95/95 16/96/96
f 14/97/97 16/98/98 15/99/99
f 14/100/100 15/101/101 21/102/102
f 14/103/103 21/104/104 22/105/105
f 21/106/106 15/107/107 17/108/108
f 21/109/109 17/110/110 20/111/111
f 13/112/112 11/113/113 18/114/114
f 13/115/115 18/116/116 16/117/117
f 11/118/118 10/119/119 19/120/120
f 11/121/121 19/122/122 20/123/123
f 11/124/124 20/125/125 17/126/126
f 11/127/127 17/128/128 18/129/129
f 19/130/130 10/131/131 14/132/132
f 19/133/133 14/134/134 22/135/135
f 33/136/136 29/137/137 27/138/138
f 33/139/139 27/140/140 26/141/141
f 34/142/142 30/143/143 28/144/144
f 34/145/145 28/146/146 24/147/147
f 30/148/148 34/149/149 31/150/150
f 30/151/151 31/152/152 23/153/153
f 30/154/154 23/155/155 26/156/156
f 30/157/157 26/158/158 27/159/159
f 27/160/160 22/161/161 21/162/162
f 27/163/163 21/164/164 30/165/165
f 28/166/166 20/167/167 19/168/168
f 28/169/169 19/170/170 29/171/171
f 29/172/172 19/173/173 22/174/174
f 29/175/175 22/176/176 27/177/177
f 30/178/178 21/179/179 20/180/180
f 30/181/181 20/182/182 28/183/183
f 31/184/184 25/185/185 32/186/186
f 31/187/187 32/188/188 23/189/189
f 24/190/190 25/191/191 31/192/192
f 24/193/193 31/194/194 34/195/195
f 26/196/196 23/197/197 32/198/198
f 26/199/199 32/200/200 33/201/201
f 36/202/202 5/203/203 7/204/204
f 36/205/205 7/206/206 38/207/207
f 36/208/208 38/209/209 40/210/210
f 35/211/211 36/212/212 43/213/213
f 35/214/214 43/215/215 44/216/216
f 40/217/217 38/218/218 37/219/219
f 40/220/220 37/221/221 39/222/222
f 40/223/223 39/224/224 42/225/225
f 40/226/226 42/227/227 41/228/228
f 36/229/229 40/230/230 41/231/231
f 36/232/232 41/233/233 43/234/234
f 39/235/235 35/236/236 44/237/237
f 39/238/238 44/239/239 42/240/240
