v 1.820463 -1.331411 1.074143
v 1.820463 -0.857086 2.812500
v 1.820463 -0.857086 5.000000
v 5.469972 -4.546530 0.455947
v 5.469972 -0.857086 2.812500
v 5.469972 -0.857086 5.000000
v 1.820463 0.226977 1.308359
v 1.820463 -1.009958 2.613830
v 1.934510 1.508439 -3.576099
v 5.355925 0.007139 2.812500
v 1.934510 -4.546530 0.455947
v 5.355925 -5.046045 -3.750000
v 1.820463 0.972611 -1.302585
v 1.934510 -5.046045 -3.750000
v 1.820463 -4.888134 -3.544922
v 1.820463 -4.388729 0.661026
v 1.934510 -4.719269 -4.440289
v 5.355925 -4.719269 -4.440289
v 5.355925 -4.546530 0.455947
v 1.820463 -4.524654 -4.413284
v 5.469972 -4.388729 0.661026
v 5.469972 -4.888134 -3.544922
v 5.469972 -4.524654 -4.413284
v 5.469972 -1.009958 2.613830
v 1.820463 -0.145839 2.613830
v 5.469972 -0.145839 2.613830
v 1.820463 1.319904 -3.602262
v 1.934510 -0.857086 2.812500
v 5.469972 1.319904 -3.602262
v 1.934510 0.007139 2.812500
v 5.355925 -0.857086 2.812500
v 5.355925 1.508439 -3.576099
v 1.874387 1.255980 -3.776728
v 1.874387 -4.415888 -4.563761
v 5.416048 -4.415888 -4.563761
v 5.416048 1.255980 -3.776728
v 5.305371 -4.604752 -4.589969
v 1.985064 -4.604752 -4.589969
v 5.305371 1.438941 -3.751339
v 1.985064 1.438941 -3.751339
v 1.934510 1.516181 -2.495641
v 1.820463 1.345426 -2.608057
v 5.355925 1.516181 -2.495641
v 5.469972 1.345426 -2.608057
v 4.500571 1.516181 -2.495641
v 4.500571 -0.857086 2.812500
v 2.789864 -0.857086 2.812500
v 2.789864 1.516181 -2.495641
v 4.500571 0.007139 2.812500
v 2.789864 0.007139 2.812500
v 2.732841 -0.857086 5.000000
v 4.557595 -0.857086 5.000000
v 2.971627 -0.857086 4.453125
v 4.318809 -0.857086 4.453125
v 4.317054 -0.080175 4.363403
v 2.999693 1.185516 3.017578
v 4.290742 1.185516 3.017578
v 2.973381 -0.080175 4.363403
v 4.500571 1.508439 -3.576099
v 2.789864 1.508439 -3.576099
v 2.276652 -0.857086 5.000000
v 2.362187 -0.857086 2.812500
v 2.362187 0.007139 2.812500
v 2.362187 1.516181 -2.495641
v 2.362187 1.508439 -3.576099
v 3.645218 1.438941 -3.751339
v 2.815141 1.438941 -3.751339
v 2.400102 1.438941 -3.751339
v 4.475295 1.438941 -3.751339
v 4.928248 1.508439 -3.576099
v 4.890333 1.438941 -3.751339
v 4.928248 1.516181 -2.495641
v 4.928248 -0.857086 2.812500
v 4.928248 0.007139 2.812500
v 5.013783 -0.857086 5.000000
v 3.645217 1.508439 -3.576099
v 3.645217 1.516181 -2.495641
v 2.997020 1.382689 2.646621
v 3.645218 -0.080175 4.363403
v 3.645218 -0.857086 4.453125
v 3.645218 -0.857086 5.000000
v 2.789864 0.761661 0.158430
v 2.789864 0.384399 1.485465
v 2.789864 1.138922 -1.168606
v 2.896783 1.447282 0.158430
v 2.843323 1.481732 -1.168606
v 2.950243 1.412833 1.485465
v 3.645217 1.447282 0.158430
v 3.645217 1.412833 1.485465
v 3.645217 1.481732 -1.168606
v 4.393652 1.447282 0.158430
v 4.447112 1.481732 -1.168605
v 4.340192 1.412833 1.485465
v 4.500571 0.761661 0.158430
v 4.500571 1.138922 -1.168606
v 4.500571 0.384399 1.485465
v 4.928248 0.761661 0.158430
v 4.928248 1.138922 -1.168606
v 4.928248 0.384399 1.485465
v 5.355925 0.761661 0.158430
v 5.355925 1.138922 -1.168606
v 5.355925 0.384399 1.485465
v 5.469972 0.599794 0.002887
v 5.469972 0.972611 -1.302585
v 5.469972 0.226977 1.308359
v 2.362187 0.761661 0.158430
v 2.362187 1.138922 -1.168606
v 2.362187 0.384399 1.485465
v 1.934510 0.761661 0.158430
v 1.934510 0.384399 1.485465
v 1.934510 1.138922 -1.168606
v 1.820463 0.599794 0.002887
v 3.645217 1.382689 2.646621
v 3.645217 1.185516 3.017578
v 4.293415 1.382689 2.646621
v 4.318809 -0.337688 4.453125
v 3.645218 -0.337688 4.453125
v 2.971627 -0.337688 4.453125
v 5.469972 -2.516986 -0.465545
v 5.469972 -1.331411 1.074143
v 5.469972 -3.702560 -2.005234
v 1.820463 -2.516986 -0.465545
v 1.820463 -3.702560 -2.005234
vt 0.000000 0.000000
vt 0.000000 0.000000
vt 0.000000 0.000000
vt 0.000000 0.000000
vt 0.000000 0.000000
vt 0.000000 0.000000
vt 0.000000 0.000000
vt 0.000000 0.000000
vt 0.000000 0.000000
vt 0.000000 0.000000
vt 0.000000 0.000000
vt 0.000000 0.000000
vt 0.000000 0.000000
vt 0.000000 0.000000
vt 0.000000 0.000000
vt 0.000000 0.000000
vt 0.000000 0.000000
vt 0.000000 0.000000
vt 0.000000 0.000000
vt 0.000000 0.000000
vt 0.000000 0.000000
vt 0.000000 0.000000
vt 0.000000 0.000000
vt 0.000000 0.000000
vt 0.000000 0.000000
vt 0.000000 0.000000
vt 0.000000 0.000000
vt 0.000000 0.000000
vt 0.000000 0.000000
vt 0.000000 0.000000
vt 0.000000 0.000000
vt 0.000000 0.000000
vt 0.000000 0.000000
vt 0.000000 0.000000
vt 0.000000 0.000000
vt 0.000000 0.000000
vt 0.000000 0.000000
vt 0.000000 0.000000
vt 0.000000 0.000000
vt 0.000000 0.000000
vt 0.000000 0.000000
vt 0.000000 0.000000
vt 0.000000 0.000000
vt 0.000000 0.000000
vt 0.000000 0.000000
vt 0.000000 0.000000
vt 0.000000 0.000000
vt 0.000000 0.000000
vt 0.000000 0.000000
vt 0.000000 0.000000
vt 0.000000 0.000000
vt 0.000000 0.000000
vt 0.000000 0.000000
vt 0.000000 0.000000
vt 0.000000 0.000000
vt 0.000000 0.000000
vt 0.000000 0.000000
vt 0.000000 0.000000
vt 0.000000 0.000000
vt 0.000000 0.000000
vt 0.000000 0.000000
vt 0.000000 0.000000
vt 0.000000 0.000000
vt 0.000000 0.000000
vt 0.000000 0.000000
vt 0.000000 0.000000
vt 0.000000 0.000000
vt 0.000000 0.000000
vt 0.000000 0.000000
vt 0.000000 0.000000
vt 0.000000 0.000000
vt 0.000000 0.000000
vt 0.000000 0.000000
vt 0.000000 0.000000
vt 0.000000 0.000000
vt 0.000000 0.000000
vt 0.000000 0.000000
vt 0.000000 0.000000
vt 0.000000 0.000000
vt 0.000000 0.000000
vt 0.000000 0.000000
vt 0.000000 0.000000
vt 0.000000 0.000000
vt 0.000000 0.000000
vt 0.000000 0.000000
vt 0.000000 0.000000
vt 0.000000 0.000000
vt 0.000000 0.000000
vt 0.000000 0.000000
vt 0.000000 0.000000
vt 0.000000 0.000000
vt 0.000000 0.000000
vt 0.000000 0.000000
vt 0.000000 0.000000
vt 0.000000 0.000000
vt 0.000000 0.000000
vt 0.000000 0.000000
vt 0.000000 0.000000
vt 0.000000 0.000000
vt 0.000000 0.000000
vt 0.000000 0.000000
vt 0.000000 0.000000
vt 0.000000 0.000000
vt 0.000000 0.000000
vt 0.000000 0.000000
vt 0.000000 0.000000
vt 0.000000 0.000000
vt 0.000000 0.000000
vt 0.000000 0.000000
vt 0.000000 0.000000
vt 0.000000 0.000000
vt 0.000000 0.000000
vt 0.000000 0.000000
vt 0.000000 0.000000
vt 0.000000 0.000000
vt 0.000000 0.000000
vt 0.000000 0.000000
vt 0.000000 0.000000
vt 0.000000 0.000000
vt 0.000000 0.000000
vt 0.000000 0.000000
vt 0.000000 0.000000
vt 0.000000 0.000000
vt 0.000000 0.000000
vt 0.000000 0.000000
vt 0.000000 0.000000
vt 0.000000 0.000000
vt 0.000000 0.000000
vt 0.000000 0.000000
vt 0.000000 0.000000
vt 0.000000 0.000000
vt 0.000000 0.000000
vt 0.000000 0.000000
vt 0.000000 0.000000
vt 0.000000 0.000000
vt 0.000000 0.000000
vt 0.000000 0.000000
vt 0.000000 0.000000
vt 0.000000 0.000000
vt 0.000000 0.000000
vt 0.000000 0.000000
vt 0.000000 0.000000
vt 0.000000 0.000000
vt 0.000000 0.000000
vt 0.000000 0.000000
vt 0.000000 0.000000
vt 0.000000 0.000000
vt 0.000000 0.000000
vt 0.000000 0.000000
vt 0.000000 0.000000
vt 0.000000 0.000000
vt 0.000000 0.000000
vt 0.000000 0.000000
vt 0.000000 0.000000
vt 0.000000 0.000000
vt 0.000000 0.000000
vt 0.000000 0.000000
vt 0.000000 0.000000
vt 0.000000 0.000000
vt 0.000000 0.000000
vt 0.000000 0.000000
vt 0.000000 0.000000
vt 0.000000 0.000000
vt 0.000000 0.000000
vt 0.000000 0.000000
vt 0.000000 0.000000
vt 0.000000 0.000000
vt 0.000000 0.000000
vt 0.000000 0.000000
vt 0.000000 0.000000
vt 0.000000 0.000000
vt 0.000000 0.000000
vt 0.000000 0.000000
vt 0.000000 0.000000
vt 0.000000 0.000000
vt 0.000000 0.000000
vt 0.000000 0.000000
vt 0.000000 0.000000
vt 0.000000 0.000000
vt 0.000000 0.000000
vt 0.000000 0.000000
vt 0.000000 0.000000
vt 0.000000 0.000000
vt 0.000000 0.000000
vt 0.000000 0.000000
vt 0.000000 0.000000
vt 0.000000 0.000000
vt 0.000000 0.000000
vt 0.000000 0.000000
vt 0.000000 0.000000
vt 0.000000 0.000000
vt 0.000000 0.000000
vt 0.000000 0.000000
vt 0.000000 0.000000
vt 0.000000 0.000000
vt 0.000000 0.000000
vt 0.000000 0.000000
vt 0.000000 0.000000
vt 0.000000 0.000000
vt 0.000000 0.000000
vt 0.000000 0.000000
vt 0.000000 0.000000
vt 0.000000 0.000000
vt 0.000000 0.000000
vt 0.000000 0.000000
vt 0.000000 0.000000
vt 0.000000 0.000000
vt 0.000000 0.000000
vt 0.000000 0.000000
vt 0.000000 0.000000
vt 0.000000 0.000000
vt 0.000000 0.000000
vt 0.000000 0.000000
vt 0.000000 0.000000
vt 0.000000 0.000000
vt 0.000000 0.000000
vt 0.000000 0.000000
vt 0.000000 0.000000
vt 0.000000 0.000000
vt 0.000000 0.000000
vt 0.000000 0.000000
vt 0.000000 0.000000
vt 0.000000 0.000000
vt 0.000000 0.000000
vt 0.000000 0.000000
vt 0.000000 0.000000
vt 0.000000 0.000000
vt 0.000000 0.000000
vt 0.000000 0.000000
vt 0.000000 0.000000
vt 0.000000 0.000000
vt 0.000000 0.000000
vt 0.000000 0.000000
vt 0.000000 0.000000
vt 0.000000 0.000000
vt 0.000000 0.000000
vt 0.000000 0.000000
vt 0.000000 0.000000
vt 0.000000 0.000000
vt 0.000000 0.000000
vt 0.000000 0.000000
vt 0.000000 0.000000
vt 0.000000 0.000000
vt 0.000000 0.000000
vt 0.000000 0.000000
vt 0.000000 0.000000
vt 0.000000 0.000000
vt 0.000000 0.000000
vt 0.000000 0.000000
vt 0.000000 0.000000
vt 0.000000 0.000000
vt 0.000000 0.000000
vt 0.000000 0.000000
vt 0.000000 0.000000
vt 0.000000 0.000000
vt 0.000000 0.000000
vt 0.000000 0.000000
vt 0.000000 0.000000
vt 0.000000 0.000000
vt 0.000000 0.000000
vt 0.000000 0.000000
vt 0.000000 0.000000
vt 0.000000 0.000000
vt 0.000000 0.000000
vt 0.000000 0.000000
vt 0.000000 0.000000
vt 0.000000 0.000000
vt 0.000000 0.000000
vt 0.000000 0.000000
vt 0.000000 0.000000
vt 0.000000 0.000000
vt 0.000000 0.000000
vt 0.000000 0.000000
vt 0.000000 0.000000
vt 0.000000 0.000000
vt 0.000000 0.000000
vt 0.000000 0.000000
vt 0.000000 0.000000
vt 0.000000 0.000000
vt 0.000000 0.000000
vt 0.000000 0.000000
vt 0.000000 0.000000
vt 0.000000 0.000000
vt 0.000000 0.000000
vt 0.000000 0.000000
vt 0.000000 0.000000
vt 0.000000 0.000000
vt 0.000000 0.000000
vt 0.000000 0.000000
vt 0.000000 0.000000
vt 0.000000 0.000000
vt 0.000000 0.000000
vt 0.000000 0.000000
vt 0.000000 0.000000
vt 0.000000 0.000000
vt 0.000000 0.000000
vt 0.000000 0.000000
vt 0.000000 0.000000
vt 0.000000 0.000000
vt 0.000000 0.000000
vt 0.000000 0.000000
vt 0.000000 0.000000
vt 0.000000 0.000000
vt 0.000000 0.000000
vt 0.000000 0.000000
vt 0.000000 0.000000
vt 0.000000 0.000000
vt 0.000000 0.000000
vt 0.000000 0.000000
vt 0.000000 0.000000
vt 0.000000 0.000000
vt 0.000000 0.000000
vt 0.000000 0.000000
vt 0.000000 0.000000
vt 0.000000 0.000000
vt 0.000000 0.000000
vt 0.000000 0.000000
vt 0.000000 0.000000
vt 0.000000 0.000000
vt 0.000000 0.000000
vt 0.000000 0.000000
vt 0.000000 0.000000
vt 0.000000 0.000000
vt 0.000000 0.000000
vt 0.000000 0.000000
vt 0.000000 0.000000
vt 0.000000 0.000000
vt 0.000000 0.000000
vt 0.000000 0.000000
vt 0.000000 0.000000
vt 0.000000 0.000000
vt 0.000000 0.000000
vt 0.000000 0.000000
vt 0.000000 0.000000
vt 0.000000 0.000000
vt 0.000000 0.000000
vt 0.000000 0.000000
vt 0.000000 0.000000
vt 0.000000 0.000000
vt 0.000000 0.000000
vt 0.000000 0.000000
vt 0.000000 0.000000
vt 0.000000 0.000000
vt 0.000000 0.000000
vt 0.000000 0.000000
vt 0.000000 0.000000
vt 0.000000 0.000000
vt 0.000000 0.000000
vt 0.000000 0.000000
vt 0.000000 0.000000
vt 0.000000 0.000000
vt 0.000000 0.000000
vt 0.000000 0.000000
vt 0.000000 0.000000
vt 0.000000 0.000000
vt 0.000000 0.000000
vt 0.000000 0.000000
vt 0.000000 0.000000
vt 0.000000 0.000000
vt 0.000000 0.000000
vt 0.000000 0.000000
vt 0.000000 0.000000
vt 0.000000 0.000000
vt 0.000000 0.000000
vt 0.000000 0.000000
vt 0.000000 0.000000
vt 0.000000 0.000000
vt 0.000000 0.000000
vt 0.000000 0.000000
vt 0.000000 0.000000
vt 0.000000 0.000000
vt 0.000000 0.000000
vt 0.000000 0.000000
vt 0.000000 0.000000
vt 0.000000 0.000000
vt 0.000000 0.000000
vt 0.000000 0.000000
vt 0.000000 0.000000
vt 0.000000 0.000000
vt 0.000000 0.000000
vt 0.000000 0.000000
vt 0.000000 0.000000
vt 0.000000 0.000000
vt 0.000000 0.000000
vt 0.000000 0.000000
vt 0.000000 0.000000
vt 0.000000 0.000000
vt 0.000000 0.000000
vt 0.000000 0.000000
vt 0.000000 0.000000
vt 0.000000 0.000000
vt 0.000000 0.000000
vt 0.000000 0.000000
vt 0.000000 0.000000
vt 0.000000 0.000000
vt 0.000000 0.000000
vt 0.000000 0.000000
vt 0.000000 0.000000
vt 0.000000 0.000000
vt 0.000000 0.000000
vt 0.000000 0.000000
vt 0.000000 0.000000
vt 0.000000 0.000000
vt 0.000000 0.000000
vt 0.000000 0.000000
vt 0.000000 0.000000
vt 0.000000 0.000000
vt 0.000000 0.000000
vt 0.000000 0.000000
vt 0.000000 0.000000
vt 0.000000 0.000000
vt 0.000000 0.000000
vt 0.000000 0.000000
vt 0.000000 0.000000
vt 0.000000 0.000000
vt 0.000000 0.000000
vt 0.000000 0.000000
vt 0.000000 0.000000
vt 0.000000 0.000000
vt 0.000000 0.000000
vt 0.000000 0.000000
vt 0.000000 0.000000
vt 0.000000 0.000000
vt 0.000000 0.000000
vt 0.000000 0.000000
vt 0.000000 0.000000
vt 0.000000 0.000000
vt 0.000000 0.000000
vt 0.000000 0.000000
vt 0.000000 0.000000
vt 0.000000 0.000000
vt 0.000000 0.000000
vt 0.000000 0.000000
vt 0.000000 0.000000
vt 0.000000 0.000000
vt 0.000000 0.000000
vt 0.000000 0.000000
vt 0.000000 0.000000
vt 0.000000 0.000000
vt 0.000000 0.000000
vt 0.000000 0.000000
vt 0.000000 0.000000
vt 0.000000 0.000000
vt 0.000000 0.000000
vt 0.000000 0.000000
vt 0.000000 0.000000
vt 0.000000 0.000000
vt 0.000000 0.000000
vt 0.000000 0.000000
vt 0.000000 0.000000
vt 0.000000 0.000000
vt 0.000000 0.000000
vt 0.000000 0.000000
vt 0.000000 0.000000
vt 0.000000 0.000000
vt 0.000000 0.000000
vt 0.000000 0.000000
vt 0.000000 0.000000
vt 0.000000 0.000000
vt 0.000000 0.000000
vt 0.000000 0.000000
vt 0.000000 0.000000
vt 0.000000 0.000000
vt 0.000000 0.000000
vt 0.000000 0.000000
vt 0.000000 0.000000
vt 0.000000 0.000000
vt 0.000000 0.000000
vt 0.000000 0.000000
vt 0.000000 0.000000
vt 0.000000 0.000000
vt 0.000000 0.000000
vt 0.000000 0.000000
vt 0.000000 0.000000
vt 0.000000 0.000000
vt 0.000000 0.000000
vt 0.000000 0.000000
vt 0.000000 0.000000
vt 0.000000 0.000000
vt 0.000000 0.000000
vt 0.000000 0.000000
vt 0.000000 0.000000
vt 0.000000 0.000000
vt 0.000000 0.000000
vt 0.000000 0.000000
vt 0.000000 0.000000
vt 0.000000 0.000000
vt 0.000000 0.000000
vt 0.000000 0.000000
vt 0.000000 0.000000
vt 0.000000 0.000000
vt 0.000000 0.000000
vt 0.000000 0.000000
vt 0.000000 0.000000
vt 0.000000 0.000000
vt 0.000000 0.000000
vt 0.000000 0.000000
vt 0.000000 0.000000
vt 0.000000 0.000000
vt 0.000000 0.000000
vt 0.000000 0.000000
vt 0.000000 0.000000
vt 0.000000 0.000000
vt 0.000000 0.000000
vt 0.000000 0.000000
vt 0.000000 0.000000
vt 0.000000 0.000000
vt 0.000000 0.000000
vt 0.000000 0.000000
vt 0.000000 0.000000
vt 0.000000 0.000000
vt 0.000000 0.000000
vt 0.000000 0.000000
vt 0.000000 0.000000
vt 0.000000 0.000000
vt 0.000000 0.000000
vt 0.000000 0.000000
vt 0.000000 0.000000
vt 0.000000 0.000000
vt 0.000000 0.000000
vt 0.000000 0.000000
vt 0.000000 0.000000
vt 0.000000 0.000000
vt 0.000000 0.000000
vt 0.000000 0.000000
vt 0.000000 0.000000
vt 0.000000 0.000000
vt 0.000000 0.000000
vt 0.000000 0.000000
vt 0.000000 0.000000
vt 0.000000 0.000000
vt 0.000000 0.000000
vt 0.000000 0.000000
vt 0.000000 0.000000
vt 0.000000 0.000000
vt 0.000000 0.000000
vt 0.000000 0.000000
vt 0.000000 0.000000
vt 0.000000 0.000000
vt 0.000000 0.000000
vt 0.000000 0.000000
vt 0.000000 0.000000
vt 0.000000 0.000000
vt 0.000000 0.000000
vt 0.000000 0.000000
vt 0.000000 0.000000
vt 0.000000 0.000000
vt 0.000000 0.000000
vt 0.000000 0.000000
vt 0.000000 0.000000
vt 0.000000 0.000000
vt 0.000000 0.000000
vt 0.000000 0.000000
vt 0.000000 0.000000
vt 0.000000 0.000000
vt 0.000000 0.000000
vt 0.000000 0.000000
vt 0.000000 0.000000
vt 0.000000 0.000000
vt 0.000000 0.000000
vt 0.000000 0.000000
vt 0.000000 0.000000
vt 0.000000 0.000000
vt 0.000000 0.000000
vt 0.000000 0.000000
vt 0.000000 0.000000
vt 0.000000 0.000000
vt 0.000000 0.000000
vt 0.000000 0.000000
vt 0.000000 0.000000
vt 0.000000 0.000000
vt 0.000000 0.000000
vt 0.000000 0.000000
vt 0.000000 0.000000
vt 0.000000 0.000000
vt 0.000000 0.000000
vt 0.000000 0.000000
vt 0.000000 0.000000
vt 0.000000 0.000000
vt 0.000000 0.000000
vt 0.000000 0.000000
vt 0.000000 0.000000
vt 0.000000 0.000000
vt 0.000000 0.000000
vt 0.000000 0.000000
vt 0.000000 0.000000
vt 0.000000 0.000000
vt 0.000000 0.000000
vt 0.000000 0.000000
vt 0.000000 0.000000
vt 0.000000 0.000000
vt 0.000000 0.000000
vt 0.000000 0.000000
vt 0.000000 0.000000
vt 0.000000 0.000000
vt 0.000000 0.000000
vt 0.000000 0.000000
vt 0.000000 0.000000
vt 0.000000 0.000000
vt 0.000000 0.000000
vt 0.000000 0.000000
vt 0.000000 0.000000
vt 0.000000 0.000000
vt 0.000000 0.000000
vt 0.000000 0.000000
vt 0.000000 0.000000
vt 0.000000 0.000000
vt 0.000000 0.000000
vt 0.000000 0.000000
vt 0.000000 0.000000
vt 0.000000 0.000000
vt 0.000000 0.000000
vt 0.000000 0.000000
vt 0.000000 0.000000
vt 0.000000 0.000000
vt 0.000000 0.000000
vt 0.000000 0.000000
vt 0.000000 0.000000
vt 0.000000 0.000000
vt 0.000000 0.000000
vt 0.000000 0.000000
vt 0.000000 0.000000
vt 0.000000 0.000000
vt 0.000000 0.000000
vt 0.000000 0.000000
vt 0.000000 0.000000
vt 0.000000 0.000000
vt 0.000000 0.000000
vt 0.000000 0.000000
vt 0.000000 0.000000
vt 0.000000 0.000000
vt 0.000000 0.000000
vt 0.000000 0.000000
vt 0.000000 0.000000
vt 0.000000 0.000000
vt 0.000000 0.000000
vt 0.000000 0.000000
vt 0.000000 0.000000
vt 0.000000 0.000000
vt 0.000000 0.000000
vt 0.000000 0.000000
vt 0.000000 0.000000
vt 0.000000 0.000000
vt 0.000000 0.000000
vt 0.000000 0.000000
vt 0.000000 0.000000
vt 0.000000 0.000000
vt 0.000000 0.000000
vt 0.000000 0.000000
vt 0.000000 0.000000
vt 0.000000 0.000000
vt 0.000000 0.000000
vt 0.000000 0.000000
vt 0.000000 0.000000
vt 0.000000 0.000000
vt 0.000000 0.000000
vt 0.000000 0.000000
vt 0.000000 0.000000
vt 0.000000 0.000000
vt 0.000000 0.000000
vt 0.000000 0.000000
vt 0.000000 0.000000
vt 0.000000 0.000000
vt 0.000000 0.000000
vt 0.000000 0.000000
vt 0.000000 0.000000
vt 0.000000 0.000000
vt 0.000000 0.000000
vt 0.000000 0.000000
vt 0.000000 0.000000
vt 0.000000 0.000000
vt 0.000000 0.000000
vt 0.000000 0.000000
vt 0.000000 0.000000
vt 0.000000 0.000000
vt 0.000000 0.000000
vt 0.000000 0.000000
vt 0.000000 0.000000
vt 0.000000 0.000000
vt 0.000000 0.000000
vt 0.000000 0.000000
vt 0.000000 0.000000
vt 0.000000 0.000000
vt 0.000000 0.000000
vn -1.000000 0.000000 0.000000
vn -1.000000 0.000000 0.000000
vn -0.966139 0.248146 0.070704
vn -1.000000 0.000000 0.000000
vn -0.966139 0.248146 0.070704
vn -0.965675 0.249811 0.071178
vn -1.000000 0.000000 0.000000
vn -1.000000 0.000000 0.000000
vn -0.966594 0.246501 0.070235
vn -1.000000 0.000000 0.000000
vn -0.966594 0.246501 0.070235
vn -0.966139 0.248146 0.070704
vn -0.965675 0.249811 0.071178
vn -0.963468 0.265709 0.033598
vn -0.973291 -0.228242 -0.024707
vn -0.965675 0.249811 0.071178
vn -0.973291 -0.228242 -0.024707
vn -1.000000 0.000000 0.000000
vn 1.000000 0.000000 -0.000000
vn 1.000000 0.000000 -0.000000
vn 0.966139 0.248146 0.070704
vn 1.000000 0.000000 -0.000000
vn 0.966139 0.248146 0.070704
vn 0.966594 0.246501 0.070235
vn 1.000000 0.000000 -0.000000
vn 1.000000 -0.000000 -0.000000
vn 0.965675 0.249811 0.071178
vn 1.000000 0.000000 -0.000000
vn 0.965675 0.249811 0.071178
vn 0.966139 0.248146 0.070704
vn 1.000000 -0.000000 -0.000000
vn 0.973291 -0.228242 -0.024707
vn 0.963468 0.265709 0.033598
vn 1.000000 -0.000000 -0.000000
vn 0.963468 0.265709 0.033598
vn 0.965675 0.249811 0.071178
vn -0.993919 0.000000 0.110115
vn -0.993919 0.000000 0.110115
vn -0.993410 0.016201 0.113464
vn 0.993919 0.000000 0.110115
vn 0.989795 0.103170 0.098298
vn 0.993410 0.016201 0.113464
vn -0.987328 0.100874 0.122509
vn -0.981818 0.156008 0.108143
vn -0.989795 0.103170 0.098298
vn 0.000000 0.544395 0.838829
vn 0.000000 0.544395 0.838829
vn 0.000000 0.812927 0.582366
vn 0.000000 0.544395 0.838829
vn 0.000000 0.812927 0.582366
vn 0.000000 0.812927 0.582366
vn 0.000000 0.544395 0.838829
vn 0.000000 0.544395 0.838829
vn 0.000000 0.812927 0.582366
vn 0.000000 0.544395 0.838829
vn 0.000000 0.812927 0.582366
vn 0.000000 0.812927 0.582366
vn 0.000000 1.000000 0.000000
vn 0.000000 0.946712 -0.322080
vn 0.000000 0.946712 -0.322080
vn 0.000000 1.000000 0.000000
vn 0.000000 0.946712 -0.322080
vn 0.000000 1.000000 0.000000
vn 0.000000 1.000000 0.000000
vn 0.000000 1.000000 0.000000
vn 0.000000 1.000000 0.000000
vn 0.000000 0.137444 -0.990510
vn 0.000000 0.137444 -0.990510
vn 0.000000 0.137444 -0.990510
vn 0.000000 0.137444 -0.990510
vn 0.000000 0.137444 -0.990510
vn 0.000000 0.137444 -0.990510
vn 0.000000 0.137444 -0.990510
vn 0.000000 0.137444 -0.990510
vn 0.000000 0.137444 -0.990510
vn 0.000000 0.137444 -0.990510
vn 0.000000 0.137444 -0.990510
vn 0.000000 0.137444 -0.990510
vn 0.000000 0.137444 -0.990510
vn 0.000000 0.137444 -0.990510
vn 0.000000 0.137444 -0.990510
vn 0.000000 0.137444 -0.990510
vn 0.000000 0.137444 -0.990510
vn 0.000000 0.137444 -0.990510
vn 0.000000 0.137444 -0.990510
vn 0.000000 0.137444 -0.990510
vn 0.000000 0.137444 -0.990510
vn 0.000000 0.137444 -0.990510
vn 0.000000 0.137444 -0.990510
vn 0.000000 0.137444 -0.990510
vn 0.000000 0.137444 -0.990510
vn 0.000000 0.137444 -0.990510
vn 0.000000 0.137444 -0.990510
vn 0.000000 0.137444 -0.990510
vn 0.000000 0.137444 -0.990510
vn 0.000000 0.137444 -0.990510
vn 0.000000 0.137444 -0.990510
vn 0.000000 0.137444 -0.990510
vn 0.000000 0.137444 -0.990510
vn 0.000000 0.990914 0.134498
vn 0.493240 0.862350 0.114306
vn 0.458577 0.857989 -0.231435
vn 0.000000 0.990914 0.134498
vn 0.458577 0.857989 -0.231435
vn 0.000000 0.981555 -0.191179
vn -0.476809 -0.870118 -0.124692
vn 0.476809 -0.870118 -0.124692
vn 0.417040 -0.902546 0.107185
vn -0.476809 -0.870118 -0.124692
vn 0.417040 -0.902546 0.107185
vn -0.417039 -0.902546 0.107185
vn 0.966594 0.246501 0.070235
vn 0.978289 0.124373 0.165777
vn 1.000000 0.000000 -0.000000
vn -0.493240 0.862351 0.114306
vn -0.458576 0.857989 -0.231436
vn -0.937196 0.289167 -0.195053
vn -0.493240 0.862351 0.114306
vn -0.937196 0.289167 -0.195053
vn -0.963468 0.265709 0.033598
vn -0.470241 -0.721136 -0.508759
vn 0.470242 -0.721136 -0.508759
vn 0.476809 -0.870118 -0.124692
vn -0.470241 -0.721136 -0.508759
vn 0.476809 -0.870118 -0.124692
vn -0.476809 -0.870118 -0.124692
vn -0.470241 -0.721136 -0.508759
vn -0.476809 -0.870118 -0.124692
vn -0.973291 -0.228242 -0.024707
vn -0.470241 -0.721136 -0.508759
vn -0.973291 -0.228242 -0.024707
vn -0.940649 -0.200920 -0.273516
vn -0.417039 -0.902546 0.107185
vn -0.937572 -0.345363 0.041012
vn -0.973291 -0.228242 -0.024707
vn -0.417039 -0.902546 0.107185
vn -0.973291 -0.228242 -0.024707
vn -0.476809 -0.870118 -0.124692
vn 0.987328 0.100874 0.122509
vn 0.989795 0.103170 0.098298
vn 0.981818 0.156008 0.108143
vn 0.000000 0.792534 -0.609828
vn 0.000000 0.792534 -0.609828
vn 0.000000 0.792534 -0.609828
vn 0.417040 -0.902546 0.107185
vn 0.476809 -0.870118 -0.124692
vn 0.973291 -0.228242 -0.024707
vn 0.417040 -0.902546 0.107185
vn 0.973291 -0.228242 -0.024707
vn 0.937573 -0.345363 0.041012
vn 0.470242 -0.721136 -0.508759
vn 0.940649 -0.200920 -0.273516
vn 0.973291 -0.228242 -0.024707
vn 0.470242 -0.721136 -0.508759
vn 0.973291 -0.228242 -0.024707
vn 0.476809 -0.870118 -0.124692
vn 0.963468 0.265709 0.033598
vn 0.937196 0.289167 -0.195053
vn 0.458577 0.857989 -0.231435
vn 0.963468 0.265709 0.033598
vn 0.458577 0.857989 -0.231435
vn 0.493240 0.862350 0.114306
vn -0.963468 0.265709 0.033598
vn -0.937196 0.289167 -0.195053
vn -0.940649 -0.200920 -0.273516
vn -0.963468 0.265709 0.033598
vn -0.940649 -0.200920 -0.273516
vn -0.973291 -0.228242 -0.024707
vn -0.978289 0.124373 0.165777
vn -1.000000 0.000000 0.000000
vn -1.000000 0.000000 0.000000
vn -0.978289 0.124373 0.165777
vn -1.000000 0.000000 0.000000
vn -1.000000 0.000000 0.000000
vn -0.978289 0.124373 0.165777
vn -1.000000 0.000000 0.000000
vn -0.973291 -0.228242 -0.024707
vn -0.978289 0.124373 0.165777
vn -0.973291 -0.228242 -0.024707
vn -0.937572 -0.345363 0.041012
vn -0.978289 0.124373 0.165777
vn -0.937572 -0.345363 0.041012
vn -0.966245 0.000000 0.257623
vn 0.000000 0.000000 1.000000
vn 0.000000 0.000000 1.000000
vn 0.000000 0.000000 1.000000
vn 0.000000 0.000000 1.000000
vn 0.000000 0.000000 1.000000
vn 0.000000 0.000000 1.000000
vn 0.966245 -0.000000 0.257624
vn 0.937573 -0.345363 0.041012
vn 0.973291 -0.228242 -0.024707
vn 0.966245 -0.000000 0.257624
vn 0.973291 -0.228242 -0.024707
vn 1.000000 -0.000000 -0.000000
vn 0.966245 -0.000000 0.257624
vn 1.000000 -0.000000 -0.000000
vn 1.000000 0.000000 -0.000000
vn 0.966245 -0.000000 0.257624
vn 1.000000 0.000000 -0.000000
vn 1.000000 0.000000 -0.000000
vn 0.966245 -0.000000 0.257624
vn 1.000000 0.000000 -0.000000
vn 0.978289 0.124373 0.165777
vn -0.978289 0.124373 0.165777
vn -0.966245 0.000000 0.257623
vn -0.867261 0.000000 0.497855
vn -0.978289 0.124373 0.165777
vn -0.867261 0.000000 0.497855
vn -0.909936 0.248901 0.331761
vn 0.909935 0.248901 0.331762
vn 0.867260 0.000000 0.497856
vn 0.966245 -0.000000 0.257624
vn 0.909935 0.248901 0.331762
vn 0.966245 -0.000000 0.257624
vn 0.978289 0.124373 0.165777
vn 0.000000 0.946712 -0.322080
vn 0.000000 0.792529 -0.609835
vn 0.000000 0.946712 -0.322080
vn 0.000000 0.792529 -0.609835
vn 0.000000 0.946712 -0.322080
vn 0.000000 0.946712 -0.322080
vn -0.937196 0.289167 -0.195053
vn -0.880367 0.287294 -0.377381
vn -0.882853 -0.168707 -0.438302
vn -0.937196 0.289167 -0.195053
vn -0.882853 -0.168707 -0.438302
vn -0.940649 -0.200920 -0.273516
vn 0.880367 0.287294 -0.377380
vn 0.937196 0.289167 -0.195053
vn 0.940649 -0.200920 -0.273516
vn 0.880367 0.287294 -0.377380
vn 0.940649 -0.200920 -0.273516
vn 0.882853 -0.168707 -0.438302
vn 0.420808 -0.646282 -0.636585
vn 0.882853 -0.168707 -0.438302
vn 0.940649 -0.200920 -0.273516
vn 0.420808 -0.646282 -0.636585
vn 0.940649 -0.200920 -0.273516
vn 0.470242 -0.721136 -0.508759
vn -0.882853 -0.168707 -0.438302
vn -0.420807 -0.646282 -0.636585
vn -0.470241 -0.721136 -0.508759
vn -0.882853 -0.168707 -0.438302
vn -0.470241 -0.721136 -0.508759
vn -0.940649 -0.200920 -0.273516
vn -0.420807 -0.646282 -0.636585
vn 0.420808 -0.646282 -0.636585
vn 0.470242 -0.721136 -0.508759
vn -0.420807 -0.646282 -0.636585
vn 0.470242 -0.721136 -0.508759
vn -0.470241 -0.721136 -0.508759
vn 0.880367 0.287294 -0.377380
vn 0.415267 0.798215 -0.436356
vn 0.458577 0.857989 -0.231435
vn 0.880367 0.287294 -0.377380
vn 0.458577 0.857989 -0.231435
vn 0.937196 0.289167 -0.195053
vn 0.000000 0.929567 -0.368654
vn -0.415266 0.798215 -0.436356
vn -0.458576 0.857989 -0.231436
vn 0.000000 0.929567 -0.368654
vn -0.458576 0.857989 -0.231436
vn 0.000000 0.981555 -0.191179
vn -0.415266 0.798215 -0.436356
vn -0.880367 0.287294 -0.377381
vn -0.937196 0.289167 -0.195053
vn -0.415266 0.798215 -0.436356
vn -0.937196 0.289167 -0.195053
vn -0.458576 0.857989 -0.231436
vn 0.937196 0.289167 -0.195053
vn 0.963468 0.265709 0.033598
vn 0.973291 -0.228242 -0.024707
vn 0.937196 0.289167 -0.195053
vn 0.973291 -0.228242 -0.024707
vn 0.940649 -0.200920 -0.273516
vn 0.868609 0.476533 0.135778
vn 0.909935 0.248901 0.331762
vn 0.978289 0.124373 0.165777
vn 0.868609 0.476533 0.135778
vn 0.978289 0.124373 0.165777
vn 0.966594 0.246501 0.070235
vn 0.000000 0.961885 0.273453
vn 0.000000 0.990914 0.134498
vn -0.493240 0.862351 0.114306
vn 0.000000 0.961885 0.273453
vn -0.493240 0.862351 0.114306
vn -0.499161 0.833436 0.237114
vn -0.966594 0.246501 0.070235
vn -0.978289 0.124373 0.165777
vn -0.909936 0.248901 0.331761
vn -0.966594 0.246501 0.070235
vn -0.909936 0.248901 0.331761
vn -0.868609 0.476533 0.135778
vn -1.000000 0.000000 0.000000
vn -0.978289 0.124373 0.165777
vn -0.966594 0.246501 0.070235
vn 0.000000 0.961885 0.273453
vn 0.000000 0.961886 0.273452
vn 0.000000 0.961886 0.273452
vn 0.000000 0.961885 0.273453
vn 0.000000 0.961886 0.273452
vn 0.000000 0.961886 0.273453
vn 0.000000 0.000000 1.000000
vn 0.000000 0.000000 1.000000
vn 0.000000 0.000000 1.000000
vn 0.000000 0.000000 1.000000
vn 0.000000 0.000000 1.000000
vn 0.000000 0.000000 1.000000
vn 0.000000 1.000000 0.000000
vn 0.000000 1.000000 0.000000
vn 0.000000 0.946712 -0.322080
vn 0.000000 1.000000 0.000000
vn 0.000000 0.946712 -0.322080
vn 0.000000 0.946712 -0.322080
vn 0.000000 1.000000 0.000000
vn 0.000000 0.946712 -0.322080
vn 0.000000 1.000000 0.000000
vn -0.987111 0.153935 0.043762
vn -0.987111 0.153935 0.043762
vn -0.987111 0.153935 0.043762
vn 0.989795 0.103170 0.098298
vn 0.985344 0.156558 0.067722
vn 0.981818 0.156008 0.108143
vn 0.989795 0.103170 0.098298
vn 0.987328 0.100874 0.122509
vn 0.993410 0.016201 0.113464
vn 0.000000 1.000000 0.000000
vn 0.000000 1.000000 0.000000
vn 0.000000 1.000000 0.000000
vn 0.000000 0.967093 0.254423
vn 0.000000 0.812927 0.582366
vn 0.000000 0.812927 0.582366
vn 0.000000 0.967093 0.254423
vn 0.000000 0.812927 0.582366
vn -0.000000 0.967093 0.254423
vn 0.000000 1.000000 0.000000
vn 0.000000 1.000000 0.000000
vn 0.000000 1.000000 0.000000
vn 0.000000 0.166848 0.985983
vn 0.000000 0.000000 1.000000
vn 0.000000 0.000000 1.000000
vn 0.000000 0.166848 0.985983
vn 0.000000 0.000000 1.000000
vn 0.000000 0.166848 0.985983
vn -0.989795 0.103170 0.098298
vn -0.993410 0.016201 0.113464
vn -0.987328 0.100874 0.122509
vn 0.000000 1.000000 0.000000
vn 0.000000 1.000000 0.000000
vn 0.000000 1.000000 0.000000
vn 0.000000 1.000000 0.000000
vn 0.000000 1.000000 0.000000
vn 0.000000 1.000000 0.000000
vn 0.000000 0.981555 -0.191179
vn -0.458576 0.857989 -0.231436
vn -0.493240 0.862351 0.114306
vn 0.000000 0.981555 -0.191179
vn -0.493240 0.862351 0.114306
vn 0.000000 0.990914 0.134498
vn -0.000000 0.999956 0.009394
vn -0.000000 0.997421 0.071775
vn 0.000000 0.981555 -0.191179
vn -0.000000 0.999956 0.009394
vn 0.000000 0.981555 -0.191179
vn 0.000000 0.981555 -0.191179
vn 0.000000 0.000000 1.000000
vn 0.000000 0.000000 1.000000
vn 0.000000 0.000000 1.000000
vn 0.000000 0.000000 1.000000
vn 0.000000 0.000000 1.000000
vn 0.000000 0.000000 1.000000
vn 0.000000 1.000000 0.000000
vn 0.000000 1.000000 0.000000
vn 0.000000 1.000000 0.000000
vn 0.000000 1.000000 0.000000
vn 0.000000 1.000000 0.000000
vn 0.000000 1.000000 0.000000
vn 0.000000 0.961885 0.273453
vn 0.000000 0.990914 0.134498
vn -0.000000 0.997421 0.071775
vn 0.000000 0.961885 0.273453
vn -0.000000 0.997421 0.071775
vn 0.000000 0.961886 0.273453
vn 0.000000 0.981555 -0.191179
vn 0.000000 0.981555 -0.191179
vn -0.000000 0.997421 0.071775
vn 0.000000 0.981555 -0.191179
vn -0.000000 0.997421 0.071775
vn 0.000000 0.990914 0.134498
vn 0.000000 0.981555 -0.191179
vn 0.458577 0.857989 -0.231435
vn 0.415267 0.798215 -0.436356
vn 0.000000 0.981555 -0.191179
vn 0.415267 0.798215 -0.436356
vn 0.000000 0.929567 -0.368654
vn 0.000000 0.981555 -0.191179
vn 0.000000 0.981555 -0.191179
vn 0.000000 0.929567 -0.368654
vn 0.000000 0.981555 -0.191179
vn 0.000000 0.929567 -0.368654
vn 0.000000 0.929567 -0.368654
vn 0.000000 0.981555 -0.191179
vn 0.000000 0.981555 -0.191179
vn 0.000000 0.929567 -0.368654
vn 0.000000 0.981555 -0.191179
vn 0.000000 0.929567 -0.368654
vn 0.000000 0.929567 -0.368654
vn 0.000000 0.981555 -0.191179
vn 0.000000 0.981555 -0.191179
vn 0.000000 0.929567 -0.368654
vn 0.000000 0.981555 -0.191179
vn 0.000000 0.929567 -0.368654
vn 0.000000 0.929567 -0.368654
vn 0.000000 0.990914 0.134498
vn 0.000000 0.997421 0.071775
vn 0.000000 0.981555 -0.191179
vn 0.000000 0.990914 0.134498
vn 0.000000 0.981555 -0.191179
vn 0.000000 0.981555 -0.191179
vn 0.000000 0.961885 0.273453
vn 0.000000 0.961886 0.273452
vn 0.000000 0.961886 0.273452
vn 0.000000 0.961885 0.273453
vn 0.000000 0.961886 0.273452
vn 0.000000 0.961886 0.273453
vn 0.000000 0.000000 1.000000
vn 0.000000 0.000000 1.000000
vn 0.000000 0.000000 1.000000
vn 0.000000 0.000000 1.000000
vn 0.000000 0.000000 1.000000
vn 0.000000 0.000000 1.000000
vn 0.000000 1.000000 0.000000
vn 0.000000 1.000000 0.000000
vn 0.000000 1.000000 0.000000
vn 0.000000 1.000000 0.000000
vn 0.000000 1.000000 0.000000
vn 0.000000 1.000000 0.000000
vn 0.000000 1.000000 0.000000
vn 0.000000 1.000000 0.000000
vn 0.000000 1.000000 0.000000
vn 0.000000 1.000000 0.000000
vn 0.000000 1.000000 0.000000
vn 0.000000 1.000000 0.000000
vn 0.000000 0.166848 0.985983
vn 0.000000 0.544395 0.838829
vn 0.000000 0.544395 0.838829
vn 0.000000 0.166848 0.985983
vn 0.000000 0.544395 0.838829
vn 0.000000 0.166848 0.985983
vn -0.000000 0.999663 0.025951
vn -0.000000 0.999956 0.009394
vn 0.000000 0.997421 0.071775
vn -0.000000 0.999663 0.025951
vn 0.000000 0.997421 0.071775
vn 0.000000 0.999663 0.025951
vn 0.000000 0.981555 -0.191179
vn 0.000000 0.981555 -0.191179
vn 0.000000 0.997421 0.071775
vn 0.000000 0.981555 -0.191179
vn 0.000000 0.997421 0.071775
vn -0.000000 0.999956 0.009394
vn 0.000000 0.929567 -0.368654
vn 0.000000 0.929567 -0.368654
vn 0.000000 0.981555 -0.191179
vn 0.000000 0.929567 -0.368654
vn 0.000000 0.981555 -0.191179
vn 0.000000 0.981555 -0.191179
vn 0.965675 0.249811 0.071178
vn 0.963468 0.265709 0.033598
vn 0.493240 0.862350 0.114306
vn 0.965675 0.249811 0.071178
vn 0.493240 0.862350 0.114306
vn 0.499162 0.833435 0.237114
vn 0.499162 0.833435 0.237114
vn 0.493240 0.862350 0.114306
vn 0.000000 0.990914 0.134498
vn 0.499162 0.833435 0.237114
vn 0.000000 0.990914 0.134498
vn 0.000000 0.961885 0.273453
vn 0.000000 0.961886 0.273453
vn 0.000000 0.961886 0.273452
vn 0.000000 0.961886 0.273452
vn 0.000000 0.961886 0.273453
vn 0.000000 0.961886 0.273452
vn 0.000000 0.961885 0.273453
vn 0.987111 0.153935 0.043762
vn 0.987111 0.153935 0.043762
vn 0.987111 0.153935 0.043762
vn -0.000000 0.999663 0.025951
vn -0.000000 0.997421 0.071775
vn -0.000000 0.999956 0.009394
vn -0.000000 0.999663 0.025951
vn -0.000000 0.999956 0.009394
vn -0.000000 0.999663 0.025951
vn -0.981818 0.156008 0.108143
vn -0.985344 0.156558 0.067722
vn -0.989795 0.103170 0.098298
vn -0.499161 0.833436 0.237114
vn -0.493240 0.862351 0.114306
vn -0.963468 0.265709 0.033598
vn -0.499161 0.833436 0.237114
vn -0.963468 0.265709 0.033598
vn -0.965675 0.249811 0.071178
vn 0.000000 0.961886 0.273453
vn 0.000000 0.961886 0.273452
vn 0.000000 0.961886 0.273452
vn 0.000000 0.961886 0.273453
vn 0.000000 0.961886 0.273452
vn 0.000000 0.961885 0.273453
vn 0.000000 0.961886 0.273453
vn 0.000000 0.997421 0.071775
vn 0.000000 0.990914 0.134498
vn 0.000000 0.961886 0.273453
vn 0.000000 0.990914 0.134498
vn 0.000000 0.961885 0.273453
vn -0.500714 0.832574 0.236868
vn -0.499161 0.833436 0.237114
vn -0.965675 0.249811 0.071178
vn -0.500714 0.832574 0.236868
vn -0.965675 0.249811 0.071178
vn -0.966139 0.248146 0.070704
vn 0.000000 0.961885 0.273453
vn 0.000000 0.961885 0.273453
vn -0.499161 0.833436 0.237114
vn 0.000000 0.961885 0.273453
vn -0.499161 0.833436 0.237114
vn -0.500714 0.832574 0.236868
vn 0.000000 0.961885 0.273453
vn 0.000000 0.961886 0.273453
vn 0.000000 0.961885 0.273453
vn 0.000000 0.961885 0.273453
vn 0.000000 0.961885 0.273453
vn 0.000000 0.961885 0.273453
vn -0.987111 0.153935 0.043762
vn -0.987111 0.153935 0.043762
vn -0.987111 0.153935 0.043762
vn -0.987111 0.153935 0.043762
vn -0.987111 0.153935 0.043762
vn -0.987111 0.153935 0.043762
vn -0.000000 0.999663 0.025951
vn -0.000000 0.999663 0.025951
vn 0.000000 0.999663 0.025951
vn -0.000000 0.999663 0.025951
vn 0.000000 0.999663 0.025951
vn 0.000000 0.999663 0.025951
vn -0.000000 0.999663 0.025951
vn -0.000000 0.999663 0.025951
vn -0.000000 0.999663 0.025951
vn -0.000000 0.999663 0.025951
vn -0.000000 0.999663 0.025951
vn -0.000000 0.999663 0.025951
vn 0.987111 0.153935 0.043762
vn 0.987111 0.153935 0.043762
vn 0.987111 0.153935 0.043762
vn 0.987111 0.153935 0.043762
vn 0.987111 0.153935 0.043762
vn 0.987111 0.153935 0.043762
vn 0.000000 0.961885 0.273453
vn 0.000000 0.961885 0.273453
vn 0.000000 0.961886 0.273453
vn 0.000000 0.961885 0.273453
vn 0.000000 0.961886 0.273453
vn 0.000000 0.961885 0.273453
vn 0.500714 0.832574 0.236868
vn 0.499162 0.833435 0.237114
vn 0.000000 0.961885 0.273453
vn 0.500714 0.832574 0.236868
vn 0.000000 0.961885 0.273453
vn 0.000000 0.961885 0.273453
vn 0.966139 0.248146 0.070704
vn 0.965675 0.249811 0.071178
vn 0.499162 0.833435 0.237114
vn 0.966139 0.248146 0.070704
vn 0.499162 0.833435 0.237114
vn 0.500714 0.832574 0.236868
vn 0.966594 0.246501 0.070235
vn 0.966139 0.248146 0.070704
vn 0.500714 0.832574 0.236868
vn 0.966594 0.246501 0.070235
vn 0.500714 0.832574 0.236868
vn 0.868609 0.476533 0.135778
vn 0.000000 0.961886 0.273453
vn 0.500714 0.832574 0.236868
vn 0.000000 0.961885 0.273453
vn 0.000000 0.961886 0.273453
vn 0.000000 0.961885 0.273453
vn 0.000000 0.961885 0.273453
vn 0.987111 0.153935 0.043762
vn 0.987111 0.153935 0.043762
vn 0.987111 0.153935 0.043762
vn 0.987111 0.153935 0.043762
vn 0.987111 0.153935 0.043762
vn 0.987111 0.153935 0.043762
vn 0.000000 0.961885 0.273453
vn 0.000000 0.961885 0.273453
vn 0.000000 0.961885 0.273453
vn 0.000000 0.961885 0.273453
vn 0.000000 0.961885 0.273453
vn 0.000000 0.961886 0.273453
vn -0.000000 0.999663 0.025951
vn -0.000000 0.999663 0.025951
vn -0.000000 0.999663 0.025951
vn -0.000000 0.999663 0.025951
vn -0.000000 0.999663 0.025951
vn -0.000000 0.999663 0.025951
vn -0.000000 0.999663 0.025951
vn -0.000000 0.999663 0.025951
vn 0.000000 0.999663 0.025951
vn -0.000000 0.999663 0.025951
vn 0.000000 0.999663 0.025951
vn 0.000000 0.999663 0.025951
vn -0.987111 0.153935 0.043762
vn -0.987111 0.153935 0.043762
vn -0.987111 0.153935 0.043762
vn -0.987111 0.153935 0.043762
vn -0.987111 0.153935 0.043762
vn -0.987111 0.153935 0.043762
vn 0.000000 0.961886 0.273453
vn 0.000000 0.961885 0.273453
vn 0.000000 0.961885 0.273453
vn 0.000000 0.961886 0.273453
vn 0.000000 0.961885 0.273453
vn 0.000000 0.961885 0.273453
vn -0.868609 0.476533 0.135778
vn -0.500714 0.832574 0.236868
vn -0.966139 0.248146 0.070704
vn -0.868609 0.476533 0.135778
vn -0.966139 0.248146 0.070704
vn -0.966594 0.246501 0.070235
vn 0.000000 0.961885 0.273453
vn 0.000000 0.961885 0.273453
vn -0.500714 0.832574 0.236868
vn 0.000000 0.961885 0.273453
vn -0.500714 0.832574 0.236868
vn 0.000000 0.961886 0.273453
vn -0.000000 0.967093 0.254423
vn 0.000000 0.812927 0.582366
vn 0.000000 0.812927 0.582366
vn -0.000000 0.967093 0.254423
vn 0.000000 0.812927 0.582366
vn -0.000000 0.967093 0.254423
vn 0.000000 0.166848 0.985983
vn 0.000000 0.544395 0.838829
vn 0.000000 0.544395 0.838829
vn 0.000000 0.166848 0.985983
vn 0.000000 0.544395 0.838829
vn 0.000000 0.166848 0.985983
vn -0.000000 0.967093 0.254423
vn -0.000000 0.999663 0.025951
vn -0.000000 0.999663 0.025951
vn -0.000000 0.967093 0.254423
vn -0.000000 0.999663 0.025951
vn -0.000000 0.967093 0.254423
vn -0.000000 0.967093 0.254423
vn -0.000000 0.999663 0.025951
vn 0.000000 0.999663 0.025951
vn -0.000000 0.967093 0.254423
vn 0.000000 0.999663 0.025951
vn 0.000000 0.967093 0.254423
vn 0.989795 0.103170 0.098298
vn 0.987111 0.153935 0.043762
vn 0.987111 0.153935 0.043762
vn 0.989795 0.103170 0.098298
vn 0.987111 0.153935 0.043762
vn 0.985344 0.156558 0.067722
vn -0.985344 0.156558 0.067722
vn -0.987111 0.153935 0.043762
vn -0.987111 0.153935 0.043762
vn -0.985344 0.156558 0.067722
vn -0.987111 0.153935 0.043762
vn -0.989795 0.103170 0.098298
vn 0.993410 0.016201 0.113464
vn 0.993919 0.000000 0.110115
vn 0.993919 0.000000 0.110115
vn 0.000000 0.166848 0.985983
vn 0.000000 0.166848 0.985983
vn 0.000000 0.000000 1.000000
vn 0.000000 0.166848 0.985983
vn 0.000000 0.000000 1.000000
vn 0.000000 0.000000 1.000000
vn -0.993410 0.016201 0.113464
vn -0.989795 0.103170 0.098298
vn -0.993919 0.000000 0.110115
f 123/1/1 122/2/2 112/3/3
f 123/4/4 112/5/5 13/6/6
f 122/7/7 1/8/8 7/9/9
f 122/10/10 7/11/11 112/12/12
f 13/13/13 42/14/14 15/15/15
f 13/16/16 15/17/17 123/18/18
f 120/19/19 119/20/20 103/21/21
f 120/22/22 103/23/23 105/24/24
f 119/25/25 121/26/26 104/27/27
f 119/28/28 104/29/29 103/30/30
f 121/31/31 22/32/32 44/33/33
f 121/34/34 44/35/35 104/36/36
f 47/37/37 53/38/38 118/39/39
f 46/40/40 49/41/41 116/42/42
f 58/43/43 56/44/44 50/45/45
f 58/46/46 79/47/47 114/48/48
f 58/49/49 114/50/50 56/51/51
f 79/52/52 55/53/53 57/54/54
f 79/55/55 57/56/56 114/57/57
f 62/58/58 28/59/59 2/60/60
f 62/61/61 2/62/62 3/63/63
f 62/64/64 3/65/65 61/66/66
f 34/67/67 33/68/68 40/69/69
f 34/70/70 40/71/71 68/72/72
f 34/73/73 68/74/74 67/75/75
f 34/76/76 67/77/77 66/78/78
f 34/79/79 66/80/80 69/81/81
f 34/82/82 69/83/83 71/84/84
f 34/85/85 71/86/86 39/87/87
f 34/88/88 39/89/89 36/90/90
f 34/91/91 36/92/92 35/93/93
f 34/94/94 35/95/95 37/96/96
f 34/97/97 37/98/98 38/99/99
f 72/100/100 43/101/101 32/102/102
f 72/103/103 32/104/104 70/105/105
f 14/106/106 12/107/107 19/108/108
f 14/109/109 19/110/110 11/111/111
f 105/112/112 26/113/113 120/114/114
f 41/115/115 9/116/116 27/117/117
f 41/118/118 27/119/119 42/120/120
f 17/121/121 18/122/122 12/123/123
f 17/124/124 12/125/125 14/126/126
f 17/127/127 14/128/128 15/129/129
f 17/130/130 15/131/131 20/132/132
f 11/133/133 16/134/134 15/135/135
f 11/136/136 15/137/137 14/138/138
f 55/139/139 49/140/140 57/141/141
f 21/142/142 4/143/143 19/144/144
f 19/145/145 12/146/146 22/147/147
f 19/148/148 22/149/149 21/150/150
f 18/151/151 23/152/152 22/153/153
f 18/154/154 22/155/155 12/156/156
f 44/157/157 29/158/158 32/159/159
f 44/160/160 32/161/161 43/162/162
f 42/163/163 27/164/164 20/165/165
f 42/166/166 20/167/167 15/168/168
f 25/169/169 1/170/170 122/171/171
f 25/172/172 122/173/173 123/174/174
f 25/175/175 123/176/176 15/177/177
f 25/178/178 15/179/179 16/180/180
f 25/181/181 16/182/182 8/183/183
f 63/184/184 30/185/185 28/186/186
f 63/187/187 28/188/188 62/189/189
f 24/190/190 21/191/191 22/192/192
f 24/193/193 22/194/194 121/195/195
f 24/196/196 121/197/197 119/198/198
f 24/199/199 119/200/200 120/201/201
f 24/202/202 120/203/203 26/204/204
f 25/205/205 8/206/206 28/207/207
f 25/208/208 28/209/209 30/210/210
f 10/211/211 31/212/212 24/213/213
f 10/214/214 24/215/215 26/216/216
f 5/217/217 24/218/218 31/219/219
f 8/220/220 2/221/221 28/222/222
f 27/223/223 33/224/224 34/225/225
f 27/226/226 34/227/227 20/228/228
f 36/229/229 29/230/230 23/231/231
f 36/232/232 23/233/233 35/234/234
f 37/235/235 35/236/236 23/237/237
f 37/238/238 23/239/239 18/240/240
f 34/241/241 38/242/242 17/243/243
f 34/244/244 17/245/245 20/246/246
f 38/247/247 37/248/248 18/249/249
f 38/250/250 18/251/251 17/252/252
f 36/253/253 39/254/254 32/255/255
f 36/256/256 32/257/257 29/258/258
f 68/259/259 40/260/260 9/261/261
f 68/262/262 9/263/263 65/264/264
f 40/265/265 33/266/266 27/267/267
f 40/268/268 27/269/269 9/270/270
f 29/271/271 44/272/272 22/273/273
f 29/274/274 22/275/275 23/276/276
f 102/277/277 10/278/278 26/279/279
f 102/280/280 26/281/281 105/282/282
f 107/283/283 64/284/284 41/285/285
f 107/286/286 41/287/287 111/288/288
f 7/289/289 25/290/290 30/291/291
f 7/292/292 30/293/293 110/294/294
f 1/295/295 25/296/296 7/297/297
f 99/298/298 74/299/299 10/300/300
f 99/301/301 10/302/302 102/303/303
f 73/304/304 31/305/305 10/306/306
f 73/307/307 10/308/308 74/309/309
f 75/310/310 6/311/311 5/312/312
f 75/313/313 5/314/314 31/315/315
f 75/316/316 31/317/317 73/318/318
f 86/319/319 48/320/320 84/321/321
f 49/322/322 115/323/323 57/324/324
f 49/325/325 55/326/326 116/327/327
f 53/328/328 47/329/329 51/330/330
f 78/331/331 56/332/332 114/333/333
f 78/334/334 114/335/335 113/336/336
f 52/337/337 46/338/338 54/339/339
f 117/340/340 80/341/341 54/342/342
f 117/343/343 54/344/344 116/345/345
f 50/346/346 118/347/347 58/348/348
f 81/349/349 52/350/350 54/351/351
f 81/352/352 54/353/353 80/354/354
f 65/355/355 9/356/356 41/357/357
f 65/358/358 41/359/359 64/360/360
f 77/361/361 45/362/362 59/363/363
f 77/364/364 59/365/365 76/366/366
f 74/367/367 49/368/368 46/369/369
f 74/370/370 46/371/371 73/372/372
f 73/373/373 46/374/374 52/375/375
f 73/376/376 52/377/377 75/378/378
f 98/379/379 72/380/380 45/381/381
f 98/382/382 45/383/383 95/384/384
f 70/385/385 59/386/386 45/387/387
f 70/388/388 45/389/389 72/390/390
f 70/391/391 32/392/392 39/393/393
f 70/394/394 39/395/395 71/396/396
f 59/397/397 70/398/398 71/399/399
f 59/400/400 71/401/401 69/402/402
f 76/403/403 59/404/404 69/405/405
f 76/406/406 69/407/407 66/408/408
f 65/409/409 60/410/410 67/411/411
f 65/412/412 67/413/413 68/414/414
f 64/415/415 48/416/416 60/417/417
f 64/418/418 60/419/419 65/420/420
f 108/421/421 63/422/422 50/423/423
f 108/424/424 50/425/425 83/426/426
f 62/427/427 47/428/428 50/429/429
f 62/430/430 50/431/431 63/432/432
f 61/433/433 51/434/434 47/435/435
f 61/436/436 47/437/437 62/438/438
f 80/439/439 53/440/440 51/441/441
f 80/442/442 51/443/443 81/444/444
f 116/445/445 55/446/446 79/447/447
f 116/448/448 79/449/449 117/450/450
f 90/451/451 77/452/452 48/453/453
f 90/454/454 48/455/455 86/456/456
f 76/457/457 60/458/458 48/459/459
f 76/460/460 48/461/461 77/462/462
f 66/463/463 67/464/464 60/465/465
f 66/466/466 60/467/467 76/468/468
f 104/469/469 44/470/470 43/471/471
f 104/472/472 43/473/473 101/474/474
f 101/475/475 43/476/476 72/477/477
f 101/478/478 72/479/479 98/480/480
f 96/481/481 49/482/482 74/483/483
f 96/484/484 74/485/485 99/486/486
f 95/487/487 45/488/488 92/489/489
f 92/490/490 45/491/491 77/492/492
f 92/493/493 77/494/494 90/495/495
f 56/496/496 78/497/497 50/498/498
f 111/499/499 41/500/500 42/501/501
f 111/502/502 42/503/503 13/504/504
f 110/505/505 30/506/506 63/507/507
f 110/508/508 63/509/509 108/510/510
f 84/511/511 48/512/512 64/513/513
f 84/514/514 64/515/515 107/516/516
f 109/517/517 111/518/518 13/519/519
f 109/520/520 13/521/521 112/522/522
f 106/523/523 107/524/524 111/525/525
f 106/526/526 111/527/527 109/528/528
f 82/529/529 84/530/530 107/531/531
f 82/532/532 107/533/533 106/534/534
f 85/535/535 86/536/536 84/537/537
f 85/538/538 84/539/539 82/540/540
f 88/541/541 90/542/542 86/543/543
f 88/544/544 86/545/545 85/546/546
f 91/547/547 92/548/548 90/549/549
f 91/550/550 90/551/551 88/552/552
f 94/553/553 95/554/554 92/555/555
f 94/556/556 92/557/557 91/558/558
f 97/559/559 98/560/560 95/561/561
f 97/562/562 95/563/563 94/564/564
f 100/565/565 101/566/566 98/567/567
f 100/568/568 98/569/569 97/570/570
f 103/571/571 104/572/572 101/573/573
f 103/574/574 101/575/575 100/576/576
f 105/577/577 103/578/578 100/579/579
f 105/580/580 100/581/581 102/582/582
f 102/583/583 100/584/584 97/585/585
f 102/586/586 97/587/587 99/588/588
f 96/589/589 94/590/590 91/591/591
f 96/592/592 91/593/593 93/594/594
f 99/595/595 97/596/596 94/597/597
f 99/598/598 94/599/599 96/600/600
f 93/601/601 91/602/602 88/603/603
f 93/604/604 88/605/605 89/606/606
f 89/607/607 88/608/608 85/609/609
f 89/610/610 85/611/611 87/612/612
f 87/613/613 85/614/614 82/615/615
f 87/616/616 82/617/617 83/618/618
f 83/619/619 82/620/620 106/621/621
f 83/622/622 106/623/623 108/624/624
f 110/625/625 109/626/626 112/627/627
f 110/628/628 112/629/629 7/630/630
f 108/631/631 106/632/632 109/633/633
f 108/634/634 109/635/635 110/636/636
f 113/637/637 114/638/638 57/639/639
f 113/640/640 57/641/641 115/642/642
f 117/643/643 79/644/644 58/645/645
f 117/646/646 58/647/647 118/648/648
f 115/649/649 93/650/650 89/651/651
f 115/652/652 89/653/653 113/654/654
f 113/655/655 89/656/656 87/657/657
f 113/658/658 87/659/659 78/660/660
f 49/661/661 96/662/662 93/663/663
f 49/664/664 93/665/665 115/666/666
f 78/667/667 87/668/668 83/669/669
f 78/670/670 83/671/671 50/672/672
f 116/673/673 54/674/674 46/675/675
f 117/676/676 118/677/677 53/678/678
f 117/679/679 53/680/680 80/681/681
f 118/682/682 50/683/683 47/684/684
