v 1.820463 -1.331411 1.074143
v 1.820463 -0.857086 2.812500
v 2.154399 -4.325099 -4.341161
v 5.469972 -0.857086 2.812500
v 1.820463 0.226977 1.308359
v 1.820463 -1.009958 2.613830
v 1.934510 1.508439 -3.576099
v 5.355925 0.007139 2.812500
v 1.934510 -4.546530 0.455947
v 5.355925 -5.046045 -3.750000
v 1.820463 0.972611 -1.302585
v 1.934510 -5.046045 -3.750000
v 1.820463 -4.888134 -3.544922
v 1.820463 -4.388729 0.661026
v 1.934510 -4.719269 -4.440289
v 5.355925 -4.719269 -4.440289
v 5.355925 -4.546530 0.455947
v 1.820463 -4.524654 -4.413284
v 5.469972 -4.388729 0.661026
v 5.469972 -4.888134 -3.544922
v 5.469972 -4.524654 -4.413284
v 5.469972 -1.009958 2.613830
v 1.820463 -0.145839 2.613830
v 5.469972 -0.145839 2.613830
v 1.820463 1.319904 -3.602262
v 1.934510 -0.857086 2.812500
v 5.469972 1.319904 -3.602262
v 1.934510 0.007139 2.812500
v 5.355925 -0.857086 2.812500
v 5.355925 1.508439 -3.576099
v 1.874387 1.255980 -3.776728
v 1.874387 -4.415888 -4.563761
v 5.416048 -4.415888 -4.563761
v 5.416048 1.255980 -3.776728
v 5.305371 -4.604752 -4.589969
v 1.985064 -4.604752 -4.589969
v 5.305371 1.438941 -3.751339
v 1.985064 1.438941 -3.751339
v 1.934510 1.516181 -2.495641
v 1.820463 1.345426 -2.608057
v 5.355925 1.516181 -2.495641
v 5.469972 1.345426 -2.608057
v 4.500571 1.516181 -2.495641
v 4.500571 -0.857086 2.812500
v 2.789864 -0.857086 2.812500
v 2.789864 1.516181 -2.495641
v 4.500571 0.007139 2.812500
v 2.789864 0.007139 2.812500
v 2.971627 -0.857086 4.453125
v 4.318809 -0.857086 4.453125
v 4.317054 -0.080175 4.363403
v 2.999693 1.185516 3.017578
v 4.290742 1.185516 3.017578
v 2.973381 -0.080175 4.363403
v 4.500571 1.508439 -3.576099
v 2.789864 1.508439 -3.576099
v 2.362187 -0.857086 2.812500
v 2.362187 0.007139 2.812500
v 2.362187 1.516181 -2.495641
v 2.362187 1.508439 -3.576099
v 3.645218 1.438941 -3.751339
v 2.815141 1.438941 -3.751339
v 2.400102 1.438941 -3.751339
v 4.475295 1.438941 -3.751339
v 4.928248 1.508439 -3.576099
v 4.890333 1.438941 -3.751339
v 4.928248 1.516181 -2.495641
v 4.928248 -0.857086 2.812500
v 4.928248 0.007139 2.812500
v 3.645217 1.508439 -3.576099
v 3.645217 1.516181 -2.495641
v 2.997020 1.382689 2.646621
v 3.645218 -0.080175 4.363403
v 3.645218 -0.857086 4.453125
v 2.789864 0.761661 0.158430
v 2.789864 0.384399 1.485465
v 2.789864 1.138922 -1.168606
v 2.896783 1.447282 0.158430
v 2.843323 1.481732 -1.168606
v 2.950243 1.412833 1.485465
v 3.645217 1.447282 0.158430
v 3.645217 1.412833 1.485465
v 3.645217 1.481732 -1.168606
v 4.393652 1.447282 0.158430
v 4.447112 1.481732 -1.168605
v 4.340192 1.412833 1.485465
v 4.500571 0.761661 0.158430
v 4.500571 1.138922 -1.168606
v 4.500571 0.384399 1.485465
v 4.928248 0.761661 0.158430
v 4.928248 1.138922 -1.168606
v 4.928248 0.384399 1.485465
v 5.355925 0.761661 0.158430
v 5.355925 1.138922 -1.168606
v 5.355925 0.384399 1.485465
v 5.469972 0.599794 0.002887
v 5.469972 0.972611 -1.302585
v 5.469972 0.226977 1.308359
v 2.362187 0.761661 0.158430
v 2.362187 1.138922 -1.168606
v 2.362187 0.384399 1.485465
v 1.934510 0.761661 0.158430
v 1.934510 0.384399 1.485465
v 1.934510 1.138922 -1.168606
v 1.820463 0.599794 0.002887
v 3.645217 1.382689 2.646621
v 3.645217 1.185516 3.017578
v 4.293415 1.382689 2.646621
v 4.318809 -0.337688 4.453125
v 3.645218 -0.337688 4.453125
v 2.971627 -0.337688 4.453125
v 5.469972 -2.516986 -0.465545
v 5.469972 -1.331411 1.074143
v 5.469972 -3.702560 -2.005234
v 1.820463 -2.516986 -0.465545
v 1.820463 -3.702560 -2.005234
v 2.055011 0.966426 -3.816900
v 2.154399 1.130723 -3.794101
v 2.527104 1.130723 -3.794101
v 2.899808 1.130723 -3.794101
v 3.645218 1.130723 -3.794101
v 4.390627 1.130723 -3.794101
v 4.763333 1.130723 -3.794101
v 5.136038 1.130723 -3.794101
v 5.235425 0.966426 -3.816900
v 5.235425 -4.126910 -4.523652
v 5.136038 -4.296509 -4.547187
v 2.154399 -4.296509 -4.547187
v 2.055011 -4.126910 -4.523652
v 5.235425 -4.155499 -4.317626
v 5.136038 -4.325099 -4.341161
v 5.235425 0.937838 -3.610874
v 5.136038 1.102134 -3.588075
v 4.763333 1.102134 -3.588075
v 4.390627 1.102134 -3.588075
v 3.645218 1.102134 -3.588075
v 2.899808 1.102134 -3.588075
v 2.527104 1.102134 -3.588075
v 2.154399 1.102134 -3.588075
v 2.055011 0.937838 -3.610874
v 2.055011 -4.155499 -4.317626
vt 0.000000 0.000000
vt 0.000000 0.000000
vt 0.000000 0.000000
vt 0.000000 0.000000
vt 0.000000 0.000000
vt 0.000000 0.000000
vt 0.000000 0.000000
vt 0.000000 0.000000
vt 0.000000 0.000000
vt 0.000000 0.000000
vt 0.000000 0.000000
vt 0.000000 0.000000
vt 0.000000 0.000000
vt 0.000000 0.000000
vt 0.000000 0.000000
vt 0.000000 0.000000
vt 0.000000 0.000000
vt 0.000000 0.000000
vt 0.000000 0.000000
vt 0.000000 0.000000
vt 0.000000 0.000000
vt 0.000000 0.000000
vt 0.000000 0.000000
vt 0.000000 0.000000
vt 0.000000 0.000000
vt 0.000000 0.000000
vt 0.000000 0.000000
vt 0.000000 0.000000
vt 0.000000 0.000000
vt 0.000000 0.000000
vt 0.000000 0.000000
vt 0.000000 0.000000
vt 0.000000 0.000000
vt 0.000000 0.000000
vt 0.000000 0.000000
vt 0.000000 0.000000
vt 0.000000 0.000000
vt 0.000000 0.000000
vt 0.000000 0.000000
vt 0.000000 0.000000
vt 0.000000 0.000000
vt 0.000000 0.000000
vt 0.000000 0.000000
vt 0.000000 0.000000
vt 0.000000 0.000000
vt 0.000000 0.000000
vt 0.000000 0.000000
vt 0.000000 0.000000
vt 0.000000 0.000000
vt 0.000000 0.000000
vt 0.000000 0.000000
vt 0.000000 0.000000
vt 0.000000 0.000000
vt 0.000000 0.000000
vt 0.000000 0.000000
vt 0.000000 0.000000
vt 0.000000 0.000000
vt 0.000000 0.000000
vt 0.000000 0.000000
vt 0.000000 0.000000
vt 0.000000 0.000000
vt 0.000000 0.000000
vt 0.000000 0.000000
vt 0.000000 0.000000
vt 0.000000 0.000000
vt 0.000000 0.000000
vt 0.000000 0.000000
vt 0.000000 0.000000
vt 0.000000 0.000000
vt 0.000000 0.000000
vt 0.000000 0.000000
vt 0.000000 0.000000
vt 0.000000 0.000000
vt 0.000000 0.000000
vt 0.000000 0.000000
vt 0.000000 0.000000
vt 0.000000 0.000000
vt 0.000000 0.000000
vt 0.000000 0.000000
vt 0.000000 0.000000
vt 0.000000 0.000000
vt 0.000000 0.000000
vt 0.000000 0.000000
vt 0.000000 0.000000
vt 0.000000 0.000000
vt 0.000000 0.000000
vt 0.000000 0.000000
vt 0.000000 0.000000
vt 0.000000 0.000000
vt 0.000000 0.000000
vt 0.000000 0.000000
vt 0.000000 0.000000
vt 0.000000 0.000000
vt 0.000000 0.000000
vt 0.000000 0.000000
vt 0.000000 0.000000
vt 0.000000 0.000000
vt 0.000000 0.000000
vt 0.000000 0.000000
vt 0.000000 0.000000
vt 0.000000 0.000000
vt 0.000000 0.000000
vt 0.000000 0.000000
vt 0.000000 0.000000
vt 0.000000 0.000000
vt 0.000000 0.000000
vt 0.000000 0.000000
vt 0.000000 0.000000
vt 0.000000 0.000000
vt 0.000000 0.000000
vt 0.000000 0.000000
vt 0.000000 0.000000
vt 0.000000 0.000000
vt 0.000000 0.000000
vt 0.000000 0.000000
vt 0.000000 0.000000
vt 0.000000 0.000000
vt 0.000000 0.000000
vt 0.000000 0.000000
vt 0.000000 0.000000
vt 0.000000 0.000000
vt 0.000000 0.000000
vt 0.000000 0.000000
vt 0.000000 0.000000
vt 0.000000 0.000000
vt 0.000000 0.000000
vt 0.000000 0.000000
vt 0.000000 0.000000
vt 0.000000 0.000000
vt 0.000000 0.000000
vt 0.000000 0.000000
vt 0.000000 0.000000
vt 0.000000 0.000000
vt 0.000000 0.000000
vt 0.000000 0.000000
vt 0.000000 0.000000
vt 0.000000 0.000000
vt 0.000000 0.000000
vt 0.000000 0.000000
vt 0.000000 0.000000
vt 0.000000 0.000000
vt 0.000000 0.000000
vt 0.000000 0.000000
vt 0.000000 0.000000
vt 0.000000 0.000000
vt 0.000000 0.000000
vt 0.000000 0.000000
vt 0.000000 0.000000
vt 0.000000 0.000000
vt 0.000000 0.000000
vt 0.000000 0.000000
vt 0.000000 0.000000
vt 0.000000 0.000000
vt 0.000000 0.000000
vt 0.000000 0.000000
vt 0.000000 0.000000
vt 0.000000 0.000000
vt 0.000000 0.000000
vt 0.000000 0.000000
vt 0.000000 0.000000
vt 0.000000 0.000000
vt 0.000000 0.000000
vt 0.000000 0.000000
vt 0.000000 0.000000
vt 0.000000 0.000000
vt 0.000000 0.000000
vt 0.000000 0.000000
vt 0.000000 0.000000
vt 0.000000 0.000000
vt 0.000000 0.000000
vt 0.000000 0.000000
vt 0.000000 0.000000
vt 0.000000 0.000000
vt 0.000000 0.000000
vt 0.000000 0.000000
vt 0.000000 0.000000
vt 0.000000 0.000000
vt 0.000000 0.000000
vt 0.000000 0.000000
vt 0.000000 0.000000
vt 0.000000 0.000000
vt 0.000000 0.000000
vt 0.000000 0.000000
vt 0.000000 0.000000
vt 0.000000 0.000000
vt 0.000000 0.000000
vt 0.000000 0.000000
vt 0.000000 0.000000
vt 0.000000 0.000000
vt 0.000000 0.000000
vt 0.000000 0.000000
vt 0.000000 0.000000
vt 0.000000 0.000000
vt 0.000000 0.000000
vt 0.000000 0.000000
vt 0.000000 0.000000
vt 0.000000 0.000000
vt 0.000000 0.000000
vt 0.000000 0.000000
vt 0.000000 0.000000
vt 0.000000 0.000000
vt 0.000000 0.000000
vt 0.000000 0.000000
vt 0.000000 0.000000
vt 0.000000 0.000000
vt 0.000000 0.000000
vt 0.000000 0.000000
vt 0.000000 0.000000
vt 0.000000 0.000000
vt 0.000000 0.000000
vt 0.000000 0.000000
vt 0.000000 0.000000
vt 0.000000 0.000000
vt 0.000000 0.000000
vt 0.000000 0.000000
vt 0.000000 0.000000
vt 0.000000 0.000000
vt 0.000000 0.000000
vt 0.000000 0.000000
vt 0.000000 0.000000
vt 0.000000 0.000000
vt 0.000000 0.000000
vt 0.000000 0.000000
vt 0.000000 0.000000
vt 0.000000 0.000000
vt 0.000000 0.000000
vt 0.000000 0.000000
vt 0.000000 0.000000
vt 0.000000 0.000000
vt 0.000000 0.000000
vt 0.000000 0.000000
vt 0.000000 0.000000
vt 0.000000 0.000000
vt 0.000000 0.000000
vt 0.000000 0.000000
vt 0.000000 0.000000
vt 0.000000 0.000000
vt 0.000000 0.000000
vt 0.000000 0.000000
vt 0.000000 0.000000
vt 0.000000 0.000000
vt 0.000000 0.000000
vt 0.000000 0.000000
vt 0.000000 0.000000
vt 0.000000 0.000000
vt 0.000000 0.000000
vt 0.000000 0.000000
vt 0.000000 0.000000
vt 0.000000 0.000000
vt 0.000000 0.000000
vt 0.000000 0.000000
vt 0.000000 0.000000
vt 0.000000 0.000000
vt 0.000000 0.000000
vt 0.000000 0.000000
vt 0.000000 0.000000
vt 0.000000 0.000000
vt 0.000000 0.000000
vt 0.000000 0.000000
vt 0.000000 0.000000
vt 0.000000 0.000000
vt 0.000000 0.000000
vt 0.000000 0.000000
vt 0.000000 0.000000
vt 0.000000 0.000000
vt 0.000000 0.000000
vt 0.000000 0.000000
vt 0.000000 0.000000
vt 0.000000 0.000000
vt 0.000000 0.000000
vt 0.000000 0.000000
vt 0.000000 0.000000
vt 0.000000 0.000000
vt 0.000000 0.000000
vt 0.000000 0.000000
vt 0.000000 0.000000
vt 0.000000 0.000000
vt 0.000000 0.000000
vt 0.000000 0.000000
vt 0.000000 0.000000
vt 0.000000 0.000000
vt 0.000000 0.000000
vt 0.000000 0.000000
vt 0.000000 0.000000
vt 0.000000 0.000000
vt 0.000000 0.000000
vt 0.000000 0.000000
vt 0.000000 0.000000
vt 0.000000 0.000000
vt 0.000000 0.000000
vt 0.000000 0.000000
vt 0.000000 0.000000
vt 0.000000 0.000000
vt 0.000000 0.000000
vt 0.000000 0.000000
vt 0.000000 0.000000
vt 0.000000 0.000000
vt 0.000000 0.000000
vt 0.000000 0.000000
vt 0.000000 0.000000
vt 0.000000 0.000000
vt 0.000000 0.000000
vt 0.000000 0.000000
vt 0.000000 0.000000
vt 0.000000 0.000000
vt 0.000000 0.000000
vt 0.000000 0.000000
vt 0.000000 0.000000
vt 0.000000 0.000000
vt 0.000000 0.000000
vt 0.000000 0.000000
vt 0.000000 0.000000
vt 0.000000 0.000000
vt 0.000000 0.000000
vt 0.000000 0.000000
vt 0.000000 0.000000
vt 0.000000 0.000000
vt 0.000000 0.000000
vt 0.000000 0.000000
vt 0.000000 0.000000
vt 0.000000 0.000000
vt 0.000000 0.000000
vt 0.000000 0.000000
vt 0.000000 0.000000
vt 0.000000 0.000000
vt 0.000000 0.000000
vt 0.000000 0.000000
vt 0.000000 0.000000
vt 0.000000 0.000000
vt 0.000000 0.000000
vt 0.000000 0.000000
vt 0.000000 0.000000
vt 0.000000 0.000000
vt 0.000000 0.000000
vt 0.000000 0.000000
vt 0.000000 0.000000
vt 0.000000 0.000000
vt 0.000000 0.000000
vt 0.000000 0.000000
vt 0.000000 0.000000
vt 0.000000 0.000000
vt 0.000000 0.000000
vt 0.000000 0.000000
vt 0.000000 0.000000
vt 0.000000 0.000000
vt 0.000000 0.000000
vt 0.000000 0.000000
vt 0.000000 0.000000
vt 0.000000 0.000000
vt 0.000000 0.000000
vt 0.000000 0.000000
vt 0.000000 0.000000
vt 0.000000 0.000000
vt 0.000000 0.000000
vt 0.000000 0.000000
vt 0.000000 0.000000
vt 0.000000 0.000000
vt 0.000000 0.000000
vt 0.000000 0.000000
vt 0.000000 0.000000
vt 0.000000 0.000000
vt 0.000000 0.000000
vt 0.000000 0.000000
vt 0.000000 0.000000
vt 0.000000 0.000000
vt 0.000000 0.000000
vt 0.000000 0.000000
vt 0.000000 0.000000
vt 0.000000 0.000000
vt 0.000000 0.000000
vt 0.000000 0.000000
vt 0.000000 0.000000
vt 0.000000 0.000000
vt 0.000000 0.000000
vt 0.000000 0.000000
vt 0.000000 0.000000
vt 0.000000 0.000000
vt 0.000000 0.000000
vt 0.000000 0.000000
vt 0.000000 0.000000
vt 0.000000 0.000000
vt 0.000000 0.000000
vt 0.000000 0.000000
vt 0.000000 0.000000
vt 0.000000 0.000000
vt 0.000000 0.000000
vt 0.000000 0.000000
vt 0.000000 0.000000
vt 0.000000 0.000000
vt 0.000000 0.000000
vt 0.000000 0.000000
vt 0.000000 0.000000
vt 0.000000 0.000000
vt 0.000000 0.000000
vt 0.000000 0.000000
vt 0.000000 0.000000
vt 0.000000 0.000000
vt 0.000000 0.000000
vt 0.000000 0.000000
vt 0.000000 0.000000
vt 0.000000 0.000000
vt 0.000000 0.000000
vt 0.000000 0.000000
vt 0.000000 0.000000
vt 0.000000 0.000000
vt 0.000000 0.000000
vt 0.000000 0.000000
vt 0.000000 0.000000
vt 0.000000 0.000000
vt 0.000000 0.000000
vt 0.000000 0.000000
vt 0.000000 0.000000
vt 0.000000 0.000000
vt 0.000000 0.000000
vt 0.000000 0.000000
vt 0.000000 0.000000
vt 0.000000 0.000000
vt 0.000000 0.000000
vt 0.000000 0.000000
vt 0.000000 0.000000
vt 0.000000 0.000000
vt 0.000000 0.000000
vt 0.000000 0.000000
vt 0.000000 0.000000
vt 0.000000 0.000000
vt 0.000000 0.000000
vt 0.000000 0.000000
vt 0.000000 0.000000
vt 0.000000 0.000000
vt 0.000000 0.000000
vt 0.000000 0.000000
vt 0.000000 0.000000
vt 0.000000 0.000000
vt 0.000000 0.000000
vt 0.000000 0.000000
vt 0.000000 0.000000
vt 0.000000 0.000000
vt 0.000000 0.000000
vt 0.000000 0.000000
vt 0.000000 0.000000
vt 0.000000 0.000000
vt 0.000000 0.000000
vt 0.000000 0.000000
vt 0.000000 0.000000
vt 0.000000 0.000000
vt 0.000000 0.000000
vt 0.000000 0.000000
vt 0.000000 0.000000
vt 0.000000 0.000000
vt 0.000000 0.000000
vt 0.000000 0.000000
vt 0.000000 0.000000
vt 0.000000 0.000000
vt 0.000000 0.000000
vt 0.000000 0.000000
vt 0.000000 0.000000
vt 0.000000 0.000000
vt 0.000000 0.000000
vt 0.000000 0.000000
vt 0.000000 0.000000
vt 0.000000 0.000000
vt 0.000000 0.000000
vt 0.000000 0.000000
vt 0.000000 0.000000
vt 0.000000 0.000000
vt 0.000000 0.000000
vt 0.000000 0.000000
vt 0.000000 0.000000
vt 0.000000 0.000000
vt 0.000000 0.000000
vt 0.000000 0.000000
vt 0.000000 0.000000
vt 0.000000 0.000000
vt 0.000000 0.000000
vt 0.000000 0.000000
vt 0.000000 0.000000
vt 0.000000 0.000000
vt 0.000000 0.000000
vt 0.000000 0.000000
vt 0.000000 0.000000
vt 0.000000 0.000000
vt 0.000000 0.000000
vt 0.000000 0.000000
vt 0.000000 0.000000
vt 0.000000 0.000000
vt 0.000000 0.000000
vt 0.000000 0.000000
vt 0.000000 0.000000
vt 0.000000 0.000000
vt 0.000000 0.000000
vt 0.000000 0.000000
vt 0.000000 0.000000
vt 0.000000 0.000000
vt 0.000000 0.000000
vt 0.000000 0.000000
vt 0.000000 0.000000
vt 0.000000 0.000000
vt 0.000000 0.000000
vt 0.000000 0.000000
vt 0.000000 0.000000
vt 0.000000 0.000000
vt 0.000000 0.000000
vt 0.000000 0.000000
vt 0.000000 0.000000
vt 0.000000 0.000000
vt 0.000000 0.000000
vt 0.000000 0.000000
vt 0.000000 0.000000
vt 0.000000 0.000000
vt 0.000000 0.000000
vt 0.000000 0.000000
vt 0.000000 0.000000
vt 0.000000 0.000000
vt 0.000000 0.000000
vt 0.000000 0.000000
vt 0.000000 0.000000
vt 0.000000 0.000000
vt 0.000000 0.000000
vt 0.000000 0.000000
vt 0.000000 0.000000
vt 0.000000 0.000000
vt 0.000000 0.000000
vt 0.000000 0.000000
vt 0.000000 0.000000
vt 0.000000 0.000000
vt 0.000000 0.000000
vt 0.000000 0.000000
vt 0.000000 0.000000
vt 0.000000 0.000000
vt 0.000000 0.000000
vt 0.000000 0.000000
vt 0.000000 0.000000
vt 0.000000 0.000000
vt 0.000000 0.000000
vt 0.000000 0.000000
vt 0.000000 0.000000
vt 0.000000 0.000000
vt 0.000000 0.000000
vt 0.000000 0.000000
vt 0.000000 0.000000
vt 0.000000 0.000000
vt 0.000000 0.000000
vt 0.000000 0.000000
vt 0.000000 0.000000
vt 0.000000 0.000000
vt 0.000000 0.000000
vt 0.000000 0.000000
vt 0.000000 0.000000
vt 0.000000 0.000000
vt 0.000000 0.000000
vt 0.000000 0.000000
vt 0.000000 0.000000
vt 0.000000 0.000000
vt 0.000000 0.000000
vt 0.000000 0.000000
vt 0.000000 0.000000
vt 0.000000 0.000000
vt 0.000000 0.000000
vt 0.000000 0.000000
vt 0.000000 0.000000
vt 0.000000 0.000000
vt 0.000000 0.000000
vt 0.000000 0.000000
vt 0.000000 0.000000
vt 0.000000 0.000000
vt 0.000000 0.000000
vt 0.000000 0.000000
vt 0.000000 0.000000
vt 0.000000 0.000000
vt 0.000000 0.000000
vt 0.000000 0.000000
vt 0.000000 0.000000
vt 0.000000 0.000000
vt 0.000000 0.000000
vt 0.000000 0.000000
vt 0.000000 0.000000
vt 0.000000 0.000000
vt 0.000000 0.000000
vt 0.000000 0.000000
vt 0.000000 0.000000
vt 0.000000 0.000000
vt 0.000000 0.000000
vt 0.000000 0.000000
vt 0.000000 0.000000
vt 0.000000 0.000000
vt 0.000000 0.000000
vt 0.000000 0.000000
vt 0.000000 0.000000
vt 0.000000 0.000000
vt 0.000000 0.000000
vt 0.000000 0.000000
vt 0.000000 0.000000
vt 0.000000 0.000000
vt 0.000000 0.000000
vt 0.000000 0.000000
vt 0.000000 0.000000
vt 0.000000 0.000000
vt 0.000000 0.000000
vt 0.000000 0.000000
vt 0.000000 0.000000
vt 0.000000 0.000000
vt 0.000000 0.000000
vt 0.000000 0.000000
vt 0.000000 0.000000
vt 0.000000 0.000000
vt 0.000000 0.000000
vt 0.000000 0.000000
vt 0.000000 0.000000
vt 0.000000 0.000000
vt 0.000000 0.000000
vt 0.000000 0.000000
vt 0.000000 0.000000
vt 0.000000 0.000000
vt 0.000000 0.000000
vt 0.000000 0.000000
vt 0.000000 0.000000
vt 0.000000 0.000000
vt 0.000000 0.000000
vt 0.000000 0.000000
vt 0.000000 0.000000
vt 0.000000 0.000000
vt 0.000000 0.000000
vt 0.000000 0.000000
vt 0.000000 0.000000
vt 0.000000 0.000000
vt 0.000000 0.000000
vt 0.000000 0.000000
vt 0.000000 0.000000
vt 0.000000 0.000000
vt 0.000000 0.000000
vt 0.000000 0.000000
vt 0.000000 0.000000
vt 0.000000 0.000000
vt 0.000000 0.000000
vt 0.000000 0.000000
vt 0.000000 0.000000
vt 0.000000 0.000000
vt 0.000000 0.000000
vt 0.000000 0.000000
vt 0.000000 0.000000
vt 0.000000 0.000000
vt 0.000000 0.000000
vt 0.000000 0.000000
vt 0.000000 0.000000
vt 0.000000 0.000000
vt 0.000000 0.000000
vt 0.000000 0.000000
vt 0.000000 0.000000
vt 0.000000 0.000000
vt 0.000000 0.000000
vt 0.000000 0.000000
vt 0.000000 0.000000
vt 0.000000 0.000000
vt 0.000000 0.000000
vt 0.000000 0.000000
vt 0.000000 0.000000
vt 0.000000 0.000000
vt 0.000000 0.000000
vt 0.000000 0.000000
vt 0.000000 0.000000
vt 0.000000 0.000000
vt 0.000000 0.000000
vt 0.000000 0.000000
vt 0.000000 0.000000
vt 0.000000 0.000000
vt 0.000000 0.000000
vt 0.000000 0.000000
vt 0.000000 0.000000
vt 0.000000 0.000000
vt 0.000000 0.000000
vt 0.000000 0.000000
vt 0.000000 0.000000
vt 0.000000 0.000000
vt 0.000000 0.000000
vt 0.000000 0.000000
vt 0.000000 0.000000
vt 0.000000 0.000000
vt 0.000000 0.000000
vt 0.000000 0.000000
vt 0.000000 0.000000
vt 0.000000 0.000000
vt 0.000000 0.000000
vt 0.000000 0.000000
vt 0.000000 0.000000
vt 0.000000 0.000000
vt 0.000000 0.000000
vt 0.000000 0.000000
vt 0.000000 0.000000
vt 0.000000 0.000000
vt 0.000000 0.000000
vt 0.000000 0.000000
vt 0.000000 0.000000
vt 0.000000 0.000000
vt 0.000000 0.000000
vt 0.000000 0.000000
vt 0.000000 0.000000
vt 0.000000 0.000000
vt 0.000000 0.000000
vt 0.000000 0.000000
vt 0.000000 0.000000
vt 0.000000 0.000000
vt 0.000000 0.000000
vt 0.000000 0.000000
vt 0.000000 0.000000
vt 0.000000 0.000000
vt 0.000000 0.000000
vt 0.000000 0.000000
vt 0.000000 0.000000
vt 0.000000 0.000000
vt 0.000000 0.000000
vt 0.000000 0.000000
vt 0.000000 0.000000
vt 0.000000 0.000000
vt 0.000000 0.000000
vt 0.000000 0.000000
vt 0.000000 0.000000
vt 0.000000 0.000000
vt 0.000000 0.000000
vt 0.000000 0.000000
vt 0.000000 0.000000
vt 0.000000 0.000000
vt 0.000000 0.000000
vt 0.000000 0.000000
vt 0.000000 0.000000
vt 0.000000 0.000000
vt 0.000000 0.000000
vt 0.000000 0.000000
vt 0.000000 0.000000
vt 0.000000 0.000000
vt 0.000000 0.000000
vt 0.000000 0.000000
vt 0.000000 0.000000
vt 0.000000 0.000000
vt 0.000000 0.000000
vt 0.000000 0.000000
vt 0.000000 0.000000
vt 0.000000 0.000000
vt 0.000000 0.000000
vt 0.000000 0.000000
vt 0.000000 0.000000
vt 0.000000 0.000000
vt 0.000000 0.000000
vt 0.000000 0.000000
vt 0.000000 0.000000
vt 0.000000 0.000000
vt 0.000000 0.000000
vt 0.000000 0.000000
vt 0.000000 0.000000
vt 0.000000 0.000000
vt 0.000000 0.000000
vt 0.000000 0.000000
vt 0.000000 0.000000
vt 0.000000 0.000000
vt 0.000000 0.000000
vt 0.000000 0.000000
vt 0.000000 0.000000
vt 0.000000 0.000000
vt 0.000000 0.000000
vt 0.000000 0.000000
vt 0.000000 0.000000
vt 0.000000 0.000000
vt 0.000000 0.000000
vt 0.000000 0.000000
vt 0.000000 0.000000
vt 0.000000 0.000000
vt 0.000000 0.000000
vt 0.000000 0.000000
vt 0.000000 0.000000
vt 0.000000 0.000000
vt 0.000000 0.000000
vt 0.000000 0.000000
vt 0.000000 0.000000
vt 0.000000 0.000000
vt 0.000000 0.000000
vt 0.000000 0.000000
vt 0.000000 0.000000
vt 0.000000 0.000000
vt 0.000000 0.000000
vt 0.000000 0.000000
vt 0.000000 0.000000
vt 0.000000 0.000000
vt 0.000000 0.000000
vt 0.000000 0.000000
vt 0.000000 0.000000
vt 0.000000 0.000000
vt 0.000000 0.000000
vt 0.000000 0.000000
vt 0.000000 0.000000
vt 0.000000 0.000000
vn -1.000000 0.000000 0.000000
vn -1.000000 0.000000 0.000000
vn -0.966139 0.248145 0.070704
vn -1.000000 0.000000 0.000000
vn -0.966139 0.248145 0.070704
vn -0.965675 0.249810 0.071178
vn -1.000000 0.000000 0.000000
vn -1.000000 0.000000 0.000000
vn -0.966594 0.246500 0.070235
vn -1.000000 0.000000 0.000000
vn -0.966594 0.246500 0.070235
vn -0.966139 0.248145 0.070704
vn -0.965675 0.249810 0.071178
vn -0.963468 0.265708 0.033598
vn -0.973291 -0.228242 -0.024707
vn -0.965675 0.249810 0.071178
vn -0.973291 -0.228242 -0.024707
vn -1.000000 0.000000 0.000000
vn 1.000000 0.000000 -0.000000
vn 1.000000 0.000000 -0.000000
vn 0.966139 0.248145 0.070704
vn 1.000000 0.000000 -0.000000
vn 0.966139 0.248145 0.070704
vn 0.966594 0.246500 0.070235
vn 1.000000 0.000000 -0.000000
vn 1.000000 -0.000000 -0.000000
vn 0.965675 0.249810 0.071178
vn 1.000000 0.000000 -0.000000
vn 0.965675 0.249810 0.071178
vn 0.966139 0.248145 0.070704
vn 1.000000 -0.000000 -0.000000
vn 0.973291 -0.228242 -0.024707
vn 0.963468 0.265708 0.033598
vn 1.000000 -0.000000 -0.000000
vn 0.963468 0.265708 0.033598
vn 0.965675 0.249810 0.071178
vn -0.993919 0.000000 0.110115
vn -0.993919 0.000000 0.110115
vn -0.993410 0.016201 0.113464
vn 0.993919 0.000000 0.110115
vn 0.989795 0.103170 0.098298
vn 0.993410 0.016201 0.113464
vn -0.987328 0.100874 0.122509
vn -0.981818 0.156008 0.108143
vn -0.989795 0.103170 0.098298
vn 0.000000 0.544396 0.838829
vn 0.000000 0.544396 0.838829
vn 0.000000 0.812927 0.582366
vn 0.000000 0.544396 0.838829
vn 0.000000 0.812927 0.582366
vn 0.000000 0.812927 0.582366
vn 0.000000 0.544396 0.838829
vn 0.000000 0.544396 0.838829
vn 0.000000 0.812927 0.582366
vn 0.000000 0.544396 0.838829
vn 0.000000 0.812927 0.582366
vn 0.000000 0.812927 0.582366
vn 0.498992 0.858381 0.119113
vn 0.965624 0.257475 0.035729
vn 0.965624 0.257475 0.035729
vn 0.498992 0.858381 0.119113
vn 0.965624 0.257475 0.035729
vn 0.498992 0.858381 0.119113
vn 0.000000 0.137444 -0.990510
vn 0.000000 0.137444 -0.990510
vn 0.000000 0.137444 -0.990510
vn 0.000000 0.137444 -0.990510
vn 0.000000 0.137444 -0.990510
vn 0.000000 0.137444 -0.990510
vn 0.000000 0.137444 -0.990510
vn 0.000000 0.137444 -0.990510
vn 0.000000 0.137444 -0.990510
vn 0.000000 0.137444 -0.990510
vn 0.000000 0.137444 -0.990510
vn 0.000000 0.137444 -0.990510
vn 0.000000 0.137444 -0.990510
vn 0.000000 0.137444 -0.990510
vn 0.000000 0.137444 -0.990510
vn 0.000000 0.137444 -0.990510
vn 0.000000 0.137444 -0.990510
vn 0.000000 0.137444 -0.990510
vn 0.000000 0.137444 -0.990510
vn 0.000000 0.137444 -0.990510
vn 0.000000 0.137444 -0.990510
vn 0.000000 0.137444 -0.990510
vn 0.000000 0.137444 -0.990510
vn 0.000000 0.137444 -0.990510
vn 0.000000 0.137444 -0.990510
vn 0.000000 0.137444 -0.990510
vn 0.000000 0.137444 -0.990510
vn 0.000000 0.137444 -0.990510
vn 0.000000 0.137444 -0.990510
vn 0.000000 0.137444 -0.990510
vn 0.000000 0.137444 -0.990510
vn 0.000000 0.137444 -0.990510
vn 0.000000 0.137444 -0.990510
vn 0.000000 0.990914 0.134498
vn 0.493241 0.862350 0.114305
vn 0.458577 0.857989 -0.231436
vn 0.000000 0.990914 0.134498
vn 0.458577 0.857989 -0.231436
vn 0.000000 0.981555 -0.191180
vn -0.476809 -0.870118 -0.124692
vn 0.476809 -0.870118 -0.124692
vn 0.417040 -0.902546 0.107185
vn -0.476809 -0.870118 -0.124692
vn 0.417040 -0.902546 0.107185
vn -0.417039 -0.902546 0.107185
vn 0.966594 0.246500 0.070235
vn 0.978289 0.124373 0.165777
vn 1.000000 0.000000 -0.000000
vn -0.493240 0.862350 0.114305
vn -0.458577 0.857989 -0.231436
vn -0.937196 0.289167 -0.195053
vn -0.493240 0.862350 0.114305
vn -0.937196 0.289167 -0.195053
vn -0.963468 0.265708 0.033598
vn -0.470241 -0.721135 -0.508760
vn 0.470242 -0.721135 -0.508760
vn 0.476809 -0.870118 -0.124692
vn -0.470241 -0.721135 -0.508760
vn 0.476809 -0.870118 -0.124692
vn -0.476809 -0.870118 -0.124692
vn -0.470241 -0.721135 -0.508760
vn -0.476809 -0.870118 -0.124692
vn -0.973291 -0.228242 -0.024707
vn -0.470241 -0.721135 -0.508760
vn -0.973291 -0.228242 -0.024707
vn -0.940649 -0.200920 -0.273516
vn -0.417039 -0.902546 0.107185
vn -0.937572 -0.345363 0.041012
vn -0.973291 -0.228242 -0.024707
vn -0.417039 -0.902546 0.107185
vn -0.973291 -0.228242 -0.024707
vn -0.476809 -0.870118 -0.124692
vn 0.987328 0.100874 0.122509
vn 0.989795 0.103170 0.098298
vn 0.981818 0.156008 0.108143
vn -0.498995 0.858380 0.119113
vn 0.498992 0.858381 0.119113
vn 0.498992 0.858381 0.119113
vn -0.498995 0.858380 0.119113
vn 0.498992 0.858381 0.119113
vn -0.498995 0.858380 0.119113
vn 0.417040 -0.902546 0.107185
vn 0.476809 -0.870118 -0.124692
vn 0.973291 -0.228242 -0.024707
vn 0.417040 -0.902546 0.107185
vn 0.973291 -0.228242 -0.024707
vn 0.937573 -0.345363 0.041012
vn 0.470242 -0.721135 -0.508760
vn 0.940649 -0.200920 -0.273516
vn 0.973291 -0.228242 -0.024707
vn 0.470242 -0.721135 -0.508760
vn 0.973291 -0.228242 -0.024707
vn 0.476809 -0.870118 -0.124692
vn 0.963468 0.265708 0.033598
vn 0.937196 0.289167 -0.195053
vn 0.458577 0.857989 -0.231436
vn 0.963468 0.265708 0.033598
vn 0.458577 0.857989 -0.231436
vn 0.493241 0.862350 0.114305
vn -0.963468 0.265708 0.033598
vn -0.937196 0.289167 -0.195053
vn -0.940649 -0.200920 -0.273516
vn -0.963468 0.265708 0.033598
vn -0.940649 -0.200920 -0.273516
vn -0.973291 -0.228242 -0.024707
vn -0.978289 0.124372 0.165777
vn -1.000000 0.000000 0.000000
vn -1.000000 0.000000 0.000000
vn -0.978289 0.124372 0.165777
vn -1.000000 0.000000 0.000000
vn -1.000000 0.000000 0.000000
vn -0.978289 0.124372 0.165777
vn -1.000000 0.000000 0.000000
vn -0.973291 -0.228242 -0.024707
vn -0.978289 0.124372 0.165777
vn -0.973291 -0.228242 -0.024707
vn -0.937572 -0.345363 0.041012
vn -0.978289 0.124372 0.165777
vn -0.937572 -0.345363 0.041012
vn -0.966245 0.000000 0.257623
vn 0.000000 0.000000 1.000000
vn 0.000000 0.000000 1.000000
vn 0.000000 0.000000 1.000000
vn 0.000000 0.000000 1.000000
vn 0.000000 0.000000 1.000000
vn 0.000000 0.000000 1.000000
vn 0.966245 -0.000000 0.257624
vn 0.937573 -0.345363 0.041012
vn 0.973291 -0.228242 -0.024707
vn 0.966245 -0.000000 0.257624
vn 0.973291 -0.228242 -0.024707
vn 1.000000 -0.000000 -0.000000
vn 0.966245 -0.000000 0.257624
vn 1.000000 -0.000000 -0.000000
vn 1.000000 0.000000 -0.000000
vn 0.966245 -0.000000 0.257624
vn 1.000000 0.000000 -0.000000
vn 1.000000 0.000000 -0.000000
vn 0.966245 -0.000000 0.257624
vn 1.000000 0.000000 -0.000000
vn 0.978289 0.124373 0.165777
vn -0.978289 0.124372 0.165777
vn -0.966245 0.000000 0.257623
vn -0.867261 0.000000 0.497855
vn -0.978289 0.124372 0.165777
vn -0.867261 0.000000 0.497855
vn -0.909936 0.248900 0.331761
vn 0.909935 0.248901 0.331762
vn 0.867260 0.000000 0.497856
vn 0.966245 -0.000000 0.257624
vn 0.909935 0.248901 0.331762
vn 0.966245 -0.000000 0.257624
vn 0.978289 0.124373 0.165777
vn 0.000000 0.946712 -0.322081
vn 0.000000 0.792528 -0.609836
vn 0.000000 0.946712 -0.322081
vn 0.000000 0.792528 -0.609836
vn 0.000000 0.946712 -0.322081
vn 0.000000 0.946712 -0.322081
vn -0.937196 0.289167 -0.195053
vn -0.880367 0.287294 -0.377381
vn -0.882853 -0.168707 -0.438302
vn -0.937196 0.289167 -0.195053
vn -0.882853 -0.168707 -0.438302
vn -0.940649 -0.200920 -0.273516
vn 0.880367 0.287294 -0.377380
vn 0.937196 0.289167 -0.195053
vn 0.940649 -0.200920 -0.273516
vn 0.880367 0.287294 -0.377380
vn 0.940649 -0.200920 -0.273516
vn 0.882853 -0.168707 -0.438302
vn 0.420807 -0.646281 -0.636586
vn 0.882853 -0.168707 -0.438302
vn 0.940649 -0.200920 -0.273516
vn 0.420807 -0.646281 -0.636586
vn 0.940649 -0.200920 -0.273516
vn 0.470242 -0.721135 -0.508760
vn -0.882853 -0.168707 -0.438302
vn -0.420807 -0.646281 -0.636586
vn -0.470241 -0.721135 -0.508760
vn -0.882853 -0.168707 -0.438302
vn -0.470241 -0.721135 -0.508760
vn -0.940649 -0.200920 -0.273516
vn -0.420807 -0.646281 -0.636586
vn 0.420807 -0.646281 -0.636586
vn 0.470242 -0.721135 -0.508760
vn -0.420807 -0.646281 -0.636586
vn 0.470242 -0.721135 -0.508760
vn -0.470241 -0.721135 -0.508760
vn 0.880367 0.287294 -0.377380
vn 0.415267 0.798214 -0.436357
vn 0.458577 0.857989 -0.231436
vn 0.880367 0.287294 -0.377380
vn 0.458577 0.857989 -0.231436
vn 0.937196 0.289167 -0.195053
vn 0.000000 0.929566 -0.368655
vn -0.415267 0.798214 -0.436357
vn -0.458577 0.857989 -0.231436
vn 0.000000 0.929566 -0.368655
vn -0.458577 0.857989 -0.231436
vn 0.000000 0.981555 -0.191180
vn -0.415267 0.798214 -0.436357
vn -0.880367 0.287294 -0.377381
vn -0.937196 0.289167 -0.195053
vn -0.415267 0.798214 -0.436357
vn -0.937196 0.289167 -0.195053
vn -0.458577 0.857989 -0.231436
vn 0.937196 0.289167 -0.195053
vn 0.963468 0.265708 0.033598
vn 0.973291 -0.228242 -0.024707
vn 0.937196 0.289167 -0.195053
vn 0.973291 -0.228242 -0.024707
vn 0.940649 -0.200920 -0.273516
vn 0.868609 0.476532 0.135778
vn 0.909935 0.248901 0.331762
vn 0.978289 0.124373 0.165777
vn 0.868609 0.476532 0.135778
vn 0.978289 0.124373 0.165777
vn 0.966594 0.246500 0.070235
vn 0.000000 0.961885 0.273453
vn 0.000000 0.990914 0.134498
vn -0.493240 0.862350 0.114305
vn 0.000000 0.961885 0.273453
vn -0.493240 0.862350 0.114305
vn -0.499162 0.833435 0.237114
vn -0.966594 0.246500 0.070235
vn -0.978289 0.124372 0.165777
vn -0.909936 0.248900 0.331761
vn -0.966594 0.246500 0.070235
vn -0.909936 0.248900 0.331761
vn -0.868609 0.476532 0.135778
vn -1.000000 0.000000 0.000000
vn -0.978289 0.124372 0.165777
vn -0.966594 0.246500 0.070235
vn 0.000000 0.961885 0.273453
vn 0.000000 0.961885 0.273453
vn 0.000000 0.961885 0.273453
vn 0.000000 0.961885 0.273453
vn 0.000000 0.961885 0.273453
vn 0.000000 0.961885 0.273453
vn 0.000000 0.000000 1.000000
vn 0.000000 0.000000 1.000000
vn 0.000000 0.000000 1.000000
vn 0.000000 0.000000 1.000000
vn 0.000000 0.000000 1.000000
vn 0.000000 0.000000 1.000000
vn 0.965624 0.257475 0.035729
vn 0.963794 -0.264116 -0.036649
vn 0.963794 -0.264116 -0.036649
vn 0.965624 0.257475 0.035729
vn 0.963794 -0.264116 -0.036649
vn 0.965624 0.257475 0.035729
vn -0.987111 0.153935 0.043762
vn -0.987111 0.153935 0.043762
vn -0.987111 0.153935 0.043762
vn 0.989795 0.103170 0.098298
vn 0.985344 0.156558 0.067722
vn 0.981818 0.156008 0.108143
vn 0.989795 0.103170 0.098298
vn 0.987328 0.100874 0.122509
vn 0.993410 0.016201 0.113464
vn 0.000000 -0.990509 -0.137447
vn 0.000000 -0.990509 -0.137447
vn 0.000000 -0.990509 -0.137447
vn 0.000000 -0.990509 -0.137447
vn 0.000000 -0.990509 -0.137447
vn 0.000000 -0.990509 -0.137447
vn 0.000000 0.967093 0.254424
vn 0.000000 0.812927 0.582366
vn 0.000000 0.812927 0.582366
vn 0.000000 0.967093 0.254424
vn 0.000000 0.812927 0.582366
vn -0.000000 0.967093 0.254424
vn 0.000000 -0.990509 -0.137447
vn 0.000000 -0.990509 -0.137447
vn 0.000000 -0.990509 -0.137447
vn 0.000000 -0.990509 -0.137447
vn 0.000000 -0.990509 -0.137447
vn 0.000000 -0.990509 -0.137447
vn 0.000000 0.166848 0.985983
vn 0.000000 0.000000 1.000000
vn 0.000000 0.000000 1.000000
vn 0.000000 0.166848 0.985983
vn 0.000000 0.000000 1.000000
vn 0.000000 0.166848 0.985983
vn -0.989795 0.103170 0.098298
vn -0.993410 0.016201 0.113464
vn -0.987328 0.100874 0.122509
vn 0.000000 -0.990509 -0.137447
vn 0.000000 -0.990509 -0.137447
vn 0.000000 -0.990509 -0.137447
vn 0.000000 -0.990509 -0.137447
vn 0.000000 -0.990509 -0.137447
vn 0.000000 -0.990509 -0.137447
vn 0.000000 0.981555 -0.191180
vn -0.458577 0.857989 -0.231436
vn -0.493240 0.862350 0.114305
vn 0.000000 0.981555 -0.191180
vn -0.493240 0.862350 0.114305
vn 0.000000 0.990914 0.134498
vn -0.000000 0.999956 0.009394
vn -0.000000 0.997421 0.071775
vn 0.000000 0.981555 -0.191180
vn -0.000000 0.999956 0.009394
vn 0.000000 0.981555 -0.191180
vn 0.000000 0.981555 -0.191180
vn 0.000000 0.000000 1.000000
vn 0.000000 0.000000 1.000000
vn 0.000000 0.000000 1.000000
vn 0.000000 0.000000 1.000000
vn 0.000000 0.000000 1.000000
vn 0.000000 0.000000 1.000000
vn 0.963794 -0.264116 -0.036649
vn 0.492958 -0.861795 -0.119586
vn 0.492958 -0.861795 -0.119586
vn 0.963794 -0.264116 -0.036649
vn 0.492958 -0.861795 -0.119586
vn 0.963794 -0.264116 -0.036649
vn 0.000000 0.961885 0.273453
vn 0.000000 0.990914 0.134498
vn -0.000000 0.997421 0.071775
vn 0.000000 0.961885 0.273453
vn -0.000000 0.997421 0.071775
vn 0.000000 0.961885 0.273453
vn 0.000000 0.981555 -0.191180
vn 0.000000 0.981555 -0.191180
vn -0.000000 0.997421 0.071775
vn 0.000000 0.981555 -0.191180
vn -0.000000 0.997421 0.071775
vn 0.000000 0.990914 0.134498
vn 0.000000 0.981555 -0.191180
vn 0.458577 0.857989 -0.231436
vn 0.415267 0.798214 -0.436357
vn 0.000000 0.981555 -0.191180
vn 0.415267 0.798214 -0.436357
vn 0.000000 0.929566 -0.368655
vn 0.000000 0.981555 -0.191180
vn 0.000000 0.981555 -0.191180
vn 0.000000 0.929566 -0.368655
vn 0.000000 0.981555 -0.191180
vn 0.000000 0.929566 -0.368655
vn 0.000000 0.929566 -0.368655
vn 0.000000 0.981555 -0.191180
vn 0.000000 0.981555 -0.191180
vn 0.000000 0.929566 -0.368655
vn 0.000000 0.981555 -0.191180
vn 0.000000 0.929566 -0.368655
vn 0.000000 0.929566 -0.368655
vn 0.000000 0.981555 -0.191180
vn 0.000000 0.981555 -0.191180
vn 0.000000 0.929566 -0.368655
vn 0.000000 0.981555 -0.191180
vn 0.000000 0.929566 -0.368655
vn 0.000000 0.929566 -0.368655
vn 0.000000 0.990914 0.134498
vn 0.000000 0.997421 0.071775
vn 0.000000 0.981555 -0.191180
vn 0.000000 0.990914 0.134498
vn 0.000000 0.981555 -0.191180
vn 0.000000 0.981555 -0.191180
vn 0.000000 0.961885 0.273453
vn 0.000000 0.961885 0.273453
vn 0.000000 0.961885 0.273453
vn 0.000000 0.961885 0.273453
vn 0.000000 0.961885 0.273453
vn 0.000000 0.961885 0.273453
vn 0.000000 0.000000 1.000000
vn 0.000000 0.000000 1.000000
vn 0.000000 0.000000 1.000000
vn 0.000000 0.000000 1.000000
vn 0.000000 0.000000 1.000000
vn 0.000000 0.000000 1.000000
vn 0.492958 -0.861795 -0.119586
vn 0.000000 -0.990509 -0.137447
vn 0.000000 -0.990509 -0.137447
vn 0.492958 -0.861795 -0.119586
vn 0.000000 -0.990509 -0.137447
vn 0.492958 -0.861795 -0.119586
vn 0.000000 -0.990509 -0.137447
vn 0.000000 -0.990509 -0.137447
vn 0.000000 -0.990509 -0.137447
vn 0.000000 -0.990509 -0.137447
vn 0.000000 -0.990509 -0.137447
vn 0.000000 -0.990509 -0.137447
vn 0.000000 0.166848 0.985983
vn 0.000000 0.544396 0.838829
vn 0.000000 0.544396 0.838829
vn 0.000000 0.166848 0.985983
vn 0.000000 0.544396 0.838829
vn 0.000000 0.166848 0.985983
vn -0.000000 0.999663 0.025951
vn -0.000000 0.999956 0.009394
vn 0.000000 0.997421 0.071775
vn -0.000000 0.999663 0.025951
vn 0.000000 0.997421 0.071775
vn 0.000000 0.999663 0.025951
vn 0.000000 0.981555 -0.191180
vn 0.000000 0.981555 -0.191180
vn 0.000000 0.997421 0.071775
vn 0.000000 0.981555 -0.191180
vn 0.000000 0.997421 0.071775
vn -0.000000 0.999956 0.009394
vn 0.000000 0.929566 -0.368655
vn 0.000000 0.929566 -0.368655
vn 0.000000 0.981555 -0.191180
vn 0.000000 0.929566 -0.368655
vn 0.000000 0.981555 -0.191180
vn 0.000000 0.981555 -0.191180
vn 0.965675 0.249810 0.071178
vn 0.963468 0.265708 0.033598
vn 0.493241 0.862350 0.114305
vn 0.965675 0.249810 0.071178
vn 0.493241 0.862350 0.114305
vn 0.499162 0.833435 0.237114
vn 0.499162 0.833435 0.237114
vn 0.493241 0.862350 0.114305
vn 0.000000 0.990914 0.134498
vn 0.499162 0.833435 0.237114
vn 0.000000 0.990914 0.134498
vn 0.000000 0.961885 0.273453
vn 0.000000 0.961885 0.273453
vn 0.000000 0.961885 0.273453
vn 0.000000 0.961885 0.273453
vn 0.000000 0.961885 0.273453
vn 0.000000 0.961885 0.273453
vn 0.000000 0.961885 0.273453
vn 0.987111 0.153935 0.043762
vn 0.987111 0.153935 0.043762
vn 0.987111 0.153935 0.043762
vn -0.000000 0.999663 0.025951
vn -0.000000 0.997421 0.071775
vn -0.000000 0.999956 0.009394
vn -0.000000 0.999663 0.025951
vn -0.000000 0.999956 0.009394
vn -0.000000 0.999663 0.025951
vn -0.981818 0.156008 0.108143
vn -0.985344 0.156558 0.067722
vn -0.989795 0.103170 0.098298
vn -0.499162 0.833435 0.237114
vn -0.493240 0.862350 0.114305
vn -0.963468 0.265708 0.033598
vn -0.499162 0.833435 0.237114
vn -0.963468 0.265708 0.033598
vn -0.965675 0.249810 0.071178
vn 0.000000 0.961885 0.273453
vn 0.000000 0.961885 0.273453
vn 0.000000 0.961885 0.273453
vn 0.000000 0.961885 0.273453
vn 0.000000 0.961885 0.273453
vn 0.000000 0.961885 0.273453
vn 0.000000 0.961886 0.273453
vn 0.000000 0.997421 0.071775
vn 0.000000 0.990914 0.134498
vn 0.000000 0.961886 0.273453
vn 0.000000 0.990914 0.134498
vn 0.000000 0.961885 0.273453
vn -0.500714 0.832573 0.236869
vn -0.499162 0.833435 0.237114
vn -0.965675 0.249810 0.071178
vn -0.500714 0.832573 0.236869
vn -0.965675 0.249810 0.071178
vn -0.966139 0.248145 0.070704
vn 0.000000 0.961885 0.273453
vn 0.000000 0.961885 0.273453
vn -0.499162 0.833435 0.237114
vn 0.000000 0.961885 0.273453
vn -0.499162 0.833435 0.237114
vn -0.500714 0.832573 0.236869
vn 0.000000 0.961885 0.273453
vn 0.000000 0.961886 0.273453
vn 0.000000 0.961885 0.273453
vn 0.000000 0.961885 0.273453
vn 0.000000 0.961885 0.273453
vn 0.000000 0.961885 0.273453
vn -0.987111 0.153935 0.043762
vn -0.987111 0.153935 0.043762
vn -0.987111 0.153935 0.043762
vn -0.987111 0.153935 0.043762
vn -0.987111 0.153935 0.043762
vn -0.987111 0.153935 0.043762
vn -0.000000 0.999663 0.025951
vn -0.000000 0.999663 0.025951
vn 0.000000 0.999663 0.025951
vn -0.000000 0.999663 0.025951
vn 0.000000 0.999663 0.025951
vn 0.000000 0.999663 0.025951
vn -0.000000 0.999663 0.025951
vn -0.000000 0.999663 0.025951
vn -0.000000 0.999663 0.025951
vn -0.000000 0.999663 0.025951
vn -0.000000 0.999663 0.025951
vn -0.000000 0.999663 0.025951
vn 0.987111 0.153935 0.043762
vn 0.987111 0.153935 0.043762
vn 0.987111 0.153935 0.043762
vn 0.987111 0.153935 0.043762
vn 0.987111 0.153935 0.043762
vn 0.987111 0.153935 0.043762
vn 0.000000 0.961885 0.273453
vn 0.000000 0.961885 0.273453
vn 0.000000 0.961885 0.273453
vn 0.000000 0.961885 0.273453
vn 0.000000 0.961885 0.273453
vn 0.000000 0.961885 0.273453
vn 0.500714 0.832573 0.236869
vn 0.499162 0.833435 0.237114
vn 0.000000 0.961885 0.273453
vn 0.500714 0.832573 0.236869
vn 0.000000 0.961885 0.273453
vn 0.000000 0.961885 0.273453
vn 0.966139 0.248145 0.070704
vn 0.965675 0.249810 0.071178
vn 0.499162 0.833435 0.237114
vn 0.966139 0.248145 0.070704
vn 0.499162 0.833435 0.237114
vn 0.500714 0.832573 0.236869
vn 0.966594 0.246500 0.070235
vn 0.966139 0.248145 0.070704
vn 0.500714 0.832573 0.236869
vn 0.966594 0.246500 0.070235
vn 0.500714 0.832573 0.236869
vn 0.868609 0.476532 0.135778
vn 0.000000 0.961885 0.273453
vn 0.500714 0.832573 0.236869
vn 0.000000 0.961885 0.273453
vn 0.000000 0.961885 0.273453
vn 0.000000 0.961885 0.273453
vn 0.000000 0.961885 0.273453
vn 0.987111 0.153935 0.043762
vn 0.987111 0.153935 0.043762
vn 0.987111 0.153935 0.043762
vn 0.987111 0.153935 0.043762
vn 0.987111 0.153935 0.043762
vn 0.987111 0.153935 0.043762
vn 0.000000 0.961885 0.273453
vn 0.000000 0.961885 0.273453
vn 0.000000 0.961885 0.273453
vn 0.000000 0.961885 0.273453
vn 0.000000 0.961885 0.273453
vn 0.000000 0.961885 0.273453
vn -0.000000 0.999663 0.025951
vn -0.000000 0.999663 0.025951
vn -0.000000 0.999663 0.025951
vn -0.000000 0.999663 0.025951
vn -0.000000 0.999663 0.025951
vn -0.000000 0.999663 0.025951
vn -0.000000 0.999663 0.025951
vn -0.000000 0.999663 0.025951
vn 0.000000 0.999663 0.025951
vn -0.000000 0.999663 0.025951
vn 0.000000 0.999663 0.025951
vn 0.000000 0.999663 0.025951
vn -0.987111 0.153935 0.043762
vn -0.987111 0.153935 0.043762
vn -0.987111 0.153935 0.043762
vn -0.987111 0.153935 0.043762
vn -0.987111 0.153935 0.043762
vn -0.987111 0.153935 0.043762
vn 0.000000 0.961885 0.273453
vn 0.000000 0.961885 0.273453
vn 0.000000 0.961885 0.273453
vn 0.000000 0.961885 0.273453
vn 0.000000 0.961885 0.273453
vn 0.000000 0.961885 0.273453
vn -0.868609 0.476532 0.135778
vn -0.500714 0.832573 0.236869
vn -0.966139 0.248145 0.070704
vn -0.868609 0.476532 0.135778
vn -0.966139 0.248145 0.070704
vn -0.966594 0.246500 0.070235
vn 0.000000 0.961885 0.273453
vn 0.000000 0.961885 0.273453
vn -0.500714 0.832573 0.236869
vn 0.000000 0.961885 0.273453
vn -0.500714 0.832573 0.236869
vn 0.000000 0.961885 0.273453
vn -0.000000 0.967093 0.254424
vn 0.000000 0.812927 0.582366
vn 0.000000 0.812927 0.582366
vn -0.000000 0.967093 0.254424
vn 0.000000 0.812927 0.582366
vn -0.000000 0.967093 0.254424
vn 0.000000 0.166848 0.985983
vn 0.000000 0.544396 0.838829
vn 0.000000 0.544396 0.838829
vn 0.000000 0.166848 0.985983
vn 0.000000 0.544396 0.838829
vn 0.000000 0.166848 0.985983
vn -0.000000 0.967093 0.254424
vn -0.000000 0.999663 0.025951
vn -0.000000 0.999663 0.025951
vn -0.000000 0.967093 0.254424
vn -0.000000 0.999663 0.025951
vn -0.000000 0.967093 0.254424
vn -0.000000 0.967093 0.254424
vn -0.000000 0.999663 0.025951
vn 0.000000 0.999663 0.025951
vn -0.000000 0.967093 0.254424
vn 0.000000 0.999663 0.025951
vn 0.000000 0.967093 0.254424
vn 0.989795 0.103170 0.098298
vn 0.987111 0.153935 0.043762
vn 0.987111 0.153935 0.043762
vn 0.989795 0.103170 0.098298
vn 0.987111 0.153935 0.043762
vn 0.985344 0.156558 0.067722
vn -0.985344 0.156558 0.067722
vn -0.987111 0.153935 0.043762
vn -0.987111 0.153935 0.043762
vn -0.985344 0.156558 0.067722
vn -0.987111 0.153935 0.043762
vn -0.989795 0.103170 0.098298
vn 0.993410 0.016201 0.113464
vn 0.993919 0.000000 0.110115
vn 0.993919 0.000000 0.110115
vn 0.000000 0.166848 0.985983
vn 0.000000 0.166848 0.985983
vn 0.000000 0.000000 1.000000
vn 0.000000 0.166848 0.985983
vn 0.000000 0.000000 1.000000
vn 0.000000 0.000000 1.000000
vn -0.993410 0.016201 0.113464
vn -0.989795 0.103170 0.098298
vn -0.993919 0.000000 0.110115
vn 0.000034 0.137440 -0.990510
vn 0.000011 0.137430 -0.990511
vn 0.000011 0.137430 -0.990511
vn 0.000034 0.137440 -0.990510
vn 0.000011 0.137430 -0.990511
vn 0.000034 0.137440 -0.990510
vn 0.000011 0.137430 -0.990511
vn 0.000000 0.137424 -0.990512
vn 0.000000 0.137424 -0.990512
vn 0.000011 0.137430 -0.990511
vn 0.000000 0.137424 -0.990512
vn 0.000011 0.137430 -0.990511
vn 0.000000 0.137424 -0.990512
vn 0.000000 0.137424 -0.990512
vn 0.000000 0.137424 -0.990512
vn 0.000000 0.137424 -0.990512
vn 0.000000 0.137424 -0.990512
vn 0.000000 0.137424 -0.990512
vn 0.000000 0.137424 -0.990512
vn 0.000000 0.137424 -0.990512
vn 0.000000 0.137424 -0.990512
vn 0.000000 0.137424 -0.990512
vn 0.000000 0.137424 -0.990512
vn 0.000000 0.137424 -0.990512
vn 0.000000 0.137424 -0.990512
vn 0.000000 0.137424 -0.990512
vn 0.000000 0.137424 -0.990512
vn 0.000000 0.137424 -0.990512
vn 0.000000 0.137424 -0.990512
vn 0.000000 0.137424 -0.990512
vn 0.000000 0.137424 -0.990512
vn 0.000000 0.137424 -0.990512
vn 0.000000 0.137424 -0.990512
vn 0.000000 0.137424 -0.990512
vn 0.000000 0.137424 -0.990512
vn 0.000000 0.137424 -0.990512
vn 0.000000 0.137424 -0.990512
vn -0.000011 0.137430 -0.990511
vn -0.000011 0.137430 -0.990511
vn 0.000000 0.137424 -0.990512
vn -0.000011 0.137430 -0.990511
vn 0.000000 0.137424 -0.990512
vn -0.000011 0.137430 -0.990511
vn -0.000034 0.137440 -0.990510
vn -0.000034 0.137440 -0.990510
vn -0.000011 0.137430 -0.990511
vn -0.000034 0.137440 -0.990510
vn -0.000011 0.137430 -0.990511
vn -0.000034 0.137440 -0.990510
vn -0.000034 0.137453 -0.990508
vn -0.000034 0.137453 -0.990508
vn -0.000034 0.137440 -0.990510
vn -0.000034 0.137453 -0.990508
vn -0.000034 0.137440 -0.990510
vn -0.000034 0.137453 -0.990508
vn -0.000012 0.137469 -0.990506
vn -0.000012 0.137469 -0.990506
vn -0.000034 0.137453 -0.990508
vn -0.000012 0.137469 -0.990506
vn -0.000034 0.137453 -0.990508
vn -0.000012 0.137469 -0.990506
vn 0.000012 0.137469 -0.990506
vn 0.000012 0.137469 -0.990506
vn -0.000012 0.137469 -0.990506
vn 0.000012 0.137469 -0.990506
vn -0.000012 0.137469 -0.990506
vn 0.000012 0.137469 -0.990506
vn 0.000034 0.137453 -0.990508
vn 0.000034 0.137453 -0.990508
vn 0.000012 0.137469 -0.990506
vn 0.000034 0.137453 -0.990508
vn 0.000012 0.137469 -0.990506
vn 0.000034 0.137453 -0.990508
vn 0.000034 0.137440 -0.990510
vn 0.000034 0.137440 -0.990510
vn 0.000034 0.137453 -0.990508
vn 0.000034 0.137440 -0.990510
vn 0.000034 0.137453 -0.990508
vn -0.965625 0.257473 0.035728
vn -0.498995 0.858380 0.119113
vn -0.498995 0.858380 0.119113
vn -0.965625 0.257473 0.035728
vn -0.498995 0.858380 0.119113
vn -0.965625 0.257473 0.035728
vn -0.963795 -0.264113 -0.036649
vn -0.965625 0.257473 0.035728
vn -0.965625 0.257473 0.035728
vn -0.963795 -0.264113 -0.036649
vn -0.965625 0.257473 0.035728
vn -0.963795 -0.264113 -0.036649
vn -0.492961 -0.861794 -0.119585
vn -0.963795 -0.264113 -0.036649
vn -0.963795 -0.264113 -0.036649
vn -0.492961 -0.861794 -0.119585
vn -0.963795 -0.264113 -0.036649
vn -0.492961 -0.861794 -0.119585
vn 0.000000 -0.990509 -0.137447
vn -0.492961 -0.861794 -0.119585
vn -0.492961 -0.861794 -0.119585
vn 0.000000 -0.990509 -0.137447
vn -0.492961 -0.861794 -0.119585
vn 0.000000 -0.990509 -0.137447
f 116/1/1 115/2/2 105/3/3
f 116/4/4 105/5/5 11/6/6
f 115/7/7 1/8/8 5/9/9
f 115/10/10 5/11/11 105/12/12
f 11/13/13 40/14/14 13/15/15
f 11/16/16 13/17/17 116/18/18
f 113/19/19 112/20/20 96/21/21
f 113/22/22 96/23/23 98/24/24
f 112/25/25 114/26/26 97/27/27
f 112/28/28 97/29/29 96/30/30
f 114/31/31 20/32/32 42/33/33
f 114/34/34 42/35/35 97/36/36
f 45/37/37 49/38/38 111/39/39
f 44/40/40 47/41/41 109/42/42
f 54/43/43 52/44/44 48/45/45
f 54/46/46 73/47/47 107/48/48
f 54/49/49 107/50/50 52/51/51
f 73/52/52 51/53/53 53/54/54
f 73/55/55 53/56/56 107/57/57
f 128/58/58 129/59/59 141/60/60
f 128/61/61 141/62/62 3/63/63
f 141/64/64 140/65/65 139/66/66
f 141/67/67 139/68/68 138/69/69
f 141/70/70 138/71/71 137/72/72
f 141/73/73 137/74/74 136/75/75
f 141/76/76 136/77/77 135/78/78
f 141/79/79 135/80/80 134/81/81
f 141/82/82 134/83/83 133/84/84
f 141/85/85 133/86/86 132/87/87
f 141/88/88 132/89/89 130/90/90
f 141/91/91 130/92/92 131/93/93
f 141/94/94 131/95/95 3/96/96
f 67/97/97 41/98/98 30/99/99
f 67/100/100 30/101/101 65/102/102
f 12/103/103 10/104/104 17/105/105
f 12/106/106 17/107/107 9/108/108
f 98/109/109 24/110/110 113/111/111
f 39/112/112 7/113/113 25/114/114
f 39/115/115 25/116/116 40/117/117
f 15/118/118 16/119/119 10/120/120
f 15/121/121 10/122/122 12/123/123
f 15/124/124 12/125/125 13/126/126
f 15/127/127 13/128/128 18/129/129
f 9/130/130 14/131/131 13/132/132
f 9/133/133 13/134/134 12/135/135
f 51/136/136 47/137/137 53/138/138
f 127/139/139 128/140/140 3/141/141
f 127/142/142 3/143/143 131/144/144
f 17/145/145 10/146/146 20/147/147
f 17/148/148 20/149/149 19/150/150
f 16/151/151 21/152/152 20/153/153
f 16/154/154 20/155/155 10/156/156
f 42/157/157 27/158/158 30/159/159
f 42/160/160 30/161/161 41/162/162
f 40/163/163 25/164/164 18/165/165
f 40/166/166 18/167/167 13/168/168
f 23/169/169 1/170/170 115/171/171
f 23/172/172 115/173/173 116/174/174
f 23/175/175 116/176/176 13/177/177
f 23/178/178 13/179/179 14/180/180
f 23/181/181 14/182/182 6/183/183
f 58/184/184 28/185/185 26/186/186
f 58/187/187 26/188/188 57/189/189
f 22/190/190 19/191/191 20/192/192
f 22/193/193 20/194/194 114/195/195
f 22/196/196 114/197/197 112/198/198
f 22/199/199 112/200/200 113/201/201
f 22/202/202 113/203/203 24/204/204
f 23/205/205 6/206/206 26/207/207
f 23/208/208 26/209/209 28/210/210
f 8/211/211 29/212/212 22/213/213
f 8/214/214 22/215/215 24/216/216
f 4/217/217 22/218/218 29/219/219
f 6/220/220 2/221/221 26/222/222
f 25/223/223 31/224/224 32/225/225
f 25/226/226 32/227/227 18/228/228
f 34/229/229 27/230/230 21/231/231
f 34/232/232 21/233/233 33/234/234
f 35/235/235 33/236/236 21/237/237
f 35/238/238 21/239/239 16/240/240
f 32/241/241 36/242/242 15/243/243
f 32/244/244 15/245/245 18/246/246
f 36/247/247 35/248/248 16/249/249
f 36/250/250 16/251/251 15/252/252
f 34/253/253 37/254/254 30/255/255
f 34/256/256 30/257/257 27/258/258
f 63/259/259 38/260/260 7/261/261
f 63/262/262 7/263/263 60/264/264
f 38/265/265 31/266/266 25/267/267
f 38/268/268 25/269/269 7/270/270
f 27/271/271 42/272/272 20/273/273
f 27/274/274 20/275/275 21/276/276
f 95/277/277 8/278/278 24/279/279
f 95/280/280 24/281/281 98/282/282
f 100/283/283 59/284/284 39/285/285
f 100/286/286 39/287/287 104/288/288
f 5/289/289 23/290/290 28/291/291
f 5/292/292 28/293/293 103/294/294
f 1/295/295 23/296/296 5/297/297
f 92/298/298 69/299/299 8/300/300
f 92/301/301 8/302/302 95/303/303
f 68/304/304 29/305/305 8/306/306
f 68/307/307 8/308/308 69/309/309
f 129/310/310 117/311/311 140/312/312
f 129/313/313 140/314/314 141/315/315
f 79/316/316 46/317/317 77/318/318
f 47/319/319 108/320/320 53/321/321
f 47/322/322 51/323/323 109/324/324
f 119/325/325 120/326/326 137/327/327
f 119/328/328 137/329/329 138/330/330
f 72/331/331 52/332/332 107/333/333
f 72/334/334 107/335/335 106/336/336
f 120/337/337 121/338/338 136/339/339
f 120/340/340 136/341/341 137/342/342
f 110/343/343 74/344/344 50/345/345
f 110/346/346 50/347/347 109/348/348
f 48/349/349 111/350/350 54/351/351
f 121/352/352 122/353/353 135/354/354
f 121/355/355 135/356/356 136/357/357
f 60/358/358 7/359/359 39/360/360
f 60/361/361 39/362/362 59/363/363
f 71/364/364 43/365/365 55/366/366
f 71/367/367 55/368/368 70/369/369
f 69/370/370 47/371/371 44/372/372
f 69/373/373 44/374/374 68/375/375
f 117/376/376 118/377/377 139/378/378
f 117/379/379 139/380/380 140/381/381
f 91/382/382 67/383/383 43/384/384
f 91/385/385 43/386/386 88/387/387
f 65/388/388 55/389/389 43/390/390
f 65/391/391 43/392/392 67/393/393
f 65/394/394 30/395/395 37/396/396
f 65/397/397 37/398/398 66/399/399
f 55/400/400 65/401/401 66/402/402
f 55/403/403 66/404/404 64/405/405
f 70/406/406 55/407/407 64/408/408
f 70/409/409 64/410/410 61/411/411
f 60/412/412 56/413/413 62/414/414
f 60/415/415 62/416/416 63/417/417
f 59/418/418 46/419/419 56/420/420
f 59/421/421 56/422/422 60/423/423
f 101/424/424 58/425/425 48/426/426
f 101/427/427 48/428/428 76/429/429
f 57/430/430 45/431/431 48/432/432
f 57/433/433 48/434/434 58/435/435
f 118/436/436 119/437/437 138/438/438
f 118/439/439 138/440/440 139/441/441
f 122/442/442 123/443/443 134/444/444
f 122/445/445 134/446/446 135/447/447
f 109/448/448 51/449/449 73/450/450
f 109/451/451 73/452/452 110/453/453
f 83/454/454 71/455/455 46/456/456
f 83/457/457 46/458/458 79/459/459
f 70/460/460 56/461/461 46/462/462
f 70/463/463 46/464/464 71/465/465
f 61/466/466 62/467/467 56/468/468
f 61/469/469 56/470/470 70/471/471
f 97/472/472 42/473/473 41/474/474
f 97/475/475 41/476/476 94/477/477
f 94/478/478 41/479/479 67/480/480
f 94/481/481 67/482/482 91/483/483
f 89/484/484 47/485/485 69/486/486
f 89/487/487 69/488/488 92/489/489
f 88/490/490 43/491/491 85/492/492
f 85/493/493 43/494/494 71/495/495
f 85/496/496 71/497/497 83/498/498
f 52/499/499 72/500/500 48/501/501
f 104/502/502 39/503/503 40/504/504
f 104/505/505 40/506/506 11/507/507
f 103/508/508 28/509/509 58/510/510
f 103/511/511 58/512/512 101/513/513
f 77/514/514 46/515/515 59/516/516
f 77/517/517 59/518/518 100/519/519
f 102/520/520 104/521/521 11/522/522
f 102/523/523 11/524/524 105/525/525
f 99/526/526 100/527/527 104/528/528
f 99/529/529 104/530/530 102/531/531
f 75/532/532 77/533/533 100/534/534
f 75/535/535 100/536/536 99/537/537
f 78/538/538 79/539/539 77/540/540
f 78/541/541 77/542/542 75/543/543
f 81/544/544 83/545/545 79/546/546
f 81/547/547 79/548/548 78/549/549
f 84/550/550 85/551/551 83/552/552
f 84/553/553 83/554/554 81/555/555
f 87/556/556 88/557/557 85/558/558
f 87/559/559 85/560/560 84/561/561
f 90/562/562 91/563/563 88/564/564
f 90/565/565 88/566/566 87/567/567
f 93/568/568 94/569/569 91/570/570
f 93/571/571 91/572/572 90/573/573
f 96/574/574 97/575/575 94/576/576
f 96/577/577 94/578/578 93/579/579
f 98/580/580 96/581/581 93/582/582
f 98/583/583 93/584/584 95/585/585
f 95/586/586 93/587/587 90/588/588
f 95/589/589 90/590/590 92/591/591
f 89/592/592 87/593/593 84/594/594
f 89/595/595 84/596/596 86/597/597
f 92/598/598 90/599/599 87/600/600
f 92/601/601 87/602/602 89/603/603
f 86/604/604 84/605/605 81/606/606
f 86/607/607 81/608/608 82/609/609
f 82/610/610 81/611/611 78/612/612
f 82/613/613 78/614/614 80/615/615
f 80/616/616 78/617/617 75/618/618
f 80/619/619 75/620/620 76/621/621
f 76/622/622 75/623/623 99/624/624
f 76/625/625 99/626/626 101/627/627
f 103/628/628 102/629/629 105/630/630
f 103/631/631 105/632/632 5/633/633
f 101/634/634 99/635/635 102/636/636
f 101/637/637 102/638/638 103/639/639
f 106/640/640 107/641/641 53/642/642
f 106/643/643 53/644/644 108/645/645
f 110/646/646 73/647/647 54/648/648
f 110/649/649 54/650/650 111/651/651
f 108/652/652 86/653/653 82/654/654
f 108/655/655 82/656/656 106/657/657
f 106/658/658 82/659/659 80/660/660
f 106/661/661 80/662/662 72/663/663
f 47/664/664 89/665/665 86/666/666
f 47/667/667 86/668/668 108/669/669
f 72/670/670 80/671/671 76/672/672
f 72/673/673 76/674/674 48/675/675
f 109/676/676 50/677/677 44/678/678
f 110/679/679 111/680/680 49/681/681
f 110/682/682 49/683/683 74/684/684
f 111/685/685 48/686/686 45/687/687
f 31/688/688 38/689/689 118/690/690
f 31/691/691 118/692/692 117/693/693
f 38/694/694 63/695/695 119/696/696
f 38/697/697 119/698/698 118/699/699
f 63/700/700 62/701/701 120/702/702
f 63/703/703 120/704/704 119/705/705
f 62/706/706 61/707/707 121/708/708
f 62/709/709 121/710/710 120/711/711
f 61/712/712 64/713/713 122/714/714
f 61/715/715 122/716/716 121/717/717
f 64/718/718 66/719/719 123/720/720
f 64/721/721 123/722/722 122/723/723
f 66/724/724 37/725/725 124/726/726
f 66/727/727 124/728/728 123/729/729
f 37/730/730 34/731/731 125/732/732
f 37/733/733 125/734/734 124/735/735
f 34/736/736 33/737/737 126/738/738
f 34/739/739 126/740/740 125/741/741
f 33/742/742 35/743/743 127/744/744
f 33/745/745 127/746/746 126/747/747
f 35/748/748 36/749/749 128/750/750
f 35/751/751 128/752/752 127/753/753
f 36/754/754 32/755/755 129/756/756
f 36/757/757 129/758/758 128/759/759
f 32/760/760 31/761/761 117/762/762
f 32/763/763 117/764/764 129/765/765
f 126/766/766 127/767/767 131/768/768
f 126/769/769 131/770/770 130/771/771
f 125/772/772 126/773/773 130/774/774
f 125/775/775 130/776/776 132/777/777
f 124/778/778 125/779/779 132/780/780
f 124/781/781 132/782/782 133/783/783
f 123/784/784 124/785/785 133/786/786
f 123/787/787 133/788/788 134/789/789
