v 8.000000 8.000000 -8.000000
v 16.000000 8.000000 -8.000001
v 16.000000 15.000000 8.000000
v 16.000000 15.000000 -8.000001
v 8.000000 15.000000 8.000000
v 8.000000 15.000000 -8.000000
v 8.000000 15.000000 -7.000000
v 8.000000 15.000000 7.000000
v 16.000000 8.000000 3.000000
v 8.000000 8.000000 3.000000
vt 0.000000 0.000000
vt 0.000000 0.000000
vt 0.000000 0.000000
vt 0.000000 0.000000
vt 0.000000 0.000000
vt 0.000000 0.000000
vt 0.000000 0.000000
vt 0.000000 0.000000
vt 0.000000 0.000000
vt 0.000000 0.000000
vt 0.000000 0.000000
vt 0.000000 0.000000
vt 0.000000 0.000000
vt 0.000000 0.000000
vt 0.000000 0.000000
vt 0.000000 0.000000
vt 0.000000 0.000000
vt 0.000000 0.000000
vn 0.000000 -1.000000 0.000000
vn 0.000000 -1.000000 0.000000
vn 0.000000 -1.000000 0.000000
vn 0.000000 -1.000000 0.000000
vn 0.000000 -1.000000 0.000000
vn 0.000000 -1.000000 0.000000
vn 0.000000 -1.000000 0.000000
vn 0.000000 -1.000000 0.000000
vn 0.000000 -1.000000 0.000000
vn 0.000000 -1.000000 0.000000
vn 0.000000 -1.000000 0.000000
vn 0.000000 -1.000000 0.000000
vn 0.000000 -1.000000 0.000000
vn 0.000000 -1.000000 0.000000
vn 0.000000 -1.000000 0.000000
vn 0.000000 -1.000000 0.000000
vn 0.000000 -1.000000 0.000000
vn 0.000000 -1.000000 0.000000
f 5/1/1 8/2/2 7/3/3
f 5/4/4 7/5/5 6/6/6
f 5/7/7 6/8/8 4/9/9
f 5/10/10 4/11/11 3/12/12
f 10/13/13 1/14/14 2/15/15
f 10/16/16 2/17/17 9/18/18
