v -2.500000 1.498327 -2.500000
v -2.500000 1.498327 0.008243
v -2.500000 10.500000 -2.500000
v -2.500000 10.500000 0.008243
v 2.500000 1.498327 -2.500000
v 2.500000 1.498327 0.008243
v 2.500000 10.500000 -2.500000
v 2.500000 10.500000 0.008243
v 2.500000 2.503891 -2.183961
v 2.500000 9.496906 -2.183961
v 2.500000 2.503891 -0.307795
v 2.500000 9.496906 -0.307795
v -2.499945 2.503891 -2.183961
v -2.499945 9.496906 -2.183961
v -2.499945 2.503891 -0.307795
v -2.499945 9.496906 -0.307795
v -0.727413 9.496906 -2.183961
v -0.831360 10.500000 -2.500000
v -0.727413 2.503891 -2.183961
v 0.001480 1.498327 -2.500000
v -0.102420 9.496906 -2.183961
v 0.001480 10.500000 -2.500000
v -0.831360 1.498327 -2.500000
v -0.102420 2.503891 -2.183961
v -0.831360 10.500000 -7.483513
v -0.831360 1.498327 -7.483513
v 0.001480 10.500000 -7.483513
v 0.001480 1.498327 -7.483513
v -0.727413 2.503891 -7.478944
v -0.727413 9.496906 -7.478944
v -0.102420 2.503891 -7.478944
v -0.102420 9.496906 -7.478944
vt 0.000000 0.000000
vt 0.000000 0.000000
vt 0.000000 0.000000
vt 0.000000 0.000000
vt 0.000000 0.000000
vt 0.000000 0.000000
vt 0.000000 0.000000
vt 0.000000 0.000000
vt 0.000000 0.000000
vt 0.000000 0.000000
vt 0.000000 0.000000
vt 0.000000 0.000000
vt 0.000000 0.000000
vt 0.000000 0.000000
vt 0.000000 0.000000
vt 0.000000 0.000000
vt 0.000000 0.000000
vt 0.000000 0.000000
vt 0.000000 0.000000
vt 0.000000 0.000000
vt 0.000000 0.000000
vt 0.000000 0.000000
vt 0.000000 0.000000
vt 0.000000 0.000000
vt 0.000000 0.000000
vt 0.000000 0.000000
vt 0.000000 0.000000
vt 0.000000 0.000000
vt 0.000000 0.000000
vt 0.000000 0.000000
vt 0.000000 0.000000
vt 0.000000 0.000000
vt 0.000000 0.000000
vt 0.000000 0.000000
vt 0.000000 0.000000
vt 0.000000 0.000000
vt 0.000000 0.000000
vt 0.000000 0.000000
vt 0.000000 0.000000
vt 0.000000 0.000000
vt 0.000000 0.000000
vt 0.000000 0.000000
vt 0.000000 0.000000
vt 0.000000 0.000000
vt 0.000000 0.000000
vt 0.000000 0.000000
vt 0.000000 0.000000
vt 0.000000 0.000000
vt 0.000000 0.000000
vt 0.000000 0.000000
vt 0.000000 0.000000
vt 0.000000 0.000000
vt 0.000000 0.000000
vt 0.000000 0.000000
vt 0.000000 0.000000
vt 0.000000 0.000000
vt 0.000000 0.000000
vt 0.000000 0.000000
vt 0.000000 0.000000
vt 0.000000 0.000000
vt 0.000000 0.000000
vt 0.000000 0.000000
vt 0.000000 0.000000
vt 0.000000 0.000000
vt 0.000000 0.000000
vt 0.000000 0.000000
vt 0.000000 0.000000
vt 0.000000 0.000000
vt 0.000000 0.000000
vt 0.000000 0.000000
vt 0.000000 0.000000
vt 0.000000 0.000000
vt 0.000000 0.000000
vt 0.000000 0.000000
vt 0.000000 0.000000
vt 0.000000 0.000000
vt 0.000000 0.000000
vt 0.000000 0.000000
vt 0.000000 0.000000
vt 0.000000 0.000000
vt 0.000000 0.000000
vt 0.000000 0.000000
vt 0.000000 0.000000
vt 0.000000 0.000000
vt 0.000000 0.000000
vt 0.000000 0.000000
vt 0.000000 0.000000
vt 0.000000 0.000000
vt 0.000000 0.000000
vt 0.000000 0.000000
vt 0.000000 0.000000
vt 0.000000 0.000000
vt 0.000000 0.000000
vt 0.000000 0.000000
vt 0.000000 0.000000
vt 0.000000 0.000000
vt 0.000000 0.000000
vt 0.000000 0.000000
vt 0.000000 0.000000
vt 0.000000 0.000000
vt 0.000000 0.000000
vt 0.000000 0.000000
vt 0.000000 0.000000
vt 0.000000 0.000000
vt 0.000000 0.000000
vt 0.000000 0.000000
vt 0.000000 0.000000
vt 0.000000 0.000000
vt 0.000000 0.000000
vt 0.000000 0.000000
vt 0.000000 0.000000
vt 0.000000 0.000000
vt 0.000000 0.000000
vt 0.000000 0.000000
vt 0.000000 0.000000
vt 0.000000 0.000000
vt 0.000000 0.000000
vt 0.000000 0.000000
vt 0.000000 0.000000
vt 0.000000 0.000000
vt 0.000000 0.000000
vt 0.000000 0.000000
vt 0.000000 0.000000
vt 0.000000 0.000000
vt 0.000000 0.000000
vt 0.000000 0.000000
vt 0.000000 0.000000
vt 0.000000 0.000000
vt 0.000000 0.000000
vt 0.000000 0.000000
vt 0.000000 0.000000
vt 0.000000 0.000000
vt 0.000000 0.000000
vt 0.000000 0.000000
vt 0.000000 0.000000
vt 0.000000 0.000000
vt 0.000000 0.000000
vt 0.000000 0.000000
vt 0.000000 0.000000
vt 0.000000 0.000000
vt 0.000000 0.000000
vt 0.000000 0.000000
vt 0.000000 0.000000
vt 0.000000 0.000000
vt 0.000000 0.000000
vt 0.000000 0.000000
vt 0.000000 0.000000
vt 0.000000 0.000000
vt 0.000000 0.000000
vt 0.000000 0.000000
vt 0.000000 0.000000
vt 0.000000 0.000000
vt 0.000000 0.000000
vt 0.000000 0.000000
vt 0.000000 0.000000
vt 0.000000 0.000000
vt 0.000000 0.000000
vt 0.000000 0.000000
vt 0.000000 0.000000
vt 0.000000 0.000000
vt 0.000000 0.000000
vt 0.000000 0.000000
vt 0.000000 0.000000
vt 0.000000 0.000000
vt 0.000000 0.000000
vt 0.000000 0.000000
vt 0.000000 0.000000
vt 0.000000 0.000000
vt 0.000000 0.000000
vt 0.000000 0.000000
vt 0.000000 0.000000
vt 0.000000 0.000000
vt 0.000000 0.000000
vt 0.000000 0.000000
vt 0.000000 0.000000
vt 0.000000 0.000000
vt 0.000000 0.000000
vt 0.000000 0.000000
vt 0.000000 0.000000
vt 0.000000 0.000000
vt 0.000000 0.000000
vt 0.000000 0.000000
vt 0.000000 0.000000
vt 0.000000 0.000000
vt 0.000000 0.000000
vt 0.000000 0.000000
vt 0.000000 0.000000
vt 0.000000 0.000000
vt 0.000000 0.000000
vt 0.000000 0.000000
vt 0.000000 0.000000
vt 0.000000 0.000000
vt 0.000000 0.000000
vt 0.000000 0.000000
vt 0.000000 0.000000
vt 0.000000 0.000000
vt 0.000000 0.000000
vt 0.000000 0.000000
vt 0.000000 0.000000
vt 0.000000 0.000000
vt 0.000000 0.000000
vt 0.000000 0.000000
vt 0.000000 0.000000
vt 0.000000 0.000000
vn 0.000000 -1.000000 0.000000
vn 0.000000 -1.000000 0.000000
vn 0.000000 -1.000000 0.000000
vn 0.000000 -1.000000 0.000000
vn 0.000000 -1.000000 0.000000
vn 0.000000 -1.000000 0.000000
vn 0.000000 -1.000000 0.000000
vn 0.000000 -1.000000 0.000000
vn 0.000000 -1.000000 0.000000
vn 0.000000 -1.000000 0.000000
vn 0.000000 -1.000000 0.000000
vn 0.000000 -1.000000 0.000000
vn 0.000000 0.000000 1.000000
vn 0.000000 0.000000 1.000000
vn 0.000000 0.000000 1.000000
vn 0.000000 0.000000 1.000000
vn 0.000000 0.000000 1.000000
vn 0.000000 0.000000 1.000000
vn 0.000000 0.000000 -1.000000
vn 0.000000 0.000000 -1.000000
vn 0.000000 0.000000 -1.000000
vn 0.000000 0.000000 -1.000000
vn 0.000000 0.000000 -1.000000
vn 0.000000 0.000000 -1.000000
vn 0.000000 0.000000 -1.000000
vn 0.000000 0.000000 -1.000000
vn 0.000000 0.000000 -1.000000
vn 0.000000 0.000000 -1.000000
vn 0.000000 0.000000 -1.000000
vn 0.000000 0.000000 -1.000000
vn 0.000000 -1.000000 0.000000
vn 0.000000 -1.000000 0.000000
vn 0.000000 -1.000000 0.000000
vn 0.000000 -1.000000 0.000000
vn 0.000000 -1.000000 0.000000
vn 0.000000 -1.000000 0.000000
vn 0.000000 -1.000000 0.000000
vn 0.000000 -1.000000 0.000000
vn 0.000000 -1.000000 0.000000
vn 0.000000 -1.000000 0.000000
vn 0.000000 -1.000000 0.000000
vn 0.000000 -1.000000 0.000000
vn 0.000000 1.000000 0.000000
vn 0.000000 1.000000 0.000000
vn 0.000000 1.000000 0.000000
vn 0.000000 1.000000 0.000000
vn 0.000000 1.000000 0.000000
vn 0.000000 1.000000 0.000000
vn 0.000000 1.000000 0.000000
vn 0.000000 1.000000 0.000000
vn 0.000000 1.000000 0.000000
vn 0.000000 1.000000 0.000000
vn 0.000000 1.000000 0.000000
vn 0.000000 1.000000 0.000000
vn 1.000000 0.000000 0.000000
vn 1.000000 0.000000 0.000000
vn 1.000000 0.000000 0.000000
vn 1.000000 0.000000 0.000000
vn 1.000000 0.000000 0.000000
vn 1.000000 0.000000 0.000000
vn 1.000000 0.000000 0.000000
vn 1.000000 0.000000 0.000000
vn 1.000000 0.000000 0.000000
vn 1.000000 0.000000 0.000000
vn 1.000000 0.000000 0.000000
vn 1.000000 0.000000 0.000000
vn 1.000000 0.000000 0.000000
vn 1.000000 0.000000 0.000000
vn 1.000000 0.000000 0.000000
vn 1.000000 0.000000 0.000000
vn 1.000000 0.000000 0.000000
vn 1.000000 0.000000 0.000000
vn 1.000000 0.000000 0.000000
vn 1.000000 0.000000 0.000000
vn 1.000000 0.000000 0.000000
vn 1.000000 0.000000 0.000000
vn 1.000000 0.000000 0.000000
vn 1.000000 0.000000 0.000000
vn 0.000000 0.000000 1.000000
vn 0.000000 0.000000 1.000000
vn 0.000000 0.000000 1.000000
vn 0.000000 0.000000 1.000000
vn 0.000000 0.000000 1.000000
vn 0.000000 0.000000 1.000000
vn 0.000000 1.000000 0.000000
vn 0.000000 1.000000 0.000000
vn 0.000000 1.000000 0.000000
vn 0.000000 1.000000 0.000000
vn 0.000000 1.000000 0.000000
vn 0.000000 1.000000 0.000000
vn 0.000000 1.000000 0.000000
vn 0.000000 1.000000 0.000000
vn 0.000000 1.000000 0.000000
vn 0.000000 1.000000 0.000000
vn 0.000000 1.000000 0.000000
vn 0.000000 1.000000 0.000000
vn -1.000000 -0.000027 0.000087
vn -1.000000 -0.000027 0.000087
vn -1.000000 -0.000027 -0.000087
vn -1.000000 -0.000027 0.000087
vn -1.000000 -0.000027 -0.000087
vn -1.000000 -0.000027 -0.000087
vn -1.000000 -0.000027 -0.000087
vn -1.000000 -0.000027 -0.000087
vn -1.000000 0.000027 -0.000087
vn -1.000000 -0.000027 -0.000087
vn -1.000000 0.000027 -0.000087
vn -1.000000 0.000027 -0.000087
vn -1.000000 0.000027 -0.000087
vn -1.000000 0.000027 0.000087
vn -1.000000 0.000027 0.000087
vn -1.000000 0.000027 -0.000087
vn -1.000000 0.000027 0.000087
vn -1.000000 0.000027 -0.000087
vn -1.000000 0.000027 0.000087
vn -1.000000 -0.000027 0.000087
vn -1.000000 -0.000027 0.000087
vn -1.000000 0.000027 0.000087
vn -1.000000 -0.000027 0.000087
vn -1.000000 0.000027 0.000087
vn 0.000000 0.000000 -1.000000
vn 0.000000 0.000000 -1.000000
vn 0.000000 0.000000 -1.000000
vn 0.000000 0.000000 -1.000000
vn 0.000000 0.000000 -1.000000
vn 0.000000 0.000000 -1.000000
vn 0.000000 1.000000 0.000000
vn 0.000000 1.000000 0.000000
vn 0.000000 1.000000 0.000000
vn 0.000000 1.000000 0.000000
vn 0.000000 1.000000 0.000000
vn 0.000000 1.000000 0.000000
vn 0.000000 0.000000 1.000000
vn 0.000000 0.000000 1.000000
vn 0.000000 0.000000 1.000000
vn 0.000000 0.000000 1.000000
vn 0.000000 0.000000 1.000000
vn 0.000000 0.000000 1.000000
vn 0.000000 -1.000000 0.000000
vn 0.000000 -1.000000 0.000000
vn 0.000000 -1.000000 0.000000
vn 0.000000 -1.000000 0.000000
vn 0.000000 -1.000000 0.000000
vn 0.000000 -1.000000 0.000000
vn -1.000000 0.000000 0.000000
vn -1.000000 0.000000 0.000000
vn -1.000000 0.000000 0.000000
vn -1.000000 0.000000 0.000000
vn -1.000000 0.000000 0.000000
vn -1.000000 0.000000 0.000000
vn 1.000000 0.000000 0.000000
vn 1.000000 0.000000 0.000000
vn 1.000000 0.000000 0.000000
vn 1.000000 0.000000 0.000000
vn 1.000000 0.000000 0.000000
vn 1.000000 0.000000 0.000000
vn 0.000000 -1.000000 0.000000
vn 0.000000 -1.000000 0.000000
vn 0.000000 -1.000000 0.000000
vn 0.000000 -1.000000 0.000000
vn 0.000000 -1.000000 0.000000
vn 0.000000 -1.000000 0.000000
vn 1.000000 0.000000 0.000000
vn 1.000000 0.000000 0.000000
vn 1.000000 0.000000 0.000000
vn 1.000000 0.000000 0.000000
vn 1.000000 0.000000 0.000000
vn 1.000000 0.000000 0.000000
vn -1.000000 0.000000 0.000000
vn -1.000000 0.000000 0.000000
vn -1.000000 0.000000 0.000000
vn -1.000000 0.000000 0.000000
vn -1.000000 0.000000 0.000000
vn -1.000000 0.000000 0.000000
vn 0.000000 1.000000 0.000000
vn 0.000000 1.000000 0.000000
vn 0.000000 1.000000 0.000000
vn 0.000000 1.000000 0.000000
vn 0.000000 1.000000 0.000000
vn 0.000000 1.000000 0.000000
vn -0.021970 -0.002278 -0.999756
vn -0.021970 -0.002278 -0.999756
vn 0.021960 -0.002278 -0.999756
vn -0.021970 -0.002278 -0.999756
vn 0.021960 -0.002278 -0.999756
vn 0.021960 -0.002278 -0.999756
vn 0.021960 -0.002278 -0.999756
vn 0.021960 -0.002278 -0.999756
vn 0.021960 0.002272 -0.999756
vn 0.021960 -0.002278 -0.999756
vn 0.021960 0.002272 -0.999756
vn 0.021960 0.002272 -0.999756
vn 0.021960 0.002272 -0.999756
vn -0.021970 0.002272 -0.999756
vn -0.021970 0.002272 -0.999756
vn 0.021960 0.002272 -0.999756
vn -0.021970 0.002272 -0.999756
vn 0.021960 0.002272 -0.999756
vn -0.021970 0.002272 -0.999756
vn -0.021970 -0.002278 -0.999756
vn -0.021970 -0.002278 -0.999756
vn -0.021970 0.002272 -0.999756
vn -0.021970 -0.002278 -0.999756
vn -0.021970 0.002272 -0.999756
f 10/1/1 12/2/2 16/3/3
f 10/4/4 16/5/5 14/6/6
f 10/7/7 14/8/8 17/9/9
f 10/10/10 17/11/11 21/12/12
f 2/13/13 6/14/14 8/15/15
f 2/16/16 8/17/17 4/18/18
f 12/19/19 11/20/20 15/21/21
f 12/22/22 15/23/23 16/24/24
f 23/25/25 1/26/26 3/27/27
f 23/28/28 3/29/29 18/30/30
f 5/31/31 6/32/32 2/33/33
f 5/34/34 2/35/35 1/36/36
f 5/37/37 1/38/38 23/39/39
f 5/40/40 23/41/41 20/42/42
f 3/43/43 4/44/44 8/45/45
f 3/46/46 8/47/47 7/48/48
f 3/49/49 7/50/50 22/51/51
f 3/52/52 22/53/53 18/54/54
f 5/55/55 7/56/56 10/57/57
f 5/58/58 10/59/59 9/60/60
f 6/61/61 5/62/62 9/63/63
f 6/64/64 9/65/65 11/66/66
f 7/67/67 8/68/68 12/69/69
f 7/70/70 12/71/71 10/72/72
f 8/73/73 6/74/74 11/75/75
f 8/76/76 11/77/77 12/78/78
f 17/79/79 14/80/80 13/81/81
f 17/82/82 13/83/83 19/84/84
f 11/85/85 9/86/86 24/87/87
f 11/88/88 24/89/89 19/90/90
f 11/91/91 19/92/92 13/93/93
f 11/94/94 13/95/95 15/96/96
f 3/97/97 14/98/98 16/99/99
f 3/100/100 16/101/101 4/102/102
f 4/103/103 16/104/104 15/105/105
f 4/106/106 15/107/107 2/108/108
f 15/109/109 13/110/110 1/111/111
f 15/112/112 1/113/113 2/114/114
f 13/115/115 14/116/116 3/117/117
f 13/118/118 3/119/119 1/120/120
f 22/121/121 7/122/122 5/123/123
f 22/124/124 5/125/125 20/126/126
f 18/127/127 22/128/128 27/129/129
f 18/130/130 27/131/131 25/132/132
f 24/133/133 9/134/134 10/135/135
f 24/136/136 10/137/137 21/138/138
f 21/139/139 17/140/140 30/141/141
f 21/142/142 30/143/143 32/144/144
f 23/145/145 18/146/146 25/147/147
f 23/148/148 25/149/149 26/150/150
f 22/151/151 20/152/152 28/153/153
f 22/154/154 28/155/155 27/156/156
f 20/157/157 23/158/158 26/159/159
f 20/160/160 26/161/161 28/162/162
f 17/163/163 19/164/164 29/165/165
f 17/166/166 29/167/167 30/168/168
f 24/169/169 21/170/170 32/171/171
f 24/172/172 32/173/173 31/174/174
f 19/175/175 24/176/176 31/177/177
f 19/178/178 31/179/179 29/180/180
f 27/181/181 32/182/182 30/183/183
f 27/184/184 30/185/185 25/186/186
f 25/187/187 30/188/188 29/189/189
f 25/190/190 29/191/191 26/192/192
f 29/193/193 31/194/194 28/195/195
f 29/196/196 28/197/197 26/198/198
f 31/199/199 32/200/200 27/201/201
f 31/202/202 27/203/203 28/204/204
