v -8.000000 8.000057 -8.000000
v -8.000000 0.000000 -8.000000
v 0.000000 8.000057 -8.000000
v 8.000000 8.000057 -8.000000
v 0.000000 0.000000 -8.000000
v 8.000000 0.000000 -8.000000
v -3.425600 0.000000 -8.000000
v -5.715871 0.000000 -8.000000
v -3.427982 8.000057 -8.000000
v -3.427982 3.000021 -8.000000
v -5.712245 8.000057 -8.000000
v -5.712245 3.000021 -8.000000
v -3.425600 0.000000 -9.147132
v -3.427982 3.000021 -9.147132
v -5.712245 3.000021 -9.147132
v -5.715871 0.000000 -9.147132
vt 0.000000 0.000000
vt 0.000000 0.000000
vt 0.000000 0.000000
vt 0.000000 0.000000
vt 0.000000 0.000000
vt 0.000000 0.000000
vt 0.000000 0.000000
vt 0.000000 0.000000
vt 0.000000 0.000000
vt 0.000000 0.000000
vt 0.000000 0.000000
vt 0.000000 0.000000
vt 0.000000 0.000000
vt 0.000000 0.000000
vt 0.000000 0.000000
vt 0.000000 0.000000
vt 0.000000 0.000000
vt 0.000000 0.000000
vt 0.000000 0.000000
vt 0.000000 0.000000
vt 0.000000 0.000000
vt 0.000000 0.000000
vt 0.000000 0.000000
vt 0.000000 0.000000
vt 0.000000 0.000000
vt 0.000000 0.000000
vt 0.000000 0.000000
vt 0.000000 0.000000
vt 0.000000 0.000000
vt 0.000000 0.000000
vt 0.000000 0.000000
vt 0.000000 0.000000
vt 0.000000 0.000000
vt 0.000000 0.000000
vt 0.000000 0.000000
vt 0.000000 0.000000
vt 0.000000 0.000000
vt 0.000000 0.000000
vt 0.000000 0.000000
vt 0.000000 0.000000
vt 0.000000 0.000000
vt 0.000000 0.000000
vt 0.000000 0.000000
vt 0.000000 0.000000
vt 0.000000 0.000000
vt 0.000000 0.000000
vt 0.000000 0.000000
vt 0.000000 0.000000
vt 0.000000 0.000000
vt 0.000000 0.000000
vt 0.000000 0.000000
vt 0.000000 0.000000
vt 0.000000 0.000000
vt 0.000000 0.000000
vn 0.000000 -1.000000 0.000000
vn 0.000000 -1.000000 0.000000
vn 0.000000 -1.000000 0.000000
vn 0.000000 -1.000000 0.000000
vn 0.000000 -1.000000 0.000000
vn 0.000000 -1.000000 0.000000
vn 0.000000 0.000000 1.000000
vn 0.000000 0.000000 1.000000
vn 0.000000 0.000000 1.000000
vn 0.000000 0.000000 1.000000
vn 0.000000 0.000000 1.000000
vn 0.000000 0.000000 1.000000
vn 0.000000 0.000000 1.000000
vn 0.000000 0.000000 1.000000
vn 0.000000 0.000000 1.000000
vn 0.000000 0.000000 1.000000
vn 0.000000 0.000000 1.000000
vn 0.000000 0.000000 1.000000
vn -1.000000 -0.000794 0.000000
vn -1.000000 -0.000794 0.000000
vn -1.000000 -0.000794 0.000000
vn -1.000000 -0.000794 0.000000
vn -1.000000 -0.000794 0.000000
vn -1.000000 -0.000794 0.000000
vn 0.999999 -0.001209 0.000000
vn 0.999999 -0.001209 0.000000
vn 0.999999 -0.001209 0.000000
vn 0.999999 -0.001209 0.000000
vn 0.999999 -0.001209 0.000000
vn 0.999999 -0.001209 0.000000
vn 0.000000 0.000000 1.000000
vn 0.000000 0.000000 1.000000
vn 0.000000 0.000000 1.000000
vn 0.000000 0.000000 1.000000
vn 0.000000 0.000000 1.000000
vn 0.000000 0.000000 1.000000
vn 0.000000 0.000000 1.000000
vn 0.000000 0.000000 1.000000
vn 0.000000 0.000000 1.000000
vn 0.000000 1.000000 0.000000
vn 0.000000 1.000000 0.000000
vn 0.000000 1.000000 0.000000
vn 0.000000 1.000000 0.000000
vn 0.000000 1.000000 0.000000
vn 0.000000 1.000000 0.000000
vn 0.000000 0.000000 1.000000
vn 0.000000 0.000000 1.000000
vn 0.000000 0.000000 1.000000
vn 0.000000 0.000000 1.000000
vn 0.000000 0.000000 1.000000
vn 0.000000 0.000000 1.000000
vn 0.000000 0.000000 1.000000
vn 0.000000 0.000000 1.000000
vn 0.000000 0.000000 1.000000
f 15/1/1 14/2/2 10/3/3
f 15/4/4 10/5/5 12/6/6
f 5/7/7 6/8/8 4/9/9
f 5/10/10 4/11/11 3/12/12
f 9/13/13 11/14/14 12/15/15
f 9/16/16 12/17/17 10/18/18
f 14/19/19 13/20/20 7/21/21
f 14/22/22 7/23/23 10/24/24
f 16/25/25 15/26/26 12/27/27
f 16/28/28 12/29/29 8/30/30
f 10/31/31 7/32/32 5/33/33
f 10/34/34 5/35/35 3/36/36
f 10/37/37 3/38/38 9/39/39
f 13/40/40 16/41/41 8/42/42
f 13/43/43 8/44/44 7/45/45
f 12/46/46 11/47/47 1/48/48
f 12/49/49 1/50/50 2/51/51
f 12/52/52 2/53/53 8/54/54
