v -29.002495 0.000020 3.006076
v -29.002495 0.000020 7.018727
v -29.002497 0.000020 -7.000000
v -38.999969 0.000020 -7.000000
v -24.999968 0.000020 3.006075
v -24.999971 0.000020 -7.000000
v -38.999969 0.000020 7.000000
v -24.999968 -0.999980 3.006075
v -28.999969 -0.999980 3.004605
v -29.002495 -0.999980 7.004682
v -24.991997 7.997809 7.008002
v -24.991999 7.997809 -7.008004
v -39.008003 7.997809 0.002363
v -34.988300 7.997809 0.002363
v -39.008003 7.997809 -7.008002
v -34.988297 7.002285 7.008003
v -34.988297 7.997809 7.008003
v -39.008003 7.002285 0.002363
v -34.988300 7.002285 0.002363
v -34.999969 -7.124980 8.000000
v -23.999969 -7.124980 8.000000
v -23.999968 -7.124980 15.999999
v -34.999969 -7.999980 16.000000
v -34.999969 -7.999980 8.000000
v -34.999969 -7.124980 16.000000
v -24.999969 -7.124980 8.000000
v -38.999969 -7.124980 8.000001
v -38.999969 -7.124980 -7.000000
v -24.999971 -7.124980 -7.000000
v -34.988941 7.997809 -7.008002
vt -0.004069 -0.009192
vt 1.992660 -0.009191
vt 1.992660 1.997174
vt -0.004069 -0.009192
vt 1.992660 1.997174
vt -0.004069 1.997174
vt 1.125996 -0.072986
vt 1.125996 0.991004
vt -0.421436 0.991004
vt 1.125996 -0.072986
vt -0.421436 0.991004
vt -0.421436 -0.072986
vt 0.267059 0.347705
vt 0.267059 0.347705
vt 0.267059 0.000000
vt 0.267059 0.347705
vt 0.267059 0.000000
vt 0.267059 0.000000
vt 0.911974 0.624728
vt 0.090151 0.624728
vt 0.090151 -0.616921
vt 0.911974 0.624728
vt 0.090151 -0.616921
vt 0.912105 -0.616921
vt 0.007678 0.258377
vt 1.010817 0.258377
vt 1.001171 0.417405
vt 0.007678 0.258377
vt 1.001171 0.417405
vt 0.007678 0.417405
vt 0.870148 -0.891095
vt 0.870027 0.398902
vt 0.108665 0.398902
vt 0.870148 -0.891095
vt 0.108665 0.398902
vt 0.108665 -0.891095
vt 1.509988 -0.396302
vt 1.509988 0.116144
vt 1.509987 1.393994
vt 1.509988 -0.396302
vt 1.509987 1.393994
vt -0.502478 1.393994
vt 1.509988 -0.396302
vt -0.502478 1.393994
vt -0.502478 -0.393911
vt 1.010817 0.258377
vt 1.001171 0.417405
vt 0.007678 0.417405
vt 1.010817 0.258377
vt 0.007678 0.417405
vt 0.007678 0.258377
vt 0.007678 0.258377
vt 1.010817 0.258377
vt 1.001171 0.417405
vt 0.007678 0.258377
vt 1.001171 0.417405
vt 0.007678 0.417405
vt 0.007678 0.258377
vt 1.010817 0.258377
vt 1.001171 0.417405
vt 0.007678 0.258377
vt 1.001171 0.417405
vt 0.007678 0.417405
vt -0.255829 0.499873
vt -0.255828 -0.499465
vt 1.245087 -0.499464
vt -0.255829 0.499873
vt 1.245087 -0.499464
vt 1.245087 1.499886
vt -0.255829 0.499873
vt 1.245087 1.499886
vt -0.255925 1.499885
vn 0.000000 1.000000 0.000000
vn 0.000000 1.000000 0.000000
vn 0.000000 1.000000 0.000000
vn 0.000000 1.000000 0.000000
vn 0.000000 1.000000 0.000000
vn 0.000000 1.000000 0.000000
vn 0.000000 1.000000 0.000000
vn 0.000000 1.000000 0.000000
vn 0.000000 1.000000 0.000000
vn 0.000000 1.000000 0.000000
vn 0.000000 1.000000 0.000000
vn 0.000000 1.000000 0.000000
vn -1.000000 0.000000 0.000000
vn -1.000000 0.000000 0.000000
vn -1.000000 0.000000 0.000000
vn -1.000000 0.000000 0.000000
vn -1.000000 0.000000 0.000000
vn -1.000000 0.000000 0.000000
vn 0.000000 1.000000 0.000000
vn 0.000000 1.000000 0.000000
vn 0.000000 1.000000 0.000000
vn 0.000000 1.000000 0.000000
vn 0.000000 1.000000 0.000000
vn 0.000000 1.000000 0.000000
vn 0.000000 0.000000 1.000000
vn 0.000000 0.000000 1.000000
vn 0.000000 0.000000 1.000000
vn 0.000000 0.000000 1.000000
vn 0.000000 0.000000 1.000000
vn 0.000000 0.000000 1.000000
vn 0.000000 1.000000 0.000000
vn 0.000000 1.000000 0.000000
vn 0.000000 1.000000 0.000000
vn 0.000000 1.000000 0.000000
vn 0.000000 1.000000 0.000000
vn 0.000000 1.000000 0.000000
vn 0.000000 1.000000 0.000000
vn 0.000000 1.000000 0.000000
vn 0.000000 1.000000 0.000000
vn 0.000000 1.000000 0.000000
vn 0.000000 1.000000 0.000000
vn 0.000000 1.000000 0.000000
vn 0.000000 1.000000 0.000000
vn 0.000000 1.000000 0.000000
vn 0.000000 1.000000 0.000000
vn -0.000184 -0.000736 1.000000
vn -0.000184 -0.000736 1.000000
vn -0.000184 -0.000736 1.000000
vn -0.000184 -0.000736 1.000000
vn -0.000184 -0.000736 1.000000
vn -0.000184 -0.000736 1.000000
vn 0.999999 0.001260 0.000315
vn 0.999999 0.001260 0.000315
vn 0.999999 0.001260 0.000315
vn 0.999999 0.001260 0.000315
vn 0.999999 0.001260 0.000315
vn 0.999999 0.001260 0.000315
vn -1.000000 0.000000 0.000001
vn -1.000000 0.000000 0.000001
vn -1.000000 0.000000 0.000001
vn -1.000000 0.000000 0.000001
vn -1.000000 0.000000 0.000001
vn -1.000000 0.000000 0.000001
vn 0.000000 1.000000 0.000000
vn 0.000000 1.000000 0.000000
vn 0.000000 1.000000 0.000000
vn 0.000000 1.000000 0.000000
vn 0.000000 1.000000 0.000000
vn 0.000000 1.000000 0.000000
vn 0.000000 1.000000 0.000000
vn 0.000000 1.000000 0.000000
vn 0.000000 1.000000 0.000000
f 27/1/1 26/2/2 29/3/3
f 27/4/4 29/5/5 28/6/6
f 22/7/7 21/8/8 20/9/9
f 22/10/10 20/11/11 25/12/12
f 20/13/13 24/14/14 23/15/15
f 20/16/16 23/17/17 25/18/18
f 30/19/19 15/20/20 13/21/21
f 30/22/22 13/23/23 14/24/24
f 14/25/25 13/26/26 18/27/27
f 14/28/28 18/29/29 19/30/30
f 5/31/31 6/32/32 3/33/33
f 5/34/34 3/35/35 1/36/36
f 2/37/37 1/38/38 3/39/39
f 2/40/40 3/41/41 4/42/42
f 2/43/43 4/44/44 7/45/45
f 8/46/46 5/47/47 1/48/48
f 8/49/49 1/50/50 9/51/51
f 2/52/52 10/53/53 9/54/54
f 2/55/55 9/56/56 1/57/57
f 19/58/58 16/59/59 17/60/60
f 19/61/61 17/62/62 14/63/63
f 14/64/64 17/65/65 11/66/66
f 14/67/67 11/68/68 12/69/69
f 14/70/70 12/71/71 30/72/72
