v -2.500000 1.498327 -2.500000
v -2.500000 1.498327 0.008243
v -2.500000 10.500000 -2.500000
v -2.500000 10.500000 0.008243
v 2.500000 1.498327 -2.500000
v 2.500000 1.498327 0.008243
v 2.500000 10.500000 -2.500000
v 2.500000 10.500000 0.008243
v -0.831360 10.500000 -2.500000
v 0.001480 1.498327 -2.500000
v 0.001480 10.500000 -2.500000
v -0.831360 1.498327 -2.500000
v -0.831360 10.500000 -7.483513
v -0.831360 1.498327 -7.483513
v 0.001480 10.500000 -7.483513
v 0.001480 1.498327 -7.483513
vt 0.000000 0.000000
vt 0.000000 0.000000
vt 0.000000 0.000000
vt 0.000000 0.000000
vt 0.000000 0.000000
vt 0.000000 0.000000
vt 0.000000 0.000000
vt 0.000000 0.000000
vt 0.000000 0.000000
vt 0.000000 0.000000
vt 0.000000 0.000000
vt 0.000000 0.000000
vt 0.000000 0.000000
vt 0.000000 0.000000
vt 0.000000 0.000000
vt 0.000000 0.000000
vt 0.000000 0.000000
vt 0.000000 0.000000
vt 0.000000 0.000000
vt 0.000000 0.000000
vt 0.000000 0.000000
vt 0.000000 0.000000
vt 0.000000 0.000000
vt 0.000000 0.000000
vt 0.000000 0.000000
vt 0.000000 0.000000
vt 0.000000 0.000000
vt 0.000000 0.000000
vt 0.000000 0.000000
vt 0.000000 0.000000
vt 0.000000 0.000000
vt 0.000000 0.000000
vt 0.000000 0.000000
vt 0.000000 0.000000
vt 0.000000 0.000000
vt 0.000000 0.000000
vn 0.000000 -1.000000 0.000000
vn 0.000000 -1.000000 0.000000
vn 0.000000 -1.000000 0.000000
vn 0.000000 -1.000000 0.000000
vn 0.000000 -1.000000 0.000000
vn 0.000000 -1.000000 0.000000
vn 0.000000 1.000000 0.000000
vn 0.000000 1.000000 0.000000
vn 0.000000 1.000000 0.000000
vn 0.000000 1.000000 0.000000
vn 0.000000 1.000000 0.000000
vn 0.000000 1.000000 0.000000
vn 0.000000 1.000000 0.000000
vn 0.000000 1.000000 0.000000
vn 0.000000 1.000000 0.000000
vn 0.000000 1.000000 0.000000
vn 0.000000 1.000000 0.000000
vn 0.000000 1.000000 0.000000
vn 0.000000 1.000000 0.000000
vn 0.000000 1.000000 0.000000
vn 0.000000 1.000000 0.000000
vn 0.000000 1.000000 0.000000
vn 0.000000 1.000000 0.000000
vn 0.000000 1.000000 0.000000
vn 0.000000 -1.000000 0.000000
vn 0.000000 -1.000000 0.000000
vn 0.000000 -1.000000 0.000000
vn 0.000000 -1.000000 0.000000
vn 0.000000 -1.000000 0.000000
vn 0.000000 -1.000000 0.000000
vn 0.000000 -1.000000 0.000000
vn 0.000000 -1.000000 0.000000
vn 0.000000 -1.000000 0.000000
vn 0.000000 -1.000000 0.000000
vn 0.000000 -1.000000 0.000000
vn 0.000000 -1.000000 0.000000
f 10/1/1 12/2/2 14/3/3
f 10/4/4 14/5/5 16/6/6
f 9/7/7 11/8/8 15/9/9
f 9/10/10 15/11/11 13/12/12
f 3/13/13 4/14/14 8/15/15
f 3/16/16 8/17/17 7/18/18
f 3/19/19 7/20/20 11/21/21
f 3/22/22 11/23/23 9/24/24
f 5/25/25 6/26/26 2/27/27
f 5/28/28 2/29/29 1/30/30
f 5/31/31 1/32/32 12/33/33
f 5/34/34 12/35/35 10/36/36
