v -24.000000 16.000000 8.000000
v -25.853689 17.000000 -7.022230
v -24.000000 16.000000 -7.000000
v -24.999905 16.000000 -8.000000
v -39.023788 17.000000 -6.144230
v -38.145840 17.000000 -7.022230
v -39.000069 16.000000 -8.000000
v -40.000000 16.000000 7.000000
v -40.000000 16.000000 -7.000001
v -39.000000 16.000000 8.000000
v -24.975758 17.000000 7.025778
v -38.145775 17.000000 7.025778
v -24.975758 17.000000 -6.144229
v -39.023788 17.000000 6.147776
vt -0.005002 0.119893
vt 0.120986 -0.005413
vt 2.010786 -0.005413
vt -0.005002 0.119893
vt 2.010786 -0.005413
vt 2.003604 1.000350
vt -0.005002 0.119893
vt 2.003604 1.000350
vt 2.010786 1.874175
vt -0.005002 0.119893
vt 2.010786 1.874175
vt 1.884809 1.999481
vt -0.005002 0.119893
vt 1.884809 1.999481
vt 0.120977 1.999481
vt 2.010786 -0.005413
vt 0.120986 -0.005413
vt -0.001588 -0.144452
vt 2.010786 -0.005413
vt -0.001588 -0.144452
vt 2.150799 -0.144452
vt 2.003604 1.000350
vt 2.010786 -0.005413
vt 2.150799 -0.144452
vt 2.003604 1.000350
vt 2.150799 -0.144452
vt 2.142626 1.001064
vt 1.884809 1.999481
vt 2.010786 1.874175
vt 2.150799 1.996309
vt 1.884809 1.999481
vt 2.150799 1.996309
vt 2.007321 2.139026
vt 0.120977 1.999481
vt 1.884809 1.999481
vt 2.007321 2.139026
vt 0.120977 1.999481
vt 2.007321 2.139026
vt -0.001598 2.139026
vt 0.120986 -0.005413
vt -0.005002 0.119893
vt -0.145081 -0.001734
vt 0.120986 -0.005413
vt -0.145081 -0.001734
vt -0.001588 -0.144452
vt -0.005002 1.874175
vt 0.120977 1.999481
vt -0.001598 2.139026
vt -0.005002 1.874175
vt -0.001598 2.139026
vt -0.145081 1.996309
vt -0.005002 0.119893
vt -0.005002 1.874175
vt -0.145081 1.996309
vt -0.005002 0.119893
vt -0.145081 1.996309
vt -0.145081 -0.001734
vn -0.413467 0.897114 -0.155663
vn -0.413683 0.896979 0.155870
vn -0.155887 0.896831 0.413996
vn -0.413467 0.897114 -0.155663
vn -0.155887 0.896831 0.413996
vn 0.276416 0.921238 0.273705
vn -0.413467 0.897114 -0.155663
vn 0.276416 0.921238 0.273705
vn 0.414799 0.896839 -0.153691
vn -0.413467 0.897114 -0.155663
vn 0.414799 0.896839 -0.153691
vn 0.155687 0.897213 -0.413243
vn -0.413467 0.897114 -0.155663
vn 0.155687 0.897213 -0.413243
vn -0.155655 0.897231 -0.413217
vn 0.276416 0.921238 0.273705
vn -0.155887 0.896831 0.413996
vn -0.224187 0.771535 0.595377
vn 0.276416 0.921238 0.273705
vn -0.224187 0.771535 0.595377
vn 0.000000 0.697814 0.716279
vn 0.596682 0.771422 -0.221083
vn 0.414799 0.896839 -0.153691
vn 0.276416 0.921238 0.273705
vn 0.596682 0.771422 -0.221083
vn 0.276416 0.921238 0.273705
vn 0.718200 0.695817 -0.005116
vn 0.155687 0.897213 -0.413243
vn 0.414799 0.896839 -0.153691
vn 0.596682 0.771422 -0.221083
vn 0.155687 0.897213 -0.413243
vn 0.596682 0.771422 -0.221083
vn 0.223931 0.772367 -0.594394
vn -0.155655 0.897231 -0.413217
vn 0.155687 0.897213 -0.413243
vn 0.223931 0.772367 -0.594394
vn -0.155655 0.897231 -0.413217
vn 0.223931 0.772367 -0.594394
vn -0.223893 0.772403 -0.594361
vn -0.155887 0.896831 0.413996
vn -0.413683 0.896979 0.155870
vn -0.594964 0.771858 0.224173
vn -0.155887 0.896831 0.413996
vn -0.594964 0.771858 0.224173
vn -0.224187 0.771535 0.595377
vn -0.413467 0.897114 -0.155663
vn -0.155655 0.897231 -0.413217
vn -0.223893 0.772403 -0.594361
vn -0.413467 0.897114 -0.155663
vn -0.223893 0.772403 -0.594361
vn -0.594694 0.772147 -0.223891
vn -0.413683 0.896979 0.155870
vn -0.413467 0.897114 -0.155663
vn -0.594694 0.772147 -0.223891
vn -0.413683 0.896979 0.155870
vn -0.594694 0.772147 -0.223891
vn -0.594964 0.771858 0.224173
f 5/1/1 14/2/2 12/3/3
f 5/4/4 12/5/5 11/6/6
f 5/7/7 11/8/8 13/9/9
f 5/10/10 13/11/11 2/12/12
f 5/13/13 2/14/14 6/15/15
f 11/16/16 12/17/17 10/18/18
f 11/19/19 10/20/20 1/21/21
f 3/22/22 13/23/23 11/24/24
f 3/25/25 11/26/26 1/27/27
f 2/28/28 13/29/29 3/30/30
f 2/31/31 3/32/32 4/33/33
f 6/34/34 2/35/35 4/36/36
f 6/37/37 4/38/38 7/39/39
f 12/40/40 14/41/41 8/42/42
f 12/43/43 8/44/44 10/45/45
f 5/46/46 6/47/47 7/48/48
f 5/49/49 7/50/50 9/51/51
f 14/52/52 5/53/53 9/54/54
f 14/55/55 9/56/56 8/57/57
