v -24.056961 6.998118 -8.026465
v -24.056961 6.998118 0.026466
v -24.056961 15.999791 -8.026465
v -24.056961 15.999791 0.026466
v 24.056961 6.998118 -8.026465
v 24.056961 6.998118 0.026466
v 24.056961 15.999791 -8.026465
v 24.056961 15.999791 0.026466
v -8.000000 15.999791 -8.026465
v 0.014241 6.998118 -8.026465
v 0.014241 15.999791 -8.026465
v -8.000000 6.998118 -8.026465
v -8.000000 15.999791 -24.026463
v -8.000000 6.998118 -24.026463
v 0.014241 15.999791 -24.026463
v 0.014241 6.998118 -24.026463
vt 0.500296 1.000000
vt 1.000000 1.000000
vt 1.000000 0.000000
vt 0.500296 1.000000
vt 1.000000 0.000000
vt 0.500296 0.000000
vt 0.000000 0.000000
vt 1.000000 0.000000
vt 1.000000 1.000000
vt 0.000000 0.000000
vt 1.000000 1.000000
vt 0.000000 1.000000
vt 0.333728 0.000000
vt 0.000000 0.000000
vt 0.000000 1.000000
vt 0.333728 0.000000
vt 0.000000 1.000000
vt 0.333728 1.000000
vt 1.000000 1.000000
vt 1.000000 0.000000
vt 0.000000 0.000000
vt 1.000000 1.000000
vt 0.000000 0.000000
vt 0.000000 1.000000
vt 1.000000 0.000000
vt 1.000000 1.000000
vt 0.000000 1.000000
vt 1.000000 0.000000
vt 0.000000 1.000000
vt 0.000000 0.000000
vn -0.000000 0.000000 -1.000000
vn 0.000000 0.000000 -1.000000
vn 0.000000 0.000000 -1.000000
vn -0.000000 0.000000 -1.000000
vn 0.000000 0.000000 -1.000000
vn -0.000000 0.000000 -1.000000
vn -0.000000 0.000000 1.000000
vn 0.000000 0.000000 1.000000
vn 0.000000 0.000000 1.000000
vn -0.000000 0.000000 1.000000
vn 0.000000 0.000000 1.000000
vn -0.000000 0.000000 1.000000
vn -0.000000 0.000000 -1.000000
vn -0.000000 0.000000 -1.000000
vn -0.000000 0.000000 -1.000000
vn -0.000000 0.000000 -1.000000
vn -0.000000 0.000000 -1.000000
vn -0.000000 0.000000 -1.000000
vn 1.000000 0.000000 0.000000
vn 1.000000 0.000000 0.000000
vn 1.000000 0.000000 0.000000
vn 1.000000 0.000000 0.000000
vn 1.000000 0.000000 0.000000
vn 1.000000 0.000000 0.000000
vn -1.000000 0.000000 0.000000
vn -1.000000 0.000000 0.000000
vn -1.000000 0.000000 0.000000
vn -1.000000 0.000000 0.000000
vn -1.000000 0.000000 0.000000
vn -1.000000 0.000000 0.000000
f 11/1/1 7/2/2 5/3/3
f 11/4/4 5/5/5 10/6/6
f 2/7/7 6/8/8 8/9/9
f 2/10/10 8/11/11 4/12/12
f 12/13/13 1/14/14 3/15/15
f 12/16/16 3/17/17 9/18/18
f 11/19/19 10/20/20 16/21/21
f 11/22/22 16/23/23 15/24/24
f 12/25/25 9/26/26 13/27/27
f 12/28/28 13/29/29 14/30/30
