v -8.000000 0.000000 -8.000000
v -8.000000 0.000000 0.000000
v -8.000000 0.000000 8.000000
v 8.000000 0.000000 -8.000000
v 8.000000 0.000000 0.000000
v 8.000000 0.000000 8.000000
v -8.000000 8.000057 -8.000000
v -8.000000 8.000057 0.000000
v -8.000000 8.000057 8.000000
v 8.000000 8.000057 -8.000000
v 8.000000 8.000057 0.000000
v 8.000000 8.000057 8.000000
v -8.000000 3.000021 8.000000
vt 0.000000 0.000000
vt 0.000000 0.000000
vt 0.000000 0.000000
vt 0.000000 0.000000
vt 0.000000 0.000000
vt 0.000000 0.000000
vt 0.000000 0.000000
vt 0.000000 0.000000
vt 0.000000 0.000000
vt 0.000000 0.000000
vt 0.000000 0.000000
vt 0.000000 0.000000
vt 0.000000 0.000000
vt 0.000000 0.000000
vt 0.000000 0.000000
vt 0.000000 0.000000
vt 0.000000 0.000000
vt 0.000000 0.000000
vt 0.000000 0.000000
vt 0.000000 0.000000
vt 0.000000 0.000000
vt 0.000000 0.000000
vt 0.000000 0.000000
vt 0.000000 0.000000
vt 0.000000 0.000000
vt 0.000000 0.000000
vt 0.000000 0.000000
vn 1.000000 0.000000 0.000000
vn 1.000000 0.000000 0.000000
vn 0.732525 0.653298 0.191331
vn 1.000000 0.000000 0.000000
vn 0.732525 0.653298 0.191331
vn 1.000000 0.000000 0.000000
vn 1.000000 0.000000 0.000000
vn 1.000000 0.000000 0.000000
vn 0.610120 0.505476 -0.610120
vn 1.000000 0.000000 0.000000
vn 0.610120 0.505476 -0.610120
vn 0.732525 0.653298 0.191331
vn -1.000000 0.000000 0.000000
vn -1.000000 0.000000 0.000000
vn -1.000000 0.000000 0.000000
vn -1.000000 0.000000 0.000000
vn -1.000000 0.000000 0.000000
vn -0.923974 0.382456 0.000000
vn -1.000000 0.000000 0.000000
vn -0.923974 0.382456 0.000000
vn -0.967577 0.252578 0.000000
vn -1.000000 0.000000 0.000000
vn -1.000000 0.000000 0.000000
vn -0.967577 0.252578 0.000000
vn -1.000000 0.000000 0.000000
vn -0.967577 0.252578 0.000000
vn -1.000000 0.000000 0.000000
f 6/1/1 5/2/2 11/3/3
f 6/4/4 11/5/5 12/6/6
f 5/7/7 4/8/8 10/9/9
f 5/10/10 10/11/11 11/12/12
f 2/13/13 3/14/14 13/15/15
f 2/16/16 13/17/17 9/18/18
f 2/19/19 9/20/20 8/21/21
f 1/22/22 2/23/23 8/24/24
f 1/25/25 8/26/26 7/27/27
