v 23.000000 0.000002 -23.000000
v 8.000000 0.000002 -23.000000
v 8.000000 0.000002 8.000000
v -22.992008 -0.000000 7.664003
v -23.000000 0.000002 -23.000000
v -8.000000 0.000002 -23.000000
v -23.000000 0.000002 23.000000
v -8.000000 0.000002 8.000000
v -8.000000 0.000002 23.000000
v 8.000000 0.000002 23.000000
v 23.000000 0.000002 23.000000
v 22.992008 -0.000000 7.664003
vt 0.333333 0.000000
vt 0.833333 1.000000
vt 0.833333 1.000000
vt 0.333333 0.000000
vt 0.833333 1.000000
vt 1.000000 0.000000
vt 0.333333 1.000000
vt 0.833333 1.000000
vt 0.833333 0.000000
vt 0.333333 1.000000
vt 0.833333 0.000000
vt 1.000000 1.000000
vt 0.000000 0.000000
vt 0.000000 0.000000
vt 0.000000 0.000000
vt 0.000000 0.000000
vt 0.000000 0.000000
vt 0.000000 0.000000
vt 0.833333 0.000000
vt 0.666667 0.000000
vt 0.333333 0.000000
vt 0.833333 0.000000
vt 0.333333 0.000000
vt 0.333333 0.000000
vt 0.833333 1.000000
vt 0.666667 1.000000
vt 0.500000 1.000000
vt 0.833333 1.000000
vt 0.500000 1.000000
vt 0.333333 1.000000
vn -0.000000 1.000000 -0.000000
vn -0.000000 1.000000 0.000000
vn -0.000000 1.000000 0.000000
vn -0.000000 1.000000 -0.000000
vn -0.000000 1.000000 0.000000
vn -0.000000 1.000000 -0.000000
vn 0.000000 1.000000 -0.000000
vn -0.000000 1.000000 0.000000
vn -0.000000 1.000000 0.000000
vn 0.000000 1.000000 -0.000000
vn -0.000000 1.000000 0.000000
vn 0.000000 1.000000 -0.000000
vn -0.000000 1.000000 -0.000000
vn -0.000000 1.000000 0.000000
vn -0.000000 1.000000 0.000000
vn -0.000000 1.000000 -0.000000
vn -0.000000 1.000000 0.000000
vn 0.000000 1.000000 -0.000000
vn -0.000000 1.000000 -0.000000
vn -0.000000 1.000000 0.000000
vn -0.000000 1.000000 0.000000
vn -0.000000 1.000000 -0.000000
vn -0.000000 1.000000 0.000000
vn -0.000000 1.000000 -0.000000
vn 0.000000 1.000000 -0.000000
vn 0.000000 1.000000 0.000000
vn 0.000000 1.000000 0.000000
vn 0.000000 1.000000 -0.000000
vn 0.000000 1.000000 0.000000
vn 0.000000 1.000000 -0.000000
f 4/1/1 7/2/2 9/3/3
f 4/4/4 9/5/5 8/6/6
f 3/7/7 10/8/8 11/9/9
f 3/10/10 11/11/11 12/12/12
f 8/13/13 9/14/14 10/15/15
f 8/16/16 10/17/17 3/18/18
f 8/19/19 6/20/20 5/21/21
f 8/22/22 5/23/23 4/24/24
f 12/25/25 1/26/26 2/27/27
f 12/28/28 2/29/29 3/30/30
