v -16.000031 -15.999980 7.999999
v -8.000031 -15.999980 8.000000
v 7.999969 -15.999980 8.000001
v 15.999969 -15.999980 8.000001
v -16.000027 -15.999980 -40.000000
v -8.000031 -15.999980 -40.000000
v 7.999970 -15.999980 -40.000000
v 15.999969 -15.999980 -40.000000
v -0.000031 -15.999980 8.000000
v -6.999999 -7.124980 -39.000031
v 8.000001 -7.124980 -39.000031
v 7.999999 -7.124980 -25.000031
v -7.000030 -7.006791 -25.000000
v 8.000000 -7.124980 -29.000029
v 16.000000 -7.124980 -29.000029
v 15.999999 -7.124980 -40.000027
v 8.000001 -7.124980 -40.000031
v 3.002489 0.000020 -35.006077
v 3.002488 0.000020 -39.005581
v 3.002496 0.000020 7.000000
v 6.999970 0.000020 7.000000
v -7.000042 0.000020 -35.006077
v -7.000030 0.000020 7.000000
v 6.999963 0.000020 -39.000000
v 6.999964 0.000020 -34.997471
v -7.008003 -0.002191 -39.008003
v 6.999963 -0.999980 -39.000000
v 3.002488 -0.999980 -39.005581
v 6.999964 -0.999980 -34.997471
v 3.002489 -0.999980 -35.006077
vt 0.999999 0.749999
vt 0.999999 0.250000
vt 0.000000 0.250000
vt 0.999999 0.749999
vt 0.000000 0.250000
vt 0.000000 0.500000
vt 0.999999 0.749999
vt 0.000000 0.500000
vt 0.000000 0.749999
vt 0.979167 0.750000
vt 0.979167 0.281251
vt 0.687500 0.281250
vt 0.979167 0.750000
vt 0.687500 0.281250
vt 0.687500 0.750000
vt 0.979167 0.750000
vt 0.687500 0.750000
vt 0.770833 0.750000
vt 0.999999 0.250000
vt 0.999999 0.000000
vt 0.000000 0.000000
vt 0.999999 0.250000
vt 0.000000 0.000000
vt 0.000000 0.250000
vt 0.999999 0.999999
vt 0.999999 0.749999
vt 0.000000 0.749999
vt 0.999999 0.999999
vt 0.000000 0.749999
vt 0.000000 0.999999
vt 0.979167 0.750000
vt 0.770833 0.750000
vt 0.770833 1.000000
vt 0.979167 0.750000
vt 0.770833 1.000000
vt 1.000000 1.000000
vt 1.000000 1.000000
vt 1.000000 0.750000
vt 0.979167 0.750000
vt 0.913017 0.000568
vt 0.000000 0.000569
vt 0.000000 0.714629
vt 0.913017 0.000568
vt 0.000000 0.714629
vt 0.913017 0.714628
vt 0.913017 0.714628
vt 0.000000 0.714629
vt 0.000000 1.000000
vt 0.913017 0.714628
vt 0.000000 1.000000
vt 0.912830 0.999999
vt 0.912830 0.999999
vt 0.999826 0.999999
vt 0.999826 0.999999
vt 0.912830 0.999999
vt 0.999826 0.999999
vt 0.912830 0.999999
vt 0.913017 0.714628
vt 0.999947 0.714628
vt 1.000000 0.000000
vt 0.913017 0.714628
vt 1.000000 0.000000
vt 0.913017 0.000568
vt 0.999826 0.999999
vt 0.999947 0.714628
vt 0.999947 0.714628
vt 0.999826 0.999999
vt 0.999947 0.714628
vt 0.999826 0.999999
vt 0.913017 0.714628
vt 0.912830 0.999999
vt 0.912830 0.999999
vt 0.913017 0.714628
vt 0.912830 0.999999
vt 0.913017 0.714628
vt 0.999947 0.714628
vt 0.913017 0.714628
vt 0.913017 0.714628
vt 0.999947 0.714628
vt 0.913017 0.714628
vt 0.999947 0.714628
vn 0.000000 1.000000 0.000000
vn 0.000000 1.000000 0.000000
vn 0.000000 1.000000 0.000000
vn 0.000000 1.000000 0.000000
vn 0.000000 1.000000 0.000000
vn 0.000000 1.000000 0.000000
vn 0.000000 1.000000 0.000000
vn 0.000000 1.000000 0.000000
vn -0.000000 1.000000 0.000000
vn 0.001313 0.999998 -0.001408
vn 0.003940 0.999983 -0.004219
vn 0.003940 0.999983 -0.004221
vn 0.001313 0.999998 -0.001408
vn 0.003940 0.999983 -0.004221
vn 0.003940 0.999983 -0.004221
vn 0.001313 0.999998 -0.001408
vn 0.003940 0.999983 -0.004221
vn 0.001970 0.999996 -0.002111
vn 0.000000 1.000000 0.000000
vn -0.000001 1.000000 0.000000
vn -0.000001 1.000000 0.000000
vn 0.000000 1.000000 0.000000
vn -0.000001 1.000000 0.000000
vn 0.000000 1.000000 0.000000
vn 0.000000 1.000000 0.000000
vn 0.000000 1.000000 0.000000
vn -0.000000 1.000000 0.000000
vn 0.000000 1.000000 0.000000
vn -0.000000 1.000000 0.000000
vn 0.000000 1.000000 0.000000
vn 0.001313 0.999998 -0.001408
vn 0.001970 0.999996 -0.002111
vn 0.000000 1.000000 0.000000
vn 0.001313 0.999998 -0.001408
vn 0.000000 1.000000 0.000000
vn 0.000000 1.000000 0.000000
vn 0.000000 1.000000 0.000000
vn 0.000000 1.000000 0.000000
vn 0.001313 0.999998 -0.001408
vn -0.000055 1.000000 -0.000137
vn -0.000000 1.000000 0.000000
vn -0.000000 1.000000 0.000000
vn -0.000055 1.000000 -0.000137
vn -0.000000 1.000000 0.000000
vn -0.000037 1.000000 -0.000092
vn -0.000037 1.000000 -0.000092
vn -0.000000 1.000000 0.000000
vn -0.000000 1.000000 0.000000
vn -0.000037 1.000000 -0.000092
vn -0.000000 1.000000 0.000000
vn -0.000000 1.000000 0.000000
vn -1.000000 0.000000 0.000000
vn -1.000000 0.000000 0.000000
vn -1.000000 0.000000 0.000000
vn -1.000000 0.000000 0.000000
vn -1.000000 0.000000 0.000000
vn -1.000000 0.000000 0.000000
vn -0.000037 1.000000 -0.000092
vn -0.000110 1.000000 -0.000275
vn -0.000110 1.000000 -0.000275
vn -0.000037 1.000000 -0.000092
vn -0.000110 1.000000 -0.000275
vn -0.000055 1.000000 -0.000137
vn -0.001396 0.000000 0.999999
vn -0.001396 0.000000 0.999999
vn -0.001396 0.000000 0.999999
vn -0.001396 0.000000 0.999999
vn -0.001396 0.000000 0.999999
vn -0.001396 0.000000 0.999999
vn 0.002153 0.000000 -0.999998
vn 0.002153 0.000000 -0.999998
vn 0.002153 0.000000 -0.999998
vn 0.002153 0.000000 -0.999998
vn 0.002153 0.000000 -0.999998
vn 0.002153 0.000000 -0.999998
vn 1.000000 0.000000 0.000000
vn 1.000000 0.000000 0.000000
vn 1.000000 0.000000 0.000000
vn 1.000000 0.000000 0.000000
vn 1.000000 0.000000 0.000000
vn 1.000000 0.000000 0.000000
f 7/1/1 6/2/2 2/3/3
f 7/4/4 2/5/5 9/6/6
f 7/7/7 9/8/8 3/9/9
f 11/10/10 10/11/11 13/12/12
f 11/13/13 13/14/14 12/15/15
f 11/16/16 12/17/17 14/18/18
f 6/19/19 5/20/20 1/21/21
f 6/22/22 1/23/23 2/24/24
f 8/25/25 7/26/26 3/27/27
f 8/28/28 3/29/29 4/30/30
f 11/31/31 14/32/32 15/33/33
f 11/34/34 15/35/35 16/36/36
f 16/37/37 17/38/38 11/39/39
f 22/40/40 23/41/41 20/42/42
f 22/43/43 20/44/44 18/45/45
f 18/46/46 20/47/47 21/48/48
f 18/49/49 21/50/50 25/51/51
f 25/52/52 24/53/53 27/54/54
f 25/55/55 27/56/56 29/57/57
f 18/58/58 19/59/59 26/60/60
f 18/61/61 26/62/62 22/63/63
f 24/64/64 19/65/65 28/66/66
f 24/67/67 28/68/68 27/69/69
f 18/70/70 25/71/71 29/72/72
f 18/73/73 29/74/74 30/75/75
f 19/76/76 18/77/77 30/78/78
f 19/79/79 30/80/80 28/81/81
