v -11.697739 -1.706405 81.908073
v 14.986338 -1.706403 81.917885
v -11.697734 -22.136389 45.237747
v -11.697731 -32.351379 26.902584
v -11.697733 -27.243883 36.070168
v -11.697730 -37.458878 17.735001
v -11.697737 -11.921396 63.572910
v -11.697735 -17.028893 54.405327
v -11.697738 -6.813900 72.740494
v 14.986333 -22.136387 45.242661
v 14.986336 -11.921394 63.580273
v 14.986330 -32.351379 26.905048
v 14.986335 -17.028891 54.411469
v 14.986331 -27.243885 36.073853
v 14.986329 -37.458878 17.736244
v 14.986337 -6.813900 72.749077
v -11.697729 -42.597248 17.711224
v 14.986328 -42.597248 17.711853
v 14.986330 -37.489750 26.880648
v -11.697731 -37.489750 26.878794
v -11.697732 -32.382256 36.046413
v 14.986330 -32.382256 36.049488
v 14.986332 -27.274761 45.218300
v -11.697733 -27.274761 45.214001
v -11.697734 -22.167267 54.493954
v 14.986334 -22.167263 54.499481
v 14.986336 -16.947392 63.555916
v -11.697736 -16.947393 63.549164
v 14.986336 -11.952273 72.724716
v -11.697737 -11.952275 72.716743
v -11.697738 -6.732405 81.884323
v 14.986338 -6.732401 81.893524
v 14.986338 -42.566372 81.948608
v 15.003182 -1.706404 88.619637
v 14.986347 -42.566372 88.619637
vt 0.000000 0.000000
vt 0.000000 0.000000
vt 0.000000 0.000000
vt 0.000000 0.000000
vt 0.000000 0.000000
vt 0.000000 0.000000
vt 0.000000 0.000000
vt 0.000000 0.000000
vt 0.000000 0.000000
vt 0.000000 0.000000
vt 0.000000 0.000000
vt 0.000000 0.000000
vt 0.000000 0.000000
vt 0.000000 0.000000
vt 0.000000 0.000000
vt 0.000000 0.000000
vt 0.000000 0.000000
vt 0.000000 0.000000
vt 0.000000 0.000000
vt 0.000000 0.000000
vt 0.000000 0.000000
vt 0.000000 0.000000
vt 0.000000 0.000000
vt 0.000000 0.000000
vt 0.000000 0.000000
vt 0.000000 0.000000
vt 0.000000 0.000000
vt 0.000000 0.000000
vt 0.000000 0.000000
vt 0.000000 0.000000
vt 0.000000 0.000000
vt 0.000000 0.000000
vt 0.000000 0.000000
vt 0.000000 0.000000
vt 0.000000 0.000000
vt 0.000000 0.000000
vt 0.000000 0.000000
vt 0.000000 0.000000
vt 0.000000 0.000000
vt 0.000000 0.000000
vt 0.000000 0.000000
vt 0.000000 0.000000
vt 0.000000 0.000000
vt 0.000000 0.000000
vt 0.000000 0.000000
vt 0.000000 0.000000
vt 0.000000 0.000000
vt 0.000000 0.000000
vt 0.000000 0.000000
vt 0.000000 0.000000
vt 0.000000 0.000000
vt 0.000000 0.000000
vt 0.000000 0.000000
vt 0.000000 0.000000
vt 0.000000 0.000000
vt 0.000000 0.000000
vt 0.000000 0.000000
vt 0.000000 0.000000
vt 0.000000 0.000000
vt 0.000000 0.000000
vt 0.000000 0.000000
vt 0.000000 0.000000
vt 0.000000 0.000000
vt 0.000000 0.000000
vt 0.000000 0.000000
vt 0.000000 0.000000
vt 0.000000 0.000000
vt 0.000000 0.000000
vt 0.000000 0.000000
vt 0.000000 0.000000
vt 0.000000 0.000000
vt 0.000000 0.000000
vt 0.000000 0.000000
vt 0.000000 0.000000
vt 0.000000 0.000000
vt 0.000000 0.000000
vt 0.000000 0.000000
vt 0.000000 0.000000
vt 0.000000 0.000000
vt 0.000000 0.000000
vt 0.000000 0.000000
vt 0.000000 0.000000
vt 0.000000 0.000000
vt 0.000000 0.000000
vt 0.000000 0.000000
vt 0.000000 0.000000
vt 0.000000 0.000000
vt 0.000000 0.000000
vt 0.000000 0.000000
vt 0.000000 0.000000
vt 0.000000 0.000000
vt 0.000000 0.000000
vt 0.000000 0.000000
vt 0.000000 0.000000
vt 0.000000 0.000000
vt 0.000000 0.000000
vt 0.000000 0.000000
vt 0.000000 0.000000
vt 0.000000 0.000000
vt 0.000000 0.000000
vt 0.000000 0.000000
vt 0.000000 0.000000
vt 0.000000 0.000000
vt 0.000000 0.000000
vt 0.000000 0.000000
vt 0.000000 0.000000
vt 0.000000 0.000000
vt 0.000000 0.000000
vt 0.000000 0.000000
vt 0.000000 0.000000
vt 0.000000 0.000000
vt 0.000000 0.000000
vt 0.000000 0.000000
vt 0.000000 0.000000
vt 0.000000 0.000000
vt 0.000000 0.000000
vt 0.000000 0.000000
vt 0.000000 0.000000
vt 0.000000 0.000000
vt 0.000000 0.000000
vt 0.000000 0.000000
vt 0.000000 0.000000
vt 0.000000 0.000000
vt 0.000000 0.000000
vt 0.000000 0.000000
vt 0.000000 0.000000
vt 0.000000 0.000000
vt 0.000000 0.000000
vt 0.000000 0.000000
vt 0.000000 0.000000
vt 0.000000 0.000000
vt 0.000000 0.000000
vt 0.000000 0.000000
vt 0.000000 0.000000
vt 0.000000 0.000000
vt 0.000000 0.000000
vt 0.000000 0.000000
vt 0.000000 0.000000
vt 0.000000 0.000000
vt 0.000000 0.000000
vt 0.000000 0.000000
vn 0.000356 0.004786 -0.999988
vn 0.000356 0.004786 -0.999988
vn 0.000356 0.004786 -0.999988
vn 0.000356 0.004786 -0.999988
vn 0.000356 0.004786 -0.999988
vn 0.000356 0.004786 -0.999988
vn 0.000003 0.999960 -0.008912
vn 0.000003 0.999960 -0.008912
vn 0.000003 0.999960 -0.008912
vn 0.000003 0.999960 -0.008912
vn 0.000003 0.999960 -0.008912
vn 0.000003 0.999960 -0.008912
vn 0.000035 0.004687 -0.999989
vn 0.000035 0.004687 -0.999989
vn 0.000035 0.004687 -0.999989
vn 0.000035 0.004687 -0.999989
vn 0.000035 0.004687 -0.999989
vn 0.000035 0.004687 -0.999989
vn -0.000000 0.999994 0.003376
vn -0.000000 0.999994 0.003376
vn -0.000000 0.999994 0.003376
vn -0.000000 0.999994 0.003376
vn -0.000000 0.999994 0.003376
vn -0.000000 0.999994 0.003376
vn 0.000081 0.004689 -0.999989
vn 0.000081 0.004689 -0.999989
vn 0.000081 0.004689 -0.999989
vn 0.000081 0.004689 -0.999989
vn 0.000081 0.004689 -0.999989
vn 0.000081 0.004689 -0.999989
vn -0.000000 0.999994 0.003377
vn -0.000000 0.999994 0.003377
vn -0.000000 0.999994 0.003377
vn -0.000000 0.999994 0.003377
vn -0.000000 0.999994 0.003377
vn -0.000000 0.999994 0.003377
vn 0.000127 0.004682 -0.999989
vn 0.000127 0.004682 -0.999989
vn 0.000127 0.004682 -0.999989
vn 0.000127 0.004682 -0.999989
vn 0.000127 0.004682 -0.999989
vn 0.000127 0.004682 -0.999989
vn -0.000000 0.999994 0.003377
vn -0.000000 0.999994 0.003377
vn -0.000000 0.999994 0.003377
vn -0.000000 0.999994 0.003377
vn -0.000000 0.999994 0.003377
vn -0.000000 0.999994 0.003377
vn 0.000173 0.004681 -0.999989
vn 0.000173 0.004681 -0.999989
vn 0.000173 0.004681 -0.999989
vn 0.000173 0.004681 -0.999989
vn 0.000173 0.004681 -0.999989
vn 0.000173 0.004681 -0.999989
vn -0.000001 0.999994 0.003336
vn -0.000001 0.999994 0.003336
vn -0.000001 0.999994 0.003336
vn -0.000001 0.999994 0.003336
vn -0.000001 0.999994 0.003336
vn -0.000001 0.999994 0.003336
vn 0.000219 -0.017186 -0.999852
vn 0.000219 -0.017186 -0.999852
vn 0.000219 -0.017186 -0.999852
vn 0.000219 -0.017186 -0.999852
vn 0.000219 -0.017186 -0.999852
vn 0.000219 -0.017186 -0.999852
vn 0.000002 0.999960 -0.008912
vn 0.000002 0.999960 -0.008912
vn 0.000002 0.999960 -0.008912
vn 0.000002 0.999960 -0.008912
vn 0.000002 0.999960 -0.008912
vn 0.000002 0.999960 -0.008912
vn 0.000264 0.004785 -0.999988
vn 0.000264 0.004785 -0.999988
vn 0.000264 0.004785 -0.999988
vn 0.000264 0.004785 -0.999988
vn 0.000264 0.004785 -0.999988
vn 0.000264 0.004785 -0.999988
vn -0.000001 0.999994 0.003377
vn -0.000001 0.999994 0.003377
vn -0.000001 0.999994 0.003377
vn -0.000001 0.999994 0.003377
vn -0.000001 0.999994 0.003377
vn -0.000001 0.999994 0.003377
vn 0.000310 0.004681 -0.999989
vn 0.000310 0.004681 -0.999989
vn 0.000310 0.004681 -0.999989
vn 0.000310 0.004681 -0.999989
vn 0.000310 0.004681 -0.999989
vn 0.000310 0.004681 -0.999989
vn 0.999997 -0.000200 -0.002355
vn 0.999999 -0.000206 -0.001099
vn 0.999999 -0.000100 -0.001178
vn 1.000000 0.000000 -0.000000
vn 1.000000 -0.000000 -0.000000
vn 0.999999 -0.000100 -0.001178
vn 1.000000 0.000000 -0.000000
vn 0.999999 -0.000100 -0.001178
vn 1.000000 -0.000000 -0.000000
vn 0.999999 -0.000206 -0.001099
vn 1.000000 -0.000000 -0.000000
vn 0.999999 -0.000100 -0.001178
vn 0.999999 -0.000100 -0.001178
vn 0.999997 0.000012 -0.002513
vn 0.999997 -0.000200 -0.002355
vn 1.000000 -0.000000 -0.000000
vn 1.000000 -0.000000 -0.000000
vn 1.000000 -0.000000 -0.000000
vn 1.000000 -0.000000 -0.000000
vn 1.000000 -0.000000 -0.000000
vn 1.000000 0.000000 -0.000000
vn 1.000000 -0.000000 -0.000000
vn 1.000000 0.000000 -0.000000
vn 1.000000 0.000000 -0.000000
vn 1.000000 -0.000000 -0.000000
vn 1.000000 0.000000 -0.000000
vn 1.000000 -0.000000 -0.000000
vn 1.000000 -0.000000 -0.000000
vn 1.000000 -0.000000 -0.000000
vn 1.000000 -0.000000 -0.000000
vn 1.000000 -0.000000 -0.000000
vn 1.000000 -0.000000 -0.000000
vn 1.000000 -0.000000 -0.000000
vn 1.000000 -0.000000 -0.000000
vn 1.000000 -0.000000 -0.000000
vn 1.000000 -0.000000 -0.000000
vn 1.000000 -0.000000 -0.000000
vn 1.000000 -0.000000 -0.000000
vn 1.000000 -0.000000 -0.000000
vn 1.000000 0.000000 -0.000000
vn 1.000000 -0.000000 -0.000000
vn 1.000000 -0.000000 -0.000000
vn 1.000000 0.000000 -0.000000
vn 1.000000 -0.000000 -0.000000
vn 1.000000 -0.000000 -0.000000
vn 1.000000 0.000000 -0.000000
vn 1.000000 0.000000 -0.000000
vn 1.000000 0.000000 -0.000000
vn 1.000000 0.000000 -0.000000
vn 1.000000 0.000000 -0.000000
vn 1.000000 -0.000000 -0.000000
f 31/1/1 1/2/2 2/3/3
f 31/4/4 2/5/5 32/6/6
f 32/7/7 16/8/8 9/9/9
f 32/10/10 9/11/11 31/12/12
f 15/13/13 18/14/14 17/15/15
f 15/16/16 17/17/17 6/18/18
f 19/19/19 15/20/20 6/21/21
f 19/22/22 6/23/23 20/24/24
f 12/25/25 19/26/26 20/27/27
f 12/28/28 20/29/29 4/30/30
f 22/31/31 12/32/32 4/33/33
f 22/34/34 4/35/35 21/36/36
f 14/37/37 22/38/38 21/39/39
f 14/40/40 21/41/41 5/42/42
f 23/43/43 14/44/44 5/45/45
f 23/46/46 5/47/47 24/48/48
f 10/49/49 23/50/50 24/51/51
f 10/52/52 24/53/53 3/54/54
f 26/55/55 10/56/56 3/57/57
f 26/58/58 3/59/59 25/60/60
f 13/61/61 26/62/62 25/63/63
f 13/64/64 25/65/65 8/66/66
f 27/67/67 13/68/68 8/69/69
f 27/70/70 8/71/71 28/72/72
f 11/73/73 27/74/74 28/75/75
f 11/76/76 28/77/77 7/78/78
f 29/79/79 11/80/80 7/81/81
f 29/82/82 7/83/83 30/84/84
f 16/85/85 29/86/86 30/87/87
f 16/88/88 30/89/89 9/90/90
f 34/91/91 35/92/92 32/93/93
f 29/94/94 16/95/95 32/96/96
f 29/97/97 32/98/98 33/99/99
f 35/100/100 33/101/101 32/102/102
f 32/103/103 2/104/104 34/105/105
f 33/106/106 18/107/107 15/108/108
f 33/109/109 15/110/110 19/111/111
f 27/112/112 11/113/113 29/114/114
f 27/115/115 29/116/116 33/117/117
f 26/118/118 13/119/119 27/120/120
f 26/121/121 27/122/122 33/123/123
f 23/124/124 10/125/125 26/126/126
f 23/127/127 26/128/128 33/129/129
f 22/130/130 14/131/131 23/132/132
f 22/133/133 23/134/134 33/135/135
f 19/136/136 12/137/137 22/138/138
f 19/139/139 22/140/140 33/141/141
