v -1.105341 -0.981647 -0.358301
v -1.105341 -0.981647 0.579816
v -1.105341 0.907455 -0.358301
v -1.105341 0.907455 0.579816
v 1.105341 -0.981647 -0.358301
v 1.105341 -0.981647 0.579816
v 1.105341 0.907455 -0.358301
v 1.105341 0.907455 0.579816
v 1.105341 -2.480330 -0.358301
v -1.105341 -2.480330 -0.358301
v 1.105341 -2.480330 0.327970
v -1.105341 -2.480330 0.327970
v -0.632257 0.907455 -0.065916
v -0.632257 0.907455 0.287431
v 0.632257 0.907455 -0.065916
v 0.632257 0.907455 0.287431
v -0.552670 -1.958568 -0.689917
v 0.552671 0.464749 -0.689917
v -0.552670 0.464749 -0.689917
v 0.552671 -1.958568 -0.689917
v 0.552671 -0.981647 -0.689917
v -0.552670 -0.981647 -0.689917
v -0.552670 -2.480330 0.327970
v 0.552671 -2.480330 0.327970
vt 0.415476 0.003831
vt 0.363732 0.053478
vt 0.415360 0.053548
vt 0.267183 0.003628
vt 0.266720 0.202497
vt 0.079797 0.202240
vt 0.267183 0.003628
vt 0.079797 0.202240
vt 0.080259 0.003371
vt 0.415128 0.152983
vt 0.363501 0.152912
vt 0.415013 0.202700
vt 0.683582 0.362731
vt 0.723352 0.362567
vt 0.722471 0.283487
vt 0.683582 0.362731
vt 0.722471 0.283487
vt 0.683143 0.300746
vt 0.415360 0.053548
vt 0.415476 0.003831
vt 0.415476 0.003831
vt 0.363732 0.053478
vt 0.363501 0.152912
vt 0.415128 0.152983
vt 0.363732 0.053478
vt 0.415128 0.152983
vt 0.415360 0.053548
vt 0.683630 0.362243
vt 0.723406 0.362442
vt 0.724077 0.286216
vt 0.683630 0.362243
vt 0.724077 0.286216
vt 0.684037 0.300344
vt 0.415013 0.202700
vt 0.415013 0.202700
vt 0.415128 0.152983
vt 0.266720 0.202497
vt 0.267183 0.003628
vt 0.415476 0.003831
vt 0.266720 0.202497
vt 0.415476 0.003831
vt 0.415360 0.053548
vt 0.266720 0.202497
vt 0.415360 0.053548
vt 0.415128 0.152983
vt 0.266720 0.202497
vt 0.415128 0.152983
vt 0.415013 0.202700
vt 0.174498 0.158992
vt 0.079896 0.159682
vt 0.080160 0.045929
vt 0.174498 0.158992
vt 0.080160 0.045929
vt 0.174731 0.046740
vt 0.079896 0.159682
vt 0.174499 0.152583
vt 0.174730 0.053149
vt 0.079896 0.159682
vt 0.174730 0.053149
vt 0.080160 0.045929
vt 0.080160 0.045929
vt 0.174731 0.003699
vt 0.174497 0.202033
vt 0.080160 0.045929
vt 0.174497 0.202033
vt 0.079896 0.159682
vt 0.174730 0.053149
vt 0.080259 0.003371
vt 0.080160 0.045929
vt 0.563533 0.361478
vt 0.683630 0.362243
vt 0.684037 0.300344
vt 0.563533 0.361478
vt 0.684037 0.300344
vt 0.563940 0.299579
vt 0.682771 0.255916
vt 0.562672 0.256244
vt 0.563483 0.363058
vt 0.682771 0.255916
vt 0.563483 0.363058
vt 0.683582 0.362731
vt 0.079896 0.159682
vt 0.079797 0.202240
vt 0.174499 0.152583
vt 0.563044 0.301074
vt 0.522827 0.284143
vt 0.523707 0.363222
vt 0.563044 0.301074
vt 0.523707 0.363222
vt 0.563483 0.363058
vt 0.563940 0.299579
vt 0.524435 0.285054
vt 0.523763 0.361280
vt 0.563940 0.299579
vt 0.523763 0.361280
vt 0.563533 0.361478
vt 0.308829 0.063866
vt 0.410245 0.064035
vt 0.410081 0.130344
vt 0.308829 0.063866
vt 0.410081 0.130344
vt 0.308665 0.145799
vt 0.308665 0.145799
vt 0.410081 0.130344
vt 0.410245 0.064035
vt 0.308665 0.145799
vt 0.410245 0.064035
vt 0.308829 0.063866
vt 0.000000 0.000000
vt 0.000000 0.000000
vt 0.000000 0.000000
vt 0.000000 0.000000
vt 0.000000 0.000000
vt 0.000000 0.000000
vt 0.000000 0.000000
vt 0.000000 0.000000
vt 0.000000 0.000000
vt 0.000000 0.000000
vt 0.000000 0.000000
vt 0.000000 0.000000
vt 0.000000 0.000000
vt 0.000000 0.000000
vt 0.000000 0.000000
vt 0.000000 0.000000
vt 0.000000 0.000000
vt 0.000000 0.000000
vt 0.000000 0.000000
vt 0.000000 0.000000
vt 0.000000 0.000000
vt 0.000000 0.000000
vt 0.000000 0.000000
vt 0.000000 0.000000
vn 0.492854 -0.774312 -0.396907
vn 0.254841 -0.860518 -0.441096
vn 0.254841 -0.860518 -0.441096
vn 0.000000 -0.083149 0.996537
vn 0.000000 -0.083149 0.996537
vn 0.000000 0.000000 1.000000
vn 0.000000 -0.083149 0.996537
vn 0.000000 0.000000 1.000000
vn 0.000000 0.000000 1.000000
vn -0.254841 -0.860518 -0.441096
vn -0.254841 -0.860518 -0.441096
vn -0.492854 -0.774312 -0.396907
vn -0.514511 0.000000 -0.857484
vn -0.514511 0.000000 -0.857484
vn -0.514511 0.000000 -0.857484
vn -0.514511 0.000000 -0.857484
vn -0.514511 0.000000 -0.857484
vn -0.514511 0.000000 -0.857484
vn 0.000000 -1.000000 0.000000
vn 0.000000 -1.000000 0.000000
vn 0.000000 -1.000000 0.000000
vn 0.254841 -0.860518 -0.441096
vn -0.254841 -0.860518 -0.441096
vn -0.254841 -0.860518 -0.441096
vn 0.254841 -0.860518 -0.441096
vn -0.254841 -0.860518 -0.441096
vn 0.254841 -0.860518 -0.441096
vn 0.514511 0.000000 -0.857484
vn 0.514511 0.000000 -0.857484
vn 0.514511 0.000000 -0.857484
vn 0.514511 0.000000 -0.857484
vn 0.514511 0.000000 -0.857484
vn 0.514511 0.000000 -0.857484
vn 0.000000 -1.000000 0.000000
vn 0.000000 -1.000000 0.000000
vn 0.000000 -1.000000 0.000000
vn 0.000000 -0.083149 0.996537
vn 0.000000 -0.083149 0.996537
vn 0.000000 -0.165721 0.986173
vn 0.000000 -0.083149 0.996537
vn 0.000000 -0.165721 0.986173
vn 0.000000 -0.165721 0.986173
vn 0.000000 -0.083149 0.996537
vn 0.000000 -0.165721 0.986173
vn 0.000000 -0.165721 0.986173
vn 0.000000 -0.083149 0.996537
vn 0.000000 -0.165721 0.986173
vn 0.000000 -0.165721 0.986173
vn 0.000000 1.000000 0.000000
vn 0.000000 1.000000 0.000000
vn 0.000000 1.000000 0.000000
vn 0.000000 1.000000 0.000000
vn 0.000000 1.000000 0.000000
vn 0.000000 1.000000 0.000000
vn -0.162979 0.814375 -0.556984
vn -0.162979 0.814375 -0.556984
vn 0.162979 0.814375 -0.556984
vn -0.162979 0.814375 -0.556984
vn 0.162979 0.814375 -0.556984
vn 0.162979 0.814375 -0.556984
vn 0.000000 1.000000 0.000000
vn 0.000000 1.000000 0.000000
vn 0.000000 1.000000 0.000000
vn 0.000000 1.000000 0.000000
vn 0.000000 1.000000 0.000000
vn 0.000000 1.000000 0.000000
vn 0.162979 0.814375 -0.556984
vn 0.321553 0.791147 -0.520279
vn 0.162979 0.814375 -0.556984
vn 0.000000 0.000000 -1.000000
vn 0.000000 0.000000 -1.000000
vn 0.000000 0.000000 -1.000000
vn 0.000000 0.000000 -1.000000
vn 0.000000 0.000000 -1.000000
vn 0.000000 0.000000 -1.000000
vn 0.000000 0.000000 -1.000000
vn 0.000000 0.000000 -1.000000
vn 0.000000 0.000000 -1.000000
vn 0.000000 0.000000 -1.000000
vn 0.000000 0.000000 -1.000000
vn 0.000000 0.000000 -1.000000
vn -0.162979 0.814375 -0.556984
vn -0.321553 0.791147 -0.520279
vn -0.162979 0.814375 -0.556984
vn 0.514511 0.000000 -0.857484
vn 0.514511 0.000000 -0.857484
vn 0.514511 0.000000 -0.857484
vn 0.514511 0.000000 -0.857484
vn 0.514511 0.000000 -0.857484
vn 0.514511 0.000000 -0.857484
vn -0.514511 0.000000 -0.857484
vn -0.514511 0.000000 -0.857484
vn -0.514511 0.000000 -0.857484
vn -0.514511 0.000000 -0.857484
vn -0.514511 0.000000 -0.857484
vn -0.514511 0.000000 -0.857484
vn -1.000000 0.000000 0.000000
vn -1.000000 0.000000 0.000000
vn -1.000000 0.000000 0.000000
vn -1.000000 0.000000 0.000000
vn -1.000000 0.000000 0.000000
vn -1.000000 0.000000 0.000000
vn 1.000000 0.000000 0.000000
vn 1.000000 0.000000 0.000000
vn 1.000000 0.000000 0.000000
vn 1.000000 0.000000 0.000000
vn 1.000000 0.000000 0.000000
vn 1.000000 0.000000 0.000000
vn 0.000000 1.000000 0.000000
vn 0.000000 1.000000 0.000000
vn 0.000000 1.000000 0.000000
vn 0.000000 1.000000 0.000000
vn 0.000000 1.000000 0.000000
vn 0.000000 1.000000 0.000000
vn -1.000000 0.000000 0.000000
vn -1.000000 0.000000 0.000000
vn -1.000000 0.000000 0.000000
vn -1.000000 0.000000 0.000000
vn -1.000000 0.000000 0.000000
vn -1.000000 0.000000 0.000000
vn 0.000000 1.000000 0.000000
vn 0.000000 1.000000 0.000000
vn 0.000000 1.000000 0.000000
vn 0.000000 1.000000 0.000000
vn 0.000000 1.000000 0.000000
vn 0.000000 1.000000 0.000000
vn 1.000000 0.000000 0.000000
vn 1.000000 0.000000 0.000000
vn 1.000000 0.000000 0.000000
vn 1.000000 0.000000 0.000000
vn 1.000000 0.000000 0.000000
vn 1.000000 0.000000 0.000000
f 10/1/1 17/2/2 23/3/3
f 2/4/4 6/5/5 8/6/6
f 2/7/7 8/8/8 4/9/9
f 24/10/10 20/11/11 9/12/12
f 22/13/13 1/14/14 3/15/15
f 22/16/16 3/17/17 19/18/18
f 23/19/19 12/20/20 10/21/21
f 17/22/22 20/23/23 24/24/24
f 17/25/25 24/26/26 23/27/27
f 21/28/28 5/29/29 9/30/30
f 21/31/31 9/32/32 20/33/33
f 9/34/34 11/35/35 24/36/36
f 6/37/37 2/38/38 12/39/39
f 6/40/40 12/41/41 23/42/42
f 6/43/43 23/44/44 24/45/45
f 6/46/46 24/47/47 11/48/48
f 16/49/49 15/50/50 13/51/51
f 16/52/52 13/53/53 14/54/54
f 15/55/55 18/56/56 19/57/57
f 15/58/58 19/59/59 13/60/60
f 14/61/61 4/62/62 8/63/63
f 14/64/64 8/65/65 16/66/66
f 19/67/67 3/68/68 13/69/69
f 22/70/70 21/71/71 20/72/72
f 22/73/73 20/74/74 17/75/75
f 19/76/76 18/77/77 21/78/78
f 19/79/79 21/80/80 22/81/81
f 15/82/82 7/83/83 18/84/84
f 18/85/85 7/86/86 5/87/87
f 18/88/88 5/89/89 21/90/90
f 17/91/91 10/92/92 1/93/93
f 17/94/94 1/95/95 22/96/96
f 1/97/97 10/98/98 12/99/99
f 1/100/100 12/101/101 2/102/102
f 6/103/103 11/104/104 9/105/105
f 6/106/106 9/107/107 5/108/108
f 14/109/109 13/110/110 3/111/111
f 14/112/112 3/113/113 4/114/114
f 4/115/115 3/116/116 1/117/117
f 4/118/118 1/119/119 2/120/120
f 15/121/121 16/122/122 8/123/123
f 15/124/124 8/125/125 7/126/126
f 7/127/127 8/128/128 6/129/129
f 7/130/130 6/131/131 5/132/132
