v 0.066175 5.291378 -3.658320
v 0.111583 5.291378 -3.658320
v 0.088879 5.325504 -3.638781
v 0.043471 5.325504 -3.638781
v 0.020767 5.291378 -3.658320
v 0.043471 5.257252 -3.677860
v 0.088879 5.257252 -3.677859
v -0.085088 5.291378 -3.658320
v -0.039680 5.291378 -3.658320
v -0.062384 5.325504 -3.638781
v -0.107792 5.325504 -3.638781
v -0.130496 5.291378 -3.658320
v -0.107792 5.257252 -3.677860
v -0.062384 5.257252 -3.677859
v 1.863458 3.563238 -2.541713
v 1.880503 3.563238 -2.499626
v 1.871981 3.602562 -2.520669
v 1.854936 3.602562 -2.562757
v 1.846413 3.563238 -2.583801
v 1.854936 3.523914 -2.562757
v 1.871981 3.523914 -2.520669
v 1.863458 3.753459 -2.541713
v 1.880503 3.753459 -2.499626
v 1.871981 3.792783 -2.520669
v 1.854936 3.792783 -2.562757
v 1.846413 3.753459 -2.583801
v 1.854936 3.714135 -2.562757
v 1.871981 3.714135 -2.520669
v -1.871663 3.753459 -2.541713
v -1.888708 3.753459 -2.499626
v -1.880186 3.792783 -2.520669
v -1.863141 3.792783 -2.562757
v -1.854619 3.753459 -2.583801
v -1.863141 3.714135 -2.562757
v -1.880186 3.714135 -2.520669
v -1.871663 3.563238 -2.541713
v -1.888708 3.563238 -2.499626
v -1.880186 3.602562 -2.520669
v -1.863141 3.602562 -2.562757
v -1.854619 3.563238 -2.583801
v -1.863141 3.523914 -2.562757
v -1.880186 3.523914 -2.520669
vt 0.000000 0.000000
vt 0.000000 0.000000
vt 0.000000 0.000000
vt 0.000000 0.000000
vt 0.000000 0.000000
vt 0.000000 0.000000
vt 0.000000 0.000000
vt 0.000000 0.000000
vt 0.000000 0.000000
vt 0.000000 0.000000
vt 0.000000 0.000000
vt 0.000000 0.000000
vt 0.000000 0.000000
vt 0.000000 0.000000
vt 0.000000 0.000000
vt 0.000000 0.000000
vt 0.000000 0.000000
vt 0.000000 0.000000
vt 0.000000 0.000000
vt 0.000000 0.000000
vt 0.000000 0.000000
vt 0.000000 0.000000
vt 0.000000 0.000000
vt 0.000000 0.000000
vt 0.000000 0.000000
vt 0.000000 0.000000
vt 0.000000 0.000000
vt 0.000000 0.000000
vt 0.000000 0.000000
vt 0.000000 0.000000
vt 0.000000 0.000000
vt 0.000000 0.000000
vt 0.000000 0.000000
vt 0.000000 0.000000
vt 0.000000 0.000000
vt 0.000000 0.000000
vt 0.000000 0.000000
vt 0.000000 0.000000
vt 0.000000 0.000000
vt 0.000000 0.000000
vt 0.000000 0.000000
vt 0.000000 0.000000
vt 0.000000 0.000000
vt 0.000000 0.000000
vt 0.000000 0.000000
vt 0.000000 0.000000
vt 0.000000 0.000000
vt 0.000000 0.000000
vt 0.000000 0.000000
vt 0.000000 0.000000
vt 0.000000 0.000000
vt 0.000000 0.000000
vt 0.000000 0.000000
vt 0.000000 0.000000
vt 0.000000 0.000000
vt 0.000000 0.000000
vt 0.000000 0.000000
vt 0.000000 0.000000
vt 0.000000 0.000000
vt 0.000000 0.000000
vt 0.000000 0.000000
vt 0.000000 0.000000
vt 0.000000 0.000000
vt 0.000000 0.000000
vt 0.000000 0.000000
vt 0.000000 0.000000
vt 0.000000 0.000000
vt 0.000000 0.000000
vt 0.000000 0.000000
vt 0.000000 0.000000
vt 0.000000 0.000000
vt 0.000000 0.000000
vt 0.000000 0.000000
vt 0.000000 0.000000
vt 0.000000 0.000000
vt 0.000000 0.000000
vt 0.000000 0.000000
vt 0.000000 0.000000
vt 0.000000 0.000000
vt 0.000000 0.000000
vt 0.000000 0.000000
vt 0.000000 0.000000
vt 0.000000 0.000000
vt 0.000000 0.000000
vt 0.000000 0.000000
vt 0.000000 0.000000
vt 0.000000 0.000000
vt 0.000000 0.000000
vt 0.000000 0.000000
vt 0.000000 0.000000
vt 0.000000 0.000000
vt 0.000000 0.000000
vt 0.000000 0.000000
vt 0.000000 0.000000
vt 0.000000 0.000000
vt 0.000000 0.000000
vt 0.000000 0.000000
vt 0.000000 0.000000
vt 0.000000 0.000000
vt 0.000000 0.000000
vt 0.000000 0.000000
vt 0.000000 0.000000
vt 0.000000 0.000000
vt 0.000000 0.000000
vt 0.000000 0.000000
vt 0.000000 0.000000
vt 0.000000 0.000000
vt 0.000000 0.000000
vn -0.000000 0.496880 -0.867819
vn -0.000000 0.496880 -0.867819
vn -0.000000 0.496878 -0.867821
vn -0.000000 0.496880 -0.867819
vn -0.000000 0.496878 -0.867821
vn -0.000000 0.496880 -0.867819
vn -0.000000 0.496880 -0.867819
vn 0.000000 0.496884 -0.867817
vn -0.000000 0.496880 -0.867819
vn -0.000000 0.496880 -0.867819
vn -0.000000 0.496880 -0.867819
vn 0.000000 0.496880 -0.867819
vn -0.000000 0.496880 -0.867819
vn 0.000000 0.496880 -0.867819
vn 0.000000 0.496884 -0.867817
vn -0.000000 0.496880 -0.867819
vn 0.000000 0.496884 -0.867817
vn 0.000000 0.496884 -0.867817
vn -0.000000 0.496880 -0.867819
vn 0.000000 0.496880 -0.867819
vn 0.000000 0.496878 -0.867821
vn -0.000000 0.496880 -0.867819
vn 0.000000 0.496878 -0.867821
vn -0.000000 0.496880 -0.867819
vn -0.000000 0.496880 -0.867819
vn -0.000000 0.496884 -0.867817
vn 0.000000 0.496880 -0.867819
vn -0.000000 0.496880 -0.867819
vn -0.000000 0.496880 -0.867819
vn -0.000000 0.496880 -0.867819
vn -0.000000 0.496880 -0.867819
vn -0.000000 0.496880 -0.867819
vn -0.000000 0.496884 -0.867817
vn -0.000000 0.496880 -0.867819
vn -0.000000 0.496884 -0.867817
vn -0.000000 0.496884 -0.867817
vn 0.926875 0.000000 -0.375371
vn 0.926875 0.000000 -0.375371
vn 0.926875 -0.000001 -0.375371
vn 0.926875 0.000000 -0.375371
vn 0.926875 -0.000001 -0.375371
vn 0.926875 -0.000001 -0.375371
vn 0.926875 0.000000 -0.375371
vn 0.926875 0.000001 -0.375371
vn 0.926875 0.000000 -0.375371
vn 0.926875 0.000000 -0.375371
vn 0.926875 -0.000001 -0.375371
vn 0.926875 -0.000000 -0.375371
vn 0.926875 0.000000 -0.375371
vn 0.926875 -0.000000 -0.375371
vn 0.926875 0.000001 -0.375371
vn 0.926875 0.000000 -0.375371
vn 0.926875 0.000001 -0.375371
vn 0.926875 0.000001 -0.375371
vn 0.926875 0.000000 -0.375371
vn 0.926875 0.000000 -0.375371
vn 0.926875 -0.000001 -0.375371
vn 0.926875 0.000000 -0.375371
vn 0.926875 -0.000001 -0.375371
vn 0.926875 -0.000001 -0.375371
vn 0.926875 0.000000 -0.375371
vn 0.926875 0.000001 -0.375371
vn 0.926875 0.000000 -0.375371
vn 0.926875 0.000000 -0.375371
vn 0.926875 -0.000001 -0.375371
vn 0.926875 -0.000000 -0.375371
vn 0.926875 0.000000 -0.375371
vn 0.926875 -0.000000 -0.375371
vn 0.926875 0.000001 -0.375371
vn 0.926875 0.000000 -0.375371
vn 0.926875 0.000001 -0.375371
vn 0.926875 0.000001 -0.375371
vn -0.926875 -0.000001 -0.375371
vn -0.926875 0.000000 -0.375371
vn -0.926875 0.000000 -0.375371
vn -0.926875 -0.000001 -0.375371
vn -0.926875 -0.000001 -0.375371
vn -0.926875 0.000000 -0.375371
vn -0.926875 0.000000 -0.375371
vn -0.926875 0.000001 -0.375371
vn -0.926875 0.000000 -0.375371
vn -0.926875 -0.000000 -0.375371
vn -0.926875 -0.000001 -0.375371
vn -0.926875 0.000000 -0.375371
vn -0.926875 0.000001 -0.375371
vn -0.926875 -0.000000 -0.375371
vn -0.926875 0.000000 -0.375371
vn -0.926875 0.000001 -0.375371
vn -0.926875 0.000001 -0.375371
vn -0.926875 0.000000 -0.375371
vn -0.926875 -0.000001 -0.375371
vn -0.926875 0.000000 -0.375371
vn -0.926875 0.000000 -0.375371
vn -0.926875 -0.000001 -0.375371
vn -0.926875 -0.000001 -0.375371
vn -0.926875 0.000000 -0.375371
vn -0.926875 0.000000 -0.375371
vn -0.926875 0.000001 -0.375371
vn -0.926875 0.000000 -0.375371
vn -0.926875 -0.000000 -0.375371
vn -0.926875 -0.000001 -0.375371
vn -0.926875 0.000000 -0.375371
vn -0.926875 0.000001 -0.375371
vn -0.926875 -0.000000 -0.375371
vn -0.926875 0.000000 -0.375371
vn -0.926875 0.000001 -0.375371
vn -0.926875 0.000001 -0.375371
vn -0.926875 0.000000 -0.375371
f 1/1/1 2/2/2 7/3/3
f 1/4/4 7/5/5 6/6/6
f 1/7/7 3/8/8 2/9/9
f 1/10/10 6/11/11 5/12/12
f 1/13/13 5/14/14 4/15/15
f 1/16/16 4/17/17 3/18/18
f 8/19/19 9/20/20 14/21/21
f 8/22/22 14/23/23 13/24/24
f 8/25/25 10/26/26 9/27/27
f 8/28/28 13/29/29 12/30/30
f 8/31/31 12/32/32 11/33/33
f 8/34/34 11/35/35 10/36/36
f 15/37/37 16/38/38 21/39/39
f 15/40/40 21/41/41 20/42/42
f 15/43/43 17/44/44 16/45/45
f 15/46/46 20/47/47 19/48/48
f 15/49/49 19/50/50 18/51/51
f 15/52/52 18/53/53 17/54/54
f 22/55/55 23/56/56 28/57/57
f 22/58/58 28/59/59 27/60/60
f 22/61/61 24/62/62 23/63/63
f 22/64/64 27/65/65 26/66/66
f 22/67/67 26/68/68 25/69/69
f 22/70/70 25/71/71 24/72/72
f 35/73/73 30/74/74 29/75/75
f 34/76/76 35/77/77 29/78/78
f 30/79/79 31/80/80 29/81/81
f 33/82/82 34/83/83 29/84/84
f 32/85/85 33/86/86 29/87/87
f 31/88/88 32/89/89 29/90/90
f 42/91/91 37/92/92 36/93/93
f 41/94/94 42/95/95 36/96/96
f 37/97/97 38/98/98 36/99/99
f 40/100/100 41/101/101 36/102/102
f 39/103/103 40/104/104 36/105/105
f 38/106/106 39/107/107 36/108/108
