v -2.067460 3.065361 -1.053036
v -1.333711 2.239398 -1.989726
v -0.573959 8.792084 -0.990062
v -1.337196 2.335460 2.484103
v -0.571828 1.565256 -1.979421
v 1.333537 5.078031 -1.989123
v 2.074329 4.284298 0.266186
v 0.571828 1.565256 -1.979421
v -2.066604 4.273719 -1.051970
v 0.573959 8.792084 -0.990062
v 1.328735 2.239398 -1.989726
v -1.339508 7.921511 -0.999953
v 1.331847 2.335460 2.484103
v -0.572744 4.288148 3.523746
v -0.571503 2.335201 3.511998
v -1.334888 4.278330 2.493338
v -0.572975 1.774598 2.477636
v -2.074267 3.054595 0.253563
v 2.066604 4.273719 -1.051970
v 0.572975 1.774598 2.477636
v -0.571179 1.964742 3.279430
v -0.573079 5.075653 3.299574
v -1.327992 5.078692 0.286743
v -2.074330 4.284298 0.266186
v -1.333537 5.078031 -1.989124
v 2.074267 3.054595 0.253564
v 1.334887 4.278330 2.493338
v 0.571502 2.335201 3.511998
v 0.572743 4.288148 3.523746
v 2.067459 3.065361 -1.053036
v 1.339508 7.921511 -0.999952
v 1.327991 5.078692 0.286743
v 0.571178 1.964742 3.279430
v 0.573078 5.075653 3.299574
v -0.573299 5.640674 2.836517
v 0.573299 5.640674 2.836517
v 1.336607 5.061338 2.073669
v -1.336607 5.061338 2.073668
v -1.335465 3.792613 2.491029
v -0.572434 3.799911 3.520809
v 1.334127 3.792613 2.491029
v 0.572433 3.799911 3.520809
v -0.571264 2.230913 -3.779997
v 0.571264 2.230913 -3.779997
v -2.092696 3.064199 -1.989575
v 2.087080 3.064199 -1.989575
v -0.572612 5.079655 -3.788558
v 0.572612 5.079655 -3.788558
v 0.297314 4.269879 -3.782118
v 0.296613 3.061089 -3.778928
v 1.346525 3.054964 -3.775001
v 1.351218 4.269239 -3.774688
v -1.352774 4.269239 -3.774688
v -1.352945 3.054964 -3.775001
v -0.298202 4.269879 -3.782118
v -0.297501 3.061089 -3.778928
v -2.092566 4.268841 -1.989274
v 2.090694 4.268841 -1.989274
v 0.573622 7.908238 -1.958706
v -0.573622 7.908238 -1.958706
v 0.573791 8.486545 -1.650573
v -0.573791 8.486545 -1.650573
v 0.573875 8.704232 -1.377634
v -0.573875 8.704232 -1.377634
v 0.523927 1.310797 -0.650688
v 0.530952 0.638783 -0.653992
v 0.527609 0.640600 1.335968
v 0.520832 1.309547 1.337815
v -1.561421 1.315289 1.408494
v -0.521606 1.309860 0.842751
v -0.525025 0.975002 0.982772
v -1.564243 0.081463 0.248128
v 1.562946 0.079359 1.118428
v 1.560354 0.638517 1.654341
v 1.560354 1.314366 2.010678
v 1.562944 1.816149 1.572633
v 1.564699 1.815597 -0.970827
v 0.524220 0.975073 1.620307
v 1.564394 0.082164 -0.440479
v 0.527439 0.974790 -0.940479
v 1.564470 0.637132 -0.977663
v 1.564623 1.309809 -1.380700
v 1.563221 1.813918 1.174625
v 1.564049 1.815473 -0.501935
v 0.528445 0.640145 0.842603
v 0.523153 1.310484 -0.122627
v 0.521606 1.309860 0.842751
v 0.530116 0.639237 -0.119380
v 1.564243 0.081463 0.248128
v 1.563378 0.080061 0.462611
v 1.561383 0.640233 0.732269
v 1.563441 0.643665 0.020758
v 0.526635 0.974861 -0.260376
v 0.525025 0.975002 0.982772
v 1.561421 1.315289 1.408495
v 1.563556 1.308886 -0.697639
v -1.563441 0.643665 0.020758
v -1.561383 0.640233 0.732269
v -0.523926 1.310797 -0.650688
v -0.530952 0.638783 -0.653992
v -0.527609 0.640600 1.335967
v -0.520832 1.309547 1.337815
v -1.563556 1.308886 -0.697639
v -0.530116 0.639237 -0.119380
v -0.526635 0.974861 -0.260376
v -1.563378 0.080061 0.462611
v -1.562946 0.079359 1.118427
v -1.560354 0.638517 1.654341
v -1.560354 1.314366 2.010677
v -1.562945 1.816149 1.572632
v -1.564699 1.815597 -0.970827
v -0.524221 0.975073 1.620307
v -1.564394 0.082164 -0.440479
v -0.527439 0.974790 -0.940479
v -1.564470 0.637132 -0.977663
v -1.564623 1.309809 -1.380700
v -1.563221 1.813918 1.174625
v -1.564049 1.815473 -0.501935
v -0.528445 0.640145 0.842603
v -0.523153 1.310484 -0.122627
v -3.214576 1.818775 3.724776
v 4.016992 1.962344 -0.773132
v 3.887203 2.296292 -0.771998
v -3.181981 2.299300 3.588115
v 1.335156 1.961052 3.218263
v 2.090065 1.901948 -2.475726
v 2.348568 1.741679 -3.138535
v 1.336516 1.949718 -0.773132
v 1.331427 2.298407 3.112525
v 2.085215 2.171783 -2.474335
v 3.880782 2.296799 1.460739
v 4.017523 1.964074 1.459583
v 1.335443 1.950265 1.460162
v 3.889967 2.298400 3.112524
v 4.017619 1.964257 3.218263
v 3.183171 2.171783 -2.474335
v 2.881211 1.741679 -3.138535
v 3.185297 1.901948 -2.475726
v 1.331847 2.296814 1.460778
v 1.334435 2.296297 -0.771997
v 0.574783 1.766864 -0.763332
v 0.575936 1.773458 2.093605
v 0.578324 1.333437 -0.773132
v 0.577088 1.333984 1.460162
v 3.214576 1.818775 3.724776
v 3.181981 2.299300 3.588115
v 2.090964 1.818775 3.724776
v 2.087994 2.299300 3.588116
v -2.090965 1.818775 3.724776
v -4.016993 1.962344 -0.773133
v -3.887203 2.296292 -0.771999
v -2.087994 2.299300 3.588116
v -1.335157 1.961052 3.218263
v -2.090142 1.901948 -2.475726
v -2.348658 1.741679 -3.138535
v -1.336516 1.949718 -0.773132
v -1.331427 2.298407 3.112524
v -2.085292 2.171783 -2.474335
v -3.880783 2.296799 1.460739
v -4.017524 1.964074 1.459582
v -1.335443 1.950265 1.460162
v -3.889968 2.298400 3.112523
v -4.017620 1.964257 3.218263
v -3.183233 2.171783 -2.474336
v -2.881303 1.741679 -3.138536
v -3.185358 1.901948 -2.475726
v -1.337196 2.296814 1.460778
v -1.339795 2.296297 -0.771998
v -0.574784 1.766864 -0.763332
v -0.575936 1.773458 2.093605
v -0.578324 1.333437 -0.773132
v -0.577088 1.333984 1.460162
v 2.084951 2.978993 -0.772661
v 2.086284 2.979972 1.460706
v 3.181179 2.979972 1.460705
v 3.184124 2.978993 -0.772662
v -2.084951 2.978993 -0.772662
v -2.086285 2.979972 1.460705
v -3.181179 2.979972 1.460705
v -3.184124 2.978993 -0.772662
v -2.093865 2.743413 3.112489
v 2.093864 2.743413 3.112489
v 3.178847 2.742764 3.112489
v -3.178847 2.742764 3.112489
vt 0.881910 0.270968
vt 0.881910 0.270968
vt 0.993656 0.272096
vt 0.881910 0.270968
vt 0.993656 0.272096
vt 0.993656 0.272096
vt 0.000000 0.158203
vt 0.000000 0.501953
vt 0.123047 0.501953
vt 0.000000 0.158203
vt 0.123047 0.501953
vt 0.123047 0.158203
vt 0.880423 0.005546
vt 0.881076 0.065003
vt 0.397259 0.064254
vt 0.880423 0.005546
vt 0.397259 0.064254
vt 0.397058 0.004471
vt 0.881701 0.219477
vt 0.881910 0.270968
vt 0.881910 0.270968
vt 0.881701 0.219477
vt 0.881910 0.270968
vt 0.881701 0.219477
vt 0.119141 0.638672
vt 0.119141 0.685547
vt 0.009766 0.685547
vt 0.119141 0.638672
vt 0.009766 0.685547
vt 0.009766 0.638672
vt 0.463093 0.053930
vt 0.815126 0.054416
vt 0.814651 0.015813
vt 0.463093 0.053930
vt 0.814651 0.015813
vt 0.462947 0.015115
vt 0.640376 0.271412
vt 0.497518 0.270398
vt 0.497265 0.142227
vt 0.640376 0.271412
vt 0.497265 0.142227
vt 0.639113 0.141050
vt 0.990234 0.275391
vt 0.969277 0.355560
vt 0.876953 0.275391
vt 0.397259 0.064254
vt 0.881076 0.065003
vt 0.639113 0.141050
vt 0.397259 0.064254
vt 0.639113 0.141050
vt 0.497265 0.142227
vt 0.396763 0.358817
vt 0.497518 0.270398
vt 0.642536 0.355628
vt 0.881701 0.219477
vt 0.881076 0.065003
vt 0.992551 0.065063
vt 0.881701 0.219477
vt 0.992551 0.065063
vt 0.993380 0.220337
vt 0.009766 0.818359
vt 0.009766 0.685547
vt 0.119141 0.685547
vt 0.009766 0.818359
vt 0.119141 0.685547
vt 0.119141 0.818359
vt 0.969277 0.355560
vt 0.919009 0.415419
vt 0.836329 0.353939
vt 0.000000 0.000000
vt 0.000000 0.080078
vt 0.123047 0.080078
vt 0.000000 0.000000
vt 0.123047 0.080078
vt 0.123047 0.000000
vt 0.967361 0.025771
vt 0.992551 0.065063
vt 0.881076 0.065003
vt 0.841797 0.009766
vt 0.841797 0.029297
vt 0.751953 0.029297
vt 0.841797 0.009766
vt 0.751953 0.029297
vt 0.751953 0.009766
vt 0.881076 0.065003
vt 0.880423 0.005546
vt 0.967361 0.025771
vt 0.642536 0.355628
vt 0.497518 0.270398
vt 0.640376 0.271412
vt 0.397058 0.004471
vt 0.397259 0.064254
vt 0.881076 0.065003
vt 0.397058 0.004471
vt 0.881076 0.065003
vt 0.880423 0.005546
vt 0.881701 0.219477
vt 0.993380 0.220337
vt 0.993380 0.220337
vt 0.881701 0.219477
vt 0.993380 0.220337
vt 0.881701 0.219477
vt 0.642536 0.355628
vt 0.497518 0.270398
vt 0.396763 0.358817
vt 0.639113 0.141050
vt 0.497265 0.142227
vt 0.497518 0.270398
vt 0.639113 0.141050
vt 0.497518 0.270398
vt 0.640376 0.271412
vt 0.876953 0.275391
vt 0.969277 0.355560
vt 0.990234 0.275391
vt 0.497265 0.142227
vt 0.639113 0.141050
vt 0.881076 0.065003
vt 0.497265 0.142227
vt 0.881076 0.065003
vt 0.397259 0.064254
vt 0.993380 0.220337
vt 0.992551 0.065063
vt 0.881076 0.065003
vt 0.993380 0.220337
vt 0.881076 0.065003
vt 0.881701 0.219477
vt 0.503906 0.666016
vt 0.501953 0.755859
vt 0.919009 0.415419
vt 0.503906 0.666016
vt 0.919009 0.415419
vt 0.836329 0.353939
vt 0.881076 0.065003
vt 0.992551 0.065063
vt 0.967361 0.025771
vt 0.967361 0.025771
vt 0.880423 0.005546
vt 0.881076 0.065003
vt 0.642536 0.355628
vt 0.881910 0.270968
vt 0.640376 0.271412
vt 0.836329 0.353939
vt 0.876953 0.275391
vt 0.969277 0.355560
vt 0.640376 0.271412
vt 0.881910 0.270968
vt 0.642536 0.355628
vt 0.640376 0.271412
vt 0.497518 0.270398
vt 0.642536 0.355628
vt 0.881076 0.065003
vt 0.639113 0.141050
vt 0.640376 0.271412
vt 0.881076 0.065003
vt 0.640376 0.271412
vt 0.881910 0.270968
vt 0.881076 0.065003
vt 0.881910 0.270968
vt 0.881701 0.219477
vt 0.640376 0.271412
vt 0.639113 0.141050
vt 0.881076 0.065003
vt 0.640376 0.271412
vt 0.881076 0.065003
vt 0.881701 0.219477
vt 0.640376 0.271412
vt 0.881701 0.219477
vt 0.881910 0.270968
vt 0.969277 0.355560
vt 0.876953 0.275391
vt 0.836329 0.353939
vt 0.836329 0.353939
vt 0.919009 0.415419
vt 0.501953 0.755859
vt 0.836329 0.353939
vt 0.501953 0.755859
vt 0.503906 0.666016
vt 0.836329 0.353939
vt 0.642536 0.355628
vt 0.881910 0.270968
vt 0.395720 0.355341
vt 0.503906 0.666016
vt 0.642536 0.355628
vt 0.642536 0.355628
vt 0.503906 0.666016
vt 0.395720 0.355341
vt 0.836329 0.353939
vt 0.642536 0.355628
vt 0.503906 0.666016
vt 0.836329 0.353939
vt 0.919009 0.415419
vt 0.969277 0.355560
vt 0.503906 0.666016
vt 0.642536 0.355628
vt 0.836329 0.353939
vt 0.881910 0.270968
vt 0.642536 0.355628
vt 0.836329 0.353939
vt 0.123047 0.158203
vt 0.123047 0.080078
vt 0.000000 0.080078
vt 0.123047 0.158203
vt 0.000000 0.080078
vt 0.000000 0.158203
vt 0.916212 0.928451
vt 0.916143 0.785332
vt 0.853578 0.785332
vt 0.916212 0.928451
vt 0.853578 0.785332
vt 0.853508 0.928451
vt 0.383692 0.373358
vt 0.485855 0.665705
vt 0.388672 0.662109
vt 0.388672 0.662109
vt 0.485855 0.665705
vt 0.383693 0.373358
vt 0.134766 0.666016
vt 0.134766 0.443359
vt 0.232422 0.443359
vt 0.134766 0.666016
vt 0.232422 0.443359
vt 0.232422 0.666016
vt 0.383693 0.373358
vt 0.201172 0.373047
vt 0.388672 0.662109
vt 0.388672 0.662109
vt 0.201172 0.373047
vt 0.383692 0.373358
vt 0.741032 0.795860
vt 0.845650 0.796472
vt 0.818514 0.713482
vt 0.199245 0.165361
vt 0.383630 0.081510
vt 0.198729 0.080638
vt 0.199277 0.290204
vt 0.383692 0.373358
vt 0.197845 0.373526
vt 0.198242 0.162109
vt 0.198242 0.284180
vt 0.374023 0.284180
vt 0.198242 0.162109
vt 0.374023 0.284180
vt 0.373047 0.162109
vt 0.373047 0.162109
vt 0.374023 0.284180
vt 0.198242 0.284180
vt 0.373047 0.162109
vt 0.198242 0.284180
vt 0.198242 0.162109
vt 0.198242 0.162109
vt 0.372070 0.083984
vt 0.373047 0.162109
vt 0.198242 0.284180
vt 0.375000 0.368164
vt 0.374023 0.284180
vt 0.399469 0.358930
vt 0.399453 0.272810
vt 0.495881 0.273330
vt 0.495881 0.273330
vt 0.399453 0.272810
vt 0.399469 0.358930
vt 0.399453 0.272810
vt 0.399422 0.144603
vt 0.495771 0.144727
vt 0.399453 0.272810
vt 0.495771 0.144727
vt 0.495881 0.273330
vt 0.495881 0.273330
vt 0.495771 0.144727
vt 0.399422 0.144603
vt 0.495881 0.273330
vt 0.399422 0.144603
vt 0.399453 0.272810
vt 0.399422 0.144603
vt 0.399407 0.056822
vt 0.495771 0.144727
vt 0.495771 0.144727
vt 0.399407 0.056822
vt 0.399422 0.144603
vt 0.943482 0.713482
vt 0.826326 0.713482
vt 0.853692 0.786047
vt 0.943482 0.713482
vt 0.853692 0.786047
vt 0.916028 0.786047
vt 0.826193 0.998261
vt 0.943616 0.998261
vt 0.916097 0.927736
vt 0.826193 0.998261
vt 0.916097 0.927736
vt 0.853623 0.927736
vt 0.198729 0.080638
vt 0.383630 0.081510
vt 0.199245 0.165361
vt 0.374023 0.284180
vt 0.375000 0.368164
vt 0.198242 0.284180
vt 0.818380 0.998261
vt 0.845580 0.917311
vt 0.741049 0.917247
vt 0.373047 0.162109
vt 0.372070 0.083984
vt 0.198242 0.162109
vt 0.197845 0.373526
vt 0.383693 0.373358
vt 0.199277 0.290204
vt 0.741032 0.795860
vt 0.845650 0.796472
vt 0.818514 0.713482
vt 0.818380 0.998261
vt 0.845580 0.917311
vt 0.741049 0.917247
vt 0.845580 0.917311
vt 0.845650 0.796472
vt 0.741032 0.795860
vt 0.845580 0.917311
vt 0.741032 0.795860
vt 0.741049 0.917247
vt 0.447266 0.744141
vt 0.486877 0.755211
vt 0.485855 0.665705
vt 0.134766 0.748047
vt 0.134766 0.806641
vt 0.232422 0.806641
vt 0.134766 0.748047
vt 0.232422 0.806641
vt 0.232422 0.748047
vt 0.485855 0.665705
vt 0.486877 0.755211
vt 0.447266 0.744141
vt 0.741049 0.917247
vt 0.741032 0.795860
vt 0.845650 0.796472
vt 0.741049 0.917247
vt 0.845650 0.796472
vt 0.845580 0.917311
vt 0.485855 0.665705
vt 0.419922 0.724609
vt 0.447266 0.744141
vt 0.134766 0.748047
vt 0.134766 0.724609
vt 0.232422 0.724609
vt 0.134766 0.748047
vt 0.232422 0.724609
vt 0.232422 0.748047
vt 0.198729 0.080638
vt 0.383630 0.081510
vt 0.384694 0.012200
vt 0.447266 0.744141
vt 0.419922 0.724609
vt 0.485855 0.665705
vt 0.419922 0.724609
vt 0.388672 0.662109
vt 0.485855 0.665705
vt 0.134766 0.724609
vt 0.134766 0.666016
vt 0.232422 0.666016
vt 0.134766 0.724609
vt 0.232422 0.666016
vt 0.232422 0.724609
vt 0.384694 0.012200
vt 0.383630 0.081510
vt 0.198729 0.080638
vt 0.197266 0.103516
vt 0.197266 0.080078
vt 0.384766 0.048828
vt 0.197266 0.103516
vt 0.384766 0.048828
vt 0.384766 0.072266
vt 0.485855 0.665705
vt 0.388672 0.662109
vt 0.419922 0.724609
vt 0.000000 0.000000
vt 0.305253 0.650745
vt 0.245528 0.650745
vt 0.000000 0.000000
vt 0.245528 0.650745
vt 0.245528 0.720349
vt 0.245528 0.650745
vt 0.305253 0.650745
vt 0.305253 0.720349
vt 0.245528 0.650745
vt 0.305253 0.720349
vt 0.000000 0.000000
vt 0.558028 0.219260
vt 0.617753 0.219260
vt 0.617753 0.261209
vt 0.558028 0.219260
vt 0.617753 0.261209
vt 0.558028 0.261209
vt 0.197266 0.431641
vt 0.197266 0.072266
vt 0.134766 0.072266
vt 0.197266 0.431641
vt 0.134766 0.072266
vt 0.134766 0.431641
vt 0.134766 0.431641
vt 0.197266 0.431641
vt 0.197266 0.072266
vt 0.134766 0.431641
vt 0.197266 0.072266
vt 0.134766 0.072266
vt 0.134766 0.072266
vt 0.197266 0.072266
vt 0.197266 0.431641
vt 0.134766 0.072266
vt 0.197266 0.431641
vt 0.134766 0.431641
vt 0.134766 0.072266
vt 0.197266 0.072266
vt 0.197266 0.431641
vt 0.134766 0.072266
vt 0.197266 0.431641
vt 0.134766 0.431641
vt 0.134766 0.431641
vt 0.197266 0.431641
vt 0.197266 0.072266
vt 0.134766 0.431641
vt 0.197266 0.072266
vt 0.134766 0.072266
vt 0.134766 0.431641
vt 0.197266 0.431641
vt 0.197266 0.072266
vt 0.134766 0.431641
vt 0.197266 0.072266
vt 0.134766 0.072266
vt 0.134766 0.431641
vt 0.197266 0.431641
vt 0.197266 0.072266
vt 0.134766 0.431641
vt 0.197266 0.072266
vt 0.134766 0.072266
vt 0.134766 0.431641
vt 0.197266 0.431641
vt 0.197266 0.072266
vt 0.134766 0.431641
vt 0.197266 0.072266
vt 0.134766 0.072266
vt 0.134766 0.431641
vt 0.197266 0.431641
vt 0.197266 0.072266
vt 0.134766 0.431641
vt 0.197266 0.072266
vt 0.134766 0.072266
vt 0.134766 0.431641
vt 0.197266 0.431641
vt 0.197266 0.072266
vt 0.134766 0.431641
vt 0.197266 0.072266
vt 0.134766 0.072266
vt 0.134766 0.431641
vt 0.197266 0.431641
vt 0.197266 0.072266
vt 0.134766 0.431641
vt 0.197266 0.072266
vt 0.134766 0.072266
vt 0.134766 0.431641
vt 0.197266 0.431641
vt 0.197266 0.072266
vt 0.134766 0.431641
vt 0.197266 0.072266
vt 0.134766 0.072266
vt 0.134766 0.431641
vt 0.197266 0.431641
vt 0.197266 0.072266
vt 0.134766 0.431641
vt 0.197266 0.072266
vt 0.134766 0.072266
vt 0.197266 0.431641
vt 0.197266 0.072266
vt 0.134766 0.072266
vt 0.197266 0.431641
vt 0.134766 0.072266
vt 0.134766 0.431641
vt 0.134766 0.431641
vt 0.134766 0.072266
vt 0.197266 0.072266
vt 0.134766 0.431641
vt 0.197266 0.072266
vt 0.197266 0.431641
vt 0.134766 0.431641
vt 0.134766 0.072266
vt 0.197266 0.072266
vt 0.134766 0.431641
vt 0.197266 0.072266
vt 0.197266 0.431641
vt 0.134766 0.072266
vt 0.197266 0.072266
vt 0.197266 0.431641
vt 0.134766 0.072266
vt 0.197266 0.431641
vt 0.134766 0.431641
vt 0.000000 0.000000
vt 0.305253 0.556995
vt 0.245528 0.556995
vt 0.000000 0.000000
vt 0.245528 0.556995
vt 0.245528 0.626599
vt 0.244141 0.556641
vt 0.306641 0.556641
vt 0.306641 0.619141
vt 0.244141 0.556641
vt 0.306641 0.619141
vt 0.306641 0.744141
vt 0.244141 0.556641
vt 0.306641 0.744141
vt 0.306641 0.806641
vt 0.244141 0.556641
vt 0.306641 0.806641
vt 0.000000 0.000000
vt 0.244141 0.556641
vt 0.000000 0.000000
vt 0.244141 0.806641
vt 0.244141 0.556641
vt 0.244141 0.806641
vt 0.306641 0.806641
vt 0.245528 0.556995
vt 0.305253 0.556995
vt 0.305253 0.626599
vt 0.245528 0.556995
vt 0.305253 0.626599
vt 0.000000 0.000000
vt 0.558028 0.261209
vt 0.617753 0.261209
vt 0.617753 0.219260
vt 0.558028 0.261209
vt 0.617753 0.219260
vt 0.558028 0.219260
vt 0.134766 0.072266
vt 0.197266 0.072266
vt 0.197266 0.431641
vt 0.134766 0.072266
vt 0.197266 0.431641
vt 0.134766 0.431641
vt 0.134766 0.072266
vt 0.197266 0.072266
vt 0.197266 0.431641
vt 0.134766 0.072266
vt 0.197266 0.431641
vt 0.134766 0.431641
vt 0.134766 0.431641
vt 0.197266 0.431641
vt 0.197266 0.072266
vt 0.134766 0.431641
vt 0.197266 0.072266
vt 0.134766 0.072266
vt 0.134766 0.431641
vt 0.197266 0.431641
vt 0.197266 0.072266
vt 0.134766 0.431641
vt 0.197266 0.072266
vt 0.134766 0.072266
vt 0.134766 0.072266
vt 0.197266 0.072266
vt 0.197266 0.431641
vt 0.134766 0.072266
vt 0.197266 0.431641
vt 0.134766 0.431641
vt 0.134766 0.072266
vt 0.197266 0.072266
vt 0.197266 0.431641
vt 0.134766 0.072266
vt 0.197266 0.431641
vt 0.134766 0.431641
vt 0.134766 0.072266
vt 0.197266 0.072266
vt 0.197266 0.431641
vt 0.134766 0.072266
vt 0.197266 0.431641
vt 0.134766 0.431641
vt 0.134766 0.072266
vt 0.197266 0.072266
vt 0.197266 0.431641
vt 0.134766 0.072266
vt 0.197266 0.431641
vt 0.134766 0.431641
vt 0.134766 0.072266
vt 0.197266 0.072266
vt 0.197266 0.431641
vt 0.134766 0.072266
vt 0.197266 0.431641
vt 0.134766 0.431641
vt 0.134766 0.072266
vt 0.197266 0.072266
vt 0.197266 0.431641
vt 0.134766 0.072266
vt 0.197266 0.431641
vt 0.134766 0.431641
vt 0.134766 0.072266
vt 0.197266 0.072266
vt 0.197266 0.431641
vt 0.134766 0.072266
vt 0.197266 0.431641
vt 0.134766 0.431641
vt 0.648830 0.809851
vt 0.611328 0.794922
vt 0.727232 0.679680
vt 0.648830 0.809851
vt 0.727232 0.679680
vt 0.767854 0.720452
vt 0.826172 0.146484
vt 0.826172 0.208984
vt 0.552734 0.208984
vt 0.826172 0.146484
vt 0.552734 0.208984
vt 0.552734 0.146484
vt 0.587891 0.779297
vt 0.706667 0.662863
vt 0.727232 0.683586
vt 0.587891 0.779297
vt 0.727232 0.683586
vt 0.611328 0.798828
vt 0.562909 0.252831
vt 0.631517 0.252874
vt 0.631517 0.204763
vt 0.562909 0.252831
vt 0.631517 0.204763
vt 0.562909 0.204720
vt 0.969848 0.425601
vt 0.953893 0.409408
vt 0.848545 0.518962
vt 0.969848 0.425601
vt 0.848545 0.518962
vt 0.869079 0.539720
vt 0.986481 0.358303
vt 0.953893 0.409408
vt 0.969848 0.425601
vt 0.611328 0.794922
vt 0.727232 0.679680
vt 0.706667 0.658957
vt 0.611328 0.794922
vt 0.706667 0.658957
vt 0.587891 0.775391
vt 0.561528 0.253877
vt 0.631517 0.204763
vt 0.631517 0.252874
vt 0.849296 0.519715
vt 0.869079 0.539719
vt 0.727234 0.679677
vt 0.849296 0.519715
vt 0.727234 0.679677
vt 0.707525 0.659744
vt 0.561528 0.253877
vt 0.631517 0.204763
vt 0.631517 0.252874
vt 0.587891 0.775391
vt 0.707525 0.659744
vt 0.727234 0.679677
vt 0.587891 0.775391
vt 0.727234 0.679677
vt 0.611328 0.794922
vt 0.869079 0.539719
vt 0.909712 0.580427
vt 0.969848 0.425601
vt 0.641403 0.226856
vt 0.641403 0.259332
vt 0.590316 0.259303
vt 0.641403 0.226856
vt 0.590316 0.259303
vt 0.590316 0.226827
vt 0.590316 0.259303
vt 0.641403 0.259332
vt 0.641403 0.226856
vt 0.590316 0.259303
vt 0.641403 0.226856
vt 0.590316 0.226827
vt 0.552734 0.146484
vt 0.552734 0.208984
vt 0.826172 0.208984
vt 0.552734 0.146484
vt 0.826172 0.208984
vt 0.826172 0.146484
vt 0.648830 0.809851
vt 0.611328 0.794922
vt 0.583984 0.814453
vt 0.631517 0.252874
vt 0.562909 0.252831
vt 0.562909 0.204720
vt 0.631517 0.252874
vt 0.562909 0.204720
vt 0.631517 0.204763
vt 0.767854 0.720452
vt 0.909711 0.580427
vt 0.869079 0.539720
vt 0.767854 0.720452
vt 0.869079 0.539720
vt 0.727232 0.679680
vt 0.969848 0.425601
vt 0.953893 0.409408
vt 0.986481 0.358303
vt 0.969848 0.425601
vt 0.869079 0.539719
vt 0.849296 0.519715
vt 0.969848 0.425601
vt 0.849296 0.519715
vt 0.953893 0.409408
vt 0.727232 0.679680
vt 0.706667 0.658957
vt 0.587891 0.775391
vt 0.727232 0.679680
vt 0.587891 0.775391
vt 0.611328 0.794922
vt 0.611328 0.794922
vt 0.587891 0.775391
vt 0.544922 0.791016
vt 0.611328 0.794922
vt 0.544922 0.791016
vt 0.583984 0.814453
vt 0.631517 0.252874
vt 0.562909 0.252831
vt 0.562909 0.204720
vt 0.631517 0.252874
vt 0.562909 0.204720
vt 0.631517 0.204763
vt 0.767854 0.720452
vt 0.727234 0.679677
vt 0.611328 0.794922
vt 0.767854 0.720452
vt 0.611328 0.794922
vt 0.648791 0.809812
vt 0.561528 0.253877
vt 0.631517 0.204763
vt 0.631517 0.252874
vt 0.767854 0.720452
vt 0.727234 0.679677
vt 0.869079 0.539719
vt 0.767854 0.720452
vt 0.869079 0.539719
vt 0.909712 0.580427
vt 0.587891 0.775391
vt 0.611328 0.794922
vt 0.583984 0.814453
vt 0.587891 0.775391
vt 0.583984 0.814453
vt 0.544922 0.791016
vt 0.552734 0.146484
vt 0.552734 0.208984
vt 0.826172 0.208984
vt 0.552734 0.146484
vt 0.826172 0.208984
vt 0.826172 0.146484
vt 0.544922 0.791016
vt 0.583984 0.814453
vt 0.611328 0.794922
vt 0.544922 0.791016
vt 0.611328 0.794922
vt 0.587891 0.775391
vt 0.909712 0.580427
vt 0.869079 0.539719
vt 0.727234 0.679677
vt 0.909712 0.580427
vt 0.727234 0.679677
vt 0.767854 0.720452
vt 0.969848 0.425601
vt 0.909712 0.580427
vt 0.869079 0.539719
vt 0.611328 0.798828
vt 0.727232 0.683586
vt 0.706667 0.662863
vt 0.611328 0.798828
vt 0.706667 0.662863
vt 0.587891 0.779297
vt 0.562909 0.204720
vt 0.631517 0.204763
vt 0.631517 0.252874
vt 0.562909 0.204720
vt 0.631517 0.252874
vt 0.562909 0.252831
vt 0.869079 0.539720
vt 0.848545 0.518962
vt 0.953893 0.409408
vt 0.869079 0.539720
vt 0.953893 0.409408
vt 0.969848 0.425601
vt 0.969848 0.425601
vt 0.953893 0.409408
vt 0.986481 0.358303
vt 0.587891 0.775391
vt 0.706667 0.658957
vt 0.727232 0.679680
vt 0.587891 0.775391
vt 0.727232 0.679680
vt 0.611328 0.794922
vt 0.561528 0.253877
vt 0.631517 0.204763
vt 0.631517 0.252874
vt 0.707525 0.659744
vt 0.727234 0.679677
vt 0.869079 0.539719
vt 0.707525 0.659744
vt 0.869079 0.539719
vt 0.849296 0.519715
vt 0.869079 0.539720
vt 0.909711 0.580427
vt 0.969848 0.425601
vt 0.611328 0.794922
vt 0.727234 0.679677
vt 0.707525 0.659744
vt 0.611328 0.794922
vt 0.707525 0.659744
vt 0.587891 0.775391
vt 0.826172 0.146484
vt 0.826172 0.208984
vt 0.552734 0.208984
vt 0.826172 0.146484
vt 0.552734 0.208984
vt 0.552734 0.146484
vt 0.583984 0.814453
vt 0.544922 0.791016
vt 0.587891 0.775391
vt 0.583984 0.814453
vt 0.587891 0.775391
vt 0.611328 0.794922
vt 0.611328 0.794922
vt 0.587891 0.775391
vt 0.706667 0.658957
vt 0.611328 0.794922
vt 0.706667 0.658957
vt 0.727232 0.679680
vt 0.969848 0.425601
vt 0.909712 0.580427
vt 0.869079 0.539720
vt 0.953893 0.409408
vt 0.849296 0.519715
vt 0.869079 0.539719
vt 0.953893 0.409408
vt 0.869079 0.539719
vt 0.969848 0.425601
vt 0.986481 0.358303
vt 0.953893 0.409408
vt 0.969848 0.425601
vt 0.826172 0.146484
vt 0.826172 0.208984
vt 0.552734 0.208984
vt 0.826172 0.146484
vt 0.552734 0.208984
vt 0.552734 0.146484
vt 0.552734 0.146484
vt 0.552734 0.208984
vt 0.826172 0.208984
vt 0.552734 0.146484
vt 0.826172 0.208984
vt 0.826172 0.146484
vt 0.552734 0.208984
vt 0.552734 0.146484
vt 0.826172 0.146484
vt 0.552734 0.208984
vt 0.826172 0.146484
vt 0.826172 0.208984
vt 0.583984 0.814453
vt 0.611328 0.794922
vt 0.648791 0.809812
vt 0.611328 0.794922
vt 0.583984 0.814453
vt 0.648791 0.809812
vt 0.552734 0.146484
vt 0.552734 0.208984
vt 0.826172 0.208984
vt 0.552734 0.146484
vt 0.826172 0.208984
vt 0.826172 0.146484
vt 0.583984 0.814453
vt 0.611328 0.794922
vt 0.648830 0.809851
vt 0.648791 0.809812
vt 0.611328 0.794922
vt 0.727234 0.679677
vt 0.648791 0.809812
vt 0.727234 0.679677
vt 0.767854 0.720452
vt 0.727232 0.679680
vt 0.869079 0.539720
vt 0.909712 0.580427
vt 0.727232 0.679680
vt 0.909712 0.580427
vt 0.767854 0.720452
vt 0.767854 0.720452
vt 0.727232 0.679680
vt 0.611328 0.794922
vt 0.767854 0.720452
vt 0.611328 0.794922
vt 0.648830 0.809851
vn -0.000000 -0.999955 0.009528
vn -0.000000 -0.999955 0.009528
vn -0.000000 -0.999955 0.009528
vn -0.000000 -0.999955 0.009528
vn -0.000000 -0.999955 0.009528
vn -0.000000 -0.999955 0.009528
vn -0.000000 0.706258 0.707955
vn -0.000000 0.771919 0.635720
vn -0.000000 0.771919 0.635720
vn -0.000000 0.706258 0.707955
vn -0.000000 0.771919 0.635720
vn -0.000000 0.706258 0.707955
vn -0.606631 -0.787596 0.108125
vn -0.649704 -0.756455 0.075236
vn -0.679996 -0.733005 0.017574
vn -0.606631 -0.787596 0.108125
vn -0.679996 -0.733005 0.017574
vn -0.628895 -0.777048 0.026246
vn -0.000000 -0.004753 0.999989
vn -0.000000 -0.004753 0.999989
vn -0.000000 -0.004753 0.999989
vn -0.000000 -0.004753 0.999989
vn -0.000000 -0.004753 0.999989
vn -0.000000 -0.004753 0.999989
vn 0.000000 -0.531694 0.846937
vn 0.000000 -0.531694 0.846937
vn 0.000000 -0.531694 0.846937
vn 0.000000 -0.531694 0.846937
vn 0.000000 -0.531694 0.846937
vn 0.000000 -0.531694 0.846937
vn 0.000000 -0.998899 0.046917
vn 0.000000 -0.990231 0.139435
vn 0.000000 -0.990231 0.139435
vn 0.000000 -0.998899 0.046917
vn 0.000000 -0.990231 0.139435
vn 0.000000 -0.998899 0.046917
vn -0.987694 -0.000576 0.156399
vn -0.999985 0.000356 -0.005537
vn -0.999985 0.000356 -0.005537
vn -0.987694 -0.000576 0.156399
vn -0.999985 0.000356 -0.005537
vn -0.987694 -0.000576 0.156399
vn -0.793539 0.166291 0.585358
vn -0.802441 0.278564 0.527721
vn -0.807918 0.218538 0.547275
vn -0.679996 -0.733005 0.017574
vn -0.649704 -0.756455 0.075236
vn -0.727952 -0.685572 0.008820
vn -0.679996 -0.733005 0.017574
vn -0.727952 -0.685572 0.008820
vn -0.727952 -0.685572 0.008820
vn -0.738151 0.674634 0.001602
vn -0.733428 0.679755 -0.004082
vn -0.730773 0.678256 0.077064
vn -0.887316 -0.002271 0.461156
vn -0.887316 -0.002271 0.461156
vn -0.802704 -0.002992 0.596370
vn -0.887316 -0.002271 0.461156
vn -0.802704 -0.002992 0.596370
vn -0.802704 -0.002992 0.596370
vn 0.000000 -0.006015 0.999982
vn 0.000000 -0.006015 0.999982
vn 0.000000 -0.006015 0.999982
vn 0.000000 -0.006015 0.999982
vn 0.000000 -0.006015 0.999982
vn 0.000000 -0.006015 0.999982
vn -0.802441 0.278564 0.527721
vn -0.754393 0.458949 0.469316
vn -0.779471 0.397634 0.484057
vn 0.000000 0.273784 0.961791
vn 0.000000 0.273784 0.961791
vn 0.000000 0.273784 0.961791
vn 0.000000 0.273784 0.961791
vn 0.000000 0.273784 0.961791
vn 0.000000 0.273784 0.961791
vn -0.750764 -0.351692 0.559166
vn -0.750764 -0.351692 0.559166
vn -0.750764 -0.351692 0.559166
vn 0.000000 -0.973013 0.230749
vn 0.000000 -0.973013 0.230749
vn 0.000000 -0.990231 0.139435
vn 0.000000 -0.973013 0.230749
vn 0.000000 -0.990231 0.139435
vn 0.000000 -0.990231 0.139435
vn -0.649704 -0.756455 0.075236
vn -0.606631 -0.787596 0.108125
vn -0.579932 -0.792387 0.189213
vn -0.730773 0.678256 0.077064
vn -0.733428 0.679755 -0.004082
vn -0.725461 0.678601 0.114923
vn 0.631473 -0.774955 0.026199
vn 0.679945 -0.733052 0.017591
vn 0.650514 -0.755774 0.075083
vn 0.631473 -0.774955 0.026199
vn 0.650514 -0.755774 0.075083
vn 0.609271 -0.785590 0.107879
vn 0.000000 0.999975 -0.007087
vn 0.000000 0.999975 -0.007087
vn 0.000000 0.999975 -0.007087
vn 0.000000 0.999975 -0.007087
vn 0.000000 0.999975 -0.007087
vn 0.000000 0.999975 -0.007087
vn 0.730774 0.678256 0.077064
vn 0.733428 0.679755 -0.004082
vn 0.738151 0.674634 0.001603
vn 0.987628 -0.001389 0.156810
vn 0.999985 0.000356 -0.005537
vn 0.999985 0.000356 -0.005537
vn 0.987628 -0.001389 0.156810
vn 0.999985 0.000356 -0.005537
vn 0.987628 -0.001390 0.156810
vn 0.807918 0.218538 0.547275
vn 0.802441 0.278564 0.527721
vn 0.793538 0.166291 0.585358
vn 0.725576 -0.688084 0.008908
vn 0.725576 -0.688084 0.008908
vn 0.650514 -0.755774 0.075083
vn 0.725576 -0.688084 0.008908
vn 0.650514 -0.755774 0.075083
vn 0.679945 -0.733052 0.017591
vn 0.803948 -0.004086 0.594685
vn 0.803948 -0.004086 0.594686
vn 0.887603 -0.003638 0.460595
vn 0.803948 -0.004086 0.594685
vn 0.887603 -0.003638 0.460595
vn 0.887603 -0.003638 0.460595
vn 0.723141 0.520595 0.453925
vn 0.723141 0.520595 0.453925
vn 0.754393 0.458949 0.469316
vn 0.723141 0.520595 0.453925
vn 0.754393 0.458949 0.469316
vn 0.779471 0.397634 0.484057
vn 0.753053 -0.350305 0.556954
vn 0.753053 -0.350305 0.556953
vn 0.753053 -0.350305 0.556953
vn 0.582634 -0.790507 0.188773
vn 0.609271 -0.785590 0.107879
vn 0.650514 -0.755774 0.075083
vn 0.730774 0.678256 0.077064
vn 0.710961 0.661798 0.237821
vn 0.725461 0.678601 0.114924
vn -0.779471 0.397634 0.484057
vn -0.807918 0.218538 0.547275
vn -0.802441 0.278564 0.527721
vn -0.725461 0.678601 0.114923
vn -0.710961 0.661798 0.237821
vn -0.730773 0.678256 0.077064
vn 0.725461 0.678601 0.114924
vn 0.733428 0.679755 -0.004082
vn 0.730774 0.678256 0.077064
vn 0.887603 -0.003638 0.460595
vn 0.987628 -0.001389 0.156810
vn 0.987628 -0.001390 0.156810
vn 0.887603 -0.003638 0.460595
vn 0.987628 -0.001390 0.156810
vn 0.949087 -0.003098 0.314999
vn 0.887603 -0.003638 0.460595
vn 0.949087 -0.003098 0.314999
vn 0.887603 -0.003638 0.460595
vn -0.987694 -0.000576 0.156399
vn -0.987694 -0.000576 0.156399
vn -0.887316 -0.002271 0.461156
vn -0.987694 -0.000576 0.156399
vn -0.887316 -0.002271 0.461156
vn -0.887316 -0.002271 0.461156
vn -0.987694 -0.000576 0.156399
vn -0.887316 -0.002271 0.461156
vn -0.949353 -0.001493 0.314209
vn 0.802441 0.278564 0.527721
vn 0.807918 0.218538 0.547275
vn 0.779471 0.397634 0.484057
vn -0.779471 0.397634 0.484057
vn -0.754393 0.458949 0.469316
vn -0.723141 0.520595 0.453925
vn -0.779471 0.397634 0.484057
vn -0.723141 0.520595 0.453925
vn -0.723141 0.520595 0.453925
vn -0.999973 -0.005533 -0.004875
vn -0.999986 -0.004671 -0.002438
vn -0.999977 -0.004805 -0.004868
vn 0.999993 -0.002948 0.002437
vn 0.999989 -0.004604 -0.001222
vn 0.999986 -0.004671 -0.002437
vn -0.999986 -0.004671 -0.002438
vn -0.999989 -0.004604 -0.001222
vn -0.999993 -0.002948 0.002437
vn 0.999973 -0.005533 -0.004875
vn 0.999986 -0.004671 -0.002437
vn 0.999989 -0.004604 -0.001222
vn 0.779471 0.397634 0.484057
vn 0.754393 0.458949 0.469316
vn 0.802441 0.278564 0.527721
vn -0.999989 -0.004604 -0.001222
vn -0.999986 -0.004671 -0.002438
vn -0.999973 -0.005533 -0.004875
vn 0.999977 -0.004805 -0.004868
vn 0.999986 -0.004671 -0.002437
vn 0.999973 -0.005533 -0.004875
vn -0.000000 0.706258 0.707955
vn -0.000000 0.633867 0.773442
vn -0.000000 0.633867 0.773442
vn -0.000000 0.706258 0.707955
vn -0.000000 0.633867 0.773442
vn -0.000000 0.706258 0.707955
vn 0.003109 -0.005535 -0.999980
vn 0.002287 -0.000005 -0.999997
vn -0.002278 -0.000005 -0.999997
vn 0.003109 -0.005535 -0.999980
vn -0.002278 -0.000005 -0.999997
vn -0.003104 -0.005530 -0.999980
vn -0.835449 0.229685 -0.499269
vn -0.771645 0.440988 -0.458360
vn -0.805425 0.259604 -0.532819
vn 0.805425 0.259604 -0.532818
vn 0.771645 0.440988 -0.458360
vn 0.835449 0.229685 -0.499269
vn 0.000000 0.507154 -0.861855
vn 0.000000 0.543166 -0.839625
vn 0.000000 0.543166 -0.839625
vn 0.000000 0.507154 -0.861855
vn 0.000000 0.543166 -0.839625
vn 0.000000 0.507154 -0.861855
vn 0.835449 0.229685 -0.499269
vn 0.893298 0.243909 -0.377528
vn 0.805425 0.259604 -0.532818
vn -0.805425 0.259604 -0.532819
vn -0.893298 0.243909 -0.377528
vn -0.835449 0.229685 -0.499269
vn -0.004557 0.000666 -0.999989
vn -0.002278 -0.000005 -0.999997
vn -0.001868 0.001904 -0.999996
vn 0.701130 -0.651178 -0.290490
vn 0.700964 -0.681609 -0.209902
vn 0.668925 -0.688675 -0.279761
vn -0.694870 0.657852 -0.290495
vn -0.714004 0.673823 -0.190160
vn -0.691554 0.660743 -0.291841
vn 0.923792 -0.003075 -0.382883
vn 0.923792 -0.003075 -0.382883
vn 0.923792 -0.003075 -0.382883
vn 0.923792 -0.003075 -0.382883
vn 0.923792 -0.003075 -0.382883
vn 0.923792 -0.003075 -0.382883
vn -0.923838 0.000212 -0.382784
vn -0.923838 0.000212 -0.382784
vn -0.923838 0.000212 -0.382784
vn -0.923838 0.000212 -0.382784
vn -0.923838 0.000212 -0.382784
vn -0.923838 0.000212 -0.382784
vn -0.699616 -0.652733 -0.290650
vn -0.699698 -0.683151 -0.209113
vn -0.729070 -0.670869 -0.135616
vn 0.695556 0.657027 -0.290720
vn 0.714696 0.672915 -0.190777
vn 0.723122 0.676649 -0.138713
vn -0.714004 0.673823 -0.190160
vn -0.722370 0.677617 -0.137905
vn -0.729252 0.684043 0.016639
vn 0.730110 0.683160 0.015209
vn 0.723122 0.676649 -0.138713
vn 0.714696 0.672915 -0.190777
vn -0.999627 0.000393 0.027311
vn -0.999627 0.000393 0.027311
vn -0.999627 0.000393 0.027311
vn -0.999627 0.000393 0.027311
vn -0.999627 0.000393 0.027311
vn -0.999627 0.000393 0.027311
vn 0.999727 -0.001156 0.023324
vn 0.999727 -0.001156 0.023324
vn 0.999727 -0.001156 0.023324
vn 0.999727 -0.001156 0.023324
vn 0.999727 -0.001156 0.023324
vn 0.999727 -0.001156 0.023324
vn -0.729070 -0.670869 -0.135616
vn -0.699698 -0.683151 -0.209113
vn -0.735697 -0.676996 0.020664
vn 0.736042 -0.676741 0.016260
vn 0.700964 -0.681609 -0.209902
vn 0.729110 -0.670339 -0.138003
vn 0.001877 0.001909 -0.999996
vn -0.001868 0.001904 -0.999996
vn -0.002278 -0.000005 -0.999997
vn 0.001877 0.001909 -0.999996
vn -0.002278 -0.000005 -0.999997
vn 0.002287 -0.000005 -0.999997
vn -0.003519 -0.009146 -0.999952
vn 0.003521 -0.009151 -0.999952
vn 0.003109 -0.005535 -0.999980
vn -0.003519 -0.009146 -0.999952
vn 0.003109 -0.005535 -0.999980
vn -0.003104 -0.005530 -0.999980
vn -0.666241 -0.690986 -0.280466
vn -0.699698 -0.683151 -0.209113
vn -0.699616 -0.652733 -0.290650
vn -0.722370 0.677617 -0.137905
vn -0.714004 0.673823 -0.190160
vn -0.694870 0.657852 -0.290495
vn -0.003519 -0.009146 -0.999952
vn -0.003104 -0.005530 -0.999980
vn -0.006208 -0.005764 -0.999964
vn 0.729110 -0.670339 -0.138003
vn 0.700964 -0.681609 -0.209902
vn 0.701130 -0.651178 -0.290490
vn 0.692161 0.659994 -0.292098
vn 0.714696 0.672915 -0.190777
vn 0.695556 0.657027 -0.290720
vn 0.001877 0.001909 -0.999996
vn 0.002287 -0.000005 -0.999997
vn 0.004574 0.000665 -0.999989
vn 0.006218 -0.005774 -0.999964
vn 0.003109 -0.005535 -0.999980
vn 0.003521 -0.009151 -0.999952
vn -0.003104 -0.005530 -0.999980
vn -0.002278 -0.000005 -0.999997
vn -0.004557 0.000666 -0.999989
vn -0.003104 -0.005530 -0.999980
vn -0.004557 0.000666 -0.999989
vn -0.006208 -0.005764 -0.999964
vn 0.750352 0.595719 -0.286514
vn 0.741799 0.653996 -0.148404
vn 0.771645 0.440988 -0.458360
vn 0.000000 0.975259 -0.221064
vn 0.000000 0.975259 -0.221064
vn 0.000000 0.975259 -0.221064
vn 0.000000 0.975259 -0.221064
vn 0.000000 0.975259 -0.221064
vn 0.000000 0.975259 -0.221064
vn -0.771645 0.440988 -0.458360
vn -0.741799 0.653996 -0.148404
vn -0.750352 0.595719 -0.286514
vn 0.006218 -0.005774 -0.999964
vn 0.004574 0.000665 -0.999989
vn 0.002287 -0.000005 -0.999997
vn 0.006218 -0.005774 -0.999964
vn 0.002287 -0.000005 -0.999997
vn 0.003109 -0.005535 -0.999980
vn 0.771645 0.440988 -0.458360
vn 0.747440 0.424284 -0.511192
vn 0.750352 0.595719 -0.286514
vn 0.000000 0.781796 -0.623535
vn 0.000000 0.781796 -0.623535
vn 0.000000 0.781796 -0.623535
vn 0.000000 0.781796 -0.623535
vn 0.000000 0.781796 -0.623535
vn 0.000000 0.781796 -0.623535
vn 0.668925 -0.688675 -0.279761
vn 0.700964 -0.681609 -0.209902
vn 0.638941 -0.721463 -0.266919
vn -0.750352 0.595719 -0.286514
vn -0.747440 0.424284 -0.511192
vn -0.771645 0.440988 -0.458360
vn -0.747440 0.424284 -0.511192
vn -0.805425 0.259604 -0.532819
vn -0.771645 0.440988 -0.458360
vn 0.000000 0.470235 -0.882541
vn 0.000000 0.507154 -0.861855
vn 0.000000 0.507154 -0.861855
vn 0.000000 0.470235 -0.882541
vn 0.000000 0.507154 -0.861855
vn 0.000000 0.470235 -0.882541
vn -0.636462 -0.723388 -0.267630
vn -0.699698 -0.683151 -0.209113
vn -0.666241 -0.690986 -0.280466
vn 0.000000 -0.937956 -0.346754
vn 0.000000 -0.937956 -0.346754
vn 0.000000 -0.937956 -0.346754
vn 0.000000 -0.937956 -0.346754
vn 0.000000 -0.937956 -0.346754
vn 0.000000 -0.937956 -0.346754
vn 0.771645 0.440988 -0.458360
vn 0.805425 0.259604 -0.532818
vn 0.747440 0.424284 -0.511192
vn 0.244911 0.626343 -0.740076
vn 0.256222 0.704006 -0.662364
vn -0.256222 0.704006 -0.662364
vn 0.244911 0.626343 -0.740076
vn -0.256222 0.704006 -0.662364
vn -0.244911 0.626343 -0.740076
vn -0.225116 0.633833 0.739986
vn -0.245158 0.709159 0.661053
vn 0.245158 0.709159 0.661053
vn -0.225116 0.633833 0.739986
vn 0.245158 0.709159 0.661053
vn 0.225116 0.633833 0.739985
vn 0.999946 0.010296 0.001457
vn 0.999946 0.010296 0.001457
vn 0.999986 0.005125 0.001582
vn 0.999946 0.010296 0.001457
vn 0.999986 0.005125 0.001582
vn 0.999986 0.005125 0.001582
vn -0.456902 -0.326049 0.827606
vn -0.456902 -0.326049 0.827606
vn -0.456902 -0.326049 0.827606
vn -0.456902 -0.326049 0.827606
vn -0.456902 -0.326049 0.827606
vn -0.456902 -0.326049 0.827606
vn -0.109843 -0.660029 0.743166
vn -0.193848 -0.890303 0.412049
vn -0.380641 -0.838293 0.390356
vn -0.109843 -0.660029 0.743166
vn -0.380641 -0.838293 0.390356
vn -0.222519 -0.660067 0.717493
vn -0.442574 0.585095 0.679553
vn -0.473920 0.801220 0.365302
vn -0.245158 0.709159 0.661053
vn -0.442574 0.585095 0.679553
vn -0.245158 0.709159 0.661053
vn -0.225116 0.633833 0.739986
vn -0.224988 -0.661892 -0.715038
vn -0.380403 -0.838912 -0.389256
vn -0.195100 -0.890209 -0.411661
vn -0.224988 -0.661892 -0.715038
vn -0.195100 -0.890209 -0.411661
vn -0.113245 -0.659726 -0.742925
vn -0.244911 0.626343 -0.740076
vn -0.256222 0.704006 -0.662364
vn -0.492462 0.789479 -0.366339
vn -0.244911 0.626343 -0.740076
vn -0.492462 0.789479 -0.366339
vn -0.474884 0.561377 -0.677748
vn -0.244612 -0.969621 0.000182
vn -0.195100 -0.890209 -0.411661
vn -0.380403 -0.838912 -0.389256
vn -0.244612 -0.969621 0.000182
vn -0.380403 -0.838912 -0.389256
vn -0.474336 -0.880344 -0.000560
vn -0.435862 0.900010 -0.002446
vn -0.245158 0.709159 0.661053
vn -0.473920 0.801220 0.365302
vn -0.435862 0.900010 -0.002446
vn -0.473920 0.801220 0.365302
vn -0.435862 0.900010 -0.002446
vn 0.306928 -0.951733 -0.000174
vn 0.306928 -0.951733 -0.000174
vn 0.306928 -0.951733 -0.000173
vn 0.306928 -0.951733 -0.000174
vn 0.306928 -0.951733 -0.000173
vn 0.306928 -0.951733 -0.000174
vn 0.308287 0.951292 0.001366
vn 0.308287 0.951292 0.001366
vn 0.308287 0.951292 0.001366
vn 0.308287 0.951292 0.001366
vn 0.308287 0.951292 0.001366
vn 0.308287 0.951292 0.001366
vn -0.476419 -0.879218 -0.000715
vn -0.380641 -0.838293 0.390356
vn -0.193848 -0.890303 0.412049
vn -0.476419 -0.879218 -0.000715
vn -0.193848 -0.890303 0.412049
vn -0.245760 -0.969331 0.000102
vn 0.307312 0.951603 -0.003408
vn 0.307312 0.951603 -0.003408
vn 0.307312 0.951603 -0.003408
vn 0.307312 0.951603 -0.003408
vn 0.307312 0.951603 -0.003408
vn 0.307312 0.951603 -0.003408
vn 0.311641 -0.950200 -0.000183
vn 0.311641 -0.950200 -0.000183
vn 0.311641 -0.950200 -0.000183
vn 0.311641 -0.950200 -0.000183
vn 0.311641 -0.950200 -0.000183
vn 0.311641 -0.950200 -0.000183
vn -0.436509 0.899700 -0.000230
vn -0.492462 0.789479 -0.366339
vn -0.256222 0.704006 -0.662364
vn -0.436509 0.899700 -0.000230
vn -0.256222 0.704006 -0.662364
vn -0.436509 0.899700 -0.000230
vn 0.446319 -0.365542 -0.816810
vn 0.446319 -0.365542 -0.816810
vn 0.446319 -0.365542 -0.816810
vn 0.446319 -0.365542 -0.816810
vn 0.446319 -0.365542 -0.816810
vn 0.446319 -0.365542 -0.816810
vn 0.456902 -0.326049 0.827606
vn 0.456902 -0.326049 0.827606
vn 0.456902 -0.326049 0.827606
vn 0.456902 -0.326049 0.827606
vn 0.456902 -0.326049 0.827606
vn 0.456902 -0.326049 0.827606
vn -0.446319 -0.365542 -0.816810
vn -0.446319 -0.365542 -0.816810
vn -0.446319 -0.365542 -0.816810
vn -0.446319 -0.365542 -0.816810
vn -0.446319 -0.365542 -0.816810
vn -0.446319 -0.365542 -0.816810
vn 0.436509 0.899700 -0.000230
vn 0.256222 0.704006 -0.662364
vn 0.492463 0.789479 -0.366339
vn 0.436509 0.899700 -0.000230
vn 0.492463 0.789479 -0.366339
vn 0.436509 0.899700 -0.000230
vn 0.195100 -0.890209 -0.411661
vn 0.113246 -0.659726 -0.742925
vn -0.113245 -0.659726 -0.742925
vn 0.195100 -0.890209 -0.411661
vn -0.113245 -0.659726 -0.742925
vn -0.195100 -0.890209 -0.411661
vn -0.195100 -0.890209 -0.411661
vn -0.244612 -0.969621 0.000182
vn -0.245760 -0.969331 0.000102
vn -0.195100 -0.890209 -0.411661
vn -0.245760 -0.969331 0.000102
vn -0.193848 -0.890303 0.412049
vn -0.195100 -0.890209 -0.411661
vn -0.193848 -0.890303 0.412049
vn 0.193848 -0.890303 0.412049
vn -0.195100 -0.890209 -0.411661
vn 0.193848 -0.890303 0.412049
vn 0.245760 -0.969331 0.000102
vn -0.195100 -0.890209 -0.411661
vn 0.245760 -0.969331 0.000102
vn 0.244612 -0.969621 0.000182
vn -0.195100 -0.890209 -0.411661
vn 0.244612 -0.969621 0.000182
vn 0.195100 -0.890209 -0.411661
vn -0.193848 -0.890303 0.412049
vn -0.109843 -0.660029 0.743166
vn 0.109843 -0.660029 0.743166
vn -0.193848 -0.890303 0.412049
vn 0.109843 -0.660029 0.743166
vn 0.193848 -0.890303 0.412049
vn -0.999986 0.005125 0.001582
vn -0.999986 0.005125 0.001582
vn -0.999946 0.010296 0.001457
vn -0.999986 0.005125 0.001582
vn -0.999946 0.010296 0.001457
vn -0.999946 0.010296 0.001457
vn -0.311641 -0.950200 -0.000183
vn -0.311641 -0.950200 -0.000183
vn -0.311641 -0.950200 -0.000183
vn -0.311641 -0.950200 -0.000183
vn -0.311641 -0.950200 -0.000183
vn -0.311641 -0.950200 -0.000183
vn 0.222519 -0.660067 0.717493
vn 0.380641 -0.838293 0.390356
vn 0.193848 -0.890303 0.412049
vn 0.222519 -0.660067 0.717493
vn 0.193848 -0.890303 0.412049
vn 0.109843 -0.660029 0.743166
vn 0.225116 0.633833 0.739985
vn 0.245158 0.709159 0.661053
vn 0.473920 0.801220 0.365302
vn 0.225116 0.633833 0.739985
vn 0.473920 0.801220 0.365302
vn 0.442574 0.585095 0.679553
vn 0.113246 -0.659726 -0.742925
vn 0.195100 -0.890209 -0.411661
vn 0.380403 -0.838912 -0.389256
vn 0.113246 -0.659726 -0.742925
vn 0.380403 -0.838912 -0.389256
vn 0.224988 -0.661892 -0.715038
vn 0.474884 0.561376 -0.677748
vn 0.492463 0.789479 -0.366339
vn 0.256222 0.704006 -0.662364
vn 0.474884 0.561376 -0.677748
vn 0.256222 0.704006 -0.662364
vn 0.244911 0.626343 -0.740076
vn 0.474336 -0.880344 -0.000560
vn 0.380403 -0.838912 -0.389256
vn 0.195100 -0.890209 -0.411661
vn 0.474336 -0.880344 -0.000560
vn 0.195100 -0.890209 -0.411661
vn 0.244612 -0.969621 0.000182
vn 0.435863 0.900010 -0.002446
vn 0.473920 0.801220 0.365302
vn 0.245158 0.709159 0.661053
vn 0.435863 0.900010 -0.002446
vn 0.245158 0.709159 0.661053
vn 0.435863 0.900010 -0.002446
vn -0.306928 -0.951733 -0.000174
vn -0.306928 -0.951733 -0.000174
vn -0.306928 -0.951733 -0.000174
vn -0.306928 -0.951733 -0.000174
vn -0.306928 -0.951733 -0.000174
vn -0.306928 -0.951733 -0.000174
vn -0.308287 0.951292 0.001366
vn -0.308287 0.951292 0.001366
vn -0.308287 0.951292 0.001366
vn -0.308287 0.951292 0.001366
vn -0.308287 0.951292 0.001366
vn -0.308287 0.951292 0.001366
vn 0.245760 -0.969331 0.000102
vn 0.193848 -0.890303 0.412049
vn 0.380641 -0.838293 0.390356
vn 0.245760 -0.969331 0.000102
vn 0.380641 -0.838293 0.390356
vn 0.476419 -0.879218 -0.000715
vn -0.307312 0.951603 -0.003408
vn -0.307312 0.951603 -0.003408
vn -0.307312 0.951603 -0.003408
vn -0.307312 0.951603 -0.003408
vn -0.307312 0.951603 -0.003408
vn -0.307312 0.951603 -0.003408
vn 0.597154 0.800082 0.057234
vn 0.597154 0.800082 0.057234
vn 0.636969 0.770365 0.028445
vn 0.597154 0.800082 0.057234
vn 0.636969 0.770365 0.028445
vn 0.636969 0.770365 0.028445
vn -0.000148 0.997481 0.070941
vn -0.000148 0.997481 0.070941
vn -0.000000 1.000000 -0.000438
vn -0.000148 0.997481 0.070941
vn -0.000000 1.000000 -0.000438
vn -0.000000 1.000000 -0.000438
vn -0.000000 0.839381 -0.543543
vn -0.000000 0.839381 -0.543543
vn -0.000000 0.839381 -0.543543
vn -0.000000 0.839381 -0.543543
vn -0.000000 0.839381 -0.543543
vn -0.000000 0.839381 -0.543543
vn 0.630706 -0.776022 0.000516
vn 0.630706 -0.776022 0.000516
vn 0.630706 -0.776022 0.000516
vn 0.630706 -0.776022 0.000516
vn 0.630706 -0.776022 0.000516
vn 0.630706 -0.776022 0.000516
vn -0.924058 -0.011773 -0.382071
vn -0.924058 -0.011773 -0.382071
vn -0.914831 -0.008631 -0.403744
vn -0.924058 -0.011773 -0.382071
vn -0.914831 -0.008631 -0.403744
vn -0.914831 -0.008631 -0.403744
vn -0.932762 -0.014909 -0.360183
vn -0.924058 -0.011773 -0.382071
vn -0.924058 -0.011773 -0.382071
vn 0.000000 0.273551 0.961857
vn 0.000000 0.273551 0.961857
vn 0.000000 0.273551 0.961857
vn 0.000000 0.273551 0.961857
vn 0.000000 0.273551 0.961857
vn 0.000000 0.273551 0.961857
vn 0.555027 -0.682980 0.474851
vn 0.555027 -0.682980 0.474851
vn 0.555027 -0.682980 0.474851
vn 0.928544 0.371220 0.001039
vn 0.928544 0.371220 0.001039
vn 0.929149 0.369705 -0.000842
vn 0.928544 0.371220 0.001039
vn 0.929149 0.369705 -0.000842
vn 0.929149 0.369705 -0.000842
vn -0.555027 -0.682980 0.474851
vn -0.555027 -0.682980 0.474851
vn -0.555027 -0.682980 0.474851
vn 0.929747 0.368188 -0.002722
vn 0.929149 0.369705 -0.000842
vn 0.929149 0.369705 -0.000842
vn 0.929747 0.368188 -0.002722
vn 0.929149 0.369705 -0.000842
vn 0.929747 0.368188 -0.002723
vn -0.687925 0.707288 -0.162800
vn -0.687925 0.707288 -0.162800
vn -0.659578 0.678973 -0.322416
vn -0.016199 0.013899 -0.999772
vn -0.016199 0.013899 -0.999772
vn -0.008100 0.018252 -0.999801
vn -0.016199 0.013899 -0.999772
vn -0.008100 0.018252 -0.999801
vn -0.008100 0.018252 -0.999801
vn 0.008113 0.018308 -0.999799
vn 0.016225 0.014010 -0.999770
vn 0.016225 0.014010 -0.999770
vn 0.008113 0.018308 -0.999799
vn 0.016225 0.014010 -0.999770
vn 0.008113 0.018308 -0.999799
vn 0.000000 0.903504 -0.428580
vn 0.000000 0.903504 -0.428580
vn 0.000000 0.903504 -0.428580
vn 0.000000 0.903504 -0.428580
vn 0.000000 0.903504 -0.428580
vn 0.000000 0.903504 -0.428580
vn -0.393569 0.674316 0.624820
vn -0.393569 0.674317 0.624820
vn -0.393569 0.674316 0.624820
vn 0.008113 0.018308 -0.999799
vn -0.008100 0.018252 -0.999801
vn -0.008100 0.018252 -0.999801
vn 0.008113 0.018308 -0.999799
vn -0.008100 0.018252 -0.999801
vn 0.008113 0.018308 -0.999799
vn -0.634936 0.772021 0.028961
vn -0.662961 0.729522 -0.168168
vn -0.662961 0.729522 -0.168168
vn -0.634936 0.772021 0.028961
vn -0.662961 0.729522 -0.168168
vn -0.634936 0.772021 0.028961
vn 0.902912 0.103180 -0.417256
vn 0.902912 0.103180 -0.417257
vn 0.908015 0.009314 -0.418834
vn 0.902912 0.103180 -0.417256
vn 0.889829 0.196134 -0.411991
vn 0.889829 0.196134 -0.411991
vn 0.902912 0.103180 -0.417256
vn 0.889829 0.196134 -0.411991
vn 0.902912 0.103180 -0.417257
vn -0.999942 -0.010737 -0.000168
vn -0.999942 -0.010737 -0.000168
vn -0.999942 -0.010737 -0.000168
vn -0.999942 -0.010737 -0.000168
vn -0.999942 -0.010737 -0.000168
vn -0.999942 -0.010737 -0.000168
vn -0.512806 0.240086 0.824250
vn -0.512806 0.240086 0.824250
vn -0.512806 0.240086 0.824250
vn -0.512806 0.240086 0.824250
vn -0.512806 0.240086 0.824250
vn -0.512806 0.240086 0.824250
vn -0.000000 -0.821623 0.570031
vn -0.000000 -0.821623 0.570031
vn -0.000000 -0.821623 0.570031
vn -0.000000 -0.821623 0.570031
vn -0.000000 -0.821623 0.570031
vn -0.000000 -0.821623 0.570031
vn -0.661553 0.749382 0.027823
vn -0.661553 0.749382 0.027823
vn -0.623418 0.779999 0.054336
vn -0.661553 0.749382 0.027823
vn -0.623418 0.779999 0.054336
vn -0.623418 0.779999 0.054336
vn 0.639762 0.005273 0.768555
vn 0.639762 0.005273 0.768555
vn 0.639762 0.005273 0.768555
vn 0.661553 0.749382 0.027823
vn 0.661553 0.749382 0.027823
vn 0.687923 0.707286 -0.162812
vn 0.661553 0.749382 0.027823
vn 0.687923 0.707286 -0.162812
vn 0.687923 0.707286 -0.162812
vn 0.490532 0.335757 0.804143
vn 0.490532 0.335757 0.804143
vn 0.490532 0.335758 0.804143
vn 0.490532 0.335757 0.804143
vn 0.490532 0.335758 0.804143
vn 0.490532 0.335758 0.804143
vn -0.000000 0.903504 -0.428580
vn -0.000000 0.903504 -0.428580
vn -0.000000 0.903504 -0.428580
vn -0.000000 0.903504 -0.428580
vn -0.000000 0.903504 -0.428580
vn -0.000000 0.903504 -0.428580
vn -0.490532 0.335758 0.804143
vn -0.490532 0.335758 0.804143
vn -0.490532 0.335758 0.804143
vn -0.490532 0.335758 0.804143
vn -0.490532 0.335758 0.804143
vn -0.490531 0.335758 0.804143
vn -0.687925 0.707288 -0.162800
vn -0.687925 0.707288 -0.162800
vn -0.661553 0.749382 0.027823
vn -0.687925 0.707288 -0.162800
vn -0.661553 0.749382 0.027823
vn -0.661553 0.749382 0.027823
vn 0.659573 0.678968 -0.322438
vn 0.687923 0.707286 -0.162812
vn 0.687923 0.707286 -0.162812
vn 0.000000 0.839381 -0.543543
vn 0.000000 0.839381 -0.543543
vn 0.000000 0.839381 -0.543543
vn 0.000000 0.839381 -0.543543
vn 0.000000 0.839381 -0.543543
vn 0.000000 0.839381 -0.543543
vn -0.630706 -0.776022 0.000516
vn -0.630706 -0.776022 0.000516
vn -0.630706 -0.776022 0.000516
vn -0.630706 -0.776022 0.000516
vn -0.630706 -0.776022 0.000516
vn -0.630706 -0.776022 0.000516
vn 0.915233 -0.000682 -0.402924
vn 0.915233 -0.000682 -0.402924
vn 0.924265 -0.007798 -0.381673
vn 0.915233 -0.000682 -0.402924
vn 0.924265 -0.007798 -0.381673
vn 0.924265 -0.007797 -0.381673
vn 0.924265 -0.007797 -0.381673
vn 0.924265 -0.007798 -0.381673
vn 0.932757 -0.014909 -0.360198
vn -0.000001 0.273551 0.961857
vn -0.000001 0.273551 0.961857
vn -0.000001 0.273551 0.961857
vn -0.000001 0.273551 0.961857
vn -0.000001 0.273551 0.961857
vn -0.000001 0.273551 0.961857
vn -0.641121 -0.004607 0.767426
vn -0.641121 -0.004607 0.767426
vn -0.641121 -0.004607 0.767426
vn -0.929148 0.369706 -0.000842
vn -0.929148 0.369706 -0.000842
vn -0.928544 0.371221 0.001039
vn -0.929148 0.369706 -0.000842
vn -0.928544 0.371221 0.001039
vn -0.928544 0.371221 0.001039
vn -0.662961 0.729522 -0.168168
vn -0.662961 0.729522 -0.168168
vn -0.635081 0.697870 -0.331133
vn -0.929747 0.368189 -0.002723
vn -0.929148 0.369706 -0.000842
vn -0.929148 0.369706 -0.000842
vn -0.929747 0.368189 -0.002723
vn -0.929148 0.369706 -0.000842
vn -0.929747 0.368189 -0.002723
vn -0.000000 1.000000 -0.000438
vn -0.000000 1.000000 -0.000438
vn 0.000148 0.997481 0.070941
vn -0.000000 1.000000 -0.000438
vn 0.000148 0.997481 0.070941
vn 0.000148 0.997481 0.070941
vn 0.512806 0.240087 0.824250
vn 0.512806 0.240087 0.824250
vn 0.512806 0.240087 0.824250
vn 0.512806 0.240087 0.824250
vn 0.512806 0.240087 0.824250
vn 0.512806 0.240087 0.824250
vn 0.999993 -0.003161 -0.001764
vn 0.999993 -0.003162 -0.001764
vn 0.999993 -0.003162 -0.001764
vn 0.999993 -0.003161 -0.001764
vn 0.999993 -0.003162 -0.001764
vn 0.999993 -0.003161 -0.001764
vn 0.637789 0.695840 -0.330200
vn 0.665611 0.727217 -0.167681
vn 0.665611 0.727217 -0.167681
vn -0.902927 0.103179 -0.417225
vn -0.889841 0.196135 -0.411965
vn -0.889841 0.196135 -0.411964
vn -0.902927 0.103179 -0.417225
vn -0.889841 0.196135 -0.411964
vn -0.902927 0.103179 -0.417225
vn -0.908032 0.009309 -0.418798
vn -0.902927 0.103179 -0.417225
vn -0.902927 0.103179 -0.417225
vn 0.000218 0.731133 0.682235
vn 0.000218 0.731133 0.682235
vn 0.000218 0.731133 0.682235
vn 0.000218 0.731133 0.682235
vn 0.000218 0.731133 0.682235
vn 0.000218 0.731133 0.682235
vn 0.000148 0.997481 0.070941
vn 0.000148 0.997481 0.070941
vn 0.000295 0.989873 0.141958
vn 0.000148 0.997481 0.070941
vn 0.000295 0.989873 0.141958
vn 0.000295 0.989873 0.141958
vn -0.000218 0.731133 0.682235
vn -0.000218 0.731133 0.682235
vn -0.000218 0.731132 0.682236
vn -0.000218 0.731133 0.682235
vn -0.000218 0.731132 0.682236
vn -0.000218 0.731132 0.682236
vn 0.416374 0.666334 0.618572
vn 0.416374 0.666334 0.618572
vn 0.416374 0.666334 0.618572
vn -0.416374 0.666334 0.618572
vn -0.416374 0.666334 0.618572
vn -0.416374 0.666334 0.618572
vn -0.000295 0.989873 0.141958
vn -0.000295 0.989873 0.141958
vn -0.000148 0.997481 0.070941
vn -0.000295 0.989873 0.141958
vn -0.000148 0.997481 0.070941
vn -0.000148 0.997481 0.070941
vn 0.393569 0.674317 0.624820
vn 0.393569 0.674317 0.624820
vn 0.393569 0.674317 0.624820
vn 0.623418 0.779999 0.054336
vn 0.623418 0.779999 0.054336
vn 0.661553 0.749382 0.027823
vn 0.623418 0.779999 0.054336
vn 0.661553 0.749382 0.027823
vn 0.661553 0.749382 0.027823
vn 0.636969 0.770365 0.028445
vn 0.665611 0.727217 -0.167681
vn 0.665611 0.727217 -0.167681
vn 0.636969 0.770365 0.028445
vn 0.665611 0.727217 -0.167681
vn 0.636969 0.770365 0.028445
vn -0.634936 0.772021 0.028961
vn -0.634936 0.772021 0.028961
vn -0.595763 0.801044 0.058266
vn -0.634936 0.772021 0.028961
vn -0.595763 0.801044 0.058266
vn -0.595764 0.801044 0.058266
f 16/1/1 27/2/2 29/3/3
f 16/4/4 29/5/5 14/6/6
f 36/7/7 10/8/8 3/9/9
f 36/10/10 3/11/11 35/12/12
f 17/13/13 4/14/14 2/15/15
f 17/16/16 2/17/17 5/18/18
f 41/19/19 27/20/20 16/21/21
f 41/22/22 16/23/23 39/24/24
f 33/25/25 28/26/26 15/27/27
f 33/28/28 15/29/29 21/30/30
f 8/31/31 20/32/32 17/33/33
f 8/34/34 17/35/35 5/36/36
f 24/37/37 9/38/38 1/39/39
f 24/40/40 1/41/41 18/42/42
f 14/43/43 22/44/44 16/45/45
f 2/46/46 4/47/47 18/48/48
f 2/49/49 18/50/50 1/51/51
f 25/52/52 9/53/53 23/54/54
f 39/55/55 4/56/56 15/57/57
f 39/58/58 15/59/59 40/60/60
f 40/61/61 15/62/62 28/63/63
f 40/64/64 28/65/65 42/66/66
f 22/67/67 35/68/68 38/69/69
f 29/70/70 34/71/71 22/72/72
f 29/73/73 22/74/74 14/75/75
f 21/76/76 15/77/77 4/78/78
f 33/79/79 21/80/80 17/81/81
f 33/82/82 17/83/83 20/84/84
f 4/85/85 17/86/86 21/87/87
f 23/88/88 9/89/89 24/90/90
f 8/91/91 11/92/92 13/93/93
f 8/94/94 13/95/95 20/96/96
f 39/97/97 40/98/98 42/99/99
f 39/100/100 42/101/101 41/102/102
f 32/103/103 19/104/104 6/105/105
f 26/106/106 30/107/107 19/108/108
f 26/109/109 19/110/110 7/111/111
f 27/112/112 34/113/113 29/114/114
f 30/115/115 26/116/116 13/117/117
f 30/118/118 13/119/119 11/120/120
f 42/121/121 28/122/122 13/123/123
f 42/124/124 13/125/125 41/126/126
f 31/127/127 10/128/128 36/129/129
f 31/130/130 36/131/131 37/132/132
f 13/133/133 28/134/134 33/135/135
f 33/136/136 20/137/137 13/138/138
f 32/139/139 27/140/140 7/141/141
f 38/142/142 16/143/143 22/144/144
f 24/145/145 16/146/146 23/147/147
f 7/148/148 19/149/149 32/150/150
f 13/151/151 26/152/152 7/153/153
f 13/154/154 7/155/155 27/156/156
f 13/157/157 27/158/158 41/159/159
f 24/160/160 18/161/161 4/162/162
f 24/163/163 4/164/164 39/165/165
f 24/166/166 39/167/167 16/168/168
f 34/169/169 27/170/170 37/171/171
f 38/172/172 35/173/173 3/174/174
f 38/175/175 3/176/176 12/177/177
f 38/178/178 23/179/179 16/180/180
f 6/181/181 31/182/182 32/183/183
f 23/184/184 12/185/185 25/186/186
f 37/187/187 32/188/188 31/189/189
f 37/190/190 36/191/191 34/192/192
f 12/193/193 23/194/194 38/195/195
f 27/196/196 32/197/197 37/198/198
f 35/199/199 22/200/200 34/201/201
f 35/202/202 34/203/203 36/204/204
f 49/205/205 50/206/206 56/207/207
f 49/208/208 56/209/209 55/210/210
f 25/211/211 12/212/212 60/213/213
f 59/214/214 31/215/215 6/216/216
f 59/217/217 48/218/218 47/219/219
f 59/220/220 47/221/221 60/222/222
f 6/223/223 48/224/224 59/225/225
f 60/226/226 47/227/227 25/228/228
f 54/229/229 56/230/230 43/231/231
f 51/232/232 11/233/233 44/234/234
f 53/235/235 25/236/236 47/237/237
f 51/238/238 52/239/239 58/240/240
f 51/241/241 58/242/242 46/243/243
f 45/244/244 57/245/245 53/246/246
f 45/247/247 53/248/248 54/249/249
f 54/250/250 2/251/251 45/252/252
f 52/253/253 6/254/254 58/255/255
f 25/256/256 57/257/257 9/258/258
f 19/259/259 58/260/260 6/261/261
f 57/262/262 45/263/263 1/264/264
f 57/265/265 1/266/266 9/267/267
f 19/268/268 30/269/269 46/270/270
f 19/271/271 46/272/272 58/273/273
f 45/274/274 2/275/275 1/276/276
f 30/277/277 11/278/278 46/279/279
f 44/280/280 43/281/281 56/282/282
f 44/283/283 56/284/284 50/285/285
f 47/286/286 48/287/287 49/288/288
f 47/289/289 49/290/290 55/291/291
f 43/292/292 2/293/293 54/294/294
f 57/295/295 25/296/296 53/297/297
f 47/298/298 55/299/299 53/300/300
f 46/301/301 11/302/302 51/303/303
f 48/304/304 6/305/305 52/306/306
f 44/307/307 50/308/308 51/309/309
f 52/310/310 49/311/311 48/312/312
f 55/313/313 56/314/314 54/315/315
f 55/316/316 54/317/317 53/318/318
f 63/319/319 10/320/320 31/321/321
f 64/322/322 3/323/323 10/324/324
f 64/325/325 10/326/326 63/327/327
f 12/328/328 3/329/329 64/330/330
f 52/331/331 51/332/332 50/333/333
f 52/334/334 50/335/335 49/336/336
f 31/337/337 61/338/338 63/339/339
f 63/340/340 61/341/341 62/342/342
f 63/343/343 62/344/344 64/345/345
f 44/346/346 11/347/347 8/348/348
f 64/349/349 62/350/350 12/351/351
f 62/352/352 60/353/353 12/354/354
f 61/355/355 59/356/356 60/357/357
f 61/358/358 60/359/359 62/360/360
f 5/361/361 2/362/362 43/363/363
f 43/364/364 44/365/365 8/366/366
f 43/367/367 8/368/368 5/369/369
f 31/370/370 59/371/371 61/372/372
f 114/373/373 99/374/374 65/375/375
f 114/376/376 65/377/377 80/378/378
f 78/379/379 68/380/380 102/381/381
f 78/382/382 102/383/383 112/384/384
f 94/385/385 93/386/386 86/387/387
f 94/388/388 86/389/389 87/390/390
f 120/391/391 118/392/392 103/393/393
f 120/394/394 103/395/395 105/396/396
f 78/397/397 67/398/398 73/399/399
f 78/400/400 73/401/401 74/402/402
f 75/403/403 76/404/404 68/405/405
f 75/406/406 68/407/407 78/408/408
f 81/409/409 79/410/410 66/411/411
f 81/412/412 66/413/413 80/414/414
f 80/415/415 65/416/416 77/417/417
f 80/418/418 77/419/419 82/420/420
f 88/421/421 66/422/422 79/423/423
f 88/424/424 79/425/425 89/426/426
f 87/427/427 68/428/428 76/429/429
f 87/430/430 76/431/431 83/432/432
f 93/433/433 80/434/434 82/435/435
f 93/436/436 82/437/437 96/438/438
f 94/439/439 78/440/440 74/441/441
f 94/442/442 74/443/443 91/444/444
f 90/445/445 73/446/446 67/447/447
f 90/448/448 67/449/449 85/450/450
f 92/451/451 81/452/452 80/453/453
f 92/454/454 80/455/455 93/456/456
f 95/457/457 75/458/458 78/459/459
f 95/460/460 78/461/461 94/462/462
f 84/463/463 77/464/464 65/465/465
f 84/466/466 65/467/467 86/468/468
f 87/469/469 83/470/470 95/471/471
f 87/472/472 95/473/473 94/474/474
f 93/475/475 96/476/476 84/477/477
f 93/478/478 84/479/479 86/480/480
f 71/481/481 69/482/482 117/483/483
f 71/484/484 117/485/485 70/486/486
f 120/487/487 99/488/488 111/489/489
f 120/490/490 111/491/491 118/492/492
f 100/493/493 114/494/494 80/495/495
f 100/496/496 80/497/497 66/498/498
f 66/499/499 88/500/500 85/501/501
f 66/502/502 85/503/503 67/504/504
f 66/505/505 67/506/506 101/507/507
f 66/508/508 101/509/509 119/510/510
f 66/511/511 119/512/512 104/513/513
f 66/514/514 104/515/515 100/516/516
f 67/517/517 78/518/518 112/519/519
f 67/520/520 112/521/521 101/522/522
f 70/523/523 120/524/524 105/525/525
f 70/526/526 105/527/527 71/528/528
f 71/529/529 112/530/530 109/531/531
f 71/532/532 109/533/533 69/534/534
f 108/535/535 107/536/536 101/537/537
f 108/538/538 101/539/539 112/540/540
f 112/541/541 102/542/542 110/543/543
f 112/544/544 110/545/545 109/546/546
f 114/547/547 100/548/548 113/549/549
f 114/550/550 113/551/551 115/552/552
f 116/553/553 111/554/554 99/555/555
f 116/556/556 99/557/557 114/558/558
f 72/559/559 113/560/560 100/561/561
f 72/562/562 100/563/563 104/564/564
f 117/565/565 110/566/566 102/567/567
f 117/568/568 102/569/569 70/570/570
f 103/571/571 116/572/572 114/573/573
f 103/574/574 114/575/575 105/576/576
f 98/577/577 108/578/578 112/579/579
f 98/580/580 112/581/581 71/582/582
f 119/583/583 101/584/584 107/585/585
f 119/586/586 107/587/587 106/588/588
f 105/589/589 114/590/590 115/591/591
f 105/592/592 115/593/593 97/594/594
f 181/595/595 157/596/596 167/597/597
f 181/598/598 167/599/599 178/600/600
f 179/601/601 178/602/602 177/603/603
f 179/604/604 177/605/605 180/606/606
f 137/607/607 127/608/608 130/609/609
f 137/610/610 130/611/611 136/612/612
f 128/613/613 133/614/614 144/615/615
f 128/616/616 144/617/617 143/618/618
f 130/619/619 126/620/620 128/621/621
f 130/622/622 128/623/623 140/624/624
f 127/625/625 126/626/626 130/627/627
f 146/628/628 148/629/629 147/630/630
f 146/631/631 147/632/632 145/633/633
f 142/634/634 144/635/635 133/636/636
f 122/637/637 123/638/638 131/639/639
f 122/640/640 131/641/641 132/642/642
f 161/643/643 172/644/644 170/645/645
f 135/646/646 132/647/647 131/648/648
f 135/649/649 131/650/650 134/651/651
f 151/652/652 180/653/653 164/654/654
f 140/655/655 128/656/656 143/657/657
f 140/658/658 143/659/659 141/660/660
f 171/661/661 156/662/662 168/663/663
f 171/664/664 168/665/665 169/666/666
f 180/667/667 177/668/668 158/669/669
f 180/670/670 158/671/671 164/672/672
f 182/673/673 129/674/674 148/675/675
f 169/676/676 141/677/677 143/678/678
f 169/679/679 143/680/680 171/681/681
f 174/682/682 173/683/683 140/684/684
f 174/685/685 140/686/686 139/687/687
f 136/688/688 138/689/689 137/690/690
f 136/691/691 123/692/692 122/693/693
f 136/694/694 122/695/695 138/696/696
f 139/697/697 133/698/698 125/699/699
f 139/700/700 125/701/701 129/702/702
f 129/703/703 125/704/704 147/705/705
f 129/706/706 147/707/707 148/708/708
f 142/709/709 170/710/710 172/711/711
f 142/712/712 172/713/713 144/714/714
f 179/715/715 159/716/716 162/717/717
f 179/718/718 162/719/719 184/720/720
f 133/721/721 139/722/722 142/723/723
f 175/724/724 131/725/725 123/726/726
f 175/727/727 123/728/728 176/729/729
f 135/730/730 134/731/731 146/732/732
f 135/733/733 146/734/734 145/735/735
f 136/736/736 130/737/737 173/738/738
f 136/739/739 173/740/740 176/741/741
f 121/742/742 124/743/743 162/744/744
f 121/745/745 162/746/746 163/747/747
f 180/748/748 151/749/749 159/750/750
f 180/751/751 159/752/752 179/753/753
f 136/754/754 176/755/755 123/756/756
f 164/757/757 158/758/758 155/759/759
f 164/760/760 155/761/761 165/762/762
f 171/763/763 172/764/764 161/765/765
f 171/766/766 161/767/767 156/768/768
f 168/769/769 156/770/770 154/771/771
f 168/772/772 154/773/773 158/774/774
f 158/775/775 154/776/776 155/777/777
f 121/778/778 149/779/779 152/780/780
f 121/781/781 152/782/782 124/783/783
f 170/784/784 167/785/785 161/786/786
f 160/787/787 159/788/788 151/789/789
f 160/790/790 151/791/791 150/792/792
f 140/793/793 173/794/794 130/795/795
f 162/796/796 159/797/797 160/798/798
f 162/799/799 160/800/800 163/801/801
f 176/802/802 173/803/803 174/804/804
f 176/805/805 174/806/806 175/807/807
f 152/808/808 149/809/809 153/810/810
f 152/811/811 153/812/812 157/813/813
f 157/814/814 153/815/815 161/816/816
f 157/817/817 161/818/818 167/819/819
f 158/820/820 177/821/821 168/822/822
f 166/823/823 150/824/824 151/825/825
f 166/826/826 151/827/827 164/828/828
f 165/829/829 166/830/830 164/831/831
f 183/832/832 182/833/833 148/834/834
f 183/835/835 148/836/836 146/837/837
f 175/838/838 174/839/839 182/840/840
f 175/841/841 182/842/842 183/843/843
f 181/844/844 184/845/845 124/846/846
f 181/847/847 124/848/848 152/849/849
f 146/850/850 134/851/851 183/852/852
f 162/853/853 124/854/854 184/855/855
f 184/856/856 181/857/857 178/858/858
f 184/859/859 178/860/860 179/861/861
f 152/862/862 157/863/863 181/864/864
f 183/865/865 134/866/866 131/867/867
f 183/868/868 131/869/869 175/870/870
f 167/871/871 168/872/872 177/873/873
f 167/874/874 177/875/875 178/876/876
f 174/877/877 139/878/878 129/879/879
f 174/880/880 129/881/881 182/882/882
