v -1479.183105 -360.066498 1311.686279
v -1472.602417 -380.203400 1303.708252
v -1458.489258 -361.422791 1284.124756
v -1523.992554 -311.646027 1293.744385
v -1492.942871 -282.959656 1273.320435
v -1511.760742 -284.074829 1281.239502
v -1457.843872 -312.355469 1238.974365
v -1482.781372 -325.275269 1239.080933
v -1473.917236 -291.341736 1253.934692
v -1494.525391 -390.732269 1266.463257
v -1513.975586 -356.546509 1248.397461
v -1498.129272 -353.991486 1243.471191
v -1504.047607 -394.365814 1305.587280
v -1489.676270 -406.722534 1289.937378
v -1483.812378 -396.123169 1303.650635
v -1498.114380 -398.860413 1279.344238
v -1512.485718 -386.503632 1294.994263
v -1517.564697 -364.674591 1261.278564
v -1516.648560 -326.364899 1305.034912
v -1491.576294 -337.616730 1314.440918
v -1476.408325 -303.012207 1296.571167
v -1504.286865 -384.120422 1312.817871
v -1484.051636 -385.877747 1310.881470
v -1490.632568 -365.740845 1318.859497
v -1526.161133 -350.678741 1265.373657
v -1521.082031 -372.507721 1299.089355
v -1532.500488 -342.876434 1295.725220
v -1461.152954 -307.214844 1290.519287
v -1476.320557 -341.819336 1308.388794
v -1455.626709 -343.175568 1280.827148
v -1451.825317 -302.822052 1247.912354
v -1467.898804 -281.808319 1262.872559
v -1458.708252 -287.141907 1274.832886
v -1448.276611 -336.867523 1265.897339
v -1446.919678 -316.586823 1248.668701
v -1453.802612 -300.906738 1275.589111
v -1501.183594 -355.277954 1318.383545
v -1526.256104 -344.026154 1308.977417
v -1514.837769 -373.657440 1312.341797
v -1474.415894 -289.699493 1286.627930
v -1483.606689 -284.365845 1274.667480
v -1514.656372 -313.052185 1295.091675
v -1484.987061 -355.593353 1247.536499
v -1461.406128 -362.954254 1264.658936
v -1481.382935 -392.334259 1270.528687
v -1532.229370 -323.808716 1290.435547
v -1519.997681 -296.237518 1277.930420
v -1525.889893 -331.610992 1260.083984
v -1452.937988 -326.120087 1239.730591
v -1454.294922 -346.400757 1256.959229
v -1477.875732 -339.039825 1239.837158
v -1502.648682 -330.805298 1243.398315
v -1518.494873 -333.360413 1248.324585
v -1512.602417 -297.986969 1266.170776
v -1494.411987 -318.642273 1246.707275
v -1504.365601 -285.823883 1269.480103
v -1485.547852 -284.708710 1261.561157
v -1478.227051 -401.048157 1282.764038
v -1458.250244 -371.668304 1276.894287
v -1472.363281 -390.448853 1296.477539
vt 0.000000 0.000000
vt 0.000000 0.000000
vt 0.000000 0.000000
vt 0.000000 0.000000
vt 0.000000 0.000000
vt 0.000000 0.000000
vt 0.000000 0.000000
vt 0.000000 0.000000
vt 0.000000 0.000000
vt 0.000000 0.000000
vt 0.000000 0.000000
vt 0.000000 0.000000
vt 0.000000 0.000000
vt 0.000000 0.000000
vt 0.000000 0.000000
vt 0.000000 0.000000
vt 0.000000 0.000000
vt 0.000000 0.000000
vt 0.000000 0.000000
vt 0.000000 0.000000
vt 0.000000 0.000000
vt 0.000000 0.000000
vt 0.000000 0.000000
vt 0.000000 0.000000
vt 0.000000 0.000000
vt 0.000000 0.000000
vt 0.000000 0.000000
vt 0.000000 0.000000
vt 0.000000 0.000000
vt 0.000000 0.000000
vt 0.000000 0.000000
vt 0.000000 0.000000
vt 0.000000 0.000000
vt 0.000000 0.000000
vt 0.000000 0.000000
vt 0.000000 0.000000
vt 0.000000 0.000000
vt 0.000000 0.000000
vt 0.000000 0.000000
vt 0.000000 0.000000
vt 0.000000 0.000000
vt 0.000000 0.000000
vt 0.000000 0.000000
vt 0.000000 0.000000
vt 0.000000 0.000000
vt 0.000000 0.000000
vt 0.000000 0.000000
vt 0.000000 0.000000
vt 0.000000 0.000000
vt 0.000000 0.000000
vt 0.000000 0.000000
vt 0.000000 0.000000
vt 0.000000 0.000000
vt 0.000000 0.000000
vt 0.000000 0.000000
vt 0.000000 0.000000
vt 0.000000 0.000000
vt 0.000000 0.000000
vt 0.000000 0.000000
vt 0.000000 0.000000
vt 0.000000 0.000000
vt 0.000000 0.000000
vt 0.000000 0.000000
vt 0.000000 0.000000
vt 0.000000 0.000000
vt 0.000000 0.000000
vt 0.000000 0.000000
vt 0.000000 0.000000
vt 0.000000 0.000000
vt 0.000000 0.000000
vt 0.000000 0.000000
vt 0.000000 0.000000
vt 0.000000 0.000000
vt 0.000000 0.000000
vt 0.000000 0.000000
vt 0.000000 0.000000
vt 0.000000 0.000000
vt 0.000000 0.000000
vt 0.000000 0.000000
vt 0.000000 0.000000
vt 0.000000 0.000000
vt 0.000000 0.000000
vt 0.000000 0.000000
vt 0.000000 0.000000
vt 0.000000 0.000000
vt 0.000000 0.000000
vt 0.000000 0.000000
vt 0.000000 0.000000
vt 0.000000 0.000000
vt 0.000000 0.000000
vt 0.000000 0.000000
vt 0.000000 0.000000
vt 0.000000 0.000000
vt 0.000000 0.000000
vt 0.000000 0.000000
vt 0.000000 0.000000
vt 0.000000 0.000000
vt 0.000000 0.000000
vt 0.000000 0.000000
vt 0.000000 0.000000
vt 0.000000 0.000000
vt 0.000000 0.000000
vt 0.000000 0.000000
vt 0.000000 0.000000
vt 0.000000 0.000000
vt 0.000000 0.000000
vt 0.000000 0.000000
vt 0.000000 0.000000
vt 0.000000 0.000000
vt 0.000000 0.000000
vt 0.000000 0.000000
vt 0.000000 0.000000
vt 0.000000 0.000000
vt 0.000000 0.000000
vt 0.000000 0.000000
vt 0.000000 0.000000
vt 0.000000 0.000000
vt 0.000000 0.000000
vt 0.000000 0.000000
vt 0.000000 0.000000
vt 0.000000 0.000000
vt 0.000000 0.000000
vt 0.000000 0.000000
vt 0.000000 0.000000
vt 0.000000 0.000000
vt 0.000000 0.000000
vt 0.000000 0.000000
vt 0.000000 0.000000
vt 0.000000 0.000000
vt 0.000000 0.000000
vt 0.000000 0.000000
vt 0.000000 0.000000
vt 0.000000 0.000000
vt 0.000000 0.000000
vt 0.000000 0.000000
vt 0.000000 0.000000
vt 0.000000 0.000000
vt 0.000000 0.000000
vt 0.000000 0.000000
vt 0.000000 0.000000
vt 0.000000 0.000000
vt 0.000000 0.000000
vt 0.000000 0.000000
vt 0.000000 0.000000
vt 0.000000 0.000000
vt 0.000000 0.000000
vt 0.000000 0.000000
vt 0.000000 0.000000
vt 0.000000 0.000000
vt 0.000000 0.000000
vt 0.000000 0.000000
vt 0.000000 0.000000
vt 0.000000 0.000000
vt 0.000000 0.000000
vt 0.000000 0.000000
vt 0.000000 0.000000
vt 0.000000 0.000000
vt 0.000000 0.000000
vt 0.000000 0.000000
vt 0.000000 0.000000
vt 0.000000 0.000000
vt 0.000000 0.000000
vt 0.000000 0.000000
vt 0.000000 0.000000
vt 0.000000 0.000000
vt 0.000000 0.000000
vt 0.000000 0.000000
vt 0.000000 0.000000
vt 0.000000 0.000000
vt 0.000000 0.000000
vt 0.000000 0.000000
vt 0.000000 0.000000
vt 0.000000 0.000000
vt 0.000000 0.000000
vt 0.000000 0.000000
vt 0.000000 0.000000
vt 0.000000 0.000000
vt 0.000000 0.000000
vt 0.000000 0.000000
vt 0.000000 0.000000
vt 0.000000 0.000000
vt 0.000000 0.000000
vt 0.000000 0.000000
vt 0.000000 0.000000
vt 0.000000 0.000000
vt 0.000000 0.000000
vt 0.000000 0.000000
vt 0.000000 0.000000
vt 0.000000 0.000000
vt 0.000000 0.000000
vt 0.000000 0.000000
vt 0.000000 0.000000
vt 0.000000 0.000000
vt 0.000000 0.000000
vt 0.000000 0.000000
vt 0.000000 0.000000
vt 0.000000 0.000000
vt 0.000000 0.000000
vt 0.000000 0.000000
vt 0.000000 0.000000
vt 0.000000 0.000000
vt 0.000000 0.000000
vt 0.000000 0.000000
vt 0.000000 0.000000
vt 0.000000 0.000000
vt 0.000000 0.000000
vt 0.000000 0.000000
vt 0.000000 0.000000
vt 0.000000 0.000000
vt 0.000000 0.000000
vt 0.000000 0.000000
vt 0.000000 0.000000
vt 0.000000 0.000000
vt 0.000000 0.000000
vt 0.000000 0.000000
vt 0.000000 0.000000
vt 0.000000 0.000000
vt 0.000000 0.000000
vt 0.000000 0.000000
vt 0.000000 0.000000
vt 0.000000 0.000000
vt 0.000000 0.000000
vt 0.000000 0.000000
vt 0.000000 0.000000
vt 0.000000 0.000000
vt 0.000000 0.000000
vt 0.000000 0.000000
vt 0.000000 0.000000
vt 0.000000 0.000000
vt 0.000000 0.000000
vt 0.000000 0.000000
vt 0.000000 0.000000
vt 0.000000 0.000000
vt 0.000000 0.000000
vt 0.000000 0.000000
vt 0.000000 0.000000
vt 0.000000 0.000000
vt 0.000000 0.000000
vt 0.000000 0.000000
vt 0.000000 0.000000
vt 0.000000 0.000000
vt 0.000000 0.000000
vt 0.000000 0.000000
vt 0.000000 0.000000
vt 0.000000 0.000000
vt 0.000000 0.000000
vt 0.000000 0.000000
vt 0.000000 0.000000
vt 0.000000 0.000000
vt 0.000000 0.000000
vt 0.000000 0.000000
vt 0.000000 0.000000
vt 0.000000 0.000000
vt 0.000000 0.000000
vt 0.000000 0.000000
vt 0.000000 0.000000
vt 0.000000 0.000000
vt 0.000000 0.000000
vt 0.000000 0.000000
vt 0.000000 0.000000
vt 0.000000 0.000000
vt 0.000000 0.000000
vt 0.000000 0.000000
vt 0.000000 0.000000
vt 0.000000 0.000000
vt 0.000000 0.000000
vt 0.000000 0.000000
vt 0.000000 0.000000
vt 0.000000 0.000000
vt 0.000000 0.000000
vt 0.000000 0.000000
vt 0.000000 0.000000
vt 0.000000 0.000000
vt 0.000000 0.000000
vt 0.000000 0.000000
vt 0.000000 0.000000
vt 0.000000 0.000000
vt 0.000000 0.000000
vt 0.000000 0.000000
vt 0.000000 0.000000
vt 0.000000 0.000000
vt 0.000000 0.000000
vt 0.000000 0.000000
vt 0.000000 0.000000
vt 0.000000 0.000000
vt 0.000000 0.000000
vt 0.000000 0.000000
vt 0.000000 0.000000
vt 0.000000 0.000000
vt 0.000000 0.000000
vt 0.000000 0.000000
vt 0.000000 0.000000
vt 0.000000 0.000000
vt 0.000000 0.000000
vt 0.000000 0.000000
vt 0.000000 0.000000
vt 0.000000 0.000000
vt 0.000000 0.000000
vt 0.000000 0.000000
vt 0.000000 0.000000
vt 0.000000 0.000000
vt 0.000000 0.000000
vt 0.000000 0.000000
vt 0.000000 0.000000
vt 0.000000 0.000000
vt 0.000000 0.000000
vt 0.000000 0.000000
vt 0.000000 0.000000
vt 0.000000 0.000000
vt 0.000000 0.000000
vt 0.000000 0.000000
vt 0.000000 0.000000
vt 0.000000 0.000000
vt 0.000000 0.000000
vt 0.000000 0.000000
vt 0.000000 0.000000
vt 0.000000 0.000000
vt 0.000000 0.000000
vt 0.000000 0.000000
vt 0.000000 0.000000
vt 0.000000 0.000000
vt 0.000000 0.000000
vt 0.000000 0.000000
vt 0.000000 0.000000
vt 0.000000 0.000000
vt 0.000000 0.000000
vt 0.000000 0.000000
vt 0.000000 0.000000
vt 0.000000 0.000000
vt 0.000000 0.000000
vt 0.000000 0.000000
vt 0.000000 0.000000
vt 0.000000 0.000000
vt 0.000000 0.000000
vt 0.000000 0.000000
vt 0.000000 0.000000
vt 0.000000 0.000000
vt 0.000000 0.000000
vt 0.000000 0.000000
vt 0.000000 0.000000
vt 0.000000 0.000000
vt 0.000000 0.000000
vt 0.000000 0.000000
vt 0.000000 0.000000
vt 0.000000 0.000000
vt 0.000000 0.000000
vt 0.000000 0.000000
vt 0.000000 0.000000
vn 0.650248 0.003636 0.759713
vn 0.745439 -0.208704 0.633058
vn 0.898628 -0.140894 0.415470
vn -0.333539 0.508263 0.793990
vn 0.175341 0.437978 0.881721
vn 0.363505 0.246229 0.898463
vn 0.168362 0.344659 -0.923506
vn -0.164511 0.202136 -0.965442
vn -0.124955 0.660798 -0.740089
vn -0.137615 -0.657869 -0.740452
vn -0.506023 -0.384318 -0.772166
vn -0.100031 -0.305238 -0.947008
vn -0.401689 -0.759079 0.512294
vn -0.023171 -0.993421 0.112151
vn 0.328100 -0.687298 0.648053
vn -0.540695 -0.750316 -0.380362
vn -0.794292 -0.607185 -0.020672
vn -0.785297 -0.484101 -0.385947
vn -0.289280 0.459956 0.839499
vn 0.118573 0.318593 0.940446
vn 0.180859 0.487509 0.854181
vn -0.242108 -0.451706 0.858688
vn 0.340750 -0.398710 0.851422
vn 0.204799 -0.135414 0.969392
vn -0.925749 -0.280792 -0.253266
vn -0.890526 -0.436763 0.127288
vn -0.970093 -0.095104 0.223326
vn 0.701523 0.186074 0.687926
vn 0.615391 0.091227 0.782925
vn 0.898936 -0.086029 0.429550
vn 0.702054 0.536680 -0.468075
vn 0.247268 0.929376 -0.274078
vn 0.664598 0.704932 0.247751
vn 0.987555 -0.126926 0.092869
vn 0.974210 0.094251 -0.205017
vn 0.897386 0.244343 0.367417
vn -0.114365 0.068523 0.991073
vn -0.573393 0.098993 0.813278
vn -0.610512 -0.285732 0.738670
vn 0.041131 0.755908 0.653384
vn -0.084586 0.912776 0.399606
vn -0.299809 0.603808 0.738600
vn 0.234709 -0.403661 -0.884291
vn 0.657375 -0.491316 -0.571372
vn 0.337787 -0.607052 -0.719297
vn -0.940618 0.309580 0.139276
vn -0.841486 0.465929 -0.273519
vn -0.912213 0.113304 -0.393738
vn 0.570893 -0.225805 -0.789362
vn 0.720954 -0.487472 -0.492541
vn 0.163355 -0.337292 -0.927119
vn -0.284633 0.209959 -0.935362
vn -0.607287 0.163991 -0.777373
vn -0.537584 0.489381 -0.686666
vn -0.294444 0.334485 -0.895222
vn -0.410058 0.655426 -0.634247
vn -0.241286 0.764181 -0.598171
vn 0.600613 -0.771737 -0.209011
vn 0.895690 -0.444021 -0.024197
vn 0.764370 -0.523013 0.377089
vn 0.764370 -0.523013 0.377089
vn 0.895690 -0.444021 -0.024197
vn 0.898628 -0.140894 0.415470
vn 0.764370 -0.523013 0.377089
vn 0.898628 -0.140894 0.415470
vn 0.745439 -0.208704 0.633058
vn 0.898936 -0.086029 0.429550
vn 0.615391 0.091227 0.782925
vn 0.650248 0.003636 0.759713
vn 0.898936 -0.086029 0.429550
vn 0.650248 0.003636 0.759713
vn 0.898628 -0.140894 0.415470
vn 0.204799 -0.135414 0.969392
vn 0.340750 -0.398710 0.851422
vn 0.745439 -0.208704 0.633058
vn 0.204799 -0.135414 0.969392
vn 0.745439 -0.208704 0.633058
vn 0.650248 0.003636 0.759713
vn -0.241286 0.764181 -0.598171
vn -0.410058 0.655426 -0.634247
vn -0.619803 0.764391 -0.177622
vn -0.241286 0.764181 -0.598171
vn -0.619803 0.764391 -0.177622
vn -0.110134 0.956093 -0.271581
vn -0.841486 0.465929 -0.273519
vn -0.940618 0.309580 0.139276
vn -0.333539 0.508263 0.793990
vn -0.841486 0.465929 -0.273519
vn -0.333539 0.508263 0.793990
vn -0.619803 0.764391 -0.177622
vn -0.299809 0.603808 0.738600
vn -0.084586 0.912776 0.399606
vn 0.175341 0.437978 0.881721
vn -0.299809 0.603808 0.738600
vn 0.175341 0.437978 0.881721
vn -0.333539 0.508263 0.793990
vn -0.294444 0.334485 -0.895222
vn -0.241286 0.764181 -0.598171
vn -0.124955 0.660798 -0.740089
vn -0.294444 0.334485 -0.895222
vn -0.124955 0.660798 -0.740089
vn -0.164511 0.202136 -0.965442
vn 0.247268 0.929376 -0.274078
vn 0.702054 0.536680 -0.468075
vn 0.168362 0.344659 -0.923506
vn 0.247268 0.929376 -0.274078
vn 0.168362 0.344659 -0.923506
vn -0.124955 0.660798 -0.740089
vn 0.570893 -0.225805 -0.789362
vn 0.163355 -0.337292 -0.927119
vn -0.164511 0.202136 -0.965442
vn 0.570893 -0.225805 -0.789362
vn -0.164511 0.202136 -0.965442
vn 0.168362 0.344659 -0.923506
vn -0.607287 0.163991 -0.777373
vn -0.284633 0.209959 -0.935362
vn -0.100031 -0.305238 -0.947008
vn -0.607287 0.163991 -0.777373
vn -0.100031 -0.305238 -0.947008
vn -0.506023 -0.384318 -0.772166
vn 0.234709 -0.403661 -0.884291
vn 0.337787 -0.607052 -0.719297
vn -0.137615 -0.657869 -0.740452
vn 0.234709 -0.403661 -0.884291
vn -0.137615 -0.657869 -0.740452
vn -0.100031 -0.305238 -0.947008
vn -0.540695 -0.750316 -0.380362
vn -0.785297 -0.484101 -0.385947
vn -0.506023 -0.384318 -0.772166
vn -0.540695 -0.750316 -0.380362
vn -0.506023 -0.384318 -0.772166
vn -0.137615 -0.657869 -0.740452
vn 0.600613 -0.771737 -0.209011
vn 0.764370 -0.523013 0.377089
vn 0.328100 -0.687298 0.648053
vn 0.600613 -0.771737 -0.209011
vn 0.328100 -0.687298 0.648053
vn -0.023171 -0.993421 0.112151
vn 0.340750 -0.398710 0.851422
vn -0.242108 -0.451706 0.858688
vn -0.401689 -0.759079 0.512294
vn 0.340750 -0.398710 0.851422
vn -0.401689 -0.759079 0.512294
vn 0.328100 -0.687298 0.648053
vn -0.794292 -0.607185 -0.020672
vn -0.540695 -0.750316 -0.380362
vn -0.023171 -0.993421 0.112151
vn -0.794292 -0.607185 -0.020672
vn -0.023171 -0.993421 0.112151
vn -0.401689 -0.759079 0.512294
vn -0.890526 -0.436763 0.127288
vn -0.925749 -0.280792 -0.253266
vn -0.785297 -0.484101 -0.385947
vn -0.890526 -0.436763 0.127288
vn -0.785297 -0.484101 -0.385947
vn -0.794292 -0.607185 -0.020672
vn 0.615391 0.091227 0.782925
vn 0.701523 0.186074 0.687926
vn 0.180859 0.487509 0.854181
vn 0.615391 0.091227 0.782925
vn 0.180859 0.487509 0.854181
vn 0.118573 0.318593 0.940446
vn 0.041131 0.755908 0.653384
vn -0.299809 0.603808 0.738600
vn -0.289280 0.459956 0.839499
vn 0.041131 0.755908 0.653384
vn -0.289280 0.459956 0.839499
vn 0.180859 0.487509 0.854181
vn -0.573393 0.098993 0.813278
vn -0.114365 0.068523 0.991073
vn 0.118573 0.318593 0.940446
vn -0.573393 0.098993 0.813278
vn 0.118573 0.318593 0.940446
vn -0.289280 0.459956 0.839499
vn -0.114365 0.068523 0.991073
vn -0.610512 -0.285732 0.738670
vn -0.242108 -0.451706 0.858688
vn -0.114365 0.068523 0.991073
vn -0.242108 -0.451706 0.858688
vn 0.204799 -0.135414 0.969392
vn -0.610512 -0.285732 0.738670
vn -0.573393 0.098993 0.813278
vn -0.970093 -0.095104 0.223326
vn -0.610512 -0.285732 0.738670
vn -0.970093 -0.095104 0.223326
vn -0.890526 -0.436763 0.127288
vn -0.940618 0.309580 0.139276
vn -0.912213 0.113304 -0.393738
vn -0.925749 -0.280792 -0.253266
vn -0.940618 0.309580 0.139276
vn -0.925749 -0.280792 -0.253266
vn -0.970093 -0.095104 0.223326
vn 0.987555 -0.126926 0.092869
vn 0.897386 0.244343 0.367417
vn 0.701523 0.186074 0.687926
vn 0.987555 -0.126926 0.092869
vn 0.701523 0.186074 0.687926
vn 0.898936 -0.086029 0.429550
vn -0.084586 0.912776 0.399606
vn 0.041131 0.755908 0.653384
vn 0.664598 0.704932 0.247751
vn -0.084586 0.912776 0.399606
vn 0.664598 0.704932 0.247751
vn 0.247268 0.929376 -0.274078
vn 0.897386 0.244343 0.367417
vn 0.974210 0.094251 -0.205017
vn 0.702054 0.536680 -0.468075
vn 0.897386 0.244343 0.367417
vn 0.702054 0.536680 -0.468075
vn 0.664598 0.704932 0.247751
vn 0.720954 -0.487472 -0.492541
vn 0.570893 -0.225805 -0.789362
vn 0.974210 0.094251 -0.205017
vn 0.720954 -0.487472 -0.492541
vn 0.974210 0.094251 -0.205017
vn 0.987555 -0.126926 0.092869
vn 0.895690 -0.444021 -0.024197
vn 0.600613 -0.771737 -0.209011
vn 0.337787 -0.607052 -0.719297
vn 0.895690 -0.444021 -0.024197
vn 0.337787 -0.607052 -0.719297
vn 0.657375 -0.491316 -0.571372
vn 0.163355 -0.337292 -0.927119
vn 0.720954 -0.487472 -0.492541
vn 0.657375 -0.491316 -0.571372
vn 0.163355 -0.337292 -0.927119
vn 0.657375 -0.491316 -0.571372
vn 0.234709 -0.403661 -0.884291
vn -0.537584 0.489381 -0.686666
vn -0.607287 0.163991 -0.777373
vn -0.912213 0.113304 -0.393738
vn -0.537584 0.489381 -0.686666
vn -0.912213 0.113304 -0.393738
vn -0.841486 0.465929 -0.273519
vn -0.410058 0.655426 -0.634247
vn -0.294444 0.334485 -0.895222
vn -0.284633 0.209959 -0.935362
vn -0.410058 0.655426 -0.634247
vn -0.284633 0.209959 -0.935362
vn -0.537584 0.489381 -0.686666
vn -0.970093 -0.095104 0.223326
vn -0.573393 0.098993 0.813278
vn -0.289280 0.459956 0.839499
vn -0.970093 -0.095104 0.223326
vn -0.289280 0.459956 0.839499
vn -0.299809 0.603808 0.738600
vn -0.970093 -0.095104 0.223326
vn -0.299809 0.603808 0.738600
vn -0.333539 0.508263 0.793990
vn -0.970093 -0.095104 0.223326
vn -0.333539 0.508263 0.793990
vn -0.940618 0.309580 0.139276
vn -0.890526 -0.436763 0.127288
vn -0.794292 -0.607185 -0.020672
vn -0.401689 -0.759079 0.512294
vn -0.890526 -0.436763 0.127288
vn -0.401689 -0.759079 0.512294
vn -0.242108 -0.451706 0.858688
vn -0.890526 -0.436763 0.127288
vn -0.242108 -0.451706 0.858688
vn -0.610512 -0.285732 0.738670
vn 0.204799 -0.135414 0.969392
vn 0.650248 0.003636 0.759713
vn 0.615391 0.091227 0.782925
vn 0.204799 -0.135414 0.969392
vn 0.615391 0.091227 0.782925
vn 0.118573 0.318593 0.940446
vn 0.204799 -0.135414 0.969392
vn 0.118573 0.318593 0.940446
vn -0.114365 0.068523 0.991073
vn -0.537584 0.489381 -0.686666
vn -0.841486 0.465929 -0.273519
vn -0.619803 0.764391 -0.177622
vn -0.537584 0.489381 -0.686666
vn -0.619803 0.764391 -0.177622
vn -0.410058 0.655426 -0.634247
vn -0.023171 -0.993421 0.112151
vn -0.540695 -0.750316 -0.380362
vn -0.137615 -0.657869 -0.740452
vn -0.023171 -0.993421 0.112151
vn -0.137615 -0.657869 -0.740452
vn 0.337787 -0.607052 -0.719297
vn -0.023171 -0.993421 0.112151
vn 0.337787 -0.607052 -0.719297
vn 0.600613 -0.771737 -0.209011
vn -0.110134 0.956093 -0.271581
vn -0.084586 0.912776 0.399606
vn 0.247268 0.929376 -0.274078
vn -0.110134 0.956093 -0.271581
vn 0.247268 0.929376 -0.274078
vn -0.124955 0.660798 -0.740089
vn -0.110134 0.956093 -0.271581
vn -0.124955 0.660798 -0.740089
vn -0.241286 0.764181 -0.598171
vn 0.180859 0.487509 0.854181
vn 0.701523 0.186074 0.687926
vn 0.897386 0.244343 0.367417
vn 0.180859 0.487509 0.854181
vn 0.897386 0.244343 0.367417
vn 0.664598 0.704932 0.247751
vn 0.180859 0.487509 0.854181
vn 0.664598 0.704932 0.247751
vn 0.041131 0.755908 0.653384
vn 0.745439 -0.208704 0.633058
vn 0.340750 -0.398710 0.851422
vn 0.328100 -0.687298 0.648053
vn 0.745439 -0.208704 0.633058
vn 0.328100 -0.687298 0.648053
vn 0.764370 -0.523013 0.377089
vn 0.657375 -0.491316 -0.571372
vn 0.720954 -0.487472 -0.492541
vn 0.987555 -0.126926 0.092869
vn 0.657375 -0.491316 -0.571372
vn 0.987555 -0.126926 0.092869
vn 0.898936 -0.086029 0.429550
vn 0.657375 -0.491316 -0.571372
vn 0.898936 -0.086029 0.429550
vn 0.898628 -0.140894 0.415470
vn 0.657375 -0.491316 -0.571372
vn 0.898628 -0.140894 0.415470
vn 0.895690 -0.444021 -0.024197
vn 0.168362 0.344659 -0.923506
vn 0.702054 0.536680 -0.468075
vn 0.974210 0.094251 -0.205017
vn 0.168362 0.344659 -0.923506
vn 0.974210 0.094251 -0.205017
vn 0.570893 -0.225805 -0.789362
vn -0.506023 -0.384318 -0.772166
vn -0.785297 -0.484101 -0.385947
vn -0.925749 -0.280792 -0.253266
vn -0.506023 -0.384318 -0.772166
vn -0.925749 -0.280792 -0.253266
vn -0.912213 0.113304 -0.393738
vn -0.506023 -0.384318 -0.772166
vn -0.912213 0.113304 -0.393738
vn -0.607287 0.163991 -0.777373
vn -0.164511 0.202136 -0.965442
vn 0.163355 -0.337292 -0.927119
vn 0.234709 -0.403661 -0.884291
vn -0.164511 0.202136 -0.965442
vn 0.234709 -0.403661 -0.884291
vn -0.100031 -0.305238 -0.947008
vn -0.164511 0.202136 -0.965442
vn -0.100031 -0.305238 -0.947008
vn -0.284633 0.209959 -0.935362
vn -0.164511 0.202136 -0.965442
vn -0.284633 0.209959 -0.935362
vn -0.294444 0.334485 -0.895222
f 1/1/1 2/2/2 3/3/3
f 4/4/4 5/5/5 6/6/6
f 7/7/7 8/8/8 9/9/9
f 10/10/10 11/11/11 12/12/12
f 13/13/13 14/14/14 15/15/15
f 16/16/16 17/17/17 18/18/18
f 19/19/19 20/20/20 21/21/21
f 22/22/22 23/23/23 24/24/24
f 25/25/25 26/26/26 27/27/27
f 28/28/28 29/29/29 30/30/30
f 31/31/31 32/32/32 33/33/33
f 34/34/34 35/35/35 36/36/36
f 37/37/37 38/38/38 39/39/39
f 40/40/40 41/41/41 42/42/42
f 43/43/43 44/44/44 45/45/45
f 46/46/46 47/47/47 48/48/48
f 49/49/49 50/50/50 51/51/51
f 52/52/52 53/53/53 54/54/54
f 55/55/55 56/56/56 57/57/57
f 58/58/58 59/59/59 60/60/60
f 60/61/61 59/62/62 3/63/63
f 60/64/64 3/65/65 2/66/66
f 30/67/67 29/68/68 1/69/69
f 30/70/70 1/71/71 3/72/72
f 24/73/73 23/74/74 2/75/75
f 24/76/76 2/77/77 1/78/78
f 57/79/79 56/80/80 6/81/81
f 57/82/82 6/83/83 5/84/84
f 47/85/85 46/86/86 4/87/87
f 47/88/88 4/89/89 6/90/90
f 42/91/91 41/92/92 5/93/93
f 42/94/94 5/95/95 4/96/96
f 55/97/97 57/98/98 9/99/99
f 55/100/100 9/101/101 8/102/102
f 32/103/103 31/104/104 7/105/105
f 32/106/106 7/107/107 9/108/108
f 49/109/109 51/110/110 8/111/111
f 49/112/112 8/113/113 7/114/114
f 53/115/115 52/116/116 12/117/117
f 53/118/118 12/119/119 11/120/120
f 43/121/121 45/122/122 10/123/123
f 43/124/124 10/125/125 12/126/126
f 16/127/127 18/128/128 11/129/129
f 16/130/130 11/131/131 10/132/132
f 58/133/133 60/134/134 15/135/135
f 58/136/136 15/137/137 14/138/138
f 23/139/139 22/140/140 13/141/141
f 23/142/142 13/143/143 15/144/144
f 17/145/145 16/146/146 14/147/147
f 17/148/148 14/149/149 13/150/150
f 26/151/151 25/152/152 18/153/153
f 26/154/154 18/155/155 17/156/156
f 29/157/157 28/158/158 21/159/159
f 29/160/160 21/161/161 20/162/162
f 40/163/163 42/164/164 19/165/165
f 40/166/166 19/167/167 21/168/168
f 38/169/169 37/170/170 20/171/171
f 38/172/172 20/173/173 19/174/174
f 37/175/175 39/176/176 22/177/177
f 37/178/178 22/179/179 24/180/180
f 39/181/181 38/182/182 27/183/183
f 39/184/184 27/185/185 26/186/186
f 46/187/187 48/188/188 25/189/189
f 46/190/190 25/191/191 27/192/192
f 34/193/193 36/194/194 28/195/195
f 34/196/196 28/197/197 30/198/198
f 41/199/199 40/200/200 33/201/201
f 41/202/202 33/203/203 32/204/204
f 36/205/205 35/206/206 31/207/207
f 36/208/208 31/209/209 33/210/210
f 50/211/211 49/212/212 35/213/213
f 50/214/214 35/215/215 34/216/216
f 59/217/217 58/218/218 45/219/219
f 59/220/220 45/221/221 44/222/222
f 51/223/223 50/224/224 44/225/225
f 51/226/226 44/227/227 43/228/228
f 54/229/229 53/230/230 48/231/231
f 54/232/232 48/233/233 47/234/234
f 56/235/235 55/236/236 52/237/237
f 56/238/238 52/239/239 54/240/240
f 27/241/241 38/242/242 19/243/243
f 27/244/244 19/245/245 42/246/246
f 27/247/247 42/248/248 4/249/249
f 27/250/250 4/251/251 46/252/252
f 26/253/253 17/254/254 13/255/255
f 26/256/256 13/257/257 22/258/258
f 26/259/259 22/260/260 39/261/261
f 24/262/262 1/263/263 29/264/264
f 24/265/265 29/266/266 20/267/267
f 24/268/268 20/269/269 37/270/270
f 54/271/271 47/272/272 6/273/273
f 54/274/274 6/275/275 56/276/276
f 14/277/277 16/278/278 10/279/279
f 14/280/280 10/281/281 45/282/282
f 14/283/283 45/284/284 58/285/285
f 5/286/286 41/287/287 32/288/288
f 5/289/289 32/290/290 9/291/291
f 5/292/292 9/293/293 57/294/294
f 21/295/295 28/296/296 36/297/297
f 21/298/298 36/299/299 33/300/300
f 21/301/301 33/302/302 40/303/303
f 2/304/304 23/305/305 15/306/306
f 2/307/307 15/308/308 60/309/309
f 44/310/310 50/311/311 34/312/312
f 44/313/313 34/314/314 30/315/315
f 44/316/316 30/317/317 3/318/318
f 44/319/319 3/320/320 59/321/321
f 7/322/322 31/323/323 35/324/324
f 7/325/325 35/326/326 49/327/327
f 11/328/328 18/329/329 25/330/330
f 11/331/331 25/332/332 48/333/333
f 11/334/334 48/335/335 53/336/336
f 8/337/337 51/338/338 43/339/339
f 8/340/340 43/341/341 12/342/342
f 8/343/343 12/344/344 52/345/345
f 8/346/346 52/347/347 55/348/348
