v -0.633844 0.478657 -0.310355
v -0.002875 -0.169369 -0.125137
v -0.575511 0.180718 0.154203
v -0.677486 0.186286 -0.048012
v -0.513364 0.381712 -0.396545
v -0.452665 0.054151 -0.490816
v -0.498441 -0.284307 -0.162775
v -0.209090 0.638935 -0.347028
v -0.266208 -0.625553 -0.168614
v -0.418391 0.154641 0.124678
v 0.033336 0.567460 -0.128789
v 0.054142 0.376780 0.126938
v -0.161721 0.529552 -0.009856
v -0.380900 -0.264204 0.048959
v -0.017053 -0.138244 0.185962
v 0.207556 0.089819 -0.129588
v -0.089170 -0.146210 -0.494564
v 0.028515 0.087783 -0.410423
v -0.176959 0.143385 -0.604556
vt 0.000000 0.000000
vt 0.000000 0.000000
vt 0.000000 0.000000
vt 0.000000 0.000000
vt 0.000000 0.000000
vt 0.000000 0.000000
vt 0.000000 0.000000
vt 0.000000 0.000000
vt 0.000000 0.000000
vt 0.000000 0.000000
vt 0.000000 0.000000
vt 0.000000 0.000000
vt 0.000000 0.000000
vt 0.000000 0.000000
vt 0.000000 0.000000
vt 0.000000 0.000000
vt 0.000000 0.000000
vt 0.000000 0.000000
vt 0.000000 0.000000
vt 0.000000 0.000000
vt 0.000000 0.000000
vt 0.000000 0.000000
vt 0.000000 0.000000
vt 0.000000 0.000000
vt 0.000000 0.000000
vt 0.000000 0.000000
vt 0.000000 0.000000
vt 0.000000 0.000000
vt 0.000000 0.000000
vt 0.000000 0.000000
vt 0.000000 0.000000
vt 0.000000 0.000000
vt 0.000000 0.000000
vt 0.000000 0.000000
vt 0.000000 0.000000
vt 0.000000 0.000000
vt 0.000000 0.000000
vt 0.000000 0.000000
vt 0.000000 0.000000
vt 0.000000 0.000000
vt 0.000000 0.000000
vt 0.000000 0.000000
vt 0.000000 0.000000
vt 0.000000 0.000000
vt 0.000000 0.000000
vt 0.000000 0.000000
vt 0.000000 0.000000
vt 0.000000 0.000000
vt 0.000000 0.000000
vt 0.000000 0.000000
vt 0.000000 0.000000
vt 0.000000 0.000000
vt 0.000000 0.000000
vt 0.000000 0.000000
vt 0.000000 0.000000
vt 0.000000 0.000000
vt 0.000000 0.000000
vt 0.000000 0.000000
vt 0.000000 0.000000
vt 0.000000 0.000000
vt 0.000000 0.000000
vt 0.000000 0.000000
vt 0.000000 0.000000
vt 0.000000 0.000000
vt 0.000000 0.000000
vt 0.000000 0.000000
vt 0.000000 0.000000
vt 0.000000 0.000000
vt 0.000000 0.000000
vt 0.000000 0.000000
vt 0.000000 0.000000
vt 0.000000 0.000000
vt 0.000000 0.000000
vt 0.000000 0.000000
vt 0.000000 0.000000
vn -0.749025 -0.475865 0.460992
vn -0.749025 -0.475865 0.460992
vn -0.820151 -0.493984 0.288675
vn -0.600067 0.184285 -0.778433
vn -0.464759 0.254072 -0.848202
vn -0.752662 -0.081418 -0.653353
vn -0.305123 0.847615 0.434107
vn -0.401738 0.664718 0.629886
vn -0.211242 0.772786 0.598481
vn -0.030622 0.492786 0.869612
vn -0.164366 0.202319 0.965428
vn 0.438649 -0.365133 0.821136
vn -0.164366 0.202319 0.965428
vn -0.030622 0.492786 0.869612
vn -0.211242 0.772786 0.598481
vn -0.164366 0.202319 0.965428
vn 0.114990 -0.374032 0.920260
vn 0.438649 -0.365133 0.821136
vn -0.336731 0.697120 0.632958
vn -0.164366 0.202319 0.965428
vn -0.211242 0.772786 0.598481
vn -0.336731 0.697120 0.632958
vn -0.211242 0.772786 0.598481
vn -0.401738 0.664718 0.629886
vn -0.164366 0.202319 0.965428
vn 0.156180 -0.162158 0.974327
vn 0.114990 -0.374032 0.920260
vn -0.305123 0.847615 0.434107
vn -0.072932 0.905758 0.417472
vn -0.254557 0.799191 0.544513
vn 0.050401 0.452391 -0.890394
vn -0.464759 0.254072 -0.848202
vn -0.600067 0.184285 -0.778433
vn 0.788219 -0.614424 0.034562
vn 0.895433 -0.430288 0.114240
vn 0.438649 -0.365133 0.821136
vn 0.895433 -0.430288 0.114240
vn 0.788219 -0.614424 0.034562
vn 0.809213 -0.362419 -0.462413
vn 0.895433 -0.430288 0.114240
vn 0.809213 -0.362419 -0.462413
vn 0.751818 -0.080078 -0.654490
vn 0.751818 -0.080078 -0.654490
vn 0.181632 0.257698 -0.949000
vn 0.050401 0.452391 -0.890394
vn 0.181632 0.257698 -0.949000
vn 0.751818 -0.080078 -0.654490
vn 0.809213 -0.362419 -0.462413
vn 0.181632 0.257698 -0.949000
vn -0.675822 -0.037236 -0.736124
vn -0.464759 0.254072 -0.848202
vn -0.211242 0.772786 0.598481
vn -0.072932 0.905758 0.417472
vn -0.305123 0.847615 0.434107
vn 0.735366 -0.643811 0.211528
vn 0.788219 -0.614424 0.034562
vn 0.438649 -0.365133 0.821136
vn 0.735366 -0.643811 0.211528
vn 0.438649 -0.365133 0.821136
vn 0.114990 -0.374032 0.920260
vn -0.464759 0.254072 -0.848202
vn 0.050401 0.452391 -0.890394
vn 0.181632 0.257698 -0.949000
vn -0.749025 -0.475865 0.460992
vn -0.732635 -0.506372 0.454790
vn -0.749025 -0.475865 0.460992
vn 0.438649 -0.365133 0.821136
vn 0.895433 -0.430288 0.114240
vn 0.830767 -0.051324 0.554249
vn -0.072932 0.905758 0.417472
vn -0.211242 0.772786 0.598481
vn -0.030622 0.492786 0.869612
vn 0.809213 -0.362419 -0.462413
vn 0.788219 -0.614424 0.034562
vn 0.735366 -0.643811 0.211528
f 7/1/1 14/2/2 3/3/3
f 1/4/4 5/5/5 6/6/6
f 1/7/7 4/8/8 13/9/9
f 12/10/10 10/11/11 15/12/12
f 10/13/13 12/14/14 13/15/15
f 10/16/16 14/17/17 15/18/18
f 3/19/19 10/20/20 13/21/21
f 3/22/22 13/23/23 4/24/24
f 10/25/25 3/26/26 14/27/27
f 1/28/28 11/29/29 8/30/30
f 8/31/31 5/32/32 1/33/33
f 2/34/34 16/35/35 15/36/36
f 16/37/37 2/38/38 17/39/39
f 16/40/40 17/41/41 18/42/42
f 18/43/43 19/44/44 8/45/45
f 19/46/46 18/47/47 17/48/48
f 19/49/49 6/50/50 5/51/51
f 13/52/52 11/53/53 1/54/54
f 9/55/55 2/56/56 15/57/57
f 9/58/58 15/59/59 14/60/60
f 5/61/61 8/62/62 19/63/63
f 7/64/64 9/65/65 14/66/66
f 15/67/67 16/68/68 12/69/69
f 11/70/70 13/71/71 12/72/72
f 17/73/73 2/74/74 9/75/75
