v -4.250000 9.750000 -29.750000
v -4.500000 9.000000 -29.500000
v -4.500000 9.750000 -29.500000
v 7.750000 9.750000 -49.749981
v 8.000000 9.000000 -50.000000
v 8.000002 9.750000 -49.999981
v 7.750000 9.750000 -29.750000
v 8.000000 9.000000 -29.500000
v 8.000000 9.750000 -29.500000
v -4.250000 9.750000 -49.749992
v -4.499999 9.000000 -49.999992
v -4.499999 9.750000 -49.999992
v 6.750000 9.750000 -50.749981
v 7.000002 9.000000 -50.999981
v 7.000002 9.750000 -50.999981
v -3.250000 9.750000 -50.749992
v -3.499999 9.000000 -50.999992
v -3.499999 9.750000 -50.999992
v -3.250000 9.750000 -28.750000
v -3.500000 9.000000 -28.500000
v -3.500000 9.750000 -28.500000
v 6.750000 9.750000 -28.750000
v 7.000000 9.000000 -28.500000
v 7.000000 9.750000 -28.500000
vt 0.000000 0.000000
vt 0.000000 0.000000
vt 0.000000 0.000000
vt 0.000000 0.000000
vt 0.000000 0.000000
vt 0.000000 0.000000
vt 0.000000 0.000000
vt 0.000000 0.000000
vt 0.000000 0.000000
vt 0.000000 0.000000
vt 0.000000 0.000000
vt 0.000000 0.000000
vt 0.000000 0.000000
vt 0.000000 0.000000
vt 0.000000 0.000000
vt 0.000000 0.000000
vt 0.000000 0.000000
vt 0.000000 0.000000
vt 0.000000 0.000000
vt 0.000000 0.000000
vt 0.000000 0.000000
vt 0.000000 0.000000
vt 0.000000 0.000000
vt 0.000000 0.000000
vt 0.000000 0.000000
vt 0.000000 0.000000
vt 0.000000 0.000000
vt 0.000000 0.000000
vt 0.000000 0.000000
vt 0.000000 0.000000
vt 0.000000 0.000000
vt 0.000000 0.000000
vt 0.000000 0.000000
vt 0.000000 0.000000
vt 0.000000 0.000000
vt 0.000000 0.000000
vt 0.000000 0.000000
vt 0.000000 0.000000
vt 0.000000 0.000000
vt 0.000000 0.000000
vt 0.000000 0.000000
vt 0.000000 0.000000
vt 0.000000 0.000000
vt 0.000000 0.000000
vt 0.000000 0.000000
vt 0.000000 0.000000
vt 0.000000 0.000000
vt 0.000000 0.000000
vt 0.000000 0.000000
vt 0.000000 0.000000
vt 0.000000 0.000000
vt 0.000000 0.000000
vt 0.000000 0.000000
vt 0.000000 0.000000
vt 0.000000 0.000000
vt 0.000000 0.000000
vt 0.000000 0.000000
vt 0.000000 0.000000
vt 0.000000 0.000000
vt 0.000000 0.000000
vt 0.000000 0.000000
vt 0.000000 0.000000
vt 0.000000 0.000000
vt 0.000000 0.000000
vt 0.000000 0.000000
vt 0.000000 0.000000
vt 0.000000 0.000000
vt 0.000000 0.000000
vt 0.000000 0.000000
vt 0.000000 0.000000
vt 0.000000 0.000000
vt 0.000000 0.000000
vt 0.000000 0.000000
vt 0.000000 0.000000
vt 0.000000 0.000000
vt 0.000000 0.000000
vt 0.000000 0.000000
vt 0.000000 0.000000
vt 0.000000 0.000000
vt 0.000000 0.000000
vt 0.000000 0.000000
vt 0.000000 0.000000
vt 0.000000 0.000000
vt 0.000000 0.000000
vt 0.000000 0.000000
vt 0.000000 0.000000
vt 0.000000 0.000000
vt 0.000000 0.000000
vt 0.000000 0.000000
vt 0.000000 0.000000
vt 0.000000 0.000000
vt 0.000000 0.000000
vt 0.000000 0.000000
vt 0.000000 0.000000
vt 0.000000 0.000000
vt 0.000000 0.000000
vn -0.382683 0.000000 0.923880
vn 0.382683 0.000000 0.923880
vn 0.382683 0.000000 0.923880
vn -0.382683 0.000000 0.923880
vn 0.382683 0.000000 0.923880
vn -0.382683 0.000000 0.923880
vn -0.923880 0.000000 0.382683
vn -0.923880 0.000000 -0.382683
vn -0.923880 0.000000 -0.382683
vn -0.923880 0.000000 0.382683
vn -0.923880 0.000000 -0.382683
vn -0.923880 0.000000 0.382683
vn 0.923880 -0.000001 0.382683
vn 0.923879 0.000004 -0.382685
vn 0.923879 0.000004 -0.382685
vn 0.923880 -0.000001 0.382683
vn 0.923879 0.000004 -0.382685
vn 0.923880 -0.000001 0.382683
vn 0.000000 1.000000 0.000000
vn 0.000000 1.000000 0.000000
vn 0.000000 1.000000 0.000000
vn 0.000000 1.000000 0.000000
vn 0.000000 1.000000 0.000000
vn 0.000000 1.000000 0.000000
vn 0.000000 1.000000 0.000000
vn 0.000000 1.000000 0.000000
vn 0.000000 1.000000 0.000000
vn 0.000000 1.000000 0.000000
vn 0.000000 1.000000 0.000000
vn 0.000000 1.000000 0.000000
vn 0.000000 1.000000 0.000000
vn 0.000000 1.000000 0.000000
vn 0.000000 1.000000 0.000000
vn 0.000000 1.000000 0.000000
vn 0.000000 1.000000 0.000000
vn 0.000000 1.000000 0.000000
vn 0.000000 1.000000 0.000000
vn 0.000000 1.000000 0.000000
vn 0.000000 1.000000 0.000000
vn 0.000000 1.000000 0.000000
vn 0.000000 1.000000 0.000000
vn 0.000000 1.000000 0.000000
vn 0.382682 0.000004 -0.923880
vn 0.382682 0.000004 -0.923880
vn -0.382683 0.000000 -0.923880
vn 0.382682 0.000004 -0.923880
vn -0.382683 0.000000 -0.923880
vn -0.382683 0.000000 -0.923880
vn -0.923880 0.000000 -0.382683
vn -0.923880 0.000000 -0.382683
vn -0.382683 0.000000 -0.923880
vn -0.923880 0.000000 -0.382683
vn -0.382683 0.000000 -0.923880
vn -0.382683 0.000000 -0.923880
vn 0.923879 0.000004 -0.382685
vn 0.923879 0.000004 -0.382685
vn 0.382682 0.000004 -0.923880
vn 0.923879 0.000004 -0.382685
vn 0.382682 0.000004 -0.923880
vn 0.382682 0.000004 -0.923880
vn 0.000000 1.000000 0.000000
vn 0.000000 1.000000 0.000000
vn 0.000000 1.000000 0.000000
vn 0.000000 1.000000 0.000000
vn 0.000000 1.000000 0.000000
vn 0.000000 1.000000 0.000000
vn 0.000000 1.000000 0.000000
vn 0.000000 1.000000 0.000000
vn 0.000000 1.000000 0.000000
vn 0.000000 1.000000 0.000000
vn 0.000000 1.000000 0.000000
vn 0.000000 1.000000 0.000000
vn 0.000000 1.000000 0.000000
vn 0.000000 1.000000 0.000000
vn 0.000000 1.000000 0.000000
vn 0.000000 1.000000 0.000000
vn 0.000000 1.000000 0.000000
vn 0.000000 1.000000 0.000000
vn 0.000000 1.000000 0.000000
vn 0.000000 1.000000 0.000000
vn 0.000000 1.000000 0.000000
vn 0.000000 1.000000 0.000000
vn 0.000000 1.000000 0.000000
vn 0.000000 1.000000 0.000000
vn -0.923880 0.000000 0.382683
vn -0.923880 0.000000 0.382683
vn -0.382683 0.000000 0.923880
vn -0.923880 0.000000 0.382683
vn -0.382683 0.000000 0.923880
vn -0.382683 0.000000 0.923880
vn 0.923880 -0.000001 0.382683
vn 0.923880 -0.000001 0.382683
vn 0.382683 0.000000 0.923880
vn 0.923880 -0.000001 0.382683
vn 0.382683 0.000000 0.923880
vn 0.382683 0.000000 0.923880
f 20/1/1 23/2/2 24/3/3
f 20/4/4 24/5/5 21/6/6
f 3/7/7 12/8/8 11/9/9
f 3/10/10 11/11/11 2/12/12
f 8/13/13 5/14/14 6/15/15
f 8/16/16 6/17/17 9/18/18
f 4/19/19 7/20/20 9/21/21
f 4/22/22 9/23/23 6/24/24
f 22/25/25 19/26/26 21/27/27
f 22/28/28 21/29/29 24/30/30
f 1/31/31 10/32/32 12/33/33
f 1/34/34 12/35/35 3/36/36
f 13/37/37 15/38/38 18/39/39
f 13/40/40 18/41/41 16/42/42
f 15/43/43 14/44/44 17/45/45
f 15/46/46 17/47/47 18/48/48
f 11/49/49 12/50/50 18/51/51
f 11/52/52 18/53/53 17/54/54
f 6/55/55 5/56/56 14/57/57
f 6/58/58 14/59/59 15/60/60
f 4/61/61 6/62/62 15/63/63
f 4/64/64 15/65/65 13/66/66
f 12/67/67 10/68/68 16/69/69
f 12/70/70 16/71/71 18/72/72
f 1/73/73 3/74/74 21/75/75
f 1/76/76 21/77/77 19/78/78
f 9/79/79 7/80/80 22/81/81
f 9/82/82 22/83/83 24/84/84
f 3/85/85 2/86/86 20/87/87
f 3/88/88 20/89/89 21/90/90
f 8/91/91 9/92/92 24/93/93
f 8/94/94 24/95/95 23/96/96
