v 14.690094 12.984106 6.208383
v 14.690094 12.984106 1.965743
v -1.926915 12.984106 6.208383
v 2.315725 12.984106 1.965743
v 2.315725 12.984106 -7.226645
v -1.926915 12.984106 -7.226646
v 5.497706 7.984106 -7.226645
v -5.108896 7.984106 -7.226645
v 5.497706 7.984106 -1.216238
v 14.690094 7.984106 -1.216238
v 14.690094 7.984106 9.390365
v -5.108896 7.984106 9.390364
v 5.144153 7.984106 -7.226646
v 2.315725 12.484106 -7.226645
v -1.926915 12.484106 -7.226646
v -4.755343 7.984106 -7.226646
v 14.690094 7.984106 9.036811
v 14.690094 12.484106 6.208383
v 14.690094 12.484106 1.965743
v 14.690094 7.984106 -0.862684
v 14.336540 12.484106 1.965743
v 14.336540 12.484106 6.208383
v 14.336540 7.984106 -0.862684
v 14.336540 7.984106 9.036811
v -1.926915 12.484106 -6.873093
v 2.315725 12.484106 -6.873092
v -4.755343 7.984106 -6.873093
v 5.144153 7.984106 -6.873093
v -4.755342 7.984106 9.036813
v 5.144151 7.984106 -0.862680
vt 0.000000 0.000000
vt 0.000000 0.000000
vt 0.000000 0.000000
vt 0.000000 0.000000
vt 0.000000 0.000000
vt 0.000000 0.000000
vt 0.000000 0.000000
vt 0.000000 0.000000
vt 0.000000 0.000000
vt 0.000000 0.000000
vt 0.000000 0.000000
vt 0.000000 0.000000
vt 0.000000 0.000000
vt 0.000000 0.000000
vt 0.000000 0.000000
vt 0.000000 0.000000
vt 0.000000 0.000000
vt 0.000000 0.000000
vt 0.000000 0.000000
vt 0.000000 0.000000
vt 0.000000 0.000000
vt 0.000000 0.000000
vt 0.000000 0.000000
vt 0.000000 0.000000
vt 0.000000 0.000000
vt 0.000000 0.000000
vt 0.000000 0.000000
vt 0.000000 0.000000
vt 0.000000 0.000000
vt 0.000000 0.000000
vt 0.000000 0.000000
vt 0.000000 0.000000
vt 0.000000 0.000000
vt 0.000000 0.000000
vt 0.000000 0.000000
vt 0.000000 0.000000
vt 0.000000 0.000000
vt 0.000000 0.000000
vt 0.000000 0.000000
vt 0.000000 0.000000
vt 0.000000 0.000000
vt 0.000000 0.000000
vt 0.000000 0.000000
vt 0.000000 0.000000
vt 0.000000 0.000000
vt 0.000000 0.000000
vt 0.000000 0.000000
vt 0.000000 0.000000
vt 0.000000 0.000000
vt 0.000000 0.000000
vt 0.000000 0.000000
vt 0.000000 0.000000
vt 0.000000 0.000000
vt 0.000000 0.000000
vt 0.000000 0.000000
vt 0.000000 0.000000
vt 0.000000 0.000000
vt 0.000000 0.000000
vt 0.000000 0.000000
vt 0.000000 0.000000
vt 0.000000 0.000000
vt 0.000000 0.000000
vt 0.000000 0.000000
vt 0.000000 0.000000
vt 0.000000 0.000000
vt 0.000000 0.000000
vt 0.000000 0.000000
vt 0.000000 0.000000
vt 0.000000 0.000000
vt 0.000000 0.000000
vt 0.000000 0.000000
vt 0.000000 0.000000
vt 0.000000 0.000000
vt 0.000000 0.000000
vt 0.000000 0.000000
vt 0.000000 0.000000
vt 0.000000 0.000000
vt 0.000000 0.000000
vt 0.000000 0.000000
vt 0.000000 0.000000
vt 0.000000 0.000000
vt 0.000000 0.000000
vt 0.000000 0.000000
vt 0.000000 0.000000
vt 0.000000 0.000000
vt 0.000000 0.000000
vt 0.000000 0.000000
vt 0.000000 0.000000
vt 0.000000 0.000000
vt 0.000000 0.000000
vt 0.000000 0.000000
vt 0.000000 0.000000
vt 0.000000 0.000000
vt 0.000000 0.000000
vt 0.000000 0.000000
vt 0.000000 0.000000
vt 0.000000 0.000000
vt 0.000000 0.000000
vt 0.000000 0.000000
vt 0.000000 0.000000
vt 0.000000 0.000000
vt 0.000000 0.000000
vt 0.000000 0.000000
vt 0.000000 0.000000
vt 0.000000 0.000000
vt 0.000000 0.000000
vt 0.000000 0.000000
vt 0.000000 0.000000
vt 0.000000 0.000000
vt 0.000000 0.000000
vt 0.000000 0.000000
vt 0.000000 0.000000
vt 0.000000 0.000000
vt 0.000000 0.000000
vt 0.000000 0.000000
vt 0.000000 0.000000
vt 0.000000 0.000000
vt 0.000000 0.000000
vt 0.000000 0.000000
vt 0.000000 0.000000
vt 0.000000 0.000000
vt 0.000000 0.000000
vt 0.000000 0.000000
vt 0.000000 0.000000
vt 0.000000 0.000000
vt 0.000000 0.000000
vt 0.000000 0.000000
vt 0.000000 0.000000
vt 0.000000 0.000000
vt 0.000000 0.000000
vt 0.000000 0.000000
vt 0.000000 0.000000
vt 0.000000 0.000000
vt 0.000000 0.000000
vt 0.000000 0.000000
vt 0.000000 0.000000
vt 0.000000 0.000000
vt 0.000000 0.000000
vt 0.000000 0.000000
vt 0.000000 0.000000
vt 0.000000 0.000000
vt 0.000000 0.000000
vt 0.000000 0.000000
vt 0.000000 0.000000
vt 0.000000 0.000000
vt 0.000000 0.000000
vt 0.000000 0.000000
vt 0.000000 0.000000
vt 0.000000 0.000000
vt 0.000000 0.000000
vt 0.000000 0.000000
vt 0.000000 0.000000
vt 0.000000 0.000000
vt 0.000000 0.000000
vt 0.000000 0.000000
vt 0.000000 0.000000
vn -0.843649 0.536895 0.000000
vn -0.843649 0.536895 0.000000
vn -0.843649 0.536895 0.000000
vn -0.843649 0.536895 0.000000
vn -0.843649 0.536895 0.000000
vn -0.843649 0.536895 0.000000
vn 1.000000 0.000000 0.000000
vn 1.000000 0.000000 0.000000
vn 1.000000 0.000000 0.000000
vn 1.000000 0.000000 0.000000
vn 1.000000 0.000000 0.000000
vn 1.000000 0.000000 0.000000
vn 0.000000 0.000000 -1.000000
vn 0.000000 0.000000 -1.000000
vn 0.000000 0.000000 -1.000000
vn 0.000000 0.000000 -1.000000
vn 0.000000 0.000000 -1.000000
vn 0.000000 0.000000 -1.000000
vn 0.000000 1.000000 0.000000
vn 0.000000 1.000000 0.000000
vn 0.000000 1.000000 0.000000
vn 0.000000 1.000000 0.000000
vn 0.000000 1.000000 0.000000
vn 0.000000 1.000000 0.000000
vn 0.000000 1.000000 0.000000
vn 0.000000 1.000000 0.000000
vn 0.000000 1.000000 0.000000
vn 0.000000 1.000000 0.000000
vn 0.000000 1.000000 0.000000
vn 0.000000 1.000000 0.000000
vn -0.000000 0.536895 0.843649
vn -0.000000 0.536895 0.843649
vn -0.000000 0.536895 0.843649
vn -0.000000 0.536895 0.843649
vn -0.000000 0.536895 0.843649
vn -0.000000 0.536895 0.843649
vn 0.843649 0.536895 -0.000000
vn 0.843649 0.536895 -0.000000
vn 0.843649 0.536895 -0.000000
vn 0.843649 0.536895 -0.000000
vn 0.843649 0.536895 -0.000000
vn 0.843649 0.536895 -0.000000
vn 0.000000 0.536895 -0.843649
vn 0.000000 0.536895 -0.843649
vn 0.000000 0.536895 -0.843649
vn 0.000000 0.536895 -0.843649
vn 0.000000 0.536895 -0.843649
vn 0.000000 0.536895 -0.843649
vn 0.000000 0.000000 -1.000000
vn 0.000001 0.000000 -1.000000
vn 0.000001 0.000000 -1.000000
vn 0.000000 0.000000 -1.000000
vn 0.000001 0.000000 -1.000000
vn 0.000000 0.000000 -1.000000
vn -0.000001 0.000000 -1.000000
vn -0.000000 0.000000 -1.000000
vn -0.000000 0.000000 -1.000000
vn -0.000001 0.000000 -1.000000
vn -0.000000 0.000000 -1.000000
vn -0.000001 0.000000 -1.000000
vn -0.000000 0.000000 -1.000000
vn 0.000000 0.000000 -1.000000
vn 0.000000 0.000000 -1.000000
vn -0.000000 0.000000 -1.000000
vn 0.000000 0.000000 -1.000000
vn -0.000000 0.000000 -1.000000
vn -0.846649 -0.532152 0.000000
vn -0.846649 -0.532152 0.000000
vn -0.846649 -0.532152 0.000000
vn -0.846649 -0.532152 0.000000
vn -0.846649 -0.532152 0.000000
vn -0.846649 -0.532152 0.000000
vn 1.000000 0.000000 0.000000
vn 1.000000 0.000000 0.000000
vn 1.000000 0.000000 0.000000
vn 1.000000 0.000000 0.000000
vn 1.000000 0.000000 0.000000
vn 1.000000 0.000000 0.000000
vn 1.000000 0.000000 0.000000
vn 1.000000 0.000000 0.000000
vn 1.000000 0.000000 0.000000
vn 1.000000 0.000000 0.000000
vn 1.000000 0.000000 0.000000
vn 1.000000 0.000000 0.000000
vn 1.000000 0.000000 0.000000
vn 1.000000 0.000000 0.000000
vn 1.000000 0.000000 0.000000
vn 1.000000 0.000000 0.000000
vn 1.000000 0.000000 0.000000
vn 1.000000 0.000000 0.000000
vn 0.846649 -0.532152 0.000000
vn 0.846649 -0.532152 0.000000
vn 0.846649 -0.532152 0.000000
vn 0.846649 -0.532152 0.000000
vn 0.846649 -0.532152 0.000000
vn 0.846649 -0.532152 0.000000
vn 0.000000 -1.000000 0.000000
vn 0.000000 -1.000000 0.000000
vn 0.000000 -1.000000 0.000000
vn 0.000000 -1.000000 0.000000
vn 0.000000 -1.000000 0.000000
vn 0.000000 -1.000000 0.000000
vn 0.000000 -0.532152 0.846649
vn 0.000000 -0.532152 0.846649
vn 0.000000 -0.532152 0.846649
vn 0.000000 -0.532152 0.846649
vn 0.000000 -0.532152 0.846649
vn 0.000000 -0.532152 0.846649
vn 0.000000 -1.000000 0.000000
vn 0.000000 -1.000000 0.000000
vn 0.000000 -1.000000 0.000000
vn 0.000000 -1.000000 0.000000
vn 0.000000 -1.000000 0.000000
vn 0.000000 -1.000000 0.000000
vn 0.000001 -0.532152 -0.846649
vn 0.000001 -0.532152 -0.846649
vn 0.000001 -0.532152 -0.846649
vn 0.000001 -0.532152 -0.846649
vn 0.000001 -0.532152 -0.846649
vn 0.000001 -0.532152 -0.846649
vn 0.000000 -1.000000 0.000000
vn 0.000000 -1.000000 0.000000
vn 0.000000 -1.000000 0.000000
vn 0.000000 -1.000000 0.000000
vn 0.000000 -1.000000 0.000000
vn 0.000000 -1.000000 0.000000
vn 0.000000 -1.000000 0.000000
vn 0.000000 -1.000000 0.000000
vn 0.000000 -1.000000 0.000000
vn 0.000000 -1.000000 0.000000
vn 0.000000 -1.000000 0.000000
vn 0.000000 -1.000000 0.000000
vn 0.000000 -1.000000 0.000000
vn 0.000000 -1.000000 0.000000
vn 0.000000 -1.000000 0.000000
vn 0.000000 -1.000000 0.000000
vn 0.000000 -1.000000 0.000000
vn 0.000000 -1.000000 0.000000
vn 0.000000 -1.000000 0.000000
vn 0.000000 -1.000000 0.000000
vn 0.000000 -1.000000 0.000000
vn 0.000000 -1.000000 0.000000
vn 0.000000 -1.000000 0.000000
vn 0.000000 -1.000000 0.000000
vn 0.000000 -1.000000 0.000000
vn 0.000000 -1.000000 0.000000
vn 0.000000 -1.000000 0.000000
vn 0.000000 -1.000000 0.000000
vn 0.000000 -1.000000 0.000000
vn 0.000000 -1.000000 0.000000
vn 0.000000 -1.000000 0.000000
vn 0.000000 -1.000000 0.000000
vn 0.000000 -1.000000 0.000000
vn 0.000000 -1.000000 0.000000
vn 0.000000 -1.000000 0.000000
vn 0.000000 -1.000000 0.000000
f 6/1/1 8/2/2 12/3/3
f 6/4/4 12/5/5 3/6/6
f 23/7/7 21/8/8 22/9/9
f 23/10/10 22/11/11 24/12/12
f 27/13/13 25/14/14 26/15/15
f 27/16/16 26/17/17 28/18/18
f 5/19/19 6/20/20 3/21/21
f 5/22/22 3/23/23 4/24/24
f 4/25/25 3/26/26 1/27/27
f 4/28/28 1/29/29 2/30/30
f 3/31/31 12/32/32 11/33/33
f 3/34/34 11/35/35 1/36/36
f 4/37/37 9/38/38 7/39/39
f 4/40/40 7/41/41 5/42/42
f 2/43/43 10/44/44 9/45/45
f 2/46/46 9/47/47 4/48/48
f 5/49/49 7/50/50 13/51/51
f 5/52/52 13/53/53 14/54/54
f 8/55/55 6/56/56 15/57/57
f 8/58/58 15/59/59 16/60/60
f 6/61/61 5/62/62 14/63/63
f 6/64/64 14/65/65 15/66/66
f 14/67/67 13/68/68 28/69/69
f 14/70/70 28/71/71 26/72/72
f 1/73/73 11/74/74 17/75/75
f 1/76/76 17/77/77 18/78/78
f 2/79/79 1/80/80 18/81/81
f 2/82/82 18/83/83 19/84/84
f 10/85/85 2/86/86 19/87/87
f 10/88/88 19/89/89 20/90/90
f 16/91/91 15/92/92 25/93/93
f 16/94/94 25/95/95 27/96/96
f 19/97/97 18/98/98 22/99/99
f 19/100/100 22/101/101 21/102/102
f 20/103/103 19/104/104 21/105/105
f 20/106/106 21/107/107 23/108/108
f 15/109/109 14/110/110 26/111/111
f 15/112/112 26/113/113 25/114/114
f 18/115/115 17/116/116 24/117/117
f 18/118/118 24/119/119 22/120/120
f 17/121/121 11/122/122 24/123/123
f 24/124/124 11/125/125 12/126/126
f 24/127/127 12/128/128 29/129/129
f 29/130/130 12/131/131 8/132/132
f 29/133/133 8/134/134 27/135/135
f 27/136/136 8/137/137 16/138/138
f 28/139/139 13/140/140 7/141/141
f 28/142/142 7/143/143 9/144/144
f 28/145/145 9/146/146 30/147/147
f 30/148/148 9/149/149 10/150/150
f 30/151/151 10/152/152 23/153/153
f 23/154/154 10/155/155 20/156/156
