v -0.000002 -0.017765 0.033432
v -0.000002 0.017765 -0.033435
v -0.018702 -0.017765 -0.033435
v 0.018702 -0.017765 -0.033435
v 0.000000 -0.017765 -0.033435
vt 0.000000 0.000000
vt 0.000000 0.000000
vt 0.000000 0.000000
vt 0.000000 0.000000
vt 0.000000 0.000000
vt 0.000000 0.000000
vt 0.000000 0.000000
vt 0.000000 0.000000
vt 0.000000 0.000000
vt 0.000000 0.000000
vt 0.000000 0.000000
vt 0.000000 0.000000
vt 0.000000 0.000000
vt 0.000000 0.000000
vt 0.000000 0.000000
vt 0.000000 0.000000
vt 0.000000 0.000000
vt 0.000000 0.000000
vn -0.859009 0.452100 0.240227
vn -0.859009 0.452100 0.240227
vn -0.859009 0.452100 0.240227
vn 0.858968 0.452161 0.240259
vn 0.858968 0.452161 0.240259
vn 0.858968 0.452161 0.240259
vn 0.000000 0.000000 -1.000000
vn 0.000000 0.000000 -1.000000
vn 0.000000 0.000000 -1.000000
vn 0.000000 -1.000000 -0.000000
vn 0.000000 -1.000000 -0.000000
vn 0.000000 -1.000000 -0.000000
vn -0.000000 -0.000000 -1.000000
vn -0.000000 -0.000000 -1.000000
vn -0.000000 -0.000000 -1.000000
vn 0.000000 -1.000000 0.000000
vn 0.000000 -1.000000 0.000000
vn 0.000000 -1.000000 0.000000
f 2/1/1 3/2/2 1/3/3
f 4/4/4 2/5/5 1/6/6
f 3/7/7 2/8/8 5/9/9
f 4/10/10 1/11/11 5/12/12
f 5/13/13 2/14/14 4/15/15
f 5/16/16 1/17/17 3/18/18
