v -1.170001 -0.237250 -0.237250
v -1.170001 -0.237250 0.237250
v -1.170001 0.237250 0.237250
v -1.170001 0.237250 -0.237250
v -0.237250 -0.237250 1.170001
v 0.237250 -0.237250 1.170001
v 0.237250 0.237250 1.170001
v -0.237250 0.237250 1.170001
v 1.170001 -0.237250 0.237250
v 1.170001 -0.237250 -0.237250
v 1.170001 0.237250 -0.237250
v 1.170001 0.237250 0.237250
v 0.237250 -0.237250 -1.170001
v -0.237250 -0.237250 -1.170001
v -0.237250 0.237250 -1.170001
v 0.237250 0.237250 -1.170001
v 0.237250 -0.700189 -0.237250
v 0.237250 -0.700189 0.237250
v -0.237250 -0.700189 0.237250
v -0.237250 -0.700189 -0.237250
v -0.237250 0.810691 -0.237250
v -0.237250 0.810691 0.237250
v 0.237250 0.810691 0.237250
v 0.237250 0.810691 -0.237250
v -0.325000 0.650001 0.325000
v -0.325000 0.650001 -0.325000
v -0.650001 0.325000 -0.325000
v -0.650001 0.325000 0.325000
v -0.325000 0.325000 -0.650001
v -0.325000 -0.325000 -0.650001
v -0.650001 -0.325000 -0.325000
v -0.325000 -0.501321 -0.325000
v -0.325000 -0.501321 0.325000
v -0.650001 -0.325000 0.325000
v -0.325000 -0.325000 0.650001
v -0.325000 0.325000 0.650001
v 0.325000 0.650001 0.325000
v 0.325000 0.325000 0.650001
v 0.325000 -0.501321 0.325000
v 0.325000 -0.325000 0.650001
v 0.650001 -0.325000 0.325000
v 0.650001 0.325000 0.325000
v 0.325000 0.650001 -0.325000
v 0.650001 0.325000 -0.325000
v 0.325000 -0.501321 -0.325000
v 0.650001 -0.325000 -0.325000
v 0.325000 -0.325000 -0.650001
v 0.325000 0.325000 -0.650001
vt 0.689453 0.876953
vt 0.689453 0.751953
vt 0.439453 0.751953
vt 0.689453 0.876953
vt 0.439453 0.751953
vt 0.439453 0.876953
vt 0.689453 0.876953
vt 0.689453 0.751953
vt 0.439453 0.751953
vt 0.689453 0.876953
vt 0.439453 0.751953
vt 0.439453 0.876953
vt 0.689453 0.876953
vt 0.689453 0.751953
vt 0.439453 0.751953
vt 0.689453 0.876953
vt 0.439453 0.751953
vt 0.439453 0.876953
vt 0.689453 0.876953
vt 0.689453 0.751953
vt 0.439453 0.751953
vt 0.689453 0.876953
vt 0.439453 0.751953
vt 0.439453 0.876953
vt 0.601389 0.000000
vt 0.601389 0.000000
vt 0.398611 0.000000
vt 0.601389 0.000000
vt 0.398611 0.000000
vt 0.398611 0.000000
vt 0.707031 0.132812
vt 0.710938 0.273438
vt 0.851562 0.277344
vt 0.707031 0.132812
vt 0.851562 0.277344
vt 0.851562 0.136719
vt 0.689453 0.998047
vt 0.251953 0.998047
vt 0.251953 0.689453
vt 0.689453 0.998047
vt 0.251953 0.689453
vt 0.689453 0.689453
vt 0.265625 0.613281
vt 0.500000 0.613281
vt 0.500000 0.710938
vt 0.265625 0.613281
vt 0.500000 0.710938
vt 0.265625 0.709635
vt 0.638889 0.131624
vt 0.361111 0.131624
vt 0.361111 0.248325
vt 0.638889 0.131624
vt 0.361111 0.248325
vt 0.638889 0.248325
vt 0.265625 0.613281
vt 0.500000 0.613281
vt 0.500000 0.710938
vt 0.265625 0.613281
vt 0.500000 0.710938
vt 0.265625 0.709635
vt 0.689453 0.998047
vt 0.251953 0.998047
vt 0.251953 0.689453
vt 0.689453 0.998047
vt 0.251953 0.689453
vt 0.689453 0.689453
vt 0.638889 0.131624
vt 0.361111 0.131624
vt 0.361111 0.248325
vt 0.638889 0.131624
vt 0.361111 0.248325
vt 0.638889 0.248325
vt 0.265625 0.613281
vt 0.500000 0.613281
vt 0.500000 0.710938
vt 0.265625 0.613281
vt 0.500000 0.710938
vt 0.265625 0.709635
vt 0.689453 0.998047
vt 0.251953 0.998047
vt 0.251953 0.689453
vt 0.689453 0.998047
vt 0.251953 0.689453
vt 0.689453 0.689453
vt 0.638889 0.131624
vt 0.361111 0.131624
vt 0.361111 0.248325
vt 0.638889 0.131624
vt 0.361111 0.248325
vt 0.638889 0.248325
vt 0.265625 0.613281
vt 0.500000 0.613281
vt 0.500000 0.710938
vt 0.265625 0.613281
vt 0.500000 0.710938
vt 0.265625 0.709635
vt 0.689453 0.998047
vt 0.251953 0.998047
vt 0.251953 0.689453
vt 0.689453 0.998047
vt 0.251953 0.689453
vt 0.689453 0.689453
vt 0.638889 0.131624
vt 0.361111 0.131624
vt 0.361111 0.248325
vt 0.638889 0.131624
vt 0.361111 0.248325
vt 0.638889 0.248325
vt 0.640625 0.248047
vt 0.361111 0.248325
vt 0.496094 0.128906
vt 0.640625 0.248047
vt 0.361111 0.248325
vt 0.496094 0.128906
vt 0.501953 0.689453
vt 0.876953 0.689453
vt 0.689453 0.998047
vt 0.501953 0.689453
vt 0.876953 0.689453
vt 0.689453 0.998047
vt 0.640625 0.248047
vt 0.361111 0.248325
vt 0.496094 0.128906
vt 0.640625 0.248047
vt 0.361111 0.248325
vt 0.496094 0.128906
vt 0.501953 0.689453
vt 0.876953 0.689453
vt 0.689453 0.998047
vt 0.501953 0.689453
vt 0.876953 0.689453
vt 0.689453 0.998047
vt 0.908203 0.259766
vt 0.736328 0.083984
vt 0.689453 0.189453
vt 0.908203 0.259766
vt 0.689453 0.189453
vt 0.798828 0.298828
vt 0.908203 0.259766
vt 0.736328 0.083984
vt 0.689453 0.189453
vt 0.908203 0.259766
vt 0.689453 0.189453
vt 0.798828 0.298828
vt 0.908203 0.259766
vt 0.736328 0.083984
vt 0.689453 0.189453
vt 0.908203 0.259766
vt 0.689453 0.189453
vt 0.798828 0.298828
vt 0.908203 0.259766
vt 0.736328 0.083984
vt 0.689453 0.189453
vt 0.908203 0.259766
vt 0.689453 0.189453
vt 0.798828 0.298828
vt 0.638889 0.131624
vt 0.361111 0.131624
vt 0.398611 0.000000
vt 0.638889 0.131624
vt 0.398611 0.000000
vt 0.601389 0.000000
vt 0.361111 0.131624
vt 0.638889 0.131624
vt 0.601389 0.000000
vt 0.361111 0.131624
vt 0.601389 0.000000
vt 0.398611 0.000000
vt 0.361111 0.131624
vt 0.638889 0.131624
vt 0.601389 0.000000
vt 0.361111 0.131624
vt 0.601389 0.000000
vt 0.398611 0.000000
vt 0.361111 0.131624
vt 0.638889 0.131624
vt 0.601389 0.000000
vt 0.361111 0.131624
vt 0.601389 0.000000
vt 0.398611 0.000000
vt 0.314453 0.998047
vt 0.939453 0.998047
vt 0.876953 0.689453
vt 0.314453 0.998047
vt 0.876953 0.689453
vt 0.376953 0.689453
vt 0.808594 0.320312
vt 0.667969 0.187500
vt 0.622396 0.296875
vt 0.808594 0.320312
vt 0.622396 0.296875
vt 0.703125 0.372396
vt 0.314453 0.998047
vt 0.939453 0.998047
vt 0.876953 0.689453
vt 0.314453 0.998047
vt 0.876953 0.689453
vt 0.376953 0.689453
vt 0.808594 0.320312
vt 0.667969 0.187500
vt 0.622396 0.296875
vt 0.808594 0.320312
vt 0.622396 0.296875
vt 0.703125 0.372396
vt 0.314453 0.998047
vt 0.939453 0.998047
vt 0.876953 0.689453
vt 0.314453 0.998047
vt 0.876953 0.689453
vt 0.376953 0.689453
vt 0.808594 0.320312
vt 0.667969 0.187500
vt 0.622396 0.296875
vt 0.808594 0.320312
vt 0.622396 0.296875
vt 0.703125 0.372396
vt 0.314453 0.998047
vt 0.939453 0.998047
vt 0.876953 0.689453
vt 0.314453 0.998047
vt 0.876953 0.689453
vt 0.376953 0.689453
vt 0.808594 0.320312
vt 0.667969 0.187500
vt 0.622396 0.296875
vt 0.808594 0.320312
vt 0.622396 0.296875
vt 0.703125 0.372396
vt 0.314453 0.998047
vt 0.939453 0.998047
vt 0.876953 0.689453
vt 0.314453 0.998047
vt 0.876953 0.689453
vt 0.376953 0.689453
vt 0.808594 0.320312
vt 0.667969 0.187500
vt 0.622396 0.296875
vt 0.808594 0.320312
vt 0.622396 0.296875
vt 0.703125 0.372396
vt 0.314453 0.998047
vt 0.939453 0.998047
vt 0.876953 0.689453
vt 0.314453 0.998047
vt 0.876953 0.689453
vt 0.376953 0.689453
vt 0.808594 0.320312
vt 0.667969 0.187500
vt 0.622396 0.296875
vt 0.808594 0.320312
vt 0.622396 0.296875
vt 0.703125 0.372396
vt 0.314453 0.998047
vt 0.939453 0.998047
vt 0.876953 0.689453
vt 0.314453 0.998047
vt 0.876953 0.689453
vt 0.376953 0.689453
vt 0.808594 0.320312
vt 0.667969 0.187500
vt 0.622396 0.296875
vt 0.808594 0.320312
vt 0.622396 0.296875
vt 0.703125 0.372396
vt 0.314453 0.998047
vt 0.939453 0.998047
vt 0.876953 0.689453
vt 0.314453 0.998047
vt 0.876953 0.689453
vt 0.376953 0.689453
vt 0.808594 0.320312
vt 0.667969 0.187500
vt 0.622396 0.296875
vt 0.808594 0.320312
vt 0.622396 0.296875
vt 0.703125 0.372396
vn -1.000000 0.000000 0.000000
vn -1.000000 0.000000 0.000000
vn -1.000000 0.000000 0.000000
vn -1.000000 0.000000 0.000000
vn -1.000000 0.000000 0.000000
vn -1.000000 0.000000 0.000000
vn 0.000000 0.000000 1.000000
vn 0.000000 0.000000 1.000000
vn 0.000000 0.000000 1.000000
vn 0.000000 0.000000 1.000000
vn 0.000000 0.000000 1.000000
vn 0.000000 0.000000 1.000000
vn 1.000000 0.000000 0.000000
vn 1.000000 0.000000 0.000000
vn 1.000000 0.000000 0.000000
vn 1.000000 0.000000 0.000000
vn 1.000000 0.000000 0.000000
vn 1.000000 0.000000 0.000000
vn 0.000000 0.000000 -1.000000
vn 0.000000 0.000000 -1.000000
vn 0.000000 0.000000 -1.000000
vn 0.000000 0.000000 -1.000000
vn 0.000000 0.000000 -1.000000
vn 0.000000 0.000000 -1.000000
vn 0.000000 -1.000000 0.000000
vn 0.000000 -1.000000 0.000000
vn 0.000000 -1.000000 0.000000
vn 0.000000 -1.000000 0.000000
vn 0.000000 -1.000000 0.000000
vn 0.000000 -1.000000 0.000000
vn 0.000000 1.000000 0.000000
vn 0.000000 1.000000 0.000000
vn 0.000000 1.000000 0.000000
vn 0.000000 1.000000 0.000000
vn 0.000000 1.000000 0.000000
vn 0.000000 1.000000 0.000000
vn -0.800532 0.599290 0.000000
vn -0.800532 0.599290 0.000000
vn -0.707107 0.707107 0.000000
vn -0.800532 0.599290 0.000000
vn -0.707107 0.707107 0.000000
vn -0.707107 0.707107 0.000000
vn -0.707107 0.000000 -0.707107
vn -0.707107 0.000000 -0.707107
vn -0.707107 0.000000 -0.707107
vn -0.707107 0.000000 -0.707107
vn -0.707107 0.000000 -0.707107
vn -0.707107 0.000000 -0.707107
vn -0.317701 -0.893382 -0.317701
vn -0.317701 -0.893382 0.317701
vn -0.370343 -0.916954 0.148466
vn -0.317701 -0.893382 -0.317701
vn -0.370343 -0.916954 0.148466
vn -0.370343 -0.916954 -0.148466
vn -0.707107 0.000000 0.707107
vn -0.707107 0.000000 0.707107
vn -0.707107 0.000000 0.707107
vn -0.707107 0.000000 0.707107
vn -0.707107 0.000000 0.707107
vn -0.707107 0.000000 0.707107
vn 0.000000 0.599290 0.800532
vn 0.000000 0.599290 0.800532
vn 0.000000 0.707107 0.707107
vn 0.000000 0.599290 0.800532
vn 0.000000 0.707107 0.707107
vn 0.000000 0.707107 0.707107
vn -0.317701 -0.893382 0.317701
vn 0.317701 -0.893382 0.317701
vn 0.148466 -0.916954 0.370343
vn -0.317701 -0.893382 0.317701
vn 0.148466 -0.916954 0.370343
vn -0.148466 -0.916954 0.370343
vn 0.707107 0.000000 0.707107
vn 0.707107 0.000000 0.707107
vn 0.707107 0.000000 0.707107
vn 0.707107 0.000000 0.707107
vn 0.707107 0.000000 0.707107
vn 0.707107 0.000000 0.707107
vn 0.800532 0.599290 0.000000
vn 0.800532 0.599290 0.000000
vn 0.707107 0.707107 0.000000
vn 0.800532 0.599290 0.000000
vn 0.707107 0.707107 0.000000
vn 0.707107 0.707107 0.000000
vn 0.317701 -0.893382 0.317701
vn 0.317701 -0.893382 -0.317701
vn 0.370343 -0.916954 -0.148466
vn 0.317701 -0.893382 0.317701
vn 0.370343 -0.916954 -0.148466
vn 0.370343 -0.916954 0.148466
vn 0.707107 0.000000 -0.707107
vn 0.707107 0.000000 -0.707107
vn 0.707107 0.000000 -0.707107
vn 0.707107 0.000000 -0.707107
vn 0.707107 0.000000 -0.707107
vn 0.707107 0.000000 -0.707107
vn 0.000000 0.599290 -0.800532
vn 0.000000 0.599290 -0.800532
vn 0.000000 0.707107 -0.707107
vn 0.000000 0.599290 -0.800532
vn 0.000000 0.707107 -0.707107
vn 0.000000 0.707107 -0.707107
vn 0.317701 -0.893382 -0.317701
vn -0.317701 -0.893382 -0.317701
vn -0.148466 -0.916954 -0.370343
vn 0.317701 -0.893382 -0.317701
vn -0.148466 -0.916954 -0.370343
vn 0.148466 -0.916954 -0.370343
vn -0.370343 -0.916954 -0.148466
vn -0.148466 -0.916954 -0.370343
vn -0.317701 -0.893382 -0.317701
vn -0.148466 -0.916954 0.370343
vn -0.370343 -0.916954 0.148466
vn -0.317701 -0.893382 0.317701
vn -0.577350 0.577350 -0.577350
vn -0.577350 0.577350 -0.577350
vn -0.577350 0.577350 -0.577350
vn -0.577350 0.577350 0.577350
vn -0.577350 0.577350 0.577350
vn -0.577350 0.577350 0.577350
vn 0.148466 -0.916954 -0.370343
vn 0.370343 -0.916954 -0.148466
vn 0.317701 -0.893382 -0.317701
vn 0.370343 -0.916954 0.148466
vn 0.148466 -0.916954 0.370343
vn 0.317701 -0.893382 0.317701
vn 0.577350 0.577350 -0.577350
vn 0.577350 0.577350 -0.577350
vn 0.577350 0.577350 -0.577350
vn 0.577350 0.577350 0.577350
vn 0.577350 0.577350 0.577350
vn 0.577350 0.577350 0.577350
vn 0.000000 0.599290 0.800532
vn 0.000000 0.599290 0.800532
vn 0.000000 0.479277 0.877664
vn 0.000000 0.599290 0.800532
vn 0.000000 0.479277 0.877664
vn 0.000000 0.479277 0.877664
vn -0.800532 0.599290 0.000000
vn -0.800532 0.599290 0.000000
vn -0.877664 0.479277 0.000000
vn -0.800532 0.599290 0.000000
vn -0.877664 0.479277 0.000000
vn -0.877664 0.479277 0.000000
vn 0.000000 0.599290 -0.800532
vn 0.000000 0.599290 -0.800532
vn 0.000000 0.479277 -0.877664
vn 0.000000 0.599290 -0.800532
vn 0.000000 0.479277 -0.877664
vn 0.000000 0.479277 -0.877664
vn 0.800532 0.599290 0.000000
vn 0.800532 0.599290 0.000000
vn 0.877664 0.479277 0.000000
vn 0.800532 0.599290 0.000000
vn 0.877664 0.479277 0.000000
vn 0.877664 0.479277 0.000000
vn 0.000000 -0.403695 0.914894
vn 0.000000 -0.403695 0.914894
vn 0.000000 -0.403695 0.914894
vn 0.000000 -0.403695 0.914894
vn 0.000000 -0.403695 0.914894
vn 0.000000 -0.403695 0.914894
vn 0.914894 -0.403695 0.000000
vn 0.914894 -0.403695 0.000000
vn 0.914894 -0.403695 0.000000
vn 0.914894 -0.403695 0.000000
vn 0.914894 -0.403695 0.000000
vn 0.914894 -0.403695 0.000000
vn 0.000000 -0.403695 -0.914894
vn 0.000000 -0.403695 -0.914894
vn 0.000000 -0.403695 -0.914894
vn 0.000000 -0.403695 -0.914894
vn 0.000000 -0.403695 -0.914894
vn 0.000000 -0.403695 -0.914894
vn -0.914894 -0.403695 0.000000
vn -0.914894 -0.403695 0.000000
vn -0.914894 -0.403695 0.000000
vn -0.914894 -0.403695 0.000000
vn -0.914894 -0.403695 0.000000
vn -0.914894 -0.403695 0.000000
vn -0.986059 0.000000 -0.166397
vn -0.986059 0.000000 -0.166397
vn -0.986059 0.000000 -0.166397
vn -0.986059 0.000000 -0.166397
vn -0.986059 0.000000 -0.166397
vn -0.986059 0.000000 -0.166397
vn 0.148466 -0.916954 -0.370343
vn -0.148466 -0.916954 -0.370343
vn 0.000000 -0.986059 -0.166397
vn 0.148466 -0.916954 -0.370343
vn 0.000000 -0.986059 -0.166397
vn 0.000000 -0.986059 -0.166397
vn 0.986059 0.000000 -0.166397
vn 0.986059 0.000000 -0.166397
vn 0.986059 0.000000 -0.166397
vn 0.986059 0.000000 -0.166397
vn 0.986059 0.000000 -0.166397
vn 0.986059 0.000000 -0.166397
vn 0.000000 0.986059 -0.166397
vn 0.000000 0.986059 -0.166397
vn 0.000000 0.986059 -0.166397
vn 0.000000 0.986059 -0.166397
vn 0.000000 0.986059 -0.166397
vn 0.000000 0.986059 -0.166397
vn 0.166397 0.000000 -0.986059
vn 0.166397 0.000000 -0.986059
vn 0.166397 0.000000 -0.986059
vn 0.166397 0.000000 -0.986059
vn 0.166397 0.000000 -0.986059
vn 0.166397 0.000000 -0.986059
vn 0.370343 -0.916954 0.148466
vn 0.370343 -0.916954 -0.148466
vn 0.166397 -0.986059 0.000000
vn 0.370343 -0.916954 0.148466
vn 0.166397 -0.986059 0.000000
vn 0.166397 -0.986059 0.000000
vn 0.166397 0.000000 0.986059
vn 0.166397 0.000000 0.986059
vn 0.166397 0.000000 0.986059
vn 0.166397 0.000000 0.986059
vn 0.166397 0.000000 0.986059
vn 0.166397 0.000000 0.986059
vn 0.166397 0.986059 0.000000
vn 0.166397 0.986059 0.000000
vn 0.166397 0.986059 0.000000
vn 0.166397 0.986059 0.000000
vn 0.166397 0.986059 0.000000
vn 0.166397 0.986059 0.000000
vn 0.986059 0.000000 0.166397
vn 0.986059 0.000000 0.166397
vn 0.986059 0.000000 0.166397
vn 0.986059 0.000000 0.166397
vn 0.986059 0.000000 0.166397
vn 0.986059 0.000000 0.166397
vn -0.148466 -0.916954 0.370343
vn 0.148466 -0.916954 0.370343
vn -0.000000 -0.986059 0.166397
vn -0.148466 -0.916954 0.370343
vn -0.000000 -0.986059 0.166397
vn -0.000000 -0.986059 0.166397
vn -0.986059 0.000000 0.166397
vn -0.986059 0.000000 0.166397
vn -0.986059 0.000000 0.166397
vn -0.986059 0.000000 0.166397
vn -0.986059 0.000000 0.166397
vn -0.986059 0.000000 0.166397
vn -0.000000 0.986059 0.166397
vn -0.000000 0.986059 0.166397
vn -0.000000 0.986059 0.166397
vn -0.000000 0.986059 0.166397
vn -0.000000 0.986059 0.166397
vn -0.000000 0.986059 0.166397
vn -0.166397 0.000000 0.986059
vn -0.166397 0.000000 0.986059
vn -0.166397 0.000000 0.986059
vn -0.166397 0.000000 0.986059
vn -0.166397 0.000000 0.986059
vn -0.166397 0.000000 0.986059
vn -0.370343 -0.916954 -0.148466
vn -0.370343 -0.916954 0.148466
vn -0.166397 -0.986059 -0.000000
vn -0.370343 -0.916954 -0.148466
vn -0.166397 -0.986059 -0.000000
vn -0.166397 -0.986059 -0.000000
vn -0.166397 0.000000 -0.986059
vn -0.166397 0.000000 -0.986059
vn -0.166397 0.000000 -0.986059
vn -0.166397 0.000000 -0.986059
vn -0.166397 0.000000 -0.986059
vn -0.166397 0.000000 -0.986059
vn -0.166397 0.986059 -0.000000
vn -0.166397 0.986059 -0.000000
vn -0.166397 0.986059 -0.000000
vn -0.166397 0.986059 -0.000000
vn -0.166397 0.986059 -0.000000
vn -0.166397 0.986059 -0.000000
f 1/1/1 2/2/2 3/3/3
f 1/4/4 3/5/5 4/6/6
f 5/7/7 6/8/8 7/9/9
f 5/10/10 7/11/11 8/12/12
f 9/13/13 10/14/14 11/15/15
f 9/16/16 11/17/17 12/18/18
f 13/19/19 14/20/20 15/21/21
f 13/22/22 15/23/23 16/24/24
f 17/25/25 18/26/26 19/27/27
f 17/28/28 19/29/29 20/30/30
f 21/31/31 22/32/32 23/33/33
f 21/34/34 23/35/35 24/36/36
f 25/37/37 26/38/38 27/39/39
f 25/40/40 27/41/41 28/42/42
f 29/43/43 30/44/44 31/45/45
f 29/46/46 31/47/47 27/48/48
f 32/49/49 33/50/50 34/51/51
f 32/52/52 34/53/53 31/54/54
f 35/55/55 36/56/56 28/57/57
f 35/58/58 28/59/59 34/60/60
f 37/61/61 25/62/62 36/63/63
f 37/64/64 36/65/65 38/66/66
f 33/67/67 39/68/68 40/69/69
f 33/70/70 40/71/71 35/72/72
f 41/73/73 42/74/74 38/75/75
f 41/76/76 38/77/77 40/78/78
f 43/79/79 37/80/80 42/81/81
f 43/82/82 42/83/83 44/84/84
f 39/85/85 45/86/86 46/87/87
f 39/88/88 46/89/89 41/90/90
f 47/91/91 48/92/92 44/93/93
f 47/94/94 44/95/95 46/96/96
f 26/97/97 43/98/98 48/99/99
f 26/100/100 48/101/101 29/102/102
f 45/103/103 32/104/104 30/105/105
f 45/106/106 30/107/107 47/108/108
f 31/109/109 30/110/110 32/111/111
f 35/112/112 34/113/113 33/114/114
f 29/115/115 27/116/116 26/117/117
f 28/118/118 36/119/119 25/120/120
f 47/121/121 46/122/122 45/123/123
f 41/124/124 40/125/125 39/126/126
f 44/127/127 48/128/128 43/129/129
f 38/130/130 42/131/131 37/132/132
f 25/133/133 37/134/134 23/135/135
f 25/136/136 23/137/137 22/138/138
f 26/139/139 25/140/140 22/141/141
f 26/142/142 22/143/143 21/144/144
f 43/145/145 26/146/146 21/147/147
f 43/148/148 21/149/149 24/150/150
f 37/151/151 43/152/152 24/153/153
f 37/154/154 24/155/155 23/156/156
f 39/157/157 33/158/158 19/159/159
f 39/160/160 19/161/161 18/162/162
f 45/163/163 39/164/164 18/165/165
f 45/166/166 18/167/167 17/168/168
f 32/169/169 45/170/170 17/171/171
f 32/172/172 17/173/173 20/174/174
f 33/175/175 32/176/176 20/177/177
f 33/178/178 20/179/179 19/180/180
f 30/181/181 29/182/182 15/183/183
f 30/184/184 15/185/185 14/186/186
f 47/187/187 30/188/188 14/189/189
f 47/190/190 14/191/191 13/192/192
f 48/193/193 47/194/194 13/195/195
f 48/196/196 13/197/197 16/198/198
f 29/199/199 48/200/200 16/201/201
f 29/202/202 16/203/203 15/204/204
f 46/205/205 44/206/206 11/207/207
f 46/208/208 11/209/209 10/210/210
f 41/211/211 46/212/212 10/213/213
f 41/214/214 10/215/215 9/216/216
f 42/217/217 41/218/218 9/219/219
f 42/220/220 9/221/221 12/222/222
f 44/223/223 42/224/224 12/225/225
f 44/226/226 12/227/227 11/228/228
f 40/229/229 38/230/230 7/231/231
f 40/232/232 7/233/233 6/234/234
f 35/235/235 40/236/236 6/237/237
f 35/238/238 6/239/239 5/240/240
f 36/241/241 35/242/242 5/243/243
f 36/244/244 5/245/245 8/246/246
f 38/247/247 36/248/248 8/249/249
f 38/250/250 8/251/251 7/252/252
f 34/253/253 28/254/254 3/255/255
f 34/256/256 3/257/257 2/258/258
f 31/259/259 34/260/260 2/261/261
f 31/262/262 2/263/263 1/264/264
f 27/265/265 31/266/266 1/267/267
f 27/268/268 1/269/269 4/270/270
f 28/271/271 27/272/272 4/273/273
f 28/274/274 4/275/275 3/276/276
