v -2.500000 -1.875000 -1.875000
v -2.500000 -1.875000 1.875000
v -2.500000 1.875000 1.875000
v -2.500000 1.875000 -1.875000
v -1.875000 -1.875000 2.500000
v 1.875000 -1.875000 2.500000
v 1.875000 1.875000 2.500000
v -1.875000 1.875000 2.500000
v 2.500000 -1.875000 1.875000
v 2.500000 -1.875000 -1.875000
v 2.500000 1.875000 -1.875000
v 2.500000 1.875000 1.875000
v 1.875000 -1.875000 -2.500000
v -1.875000 -1.875000 -2.500000
v -1.875000 1.875000 -2.500000
v 1.875000 1.875000 -2.500000
v 1.875000 -2.500000 -1.875000
v 1.875000 -2.500000 1.875000
v -1.875000 -2.500000 1.875000
v -1.875000 -2.500000 -1.875000
v -1.875000 2.500000 -1.875000
v -1.875000 2.500000 1.875000
v 1.875000 2.500000 1.875000
v 1.875000 2.500000 -1.875000
v -1.586252 2.156000 1.586252
v 1.586252 2.156000 1.586252
v -1.586252 2.156000 -1.586252
v 1.586252 2.156000 -1.586252
v 1.586252 -2.156000 1.586252
v -1.586252 -2.156000 1.586252
v 1.586252 -2.156000 -1.586252
v -1.586252 -2.156000 -1.586252
v -1.586252 -1.586252 -2.156000
v -1.586252 1.586252 -2.156000
v 1.586252 -1.586252 -2.156000
v 1.586252 1.586252 -2.156000
v 2.156000 -1.586252 -1.586252
v 2.156000 1.586252 -1.586252
v 2.156000 -1.586252 1.586252
v 2.156000 1.586252 1.586252
v 1.586252 -1.586252 2.156000
v 1.586252 1.586252 2.156000
v -1.586252 -1.586252 2.156000
v -1.586252 1.586252 2.156000
v -2.156000 -1.586252 1.586252
v -2.156000 1.586252 1.586252
v -2.156000 -1.586252 -1.586252
v -2.156000 1.586252 -1.586252
vt 0.001953 0.001953
vt 0.998047 0.001953
vt 0.998047 0.998047
vt 0.001953 0.001953
vt 0.998047 0.998047
vt 0.001953 0.998047
vt 0.001953 0.001953
vt 0.998047 0.001953
vt 0.998047 0.998047
vt 0.001953 0.001953
vt 0.998047 0.998047
vt 0.001953 0.998047
vt 0.001953 0.001953
vt 0.998047 0.001953
vt 0.998047 0.998047
vt 0.001953 0.001953
vt 0.998047 0.998047
vt 0.001953 0.998047
vt 0.001953 0.001953
vt 0.998047 0.001953
vt 0.998047 0.998047
vt 0.001953 0.001953
vt 0.998047 0.998047
vt 0.001953 0.998047
vt 0.001953 0.001953
vt 0.998047 0.001953
vt 0.998047 0.998047
vt 0.001953 0.001953
vt 0.998047 0.998047
vt 0.001953 0.998047
vt 0.001953 0.001953
vt 0.998047 0.001953
vt 0.998047 0.998047
vt 0.001953 0.001953
vt 0.998047 0.998047
vt 0.001953 0.998047
vt 0.939453 -0.068359
vt 0.064453 -0.068359
vt 0.064453 0.064453
vt 0.939453 -0.068359
vt 0.064453 0.064453
vt 0.939453 0.064453
vt 0.939453 -0.068359
vt 0.064453 -0.068359
vt 0.064453 0.064453
vt 0.939453 -0.068359
vt 0.064453 0.064453
vt 0.939453 0.064453
vt 0.939453 -0.068359
vt 0.064453 -0.068359
vt 0.064453 0.064453
vt 0.939453 -0.068359
vt 0.064453 0.064453
vt 0.939453 0.064453
vt 0.939453 -0.068359
vt 0.064453 -0.068359
vt 0.064453 0.064453
vt 0.939453 -0.068359
vt 0.064453 0.064453
vt 0.939453 0.064453
vt 0.939453 -0.068359
vt 0.064453 -0.068359
vt 0.064453 0.064453
vt 0.939453 -0.068359
vt 0.064453 0.064453
vt 0.939453 0.064453
vt 0.939453 -0.068359
vt 0.064453 -0.068359
vt 0.064453 0.064453
vt 0.939453 -0.068359
vt 0.064453 0.064453
vt 0.939453 0.064453
vt 0.939453 -0.068359
vt 0.064453 -0.068359
vt 0.064453 0.064453
vt 0.939453 -0.068359
vt 0.064453 0.064453
vt 0.939453 0.064453
vt 0.939453 -0.068359
vt 0.064453 -0.068359
vt 0.064453 0.064453
vt 0.939453 -0.068359
vt 0.064453 0.064453
vt 0.939453 0.064453
vt 0.939453 -0.068359
vt 0.064453 -0.068359
vt 0.064453 0.064453
vt 0.939453 -0.068359
vt 0.064453 0.064453
vt 0.939453 0.064453
vt 0.939453 -0.068359
vt 0.064453 -0.068359
vt 0.064453 0.064453
vt 0.939453 -0.068359
vt 0.064453 0.064453
vt 0.939453 0.064453
vt 0.939453 -0.068359
vt 0.064453 -0.068359
vt 0.064453 0.064453
vt 0.939453 -0.068359
vt 0.064453 0.064453
vt 0.939453 0.064453
vt 0.939453 -0.068359
vt 0.064453 -0.068359
vt 0.064453 0.064453
vt 0.939453 -0.068359
vt 0.064453 0.064453
vt 0.939453 0.064453
vt 0.439453 0.564453
vt 0.439453 0.814453
vt 0.314453 0.689453
vt 0.439453 0.564453
vt 0.439453 0.814453
vt 0.314453 0.689453
vt 0.439453 0.564453
vt 0.439453 0.814453
vt 0.314453 0.689453
vt 0.439453 0.564453
vt 0.439453 0.814453
vt 0.314453 0.689453
vt 0.439453 0.564453
vt 0.439453 0.814453
vt 0.314453 0.689453
vt 0.439453 0.564453
vt 0.439453 0.814453
vt 0.314453 0.689453
vt 0.439453 0.564453
vt 0.439453 0.814453
vt 0.314453 0.689453
vt 0.439453 0.564453
vt 0.439453 0.814453
vt 0.314453 0.689453
vt 0.998047 0.001953
vt 0.000000 0.001953
vt 0.085821 0.189453
vt 0.998047 0.001953
vt 0.085821 0.189453
vt 0.918085 0.189453
vt 0.998047 0.001953
vt 0.000000 0.001953
vt 0.085821 0.189453
vt 0.998047 0.001953
vt 0.085821 0.189453
vt 0.918085 0.189453
vt 0.998047 0.001953
vt 0.000000 0.001953
vt 0.085821 0.189453
vt 0.998047 0.001953
vt 0.085821 0.189453
vt 0.918085 0.189453
vt 0.998047 0.001953
vt 0.000000 0.001953
vt 0.085821 0.189453
vt 0.998047 0.001953
vt 0.085821 0.189453
vt 0.918085 0.189453
vt 0.998047 0.001953
vt 0.000000 0.001953
vt 0.085821 0.189453
vt 0.998047 0.001953
vt 0.085821 0.189453
vt 0.918085 0.189453
vt 0.998047 0.001953
vt 0.000000 0.001953
vt 0.085821 0.189453
vt 0.998047 0.001953
vt 0.085821 0.189453
vt 0.918085 0.189453
vt 0.998047 0.001953
vt 0.000000 0.001953
vt 0.085821 0.189453
vt 0.998047 0.001953
vt 0.085821 0.189453
vt 0.918085 0.189453
vt 0.998047 0.001953
vt 0.000000 0.001953
vt 0.085821 0.189453
vt 0.998047 0.001953
vt 0.085821 0.189453
vt 0.918085 0.189453
vt 0.998047 0.001953
vt 0.000000 0.001953
vt 0.085821 0.189453
vt 0.998047 0.001953
vt 0.085821 0.189453
vt 0.918085 0.189453
vt 0.998047 0.001953
vt 0.000000 0.001953
vt 0.085821 0.189453
vt 0.998047 0.001953
vt 0.085821 0.189453
vt 0.918085 0.189453
vt 0.998047 0.001953
vt 0.000000 0.001953
vt 0.085821 0.189453
vt 0.998047 0.001953
vt 0.085821 0.189453
vt 0.918085 0.189453
vt 0.998047 0.001953
vt 0.000000 0.001953
vt 0.085821 0.189453
vt 0.998047 0.001953
vt 0.085821 0.189453
vt 0.918085 0.189453
vt 0.998047 0.001953
vt 0.000000 0.001953
vt 0.085821 0.189453
vt 0.998047 0.001953
vt 0.085821 0.189453
vt 0.918085 0.189453
vt 0.998047 0.001953
vt 0.000000 0.001953
vt 0.085821 0.189453
vt 0.998047 0.001953
vt 0.085821 0.189453
vt 0.918085 0.189453
vt 0.998047 0.001953
vt 0.000000 0.001953
vt 0.085821 0.189453
vt 0.998047 0.001953
vt 0.085821 0.189453
vt 0.918085 0.189453
vt 0.998047 0.001953
vt 0.000000 0.001953
vt 0.085821 0.189453
vt 0.998047 0.001953
vt 0.085821 0.189453
vt 0.918085 0.189453
vt 0.998047 0.001953
vt 0.000000 0.001953
vt 0.085821 0.189453
vt 0.998047 0.001953
vt 0.085821 0.189453
vt 0.918085 0.189453
vt 0.998047 0.001953
vt 0.000000 0.001953
vt 0.085821 0.189453
vt 0.998047 0.001953
vt 0.085821 0.189453
vt 0.918085 0.189453
vt 0.998047 0.001953
vt 0.000000 0.001953
vt 0.085821 0.189453
vt 0.998047 0.001953
vt 0.085821 0.189453
vt 0.918085 0.189453
vt 0.998047 0.001953
vt 0.000000 0.001953
vt 0.085821 0.189453
vt 0.998047 0.001953
vt 0.085821 0.189453
vt 0.918085 0.189453
vt 0.998047 0.001953
vt 0.000000 0.001953
vt 0.085821 0.189453
vt 0.998047 0.001953
vt 0.085821 0.189453
vt 0.918085 0.189453
vt 0.998047 0.001953
vt 0.000000 0.001953
vt 0.085821 0.189453
vt 0.998047 0.001953
vt 0.085821 0.189453
vt 0.918085 0.189453
vt 0.998047 0.001953
vt 0.000000 0.001953
vt 0.085821 0.189453
vt 0.998047 0.001953
vt 0.085821 0.189453
vt 0.918085 0.189453
vt 0.998047 0.001953
vt 0.000000 0.001953
vt 0.085821 0.189453
vt 0.998047 0.001953
vt 0.085821 0.189453
vt 0.918085 0.189453
vn -0.903671 0.302802 0.302802
vn -0.903671 0.302802 -0.302802
vn -0.903671 -0.302802 -0.302802
vn -0.903671 0.302802 0.302802
vn -0.903671 -0.302802 -0.302802
vn -0.903671 -0.302802 0.302802
vn 0.302802 0.302802 0.903671
vn -0.302802 0.302802 0.903671
vn -0.302802 -0.302802 0.903671
vn 0.302802 0.302802 0.903671
vn -0.302802 -0.302802 0.903671
vn 0.302802 -0.302802 0.903671
vn 0.903671 0.302802 -0.302802
vn 0.903671 0.302802 0.302802
vn 0.903671 -0.302802 0.302802
vn 0.903671 0.302802 -0.302802
vn 0.903671 -0.302802 0.302802
vn 0.903671 -0.302802 -0.302802
vn -0.302802 0.302802 -0.903671
vn 0.302802 0.302802 -0.903671
vn 0.302802 -0.302802 -0.903671
vn -0.302802 0.302802 -0.903671
vn 0.302802 -0.302802 -0.903671
vn -0.302802 -0.302802 -0.903671
vn -0.302802 -0.903671 0.302802
vn -0.302802 -0.903671 -0.302802
vn 0.302802 -0.903671 -0.302802
vn -0.302802 -0.903671 0.302802
vn 0.302802 -0.903671 -0.302802
vn 0.302802 -0.903671 0.302802
vn 0.302802 0.903671 0.302802
vn 0.302802 0.903671 -0.302802
vn -0.302802 0.903671 -0.302802
vn 0.302802 0.903671 0.302802
vn -0.302802 0.903671 -0.302802
vn -0.302802 0.903671 0.302802
vn -0.476510 0.738834 0.476510
vn -0.476510 0.738834 -0.476510
vn -0.738834 0.476510 -0.476510
vn -0.476510 0.738834 0.476510
vn -0.738834 0.476510 -0.476510
vn -0.738834 0.476510 0.476510
vn -0.476510 0.476510 -0.738834
vn -0.476510 -0.476510 -0.738834
vn -0.738834 -0.476510 -0.476510
vn -0.476510 0.476510 -0.738834
vn -0.738834 -0.476510 -0.476510
vn -0.738834 0.476510 -0.476510
vn -0.476510 -0.738834 -0.476510
vn -0.476510 -0.738834 0.476510
vn -0.738834 -0.476510 0.476510
vn -0.476510 -0.738834 -0.476510
vn -0.738834 -0.476510 0.476510
vn -0.738834 -0.476510 -0.476510
vn -0.476510 -0.476510 0.738834
vn -0.476510 0.476510 0.738834
vn -0.738834 0.476510 0.476510
vn -0.476510 -0.476510 0.738834
vn -0.738834 0.476510 0.476510
vn -0.738834 -0.476510 0.476510
vn 0.476510 0.738834 0.476510
vn -0.476510 0.738834 0.476510
vn -0.476510 0.476510 0.738834
vn 0.476510 0.738834 0.476510
vn -0.476510 0.476510 0.738834
vn 0.476510 0.476510 0.738834
vn -0.476510 -0.738834 0.476510
vn 0.476510 -0.738834 0.476510
vn 0.476510 -0.476510 0.738834
vn -0.476510 -0.738834 0.476510
vn 0.476510 -0.476510 0.738834
vn -0.476510 -0.476510 0.738834
vn 0.738834 -0.476510 0.476510
vn 0.738834 0.476510 0.476510
vn 0.476510 0.476510 0.738834
vn 0.738834 -0.476510 0.476510
vn 0.476510 0.476510 0.738834
vn 0.476510 -0.476510 0.738834
vn 0.476510 0.738834 -0.476510
vn 0.476510 0.738834 0.476510
vn 0.738834 0.476510 0.476510
vn 0.476510 0.738834 -0.476510
vn 0.738834 0.476510 0.476510
vn 0.738834 0.476510 -0.476510
vn 0.476510 -0.738834 0.476510
vn 0.476510 -0.738834 -0.476510
vn 0.738834 -0.476510 -0.476510
vn 0.476510 -0.738834 0.476510
vn 0.738834 -0.476510 -0.476510
vn 0.738834 -0.476510 0.476510
vn 0.476510 -0.476510 -0.738834
vn 0.476510 0.476510 -0.738834
vn 0.738834 0.476510 -0.476510
vn 0.476510 -0.476510 -0.738834
vn 0.738834 0.476510 -0.476510
vn 0.738834 -0.476510 -0.476510
vn -0.476510 0.738834 -0.476510
vn 0.476510 0.738834 -0.476510
vn 0.476510 0.476510 -0.738834
vn -0.476510 0.738834 -0.476510
vn 0.476510 0.476510 -0.738834
vn -0.476510 0.476510 -0.738834
vn 0.476510 -0.738834 -0.476510
vn -0.476510 -0.738834 -0.476510
vn -0.476510 -0.476510 -0.738834
vn 0.476510 -0.738834 -0.476510
vn -0.476510 -0.476510 -0.738834
vn 0.476510 -0.476510 -0.738834
vn -0.738834 -0.476510 -0.476510
vn -0.476510 -0.476510 -0.738834
vn -0.476510 -0.738834 -0.476510
vn -0.476510 -0.476510 0.738834
vn -0.738834 -0.476510 0.476510
vn -0.476510 -0.738834 0.476510
vn -0.476510 0.476510 -0.738834
vn -0.738834 0.476510 -0.476510
vn -0.476510 0.738834 -0.476510
vn -0.738834 0.476510 0.476510
vn -0.476510 0.476510 0.738834
vn -0.476510 0.738834 0.476510
vn 0.476510 -0.476510 -0.738834
vn 0.738834 -0.476510 -0.476510
vn 0.476510 -0.738834 -0.476510
vn 0.738834 -0.476510 0.476510
vn 0.476510 -0.476510 0.738834
vn 0.476510 -0.738834 0.476510
vn 0.738834 0.476510 -0.476510
vn 0.476510 0.476510 -0.738834
vn 0.476510 0.738834 -0.476510
vn 0.476510 0.476510 0.738834
vn 0.738834 0.476510 0.476510
vn 0.476510 0.738834 0.476510
vn 0.000000 0.642915 -0.765937
vn 0.000000 0.642915 -0.765937
vn -0.302802 0.903671 -0.302802
vn 0.000000 0.642915 -0.765937
vn -0.302802 0.903671 -0.302802
vn 0.302802 0.903671 -0.302802
vn 0.765937 0.642915 0.000000
vn 0.765937 0.642915 0.000000
vn 0.302802 0.903671 -0.302802
vn 0.765937 0.642915 0.000000
vn 0.302802 0.903671 -0.302802
vn 0.302802 0.903671 0.302802
vn 0.000000 0.642915 0.765937
vn 0.000000 0.642915 0.765937
vn 0.302802 0.903671 0.302802
vn 0.000000 0.642915 0.765937
vn 0.302802 0.903671 0.302802
vn -0.302802 0.903671 0.302802
vn -0.765937 0.642915 0.000000
vn -0.765937 0.642915 0.000000
vn -0.302802 0.903671 0.302802
vn -0.765937 0.642915 0.000000
vn -0.302802 0.903671 0.302802
vn -0.302802 0.903671 -0.302802
vn 0.000000 -0.642915 -0.765937
vn 0.000000 -0.642915 -0.765937
vn 0.302802 -0.903671 -0.302802
vn 0.000000 -0.642915 -0.765937
vn 0.302802 -0.903671 -0.302802
vn -0.302802 -0.903671 -0.302802
vn -0.765937 -0.642915 0.000000
vn -0.765937 -0.642915 0.000000
vn -0.302802 -0.903671 -0.302802
vn -0.765937 -0.642915 0.000000
vn -0.302802 -0.903671 -0.302802
vn -0.302802 -0.903671 0.302802
vn 0.000000 -0.642915 0.765937
vn 0.000000 -0.642915 0.765937
vn -0.302802 -0.903671 0.302802
vn 0.000000 -0.642915 0.765937
vn -0.302802 -0.903671 0.302802
vn 0.302802 -0.903671 0.302802
vn 0.765937 -0.642915 0.000000
vn 0.765937 -0.642915 0.000000
vn 0.302802 -0.903671 0.302802
vn 0.765937 -0.642915 0.000000
vn 0.302802 -0.903671 0.302802
vn 0.302802 -0.903671 -0.302802
vn 0.765937 0.000000 -0.642915
vn 0.765937 0.000000 -0.642915
vn 0.302802 -0.302802 -0.903671
vn 0.765937 0.000000 -0.642915
vn 0.302802 -0.302802 -0.903671
vn 0.302802 0.302802 -0.903671
vn 0.000000 0.765937 -0.642915
vn 0.000000 0.765937 -0.642915
vn 0.302802 0.302802 -0.903671
vn 0.000000 0.765937 -0.642915
vn 0.302802 0.302802 -0.903671
vn -0.302802 0.302802 -0.903671
vn -0.765937 0.000000 -0.642915
vn -0.765937 0.000000 -0.642915
vn -0.302802 0.302802 -0.903671
vn -0.765937 0.000000 -0.642915
vn -0.302802 0.302802 -0.903671
vn -0.302802 -0.302802 -0.903671
vn 0.000000 -0.765937 -0.642915
vn 0.000000 -0.765937 -0.642915
vn -0.302802 -0.302802 -0.903671
vn 0.000000 -0.765937 -0.642915
vn -0.302802 -0.302802 -0.903671
vn 0.302802 -0.302802 -0.903671
vn 0.642915 0.000000 0.765937
vn 0.642915 0.000000 0.765937
vn 0.903671 -0.302802 0.302802
vn 0.642915 0.000000 0.765937
vn 0.903671 -0.302802 0.302802
vn 0.903671 0.302802 0.302802
vn 0.642915 0.765937 0.000000
vn 0.642915 0.765937 0.000000
vn 0.903671 0.302802 0.302802
vn 0.642915 0.765937 0.000000
vn 0.903671 0.302802 0.302802
vn 0.903671 0.302802 -0.302802
vn 0.642915 0.000000 -0.765937
vn 0.642915 0.000000 -0.765937
vn 0.903671 0.302802 -0.302802
vn 0.642915 0.000000 -0.765937
vn 0.903671 0.302802 -0.302802
vn 0.903671 -0.302802 -0.302802
vn 0.642915 -0.765937 0.000000
vn 0.642915 -0.765937 0.000000
vn 0.903671 -0.302802 -0.302802
vn 0.642915 -0.765937 0.000000
vn 0.903671 -0.302802 -0.302802
vn 0.903671 -0.302802 0.302802
vn -0.765937 0.000000 0.642915
vn -0.765937 0.000000 0.642915
vn -0.302802 -0.302802 0.903671
vn -0.765937 0.000000 0.642915
vn -0.302802 -0.302802 0.903671
vn -0.302802 0.302802 0.903671
vn 0.000000 0.765937 0.642915
vn 0.000000 0.765937 0.642915
vn -0.302802 0.302802 0.903671
vn 0.000000 0.765937 0.642915
vn -0.302802 0.302802 0.903671
vn 0.302802 0.302802 0.903671
vn 0.765937 0.000000 0.642915
vn 0.765937 0.000000 0.642915
vn 0.302802 0.302802 0.903671
vn 0.765937 0.000000 0.642915
vn 0.302802 0.302802 0.903671
vn 0.302802 -0.302802 0.903671
vn 0.000000 -0.765937 0.642915
vn 0.000000 -0.765937 0.642915
vn 0.302802 -0.302802 0.903671
vn 0.000000 -0.765937 0.642915
vn 0.302802 -0.302802 0.903671
vn -0.302802 -0.302802 0.903671
vn -0.642915 0.000000 -0.765937
vn -0.642915 0.000000 -0.765937
vn -0.903671 -0.302802 -0.302802
vn -0.642915 0.000000 -0.765937
vn -0.903671 -0.302802 -0.302802
vn -0.903671 0.302802 -0.302802
vn -0.642915 0.765937 0.000000
vn -0.642915 0.765937 0.000000
vn -0.903671 0.302802 -0.302802
vn -0.642915 0.765937 0.000000
vn -0.903671 0.302802 -0.302802
vn -0.903671 0.302802 0.302802
vn -0.764796 -0.455570 0.455570
vn -0.642915 0.000000 0.765937
vn -0.903671 0.302802 0.302802
vn -0.764796 -0.455570 0.455570
vn -0.903671 0.302802 0.302802
vn -0.903671 -0.302802 0.302802
vn -0.642915 -0.765937 0.000000
vn -0.764796 -0.455570 0.455570
vn -0.903671 -0.302802 0.302802
vn -0.642915 -0.765937 0.000000
vn -0.903671 -0.302802 0.302802
vn -0.903671 -0.302802 -0.302802
f 47/1/1 45/2/2 46/3/3
f 47/4/4 46/5/5 48/6/6
f 43/7/7 41/8/8 42/9/9
f 43/10/10 42/11/11 44/12/12
f 39/13/13 37/14/14 38/15/15
f 39/16/16 38/17/17 40/18/18
f 35/19/19 33/20/20 34/21/21
f 35/22/22 34/23/23 36/24/24
f 31/25/25 29/26/26 30/27/27
f 31/28/28 30/29/29 32/30/30
f 27/31/31 25/32/32 26/33/33
f 27/34/34 26/35/35 28/36/36
f 22/37/37 21/38/38 4/39/39
f 22/40/40 4/41/41 3/42/42
f 15/43/43 14/44/44 1/45/45
f 15/46/46 1/47/47 4/48/48
f 20/49/49 19/50/50 2/51/51
f 20/52/52 2/53/53 1/54/54
f 5/55/55 8/56/56 3/57/57
f 5/58/58 3/59/59 2/60/60
f 23/61/61 22/62/62 8/63/63
f 23/64/64 8/65/65 7/66/66
f 19/67/67 18/68/68 6/69/69
f 19/70/70 6/71/71 5/72/72
f 9/73/73 12/74/74 7/75/75
f 9/76/76 7/77/77 6/78/78
f 24/79/79 23/80/80 12/81/81
f 24/82/82 12/83/83 11/84/84
f 18/85/85 17/86/86 10/87/87
f 18/88/88 10/89/89 9/90/90
f 13/91/91 16/92/92 11/93/93
f 13/94/94 11/95/95 10/96/96
f 21/97/97 24/98/98 16/99/99
f 21/100/100 16/101/101 15/102/102
f 17/103/103 20/104/104 14/105/105
f 17/106/106 14/107/107 13/108/108
f 1/109/109 14/110/110 20/111/111
f 5/112/112 2/113/113 19/114/114
f 15/115/115 4/116/116 21/117/117
f 3/118/118 8/119/119 22/120/120
f 13/121/121 10/122/122 17/123/123
f 9/124/124 6/125/125 18/126/126
f 11/127/127 16/128/128 24/129/129
f 7/130/130 12/131/131 23/132/132
f 22/133/133 23/134/134 26/135/135
f 22/136/136 26/137/137 25/138/138
f 21/139/139 22/140/140 25/141/141
f 21/142/142 25/143/143 27/144/144
f 24/145/145 21/146/146 27/147/147
f 24/148/148 27/149/149 28/150/150
f 23/151/151 24/152/152 28/153/153
f 23/154/154 28/155/155 26/156/156
f 18/157/157 19/158/158 30/159/159
f 18/160/160 30/161/161 29/162/162
f 17/163/163 18/164/164 29/165/165
f 17/166/166 29/167/167 31/168/168
f 20/169/169 17/170/170 31/171/171
f 20/172/172 31/173/173 32/174/174
f 19/175/175 20/176/176 32/177/177
f 19/178/178 32/179/179 30/180/180
f 14/181/181 15/182/182 34/183/183
f 14/184/184 34/185/185 33/186/186
f 13/187/187 14/188/188 33/189/189
f 13/190/190 33/191/191 35/192/192
f 16/193/193 13/194/194 35/195/195
f 16/196/196 35/197/197 36/198/198
f 15/199/199 16/200/200 36/201/201
f 15/202/202 36/203/203 34/204/204
f 10/205/205 11/206/206 38/207/207
f 10/208/208 38/209/209 37/210/210
f 9/211/211 10/212/212 37/213/213
f 9/214/214 37/215/215 39/216/216
f 12/217/217 9/218/218 39/219/219
f 12/220/220 39/221/221 40/222/222
f 11/223/223 12/224/224 40/225/225
f 11/226/226 40/227/227 38/228/228
f 6/229/229 7/230/230 42/231/231
f 6/232/232 42/233/233 41/234/234
f 5/235/235 6/236/236 41/237/237
f 5/238/238 41/239/239 43/240/240
f 8/241/241 5/242/242 43/243/243
f 8/244/244 43/245/245 44/246/246
f 7/247/247 8/248/248 44/249/249
f 7/250/250 44/251/251 42/252/252
f 2/253/253 3/254/254 46/255/255
f 2/256/256 46/257/257 45/258/258
f 1/259/259 2/260/260 45/261/261
f 1/262/262 45/263/263 47/264/264
f 4/265/265 1/266/266 47/267/267
f 4/268/268 47/269/269 48/270/270
f 3/271/271 4/272/272 48/273/273
f 3/274/274 48/275/275 46/276/276
