v 0.009487 0.322973 -0.007009
v 0.372466 0.000000 0.004802
v 0.313951 0.238910 -0.018292
v 0.352904 0.000512 -0.375485
v 0.261260 0.239191 -0.288833
v 0.026545 0.000522 -0.530988
v 0.031451 0.239192 -0.406314
v -0.248004 0.000000 -0.331149
v -0.198382 0.238916 -0.266771
v -0.370394 -0.000107 0.021409
v -0.308738 0.238881 0.013871
v -0.290211 0.000380 0.319213
v -0.228437 0.239053 0.261454
v 0.085203 -0.000009 0.382901
v 0.035159 0.238887 0.311379
v 0.237340 -0.000267 0.211080
v 0.218332 0.238766 0.191035
v 0.479852 0.059728 0.000602
v 0.100604 0.059712 0.490453
v 0.445599 0.060350 -0.476826
v -0.370491 0.058619 0.409783
v 0.310338 0.059404 0.275215
v -0.476316 0.059605 0.026537
v 0.036468 0.060360 -0.673764
v -0.316841 0.059729 -0.423534
v -0.309535 0.022925 -0.413566
v 0.034531 0.023557 -0.660203
v 0.437580 0.023546 -0.467066
v 0.467070 0.022925 0.002962
v 0.300127 0.022601 0.266489
v 0.101822 0.022911 0.478598
v -0.364712 0.022780 0.402137
v -0.463997 0.022799 0.026274
v -0.336357 0.114106 0.378260
v 0.079619 0.116778 0.470243
v -0.460402 0.116712 0.023698
v -0.302158 0.116805 -0.404836
v 0.039832 0.117337 -0.633422
v 0.414545 0.117330 -0.449028
v 0.465533 0.116800 -0.010374
v 0.298882 0.112331 0.263593
vt 0.000000 0.000000
vt 0.000000 0.000000
vt 0.000000 0.000000
vt 0.000000 0.000000
vt 0.000000 0.000000
vt 0.000000 0.000000
vt 0.000000 0.000000
vt 0.000000 0.000000
vt 0.000000 0.000000
vt 0.000000 0.000000
vt 0.000000 0.000000
vt 0.000000 0.000000
vt 0.000000 0.000000
vt 0.000000 0.000000
vt 0.000000 0.000000
vt 0.000000 0.000000
vt 0.000000 0.000000
vt 0.000000 0.000000
vt 0.000000 0.000000
vt 0.000000 0.000000
vt 0.000000 0.000000
vt 0.000000 0.000000
vt 0.000000 0.000000
vt 0.000000 0.000000
vt 0.000000 0.000000
vt 0.000000 0.000000
vt 0.000000 0.000000
vt 0.000000 0.000000
vt 0.000000 0.000000
vt 0.000000 0.000000
vt 0.000000 0.000000
vt 0.000000 0.000000
vt 0.000000 0.000000
vt 0.000000 0.000000
vt 0.000000 0.000000
vt 0.000000 0.000000
vt 0.000000 0.000000
vt 0.000000 0.000000
vt 0.000000 0.000000
vt 0.000000 0.000000
vt 0.000000 0.000000
vt 0.000000 0.000000
vt 0.000000 0.000000
vt 0.000000 0.000000
vt 0.000000 0.000000
vt 0.000000 0.000000
vt 0.000000 0.000000
vt 0.000000 0.000000
vt 0.000000 0.000000
vt 0.000000 0.000000
vt 0.000000 0.000000
vt 0.000000 0.000000
vt 0.000000 0.000000
vt 0.000000 0.000000
vt 0.000000 0.000000
vt 0.000000 0.000000
vt 0.000000 0.000000
vt 0.000000 0.000000
vt 0.000000 0.000000
vt 0.000000 0.000000
vt 0.000000 0.000000
vt 0.000000 0.000000
vt 0.000000 0.000000
vt 0.000000 0.000000
vt 0.000000 0.000000
vt 0.000000 0.000000
vt 0.000000 0.000000
vt 0.000000 0.000000
vt 0.000000 0.000000
vt 0.000000 0.000000
vt 0.000000 0.000000
vt 0.000000 0.000000
vt 0.000000 0.000000
vt 0.000000 0.000000
vt 0.000000 0.000000
vt 0.000000 0.000000
vt 0.000000 0.000000
vt 0.000000 0.000000
vt 0.000000 0.000000
vt 0.000000 0.000000
vt 0.000000 0.000000
vt 0.000000 0.000000
vt 0.000000 0.000000
vt 0.000000 0.000000
vt 0.000000 0.000000
vt 0.000000 0.000000
vt 0.000000 0.000000
vt 0.000000 0.000000
vt 0.000000 0.000000
vt 0.000000 0.000000
vt 0.000000 0.000000
vt 0.000000 0.000000
vt 0.000000 0.000000
vt 0.000000 0.000000
vt 0.000000 0.000000
vt 0.000000 0.000000
vt 0.000000 0.000000
vt 0.000000 0.000000
vt 0.000000 0.000000
vt 0.000000 0.000000
vt 0.000000 0.000000
vt 0.000000 0.000000
vt 0.000000 0.000000
vt 0.000000 0.000000
vt 0.000000 0.000000
vt 0.000000 0.000000
vt 0.000000 0.000000
vt 0.000000 0.000000
vt 0.000000 0.000000
vt 0.000000 0.000000
vt 0.000000 0.000000
vt 0.000000 0.000000
vt 0.000000 0.000000
vt 0.000000 0.000000
vt 0.000000 0.000000
vt 0.000000 0.000000
vt 0.000000 0.000000
vt 0.000000 0.000000
vt 0.000000 0.000000
vt 0.000000 0.000000
vt 0.000000 0.000000
vt 0.000000 0.000000
vt 0.000000 0.000000
vt 0.000000 0.000000
vt 0.000000 0.000000
vt 0.000000 0.000000
vt 0.000000 0.000000
vt 0.000000 0.000000
vt 0.000000 0.000000
vt 0.000000 0.000000
vt 0.000000 0.000000
vt 0.000000 0.000000
vt 0.000000 0.000000
vt 0.000000 0.000000
vt 0.000000 0.000000
vt 0.000000 0.000000
vt 0.000000 0.000000
vt 0.000000 0.000000
vt 0.000000 0.000000
vt 0.000000 0.000000
vt 0.000000 0.000000
vt 0.000000 0.000000
vt 0.000000 0.000000
vt 0.000000 0.000000
vt 0.000000 0.000000
vt 0.000000 0.000000
vt 0.000000 0.000000
vt 0.000000 0.000000
vt 0.000000 0.000000
vt 0.000000 0.000000
vt 0.000000 0.000000
vt 0.000000 0.000000
vt 0.000000 0.000000
vt 0.000000 0.000000
vt 0.000000 0.000000
vt 0.000000 0.000000
vt 0.000000 0.000000
vt 0.000000 0.000000
vt 0.000000 0.000000
vt 0.000000 0.000000
vt 0.000000 0.000000
vt 0.000000 0.000000
vt 0.000000 0.000000
vt 0.000000 0.000000
vt 0.000000 0.000000
vt 0.000000 0.000000
vt 0.000000 0.000000
vt 0.000000 0.000000
vt 0.000000 0.000000
vt 0.000000 0.000000
vt 0.000000 0.000000
vt 0.000000 0.000000
vt 0.000000 0.000000
vt 0.000000 0.000000
vt 0.000000 0.000000
vt 0.000000 0.000000
vt 0.000000 0.000000
vt 0.000000 0.000000
vt 0.000000 0.000000
vt 0.000000 0.000000
vt 0.000000 0.000000
vt 0.000000 0.000000
vt 0.000000 0.000000
vt 0.000000 0.000000
vt 0.000000 0.000000
vt 0.000000 0.000000
vt 0.000000 0.000000
vt 0.000000 0.000000
vt 0.000000 0.000000
vt 0.000000 0.000000
vt 0.000000 0.000000
vt 0.000000 0.000000
vt 0.000000 0.000000
vt 0.000000 0.000000
vt 0.000000 0.000000
vt 0.000000 0.000000
vt 0.000000 0.000000
vt 0.000000 0.000000
vt 0.000000 0.000000
vt 0.000000 0.000000
vt 0.000000 0.000000
vt 0.000000 0.000000
vt 0.000000 0.000000
vt 0.000000 0.000000
vt 0.000000 0.000000
vt 0.000000 0.000000
vt 0.000000 0.000000
vt 0.000000 0.000000
vt 0.000000 0.000000
vt 0.000000 0.000000
vt 0.000000 0.000000
vt 0.000000 0.000000
vt 0.000000 0.000000
vt 0.000000 0.000000
vt 0.000000 0.000000
vt 0.000000 0.000000
vn 0.387789 0.863439 0.322633
vn 0.455424 0.886061 0.086518
vn 0.013627 0.999741 0.018201
vn 0.793053 0.581510 0.181418
vn 0.455424 0.886061 0.086518
vn 0.387789 0.863439 0.322633
vn 0.793053 0.581510 0.181418
vn 0.387789 0.863439 0.322633
vn 0.654991 0.541252 0.527289
vn 0.109014 0.891310 0.440094
vn 0.387789 0.863439 0.322633
vn 0.013627 0.999741 0.018201
vn 0.654991 0.541252 0.527289
vn 0.387789 0.863439 0.322633
vn 0.109014 0.891310 0.440094
vn 0.654991 0.541252 0.527289
vn 0.109014 0.891310 0.440094
vn 0.214745 0.627716 0.748236
vn -0.277658 0.907493 0.315218
vn 0.109014 0.891310 0.440094
vn 0.013627 0.999741 0.018201
vn 0.214745 0.627716 0.748236
vn 0.109014 0.891310 0.440094
vn -0.277658 0.907493 0.315218
vn 0.214745 0.627716 0.748236
vn -0.277658 0.907493 0.315218
vn -0.493981 0.666320 0.558569
vn 0.584666 0.715854 -0.381730
vn 0.306438 0.930012 -0.202914
vn 0.455424 0.886061 0.086518
vn 0.584666 0.715854 -0.381730
vn 0.455424 0.886061 0.086518
vn 0.793053 0.581510 0.181418
vn 0.455424 0.886061 0.086518
vn 0.306438 0.930012 -0.202914
vn 0.013627 0.999741 0.018201
vn -0.450616 0.892657 -0.010403
vn -0.277658 0.907493 0.315218
vn 0.013627 0.999741 0.018201
vn -0.493981 0.666320 0.558569
vn -0.277658 0.907493 0.315218
vn -0.450616 0.892657 -0.010403
vn -0.493981 0.666320 0.558569
vn -0.450616 0.892657 -0.010403
vn -0.796095 0.604816 -0.020721
vn -0.335814 0.904875 -0.261591
vn -0.450616 0.892657 -0.010403
vn 0.013627 0.999741 0.018201
vn -0.796095 0.604816 -0.020721
vn -0.450616 0.892657 -0.010403
vn -0.335814 0.904875 -0.261591
vn -0.796095 0.604816 -0.020721
vn -0.335814 0.904875 -0.261591
vn -0.622056 0.624733 -0.471969
vn -0.027852 0.938581 -0.343932
vn -0.335814 0.904875 -0.261591
vn 0.013627 0.999741 0.018201
vn -0.622056 0.624733 -0.471969
vn -0.335814 0.904875 -0.261591
vn -0.027852 0.938581 -0.343932
vn -0.622056 0.624733 -0.471969
vn -0.027852 0.938581 -0.343932
vn -0.060066 0.743556 -0.665971
vn -0.060066 0.743556 -0.665971
vn -0.027852 0.938581 -0.343932
vn 0.306438 0.930012 -0.202914
vn -0.060066 0.743556 -0.665971
vn 0.306438 0.930012 -0.202914
vn 0.584666 0.715854 -0.381730
vn 0.306438 0.930012 -0.202914
vn -0.027852 0.938581 -0.343932
vn 0.013627 0.999741 0.018201
vn 0.554233 -0.712711 0.429964
vn 0.215875 -0.962187 0.166116
vn 0.236207 -0.969462 0.065958
vn 0.554233 -0.712711 0.429964
vn 0.236207 -0.969462 0.065958
vn 0.656020 -0.735840 0.167859
vn 0.213400 -0.754740 0.620344
vn 0.081830 -0.974005 0.211228
vn 0.215875 -0.962187 0.166116
vn 0.213400 -0.754740 0.620344
vn 0.215875 -0.962187 0.166116
vn 0.554233 -0.712711 0.429964
vn -0.135477 -0.979508 0.149030
vn -0.135477 -0.979508 0.149030
vn 0.081830 -0.974005 0.211228
vn -0.135477 -0.979508 0.149030
vn 0.081830 -0.974005 0.211228
vn 0.213400 -0.754740 0.620344
vn -0.681132 -0.731670 -0.026810
vn -0.236853 -0.971475 -0.011701
vn -0.135477 -0.979508 0.149030
vn -0.681132 -0.731670 -0.026810
vn -0.135477 -0.979508 0.149030
vn -0.135477 -0.979508 0.149030
vn -0.538915 -0.740503 -0.401529
vn -0.185843 -0.973577 -0.132704
vn -0.236853 -0.971475 -0.011701
vn -0.538915 -0.740503 -0.401529
vn -0.236853 -0.971475 -0.011701
vn -0.681132 -0.731670 -0.026810
vn -0.023227 -0.984106 -0.176058
vn -0.023227 -0.984106 -0.176058
vn -0.185843 -0.973577 -0.132704
vn -0.023227 -0.984106 -0.176058
vn -0.185843 -0.973577 -0.132704
vn -0.538915 -0.740503 -0.401529
vn 0.518380 -0.785309 -0.338484
vn 0.162213 -0.982315 -0.093508
vn -0.023227 -0.984106 -0.176058
vn 0.518380 -0.785309 -0.338484
vn -0.023227 -0.984106 -0.176058
vn -0.023227 -0.984106 -0.176058
vn 0.656020 -0.735840 0.167859
vn 0.236207 -0.969462 0.065958
vn 0.162213 -0.982315 -0.093508
vn 0.656020 -0.735840 0.167859
vn 0.162213 -0.982315 -0.093508
vn 0.518380 -0.785309 -0.338484
vn -0.538915 -0.740503 -0.401529
vn -0.798081 0.047990 -0.600637
vn -0.089482 0.121934 -0.988496
vn -0.538915 -0.740503 -0.401529
vn -0.089482 0.121934 -0.988496
vn -0.083223 -0.351457 -0.932498
vn -0.083223 -0.351457 -0.932498
vn -0.089482 0.121934 -0.988496
vn 0.829802 0.098072 -0.549373
vn -0.083223 -0.351457 -0.932498
vn 0.829802 0.098072 -0.549373
vn 0.518380 -0.785309 -0.338484
vn 0.518380 -0.785309 -0.338484
vn 0.829802 0.098072 -0.549373
vn 0.970995 0.026291 0.237651
vn 0.518380 -0.785309 -0.338484
vn 0.970995 0.026291 0.237651
vn 0.656020 -0.735840 0.167859
vn 0.656020 -0.735840 0.167859
vn 0.970995 0.026291 0.237651
vn 0.786569 0.028560 0.616841
vn 0.656020 -0.735840 0.167859
vn 0.786569 0.028560 0.616841
vn 0.554233 -0.712711 0.429964
vn 0.554233 -0.712711 0.429964
vn 0.786569 0.028560 0.616841
vn 0.304426 0.080732 0.949109
vn 0.554233 -0.712711 0.429964
vn 0.304426 0.080732 0.949109
vn 0.213400 -0.754740 0.620344
vn -0.681132 -0.731670 -0.026810
vn -0.997794 0.056220 -0.035302
vn -0.798081 0.047990 -0.600637
vn -0.681132 -0.731670 -0.026810
vn -0.798081 0.047990 -0.600637
vn -0.538915 -0.740503 -0.401529
vn -0.932354 -0.259664 0.251576
vn -0.663817 0.111910 0.739475
vn -0.997794 0.056220 -0.035302
vn -0.932354 -0.259664 0.251576
vn -0.997794 0.056220 -0.035302
vn -0.681132 -0.731670 -0.026810
vn 0.213400 -0.754740 0.620344
vn 0.304426 0.080732 0.949109
vn -0.663817 0.111910 0.739475
vn 0.213400 -0.754740 0.620344
vn -0.663817 0.111910 0.739475
vn -0.158786 -0.270234 0.949611
vn 0.214745 0.627716 0.748236
vn 0.304426 0.080732 0.949109
vn 0.786569 0.028560 0.616841
vn 0.214745 0.627716 0.748236
vn 0.786569 0.028560 0.616841
vn 0.654991 0.541252 0.527289
vn -0.493981 0.666320 0.558569
vn -0.663817 0.111910 0.739475
vn 0.304426 0.080732 0.949109
vn -0.493981 0.666320 0.558569
vn 0.304426 0.080732 0.949109
vn 0.214745 0.627716 0.748236
vn -0.796095 0.604816 -0.020721
vn -0.997794 0.056220 -0.035302
vn -0.663817 0.111910 0.739475
vn -0.796095 0.604816 -0.020721
vn -0.663817 0.111910 0.739475
vn -0.493981 0.666320 0.558569
vn -0.622056 0.624733 -0.471969
vn -0.798081 0.047990 -0.600637
vn -0.997794 0.056220 -0.035302
vn -0.622056 0.624733 -0.471969
vn -0.997794 0.056220 -0.035302
vn -0.796095 0.604816 -0.020721
vn -0.060066 0.743556 -0.665971
vn -0.089482 0.121934 -0.988496
vn -0.798081 0.047990 -0.600637
vn -0.060066 0.743556 -0.665971
vn -0.798081 0.047990 -0.600637
vn -0.622056 0.624733 -0.471969
vn 0.584666 0.715854 -0.381730
vn 0.829802 0.098072 -0.549373
vn -0.089482 0.121934 -0.988496
vn 0.584666 0.715854 -0.381730
vn -0.089482 0.121934 -0.988496
vn -0.060066 0.743556 -0.665971
vn 0.793053 0.581510 0.181418
vn 0.970995 0.026291 0.237651
vn 0.829802 0.098072 -0.549373
vn 0.793053 0.581510 0.181418
vn 0.829802 0.098072 -0.549373
vn 0.584666 0.715854 -0.381730
vn 0.654991 0.541252 0.527289
vn 0.786569 0.028560 0.616841
vn 0.970995 0.026291 0.237651
vn 0.654991 0.541252 0.527289
vn 0.970995 0.026291 0.237651
vn 0.793053 0.581510 0.181418
f 17/1/1 3/2/2 1/3/3
f 40/4/4 3/5/5 17/6/6
f 40/7/7 17/8/8 41/9/9
f 15/10/10 17/11/11 1/12/12
f 41/13/13 17/14/14 15/15/15
f 41/16/16 15/17/17 35/18/18
f 13/19/19 15/20/20 1/21/21
f 35/22/22 15/23/23 13/24/24
f 35/25/25 13/26/26 34/27/27
f 39/28/28 5/29/29 3/30/30
f 39/31/31 3/32/32 40/33/33
f 3/34/34 5/35/35 1/36/36
f 11/37/37 13/38/38 1/39/39
f 34/40/40 13/41/41 11/42/42
f 34/43/43 11/44/44 36/45/45
f 9/46/46 11/47/47 1/48/48
f 36/49/49 11/50/50 9/51/51
f 36/52/52 9/53/53 37/54/54
f 7/55/55 9/56/56 1/57/57
f 37/58/58 9/59/59 7/60/60
f 37/61/61 7/62/62 38/63/63
f 38/64/64 7/65/65 5/66/66
f 38/67/67 5/68/68 39/69/69
f 5/70/70 7/71/71 1/72/72
f 30/73/73 16/74/74 2/75/75
f 30/76/76 2/77/77 29/78/78
f 31/79/79 14/80/80 16/81/81
f 31/82/82 16/83/83 30/84/84
f 32/85/85 12/86/86 14/87/87
f 32/88/88 14/89/89 31/90/90
f 33/91/91 10/92/92 12/93/93
f 33/94/94 12/95/95 32/96/96
f 26/97/97 8/98/98 10/99/99
f 26/100/100 10/101/101 33/102/102
f 27/103/103 6/104/104 8/105/105
f 27/106/106 8/107/107 26/108/108
f 28/109/109 4/110/110 6/111/111
f 28/112/112 6/113/113 27/114/114
f 29/115/115 2/116/116 4/117/117
f 29/118/118 4/119/119 28/120/120
f 26/121/121 25/122/122 24/123/123
f 26/124/124 24/125/125 27/126/126
f 27/127/127 24/128/128 20/129/129
f 27/130/130 20/131/131 28/132/132
f 28/133/133 20/134/134 18/135/135
f 28/136/136 18/137/137 29/138/138
f 29/139/139 18/140/140 22/141/141
f 29/142/142 22/143/143 30/144/144
f 30/145/145 22/146/146 19/147/147
f 30/148/148 19/149/149 31/150/150
f 33/151/151 23/152/152 25/153/153
f 33/154/154 25/155/155 26/156/156
f 32/157/157 21/158/158 23/159/159
f 32/160/160 23/161/161 33/162/162
f 31/163/163 19/164/164 21/165/165
f 31/166/166 21/167/167 32/168/168
f 35/169/169 19/170/170 22/171/171
f 35/172/172 22/173/173 41/174/174
f 34/175/175 21/176/176 19/177/177
f 34/178/178 19/179/179 35/180/180
f 36/181/181 23/182/182 21/183/183
f 36/184/184 21/185/185 34/186/186
f 37/187/187 25/188/188 23/189/189
f 37/190/190 23/191/191 36/192/192
f 38/193/193 24/194/194 25/195/195
f 38/196/196 25/197/197 37/198/198
f 39/199/199 20/200/200 24/201/201
f 39/202/202 24/203/203 38/204/204
f 40/205/205 18/206/206 20/207/207
f 40/208/208 20/209/209 39/210/210
f 41/211/211 22/212/212 18/213/213
f 41/214/214 18/215/215 40/216/216
