v -4.992023 25.133785 2.936950
v -0.000000 2.999171 2.934631
v 0.002316 0.432424 1.056425
v -6.815322 25.878967 3.010569
v -3.851623 2.999171 1.029000
v -5.996355 5.648702 1.041481
v -7.695034 8.850218 1.026655
v -9.856166 27.507326 1.080146
v -9.256649 17.792381 1.045656
v -8.651935 12.934910 0.996054
v -0.000000 17.792381 2.964373
v -0.000000 5.648702 2.980469
v -0.000000 8.850218 2.964373
v -0.000000 12.934910 2.964373
v -5.481047 12.934910 2.932223
v -6.227714 17.792381 3.005057
v -4.447853 8.850218 2.947524
v -2.674376 5.648702 2.977064
v 4.992023 25.133785 2.936951
v 6.815322 25.878967 3.010570
v 3.851623 2.999171 1.029001
v 5.996355 5.648702 1.041482
v 7.695034 8.850218 1.026656
v 9.856166 27.507326 1.080148
v 9.256649 17.792381 1.045657
v 8.651935 12.934910 0.996055
v 5.481047 12.934910 2.932224
v 6.227714 17.792381 3.005058
v 4.447852 8.850218 2.947525
v 2.674376 5.648702 2.977065
v -0.000000 24.526600 2.947057
vt 0.000000 0.000000
vt 0.000000 0.000000
vt 0.000000 0.000000
vt 0.000000 0.000000
vt 0.000000 0.000000
vt 0.000000 0.000000
vt 0.000000 0.000000
vt 0.000000 0.000000
vt 0.000000 0.000000
vt 0.000000 0.000000
vt 0.000000 0.000000
vt 0.000000 0.000000
vt 0.000000 0.000000
vt 0.000000 0.000000
vt 0.000000 0.000000
vt 0.000000 0.000000
vt 0.000000 0.000000
vt 0.000000 0.000000
vt 0.000000 0.000000
vt 0.000000 0.000000
vt 0.000000 0.000000
vt 0.000000 0.000000
vt 0.000000 0.000000
vt 0.000000 0.000000
vt 0.000000 0.000000
vt 0.000000 0.000000
vt 0.000000 0.000000
vt 0.000000 0.000000
vt 0.000000 0.000000
vt 0.000000 0.000000
vt 0.000000 0.000000
vt 0.000000 0.000000
vt 0.000000 0.000000
vt 0.000000 0.000000
vt 0.000000 0.000000
vt 0.000000 0.000000
vt 0.000000 0.000000
vt 0.000000 0.000000
vt 0.000000 0.000000
vt 0.000000 0.000000
vt 0.000000 0.000000
vt 0.000000 0.000000
vt 0.000000 0.000000
vt 0.000000 0.000000
vt 0.000000 0.000000
vt 0.000000 0.000000
vt 0.000000 0.000000
vt 0.000000 0.000000
vt 0.000000 0.000000
vt 0.000000 0.000000
vt 0.000000 0.000000
vt 0.000000 0.000000
vt 0.000000 0.000000
vt 0.000000 0.000000
vt 0.000000 0.000000
vt 0.000000 0.000000
vt 0.000000 0.000000
vt 0.000000 0.000000
vt 0.000000 0.000000
vt 0.000000 0.000000
vt 0.000000 0.000000
vt 0.000000 0.000000
vt 0.000000 0.000000
vt 0.000000 0.000000
vt 0.000000 0.000000
vt 0.000000 0.000000
vt 0.000000 0.000000
vt 0.000000 0.000000
vt 0.000000 0.000000
vt 0.000000 0.000000
vt 0.000000 0.000000
vt 0.000000 0.000000
vt 0.000000 0.000000
vt 0.000000 0.000000
vt 0.000000 0.000000
vt 0.000000 0.000000
vt 0.000000 0.000000
vt 0.000000 0.000000
vt 0.000000 0.000000
vt 0.000000 0.000000
vt 0.000000 0.000000
vt 0.000000 0.000000
vt 0.000000 0.000000
vt 0.000000 0.000000
vt 0.000000 0.000000
vt 0.000000 0.000000
vt 0.000000 0.000000
vt 0.000000 0.000000
vt 0.000000 0.000000
vt 0.000000 0.000000
vt 0.000000 0.000000
vt 0.000000 0.000000
vt 0.000000 0.000000
vt 0.000000 0.000000
vt 0.000000 0.000000
vt 0.000000 0.000000
vt 0.000000 0.000000
vt 0.000000 0.000000
vt 0.000000 0.000000
vt 0.000000 0.000000
vt 0.000000 0.000000
vt 0.000000 0.000000
vt 0.000000 0.000000
vt 0.000000 0.000000
vt 0.000000 0.000000
vt 0.000000 0.000000
vt 0.000000 0.000000
vt 0.000000 0.000000
vt 0.000000 0.000000
vt 0.000000 0.000000
vt 0.000000 0.000000
vt 0.000000 0.000000
vt 0.000000 0.000000
vt 0.000000 0.000000
vt 0.000000 0.000000
vt 0.000000 0.000000
vt 0.000000 0.000000
vt 0.000000 0.000000
vt 0.000000 0.000000
vt 0.000000 0.000000
vt 0.000000 0.000000
vt 0.000000 0.000000
vt 0.000000 0.000000
vt 0.000000 0.000000
vt 0.000000 0.000000
vt 0.000000 0.000000
vn -0.402989 -0.476819 0.781181
vn -0.402989 -0.476819 0.781181
vn -0.370746 -0.548663 0.749344
vn -0.546433 -0.038320 0.836626
vn -0.546433 -0.038320 0.836626
vn -0.538446 -0.061367 0.840423
vn -0.546433 -0.038320 0.836626
vn -0.538446 -0.061367 0.840423
vn -0.538446 -0.061367 0.840423
vn 0.011920 0.001719 0.999927
vn -0.000000 -0.002435 0.999997
vn -0.000000 0.005998 0.999982
vn -0.462024 -0.331448 0.822603
vn -0.462024 -0.331448 0.822603
vn -0.402989 -0.476819 0.781181
vn -0.462024 -0.331448 0.822603
vn -0.402989 -0.476819 0.781181
vn -0.402989 -0.476819 0.781181
vn -0.000000 -0.017298 0.999850
vn -0.000000 -0.005480 0.999985
vn -0.002058 -0.005480 0.999983
vn -0.002058 -0.005480 0.999983
vn -0.000000 -0.005480 0.999985
vn -0.000000 0.003794 0.999993
vn -0.002058 -0.005480 0.999983
vn -0.000000 0.003794 0.999993
vn -0.003889 0.003794 0.999985
vn -0.003889 0.003794 0.999985
vn -0.000000 0.003794 0.999993
vn -0.000000 -0.003096 0.999995
vn -0.003889 0.003794 0.999985
vn -0.000000 -0.003096 0.999995
vn -0.002103 -0.003096 0.999993
vn -0.538446 -0.061367 0.840423
vn -0.538446 -0.061367 0.840423
vn -0.520871 -0.102107 0.847507
vn -0.538446 -0.061367 0.840423
vn -0.520871 -0.102107 0.847507
vn -0.520871 -0.102107 0.847507
vn -0.520871 -0.102107 0.847507
vn -0.520871 -0.102107 0.847507
vn -0.501441 -0.190064 0.844057
vn -0.520871 -0.102107 0.847507
vn -0.501441 -0.190064 0.844057
vn -0.501441 -0.190064 0.844057
vn -0.501441 -0.190064 0.844057
vn -0.501441 -0.190064 0.844057
vn -0.462024 -0.331448 0.822603
vn -0.501441 -0.190064 0.844057
vn -0.462024 -0.331448 0.822603
vn -0.462024 -0.331448 0.822603
vn -0.002103 -0.003096 0.999993
vn -0.000000 -0.003096 0.999995
vn -0.000000 -0.002435 0.999997
vn -0.002103 -0.003096 0.999993
vn -0.000000 -0.002435 0.999997
vn 0.011920 0.001719 0.999927
vn 0.370882 -0.548195 0.749619
vn 0.403048 -0.476573 0.781301
vn 0.403048 -0.476573 0.781301
vn 0.538446 -0.061367 0.840423
vn 0.538446 -0.061367 0.840423
vn 0.546433 -0.038320 0.836626
vn 0.538446 -0.061367 0.840423
vn 0.546433 -0.038320 0.836626
vn 0.546433 -0.038320 0.836626
vn -0.000000 0.005998 0.999982
vn -0.000000 -0.002435 0.999997
vn -0.011920 0.001719 0.999927
vn 0.403048 -0.476573 0.781301
vn 0.403048 -0.476573 0.781301
vn 0.462024 -0.331448 0.822603
vn 0.403048 -0.476573 0.781301
vn 0.462024 -0.331448 0.822603
vn 0.462024 -0.331448 0.822603
vn 0.002058 -0.005480 0.999983
vn -0.000000 -0.005480 0.999985
vn -0.000000 -0.017298 0.999850
vn 0.003889 0.003794 0.999985
vn -0.000000 0.003794 0.999993
vn -0.000000 -0.005480 0.999985
vn 0.003889 0.003794 0.999985
vn -0.000000 -0.005480 0.999985
vn 0.002058 -0.005480 0.999983
vn 0.002103 -0.003096 0.999993
vn -0.000000 -0.003096 0.999995
vn -0.000000 0.003794 0.999993
vn 0.002103 -0.003096 0.999993
vn -0.000000 0.003794 0.999993
vn 0.003889 0.003794 0.999985
vn 0.520871 -0.102107 0.847507
vn 0.520871 -0.102107 0.847507
vn 0.538446 -0.061367 0.840423
vn 0.520871 -0.102107 0.847507
vn 0.538446 -0.061367 0.840423
vn 0.538446 -0.061367 0.840423
vn 0.501441 -0.190064 0.844057
vn 0.501441 -0.190064 0.844057
vn 0.520871 -0.102107 0.847507
vn 0.501441 -0.190064 0.844057
vn 0.520871 -0.102107 0.847507
vn 0.520871 -0.102107 0.847507
vn 0.462024 -0.331448 0.822603
vn 0.462024 -0.331448 0.822603
vn 0.501441 -0.190064 0.844057
vn 0.462024 -0.331448 0.822603
vn 0.501441 -0.190064 0.844057
vn 0.501441 -0.190064 0.844057
vn -0.011920 0.001719 0.999927
vn -0.000000 -0.002435 0.999997
vn -0.000000 -0.003096 0.999995
vn -0.011920 0.001719 0.999927
vn -0.000000 -0.003096 0.999995
vn 0.002103 -0.003096 0.999993
vn 0.020211 0.005873 0.999779
vn 0.041290 0.002319 0.999144
vn 0.011920 0.001719 0.999927
vn -0.000000 0.005998 0.999982
vn 0.020211 0.005873 0.999779
vn 0.011920 0.001719 0.999927
vn -0.011920 0.001719 0.999927
vn -0.041290 0.002319 0.999144
vn -0.020211 0.005873 0.999779
vn -0.020211 0.005873 0.999779
vn -0.000000 0.005998 0.999982
vn -0.011920 0.001719 0.999927
f 2/1/1 5/2/2 3/3/3
f 4/4/4 8/5/5 9/6/6
f 4/7/7 9/8/8 16/9/9
f 16/10/10 11/11/11 31/12/12
f 18/13/13 6/14/14 5/15/15
f 18/16/16 5/17/17 2/18/18
f 2/19/19 12/20/20 18/21/21
f 18/22/22 12/23/23 13/24/24
f 18/25/25 13/26/26 17/27/27
f 17/28/28 13/29/29 14/30/30
f 17/31/31 14/32/32 15/33/33
f 16/34/34 9/35/35 10/36/36
f 16/37/37 10/38/38 15/39/39
f 15/40/40 10/41/41 7/42/42
f 15/43/43 7/44/44 17/45/45
f 17/46/46 7/47/47 6/48/48
f 17/49/49 6/50/50 18/51/51
f 15/52/52 14/53/53 11/54/54
f 15/55/55 11/56/56 16/57/57
f 3/58/58 21/59/59 2/60/60
f 28/61/61 25/62/62 24/63/63
f 28/64/64 24/65/65 20/66/66
f 31/67/67 11/68/68 28/69/69
f 2/70/70 21/71/71 22/72/72
f 2/73/73 22/74/74 30/75/75
f 30/76/76 12/77/77 2/78/78
f 29/79/79 13/80/80 12/81/81
f 29/82/82 12/83/83 30/84/84
f 27/85/85 14/86/86 13/87/87
f 27/88/88 13/89/89 29/90/90
f 27/91/91 26/92/92 25/93/93
f 27/94/94 25/95/95 28/96/96
f 29/97/97 23/98/98 26/99/99
f 29/100/100 26/101/101 27/102/102
f 30/103/103 22/104/104 23/105/105
f 30/106/106 23/107/107 29/108/108
f 28/109/109 11/110/110 14/111/111
f 28/112/112 14/113/113 27/114/114
f 1/115/115 4/116/116 16/117/117
f 31/118/118 1/119/119 16/120/120
f 28/121/121 20/122/122 19/123/123
f 19/124/124 31/125/125 28/126/126
