v -16.000000 1.802131 -16.000000
v -16.000000 1.843884 -8.000000
v -16.000000 2.086595 0.000000
v -16.000000 1.506834 8.000000
v -16.000000 0.866504 16.000000
v -8.000000 1.804667 -16.000000
v -7.611187 3.931655 -10.602460
v -4.565493 14.932308 1.445130
v -9.438054 4.303868 10.158599
v -8.000000 1.720993 16.000000
v 0.000000 1.232265 -16.000000
v 0.910042 1.728119 -11.152789
v 0.027414 2.053771 -1.871014
v 0.000000 1.861082 8.000000
v 0.000000 0.966115 16.000000
v 8.000000 0.417139 -16.000000
v 8.000000 1.135605 -8.000000
v 8.000000 0.963562 0.000000
v 8.000000 0.284044 8.000000
v 8.000000 0.000000 16.000000
v 16.000000 0.000000 -16.000000
v 16.000000 0.000000 -8.000000
v 16.000000 0.000000 0.000000
v 16.000000 0.000000 8.000000
v 16.000000 0.000000 16.000000
v -3.846311 7.769042 -0.030474
v -8.085293 10.858438 3.549736
v -10.908644 9.489953 -1.649682
v -6.491471 9.282112 -5.383900
v -8.847057 15.743455 3.119957
v -5.690368 14.786678 4.431237
v -2.977785 13.568303 1.733070
v -7.053815 14.756167 0.057640
v -13.846849 3.928813 -2.879958
v -7.721931 7.086660 6.487476
v -7.721931 6.289724 -5.512524
v -12.532179 3.920287 -11.824171
v -1.695442 3.432903 0.220905
v -12.945331 3.421147 6.008179
v -3.695441 4.102894 8.220904
v -3.695441 3.936202 -7.779097
v -3.261036 4.811610 -4.229635
v -3.426433 11.358759 -3.078310
v -3.674108 14.167844 -0.854224
v -1.247792 3.920775 -5.362922
vt 0.000000 0.000000
vt 0.000000 0.000000
vt 0.000000 0.000000
vt 0.000000 0.000000
vt 0.000000 0.000000
vt 0.000000 0.000000
vt 0.000000 0.000000
vt 0.000000 0.000000
vt 0.000000 0.000000
vt 0.000000 0.000000
vt 0.000000 0.000000
vt 0.000000 0.000000
vt 0.000000 0.000000
vt 0.000000 0.000000
vt 0.000000 0.000000
vt 0.000000 0.000000
vt 0.000000 0.000000
vt 0.000000 0.000000
vt 0.000000 0.000000
vt 0.000000 0.000000
vt 0.000000 0.000000
vt 0.000000 0.000000
vt 0.000000 0.000000
vt 0.000000 0.000000
vt 0.000000 0.000000
vt 0.000000 0.000000
vt 0.000000 0.000000
vt 0.000000 0.000000
vt 0.000000 0.000000
vt 0.000000 0.000000
vt 0.000000 0.000000
vt 0.000000 0.000000
vt 0.000000 0.000000
vt 0.000000 0.000000
vt 0.000000 0.000000
vt 0.000000 0.000000
vt 0.000000 0.000000
vt 0.000000 0.000000
vt 0.000000 0.000000
vt 0.000000 0.000000
vt 0.000000 0.000000
vt 0.000000 0.000000
vt 0.000000 0.000000
vt 0.000000 0.000000
vt 0.000000 0.000000
vt 0.000000 0.000000
vt 0.000000 0.000000
vt 0.000000 0.000000
vt 0.000000 0.000000
vt 0.000000 0.000000
vt 0.000000 0.000000
vt 0.000000 0.000000
vt 0.000000 0.000000
vt 0.000000 0.000000
vt 0.000000 0.000000
vt 0.000000 0.000000
vt 0.000000 0.000000
vt 0.000000 0.000000
vt 0.000000 0.000000
vt 0.000000 0.000000
vt 0.000000 0.000000
vt 0.000000 0.000000
vt 0.000000 0.000000
vt 0.000000 0.000000
vt 0.000000 0.000000
vt 0.000000 0.000000
vt 0.000000 0.000000
vt 0.000000 0.000000
vt 0.000000 0.000000
vt 0.000000 0.000000
vt 0.000000 0.000000
vt 0.000000 0.000000
vt 0.000000 0.000000
vt 0.000000 0.000000
vt 0.000000 0.000000
vt 0.000000 0.000000
vt 0.000000 0.000000
vt 0.000000 0.000000
vt 0.000000 0.000000
vt 0.000000 0.000000
vt 0.000000 0.000000
vt 0.000000 0.000000
vt 0.000000 0.000000
vt 0.000000 0.000000
vt 0.000000 0.000000
vt 0.000000 0.000000
vt 0.000000 0.000000
vt 0.000000 0.000000
vt 0.000000 0.000000
vt 0.000000 0.000000
vt 0.000000 0.000000
vt 0.000000 0.000000
vt 0.000000 0.000000
vt 0.000000 0.000000
vt 0.000000 0.000000
vt 0.000000 0.000000
vt 0.000000 0.000000
vt 0.000000 0.000000
vt 0.000000 0.000000
vt 0.000000 0.000000
vt 0.000000 0.000000
vt 0.000000 0.000000
vt 0.000000 0.000000
vt 0.000000 0.000000
vt 0.000000 0.000000
vt 0.000000 0.000000
vt 0.000000 0.000000
vt 0.000000 0.000000
vt 0.000000 0.000000
vt 0.000000 0.000000
vt 0.000000 0.000000
vt 0.000000 0.000000
vt 0.000000 0.000000
vt 0.000000 0.000000
vt 0.000000 0.000000
vt 0.000000 0.000000
vt 0.000000 0.000000
vt 0.000000 0.000000
vt 0.000000 0.000000
vt 0.000000 0.000000
vt 0.000000 0.000000
vt 0.000000 0.000000
vt 0.000000 0.000000
vt 0.000000 0.000000
vt 0.000000 0.000000
vt 0.000000 0.000000
vt 0.000000 0.000000
vt 0.000000 0.000000
vt 0.000000 0.000000
vt 0.000000 0.000000
vt 0.000000 0.000000
vt 0.000000 0.000000
vt 0.000000 0.000000
vt 0.000000 0.000000
vt 0.000000 0.000000
vt 0.000000 0.000000
vt 0.000000 0.000000
vt 0.000000 0.000000
vt 0.000000 0.000000
vt 0.000000 0.000000
vt 0.000000 0.000000
vt 0.000000 0.000000
vt 0.000000 0.000000
vt 0.000000 0.000000
vt 0.000000 0.000000
vt 0.000000 0.000000
vt 0.000000 0.000000
vt 0.000000 0.000000
vt 0.000000 0.000000
vt 0.000000 0.000000
vt 0.000000 0.000000
vt 0.000000 0.000000
vt 0.000000 0.000000
vt 0.000000 0.000000
vt 0.000000 0.000000
vt 0.000000 0.000000
vt 0.000000 0.000000
vt 0.000000 0.000000
vt 0.000000 0.000000
vt 0.000000 0.000000
vt 0.000000 0.000000
vt 0.000000 0.000000
vt 0.000000 0.000000
vt 0.000000 0.000000
vt 0.000000 0.000000
vt 0.000000 0.000000
vt 0.000000 0.000000
vt 0.000000 0.000000
vt 0.000000 0.000000
vt 0.000000 0.000000
vt 0.000000 0.000000
vt 0.000000 0.000000
vt 0.000000 0.000000
vt 0.000000 0.000000
vt 0.000000 0.000000
vt 0.000000 0.000000
vt 0.000000 0.000000
vt 0.000000 0.000000
vt 0.000000 0.000000
vt 0.000000 0.000000
vt 0.000000 0.000000
vt 0.000000 0.000000
vt 0.000000 0.000000
vt 0.000000 0.000000
vt 0.000000 0.000000
vt 0.000000 0.000000
vt 0.000000 0.000000
vt 0.000000 0.000000
vt 0.000000 0.000000
vt 0.000000 0.000000
vt 0.000000 0.000000
vt 0.000000 0.000000
vt 0.000000 0.000000
vt 0.000000 0.000000
vt 0.000000 0.000000
vt 0.000000 0.000000
vt 0.000000 0.000000
vt 0.000000 0.000000
vt 0.000000 0.000000
vt 0.000000 0.000000
vt 0.000000 0.000000
vt 0.000000 0.000000
vt 0.000000 0.000000
vt 0.000000 0.000000
vt 0.000000 0.000000
vt 0.000000 0.000000
vt 0.000000 0.000000
vt 0.000000 0.000000
vt 0.000000 0.000000
vt 0.000000 0.000000
vt 0.000000 0.000000
vt 0.000000 0.000000
vt 0.000000 0.000000
vt 0.000000 0.000000
vt 0.000000 0.000000
vt 0.000000 0.000000
vn -0.275463 0.930087 -0.243021
vn -0.568813 0.821841 -0.032083
vn -0.235918 0.941085 -0.242285
vn -0.103743 0.961723 -0.253624
vn 0.352754 0.935191 -0.031337
vn -0.176852 0.796257 -0.578531
vn 0.428537 0.880111 0.204353
vn 0.352754 0.935191 -0.031337
vn -0.103743 0.961723 -0.253624
vn -0.331354 0.919915 0.209670
vn 0.062446 0.929938 0.362375
vn -0.122881 0.912715 0.389680
vn 0.156184 0.921712 -0.355040
vn 0.279430 0.917643 -0.282579
vn 0.313661 0.943304 -0.108601
vn 0.156184 0.921712 -0.355040
vn 0.313661 0.943304 -0.108601
vn 0.138551 0.963626 -0.228534
vn 0.352754 0.935191 -0.031337
vn 0.892183 0.451563 0.010016
vn 0.484721 0.784456 -0.386878
vn -0.256162 0.829754 0.495873
vn -0.122881 0.912715 0.389680
vn 0.408304 0.867789 0.283250
vn -0.122881 0.912715 0.389680
vn 0.062446 0.929938 0.362375
vn 0.189243 0.964643 0.183443
vn -0.122881 0.912715 0.389680
vn 0.189243 0.964643 0.183443
vn 0.348569 0.931872 0.100565
vn -0.122881 0.912715 0.389680
vn 0.348569 0.931872 0.100565
vn 0.408304 0.867789 0.283250
vn 0.138551 0.963626 -0.228534
vn 0.313661 0.943304 -0.108601
vn 0.113120 0.992976 -0.034673
vn 0.138551 0.963626 -0.228534
vn 0.113120 0.992976 -0.034673
vn 0.104992 0.991784 -0.073083
vn 0.313661 0.943304 -0.108601
vn 0.504787 0.861856 0.048932
vn 0.119779 0.992496 0.024573
vn 0.313661 0.943304 -0.108601
vn 0.119779 0.992496 0.024573
vn 0.113120 0.992976 -0.034673
vn 0.504787 0.861856 0.048932
vn 0.348569 0.931872 0.100565
vn 0.102946 0.993653 0.045339
vn 0.504787 0.861856 0.048932
vn 0.102946 0.993653 0.045339
vn 0.119779 0.992496 0.024573
vn 0.348569 0.931872 0.100565
vn 0.189243 0.964643 0.183443
vn 0.087401 0.995143 0.045292
vn 0.348569 0.931872 0.100565
vn 0.087401 0.995143 0.045292
vn 0.102946 0.993653 0.045339
vn 0.104992 0.991784 -0.073083
vn 0.113120 0.992976 -0.034673
vn 0.113346 0.993410 -0.017003
vn 0.104992 0.991784 -0.073083
vn 0.113346 0.993410 -0.017003
vn 0.096496 0.994331 -0.044650
vn 0.113120 0.992976 -0.034673
vn 0.119779 0.992496 0.024573
vn 0.103922 0.994233 0.026495
vn 0.113120 0.992976 -0.034673
vn 0.103922 0.994233 0.026495
vn 0.113346 0.993410 -0.017003
vn 0.119779 0.992496 0.024573
vn 0.102946 0.993653 0.045339
vn 0.047734 0.998408 0.030041
vn 0.119779 0.992496 0.024573
vn 0.047734 0.998408 0.030041
vn 0.103922 0.994233 0.026495
vn 0.102946 0.993653 0.045339
vn 0.087401 0.995143 0.045292
vn 0.017747 0.999685 0.017747
vn 0.102946 0.993653 0.045339
vn 0.017747 0.999685 0.017747
vn 0.047734 0.998408 0.030041
vn 0.090600 0.949857 -0.299270
vn 0.156184 0.921712 -0.355040
vn -0.235918 0.941085 -0.242285
vn 0.313661 0.943304 -0.108601
vn 0.279430 0.917643 -0.282579
vn 0.529621 0.846781 -0.049642
vn 0.892183 0.451563 0.010016
vn 0.352754 0.935191 -0.031337
vn 0.428537 0.880111 0.204353
vn -0.618175 0.778979 0.105120
vn -0.576606 0.816940 0.011593
vn -0.514089 0.854367 0.075960
vn -0.618175 0.778979 0.105120
vn -0.514089 0.854367 0.075960
vn -0.513014 0.846962 0.139540
vn -0.755105 0.060241 0.652830
vn -0.377684 0.022543 0.925660
vn -0.658244 -0.036493 0.751920
vn 0.487436 -0.397545 0.777409
vn 0.506719 -0.470970 0.722096
vn 0.695437 0.014314 0.718444
vn 0.892183 0.451563 0.010016
vn 0.922292 0.043198 0.384072
vn 0.734407 0.388264 -0.556684
vn -0.556309 0.547544 -0.625072
vn -0.103743 0.961723 -0.253624
vn -0.176852 0.796257 -0.578531
vn -0.256162 0.829754 0.495873
vn -0.755105 0.060241 0.652830
vn -0.875193 0.167262 0.453938
vn 0.714582 0.675026 0.183612
vn 0.922292 0.043198 0.384072
vn 0.695437 0.014314 0.718444
vn 0.734407 0.388264 -0.556684
vn 0.922292 0.043198 0.384072
vn 0.714582 0.675026 0.183612
vn 0.734407 0.388264 -0.556684
vn 0.714582 0.675026 0.183612
vn 0.663815 0.545367 -0.511786
vn -0.516105 0.341769 -0.785385
vn -0.556309 0.547544 -0.625072
vn -0.135402 0.397748 -0.907449
vn -0.513014 0.846962 0.139540
vn -0.122881 0.912715 0.389680
vn -0.256162 0.829754 0.495873
vn -0.256162 0.829754 0.495873
vn -0.618175 0.778979 0.105120
vn -0.513014 0.846962 0.139540
vn 0.348569 0.931872 0.100565
vn 0.504787 0.861856 0.048932
vn 0.714582 0.675026 0.183612
vn 0.714582 0.675026 0.183612
vn -0.256162 0.829754 0.495873
vn 0.408304 0.867789 0.283250
vn 0.279430 0.917643 -0.282579
vn 0.156184 0.921712 -0.355040
vn 0.090600 0.949857 -0.299270
vn 0.663815 0.545367 -0.511786
vn 0.714582 0.675026 0.183612
vn 0.529621 0.846781 -0.049642
vn -0.235918 0.941085 -0.242285
vn -0.568813 0.821841 -0.032083
vn -0.576606 0.816940 0.011593
vn -0.235918 0.941085 -0.242285
vn -0.576606 0.816940 0.011593
vn -0.618175 0.778979 0.105120
vn -0.618175 0.778979 0.105120
vn 0.090600 0.949857 -0.299270
vn -0.235918 0.941085 -0.242285
vn -0.513014 0.846962 0.139540
vn -0.514089 0.854367 0.075960
vn -0.331354 0.919915 0.209670
vn -0.122881 0.912715 0.389680
vn -0.513014 0.846962 0.139540
vn -0.331354 0.919915 0.209670
vn 0.529621 0.846781 -0.049642
vn 0.279430 0.917643 -0.282579
vn 0.090600 0.949857 -0.299270
vn 0.529621 0.846781 -0.049642
vn 0.090600 0.949857 -0.299270
vn 0.663815 0.545367 -0.511786
vn 0.663815 0.545367 -0.511786
vn -0.108724 0.087271 -0.990234
vn -0.135402 0.397748 -0.907449
vn 0.734407 0.388264 -0.556684
vn -0.135402 0.397748 -0.907449
vn -0.176852 0.796257 -0.578531
vn 0.484721 0.784456 -0.386878
vn -0.176852 0.796257 -0.578531
vn 0.352754 0.935191 -0.031337
vn 0.529621 0.846781 -0.049642
vn 0.714582 0.675026 0.183612
vn 0.504787 0.861856 0.048932
vn 0.504787 0.861856 0.048932
vn 0.313661 0.943304 -0.108601
vn 0.529621 0.846781 -0.049642
vn 0.714582 0.675026 0.183612
vn 0.408304 0.867789 0.283250
vn 0.348569 0.931872 0.100565
vn -0.235918 0.941085 -0.242285
vn 0.156184 0.921712 -0.355040
vn 0.052059 0.915793 -0.398263
vn 0.052059 0.915793 -0.398263
vn -0.275463 0.930087 -0.243021
vn -0.235918 0.941085 -0.242285
vn 0.138551 0.963626 -0.228534
vn 0.052059 0.915793 -0.398263
vn 0.156184 0.921712 -0.355040
vn -0.135402 0.397748 -0.907449
vn 0.734407 0.388264 -0.556684
vn 0.663815 0.545367 -0.511786
vn -0.135402 0.397748 -0.907449
vn -0.108724 0.087271 -0.990234
vn -0.516105 0.341769 -0.785385
vn -0.875193 0.167262 0.453938
vn -0.618175 0.778979 0.105120
vn -0.256162 0.829754 0.495873
vn 0.695437 0.014314 0.718444
vn -0.256162 0.829754 0.495873
vn 0.714582 0.675026 0.183612
vn 0.695437 0.014314 0.718444
vn 0.922292 0.043198 0.384072
vn 0.487436 -0.397545 0.777409
vn 0.734407 0.388264 -0.556684
vn 0.484721 0.784456 -0.386878
vn 0.892183 0.451563 0.010016
vn -0.176852 0.796257 -0.578531
vn 0.484721 0.784456 -0.386878
vn 0.734407 0.388264 -0.556684
vn -0.176852 0.796257 -0.578531
vn -0.135402 0.397748 -0.907449
vn -0.556309 0.547544 -0.625072
vn -0.658244 -0.036493 0.751920
vn -0.875193 0.167262 0.453938
vn -0.755105 0.060241 0.652830
f 1/1/1 2/2/2 37/3/3
f 30/4/4 8/5/5 33/6/6
f 31/7/7 8/8/8 30/9/9
f 5/10/10 10/11/11 9/12/12
f 7/13/13 41/14/14 12/15/15
f 7/16/16 12/17/17 11/18/18
f 8/19/19 32/20/20 44/21/21
f 35/22/22 9/23/23 40/24/24
f 9/25/25 10/26/26 15/27/27
f 9/28/28 15/29/29 14/30/30
f 9/31/31 14/32/32 40/33/33
f 11/34/34 12/35/35 17/36/36
f 11/37/37 17/38/38 16/39/39
f 12/40/40 13/41/41 18/42/42
f 12/43/43 18/44/44 17/45/45
f 13/46/46 14/47/47 19/48/48
f 13/49/49 19/50/50 18/51/51
f 14/52/52 15/53/53 20/54/54
f 14/55/55 20/56/56 19/57/57
f 16/58/58 17/59/59 22/60/60
f 16/61/61 22/62/62 21/63/63
f 17/64/64 18/65/65 23/66/66
f 17/67/67 23/68/68 22/69/69
f 18/70/70 19/71/71 24/72/72
f 18/73/73 24/74/74 23/75/75
f 19/76/76 20/77/77 25/78/78
f 19/79/79 25/80/80 24/81/81
f 36/82/82 7/83/83 37/84/84
f 12/85/85 41/86/86 45/87/87
f 32/88/88 8/89/89 31/90/90
f 34/91/91 3/92/92 4/93/93
f 34/94/94 4/95/95 39/96/96
f 27/97/97 31/98/98 30/99/99
f 32/100/100 31/101/101 27/102/102
f 32/103/103 26/104/104 43/105/105
f 28/106/106 30/107/107 33/108/108
f 35/109/109 27/110/110 28/111/111
f 38/112/112 26/113/113 27/114/114
f 43/115/115 26/116/116 38/117/117
f 43/118/118 38/119/119 42/120/120
f 34/121/121 28/122/122 29/123/123
f 39/124/124 9/125/125 35/126/126
f 35/127/127 34/128/128 39/129/129
f 14/130/130 13/131/131 38/132/132
f 38/133/133 35/134/134 40/135/135
f 41/136/136 7/137/137 36/138/138
f 42/139/139 38/140/140 45/141/141
f 37/142/142 2/143/143 3/144/144
f 37/145/145 3/146/146 34/147/147
f 34/148/148 36/149/149 37/150/150
f 39/151/151 4/152/152 5/153/153
f 9/154/154 39/155/155 5/156/156
f 45/157/157 41/158/158 36/159/159
f 45/160/160 36/161/161 42/162/162
f 42/163/163 36/164/164 29/165/165
f 43/166/166 29/167/167 33/168/168
f 44/169/169 33/170/170 8/171/171
f 45/172/172 38/173/173 13/174/174
f 13/175/175 12/176/176 45/177/177
f 38/178/178 40/179/179 14/180/180
f 37/181/181 7/182/182 6/183/183
f 6/184/184 1/185/185 37/186/186
f 11/187/187 6/188/188 7/189/189
f 29/190/190 43/191/191 42/192/192
f 29/193/193 36/194/194 34/195/195
f 28/196/196 34/197/197 35/198/198
f 27/199/199 35/200/200 38/201/201
f 27/202/202 26/203/203 32/204/204
f 43/205/205 44/206/206 32/207/207
f 33/208/208 44/209/209 43/210/210
f 33/211/211 29/212/212 28/213/213
f 30/214/214 28/215/215 27/216/216
