v 1.066000 0.087001 0.000000
v 0.980785 0.046424 0.195090
v 0.923880 0.046424 0.382683
v 0.831470 0.046424 0.555570
v 0.707107 0.046424 0.707107
v 0.555570 0.046424 0.831470
v 0.382683 0.046424 0.923880
v 0.195090 0.046424 0.980785
v -0.000000 0.087001 1.065892
v -0.195090 0.046424 0.980785
v -0.382683 0.046424 0.923880
v -0.555570 0.046424 0.831470
v -0.707107 0.046424 0.707107
v -0.831470 0.046424 0.555570
v -0.923880 0.046424 0.382683
v -0.980785 0.046424 0.195090
v -1.066000 0.087001 -0.000000
v -0.980785 0.046424 -0.195090
v -0.923880 0.046424 -0.382684
v -0.831470 0.046424 -0.555570
v -0.707107 0.046424 -0.707107
v -0.555570 0.046424 -0.831470
v -0.382683 0.046424 -0.923880
v -0.195090 0.046424 -0.980785
v 0.000000 0.120559 -1.151163
v 0.195090 0.046424 -0.980785
v 0.382684 0.046424 -0.923880
v 0.555570 0.046424 -0.831470
v 0.707107 0.046424 -0.707107
v 0.831470 0.046424 -0.555570
v 0.923880 0.046424 -0.382683
v 0.980785 0.046424 -0.195090
v 0.835187 0.000000 -0.345946
v 0.751649 0.000000 -0.502235
v 0.639225 0.000000 -0.639225
v 0.502236 0.000000 -0.751648
v 0.345946 0.000000 -0.835187
v 0.176362 0.000000 -0.886630
v 0.000000 0.000000 -0.904000
v -0.176362 0.000000 -0.886630
v -0.345946 0.000000 -0.835187
v -0.502235 0.000000 -0.751649
v -0.639225 0.000000 -0.639225
v -0.751648 0.000000 -0.502236
v -0.835187 0.000000 -0.345946
v -0.886630 0.000000 -0.176362
v -0.904000 0.000000 -0.000000
v -0.886630 -0.000000 0.176362
v -0.835187 -0.000000 0.345946
v -0.751649 -0.000000 0.502235
v -0.639225 -0.000000 0.639225
v -0.502236 -0.000000 0.751649
v -0.345946 -0.000000 0.835187
v -0.176362 -0.000000 0.886630
v -0.000000 -0.000000 0.904000
v 0.176362 -0.000000 0.886630
v 0.345946 -0.000000 0.835187
v 0.502235 -0.000000 0.751649
v 0.639225 -0.000000 0.639225
v 0.751649 -0.000000 0.502236
v 0.835187 -0.000000 0.345946
v 0.886630 -0.000000 0.176362
v 0.904000 -0.000000 0.000000
v 0.886630 0.000000 -0.176361
v -0.990393 0.046409 0.097545
v 0.097545 0.046419 -0.991522
v -0.990393 0.046409 -0.097545
v -0.097545 0.046424 0.990393
v 0.990393 0.046424 -0.097545
v 0.097545 0.046424 0.990393
v 0.990393 0.046424 0.097545
v -0.097545 0.046419 -0.991522
v 0.000000 0.000000 0.000000
vt 0.000000 0.000000
vt 0.000000 0.000000
vt 0.000000 0.000000
vt 0.000000 0.000000
vt 0.000000 0.000000
vt 0.000000 0.000000
vt 0.000000 0.000000
vt 0.000000 0.000000
vt 0.000000 0.000000
vt 0.000000 0.000000
vt 0.000000 0.000000
vt 0.000000 0.000000
vt 0.000000 0.000000
vt 0.000000 0.000000
vt 0.000000 0.000000
vt 0.000000 0.000000
vt 0.000000 0.000000
vt 0.000000 0.000000
vt 0.000000 0.000000
vt 0.000000 0.000000
vt 0.000000 0.000000
vt 0.000000 0.000000
vt 0.000000 0.000000
vt 0.000000 0.000000
vt 0.000000 0.000000
vt 0.000000 0.000000
vt 0.000000 0.000000
vt 0.000000 0.000000
vt 0.000000 0.000000
vt 0.000000 0.000000
vt 0.000000 0.000000
vt 0.000000 0.000000
vt 0.000000 0.000000
vt 0.000000 0.000000
vt 0.000000 0.000000
vt 0.000000 0.000000
vt 0.000000 0.000000
vt 0.000000 0.000000
vt 0.000000 0.000000
vt 0.000000 0.000000
vt 0.000000 0.000000
vt 0.000000 0.000000
vt 0.000000 0.000000
vt 0.000000 0.000000
vt 0.000000 0.000000
vt 0.000000 0.000000
vt 0.000000 0.000000
vt 0.000000 0.000000
vt 0.000000 0.000000
vt 0.000000 0.000000
vt 0.000000 0.000000
vt 0.000000 0.000000
vt 0.000000 0.000000
vt 0.000000 0.000000
vt 0.000000 0.000000
vt 0.000000 0.000000
vt 0.000000 0.000000
vt 0.000000 0.000000
vt 0.000000 0.000000
vt 0.000000 0.000000
vt 0.000000 0.000000
vt 0.000000 0.000000
vt 0.000000 0.000000
vt 0.000000 0.000000
vt 0.000000 0.000000
vt 0.000000 0.000000
vt 0.000000 0.000000
vt 0.000000 0.000000
vt 0.000000 0.000000
vt 0.000000 0.000000
vt 0.000000 0.000000
vt 0.000000 0.000000
vt 0.000000 0.000000
vt 0.000000 0.000000
vt 0.000000 0.000000
vt 0.000000 0.000000
vt 0.000000 0.000000
vt 0.000000 0.000000
vt 0.000000 0.000000
vt 0.000000 0.000000
vt 0.000000 0.000000
vt 0.000000 0.000000
vt 0.000000 0.000000
vt 0.000000 0.000000
vt 0.000000 0.000000
vt 0.000000 0.000000
vt 0.000000 0.000000
vt 0.000000 0.000000
vt 0.000000 0.000000
vt 0.000000 0.000000
vt 0.000000 0.000000
vt 0.000000 0.000000
vt 0.000000 0.000000
vt 0.000000 0.000000
vt 0.000000 0.000000
vt 0.000000 0.000000
vt 0.000000 0.000000
vt 0.000000 0.000000
vt 0.000000 0.000000
vt 0.000000 0.000000
vt 0.000000 0.000000
vt 0.000000 0.000000
vt 0.000000 0.000000
vt 0.000000 0.000000
vt 0.000000 0.000000
vt 0.000000 0.000000
vt 0.000000 0.000000
vt 0.000000 0.000000
vt 0.000000 0.000000
vt 0.000000 0.000000
vt 0.000000 0.000000
vt 0.000000 0.000000
vt 0.000000 0.000000
vt 0.000000 0.000000
vt 0.000000 0.000000
vt 0.000000 0.000000
vt 0.000000 0.000000
vt 0.000000 0.000000
vt 0.000000 0.000000
vt 0.000000 0.000000
vt 0.000000 0.000000
vt 0.000000 0.000000
vt 0.000000 0.000000
vt 0.000000 0.000000
vt 0.000000 0.000000
vt 0.000000 0.000000
vt 0.000000 0.000000
vt 0.000000 0.000000
vt 0.000000 0.000000
vt 0.000000 0.000000
vt 0.000000 0.000000
vt 0.000000 0.000000
vt 0.000000 0.000000
vt 0.000000 0.000000
vt 0.000000 0.000000
vt 0.000000 0.000000
vt 0.000000 0.000000
vt 0.000000 0.000000
vt 0.000000 0.000000
vt 0.000000 0.000000
vt 0.000000 0.000000
vt 0.000000 0.000000
vt 0.000000 0.000000
vt 0.000000 0.000000
vt 0.000000 0.000000
vt 0.000000 0.000000
vt 0.000000 0.000000
vt 0.000000 0.000000
vt 0.000000 0.000000
vt 0.000000 0.000000
vt 0.000000 0.000000
vt 0.000000 0.000000
vt 0.000000 0.000000
vt 0.000000 0.000000
vt 0.000000 0.000000
vt 0.000000 0.000000
vt 0.000000 0.000000
vt 0.000000 0.000000
vt 0.000000 0.000000
vt 0.000000 0.000000
vt 0.000000 0.000000
vt 0.000000 0.000000
vt 0.000000 0.000000
vt 0.000000 0.000000
vt 0.000000 0.000000
vt 0.000000 0.000000
vt 0.000000 0.000000
vt 0.000000 0.000000
vt 0.000000 0.000000
vt 0.000000 0.000000
vt 0.000000 0.000000
vt 0.000000 0.000000
vt 0.000000 0.000000
vt 0.000000 0.000000
vt 0.000000 0.000000
vt 0.000000 0.000000
vt 0.000000 0.000000
vt 0.000000 0.000000
vt 0.000000 0.000000
vt 0.000000 0.000000
vt 0.000000 0.000000
vt 0.000000 0.000000
vt 0.000000 0.000000
vt 0.000000 0.000000
vt 0.000000 0.000000
vt 0.000000 0.000000
vt 0.000000 0.000000
vt 0.000000 0.000000
vt 0.000000 0.000000
vt 0.000000 0.000000
vt 0.000000 0.000000
vt 0.000000 0.000000
vt 0.000000 0.000000
vt 0.000000 0.000000
vt 0.000000 0.000000
vt 0.000000 0.000000
vt 0.000000 0.000000
vt 0.000000 0.000000
vt 0.000000 0.000000
vt 0.000000 0.000000
vt 0.000000 0.000000
vt 0.000000 0.000000
vt 0.000000 0.000000
vt 0.000000 0.000000
vt 0.000000 0.000000
vt 0.000000 0.000000
vt 0.000000 0.000000
vt 0.000000 0.000000
vt 0.000000 0.000000
vt 0.000000 0.000000
vt 0.000000 0.000000
vt 0.000000 0.000000
vt 0.000000 0.000000
vt 0.000000 0.000000
vt 0.000000 0.000000
vt 0.000000 0.000000
vt 0.000000 0.000000
vt 0.000000 0.000000
vt 0.000000 0.000000
vt 0.000000 0.000000
vt 0.000000 0.000000
vt 0.000000 0.000000
vt 0.000000 0.000000
vt 0.000000 0.000000
vt 0.000000 0.000000
vt 0.000000 0.000000
vt 0.000000 0.000000
vt 0.000000 0.000000
vt 0.000000 0.000000
vt 0.000000 0.000000
vt 0.000000 0.000000
vt 0.000000 0.000000
vt 0.000000 0.000000
vt 0.000000 0.000000
vt 0.000000 0.000000
vt 0.000000 0.000000
vt 0.000000 0.000000
vt 0.000000 0.000000
vt 0.000000 0.000000
vt 0.000000 0.000000
vt 0.000000 0.000000
vt 0.000000 0.000000
vt 0.000000 0.000000
vt 0.000000 0.000000
vt 0.000000 0.000000
vt 0.000000 0.000000
vt 0.000000 0.000000
vt 0.000000 0.000000
vt 0.000000 0.000000
vt 0.000000 0.000000
vt 0.000000 0.000000
vt 0.000000 0.000000
vt 0.000000 0.000000
vt 0.000000 0.000000
vt 0.000000 0.000000
vt 0.000000 0.000000
vt 0.000000 0.000000
vt 0.000000 0.000000
vt 0.000000 0.000000
vt 0.000000 0.000000
vt 0.000000 0.000000
vt 0.000000 0.000000
vt 0.000000 0.000000
vt 0.000000 0.000000
vt 0.000000 0.000000
vt 0.000000 0.000000
vt 0.000000 0.000000
vt 0.000000 0.000000
vt 0.000000 0.000000
vt 0.000000 0.000000
vt 0.000000 0.000000
vt 0.000000 0.000000
vt 0.000000 0.000000
vt 0.000000 0.000000
vt 0.000000 0.000000
vt 0.000000 0.000000
vt 0.000000 0.000000
vt 0.000000 0.000000
vt 0.000000 0.000000
vt 0.000000 0.000000
vt 0.000000 0.000000
vt 0.000000 0.000000
vt 0.000000 0.000000
vt 0.000000 0.000000
vt 0.000000 0.000000
vt 0.000000 0.000000
vt 0.000000 0.000000
vt 0.000000 0.000000
vt 0.000000 0.000000
vt 0.000000 0.000000
vt 0.000000 0.000000
vt 0.000000 0.000000
vt 0.000000 0.000000
vt 0.000000 0.000000
vt 0.000000 0.000000
vt 0.000000 0.000000
vt 0.000000 0.000000
vt 0.000000 0.000000
vt 0.000000 0.000000
vt 0.000000 0.000000
vt 0.000000 0.000000
vt 0.000000 0.000000
vt 0.000000 0.000000
vt 0.000000 0.000000
vt 0.000000 0.000000
vt 0.000000 0.000000
vt 0.000000 0.000000
vt 0.000000 0.000000
vt 0.000000 0.000000
vt 0.000000 0.000000
vt 0.000000 0.000000
vt 0.000000 0.000000
vn -0.402213 0.900260 0.166602
vn -0.361983 0.900260 0.241869
vn -0.185595 0.974770 0.124011
vn -0.402213 0.900260 0.166602
vn -0.185595 0.974770 0.124011
vn -0.206222 0.974770 0.085420
vn -0.185595 0.974770 0.124011
vn -0.361983 0.900260 0.241869
vn -0.307841 0.900260 0.307841
vn -0.185595 0.974770 0.124011
vn -0.307841 0.900260 0.307841
vn -0.157836 0.974770 0.157836
vn -0.157836 0.974770 0.157836
vn -0.307841 0.900260 0.307841
vn -0.241869 0.900260 0.361983
vn -0.157836 0.974770 0.157836
vn -0.241869 0.900260 0.361983
vn -0.124011 0.974770 0.185595
vn -0.241869 0.900260 0.361983
vn -0.166602 0.900260 0.402214
vn -0.085420 0.974770 0.206222
vn -0.241869 0.900260 0.361983
vn -0.085420 0.974770 0.206222
vn -0.124011 0.974770 0.185595
vn -0.166602 0.900260 0.402214
vn -0.085682 0.900907 0.425471
vn -0.043924 0.974934 0.218114
vn -0.166602 0.900260 0.402214
vn -0.043924 0.974934 0.218114
vn -0.085420 0.974770 0.206222
vn -0.014788 0.897493 0.440780
vn 0.000000 0.906963 0.421211
vn 0.014788 0.897493 0.440780
vn 0.085682 0.900907 0.425471
vn 0.166602 0.900260 0.402213
vn 0.085420 0.974770 0.206222
vn 0.085682 0.900907 0.425471
vn 0.085420 0.974770 0.206222
vn 0.043924 0.974934 0.218114
vn 0.085420 0.974770 0.206222
vn 0.166602 0.900260 0.402213
vn 0.241869 0.900260 0.361983
vn 0.085420 0.974770 0.206222
vn 0.241869 0.900260 0.361983
vn 0.124011 0.974770 0.185595
vn 0.124011 0.974770 0.185595
vn 0.241869 0.900260 0.361983
vn 0.307841 0.900260 0.307841
vn 0.124011 0.974770 0.185595
vn 0.307841 0.900260 0.307841
vn 0.157836 0.974770 0.157836
vn 0.157836 0.974770 0.157836
vn 0.307841 0.900260 0.307841
vn 0.361983 0.900260 0.241869
vn 0.157836 0.974770 0.157836
vn 0.361983 0.900260 0.241869
vn 0.185595 0.974770 0.124011
vn 0.361983 0.900260 0.241869
vn 0.402214 0.900260 0.166602
vn 0.206222 0.974770 0.085420
vn 0.361983 0.900260 0.241869
vn 0.206222 0.974770 0.085420
vn 0.185595 0.974770 0.124011
vn 0.402214 0.900260 0.166602
vn 0.426945 0.900278 0.084954
vn 0.218901 0.974774 0.043558
vn 0.402214 0.900260 0.166602
vn 0.218901 0.974774 0.043558
vn 0.206222 0.974770 0.085420
vn 0.460559 0.887514 -0.014300
vn 0.426944 0.900279 -0.084954
vn 0.218901 0.974774 -0.043557
vn 0.460559 0.887514 -0.014300
vn 0.218901 0.974774 -0.043557
vn 0.275832 0.961206 0.000000
vn 0.426944 0.900279 -0.084954
vn 0.402213 0.900260 -0.166602
vn 0.206222 0.974770 -0.085420
vn 0.426944 0.900279 -0.084954
vn 0.206222 0.974770 -0.085420
vn 0.218901 0.974774 -0.043557
vn 0.402213 0.900260 -0.166602
vn 0.361983 0.900260 -0.241869
vn 0.185595 0.974770 -0.124011
vn 0.402213 0.900260 -0.166602
vn 0.185595 0.974770 -0.124011
vn 0.206222 0.974770 -0.085420
vn 0.185595 0.974770 -0.124011
vn 0.361983 0.900260 -0.241869
vn 0.307841 0.900260 -0.307841
vn 0.185595 0.974770 -0.124011
vn 0.307841 0.900260 -0.307841
vn 0.157836 0.974770 -0.157836
vn 0.157836 0.974770 -0.157836
vn 0.307841 0.900260 -0.307841
vn 0.241869 0.900260 -0.361983
vn 0.157836 0.974770 -0.157836
vn 0.241869 0.900260 -0.361983
vn 0.124011 0.974770 -0.185595
vn 0.241869 0.900260 -0.361983
vn 0.166602 0.900260 -0.402214
vn 0.085420 0.974770 -0.206222
vn 0.241869 0.900260 -0.361983
vn 0.085420 0.974770 -0.206222
vn 0.124011 0.974770 -0.185595
vn 0.166602 0.900260 -0.402214
vn 0.084933 0.900260 -0.426987
vn 0.043547 0.974770 -0.218924
vn 0.166602 0.900260 -0.402214
vn 0.043547 0.974770 -0.218924
vn 0.085420 0.974770 -0.206222
vn 0.000000 0.961188 -0.275896
vn 0.043547 0.974770 -0.218924
vn 0.084933 0.900260 -0.426987
vn 0.000000 0.961188 -0.275896
vn 0.084933 0.900260 -0.426987
vn 0.014286 0.887412 -0.460757
vn -0.084933 0.900260 -0.426987
vn -0.166602 0.900260 -0.402213
vn -0.085420 0.974770 -0.206222
vn -0.084933 0.900260 -0.426987
vn -0.085420 0.974770 -0.206222
vn -0.043547 0.974770 -0.218924
vn -0.166602 0.900260 -0.402213
vn -0.241869 0.900260 -0.361983
vn -0.124011 0.974770 -0.185595
vn -0.166602 0.900260 -0.402213
vn -0.124011 0.974770 -0.185595
vn -0.085420 0.974770 -0.206222
vn -0.124011 0.974770 -0.185595
vn -0.241869 0.900260 -0.361983
vn -0.307841 0.900260 -0.307841
vn -0.124011 0.974770 -0.185595
vn -0.307841 0.900260 -0.307841
vn -0.157836 0.974770 -0.157836
vn -0.157836 0.974770 -0.157836
vn -0.307841 0.900260 -0.307841
vn -0.361983 0.900260 -0.241869
vn -0.157836 0.974770 -0.157836
vn -0.361983 0.900260 -0.241869
vn -0.185595 0.974770 -0.124011
vn -0.361983 0.900260 -0.241869
vn -0.402214 0.900260 -0.166602
vn -0.206222 0.974770 -0.085420
vn -0.361983 0.900260 -0.241869
vn -0.206222 0.974770 -0.085420
vn -0.185595 0.974770 -0.124011
vn -0.402214 0.900260 -0.166602
vn -0.426987 0.900260 -0.084933
vn -0.218924 0.974770 -0.043547
vn -0.402214 0.900260 -0.166602
vn -0.218924 0.974770 -0.043547
vn -0.206222 0.974770 -0.085420
vn -0.460580 0.887503 0.014285
vn -0.426987 0.900260 0.084933
vn -0.218924 0.974770 0.043547
vn -0.460580 0.887503 0.014285
vn -0.218924 0.974770 0.043547
vn -0.275896 0.961188 0.000000
vn -0.426987 0.900260 0.084933
vn -0.402213 0.900260 0.166602
vn -0.206222 0.974770 0.085420
vn -0.426987 0.900260 0.084933
vn -0.206222 0.974770 0.085420
vn -0.218924 0.974770 0.043547
vn 0.014286 0.887412 -0.460757
vn 0.000000 0.880844 -0.473406
vn -0.014285 0.887412 -0.460757
vn -0.275896 0.961188 0.000000
vn -0.218924 0.974770 -0.043547
vn -0.426987 0.900260 -0.084933
vn -0.275896 0.961188 0.000000
vn -0.426987 0.900260 -0.084933
vn -0.460580 0.887503 -0.014286
vn 0.275832 0.961206 0.000000
vn 0.218901 0.974774 0.043558
vn 0.426945 0.900278 0.084954
vn 0.275832 0.961206 0.000000
vn 0.426945 0.900278 0.084954
vn 0.460559 0.887514 0.014300
vn -0.014285 0.887412 -0.460757
vn -0.084933 0.900260 -0.426987
vn -0.043547 0.974770 -0.218924
vn -0.014285 0.887412 -0.460757
vn -0.043547 0.974770 -0.218924
vn 0.000000 0.961188 -0.275896
vn 0.014788 0.897493 0.440780
vn 0.085682 0.900907 0.425471
vn 0.043924 0.974934 0.218114
vn 0.014788 0.897493 0.440780
vn 0.043924 0.974934 0.218114
vn -0.000000 0.961855 0.273559
vn -0.000000 0.961855 0.273559
vn -0.043924 0.974934 0.218114
vn -0.085682 0.900907 0.425471
vn -0.000000 0.961855 0.273559
vn -0.085682 0.900907 0.425471
vn -0.014788 0.897493 0.440780
vn 0.460559 0.887514 -0.014300
vn 0.275832 0.961206 0.000000
vn 0.460559 0.887514 0.014300
vn -0.460580 0.887503 0.014285
vn -0.275896 0.961188 0.000000
vn -0.460580 0.887503 -0.014286
vn -0.014285 0.887412 -0.460757
vn 0.000000 0.961188 -0.275896
vn 0.014286 0.887412 -0.460757
vn -0.460580 0.887503 -0.014286
vn -0.472881 0.881126 -0.000000
vn -0.460580 0.887503 0.014285
vn 0.014788 0.897493 0.440780
vn -0.000000 0.961855 0.273559
vn -0.014788 0.897493 0.440780
vn 0.460559 0.887514 0.014300
vn 0.473021 0.881051 0.000000
vn 0.460559 0.887514 -0.014300
vn 0.000000 1.000000 0.000000
vn -0.000000 0.961855 0.273559
vn 0.043924 0.974934 0.218114
vn -0.000000 0.961855 0.273559
vn 0.000000 1.000000 0.000000
vn -0.043924 0.974934 0.218114
vn 0.043547 0.974770 -0.218924
vn 0.000000 0.961188 -0.275896
vn 0.000000 1.000000 0.000000
vn 0.000000 1.000000 0.000000
vn 0.000000 0.961188 -0.275896
vn -0.043547 0.974770 -0.218924
vn -0.043547 0.974770 -0.218924
vn -0.085420 0.974770 -0.206222
vn 0.000000 1.000000 0.000000
vn 0.000000 1.000000 0.000000
vn -0.085420 0.974770 -0.206222
vn -0.124011 0.974770 -0.185595
vn -0.124011 0.974770 -0.185595
vn -0.157836 0.974770 -0.157836
vn 0.000000 1.000000 0.000000
vn 0.000000 1.000000 0.000000
vn -0.157836 0.974770 -0.157836
vn -0.185595 0.974770 -0.124011
vn -0.185595 0.974770 -0.124011
vn -0.206222 0.974770 -0.085420
vn 0.000000 1.000000 0.000000
vn 0.000000 1.000000 0.000000
vn -0.206222 0.974770 -0.085420
vn -0.218924 0.974770 -0.043547
vn -0.218924 0.974770 -0.043547
vn -0.275896 0.961188 0.000000
vn 0.000000 1.000000 0.000000
vn 0.000000 1.000000 0.000000
vn -0.275896 0.961188 0.000000
vn -0.218924 0.974770 0.043547
vn -0.218924 0.974770 0.043547
vn -0.206222 0.974770 0.085420
vn 0.000000 1.000000 0.000000
vn 0.000000 1.000000 0.000000
vn -0.206222 0.974770 0.085420
vn -0.185595 0.974770 0.124011
vn -0.185595 0.974770 0.124011
vn -0.157836 0.974770 0.157836
vn 0.000000 1.000000 0.000000
vn 0.000000 1.000000 0.000000
vn -0.157836 0.974770 0.157836
vn -0.124011 0.974770 0.185595
vn -0.124011 0.974770 0.185595
vn -0.085420 0.974770 0.206222
vn 0.000000 1.000000 0.000000
vn 0.000000 1.000000 0.000000
vn -0.085420 0.974770 0.206222
vn -0.043924 0.974934 0.218114
vn 0.043924 0.974934 0.218114
vn 0.085420 0.974770 0.206222
vn 0.000000 1.000000 0.000000
vn 0.000000 1.000000 0.000000
vn 0.085420 0.974770 0.206222
vn 0.124011 0.974770 0.185595
vn 0.124011 0.974770 0.185595
vn 0.157836 0.974770 0.157836
vn 0.000000 1.000000 0.000000
vn 0.000000 1.000000 0.000000
vn 0.157836 0.974770 0.157836
vn 0.185595 0.974770 0.124011
vn 0.185595 0.974770 0.124011
vn 0.206222 0.974770 0.085420
vn 0.000000 1.000000 0.000000
vn 0.000000 1.000000 0.000000
vn 0.206222 0.974770 0.085420
vn 0.218901 0.974774 0.043558
vn 0.218901 0.974774 0.043558
vn 0.275832 0.961206 0.000000
vn 0.000000 1.000000 0.000000
vn 0.000000 1.000000 0.000000
vn 0.275832 0.961206 0.000000
vn 0.218901 0.974774 -0.043557
vn 0.218901 0.974774 -0.043557
vn 0.206222 0.974770 -0.085420
vn 0.000000 1.000000 0.000000
vn 0.000000 1.000000 0.000000
vn 0.206222 0.974770 -0.085420
vn 0.185595 0.974770 -0.124011
vn 0.185595 0.974770 -0.124011
vn 0.157836 0.974770 -0.157836
vn 0.000000 1.000000 0.000000
vn 0.000000 1.000000 0.000000
vn 0.157836 0.974770 -0.157836
vn 0.124011 0.974770 -0.185595
vn 0.124011 0.974770 -0.185595
vn 0.085420 0.974770 -0.206222
vn 0.000000 1.000000 0.000000
vn 0.000000 1.000000 0.000000
vn 0.085420 0.974770 -0.206222
vn 0.043547 0.974770 -0.218924
f 31/1/1 30/2/2 34/3/3
f 31/4/4 34/5/5 33/6/6
f 34/7/7 30/8/8 29/9/9
f 34/10/10 29/11/11 35/12/12
f 35/13/13 29/14/14 28/15/15
f 35/16/16 28/17/17 36/18/18
f 28/19/19 27/20/20 37/21/21
f 28/22/22 37/23/23 36/24/24
f 27/25/25 26/26/26 38/27/27
f 27/28/28 38/29/29 37/30/30
f 66/31/31 25/32/32 72/33/33
f 24/34/34 23/35/35 41/36/36
f 24/37/37 41/38/38 40/39/39
f 41/40/40 23/41/41 22/42/42
f 41/43/43 22/44/44 42/45/45
f 42/46/46 22/47/47 21/48/48
f 42/49/49 21/50/50 43/51/51
f 43/52/52 21/53/53 20/54/54
f 43/55/55 20/56/56 44/57/57
f 20/58/58 19/59/59 45/60/60
f 20/61/61 45/62/62 44/63/63
f 19/64/64 18/65/65 46/66/66
f 19/67/67 46/68/68 45/69/69
f 65/70/70 16/71/71 48/72/72
f 65/73/73 48/74/74 47/75/75
f 16/76/76 15/77/77 49/78/78
f 16/79/79 49/80/80 48/81/81
f 15/82/82 14/83/83 50/84/84
f 15/85/85 50/86/86 49/87/87
f 50/88/88 14/89/89 13/90/90
f 50/91/91 13/92/92 51/93/93
f 51/94/94 13/95/95 12/96/96
f 51/97/97 12/98/98 52/99/99
f 12/100/100 11/101/101 53/102/102
f 12/103/103 53/104/104 52/105/105
f 11/106/106 10/107/107 54/108/108
f 11/109/109 54/110/110 53/111/111
f 55/112/112 54/113/113 10/114/114
f 55/115/115 10/116/116 68/117/117
f 8/118/118 7/119/119 57/120/120
f 8/121/121 57/122/122 56/123/123
f 7/124/124 6/125/125 58/126/126
f 7/127/127 58/128/128 57/129/129
f 58/130/130 6/131/131 5/132/132
f 58/133/133 5/134/134 59/135/135
f 59/136/136 5/137/137 4/138/138
f 59/139/139 4/140/140 60/141/141
f 4/142/142 3/143/143 61/144/144
f 4/145/145 61/146/146 60/147/147
f 3/148/148 2/149/149 62/150/150
f 3/151/151 62/152/152 61/153/153
f 69/154/154 32/155/155 64/156/156
f 69/157/157 64/158/158 63/159/159
f 32/160/160 31/161/161 33/162/162
f 32/163/163 33/164/164 64/165/165
f 68/166/166 9/167/167 70/168/168
f 63/169/169 62/170/170 2/171/171
f 63/172/172 2/173/173 71/174/174
f 47/175/175 46/176/176 18/177/177
f 47/178/178 18/179/179 67/180/180
f 70/181/181 8/182/182 56/183/183
f 70/184/184 56/185/185 55/186/186
f 72/187/187 24/188/188 40/189/189
f 72/190/190 40/191/191 39/192/192
f 39/193/193 38/194/194 26/195/195
f 39/196/196 26/197/197 66/198/198
f 65/199/199 47/200/200 67/201/201
f 69/202/202 63/203/203 71/204/204
f 70/205/205 55/206/206 68/207/207
f 71/208/208 1/209/209 69/210/210
f 72/211/211 39/212/212 66/213/213
f 67/214/214 17/215/215 65/216/216
f 73/217/217 39/218/218 40/219/219
f 39/220/220 73/221/221 38/222/222
f 54/223/223 55/224/224 73/225/225
f 73/226/226 55/227/227 56/228/228
f 56/229/229 57/230/230 73/231/231
f 73/232/232 57/233/233 58/234/234
f 58/235/235 59/236/236 73/237/237
f 73/238/238 59/239/239 60/240/240
f 60/241/241 61/242/242 73/243/243
f 73/244/244 61/245/245 62/246/246
f 62/247/247 63/248/248 73/249/249
f 73/250/250 63/251/251 64/252/252
f 64/253/253 33/254/254 73/255/255
f 73/256/256 33/257/257 34/258/258
f 34/259/259 35/260/260 73/261/261
f 73/262/262 35/263/263 36/264/264
f 36/265/265 37/266/266 73/267/267
f 73/268/268 37/269/269 38/270/270
f 40/271/271 41/272/272 73/273/273
f 73/274/274 41/275/275 42/276/276
f 42/277/277 43/278/278 73/279/279
f 73/280/280 43/281/281 44/282/282
f 44/283/283 45/284/284 73/285/285
f 73/286/286 45/287/287 46/288/288
f 46/289/289 47/290/290 73/291/291
f 73/292/292 47/293/293 48/294/294
f 48/295/295 49/296/296 73/297/297
f 73/298/298 49/299/299 50/300/300
f 50/301/301 51/302/302 73/303/303
f 73/304/304 51/305/305 52/306/306
f 52/307/307 53/308/308 73/309/309
f 73/310/310 53/311/311 54/312/312
