v 1.196728 0.033908 0.683000
v 1.106573 3.415002 0.614727
v 1.196728 0.033908 -0.683001
v 1.106604 3.415002 -0.614682
v -0.324818 0.033908 -1.366001
v -0.324796 3.415002 -1.229389
v -1.905421 0.033908 -0.683000
v -1.566868 3.415002 -0.614727
v -1.905421 0.033908 0.683001
v -1.566901 3.415002 0.614682
v -0.324817 0.033908 1.366001
v -0.324840 3.415002 1.229389
v -0.426299 4.352195 2.451878
v -3.563959 4.352195 1.225915
v -3.563919 4.352195 -1.226004
v -0.426241 4.352195 -2.451878
v 1.981955 4.352195 -1.225915
v 1.981915 4.352195 1.226004
v 3.326583 5.370884 0.784411
v 2.133447 5.370884 -1.701115
v -0.426299 5.370884 2.984325
v -4.908629 5.370884 0.216312
v -4.908589 5.370884 -1.492279
v -0.426241 5.370884 -2.827020
v 3.326583 5.900604 0.769101
v 2.133447 5.900604 -1.685808
v -0.426299 5.900604 2.953708
v -4.908629 5.900604 0.201004
v -4.908589 5.900604 -1.476970
v -0.426241 5.900604 -2.796403
v 2.104157 7.652749 0.398804
v 2.104198 7.652749 -1.499822
v -0.426299 7.652749 1.898579
v -3.849191 7.652749 0.398694
v -3.849151 7.652749 -1.499933
v -0.426241 7.652749 -2.252512
v 1.981914 8.263961 0.272712
v 1.981955 8.263961 -1.373740
v -0.426299 8.263961 1.646409
v -3.686202 8.263961 0.272612
v -3.686161 8.263961 -1.373840
v -0.426241 8.263961 -2.000342
v 1.981914 11.564519 0.576744
v 1.981955 11.564519 0.131189
v 0.307158 11.564519 1.468004
v -0.956116 11.564519 0.576680
v -0.956076 11.564519 0.131124
v 0.307215 11.564519 -0.288222
vt 0.000000 0.000000
vt 0.000000 0.000000
vt 0.000000 0.000000
vt 0.000000 0.000000
vt 0.000000 0.000000
vt 0.000000 0.000000
vt 0.000000 0.000000
vt 0.000000 0.000000
vt 0.000000 0.000000
vt 0.000000 0.000000
vt 0.000000 0.000000
vt 0.000000 0.000000
vt 0.000000 0.000000
vt 0.000000 0.000000
vt 0.000000 0.000000
vt 0.000000 0.000000
vt 0.000000 0.000000
vt 0.000000 0.000000
vt 0.000000 0.000000
vt 0.000000 0.000000
vt 0.000000 0.000000
vt 0.000000 0.000000
vt 0.000000 0.000000
vt 0.000000 0.000000
vt 0.000000 0.000000
vt 0.000000 0.000000
vt 0.000000 0.000000
vt 0.000000 0.000000
vt 0.000000 0.000000
vt 0.000000 0.000000
vt 0.000000 0.000000
vt 0.000000 0.000000
vt 0.000000 0.000000
vt 0.000000 0.000000
vt 0.000000 0.000000
vt 0.000000 0.000000
vt 0.000000 0.000000
vt 0.000000 0.000000
vt 0.000000 0.000000
vt 0.000000 0.000000
vt 0.000000 0.000000
vt 0.000000 0.000000
vt 0.000000 0.000000
vt 0.000000 0.000000
vt 0.000000 0.000000
vt 0.000000 0.000000
vt 0.000000 0.000000
vt 0.000000 0.000000
vt 0.000000 0.000000
vt 0.000000 0.000000
vt 0.000000 0.000000
vt 0.000000 0.000000
vt 0.000000 0.000000
vt 0.000000 0.000000
vt 0.000000 0.000000
vt 0.000000 0.000000
vt 0.000000 0.000000
vt 0.000000 0.000000
vt 0.000000 0.000000
vt 0.000000 0.000000
vt 0.000000 0.000000
vt 0.000000 0.000000
vt 0.000000 0.000000
vt 0.000000 0.000000
vt 0.000000 0.000000
vt 0.000000 0.000000
vt 0.000000 0.000000
vt 0.000000 0.000000
vt 0.000000 0.000000
vt 0.000000 0.000000
vt 0.000000 0.000000
vt 0.000000 0.000000
vt 0.000000 0.000000
vt 0.000000 0.000000
vt 0.000000 0.000000
vt 0.000000 0.000000
vt 0.000000 0.000000
vt 0.000000 0.000000
vt 0.000000 0.000000
vt 0.000000 0.000000
vt 0.000000 0.000000
vt 0.000000 0.000000
vt 0.000000 0.000000
vt 0.000000 0.000000
vt 0.000000 0.000000
vt 0.000000 0.000000
vt 0.000000 0.000000
vt 0.000000 0.000000
vt 0.000000 0.000000
vt 0.000000 0.000000
vt 0.000000 0.000000
vt 0.000000 0.000000
vt 0.000000 0.000000
vt 0.000000 0.000000
vt 0.000000 0.000000
vt 0.000000 0.000000
vt 0.000000 0.000000
vt 0.000000 0.000000
vt 0.000000 0.000000
vt 0.000000 0.000000
vt 0.000000 0.000000
vt 0.000000 0.000000
vt 0.000000 0.000000
vt 0.000000 0.000000
vt 0.000000 0.000000
vt 0.000000 0.000000
vt 0.000000 0.000000
vt 0.000000 0.000000
vt 0.000000 0.000000
vt 0.000000 0.000000
vt 0.000000 0.000000
vt 0.000000 0.000000
vt 0.000000 0.000000
vt 0.000000 0.000000
vt 0.000000 0.000000
vt 0.000000 0.000000
vt 0.000000 0.000000
vt 0.000000 0.000000
vt 0.000000 0.000000
vt 0.000000 0.000000
vt 0.000000 0.000000
vt 0.000000 0.000000
vt 0.000000 0.000000
vt 0.000000 0.000000
vt 0.000000 0.000000
vt 0.000000 0.000000
vt 0.000000 0.000000
vt 0.000000 0.000000
vt 0.000000 0.000000
vt 0.000000 0.000000
vt 0.000000 0.000000
vt 0.000000 0.000000
vt 0.000000 0.000000
vt 0.000000 0.000000
vt 0.000000 0.000000
vt 0.000000 0.000000
vt 0.000000 0.000000
vt 0.000000 0.000000
vt 0.000000 0.000000
vt 0.000000 0.000000
vt 0.000000 0.000000
vt 0.000000 0.000000
vt 0.000000 0.000000
vt 0.000000 0.000000
vt 0.000000 0.000000
vt 0.000000 0.000000
vt 0.000000 0.000000
vt 0.000000 0.000000
vt 0.000000 0.000000
vt 0.000000 0.000000
vt 0.000000 0.000000
vt 0.000000 0.000000
vt 0.000000 0.000000
vt 0.000000 0.000000
vt 0.000000 0.000000
vt 0.000000 0.000000
vt 0.000000 0.000000
vt 0.000000 0.000000
vt 0.000000 0.000000
vt 0.000000 0.000000
vt 0.000000 0.000000
vt 0.000000 0.000000
vt 0.000000 0.000000
vt 0.000000 0.000000
vt 0.000000 0.000000
vt 0.000000 0.000000
vt 0.000000 0.000000
vt 0.000000 0.000000
vt 0.000000 0.000000
vt 0.000000 0.000000
vt 0.000000 0.000000
vt 0.000000 0.000000
vt 0.000000 0.000000
vt 0.000000 0.000000
vt 0.000000 0.000000
vt 0.000000 0.000000
vt 0.000000 0.000000
vt 0.000000 0.000000
vt 0.000000 0.000000
vt 0.000000 0.000000
vt 0.000000 0.000000
vt 0.000000 0.000000
vt 0.000000 0.000000
vt 0.000000 0.000000
vt 0.000000 0.000000
vt 0.000000 0.000000
vt 0.000000 0.000000
vt 0.000000 0.000000
vt 0.000000 0.000000
vt 0.000000 0.000000
vt 0.000000 0.000000
vt 0.000000 0.000000
vt 0.000000 0.000000
vt 0.000000 0.000000
vt 0.000000 0.000000
vt 0.000000 0.000000
vt 0.000000 0.000000
vt 0.000000 0.000000
vt 0.000000 0.000000
vt 0.000000 0.000000
vt 0.000000 0.000000
vt 0.000000 0.000000
vt 0.000000 0.000000
vt 0.000000 0.000000
vt 0.000000 0.000000
vt 0.000000 0.000000
vt 0.000000 0.000000
vt 0.000000 0.000000
vt 0.000000 0.000000
vt 0.000000 0.000000
vt 0.000000 0.000000
vt 0.000000 0.000000
vt 0.000000 0.000000
vt 0.000000 0.000000
vt 0.000000 0.000000
vt 0.000000 0.000000
vt 0.000000 0.000000
vt 0.000000 0.000000
vt 0.000000 0.000000
vt 0.000000 0.000000
vt 0.000000 0.000000
vt 0.000000 0.000000
vt 0.000000 0.000000
vt 0.000000 0.000000
vt 0.000000 0.000000
vt 0.000000 0.000000
vt 0.000000 0.000000
vt 0.000000 0.000000
vt 0.000000 0.000000
vt 0.000000 0.000000
vt 0.000000 0.000000
vt 0.000000 0.000000
vt 0.000000 0.000000
vt 0.000000 0.000000
vt 0.000000 0.000000
vt 0.000000 0.000000
vt 0.000000 0.000000
vt 0.000000 0.000000
vt 0.000000 0.000000
vt 0.000000 0.000000
vt 0.000000 0.000000
vt 0.000000 0.000000
vt 0.000000 0.000000
vt 0.000000 0.000000
vt 0.000000 0.000000
vt 0.000000 0.000000
vt 0.000000 0.000000
vt 0.000000 0.000000
vt 0.000000 0.000000
vt 0.000000 0.000000
vt 0.000000 0.000000
vt 0.000000 0.000000
vt 0.000000 0.000000
vt 0.000000 0.000000
vt 0.000000 0.000000
vt 0.000000 0.000000
vt 0.000000 0.000000
vt 0.000000 0.000000
vt 0.000000 0.000000
vt 0.000000 0.000000
vt 0.000000 0.000000
vt 0.000000 0.000000
vt 0.000000 0.000000
vt 0.000000 0.000000
vn -0.995025 0.099628 -0.000012
vn -0.995025 0.099628 -0.000012
vn -0.995025 0.099628 -0.000012
vn -0.995025 0.099628 -0.000012
vn -0.995025 0.099628 -0.000012
vn -0.995025 0.099628 -0.000012
vn 0.999645 0.026650 0.000012
vn 0.999645 0.026650 0.000012
vn 0.999645 0.026650 0.000012
vn 0.999645 0.026650 0.000012
vn 0.999645 0.026650 0.000012
vn 0.999645 0.026650 0.000012
vn -0.417225 0.048388 0.907514
vn -0.417225 0.048388 0.907514
vn -0.417225 0.048388 0.907514
vn -0.417225 0.048388 0.907514
vn -0.417225 0.048388 0.907514
vn -0.417225 0.048388 0.907514
vn 0.402093 0.033085 0.915001
vn 0.402093 0.033085 0.915001
vn 0.402093 0.033085 0.915001
vn 0.402093 0.033085 0.915001
vn 0.402093 0.033085 0.915001
vn 0.402093 0.033085 0.915001
vn 0.402106 0.033087 -0.914995
vn 0.402106 0.033087 -0.914995
vn 0.402106 0.033087 -0.914995
vn 0.402106 0.033087 -0.914995
vn 0.402106 0.033087 -0.914995
vn 0.402106 0.033087 -0.914995
vn -0.417212 0.048386 -0.907520
vn -0.417212 0.048386 -0.907520
vn -0.417212 0.048386 -0.907520
vn -0.417212 0.048386 -0.907520
vn -0.417212 0.048386 -0.907520
vn -0.417212 0.048386 -0.907520
vn 0.000000 1.000000 0.000000
vn 0.000000 1.000000 0.000000
vn 0.000000 1.000000 0.000000
vn 0.000000 1.000000 0.000000
vn 0.000000 1.000000 0.000000
vn 0.000000 1.000000 0.000000
vn 0.000000 1.000000 0.000000
vn 0.000000 1.000000 0.000000
vn 0.000000 1.000000 0.000000
vn 0.000000 1.000000 0.000000
vn 0.000000 1.000000 0.000000
vn 0.000000 1.000000 0.000000
vn -0.344069 -0.893255 0.289329
vn 0.033388 -0.793276 0.607946
vn 0.053176 -0.630386 0.774458
vn -0.344069 -0.893255 0.289329
vn 0.053176 -0.630386 0.774458
vn -0.507925 -0.672950 0.537727
vn 0.033408 -0.793274 -0.607948
vn -0.344061 -0.893255 -0.289342
vn -0.427159 -0.817448 -0.386412
vn 0.033408 -0.793274 -0.607948
vn -0.427159 -0.817448 -0.386412
vn 0.047612 -0.636741 -0.769606
vn 0.296546 -0.727606 -0.618587
vn 0.033408 -0.793274 -0.607948
vn 0.047612 -0.636741 -0.769606
vn 0.296546 -0.727606 -0.618587
vn 0.047612 -0.636741 -0.769606
vn 0.640888 -0.645892 -0.414832
vn -0.344061 -0.893255 -0.289342
vn -0.344069 -0.893255 0.289329
vn -0.507925 -0.672950 0.537727
vn -0.344061 -0.893255 -0.289342
vn -0.507925 -0.672950 0.537727
vn -0.427159 -0.817448 -0.386412
vn 0.730809 -0.682582 0.000014
vn 0.730809 -0.682582 0.000014
vn 0.640888 -0.645892 -0.414832
vn 0.730809 -0.682582 0.000014
vn 0.640888 -0.645892 -0.414832
vn 0.669786 -0.742554 0.000012
vn 0.033388 -0.793276 0.607946
vn 0.296523 -0.727612 0.618591
vn 0.387653 -0.548250 0.741044
vn 0.033388 -0.793276 0.607946
vn 0.387653 -0.548250 0.741044
vn 0.053176 -0.630386 0.774458
vn 0.640888 -0.645892 -0.414832
vn 0.689574 -0.177688 -0.702079
vn 0.860024 -0.406712 -0.308130
vn 0.053176 -0.630386 0.774458
vn 0.387653 -0.548250 0.741044
vn 0.489626 -0.153343 0.858342
vn 0.053176 -0.630386 0.774458
vn 0.489626 -0.153343 0.858342
vn 0.489626 -0.153343 0.858342
vn -0.507925 -0.672950 0.537727
vn 0.053176 -0.630386 0.774458
vn -0.474601 -0.087519 0.875839
vn -0.427159 -0.817448 -0.386412
vn -0.507925 -0.672950 0.537727
vn -0.603854 -0.797095 -0.000012
vn -0.427159 -0.817448 -0.386412
vn -0.603854 -0.797095 -0.000012
vn -0.603854 -0.797095 -0.000012
vn 0.047612 -0.636741 -0.769606
vn -0.427159 -0.817448 -0.386412
vn -0.293389 -0.212896 -0.931986
vn 0.047612 -0.636741 -0.769606
vn -0.293389 -0.212896 -0.931986
vn -0.293389 -0.212896 -0.931986
vn 0.640888 -0.645892 -0.414832
vn 0.047612 -0.636741 -0.769606
vn 0.407363 -0.173429 -0.896648
vn 0.640888 -0.645892 -0.414832
vn 0.407363 -0.173429 -0.896648
vn 0.689574 -0.177688 -0.702079
vn 0.860024 -0.406712 -0.308130
vn 0.689574 -0.177688 -0.702079
vn 0.899510 0.030663 -0.435823
vn 0.860024 -0.406712 -0.308130
vn 0.899510 0.030663 -0.435823
vn 0.924795 0.223749 -0.307719
vn 0.489626 -0.153343 0.858342
vn 0.489626 -0.153343 0.858342
vn 0.487919 0.258382 0.833771
vn 0.489626 -0.153343 0.858342
vn 0.487919 0.258382 0.833771
vn 0.487919 0.258382 0.833771
vn -0.522641 0.092606 0.847508
vn -0.474601 -0.087519 0.875839
vn -0.490963 0.189578 0.850303
vn -0.522641 0.092606 0.847508
vn -0.490963 0.189578 0.850303
vn -0.490963 0.189578 0.850303
vn -1.000000 0.000000 -0.000024
vn -1.000000 0.000000 -0.000024
vn -0.963258 0.268578 -0.000022
vn -1.000000 0.000000 -0.000024
vn -0.963258 0.268578 -0.000022
vn -0.963258 0.268578 -0.000022
vn -0.293389 -0.212896 -0.931986
vn -0.293389 -0.212896 -0.931986
vn -0.266678 0.128917 -0.955125
vn -0.293389 -0.212896 -0.931986
vn -0.266678 0.128917 -0.955125
vn 0.054526 0.130035 -0.990009
vn 0.689574 -0.177688 -0.702079
vn 0.407363 -0.173429 -0.896648
vn 0.054526 0.130035 -0.990009
vn 0.689574 -0.177688 -0.702079
vn 0.054526 0.130035 -0.990009
vn 0.369894 0.117588 -0.921603
vn 0.924795 0.223749 -0.307719
vn 0.899510 0.030663 -0.435823
vn 0.944634 0.290418 -0.152723
vn 0.487919 0.258382 0.833771
vn 0.487919 0.258382 0.833771
vn 0.465191 0.386166 0.796538
vn 0.487919 0.258382 0.833771
vn 0.465191 0.386166 0.796538
vn 0.465191 0.386166 0.796538
vn -0.490963 0.189578 0.850303
vn -0.490963 0.189578 0.850303
vn -0.410512 0.328765 0.850525
vn -0.490963 0.189578 0.850303
vn -0.410512 0.328765 0.850525
vn -0.410512 0.328765 0.850525
vn -0.963258 0.268578 -0.000022
vn -0.963258 0.268578 -0.000022
vn -0.920195 0.391460 -0.000021
vn -0.963258 0.268578 -0.000022
vn -0.920195 0.391460 -0.000021
vn -0.920195 0.391460 -0.000021
vn 0.054526 0.130035 -0.990009
vn -0.266678 0.128917 -0.955125
vn -0.220116 0.264756 -0.938857
vn 0.054526 0.130035 -0.990009
vn -0.220116 0.264756 -0.938857
vn 0.039806 0.267742 -0.962668
vn 0.369894 0.117588 -0.921603
vn 0.054526 0.130035 -0.990009
vn 0.039806 0.267742 -0.962668
vn 0.369894 0.117588 -0.921603
vn 0.039806 0.267742 -0.962668
vn 0.297235 0.252464 -0.920822
vn 0.919778 0.392438 0.000020
vn 0.944634 0.290418 -0.152723
vn 0.995134 0.098533 0.000031
vn 0.919778 0.392438 0.000020
vn 0.995134 0.098533 0.000031
vn 0.995134 0.098533 0.000031
vn 0.465191 0.386166 0.796538
vn 0.465191 0.386166 0.796538
vn 0.490350 0.118346 0.863453
vn 0.465191 0.386166 0.796538
vn 0.490350 0.118346 0.863453
vn 0.490350 0.118346 0.863453
vn -0.410512 0.328765 0.850525
vn -0.410512 0.328765 0.850525
vn -0.406711 0.266620 0.873785
vn -0.410512 0.328765 0.850525
vn -0.406711 0.266620 0.873785
vn -0.406711 0.266620 0.873785
vn -0.920195 0.391460 -0.000021
vn -0.920195 0.391460 -0.000021
vn -0.888906 0.458091 -0.000026
vn -0.920195 0.391460 -0.000021
vn -0.888906 0.458091 -0.000026
vn -0.888906 0.458091 -0.000026
vn 0.039806 0.267742 -0.962668
vn -0.220116 0.264756 -0.938857
vn -0.193991 0.414176 -0.889284
vn 0.039806 0.267742 -0.962668
vn -0.193991 0.414176 -0.889284
vn 0.024928 0.395751 -0.918019
vn 0.297235 0.252464 -0.920822
vn 0.039806 0.267742 -0.962668
vn 0.024928 0.395751 -0.918019
vn 0.297235 0.252464 -0.920822
vn 0.024928 0.395751 -0.918019
vn 0.241643 0.358114 -0.901866
vn 0.995134 0.098533 0.000031
vn 0.995134 0.098533 0.000031
vn 1.000000 -0.000011 0.000039
vn 0.995134 0.098533 0.000031
vn 1.000000 -0.000011 0.000039
vn 1.000000 -0.000011 0.000039
vn 0.490350 0.118346 0.863453
vn 0.490350 0.118346 0.863453
vn 0.483891 -0.070366 0.872295
vn 0.490350 0.118346 0.863453
vn 0.483891 -0.070366 0.872295
vn 0.483891 -0.070366 0.872295
vn -0.406711 0.266620 0.873785
vn -0.406711 0.266620 0.873785
vn -0.437504 0.212923 0.873644
vn -0.406711 0.266620 0.873785
vn -0.437504 0.212923 0.873644
vn -0.437504 0.212923 0.873644
vn -0.888906 0.458091 -0.000026
vn -0.888906 0.458091 -0.000026
vn -0.770552 0.637377 -0.000030
vn -0.888906 0.458091 -0.000026
vn -0.770552 0.637377 -0.000030
vn -0.770552 0.637377 -0.000030
vn 0.024928 0.395751 -0.918019
vn -0.193991 0.414176 -0.889284
vn -0.193765 0.510079 -0.838018
vn 0.024928 0.395751 -0.918019
vn -0.193765 0.510079 -0.838018
vn 0.016914 0.469417 -0.882815
vn 0.241643 0.358114 -0.901866
vn 0.024928 0.395751 -0.918019
vn 0.016914 0.469417 -0.882815
vn 0.241643 0.358114 -0.901866
vn 0.016914 0.469417 -0.882815
vn 0.226780 0.406202 -0.885196
vn 0.860024 -0.406712 -0.308130
vn 0.669786 -0.742554 0.000012
vn 0.640888 -0.645892 -0.414832
vn 0.944634 0.290418 -0.152723
vn 0.919778 0.392438 0.000020
vn 0.924795 0.223749 -0.307719
vn -0.474601 -0.087519 0.875839
vn -0.522641 0.092606 0.847508
vn -0.507925 -0.672950 0.537727
f 7/1/1 9/2/2 10/3/3
f 7/4/4 10/5/5 8/6/6
f 1/7/7 3/8/8 4/9/9
f 1/10/10 4/11/11 2/12/12
f 9/13/13 11/14/14 12/15/15
f 9/16/16 12/17/17 10/18/18
f 11/19/19 1/20/20 2/21/21
f 11/22/22 2/23/23 12/24/24
f 3/25/25 5/26/26 6/27/27
f 3/28/28 6/29/29 4/30/30
f 5/31/31 7/32/32 8/33/33
f 5/34/34 8/35/35 6/36/36
f 47/37/37 46/38/38 45/39/39
f 47/40/40 45/41/41 43/42/42
f 47/43/43 43/44/44 44/45/45
f 47/46/46 44/47/47 48/48/48
f 10/49/49 12/50/50 13/51/51
f 10/52/52 13/53/53 14/54/54
f 6/55/55 8/56/56 15/57/57
f 6/58/58 15/59/59 16/60/60
f 4/61/61 6/62/62 16/63/63
f 4/64/64 16/65/65 17/66/66
f 8/67/67 10/68/68 14/69/69
f 8/70/70 14/71/71 15/72/72
f 2/73/73 4/74/74 17/75/75
f 2/76/76 17/77/77 18/78/78
f 12/79/79 2/80/80 18/81/81
f 12/82/82 18/83/83 13/84/84
f 17/85/85 20/86/86 19/87/87
f 13/88/88 18/89/89 19/90/90
f 13/91/91 19/92/92 21/93/93
f 14/94/94 13/95/95 21/96/96
f 15/97/97 14/98/98 22/99/99
f 15/100/100 22/101/101 23/102/102
f 16/103/103 15/104/104 23/105/105
f 16/106/106 23/107/107 24/108/108
f 17/109/109 16/110/110 24/111/111
f 17/112/112 24/113/113 20/114/114
f 19/115/115 20/116/116 26/117/117
f 19/118/118 26/119/119 25/120/120
f 21/121/121 19/122/122 25/123/123
f 21/124/124 25/125/125 27/126/126
f 22/127/127 21/128/128 27/129/129
f 22/130/130 27/131/131 28/132/132
f 23/133/133 22/134/134 28/135/135
f 23/136/136 28/137/137 29/138/138
f 24/139/139 23/140/140 29/141/141
f 24/142/142 29/143/143 30/144/144
f 20/145/145 24/146/146 30/147/147
f 20/148/148 30/149/149 26/150/150
f 25/151/151 26/152/152 32/153/153
f 27/154/154 25/155/155 31/156/156
f 27/157/157 31/158/158 33/159/159
f 28/160/160 27/161/161 33/162/162
f 28/163/163 33/164/164 34/165/165
f 29/166/166 28/167/167 34/168/168
f 29/169/169 34/170/170 35/171/171
f 30/172/172 29/173/173 35/174/174
f 30/175/175 35/176/176 36/177/177
f 26/178/178 30/179/179 36/180/180
f 26/181/181 36/182/182 32/183/183
f 31/184/184 32/185/185 38/186/186
f 31/187/187 38/188/188 37/189/189
f 33/190/190 31/191/191 37/192/192
f 33/193/193 37/194/194 39/195/195
f 34/196/196 33/197/197 39/198/198
f 34/199/199 39/200/200 40/201/201
f 35/202/202 34/203/203 40/204/204
f 35/205/205 40/206/206 41/207/207
f 36/208/208 35/209/209 41/210/210
f 36/211/211 41/212/212 42/213/213
f 32/214/214 36/215/215 42/216/216
f 32/217/217 42/218/218 38/219/219
f 37/220/220 38/221/221 44/222/222
f 37/223/223 44/224/224 43/225/225
f 39/226/226 37/227/227 43/228/228
f 39/229/229 43/230/230 45/231/231
f 40/232/232 39/233/233 45/234/234
f 40/235/235 45/236/236 46/237/237
f 41/238/238 40/239/239 46/240/240
f 41/241/241 46/242/242 47/243/243
f 42/244/244 41/245/245 47/246/246
f 42/247/247 47/248/248 48/249/249
f 38/250/250 42/251/251 48/252/252
f 38/253/253 48/254/254 44/255/255
f 19/256/256 18/257/257 17/258/258
f 32/259/259 31/260/260 25/261/261
f 21/262/262 22/263/263 14/264/264
