v -3.143884 -8.995885 -3.143884
v -4.036742 -9.860478 -2.018371
v -4.618030 -10.423362 0.000000
v -4.036742 -9.860478 2.018371
v -3.143884 -8.995885 3.143884
v -6.227680 9.983078 -0.834711
v 6.393546 22.847506 7.567061
v -2.018371 -9.860478 4.036742
v 0.000000 -10.423362 -4.618030
v -11.113557 11.662153 -0.751892
v 0.000000 -10.423362 4.618030
v 1.625457 11.546915 -7.062725
v 5.997782 4.476415 -3.266916
v 4.042603 4.536859 0.701417
v 2.018371 -9.860478 4.036742
v 3.143884 -8.995885 -3.143884
v -2.158464 19.577881 -0.313286
v 4.618030 -10.423362 0.000000
v 2.705132 38.878448 6.152316
v 3.143884 -8.995885 3.143884
v -7.180297 9.378000 3.671650
v -5.790315 45.252274 1.570756
v -5.928227 11.968575 -5.193400
v -12.633080 11.683915 1.574898
v 2.858043 46.661297 -0.800925
v 3.302879 4.903296 -6.110867
v -4.821501 1.812077 4.619240
v -1.917902 45.622665 2.961063
v -9.618043 39.217472 0.897464
v -7.525365 38.942318 5.662701
v 6.302982 1.363786 -8.926116
v 0.356842 2.278078 -7.786276
v -8.150302 3.725263 -7.637668
v -8.756648 1.884546 -1.758029
v -8.219645 2.498071 4.241274
v -5.921591 2.530883 7.558128
v -9.807235 12.886016 -0.045111
v 4.384409 2.519135 6.025002
v 5.765160 38.620892 -10.445806
v -8.161145 22.938383 6.870491
v 2.470614 16.640196 -5.053778
v 3.916780 13.044628 2.397927
v -3.562284 14.714304 3.537177
v -8.046992 25.780087 -12.603222
v 5.624683 22.390091 -11.829284
v -4.238811 10.681990 3.646251
v -6.402804 16.316372 0.754814
v -10.201993 17.924849 -2.004206
v -11.138356 24.923597 0.091095
v -4.082264 3.369638 -8.486551
v -3.926318 16.172600 -5.369962
v -7.580850 4.141602 -1.100725
v -8.128957 4.055311 2.560343
v -5.716946 38.999779 -10.883518
v 5.220194 18.700155 -1.302222
v 8.570259 20.387493 -4.239815
v -0.352139 18.197014 -14.088550
v 7.886209 38.909710 -1.304195
v 7.891351 29.019585 -0.153333
vt 0.161904 0.415870
vt 0.000000 0.500000
vt 0.213300 0.702965
vt 0.350481 0.404411
vt 0.385501 0.299604
vt 0.478795 0.250106
vt 1.574046 0.343662
vt 1.386916 0.533566
vt 1.079380 0.172122
vt 0.926395 0.462351
vt 0.735845 0.493957
vt 0.624438 0.368056
vt 0.213300 0.702965
vt 0.433246 0.861693
vt 0.538535 0.721053
vt 0.429688 0.300781
vt 0.499269 0.322476
vt 0.542969 0.160156
vt 1.034153 0.127389
vt 1.101591 0.279290
vt 1.316118 0.207565
vt 0.387048 0.498590
vt 0.551231 0.614739
vt 0.610770 0.473915
vt 0.624438 0.368056
vt 0.518677 0.407996
vt 0.613063 0.267530
vt 1.000000 1.000000
vt 1.500000 1.000000
vt 1.419631 0.788326
vt 0.588441 0.975962
vt 0.311128 0.863054
vt 0.558680 0.926550
vt 1.759355 0.804884
vt 1.419631 0.788326
vt 1.500000 1.000000
vt 1.364865 0.505288
vt 1.304545 0.721556
vt 0.926395 0.462351
vt 1.101591 0.279290
vt 0.609288 0.093877
vt 0.629486 0.337706
vt 0.983137 1.000000
vt 1.112506 0.827221
vt 1.311128 0.863054
vt 0.987533 0.569902
vt 1.304545 0.721556
vt 0.768769 0.686974
vt 0.588441 0.975962
vt 0.558680 0.926550
vt 0.672018 0.876399
vt 0.000000 0.500000
vt 0.000000 0.750000
vt 0.213300 0.702965
vt 0.000000 0.250000
vt 0.000000 0.500000
vt 0.161904 0.415870
vt 0.311128 0.863054
vt 0.588441 0.975962
vt 0.983137 1.000000
vt 0.609288 0.093877
vt 1.000000 0.000000
vt 0.500000 0.000000
vt 2.000000 0.000000
vt 1.500000 0.000000
vt 1.000000 0.000000
vt 0.854334 0.891638
vt 0.837076 0.849841
vt 1.112506 0.827221
vt 0.871592 0.933434
vt 0.983137 1.000000
vt 0.690059 0.956734
vt 0.518677 0.407996
vt 0.533761 0.483870
vt 0.350481 0.404411
vt 0.433246 0.861693
vt 0.500000 1.000000
vt 1.000000 1.000000
vt 0.385501 0.299604
vt 0.350481 0.404411
vt 0.213999 0.289092
vt 1.386916 0.533566
vt 1.316118 0.207565
vt 1.101591 0.279290
vt 0.613063 0.267530
vt 0.000000 0.000000
vt 0.000000 0.000000
vt 0.613063 0.267530
vt 0.000000 0.000000
vt 0.000000 0.000000
vt 0.613063 0.267530
vt 0.000000 0.000000
vt 0.760814 0.058366
vt 1.386916 0.533566
vt 1.574046 0.343662
vt 1.316118 0.207565
vt 0.499269 0.322476
vt 0.489249 0.291965
vt 0.519740 0.292508
vt 0.629486 0.337706
vt 0.609288 0.093877
vt 0.219938 0.134501
vt 0.533761 0.483870
vt 0.304780 0.533994
vt 0.214587 0.508760
vt 1.316118 0.207565
vt 1.574046 0.343662
vt 1.603256 0.072842
vt 1.079380 0.172122
vt 1.671265 0.299841
vt 2.000000 0.250000
vt 0.697016 0.474666
vt 0.570960 0.545301
vt 0.568918 0.405745
vt 0.542969 0.160156
vt 0.421875 0.152344
vt 0.429688 0.300781
vt 0.000000 0.000000
vt 0.000000 0.000000
vt 0.000000 0.000000
vt 0.478795 0.250106
vt 0.468467 0.073172
vt 0.477052 0.159340
vt 0.213300 0.702965
vt 0.000000 0.750000
vt 0.000000 1.000000
vt 0.000000 0.000000
vt 0.000000 0.250000
vt 0.219938 0.134501
vt 1.101591 0.279290
vt 1.034153 0.127389
vt 0.609288 0.093877
vt 0.219938 0.134501
vt 0.161904 0.415870
vt 0.629486 0.337706
vt 1.603256 0.072842
vt 1.034153 0.127389
vt 1.316118 0.207565
vt 0.690059 0.956734
vt 0.672018 0.876399
vt 0.837076 0.849841
vt 1.177633 0.416069
vt 0.972658 0.174429
vt 1.213999 0.289092
vt 0.519740 0.292508
vt 0.489249 0.291965
vt 0.477052 0.159340
vt 1.177633 0.416069
vt 0.912568 0.326431
vt 0.972658 0.174429
vt 0.661860 0.552791
vt 0.533761 0.483870
vt 0.735845 0.493957
vt 0.636719 0.152344
vt 0.558594 0.300781
vt 0.519531 0.113281
vt 0.161904 0.415870
vt 0.219938 0.134501
vt 0.000000 0.250000
vt 0.000000 1.000000
vt 0.500000 1.000000
vt 0.433246 0.861693
vt 0.433246 0.861693
vt 0.213300 0.702965
vt 0.000000 1.000000
vt 0.000000 0.000000
vt 0.000000 0.000000
vt 0.000000 0.000000
vt 1.000000 0.000000
vt 1.034153 0.127389
vt 1.603256 0.072842
vt 0.609288 0.093877
vt 1.034153 0.127389
vt 1.000000 0.000000
vt 0.000000 0.000000
vt 0.219938 0.134501
vt 0.609288 0.093877
vt 0.518677 0.407996
vt 0.624438 0.368056
vt 0.533761 0.483870
vt 0.568918 0.405745
vt 0.570960 0.545301
vt 0.339936 0.455869
vt 0.613063 0.267530
vt 0.575231 0.235021
vt 0.621591 0.070406
vt 0.518677 0.407996
vt 0.350481 0.404411
vt 0.478795 0.250106
vt 0.624438 0.368056
vt 0.912568 0.326431
vt 0.926395 0.462351
vt 0.735845 0.493957
vt 0.533761 0.483870
vt 0.624438 0.368056
vt 0.610770 0.473915
vt 0.551231 0.614739
vt 0.735074 0.613945
vt 1.260096 0.564834
vt 1.304545 0.721556
vt 0.987533 0.569902
vt 0.558594 0.300781
vt 0.437500 0.378906
vt 0.472656 0.210938
vt 0.350481 0.404411
vt 0.177633 0.416069
vt 0.213999 0.289092
vt 0.610770 0.473915
vt 0.629486 0.337706
vt 0.161904 0.415870
vt 0.437500 0.378906
vt 0.390625 0.335938
vt 0.472656 0.210938
vt 0.472656 0.210938
vt 0.519531 0.113281
vt 0.558594 0.300781
vt 0.548563 0.156045
vt 0.519740 0.292508
vt 0.477052 0.159340
vt 0.690059 0.956734
vt 0.983137 1.000000
vt 0.588441 0.975962
vt 0.347051 0.456182
vt 0.437243 0.481417
vt 0.527436 0.506651
vt 0.570960 0.545301
vt 0.697016 0.474666
vt 0.707174 0.798274
vt 0.570960 0.545301
vt 0.707174 0.798274
vt 0.593836 0.848425
vt 0.697016 0.474666
vt 0.880991 0.437261
vt 0.872232 0.771716
vt 0.697016 0.474666
vt 0.872232 0.771716
vt 0.707174 0.798274
vt 0.339936 0.455869
vt 0.570960 0.545301
vt 0.593836 0.848425
vt 0.339936 0.455869
vt 0.593836 0.848425
vt 0.346285 0.784929
vt 0.478795 0.250106
vt 0.613063 0.267530
vt 0.518677 0.407996
vt 0.000000 0.000000
vt 0.000000 0.000000
vt 0.000000 0.000000
vt 0.000000 0.000000
vt 0.000000 0.000000
vt 0.000000 0.000000
vt 0.000000 0.000000
vt 0.000000 0.000000
vt 0.000000 0.000000
vt 2.000000 0.250000
vt 0.152148 0.053291
vt 0.079380 0.172122
vt 0.213300 0.702965
vt 0.221980 0.622525
vt 0.274439 0.447325
vt 0.213300 0.702965
vt 0.274439 0.447325
vt 0.161904 0.415870
vt 0.672018 0.876399
vt 0.690059 0.956734
vt 0.588441 0.975962
vt 0.926395 0.462351
vt 0.912568 0.326431
vt 1.177633 0.416069
vt 0.344079 0.534294
vt 1.364865 0.505288
vt 0.214587 0.508760
vt 0.926395 0.462351
vt 1.177633 0.416069
vt 1.364865 0.505288
vt 0.335162 0.792065
vt 0.059732 0.814685
vt 0.200419 0.717451
vt 1.364865 0.505288
vt 0.177633 0.416069
vt 0.214587 0.508760
vt 0.527436 0.506651
vt 0.533785 0.835710
vt 0.335162 0.799877
vt 0.527436 0.506651
vt 0.335162 0.799877
vt 0.347051 0.456182
vt 0.068491 0.480229
vt 0.344079 0.534294
vt 0.341107 0.620217
vt 1.112506 0.827221
vt 0.871592 0.933434
vt 0.854334 0.891638
vt 0.068491 0.480229
vt 0.341107 0.620217
vt 0.200419 0.717451
vt 0.200419 0.717451
vt 0.341107 0.620217
vt 0.338135 0.706141
vt 0.338135 0.706141
vt 0.335162 0.792065
vt 0.200419 0.717451
vt 0.200419 0.717451
vt 0.059732 0.814685
vt 0.068491 0.480229
vt 0.214587 0.508760
vt 0.177633 0.416069
vt 0.350481 0.404411
vt 0.350481 0.404411
vt 0.533761 0.483870
vt 0.214587 0.508760
vn -0.998413 -0.004032 0.056173
vn -0.936266 -0.348897 0.040950
vn -0.930192 -0.165767 0.327513
vn -0.956490 0.262856 -0.126625
vn -0.941833 0.330312 0.062000
vn -0.959476 0.172229 0.223033
vn 0.989670 -0.136477 0.043899
vn 0.997509 0.056697 -0.041969
vn 0.989336 -0.095036 0.110371
vn 0.206904 0.537029 0.817796
vn -0.054664 0.629439 0.775125
vn 0.089085 0.528430 0.844290
vn 0.212141 0.964623 -0.156523
vn 0.093325 0.968512 -0.230814
vn 0.093325 0.968512 -0.230814
vn -0.158019 0.466477 -0.870304
vn -0.231659 0.659988 -0.714667
vn 0.060945 0.225304 -0.972381
vn 0.102888 0.036348 -0.994029
vn 0.382392 0.177990 -0.906695
vn 0.522918 0.657844 -0.542032
vn 0.643013 0.729279 0.233851
vn 0.643013 0.729279 0.233851
vn 0.643013 0.729279 0.233851
vn -0.655396 0.130085 0.743998
vn -0.952682 0.026408 0.302820
vn -0.800585 0.000026 0.599219
vn 0.042088 -0.252240 0.966749
vn 0.531962 -0.232444 0.814240
vn 0.797049 -0.149780 0.585046
vn -0.555289 0.822071 0.125911
vn -0.392860 0.541672 -0.743136
vn -0.939997 0.334385 0.067772
vn 0.797049 -0.149780 0.585046
vn 0.531962 -0.232444 0.814240
vn 0.781434 -0.229378 0.580298
vn 0.866187 -0.488784 -0.103969
vn 0.645997 -0.622876 0.441263
vn 0.539243 -0.833555 0.120009
vn 0.382392 0.177990 -0.906695
vn -0.156130 -0.059612 -0.985936
vn -0.206294 0.235823 -0.949648
vn 0.358220 0.933612 0.006831
vn 0.796458 0.322678 -0.511403
vn -0.392860 0.541672 -0.743136
vn 0.001598 -0.898996 0.437953
vn 0.645997 -0.622876 0.441263
vn 0.027397 -0.896472 0.442254
vn -0.555289 0.822071 0.125911
vn -0.939997 0.334385 0.067772
vn -0.487371 0.365868 0.792850
vn -0.936266 -0.348897 0.040950
vn -0.752756 -0.354546 0.554668
vn -0.930192 -0.165767 0.327513
vn -0.794603 -0.405043 -0.452269
vn -0.936266 -0.348897 0.040950
vn -0.998413 -0.004032 0.056173
vn -0.392860 0.541672 -0.743136
vn -0.555289 0.822071 0.125911
vn 0.358220 0.933612 0.006831
vn -0.156130 -0.059612 -0.985936
vn -0.029574 -0.381232 -0.924006
vn -0.418568 -0.414116 -0.808275
vn 0.870643 -0.337791 -0.357600
vn -0.029574 -0.381232 -0.924006
vn 0.551704 0.119380 -0.825452
vn 0.939817 0.288559 0.182968
vn 0.796458 0.322678 -0.511403
vn 0.358220 0.933612 0.006831
vn 0.358220 0.933612 0.006831
vn -0.025180 0.722987 0.690402
vn 0.529871 0.350458 0.772280
vn -0.174326 -0.936047 -0.305656
vn -0.660634 -0.696203 -0.280827
vn -0.229747 -0.945624 -0.230241
vn -0.469321 -0.355337 0.808377
vn -0.560927 -0.384969 0.732912
vn 0.042088 -0.252240 0.966749
vn -0.206294 0.235823 -0.949648
vn -0.110332 0.222096 -0.968762
vn 0.382392 0.177990 -0.906695
vn 0.997509 0.056697 -0.041969
vn 0.522918 0.657844 -0.542032
vn 0.382392 0.177990 -0.906695
vn -0.027326 0.953368 -0.300570
vn 0.093325 0.968512 -0.230814
vn 0.093325 0.968512 -0.230814
vn -0.027326 0.953368 -0.300570
vn 0.093325 0.968512 -0.230814
vn -0.027326 0.953368 -0.300570
vn -0.027326 0.953368 -0.300570
vn -0.027326 0.953368 -0.300570
vn -0.027326 0.953368 -0.300570
vn 0.113947 0.992640 0.041022
vn 0.338998 0.922875 -0.182706
vn 0.522918 0.657844 -0.542032
vn -0.231659 0.659988 -0.714667
vn -0.158019 0.466477 -0.870304
vn -0.530464 0.770425 -0.353628
vn -0.206294 0.235823 -0.949648
vn -0.156130 -0.059612 -0.985936
vn -0.694006 -0.159164 -0.702156
vn -0.660634 -0.696203 -0.280827
vn -0.914262 -0.159638 -0.372344
vn 0.038170 -0.902007 -0.430030
vn 0.522918 0.657844 -0.542032
vn 0.338998 0.922875 -0.182706
vn 0.551704 0.119380 -0.825452
vn 0.989336 -0.095036 0.110371
vn 0.870643 -0.337791 -0.357600
vn 0.989670 -0.136477 0.043899
vn -0.922202 -0.077408 0.378882
vn -0.997821 -0.014203 0.064425
vn -0.660634 -0.696203 -0.280827
vn 0.060945 0.225304 -0.972381
vn -0.001204 0.045770 -0.998951
vn -0.158019 0.466477 -0.870304
vn -0.469321 -0.355337 0.808377
vn 0.042088 -0.252240 0.966749
vn 0.797049 -0.149780 0.585046
vn -0.959476 0.172229 0.223033
vn -0.998413 -0.004032 0.056173
vn -0.990546 -0.134383 0.027567
vn -0.930192 -0.165767 0.327513
vn -0.752756 -0.354546 0.554668
vn -0.701900 -0.371637 0.607637
vn -0.418568 -0.414116 -0.808275
vn -0.794603 -0.405043 -0.452269
vn -0.694006 -0.159164 -0.702156
vn 0.382392 0.177990 -0.906695
vn 0.102888 0.036348 -0.994029
vn -0.156130 -0.059612 -0.985936
vn -0.694006 -0.159164 -0.702156
vn -0.998413 -0.004032 0.056173
vn -0.941833 0.330312 0.062000
vn 0.551704 0.119380 -0.825452
vn 0.102888 0.036348 -0.994029
vn 0.522918 0.657844 -0.542032
vn -0.025180 0.722987 0.690402
vn -0.487371 0.365868 0.792850
vn 0.529871 0.350458 0.772280
vn 0.762539 -0.597624 -0.247750
vn 0.997509 0.056697 -0.041969
vn 0.382392 0.177990 -0.906695
vn -0.833952 -0.440894 -0.331870
vn -0.787033 -0.346011 -0.510740
vn -0.990546 -0.134383 0.027567
vn 0.762539 -0.597624 -0.247750
vn 0.971129 -0.123469 -0.204115
vn 0.997509 0.056697 -0.041969
vn 0.027397 -0.896472 0.442254
vn 0.079822 -0.875643 0.476316
vn 0.001598 -0.898996 0.437953
vn -0.065930 0.103740 0.992417
vn -0.065930 0.103740 0.992417
vn -0.090912 0.095804 0.991240
vn -0.998413 -0.004032 0.056173
vn -0.694006 -0.159164 -0.702156
vn -0.794603 -0.405043 -0.452269
vn -0.701900 -0.371637 0.607637
vn -0.560927 -0.384969 0.732912
vn -0.469321 -0.355337 0.808377
vn -0.469321 -0.355337 0.808377
vn -0.930192 -0.165767 0.327513
vn -0.701900 -0.371637 0.607637
vn 0.997509 0.056697 -0.041969
vn 0.971129 -0.123469 -0.204115
vn 0.797049 -0.149780 0.585046
vn -0.029574 -0.381232 -0.924006
vn 0.102888 0.036348 -0.994029
vn 0.551704 0.119380 -0.825452
vn -0.156130 -0.059612 -0.985936
vn 0.102888 0.036348 -0.994029
vn -0.029574 -0.381232 -0.924006
vn -0.418568 -0.414116 -0.808275
vn -0.694006 -0.159164 -0.702156
vn -0.156130 -0.059612 -0.985936
vn -0.174326 -0.936047 -0.305656
vn -0.017661 -0.874164 -0.485309
vn -0.660634 -0.696203 -0.280827
vn -0.660634 -0.696203 -0.280827
vn -0.997821 -0.014203 0.064425
vn -0.914262 -0.159638 -0.372344
vn -0.040902 0.111605 0.992911
vn -0.065930 0.103740 0.992417
vn -0.065930 0.103740 0.992417
vn -0.952682 0.026408 0.302820
vn -0.956490 0.262856 -0.126625
vn -0.959476 0.172229 0.223033
vn 0.089085 0.528430 0.844290
vn 0.226368 0.411641 0.882785
vn 0.206904 0.537029 0.817796
vn -0.054664 0.629439 0.775125
vn -0.281864 0.644242 0.710989
vn 0.089085 0.528430 0.844290
vn -0.404725 0.913685 0.037126
vn -0.404725 0.913685 0.037126
vn -0.404725 0.913685 0.037126
vn 0.539243 -0.833555 0.120009
vn 0.645997 -0.622876 0.441263
vn 0.001598 -0.898996 0.437953
vn -0.930627 0.091904 0.354242
vn -0.807146 0.020675 0.589990
vn -0.989424 -0.008056 0.144831
vn -0.110332 0.222096 -0.968762
vn 0.019414 0.364062 -0.931172
vn 0.382392 0.177990 -0.906695
vn -0.959476 0.172229 0.223033
vn -0.941833 0.330312 0.062000
vn -0.998413 -0.004032 0.056173
vn 0.361773 0.326405 0.873258
vn 0.361773 0.326405 0.873258
vn 0.361773 0.326405 0.873258
vn -0.989424 -0.008056 0.144831
vn -0.930192 -0.165767 0.327513
vn -0.930627 0.091904 0.354242
vn -0.989424 -0.008056 0.144831
vn -0.833952 -0.440894 -0.331870
vn -0.990546 -0.134383 0.027567
vn -0.025180 0.722987 0.690402
vn 0.358220 0.933612 0.006831
vn -0.555289 0.822071 0.125911
vn 0.033556 0.139130 -0.989705
vn -0.054624 0.138269 -0.988887
vn -0.392860 0.541672 -0.743136
vn -0.997821 -0.014203 0.064425
vn -0.922202 -0.077408 0.378882
vn -0.487371 0.365868 0.792850
vn -0.997821 -0.014203 0.064425
vn -0.487371 0.365868 0.792850
vn -0.939997 0.334385 0.067772
vn -0.047182 0.077034 0.995911
vn -0.047182 0.077034 0.995911
vn 0.529871 0.350458 0.772280
vn -0.047182 0.077034 0.995911
vn 0.529871 0.350458 0.772280
vn -0.487371 0.365868 0.792850
vn -0.914262 -0.159638 -0.372344
vn -0.997821 -0.014203 0.064425
vn -0.939997 0.334385 0.067772
vn -0.914262 -0.159638 -0.372344
vn -0.939997 0.334385 0.067772
vn -0.392860 0.541672 -0.743136
vn -0.959476 0.172229 0.223033
vn -0.800585 0.000026 0.599219
vn -0.952682 0.026408 0.302820
vn 0.226368 0.411641 0.882785
vn 0.089085 0.528430 0.844290
vn 0.213201 0.326760 0.920746
vn 0.997509 0.056697 -0.041969
vn 0.797049 -0.149780 0.585046
vn 0.989336 -0.095036 0.110371
vn 0.781434 -0.229378 0.580298
vn 0.989336 -0.095036 0.110371
vn 0.797049 -0.149780 0.585046
vn 0.870643 -0.337791 -0.357600
vn 0.551704 0.119380 -0.825452
vn 0.989670 -0.136477 0.043899
vn -0.930192 -0.165767 0.327513
vn -0.989424 -0.008056 0.144831
vn -0.990546 -0.134383 0.027567
vn -0.930192 -0.165767 0.327513
vn -0.990546 -0.134383 0.027567
vn -0.998413 -0.004032 0.056173
vn -0.487371 0.365868 0.792850
vn -0.025180 0.722987 0.690402
vn -0.555289 0.822071 0.125911
vn 0.539243 -0.833555 0.120009
vn 0.971129 -0.123469 -0.204115
vn 0.762539 -0.597624 -0.247750
vn 0.840355 -0.345806 -0.417399
vn 0.866187 -0.488784 -0.103969
vn 0.038170 -0.902007 -0.430030
vn 0.539243 -0.833555 0.120009
vn 0.762539 -0.597624 -0.247750
vn 0.866187 -0.488784 -0.103969
vn 0.529871 0.350458 0.772280
vn 0.645997 -0.622876 0.441263
vn 0.982178 0.082504 0.168877
vn 0.866187 -0.488784 -0.103969
vn 0.762539 -0.597624 -0.247750
vn 0.038170 -0.902007 -0.430030
vn -0.392860 0.541672 -0.743136
vn 0.796458 0.322678 -0.511403
vn 0.121476 0.138910 -0.982826
vn -0.392860 0.541672 -0.743136
vn 0.121476 0.138910 -0.982826
vn 0.033556 0.139130 -0.989705
vn 0.866187 -0.488784 -0.103969
vn 0.840355 -0.345806 -0.417399
vn 0.796458 0.322678 -0.511403
vn 0.358220 0.933612 0.006831
vn 0.529871 0.350458 0.772280
vn 0.939817 0.288559 0.182968
vn 0.866187 -0.488784 -0.103969
vn 0.796458 0.322678 -0.511403
vn 0.982178 0.082504 0.168877
vn 0.982178 0.082504 0.168877
vn 0.796458 0.322678 -0.511403
vn 0.939817 0.288559 0.182968
vn 0.939817 0.288559 0.182968
vn 0.529871 0.350458 0.772280
vn 0.982178 0.082504 0.168877
vn 0.982178 0.082504 0.168877
vn 0.645997 -0.622876 0.441263
vn 0.866187 -0.488784 -0.103969
vn 0.038170 -0.902007 -0.430030
vn 0.762539 -0.597624 -0.247750
vn -0.229747 -0.945624 -0.230241
vn -0.229747 -0.945624 -0.230241
vn -0.660634 -0.696203 -0.280827
vn 0.038170 -0.902007 -0.430030
f 34/1/1 3/2/2 35/3/3
f 51/4/4 23/5/5 6/6/6
f 13/7/7 14/8/8 18/9/9
f 55/10/10 17/11/11 43/12/12
f 35/13/13 36/14/14 27/15/15
f 10/16/16 37/17/17 6/18/18
f 32/19/19 12/20/20 26/21/21
f 37/22/22 21/23/23 6/24/24
f 43/25/25 47/26/26 46/27/27
f 11/28/28 15/29/29 38/30/30
f 22/31/31 54/32/32 29/33/33
f 38/34/34 15/35/35 20/36/36
f 56/37/37 7/38/38 55/39/39
f 12/40/40 50/41/41 23/42/42
f 25/43/43 39/44/44 54/45/45
f 17/46/46 7/47/47 40/48/48
f 22/49/49 29/50/50 30/51/51
f 3/52/52 4/53/53 35/54/54
f 2/55/55 3/56/56 34/57/57
f 54/58/58 22/59/59 25/60/60
f 50/61/61 9/62/62 1/63/63
f 16/64/64 9/65/65 31/66/66
f 58/67/67 39/68/68 25/69/69
f 25/70/70 28/71/71 19/72/72
f 47/73/73 48/74/74 51/75/75
f 36/76/76 8/77/77 11/78/78
f 23/79/79 51/80/80 12/81/81
f 14/82/82 26/83/83 12/84/84
f 46/85/85 27/86/86 36/87/87
f 46/88/88 36/89/89 38/90/90
f 46/91/91 38/92/92 43/93/93
f 14/94/94 13/95/95 26/96/96
f 37/97/97 10/98/98 24/99/99
f 23/100/100 50/101/101 33/102/102
f 48/103/103 44/104/104 57/105/105
f 26/106/106 13/107/107 31/108/108
f 18/109/109 16/110/110 13/111/111
f 40/112/112 49/113/113 48/114/114
f 6/115/115 52/116/116 10/117/117
f 36/118/118 11/119/119 38/120/120
f 6/121/121 34/122/122 52/123/123
f 35/124/124 4/125/125 5/126/126
f 1/127/127 2/128/128 33/129/129
f 12/130/130 32/131/131 50/132/132
f 33/133/133 34/134/134 23/135/135
f 31/136/136 32/137/137 26/138/138
f 28/139/139 30/140/140 19/141/141
f 41/142/142 14/143/143 12/144/144
f 24/145/145 10/146/146 52/147/147
f 41/148/148 42/149/149 14/150/150
f 40/151/151 48/152/152 17/153/153
f 27/154/154 21/155/155 35/156/156
f 34/157/157 33/158/158 2/159/159
f 5/160/160 8/161/161 36/162/162
f 36/163/163 35/164/164 5/165/165
f 14/166/166 42/167/167 38/168/168
f 9/169/169 32/170/170 31/171/171
f 50/172/172 32/173/173 9/174/174
f 1/175/175 33/176/176 50/177/177
f 47/178/178 43/179/179 48/180/180
f 48/181/181 49/182/182 44/183/183
f 46/184/184 21/185/185 27/186/186
f 47/187/187 51/188/188 6/189/189
f 43/190/190 42/191/191 55/192/192
f 17/193/193 48/194/194 43/195/195
f 6/196/196 21/197/197 46/198/198
f 55/199/199 7/200/200 17/201/201
f 21/202/202 37/203/203 53/204/204
f 51/205/205 41/206/206 12/207/207
f 6/208/208 23/209/209 34/210/210
f 37/211/211 24/212/212 53/213/213
f 53/214/214 35/215/215 21/216/216
f 53/217/217 24/218/218 52/219/219
f 28/220/220 25/221/221 22/222/222
f 57/223/223 44/224/224 54/225/225
f 49/226/226 40/227/227 30/228/228
f 49/229/229 30/230/230 29/231/231
f 40/232/232 7/233/233 19/234/234
f 40/235/235 19/236/236 30/237/237
f 44/238/238 49/239/239 29/240/240
f 44/241/241 29/242/242 54/243/243
f 6/244/244 46/245/245 47/246/246
f 42/247/247 43/248/248 38/249/249
f 14/250/250 38/251/251 18/252/252
f 20/253/253 18/254/254 38/255/255
f 16/256/256 31/257/257 13/258/258
f 35/259/259 53/260/260 52/261/261
f 35/262/262 52/263/263 34/264/264
f 30/265/265 28/266/266 22/267/267
f 55/268/268 42/269/269 41/270/270
f 45/271/271 56/272/272 57/273/273
f 55/274/274 41/275/275 56/276/276
f 19/277/277 7/278/278 59/279/279
f 56/280/280 41/281/281 57/282/282
f 54/283/283 39/284/284 45/285/285
f 54/286/286 45/287/287 57/288/288
f 56/289/289 45/290/290 39/291/291
f 25/292/292 19/293/293 58/294/294
f 56/295/295 39/296/296 59/297/297
f 59/298/298 39/299/299 58/300/300
f 58/301/301 19/302/302 59/303/303
f 59/304/304 7/305/305 56/306/306
f 57/307/307 41/308/308 51/309/309
f 51/310/310 48/311/311 57/312/312
