v -10.103356 -1.439636 -5.051859
v 0.151133 24.768871 -11.200173
v -10.212810 -1.537221 5.073042
v -5.020216 -1.410000 -10.127711
v -4.655075 13.871413 -5.120870
v -8.357877 13.146929 1.073033
v -4.968646 11.058424 5.153809
v -4.969914 -1.686314 10.446423
v 1.083934 97.914902 6.980848
v -0.106713 13.993145 -7.817687
v 2.771131 -10.526532 5.613556
v 0.837427 10.521986 9.436219
v -6.476651 26.986261 -8.542754
v 5.024892 -1.139625 -10.138441
v 5.166102 15.388135 -4.614385
v 8.003711 13.382854 0.224303
v 5.727903 13.083818 6.703692
v 5.321823 -1.617634 10.661504
v 10.088290 -1.157681 -5.078590
v -11.159685 24.818920 2.329566
v 10.133951 -1.508779 5.156130
v 1.943994 20.026506 13.259201
v 17.679701 23.331259 19.080481
v 24.107943 27.173447 0.178074
v 13.749910 23.267000 -14.925100
v 0.591423 28.796680 -17.665401
v -13.656330 23.879639 13.780802
v -18.199526 32.662441 -1.413906
v -12.381956 31.931963 -18.066528
v -15.906027 60.958183 -17.635752
v -19.411800 65.730774 -0.812223
v -2.414573 58.357925 -16.432976
v -14.937021 64.492310 14.619399
v -2.706372 61.402893 23.419312
v 16.187777 58.453976 -12.527264
v 25.755455 60.010811 1.081302
v 17.871420 26.788502 19.335827
v -2.228392 68.364822 15.245761
v 8.565564 72.874207 10.830274
v 12.992136 86.022888 4.133856
v 5.734397 87.802948 -0.395218
v -0.062686 87.360168 -2.487105
v -3.221648 86.745300 4.033900
v 3.455342 98.260742 5.762021
v 9.851567 65.978104 -8.568818
v -1.227527 90.916641 0.050147
v 5.266226 -10.472304 2.759376
v 0.813998 91.611664 -0.380149
v 3.563117 91.794327 0.541219
v 3.537077 91.762909 2.498607
v -1.054722 97.436615 5.811190
v 8.786191 21.484043 -7.296356
v 5.240420 -10.278466 -2.546006
v 16.318108 23.903637 2.910232
v 2.616087 -10.267265 -5.168048
v -2.590384 -10.415522 -5.163971
v -5.225714 -10.432735 -2.532908
v -5.283145 -10.487035 2.716311
v -2.565170 -10.568175 5.503062
v -1.238629 86.197937 -9.460039
v 7.115584 80.786362 -7.206958
vt 0.895394 -0.723554
vt 0.672864 -0.307055
vt 0.652355 -0.726661
vt 0.132567 -0.728621
vt 0.132631 -0.364864
vt -0.132227 -0.724366
vt 0.893087 -0.713533
vt 0.644491 -0.241286
vt 0.787805 -0.298520
vt 0.652355 -0.726661
vt 0.672864 -0.307055
vt 0.425869 -0.380175
vt 0.425869 -0.380175
vt 0.132631 -0.364864
vt 0.132567 -0.728621
vt 0.827324 -0.067298
vt 0.644491 -0.241286
vt 0.378185 -0.281102
vt 0.827324 -0.067298
vt 0.378185 -0.281102
vt 0.391208 0.026457
vt -0.180049 0.027885
vt -0.038543 -0.305254
vt -0.306143 0.001077
vt 0.056469 0.089745
vt 0.148468 -0.284576
vt -0.038543 -0.305254
vt 0.056469 0.089745
vt -0.038543 -0.305254
vt -0.180049 0.027885
vt 0.391208 0.026457
vt 0.378185 -0.281102
vt 0.148468 -0.284576
vt 0.391208 0.026457
vt 0.148468 -0.284576
vt 0.056469 0.089745
vt -0.596826 1.195582
vt -0.370825 1.160234
vt 0.271029 1.270763
vt 0.271029 1.270763
vt 0.220864 1.795374
vt -0.596826 1.195582
vt 0.220864 1.795374
vt 0.330305 2.100523
vt 0.321578 1.914432
vt 0.321017 1.779751
vt 0.261626 0.985148
vt -0.419765 1.059364
vt 0.330305 2.100523
vt 0.220864 1.795374
vt 0.271029 1.270763
vt 0.438319 2.114175
vt 0.271029 1.270763
vt 0.816182 1.399469
vt 0.558088 2.124045
vt 0.816182 1.399469
vt 1.039747 1.774755
vt 0.563531 1.939482
vt 0.562216 1.938586
vt 1.039747 1.774755
vt -0.126699 -0.721581
vt 0.148468 -0.284576
vt 0.130027 -0.720735
vt -0.038543 -0.305254
vt 1.183594 -0.742188
vt -0.132227 -0.724366
vt -0.132227 -0.724366
vt 0.132631 -0.364864
vt -0.038543 -0.305254
vt 0.481757 -0.108899
vt 0.425869 -0.380175
vt 0.672864 -0.307055
vt 0.481757 -0.108899
vt -0.306143 0.001077
vt 0.132631 -0.364864
vt -0.804688 0.062500
vt -0.089844 0.269531
vt -0.180049 0.027885
vt 0.246888 1.072057
vt 0.481757 -0.108899
vt 1.276494 -0.014575
vt 0.130027 -0.720735
vt 0.148468 -0.284576
vt 0.378185 -0.281102
vt 0.424686 1.934269
vt 0.321578 1.914432
vt 0.330305 2.100523
vt 0.425869 -0.380175
vt 0.132567 -0.728621
vt 0.652355 -0.726661
vt 0.246888 1.072057
vt -0.370825 1.160234
vt -0.306143 0.001077
vt 1.684363 1.032324
vt 1.601155 0.095088
vt 1.078019 -0.016409
vt -0.038543 -0.305254
vt 0.148468 -0.284576
vt -0.126699 -0.721581
vt 0.378185 -0.281102
vt 0.644491 -0.241286
vt 0.637359 -0.713018
vt 0.558088 2.124045
vt 0.562216 1.938586
vt 0.563531 1.939482
vt 0.558088 2.124045
vt 0.563531 1.939482
vt 0.424686 1.934269
vt 0.637359 -0.713018
vt 0.644491 -0.241286
vt 0.893087 -0.713533
vt 1.824219 -0.734375
vt 0.893087 -0.713533
vt 0.787805 -0.298520
vt 0.787805 -0.298520
vt 0.672864 -0.307055
vt 0.895394 -0.723554
vt 1.039747 1.774755
vt 0.562216 1.938586
vt 0.558088 2.124045
vt 0.816182 1.399469
vt 0.558088 2.124045
vt 0.438319 2.114175
vt 0.271029 1.270763
vt 0.438319 2.114175
vt 0.330305 2.100523
vt 1.039747 1.774755
vt 0.673192 1.825561
vt 0.563531 1.939482
vt 0.673192 1.825561
vt 0.380409 1.812923
vt 0.424686 1.934269
vt 0.673192 1.825561
vt 0.424686 1.934269
vt 0.563531 1.939482
vt 0.321578 1.914432
vt 0.424686 1.934269
vt 0.380409 1.812923
vt -0.370825 1.160234
vt 0.246888 1.072057
vt 0.271029 1.270763
vt 0.673192 1.825561
vt 1.039747 1.774755
vt 0.742950 1.625296
vt 1.286177 0.084101
vt 1.684363 1.032324
vt 1.039747 1.774755
vt 1.286177 0.084101
vt 0.816182 1.399469
vt 0.271029 1.270763
vt 1.276494 -0.014575
vt 1.601155 0.095088
vt 1.684363 1.032324
vt 1.276494 -0.014575
vt 1.684363 1.032324
vt 1.286177 0.084101
vt 1.276494 -0.014575
vt 1.286177 0.084101
vt 0.246888 1.072057
vt 1.078019 -0.016409
vt 1.201144 0.987890
vt 1.684363 1.032324
vt 1.078019 -0.016409
vt 0.413445 0.141418
vt 0.261626 0.985148
vt 1.078019 -0.016409
vt 0.261626 0.985148
vt 1.201144 0.987890
vt -0.535599 0.251753
vt -0.306143 0.001077
vt -0.370825 1.160234
vt -0.535599 0.251753
vt -0.370825 1.160234
vt -0.596826 1.195582
vt 0.672864 -0.307055
vt 1.276494 -0.014575
vt 0.481757 -0.108899
vt 0.672864 -0.307055
vt 0.787805 -0.298520
vt 1.207727 0.001761
vt 0.734375 -0.050781
vt 1.046875 0.199219
vt 0.250000 0.285156
vt 0.734375 -0.050781
vt 0.250000 0.285156
vt 0.226562 0.070312
vt 0.391208 0.026457
vt 0.413445 0.141418
vt 1.078019 -0.016409
vt 0.132631 -0.364864
vt 0.425869 -0.380175
vt 0.481757 -0.108899
vt -0.038543 -0.305254
vt 0.132631 -0.364864
vt -0.306143 0.001077
vt 1.203125 0.003906
vt 1.074219 0.250000
vt 0.413445 0.141418
vt 1.203125 0.003906
vt 0.413445 0.141418
vt 0.391208 0.026457
vt -0.180049 0.027885
vt -0.089844 0.269531
vt 1.074219 0.250000
vt -0.180049 0.027885
vt 1.074219 0.250000
vt 1.203125 0.003906
vt -0.241781 0.230904
vt -0.535599 0.251753
vt -0.596826 1.195582
vt -0.241781 0.230904
vt -0.596826 1.195582
vt -0.419765 1.059364
vt 0.413445 0.141418
vt -0.241781 0.230904
vt -0.419765 1.059364
vt 0.413445 0.141418
vt -0.419765 1.059364
vt 0.261626 0.985148
vt -0.306143 0.001077
vt 0.481757 -0.108899
vt 0.246888 1.072057
vt 0.637359 -0.713018
vt 0.130027 -0.720735
vt 0.378185 -0.281102
vt 0.391208 0.026457
vt 1.078019 -0.016409
vt 0.827324 -0.067298
vt 0.787805 -0.298520
vt 0.644491 -0.241286
vt 0.827324 -0.067298
vt 0.609375 0.039062
vt 0.914062 0.371094
vt 0.261719 0.082031
vt 0.789062 0.019531
vt 0.672864 -0.307055
vt 1.207727 0.001761
vt 0.895394 -0.723554
vt 0.652355 -0.726661
vt 0.523532 -0.980937
vt 0.895394 -0.723554
vt 0.523532 -0.980937
vt 0.649547 -0.979389
vt 0.130027 -0.720735
vt 0.637359 -0.713018
vt 0.515701 -0.973537
vt 0.130027 -0.720735
vt 0.515701 -0.973537
vt 0.252746 -0.977768
vt 0.433594 -0.710938
vt -0.126699 -0.721581
vt 0.589844 -0.992188
vt 0.433594 -0.710938
vt 0.589844 -0.992188
vt 0.116747 -0.979809
vt 0.652355 -0.726661
vt 0.132567 -0.728621
vt 0.254020 -0.982125
vt 0.652355 -0.726661
vt 0.254020 -0.982125
vt 0.523532 -0.980937
vt 1.480469 -0.734375
vt 0.895394 -0.723554
vt 0.933594 -0.988281
vt 1.480469 -0.734375
vt 0.933594 -0.988281
vt 0.648244 -0.973857
vt 0.637359 -0.713018
vt 0.893087 -0.713533
vt 0.648244 -0.973857
vt 0.637359 -0.713018
vt 0.648244 -0.973857
vt 0.515701 -0.973537
vt -0.126699 -0.721581
vt 0.130027 -0.720735
vt 0.252746 -0.977768
vt -0.126699 -0.721581
vt 0.252746 -0.977768
vt 0.119648 -0.978260
vt 0.132567 -0.728621
vt -0.132227 -0.724366
vt 0.116747 -0.979809
vt 0.132567 -0.728621
vt 0.116747 -0.979809
vt 0.254020 -0.982125
vt 0.827324 -0.067298
vt 1.207727 0.001761
vt 0.787805 -0.298520
vt 0.330305 2.100523
vt 0.438319 2.114175
vt 0.558088 2.124045
vt 0.558088 2.124045
vt 0.424686 1.934269
vt 0.330305 2.100523
vt 1.201144 0.987890
vt 0.261626 0.985148
vt 0.881132 1.202641
vt 0.881132 1.202641
vt 0.261626 0.985148
vt 0.321017 1.779751
vt 0.271029 1.270763
vt 0.246888 1.072057
vt 1.286177 0.084101
vt 1.039747 1.774755
vt 0.816182 1.399469
vt 1.286177 0.084101
vt 0.742950 1.625296
vt 0.321017 1.779751
vt 0.380409 1.812923
vt 0.742950 1.625296
vt 1.039747 1.774755
vt 0.881132 1.202641
vt 1.039747 1.774755
vt 1.684363 1.032324
vt 1.201144 0.987890
vt 1.201144 0.987890
vt 0.881132 1.202641
vt 1.039747 1.774755
vt 0.742950 1.625296
vt 0.380409 1.812923
vt 0.673192 1.825561
vt -0.596826 1.195582
vt 0.220864 1.795374
vt 0.321017 1.779751
vt -0.419765 1.059364
vt -0.596826 1.195582
vt 0.321017 1.779751
vt 0.380409 1.812923
vt 0.321017 1.779751
vt 0.220864 1.795374
vt 0.380409 1.812923
vt 0.220864 1.795374
vt 0.321578 1.914432
vt 0.321017 1.779751
vt 0.742950 1.625296
vt 0.881132 1.202641
vn 0.934793 -0.098857 0.341159
vn 0.713475 -0.324463 0.621029
vn 0.398048 -0.118262 0.909710
vn -0.433425 -0.068055 0.898616
vn -0.638359 -0.121300 0.760121
vn -0.890523 -0.070741 0.449404
vn 0.917349 -0.075263 -0.390904
vn 0.659326 -0.045081 -0.750504
vn 0.962445 -0.210818 -0.171045
vn 0.398048 -0.118262 0.909710
vn 0.713475 -0.324463 0.621029
vn -0.043965 0.010854 0.998974
vn -0.043965 0.010854 0.998974
vn -0.638359 -0.121300 0.760121
vn -0.433425 -0.068055 0.898616
vn 0.422208 -0.753347 -0.504191
vn 0.659326 -0.045081 -0.750504
vn -0.031489 0.011916 -0.999433
vn 0.422208 -0.753347 -0.504191
vn -0.031489 0.011916 -0.999433
vn -0.177294 -0.731010 -0.658932
vn -0.806101 -0.508889 -0.302049
vn -0.996453 -0.073299 -0.041341
vn -0.743282 -0.457575 0.488012
vn -0.594585 -0.595958 -0.539725
vn -0.711453 0.073458 -0.698884
vn -0.996453 -0.073299 -0.041341
vn -0.594585 -0.595958 -0.539725
vn -0.996453 -0.073299 -0.041341
vn -0.806101 -0.508889 -0.302049
vn -0.177294 -0.731010 -0.658932
vn -0.031489 0.011916 -0.999433
vn -0.711453 0.073458 -0.698884
vn -0.177294 -0.731010 -0.658932
vn -0.711453 0.073458 -0.698884
vn -0.594585 -0.595958 -0.539725
vn -0.878996 0.471070 0.073880
vn -0.650014 0.498149 0.573872
vn -0.214516 0.557470 0.802004
vn -0.214516 0.557470 0.802004
vn -0.894306 0.447267 0.012991
vn -0.878996 0.471070 0.073880
vn -0.894306 0.447267 0.012991
vn -0.713347 0.687929 -0.133750
vn -0.704259 0.372439 -0.604407
vn -0.085048 0.697813 -0.711213
vn 0.209465 0.225439 -0.951474
vn 0.100300 0.136542 -0.985544
vn -0.713347 0.687929 -0.133750
vn -0.894306 0.447267 0.012991
vn -0.214516 0.557470 0.802004
vn 0.069069 0.281533 0.957063
vn -0.214516 0.557470 0.802004
vn 0.394660 0.247845 0.884769
vn 0.446829 0.260793 0.855763
vn 0.394660 0.247845 0.884769
vn 0.548112 0.252959 0.797235
vn 0.537400 0.599281 -0.593350
vn 0.558877 0.649727 -0.515278
vn 0.561548 0.548319 -0.619685
vn -0.910505 -0.073547 -0.406904
vn -0.711453 0.073458 -0.698884
vn -0.407310 -0.070923 -0.910532
vn -0.996453 -0.073299 -0.041341
vn -0.910505 -0.073547 -0.406904
vn -0.890523 -0.070741 0.449404
vn -0.890523 -0.070741 0.449404
vn -0.638359 -0.121300 0.760121
vn -0.996453 -0.073299 -0.041341
vn -0.099741 -0.444078 0.890419
vn -0.043965 0.010854 0.998974
vn 0.713475 -0.324463 0.621029
vn -0.099741 -0.444078 0.890419
vn -0.743282 -0.457575 0.488012
vn -0.638359 -0.121300 0.760121
vn -0.743282 -0.457575 0.488012
vn -0.882392 -0.454022 -0.123489
vn -0.806101 -0.508889 -0.302049
vn -0.245584 0.029354 0.968931
vn -0.099741 -0.444078 0.890419
vn -0.115162 -0.370313 0.921741
vn -0.407310 -0.070923 -0.910532
vn -0.711453 0.073458 -0.698884
vn -0.031489 0.011916 -0.999433
vn 0.015868 0.584717 -0.811082
vn -0.704259 0.372439 -0.604407
vn -0.713347 0.687929 -0.133750
vn -0.043965 0.010854 0.998974
vn -0.433425 -0.068055 0.898616
vn 0.398048 -0.118262 0.909710
vn -0.245584 0.029354 0.968931
vn -0.650014 0.498149 0.573872
vn -0.743282 -0.457575 0.488012
vn 0.977088 0.136379 -0.163400
vn 0.988949 -0.046770 -0.140689
vn 0.661340 0.004559 -0.750073
vn -0.996453 -0.073299 -0.041341
vn -0.711453 0.073458 -0.698884
vn -0.910505 -0.073547 -0.406904
vn -0.031489 0.011916 -0.999433
vn 0.659326 -0.045081 -0.750504
vn 0.398389 -0.073179 -0.914293
vn 0.199677 0.748003 -0.632946
vn 0.558877 0.649727 -0.515278
vn 0.537400 0.599281 -0.593350
vn 0.199677 0.748003 -0.632946
vn 0.537400 0.599281 -0.593350
vn 0.015868 0.584717 -0.811082
vn 0.398389 -0.073179 -0.914293
vn 0.659326 -0.045081 -0.750504
vn 0.917349 -0.075263 -0.390904
vn 0.934793 -0.098857 0.341159
vn 0.917349 -0.075263 -0.390904
vn 0.962445 -0.210818 -0.171045
vn 0.962445 -0.210818 -0.171045
vn 0.713475 -0.324463 0.621029
vn 0.934793 -0.098857 0.341159
vn 0.561548 0.548319 -0.619685
vn 0.558877 0.649727 -0.515278
vn 0.199677 0.748003 -0.632946
vn 0.394660 0.247845 0.884769
vn 0.446829 0.260793 0.855763
vn 0.069069 0.281533 0.957063
vn -0.214516 0.557470 0.802004
vn 0.069069 0.281533 0.957063
vn -0.713347 0.687929 -0.133750
vn 0.561548 0.548319 -0.619685
vn 0.395072 0.561255 -0.727263
vn 0.537400 0.599281 -0.593350
vn 0.395072 0.561255 -0.727263
vn -0.121031 0.716628 -0.686874
vn 0.015868 0.584717 -0.811082
vn 0.395072 0.561255 -0.727263
vn 0.015868 0.584717 -0.811082
vn 0.537400 0.599281 -0.593350
vn -0.704259 0.372439 -0.604407
vn 0.015868 0.584717 -0.811082
vn -0.121031 0.716628 -0.686874
vn -0.650014 0.498149 0.573872
vn -0.245584 0.029354 0.968931
vn -0.214516 0.557470 0.802004
vn 0.395072 0.561255 -0.727263
vn 0.561548 0.548319 -0.619685
vn 0.538000 0.546330 -0.641934
vn 0.687091 0.234938 0.687539
vn 0.977088 0.136379 -0.163400
vn 0.548112 0.252959 0.797235
vn 0.687091 0.234938 0.687539
vn 0.394660 0.247845 0.884769
vn -0.214516 0.557470 0.802004
vn 0.949628 -0.057953 0.307973
vn 0.988949 -0.046770 -0.140689
vn 0.977088 0.136379 -0.163400
vn 0.949628 -0.057953 0.307973
vn 0.977088 0.136379 -0.163400
vn 0.687091 0.234938 0.687539
vn -0.115162 -0.370313 0.921741
vn 0.067513 -0.077213 0.994726
vn -0.245584 0.029354 0.968931
vn 0.661340 0.004559 -0.750073
vn 0.443453 0.340846 -0.828959
vn 0.977088 0.136379 -0.163400
vn 0.661340 0.004559 -0.750073
vn 0.141368 0.046359 -0.988871
vn 0.209465 0.225439 -0.951474
vn 0.661340 0.004559 -0.750073
vn 0.209465 0.225439 -0.951474
vn 0.443453 0.340846 -0.828959
vn -0.882392 -0.454022 -0.123489
vn -0.743282 -0.457575 0.488012
vn -0.650014 0.498149 0.573872
vn -0.882392 -0.454022 -0.123489
vn -0.650014 0.498149 0.573872
vn -0.878996 0.471070 0.073880
vn 0.713475 -0.324463 0.621029
vn -0.115162 -0.370313 0.921741
vn -0.099741 -0.444078 0.890419
vn 0.713475 -0.324463 0.621029
vn 0.962445 -0.210818 -0.171045
vn 0.616484 -0.783250 -0.080412
vn 0.422208 -0.753347 -0.504191
vn -0.026191 -0.948925 -0.314413
vn 0.361528 -0.931467 -0.040825
vn 0.422208 -0.753347 -0.504191
vn 0.361528 -0.931467 -0.040825
vn 0.616484 -0.783250 -0.080412
vn -0.177294 -0.731010 -0.658932
vn -0.259917 -0.848549 -0.460878
vn -0.026191 -0.948925 -0.314413
vn -0.638359 -0.121300 0.760121
vn -0.043965 0.010854 0.998974
vn -0.099741 -0.444078 0.890419
vn -0.996453 -0.073299 -0.041341
vn -0.638359 -0.121300 0.760121
vn -0.743282 -0.457575 0.488012
vn -0.594585 -0.595958 -0.539725
vn -0.673005 -0.657763 -0.338248
vn -0.259917 -0.848549 -0.460878
vn -0.594585 -0.595958 -0.539725
vn -0.259917 -0.848549 -0.460878
vn -0.177294 -0.731010 -0.658932
vn -0.806101 -0.508889 -0.302049
vn -0.882392 -0.454022 -0.123489
vn -0.673005 -0.657763 -0.338248
vn -0.806101 -0.508889 -0.302049
vn -0.673005 -0.657763 -0.338248
vn -0.594585 -0.595958 -0.539725
vn -0.673005 -0.657763 -0.338248
vn -0.882392 -0.454022 -0.123489
vn -0.878996 0.471070 0.073880
vn -0.673005 -0.657763 -0.338248
vn -0.878996 0.471070 0.073880
vn -0.918018 0.254921 -0.303739
vn 0.141368 0.046359 -0.988871
vn 0.068206 0.035906 -0.997025
vn 0.100300 0.136542 -0.985544
vn 0.141368 0.046359 -0.988871
vn 0.100300 0.136542 -0.985544
vn 0.209465 0.225439 -0.951474
vn -0.743282 -0.457575 0.488012
vn -0.099741 -0.444078 0.890419
vn -0.245584 0.029354 0.968931
vn 0.398389 -0.073179 -0.914293
vn -0.407310 -0.070923 -0.910532
vn -0.031489 0.011916 -0.999433
vn -0.177294 -0.731010 -0.658932
vn -0.026191 -0.948925 -0.314413
vn 0.422208 -0.753347 -0.504191
vn 0.962445 -0.210818 -0.171045
vn 0.659326 -0.045081 -0.750504
vn 0.422208 -0.753347 -0.504191
vn 0.616484 -0.783250 -0.080412
vn 0.361528 -0.931467 -0.040825
vn 0.542906 -0.836409 -0.075321
vn 0.542906 -0.836409 -0.075321
vn 0.713475 -0.324463 0.621029
vn 0.616484 -0.783250 -0.080412
vn 0.934793 -0.098857 0.341159
vn 0.398048 -0.118262 0.909710
vn 0.344079 -0.535371 0.771354
vn 0.934793 -0.098857 0.341159
vn 0.344079 -0.535371 0.771354
vn 0.808129 -0.515427 0.285067
vn -0.407310 -0.070923 -0.910532
vn 0.398389 -0.073179 -0.914293
vn 0.330730 -0.516970 -0.789532
vn -0.407310 -0.070923 -0.910532
vn 0.330730 -0.516970 -0.789532
vn -0.317178 -0.522113 -0.791705
vn -0.890523 -0.070741 0.449404
vn -0.910505 -0.073547 -0.406904
vn -0.786998 -0.519862 -0.332232
vn -0.890523 -0.070741 0.449404
vn -0.786998 -0.519862 -0.332232
vn -0.796505 -0.519969 0.308565
vn 0.398048 -0.118262 0.909710
vn -0.433425 -0.068055 0.898616
vn -0.340128 -0.526141 0.779415
vn 0.398048 -0.118262 0.909710
vn -0.340128 -0.526141 0.779415
vn 0.344079 -0.535371 0.771354
vn 0.917349 -0.075263 -0.390904
vn 0.934793 -0.098857 0.341159
vn 0.808129 -0.515427 0.285067
vn 0.917349 -0.075263 -0.390904
vn 0.808129 -0.515427 0.285067
vn 0.789851 -0.512935 -0.336205
vn 0.398389 -0.073179 -0.914293
vn 0.917349 -0.075263 -0.390904
vn 0.789851 -0.512935 -0.336205
vn 0.398389 -0.073179 -0.914293
vn 0.789851 -0.512935 -0.336205
vn 0.330730 -0.516970 -0.789532
vn -0.910505 -0.073547 -0.406904
vn -0.407310 -0.070923 -0.910532
vn -0.317178 -0.522113 -0.791705
vn -0.910505 -0.073547 -0.406904
vn -0.317178 -0.522113 -0.791705
vn -0.786998 -0.519862 -0.332232
vn -0.433425 -0.068055 0.898616
vn -0.890523 -0.070741 0.449404
vn -0.796505 -0.519969 0.308565
vn -0.433425 -0.068055 0.898616
vn -0.796505 -0.519969 0.308565
vn -0.340128 -0.526141 0.779415
vn 0.422208 -0.753347 -0.504191
vn 0.616484 -0.783250 -0.080412
vn 0.962445 -0.210818 -0.171045
vn -0.713347 0.687929 -0.133750
vn -0.180047 0.981023 -0.071945
vn 0.199677 0.748003 -0.632946
vn 0.199677 0.748003 -0.632946
vn 0.015868 0.584717 -0.811082
vn -0.713347 0.687929 -0.133750
vn 0.443453 0.340846 -0.828959
vn 0.209465 0.225439 -0.951474
vn 0.398462 0.349324 -0.848057
vn 0.398462 0.349324 -0.848057
vn 0.209465 0.225439 -0.951474
vn -0.085048 0.697813 -0.711213
vn -0.214516 0.557470 0.802004
vn 0.803600 0.429071 0.412461
vn 0.687091 0.234938 0.687539
vn 0.548112 0.252959 0.797235
vn 0.394660 0.247845 0.884769
vn 0.687091 0.234938 0.687539
vn 0.538000 0.546330 -0.641934
vn -0.085048 0.697813 -0.711213
vn -0.121031 0.716628 -0.686874
vn 0.538000 0.546330 -0.641934
vn 0.561548 0.548319 -0.619685
vn 0.398462 0.349324 -0.848057
vn 0.561548 0.548319 -0.619685
vn 0.977088 0.136379 -0.163400
vn 0.443453 0.340846 -0.828959
vn 0.443453 0.340846 -0.828959
vn 0.398462 0.349324 -0.848057
vn 0.561548 0.548319 -0.619685
vn 0.538000 0.546330 -0.641934
vn -0.121031 0.716628 -0.686874
vn 0.395072 0.561255 -0.727263
vn -0.878996 0.471070 0.073880
vn -0.894306 0.447267 0.012991
vn -0.085048 0.697813 -0.711213
vn -0.918018 0.254921 -0.303739
vn -0.878996 0.471070 0.073880
vn -0.085048 0.697813 -0.711213
vn -0.121031 0.716628 -0.686874
vn -0.085048 0.697813 -0.711213
vn -0.894306 0.447267 0.012991
vn -0.121031 0.716628 -0.686874
vn -0.894306 0.447267 0.012991
vn -0.704259 0.372439 -0.604407
vn -0.085048 0.697813 -0.711213
vn 0.538000 0.546330 -0.641934
vn 0.398462 0.349324 -0.848057
f 21/1/1 17/2/2 18/3/3
f 8/4/4 7/5/5 3/6/6
f 19/7/7 15/8/8 16/9/9
f 18/10/10 17/11/11 12/12/12
f 12/13/13 7/14/14 8/15/15
f 52/16/16 15/17/17 10/18/18
f 52/19/19 10/20/20 2/21/21
f 20/22/22 6/23/23 27/24/24
f 13/25/25 5/26/26 6/27/27
f 13/28/28 6/29/29 20/30/30
f 2/31/31 10/32/32 5/33/33
f 2/34/34 5/35/35 13/36/36
f 31/37/37 33/38/38 38/39/39
f 38/40/40 43/41/41 31/42/42
f 43/43/43 51/44/44 46/45/45
f 60/46/46 32/47/47 30/48/48
f 51/49/49 43/50/50 38/51/51
f 9/52/52 38/53/53 39/54/54
f 44/55/55 39/56/56 40/57/57
f 49/58/58 50/59/59 40/60/60
f 1/61/61 5/62/62 4/63/63
f 6/64/64 1/65/65 3/66/66
f 3/67/67 7/68/68 6/69/69
f 22/70/70 12/71/71 17/72/72
f 22/73/73 27/74/74 7/75/75
f 27/76/76 28/77/77 20/78/78
f 34/79/79 22/80/80 23/81/81
f 4/82/82 5/83/83 10/84/84
f 48/85/85 46/86/86 51/87/87
f 12/88/88 8/89/89 18/90/90
f 34/91/91 33/92/92 27/93/93
f 36/94/94 24/95/95 25/96/96
f 6/97/97 5/98/98 1/99/99
f 10/100/100 15/101/101 14/102/102
f 44/103/103 50/104/104 49/105/105
f 44/106/106 49/107/107 48/108/108
f 14/109/109 15/110/110 19/111/111
f 21/112/112 19/113/113 16/114/114
f 16/115/115 17/116/116 21/117/117
f 40/118/118 50/119/119 44/120/120
f 39/121/121 44/122/122 9/123/123
f 38/124/124 9/125/125 51/126/126
f 40/127/127 41/128/128 49/129/129
f 41/130/130 42/131/131 48/132/132
f 41/133/133 48/134/134 49/135/135
f 46/136/136 48/137/137 42/138/138
f 33/139/139 34/140/140 38/141/141
f 41/142/142 40/143/143 61/144/144
f 37/145/145 36/146/146 40/147/147
f 37/148/148 39/149/149 38/150/150
f 23/151/151 24/152/152 36/153/153
f 23/154/154 36/155/155 37/156/156
f 23/157/157 37/158/158 34/159/159
f 25/160/160 35/161/161 36/162/162
f 25/163/163 26/164/164 32/165/165
f 25/166/166 32/167/167 35/168/168
f 28/169/169 27/170/170 33/171/171
f 28/172/172 33/173/173 31/174/174
f 17/175/175 23/176/176 22/177/177
f 17/178/178 16/179/179 54/180/180
f 52/181/181 25/182/182 24/183/183
f 52/184/184 24/185/185 54/186/186
f 2/187/187 26/188/188 25/189/189
f 7/190/190 12/191/191 22/192/192
f 6/193/193 7/194/194 27/195/195
f 13/196/196 29/197/197 26/198/198
f 13/199/199 26/200/200 2/201/201
f 20/202/202 28/203/203 29/204/204
f 20/205/205 29/206/206 13/207/207
f 29/208/208 28/209/209 31/210/210
f 29/211/211 31/212/212 30/213/213
f 26/214/214 29/215/215 30/216/216
f 26/217/217 30/218/218 32/219/219
f 27/220/220 22/221/221 34/222/222
f 14/223/223 4/224/224 10/225/225
f 2/226/226 25/227/227 52/228/228
f 16/229/229 15/230/230 52/231/231
f 54/232/232 24/233/233 23/234/234
f 23/235/235 17/236/236 54/237/237
f 21/238/238 18/239/239 11/240/240
f 21/241/241 11/242/242 47/243/243
f 4/244/244 14/245/245 55/246/246
f 4/247/247 55/248/248 56/249/249
f 3/250/250 1/251/251 57/252/252
f 3/253/253 57/254/254 58/255/255
f 18/256/256 8/257/257 59/258/258
f 18/259/259 59/260/260 11/261/261
f 19/262/262 21/263/263 47/264/264
f 19/265/265 47/266/266 53/267/267
f 14/268/268 19/269/269 53/270/270
f 14/271/271 53/272/272 55/273/273
f 1/274/274 4/275/275 56/276/276
f 1/277/277 56/278/278 57/279/279
f 8/280/280 3/281/281 58/282/282
f 8/283/283 58/284/284 59/285/285
f 52/286/286 54/287/287 16/288/288
f 51/289/289 9/290/290 44/291/291
f 44/292/292 48/293/293 51/294/294
f 35/295/295 32/296/296 45/297/297
f 45/298/298 32/299/299 60/300/300
f 38/301/301 34/302/302 37/303/303
f 40/304/304 39/305/305 37/306/306
f 61/307/307 60/308/308 42/309/309
f 61/310/310 40/311/311 45/312/312
f 40/313/313 36/314/314 35/315/315
f 35/316/316 45/317/317 40/318/318
f 61/319/319 42/320/320 41/321/321
f 31/322/322 43/323/323 60/324/324
f 30/325/325 31/326/326 60/327/327
f 42/328/328 60/329/329 43/330/330
f 42/331/331 43/332/332 46/333/333
f 60/334/334 61/335/335 45/336/336
