v -9.068521 -1.919264 -4.534254
v -0.302784 10.721090 22.026524
v -9.068151 -1.918877 4.527016
v -4.534230 -1.919262 -9.068509
v -3.991467 11.493540 -9.224958
v -4.527540 15.979578 -3.814335
v -3.802504 14.137258 0.091607
v -4.530429 -1.908961 9.059389
v 2.735610 12.459933 22.861973
v 0.077728 17.279922 -11.082510
v 0.778436 29.167654 -7.627969
v -0.348042 11.138414 3.458477
v -11.634931 13.481396 19.405313
v 4.534271 -1.919267 -9.068542
v 3.920938 13.119823 -9.003618
v 4.346737 16.063511 -2.676436
v 2.917667 14.527255 0.162156
v 4.533976 -1.917823 9.061646
v 9.068542 -1.919267 -4.534271
v -5.883463 10.578539 20.824577
v 9.068678 -1.918972 4.531377
v -4.126320 13.517314 42.857552
v 5.815104 11.308998 42.120209
v 20.570351 23.426447 -0.332425
v 20.177509 23.225595 -10.800515
v 3.151657 21.991184 -23.010582
v -16.081945 11.774890 35.761765
v -17.620752 18.459421 0.619946
v -17.190035 20.070253 -15.091455
v -18.319016 22.034662 -15.157758
v -20.030317 21.869032 -0.152314
v 3.291947 23.999395 -21.529753
v -19.489664 22.242926 19.361027
v -5.901500 26.065666 19.140265
v 20.325375 24.744257 -10.860742
v 20.076660 25.202148 -1.015061
v 5.037282 24.880299 18.103249
v -15.653451 12.993256 37.024769
v -0.334411 10.300191 38.965832
v 7.373394 22.712774 18.766144
v -7.610695 10.668329 19.141148
v 4.879208 -10.783649 -2.441266
v 4.879280 -10.783494 2.436059
v 2.439600 -10.782874 4.873333
v -2.437055 -10.778108 4.872115
v 2.439774 -10.783649 -4.880721
v -2.439084 -10.783648 -4.880708
v -4.878541 -10.783648 -2.441288
v -4.878346 -10.783441 2.433681
vt 0.577977 -0.246740
vt 0.223681 0.684226
vt 0.398914 -0.247315
vt 0.399086 -0.247321
vt 0.226468 0.706853
vt 0.578066 -0.247254
vt 0.226468 0.706853
vt 0.961468 1.181759
vt 1.123285 0.586911
vt 0.984971 1.154499
vt 0.244555 0.934989
vt 0.986720 0.646175
vt 0.986720 0.646175
vt 0.244555 0.934989
vt 0.069367 0.791114
vt 0.986720 0.646175
vt 0.069367 0.791114
vt 0.223681 0.684226
vt 0.986720 0.646175
vt 0.223681 0.684226
vt 0.976284 0.482967
vt 1.039062 0.402344
vt 0.675781 0.472656
vt 1.035156 0.546875
vt 1.085938 0.195312
vt 1.671875 0.097656
vt 1.644531 0.582031
vt 1.085938 0.195312
vt 1.644531 0.582031
vt 1.042792 0.477757
vt 1.090278 0.486028
vt 0.356698 0.510240
vt 1.123285 0.586911
vt 1.123285 0.586911
vt 0.356698 0.510240
vt 0.226468 0.706853
vt 0.206929 1.223164
vt 0.961468 1.181759
vt 0.226468 0.706853
vt 0.906250 0.410156
vt 0.935279 1.307514
vt -0.074219 0.437500
vt 1.123285 0.586911
vt 1.884132 0.520137
vt 1.890625 0.269531
vt 1.123285 0.586911
vt 1.890625 0.269531
vt 1.066406 0.296875
vt 1.759510 0.461608
vt 1.884132 0.520137
vt 1.913263 0.648258
vt 0.578066 -0.247254
vt 0.226468 0.706853
vt 0.356698 0.510240
vt 0.356698 0.510240
vt 0.223681 0.684226
vt 0.577977 -0.246740
vt 0.382812 0.226562
vt 0.937500 0.292969
vt 0.356698 0.510240
vt 0.961468 1.181759
vt 1.884132 0.520137
vt 1.123285 0.586911
vt 1.682824 0.617854
vt 0.984971 1.154499
vt 1.632925 0.547167
vt 0.040924 -0.247338
vt -0.144394 0.530844
vt -0.138213 -0.247338
vt 0.069367 0.791114
vt -0.144394 0.530844
vt 0.040924 -0.247338
vt 0.117188 0.664062
vt 1.913263 0.648258
vt 0.976249 1.376286
vt 0.984971 1.154499
vt 0.214044 1.132807
vt 0.244555 0.934989
vt -0.081301 1.556257
vt -0.630528 1.256406
vt -0.378785 1.142416
vt -0.209020 1.299621
vt -0.630528 1.256406
vt -0.081301 1.556257
vt 0.935279 1.307514
vt 0.179959 1.326187
vt -0.081301 1.556257
vt -0.217782 0.866557
vt -0.135650 0.625197
vt -0.138215 -0.247338
vt -0.378785 1.142416
vt 0.214044 1.132807
vt -0.081301 1.556257
vt 0.984971 1.154499
vt 0.976249 1.376286
vt -0.081301 1.556257
vt 0.356698 0.510240
vt 0.164062 -0.246094
vt 0.578066 -0.247254
vt -0.081301 1.556257
vt 0.214044 1.132807
vt 0.984971 1.154499
vt 1.765625 1.386719
vt 0.976249 1.376286
vt 0.117188 0.664062
vt 1.632925 0.547167
vt 1.913263 0.648258
vt 1.682824 0.617854
vt 0.976284 0.482967
vt 0.223681 0.684226
vt 0.356698 0.510240
vt 0.976284 0.482967
vt 0.356698 0.510240
vt 1.042792 0.477757
vt -0.081301 1.556257
vt 0.179959 1.326187
vt -0.209020 1.299621
vt -0.081301 1.556257
vt 0.976249 1.376286
vt 0.935279 1.307514
vt 0.961468 1.181759
vt 0.206929 1.223164
vt 0.179959 1.326187
vt 0.961468 1.181759
vt 0.179959 1.326187
vt 0.935279 1.307514
vt -0.074219 0.437500
vt 0.906250 0.410156
vt 0.935279 1.307514
vt 0.206929 1.223164
vt -0.206641 1.211511
vt -0.209020 1.299621
vt 0.206929 1.223164
vt -0.209020 1.299621
vt 0.179959 1.326187
vt -0.206641 1.211511
vt -0.689032 1.139894
vt -0.630528 1.256406
vt -0.206641 1.211511
vt -0.630528 1.256406
vt -0.209020 1.299621
vt -0.138215 -0.247338
vt -0.135650 0.625197
vt 0.040924 -0.247338
vt 0.114322 0.795983
vt 0.226468 0.706853
vt 0.399086 -0.247321
vt 0.986720 0.646175
vt 1.632925 0.547167
vt 0.984971 1.154499
vt 0.976249 1.376286
vt 0.984971 1.154499
vt -0.742188 0.664062
vt -0.689032 1.139894
vt -0.376166 1.028445
vt -0.378785 1.142416
vt -0.689032 1.139894
vt -0.378785 1.142416
vt -0.630528 1.256406
vt -0.376166 1.028445
vt 0.244555 0.934989
vt 0.214044 1.132807
vt -0.376166 1.028445
vt 0.214044 1.132807
vt -0.378785 1.142416
vt 0.069367 0.791114
vt 0.244555 0.934989
vt -0.376166 1.028445
vt -0.217782 0.866557
vt -0.515625 0.527344
vt 0.882812 1.113281
vt 0.976284 0.482967
vt 1.632925 0.547167
vt 0.986720 0.646175
vt -0.261719 0.859375
vt -0.689032 1.139894
vt -0.206641 1.211511
vt 0.114322 0.795983
vt -0.135650 0.625197
vt -0.206641 1.211511
vt 0.226468 0.706853
vt 0.114322 0.795983
vt 0.206929 1.223164
vt 1.913263 0.648258
vt 1.632925 0.547167
vt 1.759510 0.461608
vt 0.577977 -0.246740
vt 0.398914 -0.247315
vt 0.316211 -0.761618
vt 0.577977 -0.246740
vt 0.316211 -0.761618
vt 0.412548 -0.761308
vt -0.138213 -0.247338
vt -0.144394 0.530844
vt -0.217782 0.866557
vt -0.217782 0.866557
vt -0.484375 -0.242188
vt -0.138213 -0.247338
vt 0.398914 -0.247315
vt 0.223681 0.684226
vt 0.069367 0.791114
vt 0.069367 0.791114
vt 0.040924 -0.247338
vt 0.398914 -0.247315
vt 0.040924 -0.247338
vt -0.135650 0.625197
vt 0.114322 0.795983
vt 0.399086 -0.247321
vt 0.040924 -0.247338
vt 0.114322 0.795983
vt 0.040924 -0.247338
vt 0.399086 -0.247321
vt 0.316305 -0.761621
vt 0.040924 -0.247338
vt 0.316305 -0.761621
vt 0.123613 -0.761630
vt 0.218750 -0.281250
vt 0.535156 -0.253906
vt 0.484375 -0.750000
vt 0.218750 -0.281250
vt 0.484375 -0.750000
vt 0.412596 -0.761585
vt 0.171875 -0.238281
vt 0.539062 -0.230469
vt 0.566406 -0.804688
vt 0.171875 -0.238281
vt 0.566406 -0.804688
vt 0.097656 -0.796875
vt 0.398914 -0.247315
vt 0.040924 -0.247338
vt 0.123612 -0.761630
vt 0.398914 -0.247315
vt 0.123612 -0.761630
vt 0.316211 -0.761618
vt 0.399086 -0.247321
vt 0.578066 -0.247254
vt 0.412596 -0.761585
vt 0.399086 -0.247321
vt 0.412596 -0.761585
vt 0.316305 -0.761621
vt -0.138215 -0.247338
vt 0.040924 -0.247338
vt 0.123613 -0.761630
vt -0.138215 -0.247338
vt 0.123613 -0.761630
vt 0.027236 -0.761630
vt 0.040924 -0.247338
vt -0.138213 -0.247338
vt 0.027237 -0.761630
vt 0.040924 -0.247338
vt 0.027237 -0.761630
vt 0.123612 -0.761630
vt 0.832031 1.175781
vt -0.689032 1.139894
vt -0.217782 0.866557
vt -0.376166 1.028445
vt -0.144394 0.530844
vt 0.069367 0.791114
vt -0.206641 1.211511
vt 0.206929 1.223164
vt 0.114322 0.795983
vt -0.206641 1.211511
vt -0.135650 0.625197
vt -0.382812 0.824219
vn -0.389347 0.088490 0.916831
vn -0.656312 0.428397 0.621072
vn -0.926889 0.032248 0.373947
vn 0.899734 0.048338 0.433753
vn 0.569755 0.442386 0.692585
vn 0.377877 0.095341 0.920934
vn 0.651564 -0.758351 -0.019195
vn 0.786446 -0.617109 0.026055
vn 0.690494 -0.719650 -0.072950
vn -0.873898 -0.485601 0.022224
vn -0.627223 -0.776094 -0.065335
vn -0.613304 -0.772215 -0.165960
vn -0.613304 -0.772215 -0.165960
vn -0.627223 -0.776094 -0.065335
vn -0.430084 -0.901167 0.054102
vn -0.613304 -0.772215 -0.165960
vn -0.430084 -0.901167 0.054102
vn -0.359219 -0.911483 -0.200400
vn -0.613304 -0.772215 -0.165960
vn -0.359219 -0.911483 -0.200400
vn -0.349072 -0.923962 -0.156342
vn -0.118674 -0.991828 -0.046840
vn -0.509074 -0.842411 0.176599
vn -0.349072 -0.923962 -0.156342
vn 0.200667 -0.979276 -0.027415
vn -0.020544 -0.963876 0.265557
vn -0.509074 -0.842411 0.176599
vn 0.200667 -0.979276 -0.027415
vn -0.509074 -0.842411 0.176599
vn -0.118674 -0.991828 -0.046840
vn 0.200667 -0.979276 -0.027415
vn 0.238558 -0.967672 -0.081866
vn 0.690494 -0.719650 -0.072950
vn 0.690494 -0.719650 -0.072950
vn 0.238558 -0.967672 -0.081866
vn 0.651564 -0.758351 -0.019195
vn 0.437705 -0.899090 0.007115
vn 0.786446 -0.617109 0.026055
vn 0.651564 -0.758351 -0.019195
vn 0.318013 0.876030 0.362545
vn 0.400672 0.803175 0.440875
vn 0.596928 0.672454 0.437587
vn 0.690494 -0.719650 -0.072950
vn 0.418860 -0.899471 0.124533
vn -0.020544 -0.963876 0.265557
vn 0.690494 -0.719650 -0.072950
vn -0.020544 -0.963876 0.265557
vn 0.200667 -0.979276 -0.027415
vn -0.020544 -0.963876 0.265557
vn 0.418860 -0.899471 0.124533
vn -0.221994 -0.771010 0.596877
vn 0.377877 0.095341 0.920934
vn 0.569755 0.442386 0.692585
vn -0.015915 0.465321 0.884999
vn -0.015915 0.465321 0.884999
vn -0.656312 0.428397 0.621072
vn -0.389347 0.088490 0.916831
vn -0.118674 -0.991828 -0.046840
vn 0.238558 -0.967672 -0.081866
vn 0.200667 -0.979276 -0.027415
vn 0.786446 -0.617109 0.026055
vn 0.418860 -0.899471 0.124533
vn 0.690494 -0.719650 -0.072950
vn -0.964755 0.079139 0.250967
vn -0.873898 -0.485601 0.022224
vn -0.509074 -0.842411 0.176599
vn -0.926914 -0.081368 -0.366347
vn -0.560242 -0.035705 -0.827559
vn -0.382832 -0.206975 -0.900334
vn -0.953665 0.300517 0.014592
vn -0.560242 -0.035705 -0.827559
vn -0.926914 -0.081368 -0.366347
vn -0.251372 0.841580 0.478074
vn 0.030349 0.878724 0.476365
vn -0.106865 0.937049 0.332445
vn -0.873898 -0.485601 0.022224
vn -0.824148 -0.565676 -0.028118
vn -0.627223 -0.776094 -0.065335
vn -0.063891 0.996278 -0.057858
vn 0.046589 0.700186 -0.712439
vn -0.330857 0.799185 -0.501834
vn 0.591835 0.717632 -0.367063
vn 0.046589 0.700186 -0.712439
vn -0.063891 0.996278 -0.057858
vn 0.318013 0.876030 0.362545
vn 0.589062 0.790458 0.167873
vn -0.063891 0.996278 -0.057858
vn 0.092963 -0.448604 -0.888883
vn 0.644021 -0.008870 -0.764956
vn 0.399590 -0.201197 -0.894342
vn -0.330857 0.799185 -0.501834
vn -0.336866 0.941369 -0.018602
vn -0.063891 0.996278 -0.057858
vn -0.285369 0.941336 0.180142
vn -0.106865 0.937049 0.332445
vn -0.063891 0.996278 -0.057858
vn -0.015915 0.465321 0.884999
vn -0.389347 0.088490 0.916831
vn 0.377877 0.095341 0.920934
vn -0.063891 0.996278 -0.057858
vn -0.336866 0.941369 -0.018602
vn -0.285369 0.941336 0.180142
vn 0.318013 0.876030 0.362545
vn -0.106865 0.937049 0.332445
vn 0.030349 0.878724 0.476365
vn -0.509074 -0.842411 0.176599
vn -0.221994 -0.771010 0.596877
vn -0.331496 -0.620316 0.710858
vn -0.349072 -0.923962 -0.156342
vn -0.359219 -0.911483 -0.200400
vn 0.238558 -0.967672 -0.081866
vn -0.349072 -0.923962 -0.156342
vn 0.238558 -0.967672 -0.081866
vn -0.118674 -0.991828 -0.046840
vn -0.063891 0.996278 -0.057858
vn 0.589062 0.790458 0.167873
vn 0.591835 0.717632 -0.367063
vn -0.063891 0.996278 -0.057858
vn -0.106865 0.937049 0.332445
vn 0.318013 0.876030 0.362545
vn 0.596928 0.672454 0.437587
vn 0.884358 0.390330 0.256033
vn 0.589062 0.790458 0.167873
vn 0.596928 0.672454 0.437587
vn 0.589062 0.790458 0.167873
vn 0.318013 0.876030 0.362545
vn 0.030349 0.878724 0.476365
vn 0.400672 0.803175 0.440875
vn 0.318013 0.876030 0.362545
vn 0.884358 0.390330 0.256033
vn 0.860233 0.217064 -0.461392
vn 0.591835 0.717632 -0.367063
vn 0.884358 0.390330 0.256033
vn 0.591835 0.717632 -0.367063
vn 0.589062 0.790458 0.167873
vn 0.860233 0.217064 -0.461392
vn 0.105868 0.289861 -0.951195
vn 0.046589 0.700186 -0.712439
vn 0.860233 0.217064 -0.461392
vn 0.046589 0.700186 -0.712439
vn 0.591835 0.717632 -0.367063
vn 0.399590 -0.201197 -0.894342
vn 0.644021 -0.008870 -0.764956
vn 0.936154 -0.072524 -0.344028
vn 0.932111 0.334358 0.139190
vn 0.569755 0.442386 0.692585
vn 0.899734 0.048338 0.433753
vn -0.613304 -0.772215 -0.165960
vn -0.509074 -0.842411 0.176599
vn -0.873898 -0.485601 0.022224
vn -0.106865 0.937049 0.332445
vn -0.285369 0.941336 0.180142
vn -0.251372 0.841580 0.478074
vn 0.105868 0.289861 -0.951195
vn -0.332877 0.241700 -0.911468
vn -0.330857 0.799185 -0.501834
vn 0.105868 0.289861 -0.951195
vn -0.330857 0.799185 -0.501834
vn 0.046589 0.700186 -0.712439
vn -0.606890 -0.788695 0.098208
vn -0.627223 -0.776094 -0.065335
vn -0.824148 -0.565676 -0.028118
vn -0.606890 -0.788695 0.098208
vn -0.824148 -0.565676 -0.028118
vn -0.825336 -0.557457 -0.089794
vn -0.430084 -0.901167 0.054102
vn -0.627223 -0.776094 -0.065335
vn -0.606890 -0.788695 0.098208
vn 0.092963 -0.448604 -0.888883
vn -0.560242 -0.035705 -0.827559
vn 0.046634 -0.714443 -0.698138
vn -0.349072 -0.923962 -0.156342
vn -0.509074 -0.842411 0.176599
vn -0.613304 -0.772215 -0.165960
vn 0.092963 -0.448604 -0.888883
vn 0.108791 -0.933821 -0.340798
vn 0.217865 -0.704473 -0.675465
vn 0.470603 -0.881924 0.027255
vn 0.524423 -0.784949 0.329902
vn 0.476891 -0.862596 0.168827
vn 0.651564 -0.758351 -0.019195
vn 0.470603 -0.881924 0.027255
vn 0.437705 -0.899090 0.007115
vn -0.221994 -0.771010 0.596877
vn -0.509074 -0.842411 0.176599
vn -0.020544 -0.963876 0.265557
vn -0.389347 0.088490 0.916831
vn -0.926889 0.032248 0.373947
vn -0.817875 -0.466204 0.337244
vn -0.389347 0.088490 0.916831
vn -0.817875 -0.466204 0.337244
vn -0.336459 -0.465807 0.818425
vn -0.382832 -0.206975 -0.900334
vn -0.560242 -0.035705 -0.827559
vn 0.092963 -0.448604 -0.888883
vn 0.092963 -0.448604 -0.888883
vn 0.399590 -0.201197 -0.894342
vn -0.382832 -0.206975 -0.900334
vn -0.926889 0.032248 0.373947
vn -0.656312 0.428397 0.621072
vn -0.953665 0.300517 0.014592
vn -0.953665 0.300517 0.014592
vn -0.926914 -0.081368 -0.366347
vn -0.926889 0.032248 0.373947
vn 0.936154 -0.072524 -0.344028
vn 0.644021 -0.008870 -0.764956
vn 0.932111 0.334358 0.139190
vn 0.899734 0.048338 0.433753
vn 0.936154 -0.072524 -0.344028
vn 0.932111 0.334358 0.139190
vn 0.936154 -0.072524 -0.344028
vn 0.899734 0.048338 0.433753
vn 0.818016 -0.466225 0.336876
vn 0.936154 -0.072524 -0.344028
vn 0.818016 -0.466225 0.336876
vn 0.818148 -0.466149 -0.336660
vn 0.377877 0.095341 0.920934
vn -0.389347 0.088490 0.916831
vn -0.336459 -0.465807 0.818425
vn 0.377877 0.095341 0.920934
vn -0.336459 -0.465807 0.818425
vn 0.336121 -0.466070 0.818414
vn -0.382832 -0.206975 -0.900334
vn 0.399590 -0.201197 -0.894342
vn 0.336662 -0.466084 -0.818184
vn -0.382832 -0.206975 -0.900334
vn 0.336662 -0.466084 -0.818184
vn -0.336655 -0.466101 -0.818177
vn -0.926889 0.032248 0.373947
vn -0.926914 -0.081368 -0.366347
vn -0.818134 -0.466194 -0.336629
vn -0.926889 0.032248 0.373947
vn -0.818134 -0.466194 -0.336629
vn -0.817875 -0.466204 0.337244
vn 0.899734 0.048338 0.433753
vn 0.377877 0.095341 0.920934
vn 0.336121 -0.466070 0.818414
vn 0.899734 0.048338 0.433753
vn 0.336121 -0.466070 0.818414
vn 0.818016 -0.466225 0.336876
vn 0.399590 -0.201197 -0.894342
vn 0.936154 -0.072524 -0.344028
vn 0.818148 -0.466149 -0.336660
vn 0.399590 -0.201197 -0.894342
vn 0.818148 -0.466149 -0.336660
vn 0.336662 -0.466084 -0.818184
vn -0.926914 -0.081368 -0.366347
vn -0.382832 -0.206975 -0.900334
vn -0.336655 -0.466101 -0.818177
vn -0.926914 -0.081368 -0.366347
vn -0.336655 -0.466101 -0.818177
vn -0.818134 -0.466194 -0.336629
vn 0.046634 -0.714443 -0.698138
vn 0.108791 -0.933821 -0.340798
vn 0.092963 -0.448604 -0.888883
vn -0.606890 -0.788695 0.098208
vn -0.618389 -0.633990 0.464383
vn -0.430084 -0.901167 0.054102
vn 0.476891 -0.862596 0.168827
vn 0.437705 -0.899090 0.007115
vn 0.470603 -0.881924 0.027255
vn 0.217865 -0.704473 -0.675465
vn 0.644021 -0.008870 -0.764956
vn 0.092963 -0.448604 -0.888883
f 8/1/1 7/2/2 3/3/3
f 21/4/4 17/5/5 18/6/6
f 17/7/7 40/8/8 9/9/9
f 33/10/10 28/11/11 13/12/12
f 13/13/13 28/14/14 6/15/15
f 13/16/16 6/17/17 7/18/18
f 13/19/19 7/20/20 41/21/21
f 20/22/22 27/23/23 41/24/24
f 2/25/25 39/26/26 27/27/27
f 2/28/28 27/29/29 20/30/30
f 2/31/31 12/32/32 9/33/33
f 9/34/34 12/35/35 17/36/36
f 24/37/37 40/38/38 17/39/39
f 37/40/40 23/41/41 40/42/42
f 9/43/43 23/44/44 39/45/45
f 9/46/46 39/47/47 2/48/48
f 39/49/49 23/50/50 22/51/51
f 18/52/52 17/53/53 12/54/54
f 12/55/55 7/56/56 8/57/57
f 20/58/58 12/59/59 2/60/60
f 40/61/61 23/62/62 9/63/63
f 38/64/64 33/65/65 27/66/66
f 1/67/67 5/68/68 4/69/69
f 6/70/70 5/71/71 1/72/72
f 38/73/73 22/74/74 34/75/75
f 33/76/76 31/77/77 28/78/78
f 11/79/79 32/80/80 30/81/81
f 35/82/82 32/83/83 11/84/84
f 37/85/85 36/86/86 11/87/87
f 10/88/88 15/89/89 14/90/90
f 30/91/91 31/92/92 11/93/93
f 33/94/94 34/95/95 11/96/96
f 12/97/97 8/98/98 18/99/99
f 11/100/100 31/101/101 33/102/102
f 37/103/103 34/104/104 22/105/105
f 27/106/106 22/107/107 38/108/108
f 41/109/109 7/110/110 12/111/111
f 41/112/112 12/113/113 20/114/114
f 11/115/115 36/116/116 35/117/117
f 11/118/118 34/119/119 37/120/120
f 40/121/121 24/122/122 36/123/123
f 40/124/124 36/125/125 37/126/126
f 22/127/127 23/128/128 37/129/129
f 24/130/130 25/131/131 35/132/132
f 24/133/133 35/134/134 36/135/135
f 25/136/136 26/137/137 32/138/138
f 25/139/139 32/140/140 35/141/141
f 14/142/142 15/143/143 19/144/144
f 16/145/145 17/146/146 21/147/147
f 13/148/148 27/149/149 33/150/150
f 34/151/151 33/152/152 38/153/153
f 26/154/154 29/155/155 30/156/156
f 26/157/157 30/158/158 32/159/159
f 29/160/160 28/161/161 31/162/162
f 29/163/163 31/164/164 30/165/165
f 6/166/166 28/167/167 29/168/168
f 10/169/169 5/170/170 29/171/171
f 41/172/172 27/173/173 13/174/174
f 10/175/175 26/176/176 25/177/177
f 16/178/178 15/179/179 25/180/180
f 17/181/181 16/182/182 24/183/183
f 22/184/184 27/185/185 39/186/186
f 8/187/187 3/188/188 49/189/189
f 8/190/190 49/191/191 45/192/192
f 4/193/193 5/194/194 10/195/195
f 10/196/196 14/197/197 4/198/198
f 3/199/199 7/200/200 6/201/201
f 6/202/202 1/203/203 3/204/204
f 19/205/205 15/206/206 16/207/207
f 21/208/208 19/209/209 16/210/210
f 19/211/211 21/212/212 43/213/213
f 19/214/214 43/215/215 42/216/216
f 18/217/217 8/218/218 45/219/219
f 18/220/220 45/221/221 44/222/222
f 4/223/223 14/224/224 46/225/225
f 4/226/226 46/227/227 47/228/228
f 3/229/229 1/230/230 48/231/231
f 3/232/232 48/233/233 49/234/234
f 21/235/235 18/236/236 44/237/237
f 21/238/238 44/239/239 43/240/240
f 14/241/241 19/242/242 42/243/243
f 14/244/244 42/245/245 46/246/246
f 1/247/247 4/248/248 47/249/249
f 1/250/250 47/251/251 48/252/252
f 29/253/253 26/254/254 10/255/255
f 29/256/256 5/257/257 6/258/258
f 25/259/259 24/260/260 16/261/261
f 25/262/262 15/263/263 10/264/264
