v -2.950881 0.239558 1.589829
v -3.009978 0.612751 1.536466
v -2.691825 0.060803 1.124501
v -2.657042 0.369216 0.902500
v -2.237821 -0.252471 1.018020
v -2.038511 -0.057586 0.757428
v -1.854823 -0.516750 1.332763
v -1.516711 -0.417640 1.186232
v -1.767182 -0.577224 1.884361
v -1.397307 -0.500032 1.937724
v -2.026237 -0.398469 2.349690
v -1.750243 -0.256497 2.571691
v -2.480241 -0.085195 2.456170
v -2.368774 0.170305 2.716763
v -2.863240 0.179083 2.141428
v -2.890573 0.530359 2.287958
v 0.546877 -0.686164 -5.999033
v -0.452856 -0.803617 -6.108675
v -3.041625 0.813475 -0.925548
v -0.670348 -1.226539 -3.469485
v -3.222577 0.785641 2.743909
v 0.884384 -1.038771 -3.491230
v -1.133841 -0.729550 0.765013
v -0.897101 0.755847 -3.438805
v 0.953646 0.724074 -3.341982
v -0.062557 0.905334 -3.540120
v -1.103286 0.426028 5.288724
v 0.221004 -0.833215 -6.324095
v 1.726826 0.248798 -3.570530
v -1.341880 0.272682 -3.484645
v -3.492188 0.885502 0.772669
v -1.322183 1.461135 2.747298
v 3.050401 0.813476 -0.925548
v 0.004388 0.424484 5.574315
v 0.004388 1.785413 0.772669
v 0.037293 1.641444 -0.942096
v 3.231178 0.785643 2.743909
v -1.128542 -0.313648 -2.327749
v 1.258386 1.435212 2.737738
v 0.675215 -0.391268 -2.164252
v 1.149655 0.492280 5.200203
v -1.041356 -0.756024 2.744541
v 1.265359 1.593861 0.772670
v 0.873843 1.516175 -0.802294
v -0.925944 1.566609 -0.861710
v -1.085117 -0.400886 -0.880071
v -1.261402 1.592693 0.920695
v 1.330962 -0.588306 -0.900527
v -0.878913 -1.062984 -0.930886
v -0.981792 -0.955580 0.767332
v 0.757574 -0.997950 -0.939359
v -1.220901 -0.477688 4.428813
v -1.022430 0.019722 5.084297
v -1.195445 -0.701682 3.651792
v -0.047716 -0.669810 4.491804
v -0.041246 -1.038649 3.918300
v 0.017441 -0.171391 5.135968
v 1.113286 -0.450137 4.334650
v 0.979098 -0.052623 4.952630
v -1.212735 1.051077 4.252409
v 1.054645 0.994427 4.400761
v -0.166514 -1.582464 -3.331096
v 0.326239 -2.043270 -0.737301
v 0.245522 -1.977661 -1.874676
v 0.079707 -2.217659 -1.254883
v 0.088147 -1.753566 -2.551203
v 0.990323 0.927169 0.767332
v 0.924596 0.406303 -1.077724
v -1.041356 1.097815 2.744541
v 1.048913 1.135790 2.732222
v 0.113679 -0.047878 3.773825
v -0.981792 0.927169 0.767332
v -1.040914 0.388422 -0.768987
v 0.833429 1.044694 4.318672
v -0.908454 1.065082 4.312841
vt 0.007812 0.833984
vt 0.070312 0.832031
vt 0.033203 0.769531
vt 0.988225 0.700383
vt 0.988596 0.639818
vt 0.859040 0.546268
vt 0.857363 0.547626
vt 0.987994 0.641684
vt 0.988365 0.702577
vt 0.014157 0.843609
vt 0.062666 0.837476
vt 0.063182 0.777019
vt 0.014157 0.843609
vt 0.063182 0.777019
vt 0.013641 0.766505
vt 0.857363 0.547626
vt 0.987624 0.580791
vt 0.987994 0.641684
vt 0.007812 0.833984
vt 0.070312 0.832031
vt 0.033203 0.769531
vt 0.708984 0.353516
vt 0.509766 0.400391
vt 0.709961 0.449219
vt 0.988596 0.639818
vt 0.988967 0.579254
vt 0.859040 0.546268
vt 0.988967 0.579254
vt 0.989338 0.544165
vt 0.859040 0.546268
vt 0.828795 0.104160
vt 0.826518 0.054711
vt 0.987254 0.036747
vt 0.828795 0.104160
vt 0.987254 0.036747
vt 0.987254 0.086001
vt 0.988735 0.763470
vt 0.881386 0.763470
vt 0.857363 0.547626
vt 0.826518 0.054711
vt 0.824240 0.025884
vt 0.987254 0.001927
vt 0.826518 0.054711
vt 0.987254 0.001927
vt 0.987254 0.036747
vt 0.738205 0.454335
vt 0.877497 0.447770
vt 0.873994 0.349124
vt 0.738205 0.454335
vt 0.873994 0.349124
vt 0.734292 0.344170
vt 0.987843 0.995320
vt 0.987853 0.760947
vt 0.880186 0.760947
vt 0.987843 0.995320
vt 0.880186 0.760947
vt 0.892891 0.967624
vt 0.988746 0.999115
vt 0.892881 0.971269
vt 0.881386 0.763470
vt 0.988746 0.999115
vt 0.881386 0.763470
vt 0.988735 0.763470
vt 0.738205 0.454335
vt 0.877497 0.447770
vt 0.873994 0.349124
vt 0.738205 0.454335
vt 0.873994 0.349124
vt 0.734292 0.344170
vt 0.488281 0.373047
vt 0.490234 0.435547
vt 0.575910 0.458600
vt 0.846232 0.446472
vt 0.844095 0.305847
vt 0.909708 0.324075
vt 0.846232 0.446472
vt 0.909708 0.324075
vt 0.911276 0.427294
vt 0.844095 0.305847
vt 0.846232 0.446472
vt 0.911276 0.427294
vt 0.844095 0.305847
vt 0.911276 0.427294
vt 0.909708 0.324075
vt 0.488281 0.373047
vt 0.571760 0.341765
vt 0.575910 0.458600
vt 0.488281 0.373047
vt 0.575910 0.458600
vt 0.490234 0.435547
vt 0.844095 0.305847
vt 0.846232 0.446472
vt 0.911276 0.427294
vt 0.844095 0.305847
vt 0.911276 0.427294
vt 0.909708 0.324075
vt 0.485444 0.400684
vt 0.571760 0.341765
vt 0.575910 0.458600
vt 0.571760 0.341765
vt 0.734292 0.344170
vt 0.738205 0.454335
vt 0.571760 0.341765
vt 0.738205 0.454335
vt 0.575910 0.458600
vt 0.846232 0.446472
vt 0.844095 0.305847
vt 0.909708 0.324075
vt 0.846232 0.446472
vt 0.909708 0.324075
vt 0.911276 0.427294
vt 0.846232 0.446472
vt 0.844095 0.305847
vt 0.909708 0.324075
vt 0.846232 0.446472
vt 0.909708 0.324075
vt 0.911276 0.427294
vt 0.877497 0.447770
vt 0.738205 0.454335
vt 0.734292 0.344170
vt 0.877497 0.447770
vt 0.734292 0.344170
vt 0.873994 0.349124
vt 0.844095 0.305847
vt 0.846232 0.446472
vt 0.911276 0.427294
vt 0.844095 0.305847
vt 0.911276 0.427294
vt 0.909708 0.324075
vt 0.571760 0.341765
vt 0.734292 0.344170
vt 0.738205 0.454335
vt 0.571760 0.341765
vt 0.738205 0.454335
vt 0.575910 0.458600
vt 0.857363 0.547626
vt 0.988365 0.702577
vt 0.988735 0.763470
vt 0.846232 0.446472
vt 0.844095 0.305847
vt 0.909708 0.324075
vt 0.846232 0.446472
vt 0.909708 0.324075
vt 0.911276 0.427294
vt 0.844095 0.305847
vt 0.846232 0.446472
vt 0.911276 0.427294
vt 0.844095 0.305847
vt 0.911276 0.427294
vt 0.909708 0.324075
vt 0.987853 0.760947
vt 0.988225 0.700383
vt 0.859040 0.546268
vt 0.892881 0.971269
vt 0.754773 0.763188
vt 0.881386 0.763470
vt 0.892891 0.967624
vt 0.880186 0.760947
vt 0.756696 0.760667
vt 0.005258 0.009609
vt 0.008703 0.238792
vt 0.149547 0.238718
vt 0.005258 0.009609
vt 0.149547 0.238718
vt 0.104972 0.036661
vt 0.247066 0.238115
vt 0.146945 0.238025
vt 0.106394 0.035518
vt 0.104972 0.036661
vt 0.149547 0.238718
vt 0.248624 0.238808
vt 0.106394 0.035518
vt 0.146945 0.238025
vt 0.004893 0.238100
vt 0.106394 0.035518
vt 0.004893 0.238100
vt 0.008321 0.008406
vt 0.859040 0.546268
vt 0.880186 0.760947
vt 0.987853 0.760947
vt 0.512375 0.239360
vt 0.824240 0.025884
vt 0.826518 0.054711
vt 0.989338 0.149833
vt 0.832794 0.167061
vt 0.835078 0.239613
vt 0.192219 0.871346
vt 0.208895 0.748415
vt 0.498441 0.748138
vt 0.538979 0.547178
vt 0.819467 0.546789
vt 0.791954 0.654989
vt 0.248624 0.238808
vt 0.149547 0.238718
vt 0.181333 0.448657
vt 0.248624 0.238808
vt 0.181333 0.448657
vt 0.473081 0.448657
vt 0.473081 0.448657
vt 0.181333 0.448657
vt 0.199835 0.587052
vt 0.208895 0.748415
vt 0.192219 0.871346
vt 0.145858 0.876282
vt 0.498441 0.748138
vt 0.175543 0.955988
vt 0.192219 0.871346
vt 0.006776 0.587136
vt 0.199748 0.587136
vt 0.208895 0.748415
vt 0.880186 0.760947
vt 0.859040 0.546268
vt 0.820524 0.545436
vt 0.819467 0.546789
vt 0.857363 0.547626
vt 0.881386 0.763470
vt 0.828226 0.056014
vt 0.825942 0.027342
vt 0.513320 0.239666
vt 0.820524 0.545436
vt 0.859040 0.546268
vt 0.843864 0.404579
vt 0.820524 0.545436
vt 0.843864 0.404579
vt 0.821435 0.404773
vt 0.199835 0.587052
vt 0.181333 0.448657
vt 0.006811 0.448657
vt 0.199835 0.587052
vt 0.006811 0.448657
vt 0.006811 0.587052
vt 0.199835 0.587052
vt 0.209017 0.747973
vt 0.500754 0.747697
vt 0.006811 0.978359
vt 0.176368 0.955085
vt 0.192693 0.870631
vt 0.006811 0.978359
vt 0.192693 0.870631
vt 0.146222 0.875556
vt 0.181333 0.448657
vt 0.149547 0.238718
vt 0.008703 0.238792
vt 0.181333 0.448657
vt 0.008703 0.238792
vt 0.006811 0.448657
vt 0.540012 0.545823
vt 0.756696 0.760667
vt 0.793397 0.653051
vt 0.209017 0.747973
vt 0.199835 0.587052
vt 0.006811 0.587052
vt 0.857363 0.547626
vt 0.987254 0.545511
vt 0.987624 0.580791
vt 0.500754 0.747697
vt 0.209017 0.747973
vt 0.192693 0.870631
vt 0.192693 0.870631
vt 0.176368 0.955085
vt 0.500754 0.747697
vt 0.146222 0.875556
vt 0.192693 0.870631
vt 0.209017 0.747973
vt 0.832794 0.167061
vt 0.830510 0.105195
vt 0.513320 0.239666
vt 0.989338 0.149833
vt 0.989338 0.087134
vt 0.830510 0.105195
vt 0.989338 0.149833
vt 0.830510 0.105195
vt 0.832794 0.167061
vt 0.828795 0.104160
vt 0.987254 0.086001
vt 0.987254 0.149040
vt 0.513320 0.239666
vt 0.835078 0.239613
vt 0.832794 0.167061
vt 0.989338 0.038146
vt 0.989338 0.003514
vt 0.825942 0.027342
vt 0.989338 0.038146
vt 0.825942 0.027342
vt 0.828226 0.056014
vt 0.145858 0.876282
vt 0.192219 0.871346
vt 0.175543 0.955988
vt 0.145858 0.876282
vt 0.175543 0.955988
vt 0.006776 0.979314
vt 0.208895 0.748415
vt 0.199748 0.587136
vt 0.539520 0.587136
vt 0.208895 0.748415
vt 0.539520 0.587136
vt 0.498441 0.748138
vt 0.006776 0.587136
vt 0.006776 0.448432
vt 0.181140 0.448432
vt 0.006776 0.587136
vt 0.181140 0.448432
vt 0.199748 0.587136
vt 0.181140 0.448432
vt 0.146945 0.238025
vt 0.247066 0.238115
vt 0.181140 0.448432
vt 0.247066 0.238115
vt 0.470871 0.448432
vt 0.989338 0.087134
vt 0.989338 0.038146
vt 0.828226 0.056014
vt 0.989338 0.087134
vt 0.828226 0.056014
vt 0.830510 0.105195
vt 0.146945 0.238025
vt 0.181140 0.448432
vt 0.006776 0.448432
vt 0.146945 0.238025
vt 0.006776 0.448432
vt 0.004893 0.238100
vt 0.199748 0.587136
vt 0.181140 0.448432
vt 0.470871 0.448432
vt 0.199748 0.587136
vt 0.470871 0.448432
vt 0.539520 0.587136
vt 0.821435 0.404773
vt 0.473549 0.404134
vt 0.540012 0.545823
vt 0.821435 0.404773
vt 0.540012 0.545823
vt 0.820524 0.545436
vt 0.821435 0.404773
vt 0.843864 0.404579
vt 0.835078 0.239613
vt 0.791954 0.654989
vt 0.819467 0.546789
vt 0.881386 0.763470
vt 0.512375 0.239360
vt 0.826518 0.054711
vt 0.828795 0.104160
vt 0.881386 0.763470
vt 0.754773 0.763188
vt 0.791954 0.654989
vt 0.880186 0.760947
vt 0.820524 0.545436
vt 0.793397 0.653051
vt 0.830510 0.105195
vt 0.828226 0.056014
vt 0.513320 0.239666
vt 0.513320 0.239666
vt 0.473549 0.404134
vt 0.821435 0.404773
vt 0.513320 0.239666
vt 0.821435 0.404773
vt 0.835078 0.239613
vt 0.791954 0.654989
vt 0.754773 0.763188
vt 0.538979 0.547178
vt 0.793397 0.653051
vt 0.820524 0.545436
vt 0.540012 0.545823
vt 0.793397 0.653051
vt 0.756696 0.760667
vt 0.880186 0.760947
vt 0.877497 0.447770
vt 0.738205 0.454335
vt 0.734292 0.344170
vt 0.877497 0.447770
vt 0.738205 0.454335
vt 0.734292 0.344170
vt 0.877497 0.447770
vt 0.738205 0.454335
vt 0.734292 0.344170
vt 0.877497 0.447770
vt 0.738205 0.454335
vt 0.734292 0.344170
vt 0.877497 0.447770
vt 0.738205 0.454335
vt 0.734292 0.344170
vt 0.877497 0.447770
vt 0.734292 0.344170
vt 0.738205 0.454335
vt 0.877497 0.447770
vt 0.738205 0.454335
vt 0.734292 0.344170
vt 0.877497 0.447770
vt 0.738205 0.454335
vt 0.734292 0.344170
vn -0.053958 0.925680 0.374439
vn -0.010126 0.869285 0.494208
vn 0.059009 0.927743 0.368525
vn -0.624383 -0.780084 -0.040179
vn -0.728473 -0.637986 -0.249600
vn -0.770370 -0.637389 -0.016277
vn 0.837048 -0.529060 -0.139452
vn 0.923537 -0.362116 -0.126299
vn 0.935826 -0.167172 -0.310296
vn -0.145409 0.972027 0.184447
vn -0.053958 0.925680 0.374439
vn 0.059009 0.927743 0.368525
vn -0.145409 0.972027 0.184447
vn 0.059009 0.927743 0.368525
vn 0.151682 0.970378 0.188040
vn 0.837048 -0.529060 -0.139452
vn 0.880622 -0.458764 -0.118491
vn 0.923537 -0.362116 -0.126299
vn 0.151682 0.970378 0.188040
vn 0.009468 0.999356 0.034623
vn -0.145409 0.972027 0.184447
vn 0.042966 0.091760 0.994854
vn -0.002499 0.190779 0.981630
vn -0.021125 0.099760 0.994787
vn -0.728473 -0.637986 -0.249600
vn -0.760947 -0.646639 0.053087
vn -0.770370 -0.637389 -0.016277
vn -0.760947 -0.646639 0.053087
vn -0.594402 -0.632740 0.496313
vn -0.770370 -0.637389 -0.016277
vn 0.388865 -0.739252 0.549809
vn 0.486732 -0.604290 0.630813
vn 0.035335 -0.680008 0.732352
vn 0.388865 -0.739252 0.549809
vn 0.035335 -0.680008 0.732352
vn 0.006006 -0.840147 0.542326
vn 0.086598 -0.984781 -0.150690
vn 0.652002 -0.757997 0.018275
vn 0.837048 -0.529060 -0.139452
vn 0.486732 -0.604290 0.630813
vn 0.498754 -0.511949 0.699395
vn 0.042709 -0.546678 0.836253
vn 0.486732 -0.604290 0.630813
vn 0.042709 -0.546678 0.836253
vn 0.035335 -0.680008 0.732352
vn 0.999563 0.024181 0.016990
vn 0.998823 0.048344 0.003854
vn 0.998823 0.048344 0.003854
vn 0.999563 0.024181 0.016990
vn 0.998823 0.048344 0.003854
vn 0.999563 0.024181 0.016990
vn 0.076925 -0.973557 -0.215103
vn 0.086598 -0.984781 -0.150690
vn -0.807844 -0.583755 -0.081350
vn 0.076925 -0.973557 -0.215103
vn -0.807844 -0.583755 -0.081350
vn -0.663103 -0.721706 -0.198582
vn 0.076925 -0.973557 -0.215103
vn 0.657083 -0.730984 -0.184132
vn 0.652002 -0.757997 0.018275
vn 0.076925 -0.973557 -0.215103
vn 0.652002 -0.757997 0.018275
vn 0.086598 -0.984781 -0.150690
vn -0.021125 0.099760 0.994787
vn -0.052720 0.081327 0.995292
vn 0.087913 -0.008364 0.996093
vn -0.021125 0.099760 0.994787
vn 0.087913 -0.008364 0.996093
vn 0.042966 0.091760 0.994854
vn -0.756773 0.023074 -0.653270
vn -0.756773 0.023074 -0.653270
vn -0.756773 0.023074 -0.653270
vn -0.974037 -0.174813 -0.143852
vn -0.720982 -0.349427 -0.598403
vn -0.720982 -0.349427 -0.598403
vn -0.974037 -0.174813 -0.143852
vn -0.720982 -0.349427 -0.598403
vn -0.974037 -0.174813 -0.143852
vn -0.888425 -0.233887 0.394966
vn -0.974037 -0.174813 -0.143852
vn -0.974037 -0.174813 -0.143852
vn -0.888425 -0.233887 0.394966
vn -0.974037 -0.174813 -0.143852
vn -0.888425 -0.233887 0.394966
vn 0.688417 -0.074138 -0.721516
vn 0.924616 -0.040610 -0.378731
vn 0.613827 -0.624008 -0.483559
vn 0.688417 -0.074138 -0.721516
vn 0.613827 -0.624008 -0.483559
vn 0.389852 -0.413413 -0.822864
vn -0.720982 -0.349427 -0.598403
vn -0.277497 -0.655442 -0.702418
vn -0.277497 -0.655442 -0.702418
vn -0.720982 -0.349427 -0.598403
vn -0.277497 -0.655442 -0.702418
vn -0.720982 -0.349427 -0.598403
vn 0.389852 -0.413413 -0.822864
vn 0.613827 -0.624008 -0.483559
vn 0.009676 -0.930701 -0.365652
vn 0.613827 -0.624008 -0.483559
vn 0.018747 -0.980035 0.197939
vn 0.413209 -0.844840 0.339857
vn 0.613827 -0.624008 -0.483559
vn 0.413209 -0.844840 0.339857
vn 0.009676 -0.930701 -0.365652
vn -0.277497 -0.655442 -0.702418
vn 0.096631 -0.913599 -0.394966
vn 0.096631 -0.913599 -0.394966
vn -0.277497 -0.655442 -0.702418
vn 0.096631 -0.913599 -0.394966
vn -0.277497 -0.655442 -0.702418
vn -0.514298 -0.492044 0.702418
vn -0.888425 -0.233887 0.394966
vn -0.888425 -0.233887 0.394966
vn -0.514298 -0.492044 0.702418
vn -0.888425 -0.233887 0.394966
vn -0.514298 -0.492044 0.702418
vn 0.095757 -0.954917 0.281004
vn 0.413209 -0.844840 0.339857
vn 0.018747 -0.980035 0.197939
vn 0.095757 -0.954917 0.281004
vn 0.018747 -0.980035 0.197939
vn 0.027697 -0.954169 0.297983
vn 0.096631 -0.913599 -0.394966
vn 0.182243 -0.972674 0.143852
vn 0.182243 -0.972674 0.143852
vn 0.096631 -0.913599 -0.394966
vn 0.182243 -0.972674 0.143852
vn 0.096631 -0.913599 -0.394966
vn 0.924616 -0.040610 -0.378731
vn 0.999563 0.024181 0.016990
vn 0.999563 0.024181 0.016990
vn 0.924616 -0.040610 -0.378731
vn 0.999563 0.024181 0.016990
vn 0.613827 -0.624008 -0.483559
vn 0.837048 -0.529060 -0.139452
vn 0.935826 -0.167172 -0.310296
vn 0.086598 -0.984781 -0.150690
vn 0.182243 -0.972674 0.143852
vn -0.070812 -0.798060 0.598403
vn -0.070812 -0.798060 0.598403
vn 0.182243 -0.972674 0.143852
vn -0.070812 -0.798060 0.598403
vn 0.182243 -0.972674 0.143852
vn -0.070812 -0.798060 0.598403
vn -0.514298 -0.492044 0.702418
vn -0.514298 -0.492044 0.702418
vn -0.070812 -0.798060 0.598403
vn -0.514298 -0.492044 0.702418
vn -0.070812 -0.798060 0.598403
vn 0.086598 -0.984781 -0.150690
vn -0.624383 -0.780084 -0.040179
vn -0.770370 -0.637389 -0.016277
vn 0.657083 -0.730984 -0.184132
vn 0.733589 -0.678026 0.046119
vn 0.652002 -0.757997 0.018275
vn -0.663103 -0.721706 -0.198582
vn -0.807844 -0.583755 -0.081350
vn -0.834167 -0.530857 -0.149520
vn 0.018875 0.854089 -0.519784
vn 0.024737 0.913733 -0.405561
vn 0.275202 0.876876 -0.394148
vn 0.018875 0.854089 -0.519784
vn 0.275202 0.876876 -0.394148
vn 0.283521 0.825579 -0.487888
vn -0.518537 0.745946 -0.417951
vn -0.346941 0.838193 -0.420790
vn -0.415391 0.750829 -0.513524
vn 0.283521 0.825579 -0.487888
vn 0.275202 0.876876 -0.394148
vn 0.337685 0.853190 -0.397537
vn -0.415391 0.750829 -0.513524
vn -0.346941 0.838193 -0.420790
vn 0.024737 0.913733 -0.405561
vn -0.415391 0.750829 -0.513524
vn 0.024737 0.913733 -0.405561
vn 0.018875 0.854089 -0.519784
vn -0.770370 -0.637389 -0.016277
vn -0.807844 -0.583755 -0.081350
vn 0.086598 -0.984781 -0.150690
vn 0.693755 -0.501285 0.517124
vn 0.498754 -0.511949 0.699395
vn 0.486732 -0.604290 0.630813
vn -0.109955 -0.939336 0.324897
vn -0.452221 -0.880984 0.139149
vn -0.582343 -0.812930 0.004594
vn -0.261395 0.879609 0.397442
vn -0.145409 0.972027 0.184447
vn -0.377521 0.880908 0.285444
vn 0.533849 -0.812811 -0.233116
vn 0.573252 -0.710443 -0.408232
vn 0.660164 -0.750408 -0.032735
vn 0.337685 0.853190 -0.397537
vn 0.275202 0.876876 -0.394148
vn 0.246745 0.948168 -0.200238
vn 0.337685 0.853190 -0.397537
vn 0.246745 0.948168 -0.200238
vn 0.311043 0.925280 -0.217047
vn 0.311043 0.925280 -0.217047
vn 0.246745 0.948168 -0.200238
vn 0.230266 0.973057 -0.011699
vn -0.145409 0.972027 0.184447
vn -0.261395 0.879609 0.397442
vn -0.053958 0.925680 0.374439
vn -0.377521 0.880908 0.285444
vn -0.305876 0.800148 0.515948
vn -0.261395 0.879609 0.397442
vn 0.009468 0.999356 0.034623
vn -0.226515 0.973998 -0.004305
vn -0.145409 0.972027 0.184447
vn -0.807844 -0.583755 -0.081350
vn -0.770370 -0.637389 -0.016277
vn -0.807677 -0.586105 -0.064341
vn 0.578932 -0.814304 0.041795
vn 0.837048 -0.529060 -0.139452
vn 0.652002 -0.757997 0.018275
vn -0.475042 -0.570520 0.669956
vn -0.475706 -0.506408 0.719204
vn -0.682274 -0.681107 0.265697
vn -0.807677 -0.586105 -0.064341
vn -0.770370 -0.637389 -0.016277
vn -0.884040 -0.467075 -0.017729
vn -0.807677 -0.586105 -0.064341
vn -0.884040 -0.467075 -0.017729
vn -0.743352 -0.667715 -0.039810
vn 0.230266 0.973057 -0.011699
vn 0.246745 0.948168 -0.200238
vn 0.022542 0.983454 -0.179748
vn 0.230266 0.973057 -0.011699
vn 0.022542 0.983454 -0.179748
vn 0.009468 0.999356 0.034623
vn 0.230266 0.973057 -0.011699
vn 0.151682 0.970378 0.188040
vn 0.347857 0.897221 0.272009
vn -0.010126 0.869285 0.494208
vn 0.260180 0.836560 0.482156
vn 0.236457 0.894052 0.380473
vn -0.010126 0.869285 0.494208
vn 0.236457 0.894052 0.380473
vn 0.059009 0.927743 0.368525
vn 0.246745 0.948168 -0.200238
vn 0.275202 0.876876 -0.394148
vn 0.024737 0.913733 -0.405561
vn 0.246745 0.948168 -0.200238
vn 0.024737 0.913733 -0.405561
vn 0.022542 0.983454 -0.179748
vn -0.567612 -0.810050 -0.147090
vn -0.834167 -0.530857 -0.149520
vn -0.767804 -0.634809 -0.086570
vn 0.151682 0.970378 0.188040
vn 0.230266 0.973057 -0.011699
vn 0.009468 0.999356 0.034623
vn 0.837048 -0.529060 -0.139452
vn 0.868809 -0.411681 -0.275119
vn 0.880622 -0.458764 -0.118491
vn 0.347857 0.897221 0.272009
vn 0.151682 0.970378 0.188040
vn 0.236457 0.894052 0.380473
vn 0.236457 0.894052 0.380473
vn 0.260180 0.836560 0.482156
vn 0.347857 0.897221 0.272009
vn 0.059009 0.927743 0.368525
vn 0.236457 0.894052 0.380473
vn 0.151682 0.970378 0.188040
vn -0.452221 -0.880984 0.139149
vn -0.472790 -0.750263 0.462142
vn -0.682274 -0.681107 0.265697
vn -0.109955 -0.939336 0.324897
vn 0.006006 -0.840147 0.542326
vn -0.472790 -0.750263 0.462142
vn -0.109955 -0.939336 0.324897
vn -0.472790 -0.750263 0.462142
vn -0.452221 -0.880984 0.139149
vn 0.388865 -0.739252 0.549809
vn 0.006006 -0.840147 0.542326
vn -0.109955 -0.939336 0.324897
vn -0.682274 -0.681107 0.265697
vn -0.582343 -0.812930 0.004594
vn -0.452221 -0.880984 0.139149
vn 0.035335 -0.680008 0.732352
vn 0.042709 -0.546678 0.836253
vn -0.475706 -0.506408 0.719204
vn 0.035335 -0.680008 0.732352
vn -0.475706 -0.506408 0.719204
vn -0.475042 -0.570520 0.669956
vn -0.053958 0.925680 0.374439
vn -0.261395 0.879609 0.397442
vn -0.305876 0.800148 0.515948
vn -0.053958 0.925680 0.374439
vn -0.305876 0.800148 0.515948
vn -0.010126 0.869285 0.494208
vn -0.145409 0.972027 0.184447
vn -0.226515 0.973998 -0.004305
vn -0.317021 0.948353 -0.011113
vn -0.145409 0.972027 0.184447
vn -0.317021 0.948353 -0.011113
vn -0.377521 0.880908 0.285444
vn 0.009468 0.999356 0.034623
vn 0.022542 0.983454 -0.179748
vn -0.248485 0.947334 -0.202025
vn 0.009468 0.999356 0.034623
vn -0.248485 0.947334 -0.202025
vn -0.226515 0.973998 -0.004305
vn -0.248485 0.947334 -0.202025
vn -0.346941 0.838193 -0.420790
vn -0.518537 0.745946 -0.417951
vn -0.248485 0.947334 -0.202025
vn -0.518537 0.745946 -0.417951
vn -0.357068 0.905619 -0.228818
vn 0.006006 -0.840147 0.542326
vn 0.035335 -0.680008 0.732352
vn -0.475042 -0.570520 0.669956
vn 0.006006 -0.840147 0.542326
vn -0.475042 -0.570520 0.669956
vn -0.472790 -0.750263 0.462142
vn -0.346941 0.838193 -0.420790
vn -0.248485 0.947334 -0.202025
vn 0.022542 0.983454 -0.179748
vn -0.346941 0.838193 -0.420790
vn 0.022542 0.983454 -0.179748
vn 0.024737 0.913733 -0.405561
vn -0.226515 0.973998 -0.004305
vn -0.248485 0.947334 -0.202025
vn -0.357068 0.905619 -0.228818
vn -0.226515 0.973998 -0.004305
vn -0.357068 0.905619 -0.228818
vn -0.317021 0.948353 -0.011113
vn -0.743352 -0.667715 -0.039810
vn -0.558301 -0.827507 -0.059424
vn -0.567612 -0.810050 -0.147090
vn -0.743352 -0.667715 -0.039810
vn -0.567612 -0.810050 -0.147090
vn -0.807677 -0.586105 -0.064341
vn -0.743352 -0.667715 -0.039810
vn -0.884040 -0.467075 -0.017729
vn -0.582343 -0.812930 0.004594
vn 0.669636 0.703600 -0.237770
vn 0.669636 0.703600 -0.237770
vn 0.669636 0.703600 -0.237770
vn 0.693755 -0.501285 0.517124
vn 0.486732 -0.604290 0.630813
vn 0.388865 -0.739252 0.549809
vn 0.652002 -0.757997 0.018275
vn 0.733589 -0.678026 0.046119
vn 0.660164 -0.750408 -0.032735
vn -0.807844 -0.583755 -0.081350
vn -0.807677 -0.586105 -0.064341
vn -0.767804 -0.634809 -0.086570
vn -0.472790 -0.750263 0.462142
vn -0.475042 -0.570520 0.669956
vn -0.682274 -0.681107 0.265697
vn -0.682274 -0.681107 0.265697
vn -0.558301 -0.827507 -0.059424
vn -0.743352 -0.667715 -0.039810
vn -0.682274 -0.681107 0.265697
vn -0.743352 -0.667715 -0.039810
vn -0.582343 -0.812930 0.004594
vn 0.660164 -0.750408 -0.032735
vn 0.733589 -0.678026 0.046119
vn 0.533849 -0.812811 -0.233116
vn -0.767804 -0.634809 -0.086570
vn -0.807677 -0.586105 -0.064341
vn -0.567612 -0.810050 -0.147090
vn -0.767804 -0.634809 -0.086570
vn -0.834167 -0.530857 -0.149520
vn -0.807844 -0.583755 -0.081350
vn 0.218495 -0.689181 -0.690862
vn 0.523297 -0.595068 -0.609962
vn 0.094727 -0.821600 -0.562138
vn 0.094727 -0.821600 -0.562138
vn -0.135943 -0.863468 -0.485739
vn 0.218495 -0.689181 -0.690862
vn 0.924312 -0.381418 0.012935
vn 0.413209 -0.844840 0.339857
vn 0.837777 -0.348978 0.419933
vn -0.152501 -0.958493 -0.240905
vn -0.135943 -0.863468 -0.485739
vn 0.094727 -0.821600 -0.562138
vn 0.837777 -0.348978 0.419933
vn 0.413209 -0.844840 0.339857
vn 0.437974 -0.687577 0.579152
vn 0.437974 -0.687577 0.579152
vn 0.413209 -0.844840 0.339857
vn 0.095757 -0.954917 0.281004
vn -0.122515 0.125343 0.984520
vn -0.052720 0.081327 0.995292
vn -0.021125 0.099760 0.994787
vn -0.122515 0.125343 0.984520
vn -0.096661 0.136163 0.985960
vn -0.052720 0.081327 0.995292
f 75/1/1 34/2/2 74/3/3
f 66/4/4 64/5/5 49/6/6
f 51/7/7 64/8/8 66/9/9
f 32/10/10 75/11/11 74/12/12
f 32/13/13 74/14/14 39/15/15
f 51/16/16 65/17/17 64/18/18
f 39/19/19 35/20/20 32/21/21
f 49/22/22 63/23/23 51/24/24
f 64/25/25 65/26/26 49/27/27
f 65/28/28 63/29/29 49/30/30
f 58/31/31 59/32/32 57/33/33
f 58/34/34 57/35/35 55/36/36
f 62/37/37 22/38/38 51/39/39
f 59/40/40 41/41/41 34/42/42
f 59/43/43 34/44/44 57/45/45
f 50/46/46 49/47/47 73/48/48
f 50/49/49 73/50/50 72/51/51
f 28/52/52 62/53/53 20/54/54
f 28/55/55 20/56/56 18/57/57
f 28/58/58 17/59/59 22/60/60
f 28/61/61 22/62/62 62/63/63
f 51/64/64 68/65/65 73/66/66
f 51/67/67 73/68/68 49/69/69
f 56/70/70 71/71/71 70/72/72
f 2/73/73 4/74/74 3/75/75
f 2/76/76 3/77/77 1/78/78
f 16/79/79 2/80/80 1/81/81
f 16/82/82 1/83/83 15/84/84
f 56/85/85 42/86/86 69/87/87
f 56/88/88 69/89/89 71/90/90
f 4/91/91 6/92/92 5/93/93
f 4/94/94 5/95/95 3/96/96
f 71/97/97 69/98/98 70/99/99
f 69/100/100 72/101/101 67/102/102
f 69/103/103 67/104/104 70/105/105
f 6/106/106 8/107/107 7/108/108
f 6/109/109 7/110/110 5/111/111
f 14/112/112 16/113/113 15/114/114
f 14/115/115 15/116/116 13/117/117
f 68/118/118 67/119/119 72/120/120
f 68/121/121 72/122/122 73/123/123
f 8/124/124 10/125/125 9/126/126
f 8/127/127 9/128/128 7/129/129
f 42/130/130 50/131/131 72/132/132
f 42/133/133 72/134/134 69/135/135
f 51/136/136 66/137/137 62/138/138
f 10/139/139 12/140/140 11/141/141
f 10/142/142 11/143/143 9/144/144
f 12/145/145 14/146/146 13/147/147
f 12/148/148 13/149/149 11/150/150
f 62/151/151 66/152/152 49/153/153
f 17/154/154 29/155/155 22/156/156
f 18/157/157 20/158/158 30/159/159
f 28/160/160 26/161/161 25/162/162
f 28/163/163 25/164/164 17/165/165
f 30/166/166 24/167/167 18/168/168
f 17/169/169 25/170/170 29/171/171
f 18/172/172 24/173/173 26/174/174
f 18/175/175 26/176/176 28/177/177
f 49/178/178 20/179/179 62/180/180
f 37/181/181 41/182/182 59/183/183
f 56/184/184 54/185/185 42/186/186
f 60/187/187 32/188/188 21/189/189
f 33/190/190 48/191/191 40/192/192
f 29/193/193 25/194/194 44/195/195
f 29/196/196 44/197/197 33/198/198
f 33/199/199 44/200/200 43/201/201
f 32/202/202 60/203/203 75/204/204
f 21/205/205 27/206/206 60/207/207
f 35/208/208 47/209/209 32/210/210
f 20/211/211 49/212/212 46/213/213
f 48/214/214 51/215/215 22/216/216
f 53/217/217 27/218/218 21/219/219
f 46/220/220 49/221/221 50/222/222
f 46/223/223 50/224/224 23/225/225
f 43/226/226 44/227/227 36/228/228
f 43/229/229 36/230/230 35/231/231
f 43/232/232 39/233/233 37/234/234
f 34/235/235 41/236/236 61/237/237
f 34/238/238 61/239/239 74/240/240
f 44/241/241 25/242/242 26/243/243
f 44/244/244 26/245/245 36/246/246
f 19/247/247 30/248/248 38/249/249
f 39/250/250 43/251/251 35/252/252
f 51/253/253 63/254/254 65/255/255
f 37/256/256 39/257/257 61/258/258
f 61/259/259 41/260/260 37/261/261
f 74/262/262 61/263/263 39/264/264
f 54/265/265 52/266/266 21/267/267
f 56/268/268 55/269/269 52/270/270
f 56/271/271 52/272/272 54/273/273
f 58/274/274 55/275/275 56/276/276
f 21/277/277 42/278/278 54/279/279
f 57/280/280 34/281/281 27/282/282
f 57/283/283 27/284/284 53/285/285
f 75/286/286 60/287/287 27/288/288
f 75/289/289 27/290/290 34/291/291
f 32/292/292 47/293/293 31/294/294
f 32/295/295 31/296/296 21/297/297
f 35/298/298 36/299/299 45/300/300
f 35/301/301 45/302/302 47/303/303
f 45/304/304 24/305/305 30/306/306
f 45/307/307 30/308/308 19/309/309
f 55/310/310 57/311/311 53/312/312
f 55/313/313 53/314/314 52/315/315
f 24/316/316 45/317/317 36/318/318
f 24/319/319 36/320/320 26/321/321
f 47/322/322 45/323/323 19/324/324
f 47/325/325 19/326/326 31/327/327
f 23/328/328 31/329/329 19/330/330
f 23/331/331 19/332/332 46/333/333
f 23/334/334 50/335/335 42/336/336
f 40/337/337 48/338/338 22/339/339
f 37/340/340 59/341/341 58/342/342
f 22/343/343 29/344/344 40/345/345
f 20/346/346 46/347/347 38/348/348
f 52/349/349 53/350/350 21/351/351
f 21/352/352 31/353/353 23/354/354
f 21/355/355 23/356/356 42/357/357
f 40/358/358 29/359/359 33/360/360
f 38/361/361 46/362/362 19/363/363
f 38/364/364 30/365/365 20/366/366
f 58/367/367 56/368/368 70/369/369
f 70/370/370 37/371/371 58/372/372
f 70/373/373 67/374/374 43/375/375
f 43/376/376 37/377/377 70/378/378
f 43/379/379 67/380/380 33/381/381
f 33/382/382 67/383/383 68/384/384
f 48/385/385 68/386/386 51/387/387
f 48/388/388 33/389/389 68/390/390
