v 1.046120 -0.278363 -0.309217
v 0.986282 1.614902 -1.383163
v -1.045398 -0.278375 -0.309247
v -0.985833 1.614902 -1.383163
v -0.522525 -0.226111 -0.159653
v 0.523234 -0.226105 -0.159637
v 0.523234 -0.417705 -0.644574
v -0.522525 -0.417711 -0.644589
v 0.493315 1.476135 -1.646526
v -0.492742 1.476135 -1.646526
v 0.523234 -0.889587 -0.368235
v -0.522525 -0.889593 -0.368251
v 0.493253 1.614902 -1.383163
v -0.492804 1.614902 -1.383163
vt 0.915187 0.196941
vt 0.835941 0.248959
vt 0.915187 0.247493
vt 0.921216 0.446971
vt 0.846359 0.450748
vt 0.837273 0.247053
vt 0.921216 0.446971
vt 0.837273 0.247053
vt 0.916673 0.245572
vt 0.916673 0.245572
vt 0.837273 0.247053
vt 0.916673 0.194520
vt 0.835941 0.248959
vt 0.915187 0.248741
vt 0.919692 0.450659
vt 0.921225 0.450748
vt 0.916673 0.246832
vt 0.837273 0.247053
vt 0.915187 0.248741
vt 0.835941 0.248959
vt 0.915187 0.196941
vt 0.916673 0.194520
vt 0.837273 0.247053
vt 0.916673 0.246832
vt 0.915187 0.248741
vt 0.915187 0.196941
vt 0.915187 0.247493
vt 0.916673 0.246832
vt 0.921225 0.450748
vt 0.921216 0.446971
vt 0.916673 0.246832
vt 0.921216 0.446971
vt 0.916673 0.245572
vt 0.915187 0.247493
vt 0.835941 0.248959
vt 0.844969 0.450659
vt 0.915187 0.247493
vt 0.844969 0.450659
vt 0.919701 0.446919
vt 0.915187 0.247493
vt 0.919701 0.446919
vt 0.919692 0.450659
vt 0.915187 0.247493
vt 0.919692 0.450659
vt 0.915187 0.248741
vt 0.916673 0.245572
vt 0.916673 0.194520
vt 0.916673 0.246832
vt 0.837273 0.247053
vt 0.846359 0.450748
vt 0.921225 0.450748
vt 0.919692 0.450659
vt 0.844969 0.450659
vt 0.835941 0.248959
vt 0.000000 0.000000
vt 0.000000 0.000000
vt 0.000000 0.000000
vt 0.000000 0.000000
vt 0.000000 0.000000
vt 0.000000 0.000000
vn -0.566861 -0.416302 -0.710888
vn -0.555721 -0.404904 -0.726104
vn -0.555721 -0.404904 -0.726104
vn 0.544364 -0.393254 -0.740958
vn 0.544364 -0.393254 -0.740958
vn 0.555751 -0.404875 -0.726097
vn 0.544364 -0.393254 -0.740958
vn 0.555751 -0.404875 -0.726097
vn 0.555751 -0.404875 -0.726097
vn 0.555751 -0.404875 -0.726097
vn 0.555751 -0.404875 -0.726097
vn 0.566868 -0.416300 -0.710883
vn -0.188498 0.268144 0.944758
vn -0.284925 0.133686 0.949182
vn -0.142266 0.519453 0.842573
vn 0.142247 0.519478 0.842561
vn 0.284893 0.133708 0.949188
vn 0.188476 0.268163 0.944757
vn -0.284925 0.133686 0.949182
vn -0.188498 0.268144 0.944758
vn -0.236083 -0.291447 0.926997
vn 0.236056 -0.291449 0.927003
vn 0.188476 0.268163 0.944757
vn 0.284893 0.133708 0.949188
vn 0.999976 -0.006287 0.002817
vn 1.000000 -0.000000 0.000000
vn 0.999976 -0.006287 0.002817
vn -0.999976 -0.006368 0.002770
vn -0.999904 -0.012735 0.005540
vn -0.999904 -0.012735 0.005540
vn -0.999976 -0.006368 0.002770
vn -0.999904 -0.012735 0.005540
vn -0.999976 -0.006368 0.002770
vn -0.555721 -0.404904 -0.726104
vn -0.555721 -0.404904 -0.726104
vn -0.544312 -0.393308 -0.740968
vn -0.555721 -0.404904 -0.726104
vn -0.544312 -0.393308 -0.740968
vn -0.544312 -0.393308 -0.740968
vn 0.999976 -0.006287 0.002817
vn 0.999905 -0.012574 0.005634
vn 0.999905 -0.012574 0.005634
vn 0.999976 -0.006287 0.002817
vn 0.999905 -0.012574 0.005634
vn 0.999976 -0.006287 0.002817
vn -0.999976 -0.006368 0.002770
vn -1.000000 0.000000 -0.000000
vn -0.999976 -0.006368 0.002770
vn 0.188476 0.268163 0.944757
vn 0.000000 0.493394 0.869806
vn 0.142247 0.519478 0.842561
vn -0.142266 0.519453 0.842573
vn 0.000000 0.493381 0.869813
vn -0.188498 0.268144 0.944758
vn 0.000000 0.884703 -0.466155
vn 0.000000 0.884703 -0.466155
vn 0.000000 0.884703 -0.466155
vn 0.000000 0.884703 -0.466155
vn 0.000000 0.884703 -0.466155
vn 0.000000 0.884703 -0.466155
f 12/1/1 3/2/2 8/3/3
f 9/4/4 2/5/5 1/6/6
f 9/7/7 1/8/8 7/9/9
f 7/10/10 1/11/11 11/12/12
f 3/13/13 5/14/14 14/15/15
f 13/16/16 6/17/17 1/18/18
f 5/19/19 3/20/20 12/21/21
f 11/22/22 1/23/23 6/24/24
f 5/25/25 12/26/26 8/27/27
f 6/28/28 13/29/29 9/30/30
f 6/31/31 9/32/32 7/33/33
f 8/34/34 3/35/35 4/36/36
f 8/37/37 4/38/38 10/39/39
f 8/40/40 10/41/41 14/42/42
f 8/43/43 14/44/44 5/45/45
f 7/46/46 11/47/47 6/48/48
f 1/49/49 2/50/50 13/51/51
f 14/52/52 4/53/53 3/54/54
f 13/55/55 2/56/56 9/57/57
f 4/58/58 14/59/59 10/60/60
