v -1.542371 0.272750 7.002057
v -2.227531 0.465104 6.595998
v -1.635303 -0.043365 5.705262
v 1.235537 -0.160959 6.412706
v 1.236218 -0.154387 5.939699
v 1.630435 -0.056467 6.651282
v 1.541182 0.278241 5.363511
v -0.859537 0.103157 5.769570
v -2.228703 0.476482 5.776718
v -2.029551 0.054549 6.416842
v -1.667979 -0.172210 6.176634
v 2.223985 0.465151 6.596000
v 1.538816 0.272788 7.002057
v 2.225164 0.476533 5.776725
v 0.854819 0.091804 6.588836
v 0.856000 0.103185 5.769564
v 1.664469 -0.172173 6.176622
v 2.026016 0.054594 6.416837
v 2.026700 0.061165 5.943837
v 1.631800 -0.043326 5.705265
v -1.239050 -0.160990 6.412703
v -1.239726 -0.154419 5.939714
v -1.633950 -0.056503 6.651275
v -1.544683 0.278195 5.363513
v -2.030226 0.061118 5.943843
v -0.858364 0.091778 6.588832
vt 0.000000 0.000000
vt 0.000000 0.000000
vt 0.000000 0.000000
vt 0.000000 0.000000
vt 0.000000 0.000000
vt 0.000000 0.000000
vt 0.000000 0.000000
vt 0.000000 0.000000
vt 0.000000 0.000000
vt 0.000000 0.000000
vt 0.000000 0.000000
vt 0.000000 0.000000
vt 0.000000 0.000000
vt 0.000000 0.000000
vt 0.000000 0.000000
vt 0.000000 0.000000
vt 0.000000 0.000000
vt 0.000000 0.000000
vt 0.000000 0.000000
vt 0.000000 0.000000
vt 0.000000 0.000000
vt 0.000000 0.000000
vt 0.000000 0.000000
vt 0.000000 0.000000
vt 0.000000 0.000000
vt 0.000000 0.000000
vt 0.000000 0.000000
vt 0.000000 0.000000
vt 0.000000 0.000000
vt 0.000000 0.000000
vt 0.000000 0.000000
vt 0.000000 0.000000
vt 0.000000 0.000000
vt 0.000000 0.000000
vt 0.000000 0.000000
vt 0.000000 0.000000
vt 0.000000 0.000000
vt 0.000000 0.000000
vt 0.000000 0.000000
vt 0.000000 0.000000
vt 0.000000 0.000000
vt 0.000000 0.000000
vt 0.000000 0.000000
vt 0.000000 0.000000
vt 0.000000 0.000000
vt 0.000000 0.000000
vt 0.000000 0.000000
vt 0.000000 0.000000
vt 0.000000 0.000000
vt 0.000000 0.000000
vt 0.000000 0.000000
vt 0.000000 0.000000
vt 0.000000 0.000000
vt 0.000000 0.000000
vt 0.000000 0.000000
vt 0.000000 0.000000
vt 0.000000 0.000000
vt 0.000000 0.000000
vt 0.000000 0.000000
vt 0.000000 0.000000
vt 0.000000 0.000000
vt 0.000000 0.000000
vt 0.000000 0.000000
vt 0.000000 0.000000
vt 0.000000 0.000000
vt 0.000000 0.000000
vt 0.000000 0.000000
vt 0.000000 0.000000
vt 0.000000 0.000000
vt 0.000000 0.000000
vt 0.000000 0.000000
vt 0.000000 0.000000
vt 0.000000 0.000000
vt 0.000000 0.000000
vt 0.000000 0.000000
vt 0.000000 0.000000
vt 0.000000 0.000000
vt 0.000000 0.000000
vt 0.000000 0.000000
vt 0.000000 0.000000
vt 0.000000 0.000000
vt 0.000000 0.000000
vt 0.000000 0.000000
vt 0.000000 0.000000
vt 0.000000 0.000000
vt 0.000000 0.000000
vt 0.000000 0.000000
vt 0.000000 0.000000
vt 0.000000 0.000000
vt 0.000000 0.000000
vt 0.000000 0.000000
vt 0.000000 0.000000
vt 0.000000 0.000000
vt 0.000000 0.000000
vt 0.000000 0.000000
vt 0.000000 0.000000
vt 0.000000 0.000000
vt 0.000000 0.000000
vt 0.000000 0.000000
vt 0.000000 0.000000
vt 0.000000 0.000000
vt 0.000000 0.000000
vt 0.000000 0.000000
vt 0.000000 0.000000
vt 0.000000 0.000000
vt 0.000000 0.000000
vt 0.000000 0.000000
vt 0.000000 0.000000
vn -0.263094 -0.964683 -0.013016
vn -0.470177 -0.874655 0.117951
vn -0.470551 -0.871060 -0.140844
vn -0.828640 -0.559743 -0.006589
vn -0.785553 -0.618350 0.023425
vn -0.901533 -0.432685 -0.004720
vn -0.828640 -0.559743 -0.006589
vn -0.901533 -0.432685 -0.004720
vn -0.901533 -0.432685 -0.004720
vn -0.263094 -0.964683 -0.013016
vn -0.038082 -0.988975 -0.143099
vn -0.037709 -0.992569 0.115693
vn 0.557061 -0.830380 -0.012331
vn 0.557061 -0.830380 -0.012331
vn 0.557061 -0.830380 -0.012331
vn 0.557061 -0.830380 -0.012331
vn 0.557061 -0.830380 -0.012331
vn 0.557061 -0.830380 -0.012331
vn -0.535938 -0.541224 0.647956
vn -0.535938 -0.541224 0.647956
vn -0.535938 -0.541224 0.647956
vn -0.535938 -0.541224 0.647956
vn -0.535938 -0.541224 0.647956
vn -0.535938 -0.541224 0.647956
vn -0.263094 -0.964683 -0.013016
vn -0.253755 -0.935405 0.246224
vn -0.470177 -0.874655 0.117951
vn -0.263094 -0.964683 -0.013016
vn -0.470551 -0.871060 -0.140844
vn -0.254503 -0.928219 -0.271363
vn -0.542518 -0.529654 -0.652028
vn -0.542518 -0.529654 -0.652028
vn -0.542518 -0.529654 -0.652028
vn -0.542518 -0.529654 -0.652028
vn -0.542518 -0.529654 -0.652028
vn -0.542518 -0.529654 -0.652028
vn 0.192536 -0.733092 -0.652309
vn 0.192536 -0.733092 -0.652309
vn 0.192536 -0.733092 -0.652309
vn 0.192536 -0.733092 -0.652309
vn 0.192536 -0.733092 -0.652309
vn 0.192536 -0.733092 -0.652309
vn -0.263094 -0.964683 -0.013016
vn -0.254503 -0.928219 -0.271363
vn -0.038082 -0.988975 -0.143099
vn 0.193349 -0.740052 0.644158
vn 0.193349 -0.740052 0.644158
vn 0.193349 -0.740052 0.644158
vn 0.193349 -0.740052 0.644158
vn 0.193349 -0.740052 0.644158
vn 0.193349 -0.740052 0.644158
vn -0.263094 -0.964683 -0.013016
vn -0.037709 -0.992569 0.115693
vn -0.253755 -0.935405 0.246224
vn 0.470587 -0.871041 -0.140842
vn 0.470215 -0.874635 0.117949
vn 0.263121 -0.964675 -0.013022
vn 0.901544 -0.432661 -0.004712
vn 0.901544 -0.432661 -0.004712
vn 0.785549 -0.618356 0.023427
vn 0.901544 -0.432661 -0.004712
vn 0.785549 -0.618356 0.023427
vn 0.828641 -0.559742 -0.006583
vn 0.037724 -0.992569 0.115686
vn 0.038097 -0.988974 -0.143106
vn 0.263121 -0.964675 -0.013022
vn -0.557022 -0.830406 -0.012339
vn -0.557022 -0.830406 -0.012339
vn -0.557022 -0.830406 -0.012339
vn -0.557022 -0.830406 -0.012339
vn -0.557022 -0.830406 -0.012339
vn -0.557022 -0.830406 -0.012339
vn 0.535957 -0.541193 0.647967
vn 0.535957 -0.541193 0.647967
vn 0.535957 -0.541193 0.647967
vn 0.535957 -0.541193 0.647967
vn 0.535957 -0.541193 0.647967
vn 0.535957 -0.541193 0.647967
vn 0.253784 -0.935400 0.246214
vn 0.037724 -0.992569 0.115686
vn 0.263121 -0.964675 -0.013022
vn 0.470215 -0.874635 0.117949
vn 0.253784 -0.935400 0.246214
vn 0.263121 -0.964675 -0.013022
vn -0.193335 -0.740059 0.644154
vn -0.193335 -0.740059 0.644154
vn -0.193335 -0.740059 0.644154
vn -0.193335 -0.740059 0.644154
vn -0.193335 -0.740059 0.644154
vn -0.193335 -0.740059 0.644154
vn 0.038097 -0.988974 -0.143106
vn 0.254529 -0.928210 -0.271369
vn 0.263121 -0.964675 -0.013022
vn -0.192510 -0.733085 -0.652324
vn -0.192510 -0.733085 -0.652324
vn -0.192510 -0.733085 -0.652324
vn -0.192510 -0.733085 -0.652324
vn -0.192510 -0.733085 -0.652324
vn -0.192510 -0.733085 -0.652324
vn 0.254529 -0.928210 -0.271369
vn 0.470587 -0.871041 -0.140842
vn 0.263121 -0.964675 -0.013022
vn 0.542546 -0.529632 -0.652023
vn 0.542546 -0.529632 -0.652023
vn 0.542546 -0.529632 -0.652023
vn 0.542546 -0.529632 -0.652023
vn 0.542546 -0.529632 -0.652023
vn 0.542546 -0.529632 -0.652023
f 11/1/1 10/2/2 25/3/3
f 2/4/4 9/5/5 25/6/6
f 2/7/7 25/8/8 10/9/9
f 11/10/10 22/11/11 21/12/12
f 8/13/13 26/14/14 21/15/15
f 8/16/16 21/17/17 22/18/18
f 1/19/19 2/20/20 10/21/21
f 1/22/22 10/23/23 23/24/24
f 11/25/25 23/26/26 10/27/27
f 11/28/28 25/29/29 3/30/30
f 9/31/31 24/32/32 3/33/33
f 9/34/34 3/35/35 25/36/36
f 24/37/37 8/38/38 22/39/39
f 24/40/40 22/41/41 3/42/42
f 11/43/43 3/44/44 22/45/45
f 26/46/46 1/47/47 23/48/48
f 26/49/49 23/50/50 21/51/51
f 11/52/52 21/53/53 23/54/54
f 19/55/55 18/56/56 17/57/57
f 18/58/58 19/59/59 14/60/60
f 18/61/61 14/62/62 12/63/63
f 4/64/64 5/65/65 17/66/66
f 5/67/67 4/68/68 15/69/69
f 5/70/70 15/71/71 16/72/72
f 6/73/73 18/74/74 12/75/75
f 6/76/76 12/77/77 13/78/78
f 6/79/79 4/80/80 17/81/81
f 18/82/82 6/83/83 17/84/84
f 4/85/85 6/86/86 13/87/87
f 4/88/88 13/89/89 15/90/90
f 5/91/91 20/92/92 17/93/93
f 20/94/94 5/95/95 16/96/96
f 20/97/97 16/98/98 7/99/99
f 20/100/100 19/101/101 17/102/102
f 19/103/103 20/104/104 7/105/105
f 19/106/106 7/107/107 14/108/108
