v -1.644377 1.421572 5.758811
v -1.235991 1.421693 5.993719
v -1.230901 1.344632 6.478869
v 1.611531 0.999810 6.841609
v -0.001783 1.321697 5.176244
v -0.001783 0.985090 7.285526
v 0.819067 1.317727 5.731666
v 0.874868 1.132300 6.836228
v -0.001783 1.729616 6.308023
v 0.487683 1.660461 6.012447
v -0.001783 1.701014 5.732779
v -0.001783 1.538803 6.851453
v 0.487683 1.579355 6.571784
v 2.162685 0.929047 6.531466
v 1.604642 1.312904 5.545896
v 1.046598 1.209067 6.517681
v 2.155796 1.131304 5.862932
v 1.053488 1.313072 5.862932
v 1.638271 1.315821 6.236358
v 1.645928 1.149796 6.718953
v 2.054304 1.106256 6.489142
v 2.049199 1.287011 5.993783
v 1.227333 1.344631 6.478930
v 1.232437 1.421692 5.993780
v 1.640823 1.421571 5.758872
v -1.615098 0.999810 6.841609
v -0.822634 1.317727 5.731666
v -0.878434 1.132300 6.836228
v -0.491249 1.660461 6.012447
v -0.491250 1.579355 6.571784
v -2.166251 0.929047 6.531465
v -1.608208 1.312904 5.545896
v -1.050165 1.209067 6.517681
v -2.159362 1.131304 5.862932
v -1.057054 1.313072 5.862932
v -1.641839 1.315822 6.236299
v -1.649496 1.149800 6.718892
v -2.057872 1.106260 6.489080
v -2.052767 1.287012 5.993721
vt 0.000000 0.000000
vt 0.000000 0.000000
vt 0.000000 0.000000
vt 0.000000 0.000000
vt 0.000000 0.000000
vt 0.000000 0.000000
vt 0.000000 0.000000
vt 0.000000 0.000000
vt 0.000000 0.000000
vt 0.000000 0.000000
vt 0.000000 0.000000
vt 0.000000 0.000000
vt 0.000000 0.000000
vt 0.000000 0.000000
vt 0.000000 0.000000
vt 0.000000 0.000000
vt 0.000000 0.000000
vt 0.000000 0.000000
vt 0.000000 0.000000
vt 0.000000 0.000000
vt 0.000000 0.000000
vt 0.000000 0.000000
vt 0.000000 0.000000
vt 0.000000 0.000000
vt 0.000000 0.000000
vt 0.000000 0.000000
vt 0.000000 0.000000
vt 0.000000 0.000000
vt 0.000000 0.000000
vt 0.000000 0.000000
vt 0.000000 0.000000
vt 0.000000 0.000000
vt 0.000000 0.000000
vt 0.000000 0.000000
vt 0.000000 0.000000
vt 0.000000 0.000000
vt 0.000000 0.000000
vt 0.000000 0.000000
vt 0.000000 0.000000
vt 0.000000 0.000000
vt 0.000000 0.000000
vt 0.000000 0.000000
vt 0.000000 0.000000
vt 0.000000 0.000000
vt 0.000000 0.000000
vt 0.000000 0.000000
vt 0.000000 0.000000
vt 0.000000 0.000000
vt 0.000000 0.000000
vt 0.000000 0.000000
vt 0.000000 0.000000
vt 0.000000 0.000000
vt 0.000000 0.000000
vt 0.000000 0.000000
vt 0.000000 0.000000
vt 0.000000 0.000000
vt 0.000000 0.000000
vt 0.000000 0.000000
vt 0.000000 0.000000
vt 0.000000 0.000000
vt 0.000000 0.000000
vt 0.000000 0.000000
vt 0.000000 0.000000
vt 0.000000 0.000000
vt 0.000000 0.000000
vt 0.000000 0.000000
vt 0.000000 0.000000
vt 0.000000 0.000000
vt 0.000000 0.000000
vt 0.000000 0.000000
vt 0.000000 0.000000
vt 0.000000 0.000000
vt 0.000000 0.000000
vt 0.000000 0.000000
vt 0.000000 0.000000
vt 0.000000 0.000000
vt 0.000000 0.000000
vt 0.000000 0.000000
vt 0.000000 0.000000
vt 0.000000 0.000000
vt 0.000000 0.000000
vt 0.000000 0.000000
vt 0.000000 0.000000
vt 0.000000 0.000000
vt 0.000000 0.000000
vt 0.000000 0.000000
vt 0.000000 0.000000
vt 0.000000 0.000000
vt 0.000000 0.000000
vt 0.000000 0.000000
vt 0.000000 0.000000
vt 0.000000 0.000000
vt 0.000000 0.000000
vt 0.000000 0.000000
vt 0.000000 0.000000
vt 0.000000 0.000000
vt 0.000000 0.000000
vt 0.000000 0.000000
vt 0.000000 0.000000
vt 0.000000 0.000000
vt 0.000000 0.000000
vt 0.000000 0.000000
vt 0.000000 0.000000
vt 0.000000 0.000000
vt 0.000000 0.000000
vt 0.000000 0.000000
vt 0.000000 0.000000
vt 0.000000 0.000000
vt 0.000000 0.000000
vt 0.000000 0.000000
vt 0.000000 0.000000
vt 0.000000 0.000000
vt 0.000000 0.000000
vt 0.000000 0.000000
vt 0.000000 0.000000
vt 0.000000 0.000000
vt 0.000000 0.000000
vt 0.000000 0.000000
vt 0.000000 0.000000
vt 0.000000 0.000000
vt 0.000000 0.000000
vt 0.000000 0.000000
vt 0.000000 0.000000
vt 0.000000 0.000000
vt 0.000000 0.000000
vt 0.000000 0.000000
vt 0.000000 0.000000
vt 0.000000 0.000000
vt 0.000000 0.000000
vt 0.000000 0.000000
vt 0.000000 0.000000
vt 0.000000 0.000000
vt 0.000000 0.000000
vt 0.000000 0.000000
vt 0.000000 0.000000
vt 0.000000 0.000000
vt 0.000000 0.000000
vt 0.000000 0.000000
vt 0.000000 0.000000
vt 0.000000 0.000000
vt 0.000000 0.000000
vt 0.000000 0.000000
vt 0.000000 0.000000
vt 0.000000 0.000000
vt 0.000000 0.000000
vt 0.000000 0.000000
vt 0.000000 0.000000
vt 0.000000 0.000000
vt 0.000000 0.000000
vt 0.000000 0.000000
vt 0.000000 0.000000
vt 0.000000 0.000000
vt 0.000000 0.000000
vt 0.000000 0.000000
vt 0.000000 0.000000
vt 0.000000 0.000000
vt 0.000000 0.000000
vt 0.000000 0.000000
vt 0.000000 0.000000
vt 0.000000 0.000000
vt 0.000000 0.000000
vt 0.000000 0.000000
vn 0.000000 0.989650 0.143502
vn -0.166685 0.984956 0.045580
vn -0.166685 0.957336 0.236059
vn -0.359893 0.772269 -0.523524
vn -0.359893 0.772269 -0.523524
vn -0.359893 0.772269 -0.523524
vn -0.359893 0.772269 -0.523524
vn -0.359893 0.772269 -0.523524
vn -0.359893 0.772269 -0.523524
vn 0.000000 0.989650 0.143502
vn 0.000000 0.998766 -0.049660
vn -0.166685 0.984956 0.045580
vn 0.000000 0.989650 0.143502
vn -0.166685 0.957336 0.236059
vn 0.000000 0.943526 0.331298
vn -0.300685 0.621350 0.723542
vn -0.300685 0.621350 0.723542
vn -0.300685 0.621350 0.723542
vn -0.300685 0.621350 0.723542
vn -0.300685 0.621350 0.723542
vn -0.300685 0.621350 0.723542
vn -0.209989 0.943387 0.256760
vn -0.225961 0.935485 0.271678
vn -0.264536 0.910060 0.319080
vn -0.737996 0.669739 0.082533
vn -0.737996 0.669739 0.082533
vn -0.737996 0.669739 0.082533
vn -0.737996 0.669739 0.082533
vn -0.737996 0.669739 0.082533
vn -0.737996 0.669739 0.082533
vn -0.209989 0.943387 0.256760
vn -0.205364 0.950035 0.235071
vn -0.142464 0.972177 0.185946
vn -0.158616 0.963804 0.214299
vn -0.225961 0.935485 0.271678
vn -0.209989 0.943387 0.256760
vn -0.142464 0.972177 0.185946
vn -0.158616 0.963804 0.214299
vn -0.209989 0.943387 0.256760
vn -0.259746 0.914412 0.310455
vn -0.205364 0.950035 0.235071
vn -0.209989 0.943387 0.256760
vn -0.264536 0.910060 0.319080
vn -0.259746 0.914412 0.310455
vn -0.209989 0.943387 0.256760
vn -0.472991 0.479811 0.738959
vn -0.472991 0.479811 0.738959
vn -0.472991 0.479811 0.738959
vn -0.472991 0.479811 0.738959
vn -0.472991 0.479811 0.738959
vn -0.472991 0.479811 0.738959
vn -0.848128 0.505777 0.157699
vn -0.848128 0.505777 0.157699
vn -0.848128 0.505777 0.157699
vn -0.848128 0.505777 0.157699
vn -0.848128 0.505777 0.157699
vn -0.848128 0.505777 0.157699
vn 0.578665 0.806387 0.122009
vn 0.578665 0.806387 0.122009
vn 0.578665 0.806387 0.122009
vn 0.578665 0.806387 0.122009
vn 0.578665 0.806387 0.122009
vn 0.578665 0.806387 0.122009
vn 0.235450 0.881272 -0.409785
vn 0.235450 0.881272 -0.409785
vn 0.235450 0.881272 -0.409785
vn 0.235450 0.881272 -0.409785
vn 0.235450 0.881272 -0.409785
vn 0.235450 0.881272 -0.409785
vn 0.202822 0.593416 0.778923
vn 0.202822 0.593416 0.778923
vn 0.202822 0.593416 0.778923
vn 0.202822 0.593416 0.778923
vn 0.202822 0.593416 0.778923
vn 0.202822 0.593416 0.778923
vn -0.504866 0.731102 -0.458913
vn -0.504866 0.731102 -0.458913
vn -0.504866 0.731102 -0.458913
vn -0.504866 0.731102 -0.458913
vn -0.504866 0.731102 -0.458913
vn -0.504866 0.731102 -0.458913
vn 0.166685 0.957336 0.236059
vn 0.166685 0.984956 0.045580
vn 0.000000 0.989650 0.143502
vn 0.359893 0.772269 -0.523525
vn 0.359893 0.772269 -0.523525
vn 0.359893 0.772269 -0.523525
vn 0.359893 0.772269 -0.523525
vn 0.359893 0.772269 -0.523525
vn 0.359893 0.772269 -0.523525
vn 0.166685 0.984956 0.045580
vn 0.000000 0.998766 -0.049660
vn 0.000000 0.989650 0.143502
vn 0.000000 0.943526 0.331298
vn 0.166685 0.957336 0.236059
vn 0.000000 0.989650 0.143502
vn 0.300685 0.621350 0.723542
vn 0.300685 0.621350 0.723542
vn 0.300685 0.621350 0.723542
vn 0.300685 0.621350 0.723542
vn 0.300685 0.621350 0.723542
vn 0.300685 0.621350 0.723542
vn 0.264538 0.910057 0.319085
vn 0.225963 0.935483 0.271684
vn 0.209991 0.943385 0.256765
vn 0.737996 0.669739 0.082533
vn 0.737996 0.669739 0.082533
vn 0.737996 0.669739 0.082533
vn 0.737996 0.669739 0.082533
vn 0.737996 0.669739 0.082533
vn 0.737996 0.669739 0.082533
vn 0.142467 0.972176 0.185951
vn 0.205368 0.950033 0.235076
vn 0.209991 0.943385 0.256765
vn 0.209991 0.943385 0.256765
vn 0.225963 0.935483 0.271684
vn 0.158618 0.963802 0.214304
vn 0.209991 0.943385 0.256765
vn 0.158618 0.963802 0.214304
vn 0.142467 0.972176 0.185951
vn 0.209991 0.943385 0.256765
vn 0.205368 0.950033 0.235076
vn 0.259748 0.914410 0.310460
vn 0.209991 0.943385 0.256765
vn 0.259748 0.914410 0.310460
vn 0.264538 0.910057 0.319085
vn 0.473025 0.479614 0.739065
vn 0.473025 0.479614 0.739065
vn 0.473025 0.479614 0.739065
vn 0.473025 0.479614 0.739065
vn 0.473025 0.479614 0.739065
vn 0.473025 0.479614 0.739065
vn 0.848145 0.505750 0.157691
vn 0.848145 0.505750 0.157691
vn 0.848145 0.505750 0.157691
vn 0.848145 0.505750 0.157691
vn 0.848145 0.505750 0.157691
vn 0.848145 0.505750 0.157691
vn -0.578678 0.806379 0.122000
vn -0.578678 0.806379 0.122000
vn -0.578678 0.806379 0.122000
vn -0.578678 0.806379 0.122000
vn -0.578678 0.806379 0.122000
vn -0.578678 0.806379 0.122000
vn -0.235395 0.881330 -0.409690
vn -0.235395 0.881330 -0.409690
vn -0.235395 0.881330 -0.409690
vn -0.235395 0.881330 -0.409690
vn -0.235395 0.881330 -0.409690
vn -0.235395 0.881330 -0.409690
vn -0.202948 0.593242 0.779022
vn -0.202948 0.593242 0.779022
vn -0.202948 0.593242 0.779022
vn -0.202948 0.593242 0.779022
vn -0.202948 0.593242 0.779022
vn -0.202948 0.593242 0.779022
vn 0.504844 0.731174 -0.458821
vn 0.504844 0.731174 -0.458821
vn 0.504844 0.731174 -0.458821
vn 0.504844 0.731174 -0.458821
vn 0.504844 0.731174 -0.458821
vn 0.504844 0.731174 -0.458821
f 9/1/1 29/2/2 30/3/3
f 27/4/4 29/5/5 11/6/6
f 27/7/7 11/8/8 5/9/9
f 9/10/10 11/11/11 29/12/12
f 9/13/13 30/14/14 12/15/15
f 12/16/16 30/17/17 28/18/18
f 12/19/19 28/20/20 6/21/21
f 36/22/22 39/23/23 38/24/24
f 28/25/25 30/26/26 29/27/27
f 28/28/28 29/29/29 27/30/30
f 36/31/31 3/32/32 2/33/33
f 1/34/34 39/35/35 36/36/36
f 2/37/37 1/38/38 36/39/39
f 37/40/40 3/41/41 36/42/42
f 38/43/43 37/44/44 36/45/45
f 37/46/46 38/47/47 31/48/48
f 37/49/49 31/50/50 26/51/51
f 38/52/52 39/53/53 34/54/54
f 38/55/55 34/56/56 31/57/57
f 2/58/58 3/59/59 33/60/60
f 2/61/61 33/62/62 35/63/63
f 1/64/64 2/65/65 35/66/66
f 1/67/67 35/68/68 32/69/69
f 3/70/70 37/71/71 26/72/72
f 3/73/73 26/74/74 33/75/75
f 39/76/76 1/77/77 32/78/78
f 39/79/79 32/80/80 34/81/81
f 13/82/82 10/83/83 9/84/84
f 5/85/85 11/86/86 10/87/87
f 5/88/88 10/89/89 7/90/90
f 10/91/91 11/92/92 9/93/93
f 12/94/94 13/95/95 9/96/96
f 6/97/97 8/98/98 13/99/99
f 6/100/100 13/101/101 12/102/102
f 21/103/103 22/104/104 19/105/105
f 7/106/106 10/107/107 13/108/108
f 7/109/109 13/110/110 8/111/111
f 24/112/112 23/113/113 19/114/114
f 19/115/115 22/116/116 25/117/117
f 19/118/118 25/119/119 24/120/120
f 19/121/121 23/122/122 20/123/123
f 19/124/124 20/125/125 21/126/126
f 4/127/127 14/128/128 21/129/129
f 4/130/130 21/131/131 20/132/132
f 14/133/133 17/134/134 22/135/135
f 14/136/136 22/137/137 21/138/138
f 18/139/139 16/140/140 23/141/141
f 18/142/142 23/143/143 24/144/144
f 15/145/145 18/146/146 24/147/147
f 15/148/148 24/149/149 25/150/150
f 16/151/151 4/152/152 20/153/153
f 16/154/154 20/155/155 23/156/156
f 17/157/157 15/158/158 25/159/159
f 17/160/160 25/161/161 22/162/162
