v -0.916876 5.708927 1.011970
v -2.608601 4.509747 4.405974
v 0.916876 5.708927 1.011970
v 4.240615 2.856603 -9.170847
v 1.545612 4.510049 3.601486
v 4.240615 4.525679 -2.342415
v 5.968993 3.277766 -0.953440
v 4.239931 5.620443 -3.572642
v -2.602959 4.520532 8.684213
v 5.968993 2.075263 2.415920
v 1.099005 2.833000 11.754992
v -1.099005 2.833000 11.754992
v -1.099005 4.534231 11.748353
v 1.099005 4.534231 11.748353
v 4.240616 1.629718 2.415919
v -1.548444 0.735609 5.682687
v 1.548444 0.735609 5.682687
v 5.968993 3.278021 0.654012
v -2.608601 2.834206 8.682696
v 2.608601 2.834206 8.682696
v 2.602959 4.520532 8.684213
v 2.608601 4.509747 4.405974
v 1.548351 0.735496 7.367997
v 5.968993 2.463788 -3.569466
v -1.092488 6.759028 8.680796
v 1.092488 6.759028 8.680796
v -1.548351 0.735496 7.367997
v -1.092822 7.709420 5.677038
v -1.092154 7.716877 7.370161
v 1.092156 7.709425 5.678035
v 1.092823 7.716881 7.371159
v -2.595054 5.807323 7.370057
v -2.599696 5.806742 5.677515
v 2.595020 5.806830 7.370000
v 2.599663 5.807165 5.677456
v -1.545612 4.510049 3.601486
v 5.968993 4.117444 -5.794506
v 1.553345 7.365749 -5.785951
v 0.000000 3.052960 -7.597012
v -1.553346 7.365749 -5.785951
v 1.551121 4.517387 -5.790939
v -1.552234 4.507167 -9.905262
v 1.552233 4.507167 -9.905262
v -1.551122 4.517387 -5.790939
v -0.000000 4.507167 -10.673317
v -0.000000 7.365749 -6.554004
v 0.000000 3.961578 -8.626348
v 0.000000 2.644302 -5.776017
v -4.240615 4.525445 -9.188956
v -4.208239 2.824511 -5.812663
v -4.240616 4.521490 5.631064
v -4.240616 1.613010 5.619004
v -5.054349 4.525445 -9.188956
v -5.054349 2.856603 -9.170847
v -5.617605 5.375812 -3.565577
v -4.239931 5.618986 -5.796019
v -4.208215 2.832360 -3.558016
v -5.617605 5.376063 -5.801560
v 5.968993 2.081630 5.619206
v -5.968993 4.084621 5.615589
v -4.239931 5.620442 -3.572643
v 5.968993 4.113842 -2.330518
v -4.240616 1.629718 2.415919
v -4.240615 2.856603 -9.170847
v -5.968993 3.277766 -0.953441
v -5.968993 3.278021 0.654012
v -5.968993 2.075263 2.415920
v -5.968993 2.463788 -3.569466
v -4.240615 4.525678 -2.342415
v -5.968993 4.117444 -5.794507
v -5.968993 2.463683 -5.799983
v -5.968993 2.081630 5.619206
v -5.968993 4.113842 -2.330519
v 4.240615 4.525445 -9.188956
v 4.208239 2.824511 -5.812663
v 4.240616 4.521490 5.631064
v 4.240616 1.613010 5.619004
v 5.054349 4.525445 -9.188956
v 5.054349 2.856603 -9.170847
v 5.617605 5.375813 -3.565577
v 4.239931 5.618986 -5.796019
v 4.208215 2.832360 -3.558016
v 5.617605 5.376063 -5.801559
v 5.968993 2.463684 -5.799982
v 5.968993 4.084621 5.615589
vt 0.263119 0.266965
vt 0.108066 0.265458
vt 0.107425 0.112545
vt 0.263119 0.266965
vt 0.107425 0.112545
vt 0.263775 0.114959
vt 0.985929 0.323003
vt 0.925210 0.138769
vt 0.939533 0.138769
vt 0.985929 0.323003
vt 0.939533 0.138769
vt 0.996871 0.323206
vt 0.909347 0.995632
vt 0.908059 0.532591
vt 0.931014 0.531710
vt 0.909347 0.995632
vt 0.931014 0.531710
vt 0.934492 0.994752
vt 0.377387 0.552630
vt 0.216363 0.552630
vt 0.183444 0.408864
vt 0.377387 0.552630
vt 0.183444 0.408864
vt 0.410306 0.408864
vt 0.934492 0.994752
vt 0.931014 0.531710
vt 0.908059 0.532591
vt 0.934492 0.994752
vt 0.908059 0.532591
vt 0.909347 0.995632
vt 0.147759 0.387369
vt 0.147067 0.412547
vt 0.122077 0.422963
vt 0.147759 0.387369
vt 0.122077 0.422963
vt 0.117561 0.406900
vt 0.792363 0.462232
vt 0.791699 0.322071
vt 0.815747 0.321876
vt 0.792363 0.462232
vt 0.815747 0.321876
vt 0.815489 0.462034
vt 0.996871 0.323206
vt 0.939533 0.138769
vt 0.925210 0.138769
vt 0.996871 0.323206
vt 0.925210 0.138769
vt 0.985929 0.323003
vt 0.985929 0.323003
vt 0.906648 0.322706
vt 0.925210 0.138769
vt 0.101222 0.864769
vt 0.101033 0.642148
vt 0.010064 0.641967
vt 0.825545 0.557809
vt 0.792363 0.462232
vt 0.815489 0.462034
vt 0.825545 0.557809
vt 0.815489 0.462034
vt 0.845486 0.558574
vt 0.825545 0.557809
vt 0.845486 0.558574
vt 0.848006 0.731408
vt 0.825545 0.557809
vt 0.848006 0.731408
vt 0.796614 0.806874
vt 0.187434 0.411614
vt 0.398538 0.411614
vt 0.398802 0.546950
vt 0.187434 0.411614
vt 0.398802 0.546950
vt 0.188078 0.546950
vt 0.815747 0.321876
vt 0.906648 0.322706
vt 0.925210 0.138769
vt 0.815747 0.321876
vt 0.925210 0.138769
vt 0.839991 0.138002
vt 0.845486 0.558574
vt 0.848006 0.731408
vt 0.909347 0.995632
vt 0.845486 0.558574
vt 0.909347 0.995632
vt 0.908059 0.532591
vt 0.108066 0.265458
vt 0.263119 0.266965
vt 0.107946 0.371376
vt 0.183444 0.408864
vt 0.216363 0.552630
vt 0.105771 0.552713
vt 0.108208 0.007905
vt 0.263775 0.114959
vt 0.107425 0.112545
vt 0.001222 0.310321
vt 0.001222 0.310321
vt -0.000000 0.726758
vt 0.001222 0.310321
vt -0.000000 0.726758
vt -0.000000 0.726758
vt 0.196751 0.009591
vt 0.331651 0.115780
vt 0.263775 0.114959
vt 0.908059 0.532591
vt 0.986956 0.453059
vt 0.985929 0.323003
vt 0.908059 0.532591
vt 0.985929 0.323003
vt 0.906648 0.322706
vt 0.147759 0.387369
vt 0.147067 0.412547
vt 0.122077 0.422963
vt 0.147759 0.387369
vt 0.122077 0.422963
vt 0.117561 0.406900
vt 0.816584 0.683749
vt 0.721923 0.683486
vt 0.722430 0.599641
vt 0.816584 0.683749
vt 0.722430 0.599641
vt 0.817510 0.599992
vt 0.817510 0.599992
vt 0.722430 0.599641
vt 0.721923 0.683486
vt 0.817510 0.599992
vt 0.721923 0.683486
vt 0.816584 0.683749
vt 0.931014 0.531710
vt 0.996685 0.452536
vt 0.986956 0.453059
vt 0.931014 0.531710
vt 0.986956 0.453059
vt 0.908059 0.532591
vt 0.263119 0.266965
vt 0.263775 0.114959
vt 0.331651 0.115780
vt 0.263119 0.266965
vt 0.331651 0.115780
vt 0.330995 0.267786
vt 0.263775 0.114959
vt 0.108208 0.007905
vt 0.196751 0.009591
vt 0.263119 0.266965
vt 0.330995 0.267786
vt 0.195228 0.370658
vt 0.985929 0.323003
vt 0.986956 0.453059
vt 0.996685 0.452536
vt 0.985929 0.323003
vt 0.996685 0.452536
vt 0.996871 0.323206
vt 0.839991 0.138002
vt 0.839991 0.138002
vt 0.791699 0.322071
vt 0.839991 0.138002
vt 0.791699 0.322071
vt 0.815747 0.321876
vt 0.925210 0.138769
vt 0.906648 0.322706
vt 0.985929 0.323003
vt 0.796614 0.806874
vt 0.848006 0.731408
vt 0.845486 0.558574
vt 0.796614 0.806874
vt 0.845486 0.558574
vt 0.815489 0.462034
vt 0.796614 0.806874
vt 0.815489 0.462034
vt 0.792363 0.462232
vt 0.796614 0.806874
vt 0.792363 0.462232
vt 0.825545 0.557809
vt -0.000000 0.726758
vt -0.000000 0.726758
vt 0.001222 0.310321
vt -0.000000 0.726758
vt 0.001222 0.310321
vt 0.001222 0.310321
vt 0.815489 0.462034
vt 0.815747 0.321876
vt 0.791699 0.322071
vt 0.815489 0.462034
vt 0.791699 0.322071
vt 0.792363 0.462232
vt 0.101033 0.642148
vt 0.010064 0.641967
vt 0.101222 0.864769
vt 0.722430 0.599641
vt 0.675699 0.510048
vt 0.817854 0.599959
vt 0.817854 0.599959
vt 0.675699 0.510048
vt 0.722430 0.599641
vt 0.908059 0.532591
vt 0.906648 0.322706
vt 0.815747 0.321876
vt 0.908059 0.532591
vt 0.815747 0.321876
vt 0.815489 0.462034
vt 0.908059 0.532591
vt 0.815489 0.462034
vt 0.845486 0.558574
vt 0.487979 0.552713
vt 0.377387 0.552630
vt 0.409190 0.410538
vt 0.675699 0.510048
vt 0.733628 0.402115
vt 0.817854 0.599959
vt 0.733628 0.402115
vt 0.675699 0.510048
vt 0.817854 0.599959
vt 0.195228 0.370658
vt 0.107946 0.371376
vt 0.263119 0.266965
vt 0.363202 0.792751
vt 0.492926 0.842639
vt 0.492192 0.942727
vt 0.363202 0.792751
vt 0.492192 0.942727
vt 0.362618 0.988290
vt 0.828969 0.491252
vt 0.982445 0.490912
vt 0.985519 0.799176
vt 0.828969 0.491252
vt 0.985519 0.799176
vt 0.828068 0.804598
vt 0.363202 0.792751
vt 0.362618 0.988290
vt 0.492192 0.942727
vt 0.363202 0.792751
vt 0.492192 0.942727
vt 0.492926 0.842639
vt 0.771552 0.994662
vt 0.771774 0.807086
vt 0.796614 0.806874
vt 0.771552 0.994662
vt 0.796614 0.806874
vt 0.797679 0.994450
vt 0.585136 0.991398
vt 0.361818 0.990822
vt 0.515955 0.886029
vt 0.460084 0.885904
vt 0.515955 0.886029
vt 0.361818 0.990822
vt 0.909347 0.995632
vt 0.797679 0.994450
vt 0.796614 0.806874
vt 0.909347 0.995632
vt 0.796614 0.806874
vt 0.848006 0.731408
vt 0.815747 0.321876
vt 0.791699 0.322071
vt 0.839991 0.138002
vt 0.815747 0.321876
vt 0.839991 0.138002
vt 0.839991 0.138002
vt 0.839991 0.138002
vt 0.925210 0.138769
vt 0.906648 0.322706
vt 0.839991 0.138002
vt 0.906648 0.322706
vt 0.815747 0.321876
vt 0.627060 0.886278
vt 0.585607 0.780971
vt 0.362019 0.780394
vt 0.627060 0.886278
vt 0.362019 0.780394
vt 0.403472 0.885777
vt 0.908059 0.532591
vt 0.909347 0.995632
vt 0.848006 0.731408
vt 0.908059 0.532591
vt 0.848006 0.731408
vt 0.845486 0.558574
vt 0.906648 0.322706
vt 0.985929 0.323003
vt 0.986956 0.453059
vt 0.906648 0.322706
vt 0.986956 0.453059
vt 0.908059 0.532591
vt 0.515955 0.886029
vt 0.362290 0.780546
vt 0.585607 0.780971
vt 0.627060 0.886278
vt 0.585136 0.991398
vt 0.515955 0.886029
vt 0.362290 0.780546
vt 0.515955 0.886029
vt 0.460084 0.885904
vt 0.460084 0.885904
vt 0.361244 0.885682
vt 0.362290 0.780546
vt 0.515955 0.886029
vt 0.585607 0.780971
vt 0.627060 0.886278
vt 0.403472 0.885777
vt 0.361547 0.990973
vt 0.585136 0.991398
vt 0.403472 0.885777
vt 0.585136 0.991398
vt 0.627060 0.886278
vt 0.845486 0.558574
vt 0.815489 0.462034
vt 0.815747 0.321876
vt 0.845486 0.558574
vt 0.815747 0.321876
vt 0.906648 0.322706
vt 0.845486 0.558574
vt 0.906648 0.322706
vt 0.908059 0.532591
vt 0.908059 0.532591
vt 0.986956 0.453059
vt 0.996685 0.452536
vt 0.908059 0.532591
vt 0.996685 0.452536
vt 0.931014 0.531710
vt 0.361818 0.990822
vt 0.361244 0.885682
vt 0.460084 0.885904
vt 0.996871 0.323206
vt 0.996685 0.452536
vt 0.986956 0.453059
vt 0.996871 0.323206
vt 0.986956 0.453059
vt 0.985929 0.323003
vt 0.848006 0.731408
vt 0.796614 0.806874
vt 0.797679 0.994450
vt 0.848006 0.731408
vt 0.797679 0.994450
vt 0.909347 0.995632
vt 0.797679 0.994450
vt 0.796614 0.806874
vt 0.771774 0.807086
vt 0.797679 0.994450
vt 0.771774 0.807086
vt 0.771552 0.994662
vn -0.482372 0.695756 0.532204
vn -0.424183 0.733499 0.531081
vn 0.424183 0.733499 0.531081
vn -0.482372 0.695756 0.532204
vn 0.424183 0.733499 0.531081
vn 0.482395 0.695695 0.532263
vn 0.141131 0.979647 -0.142734
vn 0.104997 0.953609 -0.282145
vn 0.104997 0.953609 -0.282145
vn 0.141131 0.979647 -0.142734
vn 0.104997 0.953609 -0.282145
vn 0.141131 0.979647 -0.142734
vn 0.238441 0.971155 0.002038
vn 0.207713 0.909052 0.361219
vn 0.207713 0.909052 0.361219
vn 0.238441 0.971155 0.002038
vn 0.207713 0.909052 0.361219
vn 0.238441 0.971155 0.002038
vn 0.394971 -0.812433 0.428895
vn -0.394971 -0.812433 0.428895
vn -0.267405 -0.918800 0.290348
vn 0.394971 -0.812433 0.428895
vn -0.267405 -0.918800 0.290348
vn 0.267405 -0.918800 0.290348
vn -0.238441 0.971155 0.002038
vn -0.207713 0.909052 0.361219
vn -0.207713 0.909052 0.361219
vn -0.238441 0.971155 0.002038
vn -0.207713 0.909052 0.361219
vn -0.238441 0.971155 0.002038
vn 0.000097 0.919076 -0.394080
vn 0.000097 0.919076 -0.394080
vn -0.566244 0.777128 -0.274662
vn 0.000097 0.919076 -0.394080
vn -0.566244 0.777128 -0.274662
vn 0.566149 0.777190 -0.274683
vn 0.085226 -0.994349 -0.063298
vn -0.170770 -0.985080 -0.021318
vn -0.170770 -0.985080 -0.021318
vn 0.085226 -0.994349 -0.063298
vn -0.170770 -0.985080 -0.021318
vn 0.085226 -0.994349 -0.063298
vn -0.141130 0.979648 -0.142734
vn -0.104996 0.953609 -0.282145
vn -0.104996 0.953609 -0.282145
vn -0.141130 0.979648 -0.142734
vn -0.104996 0.953609 -0.282145
vn -0.141130 0.979648 -0.142734
vn 0.957359 0.266520 -0.111494
vn 0.983299 0.134405 -0.122713
vn 0.960956 0.131198 -0.243619
vn -0.661318 0.608306 -0.438888
vn -0.732352 0.472801 -0.490021
vn -0.474620 0.617850 -0.626895
vn 0.085226 -0.994349 -0.063298
vn 0.085226 -0.994349 -0.063298
vn 0.365822 -0.922548 -0.122798
vn 0.085226 -0.994349 -0.063298
vn 0.365822 -0.922548 -0.122798
vn 0.365822 -0.922548 -0.122798
vn 0.085226 -0.994349 -0.063298
vn 0.365822 -0.922548 -0.122798
vn 0.311869 -0.948073 -0.062404
vn 0.085226 -0.994349 -0.063298
vn 0.311869 -0.948073 -0.062404
vn 0.311869 -0.948073 -0.062404
vn 0.267405 -0.918800 0.290348
vn -0.267405 -0.918800 0.290348
vn -0.092107 -0.858270 -0.504866
vn 0.267405 -0.918800 0.290348
vn -0.092107 -0.858270 -0.504866
vn 0.000000 -0.922537 -0.385908
vn -0.991288 -0.000501 -0.131711
vn -0.983299 0.134405 -0.122713
vn -0.960956 0.131198 -0.243619
vn -0.991288 -0.000501 -0.131711
vn -0.960956 0.131198 -0.243619
vn -0.965304 -0.000993 -0.261128
vn -1.000000 -0.000000 -0.000000
vn -1.000000 -0.000000 -0.000000
vn -1.000000 -0.000000 -0.000000
vn -1.000000 -0.000000 -0.000000
vn -1.000000 -0.000000 -0.000000
vn -0.995915 0.090292 0.000061
vn -0.424183 0.733499 0.531081
vn -0.482372 0.695756 0.532204
vn -0.749362 0.506299 0.426753
vn -0.267405 -0.918800 0.290348
vn -0.394971 -0.812433 0.428895
vn -0.725142 -0.589391 0.356073
vn 0.749397 0.506322 0.426664
vn 0.482395 0.695695 0.532263
vn 0.424183 0.733499 0.531081
vn 0.000000 -0.010851 -0.999941
vn 0.000000 -0.010851 -0.999941
vn 0.000000 -0.010851 -0.999941
vn 0.000000 -0.010851 -0.999941
vn 0.000000 -0.010851 -0.999941
vn 0.000000 -0.010851 -0.999941
vn 0.761750 0.572271 0.303717
vn 0.429962 0.856449 0.285706
vn 0.482395 0.695695 0.532263
vn -0.995915 0.090292 0.000061
vn -0.963237 0.268653 0.000182
vn -0.957359 0.266520 -0.111494
vn -0.995915 0.090292 0.000061
vn -0.957359 0.266520 -0.111494
vn -0.983299 0.134405 -0.122713
vn 0.429962 0.856449 0.285706
vn 0.566149 0.777190 -0.274683
vn -0.566244 0.777128 -0.274662
vn 0.429962 0.856449 0.285706
vn -0.566244 0.777128 -0.274662
vn -0.429931 0.856493 0.285620
vn 0.661192 0.608361 -0.439001
vn 0.566149 0.777190 -0.274683
vn 0.429962 0.856449 0.285706
vn 0.661192 0.608361 -0.439001
vn 0.429962 0.856449 0.285706
vn 0.761750 0.572271 0.303717
vn -0.761643 0.572417 0.303709
vn -0.429931 0.856493 0.285620
vn -0.566244 0.777128 -0.274662
vn -0.761643 0.572417 0.303709
vn -0.566244 0.777128 -0.274662
vn -0.661318 0.608306 -0.438888
vn -0.207713 0.909052 0.361219
vn -0.173377 0.916654 0.360119
vn -0.173377 0.916654 0.360119
vn -0.207713 0.909052 0.361219
vn -0.173377 0.916654 0.360119
vn -0.207713 0.909052 0.361219
vn -0.482372 0.695756 0.532204
vn 0.482395 0.695695 0.532263
vn 0.429962 0.856449 0.285706
vn -0.482372 0.695756 0.532204
vn 0.429962 0.856449 0.285706
vn -0.429931 0.856493 0.285620
vn 0.482395 0.695695 0.532263
vn 0.749397 0.506322 0.426664
vn 0.761750 0.572271 0.303717
vn -0.482372 0.695756 0.532204
vn -0.429931 0.856493 0.285620
vn -0.761643 0.572417 0.303709
vn -0.141130 0.979648 -0.142734
vn -0.173377 0.916654 0.360119
vn -0.173377 0.916654 0.360119
vn -0.141130 0.979648 -0.142734
vn -0.173377 0.916654 0.360119
vn -0.141130 0.979648 -0.142734
vn 0.138448 -0.989377 -0.044337
vn 0.138448 -0.989377 -0.044337
vn 0.170771 -0.985080 -0.021318
vn 0.138448 -0.989377 -0.044337
vn 0.170771 -0.985080 -0.021318
vn 0.170771 -0.985080 -0.021318
vn -0.960956 0.131198 -0.243619
vn -0.983299 0.134405 -0.122713
vn -0.957359 0.266520 -0.111494
vn -0.311869 -0.948074 -0.062404
vn -0.365822 -0.922548 -0.122798
vn -0.365822 -0.922548 -0.122798
vn -0.311869 -0.948074 -0.062404
vn -0.365822 -0.922548 -0.122798
vn -0.085226 -0.994349 -0.063298
vn -0.311869 -0.948074 -0.062404
vn -0.085226 -0.994349 -0.063298
vn -0.085226 -0.994349 -0.063298
vn -0.311869 -0.948074 -0.062404
vn -0.085226 -0.994349 -0.063298
vn -0.311869 -0.948074 -0.062404
vn 0.000000 -0.010851 -0.999941
vn 0.000000 -0.010851 -0.999941
vn 0.000000 -0.010851 -0.999941
vn 0.000000 -0.010851 -0.999941
vn 0.000000 -0.010851 -0.999941
vn 0.000000 -0.010851 -0.999941
vn -0.085226 -0.994349 -0.063298
vn 0.170771 -0.985080 -0.021318
vn 0.170771 -0.985080 -0.021318
vn -0.085226 -0.994349 -0.063298
vn 0.170771 -0.985080 -0.021318
vn -0.085226 -0.994349 -0.063298
vn 0.661192 0.608361 -0.439001
vn 0.474684 0.617715 -0.626979
vn 0.732230 0.472943 -0.490066
vn -0.732352 0.472801 -0.490021
vn -0.661318 0.608306 -0.438888
vn -0.566244 0.777128 -0.274662
vn 0.566149 0.777190 -0.274683
vn 0.661192 0.608361 -0.439001
vn 0.732230 0.472943 -0.490066
vn -0.995915 0.090292 0.000061
vn -0.983299 0.134405 -0.122713
vn -0.991288 -0.000501 -0.131711
vn -0.995915 0.090292 0.000061
vn -0.991288 -0.000501 -0.131711
vn -1.000000 -0.000000 0.000000
vn -0.995915 0.090292 0.000061
vn -1.000000 -0.000000 0.000000
vn -1.000000 -0.000000 -0.000000
vn 0.725142 -0.589391 0.356073
vn 0.394971 -0.812433 0.428895
vn 0.267405 -0.918800 0.290348
vn 0.732230 0.472943 -0.490066
vn 0.966043 0.222345 -0.131616
vn 0.566149 0.777190 -0.274683
vn -0.966072 0.222166 -0.131706
vn -0.732352 0.472801 -0.490021
vn -0.566244 0.777128 -0.274662
vn -0.761643 0.572417 0.303709
vn -0.749362 0.506299 0.426753
vn -0.482372 0.695756 0.532204
vn 0.000000 1.000000 0.000393
vn 0.000000 1.000000 0.000393
vn 0.000000 1.000000 0.000393
vn 0.000000 1.000000 0.000393
vn 0.000000 1.000000 0.000393
vn 0.000000 1.000000 0.000393
vn 0.000000 -0.000899 1.000000
vn 0.000000 -0.000899 1.000000
vn 0.000000 -0.000899 1.000000
vn 0.000000 -0.000899 1.000000
vn 0.000000 -0.000899 1.000000
vn 0.000000 -0.000899 1.000000
vn 0.000000 -0.999990 0.004471
vn 0.000000 -0.999990 0.004471
vn 0.000000 -0.999990 0.004471
vn 0.000000 -0.999990 0.004471
vn 0.000000 -0.999990 0.004471
vn 0.000000 -0.999990 0.004471
vn 0.255668 -0.966763 -0.001560
vn 0.311869 -0.948073 -0.062404
vn 0.311869 -0.948073 -0.062404
vn 0.255668 -0.966763 -0.001560
vn 0.311869 -0.948073 -0.062404
vn 0.255668 -0.966763 -0.001560
vn 0.233112 -0.963950 -0.128293
vn 0.682647 -0.707962 -0.181062
vn 0.000000 -0.965736 -0.259528
vn 0.805388 -0.532860 -0.259635
vn 0.000000 -0.965736 -0.259528
vn 0.682647 -0.707962 -0.181062
vn 1.000000 -0.000000 -0.000000
vn 1.000000 0.000000 0.000000
vn 1.000000 0.000000 0.000000
vn 1.000000 -0.000000 -0.000000
vn 1.000000 0.000000 0.000000
vn 1.000000 -0.000000 -0.000000
vn -0.170770 -0.985080 -0.021318
vn -0.170770 -0.985080 -0.021318
vn -0.138448 -0.989377 -0.044337
vn -0.170770 -0.985080 -0.021318
vn -0.138448 -0.989377 -0.044337
vn -0.138448 -0.989377 -0.044337
vn 0.965304 -0.000993 -0.261128
vn 0.960956 0.131198 -0.243619
vn 0.983299 0.134405 -0.122713
vn 0.965304 -0.000993 -0.261128
vn 0.983299 0.134405 -0.122713
vn 0.991288 -0.000501 -0.131711
vn -0.000000 0.821544 -0.570145
vn -0.271424 0.790703 -0.548742
vn -0.271424 0.790703 -0.548742
vn -0.000000 0.821544 -0.570145
vn -0.271424 0.790703 -0.548742
vn -0.000000 0.821544 -0.570145
vn 0.995915 0.090292 0.000061
vn 1.000000 -0.000000 -0.000000
vn 1.000000 -0.000000 -0.000000
vn 0.995915 0.090292 0.000061
vn 1.000000 -0.000000 -0.000000
vn 1.000000 -0.000000 -0.000000
vn 0.983299 0.134405 -0.122713
vn 0.957359 0.266520 -0.111494
vn 0.963237 0.268653 0.000181
vn 0.983299 0.134405 -0.122713
vn 0.963237 0.268653 0.000181
vn 0.995915 0.090292 0.000061
vn 0.000000 -0.965736 -0.259528
vn -0.682647 -0.707962 -0.181062
vn -0.233112 -0.963950 -0.128293
vn 0.000000 -0.966267 -0.257544
vn 0.233112 -0.963950 -0.128293
vn 0.000000 -0.965736 -0.259528
vn -0.682647 -0.707962 -0.181062
vn 0.000000 -0.965736 -0.259528
vn -0.805388 -0.532860 -0.259635
vn -0.805388 -0.532860 -0.259635
vn -0.761854 -0.632029 -0.141836
vn -0.682647 -0.707962 -0.181062
vn 0.000000 -0.965736 -0.259528
vn -0.233112 -0.963950 -0.128293
vn 0.000000 -0.966267 -0.257544
vn -0.000000 0.821544 -0.570145
vn 0.271424 0.790703 -0.548742
vn 0.271424 0.790703 -0.548742
vn -0.000000 0.821544 -0.570145
vn 0.271424 0.790703 -0.548742
vn -0.000000 0.821544 -0.570145
vn 1.000000 -0.000000 -0.000000
vn 1.000000 -0.000000 0.000000
vn 0.991288 -0.000501 -0.131711
vn 1.000000 -0.000000 -0.000000
vn 0.991288 -0.000501 -0.131711
vn 0.983299 0.134405 -0.122713
vn 1.000000 -0.000000 -0.000000
vn 0.983299 0.134405 -0.122713
vn 0.995915 0.090292 0.000061
vn 0.207713 0.909052 0.361219
vn 0.173377 0.916654 0.360119
vn 0.173377 0.916654 0.360119
vn 0.207713 0.909052 0.361219
vn 0.173377 0.916654 0.360119
vn 0.207713 0.909052 0.361219
vn 0.682647 -0.707962 -0.181062
vn 0.761854 -0.632029 -0.141836
vn 0.805388 -0.532860 -0.259635
vn 0.141131 0.979647 -0.142734
vn 0.173377 0.916654 0.360119
vn 0.173377 0.916654 0.360119
vn 0.141131 0.979647 -0.142734
vn 0.173377 0.916654 0.360119
vn 0.141131 0.979647 -0.142734
vn -1.000000 -0.000000 -0.000000
vn -1.000000 0.000000 0.000000
vn -1.000000 0.000000 0.000000
vn -1.000000 -0.000000 -0.000000
vn -1.000000 0.000000 0.000000
vn -1.000000 -0.000000 -0.000000
vn -0.255668 -0.966763 -0.001560
vn -0.311869 -0.948074 -0.062404
vn -0.311869 -0.948074 -0.062404
vn -0.255668 -0.966763 -0.001560
vn -0.311869 -0.948074 -0.062404
vn -0.255668 -0.966763 -0.001560
f 25/1/1 13/2/2 14/3/3
f 25/4/4 14/5/5 26/6/6
f 83/7/7 78/8/8 74/9/9
f 83/10/10 74/11/11 81/12/12
f 85/13/13 62/14/14 6/15/15
f 85/16/16 6/17/17 76/18/18
f 11/19/19 12/20/20 27/21/21
f 11/22/22 27/23/23 23/24/24
f 51/25/25 69/26/26 73/27/27
f 51/28/28 73/29/29 60/30/30
f 3/31/31 1/32/32 28/33/33
f 3/34/34 28/35/35 30/36/36
f 82/37/37 75/38/38 84/39/39
f 82/40/40 84/41/41 24/42/42
f 56/43/43 49/44/44 53/45/45
f 56/46/46 53/47/47 58/48/48
f 83/49/49 37/50/50 78/51/51
f 33/52/52 36/53/53 2/54/54
f 82/55/55 24/56/56 7/57/57
f 82/58/58 7/59/59 18/60/60
f 82/61/61 18/62/62 10/63/63
f 82/64/64 10/65/65 15/66/66
f 23/67/67 27/68/68 16/69/69
f 23/70/70 16/71/71 17/72/72
f 71/73/73 70/74/74 53/75/75
f 71/76/76 53/77/77 54/78/78
f 65/79/79 66/80/80 60/81/81
f 65/82/82 60/83/83 73/84/84
f 13/85/85 25/86/86 9/87/87
f 27/88/88 12/89/89 19/90/90
f 21/91/91 26/92/92 14/93/93
f 79/94/94 4/95/95 74/96/96
f 79/97/97 74/98/98 78/99/99
f 34/100/100 31/101/101 26/102/102
f 73/103/103 55/104/104 58/105/105
f 73/106/106 58/107/107 70/108/108
f 31/109/109 30/110/110 28/111/111
f 31/112/112 28/113/113 29/114/114
f 35/115/115 30/116/116 31/117/117
f 35/118/118 31/119/119 34/120/120
f 32/121/121 29/122/122 28/123/123
f 32/124/124 28/125/125 33/126/126
f 69/127/127 61/128/128 55/129/129
f 69/130/130 55/131/131 73/132/132
f 25/133/133 26/134/134 31/135/135
f 25/136/136 31/137/137 29/138/138
f 26/139/139 21/140/140 34/141/141
f 25/142/142 29/143/143 32/144/144
f 58/145/145 55/146/146 61/147/147
f 58/148/148 61/149/149 56/150/150
f 54/151/151 64/152/152 50/153/153
f 54/154/154 50/155/155 71/156/156
f 53/157/157 70/158/158 58/159/159
f 67/160/160 66/161/161 65/162/162
f 67/163/163 65/164/164 68/165/165
f 67/166/166 68/167/167 57/168/168
f 67/169/169 57/170/170 63/171/171
f 53/172/172 49/173/173 64/174/174
f 53/175/175 64/176/176 54/177/177
f 68/178/178 71/179/179 50/180/180
f 68/181/181 50/182/182 57/183/183
f 35/184/184 22/185/185 5/186/186
f 36/187/187 33/188/188 28/189/189
f 30/190/190 35/191/191 5/192/192
f 73/193/193 70/194/194 71/195/195
f 73/196/196 71/197/197 68/198/198
f 73/199/199 68/200/200 65/201/201
f 20/202/202 11/203/203 23/204/204
f 5/205/205 3/206/206 30/207/207
f 1/208/208 36/209/209 28/210/210
f 32/211/211 9/212/212 25/213/213
f 19/214/214 12/215/215 11/216/216
f 19/217/217 11/218/218 20/219/219
f 20/220/220 21/221/221 9/222/222
f 20/223/223 9/224/224 19/225/225
f 9/226/226 21/227/227 14/228/228
f 9/229/229 14/230/230 13/231/231
f 77/232/232 15/233/233 10/234/234
f 77/235/235 10/236/236 59/237/237
f 43/238/238 41/239/239 47/240/240
f 39/241/241 47/242/242 41/243/243
f 85/244/244 59/245/245 10/246/246
f 85/247/247 10/248/248 18/249/249
f 84/250/250 75/251/251 4/252/252
f 84/253/253 4/254/254 79/255/255
f 79/256/256 78/257/257 37/258/258
f 79/259/259 37/260/260 84/261/261
f 45/262/262 42/263/263 40/264/264
f 45/265/265 40/266/266 46/267/267
f 62/268/268 85/269/269 18/270/270
f 62/271/271 18/272/272 7/273/273
f 37/274/274 83/275/275 80/276/276
f 37/277/277 80/278/278 62/279/279
f 47/280/280 44/281/281 42/282/282
f 45/283/283 43/284/284 47/285/285
f 44/286/286 47/287/287 39/288/288
f 39/289/289 48/290/290 44/291/291
f 47/292/292 42/293/293 45/294/294
f 46/295/295 38/296/296 43/297/297
f 46/298/298 43/299/299 45/300/300
f 7/301/301 24/302/302 84/303/303
f 7/304/304 84/305/305 37/306/306
f 7/307/307 37/308/308 62/309/309
f 62/310/310 80/311/311 8/312/312
f 62/313/313 8/314/314 6/315/315
f 41/316/316 48/317/317 39/318/318
f 81/319/319 8/320/320 80/321/321
f 81/322/322 80/323/323 83/324/324
f 66/325/325 67/326/326 72/327/327
f 66/328/328 72/329/329 60/330/330
f 72/331/331 67/332/332 63/333/333
f 72/334/334 63/335/335 52/336/336
