v 1.560335 0.980661 4.604007
v 1.567453 -1.011699 -8.966271
v 1.541046 -2.663965 -2.678622
v -1.541046 -2.663965 -2.678622
v -1.550058 -2.669534 4.602361
v 2.880267 1.764639 -2.622491
v 4.208239 -1.017165 -4.881650
v -2.882335 0.970573 -1.412854
v -1.542275 0.966328 0.544686
v 2.613876 1.962528 8.303521
v -4.199966 0.675599 6.613102
v -4.208215 -1.009326 -2.627003
v -1.559414 0.980234 4.599763
v 4.208215 -1.009326 -2.627003
v 2.617429 -1.014432 -8.277650
v 2.882323 0.970587 -1.412900
v -4.208239 -1.017165 -4.881650
v 2.879531 1.770169 -4.870952
v -2.614366 -2.316787 6.613966
v -2.614280 -1.263716 -2.678853
v 2.614280 -1.263716 -2.678853
v -2.611271 1.961674 8.295033
v 4.199187 0.677548 8.299504
v -2.611271 1.961674 6.609987
v -4.199187 0.677548 8.299504
v -2.617993 0.678098 -8.275127
v -2.617429 -1.014432 -8.277650
v -4.198096 -1.018216 6.618841
v 4.198041 -1.018426 6.615714
v 4.206151 1.766582 -2.627429
v -1.554972 3.526695 -4.867360
v 1.554972 3.526695 -4.867360
v -1.549744 0.681233 -8.968330
v -1.554383 3.511497 -2.617553
v 1.554383 3.511497 -2.617553
v 1.542059 0.966467 0.544229
v 2.613876 0.979683 5.388116
v -2.611325 0.978829 5.388655
v 1.541796 -1.263440 -4.886587
v -1.541796 -1.263440 -4.886587
v -1.567453 -1.011699 -8.966271
v 5.955514 -1.018744 8.299504
v -5.955514 -1.018744 8.299504
v 1.549744 0.681233 -8.968330
v -4.204090 1.762443 -4.874544
v 4.204090 1.762443 -4.874544
v -4.206151 1.766582 -2.627429
v -2.614830 -1.011525 9.606500
v 2.613876 1.962528 6.618475
v 2.617993 0.678098 -8.275127
v -2.614366 -2.316787 8.299011
v 4.199913 0.674813 6.612984
v 1.550058 -2.669534 4.602361
v -2.611325 0.676694 9.602520
v -2.614830 -1.263304 5.392634
v 2.616106 -1.262877 5.396878
v 2.616106 -1.011098 9.610744
v -2.880267 1.764639 -2.622491
v -4.205378 0.678664 -1.409713
v 2.613876 0.677548 9.611008
v 2.615613 -2.316359 6.618211
v 2.615613 -2.316359 8.303257
v -2.879531 1.770169 -4.870952
v 4.205371 0.678566 -1.409728
v 1.541421 -2.268197 -4.116096
v -1.541421 -2.268197 -4.116096
v -5.956624 0.271166 6.613102
v -3.707836 -2.316787 6.613966
v 5.955514 0.273115 8.299504
v -5.955514 0.273115 8.299504
v -5.953969 -1.018216 6.618841
v 5.953889 -1.018426 6.615714
v -3.708495 -1.011525 9.606500
v -3.707836 -2.316787 8.299011
v 5.956546 0.270381 6.612984
v -3.703523 0.676694 9.602520
v 3.710304 -1.011098 9.610744
v 3.707141 0.677548 9.611008
v 3.709605 -2.316359 6.618211
v 3.709605 -2.316359 8.303257
v 5.943047 -1.777692 6.616962
v 5.944046 -1.777852 7.529968
v -5.942007 -1.777801 6.616404
v -5.942957 -1.778065 7.527845
vt 0.910156 0.484375
vt 0.958984 0.519531
vt 0.984375 0.720703
vt 0.103303 0.669287
vt 0.101702 0.006032
vt 0.005931 0.006159
vt 0.103303 0.669287
vt 0.005931 0.006159
vt 0.004751 0.580450
vt 0.899611 0.327678
vt 0.899622 0.459517
vt 0.991009 0.459517
vt 0.899611 0.327678
vt 0.991009 0.459517
vt 0.991020 0.327678
vt 0.328308 0.016089
vt 0.328304 0.052356
vt 0.288890 0.052356
vt 0.328308 0.016089
vt 0.288890 0.052356
vt 0.288886 0.016089
vt 0.328308 0.016089
vt 0.328304 0.052356
vt 0.288890 0.052356
vt 0.328308 0.016089
vt 0.328304 0.052356
vt 0.288890 0.052356
vt 0.910156 0.484375
vt 0.910156 0.634766
vt 0.984375 0.720703
vt 0.241333 0.694473
vt 0.241306 0.772711
vt 0.762600 0.770280
vt 0.004751 0.580450
vt 0.005931 0.006159
vt 0.101702 0.006032
vt 0.004751 0.580450
vt 0.101702 0.006032
vt 0.103303 0.669287
vt 0.328308 0.016089
vt 0.328304 0.052356
vt 0.288890 0.052356
vt 0.328308 0.016089
vt 0.288890 0.052356
vt 0.288886 0.016089
vt 0.716853 0.001172
vt 0.670201 0.001025
vt 0.670114 0.056643
vt 0.716853 0.001172
vt 0.670114 0.056643
vt 0.716989 0.106308
vt 0.004751 0.580450
vt 0.004718 0.669469
vt 0.103303 0.669287
vt 0.328308 0.016089
vt 0.328304 0.052356
vt 0.288890 0.052356
vt 0.328308 0.016089
vt 0.328304 0.052356
vt 0.288890 0.052356
vt 0.328308 0.016089
vt 0.288890 0.052356
vt 0.288886 0.016089
vt 0.718750 0.695312
vt 0.768229 0.764323
vt 0.479167 0.694010
vt 0.243490 0.696615
vt 0.479167 0.694010
vt 0.360677 0.764323
vt 0.510077 0.243555
vt 0.604222 0.245349
vt 0.604220 0.402834
vt 0.510077 0.243555
vt 0.604220 0.402834
vt 0.511440 0.401020
vt 0.670201 0.001025
vt 0.716853 0.001172
vt 0.716989 0.106308
vt 0.670201 0.001025
vt 0.716989 0.106308
vt 0.670114 0.056643
vt 0.237907 0.777477
vt 0.763867 0.778708
vt 0.761891 0.998028
vt 0.237907 0.777477
vt 0.761891 0.998028
vt 0.235942 0.995521
vt 0.511440 0.401020
vt 0.604220 0.402834
vt 0.604222 0.245349
vt 0.511440 0.401020
vt 0.604222 0.245349
vt 0.510077 0.243555
vt 0.004718 0.792286
vt 0.004751 0.887584
vt 0.077646 0.887584
vt 0.004718 0.792286
vt 0.077646 0.887584
vt 0.077599 0.792286
vt 0.991020 0.327678
vt 0.991009 0.459517
vt 0.899622 0.459517
vt 0.991020 0.327678
vt 0.899622 0.459517
vt 0.899611 0.327678
vt 0.728708 0.105750
vt 0.728572 0.000056
vt 0.804129 0.001025
vt 0.728708 0.105750
vt 0.804129 0.001025
vt 0.804043 0.106308
vt 0.584391 0.984264
vt 0.676352 0.861061
vt 0.236903 0.780464
vt 0.584391 0.984264
vt 0.236903 0.780464
vt 0.242588 0.987492
vt 0.004718 0.792286
vt 0.004718 0.669469
vt 0.077599 0.669469
vt 0.004718 0.792286
vt 0.077599 0.669469
vt 0.077599 0.792286
vt 0.728572 0.000056
vt 0.728708 0.105750
vt 0.804043 0.106308
vt 0.728572 0.000056
vt 0.804043 0.106308
vt 0.804129 0.001025
vt 0.768229 0.764323
vt 0.718750 0.695312
vt 0.479167 0.694010
vt 0.510077 0.042383
vt 0.604222 0.245349
vt 0.510470 0.244631
vt 0.981163 0.095817
vt 0.980382 0.005973
vt 0.818480 0.005454
vt 0.981163 0.095817
vt 0.818480 0.005454
vt 0.817433 0.123438
vt 0.227220 0.792013
vt 0.077646 0.887584
vt 0.077599 0.792286
vt 0.227220 0.792013
vt 0.077599 0.792286
vt 0.226456 0.735924
vt 0.980382 0.005973
vt 0.981163 0.095817
vt 0.817433 0.123438
vt 0.980382 0.005973
vt 0.817433 0.123438
vt 0.818480 0.005454
vt 0.226390 0.669378
vt 0.077599 0.669469
vt 0.077599 0.792286
vt 0.226390 0.669378
vt 0.077599 0.792286
vt 0.226456 0.735924
vt 0.004751 0.580450
vt 0.005931 0.006159
vt 0.101702 0.006032
vt 0.004751 0.580450
vt 0.101702 0.006032
vt 0.103303 0.669287
vt 0.654886 0.602497
vt 0.655537 0.686174
vt 0.718289 0.687927
vt 0.654886 0.602497
vt 0.718289 0.687927
vt 0.718321 0.602874
vt 0.226456 0.735924
vt 0.077599 0.792286
vt 0.077599 0.669469
vt 0.226456 0.735924
vt 0.077599 0.669469
vt 0.226390 0.669378
vt 0.804688 0.595703
vt 0.710938 0.363281
vt 0.708984 0.593750
vt 0.804688 0.595703
vt 0.708984 0.593750
vt 0.710938 0.363281
vt 0.718321 0.602874
vt 0.718289 0.687927
vt 0.655537 0.686174
vt 0.718321 0.602874
vt 0.655537 0.686174
vt 0.654886 0.602497
vt 0.655351 0.182813
vt 0.616476 0.182798
vt 0.616918 0.108580
vt 0.004718 0.669469
vt 0.004718 0.792286
vt 0.077599 0.792286
vt 0.004718 0.669469
vt 0.077599 0.792286
vt 0.077599 0.669469
vt 0.077599 0.792286
vt 0.077646 0.887584
vt 0.227220 0.792013
vt 0.077599 0.792286
vt 0.227220 0.792013
vt 0.226456 0.735924
vt 0.984375 0.720703
vt 0.958984 0.519531
vt 0.910156 0.484375
vt 0.657161 0.095862
vt 0.658882 0.009959
vt 0.543571 0.008330
vt 0.657161 0.095862
vt 0.543571 0.008330
vt 0.543063 0.094414
vt 0.004751 0.887584
vt 0.004718 0.792286
vt 0.077599 0.792286
vt 0.004751 0.887584
vt 0.077599 0.792286
vt 0.077646 0.887584
vt 0.103303 0.669287
vt 0.101702 0.006032
vt 0.005931 0.006159
vt 0.103303 0.669287
vt 0.005931 0.006159
vt 0.004751 0.580450
vt 0.655351 0.182813
vt 0.616476 0.182798
vt 0.616918 0.108580
vt 0.804129 0.001025
vt 0.716853 0.001172
vt 0.716989 0.106308
vt 0.804129 0.001025
vt 0.716989 0.106308
vt 0.804043 0.106308
vt 0.716989 0.106308
vt 0.716853 0.001172
vt 0.804129 0.001025
vt 0.716989 0.106308
vt 0.804129 0.001025
vt 0.804043 0.106308
vt 0.241333 0.694473
vt 0.762600 0.770280
vt 0.817143 0.694606
vt 0.328308 0.016089
vt 0.328304 0.052356
vt 0.288890 0.052356
vt 0.762600 0.770280
vt 0.241306 0.772711
vt 0.241333 0.694473
vt 0.817143 0.694606
vt 0.762600 0.770280
vt 0.241333 0.694473
vt 0.513744 0.433332
vt 0.622991 0.433307
vt 0.623661 0.652947
vt 0.513744 0.433332
vt 0.623661 0.652947
vt 0.514091 0.652717
vt 0.511440 0.401020
vt 0.604220 0.402834
vt 0.604222 0.245349
vt 0.511440 0.401020
vt 0.604222 0.245349
vt 0.510077 0.042383
vt 0.510077 0.042383
vt 0.604222 0.245349
vt 0.604220 0.402834
vt 0.510077 0.042383
vt 0.604220 0.402834
vt 0.511440 0.401020
vt 0.328308 0.016089
vt 0.328304 0.052356
vt 0.288890 0.052356
vt 0.768229 0.764323
vt 0.479167 0.694010
vt 0.360677 0.764323
vt 0.768229 0.764323
vt 0.360677 0.764323
vt 0.479167 0.694010
vt 0.360677 0.764323
vt 0.479167 0.694010
vt 0.243490 0.696615
vt 0.328308 0.016089
vt 0.328304 0.052356
vt 0.288890 0.052356
vt 0.984375 0.720703
vt 0.910156 0.634766
vt 0.910156 0.484375
vt 0.658882 0.009959
vt 0.657161 0.095862
vt 0.543063 0.094414
vt 0.658882 0.009959
vt 0.543063 0.094414
vt 0.543571 0.008330
vt 0.622991 0.433307
vt 0.513744 0.433332
vt 0.514091 0.652717
vt 0.622991 0.433307
vt 0.514091 0.652717
vt 0.623661 0.652947
vt 0.328308 0.016089
vt 0.328304 0.052356
vt 0.288890 0.052356
vt 0.328308 0.016089
vt 0.288890 0.052356
vt 0.288886 0.016089
vt 0.328308 0.016089
vt 0.328304 0.052356
vt 0.288890 0.052356
vt 0.328308 0.016089
vt 0.328304 0.052356
vt 0.288890 0.052356
vt 0.243490 0.764323
vt 0.243490 0.696615
vt 0.360677 0.764323
vt 0.658705 0.003737
vt 0.658767 0.094483
vt 0.541612 0.092796
vt 0.658705 0.003737
vt 0.541612 0.092796
vt 0.542638 0.003931
vt 0.510470 0.244631
vt 0.604222 0.245349
vt 0.510077 0.042383
vt 0.360677 0.764323
vt 0.243490 0.696615
vt 0.243490 0.764323
vt 0.542638 0.003931
vt 0.541612 0.092796
vt 0.658767 0.094483
vt 0.542638 0.003931
vt 0.658767 0.094483
vt 0.658705 0.003737
vt 0.242588 0.987492
vt 0.236903 0.780464
vt 0.676352 0.861061
vt 0.242588 0.987492
vt 0.676352 0.861061
vt 0.584391 0.984264
vt 0.103303 0.669287
vt 0.004718 0.669469
vt 0.004751 0.580450
vn -0.112607 0.992688 0.043486
vn -0.276965 0.899432 0.338101
vn -0.337336 0.929623 0.148341
vn 0.420019 0.896786 -0.139137
vn 0.192397 0.915716 0.352772
vn 0.327728 0.866289 0.377012
vn 0.420019 0.896786 -0.139137
vn 0.327728 0.866289 0.377012
vn 0.195221 0.970554 -0.141115
vn -0.630716 0.500333 -0.593182
vn -0.638245 0.379281 -0.669917
vn -0.546375 0.002882 -0.837536
vn -0.630716 0.500333 -0.593182
vn -0.546375 0.002882 -0.837536
vn -0.755009 0.002350 -0.655710
vn 0.480996 -0.732473 -0.481794
vn 0.441728 -0.888921 -0.121228
vn -0.441728 -0.888921 -0.121228
vn 0.480996 -0.732473 -0.481794
vn -0.441728 -0.888921 -0.121228
vn -0.480996 -0.732473 -0.481794
vn 0.568772 -0.815650 -0.105892
vn 0.441728 -0.888921 -0.121228
vn 0.480996 -0.732473 -0.481794
vn -0.480996 -0.732473 -0.481794
vn -0.441728 -0.888921 -0.121228
vn -0.568837 -0.815607 -0.105878
vn 0.112622 0.992739 0.042253
vn 0.224199 0.973670 0.041252
vn 0.338340 0.929403 0.147428
vn -0.568837 -0.815607 -0.105878
vn -0.441728 -0.888921 -0.121228
vn -0.583896 -0.811828 -0.000821
vn -0.195172 0.970471 -0.141755
vn -0.327613 0.866330 0.377017
vn -0.191975 0.915807 0.352766
vn -0.195172 0.970471 -0.141755
vn -0.191975 0.915807 0.352766
vn -0.419658 0.896876 -0.139647
vn -0.090122 -0.995089 -0.040944
vn -0.068691 -0.996314 -0.051372
vn -0.068691 -0.996314 -0.051372
vn -0.090122 -0.995089 -0.040944
vn -0.068691 -0.996314 -0.051372
vn -0.568837 -0.815607 -0.105878
vn -0.999877 -0.015647 -0.000968
vn -0.866888 -0.202275 0.455620
vn -0.999965 -0.008338 -0.000548
vn -0.999877 -0.015647 -0.000968
vn -0.999965 -0.008338 -0.000548
vn -0.999877 -0.015647 -0.000968
vn -0.541156 -0.816148 -0.202615
vn -0.300183 -0.362819 -0.882186
vn -0.220106 -0.524906 -0.822208
vn -0.440919 0.858186 0.262882
vn -0.057569 0.903807 0.424050
vn -0.327613 0.866330 0.377017
vn 0.568772 -0.815650 -0.105892
vn 0.068691 -0.996314 -0.051372
vn 0.068691 -0.996314 -0.051372
vn 0.568772 -0.815650 -0.105892
vn 0.068691 -0.996314 -0.051372
vn 0.090122 -0.995089 -0.040944
vn 0.148574 0.959666 0.238677
vn 0.001727 0.999992 -0.003488
vn 0.195221 0.970554 -0.141115
vn 0.605537 0.688260 0.399528
vn 0.148574 0.959666 0.238677
vn 0.327728 0.866289 0.377012
vn -0.393915 0.899274 -0.190098
vn -0.003496 0.987969 -0.154610
vn -0.057569 0.903807 0.424050
vn -0.393915 0.899274 -0.190098
vn -0.057569 0.903807 0.424050
vn -0.440919 0.858186 0.262882
vn 0.999899 -0.014180 -0.001013
vn 0.999971 -0.007605 -0.000594
vn 0.867309 -0.201963 0.454957
vn 0.999899 -0.014180 -0.001013
vn 0.867309 -0.201963 0.454957
vn 0.999899 -0.014180 -0.001013
vn 0.441728 -0.888921 -0.121228
vn 0.583786 -0.811907 -0.000855
vn -0.583896 -0.811828 -0.000821
vn 0.441728 -0.888921 -0.121228
vn -0.583896 -0.811828 -0.000821
vn -0.441728 -0.888921 -0.121228
vn 0.440918 0.858185 0.262888
vn 0.057582 0.903798 0.424067
vn 0.003496 0.987969 -0.154610
vn 0.440918 0.858185 0.262888
vn 0.003496 0.987969 -0.154610
vn 0.393915 0.899274 -0.190098
vn 0.000000 -0.924043 0.382290
vn 0.000000 -0.381988 0.924167
vn -0.244406 -0.377318 0.893251
vn 0.000000 -0.924043 0.382290
vn -0.244406 -0.377318 0.893251
vn -0.168012 -0.913192 0.371284
vn 0.755009 0.002350 -0.655710
vn 0.546375 0.002882 -0.837536
vn 0.638245 0.379281 -0.669917
vn 0.755009 0.002350 -0.655710
vn 0.638245 0.379281 -0.669917
vn 0.630716 0.500333 -0.593182
vn -0.337336 0.929623 0.148341
vn -0.419658 0.896876 -0.139647
vn -0.224379 0.974501 -0.001001
vn -0.337336 0.929623 0.148341
vn -0.224379 0.974501 -0.001001
vn -0.224188 0.973624 0.042381
vn 0.630716 0.500333 -0.593182
vn 0.638245 0.379281 -0.669917
vn 0.724223 0.661500 -0.194727
vn 0.630716 0.500333 -0.593182
vn 0.724223 0.661500 -0.194727
vn 0.393915 0.899274 -0.190098
vn 0.000000 -0.924042 0.382290
vn 0.000000 -1.000000 0.000000
vn 0.118001 -0.993014 -0.000075
vn 0.000000 -0.924042 0.382290
vn 0.118001 -0.993014 -0.000075
vn 0.168297 -0.913108 0.371363
vn 0.420019 0.896786 -0.139137
vn 0.338340 0.929403 0.147428
vn 0.224199 0.973670 0.041252
vn 0.420019 0.896786 -0.139137
vn 0.224199 0.973670 0.041252
vn 0.224380 0.974501 -0.001463
vn -0.195172 0.970471 -0.141755
vn -0.002005 0.999992 -0.003454
vn -0.148713 0.959641 0.238693
vn -0.630716 0.500333 -0.593182
vn -0.003496 0.987969 -0.154610
vn -0.393915 0.899274 -0.190098
vn -0.866617 0.000556 0.498973
vn -0.866888 -0.202275 0.455620
vn -0.244406 -0.377318 0.893251
vn -0.866617 0.000556 0.498973
vn -0.244406 -0.377318 0.893251
vn -0.259900 0.002252 0.965633
vn 0.867309 -0.201963 0.454957
vn 0.245221 -0.378143 0.892678
vn 0.168297 -0.913108 0.371363
vn 0.867309 -0.201963 0.454957
vn 0.168297 -0.913108 0.371363
vn 0.330848 -0.876384 0.349986
vn 0.867309 -0.201963 0.454957
vn 0.867256 -0.000329 0.497862
vn 0.261117 0.000156 0.965307
vn 0.867309 -0.201963 0.454957
vn 0.261117 0.000156 0.965307
vn 0.245221 -0.378143 0.892678
vn -0.234387 -0.972143 -0.000185
vn -0.118018 -0.993011 -0.000093
vn -0.168012 -0.913192 0.371284
vn -0.234387 -0.972143 -0.000185
vn -0.168012 -0.913192 0.371284
vn -0.330285 -0.876643 0.349870
vn 0.540396 -0.816579 -0.202906
vn 0.568772 -0.815650 -0.105892
vn 0.133461 -0.990934 -0.015450
vn 0.540396 -0.816579 -0.202906
vn 0.133461 -0.990934 -0.015450
vn 0.219362 -0.525863 -0.821796
vn 0.605359 0.747108 -0.274535
vn 0.597274 0.735530 0.319779
vn 0.338340 0.929403 0.147428
vn 0.605359 0.747108 -0.274535
vn 0.338340 0.929403 0.147428
vn 0.420019 0.896786 -0.139137
vn 0.330848 -0.876384 0.349986
vn 0.168297 -0.913108 0.371363
vn 0.118001 -0.993014 -0.000075
vn 0.330848 -0.876384 0.349986
vn 0.118001 -0.993014 -0.000075
vn 0.234353 -0.972152 -0.000150
vn 0.338340 0.929403 0.147428
vn 0.597274 0.735530 0.319779
vn 0.278948 0.899163 0.337185
vn -0.337336 0.929623 0.148341
vn -0.276965 0.899432 0.338101
vn -0.595158 0.736862 0.320657
vn -0.419658 0.896876 -0.139647
vn -0.337336 0.929623 0.148341
vn -0.595158 0.736862 0.320657
vn -0.419658 0.896876 -0.139647
vn -0.595158 0.736862 0.320657
vn -0.605014 0.746916 -0.275817
vn 0.195221 0.970554 -0.141115
vn 0.605359 0.747108 -0.274535
vn 0.420019 0.896786 -0.139137
vn 0.000000 -1.000000 0.000000
vn 0.000000 -0.924043 0.382290
vn -0.168012 -0.913192 0.371284
vn 0.000000 -1.000000 0.000000
vn -0.168012 -0.913192 0.371284
vn -0.118018 -0.993011 -0.000093
vn -0.168012 -0.913192 0.371284
vn -0.244406 -0.377318 0.893251
vn -0.866888 -0.202275 0.455620
vn -0.168012 -0.913192 0.371284
vn -0.866888 -0.202275 0.455620
vn -0.330285 -0.876643 0.349870
vn 0.338340 0.929403 0.147428
vn 0.278948 0.899163 0.337185
vn 0.112622 0.992739 0.042253
vn 0.000000 -0.000156 1.000000
vn 0.000000 -0.383149 0.923687
vn 0.245221 -0.378143 0.892678
vn 0.000000 -0.000156 1.000000
vn 0.245221 -0.378143 0.892678
vn 0.261117 0.000156 0.965307
vn 0.000000 -0.383149 0.923687
vn 0.000000 -0.924042 0.382290
vn 0.168297 -0.913108 0.371363
vn 0.000000 -0.383149 0.923687
vn 0.168297 -0.913108 0.371363
vn 0.245221 -0.378143 0.892678
vn -0.220106 -0.524906 -0.822208
vn -0.133527 -0.990925 -0.015451
vn -0.568837 -0.815607 -0.105878
vn -0.220106 -0.524906 -0.822208
vn -0.568837 -0.815607 -0.105878
vn -0.541156 -0.816148 -0.202615
vn -0.419658 0.896876 -0.139647
vn -0.605014 0.746916 -0.275817
vn -0.195172 0.970471 -0.141755
vn -0.999999 -0.001029 -0.000129
vn -0.999965 -0.008338 -0.000548
vn -0.866888 -0.202275 0.455620
vn -0.999999 -0.001029 -0.000129
vn -0.866888 -0.202275 0.455620
vn -0.866617 0.000556 0.498973
vn 0.867309 -0.201963 0.454957
vn 0.999971 -0.007605 -0.000594
vn 0.999999 -0.001030 -0.000175
vn 0.867309 -0.201963 0.454957
vn 0.999999 -0.001030 -0.000175
vn 0.867256 -0.000329 0.497862
vn -0.568837 -0.815607 -0.105878
vn -0.583896 -0.811828 -0.000821
vn -0.541156 -0.816148 -0.202615
vn 0.192397 0.915716 0.352772
vn 0.057582 0.903798 0.424067
vn 0.327728 0.866289 0.377012
vn 0.583786 -0.811907 -0.000855
vn 0.441728 -0.888921 -0.121228
vn 0.568772 -0.815650 -0.105892
vn 0.540396 -0.816579 -0.202906
vn 0.583786 -0.811907 -0.000855
vn 0.568772 -0.815650 -0.105892
vn -0.148713 0.959641 0.238693
vn 0.148574 0.959666 0.238677
vn 0.605537 0.688260 0.399528
vn -0.148713 0.959641 0.238693
vn 0.605537 0.688260 0.399528
vn -0.605545 0.688267 0.399504
vn -0.568837 -0.815607 -0.105878
vn -0.133527 -0.990925 -0.015451
vn -0.111501 -0.993296 -0.030493
vn -0.568837 -0.815607 -0.105878
vn -0.111501 -0.993296 -0.030493
vn -0.090122 -0.995089 -0.040944
vn 0.090122 -0.995089 -0.040944
vn 0.111501 -0.993296 -0.030493
vn 0.133461 -0.990934 -0.015450
vn 0.090122 -0.995089 -0.040944
vn 0.133461 -0.990934 -0.015450
vn 0.568772 -0.815650 -0.105892
vn -0.327613 0.866330 0.377017
vn -0.057569 0.903807 0.424050
vn -0.191975 0.915807 0.352766
vn -0.195172 0.970471 -0.141755
vn -0.148713 0.959641 0.238693
vn -0.327613 0.866330 0.377017
vn 0.195221 0.970554 -0.141115
vn 0.327728 0.866289 0.377012
vn 0.148574 0.959666 0.238677
vn -0.327613 0.866330 0.377017
vn -0.148713 0.959641 0.238693
vn -0.605545 0.688267 0.399504
vn 0.327728 0.866289 0.377012
vn 0.057582 0.903798 0.424067
vn 0.440918 0.858185 0.262888
vn -0.337336 0.929623 0.148341
vn -0.224188 0.973624 0.042381
vn -0.112607 0.992688 0.043486
vn 0.000000 -0.381988 0.924167
vn 0.000000 0.002357 0.999997
vn -0.259900 0.002252 0.965633
vn 0.000000 -0.381988 0.924167
vn -0.259900 0.002252 0.965633
vn -0.244406 -0.377318 0.893251
vn 0.148574 0.959666 0.238677
vn -0.148713 0.959641 0.238693
vn -0.002005 0.999992 -0.003454
vn 0.148574 0.959666 0.238677
vn -0.002005 0.999992 -0.003454
vn 0.001727 0.999992 -0.003488
vn -0.480996 -0.732473 -0.481794
vn -0.488729 -0.531009 -0.692224
vn 0.488729 -0.531009 -0.692224
vn -0.480996 -0.732473 -0.481794
vn 0.488729 -0.531009 -0.692224
vn 0.480996 -0.732473 -0.481794
vn 0.480996 -0.732473 -0.481794
vn 0.488729 -0.531009 -0.692224
vn 0.568772 -0.815650 -0.105892
vn -0.568837 -0.815607 -0.105878
vn -0.488729 -0.531009 -0.692224
vn -0.480996 -0.732473 -0.481794
vn 0.440918 0.858185 0.262888
vn 0.605537 0.688260 0.399528
vn 0.327728 0.866289 0.377012
vn 0.393915 0.899274 -0.190098
vn 0.724223 0.661500 -0.194727
vn 0.605537 0.688260 0.399528
vn 0.393915 0.899274 -0.190098
vn 0.605537 0.688260 0.399528
vn 0.440918 0.858185 0.262888
vn 0.393915 0.899274 -0.190098
vn 0.003496 0.987969 -0.154610
vn 0.630716 0.500333 -0.593182
vn -0.327613 0.866330 0.377017
vn -0.605545 0.688267 0.399504
vn -0.440919 0.858186 0.262882
vn -0.440919 0.858186 0.262882
vn -0.605545 0.688267 0.399504
vn -0.724223 0.661500 -0.194727
vn -0.440919 0.858186 0.262882
vn -0.724223 0.661500 -0.194727
vn -0.393915 0.899274 -0.190098
vn -0.393915 0.899274 -0.190098
vn -0.724223 0.661500 -0.194727
vn -0.638245 0.379281 -0.669917
vn -0.393915 0.899274 -0.190098
vn -0.638245 0.379281 -0.669917
vn -0.630716 0.500333 -0.593182
vn 0.219362 -0.525863 -0.821796
vn 0.298719 -0.365877 -0.881420
vn 0.540396 -0.816579 -0.202906
f 76/1/1 54/2/2 25/3/3
f 52/4/4 64/5/5 16/6/6
f 52/7/7 16/8/8 37/9/9
f 26/10/10 33/11/11 41/12/12
f 26/13/13 41/14/14 27/15/15
f 65/16/16 3/17/17 4/18/18
f 65/19/19 4/20/20 66/21/21
f 21/22/22 3/23/23 65/24/24
f 66/25/25 4/26/26 20/27/27
f 78/28/28 69/29/29 23/30/30
f 20/31/31 4/32/32 5/33/33
f 38/34/34 8/35/35 59/36/36
f 38/37/37 59/38/38 11/39/39
f 27/40/40 41/41/41 40/42/42
f 27/43/43 40/44/44 20/45/45
f 84/46/46 43/47/47 71/48/48
f 84/49/49 71/50/50 83/51/51
f 55/52/52 19/53/53 28/54/54
f 58/55/55 47/56/56 8/57/57
f 21/58/58 39/59/59 2/60/60
f 21/61/61 2/62/62 15/63/63
f 36/64/64 1/65/65 37/66/66
f 35/67/67 36/68/68 16/69/69
f 63/70/70 45/71/71 47/72/72
f 63/73/73 47/74/74 58/75/75
f 81/76/76 72/77/77 42/78/78
f 81/79/79 42/80/80 82/81/81
f 3/82/82 53/83/83 5/84/84
f 3/85/85 5/86/86 4/87/87
f 6/88/88 30/89/89 46/90/90
f 6/91/91 46/92/92 18/93/93
f 51/94/94 48/95/95 73/96/96
f 51/97/97 73/98/98 74/99/99
f 15/100/100 2/101/101 44/102/102
f 15/103/103 44/104/104 50/105/105
f 25/106/106 11/107/107 67/108/108
f 25/109/109 67/110/110 70/111/111
f 50/112/112 44/113/113 32/114/114
f 50/115/115 32/116/116 18/117/117
f 62/118/118 61/119/119 79/120/120
f 62/121/121 79/122/122 80/123/123
f 52/124/124 23/125/125 69/126/126
f 52/127/127 69/128/128 75/129/129
f 38/130/130 13/131/131 9/132/132
f 26/133/133 45/134/134 63/135/135
f 70/136/136 43/137/137 73/138/138
f 70/139/139 73/140/140 76/141/141
f 42/142/142 77/143/143 80/144/144
f 42/145/145 80/146/146 82/147/147
f 42/148/148 69/149/149 78/150/150
f 42/151/151 78/152/152 77/153/153
f 83/154/154 68/155/155 74/156/156
f 83/157/157 74/158/158 84/159/159
f 56/160/160 21/161/161 14/162/162
f 56/163/163 14/164/164 29/165/165
f 49/166/166 10/167/167 23/168/168
f 49/169/169 23/170/170 52/171/171
f 82/172/172 80/173/173 79/174/174
f 82/175/175 79/176/176 81/177/177
f 23/178/178 10/179/179 60/180/180
f 25/181/181 54/182/182 22/183/183
f 11/184/184 25/185/185 22/186/186
f 11/187/187 22/188/188 24/189/189
f 37/190/190 49/191/191 52/192/192
f 19/193/193 51/194/194 74/195/195
f 19/196/196 74/197/197 68/198/198
f 74/199/199 73/200/200 43/201/201
f 74/202/202 43/203/203 84/204/204
f 23/205/205 60/206/206 78/207/207
f 60/208/208 57/209/209 77/210/210
f 60/211/211 77/212/212 78/213/213
f 57/214/214 62/215/215 80/216/216
f 57/217/217 80/218/218 77/219/219
f 28/220/220 12/221/221 20/222/222
f 28/223/223 20/224/224 55/225/225
f 11/226/226 24/227/227 38/228/228
f 67/229/229 71/230/230 43/231/231
f 67/232/232 43/233/233 70/234/234
f 42/235/235 72/236/236 75/237/237
f 42/238/238 75/239/239 69/240/240
f 20/241/241 5/242/242 55/243/243
f 64/244/244 30/245/245 16/246/246
f 53/247/247 3/248/248 21/249/249
f 56/250/250 53/251/251 21/252/252
f 9/253/253 36/254/254 35/255/255
f 9/256/256 35/257/257 34/258/258
f 20/259/259 12/260/260 17/261/261
f 20/262/262 17/263/263 27/264/264
f 15/265/265 7/266/266 14/267/267
f 15/268/268 14/269/269 21/270/270
f 8/271/271 47/272/272 59/273/273
f 38/274/274 9/275/275 8/276/276
f 37/277/277 16/278/278 36/279/279
f 8/280/280 9/281/281 34/282/282
f 16/283/283 30/284/284 6/285/285
f 25/286/286 70/287/287 76/288/288
f 48/289/289 54/290/290 76/291/291
f 48/292/292 76/293/293 73/294/294
f 36/295/295 9/296/296 13/297/297
f 36/298/298 13/299/299 1/300/300
f 66/301/301 40/302/302 39/303/303
f 66/304/304 39/305/305 65/306/306
f 65/307/307 39/308/308 21/309/309
f 20/310/310 40/311/311 66/312/312
f 6/313/313 35/314/314 16/315/315
f 18/316/316 32/317/317 35/318/318
f 18/319/319 35/320/320 6/321/321
f 18/322/322 46/323/323 50/324/324
f 8/325/325 34/326/326 58/327/327
f 58/328/328 34/329/329 31/330/330
f 58/331/331 31/332/332 63/333/333
f 63/334/334 31/335/335 33/336/336
f 63/337/337 33/338/338 26/339/339
f 29/340/340 61/341/341 56/342/342
