v 1.545612 0.668335 4.532506
v 1.567453 -1.011699 -8.966271
v 1.541046 -2.663965 -2.678622
v -1.541046 -2.663965 -2.678622
v -1.550058 -2.669534 4.602361
v 2.880267 1.764639 -2.622491
v 4.208239 -1.017165 -4.881650
v -2.882335 0.970573 -1.412854
v -1.542275 0.966328 0.544686
v -4.240616 0.679769 6.562084
v -4.208215 -1.009326 -2.627003
v -1.545612 0.668335 4.532506
v 4.208215 -1.009326 -2.627003
v 2.617429 -1.014432 -8.277650
v 2.882323 0.970587 -1.412900
v -4.208239 -1.017165 -4.881650
v 2.879531 1.770169 -4.870952
v -2.614280 -1.263716 -2.678853
v 2.614280 -1.263716 -2.678853
v 4.199187 0.677548 8.299504
v -4.199187 0.677548 8.299504
v -2.617993 0.678098 -8.275127
v -2.617429 -1.014432 -8.277650
v -4.240616 -2.211990 3.346927
v 4.240616 -2.211990 3.346927
v 4.239931 1.778757 -2.641618
v -1.553346 3.524072 -4.854920
v 1.553345 3.524072 -4.854920
v -1.552234 0.665506 -8.974242
v -1.554383 3.511497 -2.617553
v 1.554383 3.511497 -2.617553
v 1.542059 0.966467 0.544229
v 2.608601 0.668030 5.336994
v -2.608601 0.668030 5.336994
v 1.541796 -1.263440 -4.886587
v -1.541796 -1.263440 -4.886587
v -1.567453 -1.011699 -8.966271
v 5.955514 -1.018744 8.299504
v -5.955514 -1.018744 8.299504
v 1.552233 0.665506 -8.974242
v -4.239931 1.777309 -4.864995
v 4.239931 1.777309 -4.864995
v -4.239931 1.778757 -2.641619
v 2.617993 0.678098 -8.275127
v 4.240616 0.679769 6.562084
v 1.550058 -2.669534 4.602361
v -2.617064 -0.997778 5.339999
v 2.617064 -0.997778 5.339999
v -2.880267 1.764639 -2.622491
v -4.240615 0.683988 -1.411395
v -2.879531 1.770169 -4.870952
v 4.240615 0.683988 -1.411395
v 1.541421 -2.268197 -4.116096
v -1.541421 -2.268197 -4.116096
v -5.968993 0.242900 6.546607
v -4.240616 -2.228711 6.550013
v 5.955514 0.273115 8.299504
v -5.955514 0.273115 8.299504
v -5.942957 -1.778065 7.527845
v -5.968993 -1.760091 6.550217
v -3.708495 -1.011525 9.606500
v -3.707836 -2.316787 8.299011
v 5.968993 0.242900 6.546607
v -3.703523 0.676694 9.602520
v 3.710304 -1.011098 9.610744
v 3.707141 0.677548 9.611008
v 4.240616 -2.228711 6.550013
v 3.709605 -2.316359 8.303257
v 5.968993 -1.760091 6.550217
v 5.944046 -1.777852 7.529968
vt 0.542638 0.003931
vt 0.541612 0.092796
vt 0.658767 0.094483
vt 0.542638 0.003931
vt 0.658767 0.094483
vt 0.658705 0.003737
vt 0.103303 0.669287
vt 0.101702 0.006032
vt 0.005931 0.006159
vt 0.103303 0.669287
vt 0.005931 0.006159
vt 0.004751 0.580450
vt 0.899611 0.327678
vt 0.899622 0.459517
vt 0.991009 0.459517
vt 0.899611 0.327678
vt 0.991009 0.459517
vt 0.991020 0.327678
vt 0.328308 0.016089
vt 0.328304 0.052356
vt 0.288890 0.052356
vt 0.328308 0.016089
vt 0.288890 0.052356
vt 0.288886 0.016089
vt 0.328308 0.016089
vt 0.328304 0.052356
vt 0.288890 0.052356
vt 0.328308 0.016089
vt 0.328304 0.052356
vt 0.288890 0.052356
vt 0.910156 0.484375
vt 0.910156 0.634766
vt 0.984375 0.720703
vt 0.241333 0.694473
vt 0.241306 0.772711
vt 0.762600 0.770280
vt 0.004751 0.580450
vt 0.005931 0.006159
vt 0.101702 0.006032
vt 0.004751 0.580450
vt 0.101702 0.006032
vt 0.103303 0.669287
vt 0.328308 0.016089
vt 0.328304 0.052356
vt 0.288890 0.052356
vt 0.328308 0.016089
vt 0.288890 0.052356
vt 0.288886 0.016089
vt 0.242588 0.987492
vt 0.236903 0.780464
vt 0.676352 0.861061
vt 0.242588 0.987492
vt 0.676352 0.861061
vt 0.584391 0.984264
vt 0.328308 0.016089
vt 0.328304 0.052356
vt 0.288890 0.052356
vt 0.328308 0.016089
vt 0.328304 0.052356
vt 0.288890 0.052356
vt 0.328308 0.016089
vt 0.288890 0.052356
vt 0.288886 0.016089
vt 0.718750 0.695312
vt 0.768229 0.764323
vt 0.479167 0.694010
vt 0.243490 0.696615
vt 0.479167 0.694010
vt 0.360677 0.764323
vt 0.510077 0.243555
vt 0.604222 0.245349
vt 0.604220 0.402834
vt 0.510077 0.243555
vt 0.604220 0.402834
vt 0.511440 0.401020
vt 0.237907 0.777477
vt 0.763867 0.778708
vt 0.761891 0.998028
vt 0.237907 0.777477
vt 0.761891 0.998028
vt 0.235942 0.995521
vt 0.511440 0.401020
vt 0.604220 0.402834
vt 0.604222 0.245349
vt 0.511440 0.401020
vt 0.604222 0.245349
vt 0.510077 0.243555
vt 0.360677 0.764323
vt 0.243490 0.696615
vt 0.243490 0.764323
vt 0.991020 0.327678
vt 0.991009 0.459517
vt 0.899622 0.459517
vt 0.991020 0.327678
vt 0.899622 0.459517
vt 0.899611 0.327678
vt 0.728708 0.105750
vt 0.728572 0.000056
vt 0.804129 0.001025
vt 0.728708 0.105750
vt 0.804129 0.001025
vt 0.804043 0.106308
vt 0.584391 0.984264
vt 0.676352 0.861061
vt 0.236903 0.780464
vt 0.584391 0.984264
vt 0.236903 0.780464
vt 0.242588 0.987492
vt 0.510470 0.244631
vt 0.604222 0.245349
vt 0.510077 0.042383
vt 0.728572 0.000056
vt 0.728708 0.105750
vt 0.804043 0.106308
vt 0.728572 0.000056
vt 0.804043 0.106308
vt 0.804129 0.001025
vt 0.768229 0.764323
vt 0.718750 0.695312
vt 0.479167 0.694010
vt 0.510077 0.042383
vt 0.604222 0.245349
vt 0.510470 0.244631
vt 0.981163 0.095817
vt 0.980382 0.005973
vt 0.818480 0.005454
vt 0.981163 0.095817
vt 0.818480 0.005454
vt 0.817433 0.123438
vt 0.227220 0.792013
vt 0.077646 0.887584
vt 0.077599 0.792286
vt 0.227220 0.792013
vt 0.077599 0.792286
vt 0.226456 0.735924
vt 0.980382 0.005973
vt 0.981163 0.095817
vt 0.817433 0.123438
vt 0.980382 0.005973
vt 0.817433 0.123438
vt 0.818480 0.005454
vt 0.226390 0.669378
vt 0.077599 0.669469
vt 0.077599 0.792286
vt 0.226390 0.669378
vt 0.077599 0.792286
vt 0.226456 0.735924
vt 0.004751 0.580450
vt 0.005931 0.006159
vt 0.101702 0.006032
vt 0.004751 0.580450
vt 0.101702 0.006032
vt 0.103303 0.669287
vt 0.658705 0.003737
vt 0.658767 0.094483
vt 0.541612 0.092796
vt 0.658705 0.003737
vt 0.541612 0.092796
vt 0.542638 0.003931
vt 0.226456 0.735924
vt 0.077599 0.792286
vt 0.077599 0.669469
vt 0.226456 0.735924
vt 0.077599 0.669469
vt 0.226390 0.669378
vt 0.243490 0.764323
vt 0.243490 0.696615
vt 0.360677 0.764323
vt 0.328308 0.016089
vt 0.328304 0.052356
vt 0.288890 0.052356
vt 0.328308 0.016089
vt 0.328304 0.052356
vt 0.288890 0.052356
vt 0.328308 0.016089
vt 0.328304 0.052356
vt 0.288890 0.052356
vt 0.328308 0.016089
vt 0.288890 0.052356
vt 0.288886 0.016089
vt 0.622991 0.433307
vt 0.513744 0.433332
vt 0.514091 0.652717
vt 0.622991 0.433307
vt 0.514091 0.652717
vt 0.623661 0.652947
vt 0.077599 0.792286
vt 0.077646 0.887584
vt 0.227220 0.792013
vt 0.077599 0.792286
vt 0.227220 0.792013
vt 0.226456 0.735924
vt 0.984375 0.720703
vt 0.910156 0.634766
vt 0.910156 0.484375
vt 0.328308 0.016089
vt 0.328304 0.052356
vt 0.288890 0.052356
vt 0.360677 0.764323
vt 0.479167 0.694010
vt 0.243490 0.696615
vt 0.103303 0.669287
vt 0.101702 0.006032
vt 0.005931 0.006159
vt 0.103303 0.669287
vt 0.005931 0.006159
vt 0.004751 0.580450
vt 0.768229 0.764323
vt 0.360677 0.764323
vt 0.479167 0.694010
vt 0.716853 0.001172
vt 0.716989 0.106308
vt 0.804043 0.106308
vt 0.716853 0.001172
vt 0.804043 0.106308
vt 0.804129 0.001025
vt 0.716853 0.001172
vt 0.804129 0.001025
vt 0.670114 0.056643
vt 0.670201 0.001025
vt 0.716853 0.001172
vt 0.804129 0.001025
vt 0.670201 0.001025
vt 0.804129 0.001025
vt 0.804043 0.106308
vt 0.670201 0.001025
vt 0.804043 0.106308
vt 0.716989 0.106308
vt 0.241333 0.694473
vt 0.762600 0.770280
vt 0.817143 0.694606
vt 0.328308 0.016089
vt 0.328304 0.052356
vt 0.288890 0.052356
vt 0.762600 0.770280
vt 0.241306 0.772711
vt 0.241333 0.694473
vt 0.817143 0.694606
vt 0.762600 0.770280
vt 0.241333 0.694473
vt 0.513744 0.433332
vt 0.622991 0.433307
vt 0.623661 0.652947
vt 0.513744 0.433332
vt 0.623661 0.652947
vt 0.514091 0.652717
vt 0.511440 0.401020
vt 0.604220 0.402834
vt 0.604222 0.245349
vt 0.511440 0.401020
vt 0.604222 0.245349
vt 0.510077 0.042383
vt 0.510077 0.042383
vt 0.604222 0.245349
vt 0.604220 0.402834
vt 0.510077 0.042383
vt 0.604220 0.402834
vt 0.511440 0.401020
vt 0.328308 0.016089
vt 0.328304 0.052356
vt 0.288890 0.052356
vt 0.768229 0.764323
vt 0.479167 0.694010
vt 0.360677 0.764323
vn -0.438059 0.859538 0.263246
vn -0.605460 0.688434 0.399346
vn -0.722277 0.663330 -0.195726
vn -0.438059 0.859538 0.263246
vn -0.722277 0.663330 -0.195726
vn -0.388269 0.901625 -0.190578
vn 0.379851 0.910631 -0.162680
vn 0.126455 0.923710 0.361620
vn 0.316588 0.865657 0.387828
vn 0.379851 0.910631 -0.162680
vn 0.316588 0.865657 0.387828
vn 0.152145 0.979538 -0.131748
vn -0.458578 0.651427 -0.604441
vn -0.637609 0.379929 -0.670155
vn -0.548455 0.001033 -0.836179
vn -0.458578 0.651427 -0.604441
vn -0.548455 0.001033 -0.836179
vn -0.548455 0.001033 -0.836179
vn 0.480996 -0.732473 -0.481794
vn 0.441728 -0.888921 -0.121228
vn -0.441728 -0.888921 -0.121228
vn 0.480996 -0.732473 -0.481794
vn -0.441728 -0.888921 -0.121228
vn -0.480996 -0.732473 -0.481794
vn 0.836037 -0.529436 -0.144010
vn 0.441728 -0.888921 -0.121228
vn 0.480996 -0.732473 -0.481794
vn -0.480996 -0.732473 -0.481794
vn -0.441728 -0.888921 -0.121228
vn -0.836037 -0.529436 -0.144010
vn 0.113185 0.992666 0.042464
vn 0.229362 0.972522 0.039933
vn 0.337734 0.929479 0.148336
vn -0.836037 -0.529436 -0.144010
vn -0.441728 -0.888921 -0.121228
vn -0.604500 -0.796585 0.005745
vn -0.152107 0.979546 -0.131731
vn -0.316591 0.865664 0.387809
vn -0.126462 0.923710 0.361619
vn -0.152107 0.979546 -0.131731
vn -0.126462 0.923710 0.361619
vn -0.379825 0.910637 -0.162708
vn -0.090122 -0.995089 -0.040944
vn -0.068691 -0.996314 -0.051372
vn -0.068691 -0.996314 -0.051372
vn -0.090122 -0.995089 -0.040944
vn -0.068691 -0.996314 -0.051372
vn 0.047434 -0.997668 -0.049067
vn -0.388269 0.901625 -0.190578
vn -0.722277 0.663330 -0.195726
vn -0.637609 0.379929 -0.670155
vn -0.388269 0.901625 -0.190578
vn -0.637609 0.379929 -0.670155
vn -0.458578 0.651427 -0.604441
vn -0.438059 0.859538 0.263246
vn -0.051379 0.904286 0.423825
vn -0.316591 0.865664 0.387809
vn -0.047434 -0.997668 -0.049067
vn 0.068691 -0.996314 -0.051372
vn 0.068691 -0.996314 -0.051372
vn -0.047434 -0.997668 -0.049067
vn 0.068691 -0.996314 -0.051372
vn 0.090122 -0.995089 -0.040944
vn 0.149703 0.947942 0.281061
vn -0.028059 0.996824 0.074533
vn 0.152145 0.979538 -0.131748
vn 0.605452 0.688427 0.399370
vn 0.149703 0.947942 0.281061
vn 0.316588 0.865657 0.387828
vn -0.388269 0.901625 -0.190578
vn 0.005806 0.988052 -0.154009
vn -0.051379 0.904286 0.423825
vn -0.388269 0.901625 -0.190578
vn -0.051379 0.904286 0.423825
vn -0.438059 0.859538 0.263246
vn 0.441728 -0.888921 -0.121228
vn 0.604500 -0.796585 0.005745
vn -0.604500 -0.796585 0.005745
vn 0.441728 -0.888921 -0.121228
vn -0.604500 -0.796585 0.005745
vn -0.441728 -0.888921 -0.121228
vn 0.438058 0.859537 0.263252
vn 0.051373 0.904285 0.423828
vn -0.005806 0.988052 -0.154009
vn 0.438058 0.859537 0.263252
vn -0.005806 0.988052 -0.154009
vn 0.388268 0.901625 -0.190578
vn -0.316591 0.865664 0.387809
vn -0.605460 0.688434 0.399346
vn -0.438059 0.859538 0.263246
vn 0.548455 0.001033 -0.836179
vn 0.548455 0.001033 -0.836179
vn 0.637609 0.379929 -0.670155
vn 0.548455 0.001033 -0.836179
vn 0.637609 0.379929 -0.670155
vn 0.458577 0.651427 -0.604441
vn -0.337892 0.929333 0.148891
vn -0.379825 0.910637 -0.162708
vn -0.234665 0.972068 -0.004105
vn -0.337892 0.929333 0.148891
vn -0.234665 0.972068 -0.004105
vn -0.229354 0.972486 0.040831
vn 0.458577 0.651427 -0.604441
vn 0.637609 0.379929 -0.670155
vn 0.722277 0.663330 -0.195726
vn 0.458577 0.651427 -0.604441
vn 0.722277 0.663330 -0.195726
vn 0.388268 0.901625 -0.190578
vn 0.388268 0.901625 -0.190578
vn -0.005806 0.988052 -0.154009
vn 0.458577 0.651427 -0.604441
vn 0.379851 0.910631 -0.162680
vn 0.337734 0.929479 0.148336
vn 0.229362 0.972522 0.039933
vn 0.379851 0.910631 -0.162680
vn 0.229362 0.972522 0.039933
vn 0.234665 0.972068 -0.004105
vn -0.152107 0.979546 -0.131731
vn 0.028031 0.996826 0.074518
vn -0.149701 0.947950 0.281036
vn -0.458578 0.651427 -0.604441
vn 0.005806 0.988052 -0.154009
vn -0.388269 0.901625 -0.190578
vn -0.864127 -0.001702 0.503271
vn -0.749428 -0.263130 0.607553
vn -0.246913 -0.377649 0.892421
vn -0.864127 -0.001702 0.503271
vn -0.246913 -0.377649 0.892421
vn -0.264270 0.001422 0.964448
vn 0.866079 -0.199587 0.458337
vn 0.245609 -0.378391 0.892467
vn 0.180473 -0.911734 0.369013
vn 0.866079 -0.199587 0.458337
vn 0.180473 -0.911734 0.369013
vn 0.337428 -0.871448 0.355979
vn 0.866079 -0.199587 0.458337
vn 0.866333 -0.003089 0.499457
vn 0.262689 -0.000032 0.964881
vn 0.866079 -0.199587 0.458337
vn 0.262689 -0.000032 0.964881
vn 0.245609 -0.378391 0.892467
vn -0.248733 -0.968481 0.013309
vn -0.141497 -0.989932 -0.003652
vn -0.180916 -0.911657 0.368987
vn -0.248733 -0.968481 0.013309
vn -0.180916 -0.911657 0.368987
vn -0.336851 -0.871698 0.355913
vn -0.620823 -0.738626 -0.262696
vn -0.047434 -0.997668 -0.049067
vn -0.106674 -0.993153 -0.047631
vn -0.620823 -0.738626 -0.262696
vn -0.106674 -0.993153 -0.047631
vn -0.620823 -0.738626 -0.262696
vn 0.388268 0.901625 -0.190578
vn 0.722277 0.663330 -0.195726
vn 0.605452 0.688427 0.399370
vn 0.388268 0.901625 -0.190578
vn 0.605452 0.688427 0.399370
vn 0.438058 0.859537 0.263252
vn 0.337428 -0.871448 0.355979
vn 0.180473 -0.911734 0.369013
vn 0.141318 -0.989957 -0.003849
vn 0.337428 -0.871448 0.355979
vn 0.141318 -0.989957 -0.003849
vn 0.248718 -0.968485 0.013242
vn 0.438058 0.859537 0.263252
vn 0.605452 0.688427 0.399370
vn 0.316588 0.865657 0.387828
vn -0.836037 -0.529436 -0.144010
vn -0.488729 -0.531009 -0.692224
vn -0.480996 -0.732473 -0.481794
vn 0.480996 -0.732473 -0.481794
vn 0.488729 -0.531009 -0.692224
vn 0.836037 -0.529436 -0.144010
vn -0.480996 -0.732473 -0.481794
vn -0.488729 -0.531009 -0.692224
vn 0.488729 -0.531009 -0.692224
vn -0.480996 -0.732473 -0.481794
vn 0.488729 -0.531009 -0.692224
vn 0.480996 -0.732473 -0.481794
vn 0.149703 0.947942 0.281061
vn -0.149701 0.947950 0.281036
vn 0.028031 0.996826 0.074518
vn 0.149703 0.947942 0.281061
vn 0.028031 0.996826 0.074518
vn -0.028059 0.996824 0.074533
vn -0.180916 -0.911657 0.368987
vn -0.246913 -0.377649 0.892421
vn -0.749428 -0.263130 0.607553
vn -0.180916 -0.911657 0.368987
vn -0.749428 -0.263130 0.607553
vn -0.336851 -0.871698 0.355913
vn -0.337892 0.929333 0.148891
vn -0.229354 0.972486 0.040831
vn -0.113564 0.992562 0.043850
vn 0.316588 0.865657 0.387828
vn 0.051373 0.904285 0.423828
vn 0.438058 0.859537 0.263252
vn -0.316591 0.865664 0.387809
vn -0.149701 0.947950 0.281036
vn -0.605460 0.688434 0.399346
vn 0.621055 -0.738267 -0.263157
vn 0.106674 -0.993153 -0.047631
vn 0.047434 -0.997668 -0.049067
vn 0.621055 -0.738267 -0.263157
vn 0.047434 -0.997668 -0.049067
vn 0.621055 -0.738267 -0.263157
vn 0.152145 0.979538 -0.131748
vn 0.316588 0.865657 0.387828
vn 0.149703 0.947942 0.281061
vn -0.999940 -0.004951 0.009798
vn -0.749428 -0.263130 0.607553
vn -0.864127 -0.001702 0.503271
vn -0.999940 -0.004951 0.009798
vn -0.864127 -0.001702 0.503271
vn -0.999940 -0.004951 0.009798
vn -0.999940 -0.004951 0.009798
vn -0.999940 -0.004951 0.009798
vn -0.999940 -0.004951 0.009798
vn 0.999977 -0.005821 0.003500
vn 0.999977 -0.005821 0.003500
vn 0.866333 -0.003089 0.499457
vn 0.999977 -0.005821 0.003500
vn 0.866333 -0.003089 0.499457
vn 0.866079 -0.199587 0.458337
vn 0.999977 -0.005821 0.003500
vn 0.866079 -0.199587 0.458337
vn 0.999977 -0.005821 0.003500
vn -0.836037 -0.529436 -0.144010
vn -0.604500 -0.796585 0.005745
vn -0.839240 -0.543472 0.017732
vn 0.126455 0.923710 0.361620
vn 0.051373 0.904285 0.423828
vn 0.316588 0.865657 0.387828
vn 0.604500 -0.796585 0.005745
vn 0.441728 -0.888921 -0.121228
vn 0.836037 -0.529436 -0.144010
vn 0.839240 -0.543472 0.017732
vn 0.604500 -0.796585 0.005745
vn 0.836037 -0.529436 -0.144010
vn -0.149701 0.947950 0.281036
vn 0.149703 0.947942 0.281061
vn 0.605452 0.688427 0.399370
vn -0.149701 0.947950 0.281036
vn 0.605452 0.688427 0.399370
vn -0.605460 0.688434 0.399346
vn 0.047434 -0.997668 -0.049067
vn 0.106674 -0.993153 -0.047631
vn -0.111501 -0.993296 -0.030493
vn 0.047434 -0.997668 -0.049067
vn -0.111501 -0.993296 -0.030493
vn -0.090122 -0.995089 -0.040944
vn 0.090122 -0.995089 -0.040944
vn 0.111501 -0.993296 -0.030493
vn -0.106674 -0.993153 -0.047631
vn 0.090122 -0.995089 -0.040944
vn -0.106674 -0.993153 -0.047631
vn -0.047434 -0.997668 -0.049067
vn -0.316591 0.865664 0.387809
vn -0.051379 0.904286 0.423825
vn -0.126462 0.923710 0.361619
vn -0.152107 0.979546 -0.131731
vn -0.149701 0.947950 0.281036
vn -0.316591 0.865664 0.387809
f 49/1/1 30/2/2 27/3/3
f 49/4/4 27/5/5 51/6/6
f 45/7/7 52/8/8 15/9/9
f 45/10/10 15/11/11 33/12/12
f 22/13/13 29/14/14 37/15/15
f 22/16/16 37/17/17 23/18/18
f 53/19/19 3/20/20 4/21/21
f 53/22/22 4/23/23 54/24/24
f 19/25/25 3/26/26 53/27/27
f 54/28/28 4/29/29 18/30/30
f 66/31/31 57/32/32 20/33/33
f 18/34/34 4/35/35 5/36/36
f 34/37/37 8/38/38 50/39/39
f 34/40/40 50/41/41 10/42/42
f 23/43/43 37/44/44 36/45/45
f 23/46/46 36/47/47 18/48/48
f 51/49/49 27/50/50 29/51/51
f 51/52/52 29/53/53 22/54/54
f 49/55/55 43/56/56 8/57/57
f 19/58/58 35/59/59 2/60/60
f 19/61/61 2/62/62 14/63/63
f 32/64/64 1/65/65 33/66/66
f 31/67/67 32/68/68 15/69/69
f 51/70/70 41/71/71 43/72/72
f 51/73/73 43/74/74 49/75/75
f 3/76/76 46/77/77 5/78/78
f 3/79/79 5/80/80 4/81/81
f 6/82/82 26/83/83 42/84/84
f 6/85/85 42/86/86 17/87/87
f 8/88/88 30/89/89 49/90/90
f 14/91/91 2/92/92 40/93/93
f 14/94/94 40/95/95 44/96/96
f 21/97/97 10/98/98 55/99/99
f 21/100/100 55/101/101 58/102/102
f 44/103/103 40/104/104 28/105/105
f 44/106/106 28/107/107 17/108/108
f 17/109/109 42/110/110 44/111/111
f 45/112/112 20/113/113 57/114/114
f 45/115/115 57/116/116 63/117/117
f 34/118/118 12/119/119 9/120/120
f 22/121/121 41/122/122 51/123/123
f 58/124/124 39/125/125 61/126/126
f 58/127/127 61/128/128 64/129/129
f 38/130/130 65/131/131 68/132/132
f 38/133/133 68/134/134 70/135/135
f 38/136/136 57/137/137 66/138/138
f 38/139/139 66/140/140 65/141/141
f 60/142/142 56/143/143 62/144/144
f 60/145/145 62/146/146 59/147/147
f 48/148/148 19/149/149 13/150/150
f 48/151/151 13/152/152 25/153/153
f 17/154/154 28/155/155 31/156/156
f 17/157/157 31/158/158 6/159/159
f 70/160/160 68/161/161 67/162/162
f 70/163/163 67/164/164 69/165/165
f 6/166/166 31/167/167 15/168/168
f 18/169/169 36/170/170 54/171/171
f 53/172/172 35/173/173 19/174/174
f 54/175/175 36/176/176 35/177/177
f 54/178/178 35/179/179 53/180/180
f 32/181/181 9/182/182 12/183/183
f 32/184/184 12/185/185 1/186/186
f 62/187/187 61/188/188 39/189/189
f 62/190/190 39/191/191 59/192/192
f 21/193/193 58/194/194 64/195/195
f 15/196/196 26/197/197 6/198/198
f 8/199/199 9/200/200 30/201/201
f 24/202/202 11/203/203 18/204/204
f 24/205/205 18/206/206 47/207/207
f 33/208/208 15/209/209 32/210/210
f 59/211/211 39/212/212 58/213/213
f 59/214/214 58/215/215 55/216/216
f 59/217/217 55/218/218 60/219/219
f 69/220/220 63/221/221 57/222/222
f 69/223/223 57/224/224 38/225/225
f 69/226/226 38/227/227 70/228/228
f 18/229/229 5/230/230 47/231/231
f 52/232/232 26/233/233 15/234/234
f 46/235/235 3/236/236 19/237/237
f 48/238/238 46/239/239 19/240/240
f 9/241/241 32/242/242 31/243/243
f 9/244/244 31/245/245 30/246/246
f 18/247/247 11/248/248 16/249/249
f 18/250/250 16/251/251 23/252/252
f 14/253/253 7/254/254 13/255/255
f 14/256/256 13/257/257 19/258/258
f 8/259/259 43/260/260 50/261/261
f 34/262/262 9/263/263 8/264/264
