v -0.322314 -0.939572 -5.388825
v -1.300397 -0.399443 8.184311
v -2.297775 -0.080772 6.593721
v -2.833438 0.296901 4.213235
v -3.042889 0.530226 1.405259
v -2.811260 0.108973 -1.402717
v -2.151661 0.056848 -3.783203
v 1.626081 0.441894 6.593721
v -1.419192 1.260476 6.593721
v -1.929967 2.145305 4.213234
v -2.055374 2.702310 1.405259
v -1.787603 2.538968 -1.402717
v 1.787482 2.538968 -1.402717
v 0.919153 0.018867 8.184310
v 1.419073 1.260483 6.593721
v 1.929847 2.145305 4.213234
v 2.055254 2.702310 1.405258
v -1.368186 1.763730 -3.783203
v 0.424327 -0.089251 -5.930767
v 1.300279 -0.399443 8.184311
v 2.297656 -0.080772 6.593721
v 2.833318 0.296901 4.213234
v 3.042770 0.530226 1.405258
v 2.811139 0.108973 -1.402717
v 2.151540 0.056848 -3.783204
v 0.919419 -1.239823 8.184311
v 1.698915 -1.740617 6.593721
v 1.997776 -1.818275 4.213234
v -0.919537 -1.239823 8.184311
v -1.699033 -1.740617 6.593721
v 0.642404 0.158109 -5.394340
v 1.947401 1.068294 -3.783204
v 2.524064 1.736876 -1.402717
v -0.642525 0.158109 -5.394340
v -1.947522 1.068294 -3.783203
v -2.524185 1.736876 -1.402717
v -2.672292 1.930979 1.405259
v -2.217636 1.085803 4.213235
v 2.672173 1.930979 1.405258
v -2.900390 -0.424284 1.405259
v 2.900270 -0.424284 1.405258
v -1.626199 0.441894 6.593721
v -0.919271 0.018867 8.184310
v -0.424447 -0.089252 -5.930767
v 1.368064 1.763730 -3.783203
v -0.000059 -1.737691 6.593721
v -0.000060 -1.903923 4.213235
v -0.000060 -1.379457 1.405259
v -0.000061 -0.773251 -3.783203
v -0.000061 -0.646822 -5.387995
v -1.201416 -0.472528 1.405259
v -1.109967 -1.113053 4.213235
v -1.109968 0.036743 -1.402716
v -0.661136 -0.090172 -3.782462
v 0.661017 -0.090172 -3.782462
v 1.109848 0.036743 -1.402717
v 1.201296 -0.472528 1.405259
v 1.109848 -1.113053 4.213234
v 0.849428 -1.174648 6.593721
v -0.849546 -1.174648 6.593721
v 0.459680 -0.881880 8.184311
v 0.644449 -0.091087 -5.389631
v -0.644568 -0.091087 -5.389631
v 1.033648 -0.002426 -3.782647
v -0.966911 -0.033422 8.184311
v -0.000056 -0.464040 8.744725
v 0.966793 -0.033422 8.184310
v 0.662867 -1.041842 -3.782922
v -0.662986 -1.041842 -3.782922
v 0.644449 -1.074066 -5.389655
v -0.644568 -1.074066 -5.389655
v -0.659824 -0.217025 -6.353699
v -0.658749 -1.025445 -6.353699
v -0.653992 -0.366620 -7.014341
v -0.653992 -0.916386 -7.014341
v -0.654220 -0.648058 -7.486334
v 0.658629 -1.025445 -6.353699
v 0.659705 -0.217024 -6.353699
v 0.653872 -0.916386 -7.014340
v 0.653872 -0.366620 -7.014340
v 0.654101 -0.648058 -7.486334
v 0.329284 -0.894872 -6.354739
v 0.491578 -0.816360 -7.017756
v -0.329405 -0.894872 -6.354739
v -0.491698 -0.816360 -7.017756
v 0.392372 -0.477510 -7.014886
v -0.392492 -0.477510 -7.014887
v -0.319408 -0.647674 -7.016322
v 0.319288 -0.647674 -7.016322
v 0.384198 2.242221 6.593721
v -0.446946 3.258837 -1.402717
v -0.482536 3.310837 4.213234
v 0.600618 -0.925992 1.405259
v -0.600738 -0.925992 1.405259
v -1.033767 -0.002426 -3.782647
v 0.446825 3.258837 -1.402717
v 0.482417 3.310837 4.213234
v 0.666140 -0.357068 -1.401265
v 0.288848 -0.770635 -1.401450
v -0.288968 -0.770635 -1.401450
v -0.666260 -0.357068 -1.401265
v -0.000060 -1.005399 -1.401450
v -0.342092 2.316061 -3.783203
v -0.229862 0.684730 8.184310
v -0.513888 3.674011 1.405259
v 0.229744 0.684730 8.184310
v 0.341971 2.316061 -3.783203
v -0.384316 2.260238 6.593721
v 0.513769 3.674011 1.405258
v 1.398945 -0.865622 8.184311
v 2.944070 -1.427927 4.213234
v 2.409028 -1.441943 6.593721
v 3.152956 -0.899134 4.213234
v 1.303730 -1.075717 8.184311
v 2.558714 -1.026982 6.593721
v -1.399063 -0.865622 8.184311
v -2.944189 -1.427927 4.213235
v -1.303848 -1.075717 8.184311
v -3.153075 -0.899134 4.213235
v -2.409147 -1.441943 6.593721
v -2.558832 -1.026982 6.593721
v -0.005412 -0.469404 8.743343
v -0.459798 -0.881880 8.184311
v -0.000060 -0.646074 -6.355417
v 0.331403 -0.907547 -3.783062
v 0.322194 -0.939572 -5.388825
v -0.331524 -0.907547 -3.783062
v -0.000060 -0.270266 -6.352548
v 0.355417 0.589357 -5.388481
v -0.355538 0.589357 -5.388481
v -1.997895 -1.818275 4.213235
v 2.217516 1.085803 4.213234
v -3.259620 -1.297812 4.213235
v -2.645851 -1.342385 6.593721
v -1.431951 -1.021015 8.184311
v 1.431833 -1.021015 8.184311
v 2.645733 -1.342385 6.593721
v 3.259501 -1.297812 4.213234
v -0.000060 3.699347 4.213234
v -0.000060 3.997911 1.405258
v -0.000059 2.569467 6.593721
v -0.000059 0.906685 8.184310
v -0.000060 3.574503 -1.402717
v -0.000061 2.517930 -3.783203
v -0.000061 0.819002 -5.383528
v -0.000060 -0.017131 -6.068274
v -0.494883 -0.185962 -6.353412
v 0.494763 -0.185961 -6.353412
v 1.573640 -0.648688 -5.386896
v 1.607384 -0.648699 -3.784230
v 1.117329 -0.322976 -6.353699
v 0.915062 -0.424775 -7.014342
v 1.318837 -0.648656 -6.353700
v 1.061706 -0.648509 -7.014342
v 1.342754 -0.261734 -5.386895
v 0.952696 -0.488092 -1.399954
v 1.058450 -0.667993 -1.398644
v 1.370130 -0.284367 -3.784230
v -1.573759 -0.648688 -5.386896
v -1.607503 -0.648699 -3.784230
v -1.117447 -0.322976 -6.353699
v -0.915181 -0.424775 -7.014342
v -1.318956 -0.648656 -6.353700
v -1.061825 -0.648509 -7.014342
v -1.342873 -0.261734 -5.386895
v -0.952816 -0.488092 -1.399954
v -1.058570 -0.667993 -1.398644
v -1.370249 -0.284367 -3.784230
v -0.650863 -0.808915 -1.400047
v 0.663657 -0.808915 -1.400047
v 0.002590 -0.471600 8.741941
v -0.001376 -0.475119 8.737159
vt 0.222005 0.645833
vt 0.266927 0.589844
vt 0.266927 0.580729
vt 0.455078 0.925781
vt 0.460938 0.811942
vt 0.738839 0.865513
vt 0.455078 0.925781
vt 0.738839 0.865513
vt 0.740513 0.962612
vt 0.222656 0.820312
vt 0.217773 0.726074
vt 0.460938 0.811942
vt 0.222656 0.820312
vt 0.460938 0.811942
vt 0.455078 0.925781
vt 0.056641 0.664062
vt 0.064453 0.597656
vt 0.217773 0.726074
vt 0.056641 0.664062
vt 0.217773 0.726074
vt 0.222656 0.820312
vt 0.670898 0.322266
vt 0.961914 0.342773
vt 0.960938 0.416992
vt 0.670898 0.322266
vt 0.960938 0.416992
vt 0.673828 0.404297
vt 0.248064 0.987548
vt 0.211017 0.949519
vt 0.246812 0.880489
vt 0.248064 0.987548
vt 0.246812 0.880489
vt 0.282356 0.952469
vt 0.433594 0.751953
vt 0.439209 0.708576
vt 0.280253 0.677966
vt 0.433594 0.751953
vt 0.280253 0.677966
vt 0.277344 0.710938
vt 0.224494 0.671245
vt 0.280253 0.677966
vt 0.277344 0.710938
vt 0.681641 0.820312
vt 0.677104 0.744854
vt 0.439209 0.708576
vt 0.681641 0.820312
vt 0.439209 0.708576
vt 0.433594 0.751953
vt 0.500613 0.340256
vt 0.501163 0.297512
vt 0.349916 0.387726
vt 0.500613 0.340256
vt 0.349916 0.387726
vt 0.349916 0.456655
vt 0.677734 0.544922
vt 0.678711 0.513184
vt 0.432943 0.531250
vt 0.677734 0.544922
vt 0.432943 0.531250
vt 0.435547 0.548828
vt 0.435547 0.548828
vt 0.432943 0.531250
vt 0.266927 0.580729
vt 0.435547 0.548828
vt 0.266927 0.580729
vt 0.266927 0.589844
vt 0.224494 0.671245
vt 0.280253 0.677966
vt 0.279297 0.626953
vt 0.222005 0.645833
vt 0.266927 0.580729
vt 0.266927 0.589844
vt 0.439453 0.615234
vt 0.439209 0.708576
vt 0.280253 0.677966
vt 0.439453 0.615234
vt 0.280253 0.677966
vt 0.279297 0.626953
vt 0.677734 0.626953
vt 0.677104 0.744854
vt 0.439209 0.708576
vt 0.677734 0.626953
vt 0.439209 0.708576
vt 0.439453 0.615234
vt 0.962891 0.675781
vt 0.677104 0.744854
vt 0.677734 0.626953
vt 0.677734 0.544922
vt 0.678711 0.513184
vt 0.958984 0.656250
vt 0.277344 0.710938
vt 0.280253 0.677966
vt 0.439209 0.708576
vt 0.277344 0.710938
vt 0.439209 0.708576
vt 0.433594 0.751953
vt 0.433594 0.751953
vt 0.439209 0.708576
vt 0.677104 0.744854
vt 0.433594 0.751953
vt 0.677104 0.744854
vt 0.681641 0.820312
vt 0.681641 0.820312
vt 0.677104 0.744854
vt 0.962891 0.767578
vt 0.961914 0.342773
vt 0.961914 0.188477
vt 0.671875 0.159180
vt 0.961914 0.342773
vt 0.671875 0.159180
vt 0.670898 0.322266
vt 0.130353 0.453993
vt 0.130353 0.292642
vt 0.349916 0.287476
vt 0.130353 0.453993
vt 0.349916 0.287476
vt 0.349916 0.387726
vt 0.657650 0.104516
vt 0.655303 0.119369
vt 0.468389 0.118809
vt 0.657650 0.104516
vt 0.468389 0.118809
vt 0.472922 0.090119
vt 0.126193 0.096688
vt 0.131821 0.061065
vt 0.030940 0.028813
vt 0.056641 0.664062
vt 0.004261 0.552557
vt 0.064453 0.597656
vt 0.266927 0.589844
vt 0.266927 0.580729
vt 0.432943 0.531250
vt 0.266927 0.589844
vt 0.432943 0.531250
vt 0.435547 0.548828
vt 0.435547 0.548828
vt 0.432943 0.531250
vt 0.678711 0.513184
vt 0.435547 0.548828
vt 0.678711 0.513184
vt 0.677734 0.544922
vt 0.349916 0.456655
vt 0.349916 0.387726
vt 0.501163 0.297512
vt 0.349916 0.456655
vt 0.501163 0.297512
vt 0.500613 0.340256
vt 0.349916 0.387726
vt 0.130353 0.453993
vt 0.130353 0.533493
vt 0.349916 0.387726
vt 0.130353 0.533493
vt 0.349916 0.456655
vt 0.512277 0.349888
vt 0.349916 0.456655
vt 0.363839 0.486607
vt 0.363839 0.486607
vt 0.349916 0.456655
vt 0.512277 0.349888
vt 0.962891 0.675781
vt 0.962891 0.767578
vt 0.677104 0.744854
vt 0.551520 0.272995
vt 0.500613 0.340256
vt 0.501163 0.297512
vt 0.681641 0.820312
vt 0.960938 0.993164
vt 0.960938 0.902344
vt 0.670810 0.322443
vt 0.671875 0.159288
vt 0.961914 0.188477
vt 0.670810 0.322443
vt 0.961914 0.188477
vt 0.961914 0.342773
vt 0.960938 0.416992
vt 0.961914 0.342773
vt 0.670898 0.322266
vt 0.960938 0.416992
vt 0.670898 0.322266
vt 0.673828 0.404297
vt 0.960938 0.902344
vt 0.960938 0.993164
vt 0.681641 0.820312
vt 0.681641 0.820312
vt 0.962891 0.767578
vt 0.960938 0.902344
vt 0.222656 0.820312
vt 0.217773 0.726074
vt 0.064453 0.597656
vt 0.222656 0.820312
vt 0.064453 0.597656
vt 0.056641 0.664062
vt 0.960938 0.902344
vt 0.962891 0.767578
vt 0.681641 0.820312
vt 0.962891 0.767578
vt 0.677104 0.744854
vt 0.681641 0.820312
vt 0.130353 0.453993
vt 0.349916 0.387726
vt 0.349916 0.456655
vt 0.130353 0.453993
vt 0.349916 0.456655
vt 0.130353 0.533493
vt 0.477454 0.061428
vt 0.472922 0.090119
vt 0.468389 0.118809
vt 0.477454 0.061428
vt 0.468389 0.118809
vt 0.279890 0.127753
vt 0.477454 0.061428
vt 0.279890 0.127753
vt 0.287795 0.077716
vt 0.277344 0.710938
vt 0.280253 0.677966
vt 0.224494 0.671245
vt 0.349916 0.387726
vt 0.349916 0.287476
vt 0.130353 0.292642
vt 0.349916 0.387726
vt 0.130353 0.292642
vt 0.130353 0.453993
vt 0.279297 0.626953
vt 0.280253 0.677966
vt 0.439209 0.708576
vt 0.279297 0.626953
vt 0.439209 0.708576
vt 0.439453 0.615234
vt 0.439453 0.615234
vt 0.439209 0.708576
vt 0.677104 0.744854
vt 0.439453 0.615234
vt 0.677104 0.744854
vt 0.677734 0.626953
vt 0.677104 0.744854
vt 0.962891 0.767578
vt 0.962891 0.675781
vt 0.961914 0.099609
vt 0.961914 0.188477
vt 0.675485 0.158010
vt 0.961914 0.188477
vt 0.961914 0.099609
vt 0.671875 0.159180
vt 0.560781 0.914252
vt 0.574266 0.874062
vt 0.641508 0.894792
vt 0.560781 0.914252
vt 0.641508 0.894792
vt 0.629737 0.930432
vt 0.455078 0.925781
vt 0.460938 0.811942
vt 0.217773 0.726074
vt 0.455078 0.925781
vt 0.217773 0.726074
vt 0.222656 0.820312
vt 0.466001 0.875716
vt 0.478190 0.838507
vt 0.574266 0.874062
vt 0.466001 0.875716
vt 0.574266 0.874062
vt 0.560781 0.914252
vt 0.313509 0.795523
vt 0.308414 0.808614
vt 0.478190 0.838507
vt 0.478190 0.838507
vt 0.313509 0.795523
vt 0.308414 0.808614
vt 0.560781 0.914252
vt 0.574266 0.874062
vt 0.478190 0.838507
vt 0.560781 0.914252
vt 0.478190 0.838507
vt 0.466001 0.875716
vt 0.629737 0.930432
vt 0.560781 0.914252
vt 0.574266 0.874062
vt 0.629737 0.930432
vt 0.574266 0.874062
vt 0.641508 0.894792
vt 0.641508 0.894792
vt 0.629737 0.930432
vt 0.676853 0.941500
vt 0.641508 0.894792
vt 0.676853 0.941500
vt 0.685222 0.916162
vt 0.030940 0.028813
vt 0.131821 0.061065
vt 0.126193 0.096688
vt 0.677734 0.626953
vt 0.677104 0.744854
vt 0.962891 0.675781
vt 0.947266 0.353516
vt 0.960938 0.095703
vt 0.671094 0.156250
vt 0.947266 0.353516
vt 0.671094 0.156250
vt 0.681641 0.310547
vt 0.454241 0.925781
vt 0.459263 0.961496
vt 0.739955 0.992746
vt 0.454241 0.925781
vt 0.739955 0.992746
vt 0.740513 0.962612
vt 0.671875 0.471354
vt 0.670898 0.494141
vt 0.959635 0.545573
vt 0.671875 0.471354
vt 0.959635 0.545573
vt 0.960938 0.523438
vt 0.560781 0.914252
vt 0.574266 0.874062
vt 0.478190 0.838507
vt 0.560781 0.914252
vt 0.478190 0.838507
vt 0.466001 0.875716
vt 0.681641 0.310547
vt 0.671094 0.156250
vt 0.960938 0.095703
vt 0.681641 0.310547
vt 0.960938 0.095703
vt 0.947266 0.353516
vt 0.960938 0.902344
vt 0.962891 0.767578
vt 0.681641 0.820312
vt 0.681641 0.820312
vt 0.962891 0.767578
vt 0.960938 0.902344
vt 0.657650 0.104516
vt 0.813064 0.125240
vt 0.655303 0.119369
vt 0.130353 0.453993
vt 0.133594 0.289062
vt 0.349916 0.287476
vt 0.130353 0.453993
vt 0.349916 0.287476
vt 0.327344 0.396094
vt 0.500721 0.272813
vt 0.551520 0.272995
vt 0.501163 0.297512
vt 0.327344 0.396094
vt 0.349916 0.287476
vt 0.133594 0.289062
vt 0.327344 0.396094
vt 0.133594 0.289062
vt 0.130353 0.453993
vt 0.466001 0.875716
vt 0.478190 0.838507
vt 0.574266 0.874062
vt 0.466001 0.875716
vt 0.574266 0.874062
vt 0.560781 0.914252
vt 0.313509 0.795523
vt 0.308414 0.808614
vt 0.136719 0.700521
vt 0.661771 0.078348
vt 0.665802 0.053445
vt 0.477454 0.061428
vt 0.661771 0.078348
vt 0.477454 0.061428
vt 0.472922 0.090119
vt 0.287795 0.077716
vt 0.279890 0.127753
vt 0.468389 0.118809
vt 0.287795 0.077716
vt 0.468389 0.118809
vt 0.472922 0.090119
vt 0.287795 0.077716
vt 0.472922 0.090119
vt 0.477454 0.061428
vt 0.131821 0.061065
vt 0.126193 0.096688
vt 0.279890 0.127753
vt 0.131821 0.061065
vt 0.279890 0.127753
vt 0.287795 0.077716
vt 0.501163 0.297512
vt 0.500721 0.272813
vt 0.551520 0.272995
vt 0.287795 0.077716
vt 0.279890 0.127753
vt 0.126193 0.096688
vt 0.287795 0.077716
vt 0.126193 0.096688
vt 0.131821 0.061065
vt 0.129178 0.307165
vt 0.228151 0.332231
vt 0.228185 0.322188
vt 0.349916 0.287476
vt 0.500721 0.272813
vt 0.501163 0.297512
vt 0.129178 0.307165
vt 0.228197 0.307320
vt 0.228185 0.322188
vt 0.501163 0.297512
vt 0.500721 0.272813
vt 0.349916 0.287476
vt 0.501163 0.297512
vt 0.500613 0.340256
vt 0.551520 0.272995
vt 0.363770 0.486816
vt 0.302734 0.535645
vt 0.369629 0.498535
vt 0.619563 0.961238
vt 0.669864 0.962663
vt 0.616253 0.971260
vt 0.669864 0.962663
vt 0.668047 0.968164
vt 0.710504 0.949441
vt 0.960938 0.523438
vt 0.959635 0.545573
vt 0.670898 0.494141
vt 0.960938 0.523438
vt 0.670898 0.494141
vt 0.671875 0.471354
vt 0.130208 0.611979
vt 0.130208 0.623698
vt 0.369420 0.498326
vt 0.130208 0.611979
vt 0.369420 0.498326
vt 0.363839 0.486607
vt 0.512277 0.349888
vt 0.363839 0.486607
vt 0.369420 0.498326
vt 0.512277 0.349888
vt 0.369420 0.498326
vt 0.520508 0.356934
vt 0.629737 0.930432
vt 0.641508 0.894792
vt 0.574266 0.874062
vt 0.629737 0.930432
vt 0.574266 0.874062
vt 0.560781 0.914252
vt 0.629737 0.930432
vt 0.676853 0.941500
vt 0.685222 0.916162
vt 0.629737 0.930432
vt 0.685222 0.916162
vt 0.641508 0.894792
vt 0.685222 0.916162
vt 0.710504 0.949441
vt 0.676853 0.941500
vt 0.641508 0.894792
vt 0.574266 0.874062
vt 0.560781 0.914252
vt 0.641508 0.894792
vt 0.560781 0.914252
vt 0.629737 0.930432
vt 0.629737 0.930432
vt 0.641508 0.894792
vt 0.685222 0.916162
vt 0.629737 0.930432
vt 0.685222 0.916162
vt 0.676853 0.941500
vt 0.028869 0.184275
vt 0.029080 0.167327
vt 0.000000 0.212792
vt 0.958984 0.656250
vt 0.678711 0.513184
vt 0.677734 0.544922
vt 0.302734 0.535645
vt 0.369629 0.498535
vt 0.363770 0.486816
vt 0.520508 0.356934
vt 0.369420 0.498326
vt 0.363839 0.486607
vt 0.520508 0.356934
vt 0.363839 0.486607
vt 0.512277 0.349888
vt 0.472922 0.090119
vt 0.468389 0.118809
vt 0.655303 0.119369
vt 0.472922 0.090119
vt 0.655303 0.119369
vt 0.657650 0.104516
vt 0.000000 0.212792
vt 0.029046 0.241690
vt 0.028958 0.212857
vt 0.629737 0.930432
vt 0.641508 0.894792
vt 0.685222 0.916162
vt 0.629737 0.930432
vt 0.685222 0.916162
vt 0.676853 0.941500
vt 0.641508 0.894792
vt 0.629737 0.930432
vt 0.676853 0.941500
vt 0.641508 0.894792
vt 0.676853 0.941500
vt 0.685222 0.916162
vt 0.710504 0.949441
vt 0.676853 0.941500
vt 0.685222 0.916162
vt 0.685222 0.916162
vt 0.710504 0.949441
vt 0.676853 0.941500
vt 0.641508 0.894792
vt 0.685222 0.916162
vt 0.676853 0.941500
vt 0.641508 0.894792
vt 0.676853 0.941500
vt 0.629737 0.930432
vt 0.028958 0.212857
vt 0.028869 0.184275
vt 0.000000 0.212792
vt 0.472922 0.090119
vt 0.477454 0.061428
vt 0.665802 0.053445
vt 0.472922 0.090119
vt 0.665802 0.053445
vt 0.661771 0.078348
vt 0.308414 0.808614
vt 0.313509 0.795523
vt 0.478190 0.838507
vt 0.308414 0.808614
vt 0.478190 0.838507
vt 0.466001 0.875716
vt 0.655303 0.119369
vt 0.813064 0.125240
vt 0.657650 0.104516
vt 0.136719 0.700521
vt 0.308414 0.808614
vt 0.313509 0.795523
vt 0.363839 0.486607
vt 0.369420 0.498326
vt 0.130208 0.623698
vt 0.363839 0.486607
vt 0.130208 0.623698
vt 0.130208 0.611979
vt 0.669864 0.962663
vt 0.710504 0.949441
vt 0.668047 0.968164
vt 0.501163 0.297512
vt 0.349916 0.387726
vt 0.349916 0.287476
vt 0.349916 0.287476
vt 0.349916 0.387726
vt 0.501163 0.297512
vt 0.279297 0.626953
vt 0.280253 0.677966
vt 0.224494 0.671245
vt 0.466001 0.875716
vt 0.478190 0.838507
vt 0.313509 0.795523
vt 0.466001 0.875716
vt 0.313509 0.795523
vt 0.308414 0.808614
vt 0.228185 0.322188
vt 0.228151 0.332231
vt 0.129178 0.307165
vt 0.228185 0.322188
vt 0.228197 0.307320
vt 0.129178 0.307165
vt 0.056641 0.664062
vt 0.064453 0.597656
vt 0.004261 0.552557
vt 0.819843 0.082016
vt 0.820732 0.076466
vt 0.665802 0.053445
vt 0.819843 0.082016
vt 0.665802 0.053445
vt 0.661771 0.078348
vt 0.820732 0.076466
vt 0.819843 0.082016
vt 0.661771 0.078348
vt 0.820732 0.076466
vt 0.661771 0.078348
vt 0.665802 0.053445
vt 0.130469 0.611719
vt 0.130353 0.533493
vt 0.349916 0.456655
vt 0.130469 0.611719
vt 0.349916 0.456655
vt 0.363839 0.486607
vt 0.740234 0.962891
vt 0.738839 0.865513
vt 0.460938 0.811942
vt 0.740234 0.962891
vt 0.460938 0.811942
vt 0.455078 0.925781
vt 0.960938 0.523438
vt 0.960938 0.419922
vt 0.672852 0.404297
vt 0.960938 0.523438
vt 0.672852 0.404297
vt 0.671875 0.470703
vt 0.671875 0.470703
vt 0.672852 0.404297
vt 0.960938 0.419922
vt 0.671875 0.470703
vt 0.960938 0.419922
vt 0.960938 0.523438
vt 0.363839 0.486607
vt 0.349916 0.456655
vt 0.130353 0.533493
vt 0.363839 0.486607
vt 0.130353 0.533493
vt 0.130469 0.611719
vt 0.548692 0.950853
vt 0.619563 0.961238
vt 0.616253 0.971260
vt 0.548692 0.950853
vt 0.616253 0.971260
vt 0.543556 0.967040
vt 0.616253 0.971260
vt 0.669864 0.962663
vt 0.619563 0.961238
vt 0.302734 0.535645
vt 0.369629 0.498535
vt 0.363770 0.486816
vt 0.369629 0.498535
vt 0.302734 0.535645
vt 0.363770 0.486816
vt 0.616253 0.971260
vt 0.619563 0.961238
vt 0.669864 0.962663
vt 0.003906 0.552734
vt 0.056641 0.677734
vt 0.056463 0.664062
vt 0.616253 0.971260
vt 0.619563 0.961238
vt 0.669864 0.962663
vt 0.669864 0.962663
vt 0.619563 0.961238
vt 0.616253 0.971260
vt 0.543556 0.967040
vt 0.616253 0.971260
vt 0.619563 0.961238
vt 0.543556 0.967040
vt 0.619563 0.961238
vt 0.548692 0.950853
vt 0.963281 0.675781
vt 0.680469 0.592969
vt 0.678125 0.626562
vt 0.435547 0.548828
vt 0.435547 0.566406
vt 0.679688 0.568359
vt 0.435547 0.548828
vt 0.679688 0.568359
vt 0.677734 0.544922
vt 0.678125 0.626562
vt 0.680469 0.592969
vt 0.439844 0.586719
vt 0.678125 0.626562
vt 0.439844 0.586719
vt 0.439844 0.614844
vt 0.439844 0.614844
vt 0.439844 0.586719
vt 0.279687 0.614844
vt 0.439844 0.614844
vt 0.279687 0.614844
vt 0.278906 0.626562
vt 0.267188 0.589844
vt 0.265625 0.596875
vt 0.435547 0.566406
vt 0.267188 0.589844
vt 0.435547 0.566406
vt 0.435547 0.548828
vt 0.221875 0.646094
vt 0.265625 0.596875
vt 0.267188 0.589844
vt 0.278906 0.626562
vt 0.279687 0.614844
vt 0.224219 0.671094
vt 0.677734 0.544922
vt 0.679688 0.568359
vt 0.435547 0.566406
vt 0.677734 0.544922
vt 0.435547 0.566406
vt 0.435547 0.548828
vt 0.678125 0.626562
vt 0.680469 0.592969
vt 0.963281 0.675781
vt 0.958984 0.656250
vt 0.679688 0.568359
vt 0.677734 0.544922
vt 0.439844 0.614844
vt 0.439844 0.586719
vt 0.680469 0.592969
vt 0.439844 0.614844
vt 0.680469 0.592969
vt 0.678125 0.626562
vt 0.435547 0.548828
vt 0.435547 0.566406
vt 0.265625 0.596875
vt 0.435547 0.548828
vt 0.265625 0.596875
vt 0.267188 0.589844
vt 0.278906 0.626562
vt 0.279687 0.614844
vt 0.439844 0.586719
vt 0.278906 0.626562
vt 0.439844 0.586719
vt 0.439844 0.614844
vt 0.267188 0.589844
vt 0.265625 0.596875
vt 0.221875 0.646094
vt 0.224219 0.671094
vt 0.279687 0.614844
vt 0.278906 0.626562
vt 0.740513 0.962612
vt 0.739955 0.992746
vt 0.459263 0.961496
vt 0.740513 0.962612
vt 0.459263 0.961496
vt 0.454241 0.925781
vt 0.222656 0.819957
vt 0.220703 0.849609
vt 0.459263 0.961496
vt 0.222656 0.819957
vt 0.459263 0.961496
vt 0.454241 0.925781
vt 0.222656 0.819957
vt 0.056463 0.664062
vt 0.056641 0.677734
vt 0.222656 0.819957
vt 0.056641 0.677734
vt 0.220703 0.849609
vt 0.003906 0.552734
vt 0.056463 0.664062
vt 0.056641 0.677734
vt 0.677734 0.544922
vt 0.679688 0.568359
vt 0.958984 0.656250
vt 0.222656 0.819957
vt 0.220703 0.849609
vt 0.056641 0.677734
vt 0.222656 0.819957
vt 0.056641 0.677734
vt 0.056463 0.664062
vt 0.454241 0.925781
vt 0.459263 0.961496
vt 0.220703 0.849609
vt 0.454241 0.925781
vt 0.220703 0.849609
vt 0.222656 0.819957
vt 0.369629 0.498535
vt 0.302734 0.535645
vt 0.363770 0.486816
vt 0.369420 0.498326
vt 0.450195 0.427246
vt 0.441964 0.420201
vt 0.369420 0.498326
vt 0.441964 0.420201
vt 0.363839 0.486607
vt 0.363839 0.486607
vt 0.441964 0.420201
vt 0.450195 0.427246
vt 0.363839 0.486607
vt 0.450195 0.427246
vt 0.369420 0.498326
vt 0.466001 0.875716
vt 0.478190 0.838507
vt 0.574266 0.874062
vt 0.466001 0.875716
vt 0.574266 0.874062
vt 0.560781 0.914252
vt 0.616253 0.971260
vt 0.619563 0.961238
vt 0.669864 0.962663
vt 0.616253 0.971260
vt 0.669864 0.962663
vt 0.668047 0.968164
vt 0.668047 0.968164
vt 0.669864 0.962663
vt 0.710504 0.949441
vt 0.308414 0.808614
vt 0.313509 0.795523
vt 0.478190 0.838507
vt 0.308414 0.808614
vt 0.478190 0.838507
vt 0.466001 0.875716
vt 0.454619 0.910177
vt 0.466001 0.875716
vt 0.560781 0.914252
vt 0.454619 0.910177
vt 0.560781 0.914252
vt 0.548692 0.950853
vt 0.548692 0.950853
vt 0.560781 0.914252
vt 0.629737 0.930432
vt 0.548692 0.950853
vt 0.629737 0.930432
vt 0.619563 0.961238
vt 0.619563 0.961238
vt 0.629737 0.930432
vt 0.676853 0.941500
vt 0.619563 0.961238
vt 0.676853 0.941500
vt 0.669864 0.962663
vt 0.669864 0.962663
vt 0.676853 0.941500
vt 0.710504 0.949441
vt 0.548692 0.950853
vt 0.543556 0.967040
vt 0.448427 0.928516
vt 0.548692 0.950853
vt 0.448427 0.928516
vt 0.454619 0.910177
vt 0.543556 0.967040
vt 0.548692 0.950853
vt 0.619563 0.961238
vt 0.543556 0.967040
vt 0.619563 0.961238
vt 0.616253 0.971260
vt 0.136719 0.700521
vt 0.308414 0.808614
vt 0.302128 0.825387
vt 0.560781 0.914252
vt 0.574266 0.874062
vt 0.641508 0.894792
vt 0.560781 0.914252
vt 0.641508 0.894792
vt 0.629737 0.930432
vt 0.466001 0.875716
vt 0.454619 0.910177
vt 0.302128 0.825387
vt 0.466001 0.875716
vt 0.302128 0.825387
vt 0.308414 0.808614
vt 0.302128 0.825387
vt 0.297574 0.837610
vt 0.136719 0.700521
vt 0.641508 0.894792
vt 0.685222 0.916162
vt 0.676853 0.941500
vt 0.641508 0.894792
vt 0.676853 0.941500
vt 0.629737 0.930432
vt 0.685222 0.916162
vt 0.710504 0.949441
vt 0.676853 0.941500
vt 0.454619 0.910177
vt 0.448427 0.928516
vt 0.297574 0.837610
vt 0.454619 0.910177
vt 0.297574 0.837610
vt 0.302128 0.825387
vt 0.313509 0.795523
vt 0.308414 0.808614
vt 0.136719 0.700521
vt 0.560781 0.914252
vt 0.574266 0.874062
vt 0.478190 0.838507
vt 0.560781 0.914252
vt 0.478190 0.838507
vt 0.466001 0.875716
vt 0.668047 0.968164
vt 0.669864 0.962663
vt 0.619563 0.961238
vt 0.668047 0.968164
vt 0.619563 0.961238
vt 0.616253 0.971260
vt 0.710504 0.949441
vt 0.669864 0.962663
vt 0.668047 0.968164
vt 0.466001 0.875716
vt 0.478190 0.838507
vt 0.313509 0.795523
vt 0.466001 0.875716
vt 0.313509 0.795523
vt 0.308414 0.808614
vt 0.548692 0.950853
vt 0.560781 0.914252
vt 0.466001 0.875716
vt 0.548692 0.950853
vt 0.466001 0.875716
vt 0.454619 0.910177
vt 0.619563 0.961238
vt 0.629737 0.930432
vt 0.560781 0.914252
vt 0.619563 0.961238
vt 0.560781 0.914252
vt 0.548692 0.950853
vt 0.669864 0.962663
vt 0.676853 0.941500
vt 0.629737 0.930432
vt 0.669864 0.962663
vt 0.629737 0.930432
vt 0.619563 0.961238
vt 0.710504 0.949441
vt 0.676853 0.941500
vt 0.669864 0.962663
vt 0.454619 0.910177
vt 0.448427 0.928516
vt 0.543556 0.967040
vt 0.454619 0.910177
vt 0.543556 0.967040
vt 0.548692 0.950853
vt 0.616253 0.971260
vt 0.619563 0.961238
vt 0.548692 0.950853
vt 0.616253 0.971260
vt 0.548692 0.950853
vt 0.543556 0.967040
vt 0.302128 0.825387
vt 0.308414 0.808614
vt 0.136719 0.700521
vt 0.629737 0.930432
vt 0.641508 0.894792
vt 0.574266 0.874062
vt 0.629737 0.930432
vt 0.574266 0.874062
vt 0.560781 0.914252
vt 0.308414 0.808614
vt 0.302128 0.825387
vt 0.454619 0.910177
vt 0.308414 0.808614
vt 0.454619 0.910177
vt 0.466001 0.875716
vt 0.136719 0.700521
vt 0.297574 0.837610
vt 0.302128 0.825387
vt 0.629737 0.930432
vt 0.676853 0.941500
vt 0.685222 0.916162
vt 0.629737 0.930432
vt 0.685222 0.916162
vt 0.641508 0.894792
vt 0.676853 0.941500
vt 0.710504 0.949441
vt 0.685222 0.916162
vt 0.302128 0.825387
vt 0.297574 0.837610
vt 0.448427 0.928516
vt 0.302128 0.825387
vt 0.448427 0.928516
vt 0.454619 0.910177
vt 0.136719 0.700521
vt 0.308414 0.808614
vt 0.313509 0.795523
vt 0.000000 0.000000
vt 0.000000 0.000000
vt 0.000000 0.000000
vt 0.000000 0.000000
vt 0.000000 0.000000
vt 0.000000 0.000000
vt 0.000000 0.000000
vt 0.000000 0.000000
vt 0.000000 0.000000
vt 0.000000 0.000000
vt 0.000000 0.000000
vt 0.000000 0.000000
vt 0.000000 0.000000
vt 0.000000 0.000000
vt 0.000000 0.000000
vt 0.000000 0.000000
vt 0.000000 0.000000
vt 0.000000 0.000000
vt 0.000000 0.000000
vt 0.000000 0.000000
vt 0.000000 0.000000
vt 0.000000 0.000000
vt 0.000000 0.000000
vt 0.000000 0.000000
vt 0.000000 0.000000
vt 0.000000 0.000000
vt 0.000000 0.000000
vt 0.000000 0.000000
vt 0.000000 0.000000
vt 0.000000 0.000000
vt 0.000000 0.000000
vt 0.000000 0.000000
vt 0.000000 0.000000
vt 0.000000 0.000000
vt 0.000000 0.000000
vt 0.000000 0.000000
vt 0.000000 0.000000
vt 0.000000 0.000000
vt 0.000000 0.000000
vt 0.000000 0.000000
vt 0.000000 0.000000
vt 0.000000 0.000000
vt 0.000000 0.000000
vt 0.000000 0.000000
vt 0.000000 0.000000
vt 0.000000 0.000000
vt 0.000000 0.000000
vt 0.000000 0.000000
vt 0.000000 0.000000
vt 0.000000 0.000000
vt 0.000000 0.000000
vt 0.000000 0.000000
vt 0.000000 0.000000
vt 0.000000 0.000000
vt 0.000000 0.000000
vt 0.000000 0.000000
vt 0.000000 0.000000
vt 0.000000 0.000000
vt 0.000000 0.000000
vt 0.000000 0.000000
vt 0.000000 0.000000
vt 0.000000 0.000000
vt 0.000000 0.000000
vt 0.000000 0.000000
vt 0.000000 0.000000
vt 0.000000 0.000000
vt 0.000000 0.000000
vt 0.000000 0.000000
vt 0.000000 0.000000
vt 0.000000 0.000000
vt 0.000000 0.000000
vt 0.000000 0.000000
vt 0.000000 0.000000
vt 0.000000 0.000000
vt 0.000000 0.000000
vt 0.000000 0.000000
vt 0.000000 0.000000
vt 0.000000 0.000000
vt 0.000000 0.000000
vt 0.000000 0.000000
vt 0.000000 0.000000
vt 0.000000 0.000000
vt 0.000000 0.000000
vt 0.000000 0.000000
vt 0.000000 0.000000
vt 0.000000 0.000000
vt 0.000000 0.000000
vt 0.000000 0.000000
vt 0.000000 0.000000
vt 0.000000 0.000000
vn -0.317854 -0.075999 0.945089
vn -0.280685 -0.661578 0.695364
vn -0.280753 -0.661738 0.695184
vn 0.594916 0.766544 0.241839
vn 0.596393 0.759710 0.259144
vn 0.662381 0.746781 0.059747
vn 0.594916 0.766544 0.241839
vn 0.662381 0.746781 0.059747
vn 0.556272 0.831000 -0.000374
vn 0.575384 0.653334 0.492024
vn 0.583022 0.643830 0.495549
vn 0.596393 0.759710 0.259144
vn 0.575384 0.653334 0.492024
vn 0.596393 0.759710 0.259144
vn 0.594916 0.766544 0.241839
vn 0.447424 0.475844 0.757221
vn 0.452944 0.472068 0.756302
vn 0.583022 0.643830 0.495549
vn 0.447424 0.475844 0.757221
vn 0.583022 0.643830 0.495549
vn 0.575384 0.653334 0.492024
vn -0.878497 0.430794 -0.206542
vn -0.891062 0.445061 0.089049
vn -0.662381 0.746781 0.059747
vn -0.878497 0.430794 -0.206542
vn -0.662381 0.746781 0.059747
vn -0.615158 0.754240 -0.229572
vn 0.000000 -0.861631 0.507536
vn -0.277380 -0.868776 0.410231
vn -0.000000 -0.962303 0.271980
vn 0.000000 -0.861631 0.507536
vn -0.000000 -0.962303 0.271980
vn 0.277380 -0.868776 0.410230
vn -0.635233 0.667401 0.388657
vn -0.783303 0.465897 0.411555
vn -0.569233 0.339504 0.748807
vn -0.635233 0.667401 0.388657
vn -0.569233 0.339504 0.748807
vn -0.492629 0.515910 0.700823
vn 0.316629 -0.076206 0.945483
vn 0.568521 0.339108 0.749526
vn 0.491958 0.515325 0.701725
vn -0.804814 0.542672 0.240378
vn -0.925665 0.349558 0.144750
vn -0.783303 0.465897 0.411555
vn -0.804814 0.542672 0.240378
vn -0.783303 0.465897 0.411555
vn -0.635233 0.667401 0.388657
vn -0.480988 0.567821 -0.668005
vn -0.760842 0.220518 -0.610320
vn -0.773944 0.363548 -0.518501
vn -0.480988 0.567821 -0.668005
vn -0.773944 0.363548 -0.518501
vn -0.534483 0.654691 -0.534516
vn -0.379886 -0.916981 -0.121791
vn -0.266951 -0.934644 -0.234897
vn -0.373216 -0.890233 0.261143
vn -0.379886 -0.916981 -0.121791
vn -0.373216 -0.890233 0.261143
vn -0.373148 -0.890070 0.261792
vn -0.373148 -0.890070 0.261792
vn -0.373216 -0.890233 0.261143
vn -0.280753 -0.661738 0.695184
vn -0.373148 -0.890070 0.261792
vn -0.280753 -0.661738 0.695184
vn -0.280685 -0.661578 0.695364
vn -0.317854 -0.075999 0.945089
vn -0.569233 0.339504 0.748807
vn -0.621335 0.149482 0.769154
vn 0.316629 -0.076206 0.945483
vn 0.280662 -0.661526 0.695422
vn 0.280594 -0.661366 0.695602
vn 0.881824 0.232366 0.410357
vn 0.783303 0.465897 0.411555
vn 0.568521 0.339108 0.749526
vn 0.881824 0.232366 0.410357
vn 0.568521 0.339108 0.749526
vn 0.620655 0.149343 0.769730
vn 0.960473 0.258490 0.103314
vn 0.925665 0.349558 0.144750
vn 0.783303 0.465897 0.411555
vn 0.960473 0.258490 0.103314
vn 0.783303 0.465897 0.411555
vn 0.881824 0.232366 0.410357
vn 0.998168 0.056523 -0.021578
vn 0.925665 0.349558 0.144750
vn 0.960473 0.258490 0.103314
vn 0.379886 -0.916981 -0.121791
vn 0.266951 -0.934644 -0.234898
vn 0.199572 -0.925873 -0.320828
vn 0.491958 0.515325 0.701725
vn 0.568521 0.339108 0.749526
vn 0.783303 0.465897 0.411555
vn 0.491958 0.515325 0.701725
vn 0.783303 0.465897 0.411555
vn 0.635233 0.667402 0.388657
vn 0.635233 0.667402 0.388657
vn 0.783303 0.465897 0.411555
vn 0.925665 0.349558 0.144750
vn 0.635233 0.667402 0.388657
vn 0.925665 0.349558 0.144750
vn 0.804814 0.542672 0.240378
vn 0.804814 0.542672 0.240378
vn 0.925665 0.349558 0.144750
vn 0.985077 0.163862 0.052650
vn 0.891062 0.445061 0.089048
vn 0.985077 0.163862 0.052650
vn 0.986403 0.081456 -0.142735
vn 0.891062 0.445061 0.089048
vn 0.986403 0.081456 -0.142735
vn 0.878497 0.430794 -0.206542
vn 0.878497 0.430794 -0.206542
vn 0.986403 0.081456 -0.142735
vn 0.823025 0.108186 -0.557608
vn 0.878497 0.430794 -0.206542
vn 0.823025 0.108186 -0.557608
vn 0.773944 0.363548 -0.518501
vn -0.115235 -0.993046 -0.024078
vn -0.618711 -0.780248 -0.091706
vn -0.596784 -0.791498 -0.131833
vn -0.115235 -0.993046 -0.024078
vn -0.596784 -0.791498 -0.131833
vn -0.426877 -0.898444 -0.102832
vn -0.000000 -0.962303 0.271980
vn 0.553025 -0.816784 0.164399
vn 0.277380 -0.868776 0.410230
vn 0.447424 0.475844 0.757221
vn 0.000001 0.378438 0.925626
vn 0.452944 0.472068 0.756302
vn 0.280594 -0.661366 0.695602
vn 0.280662 -0.661526 0.695422
vn 0.373216 -0.890233 0.261143
vn 0.280594 -0.661366 0.695602
vn 0.373216 -0.890233 0.261143
vn 0.373148 -0.890071 0.261792
vn 0.373148 -0.890071 0.261792
vn 0.373216 -0.890233 0.261143
vn 0.266951 -0.934644 -0.234898
vn 0.373148 -0.890071 0.261792
vn 0.266951 -0.934644 -0.234898
vn 0.379886 -0.916981 -0.121791
vn 0.534483 0.654691 -0.534516
vn 0.773944 0.363548 -0.518501
vn 0.760842 0.220521 -0.610320
vn 0.534483 0.654691 -0.534516
vn 0.760842 0.220521 -0.610320
vn 0.480988 0.567821 -0.668004
vn -0.773944 0.363548 -0.518501
vn -0.878497 0.430794 -0.206542
vn -0.615158 0.754240 -0.229572
vn -0.773944 0.363548 -0.518501
vn -0.615158 0.754240 -0.229572
vn -0.534483 0.654691 -0.534516
vn -0.480988 0.567821 -0.668005
vn -0.534483 0.654691 -0.534516
vn -0.431181 0.735697 -0.522334
vn 0.431181 0.735697 -0.522334
vn 0.534483 0.654691 -0.534516
vn 0.480988 0.567821 -0.668004
vn 0.998168 0.056523 -0.021578
vn 0.985077 0.163862 0.052650
vn 0.925665 0.349558 0.144750
vn 0.472195 0.719207 -0.509680
vn 0.480988 0.567821 -0.668004
vn 0.760842 0.220521 -0.610320
vn -0.804814 0.542672 0.240378
vn -0.662381 0.746781 0.059747
vn -0.891062 0.445061 0.089049
vn -0.878497 0.430794 -0.206542
vn -0.986404 0.081456 -0.142734
vn -0.985077 0.163862 0.052650
vn -0.878497 0.430794 -0.206542
vn -0.985077 0.163862 0.052650
vn -0.891062 0.445061 0.089049
vn 0.662381 0.746781 0.059747
vn 0.891062 0.445061 0.089048
vn 0.878497 0.430794 -0.206542
vn 0.662381 0.746781 0.059747
vn 0.878497 0.430794 -0.206542
vn 0.615158 0.754240 -0.229572
vn 0.891062 0.445061 0.089048
vn 0.662381 0.746781 0.059747
vn 0.804814 0.542672 0.240378
vn 0.804814 0.542672 0.240378
vn 0.985077 0.163862 0.052650
vn 0.891062 0.445061 0.089048
vn -0.571614 0.655387 0.493685
vn -0.586398 0.641461 0.494636
vn -0.454264 0.470287 0.756620
vn -0.571614 0.655387 0.493685
vn -0.454264 0.470287 0.756620
vn -0.444501 0.475888 0.758913
vn -0.891062 0.445061 0.089049
vn -0.985077 0.163862 0.052650
vn -0.804814 0.542672 0.240378
vn -0.985077 0.163862 0.052650
vn -0.925665 0.349558 0.144750
vn -0.804814 0.542672 0.240378
vn 0.878497 0.430794 -0.206542
vn 0.773944 0.363548 -0.518501
vn 0.534483 0.654691 -0.534516
vn 0.878497 0.430794 -0.206542
vn 0.534483 0.654691 -0.534516
vn 0.615158 0.754240 -0.229572
vn -0.334859 -0.909878 -0.244932
vn -0.426877 -0.898444 -0.102832
vn -0.596784 -0.791498 -0.131833
vn -0.334859 -0.909878 -0.244932
vn -0.596784 -0.791498 -0.131833
vn -0.579408 -0.813277 -0.053541
vn -0.334859 -0.909878 -0.244932
vn -0.579408 -0.813277 -0.053541
vn -0.579408 -0.813277 -0.053541
vn -0.492629 0.515910 0.700823
vn -0.569233 0.339504 0.748807
vn -0.317854 -0.075999 0.945089
vn -0.773944 0.363548 -0.518501
vn -0.823025 0.108184 -0.557608
vn -0.986404 0.081456 -0.142734
vn -0.773944 0.363548 -0.518501
vn -0.986404 0.081456 -0.142734
vn -0.878497 0.430794 -0.206542
vn -0.621335 0.149482 0.769154
vn -0.569233 0.339504 0.748807
vn -0.783303 0.465897 0.411555
vn -0.621335 0.149482 0.769154
vn -0.783303 0.465897 0.411555
vn -0.881824 0.232366 0.410357
vn -0.881824 0.232366 0.410357
vn -0.783303 0.465897 0.411555
vn -0.925665 0.349558 0.144750
vn -0.881824 0.232366 0.410357
vn -0.925665 0.349558 0.144750
vn -0.960473 0.258490 0.103314
vn -0.925665 0.349558 0.144750
vn -0.985077 0.163862 0.052650
vn -0.998168 0.056523 -0.021578
vn -0.998168 0.056523 -0.021578
vn -0.985077 0.163862 0.052650
vn -0.986404 0.081456 -0.142734
vn 0.985077 0.163862 0.052650
vn 0.998168 0.056523 -0.021578
vn 0.986403 0.081456 -0.142735
vn 0.489896 -0.871599 -0.017802
vn -0.025441 -0.999281 -0.028109
vn -0.046127 -0.990154 -0.132164
vn 0.489896 -0.871599 -0.017802
vn -0.046127 -0.990154 -0.132164
vn 0.519964 -0.844222 -0.130103
vn -0.593459 0.767875 0.241191
vn -0.598181 0.758804 0.257674
vn -0.586398 0.641461 0.494636
vn -0.593459 0.767875 0.241191
vn -0.586398 0.641461 0.494636
vn -0.571614 0.655387 0.493685
vn 0.388756 -0.920864 0.029627
vn -0.038771 -0.998072 0.048466
vn -0.025441 -0.999281 -0.028109
vn 0.388756 -0.920864 0.029627
vn -0.025441 -0.999281 -0.028109
vn 0.489896 -0.871599 -0.017802
vn 0.388756 -0.920864 0.029627
vn 0.463399 -0.886071 0.011801
vn -0.115235 -0.993046 -0.024078
vn 0.116908 -0.992853 -0.023989
vn -0.463397 -0.886072 0.011801
vn -0.387773 -0.921272 0.029825
vn -0.489895 -0.871600 -0.017802
vn 0.025442 -0.999281 -0.028109
vn 0.040704 -0.997994 0.048484
vn -0.489895 -0.871600 -0.017802
vn 0.040704 -0.997994 0.048484
vn -0.387773 -0.921272 0.029825
vn -0.519963 -0.844222 -0.130103
vn -0.489895 -0.871600 -0.017802
vn -0.593886 -0.804255 -0.021766
vn -0.519963 -0.844222 -0.130103
vn -0.593886 -0.804255 -0.021766
vn -0.800283 -0.524052 -0.291403
vn 0.800283 -0.524053 -0.291402
vn 0.519964 -0.844222 -0.130103
vn 0.539704 -0.771453 -0.337016
vn 0.800283 -0.524053 -0.291402
vn 0.539704 -0.771453 -0.337016
vn 0.824511 -0.264643 -0.500146
vn -0.277380 -0.868776 0.410231
vn -0.553025 -0.816784 0.164399
vn -0.000000 -0.962303 0.271980
vn -0.960473 0.258490 0.103314
vn -0.925665 0.349558 0.144750
vn -0.998168 0.056523 -0.021578
vn -0.334859 -0.909878 -0.244932
vn -0.199572 -0.925873 -0.320828
vn -0.040899 -0.995439 -0.086185
vn -0.334859 -0.909878 -0.244932
vn -0.040899 -0.995439 -0.086185
vn -0.316702 -0.943535 -0.097162
vn -0.593459 0.767875 0.241191
vn -0.588508 0.776669 0.224598
vn -0.567937 0.822923 -0.015696
vn -0.593459 0.767875 0.241191
vn -0.567937 0.822923 -0.015696
vn -0.556272 0.831000 -0.000374
vn 0.506539 0.829355 -0.235772
vn 0.535702 0.810464 -0.237005
vn 0.567937 0.822923 -0.015696
vn 0.506539 0.829355 -0.235772
vn 0.567937 0.822923 -0.015696
vn 0.556272 0.831000 -0.000374
vn 0.489896 -0.871599 -0.017802
vn 0.593887 -0.804254 -0.021766
vn 0.463399 -0.886071 0.011801
vn 0.489896 -0.871599 -0.017802
vn 0.463399 -0.886071 0.011801
vn 0.388756 -0.920864 0.029627
vn 0.316703 -0.943535 -0.097162
vn 0.040899 -0.995439 -0.086185
vn 0.199572 -0.925873 -0.320828
vn 0.316703 -0.943535 -0.097162
vn 0.199572 -0.925873 -0.320828
vn 0.334859 -0.909878 -0.244932
vn 0.334859 -0.909878 -0.244932
vn 0.199572 -0.925873 -0.320828
vn 0.266951 -0.934644 -0.234898
vn -0.266951 -0.934644 -0.234897
vn -0.199572 -0.925873 -0.320828
vn -0.334859 -0.909878 -0.244932
vn -0.115235 -0.993046 -0.024078
vn -0.628839 -0.773868 -0.075428
vn -0.618711 -0.780248 -0.091706
vn -0.316702 -0.943535 -0.097162
vn -0.040899 -0.995439 -0.086185
vn -0.049764 -0.998393 0.027094
vn -0.316702 -0.943535 -0.097162
vn -0.049764 -0.998393 0.027094
vn -0.213269 -0.976993 0.000653
vn -0.472196 0.719206 -0.509680
vn -0.842068 -0.003290 -0.539362
vn -0.760842 0.220518 -0.610320
vn 0.213269 -0.976993 0.000653
vn 0.049764 -0.998393 0.027094
vn 0.040899 -0.995439 -0.086185
vn 0.213269 -0.976993 0.000653
vn 0.040899 -0.995439 -0.086185
vn 0.316703 -0.943535 -0.097162
vn -0.387773 -0.921272 0.029825
vn -0.463397 -0.886072 0.011801
vn -0.593886 -0.804255 -0.021766
vn -0.387773 -0.921272 0.029825
vn -0.593886 -0.804255 -0.021766
vn -0.489895 -0.871600 -0.017802
vn -0.090058 -0.995720 0.020789
vn -0.115235 -0.993046 -0.024078
vn -0.426877 -0.898444 -0.102832
vn 0.567325 -0.817341 -0.100476
vn 0.316703 -0.943535 -0.097162
vn 0.334859 -0.909878 -0.244932
vn 0.567325 -0.817341 -0.100476
vn 0.334859 -0.909878 -0.244932
vn 0.429365 -0.897299 -0.102470
vn 0.579408 -0.813277 -0.053542
vn 0.579408 -0.813277 -0.053542
vn 0.596784 -0.791498 -0.131833
vn 0.579408 -0.813277 -0.053542
vn 0.596784 -0.791498 -0.131833
vn 0.429365 -0.897299 -0.102470
vn 0.579408 -0.813277 -0.053542
vn 0.429365 -0.897299 -0.102470
vn 0.334859 -0.909878 -0.244932
vn 0.553025 -0.816784 0.164399
vn -0.000000 -0.962303 0.271980
vn 0.579408 -0.813277 -0.053542
vn 0.553025 -0.816784 0.164399
vn 0.579408 -0.813277 -0.053542
vn 0.579408 -0.813277 -0.053542
vn 0.760842 0.220521 -0.610320
vn 0.842067 -0.003283 -0.539363
vn 0.472195 0.719207 -0.509680
vn -0.579408 -0.813277 -0.053541
vn -0.579408 -0.813277 -0.053541
vn -0.000000 -0.962303 0.271980
vn -0.579408 -0.813277 -0.053541
vn -0.000000 -0.962303 0.271980
vn -0.553025 -0.816784 0.164399
vn 0.141661 -0.989707 0.020295
vn 0.049764 -0.998393 0.027094
vn 0.213269 -0.976993 0.000653
vn 0.823025 0.108186 -0.557608
vn 0.842067 -0.003283 -0.539363
vn 0.760842 0.220521 -0.610320
vn -0.141660 -0.989707 0.020295
vn -0.372625 -0.927615 -0.026115
vn -0.213269 -0.976993 0.000653
vn -0.760842 0.220518 -0.610320
vn -0.842068 -0.003290 -0.539362
vn -0.823025 0.108184 -0.557608
vn -0.760842 0.220518 -0.610320
vn -0.480988 0.567821 -0.668005
vn -0.472196 0.719206 -0.509680
vn 0.472195 0.719207 -0.509680
vn -0.000000 0.858335 -0.513090
vn -0.000000 0.695540 -0.718487
vn -0.045622 0.924672 -0.378023
vn -0.629222 0.563598 -0.535198
vn -0.000000 0.858335 -0.513090
vn -0.629222 0.563598 -0.535198
vn -0.045622 0.924672 -0.378023
vn -0.237118 0.075590 -0.968536
vn -0.556272 0.831000 -0.000374
vn -0.567937 0.822923 -0.015696
vn -0.535702 0.810464 -0.237005
vn -0.556272 0.831000 -0.000374
vn -0.535702 0.810464 -0.237005
vn -0.506539 0.829355 -0.235771
vn -0.506539 0.829355 -0.235771
vn -0.535702 0.810464 -0.237005
vn -0.000000 0.813168 -0.582029
vn -0.506539 0.829355 -0.235771
vn -0.000000 0.813168 -0.582029
vn -0.431181 0.735697 -0.522334
vn -0.480988 0.567821 -0.668005
vn -0.431181 0.735697 -0.522334
vn -0.000000 0.813168 -0.582029
vn -0.480988 0.567821 -0.668005
vn -0.000000 0.813168 -0.582029
vn -0.000000 0.662101 -0.749415
vn -0.519963 -0.844222 -0.130103
vn 0.046127 -0.990154 -0.132164
vn 0.025442 -0.999281 -0.028109
vn -0.519963 -0.844222 -0.130103
vn 0.025442 -0.999281 -0.028109
vn -0.489895 -0.871600 -0.017802
vn -0.519963 -0.844222 -0.130103
vn -0.539703 -0.771453 -0.337017
vn 0.035431 -0.936606 -0.348589
vn -0.519963 -0.844222 -0.130103
vn 0.035431 -0.936606 -0.348589
vn 0.046127 -0.990154 -0.132164
vn -0.539703 -0.771453 -0.337017
vn -0.237118 0.075590 -0.968536
vn 0.035431 -0.936606 -0.348589
vn 0.800283 -0.524053 -0.291402
vn 0.593887 -0.804254 -0.021766
vn 0.489896 -0.871599 -0.017802
vn 0.800283 -0.524053 -0.291402
vn 0.489896 -0.871599 -0.017802
vn 0.519964 -0.844222 -0.130103
vn 0.519964 -0.844222 -0.130103
vn -0.046127 -0.990154 -0.132164
vn -0.035430 -0.936606 -0.348590
vn 0.519964 -0.844222 -0.130103
vn -0.035430 -0.936606 -0.348590
vn 0.539704 -0.771453 -0.337016
vn 0.539704 -0.771453 -0.337016
vn -0.035430 -0.936606 -0.348590
vn 0.237118 0.075590 -0.968536
vn -0.199572 -0.925873 -0.320828
vn -0.266951 -0.934644 -0.234897
vn -0.379886 -0.916981 -0.121791
vn -0.000000 0.858335 -0.513090
vn 0.629223 0.563597 -0.535198
vn 0.045621 0.924672 -0.378023
vn -0.000000 0.662101 -0.749415
vn -0.000000 0.813168 -0.582029
vn 0.431181 0.735697 -0.522334
vn -0.000000 0.662101 -0.749415
vn 0.431181 0.735697 -0.522334
vn 0.480988 0.567821 -0.668004
vn 0.429365 -0.897299 -0.102470
vn 0.596784 -0.791498 -0.131833
vn 0.618711 -0.780248 -0.091706
vn 0.429365 -0.897299 -0.102470
vn 0.618711 -0.780248 -0.091706
vn 0.116908 -0.992853 -0.023989
vn 0.237118 0.075590 -0.968536
vn 0.629223 0.563597 -0.535198
vn 0.824511 -0.264643 -0.500146
vn -0.000000 0.858335 -0.513090
vn 0.800283 -0.524053 -0.291402
vn 0.824511 -0.264643 -0.500146
vn -0.000000 0.858335 -0.513090
vn 0.824511 -0.264643 -0.500146
vn 0.629223 0.563597 -0.535198
vn -0.800283 -0.524052 -0.291403
vn -0.000000 0.858335 -0.513090
vn -0.629222 0.563598 -0.535198
vn -0.800283 -0.524052 -0.291403
vn -0.629222 0.563598 -0.535198
vn -0.824511 -0.264642 -0.500147
vn -0.824511 -0.264642 -0.500147
vn -0.629222 0.563598 -0.535198
vn -0.237118 0.075590 -0.968536
vn -0.237118 0.075590 -0.968536
vn -0.539703 -0.771453 -0.337017
vn -0.824511 -0.264642 -0.500147
vn -0.800283 -0.524052 -0.291403
vn -0.824511 -0.264642 -0.500147
vn -0.539703 -0.771453 -0.337017
vn -0.800283 -0.524052 -0.291403
vn -0.539703 -0.771453 -0.337017
vn -0.519963 -0.844222 -0.130103
vn 0.824511 -0.264643 -0.500146
vn 0.539704 -0.771453 -0.337016
vn 0.237118 0.075590 -0.968536
vn -0.426877 -0.898444 -0.102832
vn -0.334859 -0.909878 -0.244932
vn -0.316702 -0.943535 -0.097162
vn -0.426877 -0.898444 -0.102832
vn -0.316702 -0.943535 -0.097162
vn -0.567324 -0.817342 -0.100476
vn -0.115235 -0.993046 -0.024078
vn -0.090058 -0.995720 0.020789
vn -0.038771 -0.998072 0.048466
vn -0.115235 -0.993046 -0.024078
vn -0.038771 -0.998072 0.048466
vn 0.388756 -0.920864 0.029627
vn 0.618711 -0.780248 -0.091706
vn 0.628839 -0.773868 -0.075429
vn 0.116908 -0.992853 -0.023989
vn 0.429365 -0.897299 -0.102470
vn 0.116908 -0.992853 -0.023989
vn 0.095368 -0.995217 0.021188
vn 0.431181 0.735697 -0.522334
vn -0.000000 0.813168 -0.582029
vn 0.535702 0.810464 -0.237005
vn 0.431181 0.735697 -0.522334
vn 0.535702 0.810464 -0.237005
vn 0.506539 0.829355 -0.235772
vn 0.629223 0.563597 -0.535198
vn 0.237118 0.075590 -0.968536
vn 0.045621 0.924672 -0.378023
vn 0.760842 0.220521 -0.610320
vn 0.773944 0.363548 -0.518501
vn 0.823025 0.108186 -0.557608
vn -0.823025 0.108184 -0.557608
vn -0.773944 0.363548 -0.518501
vn -0.760842 0.220518 -0.610320
vn 0.620655 0.149343 0.769730
vn 0.568521 0.339108 0.749526
vn 0.316629 -0.076206 0.945483
vn -0.387773 -0.921272 0.029825
vn 0.040704 -0.997994 0.048484
vn 0.095368 -0.995217 0.021188
vn -0.387773 -0.921272 0.029825
vn 0.095368 -0.995217 0.021188
vn 0.116908 -0.992853 -0.023989
vn -0.213269 -0.976993 0.000653
vn -0.049764 -0.998393 0.027094
vn -0.141660 -0.989707 0.020295
vn 0.213269 -0.976993 0.000653
vn 0.372625 -0.927614 -0.026115
vn 0.141661 -0.989707 0.020295
vn -0.444501 0.475888 0.758913
vn -0.454264 0.470287 0.756620
vn 0.000001 0.378438 0.925626
vn 0.372625 -0.927614 -0.026115
vn 0.213269 -0.976993 0.000653
vn 0.316703 -0.943535 -0.097162
vn 0.372625 -0.927614 -0.026115
vn 0.316703 -0.943535 -0.097162
vn 0.567325 -0.817341 -0.100476
vn -0.213269 -0.976993 0.000653
vn -0.372625 -0.927615 -0.026115
vn -0.567324 -0.817342 -0.100476
vn -0.213269 -0.976993 0.000653
vn -0.567324 -0.817342 -0.100476
vn -0.316702 -0.943535 -0.097162
vn 0.506539 0.829355 -0.235772
vn 0.615158 0.754240 -0.229572
vn 0.534483 0.654691 -0.534516
vn 0.506539 0.829355 -0.235772
vn 0.534483 0.654691 -0.534516
vn 0.431181 0.735697 -0.522334
vn -0.556272 0.831000 -0.000374
vn -0.662381 0.746781 0.059747
vn -0.598181 0.758804 0.257674
vn -0.556272 0.831000 -0.000374
vn -0.598181 0.758804 0.257674
vn -0.593459 0.767875 0.241191
vn 0.556272 0.831000 -0.000374
vn 0.662381 0.746781 0.059747
vn 0.615158 0.754240 -0.229572
vn 0.556272 0.831000 -0.000374
vn 0.615158 0.754240 -0.229572
vn 0.506539 0.829355 -0.235772
vn -0.506539 0.829355 -0.235771
vn -0.615158 0.754240 -0.229572
vn -0.662381 0.746781 0.059747
vn -0.506539 0.829355 -0.235771
vn -0.662381 0.746781 0.059747
vn -0.556272 0.831000 -0.000374
vn -0.431181 0.735697 -0.522334
vn -0.534483 0.654691 -0.534516
vn -0.615158 0.754240 -0.229572
vn -0.431181 0.735697 -0.522334
vn -0.615158 0.754240 -0.229572
vn -0.506539 0.829355 -0.235771
vn -0.472196 0.719206 -0.509680
vn -0.032852 0.972855 -0.229073
vn -0.225716 0.958796 -0.172521
vn -0.472196 0.719206 -0.509680
vn -0.225716 0.958796 -0.172521
vn -0.252121 0.964035 -0.084095
vn 0.472195 0.719207 -0.509680
vn 0.032852 0.972855 -0.229073
vn -0.000000 0.858335 -0.513090
vn -0.000000 0.858335 -0.513090
vn -0.032852 0.972855 -0.229073
vn -0.472196 0.719206 -0.509680
vn -0.032852 0.972855 -0.229073
vn -0.000000 0.858335 -0.513090
vn 0.045621 0.924672 -0.378023
vn -0.045622 0.924672 -0.378023
vn -0.000000 0.858335 -0.513090
vn 0.032852 0.972855 -0.229073
vn 0.000001 0.378438 0.925626
vn 0.003808 0.534593 0.845101
vn -0.444501 0.475888 0.758913
vn 0.045621 0.924672 -0.378023
vn -0.225716 0.958796 -0.172521
vn -0.032852 0.972855 -0.229073
vn 0.032852 0.972855 -0.229073
vn 0.225716 0.958796 -0.172521
vn -0.045622 0.924672 -0.378023
vn 0.252121 0.964035 -0.084095
vn 0.225716 0.958796 -0.172521
vn 0.032852 0.972855 -0.229073
vn 0.252121 0.964035 -0.084095
vn 0.032852 0.972855 -0.229073
vn 0.472195 0.719207 -0.509680
vn -0.998168 0.056523 -0.021578
vn -0.960531 0.258506 0.102737
vn -0.960473 0.258490 0.103314
vn -0.373148 -0.890070 0.261792
vn -0.373079 -0.889908 0.262441
vn -0.379906 -0.917028 -0.121372
vn -0.373148 -0.890070 0.261792
vn -0.379906 -0.917028 -0.121372
vn -0.379886 -0.916981 -0.121791
vn -0.960473 0.258490 0.103314
vn -0.960531 0.258506 0.102737
vn -0.880939 0.232147 0.412376
vn -0.960473 0.258490 0.103314
vn -0.880939 0.232147 0.412376
vn -0.881824 0.232366 0.410357
vn -0.881824 0.232366 0.410357
vn -0.880939 0.232147 0.412376
vn -0.502403 -0.282682 0.817118
vn -0.881824 0.232366 0.410357
vn -0.502403 -0.282682 0.817118
vn -0.621335 0.149482 0.769154
vn -0.280685 -0.661578 0.695364
vn -0.502403 -0.282682 0.817118
vn -0.373079 -0.889908 0.262441
vn -0.280685 -0.661578 0.695364
vn -0.373079 -0.889908 0.262441
vn -0.373148 -0.890070 0.261792
vn -0.317854 -0.075999 0.945089
vn -0.502403 -0.282682 0.817118
vn -0.280685 -0.661578 0.695364
vn -0.621335 0.149482 0.769154
vn -0.502403 -0.282682 0.817118
vn -0.317854 -0.075999 0.945089
vn 0.379886 -0.916981 -0.121791
vn 0.379906 -0.917028 -0.121372
vn 0.373079 -0.889908 0.262441
vn 0.379886 -0.916981 -0.121791
vn 0.373079 -0.889908 0.262441
vn 0.373148 -0.890071 0.261792
vn 0.960473 0.258490 0.103314
vn 0.960531 0.258506 0.102737
vn 0.998168 0.056523 -0.021578
vn 0.199572 -0.925873 -0.320828
vn 0.379906 -0.917028 -0.121372
vn 0.379886 -0.916981 -0.121791
vn 0.881824 0.232366 0.410357
vn 0.880939 0.232147 0.412376
vn 0.960531 0.258506 0.102737
vn 0.881824 0.232366 0.410357
vn 0.960531 0.258506 0.102737
vn 0.960473 0.258490 0.103314
vn 0.373148 -0.890071 0.261792
vn 0.373079 -0.889908 0.262441
vn 0.501885 -0.282636 0.817452
vn 0.373148 -0.890071 0.261792
vn 0.501885 -0.282636 0.817452
vn 0.280594 -0.661366 0.695602
vn 0.620655 0.149343 0.769730
vn 0.501885 -0.282636 0.817452
vn 0.880939 0.232147 0.412376
vn 0.620655 0.149343 0.769730
vn 0.880939 0.232147 0.412376
vn 0.881824 0.232366 0.410357
vn 0.280594 -0.661366 0.695602
vn 0.501885 -0.282636 0.817452
vn 0.316629 -0.076206 0.945483
vn 0.316629 -0.076206 0.945483
vn 0.501885 -0.282636 0.817452
vn 0.620655 0.149343 0.769730
vn 0.556272 0.831000 -0.000374
vn 0.567937 0.822923 -0.015696
vn 0.593229 0.773119 0.224427
vn 0.556272 0.831000 -0.000374
vn 0.593229 0.773119 0.224427
vn 0.594916 0.766544 0.241839
vn -0.571614 0.655387 0.493685
vn -0.556559 0.669073 0.492527
vn -0.588508 0.776669 0.224598
vn -0.571614 0.655387 0.493685
vn -0.588508 0.776669 0.224598
vn -0.593459 0.767875 0.241191
vn -0.571614 0.655387 0.493685
vn -0.444501 0.475888 0.758913
vn 0.003808 0.534593 0.845101
vn -0.571614 0.655387 0.493685
vn 0.003808 0.534593 0.845101
vn -0.556559 0.669073 0.492527
vn 0.000001 0.378438 0.925626
vn 0.447424 0.475844 0.757221
vn 0.003808 0.534593 0.845101
vn -0.379886 -0.916981 -0.121791
vn -0.379906 -0.917028 -0.121372
vn -0.199572 -0.925873 -0.320828
vn 0.575384 0.653334 0.492024
vn 0.567639 0.662751 0.488413
vn 0.003808 0.534593 0.845101
vn 0.575384 0.653334 0.492024
vn 0.003808 0.534593 0.845101
vn 0.447424 0.475844 0.757221
vn 0.594916 0.766544 0.241839
vn 0.593229 0.773119 0.224427
vn 0.567639 0.662751 0.488413
vn 0.594916 0.766544 0.241839
vn 0.567639 0.662751 0.488413
vn 0.575384 0.653334 0.492024
vn -0.000000 0.695540 -0.718487
vn -0.000000 0.858335 -0.513090
vn -0.472196 0.719206 -0.509680
vn -0.000000 0.695540 -0.718487
vn -0.000000 0.662101 -0.749415
vn 0.480988 0.567821 -0.668004
vn -0.000000 0.695540 -0.718487
vn 0.480988 0.567821 -0.668004
vn 0.472195 0.719207 -0.509680
vn -0.472196 0.719206 -0.509680
vn -0.480988 0.567821 -0.668005
vn -0.000000 0.662101 -0.749415
vn -0.472196 0.719206 -0.509680
vn -0.000000 0.662101 -0.749415
vn -0.000000 0.695540 -0.718487
vn 0.385069 -0.921870 0.043335
vn 0.040704 -0.997994 0.048484
vn 0.025442 -0.999281 -0.028109
vn 0.385069 -0.921870 0.043335
vn 0.025442 -0.999281 -0.028109
vn 0.425315 -0.904251 -0.037907
vn 0.225716 0.958796 -0.172521
vn 0.562904 0.792004 -0.236366
vn 0.508559 0.741584 -0.437516
vn 0.225716 0.958796 -0.172521
vn 0.508559 0.741584 -0.437516
vn -0.045622 0.924672 -0.378023
vn -0.045622 0.924672 -0.378023
vn 0.508559 0.741584 -0.437516
vn -0.237118 0.075590 -0.968536
vn 0.353248 -0.935165 0.026130
vn 0.095368 -0.995217 0.021188
vn 0.040704 -0.997994 0.048484
vn 0.353248 -0.935165 0.026130
vn 0.040704 -0.997994 0.048484
vn 0.385069 -0.921870 0.043335
vn 0.600546 0.795440 0.081357
vn 0.843782 0.528988 0.090570
vn 0.845810 0.520182 -0.118388
vn 0.600546 0.795440 0.081357
vn 0.845810 0.520182 -0.118388
vn 0.586517 0.804329 -0.095148
vn 0.586517 0.804329 -0.095148
vn 0.845810 0.520182 -0.118388
vn 0.818211 0.507251 -0.270603
vn 0.586517 0.804329 -0.095148
vn 0.818211 0.507251 -0.270603
vn 0.562904 0.792004 -0.236366
vn 0.562904 0.792004 -0.236366
vn 0.818211 0.507251 -0.270603
vn 0.748103 0.481521 -0.456594
vn 0.562904 0.792004 -0.236366
vn 0.748103 0.481521 -0.456594
vn 0.508559 0.741584 -0.437516
vn 0.508559 0.741584 -0.437516
vn 0.748103 0.481521 -0.456594
vn -0.237118 0.075590 -0.968536
vn 0.586517 0.804329 -0.095148
vn 0.252121 0.964035 -0.084095
vn 0.280230 0.957952 0.061628
vn 0.586517 0.804329 -0.095148
vn 0.280230 0.957952 0.061628
vn 0.600546 0.795440 0.081357
vn 0.252121 0.964035 -0.084095
vn 0.586517 0.804329 -0.095148
vn 0.562904 0.792004 -0.236366
vn 0.252121 0.964035 -0.084095
vn 0.562904 0.792004 -0.236366
vn 0.225716 0.958796 -0.172521
vn 0.656338 0.728535 0.196102
vn 0.838443 0.511379 0.188426
vn 0.631072 0.754246 0.181275
vn 0.425315 -0.904251 -0.037907
vn 0.025442 -0.999281 -0.028109
vn 0.046127 -0.990154 -0.132164
vn 0.425315 -0.904251 -0.037907
vn 0.046127 -0.990154 -0.132164
vn 0.480088 -0.868304 -0.124752
vn 0.843782 0.528988 0.090570
vn 0.600546 0.795440 0.081357
vn 0.631072 0.754246 0.181275
vn 0.843782 0.528988 0.090570
vn 0.631072 0.754246 0.181275
vn 0.838443 0.511379 0.188426
vn 0.631072 0.754246 0.181275
vn 0.358677 0.920410 0.155554
vn 0.656338 0.728535 0.196102
vn 0.046127 -0.990154 -0.132164
vn 0.035431 -0.936606 -0.348589
vn 0.507308 -0.806869 -0.302656
vn 0.046127 -0.990154 -0.132164
vn 0.507308 -0.806869 -0.302656
vn 0.480088 -0.868304 -0.124752
vn 0.035431 -0.936606 -0.348589
vn -0.237118 0.075590 -0.968536
vn 0.507308 -0.806869 -0.302656
vn 0.600546 0.795440 0.081357
vn 0.280230 0.957952 0.061628
vn 0.358677 0.920410 0.155554
vn 0.600546 0.795440 0.081357
vn 0.358677 0.920410 0.155554
vn 0.631072 0.754246 0.181275
vn 0.095368 -0.995217 0.021188
vn 0.353248 -0.935165 0.026130
vn 0.429365 -0.897299 -0.102470
vn -0.425315 -0.904251 -0.037907
vn -0.025441 -0.999281 -0.028109
vn -0.038771 -0.998072 0.048466
vn -0.425315 -0.904251 -0.037907
vn -0.038771 -0.998072 0.048466
vn -0.383549 -0.922487 0.043682
vn 0.045621 0.924672 -0.378023
vn -0.508560 0.741584 -0.437516
vn -0.562904 0.792004 -0.236366
vn 0.045621 0.924672 -0.378023
vn -0.562904 0.792004 -0.236366
vn -0.225716 0.958796 -0.172521
vn 0.237118 0.075590 -0.968536
vn -0.508560 0.741584 -0.437516
vn 0.045621 0.924672 -0.378023
vn -0.383549 -0.922487 0.043682
vn -0.038771 -0.998072 0.048466
vn -0.090058 -0.995720 0.020789
vn -0.383549 -0.922487 0.043682
vn -0.090058 -0.995720 0.020789
vn -0.346998 -0.937518 0.025551
vn -0.586516 0.804329 -0.095148
vn -0.845810 0.520182 -0.118388
vn -0.843782 0.528988 0.090570
vn -0.586516 0.804329 -0.095148
vn -0.843782 0.528988 0.090570
vn -0.600546 0.795440 0.081357
vn -0.562904 0.792004 -0.236366
vn -0.818211 0.507251 -0.270603
vn -0.845810 0.520182 -0.118388
vn -0.562904 0.792004 -0.236366
vn -0.845810 0.520182 -0.118388
vn -0.586516 0.804329 -0.095148
vn -0.508560 0.741584 -0.437516
vn -0.748103 0.481522 -0.456594
vn -0.818211 0.507251 -0.270603
vn -0.508560 0.741584 -0.437516
vn -0.818211 0.507251 -0.270603
vn -0.562904 0.792004 -0.236366
vn 0.237118 0.075590 -0.968536
vn -0.748103 0.481522 -0.456594
vn -0.508560 0.741584 -0.437516
vn -0.600546 0.795440 0.081357
vn -0.280230 0.957952 0.061628
vn -0.252121 0.964035 -0.084095
vn -0.600546 0.795440 0.081357
vn -0.252121 0.964035 -0.084095
vn -0.586516 0.804329 -0.095148
vn -0.225716 0.958796 -0.172521
vn -0.562904 0.792004 -0.236366
vn -0.586516 0.804329 -0.095148
vn -0.225716 0.958796 -0.172521
vn -0.586516 0.804329 -0.095148
vn -0.252121 0.964035 -0.084095
vn -0.631072 0.754246 0.181275
vn -0.838443 0.511380 0.188426
vn -0.656338 0.728535 0.196102
vn -0.480088 -0.868304 -0.124752
vn -0.046127 -0.990154 -0.132164
vn -0.025441 -0.999281 -0.028109
vn -0.480088 -0.868304 -0.124752
vn -0.025441 -0.999281 -0.028109
vn -0.425315 -0.904251 -0.037907
vn -0.838443 0.511380 0.188426
vn -0.631072 0.754246 0.181275
vn -0.600546 0.795440 0.081357
vn -0.838443 0.511380 0.188426
vn -0.600546 0.795440 0.081357
vn -0.843782 0.528988 0.090570
vn -0.656338 0.728535 0.196102
vn -0.358677 0.920410 0.155554
vn -0.631072 0.754246 0.181275
vn -0.480088 -0.868304 -0.124752
vn -0.507309 -0.806869 -0.302656
vn -0.035430 -0.936606 -0.348590
vn -0.480088 -0.868304 -0.124752
vn -0.035430 -0.936606 -0.348590
vn -0.046127 -0.990154 -0.132164
vn -0.507309 -0.806869 -0.302656
vn 0.237118 0.075590 -0.968536
vn -0.035430 -0.936606 -0.348590
vn -0.631072 0.754246 0.181275
vn -0.358677 0.920410 0.155554
vn -0.280230 0.957952 0.061628
vn -0.631072 0.754246 0.181275
vn -0.280230 0.957952 0.061628
vn -0.600546 0.795440 0.081357
vn -0.426877 -0.898444 -0.102832
vn -0.346998 -0.937518 0.025551
vn -0.090058 -0.995720 0.020789
vn 0.744839 0.006898 -0.667209
vn 0.509296 0.020000 -0.860359
vn 0.744839 0.006898 -0.667209
vn 0.744839 0.006898 -0.667209
vn 0.954346 0.010857 -0.298505
vn 0.954346 0.010857 -0.298505
vn 0.744839 0.006898 -0.667209
vn 0.954346 0.010857 -0.298505
vn 0.744839 0.006898 -0.667209
vn 0.954346 0.010857 -0.298505
vn 0.954346 0.010857 -0.298505
vn 0.994216 0.101019 0.036473
vn 0.954346 0.010857 -0.298505
vn 0.994216 0.101019 0.036473
vn 0.994216 0.101019 0.036473
vn 0.994216 0.101019 0.036473
vn 0.994216 0.101019 0.036473
vn 0.953103 0.168343 0.251508
vn 0.994216 0.101019 0.036473
vn 0.953103 0.168343 0.251508
vn 0.953103 0.168343 0.251508
vn -0.000000 -0.980888 -0.194574
vn -0.000000 -0.980888 -0.194574
vn 0.000000 -0.962194 -0.272363
vn -0.000000 -0.980888 -0.194574
vn 0.000000 -0.962194 -0.272363
vn 0.000000 -0.962194 -0.272363
vn 0.000000 -0.962194 -0.272363
vn 0.000000 -0.962194 -0.272363
vn 0.000001 -0.873068 -0.487598
vn 0.000000 -0.962194 -0.272363
vn 0.000001 -0.873068 -0.487598
vn 0.000001 -0.873068 -0.487598
vn 0.000001 -0.873068 -0.487598
vn 0.000001 -0.873068 -0.487598
vn 0.000001 -0.773138 -0.634237
vn 0.000001 -0.873068 -0.487598
vn 0.000001 -0.773138 -0.634237
vn 0.000001 -0.773138 -0.634237
vn 0.000001 -0.773138 -0.634237
vn 0.000001 -0.773138 -0.634237
vn 0.000000 -0.757550 -0.652777
vn -0.507308 0.019921 -0.861535
vn -0.744067 0.006859 -0.668069
vn -0.744067 0.006859 -0.668069
vn -0.744067 0.006859 -0.668069
vn -0.744067 0.006859 -0.668069
vn -0.954346 0.010857 -0.298504
vn -0.744067 0.006859 -0.668069
vn -0.954346 0.010857 -0.298504
vn -0.954346 0.010857 -0.298504
vn -0.954346 0.010857 -0.298504
vn -0.954346 0.010857 -0.298504
vn -0.994216 0.101019 0.036473
vn -0.954346 0.010857 -0.298504
vn -0.994216 0.101019 0.036473
vn -0.994216 0.101019 0.036473
vn -0.994216 0.101019 0.036473
vn -0.994216 0.101019 0.036473
vn -0.953102 0.168343 0.251508
vn -0.994216 0.101019 0.036473
vn -0.953102 0.168343 0.251508
vn -0.953102 0.168343 0.251508
vn 0.000000 0.974956 0.222396
vn 0.000000 0.974956 0.222396
vn 0.000000 0.992189 0.124745
vn 0.000000 0.974956 0.222396
vn 0.000000 0.992189 0.124745
vn 0.000000 0.992189 0.124745
vn 0.000000 0.992189 0.124745
vn 0.000000 0.992189 0.124745
vn 0.000000 0.996953 -0.077999
vn 0.000000 0.992189 0.124745
vn 0.000000 0.996953 -0.077999
vn 0.000000 0.996953 -0.077999
vn 0.000000 0.996953 -0.077999
vn 0.000000 0.996953 -0.077999
vn 0.000000 0.917847 -0.396934
vn 0.000000 0.996953 -0.077999
vn 0.000000 0.917847 -0.396934
vn 0.000000 0.917847 -0.396934
vn 0.000000 0.917847 -0.396934
vn 0.000000 0.917847 -0.396934
vn 0.000000 0.805473 -0.592632
vn 0.000000 0.000000 1.000000
vn 0.000000 0.000000 1.000000
vn 0.000000 0.000000 1.000000
vn 0.000000 0.000000 1.000000
vn 0.000000 0.000000 1.000000
vn 0.000000 0.000000 1.000000
f 122/1/1 118/2/2 29/3/3
f 97/4/4 16/5/5 17/6/6
f 97/7/7 17/8/8 109/9/9
f 90/10/10 15/11/11 16/12/12
f 90/13/13 16/14/14 97/15/15
f 106/16/16 14/17/17 15/18/18
f 106/19/19 15/20/20 90/21/21
f 36/22/22 37/23/23 11/24/24
f 36/25/25 11/26/26 12/27/27
f 172/28/28 123/29/29 46/30/30
f 172/31/31 46/32/32 61/33/33
f 42/34/34 3/35/35 2/36/36
f 42/37/37 2/38/38 65/39/39
f 171/40/40 20/41/41 67/42/42
f 38/43/43 4/44/44 3/45/45
f 38/46/46 3/47/47 42/48/48
f 130/49/49 34/50/50 35/51/51
f 130/52/52 35/53/53 18/54/54
f 117/55/55 131/56/56 30/57/57
f 117/58/58 30/59/59 120/60/60
f 120/61/61 30/62/62 29/63/63
f 120/64/64 29/65/65 118/66/66
f 122/67/67 2/68/68 116/69/69
f 171/70/70 26/71/71 114/72/72
f 115/73/73 21/74/74 20/75/75
f 115/76/76 20/77/77 110/78/78
f 113/79/79 22/80/80 21/81/81
f 113/82/82 21/83/83 115/84/84
f 41/85/85 22/86/86 113/87/87
f 111/88/88 28/89/89 41/90/90
f 67/91/91 20/92/92 21/93/93
f 67/94/94 21/95/95 8/96/96
f 8/97/97 21/98/98 22/99/99
f 8/100/100 22/101/101 132/102/102
f 132/103/103 22/104/104 23/105/105
f 39/106/106 23/107/107 24/108/108
f 39/109/109 24/110/110 33/111/111
f 33/112/112 24/113/113 25/114/114
f 33/115/115 25/116/116 32/117/117
f 100/118/118 102/119/119 48/120/120
f 100/121/121 48/122/122 94/123/123
f 46/124/124 59/125/125 61/126/126
f 106/127/127 66/128/128 14/129/129
f 114/130/130 26/131/131 27/132/132
f 114/133/133 27/134/134 112/135/135
f 112/136/136 27/137/137 28/138/138
f 112/139/139 28/140/140 111/141/141
f 45/142/142 32/143/143 31/144/144
f 45/145/145 31/146/146 129/147/147
f 35/148/148 36/149/149 12/150/150
f 35/151/151 12/152/152 18/153/153
f 130/154/154 18/155/155 103/156/156
f 107/157/157 45/158/158 129/159/159
f 41/160/160 23/161/161 22/162/162
f 19/163/163 129/164/164 31/165/165
f 38/166/166 11/167/167 37/168/168
f 36/169/169 6/170/170 5/171/171
f 36/172/172 5/173/173 37/174/174
f 17/175/175 39/176/176 33/177/177
f 17/178/178 33/179/179 13/180/180
f 39/181/181 17/182/182 132/183/183
f 132/184/184 23/185/185 39/186/186
f 108/187/187 9/188/188 43/189/189
f 108/190/190 43/191/191 104/192/192
f 37/193/193 5/194/194 38/195/195
f 5/196/196 4/197/197 38/198/198
f 33/199/199 32/200/200 45/201/201
f 33/202/202 45/203/203 13/204/204
f 51/205/205 94/206/206 48/207/207
f 51/208/208 48/209/209 47/210/210
f 51/211/211 47/212/212 52/213/213
f 65/214/214 2/215/215 122/216/216
f 35/217/217 7/218/218 6/219/219
f 35/220/220 6/221/221 36/222/222
f 116/223/223 2/224/224 3/225/225
f 116/226/226 3/227/227 121/228/228
f 121/229/229 3/230/230 4/231/231
f 121/232/232 4/233/233 119/234/234
f 4/235/235 5/236/236 40/237/237
f 40/238/238 5/239/239 6/240/240
f 23/241/241 41/242/242 24/243/243
f 1/244/244 71/245/245 73/246/246
f 1/247/247 73/248/248 84/249/249
f 92/250/250 10/251/251 9/252/252
f 92/253/253 9/254/254 108/255/255
f 127/256/256 69/257/257 71/258/258
f 127/259/259 71/260/260 1/261/261
f 127/262/262 49/263/263 100/264/264
f 99/265/265 49/266/266 125/267/267
f 126/268/268 70/269/269 68/270/270
f 126/271/271 68/272/272 125/273/273
f 82/274/274 126/275/275 50/276/276
f 82/277/277 50/278/278 124/279/279
f 124/280/280 84/281/281 85/282/282
f 124/283/283 85/284/284 88/285/285
f 123/286/286 60/287/287 46/288/288
f 119/289/289 4/290/290 40/291/291
f 51/292/292 40/293/293 6/294/294
f 51/295/295 6/296/296 53/297/297
f 92/298/298 139/299/299 140/300/300
f 92/301/301 140/302/302 105/303/303
f 96/304/304 143/305/305 140/306/306
f 96/307/307 140/308/308 109/309/309
f 1/310/310 50/311/311 49/312/312
f 1/313/313 49/314/314 127/315/315
f 56/316/316 24/317/317 41/318/318
f 56/319/319 41/320/320 57/321/321
f 57/322/322 41/323/323 28/324/324
f 131/325/325 40/326/326 51/327/327
f 100/328/328 49/329/329 102/330/330
f 53/331/331 6/332/332 7/333/333
f 53/334/334 7/335/335 95/336/336
f 44/337/337 63/338/338 34/339/339
f 64/340/340 25/341/341 24/342/342
f 64/343/343 24/344/344 56/345/345
f 125/346/346 49/347/347 50/348/348
f 125/349/349 50/350/350 126/351/351
f 169/352/352 100/353/353 94/354/354
f 98/355/355 56/356/356 57/357/357
f 98/358/358 57/359/359 93/360/360
f 58/361/361 47/362/362 48/363/363
f 58/364/364 48/365/365 93/366/366
f 58/367/367 93/368/368 57/369/369
f 59/370/370 46/371/371 47/372/372
f 59/373/373 47/374/374 58/375/375
f 31/376/376 62/377/377 19/378/378
f 52/379/379 47/380/380 46/381/381
f 52/382/382 46/383/383 60/384/384
f 62/385/385 25/386/386 64/387/387
f 25/388/388 62/389/389 31/390/390
f 63/391/391 54/392/392 95/393/393
f 34/394/394 63/395/395 7/396/396
f 34/397/397 130/398/398 44/399/399
f 19/400/400 128/401/401 146/402/402
f 80/403/403 86/404/404 128/405/405
f 86/406/406 80/407/407 81/408/408
f 105/409/409 140/410/410 143/411/411
f 105/412/412 143/413/413 91/414/414
f 91/415/415 143/416/416 144/417/417
f 91/418/418 144/419/419 103/420/420
f 130/421/421 103/422/422 144/423/423
f 130/424/424 144/425/425 145/426/426
f 82/427/427 77/428/428 70/429/429
f 82/430/430 70/431/431 126/432/432
f 82/433/433 83/434/434 79/435/435
f 82/436/436 79/437/437 77/438/438
f 83/439/439 81/440/440 79/441/441
f 124/442/442 50/443/443 1/444/444
f 124/445/445 1/446/446 84/447/447
f 84/448/448 73/449/449 75/450/450
f 84/451/451 75/452/452 85/453/453
f 85/454/454 75/455/455 76/456/456
f 40/457/457 131/458/458 117/459/459
f 128/460/460 87/461/461 74/462/462
f 145/463/463 144/464/464 107/465/465
f 145/466/466 107/467/467 129/468/468
f 93/469/469 48/470/470 102/471/471
f 93/472/472 102/473/473 99/474/474
f 76/475/475 87/476/476 88/477/477
f 128/478/478 124/479/479 88/480/480
f 128/481/481 88/482/482 87/483/483
f 124/484/484 128/485/485 86/486/486
f 124/487/487 86/488/488 89/489/489
f 89/490/490 86/491/491 81/492/492
f 81/493/493 83/494/494 89/495/495
f 124/496/496 89/497/497 83/498/498
f 124/499/499 83/500/500 82/501/501
f 88/502/502 85/503/503 76/504/504
f 94/505/505 51/506/506 53/507/507
f 94/508/508 53/509/509 101/510/510
f 100/511/511 169/512/512 69/513/513
f 100/514/514 69/515/515 127/516/516
f 102/517/517 49/518/518 99/519/519
f 93/520/520 99/521/521 170/522/522
f 107/523/523 144/524/524 143/525/525
f 107/526/526 143/527/527 96/528/528
f 87/529/529 76/530/530 74/531/531
f 31/532/532 32/533/533 25/534/534
f 7/535/535 35/536/536 34/537/537
f 110/538/538 20/539/539 171/540/540
f 125/541/541 68/542/542 170/543/543
f 125/544/544 170/545/545 99/546/546
f 95/547/547 7/548/548 63/549/549
f 64/550/550 55/551/551 62/552/552
f 104/553/553 43/554/554 66/555/555
f 55/556/556 64/557/557 56/558/558
f 55/559/559 56/560/560 98/561/561
f 95/562/562 54/563/563 101/564/564
f 95/565/565 101/566/566 53/567/567
f 96/568/568 13/569/569 45/570/570
f 96/571/571 45/572/572 107/573/573
f 105/574/574 11/575/575 10/576/576
f 105/577/577 10/578/578 92/579/579
f 109/580/580 17/581/581 13/582/582
f 109/583/583 13/584/584 96/585/585
f 91/586/586 12/587/587 11/588/588
f 91/589/589 11/590/590 105/591/591
f 103/592/592 18/593/593 12/594/594
f 103/595/595 12/596/596 91/597/597
f 44/598/598 147/599/599 72/600/600
f 44/601/601 72/602/602 63/603/603
f 19/604/604 148/605/605 128/606/606
f 128/607/607 147/608/608 44/609/609
f 147/610/610 128/611/611 74/612/612
f 80/613/613 128/614/614 148/615/615
f 66/616/616 142/617/617 104/618/618
f 74/619/619 72/620/620 147/621/621
f 148/622/622 78/623/623 80/624/624
f 62/625/625 78/626/626 148/627/627
f 62/628/628 148/629/629 19/630/630
f 40/631/631 133/632/632 119/633/633
f 120/634/634 134/635/635 133/636/636
f 120/637/637 133/638/638 117/639/639
f 119/640/640 133/641/641 134/642/642
f 119/643/643 134/644/644 121/645/645
f 121/646/646 134/647/647 135/648/648
f 121/649/649 135/650/650 116/651/651
f 118/652/652 135/653/653 134/654/654
f 118/655/655 134/656/656 120/657/657
f 122/658/658 135/659/659 118/660/660
f 116/661/661 135/662/662 122/663/663
f 111/664/664 138/665/665 137/666/666
f 111/667/667 137/668/668 112/669/669
f 113/670/670 138/671/671 41/672/672
f 41/673/673 138/674/674 111/675/675
f 115/676/676 137/677/677 138/678/678
f 115/679/679 138/680/680 113/681/681
f 112/682/682 137/683/683 136/684/684
f 112/685/685 136/686/686 114/687/687
f 110/688/688 136/689/689 137/690/690
f 110/691/691 137/692/692 115/693/693
f 114/694/694 136/695/695 171/696/696
f 171/697/697 136/698/698 110/699/699
f 109/700/700 140/701/701 139/702/702
f 109/703/703 139/704/704 97/705/705
f 108/706/706 141/707/707 139/708/708
f 108/709/709 139/710/710 92/711/711
f 108/712/712 104/713/713 142/714/714
f 108/715/715 142/716/716 141/717/717
f 66/718/718 106/719/719 142/720/720
f 117/721/721 133/722/722 40/723/723
f 90/724/724 141/725/725 142/726/726
f 90/727/727 142/728/728 106/729/729
f 97/730/730 139/731/731 141/732/732
f 97/733/733 141/734/734 90/735/735
f 146/736/736 128/737/737 44/738/738
f 146/739/739 145/740/740 129/741/741
f 146/742/742 129/743/743 19/744/744
f 44/745/745 130/746/746 145/747/747
f 44/748/748 145/749/749 146/750/750
f 150/751/751 68/752/752 70/753/753
f 150/754/754 70/755/755 149/756/756
f 78/757/757 151/758/758 152/759/759
f 78/760/760 152/761/761 80/762/762
f 80/763/763 152/764/764 81/765/765
f 157/766/766 170/767/767 68/768/768
f 157/769/769 68/770/770 150/771/771
f 158/772/772 150/773/773 149/774/774
f 158/775/775 149/776/776 155/777/777
f 155/778/778 149/779/779 153/780/780
f 155/781/781 153/782/782 151/783/783
f 151/784/784 153/785/785 154/786/786
f 151/787/787 154/788/788 152/789/789
f 152/790/790 154/791/791 81/792/792
f 155/793/793 62/794/794 55/795/795
f 155/796/796 55/797/797 158/798/798
f 62/799/799 155/800/800 151/801/801
f 62/802/802 151/803/803 78/804/804
f 93/805/805 157/806/806 156/807/807
f 149/808/808 70/809/809 77/810/810
f 149/811/811 77/812/812 153/813/813
f 150/814/814 158/815/815 156/816/816
f 150/817/817 156/818/818 157/819/819
f 156/820/820 98/821/821 93/822/822
f 77/823/823 79/824/824 154/825/825
f 77/826/826 154/827/827 153/828/828
f 79/829/829 81/830/830 154/831/831
f 158/832/832 55/833/833 98/834/834
f 158/835/835 98/836/836 156/837/837
f 170/838/838 157/839/839 93/840/840
f 159/841/841 71/842/842 69/843/843
f 159/844/844 69/845/845 160/846/846
f 74/847/847 162/848/848 161/849/849
f 74/850/850 161/851/851 72/852/852
f 76/853/853 162/854/854 74/855/855
f 160/856/856 69/857/857 169/858/858
f 160/859/859 169/860/860 167/861/861
f 165/862/862 159/863/863 160/864/864
f 165/865/865 160/866/866 168/867/867
f 161/868/868 163/869/869 159/870/870
f 161/871/871 159/872/872 165/873/873
f 162/874/874 164/875/875 163/876/876
f 162/877/877 163/878/878 161/879/879
f 76/880/880 164/881/881 162/882/882
f 168/883/883 54/884/884 63/885/885
f 168/886/886 63/887/887 165/888/888
f 72/889/889 161/890/890 165/891/891
f 72/892/892 165/893/893 63/894/894
f 166/895/895 167/896/896 94/897/897
f 163/898/898 73/899/899 71/900/900
f 163/901/901 71/902/902 159/903/903
f 167/904/904 166/905/905 168/906/906
f 167/907/907 168/908/908 160/909/909
f 94/910/910 101/911/911 166/912/912
f 163/913/913 164/914/914 75/915/915
f 163/916/916 75/917/917 73/918/918
f 164/919/919 76/920/920 75/921/921
f 166/922/922 101/923/923 54/924/924
f 166/925/925 54/926/926 168/927/927
f 94/928/928 167/929/929 169/930/930
f 65/931/931 122/932/932 29/933/933
f 29/934/934 30/935/935 42/936/936
f 29/937/937 42/938/938 65/939/939
f 42/940/940 30/941/941 131/942/942
f 42/943/943 131/944/944 38/945/945
f 38/946/946 131/947/947 51/948/948
f 38/949/949 51/950/950 11/951/951
f 11/952/952 17/953/953 16/954/954
f 11/955/955 16/956/956 10/957/957
f 10/958/958 16/959/959 15/960/960
f 10/961/961 15/962/962 9/963/963
f 9/964/964 15/965/965 14/966/966
f 9/967/967 14/968/968 43/969/969
f 43/970/970 14/971/971 66/972/972
f 171/973/973 67/974/974 26/975/975
f 26/976/976 67/977/977 8/978/978
f 26/979/979 8/980/980 27/981/981
f 27/982/982 8/983/983 132/984/984
f 27/985/985 132/986/986 28/987/987
f 28/988/988 132/989/989 17/990/990
f 28/991/991 17/992/992 57/993/993
f 57/994/994 51/995/995 52/996/996
f 57/997/997 52/998/998 58/999/999
f 58/1000/1000 52/1001/1001 60/1002/1002
f 58/1003/1003 60/1004/1004 59/1005/1005
f 59/1006/1006 60/1007/1007 123/1008/1008
f 59/1009/1009 123/1010/1010 61/1011/1011
f 61/1012/1012 123/1013/1013 172/1014/1014
f 17/1015/1015 11/1016/1016 51/1017/1017
f 17/1018/1018 51/1019/1019 57/1020/1020
