v 1.000000 0.000000 0.525000
v 1.000000 -0.000000 -0.525000
v 0.965926 1.232471 0.525000
v 0.965926 1.232471 -0.525000
v 0.866025 2.380951 0.525000
v 0.866025 2.380951 -0.525000
v 0.707107 3.367173 0.525000
v 0.707107 3.367173 -0.525000
v 0.500000 4.123929 0.525000
v 0.500000 4.123928 -0.525000
v 0.258819 4.599645 0.525000
v 0.258819 4.599644 -0.525000
v -0.000000 4.761902 0.525000
v -0.000000 4.761902 -0.525000
v -0.258819 4.599644 0.525000
v -0.258819 4.599644 -0.525000
v -0.500000 4.123928 0.525000
v -0.500000 4.123928 -0.525000
v -0.707107 3.367173 0.525000
v -0.707107 3.367173 -0.525000
v -0.866025 2.380951 0.525000
v -0.866025 2.380951 -0.525000
v -0.965926 1.232471 0.525000
v -0.965926 1.232471 -0.525000
v -1.000000 0.000000 0.525000
v -1.000000 -0.000000 -0.525000
v -0.965926 -1.232471 0.525000
v -0.965926 -1.232471 -0.525000
v -0.866025 -2.380951 0.525000
v -0.866025 -2.380951 -0.525000
v -0.707107 -3.367173 0.525000
v -0.707107 -3.367173 -0.525000
v -0.500000 -4.123928 0.525000
v -0.500000 -4.123928 -0.525000
v -0.258819 -4.599643 0.525000
v -0.258819 -4.599644 -0.525000
v 0.000000 -4.761901 0.525000
v 0.000000 -4.761901 -0.525000
v 0.258819 -4.599643 0.525000
v 0.258819 -4.599643 -0.525000
v 0.500000 -4.123927 0.525000
v 0.500000 -4.123927 -0.525000
v 0.707107 -3.367172 0.525000
v 0.707107 -3.367172 -0.525000
v 0.866025 -2.380950 0.525000
v 0.866025 -2.380950 -0.525000
v 0.965926 -1.232470 0.525000
v 0.965926 -1.232470 -0.525000
v 0.622254 -2.963113 -0.705068
v 0.762102 -2.095237 -0.705068
v 0.440000 -3.629057 -0.705068
v 0.227761 -4.047687 -0.705068
v 0.000000 -4.190475 -0.705068
v -0.227761 -4.047688 -0.705068
v -0.440000 -3.629058 -0.705068
v -0.622254 -2.963113 -0.705068
v -0.762102 -2.095237 -0.705068
v -0.850015 -1.084575 -0.705068
v -0.880000 -0.000000 -0.705068
v -0.850015 1.084575 -0.705068
v -0.762102 2.095237 -0.705068
v -0.622254 2.963113 -0.705068
v -0.440000 3.629058 -0.705068
v -0.227761 4.047688 -0.705068
v -0.000000 4.190475 -0.705068
v 0.227761 4.047688 -0.705068
v 0.440000 3.629058 -0.705068
v 0.622254 2.963113 -0.705068
v 0.762102 2.095238 -0.705068
v 0.850015 1.084575 -0.705068
v 0.850015 -1.084574 -0.705068
v 0.880000 -0.000000 -0.705068
v 0.385798 -1.837131 -0.812493
v 0.472504 -1.299048 -0.812493
v 0.272800 -2.250017 -0.812493
v 0.141212 -2.509568 -0.812493
v -0.000000 -2.598096 -0.812493
v -0.141212 -2.509568 -0.812493
v -0.272800 -2.250018 -0.812493
v -0.385798 -1.837132 -0.812493
v -0.472504 -1.299048 -0.812493
v -0.527010 -0.672437 -0.812493
v -0.545601 0.000000 -0.812493
v -0.527010 0.672437 -0.812493
v -0.472504 1.299048 -0.812493
v -0.385798 1.837132 -0.812493
v -0.272800 2.250018 -0.812493
v -0.141212 2.509569 -0.812493
v 0.000000 2.598097 -0.812493
v 0.141212 2.509569 -0.812493
v 0.272800 2.250018 -0.812493
v 0.385798 1.837132 -0.812493
v 0.472504 1.299049 -0.812493
v 0.527010 0.672437 -0.812493
v 0.545601 0.000000 -0.812493
v 0.527010 -0.672436 -0.812493
v 0.385798 -1.837131 -1.678235
v 0.472504 -1.299048 -1.678235
v 0.272800 -2.250017 -1.678235
v 0.141212 -2.509568 -1.678235
v -0.000000 -2.598096 -1.678235
v -0.141212 -2.509568 -1.678235
v -0.272800 -2.250018 -1.678235
v -0.385798 -1.837132 -1.678235
v -0.472504 -1.299048 -1.678235
v -0.527010 -0.672437 -1.678235
v -0.545601 0.000000 -1.678235
v -0.527010 0.672437 -1.678236
v -0.472504 1.299048 -1.678236
v -0.385798 1.837132 -1.678236
v -0.272800 2.250018 -1.678236
v -0.141212 2.509569 -1.678236
v 0.000000 2.598097 -1.678236
v 0.141212 2.509569 -1.678236
v 0.272800 2.250018 -1.678236
v 0.385798 1.837132 -1.678236
v 0.472504 1.299049 -1.678236
v 0.527010 0.672437 -1.678236
v 0.545601 0.000000 -1.678235
v 0.527010 -0.672436 -1.678235
v 0.444933 -2.118729 -1.730574
v 0.544930 -1.498167 -1.730574
v 0.314615 -2.594903 -1.730574
v 0.162857 -2.894238 -1.730574
v 0.000000 -2.996335 -1.730574
v -0.162857 -2.894238 -1.730574
v -0.314615 -2.594903 -1.730574
v -0.444933 -2.118729 -1.730574
v -0.544930 -1.498168 -1.730574
v -0.607790 -0.775508 -1.730574
v -0.629231 0.000000 -1.730574
v -0.607790 0.775508 -1.730574
v -0.544930 1.498168 -1.730574
v -0.444933 2.118730 -1.730574
v -0.314615 2.594903 -1.730574
v -0.162857 2.894238 -1.730574
v -0.000000 2.996336 -1.730574
v 0.162857 2.894238 -1.730574
v 0.314615 2.594903 -1.730574
v 0.444933 2.118730 -1.730574
v 0.544930 1.498168 -1.730574
v 0.607790 0.775509 -1.730574
v 0.629231 0.000000 -1.730574
v 0.607790 -0.775508 -1.730574
v 0.444933 -2.118729 -2.385541
v 0.544930 -1.498167 -2.385541
v 0.314615 -2.594903 -2.385541
v 0.162857 -2.894238 -2.385541
v 0.000000 -2.996335 -2.385541
v -0.162857 -2.894238 -2.385541
v -0.314615 -2.594903 -2.385541
v -0.444933 -2.118729 -2.385541
v -0.544930 -1.498168 -2.385541
v -0.607790 -0.775508 -2.385541
v -0.629231 0.000000 -2.385541
v -0.607790 0.775508 -2.385541
v -0.544930 1.498168 -2.385541
v -0.444933 2.118730 -2.385541
v -0.314615 2.594903 -2.385541
v -0.162857 2.894238 -2.385541
v -0.000000 2.996336 -2.385541
v 0.162857 2.894238 -2.385541
v 0.314615 2.594903 -2.385541
v 0.444933 2.118730 -2.385541
v 0.544930 1.498168 -2.385541
v 0.607790 0.775509 -2.385541
v 0.629231 0.000000 -2.385541
v 0.607790 -0.775508 -2.385541
vt 0.000000 0.000000
vt 0.000000 0.000000
vt 0.000000 0.000000
vt 0.000000 0.000000
vt 0.000000 0.000000
vt 0.000000 0.000000
vt 0.000000 0.000000
vt 0.000000 0.000000
vt 0.000000 0.000000
vt 0.000000 0.000000
vt 0.000000 0.000000
vt 0.000000 0.000000
vt 0.000000 0.000000
vt 0.000000 0.000000
vt 0.000000 0.000000
vt 0.000000 0.000000
vt 0.000000 0.000000
vt 0.000000 0.000000
vt 0.000000 0.000000
vt 0.000000 0.000000
vt 0.000000 0.000000
vt 0.000000 0.000000
vt 0.000000 0.000000
vt 0.000000 0.000000
vt 0.000000 0.000000
vt 0.000000 0.000000
vt 0.000000 0.000000
vt 0.000000 0.000000
vt 0.000000 0.000000
vt 0.000000 0.000000
vt 0.000000 0.000000
vt 0.000000 0.000000
vt 0.000000 0.000000
vt 0.000000 0.000000
vt 0.000000 0.000000
vt 0.000000 0.000000
vt 0.000000 0.000000
vt 0.000000 0.000000
vt 0.000000 0.000000
vt 0.000000 0.000000
vt 0.000000 0.000000
vt 0.000000 0.000000
vt 0.000000 0.000000
vt 0.000000 0.000000
vt 0.000000 0.000000
vt 0.000000 0.000000
vt 0.000000 0.000000
vt 0.000000 0.000000
vt 0.000000 0.000000
vt 0.000000 0.000000
vt 0.000000 0.000000
vt 0.000000 0.000000
vt 0.000000 0.000000
vt 0.000000 0.000000
vt 0.000000 0.000000
vt 0.000000 0.000000
vt 0.000000 0.000000
vt 0.000000 0.000000
vt 0.000000 0.000000
vt 0.000000 0.000000
vt 0.000000 0.000000
vt 0.000000 0.000000
vt 0.000000 0.000000
vt 0.000000 0.000000
vt 0.000000 0.000000
vt 0.000000 0.000000
vt 0.000000 0.000000
vt 0.000000 0.000000
vt 0.000000 0.000000
vt 0.000000 0.000000
vt 0.000000 0.000000
vt 0.000000 0.000000
vt 0.000000 0.000000
vt 0.000000 0.000000
vt 0.000000 0.000000
vt 0.000000 0.000000
vt 0.000000 0.000000
vt 0.000000 0.000000
vt 0.000000 0.000000
vt 0.000000 0.000000
vt 0.000000 0.000000
vt 0.000000 0.000000
vt 0.000000 0.000000
vt 0.000000 0.000000
vt 0.000000 0.000000
vt 0.000000 0.000000
vt 0.000000 0.000000
vt 0.000000 0.000000
vt 0.000000 0.000000
vt 0.000000 0.000000
vt 0.000000 0.000000
vt 0.000000 0.000000
vt 0.000000 0.000000
vt 0.000000 0.000000
vt 0.000000 0.000000
vt 0.000000 0.000000
vt 0.000000 0.000000
vt 0.000000 0.000000
vt 0.000000 0.000000
vt 0.000000 0.000000
vt 0.000000 0.000000
vt 0.000000 0.000000
vt 0.000000 0.000000
vt 0.000000 0.000000
vt 0.000000 0.000000
vt 0.000000 0.000000
vt 0.000000 0.000000
vt 0.000000 0.000000
vt 0.000000 0.000000
vt 0.000000 0.000000
vt 0.000000 0.000000
vt 0.000000 0.000000
vt 0.000000 0.000000
vt 0.000000 0.000000
vt 0.000000 0.000000
vt 0.000000 0.000000
vt 0.000000 0.000000
vt 0.000000 0.000000
vt 0.000000 0.000000
vt 0.000000 0.000000
vt 0.000000 0.000000
vt 0.000000 0.000000
vt 0.000000 0.000000
vt 0.000000 0.000000
vt 0.000000 0.000000
vt 0.000000 0.000000
vt 0.000000 0.000000
vt 0.000000 0.000000
vt 0.000000 0.000000
vt 0.000000 0.000000
vt 0.000000 0.000000
vt 0.000000 0.000000
vt 0.000000 0.000000
vt 0.000000 0.000000
vt 0.000000 0.000000
vt 0.000000 0.000000
vt 0.000000 0.000000
vt 0.000000 0.000000
vt 0.000000 0.000000
vt 0.000000 0.000000
vt 0.000000 0.000000
vt 0.000000 0.000000
vt 0.000000 0.000000
vt 0.000000 0.000000
vt 0.000000 0.000000
vt 0.000000 0.000000
vt 0.000000 0.000000
vt 0.000000 0.000000
vt 0.000000 0.000000
vt 0.000000 0.000000
vt 0.000000 0.000000
vt 0.000000 0.000000
vt 0.000000 0.000000
vt 0.000000 0.000000
vt 0.000000 0.000000
vt 0.000000 0.000000
vt 0.000000 0.000000
vt 0.000000 0.000000
vt 0.000000 0.000000
vt 0.000000 0.000000
vt 0.000000 0.000000
vt 0.000000 0.000000
vt 0.000000 0.000000
vt 0.000000 0.000000
vt 0.000000 0.000000
vt 0.000000 0.000000
vt 0.000000 0.000000
vt 0.000000 0.000000
vt 0.000000 0.000000
vt 0.000000 0.000000
vt 0.000000 0.000000
vt 0.000000 0.000000
vt 0.000000 0.000000
vt 0.000000 0.000000
vt 0.000000 0.000000
vt 0.000000 0.000000
vt 0.000000 0.000000
vt 0.000000 0.000000
vt 0.000000 0.000000
vt 0.000000 0.000000
vt 0.000000 0.000000
vt 0.000000 0.000000
vt 0.000000 0.000000
vt 0.000000 0.000000
vt 0.000000 0.000000
vt 0.000000 0.000000
vt 0.000000 0.000000
vt 0.000000 0.000000
vt 0.000000 0.000000
vt 0.000000 0.000000
vt 0.000000 0.000000
vt 0.000000 0.000000
vt 0.000000 0.000000
vt 0.000000 0.000000
vt 0.000000 0.000000
vt 0.000000 0.000000
vt 0.000000 0.000000
vt 0.000000 0.000000
vt 0.000000 0.000000
vt 0.000000 0.000000
vt 0.000000 0.000000
vt 0.000000 0.000000
vt 0.000000 0.000000
vt 0.000000 0.000000
vt 0.000000 0.000000
vt 0.000000 0.000000
vt 0.000000 0.000000
vt 0.000000 0.000000
vt 0.000000 0.000000
vt 0.000000 0.000000
vt 0.000000 0.000000
vt 0.000000 0.000000
vt 0.000000 0.000000
vt 0.000000 0.000000
vt 0.000000 0.000000
vt 0.000000 0.000000
vt 0.000000 0.000000
vt 0.000000 0.000000
vt 0.000000 0.000000
vt 0.000000 0.000000
vt 0.000000 0.000000
vt 0.000000 0.000000
vt 0.000000 0.000000
vt 0.000000 0.000000
vt 0.000000 0.000000
vt 0.000000 0.000000
vt 0.000000 0.000000
vt 0.000000 0.000000
vt 0.000000 0.000000
vt 0.000000 0.000000
vt 0.000000 0.000000
vt 0.000000 0.000000
vt 0.000000 0.000000
vt 0.000000 0.000000
vt 0.000000 0.000000
vt 0.000000 0.000000
vt 0.000000 0.000000
vt 0.000000 0.000000
vt 0.000000 0.000000
vt 0.000000 0.000000
vt 0.000000 0.000000
vt 0.000000 0.000000
vt 0.000000 0.000000
vt 0.000000 0.000000
vt 0.000000 0.000000
vt 0.000000 0.000000
vt 0.000000 0.000000
vt 0.000000 0.000000
vt 0.000000 0.000000
vt 0.000000 0.000000
vt 0.000000 0.000000
vt 0.000000 0.000000
vt 0.000000 0.000000
vt 0.000000 0.000000
vt 0.000000 0.000000
vt 0.000000 0.000000
vt 0.000000 0.000000
vt 0.000000 0.000000
vt 0.000000 0.000000
vt 0.000000 0.000000
vt 0.000000 0.000000
vt 0.000000 0.000000
vt 0.000000 0.000000
vt 0.000000 0.000000
vt 0.000000 0.000000
vt 0.000000 0.000000
vt 0.000000 0.000000
vt 0.000000 0.000000
vt 0.000000 0.000000
vt 0.000000 0.000000
vt 0.000000 0.000000
vt 0.000000 0.000000
vt 0.000000 0.000000
vt 0.000000 0.000000
vt 0.000000 0.000000
vt 0.000000 0.000000
vt 0.000000 0.000000
vt 0.000000 0.000000
vt 0.000000 0.000000
vt 0.000000 0.000000
vt 0.000000 0.000000
vt 0.000000 0.000000
vt 0.000000 0.000000
vt 0.000000 0.000000
vt 0.000000 0.000000
vt 0.000000 0.000000
vt 0.000000 0.000000
vt 0.000000 0.000000
vt 0.000000 0.000000
vt 0.000000 0.000000
vt 0.000000 0.000000
vt 0.000000 0.000000
vt 0.000000 0.000000
vt 0.000000 0.000000
vt 0.000000 0.000000
vt 0.000000 0.000000
vt 0.000000 0.000000
vt 0.000000 0.000000
vt 0.000000 0.000000
vt 0.000000 0.000000
vt 0.000000 0.000000
vt 0.000000 0.000000
vt 0.000000 0.000000
vt 0.000000 0.000000
vt 0.000000 0.000000
vt 0.000000 0.000000
vt 0.000000 0.000000
vt 0.000000 0.000000
vt 0.000000 0.000000
vt 0.000000 0.000000
vt 0.000000 0.000000
vt 0.000000 0.000000
vt 0.000000 0.000000
vt 0.000000 0.000000
vt 0.000000 0.000000
vt 0.000000 0.000000
vt 0.000000 0.000000
vt 0.000000 0.000000
vt 0.000000 0.000000
vt 0.000000 0.000000
vt 0.000000 0.000000
vt 0.000000 0.000000
vt 0.000000 0.000000
vt 0.000000 0.000000
vt 0.000000 0.000000
vt 0.000000 0.000000
vt 0.000000 0.000000
vt 0.000000 0.000000
vt 0.000000 0.000000
vt 0.000000 0.000000
vt 0.000000 0.000000
vt 0.000000 0.000000
vt 0.000000 0.000000
vt 0.000000 0.000000
vt 0.000000 0.000000
vt 0.000000 0.000000
vt 0.000000 0.000000
vt 0.000000 0.000000
vt 0.000000 0.000000
vt 0.000000 0.000000
vt 0.000000 0.000000
vt 0.000000 0.000000
vt 0.000000 0.000000
vt 0.000000 0.000000
vt 0.000000 0.000000
vt 0.000000 0.000000
vt 0.000000 0.000000
vt 0.000000 0.000000
vt 0.000000 0.000000
vt 0.000000 0.000000
vt 0.000000 0.000000
vt 0.000000 0.000000
vt 0.000000 0.000000
vt 0.000000 0.000000
vt 0.000000 0.000000
vt 0.000000 0.000000
vt 0.000000 0.000000
vt 0.000000 0.000000
vt 0.000000 0.000000
vt 0.000000 0.000000
vt 0.000000 0.000000
vt 0.000000 0.000000
vt 0.000000 0.000000
vt 0.000000 0.000000
vt 0.000000 0.000000
vt 0.000000 0.000000
vt 0.000000 0.000000
vt 0.000000 0.000000
vt 0.000000 0.000000
vt 0.000000 0.000000
vt 0.000000 0.000000
vt 0.000000 0.000000
vt 0.000000 0.000000
vt 0.000000 0.000000
vt 0.000000 0.000000
vt 0.000000 0.000000
vt 0.000000 0.000000
vt 0.000000 0.000000
vt 0.000000 0.000000
vt 0.000000 0.000000
vt 0.000000 0.000000
vt 0.000000 0.000000
vt 0.000000 0.000000
vt 0.000000 0.000000
vt 0.000000 0.000000
vt 0.000000 0.000000
vt 0.000000 0.000000
vt 0.000000 0.000000
vt 0.000000 0.000000
vt 0.000000 0.000000
vt 0.000000 0.000000
vt 0.000000 0.000000
vt 0.000000 0.000000
vt 0.000000 0.000000
vt 0.000000 0.000000
vt 0.000000 0.000000
vt 0.000000 0.000000
vt 0.000000 0.000000
vt 0.000000 0.000000
vt 0.000000 0.000000
vt 0.000000 0.000000
vt 0.000000 0.000000
vt 0.000000 0.000000
vt 0.000000 0.000000
vt 0.000000 0.000000
vt 0.000000 0.000000
vt 0.000000 0.000000
vt 0.000000 0.000000
vt 0.000000 0.000000
vt 0.000000 0.000000
vt 0.000000 0.000000
vt 0.000000 0.000000
vt 0.000000 0.000000
vt 0.000000 0.000000
vt 0.000000 0.000000
vt 0.000000 0.000000
vt 0.000000 0.000000
vt 0.000000 0.000000
vt 0.000000 0.000000
vt 0.000000 0.000000
vt 0.000000 0.000000
vt 0.000000 0.000000
vt 0.000000 0.000000
vt 0.000000 0.000000
vt 0.000000 0.000000
vt 0.000000 0.000000
vt 0.000000 0.000000
vt 0.000000 0.000000
vt 0.000000 0.000000
vt 0.000000 0.000000
vt 0.000000 0.000000
vt 0.000000 0.000000
vt 0.000000 0.000000
vt 0.000000 0.000000
vt 0.000000 0.000000
vt 0.000000 0.000000
vt 0.000000 0.000000
vt 0.000000 0.000000
vt 0.000000 0.000000
vt 0.000000 0.000000
vt 0.000000 0.000000
vt 0.000000 0.000000
vt 0.000000 0.000000
vt 0.000000 0.000000
vt 0.000000 0.000000
vt 0.000000 0.000000
vt 0.000000 0.000000
vt 0.000000 0.000000
vt 0.000000 0.000000
vt 0.000000 0.000000
vt 0.000000 0.000000
vt 0.000000 0.000000
vt 0.000000 0.000000
vt 0.000000 0.000000
vt 0.000000 0.000000
vt 0.000000 0.000000
vt 0.000000 0.000000
vt 0.000000 0.000000
vt 0.000000 0.000000
vt 0.000000 0.000000
vt 0.000000 0.000000
vt 0.000000 0.000000
vt 0.000000 0.000000
vt 0.000000 0.000000
vt 0.000000 0.000000
vt 0.000000 0.000000
vt 0.000000 0.000000
vt 0.000000 0.000000
vt 0.000000 0.000000
vt 0.000000 0.000000
vt 0.000000 0.000000
vt 0.000000 0.000000
vt 0.000000 0.000000
vt 0.000000 0.000000
vt 0.000000 0.000000
vt 0.000000 0.000000
vt 0.000000 0.000000
vt 0.000000 0.000000
vt 0.000000 0.000000
vt 0.000000 0.000000
vt 0.000000 0.000000
vt 0.000000 0.000000
vt 0.000000 0.000000
vt 0.000000 0.000000
vt 0.000000 0.000000
vt 0.000000 0.000000
vt 0.000000 0.000000
vt 0.000000 0.000000
vt 0.000000 0.000000
vt 0.000000 0.000000
vt 0.000000 0.000000
vt 0.000000 0.000000
vt 0.000000 0.000000
vt 0.000000 0.000000
vt 0.000000 0.000000
vt 0.000000 0.000000
vt 0.000000 0.000000
vt 0.000000 0.000000
vt 0.000000 0.000000
vt 0.000000 0.000000
vt 0.000000 0.000000
vt 0.000000 0.000000
vt 0.000000 0.000000
vt 0.000000 0.000000
vt 0.000000 0.000000
vt 0.000000 0.000000
vt 0.000000 0.000000
vt 0.000000 0.000000
vt 0.000000 0.000000
vt 0.000000 0.000000
vt 0.000000 0.000000
vt 0.000000 0.000000
vt 0.000000 0.000000
vt 0.000000 0.000000
vt 0.000000 0.000000
vt 0.000000 0.000000
vt 0.000000 0.000000
vt 0.000000 0.000000
vt 0.000000 0.000000
vt 0.000000 0.000000
vt 0.000000 0.000000
vt 0.000000 0.000000
vt 0.000000 0.000000
vt 0.000000 0.000000
vt 0.000000 0.000000
vt 0.000000 0.000000
vt 0.000000 0.000000
vt 0.000000 0.000000
vt 0.000000 0.000000
vt 0.000000 0.000000
vt 0.000000 0.000000
vt 0.000000 0.000000
vt 0.000000 0.000000
vt 0.000000 0.000000
vt 0.000000 0.000000
vt 0.000000 0.000000
vt 0.000000 0.000000
vt 0.000000 0.000000
vt 0.000000 0.000000
vt 0.000000 0.000000
vt 0.000000 0.000000
vt 0.000000 0.000000
vt 0.000000 0.000000
vt 0.000000 0.000000
vt 0.000000 0.000000
vt 0.000000 0.000000
vt 0.000000 0.000000
vt 0.000000 0.000000
vt 0.000000 0.000000
vt 0.000000 0.000000
vt 0.000000 0.000000
vt 0.000000 0.000000
vt 0.000000 0.000000
vt 0.000000 0.000000
vt 0.000000 0.000000
vt 0.000000 0.000000
vt 0.000000 0.000000
vt 0.000000 0.000000
vt 0.000000 0.000000
vt 0.000000 0.000000
vt 0.000000 0.000000
vt 0.000000 0.000000
vt 0.000000 0.000000
vt 0.000000 0.000000
vt 0.000000 0.000000
vt 0.000000 0.000000
vt 0.000000 0.000000
vt 0.000000 0.000000
vt 0.000000 0.000000
vt 0.000000 0.000000
vt 0.000000 0.000000
vt 0.000000 0.000000
vt 0.000000 0.000000
vt 0.000000 0.000000
vt 0.000000 0.000000
vt 0.000000 0.000000
vt 0.000000 0.000000
vt 0.000000 0.000000
vt 0.000000 0.000000
vt 0.000000 0.000000
vt 0.000000 0.000000
vt 0.000000 0.000000
vt 0.000000 0.000000
vt 0.000000 0.000000
vt 0.000000 0.000000
vt 0.000000 0.000000
vt 0.000000 0.000000
vt 0.000000 0.000000
vt 0.000000 0.000000
vt 0.000000 0.000000
vt 0.000000 0.000000
vt 0.000000 0.000000
vt 0.000000 0.000000
vt 0.000000 0.000000
vt 0.000000 0.000000
vt 0.000000 0.000000
vt 0.000000 0.000000
vt 0.000000 0.000000
vt 0.000000 0.000000
vt 0.000000 0.000000
vt 0.000000 0.000000
vt 0.000000 0.000000
vt 0.000000 0.000000
vt 0.000000 0.000000
vt 0.000000 0.000000
vt 0.000000 0.000000
vt 0.000000 0.000000
vt 0.000000 0.000000
vt 0.000000 0.000000
vt 0.000000 0.000000
vt 0.000000 0.000000
vt 0.000000 0.000000
vt 0.000000 0.000000
vt 0.000000 0.000000
vt 0.000000 0.000000
vt 0.000000 0.000000
vt 0.000000 0.000000
vt 0.000000 0.000000
vt 0.000000 0.000000
vt 0.000000 0.000000
vt 0.000000 0.000000
vt 0.000000 0.000000
vt 0.000000 0.000000
vt 0.000000 0.000000
vt 0.000000 0.000000
vt 0.000000 0.000000
vt 0.000000 0.000000
vt 0.000000 0.000000
vt 0.000000 0.000000
vt 0.000000 0.000000
vt 0.000000 0.000000
vt 0.000000 0.000000
vt 0.000000 0.000000
vt 0.000000 0.000000
vt 0.000000 0.000000
vt 0.000000 0.000000
vt 0.000000 0.000000
vt 0.000000 0.000000
vt 0.000000 0.000000
vt 0.000000 0.000000
vt 0.000000 0.000000
vt 0.000000 0.000000
vt 0.000000 0.000000
vt 0.000000 0.000000
vt 0.000000 0.000000
vt 0.000000 0.000000
vt 0.000000 0.000000
vt 0.000000 0.000000
vt 0.000000 0.000000
vt 0.000000 0.000000
vt 0.000000 0.000000
vt 0.000000 0.000000
vt 0.000000 0.000000
vt 0.000000 0.000000
vt 0.000000 0.000000
vt 0.000000 0.000000
vt 0.000000 0.000000
vt 0.000000 0.000000
vt 0.000000 0.000000
vt 0.000000 0.000000
vt 0.000000 0.000000
vt 0.000000 0.000000
vt 0.000000 0.000000
vt 0.000000 0.000000
vt 0.000000 0.000000
vt 0.000000 0.000000
vt 0.000000 0.000000
vt 0.000000 0.000000
vt 0.000000 0.000000
vt 0.000000 0.000000
vt 0.000000 0.000000
vt 0.000000 0.000000
vt 0.000000 0.000000
vt 0.000000 0.000000
vt 0.000000 0.000000
vt 0.000000 0.000000
vt 0.000000 0.000000
vt 0.000000 0.000000
vt 0.000000 0.000000
vt 0.000000 0.000000
vt 0.000000 0.000000
vt 0.000000 0.000000
vt 0.000000 0.000000
vt 0.000000 0.000000
vt 0.000000 0.000000
vt 0.000000 0.000000
vt 0.000000 0.000000
vt 0.000000 0.000000
vt 0.000000 0.000000
vt 0.000000 0.000000
vt 0.000000 0.000000
vt 0.000000 0.000000
vt 0.000000 0.000000
vt 0.000000 0.000000
vt 0.000000 0.000000
vt 0.000000 0.000000
vt 0.000000 0.000000
vt 0.000000 0.000000
vt 0.000000 0.000000
vt 0.000000 0.000000
vt 0.000000 0.000000
vt 0.000000 0.000000
vt 0.000000 0.000000
vt 0.000000 0.000000
vt 0.000000 0.000000
vt 0.000000 0.000000
vt 0.000000 0.000000
vt 0.000000 0.000000
vt 0.000000 0.000000
vt 0.000000 0.000000
vt 0.000000 0.000000
vt 0.000000 0.000000
vt 0.000000 0.000000
vt 0.000000 0.000000
vt 0.000000 0.000000
vt 0.000000 0.000000
vt 0.000000 0.000000
vt 0.000000 0.000000
vt 0.000000 0.000000
vt 0.000000 0.000000
vt 0.000000 0.000000
vt 0.000000 0.000000
vt 0.000000 0.000000
vt 0.000000 0.000000
vt 0.000000 0.000000
vt 0.000000 0.000000
vt 0.000000 0.000000
vt 0.000000 0.000000
vt 0.000000 0.000000
vt 0.000000 0.000000
vt 0.000000 0.000000
vt 0.000000 0.000000
vt 0.000000 0.000000
vt 0.000000 0.000000
vt 0.000000 0.000000
vt 0.000000 0.000000
vt 0.000000 0.000000
vt 0.000000 0.000000
vt 0.000000 0.000000
vt 0.000000 0.000000
vt 0.000000 0.000000
vt 0.000000 0.000000
vt 0.000000 0.000000
vt 0.000000 0.000000
vt 0.000000 0.000000
vt 0.000000 0.000000
vt 0.000000 0.000000
vt 0.000000 0.000000
vt 0.000000 0.000000
vt 0.000000 0.000000
vt 0.000000 0.000000
vt 0.000000 0.000000
vt 0.000000 0.000000
vt 0.000000 0.000000
vt 0.000000 0.000000
vt 0.000000 0.000000
vt 0.000000 0.000000
vt 0.000000 0.000000
vt 0.000000 0.000000
vt 0.000000 0.000000
vt 0.000000 0.000000
vt 0.000000 0.000000
vt 0.000000 0.000000
vt 0.000000 0.000000
vt 0.000000 0.000000
vt 0.000000 0.000000
vt 0.000000 0.000000
vt 0.000000 0.000000
vt 0.000000 0.000000
vt 0.000000 0.000000
vt 0.000000 0.000000
vt 0.000000 0.000000
vt 0.000000 0.000000
vt 0.000000 0.000000
vt 0.000000 0.000000
vt 0.000000 0.000000
vt 0.000000 0.000000
vt 0.000000 0.000000
vt 0.000000 0.000000
vt 0.000000 0.000000
vt 0.000000 0.000000
vt 0.000000 0.000000
vt 0.000000 0.000000
vt 0.000000 0.000000
vt 0.000000 0.000000
vt 0.000000 0.000000
vt 0.000000 0.000000
vt 0.000000 0.000000
vt 0.000000 0.000000
vt 0.000000 0.000000
vt 0.000000 0.000000
vt 0.000000 0.000000
vt 0.000000 0.000000
vt 0.000000 0.000000
vt 0.000000 0.000000
vt 0.000000 0.000000
vt 0.000000 0.000000
vt 0.000000 0.000000
vt 0.000000 0.000000
vt 0.000000 0.000000
vt 0.000000 0.000000
vt 0.000000 0.000000
vt 0.000000 0.000000
vt 0.000000 0.000000
vt 0.000000 0.000000
vt 0.000000 0.000000
vt 0.000000 0.000000
vt 0.000000 0.000000
vt 0.000000 0.000000
vt 0.000000 0.000000
vt 0.000000 0.000000
vt 0.000000 0.000000
vt 0.000000 0.000000
vt 0.000000 0.000000
vt 0.000000 0.000000
vt 0.000000 0.000000
vt 0.000000 0.000000
vt 0.000000 0.000000
vt 0.000000 0.000000
vt 0.000000 0.000000
vt 0.000000 0.000000
vt 0.000000 0.000000
vt 0.000000 0.000000
vt 0.000000 0.000000
vt 0.000000 0.000000
vt 0.000000 0.000000
vt 0.000000 0.000000
vt 0.000000 0.000000
vt 0.000000 0.000000
vt 0.000000 0.000000
vt 0.000000 0.000000
vt 0.000000 0.000000
vt 0.000000 0.000000
vt 0.000000 0.000000
vt 0.000000 0.000000
vt 0.000000 0.000000
vt 0.000000 0.000000
vt 0.000000 0.000000
vt 0.000000 0.000000
vt 0.000000 0.000000
vt 0.000000 0.000000
vt 0.000000 0.000000
vt 0.000000 0.000000
vt 0.000000 0.000000
vt 0.000000 0.000000
vt 0.000000 0.000000
vt 0.000000 0.000000
vt 0.000000 0.000000
vt 0.000000 0.000000
vt 0.000000 0.000000
vt 0.000000 0.000000
vt 0.000000 0.000000
vt 0.000000 0.000000
vt 0.000000 0.000000
vt 0.000000 0.000000
vt 0.000000 0.000000
vt 0.000000 0.000000
vt 0.000000 0.000000
vt 0.000000 0.000000
vt 0.000000 0.000000
vt 0.000000 0.000000
vt 0.000000 0.000000
vt 0.000000 0.000000
vt 0.000000 0.000000
vt 0.000000 0.000000
vt 0.000000 0.000000
vt 0.000000 0.000000
vt 0.000000 0.000000
vt 0.000000 0.000000
vt 0.000000 0.000000
vt 0.000000 0.000000
vt 0.000000 0.000000
vt 0.000000 0.000000
vt 0.000000 0.000000
vt 0.000000 0.000000
vt 0.000000 0.000000
vt 0.000000 0.000000
vt 0.000000 0.000000
vt 0.000000 0.000000
vt 0.000000 0.000000
vt 0.000000 0.000000
vt 0.000000 0.000000
vt 0.000000 0.000000
vt 0.000000 0.000000
vt 0.000000 0.000000
vt 0.000000 0.000000
vt 0.000000 0.000000
vt 0.000000 0.000000
vt 0.000000 0.000000
vt 0.000000 0.000000
vt 0.000000 0.000000
vt 0.000000 0.000000
vt 0.000000 0.000000
vt 0.000000 0.000000
vt 0.000000 0.000000
vt 0.000000 0.000000
vt 0.000000 0.000000
vt 0.000000 0.000000
vt 0.000000 0.000000
vt 0.000000 0.000000
vt 0.000000 0.000000
vt 0.000000 0.000000
vt 0.000000 0.000000
vt 0.000000 0.000000
vt 0.000000 0.000000
vt 0.000000 0.000000
vt 0.000000 0.000000
vt 0.000000 0.000000
vt 0.000000 0.000000
vt 0.000000 0.000000
vt 0.000000 0.000000
vt 0.000000 0.000000
vt 0.000000 0.000000
vt 0.000000 0.000000
vt 0.000000 0.000000
vt 0.000000 0.000000
vt 0.000000 0.000000
vt 0.000000 0.000000
vt 0.000000 0.000000
vt 0.000000 0.000000
vt 0.000000 0.000000
vt 0.000000 0.000000
vt 0.000000 0.000000
vt 0.000000 0.000000
vt 0.000000 0.000000
vt 0.000000 0.000000
vt 0.000000 0.000000
vt 0.000000 0.000000
vt 0.000000 0.000000
vt 0.000000 0.000000
vt 0.000000 0.000000
vt 0.000000 0.000000
vt 0.000000 0.000000
vt 0.000000 0.000000
vt 0.000000 0.000000
vt 0.000000 0.000000
vt 0.000000 0.000000
vt 0.000000 0.000000
vt 0.000000 0.000000
vt 0.000000 0.000000
vt 0.000000 0.000000
vt 0.000000 0.000000
vt 0.000000 0.000000
vt 0.000000 0.000000
vt 0.000000 0.000000
vt 0.000000 0.000000
vt 0.000000 0.000000
vt 0.000000 0.000000
vt 0.000000 0.000000
vt 0.000000 0.000000
vt 0.000000 0.000000
vt 0.000000 0.000000
vt 0.000000 0.000000
vt 0.000000 0.000000
vt 0.000000 0.000000
vt 0.000000 0.000000
vt 0.000000 0.000000
vt 0.000000 0.000000
vt 0.000000 0.000000
vt 0.000000 0.000000
vt 0.000000 0.000000
vt 0.000000 0.000000
vt 0.000000 0.000000
vt 0.000000 0.000000
vt 0.000000 0.000000
vt 0.000000 0.000000
vt 0.000000 0.000000
vt 0.000000 0.000000
vt 0.000000 0.000000
vt 0.000000 0.000000
vt 0.000000 0.000000
vt 0.000000 0.000000
vt 0.000000 0.000000
vt 0.000000 0.000000
vt 0.000000 0.000000
vt 0.000000 0.000000
vt 0.000000 0.000000
vt 0.000000 0.000000
vt 0.000000 0.000000
vt 0.000000 0.000000
vt 0.000000 0.000000
vt 0.000000 0.000000
vt 0.000000 0.000000
vt 0.000000 0.000000
vt 0.000000 0.000000
vt 0.000000 0.000000
vt 0.000000 0.000000
vt 0.000000 0.000000
vt 0.000000 0.000000
vt 0.000000 0.000000
vt 0.000000 0.000000
vt 0.000000 0.000000
vt 0.000000 0.000000
vt 0.000000 0.000000
vt 0.000000 0.000000
vt 0.000000 0.000000
vn 0.000000 0.000000 1.000000
vn 0.000000 0.000000 1.000000
vn 0.000000 0.000000 1.000000
vn 0.000000 0.000000 1.000000
vn 0.000000 0.000000 1.000000
vn 0.000000 0.000000 1.000000
vn 0.000000 0.000000 1.000000
vn 0.000000 0.000000 1.000000
vn 0.000000 0.000000 1.000000
vn 0.000000 0.000000 1.000000
vn 0.000000 0.000000 1.000000
vn 0.000000 0.000000 1.000000
vn 0.000000 0.000000 1.000000
vn 0.000000 0.000000 1.000000
vn 0.000000 0.000000 1.000000
vn 0.000000 0.000000 1.000000
vn 0.000000 0.000000 1.000000
vn 0.000000 0.000000 1.000000
vn 0.000000 0.000000 1.000000
vn 0.000000 0.000000 1.000000
vn 0.000000 0.000000 1.000000
vn 0.000000 0.000000 1.000000
vn 0.000000 0.000000 1.000000
vn 0.000000 0.000000 1.000000
vn 0.000000 0.000000 1.000000
vn 0.000000 0.000000 1.000000
vn 0.000000 0.000000 1.000000
vn 0.000000 0.000000 1.000000
vn 0.000000 0.000000 1.000000
vn 0.000000 0.000000 1.000000
vn 0.000000 0.000000 1.000000
vn 0.000000 0.000000 1.000000
vn 0.000000 0.000000 1.000000
vn 0.000000 0.000000 1.000000
vn 0.000000 0.000000 1.000000
vn 0.000000 0.000000 1.000000
vn 0.000000 0.000000 1.000000
vn 0.000000 0.000000 1.000000
vn 0.000000 0.000000 1.000000
vn 0.000000 0.000000 1.000000
vn 0.000000 0.000000 1.000000
vn 0.000000 0.000000 1.000000
vn 0.000000 0.000000 1.000000
vn 0.000000 0.000000 1.000000
vn 0.000000 0.000000 1.000000
vn 0.000000 0.000000 1.000000
vn 0.000000 0.000000 1.000000
vn 0.000000 0.000000 1.000000
vn 0.000000 0.000000 1.000000
vn 0.000000 0.000000 1.000000
vn 0.000000 0.000000 1.000000
vn 0.000000 0.000000 1.000000
vn 0.000000 0.000000 1.000000
vn 0.000000 0.000000 1.000000
vn 0.000000 0.000000 1.000000
vn 0.000000 0.000000 1.000000
vn 0.000000 0.000000 1.000000
vn 0.000000 0.000000 1.000000
vn 0.000000 0.000000 1.000000
vn 0.000000 0.000000 1.000000
vn 0.000000 0.000000 1.000000
vn 0.000000 0.000000 1.000000
vn 0.000000 0.000000 1.000000
vn 0.000000 0.000000 1.000000
vn 0.000000 0.000000 1.000000
vn 0.000000 0.000000 1.000000
vn 0.957112 -0.000000 -0.289718
vn 0.953256 0.054451 -0.297218
vn 0.998364 0.057172 -0.000000
vn 0.957112 -0.000000 -0.289718
vn 0.998364 0.057172 -0.000000
vn 1.000000 -0.000000 0.000000
vn 0.000000 -0.000000 -1.000000
vn 0.000000 -0.000000 -1.000000
vn 0.000000 -0.000000 -1.000000
vn 0.000000 -0.000000 -1.000000
vn 0.000000 -0.000000 -1.000000
vn 0.000000 -0.000000 -1.000000
vn 0.000000 -0.000000 -1.000000
vn 0.000000 -0.000000 -1.000000
vn 0.000000 -0.000000 -1.000000
vn 0.000000 -0.000000 -1.000000
vn 0.000000 -0.000000 -1.000000
vn 0.000000 -0.000000 -1.000000
vn 0.000000 -0.000000 -1.000000
vn 0.000000 -0.000000 -1.000000
vn 0.000000 -0.000000 -1.000000
vn 0.000000 -0.000000 -1.000000
vn 0.000000 -0.000000 -1.000000
vn 0.000000 -0.000000 -1.000000
vn 0.000000 -0.000000 -1.000000
vn 0.000000 -0.000000 -1.000000
vn 0.000000 -0.000000 -1.000000
vn 0.000000 -0.000000 -1.000000
vn 0.000000 -0.000000 -1.000000
vn 0.000000 -0.000000 -1.000000
vn 0.000000 -0.000000 -1.000000
vn 0.000000 -0.000000 -1.000000
vn 0.000000 -0.000000 -1.000000
vn 0.000000 -0.000000 -1.000000
vn 0.000000 -0.000000 -1.000000
vn 0.000000 -0.000000 -1.000000
vn 0.000000 -0.000000 -1.000000
vn 0.000000 -0.000000 -1.000000
vn 0.000000 -0.000000 -1.000000
vn 0.000000 -0.000000 -1.000000
vn 0.000000 -0.000000 -1.000000
vn 0.000000 -0.000000 -1.000000
vn 0.000000 -0.000000 -1.000000
vn 0.000000 -0.000000 -1.000000
vn 0.000000 -0.000000 -1.000000
vn 0.000000 -0.000000 -1.000000
vn 0.000000 -0.000000 -1.000000
vn 0.000000 -0.000000 -1.000000
vn 0.000000 -0.000000 -1.000000
vn 0.000000 -0.000000 -1.000000
vn 0.000000 -0.000000 -1.000000
vn 0.000000 -0.000000 -1.000000
vn 0.000000 -0.000000 -1.000000
vn 0.000000 -0.000000 -1.000000
vn 0.000000 -0.000000 -1.000000
vn 0.000000 -0.000000 -1.000000
vn 0.000000 -0.000000 -1.000000
vn 0.000000 -0.000000 -1.000000
vn 0.000000 -0.000000 -1.000000
vn 0.000000 -0.000000 -1.000000
vn 0.000000 -0.000000 -1.000000
vn 0.000000 -0.000000 -1.000000
vn 0.000000 -0.000000 -1.000000
vn 0.000000 -0.000000 -1.000000
vn 0.000000 -0.000000 -1.000000
vn 0.000000 -0.000000 -1.000000
vn 0.000000 -0.000000 -1.000000
vn 0.000000 -0.000000 -1.000000
vn 0.000000 -0.000000 -1.000000
vn 0.000000 -0.000000 -1.000000
vn 0.000000 -0.000000 -1.000000
vn 0.000000 -0.000000 -1.000000
vn -0.953256 -0.054451 -0.297218
vn -0.939908 -0.116041 -0.321104
vn -0.992412 -0.122954 0.000000
vn -0.953256 -0.054451 -0.297218
vn -0.992412 -0.122954 0.000000
vn -0.998364 -0.057172 0.000000
vn 0.953256 0.054451 -0.297218
vn 0.939908 0.116041 -0.321104
vn 0.992412 0.122954 -0.000000
vn 0.953256 0.054451 -0.297218
vn 0.992412 0.122954 -0.000000
vn 0.998364 0.057172 -0.000000
vn 0.953256 -0.054451 -0.297218
vn 0.957112 -0.000000 -0.289718
vn 1.000000 -0.000000 0.000000
vn 0.953256 -0.054451 -0.297218
vn 1.000000 -0.000000 0.000000
vn 0.998364 -0.057172 0.000000
vn -0.957112 -0.000000 -0.289718
vn -0.953256 -0.054451 -0.297218
vn -0.998364 -0.057172 0.000000
vn -0.957112 -0.000000 -0.289718
vn -0.998364 -0.057172 0.000000
vn -1.000000 -0.000000 0.000000
vn 0.939908 0.116041 -0.321104
vn 0.909912 0.196019 -0.365565
vn 0.977306 0.211834 -0.000000
vn 0.939908 0.116041 -0.321104
vn 0.977306 0.211834 -0.000000
vn 0.992412 0.122954 -0.000000
vn -0.939908 -0.116041 -0.321104
vn -0.909912 -0.196019 -0.365565
vn -0.977306 -0.211834 0.000000
vn -0.939908 -0.116041 -0.321104
vn -0.977306 -0.211834 0.000000
vn -0.992412 -0.122954 0.000000
vn 0.939908 -0.116041 -0.321104
vn 0.953256 -0.054451 -0.297218
vn 0.998364 -0.057172 0.000000
vn 0.939908 -0.116041 -0.321104
vn 0.998364 -0.057172 0.000000
vn 0.992412 -0.122954 0.000000
vn 0.909912 0.196019 -0.365565
vn 0.840874 0.319967 -0.436523
vn 0.932985 0.359916 -0.000000
vn 0.909912 0.196019 -0.365565
vn 0.932985 0.359916 -0.000000
vn 0.977306 0.211834 -0.000000
vn -0.909912 -0.196019 -0.365565
vn -0.840874 -0.319967 -0.436523
vn -0.932985 -0.359916 0.000000
vn -0.909912 -0.196019 -0.365565
vn -0.932985 -0.359916 0.000000
vn -0.977306 -0.211834 0.000000
vn -0.840874 -0.319967 -0.436523
vn -0.633430 -0.556922 -0.537219
vn -0.738455 -0.674303 0.000000
vn -0.840874 -0.319967 -0.436523
vn -0.738455 -0.674303 0.000000
vn -0.932985 -0.359916 0.000000
vn 0.840874 0.319967 -0.436523
vn 0.633430 0.556921 -0.537220
vn 0.738455 0.674303 -0.000000
vn 0.840874 0.319967 -0.436523
vn 0.738455 0.674303 -0.000000
vn 0.932985 0.359916 -0.000000
vn 0.909912 -0.196019 -0.365565
vn 0.939908 -0.116041 -0.321104
vn 0.992412 -0.122954 0.000000
vn 0.909912 -0.196019 -0.365565
vn 0.992412 -0.122954 0.000000
vn 0.977306 -0.211834 0.000000
vn 0.531166 -0.847268 0.000000
vn 0.633430 -0.556921 -0.537219
vn 0.738455 -0.674303 0.000000
vn 0.531166 -0.847268 0.000000
vn 0.738455 -0.674303 0.000000
vn 0.531166 -0.847268 0.000000
vn 0.633430 0.556921 -0.537220
vn 0.531165 0.847268 -0.000000
vn 0.531165 0.847268 -0.000000
vn 0.633430 0.556921 -0.537220
vn 0.531165 0.847268 -0.000000
vn 0.738455 0.674303 -0.000000
vn -0.633430 -0.556922 -0.537219
vn -0.531166 -0.847268 0.000000
vn -0.531166 -0.847268 0.000000
vn -0.633430 -0.556922 -0.537219
vn -0.531166 -0.847268 0.000000
vn -0.738455 -0.674303 0.000000
vn 0.840874 -0.319967 -0.436523
vn 0.909912 -0.196019 -0.365565
vn 0.977306 -0.211834 0.000000
vn 0.840874 -0.319967 -0.436523
vn 0.977306 -0.211834 0.000000
vn 0.932985 -0.359916 0.000000
vn -0.531166 0.847268 -0.000000
vn -0.633430 0.556921 -0.537220
vn -0.738455 0.674303 -0.000000
vn -0.531166 0.847268 -0.000000
vn -0.738455 0.674303 -0.000000
vn -0.531166 0.847268 -0.000000
vn 0.633430 -0.556921 -0.537219
vn 0.840874 -0.319967 -0.436523
vn 0.932985 -0.359916 0.000000
vn 0.633430 -0.556921 -0.537219
vn 0.932985 -0.359916 0.000000
vn 0.738455 -0.674303 0.000000
vn -0.633430 0.556921 -0.537220
vn -0.840874 0.319967 -0.436523
vn -0.932985 0.359916 -0.000000
vn -0.633430 0.556921 -0.537220
vn -0.932985 0.359916 -0.000000
vn -0.738455 0.674303 -0.000000
vn -0.840874 0.319967 -0.436523
vn -0.909912 0.196019 -0.365565
vn -0.977306 0.211834 -0.000000
vn -0.840874 0.319967 -0.436523
vn -0.977306 0.211834 -0.000000
vn -0.932985 0.359916 -0.000000
vn -0.909912 0.196019 -0.365565
vn -0.939908 0.116041 -0.321104
vn -0.992412 0.122954 -0.000000
vn -0.909912 0.196019 -0.365565
vn -0.992412 0.122954 -0.000000
vn -0.977306 0.211834 -0.000000
vn -0.939908 0.116041 -0.321104
vn -0.953256 0.054451 -0.297218
vn -0.998364 0.057172 -0.000000
vn -0.939908 0.116041 -0.321104
vn -0.998364 0.057172 -0.000000
vn -0.992412 0.122954 -0.000000
vn -0.953256 0.054451 -0.297218
vn -0.957112 -0.000000 -0.289718
vn -1.000000 -0.000000 0.000000
vn -0.953256 0.054451 -0.297218
vn -1.000000 -0.000000 0.000000
vn -0.998364 0.057172 -0.000000
vn 0.489860 -0.104262 -0.865544
vn 0.556250 -0.068162 -0.828215
vn 0.939908 -0.116041 -0.321104
vn 0.489860 -0.104262 -0.865544
vn 0.939908 -0.116041 -0.321104
vn 0.909912 -0.196019 -0.365565
vn 0.379996 -0.140748 -0.914217
vn 0.489860 -0.104262 -0.865544
vn 0.909912 -0.196019 -0.365565
vn 0.379996 -0.140748 -0.914217
vn 0.909912 -0.196019 -0.365565
vn 0.840874 -0.319967 -0.436523
vn 0.213622 -0.171517 -0.961742
vn 0.379996 -0.140748 -0.914217
vn 0.840874 -0.319967 -0.436523
vn 0.213622 -0.171517 -0.961742
vn 0.840874 -0.319967 -0.436523
vn 0.633430 -0.556921 -0.537219
vn 0.000000 -0.184266 -0.982876
vn 0.213622 -0.171517 -0.961742
vn 0.633430 -0.556921 -0.537219
vn 0.000000 -0.184266 -0.982876
vn 0.633430 -0.556921 -0.537219
vn 0.000000 -0.300550 -0.953766
vn -0.213622 -0.171517 -0.961742
vn 0.000000 -0.184266 -0.982876
vn 0.000000 -0.300550 -0.953766
vn -0.213622 -0.171517 -0.961742
vn 0.000000 -0.300550 -0.953766
vn -0.633430 -0.556922 -0.537219
vn -0.379996 -0.140748 -0.914217
vn -0.213622 -0.171517 -0.961742
vn -0.633430 -0.556922 -0.537219
vn -0.379996 -0.140748 -0.914217
vn -0.633430 -0.556922 -0.537219
vn -0.840874 -0.319967 -0.436523
vn -0.489860 -0.104262 -0.865544
vn -0.379996 -0.140748 -0.914217
vn -0.840874 -0.319967 -0.436523
vn -0.489860 -0.104262 -0.865544
vn -0.840874 -0.319967 -0.436523
vn -0.909912 -0.196019 -0.365565
vn -0.556249 -0.068162 -0.828215
vn -0.489860 -0.104262 -0.865544
vn -0.909912 -0.196019 -0.365565
vn -0.556249 -0.068162 -0.828215
vn -0.909912 -0.196019 -0.365565
vn -0.939908 -0.116041 -0.321104
vn -0.591592 -0.033596 -0.805537
vn -0.556249 -0.068162 -0.828215
vn -0.939908 -0.116041 -0.321104
vn -0.591592 -0.033596 -0.805537
vn -0.939908 -0.116041 -0.321104
vn -0.953256 -0.054451 -0.297218
vn -0.602685 -0.000000 -0.797979
vn -0.591592 -0.033596 -0.805537
vn -0.953256 -0.054451 -0.297218
vn -0.602685 -0.000000 -0.797979
vn -0.953256 -0.054451 -0.297218
vn -0.957112 -0.000000 -0.289718
vn -0.591592 0.033596 -0.805537
vn -0.602685 -0.000000 -0.797979
vn -0.957112 -0.000000 -0.289718
vn -0.591592 0.033596 -0.805537
vn -0.957112 -0.000000 -0.289718
vn -0.953256 0.054451 -0.297218
vn -0.556250 0.068162 -0.828215
vn -0.591592 0.033596 -0.805537
vn -0.953256 0.054451 -0.297218
vn -0.556250 0.068162 -0.828215
vn -0.953256 0.054451 -0.297218
vn -0.939908 0.116041 -0.321104
vn -0.489860 0.104262 -0.865544
vn -0.556250 0.068162 -0.828215
vn -0.939908 0.116041 -0.321104
vn -0.489860 0.104262 -0.865544
vn -0.939908 0.116041 -0.321104
vn -0.909912 0.196019 -0.365565
vn -0.379996 0.140748 -0.914217
vn -0.489860 0.104262 -0.865544
vn -0.909912 0.196019 -0.365565
vn -0.379996 0.140748 -0.914217
vn -0.909912 0.196019 -0.365565
vn -0.840874 0.319967 -0.436523
vn -0.213622 0.171517 -0.961742
vn -0.379996 0.140748 -0.914217
vn -0.840874 0.319967 -0.436523
vn -0.213622 0.171517 -0.961742
vn -0.840874 0.319967 -0.436523
vn -0.633430 0.556921 -0.537220
vn 0.000000 0.184266 -0.982876
vn -0.213622 0.171517 -0.961742
vn -0.633430 0.556921 -0.537220
vn 0.000000 0.184266 -0.982876
vn -0.633430 0.556921 -0.537220
vn 0.000000 0.300550 -0.953766
vn 0.213622 0.171517 -0.961742
vn 0.000000 0.184266 -0.982876
vn 0.000000 0.300550 -0.953766
vn 0.213622 0.171517 -0.961742
vn 0.000000 0.300550 -0.953766
vn 0.633430 0.556921 -0.537220
vn 0.379996 0.140748 -0.914217
vn 0.213622 0.171517 -0.961742
vn 0.633430 0.556921 -0.537220
vn 0.379996 0.140748 -0.914217
vn 0.633430 0.556921 -0.537220
vn 0.840874 0.319967 -0.436523
vn 0.489860 0.104262 -0.865544
vn 0.379996 0.140748 -0.914217
vn 0.840874 0.319967 -0.436523
vn 0.489860 0.104262 -0.865544
vn 0.840874 0.319967 -0.436523
vn 0.909912 0.196019 -0.365565
vn 0.556250 0.068162 -0.828215
vn 0.489860 0.104262 -0.865544
vn 0.909912 0.196019 -0.365565
vn 0.556250 0.068162 -0.828215
vn 0.909912 0.196019 -0.365565
vn 0.939908 0.116041 -0.321104
vn 0.591592 0.033596 -0.805537
vn 0.556250 0.068162 -0.828215
vn 0.939908 0.116041 -0.321104
vn 0.591592 0.033596 -0.805537
vn 0.939908 0.116041 -0.321104
vn 0.953256 0.054451 -0.297218
vn 0.591592 -0.033596 -0.805537
vn 0.602685 -0.000000 -0.797979
vn 0.957112 -0.000000 -0.289718
vn 0.591592 -0.033596 -0.805537
vn 0.957112 -0.000000 -0.289718
vn 0.953256 -0.054451 -0.297218
vn 0.556250 -0.068162 -0.828215
vn 0.591592 -0.033596 -0.805537
vn 0.953256 -0.054451 -0.297218
vn 0.556250 -0.068162 -0.828215
vn 0.953256 -0.054451 -0.297218
vn 0.939908 -0.116041 -0.321104
vn 0.602685 -0.000000 -0.797979
vn 0.591592 0.033596 -0.805537
vn 0.953256 0.054451 -0.297218
vn 0.602685 -0.000000 -0.797979
vn 0.953256 0.054451 -0.297218
vn 0.957112 -0.000000 -0.289718
vn 0.221103 -0.046507 -0.974141
vn 0.267789 -0.032519 -0.962929
vn 0.556250 -0.068162 -0.828215
vn 0.221103 -0.046507 -0.974141
vn 0.556250 -0.068162 -0.828215
vn 0.489860 -0.104262 -0.865544
vn 0.158136 -0.057614 -0.985735
vn 0.221103 -0.046507 -0.974141
vn 0.489860 -0.104262 -0.865544
vn 0.158136 -0.057614 -0.985735
vn 0.489860 -0.104262 -0.865544
vn 0.379996 -0.140748 -0.914217
vn 0.082556 -0.064811 -0.994477
vn 0.158136 -0.057614 -0.985735
vn 0.379996 -0.140748 -0.914217
vn 0.082556 -0.064811 -0.994477
vn 0.379996 -0.140748 -0.914217
vn 0.213622 -0.171517 -0.961742
vn 0.000000 -0.067309 -0.997732
vn 0.082556 -0.064811 -0.994477
vn 0.213622 -0.171517 -0.961742
vn 0.000000 -0.067309 -0.997732
vn 0.213622 -0.171517 -0.961742
vn 0.000000 -0.184266 -0.982876
vn -0.082556 -0.064811 -0.994477
vn 0.000000 -0.067309 -0.997732
vn 0.000000 -0.184266 -0.982876
vn -0.082556 -0.064811 -0.994477
vn 0.000000 -0.184266 -0.982876
vn -0.213622 -0.171517 -0.961742
vn -0.158136 -0.057614 -0.985735
vn -0.082556 -0.064811 -0.994477
vn -0.213622 -0.171517 -0.961742
vn -0.158136 -0.057614 -0.985735
vn -0.213622 -0.171517 -0.961742
vn -0.379996 -0.140748 -0.914217
vn -0.221103 -0.046507 -0.974141
vn -0.158136 -0.057614 -0.985735
vn -0.379996 -0.140748 -0.914217
vn -0.221103 -0.046507 -0.974141
vn -0.379996 -0.140748 -0.914217
vn -0.489860 -0.104262 -0.865544
vn -0.267789 -0.032519 -0.962929
vn -0.221103 -0.046507 -0.974141
vn -0.489860 -0.104262 -0.865544
vn -0.267789 -0.032519 -0.962929
vn -0.489860 -0.104262 -0.865544
vn -0.556249 -0.068162 -0.828215
vn -0.296292 -0.016698 -0.954951
vn -0.267789 -0.032519 -0.962929
vn -0.556249 -0.068162 -0.828215
vn -0.296292 -0.016698 -0.954951
vn -0.556249 -0.068162 -0.828215
vn -0.591592 -0.033596 -0.805537
vn -0.305853 -0.000000 -0.952079
vn -0.296292 -0.016698 -0.954951
vn -0.591592 -0.033596 -0.805537
vn -0.305853 -0.000000 -0.952079
vn -0.591592 -0.033596 -0.805537
vn -0.602685 -0.000000 -0.797979
vn -0.296292 0.016698 -0.954951
vn -0.305853 -0.000000 -0.952079
vn -0.602685 -0.000000 -0.797979
vn -0.296292 0.016698 -0.954951
vn -0.602685 -0.000000 -0.797979
vn -0.591592 0.033596 -0.805537
vn -0.267789 0.032519 -0.962929
vn -0.296292 0.016698 -0.954951
vn -0.591592 0.033596 -0.805537
vn -0.267789 0.032519 -0.962929
vn -0.591592 0.033596 -0.805537
vn -0.556250 0.068162 -0.828215
vn -0.221103 0.046507 -0.974141
vn -0.267789 0.032519 -0.962929
vn -0.556250 0.068162 -0.828215
vn -0.221103 0.046507 -0.974141
vn -0.556250 0.068162 -0.828215
vn -0.489860 0.104262 -0.865544
vn -0.158136 0.057614 -0.985735
vn -0.221103 0.046507 -0.974141
vn -0.489860 0.104262 -0.865544
vn -0.158136 0.057614 -0.985735
vn -0.489860 0.104262 -0.865544
vn -0.379996 0.140748 -0.914217
vn -0.082556 0.064811 -0.994477
vn -0.158136 0.057614 -0.985735
vn -0.379996 0.140748 -0.914217
vn -0.082556 0.064811 -0.994477
vn -0.379996 0.140748 -0.914217
vn -0.213622 0.171517 -0.961742
vn -0.000000 0.067309 -0.997732
vn -0.082556 0.064811 -0.994477
vn -0.213622 0.171517 -0.961742
vn -0.000000 0.067309 -0.997732
vn -0.213622 0.171517 -0.961742
vn 0.000000 0.184266 -0.982876
vn 0.082556 0.064811 -0.994477
vn -0.000000 0.067309 -0.997732
vn 0.000000 0.184266 -0.982876
vn 0.082556 0.064811 -0.994477
vn 0.000000 0.184266 -0.982876
vn 0.213622 0.171517 -0.961742
vn 0.158136 0.057614 -0.985735
vn 0.082556 0.064811 -0.994477
vn 0.213622 0.171517 -0.961742
vn 0.158136 0.057614 -0.985735
vn 0.213622 0.171517 -0.961742
vn 0.379996 0.140748 -0.914217
vn 0.221103 0.046507 -0.974141
vn 0.158136 0.057614 -0.985735
vn 0.379996 0.140748 -0.914217
vn 0.221103 0.046507 -0.974141
vn 0.379996 0.140748 -0.914217
vn 0.489860 0.104262 -0.865544
vn 0.267789 0.032519 -0.962929
vn 0.221103 0.046507 -0.974141
vn 0.489860 0.104262 -0.865544
vn 0.267789 0.032519 -0.962929
vn 0.489860 0.104262 -0.865544
vn 0.556250 0.068162 -0.828215
vn 0.296292 0.016698 -0.954951
vn 0.267789 0.032519 -0.962929
vn 0.556250 0.068162 -0.828215
vn 0.296292 0.016698 -0.954951
vn 0.556250 0.068162 -0.828215
vn 0.591592 0.033596 -0.805537
vn 0.305853 -0.000000 -0.952079
vn 0.296292 0.016698 -0.954951
vn 0.591592 0.033596 -0.805537
vn 0.305853 -0.000000 -0.952079
vn 0.591592 0.033596 -0.805537
vn 0.602685 -0.000000 -0.797979
vn 0.296292 -0.016698 -0.954951
vn 0.305853 -0.000000 -0.952079
vn 0.602685 -0.000000 -0.797979
vn 0.296292 -0.016698 -0.954951
vn 0.602685 -0.000000 -0.797979
vn 0.591592 -0.033596 -0.805537
vn 0.267789 -0.032519 -0.962929
vn 0.296292 -0.016698 -0.954951
vn 0.591592 -0.033596 -0.805537
vn 0.267789 -0.032519 -0.962929
vn 0.591592 -0.033596 -0.805537
vn 0.556250 -0.068162 -0.828215
vn 0.977306 -0.211833 0.000000
vn 0.853407 -0.105167 0.510526
vn 0.992412 -0.122954 0.000000
vn 0.977306 -0.211833 0.000000
vn 0.992412 -0.122954 0.000000
vn 0.977306 -0.211833 0.000000
vn 0.932985 -0.359916 0.000000
vn 0.977306 -0.211833 0.000000
vn 0.977306 -0.211833 0.000000
vn 0.932985 -0.359916 0.000000
vn 0.977306 -0.211833 0.000000
vn 0.932985 -0.359916 0.000000
vn 0.738455 -0.674302 0.000000
vn 0.932985 -0.359916 0.000000
vn 0.932985 -0.359916 0.000000
vn 0.738455 -0.674302 0.000000
vn 0.932985 -0.359916 0.000000
vn 0.738455 -0.674302 0.000000
vn 0.531168 -0.847267 0.000000
vn 0.738455 -0.674302 0.000000
vn 0.738455 -0.674302 0.000000
vn 0.531168 -0.847267 0.000000
vn 0.738455 -0.674302 0.000000
vn 0.531168 -0.847267 0.000000
vn -0.738455 -0.674303 0.000000
vn -0.531167 -0.847267 0.000000
vn -0.531167 -0.847267 0.000000
vn -0.738455 -0.674303 0.000000
vn -0.531167 -0.847267 0.000000
vn -0.738455 -0.674303 0.000000
vn -0.932984 -0.359917 0.000000
vn -0.738455 -0.674303 0.000000
vn -0.738455 -0.674303 0.000000
vn -0.932984 -0.359917 0.000000
vn -0.738455 -0.674303 0.000000
vn -0.932984 -0.359917 0.000000
vn -0.977306 -0.211834 0.000000
vn -0.932984 -0.359917 0.000000
vn -0.932984 -0.359917 0.000000
vn -0.977306 -0.211834 0.000000
vn -0.932984 -0.359917 0.000000
vn -0.977306 -0.211834 0.000000
vn -0.853407 -0.105167 0.510526
vn -0.977306 -0.211834 0.000000
vn -0.977306 -0.211834 0.000000
vn -0.853407 -0.105167 0.510526
vn -0.977306 -0.211834 0.000000
vn -0.992412 -0.122954 0.000000
vn -0.869712 -0.049588 0.491063
vn -0.853407 -0.105167 0.510526
vn -0.992412 -0.122954 0.000000
vn -0.869712 -0.049588 0.491063
vn -0.992412 -0.122954 0.000000
vn -0.998364 -0.057172 0.000000
vn -0.874751 0.000000 0.484572
vn -0.869712 -0.049588 0.491063
vn -0.998364 -0.057172 0.000000
vn -0.874751 0.000000 0.484572
vn -0.998364 -0.057172 0.000000
vn -1.000000 0.000000 0.000000
vn -0.869712 0.049588 0.491063
vn -0.874751 0.000000 0.484572
vn -1.000000 0.000000 0.000000
vn -0.869712 0.049588 0.491063
vn -1.000000 0.000000 0.000000
vn -0.998364 0.057172 0.000000
vn -0.853407 0.105167 0.510526
vn -0.869712 0.049588 0.491063
vn -0.998364 0.057172 0.000000
vn -0.853407 0.105167 0.510526
vn -0.998364 0.057172 0.000000
vn -0.992412 0.122954 0.000000
vn -0.977306 0.211833 0.000000
vn -0.853407 0.105167 0.510526
vn -0.992412 0.122954 0.000000
vn -0.977306 0.211833 0.000000
vn -0.992412 0.122954 0.000000
vn -0.977306 0.211833 0.000000
vn -0.932984 0.359917 0.000000
vn -0.977306 0.211833 0.000000
vn -0.977306 0.211833 0.000000
vn -0.932984 0.359917 0.000000
vn -0.977306 0.211833 0.000000
vn -0.932984 0.359917 0.000000
vn -0.738455 0.674303 0.000000
vn -0.932984 0.359917 0.000000
vn -0.932984 0.359917 0.000000
vn -0.738455 0.674303 0.000000
vn -0.932984 0.359917 0.000000
vn -0.738455 0.674303 0.000000
vn -0.531167 0.847267 0.000000
vn -0.738455 0.674303 0.000000
vn -0.738455 0.674303 0.000000
vn -0.531167 0.847267 0.000000
vn -0.738455 0.674303 0.000000
vn -0.531167 0.847267 0.000000
vn 0.738455 0.674303 0.000000
vn 0.531167 0.847267 0.000000
vn 0.531167 0.847267 0.000000
vn 0.738455 0.674303 0.000000
vn 0.531167 0.847267 0.000000
vn 0.738455 0.674303 0.000000
vn 0.932984 0.359917 0.000000
vn 0.738455 0.674303 0.000000
vn 0.738455 0.674303 0.000000
vn 0.932984 0.359917 0.000000
vn 0.738455 0.674303 0.000000
vn 0.932984 0.359917 0.000000
vn 0.977306 0.211833 0.000000
vn 0.932984 0.359917 0.000000
vn 0.932984 0.359917 0.000000
vn 0.977306 0.211833 0.000000
vn 0.932984 0.359917 0.000000
vn 0.977306 0.211833 0.000000
vn 0.853407 0.105167 0.510526
vn 0.977306 0.211833 0.000000
vn 0.977306 0.211833 0.000000
vn 0.853407 0.105167 0.510526
vn 0.977306 0.211833 0.000000
vn 0.992412 0.122954 0.000000
vn 0.869712 0.049588 0.491063
vn 0.853407 0.105167 0.510526
vn 0.992412 0.122954 0.000000
vn 0.869712 0.049588 0.491063
vn 0.992412 0.122954 0.000000
vn 0.998364 0.057172 0.000000
vn 0.874751 -0.000000 0.484572
vn 0.869712 0.049588 0.491063
vn 0.998364 0.057172 0.000000
vn 0.874751 -0.000000 0.484572
vn 0.998364 0.057172 0.000000
vn 1.000000 -0.000000 0.000000
vn 0.869712 -0.049588 0.491063
vn 0.874751 -0.000000 0.484572
vn 1.000000 -0.000000 0.000000
vn 0.869712 -0.049588 0.491063
vn 1.000000 -0.000000 0.000000
vn 0.998364 -0.057172 0.000000
vn 0.853407 -0.105167 0.510526
vn 0.869712 -0.049588 0.491063
vn 0.998364 -0.057172 0.000000
vn 0.853407 -0.105167 0.510526
vn 0.998364 -0.057172 0.000000
vn 0.992412 -0.122954 0.000000
vn 0.402309 -0.084940 0.911555
vn 0.853407 -0.105167 0.510526
vn 0.853407 -0.105167 0.510526
vn 0.402309 -0.084940 0.911555
vn 0.853407 -0.105167 0.510526
vn 0.402309 -0.084940 0.911555
vn 0.295705 -0.108185 0.949134
vn 0.402309 -0.084940 0.911555
vn 0.402309 -0.084940 0.911555
vn 0.295705 -0.108185 0.949134
vn 0.402309 -0.084940 0.911555
vn 0.295705 -0.108185 0.949134
vn 0.157759 -0.124410 0.979609
vn 0.295705 -0.108185 0.949134
vn 0.295705 -0.108185 0.949134
vn 0.157759 -0.124410 0.979609
vn 0.295705 -0.108185 0.949134
vn 0.157759 -0.124410 0.979609
vn 0.000000 -0.130305 0.991474
vn 0.157759 -0.124410 0.979609
vn 0.157759 -0.124410 0.979609
vn 0.000000 -0.130305 0.991474
vn 0.157759 -0.124410 0.979609
vn 0.000000 -0.130305 0.991474
vn -0.157759 -0.124410 0.979609
vn 0.000000 -0.130305 0.991474
vn 0.000000 -0.130305 0.991474
vn -0.157759 -0.124410 0.979609
vn 0.000000 -0.130305 0.991474
vn -0.157759 -0.124410 0.979609
vn -0.295705 -0.108185 0.949134
vn -0.157759 -0.124410 0.979609
vn -0.157759 -0.124410 0.979609
vn -0.295705 -0.108185 0.949134
vn -0.157759 -0.124410 0.979609
vn -0.295705 -0.108185 0.949134
vn -0.402309 -0.084940 0.911555
vn -0.295705 -0.108185 0.949134
vn -0.295705 -0.108185 0.949134
vn -0.402309 -0.084940 0.911555
vn -0.295705 -0.108185 0.949134
vn -0.402309 -0.084940 0.911555
vn -0.853407 -0.105167 0.510526
vn -0.402309 -0.084940 0.911555
vn -0.402309 -0.084940 0.911555
vn -0.853407 -0.105167 0.510526
vn -0.402309 -0.084940 0.911555
vn -0.853407 -0.105167 0.510526
vn -0.869712 -0.049588 0.491063
vn -0.853407 -0.105167 0.510526
vn -0.853407 -0.105167 0.510526
vn -0.869712 -0.049588 0.491063
vn -0.853407 -0.105167 0.510526
vn -0.869712 -0.049588 0.491063
vn -0.874751 0.000000 0.484572
vn -0.869712 -0.049588 0.491063
vn -0.869712 -0.049588 0.491063
vn -0.874751 0.000000 0.484572
vn -0.869712 -0.049588 0.491063
vn -0.874751 0.000000 0.484572
vn -0.869712 0.049588 0.491063
vn -0.874751 0.000000 0.484572
vn -0.874751 0.000000 0.484572
vn -0.869712 0.049588 0.491063
vn -0.874751 0.000000 0.484572
vn -0.869712 0.049588 0.491063
vn -0.853407 0.105167 0.510526
vn -0.869712 0.049588 0.491063
vn -0.869712 0.049588 0.491063
vn -0.853407 0.105167 0.510526
vn -0.869712 0.049588 0.491063
vn -0.853407 0.105167 0.510526
vn -0.402309 0.084940 0.911555
vn -0.853407 0.105167 0.510526
vn -0.853407 0.105167 0.510526
vn -0.402309 0.084940 0.911555
vn -0.853407 0.105167 0.510526
vn -0.402309 0.084940 0.911555
vn -0.295705 0.108185 0.949134
vn -0.402309 0.084940 0.911555
vn -0.402309 0.084940 0.911555
vn -0.295705 0.108185 0.949134
vn -0.402309 0.084940 0.911555
vn -0.295705 0.108185 0.949134
vn -0.157759 0.124410 0.979609
vn -0.295705 0.108185 0.949134
vn -0.295705 0.108185 0.949134
vn -0.157759 0.124410 0.979609
vn -0.295705 0.108185 0.949134
vn -0.157759 0.124410 0.979609
vn -0.000000 0.130305 0.991474
vn -0.157759 0.124410 0.979609
vn -0.157759 0.124410 0.979609
vn -0.000000 0.130305 0.991474
vn -0.157759 0.124410 0.979609
vn -0.000000 0.130305 0.991474
vn 0.157759 0.124410 0.979609
vn -0.000000 0.130305 0.991474
vn -0.000000 0.130305 0.991474
vn 0.157759 0.124410 0.979609
vn -0.000000 0.130305 0.991474
vn 0.157759 0.124410 0.979609
vn 0.295705 0.108185 0.949134
vn 0.157759 0.124410 0.979609
vn 0.157759 0.124410 0.979609
vn 0.295705 0.108185 0.949134
vn 0.157759 0.124410 0.979609
vn 0.295705 0.108185 0.949134
vn 0.402309 0.084940 0.911555
vn 0.295705 0.108185 0.949134
vn 0.295705 0.108185 0.949134
vn 0.402309 0.084940 0.911555
vn 0.295705 0.108185 0.949134
vn 0.402309 0.084940 0.911555
vn 0.853407 0.105167 0.510526
vn 0.402309 0.084940 0.911555
vn 0.402309 0.084940 0.911555
vn 0.853407 0.105167 0.510526
vn 0.402309 0.084940 0.911555
vn 0.853407 0.105167 0.510526
vn 0.869712 0.049588 0.491063
vn 0.853407 0.105167 0.510526
vn 0.853407 0.105167 0.510526
vn 0.869712 0.049588 0.491063
vn 0.853407 0.105167 0.510526
vn 0.869712 0.049588 0.491063
vn 0.874751 -0.000000 0.484572
vn 0.869712 0.049588 0.491063
vn 0.869712 0.049588 0.491063
vn 0.874751 -0.000000 0.484572
vn 0.869712 0.049588 0.491063
vn 0.874751 -0.000000 0.484572
vn 0.869712 -0.049588 0.491063
vn 0.874751 -0.000000 0.484572
vn 0.874751 -0.000000 0.484572
vn 0.869712 -0.049588 0.491063
vn 0.874751 -0.000000 0.484572
vn 0.869712 -0.049588 0.491063
vn 0.853407 -0.105167 0.510526
vn 0.869712 -0.049588 0.491063
vn 0.869712 -0.049588 0.491063
vn 0.853407 -0.105167 0.510526
vn 0.869712 -0.049588 0.491063
vn 0.853407 -0.105167 0.510526
vn 0.977306 -0.211834 0.000000
vn 0.992412 -0.122954 0.000000
vn 0.853407 -0.105167 0.510526
vn 0.977306 -0.211834 0.000000
vn 0.853407 -0.105167 0.510526
vn 0.977306 -0.211834 0.000000
vn 0.932985 -0.359916 0.000000
vn 0.977306 -0.211834 0.000000
vn 0.977306 -0.211834 0.000000
vn 0.932985 -0.359916 0.000000
vn 0.977306 -0.211834 0.000000
vn 0.932985 -0.359916 0.000000
vn 0.738455 -0.674303 0.000000
vn 0.932985 -0.359916 0.000000
vn 0.932985 -0.359916 0.000000
vn 0.738455 -0.674303 0.000000
vn 0.932985 -0.359916 0.000000
vn 0.738455 -0.674303 0.000000
vn 0.531166 -0.847268 0.000000
vn 0.738455 -0.674303 0.000000
vn 0.738455 -0.674303 0.000000
vn 0.531166 -0.847268 0.000000
vn 0.738455 -0.674303 0.000000
vn 0.531166 -0.847268 0.000000
vn -0.738454 -0.674303 0.000000
vn -0.531165 -0.847269 0.000000
vn -0.531165 -0.847269 0.000000
vn -0.738454 -0.674303 0.000000
vn -0.531165 -0.847269 0.000000
vn -0.738454 -0.674303 0.000000
vn -0.932985 -0.359916 0.000000
vn -0.738454 -0.674303 0.000000
vn -0.738454 -0.674303 0.000000
vn -0.932985 -0.359916 0.000000
vn -0.738454 -0.674303 0.000000
vn -0.932985 -0.359916 0.000000
vn -0.977306 -0.211834 0.000000
vn -0.932985 -0.359916 0.000000
vn -0.932985 -0.359916 0.000000
vn -0.977306 -0.211834 0.000000
vn -0.932985 -0.359916 0.000000
vn -0.977306 -0.211834 0.000000
vn -0.992412 -0.122954 0.000000
vn -0.977306 -0.211834 0.000000
vn -0.977306 -0.211834 0.000000
vn -0.992412 -0.122954 0.000000
vn -0.977306 -0.211834 0.000000
vn -0.853407 -0.105167 0.510526
vn -0.998364 -0.057172 0.000000
vn -0.992412 -0.122954 0.000000
vn -0.853407 -0.105167 0.510526
vn -0.998364 -0.057172 0.000000
vn -0.853407 -0.105167 0.510526
vn -0.869712 -0.049588 0.491063
vn -1.000000 -0.000000 0.000000
vn -0.998364 -0.057172 0.000000
vn -0.869712 -0.049588 0.491063
vn -1.000000 -0.000000 0.000000
vn -0.869712 -0.049588 0.491063
vn -0.874751 0.000000 0.484572
vn -0.998364 0.057172 0.000000
vn -1.000000 -0.000000 0.000000
vn -0.874751 0.000000 0.484572
vn -0.998364 0.057172 0.000000
vn -0.874751 0.000000 0.484572
vn -0.869712 0.049588 0.491063
vn -0.992412 0.122954 0.000000
vn -0.998364 0.057172 0.000000
vn -0.869712 0.049588 0.491063
vn -0.992412 0.122954 0.000000
vn -0.869712 0.049588 0.491063
vn -0.853407 0.105167 0.510526
vn -0.977306 0.211834 0.000000
vn -0.992412 0.122954 0.000000
vn -0.853407 0.105167 0.510526
vn -0.977306 0.211834 0.000000
vn -0.853407 0.105167 0.510526
vn -0.977306 0.211834 0.000000
vn -0.932985 0.359916 0.000000
vn -0.977306 0.211834 0.000000
vn -0.977306 0.211834 0.000000
vn -0.932985 0.359916 0.000000
vn -0.977306 0.211834 0.000000
vn -0.932985 0.359916 0.000000
vn -0.738454 0.674303 0.000000
vn -0.932985 0.359916 0.000000
vn -0.932985 0.359916 0.000000
vn -0.738454 0.674303 0.000000
vn -0.932985 0.359916 0.000000
vn -0.738454 0.674303 0.000000
vn -0.531165 0.847269 0.000000
vn -0.738454 0.674303 0.000000
vn -0.738454 0.674303 0.000000
vn -0.531165 0.847269 0.000000
vn -0.738454 0.674303 0.000000
vn -0.531165 0.847269 0.000000
vn 0.738454 0.674304 0.000000
vn 0.531164 0.847269 0.000000
vn 0.531164 0.847269 0.000000
vn 0.738454 0.674304 0.000000
vn 0.531164 0.847269 0.000000
vn 0.738454 0.674304 0.000000
vn 0.932985 0.359916 0.000000
vn 0.738454 0.674304 0.000000
vn 0.738454 0.674304 0.000000
vn 0.932985 0.359916 0.000000
vn 0.738454 0.674304 0.000000
vn 0.932985 0.359916 0.000000
vn 0.977306 0.211834 0.000000
vn 0.932985 0.359916 0.000000
vn 0.932985 0.359916 0.000000
vn 0.977306 0.211834 0.000000
vn 0.932985 0.359916 0.000000
vn 0.977306 0.211834 0.000000
vn 0.992412 0.122954 0.000000
vn 0.977306 0.211834 0.000000
vn 0.977306 0.211834 0.000000
vn 0.992412 0.122954 0.000000
vn 0.977306 0.211834 0.000000
vn 0.853407 0.105167 0.510526
vn 0.998364 0.057172 0.000000
vn 0.992412 0.122954 0.000000
vn 0.853407 0.105167 0.510526
vn 0.998364 0.057172 0.000000
vn 0.853407 0.105167 0.510526
vn 0.869712 0.049588 0.491063
vn 1.000000 -0.000000 0.000000
vn 0.998364 0.057172 0.000000
vn 0.869712 0.049588 0.491063
vn 1.000000 -0.000000 0.000000
vn 0.869712 0.049588 0.491063
vn 0.874751 -0.000000 0.484572
vn 0.998364 -0.057172 0.000000
vn 1.000000 -0.000000 0.000000
vn 0.874751 -0.000000 0.484572
vn 0.998364 -0.057172 0.000000
vn 0.874751 -0.000000 0.484572
vn 0.869712 -0.049588 0.491063
vn 0.992412 -0.122954 0.000000
vn 0.998364 -0.057172 0.000000
vn 0.869712 -0.049588 0.491063
vn 0.992412 -0.122954 0.000000
vn 0.869712 -0.049588 0.491063
vn 0.853407 -0.105167 0.510526
f 5/1/1 7/2/2 9/3/3
f 5/4/4 9/5/5 11/6/6
f 5/7/7 11/8/8 13/9/9
f 5/10/10 13/11/11 15/12/12
f 5/13/13 15/14/14 17/15/15
f 5/16/16 17/17/17 19/18/18
f 5/19/19 19/20/20 21/21/21
f 5/22/22 21/23/23 23/24/24
f 5/25/25 23/26/26 25/27/27
f 5/28/28 25/29/29 27/30/30
f 5/31/31 27/32/32 29/33/33
f 5/34/34 29/35/35 31/36/36
f 5/37/37 31/38/38 33/39/39
f 5/40/40 33/41/41 35/42/42
f 5/43/43 35/44/44 37/45/45
f 5/46/46 37/47/47 39/48/48
f 5/49/49 39/50/50 41/51/51
f 5/52/52 41/53/53 43/54/54
f 5/55/55 43/56/56 45/57/57
f 5/58/58 45/59/59 47/60/60
f 5/61/61 47/62/62 1/63/63
f 5/64/64 1/65/65 3/66/66
f 2/67/67 4/68/68 3/69/69
f 2/70/70 3/71/71 1/72/72
f 168/73/73 146/74/74 145/75/75
f 168/76/76 145/77/77 147/78/78
f 168/79/79 147/80/80 148/81/81
f 168/82/82 148/83/83 149/84/84
f 168/85/85 149/86/86 150/87/87
f 168/88/88 150/89/89 151/90/90
f 168/91/91 151/92/92 152/93/93
f 168/94/94 152/95/95 153/96/96
f 168/97/97 153/98/98 154/99/99
f 168/100/100 154/101/101 155/102/102
f 168/103/103 155/104/104 156/105/105
f 168/106/106 156/107/107 157/108/108
f 168/109/109 157/110/110 158/111/111
f 168/112/112 158/113/113 159/114/114
f 168/115/115 159/116/116 160/117/117
f 168/118/118 160/119/119 161/120/120
f 168/121/121 161/122/122 162/123/123
f 168/124/124 162/125/125 163/126/126
f 168/127/127 163/128/128 164/129/129
f 168/130/130 164/131/131 165/132/132
f 168/133/133 165/134/134 166/135/135
f 168/136/136 166/137/137 167/138/138
f 28/139/139 30/140/140 29/141/141
f 28/142/142 29/143/143 27/144/144
f 4/145/145 6/146/146 5/147/147
f 4/148/148 5/149/149 3/150/150
f 48/151/151 2/152/152 1/153/153
f 48/154/154 1/155/155 47/156/156
f 26/157/157 28/158/158 27/159/159
f 26/160/160 27/161/161 25/162/162
f 6/163/163 8/164/164 7/165/165
f 6/166/166 7/167/167 5/168/168
f 30/169/169 32/170/170 31/171/171
f 30/172/172 31/173/173 29/174/174
f 46/175/175 48/176/176 47/177/177
f 46/178/178 47/179/179 45/180/180
f 8/181/181 10/182/182 9/183/183
f 8/184/184 9/185/185 7/186/186
f 32/187/187 34/188/188 33/189/189
f 32/190/190 33/191/191 31/192/192
f 34/193/193 36/194/194 35/195/195
f 34/196/196 35/197/197 33/198/198
f 10/199/199 12/200/200 11/201/201
f 10/202/202 11/203/203 9/204/204
f 44/205/205 46/206/206 45/207/207
f 44/208/208 45/209/209 43/210/210
f 38/211/211 40/212/212 39/213/213
f 38/214/214 39/215/215 37/216/216
f 12/217/217 14/218/218 13/219/219
f 12/220/220 13/221/221 11/222/222
f 36/223/223 38/224/224 37/225/225
f 36/226/226 37/227/227 35/228/228
f 42/229/229 44/230/230 43/231/231
f 42/232/232 43/233/233 41/234/234
f 14/235/235 16/236/236 15/237/237
f 14/238/238 15/239/239 13/240/240
f 40/241/241 42/242/242 41/243/243
f 40/244/244 41/245/245 39/246/246
f 16/247/247 18/248/248 17/249/249
f 16/250/250 17/251/251 15/252/252
f 18/253/253 20/254/254 19/255/255
f 18/256/256 19/257/257 17/258/258
f 20/259/259 22/260/260 21/261/261
f 20/262/262 21/263/263 19/264/264
f 22/265/265 24/266/266 23/267/267
f 22/268/268 23/269/269 21/270/270
f 24/271/271 26/272/272 25/273/273
f 24/274/274 25/275/275 23/276/276
f 49/277/277 50/278/278 46/279/279
f 49/280/280 46/281/281 44/282/282
f 51/283/283 49/284/284 44/285/285
f 51/286/286 44/287/287 42/288/288
f 52/289/289 51/290/290 42/291/291
f 52/292/292 42/293/293 40/294/294
f 53/295/295 52/296/296 40/297/297
f 53/298/298 40/299/299 38/300/300
f 54/301/301 53/302/302 38/303/303
f 54/304/304 38/305/305 36/306/306
f 55/307/307 54/308/308 36/309/309
f 55/310/310 36/311/311 34/312/312
f 56/313/313 55/314/314 34/315/315
f 56/316/316 34/317/317 32/318/318
f 57/319/319 56/320/320 32/321/321
f 57/322/322 32/323/323 30/324/324
f 58/325/325 57/326/326 30/327/327
f 58/328/328 30/329/329 28/330/330
f 59/331/331 58/332/332 28/333/333
f 59/334/334 28/335/335 26/336/336
f 60/337/337 59/338/338 26/339/339
f 60/340/340 26/341/341 24/342/342
f 61/343/343 60/344/344 24/345/345
f 61/346/346 24/347/347 22/348/348
f 62/349/349 61/350/350 22/351/351
f 62/352/352 22/353/353 20/354/354
f 63/355/355 62/356/356 20/357/357
f 63/358/358 20/359/359 18/360/360
f 64/361/361 63/362/362 18/363/363
f 64/364/364 18/365/365 16/366/366
f 65/367/367 64/368/368 16/369/369
f 65/370/370 16/371/371 14/372/372
f 66/373/373 65/374/374 14/375/375
f 66/376/376 14/377/377 12/378/378
f 67/379/379 66/380/380 12/381/381
f 67/382/382 12/383/383 10/384/384
f 68/385/385 67/386/386 10/387/387
f 68/388/388 10/389/389 8/390/390
f 69/391/391 68/392/392 8/393/393
f 69/394/394 8/395/395 6/396/396
f 70/397/397 69/398/398 6/399/399
f 70/400/400 6/401/401 4/402/402
f 71/403/403 72/404/404 2/405/405
f 71/406/406 2/407/407 48/408/408
f 50/409/409 71/410/410 48/411/411
f 50/412/412 48/413/413 46/414/414
f 72/415/415 70/416/416 4/417/417
f 72/418/418 4/419/419 2/420/420
f 73/421/421 74/422/422 50/423/423
f 73/424/424 50/425/425 49/426/426
f 75/427/427 73/428/428 49/429/429
f 75/430/430 49/431/431 51/432/432
f 76/433/433 75/434/434 51/435/435
f 76/436/436 51/437/437 52/438/438
f 77/439/439 76/440/440 52/441/441
f 77/442/442 52/443/443 53/444/444
f 78/445/445 77/446/446 53/447/447
f 78/448/448 53/449/449 54/450/450
f 79/451/451 78/452/452 54/453/453
f 79/454/454 54/455/455 55/456/456
f 80/457/457 79/458/458 55/459/459
f 80/460/460 55/461/461 56/462/462
f 81/463/463 80/464/464 56/465/465
f 81/466/466 56/467/467 57/468/468
f 82/469/469 81/470/470 57/471/471
f 82/472/472 57/473/473 58/474/474
f 83/475/475 82/476/476 58/477/477
f 83/478/478 58/479/479 59/480/480
f 84/481/481 83/482/482 59/483/483
f 84/484/484 59/485/485 60/486/486
f 85/487/487 84/488/488 60/489/489
f 85/490/490 60/491/491 61/492/492
f 86/493/493 85/494/494 61/495/495
f 86/496/496 61/497/497 62/498/498
f 87/499/499 86/500/500 62/501/501
f 87/502/502 62/503/503 63/504/504
f 88/505/505 87/506/506 63/507/507
f 88/508/508 63/509/509 64/510/510
f 89/511/511 88/512/512 64/513/513
f 89/514/514 64/515/515 65/516/516
f 90/517/517 89/518/518 65/519/519
f 90/520/520 65/521/521 66/522/522
f 91/523/523 90/524/524 66/525/525
f 91/526/526 66/527/527 67/528/528
f 92/529/529 91/530/530 67/531/531
f 92/532/532 67/533/533 68/534/534
f 93/535/535 92/536/536 68/537/537
f 93/538/538 68/539/539 69/540/540
f 94/541/541 93/542/542 69/543/543
f 94/544/544 69/545/545 70/546/546
f 95/547/547 94/548/548 70/549/549
f 95/550/550 70/551/551 72/552/552
f 96/553/553 95/554/554 72/555/555
f 96/556/556 72/557/557 71/558/558
f 74/559/559 96/560/560 71/561/561
f 74/562/562 71/563/563 50/564/564
f 97/565/565 98/566/566 74/567/567
f 97/568/568 74/569/569 73/570/570
f 99/571/571 97/572/572 73/573/573
f 99/574/574 73/575/575 75/576/576
f 100/577/577 99/578/578 75/579/579
f 100/580/580 75/581/581 76/582/582
f 101/583/583 100/584/584 76/585/585
f 101/586/586 76/587/587 77/588/588
f 102/589/589 101/590/590 77/591/591
f 102/592/592 77/593/593 78/594/594
f 103/595/595 102/596/596 78/597/597
f 103/598/598 78/599/599 79/600/600
f 104/601/601 103/602/602 79/603/603
f 104/604/604 79/605/605 80/606/606
f 105/607/607 104/608/608 80/609/609
f 105/610/610 80/611/611 81/612/612
f 106/613/613 105/614/614 81/615/615
f 106/616/616 81/617/617 82/618/618
f 107/619/619 106/620/620 82/621/621
f 107/622/622 82/623/623 83/624/624
f 108/625/625 107/626/626 83/627/627
f 108/628/628 83/629/629 84/630/630
f 109/631/631 108/632/632 84/633/633
f 109/634/634 84/635/635 85/636/636
f 110/637/637 109/638/638 85/639/639
f 110/640/640 85/641/641 86/642/642
f 111/643/643 110/644/644 86/645/645
f 111/646/646 86/647/647 87/648/648
f 112/649/649 111/650/650 87/651/651
f 112/652/652 87/653/653 88/654/654
f 113/655/655 112/656/656 88/657/657
f 113/658/658 88/659/659 89/660/660
f 114/661/661 113/662/662 89/663/663
f 114/664/664 89/665/665 90/666/666
f 115/667/667 114/668/668 90/669/669
f 115/670/670 90/671/671 91/672/672
f 116/673/673 115/674/674 91/675/675
f 116/676/676 91/677/677 92/678/678
f 117/679/679 116/680/680 92/681/681
f 117/682/682 92/683/683 93/684/684
f 118/685/685 117/686/686 93/687/687
f 118/688/688 93/689/689 94/690/690
f 119/691/691 118/692/692 94/693/693
f 119/694/694 94/695/695 95/696/696
f 120/697/697 119/698/698 95/699/699
f 120/700/700 95/701/701 96/702/702
f 98/703/703 120/704/704 96/705/705
f 98/706/706 96/707/707 74/708/708
f 121/709/709 122/710/710 98/711/711
f 121/712/712 98/713/713 97/714/714
f 123/715/715 121/716/716 97/717/717
f 123/718/718 97/719/719 99/720/720
f 124/721/721 123/722/722 99/723/723
f 124/724/724 99/725/725 100/726/726
f 125/727/727 124/728/728 100/729/729
f 125/730/730 100/731/731 101/732/732
f 126/733/733 125/734/734 101/735/735
f 126/736/736 101/737/737 102/738/738
f 127/739/739 126/740/740 102/741/741
f 127/742/742 102/743/743 103/744/744
f 128/745/745 127/746/746 103/747/747
f 128/748/748 103/749/749 104/750/750
f 129/751/751 128/752/752 104/753/753
f 129/754/754 104/755/755 105/756/756
f 130/757/757 129/758/758 105/759/759
f 130/760/760 105/761/761 106/762/762
f 131/763/763 130/764/764 106/765/765
f 131/766/766 106/767/767 107/768/768
f 132/769/769 131/770/770 107/771/771
f 132/772/772 107/773/773 108/774/774
f 133/775/775 132/776/776 108/777/777
f 133/778/778 108/779/779 109/780/780
f 134/781/781 133/782/782 109/783/783
f 134/784/784 109/785/785 110/786/786
f 135/787/787 134/788/788 110/789/789
f 135/790/790 110/791/791 111/792/792
f 136/793/793 135/794/794 111/795/795
f 136/796/796 111/797/797 112/798/798
f 137/799/799 136/800/800 112/801/801
f 137/802/802 112/803/803 113/804/804
f 138/805/805 137/806/806 113/807/807
f 138/808/808 113/809/809 114/810/810
f 139/811/811 138/812/812 114/813/813
f 139/814/814 114/815/815 115/816/816
f 140/817/817 139/818/818 115/819/819
f 140/820/820 115/821/821 116/822/822
f 141/823/823 140/824/824 116/825/825
f 141/826/826 116/827/827 117/828/828
f 142/829/829 141/830/830 117/831/831
f 142/832/832 117/833/833 118/834/834
f 143/835/835 142/836/836 118/837/837
f 143/838/838 118/839/839 119/840/840
f 144/841/841 143/842/842 119/843/843
f 144/844/844 119/845/845 120/846/846
f 122/847/847 144/848/848 120/849/849
f 122/850/850 120/851/851 98/852/852
f 145/853/853 146/854/854 122/855/855
f 145/856/856 122/857/857 121/858/858
f 147/859/859 145/860/860 121/861/861
f 147/862/862 121/863/863 123/864/864
f 148/865/865 147/866/866 123/867/867
f 148/868/868 123/869/869 124/870/870
f 149/871/871 148/872/872 124/873/873
f 149/874/874 124/875/875 125/876/876
f 150/877/877 149/878/878 125/879/879
f 150/880/880 125/881/881 126/882/882
f 151/883/883 150/884/884 126/885/885
f 151/886/886 126/887/887 127/888/888
f 152/889/889 151/890/890 127/891/891
f 152/892/892 127/893/893 128/894/894
f 153/895/895 152/896/896 128/897/897
f 153/898/898 128/899/899 129/900/900
f 154/901/901 153/902/902 129/903/903
f 154/904/904 129/905/905 130/906/906
f 155/907/907 154/908/908 130/909/909
f 155/910/910 130/911/911 131/912/912
f 156/913/913 155/914/914 131/915/915
f 156/916/916 131/917/917 132/918/918
f 157/919/919 156/920/920 132/921/921
f 157/922/922 132/923/923 133/924/924
f 158/925/925 157/926/926 133/927/927
f 158/928/928 133/929/929 134/930/930
f 159/931/931 158/932/932 134/933/933
f 159/934/934 134/935/935 135/936/936
f 160/937/937 159/938/938 135/939/939
f 160/940/940 135/941/941 136/942/942
f 161/943/943 160/944/944 136/945/945
f 161/946/946 136/947/947 137/948/948
f 162/949/949 161/950/950 137/951/951
f 162/952/952 137/953/953 138/954/954
f 163/955/955 162/956/956 138/957/957
f 163/958/958 138/959/959 139/960/960
f 164/961/961 163/962/962 139/963/963
f 164/964/964 139/965/965 140/966/966
f 165/967/967 164/968/968 140/969/969
f 165/970/970 140/971/971 141/972/972
f 166/973/973 165/974/974 141/975/975
f 166/976/976 141/977/977 142/978/978
f 167/979/979 166/980/980 142/981/981
f 167/982/982 142/983/983 143/984/984
f 168/985/985 167/986/986 143/987/987
f 168/988/988 143/989/989 144/990/990
f 146/991/991 168/992/992 144/993/993
f 146/994/994 144/995/995 122/996/996
