v 1.340663 0.730909 -1.207254
v 1.465342 0.664499 1.061835
v 1.427235 0.739986 -0.129215
v 0.494042 0.822094 -1.207254
v 0.759956 0.793142 -0.129214
v 0.920425 0.715091 1.062102
v 1.510042 0.373252 3.101057
v 1.487692 0.567005 1.986683
v 1.105737 0.373379 3.105016
v 1.018490 0.611469 1.987596
v 1.437690 0.707896 1.087580
v 0.949336 0.753533 1.084664
v 1.042175 0.655434 1.960835
v 1.462666 0.615285 1.962700
v 1.322631 0.776705 -1.153217
v 0.521131 0.863030 -1.153217
v 0.772835 0.835273 -0.187746
v 1.404551 0.784951 -0.187753
v 1.066322 0.638880 2.030306
v 1.447493 0.600333 2.030890
v 1.139423 0.420172 3.058535
v 1.468056 0.422080 3.056114
v 1.404086 0.799427 -0.021295
v 1.439758 0.737263 0.946461
v 0.938435 0.783807 0.946706
v 0.790190 0.848332 -0.021313
v 2.411076 0.168215 -0.113883
v 2.097289 0.193494 1.077167
v 2.370620 0.242614 -0.005963
v 2.117856 0.265963 0.961793
vt 0.599994 0.562876
vt 0.684460 0.562876
vt 0.684460 0.562876
vt 0.599994 0.562876
vt 0.684460 0.562876
vt 0.599994 0.562876
vt 0.689284 0.689583
vt 0.620307 0.689611
vt 0.620307 0.689611
vt 0.689284 0.689583
vt 0.620307 0.689611
vt 0.689284 0.689583
vt 0.620307 0.689611
vt 0.599994 0.562876
vt 0.599994 0.562876
vt 0.620307 0.689611
vt 0.599994 0.562876
vt 0.620307 0.689611
vt 0.694942 0.906522
vt 0.643764 0.906943
vt 0.643764 0.906943
vt 0.694942 0.906522
vt 0.643764 0.906943
vt 0.694942 0.906522
vt 0.692113 0.787971
vt 0.694942 0.906522
vt 0.694942 0.906522
vt 0.692113 0.787971
vt 0.694942 0.906522
vt 0.692113 0.787971
vt 0.643764 0.906943
vt 0.632720 0.788068
vt 0.632720 0.788068
vt 0.643764 0.906943
vt 0.632720 0.788068
vt 0.643764 0.906943
vt 0.632720 0.788068
vt 0.692113 0.787971
vt 0.692113 0.787971
vt 0.632720 0.788068
vt 0.692113 0.787971
vt 0.632720 0.788068
vt 0.673502 0.448191
vt 0.684460 0.562876
vt 0.684460 0.562876
vt 0.673502 0.448191
vt 0.684460 0.562876
vt 0.673502 0.448191
vt 0.692113 0.787971
vt 0.689284 0.689583
vt 0.620307 0.689611
vt 0.692113 0.787971
vt 0.620307 0.689611
vt 0.632720 0.788068
vt 0.684460 0.562876
vt 0.599994 0.562876
vt 0.599994 0.562876
vt 0.684460 0.562876
vt 0.599994 0.562876
vt 0.684460 0.562876
vt 0.599994 0.562876
vt 0.566334 0.448191
vt 0.566334 0.448191
vt 0.599994 0.562876
vt 0.566334 0.448191
vt 0.599994 0.562876
vt 0.632720 0.788068
vt 0.643764 0.906943
vt 0.694942 0.906522
vt 0.632720 0.788068
vt 0.694942 0.906522
vt 0.692113 0.787971
vt 0.599994 0.562876
vt 0.684460 0.562876
vt 0.673502 0.448191
vt 0.599994 0.562876
vt 0.673502 0.448191
vt 0.566334 0.448191
vt 0.566334 0.448191
vt 0.673502 0.448191
vt 0.673502 0.448191
vt 0.566334 0.448191
vt 0.673502 0.448191
vt 0.566334 0.448191
vt 0.684460 0.562876
vt 0.599994 0.562876
vt 0.620307 0.689611
vt 0.684460 0.562876
vt 0.620307 0.689611
vt 0.689284 0.689583
vt 0.632720 0.788068
vt 0.620307 0.689611
vt 0.620307 0.689611
vt 0.632720 0.788068
vt 0.620307 0.689611
vt 0.632720 0.788068
vt 0.689284 0.689583
vt 0.692113 0.787971
vt 0.692113 0.787971
vt 0.689284 0.689583
vt 0.692113 0.787971
vt 0.689284 0.689583
vt 0.692113 0.787971
vt 0.632720 0.788068
vt 0.632720 0.788068
vt 0.692113 0.787971
vt 0.632720 0.788068
vt 0.692113 0.787971
vt 0.620307 0.689611
vt 0.689284 0.689583
vt 0.689284 0.689583
vt 0.620307 0.689611
vt 0.689284 0.689583
vt 0.620307 0.689611
vt 0.000000 0.000000
vt 0.000000 0.000000
vt 0.000000 0.000000
vt 0.000000 0.000000
vt 0.000000 0.000000
vt 0.000000 0.000000
vt 0.000000 0.000000
vt 0.000000 0.000000
vt 0.000000 0.000000
vt 0.000000 0.000000
vt 0.000000 0.000000
vt 0.000000 0.000000
vt 0.000000 0.000000
vt 0.000000 0.000000
vt 0.000000 0.000000
vt 0.000000 0.000000
vt 0.000000 0.000000
vt 0.000000 0.000000
vt 0.000000 0.000000
vt 0.000000 0.000000
vt 0.000000 0.000000
vt 0.000000 0.000000
vt 0.000000 0.000000
vt 0.000000 0.000000
vt 0.000000 0.000000
vt 0.000000 0.000000
vt 0.000000 0.000000
vt 0.000000 0.000000
vt 0.000000 0.000000
vt 0.000000 0.000000
vn 0.070110 0.880028 -0.469718
vn 0.070110 0.880028 -0.469718
vn 0.070110 0.880028 -0.469718
vn 0.070110 0.880028 -0.469718
vn 0.070110 0.880028 -0.469718
vn 0.070110 0.880028 -0.469718
vn 0.079264 0.851008 0.519136
vn 0.079264 0.851008 0.519136
vn 0.079264 0.851008 0.519136
vn 0.079264 0.851008 0.519136
vn 0.079264 0.851008 0.519136
vn 0.079264 0.851008 0.519136
vn -0.917332 0.366562 0.155352
vn -0.917332 0.366562 0.155352
vn -0.917332 0.366562 0.155352
vn -0.917332 0.366562 0.155352
vn -0.917332 0.366562 0.155352
vn -0.917332 0.366562 0.155352
vn 0.004610 0.691267 0.722584
vn 0.004610 0.691267 0.722584
vn 0.004610 0.691267 0.722584
vn 0.004610 0.691267 0.722584
vn 0.004610 0.691267 0.722584
vn 0.004610 0.691267 0.722584
vn 0.702341 0.703563 0.108240
vn 0.702341 0.703563 0.108240
vn 0.702341 0.703563 0.108240
vn 0.702341 0.703563 0.108240
vn 0.702341 0.703563 0.108240
vn 0.702341 0.703563 0.108240
vn -0.653824 0.728632 0.203983
vn -0.653824 0.728632 0.203983
vn -0.653824 0.728632 0.203983
vn -0.653824 0.728632 0.203983
vn -0.653824 0.728632 0.203983
vn -0.653824 0.728632 0.203983
vn 0.079220 0.813830 -0.575677
vn 0.079220 0.813830 -0.575677
vn 0.079220 0.813830 -0.575677
vn 0.079220 0.813830 -0.575677
vn 0.079220 0.813830 -0.575677
vn 0.079220 0.813830 -0.575677
vn 0.911026 0.404799 -0.078548
vn 0.911026 0.404799 -0.078548
vn 0.911026 0.404799 -0.078548
vn 0.911026 0.404799 -0.078548
vn 0.911026 0.404799 -0.078548
vn 0.911026 0.404799 -0.078548
vn 0.092957 0.990472 0.101606
vn 0.092957 0.990472 0.101606
vn 0.092957 0.990472 0.101606
vn 0.092957 0.990472 0.101606
vn 0.092957 0.990472 0.101606
vn 0.092957 0.990472 0.101606
vn 0.063990 0.803234 0.592217
vn 0.063990 0.803234 0.592217
vn 0.063990 0.803234 0.592217
vn 0.063990 0.803234 0.592217
vn 0.063990 0.803234 0.592217
vn 0.063990 0.803234 0.592217
vn -0.871402 0.431863 0.232709
vn -0.871402 0.431863 0.232709
vn -0.871402 0.431863 0.232709
vn -0.871402 0.431863 0.232709
vn -0.871402 0.431863 0.232709
vn -0.871402 0.431863 0.232709
vn 0.051121 0.980971 0.187304
vn 0.051121 0.980971 0.187304
vn 0.051121 0.980971 0.187304
vn 0.051121 0.980971 0.187304
vn 0.051121 0.980971 0.187304
vn 0.051121 0.980971 0.187304
vn 0.094911 0.995466 -0.006340
vn 0.094911 0.995466 -0.006340
vn 0.094911 0.995466 -0.006340
vn 0.094911 0.995466 -0.006340
vn 0.094911 0.995466 -0.006340
vn 0.094911 0.995466 -0.006340
vn 0.083339 0.773772 -0.627958
vn 0.083339 0.773772 -0.627958
vn 0.083339 0.773772 -0.627958
vn 0.083339 0.773772 -0.627958
vn 0.083339 0.773772 -0.627958
vn 0.083339 0.773772 -0.627958
vn 0.085148 0.994736 0.057011
vn 0.085148 0.994736 0.057011
vn 0.085148 0.994736 0.057011
vn 0.085148 0.994736 0.057011
vn 0.085148 0.994736 0.057011
vn 0.085148 0.994736 0.057011
vn -0.830201 0.537421 0.148140
vn -0.830201 0.537421 0.148140
vn -0.830201 0.537421 0.148140
vn -0.830201 0.537421 0.148140
vn -0.830201 0.537421 0.148140
vn -0.830201 0.537421 0.148140
vn 0.866914 0.497569 0.029758
vn 0.866914 0.497569 0.029758
vn 0.866914 0.497569 0.029758
vn 0.866914 0.497569 0.029758
vn 0.866914 0.497569 0.029758
vn 0.866914 0.497569 0.029758
vn 0.044904 0.482007 0.875016
vn 0.044904 0.482007 0.875016
vn 0.044904 0.482007 0.875016
vn 0.044904 0.482007 0.875016
vn 0.044904 0.482007 0.875016
vn 0.044904 0.482007 0.875016
vn 0.049437 0.507141 -0.860444
vn 0.049437 0.507141 -0.860444
vn 0.049437 0.507141 -0.860444
vn 0.049437 0.507141 -0.860444
vn 0.049437 0.507141 -0.860444
vn 0.049437 0.507141 -0.860444
vn 0.958178 0.142354 0.248255
vn 0.958178 0.142354 0.248255
vn 0.958178 0.142354 0.248255
vn 0.958178 0.142354 0.248255
vn 0.958178 0.142354 0.248255
vn 0.958178 0.142354 0.248255
vn -0.539433 -0.838210 -0.080095
vn -0.539433 -0.838210 -0.080095
vn -0.539433 -0.838210 -0.080095
vn -0.539433 -0.838210 -0.080095
vn -0.539433 -0.838210 -0.080095
vn -0.539433 -0.838210 -0.080095
vn 0.471457 0.804966 -0.360219
vn 0.471457 0.804966 -0.360219
vn 0.471457 0.804966 -0.360219
vn 0.471457 0.804966 -0.360219
vn 0.471457 0.804966 -0.360219
vn 0.471457 0.804966 -0.360219
vn 0.531440 0.803752 0.267496
vn 0.527520 0.846124 0.076136
vn 0.527520 0.846124 0.076136
vn 0.531440 0.803752 0.267496
vn 0.527520 0.846124 0.076136
vn 0.531440 0.803752 0.267496
vn 0.514937 0.730492 0.448577
vn 0.531440 0.803752 0.267496
vn 0.531440 0.803752 0.267496
vn 0.514937 0.730492 0.448577
vn 0.531440 0.803752 0.267496
vn 0.514937 0.730492 0.448577
f 26/1/1 23/2/2 3/3/3
f 26/4/4 3/5/5 5/6/6
f 24/7/7 25/8/8 6/9/9
f 24/10/10 6/11/11 2/12/12
f 25/13/13 26/14/14 5/15/15
f 25/16/16 5/17/17 6/18/18
f 22/19/19 21/20/20 9/21/21
f 22/22/22 9/23/23 7/24/24
f 20/25/25 22/26/26 7/27/27
f 20/28/28 7/29/29 8/30/30
f 21/31/31 19/32/32 10/33/33
f 21/34/34 10/35/35 9/36/36
f 19/37/37 20/38/38 8/39/39
f 19/40/40 8/41/41 10/42/42
f 15/43/43 18/44/44 3/45/45
f 15/46/46 3/47/47 1/48/48
f 14/49/49 11/50/50 12/51/51
f 14/52/52 12/53/53 13/54/54
f 18/55/55 17/56/56 5/57/57
f 18/58/58 5/59/59 3/60/60
f 17/61/61 16/62/62 4/63/63
f 17/64/64 4/65/65 5/66/66
f 19/67/67 21/68/68 22/69/69
f 19/70/70 22/71/71 20/72/72
f 17/73/73 18/74/74 15/75/75
f 17/76/76 15/77/77 16/78/78
f 16/79/79 15/80/80 1/81/81
f 16/82/82 1/83/83 4/84/84
f 23/85/85 26/86/86 25/87/87
f 23/88/88 25/89/89 24/90/90
f 13/91/91 12/92/92 6/93/93
f 13/94/94 6/95/95 10/96/96
f 11/97/97 14/98/98 8/99/99
f 11/100/100 8/101/101 2/102/102
f 14/103/103 13/104/104 10/105/105
f 14/106/106 10/107/107 8/108/108
f 12/109/109 11/110/110 2/111/111
f 12/112/112 2/113/113 6/114/114
f 30/115/115 28/116/116 27/117/117
f 30/118/118 27/119/119 29/120/120
f 27/121/121 28/122/122 2/123/123
f 27/124/124 2/125/125 3/126/126
f 29/127/127 27/128/128 3/129/129
f 29/130/130 3/131/131 23/132/132
f 30/133/133 29/134/134 23/135/135
f 30/136/136 23/137/137 24/138/138
f 28/139/139 30/140/140 24/141/141
f 28/142/142 24/143/143 2/144/144
