v 1.340663 0.730909 1.207254
v 1.465342 0.664499 -1.061835
v 1.427235 0.739986 0.129215
v 0.494042 0.822094 1.207254
v 0.759956 0.793142 0.129214
v 0.920425 0.715091 -1.062102
v 1.510042 0.373252 -3.101057
v 1.487692 0.567005 -1.986683
v 1.105737 0.373379 -3.105016
v 1.018490 0.611469 -1.987596
v 1.437690 0.707896 -1.087580
v 0.949336 0.753533 -1.084664
v 1.042175 0.655434 -1.960835
v 1.462666 0.615285 -1.962700
v 1.322631 0.776705 1.153217
v 0.521131 0.863030 1.153217
v 0.772835 0.835273 0.187746
v 1.404551 0.784951 0.187753
v 1.066322 0.638880 -2.030306
v 1.447493 0.600333 -2.030890
v 1.139423 0.420172 -3.058535
v 1.468056 0.422080 -3.056114
v 1.404086 0.799427 0.021295
v 1.439758 0.737263 -0.946461
v 0.938435 0.783807 -0.946706
v 0.790190 0.848332 0.021313
v 2.411076 0.168215 0.113883
v 2.097289 0.193494 -1.077167
v 2.370620 0.242614 0.005963
v 2.117856 0.265963 -0.961793
vt 0.599994 0.562876
vt 0.684460 0.562876
vt 0.684460 0.562876
vt 0.599994 0.562876
vt 0.684460 0.562876
vt 0.599994 0.562876
vt 0.689284 0.689583
vt 0.620307 0.689611
vt 0.620307 0.689611
vt 0.689284 0.689583
vt 0.620307 0.689611
vt 0.689284 0.689583
vt 0.620307 0.689611
vt 0.599994 0.562876
vt 0.599994 0.562876
vt 0.620307 0.689611
vt 0.599994 0.562876
vt 0.620307 0.689611
vt 0.694942 0.906522
vt 0.643764 0.906943
vt 0.643764 0.906943
vt 0.694942 0.906522
vt 0.643764 0.906943
vt 0.694942 0.906522
vt 0.692113 0.787971
vt 0.694942 0.906522
vt 0.694942 0.906522
vt 0.692113 0.787971
vt 0.694942 0.906522
vt 0.692113 0.787971
vt 0.643764 0.906943
vt 0.632720 0.788068
vt 0.632720 0.788068
vt 0.643764 0.906943
vt 0.632720 0.788068
vt 0.643764 0.906943
vt 0.632720 0.788068
vt 0.692113 0.787971
vt 0.692113 0.787971
vt 0.632720 0.788068
vt 0.692113 0.787971
vt 0.632720 0.788068
vt 0.673502 0.448191
vt 0.684460 0.562876
vt 0.684460 0.562876
vt 0.673502 0.448191
vt 0.684460 0.562876
vt 0.673502 0.448191
vt 0.632720 0.788068
vt 0.620307 0.689611
vt 0.689284 0.689583
vt 0.632720 0.788068
vt 0.689284 0.689583
vt 0.692113 0.787971
vt 0.684460 0.562876
vt 0.599994 0.562876
vt 0.599994 0.562876
vt 0.684460 0.562876
vt 0.599994 0.562876
vt 0.684460 0.562876
vt 0.599994 0.562876
vt 0.566334 0.448191
vt 0.566334 0.448191
vt 0.599994 0.562876
vt 0.566334 0.448191
vt 0.599994 0.562876
vt 0.692113 0.787971
vt 0.694942 0.906522
vt 0.643764 0.906943
vt 0.692113 0.787971
vt 0.643764 0.906943
vt 0.632720 0.788068
vt 0.566334 0.448191
vt 0.673502 0.448191
vt 0.684460 0.562876
vt 0.566334 0.448191
vt 0.684460 0.562876
vt 0.599994 0.562876
vt 0.566334 0.448191
vt 0.673502 0.448191
vt 0.673502 0.448191
vt 0.566334 0.448191
vt 0.673502 0.448191
vt 0.566334 0.448191
vt 0.689284 0.689583
vt 0.620307 0.689611
vt 0.599994 0.562876
vt 0.689284 0.689583
vt 0.599994 0.562876
vt 0.684460 0.562876
vt 0.632720 0.788068
vt 0.620307 0.689611
vt 0.620307 0.689611
vt 0.632720 0.788068
vt 0.620307 0.689611
vt 0.632720 0.788068
vt 0.689284 0.689583
vt 0.692113 0.787971
vt 0.692113 0.787971
vt 0.689284 0.689583
vt 0.692113 0.787971
vt 0.689284 0.689583
vt 0.692113 0.787971
vt 0.632720 0.788068
vt 0.632720 0.788068
vt 0.692113 0.787971
vt 0.632720 0.788068
vt 0.692113 0.787971
vt 0.620307 0.689611
vt 0.689284 0.689583
vt 0.689284 0.689583
vt 0.620307 0.689611
vt 0.689284 0.689583
vt 0.620307 0.689611
vt 0.000000 0.000000
vt 0.000000 0.000000
vt 0.000000 0.000000
vt 0.000000 0.000000
vt 0.000000 0.000000
vt 0.000000 0.000000
vt 0.000000 0.000000
vt 0.000000 0.000000
vt 0.000000 0.000000
vt 0.000000 0.000000
vt 0.000000 0.000000
vt 0.000000 0.000000
vt 0.000000 0.000000
vt 0.000000 0.000000
vt 0.000000 0.000000
vt 0.000000 0.000000
vt 0.000000 0.000000
vt 0.000000 0.000000
vt 0.000000 0.000000
vt 0.000000 0.000000
vt 0.000000 0.000000
vt 0.000000 0.000000
vt 0.000000 0.000000
vt 0.000000 0.000000
vt 0.000000 0.000000
vt 0.000000 0.000000
vt 0.000000 0.000000
vt 0.000000 0.000000
vt 0.000000 0.000000
vt 0.000000 0.000000
vn 0.070110 0.880028 0.469718
vn 0.070110 0.880028 0.469718
vn 0.070110 0.880028 0.469718
vn 0.070110 0.880028 0.469718
vn 0.070110 0.880028 0.469718
vn 0.070110 0.880028 0.469718
vn 0.079264 0.851008 -0.519136
vn 0.079264 0.851008 -0.519136
vn 0.079264 0.851008 -0.519136
vn 0.079264 0.851008 -0.519136
vn 0.079264 0.851008 -0.519136
vn 0.079264 0.851008 -0.519136
vn -0.917332 0.366562 -0.155352
vn -0.917332 0.366562 -0.155352
vn -0.917332 0.366562 -0.155352
vn -0.917332 0.366562 -0.155352
vn -0.917332 0.366562 -0.155352
vn -0.917332 0.366562 -0.155352
vn 0.004610 0.691267 -0.722584
vn 0.004610 0.691267 -0.722584
vn 0.004610 0.691267 -0.722584
vn 0.004610 0.691267 -0.722584
vn 0.004610 0.691267 -0.722584
vn 0.004610 0.691267 -0.722584
vn 0.702341 0.703563 -0.108240
vn 0.702341 0.703563 -0.108240
vn 0.702341 0.703563 -0.108240
vn 0.702341 0.703563 -0.108240
vn 0.702341 0.703563 -0.108240
vn 0.702341 0.703563 -0.108240
vn -0.653824 0.728632 -0.203983
vn -0.653824 0.728632 -0.203983
vn -0.653824 0.728632 -0.203983
vn -0.653824 0.728632 -0.203983
vn -0.653824 0.728632 -0.203983
vn -0.653824 0.728632 -0.203983
vn 0.079220 0.813830 0.575677
vn 0.079220 0.813830 0.575677
vn 0.079220 0.813830 0.575677
vn 0.079220 0.813830 0.575677
vn 0.079220 0.813830 0.575677
vn 0.079220 0.813830 0.575677
vn 0.911026 0.404799 0.078548
vn 0.911026 0.404799 0.078548
vn 0.911026 0.404799 0.078548
vn 0.911026 0.404799 0.078548
vn 0.911026 0.404799 0.078548
vn 0.911026 0.404799 0.078548
vn 0.092957 0.990472 -0.101606
vn 0.092957 0.990472 -0.101606
vn 0.092957 0.990472 -0.101606
vn 0.092957 0.990472 -0.101606
vn 0.092957 0.990472 -0.101606
vn 0.092957 0.990472 -0.101606
vn 0.063990 0.803234 -0.592217
vn 0.063990 0.803234 -0.592217
vn 0.063990 0.803234 -0.592217
vn 0.063990 0.803234 -0.592217
vn 0.063990 0.803234 -0.592217
vn 0.063990 0.803234 -0.592217
vn -0.871402 0.431863 -0.232709
vn -0.871402 0.431863 -0.232709
vn -0.871402 0.431863 -0.232709
vn -0.871402 0.431863 -0.232709
vn -0.871402 0.431863 -0.232709
vn -0.871402 0.431863 -0.232709
vn 0.051121 0.980971 -0.187304
vn 0.051121 0.980971 -0.187304
vn 0.051121 0.980971 -0.187304
vn 0.051121 0.980971 -0.187304
vn 0.051121 0.980971 -0.187304
vn 0.051121 0.980971 -0.187304
vn 0.094911 0.995466 0.006340
vn 0.094911 0.995466 0.006340
vn 0.094911 0.995466 0.006340
vn 0.094911 0.995466 0.006340
vn 0.094911 0.995466 0.006340
vn 0.094911 0.995466 0.006340
vn 0.083339 0.773772 0.627958
vn 0.083339 0.773772 0.627958
vn 0.083339 0.773772 0.627958
vn 0.083339 0.773772 0.627958
vn 0.083339 0.773772 0.627958
vn 0.083339 0.773772 0.627958
vn 0.085148 0.994736 -0.057011
vn 0.085148 0.994736 -0.057011
vn 0.085148 0.994736 -0.057011
vn 0.085148 0.994736 -0.057011
vn 0.085148 0.994736 -0.057011
vn 0.085148 0.994736 -0.057011
vn -0.830201 0.537421 -0.148140
vn -0.830201 0.537421 -0.148140
vn -0.830201 0.537421 -0.148140
vn -0.830201 0.537421 -0.148140
vn -0.830201 0.537421 -0.148140
vn -0.830201 0.537421 -0.148140
vn 0.866914 0.497569 -0.029758
vn 0.866914 0.497569 -0.029758
vn 0.866914 0.497569 -0.029758
vn 0.866914 0.497569 -0.029758
vn 0.866914 0.497569 -0.029758
vn 0.866914 0.497569 -0.029758
vn 0.044904 0.482007 -0.875016
vn 0.044904 0.482007 -0.875016
vn 0.044904 0.482007 -0.875016
vn 0.044904 0.482007 -0.875016
vn 0.044904 0.482007 -0.875016
vn 0.044904 0.482007 -0.875016
vn 0.049437 0.507141 0.860444
vn 0.049437 0.507141 0.860444
vn 0.049437 0.507141 0.860444
vn 0.049437 0.507141 0.860444
vn 0.049437 0.507141 0.860444
vn 0.049437 0.507141 0.860444
vn 0.958178 0.142354 -0.248255
vn 0.958178 0.142354 -0.248255
vn 0.958178 0.142354 -0.248255
vn 0.958178 0.142354 -0.248255
vn 0.958178 0.142354 -0.248255
vn 0.958178 0.142354 -0.248255
vn -0.539433 -0.838210 0.080095
vn -0.539433 -0.838210 0.080095
vn -0.539433 -0.838210 0.080095
vn -0.539433 -0.838210 0.080095
vn -0.539433 -0.838210 0.080095
vn -0.539433 -0.838210 0.080095
vn 0.471457 0.804966 0.360219
vn 0.471457 0.804966 0.360219
vn 0.471457 0.804966 0.360219
vn 0.471457 0.804966 0.360219
vn 0.471457 0.804966 0.360219
vn 0.471457 0.804966 0.360219
vn 0.531440 0.803752 -0.267496
vn 0.527520 0.846124 -0.076136
vn 0.527520 0.846124 -0.076136
vn 0.531440 0.803752 -0.267496
vn 0.527520 0.846124 -0.076136
vn 0.531440 0.803752 -0.267496
vn 0.514937 0.730492 -0.448577
vn 0.531440 0.803752 -0.267496
vn 0.531440 0.803752 -0.267496
vn 0.514937 0.730492 -0.448577
vn 0.531440 0.803752 -0.267496
vn 0.514937 0.730492 -0.448577
f 5/1/1 3/2/2 23/3/3
f 5/4/4 23/5/5 26/6/6
f 2/7/7 6/8/8 25/9/9
f 2/10/10 25/11/11 24/12/12
f 6/13/13 5/14/14 26/15/15
f 6/16/16 26/17/17 25/18/18
f 7/19/19 9/20/20 21/21/21
f 7/22/22 21/23/23 22/24/24
f 8/25/25 7/26/26 22/27/27
f 8/28/28 22/29/29 20/30/30
f 9/31/31 10/32/32 19/33/33
f 9/34/34 19/35/35 21/36/36
f 10/37/37 8/38/38 20/39/39
f 10/40/40 20/41/41 19/42/42
f 1/43/43 3/44/44 18/45/45
f 1/46/46 18/47/47 15/48/48
f 13/49/49 12/50/50 11/51/51
f 13/52/52 11/53/53 14/54/54
f 3/55/55 5/56/56 17/57/57
f 3/58/58 17/59/59 18/60/60
f 5/61/61 4/62/62 16/63/63
f 5/64/64 16/65/65 17/66/66
f 20/67/67 22/68/68 21/69/69
f 20/70/70 21/71/71 19/72/72
f 16/73/73 15/74/74 18/75/75
f 16/76/76 18/77/77 17/78/78
f 4/79/79 1/80/80 15/81/81
f 4/82/82 15/83/83 16/84/84
f 24/85/85 25/86/86 26/87/87
f 24/88/88 26/89/89 23/90/90
f 10/91/91 6/92/92 12/93/93
f 10/94/94 12/95/95 13/96/96
f 2/97/97 8/98/98 14/99/99
f 2/100/100 14/101/101 11/102/102
f 8/103/103 10/104/104 13/105/105
f 8/106/106 13/107/107 14/108/108
f 6/109/109 2/110/110 11/111/111
f 6/112/112 11/113/113 12/114/114
f 29/115/115 27/116/116 28/117/117
f 29/118/118 28/119/119 30/120/120
f 3/121/121 2/122/122 28/123/123
f 3/124/124 28/125/125 27/126/126
f 23/127/127 3/128/128 27/129/129
f 23/130/130 27/131/131 29/132/132
f 24/133/133 23/134/134 29/135/135
f 24/136/136 29/137/137 30/138/138
f 2/139/139 24/140/140 30/141/141
f 2/142/142 30/143/143 28/144/144
