v 0.001734 1.971836 1.408692
v 0.008753 1.966564 1.732455
v -0.446358 1.480119 1.732455
v -0.452209 1.525671 1.191083
v -0.274009 1.266300 1.732455
v -0.275566 1.273498 1.101034
v -0.306589 1.944637 1.732455
v -0.243239 1.952128 1.399080
v -0.364228 1.551390 1.203627
v -0.296060 1.605469 1.230003
v -0.250497 1.674645 1.263742
v -0.216058 1.753266 1.302088
v -0.199192 1.836238 1.342556
v -0.218706 1.919040 1.382942
v 0.148209 1.311583 1.119609
v 0.000000 1.322485 1.124927
v 0.269227 1.278441 1.103445
v 0.278911 1.273420 1.100996
v -0.266444 1.278347 1.103399
v -0.148075 1.311575 1.119605
v 0.447742 1.529009 1.192711
v 0.369895 1.551182 1.203526
v 0.298798 1.605308 1.229925
v 0.251988 1.674622 1.263731
v 0.216614 1.753291 1.302101
v 0.199192 1.836238 1.342556
v 0.218706 1.919040 1.382942
v 0.241734 1.950097 1.398089
v 0.278911 1.264656 1.732455
v 0.451361 1.473874 1.732455
v 0.306600 1.942377 1.732455
v -0.370903 1.507439 1.732455
v -0.324026 1.564005 1.732455
v -0.302038 1.637724 1.732455
v -0.284340 1.723571 1.732455
v -0.272146 1.815697 1.732455
v -0.287356 1.907823 1.732455
v 0.148209 1.307116 1.732455
v 0.000000 1.319246 1.732455
v 0.269227 1.270242 1.732455
v -0.265023 1.271558 1.732455
v -0.148065 1.307117 1.732455
v 0.383020 1.498544 1.732455
v 0.330546 1.558764 1.732455
v 0.305175 1.635883 1.732455
v 0.288486 1.723410 1.732455
v 0.278869 1.815697 1.732455
v 0.290539 1.907823 1.732455
v 0.148220 1.311584 1.119610
v 0.148220 1.307117 1.732455
v 0.286339 1.279624 1.104022
v 0.286339 1.271558 1.732455
v 0.297769 1.274724 1.101632
v 0.297769 1.266107 1.732455
v 0.243917 1.824708 1.561419
v 0.250663 1.871449 1.565508
v 0.238901 1.871495 1.509416
v 0.232506 1.827649 1.505580
v 0.265165 1.819230 1.665395
v 0.272255 1.869315 1.669777
v 0.260492 1.869362 1.613685
v 0.253754 1.822172 1.609556
v 0.223850 1.829881 1.463219
v 0.229697 1.869677 1.466701
v 0.217229 1.865075 1.410202
v 0.212439 1.832823 1.407380
v 0.258623 1.735826 1.553643
v 0.249311 1.739697 1.497885
v 0.275963 1.728617 1.657467
v 0.266651 1.732489 1.601710
v 0.242247 1.742634 1.455586
v 0.232935 1.746506 1.399828
v 0.284046 1.651273 1.546245
v 0.277726 1.655876 1.490552
v 0.295813 1.642702 1.649951
v 0.289494 1.647305 1.594257
v 0.272932 1.659368 1.448301
v 0.266612 1.663971 1.392607
v 0.318369 1.576616 1.539714
v 0.314854 1.581770 1.484068
v 0.324916 1.567019 1.643329
v 0.321400 1.572173 1.587684
v 0.312187 1.585680 1.441854
v 0.308671 1.590834 1.386209
v 0.321751 1.573997 1.539485
v 0.319055 1.578516 1.483783
v 0.328893 1.563939 1.643060
v 0.326197 1.568458 1.587359
v 0.317010 1.581944 1.441527
v 0.314314 1.586463 1.385826
v 0.250836 1.871520 1.565514
v 0.243917 1.824708 1.561418
v 0.258623 1.735826 1.553641
v 0.284045 1.651273 1.546242
v 0.318369 1.576616 1.539710
v 0.321132 1.573916 1.539477
v 0.318975 1.578506 1.483783
v 0.321653 1.573984 1.539483
v 0.239005 1.871538 1.509420
v 0.250806 1.871507 1.565513
v 0.239037 1.871551 1.509421
v 0.232506 1.827649 1.505580
v 0.249312 1.739697 1.497886
v 0.277726 1.655876 1.490554
v 0.314854 1.581770 1.484071
v 0.318414 1.578433 1.483776
v 0.272496 1.869414 1.669786
v 0.265165 1.819230 1.665395
v 0.275963 1.728617 1.657469
v 0.295814 1.642702 1.649953
v 0.324916 1.567019 1.643332
v 0.327940 1.563815 1.643049
v 0.325644 1.568386 1.587353
v 0.328255 1.563856 1.643053
v 0.260679 1.869438 1.613691
v 0.272482 1.869408 1.669785
v 0.260703 1.869448 1.613692
v 0.253754 1.822172 1.609555
v 0.266651 1.732489 1.601708
v 0.289493 1.647305 1.594254
v 0.321400 1.572173 1.587680
v 0.325193 1.568327 1.587348
v 0.229812 1.869764 1.466708
v 0.223850 1.829881 1.463218
v 0.242247 1.742634 1.455584
v 0.272932 1.659368 1.448298
v 0.312187 1.585680 1.441850
v 0.316386 1.581863 1.441520
v 0.217248 1.865089 1.410203
v 0.229733 1.869704 1.466703
v 0.217301 1.865130 1.410207
v 0.212439 1.832823 1.407381
v 0.232935 1.746506 1.399830
v 0.266612 1.663971 1.392609
v 0.308672 1.590833 1.386211
v 0.313757 1.586391 1.385820
v 0.313676 1.577815 1.483722
v 0.272779 1.583146 1.484189
v 0.272779 1.578275 1.539859
v 0.313676 1.572945 1.539392
v 0.234669 1.598776 1.485556
v 0.234669 1.593905 1.541226
v 0.201944 1.623639 1.487731
v 0.201944 1.618768 1.543401
v 0.176832 1.656041 1.490566
v 0.176832 1.651171 1.546236
v 0.161047 1.693775 1.493867
v 0.161047 1.688904 1.549538
v 0.155663 1.734268 1.497410
v 0.155663 1.729397 1.553080
v 0.161047 1.774761 1.500953
v 0.161047 1.769890 1.556623
v 0.176832 1.812494 1.504254
v 0.176832 1.807624 1.559924
v 0.201944 1.844897 1.507089
v 0.201944 1.840026 1.562759
v 0.234669 1.869760 1.509264
v 0.234669 1.864889 1.564934
v 0.313676 1.566826 1.587216
v 0.272779 1.572157 1.587682
v 0.272779 1.567286 1.643353
v 0.313676 1.561956 1.642886
v 0.234669 1.587787 1.589050
v 0.234669 1.582916 1.644720
v 0.201944 1.612650 1.591225
v 0.201944 1.607780 1.646896
v 0.176832 1.645052 1.594060
v 0.176832 1.640182 1.649730
v 0.161047 1.682786 1.597361
v 0.161047 1.677915 1.653032
v 0.155663 1.723279 1.600904
v 0.155663 1.718408 1.656574
v 0.161047 1.763772 1.604447
v 0.161047 1.758901 1.660117
v 0.176832 1.801505 1.607748
v 0.176832 1.796635 1.663418
v 0.201944 1.833908 1.610583
v 0.201944 1.829037 1.666253
v 0.234669 1.858771 1.612758
v 0.234669 1.853900 1.668428
v 0.313676 1.586380 1.385819
v 0.272779 1.591711 1.386286
v 0.272779 1.586841 1.441956
v 0.313676 1.581510 1.441489
v 0.234669 1.607341 1.387653
v 0.234669 1.602471 1.443323
v 0.201944 1.632204 1.389828
v 0.201944 1.627334 1.445498
v 0.176832 1.664607 1.392663
v 0.176832 1.659736 1.448333
v 0.161047 1.702340 1.395964
v 0.161047 1.697470 1.451635
v 0.155663 1.742833 1.399507
v 0.155663 1.737963 1.455177
v 0.161047 1.783326 1.403050
v 0.161047 1.778456 1.458720
v 0.176832 1.821060 1.406351
v 0.176832 1.816189 1.462021
v 0.201944 1.853462 1.409186
v 0.201944 1.848591 1.464856
v -0.240144 1.824708 1.561419
v -0.247302 1.870070 1.565387
v -0.236456 1.870493 1.509328
v -0.229695 1.827649 1.505580
v -0.259599 1.819230 1.665395
v -0.267173 1.867231 1.669595
v -0.256328 1.867654 1.613535
v -0.249151 1.822172 1.609556
v -0.221769 1.829881 1.463219
v -0.227825 1.868255 1.466576
v -0.216299 1.864369 1.410140
v -0.211321 1.832823 1.407380
v -0.255971 1.735909 1.553650
v -0.247124 1.739756 1.497890
v -0.272444 1.728745 1.657479
v -0.263597 1.732592 1.601719
v -0.240412 1.742675 1.455589
v -0.231566 1.746522 1.399830
v -0.281573 1.652384 1.546342
v -0.275446 1.656773 1.490630
v -0.292980 1.644212 1.650083
v -0.286854 1.648601 1.594370
v -0.270799 1.660102 1.448365
v -0.264673 1.664490 1.392653
v -0.313314 1.579887 1.540000
v -0.310214 1.584483 1.484306
v -0.319086 1.571329 1.643706
v -0.315986 1.575925 1.588012
v -0.307862 1.587970 1.442055
v -0.304763 1.592566 1.386360
v -0.247961 1.870340 1.565411
v -0.240143 1.824708 1.561418
v -0.255970 1.735909 1.553648
v -0.281572 1.652384 1.546340
v -0.319405 1.573691 1.539458
v -0.313314 1.579888 1.539996
v -0.316760 1.578217 1.483757
v -0.319491 1.573702 1.539459
v -0.237016 1.870722 1.509348
v -0.248072 1.870386 1.565415
v -0.268238 1.867668 1.669633
v -0.259599 1.819230 1.665395
v -0.272445 1.728745 1.657480
v -0.292980 1.644212 1.650085
v -0.326086 1.563573 1.643028
v -0.319086 1.571329 1.643709
v -0.323458 1.568101 1.587328
v -0.326122 1.563578 1.643028
v -0.257243 1.868029 1.613568
v -0.268290 1.867689 1.669635
v -0.257152 1.867991 1.613565
v -0.249150 1.822172 1.609555
v -0.263597 1.732592 1.601717
v -0.286854 1.648601 1.594368
v -0.323394 1.568093 1.587327
v -0.315986 1.575925 1.588008
v -0.228111 1.868472 1.466595
v -0.221769 1.829881 1.463218
v -0.240412 1.742675 1.455588
v -0.270799 1.660102 1.448362
v -0.314581 1.581628 1.441500
v -0.307862 1.587970 1.442051
v -0.310613 1.586780 1.385854
v -0.313676 1.582168 1.433969
v -0.216594 1.864593 1.410160
v -0.228418 1.868706 1.466616
v -0.216386 1.864434 1.410146
v -0.211321 1.832823 1.407381
v -0.231566 1.746522 1.399831
v -0.264673 1.664490 1.392655
v -0.311233 1.586699 1.385847
v -0.304763 1.592566 1.386363
v -0.313676 1.577815 1.483722
v -0.313676 1.572945 1.539392
v -0.272779 1.578275 1.539859
v -0.272779 1.583146 1.484189
v -0.234669 1.593905 1.541226
v -0.234669 1.598776 1.485556
v -0.201944 1.618768 1.543401
v -0.201944 1.623639 1.487731
v -0.176832 1.651171 1.546236
v -0.176832 1.656041 1.490566
v -0.161047 1.688904 1.549538
v -0.161047 1.693775 1.493867
v -0.155663 1.729397 1.553080
v -0.155663 1.734268 1.497410
v -0.161047 1.769890 1.556623
v -0.161047 1.774761 1.500953
v -0.176832 1.807624 1.559924
v -0.176832 1.812494 1.504254
v -0.201944 1.840026 1.562759
v -0.201944 1.844897 1.507089
v -0.234669 1.864889 1.564934
v -0.234669 1.869760 1.509264
v -0.313676 1.566826 1.587216
v -0.313676 1.561956 1.642886
v -0.272779 1.567286 1.643353
v -0.272779 1.572157 1.587682
v -0.234669 1.582916 1.644720
v -0.234669 1.587787 1.589050
v -0.201944 1.607780 1.646896
v -0.201944 1.612650 1.591225
v -0.176832 1.640182 1.649730
v -0.176832 1.645052 1.594060
v -0.161047 1.677915 1.653032
v -0.161047 1.682786 1.597361
v -0.155663 1.718408 1.656574
v -0.155663 1.723279 1.600904
v -0.161047 1.758901 1.660117
v -0.161047 1.763772 1.604447
v -0.176832 1.796635 1.663418
v -0.176832 1.801505 1.607748
v -0.201944 1.829037 1.666253
v -0.201944 1.833908 1.610583
v -0.234669 1.853900 1.668428
v -0.234669 1.858771 1.612758
v -0.272779 1.591711 1.386286
v -0.272779 1.586841 1.441956
v -0.234669 1.602471 1.443323
v -0.234669 1.607341 1.387653
v -0.201944 1.627334 1.445498
v -0.201944 1.632204 1.389828
v -0.176832 1.659736 1.448333
v -0.176832 1.664607 1.392663
v -0.161047 1.697470 1.451635
v -0.161047 1.702340 1.395964
v -0.155663 1.737963 1.455177
v -0.155663 1.742833 1.399507
v -0.161047 1.778456 1.458720
v -0.161047 1.783326 1.403050
v -0.176832 1.816189 1.462021
v -0.176832 1.821060 1.406351
v -0.201944 1.848591 1.464856
v -0.201944 1.853462 1.409186
v -0.313676 1.581510 1.441489
vt 0.464092 0.412857
vt 0.469268 0.412807
vt 0.469268 0.418729
vt 0.464092 0.412857
vt 0.469268 0.418729
vt 0.464092 0.418779
vt 0.469268 0.412807
vt 0.474092 0.412662
vt 0.474092 0.418584
vt 0.469268 0.412807
vt 0.474092 0.418584
vt 0.469268 0.418729
vt 0.474092 0.412662
vt 0.478235 0.412430
vt 0.478235 0.418353
vt 0.474092 0.412662
vt 0.478235 0.418353
vt 0.474092 0.418584
vt 0.478235 0.412430
vt 0.481414 0.412129
vt 0.481414 0.418051
vt 0.478235 0.412430
vt 0.481414 0.418051
vt 0.478235 0.418353
vt 0.481414 0.412129
vt 0.483412 0.411777
vt 0.483412 0.417700
vt 0.481414 0.412129
vt 0.483412 0.417700
vt 0.481414 0.418051
vt 0.483412 0.411777
vt 0.484093 0.411401
vt 0.484093 0.417323
vt 0.483412 0.411777
vt 0.484093 0.417323
vt 0.483412 0.417700
vt 0.484093 0.411401
vt 0.483412 0.411024
vt 0.483412 0.416946
vt 0.484093 0.411401
vt 0.483412 0.416946
vt 0.484093 0.417323
vt 0.483412 0.411024
vt 0.481414 0.410672
vt 0.481414 0.416595
vt 0.483412 0.411024
vt 0.481414 0.416595
vt 0.483412 0.416946
vt 0.481414 0.410672
vt 0.478235 0.410371
vt 0.478235 0.416293
vt 0.481414 0.410672
vt 0.478235 0.416293
vt 0.481414 0.416595
vt 0.478235 0.410371
vt 0.474092 0.410139
vt 0.474092 0.416062
vt 0.478235 0.410371
vt 0.474092 0.416062
vt 0.478235 0.416293
vt 0.464092 0.401847
vt 0.469268 0.401797
vt 0.469268 0.407719
vt 0.464092 0.401847
vt 0.469268 0.407719
vt 0.464092 0.407769
vt 0.469268 0.401797
vt 0.474092 0.401652
vt 0.474092 0.407574
vt 0.469268 0.401797
vt 0.474092 0.407574
vt 0.469268 0.407719
vt 0.474092 0.401652
vt 0.478235 0.401420
vt 0.478235 0.407343
vt 0.474092 0.401652
vt 0.478235 0.407343
vt 0.474092 0.407574
vt 0.478235 0.401420
vt 0.481414 0.401119
vt 0.481414 0.407041
vt 0.478235 0.401420
vt 0.481414 0.407041
vt 0.478235 0.407343
vt 0.481414 0.401119
vt 0.483412 0.400767
vt 0.483412 0.406690
vt 0.481414 0.401119
vt 0.483412 0.406690
vt 0.481414 0.407041
vt 0.483412 0.400767
vt 0.484093 0.400391
vt 0.484093 0.406313
vt 0.483412 0.400767
vt 0.484093 0.406313
vt 0.483412 0.406690
vt 0.484093 0.400391
vt 0.483412 0.400014
vt 0.483412 0.405936
vt 0.484093 0.400391
vt 0.483412 0.405936
vt 0.484093 0.406313
vt 0.483412 0.400014
vt 0.481414 0.399662
vt 0.481414 0.405585
vt 0.483412 0.400014
vt 0.481414 0.405585
vt 0.483412 0.405936
vt 0.481414 0.399662
vt 0.478235 0.399361
vt 0.478235 0.405283
vt 0.481414 0.399662
vt 0.478235 0.405283
vt 0.481414 0.405585
vt 0.478235 0.399361
vt 0.474092 0.399129
vt 0.474092 0.405052
vt 0.478235 0.399361
vt 0.474092 0.405052
vt 0.478235 0.405283
vt 0.469268 0.423222
vt 0.474092 0.423077
vt 0.474092 0.428999
vt 0.469268 0.423222
vt 0.474092 0.428999
vt 0.469268 0.429145
vt 0.474092 0.423077
vt 0.478235 0.422845
vt 0.478235 0.428768
vt 0.474092 0.423077
vt 0.478235 0.428768
vt 0.474092 0.428999
vt 0.478235 0.422845
vt 0.481414 0.422544
vt 0.481414 0.428466
vt 0.478235 0.422845
vt 0.481414 0.428466
vt 0.478235 0.428768
vt 0.481414 0.422544
vt 0.483412 0.422193
vt 0.483412 0.428115
vt 0.481414 0.422544
vt 0.483412 0.428115
vt 0.481414 0.428466
vt 0.483412 0.422193
vt 0.484093 0.421816
vt 0.484093 0.427738
vt 0.483412 0.422193
vt 0.484093 0.427738
vt 0.483412 0.428115
vt 0.484093 0.421816
vt 0.483412 0.421439
vt 0.483412 0.427361
vt 0.484093 0.421816
vt 0.483412 0.427361
vt 0.484093 0.427738
vt 0.483412 0.421439
vt 0.481414 0.421088
vt 0.481414 0.427010
vt 0.483412 0.421439
vt 0.481414 0.427010
vt 0.483412 0.427361
vt 0.481414 0.421088
vt 0.478235 0.420786
vt 0.478235 0.426708
vt 0.481414 0.421088
vt 0.478235 0.426708
vt 0.481414 0.427010
vt 0.476113 0.429500
vt 0.478583 0.433797
vt 0.477048 0.426901
vt 0.476113 0.429500
vt 0.477048 0.426901
vt 0.476418 0.426607
vt 0.476113 0.429500
vt 0.476418 0.426607
vt 0.474959 0.420603
vt 0.476113 0.429500
vt 0.474959 0.420603
vt 0.475725 0.420960
vt 0.476113 0.429500
vt 0.475725 0.420960
vt 0.474722 0.416454
vt 0.476113 0.429500
vt 0.474722 0.416454
vt 0.473866 0.416055
vt 0.476113 0.429500
vt 0.473866 0.416055
vt 0.472493 0.410091
vt 0.476113 0.429500
vt 0.472493 0.410091
vt 0.473400 0.410513
vt 0.476113 0.429500
vt 0.473400 0.410513
vt 0.472259 0.405392
vt 0.476113 0.429500
vt 0.472259 0.405392
vt 0.471351 0.404969
vt 0.476113 0.429500
vt 0.471351 0.404969
vt 0.469978 0.399005
vt 0.476113 0.429500
vt 0.469978 0.399005
vt 0.470937 0.399452
vt 0.476113 0.429500
vt 0.470937 0.399452
vt 0.469349 0.392318
vt 0.476113 0.429500
vt 0.469349 0.392318
vt 0.467423 0.392318
vt 0.469349 0.392318
vt 0.470937 0.399452
vt 0.469311 0.400294
vt 0.469349 0.392318
vt 0.469311 0.400294
vt 0.467805 0.392318
vt 0.477048 0.426901
vt 0.478583 0.433797
vt 0.476448 0.438102
vt 0.477048 0.426901
vt 0.476448 0.438102
vt 0.474485 0.427704
vt 0.473400 0.410513
vt 0.471396 0.411340
vt 0.470431 0.406226
vt 0.473400 0.410513
vt 0.470431 0.406226
vt 0.472259 0.405392
vt 0.474722 0.416454
vt 0.475725 0.420960
vt 0.473366 0.421772
vt 0.474722 0.416454
vt 0.473366 0.421772
vt 0.472516 0.417272
vt 0.467805 0.392318
vt 0.469311 0.400294
vt 0.466711 0.401081
vt 0.467805 0.392318
vt 0.466711 0.401081
vt 0.465565 0.392318
vt 0.474485 0.427704
vt 0.476448 0.438102
vt 0.472089 0.442181
vt 0.474485 0.427704
vt 0.472089 0.442181
vt 0.470295 0.428467
vt 0.471396 0.411340
vt 0.468155 0.412117
vt 0.467487 0.407008
vt 0.471396 0.411340
vt 0.467487 0.407008
vt 0.470431 0.406226
vt 0.473366 0.421772
vt 0.469519 0.422540
vt 0.468931 0.418044
vt 0.473366 0.421772
vt 0.468931 0.418044
vt 0.472516 0.417272
vt 0.465565 0.392318
vt 0.466711 0.401081
vt 0.463407 0.401759
vt 0.465565 0.392318
vt 0.463407 0.401759
vt 0.462782 0.392318
vt 0.470295 0.428467
vt 0.472089 0.442181
vt 0.466322 0.445770
vt 0.470295 0.428467
vt 0.466322 0.445770
vt 0.465220 0.429137
vt 0.467487 0.407008
vt 0.468155 0.412117
vt 0.464137 0.412792
vt 0.467487 0.407008
vt 0.464137 0.412792
vt 0.463799 0.407684
vt 0.469519 0.422540
vt 0.464828 0.423212
vt 0.464530 0.418717
vt 0.469519 0.422540
vt 0.464530 0.418717
vt 0.468931 0.418044
vt 0.478235 0.426708
vt 0.476407 0.426606
vt 0.477048 0.426901
vt 0.478235 0.426708
vt 0.477048 0.426901
vt 0.474485 0.427704
vt 0.478235 0.426708
vt 0.474485 0.427704
vt 0.470295 0.428467
vt 0.478235 0.426708
vt 0.470295 0.428467
vt 0.465220 0.429136
vt 0.478235 0.426708
vt 0.465220 0.429136
vt 0.464401 0.429191
vt 0.478235 0.426708
vt 0.464401 0.429191
vt 0.469268 0.429145
vt 0.478235 0.426708
vt 0.469268 0.429145
vt 0.474092 0.428999
vt 0.478235 0.426708
vt 0.474092 0.428999
vt 0.478235 0.428768
vt 0.478235 0.426708
vt 0.478235 0.428768
vt 0.481414 0.428466
vt 0.478235 0.426708
vt 0.481414 0.428466
vt 0.483412 0.428115
vt 0.478235 0.426708
vt 0.483412 0.428115
vt 0.484093 0.427738
vt 0.478235 0.426708
vt 0.484093 0.427738
vt 0.483412 0.427361
vt 0.478235 0.426708
vt 0.483412 0.427361
vt 0.481414 0.427010
vt 0.474884 0.420599
vt 0.476380 0.426605
vt 0.478235 0.426708
vt 0.474884 0.420599
vt 0.478235 0.426708
vt 0.478235 0.420786
vt 0.469268 0.429145
vt 0.464479 0.429191
vt 0.464092 0.424072
vt 0.469268 0.429145
vt 0.464092 0.424072
vt 0.464092 0.423272
vt 0.469268 0.429145
vt 0.464092 0.423272
vt 0.469268 0.423222
vt 0.478235 0.420786
vt 0.481414 0.421088
vt 0.483412 0.421439
vt 0.478235 0.420786
vt 0.483412 0.421439
vt 0.484093 0.421816
vt 0.478235 0.420786
vt 0.484093 0.421816
vt 0.483412 0.422193
vt 0.478235 0.420786
vt 0.483412 0.422193
vt 0.481414 0.422544
vt 0.478235 0.420786
vt 0.481414 0.422544
vt 0.478235 0.422845
vt 0.478235 0.420786
vt 0.478235 0.422845
vt 0.474092 0.423077
vt 0.478235 0.420786
vt 0.474092 0.423077
vt 0.469268 0.423222
vt 0.478235 0.420786
vt 0.469268 0.423222
vt 0.464092 0.423272
vt 0.478235 0.420786
vt 0.464092 0.423272
vt 0.463977 0.423271
vt 0.478235 0.420786
vt 0.463977 0.423271
vt 0.464828 0.423212
vt 0.478235 0.420786
vt 0.464828 0.423212
vt 0.469519 0.422541
vt 0.478235 0.420786
vt 0.469519 0.422541
vt 0.473366 0.421772
vt 0.478235 0.420786
vt 0.473366 0.421772
vt 0.475725 0.420960
vt 0.478235 0.420786
vt 0.475725 0.420960
vt 0.474923 0.420601
vt 0.472259 0.405393
vt 0.470431 0.406226
vt 0.467487 0.407008
vt 0.472259 0.405393
vt 0.467487 0.407008
vt 0.463799 0.407685
vt 0.472259 0.405393
vt 0.463799 0.407685
vt 0.462862 0.407757
vt 0.472259 0.405393
vt 0.462862 0.407757
vt 0.464092 0.407769
vt 0.472259 0.405393
vt 0.464092 0.407769
vt 0.469268 0.407719
vt 0.472259 0.405393
vt 0.469268 0.407719
vt 0.474092 0.407574
vt 0.472259 0.405393
vt 0.474092 0.407574
vt 0.478235 0.407343
vt 0.472259 0.405393
vt 0.478235 0.407343
vt 0.481414 0.407041
vt 0.472259 0.405393
vt 0.481414 0.407041
vt 0.483412 0.406690
vt 0.472259 0.405393
vt 0.483412 0.406690
vt 0.484093 0.406313
vt 0.472259 0.405393
vt 0.484093 0.406313
vt 0.483412 0.405936
vt 0.472259 0.405393
vt 0.483412 0.405936
vt 0.481414 0.405585
vt 0.472259 0.405393
vt 0.481414 0.405585
vt 0.478235 0.405283
vt 0.472259 0.405393
vt 0.478235 0.405283
vt 0.474092 0.405052
vt 0.472259 0.405393
vt 0.474092 0.405052
vt 0.471247 0.404966
vt 0.471235 0.404966
vt 0.474092 0.405052
vt 0.474092 0.399129
vt 0.471235 0.404966
vt 0.474092 0.399129
vt 0.469837 0.399001
vt 0.464092 0.407769
vt 0.462853 0.407757
vt 0.462516 0.401832
vt 0.464092 0.407769
vt 0.462516 0.401832
vt 0.464092 0.401847
vt 0.474092 0.399129
vt 0.478235 0.399361
vt 0.481414 0.399662
vt 0.474092 0.399129
vt 0.481414 0.399662
vt 0.483412 0.400014
vt 0.474092 0.399129
vt 0.483412 0.400014
vt 0.484093 0.400391
vt 0.474092 0.399129
vt 0.484093 0.400391
vt 0.483412 0.400767
vt 0.474092 0.399129
vt 0.483412 0.400767
vt 0.481414 0.401119
vt 0.474092 0.399129
vt 0.481414 0.401119
vt 0.478235 0.401420
vt 0.474092 0.399129
vt 0.478235 0.401420
vt 0.474092 0.401652
vt 0.474092 0.399129
vt 0.474092 0.401652
vt 0.469268 0.401797
vt 0.474092 0.399129
vt 0.469268 0.401797
vt 0.464092 0.401847
vt 0.474092 0.399129
vt 0.464092 0.401847
vt 0.462521 0.401832
vt 0.474092 0.399129
vt 0.462521 0.401832
vt 0.463407 0.401759
vt 0.474092 0.399129
vt 0.463407 0.401759
vt 0.466711 0.401081
vt 0.474092 0.399129
vt 0.466711 0.401081
vt 0.469311 0.400294
vt 0.474092 0.399129
vt 0.469311 0.400294
vt 0.470937 0.399452
vt 0.474092 0.399129
vt 0.470937 0.399452
vt 0.469843 0.399001
vt 0.473795 0.416053
vt 0.474092 0.416062
vt 0.474092 0.410139
vt 0.473795 0.416053
vt 0.474092 0.410139
vt 0.472396 0.410088
vt 0.464092 0.418779
vt 0.463701 0.418775
vt 0.463356 0.412850
vt 0.464092 0.418779
vt 0.463356 0.412850
vt 0.464092 0.412857
vt 0.474092 0.410139
vt 0.478235 0.410371
vt 0.481414 0.410672
vt 0.474092 0.410139
vt 0.481414 0.410672
vt 0.483412 0.411024
vt 0.474092 0.410139
vt 0.483412 0.411024
vt 0.484093 0.411401
vt 0.474092 0.410139
vt 0.484093 0.411401
vt 0.483412 0.411777
vt 0.474092 0.410139
vt 0.483412 0.411777
vt 0.481414 0.412129
vt 0.474092 0.410139
vt 0.481414 0.412129
vt 0.478235 0.412430
vt 0.474092 0.410139
vt 0.478235 0.412430
vt 0.474092 0.412662
vt 0.474092 0.410139
vt 0.474092 0.412662
vt 0.469268 0.412807
vt 0.474092 0.410139
vt 0.469268 0.412807
vt 0.464092 0.412857
vt 0.474092 0.410139
vt 0.464092 0.412857
vt 0.463366 0.412850
vt 0.474092 0.410139
vt 0.463366 0.412850
vt 0.464137 0.412793
vt 0.474092 0.410139
vt 0.464137 0.412793
vt 0.468155 0.412118
vt 0.474092 0.410139
vt 0.468155 0.412118
vt 0.471396 0.411340
vt 0.474092 0.410139
vt 0.471396 0.411340
vt 0.473400 0.410514
vt 0.474092 0.410139
vt 0.473400 0.410514
vt 0.472410 0.410089
vt 0.538327 0.418729
vt 0.538327 0.412807
vt 0.543503 0.412857
vt 0.538327 0.418729
vt 0.543503 0.412857
vt 0.543503 0.418779
vt 0.533502 0.418584
vt 0.533502 0.412662
vt 0.538327 0.412807
vt 0.533502 0.418584
vt 0.538327 0.412807
vt 0.538327 0.418729
vt 0.529360 0.418353
vt 0.529360 0.412430
vt 0.533502 0.412662
vt 0.529360 0.418353
vt 0.533502 0.412662
vt 0.533502 0.418584
vt 0.526181 0.418051
vt 0.526181 0.412129
vt 0.529360 0.412430
vt 0.526181 0.418051
vt 0.529360 0.412430
vt 0.529360 0.418353
vt 0.524183 0.417700
vt 0.524183 0.411777
vt 0.526181 0.412129
vt 0.524183 0.417700
vt 0.526181 0.412129
vt 0.526181 0.418051
vt 0.523502 0.417323
vt 0.523502 0.411401
vt 0.524183 0.411777
vt 0.523502 0.417323
vt 0.524183 0.411777
vt 0.524183 0.417700
vt 0.524183 0.416946
vt 0.524183 0.411024
vt 0.523502 0.411401
vt 0.524183 0.416946
vt 0.523502 0.411401
vt 0.523502 0.417323
vt 0.526181 0.416595
vt 0.526181 0.410672
vt 0.524183 0.411024
vt 0.526181 0.416595
vt 0.524183 0.411024
vt 0.524183 0.416946
vt 0.529360 0.416293
vt 0.529360 0.410371
vt 0.526181 0.410672
vt 0.529360 0.416293
vt 0.526181 0.410672
vt 0.526181 0.416595
vt 0.533502 0.416062
vt 0.533502 0.410139
vt 0.529360 0.410371
vt 0.533502 0.416062
vt 0.529360 0.410371
vt 0.529360 0.416293
vt 0.538327 0.407719
vt 0.538327 0.401797
vt 0.543503 0.401847
vt 0.538327 0.407719
vt 0.543503 0.401847
vt 0.543503 0.407769
vt 0.533502 0.407574
vt 0.533502 0.401652
vt 0.538327 0.401797
vt 0.533502 0.407574
vt 0.538327 0.401797
vt 0.538327 0.407719
vt 0.529360 0.407343
vt 0.529360 0.401420
vt 0.533502 0.401652
vt 0.529360 0.407343
vt 0.533502 0.401652
vt 0.533502 0.407574
vt 0.526181 0.407041
vt 0.526181 0.401119
vt 0.529360 0.401420
vt 0.526181 0.407041
vt 0.529360 0.401420
vt 0.529360 0.407343
vt 0.524183 0.406690
vt 0.524183 0.400767
vt 0.526181 0.401119
vt 0.524183 0.406690
vt 0.526181 0.401119
vt 0.526181 0.407041
vt 0.523502 0.406313
vt 0.523502 0.400391
vt 0.524183 0.400767
vt 0.523502 0.406313
vt 0.524183 0.400767
vt 0.524183 0.406690
vt 0.524183 0.405936
vt 0.524183 0.400014
vt 0.523502 0.400391
vt 0.524183 0.405936
vt 0.523502 0.400391
vt 0.523502 0.406313
vt 0.526181 0.405585
vt 0.526181 0.399662
vt 0.524183 0.400014
vt 0.526181 0.405585
vt 0.524183 0.400014
vt 0.524183 0.405936
vt 0.529360 0.405283
vt 0.529360 0.399361
vt 0.526181 0.399662
vt 0.529360 0.405283
vt 0.526181 0.399662
vt 0.526181 0.405585
vt 0.533502 0.405052
vt 0.533502 0.399129
vt 0.529360 0.399361
vt 0.533502 0.405052
vt 0.529360 0.399361
vt 0.529360 0.405283
vt 0.538327 0.429145
vt 0.538327 0.423222
vt 0.543503 0.423272
vt 0.538327 0.429145
vt 0.543503 0.423272
vt 0.543503 0.429194
vt 0.533502 0.428999
vt 0.533502 0.423077
vt 0.538327 0.423222
vt 0.533502 0.428999
vt 0.538327 0.423222
vt 0.538327 0.429145
vt 0.529360 0.428768
vt 0.529360 0.422845
vt 0.533502 0.423077
vt 0.529360 0.428768
vt 0.533502 0.423077
vt 0.533502 0.428999
vt 0.526181 0.428466
vt 0.526181 0.422544
vt 0.529360 0.422845
vt 0.526181 0.428466
vt 0.529360 0.422845
vt 0.529360 0.428768
vt 0.524183 0.428115
vt 0.524183 0.422193
vt 0.526181 0.422544
vt 0.524183 0.428115
vt 0.526181 0.422544
vt 0.526181 0.428466
vt 0.523502 0.427738
vt 0.523502 0.421816
vt 0.524183 0.422193
vt 0.523502 0.427738
vt 0.524183 0.422193
vt 0.524183 0.428115
vt 0.524183 0.427361
vt 0.524183 0.421439
vt 0.523502 0.421816
vt 0.524183 0.427361
vt 0.523502 0.421816
vt 0.523502 0.427738
vt 0.526181 0.427010
vt 0.526181 0.421088
vt 0.524183 0.421439
vt 0.526181 0.427010
vt 0.524183 0.421439
vt 0.524183 0.427361
vt 0.529360 0.426708
vt 0.529360 0.420786
vt 0.526181 0.421088
vt 0.529360 0.426708
vt 0.526181 0.421088
vt 0.526181 0.427010
vt 0.539097 0.392318
vt 0.537363 0.399452
vt 0.538260 0.398986
vt 0.539097 0.392318
vt 0.538260 0.398986
vt 0.536771 0.404953
vt 0.539097 0.392318
vt 0.536771 0.404953
vt 0.535918 0.405392
vt 0.539097 0.392318
vt 0.535918 0.405392
vt 0.534673 0.410513
vt 0.539097 0.392318
vt 0.534673 0.410513
vt 0.535527 0.410078
vt 0.539097 0.392318
vt 0.535527 0.410078
vt 0.534038 0.416046
vt 0.539097 0.392318
vt 0.534038 0.416046
vt 0.533229 0.416454
vt 0.539097 0.392318
vt 0.533229 0.416454
vt 0.532133 0.420960
vt 0.539097 0.392318
vt 0.532133 0.420960
vt 0.532873 0.420590
vt 0.539097 0.392318
vt 0.532873 0.420590
vt 0.531295 0.426600
vt 0.539097 0.392318
vt 0.531295 0.426600
vt 0.530688 0.426901
vt 0.539097 0.392318
vt 0.530688 0.426901
vt 0.529012 0.433797
vt 0.539097 0.392318
vt 0.529012 0.433797
vt 0.531482 0.429500
vt 0.539097 0.392318
vt 0.531482 0.429500
vt 0.540575 0.392318
vt 0.538729 0.400296
vt 0.537363 0.399452
vt 0.539097 0.392318
vt 0.538729 0.400296
vt 0.539097 0.392318
vt 0.540315 0.392318
vt 0.531217 0.438100
vt 0.529012 0.433797
vt 0.530688 0.426901
vt 0.531217 0.438100
vt 0.530688 0.426901
vt 0.533283 0.427704
vt 0.536535 0.411341
vt 0.534673 0.410513
vt 0.535918 0.405392
vt 0.536535 0.411341
vt 0.535918 0.405392
vt 0.537551 0.406227
vt 0.535356 0.417272
vt 0.534462 0.421772
vt 0.532133 0.420960
vt 0.535356 0.417272
vt 0.532133 0.420960
vt 0.533229 0.416454
vt 0.541242 0.401095
vt 0.538729 0.400296
vt 0.540315 0.392318
vt 0.541242 0.401095
vt 0.540315 0.392318
vt 0.542427 0.392318
vt 0.535695 0.442182
vt 0.531217 0.438100
vt 0.533283 0.427704
vt 0.535695 0.442182
vt 0.533283 0.427704
vt 0.537546 0.428472
vt 0.540442 0.407020
vt 0.539753 0.412128
vt 0.536535 0.411341
vt 0.540442 0.407020
vt 0.536535 0.411341
vt 0.537551 0.406227
vt 0.538346 0.422547
vt 0.534462 0.421772
vt 0.535356 0.417272
vt 0.538346 0.422547
vt 0.535356 0.417272
vt 0.538953 0.418053
vt 0.544926 0.401800
vt 0.541242 0.401095
vt 0.542427 0.392318
vt 0.544926 0.401800
vt 0.542427 0.392318
vt 0.545639 0.392318
vt 0.541620 0.445779
vt 0.535695 0.442182
vt 0.537546 0.428472
vt 0.541620 0.445779
vt 0.537546 0.428472
vt 0.542870 0.429153
vt 0.544097 0.412823
vt 0.539753 0.412128
vt 0.540442 0.407020
vt 0.544097 0.412823
vt 0.540442 0.407020
vt 0.544481 0.407719
vt 0.543652 0.418742
vt 0.543315 0.423233
vt 0.538346 0.422547
vt 0.543652 0.418742
vt 0.538346 0.422547
vt 0.538953 0.418053
vt 0.541620 0.445779
vt 0.542870 0.429153
vt 0.543584 0.429193
vt 0.541620 0.445779
vt 0.543584 0.429193
vt 0.543925 0.423268
vt 0.541620 0.445779
vt 0.543925 0.423268
vt 0.543315 0.423233
vt 0.541620 0.445779
vt 0.543315 0.423233
vt 0.543652 0.418742
vt 0.541620 0.445779
vt 0.543652 0.418742
vt 0.544184 0.418773
vt 0.541620 0.445779
vt 0.544184 0.418773
vt 0.544525 0.412847
vt 0.541620 0.445779
vt 0.544525 0.412847
vt 0.544097 0.412823
vt 0.541620 0.445779
vt 0.544097 0.412823
vt 0.544481 0.407719
vt 0.541620 0.445779
vt 0.544481 0.407719
vt 0.545088 0.407754
vt 0.541620 0.445779
vt 0.545088 0.407754
vt 0.545429 0.401828
vt 0.541620 0.445779
vt 0.545429 0.401828
vt 0.544926 0.401800
vt 0.541620 0.445779
vt 0.544926 0.401800
vt 0.545639 0.392318
vt 0.541620 0.445779
vt 0.545639 0.392318
vt 0.552281 0.392318
vt 0.541620 0.445779
vt 0.552281 0.392318
vt 0.550620 0.448587
vt 0.529360 0.426708
vt 0.526181 0.427010
vt 0.524183 0.427361
vt 0.529360 0.426708
vt 0.524183 0.427361
vt 0.523502 0.427738
vt 0.529360 0.426708
vt 0.523502 0.427738
vt 0.524183 0.428115
vt 0.529360 0.426708
vt 0.524183 0.428115
vt 0.526181 0.428466
vt 0.529360 0.426708
vt 0.526181 0.428466
vt 0.529360 0.428768
vt 0.529360 0.426708
vt 0.529360 0.428768
vt 0.533502 0.428999
vt 0.529360 0.426708
vt 0.533502 0.428999
vt 0.538327 0.429145
vt 0.529360 0.426708
vt 0.538327 0.429145
vt 0.543503 0.429194
vt 0.529360 0.426708
vt 0.543503 0.429194
vt 0.543514 0.429194
vt 0.529360 0.426708
vt 0.543514 0.429194
vt 0.542870 0.429153
vt 0.529360 0.426708
vt 0.542870 0.429153
vt 0.537546 0.428472
vt 0.529360 0.426708
vt 0.537546 0.428472
vt 0.533283 0.427704
vt 0.529360 0.426708
vt 0.533283 0.427704
vt 0.530688 0.426901
vt 0.529360 0.426708
vt 0.530688 0.426901
vt 0.531304 0.426600
vt 0.529360 0.420786
vt 0.529360 0.426708
vt 0.531297 0.426600
vt 0.529360 0.420786
vt 0.531297 0.426600
vt 0.532878 0.420590
vt 0.532133 0.420960
vt 0.534462 0.421772
vt 0.538346 0.422548
vt 0.532133 0.420960
vt 0.538346 0.422548
vt 0.543315 0.423234
vt 0.532133 0.420960
vt 0.543315 0.423234
vt 0.543846 0.423269
vt 0.532133 0.420960
vt 0.543846 0.423269
vt 0.543503 0.423272
vt 0.532133 0.420960
vt 0.543503 0.423272
vt 0.538327 0.423222
vt 0.532133 0.420960
vt 0.538327 0.423222
vt 0.533502 0.423077
vt 0.532133 0.420960
vt 0.533502 0.423077
vt 0.529360 0.422845
vt 0.532133 0.420960
vt 0.529360 0.422845
vt 0.526181 0.422544
vt 0.532133 0.420960
vt 0.526181 0.422544
vt 0.524183 0.422193
vt 0.532133 0.420960
vt 0.524183 0.422193
vt 0.523502 0.421816
vt 0.532133 0.420960
vt 0.523502 0.421816
vt 0.524183 0.421439
vt 0.532133 0.420960
vt 0.524183 0.421439
vt 0.526181 0.421088
vt 0.532133 0.420960
vt 0.526181 0.421088
vt 0.529360 0.420786
vt 0.532133 0.420960
vt 0.529360 0.420786
vt 0.532888 0.420589
vt 0.533502 0.405052
vt 0.529360 0.405283
vt 0.526181 0.405585
vt 0.533502 0.405052
vt 0.526181 0.405585
vt 0.524183 0.405936
vt 0.533502 0.405052
vt 0.524183 0.405936
vt 0.523502 0.406313
vt 0.533502 0.405052
vt 0.523502 0.406313
vt 0.524183 0.406690
vt 0.533502 0.405052
vt 0.524183 0.406690
vt 0.526181 0.407041
vt 0.533502 0.405052
vt 0.526181 0.407041
vt 0.529360 0.407343
vt 0.533502 0.405052
vt 0.529360 0.407343
vt 0.533502 0.407574
vt 0.533502 0.405052
vt 0.533502 0.407574
vt 0.538327 0.407719
vt 0.533502 0.405052
vt 0.538327 0.407719
vt 0.543503 0.407769
vt 0.533502 0.405052
vt 0.543503 0.407769
vt 0.544961 0.407755
vt 0.533502 0.405052
vt 0.544961 0.407755
vt 0.544481 0.407720
vt 0.533502 0.405052
vt 0.544481 0.407720
vt 0.540442 0.407020
vt 0.533502 0.405052
vt 0.540442 0.407020
vt 0.537551 0.406227
vt 0.533502 0.405052
vt 0.537551 0.406227
vt 0.535918 0.405393
vt 0.533502 0.405052
vt 0.535918 0.405393
vt 0.536798 0.404952
vt 0.533502 0.399129
vt 0.533502 0.405052
vt 0.536795 0.404953
vt 0.533502 0.399129
vt 0.536795 0.404953
vt 0.538289 0.398985
vt 0.545018 0.407755
vt 0.543503 0.407769
vt 0.543503 0.401847
vt 0.545018 0.407755
vt 0.543503 0.401847
vt 0.545349 0.401829
vt 0.537363 0.399452
vt 0.538730 0.400295
vt 0.541242 0.401095
vt 0.537363 0.399452
vt 0.541242 0.401095
vt 0.544926 0.401799
vt 0.537363 0.399452
vt 0.544926 0.401799
vt 0.545309 0.401829
vt 0.537363 0.399452
vt 0.545309 0.401829
vt 0.543503 0.401847
vt 0.537363 0.399452
vt 0.543503 0.401847
vt 0.538327 0.401797
vt 0.537363 0.399452
vt 0.538327 0.401797
vt 0.533502 0.401652
vt 0.537363 0.399452
vt 0.533502 0.401652
vt 0.529360 0.401420
vt 0.537363 0.399452
vt 0.529360 0.401420
vt 0.526181 0.401119
vt 0.537363 0.399452
vt 0.526181 0.401119
vt 0.524183 0.400767
vt 0.537363 0.399452
vt 0.524183 0.400767
vt 0.523502 0.400391
vt 0.537363 0.399452
vt 0.523502 0.400391
vt 0.524183 0.400014
vt 0.537363 0.399452
vt 0.524183 0.400014
vt 0.526181 0.399662
vt 0.537363 0.399452
vt 0.526181 0.399662
vt 0.529360 0.399361
vt 0.537363 0.399452
vt 0.529360 0.399361
vt 0.533502 0.399129
vt 0.537363 0.399452
vt 0.533502 0.399129
vt 0.538291 0.398985
vt 0.543503 0.418779
vt 0.544103 0.418773
vt 0.543652 0.418742
vt 0.543503 0.418779
vt 0.543652 0.418742
vt 0.538953 0.418052
vt 0.543503 0.418779
vt 0.538953 0.418052
vt 0.535356 0.417272
vt 0.543503 0.418779
vt 0.535356 0.417272
vt 0.533229 0.416454
vt 0.543503 0.418779
vt 0.533229 0.416454
vt 0.534055 0.416045
vt 0.543503 0.418779
vt 0.534055 0.416045
vt 0.533502 0.416062
vt 0.543503 0.418779
vt 0.533502 0.416062
vt 0.529360 0.416293
vt 0.543503 0.418779
vt 0.529360 0.416293
vt 0.526181 0.416595
vt 0.543503 0.418779
vt 0.526181 0.416595
vt 0.524183 0.416946
vt 0.543503 0.418779
vt 0.524183 0.416946
vt 0.523502 0.417323
vt 0.543503 0.418779
vt 0.523502 0.417323
vt 0.524183 0.417700
vt 0.543503 0.418779
vt 0.524183 0.417700
vt 0.526181 0.418051
vt 0.543503 0.418779
vt 0.526181 0.418051
vt 0.529360 0.418353
vt 0.543503 0.418779
vt 0.529360 0.418353
vt 0.533502 0.418584
vt 0.543503 0.418779
vt 0.533502 0.418584
vt 0.538327 0.418729
vt 0.533502 0.416062
vt 0.534051 0.416045
vt 0.535545 0.410078
vt 0.533502 0.416062
vt 0.535545 0.410078
vt 0.533502 0.410139
vt 0.544513 0.412847
vt 0.544174 0.418773
vt 0.543503 0.418779
vt 0.544513 0.412847
vt 0.543503 0.418779
vt 0.543503 0.412857
vt 0.534673 0.410514
vt 0.536535 0.411341
vt 0.539753 0.412128
vt 0.534673 0.410514
vt 0.539753 0.412128
vt 0.544097 0.412823
vt 0.534673 0.410514
vt 0.544097 0.412823
vt 0.544447 0.412848
vt 0.534673 0.410514
vt 0.544447 0.412848
vt 0.543503 0.412857
vt 0.534673 0.410514
vt 0.543503 0.412857
vt 0.538327 0.412807
vt 0.534673 0.410514
vt 0.538327 0.412807
vt 0.533502 0.412662
vt 0.534673 0.410514
vt 0.533502 0.412662
vt 0.529360 0.412430
vt 0.534673 0.410514
vt 0.529360 0.412430
vt 0.526181 0.412129
vt 0.534673 0.410514
vt 0.526181 0.412129
vt 0.524183 0.411777
vt 0.534673 0.410514
vt 0.524183 0.411777
vt 0.523502 0.411401
vt 0.534673 0.410514
vt 0.523502 0.411401
vt 0.524183 0.411024
vt 0.534673 0.410514
vt 0.524183 0.411024
vt 0.526181 0.410672
vt 0.534673 0.410514
vt 0.526181 0.410672
vt 0.529360 0.410371
vt 0.534673 0.410514
vt 0.529360 0.410371
vt 0.533502 0.410139
vt 0.534673 0.410514
vt 0.533502 0.410139
vt 0.535549 0.410078
vt 0.446556 0.449911
vt 0.468916 0.459491
vt 0.469113 0.392318
vt 0.446556 0.449911
vt 0.469113 0.392318
vt 0.447296 0.392318
vt 0.504017 0.426761
vt 0.473008 0.427784
vt 0.464989 0.392318
vt 0.504017 0.426761
vt 0.464989 0.392318
vt 0.504905 0.392318
vt 0.503797 0.392318
vt 0.485055 0.392318
vt 0.485054 0.457515
vt 0.503797 0.392318
vt 0.485054 0.457515
vt 0.503797 0.456949
vt 0.485055 0.392318
vt 0.470250 0.392318
vt 0.470070 0.459239
vt 0.485055 0.392318
vt 0.470070 0.459239
vt 0.485054 0.457515
vt 0.468916 0.459491
vt 0.470070 0.459239
vt 0.470250 0.392318
vt 0.468916 0.459491
vt 0.470250 0.392318
vt 0.469113 0.392318
vt 0.473008 0.427784
vt 0.476113 0.429500
vt 0.467423 0.392318
vt 0.473008 0.427784
vt 0.467423 0.392318
vt 0.464989 0.392318
vt 0.456848 0.392318
vt 0.462782 0.392318
vt 0.466322 0.445770
vt 0.456848 0.392318
vt 0.466322 0.445770
vt 0.457693 0.448576
vt 0.447296 0.392318
vt 0.456848 0.392318
vt 0.457693 0.448576
vt 0.447296 0.392318
vt 0.457693 0.448576
vt 0.446556 0.449911
vt 0.534397 0.427889
vt 0.531482 0.429500
vt 0.529012 0.433797
vt 0.534397 0.427889
vt 0.529012 0.433797
vt 0.531217 0.438100
vt 0.534397 0.427889
vt 0.531217 0.438100
vt 0.535695 0.442182
vt 0.534397 0.427889
vt 0.535695 0.442182
vt 0.541620 0.445779
vt 0.534397 0.427889
vt 0.541620 0.445779
vt 0.550620 0.448587
vt 0.534397 0.427889
vt 0.550620 0.448587
vt 0.560474 0.449738
vt 0.534397 0.427889
vt 0.560474 0.449738
vt 0.539103 0.459495
vt 0.534397 0.427889
vt 0.539103 0.459495
vt 0.537877 0.459234
vt 0.534397 0.427889
vt 0.537877 0.459234
vt 0.522558 0.457514
vt 0.534397 0.427889
vt 0.522558 0.457514
vt 0.503797 0.456949
vt 0.534397 0.427889
vt 0.503797 0.456949
vt 0.485054 0.457515
vt 0.534397 0.427889
vt 0.485054 0.457515
vt 0.470070 0.459239
vt 0.534397 0.427889
vt 0.470070 0.459239
vt 0.468916 0.459491
vt 0.534397 0.427889
vt 0.468916 0.459491
vt 0.446556 0.449911
vt 0.534397 0.427889
vt 0.446556 0.449911
vt 0.457693 0.448576
vt 0.534397 0.427889
vt 0.457693 0.448576
vt 0.466322 0.445770
vt 0.534397 0.427889
vt 0.466322 0.445770
vt 0.472089 0.442181
vt 0.534397 0.427889
vt 0.472089 0.442181
vt 0.476448 0.438102
vt 0.534397 0.427889
vt 0.476448 0.438102
vt 0.478583 0.433797
vt 0.534397 0.427889
vt 0.478583 0.433797
vt 0.476113 0.429500
vt 0.534397 0.427889
vt 0.476113 0.429500
vt 0.473008 0.427784
vt 0.534397 0.427889
vt 0.473008 0.427784
vt 0.504017 0.426761
vt 0.539103 0.459495
vt 0.560474 0.449738
vt 0.560932 0.392318
vt 0.539103 0.459495
vt 0.560932 0.392318
vt 0.539103 0.392318
vt 0.504905 0.392318
vt 0.542608 0.392318
vt 0.534397 0.427889
vt 0.504905 0.392318
vt 0.534397 0.427889
vt 0.504017 0.426761
vt 0.464989 0.000000
vt 0.467423 0.000000
vt 0.469349 0.057609
vt 0.464989 0.000000
vt 0.469349 0.057609
vt 0.467805 0.057609
vt 0.464989 0.000000
vt 0.467805 0.057609
vt 0.465565 0.057609
vt 0.464989 0.000000
vt 0.465565 0.057609
vt 0.462782 0.057609
vt 0.464989 0.000000
vt 0.462782 0.057609
vt 0.456848 0.057609
vt 0.464989 0.000000
vt 0.456848 0.057609
vt 0.447296 0.057609
vt 0.464989 0.000000
vt 0.447296 0.057609
vt 0.469113 0.057609
vt 0.464989 0.000000
vt 0.469113 0.057609
vt 0.470250 0.057609
vt 0.464989 0.000000
vt 0.470250 0.057609
vt 0.485055 0.057609
vt 0.464989 0.000000
vt 0.485055 0.057609
vt 0.503797 0.057609
vt 0.464989 0.000000
vt 0.503797 0.057609
vt 0.522558 0.057609
vt 0.464989 0.000000
vt 0.522558 0.057609
vt 0.537877 0.057609
vt 0.464989 0.000000
vt 0.537877 0.057609
vt 0.539103 0.057609
vt 0.464989 0.000000
vt 0.539103 0.057609
vt 0.560932 0.057609
vt 0.464989 0.000000
vt 0.560932 0.057609
vt 0.552281 0.057609
vt 0.464989 0.000000
vt 0.552281 0.057609
vt 0.545639 0.057609
vt 0.464989 0.000000
vt 0.545639 0.057609
vt 0.542427 0.057609
vt 0.464989 0.000000
vt 0.542427 0.057609
vt 0.540315 0.057609
vt 0.464989 0.000000
vt 0.540315 0.057609
vt 0.539097 0.057609
vt 0.464989 0.000000
vt 0.539097 0.057609
vt 0.540575 0.057609
vt 0.464989 0.000000
vt 0.540575 0.057609
vt 0.542608 0.057609
vt 0.464989 0.000000
vt 0.542608 0.057609
vt 0.504905 0.000000
vt 0.534397 0.427889
vt 0.542608 0.392318
vt 0.540575 0.392318
vt 0.534397 0.427889
vt 0.540575 0.392318
vt 0.531482 0.429500
vt 0.552281 0.392318
vt 0.560932 0.392318
vt 0.560474 0.449738
vt 0.552281 0.392318
vt 0.560474 0.449738
vt 0.550620 0.448587
vt 0.541490 0.459427
vt 0.541490 0.392318
vt 0.540043 0.392318
vt 0.541490 0.459427
vt 0.540043 0.392318
vt 0.540043 0.459173
vt 0.540043 0.392318
vt 0.522559 0.392318
vt 0.522559 0.457514
vt 0.540043 0.392318
vt 0.522559 0.457514
vt 0.540043 0.459173
vt 0.522559 0.392318
vt 0.503797 0.392318
vt 0.503797 0.456949
vt 0.522559 0.392318
vt 0.503797 0.456949
vt 0.522559 0.457514
vn -0.000001 0.996195 0.087156
vn -0.257395 0.962629 0.084219
vn -0.257395 0.962629 0.084219
vn -0.000001 0.996195 0.087156
vn -0.257395 0.962629 0.084219
vn -0.000001 0.996195 0.087156
vn -0.257395 0.962629 0.084219
vn -0.497787 0.863999 0.075590
vn -0.497787 0.863999 0.075590
vn -0.257395 0.962629 0.084219
vn -0.497787 0.863999 0.075590
vn -0.257395 0.962629 0.084219
vn -0.497787 0.863999 0.075590
vn -0.705015 0.706494 0.061810
vn -0.705015 0.706494 0.061810
vn -0.497787 0.863999 0.075590
vn -0.705015 0.706494 0.061810
vn -0.497787 0.863999 0.075590
vn -0.705015 0.706494 0.061810
vn -0.864742 0.500306 0.043771
vn -0.864742 0.500306 0.043771
vn -0.705015 0.706494 0.061810
vn -0.864742 0.500306 0.043771
vn -0.705015 0.706494 0.061810
vn -0.864742 0.500306 0.043771
vn -0.965542 0.259258 0.022682
vn -0.965542 0.259258 0.022682
vn -0.864742 0.500306 0.043771
vn -0.965542 0.259258 0.022682
vn -0.864742 0.500306 0.043771
vn -0.965542 0.259258 0.022682
vn -1.000000 -0.000000 -0.000000
vn -1.000000 -0.000000 -0.000000
vn -0.965542 0.259258 0.022682
vn -1.000000 -0.000000 -0.000000
vn -0.965542 0.259258 0.022682
vn -1.000000 -0.000000 -0.000000
vn -0.965542 -0.259259 -0.022682
vn -0.965542 -0.259259 -0.022682
vn -1.000000 -0.000000 -0.000000
vn -0.965542 -0.259259 -0.022682
vn -1.000000 -0.000000 -0.000000
vn -0.965542 -0.259259 -0.022682
vn -0.864742 -0.500306 -0.043771
vn -0.864742 -0.500306 -0.043771
vn -0.965542 -0.259259 -0.022682
vn -0.864742 -0.500306 -0.043771
vn -0.965542 -0.259259 -0.022682
vn -0.864742 -0.500306 -0.043771
vn -0.705015 -0.706494 -0.061810
vn -0.705015 -0.706494 -0.061810
vn -0.864742 -0.500306 -0.043771
vn -0.705015 -0.706494 -0.061810
vn -0.864742 -0.500306 -0.043771
vn -0.705015 -0.706494 -0.061810
vn -0.497787 -0.863999 -0.075590
vn -0.497787 -0.863999 -0.075590
vn -0.705015 -0.706494 -0.061810
vn -0.497787 -0.863999 -0.075590
vn -0.705015 -0.706494 -0.061810
vn -0.000001 0.996195 0.087156
vn -0.257395 0.962629 0.084219
vn -0.257395 0.962629 0.084219
vn -0.000001 0.996195 0.087156
vn -0.257395 0.962629 0.084219
vn -0.000001 0.996195 0.087156
vn -0.257395 0.962629 0.084219
vn -0.497787 0.863999 0.075590
vn -0.497787 0.863999 0.075590
vn -0.257395 0.962629 0.084219
vn -0.497787 0.863999 0.075590
vn -0.257395 0.962629 0.084219
vn -0.497787 0.863999 0.075590
vn -0.705015 0.706494 0.061810
vn -0.705015 0.706494 0.061810
vn -0.497787 0.863999 0.075590
vn -0.705015 0.706494 0.061810
vn -0.497787 0.863999 0.075590
vn -0.705015 0.706494 0.061810
vn -0.864742 0.500306 0.043771
vn -0.864742 0.500306 0.043771
vn -0.705015 0.706494 0.061810
vn -0.864742 0.500306 0.043771
vn -0.705015 0.706494 0.061810
vn -0.864742 0.500306 0.043771
vn -0.965542 0.259258 0.022682
vn -0.965542 0.259258 0.022682
vn -0.864742 0.500306 0.043771
vn -0.965542 0.259258 0.022682
vn -0.864742 0.500306 0.043771
vn -0.965542 0.259258 0.022682
vn -1.000000 -0.000000 -0.000000
vn -1.000000 -0.000000 -0.000000
vn -0.965542 0.259258 0.022682
vn -1.000000 -0.000000 -0.000000
vn -0.965542 0.259258 0.022682
vn -1.000000 -0.000000 -0.000000
vn -0.965542 -0.259259 -0.022682
vn -0.965542 -0.259259 -0.022682
vn -1.000000 -0.000000 -0.000000
vn -0.965542 -0.259259 -0.022682
vn -1.000000 -0.000000 -0.000000
vn -0.965542 -0.259259 -0.022682
vn -0.864742 -0.500306 -0.043771
vn -0.864742 -0.500306 -0.043771
vn -0.965542 -0.259259 -0.022682
vn -0.864742 -0.500306 -0.043771
vn -0.965542 -0.259259 -0.022682
vn -0.864742 -0.500306 -0.043771
vn -0.705015 -0.706494 -0.061810
vn -0.705015 -0.706494 -0.061810
vn -0.864742 -0.500306 -0.043771
vn -0.705015 -0.706494 -0.061810
vn -0.864742 -0.500306 -0.043771
vn -0.705015 -0.706494 -0.061810
vn -0.497787 -0.863999 -0.075590
vn -0.497787 -0.863999 -0.075590
vn -0.705015 -0.706494 -0.061810
vn -0.497787 -0.863999 -0.075590
vn -0.705015 -0.706494 -0.061810
vn -0.257395 0.962629 0.084219
vn -0.497787 0.863999 0.075590
vn -0.497787 0.863999 0.075590
vn -0.257395 0.962629 0.084219
vn -0.497787 0.863999 0.075590
vn -0.257395 0.962629 0.084219
vn -0.497787 0.863999 0.075590
vn -0.705015 0.706494 0.061810
vn -0.705015 0.706494 0.061810
vn -0.497787 0.863999 0.075590
vn -0.705015 0.706494 0.061810
vn -0.497787 0.863999 0.075590
vn -0.705015 0.706494 0.061810
vn -0.864742 0.500306 0.043771
vn -0.864742 0.500306 0.043771
vn -0.705015 0.706494 0.061810
vn -0.864742 0.500306 0.043771
vn -0.705015 0.706494 0.061810
vn -0.864742 0.500306 0.043771
vn -0.965542 0.259258 0.022682
vn -0.965542 0.259258 0.022682
vn -0.864742 0.500306 0.043771
vn -0.965542 0.259258 0.022682
vn -0.864742 0.500306 0.043771
vn -0.965542 0.259258 0.022682
vn -1.000000 -0.000000 -0.000000
vn -1.000000 -0.000000 -0.000000
vn -0.965542 0.259258 0.022682
vn -1.000000 -0.000000 -0.000000
vn -0.965542 0.259258 0.022682
vn -1.000000 -0.000000 -0.000000
vn -0.965542 -0.259259 -0.022682
vn -0.965542 -0.259259 -0.022682
vn -1.000000 -0.000000 -0.000000
vn -0.965542 -0.259259 -0.022682
vn -1.000000 -0.000000 -0.000000
vn -0.965542 -0.259259 -0.022682
vn -0.864742 -0.500306 -0.043771
vn -0.864742 -0.500306 -0.043771
vn -0.965542 -0.259259 -0.022682
vn -0.864742 -0.500306 -0.043771
vn -0.965542 -0.259259 -0.022682
vn -0.864742 -0.500306 -0.043771
vn -0.705015 -0.706494 -0.061810
vn -0.705015 -0.706494 -0.061810
vn -0.864742 -0.500306 -0.043771
vn -0.705015 -0.706494 -0.061810
vn -0.864742 -0.500306 -0.043771
vn -0.925935 -0.327181 -0.188672
vn -0.983497 0.051111 -0.173555
vn -0.983497 0.051111 -0.173555
vn -0.925935 -0.327181 -0.188672
vn -0.983497 0.051111 -0.173555
vn -0.969467 -0.151312 -0.192971
vn -0.925935 -0.327181 -0.188672
vn -0.969467 -0.151312 -0.192971
vn -0.969467 -0.151312 -0.192971
vn -0.925935 -0.327181 -0.188672
vn -0.969467 -0.151312 -0.192971
vn -0.983826 0.030999 -0.176427
vn -0.925935 -0.327181 -0.188672
vn -0.983826 0.030999 -0.176427
vn -0.983826 0.030999 -0.176427
vn -0.925935 -0.327181 -0.188672
vn -0.983826 0.030999 -0.176427
vn -0.969467 -0.151312 -0.192971
vn -0.925935 -0.327181 -0.188672
vn -0.969467 -0.151312 -0.192971
vn -0.969467 -0.151312 -0.192971
vn -0.925935 -0.327181 -0.188672
vn -0.969467 -0.151312 -0.192971
vn -0.984027 0.013831 -0.177481
vn -0.925935 -0.327181 -0.188672
vn -0.984027 0.013831 -0.177481
vn -0.984027 0.013831 -0.177481
vn -0.925935 -0.327181 -0.188672
vn -0.984027 0.013831 -0.177481
vn -0.969467 -0.151312 -0.192971
vn -0.925935 -0.327181 -0.188672
vn -0.969467 -0.151312 -0.192971
vn -0.969467 -0.151312 -0.192971
vn -0.925935 -0.327181 -0.188672
vn -0.969467 -0.151312 -0.192971
vn -0.983984 -0.005266 -0.178181
vn -0.925935 -0.327181 -0.188672
vn -0.983984 -0.005266 -0.178181
vn -0.983984 -0.005266 -0.178181
vn -0.925935 -0.327181 -0.188672
vn -0.983984 -0.005266 -0.178181
vn -0.925935 -0.327181 -0.188672
vn -0.983984 -0.005266 -0.178181
vn -0.983984 -0.005266 -0.178181
vn -0.973871 0.181756 -0.136159
vn -0.983984 -0.005266 -0.178181
vn -0.973871 0.181756 -0.136159
vn -0.973871 0.181756 -0.136159
vn -0.983497 0.051111 -0.173555
vn -0.983497 0.051111 -0.173555
vn -0.936334 0.330601 -0.118245
vn -0.983497 0.051111 -0.173555
vn -0.936334 0.330601 -0.118245
vn -0.936334 0.330601 -0.118245
vn -0.984027 0.013831 -0.177481
vn -0.963408 0.233218 -0.132112
vn -0.963408 0.233218 -0.132112
vn -0.984027 0.013831 -0.177481
vn -0.963408 0.233218 -0.132112
vn -0.984027 0.013831 -0.177481
vn -0.983826 0.030999 -0.176427
vn -0.983826 0.030999 -0.176427
vn -0.952373 0.276996 -0.127507
vn -0.983826 0.030999 -0.176427
vn -0.952373 0.276996 -0.127507
vn -0.952373 0.276996 -0.127507
vn -0.973871 0.181756 -0.136159
vn -0.973871 0.181756 -0.136159
vn -0.959826 0.268190 -0.082513
vn -0.973871 0.181756 -0.136159
vn -0.959826 0.268190 -0.082513
vn -0.959826 0.268190 -0.082513
vn -0.936334 0.330601 -0.118245
vn -0.936334 0.330601 -0.118245
vn -0.882430 0.466924 -0.057442
vn -0.936334 0.330601 -0.118245
vn -0.882430 0.466924 -0.057442
vn -0.882430 0.466924 -0.057442
vn -0.963408 0.233218 -0.132112
vn -0.937735 0.338967 -0.075859
vn -0.937735 0.338967 -0.075859
vn -0.963408 0.233218 -0.132112
vn -0.937735 0.338967 -0.075859
vn -0.963408 0.233218 -0.132112
vn -0.952373 0.276996 -0.127507
vn -0.916130 0.394845 -0.069309
vn -0.916130 0.394845 -0.069309
vn -0.952373 0.276996 -0.127507
vn -0.916130 0.394845 -0.069309
vn -0.952373 0.276996 -0.127507
vn -0.959826 0.268190 -0.082513
vn -0.959826 0.268190 -0.082513
vn -0.948202 0.313337 -0.052270
vn -0.959826 0.268190 -0.082513
vn -0.948202 0.313337 -0.052270
vn -0.847680 0.530441 -0.008434
vn -0.882430 0.466924 -0.057442
vn -0.882430 0.466924 -0.057442
vn -0.851265 0.524096 -0.025909
vn -0.882430 0.466924 -0.057442
vn -0.851265 0.524096 -0.025909
vn -0.851265 0.524096 -0.025909
vn -0.937735 0.338967 -0.075859
vn -0.937735 0.338967 -0.075859
vn -0.919880 0.389637 -0.044757
vn -0.937735 0.338967 -0.075859
vn -0.919880 0.389637 -0.044757
vn -0.919880 0.389637 -0.044757
vn -0.916130 0.394845 -0.069309
vn -0.893398 0.447665 -0.037884
vn -0.893398 0.447665 -0.037884
vn -0.916130 0.394845 -0.069309
vn -0.893398 0.447665 -0.037884
vn -0.916130 0.394845 -0.069309
vn 0.000023 -0.087166 0.996194
vn 0.000023 -0.087166 0.996194
vn 0.000023 -0.087166 0.996194
vn 0.000023 -0.087166 0.996194
vn 0.000023 -0.087166 0.996194
vn 0.000023 -0.087166 0.996194
vn 0.000023 -0.087166 0.996194
vn 0.000023 -0.087166 0.996194
vn 0.000023 -0.087166 0.996194
vn 0.000023 -0.087166 0.996194
vn 0.000023 -0.087166 0.996194
vn 0.000023 -0.087166 0.996194
vn 0.000023 -0.087166 0.996194
vn 0.000023 -0.087166 0.996194
vn 0.000023 -0.087166 0.996194
vn 0.000023 -0.087166 0.996194
vn 0.000023 -0.087166 0.996194
vn 0.000023 -0.087166 0.996194
vn 0.000023 -0.087166 0.996194
vn 0.000023 -0.087166 0.996194
vn 0.000023 -0.087166 0.996194
vn 0.000023 -0.087166 0.996194
vn 0.000023 -0.087166 0.996194
vn 0.000023 -0.087166 0.996194
vn 0.000023 -0.087166 0.996194
vn 0.000023 -0.087166 0.996194
vn 0.000023 -0.087166 0.996194
vn 0.000023 -0.087166 0.996194
vn 0.000023 -0.087166 0.996194
vn 0.000023 -0.087166 0.996194
vn 0.000023 -0.087166 0.996194
vn 0.000023 -0.087166 0.996194
vn 0.000023 -0.087166 0.996194
vn 0.000023 -0.087166 0.996194
vn 0.000023 -0.087166 0.996194
vn 0.000023 -0.087166 0.996194
vn 0.000023 -0.087166 0.996194
vn 0.000023 -0.087166 0.996194
vn 0.000023 -0.087166 0.996194
vn -0.606419 -0.792119 -0.069302
vn -0.606419 -0.792119 -0.069302
vn -0.705015 -0.706494 -0.061810
vn -0.606419 -0.792119 -0.069302
vn -0.705015 -0.706494 -0.061810
vn -0.705015 -0.706494 -0.061810
vn -0.257395 0.962629 0.084219
vn -0.129744 0.987774 0.086418
vn -0.129744 0.987774 0.086418
vn -0.257395 0.962629 0.084219
vn -0.129744 0.987774 0.086418
vn -0.129744 0.987774 0.086418
vn -0.257395 0.962629 0.084219
vn -0.129744 0.987774 0.086418
vn -0.257395 0.962629 0.084219
vn 0.000031 0.087143 -0.996196
vn 0.000031 0.087143 -0.996196
vn 0.000031 0.087143 -0.996196
vn 0.000031 0.087143 -0.996196
vn 0.000031 0.087143 -0.996196
vn 0.000031 0.087143 -0.996196
vn 0.000031 0.087143 -0.996196
vn 0.000031 0.087143 -0.996196
vn 0.000031 0.087143 -0.996196
vn 0.000031 0.087143 -0.996196
vn 0.000031 0.087143 -0.996196
vn 0.000031 0.087143 -0.996196
vn 0.000031 0.087143 -0.996196
vn 0.000031 0.087143 -0.996196
vn 0.000031 0.087143 -0.996196
vn 0.000031 0.087143 -0.996196
vn 0.000031 0.087143 -0.996196
vn 0.000031 0.087143 -0.996196
vn 0.000031 0.087143 -0.996196
vn 0.000031 0.087143 -0.996196
vn 0.000031 0.087143 -0.996196
vn 0.000031 0.087143 -0.996196
vn 0.000031 0.087143 -0.996196
vn 0.000031 0.087143 -0.996196
vn 0.000031 0.087143 -0.996196
vn 0.000031 0.087143 -0.996196
vn 0.000031 0.087143 -0.996196
vn 0.000031 0.087143 -0.996196
vn 0.000031 0.087143 -0.996196
vn 0.000031 0.087143 -0.996196
vn 0.000031 0.087143 -0.996196
vn 0.000031 0.087143 -0.996196
vn 0.000031 0.087143 -0.996196
vn 0.000031 0.087143 -0.996196
vn 0.000031 0.087143 -0.996196
vn 0.000031 0.087143 -0.996196
vn 0.000031 0.087143 -0.996196
vn 0.000031 0.087143 -0.996196
vn 0.000031 0.087143 -0.996196
vn 0.000031 0.087143 -0.996196
vn 0.000031 0.087143 -0.996196
vn 0.000031 0.087143 -0.996196
vn -0.000024 -0.087149 0.996195
vn -0.000024 -0.087149 0.996195
vn -0.000024 -0.087149 0.996195
vn -0.000024 -0.087149 0.996195
vn -0.000024 -0.087149 0.996195
vn -0.000024 -0.087149 0.996195
vn -0.000024 -0.087149 0.996195
vn -0.000024 -0.087149 0.996195
vn -0.000024 -0.087149 0.996195
vn -0.000024 -0.087149 0.996195
vn -0.000024 -0.087149 0.996195
vn -0.000024 -0.087149 0.996195
vn -0.000024 -0.087149 0.996195
vn -0.000024 -0.087149 0.996195
vn -0.000024 -0.087149 0.996195
vn -0.000024 -0.087149 0.996195
vn -0.000024 -0.087149 0.996195
vn -0.000024 -0.087149 0.996195
vn -0.000024 -0.087149 0.996195
vn -0.000024 -0.087149 0.996195
vn -0.000024 -0.087149 0.996195
vn -0.000024 -0.087149 0.996195
vn -0.000024 -0.087149 0.996195
vn -0.000024 -0.087149 0.996195
vn -0.000024 -0.087149 0.996195
vn -0.000024 -0.087149 0.996195
vn -0.000024 -0.087149 0.996195
vn -0.000024 -0.087149 0.996195
vn -0.000024 -0.087149 0.996195
vn -0.000024 -0.087149 0.996195
vn -0.000024 -0.087149 0.996195
vn -0.000024 -0.087149 0.996195
vn -0.000024 -0.087149 0.996195
vn -0.000024 -0.087149 0.996195
vn -0.000024 -0.087149 0.996195
vn -0.000024 -0.087149 0.996195
vn -0.000024 -0.087149 0.996195
vn -0.000024 -0.087149 0.996195
vn -0.000024 -0.087149 0.996195
vn -0.000024 -0.087149 0.996195
vn -0.000024 -0.087149 0.996195
vn -0.000024 -0.087149 0.996195
vn -0.000024 -0.087149 0.996195
vn -0.000024 -0.087149 0.996195
vn -0.000024 -0.087149 0.996195
vn -0.380691 -0.921184 -0.080594
vn -0.497787 -0.863999 -0.075590
vn -0.497787 -0.863999 -0.075590
vn -0.380691 -0.921184 -0.080594
vn -0.497787 -0.863999 -0.075590
vn -0.380691 -0.921184 -0.080594
vn -0.000001 0.996195 0.087156
vn 0.129742 0.987775 0.086419
vn 0.129742 0.987775 0.086419
vn -0.000001 0.996195 0.087156
vn 0.129742 0.987775 0.086419
vn -0.000001 0.996195 0.087156
vn -0.000015 0.087160 -0.996194
vn -0.000015 0.087160 -0.996194
vn -0.000015 0.087160 -0.996194
vn -0.000015 0.087160 -0.996194
vn -0.000015 0.087160 -0.996194
vn -0.000015 0.087160 -0.996194
vn -0.000015 0.087160 -0.996194
vn -0.000015 0.087160 -0.996194
vn -0.000015 0.087160 -0.996194
vn -0.000015 0.087160 -0.996194
vn -0.000015 0.087160 -0.996194
vn -0.000015 0.087160 -0.996194
vn -0.000015 0.087160 -0.996194
vn -0.000015 0.087160 -0.996194
vn -0.000015 0.087160 -0.996194
vn -0.000015 0.087160 -0.996194
vn -0.000015 0.087160 -0.996194
vn -0.000015 0.087160 -0.996194
vn -0.000015 0.087160 -0.996194
vn -0.000015 0.087160 -0.996194
vn -0.000015 0.087160 -0.996194
vn -0.000015 0.087160 -0.996194
vn -0.000015 0.087160 -0.996194
vn -0.000015 0.087160 -0.996194
vn -0.000015 0.087160 -0.996194
vn -0.000015 0.087160 -0.996194
vn -0.000015 0.087160 -0.996194
vn -0.000015 0.087160 -0.996194
vn -0.000015 0.087160 -0.996194
vn -0.000015 0.087160 -0.996194
vn -0.000015 0.087160 -0.996194
vn -0.000015 0.087160 -0.996194
vn -0.000015 0.087160 -0.996194
vn -0.000015 0.087160 -0.996194
vn -0.000015 0.087160 -0.996194
vn -0.000015 0.087160 -0.996194
vn -0.000015 0.087160 -0.996194
vn -0.000015 0.087160 -0.996194
vn -0.000015 0.087160 -0.996194
vn -0.000015 0.087160 -0.996194
vn -0.000015 0.087160 -0.996194
vn -0.000015 0.087160 -0.996194
vn -0.000015 0.087160 -0.996194
vn -0.000015 0.087160 -0.996194
vn -0.000015 0.087160 -0.996194
vn -0.380691 -0.921184 -0.080594
vn -0.497787 -0.863999 -0.075590
vn -0.497787 -0.863999 -0.075590
vn -0.380691 -0.921184 -0.080594
vn -0.497787 -0.863999 -0.075590
vn -0.380691 -0.921184 -0.080594
vn -0.000001 0.996195 0.087156
vn 0.129742 0.987775 0.086419
vn 0.129742 0.987775 0.086419
vn -0.000001 0.996195 0.087156
vn 0.129742 0.987775 0.086419
vn -0.000001 0.996195 0.087156
vn 0.000031 0.087143 -0.996196
vn 0.000031 0.087143 -0.996196
vn 0.000031 0.087143 -0.996196
vn 0.000031 0.087143 -0.996196
vn 0.000031 0.087143 -0.996196
vn 0.000031 0.087143 -0.996196
vn 0.000031 0.087143 -0.996196
vn 0.000031 0.087143 -0.996196
vn 0.000031 0.087143 -0.996196
vn 0.000031 0.087143 -0.996196
vn 0.000031 0.087143 -0.996196
vn 0.000031 0.087143 -0.996196
vn 0.000031 0.087143 -0.996196
vn 0.000031 0.087143 -0.996196
vn 0.000031 0.087143 -0.996196
vn 0.000031 0.087143 -0.996196
vn 0.000031 0.087143 -0.996196
vn 0.000031 0.087143 -0.996196
vn 0.000031 0.087143 -0.996196
vn 0.000031 0.087143 -0.996196
vn 0.000031 0.087143 -0.996196
vn 0.000031 0.087143 -0.996196
vn 0.000031 0.087143 -0.996196
vn 0.000031 0.087143 -0.996196
vn 0.000031 0.087143 -0.996196
vn 0.000031 0.087143 -0.996196
vn 0.000031 0.087143 -0.996196
vn 0.000031 0.087143 -0.996196
vn 0.000031 0.087143 -0.996196
vn 0.000031 0.087143 -0.996196
vn 0.000031 0.087143 -0.996196
vn 0.000031 0.087143 -0.996196
vn 0.000031 0.087143 -0.996196
vn 0.000031 0.087143 -0.996196
vn 0.000031 0.087143 -0.996196
vn 0.000031 0.087143 -0.996196
vn 0.000031 0.087143 -0.996196
vn 0.000031 0.087143 -0.996196
vn 0.000031 0.087143 -0.996196
vn 0.000031 0.087143 -0.996196
vn 0.000031 0.087143 -0.996196
vn 0.000031 0.087143 -0.996196
vn 0.000031 0.087143 -0.996196
vn 0.000031 0.087143 -0.996196
vn 0.000031 0.087143 -0.996196
vn 0.257395 0.962629 0.084219
vn 0.257395 0.962629 0.084219
vn -0.000001 0.996195 0.087156
vn 0.257395 0.962629 0.084219
vn -0.000001 0.996195 0.087156
vn -0.000001 0.996195 0.087156
vn 0.497787 0.863999 0.075590
vn 0.497787 0.863999 0.075590
vn 0.257395 0.962629 0.084219
vn 0.497787 0.863999 0.075590
vn 0.257395 0.962629 0.084219
vn 0.257395 0.962629 0.084219
vn 0.705015 0.706494 0.061810
vn 0.705015 0.706494 0.061810
vn 0.497787 0.863999 0.075590
vn 0.705015 0.706494 0.061810
vn 0.497787 0.863999 0.075590
vn 0.497787 0.863999 0.075590
vn 0.864742 0.500306 0.043771
vn 0.864742 0.500306 0.043771
vn 0.705015 0.706494 0.061810
vn 0.864742 0.500306 0.043771
vn 0.705015 0.706494 0.061810
vn 0.705015 0.706494 0.061810
vn 0.965542 0.259258 0.022682
vn 0.965542 0.259258 0.022682
vn 0.864742 0.500306 0.043771
vn 0.965542 0.259258 0.022682
vn 0.864742 0.500306 0.043771
vn 0.864742 0.500306 0.043771
vn 1.000000 -0.000000 -0.000000
vn 1.000000 -0.000000 -0.000000
vn 0.965542 0.259258 0.022682
vn 1.000000 -0.000000 -0.000000
vn 0.965542 0.259258 0.022682
vn 0.965542 0.259258 0.022682
vn 0.965542 -0.259259 -0.022682
vn 0.965542 -0.259259 -0.022682
vn 1.000000 -0.000000 -0.000000
vn 0.965542 -0.259259 -0.022682
vn 1.000000 -0.000000 -0.000000
vn 1.000000 -0.000000 -0.000000
vn 0.864742 -0.500306 -0.043771
vn 0.864742 -0.500306 -0.043771
vn 0.965542 -0.259259 -0.022682
vn 0.864742 -0.500306 -0.043771
vn 0.965542 -0.259259 -0.022682
vn 0.965542 -0.259259 -0.022682
vn 0.705015 -0.706494 -0.061810
vn 0.705015 -0.706494 -0.061810
vn 0.864742 -0.500306 -0.043771
vn 0.705015 -0.706494 -0.061810
vn 0.864742 -0.500306 -0.043771
vn 0.864742 -0.500306 -0.043771
vn 0.497788 -0.863998 -0.075591
vn 0.497788 -0.863998 -0.075591
vn 0.705015 -0.706494 -0.061810
vn 0.497788 -0.863998 -0.075591
vn 0.705015 -0.706494 -0.061810
vn 0.705015 -0.706494 -0.061810
vn 0.257395 0.962629 0.084219
vn 0.257395 0.962629 0.084219
vn -0.000001 0.996195 0.087156
vn 0.257395 0.962629 0.084219
vn -0.000001 0.996195 0.087156
vn -0.000001 0.996195 0.087156
vn 0.497787 0.863999 0.075590
vn 0.497787 0.863999 0.075590
vn 0.257395 0.962629 0.084219
vn 0.497787 0.863999 0.075590
vn 0.257395 0.962629 0.084219
vn 0.257395 0.962629 0.084219
vn 0.705015 0.706494 0.061810
vn 0.705015 0.706494 0.061810
vn 0.497787 0.863999 0.075590
vn 0.705015 0.706494 0.061810
vn 0.497787 0.863999 0.075590
vn 0.497787 0.863999 0.075590
vn 0.864742 0.500306 0.043771
vn 0.864742 0.500306 0.043771
vn 0.705015 0.706494 0.061810
vn 0.864742 0.500306 0.043771
vn 0.705015 0.706494 0.061810
vn 0.705015 0.706494 0.061810
vn 0.965542 0.259258 0.022682
vn 0.965542 0.259258 0.022682
vn 0.864742 0.500306 0.043771
vn 0.965542 0.259258 0.022682
vn 0.864742 0.500306 0.043771
vn 0.864742 0.500306 0.043771
vn 1.000000 -0.000000 -0.000000
vn 1.000000 -0.000000 -0.000000
vn 0.965542 0.259258 0.022682
vn 1.000000 -0.000000 -0.000000
vn 0.965542 0.259258 0.022682
vn 0.965542 0.259258 0.022682
vn 0.965542 -0.259259 -0.022682
vn 0.965542 -0.259259 -0.022682
vn 1.000000 -0.000000 -0.000000
vn 0.965542 -0.259259 -0.022682
vn 1.000000 -0.000000 -0.000000
vn 1.000000 -0.000000 -0.000000
vn 0.864742 -0.500306 -0.043771
vn 0.864742 -0.500306 -0.043771
vn 0.965542 -0.259259 -0.022682
vn 0.864742 -0.500306 -0.043771
vn 0.965542 -0.259259 -0.022682
vn 0.965542 -0.259259 -0.022682
vn 0.705015 -0.706494 -0.061810
vn 0.705015 -0.706494 -0.061810
vn 0.864742 -0.500306 -0.043771
vn 0.705015 -0.706494 -0.061810
vn 0.864742 -0.500306 -0.043771
vn 0.864742 -0.500306 -0.043771
vn 0.497788 -0.863998 -0.075591
vn 0.497788 -0.863998 -0.075591
vn 0.705015 -0.706494 -0.061810
vn 0.497788 -0.863998 -0.075591
vn 0.705015 -0.706494 -0.061810
vn 0.705015 -0.706494 -0.061810
vn 0.257395 0.962629 0.084219
vn 0.257395 0.962629 0.084219
vn 0.129742 0.987775 0.086419
vn 0.257395 0.962629 0.084219
vn 0.129742 0.987775 0.086419
vn 0.129742 0.987775 0.086419
vn 0.497787 0.863999 0.075590
vn 0.497787 0.863999 0.075590
vn 0.257395 0.962629 0.084219
vn 0.497787 0.863999 0.075590
vn 0.257395 0.962629 0.084219
vn 0.257395 0.962629 0.084219
vn 0.705015 0.706494 0.061810
vn 0.705015 0.706494 0.061810
vn 0.497787 0.863999 0.075590
vn 0.705015 0.706494 0.061810
vn 0.497787 0.863999 0.075590
vn 0.497787 0.863999 0.075590
vn 0.864742 0.500306 0.043771
vn 0.864742 0.500306 0.043771
vn 0.705015 0.706494 0.061810
vn 0.864742 0.500306 0.043771
vn 0.705015 0.706494 0.061810
vn 0.705015 0.706494 0.061810
vn 0.965542 0.259258 0.022682
vn 0.965542 0.259258 0.022682
vn 0.864742 0.500306 0.043771
vn 0.965542 0.259258 0.022682
vn 0.864742 0.500306 0.043771
vn 0.864742 0.500306 0.043771
vn 1.000000 -0.000000 -0.000000
vn 1.000000 -0.000000 -0.000000
vn 0.965542 0.259258 0.022682
vn 1.000000 -0.000000 -0.000000
vn 0.965542 0.259258 0.022682
vn 0.965542 0.259258 0.022682
vn 0.965542 -0.259259 -0.022682
vn 0.965542 -0.259259 -0.022682
vn 1.000000 -0.000000 -0.000000
vn 0.965542 -0.259259 -0.022682
vn 1.000000 -0.000000 -0.000000
vn 1.000000 -0.000000 -0.000000
vn 0.864742 -0.500306 -0.043771
vn 0.864742 -0.500306 -0.043771
vn 0.965542 -0.259259 -0.022682
vn 0.864742 -0.500306 -0.043771
vn 0.965542 -0.259259 -0.022682
vn 0.965542 -0.259259 -0.022682
vn 0.705015 -0.706494 -0.061810
vn 0.705015 -0.706494 -0.061810
vn 0.864742 -0.500306 -0.043771
vn 0.705015 -0.706494 -0.061810
vn 0.864742 -0.500306 -0.043771
vn 0.864742 -0.500306 -0.043771
vn 0.981716 -0.005112 -0.190286
vn 0.981716 -0.005112 -0.190286
vn 0.970657 -0.126818 -0.204309
vn 0.981716 -0.005112 -0.190286
vn 0.970657 -0.126818 -0.204309
vn 0.970657 -0.126818 -0.204309
vn 0.981716 -0.005112 -0.190286
vn 0.970657 -0.126818 -0.204309
vn 0.981716 0.019337 -0.189368
vn 0.981716 -0.005112 -0.190286
vn 0.981716 0.019337 -0.189368
vn 0.981716 0.019337 -0.189368
vn 0.981716 -0.005112 -0.190286
vn 0.981716 0.019337 -0.189368
vn 0.970657 -0.126818 -0.204309
vn 0.981716 -0.005112 -0.190286
vn 0.970657 -0.126818 -0.204309
vn 0.970657 -0.126818 -0.204309
vn 0.981716 -0.005112 -0.190286
vn 0.970657 -0.126818 -0.204309
vn 0.981305 0.041288 -0.187981
vn 0.981716 -0.005112 -0.190286
vn 0.981305 0.041288 -0.187981
vn 0.981305 0.041288 -0.187981
vn 0.981716 -0.005112 -0.190286
vn 0.981305 0.041288 -0.187981
vn 0.970657 -0.126818 -0.204309
vn 0.981716 -0.005112 -0.190286
vn 0.970657 -0.126818 -0.204309
vn 0.970657 -0.126818 -0.204309
vn 0.981716 -0.005112 -0.190286
vn 0.970657 -0.126818 -0.204309
vn 0.980597 0.066928 -0.184257
vn 0.981716 -0.005112 -0.190286
vn 0.980597 0.066928 -0.184257
vn 0.980597 0.066928 -0.184257
vn 0.981716 -0.005112 -0.190286
vn 0.980597 0.066928 -0.184257
vn 0.931873 -0.303904 -0.198130
vn 0.981716 -0.005112 -0.190286
vn 0.931873 -0.303904 -0.198130
vn 0.931873 -0.303904 -0.198130
vn 0.975650 0.163381 -0.146336
vn 0.981716 -0.005112 -0.190286
vn 0.981716 -0.005112 -0.190286
vn 0.975650 0.163381 -0.146336
vn 0.981716 -0.005112 -0.190286
vn 0.975650 0.163381 -0.146336
vn 0.933054 0.337323 -0.124995
vn 0.980597 0.066928 -0.184257
vn 0.980597 0.066928 -0.184257
vn 0.933054 0.337323 -0.124995
vn 0.980597 0.066928 -0.184257
vn 0.933054 0.337323 -0.124995
vn 0.964373 0.223444 -0.141626
vn 0.981716 0.019337 -0.189368
vn 0.981716 0.019337 -0.189368
vn 0.964373 0.223444 -0.141626
vn 0.981716 0.019337 -0.189368
vn 0.964373 0.223444 -0.141626
vn 0.951831 0.274748 -0.136131
vn 0.951831 0.274748 -0.136131
vn 0.981305 0.041288 -0.187981
vn 0.951831 0.274748 -0.136131
vn 0.981305 0.041288 -0.187981
vn 0.981305 0.041288 -0.187981
vn 0.957821 0.274226 -0.085903
vn 0.975650 0.163381 -0.146336
vn 0.975650 0.163381 -0.146336
vn 0.957821 0.274226 -0.085903
vn 0.975650 0.163381 -0.146336
vn 0.957821 0.274226 -0.085903
vn 0.877773 0.475450 -0.058834
vn 0.933054 0.337323 -0.124995
vn 0.933054 0.337323 -0.124995
vn 0.877773 0.475450 -0.058834
vn 0.933054 0.337323 -0.124995
vn 0.877773 0.475450 -0.058834
vn 0.935279 0.345021 -0.078829
vn 0.935279 0.345021 -0.078829
vn 0.964373 0.223444 -0.141626
vn 0.935279 0.345021 -0.078829
vn 0.964373 0.223444 -0.141626
vn 0.964373 0.223444 -0.141626
vn 0.912964 0.401683 -0.071750
vn 0.951831 0.274748 -0.136131
vn 0.951831 0.274748 -0.136131
vn 0.912964 0.401683 -0.071750
vn 0.951831 0.274748 -0.136131
vn 0.912964 0.401683 -0.071750
vn 0.836305 0.548230 -0.006161
vn 0.957821 0.274226 -0.085903
vn 0.957821 0.274226 -0.085903
vn 0.836305 0.548230 -0.006161
vn 0.957821 0.274226 -0.085903
vn 0.836305 0.548230 -0.006161
vn 0.771350 0.636366 0.007565
vn 0.877773 0.475450 -0.058834
vn 0.877773 0.475450 -0.058834
vn 0.771350 0.636366 0.007565
vn 0.877773 0.475450 -0.058834
vn 0.771350 0.636366 0.007565
vn 0.815115 0.579295 -0.002237
vn 0.935279 0.345021 -0.078829
vn 0.935279 0.345021 -0.078829
vn 0.815115 0.579295 -0.002237
vn 0.935279 0.345021 -0.078829
vn 0.815115 0.579295 -0.002237
vn 0.797375 0.603482 0.001342
vn 0.797375 0.603482 0.001342
vn 0.912964 0.401683 -0.071750
vn 0.797375 0.603482 0.001342
vn 0.912964 0.401683 -0.071750
vn 0.912964 0.401683 -0.071750
vn 0.771350 0.636366 0.007565
vn 0.771350 0.636366 0.007565
vn 0.684734 0.727666 0.040508
vn 0.771350 0.636366 0.007565
vn 0.684734 0.727666 0.040508
vn 0.684734 0.727666 0.040508
vn 0.771350 0.636366 0.007565
vn 0.684734 0.727666 0.040508
vn 0.797375 0.603482 0.001342
vn 0.771350 0.636366 0.007565
vn 0.797375 0.603482 0.001342
vn 0.797375 0.603482 0.001342
vn 0.771350 0.636366 0.007565
vn 0.797375 0.603482 0.001342
vn 0.684734 0.727666 0.040508
vn 0.771350 0.636366 0.007565
vn 0.684734 0.727666 0.040508
vn 0.684734 0.727666 0.040508
vn 0.771350 0.636366 0.007565
vn 0.684734 0.727666 0.040508
vn 0.815115 0.579295 -0.002237
vn 0.771350 0.636366 0.007565
vn 0.815115 0.579295 -0.002237
vn 0.815115 0.579295 -0.002237
vn 0.771350 0.636366 0.007565
vn 0.815115 0.579295 -0.002237
vn 0.684734 0.727666 0.040508
vn 0.771350 0.636366 0.007565
vn 0.684734 0.727666 0.040508
vn 0.684734 0.727666 0.040508
vn 0.771350 0.636366 0.007565
vn 0.684734 0.727666 0.040508
vn 0.836305 0.548230 -0.006161
vn 0.771350 0.636366 0.007565
vn 0.836305 0.548230 -0.006161
vn 0.745444 0.488666 0.453342
vn 0.771350 0.636366 0.007565
vn 0.745444 0.488666 0.453342
vn 0.441699 0.743389 0.502270
vn 0.771350 0.636366 0.007565
vn 0.441699 0.743389 0.502270
vn 0.509652 0.857755 0.067171
vn -0.000023 -0.087166 0.996194
vn -0.000023 -0.087166 0.996194
vn -0.000023 -0.087166 0.996194
vn -0.000023 -0.087166 0.996194
vn -0.000023 -0.087166 0.996194
vn -0.000023 -0.087166 0.996194
vn -0.000023 -0.087166 0.996194
vn -0.000023 -0.087166 0.996194
vn -0.000023 -0.087166 0.996194
vn -0.000023 -0.087166 0.996194
vn -0.000023 -0.087166 0.996194
vn -0.000023 -0.087166 0.996194
vn -0.000023 -0.087166 0.996194
vn -0.000023 -0.087166 0.996194
vn -0.000023 -0.087166 0.996194
vn -0.000023 -0.087166 0.996194
vn -0.000023 -0.087166 0.996194
vn -0.000023 -0.087166 0.996194
vn -0.000023 -0.087166 0.996194
vn -0.000023 -0.087166 0.996194
vn -0.000023 -0.087166 0.996194
vn -0.000023 -0.087166 0.996194
vn -0.000023 -0.087166 0.996194
vn -0.000023 -0.087166 0.996194
vn -0.000023 -0.087166 0.996194
vn -0.000023 -0.087166 0.996194
vn -0.000023 -0.087166 0.996194
vn -0.000023 -0.087166 0.996194
vn -0.000023 -0.087166 0.996194
vn -0.000023 -0.087166 0.996194
vn -0.000023 -0.087166 0.996194
vn -0.000023 -0.087166 0.996194
vn -0.000023 -0.087166 0.996194
vn -0.000023 -0.087166 0.996194
vn -0.000023 -0.087166 0.996194
vn -0.000023 -0.087166 0.996194
vn -0.000023 -0.087166 0.996194
vn -0.000023 -0.087166 0.996194
vn -0.000023 -0.087166 0.996194
vn -0.000023 -0.087166 0.996194
vn -0.000023 -0.087166 0.996194
vn -0.000023 -0.087166 0.996194
vn 0.705015 -0.706494 -0.061810
vn 0.705015 -0.706494 -0.061810
vn 0.606418 -0.792120 -0.069302
vn 0.705015 -0.706494 -0.061810
vn 0.606418 -0.792120 -0.069302
vn 0.606418 -0.792120 -0.069302
vn -0.000030 0.087144 -0.996196
vn -0.000030 0.087144 -0.996196
vn -0.000030 0.087144 -0.996196
vn -0.000030 0.087144 -0.996196
vn -0.000030 0.087144 -0.996196
vn -0.000030 0.087144 -0.996196
vn -0.000030 0.087144 -0.996196
vn -0.000030 0.087144 -0.996196
vn -0.000030 0.087144 -0.996196
vn -0.000030 0.087144 -0.996196
vn -0.000030 0.087144 -0.996196
vn -0.000030 0.087144 -0.996196
vn -0.000030 0.087144 -0.996196
vn -0.000030 0.087144 -0.996196
vn -0.000030 0.087144 -0.996196
vn -0.000030 0.087144 -0.996196
vn -0.000030 0.087144 -0.996196
vn -0.000030 0.087144 -0.996196
vn -0.000030 0.087144 -0.996196
vn -0.000030 0.087144 -0.996196
vn -0.000030 0.087144 -0.996196
vn -0.000030 0.087144 -0.996196
vn -0.000030 0.087144 -0.996196
vn -0.000030 0.087144 -0.996196
vn -0.000030 0.087144 -0.996196
vn -0.000030 0.087144 -0.996196
vn -0.000030 0.087144 -0.996196
vn -0.000030 0.087144 -0.996196
vn -0.000030 0.087144 -0.996196
vn -0.000030 0.087144 -0.996196
vn -0.000030 0.087144 -0.996196
vn -0.000030 0.087144 -0.996196
vn -0.000030 0.087144 -0.996196
vn -0.000030 0.087144 -0.996196
vn -0.000030 0.087144 -0.996196
vn -0.000030 0.087144 -0.996196
vn -0.000030 0.087144 -0.996196
vn -0.000030 0.087144 -0.996196
vn -0.000030 0.087144 -0.996196
vn -0.000030 0.087144 -0.996196
vn -0.000030 0.087144 -0.996196
vn -0.000030 0.087144 -0.996196
vn 0.000023 -0.087149 0.996195
vn 0.000023 -0.087149 0.996195
vn 0.000023 -0.087149 0.996195
vn 0.000023 -0.087149 0.996195
vn 0.000023 -0.087149 0.996195
vn 0.000023 -0.087149 0.996195
vn 0.000023 -0.087149 0.996195
vn 0.000023 -0.087149 0.996195
vn 0.000023 -0.087149 0.996195
vn 0.000023 -0.087149 0.996195
vn 0.000023 -0.087149 0.996195
vn 0.000023 -0.087149 0.996195
vn 0.000023 -0.087149 0.996195
vn 0.000023 -0.087149 0.996195
vn 0.000023 -0.087149 0.996195
vn 0.000023 -0.087149 0.996195
vn 0.000023 -0.087149 0.996195
vn 0.000023 -0.087149 0.996195
vn 0.000023 -0.087149 0.996195
vn 0.000023 -0.087149 0.996195
vn 0.000023 -0.087149 0.996195
vn 0.000023 -0.087149 0.996195
vn 0.000023 -0.087149 0.996195
vn 0.000023 -0.087149 0.996195
vn 0.000023 -0.087149 0.996195
vn 0.000023 -0.087149 0.996195
vn 0.000023 -0.087149 0.996195
vn 0.000023 -0.087149 0.996195
vn 0.000023 -0.087149 0.996195
vn 0.000023 -0.087149 0.996195
vn 0.000023 -0.087149 0.996195
vn 0.000023 -0.087149 0.996195
vn 0.000023 -0.087149 0.996195
vn 0.000023 -0.087149 0.996195
vn 0.000023 -0.087149 0.996195
vn 0.000023 -0.087149 0.996195
vn 0.000023 -0.087149 0.996195
vn 0.000023 -0.087149 0.996195
vn 0.000023 -0.087149 0.996195
vn 0.000023 -0.087149 0.996195
vn 0.000023 -0.087149 0.996195
vn 0.000023 -0.087149 0.996195
vn 0.000023 -0.087149 0.996195
vn 0.000023 -0.087149 0.996195
vn 0.000023 -0.087149 0.996195
vn 0.497788 -0.863998 -0.075591
vn 0.497788 -0.863998 -0.075591
vn 0.380691 -0.921184 -0.080594
vn 0.497788 -0.863998 -0.075591
vn 0.380691 -0.921184 -0.080594
vn 0.380691 -0.921184 -0.080594
vn -0.129744 0.987774 0.086418
vn -0.000001 0.996195 0.087156
vn -0.000001 0.996195 0.087156
vn -0.129744 0.987774 0.086418
vn -0.000001 0.996195 0.087156
vn -0.129744 0.987774 0.086418
vn 0.000014 0.087160 -0.996194
vn 0.000014 0.087160 -0.996194
vn 0.000014 0.087160 -0.996194
vn 0.000014 0.087160 -0.996194
vn 0.000014 0.087160 -0.996194
vn 0.000014 0.087160 -0.996194
vn 0.000014 0.087160 -0.996194
vn 0.000014 0.087160 -0.996194
vn 0.000014 0.087160 -0.996194
vn 0.000014 0.087160 -0.996194
vn 0.000014 0.087160 -0.996194
vn 0.000014 0.087160 -0.996194
vn 0.000014 0.087160 -0.996194
vn 0.000014 0.087160 -0.996194
vn 0.000014 0.087160 -0.996194
vn 0.000014 0.087160 -0.996194
vn 0.000014 0.087160 -0.996194
vn 0.000014 0.087160 -0.996194
vn 0.000014 0.087160 -0.996194
vn 0.000014 0.087160 -0.996194
vn 0.000014 0.087160 -0.996194
vn 0.000014 0.087160 -0.996194
vn 0.000014 0.087160 -0.996194
vn 0.000014 0.087160 -0.996194
vn 0.000014 0.087160 -0.996194
vn 0.000014 0.087160 -0.996194
vn 0.000014 0.087160 -0.996194
vn 0.000014 0.087160 -0.996194
vn 0.000014 0.087160 -0.996194
vn 0.000014 0.087160 -0.996194
vn 0.000014 0.087160 -0.996194
vn 0.000014 0.087160 -0.996194
vn 0.000014 0.087160 -0.996194
vn 0.000014 0.087160 -0.996194
vn 0.000014 0.087160 -0.996194
vn 0.000014 0.087160 -0.996194
vn 0.000014 0.087160 -0.996194
vn 0.000014 0.087160 -0.996194
vn 0.000014 0.087160 -0.996194
vn 0.000014 0.087160 -0.996194
vn 0.000014 0.087160 -0.996194
vn 0.000014 0.087160 -0.996194
vn 0.000014 0.087160 -0.996194
vn 0.000014 0.087160 -0.996194
vn 0.000014 0.087160 -0.996194
vn -0.000023 -0.087166 0.996194
vn -0.000023 -0.087166 0.996194
vn -0.000023 -0.087166 0.996194
vn -0.000023 -0.087166 0.996194
vn -0.000023 -0.087166 0.996194
vn -0.000023 -0.087166 0.996194
vn -0.000023 -0.087166 0.996194
vn -0.000023 -0.087166 0.996194
vn -0.000023 -0.087166 0.996194
vn -0.000023 -0.087166 0.996194
vn -0.000023 -0.087166 0.996194
vn -0.000023 -0.087166 0.996194
vn -0.000023 -0.087166 0.996194
vn -0.000023 -0.087166 0.996194
vn -0.000023 -0.087166 0.996194
vn -0.000023 -0.087166 0.996194
vn -0.000023 -0.087166 0.996194
vn -0.000023 -0.087166 0.996194
vn -0.000023 -0.087166 0.996194
vn -0.000023 -0.087166 0.996194
vn -0.000023 -0.087166 0.996194
vn -0.000023 -0.087166 0.996194
vn -0.000023 -0.087166 0.996194
vn -0.000023 -0.087166 0.996194
vn -0.000023 -0.087166 0.996194
vn -0.000023 -0.087166 0.996194
vn -0.000023 -0.087166 0.996194
vn -0.000023 -0.087166 0.996194
vn -0.000023 -0.087166 0.996194
vn -0.000023 -0.087166 0.996194
vn -0.000023 -0.087166 0.996194
vn -0.000023 -0.087166 0.996194
vn -0.000023 -0.087166 0.996194
vn -0.000023 -0.087166 0.996194
vn -0.000023 -0.087166 0.996194
vn -0.000023 -0.087166 0.996194
vn -0.000023 -0.087166 0.996194
vn -0.000023 -0.087166 0.996194
vn -0.000023 -0.087166 0.996194
vn -0.000023 -0.087166 0.996194
vn -0.000023 -0.087166 0.996194
vn -0.000023 -0.087166 0.996194
vn -0.000023 -0.087166 0.996194
vn -0.000023 -0.087166 0.996194
vn -0.000023 -0.087166 0.996194
vn 0.497788 -0.863998 -0.075591
vn 0.380691 -0.921184 -0.080594
vn 0.380691 -0.921184 -0.080594
vn 0.497788 -0.863998 -0.075591
vn 0.380691 -0.921184 -0.080594
vn 0.497788 -0.863998 -0.075591
vn -0.129744 0.987774 0.086418
vn -0.129744 0.987774 0.086418
vn -0.000001 0.996195 0.087156
vn -0.129744 0.987774 0.086418
vn -0.000001 0.996195 0.087156
vn -0.000001 0.996195 0.087156
vn -0.000030 0.087144 -0.996196
vn -0.000030 0.087144 -0.996196
vn -0.000030 0.087144 -0.996196
vn -0.000030 0.087144 -0.996196
vn -0.000030 0.087144 -0.996196
vn -0.000030 0.087144 -0.996196
vn -0.000030 0.087144 -0.996196
vn -0.000030 0.087144 -0.996196
vn -0.000030 0.087144 -0.996196
vn -0.000030 0.087144 -0.996196
vn -0.000030 0.087144 -0.996196
vn -0.000030 0.087144 -0.996196
vn -0.000030 0.087144 -0.996196
vn -0.000030 0.087144 -0.996196
vn -0.000030 0.087144 -0.996196
vn -0.000030 0.087144 -0.996196
vn -0.000030 0.087144 -0.996196
vn -0.000030 0.087144 -0.996196
vn -0.000030 0.087144 -0.996196
vn -0.000030 0.087144 -0.996196
vn -0.000030 0.087144 -0.996196
vn -0.000030 0.087144 -0.996196
vn -0.000030 0.087144 -0.996196
vn -0.000030 0.087144 -0.996196
vn -0.000030 0.087144 -0.996196
vn -0.000030 0.087144 -0.996196
vn -0.000030 0.087144 -0.996196
vn -0.000030 0.087144 -0.996196
vn -0.000030 0.087144 -0.996196
vn -0.000030 0.087144 -0.996196
vn -0.000030 0.087144 -0.996196
vn -0.000030 0.087144 -0.996196
vn -0.000030 0.087144 -0.996196
vn -0.000030 0.087144 -0.996196
vn -0.000030 0.087144 -0.996196
vn -0.000030 0.087144 -0.996196
vn -0.000030 0.087144 -0.996196
vn -0.000030 0.087144 -0.996196
vn -0.000030 0.087144 -0.996196
vn -0.000030 0.087144 -0.996196
vn -0.000030 0.087144 -0.996196
vn -0.000030 0.087144 -0.996196
vn -0.000030 0.087144 -0.996196
vn -0.000030 0.087144 -0.996196
vn -0.000030 0.087144 -0.996196
vn -0.802237 -0.596608 -0.021767
vn -0.802237 -0.596608 -0.021767
vn -0.802237 -0.596608 -0.021767
vn -0.802237 -0.596608 -0.021767
vn -0.802237 -0.596608 -0.021767
vn -0.802237 -0.596608 -0.021767
vn 0.005496 0.999916 0.011713
vn -0.074318 0.997150 0.012997
vn -0.052213 0.700553 0.711687
vn 0.005496 0.999916 0.011713
vn -0.052213 0.700553 0.711687
vn 0.004890 0.889613 0.456688
vn 0.000055 -0.999980 -0.006311
vn 0.180367 -0.983569 -0.007693
vn 0.180367 -0.983569 -0.007693
vn 0.000055 -0.999980 -0.006311
vn 0.180367 -0.983569 -0.007693
vn 0.000055 -0.999980 -0.006311
vn 0.180367 -0.983569 -0.007693
vn 0.387225 -0.921931 -0.009989
vn 0.387225 -0.921931 -0.009989
vn 0.180367 -0.983569 -0.007693
vn 0.387225 -0.921931 -0.009989
vn 0.180367 -0.983569 -0.007693
vn 0.488414 -0.872545 -0.010836
vn 0.387225 -0.921931 -0.009989
vn 0.387225 -0.921931 -0.009989
vn 0.488414 -0.872545 -0.010836
vn 0.387225 -0.921931 -0.009989
vn 0.488414 -0.872545 -0.010836
vn -0.851992 -0.492304 -0.178175
vn -0.925935 -0.327181 -0.188672
vn -0.925935 -0.327181 -0.188672
vn -0.851992 -0.492304 -0.178175
vn -0.925935 -0.327181 -0.188672
vn -0.851992 -0.492304 -0.178175
vn -0.450536 0.741494 0.497196
vn -0.756140 0.473159 0.452077
vn -0.697009 0.716163 0.035902
vn -0.450536 0.741494 0.497196
vn -0.697009 0.716163 0.035902
vn -0.518365 0.853127 0.058914
vn -0.313180 0.946410 0.078909
vn -0.450536 0.741494 0.497196
vn -0.518365 0.853127 0.058914
vn -0.313180 0.946410 0.078909
vn -0.518365 0.853127 0.058914
vn -0.313180 0.946410 0.078909
vn 0.000128 0.391621 -0.920126
vn 0.000128 0.391621 -0.920126
vn 0.000128 0.391621 -0.920126
vn 0.000128 0.391621 -0.920126
vn 0.000128 0.391621 -0.920126
vn 0.000128 0.391621 -0.920126
vn 0.000128 0.391621 -0.920126
vn 0.000128 0.391621 -0.920126
vn 0.000128 0.391621 -0.920126
vn 0.000128 0.391621 -0.920126
vn 0.000128 0.391621 -0.920126
vn 0.000128 0.391621 -0.920126
vn 0.000128 0.391621 -0.920126
vn 0.000128 0.391621 -0.920126
vn 0.000128 0.391621 -0.920126
vn 0.000128 0.391621 -0.920126
vn 0.000128 0.391621 -0.920126
vn 0.000128 0.391621 -0.920126
vn 0.000128 0.391621 -0.920126
vn 0.000128 0.391621 -0.920126
vn 0.000128 0.391621 -0.920126
vn 0.000128 0.391621 -0.920126
vn 0.000128 0.391621 -0.920126
vn 0.000128 0.391621 -0.920126
vn 0.000128 0.391621 -0.920126
vn 0.000128 0.391621 -0.920126
vn 0.000128 0.391621 -0.920126
vn 0.000128 0.391621 -0.920126
vn 0.000128 0.391621 -0.920126
vn 0.000128 0.391621 -0.920126
vn 0.000128 0.391621 -0.920126
vn 0.000128 0.391621 -0.920126
vn 0.000128 0.391621 -0.920126
vn 0.000128 0.391621 -0.920126
vn 0.000128 0.391621 -0.920126
vn 0.000128 0.391621 -0.920126
vn 0.000128 0.391621 -0.920126
vn 0.000128 0.391621 -0.920126
vn 0.000128 0.391621 -0.920126
vn 0.000128 0.391621 -0.920126
vn 0.000128 0.391621 -0.920126
vn 0.000128 0.391621 -0.920126
vn 0.000128 0.391621 -0.920126
vn 0.000128 0.391621 -0.920126
vn 0.000128 0.391621 -0.920126
vn 0.000128 0.391621 -0.920126
vn 0.000128 0.391621 -0.920126
vn 0.000128 0.391621 -0.920126
vn 0.000128 0.391621 -0.920126
vn 0.000128 0.391621 -0.920126
vn 0.000128 0.391621 -0.920126
vn 0.000128 0.391621 -0.920126
vn 0.000128 0.391621 -0.920126
vn 0.000128 0.391621 -0.920126
vn 0.000128 0.391621 -0.920126
vn 0.000128 0.391621 -0.920126
vn 0.000128 0.391621 -0.920126
vn 0.000128 0.391621 -0.920126
vn 0.000128 0.391621 -0.920126
vn 0.000128 0.391621 -0.920126
vn 0.000128 0.391621 -0.920126
vn 0.000128 0.391621 -0.920126
vn 0.000128 0.391621 -0.920126
vn 0.000128 0.391621 -0.920126
vn 0.000128 0.391621 -0.920126
vn 0.000128 0.391621 -0.920126
vn 0.808814 -0.587050 -0.034528
vn 0.808814 -0.587050 -0.034528
vn 0.808814 -0.587050 -0.034528
vn 0.808814 -0.587050 -0.034528
vn 0.808814 -0.587050 -0.034528
vn 0.808814 -0.587050 -0.034528
vn 0.004890 0.889613 0.456688
vn 0.059989 0.700874 0.710758
vn 0.085276 0.996304 0.010354
vn 0.004890 0.889613 0.456688
vn 0.085276 0.996304 0.010354
vn 0.005496 0.999916 0.011713
vn -0.052213 0.700553 0.711687
vn 0.000000 0.000000 1.000000
vn 0.000000 0.000000 1.000000
vn -0.052213 0.700553 0.711687
vn 0.000000 0.000000 1.000000
vn 0.000000 0.000000 1.000000
vn -0.052213 0.700553 0.711687
vn 0.000000 0.000000 1.000000
vn 0.000000 0.000000 1.000000
vn -0.052213 0.700553 0.711687
vn 0.000000 0.000000 1.000000
vn -0.484244 0.497551 0.719688
vn -0.052213 0.700553 0.711687
vn -0.484244 0.497551 0.719688
vn -0.450536 0.741494 0.497196
vn -0.052213 0.700553 0.711687
vn -0.450536 0.741494 0.497196
vn 0.000000 0.000000 1.000000
vn -0.052213 0.700553 0.711687
vn 0.000000 0.000000 1.000000
vn 0.000000 0.000000 1.000000
vn -0.052213 0.700553 0.711687
vn 0.000000 0.000000 1.000000
vn 0.000000 0.000000 1.000000
vn -0.052213 0.700553 0.711687
vn 0.000000 0.000000 1.000000
vn 0.000000 0.000000 1.000000
vn -0.052213 0.700553 0.711687
vn 0.000000 0.000000 1.000000
vn 0.000000 0.000000 1.000000
vn -0.052213 0.700553 0.711687
vn 0.000000 0.000000 1.000000
vn 0.000000 0.000000 1.000000
vn -0.052213 0.700553 0.711687
vn 0.000000 0.000000 1.000000
vn 0.000000 0.000000 1.000000
vn -0.052213 0.700553 0.711687
vn 0.000000 0.000000 1.000000
vn 0.000000 0.000000 1.000000
vn -0.052213 0.700553 0.711687
vn 0.000000 0.000000 1.000000
vn 0.000000 0.000000 1.000000
vn -0.052213 0.700553 0.711687
vn 0.000000 0.000000 1.000000
vn 0.441699 0.743389 0.502270
vn -0.052213 0.700553 0.711687
vn 0.441699 0.743389 0.502270
vn 0.474662 0.504423 0.721287
vn -0.052213 0.700553 0.711687
vn 0.474662 0.504423 0.721287
vn 0.000000 0.000000 1.000000
vn -0.052213 0.700553 0.711687
vn 0.000000 0.000000 1.000000
vn 0.000000 0.000000 1.000000
vn -0.052213 0.700553 0.711687
vn 0.000000 0.000000 1.000000
vn 0.000000 0.000000 1.000000
vn -0.052213 0.700553 0.711687
vn 0.000000 0.000000 1.000000
vn 0.000000 0.000000 1.000000
vn -0.052213 0.700553 0.711687
vn 0.000000 0.000000 1.000000
vn 0.059989 0.700874 0.710758
vn -0.052213 0.700553 0.711687
vn 0.059989 0.700874 0.710758
vn 0.004890 0.889613 0.456688
vn 0.862428 -0.470991 -0.185433
vn 0.862428 -0.470991 -0.185433
vn 0.931873 -0.303904 -0.198130
vn 0.862428 -0.470991 -0.185433
vn 0.931873 -0.303904 -0.198130
vn 0.931873 -0.303904 -0.198130
vn 0.441699 0.743389 0.502270
vn 0.309960 0.946424 0.090589
vn 0.309960 0.946424 0.090589
vn 0.441699 0.743389 0.502270
vn 0.309960 0.946424 0.090589
vn 0.509652 0.857755 0.067171
vn -0.413495 -0.910427 -0.012062
vn -0.413495 -0.910427 -0.012062
vn -0.327135 -0.944914 -0.010981
vn -0.413495 -0.910427 -0.012062
vn -0.327135 -0.944914 -0.010981
vn -0.327135 -0.944914 -0.010981
vn -0.327135 -0.944914 -0.010981
vn -0.158279 -0.987361 -0.008078
vn -0.158279 -0.987361 -0.008078
vn -0.327135 -0.944914 -0.010981
vn -0.158279 -0.987361 -0.008078
vn -0.327135 -0.944914 -0.010981
vn -0.158279 -0.987361 -0.008078
vn 0.000055 -0.999980 -0.006311
vn 0.000055 -0.999980 -0.006311
vn -0.158279 -0.987361 -0.008078
vn 0.000055 -0.999980 -0.006311
vn -0.158279 -0.987361 -0.008078
f 274/1/1 275/2/2 276/3/3
f 274/4/4 276/5/5 273/6/6
f 275/7/7 277/8/8 278/9/9
f 275/10/10 278/11/11 276/12/12
f 277/13/13 279/14/14 280/15/15
f 277/16/16 280/17/17 278/18/18
f 279/19/19 281/20/20 282/21/21
f 279/22/22 282/23/23 280/24/24
f 281/25/25 283/26/26 284/27/27
f 281/28/28 284/29/29 282/30/30
f 283/31/31 285/32/32 286/33/33
f 283/34/34 286/35/35 284/36/36
f 285/37/37 287/38/38 288/39/39
f 285/40/40 288/41/41 286/42/42
f 287/43/43 289/44/44 290/45/45
f 287/46/46 290/47/47 288/48/48
f 289/49/49 291/50/50 292/51/51
f 289/52/52 292/53/53 290/54/54
f 291/55/55 293/56/56 294/57/57
f 291/58/58 294/59/59 292/60/60
f 296/61/61 297/62/62 298/63/63
f 296/64/64 298/65/65 295/66/66
f 297/67/67 299/68/68 300/69/69
f 297/70/70 300/71/71 298/72/72
f 299/73/73 301/74/74 302/75/75
f 299/76/76 302/77/77 300/78/78
f 301/79/79 303/80/80 304/81/81
f 301/82/82 304/83/83 302/84/84
f 303/85/85 305/86/86 306/87/87
f 303/88/88 306/89/89 304/90/90
f 305/91/91 307/92/92 308/93/93
f 305/94/94 308/95/95 306/96/96
f 307/97/97 309/98/98 310/99/99
f 307/100/100 310/101/101 308/102/102
f 309/103/103 311/104/104 312/105/105
f 309/106/106 312/107/107 310/108/108
f 311/109/109 313/110/110 314/111/111
f 311/112/112 314/113/113 312/114/114
f 313/115/115 315/116/116 316/117/117
f 313/118/118 316/119/119 314/120/120
f 318/121/121 319/122/122 320/123/123
f 318/124/124 320/125/125 317/126/126
f 319/127/127 321/128/128 322/129/129
f 319/130/130 322/131/131 320/132/132
f 321/133/133 323/134/134 324/135/135
f 321/136/136 324/137/137 322/138/138
f 323/139/139 325/140/140 326/141/141
f 323/142/142 326/143/143 324/144/144
f 325/145/145 327/146/146 328/147/147
f 325/148/148 328/149/149 326/150/150
f 327/151/151 329/152/152 330/153/153
f 327/154/154 330/155/155 328/156/156
f 329/157/157 331/158/158 332/159/159
f 329/160/160 332/161/161 330/162/162
f 331/163/163 333/164/164 334/165/165
f 331/166/166 334/167/167 332/168/168
f 14/169/169 13/170/170 212/171/171
f 14/172/172 212/173/173 211/174/174
f 14/175/175 211/176/176 210/177/177
f 14/178/178 210/179/179 209/180/180
f 14/181/181 209/182/182 204/183/183
f 14/184/184 204/185/185 203/186/186
f 14/187/187 203/188/188 202/189/189
f 14/190/190 202/191/191 201/192/192
f 14/193/193 201/194/194 208/195/195
f 14/196/196 208/197/197 207/198/198
f 14/199/199 207/200/200 206/201/201
f 14/202/202 206/203/203 205/204/204
f 14/205/205 205/206/206 36/207/207
f 14/208/208 36/209/209 37/210/210
f 36/211/211 205/212/212 215/213/213
f 36/214/214 215/215/215 35/216/216
f 212/217/217 13/218/218 12/219/219
f 212/220/220 12/221/221 218/222/222
f 201/223/223 213/224/224 216/225/225
f 201/226/226 216/227/227 208/228/228
f 204/229/229 209/230/230 217/231/231
f 204/232/232 217/233/233 214/234/234
f 35/235/235 215/236/236 221/237/237
f 35/238/238 221/239/239 34/240/240
f 218/241/241 12/242/242 11/243/243
f 218/244/244 11/245/245 224/246/246
f 213/247/247 219/248/248 222/249/249
f 213/250/250 222/251/251 216/252/252
f 217/253/253 223/254/254 220/255/255
f 217/256/256 220/257/257 214/258/258
f 34/259/259 221/260/260 227/261/261
f 34/262/262 227/263/263 33/264/264
f 224/265/265 11/266/266 10/267/267
f 224/268/268 10/269/269 230/270/270
f 222/271/271 219/272/272 225/273/273
f 222/274/274 225/275/275 228/276/276
f 223/277/277 229/278/278 226/279/279
f 223/280/280 226/281/281 220/282/282
f 334/283/283 267/284/284 268/285/285
f 334/286/286 268/287/287 269/288/288
f 334/289/289 269/290/290 270/291/291
f 334/292/292 270/293/293 272/294/294
f 334/295/295 272/296/296 271/297/297
f 334/298/298 271/299/299 317/300/300
f 334/301/301 317/302/302 320/303/303
f 334/304/304 320/305/305 322/306/306
f 334/307/307 322/308/308 324/309/309
f 334/310/310 324/311/311 326/312/312
f 334/313/313 326/314/314 328/315/315
f 334/316/316 328/317/317 330/318/318
f 334/319/319 330/320/320 332/321/321
f 266/322/322 265/323/323 334/324/324
f 266/325/325 334/326/326 333/327/327
f 317/328/328 263/329/329 264/330/330
f 317/331/331 264/332/332 335/333/333
f 317/334/334 335/335/335 318/336/336
f 333/337/337 331/338/338 329/339/339
f 333/340/340 329/341/341 327/342/342
f 333/343/343 327/344/344 325/345/345
f 333/346/346 325/347/347 323/348/348
f 333/349/349 323/350/350 321/351/351
f 333/352/352 321/353/353 319/354/354
f 333/355/355 319/356/356 318/357/357
f 333/358/358 318/359/359 335/360/360
f 333/361/361 335/362/362 261/363/363
f 333/364/364 261/365/365 262/366/366
f 333/367/367 262/368/368 260/369/369
f 333/370/370 260/371/371 259/372/372
f 333/373/373 259/374/374 258/375/375
f 333/376/376 258/377/377 257/378/378
f 252/379/379 253/380/380 254/381/381
f 252/382/382 254/383/383 256/384/384
f 252/385/385 256/386/386 255/387/387
f 252/388/388 255/389/389 295/390/390
f 252/391/391 295/392/392 298/393/393
f 252/394/394 298/395/395 300/396/396
f 252/397/397 300/398/398 302/399/399
f 252/400/400 302/401/401 304/402/402
f 252/403/403 304/404/404 306/405/405
f 252/406/406 306/407/407 308/408/408
f 252/409/409 308/410/410 310/411/411
f 252/412/412 310/413/413 312/414/414
f 252/415/415 312/416/416 314/417/417
f 252/418/418 314/419/419 316/420/420
f 252/421/421 316/422/422 251/423/423
f 249/424/424 316/425/425 315/426/426
f 249/427/427 315/428/428 250/429/429
f 295/430/430 247/431/431 248/432/432
f 295/433/433 248/434/434 296/435/435
f 315/436/436 313/437/437 311/438/438
f 315/439/439 311/440/440 309/441/441
f 315/442/442 309/443/443 307/444/444
f 315/445/445 307/446/446 305/447/447
f 315/448/448 305/449/449 303/450/450
f 315/451/451 303/452/452 301/453/453
f 315/454/454 301/455/455 299/456/456
f 315/457/457 299/458/458 297/459/459
f 315/460/460 297/461/461 296/462/462
f 315/463/463 296/464/464 245/465/465
f 315/466/466 245/467/467 246/468/468
f 315/469/469 246/470/470 244/471/471
f 315/472/472 244/473/473 243/474/474
f 315/475/475 243/476/476 242/477/477
f 315/478/478 242/479/479 241/480/480
f 239/481/481 294/482/482 293/483/483
f 239/484/484 293/485/485 240/486/486
f 273/487/487 237/488/488 238/489/489
f 273/490/490 238/491/491 274/492/492
f 293/493/493 291/494/494 289/495/495
f 293/496/496 289/497/497 287/498/498
f 293/499/499 287/500/500 285/501/501
f 293/502/502 285/503/503 283/504/504
f 293/505/505 283/506/506 281/507/507
f 293/508/508 281/509/509 279/510/510
f 293/511/511 279/512/512 277/513/513
f 293/514/514 277/515/515 275/516/516
f 293/517/517 275/518/518 274/519/519
f 293/520/520 274/521/521 235/522/522
f 293/523/523 235/524/524 236/525/525
f 293/526/526 236/527/527 234/528/528
f 293/529/529 234/530/530 233/531/531
f 293/532/532 233/533/533 232/534/534
f 293/535/535 232/536/536 231/537/537
f 138/538/538 139/539/539 140/540/540
f 138/541/541 140/542/542 137/543/543
f 141/544/544 142/545/545 139/546/546
f 141/547/547 139/548/548 138/549/549
f 143/550/550 144/551/551 142/552/552
f 143/553/553 142/554/554 141/555/555
f 145/556/556 146/557/557 144/558/558
f 145/559/559 144/560/560 143/561/561
f 147/562/562 148/563/563 146/564/564
f 147/565/565 146/566/566 145/567/567
f 149/568/568 150/569/569 148/570/570
f 149/571/571 148/572/572 147/573/573
f 151/574/574 152/575/575 150/576/576
f 151/577/577 150/578/578 149/579/579
f 153/580/580 154/581/581 152/582/582
f 153/583/583 152/584/584 151/585/585
f 155/586/586 156/587/587 154/588/588
f 155/589/589 154/590/590 153/591/591
f 157/592/592 158/593/593 156/594/594
f 157/595/595 156/596/596 155/597/597
f 160/598/598 161/599/599 162/600/600
f 160/601/601 162/602/602 159/603/603
f 163/604/604 164/605/605 161/606/606
f 163/607/607 161/608/608 160/609/609
f 165/610/610 166/611/611 164/612/612
f 165/613/613 164/614/614 163/615/615
f 167/616/616 168/617/617 166/618/618
f 167/619/619 166/620/620 165/621/621
f 169/622/622 170/623/623 168/624/624
f 169/625/625 168/626/626 167/627/627
f 171/628/628 172/629/629 170/630/630
f 171/631/631 170/632/632 169/633/633
f 173/634/634 174/635/635 172/636/636
f 173/637/637 172/638/638 171/639/639
f 175/640/640 176/641/641 174/642/642
f 175/643/643 174/644/644 173/645/645
f 177/646/646 178/647/647 176/648/648
f 177/649/649 176/650/650 175/651/651
f 179/652/652 180/653/653 178/654/654
f 179/655/655 178/656/656 177/657/657
f 182/658/658 183/659/659 184/660/660
f 182/661/661 184/662/662 181/663/663
f 185/664/664 186/665/665 183/666/666
f 185/667/667 183/668/668 182/669/669
f 187/670/670 188/671/671 186/672/672
f 187/673/673 186/674/674 185/675/675
f 189/676/676 190/677/677 188/678/678
f 189/679/679 188/680/680 187/681/681
f 191/682/682 192/683/683 190/684/684
f 191/685/685 190/686/686 189/687/687
f 193/688/688 194/689/689 192/690/690
f 193/691/691 192/692/692 191/693/693
f 195/694/694 196/695/695 194/696/696
f 195/697/697 194/698/698 193/699/699
f 197/700/700 198/701/701 196/702/702
f 197/703/703 196/704/704 195/705/705
f 199/706/706 200/707/707 198/708/708
f 199/709/709 198/710/710 197/711/711
f 47/712/712 59/713/713 60/714/714
f 47/715/715 60/716/716 61/717/717
f 47/718/718 61/719/719 62/720/720
f 47/721/721 62/722/722 55/723/723
f 47/724/724 55/725/725 56/726/726
f 47/727/727 56/728/728 57/729/729
f 47/730/730 57/731/731 58/732/732
f 47/733/733 58/734/734 63/735/735
f 47/736/736 63/737/737 64/738/738
f 47/739/739 64/740/740 65/741/741
f 47/742/742 65/743/743 66/744/744
f 47/745/745 66/746/746 26/747/747
f 47/748/748 26/749/749 27/750/750
f 47/751/751 27/752/752 48/753/753
f 69/754/754 59/755/755 47/756/756
f 69/757/757 47/758/758 46/759/759
f 25/760/760 26/761/761 66/762/762
f 25/763/763 66/764/764 72/765/765
f 67/766/766 55/767/767 62/768/768
f 67/769/769 62/770/770 70/771/771
f 68/772/772 71/773/773 63/774/774
f 68/775/775 63/776/776 58/777/777
f 75/778/778 69/779/779 46/780/780
f 75/781/781 46/782/782 45/783/783
f 24/784/784 25/785/785 72/786/786
f 24/787/787 72/788/788 78/789/789
f 76/790/790 73/791/791 67/792/792
f 76/793/793 67/794/794 70/795/795
f 77/796/796 71/797/797 68/798/798
f 77/799/799 68/800/800 74/801/801
f 81/802/802 75/803/803 45/804/804
f 81/805/805 45/806/806 44/807/807
f 23/808/808 24/809/809 78/810/810
f 23/811/811 78/812/812 84/813/813
f 79/814/814 73/815/815 76/816/816
f 79/817/817 76/818/818 82/819/819
f 80/820/820 83/821/821 77/822/822
f 80/823/823 77/824/824 74/825/825
f 23/826/826 84/827/827 90/828/828
f 23/829/829 90/830/830 89/831/831
f 23/832/832 89/833/833 83/834/834
f 23/835/835 83/836/836 80/837/837
f 23/838/838 80/839/839 86/840/840
f 23/841/841 86/842/842 85/843/843
f 23/844/844 85/845/845 79/846/846
f 23/847/847 79/848/848 82/849/849
f 23/850/850 82/851/851 88/852/852
f 23/853/853 88/854/854 87/855/855
f 23/856/856 87/857/857 81/858/858
f 23/859/859 81/860/860 44/861/861
f 23/862/862 44/863/863 43/864/864
f 23/865/865 43/866/866 22/867/867
f 199/868/868 197/869/869 195/870/870
f 199/871/871 195/872/872 193/873/873
f 199/874/874 193/875/875 191/876/876
f 199/877/877 191/878/878 189/879/879
f 199/880/880 189/881/881 187/882/882
f 199/883/883 187/884/884 185/885/885
f 199/886/886 185/887/887 182/888/888
f 199/889/889 182/890/890 181/891/891
f 199/892/892 181/893/893 136/894/894
f 199/895/895 136/896/896 135/897/897
f 199/898/898 135/899/899 134/900/900
f 199/901/901 134/902/902 133/903/903
f 199/904/904 133/905/905 132/906/906
f 199/907/907 132/908/908 131/909/909
f 200/910/910 199/911/911 129/912/912
f 200/913/913 129/914/914 130/915/915
f 124/916/916 125/917/917 126/918/918
f 124/919/919 126/920/920 127/921/921
f 124/922/922 127/923/923 128/924/924
f 124/925/925 128/926/926 184/927/927
f 124/928/928 184/929/929 183/930/930
f 124/931/931 183/932/932 186/933/933
f 124/934/934 186/935/935 188/936/936
f 124/937/937 188/938/938 190/939/939
f 124/940/940 190/941/941 192/942/942
f 124/943/943 192/944/944 194/945/945
f 124/946/946 194/947/947 196/948/948
f 124/949/949 196/950/950 198/951/951
f 124/952/952 198/953/953 200/954/954
f 124/955/955 200/956/956 123/957/957
f 179/958/958 177/959/959 175/960/960
f 179/961/961 175/962/962 173/963/963
f 179/964/964 173/965/965 171/966/966
f 179/967/967 171/968/968 169/969/969
f 179/970/970 169/971/971 167/972/972
f 179/973/973 167/974/974 165/975/975
f 179/976/976 165/977/977 163/978/978
f 179/979/979 163/980/980 160/981/981
f 179/982/982 160/983/983 159/984/984
f 179/985/985 159/986/986 122/987/987
f 179/988/988 122/989/989 121/990/990
f 179/991/991 121/992/992 120/993/993
f 179/994/994 120/995/995 119/996/996
f 179/997/997 119/998/998 118/999/999
f 179/1000/1000 118/1001/1001 117/1002/1002
f 180/1003/1003 179/1004/1004 115/1005/1005
f 180/1006/1006 115/1007/1007 116/1008/1008
f 113/1009/1009 159/1010/1010 162/1011/1011
f 113/1012/1012 162/1013/1013 114/1014/1014
f 108/1015/1015 109/1016/1016 110/1017/1017
f 108/1018/1018 110/1019/1019 111/1020/1020
f 108/1021/1021 111/1022/1022 112/1023/1023
f 108/1024/1024 112/1025/1025 162/1026/1026
f 108/1027/1027 162/1028/1028 161/1029/1029
f 108/1030/1030 161/1031/1031 164/1032/1032
f 108/1033/1033 164/1034/1034 166/1035/1035
f 108/1036/1036 166/1037/1037 168/1038/1038
f 108/1039/1039 168/1040/1040 170/1041/1041
f 108/1042/1042 170/1043/1043 172/1044/1044
f 108/1045/1045 172/1046/1046 174/1047/1047
f 108/1048/1048 174/1049/1049 176/1050/1050
f 108/1051/1051 176/1052/1052 178/1053/1053
f 108/1054/1054 178/1055/1055 180/1056/1056
f 108/1057/1057 180/1058/1058 107/1059/1059
f 137/1060/1060 106/1061/1061 105/1062/1062
f 137/1063/1063 105/1064/1064 104/1065/1065
f 137/1066/1066 104/1067/1067 103/1068/1068
f 137/1069/1069 103/1070/1070 102/1071/1071
f 137/1072/1072 102/1073/1073 101/1074/1074
f 137/1075/1075 101/1076/1076 157/1077/1077
f 137/1078/1078 157/1079/1079 155/1080/1080
f 137/1081/1081 155/1082/1082 153/1083/1083
f 137/1084/1084 153/1085/1085 151/1086/1086
f 137/1087/1087 151/1088/1088 149/1089/1089
f 137/1090/1090 149/1091/1091 147/1092/1092
f 137/1093/1093 147/1094/1094 145/1095/1095
f 137/1096/1096 145/1097/1097 143/1098/1098
f 137/1099/1099 143/1100/1100 141/1101/1101
f 137/1102/1102 141/1103/1103 138/1104/1104
f 157/1105/1105 99/1106/1106 100/1107/1107
f 157/1108/1108 100/1109/1109 158/1110/1110
f 98/1111/1111 97/1112/1112 137/1113/1113
f 98/1114/1114 137/1115/1115 140/1116/1116
f 92/1117/1117 93/1118/1118 94/1119/1119
f 92/1120/1120 94/1121/1121 95/1122/1122
f 92/1123/1123 95/1124/1124 96/1125/1125
f 92/1126/1126 96/1127/1127 140/1128/1128
f 92/1129/1129 140/1130/1130 139/1131/1131
f 92/1132/1132 139/1133/1133 142/1134/1134
f 92/1135/1135 142/1136/1136 144/1137/1137
f 92/1138/1138 144/1139/1139 146/1140/1140
f 92/1141/1141 146/1142/1142 148/1143/1143
f 92/1144/1144 148/1145/1145 150/1146/1146
f 92/1147/1147 150/1148/1148 152/1149/1149
f 92/1150/1150 152/1151/1151 154/1152/1152
f 92/1153/1153 154/1154/1154 156/1155/1155
f 92/1156/1156 156/1157/1157 158/1158/1158
f 92/1159/1159 158/1160/1160 91/1161/1161
f 4/1162/1162 6/1163/1163 5/1164/1164
f 4/1165/1165 5/1166/1166 3/1167/1167
f 1/1168/1168 8/1169/1169 7/1170/1170
f 1/1171/1171 7/1172/1172 2/1173/1173
f 39/1174/1174 42/1175/1175 20/1176/1176
f 39/1177/1177 20/1178/1178 16/1179/1179
f 42/1180/1180 41/1181/1181 19/1182/1182
f 42/1183/1183 19/1184/1184 20/1185/1185
f 6/1186/1186 19/1187/1187 41/1188/1188
f 6/1189/1189 41/1190/1190 5/1191/1191
f 8/1192/1192 14/1193/1193 37/1194/1194
f 8/1195/1195 37/1196/1196 7/1197/1197
f 32/1198/1198 33/1199/1199 10/1200/1200
f 32/1201/1201 10/1202/1202 9/1203/1203
f 3/1204/1204 32/1205/1205 9/1206/1206
f 3/1207/1207 9/1208/1208 4/1209/1209
f 28/1210/1210 27/1211/1211 26/1212/1212
f 28/1213/1213 26/1214/1214 25/1215/1215
f 28/1216/1216 25/1217/1217 24/1218/1218
f 28/1219/1219 24/1220/1220 23/1221/1221
f 28/1222/1222 23/1223/1223 22/1224/1224
f 28/1225/1225 22/1226/1226 21/1227/1227
f 28/1228/1228 21/1229/1229 18/1230/1230
f 28/1231/1231 18/1232/1232 17/1233/1233
f 28/1234/1234 17/1235/1235 15/1236/1236
f 28/1237/1237 15/1238/1238 16/1239/1239
f 28/1240/1240 16/1241/1241 20/1242/1242
f 28/1243/1243 20/1244/1244 19/1245/1245
f 28/1246/1246 19/1247/1247 6/1248/1248
f 28/1249/1249 6/1250/1250 4/1251/1251
f 28/1252/1252 4/1253/1253 9/1254/1254
f 28/1255/1255 9/1256/1256 10/1257/1257
f 28/1258/1258 10/1259/1259 11/1260/1260
f 28/1261/1261 11/1262/1262 12/1263/1263
f 28/1264/1264 12/1265/1265 13/1266/1266
f 28/1267/1267 13/1268/1268 14/1269/1269
f 28/1270/1270 14/1271/1271 8/1272/1272
f 28/1273/1273 8/1274/1274 1/1275/1275
f 18/1276/1276 21/1277/1277 30/1278/1278
f 18/1279/1279 30/1280/1280 29/1281/1281
f 2/1282/1282 31/1283/1283 28/1284/1284
f 2/1285/1285 28/1286/1286 1/1287/1287
f 7/1288/1288 37/1289/1289 36/1290/1290
f 7/1291/1291 36/1292/1292 35/1293/1293
f 7/1294/1294 35/1295/1295 34/1296/1296
f 7/1297/1297 34/1298/1298 33/1299/1299
f 7/1300/1300 33/1301/1301 32/1302/1302
f 7/1303/1303 32/1304/1304 3/1305/1305
f 7/1306/1306 3/1307/1307 5/1308/1308
f 7/1309/1309 5/1310/1310 41/1311/1311
f 7/1312/1312 41/1313/1313 42/1314/1314
f 7/1315/1315 42/1316/1316 39/1317/1317
f 7/1318/1318 39/1319/1319 38/1320/1320
f 7/1321/1321 38/1322/1322 40/1323/1323
f 7/1324/1324 40/1325/1325 29/1326/1326
f 7/1327/1327 29/1328/1328 30/1329/1329
f 7/1330/1330 30/1331/1331 43/1332/1332
f 7/1333/1333 43/1334/1334 44/1335/1335
f 7/1336/1336 44/1337/1337 45/1338/1338
f 7/1339/1339 45/1340/1340 46/1341/1341
f 7/1342/1342 46/1343/1343 47/1344/1344
f 7/1345/1345 47/1346/1346 48/1347/1347
f 7/1348/1348 48/1349/1349 31/1350/1350
f 7/1351/1351 31/1352/1352 2/1353/1353
f 28/1354/1354 31/1355/1355 48/1356/1356
f 28/1357/1357 48/1358/1358 27/1359/1359
f 43/1360/1360 30/1361/1361 21/1362/1362
f 43/1363/1363 21/1364/1364 22/1365/1365
f 53/1366/1366 54/1367/1367 52/1368/1368
f 53/1369/1369 52/1370/1370 51/1371/1371
f 52/1372/1372 50/1373/1373 49/1374/1374
f 52/1375/1375 49/1376/1376 51/1377/1377
f 50/1378/1378 39/1379/1379 16/1380/1380
f 50/1381/1381 16/1382/1382 49/1383/1383
