v -1.043323 -0.532090 -3.884071
v -1.043323 -0.532090 5.714286
v -1.043323 0.425207 -3.884071
v -1.043323 0.425207 5.714286
v 1.043323 -0.532090 -3.884071
v 1.043323 -0.532090 5.714286
v 1.043323 0.425207 -3.884071
v 1.043323 0.425207 5.714286
v 1.043323 1.168359 0.214286
v 1.043323 1.168359 -1.285714
v -1.043323 1.168359 0.214286
v -1.043323 1.168359 -1.285714
v -1.043323 1.031831 1.214286
v 1.043323 1.031831 1.214286
v -1.043323 -1.032090 0.214286
v 1.043323 -1.032090 0.214286
v 1.043323 -1.032090 1.214286
v -1.043323 -1.032090 1.214286
v -1.043323 -1.032090 -1.285714
v 1.043323 -1.032090 -1.285714
v 1.043323 1.096831 -2.285714
v -1.043323 1.096831 -2.285714
v -1.043323 -1.032090 -2.285714
v 1.043323 -1.032090 -2.285714
v -1.043323 0.011399 5.964286
v 1.043323 0.011399 5.964286
v 1.043323 0.011399 -4.134072
v -1.043323 0.011399 -4.134072
vt 0.000000 0.000000
vt 0.000000 0.000000
vt 0.000000 0.000000
vt 0.000000 0.000000
vt 0.000000 0.000000
vt 0.000000 0.000000
vt 0.000000 0.000000
vt 0.000000 0.000000
vt 0.000000 0.000000
vt 0.000000 0.000000
vt 0.000000 0.000000
vt 0.000000 0.000000
vt 0.000000 0.000000
vt 0.000000 0.000000
vt 0.000000 0.000000
vt 0.000000 0.000000
vt 0.000000 0.000000
vt 0.000000 0.000000
vt 0.000000 0.000000
vt 0.000000 0.000000
vt 0.000000 0.000000
vt 0.000000 0.000000
vt 0.000000 0.000000
vt 0.000000 0.000000
vt 0.000000 0.000000
vt 0.000000 0.000000
vt 0.000000 0.000000
vt 0.000000 0.000000
vt 0.000000 0.000000
vt 0.000000 0.000000
vt 0.000000 0.000000
vt 0.000000 0.000000
vt 0.000000 0.000000
vt 0.000000 0.000000
vt 0.000000 0.000000
vt 0.000000 0.000000
vt 0.000000 0.000000
vt 0.000000 0.000000
vt 0.000000 0.000000
vt 0.000000 0.000000
vt 0.000000 0.000000
vt 0.000000 0.000000
vt 0.000000 0.000000
vt 0.000000 0.000000
vt 0.000000 0.000000
vt 0.000000 0.000000
vt 0.000000 0.000000
vt 0.000000 0.000000
vt 0.000000 0.000000
vt 0.000000 0.000000
vt 0.000000 0.000000
vt 0.000000 0.000000
vt 0.000000 0.000000
vt 0.000000 0.000000
vt 0.000000 0.000000
vt 0.000000 0.000000
vt 0.000000 0.000000
vt 0.000000 0.000000
vt 0.000000 0.000000
vt 0.000000 0.000000
vt 0.000000 0.000000
vt 0.000000 0.000000
vt 0.000000 0.000000
vt 0.000000 0.000000
vt 0.000000 0.000000
vt 0.000000 0.000000
vt 0.000000 0.000000
vt 0.000000 0.000000
vt 0.000000 0.000000
vt 0.000000 0.000000
vt 0.000000 0.000000
vt 0.000000 0.000000
vt 0.000000 0.000000
vt 0.000000 0.000000
vt 0.000000 0.000000
vt 0.000000 0.000000
vt 0.000000 0.000000
vt 0.000000 0.000000
vt 0.000000 0.000000
vt 0.000000 0.000000
vt 0.000000 0.000000
vt 0.000000 0.000000
vt 0.000000 0.000000
vt 0.000000 0.000000
vt 0.000000 0.000000
vt 0.000000 0.000000
vt 0.000000 0.000000
vt 0.000000 0.000000
vt 0.000000 0.000000
vt 0.000000 0.000000
vt 0.000000 0.000000
vt 0.000000 0.000000
vt 0.000000 0.000000
vt 0.000000 0.000000
vt 0.000000 0.000000
vt 0.000000 0.000000
vt 0.000000 0.000000
vt 0.000000 0.000000
vt 0.000000 0.000000
vt 0.000000 0.000000
vt 0.000000 0.000000
vt 0.000000 0.000000
vt 0.000000 0.000000
vt 0.000000 0.000000
vt 0.000000 0.000000
vt 0.000000 0.000000
vt 0.000000 0.000000
vt 0.000000 0.000000
vt 0.000000 0.000000
vt 0.000000 0.000000
vt 0.000000 0.000000
vt 0.000000 0.000000
vt 0.000000 0.000000
vt 0.000000 0.000000
vt 0.000000 0.000000
vt 0.000000 0.000000
vt 0.000000 0.000000
vt 0.000000 0.000000
vt 0.000000 0.000000
vt 0.000000 0.000000
vt 0.000000 0.000000
vt 0.000000 0.000000
vt 0.000000 0.000000
vt 0.000000 0.000000
vt 0.000000 0.000000
vt 0.000000 0.000000
vt 0.000000 0.000000
vt 0.000000 0.000000
vt 0.000000 0.000000
vt 0.000000 0.000000
vt 0.000000 0.000000
vt 0.000000 0.000000
vt 0.000000 0.000000
vt 0.000000 0.000000
vt 0.000000 0.000000
vt 0.000000 0.000000
vt 0.000000 0.000000
vt 0.000000 0.000000
vt 0.000000 0.000000
vt 0.000000 0.000000
vt 0.000000 0.000000
vt 0.000000 0.000000
vt 0.000000 0.000000
vt 0.000000 0.000000
vt 0.000000 0.000000
vt 0.000000 0.000000
vt 0.000000 0.000000
vt 0.000000 0.000000
vt 0.000000 0.000000
vt 0.000000 0.000000
vt 0.000000 0.000000
vt 0.000000 0.000000
vt 0.000000 0.000000
vt 0.000000 0.000000
vt 0.000000 0.000000
vt 0.000000 0.000000
vn -1.000000 0.000000 0.000000
vn -1.000000 0.000000 0.000000
vn -1.000000 0.000000 0.000000
vn -1.000000 0.000000 0.000000
vn -1.000000 0.000000 0.000000
vn -1.000000 0.000000 0.000000
vn -1.000000 0.000000 0.000000
vn -1.000000 0.000000 0.000000
vn -1.000000 0.000000 0.000000
vn 0.000000 0.056136 0.998423
vn 0.000000 0.836098 0.548581
vn 0.000000 0.836098 0.548581
vn 0.000000 0.056136 0.998423
vn 0.000000 0.836098 0.548581
vn 0.000000 0.056136 0.998423
vn 1.000000 0.000000 0.000000
vn 1.000000 0.000000 0.000000
vn 1.000000 0.000000 0.000000
vn 1.000000 0.000000 0.000000
vn 1.000000 0.000000 0.000000
vn 1.000000 0.000000 0.000000
vn 1.000000 0.000000 0.000000
vn 1.000000 0.000000 0.000000
vn 1.000000 0.000000 0.000000
vn -0.000000 0.056136 -0.998423
vn 0.000000 0.756688 -0.653776
vn 0.000000 0.756688 -0.653776
vn -0.000000 0.056136 -0.998423
vn 0.000000 0.756688 -0.653776
vn -0.000000 0.056136 -0.998423
vn 0.000000 -0.998470 0.055300
vn 0.000000 -0.810869 0.585228
vn 0.000000 -0.810869 0.585228
vn 0.000000 -0.998470 0.055300
vn 0.000000 -0.810869 0.585228
vn 0.000000 -0.998470 0.055300
vn 0.000000 0.990922 0.134435
vn 0.000000 0.836098 0.548581
vn 0.000000 0.836098 0.548581
vn 0.000000 0.990922 0.134435
vn 0.000000 0.836098 0.548581
vn 0.000000 0.990922 0.134435
vn 0.000000 0.972607 -0.232455
vn 0.000000 0.756688 -0.653776
vn 0.000000 0.756688 -0.653776
vn 0.000000 0.972607 -0.232455
vn 0.000000 0.756688 -0.653776
vn 0.000000 0.972607 -0.232455
vn 0.000000 0.990922 0.134435
vn 0.000000 0.997699 0.067793
vn 0.000000 0.997699 0.067793
vn 0.000000 0.990922 0.134435
vn 0.000000 0.997699 0.067793
vn 0.000000 0.990922 0.134435
vn 0.000000 -0.988532 -0.151009
vn 0.000000 -0.750868 -0.660452
vn 0.000000 -0.750868 -0.660452
vn 0.000000 -0.988532 -0.151009
vn 0.000000 -0.750868 -0.660452
vn 0.000000 -0.988532 -0.151009
vn -1.000000 0.000000 0.000000
vn -1.000000 0.000000 0.000000
vn -1.000000 0.000000 0.000000
vn -1.000000 0.000000 0.000000
vn -1.000000 0.000000 0.000000
vn -1.000000 0.000000 0.000000
vn -1.000000 0.000000 0.000000
vn -1.000000 0.000000 0.000000
vn -1.000000 0.000000 0.000000
vn 0.000000 0.999363 -0.035695
vn 0.000000 0.997699 0.067793
vn 0.000000 0.997699 0.067793
vn 0.000000 0.999363 -0.035695
vn 0.000000 0.997699 0.067793
vn 0.000000 0.999363 -0.035695
vn 1.000000 0.000000 0.000000
vn 1.000000 0.000000 0.000000
vn 1.000000 0.000000 0.000000
vn 1.000000 0.000000 0.000000
vn 1.000000 0.000000 0.000000
vn 1.000000 0.000000 0.000000
vn 1.000000 0.000000 0.000000
vn 1.000000 0.000000 0.000000
vn 1.000000 0.000000 0.000000
vn 1.000000 0.000000 0.000000
vn 1.000000 0.000000 0.000000
vn 1.000000 0.000000 0.000000
vn 1.000000 0.000000 0.000000
vn 1.000000 0.000000 0.000000
vn 1.000000 0.000000 0.000000
vn -1.000000 0.000000 0.000000
vn -1.000000 0.000000 0.000000
vn -1.000000 0.000000 0.000000
vn -1.000000 0.000000 0.000000
vn -1.000000 0.000000 0.000000
vn -1.000000 0.000000 0.000000
vn 0.000000 -1.000000 0.000000
vn 0.000000 -1.000000 0.000000
vn 0.000000 -1.000000 0.000000
vn 0.000000 -1.000000 0.000000
vn 0.000000 -1.000000 0.000000
vn 0.000000 -1.000000 0.000000
vn 1.000000 0.000000 0.000000
vn 1.000000 0.000000 0.000000
vn 1.000000 0.000000 0.000000
vn 1.000000 0.000000 0.000000
vn 1.000000 0.000000 0.000000
vn 1.000000 0.000000 0.000000
vn -1.000000 0.000000 0.000000
vn -1.000000 0.000000 0.000000
vn -1.000000 0.000000 0.000000
vn -1.000000 0.000000 0.000000
vn -1.000000 0.000000 0.000000
vn -1.000000 0.000000 0.000000
vn 0.000000 -0.998470 0.055300
vn 0.000000 -1.000000 0.000000
vn 0.000000 -1.000000 0.000000
vn 0.000000 -0.998470 0.055300
vn 0.000000 -1.000000 0.000000
vn 0.000000 -0.998470 0.055300
vn 0.000000 -0.988532 -0.151009
vn 0.000000 -1.000000 0.000000
vn 0.000000 -1.000000 0.000000
vn 0.000000 -0.988532 -0.151009
vn 0.000000 -1.000000 0.000000
vn 0.000000 -0.988532 -0.151009
vn -1.000000 0.000000 0.000000
vn -1.000000 0.000000 0.000000
vn -1.000000 0.000000 0.000000
vn -1.000000 0.000000 0.000000
vn -1.000000 0.000000 0.000000
vn -1.000000 0.000000 0.000000
vn 0.000000 0.972607 -0.232455
vn 0.000000 0.999363 -0.035695
vn 0.000000 0.999363 -0.035695
vn 0.000000 0.972607 -0.232455
vn 0.000000 0.999363 -0.035695
vn 0.000000 0.972607 -0.232455
vn 1.000000 0.000000 0.000000
vn 1.000000 0.000000 0.000000
vn 1.000000 0.000000 0.000000
vn 1.000000 0.000000 0.000000
vn 1.000000 0.000000 0.000000
vn 1.000000 0.000000 0.000000
vn 0.000000 0.056136 0.998423
vn 0.000000 -0.810869 0.585228
vn 0.000000 -0.810869 0.585228
vn 0.000000 0.056136 0.998423
vn 0.000000 -0.810869 0.585228
vn 0.000000 0.056136 0.998423
vn -0.000000 0.056136 -0.998423
vn 0.000000 -0.750868 -0.660452
vn 0.000000 -0.750868 -0.660452
vn -0.000000 0.056136 -0.998423
vn 0.000000 -0.750868 -0.660452
vn -0.000000 0.056136 -0.998423
f 18/1/1 2/2/2 25/3/3
f 18/4/4 25/5/5 4/6/6
f 18/7/7 4/8/8 13/9/9
f 26/10/10 8/11/11 4/12/12
f 26/13/13 4/14/14 25/15/15
f 24/16/16 5/17/17 27/18/18
f 24/19/19 27/20/20 7/21/21
f 24/22/22 7/23/23 21/24/24
f 28/25/25 3/26/26 7/27/27
f 28/28/28 7/29/29 27/30/30
f 17/31/31 6/32/32 2/33/33
f 17/34/34 2/35/35 18/36/36
f 13/37/37 4/38/38 8/39/39
f 13/40/40 8/41/41 14/42/42
f 21/43/43 7/44/44 3/45/45
f 21/46/46 3/47/47 22/48/48
f 14/49/49 9/50/50 11/51/51
f 14/52/52 11/53/53 13/54/54
f 23/55/55 1/56/56 5/57/57
f 23/58/58 5/59/59 24/60/60
f 22/61/61 3/62/62 28/63/63
f 22/64/64 28/65/65 1/66/66
f 22/67/67 1/68/68 23/69/69
f 12/70/70 11/71/71 9/72/72
f 12/73/73 9/74/74 10/75/75
f 14/76/76 8/77/77 26/78/78
f 14/79/79 26/80/80 6/81/81
f 14/82/82 6/83/83 17/84/84
f 16/85/85 20/86/86 10/87/87
f 16/88/88 10/89/89 9/90/90
f 11/91/91 12/92/92 19/93/93
f 11/94/94 19/95/95 15/96/96
f 15/97/97 19/98/98 20/99/99
f 15/100/100 20/101/101 16/102/102
f 17/103/103 16/104/104 9/105/105
f 17/106/106 9/107/107 14/108/108
f 13/109/109 11/110/110 15/111/111
f 13/112/112 15/113/113 18/114/114
f 18/115/115 15/116/116 16/117/117
f 18/118/118 16/119/119 17/120/120
f 24/121/121 20/122/122 19/123/123
f 24/124/124 19/125/125 23/126/126
f 23/127/127 19/128/128 12/129/129
f 23/130/130 12/131/131 22/132/132
f 22/133/133 12/134/134 10/135/135
f 22/136/136 10/137/137 21/138/138
f 21/139/139 10/140/140 20/141/141
f 21/142/142 20/143/143 24/144/144
f 25/145/145 2/146/146 6/147/147
f 25/148/148 6/149/149 26/150/150
f 27/151/151 5/152/152 1/153/153
f 27/154/154 1/155/155 28/156/156
