v -0.534990 -0.319257 1.960549
v 0.339733 -0.598659 1.940629
v -0.542220 0.261567 1.966205
v 0.626487 -0.304577 1.937759
v -0.281821 -0.306704 0.597477
v -0.289223 0.287904 0.603267
v 0.305297 0.295418 0.591601
v 0.312699 -0.299190 0.585811
v 0.325273 0.562989 1.951942
v -0.255466 0.555649 1.963336
v -0.283785 0.285289 0.878728
v 0.310735 0.292803 0.867062
v -0.276383 -0.309318 0.872937
v 0.318137 -0.301804 0.861272
v -0.236218 -0.319627 2.380473
v -0.243448 0.261197 2.386127
v 0.337290 0.268537 2.374733
v 0.344520 -0.312287 2.369077
v 0.350602 0.574403 0.868948
v -0.330649 0.565793 0.882315
v -0.574903 0.319402 0.884799
v -0.566561 -0.350779 0.878273
v -0.316250 -0.590918 0.871051
v 0.365001 -0.582308 0.857684
v 0.609256 -0.335918 0.855201
v 0.600913 0.334264 0.861727
v 0.619257 0.276247 1.943415
v -0.241006 -0.605999 1.952024
vt 0.754087 0.935212
vt 0.753963 0.994062
vt 0.812790 0.993906
vt 0.754087 0.935212
vt 0.812790 0.993906
vt 0.813076 0.934567
vt 0.332744 0.496053
vt 0.354475 0.496222
vt 0.371635 0.480530
vt 0.332744 0.496053
vt 0.371635 0.480530
vt 0.371537 0.455139
vt 0.332744 0.496053
vt 0.371537 0.455139
vt 0.354394 0.438714
vt 0.332744 0.496053
vt 0.354394 0.438714
vt 0.333153 0.438328
vt 0.332744 0.496053
vt 0.333153 0.438328
vt 0.315965 0.456274
vt 0.332744 0.496053
vt 0.315965 0.456274
vt 0.315205 0.480358
vt 0.286313 0.593903
vt 0.265682 0.655683
vt 0.307907 0.673105
vt 0.286313 0.593903
vt 0.307907 0.673105
vt 0.329189 0.609372
vt 0.286313 0.593903
vt 0.265682 0.655683
vt 0.307907 0.673105
vt 0.286313 0.593903
vt 0.307907 0.673105
vt 0.329189 0.609372
vt 0.307907 0.673105
vt 0.265682 0.655683
vt 0.293685 0.697485
vt 0.286313 0.593903
vt 0.265682 0.655683
vt 0.307907 0.673105
vt 0.286313 0.593903
vt 0.307907 0.673105
vt 0.329189 0.609372
vt 0.286313 0.593903
vt 0.265682 0.655683
vt 0.307907 0.673105
vt 0.286313 0.593903
vt 0.307907 0.673105
vt 0.329189 0.609372
vt 0.517903 0.699237
vt 0.322353 0.623044
vt 0.303024 0.682871
vt 0.517903 0.699237
vt 0.303024 0.682871
vt 0.503409 0.734798
vt 0.519856 0.690448
vt 0.529557 0.675946
vt 0.341458 0.576528
vt 0.519856 0.690448
vt 0.341458 0.576528
vt 0.329189 0.609372
vt 0.517903 0.688495
vt 0.324306 0.608395
vt 0.303024 0.672129
vt 0.517903 0.688495
vt 0.303024 0.672129
vt 0.503409 0.724056
vt 0.329189 0.609372
vt 0.307907 0.673105
vt 0.503409 0.724056
vt 0.329189 0.609372
vt 0.503409 0.724056
vt 0.517903 0.694354
vt 0.328213 0.601559
vt 0.304977 0.665293
vt 0.503409 0.718197
vt 0.328213 0.601559
vt 0.503409 0.718197
vt 0.517903 0.680683
vt 0.325283 0.614255
vt 0.304001 0.677988
vt 0.504386 0.729915
vt 0.325283 0.614255
vt 0.504386 0.729915
vt 0.518880 0.694354
vt 0.324306 0.622067
vt 0.303024 0.685801
vt 0.503409 0.737728
vt 0.324306 0.622067
vt 0.503409 0.737728
vt 0.517903 0.702167
vt 0.515950 0.688495
vt 0.323330 0.618161
vt 0.307907 0.663340
vt 0.515950 0.688495
vt 0.307907 0.663340
vt 0.509269 0.707455
vt 0.312790 0.663340
vt 0.274594 0.615387
vt 0.329158 0.611738
vt 0.329189 0.609372
vt 0.341458 0.576528
vt 0.286313 0.593903
vt 0.312790 0.663340
vt 0.274594 0.615387
vt 0.329158 0.611738
vt 0.522964 0.692802
vt 0.512997 0.722679
vt 0.529667 0.727493
vt 0.522964 0.692802
vt 0.529667 0.727493
vt 0.539633 0.698918
vt 0.522964 0.692802
vt 0.512997 0.722679
vt 0.529667 0.727493
vt 0.522964 0.692802
vt 0.529667 0.727493
vt 0.539633 0.698918
vt 0.522964 0.692802
vt 0.512997 0.722679
vt 0.529667 0.727493
vt 0.522964 0.692802
vt 0.529667 0.727493
vt 0.539633 0.698918
vt 0.522964 0.692802
vt 0.512997 0.722679
vt 0.529667 0.727493
vt 0.522964 0.692802
vt 0.529667 0.727493
vt 0.539633 0.698918
vn 0.453988 0.442459 0.773385
vn -0.434338 0.431232 0.790816
vn -0.423279 -0.457224 0.782165
vn 0.453988 0.442459 0.773385
vn -0.423279 -0.457224 0.782165
vn 0.465047 -0.445997 0.764734
vn -0.019737 0.009490 -0.999760
vn -0.019737 0.009490 -0.999760
vn -0.019737 0.009490 -0.999760
vn -0.019737 0.009490 -0.999760
vn -0.019737 0.009490 -0.999760
vn -0.019737 0.009490 -0.999760
vn -0.019737 0.009490 -0.999760
vn -0.019737 0.009490 -0.999760
vn -0.019737 0.009490 -0.999760
vn -0.019737 0.009490 -0.999760
vn -0.019737 0.009490 -0.999760
vn -0.019737 0.009490 -0.999760
vn -0.019737 0.009490 -0.999760
vn -0.019737 0.009490 -0.999760
vn -0.019737 0.009490 -0.999760
vn -0.019737 0.009490 -0.999760
vn -0.019737 0.009490 -0.999760
vn -0.019737 0.009490 -0.999760
vn -0.423279 -0.457224 0.782165
vn -0.434338 0.431232 0.790816
vn -0.879292 0.360401 0.311380
vn -0.423279 -0.457224 0.782165
vn -0.879292 0.360401 0.311380
vn -0.870270 -0.388296 0.303077
vn 0.465047 -0.445997 0.764734
vn -0.423279 -0.457224 0.782165
vn -0.356416 -0.890079 0.284124
vn 0.465047 -0.445997 0.764734
vn -0.356416 -0.890079 0.284124
vn 0.389791 -0.880957 0.268286
vn 0.891758 -0.366345 0.265628
vn 0.465047 -0.445997 0.764734
vn 0.389791 -0.880957 0.268286
vn 0.453988 0.442459 0.773385
vn 0.465047 -0.445997 0.764734
vn 0.891758 -0.366345 0.265628
vn 0.453988 0.442459 0.773385
vn 0.891758 -0.366345 0.265628
vn 0.882174 0.383041 0.273950
vn -0.434338 0.431232 0.790816
vn 0.453988 0.442459 0.773385
vn 0.367569 0.884302 0.287928
vn -0.434338 0.431232 0.790816
vn 0.367569 0.884302 0.287928
vn -0.378035 0.874544 0.303746
vn -0.926939 0.372237 0.047145
vn -0.879292 0.360401 0.311380
vn -0.378035 0.874544 0.303746
vn -0.926939 0.372237 0.047145
vn -0.378035 0.874544 0.303746
vn -0.391732 0.919349 0.036648
vn 0.918370 0.395693 0.004871
vn 0.369515 0.929026 0.019210
vn 0.367569 0.884302 0.287928
vn 0.918370 0.395693 0.004871
vn 0.367569 0.884302 0.287928
vn 0.882174 0.383041 0.273950
vn -0.368884 -0.929378 0.013489
vn -0.356416 -0.890079 0.284124
vn -0.870270 -0.388296 0.303077
vn -0.368884 -0.929378 0.013489
vn -0.870270 -0.388296 0.303077
vn -0.917454 -0.396067 0.037521
vn 0.882174 0.383041 0.273950
vn 0.891758 -0.366345 0.265628
vn 0.927920 -0.372750 -0.004756
vn 0.882174 0.383041 0.273950
vn 0.927920 -0.372750 -0.004756
vn 0.918370 0.395693 0.004871
vn 0.389791 -0.880957 0.268286
vn -0.356416 -0.890079 0.284124
vn -0.368884 -0.929378 0.013489
vn 0.389791 -0.880957 0.268286
vn -0.368884 -0.929378 0.013489
vn 0.392482 -0.919751 -0.003953
vn -0.870270 -0.388296 0.303077
vn -0.879292 0.360401 0.311380
vn -0.926939 0.372237 0.047145
vn -0.870270 -0.388296 0.303077
vn -0.926939 0.372237 0.047145
vn -0.917454 -0.396067 0.037521
vn -0.378035 0.874544 0.303746
vn 0.367569 0.884302 0.287928
vn 0.369515 0.929026 0.019210
vn -0.378035 0.874544 0.303746
vn 0.369515 0.929026 0.019210
vn -0.391732 0.919349 0.036648
vn 0.927920 -0.372750 -0.004756
vn 0.891758 -0.366345 0.265628
vn 0.389791 -0.880957 0.268286
vn 0.927920 -0.372750 -0.004756
vn 0.389791 -0.880957 0.268286
vn 0.392482 -0.919751 -0.003953
vn -0.879292 0.360401 0.311380
vn -0.434338 0.431232 0.790816
vn -0.378035 0.874544 0.303746
vn 0.882174 0.383041 0.273950
vn 0.367569 0.884302 0.287928
vn 0.453988 0.442459 0.773385
vn -0.356416 -0.890079 0.284124
vn -0.423279 -0.457224 0.782165
vn -0.870270 -0.388296 0.303077
vn 0.999728 0.012636 -0.019617
vn 0.999728 0.012636 -0.019617
vn 0.619613 -0.599226 0.506959
vn 0.999728 0.012636 -0.019617
vn 0.619613 -0.599226 0.506959
vn 0.604629 0.604478 0.518681
vn -0.012447 0.999875 0.009736
vn -0.012447 0.999875 0.009736
vn 0.604629 0.604478 0.518681
vn -0.012447 0.999875 0.009736
vn 0.604629 0.604478 0.518681
vn 0.005155 0.700308 0.713822
vn -0.999728 -0.012636 0.019617
vn -0.999728 -0.012636 0.019617
vn -0.999728 -0.012636 0.019617
vn -0.999728 -0.012636 0.019617
vn -0.999728 -0.012636 0.019617
vn -0.999728 -0.012636 0.019617
vn 0.012447 -0.999875 -0.009736
vn 0.012447 -0.999875 -0.009736
vn 0.022757 -0.713729 0.700052
vn 0.012447 -0.999875 -0.009736
vn 0.022757 -0.713729 0.700052
vn 0.619613 -0.599226 0.506959
f 17/1/1 16/2/2 15/3/3
f 17/4/4 15/5/5 18/6/6
f 19/7/7 26/8/8 25/9/9
f 19/10/10 25/11/11 24/12/12
f 19/13/13 24/14/14 23/15/15
f 19/16/16 23/17/17 22/18/18
f 19/19/19 22/20/20 21/21/21
f 19/22/22 21/23/23 20/24/24
f 15/25/25 16/26/26 3/27/27
f 15/28/28 3/29/29 1/30/30
f 18/31/31 15/32/32 28/33/33
f 18/34/34 28/35/35 2/36/36
f 4/37/37 18/38/38 2/39/39
f 17/40/40 18/41/41 4/42/42
f 17/43/43 4/44/44 27/45/45
f 16/46/46 17/47/47 9/48/48
f 16/49/49 9/50/50 10/51/51
f 21/52/52 3/53/53 10/54/54
f 21/55/55 10/56/56 20/57/57
f 26/58/58 19/59/59 9/60/60
f 26/61/61 9/62/62 27/63/63
f 23/64/64 28/65/65 1/66/66
f 23/67/67 1/68/68 22/69/69
f 27/70/70 4/71/71 25/72/72
f 27/73/73 25/74/74 26/75/75
f 2/76/76 28/77/77 23/78/78
f 2/79/79 23/80/80 24/81/81
f 1/82/82 3/83/83 21/84/84
f 1/85/85 21/86/86 22/87/87
f 10/88/88 9/89/89 19/90/90
f 10/91/91 19/92/92 20/93/93
f 25/94/94 4/95/95 2/96/96
f 25/97/97 2/98/98 24/99/99
f 3/100/100 16/101/101 10/102/102
f 27/103/103 9/104/104 17/105/105
f 28/106/106 15/107/107 1/108/108
f 12/109/109 14/110/110 8/111/111
f 12/112/112 8/113/113 7/114/114
f 11/115/115 12/116/116 7/117/117
f 11/118/118 7/119/119 6/120/120
f 13/121/121 11/122/122 6/123/123
f 13/124/124 6/125/125 5/126/126
f 14/127/127 13/128/128 5/129/129
f 14/130/130 5/131/131 8/132/132
