v 0.000000 -3.759999 -0.000000
v 0.000000 3.759999 -0.000000
v 1.000000 -2.500000 0.000000
v 1.000000 2.500000 0.000000
v 0.707107 -2.500000 -0.707107
v 0.707107 2.500000 -0.707107
v 0.000000 -2.500000 -1.000000
v 0.000000 2.500000 -1.000000
v -0.707107 -2.500000 -0.707107
v -0.707107 2.500000 -0.707107
v -1.000000 -2.500000 0.000000
v -1.000000 2.500000 0.000000
v -0.707107 -2.500000 0.707107
v -0.707107 2.500000 0.707107
v 0.000000 -2.500000 1.000000
v 0.000000 2.500000 1.000000
v 0.707107 -2.500000 0.707107
v 0.707107 2.500000 0.707107
v 0.620000 3.759999 -0.000003
v 0.438406 3.759999 0.438406
v 0.620000 -3.759999 -0.000003
v 0.438406 -3.759999 0.438406
v 0.000003 3.759999 0.620000
v 0.000003 -3.759999 0.620000
v -0.438406 3.759999 0.438406
v -0.438406 -3.759999 0.438406
v -0.620000 3.759999 0.000003
v -0.620000 -3.759999 0.000003
v -0.438406 3.759999 -0.438406
v -0.438406 -3.759999 -0.438406
v -0.000003 3.759999 -0.620000
v -0.000003 -3.759999 -0.620000
v 0.438406 3.759999 -0.438406
v 0.438406 -3.759999 -0.438406
vt 0.000000 0.000000
vt 0.000000 0.000000
vt 0.000000 0.000000
vt 0.000000 0.000000
vt 0.000000 0.000000
vt 0.000000 0.000000
vt 0.000000 0.000000
vt 0.000000 0.000000
vt 0.000000 0.000000
vt 0.000000 0.000000
vt 0.000000 0.000000
vt 0.000000 0.000000
vt 0.000000 0.000000
vt 0.000000 0.000000
vt 0.000000 0.000000
vt 0.000000 0.000000
vt 0.000000 0.000000
vt 0.000000 0.000000
vt 0.000000 0.000000
vt 0.000000 0.000000
vt 0.000000 0.000000
vt 0.000000 0.000000
vt 0.000000 0.000000
vt 0.000000 0.000000
vt 0.000000 0.000000
vt 0.000000 0.000000
vt 0.000000 0.000000
vt 0.000000 0.000000
vt 0.000000 0.000000
vt 0.000000 0.000000
vt 0.000000 0.000000
vt 0.000000 0.000000
vt 0.000000 0.000000
vt 0.000000 0.000000
vt 0.000000 0.000000
vt 0.000000 0.000000
vt 0.000000 0.000000
vt 0.000000 0.000000
vt 0.000000 0.000000
vt 0.000000 0.000000
vt 0.000000 0.000000
vt 0.000000 0.000000
vt 0.000000 0.000000
vt 0.000000 0.000000
vt 0.000000 0.000000
vt 0.000000 0.000000
vt 0.000000 0.000000
vt 0.000000 0.000000
vt 0.000000 0.000000
vt 0.000000 0.000000
vt 0.000000 0.000000
vt 0.000000 0.000000
vt 0.000000 0.000000
vt 0.000000 0.000000
vt 0.000000 0.000000
vt 0.000000 0.000000
vt 0.000000 0.000000
vt 0.000000 0.000000
vt 0.000000 0.000000
vt 0.000000 0.000000
vt 0.000000 0.000000
vt 0.000000 0.000000
vt 0.000000 0.000000
vt 0.000000 0.000000
vt 0.000000 0.000000
vt 0.000000 0.000000
vt 0.000000 0.000000
vt 0.000000 0.000000
vt 0.000000 0.000000
vt 0.000000 0.000000
vt 0.000000 0.000000
vt 0.000000 0.000000
vt 0.000000 0.000000
vt 0.000000 0.000000
vt 0.000000 0.000000
vt 0.000000 0.000000
vt 0.000000 0.000000
vt 0.000000 0.000000
vt 0.000000 0.000000
vt 0.000000 0.000000
vt 0.000000 0.000000
vt 0.000000 0.000000
vt 0.000000 0.000000
vt 0.000000 0.000000
vt 0.000000 0.000000
vt 0.000000 0.000000
vt 0.000000 0.000000
vt 0.000000 0.000000
vt 0.000000 0.000000
vt 0.000000 0.000000
vt 0.000000 0.000000
vt 0.000000 0.000000
vt 0.000000 0.000000
vt 0.000000 0.000000
vt 0.000000 0.000000
vt 0.000000 0.000000
vt 0.000000 0.000000
vt 0.000000 0.000000
vt 0.000000 0.000000
vt 0.000000 0.000000
vt 0.000000 0.000000
vt 0.000000 0.000000
vt 0.000000 0.000000
vt 0.000000 0.000000
vt 0.000000 0.000000
vt 0.000000 0.000000
vt 0.000000 0.000000
vt 0.000000 0.000000
vt 0.000000 0.000000
vt 0.000000 0.000000
vt 0.000000 0.000000
vt 0.000000 0.000000
vt 0.000000 0.000000
vt 0.000000 0.000000
vt 0.000000 0.000000
vt 0.000000 0.000000
vt 0.000000 0.000000
vt 0.000000 0.000000
vt 0.000000 0.000000
vt 0.000000 0.000000
vt 0.000000 0.000000
vt 0.000000 0.000000
vt 0.000000 0.000000
vt 0.000000 0.000000
vt 0.000000 0.000000
vt 0.000000 0.000000
vt 0.000000 0.000000
vt 0.000000 0.000000
vt 0.000000 0.000000
vt 0.000000 0.000000
vt 0.000000 0.000000
vt 0.000000 0.000000
vt 0.000000 0.000000
vt 0.000000 0.000000
vt 0.000000 0.000000
vt 0.000000 0.000000
vt 0.000000 0.000000
vt 0.000000 0.000000
vt 0.000000 0.000000
vt 0.000000 0.000000
vt 0.000000 0.000000
vt 0.000000 0.000000
vt 0.000000 0.000000
vt 0.000000 0.000000
vt 0.000000 0.000000
vt 0.000000 0.000000
vt 0.000000 0.000000
vt 0.000000 0.000000
vt 0.000000 0.000000
vt 0.000000 0.000000
vt 0.000000 0.000000
vt 0.000000 0.000000
vt 0.000000 0.000000
vt 0.000000 0.000000
vt 0.000000 0.000000
vt 0.000000 0.000000
vt 0.000000 0.000000
vt 0.000000 0.000000
vt 0.000000 0.000000
vt 0.000000 0.000000
vt 0.000000 0.000000
vt 0.000000 0.000000
vt 0.000000 0.000000
vt 0.000000 0.000000
vt 0.000000 0.000000
vt 0.000000 0.000000
vt 0.000000 0.000000
vt 0.000000 0.000000
vt 0.000000 0.000000
vt 0.000000 0.000000
vt 0.000000 0.000000
vt 0.000000 0.000000
vt 0.000000 0.000000
vt 0.000000 0.000000
vt 0.000000 0.000000
vt 0.000000 0.000000
vt 0.000000 0.000000
vt 0.000000 0.000000
vt 0.000000 0.000000
vt 0.000000 0.000000
vt 0.000000 0.000000
vt 0.000000 0.000000
vt 0.000000 0.000000
vt 0.000000 0.000000
vt 0.000000 0.000000
vt 0.000000 0.000000
vt 0.000000 0.000000
vt 0.000000 0.000000
vt 0.000000 0.000000
vt 0.000000 0.000000
vt 0.000000 0.000000
vt 0.000000 0.000000
vn 0.000000 -1.000000 -0.000000
vn 0.000000 -1.000000 -0.000000
vn 0.000000 -1.000000 -0.000000
vn 0.989228 -0.146382 -0.000000
vn 0.699490 -0.146382 -0.699490
vn 0.699490 0.146382 -0.699490
vn 0.989228 -0.146382 -0.000000
vn 0.699490 0.146382 -0.699490
vn 0.989228 0.146382 -0.000000
vn 0.000000 1.000000 0.000000
vn 0.000000 1.000000 -0.000000
vn 0.000000 1.000000 0.000000
vn 0.000000 -1.000000 0.000000
vn 0.000000 -1.000000 -0.000000
vn 0.000000 -1.000000 -0.000000
vn 0.699490 -0.146382 -0.699490
vn -0.000001 -0.146382 -0.989228
vn -0.000001 0.146382 -0.989228
vn 0.699490 -0.146382 -0.699490
vn -0.000001 0.146382 -0.989228
vn 0.699490 0.146382 -0.699490
vn 0.000000 1.000000 -0.000000
vn 0.000000 1.000000 -0.000000
vn 0.000000 1.000000 0.000000
vn 0.000000 -1.000000 0.000000
vn 0.000000 -1.000000 0.000000
vn 0.000000 -1.000000 -0.000000
vn -0.000001 -0.146382 -0.989228
vn -0.699490 -0.146382 -0.699490
vn -0.699490 0.146382 -0.699490
vn -0.000001 -0.146382 -0.989228
vn -0.699490 0.146382 -0.699490
vn -0.000001 0.146382 -0.989228
vn 0.000000 1.000000 -0.000000
vn 0.000000 1.000000 0.000000
vn 0.000000 1.000000 0.000000
vn 0.000000 -1.000000 -0.000000
vn 0.000000 -1.000000 0.000000
vn 0.000000 -1.000000 -0.000000
vn -0.699490 -0.146382 -0.699490
vn -0.989228 -0.146382 0.000000
vn -0.989228 0.146382 0.000000
vn -0.699490 -0.146382 -0.699490
vn -0.989228 0.146382 0.000000
vn -0.699490 0.146382 -0.699490
vn 0.000000 1.000000 0.000000
vn 0.000000 1.000000 0.000000
vn 0.000000 1.000000 0.000000
vn 0.000000 -1.000000 -0.000000
vn 0.000000 -1.000000 -0.000000
vn 0.000000 -1.000000 -0.000000
vn -0.989228 -0.146382 0.000000
vn -0.699490 -0.146382 0.699490
vn -0.699490 0.146382 0.699490
vn -0.989228 -0.146382 0.000000
vn -0.699490 0.146382 0.699490
vn -0.989228 0.146382 0.000000
vn 0.000000 1.000000 0.000000
vn 0.000000 1.000000 -0.000000
vn 0.000000 1.000000 0.000000
vn 0.000000 -1.000000 -0.000000
vn 0.000000 -1.000000 -0.000000
vn 0.000000 -1.000000 -0.000000
vn -0.699490 -0.146382 0.699490
vn 0.000000 -0.146382 0.989228
vn 0.000000 0.146382 0.989228
vn -0.699490 -0.146382 0.699490
vn 0.000000 0.146382 0.989228
vn -0.699490 0.146382 0.699490
vn 0.000000 1.000000 -0.000000
vn 0.000000 1.000000 -0.000000
vn 0.000000 1.000000 0.000000
vn 0.000000 -1.000000 0.000000
vn 0.000000 -1.000000 -0.000000
vn 0.000000 -1.000000 -0.000000
vn 0.000000 -0.146382 0.989228
vn 0.699490 -0.146382 0.699490
vn 0.699490 0.146382 0.699490
vn 0.000000 -0.146382 0.989228
vn 0.699490 0.146382 0.699490
vn 0.000000 0.146382 0.989228
vn 0.000000 1.000000 -0.000000
vn 0.000000 1.000000 0.000000
vn 0.000000 1.000000 0.000000
vn 0.000000 -1.000000 -0.000000
vn 0.000000 -1.000000 0.000000
vn 0.000000 -1.000000 -0.000000
vn 0.699490 -0.146382 0.699490
vn 0.989228 -0.146382 -0.000000
vn 0.989228 0.146382 -0.000000
vn 0.699490 -0.146382 0.699490
vn 0.989228 0.146382 -0.000000
vn 0.699490 0.146382 0.699490
vn 0.000000 1.000000 0.000000
vn 0.000000 1.000000 0.000000
vn 0.000000 1.000000 0.000000
vn 0.699490 0.146382 0.699490
vn 0.989228 0.146382 -0.000000
vn 0.957407 0.288742 -0.000001
vn 0.699490 0.146382 0.699490
vn 0.957407 0.288742 -0.000001
vn 0.676989 0.288742 0.676988
vn 0.989228 -0.146382 -0.000000
vn 0.699490 -0.146382 0.699490
vn 0.676989 -0.288742 0.676988
vn 0.989228 -0.146382 -0.000000
vn 0.676989 -0.288742 0.676988
vn 0.957407 -0.288742 -0.000001
vn 0.000000 0.146382 0.989228
vn 0.699490 0.146382 0.699490
vn 0.676989 0.288742 0.676988
vn 0.000000 0.146382 0.989228
vn 0.676989 0.288742 0.676988
vn 0.000001 0.288742 0.957407
vn 0.699490 -0.146382 0.699490
vn 0.000000 -0.146382 0.989228
vn 0.000001 -0.288742 0.957407
vn 0.699490 -0.146382 0.699490
vn 0.000001 -0.288742 0.957407
vn 0.676989 -0.288742 0.676988
vn -0.699490 0.146382 0.699490
vn 0.000000 0.146382 0.989228
vn 0.000001 0.288742 0.957407
vn -0.699490 0.146382 0.699490
vn 0.000001 0.288742 0.957407
vn -0.676988 0.288742 0.676989
vn 0.000000 -0.146382 0.989228
vn -0.699490 -0.146382 0.699490
vn -0.676988 -0.288742 0.676989
vn 0.000000 -0.146382 0.989228
vn -0.676988 -0.288742 0.676989
vn 0.000001 -0.288742 0.957407
vn -0.989228 0.146382 0.000000
vn -0.699490 0.146382 0.699490
vn -0.676988 0.288742 0.676989
vn -0.989228 0.146382 0.000000
vn -0.676988 0.288742 0.676989
vn -0.957407 0.288742 0.000001
vn -0.699490 -0.146382 0.699490
vn -0.989228 -0.146382 0.000000
vn -0.957407 -0.288742 0.000001
vn -0.699490 -0.146382 0.699490
vn -0.957407 -0.288742 0.000001
vn -0.676988 -0.288742 0.676989
vn -0.699490 0.146382 -0.699490
vn -0.989228 0.146382 0.000000
vn -0.957407 0.288742 0.000001
vn -0.699490 0.146382 -0.699490
vn -0.957407 0.288742 0.000001
vn -0.676989 0.288742 -0.676988
vn -0.989228 -0.146382 0.000000
vn -0.699490 -0.146382 -0.699490
vn -0.676989 -0.288742 -0.676988
vn -0.989228 -0.146382 0.000000
vn -0.676989 -0.288742 -0.676988
vn -0.957407 -0.288742 0.000001
vn -0.000001 0.146382 -0.989228
vn -0.699490 0.146382 -0.699490
vn -0.676989 0.288742 -0.676988
vn -0.000001 0.146382 -0.989228
vn -0.676989 0.288742 -0.676988
vn -0.000001 0.288742 -0.957407
vn -0.699490 -0.146382 -0.699490
vn -0.000001 -0.146382 -0.989228
vn -0.000001 -0.288742 -0.957407
vn -0.699490 -0.146382 -0.699490
vn -0.000001 -0.288742 -0.957407
vn -0.676989 -0.288742 -0.676988
vn 0.699490 0.146382 -0.699490
vn -0.000001 0.146382 -0.989228
vn -0.000001 0.288742 -0.957407
vn 0.699490 0.146382 -0.699490
vn -0.000001 0.288742 -0.957407
vn 0.676988 0.288742 -0.676989
vn -0.000001 -0.146382 -0.989228
vn 0.699490 -0.146382 -0.699490
vn 0.676988 -0.288742 -0.676989
vn -0.000001 -0.146382 -0.989228
vn 0.676988 -0.288742 -0.676989
vn -0.000001 -0.288742 -0.957407
vn 0.989228 0.146382 -0.000000
vn 0.699490 0.146382 -0.699490
vn 0.676988 0.288742 -0.676989
vn 0.989228 0.146382 -0.000000
vn 0.676988 0.288742 -0.676989
vn 0.957407 0.288742 -0.000001
vn 0.699490 -0.146382 -0.699490
vn 0.989228 -0.146382 -0.000000
vn 0.957407 -0.288742 -0.000001
vn 0.699490 -0.146382 -0.699490
vn 0.957407 -0.288742 -0.000001
vn 0.676988 -0.288742 -0.676989
f 34/1/1 21/2/2 1/3/3
f 3/4/4 5/5/5 6/6/6
f 3/7/7 6/8/8 4/9/9
f 19/10/10 33/11/11 2/12/12
f 32/13/13 34/14/14 1/15/15
f 5/16/16 7/17/17 8/18/18
f 5/19/19 8/20/20 6/21/21
f 33/22/22 31/23/23 2/24/24
f 30/25/25 32/26/26 1/27/27
f 7/28/28 9/29/29 10/30/30
f 7/31/31 10/32/32 8/33/33
f 31/34/34 29/35/35 2/36/36
f 28/37/37 30/38/38 1/39/39
f 9/40/40 11/41/41 12/42/42
f 9/43/43 12/44/44 10/45/45
f 29/46/46 27/47/47 2/48/48
f 26/49/49 28/50/50 1/51/51
f 11/52/52 13/53/53 14/54/54
f 11/55/55 14/56/56 12/57/57
f 27/58/58 25/59/59 2/60/60
f 24/61/61 26/62/62 1/63/63
f 13/64/64 15/65/65 16/66/66
f 13/67/67 16/68/68 14/69/69
f 25/70/70 23/71/71 2/72/72
f 22/73/73 24/74/74 1/75/75
f 15/76/76 17/77/77 18/78/78
f 15/79/79 18/80/80 16/81/81
f 23/82/82 20/83/83 2/84/84
f 21/85/85 22/86/86 1/87/87
f 17/88/88 3/89/89 4/90/90
f 17/91/91 4/92/92 18/93/93
f 20/94/94 19/95/95 2/96/96
f 18/97/97 4/98/98 19/99/99
f 18/100/100 19/101/101 20/102/102
f 3/103/103 17/104/104 22/105/105
f 3/106/106 22/107/107 21/108/108
f 16/109/109 18/110/110 20/111/111
f 16/112/112 20/113/113 23/114/114
f 17/115/115 15/116/116 24/117/117
f 17/118/118 24/119/119 22/120/120
f 14/121/121 16/122/122 23/123/123
f 14/124/124 23/125/125 25/126/126
f 15/127/127 13/128/128 26/129/129
f 15/130/130 26/131/131 24/132/132
f 12/133/133 14/134/134 25/135/135
f 12/136/136 25/137/137 27/138/138
f 13/139/139 11/140/140 28/141/141
f 13/142/142 28/143/143 26/144/144
f 10/145/145 12/146/146 27/147/147
f 10/148/148 27/149/149 29/150/150
f 11/151/151 9/152/152 30/153/153
f 11/154/154 30/155/155 28/156/156
f 8/157/157 10/158/158 29/159/159
f 8/160/160 29/161/161 31/162/162
f 9/163/163 7/164/164 32/165/165
f 9/166/166 32/167/167 30/168/168
f 6/169/169 8/170/170 31/171/171
f 6/172/172 31/173/173 33/174/174
f 7/175/175 5/176/176 34/177/177
f 7/178/178 34/179/179 32/180/180
f 4/181/181 6/182/182 33/183/183
f 4/184/184 33/185/185 19/186/186
f 5/187/187 3/188/188 21/189/189
f 5/190/190 21/191/191 34/192/192
