v 0.000000 -5.000000 0.000000
v 0.000000 5.000000 0.000000
v 1.913417 -4.619398 0.000000
v 3.535534 -3.535534 0.000000
v 4.619398 -1.913417 0.000000
v 5.000000 0.000000 0.000000
v 4.619398 1.913417 0.000000
v 3.535534 3.535534 0.000000
v 1.913417 4.619398 0.000000
v -1.913417 -4.619398 0.000000
v -3.535534 -3.535534 0.000000
v -4.619397 -1.913417 0.000000
v -5.000000 0.000000 0.000000
v -4.619397 1.913417 0.000000
v -3.535533 3.535534 0.000000
v -1.913417 4.619398 0.000000
v -1.410839 -4.816899 1.327008
v -2.606893 -3.686694 2.523062
v -3.406067 -1.995226 3.322235
v -3.686694 0.000000 3.602866
v -3.406067 1.995225 3.322235
v -2.606892 3.686695 2.523060
v -1.410839 4.816898 1.327008
v 0.000000 -4.816899 1.911396
v 0.000000 -3.686694 3.602866
v 0.000000 -1.995226 4.733081
v 0.000000 0.000000 5.129932
v 0.000000 1.995225 4.733081
v 0.000000 3.686695 3.602865
v 0.000000 4.816898 1.911396
v 1.410839 -4.816899 1.327008
v 2.606893 -3.686694 2.523062
v 3.406067 -1.995226 3.322235
v 3.686694 0.000000 3.602866
v 3.406067 1.995225 3.322235
v 2.606893 3.686695 2.523060
v 1.410839 4.816898 1.327008
v -1.995224 4.816898 -0.083831
v 0.000000 5.213786 -0.083831
v -3.686693 3.686695 -0.083831
v -4.816897 1.995225 -0.083831
v -5.213786 0.000000 -0.083831
v -4.816897 -1.995226 -0.083831
v -3.686694 -3.686694 -0.083831
v -1.995225 -4.816899 -0.083831
v 0.000000 -5.213786 -0.083831
v 1.995225 4.816898 -0.083831
v 3.686694 3.686695 -0.083831
v 4.816899 1.995225 -0.083831
v 5.213786 0.000000 -0.083831
v 4.816899 -1.995226 -0.083831
v 3.686694 -3.686694 -0.083831
v 1.995226 -4.816899 -0.083831
vt 0.000000 0.000000
vt 0.000000 0.000000
vt 0.000000 0.000000
vt 0.000000 0.000000
vt 0.000000 0.000000
vt 0.000000 0.000000
vt 0.000000 0.000000
vt 0.000000 0.000000
vt 0.000000 0.000000
vt 0.000000 0.000000
vt 0.000000 0.000000
vt 0.000000 0.000000
vt 0.000000 0.000000
vt 0.000000 0.000000
vt 0.000000 0.000000
vt 0.000000 0.000000
vt 0.000000 0.000000
vt 0.000000 0.000000
vt 0.000000 0.000000
vt 0.000000 0.000000
vt 0.000000 0.000000
vt 0.000000 0.000000
vt 0.000000 0.000000
vt 0.000000 0.000000
vt 0.000000 0.000000
vt 0.000000 0.000000
vt 0.000000 0.000000
vt 0.000000 0.000000
vt 0.000000 0.000000
vt 0.000000 0.000000
vt 0.000000 0.000000
vt 0.000000 0.000000
vt 0.000000 0.000000
vt 0.000000 0.000000
vt 0.000000 0.000000
vt 0.000000 0.000000
vt 0.000000 0.000000
vt 0.000000 0.000000
vt 0.000000 0.000000
vt 0.000000 0.000000
vt 0.000000 0.000000
vt 0.000000 0.000000
vt 0.000000 0.000000
vt 0.000000 0.000000
vt 0.000000 0.000000
vt 0.000000 0.000000
vt 0.000000 0.000000
vt 0.000000 0.000000
vt 0.000000 0.000000
vt 0.000000 0.000000
vt 0.000000 0.000000
vt 0.000000 0.000000
vt 0.000000 0.000000
vt 0.000000 0.000000
vt 0.000000 0.000000
vt 0.000000 0.000000
vt 0.000000 0.000000
vt 0.000000 0.000000
vt 0.000000 0.000000
vt 0.000000 0.000000
vt 0.000000 0.000000
vt 0.000000 0.000000
vt 0.000000 0.000000
vt 0.000000 0.000000
vt 0.000000 0.000000
vt 0.000000 0.000000
vt 0.000000 0.000000
vt 0.000000 0.000000
vt 0.000000 0.000000
vt 0.000000 0.000000
vt 0.000000 0.000000
vt 0.000000 0.000000
vt 0.000000 0.000000
vt 0.000000 0.000000
vt 0.000000 0.000000
vt 0.000000 0.000000
vt 0.000000 0.000000
vt 0.000000 0.000000
vt 0.000000 0.000000
vt 0.000000 0.000000
vt 0.000000 0.000000
vt 0.000000 0.000000
vt 0.000000 0.000000
vt 0.000000 0.000000
vt 0.000000 0.000000
vt 0.000000 0.000000
vt 0.000000 0.000000
vt 0.000000 0.000000
vt 0.000000 0.000000
vt 0.000000 0.000000
vt 0.000000 0.000000
vt 0.000000 0.000000
vt 0.000000 0.000000
vt 0.000000 0.000000
vt 0.000000 0.000000
vt 0.000000 0.000000
vt 0.000000 0.000000
vt 0.000000 0.000000
vt 0.000000 0.000000
vt 0.000000 0.000000
vt 0.000000 0.000000
vt 0.000000 0.000000
vt 0.000000 0.000000
vt 0.000000 0.000000
vt 0.000000 0.000000
vt 0.000000 0.000000
vt 0.000000 0.000000
vt 0.000000 0.000000
vt 0.000000 0.000000
vt 0.000000 0.000000
vt 0.000000 0.000000
vt 0.000000 0.000000
vt 0.000000 0.000000
vt 0.000000 0.000000
vt 0.000000 0.000000
vt 0.000000 0.000000
vt 0.000000 0.000000
vt 0.000000 0.000000
vt 0.000000 0.000000
vt 0.000000 0.000000
vt 0.000000 0.000000
vt 0.000000 0.000000
vt 0.000000 0.000000
vt 0.000000 0.000000
vt 0.000000 0.000000
vt 0.000000 0.000000
vt 0.000000 0.000000
vt 0.000000 0.000000
vt 0.000000 0.000000
vt 0.000000 0.000000
vt 0.000000 0.000000
vt 0.000000 0.000000
vt 0.000000 0.000000
vt 0.000000 0.000000
vt 0.000000 0.000000
vt 0.000000 0.000000
vt 0.000000 0.000000
vt 0.000000 0.000000
vt 0.000000 0.000000
vt 0.000000 0.000000
vt 0.000000 0.000000
vt 0.000000 0.000000
vt 0.000000 0.000000
vt 0.000000 0.000000
vt 0.000000 0.000000
vt 0.000000 0.000000
vt 0.000000 0.000000
vt 0.000000 0.000000
vt 0.000000 0.000000
vt 0.000000 0.000000
vt 0.000000 0.000000
vt 0.000000 0.000000
vt 0.000000 0.000000
vt 0.000000 0.000000
vt 0.000000 0.000000
vt 0.000000 0.000000
vt 0.000000 0.000000
vt 0.000000 0.000000
vt 0.000000 0.000000
vt 0.000000 0.000000
vt 0.000000 0.000000
vt 0.000000 0.000000
vt 0.000000 0.000000
vt 0.000000 0.000000
vt 0.000000 0.000000
vt 0.000000 0.000000
vt 0.000000 0.000000
vt 0.000000 0.000000
vt 0.000000 0.000000
vt 0.000000 0.000000
vt 0.000000 0.000000
vt 0.000000 0.000000
vt 0.000000 0.000000
vt 0.000000 0.000000
vt 0.000000 0.000000
vt 0.000000 0.000000
vt 0.000000 0.000000
vt 0.000000 0.000000
vt 0.000000 0.000000
vt 0.000000 0.000000
vt 0.000000 0.000000
vt 0.000000 0.000000
vt 0.000000 0.000000
vt 0.000000 0.000000
vt 0.000000 0.000000
vt 0.000000 0.000000
vt 0.000000 0.000000
vt 0.000000 0.000000
vt 0.000000 0.000000
vt 0.000000 0.000000
vt 0.000000 0.000000
vt 0.000000 0.000000
vt 0.000000 0.000000
vt 0.000000 0.000000
vt 0.000000 0.000000
vt 0.000000 0.000000
vt 0.000000 0.000000
vt 0.000000 0.000000
vt 0.000000 0.000000
vt 0.000000 0.000000
vt 0.000000 0.000000
vt 0.000000 0.000000
vt 0.000000 0.000000
vt 0.000000 0.000000
vt 0.000000 0.000000
vt 0.000000 0.000000
vt 0.000000 0.000000
vt 0.000000 0.000000
vt 0.000000 0.000000
vt 0.000000 0.000000
vt 0.000000 0.000000
vt 0.000000 0.000000
vt 0.000000 0.000000
vt 0.000000 0.000000
vt 0.000000 0.000000
vt 0.000000 0.000000
vt 0.000000 0.000000
vt 0.000000 0.000000
vt 0.000000 0.000000
vt 0.000000 0.000000
vt 0.000000 0.000000
vt 0.000000 0.000000
vt 0.000000 0.000000
vt 0.000000 0.000000
vt 0.000000 0.000000
vt 0.000000 0.000000
vt 0.000000 0.000000
vt 0.000000 0.000000
vt 0.000000 0.000000
vt 0.000000 0.000000
vt 0.000000 0.000000
vt 0.000000 0.000000
vt 0.000000 0.000000
vt 0.000000 0.000000
vt 0.000000 0.000000
vt 0.000000 0.000000
vt 0.000000 0.000000
vt 0.000000 0.000000
vt 0.000000 0.000000
vt 0.000000 0.000000
vt 0.000000 0.000000
vt 0.000000 0.000000
vt 0.000000 0.000000
vt 0.000000 0.000000
vt 0.000000 0.000000
vt 0.000000 0.000000
vt 0.000000 0.000000
vt 0.000000 0.000000
vt 0.000000 0.000000
vt 0.000000 0.000000
vt 0.000000 0.000000
vt 0.000000 0.000000
vt 0.000000 0.000000
vt 0.000000 0.000000
vt 0.000000 0.000000
vt 0.000000 0.000000
vt 0.000000 0.000000
vt 0.000000 0.000000
vt 0.000000 0.000000
vt 0.000000 0.000000
vt 0.000000 0.000000
vt 0.000000 0.000000
vt 0.000000 0.000000
vt 0.000000 0.000000
vn 0.269134 0.924734 0.269134
vn 0.375970 0.913452 0.155731
vn 0.000000 0.990252 0.139286
vn 0.498494 0.709231 0.498493
vn 0.676715 0.680799 0.280303
vn 0.375970 0.913452 0.155731
vn 0.498494 0.709231 0.498493
vn 0.375970 0.913452 0.155731
vn 0.269134 0.924734 0.269134
vn 0.652733 0.384550 0.652733
vn 0.862224 0.359190 0.357144
vn 0.676715 0.680799 0.280303
vn 0.652733 0.384550 0.652733
vn 0.676715 0.680799 0.280303
vn 0.498494 0.709231 0.498493
vn 0.707106 0.000000 0.707107
vn 0.923879 0.000000 0.382684
vn 0.862224 0.359190 0.357144
vn 0.707106 0.000000 0.707107
vn 0.862224 0.359190 0.357144
vn 0.652733 0.384550 0.652733
vn 0.652733 -0.384550 0.652733
vn 0.862224 -0.359190 0.357144
vn 0.923879 0.000000 0.382684
vn 0.652733 -0.384550 0.652733
vn 0.923879 0.000000 0.382684
vn 0.707106 0.000000 0.707107
vn 0.498494 -0.709231 0.498493
vn 0.676716 -0.680798 0.280303
vn 0.862224 -0.359190 0.357144
vn 0.498494 -0.709231 0.498493
vn 0.862224 -0.359190 0.357144
vn 0.652733 -0.384550 0.652733
vn 0.269134 -0.924734 0.269134
vn 0.375970 -0.913452 0.155731
vn 0.676716 -0.680798 0.280303
vn 0.269134 -0.924734 0.269134
vn 0.676716 -0.680798 0.280303
vn 0.498494 -0.709231 0.498493
vn 0.375970 -0.913452 0.155731
vn 0.269134 -0.924734 0.269134
vn -0.000000 -0.990252 0.139285
vn -0.000000 0.924734 0.380614
vn 0.269134 0.924734 0.269134
vn 0.000000 0.990252 0.139286
vn -0.000000 0.709231 0.704976
vn 0.498494 0.709231 0.498493
vn 0.269134 0.924734 0.269134
vn -0.000000 0.709231 0.704976
vn 0.269134 0.924734 0.269134
vn -0.000000 0.924734 0.380614
vn -0.000000 0.384549 0.923105
vn 0.652733 0.384550 0.652733
vn 0.498494 0.709231 0.498493
vn -0.000000 0.384549 0.923105
vn 0.498494 0.709231 0.498493
vn -0.000000 0.709231 0.704976
vn -0.000000 0.000000 1.000000
vn 0.707106 0.000000 0.707107
vn 0.652733 0.384550 0.652733
vn -0.000000 0.000000 1.000000
vn 0.652733 0.384550 0.652733
vn -0.000000 0.384549 0.923105
vn 0.000000 -0.384549 0.923105
vn 0.652733 -0.384550 0.652733
vn 0.707106 0.000000 0.707107
vn 0.000000 -0.384549 0.923105
vn 0.707106 0.000000 0.707107
vn -0.000000 0.000000 1.000000
vn 0.000000 -0.709231 0.704976
vn 0.498494 -0.709231 0.498493
vn 0.652733 -0.384550 0.652733
vn 0.000000 -0.709231 0.704976
vn 0.652733 -0.384550 0.652733
vn 0.000000 -0.384549 0.923105
vn 0.000000 -0.924734 0.380613
vn 0.269134 -0.924734 0.269134
vn 0.498494 -0.709231 0.498493
vn 0.000000 -0.924734 0.380613
vn 0.498494 -0.709231 0.498493
vn 0.000000 -0.709231 0.704976
vn 0.269134 -0.924734 0.269134
vn 0.000000 -0.924734 0.380613
vn -0.000000 -0.990252 0.139285
vn -0.269134 0.924734 0.269134
vn -0.000000 0.924734 0.380614
vn 0.000000 0.990252 0.139286
vn -0.498494 0.709231 0.498493
vn -0.000000 0.709231 0.704976
vn -0.000000 0.924734 0.380614
vn -0.498494 0.709231 0.498493
vn -0.000000 0.924734 0.380614
vn -0.269134 0.924734 0.269134
vn -0.652733 0.384551 0.652733
vn -0.000000 0.384549 0.923105
vn -0.000000 0.709231 0.704976
vn -0.652733 0.384551 0.652733
vn -0.000000 0.709231 0.704976
vn -0.498494 0.709231 0.498493
vn -0.707106 0.000000 0.707107
vn -0.000000 0.000000 1.000000
vn -0.000000 0.384549 0.923105
vn -0.707106 0.000000 0.707107
vn -0.000000 0.384549 0.923105
vn -0.652733 0.384551 0.652733
vn -0.652733 -0.384550 0.652733
vn 0.000000 -0.384549 0.923105
vn -0.000000 0.000000 1.000000
vn -0.652733 -0.384550 0.652733
vn -0.000000 0.000000 1.000000
vn -0.707106 0.000000 0.707107
vn -0.498494 -0.709231 0.498493
vn 0.000000 -0.709231 0.704976
vn 0.000000 -0.384549 0.923105
vn -0.498494 -0.709231 0.498493
vn 0.000000 -0.384549 0.923105
vn -0.652733 -0.384550 0.652733
vn -0.269134 -0.924734 0.269134
vn 0.000000 -0.924734 0.380613
vn 0.000000 -0.709231 0.704976
vn -0.269134 -0.924734 0.269134
vn 0.000000 -0.709231 0.704976
vn -0.498494 -0.709231 0.498493
vn 0.000000 -0.924734 0.380613
vn -0.269134 -0.924734 0.269134
vn -0.000000 -0.990252 0.139285
vn -0.375970 0.913452 0.155731
vn -0.269134 0.924734 0.269134
vn 0.000000 0.990252 0.139286
vn -0.676715 0.680799 0.280303
vn -0.498494 0.709231 0.498493
vn -0.269134 0.924734 0.269134
vn -0.676715 0.680799 0.280303
vn -0.269134 0.924734 0.269134
vn -0.375970 0.913452 0.155731
vn -0.862224 0.359190 0.357144
vn -0.652733 0.384551 0.652733
vn -0.498494 0.709231 0.498493
vn -0.862224 0.359190 0.357144
vn -0.498494 0.709231 0.498493
vn -0.676715 0.680799 0.280303
vn -0.923879 0.000000 0.382684
vn -0.707106 0.000000 0.707107
vn -0.652733 0.384551 0.652733
vn -0.923879 0.000000 0.382684
vn -0.652733 0.384551 0.652733
vn -0.862224 0.359190 0.357144
vn -0.862224 -0.359190 0.357144
vn -0.652733 -0.384550 0.652733
vn -0.707106 0.000000 0.707107
vn -0.862224 -0.359190 0.357144
vn -0.707106 0.000000 0.707107
vn -0.923879 0.000000 0.382684
vn -0.676716 -0.680798 0.280303
vn -0.498494 -0.709231 0.498493
vn -0.652733 -0.384550 0.652733
vn -0.676716 -0.680798 0.280303
vn -0.652733 -0.384550 0.652733
vn -0.862224 -0.359190 0.357144
vn -0.375970 -0.913452 0.155731
vn -0.269134 -0.924734 0.269134
vn -0.498494 -0.709231 0.498493
vn -0.375970 -0.913452 0.155731
vn -0.498494 -0.709231 0.498493
vn -0.676716 -0.680798 0.280303
vn -0.269134 -0.924734 0.269134
vn -0.375970 -0.913452 0.155731
vn -0.000000 -0.990252 0.139285
vn 0.000000 -0.365072 -0.930979
vn 0.139710 -0.337287 -0.930977
vn 0.139710 -0.337287 -0.930977
vn 0.000000 -0.365072 -0.930979
vn 0.139710 -0.337287 -0.930977
vn 0.000000 -0.365072 -0.930979
vn 0.139710 -0.337287 -0.930977
vn 0.258152 -0.258152 -0.930976
vn 0.258152 -0.258152 -0.930976
vn 0.139710 -0.337287 -0.930977
vn 0.258152 -0.258152 -0.930976
vn 0.139710 -0.337287 -0.930977
vn 0.258152 -0.258152 -0.930976
vn 0.337286 -0.139710 -0.930977
vn 0.337286 -0.139710 -0.930977
vn 0.258152 -0.258152 -0.930976
vn 0.337286 -0.139710 -0.930977
vn 0.258152 -0.258152 -0.930976
vn 0.337286 -0.139710 -0.930977
vn 0.365072 -0.000000 -0.930979
vn 0.365072 -0.000000 -0.930979
vn 0.337286 -0.139710 -0.930977
vn 0.365072 -0.000000 -0.930979
vn 0.337286 -0.139710 -0.930977
vn 0.365072 -0.000000 -0.930979
vn 0.337286 0.139710 -0.930977
vn 0.337286 0.139710 -0.930977
vn 0.365072 -0.000000 -0.930979
vn 0.337286 0.139710 -0.930977
vn 0.365072 -0.000000 -0.930979
vn 0.337286 0.139710 -0.930977
vn 0.258151 0.258151 -0.930976
vn 0.258151 0.258151 -0.930976
vn 0.337286 0.139710 -0.930977
vn 0.258151 0.258151 -0.930976
vn 0.337286 0.139710 -0.930977
vn 0.258151 0.258151 -0.930976
vn 0.139710 0.337286 -0.930978
vn 0.139710 0.337286 -0.930978
vn 0.258151 0.258151 -0.930976
vn 0.139710 0.337286 -0.930978
vn 0.258151 0.258151 -0.930976
vn 0.139710 0.337286 -0.930978
vn 0.000000 0.365071 -0.930980
vn 0.000000 0.365071 -0.930980
vn 0.139710 0.337286 -0.930978
vn 0.000000 0.365071 -0.930980
vn 0.139710 0.337286 -0.930978
vn -0.139710 -0.337286 -0.930977
vn 0.000000 -0.365072 -0.930979
vn 0.000000 -0.365072 -0.930979
vn -0.139710 -0.337286 -0.930977
vn 0.000000 -0.365072 -0.930979
vn -0.139710 -0.337286 -0.930977
vn -0.258151 -0.258151 -0.930976
vn -0.139710 -0.337286 -0.930977
vn -0.139710 -0.337286 -0.930977
vn -0.258151 -0.258151 -0.930976
vn -0.139710 -0.337286 -0.930977
vn -0.258151 -0.258151 -0.930976
vn -0.337286 -0.139710 -0.930978
vn -0.258151 -0.258151 -0.930976
vn -0.258151 -0.258151 -0.930976
vn -0.337286 -0.139710 -0.930978
vn -0.258151 -0.258151 -0.930976
vn -0.337286 -0.139710 -0.930978
vn -0.365071 -0.000000 -0.930980
vn -0.337286 -0.139710 -0.930978
vn -0.337286 -0.139710 -0.930978
vn -0.365071 -0.000000 -0.930980
vn -0.337286 -0.139710 -0.930978
vn -0.365071 -0.000000 -0.930980
vn -0.337286 0.139710 -0.930978
vn -0.365071 -0.000000 -0.930980
vn -0.365071 -0.000000 -0.930980
vn -0.337286 0.139710 -0.930978
vn -0.365071 -0.000000 -0.930980
vn -0.337286 0.139710 -0.930978
vn -0.258151 0.258151 -0.930976
vn -0.337286 0.139710 -0.930978
vn -0.337286 0.139710 -0.930978
vn -0.258151 0.258151 -0.930976
vn -0.337286 0.139710 -0.930978
vn -0.258151 0.258151 -0.930976
vn -0.139710 0.337286 -0.930978
vn -0.258151 0.258151 -0.930976
vn -0.258151 0.258151 -0.930976
vn -0.139710 0.337286 -0.930978
vn -0.258151 0.258151 -0.930976
vn -0.139710 0.337286 -0.930978
vn 0.000000 0.365071 -0.930980
vn -0.139710 0.337286 -0.930978
vn -0.139710 0.337286 -0.930978
vn 0.000000 0.365071 -0.930980
vn -0.139710 0.337286 -0.930978
vn 0.000000 0.365071 -0.930980
f 37/1/1 47/2/2 39/3/3
f 36/4/4 48/5/5 47/6/6
f 36/7/7 47/8/8 37/9/9
f 35/10/10 49/11/11 48/12/12
f 35/13/13 48/14/14 36/15/15
f 34/16/16 50/17/17 49/18/18
f 34/19/19 49/20/20 35/21/21
f 33/22/22 51/23/23 50/24/24
f 33/25/25 50/26/26 34/27/27
f 32/28/28 52/29/29 51/30/30
f 32/31/31 51/32/32 33/33/33
f 31/34/34 53/35/35 52/36/36
f 31/37/37 52/38/38 32/39/39
f 53/40/40 31/41/41 46/42/42
f 30/43/43 37/44/44 39/45/45
f 29/46/46 36/47/47 37/48/48
f 29/49/49 37/50/50 30/51/51
f 28/52/52 35/53/53 36/54/54
f 28/55/55 36/56/56 29/57/57
f 27/58/58 34/59/59 35/60/60
f 27/61/61 35/62/62 28/63/63
f 26/64/64 33/65/65 34/66/66
f 26/67/67 34/68/68 27/69/69
f 25/70/70 32/71/71 33/72/72
f 25/73/73 33/74/74 26/75/75
f 24/76/76 31/77/77 32/78/78
f 24/79/79 32/80/80 25/81/81
f 31/82/82 24/83/83 46/84/84
f 23/85/85 30/86/86 39/87/87
f 22/88/88 29/89/89 30/90/90
f 22/91/91 30/92/92 23/93/93
f 21/94/94 28/95/95 29/96/96
f 21/97/97 29/98/98 22/99/99
f 20/100/100 27/101/101 28/102/102
f 20/103/103 28/104/104 21/105/105
f 19/106/106 26/107/107 27/108/108
f 19/109/109 27/110/110 20/111/111
f 18/112/112 25/113/113 26/114/114
f 18/115/115 26/116/116 19/117/117
f 17/118/118 24/119/119 25/120/120
f 17/121/121 25/122/122 18/123/123
f 24/124/124 17/125/125 46/126/126
f 38/127/127 23/128/128 39/129/129
f 40/130/130 22/131/131 23/132/132
f 40/133/133 23/134/134 38/135/135
f 41/136/136 21/137/137 22/138/138
f 41/139/139 22/140/140 40/141/141
f 42/142/142 20/143/143 21/144/144
f 42/145/145 21/146/146 41/147/147
f 43/148/148 19/149/149 20/150/150
f 43/151/151 20/152/152 42/153/153
f 44/154/154 18/155/155 19/156/156
f 44/157/157 19/158/158 43/159/159
f 45/160/160 17/161/161 18/162/162
f 45/163/163 18/164/164 44/165/165
f 17/166/166 45/167/167 46/168/168
f 2/169/169 16/170/170 38/171/171
f 2/172/172 38/173/173 39/174/174
f 16/175/175 15/176/176 40/177/177
f 16/178/178 40/179/179 38/180/180
f 15/181/181 14/182/182 41/183/183
f 15/184/184 41/185/185 40/186/186
f 14/187/187 13/188/188 42/189/189
f 14/190/190 42/191/191 41/192/192
f 13/193/193 12/194/194 43/195/195
f 13/196/196 43/197/197 42/198/198
f 12/199/199 11/200/200 44/201/201
f 12/202/202 44/203/203 43/204/204
f 11/205/205 10/206/206 45/207/207
f 11/208/208 45/209/209 44/210/210
f 10/211/211 1/212/212 46/213/213
f 10/214/214 46/215/215 45/216/216
f 9/217/217 2/218/218 39/219/219
f 9/220/220 39/221/221 47/222/222
f 8/223/223 9/224/224 47/225/225
f 8/226/226 47/227/227 48/228/228
f 7/229/229 8/230/230 48/231/231
f 7/232/232 48/233/233 49/234/234
f 6/235/235 7/236/236 49/237/237
f 6/238/238 49/239/239 50/240/240
f 5/241/241 6/242/242 50/243/243
f 5/244/244 50/245/245 51/246/246
f 4/247/247 5/248/248 51/249/249
f 4/250/250 51/251/251 52/252/252
f 3/253/253 4/254/254 52/255/255
f 3/256/256 52/257/257 53/258/258
f 1/259/259 3/260/260 53/261/261
f 1/262/262 53/263/263 46/264/264
