v 0.000000 -1.274670 0.000000
v 0.353730 -0.924341 -0.146520
v 0.568639 -0.577469 -0.235538
v 0.702843 -0.255548 -0.291127
v 0.146520 -0.924341 -0.353730
v 0.235538 -0.577469 -0.568639
v 0.291127 -0.255548 -0.702843
v -0.146520 -0.924341 -0.353730
v -0.235538 -0.577469 -0.568639
v -0.291127 -0.255548 -0.702843
v -0.353730 -0.924341 -0.146520
v -0.568639 -0.577469 -0.235538
v -0.702843 -0.255548 -0.291127
v -0.353730 -0.924341 0.146520
v -0.568639 -0.577469 0.235538
v -0.702843 -0.255548 0.291127
v -0.146520 -0.924341 0.353730
v -0.235538 -0.577469 0.568639
v -0.291127 -0.255548 0.702843
v 0.146520 -0.924341 0.353730
v 0.235538 -0.577469 0.568639
v 0.291127 -0.255548 0.702843
v 0.353730 -0.924341 0.146520
v 0.568639 -0.577469 0.235538
v 0.702843 -0.255548 0.291127
v 0.000000 -1.086547 0.445700
v 0.445700 -1.086547 -0.000000
v -0.000000 -1.086547 -0.445700
v -0.445700 -1.086547 0.000000
v 1.373728 -0.179269 -0.083520
v 1.373730 -0.179269 0.083517
v 1.483628 -0.271726 0.000000
v 0.083517 -0.179269 1.373732
v -0.083516 -0.179269 1.373732
v 0.000001 -0.271727 1.483630
v -1.373730 -0.179269 0.083521
v -1.373731 -0.179269 -0.083515
v -1.483629 -0.271727 0.000001
v -0.083520 -0.179268 -1.373727
v 0.083516 -0.179268 -1.373729
v -0.000000 -0.271726 -1.483627
v -0.000015 1.015647 -2.713729
v -2.713731 1.015639 0.000013
v 2.713730 1.015650 -0.000012
v -0.000002 1.015632 2.713731
v 0.000000 -0.616633 -0.000000
vt 0.000000 0.000000
vt 0.000000 0.000000
vt 0.000000 0.000000
vt 0.000000 0.000000
vt 0.000000 0.000000
vt 0.000000 0.000000
vt 0.000000 0.000000
vt 0.000000 0.000000
vt 0.000000 0.000000
vt 0.000000 0.000000
vt 0.000000 0.000000
vt 0.000000 0.000000
vt 0.000000 0.000000
vt 0.000000 0.000000
vt 0.000000 0.000000
vt 0.000000 0.000000
vt 0.000000 0.000000
vt 0.000000 0.000000
vt 0.000000 0.000000
vt 0.000000 0.000000
vt 0.000000 0.000000
vt 0.000000 0.000000
vt 0.000000 0.000000
vt 0.000000 0.000000
vt 0.000000 0.000000
vt 0.000000 0.000000
vt 0.000000 0.000000
vt 0.000000 0.000000
vt 0.000000 0.000000
vt 0.000000 0.000000
vt 0.000000 0.000000
vt 0.000000 0.000000
vt 0.000000 0.000000
vt 0.000000 0.000000
vt 0.000000 0.000000
vt 0.000000 0.000000
vt 0.000000 0.000000
vt 0.000000 0.000000
vt 0.000000 0.000000
vt 0.000000 0.000000
vt 0.000000 0.000000
vt 0.000000 0.000000
vt 0.000000 0.000000
vt 0.000000 0.000000
vt 0.000000 0.000000
vt 0.000000 0.000000
vt 0.000000 0.000000
vt 0.000000 0.000000
vt 0.000000 0.000000
vt 0.000000 0.000000
vt 0.000000 0.000000
vt 0.000000 0.000000
vt 0.000000 0.000000
vt 0.000000 0.000000
vt 0.000000 0.000000
vt 0.000000 0.000000
vt 0.000000 0.000000
vt 0.000000 0.000000
vt 0.000000 0.000000
vt 0.000000 0.000000
vt 0.000000 0.000000
vt 0.000000 0.000000
vt 0.000000 0.000000
vt 0.000000 0.000000
vt 0.000000 0.000000
vt 0.000000 0.000000
vt 0.000000 0.000000
vt 0.000000 0.000000
vt 0.000000 0.000000
vt 0.000000 0.000000
vt 0.000000 0.000000
vt 0.000000 0.000000
vt 0.000000 0.000000
vt 0.000000 0.000000
vt 0.000000 0.000000
vt 0.000000 0.000000
vt 0.000000 0.000000
vt 0.000000 0.000000
vt 0.000000 0.000000
vt 0.000000 0.000000
vt 0.000000 0.000000
vt 0.000000 0.000000
vt 0.000000 0.000000
vt 0.000000 0.000000
vt 0.000000 0.000000
vt 0.000000 0.000000
vt 0.000000 0.000000
vt 0.000000 0.000000
vt 0.000000 0.000000
vt 0.000000 0.000000
vt 0.000000 0.000000
vt 0.000000 0.000000
vt 0.000000 0.000000
vt 0.000000 0.000000
vt 0.000000 0.000000
vt 0.000000 0.000000
vt 0.000000 0.000000
vt 0.000000 0.000000
vt 0.000000 0.000000
vt 0.000000 0.000000
vt 0.000000 0.000000
vt 0.000000 0.000000
vt 0.000000 0.000000
vt 0.000000 0.000000
vt 0.000000 0.000000
vt 0.000000 0.000000
vt 0.000000 0.000000
vt 0.000000 0.000000
vt 0.000000 0.000000
vt 0.000000 0.000000
vt 0.000000 0.000000
vt 0.000000 0.000000
vt 0.000000 0.000000
vt 0.000000 0.000000
vt 0.000000 0.000000
vt 0.000000 0.000000
vt 0.000000 0.000000
vt 0.000000 0.000000
vt 0.000000 0.000000
vt 0.000000 0.000000
vt 0.000000 0.000000
vt 0.000000 0.000000
vt 0.000000 0.000000
vt 0.000000 0.000000
vt 0.000000 0.000000
vt 0.000000 0.000000
vt 0.000000 0.000000
vt 0.000000 0.000000
vt 0.000000 0.000000
vt 0.000000 0.000000
vt 0.000000 0.000000
vt 0.000000 0.000000
vt 0.000000 0.000000
vt 0.000000 0.000000
vt 0.000000 0.000000
vt 0.000000 0.000000
vt 0.000000 0.000000
vt 0.000000 0.000000
vt 0.000000 0.000000
vt 0.000000 0.000000
vt 0.000000 0.000000
vt 0.000000 0.000000
vt 0.000000 0.000000
vt 0.000000 0.000000
vt 0.000000 0.000000
vt 0.000000 0.000000
vt 0.000000 0.000000
vt 0.000000 0.000000
vt 0.000000 0.000000
vt 0.000000 0.000000
vt 0.000000 0.000000
vt 0.000000 0.000000
vt 0.000000 0.000000
vt 0.000000 0.000000
vt 0.000000 0.000000
vt 0.000000 0.000000
vt 0.000000 0.000000
vt 0.000000 0.000000
vt 0.000000 0.000000
vt 0.000000 0.000000
vt 0.000000 0.000000
vt 0.000000 0.000000
vt 0.000000 0.000000
vt 0.000000 0.000000
vt 0.000000 0.000000
vt 0.000000 0.000000
vt 0.000000 0.000000
vt 0.000000 0.000000
vt 0.000000 0.000000
vt 0.000000 0.000000
vt 0.000000 0.000000
vt 0.000000 0.000000
vt 0.000000 0.000000
vt 0.000000 0.000000
vt 0.000000 0.000000
vt 0.000000 0.000000
vt 0.000000 0.000000
vt 0.000000 0.000000
vt 0.000000 0.000000
vt 0.000000 0.000000
vt 0.000000 0.000000
vt 0.000000 0.000000
vt 0.000000 0.000000
vt 0.000000 0.000000
vt 0.000000 0.000000
vt 0.000000 0.000000
vt 0.000000 0.000000
vt 0.000000 0.000000
vt 0.000000 0.000000
vt 0.000000 0.000000
vt 0.000000 0.000000
vt 0.000000 0.000000
vt 0.000000 0.000000
vt 0.000000 0.000000
vt 0.000000 0.000000
vt 0.000000 0.000000
vt 0.000000 0.000000
vt 0.000000 0.000000
vt 0.000000 0.000000
vt 0.000000 0.000000
vt 0.000000 0.000000
vt 0.000000 0.000000
vt 0.000000 0.000000
vt 0.000000 0.000000
vt 0.000000 0.000000
vt 0.000000 0.000000
vt 0.000000 0.000000
vt 0.000000 0.000000
vt 0.000000 0.000000
vt 0.000000 0.000000
vt 0.000000 0.000000
vt 0.000000 0.000000
vt 0.000000 0.000000
vt 0.000000 0.000000
vt 0.000000 0.000000
vt 0.000000 0.000000
vt 0.000000 0.000000
vt 0.000000 0.000000
vt 0.000000 0.000000
vt 0.000000 0.000000
vt 0.000000 0.000000
vt 0.000000 0.000000
vt 0.000000 0.000000
vt 0.000000 0.000000
vt 0.000000 0.000000
vt 0.000000 0.000000
vt 0.000000 0.000000
vt 0.000000 0.000000
vt 0.000000 0.000000
vt 0.000000 0.000000
vt 0.000000 0.000000
vt 0.000000 0.000000
vt 0.000000 0.000000
vt 0.000000 0.000000
vt 0.000000 0.000000
vt 0.000000 0.000000
vt 0.000000 0.000000
vt 0.000000 0.000000
vt 0.000000 0.000000
vt 0.000000 0.000000
vt 0.000000 0.000000
vt 0.000000 0.000000
vt 0.000000 0.000000
vt 0.000000 0.000000
vt 0.000000 0.000000
vt 0.000000 0.000000
vt 0.000000 0.000000
vt 0.000000 0.000000
vt 0.000000 0.000000
vt 0.000000 0.000000
vt 0.000000 0.000000
vt 0.000000 0.000000
vt 0.000000 0.000000
vt 0.000000 0.000000
vt 0.000000 0.000000
vt 0.000000 0.000000
vt 0.000000 0.000000
vt 0.000000 0.000000
vt 0.000000 0.000000
vt 0.000000 0.000000
vt 0.000000 0.000000
vt 0.000000 0.000000
vt 0.000000 0.000000
vt 0.000000 0.000000
vn 0.581289 -0.599494 -0.550191
vn 0.550191 -0.599495 -0.581288
vn 0.535957 -0.652304 -0.535957
vn 0.550191 -0.599495 -0.581288
vn 0.581289 -0.599494 -0.550191
vn 0.334404 -0.486213 -0.807323
vn 0.550191 -0.599495 -0.581288
vn 0.334404 -0.486213 -0.807323
vn 0.807323 -0.486213 -0.334404
vn 0.807323 -0.486213 -0.334404
vn 0.334404 -0.486213 -0.807323
vn 0.348816 -0.411299 -0.842116
vn 0.807323 -0.486213 -0.334404
vn 0.348816 -0.411299 -0.842116
vn 0.842117 -0.411299 -0.348816
vn 0.841402 -0.398602 0.364909
vn 0.841402 -0.398602 0.364909
vn 0.864023 -0.347807 0.363998
vn -0.841403 -0.398602 0.364908
vn -0.841403 -0.398602 0.364908
vn -0.864024 -0.347808 0.363995
vn 0.364914 -0.398610 -0.841397
vn 0.364914 -0.398610 -0.841397
vn 0.364005 -0.347819 -0.864016
vn 0.364912 -0.398599 0.841402
vn 0.364912 -0.398599 0.841402
vn 0.364004 -0.347801 0.864023
vn -0.841397 -0.398610 -0.364913
vn -0.841397 -0.398610 -0.364913
vn -0.864016 -0.347819 -0.364003
vn 0.803384 -0.511907 -0.304180
vn 0.581289 -0.599494 -0.550191
vn 0.535957 -0.652304 -0.535957
vn 0.000004 0.777853 0.628446
vn 0.000004 0.777853 0.628446
vn 0.000007 0.746356 0.665547
vn 0.334404 -0.486213 -0.807323
vn -0.334404 -0.486213 -0.807323
vn -0.348816 -0.411299 -0.842117
vn 0.334404 -0.486213 -0.807323
vn -0.348816 -0.411299 -0.842117
vn 0.348816 -0.411299 -0.842116
vn 0.841402 -0.398599 -0.364913
vn 0.841402 -0.398599 -0.364913
vn 0.864023 -0.347800 -0.364004
vn -0.364913 -0.398611 0.841396
vn -0.364913 -0.398611 0.841396
vn -0.364003 -0.347821 0.864015
vn -0.364911 -0.398600 -0.841402
vn -0.364911 -0.398600 -0.841402
vn -0.364002 -0.347802 -0.864023
vn -0.803382 -0.511909 -0.304181
vn -0.581288 -0.599495 -0.550191
vn -0.841397 -0.398610 -0.364913
vn -0.803382 -0.511909 -0.304181
vn -0.841397 -0.398610 -0.364913
vn -0.841397 -0.398610 -0.364913
vn 0.581289 -0.599494 -0.550191
vn 0.803384 -0.511907 -0.304180
vn 0.841402 -0.398599 -0.364913
vn 0.581289 -0.599494 -0.550191
vn 0.841402 -0.398599 -0.364913
vn 0.841402 -0.398599 -0.364913
vn -0.550191 -0.599495 -0.581289
vn -0.581288 -0.599495 -0.550191
vn -0.535957 -0.652304 -0.535957
vn -0.581288 -0.599495 -0.550191
vn -0.550191 -0.599495 -0.581289
vn -0.807323 -0.486213 -0.334404
vn -0.581288 -0.599495 -0.550191
vn -0.807323 -0.486213 -0.334404
vn -0.334404 -0.486213 -0.807323
vn -0.334404 -0.486213 -0.807323
vn -0.807323 -0.486213 -0.334404
vn -0.842116 -0.411299 -0.348816
vn -0.334404 -0.486213 -0.807323
vn -0.842116 -0.411299 -0.348816
vn -0.348816 -0.411299 -0.842117
vn 0.000002 0.807508 0.589856
vn 0.000002 0.807508 0.589856
vn 0.000004 0.777853 0.628446
vn 0.000002 0.807508 0.589856
vn 0.000004 0.777853 0.628446
vn 0.000004 0.777853 0.628446
vn -0.304181 -0.511910 0.803382
vn -0.550191 -0.599495 0.581288
vn -0.364913 -0.398611 0.841396
vn -0.304181 -0.511910 0.803382
vn -0.364913 -0.398611 0.841396
vn -0.364913 -0.398611 0.841396
vn -0.550191 -0.599495 -0.581289
vn -0.304180 -0.511907 -0.803384
vn -0.364911 -0.398600 -0.841402
vn -0.550191 -0.599495 -0.581289
vn -0.364911 -0.398600 -0.841402
vn -0.364911 -0.398600 -0.841402
vn 0.589855 0.807509 -0.000002
vn 0.589855 0.807509 -0.000002
vn 0.628444 0.777855 -0.000004
vn 0.589855 0.807509 -0.000002
vn 0.628444 0.777855 -0.000004
vn 0.628444 0.777855 -0.000004
vn 0.803384 -0.511908 0.304180
vn 0.581289 -0.599495 0.550190
vn 0.841402 -0.398602 0.364909
vn 0.803384 -0.511908 0.304180
vn 0.841402 -0.398602 0.364909
vn 0.841402 -0.398602 0.364909
vn -0.304180 -0.511907 -0.803384
vn -0.550191 -0.599495 -0.581289
vn -0.535957 -0.652304 -0.535957
vn 0.628444 0.777855 -0.000004
vn 0.628444 0.777855 -0.000004
vn 0.665544 0.746359 -0.000005
vn -0.807323 -0.486213 -0.334404
vn -0.807323 -0.486213 0.334404
vn -0.842117 -0.411299 0.348816
vn -0.807323 -0.486213 -0.334404
vn -0.842117 -0.411299 0.348816
vn -0.842116 -0.411299 -0.348816
vn -0.581289 -0.599494 0.550190
vn -0.803384 -0.511907 0.304180
vn -0.841403 -0.398602 0.364908
vn -0.581289 -0.599494 0.550190
vn -0.841403 -0.398602 0.364908
vn -0.841403 -0.398602 0.364908
vn 0.000001 0.807509 -0.589855
vn 0.000001 0.807509 -0.589855
vn 0.000001 0.777856 -0.628443
vn 0.000001 0.807509 -0.589855
vn 0.000001 0.777856 -0.628443
vn 0.000001 0.777856 -0.628443
vn 0.304181 -0.511909 -0.803382
vn 0.550191 -0.599495 -0.581288
vn 0.364914 -0.398610 -0.841397
vn 0.304181 -0.511909 -0.803382
vn 0.364914 -0.398610 -0.841397
vn 0.364914 -0.398610 -0.841397
vn 0.550190 -0.599495 0.581289
vn 0.304180 -0.511908 0.803384
vn 0.364912 -0.398599 0.841402
vn 0.550190 -0.599495 0.581289
vn 0.364912 -0.398599 0.841402
vn 0.364912 -0.398599 0.841402
vn -0.589856 0.807509 0.000002
vn -0.589856 0.807509 0.000002
vn -0.628446 0.777853 0.000003
vn -0.589856 0.807509 0.000002
vn -0.628446 0.777853 0.000003
vn -0.628446 0.777853 0.000003
vn -0.581289 -0.599494 0.550190
vn -0.550191 -0.599495 0.581288
vn -0.535957 -0.652304 0.535957
vn -0.550191 -0.599495 0.581288
vn -0.581289 -0.599494 0.550190
vn -0.334404 -0.486213 0.807323
vn -0.550191 -0.599495 0.581288
vn -0.334404 -0.486213 0.807323
vn -0.807323 -0.486213 0.334404
vn -0.807323 -0.486213 0.334404
vn -0.334404 -0.486213 0.807323
vn -0.348816 -0.411299 0.842116
vn -0.807323 -0.486213 0.334404
vn -0.348816 -0.411299 0.842116
vn -0.842117 -0.411299 0.348816
vn -0.550191 -0.599495 0.581288
vn -0.807323 -0.486213 0.334404
vn -0.807323 -0.486213 -0.334404
vn -0.550191 -0.599495 0.581288
vn -0.807323 -0.486213 -0.334404
vn -0.550191 -0.599495 -0.581289
vn -0.581288 -0.599495 -0.550191
vn -0.334404 -0.486213 -0.807323
vn 0.334404 -0.486213 -0.807323
vn -0.581288 -0.599495 -0.550191
vn 0.334404 -0.486213 -0.807323
vn 0.581289 -0.599494 -0.550191
vn 0.550191 -0.599495 -0.581288
vn 0.807323 -0.486213 -0.334404
vn 0.807323 -0.486213 0.334404
vn 0.550191 -0.599495 -0.581288
vn 0.807323 -0.486213 0.334404
vn 0.550190 -0.599495 0.581289
vn 0.581289 -0.599495 0.550190
vn 0.334404 -0.486213 0.807323
vn -0.334404 -0.486213 0.807323
vn 0.581289 -0.599495 0.550190
vn -0.334404 -0.486213 0.807323
vn -0.581289 -0.599494 0.550190
vn -0.535957 -0.652304 -0.535957
vn -0.581288 -0.599495 -0.550191
vn -0.803382 -0.511909 -0.304181
vn -0.803384 -0.511907 0.304180
vn -0.581289 -0.599494 0.550190
vn -0.535957 -0.652304 0.535957
vn 0.000001 0.777856 -0.628443
vn 0.000001 0.777856 -0.628443
vn 0.000002 0.746360 -0.665542
vn -0.334404 -0.486213 0.807323
vn 0.334404 -0.486213 0.807323
vn 0.348816 -0.411299 0.842117
vn -0.334404 -0.486213 0.807323
vn 0.348816 -0.411299 0.842117
vn -0.348816 -0.411299 0.842116
vn 0.535957 -0.652304 -0.535957
vn 0.550191 -0.599495 -0.581288
vn 0.304181 -0.511909 -0.803382
vn 0.535957 -0.652304 0.535957
vn 0.581289 -0.599495 0.550190
vn 0.803384 -0.511908 0.304180
vn -0.535957 -0.652304 0.535957
vn -0.550191 -0.599495 0.581288
vn -0.304181 -0.511910 0.803382
vn 0.807323 -0.486213 0.334404
vn 0.807323 -0.486213 -0.334404
vn 0.842117 -0.411299 -0.348816
vn 0.807323 -0.486213 0.334404
vn 0.842117 -0.411299 -0.348816
vn 0.842116 -0.411299 0.348816
vn -0.628446 0.777853 0.000003
vn -0.628446 0.777853 0.000003
vn -0.665548 0.746355 0.000005
vn 0.550190 -0.599495 0.581289
vn 0.581289 -0.599495 0.550190
vn 0.535957 -0.652304 0.535957
vn 0.581289 -0.599495 0.550190
vn 0.550190 -0.599495 0.581289
vn 0.807323 -0.486213 0.334404
vn 0.581289 -0.599495 0.550190
vn 0.807323 -0.486213 0.334404
vn 0.334404 -0.486213 0.807323
vn 0.334404 -0.486213 0.807323
vn 0.807323 -0.486213 0.334404
vn 0.842116 -0.411299 0.348816
vn 0.334404 -0.486213 0.807323
vn 0.842116 -0.411299 0.348816
vn 0.348816 -0.411299 0.842117
vn 0.304180 -0.511908 0.803384
vn 0.550190 -0.599495 0.581289
vn 0.535957 -0.652304 0.535957
vn 0.396153 0.903403 0.164092
vn 0.396153 0.903403 -0.164092
vn 0.000000 1.000000 -0.000000
vn -0.396153 0.903403 -0.164092
vn -0.396153 0.903403 0.164092
vn 0.000000 1.000000 -0.000000
vn 0.000000 1.000000 -0.000000
vn 0.396153 0.903403 -0.164092
vn 0.164092 0.903403 -0.396153
vn 0.000000 1.000000 -0.000000
vn 0.164092 0.903403 -0.396153
vn -0.164092 0.903403 -0.396153
vn 0.000000 1.000000 -0.000000
vn -0.396153 0.903403 0.164092
vn -0.164092 0.903403 0.396153
vn 0.000000 1.000000 -0.000000
vn 0.164092 0.903403 0.396153
vn 0.396153 0.903403 0.164092
vn 0.000000 1.000000 -0.000000
vn -0.164092 0.903403 -0.396153
vn -0.396153 0.903403 -0.164092
vn -0.164092 0.903403 0.396153
vn 0.164092 0.903403 0.396153
vn 0.000000 1.000000 -0.000000
f 5/1/1 2/2/2 1/3/3
f 2/4/4 5/5/5 6/6/6
f 2/7/7 6/8/8 3/9/9
f 3/10/10 6/11/11 7/12/12
f 3/13/13 7/14/14 4/15/15
f 35/16/16 33/17/17 45/18/18
f 34/19/19 35/20/20 45/21/21
f 32/22/22 30/23/23 44/24/24
f 31/25/25 32/26/26 44/27/27
f 41/28/28 39/29/29 42/30/30
f 28/31/31 5/32/32 1/33/33
f 39/34/34 40/35/35 42/36/36
f 6/37/37 9/38/38 10/39/39
f 6/40/40 10/41/41 7/42/42
f 40/43/43 41/44/44 42/45/45
f 38/46/46 36/47/47 43/48/48
f 37/49/49 38/50/50 43/51/51
f 28/52/52 8/53/53 39/54/54
f 28/55/55 39/56/56 41/57/57
f 5/58/58 28/59/59 41/60/60
f 5/61/61 41/62/62 40/63/63
f 11/64/64 8/65/65 1/66/66
f 8/67/67 11/68/68 12/69/69
f 8/70/70 12/71/71 9/72/72
f 9/73/73 12/74/74 13/75/75
f 9/76/76 13/77/77 10/78/78
f 8/79/79 5/80/80 40/81/81
f 8/82/82 40/83/83 39/84/84
f 29/85/85 14/86/86 36/87/87
f 29/88/88 36/89/89 38/90/90
f 11/91/91 29/92/92 38/93/93
f 11/94/94 38/95/95 37/96/96
f 14/97/97 11/98/98 37/99/99
f 14/100/100 37/101/101 36/102/102
f 26/103/103 20/104/104 33/105/105
f 26/106/106 33/107/107 35/108/108
f 29/109/109 11/110/110 1/111/111
f 36/112/112 37/113/113 43/114/114
f 12/115/115 15/116/116 16/117/117
f 12/118/118 16/119/119 13/120/120
f 17/121/121 26/122/122 35/123/123
f 17/124/124 35/125/125 34/126/126
f 20/127/127 17/128/128 34/129/129
f 20/130/130 34/131/131 33/132/132
f 27/133/133 2/134/134 30/135/135
f 27/136/136 30/137/137 32/138/138
f 23/139/139 27/140/140 32/141/141
f 23/142/142 32/143/143 31/144/144
f 2/145/145 23/146/146 31/147/147
f 2/148/148 31/149/149 30/150/150
f 17/151/151 14/152/152 1/153/153
f 14/154/154 17/155/155 18/156/156
f 14/157/157 18/158/158 15/159/159
f 15/160/160 18/161/161 19/162/162
f 15/163/163 19/164/164 16/165/165
f 14/166/166 15/167/167 12/168/168
f 14/169/169 12/170/170 11/171/171
f 8/172/172 9/173/173 6/174/174
f 8/175/175 6/176/176 5/177/177
f 2/178/178 3/179/179 24/180/180
f 2/181/181 24/182/182 23/183/183
f 20/184/184 21/185/185 18/186/186
f 20/187/187 18/188/188 17/189/189
f 1/190/190 8/191/191 28/192/192
f 26/193/193 17/194/194 1/195/195
f 33/196/196 34/197/197 45/198/198
f 18/199/199 21/200/200 22/201/201
f 18/202/202 22/203/203 19/204/204
f 1/205/205 2/206/206 27/207/207
f 1/208/208 20/209/209 26/210/210
f 1/211/211 14/212/212 29/213/213
f 24/214/214 3/215/215 4/216/216
f 24/217/217 4/218/218 25/219/219
f 30/220/220 31/221/221 44/222/222
f 23/223/223 20/224/224 1/225/225
f 20/226/226 23/227/227 24/228/228
f 20/229/229 24/230/230 21/231/231
f 21/232/232 24/233/233 25/234/234
f 21/235/235 25/236/236 22/237/237
f 27/238/238 23/239/239 1/240/240
f 13/241/241 16/242/242 46/243/243
f 25/244/244 4/245/245 46/246/246
f 46/247/247 16/248/248 19/249/249
f 46/250/250 19/251/251 22/252/252
f 46/253/253 4/254/254 7/255/255
f 46/256/256 10/257/257 13/258/258
f 46/259/259 22/260/260 25/261/261
f 7/262/262 10/263/263 46/264/264
