v -1.301123 1.108788 -0.448541
v -0.602863 1.108788 1.237203
v -0.382875 0.363715 0.000000
v -0.270733 0.363715 0.270733
v 0.448540 1.108788 -1.301120
v 0.000000 0.363715 -0.382875
v -0.270733 0.363715 -0.270733
v -1.237202 1.108788 -0.602862
v 0.270733 0.363715 -0.270733
v 0.602862 1.108788 -1.237200
v 0.382875 0.363715 0.000000
v 1.301121 1.108788 0.448541
v 0.270733 0.363715 0.270733
v 1.237200 1.108788 0.602863
v 0.000000 0.363715 0.382875
v -0.448545 1.108788 1.301123
v 0.394328 0.795755 0.951993
v 0.815764 0.887750 0.777428
v -0.027109 0.887750 1.126558
v -0.951993 0.795755 0.394331
v -0.777428 0.887750 0.815767
v -1.126558 0.887750 -0.027105
v -0.394331 0.795755 -0.951991
v -0.815767 0.887750 -0.777427
v 0.027105 0.887750 -1.126556
v 0.951992 0.795755 -0.394330
v 0.777427 0.887750 -0.815765
v 1.126556 0.887750 0.027106
vt 0.000000 0.000000
vt 0.000000 0.000000
vt 0.000000 0.000000
vt 0.000000 0.000000
vt 0.000000 0.000000
vt 0.000000 0.000000
vt 0.000000 0.000000
vt 0.000000 0.000000
vt 0.000000 0.000000
vt 0.000000 0.000000
vt 0.000000 0.000000
vt 0.000000 0.000000
vt 0.000000 0.000000
vt 0.000000 0.000000
vt 0.000000 0.000000
vt 0.000000 0.000000
vt 0.000000 0.000000
vt 0.000000 0.000000
vt 0.000000 0.000000
vt 0.000000 0.000000
vt 0.000000 0.000000
vt 0.000000 0.000000
vt 0.000000 0.000000
vt 0.000000 0.000000
vt 0.000000 0.000000
vt 0.000000 0.000000
vt 0.000000 0.000000
vt 0.000000 0.000000
vt 0.000000 0.000000
vt 0.000000 0.000000
vt 0.000000 0.000000
vt 0.000000 0.000000
vt 0.000000 0.000000
vt 0.000000 0.000000
vt 0.000000 0.000000
vt 0.000000 0.000000
vt 0.000000 0.000000
vt 0.000000 0.000000
vt 0.000000 0.000000
vt 0.000000 0.000000
vt 0.000000 0.000000
vt 0.000000 0.000000
vt 0.000000 0.000000
vt 0.000000 0.000000
vt 0.000000 0.000000
vt 0.000000 0.000000
vt 0.000000 0.000000
vt 0.000000 0.000000
vt 0.000000 0.000000
vt 0.000000 0.000000
vt 0.000000 0.000000
vt 0.000000 0.000000
vt 0.000000 0.000000
vt 0.000000 0.000000
vt 0.000000 0.000000
vt 0.000000 0.000000
vt 0.000000 0.000000
vt 0.000000 0.000000
vt 0.000000 0.000000
vt 0.000000 0.000000
vn 0.359183 0.816821 -0.451433
vn 0.262007 0.805758 -0.531137
vn 0.409084 0.833004 -0.372497
vn 0.025872 0.833003 0.552663
vn -0.190302 0.805756 0.560840
vn -0.065228 0.816819 0.573194
vn -0.025872 0.833004 -0.552661
vn 0.190302 0.805758 -0.560838
vn 0.065229 0.816821 -0.573192
vn -0.552663 0.833003 0.025873
vn -0.560840 0.805757 -0.190302
vn -0.573194 0.816820 -0.065228
vn -0.359185 0.816820 0.451433
vn -0.262008 0.805757 0.531138
vn -0.409085 0.833003 0.372498
vn -0.552663 0.833003 0.025873
vn -0.573194 0.816820 -0.065228
vn -0.512778 0.831833 0.212400
vn 0.451433 0.816820 0.359184
vn 0.531137 0.805758 0.262008
vn 0.372497 0.833004 0.409085
vn 0.025872 0.833003 0.552663
vn -0.065228 0.816819 0.573194
vn 0.212400 0.831833 0.512778
vn 0.372497 0.833004 0.409085
vn 0.212400 0.831833 0.512778
vn 0.451433 0.816820 0.359184
vn 0.212400 0.831833 0.512778
vn 0.372497 0.833004 0.409085
vn 0.025872 0.833003 0.552663
vn -0.512778 0.831833 0.212400
vn -0.359185 0.816820 0.451433
vn -0.409085 0.833003 0.372498
vn -0.512778 0.831833 0.212400
vn -0.409085 0.833003 0.372498
vn -0.552663 0.833003 0.025873
vn -0.451433 0.816820 -0.359185
vn -0.531137 0.805757 -0.262009
vn -0.372497 0.833004 -0.409085
vn -0.212400 0.831833 -0.512777
vn -0.451433 0.816820 -0.359185
vn -0.372497 0.833004 -0.409085
vn -0.212400 0.831833 -0.512777
vn -0.372497 0.833004 -0.409085
vn -0.025872 0.833004 -0.552661
vn 0.065229 0.816821 -0.573192
vn -0.212400 0.831833 -0.512777
vn -0.025872 0.833004 -0.552661
vn 0.552662 0.833004 -0.025872
vn 0.560839 0.805757 0.190302
vn 0.573193 0.816820 0.065228
vn 0.512777 0.831833 -0.212400
vn 0.359183 0.816821 -0.451433
vn 0.409084 0.833004 -0.372497
vn 0.512777 0.831833 -0.212400
vn 0.409084 0.833004 -0.372497
vn 0.552662 0.833004 -0.025872
vn 0.573193 0.816820 0.065228
vn 0.512777 0.831833 -0.212400
vn 0.552662 0.833004 -0.025872
f 21/1/1 2/2/2 4/3/3
f 6/4/4 5/5/5 25/6/6
f 15/7/7 16/8/8 19/9/9
f 11/10/10 12/11/11 28/12/12
f 27/13/13 10/14/14 9/15/15
f 11/16/16 28/17/17 26/18/18
f 24/19/19 8/20/20 7/21/21
f 6/22/22 25/23/23 23/24/24
f 7/25/25 23/26/26 24/27/27
f 23/28/28 7/29/29 6/30/30
f 26/31/31 27/32/32 9/33/33
f 26/34/34 9/35/35 11/36/36
f 18/37/37 14/38/38 13/39/39
f 17/40/40 18/41/41 13/42/42
f 17/43/43 13/44/44 15/45/45
f 19/46/46 17/47/47 15/48/48
f 3/49/49 1/50/50 22/51/51
f 20/52/52 21/53/53 4/54/54
f 20/55/55 4/56/56 3/57/57
f 22/58/58 20/59/59 3/60/60
