v -1.435274 0.524289 -0.499821
v -1.371302 3.595842 -0.809286
v 0.000000 0.494879 -0.503187
v 0.701849 2.535532 1.718281
v -0.701849 2.535532 1.718281
v 1.435274 0.524289 -0.499821
v -1.371302 3.595842 0.359071
v -0.704720 2.896638 -1.224356
v 0.704720 2.896638 -1.224356
v 0.427356 0.019786 -0.251369
v -0.427356 0.019786 -0.251369
v -0.703066 3.068185 -0.945144
v -0.703066 3.068185 0.427856
v 0.703066 3.068185 0.427856
v 0.703066 3.068185 -0.945144
v -0.771079 1.756209 -1.345879
v 2.042768 2.296499 -0.812049
v 2.042768 2.296499 0.364797
v 0.771079 1.756209 -1.345879
v 1.371302 3.595842 -0.809286
v 1.371302 3.595842 0.359071
v -2.516448 3.338930 0.364797
v -2.516448 3.338930 -0.812049
v 2.516448 3.338930 -0.812049
v 2.516448 3.338930 0.364797
v -1.609263 1.756209 -1.034951
v 1.855629 1.756209 0.424902
v 1.609263 1.756209 -1.034951
vt 0.471287 0.557233
vt 0.472343 0.766102
vt 0.643242 0.767079
vt 0.471287 0.557233
vt 0.643242 0.767079
vt 0.643162 0.558209
vt 0.152011 0.992188
vt 0.002604 0.948991
vt 0.005208 0.941179
vt 0.152011 0.992188
vt 0.005208 0.941179
vt 0.153314 0.986979
vt 0.275671 0.996979
vt 0.276973 0.920156
vt 0.479538 0.920156
vt 0.275671 0.996979
vt 0.479538 0.920156
vt 0.479538 0.996979
vt 0.471287 0.557233
vt 0.643162 0.558209
vt 0.656235 0.449048
vt 0.471287 0.557233
vt 0.656235 0.449048
vt 0.471419 0.448071
vt 0.152011 0.992188
vt 0.002604 0.948991
vt 0.005208 0.941179
vt 0.152011 0.992188
vt 0.005208 0.941179
vt 0.153314 0.986979
vt 0.272134 0.830247
vt 0.484743 0.830247
vt 0.484929 0.904332
vt 0.272134 0.830247
vt 0.484929 0.904332
vt 0.271948 0.904332
vt 0.153314 0.986979
vt 0.005208 0.941179
vt 0.002604 0.948991
vt 0.153314 0.986979
vt 0.002604 0.948991
vt 0.152011 0.992188
vt 0.182858 0.714861
vt 0.153446 0.717139
vt 0.153446 0.717139
vt 0.128034 0.756806
vt 0.114682 0.690980
vt 0.185610 0.797051
vt 0.128034 0.756806
vt 0.185610 0.797051
vt 0.142775 0.748279
vt 0.313202 0.592724
vt 0.313113 0.753962
vt 0.445676 0.753962
vt 0.313202 0.592724
vt 0.445676 0.753962
vt 0.446563 0.592724
vt 0.128034 0.756806
vt 0.114682 0.690980
vt 0.185610 0.797051
vt 0.128034 0.756806
vt 0.185610 0.797051
vt 0.142775 0.748279
vt 0.185610 0.797051
vt 0.119565 0.696839
vt 0.005208 0.941179
vt 0.185610 0.797051
vt 0.005208 0.941179
vt 0.153314 0.986979
vt 0.185610 0.797051
vt 0.153314 0.986979
vt 0.005208 0.941179
vt 0.128034 0.756806
vt 0.114682 0.690980
vt 0.185610 0.797051
vt 0.128034 0.756806
vt 0.185610 0.797051
vt 0.142775 0.748279
vt 0.639336 0.759266
vt 0.597343 0.570790
vt 0.635350 0.474225
vt 0.635439 0.671778
vt 0.554688 0.533875
vt 0.473936 0.671778
vt 0.128034 0.756806
vt 0.114682 0.690980
vt 0.185610 0.797051
vt 0.128034 0.756806
vt 0.114682 0.690980
vt 0.185610 0.797051
vt 0.128034 0.756806
vt 0.114682 0.690980
vt 0.185610 0.797051
vt 0.003034 0.948212
vt 0.119565 0.696839
vt 0.153314 0.986979
vt 0.003034 0.948212
vt 0.153314 0.986979
vt 0.005208 0.941179
vt 0.003034 0.948212
vt 0.005208 0.941179
vt 0.153314 0.986979
vt 0.152011 0.992188
vt 0.002604 0.948991
vt 0.005208 0.941179
vt 0.152011 0.992188
vt 0.005208 0.941179
vt 0.153314 0.986979
vt 0.128034 0.756806
vt 0.114682 0.690980
vt 0.185610 0.797051
vn 0.891491 -0.451207 -0.040692
vn 0.910417 -0.413692 0.000000
vn 0.910417 -0.413692 0.000000
vn 0.891491 -0.451207 -0.040692
vn 0.910417 -0.413692 0.000000
vn 0.891491 -0.451207 -0.040692
vn -0.218907 0.975746 0.000000
vn -0.218907 0.975746 0.000000
vn -0.218907 0.975746 0.000000
vn -0.218907 0.975746 0.000000
vn -0.218907 0.975746 0.000000
vn -0.218907 0.975746 0.000000
vn 0.000000 1.000000 0.000000
vn 0.000000 1.000000 0.000000
vn 0.000000 1.000000 0.000000
vn 0.000000 1.000000 0.000000
vn 0.000000 1.000000 0.000000
vn 0.000000 1.000000 0.000000
vn 0.891491 -0.451207 -0.040692
vn 0.891491 -0.451207 -0.040692
vn 0.928108 -0.351235 -0.123488
vn 0.891491 -0.451207 -0.040692
vn 0.928108 -0.351235 -0.123488
vn 0.928108 -0.351235 -0.123488
vn -0.619718 0.784824 0.000000
vn -0.619718 0.784824 0.000000
vn -0.619718 0.784824 0.000000
vn -0.619718 0.784824 0.000000
vn -0.619718 0.784824 0.000000
vn -0.619718 0.784824 0.000000
vn -0.128759 0.916612 0.378474
vn 0.128759 0.916612 0.378474
vn 0.128759 0.916612 0.378474
vn -0.128759 0.916612 0.378474
vn 0.128759 0.916612 0.378474
vn -0.128759 0.916612 0.378474
vn 0.218907 0.975746 0.000000
vn 0.218907 0.975746 0.000000
vn 0.218907 0.975746 0.000000
vn 0.218907 0.975746 0.000000
vn 0.218907 0.975746 0.000000
vn 0.218907 0.975746 0.000000
vn 0.964706 -0.206969 -0.162804
vn 0.928108 -0.351235 -0.123488
vn 0.928108 -0.351235 -0.123488
vn 0.000000 0.852035 -0.523485
vn 0.000000 0.852035 -0.523485
vn 0.000000 0.852035 -0.523485
vn 0.000000 0.852035 -0.523485
vn 0.000000 0.852035 -0.523485
vn 0.000000 0.852035 -0.523485
vn 0.000000 0.105959 -0.994370
vn 0.000000 0.105959 -0.994370
vn 0.000000 0.105959 -0.994370
vn 0.000000 0.105959 -0.994370
vn 0.000000 0.105959 -0.994370
vn 0.000000 0.105959 -0.994370
vn -0.012944 -0.535022 -0.844739
vn -0.166910 -0.481562 -0.860371
vn -0.111196 -0.508380 -0.853923
vn -0.012944 -0.535022 -0.844739
vn -0.111196 -0.508380 -0.853923
vn 0.000000 -0.541922 -0.840429
vn -0.283277 0.065780 -0.956780
vn -0.283277 0.065780 -0.956780
vn -0.096253 0.438644 -0.893491
vn -0.283277 0.065780 -0.956780
vn -0.096253 0.438644 -0.893491
vn 0.491707 0.740616 -0.457943
vn -0.283277 0.065780 -0.956780
vn 0.491707 0.740616 -0.457943
vn 0.491707 0.740616 -0.457943
vn 0.000000 -0.541922 -0.840429
vn 0.111196 -0.508380 -0.853923
vn 0.166910 -0.481562 -0.860371
vn 0.000000 -0.541922 -0.840429
vn 0.166910 -0.481562 -0.860371
vn 0.012944 -0.535022 -0.844739
vn 0.722097 -0.328120 -0.609026
vn 0.722097 -0.328120 -0.609026
vn 0.722097 -0.328120 -0.609026
vn 0.111196 -0.508380 -0.853923
vn 0.000000 -0.541922 -0.840429
vn -0.111196 -0.508380 -0.853923
vn -0.166910 -0.481562 -0.860371
vn -0.316401 -0.415193 -0.852939
vn -0.111196 -0.508380 -0.853923
vn 0.283277 0.065780 -0.956780
vn 0.345312 0.119286 -0.930876
vn 0.283277 0.065780 -0.956780
vn -0.283277 0.065780 -0.956780
vn -0.345312 0.119286 -0.930876
vn -0.283277 0.065780 -0.956780
vn 0.219150 0.011788 -0.975620
vn 0.283277 0.065780 -0.956780
vn -0.491707 0.740616 -0.457943
vn 0.219150 0.011788 -0.975620
vn -0.491707 0.740616 -0.457943
vn -0.491707 0.740616 -0.457943
vn 0.219150 0.011788 -0.975620
vn -0.491707 0.740616 -0.457943
vn 0.096253 0.438644 -0.893491
vn 0.619718 0.784824 0.000000
vn 0.619718 0.784824 0.000000
vn 0.619718 0.784824 0.000000
vn 0.619718 0.784824 0.000000
vn 0.619718 0.784824 0.000000
vn 0.619718 0.784824 0.000000
vn 0.111196 -0.508380 -0.853923
vn 0.316401 -0.415193 -0.852939
vn 0.166910 -0.481562 -0.860371
f 17/1/1 24/2/2 25/3/3
f 17/4/4 25/5/5 18/6/6
f 2/7/7 23/8/8 22/9/9
f 2/10/10 22/11/11 7/12/12
f 12/13/13 13/14/14 14/15/15
f 12/16/16 14/17/17 15/18/18
f 17/19/19 18/20/20 27/21/21
f 17/22/22 27/23/23 28/24/24
f 20/25/25 15/26/26 14/27/27
f 20/28/28 14/29/29 21/30/30
f 5/31/31 4/32/32 14/33/33
f 5/34/34 14/35/35 13/36/36
f 21/37/37 25/38/38 24/39/39
f 21/40/40 24/41/41 20/42/42
f 6/43/43 28/44/44 27/45/45
f 9/46/46 8/47/47 12/48/48
f 9/49/49 12/50/50 15/51/51
f 16/52/52 8/53/53 9/54/54
f 16/55/55 9/56/56 19/57/57
f 11/58/58 1/59/59 16/60/60
f 11/61/61 16/62/62 3/63/63
f 8/64/64 26/65/65 23/66/66
f 8/67/67 23/68/68 2/69/69
f 8/70/70 2/71/71 12/72/72
f 3/73/73 19/74/74 6/75/75
f 3/76/76 6/77/77 10/78/78
f 24/79/79 17/80/80 28/81/81
f 19/82/82 3/83/83 16/84/84
f 1/85/85 26/86/86 16/87/87
f 28/88/88 19/89/89 9/90/90
f 8/91/91 16/92/92 26/93/93
f 24/94/94 28/95/95 9/96/96
f 24/97/97 9/98/98 15/99/99
f 24/100/100 15/101/101 20/102/102
f 7/103/103 13/104/104 12/105/105
f 7/106/106 12/107/107 2/108/108
f 19/109/109 28/110/110 6/111/111
