v -0.161040 1.566769 -0.096689
v -0.092639 1.566810 -0.786369
v 0.161040 1.566769 -0.096689
v 0.092639 1.566810 -0.786369
v 0.000001 0.048580 2.714729
v 0.000001 1.447145 2.168411
v -0.124751 0.712939 -1.844244
v -0.261428 1.357643 1.156908
v -0.000000 0.512526 -1.337996
v 0.000000 0.590722 -0.096370
v 0.525140 1.007367 -1.337997
v -0.299882 0.902707 -1.844158
v -0.296070 1.356650 0.266039
v 0.365247 1.008162 -0.097750
v 0.000001 0.475075 3.131346
v 0.000001 0.795649 3.094305
v 0.000001 1.082533 2.942322
v 0.000001 1.328993 2.595737
v 0.564139 1.007007 -0.785851
v 0.000000 1.689945 0.266039
v -0.299703 1.357737 -0.097699
v -0.365247 1.008162 -0.097749
v 0.261429 1.357643 1.156908
v 0.366406 1.007601 0.263829
v 0.000001 0.049328 2.170736
v 0.499734 0.473730 2.168410
v -0.000000 1.664162 -0.786369
v 0.299881 0.902707 -1.844158
v 0.000000 1.690370 -0.096689
v 0.000000 0.472189 -0.785850
v 0.299703 1.357737 -0.097700
v 0.000000 0.592545 0.266340
v 0.215386 1.142899 2.168411
v 0.236875 1.051892 2.418567
v 0.249868 0.887608 2.610105
v 0.249868 0.675743 2.699782
v 0.249868 0.476288 2.718302
v 0.159109 1.567280 0.266039
v -0.159108 1.567280 0.266039
v 0.227973 1.356742 -0.783568
v -0.227973 1.356742 -0.783568
v 0.160307 1.356207 -1.338719
v -0.160307 1.356207 -1.338719
v 0.000001 0.199521 3.013633
v 0.249868 0.291647 2.720515
v 0.296070 1.356650 0.266039
v 0.366464 0.759744 0.265085
v 0.365306 0.759113 -0.097060
v 0.182653 0.615812 -0.096715
v 0.183232 0.617039 0.265712
v 0.124751 0.712939 -1.844244
v -0.335610 1.320007 -0.782820
v 0.272619 1.322861 -1.338550
v 0.476433 1.116166 -1.338189
v -0.272619 1.322861 -1.338549
v 0.335517 1.320131 -0.782511
v 0.533855 1.113787 -0.783858
v 0.408563 1.243407 -1.338381
v 0.467183 1.241602 -0.781424
v 0.380582 1.006841 1.550469
v -0.000000 0.902707 -1.844158
v -0.537531 1.461589 -1.275470
v -0.537146 1.380537 -1.321766
v -0.538517 1.380948 -0.847726
v -0.537524 1.542703 -0.849882
v -0.537720 1.542672 -1.062815
v 0.537146 1.380537 -1.321766
v 0.538517 1.380948 -0.847726
v 0.537524 1.542703 -0.849882
v -0.090250 1.546343 -1.062351
v 0.000000 1.567252 -1.337617
v 0.090250 1.546343 -1.062351
v 0.089737 1.464374 -1.278178
v -0.089737 1.464374 -1.278178
v 0.537531 1.461589 -1.275470
v 0.537720 1.542672 -1.062815
v 0.000000 1.616249 -1.061800
v -0.159822 1.462287 -0.720654
v 0.159822 1.462287 -0.720654
v 0.538020 1.461825 -0.785261
v -0.538020 1.461825 -0.785261
vt 0.000000 0.000000
vt 0.000000 0.000000
vt 0.000000 0.000000
vt 0.347892 0.790902
vt 0.374497 0.678148
vt 0.322288 0.678148
vt 0.134984 0.086383
vt 0.297893 0.129814
vt 0.129809 0.140822
vt 0.000000 0.000000
vt 0.000000 0.000000
vt 0.000000 0.000000
vt 0.580756 0.333925
vt 0.579523 0.375479
vt 0.676427 0.354914
vt 0.580756 0.333925
vt 0.676427 0.354914
vt 0.663098 0.311234
vt 0.834700 0.316415
vt 0.837741 0.344018
vt 0.993014 0.141226
vt 0.001761 0.608267
vt 0.002980 0.479886
vt 0.601483 0.653981
vt 0.134747 0.086058
vt 0.040102 0.050262
vt 0.132497 0.010813
vt 0.001020 0.823795
vt 0.001801 0.610845
vt 0.191462 0.779051
vt 0.129809 0.140822
vt 0.007948 0.140464
vt 0.040441 0.049456
vt 0.129809 0.140822
vt 0.040441 0.049456
vt 0.134984 0.086383
vt 0.993014 0.141226
vt 0.837741 0.344018
vt 0.834700 0.316415
vt 0.837741 0.344018
vt 0.733465 0.361071
vt 0.733686 0.331897
vt 0.837741 0.344018
vt 0.733686 0.331897
vt 0.834700 0.316415
vt 0.733686 0.331897
vt 0.733465 0.361071
vt 0.837741 0.344018
vt 0.733686 0.331897
vt 0.837741 0.344018
vt 0.834700 0.316415
vt 0.578803 0.318300
vt 0.579523 0.375479
vt 0.676427 0.354914
vt 0.578803 0.318300
vt 0.676427 0.354914
vt 0.676770 0.309281
vt 0.676770 0.309281
vt 0.676427 0.354914
vt 0.579523 0.375479
vt 0.676770 0.309281
vt 0.579523 0.375479
vt 0.578803 0.318300
vt 0.131630 0.197675
vt 0.011589 0.229121
vt 0.007948 0.140464
vt 0.131630 0.197675
vt 0.007948 0.140464
vt 0.129809 0.140822
vt 0.663324 0.009096
vt 0.837201 0.021501
vt 0.837201 0.173685
vt 0.663324 0.009096
vt 0.837201 0.173685
vt 0.663324 0.173574
vt 0.161313 0.267953
vt 0.058585 0.325424
vt 0.011589 0.229121
vt 0.161313 0.267953
vt 0.011589 0.229121
vt 0.131630 0.197675
vt 0.220540 0.316390
vt 0.165755 0.398089
vt 0.058585 0.325424
vt 0.220540 0.316390
vt 0.058585 0.325424
vt 0.161313 0.267953
vt 0.751969 0.981968
vt 0.794969 0.952671
vt 0.795603 0.907003
vt 0.597828 0.660748
vt 0.597630 0.653153
vt 0.712144 0.652588
vt 0.597828 0.660748
vt 0.712144 0.652588
vt 0.712252 0.660367
vt 0.676770 0.309281
vt 0.676427 0.354914
vt 0.579523 0.375479
vt 0.676770 0.309281
vt 0.579523 0.375479
vt 0.578803 0.318300
vt 0.663324 0.173574
vt 0.446632 0.173929
vt 0.446415 0.097337
vt 0.578803 0.318300
vt 0.579523 0.375479
vt 0.676427 0.354914
vt 0.578803 0.318300
vt 0.676427 0.354914
vt 0.676770 0.309281
vt 0.733686 0.331897
vt 0.733465 0.361071
vt 0.670856 0.374217
vt 0.733686 0.331897
vt 0.670856 0.374217
vt 0.670390 0.337663
vt 0.839396 0.276445
vt 0.998206 0.130175
vt 0.839342 0.265689
vt 0.599939 0.901672
vt 0.323346 0.901974
vt 0.598998 0.783944
vt 0.751969 0.981968
vt 0.794969 0.952671
vt 0.795603 0.907003
vt 0.579523 0.375479
vt 0.580756 0.333925
vt 0.663098 0.311234
vt 0.579523 0.375479
vt 0.663098 0.311234
vt 0.676427 0.354914
vt 0.297893 0.339316
vt 0.297893 0.432925
vt 0.165755 0.398089
vt 0.297893 0.339316
vt 0.165755 0.398089
vt 0.220540 0.316390
vt 0.663098 0.311234
vt 0.676427 0.354914
vt 0.579523 0.375479
vt 0.663098 0.311234
vt 0.579523 0.375479
vt 0.580756 0.333925
vt 0.663487 0.345736
vt 0.447972 0.345724
vt 0.447732 0.281438
vt 0.447761 0.276938
vt 0.448220 0.344358
vt 0.663002 0.344371
vt 0.323346 0.901974
vt 0.001893 0.915591
vt 0.001529 0.821251
vt 0.729780 0.296741
vt 0.729559 0.325914
vt 0.833835 0.308862
vt 0.729780 0.296741
vt 0.833835 0.308862
vt 0.830794 0.281258
vt 0.132497 0.010813
vt 0.297975 0.009055
vt 0.297664 0.129252
vt 0.132497 0.010813
vt 0.297664 0.129252
vt 0.134747 0.086058
vt 0.571710 0.375479
vt 0.572943 0.333925
vt 0.655285 0.311234
vt 0.571710 0.375479
vt 0.655285 0.311234
vt 0.668615 0.354914
vt 0.446632 0.173929
vt 0.663324 0.173574
vt 0.662696 0.206413
vt 0.608188 0.781845
vt 0.328181 0.902098
vt 0.192426 0.779595
vt 0.834700 0.316415
vt 0.835580 0.288695
vt 0.993014 0.141226
vt 0.729780 0.296741
vt 0.729559 0.325914
vt 0.833835 0.308862
vt 0.729780 0.296741
vt 0.833835 0.308862
vt 0.830794 0.281258
vt 0.220540 0.316390
vt 0.297893 0.129814
vt 0.297893 0.335409
vt 0.161313 0.267953
vt 0.297893 0.129814
vt 0.220540 0.316390
vt 0.668615 0.354914
vt 0.655285 0.311234
vt 0.572943 0.333925
vt 0.668615 0.354914
vt 0.572943 0.333925
vt 0.571710 0.375479
vt 0.698972 0.754932
vt 0.720767 0.717183
vt 0.699700 0.679434
vt 0.698972 0.754932
vt 0.699700 0.679434
vt 0.539823 0.679242
vt 0.698972 0.754932
vt 0.539823 0.679242
vt 0.555438 0.717073
vt 0.698972 0.754932
vt 0.555438 0.717073
vt 0.627158 0.754917
vt 0.131630 0.197675
vt 0.297893 0.129814
vt 0.161313 0.267953
vt 0.670390 0.337663
vt 0.670856 0.374217
vt 0.733465 0.361071
vt 0.670390 0.337663
vt 0.733465 0.361071
vt 0.733686 0.331897
vt 0.129809 0.140822
vt 0.297893 0.129814
vt 0.131630 0.197675
vt 0.676427 0.354914
vt 0.663098 0.311234
vt 0.580756 0.333925
vt 0.676427 0.354914
vt 0.580756 0.333925
vt 0.579523 0.375479
vt 0.837322 0.246277
vt 0.837262 0.207145
vt 0.996598 0.141498
vt 0.993014 0.141226
vt 0.835580 0.288695
vt 0.834700 0.316415
vt 0.712252 0.660367
vt 0.712144 0.652588
vt 0.597630 0.653153
vt 0.663487 0.375676
vt 0.448530 0.384294
vt 0.447972 0.345724
vt 0.663487 0.375676
vt 0.447972 0.345724
vt 0.663487 0.345736
vt 0.712244 0.955220
vt 0.712563 0.890408
vt 0.597725 0.890071
vt 0.712244 0.955220
vt 0.597725 0.890071
vt 0.597725 0.955379
vt 0.598498 0.960570
vt 0.598498 0.894042
vt 0.715638 0.894385
vt 0.598498 0.960570
vt 0.715638 0.894385
vt 0.715313 0.960408
vt 0.715654 0.783970
vt 0.715638 0.894385
vt 0.598498 0.894042
vt 0.715654 0.783970
vt 0.598498 0.894042
vt 0.599209 0.783793
vt 0.555438 0.717073
vt 0.539823 0.679242
vt 0.699700 0.679434
vt 0.555438 0.717073
vt 0.699700 0.679434
vt 0.720767 0.717183
vt 0.555438 0.717073
vt 0.720767 0.717183
vt 0.698972 0.754932
vt 0.555438 0.717073
vt 0.698972 0.754932
vt 0.627158 0.754917
vt 0.712252 0.660367
vt 0.712144 0.652588
vt 0.597630 0.653153
vt 0.712252 0.660367
vt 0.597630 0.653153
vt 0.597828 0.660748
vt 0.448220 0.344358
vt 0.448220 0.385005
vt 0.663002 0.375771
vt 0.448220 0.344358
vt 0.663002 0.375771
vt 0.663002 0.344371
vt 0.603911 0.674214
vt 0.601071 0.696721
vt 0.001980 0.609185
vt 0.322288 0.678148
vt 0.270079 0.678148
vt 0.296706 0.790902
vt 0.839396 0.276445
vt 0.839342 0.265689
vt 0.998206 0.130175
vt 0.191254 0.778814
vt 0.328181 0.902098
vt 0.001020 0.823795
vt 0.567603 0.671204
vt 0.601345 0.736719
vt 0.643795 0.768551
vt 0.567603 0.671204
vt 0.643795 0.768551
vt 0.682979 0.738815
vt 0.567603 0.671204
vt 0.682979 0.738815
vt 0.713456 0.671204
vt 0.715313 0.960408
vt 0.715313 0.999448
vt 0.598498 0.999314
vt 0.715313 0.960408
vt 0.598498 0.999314
vt 0.598498 0.960570
vt 0.597725 0.955379
vt 0.597725 0.993412
vt 0.712244 0.993544
vt 0.597725 0.955379
vt 0.712244 0.993544
vt 0.712244 0.955220
vt 0.662605 0.281132
vt 0.663487 0.345736
vt 0.447732 0.281438
vt 0.443073 0.276938
vt 0.663002 0.344371
vt 0.662107 0.276617
vt 0.837375 0.270712
vt 0.837429 0.280968
vt 0.662605 0.281132
vt 0.837375 0.270712
vt 0.662605 0.281132
vt 0.662272 0.269873
vt 0.837262 0.207145
vt 0.837322 0.246277
vt 0.661930 0.245722
vt 0.837262 0.207145
vt 0.661930 0.245722
vt 0.662696 0.206413
vt 0.447732 0.281438
vt 0.446632 0.173929
vt 0.662605 0.281132
vt 0.191462 0.779051
vt 0.001801 0.610845
vt 0.608442 0.780827
vt 0.715432 0.705306
vt 0.715654 0.783970
vt 0.599209 0.783793
vt 0.715432 0.705306
vt 0.599209 0.783793
vt 0.598805 0.705506
vt 0.661869 0.264769
vt 0.662107 0.276617
vt 0.839396 0.276445
vt 0.661869 0.264769
vt 0.839396 0.276445
vt 0.839342 0.265689
vt 0.662272 0.269873
vt 0.662605 0.281132
vt 0.446632 0.173929
vt 0.601543 0.696297
vt 0.598998 0.783944
vt 0.001761 0.608267
vt 0.839342 0.265689
vt 0.839288 0.240062
vt 0.998206 0.130175
vt 0.751969 0.981968
vt 0.794969 0.952671
vt 0.795603 0.907003
vt 0.751969 0.981968
vt 0.795603 0.907003
vt 0.752298 0.873800
vt 0.751969 0.981968
vt 0.752298 0.873800
vt 0.752134 0.927884
vt 0.663324 0.009096
vt 0.663324 0.173574
vt 0.446415 0.097337
vt 0.663324 0.009096
vt 0.446415 0.097337
vt 0.446306 0.053266
vt 0.662696 0.206413
vt 0.661930 0.245722
vt 0.446632 0.173929
vt 0.715321 0.660044
vt 0.715432 0.705306
vt 0.598805 0.705506
vt 0.715321 0.660044
vt 0.598805 0.705506
vt 0.598603 0.659130
vt 0.996625 0.083136
vt 0.996598 0.141498
vt 0.837201 0.173685
vt 0.996625 0.083136
vt 0.837201 0.173685
vt 0.837201 0.021501
vt 0.603997 0.653697
vt 0.604200 0.674186
vt 0.003677 0.615586
vt 0.837262 0.207145
vt 0.837201 0.173685
vt 0.996598 0.141498
vt 0.662696 0.206413
vt 0.663324 0.173574
vt 0.837201 0.173685
vt 0.662696 0.206413
vt 0.837201 0.173685
vt 0.837262 0.207145
vt 0.662272 0.269873
vt 0.661930 0.245722
vt 0.837322 0.246277
vt 0.662272 0.269873
vt 0.837322 0.246277
vt 0.837375 0.270712
vt 0.443089 0.164188
vt 0.662107 0.276617
vt 0.661869 0.264769
vt 0.446632 0.173929
vt 0.661930 0.245722
vt 0.662272 0.269873
vn 0.294256 -0.253116 0.921600
vn 0.259673 -0.892935 0.367745
vn 0.840087 -0.542452 0.000000
vn 0.139076 0.841262 -0.522432
vn 0.546767 0.425301 -0.721225
vn -0.000001 0.596709 -0.802458
vn 0.828396 -0.424553 0.365396
vn 0.976965 -0.180051 0.114544
vn 0.877595 -0.010460 0.479288
vn -0.259673 -0.892935 0.367745
vn -0.294256 -0.253116 0.921600
vn -0.840087 -0.542452 0.000000
vn 0.627388 0.045511 0.777376
vn 0.553518 0.755083 0.351379
vn 0.330182 0.909162 0.253779
vn 0.627388 0.045511 0.777376
vn 0.330182 0.909162 0.253779
vn -0.294256 -0.253116 0.921600
vn -0.420325 0.698082 -0.579663
vn -0.761349 0.545256 -0.350776
vn -0.594554 0.522567 -0.611088
vn 0.976965 -0.180051 0.114544
vn -0.000000 -0.992350 -0.123454
vn -0.000000 -0.993796 -0.111219
vn 0.828396 -0.424553 0.365396
vn -0.000000 -0.671888 0.740652
vn -0.000000 -0.968015 0.250892
vn 0.868087 0.477905 0.134282
vn 0.976965 -0.180051 0.114544
vn 0.937283 0.341706 0.068826
vn 0.877595 -0.010460 0.479288
vn 0.839100 -0.042682 0.542300
vn -0.000000 -0.671888 0.740652
vn 0.877595 -0.010460 0.479288
vn -0.000000 -0.671888 0.740652
vn 0.828396 -0.424553 0.365396
vn 0.593910 0.521956 -0.612236
vn 0.761320 0.544818 -0.351519
vn 0.420043 0.697833 -0.580166
vn 0.761320 0.544818 -0.351519
vn -0.000000 0.981328 -0.192341
vn 0.384639 0.904762 -0.182916
vn 0.761320 0.544818 -0.351519
vn 0.384639 0.904762 -0.182916
vn 0.420043 0.697833 -0.580166
vn -0.000000 0.981328 -0.192341
vn -0.761349 0.545256 -0.350776
vn -0.420325 0.698082 -0.579663
vn -0.000000 0.981328 -0.192341
vn -0.420325 0.698082 -0.579663
vn -0.384639 0.904762 -0.182916
vn -0.464483 0.867177 -0.179608
vn -0.553518 0.755083 0.351379
vn -0.330182 0.909162 0.253779
vn -0.464483 0.867177 -0.179608
vn -0.330182 0.909162 0.253779
vn -0.384639 0.904762 -0.182916
vn 0.384639 0.904762 -0.182916
vn 0.330182 0.909162 0.253779
vn 0.553518 0.755083 0.351379
vn 0.384639 0.904762 -0.182916
vn 0.553518 0.755083 0.351379
vn 0.464483 0.867177 -0.179608
vn 0.885537 0.121556 0.448384
vn 0.852614 0.144767 0.502087
vn 0.839100 -0.042682 0.542300
vn 0.885537 0.121556 0.448384
vn 0.839100 -0.042682 0.542300
vn 0.877595 -0.010460 0.479288
vn -0.000000 -0.999603 0.028182
vn 0.000000 -0.981469 -0.191622
vn 0.951533 -0.219971 -0.214937
vn -0.000000 -0.999603 0.028182
vn 0.951533 -0.219971 -0.214937
vn 0.975815 -0.201247 0.085353
vn 0.884749 0.300320 0.356408
vn 0.837675 0.355686 0.414473
vn 0.852614 0.144767 0.502087
vn 0.884749 0.300320 0.356408
vn 0.852614 0.144767 0.502087
vn 0.885537 0.121556 0.448384
vn 0.873437 0.446050 0.195312
vn 0.812507 0.527562 0.248014
vn 0.837675 0.355686 0.414473
vn 0.873437 0.446050 0.195312
vn 0.837675 0.355686 0.414473
vn 0.884749 0.300320 0.356408
vn -0.297401 -0.703252 -0.645747
vn 0.297401 -0.703252 -0.645747
vn 0.000000 -0.981469 -0.191622
vn 0.386245 -0.920090 -0.065185
vn -0.000000 -0.993796 -0.111219
vn -0.000000 -0.996203 0.087064
vn 0.386245 -0.920090 -0.065185
vn -0.000000 -0.996203 0.087064
vn 0.406536 -0.913056 0.032506
vn -0.384639 0.904762 -0.182916
vn -0.420325 0.698082 -0.579663
vn -0.474397 0.668318 -0.572973
vn -0.384639 0.904762 -0.182916
vn -0.474397 0.668318 -0.572973
vn -0.464483 0.867177 -0.179608
vn 0.975815 -0.201247 0.085353
vn 0.901116 0.383476 0.202327
vn 0.903265 -0.424415 0.063114
vn 0.464483 0.867177 -0.179608
vn 0.474398 0.668318 -0.572973
vn 0.420043 0.697833 -0.580166
vn 0.464483 0.867177 -0.179608
vn 0.420043 0.697833 -0.580166
vn 0.384639 0.904762 -0.182916
vn 0.384639 0.904762 -0.182916
vn -0.000000 0.981328 -0.192341
vn -0.000000 0.991688 -0.128667
vn 0.384639 0.904762 -0.182916
vn -0.000000 0.991688 -0.128667
vn 0.330182 0.909162 0.253779
vn -0.139164 0.841248 -0.522432
vn -0.546767 0.425301 -0.721224
vn -0.381922 0.861862 -0.333661
vn 0.785725 0.544125 0.294219
vn 0.715223 0.697386 0.045922
vn 0.988334 0.152045 -0.008789
vn 0.406536 -0.913056 0.032506
vn -0.000000 -0.996203 0.087064
vn -0.000000 -0.999603 0.028182
vn 0.474398 0.668318 -0.572973
vn 0.730353 -0.339817 -0.592544
vn 0.196895 0.574279 -0.794630
vn 0.474398 0.668318 -0.572973
vn 0.196895 0.574279 -0.794630
vn 0.420043 0.697833 -0.580166
vn 0.868087 0.477905 0.134282
vn 0.000000 0.987139 0.159864
vn 0.812507 0.527562 0.248014
vn 0.868087 0.477905 0.134282
vn 0.812507 0.527562 0.248014
vn 0.873437 0.446050 0.195312
vn 0.294256 -0.253116 0.921600
vn -0.330182 0.909162 0.253779
vn -0.553518 0.755083 0.351379
vn 0.294256 -0.253116 0.921600
vn -0.553518 0.755083 0.351379
vn -0.627388 0.045511 0.777376
vn 0.781453 0.619663 -0.073143
vn 0.742031 0.669669 -0.030566
vn 0.910269 0.410538 -0.053560
vn -0.910269 0.410538 -0.053560
vn -0.742031 0.669669 -0.030565
vn -0.781453 0.619662 -0.073143
vn 0.715223 0.697386 0.045922
vn 0.000000 0.987139 0.159864
vn 0.868087 0.477905 0.134282
vn -0.730353 -0.339816 -0.592544
vn -0.070174 -0.997528 -0.003790
vn 0.259673 -0.892935 0.367745
vn -0.730353 -0.339816 -0.592544
vn 0.259673 -0.892935 0.367745
vn -0.586764 -0.706357 0.395939
vn -0.000000 -0.968015 0.250892
vn -0.000000 -0.992350 -0.123454
vn 0.976965 -0.180051 0.114544
vn -0.000000 -0.968015 0.250892
vn 0.976965 -0.180051 0.114544
vn 0.828396 -0.424553 0.365396
vn -0.627388 0.045511 0.777376
vn -0.586764 -0.706357 0.395939
vn 0.259673 -0.892935 0.367745
vn -0.627388 0.045511 0.777376
vn 0.259673 -0.892935 0.367745
vn 0.294256 -0.253116 0.921600
vn 0.901116 0.383476 0.202327
vn 0.975815 -0.201247 0.085353
vn 0.918135 0.384569 0.095576
vn 0.988334 0.152045 -0.008789
vn 0.715223 0.697386 0.045922
vn 0.937283 0.341706 0.068826
vn 0.420043 0.697833 -0.580166
vn 0.196895 0.574279 -0.794630
vn 0.593910 0.521956 -0.612236
vn -0.259673 -0.892935 0.367745
vn 0.070174 -0.997528 -0.003790
vn 0.730353 -0.339817 -0.592544
vn -0.259673 -0.892935 0.367745
vn 0.730353 -0.339817 -0.592544
vn 0.586764 -0.706357 0.395940
vn 0.873437 0.446050 0.195312
vn 0.976965 -0.180051 0.114544
vn 0.868087 0.477905 0.134282
vn 0.884749 0.300320 0.356408
vn 0.976965 -0.180051 0.114544
vn 0.873437 0.446050 0.195312
vn -0.294256 -0.253116 0.921600
vn -0.259673 -0.892935 0.367745
vn 0.586764 -0.706357 0.395940
vn -0.294256 -0.253116 0.921600
vn 0.586764 -0.706357 0.395940
vn 0.627388 0.045511 0.777376
vn 0.553518 0.755083 0.351379
vn 0.627388 0.045511 0.777376
vn 0.586764 -0.706357 0.395940
vn 0.553518 0.755083 0.351379
vn 0.586764 -0.706357 0.395940
vn 0.730353 -0.339817 -0.592544
vn 0.553518 0.755083 0.351379
vn 0.730353 -0.339817 -0.592544
vn 0.474398 0.668318 -0.572973
vn 0.553518 0.755083 0.351379
vn 0.474398 0.668318 -0.572973
vn 0.464483 0.867177 -0.179608
vn 0.885537 0.121556 0.448384
vn 0.976965 -0.180051 0.114544
vn 0.884749 0.300320 0.356408
vn -0.384639 0.904762 -0.182916
vn -0.330182 0.909162 0.253779
vn -0.000000 0.991688 -0.128667
vn -0.384639 0.904762 -0.182916
vn -0.000000 0.991688 -0.128667
vn -0.000000 0.981328 -0.192341
vn 0.877595 -0.010460 0.479288
vn 0.976965 -0.180051 0.114544
vn 0.885537 0.121556 0.448384
vn -0.420325 0.698082 -0.579663
vn -0.197451 0.574482 -0.794345
vn -0.730353 -0.339816 -0.592544
vn -0.420325 0.698082 -0.579663
vn -0.730353 -0.339816 -0.592544
vn -0.474397 0.668318 -0.572973
vn 0.690388 0.653915 -0.309450
vn 0.872597 0.406385 -0.270972
vn 0.546767 0.425301 -0.721225
vn -0.594554 0.522567 -0.611088
vn -0.197451 0.574482 -0.794345
vn -0.420325 0.698082 -0.579663
vn -0.715223 0.697386 0.045923
vn 0.000000 0.987139 0.159864
vn 0.715223 0.697386 0.045922
vn -0.000000 0.998074 -0.062042
vn -0.000000 0.999571 -0.029287
vn 0.742031 0.669669 -0.030566
vn -0.000000 0.998074 -0.062042
vn 0.742031 0.669669 -0.030566
vn 0.781453 0.619663 -0.073143
vn -0.742031 0.669669 -0.030565
vn -0.910269 0.410538 -0.053560
vn -0.785725 0.544125 0.294219
vn -0.742031 0.669669 -0.030565
vn -0.785725 0.544125 0.294219
vn -0.652616 0.605676 0.455246
vn 0.652616 0.605676 0.455246
vn 0.785725 0.544125 0.294219
vn 0.910269 0.410538 -0.053560
vn 0.652616 0.605676 0.455246
vn 0.910269 0.410538 -0.053560
vn 0.742031 0.669669 -0.030566
vn 0.901116 0.383476 0.202327
vn 0.910269 0.410538 -0.053560
vn 0.785725 0.544125 0.294219
vn 0.901116 0.383476 0.202327
vn 0.785725 0.544125 0.294219
vn 0.988334 0.152045 -0.008789
vn -0.474397 0.668318 -0.572973
vn -0.730353 -0.339816 -0.592544
vn -0.586764 -0.706357 0.395939
vn -0.474397 0.668318 -0.572973
vn -0.586764 -0.706357 0.395939
vn -0.627388 0.045511 0.777376
vn -0.474397 0.668318 -0.572973
vn -0.627388 0.045511 0.777376
vn -0.553518 0.755083 0.351379
vn -0.474397 0.668318 -0.572973
vn -0.553518 0.755083 0.351379
vn -0.464483 0.867177 -0.179608
vn -0.785725 0.544125 0.294219
vn -0.715223 0.697386 0.045923
vn 0.715223 0.697386 0.045922
vn -0.785725 0.544125 0.294219
vn 0.715223 0.697386 0.045922
vn 0.785725 0.544125 0.294219
vn -0.742031 0.669669 -0.030565
vn -0.000000 0.999571 -0.029287
vn -0.000000 0.998074 -0.062042
vn -0.742031 0.669669 -0.030565
vn -0.000000 0.998074 -0.062042
vn -0.781453 0.619662 -0.073143
vn 0.386245 -0.920090 -0.065185
vn 0.897292 -0.436674 -0.064671
vn 0.976965 -0.180051 0.114544
vn -0.000001 0.596709 -0.802458
vn -0.546767 0.425301 -0.721224
vn -0.139164 0.841248 -0.522432
vn 0.139076 0.841262 -0.522432
vn 0.381834 0.861890 -0.333690
vn 0.546767 0.425301 -0.721225
vn 0.937283 0.341706 0.068826
vn 0.715223 0.697386 0.045922
vn 0.868087 0.477905 0.134282
vn 0.785725 0.544125 0.294219
vn 0.652616 0.605676 0.455246
vn 0.000000 0.845044 0.534697
vn 0.785725 0.544125 0.294219
vn 0.000000 0.845044 0.534697
vn -0.652616 0.605676 0.455246
vn 0.785725 0.544125 0.294219
vn -0.652616 0.605676 0.455246
vn -0.785725 0.544125 0.294219
vn 0.742031 0.669669 -0.030566
vn -0.000000 0.999571 -0.029287
vn 0.000000 0.845044 0.534697
vn 0.742031 0.669669 -0.030566
vn 0.000000 0.845044 0.534697
vn 0.652616 0.605676 0.455246
vn -0.652616 0.605676 0.455246
vn 0.000000 0.845044 0.534697
vn -0.000000 0.999571 -0.029287
vn -0.652616 0.605676 0.455246
vn -0.000000 0.999571 -0.029287
vn -0.742031 0.669669 -0.030565
vn 0.686729 0.725467 0.045826
vn 0.781453 0.619663 -0.073143
vn 0.910269 0.410538 -0.053560
vn -0.910269 0.410538 -0.053560
vn -0.781453 0.619662 -0.073143
vn -0.687109 0.725118 0.045672
vn 0.381834 0.861890 -0.333690
vn 0.139076 0.841262 -0.522432
vn 0.686729 0.725467 0.045826
vn 0.381834 0.861890 -0.333690
vn 0.686729 0.725467 0.045826
vn 0.407056 0.898141 0.166279
vn 0.872597 0.406385 -0.270972
vn 0.690388 0.653915 -0.309450
vn 0.720717 0.681356 0.127754
vn 0.872597 0.406385 -0.270972
vn 0.720717 0.681356 0.127754
vn 0.918135 0.384569 0.095576
vn 0.910269 0.410538 -0.053560
vn 0.901116 0.383476 0.202327
vn 0.686729 0.725467 0.045826
vn 0.937283 0.341706 0.068826
vn 0.976965 -0.180051 0.114544
vn 0.988334 0.152045 -0.008789
vn 0.903265 -0.424415 0.063114
vn 0.901116 0.383476 0.202327
vn 0.988334 0.152045 -0.008789
vn 0.903265 -0.424415 0.063114
vn 0.988334 0.152045 -0.008789
vn 0.897292 -0.436674 -0.064671
vn -0.407560 0.897945 0.166100
vn -0.687109 0.725118 0.045672
vn -0.139164 0.841248 -0.522432
vn -0.407560 0.897945 0.166100
vn -0.139164 0.841248 -0.522432
vn -0.381922 0.861862 -0.333661
vn 0.407056 0.898141 0.166279
vn 0.686729 0.725467 0.045826
vn 0.901116 0.383476 0.202327
vn 0.897292 -0.436674 -0.064671
vn 0.988334 0.152045 -0.008789
vn 0.976965 -0.180051 0.114544
vn 0.381834 0.861890 -0.333690
vn 0.690388 0.653915 -0.309450
vn 0.546767 0.425301 -0.721225
vn 0.546767 0.425301 -0.721225
vn 0.297401 -0.703252 -0.645747
vn -0.297401 -0.703252 -0.645747
vn 0.546767 0.425301 -0.721225
vn -0.297401 -0.703252 -0.645747
vn -0.546767 0.425301 -0.721224
vn 0.546767 0.425301 -0.721225
vn -0.546767 0.425301 -0.721224
vn -0.000001 0.596709 -0.802458
vn -0.000000 -0.999603 0.028182
vn 0.975815 -0.201247 0.085353
vn 0.903265 -0.424415 0.063114
vn -0.000000 -0.999603 0.028182
vn 0.903265 -0.424415 0.063114
vn 0.406536 -0.913056 0.032506
vn 0.918135 0.384569 0.095576
vn 0.720717 0.681356 0.127754
vn 0.901116 0.383476 0.202327
vn 0.406536 -0.913056 0.032506
vn 0.903265 -0.424415 0.063114
vn 0.897292 -0.436674 -0.064671
vn 0.406536 -0.913056 0.032506
vn 0.897292 -0.436674 -0.064671
vn 0.386245 -0.920090 -0.065185
vn 0.297401 -0.703252 -0.645747
vn 0.546767 0.425301 -0.721225
vn 0.951533 -0.219971 -0.214937
vn 0.297401 -0.703252 -0.645747
vn 0.951533 -0.219971 -0.214937
vn 0.000000 -0.981469 -0.191622
vn -0.000000 -0.993796 -0.111219
vn 0.386245 -0.920090 -0.065185
vn 0.976965 -0.180051 0.114544
vn 0.872597 0.406385 -0.270972
vn 0.951533 -0.219971 -0.214937
vn 0.546767 0.425301 -0.721225
vn 0.918135 0.384569 0.095576
vn 0.975815 -0.201247 0.085353
vn 0.951533 -0.219971 -0.214937
vn 0.918135 0.384569 0.095576
vn 0.951533 -0.219971 -0.214937
vn 0.872597 0.406385 -0.270972
vn 0.407056 0.898141 0.166279
vn 0.720717 0.681356 0.127754
vn 0.690388 0.653915 -0.309450
vn 0.407056 0.898141 0.166279
vn 0.690388 0.653915 -0.309450
vn 0.381834 0.861890 -0.333690
vn -0.901183 0.383401 0.202171
vn -0.687109 0.725118 0.045672
vn -0.407560 0.897945 0.166100
vn 0.901116 0.383476 0.202327
vn 0.720717 0.681356 0.127754
vn 0.407056 0.898141 0.166279
f 78/1/1 41/2/2 2/3/3
f 42/4/4 28/5/5 61/6/6
f 45/7/7 26/8/8 37/9/9
f 40/10/10 79/11/11 4/12/12
f 80/13/13 69/14/14 4/15/15
f 80/16/16 4/17/17 79/18/18
f 74/19/19 71/20/20 61/21/21
f 26/22/22 25/23/23 32/24/24
f 45/25/25 44/26/26 5/27/27
f 33/28/28 26/29/29 60/30/30
f 37/31/31 15/32/32 44/33/33
f 37/34/34 44/35/35 45/36/36
f 61/37/37 71/38/38 73/39/39
f 71/40/40 77/41/41 72/42/42
f 71/43/43 72/44/44 73/45/45
f 77/46/46 71/47/47 74/48/48
f 77/49/49 74/50/50 70/51/51
f 66/52/52 65/53/53 2/54/54
f 66/55/55 2/56/56 70/57/57
f 72/58/58 4/59/59 69/60/60
f 72/61/61 69/62/62 76/63/63
f 36/64/64 16/65/65 15/66/66
f 36/67/67 15/68/68 37/69/69
f 30/70/70 9/71/71 11/72/72
f 30/73/73 11/74/74 19/75/75
f 35/76/76 17/77/77 16/78/78
f 35/79/79 16/80/80 36/81/81
f 34/82/82 18/83/83 17/84/84
f 34/85/85 17/86/86 35/87/87
f 7/88/88 51/89/89 9/90/90
f 50/91/91 32/92/92 10/93/93
f 50/94/94 10/95/95 49/96/96
f 70/97/97 74/98/98 62/99/99
f 70/100/100 62/101/101 66/102/102
f 19/103/103 14/104/104 48/105/105
f 76/106/106 75/107/107 73/108/108
f 76/109/109 73/110/110 72/111/111
f 72/112/112 77/113/113 27/114/114
f 72/115/115 27/116/116 4/117/117
f 43/118/118 12/119/119 55/120/120
f 46/121/121 23/122/122 24/123/123
f 49/124/124 10/125/125 30/126/126
f 75/127/127 67/128/128 42/129/129
f 75/130/130 42/131/131 73/132/132
f 33/133/133 6/134/134 18/135/135
f 33/136/136 18/137/137 34/138/138
f 78/139/139 2/140/140 65/141/141
f 78/142/142 65/143/143 81/144/144
f 4/145/145 3/146/146 31/147/147
f 21/148/148 1/149/149 2/150/150
f 23/151/151 6/152/152 33/153/153
f 63/154/154 43/155/155 41/156/156
f 63/157/157 41/158/158 64/159/159
f 5/160/160 25/161/161 26/162/162
f 5/163/163 26/164/164 45/165/165
f 81/166/166 64/167/167 41/168/168
f 81/169/169 41/170/170 78/171/171
f 14/172/172 19/173/173 57/174/174
f 24/175/175 23/176/176 60/177/177
f 73/178/178 42/179/179 61/180/180
f 40/181/181 42/182/182 67/183/183
f 40/184/184 67/185/185 68/186/186
f 34/187/187 26/188/188 33/189/189
f 35/190/190 26/191/191 34/192/192
f 79/193/193 40/194/194 68/195/195
f 79/196/196 68/197/197 80/198/198
f 69/199/199 80/200/200 68/201/201
f 69/202/202 68/203/203 67/204/204
f 69/205/205 67/206/206 75/207/207
f 69/208/208 75/209/209 76/210/210
f 36/211/211 26/212/212 35/213/213
f 70/214/214 2/215/215 27/216/216
f 70/217/217 27/218/218 77/219/219
f 37/220/220 26/221/221 36/222/222
f 74/223/223 43/224/224 63/225/225
f 74/226/226 63/227/227 62/228/228
f 58/229/229 54/230/230 28/231/231
f 61/232/232 43/233/233 74/234/234
f 8/235/235 6/236/236 23/237/237
f 27/238/238 29/239/239 3/240/240
f 27/241/241 3/242/242 4/243/243
f 1/244/244 21/245/245 13/246/246
f 1/247/247 13/248/248 39/249/249
f 38/250/250 46/251/251 31/252/252
f 38/253/253 31/254/254 3/255/255
f 14/256/256 31/257/257 46/258/258
f 14/259/259 46/260/260 24/261/261
f 62/262/262 63/263/263 64/264/264
f 62/265/265 64/266/266 81/267/267
f 62/268/268 81/269/269 65/270/270
f 62/271/271 65/272/272 66/273/273
f 13/274/274 8/275/275 23/276/276
f 13/277/277 23/278/278 46/279/279
f 1/280/280 29/281/281 27/282/282
f 1/283/283 27/284/284 2/285/285
f 50/286/286 47/287/287 26/288/288
f 61/289/289 12/290/290 43/291/291
f 42/292/292 53/293/293 28/294/294
f 60/295/295 23/296/296 33/297/297
f 46/298/298 38/299/299 20/300/300
f 46/301/301 20/302/302 39/303/303
f 46/304/304 39/305/305 13/306/306
f 3/307/307 29/308/308 20/309/309
f 3/310/310 20/311/311 38/312/312
f 39/313/313 20/314/314 29/315/315
f 39/316/316 29/317/317 1/318/318
f 40/319/319 4/320/320 31/321/321
f 21/322/322 2/323/323 41/324/324
f 53/325/325 42/326/326 40/327/327
f 53/328/328 40/329/329 56/330/330
f 54/331/331 58/332/332 59/333/333
f 54/334/334 59/335/335 57/336/336
f 31/337/337 14/338/338 40/339/339
f 60/340/340 26/341/341 24/342/342
f 48/343/343 14/344/344 24/345/345
f 48/346/346 24/347/347 47/348/348
f 52/349/349 41/350/350 43/351/351
f 52/352/352 43/353/353 55/354/354
f 56/355/355 40/356/356 14/357/357
f 47/358/358 24/359/359 26/360/360
f 53/361/361 58/362/362 28/363/363
f 28/364/364 51/365/365 7/366/366
f 28/367/367 7/368/368 12/369/369
f 28/370/370 12/371/371 61/372/372
f 30/373/373 19/374/374 48/375/375
f 30/376/376 48/377/377 49/378/378
f 57/379/379 59/380/380 14/381/381
f 49/382/382 48/383/383 47/384/384
f 49/385/385 47/386/386 50/387/387
f 51/388/388 28/389/389 11/390/390
f 51/391/391 11/392/392 9/393/393
f 32/394/394 50/395/395 26/396/396
f 54/397/397 11/398/398 28/399/399
f 57/400/400 19/401/401 11/402/402
f 57/403/403 11/404/404 54/405/405
f 56/406/406 59/407/407 58/408/408
f 56/409/409 58/410/410 53/411/411
f 22/412/412 41/413/413 52/414/414
f 14/415/415 59/416/416 56/417/417
