v -1.105341 -0.981647 -0.358301
v -1.105341 -0.981647 0.579816
v -1.105341 0.907455 -0.358301
v 1.105341 -0.981647 -0.358301
v 1.105341 -0.981647 0.579816
v 1.105341 0.907455 -0.358301
v 1.105341 -2.480330 -0.358301
v -1.105341 -2.480330 -0.358301
v 1.105341 -2.480330 0.327970
v -1.105341 -2.480330 0.327970
v -1.558548 -0.413105 -0.065916
v 1.558548 0.907455 0.287431
v 1.558548 0.907455 -0.065916
v 1.558548 -0.413105 -0.065916
v -1.558548 0.907455 -0.065916
v 1.558548 -0.413105 0.287431
v -1.558548 -0.413105 0.287431
v -0.632257 0.907455 -0.065916
v 0.632257 0.907455 -0.065916
v -0.757902 1.210204 0.013027
v -1.103254 1.210204 -0.200414
v -1.434095 1.210204 0.013027
v 1.434095 1.210204 0.208487
v 0.757902 1.210204 0.013027
v 1.434095 1.210204 0.013027
v 1.103254 1.210204 -0.200414
v -0.552670 -1.958568 -0.689917
v 0.552671 0.464749 -0.689917
v -0.552670 0.464749 -0.689917
v 0.552671 -1.958568 -0.689917
v 0.552671 -0.981647 -0.689917
v -0.552670 -0.981647 -0.689917
v -0.552670 -2.480330 0.327970
v 0.552671 -2.480330 0.327970
vt 0.415476 0.003831
vt 0.363732 0.053478
vt 0.415360 0.053548
vt 0.415128 0.152983
vt 0.363501 0.152912
vt 0.415013 0.202700
vt 0.233807 0.161158
vt 0.290158 0.120466
vt 0.103234 0.120209
vt 0.233807 0.161158
vt 0.103234 0.120209
vt 0.103139 0.160979
vt 0.683582 0.362731
vt 0.723352 0.362567
vt 0.722471 0.283487
vt 0.683582 0.362731
vt 0.722471 0.283487
vt 0.683143 0.300746
vt 0.415360 0.053548
vt 0.415476 0.003831
vt 0.415476 0.003831
vt 0.563044 0.301074
vt 0.522827 0.284143
vt 0.523707 0.363222
vt 0.563044 0.301074
vt 0.523707 0.363222
vt 0.563483 0.363058
vt 0.683630 0.362243
vt 0.723406 0.362442
vt 0.724077 0.286216
vt 0.683630 0.362243
vt 0.724077 0.286216
vt 0.684037 0.300344
vt 0.334961 0.145508
vt 0.283962 0.125192
vt 0.283203 0.085938
vt 0.334961 0.145508
vt 0.283203 0.085938
vt 0.335267 0.066297
vt 0.363732 0.053478
vt 0.363501 0.152912
vt 0.415128 0.152983
vt 0.363732 0.053478
vt 0.415128 0.152983
vt 0.415360 0.053548
vt 0.335267 0.066297
vt 0.283203 0.085938
vt 0.283962 0.125192
vt 0.335267 0.066297
vt 0.283962 0.125192
vt 0.334961 0.145508
vt 0.415013 0.202700
vt 0.415013 0.202700
vt 0.415128 0.152983
vt 0.233398 0.088867
vt 0.234459 0.048718
vt 0.103792 0.048539
vt 0.233398 0.088867
vt 0.103792 0.048539
vt 0.103697 0.089309
vt 0.103792 0.048539
vt 0.103697 0.089309
vt 0.290621 0.089565
vt 0.103792 0.048539
vt 0.290621 0.089565
vt 0.234459 0.048718
vt 0.335689 0.338303
vt 0.345238 0.376160
vt 0.386657 0.377837
vt 0.335689 0.338303
vt 0.386657 0.377837
vt 0.399864 0.337388
vt 0.563940 0.299579
vt 0.524435 0.285054
vt 0.523763 0.361280
vt 0.563940 0.299579
vt 0.523763 0.361280
vt 0.563533 0.361478
vt 0.079896 0.159682
vt 0.079797 0.202240
vt 0.174499 0.152583
vt 0.335689 0.338303
vt 0.345238 0.376160
vt 0.386657 0.377837
vt 0.335689 0.338303
vt 0.386657 0.377837
vt 0.399864 0.337388
vt 0.308665 0.145799
vt 0.410081 0.130344
vt 0.410245 0.064035
vt 0.308665 0.145799
vt 0.410245 0.064035
vt 0.308829 0.063866
vt 0.563533 0.361478
vt 0.683630 0.362243
vt 0.684037 0.300344
vt 0.563533 0.361478
vt 0.684037 0.300344
vt 0.563940 0.299579
vt 0.174730 0.053149
vt 0.080259 0.003371
vt 0.080160 0.045929
vt 0.335689 0.338303
vt 0.345238 0.376160
vt 0.386657 0.377837
vt 0.335689 0.338303
vt 0.386657 0.377837
vt 0.399864 0.337388
vt 0.335689 0.338303
vt 0.345238 0.376160
vt 0.386657 0.377837
vt 0.335689 0.338303
vt 0.386657 0.377837
vt 0.399864 0.337388
vt 0.335689 0.338303
vt 0.345238 0.376160
vt 0.386657 0.377837
vt 0.335689 0.338303
vt 0.386657 0.377837
vt 0.399864 0.337388
vt 0.079896 0.159682
vt 0.174499 0.152583
vt 0.174730 0.053149
vt 0.079896 0.159682
vt 0.174730 0.053149
vt 0.080160 0.045929
vt 0.682771 0.255916
vt 0.562672 0.256244
vt 0.563483 0.363058
vt 0.682771 0.255916
vt 0.563483 0.363058
vt 0.683582 0.362731
vn 0.492854 -0.774312 -0.396907
vn 0.265638 -0.857928 -0.439768
vn 0.265638 -0.857928 -0.439768
vn -0.265638 -0.857928 -0.439768
vn -0.265638 -0.857928 -0.439768
vn -0.492854 -0.774312 -0.396907
vn 0.542118 0.000000 -0.840302
vn 0.523845 0.000000 -0.851813
vn 0.527761 0.136196 -0.838402
vn 0.542118 0.000000 -0.840302
vn 0.527761 0.136196 -0.838402
vn 0.530644 0.204648 -0.822518
vn -0.279363 0.000000 -0.960186
vn -0.523845 0.000000 -0.851813
vn -0.527762 0.136196 -0.838402
vn -0.279363 0.000000 -0.960186
vn -0.527762 0.136196 -0.838402
vn -0.279363 0.000000 -0.960186
vn -0.000000 -1.000000 -0.000000
vn -0.000000 -1.000000 -0.000000
vn -0.000000 -1.000000 -0.000000
vn 0.279363 0.000000 -0.960186
vn 0.527761 0.136196 -0.838402
vn 0.523845 0.000000 -0.851813
vn 0.279363 0.000000 -0.960186
vn 0.523845 0.000000 -0.851813
vn 0.279363 0.000000 -0.960186
vn 0.279363 0.000000 -0.960186
vn 0.523845 0.000000 -0.851813
vn 0.514511 0.000000 -0.857484
vn 0.279363 0.000000 -0.960186
vn 0.514511 0.000000 -0.857484
vn 0.279363 0.000000 -0.960186
vn 0.781959 -0.623330 0.000000
vn 0.781959 -0.623330 0.000000
vn 0.781959 -0.623330 0.000000
vn 0.781959 -0.623330 0.000000
vn 0.781959 -0.623330 0.000000
vn 0.781959 -0.623330 0.000000
vn 0.265638 -0.857928 -0.439768
vn -0.265638 -0.857928 -0.439768
vn -0.265638 -0.857928 -0.439768
vn 0.265638 -0.857928 -0.439768
vn -0.265638 -0.857928 -0.439768
vn 0.265638 -0.857928 -0.439768
vn -0.781959 -0.623330 0.000000
vn -0.781959 -0.623330 0.000000
vn -0.781959 -0.623330 0.000000
vn -0.781959 -0.623330 0.000000
vn -0.781959 -0.623330 0.000000
vn -0.781959 -0.623330 0.000000
vn -0.000000 -1.000000 -0.000000
vn -0.000000 -1.000000 -0.000000
vn -0.000000 -1.000000 -0.000000
vn 1.000000 0.000000 -0.000000
vn 1.000000 0.000000 -0.000000
vn 1.000000 0.000000 -0.000000
vn 1.000000 0.000000 -0.000000
vn 1.000000 0.000000 -0.000000
vn 1.000000 0.000000 -0.000000
vn -0.530644 0.204648 -0.822518
vn -0.527762 0.136196 -0.838402
vn -0.523845 0.000000 -0.851813
vn -0.530644 0.204648 -0.822518
vn -0.523845 0.000000 -0.851813
vn -0.542118 0.000000 -0.840302
vn 0.924902 0.380205 -0.000000
vn 0.924902 0.380205 -0.000000
vn 0.924902 0.380205 -0.000000
vn 0.924902 0.380205 -0.000000
vn 0.924902 0.380205 -0.000000
vn 0.924902 0.380205 -0.000000
vn -0.279363 0.000000 -0.960186
vn -0.514511 0.000000 -0.857484
vn -0.523845 0.000000 -0.851813
vn -0.279363 0.000000 -0.960186
vn -0.523845 0.000000 -0.851813
vn -0.279363 0.000000 -0.960186
vn -0.286969 0.695566 -0.658663
vn -0.416061 0.611312 -0.673195
vn -0.165782 0.814159 -0.556473
vn -0.416061 0.611312 -0.673195
vn -0.286969 0.695566 -0.658663
vn -0.481213 0.402738 -0.778612
vn -0.416061 0.611312 -0.673195
vn -0.481213 0.402738 -0.778612
vn -0.481213 0.402738 -0.778612
vn 1.000000 0.000000 -0.000000
vn 1.000000 0.000000 -0.000000
vn 1.000000 0.000000 -0.000000
vn 1.000000 0.000000 -0.000000
vn 1.000000 0.000000 -0.000000
vn 1.000000 0.000000 -0.000000
vn -0.279363 0.000000 -0.960186
vn 0.279363 0.000000 -0.960186
vn 0.279363 0.000000 -0.960186
vn -0.279363 0.000000 -0.960186
vn 0.279363 0.000000 -0.960186
vn -0.279363 0.000000 -0.960186
vn 0.165782 0.814159 -0.556473
vn 0.416061 0.611312 -0.673195
vn 0.286969 0.695566 -0.658663
vn 0.286969 0.695566 -0.658663
vn 0.416061 0.611312 -0.673195
vn 0.481213 0.402738 -0.778612
vn 0.286969 0.695566 -0.658663
vn 0.481213 0.402738 -0.778612
vn 0.481213 0.402738 -0.778612
vn -0.527762 0.136196 -0.838402
vn -0.530644 0.204648 -0.822518
vn -0.495849 0.404244 -0.768584
vn -0.527762 0.136196 -0.838402
vn -0.495849 0.404244 -0.768584
vn -0.495849 0.404244 -0.768584
vn 0.530644 0.204648 -0.822518
vn 0.527761 0.136196 -0.838402
vn 0.495849 0.404244 -0.768584
vn 0.530644 0.204648 -0.822518
vn 0.495849 0.404244 -0.768584
vn 0.495849 0.404244 -0.768584
vn -0.286969 0.695566 -0.658663
vn -0.165782 0.814159 -0.556473
vn 0.165782 0.814159 -0.556473
vn -0.286969 0.695566 -0.658663
vn 0.165782 0.814159 -0.556473
vn 0.286969 0.695566 -0.658663
vn -0.279363 0.000000 -0.960186
vn 0.279363 0.000000 -0.960186
vn 0.279363 0.000000 -0.960186
vn -0.279363 0.000000 -0.960186
vn 0.279363 0.000000 -0.960186
vn -0.279363 0.000000 -0.960186
f 8/1/1 27/2/2 33/3/3
f 34/4/4 30/5/5 7/6/6
f 14/7/7 4/8/8 6/9/9
f 14/10/10 6/11/11 13/12/12
f 32/13/13 1/14/14 3/15/15
f 32/16/16 3/17/17 29/18/18
f 33/19/19 10/20/20 8/21/21
f 28/22/22 6/23/23 4/24/24
f 28/25/25 4/26/26 31/27/27
f 31/28/28 4/29/29 7/30/30
f 31/31/31 7/32/32 30/33/33
f 4/34/34 14/35/35 16/36/36
f 4/37/37 16/38/38 5/39/39
f 27/40/40 30/41/41 34/42/42
f 27/43/43 34/44/44 33/45/45
f 2/46/46 17/47/47 11/48/48
f 2/49/49 11/50/50 1/51/51
f 7/52/52 9/53/53 34/54/54
f 16/55/55 14/56/56 13/57/57
f 16/58/58 13/59/59 12/60/60
f 15/61/61 3/62/62 1/63/63
f 15/64/64 1/65/65 11/66/66
f 12/67/67 13/68/68 25/69/69
f 12/70/70 25/71/71 23/72/72
f 27/73/73 8/74/74 1/75/75
f 27/76/76 1/77/77 32/78/78
f 19/79/79 6/80/80 28/81/81
f 6/82/82 19/83/83 24/84/84
f 6/85/85 24/86/86 26/87/87
f 5/88/88 9/89/89 7/90/90
f 5/91/91 7/92/92 4/93/93
f 32/94/94 31/95/95 30/96/96
f 32/97/97 30/98/98 27/99/99
f 29/100/100 3/101/101 18/102/102
f 18/103/103 3/104/104 21/105/105
f 18/106/106 21/107/107 20/108/108
f 3/109/109 15/110/110 22/111/111
f 3/112/112 22/113/113 21/114/114
f 13/115/115 6/116/116 26/117/117
f 13/118/118 26/119/119 25/120/120
f 19/121/121 28/122/122 29/123/123
f 19/124/124 29/125/125 18/126/126
f 29/127/127 28/128/128 31/129/129
f 29/130/130 31/131/131 32/132/132
