v -0.507825 -0.003213 -1.965018
v 0.505023 -0.002123 -1.965018
v -1.397151 0.722846 -4.140481
v -0.507233 -0.102380 3.997112
v 0.508382 -0.102380 3.997112
v -0.560926 0.553698 2.118517
v -0.000005 0.293090 3.997596
v 0.372833 -0.640232 -3.993931
v 0.507226 -1.179860 0.545052
v -0.431395 0.093349 -4.590189
v 0.239750 -1.125740 5.057336
v 0.676651 1.615947 -4.135246
v 0.411707 1.616202 -4.135246
v -0.000005 0.921705 2.119898
v 0.410741 1.272120 -4.135942
v -0.000005 1.169005 0.548726
v -0.617929 0.805875 0.547916
v 0.000458 1.317083 -1.963016
v 0.508838 -1.542368 3.995795
v -0.663698 0.960211 -1.964017
v 0.665709 0.960756 -1.964017
v -1.217751 -0.056542 -4.590095
v 1.401282 0.722932 -2.589395
v 0.506834 -0.001630 2.119129
v 0.620303 0.805875 0.547916
v -1.396707 -0.194207 -4.141191
v -0.505016 -0.001630 2.119129
v 1.001074 1.272105 -4.135942
v -0.506054 -1.179858 0.545053
v 0.562933 0.553698 2.118517
v -1.397926 -0.195320 -2.590327
v 0.706797 1.756625 -2.588986
v -0.703787 1.756625 -2.588986
v -0.703609 1.756196 -3.837776
v 0.706618 1.756196 -3.837776
v 1.400467 -0.195321 -2.590327
v 2.110315 0.660219 -4.449405
v 1.267999 1.161230 -2.590524
v 1.265967 1.163365 -3.838977
v -1.264949 1.161114 -2.590526
v -1.262923 1.163390 -3.838976
v 0.433254 0.093876 -4.590197
v 0.763477 -0.184573 -4.589015
v -2.239237 0.660019 -4.531980
v 2.237866 0.722697 -2.589183
v -0.237079 -1.125740 5.057336
v -0.504983 -0.824778 0.545190
v -0.239312 -0.565899 -1.961912
v 0.248152 1.163390 -3.838976
v 0.510426 -1.624963 2.122210
v -0.509442 -1.624963 2.122210
v 0.239947 -0.565910 -1.961913
v 2.236948 -0.094353 -2.590327
v -0.761266 -0.385198 -1.965566
v 0.762815 -0.385198 -1.965566
v 0.762969 0.720709 -1.964267
v -0.760738 0.720028 -1.964267
v -0.245773 1.163390 -3.838976
v 0.655751 0.422397 2.116335
v -0.700704 0.609503 0.548203
v -0.653411 0.422397 2.116335
v 0.703326 0.609571 0.548203
v -0.317767 0.842324 2.119207
v -0.364229 1.082007 0.548321
v -0.240302 0.026221 -4.141330
v -0.427507 1.226965 -1.963516
v 0.429027 1.227238 -1.963516
v 0.365622 1.082007 0.548321
v 0.240950 -0.563781 -3.540893
v 0.318899 0.842324 2.119207
v -0.260706 0.215611 3.995171
v 0.261291 0.215611 3.995171
v -1.398374 0.723418 -2.589395
v -0.674504 1.615680 -4.135241
v -0.506965 -1.542367 3.995795
v 0.506180 -0.824781 0.545190
v 0.507472 -0.385198 -1.965566
v 1.766604 1.645572 -2.604172
v -2.106999 0.660470 -4.449459
v -0.506843 -0.385198 -1.965566
v 2.242280 0.660148 -4.531551
v -2.234295 -0.094353 -2.590327
v -0.507748 -1.509614 0.964257
v 0.508826 -1.509614 0.964257
v -0.236069 -0.370109 5.052378
v 0.372833 -1.022797 -3.993931
v 0.240039 -0.370109 5.052378
v -0.413775 1.615935 -4.135241
v -0.998906 1.271852 -4.135938
v -0.408959 1.271852 -4.135938
v -0.430288 0.565885 -4.591294
v -1.218053 0.567054 -4.589612
v 0.249818 1.756634 -3.837776
v 0.240950 -1.102241 -3.540893
v 0.762342 -1.196662 -3.543636
v -0.254077 1.756634 -3.837776
v -0.371539 -0.640478 -3.993930
v -0.761389 -1.086312 -3.992486
v -0.761389 -0.519363 -3.992486
v -0.371539 -1.023044 -3.993930
v 0.762815 -1.030748 -1.965566
v -0.761266 -1.030748 -1.965566
v 0.763153 -1.086022 -3.992487
v 0.763153 -0.519073 -3.992487
v 1.220183 -0.056550 -4.590168
v -0.761687 -0.184853 -4.589005
v 1.220738 0.567319 -4.589620
v 0.431797 0.565962 -4.591302
v 0.241996 0.026882 -4.141330
v 0.239854 0.721127 -4.140295
v 1.299998 2.235030 -3.616621
v -0.238673 0.721127 -4.140295
v 1.399244 -0.194332 -4.141287
v 1.777016 1.739499 -3.617930
v 1.181381 2.121955 -3.570425
v 1.658409 1.626422 -3.571735
v 2.241498 -0.026222 -4.532435
v -1.655775 1.625470 -3.571436
v -0.760668 -0.383138 -3.543636
v 2.109487 -0.049522 -4.449915
v -1.297506 2.234763 -3.616240
v -2.234795 0.723590 -2.588877
v 0.762342 -0.382839 -3.543636
v -1.178782 2.121724 -3.570126
v 1.400060 0.723123 -4.140481
v -1.774499 1.738509 -3.617550
v -0.239904 -0.564015 -3.540893
v -1.987270 -0.140954 -2.590327
v -2.107022 -0.118948 -2.353771
v -2.107561 0.720670 -2.352718
v -1.987772 0.723507 -2.588789
v 1.990014 -0.140953 -2.590327
v 2.109983 -0.118305 -2.353954
v 2.110972 0.720508 -2.352901
v 1.990934 0.722771 -2.588972
v 1.622709 1.559857 -2.350259
v 1.117833 2.093695 -2.348602
v 1.004798 2.036013 -2.530000
v 1.566000 1.453022 -2.531540
v -1.114625 2.093589 -2.348397
v -1.002071 2.035906 -2.529796
v -1.619805 1.558850 -2.350055
v -1.563234 1.452080 -2.531336
v -1.764045 1.644559 -2.603827
v -2.238811 -0.026375 -4.532076
v -1.205127 2.226051 -2.602293
v -2.106548 -0.049756 -4.450053
v 1.207645 2.226230 -2.602638
v -0.761266 -1.122969 -2.122476
v -0.760668 -1.196961 -3.543636
v -0.239312 -1.028308 -1.961912
v -0.239904 -1.102475 -3.540893
v 0.239947 -1.028318 -1.961913
v 0.762815 -1.122969 -2.122476
v 0.001505 1.756625 -2.588986
v -0.780289 -0.079885 -4.421741
v -1.122337 0.016348 -4.422557
v -0.532570 0.128767 -4.422628
v -0.531739 0.483169 -4.423458
v -1.122564 0.484046 -4.422195
v 0.782181 -0.079617 -4.421752
v 0.534514 0.129220 -4.422639
v 1.124710 0.016400 -4.422616
v 1.125126 0.484303 -4.422207
v 0.533422 0.483285 -4.423468
v 0.666305 1.567530 -3.967804
v 0.909623 1.309649 -3.968327
v 0.467601 1.567721 -3.967804
v 0.466876 1.309660 -3.968327
v -0.907758 1.309298 -3.968333
v -0.664456 1.567169 -3.967812
v -0.465297 1.309298 -3.968333
v -0.468909 1.567360 -3.967812
vt 0.103950 0.417676
vt 0.103538 0.353964
vt 0.191781 0.318836
vt 0.103950 0.417676
vt 0.191781 0.318836
vt 0.191672 0.440249
vt 0.943082 0.826245
vt 0.985621 0.827096
vt 0.986299 0.575778
vt 0.943082 0.826245
vt 0.986299 0.575778
vt 0.941805 0.575259
vt 0.943814 0.054071
vt 0.941700 0.338488
vt 0.986245 0.337743
vt 0.943814 0.054071
vt 0.986245 0.337743
vt 0.984455 0.054290
vt 0.941700 0.338488
vt 0.986245 0.337743
vt 0.986299 0.575778
vt 0.941700 0.338488
vt 0.986299 0.575778
vt 0.941805 0.575259
vt 0.980924 0.982771
vt 0.942838 0.983096
vt 0.941055 0.910104
vt 0.980924 0.982771
vt 0.941055 0.910104
vt 0.981957 0.909829
vt 0.157296 0.801788
vt 0.004710 0.786922
vt 0.005116 0.996136
vt 0.699318 0.073375
vt 0.696774 0.371397
vt 0.379143 0.371336
vt 0.699318 0.073375
vt 0.379143 0.371336
vt 0.379341 0.137124
vt 0.726449 0.396812
vt 0.726690 0.539482
vt 0.642140 0.552452
vt 0.726449 0.396812
vt 0.642140 0.552452
vt 0.642302 0.384853
vt 0.051273 0.144615
vt 0.025883 0.133873
vt 0.015597 0.123020
vt 0.051273 0.144615
vt 0.015597 0.123020
vt 0.030245 0.118250
vt 0.947664 0.981509
vt 0.943331 0.827731
vt 0.985621 0.827096
vt 0.849539 0.373268
vt 0.875908 0.373206
vt 0.881305 0.051061
vt 0.849539 0.373268
vt 0.881305 0.051061
vt 0.861943 0.052070
vt 0.191672 0.440249
vt 0.347784 0.448744
vt 0.347528 0.311872
vt 0.191672 0.440249
vt 0.347528 0.311872
vt 0.191781 0.318836
vt 0.828137 0.576059
vt 0.842274 0.575899
vt 0.875908 0.373206
vt 0.828137 0.576059
vt 0.875908 0.373206
vt 0.849539 0.373268
vt 0.191781 0.318836
vt 0.347528 0.311872
vt 0.347784 0.448744
vt 0.191781 0.318836
vt 0.347784 0.448744
vt 0.191672 0.440249
vt 0.051273 0.144615
vt 0.025883 0.133873
vt 0.015597 0.123020
vt 0.642302 0.384853
vt 0.642140 0.552452
vt 0.726690 0.539482
vt 0.642302 0.384853
vt 0.726690 0.539482
vt 0.726449 0.396812
vt 0.051273 0.144615
vt 0.025883 0.133873
vt 0.015597 0.123020
vt 0.051273 0.144615
vt 0.015597 0.123020
vt 0.030245 0.118250
vt 0.051273 0.144615
vt 0.025883 0.133873
vt 0.015597 0.123020
vt 0.861943 0.052070
vt 0.881305 0.051061
vt 0.875908 0.373206
vt 0.861943 0.052070
vt 0.875908 0.373206
vt 0.849539 0.373268
vt 0.904367 0.373755
vt 0.875908 0.373206
vt 0.881305 0.051061
vt 0.904367 0.373755
vt 0.881305 0.051061
vt 0.924348 0.051560
vt 0.715707 0.956443
vt 0.794502 0.821938
vt 0.758259 0.821100
vt 0.941805 0.575259
vt 0.986299 0.575778
vt 0.985621 0.827096
vt 0.941805 0.575259
vt 0.985621 0.827096
vt 0.943082 0.826245
vt 0.941805 0.575259
vt 0.986299 0.575778
vt 0.986245 0.337743
vt 0.941805 0.575259
vt 0.986245 0.337743
vt 0.941700 0.338488
vt 0.758259 0.821100
vt 0.794502 0.821938
vt 0.715707 0.956443
vt 0.051273 0.144615
vt 0.025883 0.133873
vt 0.015597 0.123020
vt 0.051273 0.144615
vt 0.015597 0.123020
vt 0.030245 0.118250
vt 0.051273 0.144615
vt 0.025883 0.133873
vt 0.015597 0.123020
vt 0.051273 0.144615
vt 0.015597 0.123020
vt 0.030245 0.118250
vt 0.942838 0.983096
vt 0.941055 0.910104
vt 0.981957 0.909829
vt 0.942838 0.983096
vt 0.981957 0.909829
vt 0.980924 0.982771
vt 0.051273 0.144615
vt 0.025883 0.133873
vt 0.015597 0.123020
vt 0.051273 0.144615
vt 0.015597 0.123020
vt 0.030245 0.118250
vt 0.849539 0.373268
vt 0.875908 0.373206
vt 0.842274 0.575899
vt 0.849539 0.373268
vt 0.842274 0.575899
vt 0.828137 0.576059
vt 0.758259 0.821100
vt 0.842274 0.575899
vt 0.828137 0.576059
vt 0.828137 0.576059
vt 0.842274 0.575899
vt 0.758259 0.821100
vt 0.869473 0.577869
vt 0.842274 0.575899
vt 0.875908 0.373206
vt 0.869473 0.577869
vt 0.875908 0.373206
vt 0.904367 0.373755
vt 0.869473 0.577869
vt 0.842274 0.575899
vt 0.758259 0.821100
vt 0.869473 0.577869
vt 0.758259 0.821100
vt 0.794502 0.821938
vt 0.794502 0.821938
vt 0.758259 0.821100
vt 0.842274 0.575899
vt 0.794502 0.821938
vt 0.842274 0.575899
vt 0.869473 0.577869
vt 0.904367 0.373755
vt 0.875908 0.373206
vt 0.842274 0.575899
vt 0.904367 0.373755
vt 0.842274 0.575899
vt 0.869473 0.577869
vt 0.924348 0.051560
vt 0.881305 0.051061
vt 0.875908 0.373206
vt 0.924348 0.051560
vt 0.875908 0.373206
vt 0.904367 0.373755
vt 0.984455 0.054290
vt 0.986245 0.337743
vt 0.941700 0.338488
vt 0.984455 0.054290
vt 0.941700 0.338488
vt 0.943814 0.054071
vt 0.051273 0.144615
vt 0.025883 0.133873
vt 0.015597 0.123020
vt 0.051273 0.144615
vt 0.015597 0.123020
vt 0.030245 0.118250
vt 0.051273 0.144615
vt 0.025883 0.133873
vt 0.015597 0.123020
vt 0.051273 0.144615
vt 0.015597 0.123020
vt 0.030245 0.118250
vt 0.051273 0.144615
vt 0.025883 0.133873
vt 0.015597 0.123020
vt 0.699318 0.073375
vt 0.696774 0.371397
vt 0.749372 0.172810
vt 0.699318 0.073375
vt 0.749372 0.172810
vt 0.748797 0.073375
vt 0.051273 0.144615
vt 0.025883 0.133873
vt 0.015597 0.123020
vt 0.051273 0.144615
vt 0.015597 0.123020
vt 0.030245 0.118250
vt 0.942838 0.983096
vt 0.941055 0.910104
vt 0.981957 0.909829
vt 0.942838 0.983096
vt 0.981957 0.909829
vt 0.980924 0.982771
vt 0.191672 0.440249
vt 0.191781 0.318836
vt 0.103538 0.353964
vt 0.191672 0.440249
vt 0.103538 0.353964
vt 0.103950 0.417676
vt 0.337400 0.003069
vt 0.399952 0.069572
vt 0.210323 0.311013
vt 0.337400 0.003069
vt 0.210323 0.311013
vt 0.074734 0.169876
vt 0.337400 0.003069
vt 0.399952 0.069572
vt 0.210323 0.311013
vt 0.337400 0.003069
vt 0.210323 0.311013
vt 0.074734 0.169876
vt 0.209430 0.891814
vt 0.544939 0.927318
vt 0.543989 0.944658
vt 0.272135 0.321183
vt 0.272514 0.274369
vt 0.532354 0.207302
vt 0.051273 0.144615
vt 0.025883 0.133873
vt 0.015597 0.123020
vt 0.748797 0.073375
vt 0.749372 0.172810
vt 0.696774 0.371397
vt 0.748797 0.073375
vt 0.696774 0.371397
vt 0.699318 0.073375
vt 0.317869 0.063616
vt 0.345265 0.069572
vt 0.315791 0.092263
vt 0.317869 0.063616
vt 0.315791 0.092263
vt 0.326308 0.075150
vt 0.317869 0.063616
vt 0.345265 0.069572
vt 0.315791 0.092263
vt 0.317869 0.063616
vt 0.315791 0.092263
vt 0.326308 0.075150
vt 0.696774 0.371397
vt 0.699318 0.073375
vt 0.379341 0.137124
vt 0.696774 0.371397
vt 0.379341 0.137124
vt 0.379143 0.371336
vt 0.942838 0.983096
vt 0.941055 0.910104
vt 0.981957 0.909829
vt 0.942838 0.983096
vt 0.981957 0.909829
vt 0.980924 0.982771
vt 0.942838 0.983096
vt 0.941055 0.910104
vt 0.981957 0.909829
vt 0.942838 0.983096
vt 0.981957 0.909829
vt 0.980924 0.982771
vt 0.942838 0.983096
vt 0.941055 0.910104
vt 0.981957 0.909829
vt 0.942838 0.983096
vt 0.981957 0.909829
vt 0.980924 0.982771
vt 0.605440 0.405246
vt 0.713383 0.389732
vt 0.780765 0.541100
vt 0.984359 0.980817
vt 0.937451 0.931338
vt 0.981715 0.848580
vt 0.985621 0.827096
vt 0.943331 0.827731
vt 0.947664 0.981509
vt 0.536557 0.310354
vt 0.696774 0.371397
vt 0.379143 0.371336
vt 0.207384 0.370374
vt 0.207384 0.384459
vt 0.231882 0.390327
vt 0.482027 0.866514
vt 0.482145 0.787702
vt 0.458142 0.787266
vt 0.482027 0.866514
vt 0.458142 0.787266
vt 0.457992 0.874121
vt 0.482145 0.787702
vt 0.482027 0.866514
vt 0.457992 0.874121
vt 0.482145 0.787702
vt 0.457992 0.874121
vt 0.458142 0.787266
vt 0.536557 0.310354
vt 0.696774 0.371397
vt 0.379143 0.371336
vt 0.536557 0.310354
vt 0.402503 0.320616
vt 0.379143 0.371336
vt 0.399952 0.069572
vt 0.192869 0.292131
vt 0.210323 0.311013
vt 0.021284 0.015074
vt 0.020455 0.077563
vt 0.025941 0.074448
vt 0.021284 0.015074
vt 0.025941 0.074448
vt 0.025769 0.021229
vt 0.399952 0.069572
vt 0.210323 0.311013
vt 0.192869 0.292131
vt 0.399952 0.069572
vt 0.210323 0.311013
vt 0.192869 0.292131
vt 0.020455 0.077563
vt 0.021284 0.015074
vt 0.025769 0.021229
vt 0.020455 0.077563
vt 0.025769 0.021229
vt 0.025941 0.074448
vt 0.399952 0.069572
vt 0.192869 0.292131
vt 0.210323 0.311013
vt 0.736169 0.533938
vt 0.624841 0.534264
vt 0.646456 0.393202
vt 0.736169 0.533938
vt 0.646456 0.393202
vt 0.714490 0.393641
vt 0.714490 0.393641
vt 0.646456 0.393202
vt 0.624841 0.534264
vt 0.714490 0.393641
vt 0.624841 0.534264
vt 0.736169 0.533938
vt 0.611423 0.736685
vt 0.611294 0.598383
vt 0.704526 0.598592
vt 0.611423 0.736685
vt 0.704526 0.598592
vt 0.704614 0.739483
vt 0.611294 0.598383
vt 0.611423 0.736685
vt 0.704614 0.739483
vt 0.611294 0.598383
vt 0.704614 0.739483
vt 0.704526 0.598592
vt 0.611294 0.598383
vt 0.611423 0.736685
vt 0.704614 0.739483
vt 0.611294 0.598383
vt 0.704614 0.739483
vt 0.704526 0.598592
vt 0.611294 0.598383
vt 0.611423 0.736685
vt 0.704614 0.739483
vt 0.611294 0.598383
vt 0.704614 0.739483
vt 0.704526 0.598592
vt 0.021284 0.015074
vt 0.020455 0.077563
vt 0.025941 0.074448
vt 0.025941 0.074448
vt 0.025769 0.021229
vt 0.021284 0.015074
vt 0.025941 0.074448
vt 0.021284 0.015074
vt 0.020455 0.077563
vt 0.021284 0.015074
vt 0.020455 0.077563
vt 0.025941 0.074448
vt 0.021284 0.015074
vt 0.020455 0.077563
vt 0.025941 0.074448
vt 0.021284 0.015074
vt 0.020455 0.077563
vt 0.025941 0.074448
vt 0.021284 0.015074
vt 0.025941 0.074448
vt 0.025769 0.021229
vt 0.021284 0.015074
vt 0.020455 0.077563
vt 0.025941 0.074448
vt 0.207525 0.608222
vt 0.231991 0.607636
vt 0.207503 0.608203
vt 0.482027 0.866514
vt 0.457992 0.874121
vt 0.458142 0.787266
vt 0.482027 0.866514
vt 0.458142 0.787266
vt 0.482145 0.787702
vt 0.231882 0.390327
vt 0.207384 0.384459
vt 0.207384 0.396532
vt 0.207384 0.384459
vt 0.231901 0.390160
vt 0.207384 0.396532
vt 0.457992 0.874121
vt 0.482027 0.866514
vt 0.482145 0.787702
vt 0.457992 0.874121
vt 0.482145 0.787702
vt 0.458142 0.787266
vt 0.020455 0.077563
vt 0.025941 0.074448
vt 0.025769 0.021229
vt 0.020455 0.077563
vt 0.025941 0.074448
vt 0.025769 0.021229
vt 0.020455 0.077563
vt 0.025769 0.021229
vt 0.021284 0.015074
vt 0.021284 0.015074
vt 0.020455 0.077563
vt 0.025941 0.074448
vt 0.021284 0.015074
vt 0.025941 0.074448
vt 0.025769 0.021229
vt 0.028120 0.015074
vt 0.028267 0.078539
vt 0.150941 0.078354
vt 0.028120 0.015074
vt 0.150941 0.078354
vt 0.150769 0.025135
vt 0.678502 0.763166
vt 0.678612 0.856692
vt 0.527973 0.849919
vt 0.678502 0.763166
vt 0.527973 0.849919
vt 0.527932 0.773067
vt 0.021284 0.015074
vt 0.020455 0.077563
vt 0.025941 0.074448
vt 0.021284 0.015074
vt 0.025941 0.074448
vt 0.025769 0.021229
vt 0.021284 0.015074
vt 0.020455 0.077563
vt 0.025941 0.074448
vt 0.021284 0.015074
vt 0.025941 0.074448
vt 0.025769 0.021229
vt 0.028267 0.078539
vt 0.028120 0.015074
vt 0.150769 0.025135
vt 0.028267 0.078539
vt 0.150769 0.025135
vt 0.150941 0.078354
vt 0.678502 0.763166
vt 0.678612 0.856692
vt 0.527973 0.849919
vt 0.678502 0.763166
vt 0.527973 0.849919
vt 0.527932 0.773067
vt 0.482027 0.866514
vt 0.457992 0.874121
vt 0.458142 0.787266
vt 0.482027 0.866514
vt 0.458142 0.787266
vt 0.482145 0.787702
vt 0.482027 0.866514
vt 0.457992 0.874121
vt 0.458142 0.787266
vt 0.482027 0.866514
vt 0.458142 0.787266
vt 0.482145 0.787702
vt 0.224732 0.873696
vt 0.224884 0.779879
vt 0.482145 0.787702
vt 0.224732 0.873696
vt 0.482145 0.787702
vt 0.482027 0.866514
vt 0.678502 0.763166
vt 0.678612 0.856692
vt 0.527973 0.849919
vt 0.678502 0.763166
vt 0.527973 0.849919
vt 0.527932 0.773067
vt 0.482027 0.866514
vt 0.457992 0.874121
vt 0.458142 0.787266
vt 0.482027 0.866514
vt 0.458142 0.787266
vt 0.482145 0.787702
vt 0.207384 0.384459
vt 0.207384 0.396532
vt 0.006138 0.414143
vt 0.207384 0.384459
vt 0.006138 0.414143
vt 0.014639 0.408085
vt 0.224884 0.779879
vt 0.224732 0.873696
vt 0.482027 0.866514
vt 0.224884 0.779879
vt 0.482027 0.866514
vt 0.482145 0.787702
vt 0.678502 0.763166
vt 0.678612 0.856692
vt 0.527973 0.849919
vt 0.678502 0.763166
vt 0.527973 0.849919
vt 0.527932 0.773067
vt 0.143548 0.722365
vt 0.147764 0.723138
vt 0.147645 0.718233
vt 0.143548 0.722365
vt 0.147645 0.718233
vt 0.143785 0.718936
vt 0.143548 0.722365
vt 0.147764 0.723138
vt 0.147645 0.718233
vt 0.143548 0.722365
vt 0.147645 0.718233
vt 0.143785 0.718936
vt 0.051273 0.144615
vt 0.025883 0.133873
vt 0.015597 0.123020
vt 0.051273 0.144615
vt 0.015597 0.123020
vt 0.030245 0.118250
vt 0.051273 0.144615
vt 0.025883 0.133873
vt 0.015597 0.123020
vt 0.051273 0.144615
vt 0.015597 0.123020
vt 0.030245 0.118250
vt 0.379143 0.371336
vt 0.696774 0.371397
vt 0.536557 0.310354
vt 0.051273 0.144615
vt 0.025883 0.133873
vt 0.015597 0.123020
vt 0.051273 0.144615
vt 0.015597 0.123020
vt 0.030245 0.118250
vt 0.708956 0.263645
vt 0.708832 0.148147
vt 0.611647 0.147998
vt 0.708956 0.263645
vt 0.611647 0.147998
vt 0.611720 0.264420
vt 0.708956 0.263645
vt 0.708832 0.148147
vt 0.611647 0.147998
vt 0.708956 0.263645
vt 0.611647 0.147998
vt 0.611720 0.264420
vt 0.708956 0.263645
vt 0.708832 0.148147
vt 0.611647 0.147998
vt 0.708956 0.263645
vt 0.611647 0.147998
vt 0.611720 0.264420
vt 0.708956 0.263645
vt 0.708832 0.148147
vt 0.611647 0.147998
vt 0.708956 0.263645
vt 0.611647 0.147998
vt 0.611720 0.264420
vt 0.708956 0.263645
vt 0.708832 0.148147
vt 0.611647 0.147998
vt 0.708956 0.263645
vt 0.611647 0.147998
vt 0.611720 0.264420
vt 0.708956 0.263645
vt 0.708832 0.148147
vt 0.611647 0.147998
vt 0.708956 0.263645
vt 0.611647 0.147998
vt 0.611720 0.264420
vt 0.708956 0.263645
vt 0.708832 0.148147
vt 0.611647 0.147998
vt 0.708956 0.263645
vt 0.611647 0.147998
vt 0.611720 0.264420
vt 0.708956 0.263645
vt 0.708832 0.148147
vt 0.611647 0.147998
vt 0.708956 0.263645
vt 0.611647 0.147998
vt 0.611720 0.264420
vt 0.231901 0.390160
vt 0.207384 0.384459
vt 0.207384 0.370374
vt 0.143548 0.722365
vt 0.147764 0.723138
vt 0.147645 0.718233
vt 0.143548 0.722365
vt 0.147645 0.718233
vt 0.143785 0.718936
vt 0.143548 0.722365
vt 0.143785 0.718936
vt 0.145686 0.720668
vt 0.143548 0.722365
vt 0.147764 0.723138
vt 0.147645 0.718233
vt 0.143548 0.722365
vt 0.147645 0.718233
vt 0.143785 0.718936
vt 0.143548 0.722365
vt 0.143785 0.718936
vt 0.145686 0.720668
vt 0.051273 0.144615
vt 0.025883 0.133873
vt 0.015597 0.123020
vt 0.051273 0.144615
vt 0.015597 0.123020
vt 0.030245 0.118250
vt 0.051273 0.144615
vt 0.025883 0.133873
vt 0.015597 0.123020
vt 0.051273 0.144615
vt 0.015597 0.123020
vt 0.030245 0.118250
vt 0.708956 0.263645
vt 0.708832 0.148147
vt 0.611647 0.147998
vt 0.708956 0.263645
vt 0.611647 0.147998
vt 0.611720 0.264420
vt 0.708956 0.263645
vt 0.708832 0.148147
vt 0.611647 0.147998
vt 0.708956 0.263645
vt 0.611647 0.147998
vt 0.611720 0.264420
vt 0.708956 0.263645
vt 0.708832 0.148147
vt 0.611647 0.147998
vt 0.708956 0.263645
vt 0.611647 0.147998
vt 0.611720 0.264420
vt 0.708956 0.263645
vt 0.708832 0.148147
vt 0.611647 0.147998
vt 0.708956 0.263645
vt 0.611647 0.147998
vt 0.611720 0.264420
vt 0.708956 0.263645
vt 0.708832 0.148147
vt 0.611647 0.147998
vt 0.708956 0.263645
vt 0.611647 0.147998
vt 0.611720 0.264420
vt 0.708956 0.263645
vt 0.708832 0.148147
vt 0.611647 0.147998
vt 0.708956 0.263645
vt 0.611647 0.147998
vt 0.611720 0.264420
vt 0.708956 0.263645
vt 0.708832 0.148147
vt 0.611647 0.147998
vt 0.708956 0.263645
vt 0.611647 0.147998
vt 0.611720 0.264420
vt 0.708956 0.263645
vt 0.708832 0.148147
vt 0.611647 0.147998
vt 0.708956 0.263645
vt 0.611647 0.147998
vt 0.611720 0.264420
vt 0.708956 0.263645
vt 0.708832 0.148147
vt 0.611647 0.147998
vt 0.708956 0.263645
vt 0.611647 0.147998
vt 0.611720 0.264420
vt 0.708956 0.263645
vt 0.708832 0.148147
vt 0.611647 0.147998
vt 0.708956 0.263645
vt 0.611647 0.147998
vt 0.611720 0.264420
vt 0.051273 0.144615
vt 0.025883 0.133873
vt 0.015597 0.123020
vt 0.051273 0.144615
vt 0.015597 0.123020
vt 0.030245 0.118250
vt 0.941055 0.910104
vt 0.981957 0.909829
vt 0.980924 0.982771
vt 0.941055 0.910104
vt 0.980924 0.982771
vt 0.942838 0.983096
vt 0.942838 0.983096
vt 0.941055 0.910104
vt 0.981957 0.909829
vt 0.942838 0.983096
vt 0.981957 0.909829
vt 0.980924 0.982771
vt 0.087042 0.094020
vt 0.067510 0.156521
vt 0.014702 0.172807
vt 0.087042 0.094020
vt 0.014702 0.172807
vt -0.012642 0.086866
vt 0.087042 0.094020
vt 0.067510 0.156521
vt 0.014702 0.172807
vt 0.087042 0.094020
vt 0.014702 0.172807
vt -0.012642 0.086866
vt 0.087042 0.094020
vt 0.067510 0.156521
vt 0.014702 0.172807
vt 0.087042 0.094020
vt 0.014702 0.172807
vt -0.012642 0.086866
vt 0.087042 0.094020
vt 0.067510 0.156521
vt 0.014702 0.172807
vt 0.087042 0.094020
vt 0.014702 0.172807
vt -0.012642 0.086866
vt 0.005116 0.996136
vt 0.004710 0.786922
vt 0.157296 0.801788
vt 0.005116 0.996136
vt 0.543292 0.996072
vt 0.543364 0.946702
vt 0.005116 0.996136
vt 0.543364 0.946702
vt 0.208610 0.891351
vt 0.543292 0.996072
vt 0.005116 0.996136
vt 0.208610 0.891351
vt 0.543292 0.996072
vt 0.208610 0.891351
vt 0.543364 0.946702
vt 0.005116 0.996136
vt 0.208610 0.891351
vt 0.208629 0.841683
vt 0.208629 0.841683
vt 0.208610 0.891351
vt 0.005116 0.996136
vt 0.005116 0.996136
vt 0.208629 0.841683
vt 0.157296 0.801788
vt 0.157296 0.801788
vt 0.208629 0.841683
vt 0.005116 0.996136
vt 0.051273 0.144615
vt 0.025883 0.133873
vt 0.015597 0.123020
vt 0.051273 0.144615
vt 0.015597 0.123020
vt 0.030245 0.118250
vt 0.051273 0.144615
vt 0.030245 0.118250
vt 0.030749 0.129940
vt 0.051273 0.144615
vt 0.025883 0.133873
vt 0.015597 0.123020
vt 0.051273 0.144615
vt 0.015597 0.123020
vt 0.030245 0.118250
vt 0.143548 0.722365
vt 0.147764 0.723138
vt 0.147645 0.718233
vt 0.143548 0.722365
vt 0.147645 0.718233
vt 0.143785 0.718936
vt 0.051273 0.144615
vt 0.025883 0.133873
vt 0.015597 0.123020
vt 0.051273 0.144615
vt 0.015597 0.123020
vt 0.030245 0.118250
vt 0.051273 0.144615
vt 0.025883 0.133873
vt 0.015597 0.123020
vt 0.051273 0.144615
vt 0.015597 0.123020
vt 0.030245 0.118250
vt 0.051273 0.144615
vt 0.030245 0.118250
vt 0.030749 0.129940
vt 0.143548 0.722365
vt 0.147764 0.723138
vt 0.147645 0.718233
vt 0.143548 0.722365
vt 0.147645 0.718233
vt 0.143785 0.718936
vt 0.401905 0.071525
vt 0.296385 0.028459
vt 0.168484 0.111282
vt 0.401905 0.071525
vt 0.168484 0.111282
vt 0.280635 0.225076
vt 0.317869 0.063616
vt 0.345265 0.069572
vt 0.315791 0.092263
vt 0.296385 0.028459
vt 0.401905 0.071525
vt 0.280635 0.225076
vt 0.296385 0.028459
vt 0.280635 0.225076
vt 0.168484 0.111282
vt 0.317869 0.063616
vt 0.345265 0.069572
vt 0.315791 0.092263
vt 0.708956 0.263645
vt 0.708832 0.148147
vt 0.611647 0.147998
vt 0.708956 0.263645
vt 0.611647 0.147998
vt 0.611720 0.264420
vt 0.708956 0.263645
vt 0.708832 0.148147
vt 0.611647 0.147998
vt 0.708956 0.263645
vt 0.611647 0.147998
vt 0.611720 0.264420
vt 0.708956 0.263645
vt 0.708832 0.148147
vt 0.611647 0.147998
vt 0.708956 0.263645
vt 0.611647 0.147998
vt 0.611720 0.264420
vt 0.708956 0.263645
vt 0.708832 0.148147
vt 0.611647 0.147998
vt 0.708956 0.263645
vt 0.611647 0.147998
vt 0.611720 0.264420
vt 0.708956 0.263645
vt 0.708832 0.148147
vt 0.611647 0.147998
vt 0.708956 0.263645
vt 0.611647 0.147998
vt 0.611720 0.264420
vt 0.708956 0.263645
vt 0.708832 0.148147
vt 0.611647 0.147998
vt 0.708956 0.263645
vt 0.611647 0.147998
vt 0.611720 0.264420
vt 0.708956 0.263645
vt 0.708832 0.148147
vt 0.611647 0.147998
vt 0.708956 0.263645
vt 0.611647 0.147998
vt 0.611720 0.264420
vt 0.708956 0.263645
vt 0.708832 0.148147
vt 0.611647 0.147998
vt 0.708956 0.263645
vt 0.611647 0.147998
vt 0.611720 0.264420
vt 0.780765 0.541100
vt 0.713383 0.389732
vt 0.605440 0.405246
vt 0.051273 0.144615
vt 0.025883 0.133873
vt 0.015597 0.123020
vt 0.051273 0.144615
vt 0.015597 0.123020
vt 0.030245 0.118250
vt 0.051273 0.144615
vt 0.030245 0.118250
vt 0.047823 0.117274
vt 0.051273 0.144615
vt 0.047823 0.117274
vt 0.068331 0.107395
vt 0.051273 0.144615
vt 0.068331 0.107395
vt 0.095219 0.110435
vt 0.210323 0.311013
vt 0.192869 0.292131
vt 0.399952 0.069572
vt 0.192869 0.292131
vt 0.210323 0.311013
vt 0.399952 0.069572
vt 0.192869 0.292131
vt 0.210323 0.311013
vt 0.399952 0.069572
vt 0.192869 0.292131
vt 0.210323 0.311013
vt 0.399952 0.069572
vt 0.231991 0.607636
vt 0.207525 0.608222
vt 0.207481 0.608264
vt 0.379143 0.371336
vt 0.696774 0.371397
vt 0.536557 0.310354
vt 0.605440 0.405246
vt 0.604008 0.541100
vt 0.780765 0.541100
vt 0.780765 0.541100
vt 0.604008 0.541100
vt 0.605440 0.405246
vt 0.147645 0.718233
vt 0.143785 0.718936
vt 0.143785 0.718936
vt 0.147645 0.718233
vt 0.143785 0.718936
vt 0.147645 0.718233
vt 0.147764 0.723138
vt 0.147645 0.718233
vt 0.147645 0.718233
vt 0.147764 0.723138
vt 0.147645 0.718233
vt 0.147764 0.723138
vt 0.143548 0.722365
vt 0.147764 0.723138
vt 0.147764 0.723138
vt 0.143548 0.722365
vt 0.147764 0.723138
vt 0.143548 0.722365
vt 0.145686 0.720668
vt 0.143548 0.722365
vt 0.143548 0.722365
vt 0.145686 0.720668
vt 0.143548 0.722365
vt 0.145686 0.720668
vt 0.143785 0.718936
vt 0.145686 0.720668
vt 0.145686 0.720668
vt 0.143785 0.718936
vt 0.145686 0.720668
vt 0.143785 0.718936
vt 0.147645 0.718233
vt 0.143785 0.718936
vt 0.143785 0.718936
vt 0.147645 0.718233
vt 0.143785 0.718936
vt 0.147645 0.718233
vt 0.147764 0.723138
vt 0.147645 0.718233
vt 0.147645 0.718233
vt 0.147764 0.723138
vt 0.147645 0.718233
vt 0.147764 0.723138
vt 0.143548 0.722365
vt 0.147764 0.723138
vt 0.147764 0.723138
vt 0.143548 0.722365
vt 0.147764 0.723138
vt 0.143548 0.722365
vt 0.145686 0.720668
vt 0.143548 0.722365
vt 0.143548 0.722365
vt 0.145686 0.720668
vt 0.143548 0.722365
vt 0.145686 0.720668
vt 0.143785 0.718936
vt 0.145686 0.720668
vt 0.145686 0.720668
vt 0.143785 0.718936
vt 0.145686 0.720668
vt 0.143785 0.718936
vt 0.147764 0.723138
vt 0.147645 0.718233
vt 0.147645 0.718233
vt 0.147764 0.723138
vt 0.147645 0.718233
vt 0.147764 0.723138
vt 0.143548 0.722365
vt 0.147764 0.723138
vt 0.147764 0.723138
vt 0.143548 0.722365
vt 0.147764 0.723138
vt 0.143548 0.722365
vt 0.143785 0.718936
vt 0.143548 0.722365
vt 0.143548 0.722365
vt 0.143785 0.718936
vt 0.143548 0.722365
vt 0.143785 0.718936
vt 0.147645 0.718233
vt 0.143785 0.718936
vt 0.143785 0.718936
vt 0.147645 0.718233
vt 0.143785 0.718936
vt 0.147645 0.718233
vt 0.147764 0.723138
vt 0.147645 0.718233
vt 0.147645 0.718233
vt 0.147764 0.723138
vt 0.147645 0.718233
vt 0.147764 0.723138
vt 0.143548 0.722365
vt 0.147764 0.723138
vt 0.147764 0.723138
vt 0.143548 0.722365
vt 0.147764 0.723138
vt 0.143548 0.722365
vt 0.143785 0.718936
vt 0.143548 0.722365
vt 0.143548 0.722365
vt 0.143785 0.718936
vt 0.143548 0.722365
vt 0.143785 0.718936
vt 0.147645 0.718233
vt 0.143785 0.718936
vt 0.143785 0.718936
vt 0.147645 0.718233
vt 0.143785 0.718936
vt 0.147645 0.718233
vn 0.495675 0.573797 0.651969
vn 0.969257 0.000482 0.246049
vn 0.992283 0.000909 0.123989
vn 0.495675 0.573797 0.651969
vn 0.992283 0.000909 0.123989
vn 0.902527 0.371099 0.218475
vn -0.525653 0.773297 0.354543
vn -0.000238 0.901322 0.433150
vn -0.000395 0.970930 0.239364
vn -0.525653 0.773297 0.354543
vn -0.000395 0.970930 0.239364
vn -0.521627 0.825481 0.215605
vn 0.072501 0.941798 0.328268
vn -0.508557 0.854774 0.103589
vn -0.000429 0.994054 0.108883
vn 0.072501 0.941798 0.328268
vn -0.000429 0.994054 0.108883
vn -0.000260 0.886548 0.462637
vn 0.507411 0.855439 0.103726
vn -0.000429 0.994054 0.108883
vn -0.000395 0.970930 0.239364
vn 0.507411 0.855439 0.103726
vn -0.000395 0.970930 0.239364
vn 0.520571 0.826084 0.215848
vn -0.495502 0.573185 0.652638
vn 0.000000 0.006561 0.999978
vn 0.000000 0.006561 0.999978
vn -0.495502 0.573185 0.652638
vn 0.000000 0.006561 0.999978
vn 0.495675 0.573797 0.651969
vn -0.999995 0.002893 -0.001412
vn -0.999998 0.002041 -0.000558
vn -0.999998 0.001707 -0.000750
vn -0.071658 0.004485 0.997419
vn -0.093329 -0.001158 0.995635
vn -0.627977 -0.001319 0.778231
vn -0.071658 0.004485 0.997419
vn -0.627977 -0.001319 0.778231
vn -0.627977 -0.001319 0.778231
vn 0.818295 0.560294 -0.128312
vn 0.929088 0.158534 0.334160
vn 0.948977 0.187696 0.253401
vn 0.818295 0.560294 -0.128312
vn 0.948977 0.187696 0.253401
vn 0.986886 0.099203 -0.127340
vn -0.929416 0.158206 0.333401
vn -0.046247 0.930694 0.362863
vn -0.389082 0.894473 -0.220301
vn -0.929416 0.158206 0.333401
vn -0.389082 0.894473 -0.220301
vn -0.818267 0.560433 -0.127886
vn 0.495675 0.573797 0.651969
vn 0.524997 0.773954 0.354082
vn -0.000238 0.901322 0.433150
vn -0.902447 0.425514 0.067281
vn -0.831523 0.549661 0.080260
vn -0.926081 -0.049089 0.374118
vn -0.902447 0.425514 0.067281
vn -0.926081 -0.049089 0.374118
vn -0.856696 0.327403 0.398597
vn -0.902739 0.370362 0.218846
vn -0.999998 0.001707 -0.000750
vn -0.999998 0.002041 -0.000558
vn -0.902739 0.370362 0.218846
vn -0.999998 0.002041 -0.000558
vn -0.992181 0.001056 0.124806
vn -0.841913 0.516230 0.157130
vn -0.799174 0.576921 0.168773
vn -0.831523 0.549661 0.080260
vn -0.841913 0.516230 0.157130
vn -0.831523 0.549661 0.080260
vn -0.902447 0.425514 0.067281
vn 0.992283 0.000909 0.123989
vn 0.999998 0.001766 -0.000572
vn 0.999997 0.002118 -0.000963
vn 0.992283 0.000909 0.123989
vn 0.999997 0.002118 -0.000963
vn 0.902527 0.371099 0.218475
vn 0.041752 -0.949231 -0.311798
vn 0.085352 -0.863712 -0.496705
vn -0.306585 -0.570140 -0.762198
vn -0.986858 0.099585 -0.127257
vn -0.948955 0.188028 0.253241
vn -0.929416 0.158206 0.333401
vn -0.986858 0.099585 -0.127257
vn -0.929416 0.158206 0.333401
vn -0.818267 0.560433 -0.127886
vn 0.818295 0.560294 -0.128312
vn 0.388966 0.894485 -0.220457
vn 0.045960 0.930889 0.362399
vn 0.818295 0.560294 -0.128312
vn 0.045960 0.930889 0.362399
vn 0.929088 0.158534 0.334160
vn 0.306824 -0.570105 -0.762128
vn -0.084795 -0.863786 -0.496673
vn -0.042354 -0.949224 -0.311736
vn 0.856415 0.327878 0.398810
vn 0.925806 -0.048100 0.374926
vn 0.830666 0.550926 0.080462
vn 0.856415 0.327878 0.398810
vn 0.830666 0.550926 0.080462
vn 0.901896 0.426655 0.067452
vn 0.507411 0.855439 0.103726
vn 0.830666 0.550926 0.080462
vn 0.925806 -0.048100 0.374926
vn 0.507411 0.855439 0.103726
vn 0.925806 -0.048100 0.374926
vn -0.072961 0.941923 0.327806
vn -0.495502 0.573185 0.652638
vn -0.525653 0.773297 0.354543
vn -0.902739 0.370362 0.218846
vn 0.520571 0.826084 0.215848
vn -0.000395 0.970930 0.239364
vn -0.000238 0.901322 0.433150
vn 0.520571 0.826084 0.215848
vn -0.000238 0.901322 0.433150
vn 0.524997 0.773954 0.354082
vn -0.521627 0.825481 0.215605
vn -0.000395 0.970930 0.239364
vn -0.000429 0.994054 0.108883
vn -0.521627 0.825481 0.215605
vn -0.000429 0.994054 0.108883
vn -0.508557 0.854774 0.103589
vn 0.902527 0.371099 0.218475
vn 0.524997 0.773954 0.354082
vn 0.495675 0.573797 0.651969
vn 0.218743 -0.968547 -0.118610
vn 0.177299 -0.983658 -0.031341
vn 0.219361 -0.973027 -0.071405
vn 0.218743 -0.968547 -0.118610
vn 0.219361 -0.973027 -0.071405
vn 0.041752 -0.949231 -0.311798
vn 0.812992 -0.576888 -0.079020
vn -0.812557 -0.577553 -0.078641
vn -0.191794 -0.977671 -0.085872
vn 0.812992 -0.576888 -0.079020
vn -0.191794 -0.977671 -0.085872
vn 0.191952 -0.977637 -0.085912
vn -0.000001 -0.927582 -0.373620
vn -0.000000 -0.999619 -0.027612
vn -0.000000 -0.999619 -0.027612
vn -0.000001 -0.927582 -0.373620
vn -0.000000 -0.999619 -0.027612
vn -0.000001 -0.927582 -0.373620
vn -0.000539 0.571351 -0.820706
vn -0.306585 -0.570140 -0.762198
vn 0.306824 -0.570105 -0.762128
vn -0.000539 0.571351 -0.820706
vn 0.306824 -0.570105 -0.762128
vn 0.000459 0.571304 -0.820738
vn 0.901896 0.426655 0.067452
vn 0.830666 0.550926 0.080462
vn 0.798174 0.578153 0.169285
vn 0.901896 0.426655 0.067452
vn 0.798174 0.578153 0.169285
vn 0.841026 0.517503 0.157693
vn -0.902739 0.370362 0.218846
vn -0.799174 0.576921 0.168773
vn -0.841913 0.516230 0.157130
vn 0.841026 0.517503 0.157693
vn 0.798174 0.578153 0.169285
vn 0.902527 0.371099 0.218475
vn 0.520571 0.826084 0.215848
vn 0.798174 0.578153 0.169285
vn 0.830666 0.550926 0.080462
vn 0.520571 0.826084 0.215848
vn 0.830666 0.550926 0.080462
vn 0.507411 0.855439 0.103726
vn -0.521627 0.825481 0.215605
vn -0.799174 0.576921 0.168773
vn -0.902739 0.370362 0.218846
vn -0.521627 0.825481 0.215605
vn -0.902739 0.370362 0.218846
vn -0.525653 0.773297 0.354543
vn 0.524997 0.773954 0.354082
vn 0.902527 0.371099 0.218475
vn 0.798174 0.578153 0.169285
vn 0.524997 0.773954 0.354082
vn 0.798174 0.578153 0.169285
vn 0.520571 0.826084 0.215848
vn -0.508557 0.854774 0.103589
vn -0.831523 0.549661 0.080260
vn -0.799174 0.576921 0.168773
vn -0.508557 0.854774 0.103589
vn -0.799174 0.576921 0.168773
vn -0.521627 0.825481 0.215605
vn 0.072501 0.941798 0.328268
vn -0.926081 -0.049089 0.374118
vn -0.831523 0.549661 0.080260
vn 0.072501 0.941798 0.328268
vn -0.831523 0.549661 0.080260
vn -0.508557 0.854774 0.103589
vn -0.000260 0.886548 0.462637
vn -0.000429 0.994054 0.108883
vn 0.507411 0.855439 0.103726
vn -0.000260 0.886548 0.462637
vn 0.507411 0.855439 0.103726
vn -0.072961 0.941923 0.327806
vn 0.000879 0.794735 -0.606956
vn 0.000517 0.563867 -0.825866
vn 0.000179 0.391646 -0.920116
vn 0.000879 0.794735 -0.606956
vn 0.000179 0.391646 -0.920116
vn 0.000459 0.571304 -0.820738
vn 0.191952 -0.977637 -0.085912
vn -0.191794 -0.977671 -0.085872
vn -0.084795 -0.863786 -0.496673
vn 0.191952 -0.977637 -0.085912
vn -0.084795 -0.863786 -0.496673
vn 0.085352 -0.863712 -0.496705
vn -0.003500 0.010109 0.999943
vn -0.000145 0.009488 0.999955
vn -0.071658 0.004485 0.997419
vn 0.071625 0.004445 0.997422
vn 0.093289 -0.001212 0.995638
vn 0.000142 -0.001139 0.999999
vn 0.071625 0.004445 0.997422
vn 0.000142 -0.001139 0.999999
vn 0.000142 0.009487 0.999955
vn -0.981988 -0.000330 -0.188946
vn -1.000000 -0.000485 -0.000787
vn -0.948955 0.188028 0.253241
vn -0.981988 -0.000330 -0.188946
vn -0.948955 0.188028 0.253241
vn -0.986858 0.099585 -0.127257
vn -0.000000 -0.978233 0.207510
vn -0.000000 -0.930873 0.365343
vn -0.000000 -0.930873 0.365343
vn -0.000000 -0.978233 0.207510
vn -0.000000 -0.930873 0.365343
vn -0.000000 -0.978233 0.207510
vn -0.902739 0.370362 0.218846
vn -0.992181 0.001056 0.124806
vn -0.968865 0.000738 0.247587
vn -0.902739 0.370362 0.218846
vn -0.968865 0.000738 0.247587
vn -0.495502 0.573185 0.652638
vn -0.243889 0.223053 0.943804
vn -0.243889 0.223053 0.943804
vn -0.453651 0.426655 0.782411
vn -0.243889 0.223053 0.943804
vn -0.453651 0.426655 0.782411
vn -0.453651 0.426655 0.782411
vn 0.243609 0.223178 0.943846
vn 0.243609 0.223178 0.943846
vn 0.453661 0.427275 0.782067
vn 0.243609 0.223178 0.943846
vn 0.453661 0.427275 0.782067
vn 0.453661 0.427275 0.782067
vn 0.812992 -0.576888 -0.079020
vn 0.191952 -0.977637 -0.085912
vn 0.881426 -0.465250 -0.081429
vn -0.880724 -0.466658 -0.080968
vn -0.191794 -0.977671 -0.085872
vn -0.812557 -0.577553 -0.078641
vn 0.071625 0.004445 0.997422
vn 0.000142 0.009487 0.999955
vn 0.003494 0.010108 0.999943
vn -0.000145 0.009488 0.999955
vn -0.000145 -0.001140 0.999999
vn -0.093329 -0.001158 0.995635
vn -0.000145 0.009488 0.999955
vn -0.093329 -0.001158 0.995635
vn -0.071658 0.004485 0.997419
vn 0.170369 -0.981270 -0.089909
vn 0.067939 -0.763027 0.642786
vn 0.088547 -0.953859 0.286900
vn 0.170369 -0.981270 -0.089909
vn 0.088547 -0.953859 0.286900
vn 0.170369 -0.981270 -0.089909
vn -0.170070 -0.981311 -0.090027
vn -0.088394 -0.953904 0.286798
vn -0.067824 -0.763085 0.642729
vn -0.170070 -0.981311 -0.090027
vn -0.067824 -0.763085 0.642729
vn -0.170070 -0.981311 -0.090027
vn 0.093289 -0.001212 0.995638
vn 0.071625 0.004445 0.997422
vn 0.628331 -0.001610 0.777944
vn 0.093289 -0.001212 0.995638
vn 0.628331 -0.001610 0.777944
vn 0.628331 -0.001610 0.777944
vn -0.000001 -0.927582 -0.373620
vn -0.000001 -0.436711 -0.899602
vn -0.000001 -0.436711 -0.899602
vn -0.000001 -0.927582 -0.373620
vn -0.000001 -0.436711 -0.899602
vn -0.000001 -0.927582 -0.373620
vn -0.000000 -0.978233 0.207510
vn -0.000000 -0.999619 -0.027612
vn -0.000000 -0.999619 -0.027612
vn -0.000000 -0.978233 0.207510
vn -0.000000 -0.999619 -0.027612
vn -0.000000 -0.978233 0.207510
vn -0.000001 -0.436711 -0.899602
vn -0.000001 -0.436711 -0.899602
vn -0.000000 0.000388 -1.000000
vn -0.000001 -0.436711 -0.899602
vn -0.000000 0.000388 -1.000000
vn -0.000000 0.000388 -1.000000
vn -0.000260 0.886548 0.462637
vn -0.072961 0.941923 0.327806
vn 0.045960 0.930889 0.362399
vn -0.495502 0.573185 0.652638
vn 0.495675 0.573797 0.651969
vn -0.000238 0.901322 0.433150
vn -0.000238 0.901322 0.433150
vn -0.525653 0.773297 0.354543
vn -0.495502 0.573185 0.652638
vn 0.000966 0.999973 0.007353
vn 0.001665 0.999985 0.005257
vn 0.000746 0.999967 0.008045
vn 0.177299 -0.983658 -0.031341
vn 0.150534 -0.988595 0.004387
vn 0.144011 -0.989095 -0.030855
vn 0.628331 -0.001610 0.777944
vn 0.628331 -0.001610 0.777944
vn 0.969514 -0.001431 0.245031
vn 0.628331 -0.001610 0.777944
vn 0.969514 -0.001431 0.245031
vn 0.969514 -0.001431 0.245031
vn -0.627977 -0.001319 0.778231
vn -0.627977 -0.001319 0.778231
vn -0.969389 -0.000972 0.245529
vn -0.627977 -0.001319 0.778231
vn -0.969389 -0.000972 0.245529
vn -0.969389 -0.000972 0.245529
vn -0.177378 -0.983607 -0.032473
vn -0.219477 -0.972974 -0.071769
vn -0.143823 -0.989059 -0.032821
vn -0.000689 0.999954 0.009545
vn 0.002272 0.999993 -0.003065
vn -0.000349 0.999946 0.010424
vn -0.926081 -0.049089 0.374118
vn -0.652684 -0.724125 0.222813
vn -0.657074 -0.729734 0.189057
vn -0.453651 0.426655 0.782411
vn -0.453651 0.426655 0.782411
vn -0.686657 0.656628 0.311998
vn -0.453651 0.426655 0.782411
vn -0.686657 0.656628 0.311998
vn -0.686657 0.656628 0.311998
vn 0.072501 0.941798 0.328268
vn -0.046247 0.930694 0.362863
vn 0.690119 0.707613 0.151723
vn 0.925806 -0.048100 0.374926
vn 0.929088 0.158534 0.334160
vn 0.657524 -0.729200 0.189552
vn 0.453661 0.427275 0.782067
vn 0.453661 0.427275 0.782067
vn 0.686331 0.657246 0.311411
vn 0.453661 0.427275 0.782067
vn 0.686331 0.657246 0.311411
vn 0.686331 0.657246 0.311411
vn -0.072961 0.941923 0.327806
vn -0.677612 0.708562 0.196929
vn -0.690015 0.707681 0.151877
vn 0.948977 0.187696 0.253401
vn 0.929088 0.158534 0.334160
vn 0.925806 -0.048100 0.374926
vn 0.948977 0.187696 0.253401
vn 0.925806 -0.048100 0.374926
vn 0.856415 0.327878 0.398810
vn -0.856696 0.327403 0.398597
vn -0.926081 -0.049089 0.374118
vn -0.929416 0.158206 0.333401
vn -0.856696 0.327403 0.398597
vn -0.929416 0.158206 0.333401
vn -0.948955 0.188028 0.253241
vn -0.000450 0.001385 -0.999999
vn -0.000450 0.001385 -0.999999
vn -0.000450 0.001385 -0.999999
vn -0.000450 0.001385 -0.999999
vn -0.000450 0.001385 -0.999999
vn -0.000450 0.001385 -0.999999
vn 0.000299 0.001283 -0.999999
vn 0.000299 0.001283 -0.999999
vn 0.000299 0.001283 -0.999999
vn 0.000299 0.001283 -0.999999
vn 0.000299 0.001283 -0.999999
vn 0.000299 0.001283 -0.999999
vn 0.101142 0.098923 -0.989942
vn 0.101142 0.098923 -0.989942
vn 0.101142 0.098923 -0.989942
vn 0.101142 0.098923 -0.989942
vn 0.101142 0.098923 -0.989942
vn 0.101142 0.098923 -0.989942
vn -0.101563 0.099238 -0.989867
vn -0.101563 0.099238 -0.989867
vn -0.101563 0.099238 -0.989867
vn -0.101563 0.099238 -0.989867
vn -0.101563 0.099238 -0.989867
vn -0.101563 0.099238 -0.989867
vn -0.657074 -0.729734 0.189057
vn -0.652684 -0.724125 0.222813
vn -0.701036 -0.710758 0.058058
vn 0.196494 -0.186327 -0.962638
vn 0.196494 -0.186327 -0.962638
vn 0.196494 -0.186327 -0.962638
vn 0.196494 -0.186327 -0.962638
vn 0.196494 -0.186327 -0.962638
vn 0.196494 -0.186327 -0.962638
vn 0.678296 0.708262 0.195650
vn 0.690119 0.707613 0.151723
vn 0.673991 0.736921 0.051813
vn -0.690015 0.707681 0.151877
vn -0.677612 0.708562 0.196929
vn -0.674266 0.736604 0.052720
vn -0.196736 -0.186843 -0.962489
vn -0.196736 -0.186843 -0.962489
vn -0.196736 -0.186843 -0.962489
vn -0.196736 -0.186843 -0.962489
vn -0.196736 -0.186843 -0.962489
vn -0.196736 -0.186843 -0.962489
vn 0.652922 -0.724024 0.222446
vn 0.657524 -0.729200 0.189552
vn 0.701506 -0.710321 0.057736
vn -0.002080 0.999987 -0.004741
vn 0.000746 0.999967 0.008045
vn -0.003254 0.999925 -0.011838
vn -0.858461 0.001485 -0.512877
vn -0.858461 0.001485 -0.512877
vn -0.529354 0.001458 -0.848400
vn -0.858461 0.001485 -0.512877
vn -0.529354 0.001458 -0.848400
vn -0.529354 0.001458 -0.848400
vn 0.144011 -0.989095 -0.030855
vn 0.150534 -0.988595 0.004387
vn 0.179638 -0.983572 -0.017805
vn -0.150562 -0.988597 0.002707
vn -0.143823 -0.989059 -0.032821
vn -0.179664 -0.983545 -0.018990
vn 0.858157 0.000811 -0.513386
vn 0.858157 0.000811 -0.513386
vn 0.528267 0.000752 -0.849078
vn 0.858157 0.000811 -0.513386
vn 0.528267 0.000752 -0.849078
vn 0.528267 0.000752 -0.849078
vn -0.000349 0.999946 0.010424
vn 0.002272 0.999993 -0.003065
vn 0.003327 0.999938 -0.010647
vn 0.673991 0.736921 0.051813
vn 0.690119 0.707613 0.151723
vn 0.695883 0.715791 -0.058216
vn 0.673991 0.736921 0.051813
vn 0.695883 0.715791 -0.058216
vn 0.695883 0.715791 -0.058216
vn -0.657074 -0.729734 0.189057
vn -0.701036 -0.710758 0.058058
vn -0.677777 -0.732701 -0.061385
vn -0.657074 -0.729734 0.189057
vn -0.677777 -0.732701 -0.061385
vn -0.677777 -0.732701 -0.061385
vn -0.686657 0.656628 0.311998
vn -0.686657 0.656628 0.311998
vn -0.719211 0.691106 0.071466
vn -0.686657 0.656628 0.311998
vn -0.719211 0.691106 0.071466
vn -0.719211 0.691106 0.071466
vn 0.709834 -0.681815 -0.176817
vn 0.709834 -0.681815 -0.176817
vn 0.709834 -0.681815 -0.176817
vn 0.709834 -0.681815 -0.176817
vn 0.709834 -0.681815 -0.176817
vn 0.709834 -0.681815 -0.176817
vn 0.701506 -0.710321 0.057736
vn 0.657524 -0.729200 0.189552
vn 0.678260 -0.732257 -0.061351
vn 0.701506 -0.710321 0.057736
vn 0.678260 -0.732257 -0.061351
vn 0.678260 -0.732257 -0.061351
vn -0.690015 0.707681 0.151877
vn -0.674266 0.736604 0.052720
vn -0.696381 0.715311 -0.058173
vn -0.690015 0.707681 0.151877
vn -0.696381 0.715311 -0.058173
vn -0.696381 0.715311 -0.058173
vn 0.686331 0.657246 0.311411
vn 0.686331 0.657246 0.311411
vn 0.718691 0.691648 0.071462
vn 0.686331 0.657246 0.311411
vn 0.718691 0.691648 0.071462
vn 0.718691 0.691648 0.071462
vn -0.709326 -0.682359 -0.176758
vn -0.709326 -0.682359 -0.176758
vn -0.709326 -0.682359 -0.176758
vn -0.709326 -0.682359 -0.176758
vn -0.709326 -0.682359 -0.176758
vn -0.709326 -0.682359 -0.176758
vn 0.179638 -0.983572 -0.017805
vn 0.150534 -0.988595 0.004387
vn 0.173773 -0.984141 -0.035637
vn 0.179638 -0.983572 -0.017805
vn 0.173773 -0.984141 -0.035637
vn 0.173773 -0.984141 -0.035637
vn -0.002080 0.999987 -0.004741
vn -0.003254 0.999925 -0.011838
vn -0.006813 0.999429 -0.033100
vn -0.002080 0.999987 -0.004741
vn -0.006813 0.999429 -0.033100
vn -0.006813 0.999429 -0.033100
vn 0.969514 -0.001431 0.245031
vn 0.969514 -0.001431 0.245031
vn 0.999997 -0.001133 0.002306
vn 0.969514 -0.001431 0.245031
vn 0.999997 -0.001133 0.002306
vn 0.999997 -0.001133 0.002306
vn -0.997945 0.001185 -0.064067
vn -0.997945 0.001185 -0.064067
vn -0.858461 0.001485 -0.512877
vn -0.997945 0.001185 -0.064067
vn -0.858461 0.001485 -0.512877
vn -0.858461 0.001485 -0.512877
vn 0.003327 0.999938 -0.010647
vn 0.002272 0.999993 -0.003065
vn 0.006321 0.999420 -0.033471
vn 0.003327 0.999938 -0.010647
vn 0.006321 0.999420 -0.033471
vn 0.006321 0.999420 -0.033471
vn -0.150562 -0.988597 0.002707
vn -0.179664 -0.983545 -0.018990
vn -0.173893 -0.984123 -0.035545
vn -0.150562 -0.988597 0.002707
vn -0.173893 -0.984123 -0.035545
vn -0.173893 -0.984123 -0.035545
vn -0.969389 -0.000972 0.245529
vn -0.969389 -0.000972 0.245529
vn -0.999997 -0.000618 0.002305
vn -0.969389 -0.000972 0.245529
vn -0.999997 -0.000618 0.002305
vn -0.999997 -0.000618 0.002305
vn 0.997952 0.000691 -0.063971
vn 0.997952 0.000691 -0.063971
vn 0.858157 0.000811 -0.513386
vn 0.997952 0.000691 -0.063971
vn 0.858157 0.000811 -0.513386
vn 0.858157 0.000811 -0.513386
vn -0.000001 0.002022 -0.999998
vn -0.000001 0.002022 -0.999998
vn -0.000001 0.002022 -0.999998
vn -0.000001 0.002022 -0.999998
vn -0.000001 0.002022 -0.999998
vn -0.000001 0.002022 -0.999998
vn 0.000001 0.002026 -0.999998
vn 0.000001 0.002026 -0.999998
vn 0.000001 0.002026 -0.999998
vn 0.000001 0.002026 -0.999998
vn 0.000001 0.002026 -0.999998
vn 0.000001 0.002026 -0.999998
vn -0.219477 -0.972974 -0.071769
vn -0.177378 -0.983607 -0.032473
vn -0.219518 -0.968374 -0.118591
vn -0.219477 -0.972974 -0.071769
vn -0.219518 -0.968374 -0.118591
vn -0.042354 -0.949224 -0.311736
vn 0.986886 0.099203 -0.127340
vn 0.948977 0.187696 0.253401
vn 0.999999 -0.000888 -0.000789
vn 0.986886 0.099203 -0.127340
vn 0.999999 -0.000888 -0.000789
vn 0.981957 -0.000707 -0.189101
vn 0.144011 -0.989095 -0.030855
vn 0.219361 -0.973027 -0.071405
vn 0.177299 -0.983658 -0.031341
vn -0.306585 -0.570140 -0.762198
vn 0.085352 -0.863712 -0.496705
vn -0.084795 -0.863786 -0.496673
vn -0.306585 -0.570140 -0.762198
vn -0.084795 -0.863786 -0.496673
vn 0.306824 -0.570105 -0.762128
vn -0.818267 0.560433 -0.127886
vn -0.389082 0.894473 -0.220301
vn -0.363365 0.828158 -0.426755
vn -0.818267 0.560433 -0.127886
vn -0.363365 0.828158 -0.426755
vn -0.676004 0.638557 -0.367782
vn 0.000000 -0.939309 -0.343073
vn 0.000000 -0.939309 -0.343073
vn 0.000000 -0.939309 -0.343073
vn 0.000000 -0.939309 -0.343073
vn 0.000000 -0.939309 -0.343073
vn 0.000000 -0.939309 -0.343073
vn -0.389082 0.894473 -0.220301
vn -0.000452 0.975735 -0.218956
vn -0.000882 0.904161 -0.427190
vn -0.389082 0.894473 -0.220301
vn -0.000882 0.904161 -0.427190
vn -0.363365 0.828158 -0.426755
vn 0.878353 0.013262 -0.477828
vn 0.878353 0.013262 -0.477828
vn 0.878353 0.013262 -0.477828
vn 0.878353 0.013262 -0.477828
vn 0.878353 0.013262 -0.477828
vn 0.878353 0.013262 -0.477828
vn 0.388966 0.894485 -0.220457
vn 0.818295 0.560294 -0.128312
vn 0.675652 0.638240 -0.368977
vn 0.388966 0.894485 -0.220457
vn 0.675652 0.638240 -0.368977
vn 0.363150 0.828117 -0.427017
vn 0.000445 0.975816 -0.218595
vn 0.388966 0.894485 -0.220457
vn 0.363150 0.828117 -0.427017
vn 0.000445 0.975816 -0.218595
vn 0.363150 0.828117 -0.427017
vn 0.000869 0.904477 -0.426522
vn -0.000024 -0.939032 -0.343828
vn -0.000024 -0.939032 -0.343828
vn -0.000024 -0.939032 -0.343828
vn -0.000024 -0.939032 -0.343828
vn -0.000024 -0.939032 -0.343828
vn -0.000024 -0.939032 -0.343828
vn -0.877664 0.003435 -0.479264
vn -0.877664 0.003435 -0.479264
vn -0.877664 0.003435 -0.479264
vn -0.877664 0.003435 -0.479264
vn -0.877664 0.003435 -0.479264
vn -0.877664 0.003435 -0.479264
vn -0.143823 -0.989059 -0.032821
vn -0.150562 -0.988597 0.002707
vn -0.177378 -0.983607 -0.032473
vn 0.000704 -0.001317 -0.999999
vn 0.000704 -0.001317 -0.999999
vn 0.000704 -0.001317 -0.999999
vn 0.000704 -0.001317 -0.999999
vn 0.000704 -0.001317 -0.999999
vn 0.559021 0.262908 -0.786368
vn 0.000704 -0.001317 -0.999999
vn 0.559021 0.262908 -0.786368
vn 0.491509 0.000064 -0.870872
vn -0.491747 -0.000315 -0.870738
vn -0.559130 0.262841 -0.786313
vn -0.000753 -0.001346 -0.999999
vn -0.491747 -0.000315 -0.870738
vn -0.000753 -0.001346 -0.999999
vn -0.000753 -0.001346 -0.999999
vn -0.491747 -0.000315 -0.870738
vn -0.000753 -0.001346 -0.999999
vn -0.000753 -0.001346 -0.999999
vn -0.000539 0.571351 -0.820706
vn -0.000202 0.391693 -0.920096
vn -0.000581 0.563992 -0.825780
vn -0.000539 0.571351 -0.820706
vn -0.000581 0.563992 -0.825780
vn -0.001031 0.794801 -0.606869
vn -0.000202 0.391693 -0.920096
vn -0.000539 0.571351 -0.820706
vn 0.000459 0.571304 -0.820738
vn -0.000202 0.391693 -0.920096
vn 0.000459 0.571304 -0.820738
vn 0.000179 0.391646 -0.920116
vn -0.000539 0.571351 -0.820706
vn -0.001031 0.794801 -0.606869
vn -0.001376 0.945180 -0.326546
vn -0.000539 0.571351 -0.820706
vn -0.001376 0.945180 -0.326546
vn -0.001376 0.945180 -0.326546
vn 0.218743 -0.968547 -0.118610
vn 0.041752 -0.949231 -0.311798
vn -0.196333 -0.951187 -0.238111
vn 0.218743 -0.968547 -0.118610
vn -0.196333 -0.951187 -0.238111
vn 0.149971 -0.960626 -0.233895
vn -0.306585 -0.570140 -0.762198
vn -0.920150 -0.002862 -0.391555
vn -0.920150 -0.002862 -0.391555
vn -0.306585 -0.570140 -0.762198
vn -0.920150 -0.002862 -0.391555
vn -0.813838 -0.469588 -0.342280
vn 0.986886 0.099203 -0.127340
vn 0.981957 -0.000707 -0.189101
vn 0.928774 -0.000501 -0.370647
vn 0.986886 0.099203 -0.127340
vn 0.928774 -0.000501 -0.370647
vn 0.928774 -0.000501 -0.370647
vn 0.041752 -0.949231 -0.311798
vn -0.306585 -0.570140 -0.762198
vn -0.813838 -0.469588 -0.342280
vn 0.041752 -0.949231 -0.311798
vn -0.813838 -0.469588 -0.342280
vn -0.196333 -0.951187 -0.238111
vn 0.000879 0.794735 -0.606956
vn 0.000459 0.571304 -0.820738
vn 0.001152 0.945159 -0.326609
vn 0.000879 0.794735 -0.606956
vn 0.001152 0.945159 -0.326609
vn 0.001152 0.945159 -0.326609
vn 0.920307 -0.002180 -0.391192
vn 0.306824 -0.570105 -0.762128
vn 0.813937 -0.469496 -0.342169
vn 0.920307 -0.002180 -0.391192
vn 0.813937 -0.469496 -0.342169
vn 0.920307 -0.002180 -0.391192
vn -0.981988 -0.000330 -0.188946
vn -0.986858 0.099585 -0.127257
vn -0.928891 -0.000163 -0.370353
vn -0.981988 -0.000330 -0.188946
vn -0.928891 -0.000163 -0.370353
vn -0.928891 -0.000163 -0.370353
vn -0.042354 -0.949224 -0.311736
vn -0.219518 -0.968374 -0.118591
vn -0.150797 -0.960495 -0.233901
vn -0.042354 -0.949224 -0.311736
vn -0.150797 -0.960495 -0.233901
vn 0.195683 -0.951319 -0.238120
vn 0.306824 -0.570105 -0.762128
vn -0.042354 -0.949224 -0.311736
vn 0.195683 -0.951319 -0.238120
vn 0.306824 -0.570105 -0.762128
vn 0.195683 -0.951319 -0.238120
vn 0.813937 -0.469496 -0.342169
vn 0.000000 0.002024 -0.999998
vn -0.000202 0.391693 -0.920096
vn 0.000179 0.391646 -0.920116
vn 0.000000 0.002024 -0.999998
vn 0.000179 0.391646 -0.920116
vn 0.000000 0.002024 -0.999998
vn -0.000538 1.000000 -0.000254
vn -0.000538 1.000000 -0.000254
vn -0.000269 0.999644 0.026668
vn -0.000538 1.000000 -0.000254
vn -0.000269 0.999644 0.026668
vn -0.000269 0.999644 0.026668
vn 0.000000 0.998564 0.053571
vn -0.000269 0.999644 0.026668
vn -0.000269 0.999644 0.026668
vn 0.000000 0.998564 0.053571
vn -0.000269 0.999644 0.026668
vn 0.000000 0.998564 0.053571
vn 0.000012 -0.980962 -0.194198
vn 0.000000 -0.963208 -0.268756
vn 0.000000 -0.963208 -0.268756
vn 0.000012 -0.980962 -0.194198
vn 0.000000 -0.963208 -0.268756
vn 0.000012 -0.980962 -0.194198
vn 0.000012 -0.980962 -0.194198
vn 0.000140 -0.996686 -0.081341
vn 0.000140 -0.996686 -0.081341
vn 0.000012 -0.980962 -0.194198
vn 0.000140 -0.996686 -0.081341
vn 0.000012 -0.980962 -0.194198
vn 0.000140 -0.996686 -0.081341
vn 0.000256 -0.999028 -0.044070
vn 0.000256 -0.999028 -0.044070
vn 0.000140 -0.996686 -0.081341
vn 0.000256 -0.999028 -0.044070
vn 0.000140 -0.996686 -0.081341
vn 0.000142 -0.001139 0.999999
vn 0.093289 -0.001212 0.995638
vn -0.093329 -0.001158 0.995635
vn 0.000142 -0.001139 0.999999
vn -0.093329 -0.001158 0.995635
vn -0.000145 -0.001140 0.999999
vn 0.999997 0.002118 -0.000963
vn 0.999998 0.001766 -0.000572
vn 0.999996 0.002429 -0.001448
vn -0.999998 0.001707 -0.000750
vn -0.999999 -0.001627 0.000600
vn -0.880724 -0.466658 -0.080968
vn -0.999998 0.001707 -0.000750
vn -0.880724 -0.466658 -0.080968
vn -0.812557 -0.577553 -0.078641
vn 0.999999 0.001463 0.000019
vn 0.999997 0.002118 -0.000963
vn 0.812992 -0.576888 -0.079020
vn 0.999999 0.001463 0.000019
vn 0.812992 -0.576888 -0.079020
vn 0.881426 -0.465250 -0.081429
vn -0.999998 0.001707 -0.000750
vn -0.812557 -0.577553 -0.078641
vn -0.999994 0.003040 -0.001616
vn 0.999994 0.002798 -0.001845
vn 0.812992 -0.576888 -0.079020
vn 0.999997 0.002118 -0.000963
vn -0.999998 0.001707 -0.000750
vn -0.999994 0.003040 -0.001616
vn -0.999995 0.002893 -0.001412
vn 0.999996 0.002429 -0.001448
vn 0.999994 0.002798 -0.001845
vn 0.999997 0.002118 -0.000963
vn -1.000000 0.000039 -0.000383
vn -1.000000 0.000019 0.000612
vn -1.000000 0.000019 0.000612
vn -1.000000 0.000039 -0.000383
vn -1.000000 0.000019 0.000612
vn -1.000000 0.000039 -0.000383
vn -1.000000 0.000039 -0.000383
vn -1.000000 0.000039 -0.000383
vn -1.000000 0.000039 -0.000383
vn 0.989995 0.000000 -0.141103
vn 1.000000 0.000000 -0.000375
vn 1.000000 0.000000 -0.000375
vn 0.989995 0.000000 -0.141103
vn 1.000000 0.000000 -0.000375
vn 0.989995 0.000000 -0.141103
vn -0.003705 0.000000 -0.999993
vn -0.003705 0.000000 -0.999993
vn -0.003705 0.000000 -0.999993
vn -0.003705 0.000000 -0.999993
vn -0.003705 0.000000 -0.999993
vn -0.003705 0.000000 -0.999993
vn -1.000000 0.000000 -0.000635
vn -0.989941 -0.000000 -0.141481
vn -0.989941 -0.000000 -0.141481
vn -1.000000 0.000000 -0.000635
vn -0.989941 -0.000000 -0.141481
vn -1.000000 0.000000 -0.000635
vn 1.000000 0.000015 0.000752
vn 1.000000 0.000031 -0.000303
vn 1.000000 0.000031 -0.000303
vn 1.000000 0.000015 0.000752
vn 1.000000 0.000031 -0.000303
vn 1.000000 0.000031 -0.000303
vn 1.000000 0.000015 0.000752
vn 1.000000 0.000031 -0.000303
vn 1.000000 0.000015 0.000752
vn 0.003699 0.000000 -0.999993
vn 0.003699 0.000000 -0.999993
vn 0.003699 0.000000 -0.999993
vn 0.003699 0.000000 -0.999993
vn 0.003699 0.000000 -0.999993
vn 0.003699 0.000000 -0.999993
vn 0.071625 0.004445 0.997422
vn 0.003494 0.010108 0.999943
vn -0.067824 -0.763085 0.642729
vn 0.071625 0.004445 0.997422
vn -0.067824 -0.763085 0.642729
vn 0.003757 -0.496641 0.867948
vn 0.003757 -0.496641 0.867948
vn -0.067824 -0.763085 0.642729
vn -0.088394 -0.953904 0.286798
vn -0.003500 0.010109 0.999943
vn -0.071658 0.004485 0.997419
vn -0.003754 -0.496641 0.867948
vn -0.003500 0.010109 0.999943
vn -0.003754 -0.496641 0.867948
vn 0.067939 -0.763027 0.642786
vn -0.003754 -0.496641 0.867948
vn 0.088547 -0.953859 0.286900
vn 0.067939 -0.763027 0.642786
vn 0.170369 -0.981270 -0.089909
vn 0.166567 -0.959618 -0.226692
vn 0.166567 -0.959618 -0.226692
vn 0.170369 -0.981270 -0.089909
vn 0.166567 -0.959618 -0.226692
vn 0.170369 -0.981270 -0.089909
vn 0.989995 0.000000 -0.141103
vn 0.989995 0.000000 -0.141103
vn 0.960285 0.000000 -0.279022
vn 0.989995 0.000000 -0.141103
vn 0.960285 0.000000 -0.279022
vn 0.960285 0.000000 -0.279022
vn -1.000000 0.000019 0.000612
vn -1.000000 0.000019 0.000612
vn -0.999999 0.000000 0.001608
vn -1.000000 0.000019 0.000612
vn -0.999999 0.000000 0.001608
vn -0.999999 0.000000 0.001608
vn 0.304226 0.916228 -0.260716
vn 0.304226 0.916228 -0.260716
vn 0.304226 0.916228 -0.260716
vn 0.304226 0.916228 -0.260716
vn 0.304226 0.916228 -0.260716
vn 0.304226 0.916228 -0.260716
vn -0.170070 -0.981311 -0.090027
vn -0.166260 -0.959664 -0.226722
vn -0.166260 -0.959664 -0.226722
vn -0.170070 -0.981311 -0.090027
vn -0.166260 -0.959664 -0.226722
vn -0.170070 -0.981311 -0.090027
vn 1.000000 0.000015 0.000752
vn 1.000000 0.000015 0.000752
vn 0.999998 0.000000 0.001808
vn 1.000000 0.000015 0.000752
vn 0.999998 0.000000 0.001808
vn 0.999998 0.000000 0.001808
vn -0.989941 -0.000000 -0.141481
vn -0.989941 -0.000000 -0.141481
vn -0.960144 -0.000000 -0.279506
vn -0.989941 -0.000000 -0.141481
vn -0.960144 -0.000000 -0.279506
vn -0.960144 -0.000000 -0.279506
vn -0.303987 0.916282 -0.260804
vn -0.303987 0.916282 -0.260804
vn -0.303987 0.916282 -0.260804
vn -0.303987 0.916282 -0.260804
vn -0.303987 0.916282 -0.260804
vn -0.303987 0.916282 -0.260804
vn -0.046247 0.930694 0.362863
vn 0.072501 0.941798 0.328268
vn -0.000260 0.886548 0.462637
vn 0.000000 0.916716 0.399539
vn 0.045960 0.930889 0.362399
vn 0.388966 0.894485 -0.220457
vn 0.000000 0.916716 0.399539
vn 0.388966 0.894485 -0.220457
vn 0.000445 0.975816 -0.218595
vn 0.000000 0.916716 0.399539
vn 0.000445 0.975816 -0.218595
vn -0.000452 0.975735 -0.218956
vn 0.000000 0.916716 0.399539
vn -0.000452 0.975735 -0.218956
vn -0.389082 0.894473 -0.220301
vn 0.000000 0.916716 0.399539
vn -0.389082 0.894473 -0.220301
vn -0.046247 0.930694 0.362863
vn 0.690119 0.707613 0.151723
vn 0.678296 0.708262 0.195650
vn 0.072501 0.941798 0.328268
vn -0.690015 0.707681 0.151877
vn 0.045960 0.930889 0.362399
vn -0.072961 0.941923 0.327806
vn -0.657074 -0.729734 0.189057
vn -0.929416 0.158206 0.333401
vn -0.926081 -0.049089 0.374118
vn 0.657524 -0.729200 0.189552
vn 0.652922 -0.724024 0.222446
vn 0.925806 -0.048100 0.374926
vn 0.000746 0.999967 0.008045
vn -0.002080 0.999987 -0.004741
vn 0.000966 0.999973 0.007353
vn -0.000349 0.999946 0.010424
vn -0.001540 0.999974 0.006995
vn -0.000689 0.999954 0.009545
vn -0.000260 0.886548 0.462637
vn 0.000000 0.916716 0.399539
vn -0.046247 0.930694 0.362863
vn 0.045960 0.930889 0.362399
vn 0.000000 0.916716 0.399539
vn -0.000260 0.886548 0.462637
vn -0.180386 0.823973 -0.537149
vn 0.236025 0.834696 -0.497569
vn 0.236025 0.834696 -0.497569
vn -0.180386 0.823973 -0.537149
vn 0.236025 0.834696 -0.497569
vn -0.180386 0.823973 -0.537149
vn -0.763178 0.359674 -0.536838
vn -0.180386 0.823973 -0.537149
vn -0.180386 0.823973 -0.537149
vn -0.763178 0.359674 -0.536838
vn -0.180386 0.823973 -0.537149
vn -0.559130 0.262841 -0.786313
vn -0.855976 0.000797 -0.517015
vn -0.763178 0.359674 -0.536838
vn -0.559130 0.262841 -0.786313
vn -0.855976 0.000797 -0.517015
vn -0.559130 0.262841 -0.786313
vn -0.491747 -0.000315 -0.870738
vn -0.002277 -0.896434 -0.443172
vn -0.002277 -0.896434 -0.443172
vn -0.002277 -0.896434 -0.443172
vn -0.002277 -0.896434 -0.443172
vn -0.002277 -0.896434 -0.443172
vn -0.002277 -0.896434 -0.443172
vn 0.868810 0.000805 -0.495146
vn 0.868810 0.000805 -0.495146
vn 0.868810 0.000805 -0.495146
vn 0.868810 0.000805 -0.495146
vn 0.868810 0.000805 -0.495146
vn 0.868810 0.000805 -0.495146
vn 0.180947 0.823828 -0.537183
vn 0.763030 0.359738 -0.537005
vn 0.559021 0.262908 -0.786368
vn 0.180947 0.823828 -0.537183
vn 0.559021 0.262908 -0.786368
vn 0.180947 0.823828 -0.537183
vn -0.235292 0.834896 -0.497580
vn 0.180947 0.823828 -0.537183
vn 0.180947 0.823828 -0.537183
vn -0.235292 0.834896 -0.497580
vn 0.180947 0.823828 -0.537183
vn -0.235292 0.834896 -0.497580
vn -0.868620 0.001207 -0.495478
vn -0.868620 0.001207 -0.495478
vn -0.868620 0.001207 -0.495478
vn -0.868620 0.001207 -0.495478
vn -0.868620 0.001207 -0.495478
vn -0.868620 0.001207 -0.495478
vn 0.002487 -0.896462 -0.443113
vn 0.002487 -0.896462 -0.443113
vn 0.002487 -0.896462 -0.443113
vn 0.002487 -0.896462 -0.443113
vn 0.002487 -0.896462 -0.443113
vn 0.002487 -0.896462 -0.443113
vn 0.763030 0.359738 -0.537005
vn 0.855719 0.001429 -0.517439
vn 0.491509 0.000064 -0.870872
vn 0.763030 0.359738 -0.537005
vn 0.491509 0.000064 -0.870872
vn 0.559021 0.262908 -0.786368
vn -0.383158 -0.880746 -0.278347
vn -0.706966 -0.666562 -0.236420
vn -0.706966 -0.666562 -0.236420
vn -0.383158 -0.880746 -0.278347
vn -0.706966 -0.666562 -0.236420
vn -0.383158 -0.880746 -0.278347
vn -0.000923 -0.960630 -0.277829
vn -0.383158 -0.880746 -0.278347
vn -0.383158 -0.880746 -0.278347
vn -0.000923 -0.960630 -0.277829
vn -0.383158 -0.880746 -0.278347
vn -0.000923 -0.960630 -0.277829
vn 0.948369 -0.002022 -0.317163
vn 0.948369 -0.002022 -0.317163
vn 0.948369 -0.002022 -0.317163
vn 0.948369 -0.002022 -0.317163
vn 0.948369 -0.002022 -0.317163
vn 0.948369 -0.002022 -0.317163
vn 0.000024 0.975824 -0.218558
vn 0.000024 0.975824 -0.218558
vn 0.000024 0.975824 -0.218558
vn 0.000024 0.975824 -0.218558
vn 0.000024 0.975824 -0.218558
vn 0.000024 0.975824 -0.218558
vn 0.707118 -0.666690 -0.235603
vn 0.383255 -0.880753 -0.278190
vn 0.383255 -0.880753 -0.278190
vn 0.707118 -0.666690 -0.235603
vn 0.383255 -0.880753 -0.278190
vn 0.707118 -0.666690 -0.235603
vn 0.000000 0.975939 -0.218043
vn 0.000000 0.975939 -0.218043
vn 0.000000 0.975939 -0.218043
vn 0.000000 0.975939 -0.218043
vn 0.000000 0.975939 -0.218043
vn 0.000000 0.975939 -0.218043
vn -0.639178 -0.656308 -0.400887
vn -0.948657 -0.012638 -0.316055
vn -0.948657 -0.012638 -0.316055
vn -0.639178 -0.656308 -0.400887
vn -0.948657 -0.012638 -0.316055
vn -0.639178 -0.656308 -0.400887
vn 0.383255 -0.880753 -0.278190
vn -0.639178 -0.656308 -0.400887
vn -0.639178 -0.656308 -0.400887
vn 0.383255 -0.880753 -0.278190
vn -0.639178 -0.656308 -0.400887
vn 0.383255 -0.880753 -0.278190
f 87/1/1 11/2/2 19/3/3
f 87/4/4 19/5/5 5/6/6
f 71/7/7 7/8/8 14/9/9
f 71/10/10 14/11/11 63/12/12
f 66/13/13 64/14/14 16/15/15
f 66/16/16 16/17/17 18/18/18
f 68/19/19 16/20/20 14/21/21
f 68/22/22 14/23/23 70/24/24
f 85/25/25 46/26/26 11/27/27
f 85/28/28 11/29/29 87/30/30
f 83/31/31 51/32/32 27/33/33
f 54/34/34 57/35/35 130/36/36
f 54/37/37 130/38/38 129/39/39
f 39/40/40 38/41/41 23/42/42
f 39/43/43 23/44/44 125/45/45
f 40/46/46 33/47/47 34/48/48
f 40/49/49 34/50/50 41/51/51
f 87/52/52 72/53/53 7/54/54
f 60/55/55 17/56/56 20/57/57
f 60/58/58 20/59/59 57/60/60
f 4/61/61 27/62/62 51/63/63
f 4/64/64 51/65/65 75/66/66
f 61/67/67 6/68/68 17/69/69
f 61/70/70 17/71/71 60/72/72
f 19/73/73 50/74/74 24/75/75
f 19/76/76 24/77/77 5/78/78
f 123/79/79 69/80/80 109/81/81
f 3/82/82 73/83/83 40/84/84
f 3/85/85 40/86/86 41/87/87
f 39/88/88 35/89/89 32/90/90
f 39/91/91 32/92/92 38/93/93
f 65/94/94 127/95/95 119/96/96
f 56/97/97 21/98/98 25/99/99
f 56/100/100 25/101/101 62/102/102
f 68/103/103 25/104/104 21/105/105
f 68/106/106 21/107/107 67/108/108
f 85/109/109 71/110/110 4/111/111
f 70/112/112 14/113/113 7/114/114
f 70/115/115 7/116/116 72/117/117
f 63/118/118 14/119/119 16/120/120
f 63/121/121 16/122/122 64/123/123
f 5/124/124 72/125/125 87/126/126
f 113/127/127 36/128/128 55/129/129
f 113/130/130 55/131/131 123/132/132
f 76/133/133 47/134/134 48/135/135
f 76/136/136 48/137/137 52/138/138
f 84/139/139 50/140/140 51/141/141
f 84/142/142 51/143/143 83/144/144
f 110/145/145 109/146/146 65/147/147
f 110/148/148 65/149/149 112/150/150
f 62/151/151 25/152/152 30/153/153
f 62/154/154 30/155/155 59/156/156
f 4/157/157 6/158/158 61/159/159
f 59/160/160 30/161/161 5/162/162
f 70/163/163 30/164/164 25/165/165
f 70/166/166 25/167/167 68/168/168
f 63/169/169 6/170/170 4/171/171
f 63/172/172 4/173/173 71/174/174
f 72/175/175 5/176/176 30/177/177
f 72/178/178 30/179/179 70/180/180
f 64/181/181 17/182/182 6/183/183
f 64/184/184 6/185/185 63/186/186
f 66/187/187 20/188/188 17/189/189
f 66/190/190 17/191/191 64/192/192
f 18/193/193 16/194/194 68/195/195
f 18/196/196 68/197/197 67/198/198
f 3/199/199 41/200/200 58/201/201
f 3/202/202 58/203/203 112/204/204
f 52/205/205 48/206/206 127/207/207
f 52/208/208 127/209/209 69/210/210
f 48/211/211 80/212/212 54/213/213
f 55/214/214 56/215/215 2/216/216
f 55/217/217 2/218/218 77/219/219
f 26/220/220 31/221/221 73/222/222
f 26/223/223 73/224/224 3/225/225
f 19/226/226 11/227/227 46/228/228
f 19/229/229 46/230/230 75/231/231
f 4/232/232 75/233/233 46/234/234
f 4/235/235 46/236/236 85/237/237
f 20/238/238 66/239/239 140/240/240
f 20/241/241 140/242/242 142/243/243
f 67/244/244 21/245/245 136/246/246
f 67/247/247 136/248/248 137/249/249
f 76/250/250 52/251/251 77/252/252
f 80/253/253 48/254/254 47/255/255
f 55/256/256 77/257/257 52/258/258
f 80/259/259 1/260/260 57/261/261
f 80/262/262 57/263/263 54/264/264
f 152/265/265 151/266/266 149/267/267
f 152/268/268 149/269/269 150/270/270
f 95/271/271 154/272/272 153/273/273
f 95/274/274 153/275/275 94/276/276
f 56/277/277 55/278/278 133/279/279
f 56/280/280 133/281/281 134/282/282
f 83/283/283 29/284/284 9/285/285
f 83/286/286 9/287/287 84/288/288
f 75/289/289 51/290/290 50/291/291
f 75/292/292 50/293/293 19/294/294
f 9/295/295 29/296/296 47/297/297
f 9/298/298 47/299/299 76/300/300
f 18/301/301 67/302/302 32/303/303
f 85/304/304 87/305/305 7/306/306
f 7/307/307 71/308/308 85/309/309
f 23/310/310 56/311/311 134/312/312
f 36/313/313 132/314/314 133/315/315
f 134/316/316 133/317/317 53/318/318
f 134/319/319 53/320/320 45/321/321
f 129/322/322 130/323/323 122/324/324
f 129/325/325 122/326/326 82/327/327
f 31/328/328 54/329/329 129/330/330
f 73/331/331 131/332/332 130/333/333
f 20/334/334 142/335/335 143/336/336
f 142/337/337 140/338/338 146/339/339
f 142/340/340 146/341/341 144/342/342
f 66/343/343 33/344/344 141/345/345
f 21/346/346 38/347/347 139/348/348
f 137/349/349 136/350/350 78/351/351
f 137/352/352 78/353/353 148/354/354
f 67/355/355 137/356/356 138/357/357
f 23/358/358 38/359/359 21/360/360
f 23/361/361 21/362/362 56/363/363
f 57/364/364 20/365/365 40/366/366
f 57/367/367 40/368/368 73/369/369
f 73/370/370 31/371/371 128/372/372
f 73/373/373 128/374/374 131/375/375
f 36/376/376 23/377/377 135/378/378
f 36/379/379 135/380/380 132/381/381
f 38/382/382 32/383/383 138/384/384
f 38/385/385 138/386/386 139/387/387
f 33/388/388 40/389/389 143/390/390
f 33/391/391 143/392/392 141/393/393
f 143/394/394 142/395/395 144/396/396
f 124/397/397 118/398/398 126/399/399
f 124/400/400 126/401/401 121/402/402
f 140/403/403 141/404/404 146/405/405
f 138/406/406 137/407/407 148/408/408
f 116/409/409 115/410/410 111/411/411
f 116/412/412 111/413/413 114/414/414
f 136/415/415 139/416/416 78/417/417
f 135/418/418 134/419/419 45/420/420
f 120/421/421 37/422/422 81/423/423
f 120/424/424 81/425/425 117/426/426
f 133/427/427 132/428/428 53/429/429
f 128/430/430 129/431/431 82/432/432
f 79/433/433 147/434/434 145/435/435
f 79/436/436 145/437/437 44/438/438
f 130/439/439 131/440/440 122/441/441
f 146/442/442 141/443/443 124/444/444
f 146/445/445 124/446/446 121/447/447
f 143/448/448 144/449/449 126/450/450
f 143/451/451 126/452/452 118/453/453
f 144/454/454 146/455/455 121/456/456
f 144/457/457 121/458/458 126/459/459
f 141/460/460 143/461/461 118/462/462
f 141/463/463 118/464/464 124/465/465
f 78/466/466 139/467/467 116/468/468
f 78/469/469 116/470/470 114/471/471
f 138/472/472 148/473/473 111/474/474
f 138/475/475 111/476/476 115/477/477
f 148/478/478 78/479/479 114/480/480
f 148/481/481 114/482/482 111/483/483
f 139/484/484 138/485/485 115/486/486
f 139/487/487 115/488/488 116/489/489
f 53/490/490 132/491/491 120/492/492
f 53/493/493 120/494/494 117/495/495
f 135/496/496 45/497/497 81/498/498
f 135/499/499 81/500/500 37/501/501
f 45/502/502 53/503/503 117/504/504
f 45/505/505 117/506/506 81/507/507
f 132/508/508 135/509/509 37/510/510
f 132/511/511 37/512/512 120/513/513
f 122/514/514 131/515/515 79/516/516
f 122/517/517 79/518/518 44/519/519
f 128/520/520 82/521/521 145/522/522
f 128/523/523 145/524/524 147/525/525
f 82/526/526 122/527/527 44/528/528
f 82/529/529 44/530/530 145/531/531
f 131/532/532 128/533/533 147/534/534
f 131/535/535 147/536/536 79/537/537
f 172/538/538 170/539/539 171/540/540
f 172/541/541 171/542/542 173/543/543
f 168/544/544 166/545/545 167/546/546
f 168/547/547 167/548/548 169/549/549
f 54/550/550 31/551/551 26/552/552
f 54/553/553 26/554/554 119/555/555
f 125/556/556 23/557/557 36/558/558
f 125/559/559 36/560/560 113/561/561
f 133/562/562 55/563/563 36/564/564
f 109/565/565 69/566/566 127/567/567
f 109/568/568 127/569/569 65/570/570
f 41/571/571 34/572/572 74/573/573
f 41/574/574 74/575/575 89/576/576
f 58/577/577 41/578/578 89/579/579
f 58/580/580 89/581/581 90/582/582
f 34/583/583 96/584/584 88/585/585
f 34/586/586 88/587/587 74/588/588
f 96/589/589 58/590/590 90/591/591
f 96/592/592 90/593/593 88/594/594
f 35/595/595 39/596/596 28/597/597
f 35/598/598 28/599/599 12/600/600
f 93/601/601 35/602/602 12/603/603
f 93/604/604 12/605/605 13/606/606
f 39/607/607 49/608/608 15/609/609
f 39/610/610 15/611/611 28/612/612
f 49/613/613 93/614/614 13/615/615
f 49/616/616 13/617/617 15/618/618
f 129/619/619 128/620/620 31/621/621
f 164/622/622 163/623/623 161/624/624
f 164/625/625 161/626/626 162/627/627
f 164/628/628 162/629/629 165/630/630
f 159/631/631 158/632/632 156/633/633
f 159/634/634 156/635/635 157/636/636
f 159/637/637 157/638/638 160/639/639
f 110/640/640 49/641/641 39/642/642
f 110/643/643 39/644/644 125/645/645
f 49/646/646 110/647/647 112/648/648
f 49/649/649 112/650/650 58/651/651
f 110/652/652 125/653/653 107/654/654
f 110/655/655 107/656/656 108/657/657
f 113/658/658 123/659/659 43/660/660
f 113/661/661 43/662/662 105/663/663
f 109/664/664 110/665/665 108/666/666
f 109/667/667 108/668/668 42/669/669
f 125/670/670 113/671/671 105/672/672
f 125/673/673 105/674/674 107/675/675
f 123/676/676 109/677/677 42/678/678
f 123/679/679 42/680/680 43/681/681
f 3/682/682 112/683/683 91/684/684
f 3/685/685 91/686/686 92/687/687
f 112/688/688 65/689/689 10/690/690
f 112/691/691 10/692/692 91/693/693
f 26/694/694 3/695/695 92/696/696
f 26/697/697 92/698/698 22/699/699
f 119/700/700 26/701/701 22/702/702
f 119/703/703 22/704/704 106/705/705
f 65/706/706 119/707/707 106/708/708
f 65/709/709 106/710/710 10/711/711
f 93/712/712 49/713/713 58/714/714
f 93/715/715 58/716/716 96/717/717
f 2/718/718 1/719/719 27/720/720
f 2/721/721 27/722/722 24/723/723
f 5/724/724 24/725/725 27/726/726
f 5/727/727 27/728/728 4/729/729
f 59/730/730 5/731/731 4/732/732
f 59/733/733 4/734/734 61/735/735
f 61/736/736 60/737/737 62/738/738
f 61/739/739 62/740/740 59/741/741
f 60/742/742 57/743/743 56/744/744
f 60/745/745 56/746/746 62/747/747
f 2/748/748 56/749/749 57/750/750
f 2/751/751 57/752/752 1/753/753
f 24/754/754 50/755/755 84/756/756
f 27/757/757 1/758/758 80/759/759
f 27/760/760 80/761/761 47/762/762
f 2/763/763 24/764/764 76/765/765
f 2/766/766 76/767/767 77/768/768
f 27/769/769 47/770/770 29/771/771
f 9/772/772 76/773/773 24/774/774
f 27/775/775 29/776/776 83/777/777
f 84/778/778 9/779/779 24/780/780
f 54/781/781 119/782/782 150/783/783
f 54/784/784 150/785/785 149/786/786
f 54/787/787 149/788/788 102/789/789
f 127/790/790 48/791/791 151/792/792
f 127/793/793 151/794/794 152/795/795
f 99/796/796 97/797/797 100/798/798
f 99/799/799 100/800/800 98/801/801
f 52/802/802 69/803/803 94/804/804
f 52/805/805 94/806/806 153/807/807
f 123/808/808 55/809/809 101/810/810
f 123/811/811 101/812/812 154/813/813
f 123/814/814 154/815/815 95/816/816
f 8/817/817 104/818/818 103/819/819
f 8/820/820 103/821/821 86/822/822
f 55/823/823 52/824/824 153/825/825
f 55/826/826 153/827/827 101/828/828
f 101/829/829 153/830/830 154/831/831
f 48/832/832 54/833/833 102/834/834
f 48/835/835 102/836/836 151/837/837
f 102/838/838 149/839/839 151/840/840
f 150/841/841 98/842/842 100/843/843
f 150/844/844 100/845/845 152/846/846
f 127/847/847 152/848/848 100/849/849
f 127/850/850 100/851/851 97/852/852
f 150/853/853 119/854/854 99/855/855
f 150/856/856 99/857/857 98/858/858
f 119/859/859 127/860/860 97/861/861
f 119/862/862 97/863/863 99/864/864
f 94/865/865 86/866/866 103/867/867
f 94/868/868 103/869/869 95/870/870
f 123/871/871 95/872/872 103/873/873
f 123/874/874 103/875/875 104/876/876
f 94/877/877 69/878/878 8/879/879
f 94/880/880 8/881/881 86/882/882
f 69/883/883 123/884/884 104/885/885
f 69/886/886 104/887/887 8/888/888
f 33/889/889 66/890/890 18/891/891
f 155/892/892 32/893/893 35/894/894
f 155/895/895 35/896/896 93/897/897
f 155/898/898 93/899/899 96/900/900
f 155/901/901 96/902/902 34/903/903
f 155/904/904 34/905/905 33/906/906
f 141/907/907 140/908/908 66/909/909
f 138/910/910 32/911/911 67/912/912
f 143/913/913 40/914/914 20/915/915
f 139/916/916 136/917/917 21/918/918
f 134/919/919 135/920/920 23/921/921
f 130/922/922 57/923/923 73/924/924
f 18/925/925 155/926/926 33/927/927
f 32/928/928 155/929/929 18/930/930
f 106/931/931 22/932/932 157/933/933
f 106/934/934 157/935/935 156/936/936
f 10/937/937 106/938/938 156/939/939
f 10/940/940 156/941/941 158/942/942
f 91/943/943 10/944/944 158/945/945
f 91/946/946 158/947/947 159/948/948
f 92/949/949 91/950/950 159/951/951
f 92/952/952 159/953/953 160/954/954
f 22/955/955 92/956/956 160/957/957
f 22/958/958 160/959/959 157/960/960
f 43/961/961 42/962/962 162/963/963
f 43/964/964 162/965/965 161/966/966
f 105/967/967 43/968/968 161/969/969
f 105/970/970 161/971/971 163/972/972
f 107/973/973 105/974/974 163/975/975
f 107/976/976 163/977/977 164/978/978
f 108/979/979 107/980/980 164/981/981
f 108/982/982 164/983/983 165/984/984
f 42/985/985 108/986/986 165/987/987
f 42/988/988 165/989/989 162/990/990
f 12/991/991 28/992/992 167/993/993
f 12/994/994 167/995/995 166/996/996
f 13/997/997 12/998/998 166/999/999
f 13/1000/1000 166/1001/1001 168/1002/1002
f 15/1003/1003 13/1004/1004 168/1005/1005
f 15/1006/1006 168/1007/1007 169/1008/1008
f 28/1009/1009 15/1010/1010 169/1011/1011
f 28/1012/1012 169/1013/1013 167/1014/1014
f 89/1015/1015 74/1016/1016 171/1017/1017
f 89/1018/1018 171/1019/1019 170/1020/1020
f 90/1021/1021 89/1022/1022 170/1023/1023
f 90/1024/1024 170/1025/1025 172/1026/1026
f 88/1027/1027 90/1028/1028 172/1029/1029
f 88/1030/1030 172/1031/1031 173/1032/1032
f 74/1033/1033 88/1034/1034 173/1035/1035
f 74/1036/1036 173/1037/1037 171/1038/1038
