v 2.652431 5.001036 -0.544116
v 2.556207 5.055403 -1.389810
v 2.106782 5.564391 -0.879235
v 2.254306 5.564391 -0.042587
v 2.851254 5.055403 0.283485
v 0.502531 1.882477 0.115089
v 3.300675 4.546412 -0.227090
v 0.412192 1.882477 -0.397246
v 3.162680 4.546412 -1.066029
v 1.578403 4.557024 -0.621469
v 1.636865 5.275456 -0.879802
v -1.092643 2.487117 -0.486619
v 1.855688 4.242986 -0.936485
v 0.932836 3.426493 -0.712424
v 2.172578 4.668743 -1.488408
v 1.669422 4.557024 -0.105275
v 0.716337 3.719831 -0.177089
v 1.812713 5.275456 0.117482
v 2.223992 3.928947 -0.735304
v 1.276864 3.133155 -0.524505
v 2.037726 4.242985 0.095905
v 2.884139 4.062024 -1.099731
v 2.524274 4.668743 0.506160
v 1.102875 3.426493 0.251914
v 2.315012 3.928947 -0.219110
v 3.059987 4.062024 -0.102446
v 1.361882 3.133155 -0.042336
v -2.799119 5.504748 -1.782046
v 1.081383 2.487117 0.075793
v -2.877932 5.212586 -2.164442
v 0.969575 2.487117 -0.558299
v -0.010372 3.378098 0.016065
v 2.603327 5.504457 -0.288486
v 2.945975 5.212298 -0.101321
v 3.203942 4.920140 -0.394391
v 2.518648 5.504457 -0.768721
v 2.776617 5.212298 -1.061792
v 3.119264 4.920140 -0.874627
v 0.165984 2.872881 -0.898569
v 0.662780 2.872881 0.555697
v -0.103627 5.071348 2.721369
v 0.745926 5.125716 2.773458
v 0.321149 5.634706 2.242205
v -0.528404 5.634706 2.242205
v -0.953182 5.125716 2.773458
v -0.319199 1.882477 0.474392
v -0.528404 4.616723 3.304716
v 0.201040 1.882477 0.474392
v 0.321150 4.616723 3.304716
v 0.158451 4.627336 1.667313
v 0.402707 5.345770 1.769745
v -0.095088 3.734007 0.725457
v 0.420530 4.313297 1.995087
v 0.391447 3.442509 1.029704
v 0.909040 4.739054 2.403002
v -0.365706 4.627336 1.667313
v -0.681276 2.487117 -0.981949
v -0.609962 5.345770 1.769745
v 0.158451 3.999258 2.322861
v 0.148180 3.151011 1.333953
v -0.627785 4.313297 1.995087
v 0.402707 4.132335 3.036257
v -1.116296 4.739054 2.403002
v -0.581624 3.442509 1.029704
v -0.365706 3.999258 2.322861
v -0.609961 4.132335 3.036257
v -0.338356 3.151011 1.333953
v -2.176015 5.504748 -2.532330
v -0.381017 2.487117 1.051274
v -2.566380 5.212585 -2.539583
v 0.262857 2.487117 1.051274
v -0.855436 2.872881 0.323793
v -0.347449 5.574772 2.618842
v -0.591271 5.282612 2.923780
v -0.347449 4.990452 3.228724
v 0.140194 5.574772 2.618842
v 0.384016 5.282612 2.923780
v 0.140194 4.990452 3.228724
v -2.408753 5.796911 -1.774793
v -2.097201 5.796911 -2.149935
v -2.331852 5.293482 -2.027868
v -2.914698 5.347850 -1.407592
v -2.234618 5.856844 -1.394955
v -1.691844 5.856844 -2.048512
v -1.829150 5.347850 -2.714706
v -0.296316 1.882477 -0.585166
v -2.509230 4.838857 -2.727343
v -0.628693 1.882477 -0.184948
v -3.052003 4.838857 -2.073784
v -1.688409 4.849469 -1.152823
v -1.923263 5.567906 -1.030362
v -2.108005 4.535430 -1.160620
v -1.298327 3.566042 -0.508633
v -2.733919 4.961187 -1.045425
v -1.353528 4.849469 -1.556055
v -0.747234 3.860852 -0.690585
v -1.276276 5.567906 -1.809402
v -2.192720 4.221392 -1.571648
v -1.377855 3.271232 -0.894495
v -1.438244 4.535430 -1.967083
v -2.897587 4.354468 -1.839527
v -1.439945 4.961187 -2.603506
v -0.669574 3.566042 -1.265719
v -1.857839 4.221392 -1.974879
v -2.250601 4.354468 -2.618568
v -1.063478 3.271232 -1.273038
v 0.137005 -2.074337 0.302800
v 0.322692 -2.074337 0.081506
v -0.374026 -2.074337 -0.103286
v -0.183409 -2.074337 0.302800
v -0.169315 -2.074337 -0.349779
v 0.267053 -2.074337 -0.234040
vt 0.119326 0.821382
vt 0.128405 0.780965
vt 0.247730 0.878748
vt 0.119326 0.821382
vt 0.247730 0.878748
vt 0.176394 0.889179
vt 0.247730 0.878748
vt 0.278830 0.843585
vt 0.147183 0.737629
vt 0.247730 0.878748
vt 0.147183 0.737629
vt 0.128405 0.780965
vt 0.176394 0.889179
vt 0.118029 0.881356
vt 0.119326 0.821382
vt 0.278830 0.843585
vt 0.247730 0.878748
vt 0.128405 0.780965
vt 0.278830 0.843585
vt 0.128405 0.780965
vt 0.147183 0.737629
vt 0.176394 0.889179
vt 0.118029 0.881356
vt 0.119326 0.821382
vt 0.471221 0.305928
vt 0.386285 0.305928
vt 0.359586 0.411521
vt 0.471221 0.305928
vt 0.359586 0.411521
vt 0.464706 0.411521
vt 0.247730 0.878748
vt 0.278830 0.843585
vt 0.147183 0.737629
vt 0.247730 0.878748
vt 0.147183 0.737629
vt 0.128405 0.780965
vt 0.176394 0.889179
vt 0.118029 0.881356
vt 0.119326 0.821382
vt 0.176394 0.889179
vt 0.247730 0.878748
vt 0.128405 0.780965
vt 0.176394 0.889179
vt 0.128405 0.780965
vt 0.119326 0.821382
vt 0.278830 0.843585
vt 0.247730 0.878748
vt 0.128405 0.780965
vt 0.278830 0.843585
vt 0.128405 0.780965
vt 0.147183 0.737629
vt 0.176394 0.889179
vt 0.118029 0.881356
vt 0.119326 0.821382
vt 0.371469 0.411521
vt 0.303851 0.548456
vt 0.367820 0.599941
vt 0.371469 0.411521
vt 0.367820 0.599941
vt 0.505820 0.478889
vt 0.247730 0.878748
vt 0.278830 0.843585
vt 0.147183 0.737629
vt 0.247730 0.878748
vt 0.147183 0.737629
vt 0.128405 0.780965
vt 0.176394 0.889179
vt 0.118029 0.881356
vt 0.119326 0.821382
vt 0.278830 0.843585
vt 0.247730 0.878748
vt 0.128405 0.780965
vt 0.278830 0.843585
vt 0.128405 0.780965
vt 0.147183 0.737629
vt 0.176394 0.889179
vt 0.118029 0.881356
vt 0.119326 0.821382
vt 0.176394 0.889179
vt 0.247730 0.878748
vt 0.128405 0.780965
vt 0.176394 0.889179
vt 0.128405 0.780965
vt 0.119326 0.821382
vt 0.119326 0.821382
vt 0.128405 0.780965
vt 0.247730 0.878748
vt 0.119326 0.821382
vt 0.247730 0.878748
vt 0.176394 0.889179
vt 0.119326 0.821382
vt 0.128405 0.780965
vt 0.247730 0.878748
vt 0.119326 0.821382
vt 0.247730 0.878748
vt 0.176394 0.889179
vt 0.176394 0.889179
vt 0.247730 0.878748
vt 0.128405 0.780965
vt 0.176394 0.889179
vt 0.128405 0.780965
vt 0.119326 0.821382
vt 0.191592 0.714389
vt 0.147183 0.737629
vt 0.278830 0.843585
vt 0.191592 0.714389
vt 0.278830 0.843585
vt 0.259733 0.769232
vt 0.259733 0.769232
vt 0.278830 0.843585
vt 0.147183 0.737629
vt 0.259733 0.769232
vt 0.147183 0.737629
vt 0.191592 0.714389
vt 0.191592 0.714389
vt 0.147183 0.737629
vt 0.278830 0.843585
vt 0.191592 0.714389
vt 0.278830 0.843585
vt 0.259733 0.769232
vt 0.259733 0.769232
vt 0.278830 0.843585
vt 0.147183 0.737629
vt 0.259733 0.769232
vt 0.147183 0.737629
vt 0.191592 0.714389
vt 0.191592 0.714389
vt 0.147183 0.737629
vt 0.278830 0.843585
vt 0.191592 0.714389
vt 0.278830 0.843585
vt 0.259733 0.769232
vt 0.259733 0.769232
vt 0.278830 0.843585
vt 0.147183 0.737629
vt 0.259733 0.769232
vt 0.147183 0.737629
vt 0.191592 0.714389
vt 0.367820 0.599941
vt 0.259733 0.769232
vt 0.191592 0.714389
vt 0.367820 0.599941
vt 0.191592 0.714389
vt 0.303851 0.548456
vt 0.303851 0.548456
vt 0.191592 0.714389
vt 0.259733 0.769232
vt 0.303851 0.548456
vt 0.259733 0.769232
vt 0.367820 0.599941
vt 0.367820 0.599941
vt 0.259733 0.769232
vt 0.191592 0.714389
vt 0.367820 0.599941
vt 0.191592 0.714389
vt 0.303851 0.548456
vt 0.367820 0.599941
vt 0.259733 0.769232
vt 0.191592 0.714389
vt 0.367820 0.599941
vt 0.191592 0.714389
vt 0.303851 0.548456
vt 0.371469 0.411521
vt 0.626422 0.411521
vt 0.505820 0.478889
vt 0.278830 0.843585
vt 0.247730 0.878748
vt 0.128405 0.780965
vt 0.278830 0.843585
vt 0.128405 0.780965
vt 0.147183 0.737629
vt 0.176394 0.889179
vt 0.118029 0.881356
vt 0.119326 0.821382
vt 0.371469 0.411521
vt 0.303851 0.548456
vt 0.367820 0.599941
vt 0.371469 0.411521
vt 0.367820 0.599941
vt 0.505820 0.478889
vt 0.247730 0.878748
vt 0.278830 0.843585
vt 0.147183 0.737629
vt 0.247730 0.878748
vt 0.147183 0.737629
vt 0.128405 0.780965
vt 0.176394 0.889179
vt 0.118029 0.881356
vt 0.119326 0.821382
vt 0.557717 0.281617
vt 0.457847 0.308996
vt 0.464706 0.411521
vt 0.557717 0.281617
vt 0.464706 0.411521
vt 0.584955 0.426336
vt 0.278830 0.843585
vt 0.247730 0.878748
vt 0.128405 0.780965
vt 0.278830 0.843585
vt 0.128405 0.780965
vt 0.147183 0.737629
vt 0.176394 0.889179
vt 0.118029 0.881356
vt 0.119326 0.821382
vt 0.176394 0.889179
vt 0.247730 0.878748
vt 0.128405 0.780965
vt 0.176394 0.889179
vt 0.128405 0.780965
vt 0.119326 0.821382
vt 0.247730 0.878748
vt 0.278830 0.843585
vt 0.147183 0.737629
vt 0.247730 0.878748
vt 0.147183 0.737629
vt 0.128405 0.780965
vt 0.176394 0.889179
vt 0.118029 0.881356
vt 0.119326 0.821382
vt 0.505820 0.478889
vt 0.367820 0.599941
vt 0.303851 0.548456
vt 0.505820 0.478889
vt 0.303851 0.548456
vt 0.371469 0.411521
vt 0.278830 0.843585
vt 0.247730 0.878748
vt 0.128405 0.780965
vt 0.278830 0.843585
vt 0.128405 0.780965
vt 0.147183 0.737629
vt 0.176394 0.889179
vt 0.118029 0.881356
vt 0.119326 0.821382
vt 0.119326 0.821382
vt 0.128405 0.780965
vt 0.247730 0.878748
vt 0.119326 0.821382
vt 0.247730 0.878748
vt 0.176394 0.889179
vt 0.247730 0.878748
vt 0.278830 0.843585
vt 0.147183 0.737629
vt 0.247730 0.878748
vt 0.147183 0.737629
vt 0.128405 0.780965
vt 0.176394 0.889179
vt 0.118029 0.881356
vt 0.119326 0.821382
vt 0.119326 0.821382
vt 0.128405 0.780965
vt 0.247730 0.878748
vt 0.119326 0.821382
vt 0.247730 0.878748
vt 0.176394 0.889179
vt 0.176394 0.889179
vt 0.247730 0.878748
vt 0.128405 0.780965
vt 0.176394 0.889179
vt 0.128405 0.780965
vt 0.119326 0.821382
vt 0.176394 0.889179
vt 0.247730 0.878748
vt 0.128405 0.780965
vt 0.176394 0.889179
vt 0.128405 0.780965
vt 0.119326 0.821382
vt 0.119326 0.821382
vt 0.128405 0.780965
vt 0.247730 0.878748
vt 0.119326 0.821382
vt 0.247730 0.878748
vt 0.176394 0.889179
vt 0.259733 0.769232
vt 0.278830 0.843585
vt 0.147183 0.737629
vt 0.259733 0.769232
vt 0.147183 0.737629
vt 0.191592 0.714389
vt 0.191592 0.714389
vt 0.147183 0.737629
vt 0.278830 0.843585
vt 0.191592 0.714389
vt 0.278830 0.843585
vt 0.259733 0.769232
vt 0.259733 0.769232
vt 0.278830 0.843585
vt 0.147183 0.737629
vt 0.259733 0.769232
vt 0.147183 0.737629
vt 0.191592 0.714389
vt 0.191592 0.714389
vt 0.147183 0.737629
vt 0.278830 0.843585
vt 0.191592 0.714389
vt 0.278830 0.843585
vt 0.259733 0.769232
vt 0.259733 0.769232
vt 0.278830 0.843585
vt 0.147183 0.737629
vt 0.259733 0.769232
vt 0.147183 0.737629
vt 0.191592 0.714389
vt 0.191592 0.714389
vt 0.147183 0.737629
vt 0.278830 0.843585
vt 0.191592 0.714389
vt 0.278830 0.843585
vt 0.259733 0.769232
vt 0.303851 0.548456
vt 0.191592 0.714389
vt 0.259733 0.769232
vt 0.303851 0.548456
vt 0.259733 0.769232
vt 0.367820 0.599941
vt 0.367820 0.599941
vt 0.259733 0.769232
vt 0.191592 0.714389
vt 0.367820 0.599941
vt 0.191592 0.714389
vt 0.303851 0.548456
vt 0.303851 0.548456
vt 0.191592 0.714389
vt 0.259733 0.769232
vt 0.303851 0.548456
vt 0.259733 0.769232
vt 0.367820 0.599941
vt 0.367820 0.599941
vt 0.303851 0.548456
vt 0.191592 0.714389
vt 0.367820 0.599941
vt 0.191592 0.714389
vt 0.259733 0.769232
vt 0.259733 0.769232
vt 0.191592 0.714389
vt 0.303851 0.548456
vt 0.147183 0.737629
vt 0.128405 0.780965
vt 0.247730 0.878748
vt 0.147183 0.737629
vt 0.247730 0.878748
vt 0.278830 0.843585
vt 0.176394 0.889179
vt 0.118029 0.881356
vt 0.119326 0.821382
vt 0.505820 0.478889
vt 0.367820 0.599941
vt 0.303851 0.548456
vt 0.505820 0.478889
vt 0.303851 0.548456
vt 0.371469 0.411521
vt 0.278830 0.843585
vt 0.247730 0.878748
vt 0.128405 0.780965
vt 0.278830 0.843585
vt 0.128405 0.780965
vt 0.147183 0.737629
vt 0.176394 0.889179
vt 0.118029 0.881356
vt 0.119326 0.821382
vt 0.557717 0.281617
vt 0.457847 0.308996
vt 0.464706 0.411521
vt 0.557717 0.281617
vt 0.464706 0.411521
vt 0.584955 0.426336
vt 0.147183 0.737629
vt 0.128405 0.780965
vt 0.247730 0.878748
vt 0.147183 0.737629
vt 0.247730 0.878748
vt 0.278830 0.843585
vt 0.176394 0.889179
vt 0.118029 0.881356
vt 0.119326 0.821382
vt 0.176394 0.889179
vt 0.247730 0.878748
vt 0.128405 0.780965
vt 0.176394 0.889179
vt 0.128405 0.780965
vt 0.119326 0.821382
vt 0.278830 0.843585
vt 0.247730 0.878748
vt 0.128405 0.780965
vt 0.278830 0.843585
vt 0.128405 0.780965
vt 0.147183 0.737629
vt 0.176394 0.889179
vt 0.118029 0.881356
vt 0.119326 0.821382
vt 0.147183 0.737629
vt 0.128405 0.780965
vt 0.247730 0.878748
vt 0.147183 0.737629
vt 0.247730 0.878748
vt 0.278830 0.843585
vt 0.176394 0.889179
vt 0.118029 0.881356
vt 0.119326 0.821382
vt 0.119326 0.821382
vt 0.128405 0.780965
vt 0.247730 0.878748
vt 0.119326 0.821382
vt 0.247730 0.878748
vt 0.176394 0.889179
vt 0.278830 0.843585
vt 0.247730 0.878748
vt 0.128405 0.780965
vt 0.278830 0.843585
vt 0.128405 0.780965
vt 0.147183 0.737629
vt 0.176394 0.889179
vt 0.118029 0.881356
vt 0.119326 0.821382
vt 0.176394 0.889179
vt 0.247730 0.878748
vt 0.128405 0.780965
vt 0.176394 0.889179
vt 0.128405 0.780965
vt 0.119326 0.821382
vt 0.119326 0.821382
vt 0.128405 0.780965
vt 0.247730 0.878748
vt 0.119326 0.821382
vt 0.247730 0.878748
vt 0.176394 0.889179
vt 0.119326 0.821382
vt 0.128405 0.780965
vt 0.247730 0.878748
vt 0.119326 0.821382
vt 0.247730 0.878748
vt 0.176394 0.889179
vt 0.176394 0.889179
vt 0.247730 0.878748
vt 0.128405 0.780965
vt 0.176394 0.889179
vt 0.128405 0.780965
vt 0.119326 0.821382
vt 0.191592 0.714389
vt 0.147183 0.737629
vt 0.278830 0.843585
vt 0.191592 0.714389
vt 0.278830 0.843585
vt 0.259733 0.769232
vt 0.259733 0.769232
vt 0.278830 0.843585
vt 0.147183 0.737629
vt 0.259733 0.769232
vt 0.147183 0.737629
vt 0.191592 0.714389
vt 0.259733 0.769232
vt 0.278830 0.843585
vt 0.147183 0.737629
vt 0.259733 0.769232
vt 0.147183 0.737629
vt 0.191592 0.714389
vt 0.191592 0.714389
vt 0.147183 0.737629
vt 0.278830 0.843585
vt 0.191592 0.714389
vt 0.278830 0.843585
vt 0.259733 0.769232
vt 0.259733 0.769232
vt 0.278830 0.843585
vt 0.147183 0.737629
vt 0.259733 0.769232
vt 0.147183 0.737629
vt 0.191592 0.714389
vt 0.303851 0.548456
vt 0.191592 0.714389
vt 0.259733 0.769232
vt 0.367820 0.599941
vt 0.259733 0.769232
vt 0.191592 0.714389
vt 0.367820 0.599941
vt 0.191592 0.714389
vt 0.303851 0.548456
vt 0.303851 0.548456
vt 0.191592 0.714389
vt 0.259733 0.769232
vt 0.303851 0.548456
vt 0.259733 0.769232
vt 0.367820 0.599941
vt 0.367820 0.599941
vt 0.259733 0.769232
vt 0.191592 0.714389
vt 0.367820 0.599941
vt 0.191592 0.714389
vt 0.303851 0.548456
vt 0.259733 0.769232
vt 0.191592 0.714389
vt 0.367820 0.599941
vt 0.371469 0.411521
vt 0.303851 0.548456
vt 0.367820 0.599941
vt 0.371469 0.411521
vt 0.367820 0.599941
vt 0.505820 0.478889
vt 0.371469 0.411521
vt 0.421480 0.305928
vt 0.530786 0.305928
vt 0.371469 0.411521
vt 0.530786 0.305928
vt 0.626422 0.411521
vt 0.421480 0.305928
vt 0.530786 0.305928
vt 0.502340 0.000000
vt 0.421480 0.305928
vt 0.502340 0.000000
vt 0.435018 0.000000
vt 0.505820 0.478889
vt 0.371469 0.411521
vt 0.626422 0.411521
vt 0.367820 0.599941
vt 0.259733 0.769232
vt 0.191592 0.714389
vt 0.367820 0.599941
vt 0.191592 0.714389
vt 0.303851 0.548456
vt 0.371469 0.411521
vt 0.421480 0.305928
vt 0.530786 0.305928
vt 0.371469 0.411521
vt 0.530786 0.305928
vt 0.626422 0.411521
vt 0.371469 0.411521
vt 0.303851 0.548456
vt 0.367820 0.599941
vt 0.371469 0.411521
vt 0.367820 0.599941
vt 0.505820 0.478889
vt 0.505820 0.478889
vt 0.367820 0.599941
vt 0.303851 0.548456
vt 0.505820 0.478889
vt 0.303851 0.548456
vt 0.371469 0.411521
vt 0.367820 0.599941
vt 0.303851 0.548456
vt 0.191592 0.714389
vt 0.367820 0.599941
vt 0.191592 0.714389
vt 0.259733 0.769232
vt 0.367820 0.599941
vt 0.303851 0.548456
vt 0.191592 0.714389
vt 0.367820 0.599941
vt 0.191592 0.714389
vt 0.259733 0.769232
vt 0.303851 0.548456
vt 0.191592 0.714389
vt 0.259733 0.769232
vt 0.303851 0.548456
vt 0.259733 0.769232
vt 0.367820 0.599941
vt 0.371469 0.411521
vt 0.303851 0.548456
vt 0.367820 0.599941
vt 0.371469 0.411521
vt 0.367820 0.599941
vt 0.505820 0.478889
vt 0.505820 0.478889
vt 0.367820 0.599941
vt 0.303851 0.548456
vt 0.505820 0.478889
vt 0.303851 0.548456
vt 0.371469 0.411521
vt 0.371469 0.411521
vt 0.303851 0.548456
vt 0.367820 0.599941
vt 0.371469 0.411521
vt 0.367820 0.599941
vt 0.505820 0.478889
vt 0.505820 0.478889
vt 0.367820 0.599941
vt 0.303851 0.548456
vt 0.505820 0.478889
vt 0.303851 0.548456
vt 0.371469 0.411521
vt 0.505820 0.478889
vt 0.367820 0.599941
vt 0.303851 0.548456
vt 0.505820 0.478889
vt 0.303851 0.548456
vt 0.371469 0.411521
vt 0.505820 0.478889
vt 0.367820 0.599941
vt 0.303851 0.548456
vt 0.505820 0.478889
vt 0.303851 0.548456
vt 0.371469 0.411521
vt 0.371469 0.411521
vt 0.421480 0.305928
vt 0.530786 0.305928
vt 0.371469 0.411521
vt 0.530786 0.305928
vt 0.626422 0.411521
vt 0.505820 0.478889
vt 0.367820 0.599941
vt 0.303851 0.548456
vt 0.505820 0.478889
vt 0.303851 0.548456
vt 0.371469 0.411521
vt 0.505820 0.478889
vt 0.371469 0.411521
vt 0.626422 0.411521
vt 0.505820 0.478889
vt 0.367820 0.599941
vt 0.303851 0.548456
vt 0.505820 0.478889
vt 0.303851 0.548456
vt 0.371469 0.411521
vt 0.530786 0.305928
vt 0.421480 0.305928
vt 0.435018 0.000000
vt 0.530786 0.305928
vt 0.435018 0.000000
vt 0.502340 0.000000
vt 0.530786 0.305928
vt 0.421480 0.305928
vt 0.435018 0.000000
vt 0.530786 0.305928
vt 0.435018 0.000000
vt 0.502340 0.000000
vt 0.421480 0.305928
vt 0.530786 0.305928
vt 0.502340 0.000000
vt 0.421480 0.305928
vt 0.502340 0.000000
vt 0.435018 0.000000
vt 0.421480 0.305928
vt 0.530786 0.305928
vt 0.502340 0.000000
vt 0.421480 0.305928
vt 0.502340 0.000000
vt 0.435018 0.000000
vt 0.530786 0.305928
vt 0.421480 0.305928
vt 0.435018 0.000000
vt 0.530786 0.305928
vt 0.435018 0.000000
vt 0.502340 0.000000
vt 0.278830 0.843585
vt 0.259733 0.769232
vt 0.191592 0.714389
vt 0.278830 0.843585
vt 0.191592 0.714389
vt 0.147183 0.737629
vn 0.672440 0.612648 0.415316
vn 0.561610 0.450317 0.694124
vn 0.973574 -0.015002 0.227880
vn 0.672440 0.612648 0.415316
vn 0.973574 -0.015002 0.227880
vn 0.948872 0.297602 0.105235
vn -0.830831 0.433095 -0.349497
vn -0.123966 0.918570 -0.375316
vn 0.288438 0.452957 -0.843584
vn -0.830831 0.433095 -0.349497
vn 0.288438 0.452957 -0.843584
vn -0.311853 -0.148833 -0.938401
vn 0.949721 0.296829 0.099612
vn 0.684044 0.719343 -0.120958
vn 0.672779 0.614420 0.412137
vn -0.661445 0.432632 0.612634
vn 0.011750 0.918595 0.395025
vn -0.123966 0.918570 -0.375316
vn -0.661445 0.432632 0.612634
vn -0.123966 0.918570 -0.375316
vn -0.830831 0.433095 -0.349497
vn 0.858299 0.296419 -0.418877
vn 0.684044 0.719343 -0.120958
vn 0.949721 0.296829 0.099612
vn 0.888033 -0.385615 0.250397
vn 0.663146 -0.370522 -0.650346
vn 0.556224 -0.460795 -0.691580
vn 0.888033 -0.385615 0.250397
vn 0.556224 -0.460795 -0.691580
vn 0.836176 -0.408329 0.366166
vn 0.028579 -0.149032 0.988419
vn 0.561610 0.450317 0.694124
vn 0.011750 0.918595 0.395025
vn 0.028579 -0.149032 0.988419
vn 0.011750 0.918595 0.395025
vn -0.661445 0.432632 0.612634
vn 0.490693 0.614000 -0.618242
vn 0.684044 0.719343 -0.120958
vn 0.858299 0.296419 -0.418877
vn 0.307618 0.927945 0.210451
vn 0.011750 0.918595 0.395025
vn 0.561610 0.450317 0.694124
vn 0.307618 0.927945 0.210451
vn 0.561610 0.450317 0.694124
vn 0.672440 0.612648 0.415316
vn 0.549103 -0.733070 0.401365
vn 0.973574 -0.015002 0.227880
vn 0.561610 0.450317 0.694124
vn 0.549103 -0.733070 0.401365
vn 0.561610 0.450317 0.694124
vn 0.028579 -0.149032 0.988419
vn 0.218250 0.927777 -0.302651
vn 0.684044 0.719343 -0.120958
vn 0.490693 0.614000 -0.618242
vn 0.556224 -0.460795 -0.691580
vn 0.593379 -0.513652 -0.619728
vn 0.780757 -0.505985 0.366603
vn 0.556224 -0.460795 -0.691580
vn 0.780757 -0.505985 0.366603
vn 0.836176 -0.408329 0.366166
vn 0.378452 -0.734406 -0.563402
vn 0.840129 -0.012498 -0.542243
vn 0.973574 -0.015002 0.227880
vn 0.378452 -0.734406 -0.563402
vn 0.973574 -0.015002 0.227880
vn 0.549103 -0.733070 0.401365
vn 0.308914 0.927787 0.209245
vn 0.684044 0.719343 -0.120958
vn 0.218250 0.927777 -0.302651
vn -0.311853 -0.148833 -0.938401
vn 0.288438 0.452957 -0.843584
vn 0.840129 -0.012498 -0.542243
vn -0.311853 -0.148833 -0.938401
vn 0.840129 -0.012498 -0.542243
vn 0.378452 -0.734406 -0.563402
vn 0.672779 0.614420 0.412137
vn 0.684044 0.719343 -0.120958
vn 0.308914 0.927787 0.209245
vn 0.487460 0.616790 -0.618024
vn 0.288438 0.452957 -0.843584
vn -0.123966 0.918570 -0.375316
vn 0.487460 0.616790 -0.618024
vn -0.123966 0.918570 -0.375316
vn 0.216458 0.927930 -0.303467
vn 0.857755 0.303306 -0.415044
vn 0.840129 -0.012498 -0.542243
vn 0.288438 0.452957 -0.843584
vn 0.857755 0.303306 -0.415044
vn 0.288438 0.452957 -0.843584
vn 0.487460 0.616790 -0.618024
vn 0.216458 0.927930 -0.303467
vn -0.123966 0.918570 -0.375316
vn 0.011750 0.918595 0.395025
vn 0.216458 0.927930 -0.303467
vn 0.011750 0.918595 0.395025
vn 0.307618 0.927945 0.210451
vn 0.948872 0.297602 0.105235
vn 0.973574 -0.015002 0.227880
vn 0.840129 -0.012498 -0.542243
vn 0.948872 0.297602 0.105235
vn 0.840129 -0.012498 -0.542243
vn 0.857755 0.303306 -0.415044
vn -0.129850 -0.241225 0.961743
vn 0.028579 -0.149032 0.988419
vn -0.661445 0.432632 0.612634
vn -0.129850 -0.241225 0.961743
vn -0.661445 0.432632 0.612634
vn -0.746822 0.346012 0.567919
vn 0.378086 -0.834464 0.400901
vn 0.549103 -0.733070 0.401365
vn 0.028579 -0.149032 0.988419
vn 0.378086 -0.834464 0.400901
vn 0.028579 -0.149032 0.988419
vn -0.129850 -0.241225 0.961743
vn 0.210127 -0.838776 -0.502297
vn 0.378452 -0.734406 -0.563402
vn 0.549103 -0.733070 0.401365
vn 0.210127 -0.838776 -0.502297
vn 0.549103 -0.733070 0.401365
vn 0.378086 -0.834464 0.400901
vn -0.461602 -0.254103 -0.849915
vn -0.311853 -0.148833 -0.938401
vn 0.378452 -0.734406 -0.563402
vn -0.461602 -0.254103 -0.849915
vn 0.378452 -0.734406 -0.563402
vn 0.210127 -0.838776 -0.502297
vn -0.899628 0.338251 -0.276143
vn -0.830831 0.433095 -0.349497
vn -0.311853 -0.148833 -0.938401
vn -0.899628 0.338251 -0.276143
vn -0.311853 -0.148833 -0.938401
vn -0.461602 -0.254103 -0.849915
vn -0.746822 0.346012 0.567919
vn -0.661445 0.432632 0.612634
vn -0.830831 0.433095 -0.349497
vn -0.746822 0.346012 0.567919
vn -0.830831 0.433095 -0.349497
vn -0.899628 0.338251 -0.276143
vn 0.780757 -0.505985 0.366603
vn 0.378086 -0.834464 0.400901
vn -0.129850 -0.241225 0.961743
vn 0.780757 -0.505985 0.366603
vn -0.129850 -0.241225 0.961743
vn 0.578889 -0.271131 0.769009
vn 0.593379 -0.513652 -0.619728
vn 0.210127 -0.838776 -0.502297
vn 0.378086 -0.834464 0.400901
vn 0.593379 -0.513652 -0.619728
vn 0.378086 -0.834464 0.400901
vn 0.780757 -0.505985 0.366603
vn 0.247761 -0.278028 -0.928071
vn -0.461602 -0.254103 -0.849915
vn 0.210127 -0.838776 -0.502297
vn 0.247761 -0.278028 -0.928071
vn 0.210127 -0.838776 -0.502297
vn 0.593379 -0.513652 -0.619728
vn 0.022462 0.774169 -0.632580
vn 0.427515 0.334509 -0.839842
vn 0.921868 -0.246268 -0.299185
vn 0.022462 0.774169 -0.632580
vn 0.921868 -0.246268 -0.299185
vn 0.729700 0.546594 -0.410819
vn 0.502957 -0.390563 0.771035
vn 0.836176 -0.408329 0.366166
vn 0.756285 -0.072462 0.650217
vn 0.489051 0.435733 -0.755623
vn 0.388681 0.919964 -0.050924
vn 0.777363 0.454224 0.435187
vn 0.489051 0.435733 -0.755623
vn 0.777363 0.454224 0.435187
vn 0.978103 -0.150277 -0.143981
vn -0.257243 0.310930 0.914958
vn 0.000000 0.722075 0.691814
vn -0.514487 0.619179 0.593229
vn 0.756285 -0.072462 0.650217
vn 0.855431 -0.245781 0.455883
vn 0.493625 -0.480221 0.725067
vn 0.756285 -0.072462 0.650217
vn 0.493625 -0.480221 0.725067
vn 0.502957 -0.390563 0.771035
vn -0.489051 0.435733 -0.755623
vn -0.388680 0.919964 -0.050924
vn 0.388681 0.919964 -0.050924
vn -0.489051 0.435733 -0.755623
vn 0.388681 0.919964 -0.050924
vn 0.489051 0.435733 -0.755623
vn 0.257243 0.310930 0.914958
vn 0.000000 0.722075 0.691814
vn -0.257243 0.310930 0.914958
vn -0.522247 -0.371751 0.767502
vn 0.400795 -0.385635 0.831053
vn 0.502957 -0.390563 0.771035
vn -0.522247 -0.371751 0.767502
vn 0.502957 -0.390563 0.771035
vn -0.583515 -0.460250 0.669089
vn -0.978103 -0.150278 -0.143980
vn -0.777362 0.454224 0.435188
vn -0.388680 0.919964 -0.050924
vn -0.978103 -0.150278 -0.143980
vn -0.388680 0.919964 -0.050924
vn -0.489051 0.435733 -0.755623
vn 0.514487 0.619179 0.593229
vn 0.000000 0.722075 0.691814
vn 0.257243 0.310930 0.914958
vn -0.514741 0.619069 0.593124
vn -0.777362 0.454224 0.435188
vn -0.388682 -0.011519 0.921300
vn -0.514741 0.619069 0.593124
vn -0.388682 -0.011519 0.921300
vn -0.257371 0.310671 0.915010
vn -0.489051 -0.736289 0.467662
vn -0.388682 -0.011519 0.921300
vn -0.777362 0.454224 0.435188
vn -0.489051 -0.736289 0.467662
vn -0.777362 0.454224 0.435188
vn -0.978103 -0.150278 -0.143980
vn 0.257243 0.927424 0.271498
vn 0.000000 0.722075 0.691814
vn 0.514487 0.619179 0.593229
vn 0.502957 -0.390563 0.771035
vn 0.493625 -0.480221 0.725067
vn -0.507279 -0.504863 0.698414
vn 0.502957 -0.390563 0.771035
vn -0.507279 -0.504863 0.698414
vn -0.583515 -0.460250 0.669089
vn 0.489052 -0.736289 0.467662
vn 0.388682 -0.011519 0.921300
vn -0.388682 -0.011519 0.921300
vn 0.489052 -0.736289 0.467662
vn -0.388682 -0.011519 0.921300
vn -0.489051 -0.736289 0.467662
vn -0.257243 0.927424 0.271498
vn 0.000000 0.722075 0.691814
vn 0.257243 0.927424 0.271498
vn -0.257370 0.927464 0.271239
vn -0.388680 0.919964 -0.050924
vn -0.777362 0.454224 0.435188
vn -0.257370 0.927464 0.271239
vn -0.777362 0.454224 0.435188
vn -0.514741 0.619069 0.593124
vn 0.978103 -0.150277 -0.143981
vn 0.777363 0.454224 0.435187
vn 0.388682 -0.011519 0.921300
vn 0.978103 -0.150277 -0.143981
vn 0.388682 -0.011519 0.921300
vn 0.489052 -0.736289 0.467662
vn -0.514487 0.619179 0.593229
vn 0.000000 0.722075 0.691814
vn -0.257243 0.927424 0.271498
vn 0.514741 0.619069 0.593123
vn 0.777363 0.454224 0.435187
vn 0.388681 0.919964 -0.050924
vn 0.514741 0.619069 0.593123
vn 0.388681 0.919964 -0.050924
vn 0.257370 0.927464 0.271239
vn 0.257372 0.310672 0.915010
vn 0.388682 -0.011519 0.921300
vn 0.777363 0.454224 0.435187
vn 0.257372 0.310672 0.915010
vn 0.777363 0.454224 0.435187
vn 0.514741 0.619069 0.593123
vn 0.257370 0.927464 0.271239
vn 0.388681 0.919964 -0.050924
vn -0.388680 0.919964 -0.050924
vn 0.257370 0.927464 0.271239
vn -0.388680 0.919964 -0.050924
vn -0.257370 0.927464 0.271239
vn -0.257371 0.310671 0.915010
vn -0.388682 -0.011519 0.921300
vn 0.388682 -0.011519 0.921300
vn -0.257371 0.310671 0.915010
vn 0.388682 -0.011519 0.921300
vn 0.257372 0.310672 0.915010
vn -0.919512 -0.250381 -0.302998
vn -0.978103 -0.150278 -0.143980
vn -0.489051 0.435733 -0.755623
vn -0.919512 -0.250381 -0.302998
vn -0.489051 0.435733 -0.755623
vn -0.427036 0.332052 -0.841060
vn -0.460531 -0.833603 0.304988
vn -0.489051 -0.736289 0.467662
vn -0.978103 -0.150278 -0.143980
vn -0.460531 -0.833603 0.304988
vn -0.978103 -0.150278 -0.143980
vn -0.919512 -0.250381 -0.302998
vn 0.461232 -0.832212 0.307715
vn 0.489052 -0.736289 0.467662
vn -0.489051 -0.736289 0.467662
vn 0.461232 -0.832212 0.307715
vn -0.489051 -0.736289 0.467662
vn -0.460531 -0.833603 0.304988
vn 0.921868 -0.246268 -0.299185
vn 0.978103 -0.150277 -0.143981
vn 0.489052 -0.736289 0.467662
vn 0.921868 -0.246268 -0.299185
vn 0.489052 -0.736289 0.467662
vn 0.461232 -0.832212 0.307715
vn 0.427515 0.334509 -0.839842
vn 0.489051 0.435733 -0.755623
vn 0.978103 -0.150277 -0.143981
vn 0.427515 0.334509 -0.839842
vn 0.978103 -0.150277 -0.143981
vn 0.921868 -0.246268 -0.299185
vn -0.427036 0.332052 -0.841060
vn -0.489051 0.435733 -0.755623
vn 0.489051 0.435733 -0.755623
vn -0.427036 0.332052 -0.841060
vn 0.489051 0.435733 -0.755623
vn 0.427515 0.334509 -0.839842
vn -0.507279 -0.504863 0.698414
vn -0.460531 -0.833603 0.304988
vn -0.919512 -0.250381 -0.302998
vn -0.507279 -0.504863 0.698414
vn -0.919512 -0.250381 -0.302998
vn -0.869607 -0.284236 0.403724
vn 0.493625 -0.480221 0.725067
vn 0.461232 -0.832212 0.307715
vn -0.460531 -0.833603 0.304988
vn 0.493625 -0.480221 0.725067
vn -0.460531 -0.833603 0.304988
vn -0.507279 -0.504863 0.698414
vn 0.855431 -0.245781 0.455883
vn 0.921868 -0.246268 -0.299185
vn 0.461232 -0.832212 0.307715
vn 0.855431 -0.245781 0.455883
vn 0.461232 -0.832212 0.307715
vn 0.493625 -0.480221 0.725067
vn 0.481586 0.779511 0.400546
vn 0.791021 0.554514 -0.258457
vn 0.820236 -0.249215 -0.514884
vn 0.481586 0.779511 0.400546
vn 0.820236 -0.249215 -0.514884
vn 0.920661 0.328616 0.210701
vn 0.920661 0.328616 0.210701
vn 0.374015 0.332911 0.865611
vn 0.481586 0.779511 0.400546
vn 0.268846 0.435731 0.858988
vn -0.209150 0.919963 0.331548
vn -0.831440 0.454222 0.319984
vn 0.268846 0.435731 0.858988
vn -0.831440 0.454222 0.319984
vn -0.514140 -0.150277 0.844439
vn -0.539521 0.310929 -0.782458
vn -0.532211 0.722074 -0.441997
vn -0.127664 0.619175 -0.774805
vn 0.263679 -0.237349 -0.934954
vn 0.247761 -0.278028 -0.928071
vn 0.593379 -0.513652 -0.619728
vn 0.263679 -0.237349 -0.934954
vn 0.593379 -0.513652 -0.619728
vn 0.556224 -0.460795 -0.691580
vn 0.893749 0.435732 0.106538
vn 0.287503 0.919963 -0.266476
vn -0.209150 0.919963 0.331548
vn 0.893749 0.435732 0.106538
vn -0.209150 0.919963 0.331548
vn 0.268846 0.435731 0.858988
vn -0.868225 0.310929 -0.386663
vn -0.532211 0.722074 -0.441997
vn -0.539521 0.310929 -0.782458
vn -0.258898 -0.369092 -0.892605
vn -0.924174 -0.370469 -0.093031
vn -0.875264 -0.483090 0.023185
vn -0.258898 -0.369092 -0.892605
vn -0.875264 -0.483090 0.023185
vn -0.127021 -0.501450 -0.855812
vn 0.735666 -0.150278 -0.660463
vn 0.161864 0.454222 -0.876061
vn 0.287503 0.919963 -0.266476
vn 0.735666 -0.150278 -0.660463
vn 0.287503 0.919963 -0.266476
vn 0.893749 0.435732 0.106538
vn -0.785074 0.619175 0.016785
vn -0.532211 0.722074 -0.441997
vn -0.868225 0.310929 -0.386663
vn -0.044230 0.927464 -0.371288
vn 0.287503 0.919963 -0.266476
vn 0.161864 0.454222 -0.876061
vn -0.044230 0.927464 -0.371288
vn 0.161864 0.454222 -0.876061
vn -0.127424 0.619066 -0.774932
vn -0.047319 -0.736288 -0.675012
vn -0.460427 -0.011519 -0.887623
vn 0.161864 0.454222 -0.876061
vn -0.047319 -0.736288 -0.675012
vn 0.161864 0.454222 -0.876061
vn 0.735666 -0.150278 -0.660463
vn -0.373217 0.927422 0.024437
vn -0.532211 0.722074 -0.441997
vn -0.785074 0.619175 0.016785
vn -0.672222 -0.736288 0.077440
vn -0.957078 -0.011518 -0.289601
vn -0.460427 -0.011519 -0.887623
vn -0.672222 -0.736288 0.077440
vn -0.460427 -0.011519 -0.887623
vn -0.047319 -0.736288 -0.675012
vn -0.044512 0.927422 -0.371358
vn -0.532211 0.722074 -0.441997
vn -0.373217 0.927422 0.024437
vn -0.373096 0.927464 0.024702
vn -0.209150 0.919963 0.331548
vn 0.287503 0.919963 -0.266476
vn -0.373096 0.927464 0.024702
vn 0.287503 0.919963 -0.266476
vn -0.044230 0.927464 -0.371288
vn -0.514140 -0.150277 0.844439
vn -0.831440 0.454222 0.319984
vn -0.957078 -0.011518 -0.289601
vn -0.514140 -0.150277 0.844439
vn -0.957078 -0.011518 -0.289601
vn -0.672222 -0.736288 0.077440
vn -0.127664 0.619175 -0.774805
vn -0.532211 0.722074 -0.441997
vn -0.044512 0.927422 -0.371358
vn -0.785154 0.619066 0.017045
vn -0.831440 0.454222 0.319984
vn -0.209150 0.919963 0.331548
vn -0.785154 0.619066 0.017045
vn -0.209150 0.919963 0.331548
vn -0.373096 0.927464 0.024702
vn -0.868346 0.310670 -0.386600
vn -0.957078 -0.011518 -0.289601
vn -0.831440 0.454222 0.319984
vn -0.868346 0.310670 -0.386600
vn -0.831440 0.454222 0.319984
vn -0.785154 0.619066 0.017045
vn -0.127424 0.619066 -0.774932
vn 0.161864 0.454222 -0.876061
vn -0.460427 -0.011519 -0.887623
vn -0.127424 0.619066 -0.774932
vn -0.460427 -0.011519 -0.887623
vn -0.539481 0.310670 -0.782588
vn -0.539481 0.310670 -0.782588
vn -0.460427 -0.011519 -0.887623
vn -0.957078 -0.011518 -0.289601
vn -0.539481 0.310670 -0.782588
vn -0.957078 -0.011518 -0.289601
vn -0.868346 0.310670 -0.386600
vn 0.820236 -0.249215 -0.514884
vn 0.735666 -0.150278 -0.660463
vn 0.893749 0.435732 0.106538
vn 0.820236 -0.249215 -0.514884
vn 0.893749 0.435732 0.106538
vn 0.920661 0.328616 0.210701
vn 0.054576 -0.829850 -0.555311
vn -0.047319 -0.736288 -0.675012
vn 0.735666 -0.150278 -0.660463
vn 0.054576 -0.829850 -0.555311
vn 0.735666 -0.150278 -0.660463
vn 0.820236 -0.249215 -0.514884
vn -0.363249 -0.241961 0.899725
vn -0.514140 -0.150277 0.844439
vn -0.672222 -0.736288 0.077440
vn -0.363249 -0.241961 0.899725
vn -0.672222 -0.736288 0.077440
vn -0.540284 -0.827371 0.153458
vn 0.374015 0.332911 0.865611
vn 0.268846 0.435731 0.858988
vn -0.514140 -0.150277 0.844439
vn 0.374015 0.332911 0.865611
vn -0.514140 -0.150277 0.844439
vn -0.363249 -0.241961 0.899725
vn 0.920661 0.328616 0.210701
vn 0.893749 0.435732 0.106538
vn 0.268846 0.435731 0.858988
vn 0.920661 0.328616 0.210701
vn 0.268846 0.435731 0.858988
vn 0.374015 0.332911 0.865611
vn 0.022462 0.774169 -0.632580
vn -0.427036 0.332052 -0.841060
vn 0.427515 0.334509 -0.839842
vn -0.191118 -0.553791 -0.810425
vn 0.054576 -0.829850 -0.555311
vn 0.820236 -0.249215 -0.514884
vn -0.191118 -0.553791 -0.810425
vn 0.820236 -0.249215 -0.514884
vn 0.257339 -0.320322 -0.911685
vn -0.847723 -0.527878 -0.052061
vn -0.540284 -0.827371 0.153458
vn 0.054576 -0.829850 -0.555311
vn -0.847723 -0.527878 -0.052061
vn 0.054576 -0.829850 -0.555311
vn -0.191118 -0.553791 -0.810425
vn -0.874839 -0.273398 0.399887
vn -0.363249 -0.241961 0.899725
vn -0.540284 -0.827371 0.153458
vn -0.874839 -0.273398 0.399887
vn -0.540284 -0.827371 0.153458
vn -0.847723 -0.527878 -0.052061
vn -0.746822 0.346012 0.567919
vn -0.899628 0.338251 -0.276143
vn -0.599857 0.788800 0.134038
vn -0.875264 -0.483090 0.023185
vn -0.847723 -0.527878 -0.052061
vn -0.191118 -0.553791 -0.810425
vn -0.875264 -0.483090 0.023185
vn -0.191118 -0.553791 -0.810425
vn -0.127021 -0.501450 -0.855812
vn 0.556224 -0.460795 -0.691580
vn 0.663146 -0.370522 -0.650346
vn -0.258898 -0.369092 -0.892605
vn 0.556224 -0.460795 -0.691580
vn -0.258898 -0.369092 -0.892605
vn -0.127021 -0.501450 -0.855812
vn 0.663146 -0.370522 -0.650346
vn 0.888033 -0.385615 0.250397
vn 0.964894 -0.046049 0.258573
vn 0.663146 -0.370522 -0.650346
vn 0.964894 -0.046049 0.258573
vn 0.983886 -0.043245 -0.173486
vn -0.885757 -0.216552 0.410535
vn -0.875264 -0.483090 0.023185
vn -0.583515 -0.460250 0.669089
vn -0.689289 0.567093 -0.450873
vn -0.919512 -0.250381 -0.302998
vn -0.427036 0.332052 -0.841060
vn -0.689289 0.567093 -0.450873
vn -0.427036 0.332052 -0.841060
vn 0.022462 0.774169 -0.632580
vn 0.502957 -0.390563 0.771035
vn 0.400795 -0.385635 0.831053
vn 0.888033 -0.385615 0.250397
vn 0.502957 -0.390563 0.771035
vn 0.888033 -0.385615 0.250397
vn 0.836176 -0.408329 0.366166
vn -0.583515 -0.460250 0.669089
vn -0.507279 -0.504863 0.698414
vn -0.869607 -0.284236 0.403724
vn -0.583515 -0.460250 0.669089
vn -0.869607 -0.284236 0.403724
vn -0.885757 -0.216552 0.410535
vn -0.127021 -0.501450 -0.855812
vn -0.191118 -0.553791 -0.810425
vn 0.257339 -0.320322 -0.911685
vn -0.127021 -0.501450 -0.855812
vn 0.257339 -0.320322 -0.911685
vn 0.263679 -0.237349 -0.934954
vn -0.545325 0.582829 -0.602437
vn -0.599857 0.788800 0.134038
vn -0.899628 0.338251 -0.276143
vn -0.545325 0.582829 -0.602437
vn -0.899628 0.338251 -0.276143
vn -0.461602 -0.254103 -0.849915
vn -0.599857 0.788800 0.134038
vn -0.267043 0.548055 0.792669
vn -0.129850 -0.241225 0.961743
vn -0.599857 0.788800 0.134038
vn -0.129850 -0.241225 0.961743
vn -0.746822 0.346012 0.567919
vn 0.481586 0.779511 0.400546
vn 0.374015 0.332911 0.865611
vn -0.363249 -0.241961 0.899725
vn 0.481586 0.779511 0.400546
vn -0.363249 -0.241961 0.899725
vn -0.139652 0.578269 0.803805
vn 0.683848 0.684999 -0.251253
vn 0.791021 0.554514 -0.258457
vn 0.481586 0.779511 0.400546
vn 0.683848 0.684999 -0.251253
vn 0.481586 0.779511 0.400546
vn 0.683848 0.684999 -0.251253
vn -0.171849 0.714812 0.677873
vn 0.481586 0.779511 0.400546
vn -0.139652 0.578269 0.803805
vn -0.171849 0.714812 0.677873
vn -0.139652 0.578269 0.803805
vn -0.171849 0.714812 0.677873
vn -0.184479 0.649715 0.737454
vn -0.267043 0.548055 0.792669
vn -0.599857 0.788800 0.134038
vn -0.184479 0.649715 0.737454
vn -0.599857 0.788800 0.134038
vn -0.184479 0.649715 0.737454
vn 0.681757 0.661573 -0.312296
vn 0.022462 0.774169 -0.632580
vn 0.729700 0.546594 -0.410819
vn 0.681757 0.661573 -0.312296
vn 0.729700 0.546594 -0.410819
vn 0.681757 0.661573 -0.312296
vn -0.597381 0.705410 -0.381488
vn -0.689289 0.567093 -0.450873
vn 0.022462 0.774169 -0.632580
vn -0.597381 0.705410 -0.381488
vn 0.022462 0.774169 -0.632580
vn -0.597381 0.705410 -0.381488
vn -0.440440 0.730631 -0.521720
vn -0.599857 0.788800 0.134038
vn -0.545325 0.582829 -0.602437
vn -0.440440 0.730631 -0.521720
vn -0.545325 0.582829 -0.602437
vn -0.440440 0.730631 -0.521720
vn -0.875264 -0.483090 0.023185
vn -0.924174 -0.370469 -0.093031
vn -0.522247 -0.371751 0.767502
vn -0.875264 -0.483090 0.023185
vn -0.522247 -0.371751 0.767502
vn -0.583515 -0.460250 0.669089
vn -0.885757 -0.216552 0.410535
vn -0.874839 -0.273398 0.399887
vn -0.847723 -0.527878 -0.052061
vn -0.885757 -0.216552 0.410535
vn -0.847723 -0.527878 -0.052061
vn -0.875264 -0.483090 0.023185
vn 0.263679 -0.237349 -0.934954
vn 0.556224 -0.460795 -0.691580
vn -0.127021 -0.501450 -0.855812
vn 0.836176 -0.408329 0.366166
vn 0.780757 -0.505985 0.366603
vn 0.578889 -0.271131 0.769009
vn 0.836176 -0.408329 0.366166
vn 0.578889 -0.271131 0.769009
vn 0.756285 -0.072462 0.650217
vn 0.888033 -0.385615 0.250397
vn 0.400795 -0.385635 0.831053
vn 0.422196 -0.046093 0.905332
vn 0.888033 -0.385615 0.250397
vn 0.422196 -0.046093 0.905332
vn 0.964894 -0.046049 0.258573
vn -0.522247 -0.371751 0.767502
vn -0.924174 -0.370469 -0.093031
vn -0.904126 -0.049432 0.424397
vn -0.522247 -0.371751 0.767502
vn -0.904126 -0.049432 0.424397
vn -0.904126 -0.049432 0.424397
vn -0.924174 -0.370469 -0.093031
vn -0.258898 -0.369092 -0.892605
vn -0.767788 -0.062576 -0.637641
vn -0.924174 -0.370469 -0.093031
vn -0.767788 -0.062576 -0.637641
vn -0.767788 -0.062576 -0.637641
vn 0.400795 -0.385635 0.831053
vn -0.522247 -0.371751 0.767502
vn 0.000000 -0.043326 0.999061
vn 0.400795 -0.385635 0.831053
vn 0.000000 -0.043326 0.999061
vn 0.422196 -0.046093 0.905332
vn -0.258898 -0.369092 -0.892605
vn 0.663146 -0.370522 -0.650346
vn 0.256057 -0.049212 -0.965408
vn -0.258898 -0.369092 -0.892605
vn 0.256057 -0.049212 -0.965408
vn 0.256057 -0.049212 -0.965408
vn -0.047319 -0.736288 -0.675012
vn 0.054576 -0.829850 -0.555311
vn -0.540284 -0.827371 0.153458
vn -0.047319 -0.736288 -0.675012
vn -0.540284 -0.827371 0.153458
vn -0.672222 -0.736288 0.077440
f 34/1/1 5/2/2 7/3/3
f 34/4/4 7/5/5 35/6/6
f 11/7/7 3/8/8 2/9/9
f 11/10/10 2/11/11 15/12/12
f 36/13/13 1/14/14 37/15/15
f 18/16/16 4/17/17 3/18/18
f 18/19/19 3/20/20 11/21/21
f 33/22/22 1/23/23 36/24/24
f 6/25/25 8/26/26 31/27/27
f 6/28/28 31/29/29 29/30/30
f 23/31/31 5/32/32 4/33/33
f 23/34/34 4/35/35 18/36/36
f 34/37/37 1/38/38 33/39/39
f 33/40/40 4/41/41 5/42/42
f 33/43/43 5/44/44 34/45/45
f 26/46/46 7/47/47 5/48/48
f 26/49/49 5/50/50 23/51/51
f 35/52/52 1/53/53 34/54/54
f 31/55/55 20/56/56 27/57/57
f 31/58/58 27/59/59 29/60/60
f 22/61/61 9/62/62 7/63/63
f 22/64/64 7/65/65 26/66/66
f 38/67/67 1/68/68 35/69/69
f 15/70/70 2/71/71 9/72/72
f 15/73/73 9/74/74 22/75/75
f 37/76/76 1/77/77 38/78/78
f 37/79/79 2/80/80 3/81/81
f 37/82/82 3/83/83 36/84/84
f 38/85/85 9/86/86 2/87/87
f 38/88/88 2/89/89 37/90/90
f 36/91/91 3/92/92 4/93/93
f 36/94/94 4/95/95 33/96/96
f 35/97/97 7/98/98 9/99/99
f 35/100/100 9/101/101 38/102/102
f 21/103/103 23/104/104 18/105/105
f 21/106/106 18/107/107 16/108/108
f 25/109/109 26/110/110 23/111/111
f 25/112/112 23/113/113 21/114/114
f 19/115/115 22/116/116 26/117/117
f 19/118/118 26/119/119 25/120/120
f 13/121/121 15/122/122 22/123/123
f 13/124/124 22/125/125 19/126/126
f 10/127/127 11/128/128 15/129/129
f 10/130/130 15/131/131 13/132/132
f 16/133/133 18/134/134 11/135/135
f 16/136/136 11/137/137 10/138/138
f 27/139/139 25/140/140 21/141/141
f 27/142/142 21/143/143 24/144/144
f 20/145/145 19/146/146 25/147/147
f 20/148/148 25/149/149 27/150/150
f 14/151/151 13/152/152 19/153/153
f 14/154/154 19/155/155 20/156/156
f 52/157/157 50/158/158 53/159/159
f 52/160/160 53/161/161 54/162/162
f 71/163/163 29/164/164 40/165/165
f 51/166/166 43/167/167 42/168/168
f 51/169/169 42/170/170 55/171/171
f 76/172/172 41/173/173 77/174/174
f 40/175/175 54/176/176 60/177/177
f 40/178/178 60/179/179 71/180/180
f 58/181/181 44/182/182 43/183/183
f 58/184/184 43/185/185 51/186/186
f 73/187/187 41/188/188 76/189/189
f 46/190/190 48/191/191 71/192/192
f 46/193/193 71/194/194 69/195/195
f 63/196/196 45/197/197 44/198/198
f 63/199/199 44/200/200 58/201/201
f 74/202/202 41/203/203 73/204/204
f 74/205/205 45/206/206 47/207/207
f 74/208/208 47/209/209 75/210/210
f 66/211/211 47/212/212 45/213/213
f 66/214/214 45/215/215 63/216/216
f 75/217/217 41/218/218 74/219/219
f 71/220/220 60/221/221 67/222/222
f 71/223/223 67/224/224 69/225/225
f 62/226/226 49/227/227 47/228/228
f 62/229/229 47/230/230 66/231/231
f 78/232/232 41/233/233 75/234/234
f 73/235/235 44/236/236 45/237/237
f 73/238/238 45/239/239 74/240/240
f 55/241/241 42/242/242 49/243/243
f 55/244/244 49/245/245 62/246/246
f 77/247/247 41/248/248 78/249/249
f 77/250/250 42/251/251 43/252/252
f 77/253/253 43/254/254 76/255/255
f 78/256/256 49/257/257 42/258/258
f 78/259/259 42/260/260 77/261/261
f 76/262/262 43/263/263 44/264/264
f 76/265/265 44/266/266 73/267/267
f 75/268/268 47/269/269 49/270/270
f 75/271/271 49/272/272 78/273/273
f 61/274/274 63/275/275 58/276/276
f 61/277/277 58/278/278 56/279/279
f 65/280/280 66/281/281 63/282/282
f 65/283/283 63/284/284 61/285/285
f 59/286/286 62/287/287 66/288/288
f 59/289/289 66/290/290 65/291/291
f 53/292/292 55/293/293 62/294/294
f 53/295/295 62/296/296 59/297/297
f 50/298/298 51/299/299 55/300/300
f 50/301/301 55/302/302 53/303/303
f 56/304/304 58/305/305 51/306/306
f 56/307/307 51/308/308 50/309/309
f 67/310/310 65/311/311 61/312/312
f 67/313/313 61/314/314 64/315/315
f 60/316/316 59/317/317 65/318/318
f 60/319/319 65/320/320 67/321/321
f 54/322/322 53/323/323 59/324/324
f 54/325/325 59/326/326 60/327/327
f 96/328/328 103/329/329 100/330/330
f 96/331/331 100/332/332 95/333/333
f 95/334/334 90/335/335 96/336/336
f 91/337/337 83/338/338 82/339/339
f 91/340/340 82/341/341 94/342/342
f 79/343/343 81/344/344 28/345/345
f 39/346/346 14/347/347 20/348/348
f 39/349/349 20/350/350 31/351/351
f 97/352/352 84/353/353 83/354/354
f 97/355/355 83/356/356 91/357/357
f 80/358/358 81/359/359 79/360/360
f 86/361/361 88/362/362 12/363/363
f 86/364/364 12/365/365 57/366/366
f 102/367/367 85/368/368 84/369/369
f 102/370/370 84/371/371 97/372/372
f 68/373/373 81/374/374 80/375/375
f 80/376/376 84/377/377 85/378/378
f 80/379/379 85/380/380 68/381/381
f 105/382/382 87/383/383 85/384/384
f 105/385/385 85/386/386 102/387/387
f 70/388/388 81/389/389 68/390/390
f 101/391/391 89/392/392 87/393/393
f 101/394/394 87/395/395 105/396/396
f 30/397/397 81/398/398 70/399/399
f 79/400/400 83/401/401 84/402/402
f 79/403/403 84/404/404 80/405/405
f 94/406/406 82/407/407 89/408/408
f 94/409/409 89/410/410 101/411/411
f 28/412/412 81/413/413 30/414/414
f 28/415/415 82/416/416 83/417/417
f 28/418/418 83/419/419 79/420/420
f 30/421/421 89/422/422 82/423/423
f 30/424/424 82/425/425 28/426/426
f 68/427/427 85/428/428 87/429/429
f 68/430/430 87/431/431 70/432/432
f 70/433/433 87/434/434 89/435/435
f 70/436/436 89/437/437 30/438/438
f 100/439/439 102/440/440 97/441/441
f 100/442/442 97/443/443 95/444/444
f 104/445/445 105/446/446 102/447/447
f 104/448/448 102/449/449 100/450/450
f 92/451/451 94/452/452 101/453/453
f 92/454/454 101/455/455 98/456/456
f 90/457/457 91/458/458 94/459/459
f 90/460/460 94/461/461 92/462/462
f 95/463/463 97/464/464 91/465/465
f 95/466/466 91/467/467 90/468/468
f 52/469/469 56/470/470 50/471/471
f 106/472/472 104/473/473 100/474/474
f 106/475/475 100/476/476 103/477/477
f 99/478/478 98/479/479 104/480/480
f 99/481/481 104/482/482 106/483/483
f 93/484/484 92/485/485 98/486/486
f 93/487/487 98/488/488 99/489/489
f 16/490/490 10/491/491 17/492/492
f 12/493/493 99/494/494 106/495/495
f 12/496/496 106/497/497 57/498/498
f 31/499/499 8/500/500 86/501/501
f 31/502/502 86/503/503 57/504/504
f 8/505/505 6/506/506 108/507/507
f 8/508/508 108/509/509 112/510/510
f 72/511/511 12/512/512 69/513/513
f 64/514/514 61/515/515 56/516/516
f 64/517/517 56/518/518 52/519/519
f 71/520/520 48/521/521 6/522/522
f 71/523/523 6/524/524 29/525/525
f 69/526/526 67/527/527 64/528/528
f 69/529/529 64/530/530 72/531/531
f 57/532/532 106/533/533 103/534/534
f 57/535/535 103/536/536 39/537/537
f 14/538/538 17/539/539 10/540/540
f 14/541/541 10/542/542 13/543/543
f 17/544/544 24/545/545 21/546/546
f 17/547/547 21/548/548 16/549/549
f 96/550/550 90/551/551 92/552/552
f 96/553/553 92/554/554 93/555/555
f 39/556/556 103/557/557 96/558/558
f 39/559/559 96/560/560 32/561/561
f 32/562/562 96/563/563 93/564/564
f 32/565/565 93/566/566 72/567/567
f 40/568/568 24/569/569 17/570/570
f 40/571/571 17/572/572 32/573/573
f 32/574/574 52/575/575 54/576/576
f 32/577/577 54/578/578 40/579/579
f 72/580/580 64/581/581 52/582/582
f 72/583/583 52/584/584 32/585/585
f 32/586/586 17/587/587 14/588/588
f 32/589/589 14/590/590 39/591/591
f 12/592/592 88/593/593 46/594/594
f 12/595/595 46/596/596 69/597/597
f 72/598/598 93/599/599 99/600/600
f 72/601/601 99/602/602 12/603/603
f 39/604/604 31/605/605 57/606/606
f 29/607/607 27/608/608 24/609/609
f 29/610/610 24/611/611 40/612/612
f 6/613/613 48/614/614 107/615/615
f 6/616/616 107/617/617 108/618/618
f 46/619/619 88/620/620 109/621/621
f 46/622/622 109/623/623 110/624/624
f 88/625/625 86/626/626 111/627/627
f 88/628/628 111/629/629 109/630/630
f 48/631/631 46/632/632 110/633/633
f 48/634/634 110/635/635 107/636/636
f 86/637/637 8/638/638 112/639/639
f 86/640/640 112/641/641 111/642/642
f 105/643/643 104/644/644 98/645/645
f 105/646/646 98/647/647 101/648/648
