v -0.000001 0.151391 5.047976
v -0.000001 2.613004 1.790418
v 5.906509 -0.413700 -3.487721
v -0.000013 1.358359 -7.069029
v -0.000012 1.579529 -9.801723
v 0.000000 0.022919 -12.601992
v -0.000001 2.919799 -1.773737
v 0.000002 -8.666265 6.119684
v 0.000000 -9.983887 -12.603776
v -0.000001 -2.004846 6.495255
v -0.000000 -9.516883 2.330099
v 14.823240 3.785038 -3.244459
v 2.529918 -0.820546 3.356298
v 14.529173 2.958705 6.583391
v 4.801033 -5.976379 4.569510
v 7.598917 -3.244363 1.790417
v 7.324100 -4.118002 -1.790421
v 7.411770 -4.936885 -7.065665
v 7.653841 -4.977498 -9.819165
v 6.237465 -4.999733 -12.575728
v 1.607989 -6.165125 9.586852
v 7.905602 -2.260790 -3.487721
v 1.778544 -2.269373 4.893623
v 4.784039 -0.055108 1.790418
v 4.784038 0.055108 -1.790421
v 4.383473 -0.740959 -7.067974
v 4.383473 -0.763196 -9.826353
v 2.592627 -0.991948 -12.601992
v -13.812469 5.561182 3.574574
v 15.291142 3.645339 3.613484
v 5.073939 -10.237194 2.458373
v 10.750429 -6.204821 4.153627
v 6.142226 -10.704198 -1.825432
v 6.142226 -10.704198 -7.032961
v 13.050499 4.874548 6.544481
v 6.142225 -10.704198 -12.603776
v 1.766183 -8.093429 8.858877
v 4.322848 -7.236095 4.444283
v -6.848969 -1.341087 -4.966298
v 12.014545 -11.349293 -9.826135
v 7.986594 -8.647705 -1.809030
v 9.079378 -8.037388 -7.032962
v 9.079378 -7.648475 -9.834093
v 7.986593 -8.647705 -12.602078
v 13.668732 3.397651 -3.441595
v 11.375322 -11.518162 10.232765
v 11.830830 -7.541624 2.408186
v 8.628654 -11.608202 4.153627
v 8.350128 -9.568035 5.954990
v 4.100655 -3.406045 4.808744
v 1.407311 2.335658 -1.800010
v 1.407311 2.127152 1.790418
v 7.400401 -1.069573 -1.798701
v 7.562656 -0.795158 -2.760399
v 13.569283 3.733411 -3.143991
v 14.094154 4.129128 -2.394707
v 14.250359 4.355730 3.652905
v 13.579443 3.751147 4.823200
v 12.654274 2.917449 5.378534
v 10.086626 0.603665 12.675871
v 14.501392 4.581945 7.080767
v 12.029404 2.354359 8.651321
v 14.847610 4.893931 3.546762
v 14.824114 4.679466 -2.317563
v 15.497850 5.187415 -2.737040
v 15.227686 4.983730 -3.448989
v 13.798941 3.906558 -4.095831
v 13.325846 3.549878 -3.739199
v 6.848970 -1.341087 -4.966299
v 13.781790 4.879802 -3.181986
v 13.226398 3.885639 -3.441595
v 13.812469 5.561182 3.574574
v -5.906508 -0.413700 -3.487720
v -14.823240 3.785038 -3.244459
v -2.529918 -0.820546 3.356300
v -14.529173 2.958705 6.583391
v -4.801034 -5.976379 4.569511
v -7.598917 -3.244363 1.790418
v -7.324100 -4.118002 -1.790421
v -7.411769 -4.936885 -7.065664
v -7.653840 -4.977498 -9.819164
v -6.237463 -4.999733 -12.575727
v -1.607990 -6.165125 9.586854
v -7.905602 -2.260790 -3.487720
v -1.778545 -2.269373 4.893625
v -4.784039 -0.055108 1.790420
v -4.784038 0.055108 -1.790419
v -4.383472 -0.740959 -7.067972
v -4.383471 -0.763196 -9.826352
v -2.592625 -0.991948 -12.601990
v -13.226398 3.885639 -3.441595
v -15.291143 3.645339 3.613483
v -5.073939 -10.237194 2.458375
v -10.750429 -6.204821 4.153627
v -6.142226 -10.704198 -1.825431
v -6.142225 -10.704198 -7.032960
v -13.050501 4.874548 6.544481
v -6.142223 -10.704198 -12.603775
v -1.766184 -8.093429 8.858879
v -4.322849 -7.236095 4.444285
v -13.781790 4.879802 -3.181986
v -12.014544 -11.349293 -9.826135
v -7.986594 -8.647705 -1.809029
v -9.079376 -8.037388 -7.032961
v -9.079376 -7.648475 -9.834092
v -7.986591 -8.647705 -12.602077
v -13.668732 3.397651 -3.441595
v -11.375323 -11.518162 10.232765
v -11.830830 -7.541624 2.408185
v -8.628652 -11.608202 4.153627
v -8.350128 -9.568035 5.954990
v -4.100656 -3.406045 4.808746
v -1.407311 2.335658 -1.800008
v -1.407311 2.127152 1.790420
v -7.400401 -1.069573 -1.798700
v -7.562655 -0.795158 -2.760398
v -13.569283 3.733411 -3.143991
v -14.094154 4.129128 -2.394707
v -14.250360 4.355730 3.652905
v -13.579443 3.751147 4.823200
v -12.654276 2.917449 5.378534
v -10.086628 0.603665 12.675871
v -14.501394 4.581945 7.080765
v -12.029404 2.354359 8.651321
v -14.847610 4.893931 3.546762
v -14.824114 4.679466 -2.317563
v -15.497850 5.187415 -2.737040
v -15.227686 4.983730 -3.448989
v -13.798941 3.906558 -4.095831
v -13.325846 3.549878 -3.739199
v -4.204002 -7.104929 6.854244
v -3.442310 -5.030674 7.635458
v 3.442309 -5.030674 7.635456
v 4.204000 -7.104929 6.854242
v -2.042078 -4.392313 7.870469
v 2.042077 -4.392313 7.870467
v -3.800468 -8.077260 6.459010
v 3.800466 -8.077260 6.459008
v 1.889385 -7.129277 9.222864
v -1.889386 -7.129277 9.222866
v 2.278019 -7.483230 8.791955
v -2.278021 -7.483230 8.791957
v -1.984194 -6.509955 9.159272
v 1.984192 -6.509955 9.159270
v -2.536968 -9.451729 4.289030
v 2.536971 -9.451729 4.289029
v -0.000001 -4.392313 7.870468
v 0.000000 -9.750385 -1.811339
v 0.000000 -9.867136 -6.997479
vt 0.000000 0.000000
vt 0.000000 0.000000
vt 0.000000 0.000000
vt 0.000000 0.000000
vt 0.000000 0.000000
vt 0.000000 0.000000
vt 0.000000 0.000000
vt 0.000000 0.000000
vt 0.000000 0.000000
vt 0.000000 0.000000
vt 0.000000 0.000000
vt 0.000000 0.000000
vt 0.000000 0.000000
vt 0.000000 0.000000
vt 0.000000 0.000000
vt 0.000000 0.000000
vt 0.000000 0.000000
vt 0.000000 0.000000
vt 0.000000 0.000000
vt 0.000000 0.000000
vt 0.000000 0.000000
vt 0.000000 0.000000
vt 0.000000 0.000000
vt 0.000000 0.000000
vt 0.000000 0.000000
vt 0.000000 0.000000
vt 0.000000 0.000000
vt 0.000000 0.000000
vt 0.000000 0.000000
vt 0.000000 0.000000
vt 0.000000 0.000000
vt 0.000000 0.000000
vt 0.000000 0.000000
vt 0.000000 0.000000
vt 0.000000 0.000000
vt 0.000000 0.000000
vt 0.000000 0.000000
vt 0.000000 0.000000
vt 0.000000 0.000000
vt 0.000000 0.000000
vt 0.000000 0.000000
vt 0.000000 0.000000
vt 0.000000 0.000000
vt 0.000000 0.000000
vt 0.000000 0.000000
vt 0.000000 0.000000
vt 0.000000 0.000000
vt 0.000000 0.000000
vt 0.000000 0.000000
vt 0.000000 0.000000
vt 0.000000 0.000000
vt 0.000000 0.000000
vt 0.000000 0.000000
vt 0.000000 0.000000
vt 0.000000 0.000000
vt 0.000000 0.000000
vt 0.000000 0.000000
vt 0.000000 0.000000
vt 0.000000 0.000000
vt 0.000000 0.000000
vt 0.000000 0.000000
vt 0.000000 0.000000
vt 0.000000 0.000000
vt 0.000000 0.000000
vt 0.000000 0.000000
vt 0.000000 0.000000
vt 0.000000 0.000000
vt 0.000000 0.000000
vt 0.000000 0.000000
vt 0.000000 0.000000
vt 0.000000 0.000000
vt 0.000000 0.000000
vt 0.000000 0.000000
vt 0.000000 0.000000
vt 0.000000 0.000000
vt 0.000000 0.000000
vt 0.000000 0.000000
vt 0.000000 0.000000
vt 0.000000 0.000000
vt 0.000000 0.000000
vt 0.000000 0.000000
vt 0.000000 0.000000
vt 0.000000 0.000000
vt 0.000000 0.000000
vt 0.000000 0.000000
vt 0.000000 0.000000
vt 0.000000 0.000000
vt 0.000000 0.000000
vt 0.000000 0.000000
vt 0.000000 0.000000
vt 0.000000 0.000000
vt 0.000000 0.000000
vt 0.000000 0.000000
vt 0.000000 0.000000
vt 0.000000 0.000000
vt 0.000000 0.000000
vt 0.000000 0.000000
vt 0.000000 0.000000
vt 0.000000 0.000000
vt 0.000000 0.000000
vt 0.000000 0.000000
vt 0.000000 0.000000
vt 0.000000 0.000000
vt 0.000000 0.000000
vt 0.000000 0.000000
vt 0.000000 0.000000
vt 0.000000 0.000000
vt 0.000000 0.000000
vt 0.000000 0.000000
vt 0.000000 0.000000
vt 0.000000 0.000000
vt 0.000000 0.000000
vt 0.000000 0.000000
vt 0.000000 0.000000
vt 0.000000 0.000000
vt 0.000000 0.000000
vt 0.000000 0.000000
vt 0.000000 0.000000
vt 0.000000 0.000000
vt 0.000000 0.000000
vt 0.000000 0.000000
vt 0.000000 0.000000
vt 0.000000 0.000000
vt 0.000000 0.000000
vt 0.000000 0.000000
vt 0.000000 0.000000
vt 0.000000 0.000000
vt 0.000000 0.000000
vt 0.000000 0.000000
vt 0.000000 0.000000
vt 0.000000 0.000000
vt 0.000000 0.000000
vt 0.000000 0.000000
vt 0.000000 0.000000
vt 0.000000 0.000000
vt 0.000000 0.000000
vt 0.000000 0.000000
vt 0.000000 0.000000
vt 0.000000 0.000000
vt 0.000000 0.000000
vt 0.000000 0.000000
vt 0.000000 0.000000
vt 0.000000 0.000000
vt 0.000000 0.000000
vt 0.000000 0.000000
vt 0.000000 0.000000
vt 0.000000 0.000000
vt 0.000000 0.000000
vt 0.000000 0.000000
vt 0.000000 0.000000
vt 0.000000 0.000000
vt 0.000000 0.000000
vt 0.000000 0.000000
vt 0.000000 0.000000
vt 0.000000 0.000000
vt 0.000000 0.000000
vt 0.000000 0.000000
vt 0.000000 0.000000
vt 0.000000 0.000000
vt 0.000000 0.000000
vt 0.000000 0.000000
vt 0.000000 0.000000
vt 0.000000 0.000000
vt 0.000000 0.000000
vt 0.000000 0.000000
vt 0.000000 0.000000
vt 0.000000 0.000000
vt 0.000000 0.000000
vt 0.000000 0.000000
vt 0.000000 0.000000
vt 0.000000 0.000000
vt 0.000000 0.000000
vt 0.000000 0.000000
vt 0.000000 0.000000
vt 0.000000 0.000000
vt 0.000000 0.000000
vt 0.000000 0.000000
vt 0.000000 0.000000
vt 0.000000 0.000000
vt 0.000000 0.000000
vt 0.000000 0.000000
vt 0.000000 0.000000
vt 0.000000 0.000000
vt 0.000000 0.000000
vt 0.000000 0.000000
vt 0.000000 0.000000
vt 0.000000 0.000000
vt 0.000000 0.000000
vt 0.000000 0.000000
vt 0.000000 0.000000
vt 0.000000 0.000000
vt 0.000000 0.000000
vt 0.000000 0.000000
vt 0.000000 0.000000
vt 0.000000 0.000000
vt 0.000000 0.000000
vt 0.000000 0.000000
vt 0.000000 0.000000
vt 0.000000 0.000000
vt 0.000000 0.000000
vt 0.000000 0.000000
vt 0.000000 0.000000
vt 0.000000 0.000000
vt 0.000000 0.000000
vt 0.000000 0.000000
vt 0.000000 0.000000
vt 0.000000 0.000000
vt 0.000000 0.000000
vt 0.000000 0.000000
vt 0.000000 0.000000
vt 0.000000 0.000000
vt 0.000000 0.000000
vt 0.000000 0.000000
vt 0.000000 0.000000
vt 0.000000 0.000000
vt 0.000000 0.000000
vt 0.000000 0.000000
vt 0.000000 0.000000
vt 0.000000 0.000000
vt 0.000000 0.000000
vt 0.000000 0.000000
vt 0.000000 0.000000
vt 0.000000 0.000000
vt 0.000000 0.000000
vt 0.000000 0.000000
vt 0.000000 0.000000
vt 0.000000 0.000000
vt 0.000000 0.000000
vt 0.000000 0.000000
vt 0.000000 0.000000
vt 0.000000 0.000000
vt 0.000000 0.000000
vt 0.000000 0.000000
vt 0.000000 0.000000
vt 0.000000 0.000000
vt 0.000000 0.000000
vt 0.000000 0.000000
vt 0.000000 0.000000
vt 0.000000 0.000000
vt 0.000000 0.000000
vt 0.000000 0.000000
vt 0.000000 0.000000
vt 0.000000 0.000000
vt 0.000000 0.000000
vt 0.000000 0.000000
vt 0.000000 0.000000
vt 0.000000 0.000000
vt 0.000000 0.000000
vt 0.000000 0.000000
vt 0.000000 0.000000
vt 0.000000 0.000000
vt 0.000000 0.000000
vt 0.000000 0.000000
vt 0.000000 0.000000
vt 0.000000 0.000000
vt 0.000000 0.000000
vt 0.000000 0.000000
vt 0.000000 0.000000
vt 0.000000 0.000000
vt 0.000000 0.000000
vt 0.000000 0.000000
vt 0.000000 0.000000
vt 0.000000 0.000000
vt 0.000000 0.000000
vt 0.000000 0.000000
vt 0.000000 0.000000
vt 0.000000 0.000000
vt 0.000000 0.000000
vt 0.000000 0.000000
vt 0.000000 0.000000
vt 0.000000 0.000000
vt 0.000000 0.000000
vt 0.000000 0.000000
vt 0.000000 0.000000
vt 0.000000 0.000000
vt 0.000000 0.000000
vt 0.000000 0.000000
vt 0.000000 0.000000
vt 0.000000 0.000000
vt 0.000000 0.000000
vt 0.000000 0.000000
vt 0.000000 0.000000
vt 0.000000 0.000000
vt 0.000000 0.000000
vt 0.000000 0.000000
vt 0.000000 0.000000
vt 0.000000 0.000000
vt 0.000000 0.000000
vt 0.000000 0.000000
vt 0.000000 0.000000
vt 0.000000 0.000000
vt 0.000000 0.000000
vt 0.000000 0.000000
vt 0.000000 0.000000
vt 0.000000 0.000000
vt 0.000000 0.000000
vt 0.000000 0.000000
vt 0.000000 0.000000
vt 0.000000 0.000000
vt 0.000000 0.000000
vt 0.000000 0.000000
vt 0.000000 0.000000
vt 0.000000 0.000000
vt 0.000000 0.000000
vt 0.000000 0.000000
vt 0.000000 0.000000
vt 0.000000 0.000000
vt 0.000000 0.000000
vt 0.000000 0.000000
vt 0.000000 0.000000
vt 0.000000 0.000000
vt 0.000000 0.000000
vt 0.000000 0.000000
vt 0.000000 0.000000
vt 0.000000 0.000000
vt 0.000000 0.000000
vt 0.000000 0.000000
vt 0.000000 0.000000
vt 0.000000 0.000000
vt 0.000000 0.000000
vt 0.000000 0.000000
vt 0.000000 0.000000
vt 0.000000 0.000000
vt 0.000000 0.000000
vt 0.000000 0.000000
vt 0.000000 0.000000
vt 0.000000 0.000000
vt 0.000000 0.000000
vt 0.000000 0.000000
vt 0.000000 0.000000
vt 0.000000 0.000000
vt 0.000000 0.000000
vt 0.000000 0.000000
vt 0.000000 0.000000
vt 0.000000 0.000000
vt 0.000000 0.000000
vt 0.000000 0.000000
vt 0.000000 0.000000
vt 0.000000 0.000000
vt 0.000000 0.000000
vt 0.000000 0.000000
vt 0.000000 0.000000
vt 0.000000 0.000000
vt 0.000000 0.000000
vt 0.000000 0.000000
vt 0.000000 0.000000
vt 0.000000 0.000000
vt 0.000000 0.000000
vt 0.000000 0.000000
vt 0.000000 0.000000
vt 0.000000 0.000000
vt 0.000000 0.000000
vt 0.000000 0.000000
vt 0.000000 0.000000
vt 0.000000 0.000000
vt 0.000000 0.000000
vt 0.000000 0.000000
vt 0.000000 0.000000
vt 0.000000 0.000000
vt 0.000000 0.000000
vt 0.000000 0.000000
vt 0.000000 0.000000
vt 0.000000 0.000000
vt 0.000000 0.000000
vt 0.000000 0.000000
vt 0.000000 0.000000
vt 0.000000 0.000000
vt 0.000000 0.000000
vt 0.000000 0.000000
vt 0.000000 0.000000
vt 0.000000 0.000000
vt 0.000000 0.000000
vt 0.000000 0.000000
vt 0.000000 0.000000
vt 0.000000 0.000000
vt 0.000000 0.000000
vt 0.000000 0.000000
vt 0.000000 0.000000
vt 0.000000 0.000000
vt 0.000000 0.000000
vt 0.000000 0.000000
vt 0.000000 0.000000
vt 0.000000 0.000000
vt 0.000000 0.000000
vt 0.000000 0.000000
vt 0.000000 0.000000
vt 0.000000 0.000000
vt 0.000000 0.000000
vt 0.000000 0.000000
vt 0.000000 0.000000
vt 0.000000 0.000000
vt 0.000000 0.000000
vt 0.000000 0.000000
vt 0.000000 0.000000
vt 0.000000 0.000000
vt 0.000000 0.000000
vt 0.000000 0.000000
vt 0.000000 0.000000
vt 0.000000 0.000000
vt 0.000000 0.000000
vt 0.000000 0.000000
vt 0.000000 0.000000
vt 0.000000 0.000000
vt 0.000000 0.000000
vt 0.000000 0.000000
vt 0.000000 0.000000
vt 0.000000 0.000000
vt 0.000000 0.000000
vt 0.000000 0.000000
vt 0.000000 0.000000
vt 0.000000 0.000000
vt 0.000000 0.000000
vt 0.000000 0.000000
vt 0.000000 0.000000
vt 0.000000 0.000000
vt 0.000000 0.000000
vt 0.000000 0.000000
vt 0.000000 0.000000
vt 0.000000 0.000000
vt 0.000000 0.000000
vt 0.000000 0.000000
vt 0.000000 0.000000
vt 0.000000 0.000000
vt 0.000000 0.000000
vt 0.000000 0.000000
vt 0.000000 0.000000
vt 0.000000 0.000000
vt 0.000000 0.000000
vt 0.000000 0.000000
vt 0.000000 0.000000
vt 0.000000 0.000000
vt 0.000000 0.000000
vt 0.000000 0.000000
vt 0.000000 0.000000
vt 0.000000 0.000000
vt 0.000000 0.000000
vt 0.000000 0.000000
vt 0.000000 0.000000
vt 0.000000 0.000000
vt 0.000000 0.000000
vt 0.000000 0.000000
vt 0.000000 0.000000
vt 0.000000 0.000000
vt 0.000000 0.000000
vt 0.000000 0.000000
vt 0.000000 0.000000
vt 0.000000 0.000000
vt 0.000000 0.000000
vt 0.000000 0.000000
vt 0.000000 0.000000
vt 0.000000 0.000000
vt 0.000000 0.000000
vt 0.000000 0.000000
vt 0.000000 0.000000
vt 0.000000 0.000000
vt 0.000000 0.000000
vt 0.000000 0.000000
vt 0.000000 0.000000
vt 0.000000 0.000000
vt 0.000000 0.000000
vt 0.000000 0.000000
vt 0.000000 0.000000
vt 0.000000 0.000000
vt 0.000000 0.000000
vt 0.000000 0.000000
vt 0.000000 0.000000
vt 0.000000 0.000000
vt 0.000000 0.000000
vt 0.000000 0.000000
vt 0.000000 0.000000
vt 0.000000 0.000000
vt 0.000000 0.000000
vt 0.000000 0.000000
vt 0.000000 0.000000
vt 0.000000 0.000000
vt 0.000000 0.000000
vt 0.000000 0.000000
vt 0.000000 0.000000
vt 0.000000 0.000000
vt 0.000000 0.000000
vt 0.000000 0.000000
vt 0.000000 0.000000
vt 0.000000 0.000000
vt 0.000000 0.000000
vt 0.000000 0.000000
vt 0.000000 0.000000
vt 0.000000 0.000000
vt 0.000000 0.000000
vt 0.000000 0.000000
vt 0.000000 0.000000
vt 0.000000 0.000000
vt 0.000000 0.000000
vt 0.000000 0.000000
vt 0.000000 0.000000
vt 0.000000 0.000000
vt 0.000000 0.000000
vt 0.000000 0.000000
vt 0.000000 0.000000
vt 0.000000 0.000000
vt 0.000000 0.000000
vt 0.000000 0.000000
vt 0.000000 0.000000
vt 0.000000 0.000000
vt 0.000000 0.000000
vt 0.000000 0.000000
vt 0.000000 0.000000
vt 0.000000 0.000000
vt 0.000000 0.000000
vt 0.000000 0.000000
vt 0.000000 0.000000
vt 0.000000 0.000000
vt 0.000000 0.000000
vt 0.000000 0.000000
vt 0.000000 0.000000
vt 0.000000 0.000000
vt 0.000000 0.000000
vt 0.000000 0.000000
vt 0.000000 0.000000
vt 0.000000 0.000000
vt 0.000000 0.000000
vt 0.000000 0.000000
vt 0.000000 0.000000
vt 0.000000 0.000000
vt 0.000000 0.000000
vt 0.000000 0.000000
vt 0.000000 0.000000
vt 0.000000 0.000000
vt 0.000000 0.000000
vt 0.000000 0.000000
vt 0.000000 0.000000
vt 0.000000 0.000000
vt 0.000000 0.000000
vt 0.000000 0.000000
vt 0.000000 0.000000
vt 0.000000 0.000000
vt 0.000000 0.000000
vt 0.000000 0.000000
vt 0.000000 0.000000
vt 0.000000 0.000000
vt 0.000000 0.000000
vt 0.000000 0.000000
vt 0.000000 0.000000
vt 0.000000 0.000000
vt 0.000000 0.000000
vt 0.000000 0.000000
vt 0.000000 0.000000
vt 0.000000 0.000000
vt 0.000000 0.000000
vt 0.000000 0.000000
vt 0.000000 0.000000
vt 0.000000 0.000000
vt 0.000000 0.000000
vt 0.000000 0.000000
vt 0.000000 0.000000
vt 0.000000 0.000000
vt 0.000000 0.000000
vt 0.000000 0.000000
vt 0.000000 0.000000
vt 0.000000 0.000000
vt 0.000000 0.000000
vt 0.000000 0.000000
vt 0.000000 0.000000
vt 0.000000 0.000000
vt 0.000000 0.000000
vt 0.000000 0.000000
vt 0.000000 0.000000
vt 0.000000 0.000000
vt 0.000000 0.000000
vt 0.000000 0.000000
vt 0.000000 0.000000
vt 0.000000 0.000000
vt 0.000000 0.000000
vt 0.000000 0.000000
vt 0.000000 0.000000
vt 0.000000 0.000000
vt 0.000000 0.000000
vt 0.000000 0.000000
vt 0.000000 0.000000
vt 0.000000 0.000000
vt 0.000000 0.000000
vt 0.000000 0.000000
vt 0.000000 0.000000
vt 0.000000 0.000000
vt 0.000000 0.000000
vt 0.000000 0.000000
vt 0.000000 0.000000
vt 0.000000 0.000000
vt 0.000000 0.000000
vt 0.000000 0.000000
vt 0.000000 0.000000
vt 0.000000 0.000000
vt 0.000000 0.000000
vt 0.000000 0.000000
vt 0.000000 0.000000
vt 0.000000 0.000000
vt 0.000000 0.000000
vt 0.000000 0.000000
vt 0.000000 0.000000
vt 0.000000 0.000000
vt 0.000000 0.000000
vt 0.000000 0.000000
vt 0.000000 0.000000
vt 0.000000 0.000000
vt 0.000000 0.000000
vt 0.000000 0.000000
vt 0.000000 0.000000
vt 0.000000 0.000000
vt 0.000000 0.000000
vt 0.000000 0.000000
vt 0.000000 0.000000
vt 0.000000 0.000000
vt 0.000000 0.000000
vt 0.000000 0.000000
vt 0.000000 0.000000
vt 0.000000 0.000000
vt 0.000000 0.000000
vt 0.000000 0.000000
vt 0.000000 0.000000
vt 0.000000 0.000000
vt 0.000000 0.000000
vt 0.000000 0.000000
vt 0.000000 0.000000
vt 0.000000 0.000000
vt 0.000000 0.000000
vt 0.000000 0.000000
vt 0.000000 0.000000
vt 0.000000 0.000000
vt 0.000000 0.000000
vt 0.000000 0.000000
vt 0.000000 0.000000
vt 0.000000 0.000000
vt 0.000000 0.000000
vt 0.000000 0.000000
vt 0.000000 0.000000
vt 0.000000 0.000000
vt 0.000000 0.000000
vt 0.000000 0.000000
vt 0.000000 0.000000
vt 0.000000 0.000000
vt 0.000000 0.000000
vt 0.000000 0.000000
vt 0.000000 0.000000
vt 0.000000 0.000000
vt 0.000000 0.000000
vt 0.000000 0.000000
vt 0.000000 0.000000
vt 0.000000 0.000000
vt 0.000000 0.000000
vt 0.000000 0.000000
vt 0.000000 0.000000
vt 0.000000 0.000000
vt 0.000000 0.000000
vt 0.000000 0.000000
vt 0.000000 0.000000
vt 0.000000 0.000000
vt 0.000000 0.000000
vt 0.000000 0.000000
vt 0.000000 0.000000
vt 0.000000 0.000000
vt 0.000000 0.000000
vt 0.000000 0.000000
vt 0.000000 0.000000
vt 0.000000 0.000000
vt 0.000000 0.000000
vt 0.000000 0.000000
vt 0.000000 0.000000
vt 0.000000 0.000000
vt 0.000000 0.000000
vt 0.000000 0.000000
vt 0.000000 0.000000
vt 0.000000 0.000000
vt 0.000000 0.000000
vt 0.000000 0.000000
vt 0.000000 0.000000
vt 0.000000 0.000000
vt 0.000000 0.000000
vt 0.000000 0.000000
vt 0.000000 0.000000
vt 0.000000 0.000000
vt 0.000000 0.000000
vt 0.000000 0.000000
vt 0.000000 0.000000
vt 0.000000 0.000000
vt 0.000000 0.000000
vt 0.000000 0.000000
vt 0.000000 0.000000
vt 0.000000 0.000000
vt 0.000000 0.000000
vt 0.000000 0.000000
vt 0.000000 0.000000
vt 0.000000 0.000000
vt 0.000000 0.000000
vt 0.000000 0.000000
vt 0.000000 0.000000
vt 0.000000 0.000000
vt 0.000000 0.000000
vt 0.000000 0.000000
vt 0.000000 0.000000
vt 0.000000 0.000000
vt 0.000000 0.000000
vt 0.000000 0.000000
vt 0.000000 0.000000
vt 0.000000 0.000000
vt 0.000000 0.000000
vt 0.000000 0.000000
vt 0.000000 0.000000
vt 0.000000 0.000000
vt 0.000000 0.000000
vt 0.000000 0.000000
vt 0.000000 0.000000
vt 0.000000 0.000000
vt 0.000000 0.000000
vt 0.000000 0.000000
vt 0.000000 0.000000
vt 0.000000 0.000000
vt 0.000000 0.000000
vt 0.000000 0.000000
vt 0.000000 0.000000
vt 0.000000 0.000000
vt 0.000000 0.000000
vt 0.000000 0.000000
vt 0.000000 0.000000
vt 0.000000 0.000000
vt 0.000000 0.000000
vt 0.000000 0.000000
vt 0.000000 0.000000
vt 0.000000 0.000000
vt 0.000000 0.000000
vt 0.000000 0.000000
vt 0.000000 0.000000
vt 0.000000 0.000000
vt 0.000000 0.000000
vt 0.000000 0.000000
vt 0.000000 0.000000
vt 0.000000 0.000000
vt 0.000000 0.000000
vt 0.000000 0.000000
vt 0.000000 0.000000
vt 0.000000 0.000000
vt 0.000000 0.000000
vt 0.000000 0.000000
vt 0.000000 0.000000
vt 0.000000 0.000000
vt 0.000000 0.000000
vt 0.000000 0.000000
vt 0.000000 0.000000
vt 0.000000 0.000000
vt 0.000000 0.000000
vt 0.000000 0.000000
vt 0.000000 0.000000
vt 0.000000 0.000000
vt 0.000000 0.000000
vt 0.000000 0.000000
vt 0.000000 0.000000
vt 0.000000 0.000000
vt 0.000000 0.000000
vt 0.000000 0.000000
vt 0.000000 0.000000
vt 0.000000 0.000000
vt 0.000000 0.000000
vt 0.000000 0.000000
vt 0.000000 0.000000
vt 0.000000 0.000000
vt 0.000000 0.000000
vt 0.000000 0.000000
vt 0.000000 0.000000
vt 0.000000 0.000000
vt 0.000000 0.000000
vt 0.000000 0.000000
vt 0.000000 0.000000
vt 0.000000 0.000000
vt 0.000000 0.000000
vt 0.000000 0.000000
vt 0.000000 0.000000
vt 0.000000 0.000000
vt 0.000000 0.000000
vt 0.000000 0.000000
vt 0.000000 0.000000
vt 0.000000 0.000000
vt 0.000000 0.000000
vt 0.000000 0.000000
vt 0.000000 0.000000
vt 0.000000 0.000000
vt 0.000000 0.000000
vt 0.000000 0.000000
vt 0.000000 0.000000
vt 0.000000 0.000000
vt 0.000000 0.000000
vt 0.000000 0.000000
vt 0.000000 0.000000
vt 0.000000 0.000000
vt 0.000000 0.000000
vt 0.000000 0.000000
vt 0.000000 0.000000
vt 0.000000 0.000000
vt 0.000000 0.000000
vt 0.000000 0.000000
vt 0.000000 0.000000
vt 0.000000 0.000000
vt 0.000000 0.000000
vt 0.000000 0.000000
vt 0.000000 0.000000
vt 0.000000 0.000000
vt 0.000000 0.000000
vn 0.822647 0.533242 -0.197243
vn 0.896511 0.435702 0.080202
vn 0.780503 0.619212 0.085972
vn 0.460920 0.880018 -0.114545
vn 0.444530 0.894089 -0.054748
vn 0.422798 0.890451 -0.168342
vn 0.444530 0.894089 -0.054748
vn 0.341298 0.938205 -0.057336
vn 0.422798 0.890451 -0.168342
vn 0.079357 0.426058 0.901209
vn 0.079199 0.554565 0.828363
vn 0.202103 0.506045 0.838494
vn 0.079199 0.554565 0.828363
vn 0.263211 0.542172 0.797978
vn 0.202103 0.506045 0.838494
vn 0.372872 -0.333696 -0.865802
vn 0.372872 -0.333696 -0.865802
vn 0.372872 -0.333696 -0.865802
vn 0.000000 -0.999941 0.010838
vn 0.000000 -0.999945 0.010445
vn -0.117470 -0.993063 0.005181
vn 0.000000 -0.999941 0.010838
vn -0.117470 -0.993063 0.005181
vn -0.126393 -0.991954 0.007160
vn 0.945855 0.314096 0.081864
vn 0.965712 0.140343 0.218412
vn 0.896511 0.435702 0.080202
vn 0.638155 0.460231 -0.617208
vn 0.754761 0.414830 -0.508184
vn 0.754761 0.414830 -0.508184
vn 0.341298 0.938205 -0.057336
vn 0.434265 0.861392 -0.263473
vn 0.542623 0.831549 -0.118687
vn 0.754761 0.414830 -0.508184
vn 0.850579 0.358002 -0.385163
vn 0.754761 0.414830 -0.508184
vn 0.444530 0.894089 -0.054748
vn 0.474750 0.879510 0.032790
vn 0.299883 0.947632 0.109838
vn 0.988918 0.026963 0.145993
vn 0.997202 -0.025151 -0.070395
vn 0.990038 -0.101924 0.097138
vn 0.705534 0.622714 0.338304
vn 0.705534 0.622714 0.338304
vn 0.705534 0.622714 0.338304
vn 0.988918 0.026963 0.145993
vn 0.990038 -0.101924 0.097138
vn 0.980716 -0.049958 0.188943
vn 0.107093 -0.910524 -0.399347
vn -0.171161 -0.870565 -0.461324
vn -0.028277 -0.949746 -0.311742
vn 0.363293 -0.391735 0.845317
vn 0.229623 -0.528853 0.817061
vn 0.182768 -0.679230 0.710804
vn 0.363293 -0.391735 0.845317
vn 0.182768 -0.679230 0.710804
vn 0.363293 -0.391735 0.845317
vn 0.979488 0.169915 0.108314
vn 0.959391 0.279028 0.041380
vn 0.948671 0.045184 0.313020
vn -0.683193 -0.544973 -0.486058
vn -0.370718 -0.810403 -0.453669
vn -0.254675 -0.925790 -0.279380
vn -0.683193 -0.544973 -0.486058
vn -0.621620 -0.491237 -0.610143
vn -0.370718 -0.810403 -0.453669
vn -0.028277 -0.949746 -0.311742
vn 0.247568 -0.901739 -0.354368
vn 0.107093 -0.910524 -0.399347
vn 0.948671 0.045184 0.313020
vn 0.912228 -0.105671 0.395821
vn 0.979488 0.169915 0.108314
vn 0.107093 -0.910524 -0.399347
vn 0.247568 -0.901739 -0.354368
vn 0.362587 -0.760853 -0.538176
vn 0.505732 -0.502112 -0.701511
vn 0.505732 -0.502112 -0.701511
vn 0.381803 -0.670969 -0.635631
vn 0.505732 -0.502112 -0.701511
vn 0.381803 -0.670969 -0.635631
vn 0.420905 -0.568898 -0.706537
vn 0.975371 0.217104 -0.038950
vn 0.975371 0.217104 -0.038950
vn 0.959391 0.279028 0.041380
vn 0.975371 0.217104 -0.038950
vn 0.959391 0.279028 0.041380
vn 0.979488 0.169915 0.108314
vn -0.500430 -0.865256 0.030027
vn -0.500430 -0.865256 0.030027
vn -0.500430 -0.865256 0.030027
vn -0.500430 -0.865256 0.030027
vn -0.500430 -0.865256 0.030027
vn -0.500430 -0.865256 0.030027
vn 0.071282 -0.901764 0.426311
vn 0.182768 -0.679230 0.710804
vn 0.081118 -0.791543 0.605706
vn 0.081118 -0.791543 0.605706
vn 0.182768 -0.679230 0.710804
vn 0.229623 -0.528853 0.817061
vn 0.420905 -0.568898 -0.706537
vn 0.381803 -0.670969 -0.635631
vn 0.312007 -0.744214 -0.590590
vn 0.971343 0.127855 0.200365
vn 0.988918 0.026963 0.145993
vn 0.980716 -0.049958 0.188943
vn 0.381803 -0.670969 -0.635631
vn 0.284635 -0.839790 -0.462316
vn 0.312007 -0.744214 -0.590590
vn 0.905431 -0.347175 -0.244260
vn 0.905431 -0.347175 -0.244260
vn 0.905431 -0.347175 -0.244260
vn 0.698067 -0.515584 0.496866
vn 0.698067 -0.515584 0.496866
vn 0.698067 -0.515584 0.496866
vn 0.912228 -0.105671 0.395821
vn 0.948671 0.045184 0.313020
vn 0.825676 -0.152309 0.543196
vn 0.581805 -0.323622 -0.746172
vn 0.581805 -0.323622 -0.746172
vn 0.581805 -0.323622 -0.746172
vn -0.946491 0.140666 -0.290461
vn -0.900947 0.002279 -0.433924
vn -0.891194 0.252994 -0.376519
vn -0.296071 0.478545 0.826642
vn -0.615355 0.277349 0.737846
vn -0.467473 0.317756 0.824925
vn -0.296071 0.478545 0.826642
vn -0.467473 0.317756 0.824925
vn -0.296071 0.478545 0.826642
vn 0.211551 0.920829 0.327598
vn 0.477157 0.878299 0.030206
vn 0.359461 0.927142 0.105809
vn -0.963990 -0.055333 -0.260118
vn -0.880005 -0.187688 -0.436308
vn -0.683193 -0.544973 -0.486058
vn -0.880005 -0.187688 -0.436308
vn -0.621620 -0.491237 -0.610143
vn -0.683193 -0.544973 -0.486058
vn -0.891194 0.252994 -0.376519
vn -0.863214 0.375674 -0.337240
vn -0.946491 0.140666 -0.290461
vn 0.359461 0.927142 0.105809
vn 0.032043 0.911289 0.410519
vn 0.211551 0.920829 0.327598
vn -0.722659 0.455849 -0.519582
vn -0.863214 0.375674 -0.337240
vn -0.891194 0.252994 -0.376519
vn -0.445821 0.563105 -0.695814
vn -0.548437 0.536774 -0.641163
vn -0.366400 0.643197 -0.672346
vn -0.445821 0.563105 -0.695814
vn -0.366400 0.643197 -0.672346
vn -0.366400 0.643197 -0.672346
vn 0.359461 0.927142 0.105809
vn 0.477157 0.878299 0.030206
vn 0.407167 0.910937 -0.066407
vn 0.359461 0.927142 0.105809
vn 0.407167 0.910937 -0.066407
vn 0.407167 0.910937 -0.066407
vn -0.938518 -0.343130 0.038031
vn -0.938518 -0.343130 0.038031
vn -0.938518 -0.343130 0.038031
vn -0.938518 -0.343130 0.038031
vn -0.938518 -0.343130 0.038031
vn -0.938518 -0.343130 0.038031
vn -0.742569 0.159212 0.650571
vn -0.615355 0.277349 0.737846
vn -0.847347 0.173705 0.501826
vn -0.467473 0.317756 0.824925
vn -0.615355 0.277349 0.737846
vn -0.742569 0.159212 0.650571
vn -0.630998 0.473728 -0.614348
vn -0.548437 0.536774 -0.641163
vn -0.445821 0.563105 -0.695814
vn 0.341298 0.938205 -0.057336
vn 0.299883 0.947632 0.109838
vn 0.093193 0.953174 0.287706
vn -0.630998 0.473728 -0.614348
vn -0.729021 0.461670 -0.505360
vn -0.548437 0.536774 -0.641163
vn -0.112556 0.965797 -0.233597
vn -0.112556 0.965797 -0.233597
vn -0.112556 0.965797 -0.233597
vn -0.280064 0.804289 0.524102
vn -0.280064 0.804289 0.524102
vn -0.280064 0.804289 0.524102
vn -0.039229 0.828718 0.558289
vn 0.211551 0.920829 0.327598
vn 0.032043 0.911289 0.410519
vn -0.180957 0.671513 -0.718557
vn -0.180957 0.671513 -0.718557
vn -0.180957 0.671513 -0.718557
vn 0.475436 0.529944 0.702225
vn 0.331483 0.571712 0.750509
vn 0.413375 0.629244 0.658159
vn 0.460920 0.880018 -0.114545
vn 0.365467 0.925498 -0.099434
vn 0.355090 0.932417 0.067156
vn 0.460920 0.880018 -0.114545
vn 0.355090 0.932417 0.067156
vn 0.455796 0.888539 0.052428
vn -0.541580 0.548794 0.636801
vn -0.413375 0.629244 0.658159
vn -0.475436 0.529944 0.702225
vn 0.399475 0.678400 0.616599
vn 0.362676 0.685928 0.630848
vn 0.535641 0.526276 0.660396
vn 0.399475 0.678400 0.616599
vn 0.535641 0.526276 0.660396
vn 0.399475 0.678400 0.616599
vn 0.541580 0.548794 0.636801
vn 0.535641 0.526276 0.660396
vn 0.475436 0.529944 0.702225
vn -0.615555 0.762332 -0.199856
vn -0.822239 0.532958 -0.199698
vn -0.856273 0.516371 0.012540
vn -0.615555 0.762332 -0.199856
vn -0.856273 0.516371 0.012540
vn -0.542624 0.831548 -0.118687
vn 0.720406 0.108178 -0.685064
vn 0.720406 0.108178 -0.685064
vn 0.720406 0.108178 -0.685064
vn 0.714054 0.678256 -0.173482
vn 0.714054 0.678256 -0.173482
vn 0.714054 0.678256 -0.173482
vn 0.714054 0.678256 -0.173482
vn 0.714054 0.678256 -0.173482
vn 0.714054 0.678256 -0.173482
vn 0.980716 -0.049958 0.188943
vn 0.990038 -0.101924 0.097138
vn 0.966135 -0.252068 0.055185
vn 0.693736 -0.696204 -0.184474
vn 0.693736 -0.696204 -0.184474
vn 0.702348 -0.711116 0.031971
vn 0.693736 -0.696204 -0.184474
vn 0.702348 -0.711116 0.031971
vn 0.702348 -0.711116 0.031971
vn 0.358811 -0.395184 0.845627
vn 0.358811 -0.395184 0.845627
vn 0.358811 -0.395184 0.845627
vn 0.455796 0.888539 0.052428
vn 0.474750 0.879510 0.032790
vn 0.444530 0.894089 -0.054748
vn 0.455796 0.888539 0.052428
vn 0.444530 0.894089 -0.054748
vn 0.460920 0.880018 -0.114545
vn 0.444798 -0.414168 0.794116
vn 0.444798 -0.414168 0.794116
vn 0.444798 -0.414168 0.794116
vn 0.886247 0.390066 0.249829
vn 0.886247 0.390066 0.249829
vn 0.886247 0.390066 0.249829
vn -0.814916 -0.442132 0.374743
vn -0.640894 -0.541987 0.543603
vn -0.682031 -0.534155 0.499512
vn -0.449222 0.649300 0.613684
vn -0.449222 0.649300 0.613684
vn -0.449222 0.649300 0.613684
vn -0.334121 0.033194 0.941946
vn -0.334121 0.033194 0.941946
vn -0.334121 0.033194 0.941946
vn 0.693736 -0.696204 -0.184474
vn 0.693736 -0.696204 -0.184474
vn 0.668658 -0.658187 -0.345956
vn 0.693736 -0.696204 -0.184474
vn 0.668658 -0.658187 -0.345956
vn 0.668658 -0.658187 -0.345956
vn 0.691732 0.547610 -0.470776
vn 0.749819 0.478611 -0.456841
vn 0.822647 0.533242 -0.197243
vn -0.109197 -0.994020 0.000000
vn -0.126393 -0.991954 0.007160
vn -0.117470 -0.993063 0.005181
vn 0.202103 0.506045 0.838494
vn 0.263211 0.542172 0.797978
vn 0.434681 0.383655 0.814777
vn -0.661727 -0.501260 0.557545
vn -0.662303 -0.497806 0.559950
vn -0.789890 -0.212277 0.575337
vn 0.668658 -0.658187 -0.345956
vn 0.668658 -0.658187 -0.345956
vn 0.683227 -0.666260 -0.298827
vn 0.896511 0.435702 0.080202
vn 0.856273 0.516371 0.012540
vn 0.945855 0.314096 0.081864
vn 0.555609 0.718485 -0.418423
vn 0.397630 0.829044 -0.393162
vn 0.435057 0.881230 -0.184824
vn 0.555609 0.718485 -0.418423
vn 0.435057 0.881230 -0.184824
vn 0.615554 0.762333 -0.199855
vn 0.615554 0.762333 -0.199855
vn 0.435057 0.881230 -0.184824
vn 0.422798 0.890451 -0.168342
vn 0.615554 0.762333 -0.199855
vn 0.422798 0.890451 -0.168342
vn 0.542623 0.831549 -0.118687
vn 0.341298 0.938205 -0.057336
vn 0.542623 0.831549 -0.118687
vn 0.422798 0.890451 -0.168342
vn 0.422798 0.890451 -0.168342
vn 0.365467 0.925498 -0.099434
vn 0.460920 0.880018 -0.114545
vn 0.413375 0.629244 0.658159
vn 0.265548 0.769183 0.581242
vn 0.541580 0.548794 0.636801
vn 0.822647 0.533242 -0.197243
vn 0.822239 0.532958 -0.199698
vn 0.856273 0.516371 0.012540
vn 0.822647 0.533242 -0.197243
vn 0.856273 0.516371 0.012540
vn 0.896511 0.435702 0.080202
vn 0.749819 0.478611 -0.456841
vn 0.751138 0.495842 -0.435812
vn 0.822239 0.532958 -0.199698
vn 0.749819 0.478611 -0.456841
vn 0.822239 0.532958 -0.199698
vn 0.822647 0.533242 -0.197243
vn 0.751138 0.495842 -0.435812
vn 0.555609 0.718485 -0.418423
vn 0.615554 0.762333 -0.199855
vn 0.751138 0.495842 -0.435812
vn 0.615554 0.762333 -0.199855
vn 0.822239 0.532958 -0.199698
vn 0.542623 0.831549 -0.118687
vn 0.856273 0.516371 0.012540
vn 0.822239 0.532958 -0.199698
vn 0.542623 0.831549 -0.118687
vn 0.822239 0.532958 -0.199698
vn 0.615554 0.762333 -0.199855
vn 0.900489 0.207649 0.382102
vn 0.900489 0.207649 0.382102
vn 0.883285 0.201271 0.423436
vn 0.299883 0.947632 0.109838
vn 0.341298 0.938205 -0.057336
vn 0.444530 0.894089 -0.054748
vn -0.364260 -0.931236 0.010681
vn -0.220352 -0.970501 0.097844
vn -0.220123 -0.975055 0.028536
vn 0.331483 0.571712 0.750509
vn 0.475436 0.529944 0.702225
vn 0.535641 0.526276 0.660396
vn 0.331483 0.571712 0.750509
vn 0.535641 0.526276 0.660396
vn 0.362676 0.685928 0.630848
vn -0.541580 0.548794 0.636801
vn -0.535641 0.526276 0.660396
vn -0.644541 0.404229 0.648973
vn 0.000000 -0.985816 0.167828
vn -0.220352 -0.970501 0.097844
vn -0.142581 -0.965753 0.216775
vn 0.142581 -0.965753 0.216775
vn 0.220352 -0.970501 0.097844
vn 0.000000 -0.985816 0.167828
vn -0.362676 0.685928 0.630848
vn -0.535641 0.526276 0.660396
vn -0.475436 0.529944 0.702225
vn -0.362676 0.685928 0.630848
vn -0.475436 0.529944 0.702225
vn -0.331483 0.571713 0.750509
vn 0.644541 0.404229 0.648973
vn 0.535641 0.526276 0.660396
vn 0.541580 0.548794 0.636801
vn 0.922655 -0.379905 0.066178
vn 0.922655 -0.379905 0.066178
vn 0.922655 -0.379905 0.066178
vn 0.922655 -0.379905 0.066178
vn 0.922655 -0.379905 0.066178
vn 0.922655 -0.379905 0.066178
vn -0.780503 0.619212 0.085972
vn -0.896511 0.435702 0.080202
vn -0.822647 0.533242 -0.197243
vn -0.422800 0.890450 -0.168342
vn -0.444530 0.894089 -0.054747
vn -0.460920 0.880018 -0.114544
vn -0.422800 0.890450 -0.168342
vn -0.341299 0.938205 -0.057336
vn -0.444530 0.894089 -0.054747
vn -0.202103 0.506045 0.838494
vn -0.079199 0.554565 0.828363
vn -0.079357 0.426058 0.901209
vn -0.202103 0.506045 0.838494
vn -0.263211 0.542172 0.797978
vn -0.079199 0.554565 0.828363
vn -0.372872 -0.333696 -0.865802
vn -0.372872 -0.333696 -0.865802
vn -0.372872 -0.333696 -0.865802
vn 0.126393 -0.991954 0.007160
vn 0.117471 -0.993063 0.005181
vn 0.000000 -0.999945 0.010445
vn 0.126393 -0.991954 0.007160
vn 0.000000 -0.999945 0.010445
vn 0.000000 -0.999941 0.010838
vn -0.896511 0.435702 0.080202
vn -0.965712 0.140343 0.218412
vn -0.945855 0.314096 0.081864
vn -0.754761 0.414830 -0.508185
vn -0.754761 0.414830 -0.508185
vn -0.638154 0.460231 -0.617208
vn -0.542624 0.831548 -0.118687
vn -0.434265 0.861392 -0.263473
vn -0.341299 0.938205 -0.057336
vn -0.754761 0.414830 -0.508185
vn -0.850579 0.358002 -0.385163
vn -0.754761 0.414830 -0.508185
vn -0.299883 0.947632 0.109838
vn -0.474750 0.879510 0.032790
vn -0.444530 0.894089 -0.054747
vn -0.990038 -0.101924 0.097137
vn -0.997202 -0.025151 -0.070396
vn -0.988918 0.026964 0.145993
vn -0.705534 0.622714 0.338304
vn -0.705534 0.622714 0.338304
vn -0.705534 0.622714 0.338304
vn -0.980716 -0.049958 0.188943
vn -0.990038 -0.101924 0.097137
vn -0.988918 0.026964 0.145993
vn 0.028277 -0.949746 -0.311742
vn 0.171161 -0.870565 -0.461324
vn -0.107093 -0.910524 -0.399347
vn -0.363293 -0.391735 0.845317
vn -0.182768 -0.679230 0.710804
vn -0.229623 -0.528853 0.817061
vn -0.363293 -0.391735 0.845317
vn -0.229623 -0.528853 0.817061
vn -0.363293 -0.391735 0.845317
vn -0.948671 0.045184 0.313020
vn -0.959391 0.279029 0.041379
vn -0.979488 0.169916 0.108314
vn 0.254675 -0.925790 -0.279380
vn 0.370718 -0.810403 -0.453669
vn 0.683193 -0.544973 -0.486058
vn 0.370718 -0.810403 -0.453669
vn 0.621619 -0.491237 -0.610144
vn 0.683193 -0.544973 -0.486058
vn -0.107093 -0.910524 -0.399347
vn -0.247568 -0.901739 -0.354368
vn 0.028277 -0.949746 -0.311742
vn -0.979488 0.169916 0.108314
vn -0.912228 -0.105672 0.395821
vn -0.948671 0.045184 0.313020
vn -0.362587 -0.760853 -0.538176
vn -0.247568 -0.901739 -0.354368
vn -0.107093 -0.910524 -0.399347
vn -0.420905 -0.568898 -0.706537
vn -0.381803 -0.670969 -0.635631
vn -0.505732 -0.502112 -0.701511
vn -0.420905 -0.568898 -0.706537
vn -0.505732 -0.502112 -0.701511
vn -0.505732 -0.502112 -0.701511
vn -0.979488 0.169916 0.108314
vn -0.959391 0.279029 0.041379
vn -0.975371 0.217105 -0.038950
vn -0.979488 0.169916 0.108314
vn -0.975371 0.217105 -0.038950
vn -0.975371 0.217105 -0.038950
vn 0.500430 -0.865256 0.030027
vn 0.500430 -0.865256 0.030027
vn 0.500430 -0.865256 0.030027
vn 0.500430 -0.865256 0.030027
vn 0.500430 -0.865256 0.030027
vn 0.500430 -0.865256 0.030027
vn -0.081118 -0.791543 0.605706
vn -0.182768 -0.679230 0.710804
vn -0.071282 -0.901764 0.426311
vn -0.229623 -0.528853 0.817061
vn -0.182768 -0.679230 0.710804
vn -0.081118 -0.791543 0.605706
vn -0.312007 -0.744214 -0.590590
vn -0.381803 -0.670969 -0.635631
vn -0.420905 -0.568898 -0.706537
vn -0.980716 -0.049958 0.188943
vn -0.988918 0.026964 0.145993
vn -0.971343 0.127855 0.200365
vn -0.312007 -0.744214 -0.590590
vn -0.284635 -0.839790 -0.462316
vn -0.381803 -0.670969 -0.635631
vn -0.905431 -0.347175 -0.244260
vn -0.905431 -0.347175 -0.244260
vn -0.905431 -0.347175 -0.244260
vn -0.698067 -0.515584 0.496866
vn -0.698067 -0.515584 0.496866
vn -0.698067 -0.515584 0.496866
vn -0.825676 -0.152310 0.543195
vn -0.948671 0.045184 0.313020
vn -0.912228 -0.105672 0.395821
vn -0.581805 -0.323622 -0.746172
vn -0.581805 -0.323622 -0.746172
vn -0.581805 -0.323622 -0.746172
vn 0.891195 0.252994 -0.376519
vn 0.900947 0.002281 -0.433923
vn 0.946491 0.140667 -0.290460
vn 0.296070 0.478545 0.826642
vn 0.467473 0.317756 0.824925
vn 0.615355 0.277349 0.737846
vn 0.296070 0.478545 0.826642
vn 0.615355 0.277349 0.737846
vn 0.296070 0.478545 0.826642
vn -0.359461 0.927142 0.105809
vn -0.477157 0.878299 0.030206
vn -0.211552 0.920829 0.327598
vn 0.683193 -0.544973 -0.486058
vn 0.880004 -0.187688 -0.436309
vn 0.963990 -0.055332 -0.260117
vn 0.683193 -0.544973 -0.486058
vn 0.621619 -0.491237 -0.610144
vn 0.880004 -0.187688 -0.436309
vn 0.946491 0.140667 -0.290460
vn 0.863214 0.375674 -0.337239
vn 0.891195 0.252994 -0.376519
vn -0.211552 0.920829 0.327598
vn -0.032044 0.911289 0.410519
vn -0.359461 0.927142 0.105809
vn 0.891195 0.252994 -0.376519
vn 0.863214 0.375674 -0.337239
vn 0.722660 0.455848 -0.519582
vn 0.366400 0.643197 -0.672346
vn 0.366400 0.643197 -0.672346
vn 0.548438 0.536774 -0.641163
vn 0.366400 0.643197 -0.672346
vn 0.548438 0.536774 -0.641163
vn 0.445821 0.563105 -0.695814
vn -0.407167 0.910937 -0.066407
vn -0.407167 0.910937 -0.066407
vn -0.477157 0.878299 0.030206
vn -0.407167 0.910937 -0.066407
vn -0.477157 0.878299 0.030206
vn -0.359461 0.927142 0.105809
vn 0.938517 -0.343131 0.038031
vn 0.938517 -0.343131 0.038031
vn 0.938517 -0.343131 0.038031
vn 0.938517 -0.343131 0.038031
vn 0.938517 -0.343131 0.038031
vn 0.938517 -0.343131 0.038031
vn 0.847347 0.173705 0.501826
vn 0.615355 0.277349 0.737846
vn 0.742569 0.159212 0.650571
vn 0.742569 0.159212 0.650571
vn 0.615355 0.277349 0.737846
vn 0.467473 0.317756 0.824925
vn 0.445821 0.563105 -0.695814
vn 0.548438 0.536774 -0.641163
vn 0.630998 0.473728 -0.614348
vn -0.093193 0.953174 0.287706
vn -0.299883 0.947632 0.109838
vn -0.341299 0.938205 -0.057336
vn 0.548438 0.536774 -0.641163
vn 0.729021 0.461670 -0.505360
vn 0.630998 0.473728 -0.614348
vn 0.112556 0.965797 -0.233597
vn 0.112556 0.965797 -0.233597
vn 0.112556 0.965797 -0.233597
vn 0.280064 0.804289 0.524102
vn 0.280064 0.804289 0.524102
vn 0.280064 0.804289 0.524102
vn -0.032044 0.911289 0.410519
vn -0.211552 0.920829 0.327598
vn 0.039228 0.828718 0.558290
vn 0.180957 0.671513 -0.718557
vn 0.180957 0.671513 -0.718557
vn 0.180957 0.671513 -0.718557
vn -0.413375 0.629244 0.658159
vn -0.331483 0.571713 0.750509
vn -0.475436 0.529944 0.702225
vn -0.455796 0.888539 0.052428
vn -0.355090 0.932417 0.067156
vn -0.365468 0.925498 -0.099433
vn -0.455796 0.888539 0.052428
vn -0.365468 0.925498 -0.099433
vn -0.460920 0.880018 -0.114544
vn -0.399475 0.678400 0.616598
vn -0.387927 0.590321 0.707838
vn -0.399475 0.678400 0.616598
vn 0.220123 -0.975055 0.028536
vn 0.220352 -0.970501 0.097844
vn 0.364260 -0.931236 0.010681
vn -0.444530 0.894089 -0.054747
vn -0.341299 0.938205 -0.057336
vn -0.299883 0.947632 0.109838
vn -0.720406 0.108178 -0.685064
vn -0.720406 0.108178 -0.685064
vn -0.720406 0.108178 -0.685064
vn -0.714054 0.678256 -0.173482
vn -0.714054 0.678256 -0.173482
vn -0.714054 0.678256 -0.173482
vn -0.714054 0.678256 -0.173482
vn -0.714054 0.678256 -0.173482
vn -0.714054 0.678256 -0.173482
vn -0.809825 0.057508 0.583847
vn -0.900489 0.207649 0.382102
vn -0.900489 0.207649 0.382102
vn -0.809825 0.057508 0.583847
vn -0.900489 0.207649 0.382102
vn -0.789890 -0.212277 0.575337
vn -0.966135 -0.252068 0.055185
vn -0.990038 -0.101924 0.097137
vn -0.980716 -0.049958 0.188943
vn -0.702348 -0.711116 0.031971
vn -0.702348 -0.711116 0.031971
vn -0.693736 -0.696204 -0.184474
vn -0.702348 -0.711116 0.031971
vn -0.693736 -0.696204 -0.184474
vn -0.693736 -0.696204 -0.184474
vn -0.358811 -0.395184 0.845627
vn -0.358811 -0.395184 0.845627
vn -0.358811 -0.395184 0.845627
vn -0.460920 0.880018 -0.114544
vn -0.444530 0.894089 -0.054747
vn -0.474750 0.879510 0.032790
vn -0.460920 0.880018 -0.114544
vn -0.474750 0.879510 0.032790
vn -0.455796 0.888539 0.052428
vn 0.640894 -0.541987 0.543603
vn 0.682031 -0.534155 0.499513
vn 0.537370 -0.578015 0.614111
vn -0.886247 0.390066 0.249828
vn -0.886247 0.390066 0.249828
vn -0.886247 0.390066 0.249828
vn 0.682031 -0.534155 0.499513
vn 0.640894 -0.541987 0.543603
vn 0.814916 -0.442131 0.374743
vn 0.449222 0.649300 0.613684
vn 0.449222 0.649300 0.613684
vn 0.449222 0.649300 0.613684
vn 0.334120 0.033194 0.941946
vn 0.334120 0.033194 0.941946
vn 0.334120 0.033194 0.941946
vn -0.668658 -0.658187 -0.345956
vn -0.668658 -0.658187 -0.345956
vn -0.693736 -0.696204 -0.184474
vn -0.668658 -0.658187 -0.345956
vn -0.693736 -0.696204 -0.184474
vn -0.693736 -0.696204 -0.184474
vn -0.822647 0.533242 -0.197243
vn -0.749819 0.478611 -0.456841
vn -0.691732 0.547610 -0.470776
vn 0.117471 -0.993063 0.005181
vn 0.126393 -0.991954 0.007160
vn 0.109197 -0.994020 0.000000
vn -0.434682 0.383655 0.814776
vn -0.263211 0.542172 0.797978
vn -0.202103 0.506045 0.838494
vn -0.883285 0.201271 0.423436
vn -0.900489 0.207649 0.382102
vn -0.900489 0.207649 0.382102
vn -0.683227 -0.666260 -0.298827
vn -0.668658 -0.658187 -0.345956
vn -0.668658 -0.658187 -0.345956
vn -0.945855 0.314096 0.081864
vn -0.856273 0.516371 0.012540
vn -0.896511 0.435702 0.080202
vn -0.615555 0.762332 -0.199856
vn -0.435059 0.881228 -0.184825
vn -0.397631 0.829043 -0.393163
vn -0.615555 0.762332 -0.199856
vn -0.397631 0.829043 -0.393163
vn -0.555610 0.718484 -0.418424
vn -0.542624 0.831548 -0.118687
vn -0.422800 0.890450 -0.168342
vn -0.435059 0.881228 -0.184825
vn -0.542624 0.831548 -0.118687
vn -0.435059 0.881228 -0.184825
vn -0.615555 0.762332 -0.199856
vn -0.422800 0.890450 -0.168342
vn -0.542624 0.831548 -0.118687
vn -0.341299 0.938205 -0.057336
vn -0.460920 0.880018 -0.114544
vn -0.365468 0.925498 -0.099433
vn -0.422800 0.890450 -0.168342
vn -0.541580 0.548794 0.636801
vn -0.265548 0.769183 0.581242
vn -0.413375 0.629244 0.658159
vn -0.896511 0.435702 0.080202
vn -0.856273 0.516371 0.012540
vn -0.822239 0.532958 -0.199698
vn -0.896511 0.435702 0.080202
vn -0.822239 0.532958 -0.199698
vn -0.822647 0.533242 -0.197243
vn -0.822647 0.533242 -0.197243
vn -0.822239 0.532958 -0.199698
vn -0.751138 0.495842 -0.435812
vn -0.822647 0.533242 -0.197243
vn -0.751138 0.495842 -0.435812
vn -0.749819 0.478611 -0.456841
vn -0.822239 0.532958 -0.199698
vn -0.615555 0.762332 -0.199856
vn -0.555610 0.718484 -0.418424
vn -0.822239 0.532958 -0.199698
vn -0.555610 0.718484 -0.418424
vn -0.751138 0.495842 -0.435812
vn -0.444797 -0.414168 0.794116
vn -0.444797 -0.414168 0.794116
vn -0.444797 -0.414168 0.794116
vn 0.553460 -0.551509 0.624115
vn 0.640894 -0.541987 0.543603
vn 0.537370 -0.578015 0.614111
vn -0.537370 -0.578015 0.614111
vn -0.682031 -0.534155 0.499512
vn -0.640894 -0.541987 0.543603
vn -0.640894 -0.541987 0.543603
vn -0.553461 -0.551509 0.624114
vn -0.537370 -0.578015 0.614111
vn 0.789890 -0.212277 0.575337
vn 0.900489 0.207649 0.382102
vn 0.900489 0.207649 0.382102
vn 0.789890 -0.212277 0.575337
vn 0.900489 0.207649 0.382102
vn 0.809825 0.057508 0.583847
vn 0.399475 0.678400 0.616599
vn 0.387927 0.590321 0.707838
vn 0.399475 0.678400 0.616599
vn -0.399475 0.678400 0.616598
vn -0.535641 0.526276 0.660396
vn -0.362676 0.685928 0.630848
vn -0.399475 0.678400 0.616598
vn -0.362676 0.685928 0.630848
vn -0.399475 0.678400 0.616598
vn 0.789890 -0.212277 0.575337
vn 0.662304 -0.497805 0.559950
vn 0.661727 -0.501260 0.557545
vn -0.922655 -0.379905 0.066178
vn -0.922655 -0.379905 0.066178
vn -0.922655 -0.379905 0.066178
vn -0.922655 -0.379905 0.066178
vn -0.922655 -0.379905 0.066178
vn -0.922655 -0.379905 0.066178
vn 0.789890 -0.212277 0.575337
vn 0.809825 0.057508 0.583847
vn 0.727172 -0.028543 0.685862
vn 0.789890 -0.212277 0.575337
vn 0.727172 -0.028543 0.685862
vn 0.721665 -0.187724 0.666303
vn -0.721665 -0.187724 0.666303
vn -0.727172 -0.028543 0.685862
vn -0.809825 0.057508 0.583847
vn -0.721665 -0.187724 0.666303
vn -0.809825 0.057508 0.583847
vn -0.789890 -0.212277 0.575337
vn -0.721665 -0.187724 0.666303
vn -0.725237 -0.040446 0.687310
vn -0.727172 -0.028543 0.685862
vn 0.727172 -0.028543 0.685862
vn 0.725237 -0.040446 0.687310
vn 0.721665 -0.187724 0.666303
vn 0.809825 0.057508 0.583847
vn 0.737462 -0.031970 0.674631
vn 0.727172 -0.028543 0.685862
vn 0.721665 -0.187724 0.666303
vn 0.662304 -0.497805 0.559950
vn 0.789890 -0.212277 0.575337
vn -0.727172 -0.028543 0.685862
vn -0.737462 -0.031970 0.674632
vn -0.809825 0.057508 0.583847
vn -0.789890 -0.212277 0.575337
vn -0.662303 -0.497806 0.559950
vn -0.721665 -0.187724 0.666303
vn 0.444798 -0.414168 0.794116
vn 0.444798 -0.414168 0.794116
vn 0.444798 -0.414168 0.794116
vn -0.142581 -0.965753 0.216775
vn 0.000000 -0.975722 0.219013
vn 0.000000 -0.985816 0.167828
vn 0.000000 -0.985816 0.167828
vn 0.000000 -0.975722 0.219013
vn 0.142581 -0.965753 0.216775
vn -0.444797 -0.414168 0.794116
vn -0.444797 -0.414168 0.794116
vn -0.444797 -0.414168 0.794116
vn 0.649663 0.379451 0.658753
vn 0.535641 0.526276 0.660396
vn 0.644541 0.404229 0.648973
vn -0.644541 0.404229 0.648973
vn -0.535641 0.526276 0.660396
vn -0.649663 0.379450 0.658753
vn -0.475436 0.529944 0.702225
vn -0.535641 0.526276 0.660396
vn -0.541580 0.548794 0.636801
vn 0.475436 0.529944 0.702225
vn 0.413375 0.629244 0.658159
vn 0.541580 0.548794 0.636801
vn 0.000000 -0.999292 0.037624
vn 0.000000 -0.985816 0.167828
vn 0.220352 -0.970501 0.097844
vn 0.000000 -0.999292 0.037624
vn 0.220352 -0.970501 0.097844
vn 0.220123 -0.975055 0.028536
vn -0.220123 -0.975055 0.028536
vn -0.220352 -0.970501 0.097844
vn 0.000000 -0.985816 0.167828
vn -0.220123 -0.975055 0.028536
vn 0.000000 -0.985816 0.167828
vn 0.000000 -0.999292 0.037624
vn -0.126393 -0.991954 0.007160
vn -0.220123 -0.975055 0.028536
vn 0.000000 -0.999292 0.037624
vn -0.126393 -0.991954 0.007160
vn 0.000000 -0.999292 0.037624
vn 0.000000 -0.999941 0.010838
vn 0.000000 -0.999941 0.010838
vn 0.000000 -0.999292 0.037624
vn 0.220123 -0.975055 0.028536
vn 0.000000 -0.999941 0.010838
vn 0.220123 -0.975055 0.028536
vn 0.126393 -0.991954 0.007160
f 43/1/1 42/2/2 40/3/3
f 51/4/4 25/5/5 4/6/6
f 25/7/7 3/8/8 4/9/9
f 49/10/10 32/11/11 15/12/12
f 32/13/13 16/14/14 15/15/15
f 36/16/16 44/17/17 40/18/18
f 149/19/19 9/20/20 36/21/21
f 149/22/22 36/23/23 34/24/24
f 17/25/25 41/26/26 42/27/27
f 26/28/28 69/29/29 18/30/30
f 3/31/31 69/32/32 26/33/33
f 69/34/34 22/35/35 18/36/36
f 25/37/37 24/38/38 53/39/39
f 53/40/40 16/41/41 17/42/42
f 53/43/43 24/44/44 16/45/45
f 53/46/46 17/47/47 22/48/48
f 14/49/49 60/50/50 62/51/51
f 22/52/52 45/53/53 55/54/54
f 22/55/55 55/56/56 54/57/57
f 30/58/58 63/59/59 61/60/60
f 58/61/61 30/62/62 14/63/63
f 58/64/64 57/65/65 30/66/66
f 62/67/67 59/68/68 14/69/69
f 61/70/70 14/71/71 30/72/72
f 14/73/73 59/74/74 58/75/75
f 22/76/76 69/77/77 68/78/78
f 22/79/79 68/80/80 45/81/81
f 12/82/82 64/83/83 63/84/84
f 12/85/85 63/86/86 30/87/87
f 30/88/88 57/89/89 56/90/90
f 30/91/91 56/92/92 12/93/93
f 56/94/94 55/95/95 12/96/96
f 12/97/97 55/98/98 45/99/99
f 45/100/100 68/101/101 12/102/102
f 54/103/103 53/104/104 22/105/105
f 68/106/106 67/107/107 12/108/108
f 12/109/109 66/110/110 65/111/111
f 65/112/112 64/113/113 12/114/114
f 14/115/115 61/116/116 60/117/117
f 12/118/118 67/119/119 66/120/120
f 62/121/121 60/122/122 35/123/123
f 54/124/124 55/125/125 71/126/126
f 54/127/127 71/128/128 3/129/129
f 61/130/130 63/131/131 72/132/132
f 35/133/133 72/134/134 58/135/135
f 72/136/136 57/137/137 58/138/138
f 35/139/139 59/140/140 62/141/141
f 72/142/142 35/143/143 61/144/144
f 58/145/145 59/146/146 35/147/147
f 71/148/148 68/149/149 69/150/150
f 71/151/151 69/152/152 3/153/153
f 72/154/154 63/155/155 64/156/156
f 72/157/157 64/158/158 70/159/159
f 70/160/160 56/161/161 57/162/162
f 70/163/163 57/164/164 72/165/165
f 70/166/166 55/167/167 56/168/168
f 71/169/169 55/170/170 70/171/171
f 70/172/172 68/173/173 71/174/174
f 3/175/175 53/176/176 54/177/177
f 70/178/178 67/179/179 68/180/180
f 65/181/181 66/182/182 70/183/183
f 70/184/184 64/185/185 65/186/186
f 60/187/187 61/188/188 35/189/189
f 66/190/190 67/191/191 70/192/192
f 13/193/193 24/194/194 52/195/195
f 51/196/196 7/197/197 2/198/198
f 51/199/199 2/200/200 52/201/201
f 1/202/202 114/203/203 75/204/204
f 133/205/205 50/206/206 23/207/207
f 133/208/208 23/209/209 136/210/210
f 1/211/211 23/212/212 13/213/213
f 89/214/214 81/215/215 80/216/216
f 89/217/217 80/218/218 88/219/219
f 47/220/220 41/221/221 17/222/222
f 17/223/223 16/224/224 32/225/225
f 17/226/226 32/227/227 47/228/228
f 22/229/229 17/230/230 18/231/231
f 41/232/232 33/233/233 34/234/234
f 41/235/235 34/236/236 42/237/237
f 42/238/238 34/239/239 40/240/240
f 52/241/241 24/242/242 25/243/243
f 52/244/244 25/245/245 51/246/246
f 38/247/247 8/248/248 146/249/249
f 46/250/250 47/251/251 32/252/252
f 46/253/253 49/254/254 48/255/255
f 49/256/256 46/257/257 32/258/258
f 38/259/259 49/260/260 15/261/261
f 33/262/262 41/263/263 47/264/264
f 33/265/265 47/266/266 48/267/267
f 40/268/268 44/269/269 43/270/270
f 40/271/271 34/272/272 36/273/273
f 15/274/274 16/275/275 24/276/276
f 137/277/277 99/278/278 131/279/279
f 48/280/280 47/281/281 46/282/282
f 42/283/283 18/284/284 17/285/285
f 28/286/286 6/287/287 5/288/288
f 28/289/289 5/290/290 27/291/291
f 27/292/292 5/293/293 4/294/294
f 27/295/295 4/296/296 26/297/297
f 3/298/298 26/299/299 4/300/300
f 4/301/301 7/302/302 51/303/303
f 52/304/304 2/305/305 1/306/306
f 43/307/307 19/308/308 18/309/309
f 43/310/310 18/311/311 42/312/312
f 44/313/313 20/314/314 19/315/315
f 44/316/316 19/317/317 43/318/318
f 20/319/319 28/320/320 27/321/321
f 20/322/322 27/323/323 19/324/324
f 26/325/325 18/326/326 19/327/327
f 26/328/328 19/329/329 27/330/330
f 50/331/331 15/332/332 24/333/333
f 53/334/334 3/335/335 25/336/336
f 48/337/337 31/338/338 33/339/339
f 24/340/340 13/341/341 23/342/342
f 24/343/343 23/344/344 50/345/345
f 1/346/346 85/347/347 10/348/348
f 11/349/349 31/350/350 146/351/351
f 145/352/352 93/353/353 11/354/354
f 112/355/355 85/356/356 75/357/357
f 112/358/358 75/359/359 86/360/360
f 10/361/361 23/362/362 1/363/363
f 138/364/364 38/365/365 15/366/366
f 138/367/367 15/368/368 134/369/369
f 102/370/370 104/371/371 105/372/372
f 4/373/373 87/374/374 113/375/375
f 4/376/376 73/377/377 87/378/378
f 77/379/379 94/380/380 111/381/381
f 77/382/382 78/383/383 94/384/384
f 102/385/385 106/386/386 98/387/387
f 96/388/388 98/389/389 9/390/390
f 96/391/391 9/392/392 149/393/393
f 104/394/394 103/395/395 79/396/396
f 80/397/397 39/398/398 88/399/399
f 88/400/400 39/401/401 73/402/402
f 80/403/403 84/404/404 39/405/405
f 115/406/406 86/407/407 87/408/408
f 79/409/409 78/410/410 115/411/411
f 78/412/412 86/413/413 115/414/414
f 84/415/415 79/416/416 115/417/417
f 124/418/418 122/419/419 76/420/420
f 116/421/421 117/422/422 107/423/423
f 116/424/424 107/425/425 84/426/426
f 123/427/427 125/428/428 92/429/429
f 76/430/430 92/431/431 120/432/432
f 92/433/433 119/434/434 120/435/435
f 76/436/436 121/437/437 124/438/438
f 92/439/439 76/440/440 123/441/441
f 120/442/442 121/443/443 76/444/444
f 107/445/445 130/446/446 39/447/447
f 107/448/448 39/449/449 84/450/450
f 92/451/451 125/452/452 126/453/453
f 92/454/454 126/455/455 74/456/456
f 74/457/457 118/458/458 119/459/459
f 74/460/460 119/461/461 92/462/462
f 74/463/463 117/464/464 118/465/465
f 107/466/466 117/467/467 74/468/468
f 74/469/469 130/470/470 107/471/471
f 84/472/472 115/473/473 116/474/474
f 74/475/475 129/476/476 130/477/477
f 127/478/478 128/479/479 74/480/480
f 74/481/481 126/482/482 127/483/483
f 122/484/484 123/485/485 76/486/486
f 128/487/487 129/488/488 74/489/489
f 97/490/490 122/491/491 124/492/492
f 73/493/493 91/494/494 117/495/495
f 73/496/496 117/497/497 116/498/498
f 29/499/499 125/500/500 123/501/501
f 120/502/502 29/503/503 97/504/504
f 120/505/505 119/506/506 29/507/507
f 124/508/508 121/509/509 97/510/510
f 123/511/511 97/512/512 29/513/513
f 97/514/514 121/515/515 120/516/516
f 73/517/517 39/518/518 130/519/519
f 73/520/520 130/521/521 91/522/522
f 101/523/523 126/524/524 125/525/525
f 101/526/526 125/527/527 29/528/528
f 29/529/529 119/530/530 118/531/531
f 29/532/532 118/533/533 101/534/534
f 118/535/535 117/536/536 101/537/537
f 101/538/538 117/539/539 91/540/540
f 91/541/541 130/542/542 101/543/543
f 116/544/544 115/545/545 73/546/546
f 130/547/547 129/548/548 101/549/549
f 101/550/550 128/551/551 127/552/552
f 127/553/553 126/554/554 101/555/555
f 97/556/556 123/557/557 122/558/558
f 101/559/559 129/560/560 128/561/561
f 114/562/562 86/563/563 75/564/564
f 114/565/565 2/566/566 7/567/567
f 114/568/568 7/569/569 113/570/570
f 132/571/571 83/572/572 135/573/573
f 95/574/574 93/575/575 110/576/576
f 87/577/577 73/578/578 115/579/579
f 79/580/580 103/581/581 109/582/582
f 109/583/583 94/584/584 78/585/585
f 109/586/586 78/587/587 79/588/588
f 132/589/589 112/590/590 77/591/591
f 132/592/592 77/593/593 131/594/594
f 80/595/595 79/596/596 84/597/597
f 104/598/598 96/599/599 95/600/600
f 104/601/601 95/602/602 103/603/603
f 102/604/604 96/605/605 104/606/606
f 113/607/607 87/608/608 86/609/609
f 113/610/610 86/611/611 114/612/612
f 111/613/613 110/614/614 93/615/615
f 94/616/616 109/617/617 108/618/618
f 110/619/619 111/620/620 108/621/621
f 94/622/622 108/623/623 111/624/624
f 77/625/625 111/626/626 100/627/627
f 110/628/628 109/629/629 103/630/630
f 110/631/631 103/632/632 95/633/633
f 105/634/634 106/635/635 102/636/636
f 98/637/637 96/638/638 102/639/639
f 86/640/640 78/641/641 77/642/642
f 86/643/643 77/644/644 112/645/645
f 108/646/646 109/647/647 110/648/648
f 79/649/649 80/650/650 104/651/651
f 89/652/652 5/653/653 6/654/654
f 89/655/655 6/656/656 90/657/657
f 88/658/658 4/659/659 5/660/660
f 88/661/661 5/662/662 89/663/663
f 4/664/664 88/665/665 73/666/666
f 113/667/667 7/668/668 4/669/669
f 1/670/670 2/671/671 114/672/672
f 104/673/673 80/674/674 81/675/675
f 104/676/676 81/677/677 105/678/678
f 105/679/679 81/680/680 82/681/681
f 105/682/682 82/683/683 106/684/684
f 81/685/685 89/686/686 90/687/687
f 81/688/688 90/689/689 82/690/690
f 145/691/691 8/692/692 100/693/693
f 100/694/694 111/695/695 93/696/696
f 31/697/697 48/698/698 49/699/699
f 49/700/700 38/701/701 31/702/702
f 134/703/703 15/704/704 50/705/705
f 134/706/706 50/707/707 133/708/708
f 136/709/709 21/710/710 133/711/711
f 135/712/712 85/713/713 112/714/714
f 135/715/715 112/716/716 132/717/717
f 134/718/718 37/719/719 138/720/720
f 131/721/721 77/722/722 100/723/723
f 131/724/724 100/725/725 137/726/726
f 134/727/727 133/728/728 144/729/729
f 134/730/730 144/731/731 141/732/732
f 142/733/733 143/734/734 132/735/735
f 142/736/736 132/737/737 131/738/738
f 142/739/739 140/740/740 143/741/741
f 144/742/742 139/743/743 141/744/744
f 133/745/745 21/746/746 144/747/747
f 141/748/748 37/749/749 134/750/750
f 143/751/751 83/752/752 132/753/753
f 131/754/754 99/755/755 142/756/756
f 146/757/757 31/758/758 38/759/759
f 146/760/760 8/761/761 11/762/762
f 11/763/763 8/764/764 145/765/765
f 100/766/766 93/767/767 145/768/768
f 147/769/769 23/770/770 10/771/771
f 10/772/772 85/773/773 147/774/774
f 75/775/775 85/776/776 1/777/777
f 13/778/778 52/779/779 1/780/780
f 148/781/781 11/782/782 93/783/783
f 148/784/784 93/785/785 95/786/786
f 33/787/787 31/788/788 11/789/789
f 33/790/790 11/791/791 148/792/792
f 34/793/793 33/794/794 148/795/795
f 34/796/796 148/797/797 149/798/798
f 149/799/799 148/800/800 95/801/801
f 149/802/802 95/803/803 96/804/804
