v -0.000002 6.672229 13.077357
v 0.000000 7.845936 5.311280
v -7.421125 -1.952555 1.626133
v 0.000001 6.987786 0.535847
v -6.125709 1.868521 -1.129219
v 0.000001 -2.985240 -1.381432
v 0.000001 -3.203405 1.000587
v -0.000001 -3.429143 10.263145
v -0.000002 -3.334577 11.605050
v -6.237466 1.649577 11.913195
v -2.592628 5.657362 13.077357
v -7.986593 -1.998395 11.536722
v -3.197298 5.652371 -0.120364
v -7.421125 -1.943358 -1.773766
v -0.000001 7.642396 11.341354
v -8.262880 -2.016933 10.287489
v -6.820534 1.647796 10.289543
v -3.559958 5.603322 10.999199
v 0.000000 -3.064772 5.145168
v -8.262880 -1.980146 5.165363
v -6.820532 1.758158 5.196646
v -3.559958 5.627847 5.244737
v -6.125711 1.840930 0.987700
v -3.197299 5.646240 0.571980
v -6.404078 -4.218551 10.275316
v -6.142226 -4.054888 11.605049
v -6.404076 -4.017972 5.155266
v -5.751679 -3.821991 1.886347
v -5.751679 -3.551122 -1.577599
v -9.196397 -4.138608 -0.548720
v 7.421125 -1.952555 1.626134
v 6.125710 1.868521 -1.129218
v 6.237464 1.649577 11.913196
v 2.592626 5.657362 13.077357
v 7.986593 -1.998395 11.536723
v 3.197298 5.652371 -0.120363
v 7.421125 -1.943358 -1.773765
v 8.262879 -2.016933 10.287490
v 6.820532 1.647796 10.289543
v 3.559956 5.603322 10.999199
v 8.262879 -1.980146 5.165364
v 6.820532 1.758158 5.196647
v 3.559956 5.627847 5.244738
v 6.125710 1.840930 0.987700
v 3.197298 5.646240 0.571980
v 6.404076 -4.218551 10.275317
v 6.142225 -4.054888 11.605050
v 6.404076 -4.017972 5.155267
v 5.751679 -3.821991 1.886348
v 5.751679 -3.551122 -1.577598
v 9.196398 -4.138608 -0.548718
vt 0.000000 0.000000
vt 0.000000 0.000000
vt 0.000000 0.000000
vt 0.000000 0.000000
vt 0.000000 0.000000
vt 0.000000 0.000000
vt 0.000000 0.000000
vt 0.000000 0.000000
vt 0.000000 0.000000
vt 0.000000 0.000000
vt 0.000000 0.000000
vt 0.000000 0.000000
vt 0.000000 0.000000
vt 0.000000 0.000000
vt 0.000000 0.000000
vt 0.000000 0.000000
vt 0.000000 0.000000
vt 0.000000 0.000000
vt 0.000000 0.000000
vt 0.000000 0.000000
vt 0.000000 0.000000
vt 0.000000 0.000000
vt 0.000000 0.000000
vt 0.000000 0.000000
vt 0.000000 0.000000
vt 0.000000 0.000000
vt 0.000000 0.000000
vt 0.000000 0.000000
vt 0.000000 0.000000
vt 0.000000 0.000000
vt 0.000000 0.000000
vt 0.000000 0.000000
vt 0.000000 0.000000
vt 0.000000 0.000000
vt 0.000000 0.000000
vt 0.000000 0.000000
vt 0.000000 0.000000
vt 0.000000 0.000000
vt 0.000000 0.000000
vt 0.000000 0.000000
vt 0.000000 0.000000
vt 0.000000 0.000000
vt 0.000000 0.000000
vt 0.000000 0.000000
vt 0.000000 0.000000
vt 0.000000 0.000000
vt 0.000000 0.000000
vt 0.000000 0.000000
vt 0.000000 0.000000
vt 0.000000 0.000000
vt 0.000000 0.000000
vt 0.000000 0.000000
vt 0.000000 0.000000
vt 0.000000 0.000000
vt 0.000000 0.000000
vt 0.000000 0.000000
vt 0.000000 0.000000
vt 0.000000 0.000000
vt 0.000000 0.000000
vt 0.000000 0.000000
vt 0.000000 0.000000
vt 0.000000 0.000000
vt 0.000000 0.000000
vt 0.000000 0.000000
vt 0.000000 0.000000
vt 0.000000 0.000000
vt 0.000000 0.000000
vt 0.000000 0.000000
vt 0.000000 0.000000
vt 0.000000 0.000000
vt 0.000000 0.000000
vt 0.000000 0.000000
vt 0.000000 0.000000
vt 0.000000 0.000000
vt 0.000000 0.000000
vt 0.000000 0.000000
vt 0.000000 0.000000
vt 0.000000 0.000000
vt 0.000000 0.000000
vt 0.000000 0.000000
vt 0.000000 0.000000
vt 0.000000 0.000000
vt 0.000000 0.000000
vt 0.000000 0.000000
vt 0.000000 0.000000
vt 0.000000 0.000000
vt 0.000000 0.000000
vt 0.000000 0.000000
vt 0.000000 0.000000
vt 0.000000 0.000000
vt 0.000000 0.000000
vt 0.000000 0.000000
vt 0.000000 0.000000
vt 0.000000 0.000000
vt 0.000000 0.000000
vt 0.000000 0.000000
vt 0.000000 0.000000
vt 0.000000 0.000000
vt 0.000000 0.000000
vt 0.000000 0.000000
vt 0.000000 0.000000
vt 0.000000 0.000000
vt 0.000000 0.000000
vt 0.000000 0.000000
vt 0.000000 0.000000
vt 0.000000 0.000000
vt 0.000000 0.000000
vt 0.000000 0.000000
vt 0.000000 0.000000
vt 0.000000 0.000000
vt 0.000000 0.000000
vt 0.000000 0.000000
vt 0.000000 0.000000
vt 0.000000 0.000000
vt 0.000000 0.000000
vt 0.000000 0.000000
vt 0.000000 0.000000
vt 0.000000 0.000000
vt 0.000000 0.000000
vt 0.000000 0.000000
vt 0.000000 0.000000
vt 0.000000 0.000000
vt 0.000000 0.000000
vt 0.000000 0.000000
vt 0.000000 0.000000
vt 0.000000 0.000000
vt 0.000000 0.000000
vt 0.000000 0.000000
vt 0.000000 0.000000
vt 0.000000 0.000000
vt 0.000000 0.000000
vt 0.000000 0.000000
vt 0.000000 0.000000
vt 0.000000 0.000000
vt 0.000000 0.000000
vt 0.000000 0.000000
vt 0.000000 0.000000
vt 0.000000 0.000000
vt 0.000000 0.000000
vt 0.000000 0.000000
vt 0.000000 0.000000
vt 0.000000 0.000000
vt 0.000000 0.000000
vt 0.000000 0.000000
vt 0.000000 0.000000
vt 0.000000 0.000000
vt 0.000000 0.000000
vt 0.000000 0.000000
vt 0.000000 0.000000
vt 0.000000 0.000000
vt 0.000000 0.000000
vt 0.000000 0.000000
vt 0.000000 0.000000
vt 0.000000 0.000000
vt 0.000000 0.000000
vt 0.000000 0.000000
vt 0.000000 0.000000
vt 0.000000 0.000000
vt 0.000000 0.000000
vt 0.000000 0.000000
vt 0.000000 0.000000
vt 0.000000 0.000000
vt 0.000000 0.000000
vt 0.000000 0.000000
vt 0.000000 0.000000
vt 0.000000 0.000000
vt 0.000000 0.000000
vt 0.000000 0.000000
vt 0.000000 0.000000
vt 0.000000 0.000000
vt 0.000000 0.000000
vt 0.000000 0.000000
vt 0.000000 0.000000
vt 0.000000 0.000000
vt 0.000000 0.000000
vt 0.000000 0.000000
vt 0.000000 0.000000
vt 0.000000 0.000000
vt 0.000000 0.000000
vt 0.000000 0.000000
vt 0.000000 0.000000
vt 0.000000 0.000000
vt 0.000000 0.000000
vt 0.000000 0.000000
vt 0.000000 0.000000
vt 0.000000 0.000000
vt 0.000000 0.000000
vt 0.000000 0.000000
vt 0.000000 0.000000
vt 0.000000 0.000000
vt 0.000000 0.000000
vt 0.000000 0.000000
vt 0.000000 0.000000
vt 0.000000 0.000000
vt 0.000000 0.000000
vt 0.000000 0.000000
vt 0.000000 0.000000
vt 0.000000 0.000000
vt 0.000000 0.000000
vt 0.000000 0.000000
vt 0.000000 0.000000
vt 0.000000 0.000000
vt 0.000000 0.000000
vt 0.000000 0.000000
vt 0.000000 0.000000
vt 0.000000 0.000000
vt 0.000000 0.000000
vt 0.000000 0.000000
vt 0.000000 0.000000
vt 0.000000 0.000000
vt 0.000000 0.000000
vt 0.000000 0.000000
vt 0.000000 0.000000
vt 0.000000 0.000000
vt 0.000000 0.000000
vt 0.000000 0.000000
vt 0.000000 0.000000
vt 0.000000 0.000000
vt 0.000000 0.000000
vt 0.000000 0.000000
vt 0.000000 0.000000
vt 0.000000 0.000000
vt 0.000000 0.000000
vt 0.000000 0.000000
vt 0.000000 0.000000
vt 0.000000 0.000000
vt 0.000000 0.000000
vt 0.000000 0.000000
vt 0.000000 0.000000
vt 0.000000 0.000000
vt 0.000000 0.000000
vt 0.000000 0.000000
vt 0.000000 0.000000
vt 0.000000 0.000000
vt 0.000000 0.000000
vt 0.000000 0.000000
vt 0.000000 0.000000
vt 0.000000 0.000000
vt 0.000000 0.000000
vt 0.000000 0.000000
vt 0.000000 0.000000
vt 0.000000 0.000000
vt 0.000000 0.000000
vt 0.000000 0.000000
vt 0.000000 0.000000
vt 0.000000 0.000000
vn 0.127133 -0.991777 0.014711
vn 0.000000 -0.999890 0.014832
vn 0.000000 -0.996419 0.084550
vn 0.127133 -0.991777 0.014711
vn 0.000000 -0.996419 0.084550
vn 0.119129 -0.989324 0.083948
vn -0.426183 0.903564 -0.044060
vn -0.609606 0.792664 0.008013
vn -0.622668 0.781318 -0.042733
vn -0.622668 0.781318 -0.042733
vn -0.609606 0.792664 0.008013
vn -0.881111 0.472885 0.004804
vn -0.622668 0.781318 -0.042733
vn -0.881111 0.472885 0.004804
vn -0.876036 0.477844 -0.065008
vn -0.876036 0.477844 -0.065008
vn -0.881111 0.472885 0.004804
vn -0.875395 0.483405 0.001956
vn -0.876036 0.477844 -0.065008
vn -0.875395 0.483405 0.001956
vn -0.899688 0.432442 -0.059622
vn -0.740644 -0.641483 0.199866
vn -0.740644 -0.641483 0.199866
vn -0.750627 -0.654171 0.092838
vn -0.740644 -0.641483 0.199866
vn -0.750627 -0.654171 0.092838
vn -0.750627 -0.654171 0.092838
vn -0.636882 0.752861 0.166078
vn -0.607913 0.728048 0.316842
vn -0.436153 0.843595 0.313239
vn -0.636882 0.752861 0.166078
vn -0.436153 0.843595 0.313239
vn -0.480680 0.860867 0.166897
vn -0.853222 0.499845 0.148885
vn -0.827908 0.481657 0.287358
vn -0.607913 0.728048 0.316842
vn -0.853222 0.499845 0.148885
vn -0.607913 0.728048 0.316842
vn -0.636882 0.752861 0.166078
vn -0.918330 0.371924 0.135432
vn -0.889099 0.374399 0.263304
vn -0.827908 0.481657 0.287358
vn -0.918330 0.371924 0.135432
vn -0.827908 0.481657 0.287358
vn -0.853222 0.499845 0.148885
vn 0.121205 -0.989393 -0.080074
vn -0.000000 -0.996519 -0.083362
vn -0.000000 -0.999201 -0.039963
vn 0.121205 -0.989393 -0.080074
vn -0.000000 -0.999201 -0.039963
vn 0.123734 -0.990941 -0.052206
vn -0.643053 0.764776 -0.040010
vn -0.636882 0.752861 0.166078
vn -0.480680 0.860867 0.166897
vn -0.643053 0.764776 -0.040010
vn -0.480680 0.860867 0.166897
vn -0.489662 0.871003 -0.039820
vn -0.866232 0.495518 -0.064059
vn -0.853222 0.499845 0.148885
vn -0.636882 0.752861 0.166078
vn -0.866232 0.495518 -0.064059
vn -0.636882 0.752861 0.166078
vn -0.643053 0.764776 -0.040010
vn -0.934620 0.344690 -0.087603
vn -0.918330 0.371924 0.135432
vn -0.853222 0.499845 0.148885
vn -0.934620 0.344690 -0.087603
vn -0.853222 0.499845 0.148885
vn -0.866232 0.495518 -0.064059
vn -0.750627 -0.654171 0.092838
vn -0.750627 -0.654171 0.092838
vn -0.740610 -0.664694 -0.098378
vn -0.750627 -0.654171 0.092838
vn -0.740610 -0.664694 -0.098378
vn -0.740610 -0.664694 -0.098378
vn -0.740610 -0.664694 -0.098378
vn -0.740610 -0.664694 -0.098378
vn -0.724173 -0.665500 -0.180785
vn -0.740610 -0.664694 -0.098378
vn -0.724173 -0.665500 -0.180785
vn -0.724173 -0.665500 -0.180785
vn -0.899688 0.432442 -0.059622
vn -0.934620 0.344690 -0.087603
vn -0.866232 0.495518 -0.064059
vn -0.899688 0.432442 -0.059622
vn -0.866232 0.495518 -0.064059
vn -0.876036 0.477844 -0.065008
vn -0.622668 0.781318 -0.042733
vn -0.643053 0.764776 -0.040010
vn -0.489662 0.871003 -0.039820
vn -0.622668 0.781318 -0.042733
vn -0.489662 0.871003 -0.039820
vn -0.426183 0.903564 -0.044060
vn -0.876036 0.477844 -0.065008
vn -0.866232 0.495518 -0.064059
vn -0.643053 0.764776 -0.040010
vn -0.876036 0.477844 -0.065008
vn -0.643053 0.764776 -0.040010
vn -0.622668 0.781318 -0.042733
vn -0.777097 0.629379 0.001702
vn -0.899688 0.432442 -0.059622
vn -0.875395 0.483405 0.001956
vn 0.123734 -0.990941 -0.052206
vn -0.000000 -0.999201 -0.039963
vn -0.000000 -0.999669 -0.025715
vn 0.123734 -0.990941 -0.052206
vn -0.000000 -0.999669 -0.025715
vn 0.131565 -0.990980 -0.025491
vn 0.131565 -0.990980 -0.025491
vn -0.000000 -0.999669 -0.025715
vn 0.000000 -0.999890 0.014832
vn 0.131565 -0.990980 -0.025491
vn 0.000000 -0.999890 0.014832
vn 0.127133 -0.991777 0.014711
vn 0.145188 -0.986393 -0.077133
vn 0.121205 -0.989393 -0.080074
vn 0.123734 -0.990941 -0.052206
vn -0.216357 -0.336481 -0.916499
vn -0.216357 -0.336481 -0.916499
vn -0.216357 -0.336481 -0.916499
vn -0.517912 -0.354117 0.778697
vn -0.517912 -0.354117 0.778697
vn -0.517912 -0.354117 0.778697
vn 0.517912 -0.354116 0.778697
vn 0.517912 -0.354116 0.778697
vn 0.517912 -0.354116 0.778697
vn 0.216357 -0.336482 -0.916499
vn 0.216357 -0.336482 -0.916499
vn 0.216357 -0.336482 -0.916499
vn -0.123734 -0.990941 -0.052206
vn -0.121205 -0.989393 -0.080074
vn -0.145188 -0.986393 -0.077133
vn -0.127133 -0.991777 0.014711
vn 0.000000 -0.999890 0.014832
vn -0.000000 -0.999669 -0.025715
vn -0.127133 -0.991777 0.014711
vn -0.000000 -0.999669 -0.025715
vn -0.131565 -0.990980 -0.025491
vn -0.131565 -0.990980 -0.025491
vn -0.000000 -0.999669 -0.025715
vn -0.000000 -0.999201 -0.039963
vn -0.131565 -0.990980 -0.025491
vn -0.000000 -0.999201 -0.039963
vn -0.123734 -0.990941 -0.052206
vn 0.875395 0.483405 0.001957
vn 0.899688 0.432442 -0.059622
vn 0.777097 0.629379 0.001702
vn 0.622669 0.781318 -0.042732
vn 0.643053 0.764776 -0.040010
vn 0.866232 0.495518 -0.064059
vn 0.622669 0.781318 -0.042732
vn 0.866232 0.495518 -0.064059
vn 0.876036 0.477844 -0.065008
vn 0.426183 0.903563 -0.044060
vn 0.489662 0.871002 -0.039820
vn 0.643053 0.764776 -0.040010
vn 0.426183 0.903563 -0.044060
vn 0.643053 0.764776 -0.040010
vn 0.622669 0.781318 -0.042732
vn 0.876036 0.477844 -0.065008
vn 0.866232 0.495518 -0.064059
vn 0.934620 0.344690 -0.087603
vn 0.876036 0.477844 -0.065008
vn 0.934620 0.344690 -0.087603
vn 0.899688 0.432442 -0.059622
vn 0.724173 -0.665500 -0.180785
vn 0.724173 -0.665500 -0.180785
vn 0.740610 -0.664694 -0.098378
vn 0.724173 -0.665500 -0.180785
vn 0.740610 -0.664694 -0.098378
vn 0.740610 -0.664694 -0.098378
vn -0.119129 -0.989324 0.083948
vn 0.000000 -0.996419 0.084550
vn 0.000000 -0.999890 0.014832
vn -0.119129 -0.989324 0.083948
vn 0.000000 -0.999890 0.014832
vn -0.127133 -0.991777 0.014711
vn 0.622669 0.781318 -0.042732
vn 0.609606 0.792664 0.008014
vn 0.426183 0.903563 -0.044060
vn 0.876036 0.477844 -0.065008
vn 0.881111 0.472885 0.004804
vn 0.609606 0.792664 0.008014
vn 0.876036 0.477844 -0.065008
vn 0.609606 0.792664 0.008014
vn 0.622669 0.781318 -0.042732
vn 0.899688 0.432442 -0.059622
vn 0.875395 0.483405 0.001957
vn 0.881111 0.472885 0.004804
vn 0.899688 0.432442 -0.059622
vn 0.881111 0.472885 0.004804
vn 0.876036 0.477844 -0.065008
vn 0.750627 -0.654171 0.092838
vn 0.750627 -0.654171 0.092838
vn 0.740644 -0.641483 0.199866
vn 0.750627 -0.654171 0.092838
vn 0.740644 -0.641483 0.199866
vn 0.740644 -0.641483 0.199866
vn 0.480680 0.860867 0.166897
vn 0.436153 0.843595 0.313239
vn 0.607913 0.728048 0.316842
vn 0.480680 0.860867 0.166897
vn 0.607913 0.728048 0.316842
vn 0.636881 0.752861 0.166078
vn 0.636881 0.752861 0.166078
vn 0.607913 0.728048 0.316842
vn 0.827908 0.481657 0.287358
vn 0.636881 0.752861 0.166078
vn 0.827908 0.481657 0.287358
vn 0.853222 0.499845 0.148886
vn 0.853222 0.499845 0.148886
vn 0.827908 0.481657 0.287358
vn 0.889099 0.374399 0.263304
vn 0.853222 0.499845 0.148886
vn 0.889099 0.374399 0.263304
vn 0.918330 0.371924 0.135433
vn -0.123734 -0.990941 -0.052206
vn -0.000000 -0.999201 -0.039963
vn -0.000000 -0.996519 -0.083362
vn -0.123734 -0.990941 -0.052206
vn -0.000000 -0.996519 -0.083362
vn -0.121205 -0.989393 -0.080074
vn 0.489662 0.871002 -0.039820
vn 0.480680 0.860867 0.166897
vn 0.636881 0.752861 0.166078
vn 0.489662 0.871002 -0.039820
vn 0.636881 0.752861 0.166078
vn 0.643053 0.764776 -0.040010
vn 0.643053 0.764776 -0.040010
vn 0.636881 0.752861 0.166078
vn 0.853222 0.499845 0.148886
vn 0.643053 0.764776 -0.040010
vn 0.853222 0.499845 0.148886
vn 0.866232 0.495518 -0.064059
vn 0.866232 0.495518 -0.064059
vn 0.853222 0.499845 0.148886
vn 0.918330 0.371924 0.135433
vn 0.866232 0.495518 -0.064059
vn 0.918330 0.371924 0.135433
vn 0.934620 0.344690 -0.087603
vn 0.740610 -0.664694 -0.098378
vn 0.740610 -0.664694 -0.098378
vn 0.750627 -0.654171 0.092838
vn 0.740610 -0.664694 -0.098378
vn 0.750627 -0.654171 0.092838
vn 0.750627 -0.654171 0.092838
f 25/1/1 8/2/2 9/3/3
f 25/4/4 9/5/5 26/6/6
f 4/7/7 13/8/8 24/9/9
f 24/10/10 13/11/11 5/12/12
f 24/13/13 5/14/14 23/15/15
f 23/16/16 5/17/17 14/18/18
f 23/19/19 14/20/20 3/21/21
f 26/22/22 12/23/23 16/24/24
f 26/25/25 16/26/26 25/27/27
f 18/28/28 11/29/29 1/30/30
f 18/31/31 1/32/32 15/33/33
f 17/34/34 10/35/35 11/36/36
f 17/37/37 11/38/38 18/39/39
f 16/40/40 12/41/41 10/42/42
f 16/43/43 10/44/44 17/45/45
f 29/46/46 6/47/47 7/48/48
f 29/49/49 7/50/50 28/51/51
f 22/52/52 18/53/53 15/54/54
f 22/55/55 15/56/56 2/57/57
f 21/58/58 17/59/59 18/60/60
f 21/61/61 18/62/62 22/63/63
f 20/64/64 16/65/65 17/66/66
f 20/67/67 17/68/68 21/69/69
f 25/70/70 16/71/71 20/72/72
f 25/73/73 20/74/74 27/75/75
f 27/76/76 20/77/77 3/78/78
f 27/79/79 3/80/80 28/81/81
f 3/82/82 20/83/83 21/84/84
f 3/85/85 21/86/86 23/87/87
f 24/88/88 22/89/89 2/90/90
f 24/91/91 2/92/92 4/93/93
f 23/94/94 21/95/95 22/96/96
f 23/97/97 22/98/98 24/99/99
f 30/100/100 3/101/101 14/102/102
f 28/103/103 7/104/104 19/105/105
f 28/106/106 19/107/107 27/108/108
f 27/109/109 19/110/110 8/111/111
f 27/112/112 8/113/113 25/114/114
f 30/115/115 29/116/116 28/117/117
f 14/118/118 29/119/119 30/120/120
f 28/121/121 3/122/122 30/123/123
f 51/124/124 31/125/125 49/126/126
f 51/127/127 50/128/128 37/129/129
f 49/130/130 50/131/131 51/132/132
f 46/133/133 8/134/134 19/135/135
f 46/136/136 19/137/137 48/138/138
f 48/139/139 19/140/140 7/141/141
f 48/142/142 7/143/143 49/144/144
f 37/145/145 31/146/146 51/147/147
f 45/148/148 43/149/149 42/150/150
f 45/151/151 42/152/152 44/153/153
f 4/154/154 2/155/155 43/156/156
f 4/157/157 43/158/158 45/159/159
f 44/160/160 42/161/161 41/162/162
f 44/163/163 41/164/164 31/165/165
f 49/166/166 31/167/167 41/168/168
f 49/169/169 41/170/170 48/171/171
f 47/172/172 9/173/173 8/174/174
f 47/175/175 8/176/176 46/177/177
f 45/178/178 36/179/179 4/180/180
f 44/181/181 32/182/182 36/183/183
f 44/184/184 36/185/185 45/186/186
f 31/187/187 37/188/188 32/189/189
f 31/190/190 32/191/191 44/192/192
f 46/193/193 38/194/194 35/195/195
f 46/196/196 35/197/197 47/198/198
f 15/199/199 1/200/200 34/201/201
f 15/202/202 34/203/203 40/204/204
f 40/205/205 34/206/206 33/207/207
f 40/208/208 33/209/209 39/210/210
f 39/211/211 33/212/212 35/213/213
f 39/214/214 35/215/215 38/216/216
f 49/217/217 7/218/218 6/219/219
f 49/220/220 6/221/221 50/222/222
f 2/223/223 15/224/224 40/225/225
f 2/226/226 40/227/227 43/228/228
f 43/229/229 40/230/230 39/231/231
f 43/232/232 39/233/233 42/234/234
f 42/235/235 39/236/236 38/237/237
f 42/238/238 38/239/239 41/240/240
f 48/241/241 41/242/242 38/243/243
f 48/244/244 38/245/245 46/246/246
