v 1.015658 0.080501 -4.950537
v 1.256003 4.513476 2.988194
v 0.827761 0.080503 -6.559877
v -2.015680 2.545406 4.447220
v 1.573697 6.347982 2.690145
v 1.270958 4.659550 3.108357
v 1.636059 4.663348 3.931171
v 1.990605 4.640069 2.880610
v 1.015659 0.080502 4.950533
v 4.950533 0.080502 -1.015663
v -1.015660 0.080502 4.950533
v 2.109232 2.568525 3.454611
v 1.273396 2.572586 5.094321
v 0.571565 2.574724 3.961516
v 5.289477 2.545403 5.289268
v 6.754135 0.112520 6.753561
v 3.408111 2.545408 4.817043
v 4.093678 0.112517 6.090582
v 2.231915 5.723969 2.231838
v 3.528781 4.648729 3.528562
v 2.880607 4.640070 -1.990608
v 1.990604 4.640069 2.880610
v 1.476779 0.112518 4.477843
v 2.015680 2.545404 4.447220
v 6.090583 0.112516 -4.093681
v -0.000002 0.000000 8.000001
v -0.000001 1.420610 4.948084
v 0.827761 0.080501 6.559874
v -0.000002 0.750554 6.560048
v 2.109232 2.568525 -3.454614
v -0.000003 0.000002 -8.000003
v 4.447217 2.545408 -2.015680
v -5.289480 2.545405 -5.289269
v 4.477845 0.112518 -1.476781
v 2.231836 5.723969 -2.231917
v -0.571567 2.574724 3.961517
v 5.289264 2.545406 -5.289483
v -3.408115 2.545405 4.817043
v 5.038946 2.572586 -1.250054
v 3.961516 2.574723 -0.571568
v 2.015681 2.545404 -4.447222
v -3.528785 4.648730 -3.528563
v 1.273397 2.572584 -5.094326
v -4.447220 2.545405 -2.015681
v -4.477844 0.112516 -1.476780
v -2.880612 4.640069 -1.990609
v -3.961519 2.574723 -0.571568
v 2.988193 4.513479 -1.256006
v 1.636060 4.663350 -3.931172
v 0.571565 2.574722 -3.961520
v -1.256004 4.513478 -2.988197
v 2.988194 4.513477 1.256003
v 1.990606 4.640070 -2.880611
v -2.109234 2.568524 3.454612
v 2.700022 6.347982 1.553262
v -1.573701 6.347981 -2.690147
v 3.108354 4.659551 1.287224
v 3.939257 4.663352 1.636062
v -1.270962 4.659551 -3.108357
v 2.880608 4.640070 1.990608
v 4.950533 0.080502 1.015659
v -0.827762 0.080504 -6.559877
v -1.636063 4.663348 -3.931172
v -1.990609 4.640069 2.880611
v -1.990612 4.640068 -2.880612
v -6.754138 0.112517 -6.753564
v 3.454610 2.568526 2.109232
v 5.038946 2.572588 1.250052
v 3.961515 2.574726 0.571564
v -4.093680 0.112517 6.090583
v 4.817041 2.545407 3.408113
v 6.090584 0.112516 4.093678
v 2.880607 4.640070 1.990608
v 4.477845 0.112519 1.476778
v 4.447217 2.545408 2.015679
v -0.000001 0.750557 -6.560049
v 3.108353 4.659552 -1.287225
v -1.990610 4.640069 -2.880612
v 1.990606 4.640070 -2.880611
v 4.093677 0.112520 -6.090584
v 2.700022 6.347982 -1.553262
v -0.571567 2.574722 -3.961520
v 3.454609 2.568527 -2.109233
v -1.273398 2.572584 -5.094325
v -2.988197 4.513477 1.256003
v -1.273396 2.572586 5.094322
v -3.408115 2.545403 -4.817045
v -6.090583 0.112517 -4.093681
v -2.700025 6.347980 1.553262
v -3.454614 2.568525 -2.109233
v -3.108357 4.659549 1.287225
v -3.939260 4.663348 1.636062
v -2.988197 4.513478 -1.256006
v -2.880611 4.640068 1.990607
v -4.950533 0.080499 1.015660
v -2.231917 5.723969 -2.231838
v 4.817040 2.545406 -3.408115
v -3.454613 2.568523 2.109232
v -5.038950 2.572585 1.250052
v -3.961517 2.574723 0.571564
v -1.476779 0.112518 4.477843
v -5.289267 2.545403 5.289481
v -6.753560 0.112519 6.754139
v -4.817043 2.545405 3.408115
v -6.090581 0.112517 4.093679
v -2.231838 5.723968 2.231917
v -3.528563 4.648726 3.528785
v 3.528560 4.648730 -3.528786
v -2.880612 4.640067 1.990607
v -4.477844 0.112517 1.476779
v -4.447219 2.545403 2.015679
v 6.753560 0.112520 -6.754140
v 3.939257 4.663351 -1.636062
v 2.880608 4.640070 -1.990608
v 3.408112 2.545405 -4.817046
v -2.015680 2.545404 -4.447222
v 1.256003 4.513477 -2.988197
v -0.000001 1.420614 -4.948086
v 1.476779 0.112518 -4.477847
v 1.573697 6.347982 -2.690146
v -2.700026 6.347981 -1.553262
v -5.038951 2.572584 -1.250054
v -1.990609 4.640069 2.880611
v -4.950533 0.080499 -1.015663
v -2.880611 4.640069 -1.990609
v -3.939261 4.663347 -1.636063
v -3.108358 4.659548 -1.287225
v -2.109234 2.568526 -3.454613
v -4.093680 0.112520 -6.090583
v 1.270958 4.659551 -3.108357
v -1.256003 4.513474 2.988194
v -1.476779 0.112517 -4.477847
v -1.015660 0.080500 -4.950537
v -4.817044 2.545404 -3.408115
v -1.573700 6.347982 2.690145
v -1.270961 4.659550 3.108356
v -1.636062 4.663348 3.931171
v -0.827760 0.080502 6.559874
v -4.369108 0.114167 -0.630375
v -4.369105 0.114168 0.630372
v 4.369105 0.114169 0.630372
v 4.369106 0.114167 -0.630375
vt 0.769531 0.605469
vt 0.539062 0.375000
vt 0.675781 0.277344
vt 0.675781 0.277344
vt 0.539062 0.375000
vt 0.769531 0.605469
vt 0.699219 0.542969
vt 0.769531 0.390625
vt 0.597656 0.437500
vt 10431660197363285415112657361436672.000000 10713687697113280749340175842148352.000000
vt 10431660197363285415112657361436672.000000 -10713687697113280749340175842148352.000000
vt 10431660197363285415112657361436672.000000 10713687697113280749340175842148352.000000
vt 0.769531 0.605469
vt 0.539062 0.375000
vt 0.675781 0.277344
vt 0.499997 0.901699
vt 0.467056 0.730952
vt 0.532944 0.730952
vt 0.675781 0.277344
vt 0.539062 0.375000
vt 0.769531 0.605469
vt 10431660197363285415112657361436672.000000 10713687697113280749340175842148352.000000
vt 10431660197363285415112657361436672.000000 -10713687697113280749340175842148352.000000
vt 10431660197363285415112657361436672.000000 10713687697113280749340175842148352.000000
vt 10431660197363285415112657361436672.000000 -10713687697113280749340175842148352.000000
vt 10431660197363285415112657361436672.000000 10713687697113280749340175842148352.000000
vt 10431660197363285415112657361436672.000000 -10713687697113280749340175842148352.000000
vt 0.472656 0.351562
vt 0.500000 0.128906
vt 0.660156 0.128906
vt 0.472656 0.351562
vt 0.660156 0.128906
vt 0.699219 0.351562
vt 0.535156 0.375000
vt 0.769531 0.609375
vt 0.675781 0.277344
vt 0.875000 0.500000
vt 0.675781 0.277344
vt 0.769531 0.609375
vt 10431660197363285415112657361436672.000000 10713687697113280749340175842148352.000000
vt 10431660197363285415112657361436672.000000 -10713687697113280749340175842148352.000000
vt 10431660197363285415112657361436672.000000 10713687697113280749340175842148352.000000
vt 10431660197363285415112657361436672.000000 -10713687697113280749340175842148352.000000
vt 10431660197363285415112657361436672.000000 10713687697113280749340175842148352.000000
vt 10431660197363285415112657361436672.000000 -10713687697113280749340175842148352.000000
vt 0.644531 0.484375
vt 0.949219 0.785156
vt 0.839844 0.351562
vt 0.549800 0.404621
vt 0.564119 0.711010
vt 0.625482 0.405597
vt 0.450200 0.404621
vt 0.435881 0.711010
vt 0.564119 0.711010
vt 0.450200 0.404621
vt 0.564119 0.711010
vt 0.549800 0.404621
vt 10431660197363285415112657361436672.000000 10713687697113280749340175842148352.000000
vt 10431660197363285415112657361436672.000000 -10713687697113280749340175842148352.000000
vt 10431660197363285415112657361436672.000000 10713687697113280749340175842148352.000000
vt 10431660197363285415112657361436672.000000 -10713687697113280749340175842148352.000000
vt 10431660197363285415112657361436672.000000 10713687697113280749340175842148352.000000
vt 10431660197363285415112657361436672.000000 -10713687697113280749340175842148352.000000
vt 10431660197363285415112657361436672.000000 -10713687697113280749340175842148352.000000
vt 10431660197363285415112657361436672.000000 -10713687697113280749340175842148352.000000
vt 10431660197363285415112657361436672.000000 10713687697113280749340175842148352.000000
vt 10431660197363285415112657361436672.000000 -10713687697113280749340175842148352.000000
vt 10431660197363285415112657361436672.000000 10713687697113280749340175842148352.000000
vt 10431660197363285415112657361436672.000000 -10713687697113280749340175842148352.000000
vt 10431660197363285415112657361436672.000000 10713687697113280749340175842148352.000000
vt 10431660197363285415112657361436672.000000 -10713687697113280749340175842148352.000000
vt 10431660197363285415112657361436672.000000 10713687697113280749340175842148352.000000
vt 10431660197363285415112657361436672.000000 -10713687697113280749340175842148352.000000
vt 10431660197363285415112657361436672.000000 10713687697113280749340175842148352.000000
vt 10431660197363285415112657361436672.000000 -10713687697113280749340175842148352.000000
vt 10431660197363285415112657361436672.000000 -10713687697113280749340175842148352.000000
vt 10431660197363285415112657361436672.000000 -10713687697113280749340175842148352.000000
vt 10431660197363285415112657361436672.000000 10713687697113280749340175842148352.000000
vt 0.294049 0.404621
vt 0.319687 0.730952
vt 0.260770 0.400979
vt 0.294049 0.404621
vt 0.260770 0.400979
vt 0.319687 0.730952
vt 0.322992 0.431422
vt 0.007841 0.008096
vt 0.365438 0.008096
vt 0.319687 0.730952
vt 0.334770 0.901699
vt 0.319687 0.730952
vt 0.365438 0.008095
vt 0.007841 0.008096
vt 0.322992 0.431422
vt 0.601562 0.402344
vt 0.322992 0.431422
vt 0.701890 0.797404
vt 10431660197363285415112657361436672.000000 -10713687697113280749340175842148352.000000
vt 10431660197363285415112657361436672.000000 10713687697113280749340175842148352.000000
vt 10431660197363285415112657361436672.000000 -10713687697113280749340175842148352.000000
vt 10431660197363285415112657361436672.000000 -10713687697113280749340175842148352.000000
vt 10431660197363285415112657361436672.000000 -10713687697113280749340175842148352.000000
vt 10431660197363285415112657361436672.000000 10713687697113280749340175842148352.000000
vt 0.939453 0.791016
vt 0.847656 0.343750
vt 0.601562 0.402344
vt 0.319687 0.730952
vt 0.319687 0.730952
vt 0.294049 0.404621
vt 0.319687 0.730952
vt 0.294049 0.404621
vt 0.294049 0.404621
vt 0.260770 0.400978
vt 0.294049 0.404621
vt 0.319687 0.730952
vt 0.994141 0.990234
vt 0.939453 0.791016
vt 0.701890 0.797404
vt 0.319687 0.730952
vt 0.294049 0.404621
vt 0.260770 0.400978
vt 0.847656 0.343750
vt 0.796875 0.007812
vt 0.365438 0.008095
vt 0.532944 0.730952
vt 0.467056 0.730952
vt 0.500003 0.901699
vt 0.644531 0.484375
vt 0.839844 0.351562
vt 0.949219 0.785156
vt 10431660197363285415112657361436672.000000 10713687697113280749340175842148352.000000
vt 10431660197363285415112657361436672.000000 -10713687697113280749340175842148352.000000
vt 10431660197363285415112657361436672.000000 10713687697113280749340175842148352.000000
vt 0.549801 0.404621
vt 0.450200 0.404621
vt 0.467056 0.730952
vt 0.549801 0.404621
vt 0.467056 0.730952
vt 0.532944 0.730952
vt 0.294049 0.404621
vt 0.342897 0.711010
vt 0.342897 0.711010
vt 0.294049 0.404621
vt 0.342897 0.711010
vt 0.294049 0.404621
vt 0.532944 0.730952
vt 0.590006 0.400979
vt 0.549801 0.404621
vt 0.409994 0.400978
vt 0.467056 0.730952
vt 0.450200 0.404621
vt 0.660156 0.128906
vt 0.699219 0.351562
vt 0.472656 0.351562
vt 0.660156 0.128906
vt 0.472656 0.351562
vt 0.500000 0.128906
vt 0.365438 0.008096
vt 0.796875 0.007812
vt 0.847656 0.343750
vt 10431660197363285415112657361436672.000000 10713687697113280749340175842148352.000000
vt 10431660197363285415112657361436672.000000 -10713687697113280749340175842148352.000000
vt 10431660197363285415112657361436672.000000 10713687697113280749340175842148352.000000
vt 0.374518 0.405597
vt 0.435881 0.711010
vt 0.450200 0.404621
vt 10431660197363285415112657361436672.000000 10713687697113280749340175842148352.000000
vt 10431660197363285415112657361436672.000000 -10713687697113280749340175842148352.000000
vt 10431660197363285415112657361436672.000000 10713687697113280749340175842148352.000000
vt 10431660197363285415112657361436672.000000 -10713687697113280749340175842148352.000000
vt 10431660197363285415112657361436672.000000 10713687697113280749340175842148352.000000
vt 10431660197363285415112657361436672.000000 -10713687697113280749340175842148352.000000
vt 10431660197363285415112657361436672.000000 -10713687697113280749340175842148352.000000
vt 10431660197363285415112657361436672.000000 -10713687697113280749340175842148352.000000
vt 10431660197363285415112657361436672.000000 10713687697113280749340175842148352.000000
vt 10431660197363285415112657361436672.000000 -10713687697113280749340175842148352.000000
vt 10431660197363285415112657361436672.000000 10713687697113280749340175842148352.000000
vt 10431660197363285415112657361436672.000000 -10713687697113280749340175842148352.000000
vt 10431660197363285415112657361436672.000000 10713687697113280749340175842148352.000000
vt 10431660197363285415112657361436672.000000 -10713687697113280749340175842148352.000000
vt 10431660197363285415112657361436672.000000 10713687697113280749340175842148352.000000
vt 10431660197363285415112657361436672.000000 10713687697113280749340175842148352.000000
vt 10431660197363285415112657361436672.000000 10713687697113280749340175842148352.000000
vt 10431660197363285415112657361436672.000000 -10713687697113280749340175842148352.000000
vt 10431660197363285415112657361436672.000000 10713687697113280749340175842148352.000000
vt 10431660197363285415112657361436672.000000 -10713687697113280749340175842148352.000000
vt 10431660197363285415112657361436672.000000 10713687697113280749340175842148352.000000
vt 10431660197363285415112657361436672.000000 10713687697113280749340175842148352.000000
vt 10431660197363285415112657361436672.000000 10713687697113280749340175842148352.000000
vt 10431660197363285415112657361436672.000000 -10713687697113280749340175842148352.000000
vt 10431660197363285415112657361436672.000000 10713687697113280749340175842148352.000000
vt 10431660197363285415112657361436672.000000 -10713687697113280749340175842148352.000000
vt 10431660197363285415112657361436672.000000 10713687697113280749340175842148352.000000
vt 10431660197363285415112657361436672.000000 -10713687697113280749340175842148352.000000
vt 10431660197363285415112657361436672.000000 10713687697113280749340175842148352.000000
vt 10431660197363285415112657361436672.000000 -10713687697113280749340175842148352.000000
vt 10431660197363285415112657361436672.000000 10713687697113280749340175842148352.000000
vt 10431660197363285415112657361436672.000000 -10713687697113280749340175842148352.000000
vt 10431660197363285415112657361436672.000000 10713687697113280749340175842148352.000000
vt 0.322992 0.431422
vt 0.007841 0.008096
vt 0.365438 0.008096
vt 0.701890 0.797404
vt 0.322992 0.431422
vt 0.601562 0.402344
vt 10431660197363285415112657361436672.000000 -10713687697113280749340175842148352.000000
vt 10431660197363285415112657361436672.000000 10713687697113280749340175842148352.000000
vt 10431660197363285415112657361436672.000000 -10713687697113280749340175842148352.000000
vt 10431660197363285415112657361436672.000000 -10713687697113280749340175842148352.000000
vt 10431660197363285415112657361436672.000000 -10713687697113280749340175842148352.000000
vt 10431660197363285415112657361436672.000000 10713687697113280749340175842148352.000000
vt 0.601562 0.402344
vt 0.847656 0.343750
vt 0.939453 0.791016
vt 0.939453 0.791016
vt 0.994141 0.990234
vt 0.701890 0.797404
vt 0.365438 0.008096
vt 0.796875 0.007812
vt 0.847656 0.343750
vt 0.450200 0.404621
vt 0.467056 0.730952
vt 0.409994 0.400978
vt 10431660197363285415112657361436672.000000 -10713687697113280749340175842148352.000000
vt 10431660197363285415112657361436672.000000 10713687697113280749340175842148352.000000
vt 10431660197363285415112657361436672.000000 -10713687697113280749340175842148352.000000
vt 0.590006 0.400979
vt 0.532944 0.730952
vt 0.549801 0.404621
vt 10431660197363285415112657361436672.000000 -10713687697113280749340175842148352.000000
vt 10431660197363285415112657361436672.000000 10713687697113280749340175842148352.000000
vt 10431660197363285415112657361436672.000000 -10713687697113280749340175842148352.000000
vt 0.294049 0.404621
vt 0.342897 0.711010
vt 0.332204 0.405597
vt 0.549800 0.404621
vt 0.532944 0.730952
vt 0.590006 0.400978
vt 10431660197363285415112657361436672.000000 10713687697113280749340175842148352.000000
vt 10431660197363285415112657361436672.000000 -10713687697113280749340175842148352.000000
vt 10431660197363285415112657361436672.000000 10713687697113280749340175842148352.000000
vt 10431660197363285415112657361436672.000000 -10713687697113280749340175842148352.000000
vt 10431660197363285415112657361436672.000000 10713687697113280749340175842148352.000000
vt 10431660197363285415112657361436672.000000 -10713687697113280749340175842148352.000000
vt 0.739230 0.400978
vt 0.705951 0.404620
vt 0.680313 0.730952
vt 0.680313 0.730952
vt 0.705951 0.404620
vt 0.739230 0.400978
vt 0.472656 0.351562
vt 0.500000 0.128906
vt 0.660156 0.128906
vt 0.472656 0.351562
vt 0.660156 0.128906
vt 0.699219 0.351562
vt 0.939453 0.791016
vt 0.994141 0.990234
vt 0.701890 0.797404
vt 10431660197363285415112657361436672.000000 -10713687697113280749340175842148352.000000
vt 10431660197363285415112657361436672.000000 10713687697113280749340175842148352.000000
vt 10431660197363285415112657361436672.000000 -10713687697113280749340175842148352.000000
vt 10431660197363285415112657361436672.000000 10713687697113280749340175842148352.000000
vt 10431660197363285415112657361436672.000000 -10713687697113280749340175842148352.000000
vt 10431660197363285415112657361436672.000000 10713687697113280749340175842148352.000000
vt 0.705951 0.404620
vt 0.657103 0.711010
vt 0.667796 0.405597
vt 0.705951 0.404620
vt 0.657103 0.711009
vt 0.657103 0.711010
vt 0.705951 0.404620
vt 0.657103 0.711010
vt 0.705951 0.404620
vt 10431660197363285415112657361436672.000000 10713687697113280749340175842148352.000000
vt 10431660197363285415112657361436672.000000 -10713687697113280749340175842148352.000000
vt 10431660197363285415112657361436672.000000 10713687697113280749340175842148352.000000
vt 10431660197363285415112657361436672.000000 -10713687697113280749340175842148352.000000
vt 10431660197363285415112657361436672.000000 10713687697113280749340175842148352.000000
vt 10431660197363285415112657361436672.000000 -10713687697113280749340175842148352.000000
vt 10431660197363285415112657361436672.000000 -10713687697113280749340175842148352.000000
vt 10431660197363285415112657361436672.000000 -10713687697113280749340175842148352.000000
vt 10431660197363285415112657361436672.000000 10713687697113280749340175842148352.000000
vt 10431660197363285415112657361436672.000000 -10713687697113280749340175842148352.000000
vt 10431660197363285415112657361436672.000000 10713687697113280749340175842148352.000000
vt 10431660197363285415112657361436672.000000 -10713687697113280749340175842148352.000000
vt 10431660197363285415112657361436672.000000 10713687697113280749340175842148352.000000
vt 10431660197363285415112657361436672.000000 -10713687697113280749340175842148352.000000
vt 10431660197363285415112657361436672.000000 10713687697113280749340175842148352.000000
vt 10431660197363285415112657361436672.000000 10713687697113280749340175842148352.000000
vt 10431660197363285415112657361436672.000000 10713687697113280749340175842148352.000000
vt 10431660197363285415112657361436672.000000 -10713687697113280749340175842148352.000000
vt 0.590006 0.400978
vt 0.532944 0.730952
vt 0.549800 0.404621
vt 0.680313 0.730952
vt 0.665230 0.901699
vt 0.680313 0.730952
vt 0.450200 0.404621
vt 0.467056 0.730952
vt 0.409994 0.400979
vt 10431660197363285415112657361436672.000000 -10713687697113280749340175842148352.000000
vt 10431660197363285415112657361436672.000000 10713687697113280749340175842148352.000000
vt 10431660197363285415112657361436672.000000 -10713687697113280749340175842148352.000000
vt 0.680313 0.730952
vt 0.705951 0.404620
vt 0.705951 0.404620
vt 0.680313 0.730952
vt 0.705951 0.404620
vt 0.680313 0.730952
vt 0.365438 0.008095
vt 0.007841 0.008096
vt 0.322992 0.431422
vt 0.601562 0.402344
vt 0.322992 0.431422
vt 0.701890 0.797404
vt 10431660197363285415112657361436672.000000 10713687697113280749340175842148352.000000
vt 10431660197363285415112657361436672.000000 -10713687697113280749340175842148352.000000
vt 10431660197363285415112657361436672.000000 10713687697113280749340175842148352.000000
vt 10431660197363285415112657361436672.000000 10713687697113280749340175842148352.000000
vt 10431660197363285415112657361436672.000000 10713687697113280749340175842148352.000000
vt 10431660197363285415112657361436672.000000 -10713687697113280749340175842148352.000000
vt 0.939453 0.791016
vt 0.847656 0.343750
vt 0.601562 0.402344
vt 0.739230 0.400979
vt 0.705951 0.404620
vt 0.680313 0.730952
vt 0.680313 0.730952
vt 0.705951 0.404620
vt 0.739230 0.400979
vt 0.994141 0.990234
vt 0.939453 0.791016
vt 0.701890 0.797404
vt 10431660197363285415112657361436672.000000 10713687697113280749340175842148352.000000
vt 10431660197363285415112657361436672.000000 -10713687697113280749340175842148352.000000
vt 10431660197363285415112657361436672.000000 10713687697113280749340175842148352.000000
vt 0.847656 0.343750
vt 0.796875 0.007812
vt 0.365438 0.008095
vt 0.675781 0.277344
vt 0.769531 0.609375
vt 0.535156 0.375000
vt 0.769531 0.609375
vt 0.675781 0.277344
vt 0.875000 0.500000
vt 10431660197363285415112657361436672.000000 10713687697113280749340175842148352.000000
vt 10431660197363285415112657361436672.000000 -10713687697113280749340175842148352.000000
vt 10431660197363285415112657361436672.000000 10713687697113280749340175842148352.000000
vt 0.667796 0.405597
vt 0.657103 0.711009
vt 0.705951 0.404620
vt 10431660197363285415112657361436672.000000 10713687697113280749340175842148352.000000
vt 10431660197363285415112657361436672.000000 -10713687697113280749340175842148352.000000
vt 10431660197363285415112657361436672.000000 10713687697113280749340175842148352.000000
vt 10431660197363285415112657361436672.000000 -10713687697113280749340175842148352.000000
vt 10431660197363285415112657361436672.000000 10713687697113280749340175842148352.000000
vt 10431660197363285415112657361436672.000000 -10713687697113280749340175842148352.000000
vt 10431660197363285415112657361436672.000000 -10713687697113280749340175842148352.000000
vt 10431660197363285415112657361436672.000000 -10713687697113280749340175842148352.000000
vt 10431660197363285415112657361436672.000000 10713687697113280749340175842148352.000000
vt 10431660197363285415112657361436672.000000 -10713687697113280749340175842148352.000000
vt 10431660197363285415112657361436672.000000 10713687697113280749340175842148352.000000
vt 10431660197363285415112657361436672.000000 -10713687697113280749340175842148352.000000
vt 10431660197363285415112657361436672.000000 10713687697113280749340175842148352.000000
vt 10431660197363285415112657361436672.000000 -10713687697113280749340175842148352.000000
vt 10431660197363285415112657361436672.000000 10713687697113280749340175842148352.000000
vt 10431660197363285415112657361436672.000000 -10713687697113280749340175842148352.000000
vt 10431660197363285415112657361436672.000000 10713687697113280749340175842148352.000000
vt 10431660197363285415112657361436672.000000 -10713687697113280749340175842148352.000000
vt 10431660197363285415112657361436672.000000 -10713687697113280749340175842148352.000000
vt 10431660197363285415112657361436672.000000 -10713687697113280749340175842148352.000000
vt 10431660197363285415112657361436672.000000 10713687697113280749340175842148352.000000
vt 10431660197363285415112657361436672.000000 -10713687697113280749340175842148352.000000
vt 10431660197363285415112657361436672.000000 10713687697113280749340175842148352.000000
vt 10431660197363285415112657361436672.000000 -10713687697113280749340175842148352.000000
vt 10431660197363285415112657361436672.000000 -10713687697113280749340175842148352.000000
vt 10431660197363285415112657361436672.000000 -10713687697113280749340175842148352.000000
vt 10431660197363285415112657361436672.000000 10713687697113280749340175842148352.000000
vt 10431660197363285415112657361436672.000000 -10713687697113280749340175842148352.000000
vt 10431660197363285415112657361436672.000000 10713687697113280749340175842148352.000000
vt 10431660197363285415112657361436672.000000 -10713687697113280749340175842148352.000000
vt 0.409994 0.400979
vt 0.467056 0.730952
vt 0.450200 0.404621
vt 0.701890 0.797404
vt 0.322992 0.431422
vt 0.601562 0.402344
vt 0.322992 0.431422
vt 0.007841 0.008096
vt 0.365438 0.008096
vt 0.601562 0.402344
vt 0.847656 0.343750
vt 0.939453 0.791016
vt 10431660197363285415112657361436672.000000 10713687697113280749340175842148352.000000
vt 10431660197363285415112657361436672.000000 -10713687697113280749340175842148352.000000
vt 10431660197363285415112657361436672.000000 10713687697113280749340175842148352.000000
vt 10431660197363285415112657361436672.000000 10713687697113280749340175842148352.000000
vt 10431660197363285415112657361436672.000000 10713687697113280749340175842148352.000000
vt 10431660197363285415112657361436672.000000 -10713687697113280749340175842148352.000000
vt 0.939453 0.791016
vt 0.994141 0.990234
vt 0.701890 0.797404
vt 0.365438 0.008096
vt 0.796875 0.007812
vt 0.847656 0.343750
vt 0.847656 0.343750
vt 0.796875 0.007812
vt 0.365438 0.008095
vt 10431660197363285415112657361436672.000000 -10713687697113280749340175842148352.000000
vt 10431660197363285415112657361436672.000000 10713687697113280749340175842148352.000000
vt 10431660197363285415112657361436672.000000 -10713687697113280749340175842148352.000000
vt 0.994141 0.990234
vt 0.939453 0.791016
vt 0.701890 0.797404
vt 0.699219 0.542969
vt 0.769531 0.390625
vt 0.597656 0.437500
vt 10431660197363285415112657361436672.000000 10713687697113280749340175842148352.000000
vt 10431660197363285415112657361436672.000000 -10713687697113280749340175842148352.000000
vt 10431660197363285415112657361436672.000000 10713687697113280749340175842148352.000000
vt 0.939453 0.791016
vt 0.847656 0.343750
vt 0.601562 0.402344
vt 0.701890 0.797404
vt 0.322992 0.431422
vt 0.601562 0.402344
vt 10431660197363285415112657361436672.000000 -10713687697113280749340175842148352.000000
vt 10431660197363285415112657361436672.000000 10713687697113280749340175842148352.000000
vt 10431660197363285415112657361436672.000000 -10713687697113280749340175842148352.000000
vt 10431660197363285415112657361436672.000000 -10713687697113280749340175842148352.000000
vt 10431660197363285415112657361436672.000000 -10713687697113280749340175842148352.000000
vt 10431660197363285415112657361436672.000000 10713687697113280749340175842148352.000000
vt 0.601562 0.402344
vt 0.322992 0.431422
vt 0.701890 0.797404
vt 0.365438 0.008095
vt 0.007841 0.008096
vt 0.322992 0.431422
vt 10431660197363285415112657361436672.000000 -10713687697113280749340175842148352.000000
vt 10431660197363285415112657361436672.000000 10713687697113280749340175842148352.000000
vt 10431660197363285415112657361436672.000000 -10713687697113280749340175842148352.000000
vt 0.472656 0.351562
vt 0.500000 0.128906
vt 0.660156 0.128906
vt 0.472656 0.351562
vt 0.660156 0.128906
vt 0.699219 0.351562
vt 0.535156 0.375000
vt 0.769531 0.609375
vt 0.675781 0.277344
vt 0.875000 0.500000
vt 0.675781 0.277344
vt 0.769531 0.609375
vt 10431660197363285415112657361436672.000000 10713687697113280749340175842148352.000000
vt 10431660197363285415112657361436672.000000 -10713687697113280749340175842148352.000000
vt 10431660197363285415112657361436672.000000 10713687697113280749340175842148352.000000
vt 10431660197363285415112657361436672.000000 -10713687697113280749340175842148352.000000
vt 10431660197363285415112657361436672.000000 10713687697113280749340175842148352.000000
vt 10431660197363285415112657361436672.000000 -10713687697113280749340175842148352.000000
vt 0.644531 0.484375
vt 0.949219 0.785156
vt 0.839844 0.351562
vt 0.450200 0.404621
vt 0.435881 0.711010
vt 0.374518 0.405597
vt 0.549801 0.404621
vt 0.564119 0.711010
vt 0.435881 0.711010
vt 0.549801 0.404621
vt 0.435881 0.711010
vt 0.450200 0.404621
vt 10431660197363285415112657361436672.000000 10713687697113280749340175842148352.000000
vt 10431660197363285415112657361436672.000000 -10713687697113280749340175842148352.000000
vt 10431660197363285415112657361436672.000000 10713687697113280749340175842148352.000000
vt 10431660197363285415112657361436672.000000 -10713687697113280749340175842148352.000000
vt 10431660197363285415112657361436672.000000 10713687697113280749340175842148352.000000
vt 10431660197363285415112657361436672.000000 -10713687697113280749340175842148352.000000
vt 10431660197363285415112657361436672.000000 -10713687697113280749340175842148352.000000
vt 10431660197363285415112657361436672.000000 -10713687697113280749340175842148352.000000
vt 10431660197363285415112657361436672.000000 10713687697113280749340175842148352.000000
vt 10431660197363285415112657361436672.000000 -10713687697113280749340175842148352.000000
vt 10431660197363285415112657361436672.000000 10713687697113280749340175842148352.000000
vt 10431660197363285415112657361436672.000000 -10713687697113280749340175842148352.000000
vt 10431660197363285415112657361436672.000000 10713687697113280749340175842148352.000000
vt 10431660197363285415112657361436672.000000 -10713687697113280749340175842148352.000000
vt 10431660197363285415112657361436672.000000 10713687697113280749340175842148352.000000
vt 0.332204 0.405597
vt 0.342897 0.711010
vt 0.294049 0.404621
vt 10431660197363285415112657361436672.000000 10713687697113280749340175842148352.000000
vt 10431660197363285415112657361436672.000000 -10713687697113280749340175842148352.000000
vt 10431660197363285415112657361436672.000000 10713687697113280749340175842148352.000000
vt 10431660197363285415112657361436672.000000 10713687697113280749340175842148352.000000
vt 10431660197363285415112657361436672.000000 10713687697113280749340175842148352.000000
vt 10431660197363285415112657361436672.000000 -10713687697113280749340175842148352.000000
vt 10431660197363285415112657361436672.000000 10713687697113280749340175842148352.000000
vt 10431660197363285415112657361436672.000000 -10713687697113280749340175842148352.000000
vt 10431660197363285415112657361436672.000000 10713687697113280749340175842148352.000000
vt 0.675781 0.277344
vt 0.769531 0.609375
vt 0.535156 0.375000
vt 10431660197363285415112657361436672.000000 10713687697113280749340175842148352.000000
vt 10431660197363285415112657361436672.000000 -10713687697113280749340175842148352.000000
vt 10431660197363285415112657361436672.000000 10713687697113280749340175842148352.000000
vt 10431660197363285415112657361436672.000000 -10713687697113280749340175842148352.000000
vt 10431660197363285415112657361436672.000000 10713687697113280749340175842148352.000000
vt 10431660197363285415112657361436672.000000 -10713687697113280749340175842148352.000000
vt 0.467056 0.730952
vt 0.450200 0.404621
vt 0.549800 0.404621
vt 0.467056 0.730952
vt 0.549800 0.404621
vt 0.532944 0.730952
vt 0.769531 0.609375
vt 0.675781 0.277344
vt 0.875000 0.500000
vt 0.365438 0.008095
vt 0.007841 0.008096
vt 0.322992 0.431422
vt 0.601562 0.402344
vt 0.322992 0.431422
vt 0.701890 0.797404
vt 10431660197363285415112657361436672.000000 -10713687697113280749340175842148352.000000
vt 10431660197363285415112657361436672.000000 10713687697113280749340175842148352.000000
vt 10431660197363285415112657361436672.000000 -10713687697113280749340175842148352.000000
vt 10431660197363285415112657361436672.000000 -10713687697113280749340175842148352.000000
vt 10431660197363285415112657361436672.000000 -10713687697113280749340175842148352.000000
vt 10431660197363285415112657361436672.000000 10713687697113280749340175842148352.000000
vt 0.939453 0.791016
vt 0.847656 0.343750
vt 0.601562 0.402344
vt 10431660197363285415112657361436672.000000 10713687697113280749340175842148352.000000
vt 10431660197363285415112657361436672.000000 -10713687697113280749340175842148352.000000
vt 10431660197363285415112657361436672.000000 10713687697113280749340175842148352.000000
vt 10431660197363285415112657361436672.000000 10713687697113280749340175842148352.000000
vt 10431660197363285415112657361436672.000000 10713687697113280749340175842148352.000000
vt 10431660197363285415112657361436672.000000 -10713687697113280749340175842148352.000000
vt 10431660197363285415112657361436672.000000 10713687697113280749340175842148352.000000
vt 10431660197363285415112657361436672.000000 -10713687697113280749340175842148352.000000
vt 10431660197363285415112657361436672.000000 10713687697113280749340175842148352.000000
vt 0.994141 0.990234
vt 0.939453 0.791016
vt 0.701890 0.797404
vt 10431660197363285415112657361436672.000000 10713687697113280749340175842148352.000000
vt 10431660197363285415112657361436672.000000 -10713687697113280749340175842148352.000000
vt 10431660197363285415112657361436672.000000 10713687697113280749340175842148352.000000
vt 10431660197363285415112657361436672.000000 10713687697113280749340175842148352.000000
vt 10431660197363285415112657361436672.000000 10713687697113280749340175842148352.000000
vt 10431660197363285415112657361436672.000000 -10713687697113280749340175842148352.000000
vt 0.847656 0.343750
vt 0.796875 0.007812
vt 0.365438 0.008095
vt 0.601562 0.402344
vt 0.847656 0.343750
vt 0.939453 0.791016
vt 10431660197363285415112657361436672.000000 10713687697113280749340175842148352.000000
vt 10431660197363285415112657361436672.000000 -10713687697113280749340175842148352.000000
vt 10431660197363285415112657361436672.000000 10713687697113280749340175842148352.000000
vt 10431660197363285415112657361436672.000000 -10713687697113280749340175842148352.000000
vt 10431660197363285415112657361436672.000000 10713687697113280749340175842148352.000000
vt 10431660197363285415112657361436672.000000 -10713687697113280749340175842148352.000000
vt 10431660197363285415112657361436672.000000 -10713687697113280749340175842148352.000000
vt 10431660197363285415112657361436672.000000 -10713687697113280749340175842148352.000000
vt 10431660197363285415112657361436672.000000 10713687697113280749340175842148352.000000
vt 0.625482 0.405597
vt 0.564119 0.711010
vt 0.549801 0.404621
vt 10431660197363285415112657361436672.000000 10713687697113280749340175842148352.000000
vt 10431660197363285415112657361436672.000000 -10713687697113280749340175842148352.000000
vt 10431660197363285415112657361436672.000000 10713687697113280749340175842148352.000000
vt 10431660197363285415112657361436672.000000 -10713687697113280749340175842148352.000000
vt 10431660197363285415112657361436672.000000 10713687697113280749340175842148352.000000
vt 10431660197363285415112657361436672.000000 -10713687697113280749340175842148352.000000
vt 10431660197363285415112657361436672.000000 -10713687697113280749340175842148352.000000
vt 10431660197363285415112657361436672.000000 -10713687697113280749340175842148352.000000
vt 10431660197363285415112657361436672.000000 10713687697113280749340175842148352.000000
vt 10431660197363285415112657361436672.000000 -10713687697113280749340175842148352.000000
vt 10431660197363285415112657361436672.000000 10713687697113280749340175842148352.000000
vt 10431660197363285415112657361436672.000000 -10713687697113280749340175842148352.000000
vt 0.644531 0.484375
vt 0.839844 0.351562
vt 0.949219 0.785156
vt 10431660197363285415112657361436672.000000 -10713687697113280749340175842148352.000000
vt 10431660197363285415112657361436672.000000 10713687697113280749340175842148352.000000
vt 10431660197363285415112657361436672.000000 -10713687697113280749340175842148352.000000
vt 10431660197363285415112657361436672.000000 -10713687697113280749340175842148352.000000
vt 10431660197363285415112657361436672.000000 -10713687697113280749340175842148352.000000
vt 10431660197363285415112657361436672.000000 10713687697113280749340175842148352.000000
vt 10431660197363285415112657361436672.000000 -10713687697113280749340175842148352.000000
vt 10431660197363285415112657361436672.000000 10713687697113280749340175842148352.000000
vt 10431660197363285415112657361436672.000000 -10713687697113280749340175842148352.000000
vt 10431660197363285415112657361436672.000000 10713687697113280749340175842148352.000000
vt 10431660197363285415112657361436672.000000 -10713687697113280749340175842148352.000000
vt 10431660197363285415112657361436672.000000 10713687697113280749340175842148352.000000
vt 10431660197363285415112657361436672.000000 -10713687697113280749340175842148352.000000
vt 10431660197363285415112657361436672.000000 10713687697113280749340175842148352.000000
vt 10431660197363285415112657361436672.000000 -10713687697113280749340175842148352.000000
vt 0.365438 0.008096
vt 0.796875 0.007812
vt 0.847656 0.343750
vt 0.322992 0.431422
vt 0.007841 0.008096
vt 0.365438 0.008096
vt 0.701890 0.797404
vt 0.322992 0.431422
vt 0.601562 0.402344
vt 10431660197363285415112657361436672.000000 -10713687697113280749340175842148352.000000
vt 10431660197363285415112657361436672.000000 10713687697113280749340175842148352.000000
vt 10431660197363285415112657361436672.000000 -10713687697113280749340175842148352.000000
vt 10431660197363285415112657361436672.000000 -10713687697113280749340175842148352.000000
vt 10431660197363285415112657361436672.000000 -10713687697113280749340175842148352.000000
vt 10431660197363285415112657361436672.000000 10713687697113280749340175842148352.000000
vt 0.601562 0.402344
vt 0.847656 0.343750
vt 0.939453 0.791016
vt 0.939453 0.791016
vt 0.994141 0.990234
vt 0.701890 0.797404
vt 0.365438 0.008095
vt 0.601562 0.402344
vt 0.847656 0.343750
vt 0.847656 0.343750
vt 0.601562 0.402344
vt 0.365438 0.008096
vt 0.322992 0.431422
vt 0.601562 0.402344
vt 0.365438 0.008095
vt 0.365438 0.008096
vt 0.601562 0.402344
vt 0.322992 0.431422
vt 0.701890 0.797404
vt 0.939453 0.791016
vt 0.601562 0.402344
vt 0.601562 0.402344
vt 0.939453 0.791016
vt 0.701890 0.797404
vt 0.365438 0.008095
vt 0.601562 0.402344
vt 0.847656 0.343750
vt 0.847656 0.343750
vt 0.601562 0.402344
vt 0.365438 0.008096
vt 0.322992 0.431422
vt 0.601562 0.402344
vt 0.365438 0.008095
vt 0.365438 0.008096
vt 0.601562 0.402344
vt 0.322992 0.431422
vt 0.601562 0.402344
vt 0.939453 0.791016
vt 0.701890 0.797404
vt 0.701890 0.797404
vt 0.939453 0.791016
vt 0.601562 0.402344
vt 0.847656 0.343750
vt 0.601562 0.402344
vt 0.365438 0.008096
vt 0.365438 0.008096
vt 0.601562 0.402344
vt 0.322992 0.431422
vt 0.322992 0.431422
vt 0.601562 0.402344
vt 0.365438 0.008095
vt 0.601562 0.402344
vt 0.939453 0.791016
vt 0.701890 0.797404
vt 0.701890 0.797404
vt 0.939453 0.791016
vt 0.601562 0.402344
vt 0.365438 0.008095
vt 0.601562 0.402344
vt 0.847656 0.343750
vt 0.847656 0.343750
vt 0.601562 0.402344
vt 0.365438 0.008096
vt 0.365438 0.008096
vt 0.601562 0.402344
vt 0.322992 0.431422
vt 0.322992 0.431422
vt 0.601562 0.402344
vt 0.365438 0.008095
vt 0.365438 0.008095
vt 0.601562 0.402344
vt 0.847656 0.343750
vt 0.701890 0.797404
vt 0.939453 0.791016
vt 0.601562 0.402344
vt 0.601562 0.402344
vt 0.939453 0.791016
vt 0.701890 0.797404
vt 0.000000 0.000000
vt 0.000000 0.000000
vt 0.000000 0.000000
vt 0.000000 0.000000
vt 0.000000 0.000000
vt 0.000000 0.000000
vt 0.000000 0.000000
vt 0.000000 0.000000
vt 0.000000 0.000000
vt 0.000000 0.000000
vt 0.000000 0.000000
vt 0.000000 0.000000
vn -0.210139 0.474588 -0.854756
vn -0.000000 0.685968 -0.727631
vn -0.681557 0.623683 -0.382753
vn 0.681557 0.623683 -0.382754
vn -0.000000 0.685968 -0.727631
vn 0.210138 0.474588 -0.854756
vn -0.210138 0.474588 0.854756
vn -0.000000 0.685968 0.727632
vn 0.210138 0.474588 0.854756
vn 0.301297 -0.225214 0.926552
vn 0.301297 -0.225214 0.926552
vn 0.301278 -0.178011 0.936773
vn 0.210138 0.474588 0.854756
vn -0.000000 0.685968 0.727632
vn 0.681556 0.623683 0.382755
vn -0.683375 -0.256896 -0.683376
vn -0.516611 -0.200814 -0.832338
vn -0.832338 -0.200815 -0.516611
vn -0.681556 0.623683 0.382754
vn -0.000000 0.685968 0.727632
vn -0.210138 0.474588 0.854756
vn 0.860821 0.129545 -0.492143
vn 0.848737 0.269610 -0.454924
vn 0.951691 0.195227 -0.237005
vn 0.511402 0.133610 -0.848891
vn 0.235354 0.197618 -0.951607
vn 0.469081 0.273394 -0.839773
vn -0.324971 0.426611 0.844036
vn -0.210138 0.474588 0.854756
vn 0.210138 0.474588 0.854756
vn -0.324971 0.426611 0.844036
vn 0.210138 0.474588 0.854756
vn 0.324971 0.426610 0.844036
vn -0.000000 0.685968 0.727632
vn 0.670654 0.703858 0.234109
vn 0.681556 0.623683 0.382755
vn 0.612762 0.756928 0.227119
vn 0.681556 0.623683 0.382755
vn 0.670654 0.703858 0.234109
vn -0.848622 0.057425 0.525873
vn -0.838522 0.239733 0.489295
vn -0.838522 0.239733 0.489295
vn -0.301297 -0.225215 0.926552
vn -0.301297 -0.225215 0.926552
vn -0.301277 -0.178011 0.936773
vn 0.670654 0.703858 0.234109
vn 0.583188 0.720355 0.375474
vn 0.612762 0.756928 0.227119
vn 0.477879 0.397494 0.783345
vn 0.324971 0.426610 0.844036
vn 0.210138 0.474588 0.854756
vn 0.783345 0.397494 0.477879
vn 0.844036 0.426610 0.324972
vn 0.324971 0.426610 0.844036
vn 0.783345 0.397494 0.477879
vn 0.324971 0.426610 0.844036
vn 0.477879 0.397494 0.783345
vn -0.845386 0.336015 0.415231
vn -0.845386 0.336015 0.415231
vn -0.884174 0.255419 0.391149
vn -0.300613 -0.271891 -0.914170
vn -0.300613 -0.271891 -0.914170
vn -0.301298 -0.225214 -0.926552
vn -0.300613 -0.271891 -0.914170
vn -0.301298 -0.225214 -0.926552
vn -0.301298 -0.225214 -0.926552
vn 0.917193 0.257773 0.303825
vn 0.848737 0.269610 0.454924
vn 0.951691 0.195227 0.237005
vn 0.860821 0.129545 -0.492143
vn 0.670320 0.083016 -0.737414
vn 0.848737 0.269610 -0.454924
vn -0.838522 0.239733 0.489295
vn -0.845386 0.336015 0.415231
vn -0.845386 0.336015 0.415231
vn -0.838522 0.239733 0.489295
vn -0.845386 0.336015 0.415231
vn -0.838522 0.239733 0.489295
vn 0.095430 0.083245 -0.991949
vn 0.235354 0.197618 -0.951607
vn 0.511402 0.133610 -0.848891
vn -0.416765 -0.166653 0.893607
vn -0.095430 -0.083245 0.991949
vn -0.516612 -0.200815 0.832337
vn -0.218039 0.441888 -0.870169
vn -0.221679 0.401540 -0.888608
vn -0.304888 0.337035 -0.890759
vn -0.516612 -0.200815 0.832337
vn -0.683376 -0.256897 0.683375
vn -0.832338 -0.200815 0.516610
vn -0.304802 0.337048 0.890783
vn -0.221453 0.401544 0.888662
vn -0.217881 0.441933 0.870185
vn -0.243574 0.484181 0.840381
vn -0.217881 0.441933 0.870185
vn -0.292334 0.522145 0.801190
vn 0.670319 0.083015 0.737415
vn 0.676056 -0.126037 0.725991
vn 0.676056 -0.126037 0.725991
vn 0.670319 0.083015 0.737415
vn 0.676056 -0.126037 0.725991
vn 0.860821 0.129545 0.492143
vn -0.292509 0.543834 0.786564
vn -0.331032 0.380320 0.863582
vn -0.243574 0.484181 0.840381
vn -0.516612 -0.200815 0.832337
vn -0.832338 -0.200815 0.516610
vn -0.893608 -0.166653 0.416764
vn -0.516612 -0.200815 0.832337
vn -0.893608 -0.166653 0.416764
vn -0.416765 -0.166653 0.893607
vn -0.991949 -0.083246 0.095428
vn -0.893608 -0.166653 0.416764
vn -0.832338 -0.200815 0.516610
vn -0.329852 0.537823 0.775850
vn -0.292509 0.543834 0.786564
vn -0.292334 0.522145 0.801190
vn 0.951691 0.195227 -0.237005
vn 0.991949 0.083246 -0.095428
vn 0.860821 0.129545 -0.492143
vn -0.331032 0.380320 0.863582
vn -0.520473 0.125919 0.844542
vn -0.304802 0.337048 0.890783
vn 0.516612 -0.200815 0.832337
vn 0.832338 -0.200815 0.516611
vn 0.683376 -0.256899 0.683374
vn 0.670655 0.703857 -0.234109
vn 0.612762 0.756928 -0.227119
vn 0.583188 0.720354 -0.375475
vn -0.925417 -0.224226 0.305494
vn -0.925417 -0.224226 0.305494
vn -0.934796 -0.177606 0.307593
vn 0.416765 -0.166652 0.893608
vn 0.893607 -0.166651 0.416765
vn 0.832338 -0.200815 0.516611
vn 0.416765 -0.166652 0.893608
vn 0.832338 -0.200815 0.516611
vn 0.516612 -0.200815 0.832337
vn 0.477880 0.397493 -0.783345
vn 0.324972 0.426610 -0.844036
vn 0.844036 0.426610 -0.324972
vn 0.477880 0.397493 -0.783345
vn 0.844036 0.426610 -0.324972
vn 0.783346 0.397493 -0.477879
vn 0.516612 -0.200815 0.832337
vn 0.095429 -0.083245 0.991949
vn 0.416765 -0.166652 0.893608
vn 0.991949 -0.083244 0.095431
vn 0.832338 -0.200815 0.516611
vn 0.893607 -0.166651 0.416765
vn 0.903811 0.400968 -0.149499
vn 0.844036 0.426610 -0.324972
vn 0.844036 0.426610 0.324972
vn 0.903811 0.400968 -0.149499
vn 0.844036 0.426610 0.324972
vn 0.903812 0.400968 0.149498
vn -0.304888 0.337035 -0.890759
vn -0.520473 0.125919 -0.844542
vn -0.331031 0.380321 -0.863582
vn 0.513472 0.184720 -0.837988
vn 0.490093 0.241086 -0.837667
vn 0.542969 0.066248 -0.837136
vn 0.903812 0.400968 0.149498
vn 0.844036 0.426610 0.324972
vn 0.783345 0.397494 0.477879
vn 0.375615 0.232209 -0.897214
vn 0.405772 0.324593 -0.854394
vn 0.405772 0.324593 -0.854394
vn -0.925417 -0.224225 -0.305493
vn -0.925417 -0.224225 -0.305493
vn -0.913942 -0.270337 -0.302702
vn -0.925417 -0.224225 -0.305493
vn -0.913942 -0.270337 -0.302702
vn -0.913942 -0.270337 -0.302702
vn 0.300829 0.266303 0.915742
vn 0.235354 0.197617 0.951607
vn 0.469080 0.273394 0.839773
vn -0.838522 0.239733 -0.489295
vn -0.845386 0.336015 -0.415231
vn -0.845386 0.336015 -0.415231
vn -0.838522 0.239733 -0.489295
vn -0.845386 0.336015 -0.415231
vn -0.838522 0.239733 -0.489295
vn 0.513472 0.184720 -0.837988
vn 0.405772 0.324593 -0.854394
vn 0.405772 0.324593 -0.854394
vn 0.513472 0.184720 -0.837988
vn 0.405772 0.324593 -0.854394
vn 0.490093 0.241086 -0.837667
vn 0.511402 0.133609 0.848891
vn 0.767418 0.089654 0.634847
vn 0.469080 0.273394 0.839773
vn -0.860821 0.129545 -0.492143
vn -0.951690 0.195226 -0.237006
vn -0.848737 0.269609 -0.454924
vn -0.925417 -0.224225 -0.305493
vn -0.934796 -0.177606 -0.307593
vn -0.925417 -0.224225 -0.305493
vn 0.870169 0.441889 -0.218038
vn 0.888607 0.401542 -0.221678
vn 0.890759 0.337036 -0.304887
vn 0.801192 0.522060 -0.292480
vn 0.870169 0.441889 -0.218038
vn 0.840384 0.484135 -0.243655
vn 0.511402 0.133609 0.848891
vn 0.750418 -0.111109 0.651558
vn 0.750418 -0.111109 0.651558
vn 0.511402 0.133609 0.848891
vn 0.750418 -0.111109 0.651558
vn 0.767418 0.089654 0.634847
vn 0.840384 0.484135 -0.243655
vn 0.863582 0.380322 -0.331030
vn 0.786562 0.543781 -0.292614
vn 0.786562 0.543781 -0.292614
vn 0.775828 0.537763 -0.330002
vn 0.801192 0.522060 -0.292480
vn 0.890759 0.337036 -0.304887
vn 0.844542 0.125920 -0.520473
vn 0.863582 0.380322 -0.331030
vn -0.991949 0.083246 -0.095431
vn -0.951690 0.195226 -0.237006
vn -0.860821 0.129545 -0.492143
vn 0.951691 0.195227 0.237005
vn 0.848737 0.269610 0.454924
vn 0.860821 0.129545 0.492143
vn -0.511401 0.133609 -0.848892
vn -0.235354 0.197618 -0.951607
vn -0.095429 0.083245 -0.991949
vn -0.301298 -0.225214 -0.926552
vn -0.301279 -0.178011 -0.936773
vn -0.301298 -0.225214 -0.926552
vn 0.783346 0.397493 -0.477879
vn 0.844036 0.426610 -0.324972
vn 0.903811 0.400968 -0.149499
vn 0.991949 0.083246 0.095429
vn 0.951691 0.195227 0.237005
vn 0.860821 0.129545 0.492143
vn -0.511401 0.133609 -0.848892
vn -0.469081 0.273394 -0.839773
vn -0.235354 0.197618 -0.951607
vn -0.235354 0.197617 0.951607
vn -0.469079 0.273393 0.839774
vn -0.511401 0.133609 0.848892
vn -0.511401 0.133609 0.848892
vn -0.095431 0.083246 0.991949
vn -0.235354 0.197617 0.951607
vn 0.516612 -0.200815 -0.832337
vn 0.416765 -0.166653 -0.893607
vn 0.095431 -0.083246 -0.991949
vn -0.844037 0.426610 -0.324971
vn -0.903812 0.400967 -0.149498
vn -0.903812 0.400967 0.149498
vn -0.844037 0.426610 -0.324971
vn -0.903812 0.400967 0.149498
vn -0.844036 0.426610 0.324972
vn -0.292615 0.543781 -0.786562
vn -0.330002 0.537764 -0.775828
vn -0.292481 0.522060 -0.801192
vn -0.542969 0.066248 -0.837136
vn -0.490093 0.241085 -0.837667
vn -0.513473 0.184720 -0.837988
vn 0.301297 -0.225214 -0.926552
vn 0.301277 -0.178012 -0.936773
vn 0.301297 -0.225214 -0.926552
vn -0.783346 0.397493 0.477879
vn -0.844036 0.426610 0.324972
vn -0.903812 0.400967 0.149498
vn -0.477879 0.397494 0.783345
vn -0.324971 0.426611 0.844036
vn -0.844036 0.426610 0.324972
vn -0.477879 0.397494 0.783345
vn -0.844036 0.426610 0.324972
vn -0.783346 0.397493 0.477879
vn -0.405772 0.324593 -0.854394
vn -0.405772 0.324593 -0.854394
vn -0.375615 0.232208 -0.897214
vn 0.913942 -0.270337 -0.302702
vn 0.913942 -0.270337 -0.302702
vn 0.925417 -0.224225 -0.305494
vn 0.913942 -0.270337 -0.302702
vn 0.925417 -0.224225 -0.305494
vn 0.925417 -0.224225 -0.305494
vn -0.300829 0.266302 0.915743
vn -0.469079 0.273393 0.839774
vn -0.235354 0.197617 0.951607
vn -0.490093 0.241085 -0.837667
vn -0.405772 0.324593 -0.854394
vn -0.405772 0.324593 -0.854394
vn -0.490093 0.241085 -0.837667
vn -0.405772 0.324593 -0.854394
vn -0.513473 0.184720 -0.837988
vn -0.991949 -0.083247 -0.095429
vn -0.832338 -0.200815 -0.516611
vn -0.893607 -0.166653 -0.416764
vn 0.516612 -0.200815 -0.832337
vn 0.683376 -0.256897 -0.683375
vn 0.832338 -0.200815 -0.516611
vn -0.416765 -0.166652 -0.893607
vn -0.516611 -0.200814 -0.832338
vn -0.095430 -0.083245 -0.991949
vn 0.542969 0.066248 0.837135
vn 0.490093 0.241085 0.837668
vn 0.513473 0.184720 0.837988
vn 0.832338 -0.200815 -0.516611
vn 0.893607 -0.166653 -0.416765
vn 0.416765 -0.166653 -0.893607
vn 0.832338 -0.200815 -0.516611
vn 0.416765 -0.166653 -0.893607
vn 0.516612 -0.200815 -0.832337
vn -0.890783 0.337048 -0.304801
vn -0.888663 0.401544 -0.221452
vn -0.870185 0.441933 -0.217881
vn -0.840381 0.484181 -0.243574
vn -0.870185 0.441933 -0.217881
vn -0.801190 0.522145 -0.292334
vn -0.767417 0.089653 0.634850
vn -0.750417 -0.111110 0.651559
vn -0.750417 -0.111110 0.651559
vn -0.767417 0.089653 0.634850
vn -0.750417 -0.111110 0.651559
vn -0.511401 0.133609 0.848892
vn -0.786565 0.543834 -0.292507
vn -0.863582 0.380321 -0.331031
vn -0.840381 0.484181 -0.243574
vn 0.991949 -0.083246 -0.095431
vn 0.893607 -0.166653 -0.416765
vn 0.832338 -0.200815 -0.516611
vn -0.951690 0.195226 0.237006
vn -0.991949 0.083246 0.095431
vn -0.860821 0.129545 0.492143
vn -0.775850 0.537824 -0.329851
vn -0.786565 0.543834 -0.292507
vn -0.801190 0.522145 -0.292334
vn -0.860821 0.129545 0.492143
vn -0.848737 0.269609 0.454925
vn -0.951690 0.195226 0.237006
vn -0.863582 0.380321 -0.331031
vn -0.844543 0.125919 -0.520473
vn -0.890783 0.337048 -0.304801
vn -0.681556 0.623683 0.382754
vn -0.670655 0.703857 0.234109
vn -0.000000 0.685968 0.727632
vn -0.670655 0.703857 0.234109
vn -0.681556 0.623683 0.382754
vn -0.612763 0.756927 0.227119
vn 0.838522 0.239733 0.489294
vn 0.838522 0.239733 0.489294
vn 0.848623 0.057424 0.525873
vn -0.210138 0.474588 0.854756
vn -0.324971 0.426611 0.844036
vn -0.477879 0.397494 0.783345
vn 0.884174 0.255419 0.391149
vn 0.845386 0.336015 0.415230
vn 0.845386 0.336015 0.415230
vn 0.301297 -0.225214 -0.926552
vn 0.301297 -0.225214 -0.926552
vn 0.300613 -0.271891 -0.914170
vn 0.301297 -0.225214 -0.926552
vn 0.300613 -0.271891 -0.914170
vn 0.300613 -0.271891 -0.914170
vn -0.917193 0.257773 0.303825
vn -0.951690 0.195226 0.237006
vn -0.848737 0.269609 0.454925
vn 0.917193 0.257773 -0.303825
vn 0.951691 0.195227 -0.237005
vn 0.848737 0.269610 -0.454924
vn -0.301297 -0.225215 0.926552
vn -0.301297 -0.225215 0.926552
vn -0.300613 -0.271892 0.914170
vn -0.301297 -0.225215 0.926552
vn -0.300613 -0.271892 0.914170
vn -0.300613 -0.271892 0.914170
vn 0.838522 0.239733 0.489294
vn 0.845386 0.336015 0.415230
vn 0.845386 0.336015 0.415230
vn 0.838522 0.239733 0.489294
vn 0.845386 0.336015 0.415230
vn 0.838522 0.239733 0.489294
vn -0.860821 0.129545 0.492143
vn -0.670320 0.083015 0.737415
vn -0.848737 0.269609 0.454925
vn 0.511402 0.133609 0.848891
vn 0.235354 0.197617 0.951607
vn 0.095430 0.083245 0.991949
vn -0.292481 0.522060 -0.801192
vn -0.218039 0.441888 -0.870169
vn -0.243657 0.484134 -0.840384
vn 0.218040 0.441888 0.870169
vn 0.221680 0.401541 0.888607
vn 0.304888 0.337035 0.890759
vn 0.243656 0.484134 0.840384
vn 0.331030 0.380321 0.863583
vn 0.292613 0.543781 0.786562
vn -0.860821 0.129545 0.492143
vn -0.676057 -0.126037 0.725990
vn -0.676057 -0.126037 0.725990
vn -0.860821 0.129545 0.492143
vn -0.676057 -0.126037 0.725990
vn -0.670320 0.083015 0.737415
vn 0.292613 0.543781 0.786562
vn 0.330001 0.537764 0.775828
vn 0.292480 0.522060 0.801192
vn 0.304888 0.337035 0.890759
vn 0.520473 0.125919 0.844542
vn 0.331030 0.380321 0.863583
vn 0.863582 0.380322 0.331030
vn 0.844543 0.125920 0.520473
vn 0.890783 0.337049 0.304801
vn 0.469080 0.273394 0.839773
vn 0.235354 0.197617 0.951607
vn 0.511402 0.133609 0.848891
vn 0.775850 0.537823 0.329853
vn 0.786565 0.543834 0.292508
vn 0.801190 0.522145 0.292335
vn 0.210138 0.474588 -0.854756
vn -0.000000 0.685968 -0.727631
vn -0.210139 0.474588 -0.854756
vn 0.925417 -0.224225 -0.305494
vn 0.934795 -0.177606 -0.307594
vn 0.925417 -0.224225 -0.305494
vn 0.786565 0.543834 0.292508
vn 0.863582 0.380322 0.331030
vn 0.840381 0.484182 0.243573
vn 0.292480 0.522060 0.801192
vn 0.218040 0.441888 0.870169
vn 0.243656 0.484134 0.840384
vn 0.767418 0.089654 -0.634848
vn 0.750418 -0.111108 -0.651558
vn 0.750418 -0.111108 -0.651558
vn 0.767418 0.089654 -0.634848
vn 0.750418 -0.111108 -0.651558
vn 0.511402 0.133610 -0.848891
vn 0.840381 0.484182 0.243573
vn 0.870185 0.441934 0.217881
vn 0.801190 0.522145 0.292335
vn 0.890783 0.337049 0.304801
vn 0.888662 0.401545 0.221452
vn 0.870185 0.441934 0.217881
vn -0.838522 0.239733 -0.489295
vn -0.838522 0.239733 -0.489295
vn -0.848622 0.057425 -0.525874
vn 0.324972 0.426610 -0.844036
vn 0.210138 0.474588 -0.854756
vn -0.210139 0.474588 -0.854756
vn 0.324972 0.426610 -0.844036
vn -0.210139 0.474588 -0.854756
vn -0.324972 0.426610 -0.844036
vn -0.000000 0.685968 -0.727631
vn -0.670655 0.703858 -0.234108
vn -0.681557 0.623683 -0.382753
vn -0.612762 0.756928 -0.227118
vn -0.681557 0.623683 -0.382753
vn -0.670655 0.703858 -0.234108
vn 0.848622 0.057425 -0.525873
vn 0.838522 0.239733 -0.489295
vn 0.838522 0.239733 -0.489295
vn 0.925417 -0.224226 0.305494
vn 0.934796 -0.177606 0.307593
vn 0.925417 -0.224226 0.305494
vn -0.670655 0.703858 -0.234108
vn -0.583188 0.720355 -0.375474
vn -0.612762 0.756928 -0.227118
vn -0.477880 0.397493 -0.783346
vn -0.324972 0.426610 -0.844036
vn -0.210139 0.474588 -0.854756
vn -0.783346 0.397493 -0.477880
vn -0.844037 0.426610 -0.324971
vn -0.324972 0.426610 -0.844036
vn -0.783346 0.397493 -0.477880
vn -0.324972 0.426610 -0.844036
vn -0.477880 0.397493 -0.783346
vn 0.845386 0.336015 -0.415231
vn 0.845386 0.336015 -0.415231
vn 0.884174 0.255418 -0.391149
vn 0.300613 -0.271892 0.914170
vn 0.300613 -0.271892 0.914170
vn 0.301297 -0.225214 0.926552
vn 0.300613 -0.271892 0.914170
vn 0.301297 -0.225214 0.926552
vn 0.301297 -0.225214 0.926552
vn -0.917193 0.257773 -0.303825
vn -0.848737 0.269609 -0.454924
vn -0.951690 0.195226 -0.237006
vn -0.884174 0.255419 -0.391149
vn -0.845386 0.336015 -0.415231
vn -0.845386 0.336015 -0.415231
vn 0.210138 0.474588 -0.854756
vn 0.324972 0.426610 -0.844036
vn 0.477880 0.397493 -0.783345
vn 0.838522 0.239733 -0.489295
vn 0.845386 0.336015 -0.415231
vn 0.845386 0.336015 -0.415231
vn 0.838522 0.239733 -0.489295
vn 0.845386 0.336015 -0.415231
vn 0.838522 0.239733 -0.489295
vn -0.848737 0.269609 -0.454924
vn -0.670321 0.083015 -0.737414
vn -0.860821 0.129545 -0.492143
vn 0.681557 0.623683 -0.382754
vn 0.670655 0.703857 -0.234109
vn -0.000000 0.685968 -0.727631
vn 0.848737 0.269610 0.454924
vn 0.670319 0.083015 0.737415
vn 0.860821 0.129545 0.492143
vn 0.469081 0.273394 -0.839773
vn 0.767418 0.089654 -0.634848
vn 0.511402 0.133610 -0.848891
vn -0.516611 -0.200814 -0.832338
vn -0.416765 -0.166652 -0.893607
vn -0.893607 -0.166653 -0.416764
vn -0.516611 -0.200814 -0.832338
vn -0.893607 -0.166653 -0.416764
vn -0.832338 -0.200815 -0.516611
vn 0.670655 0.703857 -0.234109
vn 0.681557 0.623683 -0.382754
vn 0.612762 0.756928 -0.227119
vn 0.304801 0.337049 -0.890783
vn 0.221453 0.401544 -0.888662
vn 0.217882 0.441933 -0.870185
vn 0.243574 0.484182 -0.840381
vn 0.217882 0.441933 -0.870185
vn 0.292336 0.522144 -0.801190
vn -0.670321 0.083015 -0.737414
vn -0.676057 -0.126037 -0.725990
vn -0.676057 -0.126037 -0.725990
vn -0.670321 0.083015 -0.737414
vn -0.676057 -0.126037 -0.725990
vn -0.860821 0.129545 -0.492143
vn 0.292509 0.543834 -0.786564
vn 0.331030 0.380321 -0.863582
vn 0.243574 0.484182 -0.840381
vn 0.490093 0.241085 0.837668
vn 0.405771 0.324592 0.854394
vn 0.405771 0.324592 0.854394
vn 0.490093 0.241085 0.837668
vn 0.405771 0.324592 0.854394
vn 0.513473 0.184720 0.837988
vn 0.300830 0.266303 -0.915742
vn 0.469081 0.273394 -0.839773
vn 0.235354 0.197618 -0.951607
vn 0.329854 0.537822 -0.775850
vn 0.292509 0.543834 -0.786564
vn 0.292336 0.522144 -0.801190
vn -0.913942 -0.270337 0.302702
vn -0.913942 -0.270337 0.302702
vn -0.925417 -0.224226 0.305494
vn -0.913942 -0.270337 0.302702
vn -0.925417 -0.224226 0.305494
vn -0.925417 -0.224226 0.305494
vn 0.331030 0.380321 -0.863582
vn 0.520473 0.125919 -0.844543
vn 0.304801 0.337049 -0.890783
vn -0.243657 0.484134 -0.840384
vn -0.331031 0.380321 -0.863582
vn -0.292615 0.543781 -0.786562
vn -0.513473 0.184719 0.837988
vn -0.490093 0.241085 0.837668
vn -0.542969 0.066248 0.837135
vn 0.860821 0.129545 -0.492143
vn 0.676056 -0.126037 -0.725991
vn 0.676056 -0.126037 -0.725991
vn 0.860821 0.129545 -0.492143
vn 0.676056 -0.126037 -0.725991
vn 0.670320 0.083016 -0.737414
vn -0.903812 0.400967 -0.149498
vn -0.844037 0.426610 -0.324971
vn -0.783346 0.397493 -0.477880
vn -0.375615 0.232208 0.897214
vn -0.405772 0.324592 0.854394
vn -0.405772 0.324592 0.854394
vn 0.925417 -0.224226 0.305494
vn 0.925417 -0.224226 0.305494
vn 0.913942 -0.270337 0.302702
vn 0.925417 -0.224226 0.305494
vn 0.913942 -0.270337 0.302702
vn 0.913942 -0.270337 0.302702
vn -0.300831 0.266303 -0.915742
vn -0.235354 0.197618 -0.951607
vn -0.469081 0.273394 -0.839773
vn -0.670655 0.703857 0.234109
vn -0.612763 0.756927 0.227119
vn -0.583189 0.720354 0.375474
vn -0.513473 0.184719 0.837988
vn -0.405772 0.324592 0.854394
vn -0.405772 0.324592 0.854394
vn -0.513473 0.184719 0.837988
vn -0.405772 0.324592 0.854394
vn -0.490093 0.241085 0.837668
vn -0.511401 0.133609 -0.848892
vn -0.767417 0.089653 -0.634849
vn -0.469081 0.273394 -0.839773
vn 0.405771 0.324592 0.854394
vn 0.405771 0.324592 0.854394
vn 0.375614 0.232208 0.897214
vn -0.469079 0.273393 0.839774
vn -0.767417 0.089653 0.634850
vn -0.511401 0.133609 0.848892
vn -0.890759 0.337034 0.304888
vn -0.844542 0.125919 0.520473
vn -0.863582 0.380321 0.331031
vn -0.870169 0.441888 0.218039
vn -0.888608 0.401540 0.221679
vn -0.890759 0.337034 0.304888
vn -0.801192 0.522060 0.292481
vn -0.870169 0.441888 0.218039
vn -0.840384 0.484134 0.243656
vn -0.511401 0.133609 -0.848892
vn -0.750417 -0.111110 -0.651559
vn -0.750417 -0.111110 -0.651559
vn -0.511401 0.133609 -0.848892
vn -0.750417 -0.111110 -0.651559
vn -0.767417 0.089653 -0.634849
vn -0.840384 0.484134 0.243656
vn -0.863582 0.380321 0.331031
vn -0.786562 0.543781 0.292614
vn -0.786562 0.543781 0.292614
vn -0.775828 0.537764 0.330002
vn -0.801192 0.522060 0.292481
vn -0.304802 0.337048 0.890783
vn -0.243574 0.484181 0.840381
vn -0.331032 0.380320 0.863582
vn 0.863582 0.380322 -0.331030
vn 0.840384 0.484135 -0.243655
vn 0.890759 0.337036 -0.304887
vn -0.217881 0.441933 0.870185
vn -0.243574 0.484181 0.840381
vn -0.304802 0.337048 0.890783
vn 0.890759 0.337036 -0.304887
vn 0.840384 0.484135 -0.243655
vn 0.870169 0.441889 -0.218038
vn -0.292334 0.522145 0.801190
vn -0.292509 0.543834 0.786564
vn -0.243574 0.484181 0.840381
vn 0.840384 0.484135 -0.243655
vn 0.786562 0.543781 -0.292614
vn 0.801192 0.522060 -0.292480
vn -0.890783 0.337048 -0.304801
vn -0.840381 0.484181 -0.243574
vn -0.863582 0.380321 -0.331031
vn 0.331030 0.380321 0.863583
vn 0.243656 0.484134 0.840384
vn 0.304888 0.337035 0.890759
vn -0.870185 0.441933 -0.217881
vn -0.840381 0.484181 -0.243574
vn -0.890783 0.337048 -0.304801
vn 0.304888 0.337035 0.890759
vn 0.243656 0.484134 0.840384
vn 0.218040 0.441888 0.870169
vn 0.243656 0.484134 0.840384
vn 0.292613 0.543781 0.786562
vn 0.292480 0.522060 0.801192
vn -0.801190 0.522145 -0.292334
vn -0.786565 0.543834 -0.292507
vn -0.840381 0.484181 -0.243574
vn -0.863582 0.380321 0.331031
vn -0.840384 0.484134 0.243656
vn -0.890759 0.337034 0.304888
vn -0.890759 0.337034 0.304888
vn -0.840384 0.484134 0.243656
vn -0.870169 0.441888 0.218039
vn 0.217882 0.441933 -0.870185
vn 0.243574 0.484182 -0.840381
vn 0.304801 0.337049 -0.890783
vn -0.840384 0.484134 0.243656
vn -0.786562 0.543781 0.292614
vn -0.801192 0.522060 0.292481
vn 0.292336 0.522144 -0.801190
vn 0.292509 0.543834 -0.786564
vn 0.243574 0.484182 -0.840381
vn 0.304801 0.337049 -0.890783
vn 0.243574 0.484182 -0.840381
vn 0.331030 0.380321 -0.863582
vn -0.331031 0.380321 -0.863582
vn -0.243657 0.484134 -0.840384
vn -0.304888 0.337035 -0.890759
vn -0.304888 0.337035 -0.890759
vn -0.243657 0.484134 -0.840384
vn -0.218039 0.441888 -0.870169
vn 0.870185 0.441934 0.217881
vn 0.840381 0.484182 0.243573
vn 0.890783 0.337049 0.304801
vn 0.890783 0.337049 0.304801
vn 0.840381 0.484182 0.243573
vn 0.863582 0.380322 0.331030
vn 0.801190 0.522145 0.292335
vn 0.786565 0.543834 0.292508
vn 0.840381 0.484182 0.243573
vn -0.243657 0.484134 -0.840384
vn -0.292615 0.543781 -0.786562
vn -0.292481 0.522060 -0.801192
vn -0.513473 0.184719 0.837988
vn -0.542969 0.066248 0.837135
vn -0.553846 0.071919 0.829507
vn -0.542969 0.066248 -0.837136
vn -0.513473 0.184720 -0.837988
vn -0.553845 0.071919 -0.829508
vn 0.513472 0.184720 -0.837988
vn 0.542969 0.066248 -0.837136
vn 0.553844 0.071919 -0.829509
vn 0.542969 0.066248 0.837135
vn 0.513473 0.184720 0.837988
vn 0.553845 0.071919 0.829508
f 82/1/1 118/2/2 133/3/3
f 1/4/4 118/5/5 50/6/6
f 36/7/7 27/8/8 14/9/9
f 78/10/10 59/11/11 56/12/12
f 14/13/13 27/14/14 9/15/15
f 19/16/16 73/17/17 22/18/18
f 11/19/19 27/20/20 36/21/21
f 41/22/22 49/23/23 79/24/24
f 32/25/25 114/26/26 113/27/27
f 131/28/28 36/29/29 14/30/30
f 131/31/31 14/32/32 2/33/33
f 27/34/34 29/35/35 9/36/36
f 28/37/37 9/38/38 29/39/39
f 9/40/40 13/41/41 14/42/42
f 130/43/43 79/44/44 120/45/45
f 29/46/46 26/47/47 28/48/48
f 12/49/49 2/50/50 14/51/51
f 67/52/52 52/53/53 2/54/54
f 67/55/55 2/56/56 12/57/57
f 6/58/58 7/59/59 5/60/60
f 12/61/61 14/62/62 6/63/63
f 12/64/64 6/65/65 8/66/66
f 5/67/67 7/68/68 8/69/69
f 41/70/70 43/71/71 49/72/72
f 13/73/73 7/74/74 6/75/75
f 13/76/76 6/77/77 14/78/78
f 83/79/79 114/80/80 32/81/81
f 83/82/82 32/83/83 21/84/84
f 37/85/85 112/86/86 80/87/87
f 21/88/88 35/89/89 53/90/90
f 18/91/91 16/92/92 15/93/93
f 17/94/94 15/95/95 20/96/96
f 13/97/97 9/98/98 23/99/99
f 13/100/100 23/101/101 24/102/102
f 22/103/103 24/104/104 17/105/105
f 21/106/106 53/107/107 30/108/108
f 21/109/109 30/110/110 83/111/111
f 41/112/112 30/113/113 53/114/114
f 19/115/115 22/116/116 20/117/117
f 79/118/118 30/119/119 41/120/120
f 24/121/121 23/122/122 18/123/123
f 46/124/124 65/125/125 96/126/126
f 76/127/127 3/128/128 31/129/129
f 114/130/130 77/131/131 81/132/132
f 90/133/133 128/134/134 65/135/135
f 90/136/136 65/137/137 46/138/138
f 30/139/139 117/140/140 48/141/141
f 30/142/142 48/143/143 83/144/144
f 46/145/145 44/146/146 90/147/147
f 116/148/148 65/149/149 128/150/150
f 40/151/151 48/152/152 52/153/153
f 40/154/154 52/155/155 69/156/156
f 80/157/157 119/158/158 41/159/159
f 69/160/160 68/161/161 61/162/162
f 69/163/163 52/164/164 67/165/165
f 55/166/166 58/167/167 57/168/168
f 60/169/169 57/170/170 69/171/171
f 60/172/172 69/173/173 67/174/174
f 55/175/175 60/176/176 58/177/177
f 50/178/178 130/179/179 49/180/180
f 50/181/181 49/182/182 43/183/183
f 69/184/184 57/185/185 58/186/186
f 69/187/187 58/188/188 68/189/189
f 75/190/190 68/191/191 58/192/192
f 116/193/193 78/194/194 63/195/195
f 60/196/196 55/197/197 57/198/198
f 15/199/199 16/200/200 72/201/201
f 20/202/202 15/203/203 71/204/204
f 75/205/205 74/206/206 61/207/207
f 75/208/208 61/209/209 68/210/210
f 71/211/211 75/212/212 73/213/213
f 73/214/214 19/215/215 20/216/216
f 72/217/217 74/218/218 75/219/219
f 128/220/220 78/221/221 116/222/222
f 8/223/223 7/224/224 24/225/225
f 44/226/226 125/227/227 90/228/228
f 6/229/229 5/230/230 8/231/231
f 83/232/232 48/233/233 40/234/234
f 12/235/235 8/236/236 24/237/237
f 44/238/238 126/239/239 125/240/240
f 94/241/241 92/242/242 111/243/243
f 111/244/244 98/245/245 94/246/246
f 109/247/247 98/248/248 111/249/249
f 93/250/250 47/251/251 100/252/252
f 93/253/253 100/254/254 85/255/255
f 53/256/256 35/257/257 108/258/258
f 95/259/259 99/260/260 100/261/261
f 64/262/262 135/263/263 136/264/264
f 98/265/265 85/266/266 100/267/267
f 54/268/268 131/269/269 85/270/270
f 54/271/271 85/272/272 98/273/273
f 91/274/274 92/275/275 89/276/276
f 98/277/277 100/278/278 91/279/279
f 98/280/280 91/281/281 94/282/282
f 89/283/283 92/284/284 94/285/285
f 99/286/286 92/287/287 91/288/288
f 99/289/289 91/290/290 100/291/291
f 24/292/292 22/293/293 12/294/294
f 109/295/295 106/296/296 123/297/297
f 67/298/298 73/299/299 75/300/300
f 10/301/301 39/302/302 40/303/303
f 123/304/304 54/305/305 98/306/306
f 123/307/307 98/308/308 109/309/309
f 105/310/310 103/311/311 102/312/312
f 104/313/313 102/314/314 107/315/315
f 99/316/316 95/317/317 110/318/318
f 99/319/319 110/320/320 111/321/321
f 109/322/322 111/323/323 104/324/324
f 4/325/325 54/326/326 123/327/327
f 64/328/328 54/329/329 4/330/330
f 106/331/331 109/332/332 107/333/333
f 4/334/334 137/335/335 64/336/336
f 111/337/337 110/338/338 105/339/339
f 11/340/340 29/341/341 27/342/342
f 29/343/343 11/344/344 138/345/345
f 36/346/346 86/347/347 11/348/348
f 36/349/349 131/350/350 54/351/351
f 135/352/352 137/353/353 136/354/354
f 64/355/355 136/356/356 36/357/357
f 64/358/358 36/359/359 54/360/360
f 135/361/361 64/362/362 137/363/363
f 120/364/364 79/365/365 49/366/366
f 79/367/367 130/368/368 50/369/369
f 79/370/370 50/371/371 30/372/372
f 36/373/373 136/374/374 137/375/375
f 36/376/376 137/377/377 86/378/378
f 4/379/379 86/380/380 137/381/381
f 75/382/382 60/383/383 67/384/384
f 108/385/385 37/386/386 115/387/387
f 102/388/388 103/389/389 70/390/390
f 38/391/391 4/392/392 123/393/393
f 4/394/394 101/395/395 11/396/396
f 4/397/397 11/398/398 86/399/399
f 123/400/400 106/401/401 107/402/402
f 70/403/403 101/404/404 4/405/405
f 32/406/406 34/407/407 25/408/408
f 58/409/409 60/410/410 75/411/411
f 35/412/412 21/413/413 108/414/414
f 50/415/415 118/416/416 82/417/417
f 91/418/418 89/419/419 94/420/420
f 21/421/421 32/422/422 97/423/423
f 107/424/424 102/425/425 38/426/426
f 39/427/427 10/428/428 34/429/429
f 39/430/430 34/431/431 32/432/432
f 97/433/433 37/434/434 108/435/435
f 25/436/436 112/437/437 37/438/438
f 50/439/439 43/440/440 1/441/441
f 117/442/442 50/443/443 82/444/444
f 117/445/445 82/446/446 51/447/447
f 118/448/448 76/449/449 133/450/450
f 62/451/451 133/452/452 76/453/453
f 133/454/454 84/455/455 82/456/456
f 125/457/457 121/458/458 127/459/459
f 76/460/460 31/461/461 62/462/462
f 128/463/463 51/464/464 82/465/465
f 90/466/466 93/467/467 51/468/468
f 90/469/469 51/470/470 128/471/471
f 59/472/472 63/473/473 56/474/474
f 128/475/475 82/476/476 59/477/477
f 128/478/478 59/479/479 78/480/480
f 56/481/481 63/482/482 78/483/483
f 120/484/484 49/485/485 130/486/486
f 50/487/487 117/488/488 30/489/489
f 84/490/490 63/491/491 59/492/492
f 84/493/493 59/494/494 82/495/495
f 63/496/496 84/497/497 116/498/498
f 1/499/499 76/500/500 118/501/501
f 7/502/502 13/503/503 24/504/504
f 113/505/505 39/506/506 32/507/507
f 73/508/508 67/509/509 12/510/510
f 73/511/511 12/512/512 22/513/513
f 76/514/514 1/515/515 3/516/516
f 129/517/517 66/518/518 33/519/519
f 87/520/520 33/521/521 42/522/522
f 84/523/523 133/524/524 132/525/525
f 84/526/526 132/527/527 116/528/528
f 65/529/529 116/530/530 87/531/531
f 39/532/532 113/533/533 77/534/534
f 39/535/535 77/536/536 40/537/537
f 81/538/538 113/539/539 114/540/540
f 96/541/541 65/542/542 42/543/543
f 83/544/544 40/545/545 77/546/546
f 83/547/547 77/548/548 114/549/549
f 116/550/550 132/551/551 129/552/552
f 115/553/553 41/554/554 53/555/555
f 47/556/556 122/557/557 124/558/558
f 41/559/559 119/560/560 1/561/561
f 41/562/562 1/563/563 43/564/564
f 47/565/565 93/566/566 90/567/567
f 121/568/568 126/569/569 127/570/570
f 125/571/571 127/572/572 47/573/573
f 125/574/574 47/575/575 90/576/576
f 121/577/577 125/578/578 126/579/579
f 29/580/580 138/581/581 26/582/582
f 47/583/583 127/584/584 126/585/585
f 47/586/586 126/587/587 122/588/588
f 44/589/589 122/590/590 126/591/591
f 77/592/592 113/593/593 81/594/594
f 92/595/595 99/596/596 111/597/597
f 88/598/598 45/599/599 44/600/600
f 33/601/601 66/602/602 88/603/603
f 42/604/604 33/605/605 134/606/606
f 44/607/607 45/608/608 124/609/609
f 44/610/610 124/611/611 122/612/612
f 134/613/613 44/614/614 46/615/615
f 46/616/616 96/617/617 42/618/618
f 18/619/619 17/620/620 24/621/621
f 75/622/622 71/623/623 72/624/624
f 15/625/625 17/626/626 18/627/627
f 72/628/628 71/629/629 15/630/630
f 20/631/631 22/632/632 17/633/633
f 71/634/634 73/635/635 20/636/636
f 105/637/637 104/638/638 111/639/639
f 4/640/640 38/641/641 70/642/642
f 102/643/643 104/644/644 105/645/645
f 70/646/646 38/647/647 102/648/648
f 38/649/649 123/650/650 107/651/651
f 107/652/652 109/653/653 104/654/654
f 44/655/655 134/656/656 88/657/657
f 88/658/658 134/659/659 33/660/660
f 33/661/661 87/662/662 129/663/663
f 134/664/664 46/665/665 42/666/666
f 42/667/667 65/668/668 87/669/669
f 129/670/670 87/671/671 116/672/672
f 41/673/673 115/674/674 80/675/675
f 80/676/676 115/677/677 37/678/678
f 37/679/679 97/680/680 25/681/681
f 25/682/682 97/683/683 32/684/684
f 108/685/685 21/686/686 97/687/687
f 115/688/688 53/689/689 108/690/690
f 47/691/691 124/692/692 139/693/693
f 95/694/694 100/695/695 140/696/696
f 69/697/697 61/698/698 141/699/699
f 10/700/700 40/701/701 142/702/702
