v 1.858144 -1.523567 1.151942
v 3.799215 -0.423307 2.928036
v 7.263844 0.072811 4.046897
v 4.932142 0.880185 3.856549
v 2.015324 1.239605 1.943892
v 2.381881 -1.643485 -0.589390
v 4.642564 -0.406912 -0.987135
v 8.341949 -0.073132 -0.652664
v 7.107166 0.482508 -0.199148
v 3.010711 2.562118 -0.022920
v 1.931430 -1.904537 -2.803469
v 4.055391 -0.951171 -6.314959
v 4.424476 -0.038806 -4.473629
v 3.709688 0.995393 -3.119453
v 1.895445 2.688383 -1.773497
v -0.045290 -1.486675 -2.993242
v 0.099337 -1.139451 -5.204181
v -0.443028 -0.069113 -5.128858
v -0.125790 1.161619 -4.309481
v 0.000000 2.730471 -2.500000
v -1.951956 -1.391150 -1.994503
v -3.914472 -1.018497 -3.046872
v -6.099845 -0.132193 -3.134200
v -3.690811 1.140285 -2.958634
v -1.767767 1.630468 -1.767767
v -2.795785 -1.001825 -0.219950
v -5.301537 -0.852428 -0.029128
v -7.745138 -0.083304 0.215103
v -5.001347 1.150374 0.056370
v -2.500000 1.630468 -0.000000
v -0.113909 -2.004528 -0.222433
v -1.948057 -1.480269 1.567706
v -3.586626 -1.092054 2.821685
v -4.645370 0.050898 3.041597
v -2.877218 1.079583 3.622495
v -1.647887 1.220559 1.949622
v -0.048989 -1.725626 2.211758
v 0.095459 -1.499238 4.224060
v 1.044067 -0.218272 5.656439
v 2.061537 0.689272 7.224161
v 0.479519 1.189899 3.227419
v -0.113909 -2.004528 -0.222433
v -0.000000 2.173209 -0.000000
v -0.113909 -2.004528 -0.222432
v -0.000000 2.173209 0.000000
v -0.113909 -2.004528 -0.222432
v 0.000000 2.173209 0.000000
v 0.000000 2.173209 -0.000000
vt 0.000000 0.000000
vt 0.000000 0.000000
vt 0.000000 0.000000
vt 0.000000 0.000000
vt 0.000000 0.000000
vt 0.000000 0.000000
vt 0.000000 0.000000
vt 0.000000 0.000000
vt 0.000000 0.000000
vt 0.000000 0.000000
vt 0.000000 0.000000
vt 0.000000 0.000000
vt 0.000000 0.000000
vt 0.000000 0.000000
vt 0.000000 0.000000
vt 0.000000 0.000000
vt 0.000000 0.000000
vt 0.000000 0.000000
vt 0.000000 0.000000
vt 0.000000 0.000000
vt 0.000000 0.000000
vt 0.000000 0.000000
vt 0.000000 0.000000
vt 0.000000 0.000000
vt 0.000000 0.000000
vt 0.000000 0.000000
vt 0.000000 0.000000
vt 0.000000 0.000000
vt 0.000000 0.000000
vt 0.000000 0.000000
vt 0.000000 0.000000
vt 0.000000 0.000000
vt 0.000000 0.000000
vt 0.000000 0.000000
vt 0.000000 0.000000
vt 0.000000 0.000000
vt 0.000000 0.000000
vt 0.000000 0.000000
vt 0.000000 0.000000
vt 0.000000 0.000000
vt 0.000000 0.000000
vt 0.000000 0.000000
vt 0.000000 0.000000
vt 0.000000 0.000000
vt 0.000000 0.000000
vt 0.000000 0.000000
vt 0.000000 0.000000
vt 0.000000 0.000000
vt 0.000000 0.000000
vt 0.000000 0.000000
vt 0.000000 0.000000
vt 0.000000 0.000000
vt 0.000000 0.000000
vt 0.000000 0.000000
vt 0.000000 0.000000
vt 0.000000 0.000000
vt 0.000000 0.000000
vt 0.000000 0.000000
vt 0.000000 0.000000
vt 0.000000 0.000000
vt 0.000000 0.000000
vt 0.000000 0.000000
vt 0.000000 0.000000
vt 0.000000 0.000000
vt 0.000000 0.000000
vt 0.000000 0.000000
vt 0.000000 0.000000
vt 0.000000 0.000000
vt 0.000000 0.000000
vt 0.000000 0.000000
vt 0.000000 0.000000
vt 0.000000 0.000000
vt 0.000000 0.000000
vt 0.000000 0.000000
vt 0.000000 0.000000
vt 0.000000 0.000000
vt 0.000000 0.000000
vt 0.000000 0.000000
vt 0.000000 0.000000
vt 0.000000 0.000000
vt 0.000000 0.000000
vt 0.000000 0.000000
vt 0.000000 0.000000
vt 0.000000 0.000000
vt 0.000000 0.000000
vt 0.000000 0.000000
vt 0.000000 0.000000
vt 0.000000 0.000000
vt 0.000000 0.000000
vt 0.000000 0.000000
vt 0.000000 0.000000
vt 0.000000 0.000000
vt 0.000000 0.000000
vt 0.000000 0.000000
vt 0.000000 0.000000
vt 0.000000 0.000000
vt 0.000000 0.000000
vt 0.000000 0.000000
vt 0.000000 0.000000
vt 0.000000 0.000000
vt 0.000000 0.000000
vt 0.000000 0.000000
vt 0.000000 0.000000
vt 0.000000 0.000000
vt 0.000000 0.000000
vt 0.000000 0.000000
vt 0.000000 0.000000
vt 0.000000 0.000000
vt 0.000000 0.000000
vt 0.000000 0.000000
vt 0.000000 0.000000
vt 0.000000 0.000000
vt 0.000000 0.000000
vt 0.000000 0.000000
vt 0.000000 0.000000
vt 0.000000 0.000000
vt 0.000000 0.000000
vt 0.000000 0.000000
vt 0.000000 0.000000
vt 0.000000 0.000000
vt 0.000000 0.000000
vt 0.000000 0.000000
vt 0.000000 0.000000
vt 0.000000 0.000000
vt 0.000000 0.000000
vt 0.000000 0.000000
vt 0.000000 0.000000
vt 0.000000 0.000000
vt 0.000000 0.000000
vt 0.000000 0.000000
vt 0.000000 0.000000
vt 0.000000 0.000000
vt 0.000000 0.000000
vt 0.000000 0.000000
vt 0.000000 0.000000
vt 0.000000 0.000000
vt 0.000000 0.000000
vt 0.000000 0.000000
vt 0.000000 0.000000
vt 0.000000 0.000000
vt 0.000000 0.000000
vt 0.000000 0.000000
vt 0.000000 0.000000
vt 0.000000 0.000000
vt 0.000000 0.000000
vt 0.000000 0.000000
vt 0.000000 0.000000
vt 0.000000 0.000000
vt 0.000000 0.000000
vt 0.000000 0.000000
vt 0.000000 0.000000
vt 0.000000 0.000000
vt 0.000000 0.000000
vt 0.000000 0.000000
vt 0.000000 0.000000
vt 0.000000 0.000000
vt 0.000000 0.000000
vt 0.000000 0.000000
vt 0.000000 0.000000
vt 0.000000 0.000000
vt 0.000000 0.000000
vt 0.000000 0.000000
vt 0.000000 0.000000
vt 0.000000 0.000000
vt 0.000000 0.000000
vt 0.000000 0.000000
vt 0.000000 0.000000
vt 0.000000 0.000000
vt 0.000000 0.000000
vt 0.000000 0.000000
vt 0.000000 0.000000
vt 0.000000 0.000000
vt 0.000000 0.000000
vt 0.000000 0.000000
vt 0.000000 0.000000
vt 0.000000 0.000000
vt 0.000000 0.000000
vt 0.000000 0.000000
vt 0.000000 0.000000
vt 0.000000 0.000000
vt 0.000000 0.000000
vt 0.000000 0.000000
vt 0.000000 0.000000
vt 0.000000 0.000000
vt 0.000000 0.000000
vt 0.000000 0.000000
vt 0.000000 0.000000
vt 0.000000 0.000000
vt 0.000000 0.000000
vt 0.000000 0.000000
vt 0.000000 0.000000
vt 0.000000 0.000000
vt 0.000000 0.000000
vt 0.000000 0.000000
vt 0.000000 0.000000
vt 0.000000 0.000000
vt 0.000000 0.000000
vt 0.000000 0.000000
vt 0.000000 0.000000
vt 0.000000 0.000000
vt 0.000000 0.000000
vt 0.000000 0.000000
vt 0.000000 0.000000
vt 0.000000 0.000000
vt 0.000000 0.000000
vt 0.000000 0.000000
vt 0.000000 0.000000
vt 0.000000 0.000000
vt 0.000000 0.000000
vt 0.000000 0.000000
vt 0.000000 0.000000
vt 0.000000 0.000000
vt 0.000000 0.000000
vt 0.000000 0.000000
vt 0.000000 0.000000
vt 0.000000 0.000000
vt 0.000000 0.000000
vt 0.000000 0.000000
vt 0.000000 0.000000
vt 0.000000 0.000000
vt 0.000000 0.000000
vt 0.000000 0.000000
vt 0.000000 0.000000
vt 0.000000 0.000000
vt 0.000000 0.000000
vt 0.000000 0.000000
vt 0.000000 0.000000
vt 0.000000 0.000000
vt 0.000000 0.000000
vt 0.000000 0.000000
vt 0.000000 0.000000
vt 0.000000 0.000000
vt 0.000000 0.000000
vt 0.000000 0.000000
vt 0.000000 0.000000
vt 0.000000 0.000000
vt 0.000000 0.000000
vt 0.000000 0.000000
vt 0.000000 0.000000
vt 0.000000 0.000000
vt 0.000000 0.000000
vt 0.000000 0.000000
vt 0.000000 0.000000
vt 0.000000 0.000000
vt 0.000000 0.000000
vt 0.000000 0.000000
vt 0.000000 0.000000
vt 0.000000 0.000000
vt 0.000000 0.000000
vt 0.000000 0.000000
vt 0.000000 0.000000
vt 0.000000 0.000000
vt 0.000000 0.000000
vt 0.000000 0.000000
vt 0.000000 0.000000
vt 0.000000 0.000000
vt 0.000000 0.000000
vt 0.000000 0.000000
vt 0.000000 0.000000
vt 0.000000 0.000000
vt 0.000000 0.000000
vt 0.000000 0.000000
vt 0.000000 0.000000
vt 0.000000 0.000000
vn 0.105999 -0.988397 0.108791
vn 0.312216 -0.945746 0.089926
vn 0.267226 -0.954664 0.131176
vn 0.267226 -0.954664 0.131176
vn 0.312216 -0.945746 0.089926
vn 0.348985 -0.936940 0.018768
vn 0.267226 -0.954664 0.131176
vn 0.348985 -0.936940 0.018768
vn 0.267554 -0.950653 0.157079
vn 0.267554 -0.950653 0.157079
vn 0.348985 -0.936940 0.018768
vn 0.230566 -0.972192 -0.041004
vn 0.267554 -0.950653 0.157079
vn 0.230566 -0.972192 -0.041004
vn 0.299533 -0.848024 0.437191
vn 0.360860 0.929488 0.076370
vn 0.379705 0.914925 -0.136881
vn 0.376043 0.923047 -0.081092
vn 0.360860 0.929488 0.076370
vn 0.376043 0.923047 -0.081092
vn 0.225965 0.961925 0.153751
vn 0.225965 0.961925 0.153751
vn 0.376043 0.923047 -0.081092
vn 0.128558 0.977062 0.169772
vn 0.225965 0.961925 0.153751
vn 0.128558 0.977062 0.169772
vn 0.099708 0.950019 0.295841
vn 0.099708 0.950019 0.295841
vn 0.128558 0.977062 0.169772
vn -0.015032 0.948239 0.317200
vn 0.105999 -0.988397 0.108791
vn -0.091519 -0.988680 -0.118899
vn 0.094130 -0.992044 -0.083594
vn 0.105999 -0.988397 0.108791
vn 0.094130 -0.992044 -0.083594
vn 0.312216 -0.945746 0.089926
vn 0.312216 -0.945746 0.089926
vn 0.094130 -0.992044 -0.083594
vn 0.255811 -0.959585 -0.117295
vn 0.312216 -0.945746 0.089926
vn 0.255811 -0.959585 -0.117295
vn 0.348985 -0.936940 0.018768
vn 0.348985 -0.936940 0.018768
vn 0.255811 -0.959585 -0.117295
vn 0.348843 -0.929473 -0.119955
vn 0.348985 -0.936940 0.018768
vn 0.348843 -0.929473 -0.119955
vn 0.230566 -0.972192 -0.041004
vn 0.379705 0.914925 -0.136881
vn 0.167638 0.775816 -0.608283
vn 0.314371 0.800145 -0.510823
vn 0.379705 0.914925 -0.136881
vn 0.314371 0.800145 -0.510823
vn 0.376043 0.923047 -0.081092
vn 0.376043 0.923047 -0.081092
vn 0.314371 0.800145 -0.510823
vn 0.138887 0.976906 -0.162375
vn 0.376043 0.923047 -0.081092
vn 0.138887 0.976906 -0.162375
vn 0.128558 0.977062 0.169772
vn 0.128558 0.977062 0.169772
vn 0.138887 0.976906 -0.162375
vn -0.219260 0.956931 0.190283
vn 0.128558 0.977062 0.169772
vn -0.219260 0.956931 0.190283
vn -0.015032 0.948239 0.317200
vn -0.091519 -0.988680 -0.118899
vn -0.131371 -0.972343 -0.193109
vn 0.094130 -0.992044 -0.083594
vn 0.094130 -0.992044 -0.083594
vn -0.131371 -0.972343 -0.193109
vn -0.194859 -0.879535 -0.434107
vn 0.094130 -0.992044 -0.083594
vn -0.194859 -0.879535 -0.434107
vn 0.255811 -0.959585 -0.117295
vn -0.054319 0.691545 -0.720288
vn -0.054319 0.691545 -0.720288
vn -0.058660 0.674951 -0.735527
vn -0.054319 0.691545 -0.720288
vn -0.058660 0.674951 -0.735527
vn 0.167638 0.775816 -0.608283
vn 0.167638 0.775816 -0.608283
vn -0.058660 0.674951 -0.735527
vn -0.054635 0.762600 -0.644559
vn 0.167638 0.775816 -0.608283
vn -0.054635 0.762600 -0.644559
vn 0.314371 0.800145 -0.510823
vn 0.314371 0.800145 -0.510823
vn -0.054635 0.762600 -0.644559
vn -0.171955 0.970740 -0.167618
vn 0.314371 0.800145 -0.510823
vn -0.171955 0.970740 -0.167618
vn 0.138887 0.976906 -0.162375
vn 0.138887 0.976906 -0.162375
vn -0.171955 0.970740 -0.167618
vn -0.219260 0.956931 0.190283
vn -0.091519 -0.988680 -0.118899
vn -0.300945 -0.952411 -0.048435
vn -0.186710 -0.980511 -0.061139
vn -0.091519 -0.988680 -0.118899
vn -0.186710 -0.980511 -0.061139
vn -0.131371 -0.972343 -0.193109
vn -0.131371 -0.972343 -0.193109
vn -0.186710 -0.980511 -0.061139
vn -0.253217 -0.925999 -0.280012
vn -0.131371 -0.972343 -0.193109
vn -0.253217 -0.925999 -0.280012
vn -0.194859 -0.879535 -0.434107
vn -0.194859 -0.879535 -0.434107
vn -0.253217 -0.925999 -0.280012
vn -0.373892 -0.775922 -0.508085
vn -0.194859 -0.879535 -0.434107
vn -0.373892 -0.775922 -0.508085
vn -0.346747 -0.488310 -0.800824
vn -0.058660 0.674951 -0.735527
vn -0.371338 0.779865 -0.503903
vn -0.321152 0.871648 -0.370258
vn -0.058660 0.674951 -0.735527
vn -0.321152 0.871648 -0.370258
vn -0.054635 0.762600 -0.644559
vn -0.054635 0.762600 -0.644559
vn -0.321152 0.871648 -0.370258
vn -0.306277 0.947664 -0.090154
vn -0.054635 0.762600 -0.644559
vn -0.306277 0.947664 -0.090154
vn -0.171955 0.970740 -0.167618
vn -0.171955 0.970740 -0.167618
vn -0.306277 0.947664 -0.090154
vn -0.297561 0.945356 0.133267
vn -0.171955 0.970740 -0.167618
vn -0.297561 0.945356 0.133267
vn -0.219260 0.956931 0.190283
vn -0.300945 -0.952411 -0.048435
vn -0.246272 -0.969090 -0.014655
vn -0.186710 -0.980511 -0.061139
vn -0.186710 -0.980511 -0.061139
vn -0.246272 -0.969090 -0.014655
vn -0.264903 -0.962975 0.050058
vn -0.186710 -0.980511 -0.061139
vn -0.264903 -0.962975 0.050058
vn -0.253217 -0.925999 -0.280012
vn -0.253217 -0.925999 -0.280012
vn -0.264903 -0.962975 0.050058
vn -0.388447 -0.915224 0.107116
vn -0.253217 -0.925999 -0.280012
vn -0.388447 -0.915224 0.107116
vn -0.373892 -0.775922 -0.508085
vn -0.371338 0.779865 -0.503903
vn -0.454918 0.887136 0.077713
vn -0.302488 0.951677 0.053021
vn -0.371338 0.779865 -0.503903
vn -0.302488 0.951677 0.053021
vn -0.321152 0.871648 -0.370258
vn -0.321152 0.871648 -0.370258
vn -0.302488 0.951677 0.053021
vn -0.179159 0.981722 0.064211
vn -0.321152 0.871648 -0.370258
vn -0.179159 0.981722 0.064211
vn -0.306277 0.947664 -0.090154
vn -0.306277 0.947664 -0.090154
vn -0.179159 0.981722 0.064211
vn -0.297561 0.945356 0.133267
vn -0.300945 -0.952411 -0.048435
vn -0.260025 -0.965464 0.016328
vn -0.207515 -0.978040 0.019355
vn -0.300945 -0.952411 -0.048435
vn -0.207515 -0.978040 0.019355
vn -0.246272 -0.969090 -0.014655
vn -0.246272 -0.969090 -0.014655
vn -0.207515 -0.978040 0.019355
vn -0.294355 -0.904401 0.308893
vn -0.246272 -0.969090 -0.014655
vn -0.294355 -0.904401 0.308893
vn -0.264903 -0.962975 0.050058
vn -0.264903 -0.962975 0.050058
vn -0.294355 -0.904401 0.308893
vn -0.456470 -0.563660 0.688421
vn -0.264903 -0.962975 0.050058
vn -0.456470 -0.563660 0.688421
vn -0.388447 -0.915224 0.107116
vn -0.454918 0.887136 0.077713
vn -0.445292 0.821688 0.355731
vn -0.193085 0.958783 0.208455
vn -0.454918 0.887136 0.077713
vn -0.193085 0.958783 0.208455
vn -0.302488 0.951677 0.053021
vn -0.302488 0.951677 0.053021
vn -0.193085 0.958783 0.208455
vn -0.124573 0.968911 0.213761
vn -0.302488 0.951677 0.053021
vn -0.124573 0.968911 0.213761
vn -0.179159 0.981722 0.064211
vn -0.179159 0.981722 0.064211
vn -0.124573 0.968911 0.213761
vn -0.064056 0.954781 0.290327
vn -0.179159 0.981722 0.064211
vn -0.064056 0.954781 0.290327
vn -0.297561 0.945356 0.133267
vn -0.260025 -0.965464 0.016328
vn 0.105999 -0.988397 0.108791
vn 0.032792 -0.990958 0.130103
vn -0.260025 -0.965464 0.016328
vn 0.032792 -0.990958 0.130103
vn -0.207515 -0.978040 0.019355
vn -0.207515 -0.978040 0.019355
vn 0.032792 -0.990958 0.130103
vn -0.006123 -0.930951 0.365092
vn -0.207515 -0.978040 0.019355
vn -0.006123 -0.930951 0.365092
vn -0.294355 -0.904401 0.308893
vn -0.294355 -0.904401 0.308893
vn -0.006123 -0.930951 0.365092
vn -0.055503 -0.589070 0.806173
vn -0.294355 -0.904401 0.308893
vn -0.055503 -0.589070 0.806173
vn -0.456470 -0.563660 0.688421
vn -0.456470 -0.563660 0.688421
vn -0.055503 -0.589070 0.806173
vn -0.019374 -0.293444 0.955780
vn -0.456470 -0.563660 0.688421
vn -0.019374 -0.293444 0.955780
vn -0.503514 -0.206559 0.838932
vn -0.193085 0.958783 0.208455
vn 0.017638 0.993951 0.108399
vn 0.012533 0.979806 0.199558
vn -0.193085 0.958783 0.208455
vn 0.012533 0.979806 0.199558
vn -0.124573 0.968911 0.213761
vn -0.124573 0.968911 0.213761
vn 0.012533 0.979806 0.199558
vn -0.064056 0.954781 0.290327
vn 0.105999 -0.988397 0.108791
vn 0.267226 -0.954664 0.131176
vn 0.032792 -0.990958 0.130103
vn 0.032792 -0.990958 0.130103
vn 0.267226 -0.954664 0.131176
vn 0.267554 -0.950653 0.157079
vn 0.032792 -0.990958 0.130103
vn 0.267554 -0.950653 0.157079
vn -0.006123 -0.930951 0.365092
vn -0.006123 -0.930951 0.365092
vn 0.267554 -0.950653 0.157079
vn 0.299533 -0.848024 0.437191
vn -0.006123 -0.930951 0.365092
vn 0.299533 -0.848024 0.437191
vn -0.055503 -0.589070 0.806173
vn -0.055503 -0.589070 0.806173
vn 0.299533 -0.848024 0.437191
vn 0.469719 -0.305326 0.828336
vn -0.055503 -0.589070 0.806173
vn 0.469719 -0.305326 0.828336
vn -0.019374 -0.293444 0.955780
vn 0.017638 0.993951 0.108399
vn 0.225965 0.961925 0.153751
vn 0.099708 0.950019 0.295841
vn 0.017638 0.993951 0.108399
vn 0.099708 0.950019 0.295841
vn 0.012533 0.979806 0.199558
vn 0.012533 0.979806 0.199558
vn 0.099708 0.950019 0.295841
vn -0.015032 0.948239 0.317200
vn 0.012533 0.979806 0.199558
vn -0.015032 0.948239 0.317200
vn -0.064056 0.954781 0.290327
f 42/1/1 6/2/2 1/3/3
f 1/4/4 6/5/5 7/6/6
f 1/7/7 7/8/8 2/9/9
f 2/10/10 7/11/11 8/12/12
f 2/13/13 8/14/14 3/15/15
f 3/16/16 8/17/17 9/18/18
f 3/19/19 9/20/20 4/21/21
f 4/22/22 9/23/23 10/24/24
f 4/25/25 10/26/26 5/27/27
f 5/28/28 10/29/29 43/30/30
f 42/31/31 44/32/32 11/33/33
f 42/34/34 11/35/35 6/36/36
f 6/37/37 11/38/38 12/39/39
f 6/40/40 12/41/41 7/42/42
f 7/43/43 12/44/44 13/45/45
f 7/46/46 13/47/47 8/48/48
f 8/49/49 13/50/50 14/51/51
f 8/52/52 14/53/53 9/54/54
f 9/55/55 14/56/56 15/57/57
f 9/58/58 15/59/59 10/60/60
f 10/61/61 15/62/62 45/63/63
f 10/64/64 45/65/65 43/66/66
f 44/67/67 16/68/68 11/69/69
f 11/70/70 16/71/71 17/72/72
f 11/73/73 17/74/74 12/75/75
f 12/76/76 17/77/77 18/78/78
f 12/79/79 18/80/80 13/81/81
f 13/82/82 18/83/83 19/84/84
f 13/85/85 19/86/86 14/87/87
f 14/88/88 19/89/89 20/90/90
f 14/91/91 20/92/92 15/93/93
f 15/94/94 20/95/95 45/96/96
f 44/97/97 46/98/98 21/99/99
f 44/100/100 21/101/101 16/102/102
f 16/103/103 21/104/104 22/105/105
f 16/106/106 22/107/107 17/108/108
f 17/109/109 22/110/110 23/111/111
f 17/112/112 23/113/113 18/114/114
f 18/115/115 23/116/116 24/117/117
f 18/118/118 24/119/119 19/120/120
f 19/121/121 24/122/122 25/123/123
f 19/124/124 25/125/125 20/126/126
f 20/127/127 25/128/128 47/129/129
f 20/130/130 47/131/131 45/132/132
f 46/133/133 26/134/134 21/135/135
f 21/136/136 26/137/137 27/138/138
f 21/139/139 27/140/140 22/141/141
f 22/142/142 27/143/143 28/144/144
f 22/145/145 28/146/146 23/147/147
f 23/148/148 28/149/149 29/150/150
f 23/151/151 29/152/152 24/153/153
f 24/154/154 29/155/155 30/156/156
f 24/157/157 30/158/158 25/159/159
f 25/160/160 30/161/161 47/162/162
f 46/163/163 31/164/164 32/165/165
f 46/166/166 32/167/167 26/168/168
f 26/169/169 32/170/170 33/171/171
f 26/172/172 33/173/173 27/174/174
f 27/175/175 33/176/176 34/177/177
f 27/178/178 34/179/179 28/180/180
f 28/181/181 34/182/182 35/183/183
f 28/184/184 35/185/185 29/186/186
f 29/187/187 35/188/188 36/189/189
f 29/190/190 36/191/191 30/192/192
f 30/193/193 36/194/194 48/195/195
f 30/196/196 48/197/197 47/198/198
f 31/199/199 42/200/200 37/201/201
f 31/202/202 37/203/203 32/204/204
f 32/205/205 37/206/206 38/207/207
f 32/208/208 38/209/209 33/210/210
f 33/211/211 38/212/212 39/213/213
f 33/214/214 39/215/215 34/216/216
f 34/217/217 39/218/218 40/219/219
f 34/220/220 40/221/221 35/222/222
f 35/223/223 40/224/224 41/225/225
f 35/226/226 41/227/227 36/228/228
f 36/229/229 41/230/230 48/231/231
f 42/232/232 1/233/233 37/234/234
f 37/235/235 1/236/236 2/237/237
f 37/238/238 2/239/239 38/240/240
f 38/241/241 2/242/242 3/243/243
f 38/244/244 3/245/245 39/246/246
f 39/247/247 3/248/248 4/249/249
f 39/250/250 4/251/251 40/252/252
f 40/253/253 4/254/254 5/255/255
f 40/256/256 5/257/257 41/258/258
f 41/259/259 5/260/260 43/261/261
f 41/262/262 43/263/263 48/264/264
