v 0.000022 -0.571068 0.000000
v -0.719062 -0.009862 -1.238416
v 0.037266 -0.009862 0.390638
v -0.719062 -0.009862 1.238416
v 0.058910 -0.009862 0.099097
v 0.317355 -0.009862 0.227208
v 0.317355 -0.009862 -0.227208
v 0.058910 -0.009862 -0.099097
v -0.354621 -0.009862 -0.163430
v 0.037266 -0.009862 -0.390638
v -0.354621 -0.009862 0.163430
v 1.438124 -0.009862 0.000000
v -0.117821 -0.009862 0.000000
v -0.719062 -0.251764 -1.238416
v 0.037266 -0.540521 -0.390638
v 0.058910 -0.540521 -0.099097
v 0.037266 -0.540521 0.390638
v -0.719062 -0.251764 1.238416
v 0.058910 -0.540521 0.099097
v -0.354621 -0.540521 -0.163430
v -0.117821 -0.540521 0.000000
v -0.354621 -0.540521 0.163430
v 0.317355 -0.540521 -0.227208
v 1.438124 -0.251764 0.000000
v 0.317355 -0.540521 0.227208
v 1.369117 -0.282382 0.000000
v 0.302145 -0.571139 0.216302
v 0.056105 -0.571139 0.094341
v 0.035499 -0.571139 0.371887
v -0.684525 -0.282382 1.178972
v 0.302145 -0.571139 -0.216302
v 0.056105 -0.571139 -0.094341
v -0.684525 -0.282382 -1.178972
v 0.035499 -0.571139 -0.371887
v -0.337577 -0.571139 0.155585
v -0.112143 -0.571139 0.000000
v -0.337577 -0.571139 -0.155585
vt 0.000000 0.000000
vt 0.000000 0.000000
vt 0.000000 0.000000
vt 0.000000 0.000000
vt 0.000000 0.000000
vt 0.000000 0.000000
vt 0.000000 0.000000
vt 0.000000 0.000000
vt 0.000000 0.000000
vt 0.000000 0.000000
vt 0.000000 0.000000
vt 0.000000 0.000000
vt 0.000000 0.000000
vt 0.000000 0.000000
vt 0.000000 0.000000
vt 0.000000 0.000000
vt 0.000000 0.000000
vt 0.000000 0.000000
vt 0.000000 0.000000
vt 0.000000 0.000000
vt 0.000000 0.000000
vt 0.000000 0.000000
vt 0.000000 0.000000
vt 0.000000 0.000000
vt 0.000000 0.000000
vt 0.000000 0.000000
vt 0.000000 0.000000
vt 0.000000 0.000000
vt 0.000000 0.000000
vt 0.000000 0.000000
vt 0.000000 0.000000
vt 0.000000 0.000000
vt 0.000000 0.000000
vt 0.000000 0.000000
vt 0.000000 0.000000
vt 0.000000 0.000000
vt 0.000000 0.000000
vt 0.000000 0.000000
vt 0.000000 0.000000
vt 0.000000 0.000000
vt 0.000000 0.000000
vt 0.000000 0.000000
vt 0.000000 0.000000
vt 0.000000 0.000000
vt 0.000000 0.000000
vt 0.000000 0.000000
vt 0.000000 0.000000
vt 0.000000 0.000000
vt 0.000000 0.000000
vt 0.000000 0.000000
vt 0.000000 0.000000
vt 0.000000 0.000000
vt 0.000000 0.000000
vt 0.000000 0.000000
vt 0.000000 0.000000
vt 0.000000 0.000000
vt 0.000000 0.000000
vt 0.000000 0.000000
vt 0.000000 0.000000
vt 0.000000 0.000000
vt 0.000000 0.000000
vt 0.000000 0.000000
vt 0.000000 0.000000
vt 0.000000 0.000000
vt 0.000000 0.000000
vt 0.000000 0.000000
vt 0.000000 0.000000
vt 0.000000 0.000000
vt 0.000000 0.000000
vt 0.000000 0.000000
vt 0.000000 0.000000
vt 0.000000 0.000000
vt 0.000000 0.000000
vt 0.000000 0.000000
vt 0.000000 0.000000
vt 0.000000 0.000000
vt 0.000000 0.000000
vt 0.000000 0.000000
vt 0.000000 0.000000
vt 0.000000 0.000000
vt 0.000000 0.000000
vt 0.000000 0.000000
vt 0.000000 0.000000
vt 0.000000 0.000000
vt 0.000000 0.000000
vt 0.000000 0.000000
vt 0.000000 0.000000
vt 0.000000 0.000000
vt 0.000000 0.000000
vt 0.000000 0.000000
vt 0.000000 0.000000
vt 0.000000 0.000000
vt 0.000000 0.000000
vt 0.000000 0.000000
vt 0.000000 0.000000
vt 0.000000 0.000000
vt 0.000000 0.000000
vt 0.000000 0.000000
vt 0.000000 0.000000
vt 0.000000 0.000000
vt 0.000000 0.000000
vt 0.000000 0.000000
vt 0.000000 0.000000
vt 0.000000 0.000000
vt 0.000000 0.000000
vt 0.000000 0.000000
vt 0.000000 0.000000
vt 0.000000 0.000000
vt 0.000000 0.000000
vt 0.000000 0.000000
vt 0.000000 0.000000
vt 0.000000 0.000000
vt 0.000000 0.000000
vt 0.000000 0.000000
vt 0.000000 0.000000
vt 0.000000 0.000000
vt 0.000000 0.000000
vt 0.000000 0.000000
vt 0.000000 0.000000
vt 0.000000 0.000000
vt 0.000000 0.000000
vt 0.000000 0.000000
vt 0.000000 0.000000
vt 0.000000 0.000000
vt 0.000000 0.000000
vt 0.000000 0.000000
vt 0.000000 0.000000
vt 0.000000 0.000000
vt 0.000000 0.000000
vt 0.000000 0.000000
vt 0.000000 0.000000
vt 0.000000 0.000000
vt 0.000000 0.000000
vt 0.000000 0.000000
vt 0.000000 0.000000
vt 0.000000 0.000000
vt 0.000000 0.000000
vt 0.000000 0.000000
vt 0.000000 0.000000
vt 0.000000 0.000000
vt 0.000000 0.000000
vt 0.000000 0.000000
vt 0.000000 0.000000
vt 0.000000 0.000000
vt 0.000000 0.000000
vt 0.000000 0.000000
vt 0.000000 0.000000
vt 0.000000 0.000000
vt 0.000000 0.000000
vt 0.000000 0.000000
vt 0.000000 0.000000
vt 0.000000 0.000000
vt 0.000000 0.000000
vt 0.000000 0.000000
vt 0.000000 0.000000
vt 0.000000 0.000000
vt 0.000000 0.000000
vt 0.000000 0.000000
vt 0.000000 0.000000
vt 0.000000 0.000000
vt 0.000000 0.000000
vt 0.000000 0.000000
vt 0.000000 0.000000
vt 0.000000 0.000000
vt 0.000000 0.000000
vt 0.000000 0.000000
vt 0.000000 0.000000
vt 0.000000 0.000000
vt 0.000000 0.000000
vt 0.000000 0.000000
vt 0.000000 0.000000
vt 0.000000 0.000000
vt 0.000000 0.000000
vt 0.000000 0.000000
vt 0.000000 0.000000
vt 0.000000 0.000000
vt 0.000000 0.000000
vt 0.000000 0.000000
vt 0.000000 0.000000
vt 0.000000 0.000000
vn 0.030890 -0.908039 -0.417746
vn 0.385880 -0.922549 0.000003
vn 0.030890 -0.908038 0.417748
vn 0.343616 -0.908255 0.238749
vn -0.196180 -0.921839 0.334254
vn -0.380279 -0.907297 -0.179444
vn -0.380278 -0.907297 0.179443
vn -0.196177 -0.921839 -0.334255
vn 0.343617 -0.908254 -0.238750
vn 0.746207 0.000000 -0.665713
vn 0.920563 -0.000000 -0.390595
vn 0.896224 -0.182340 -0.404395
vn 0.746207 0.000000 -0.665713
vn 0.896224 -0.182340 -0.404395
vn 0.660387 -0.293002 -0.691403
vn 0.920563 -0.000000 -0.390595
vn 0.997255 -0.000000 -0.074039
vn 0.995946 -0.051232 -0.073942
vn 0.920563 -0.000000 -0.390595
vn 0.995946 -0.051232 -0.073942
vn 0.896224 -0.182340 -0.404395
vn 0.920563 0.000000 0.390595
vn 0.746208 0.000000 0.665713
vn 0.660387 -0.293004 0.691403
vn 0.920563 0.000000 0.390595
vn 0.660387 -0.293004 0.691403
vn 0.896223 -0.182342 0.404394
vn 0.997255 0.000000 0.074039
vn 0.920563 0.000000 0.390595
vn 0.896223 -0.182342 0.404394
vn 0.997255 0.000000 0.074039
vn 0.896223 -0.182342 0.404394
vn 0.995946 -0.051235 0.073942
vn -0.798027 0.000000 0.602621
vn -0.947055 0.000000 0.321070
vn -0.927691 -0.290463 0.234564
vn -0.798027 0.000000 0.602621
vn -0.927691 -0.290463 0.234564
vn -0.798227 -0.181190 0.574459
vn -0.568015 0.000000 0.823018
vn -0.798027 0.000000 0.602621
vn -0.798227 -0.181190 0.574459
vn -0.568015 0.000000 0.823018
vn -0.798227 -0.181190 0.574459
vn -0.567233 -0.052449 0.821885
vn -0.947055 0.000000 -0.321070
vn -0.798027 -0.000000 -0.602621
vn -0.798227 -0.181188 -0.574460
vn -0.947055 0.000000 -0.321070
vn -0.798227 -0.181188 -0.574460
vn -0.927692 -0.290460 -0.234565
vn -0.798027 -0.000000 -0.602621
vn -0.568015 -0.000000 -0.823018
vn -0.567233 -0.052448 -0.821886
vn -0.798027 -0.000000 -0.602621
vn -0.567233 -0.052448 -0.821886
vn -0.798227 -0.181188 -0.574460
vn -0.129726 -0.000000 -0.991550
vn 0.198683 -0.000000 -0.980064
vn 0.263313 -0.291172 -0.919720
vn -0.129726 -0.000000 -0.991550
vn 0.263313 -0.291172 -0.919720
vn -0.105982 -0.180398 -0.977867
vn -0.444127 -0.000000 -0.895964
vn -0.129726 -0.000000 -0.991550
vn -0.105982 -0.180398 -0.977867
vn -0.444127 -0.000000 -0.895964
vn -0.105982 -0.180398 -0.977867
vn -0.443592 -0.049074 -0.894884
vn 0.198683 0.000000 0.980064
vn -0.129726 0.000000 0.991550
vn -0.105982 -0.180395 0.977868
vn 0.198683 0.000000 0.980064
vn -0.105982 -0.180395 0.977868
vn 0.263312 -0.291167 0.919722
vn -0.129726 0.000000 0.991550
vn -0.444127 0.000000 0.895964
vn -0.443592 -0.049073 0.894885
vn -0.129726 0.000000 0.991550
vn -0.443592 -0.049073 0.894885
vn -0.105982 -0.180395 0.977868
vn 0.263312 -0.291167 0.919722
vn -0.105982 -0.180395 0.977868
vn 0.030890 -0.908038 0.417748
vn 0.263312 -0.291167 0.919722
vn 0.030890 -0.908038 0.417748
vn 0.385880 -0.922549 0.000003
vn -0.105982 -0.180395 0.977868
vn -0.443592 -0.049073 0.894885
vn -0.441988 -0.098028 0.891649
vn -0.105982 -0.180395 0.977868
vn -0.441988 -0.098028 0.891649
vn 0.030890 -0.908038 0.417748
vn 0.896223 -0.182342 0.404394
vn 0.660387 -0.293004 0.691403
vn -0.196180 -0.921839 0.334254
vn 0.896223 -0.182342 0.404394
vn -0.196180 -0.921839 0.334254
vn 0.343616 -0.908255 0.238749
vn 0.995946 -0.051235 0.073942
vn 0.896223 -0.182342 0.404394
vn 0.343616 -0.908255 0.238749
vn 0.995946 -0.051235 0.073942
vn 0.343616 -0.908255 0.238749
vn 0.992020 -0.102335 0.073650
vn -0.105982 -0.180398 -0.977867
vn 0.263313 -0.291172 -0.919720
vn 0.385880 -0.922549 0.000003
vn -0.105982 -0.180398 -0.977867
vn 0.385880 -0.922549 0.000003
vn 0.030890 -0.908039 -0.417746
vn -0.443592 -0.049074 -0.894884
vn -0.105982 -0.180398 -0.977867
vn 0.030890 -0.908039 -0.417746
vn -0.443592 -0.049074 -0.894884
vn 0.030890 -0.908039 -0.417746
vn -0.441988 -0.098030 -0.891648
vn 0.660387 -0.293002 -0.691403
vn 0.896224 -0.182340 -0.404395
vn 0.343617 -0.908254 -0.238750
vn 0.660387 -0.293002 -0.691403
vn 0.343617 -0.908254 -0.238750
vn -0.196177 -0.921839 -0.334255
vn 0.896224 -0.182340 -0.404395
vn 0.995946 -0.051232 -0.073942
vn 0.992020 -0.102330 -0.073650
vn 0.896224 -0.182340 -0.404395
vn 0.992020 -0.102330 -0.073650
vn 0.343617 -0.908254 -0.238750
vn -0.927692 -0.290460 -0.234565
vn -0.798227 -0.181188 -0.574460
vn -0.380279 -0.907297 -0.179444
vn -0.927692 -0.290460 -0.234565
vn -0.380279 -0.907297 -0.179444
vn -0.196180 -0.921839 0.334254
vn -0.798227 -0.181188 -0.574460
vn -0.567233 -0.052448 -0.821886
vn -0.564889 -0.104752 -0.818491
vn -0.798227 -0.181188 -0.574460
vn -0.564889 -0.104752 -0.818491
vn -0.380279 -0.907297 -0.179444
vn -0.798227 -0.181190 0.574459
vn -0.927691 -0.290463 0.234564
vn -0.196177 -0.921839 -0.334255
vn -0.798227 -0.181190 0.574459
vn -0.196177 -0.921839 -0.334255
vn -0.380278 -0.907297 0.179443
vn -0.567233 -0.052449 0.821885
vn -0.798227 -0.181190 0.574459
vn -0.380278 -0.907297 0.179443
vn -0.567233 -0.052449 0.821885
vn -0.380278 -0.907297 0.179443
vn -0.564890 -0.104755 0.818490
vn -0.380279 -0.907297 -0.179444
vn 0.000637 -1.000000 0.000000
vn 0.000008 -1.000000 0.000000
vn 0.000008 -1.000000 0.000000
vn -0.000300 -1.000000 -0.000579
vn 0.343616 -0.908255 0.238749
vn 0.030890 -0.908038 0.417748
vn -0.000300 -1.000000 -0.000579
vn 0.000008 -1.000000 0.000000
vn 0.000008 -1.000000 0.000000
vn -0.000300 -1.000000 0.000579
vn 0.030890 -0.908039 -0.417746
vn 0.343617 -0.908254 -0.238750
vn -0.000300 -1.000000 0.000579
vn 0.000008 -1.000000 0.000000
vn 0.000008 -1.000000 0.000000
vn 0.000637 -1.000000 0.000000
vn -0.380278 -0.907297 0.179443
vn -0.380279 -0.907297 -0.179444
vn 0.000008 -1.000000 0.000000
vn 0.343616 -0.908255 0.238749
vn 0.030890 -0.908038 0.417748
vn 0.000008 -1.000000 0.000000
vn 0.030890 -0.908039 -0.417746
vn 0.343617 -0.908254 -0.238750
vn 0.000008 -1.000000 0.000000
vn -0.380278 -0.907297 0.179443
f 31/1/1 26/2/2 27/3/3
f 29/4/4 30/5/5 35/6/6
f 37/7/7 33/8/8 34/9/9
f 2/10/10 10/11/11 15/12/12
f 2/13/13 15/14/14 14/15/15
f 10/16/16 8/17/17 16/18/18
f 10/19/19 16/20/20 15/21/21
f 3/22/22 4/23/23 18/24/24
f 3/25/25 18/26/26 17/27/27
f 5/28/28 3/29/29 17/30/30
f 5/31/31 17/32/32 19/33/33
f 9/34/34 2/35/35 14/36/36
f 9/37/37 14/38/38 20/39/39
f 13/40/40 9/41/41 20/42/42
f 13/43/43 20/44/44 21/45/45
f 4/46/46 11/47/47 22/48/48
f 4/49/49 22/50/50 18/51/51
f 11/52/52 13/53/53 21/54/54
f 11/55/55 21/56/56 22/57/57
f 7/58/58 12/59/59 24/60/60
f 7/61/61 24/62/62 23/63/63
f 8/64/64 7/65/65 23/66/66
f 8/67/67 23/68/68 16/69/69
f 12/70/70 6/71/71 25/72/72
f 12/73/73 25/74/74 24/75/75
f 6/76/76 5/77/77 19/78/78
f 6/79/79 19/80/80 25/81/81
f 24/82/82 25/83/83 27/84/84
f 24/85/85 27/86/86 26/87/87
f 25/88/88 19/89/89 28/90/90
f 25/91/91 28/92/92 27/93/93
f 17/94/94 18/95/95 30/96/96
f 17/97/97 30/98/98 29/99/99
f 19/100/100 17/101/101 29/102/102
f 19/103/103 29/104/104 28/105/105
f 23/106/106 24/107/107 26/108/108
f 23/109/109 26/110/110 31/111/111
f 16/112/112 23/113/113 31/114/114
f 16/115/115 31/116/116 32/117/117
f 14/118/118 15/119/119 34/120/120
f 14/121/121 34/122/122 33/123/123
f 15/124/124 16/125/125 32/126/126
f 15/127/127 32/128/128 34/129/129
f 18/130/130 22/131/131 35/132/132
f 18/133/133 35/134/134 30/135/135
f 22/136/136 21/137/137 36/138/138
f 22/139/139 36/140/140 35/141/141
f 20/142/142 14/143/143 33/144/144
f 20/145/145 33/146/146 37/147/147
f 21/148/148 20/149/149 37/150/150
f 21/151/151 37/152/152 36/153/153
f 35/154/154 36/155/155 1/156/156
f 1/157/157 28/158/158 29/159/159
f 27/160/160 28/161/161 1/162/162
f 1/163/163 32/164/164 31/165/165
f 34/166/166 32/167/167 1/168/168
f 1/169/169 36/170/170 37/171/171
f 35/172/172 1/173/173 29/174/174
f 27/175/175 1/176/176 31/177/177
f 34/178/178 1/179/179 37/180/180
