v 0.000000 0.000000 0.250883
v 0.079926 0.000000 0.199814
v 0.102305 0.000000 0.096799
v 0.060584 -0.000000 -0.151459
v 0.039963 -0.069218 0.199814
v 0.051152 -0.088598 0.096799
v 0.030292 -0.052467 -0.151459
v -0.039963 -0.069218 0.199814
v -0.051152 -0.088598 0.096799
v -0.079926 0.000000 0.199814
v -0.102305 0.000000 0.096799
v -0.060584 0.000000 -0.151459
v -0.039963 0.069218 0.199814
v -0.051152 0.088598 0.096799
v -0.030292 0.052467 -0.151459
v 0.039963 0.069218 0.199814
v 0.051152 0.088598 0.096799
v -0.030292 -0.052467 -0.151459
v 0.030292 0.052467 -0.151459
v 0.000000 -0.000000 -0.285811
v 0.000000 0.087210 -0.319868
v 0.095319 -0.054915 -0.202475
v 0.000000 0.057630 -0.118206
v -0.095319 -0.054915 -0.202475
v -0.075526 -0.043605 -0.319868
v -0.049981 -0.026233 -0.118206
v 0.049981 -0.026233 -0.118206
v 0.075526 -0.043605 -0.319868
v 0.000000 0.098440 -0.199129
vt 0.848611 0.502892
vt 0.864580 0.502892
vt 0.832642 0.536865
vt 0.514827 0.734709
vt 0.581313 0.734709
vt 0.585156 0.633594
vt 0.514827 0.734709
vt 0.585156 0.633594
vt 0.510156 0.635938
vt 0.585156 0.633594
vt 0.573268 0.531508
vt 0.548070 0.550744
vt 0.816672 0.502892
vt 0.848611 0.502892
vt 0.832642 0.536865
vt 0.581313 0.734709
vt 0.614556 0.734709
vt 0.625781 0.633594
vt 0.581313 0.734709
vt 0.625781 0.633594
vt 0.585156 0.633594
vt 0.585156 0.633594
vt 0.625781 0.633594
vt 0.598466 0.531508
vt 0.585156 0.633594
vt 0.598466 0.531508
vt 0.573268 0.531508
vt 0.800703 0.502892
vt 0.816672 0.502892
vt 0.832642 0.536865
vt 0.514827 0.734709
vt 0.581313 0.734709
vt 0.585156 0.633594
vt 0.514827 0.734709
vt 0.585156 0.633594
vt 0.510156 0.635938
vt 0.585156 0.633594
vt 0.573268 0.531508
vt 0.548070 0.550744
vt 0.816672 0.502892
vt 0.800703 0.502892
vt 0.832642 0.536865
vt 0.581313 0.734709
vt 0.614556 0.734709
vt 0.625781 0.633594
vt 0.581313 0.734709
vt 0.625781 0.633594
vt 0.585156 0.633594
vt 0.585156 0.633594
vt 0.625781 0.633594
vt 0.598466 0.531508
vt 0.585156 0.633594
vt 0.598466 0.531508
vt 0.573268 0.531508
vt 0.848611 0.502892
vt 0.816672 0.502892
vt 0.832642 0.536865
vt 0.514827 0.734709
vt 0.581313 0.734709
vt 0.585156 0.633594
vt 0.514827 0.734709
vt 0.585156 0.633594
vt 0.510156 0.635938
vt 0.585156 0.633594
vt 0.573268 0.531508
vt 0.548070 0.550744
vt 0.864580 0.502892
vt 0.848611 0.502892
vt 0.832642 0.536865
vt 0.581313 0.734709
vt 0.614556 0.734709
vt 0.625781 0.633594
vt 0.581313 0.734709
vt 0.625781 0.633594
vt 0.585156 0.633594
vt 0.585156 0.633594
vt 0.625781 0.633594
vt 0.598466 0.531508
vt 0.585156 0.633594
vt 0.598466 0.531508
vt 0.573268 0.531508
vt 0.278125 0.379687
vt 0.237500 0.379687
vt 0.255469 0.323438
vt 0.773438 0.122768
vt 0.735491 0.011719
vt 0.736049 0.097098
vt 0.736049 0.097098
vt 0.735491 0.011719
vt 0.773438 0.122768
vt 0.255469 0.323438
vt 0.237500 0.379687
vt 0.278125 0.379687
vt 0.278125 0.379687
vt 0.237500 0.379687
vt 0.255469 0.323438
vt 0.773438 0.122768
vt 0.735491 0.011719
vt 0.736049 0.097098
vt 0.811942 0.038504
vt 0.773438 0.122768
vt 0.735491 0.011719
vt 0.773438 0.122768
vt 0.811942 0.038504
vt 0.735491 0.011719
vt 0.773438 0.122768
vt 0.811942 0.038504
vt 0.735491 0.011719
vt 0.811942 0.038504
vt 0.773438 0.122768
vt 0.735491 0.011719
vt 0.811942 0.038504
vt 0.773438 0.122768
vt 0.735491 0.011719
vt 0.773438 0.122768
vt 0.811942 0.038504
vt 0.735491 0.011719
vt 0.548070 0.550744
vt 0.522872 0.531508
vt 0.510156 0.635938
vt 0.548070 0.550744
vt 0.510156 0.635938
vt 0.585156 0.633594
vt 0.773438 0.122768
vt 0.736049 0.131696
vt 0.736049 0.097098
vt 0.736049 0.097098
vt 0.736049 0.131696
vt 0.773438 0.122768
vt 0.736049 0.097098
vt 0.735491 0.011719
vt 0.773438 0.122768
vt 0.736049 0.097098
vt 0.735491 0.011719
vt 0.773438 0.122768
vt 0.548070 0.550744
vt 0.522872 0.531508
vt 0.510156 0.635938
vt 0.548070 0.550744
vt 0.510156 0.635938
vt 0.585156 0.633594
vt 0.773438 0.122768
vt 0.736049 0.131696
vt 0.736049 0.097098
vt 0.736049 0.097098
vt 0.736049 0.131696
vt 0.773438 0.122768
vt 0.773438 0.122768
vt 0.735491 0.011719
vt 0.736049 0.097098
vt 0.736049 0.097098
vt 0.736049 0.131696
vt 0.773438 0.122768
vt 0.773438 0.122768
vt 0.736049 0.131696
vt 0.736049 0.097098
vt 0.548070 0.550744
vt 0.522872 0.531508
vt 0.510156 0.635938
vt 0.510156 0.635938
vt 0.585156 0.633594
vt 0.548070 0.550744
vn 0.404838 -0.701200 0.586877
vn 0.809676 -0.000000 0.586877
vn 0.000000 -0.000000 1.000000
vn 0.809676 -0.000000 0.586877
vn 0.404838 -0.701200 0.586877
vn 0.600518 -0.799471 -0.014965
vn 0.809676 -0.000000 0.586877
vn 0.600518 -0.799471 -0.014965
vn 0.992526 -0.121117 -0.014896
vn 0.600518 -0.799471 -0.014965
vn 0.107307 -0.990042 -0.091120
vn 0.865999 -0.489508 0.102111
vn -0.404838 -0.701200 0.586877
vn 0.404838 -0.701200 0.586877
vn 0.000000 -0.000000 1.000000
vn 0.404838 -0.701200 0.586877
vn -0.404838 -0.701200 0.586877
vn -0.600518 -0.799471 -0.014965
vn 0.404838 -0.701200 0.586877
vn -0.600518 -0.799471 -0.014965
vn 0.600518 -0.799471 -0.014965
vn 0.600518 -0.799471 -0.014965
vn -0.600518 -0.799471 -0.014965
vn -0.107307 -0.990042 -0.091120
vn 0.600518 -0.799471 -0.014965
vn -0.107307 -0.990042 -0.091120
vn 0.107307 -0.990042 -0.091120
vn -0.809676 0.000000 0.586877
vn -0.404838 -0.701200 0.586877
vn 0.000000 -0.000000 1.000000
vn -0.404838 -0.701200 0.586877
vn -0.809676 0.000000 0.586877
vn -0.992526 -0.121117 -0.014896
vn -0.404838 -0.701200 0.586877
vn -0.992526 -0.121117 -0.014896
vn -0.600518 -0.799471 -0.014965
vn -0.992526 -0.121117 -0.014896
vn -0.907506 0.408430 -0.098071
vn -0.865999 -0.489508 0.102111
vn -0.404838 0.701200 0.586877
vn -0.809676 0.000000 0.586877
vn 0.000000 -0.000000 1.000000
vn -0.809676 0.000000 0.586877
vn -0.404838 0.701200 0.586877
vn -0.398920 0.916874 -0.014308
vn -0.809676 0.000000 0.586877
vn -0.398920 0.916874 -0.014308
vn -0.992526 -0.121117 -0.014896
vn -0.992526 -0.121117 -0.014896
vn -0.398920 0.916874 -0.014308
vn -0.786481 0.609508 -0.099743
vn -0.992526 -0.121117 -0.014896
vn -0.786481 0.609508 -0.099743
vn -0.907506 0.408430 -0.098071
vn 0.404838 0.701200 0.586877
vn -0.404838 0.701200 0.586877
vn 0.000000 -0.000000 1.000000
vn -0.404838 0.701200 0.586877
vn 0.404838 0.701200 0.586877
vn 0.398920 0.916874 -0.014308
vn -0.404838 0.701200 0.586877
vn 0.398920 0.916874 -0.014308
vn -0.398920 0.916874 -0.014308
vn 0.398920 0.916874 -0.014308
vn 0.786481 0.609507 -0.099743
vn 0.000000 0.997380 0.072341
vn 0.809676 -0.000000 0.586877
vn 0.404838 0.701200 0.586877
vn 0.000000 -0.000000 1.000000
vn 0.404838 0.701200 0.586877
vn 0.809676 -0.000000 0.586877
vn 0.992526 -0.121117 -0.014896
vn 0.404838 0.701200 0.586877
vn 0.992526 -0.121117 -0.014896
vn 0.398920 0.916874 -0.014308
vn 0.398920 0.916874 -0.014308
vn 0.992526 -0.121117 -0.014896
vn 0.907506 0.408430 -0.098071
vn 0.398920 0.916874 -0.014308
vn 0.907506 0.408430 -0.098071
vn 0.786481 0.609507 -0.099743
vn 0.107307 -0.990042 -0.091120
vn -0.107307 -0.990042 -0.091120
vn 0.000000 -0.959757 -0.280832
vn 0.786481 0.609507 -0.099743
vn 0.964732 0.231213 -0.125827
vn 0.730801 0.660428 0.172525
vn -0.122255 -0.971629 0.202462
vn 0.337468 -0.930924 -0.139630
vn -0.107307 -0.990042 -0.091120
vn 0.831174 0.479878 -0.280832
vn 0.786481 0.609507 -0.099743
vn 0.907506 0.408430 -0.098071
vn -0.907506 0.408430 -0.098071
vn -0.786481 0.609508 -0.099743
vn -0.831174 0.479878 -0.280832
vn 0.107307 -0.990042 -0.091120
vn -0.337468 -0.930924 -0.139630
vn 0.122255 -0.971629 0.202462
vn -0.831174 0.479878 -0.280832
vn -0.786481 0.609508 -0.099743
vn -0.964732 0.231213 -0.125827
vn 0.786481 0.609507 -0.099743
vn 0.831174 0.479878 -0.280832
vn 0.964732 0.231213 -0.125827
vn -0.907506 0.408430 -0.098071
vn -0.831174 0.479878 -0.280832
vn -0.636047 0.758835 -0.140046
vn 0.000000 -0.959757 -0.280832
vn -0.107307 -0.990042 -0.091120
vn 0.337468 -0.930924 -0.139630
vn 0.831174 0.479878 -0.280832
vn 0.907506 0.408430 -0.098071
vn 0.636047 0.758835 -0.140046
vn 0.107307 -0.990042 -0.091120
vn 0.000000 -0.959757 -0.280832
vn -0.337468 -0.930924 -0.139630
vn 0.000000 0.997380 0.072341
vn -0.786481 0.609508 -0.099743
vn -0.398920 0.916874 -0.014308
vn 0.000000 0.997380 0.072341
vn -0.398920 0.916874 -0.014308
vn 0.398920 0.916874 -0.014308
vn -0.786481 0.609508 -0.099743
vn 0.000000 0.997380 0.072341
vn -0.730801 0.660428 0.172525
vn 0.730801 0.660428 0.172525
vn 0.000000 0.997380 0.072341
vn 0.786481 0.609507 -0.099743
vn -0.730801 0.660428 0.172525
vn -0.964732 0.231213 -0.125827
vn -0.786481 0.609508 -0.099743
vn 0.898273 0.400798 0.180187
vn 0.636047 0.758835 -0.140046
vn 0.907506 0.408430 -0.098071
vn 0.865999 -0.489508 0.102111
vn 0.907506 0.408430 -0.098071
vn 0.992526 -0.121117 -0.014896
vn 0.865999 -0.489508 0.102111
vn 0.992526 -0.121117 -0.014896
vn 0.600518 -0.799471 -0.014965
vn 0.907506 0.408430 -0.098071
vn 0.865999 -0.489508 0.102111
vn 0.898273 0.400798 0.180187
vn 0.122255 -0.971629 0.202462
vn 0.865999 -0.489508 0.102111
vn 0.107307 -0.990042 -0.091120
vn -0.907506 0.408430 -0.098071
vn -0.636047 0.758835 -0.140046
vn -0.898273 0.400798 0.180187
vn -0.898273 0.400798 0.180187
vn -0.865999 -0.489508 0.102111
vn -0.907506 0.408430 -0.098071
vn -0.107307 -0.990042 -0.091120
vn -0.865999 -0.489508 0.102111
vn -0.122255 -0.971629 0.202462
vn -0.865999 -0.489508 0.102111
vn -0.107307 -0.990042 -0.091120
vn -0.600518 -0.799471 -0.014965
vn -0.600518 -0.799471 -0.014965
vn -0.992526 -0.121117 -0.014896
vn -0.865999 -0.489508 0.102111
f 5/1/1 2/2/2 1/3/3
f 2/4/4 5/5/5 6/6/6
f 2/7/7 6/8/8 3/9/9
f 6/10/10 7/11/11 27/12/12
f 8/13/13 5/14/14 1/15/15
f 5/16/16 8/17/17 9/18/18
f 5/19/19 9/20/20 6/21/21
f 6/22/22 9/23/23 18/24/24
f 6/25/25 18/26/26 7/27/27
f 10/28/28 8/29/29 1/30/30
f 8/31/31 10/32/32 11/33/33
f 8/34/34 11/35/35 9/36/36
f 11/37/37 12/38/38 26/39/39
f 13/40/40 10/41/41 1/42/42
f 10/43/43 13/44/44 14/45/45
f 10/46/46 14/47/47 11/48/48
f 11/49/49 14/50/50 15/51/51
f 11/52/52 15/53/53 12/54/54
f 16/55/55 13/56/56 1/57/57
f 13/58/58 16/59/59 17/60/60
f 13/61/61 17/62/62 14/63/63
f 17/64/64 19/65/65 23/66/66
f 2/67/67 16/68/68 1/69/69
f 16/70/70 2/71/71 3/72/72
f 16/73/73 3/74/74 17/75/75
f 17/76/76 3/77/77 4/78/78
f 17/79/79 4/80/80 19/81/81
f 7/82/82 18/83/83 20/84/84
f 19/85/85 21/86/86 29/87/87
f 24/88/88 25/89/89 18/90/90
f 20/91/91 19/92/92 4/93/93
f 12/94/94 15/95/95 20/96/96
f 7/97/97 28/98/98 22/99/99
f 20/100/100 15/101/101 21/102/102
f 19/103/103 20/104/104 21/105/105
f 12/106/106 20/107/107 25/108/108
f 20/109/109 18/110/110 25/111/111
f 20/112/112 4/113/113 28/114/114
f 7/115/115 20/116/116 28/117/117
f 23/118/118 15/119/119 14/120/120
f 23/121/121 14/122/122 17/123/123
f 15/124/124 23/125/125 29/126/126
f 29/127/127 23/128/128 19/129/129
f 29/130/130 21/131/131 15/132/132
f 22/133/133 28/134/134 4/135/135
f 27/136/136 4/137/137 3/138/138
f 27/139/139 3/140/140 6/141/141
f 4/142/142 27/143/143 22/144/144
f 22/145/145 27/146/146 7/147/147
f 12/148/148 25/149/149 24/150/150
f 24/151/151 26/152/152 12/153/153
f 18/154/154 26/155/155 24/156/156
f 26/157/157 18/158/158 9/159/159
f 9/160/160 11/161/161 26/162/162
