v 0.000000 0.000000 0.250883
v 0.020417 0.000000 0.130699
v 0.021116 0.000000 0.075393
v 0.009128 -0.000000 -0.066642
v 0.010209 -0.019608 0.130699
v 0.010558 -0.020280 0.075393
v 0.004564 -0.008449 -0.066642
v -0.010209 -0.019608 0.130699
v -0.010558 -0.020280 0.075393
v -0.020417 0.000000 0.130699
v -0.021116 0.000000 0.075393
v -0.009128 0.000000 -0.066642
v -0.010209 0.019608 0.130699
v -0.010558 0.020280 0.075393
v -0.004564 0.008449 -0.066642
v 0.010209 0.019608 0.130699
v 0.010558 0.020280 0.075393
v -0.004564 -0.008449 -0.066642
v 0.004564 0.008449 -0.066642
v 0.000000 -0.000000 -0.151813
v 0.000000 0.037425 -0.152807
v 0.032640 -0.020099 -0.116434
v 0.000000 0.009281 -0.052011
v -0.032640 -0.020099 -0.116434
v -0.030324 -0.018713 -0.152807
v -0.007531 -0.004225 -0.052011
v 0.007531 -0.004225 -0.052011
v 0.030324 -0.018713 -0.152807
v 0.000000 0.036029 -0.117320
vt 0.561240 0.642137
vt 0.564642 0.642263
vt 0.595136 0.665449
vt 0.518741 0.737609
vt 0.582967 0.737609
vt 0.591959 0.708806
vt 0.518741 0.737609
vt 0.591959 0.708806
vt 0.511719 0.709375
vt 0.591959 0.708806
vt 0.590332 0.640625
vt 0.550854 0.652598
vt 0.556074 0.642137
vt 0.561240 0.642137
vt 0.595136 0.665449
vt 0.582967 0.737609
vt 0.615080 0.737609
vt 0.626562 0.710156
vt 0.582967 0.737609
vt 0.626562 0.710156
vt 0.591959 0.708806
vt 0.591959 0.708806
vt 0.626562 0.710156
vt 0.616211 0.640625
vt 0.591959 0.708806
vt 0.616211 0.640625
vt 0.590332 0.640625
vt 0.553175 0.642137
vt 0.556074 0.642137
vt 0.595136 0.665449
vt 0.518741 0.737609
vt 0.582967 0.737609
vt 0.591959 0.708806
vt 0.518741 0.737609
vt 0.591959 0.708806
vt 0.511719 0.709375
vt 0.591959 0.708806
vt 0.590332 0.640625
vt 0.550854 0.652598
vt 0.556074 0.642137
vt 0.553175 0.642137
vt 0.595136 0.665449
vt 0.582967 0.737609
vt 0.615080 0.737609
vt 0.626562 0.710156
vt 0.582967 0.737609
vt 0.626562 0.710156
vt 0.591959 0.708806
vt 0.591959 0.708806
vt 0.626562 0.710156
vt 0.616211 0.640625
vt 0.591959 0.708806
vt 0.616211 0.640625
vt 0.590332 0.640625
vt 0.561240 0.642137
vt 0.556074 0.642137
vt 0.595136 0.665449
vt 0.518741 0.737609
vt 0.582967 0.737609
vt 0.591959 0.708806
vt 0.518741 0.737609
vt 0.591959 0.708806
vt 0.511719 0.709375
vt 0.591959 0.708806
vt 0.590332 0.640625
vt 0.550854 0.652598
vt 0.564642 0.642263
vt 0.561240 0.642137
vt 0.595136 0.665449
vt 0.582967 0.737609
vt 0.615080 0.737609
vt 0.626562 0.710156
vt 0.582967 0.737609
vt 0.626562 0.710156
vt 0.591959 0.708806
vt 0.591959 0.708806
vt 0.626562 0.710156
vt 0.616211 0.640625
vt 0.591959 0.708806
vt 0.616211 0.640625
vt 0.590332 0.640625
vt 0.590332 0.640625
vt 0.616211 0.640625
vt 0.603906 0.637500
vt 0.815430 0.034180
vt 0.712891 0.113770
vt 0.798828 0.107422
vt 0.798828 0.107422
vt 0.712891 0.113770
vt 0.815430 0.034180
vt 0.603906 0.637500
vt 0.590332 0.640625
vt 0.616211 0.640625
vt 0.590332 0.640625
vt 0.616211 0.640625
vt 0.603906 0.637500
vt 0.815430 0.034180
vt 0.712891 0.113770
vt 0.798828 0.107422
vt 0.723145 0.024902
vt 0.815430 0.034180
vt 0.712891 0.113770
vt 0.815430 0.034180
vt 0.723145 0.024902
vt 0.712891 0.113770
vt 0.815430 0.034180
vt 0.723145 0.024902
vt 0.712891 0.113770
vt 0.723145 0.024902
vt 0.815430 0.034180
vt 0.712891 0.113770
vt 0.723145 0.024902
vt 0.815430 0.034180
vt 0.712891 0.113770
vt 0.815430 0.034180
vt 0.723145 0.024902
vt 0.712891 0.113770
vt 0.550854 0.652598
vt 0.518224 0.643300
vt 0.511719 0.709375
vt 0.550854 0.652598
vt 0.511719 0.709375
vt 0.591959 0.708806
vt 0.815430 0.034180
vt 0.828613 0.054199
vt 0.798828 0.107422
vt 0.798828 0.107422
vt 0.828613 0.054199
vt 0.815430 0.034180
vt 0.798828 0.107422
vt 0.712891 0.113770
vt 0.815430 0.034180
vt 0.798828 0.107422
vt 0.712891 0.113770
vt 0.815430 0.034180
vt 0.550854 0.652598
vt 0.518224 0.643300
vt 0.511719 0.709375
vt 0.550854 0.652598
vt 0.511719 0.709375
vt 0.591959 0.708806
vt 0.815430 0.034180
vt 0.828613 0.054199
vt 0.798828 0.107422
vt 0.798828 0.107422
vt 0.828613 0.054199
vt 0.815430 0.034180
vt 0.815430 0.034180
vt 0.712891 0.113770
vt 0.798828 0.107422
vt 0.798828 0.107422
vt 0.828613 0.054199
vt 0.815430 0.034180
vt 0.815430 0.034180
vt 0.828613 0.054199
vt 0.798828 0.107422
vt 0.550854 0.652598
vt 0.518224 0.643300
vt 0.511719 0.709375
vt 0.511719 0.709375
vt 0.591959 0.708806
vt 0.550854 0.652598
vn 0.884123 -0.460303 0.080299
vn 0.995901 -0.000000 0.090451
vn 0.985875 -0.000000 0.167484
vn 0.995901 -0.000000 0.090451
vn 0.884123 -0.460303 0.080299
vn 0.896919 -0.439740 -0.046526
vn 0.995901 -0.000000 0.090451
vn 0.896919 -0.439740 -0.046526
vn 0.991091 -0.125078 -0.045763
vn 0.896919 -0.439740 -0.046526
vn 0.915790 -0.395229 -0.071568
vn 0.878675 -0.471695 -0.073717
vn -0.000000 -0.996224 0.086823
vn -0.000000 -0.996224 0.086823
vn 0.000000 -0.986951 0.161023
vn -0.000000 -0.996224 0.086823
vn -0.000000 -0.996224 0.086823
vn -0.000000 -0.999371 -0.035473
vn -0.000000 -0.996224 0.086823
vn -0.000000 -0.999371 -0.035473
vn -0.000000 -0.999371 -0.035473
vn -0.000000 -0.999371 -0.035473
vn -0.000000 -0.999371 -0.035473
vn 0.178174 -0.983993 0.003431
vn -0.000000 -0.999371 -0.035473
vn 0.178174 -0.983993 0.003431
vn -0.178174 -0.983993 0.003431
vn -0.995901 0.000000 0.090451
vn -0.884123 -0.460303 0.080299
vn -0.985875 0.000000 0.167484
vn -0.884123 -0.460303 0.080299
vn -0.995901 0.000000 0.090451
vn -0.991091 -0.125078 -0.045763
vn -0.884123 -0.460303 0.080299
vn -0.991091 -0.125078 -0.045763
vn -0.896919 -0.439740 -0.046526
vn -0.991091 -0.125078 -0.045763
vn -0.828568 -0.555504 -0.069934
vn -0.878675 -0.471695 -0.073717
vn -0.884123 0.460303 0.080299
vn -0.995901 0.000000 0.090451
vn -0.985875 0.000000 0.167484
vn -0.995901 0.000000 0.090451
vn -0.884123 0.460303 0.080299
vn -0.885490 0.463553 -0.032025
vn -0.995901 0.000000 0.090451
vn -0.885490 0.463553 -0.032025
vn -0.991091 -0.125078 -0.045763
vn -0.991091 -0.125078 -0.045763
vn -0.885490 0.463553 -0.032025
vn -0.939879 0.341505 0.001336
vn -0.991091 -0.125078 -0.045763
vn -0.939879 0.341505 0.001336
vn -0.782089 0.623162 -0.002352
vn 0.000000 0.996224 0.086823
vn 0.000000 0.996224 0.086823
vn 0.000000 0.986951 0.161023
vn 0.000000 0.996224 0.086823
vn 0.000000 0.996224 0.086823
vn -0.024796 0.998377 -0.051261
vn 0.000000 0.996224 0.086823
vn -0.024796 0.998377 -0.051261
vn 0.024797 0.998377 -0.051261
vn -0.024796 0.998377 -0.051261
vn -0.074269 0.994051 -0.079662
vn 0.000000 0.996638 -0.081929
vn 0.995901 -0.000000 0.090451
vn 0.884123 0.460303 0.080299
vn 0.985875 -0.000000 0.167484
vn 0.884123 0.460303 0.080299
vn 0.995901 -0.000000 0.090451
vn 0.991091 -0.125078 -0.045763
vn 0.884123 0.460303 0.080299
vn 0.991091 -0.125078 -0.045763
vn 0.885490 0.463553 -0.032025
vn 0.885490 0.463553 -0.032025
vn 0.991091 -0.125078 -0.045763
vn 0.782089 0.623162 -0.002352
vn 0.885490 0.463553 -0.032025
vn 0.782089 0.623162 -0.002352
vn 0.939879 0.341504 0.001336
vn -0.178174 -0.983993 0.003431
vn 0.178174 -0.983993 0.003431
vn -0.000000 -0.996950 -0.078044
vn 0.939879 0.341504 0.001336
vn 0.995893 0.087480 -0.023334
vn 0.922083 0.368689 0.117602
vn 0.170921 -0.976394 0.132066
vn 0.463053 -0.885718 -0.032935
vn 0.178174 -0.983993 0.003431
vn 0.873255 0.481604 -0.074049
vn 0.939879 0.341504 0.001336
vn 0.782089 0.623162 -0.002352
vn -0.782089 0.623162 -0.002352
vn -0.939879 0.341505 0.001336
vn -0.873255 0.481604 -0.074049
vn -0.178174 -0.983993 0.003431
vn -0.463053 -0.885718 -0.032935
vn -0.170921 -0.976394 0.132066
vn -0.873255 0.481604 -0.074049
vn -0.939879 0.341505 0.001336
vn -0.995893 0.087480 -0.023334
vn 0.939879 0.341504 0.001336
vn 0.873255 0.481604 -0.074049
vn 0.995893 0.087480 -0.023334
vn -0.782089 0.623162 -0.002352
vn -0.873255 0.481604 -0.074049
vn -0.581051 0.813170 -0.033663
vn -0.000000 -0.996950 -0.078044
vn 0.178174 -0.983993 0.003431
vn 0.463053 -0.885718 -0.032935
vn 0.873255 0.481604 -0.074049
vn 0.782089 0.623162 -0.002352
vn 0.581051 0.813170 -0.033663
vn -0.178174 -0.983993 0.003431
vn -0.000000 -0.996950 -0.078044
vn -0.463053 -0.885718 -0.032935
vn 0.000000 0.996638 -0.081929
vn 0.074269 0.994051 -0.079662
vn 0.024797 0.998377 -0.051261
vn 0.000000 0.996638 -0.081929
vn 0.024797 0.998377 -0.051261
vn -0.024796 0.998377 -0.051261
vn -0.939879 0.341505 0.001336
vn -0.810472 0.542076 0.222013
vn -0.922084 0.368689 0.117602
vn 0.922083 0.368689 0.117602
vn 0.810472 0.542076 0.222013
vn 0.939879 0.341504 0.001336
vn -0.922084 0.368689 0.117602
vn -0.995893 0.087480 -0.023334
vn -0.939879 0.341505 0.001336
vn 0.769894 0.628657 0.109790
vn 0.581051 0.813170 -0.033663
vn 0.782089 0.623162 -0.002352
vn 0.878675 -0.471695 -0.073717
vn 0.828568 -0.555504 -0.069934
vn 0.991091 -0.125078 -0.045763
vn 0.878675 -0.471695 -0.073717
vn 0.991091 -0.125078 -0.045763
vn 0.896919 -0.439740 -0.046526
vn 0.782089 0.623162 -0.002352
vn 0.862969 0.452461 0.224864
vn 0.769894 0.628657 0.109790
vn -0.170921 -0.976394 0.132066
vn 0.068741 -0.962108 0.263863
vn -0.178174 -0.983993 0.003431
vn -0.782089 0.623162 -0.002352
vn -0.581051 0.813170 -0.033663
vn -0.769894 0.628657 0.109790
vn -0.769894 0.628657 0.109790
vn -0.862969 0.452461 0.224864
vn -0.782089 0.623162 -0.002352
vn 0.178174 -0.983993 0.003431
vn -0.068742 -0.962107 0.263863
vn 0.170921 -0.976394 0.132066
vn -0.878675 -0.471695 -0.073717
vn -0.915790 -0.395229 -0.071568
vn -0.896919 -0.439740 -0.046526
vn -0.896919 -0.439740 -0.046526
vn -0.991091 -0.125078 -0.045763
vn -0.878675 -0.471695 -0.073717
f 5/1/1 2/2/2 1/3/3
f 2/4/4 5/5/5 6/6/6
f 2/7/7 6/8/8 3/9/9
f 6/10/10 7/11/11 27/12/12
f 8/13/13 5/14/14 1/15/15
f 5/16/16 8/17/17 9/18/18
f 5/19/19 9/20/20 6/21/21
f 6/22/22 9/23/23 18/24/24
f 6/25/25 18/26/26 7/27/27
f 10/28/28 8/29/29 1/30/30
f 8/31/31 10/32/32 11/33/33
f 8/34/34 11/35/35 9/36/36
f 11/37/37 12/38/38 26/39/39
f 13/40/40 10/41/41 1/42/42
f 10/43/43 13/44/44 14/45/45
f 10/46/46 14/47/47 11/48/48
f 11/49/49 14/50/50 15/51/51
f 11/52/52 15/53/53 12/54/54
f 16/55/55 13/56/56 1/57/57
f 13/58/58 16/59/59 17/60/60
f 13/61/61 17/62/62 14/63/63
f 17/64/64 19/65/65 23/66/66
f 2/67/67 16/68/68 1/69/69
f 16/70/70 2/71/71 3/72/72
f 16/73/73 3/74/74 17/75/75
f 17/76/76 3/77/77 4/78/78
f 17/79/79 4/80/80 19/81/81
f 7/82/82 18/83/83 20/84/84
f 19/85/85 21/86/86 29/87/87
f 24/88/88 25/89/89 18/90/90
f 20/91/91 19/92/92 4/93/93
f 12/94/94 15/95/95 20/96/96
f 7/97/97 28/98/98 22/99/99
f 20/100/100 15/101/101 21/102/102
f 19/103/103 20/104/104 21/105/105
f 12/106/106 20/107/107 25/108/108
f 20/109/109 18/110/110 25/111/111
f 20/112/112 4/113/113 28/114/114
f 7/115/115 20/116/116 28/117/117
f 23/118/118 15/119/119 14/120/120
f 23/121/121 14/122/122 17/123/123
f 15/124/124 23/125/125 29/126/126
f 29/127/127 23/128/128 19/129/129
f 29/130/130 21/131/131 15/132/132
f 22/133/133 28/134/134 4/135/135
f 27/136/136 4/137/137 3/138/138
f 27/139/139 3/140/140 6/141/141
f 4/142/142 27/143/143 22/144/144
f 22/145/145 27/146/146 7/147/147
f 12/148/148 25/149/149 24/150/150
f 24/151/151 26/152/152 12/153/153
f 18/154/154 26/155/155 24/156/156
f 26/157/157 18/158/158 9/159/159
f 9/160/160 11/161/161 26/162/162
