v 7.733333 0.000000 0.000000
v 7.000000 0.613801 0.000000
v 7.666667 0.000000 -1.000000
v 7.000000 0.558001 -1.000000
v 7.466667 0.000000 -2.000000
v 7.000000 0.390600 -2.000000
v 7.133333 0.000000 -3.000000
v 7.000000 0.111600 -3.000000
v 7.000000 0.000000 -3.285714
v 6.000000 1.339201 0.000000
v 6.000000 1.283401 -1.000000
v 6.000000 1.116001 -2.000000
v 6.000000 0.837001 -3.000000
v 6.615385 -0.000000 -4.000000
v 6.000000 0.446400 -4.000000
v 6.000000 -0.000000 -4.888889
v 5.000000 1.953002 0.000000
v 5.000000 1.897202 -1.000000
v 5.000000 1.729802 -2.000000
v 5.000000 1.450801 -3.000000
v 5.000000 1.060201 -4.000000
v 5.909091 -0.000000 -5.000000
v 5.000000 0.558001 -5.000000
v 5.000000 -0.000000 -5.909091
v 4.000000 2.455203 0.000000
v 4.000000 2.399403 -1.000000
v 4.000000 2.232002 -2.000000
v 4.000000 1.953002 -3.000000
v 4.000000 1.562402 -4.000000
v 4.000000 1.060201 -5.000000
v 4.888889 -0.000000 -6.000000
v 4.000000 0.446400 -6.000000
v 4.000000 -0.000000 -6.615385
v 3.000000 2.845803 0.000000
v 3.000000 2.790003 -1.000000
v 3.000000 2.622602 -2.000000
v 3.000000 2.343602 -3.000000
v 3.000000 1.953002 -4.000000
v 3.000000 1.450801 -5.000000
v 3.000000 0.837001 -6.000000
v 3.285715 -0.000000 -7.000000
v 3.000000 0.111600 -7.000000
v 3.000000 -0.000000 -7.133334
v 2.000000 3.124803 0.000000
v 2.000000 3.069003 -1.000000
v 2.000000 2.901603 -2.000000
v 2.000000 2.622603 -3.000000
v 2.000000 2.232002 -4.000000
v 2.000000 1.729802 -5.000000
v 2.000000 1.116001 -6.000000
v 2.000000 0.390600 -7.000000
v 2.000000 -0.000000 -7.466667
v 1.000000 3.292203 0.000000
v 1.000000 3.236403 -1.000000
v 1.000000 3.069003 -2.000000
v 1.000000 2.790003 -3.000000
v 1.000000 2.399403 -4.000000
v 1.000000 1.897202 -5.000000
v 1.000000 1.283401 -6.000000
v 1.000000 0.558001 -7.000000
v 1.000000 -0.000000 -7.666667
v 0.000000 3.348003 0.000000
v 0.000000 3.292203 -1.000000
v 0.000000 3.124803 -2.000000
v 0.000000 2.845803 -3.000000
v 0.000000 2.455202 -4.000000
v 0.000000 1.953002 -5.000000
v 0.000000 1.339201 -6.000000
v 0.000000 0.613801 -7.000000
v 0.000000 -0.000000 -7.733334
v -1.000000 3.292203 0.000000
v -1.000000 3.236403 -1.000000
v -1.000000 3.069003 -2.000000
v -1.000000 2.790003 -3.000000
v -1.000000 2.399403 -4.000000
v -1.000000 1.897202 -5.000000
v -1.000000 1.283401 -6.000000
v -1.000000 0.558001 -7.000000
v -1.000000 -0.000000 -7.666667
v -2.000000 3.124803 0.000000
v -2.000000 3.069003 -1.000000
v -2.000000 2.901603 -2.000000
v -2.000000 2.622603 -3.000000
v -2.000000 2.232002 -4.000000
v -2.000000 1.729802 -5.000000
v -2.000000 1.116001 -6.000000
v -2.000000 0.390600 -7.000000
v -2.000000 -0.000000 -7.466667
v -3.000000 2.845803 0.000000
v -3.000000 2.790003 -1.000000
v -3.000000 2.622602 -2.000000
v -3.000000 2.343602 -3.000000
v -3.000000 1.953002 -4.000000
v -3.000000 1.450801 -5.000000
v -3.000000 0.837001 -6.000000
v -3.000000 0.111600 -7.000000
v -3.000000 -0.000000 -7.133334
v -4.000000 2.455203 0.000000
v -4.000000 2.399403 -1.000000
v -4.000000 2.232002 -2.000000
v -4.000000 1.953002 -3.000000
v -4.000000 1.562402 -4.000000
v -4.000000 1.060201 -5.000000
v -4.000000 0.446400 -6.000000
v -3.285715 -0.000000 -7.000000
v -4.000000 -0.000000 -6.615385
v -5.000000 1.953002 0.000000
v -5.000000 1.897202 -1.000000
v -5.000000 1.729802 -2.000000
v -5.000000 1.450801 -3.000000
v -5.000000 1.060201 -4.000000
v -5.000000 0.558001 -5.000000
v -4.888889 -0.000000 -6.000000
v -5.000000 -0.000000 -5.909091
v -6.000000 1.339201 0.000000
v -6.000000 1.283401 -1.000000
v -6.000000 1.116001 -2.000000
v -6.000000 0.837001 -3.000000
v -6.000000 0.446400 -4.000000
v -5.909091 -0.000000 -5.000000
v -6.000000 -0.000000 -4.888889
v -7.000000 0.613801 0.000000
v -7.000000 0.558001 -1.000000
v -7.000000 0.390600 -2.000000
v -7.000000 0.111600 -3.000000
v -6.615385 -0.000000 -4.000000
v -7.000000 0.000000 -3.285714
v -7.733333 0.000000 0.000000
v -7.666667 0.000000 -1.000000
v -7.466667 0.000000 -2.000000
v -7.133333 0.000000 -3.000000
v 7.666667 0.000000 1.000000
v 7.000000 0.558001 1.000000
v 7.466667 0.000000 2.000000
v 7.000000 0.390600 2.000000
v 7.133333 0.000000 3.000000
v 7.000000 0.111600 3.000000
v 7.000000 0.000000 3.285714
v 6.000000 1.283401 1.000000
v 6.000000 1.116001 2.000000
v 6.000000 0.837001 3.000000
v 6.615385 -0.000000 4.000000
v 6.000000 0.446400 4.000000
v 6.000000 -0.000000 4.888889
v 5.000000 1.897202 1.000000
v 5.000000 1.729802 2.000000
v 5.000000 1.450801 3.000000
v 5.000000 1.060201 4.000000
v 5.909091 -0.000000 5.000000
v 5.000000 0.558001 5.000000
v 5.000000 -0.000000 5.909091
v 4.000000 2.399403 1.000000
v 4.000000 2.232002 2.000000
v 4.000000 1.953002 3.000000
v 4.000000 1.562402 4.000000
v 4.000000 1.060201 5.000000
v 4.888889 -0.000000 6.000000
v 4.000000 0.446400 6.000000
v 4.000000 -0.000000 6.615385
v 3.000000 2.790003 1.000000
v 3.000000 2.622602 2.000000
v 3.000000 2.343602 3.000000
v 3.000000 1.953002 4.000000
v 3.000000 1.450801 5.000000
v 3.000000 0.837001 6.000000
v 3.285715 -0.000000 7.000000
v 3.000000 0.111600 7.000000
v 3.000000 -0.000000 7.133334
v 2.000000 3.069003 1.000000
v 2.000000 2.901603 2.000000
v 2.000000 2.622603 3.000000
v 2.000000 2.232002 4.000000
v 2.000000 1.729802 5.000000
v 2.000000 1.116001 6.000000
v 2.000000 0.390600 7.000000
v 2.000000 -0.000000 7.466667
v 1.000000 3.236403 1.000000
v 1.000000 3.069003 2.000000
v 1.000000 2.790003 3.000000
v 1.000000 2.399403 4.000000
v 1.000000 1.897202 5.000000
v 1.000000 1.283401 6.000000
v 1.000000 0.558001 7.000000
v 1.000000 -0.000000 7.666667
v 0.000000 3.292203 1.000000
v 0.000000 3.124803 2.000000
v 0.000000 2.845803 3.000000
v 0.000000 2.455202 4.000000
v 0.000000 1.953002 5.000000
v 0.000000 1.339201 6.000000
v 0.000000 0.613801 7.000000
v 0.000000 -0.000000 7.733334
v -1.000000 3.236403 1.000000
v -1.000000 3.069003 2.000000
v -1.000000 2.790003 3.000000
v -1.000000 2.399403 4.000000
v -1.000000 1.897202 5.000000
v -1.000000 1.283401 6.000000
v -1.000000 0.558001 7.000000
v -1.000000 -0.000000 7.666667
v -2.000000 3.069003 1.000000
v -2.000000 2.901603 2.000000
v -2.000000 2.622603 3.000000
v -2.000000 2.232002 4.000000
v -2.000000 1.729802 5.000000
v -2.000000 1.116001 6.000000
v -2.000000 0.390600 7.000000
v -2.000000 -0.000000 7.466667
v -3.000000 2.790003 1.000000
v -3.000000 2.622602 2.000000
v -3.000000 2.343602 3.000000
v -3.000000 1.953002 4.000000
v -3.000000 1.450801 5.000000
v -3.000000 0.837001 6.000000
v -3.000000 0.111600 7.000000
v -3.000000 -0.000000 7.133334
v -4.000000 2.399403 1.000000
v -4.000000 2.232002 2.000000
v -4.000000 1.953002 3.000000
v -4.000000 1.562402 4.000000
v -4.000000 1.060201 5.000000
v -4.000000 0.446400 6.000000
v -3.285715 -0.000000 7.000000
v -4.000000 -0.000000 6.615385
v -5.000000 1.897202 1.000000
v -5.000000 1.729802 2.000000
v -5.000000 1.450801 3.000000
v -5.000000 1.060201 4.000000
v -5.000000 0.558001 5.000000
v -4.888889 -0.000000 6.000000
v -5.000000 -0.000000 5.909091
v -6.000000 1.283401 1.000000
v -6.000000 1.116001 2.000000
v -6.000000 0.837001 3.000000
v -6.000000 0.446400 4.000000
v -5.909091 -0.000000 5.000000
v -6.000000 -0.000000 4.888889
v -7.000000 0.558001 1.000000
v -7.000000 0.390600 2.000000
v -7.000000 0.111600 3.000000
v -6.615385 -0.000000 4.000000
v -7.000000 0.000000 3.285714
v -7.666667 0.000000 1.000000
v -7.466667 0.000000 2.000000
v -7.133333 0.000000 3.000000
vt 0.000000 0.000000
vt 0.000000 0.000000
vt 0.000000 0.000000
vt 0.000000 0.000000
vt 0.000000 0.000000
vt 0.000000 0.000000
vt 0.000000 0.000000
vt 0.000000 0.000000
vt 0.000000 0.000000
vt 0.000000 0.000000
vt 0.000000 0.000000
vt 0.000000 0.000000
vt 0.000000 0.000000
vt 0.000000 0.000000
vt 0.000000 0.000000
vt 0.000000 0.000000
vt 0.000000 0.000000
vt 0.000000 0.000000
vt 0.000000 0.000000
vt 0.000000 0.000000
vt 0.000000 0.000000
vt 0.000000 0.000000
vt 0.000000 0.000000
vt 0.000000 0.000000
vt 0.000000 0.000000
vt 0.000000 0.000000
vt 0.000000 0.000000
vt 0.000000 0.000000
vt 0.000000 0.000000
vt 0.000000 0.000000
vt 0.000000 0.000000
vt 0.000000 0.000000
vt 0.000000 0.000000
vt 0.000000 0.000000
vt 0.000000 0.000000
vt 0.000000 0.000000
vt 0.000000 0.000000
vt 0.000000 0.000000
vt 0.000000 0.000000
vt 0.000000 0.000000
vt 0.000000 0.000000
vt 0.000000 0.000000
vt 0.000000 0.000000
vt 0.000000 0.000000
vt 0.000000 0.000000
vt 0.000000 0.000000
vt 0.000000 0.000000
vt 0.000000 0.000000
vt 0.000000 0.000000
vt 0.000000 0.000000
vt 0.000000 0.000000
vt 0.000000 0.000000
vt 0.000000 0.000000
vt 0.000000 0.000000
vt 0.000000 0.000000
vt 0.000000 0.000000
vt 0.000000 0.000000
vt 0.000000 0.000000
vt 0.000000 0.000000
vt 0.000000 0.000000
vt 0.000000 0.000000
vt 0.000000 0.000000
vt 0.000000 0.000000
vt 0.000000 0.000000
vt 0.000000 0.000000
vt 0.000000 0.000000
vt 0.000000 0.000000
vt 0.000000 0.000000
vt 0.000000 0.000000
vt 0.000000 0.000000
vt 0.000000 0.000000
vt 0.000000 0.000000
vt 0.000000 0.000000
vt 0.000000 0.000000
vt 0.000000 0.000000
vt 0.000000 0.000000
vt 0.000000 0.000000
vt 0.000000 0.000000
vt 0.000000 0.000000
vt 0.000000 0.000000
vt 0.000000 0.000000
vt 0.000000 0.000000
vt 0.000000 0.000000
vt 0.000000 0.000000
vt 0.000000 0.000000
vt 0.000000 0.000000
vt 0.000000 0.000000
vt 0.000000 0.000000
vt 0.000000 0.000000
vt 0.000000 0.000000
vt 0.000000 0.000000
vt 0.000000 0.000000
vt 0.000000 0.000000
vt 0.000000 0.000000
vt 0.000000 0.000000
vt 0.000000 0.000000
vt 0.000000 0.000000
vt 0.000000 0.000000
vt 0.000000 0.000000
vt 0.000000 0.000000
vt 0.000000 0.000000
vt 0.000000 0.000000
vt 0.000000 0.000000
vt 0.000000 0.000000
vt 0.000000 0.000000
vt 0.000000 0.000000
vt 0.000000 0.000000
vt 0.000000 0.000000
vt 0.000000 0.000000
vt 0.000000 0.000000
vt 0.000000 0.000000
vt 0.000000 0.000000
vt 0.000000 0.000000
vt 0.000000 0.000000
vt 0.000000 0.000000
vt 0.000000 0.000000
vt 0.000000 0.000000
vt 0.000000 0.000000
vt 0.000000 0.000000
vt 0.000000 0.000000
vt 0.000000 0.000000
vt 0.000000 0.000000
vt 0.000000 0.000000
vt 0.000000 0.000000
vt 0.000000 0.000000
vt 0.000000 0.000000
vt 0.000000 0.000000
vt 0.000000 0.000000
vt 0.000000 0.000000
vt 0.000000 0.000000
vt 0.000000 0.000000
vt 0.000000 0.000000
vt 0.000000 0.000000
vt 0.000000 0.000000
vt 0.000000 0.000000
vt 0.000000 0.000000
vt 0.000000 0.000000
vt 0.000000 0.000000
vt 0.000000 0.000000
vt 0.000000 0.000000
vt 0.000000 0.000000
vt 0.000000 0.000000
vt 0.000000 0.000000
vt 0.000000 0.000000
vt 0.000000 0.000000
vt 0.000000 0.000000
vt 0.000000 0.000000
vt 0.000000 0.000000
vt 0.000000 0.000000
vt 0.000000 0.000000
vt 0.000000 0.000000
vt 0.000000 0.000000
vt 0.000000 0.000000
vt 0.000000 0.000000
vt 0.000000 0.000000
vt 0.000000 0.000000
vt 0.000000 0.000000
vt 0.000000 0.000000
vt 0.000000 0.000000
vt 0.000000 0.000000
vt 0.000000 0.000000
vt 0.000000 0.000000
vt 0.000000 0.000000
vt 0.000000 0.000000
vt 0.000000 0.000000
vt 0.000000 0.000000
vt 0.000000 0.000000
vt 0.000000 0.000000
vt 0.000000 0.000000
vt 0.000000 0.000000
vt 0.000000 0.000000
vt 0.000000 0.000000
vt 0.000000 0.000000
vt 0.000000 0.000000
vt 0.000000 0.000000
vt 0.000000 0.000000
vt 0.000000 0.000000
vt 0.000000 0.000000
vt 0.000000 0.000000
vt 0.000000 0.000000
vt 0.000000 0.000000
vt 0.000000 0.000000
vt 0.000000 0.000000
vt 0.000000 0.000000
vt 0.000000 0.000000
vt 0.000000 0.000000
vt 0.000000 0.000000
vt 0.000000 0.000000
vt 0.000000 0.000000
vt 0.000000 0.000000
vt 0.000000 0.000000
vt 0.000000 0.000000
vt 0.000000 0.000000
vt 0.000000 0.000000
vt 0.000000 0.000000
vt 0.000000 0.000000
vt 0.000000 0.000000
vt 0.000000 0.000000
vt 0.000000 0.000000
vt 0.000000 0.000000
vt 0.000000 0.000000
vt 0.000000 0.000000
vt 0.000000 0.000000
vt 0.000000 0.000000
vt 0.000000 0.000000
vt 0.000000 0.000000
vt 0.000000 0.000000
vt 0.000000 0.000000
vt 0.000000 0.000000
vt 0.000000 0.000000
vt 0.000000 0.000000
vt 0.000000 0.000000
vt 0.000000 0.000000
vt 0.000000 0.000000
vt 0.000000 0.000000
vt 0.000000 0.000000
vt 0.000000 0.000000
vt 0.000000 0.000000
vt 0.000000 0.000000
vt 0.000000 0.000000
vt 0.000000 0.000000
vt 0.000000 0.000000
vt 0.000000 0.000000
vt 0.000000 0.000000
vt 0.000000 0.000000
vt 0.000000 0.000000
vt 0.000000 0.000000
vt 0.000000 0.000000
vt 0.000000 0.000000
vt 0.000000 0.000000
vt 0.000000 0.000000
vt 0.000000 0.000000
vt 0.000000 0.000000
vt 0.000000 0.000000
vt 0.000000 0.000000
vt 0.000000 0.000000
vt 0.000000 0.000000
vt 0.000000 0.000000
vt 0.000000 0.000000
vt 0.000000 0.000000
vt 0.000000 0.000000
vt 0.000000 0.000000
vt 0.000000 0.000000
vt 0.000000 0.000000
vt 0.000000 0.000000
vt 0.000000 0.000000
vt 0.000000 0.000000
vt 0.000000 0.000000
vt 0.000000 0.000000
vt 0.000000 0.000000
vt 0.000000 0.000000
vt 0.000000 0.000000
vt 0.000000 0.000000
vt 0.000000 0.000000
vt 0.000000 0.000000
vt 0.000000 0.000000
vt 0.000000 0.000000
vt 0.000000 0.000000
vt 0.000000 0.000000
vt 0.000000 0.000000
vt 0.000000 0.000000
vt 0.000000 0.000000
vt 0.000000 0.000000
vt 0.000000 0.000000
vt 0.000000 0.000000
vt 0.000000 0.000000
vt 0.000000 0.000000
vt 0.000000 0.000000
vt 0.000000 0.000000
vt 0.000000 0.000000
vt 0.000000 0.000000
vt 0.000000 0.000000
vt 0.000000 0.000000
vt 0.000000 0.000000
vt 0.000000 0.000000
vt 0.000000 0.000000
vt 0.000000 0.000000
vt 0.000000 0.000000
vt 0.000000 0.000000
vt 0.000000 0.000000
vt 0.000000 0.000000
vt 0.000000 0.000000
vt 0.000000 0.000000
vt 0.000000 0.000000
vt 0.000000 0.000000
vt 0.000000 0.000000
vt 0.000000 0.000000
vt 0.000000 0.000000
vt 0.000000 0.000000
vt 0.000000 0.000000
vt 0.000000 0.000000
vt 0.000000 0.000000
vt 0.000000 0.000000
vt 0.000000 0.000000
vt 0.000000 0.000000
vt 0.000000 0.000000
vt 0.000000 0.000000
vt 0.000000 0.000000
vt 0.000000 0.000000
vt 0.000000 0.000000
vt 0.000000 0.000000
vt 0.000000 0.000000
vt 0.000000 0.000000
vt 0.000000 0.000000
vt 0.000000 0.000000
vt 0.000000 0.000000
vt 0.000000 0.000000
vt 0.000000 0.000000
vt 0.000000 0.000000
vt 0.000000 0.000000
vt 0.000000 0.000000
vt 0.000000 0.000000
vt 0.000000 0.000000
vt 0.000000 0.000000
vt 0.000000 0.000000
vt 0.000000 0.000000
vt 0.000000 0.000000
vt 0.000000 0.000000
vt 0.000000 0.000000
vt 0.000000 0.000000
vt 0.000000 0.000000
vt 0.000000 0.000000
vt 0.000000 0.000000
vt 0.000000 0.000000
vt 0.000000 0.000000
vt 0.000000 0.000000
vt 0.000000 0.000000
vt 0.000000 0.000000
vt 0.000000 0.000000
vt 0.000000 0.000000
vt 0.000000 0.000000
vt 0.000000 0.000000
vt 0.000000 0.000000
vt 0.000000 0.000000
vt 0.000000 0.000000
vt 0.000000 0.000000
vt 0.000000 0.000000
vt 0.000000 0.000000
vt 0.000000 0.000000
vt 0.000000 0.000000
vt 0.000000 0.000000
vt 0.000000 0.000000
vt 0.000000 0.000000
vt 0.000000 0.000000
vt 0.000000 0.000000
vt 0.000000 0.000000
vt 0.000000 0.000000
vt 0.000000 0.000000
vt 0.000000 0.000000
vt 0.000000 0.000000
vt 0.000000 0.000000
vt 0.000000 0.000000
vt 0.000000 0.000000
vt 0.000000 0.000000
vt 0.000000 0.000000
vt 0.000000 0.000000
vt 0.000000 0.000000
vt 0.000000 0.000000
vt 0.000000 0.000000
vt 0.000000 0.000000
vt 0.000000 0.000000
vt 0.000000 0.000000
vt 0.000000 0.000000
vt 0.000000 0.000000
vt 0.000000 0.000000
vt 0.000000 0.000000
vt 0.000000 0.000000
vt 0.000000 0.000000
vt 0.000000 0.000000
vt 0.000000 0.000000
vt 0.000000 0.000000
vt 0.000000 0.000000
vt 0.000000 0.000000
vt 0.000000 0.000000
vt 0.000000 0.000000
vt 0.000000 0.000000
vt 0.000000 0.000000
vt 0.000000 0.000000
vt 0.000000 0.000000
vt 0.000000 0.000000
vt 0.000000 0.000000
vt 0.000000 0.000000
vt 0.000000 0.000000
vt 0.000000 0.000000
vt 0.000000 0.000000
vt 0.000000 0.000000
vt 0.000000 0.000000
vt 0.000000 0.000000
vt 0.000000 0.000000
vt 0.000000 0.000000
vt 0.000000 0.000000
vt 0.000000 0.000000
vt 0.000000 0.000000
vt 0.000000 0.000000
vt 0.000000 0.000000
vt 0.000000 0.000000
vt 0.000000 0.000000
vt 0.000000 0.000000
vt 0.000000 0.000000
vt 0.000000 0.000000
vt 0.000000 0.000000
vt 0.000000 0.000000
vt 0.000000 0.000000
vt 0.000000 0.000000
vt 0.000000 0.000000
vt 0.000000 0.000000
vt 0.000000 0.000000
vt 0.000000 0.000000
vt 0.000000 0.000000
vt 0.000000 0.000000
vt 0.000000 0.000000
vt 0.000000 0.000000
vt 0.000000 0.000000
vt 0.000000 0.000000
vt 0.000000 0.000000
vt 0.000000 0.000000
vt 0.000000 0.000000
vt 0.000000 0.000000
vt 0.000000 0.000000
vt 0.000000 0.000000
vt 0.000000 0.000000
vt 0.000000 0.000000
vt 0.000000 0.000000
vt 0.000000 0.000000
vt 0.000000 0.000000
vt 0.000000 0.000000
vt 0.000000 0.000000
vt 0.000000 0.000000
vt 0.000000 0.000000
vt 0.000000 0.000000
vt 0.000000 0.000000
vt 0.000000 0.000000
vt 0.000000 0.000000
vt 0.000000 0.000000
vt 0.000000 0.000000
vt 0.000000 0.000000
vt 0.000000 0.000000
vt 0.000000 0.000000
vt 0.000000 0.000000
vt 0.000000 0.000000
vt 0.000000 0.000000
vt 0.000000 0.000000
vt 0.000000 0.000000
vt 0.000000 0.000000
vt 0.000000 0.000000
vt 0.000000 0.000000
vt 0.000000 0.000000
vt 0.000000 0.000000
vt 0.000000 0.000000
vt 0.000000 0.000000
vt 0.000000 0.000000
vt 0.000000 0.000000
vt 0.000000 0.000000
vt 0.000000 0.000000
vt 0.000000 0.000000
vt 0.000000 0.000000
vt 0.000000 0.000000
vt 0.000000 0.000000
vt 0.000000 0.000000
vt 0.000000 0.000000
vt 0.000000 0.000000
vt 0.000000 0.000000
vt 0.000000 0.000000
vt 0.000000 0.000000
vt 0.000000 0.000000
vt 0.000000 0.000000
vt 0.000000 0.000000
vt 0.000000 0.000000
vt 0.000000 0.000000
vt 0.000000 0.000000
vt 0.000000 0.000000
vt 0.000000 0.000000
vt 0.000000 0.000000
vt 0.000000 0.000000
vt 0.000000 0.000000
vt 0.000000 0.000000
vt 0.000000 0.000000
vt 0.000000 0.000000
vt 0.000000 0.000000
vt 0.000000 0.000000
vt 0.000000 0.000000
vt 0.000000 0.000000
vt 0.000000 0.000000
vt 0.000000 0.000000
vt 0.000000 0.000000
vt 0.000000 0.000000
vt 0.000000 0.000000
vt 0.000000 0.000000
vt 0.000000 0.000000
vt 0.000000 0.000000
vt 0.000000 0.000000
vt 0.000000 0.000000
vt 0.000000 0.000000
vt 0.000000 0.000000
vt 0.000000 0.000000
vt 0.000000 0.000000
vt 0.000000 0.000000
vt 0.000000 0.000000
vt 0.000000 0.000000
vt 0.000000 0.000000
vt 0.000000 0.000000
vt 0.000000 0.000000
vt 0.000000 0.000000
vt 0.000000 0.000000
vt 0.000000 0.000000
vt 0.000000 0.000000
vt 0.000000 0.000000
vt 0.000000 0.000000
vt 0.000000 0.000000
vt 0.000000 0.000000
vt 0.000000 0.000000
vt 0.000000 0.000000
vt 0.000000 0.000000
vt 0.000000 0.000000
vt 0.000000 0.000000
vt 0.000000 0.000000
vt 0.000000 0.000000
vt 0.000000 0.000000
vt 0.000000 0.000000
vt 0.000000 0.000000
vt 0.000000 0.000000
vt 0.000000 0.000000
vt 0.000000 0.000000
vt 0.000000 0.000000
vt 0.000000 0.000000
vt 0.000000 0.000000
vt 0.000000 0.000000
vt 0.000000 0.000000
vt 0.000000 0.000000
vt 0.000000 0.000000
vt 0.000000 0.000000
vt 0.000000 0.000000
vt 0.000000 0.000000
vt 0.000000 0.000000
vt 0.000000 0.000000
vt 0.000000 0.000000
vt 0.000000 0.000000
vt 0.000000 0.000000
vt 0.000000 0.000000
vt 0.000000 0.000000
vt 0.000000 0.000000
vt 0.000000 0.000000
vt 0.000000 0.000000
vt 0.000000 0.000000
vt 0.000000 0.000000
vt 0.000000 0.000000
vt 0.000000 0.000000
vt 0.000000 0.000000
vt 0.000000 0.000000
vt 0.000000 0.000000
vt 0.000000 0.000000
vt 0.000000 0.000000
vt 0.000000 0.000000
vt 0.000000 0.000000
vt 0.000000 0.000000
vt 0.000000 0.000000
vt 0.000000 0.000000
vt 0.000000 0.000000
vt 0.000000 0.000000
vt 0.000000 0.000000
vt 0.000000 0.000000
vt 0.000000 0.000000
vt 0.000000 0.000000
vt 0.000000 0.000000
vt 0.000000 0.000000
vt 0.000000 0.000000
vt 0.000000 0.000000
vt 0.000000 0.000000
vt 0.000000 0.000000
vt 0.000000 0.000000
vt 0.000000 0.000000
vt 0.000000 0.000000
vt 0.000000 0.000000
vt 0.000000 0.000000
vt 0.000000 0.000000
vt 0.000000 0.000000
vt 0.000000 0.000000
vt 0.000000 0.000000
vt 0.000000 0.000000
vt 0.000000 0.000000
vt 0.000000 0.000000
vt 0.000000 0.000000
vt 0.000000 0.000000
vt 0.000000 0.000000
vt 0.000000 0.000000
vt 0.000000 0.000000
vt 0.000000 0.000000
vt 0.000000 0.000000
vt 0.000000 0.000000
vt 0.000000 0.000000
vt 0.000000 0.000000
vt 0.000000 0.000000
vt 0.000000 0.000000
vt 0.000000 0.000000
vt 0.000000 0.000000
vt 0.000000 0.000000
vt 0.000000 0.000000
vt 0.000000 0.000000
vt 0.000000 0.000000
vt 0.000000 0.000000
vt 0.000000 0.000000
vt 0.000000 0.000000
vt 0.000000 0.000000
vt 0.000000 0.000000
vt 0.000000 0.000000
vt 0.000000 0.000000
vt 0.000000 0.000000
vt 0.000000 0.000000
vt 0.000000 0.000000
vt 0.000000 0.000000
vt 0.000000 0.000000
vt 0.000000 0.000000
vt 0.000000 0.000000
vt 0.000000 0.000000
vt 0.000000 0.000000
vt 0.000000 0.000000
vt 0.000000 0.000000
vt 0.000000 0.000000
vt 0.000000 0.000000
vt 0.000000 0.000000
vt 0.000000 0.000000
vt 0.000000 0.000000
vt 0.000000 0.000000
vt 0.000000 0.000000
vt 0.000000 0.000000
vt 0.000000 0.000000
vt 0.000000 0.000000
vt 0.000000 0.000000
vt 0.000000 0.000000
vt 0.000000 0.000000
vt 0.000000 0.000000
vt 0.000000 0.000000
vt 0.000000 0.000000
vt 0.000000 0.000000
vt 0.000000 0.000000
vt 0.000000 0.000000
vt 0.000000 0.000000
vt 0.000000 0.000000
vt 0.000000 0.000000
vt 0.000000 0.000000
vt 0.000000 0.000000
vt 0.000000 0.000000
vt 0.000000 0.000000
vt 0.000000 0.000000
vt 0.000000 0.000000
vt 0.000000 0.000000
vt 0.000000 0.000000
vt 0.000000 0.000000
vt 0.000000 0.000000
vt 0.000000 0.000000
vt 0.000000 0.000000
vt 0.000000 0.000000
vt 0.000000 0.000000
vt 0.000000 0.000000
vt 0.000000 0.000000
vt 0.000000 0.000000
vt 0.000000 0.000000
vt 0.000000 0.000000
vt 0.000000 0.000000
vt 0.000000 0.000000
vt 0.000000 0.000000
vt 0.000000 0.000000
vt 0.000000 0.000000
vt 0.000000 0.000000
vt 0.000000 0.000000
vt 0.000000 0.000000
vt 0.000000 0.000000
vt 0.000000 0.000000
vt 0.000000 0.000000
vt 0.000000 0.000000
vt 0.000000 0.000000
vt 0.000000 0.000000
vt 0.000000 0.000000
vt 0.000000 0.000000
vt 0.000000 0.000000
vt 0.000000 0.000000
vt 0.000000 0.000000
vt 0.000000 0.000000
vt 0.000000 0.000000
vt 0.000000 0.000000
vt 0.000000 0.000000
vt 0.000000 0.000000
vt 0.000000 0.000000
vt 0.000000 0.000000
vt 0.000000 0.000000
vt 0.000000 0.000000
vt 0.000000 0.000000
vt 0.000000 0.000000
vt 0.000000 0.000000
vt 0.000000 0.000000
vt 0.000000 0.000000
vt 0.000000 0.000000
vt 0.000000 0.000000
vt 0.000000 0.000000
vt 0.000000 0.000000
vt 0.000000 0.000000
vt 0.000000 0.000000
vt 0.000000 0.000000
vt 0.000000 0.000000
vt 0.000000 0.000000
vt 0.000000 0.000000
vt 0.000000 0.000000
vt 0.000000 0.000000
vt 0.000000 0.000000
vt 0.000000 0.000000
vt 0.000000 0.000000
vt 0.000000 0.000000
vt 0.000000 0.000000
vt 0.000000 0.000000
vt 0.000000 0.000000
vt 0.000000 0.000000
vt 0.000000 0.000000
vt 0.000000 0.000000
vt 0.000000 0.000000
vt 0.000000 0.000000
vt 0.000000 0.000000
vt 0.000000 0.000000
vt 0.000000 0.000000
vt 0.000000 0.000000
vt 0.000000 0.000000
vt 0.000000 0.000000
vt 0.000000 0.000000
vt 0.000000 0.000000
vt 0.000000 0.000000
vt 0.000000 0.000000
vt 0.000000 0.000000
vt 0.000000 0.000000
vt 0.000000 0.000000
vt 0.000000 0.000000
vt 0.000000 0.000000
vt 0.000000 0.000000
vt 0.000000 0.000000
vt 0.000000 0.000000
vt 0.000000 0.000000
vt 0.000000 0.000000
vt 0.000000 0.000000
vt 0.000000 0.000000
vt 0.000000 0.000000
vt 0.000000 0.000000
vt 0.000000 0.000000
vt 0.000000 0.000000
vt 0.000000 0.000000
vt 0.000000 0.000000
vt 0.000000 0.000000
vt 0.000000 0.000000
vt 0.000000 0.000000
vt 0.000000 0.000000
vt 0.000000 0.000000
vt 0.000000 0.000000
vt 0.000000 0.000000
vt 0.000000 0.000000
vt 0.000000 0.000000
vt 0.000000 0.000000
vt 0.000000 0.000000
vt 0.000000 0.000000
vt 0.000000 0.000000
vt 0.000000 0.000000
vt 0.000000 0.000000
vt 0.000000 0.000000
vt 0.000000 0.000000
vt 0.000000 0.000000
vt 0.000000 0.000000
vt 0.000000 0.000000
vt 0.000000 0.000000
vt 0.000000 0.000000
vt 0.000000 0.000000
vt 0.000000 0.000000
vt 0.000000 0.000000
vt 0.000000 0.000000
vt 0.000000 0.000000
vt 0.000000 0.000000
vt 0.000000 0.000000
vt 0.000000 0.000000
vt 0.000000 0.000000
vt 0.000000 0.000000
vt 0.000000 0.000000
vt 0.000000 0.000000
vt 0.000000 0.000000
vt 0.000000 0.000000
vt 0.000000 0.000000
vt 0.000000 0.000000
vt 0.000000 0.000000
vt 0.000000 0.000000
vt 0.000000 0.000000
vt 0.000000 0.000000
vt 0.000000 0.000000
vt 0.000000 0.000000
vt 0.000000 0.000000
vt 0.000000 0.000000
vt 0.000000 0.000000
vt 0.000000 0.000000
vt 0.000000 0.000000
vt 0.000000 0.000000
vt 0.000000 0.000000
vt 0.000000 0.000000
vt 0.000000 0.000000
vt 0.000000 0.000000
vt 0.000000 0.000000
vt 0.000000 0.000000
vt 0.000000 0.000000
vt 0.000000 0.000000
vt 0.000000 0.000000
vt 0.000000 0.000000
vt 0.000000 0.000000
vt 0.000000 0.000000
vt 0.000000 0.000000
vt 0.000000 0.000000
vt 0.000000 0.000000
vt 0.000000 0.000000
vt 0.000000 0.000000
vt 0.000000 0.000000
vt 0.000000 0.000000
vt 0.000000 0.000000
vt 0.000000 0.000000
vt 0.000000 0.000000
vt 0.000000 0.000000
vt 0.000000 0.000000
vt 0.000000 0.000000
vt 0.000000 0.000000
vt 0.000000 0.000000
vt 0.000000 0.000000
vt 0.000000 0.000000
vt 0.000000 0.000000
vt 0.000000 0.000000
vt 0.000000 0.000000
vt 0.000000 0.000000
vt 0.000000 0.000000
vt 0.000000 0.000000
vt 0.000000 0.000000
vt 0.000000 0.000000
vt 0.000000 0.000000
vt 0.000000 0.000000
vt 0.000000 0.000000
vt 0.000000 0.000000
vt 0.000000 0.000000
vt 0.000000 0.000000
vt 0.000000 0.000000
vt 0.000000 0.000000
vt 0.000000 0.000000
vt 0.000000 0.000000
vt 0.000000 0.000000
vt 0.000000 0.000000
vt 0.000000 0.000000
vt 0.000000 0.000000
vt 0.000000 0.000000
vt 0.000000 0.000000
vt 0.000000 0.000000
vt 0.000000 0.000000
vt 0.000000 0.000000
vt 0.000000 0.000000
vt 0.000000 0.000000
vt 0.000000 0.000000
vt 0.000000 0.000000
vt 0.000000 0.000000
vt 0.000000 0.000000
vt 0.000000 0.000000
vt 0.000000 0.000000
vt 0.000000 0.000000
vt 0.000000 0.000000
vt 0.000000 0.000000
vt 0.000000 0.000000
vt 0.000000 0.000000
vt 0.000000 0.000000
vt 0.000000 0.000000
vt 0.000000 0.000000
vt 0.000000 0.000000
vt 0.000000 0.000000
vt 0.000000 0.000000
vt 0.000000 0.000000
vt 0.000000 0.000000
vt 0.000000 0.000000
vt 0.000000 0.000000
vt 0.000000 0.000000
vt 0.000000 0.000000
vt 0.000000 0.000000
vt 0.000000 0.000000
vt 0.000000 0.000000
vt 0.000000 0.000000
vt 0.000000 0.000000
vt 0.000000 0.000000
vt 0.000000 0.000000
vt 0.000000 0.000000
vt 0.000000 0.000000
vt 0.000000 0.000000
vt 0.000000 0.000000
vt 0.000000 0.000000
vt 0.000000 0.000000
vt 0.000000 0.000000
vt 0.000000 0.000000
vt 0.000000 0.000000
vt 0.000000 0.000000
vt 0.000000 0.000000
vt 0.000000 0.000000
vt 0.000000 0.000000
vt 0.000000 0.000000
vt 0.000000 0.000000
vt 0.000000 0.000000
vt 0.000000 0.000000
vt 0.000000 0.000000
vt 0.000000 0.000000
vt 0.000000 0.000000
vt 0.000000 0.000000
vt 0.000000 0.000000
vt 0.000000 0.000000
vt 0.000000 0.000000
vt 0.000000 0.000000
vt 0.000000 0.000000
vt 0.000000 0.000000
vt 0.000000 0.000000
vt 0.000000 0.000000
vt 0.000000 0.000000
vt 0.000000 0.000000
vt 0.000000 0.000000
vt 0.000000 0.000000
vt 0.000000 0.000000
vt 0.000000 0.000000
vt 0.000000 0.000000
vt 0.000000 0.000000
vt 0.000000 0.000000
vt 0.000000 0.000000
vt 0.000000 0.000000
vt 0.000000 0.000000
vt 0.000000 0.000000
vt 0.000000 0.000000
vt 0.000000 0.000000
vt 0.000000 0.000000
vt 0.000000 0.000000
vt 0.000000 0.000000
vt 0.000000 0.000000
vt 0.000000 0.000000
vt 0.000000 0.000000
vt 0.000000 0.000000
vt 0.000000 0.000000
vt 0.000000 0.000000
vt 0.000000 0.000000
vt 0.000000 0.000000
vt 0.000000 0.000000
vt 0.000000 0.000000
vt 0.000000 0.000000
vt 0.000000 0.000000
vt 0.000000 0.000000
vt 0.000000 0.000000
vt 0.000000 0.000000
vt 0.000000 0.000000
vt 0.000000 0.000000
vt 0.000000 0.000000
vt 0.000000 0.000000
vt 0.000000 0.000000
vt 0.000000 0.000000
vt 0.000000 0.000000
vt 0.000000 0.000000
vt 0.000000 0.000000
vt 0.000000 0.000000
vt 0.000000 0.000000
vt 0.000000 0.000000
vt 0.000000 0.000000
vt 0.000000 0.000000
vt 0.000000 0.000000
vt 0.000000 0.000000
vt 0.000000 0.000000
vt 0.000000 0.000000
vt 0.000000 0.000000
vt 0.000000 0.000000
vt 0.000000 0.000000
vt 0.000000 0.000000
vt 0.000000 0.000000
vt 0.000000 0.000000
vt 0.000000 0.000000
vt 0.000000 0.000000
vt 0.000000 0.000000
vt 0.000000 0.000000
vt 0.000000 0.000000
vt 0.000000 0.000000
vt 0.000000 0.000000
vt 0.000000 0.000000
vt 0.000000 0.000000
vt 0.000000 0.000000
vt 0.000000 0.000000
vt 0.000000 0.000000
vt 0.000000 0.000000
vt 0.000000 0.000000
vt 0.000000 0.000000
vt 0.000000 0.000000
vt 0.000000 0.000000
vt 0.000000 0.000000
vt 0.000000 0.000000
vt 0.000000 0.000000
vt 0.000000 0.000000
vt 0.000000 0.000000
vt 0.000000 0.000000
vt 0.000000 0.000000
vt 0.000000 0.000000
vt 0.000000 0.000000
vt 0.000000 0.000000
vt 0.000000 0.000000
vt 0.000000 0.000000
vt 0.000000 0.000000
vt 0.000000 0.000000
vt 0.000000 0.000000
vt 0.000000 0.000000
vt 0.000000 0.000000
vt 0.000000 0.000000
vt 0.000000 0.000000
vt 0.000000 0.000000
vt 0.000000 0.000000
vt 0.000000 0.000000
vt 0.000000 0.000000
vt 0.000000 0.000000
vt 0.000000 0.000000
vt 0.000000 0.000000
vt 0.000000 0.000000
vt 0.000000 0.000000
vt 0.000000 0.000000
vt 0.000000 0.000000
vt 0.000000 0.000000
vt 0.000000 0.000000
vt 0.000000 0.000000
vt 0.000000 0.000000
vt 0.000000 0.000000
vt 0.000000 0.000000
vt 0.000000 0.000000
vt 0.000000 0.000000
vt 0.000000 0.000000
vt 0.000000 0.000000
vt 0.000000 0.000000
vt 0.000000 0.000000
vt 0.000000 0.000000
vt 0.000000 0.000000
vt 0.000000 0.000000
vt 0.000000 0.000000
vt 0.000000 0.000000
vt 0.000000 0.000000
vt 0.000000 0.000000
vt 0.000000 0.000000
vt 0.000000 0.000000
vt 0.000000 0.000000
vt 0.000000 0.000000
vt 0.000000 0.000000
vt 0.000000 0.000000
vt 0.000000 0.000000
vt 0.000000 0.000000
vt 0.000000 0.000000
vt 0.000000 0.000000
vt 0.000000 0.000000
vt 0.000000 0.000000
vt 0.000000 0.000000
vt 0.000000 0.000000
vt 0.000000 0.000000
vt 0.000000 0.000000
vt 0.000000 0.000000
vt 0.000000 0.000000
vt 0.000000 0.000000
vt 0.000000 0.000000
vt 0.000000 0.000000
vt 0.000000 0.000000
vt 0.000000 0.000000
vt 0.000000 0.000000
vt 0.000000 0.000000
vt 0.000000 0.000000
vt 0.000000 0.000000
vt 0.000000 0.000000
vt 0.000000 0.000000
vt 0.000000 0.000000
vt 0.000000 0.000000
vt 0.000000 0.000000
vt 0.000000 0.000000
vt 0.000000 0.000000
vt 0.000000 0.000000
vt 0.000000 0.000000
vt 0.000000 0.000000
vt 0.000000 0.000000
vt 0.000000 0.000000
vt 0.000000 0.000000
vt 0.000000 0.000000
vt 0.000000 0.000000
vt 0.000000 0.000000
vt 0.000000 0.000000
vt 0.000000 0.000000
vt 0.000000 0.000000
vt 0.000000 0.000000
vt 0.000000 0.000000
vt 0.000000 0.000000
vt 0.000000 0.000000
vt 0.000000 0.000000
vt 0.000000 0.000000
vt 0.000000 0.000000
vt 0.000000 0.000000
vt 0.000000 0.000000
vt 0.000000 0.000000
vt 0.000000 0.000000
vt 0.000000 0.000000
vt 0.000000 0.000000
vt 0.000000 0.000000
vt 0.000000 0.000000
vt 0.000000 0.000000
vt 0.000000 0.000000
vt 0.000000 0.000000
vt 0.000000 0.000000
vt 0.000000 0.000000
vt 0.000000 0.000000
vt 0.000000 0.000000
vt 0.000000 0.000000
vt 0.000000 0.000000
vt 0.000000 0.000000
vt 0.000000 0.000000
vt 0.000000 0.000000
vt 0.000000 0.000000
vt 0.000000 0.000000
vt 0.000000 0.000000
vt 0.000000 0.000000
vt 0.000000 0.000000
vt 0.000000 0.000000
vt 0.000000 0.000000
vt 0.000000 0.000000
vt 0.000000 0.000000
vt 0.000000 0.000000
vt 0.000000 0.000000
vt 0.000000 0.000000
vt 0.000000 0.000000
vt 0.000000 0.000000
vt 0.000000 0.000000
vt 0.000000 0.000000
vt 0.000000 0.000000
vt 0.000000 0.000000
vt 0.000000 0.000000
vt 0.000000 0.000000
vt 0.000000 0.000000
vt 0.000000 0.000000
vt 0.000000 0.000000
vt 0.000000 0.000000
vt 0.000000 0.000000
vt 0.000000 0.000000
vt 0.000000 0.000000
vt 0.000000 0.000000
vt 0.000000 0.000000
vt 0.000000 0.000000
vt 0.000000 0.000000
vt 0.000000 0.000000
vt 0.000000 0.000000
vt 0.000000 0.000000
vt 0.000000 0.000000
vt 0.000000 0.000000
vt 0.000000 0.000000
vt 0.000000 0.000000
vt 0.000000 0.000000
vt 0.000000 0.000000
vt 0.000000 0.000000
vt 0.000000 0.000000
vt 0.000000 0.000000
vt 0.000000 0.000000
vt 0.000000 0.000000
vt 0.000000 0.000000
vt 0.000000 0.000000
vt 0.000000 0.000000
vt 0.000000 0.000000
vt 0.000000 0.000000
vt 0.000000 0.000000
vt 0.000000 0.000000
vt 0.000000 0.000000
vt 0.000000 0.000000
vt 0.000000 0.000000
vt 0.000000 0.000000
vt 0.000000 0.000000
vt 0.000000 0.000000
vt 0.000000 0.000000
vt 0.000000 0.000000
vt 0.000000 0.000000
vt 0.000000 0.000000
vt 0.000000 0.000000
vt 0.000000 0.000000
vt 0.000000 0.000000
vt 0.000000 0.000000
vt 0.000000 0.000000
vt 0.000000 0.000000
vt 0.000000 0.000000
vt 0.000000 0.000000
vt 0.000000 0.000000
vt 0.000000 0.000000
vt 0.000000 0.000000
vt 0.000000 0.000000
vt 0.000000 0.000000
vt 0.000000 0.000000
vt 0.000000 0.000000
vt 0.000000 0.000000
vt 0.000000 0.000000
vt 0.000000 0.000000
vt 0.000000 0.000000
vt 0.000000 0.000000
vt 0.000000 0.000000
vt 0.000000 0.000000
vt 0.000000 0.000000
vt 0.000000 0.000000
vt 0.000000 0.000000
vt 0.000000 0.000000
vt 0.000000 0.000000
vt 0.000000 0.000000
vt 0.000000 0.000000
vt 0.000000 0.000000
vt 0.000000 0.000000
vt 0.000000 0.000000
vt 0.000000 0.000000
vt 0.000000 0.000000
vt 0.000000 0.000000
vt 0.000000 0.000000
vt 0.000000 0.000000
vt 0.000000 0.000000
vt 0.000000 0.000000
vt 0.000000 0.000000
vt 0.000000 0.000000
vt 0.000000 0.000000
vt 0.000000 0.000000
vt 0.000000 0.000000
vt 0.000000 0.000000
vt 0.000000 0.000000
vt 0.000000 0.000000
vt 0.000000 0.000000
vt 0.000000 0.000000
vt 0.000000 0.000000
vt 0.000000 0.000000
vt 0.000000 0.000000
vt 0.000000 0.000000
vt 0.000000 0.000000
vt 0.000000 0.000000
vt 0.000000 0.000000
vt 0.000000 0.000000
vt 0.000000 0.000000
vt 0.000000 0.000000
vt 0.000000 0.000000
vt 0.000000 0.000000
vt 0.000000 0.000000
vt 0.000000 0.000000
vt 0.000000 0.000000
vt 0.000000 0.000000
vt 0.000000 0.000000
vt 0.000000 0.000000
vt 0.000000 0.000000
vt 0.000000 0.000000
vt 0.000000 0.000000
vt 0.000000 0.000000
vt 0.000000 0.000000
vt 0.000000 0.000000
vt 0.000000 0.000000
vt 0.000000 0.000000
vt 0.000000 0.000000
vt 0.000000 0.000000
vt 0.000000 0.000000
vt 0.000000 0.000000
vt 0.000000 0.000000
vt 0.000000 0.000000
vt 0.000000 0.000000
vt 0.000000 0.000000
vt 0.000000 0.000000
vt 0.000000 0.000000
vt 0.000000 0.000000
vt 0.000000 0.000000
vt 0.000000 0.000000
vt 0.000000 0.000000
vt 0.000000 0.000000
vt 0.000000 0.000000
vt 0.000000 0.000000
vt 0.000000 0.000000
vt 0.000000 0.000000
vt 0.000000 0.000000
vt 0.000000 0.000000
vt 0.000000 0.000000
vt 0.000000 0.000000
vt 0.000000 0.000000
vt 0.000000 0.000000
vt 0.000000 0.000000
vt 0.000000 0.000000
vt 0.000000 0.000000
vt 0.000000 0.000000
vt 0.000000 0.000000
vt 0.000000 0.000000
vt 0.000000 0.000000
vt 0.000000 0.000000
vt 0.000000 0.000000
vt 0.000000 0.000000
vt 0.000000 0.000000
vt 0.000000 0.000000
vt 0.000000 0.000000
vt 0.000000 0.000000
vt 0.000000 0.000000
vt 0.000000 0.000000
vn -0.590538 0.758165 -0.276497
vn -0.597875 0.760348 -0.253803
vn -0.594211 0.762931 -0.254656
vn -0.597875 0.760348 -0.253803
vn -0.617967 0.767435 -0.170763
vn -0.605144 0.777115 -0.172893
vn -0.597875 0.760348 -0.253803
vn -0.605144 0.777115 -0.172893
vn -0.594211 0.762931 -0.254656
vn -0.617967 0.767435 -0.170763
vn -0.630310 0.771583 -0.085838
vn -0.611996 0.786014 -0.087425
vn -0.617967 0.767435 -0.170763
vn -0.611996 0.786014 -0.087425
vn -0.605144 0.777115 -0.172893
vn -0.630310 0.771583 -0.085838
vn -0.634474 0.772944 0.000000
vn -0.614332 0.789048 0.000000
vn -0.630310 0.771583 -0.085838
vn -0.614332 0.789048 0.000000
vn -0.611996 0.786014 -0.087425
vn 0.634474 0.772944 0.000000
vn 0.630310 0.771583 -0.085838
vn 0.611996 0.786014 -0.087425
vn 0.634474 0.772944 0.000000
vn 0.611996 0.786014 -0.087425
vn 0.614332 0.789048 0.000000
vn 0.630310 0.771583 -0.085838
vn 0.617967 0.767435 -0.170763
vn 0.605144 0.777115 -0.172893
vn 0.630310 0.771583 -0.085838
vn 0.605144 0.777115 -0.172893
vn 0.611996 0.786014 -0.087425
vn 0.617967 0.767435 -0.170763
vn 0.597875 0.760348 -0.253803
vn 0.594211 0.762931 -0.254656
vn 0.617967 0.767435 -0.170763
vn 0.594211 0.762931 -0.254656
vn 0.605144 0.777115 -0.172893
vn 0.597875 0.760348 -0.253803
vn 0.590538 0.758165 -0.276497
vn 0.594211 0.762931 -0.254656
vn -0.505985 0.757885 -0.411813
vn -0.556962 0.758778 -0.337711
vn -0.520629 0.780052 -0.347081
vn -0.556962 0.758778 -0.337711
vn -0.590538 0.758165 -0.276497
vn -0.594211 0.762931 -0.254656
vn -0.556962 0.758778 -0.337711
vn -0.594211 0.762931 -0.254656
vn -0.534806 0.801549 -0.267397
vn -0.556962 0.758778 -0.337711
vn -0.534806 0.801549 -0.267397
vn -0.520629 0.780052 -0.347081
vn -0.594211 0.762931 -0.254656
vn -0.605144 0.777115 -0.172893
vn -0.545657 0.818033 -0.181879
vn -0.594211 0.762931 -0.254656
vn -0.545657 0.818033 -0.181879
vn -0.534806 0.801549 -0.267397
vn -0.605144 0.777115 -0.172893
vn -0.611996 0.786014 -0.087425
vn -0.552486 0.828421 -0.092077
vn -0.605144 0.777115 -0.172893
vn -0.552486 0.828421 -0.092077
vn -0.545657 0.818033 -0.181879
vn -0.611996 0.786014 -0.087425
vn -0.614332 0.789048 0.000000
vn -0.554819 0.831971 0.000000
vn -0.611996 0.786014 -0.087425
vn -0.554819 0.831971 0.000000
vn -0.552486 0.828421 -0.092077
vn 0.552486 0.828421 -0.092077
vn 0.554819 0.831971 0.000000
vn 0.614332 0.789048 0.000000
vn 0.552486 0.828421 -0.092077
vn 0.614332 0.789048 0.000000
vn 0.611996 0.786014 -0.087425
vn 0.545657 0.818033 -0.181879
vn 0.552486 0.828421 -0.092077
vn 0.611996 0.786014 -0.087425
vn 0.545657 0.818033 -0.181879
vn 0.611996 0.786014 -0.087425
vn 0.605144 0.777115 -0.172893
vn 0.534806 0.801549 -0.267397
vn 0.545657 0.818033 -0.181879
vn 0.605144 0.777115 -0.172893
vn 0.534806 0.801549 -0.267397
vn 0.605144 0.777115 -0.172893
vn 0.594211 0.762931 -0.254656
vn 0.590538 0.758165 -0.276497
vn 0.556962 0.758778 -0.337711
vn 0.520629 0.780052 -0.347081
vn 0.590538 0.758165 -0.276497
vn 0.520629 0.780052 -0.347081
vn 0.534806 0.801549 -0.267397
vn 0.590538 0.758165 -0.276497
vn 0.534806 0.801549 -0.267397
vn 0.594211 0.762931 -0.254656
vn 0.556962 0.758778 -0.337711
vn 0.505985 0.757885 -0.411813
vn 0.520629 0.780052 -0.347081
vn -0.421648 0.757881 -0.497825
vn -0.497825 0.757881 -0.421648
vn -0.437135 0.786019 -0.437135
vn -0.497825 0.757881 -0.421648
vn -0.505985 0.757885 -0.411813
vn -0.520629 0.780052 -0.347081
vn -0.497825 0.757881 -0.421648
vn -0.520629 0.780052 -0.347081
vn -0.452859 0.814659 -0.362284
vn -0.497825 0.757881 -0.421648
vn -0.452859 0.814659 -0.362284
vn -0.437135 0.786019 -0.437135
vn -0.520629 0.780052 -0.347081
vn -0.534806 0.801549 -0.267397
vn -0.466305 0.839217 -0.279776
vn -0.520629 0.780052 -0.347081
vn -0.466305 0.839217 -0.279776
vn -0.452859 0.814659 -0.362284
vn -0.534806 0.801549 -0.267397
vn -0.545657 0.818033 -0.181879
vn -0.476653 0.858169 -0.190653
vn -0.534806 0.801549 -0.267397
vn -0.476653 0.858169 -0.190653
vn -0.466305 0.839217 -0.279776
vn -0.545657 0.818033 -0.181879
vn -0.552486 0.828421 -0.092077
vn -0.483190 0.870167 -0.096633
vn -0.545657 0.818033 -0.181879
vn -0.483190 0.870167 -0.096633
vn -0.476653 0.858169 -0.190653
vn -0.552486 0.828421 -0.092077
vn -0.554819 0.831971 0.000000
vn -0.485426 0.874278 0.000000
vn -0.552486 0.828421 -0.092077
vn -0.485426 0.874278 0.000000
vn -0.483190 0.870167 -0.096633
vn 0.483190 0.870167 -0.096633
vn 0.485426 0.874278 0.000000
vn 0.554819 0.831971 0.000000
vn 0.483190 0.870167 -0.096633
vn 0.554819 0.831971 0.000000
vn 0.552486 0.828421 -0.092077
vn 0.476653 0.858169 -0.190653
vn 0.483190 0.870167 -0.096633
vn 0.552486 0.828421 -0.092077
vn 0.476653 0.858169 -0.190653
vn 0.552486 0.828421 -0.092077
vn 0.545657 0.818033 -0.181879
vn 0.466305 0.839217 -0.279776
vn 0.476653 0.858169 -0.190653
vn 0.545657 0.818033 -0.181879
vn 0.466305 0.839217 -0.279776
vn 0.545657 0.818033 -0.181879
vn 0.534806 0.801549 -0.267397
vn 0.452859 0.814659 -0.362284
vn 0.466305 0.839217 -0.279776
vn 0.534806 0.801549 -0.267397
vn 0.452859 0.814659 -0.362284
vn 0.534806 0.801549 -0.267397
vn 0.520629 0.780052 -0.347081
vn 0.505985 0.757885 -0.411813
vn 0.497825 0.757881 -0.421648
vn 0.437135 0.786019 -0.437135
vn 0.505985 0.757885 -0.411813
vn 0.437135 0.786019 -0.437135
vn 0.452859 0.814659 -0.362284
vn 0.505985 0.757885 -0.411813
vn 0.452859 0.814659 -0.362284
vn 0.520629 0.780052 -0.347081
vn 0.497825 0.757881 -0.421648
vn 0.421648 0.757881 -0.497825
vn 0.437135 0.786019 -0.437135
vn -0.337710 0.758778 -0.556963
vn -0.411813 0.757885 -0.505985
vn -0.347081 0.780052 -0.520629
vn -0.411813 0.757885 -0.505985
vn -0.421648 0.757881 -0.497825
vn -0.437135 0.786019 -0.437135
vn -0.411813 0.757885 -0.505985
vn -0.437135 0.786019 -0.437135
vn -0.362284 0.814659 -0.452859
vn -0.411813 0.757885 -0.505985
vn -0.362284 0.814659 -0.452859
vn -0.347081 0.780052 -0.520629
vn -0.437135 0.786019 -0.437135
vn -0.452859 0.814659 -0.362284
vn -0.376287 0.846650 -0.376288
vn -0.437135 0.786019 -0.437135
vn -0.376287 0.846650 -0.376288
vn -0.362284 0.814659 -0.452859
vn -0.452859 0.814659 -0.362284
vn -0.466305 0.839217 -0.279776
vn -0.388335 0.874283 -0.291246
vn -0.452859 0.814659 -0.362284
vn -0.388335 0.874283 -0.291246
vn -0.376287 0.846650 -0.376288
vn -0.466305 0.839217 -0.279776
vn -0.476653 0.858169 -0.190653
vn -0.397650 0.895738 -0.198817
vn -0.466305 0.839217 -0.279776
vn -0.397650 0.895738 -0.198817
vn -0.388335 0.874283 -0.291246
vn -0.476653 0.858169 -0.190653
vn -0.483190 0.870167 -0.096633
vn -0.403552 0.909378 -0.100882
vn -0.476653 0.858169 -0.190653
vn -0.403552 0.909378 -0.100882
vn -0.397650 0.895738 -0.198817
vn -0.483190 0.870167 -0.096633
vn -0.485426 0.874278 0.000000
vn -0.405574 0.914062 0.000000
vn -0.483190 0.870167 -0.096633
vn -0.405574 0.914062 0.000000
vn -0.403552 0.909378 -0.100882
vn 0.403552 0.909378 -0.100882
vn 0.405574 0.914062 0.000000
vn 0.485426 0.874278 0.000000
vn 0.403552 0.909378 -0.100882
vn 0.485426 0.874278 0.000000
vn 0.483190 0.870167 -0.096633
vn 0.397650 0.895738 -0.198817
vn 0.403552 0.909378 -0.100882
vn 0.483190 0.870167 -0.096633
vn 0.397650 0.895738 -0.198817
vn 0.483190 0.870167 -0.096633
vn 0.476653 0.858169 -0.190653
vn 0.388335 0.874283 -0.291246
vn 0.397650 0.895738 -0.198817
vn 0.476653 0.858169 -0.190653
vn 0.388335 0.874283 -0.291246
vn 0.476653 0.858169 -0.190653
vn 0.466305 0.839217 -0.279776
vn 0.376287 0.846650 -0.376288
vn 0.388335 0.874283 -0.291246
vn 0.466305 0.839217 -0.279776
vn 0.376287 0.846650 -0.376288
vn 0.466305 0.839217 -0.279776
vn 0.452859 0.814659 -0.362284
vn 0.362284 0.814659 -0.452859
vn 0.376287 0.846650 -0.376288
vn 0.452859 0.814659 -0.362284
vn 0.362284 0.814659 -0.452859
vn 0.452859 0.814659 -0.362284
vn 0.437135 0.786019 -0.437135
vn 0.421648 0.757881 -0.497825
vn 0.411813 0.757885 -0.505985
vn 0.347081 0.780052 -0.520629
vn 0.421648 0.757881 -0.497825
vn 0.347081 0.780052 -0.520629
vn 0.362284 0.814659 -0.452859
vn 0.421648 0.757881 -0.497825
vn 0.362284 0.814659 -0.452859
vn 0.437135 0.786019 -0.437135
vn 0.411813 0.757885 -0.505985
vn 0.337710 0.758778 -0.556963
vn 0.347081 0.780052 -0.520629
vn -0.261449 0.772678 -0.578458
vn -0.276497 0.758165 -0.590537
vn -0.254656 0.762931 -0.594211
vn -0.276497 0.758165 -0.590537
vn -0.337710 0.758778 -0.556963
vn -0.347081 0.780052 -0.520629
vn -0.276497 0.758165 -0.590537
vn -0.347081 0.780052 -0.520629
vn -0.267397 0.801550 -0.534806
vn -0.276497 0.758165 -0.590537
vn -0.267397 0.801550 -0.534806
vn -0.254656 0.762931 -0.594211
vn -0.347081 0.780052 -0.520629
vn -0.362284 0.814659 -0.452859
vn -0.279776 0.839217 -0.466305
vn -0.347081 0.780052 -0.520629
vn -0.279776 0.839217 -0.466305
vn -0.267397 0.801550 -0.534806
vn -0.362284 0.814659 -0.452859
vn -0.376287 0.846650 -0.376288
vn -0.291246 0.874283 -0.388335
vn -0.362284 0.814659 -0.452859
vn -0.291246 0.874283 -0.388335
vn -0.279776 0.839217 -0.466305
vn -0.376287 0.846650 -0.376288
vn -0.388335 0.874283 -0.291246
vn -0.301161 0.904767 -0.301161
vn -0.376287 0.846650 -0.376288
vn -0.301161 0.904767 -0.301161
vn -0.291246 0.874283 -0.388335
vn -0.388335 0.874283 -0.291246
vn -0.397650 0.895738 -0.198817
vn -0.308851 0.928557 -0.205895
vn -0.388335 0.874283 -0.291246
vn -0.308851 0.928557 -0.205895
vn -0.301161 0.904767 -0.301161
vn -0.397650 0.895738 -0.198817
vn -0.403552 0.909378 -0.100882
vn -0.313731 0.943736 -0.104571
vn -0.397650 0.895738 -0.198817
vn -0.313731 0.943736 -0.104571
vn -0.308851 0.928557 -0.205895
vn 0.313731 0.943736 -0.104571
vn 0.315405 0.948957 0.000000
vn 0.405574 0.914062 0.000000
vn 0.313731 0.943736 -0.104571
vn 0.405574 0.914062 0.000000
vn 0.403552 0.909378 -0.100882
vn 0.308851 0.928557 -0.205895
vn 0.313731 0.943736 -0.104571
vn 0.403552 0.909378 -0.100882
vn 0.308851 0.928557 -0.205895
vn 0.403552 0.909378 -0.100882
vn 0.397650 0.895738 -0.198817
vn 0.301161 0.904767 -0.301161
vn 0.308851 0.928557 -0.205895
vn 0.397650 0.895738 -0.198817
vn 0.301161 0.904767 -0.301161
vn 0.397650 0.895738 -0.198817
vn 0.388335 0.874283 -0.291246
vn 0.291246 0.874283 -0.388335
vn 0.301161 0.904767 -0.301161
vn 0.388335 0.874283 -0.291246
vn 0.291246 0.874283 -0.388335
vn 0.388335 0.874283 -0.291246
vn 0.376287 0.846650 -0.376288
vn 0.279776 0.839217 -0.466305
vn 0.291246 0.874283 -0.388335
vn 0.376287 0.846650 -0.376288
vn 0.279776 0.839217 -0.466305
vn 0.376287 0.846650 -0.376288
vn 0.362284 0.814659 -0.452859
vn 0.267397 0.801550 -0.534806
vn 0.279776 0.839217 -0.466305
vn 0.362284 0.814659 -0.452859
vn 0.267397 0.801550 -0.534806
vn 0.362284 0.814659 -0.452859
vn 0.347081 0.780052 -0.520629
vn 0.337710 0.758778 -0.556963
vn 0.276497 0.758165 -0.590537
vn 0.254656 0.762931 -0.594211
vn 0.337710 0.758778 -0.556963
vn 0.254656 0.762931 -0.594211
vn 0.267397 0.801550 -0.534806
vn 0.337710 0.758778 -0.556963
vn 0.267397 0.801550 -0.534806
vn 0.347081 0.780052 -0.520629
vn 0.276497 0.758165 -0.590537
vn 0.253803 0.760348 -0.597875
vn 0.254656 0.762931 -0.594211
vn -0.403552 0.909378 -0.100882
vn -0.405574 0.914062 0.000000
vn -0.315405 0.948957 0.000000
vn -0.403552 0.909378 -0.100882
vn -0.315405 0.948957 0.000000
vn -0.313731 0.943736 -0.104571
vn -0.197991 0.828218 -0.524265
vn -0.261449 0.772678 -0.578458
vn -0.254656 0.762931 -0.594211
vn -0.197991 0.828218 -0.524265
vn -0.254656 0.762931 -0.594211
vn -0.172893 0.777115 -0.605144
vn -0.254656 0.762931 -0.594211
vn -0.267397 0.801550 -0.534806
vn -0.181879 0.818033 -0.545657
vn -0.254656 0.762931 -0.594211
vn -0.181879 0.818033 -0.545657
vn -0.172893 0.777115 -0.605144
vn -0.267397 0.801550 -0.534806
vn -0.279776 0.839217 -0.466305
vn -0.190653 0.858169 -0.476653
vn -0.267397 0.801550 -0.534806
vn -0.190653 0.858169 -0.476653
vn -0.181879 0.818033 -0.545657
vn -0.279776 0.839217 -0.466305
vn -0.291246 0.874283 -0.388335
vn -0.198817 0.895738 -0.397650
vn -0.279776 0.839217 -0.466305
vn -0.198817 0.895738 -0.397650
vn -0.190653 0.858169 -0.476653
vn -0.291246 0.874283 -0.388335
vn -0.301161 0.904767 -0.301161
vn -0.205895 0.928557 -0.308851
vn -0.291246 0.874283 -0.388335
vn -0.205895 0.928557 -0.308851
vn -0.198817 0.895738 -0.397650
vn -0.301161 0.904767 -0.301161
vn -0.308851 0.928557 -0.205895
vn -0.211393 0.954267 -0.211393
vn -0.301161 0.904767 -0.301161
vn -0.211393 0.954267 -0.211393
vn -0.205895 0.928557 -0.308851
vn 0.214883 0.970712 -0.107438
vn 0.216078 0.976376 0.000000
vn 0.315405 0.948957 0.000000
vn 0.214883 0.970712 -0.107438
vn 0.315405 0.948957 0.000000
vn 0.313731 0.943736 -0.104571
vn 0.211393 0.954267 -0.211393
vn 0.214883 0.970712 -0.107438
vn 0.313731 0.943736 -0.104571
vn 0.211393 0.954267 -0.211393
vn 0.313731 0.943736 -0.104571
vn 0.308851 0.928557 -0.205895
vn 0.205895 0.928557 -0.308851
vn 0.211393 0.954267 -0.211393
vn 0.308851 0.928557 -0.205895
vn 0.205895 0.928557 -0.308851
vn 0.308851 0.928557 -0.205895
vn 0.301161 0.904767 -0.301161
vn 0.198817 0.895738 -0.397650
vn 0.205895 0.928557 -0.308851
vn 0.301161 0.904767 -0.301161
vn 0.198817 0.895738 -0.397650
vn 0.301161 0.904767 -0.301161
vn 0.291246 0.874283 -0.388335
vn 0.190653 0.858169 -0.476653
vn 0.198817 0.895738 -0.397650
vn 0.291246 0.874283 -0.388335
vn 0.190653 0.858169 -0.476653
vn 0.291246 0.874283 -0.388335
vn 0.279776 0.839217 -0.466305
vn 0.181879 0.818033 -0.545657
vn 0.190653 0.858169 -0.476653
vn 0.279776 0.839217 -0.466305
vn 0.181879 0.818033 -0.545657
vn 0.279776 0.839217 -0.466305
vn 0.267397 0.801550 -0.534806
vn 0.172893 0.777115 -0.605144
vn 0.181879 0.818033 -0.545657
vn 0.267397 0.801550 -0.534806
vn 0.172893 0.777115 -0.605144
vn 0.267397 0.801550 -0.534806
vn 0.254656 0.762931 -0.594211
vn 0.253803 0.760348 -0.597875
vn 0.170763 0.767435 -0.617967
vn 0.172893 0.777115 -0.605144
vn 0.253803 0.760348 -0.597875
vn 0.172893 0.777115 -0.605144
vn 0.254656 0.762931 -0.594211
vn -0.308851 0.928557 -0.205895
vn -0.313731 0.943736 -0.104571
vn -0.214883 0.970712 -0.107438
vn -0.308851 0.928557 -0.205895
vn -0.214883 0.970712 -0.107438
vn -0.211393 0.954267 -0.211393
vn -0.313731 0.943736 -0.104571
vn -0.315405 0.948957 0.000000
vn -0.216078 0.976376 0.000000
vn -0.313731 0.943736 -0.104571
vn -0.216078 0.976376 0.000000
vn -0.214883 0.970712 -0.107438
vn -0.119710 0.882848 -0.454146
vn -0.197991 0.828218 -0.524265
vn -0.172893 0.777115 -0.605144
vn -0.119710 0.882848 -0.454146
vn -0.172893 0.777115 -0.605144
vn -0.087425 0.786014 -0.611996
vn -0.172893 0.777115 -0.605144
vn -0.181879 0.818033 -0.545657
vn -0.092077 0.828421 -0.552486
vn -0.172893 0.777115 -0.605144
vn -0.092077 0.828421 -0.552486
vn -0.087425 0.786014 -0.611996
vn -0.181879 0.818033 -0.545657
vn -0.190653 0.858169 -0.476653
vn -0.096633 0.870167 -0.483189
vn -0.181879 0.818033 -0.545657
vn -0.096633 0.870167 -0.483189
vn -0.092077 0.828421 -0.552486
vn -0.190653 0.858169 -0.476653
vn -0.198817 0.895738 -0.397650
vn -0.100882 0.909378 -0.403552
vn -0.190653 0.858169 -0.476653
vn -0.100882 0.909378 -0.403552
vn -0.096633 0.870167 -0.483189
vn -0.198817 0.895738 -0.397650
vn -0.205895 0.928557 -0.308851
vn -0.104571 0.943736 -0.313731
vn -0.198817 0.895738 -0.397650
vn -0.104571 0.943736 -0.313731
vn -0.100882 0.909378 -0.403552
vn 0.109255 0.987991 -0.109255
vn 0.109878 0.993945 0.000000
vn 0.216078 0.976376 0.000000
vn 0.109255 0.987991 -0.109255
vn 0.216078 0.976376 0.000000
vn 0.214883 0.970712 -0.107438
vn 0.107438 0.970712 -0.214883
vn 0.109255 0.987991 -0.109255
vn 0.214883 0.970712 -0.107438
vn 0.107438 0.970712 -0.214883
vn 0.214883 0.970712 -0.107438
vn 0.211393 0.954267 -0.211393
vn 0.104571 0.943736 -0.313731
vn 0.107438 0.970712 -0.214883
vn 0.211393 0.954267 -0.211393
vn 0.104571 0.943736 -0.313731
vn 0.211393 0.954267 -0.211393
vn 0.205895 0.928557 -0.308851
vn 0.100882 0.909378 -0.403552
vn 0.104571 0.943736 -0.313731
vn 0.205895 0.928557 -0.308851
vn 0.100882 0.909378 -0.403552
vn 0.205895 0.928557 -0.308851
vn 0.198817 0.895738 -0.397650
vn 0.096633 0.870167 -0.483189
vn 0.100882 0.909378 -0.403552
vn 0.198817 0.895738 -0.397650
vn 0.096633 0.870167 -0.483189
vn 0.198817 0.895738 -0.397650
vn 0.190653 0.858169 -0.476653
vn 0.092077 0.828421 -0.552486
vn 0.096633 0.870167 -0.483189
vn 0.190653 0.858169 -0.476653
vn 0.092077 0.828421 -0.552486
vn 0.190653 0.858169 -0.476653
vn 0.181879 0.818033 -0.545657
vn 0.087425 0.786014 -0.611996
vn 0.092077 0.828421 -0.552486
vn 0.181879 0.818033 -0.545657
vn 0.087425 0.786014 -0.611996
vn 0.181879 0.818033 -0.545657
vn 0.172893 0.777115 -0.605144
vn 0.170763 0.767435 -0.617967
vn 0.077881 0.928532 -0.362992
vn 0.087425 0.786014 -0.611996
vn 0.170763 0.767435 -0.617967
vn 0.087425 0.786014 -0.611996
vn 0.172893 0.777115 -0.605144
vn -0.205895 0.928557 -0.308851
vn -0.211393 0.954267 -0.211393
vn -0.107438 0.970712 -0.214883
vn -0.205895 0.928557 -0.308851
vn -0.107438 0.970712 -0.214883
vn -0.104571 0.943736 -0.313731
vn -0.211393 0.954267 -0.211393
vn -0.214883 0.970712 -0.107438
vn -0.109255 0.987991 -0.109255
vn -0.211393 0.954267 -0.211393
vn -0.109255 0.987991 -0.109255
vn -0.107438 0.970712 -0.214883
vn -0.214883 0.970712 -0.107438
vn -0.216078 0.976376 0.000000
vn -0.109878 0.993945 0.000000
vn -0.214883 0.970712 -0.107438
vn -0.109878 0.993945 0.000000
vn -0.109255 0.987991 -0.109255
vn -0.025794 0.920128 -0.390766
vn -0.119710 0.882848 -0.454146
vn -0.087425 0.786014 -0.611996
vn -0.025794 0.920128 -0.390766
vn -0.087425 0.786014 -0.611996
vn 0.000000 0.789048 -0.614332
vn -0.087425 0.786014 -0.611996
vn -0.092077 0.828421 -0.552486
vn 0.000000 0.831971 -0.554819
vn -0.087425 0.786014 -0.611996
vn 0.000000 0.831971 -0.554819
vn 0.000000 0.789048 -0.614332
vn -0.092077 0.828421 -0.552486
vn -0.096633 0.870167 -0.483189
vn 0.000000 0.874278 -0.485426
vn -0.092077 0.828421 -0.552486
vn 0.000000 0.874278 -0.485426
vn 0.000000 0.831971 -0.554819
vn -0.096633 0.870167 -0.483189
vn -0.100882 0.909378 -0.403552
vn 0.000000 0.914062 -0.405574
vn -0.096633 0.870167 -0.483189
vn 0.000000 0.914062 -0.405574
vn 0.000000 0.874278 -0.485426
vn 0.000000 0.993945 -0.109878
vn 0.000000 1.000000 0.000000
vn 0.109878 0.993945 0.000000
vn 0.000000 0.993945 -0.109878
vn 0.109878 0.993945 0.000000
vn 0.109255 0.987991 -0.109255
vn 0.000000 0.976376 -0.216078
vn 0.000000 0.993945 -0.109878
vn 0.109255 0.987991 -0.109255
vn 0.000000 0.976376 -0.216078
vn 0.109255 0.987991 -0.109255
vn 0.107438 0.970712 -0.214883
vn 0.000000 0.948957 -0.315405
vn 0.000000 0.976376 -0.216078
vn 0.107438 0.970712 -0.214883
vn 0.000000 0.948957 -0.315405
vn 0.107438 0.970712 -0.214883
vn 0.104571 0.943736 -0.313731
vn 0.000000 0.914062 -0.405574
vn 0.000000 0.948957 -0.315405
vn 0.104571 0.943736 -0.313731
vn 0.000000 0.914062 -0.405574
vn 0.104571 0.943736 -0.313731
vn 0.100882 0.909378 -0.403552
vn 0.000000 0.874278 -0.485426
vn 0.000000 0.914062 -0.405574
vn 0.100882 0.909378 -0.403552
vn 0.000000 0.874278 -0.485426
vn 0.100882 0.909378 -0.403552
vn 0.096633 0.870167 -0.483189
vn 0.000000 0.831971 -0.554819
vn 0.000000 0.874278 -0.485426
vn 0.096633 0.870167 -0.483189
vn 0.000000 0.831971 -0.554819
vn 0.096633 0.870167 -0.483189
vn 0.092077 0.828421 -0.552486
vn 0.000000 0.789048 -0.614332
vn 0.000000 0.831971 -0.554819
vn 0.092077 0.828421 -0.552486
vn 0.000000 0.789048 -0.614332
vn 0.092077 0.828421 -0.552486
vn 0.087425 0.786014 -0.611996
vn 0.077881 0.928532 -0.362992
vn -0.025794 0.920128 -0.390766
vn 0.000000 0.789048 -0.614332
vn 0.077881 0.928532 -0.362992
vn 0.000000 0.789048 -0.614332
vn 0.087425 0.786014 -0.611996
vn -0.100882 0.909378 -0.403552
vn -0.104571 0.943736 -0.313731
vn 0.000000 0.948957 -0.315405
vn -0.100882 0.909378 -0.403552
vn 0.000000 0.948957 -0.315405
vn 0.000000 0.914062 -0.405574
vn -0.104571 0.943736 -0.313731
vn -0.107438 0.970712 -0.214883
vn 0.000000 0.976376 -0.216078
vn -0.104571 0.943736 -0.313731
vn 0.000000 0.976376 -0.216078
vn 0.000000 0.948957 -0.315405
vn -0.107438 0.970712 -0.214883
vn -0.109255 0.987991 -0.109255
vn 0.000000 0.993945 -0.109878
vn -0.107438 0.970712 -0.214883
vn 0.000000 0.993945 -0.109878
vn 0.000000 0.976376 -0.216078
vn -0.109255 0.987991 -0.109255
vn -0.109878 0.993945 0.000000
vn 0.000000 1.000000 0.000000
vn -0.109255 0.987991 -0.109255
vn 0.000000 1.000000 0.000000
vn 0.000000 0.993945 -0.109878
vn -0.594211 0.762931 0.254656
vn -0.597875 0.760348 0.253803
vn -0.590538 0.758165 0.276497
vn -0.594211 0.762931 0.254656
vn -0.605144 0.777115 0.172893
vn -0.617967 0.767435 0.170763
vn -0.594211 0.762931 0.254656
vn -0.617967 0.767435 0.170763
vn -0.597875 0.760348 0.253803
vn -0.605144 0.777115 0.172893
vn -0.611996 0.786014 0.087425
vn -0.630310 0.771583 0.085838
vn -0.605144 0.777115 0.172893
vn -0.630310 0.771583 0.085838
vn -0.617967 0.767435 0.170763
vn -0.611996 0.786014 0.087425
vn -0.614332 0.789048 0.000000
vn -0.634474 0.772944 0.000000
vn -0.611996 0.786014 0.087425
vn -0.634474 0.772944 0.000000
vn -0.630310 0.771583 0.085838
vn 0.614332 0.789048 0.000000
vn 0.611996 0.786014 0.087425
vn 0.630310 0.771583 0.085838
vn 0.614332 0.789048 0.000000
vn 0.630310 0.771583 0.085838
vn 0.634474 0.772944 0.000000
vn 0.611996 0.786014 0.087425
vn 0.605144 0.777115 0.172893
vn 0.617967 0.767435 0.170763
vn 0.611996 0.786014 0.087425
vn 0.617967 0.767435 0.170763
vn 0.630310 0.771583 0.085838
vn 0.605144 0.777115 0.172893
vn 0.594211 0.762931 0.254656
vn 0.597875 0.760348 0.253803
vn 0.605144 0.777115 0.172893
vn 0.597875 0.760348 0.253803
vn 0.617967 0.767435 0.170763
vn 0.594211 0.762931 0.254656
vn 0.590538 0.758165 0.276497
vn 0.597875 0.760348 0.253803
vn -0.520629 0.780052 0.347081
vn -0.556962 0.758778 0.337711
vn -0.505985 0.757885 0.411813
vn -0.520629 0.780052 0.347081
vn -0.534806 0.801549 0.267397
vn -0.594211 0.762931 0.254656
vn -0.520629 0.780052 0.347081
vn -0.594211 0.762931 0.254656
vn -0.590538 0.758165 0.276497
vn -0.520629 0.780052 0.347081
vn -0.590538 0.758165 0.276497
vn -0.556962 0.758778 0.337711
vn -0.534806 0.801549 0.267397
vn -0.545657 0.818033 0.181879
vn -0.605144 0.777115 0.172893
vn -0.534806 0.801549 0.267397
vn -0.605144 0.777115 0.172893
vn -0.594211 0.762931 0.254656
vn -0.545657 0.818033 0.181879
vn -0.552486 0.828421 0.092077
vn -0.611996 0.786014 0.087425
vn -0.545657 0.818033 0.181879
vn -0.611996 0.786014 0.087425
vn -0.605144 0.777115 0.172893
vn -0.552486 0.828421 0.092077
vn -0.554819 0.831971 0.000000
vn -0.614332 0.789048 0.000000
vn -0.552486 0.828421 0.092077
vn -0.614332 0.789048 0.000000
vn -0.611996 0.786014 0.087425
vn 0.611996 0.786014 0.087425
vn 0.614332 0.789048 0.000000
vn 0.554819 0.831971 0.000000
vn 0.611996 0.786014 0.087425
vn 0.554819 0.831971 0.000000
vn 0.552486 0.828421 0.092077
vn 0.605144 0.777115 0.172893
vn 0.611996 0.786014 0.087425
vn 0.552486 0.828421 0.092077
vn 0.605144 0.777115 0.172893
vn 0.552486 0.828421 0.092077
vn 0.545657 0.818033 0.181879
vn 0.594211 0.762931 0.254656
vn 0.605144 0.777115 0.172893
vn 0.545657 0.818033 0.181879
vn 0.594211 0.762931 0.254656
vn 0.545657 0.818033 0.181879
vn 0.534806 0.801549 0.267397
vn 0.594211 0.762931 0.254656
vn 0.534806 0.801549 0.267397
vn 0.520629 0.780052 0.347081
vn 0.594211 0.762931 0.254656
vn 0.520629 0.780052 0.347081
vn 0.556962 0.758778 0.337711
vn 0.594211 0.762931 0.254656
vn 0.556962 0.758778 0.337711
vn 0.590538 0.758165 0.276497
vn 0.520629 0.780052 0.347081
vn 0.505985 0.757885 0.411813
vn 0.556962 0.758778 0.337711
vn -0.437135 0.786019 0.437135
vn -0.497825 0.757881 0.421648
vn -0.421648 0.757881 0.497825
vn -0.437135 0.786019 0.437135
vn -0.452859 0.814659 0.362284
vn -0.520629 0.780052 0.347081
vn -0.437135 0.786019 0.437135
vn -0.520629 0.780052 0.347081
vn -0.505985 0.757885 0.411813
vn -0.437135 0.786019 0.437135
vn -0.505985 0.757885 0.411813
vn -0.497825 0.757881 0.421648
vn -0.452859 0.814659 0.362284
vn -0.466305 0.839217 0.279776
vn -0.534806 0.801549 0.267397
vn -0.452859 0.814659 0.362284
vn -0.534806 0.801549 0.267397
vn -0.520629 0.780052 0.347081
vn -0.466305 0.839217 0.279776
vn -0.476653 0.858169 0.190653
vn -0.545657 0.818033 0.181879
vn -0.466305 0.839217 0.279776
vn -0.545657 0.818033 0.181879
vn -0.534806 0.801549 0.267397
vn -0.476653 0.858169 0.190653
vn -0.483190 0.870167 0.096633
vn -0.552486 0.828421 0.092077
vn -0.476653 0.858169 0.190653
vn -0.552486 0.828421 0.092077
vn -0.545657 0.818033 0.181879
vn -0.483190 0.870167 0.096633
vn -0.485426 0.874278 0.000000
vn -0.554819 0.831971 0.000000
vn -0.483190 0.870167 0.096633
vn -0.554819 0.831971 0.000000
vn -0.552486 0.828421 0.092077
vn 0.552486 0.828421 0.092077
vn 0.554819 0.831971 0.000000
vn 0.485426 0.874278 0.000000
vn 0.552486 0.828421 0.092077
vn 0.485426 0.874278 0.000000
vn 0.483190 0.870167 0.096633
vn 0.545657 0.818033 0.181879
vn 0.552486 0.828421 0.092077
vn 0.483190 0.870167 0.096633
vn 0.545657 0.818033 0.181879
vn 0.483190 0.870167 0.096633
vn 0.476653 0.858169 0.190653
vn 0.534806 0.801549 0.267397
vn 0.545657 0.818033 0.181879
vn 0.476653 0.858169 0.190653
vn 0.534806 0.801549 0.267397
vn 0.476653 0.858169 0.190653
vn 0.466305 0.839217 0.279776
vn 0.520629 0.780052 0.347081
vn 0.534806 0.801549 0.267397
vn 0.466305 0.839217 0.279776
vn 0.520629 0.780052 0.347081
vn 0.466305 0.839217 0.279776
vn 0.452859 0.814659 0.362284
vn 0.520629 0.780052 0.347081
vn 0.452859 0.814659 0.362284
vn 0.437135 0.786019 0.437135
vn 0.520629 0.780052 0.347081
vn 0.437135 0.786019 0.437135
vn 0.497825 0.757881 0.421648
vn 0.520629 0.780052 0.347081
vn 0.497825 0.757881 0.421648
vn 0.505985 0.757885 0.411813
vn 0.437135 0.786019 0.437135
vn 0.421648 0.757881 0.497825
vn 0.497825 0.757881 0.421648
vn -0.347081 0.780052 0.520629
vn -0.411813 0.757885 0.505985
vn -0.337710 0.758778 0.556963
vn -0.347081 0.780052 0.520629
vn -0.362284 0.814659 0.452859
vn -0.437135 0.786019 0.437135
vn -0.347081 0.780052 0.520629
vn -0.437135 0.786019 0.437135
vn -0.421648 0.757881 0.497825
vn -0.347081 0.780052 0.520629
vn -0.421648 0.757881 0.497825
vn -0.411813 0.757885 0.505985
vn -0.362284 0.814659 0.452859
vn -0.376287 0.846650 0.376288
vn -0.452859 0.814659 0.362284
vn -0.362284 0.814659 0.452859
vn -0.452859 0.814659 0.362284
vn -0.437135 0.786019 0.437135
vn -0.376287 0.846650 0.376288
vn -0.388335 0.874283 0.291246
vn -0.466305 0.839217 0.279776
vn -0.376287 0.846650 0.376288
vn -0.466305 0.839217 0.279776
vn -0.452859 0.814659 0.362284
vn -0.388335 0.874283 0.291246
vn -0.397650 0.895738 0.198817
vn -0.476653 0.858169 0.190653
vn -0.388335 0.874283 0.291246
vn -0.476653 0.858169 0.190653
vn -0.466305 0.839217 0.279776
vn -0.397650 0.895738 0.198817
vn -0.403552 0.909378 0.100882
vn -0.483190 0.870167 0.096633
vn -0.397650 0.895738 0.198817
vn -0.483190 0.870167 0.096633
vn -0.476653 0.858169 0.190653
vn -0.403552 0.909378 0.100882
vn -0.405574 0.914062 0.000000
vn -0.485426 0.874278 0.000000
vn -0.403552 0.909378 0.100882
vn -0.485426 0.874278 0.000000
vn -0.483190 0.870167 0.096633
vn 0.483190 0.870167 0.096633
vn 0.485426 0.874278 0.000000
vn 0.405574 0.914062 0.000000
vn 0.483190 0.870167 0.096633
vn 0.405574 0.914062 0.000000
vn 0.403552 0.909378 0.100882
vn 0.476653 0.858169 0.190653
vn 0.483190 0.870167 0.096633
vn 0.403552 0.909378 0.100882
vn 0.476653 0.858169 0.190653
vn 0.403552 0.909378 0.100882
vn 0.397650 0.895738 0.198817
vn 0.466305 0.839217 0.279776
vn 0.476653 0.858169 0.190653
vn 0.397650 0.895738 0.198817
vn 0.466305 0.839217 0.279776
vn 0.397650 0.895738 0.198817
vn 0.388335 0.874283 0.291246
vn 0.452859 0.814659 0.362284
vn 0.466305 0.839217 0.279776
vn 0.388335 0.874283 0.291246
vn 0.452859 0.814659 0.362284
vn 0.388335 0.874283 0.291246
vn 0.376287 0.846650 0.376288
vn 0.437135 0.786019 0.437135
vn 0.452859 0.814659 0.362284
vn 0.376287 0.846650 0.376288
vn 0.437135 0.786019 0.437135
vn 0.376287 0.846650 0.376288
vn 0.362284 0.814659 0.452859
vn 0.437135 0.786019 0.437135
vn 0.362284 0.814659 0.452859
vn 0.347081 0.780052 0.520629
vn 0.437135 0.786019 0.437135
vn 0.347081 0.780052 0.520629
vn 0.411813 0.757885 0.505985
vn 0.437135 0.786019 0.437135
vn 0.411813 0.757885 0.505985
vn 0.421648 0.757881 0.497825
vn 0.347081 0.780052 0.520629
vn 0.337710 0.758778 0.556963
vn 0.411813 0.757885 0.505985
vn -0.254656 0.762931 0.594211
vn -0.276497 0.758165 0.590537
vn -0.261449 0.772678 0.578458
vn -0.254656 0.762931 0.594211
vn -0.267397 0.801550 0.534806
vn -0.347081 0.780052 0.520629
vn -0.254656 0.762931 0.594211
vn -0.347081 0.780052 0.520629
vn -0.337710 0.758778 0.556963
vn -0.254656 0.762931 0.594211
vn -0.337710 0.758778 0.556963
vn -0.276497 0.758165 0.590537
vn -0.267397 0.801550 0.534806
vn -0.279776 0.839217 0.466305
vn -0.362284 0.814659 0.452859
vn -0.267397 0.801550 0.534806
vn -0.362284 0.814659 0.452859
vn -0.347081 0.780052 0.520629
vn -0.279776 0.839217 0.466305
vn -0.291246 0.874283 0.388335
vn -0.376287 0.846650 0.376288
vn -0.279776 0.839217 0.466305
vn -0.376287 0.846650 0.376288
vn -0.362284 0.814659 0.452859
vn -0.291246 0.874283 0.388335
vn -0.301161 0.904767 0.301161
vn -0.388335 0.874283 0.291246
vn -0.291246 0.874283 0.388335
vn -0.388335 0.874283 0.291246
vn -0.376287 0.846650 0.376288
vn -0.301161 0.904767 0.301161
vn -0.308851 0.928557 0.205895
vn -0.397650 0.895738 0.198817
vn -0.301161 0.904767 0.301161
vn -0.397650 0.895738 0.198817
vn -0.388335 0.874283 0.291246
vn -0.308851 0.928557 0.205895
vn -0.313731 0.943736 0.104571
vn -0.403552 0.909378 0.100882
vn -0.308851 0.928557 0.205895
vn -0.403552 0.909378 0.100882
vn -0.397650 0.895738 0.198817
vn 0.403552 0.909378 0.100882
vn 0.405574 0.914062 0.000000
vn 0.315405 0.948957 0.000000
vn 0.403552 0.909378 0.100882
vn 0.315405 0.948957 0.000000
vn 0.313731 0.943736 0.104571
vn 0.397650 0.895738 0.198817
vn 0.403552 0.909378 0.100882
vn 0.313731 0.943736 0.104571
vn 0.397650 0.895738 0.198817
vn 0.313731 0.943736 0.104571
vn 0.308851 0.928557 0.205895
vn 0.388335 0.874283 0.291246
vn 0.397650 0.895738 0.198817
vn 0.308851 0.928557 0.205895
vn 0.388335 0.874283 0.291246
vn 0.308851 0.928557 0.205895
vn 0.301161 0.904767 0.301161
vn 0.376287 0.846650 0.376288
vn 0.388335 0.874283 0.291246
vn 0.301161 0.904767 0.301161
vn 0.376287 0.846650 0.376288
vn 0.301161 0.904767 0.301161
vn 0.291246 0.874283 0.388335
vn 0.362284 0.814659 0.452859
vn 0.376287 0.846650 0.376288
vn 0.291246 0.874283 0.388335
vn 0.362284 0.814659 0.452859
vn 0.291246 0.874283 0.388335
vn 0.279776 0.839217 0.466305
vn 0.347081 0.780052 0.520629
vn 0.362284 0.814659 0.452859
vn 0.279776 0.839217 0.466305
vn 0.347081 0.780052 0.520629
vn 0.279776 0.839217 0.466305
vn 0.267397 0.801550 0.534806
vn 0.347081 0.780052 0.520629
vn 0.267397 0.801550 0.534806
vn 0.254656 0.762931 0.594211
vn 0.347081 0.780052 0.520629
vn 0.254656 0.762931 0.594211
vn 0.276497 0.758165 0.590537
vn 0.347081 0.780052 0.520629
vn 0.276497 0.758165 0.590537
vn 0.337710 0.758778 0.556963
vn 0.254656 0.762931 0.594211
vn 0.253803 0.760348 0.597875
vn 0.276497 0.758165 0.590537
vn -0.313731 0.943736 0.104571
vn -0.315405 0.948957 0.000000
vn -0.405574 0.914062 0.000000
vn -0.313731 0.943736 0.104571
vn -0.405574 0.914062 0.000000
vn -0.403552 0.909378 0.100882
vn -0.172893 0.777115 0.605144
vn -0.254656 0.762931 0.594211
vn -0.261449 0.772678 0.578458
vn -0.172893 0.777115 0.605144
vn -0.261449 0.772678 0.578458
vn -0.197991 0.828218 0.524265
vn -0.172893 0.777115 0.605144
vn -0.181879 0.818033 0.545657
vn -0.267397 0.801550 0.534806
vn -0.172893 0.777115 0.605144
vn -0.267397 0.801550 0.534806
vn -0.254656 0.762931 0.594211
vn -0.181879 0.818033 0.545657
vn -0.190653 0.858169 0.476653
vn -0.279776 0.839217 0.466305
vn -0.181879 0.818033 0.545657
vn -0.279776 0.839217 0.466305
vn -0.267397 0.801550 0.534806
vn -0.190653 0.858169 0.476653
vn -0.198817 0.895738 0.397650
vn -0.291246 0.874283 0.388335
vn -0.190653 0.858169 0.476653
vn -0.291246 0.874283 0.388335
vn -0.279776 0.839217 0.466305
vn -0.198817 0.895738 0.397650
vn -0.205895 0.928557 0.308851
vn -0.301161 0.904767 0.301161
vn -0.198817 0.895738 0.397650
vn -0.301161 0.904767 0.301161
vn -0.291246 0.874283 0.388335
vn -0.205895 0.928557 0.308851
vn -0.211393 0.954267 0.211393
vn -0.308851 0.928557 0.205895
vn -0.205895 0.928557 0.308851
vn -0.308851 0.928557 0.205895
vn -0.301161 0.904767 0.301161
vn 0.313731 0.943736 0.104571
vn 0.315405 0.948957 0.000000
vn 0.216078 0.976376 0.000000
vn 0.313731 0.943736 0.104571
vn 0.216078 0.976376 0.000000
vn 0.214883 0.970712 0.107438
vn 0.308851 0.928557 0.205895
vn 0.313731 0.943736 0.104571
vn 0.214883 0.970712 0.107438
vn 0.308851 0.928557 0.205895
vn 0.214883 0.970712 0.107438
vn 0.211393 0.954267 0.211393
vn 0.301161 0.904767 0.301161
vn 0.308851 0.928557 0.205895
vn 0.211393 0.954267 0.211393
vn 0.301161 0.904767 0.301161
vn 0.211393 0.954267 0.211393
vn 0.205895 0.928557 0.308851
vn 0.291246 0.874283 0.388335
vn 0.301161 0.904767 0.301161
vn 0.205895 0.928557 0.308851
vn 0.291246 0.874283 0.388335
vn 0.205895 0.928557 0.308851
vn 0.198817 0.895738 0.397650
vn 0.279776 0.839217 0.466305
vn 0.291246 0.874283 0.388335
vn 0.198817 0.895738 0.397650
vn 0.279776 0.839217 0.466305
vn 0.198817 0.895738 0.397650
vn 0.190653 0.858169 0.476653
vn 0.267397 0.801550 0.534806
vn 0.279776 0.839217 0.466305
vn 0.190653 0.858169 0.476653
vn 0.267397 0.801550 0.534806
vn 0.190653 0.858169 0.476653
vn 0.181879 0.818033 0.545657
vn 0.254656 0.762931 0.594211
vn 0.267397 0.801550 0.534806
vn 0.181879 0.818033 0.545657
vn 0.254656 0.762931 0.594211
vn 0.181879 0.818033 0.545657
vn 0.172893 0.777115 0.605144
vn 0.254656 0.762931 0.594211
vn 0.172893 0.777115 0.605144
vn 0.170763 0.767435 0.617967
vn 0.254656 0.762931 0.594211
vn 0.170763 0.767435 0.617967
vn 0.253803 0.760348 0.597875
vn -0.211393 0.954267 0.211393
vn -0.214883 0.970712 0.107438
vn -0.313731 0.943736 0.104571
vn -0.211393 0.954267 0.211393
vn -0.313731 0.943736 0.104571
vn -0.308851 0.928557 0.205895
vn -0.214883 0.970712 0.107438
vn -0.216078 0.976376 0.000000
vn -0.315405 0.948957 0.000000
vn -0.214883 0.970712 0.107438
vn -0.315405 0.948957 0.000000
vn -0.313731 0.943736 0.104571
vn -0.087425 0.786014 0.611996
vn -0.172893 0.777115 0.605144
vn -0.197991 0.828218 0.524265
vn -0.087425 0.786014 0.611996
vn -0.197991 0.828218 0.524265
vn -0.119710 0.882848 0.454146
vn -0.087425 0.786014 0.611996
vn -0.092077 0.828421 0.552486
vn -0.181879 0.818033 0.545657
vn -0.087425 0.786014 0.611996
vn -0.181879 0.818033 0.545657
vn -0.172893 0.777115 0.605144
vn -0.092077 0.828421 0.552486
vn -0.096633 0.870167 0.483189
vn -0.190653 0.858169 0.476653
vn -0.092077 0.828421 0.552486
vn -0.190653 0.858169 0.476653
vn -0.181879 0.818033 0.545657
vn -0.096633 0.870167 0.483189
vn -0.100882 0.909378 0.403552
vn -0.198817 0.895738 0.397650
vn -0.096633 0.870167 0.483189
vn -0.198817 0.895738 0.397650
vn -0.190653 0.858169 0.476653
vn -0.100882 0.909378 0.403552
vn -0.104571 0.943736 0.313731
vn -0.205895 0.928557 0.308851
vn -0.100882 0.909378 0.403552
vn -0.205895 0.928557 0.308851
vn -0.198817 0.895738 0.397650
vn 0.214883 0.970712 0.107438
vn 0.216078 0.976376 0.000000
vn 0.109878 0.993945 0.000000
vn 0.214883 0.970712 0.107438
vn 0.109878 0.993945 0.000000
vn 0.109255 0.987991 0.109255
vn 0.211393 0.954267 0.211393
vn 0.214883 0.970712 0.107438
vn 0.109255 0.987991 0.109255
vn 0.211393 0.954267 0.211393
vn 0.109255 0.987991 0.109255
vn 0.107438 0.970712 0.214883
vn 0.205895 0.928557 0.308851
vn 0.211393 0.954267 0.211393
vn 0.107438 0.970712 0.214883
vn 0.205895 0.928557 0.308851
vn 0.107438 0.970712 0.214883
vn 0.104571 0.943736 0.313731
vn 0.198817 0.895738 0.397650
vn 0.205895 0.928557 0.308851
vn 0.104571 0.943736 0.313731
vn 0.198817 0.895738 0.397650
vn 0.104571 0.943736 0.313731
vn 0.100882 0.909378 0.403552
vn 0.190653 0.858169 0.476653
vn 0.198817 0.895738 0.397650
vn 0.100882 0.909378 0.403552
vn 0.190653 0.858169 0.476653
vn 0.100882 0.909378 0.403552
vn 0.096633 0.870167 0.483189
vn 0.181879 0.818033 0.545657
vn 0.190653 0.858169 0.476653
vn 0.096633 0.870167 0.483189
vn 0.181879 0.818033 0.545657
vn 0.096633 0.870167 0.483189
vn 0.092077 0.828421 0.552486
vn 0.172893 0.777115 0.605144
vn 0.181879 0.818033 0.545657
vn 0.092077 0.828421 0.552486
vn 0.172893 0.777115 0.605144
vn 0.092077 0.828421 0.552486
vn 0.087425 0.786014 0.611996
vn 0.172893 0.777115 0.605144
vn 0.087425 0.786014 0.611996
vn 0.077881 0.928532 0.362992
vn 0.172893 0.777115 0.605144
vn 0.077881 0.928532 0.362992
vn 0.170763 0.767435 0.617967
vn -0.104571 0.943736 0.313731
vn -0.107438 0.970712 0.214883
vn -0.211393 0.954267 0.211393
vn -0.104571 0.943736 0.313731
vn -0.211393 0.954267 0.211393
vn -0.205895 0.928557 0.308851
vn -0.107438 0.970712 0.214883
vn -0.109255 0.987991 0.109255
vn -0.214883 0.970712 0.107438
vn -0.107438 0.970712 0.214883
vn -0.214883 0.970712 0.107438
vn -0.211393 0.954267 0.211393
vn -0.109255 0.987991 0.109255
vn -0.109878 0.993945 0.000000
vn -0.216078 0.976376 0.000000
vn -0.109255 0.987991 0.109255
vn -0.216078 0.976376 0.000000
vn -0.214883 0.970712 0.107438
vn 0.000000 0.789048 0.614332
vn -0.087425 0.786014 0.611996
vn -0.119710 0.882848 0.454146
vn 0.000000 0.789048 0.614332
vn -0.119710 0.882848 0.454146
vn -0.025794 0.920128 0.390766
vn 0.000000 0.789048 0.614332
vn 0.000000 0.831971 0.554819
vn -0.092077 0.828421 0.552486
vn 0.000000 0.789048 0.614332
vn -0.092077 0.828421 0.552486
vn -0.087425 0.786014 0.611996
vn 0.000000 0.831971 0.554819
vn 0.000000 0.874278 0.485426
vn -0.096633 0.870167 0.483189
vn 0.000000 0.831971 0.554819
vn -0.096633 0.870167 0.483189
vn -0.092077 0.828421 0.552486
vn 0.000000 0.874278 0.485426
vn 0.000000 0.914062 0.405574
vn -0.100882 0.909378 0.403552
vn 0.000000 0.874278 0.485426
vn -0.100882 0.909378 0.403552
vn -0.096633 0.870167 0.483189
vn 0.109255 0.987991 0.109255
vn 0.109878 0.993945 0.000000
vn 0.000000 1.000000 0.000000
vn 0.109255 0.987991 0.109255
vn 0.000000 1.000000 0.000000
vn 0.000000 0.993945 0.109878
vn 0.107438 0.970712 0.214883
vn 0.109255 0.987991 0.109255
vn 0.000000 0.993945 0.109878
vn 0.107438 0.970712 0.214883
vn 0.000000 0.993945 0.109878
vn 0.000000 0.976376 0.216078
vn 0.104571 0.943736 0.313731
vn 0.107438 0.970712 0.214883
vn 0.000000 0.976376 0.216078
vn 0.104571 0.943736 0.313731
vn 0.000000 0.976376 0.216078
vn 0.000000 0.948957 0.315405
vn 0.100882 0.909378 0.403552
vn 0.104571 0.943736 0.313731
vn 0.000000 0.948957 0.315405
vn 0.100882 0.909378 0.403552
vn 0.000000 0.948957 0.315405
vn 0.000000 0.914062 0.405574
vn 0.096633 0.870167 0.483189
vn 0.100882 0.909378 0.403552
vn 0.000000 0.914062 0.405574
vn 0.096633 0.870167 0.483189
vn 0.000000 0.914062 0.405574
vn 0.000000 0.874278 0.485426
vn 0.092077 0.828421 0.552486
vn 0.096633 0.870167 0.483189
vn 0.000000 0.874278 0.485426
vn 0.092077 0.828421 0.552486
vn 0.000000 0.874278 0.485426
vn 0.000000 0.831971 0.554819
vn 0.087425 0.786014 0.611996
vn 0.092077 0.828421 0.552486
vn 0.000000 0.831971 0.554819
vn 0.087425 0.786014 0.611996
vn 0.000000 0.831971 0.554819
vn 0.000000 0.789048 0.614332
vn 0.087425 0.786014 0.611996
vn 0.000000 0.789048 0.614332
vn -0.025794 0.920128 0.390766
vn 0.087425 0.786014 0.611996
vn -0.025794 0.920128 0.390766
vn 0.077881 0.928532 0.362992
vn 0.000000 0.914062 0.405574
vn 0.000000 0.948957 0.315405
vn -0.104571 0.943736 0.313731
vn 0.000000 0.914062 0.405574
vn -0.104571 0.943736 0.313731
vn -0.100882 0.909378 0.403552
vn 0.000000 0.948957 0.315405
vn 0.000000 0.976376 0.216078
vn -0.107438 0.970712 0.214883
vn 0.000000 0.948957 0.315405
vn -0.107438 0.970712 0.214883
vn -0.104571 0.943736 0.313731
vn 0.000000 0.976376 0.216078
vn 0.000000 0.993945 0.109878
vn -0.109255 0.987991 0.109255
vn 0.000000 0.976376 0.216078
vn -0.109255 0.987991 0.109255
vn -0.107438 0.970712 0.214883
vn 0.000000 0.993945 0.109878
vn 0.000000 1.000000 0.000000
vn -0.109878 0.993945 0.000000
vn 0.000000 0.993945 0.109878
vn -0.109878 0.993945 0.000000
vn -0.109255 0.987991 0.109255
f 127/1/1 131/2/2 125/3/3
f 131/4/4 130/5/5 124/6/6
f 131/7/7 124/8/8 125/9/9
f 130/10/10 129/11/11 123/12/12
f 130/13/13 123/14/14 124/15/15
f 129/16/16 128/17/17 122/18/18
f 129/19/19 122/20/20 123/21/21
f 1/22/22 3/23/23 4/24/24
f 1/25/25 4/26/26 2/27/27
f 3/28/28 5/29/29 6/30/30
f 3/31/31 6/32/32 4/33/33
f 5/34/34 7/35/35 8/36/36
f 5/37/37 8/38/38 6/39/39
f 7/40/40 9/41/41 8/42/42
f 121/43/43 126/44/44 119/45/45
f 126/46/46 127/47/47 125/48/48
f 126/49/49 125/50/50 118/51/51
f 126/52/52 118/53/53 119/54/54
f 125/55/55 124/56/56 117/57/57
f 125/58/58 117/59/59 118/60/60
f 124/61/61 123/62/62 116/63/63
f 124/64/64 116/65/65 117/66/66
f 123/67/67 122/68/68 115/69/69
f 123/70/70 115/71/71 116/72/72
f 11/73/73 10/74/74 2/75/75
f 11/76/76 2/77/77 4/78/78
f 12/79/79 11/80/80 4/81/81
f 12/82/82 4/83/83 6/84/84
f 13/85/85 12/86/86 6/87/87
f 13/88/88 6/89/89 8/90/90
f 9/91/91 14/92/92 15/93/93
f 9/94/94 15/95/95 13/96/96
f 9/97/97 13/98/98 8/99/99
f 14/100/100 16/101/101 15/102/102
f 114/103/103 120/104/104 112/105/105
f 120/106/106 121/107/107 119/108/108
f 120/109/109 119/110/110 111/111/111
f 120/112/112 111/113/113 112/114/114
f 119/115/115 118/116/116 110/117/117
f 119/118/118 110/119/119 111/120/120
f 118/121/121 117/122/122 109/123/123
f 118/124/124 109/125/125 110/126/126
f 117/127/127 116/128/128 108/129/129
f 117/130/130 108/131/131 109/132/132
f 116/133/133 115/134/134 107/135/135
f 116/136/136 107/137/137 108/138/138
f 18/139/139 17/140/140 10/141/141
f 18/142/142 10/143/143 11/144/144
f 19/145/145 18/146/146 11/147/147
f 19/148/148 11/149/149 12/150/150
f 20/151/151 19/152/152 12/153/153
f 20/154/154 12/155/155 13/156/156
f 21/157/157 20/158/158 13/159/159
f 21/160/160 13/161/161 15/162/162
f 16/163/163 22/164/164 23/165/165
f 16/166/166 23/167/167 21/168/168
f 16/169/169 21/170/170 15/171/171
f 22/172/172 24/173/173 23/174/174
f 106/175/175 113/176/176 104/177/177
f 113/178/178 114/179/179 112/180/180
f 113/181/181 112/182/182 103/183/183
f 113/184/184 103/185/185 104/186/186
f 112/187/187 111/188/188 102/189/189
f 112/190/190 102/191/191 103/192/192
f 111/193/193 110/194/194 101/195/195
f 111/196/196 101/197/197 102/198/198
f 110/199/199 109/200/200 100/201/201
f 110/202/202 100/203/203 101/204/204
f 109/205/205 108/206/206 99/207/207
f 109/208/208 99/209/209 100/210/210
f 108/211/211 107/212/212 98/213/213
f 108/214/214 98/215/215 99/216/216
f 26/217/217 25/218/218 17/219/219
f 26/220/220 17/221/221 18/222/222
f 27/223/223 26/224/224 18/225/225
f 27/226/226 18/227/227 19/228/228
f 28/229/229 27/230/230 19/231/231
f 28/232/232 19/233/233 20/234/234
f 29/235/235 28/236/236 20/237/237
f 29/238/238 20/239/239 21/240/240
f 30/241/241 29/242/242 21/243/243
f 30/244/244 21/245/245 23/246/246
f 24/247/247 31/248/248 32/249/249
f 24/250/250 32/251/251 30/252/252
f 24/253/253 30/254/254 23/255/255
f 31/256/256 33/257/257 32/258/258
f 97/259/259 105/260/260 96/261/261
f 105/262/262 106/263/263 104/264/264
f 105/265/265 104/266/266 95/267/267
f 105/268/268 95/269/269 96/270/270
f 104/271/271 103/272/272 94/273/273
f 104/274/274 94/275/275 95/276/276
f 103/277/277 102/278/278 93/279/279
f 103/280/280 93/281/281 94/282/282
f 102/283/283 101/284/284 92/285/285
f 102/286/286 92/287/287 93/288/288
f 101/289/289 100/290/290 91/291/291
f 101/292/292 91/293/293 92/294/294
f 100/295/295 99/296/296 90/297/297
f 100/298/298 90/299/299 91/300/300
f 35/301/301 34/302/302 25/303/303
f 35/304/304 25/305/305 26/306/306
f 36/307/307 35/308/308 26/309/309
f 36/310/310 26/311/311 27/312/312
f 37/313/313 36/314/314 27/315/315
f 37/316/316 27/317/317 28/318/318
f 38/319/319 37/320/320 28/321/321
f 38/322/322 28/323/323 29/324/324
f 39/325/325 38/326/326 29/327/327
f 39/328/328 29/329/329 30/330/330
f 40/331/331 39/332/332 30/333/333
f 40/334/334 30/335/335 32/336/336
f 33/337/337 41/338/338 42/339/339
f 33/340/340 42/341/341 40/342/342
f 33/343/343 40/344/344 32/345/345
f 41/346/346 43/347/347 42/348/348
f 99/349/349 98/350/350 89/351/351
f 99/352/352 89/353/353 90/354/354
f 88/355/355 97/356/356 96/357/357
f 88/358/358 96/359/359 87/360/360
f 96/361/361 95/362/362 86/363/363
f 96/364/364 86/365/365 87/366/366
f 95/367/367 94/368/368 85/369/369
f 95/370/370 85/371/371 86/372/372
f 94/373/373 93/374/374 84/375/375
f 94/376/376 84/377/377 85/378/378
f 93/379/379 92/380/380 83/381/381
f 93/382/382 83/383/383 84/384/384
f 92/385/385 91/386/386 82/387/387
f 92/388/388 82/389/389 83/390/390
f 45/391/391 44/392/392 34/393/393
f 45/394/394 34/395/395 35/396/396
f 46/397/397 45/398/398 35/399/399
f 46/400/400 35/401/401 36/402/402
f 47/403/403 46/404/404 36/405/405
f 47/406/406 36/407/407 37/408/408
f 48/409/409 47/410/410 37/411/411
f 48/412/412 37/413/413 38/414/414
f 49/415/415 48/416/416 38/417/417
f 49/418/418 38/419/419 39/420/420
f 50/421/421 49/422/422 39/423/423
f 50/424/424 39/425/425 40/426/426
f 51/427/427 50/428/428 40/429/429
f 51/430/430 40/431/431 42/432/432
f 43/433/433 52/434/434 51/435/435
f 43/436/436 51/437/437 42/438/438
f 91/439/439 90/440/440 81/441/441
f 91/442/442 81/443/443 82/444/444
f 90/445/445 89/446/446 80/447/447
f 90/448/448 80/449/449 81/450/450
f 79/451/451 88/452/452 87/453/453
f 79/454/454 87/455/455 78/456/456
f 87/457/457 86/458/458 77/459/459
f 87/460/460 77/461/461 78/462/462
f 86/463/463 85/464/464 76/465/465
f 86/466/466 76/467/467 77/468/468
f 85/469/469 84/470/470 75/471/471
f 85/472/472 75/473/473 76/474/474
f 84/475/475 83/476/476 74/477/477
f 84/478/478 74/479/479 75/480/480
f 54/481/481 53/482/482 44/483/483
f 54/484/484 44/485/485 45/486/486
f 55/487/487 54/488/488 45/489/489
f 55/490/490 45/491/491 46/492/492
f 56/493/493 55/494/494 46/495/495
f 56/496/496 46/497/497 47/498/498
f 57/499/499 56/500/500 47/501/501
f 57/502/502 47/503/503 48/504/504
f 58/505/505 57/506/506 48/507/507
f 58/508/508 48/509/509 49/510/510
f 59/511/511 58/512/512 49/513/513
f 59/514/514 49/515/515 50/516/516
f 60/517/517 59/518/518 50/519/519
f 60/520/520 50/521/521 51/522/522
f 52/523/523 61/524/524 60/525/525
f 52/526/526 60/527/527 51/528/528
f 83/529/529 82/530/530 73/531/531
f 83/532/532 73/533/533 74/534/534
f 82/535/535 81/536/536 72/537/537
f 82/538/538 72/539/539 73/540/540
f 81/541/541 80/542/542 71/543/543
f 81/544/544 71/545/545 72/546/546
f 70/547/547 79/548/548 78/549/549
f 70/550/550 78/551/551 69/552/552
f 78/553/553 77/554/554 68/555/555
f 78/556/556 68/557/557 69/558/558
f 77/559/559 76/560/560 67/561/561
f 77/562/562 67/563/563 68/564/564
f 76/565/565 75/566/566 66/567/567
f 76/568/568 66/569/569 67/570/570
f 63/571/571 62/572/572 53/573/573
f 63/574/574 53/575/575 54/576/576
f 64/577/577 63/578/578 54/579/579
f 64/580/580 54/581/581 55/582/582
f 65/583/583 64/584/584 55/585/585
f 65/586/586 55/587/587 56/588/588
f 66/589/589 65/590/590 56/591/591
f 66/592/592 56/593/593 57/594/594
f 67/595/595 66/596/596 57/597/597
f 67/598/598 57/599/599 58/600/600
f 68/601/601 67/602/602 58/603/603
f 68/604/604 58/605/605 59/606/606
f 69/607/607 68/608/608 59/609/609
f 69/610/610 59/611/611 60/612/612
f 61/613/613 70/614/614 69/615/615
f 61/616/616 69/617/617 60/618/618
f 75/619/619 74/620/620 65/621/621
f 75/622/622 65/623/623 66/624/624
f 74/625/625 73/626/626 64/627/627
f 74/628/628 64/629/629 65/630/630
f 73/631/631 72/632/632 63/633/633
f 73/634/634 63/635/635 64/636/636
f 72/637/637 71/638/638 62/639/639
f 72/640/640 62/641/641 63/642/642
f 240/643/643 245/644/644 242/645/645
f 240/646/646 239/647/647 244/648/648
f 240/649/649 244/650/650 245/651/651
f 239/652/652 238/653/653 243/654/654
f 239/655/655 243/656/656 244/657/657
f 238/658/658 122/659/659 128/660/660
f 238/661/661 128/662/662 243/663/663
f 2/664/664 133/665/665 132/666/666
f 2/667/667 132/668/668 1/669/669
f 133/670/670 135/671/671 134/672/672
f 133/673/673 134/674/674 132/675/675
f 135/676/676 137/677/677 136/678/678
f 135/679/679 136/680/680 134/681/681
f 137/682/682 138/683/683 136/684/684
f 235/685/685 241/686/686 237/687/687
f 235/688/688 234/689/689 240/690/690
f 235/691/691 240/692/692 242/693/693
f 235/694/694 242/695/695 241/696/696
f 234/697/697 233/698/698 239/699/699
f 234/700/700 239/701/701 240/702/702
f 233/703/703 232/704/704 238/705/705
f 233/706/706 238/707/707 239/708/708
f 232/709/709 115/710/710 122/711/711
f 232/712/712 122/713/713 238/714/714
f 133/715/715 2/716/716 10/717/717
f 133/718/718 10/719/719 139/720/720
f 135/721/721 133/722/722 139/723/723
f 135/724/724 139/725/725 140/726/726
f 137/727/727 135/728/728 140/729/729
f 137/730/730 140/731/731 141/732/732
f 137/733/733 141/734/734 143/735/735
f 137/736/736 143/737/737 142/738/738
f 137/739/739 142/740/740 138/741/741
f 143/742/742 144/743/743 142/744/744
f 229/745/745 236/746/746 231/747/747
f 229/748/748 228/749/749 235/750/750
f 229/751/751 235/752/752 237/753/753
f 229/754/754 237/755/755 236/756/756
f 228/757/757 227/758/758 234/759/759
f 228/760/760 234/761/761 235/762/762
f 227/763/763 226/764/764 233/765/765
f 227/766/766 233/767/767 234/768/768
f 226/769/769 225/770/770 232/771/771
f 226/772/772 232/773/773 233/774/774
f 225/775/775 107/776/776 115/777/777
f 225/778/778 115/779/779 232/780/780
f 139/781/781 10/782/782 17/783/783
f 139/784/784 17/785/785 145/786/786
f 140/787/787 139/788/788 145/789/789
f 140/790/790 145/791/791 146/792/792
f 141/793/793 140/794/794 146/795/795
f 141/796/796 146/797/797 147/798/798
f 143/799/799 141/800/800 147/801/801
f 143/802/802 147/803/803 148/804/804
f 143/805/805 148/806/806 150/807/807
f 143/808/808 150/809/809 149/810/810
f 143/811/811 149/812/812 144/813/813
f 150/814/814 151/815/815 149/816/816
f 222/817/817 230/818/818 224/819/819
f 222/820/820 221/821/821 229/822/822
f 222/823/823 229/824/824 231/825/825
f 222/826/826 231/827/827 230/828/828
f 221/829/829 220/830/830 228/831/831
f 221/832/832 228/833/833 229/834/834
f 220/835/835 219/836/836 227/837/837
f 220/838/838 227/839/839 228/840/840
f 219/841/841 218/842/842 226/843/843
f 219/844/844 226/845/845 227/846/846
f 218/847/847 217/848/848 225/849/849
f 218/850/850 225/851/851 226/852/852
f 217/853/853 98/854/854 107/855/855
f 217/856/856 107/857/857 225/858/858
f 145/859/859 17/860/860 25/861/861
f 145/862/862 25/863/863 152/864/864
f 146/865/865 145/866/866 152/867/867
f 146/868/868 152/869/869 153/870/870
f 147/871/871 146/872/872 153/873/873
f 147/874/874 153/875/875 154/876/876
f 148/877/877 147/878/878 154/879/879
f 148/880/880 154/881/881 155/882/882
f 150/883/883 148/884/884 155/885/885
f 150/886/886 155/887/887 156/888/888
f 150/889/889 156/890/890 158/891/891
f 150/892/892 158/893/893 157/894/894
f 150/895/895 157/896/896 151/897/897
f 158/898/898 159/899/899 157/900/900
f 215/901/901 223/902/902 216/903/903
f 215/904/904 214/905/905 222/906/906
f 215/907/907 222/908/908 224/909/909
f 215/910/910 224/911/911 223/912/912
f 214/913/913 213/914/914 221/915/915
f 214/916/916 221/917/917 222/918/918
f 213/919/919 212/920/920 220/921/921
f 213/922/922 220/923/923 221/924/924
f 212/925/925 211/926/926 219/927/927
f 212/928/928 219/929/929 220/930/930
f 211/931/931 210/932/932 218/933/933
f 211/934/934 218/935/935 219/936/936
f 210/937/937 209/938/938 217/939/939
f 210/940/940 217/941/941 218/942/942
f 152/943/943 25/944/944 34/945/945
f 152/946/946 34/947/947 160/948/948
f 153/949/949 152/950/950 160/951/951
f 153/952/952 160/953/953 161/954/954
f 154/955/955 153/956/956 161/957/957
f 154/958/958 161/959/959 162/960/960
f 155/961/961 154/962/962 162/963/963
f 155/964/964 162/965/965 163/966/966
f 156/967/967 155/968/968 163/969/969
f 156/970/970 163/971/971 164/972/972
f 158/973/973 156/974/974 164/975/975
f 158/976/976 164/977/977 165/978/978
f 158/979/979 165/980/980 167/981/981
f 158/982/982 167/983/983 166/984/984
f 158/985/985 166/986/986 159/987/987
f 167/988/988 168/989/989 166/990/990
f 209/991/991 89/992/992 98/993/993
f 209/994/994 98/995/995 217/996/996
f 207/997/997 215/998/998 216/999/999
f 207/1000/1000 216/1001/1001 208/1002/1002
f 207/1003/1003 206/1004/1004 214/1005/1005
f 207/1006/1006 214/1007/1007 215/1008/1008
f 206/1009/1009 205/1010/1010 213/1011/1011
f 206/1012/1012 213/1013/1013 214/1014/1014
f 205/1015/1015 204/1016/1016 212/1017/1017
f 205/1018/1018 212/1019/1019 213/1020/1020
f 204/1021/1021 203/1022/1022 211/1023/1023
f 204/1024/1024 211/1025/1025 212/1026/1026
f 203/1027/1027 202/1028/1028 210/1029/1029
f 203/1030/1030 210/1031/1031 211/1032/1032
f 160/1033/1033 34/1034/1034 44/1035/1035
f 160/1036/1036 44/1037/1037 169/1038/1038
f 161/1039/1039 160/1040/1040 169/1041/1041
f 161/1042/1042 169/1043/1043 170/1044/1044
f 162/1045/1045 161/1046/1046 170/1047/1047
f 162/1048/1048 170/1049/1049 171/1050/1050
f 163/1051/1051 162/1052/1052 171/1053/1053
f 163/1054/1054 171/1055/1055 172/1056/1056
f 164/1057/1057 163/1058/1058 172/1059/1059
f 164/1060/1060 172/1061/1061 173/1062/1062
f 165/1063/1063 164/1064/1064 173/1065/1065
f 165/1066/1066 173/1067/1067 174/1068/1068
f 167/1069/1069 165/1070/1070 174/1071/1071
f 167/1072/1072 174/1073/1073 175/1074/1074
f 167/1075/1075 175/1076/1076 176/1077/1077
f 167/1078/1078 176/1079/1079 168/1080/1080
f 202/1081/1081 201/1082/1082 209/1083/1083
f 202/1084/1084 209/1085/1085 210/1086/1086
f 201/1087/1087 80/1088/1088 89/1089/1089
f 201/1090/1090 89/1091/1091 209/1092/1092
f 199/1093/1093 207/1094/1094 208/1095/1095
f 199/1096/1096 208/1097/1097 200/1098/1098
f 199/1099/1099 198/1100/1100 206/1101/1101
f 199/1102/1102 206/1103/1103 207/1104/1104
f 198/1105/1105 197/1106/1106 205/1107/1107
f 198/1108/1108 205/1109/1109 206/1110/1110
f 197/1111/1111 196/1112/1112 204/1113/1113
f 197/1114/1114 204/1115/1115 205/1116/1116
f 196/1117/1117 195/1118/1118 203/1119/1119
f 196/1120/1120 203/1121/1121 204/1122/1122
f 169/1123/1123 44/1124/1124 53/1125/1125
f 169/1126/1126 53/1127/1127 177/1128/1128
f 170/1129/1129 169/1130/1130 177/1131/1131
f 170/1132/1132 177/1133/1133 178/1134/1134
f 171/1135/1135 170/1136/1136 178/1137/1137
f 171/1138/1138 178/1139/1139 179/1140/1140
f 172/1141/1141 171/1142/1142 179/1143/1143
f 172/1144/1144 179/1145/1145 180/1146/1146
f 173/1147/1147 172/1148/1148 180/1149/1149
f 173/1150/1150 180/1151/1151 181/1152/1152
f 174/1153/1153 173/1154/1154 181/1155/1155
f 174/1156/1156 181/1157/1157 182/1158/1158
f 175/1159/1159 174/1160/1160 182/1161/1161
f 175/1162/1162 182/1163/1163 183/1164/1164
f 175/1165/1165 183/1166/1166 184/1167/1167
f 175/1168/1168 184/1169/1169 176/1170/1170
f 195/1171/1171 194/1172/1172 202/1173/1173
f 195/1174/1174 202/1175/1175 203/1176/1176
f 194/1177/1177 193/1178/1178 201/1179/1179
f 194/1180/1180 201/1181/1181 202/1182/1182
f 193/1183/1183 71/1184/1184 80/1185/1185
f 193/1186/1186 80/1187/1187 201/1188/1188
f 191/1189/1189 199/1190/1190 200/1191/1191
f 191/1192/1192 200/1193/1193 192/1194/1194
f 191/1195/1195 190/1196/1196 198/1197/1197
f 191/1198/1198 198/1199/1199 199/1200/1200
f 190/1201/1201 189/1202/1202 197/1203/1203
f 190/1204/1204 197/1205/1205 198/1206/1206
f 189/1207/1207 188/1208/1208 196/1209/1209
f 189/1210/1210 196/1211/1211 197/1212/1212
f 177/1213/1213 53/1214/1214 62/1215/1215
f 177/1216/1216 62/1217/1217 185/1218/1218
f 178/1219/1219 177/1220/1220 185/1221/1221
f 178/1222/1222 185/1223/1223 186/1224/1224
f 179/1225/1225 178/1226/1226 186/1227/1227
f 179/1228/1228 186/1229/1229 187/1230/1230
f 180/1231/1231 179/1232/1232 187/1233/1233
f 180/1234/1234 187/1235/1235 188/1236/1236
f 181/1237/1237 180/1238/1238 188/1239/1239
f 181/1240/1240 188/1241/1241 189/1242/1242
f 182/1243/1243 181/1244/1244 189/1245/1245
f 182/1246/1246 189/1247/1247 190/1248/1248
f 183/1249/1249 182/1250/1250 190/1251/1251
f 183/1252/1252 190/1253/1253 191/1254/1254
f 183/1255/1255 191/1256/1256 192/1257/1257
f 183/1258/1258 192/1259/1259 184/1260/1260
f 188/1261/1261 187/1262/1262 195/1263/1263
f 188/1264/1264 195/1265/1265 196/1266/1266
f 187/1267/1267 186/1268/1268 194/1269/1269
f 187/1270/1270 194/1271/1271 195/1272/1272
f 186/1273/1273 185/1274/1274 193/1275/1275
f 186/1276/1276 193/1277/1277 194/1278/1278
f 185/1279/1279 62/1280/1280 71/1281/1281
f 185/1282/1282 71/1283/1283 193/1284/1284
