v 24.000000 9.000000 13.000000
v -12.999998 0.000000 -24.000004
v -24.000000 0.000000 0.000000
v -0.000002 0.000000 23.999998
v 0.000001 22.000000 21.000000
v -24.000000 22.000000 0.000000
v -24.000000 22.000000 -24.000000
v 0.000000 0.000000 -24.000000
v -21.000002 22.000000 0.000001
v 0.000000 22.000000 24.000000
v 24.000004 0.000000 23.999996
v 24.000000 0.000000 0.000000
v 24.000000 22.000000 24.000000
v -13.000000 9.000000 -24.000000
v -16.000002 0.000000 23.999998
v -24.000000 0.000000 16.000000
v -18.000000 0.000000 6.000000
v -16.000002 14.000000 23.999998
v -24.000000 14.000000 16.000000
v -6.000002 0.000000 17.999998
v -18.000000 5.500000 6.000000
v -6.000000 22.000000 18.000000
v 9.000000 0.000000 0.000000
v 3.000002 9.000000 13.000001
v -0.000001 0.000000 -9.000000
v -13.000001 9.000000 -3.000000
v -13.000000 9.000000 -12.000000
v -24.000000 22.000000 -12.000000
v 12.000000 22.000000 24.000000
v 12.000000 9.000000 13.000000
v 24.000000 30.000000 13.000000
v -24.000000 37.000000 -12.000000
v -24.000002 37.000000 -24.000000
v -13.000000 30.000000 -12.000000
v 12.000000 30.000000 13.000000
v 24.000002 35.250000 22.000000
v -13.000000 30.000000 -24.000000
v 12.000000 37.000000 24.000000
v -23.999996 11.000000 -24.000004
v -19.999996 4.500000 -24.000002
v -23.999996 0.000000 -12.000003
v -12.000000 22.000000 12.000000
v -22.500000 16.000000 13.500000
v 24.000000 29.500000 24.000000
v 23.000000 37.000000 24.000000
v 24.000000 12.250000 18.000000
v 24.000000 14.000000 13.000000
v 19.000000 9.000000 13.000000
v -13.687501 15.500000 1.812500
v -10.750002 22.000000 10.250000
v -19.000000 22.000000 2.000000
v -21.000000 22.000000 3.000000
v -19.500000 13.750000 4.500000
v 12.000000 15.000000 17.000000
v 6.000000 22.000000 21.000000
v 12.000000 22.000000 24.000000
v 6.000000 22.000000 24.000000
v 12.000001 0.000000 23.999996
v 6.000000 0.000000 23.999996
v 9.000000 5.500000 23.999996
v 9.000000 16.500000 24.000000
v 12.000000 0.000000 21.000000
v -21.000000 22.000000 -12.000000
vt 0.243536 0.601279
vt 0.610870 0.544345
vt 0.717203 0.414210
vt 0.243536 0.601279
vt 0.717203 0.414210
vt 0.311203 0.456636
vt 0.014839 -0.097058
vt 0.229682 0.138109
vt 0.981635 -0.332225
vt 0.014839 -0.097058
vt 0.981635 -0.332225
vt 0.390815 -0.332225
vt -0.917510 0.380246
vt -0.917510 1.122032
vt -0.485027 0.245376
vt -0.917510 0.380246
vt -0.485027 0.245376
vt -0.701268 -0.058082
vt -0.766802 -0.558929
vt 0.498543 -0.558929
vt -0.306677 0.019242
vt -0.306677 0.019242
vt -0.421708 0.228026
vt -0.766802 0.854379
vt -0.306677 0.019242
vt -0.766802 0.854379
vt -0.766802 -0.558929
vt 1.390035 1.368309
vt 1.390035 0.019242
vt 1.993949 0.019242
vt 1.390035 1.368309
vt 1.993949 0.019242
vt 1.993949 1.368309
vt -0.436222 0.474503
vt -1.075620 0.474503
vt -1.075620 -0.420508
vt -0.436222 0.474503
vt -1.075620 -0.420508
vt -0.436222 -0.420508
vt 1.016803 0.934532
vt 0.692440 0.934532
vt 0.692440 -0.549040
vt 1.016803 0.934532
vt 0.692440 -0.549040
vt 1.016803 -0.549040
vt 0.363027 -0.420508
vt 0.842576 -0.420508
vt 0.842576 0.985938
vt 0.363027 -0.420508
vt 0.842576 0.985938
vt 0.363027 0.985938
vt 0.001953 0.439453
vt 0.125000 0.148649
vt 0.250000 0.594595
vt 0.363027 -0.420508
vt 0.363027 0.985938
vt -0.436222 0.474503
vt 0.363027 -0.420508
vt -0.436222 0.474503
vt -0.436222 -0.420508
vt -0.155585 0.399463
vt -0.155585 0.223882
vt 1.225809 0.223882
vt -0.155585 0.399463
vt 1.225809 0.223882
vt 1.225809 0.923462
vt -0.155585 0.399463
vt 1.225809 0.923462
vt 0.490411 0.920719
vt 0.003326 0.087484
vt 0.003326 0.760173
vt 0.781830 0.760173
vt 0.003326 0.087484
vt 0.781830 0.760173
vt 0.781830 0.087484
vt 0.474006 1.008669
vt 0.474006 0.097911
vt -0.479416 0.022015
vt 0.474006 1.008669
vt -0.479416 0.022015
vt -0.479416 0.629187
vt 0.474006 1.008669
vt -0.479416 0.629187
vt -0.479416 1.236359
vt 0.468750 0.500000
vt 0.564453 0.564453
vt 0.500000 0.297297
vt 0.373146 0.196566
vt 0.170419 0.976284
vt 0.469441 0.973518
vt 0.373146 0.196566
vt 0.469441 0.973518
vt 0.575873 0.586425
vt 0.776000 -0.149821
vt 0.106658 -0.149821
vt -0.090208 0.856852
vt 0.776000 -0.149821
vt -0.090208 0.856852
vt 1.012238 0.856852
vt 0.197917 0.810811
vt 0.197917 0.243243
vt 0.114583 0.418919
vt 0.197917 0.810811
vt 0.114583 0.418919
vt 0.031250 0.594595
vt 0.197917 0.810811
vt 0.031250 0.594595
vt 0.031250 1.000000
vt 1.006796 0.418919
vt 1.054154 0.052040
vt 0.391142 0.052040
vt 0.142641 0.246678
vt 1.089386 0.235309
vt 1.364184 1.093982
vt 0.142641 0.246678
vt 1.364184 1.093982
vt 0.700709 1.108195
vt 0.142641 0.246678
vt 0.700709 1.108195
vt 0.368972 1.115302
vt 0.142641 0.246678
vt 0.368972 1.115302
vt 0.037234 1.122409
vt 0.391142 0.052040
vt 0.201710 0.785798
vt 0.580574 0.785798
vt 0.391142 0.052040
vt 0.580574 0.785798
vt 1.006796 0.418919
vt 0.958668 0.854379
vt 0.613574 0.854379
vt 0.786121 0.019242
vt 0.958668 0.854379
vt 0.786121 0.019242
vt 1.390035 0.019242
vt 0.463218 0.952453
vt 0.344836 1.399173
vt 1.173511 1.399173
vt 0.463218 0.952453
vt 1.173511 1.399173
vt 1.291893 1.287493
vt 0.463218 0.952453
vt 1.291893 1.287493
vt 1.291893 0.952453
vt 0.031250 1.000000
vt 0.031250 0.594595
vt 0.197917 0.243243
vt 0.031250 1.000000
vt 0.197917 0.243243
vt 0.197917 0.810811
vt 1.006029 0.783591
vt 1.006029 0.095315
vt -0.064623 0.095315
vt 1.006029 0.783591
vt -0.064623 0.095315
vt -0.064623 0.783591
vt 0.229682 1.235554
vt 0.229682 0.138109
vt -0.200005 0.817480
vt 0.229682 1.235554
vt -0.200005 0.817480
vt -0.200005 1.601369
vt 0.714327 0.576013
vt 0.413421 0.576013
vt 0.413421 0.661028
vt 0.714327 0.576013
vt 0.413421 0.661028
vt 0.704924 0.658689
vt 0.140920 0.573169
vt 0.684425 0.535661
vt 1.913781 0.440188
vt 0.140920 0.573169
vt 1.913781 0.440188
vt -0.402683 0.441663
vt 0.140920 0.573169
vt -0.402683 0.441663
vt -0.402584 0.610676
vt 0.470703 -0.384831
vt -0.202278 -0.384831
vt -0.202278 0.948752
vt 0.470703 -0.384831
vt -0.202278 0.948752
vt 1.143684 0.948752
vt 0.470703 -0.384831
vt 1.143684 0.948752
vt 1.143684 0.284268
vt 0.401259 0.445946
vt 0.592665 0.278716
vt 0.189453 0.314453
vt 0.189453 0.314453
vt 0.291884 0.687500
vt 0.401259 0.445946
vt -0.157998 -0.164660
vt -0.157998 -0.489191
vt -0.705360 -0.489191
vt -0.157998 -0.164660
vt -0.705360 -0.489191
vt -0.705360 0.336889
vt -0.157998 -0.164660
vt -0.705360 0.336889
vt -0.568520 0.454900
vt 0.125000 0.148649
vt 0.031250 0.432432
vt 0.250000 0.594595
vt -1.075620 0.985938
vt -1.075620 -0.420508
vt -0.596071 -0.420508
vt -1.075620 0.985938
vt -0.596071 -0.420508
vt -0.596071 -0.068897
vt 0.750000 0.393581
vt 0.751953 0.251953
vt 0.640625 0.305743
vt 0.767499 0.996998
vt 0.041981 0.996998
vt 0.041981 -0.027403
vt 0.767499 0.996998
vt 0.041981 -0.027403
vt 0.871144 -0.027403
vt 0.767499 0.996998
vt 0.871144 -0.027403
vt 0.871144 0.484797
vt -0.306677 0.356509
vt -0.306677 1.368309
vt -0.651771 1.705576
vt -0.306677 0.356509
vt -0.651771 1.705576
vt -0.766802 1.336188
vt -0.306677 0.356509
vt -0.766802 1.336188
vt -0.766802 0.854379
vt -0.306677 0.356509
vt -0.766802 0.854379
vt -0.421708 0.228026
vt 1.706074 0.057876
vt 1.422256 0.057876
vt 1.422256 1.474013
vt 1.706074 0.057876
vt 1.422256 1.474013
vt 1.989891 1.474013
vt 1.706074 0.057876
vt 1.989891 1.474013
vt 1.989891 0.411910
vt 0.640625 0.305743
vt 0.626953 0.439453
vt 0.750000 0.393581
vt -0.715959 0.458521
vt -0.835846 0.985938
vt -1.075620 0.985938
vt -0.715959 0.458521
vt -1.075620 0.985938
vt -0.596071 -0.068897
vt 0.767698 0.642088
vt 0.381943 0.645277
vt -0.037357 0.642918
vt 0.767698 0.642088
vt -0.037357 0.642918
vt 0.050696 0.751466
vt 0.767698 0.642088
vt 0.050696 0.751466
vt 0.734154 0.739668
vt 0.214844 0.418919
vt 0.117188 0.594595
vt 0.062500 0.594595
vt 0.214844 0.418919
vt 0.062500 0.594595
vt 0.093750 0.371622
vt -0.316125 0.469467
vt 0.048783 0.859326
vt 0.859690 0.859326
vt -0.316125 0.469467
vt 0.859690 0.859326
vt 0.697509 0.079608
vt -0.316125 0.469467
vt 0.697509 0.079608
vt -0.518852 0.079608
vt 0.093750 0.371622
vt 0.189453 0.626953
vt 0.276042 0.594595
vt 0.093750 0.371622
vt 0.276042 0.594595
vt 0.214844 0.418919
vt 0.429687 0.512563
vt 0.917969 0.550781
vt 0.429688 0.585938
vt 0.687500 0.445946
vt 0.625000 0.594595
vt 0.625000 0.000000
vt 0.687500 0.445946
vt 0.625000 0.000000
vt 0.687500 0.148649
vt 1.801674 -0.420508
vt 2.760773 -0.420508
vt 2.760773 0.985938
vt 1.801674 -0.420508
vt 2.760773 0.985938
vt 1.801674 0.985938
vt 0.765625 0.418919
vt 0.625000 0.594595
vt 0.585938 0.539062
vt 0.939453 0.189453
vt 0.751953 0.126953
vt 0.751953 0.564453
vt 0.939453 0.189453
vt 0.751953 0.564453
vt 0.814453 0.564453
vt 0.939453 0.189453
vt 0.814453 0.564453
vt 0.939453 0.376953
vt 0.687500 0.445946
vt 0.750000 0.000000
vt 0.843750 0.371094
vt 0.687500 0.148649
vt 0.750000 0.000000
vt 0.687500 0.445946
vt 0.687500 0.148649
vt 0.625000 0.000000
vt 0.750000 0.000000
vt 0.625000 0.594595
vt 0.562500 0.441406
vt 0.765625 0.418919
vn 0.000000 1.000000 0.000000
vn 0.000000 1.000000 0.000000
vn 0.000000 1.000000 0.000000
vn 0.000000 1.000000 0.000000
vn 0.000000 1.000000 0.000000
vn 0.000000 1.000000 0.000000
vn 0.000000 0.000000 -1.000000
vn 0.000000 0.000000 -1.000000
vn 0.000000 0.000000 -1.000000
vn 0.000000 0.000000 -1.000000
vn 0.000000 0.000000 -1.000000
vn 0.000000 0.000000 -1.000000
vn 0.000000 0.000000 -1.000000
vn 0.000000 0.000000 -1.000000
vn 0.000000 0.000000 -1.000000
vn 0.000000 0.000000 -1.000000
vn 0.000000 0.000000 -1.000000
vn 0.000000 0.000000 -1.000000
vn 1.000000 0.000000 -0.000000
vn 1.000000 0.000000 -0.000000
vn 1.000000 0.000000 -0.000000
vn 1.000000 0.000000 -0.000000
vn 1.000000 0.000000 -0.000000
vn 1.000000 0.000000 -0.000000
vn 1.000000 0.000000 -0.000000
vn 1.000000 0.000000 -0.000000
vn 1.000000 0.000000 -0.000000
vn 1.000000 0.000000 0.000000
vn 1.000000 0.000000 0.000000
vn 1.000000 0.000000 0.000000
vn 1.000000 0.000000 0.000000
vn 1.000000 0.000000 0.000000
vn 1.000000 0.000000 0.000000
vn -0.707107 0.000000 0.707107
vn -0.707107 0.000000 0.707107
vn -0.707107 0.000000 0.707107
vn -0.707107 0.000000 0.707107
vn -0.707107 0.000000 0.707107
vn -0.707107 0.000000 0.707107
vn 0.000000 -0.000000 1.000000
vn 0.000000 -0.000000 1.000000
vn 0.000000 -0.000000 1.000000
vn 0.000000 -0.000000 1.000000
vn 0.000000 -0.000000 1.000000
vn 0.149236 -0.081401 0.985445
vn -0.707107 0.000000 0.707107
vn -0.707107 0.000000 0.707107
vn -0.707107 0.000000 0.707107
vn -0.707107 0.000000 0.707107
vn -0.707107 0.000000 0.707107
vn -0.707107 0.000000 0.707107
vn -0.707107 0.000000 0.707107
vn -0.707107 -0.000000 0.707107
vn -0.707107 0.000000 0.707107
vn 0.514496 -0.000000 0.857493
vn 0.514496 -0.000000 0.857493
vn 0.514496 -0.000000 0.857493
vn 0.514496 -0.000000 0.857493
vn 0.514496 -0.000000 0.857493
vn 0.514496 -0.000000 0.857493
vn -0.408248 0.816497 0.408248
vn -0.408248 0.816497 0.408248
vn -0.408248 0.816497 0.408248
vn -0.408248 0.816497 0.408248
vn -0.408248 0.816497 0.408248
vn -0.214187 0.953021 0.214187
vn -0.408248 0.816497 0.408248
vn -0.214187 0.953021 0.214187
vn -0.316680 0.948518 -0.005219
vn 0.536875 0.843661 -0.000000
vn 0.536875 0.843661 -0.000000
vn 0.536875 0.843661 -0.000000
vn 0.536875 0.843661 -0.000000
vn 0.536875 0.843661 -0.000000
vn 0.536875 0.843661 -0.000000
vn 0.337856 0.931011 -0.138105
vn 0.298168 0.954514 0.000000
vn 0.569210 0.822192 0.000000
vn 0.337856 0.931011 -0.138105
vn 0.569210 0.822192 0.000000
vn 0.646426 0.612497 -0.454952
vn 0.337856 0.931011 -0.138105
vn 0.646426 0.612497 -0.454952
vn 0.645320 0.682826 -0.342507
vn 0.981476 0.062939 0.180949
vn 0.926592 0.123546 0.355195
vn 0.981476 0.062939 0.180949
vn 0.645320 0.682826 -0.342507
vn 0.771704 0.548988 -0.321068
vn 0.606788 0.513436 -0.606788
vn 0.645320 0.682826 -0.342507
vn 0.606788 0.513436 -0.606788
vn 0.606788 0.513436 -0.606788
vn 0.138105 0.931011 -0.337856
vn 0.337856 0.931011 -0.138105
vn 0.645320 0.682826 -0.342507
vn 0.138105 0.931011 -0.337856
vn 0.645320 0.682826 -0.342507
vn 0.216670 0.688909 -0.691707
vn -1.000000 0.000000 0.000000
vn -1.000000 0.000000 0.000000
vn -1.000000 -0.000000 0.000000
vn -1.000000 0.000000 0.000000
vn -1.000000 -0.000000 0.000000
vn -0.894427 -0.000000 0.447214
vn -1.000000 0.000000 0.000000
vn -0.894427 -0.000000 0.447214
vn -1.000000 0.000000 0.000000
vn 0.009646 0.537867 -0.842974
vn -0.000000 0.700878 -0.713282
vn 0.216670 0.688909 -0.691707
vn -0.000000 0.954514 -0.298168
vn 0.138105 0.931011 -0.337856
vn 0.216670 0.688909 -0.691707
vn -0.000000 0.954514 -0.298168
vn 0.216670 0.688909 -0.691707
vn -0.000000 0.700878 -0.713282
vn -0.000000 0.954514 -0.298168
vn -0.000000 0.700878 -0.713282
vn -0.000000 0.830406 -0.557158
vn -0.000000 0.954514 -0.298168
vn -0.000000 0.830406 -0.557158
vn -0.000000 0.830406 -0.557158
vn 0.216670 0.688909 -0.691707
vn 0.330249 0.545533 -0.770279
vn 0.019288 0.520768 -0.853481
vn 0.216670 0.688909 -0.691707
vn 0.019288 0.520768 -0.853481
vn 0.009646 0.537867 -0.842974
vn 0.602213 0.370593 -0.707107
vn 0.771704 0.548988 -0.321068
vn 0.645320 0.682826 -0.342507
vn 0.602213 0.370593 -0.707107
vn 0.645320 0.682826 -0.342507
vn 0.646426 0.612497 -0.454952
vn 0.016917 0.844237 -0.535704
vn 0.016917 0.844237 -0.535704
vn 0.016917 0.844237 -0.535704
vn 0.016917 0.844237 -0.535704
vn 0.016917 0.844237 -0.535704
vn 0.016917 0.844237 -0.535704
vn 0.016917 0.844237 -0.535704
vn 0.016917 0.844237 -0.535704
vn 0.016917 0.844237 -0.535704
vn 0.000000 0.000000 1.000000
vn 0.000000 0.000000 1.000000
vn 0.000000 0.000000 1.000000
vn 0.000000 0.000000 1.000000
vn 0.000000 0.000000 1.000000
vn 0.000000 0.000000 1.000000
vn -1.000000 -0.000000 0.000000
vn -1.000000 -0.000000 0.000000
vn -1.000000 -0.000000 0.000000
vn -1.000000 -0.000000 0.000000
vn -1.000000 -0.000000 0.000000
vn -1.000000 -0.000000 0.000000
vn 0.000000 0.000000 -1.000000
vn 0.000000 0.000000 -1.000000
vn 0.000000 0.000000 -1.000000
vn 0.000000 0.000000 -1.000000
vn 0.000000 0.000000 -1.000000
vn 0.000000 0.000000 -1.000000
vn 0.000000 1.000000 0.000000
vn 0.000000 1.000000 0.000000
vn 0.000000 1.000000 0.000000
vn 0.000000 1.000000 0.000000
vn 0.000000 1.000000 0.000000
vn 0.000000 1.000000 0.000000
vn 0.000000 1.000000 0.000000
vn 0.000000 1.000000 0.000000
vn 0.000000 1.000000 0.000000
vn 0.000000 1.000000 0.000000
vn 0.000000 1.000000 0.000000
vn 0.000000 1.000000 0.000000
vn 0.000000 1.000000 0.000000
vn 0.000000 1.000000 0.000000
vn 0.000000 1.000000 0.000000
vn -0.831010 -0.452401 -0.323659
vn -1.000000 -0.000000 -0.000000
vn -1.000000 -0.000000 -0.000000
vn -0.831010 -0.452401 -0.323659
vn -1.000000 -0.000000 -0.000000
vn -1.000000 -0.000000 -0.000000
vn -0.831010 -0.452401 -0.323659
vn -1.000000 -0.000000 -0.000000
vn -0.940123 -0.251248 -0.230311
vn -0.638943 -0.625630 -0.447592
vn -0.484500 -0.753666 -0.444125
vn -0.831010 -0.452401 -0.323659
vn -0.831010 -0.452401 -0.323659
vn -0.940123 -0.251248 -0.230311
vn -0.638943 -0.625630 -0.447592
vn -0.857493 0.000000 -0.514496
vn -0.857493 0.000000 -0.514496
vn -0.857493 0.000000 -0.514496
vn -0.857493 0.000000 -0.514496
vn -0.857493 0.000000 -0.514496
vn -0.857493 0.000000 -0.514496
vn -0.857493 0.000000 -0.514496
vn -0.857493 0.000000 -0.514496
vn -0.857493 0.000000 -0.514496
vn -0.364932 0.432511 -0.824475
vn -0.364932 0.432511 -0.824475
vn -0.364932 0.432511 -0.824475
vn -0.707107 -0.000000 0.707107
vn -0.707107 -0.000000 0.707107
vn -0.707107 -0.000000 0.707107
vn -0.707107 -0.000000 0.707107
vn -0.707107 -0.000000 0.707107
vn -0.707107 -0.000000 0.707107
vn 0.000000 0.838444 -0.544988
vn -0.000000 0.830406 -0.557158
vn -0.000000 0.830406 -0.557158
vn 0.000000 0.000000 1.000000
vn 0.000000 0.000000 1.000000
vn -0.894427 -0.000000 0.447214
vn 0.000000 0.000000 1.000000
vn -0.894427 -0.000000 0.447214
vn 0.000000 -0.000000 1.000000
vn 0.000000 0.000000 1.000000
vn 0.000000 -0.000000 1.000000
vn 0.000000 0.000000 1.000000
vn 1.000000 -0.000000 -0.000000
vn 1.000000 -0.000000 -0.000000
vn 0.981476 0.062939 0.180949
vn 1.000000 -0.000000 -0.000000
vn 0.981476 0.062939 0.180949
vn 0.981476 0.062939 0.180949
vn 1.000000 -0.000000 -0.000000
vn 0.981476 0.062939 0.180949
vn 1.000000 0.000000 -0.000000
vn 1.000000 -0.000000 -0.000000
vn 1.000000 0.000000 -0.000000
vn 1.000000 0.000000 -0.000000
vn 0.000000 0.000000 -1.000000
vn 0.000000 0.000000 -1.000000
vn 0.000000 0.000000 -1.000000
vn 0.000000 0.000000 -1.000000
vn 0.000000 0.000000 -1.000000
vn 0.000000 0.000000 -1.000000
vn 0.000000 0.000000 -1.000000
vn 0.000000 0.000000 -1.000000
vn 0.000000 0.000000 -1.000000
vn 0.686398 -0.686398 -0.240239
vn 0.686398 -0.686398 -0.240239
vn 0.686398 -0.686398 -0.240239
vn -0.707107 0.000000 0.707107
vn -0.707107 0.000000 0.707107
vn -0.707107 -0.000000 0.707107
vn -0.707107 0.000000 0.707107
vn -0.707107 -0.000000 0.707107
vn -0.707107 -0.000000 0.707107
vn -0.316680 0.948518 -0.005219
vn -0.214187 0.953021 0.214187
vn 0.000000 1.000000 0.000000
vn -0.316680 0.948518 -0.005219
vn 0.000000 1.000000 0.000000
vn 0.000000 1.000000 0.000000
vn -0.316680 0.948518 -0.005219
vn 0.000000 1.000000 0.000000
vn -0.243237 0.943782 -0.223856
vn 0.367132 0.249306 0.896137
vn 0.367132 0.249306 0.896137
vn 0.367132 0.249306 0.896137
vn 0.367132 0.249306 0.896137
vn 0.367132 0.249306 0.896137
vn 0.367132 0.249306 0.896137
vn 0.606788 0.513436 -0.606788
vn 0.606788 0.513436 -0.606788
vn 0.330249 0.545533 -0.770279
vn 0.606788 0.513436 -0.606788
vn 0.330249 0.545533 -0.770279
vn 0.216670 0.688909 -0.691707
vn 0.606788 0.513436 -0.606788
vn 0.216670 0.688909 -0.691707
vn 0.645320 0.682826 -0.342507
vn -0.459125 0.781449 -0.422542
vn -0.316680 0.948518 -0.005219
vn -0.243237 0.943782 -0.223856
vn -0.459125 0.781449 -0.422542
vn -0.243237 0.943782 -0.223856
vn -0.459125 0.781449 -0.422542
vn -0.707107 -0.000000 0.707107
vn 0.000000 -0.000000 1.000000
vn -0.894427 -0.000000 0.447214
vn 0.000000 -0.000000 1.000000
vn 0.000000 -0.000000 1.000000
vn 0.149236 -0.081401 0.985445
vn 0.000000 -0.000000 1.000000
vn 0.149236 -0.081401 0.985445
vn 0.403725 -0.083811 0.911034
vn 0.000000 -0.000000 1.000000
vn 0.000000 -0.000000 1.000000
vn 0.000000 -0.000000 1.000000
vn 0.000000 -0.000000 1.000000
vn 0.000000 -0.000000 1.000000
vn -0.707107 -0.000000 0.707107
vn 0.879226 0.421626 0.221797
vn 0.759257 0.650791 0.000000
vn 0.814601 0.564361 0.133868
vn -1.000000 -0.000000 0.000000
vn -1.000000 -0.000000 0.000000
vn -0.707107 -0.000000 0.707107
vn -1.000000 -0.000000 0.000000
vn -0.707107 -0.000000 0.707107
vn -0.894427 -0.000000 0.447214
vn -1.000000 -0.000000 0.000000
vn -0.894427 -0.000000 0.447214
vn -1.000000 -0.000000 0.000000
vn 0.861792 0.195457 0.468093
vn 0.726018 -0.048301 0.685978
vn 0.879226 0.421626 0.221797
vn 0.403725 -0.083811 0.911034
vn 0.726018 -0.048301 0.685978
vn 0.861792 0.195457 0.468093
vn 0.403725 -0.083811 0.911034
vn 0.149236 -0.081401 0.985445
vn 0.726018 -0.048301 0.685978
vn 0.814601 0.564361 0.133868
vn 0.861792 0.195457 0.468093
vn 0.879226 0.421626 0.221797
f 51/1/1 9/2/2 6/3/3
f 51/4/4 6/5/5 52/6/6
f 40/7/7 14/8/8 8/9/9
f 40/10/10 8/11/11 2/12/12
f 39/13/13 7/14/14 14/15/15
f 39/16/16 14/17/17 40/18/18
f 11/19/19 12/20/20 1/21/21
f 1/22/22 46/23/23 13/24/24
f 1/25/25 13/26/26 11/27/27
f 34/28/28 27/29/29 14/30/30
f 34/31/31 14/32/32 37/33/33
f 18/34/34 19/35/35 16/36/36
f 18/37/37 16/38/38 15/39/39
f 57/40/40 10/41/41 4/42/42
f 57/43/43 4/44/44 59/45/45
f 20/46/46 4/47/47 10/48/48
f 20/49/49 10/50/50 22/51/51
f 53/52/52 21/53/53 42/54/54
f 20/55/55 22/56/56 18/57/57
f 20/58/58 18/59/59 15/60/60
f 43/61/61 19/62/62 18/63/63
f 43/64/64 18/65/65 22/66/66
f 43/67/67 22/68/68 42/69/69
f 37/70/70 33/71/71 32/72/72
f 37/73/73 32/74/74 34/75/75
f 25/76/76 8/77/77 14/78/78
f 25/79/79 14/80/80 27/81/81
f 25/82/82 27/83/83 26/84/84
f 36/85/85 45/86/86 44/87/87
f 26/88/88 9/89/89 51/90/90
f 26/91/91 51/92/92 49/93/93
f 23/94/94 25/95/95 26/96/96
f 23/97/97 26/98/98 24/99/99
f 35/100/100 30/101/101 54/102/102
f 35/103/103 54/104/104 29/105/105
f 35/106/106 29/107/107 38/108/108
f 54/109/109 30/110/110 24/111/111
f 12/112/112 23/113/113 24/114/114
f 12/115/115 24/116/116 30/117/117
f 12/118/118 30/119/119 48/120/120
f 12/121/121 48/122/122 1/123/123
f 24/124/124 5/125/125 55/126/126
f 24/127/127 55/128/128 54/129/129
f 63/130/130 9/131/131 26/132/132
f 63/133/133 26/134/134 27/135/135
f 35/136/136 38/137/137 45/138/138
f 35/139/139 45/140/140 36/141/141
f 35/142/142 36/143/143 31/144/144
f 32/145/145 28/146/146 27/147/147
f 32/148/148 27/149/149 34/150/150
f 32/151/151 33/152/152 7/153/153
f 32/154/154 7/155/155 28/156/156
f 37/157/157 14/158/158 7/159/159
f 37/160/160 7/161/161 33/162/162
f 55/163/163 5/164/164 10/165/165
f 55/166/166 10/167/167 57/168/168
f 63/169/169 28/170/170 7/171/171
f 63/172/172 7/173/173 6/174/174
f 63/175/175 6/176/176 9/177/177
f 41/178/178 3/179/179 6/180/180
f 41/181/181 6/182/182 7/183/183
f 41/184/184 7/185/185 39/186/186
f 40/187/187 2/188/188 41/189/189
f 41/190/190 39/191/191 40/192/192
f 21/193/193 17/194/194 16/195/195
f 21/196/196 16/197/197 19/198/198
f 21/199/199 19/200/200 43/201/201
f 21/202/202 43/203/203 42/204/204
f 6/205/205 3/206/206 17/207/207
f 6/208/208 17/209/209 21/210/210
f 46/211/211 1/212/212 48/213/213
f 45/214/214 38/215/215 29/216/216
f 45/217/217 29/218/218 13/219/219
f 45/220/220 13/221/221 44/222/222
f 47/223/223 31/224/224 36/225/225
f 47/226/226 36/227/227 44/228/228
f 47/229/229 44/230/230 13/231/231
f 47/232/232 13/233/233 46/234/234
f 48/235/235 30/236/236 35/237/237
f 48/238/238 35/239/239 31/240/240
f 48/241/241 31/242/242 47/243/243
f 48/244/244 47/245/245 46/246/246
f 53/247/247 52/248/248 6/249/249
f 53/250/250 6/251/251 21/252/252
f 42/253/253 22/254/254 10/255/255
f 42/256/256 10/257/257 5/258/258
f 42/259/259 5/260/260 50/261/261
f 49/262/262 51/263/263 52/264/264
f 49/265/265 52/266/266 53/267/267
f 49/268/268 50/269/269 5/270/270
f 49/271/271 5/272/272 24/273/273
f 49/274/274 24/275/275 26/276/276
f 53/277/277 42/278/278 50/279/279
f 53/280/280 50/281/281 49/282/282
f 56/283/283 13/284/284 29/285/285
f 61/286/286 57/287/287 59/288/288
f 61/289/289 59/290/290 60/291/291
f 58/292/292 11/293/293 13/294/294
f 58/295/295 13/296/296 56/297/297
f 54/298/298 55/299/299 57/300/300
f 62/301/301 58/302/302 56/303/303
f 62/304/304 56/305/305 29/306/306
f 62/307/307 29/308/308 54/309/309
f 61/310/310 62/311/311 54/312/312
f 60/313/313 62/314/314 61/315/315
f 60/316/316 59/317/317 62/318/318
f 57/319/319 61/320/320 54/321/321
