v -38.000000 44.000000 -20.000002
v 0.999998 37.000000 -56.000004
v 29.000000 30.000000 -20.000002
v 40.000000 37.000000 -20.000002
v 3.999998 37.000000 -56.000004
v 40.000004 37.000000 -8.000003
v 29.000004 30.000000 -8.000003
v -0.000001 30.000000 -45.000000
v -0.000002 37.000000 -56.000000
v -0.000001 44.000000 -55.999996
v -29.000000 37.000000 -24.000002
v -0.000001 37.000000 -45.000000
v -8.999998 33.500000 -45.999996
v 29.000004 37.000000 -8.000003
v 1.999998 37.000000 -45.000000
v 38.000004 44.000000 -8.000003
v 33.750004 40.500000 -16.875002
v 29.000000 37.000000 -16.000002
v 38.000000 44.000000 -14.000002
v -6.000000 37.000000 -56.000000
v -4.000000 30.000000 -45.000000
v 3.999999 30.000000 -45.000000
v -6.000000 40.000000 -56.000000
v -12.000000 37.000000 -52.999996
v -0.999999 37.000000 -56.000004
v -29.000000 30.000000 -20.000002
v -40.000000 37.000000 -20.000002
v -3.999999 37.000000 -56.000000
v -40.000004 37.000000 -8.000002
v -29.000000 30.000000 -8.000002
v -4.000001 44.000000 -56.000000
v -10.500000 33.500000 -48.999996
v -29.000000 37.000000 -8.000002
v -8.999998 37.000000 -45.000000
v -38.000004 44.000000 -8.000003
v -33.750004 40.500000 -24.875000
vt 0.014337 0.828313
vt -0.016381 0.468699
vt 0.947115 0.468699
vt 0.014337 0.828313
vt 0.947115 0.468699
vt 0.917969 1.191406
vt 0.014337 0.828313
vt 0.917969 1.191406
vt 0.261719 1.191406
vt 0.422051 0.250000
vt 0.343470 0.250000
vt 0.575440 0.000000
vt 0.000000 0.500000
vt 0.206197 0.500000
vt 0.078239 0.750000
vt 0.502497 1.172757
vt 1.404027 1.167696
vt 1.360050 0.540221
vt 1.336034 0.986630
vt 0.476981 0.990456
vt 0.466505 0.512171
vt 1.336034 0.986630
vt 0.466505 0.512171
vt 0.901270 0.510258
vt 1.360050 0.540221
vt 1.426016 -0.117615
vt 0.623434 -0.102434
vt 1.360050 0.540221
vt 0.623434 -0.102434
vt 0.575440 0.000000
vt 0.070142 0.635504
vt 0.206197 0.500000
vt 0.000000 0.500000
vt 0.295973 1.259557
vt 0.755191 0.489561
vt 0.683788 -0.335931
vt 0.295973 1.259557
vt 0.683788 -0.335931
vt 0.062720 0.461813
vt 0.410156 1.187500
vt 1.136719 1.191406
vt 1.138504 0.468699
vt 0.410156 1.187500
vt 1.138504 0.468699
vt 0.409538 0.468699
vt 0.246094 0.710938
vt 0.057303 1.000000
vt 0.000000 0.500000
vt 0.304785 -0.250528
vt 0.947115 -0.250528
vt 0.947115 0.468699
vt 0.304785 -0.250528
vt 0.947115 0.468699
vt -0.016381 0.468699
vt 0.393072 0.547481
vt 0.343470 0.250000
vt 0.253021 0.500000
vt 0.261719 1.191406
vt 0.917969 1.191406
vt 0.947115 0.468699
vt 0.261719 1.191406
vt 0.947115 0.468699
vt -0.016381 0.468699
vt 0.261719 1.191406
vt -0.016381 0.468699
vt 0.014337 0.828313
vt -0.177346 0.749400
vt 0.476981 0.990456
vt 0.466505 0.512171
vt -0.177346 0.749400
vt 0.466505 0.512171
vt -0.172547 0.515997
vt 0.078239 0.750000
vt 0.206197 0.500000
vt 0.000000 0.500000
vt -0.234120 0.519980
vt 1.360050 0.540221
vt 1.404027 1.167696
vt -0.234120 0.519980
vt 1.404027 1.167696
vt 0.502497 1.172757
vt 1.336034 0.508345
vt 0.901270 0.510258
vt 0.466505 0.512171
vt 1.336034 0.508345
vt 0.466505 0.512171
vt 0.476981 0.990456
vt 1.336034 0.508345
vt 0.476981 0.990456
vt 1.336034 0.986630
vt 0.433919 0.500000
vt 0.422051 0.250000
vt 0.575440 0.000000
vt 0.194657 -0.102434
vt 0.623434 -0.102434
vt 1.426016 -0.117615
vt 0.194657 -0.102434
vt 1.426016 -0.117615
vt 1.360050 0.540221
vt 0.000000 0.500000
vt 0.206197 0.500000
vt 0.070142 0.635504
vt 0.062720 0.461813
vt 0.683788 -0.335931
vt 0.755191 0.489561
vt 0.062720 0.461813
vt 0.755191 0.489561
vt 0.295973 1.259557
vt 0.409538 0.468699
vt 1.138504 0.468699
vt 1.136719 1.191406
vt 0.409538 0.468699
vt 1.136719 1.191406
vt 0.410156 1.187500
vt 0.000000 0.500000
vt 0.057303 1.000000
vt 0.246094 0.710938
vt -0.091118 -0.019521
vt -0.609892 0.270895
vt -0.739586 0.542871
vt -0.091118 -0.019521
vt -0.739586 0.542871
vt -0.151641 0.542871
vt -0.091118 -0.019521
vt -0.151641 0.542871
vt 0.393072 0.547481
vt -0.016381 0.468699
vt 0.947115 0.468699
vt 0.947115 -0.250528
vt -0.016381 0.468699
vt 0.947115 -0.250528
vt 0.304785 -0.250528
vt 0.433919 0.500000
vt 0.602775 1.000000
vt 0.427898 0.750000
vt 0.527344 0.550781
vt 0.433919 0.500000
vt 0.427898 0.750000
vt 0.433919 0.500000
vt 0.335938 0.675781
vt 0.253021 0.500000
vt 0.253021 0.500000
vt 0.343470 0.250000
vt 0.422051 0.250000
vt 0.253021 0.500000
vt 0.422051 0.250000
vt 0.433919 0.500000
vt 1.360050 0.540221
vt 0.602775 1.000000
vt 0.502497 1.172757
vn -0.377013 0.649760 -0.660055
vn -0.897935 0.440095 -0.005371
vn -0.897935 0.440095 -0.005371
vn -0.377013 0.649760 -0.660055
vn -0.897935 0.440095 -0.005371
vn -0.612575 0.790353 -0.009647
vn -0.377013 0.649760 -0.660055
vn -0.612575 0.790353 -0.009647
vn -0.360511 0.821978 -0.440889
vn -0.704149 -0.394090 0.590650
vn -0.715207 -0.696453 0.058574
vn -0.405625 -0.679771 0.611049
vn -0.223615 0.460669 -0.858942
vn -0.319969 0.351244 -0.879913
vn -0.377013 0.649760 -0.660055
vn 0.324413 0.823644 0.465153
vn -0.000000 0.481209 0.876606
vn 0.591510 0.525819 0.611253
vn -0.000000 0.000001 -1.000000
vn -0.000001 0.000001 -1.000000
vn -0.000001 0.000001 -1.000000
vn -0.000000 0.000001 -1.000000
vn -0.000001 0.000001 -1.000000
vn -0.000000 0.000001 -1.000000
vn 0.591510 0.525819 0.611253
vn -0.000000 0.481209 0.876606
vn 0.000000 0.000000 1.000000
vn 0.591510 0.525819 0.611253
vn 0.000000 0.000000 1.000000
vn 0.000000 0.000000 1.000000
vn -0.301075 0.473118 -0.827957
vn -0.319969 0.351244 -0.879913
vn -0.223615 0.460669 -0.858942
vn 0.000000 0.000000 1.000000
vn 0.000000 0.000000 1.000000
vn 0.000000 0.000000 1.000000
vn 0.000000 0.000000 1.000000
vn 0.000000 0.000000 1.000000
vn 0.000000 0.000000 1.000000
vn 0.961524 0.274721 -0.000000
vn 0.961524 0.274721 -0.000000
vn 0.961524 0.274721 -0.000000
vn 0.961524 0.274721 -0.000000
vn 0.961524 0.274721 -0.000000
vn 0.961524 0.274721 -0.000000
vn -0.377013 0.649760 -0.660055
vn -0.360511 0.821978 -0.440889
vn -0.223615 0.460669 -0.858942
vn -1.000000 -0.000000 0.000000
vn -1.000000 -0.000000 0.000000
vn -0.897935 0.440095 -0.005371
vn -1.000000 -0.000000 0.000000
vn -0.897935 0.440095 -0.005371
vn -0.897935 0.440095 -0.005371
vn 0.908826 0.383056 0.165241
vn 0.591510 0.525819 0.611253
vn 0.947159 0.270617 0.172211
vn 0.612558 0.790410 -0.004960
vn 0.612558 0.790410 -0.004960
vn 0.897931 0.440129 -0.002762
vn 0.612558 0.790410 -0.004960
vn 0.897931 0.440129 -0.002762
vn 0.897931 0.440129 -0.002762
vn 0.612558 0.790410 -0.004960
vn 0.897931 0.440129 -0.002762
vn 0.612558 0.790410 -0.004960
vn 0.000000 0.000000 -1.000000
vn 0.000000 0.000000 -1.000000
vn -0.057250 -0.310787 -0.948754
vn 0.000000 0.000000 -1.000000
vn -0.057250 -0.310787 -0.948754
vn -0.087307 -0.473951 -0.876212
vn -0.524778 -0.211405 -0.824570
vn -0.291102 -0.523841 -0.800531
vn -0.679153 -0.178285 -0.712015
vn -0.408809 0.175511 0.895584
vn -0.000000 0.481209 0.876606
vn 0.324413 0.823644 0.465153
vn -0.408809 0.175511 0.895584
vn 0.324413 0.823644 0.465153
vn -0.000000 0.843661 0.536876
vn -0.000000 0.000001 -1.000000
vn 0.000000 0.000001 -1.000000
vn -0.057250 -0.310787 -0.948754
vn -0.000000 0.000001 -1.000000
vn -0.057250 -0.310787 -0.948754
vn 0.000000 0.000000 -1.000000
vn -0.000000 0.000001 -1.000000
vn 0.000000 0.000000 -1.000000
vn -0.000000 0.000001 -1.000000
vn -0.408809 0.175511 0.895584
vn -0.704149 -0.394090 0.590650
vn -0.405625 -0.679771 0.611049
vn -0.405625 -0.679771 0.611049
vn 0.000000 0.000000 1.000000
vn -0.000000 0.481209 0.876606
vn -0.405625 -0.679771 0.611049
vn -0.000000 0.481209 0.876606
vn -0.408809 0.175511 0.895584
vn -0.679153 -0.178285 -0.712015
vn -0.291102 -0.523841 -0.800531
vn -0.301075 -0.473118 -0.827957
vn 0.000000 0.000000 1.000000
vn 0.000000 0.000000 1.000000
vn 0.000000 0.000000 1.000000
vn 0.000000 0.000000 1.000000
vn 0.000000 0.000000 1.000000
vn 0.000000 0.000000 1.000000
vn -0.679153 -0.178285 -0.712015
vn -0.961524 0.274721 -0.000000
vn -0.961524 0.274721 -0.000000
vn -0.679153 -0.178285 -0.712015
vn -0.961524 0.274721 -0.000000
vn -0.885091 0.252883 -0.390722
vn -0.679153 -0.178285 -0.712015
vn -0.885091 0.252883 -0.390722
vn -0.524778 -0.211405 -0.824570
vn -0.405625 -0.679771 0.611049
vn -0.715207 -0.696453 0.058574
vn -0.152999 -0.830564 -0.535495
vn -0.405625 -0.679771 0.611049
vn -0.152999 -0.830564 -0.535495
vn -0.087307 -0.473951 -0.876212
vn -0.405625 -0.679771 0.611049
vn -0.087307 -0.473951 -0.876212
vn -0.057250 -0.310787 -0.948754
vn 0.897931 0.440129 -0.002762
vn 0.897931 0.440129 -0.002762
vn 1.000000 0.000000 0.000000
vn 0.897931 0.440129 -0.002762
vn 1.000000 0.000000 0.000000
vn 1.000000 0.000000 0.000000
vn -0.953279 0.228425 -0.197687
vn -0.887848 0.443924 -0.121070
vn -0.953279 0.228425 -0.197687
vn -0.953279 0.228425 -0.197687
vn -0.964764 0.000000 -0.263117
vn -0.953279 0.228425 -0.197687
vn 0.000000 1.000000 0.000000
vn 0.000000 1.000000 0.000000
vn 0.000000 1.000000 0.000000
vn -0.924946 -0.036036 0.378387
vn -0.715207 -0.696453 0.058574
vn -0.704149 -0.394090 0.590650
vn -0.924946 -0.036036 0.378387
vn -0.704149 -0.394090 0.590650
vn -0.408809 0.175511 0.895584
vn 0.591510 0.525819 0.611253
vn 0.908826 0.383056 0.165241
vn 0.324413 0.823644 0.465153
f 17/1/1 18/2/2 14/3/3
f 17/4/4 14/5/5 16/6/6
f 17/7/7 16/8/8 19/9/9
f 13/10/10 32/11/11 21/12/12
f 4/13/13 18/14/14 17/15/15
f 10/16/16 12/17/17 15/18/18
f 10/19/19 5/20/20 2/21/21
f 10/22/22 2/23/23 9/24/24
f 15/25/25 12/26/26 8/27/27
f 15/28/28 8/29/29 22/30/30
f 3/31/31 18/32/32 4/33/33
f 16/34/34 14/35/35 7/36/36
f 16/37/37 7/38/38 6/39/39
f 19/40/40 16/41/41 6/42/42
f 19/43/43 6/44/44 4/45/45
f 17/46/46 19/47/47 4/48/48
f 3/49/49 7/50/50 14/51/51
f 3/52/52 14/53/53 18/54/54
f 5/55/55 15/56/56 22/57/57
f 1/58/58 35/59/59 33/60/60
f 1/61/61 33/62/62 11/63/63
f 1/64/64 11/65/65 36/66/66
f 23/67/67 31/68/68 28/69/69
f 23/70/70 28/71/71 20/72/72
f 36/73/73 11/74/74 27/75/75
f 34/76/76 12/77/77 10/78/78
f 34/79/79 10/80/80 31/81/81
f 9/82/82 25/83/83 28/84/84
f 9/85/85 28/86/86 31/87/87
f 9/88/88 31/89/89 10/90/90
f 34/91/91 13/92/92 21/93/93
f 21/94/94 8/95/95 12/96/96
f 21/97/97 12/98/98 34/99/99
f 27/100/100 11/101/101 26/102/102
f 29/103/103 30/104/104 33/105/105
f 29/106/106 33/107/107 35/108/108
f 27/109/109 29/110/110 35/111/111
f 27/112/112 35/113/113 1/114/114
f 27/115/115 1/116/116 36/117/117
f 21/118/118 32/119/119 24/120/120
f 21/121/121 24/122/122 20/123/123
f 21/124/124 20/125/125 28/126/126
f 11/127/127 33/128/128 30/129/129
f 11/130/130 30/131/131 26/132/132
f 34/133/133 31/134/134 23/135/135
f 23/136/136 20/137/137 34/138/138
f 34/139/139 20/140/140 24/141/141
f 24/142/142 32/143/143 13/144/144
f 24/145/145 13/146/146 34/147/147
f 15/148/148 5/149/149 10/150/150
