v -11.313713 0.000000 11.313702
v -19.798992 27.000000 8.485271
v -16.970564 0.000000 5.656845
v -16.970570 32.937500 16.970554
v -16.970564 35.000000 5.656845
v -22.627422 35.000000 11.313697
v -11.313713 35.000000 11.313702
v -19.798992 0.000000 8.485271
v -19.798996 0.000000 14.142125
v -22.627422 31.000000 11.313697
v -19.798996 27.000000 14.142125
v -16.970570 5.500000 16.970554
v -19.798996 3.500000 14.142125
v -15.556355 35.000000 15.556341
v -18.384783 35.000000 15.556339
vt -0.056986 -0.686744
vt 0.998445 -0.686744
vt 0.998445 1.868878
vt -0.056986 -0.686744
vt 0.998445 1.868878
vt -0.056986 1.868878
vt 0.500000 0.698312
vt 0.000000 1.198466
vt 0.000000 1.698620
vt 0.500000 0.698312
vt 0.000000 1.698620
vt 1.000000 1.698620
vt 0.500000 0.698312
vt 1.000000 1.698620
vt 1.000000 -1.052226
vt 0.500000 0.698312
vt 1.000000 -1.052226
vt 0.500000 -1.052226
vt 0.376953 0.376953
vt 0.376953 0.626953
vt 0.564453 0.501953
vt 1.000000 1.000000
vt 0.998047 0.251953
vt 0.751953 0.001953
vt 1.000000 1.000000
vt 0.751953 0.001953
vt 0.000000 0.001953
vt 1.000000 1.000000
vt 0.000000 0.001953
vt 0.001953 1.000000
vt 0.511029 0.678507
vt 1.136029 0.894416
vt 1.136029 0.678507
vt 1.136029 0.678507
vt 1.136029 -0.077175
vt 0.511029 -0.077175
vt 1.136029 0.678507
vt 0.511029 -0.077175
vt 0.511029 0.111746
vt 1.136029 0.678507
vt 0.511029 0.111746
vt 0.511029 0.678507
vt 0.823529 0.486746
vt 0.198529 0.297825
vt 0.198529 0.594700
vt 0.511029 0.111746
vt 0.511029 -0.077175
vt -0.113971 -0.077175
vt 0.206872 1.868878
vt 0.998445 1.868878
vt 0.998445 1.404220
vt 0.206872 1.868878
vt 0.998445 1.404220
vt 0.470730 0.939561
vt 0.206872 1.868878
vt 0.470730 0.939561
vt 0.470730 -0.280168
vt 0.206872 1.868878
vt 0.470730 -0.280168
vt -0.056986 -0.047838
vt 0.206872 1.868878
vt -0.056986 -0.047838
vt -0.056986 1.629289
vt 0.000000 1.440728
vt 0.000000 -0.364514
vt 1.000000 -1.052226
vt 0.000000 1.440728
vt 1.000000 -1.052226
vt 1.000000 1.698620
vt 0.000000 1.440728
vt 1.000000 1.698620
vt 0.250000 1.698620
vn 0.707107 0.000000 -0.707106
vn 0.707107 0.000000 -0.707106
vn 0.707107 0.000000 -0.707106
vn 0.707107 0.000000 -0.707106
vn 0.707107 0.000000 -0.707106
vn 0.707107 0.000000 -0.707106
vn -0.707106 0.000000 -0.707107
vn -0.707106 0.000000 -0.707107
vn -0.707106 0.000000 -0.707107
vn -0.707106 0.000000 -0.707107
vn -0.707106 0.000000 -0.707107
vn -0.707106 0.000000 -0.707107
vn -0.707106 0.000000 -0.707107
vn -0.707106 0.000000 -0.707107
vn -0.707106 0.000000 -0.707107
vn -0.707106 0.000000 -0.707107
vn -0.707106 0.000000 -0.707107
vn -0.707106 0.000000 -0.707107
vn -0.000000 0.565509 0.824742
vn -0.000000 0.565509 0.824742
vn -0.000000 0.565509 0.824742
vn 0.000000 1.000000 0.000000
vn 0.000000 1.000000 0.000000
vn 0.000000 1.000000 0.000000
vn 0.000000 1.000000 0.000000
vn 0.000000 1.000000 0.000000
vn 0.000000 1.000000 0.000000
vn 0.000000 1.000000 0.000000
vn 0.000000 1.000000 0.000000
vn 0.000000 1.000000 0.000000
vn -0.816497 -0.577350 -0.000000
vn -0.816497 -0.577350 -0.000000
vn -0.816497 -0.577350 -0.000000
vn -1.000000 0.000000 -0.000000
vn -1.000000 0.000000 -0.000000
vn -1.000000 0.000000 -0.000000
vn -1.000000 0.000000 -0.000000
vn -1.000000 0.000000 -0.000000
vn -1.000000 0.000000 -0.000000
vn -1.000000 0.000000 -0.000000
vn -1.000000 0.000000 -0.000000
vn -1.000000 0.000000 -0.000000
vn -0.101016 -0.761905 0.639763
vn -0.101016 -0.761905 0.639763
vn -0.101016 -0.761905 0.639763
vn 0.316227 0.000000 0.948683
vn 0.316227 0.000000 0.948683
vn 0.316227 0.000000 0.948683
vn -0.707107 0.000000 0.707106
vn -0.707107 0.000000 0.707106
vn -0.707107 0.000000 0.707106
vn -0.707107 0.000000 0.707106
vn -0.707107 0.000000 0.707106
vn -0.707107 0.000000 0.707106
vn -0.707107 0.000000 0.707106
vn -0.707107 0.000000 0.707106
vn -0.707107 0.000000 0.707106
vn -0.707107 0.000000 0.707106
vn -0.707107 0.000000 0.707106
vn -0.707107 0.000000 0.707106
vn -0.707107 0.000000 0.707106
vn -0.707107 0.000000 0.707106
vn -0.707107 0.000000 0.707106
vn 0.707106 0.000000 0.707107
vn 0.707106 0.000000 0.707107
vn 0.707106 0.000000 0.707107
vn 0.707106 0.000000 0.707107
vn 0.707106 0.000000 0.707107
vn 0.707106 0.000000 0.707107
vn 0.707106 0.000000 0.707107
vn 0.707106 0.000000 0.707107
vn 0.707106 0.000000 0.707107
f 1/1/1 3/2/2 5/3/3
f 1/4/4 5/5/5 7/6/6
f 2/7/7 10/8/8 6/9/9
f 2/10/10 6/11/11 5/12/12
f 2/13/13 5/14/14 3/15/15
f 2/16/16 3/17/17 8/18/18
f 4/19/19 14/20/20 15/21/21
f 6/22/22 15/23/23 14/24/24
f 6/25/25 14/26/26 7/27/27
f 6/28/28 7/29/29 5/30/30
f 11/31/31 10/32/32 2/33/33
f 2/34/34 8/35/35 9/36/36
f 2/37/37 9/38/38 13/39/39
f 2/40/40 13/41/41 11/42/42
f 1/43/43 12/44/44 13/45/45
f 13/46/46 9/47/47 1/48/48
f 15/49/49 6/50/50 10/51/51
f 15/52/52 10/53/53 11/54/54
f 15/55/55 11/56/56 13/57/57
f 15/58/58 13/59/59 12/60/60
f 15/61/61 12/62/62 4/63/63
f 4/64/64 12/65/65 1/66/66
f 4/67/67 1/68/68 7/69/69
f 4/70/70 7/71/71 14/72/72
