v -2.474874 0.000000 0.000000
v 2.474873 0.000000 0.000000
v -0.000000 0.000000 -2.298096
v 0.000000 0.000000 2.298097
v 0.000000 11.000000 2.298097
v -0.000000 5.500000 -2.298096
v -1.856155 8.593750 0.574525
v -2.474874 8.250000 0.000000
v -0.618718 11.000000 1.723573
v 1.237437 11.000000 1.149049
v 0.000000 9.625000 2.298097
v 1.237437 8.250000 1.149049
v 2.474873 6.875000 0.000000
vt 0.835041 0.666397
vt 0.835041 -0.317378
vt 0.223271 -0.317378
vt 0.835041 0.666397
vt 0.223271 -0.317378
vt 0.223271 0.469642
vt 0.514787 1.260456
vt 0.812120 1.260456
vt 0.812120 1.063415
vt 0.514787 1.260456
vt 0.812120 1.063415
vt 0.514787 0.866374
vt 0.394531 0.339844
vt 0.398996 0.523438
vt 0.769531 0.523438
vt 0.353555 0.912341
vt 0.812382 1.059907
vt 0.812382 1.256662
vt 0.353555 0.912341
vt 0.812382 1.256662
vt 0.659440 1.256662
vt 0.812120 1.063415
vt 0.812120 -0.315873
vt 0.217455 -0.315873
vt 0.812120 1.063415
vt 0.217455 -0.315873
vt 0.217455 0.669333
vt 0.812120 1.063415
vt 0.217455 0.669333
vt 0.514787 0.866374
vt 0.200613 0.863152
vt 0.200613 -0.317378
vt 0.812382 -0.317378
vt 0.200613 0.863152
vt 0.812382 -0.317378
vt 0.812382 1.059907
vt 0.200613 0.863152
vt 0.812382 1.059907
vt 0.353555 0.912341
vt 0.239479 0.472292
vt 0.239479 -0.315873
vt 0.834145 -0.315873
vt 0.239479 0.472292
vt 0.834145 -0.315873
vt 0.834145 0.866374
vt 0.003906 0.722656
vt 0.241071 0.781250
vt 0.824219 0.757812
vt 0.003906 0.722656
vt 0.824219 0.757812
vt 0.886719 0.515625
vt 0.723214 1.000000
vt 0.982143 1.000000
vt 0.982143 0.750000
vt 0.910156 0.683594
vt 0.241071 0.781250
vt 0.723214 1.000000
vt 0.828125 0.582031
vt 0.136719 0.343750
vt 0.125000 0.863281
vn 0.680451 0.000000 -0.732794
vn 0.680451 0.000000 -0.732794
vn 0.680451 0.000000 -0.732794
vn 0.680451 0.000000 -0.732794
vn 0.680451 0.000000 -0.732794
vn 0.680451 0.000000 -0.732794
vn 0.680451 0.000000 0.732793
vn 0.680451 0.000000 0.732793
vn 0.680451 0.000000 0.732793
vn 0.680451 0.000000 0.732793
vn 0.680451 0.000000 0.732793
vn 0.680451 0.000000 0.732793
vn 0.000000 1.000000 0.000000
vn 0.000000 1.000000 0.000000
vn 0.000000 1.000000 0.000000
vn -0.680451 0.000000 0.732794
vn -0.680451 0.000000 0.732794
vn -0.680451 0.000000 0.732794
vn -0.680451 0.000000 0.732794
vn -0.680451 0.000000 0.732794
vn -0.680451 0.000000 0.732794
vn 0.680451 0.000000 0.732793
vn 0.680451 0.000000 0.732793
vn 0.680451 0.000000 0.732793
vn 0.680451 0.000000 0.732793
vn 0.680451 0.000000 0.732793
vn 0.680451 0.000000 0.732793
vn 0.680451 0.000000 0.732793
vn 0.680451 0.000000 0.732793
vn 0.680451 0.000000 0.732793
vn -0.680451 0.000000 0.732794
vn -0.680451 0.000000 0.732794
vn -0.680451 0.000000 0.732794
vn -0.680451 0.000000 0.732794
vn -0.680451 0.000000 0.732794
vn -0.680451 0.000000 0.732794
vn -0.680451 0.000000 0.732794
vn -0.680451 0.000000 0.732794
vn -0.680451 0.000000 0.732794
vn -0.680451 0.000000 -0.732793
vn -0.680451 0.000000 -0.732793
vn -0.680451 0.000000 -0.732793
vn -0.680451 0.000000 -0.732793
vn -0.680451 0.000000 -0.732793
vn -0.680451 0.000000 -0.732793
vn 0.202458 0.728813 -0.654096
vn 0.211226 0.546416 -0.810440
vn 0.041730 0.386566 -0.921317
vn 0.202458 0.728813 -0.654096
vn 0.041730 0.386566 -0.921317
vn 0.202458 0.728813 -0.654096
vn -0.046103 0.174373 -0.983600
vn -0.295684 0.000000 -0.955286
vn 0.041730 0.386566 -0.921317
vn 0.041730 0.386566 -0.921317
vn 0.211226 0.546416 -0.810440
vn -0.046103 0.174373 -0.983600
vn 0.202458 0.728813 -0.654096
vn 0.202458 0.728813 -0.654096
vn 0.202458 0.728813 -0.654096
f 13/1/1 2/2/2 3/3/3
f 13/4/4 3/5/5 6/6/6
f 10/7/7 5/8/8 11/9/9
f 10/10/10 11/11/11 12/12/12
f 9/13/13 5/14/14 10/15/15
f 7/16/16 11/17/17 5/18/18
f 7/19/19 5/20/20 9/21/21
f 11/22/22 4/23/23 2/24/24
f 11/25/25 2/26/26 13/27/27
f 11/28/28 13/29/29 12/30/30
f 8/31/31 1/32/32 4/33/33
f 8/34/34 4/35/35 11/36/36
f 8/37/37 11/38/38 7/39/39
f 6/40/40 3/41/41 1/42/42
f 6/43/43 1/44/44 8/45/45
f 8/46/46 7/47/47 12/48/48
f 8/49/49 12/50/50 13/51/51
f 9/52/52 10/53/53 12/54/54
f 12/55/55 7/56/56 9/57/57
f 13/58/58 6/59/59 8/60/60
