v -0.000004 9.000000 -44.999992
v 29.000006 0.000000 -7.999998
v 40.000000 0.000000 -32.000004
v 15.999994 0.000000 -55.999996
v 15.999992 22.000000 -52.999996
v 40.000000 22.000000 -32.000004
v 40.000008 22.000000 -8.000005
v 16.000008 0.000000 -7.999998
v 37.000004 22.000000 -32.000004
v 15.999992 22.000000 -55.999996
v -0.000012 0.000000 -55.999989
v 0.000000 0.000000 -31.999992
v -0.000008 22.000000 -55.999992
v 29.000008 9.000000 -8.000002
v 31.999994 0.000000 -56.000000
v 39.999996 0.000000 -48.000004
v 33.999996 0.000000 -38.000004
v 31.999994 14.000000 -56.000000
v 39.999996 14.000000 -48.000004
v 21.999996 0.000000 -49.999996
v 33.999996 5.500000 -38.000004
v 21.999994 22.000000 -50.000000
v 8.000001 0.000000 -31.999994
v 12.999994 9.000000 -44.999996
v 16.000004 0.000000 -23.999998
v 29.000002 9.000000 -29.000000
v 29.000004 9.000000 -20.000002
v 40.000004 22.000000 -20.000006
v 3.999996 9.000000 -44.999992
v -0.000004 30.000000 -44.999992
v 40.000004 37.000000 -20.000006
v 40.000011 37.000000 -8.000005
v 29.000004 30.000000 -20.000002
v 3.999996 30.000000 -44.999992
v -0.000009 35.250000 -53.999992
v 29.000008 30.000000 -8.000002
v 3.999992 37.000000 -55.999992
v 40.000004 11.000000 -8.000001
v 36.000004 4.500000 -8.000002
v 40.000000 0.000000 -20.000002
v 27.999996 22.000000 -44.000000
v 38.499996 16.000000 -45.500004
v -0.000008 29.500000 -55.999992
v 0.999992 37.000000 -55.999992
v -10.000000 0.000000 -55.999996
v -3.999999 0.000000 -55.999996
v -4.000000 0.000000 -53.000000
v 29.687500 15.500000 -33.812500
v 26.749998 22.000000 -42.250000
v 35.000000 22.000000 -34.000004
v 37.000000 22.000000 -35.000004
v 35.500000 13.750000 -36.500004
v 3.999995 15.000000 -48.999992
v 9.999993 22.000000 -52.999996
v 9.999992 22.000000 -55.999996
v 9.999992 0.000000 -55.999992
v 3.999990 0.000000 -55.999989
v 3.999990 15.000000 -55.999989
v 37.000004 22.000000 -20.000004
v 3.999992 22.000000 -55.999992
v -28.999998 0.000000 -7.999996
v -40.000000 0.000000 -32.000000
v -16.000002 0.000000 -56.000000
v -15.999999 22.000000 -53.000000
v -40.000000 22.000000 -32.000000
v -40.000000 22.000000 -8.000000
v -16.000000 0.000000 -8.000000
v -37.000000 22.000000 -32.000000
v -16.000000 22.000000 -56.000000
v -29.000000 9.000000 -8.000000
v -32.000000 0.000000 -56.000000
v -40.000000 0.000000 -48.000000
v -34.000000 0.000000 -38.000000
v -32.000000 14.000000 -56.000000
v -40.000000 14.000000 -48.000000
v -22.000002 0.000000 -50.000000
v -34.000000 5.500000 -38.000000
v -22.000000 22.000000 -50.000000
v -8.000000 0.000000 -32.000000
v -12.999998 9.000000 -45.000000
v -16.000000 0.000000 -24.000000
v -29.000000 9.000000 -29.000000
v -29.000000 9.000000 -20.000000
v -40.000000 22.000000 -20.000000
v -4.000000 22.000000 -56.000000
v -4.000000 9.000000 -45.000000
v -40.000000 37.000000 -20.000000
v -40.000000 37.000000 -8.000000
v -29.000000 30.000000 -20.000000
v -4.000000 30.000000 -45.000000
v -29.000000 30.000000 -8.000000
v -4.000000 37.000000 -56.000000
v -39.999996 11.000000 -7.999996
v -35.999996 4.500000 -7.999998
v -39.999996 0.000000 -19.999996
v -28.000000 22.000000 -44.000000
v -38.500000 16.000000 -45.500000
v -1.000000 37.000000 -56.000000
v -37.000000 22.000000 -20.000000
v -29.687500 15.500000 -33.812500
v -26.750002 22.000000 -42.250000
v -35.000000 22.000000 -34.000000
v -37.000000 22.000000 -35.000000
v -35.500000 13.750000 -36.500000
v -4.000000 15.000000 -49.000000
v -10.000000 22.000000 -53.000000
v -4.000000 22.000000 -56.000000
v -10.000000 22.000000 -56.000000
vt 0.243536 0.601279
vt 0.610870 0.544345
vt 0.717203 0.414210
vt 0.243536 0.601279
vt 0.717203 0.414210
vt 0.311203 0.456636
vt 0.014839 -0.097058
vt 0.229682 0.138109
vt 0.981635 -0.332225
vt 0.014839 -0.097058
vt 0.981635 -0.332225
vt 0.390815 -0.332225
vt -0.917510 0.380246
vt -0.917510 1.122032
vt -0.485027 0.245376
vt -0.917510 0.380246
vt -0.485027 0.245376
vt -0.701268 -0.058082
vt 0.233351 1.171524
vt 0.235322 0.683408
vt 0.233351 -0.281782
vt 0.233351 1.171524
vt 0.233351 -0.281782
vt 0.697764 -0.281782
vt 0.233351 1.171524
vt 0.697764 -0.281782
vt 0.697764 1.171524
vt 0.558594 0.593750
vt 0.562500 0.429688
vt 0.765625 0.418919
vt 0.558594 0.593750
vt 0.765625 0.418919
vt 0.625000 0.594595
vt 1.390035 1.368309
vt 1.390035 0.019242
vt 1.993949 0.019242
vt 1.390035 1.368309
vt 1.993949 0.019242
vt 1.993949 1.368309
vt -0.436222 0.474503
vt -1.075620 0.474503
vt -1.075620 -0.420508
vt -0.436222 0.474503
vt -1.075620 -0.420508
vt -0.436222 -0.420508
vt 1.016803 0.934532
vt 0.692440 0.934532
vt 0.692440 -0.549040
vt 1.016803 0.934532
vt 0.692440 -0.549040
vt 1.016803 -0.549040
vt 0.363027 -0.420508
vt 0.842576 -0.420508
vt 0.842576 0.985938
vt 0.363027 -0.420508
vt 0.842576 0.985938
vt 0.363027 0.985938
vt 0.001953 0.439453
vt 0.125000 0.148649
vt 0.250000 0.594595
vt 0.363027 -0.420508
vt 0.363027 0.985938
vt -0.436222 0.474503
vt 0.363027 -0.420508
vt -0.436222 0.474503
vt -0.436222 -0.420508
vt -0.155585 0.399463
vt -0.155585 0.223882
vt 1.225809 0.223882
vt -0.155585 0.399463
vt 1.225809 0.223882
vt 1.225809 0.923462
vt -0.155585 0.399463
vt 1.225809 0.923462
vt 0.490411 0.920719
vt 0.003326 0.087484
vt 0.003326 0.760173
vt 0.781830 0.760173
vt 0.003326 0.087484
vt 0.781830 0.760173
vt 0.781830 0.087484
vt 0.474006 1.008669
vt 0.474006 0.097911
vt -0.479416 0.022015
vt 0.474006 1.008669
vt -0.479416 0.022015
vt -0.479416 0.629187
vt 0.474006 1.008669
vt -0.479416 0.629187
vt -0.479416 1.236359
vt 0.468750 0.500000
vt 0.564453 0.564453
vt 0.500000 0.297297
vt 0.373146 0.196566
vt 0.170419 0.976284
vt 0.469441 0.973518
vt 0.373146 0.196566
vt 0.469441 0.973518
vt 0.575873 0.586425
vt 0.776000 -0.149821
vt 0.106658 -0.149821
vt -0.090208 0.856852
vt 0.776000 -0.149821
vt -0.090208 0.856852
vt 1.012238 0.856852
vt 0.197917 0.810811
vt 0.197917 0.243243
vt 0.114583 0.418919
vt 0.197917 0.810811
vt 0.114583 0.418919
vt 0.031250 0.594595
vt 0.197917 0.810811
vt 0.031250 0.594595
vt 0.031250 1.000000
vt 1.006796 0.418919
vt 1.054154 0.052040
vt 0.391142 0.052040
vt 0.142641 0.246678
vt 1.089386 0.235309
vt 1.364184 1.093982
vt 0.142641 0.246678
vt 1.364184 1.093982
vt 0.700709 1.108195
vt 0.142641 0.246678
vt 0.700709 1.108195
vt 0.368972 1.115302
vt 0.391142 0.052040
vt 0.201710 0.785798
vt 0.580574 0.785798
vt 0.391142 0.052040
vt 0.580574 0.785798
vt 1.006796 0.418919
vt 0.958668 0.854379
vt 0.613574 0.854379
vt 0.786121 0.019242
vt 0.958668 0.854379
vt 0.786121 0.019242
vt 1.390035 0.019242
vt 0.463218 0.952453
vt 0.344836 1.399173
vt 1.173511 1.399173
vt 0.463218 0.952453
vt 1.173511 1.399173
vt 1.291893 1.287493
vt 0.463218 0.952453
vt 1.291893 1.287493
vt 1.291893 0.952453
vt 0.031250 1.000000
vt 0.031250 0.594595
vt 0.197917 0.243243
vt 0.031250 1.000000
vt 0.197917 0.243243
vt 0.197917 0.810811
vt 1.006029 0.783591
vt 1.006029 0.095315
vt -0.064623 0.095315
vt 1.006029 0.783591
vt -0.064623 0.095315
vt -0.064623 0.783591
vt 0.229682 1.235554
vt 0.229682 0.138109
vt -0.200005 0.817480
vt 0.229682 1.235554
vt -0.200005 0.817480
vt -0.200005 1.601369
vt 0.714327 0.576013
vt 0.413421 0.576013
vt 0.413421 0.661028
vt 0.714327 0.576013
vt 0.413421 0.661028
vt 0.704924 0.658689
vt 0.140920 0.573169
vt 0.684425 0.535661
vt 1.913781 0.440188
vt 0.140920 0.573169
vt 1.913781 0.440188
vt -0.402683 0.441663
vt 0.140920 0.573169
vt -0.402683 0.441663
vt -0.402584 0.610676
vt 0.470703 -0.384831
vt -0.202278 -0.384831
vt -0.202278 0.948752
vt 0.470703 -0.384831
vt -0.202278 0.948752
vt 1.143684 0.948752
vt 0.470703 -0.384831
vt 1.143684 0.948752
vt 1.143684 0.284268
vt 0.401259 0.445946
vt 0.592665 0.278716
vt 0.189453 0.314453
vt 0.189453 0.314453
vt 0.291884 0.687500
vt 0.401259 0.445946
vt -0.157998 -0.164660
vt -0.157998 -0.489191
vt -0.705360 -0.489191
vt -0.157998 -0.164660
vt -0.705360 -0.489191
vt -0.705360 0.336889
vt -0.157998 -0.164660
vt -0.705360 0.336889
vt -0.568520 0.454900
vt 0.125000 0.148649
vt 0.031250 0.432432
vt 0.250000 0.594595
vt -1.075620 0.985938
vt -1.075620 -0.420508
vt -0.596071 -0.420508
vt -1.075620 0.985938
vt -0.596071 -0.420508
vt -0.596071 -0.068897
vt 0.767499 0.996998
vt 0.041981 0.996998
vt 0.041981 -0.027403
vt 0.767499 0.996998
vt 0.041981 -0.027403
vt 0.871144 -0.027403
vt 0.767499 0.996998
vt 0.871144 -0.027403
vt 0.871144 0.484797
vt 0.819351 0.418158
vt 0.614243 0.572114
vt 0.614243 0.017005
vt 0.819351 0.418158
vt 0.614243 0.017005
vt 0.819351 0.017005
vt 0.232281 -0.356660
vt 0.236258 1.172328
vt 0.883785 1.172328
vt 0.232281 -0.356660
vt 0.883785 1.172328
vt 0.884137 -0.346956
vt -0.715959 0.458521
vt -0.835846 0.985938
vt -1.075620 0.985938
vt -0.715959 0.458521
vt -1.075620 0.985938
vt -0.596071 -0.068897
vt 0.767698 0.642088
vt 0.381943 0.645277
vt -0.037357 0.642918
vt 0.767698 0.642088
vt -0.037357 0.642918
vt 0.050696 0.751466
vt 0.767698 0.642088
vt 0.050696 0.751466
vt 0.734154 0.739668
vt 0.214844 0.418919
vt 0.117188 0.594595
vt 0.062500 0.594595
vt 0.214844 0.418919
vt 0.062500 0.594595
vt 0.093750 0.371622
vt -0.316125 0.469467
vt 0.048783 0.859326
vt 0.859690 0.859326
vt -0.316125 0.469467
vt 0.859690 0.859326
vt 0.697509 0.079608
vt -0.316125 0.469467
vt 0.697509 0.079608
vt -0.518852 0.079608
vt 0.093750 0.371622
vt 0.189453 0.626953
vt 0.276042 0.594595
vt 0.093750 0.371622
vt 0.276042 0.594595
vt 0.214844 0.418919
vt 0.939453 0.376953
vt 0.751953 0.564453
vt 0.929688 0.605469
vt 0.311203 0.456636
vt 0.717203 0.414210
vt 0.610870 0.544345
vt 0.311203 0.456636
vt 0.610870 0.544345
vt 0.243536 0.601279
vt 0.390815 -0.332225
vt 0.981635 -0.332225
vt 0.229682 0.138109
vt 0.390815 -0.332225
vt 0.229682 0.138109
vt 0.014839 -0.097058
vt -0.701268 -0.058082
vt -0.485027 0.245376
vt -0.917510 1.122032
vt -0.701268 -0.058082
vt -0.917510 1.122032
vt -0.917510 0.380246
vt 0.863281 0.277344
vt 0.625000 0.000000
vt 0.562500 0.441406
vt 0.939453 0.376953
vt 0.814453 0.564453
vt 0.751953 0.564453
vt 0.939453 0.376953
vt 0.751953 0.564453
vt 0.751953 0.126953
vt 0.939453 0.376953
vt 0.751953 0.126953
vt 0.939453 0.189453
vt 1.993949 1.368309
vt 1.993949 0.019242
vt 1.390035 0.019242
vt 1.993949 1.368309
vt 1.390035 0.019242
vt 1.390035 1.368309
vt -0.436222 -0.420508
vt -1.075620 -0.420508
vt -1.075620 0.474503
vt -0.436222 -0.420508
vt -1.075620 0.474503
vt -0.436222 0.474503
vt 1.016803 -0.549040
vt 0.692440 -0.549040
vt 0.692440 0.934532
vt 1.016803 -0.549040
vt 0.692440 0.934532
vt 1.016803 0.934532
vt 0.363027 0.985938
vt 0.842576 0.985938
vt 0.842576 -0.420508
vt 0.363027 0.985938
vt 0.842576 -0.420508
vt 0.363027 -0.420508
vt 0.250000 0.594595
vt 0.125000 0.148649
vt 0.001953 0.439453
vt -0.436222 -0.420508
vt -0.436222 0.474503
vt 0.363027 0.985938
vt -0.436222 -0.420508
vt 0.363027 0.985938
vt 0.363027 -0.420508
vt 0.490411 0.920719
vt 1.225809 0.923462
vt 1.225809 0.223882
vt 0.490411 0.920719
vt 1.225809 0.223882
vt -0.155585 0.223882
vt 0.490411 0.920719
vt -0.155585 0.223882
vt -0.155585 0.399463
vt 0.781830 0.087484
vt 0.781830 0.760173
vt 0.003326 0.760173
vt 0.781830 0.087484
vt 0.003326 0.760173
vt 0.003326 0.087484
vt -0.479416 1.236359
vt -0.479416 0.629187
vt -0.479416 0.022015
vt -0.479416 1.236359
vt -0.479416 0.022015
vt 0.474006 0.097911
vt -0.479416 1.236359
vt 0.474006 0.097911
vt 0.474006 1.008669
vt 0.500000 0.297297
vt 0.564453 0.564453
vt 0.468750 0.500000
vt 0.575873 0.586425
vt 0.469441 0.973518
vt 0.170419 0.976284
vt 0.575873 0.586425
vt 0.170419 0.976284
vt 0.373146 0.196566
vt 1.012238 0.856852
vt -0.090208 0.856852
vt 0.106658 -0.149821
vt 1.012238 0.856852
vt 0.106658 -0.149821
vt 0.776000 -0.149821
vt 0.031250 1.000000
vt 0.031250 0.594595
vt 0.114583 0.418919
vt 0.031250 1.000000
vt 0.114583 0.418919
vt 0.197917 0.243243
vt 0.031250 1.000000
vt 0.197917 0.243243
vt 0.197917 0.810811
vt 0.391142 0.052040
vt 1.054154 0.052040
vt 1.006796 0.418919
vt 0.368972 1.115302
vt 0.700709 1.108195
vt 1.364184 1.093982
vt 0.368972 1.115302
vt 1.364184 1.093982
vt 1.089386 0.235309
vt 0.368972 1.115302
vt 1.089386 0.235309
vt 0.142641 0.246678
vt 1.006796 0.418919
vt 0.580574 0.785798
vt 0.201710 0.785798
vt 1.006796 0.418919
vt 0.201710 0.785798
vt 0.391142 0.052040
vt 1.390035 0.019242
vt 0.786121 0.019242
vt 0.613574 0.854379
vt 1.390035 0.019242
vt 0.613574 0.854379
vt 0.958668 0.854379
vt 1.291893 0.952453
vt 1.291893 1.287493
vt 1.173511 1.399173
vt 1.291893 0.952453
vt 1.173511 1.399173
vt 0.344836 1.399173
vt 1.291893 0.952453
vt 0.344836 1.399173
vt 0.463218 0.952453
vt 0.197917 0.810811
vt 0.197917 0.243243
vt 0.031250 0.594595
vt 0.197917 0.810811
vt 0.031250 0.594595
vt 0.031250 1.000000
vt -0.064623 0.783591
vt -0.064623 0.095315
vt 1.006029 0.095315
vt -0.064623 0.783591
vt 1.006029 0.095315
vt 1.006029 0.783591
vt -0.200005 1.601369
vt -0.200005 0.817480
vt 0.229682 0.138109
vt -0.200005 1.601369
vt 0.229682 0.138109
vt 0.229682 1.235554
vt 0.704924 0.658689
vt 0.413421 0.661028
vt 0.413421 0.576013
vt 0.704924 0.658689
vt 0.413421 0.576013
vt 0.714327 0.576013
vt -0.402584 0.610676
vt -0.402683 0.441663
vt 1.913781 0.440188
vt -0.402584 0.610676
vt 1.913781 0.440188
vt 0.684425 0.535661
vt -0.402584 0.610676
vt 0.684425 0.535661
vt 0.140920 0.573169
vt 1.143684 0.284268
vt 1.143684 0.948752
vt -0.202278 0.948752
vt 1.143684 0.284268
vt -0.202278 0.948752
vt -0.202278 -0.384831
vt 1.143684 0.284268
vt -0.202278 -0.384831
vt 0.470703 -0.384831
vt 0.189453 0.314453
vt 0.592665 0.278716
vt 0.401259 0.445946
vt 0.401259 0.445946
vt 0.291884 0.687500
vt 0.189453 0.314453
vt -0.568520 0.454900
vt -0.705360 0.336889
vt -0.705360 -0.489191
vt -0.568520 0.454900
vt -0.705360 -0.489191
vt -0.157998 -0.489191
vt -0.568520 0.454900
vt -0.157998 -0.489191
vt -0.157998 -0.164660
vt 0.250000 0.594595
vt 0.031250 0.432432
vt 0.125000 0.148649
vt -0.596071 -0.068897
vt -0.596071 -0.420508
vt -1.075620 -0.420508
vt -0.596071 -0.068897
vt -1.075620 -0.420508
vt -1.075620 0.985938
vt 0.871144 0.484797
vt 0.871144 -0.027403
vt 0.041981 -0.027403
vt 0.871144 0.484797
vt 0.041981 -0.027403
vt 0.041981 0.996998
vt 0.871144 0.484797
vt 0.041981 0.996998
vt 0.767499 0.996998
vt 0.585938 0.539062
vt 0.625000 0.594595
vt 0.765625 0.418919
vt 0.883785 1.172328
vt 0.236258 1.172328
vt 0.232281 -0.356660
vt 0.883785 1.172328
vt 0.232281 -0.356660
vt 0.884137 -0.346956
vt -0.596071 -0.068897
vt -1.075620 0.985938
vt -0.835846 0.985938
vt -0.596071 -0.068897
vt -0.835846 0.985938
vt -0.715959 0.458521
vt 0.734154 0.739668
vt 0.050696 0.751466
vt -0.037357 0.642918
vt 0.734154 0.739668
vt -0.037357 0.642918
vt 0.381943 0.645277
vt 0.734154 0.739668
vt 0.381943 0.645277
vt 0.767698 0.642088
vt 0.093750 0.371622
vt 0.062500 0.594595
vt 0.117188 0.594595
vt 0.093750 0.371622
vt 0.117188 0.594595
vt 0.214844 0.418919
vt -0.518852 0.079608
vt 0.697509 0.079608
vt 0.859690 0.859326
vt -0.518852 0.079608
vt 0.859690 0.859326
vt 0.048783 0.859326
vt -0.518852 0.079608
vt 0.048783 0.859326
vt -0.316125 0.469467
vt 0.214844 0.418919
vt 0.276042 0.594595
vt 0.189453 0.626953
vt 0.214844 0.418919
vt 0.189453 0.626953
vt 0.093750 0.371622
vt 0.429688 0.585938
vt 0.917969 0.550781
vt 0.429687 0.512563
vt 1.801674 0.985938
vt 2.760773 0.985938
vt 2.760773 -0.420508
vt 1.801674 0.985938
vt 2.760773 -0.420508
vt 1.801674 -0.420508
vt 0.562500 0.441406
vt 0.843750 0.371094
vt 0.687500 0.148649
vn -0.348770 0.869895 0.348771
vn -0.425983 0.887202 0.177231
vn 0.000000 1.000000 0.000000
vn -0.348770 0.869895 0.348771
vn 0.000000 1.000000 0.000000
vn 0.000000 1.000000 0.000000
vn -0.000000 0.000000 1.000000
vn 0.000000 0.000000 1.000000
vn 0.000000 0.000000 1.000000
vn -0.000000 0.000000 1.000000
vn 0.000000 0.000000 1.000000
vn 0.000000 0.000000 1.000000
vn -0.000000 0.000000 1.000000
vn 0.000000 0.000000 1.000000
vn 0.000000 0.000000 1.000000
vn -0.000000 0.000000 1.000000
vn 0.000000 0.000000 1.000000
vn -0.000000 0.000000 1.000000
vn 0.000000 -0.000000 -1.000000
vn -0.000000 -0.000000 -1.000000
vn -0.000000 -0.000000 -1.000000
vn 0.000000 -0.000000 -1.000000
vn -0.000000 -0.000000 -1.000000
vn 0.000001 -0.000000 -1.000000
vn 0.000000 -0.000000 -1.000000
vn 0.000001 -0.000000 -1.000000
vn 0.000001 -0.000000 -1.000000
vn -0.417857 0.908513 0.000000
vn -0.759257 0.650791 0.000000
vn -0.759257 0.650791 0.000000
vn -0.417857 0.908513 0.000000
vn -0.759257 0.650791 0.000000
vn -0.316517 0.882848 0.346983
vn -0.876606 0.481209 0.000000
vn -0.873948 0.486019 0.000000
vn -0.885779 0.464107 0.000000
vn -0.876606 0.481209 0.000000
vn -0.885779 0.464107 0.000000
vn -0.876606 0.481209 0.000000
vn 0.627963 0.459701 -0.627963
vn 0.627963 0.459701 -0.627963
vn 0.707107 0.000000 -0.707107
vn 0.627963 0.459701 -0.627963
vn 0.707107 0.000000 -0.707107
vn 0.707107 0.000000 -0.707107
vn -0.000001 -0.000000 -1.000000
vn 0.382683 -0.000000 -0.923880
vn 0.382683 -0.000000 -0.923880
vn -0.000001 -0.000000 -1.000000
vn 0.382683 -0.000000 -0.923880
vn -0.000001 -0.000000 -1.000000
vn 0.707107 -0.000000 -0.707107
vn 0.382683 -0.000000 -0.923880
vn 0.382683 -0.000000 -0.923880
vn 0.707107 -0.000000 -0.707107
vn 0.382683 -0.000000 -0.923880
vn 0.707107 -0.000000 -0.707107
vn 0.707107 -0.000000 -0.707107
vn 0.707107 -0.000000 -0.707107
vn 0.707106 -0.000000 -0.707107
vn -0.514496 -0.000000 -0.857493
vn -0.514496 -0.000000 -0.857493
vn -0.514496 -0.000000 -0.857493
vn -0.514496 -0.000000 -0.857493
vn -0.514496 -0.000000 -0.857493
vn -0.514496 -0.000000 -0.857493
vn 0.408248 0.816497 -0.408248
vn 0.627963 0.459701 -0.627963
vn 0.627963 0.459701 -0.627963
vn 0.408248 0.816497 -0.408248
vn 0.627963 0.459701 -0.627963
vn 0.214186 0.953021 -0.214187
vn 0.408248 0.816497 -0.408248
vn 0.214186 0.953021 -0.214187
vn 0.316680 0.948518 0.005219
vn -0.876606 0.481209 0.000000
vn -0.536875 0.843662 0.000000
vn -0.536875 0.843662 0.000000
vn -0.876606 0.481209 0.000000
vn -0.536875 0.843662 0.000000
vn -0.876606 0.481209 0.000000
vn -0.500938 0.839813 0.209224
vn -0.569210 0.822192 0.000000
vn -0.885779 0.464107 0.000000
vn -0.500938 0.839813 0.209224
vn -0.885779 0.464107 0.000000
vn -0.873948 0.486019 0.000000
vn -0.500938 0.839813 0.209224
vn -0.873948 0.486019 0.000000
vn -0.647789 0.679078 0.345286
vn -0.926592 0.123546 -0.355194
vn -0.926592 0.123546 -0.355194
vn -0.926592 0.123546 -0.355194
vn -0.647789 0.679078 0.345286
vn -0.425983 0.887202 0.177231
vn -0.348770 0.869895 0.348771
vn -0.647789 0.679078 0.345286
vn -0.348770 0.869895 0.348771
vn -0.606788 0.513436 0.606788
vn -0.209223 0.839813 0.500939
vn -0.500938 0.839813 0.209224
vn -0.647789 0.679078 0.345286
vn -0.209223 0.839813 0.500939
vn -0.647789 0.679078 0.345286
vn -0.219629 0.685348 0.694306
vn 1.000000 0.000000 -0.000000
vn 1.000000 0.000000 -0.000000
vn 1.000000 -0.000000 -0.000000
vn 1.000000 0.000000 -0.000000
vn 1.000000 -0.000000 -0.000000
vn 1.000000 -0.000000 -0.000000
vn 1.000000 0.000000 -0.000000
vn 1.000000 -0.000000 -0.000000
vn 1.000000 0.000000 -0.000000
vn -0.009646 0.537867 0.842974
vn 0.000000 0.375238 0.926929
vn -0.219629 0.685348 0.694306
vn -0.000000 0.822192 0.569210
vn -0.209223 0.839813 0.500939
vn -0.219629 0.685348 0.694306
vn -0.000000 0.822192 0.569210
vn -0.219629 0.685348 0.694306
vn 0.000000 0.375238 0.926929
vn -0.000000 0.822192 0.569210
vn 0.000000 0.375238 0.926929
vn -0.000000 0.830406 0.557158
vn -0.219629 0.685348 0.694306
vn -0.182795 0.885894 0.426354
vn -0.316517 0.882848 0.346983
vn -0.219629 0.685348 0.694306
vn -0.316517 0.882848 0.346983
vn -0.009646 0.537867 0.842974
vn -0.487802 0.872954 0.000000
vn -0.425983 0.887202 0.177231
vn -0.647789 0.679078 0.345286
vn -0.487802 0.872954 0.000000
vn -0.647789 0.679078 0.345286
vn -0.873948 0.486019 0.000000
vn -0.029450 0.482413 0.875449
vn -0.051563 0.844656 0.532821
vn -0.051563 0.844656 0.532821
vn -0.029450 0.482413 0.875449
vn -0.051563 0.844656 0.532821
vn -0.000000 0.845781 0.533530
vn -0.029450 0.482413 0.875449
vn -0.000000 0.845781 0.533530
vn -0.000001 0.482622 0.875829
vn -0.000000 0.000000 -1.000000
vn -0.000000 0.000000 -1.000000
vn -0.000000 0.000000 -1.000000
vn -0.000000 0.000000 -1.000000
vn -0.000000 0.000000 -1.000000
vn -0.000000 0.000000 -1.000000
vn 1.000000 -0.000000 -0.000000
vn 1.000000 -0.000000 -0.000000
vn 1.000000 -0.000000 -0.000000
vn 1.000000 -0.000000 -0.000000
vn 1.000000 -0.000000 -0.000000
vn 1.000000 -0.000000 -0.000000
vn 0.000000 -0.000000 1.000000
vn 0.000000 0.000000 1.000000
vn 0.000000 0.000000 1.000000
vn 0.000000 -0.000000 1.000000
vn 0.000000 0.000000 1.000000
vn 0.000000 -0.000000 1.000000
vn -0.316517 0.882848 0.346983
vn -0.182795 0.885894 0.426354
vn 0.000000 1.000000 0.000000
vn -0.316517 0.882848 0.346983
vn 0.000000 1.000000 0.000000
vn -0.417857 0.908513 0.000000
vn -0.487802 0.872954 0.000000
vn 0.000000 1.000000 0.000000
vn 0.000000 1.000000 0.000000
vn -0.487802 0.872954 0.000000
vn 0.000000 1.000000 0.000000
vn 0.000000 1.000000 0.000000
vn -0.487802 0.872954 0.000000
vn 0.000000 1.000000 0.000000
vn -0.425983 0.887202 0.177231
vn 0.831010 -0.452401 0.323659
vn 0.923879 -0.000000 -0.382684
vn 0.862856 -0.000000 -0.505449
vn 0.831010 -0.452401 0.323659
vn 0.862856 -0.000000 -0.505449
vn 1.000000 -0.000000 -0.000000
vn 0.831010 -0.452401 0.323659
vn 1.000000 -0.000000 -0.000000
vn 0.940123 -0.251248 0.230310
vn 0.638943 -0.625630 0.447592
vn 0.484500 -0.753666 0.444125
vn 0.831010 -0.452401 0.323659
vn 0.831010 -0.452401 0.323659
vn 0.940123 -0.251248 0.230310
vn 0.638943 -0.625630 0.447592
vn 0.655832 0.232043 0.718359
vn 0.857493 0.000000 0.514496
vn 0.857493 0.000000 0.514496
vn 0.655832 0.232043 0.718359
vn 0.857493 0.000000 0.514496
vn 0.857493 0.000000 0.514496
vn 0.655832 0.232043 0.718359
vn 0.857493 0.000000 0.514496
vn 0.655832 0.232043 0.718359
vn 0.655832 0.232043 0.718359
vn 0.655832 0.232043 0.718359
vn 0.364932 0.432511 0.824475
vn 0.862856 -0.000000 -0.505449
vn 0.923879 -0.000000 -0.382684
vn 0.707107 0.000000 -0.707107
vn 0.862856 -0.000000 -0.505449
vn 0.707107 0.000000 -0.707107
vn 0.707107 -0.000000 -0.707107
vn 0.000000 0.000000 -1.000000
vn 0.000000 0.000000 -1.000000
vn 0.000000 -0.000000 -1.000000
vn 0.000000 0.000000 -1.000000
vn 0.000000 -0.000000 -1.000000
vn 0.000001 -0.000000 -1.000000
vn 0.000000 0.000000 -1.000000
vn 0.000001 -0.000000 -1.000000
vn 0.000001 -0.000000 -1.000000
vn -0.000000 -0.000000 -1.000000
vn -0.000001 -0.000000 -1.000000
vn -0.000001 -0.000000 -1.000000
vn -0.000000 -0.000000 -1.000000
vn -0.000001 -0.000000 -1.000000
vn -0.000000 -0.000000 -1.000000
vn 0.000000 0.375238 0.926929
vn -0.029450 0.482413 0.875449
vn -0.000001 0.482622 0.875829
vn 0.000000 0.375238 0.926929
vn -0.000001 0.482622 0.875829
vn -0.000000 0.830406 0.557158
vn 0.707107 -0.000000 -0.707107
vn 0.707107 -0.000000 -0.707107
vn 0.862856 -0.000000 -0.505449
vn 0.707107 -0.000000 -0.707107
vn 0.862856 -0.000000 -0.505449
vn 0.707107 -0.000000 -0.707107
vn 0.316680 0.948518 0.005219
vn 0.214186 0.953021 -0.214187
vn 0.000000 1.000000 0.000000
vn 0.316680 0.948518 0.005219
vn 0.000000 1.000000 0.000000
vn -0.182795 0.885894 0.426354
vn 0.316680 0.948518 0.005219
vn -0.182795 0.885894 0.426354
vn -0.058608 0.910854 0.408547
vn -0.367132 0.249306 -0.896136
vn -0.367132 0.249306 -0.896136
vn -0.367132 0.249306 -0.896136
vn -0.367132 0.249306 -0.896136
vn -0.367132 0.249306 -0.896136
vn -0.367132 0.249306 -0.896136
vn -0.606788 0.513436 0.606788
vn -0.058608 0.910854 0.408547
vn -0.182795 0.885894 0.426354
vn -0.606788 0.513436 0.606788
vn -0.182795 0.885894 0.426354
vn -0.219629 0.685348 0.694306
vn -0.606788 0.513436 0.606788
vn -0.219629 0.685348 0.694306
vn -0.647789 0.679078 0.345286
vn 0.459125 0.781449 0.422542
vn 0.316680 0.948518 0.005219
vn -0.058608 0.910854 0.408547
vn 0.459125 0.781449 0.422542
vn -0.058608 0.910854 0.408547
vn 0.459125 0.781449 0.422542
vn 1.000000 -0.000000 -0.000000
vn 1.000000 -0.000000 -0.000001
vn 1.000000 -0.000000 -0.000000
vn 0.000000 1.000000 0.000000
vn 0.000000 1.000000 0.000000
vn 0.425983 0.887202 0.177231
vn 0.000000 1.000000 0.000000
vn 0.425983 0.887202 0.177231
vn 0.348771 0.869895 0.348771
vn 0.000000 0.000000 1.000000
vn 0.000000 0.000000 1.000000
vn 0.000000 0.000000 1.000000
vn 0.000000 0.000000 1.000000
vn 0.000000 0.000000 1.000000
vn 0.000000 0.000000 1.000000
vn 0.000000 0.000000 1.000000
vn 0.000000 0.000000 1.000000
vn 0.000000 0.000000 1.000000
vn 0.000000 0.000000 1.000000
vn 0.000000 0.000000 1.000000
vn 0.000000 0.000000 1.000000
vn 0.426671 0.082888 -0.900601
vn 0.545251 0.592748 -0.592748
vn 0.743238 0.335869 -0.578609
vn -1.000000 -0.000000 -0.000000
vn -0.894427 -0.000000 -0.447214
vn -0.707106 -0.000000 -0.707107
vn -1.000000 -0.000000 -0.000000
vn -0.707106 -0.000000 -0.707107
vn -1.000000 -0.000000 -0.000000
vn -1.000000 -0.000000 -0.000000
vn -1.000000 -0.000000 -0.000000
vn -1.000000 -0.000000 -0.000000
vn 0.876606 0.481209 0.000000
vn 0.885779 0.464107 0.000000
vn 0.873948 0.486019 0.000000
vn 0.876606 0.481209 0.000000
vn 0.873948 0.486019 0.000000
vn 0.876606 0.481209 0.000000
vn -0.707107 0.000000 -0.707107
vn -0.707107 0.000000 -0.707107
vn -0.627963 0.459701 -0.627963
vn -0.707107 0.000000 -0.707107
vn -0.627963 0.459701 -0.627963
vn -0.627963 0.459701 -0.627963
vn 0.426671 0.082888 -0.900601
vn -0.382683 -0.000000 -0.923880
vn -0.382683 -0.000000 -0.923880
vn 0.426671 0.082888 -0.900601
vn -0.382683 -0.000000 -0.923880
vn 0.545251 0.592748 -0.592748
vn -0.707107 0.000000 -0.707107
vn -0.382683 -0.000000 -0.923880
vn -0.382683 -0.000000 -0.923880
vn -0.707107 0.000000 -0.707107
vn -0.382683 -0.000000 -0.923880
vn -0.707107 0.000000 -0.707107
vn -0.707107 0.000000 -0.707107
vn -0.707107 0.000000 -0.707107
vn -0.707107 0.000000 -0.707107
vn 0.514496 -0.000000 -0.857493
vn 0.514496 -0.000000 -0.857493
vn 0.514496 -0.000000 -0.857493
vn 0.514496 -0.000000 -0.857493
vn 0.514496 -0.000000 -0.857493
vn 0.514496 -0.000000 -0.857493
vn -0.316680 0.948518 0.005219
vn -0.214187 0.953021 -0.214187
vn -0.627963 0.459701 -0.627963
vn -0.316680 0.948518 0.005219
vn -0.627963 0.459701 -0.627963
vn -0.627963 0.459701 -0.627963
vn -0.316680 0.948518 0.005219
vn -0.627963 0.459701 -0.627963
vn -0.408248 0.816497 -0.408248
vn 0.876606 0.481209 0.000000
vn 0.536875 0.843661 0.000000
vn 0.536875 0.843661 0.000000
vn 0.876606 0.481209 0.000000
vn 0.536875 0.843661 0.000000
vn 0.876606 0.481209 0.000000
vn 0.647789 0.679078 0.345286
vn 0.873948 0.486019 0.000000
vn 0.885779 0.464107 0.000000
vn 0.647789 0.679078 0.345286
vn 0.885779 0.464107 0.000000
vn 0.569210 0.822192 0.000000
vn 0.647789 0.679078 0.345286
vn 0.569210 0.822192 0.000000
vn 0.500938 0.839813 0.209224
vn 0.926594 0.123545 -0.355190
vn 0.926594 0.123545 -0.355190
vn 0.926594 0.123545 -0.355190
vn 0.606788 0.513436 0.606788
vn 0.348771 0.869895 0.348771
vn 0.425983 0.887202 0.177231
vn 0.606788 0.513436 0.606788
vn 0.425983 0.887202 0.177231
vn 0.647789 0.679078 0.345286
vn 0.219629 0.685349 0.694306
vn 0.647789 0.679078 0.345286
vn 0.500938 0.839813 0.209224
vn 0.219629 0.685349 0.694306
vn 0.500938 0.839813 0.209224
vn 0.209223 0.839813 0.500939
vn -1.000000 0.000000 0.000000
vn -0.894427 -0.000000 -0.447214
vn -1.000000 -0.000000 -0.000000
vn -1.000000 0.000000 0.000000
vn -1.000000 -0.000000 -0.000000
vn -1.000000 0.000000 0.000000
vn -1.000000 0.000000 0.000000
vn -1.000000 0.000000 0.000000
vn -1.000000 0.000000 0.000000
vn 0.219629 0.685349 0.694306
vn -0.000001 0.375237 0.926929
vn 0.009646 0.537867 0.842974
vn -0.000000 0.830406 0.557158
vn -0.000001 0.375237 0.926929
vn 0.219629 0.685349 0.694306
vn -0.000000 0.830406 0.557158
vn 0.219629 0.685349 0.694306
vn 0.209223 0.839813 0.500939
vn -0.000000 0.830406 0.557158
vn 0.209223 0.839813 0.500939
vn -0.000000 0.822192 0.569210
vn 0.009646 0.537867 0.842974
vn 0.316517 0.882848 0.346983
vn 0.182795 0.885894 0.426354
vn 0.009646 0.537867 0.842974
vn 0.182795 0.885894 0.426354
vn 0.219629 0.685349 0.694306
vn 0.873948 0.486019 0.000000
vn 0.647789 0.679078 0.345286
vn 0.425983 0.887202 0.177231
vn 0.873948 0.486019 0.000000
vn 0.425983 0.887202 0.177231
vn 0.487803 0.872954 0.000000
vn -0.000001 0.482622 0.875829
vn -0.000000 0.845781 0.533530
vn 0.051562 0.844656 0.532821
vn -0.000001 0.482622 0.875829
vn 0.051562 0.844656 0.532821
vn 0.051562 0.844656 0.532821
vn -0.000001 0.482622 0.875829
vn 0.051562 0.844656 0.532821
vn 0.029448 0.482413 0.875449
vn 0.000000 0.000000 -1.000000
vn 0.000000 0.000000 -1.000000
vn 0.000000 0.000000 -1.000000
vn 0.000000 0.000000 -1.000000
vn 0.000000 0.000000 -1.000000
vn 0.000000 0.000000 -1.000000
vn -1.000000 0.000000 0.000000
vn -1.000000 0.000000 0.000000
vn -1.000000 0.000000 0.000000
vn -1.000000 0.000000 0.000000
vn -1.000000 0.000000 0.000000
vn -1.000000 0.000000 0.000000
vn 0.000000 0.000000 1.000000
vn 0.000000 0.000000 1.000000
vn 0.000000 0.000000 1.000000
vn 0.000000 0.000000 1.000000
vn 0.000000 0.000000 1.000000
vn 0.000000 0.000000 1.000000
vn 0.545251 0.592748 -0.592748
vn 0.000000 1.000000 0.000000
vn 0.182795 0.885894 0.426354
vn 0.545251 0.592748 -0.592748
vn 0.182795 0.885894 0.426354
vn 0.316517 0.882848 0.346983
vn 0.425983 0.887202 0.177231
vn 0.000000 1.000000 0.000000
vn 0.000000 1.000000 0.000000
vn 0.425983 0.887202 0.177231
vn 0.000000 1.000000 0.000000
vn 0.000000 1.000000 0.000000
vn 0.425983 0.887202 0.177231
vn 0.000000 1.000000 0.000000
vn 0.487803 0.872954 0.000000
vn -0.940123 -0.251248 0.230311
vn -1.000000 -0.000000 0.000000
vn -0.862856 -0.000000 -0.505449
vn -0.940123 -0.251248 0.230311
vn -0.862856 -0.000000 -0.505449
vn -0.923880 -0.000000 -0.382683
vn -0.940123 -0.251248 0.230311
vn -0.923880 -0.000000 -0.382683
vn -0.831010 -0.452401 0.323659
vn -0.831010 -0.452401 0.323659
vn -0.484500 -0.753666 0.444125
vn -0.638943 -0.625630 0.447592
vn -0.638943 -0.625630 0.447592
vn -0.940123 -0.251248 0.230311
vn -0.831010 -0.452401 0.323659
vn -0.655832 0.232043 0.718359
vn -0.857493 0.000000 0.514496
vn -0.857493 0.000000 0.514496
vn -0.655832 0.232043 0.718359
vn -0.857493 0.000000 0.514496
vn -0.857493 0.000000 0.514496
vn -0.655832 0.232043 0.718359
vn -0.857493 0.000000 0.514496
vn -0.655832 0.232043 0.718359
vn -0.364932 0.432511 0.824475
vn -0.655832 0.232043 0.718359
vn -0.655832 0.232043 0.718359
vn -0.707107 0.000000 -0.707107
vn -0.707107 0.000000 -0.707107
vn -0.923880 -0.000000 -0.382683
vn -0.707107 0.000000 -0.707107
vn -0.923880 -0.000000 -0.382683
vn -0.862856 -0.000000 -0.505449
vn 0.000001 -0.000000 -1.000000
vn 0.000001 -0.000000 -1.000000
vn -0.894427 -0.000000 -0.447214
vn 0.000001 -0.000000 -1.000000
vn -0.894427 -0.000000 -0.447214
vn 0.000002 -0.000000 -1.000000
vn 0.000001 -0.000000 -1.000000
vn 0.000002 -0.000000 -1.000000
vn 0.000002 -0.000000 -1.000000
vn 0.545251 0.592748 -0.592748
vn 0.316517 0.882848 0.346983
vn 0.743238 0.335869 -0.578609
vn -0.000001 0.482622 0.875829
vn 0.029448 0.482413 0.875449
vn -0.000001 0.375237 0.926929
vn -0.000001 0.482622 0.875829
vn -0.000001 0.375237 0.926929
vn -0.000000 0.830406 0.557158
vn -0.707107 0.000000 -0.707107
vn -0.862856 -0.000000 -0.505449
vn -0.707107 0.000000 -0.707107
vn -0.707107 0.000000 -0.707107
vn -0.707107 0.000000 -0.707107
vn -0.707107 0.000000 -0.707107
vn 0.058608 0.910854 0.408547
vn 0.182795 0.885894 0.426354
vn 0.000000 1.000000 0.000000
vn 0.058608 0.910854 0.408547
vn 0.000000 1.000000 0.000000
vn -0.214187 0.953021 -0.214187
vn 0.058608 0.910854 0.408547
vn -0.214187 0.953021 -0.214187
vn -0.316680 0.948518 0.005219
vn 0.367132 0.249306 -0.896137
vn 0.367132 0.249306 -0.896137
vn 0.367132 0.249306 -0.896137
vn 0.367132 0.249306 -0.896137
vn 0.367132 0.249306 -0.896137
vn 0.367132 0.249306 -0.896137
vn 0.647789 0.679078 0.345286
vn 0.219629 0.685349 0.694306
vn 0.182795 0.885894 0.426354
vn 0.647789 0.679078 0.345286
vn 0.182795 0.885894 0.426354
vn 0.058608 0.910854 0.408547
vn 0.647789 0.679078 0.345286
vn 0.058608 0.910854 0.408547
vn 0.606788 0.513436 0.606788
vn -0.459125 0.781449 0.422542
vn 0.058608 0.910854 0.408547
vn -0.316680 0.948518 0.005219
vn -0.459125 0.781449 0.422542
vn -0.316680 0.948518 0.005219
vn -0.459125 0.781449 0.422542
vn -0.894427 -0.000000 -0.447214
vn 0.000001 -0.000000 -1.000000
vn -0.707106 -0.000000 -0.707107
vn -0.707106 -0.000000 -0.707107
vn 0.000001 -0.000000 -1.000000
vn 0.000001 -0.000000 -1.000000
vn -0.707106 -0.000000 -0.707107
vn 0.000001 -0.000000 -1.000000
vn 0.000002 -0.000000 -1.000000
vn 0.743238 0.335869 -0.578609
vn 0.435011 0.232006 -0.870022
vn 0.426671 0.082888 -0.900601
f 50/1/1 9/2/2 6/3/3
f 50/4/4 6/5/5 51/6/6
f 39/7/7 14/8/8 8/9/9
f 39/10/10 8/11/11 2/12/12
f 38/13/13 7/14/14 14/15/15
f 38/16/16 14/17/17 39/18/18
f 60/19/19 58/20/20 57/21/21
f 60/22/22 57/23/23 11/24/24
f 60/25/25 11/26/26 13/27/27
f 55/28/28 58/29/29 53/30/30
f 55/31/31 53/32/32 54/33/33
f 33/34/34 27/35/35 14/36/36
f 33/37/37 14/38/38 36/39/39
f 18/40/40 19/41/41 16/42/42
f 18/43/43 16/44/44 15/45/45
f 55/46/46 10/47/47 4/48/48
f 55/49/49 4/50/50 56/51/51
f 20/52/52 4/53/53 10/54/54
f 20/55/55 10/56/56 22/57/57
f 52/58/58 21/59/59 41/60/60
f 20/61/61 22/62/62 18/63/63
f 20/64/64 18/65/65 15/66/66
f 42/67/67 19/68/68 18/69/69
f 42/70/70 18/71/71 22/72/72
f 42/73/73 22/74/74 41/75/75
f 36/76/76 32/77/77 31/78/78
f 36/79/79 31/80/80 33/81/81
f 25/82/82 8/83/83 14/84/84
f 25/85/85 14/86/86 27/87/87
f 25/88/88 27/89/89 26/90/90
f 35/91/91 44/92/92 43/93/93
f 26/94/94 9/95/95 50/96/96
f 26/97/97 50/98/98 48/99/99
f 23/100/100 25/101/101 26/102/102
f 23/103/103 26/104/104 24/105/105
f 34/106/106 29/107/107 53/108/108
f 34/109/109 53/110/110 60/111/111
f 34/112/112 60/113/113 37/114/114
f 53/115/115 29/116/116 24/117/117
f 12/118/118 23/119/119 24/120/120
f 12/121/121 24/122/122 29/123/123
f 12/124/124 29/125/125 1/126/126
f 24/127/127 5/128/128 54/129/129
f 24/130/130 54/131/131 53/132/132
f 59/133/133 9/134/134 26/135/135
f 59/136/136 26/137/137 27/138/138
f 34/139/139 37/140/140 44/141/141
f 34/142/142 44/143/143 35/144/144
f 34/145/145 35/146/146 30/147/147
f 31/148/148 28/149/149 27/150/150
f 31/151/151 27/152/152 33/153/153
f 31/154/154 32/155/155 7/156/156
f 31/157/157 7/158/158 28/159/159
f 36/160/160 14/161/161 7/162/162
f 36/163/163 7/164/164 32/165/165
f 54/166/166 5/167/167 10/168/168
f 54/169/169 10/170/170 55/171/171
f 59/172/172 28/173/173 7/174/174
f 59/175/175 7/176/176 6/177/177
f 59/178/178 6/179/179 9/180/180
f 40/181/181 3/182/182 6/183/183
f 40/184/184 6/185/185 7/186/186
f 40/187/187 7/188/188 38/189/189
f 39/190/190 2/191/191 40/192/192
f 40/193/193 38/194/194 39/195/195
f 21/196/196 17/197/197 16/198/198
f 21/199/199 16/200/200 19/201/201
f 21/202/202 19/203/203 42/204/204
f 21/205/205 42/206/206 41/207/207
f 6/208/208 3/209/209 17/210/210
f 6/211/211 17/212/212 21/213/213
f 44/214/214 37/215/215 60/216/216
f 44/217/217 60/218/218 13/219/219
f 44/220/220 13/221/221 43/222/222
f 58/223/223 55/224/224 56/225/225
f 58/226/226 56/227/227 57/228/228
f 29/229/229 34/230/230 30/231/231
f 29/232/232 30/233/233 1/234/234
f 52/235/235 51/236/236 6/237/237
f 52/238/238 6/239/239 21/240/240
f 41/241/241 22/242/242 10/243/243
f 41/244/244 10/245/245 5/246/246
f 41/247/247 5/248/248 49/249/249
f 48/250/250 50/251/251 51/252/252
f 48/253/253 51/254/254 52/255/255
f 48/256/256 49/257/257 5/258/258
f 48/259/259 5/260/260 24/261/261
f 48/262/262 24/263/263 26/264/264
f 52/265/265 41/266/266 49/267/267
f 52/268/268 49/269/269 48/270/270
f 53/271/271 58/272/272 60/273/273
f 103/274/274 65/275/275 68/276/276
f 103/277/277 68/278/278 102/279/279
f 61/280/280 67/281/281 70/282/282
f 61/283/283 70/284/284 94/285/285
f 94/286/286 70/287/287 66/288/288
f 94/289/289 66/290/290 93/291/291
f 45/292/292 108/293/293 105/294/294
f 105/295/295 85/296/296 107/297/297
f 105/298/298 107/299/299 46/300/300
f 105/301/301 46/302/302 47/303/303
f 91/304/304 70/305/305 83/306/306
f 91/307/307 83/308/308 89/309/309
f 71/310/310 72/311/311 75/312/312
f 71/313/313 75/314/314 74/315/315
f 45/316/316 63/317/317 69/318/318
f 45/319/319 69/320/320 108/321/321
f 78/322/322 69/323/323 63/324/324
f 78/325/325 63/326/326 76/327/327
f 96/328/328 77/329/329 104/330/330
f 71/331/331 74/332/332 78/333/333
f 71/334/334 78/335/335 76/336/336
f 96/337/337 78/338/338 74/339/339
f 96/340/340 74/341/341 75/342/342
f 96/343/343 75/344/344 97/345/345
f 89/346/346 87/347/347 88/348/348
f 89/349/349 88/350/350 91/351/351
f 82/352/352 83/353/353 70/354/354
f 82/355/355 70/356/356 67/357/357
f 82/358/358 67/359/359 81/360/360
f 43/361/361 98/362/362 35/363/363
f 100/364/364 102/365/365 68/366/366
f 100/367/367 68/368/368 82/369/369
f 80/370/370 82/371/371 81/372/372
f 80/373/373 81/374/374 79/375/375
f 92/376/376 85/377/377 105/378/378
f 92/379/379 105/380/380 86/381/381
f 92/382/382 86/383/383 90/384/384
f 80/385/385 86/386/386 105/387/387
f 1/388/388 86/389/389 80/390/390
f 1/391/391 80/392/392 79/393/393
f 1/394/394 79/395/395 12/396/396
f 105/397/397 106/398/398 64/399/399
f 105/400/400 64/401/401 80/402/402
f 83/403/403 82/404/404 68/405/405
f 83/406/406 68/407/407 99/408/408
f 30/409/409 35/410/410 98/411/411
f 30/412/412 98/413/413 92/414/414
f 30/415/415 92/416/416 90/417/417
f 89/418/418 83/419/419 84/420/420
f 89/421/421 84/422/422 87/423/423
f 84/424/424 66/425/425 88/426/426
f 84/427/427 88/428/428 87/429/429
f 88/430/430 66/431/431 70/432/432
f 88/433/433 70/434/434 91/435/435
f 108/436/436 69/437/437 64/438/438
f 108/439/439 64/440/440 106/441/441
f 68/442/442 65/443/443 66/444/444
f 68/445/445 66/446/446 84/447/447
f 68/448/448 84/449/449 99/450/450
f 93/451/451 66/452/452 65/453/453
f 93/454/454 65/455/455 62/456/456
f 93/457/457 62/458/458 95/459/459
f 95/460/460 61/461/461 94/462/462
f 94/463/463 93/464/464 95/465/465
f 97/466/466 75/467/467 72/468/468
f 97/469/469 72/470/470 73/471/471
f 97/472/472 73/473/473 77/474/474
f 96/475/475 97/476/476 77/477/477
f 77/478/478 73/479/479 62/480/480
f 77/481/481 62/482/482 65/483/483
f 43/484/484 13/485/485 85/486/486
f 43/487/487 85/488/488 92/489/489
f 43/490/490 92/491/491 98/492/492
f 108/493/493 106/494/494 105/495/495
f 30/496/496 90/497/497 86/498/498
f 30/499/499 86/500/500 1/501/501
f 77/502/502 65/503/503 103/504/504
f 77/505/505 103/506/506 104/507/507
f 101/508/508 64/509/509 69/510/510
f 101/511/511 69/512/512 78/513/513
f 101/514/514 78/515/515 96/516/516
f 104/517/517 103/518/518 102/519/519
f 104/520/520 102/521/521 100/522/522
f 82/523/523 80/524/524 64/525/525
f 82/526/526 64/527/527 101/528/528
f 82/529/529 101/530/530 100/531/531
f 100/532/532 101/533/533 96/534/534
f 100/535/535 96/536/536 104/537/537
f 85/538/538 13/539/539 107/540/540
f 107/541/541 13/542/542 11/543/543
f 107/544/544 11/545/545 46/546/546
f 105/547/547 47/548/548 45/549/549
