v 24.000002 9.000000 16.000000
v -12.999998 0.000000 -24.000004
v -24.000000 0.000000 0.000000
v -0.000002 0.000000 23.999998
v 0.000001 22.000000 21.000000
v -24.000000 22.000000 0.000000
v -24.000000 22.000000 -24.000000
v -2.000001 0.000000 -24.000000
v -21.000002 22.000000 0.000001
v 0.000000 22.000000 24.000000
v 24.000004 0.000000 23.999996
v 24.000000 0.000000 2.000000
v 24.000000 22.000000 24.000000
v -16.000000 9.000000 -24.000000
v -16.000002 0.000000 23.999998
v -24.000000 0.000000 16.000000
v -18.000000 0.000000 6.000000
v -16.000002 14.000000 23.999998
v -24.000000 14.000000 16.000000
v -6.000002 0.000000 17.999998
v -18.000000 5.500000 6.000000
v -6.000000 22.000000 18.000000
v 24.000000 0.000000 -24.000021
v 9.000000 0.000000 0.000000
v 3.000002 9.000000 13.000001
v -0.000001 0.000000 -9.000000
v -13.000001 9.000000 -3.000000
v -14.500002 9.000000 -13.499999
v -22.500002 22.000000 -11.999999
v 11.999999 22.000000 22.500000
v 13.500002 9.000000 14.500001
v 24.000002 30.000000 16.000000
v -22.500002 37.000000 -11.999999
v -24.000002 37.000000 -24.000000
v -14.500002 30.000000 -13.499999
v 13.500002 30.000000 14.500001
v 24.000002 35.250000 22.000000
v -16.000000 30.000000 -24.000000
v 11.999999 37.000000 22.500000
v -23.999996 11.000000 -24.000004
v -19.999996 4.500000 -24.000002
v -23.999996 0.000000 -12.000003
v -12.000000 22.000000 12.000000
v -22.500000 16.000000 13.500000
v 24.000000 29.500000 24.000000
v 22.500000 37.000000 23.812500
v 24.000000 12.250000 18.000000
v 24.000002 14.250000 16.000000
v 18.750002 9.000000 15.250000
v -13.687501 15.500000 1.812500
v -10.750002 22.000000 10.250000
v -18.375002 22.000000 2.625000
v -21.000000 22.000000 3.000000
v -19.500000 13.750000 4.500000
v 12.750000 15.500000 18.500000
v 6.000000 22.000000 21.750000
v 12.000000 22.000000 24.000000
v 6.000000 22.000000 24.000000
v 12.000001 0.000000 23.999996
v 6.000000 0.000000 23.999996
v 9.000000 5.500000 23.999996
v 9.000000 16.500000 24.000000
v 12.000000 0.000000 21.000000
vt 0.243536 0.601279
vt 0.610870 0.544345
vt 0.717203 0.414210
vt 0.243536 0.601279
vt 0.717203 0.414210
vt 0.311203 0.456636
vt 0.014839 -0.097058
vt 0.229682 0.138109
vt 0.981635 -0.332225
vt 0.014839 -0.097058
vt 0.981635 -0.332225
vt 0.390815 -0.332225
vt -0.917510 0.380246
vt -0.917510 1.122032
vt -0.485027 0.245376
vt -0.917510 0.380246
vt -0.485027 0.245376
vt -0.701268 -0.058082
vt -0.766802 -0.558929
vt 0.498543 -0.558929
vt -0.306677 0.019242
vt -0.306677 0.019242
vt -0.421708 0.228026
vt -0.766802 0.854379
vt -0.306677 0.019242
vt -0.766802 0.854379
vt -0.766802 -0.558929
vt 1.390035 1.368309
vt 1.390035 0.019242
vt 1.993949 0.019242
vt 1.390035 1.368309
vt 1.993949 0.019242
vt 1.993949 1.368309
vt -0.436222 0.474503
vt -1.075620 0.474503
vt -1.075620 -0.420508
vt -0.436222 0.474503
vt -1.075620 -0.420508
vt -0.436222 -0.420508
vt 1.016803 0.934532
vt 0.692440 0.934532
vt 0.692440 -0.549040
vt 1.016803 0.934532
vt 0.692440 -0.549040
vt 1.016803 -0.549040
vt 0.363027 -0.420508
vt 0.842576 -0.420508
vt 0.842576 0.985938
vt 0.363027 -0.420508
vt 0.842576 0.985938
vt 0.363027 0.985938
vt 0.001953 0.439453
vt 0.125000 0.148649
vt 0.250000 0.594595
vt 0.363027 -0.420508
vt 0.363027 0.985938
vt -0.436222 0.474503
vt 0.363027 -0.420508
vt -0.436222 0.474503
vt -0.436222 -0.420508
vt -0.155585 0.399463
vt -0.155585 0.223882
vt 1.225809 0.223882
vt -0.155585 0.399463
vt 1.225809 0.223882
vt 1.225809 0.923462
vt -0.155585 0.399463
vt 1.225809 0.923462
vt 0.490411 0.920719
vt 0.003326 0.087484
vt 0.003326 0.760173
vt 0.781830 0.760173
vt 0.003326 0.087484
vt 0.781830 0.760173
vt 0.781830 0.087484
vt 0.474006 1.008669
vt 0.474006 0.097911
vt -0.479416 0.022015
vt 0.474006 1.008669
vt -0.479416 0.022015
vt -0.479416 0.629187
vt 0.474006 1.008669
vt -0.479416 0.629187
vt -0.479416 1.236359
vt 0.468750 0.500000
vt 0.564453 0.564453
vt 0.500000 0.297297
vt 0.373146 0.196566
vt 0.170419 0.976284
vt 0.469441 0.973518
vt 0.373146 0.196566
vt 0.469441 0.973518
vt 0.575873 0.586425
vt 0.776000 -0.149821
vt 0.106658 -0.149821
vt -0.090208 0.856852
vt 0.776000 -0.149821
vt -0.090208 0.856852
vt 1.012238 0.856852
vt 0.197917 0.810811
vt 0.197917 0.243243
vt 0.114583 0.418919
vt 0.197917 0.810811
vt 0.114583 0.418919
vt 0.031250 0.594595
vt 0.197917 0.810811
vt 0.031250 0.594595
vt 0.031250 1.000000
vt 1.006796 0.418919
vt 1.054154 0.052040
vt 0.391142 0.052040
vt 1.006796 0.418919
vt 0.391142 0.052040
vt 0.201710 0.785798
vt 1.006796 0.418919
vt 0.201710 0.785798
vt 0.580574 0.785798
vt 0.142641 0.246678
vt 1.089386 0.235309
vt 1.364184 1.093982
vt 0.142641 0.246678
vt 1.364184 1.093982
vt 0.700709 1.108195
vt 0.142641 0.246678
vt 0.700709 1.108195
vt 0.368972 1.115302
vt 0.142641 0.246678
vt 0.368972 1.115302
vt 0.037234 1.122409
vt 1.191601 1.206184
vt -0.327018 1.206183
vt -0.210201 0.331259
vt 1.191601 1.206184
vt -0.210201 0.331259
vt 0.315475 -0.193694
vt 1.191601 1.206184
vt 0.315475 -0.193694
vt 1.191601 -0.310351
vt 1.303762 0.854379
vt 0.613574 0.854379
vt 0.786121 0.019242
vt 1.303762 0.854379
vt 0.786121 0.019242
vt 1.390035 0.019242
vt 0.463218 0.952453
vt 0.344836 1.399173
vt 1.173511 1.399173
vt 0.463218 0.952453
vt 1.173511 1.399173
vt 1.291893 1.287493
vt 0.463218 0.952453
vt 1.291893 1.287493
vt 1.291893 0.952453
vt 0.031250 1.000000
vt 0.031250 0.594595
vt 0.197917 0.243243
vt 0.031250 1.000000
vt 0.197917 0.243243
vt 0.197917 0.810811
vt 1.006029 0.783591
vt 1.006029 0.095315
vt -0.064623 0.095315
vt 1.006029 0.783591
vt -0.064623 0.095315
vt -0.064623 0.783591
vt 0.229682 1.235554
vt 0.229682 0.138109
vt -0.200005 0.817480
vt 0.229682 1.235554
vt -0.200005 0.817480
vt -0.200005 1.601369
vt 0.714327 0.576013
vt 0.413421 0.576013
vt 0.413421 0.661028
vt 0.714327 0.576013
vt 0.413421 0.661028
vt 0.704924 0.658689
vt 0.684425 0.535661
vt 1.913781 0.440188
vt -0.402683 0.441663
vt 0.684425 0.535661
vt -0.402683 0.441663
vt -0.402584 0.610676
vt 0.470703 -0.384831
vt -0.202278 -0.384831
vt -0.202278 0.948752
vt 0.470703 -0.384831
vt -0.202278 0.948752
vt 1.143684 0.948752
vt 0.470703 -0.384831
vt 1.143684 0.948752
vt 1.143684 0.284268
vt 0.401259 0.445946
vt 0.592665 0.278716
vt 0.189453 0.314453
vt 0.189453 0.314453
vt 0.291884 0.687500
vt 0.401259 0.445946
vt -0.157998 -0.164660
vt -0.157998 -0.489191
vt -0.705360 -0.489191
vt -0.157998 -0.164660
vt -0.705360 -0.489191
vt -0.705360 0.336889
vt -0.157998 -0.164660
vt -0.705360 0.336889
vt -0.568520 0.454900
vt 0.125000 0.148649
vt 0.031250 0.432432
vt 0.250000 0.594595
vt -1.075620 0.985938
vt -1.075620 -0.420508
vt -0.596071 -0.420508
vt -1.075620 0.985938
vt -0.596071 -0.420508
vt -0.596071 -0.068897
vt 0.750000 0.393581
vt 0.751953 0.251953
vt 0.640625 0.305743
vt 0.767499 0.996998
vt 0.041981 0.996998
vt 0.041981 -0.027403
vt 0.767499 0.996998
vt 0.041981 -0.027403
vt 0.871144 -0.027403
vt 0.767499 0.996998
vt 0.871144 -0.027403
vt 0.871144 0.484797
vt -0.306677 0.356509
vt -0.306677 1.368309
vt -0.651771 1.705576
vt -0.306677 0.356509
vt -0.651771 1.705576
vt -0.766802 1.336188
vt -0.306677 0.356509
vt -0.766802 1.336188
vt -0.766802 0.854379
vt -0.306677 0.356509
vt -0.766802 0.854379
vt -0.421708 0.228026
vt 1.706074 0.057876
vt 1.422256 0.057876
vt 1.422256 1.474013
vt 1.706074 0.057876
vt 1.422256 1.474013
vt 1.989891 1.474013
vt 1.706074 0.057876
vt 1.989891 1.474013
vt 1.989891 0.411910
vt 0.640625 0.305743
vt 0.626953 0.439453
vt 0.750000 0.393581
vt -0.715959 0.458521
vt -0.835846 0.985938
vt -1.075620 0.985938
vt -0.715959 0.458521
vt -1.075620 0.985938
vt -0.596071 -0.068897
vt 0.767698 0.642088
vt 0.381943 0.645277
vt -0.037357 0.642918
vt 0.767698 0.642088
vt -0.037357 0.642918
vt 0.050696 0.751466
vt 0.767698 0.642088
vt 0.050696 0.751466
vt 0.734154 0.739668
vt 0.214844 0.418919
vt 0.117188 0.594595
vt 0.062500 0.594595
vt 0.214844 0.418919
vt 0.062500 0.594595
vt 0.093750 0.371622
vt -0.316125 0.469467
vt 0.048783 0.859326
vt 0.859690 0.859326
vt -0.316125 0.469467
vt 0.859690 0.859326
vt 0.697509 0.079608
vt -0.316125 0.469467
vt 0.697509 0.079608
vt -0.518852 0.079608
vt 0.093750 0.371622
vt 0.189453 0.626953
vt 0.276042 0.594595
vt 0.093750 0.371622
vt 0.276042 0.594595
vt 0.214844 0.418919
vt 0.429687 0.512563
vt 0.917969 0.550781
vt 0.429688 0.585938
vt 0.687500 0.445946
vt 0.625000 0.594595
vt 0.625000 0.000000
vt 0.687500 0.445946
vt 0.625000 0.000000
vt 0.687500 0.148649
vt 1.801674 -0.420508
vt 2.760773 -0.420508
vt 2.760773 0.985938
vt 1.801674 -0.420508
vt 2.760773 0.985938
vt 1.801674 0.985938
vt 0.765625 0.418919
vt 0.625000 0.594595
vt 0.585938 0.539062
vt 0.939453 0.189453
vt 0.751953 0.126953
vt 0.751953 0.564453
vt 0.939453 0.189453
vt 0.751953 0.564453
vt 0.814453 0.564453
vt 0.939453 0.189453
vt 0.814453 0.564453
vt 0.939453 0.376953
vt 0.687500 0.445946
vt 0.750000 0.000000
vt 0.843750 0.371094
vt 0.687500 0.148649
vt 0.750000 0.000000
vt 0.687500 0.445946
vt 0.687500 0.148649
vt 0.625000 0.000000
vt 0.750000 0.000000
vt 0.625000 0.594595
vt 0.562500 0.441406
vt 0.765625 0.418919
vn 0.000000 1.000000 0.000000
vn 0.000000 1.000000 0.000000
vn 0.000000 1.000000 0.000000
vn 0.000000 1.000000 0.000000
vn 0.000000 1.000000 0.000000
vn 0.000000 1.000000 0.000000
vn 0.000000 0.000000 -1.000000
vn 0.000000 0.000000 -1.000000
vn 0.000000 0.000001 -1.000000
vn 0.000000 0.000000 -1.000000
vn 0.000000 0.000001 -1.000000
vn 0.000000 0.000001 -1.000000
vn 0.000001 0.000000 -1.000000
vn 0.000000 0.000000 -1.000000
vn 0.000000 0.000000 -1.000000
vn 0.000001 0.000000 -1.000000
vn 0.000000 0.000000 -1.000000
vn 0.000000 0.000000 -1.000000
vn 1.000000 0.000000 -0.000000
vn 1.000000 0.000000 -0.000000
vn 1.000000 0.000000 -0.000000
vn 1.000000 0.000000 -0.000000
vn 1.000000 0.000000 0.000000
vn 1.000000 0.000000 0.000000
vn 1.000000 0.000000 -0.000000
vn 1.000000 0.000000 0.000000
vn 1.000000 0.000000 -0.000000
vn 0.989950 0.000000 -0.141421
vn 0.989950 0.000000 -0.141421
vn 0.989950 0.000000 -0.141421
vn 0.989950 0.000000 -0.141421
vn 0.989950 0.000000 -0.141421
vn 0.989950 0.000000 -0.141421
vn -0.707107 0.000000 0.707107
vn -0.707107 0.000000 0.707107
vn -0.707107 0.000000 0.707107
vn -0.707107 0.000000 0.707107
vn -0.707107 0.000000 0.707107
vn -0.707107 0.000000 0.707107
vn 0.000000 -0.000000 1.000000
vn 0.000000 -0.000000 1.000000
vn 0.000000 -0.000000 1.000000
vn 0.000000 -0.000000 1.000000
vn 0.000000 -0.000000 1.000000
vn 0.149236 -0.081401 0.985445
vn -0.707107 0.000000 0.707107
vn -0.707107 0.000000 0.707107
vn -0.707107 0.000000 0.707107
vn -0.707107 0.000000 0.707107
vn -0.707107 0.000000 0.707107
vn -0.707107 0.000000 0.707107
vn -0.707107 0.000000 0.707107
vn -0.707107 -0.000000 0.707107
vn -0.707107 0.000000 0.707107
vn 0.514496 -0.000000 0.857493
vn 0.514496 -0.000000 0.857493
vn 0.514496 -0.000000 0.857493
vn 0.514496 -0.000000 0.857493
vn 0.514496 -0.000000 0.857493
vn 0.514496 -0.000000 0.857493
vn -0.408248 0.816497 0.408248
vn -0.408248 0.816497 0.408248
vn -0.408248 0.816497 0.408248
vn -0.408248 0.816497 0.408248
vn -0.408248 0.816497 0.408248
vn -0.214187 0.953021 0.214187
vn -0.408248 0.816497 0.408248
vn -0.214187 0.953021 0.214187
vn -0.316680 0.948518 -0.005219
vn 0.651392 0.753754 -0.086852
vn 0.651392 0.753754 -0.086852
vn 0.651392 0.753754 -0.086852
vn 0.651392 0.753754 -0.086852
vn 0.651392 0.753754 -0.086852
vn 0.651392 0.753754 -0.086852
vn 0.326274 0.931016 -0.163565
vn 0.282484 0.958469 -0.039234
vn 0.541505 0.837327 -0.075209
vn 0.326274 0.931016 -0.163565
vn 0.541505 0.837327 -0.075209
vn 0.705654 0.702074 -0.095627
vn 0.326274 0.931016 -0.163565
vn 0.705654 0.702074 -0.095627
vn 0.628608 0.679880 -0.377645
vn 0.958167 0.094026 0.270324
vn 0.836168 0.180184 0.518031
vn 0.958167 0.094026 0.270324
vn 0.628608 0.679880 -0.377645
vn 0.750779 0.544851 -0.373455
vn 0.606788 0.513436 -0.606788
vn 0.628608 0.679880 -0.377645
vn 0.606788 0.513436 -0.606788
vn 0.606788 0.513436 -0.606788
vn 0.163565 0.931016 -0.326274
vn 0.326274 0.931016 -0.163565
vn 0.628608 0.679880 -0.377645
vn 0.163565 0.931016 -0.326274
vn 0.628608 0.679880 -0.377645
vn 0.312545 0.714694 -0.625722
vn -0.982872 0.000000 -0.184289
vn -0.982872 0.000000 -0.184289
vn -0.990338 0.003163 -0.138637
vn -0.982872 0.000000 -0.184289
vn -0.990338 0.003163 -0.138637
vn -0.990338 0.003163 -0.138637
vn -0.982872 0.000000 -0.184289
vn -0.990338 0.003163 -0.138637
vn -0.982872 0.000000 -0.184289
vn 0.112671 0.535498 -0.836987
vn 0.096126 0.702381 -0.705280
vn 0.312545 0.714694 -0.625722
vn 0.112671 0.535498 -0.836987
vn 0.312545 0.714694 -0.625722
vn 0.373909 0.545140 -0.750342
vn 0.112671 0.535498 -0.836987
vn 0.373909 0.545140 -0.750342
vn 0.112671 0.535498 -0.836987
vn 0.039234 0.958469 -0.282484
vn 0.163565 0.931016 -0.326274
vn 0.312545 0.714694 -0.625722
vn 0.039234 0.958469 -0.282484
vn 0.312545 0.714694 -0.625722
vn 0.096126 0.702381 -0.705280
vn 0.039234 0.958469 -0.282484
vn 0.096126 0.702381 -0.705280
vn 0.100471 0.695968 -0.711009
vn 0.039234 0.958469 -0.282484
vn 0.100471 0.695968 -0.711009
vn 0.100471 0.695968 -0.711009
vn 0.000000 1.000000 0.000000
vn 0.282484 0.958469 -0.039234
vn 0.326274 0.931016 -0.163565
vn 0.000000 1.000000 0.000000
vn 0.326274 0.931016 -0.163565
vn 0.163565 0.931016 -0.326274
vn 0.000000 1.000000 0.000000
vn 0.163565 0.931016 -0.326274
vn 0.039234 0.958469 -0.282484
vn 0.837587 0.534767 -0.111678
vn 0.750779 0.544851 -0.373455
vn 0.628608 0.679880 -0.377645
vn 0.837587 0.534767 -0.111678
vn 0.628608 0.679880 -0.377645
vn 0.705654 0.702074 -0.095627
vn 0.086933 0.753816 -0.651310
vn 0.086933 0.753816 -0.651310
vn 0.086933 0.753816 -0.651310
vn 0.086933 0.753816 -0.651310
vn 0.086933 0.753816 -0.651310
vn 0.086933 0.753816 -0.651310
vn 0.086933 0.753816 -0.651310
vn 0.086933 0.753816 -0.651310
vn 0.086933 0.753816 -0.651310
vn 0.184289 0.000000 0.982872
vn 0.184289 0.000000 0.982872
vn 0.184289 0.000000 0.982872
vn 0.184289 0.000000 0.982872
vn 0.184289 0.000000 0.982872
vn 0.184289 0.000000 0.982872
vn -0.992278 -0.000000 0.124035
vn -0.992278 -0.000000 0.124035
vn -0.992278 -0.000000 0.124035
vn -0.992278 -0.000000 0.124035
vn -0.992278 -0.000000 0.124035
vn -0.992278 -0.000000 0.124035
vn 0.000000 0.000000 -1.000000
vn 0.000000 0.000000 -1.000000
vn 0.000000 0.000000 -1.000000
vn 0.000000 0.000000 -1.000000
vn 0.000000 0.000000 -1.000000
vn 0.000000 0.000000 -1.000000
vn 0.000000 1.000000 0.000000
vn 0.000000 1.000000 0.000000
vn 0.000000 1.000000 0.000000
vn 0.000000 1.000000 0.000000
vn 0.000000 1.000000 0.000000
vn 0.000000 1.000000 0.000000
vn 0.000000 1.000000 0.000000
vn 0.000000 1.000000 0.000000
vn 0.000000 1.000000 0.000000
vn 0.000000 1.000000 0.000000
vn 0.000000 1.000000 0.000000
vn 0.000000 1.000000 0.000000
vn -0.831010 -0.452401 -0.323659
vn -1.000000 -0.000000 -0.000000
vn -1.000000 -0.000000 -0.000000
vn -0.831010 -0.452401 -0.323659
vn -1.000000 -0.000000 -0.000000
vn -1.000000 -0.000000 -0.000000
vn -0.831010 -0.452401 -0.323659
vn -1.000000 -0.000000 -0.000000
vn -0.940123 -0.251248 -0.230311
vn -0.638943 -0.625630 -0.447592
vn -0.484500 -0.753666 -0.444125
vn -0.831010 -0.452401 -0.323659
vn -0.831010 -0.452401 -0.323659
vn -0.940123 -0.251248 -0.230311
vn -0.638943 -0.625630 -0.447592
vn -0.857493 0.000000 -0.514496
vn -0.857493 0.000000 -0.514496
vn -0.857493 0.000000 -0.514496
vn -0.857493 0.000000 -0.514496
vn -0.857493 0.000000 -0.514496
vn -0.857493 0.000000 -0.514496
vn -0.857493 0.000000 -0.514496
vn -0.857493 0.000000 -0.514496
vn -0.857493 0.000000 -0.514496
vn -0.364932 0.432511 -0.824475
vn -0.364932 0.432511 -0.824475
vn -0.364932 0.432511 -0.824475
vn -0.707107 -0.000000 0.707107
vn -0.707107 -0.000000 0.707107
vn -0.707107 -0.000000 0.707107
vn -0.707107 -0.000000 0.707107
vn -0.707107 -0.000000 0.707107
vn -0.707107 -0.000000 0.707107
vn 0.120775 0.520261 -0.845424
vn 0.100471 0.695968 -0.711009
vn 0.100471 0.695968 -0.711009
vn -0.124035 0.000000 0.992278
vn -0.124035 0.000000 0.992278
vn -0.124035 0.000000 0.992278
vn -0.124035 0.000000 0.992278
vn -0.124035 0.000000 0.992278
vn -0.124035 0.000000 0.992278
vn -0.124035 0.000000 0.992278
vn -0.124035 0.000000 0.992278
vn -0.124035 0.000000 0.992278
vn 1.000000 -0.000000 0.000000
vn 1.000000 -0.000000 0.000000
vn 0.958167 0.094026 0.270324
vn 1.000000 -0.000000 0.000000
vn 0.958167 0.094026 0.270324
vn 0.958167 0.094026 0.270324
vn 1.000000 -0.000000 0.000000
vn 0.958167 0.094026 0.270324
vn 1.000000 0.000000 0.000000
vn 1.000000 -0.000000 0.000000
vn 1.000000 0.000000 0.000000
vn 1.000000 0.000000 0.000000
vn 0.141421 0.000000 -0.989950
vn 0.141421 0.000000 -0.989950
vn 0.141421 0.000000 -0.989950
vn 0.141421 0.000000 -0.989950
vn 0.141421 0.000000 -0.989950
vn 0.141421 0.000000 -0.989950
vn 0.141421 0.000000 -0.989950
vn 0.141421 0.000000 -0.989950
vn 0.141421 0.000000 -0.989950
vn 0.628540 -0.549972 -0.549972
vn 0.628540 -0.549972 -0.549972
vn 0.628540 -0.549972 -0.549972
vn -0.707107 0.000000 0.707107
vn -0.707107 0.000000 0.707107
vn -0.707107 -0.000000 0.707107
vn -0.707107 0.000000 0.707107
vn -0.707107 -0.000000 0.707107
vn -0.707107 -0.000000 0.707107
vn -0.316680 0.948518 -0.005219
vn -0.214187 0.953021 0.214187
vn 0.000000 1.000000 0.000000
vn -0.316680 0.948518 -0.005219
vn 0.000000 1.000000 0.000000
vn 0.000000 1.000000 0.000000
vn -0.316680 0.948518 -0.005219
vn 0.000000 1.000000 0.000000
vn -0.243237 0.943782 -0.223856
vn 0.304526 0.171418 0.936953
vn 0.304526 0.171418 0.936953
vn 0.304526 0.171418 0.936953
vn 0.304526 0.171418 0.936953
vn 0.304526 0.171418 0.936953
vn 0.304526 0.171418 0.936953
vn 0.606788 0.513436 -0.606788
vn 0.606788 0.513436 -0.606788
vn 0.373909 0.545140 -0.750342
vn 0.606788 0.513436 -0.606788
vn 0.373909 0.545140 -0.750342
vn 0.312545 0.714694 -0.625722
vn 0.606788 0.513436 -0.606788
vn 0.312545 0.714694 -0.625722
vn 0.628608 0.679880 -0.377645
vn -0.459125 0.781449 -0.422542
vn -0.316680 0.948518 -0.005219
vn -0.243237 0.943782 -0.223856
vn -0.459125 0.781449 -0.422542
vn -0.243237 0.943782 -0.223856
vn -0.459125 0.781449 -0.422542
vn 0.000000 1.000000 0.000000
vn 0.000000 1.000000 0.000000
vn 0.000000 1.000000 0.000000
vn 0.000000 -0.000000 1.000000
vn 0.000000 -0.000000 1.000000
vn 0.149236 -0.081401 0.985445
vn 0.000000 -0.000000 1.000000
vn 0.149236 -0.081401 0.985445
vn 0.403725 -0.083811 0.911034
vn 0.000000 -0.000000 1.000000
vn 0.000000 -0.000000 1.000000
vn 0.000000 -0.000000 1.000000
vn 0.000000 -0.000000 1.000000
vn 0.000000 -0.000000 1.000000
vn 0.000000 -0.000000 1.000000
vn 0.826981 0.429263 0.363091
vn 0.693642 0.720320 0.000000
vn 0.767094 0.596234 0.236794
vn -0.995675 0.006319 -0.092686
vn -0.995675 0.006319 -0.092686
vn -0.995675 0.006319 -0.092686
vn -0.995675 0.006319 -0.092686
vn -0.995675 0.006319 -0.092686
vn -0.990338 0.003163 -0.138637
vn -0.995675 0.006319 -0.092686
vn -0.990338 0.003163 -0.138637
vn -0.990338 0.003163 -0.138637
vn 0.792542 0.162722 0.587707
vn 0.677333 -0.064389 0.732853
vn 0.826981 0.429263 0.363091
vn 0.403725 -0.083811 0.911034
vn 0.677333 -0.064389 0.732853
vn 0.792542 0.162722 0.587707
vn 0.403725 -0.083811 0.911034
vn 0.149236 -0.081401 0.985445
vn 0.677333 -0.064389 0.732853
vn 0.767094 0.596234 0.236794
vn 0.792542 0.162722 0.587707
vn 0.826981 0.429263 0.363091
f 52/1/1 9/2/2 6/3/3
f 52/4/4 6/5/5 53/6/6
f 41/7/7 14/8/8 8/9/9
f 41/10/10 8/11/11 2/12/12
f 40/13/13 7/14/14 14/15/15
f 40/16/16 14/17/17 41/18/18
f 11/19/19 12/20/20 1/21/21
f 1/22/22 47/23/23 13/24/24
f 1/25/25 13/26/26 11/27/27
f 35/28/28 28/29/29 14/30/30
f 35/31/31 14/32/32 38/33/33
f 18/34/34 19/35/35 16/36/36
f 18/37/37 16/38/38 15/39/39
f 58/40/40 10/41/41 4/42/42
f 58/43/43 4/44/44 60/45/45
f 20/46/46 4/47/47 10/48/48
f 20/49/49 10/50/50 22/51/51
f 54/52/52 21/53/53 43/54/54
f 20/55/55 22/56/56 18/57/57
f 20/58/58 18/59/59 15/60/60
f 44/61/61 19/62/62 18/63/63
f 44/64/64 18/65/65 22/66/66
f 44/67/67 22/68/68 43/69/69
f 38/70/70 34/71/71 33/72/72
f 38/73/73 33/74/74 35/75/75
f 26/76/76 8/77/77 14/78/78
f 26/79/79 14/80/80 28/81/81
f 26/82/82 28/83/83 27/84/84
f 37/85/85 46/86/86 45/87/87
f 27/88/88 9/89/89 52/90/90
f 27/91/91 52/92/92 50/93/93
f 24/94/94 26/95/95 27/96/96
f 24/97/97 27/98/98 25/99/99
f 36/100/100 31/101/101 55/102/102
f 36/103/103 55/104/104 30/105/105
f 36/106/106 30/107/107 39/108/108
f 55/109/109 31/110/110 25/111/111
f 55/112/112 25/113/113 5/114/114
f 55/115/115 5/116/116 56/117/117
f 12/118/118 24/119/119 25/120/120
f 12/121/121 25/122/122 31/123/123
f 12/124/124 31/125/125 49/126/126
f 12/127/127 49/128/128 1/129/129
f 23/130/130 8/131/131 26/132/132
f 23/133/133 26/134/134 24/135/135
f 23/136/136 24/137/137 12/138/138
f 29/139/139 9/140/140 27/141/141
f 29/142/142 27/143/143 28/144/144
f 36/145/145 39/146/146 46/147/147
f 36/148/148 46/149/149 37/150/150
f 36/151/151 37/152/152 32/153/153
f 33/154/154 29/155/155 28/156/156
f 33/157/157 28/158/158 35/159/159
f 33/160/160 34/161/161 7/162/162
f 33/163/163 7/164/164 29/165/165
f 38/166/166 14/167/167 7/168/168
f 38/169/169 7/170/170 34/171/171
f 56/172/172 5/173/173 10/174/174
f 56/175/175 10/176/176 58/177/177
f 29/178/178 7/179/179 6/180/180
f 29/181/181 6/182/182 9/183/183
f 42/184/184 3/185/185 6/186/186
f 42/187/187 6/188/188 7/189/189
f 42/190/190 7/191/191 40/192/192
f 41/193/193 2/194/194 42/195/195
f 42/196/196 40/197/197 41/198/198
f 21/199/199 17/200/200 16/201/201
f 21/202/202 16/203/203 19/204/204
f 21/205/205 19/206/206 44/207/207
f 21/208/208 44/209/209 43/210/210
f 6/211/211 3/212/212 17/213/213
f 6/214/214 17/215/215 21/216/216
f 47/217/217 1/218/218 49/219/219
f 46/220/220 39/221/221 30/222/222
f 46/223/223 30/224/224 13/225/225
f 46/226/226 13/227/227 45/228/228
f 48/229/229 32/230/230 37/231/231
f 48/232/232 37/233/233 45/234/234
f 48/235/235 45/236/236 13/237/237
f 48/238/238 13/239/239 47/240/240
f 49/241/241 31/242/242 36/243/243
f 49/244/244 36/245/245 32/246/246
f 49/247/247 32/248/248 48/249/249
f 49/250/250 48/251/251 47/252/252
f 54/253/253 53/254/254 6/255/255
f 54/256/256 6/257/257 21/258/258
f 43/259/259 22/260/260 10/261/261
f 43/262/262 10/263/263 5/264/264
f 43/265/265 5/266/266 51/267/267
f 50/268/268 52/269/269 53/270/270
f 50/271/271 53/272/272 54/273/273
f 50/274/274 51/275/275 5/276/276
f 50/277/277 5/278/278 25/279/279
f 50/280/280 25/281/281 27/282/282
f 54/283/283 43/284/284 51/285/285
f 54/286/286 51/287/287 50/288/288
f 57/289/289 13/290/290 30/291/291
f 62/292/292 58/293/293 60/294/294
f 62/295/295 60/296/296 61/297/297
f 59/298/298 11/299/299 13/300/300
f 59/301/301 13/302/302 57/303/303
f 55/304/304 56/305/305 58/306/306
f 63/307/307 59/308/308 57/309/309
f 63/310/310 57/311/311 30/312/312
f 63/313/313 30/314/314 55/315/315
f 62/316/316 63/317/317 55/318/318
f 61/319/319 63/320/320 62/321/321
f 61/322/322 60/323/323 63/324/324
f 58/325/325 62/326/326 55/327/327
