v 24.000000 9.000000 -13.000000
v -12.999998 0.000000 24.000004
v -24.000000 0.000000 0.000000
v -0.000002 0.000000 -23.999998
v 0.000001 22.000000 -21.000000
v -24.000000 22.000000 0.000000
v -24.000000 22.000000 24.000000
v 0.000000 0.000000 24.000000
v -21.000002 22.000000 -0.000001
v 0.000000 22.000000 -24.000000
v 24.000004 0.000000 -23.999996
v 24.000000 0.000000 0.000000
v 24.000000 22.000000 -24.000000
v -13.000000 9.000000 24.000000
v -16.000002 0.000000 -23.999998
v -24.000000 0.000000 -16.000000
v -18.000000 0.000000 -6.000000
v -16.000002 14.000000 -23.999998
v -24.000000 14.000000 -16.000000
v -6.000002 0.000000 -17.999998
v -18.000000 5.500000 -6.000000
v -6.000000 22.000000 -18.000000
v 9.000000 0.000000 -0.000000
v 3.000002 9.000000 -13.000001
v -0.000001 0.000000 9.000000
v -13.000001 9.000000 3.000000
v -13.000000 9.000000 12.000000
v -24.000000 22.000000 12.000000
v 12.000000 22.000000 -24.000000
v 12.000000 9.000000 -13.000000
v 24.000000 30.000000 -13.000000
v -24.000000 37.000000 12.000000
v -24.000002 37.000000 24.000000
v -13.000000 30.000000 12.000000
v 12.000000 30.000000 -13.000000
v 24.000002 35.250000 -22.000000
v -13.000000 30.000000 24.000000
v 12.000000 37.000000 -24.000000
v -23.999996 11.000000 24.000004
v -19.999996 4.500000 24.000002
v -23.999996 0.000000 12.000003
v -12.000000 22.000000 -12.000000
v -22.500000 16.000000 -13.500000
v 24.000000 29.500000 -24.000000
v 23.000000 37.000000 -24.000000
v 24.000000 12.250000 -18.000000
v 24.000000 14.000000 -13.000000
v 19.000000 9.000000 -13.000000
v -13.687501 15.500000 -1.812500
v -10.750002 22.000000 -10.250000
v -19.000000 22.000000 -2.000000
v -21.000000 22.000000 -3.000000
v -19.500000 13.750000 -4.500000
v 12.000000 15.000000 -17.000000
v 6.000000 22.000000 -21.000000
v 12.000000 22.000000 -24.000000
v 6.000000 22.000000 -24.000000
v 12.000001 0.000000 -23.999996
v 6.000000 0.000000 -23.999996
v 9.000000 5.500000 -23.999996
v 9.000000 16.500000 -24.000000
v 12.000000 0.000000 -21.000000
v -21.000000 22.000000 12.000000
vt 0.311203 0.456636
vt 0.717203 0.414210
vt 0.610870 0.544345
vt 0.311203 0.456636
vt 0.610870 0.544345
vt 0.243536 0.601279
vt 0.390815 -0.332225
vt 0.981635 -0.332225
vt 0.229682 0.138109
vt 0.390815 -0.332225
vt 0.229682 0.138109
vt 0.014839 -0.097058
vt -0.701268 -0.058082
vt -0.485027 0.245376
vt -0.917510 1.122032
vt -0.701268 -0.058082
vt -0.917510 1.122032
vt -0.917510 0.380246
vt -0.306677 0.019242
vt 0.498543 -0.558929
vt -0.766802 -0.558929
vt -0.766802 -0.558929
vt -0.766802 0.854379
vt -0.421708 0.228026
vt -0.766802 -0.558929
vt -0.421708 0.228026
vt -0.306677 0.019242
vt 1.993949 1.368309
vt 1.993949 0.019242
vt 1.390035 0.019242
vt 1.993949 1.368309
vt 1.390035 0.019242
vt 1.390035 1.368309
vt -0.436222 -0.420508
vt -1.075620 -0.420508
vt -1.075620 0.474503
vt -0.436222 -0.420508
vt -1.075620 0.474503
vt -0.436222 0.474503
vt 1.016803 -0.549040
vt 0.692440 -0.549040
vt 0.692440 0.934532
vt 1.016803 -0.549040
vt 0.692440 0.934532
vt 1.016803 0.934532
vt 0.363027 0.985938
vt 0.842576 0.985938
vt 0.842576 -0.420508
vt 0.363027 0.985938
vt 0.842576 -0.420508
vt 0.363027 -0.420508
vt 0.250000 0.594595
vt 0.125000 0.148649
vt 0.001953 0.439453
vt -0.436222 -0.420508
vt -0.436222 0.474503
vt 0.363027 0.985938
vt -0.436222 -0.420508
vt 0.363027 0.985938
vt 0.363027 -0.420508
vt 0.490411 0.920719
vt 1.225809 0.923462
vt 1.225809 0.223882
vt 0.490411 0.920719
vt 1.225809 0.223882
vt -0.155585 0.223882
vt 0.490411 0.920719
vt -0.155585 0.223882
vt -0.155585 0.399463
vt 0.781830 0.087484
vt 0.781830 0.760173
vt 0.003326 0.760173
vt 0.781830 0.087484
vt 0.003326 0.760173
vt 0.003326 0.087484
vt -0.479416 1.236359
vt -0.479416 0.629187
vt -0.479416 0.022015
vt -0.479416 1.236359
vt -0.479416 0.022015
vt 0.474006 0.097911
vt -0.479416 1.236359
vt 0.474006 0.097911
vt 0.474006 1.008669
vt 0.500000 0.297297
vt 0.564453 0.564453
vt 0.468750 0.500000
vt 0.575873 0.586425
vt 0.469441 0.973518
vt 0.170419 0.976284
vt 0.575873 0.586425
vt 0.170419 0.976284
vt 0.373146 0.196566
vt 1.012238 0.856852
vt -0.090208 0.856852
vt 0.106658 -0.149821
vt 1.012238 0.856852
vt 0.106658 -0.149821
vt 0.776000 -0.149821
vt 0.031250 1.000000
vt 0.031250 0.594595
vt 0.114583 0.418919
vt 0.031250 1.000000
vt 0.114583 0.418919
vt 0.197917 0.243243
vt 0.031250 1.000000
vt 0.197917 0.243243
vt 0.197917 0.810811
vt 0.391142 0.052040
vt 1.054154 0.052040
vt 1.006796 0.418919
vt 0.037234 1.122409
vt 0.368972 1.115302
vt 0.700709 1.108195
vt 0.037234 1.122409
vt 0.700709 1.108195
vt 1.364184 1.093982
vt 0.037234 1.122409
vt 1.364184 1.093982
vt 1.089386 0.235309
vt 0.037234 1.122409
vt 1.089386 0.235309
vt 0.142641 0.246678
vt 1.006796 0.418919
vt 0.580574 0.785798
vt 0.201710 0.785798
vt 1.006796 0.418919
vt 0.201710 0.785798
vt 0.391142 0.052040
vt 1.390035 0.019242
vt 0.786121 0.019242
vt 0.613574 0.854379
vt 1.390035 0.019242
vt 0.613574 0.854379
vt 0.958668 0.854379
vt 1.291893 0.952453
vt 1.291893 1.287493
vt 1.173511 1.399173
vt 1.291893 0.952453
vt 1.173511 1.399173
vt 0.344836 1.399173
vt 1.291893 0.952453
vt 0.344836 1.399173
vt 0.463218 0.952453
vt 0.197917 0.810811
vt 0.197917 0.243243
vt 0.031250 0.594595
vt 0.197917 0.810811
vt 0.031250 0.594595
vt 0.031250 1.000000
vt -0.064623 0.783591
vt -0.064623 0.095315
vt 1.006029 0.095315
vt -0.064623 0.783591
vt 1.006029 0.095315
vt 1.006029 0.783591
vt -0.200005 1.601369
vt -0.200005 0.817480
vt 0.229682 0.138109
vt -0.200005 1.601369
vt 0.229682 0.138109
vt 0.229682 1.235554
vt 0.704924 0.658689
vt 0.413421 0.661028
vt 0.413421 0.576013
vt 0.704924 0.658689
vt 0.413421 0.576013
vt 0.714327 0.576013
vt -0.402584 0.610676
vt -0.402683 0.441663
vt 1.913781 0.440188
vt -0.402584 0.610676
vt 1.913781 0.440188
vt 0.684425 0.535661
vt -0.402584 0.610676
vt 0.684425 0.535661
vt 0.140920 0.573169
vt 1.143684 0.284268
vt 1.143684 0.948752
vt -0.202278 0.948752
vt 1.143684 0.284268
vt -0.202278 0.948752
vt -0.202278 -0.384831
vt 1.143684 0.284268
vt -0.202278 -0.384831
vt 0.470703 -0.384831
vt 0.189453 0.314453
vt 0.592665 0.278716
vt 0.401259 0.445946
vt 0.401259 0.445946
vt 0.291884 0.687500
vt 0.189453 0.314453
vt -0.568520 0.454900
vt -0.705360 0.336889
vt -0.705360 -0.489191
vt -0.568520 0.454900
vt -0.705360 -0.489191
vt -0.157998 -0.489191
vt -0.568520 0.454900
vt -0.157998 -0.489191
vt -0.157998 -0.164660
vt 0.250000 0.594595
vt 0.031250 0.432432
vt 0.125000 0.148649
vt -0.596071 -0.068897
vt -0.596071 -0.420508
vt -1.075620 -0.420508
vt -0.596071 -0.068897
vt -1.075620 -0.420508
vt -1.075620 0.985938
vt 0.640625 0.305743
vt 0.751953 0.251953
vt 0.750000 0.393581
vt 0.871144 0.484797
vt 0.871144 -0.027403
vt 0.041981 -0.027403
vt 0.871144 0.484797
vt 0.041981 -0.027403
vt 0.041981 0.996998
vt 0.871144 0.484797
vt 0.041981 0.996998
vt 0.767499 0.996998
vt -0.421708 0.228026
vt -0.766802 0.854379
vt -0.766802 1.336188
vt -0.421708 0.228026
vt -0.766802 1.336188
vt -0.651771 1.705576
vt -0.421708 0.228026
vt -0.651771 1.705576
vt -0.306677 1.368309
vt -0.421708 0.228026
vt -0.306677 1.368309
vt -0.306677 0.356509
vt 1.989891 0.411910
vt 1.989891 1.474013
vt 1.422256 1.474013
vt 1.989891 0.411910
vt 1.422256 1.474013
vt 1.422256 0.057876
vt 1.989891 0.411910
vt 1.422256 0.057876
vt 1.706074 0.057876
vt 0.750000 0.393581
vt 0.626953 0.439453
vt 0.640625 0.305743
vt -0.596071 -0.068897
vt -1.075620 0.985938
vt -0.835846 0.985938
vt -0.596071 -0.068897
vt -0.835846 0.985938
vt -0.715959 0.458521
vt 0.734154 0.739668
vt 0.050696 0.751466
vt -0.037357 0.642918
vt 0.734154 0.739668
vt -0.037357 0.642918
vt 0.381943 0.645277
vt 0.734154 0.739668
vt 0.381943 0.645277
vt 0.767698 0.642088
vt 0.093750 0.371622
vt 0.062500 0.594595
vt 0.117188 0.594595
vt 0.093750 0.371622
vt 0.117188 0.594595
vt 0.214844 0.418919
vt -0.518852 0.079608
vt 0.697509 0.079608
vt 0.859690 0.859326
vt -0.518852 0.079608
vt 0.859690 0.859326
vt 0.048783 0.859326
vt -0.518852 0.079608
vt 0.048783 0.859326
vt -0.316125 0.469467
vt 0.214844 0.418919
vt 0.276042 0.594595
vt 0.189453 0.626953
vt 0.214844 0.418919
vt 0.189453 0.626953
vt 0.093750 0.371622
vt 0.429688 0.585938
vt 0.917969 0.550781
vt 0.429687 0.512563
vt 0.687500 0.148649
vt 0.625000 0.000000
vt 0.625000 0.594595
vt 0.687500 0.148649
vt 0.625000 0.594595
vt 0.687500 0.445946
vt 1.801674 0.985938
vt 2.760773 0.985938
vt 2.760773 -0.420508
vt 1.801674 0.985938
vt 2.760773 -0.420508
vt 1.801674 -0.420508
vt 0.585938 0.539062
vt 0.625000 0.594595
vt 0.765625 0.418919
vt 0.939453 0.376953
vt 0.814453 0.564453
vt 0.751953 0.564453
vt 0.939453 0.376953
vt 0.751953 0.564453
vt 0.751953 0.126953
vt 0.939453 0.376953
vt 0.751953 0.126953
vt 0.939453 0.189453
vt 0.843750 0.371094
vt 0.750000 0.000000
vt 0.687500 0.445946
vt 0.687500 0.445946
vt 0.750000 0.000000
vt 0.687500 0.148649
vt 0.750000 0.000000
vt 0.625000 0.000000
vt 0.687500 0.148649
vt 0.765625 0.418919
vt 0.562500 0.441406
vt 0.625000 0.594595
vn 0.000000 1.000000 0.000000
vn 0.000000 1.000000 0.000000
vn 0.000000 1.000000 0.000000
vn 0.000000 1.000000 0.000000
vn 0.000000 1.000000 0.000000
vn 0.000000 1.000000 0.000000
vn 0.000000 0.000000 1.000000
vn 0.000000 0.000000 1.000000
vn 0.000000 0.000000 1.000000
vn 0.000000 0.000000 1.000000
vn 0.000000 0.000000 1.000000
vn 0.000000 0.000000 1.000000
vn 0.000000 0.000000 1.000000
vn 0.000000 0.000000 1.000000
vn 0.000000 0.000000 1.000000
vn 0.000000 0.000000 1.000000
vn 0.000000 0.000000 1.000000
vn 0.000000 0.000000 1.000000
vn 1.000000 0.000000 0.000000
vn 1.000000 0.000000 0.000000
vn 1.000000 0.000000 0.000000
vn 1.000000 0.000000 0.000000
vn 1.000000 0.000000 0.000000
vn 1.000000 0.000000 0.000000
vn 1.000000 0.000000 0.000000
vn 1.000000 0.000000 0.000000
vn 1.000000 0.000000 0.000000
vn 1.000000 0.000000 0.000000
vn 1.000000 0.000000 0.000000
vn 1.000000 0.000000 0.000000
vn 1.000000 0.000000 0.000000
vn 1.000000 0.000000 0.000000
vn 1.000000 0.000000 0.000000
vn -0.707107 0.000000 -0.707107
vn -0.707107 0.000000 -0.707107
vn -0.707107 0.000000 -0.707107
vn -0.707107 0.000000 -0.707107
vn -0.707107 0.000000 -0.707107
vn -0.707107 0.000000 -0.707107
vn 0.149236 -0.081401 -0.985445
vn 0.000000 -0.000000 -1.000000
vn 0.000000 -0.000000 -1.000000
vn 0.149236 -0.081401 -0.985445
vn 0.000000 -0.000000 -1.000000
vn 0.000000 -0.000000 -1.000000
vn -0.707107 0.000000 -0.707107
vn -0.707107 0.000000 -0.707107
vn -0.707107 0.000000 -0.707107
vn -0.707107 0.000000 -0.707107
vn -0.707107 0.000000 -0.707107
vn -0.707107 0.000000 -0.707107
vn -0.707107 0.000000 -0.707107
vn -0.707107 -0.000000 -0.707107
vn -0.707107 0.000000 -0.707107
vn 0.514496 -0.000000 -0.857493
vn 0.514496 -0.000000 -0.857493
vn 0.514496 -0.000000 -0.857493
vn 0.514496 -0.000000 -0.857493
vn 0.514496 -0.000000 -0.857493
vn 0.514496 -0.000000 -0.857493
vn -0.316680 0.948518 0.005219
vn -0.214187 0.953021 -0.214187
vn -0.408248 0.816497 -0.408248
vn -0.316680 0.948518 0.005219
vn -0.408248 0.816497 -0.408248
vn -0.408248 0.816497 -0.408248
vn -0.316680 0.948518 0.005219
vn -0.408248 0.816497 -0.408248
vn -0.408248 0.816497 -0.408248
vn 0.536875 0.843661 0.000000
vn 0.536875 0.843661 0.000000
vn 0.536875 0.843661 0.000000
vn 0.536875 0.843661 0.000000
vn 0.536875 0.843661 0.000000
vn 0.536875 0.843661 0.000000
vn 0.645320 0.682826 0.342507
vn 0.646426 0.612497 0.454952
vn 0.569210 0.822192 -0.000000
vn 0.645320 0.682826 0.342507
vn 0.569210 0.822192 -0.000000
vn 0.298168 0.954514 -0.000000
vn 0.645320 0.682826 0.342507
vn 0.298168 0.954514 -0.000000
vn 0.337856 0.931011 0.138105
vn 0.981476 0.062939 -0.180949
vn 0.926592 0.123546 -0.355195
vn 0.981476 0.062939 -0.180949
vn 0.606788 0.513436 0.606788
vn 0.606788 0.513436 0.606788
vn 0.771704 0.548988 0.321068
vn 0.606788 0.513436 0.606788
vn 0.771704 0.548988 0.321068
vn 0.645320 0.682826 0.342507
vn 0.216670 0.688909 0.691707
vn 0.645320 0.682826 0.342507
vn 0.337856 0.931011 0.138105
vn 0.216670 0.688909 0.691707
vn 0.337856 0.931011 0.138105
vn 0.138105 0.931011 0.337856
vn -1.000000 0.000000 0.000000
vn -0.894427 -0.000000 -0.447214
vn -1.000000 -0.000000 -0.000000
vn -1.000000 0.000000 0.000000
vn -1.000000 -0.000000 -0.000000
vn -1.000000 0.000000 0.000000
vn -1.000000 0.000000 0.000000
vn -1.000000 0.000000 0.000000
vn -1.000000 0.000000 0.000000
vn 0.216670 0.688909 0.691707
vn -0.000000 0.700878 0.713282
vn 0.009646 0.537867 0.842974
vn -0.000000 0.830406 0.557158
vn -0.000000 0.830406 0.557158
vn -0.000000 0.700878 0.713282
vn -0.000000 0.830406 0.557158
vn -0.000000 0.700878 0.713282
vn 0.216670 0.688909 0.691707
vn -0.000000 0.830406 0.557158
vn 0.216670 0.688909 0.691707
vn 0.138105 0.931011 0.337856
vn -0.000000 0.830406 0.557158
vn 0.138105 0.931011 0.337856
vn -0.000000 0.954514 0.298168
vn 0.009646 0.537867 0.842974
vn 0.019288 0.520768 0.853481
vn 0.330249 0.545533 0.770279
vn 0.009646 0.537867 0.842974
vn 0.330249 0.545533 0.770279
vn 0.216670 0.688909 0.691707
vn 0.646426 0.612497 0.454952
vn 0.645320 0.682826 0.342507
vn 0.771704 0.548988 0.321068
vn 0.646426 0.612497 0.454952
vn 0.771704 0.548988 0.321068
vn 0.602213 0.370593 0.707107
vn 0.016917 0.844237 0.535704
vn 0.016917 0.844237 0.535704
vn 0.016917 0.844237 0.535704
vn 0.016917 0.844237 0.535704
vn 0.016917 0.844237 0.535704
vn 0.016917 0.844237 0.535704
vn 0.016917 0.844237 0.535704
vn 0.016917 0.844237 0.535704
vn 0.016917 0.844237 0.535704
vn 0.000000 0.000000 -1.000000
vn 0.000000 0.000000 -1.000000
vn 0.000000 0.000000 -1.000000
vn 0.000000 0.000000 -1.000000
vn 0.000000 0.000000 -1.000000
vn 0.000000 0.000000 -1.000000
vn -1.000000 -0.000000 -0.000000
vn -1.000000 -0.000000 -0.000000
vn -1.000000 -0.000000 -0.000000
vn -1.000000 -0.000000 -0.000000
vn -1.000000 -0.000000 -0.000000
vn -1.000000 -0.000000 -0.000000
vn 0.000000 0.000000 1.000000
vn 0.000000 0.000000 1.000000
vn 0.000000 0.000000 1.000000
vn 0.000000 0.000000 1.000000
vn 0.000000 0.000000 1.000000
vn 0.000000 0.000000 1.000000
vn 0.000000 1.000000 0.000000
vn 0.000000 1.000000 0.000000
vn 0.000000 1.000000 0.000000
vn 0.000000 1.000000 0.000000
vn 0.000000 1.000000 0.000000
vn 0.000000 1.000000 0.000000
vn 0.000000 1.000000 0.000000
vn 0.000000 1.000000 0.000000
vn 0.000000 1.000000 0.000000
vn 0.000000 1.000000 0.000000
vn 0.000000 1.000000 0.000000
vn 0.000000 1.000000 0.000000
vn 0.000000 1.000000 0.000000
vn 0.000000 1.000000 0.000000
vn 0.000000 1.000000 0.000000
vn -0.940123 -0.251248 0.230311
vn -1.000000 -0.000000 0.000000
vn -1.000000 -0.000000 0.000000
vn -0.940123 -0.251248 0.230311
vn -1.000000 -0.000000 0.000000
vn -1.000000 -0.000000 0.000000
vn -0.940123 -0.251248 0.230311
vn -1.000000 -0.000000 0.000000
vn -0.831010 -0.452401 0.323659
vn -0.831010 -0.452401 0.323659
vn -0.484500 -0.753666 0.444125
vn -0.638943 -0.625630 0.447592
vn -0.638943 -0.625630 0.447592
vn -0.940123 -0.251248 0.230311
vn -0.831010 -0.452401 0.323659
vn -0.857493 0.000000 0.514496
vn -0.857493 0.000000 0.514496
vn -0.857493 0.000000 0.514496
vn -0.857493 0.000000 0.514496
vn -0.857493 0.000000 0.514496
vn -0.857493 0.000000 0.514496
vn -0.857493 0.000000 0.514496
vn -0.857493 0.000000 0.514496
vn -0.857493 0.000000 0.514496
vn -0.364932 0.432511 0.824475
vn -0.364932 0.432511 0.824475
vn -0.364932 0.432511 0.824475
vn -0.707107 -0.000000 -0.707107
vn -0.707107 -0.000000 -0.707107
vn -0.707107 -0.000000 -0.707107
vn -0.707107 -0.000000 -0.707107
vn -0.707107 -0.000000 -0.707107
vn -0.707107 -0.000000 -0.707107
vn -0.000000 0.830406 0.557158
vn -0.000000 0.830406 0.557158
vn 0.000000 0.838444 0.544988
vn 0.000000 0.000000 -1.000000
vn 0.000000 -0.000000 -1.000000
vn -0.894427 -0.000000 -0.447214
vn 0.000000 0.000000 -1.000000
vn -0.894427 -0.000000 -0.447214
vn 0.000000 0.000000 -1.000000
vn 0.000000 0.000000 -1.000000
vn 0.000000 0.000000 -1.000000
vn 0.000000 0.000000 -1.000000
vn 1.000000 0.000000 0.000000
vn 1.000000 0.000000 0.000000
vn 0.981476 0.062939 -0.180949
vn 1.000000 0.000000 0.000000
vn 0.981476 0.062939 -0.180949
vn 0.981476 0.062939 -0.180949
vn 1.000000 0.000000 0.000000
vn 0.981476 0.062939 -0.180949
vn 1.000000 -0.000000 0.000000
vn 1.000000 0.000000 0.000000
vn 1.000000 -0.000000 0.000000
vn 1.000000 -0.000000 0.000000
vn 0.000000 0.000000 1.000000
vn 0.000000 0.000000 1.000000
vn 0.000000 0.000000 1.000000
vn 0.000000 0.000000 1.000000
vn 0.000000 0.000000 1.000000
vn 0.000000 0.000000 1.000000
vn 0.000000 0.000000 1.000000
vn 0.000000 0.000000 1.000000
vn 0.000000 0.000000 1.000000
vn 0.686398 -0.686398 0.240239
vn 0.686398 -0.686398 0.240239
vn 0.686398 -0.686398 0.240239
vn -0.707107 -0.000000 -0.707107
vn -0.707107 -0.000000 -0.707107
vn -0.707107 0.000000 -0.707107
vn -0.707107 -0.000000 -0.707107
vn -0.707107 0.000000 -0.707107
vn -0.707107 0.000000 -0.707107
vn -0.243237 0.943782 0.223856
vn 0.000000 1.000000 0.000000
vn 0.000000 1.000000 0.000000
vn -0.243237 0.943782 0.223856
vn 0.000000 1.000000 0.000000
vn -0.214187 0.953021 -0.214187
vn -0.243237 0.943782 0.223856
vn -0.214187 0.953021 -0.214187
vn -0.316680 0.948518 0.005219
vn 0.367132 0.249306 -0.896137
vn 0.367132 0.249306 -0.896137
vn 0.367132 0.249306 -0.896137
vn 0.367132 0.249306 -0.896137
vn 0.367132 0.249306 -0.896137
vn 0.367132 0.249306 -0.896137
vn 0.645320 0.682826 0.342507
vn 0.216670 0.688909 0.691707
vn 0.330249 0.545533 0.770279
vn 0.645320 0.682826 0.342507
vn 0.330249 0.545533 0.770279
vn 0.606788 0.513436 0.606788
vn 0.645320 0.682826 0.342507
vn 0.606788 0.513436 0.606788
vn 0.606788 0.513436 0.606788
vn -0.459125 0.781449 0.422542
vn -0.243237 0.943782 0.223856
vn -0.316680 0.948518 0.005219
vn -0.459125 0.781449 0.422542
vn -0.316680 0.948518 0.005219
vn -0.459125 0.781449 0.422542
vn -0.894427 -0.000000 -0.447214
vn 0.000000 -0.000000 -1.000000
vn -0.707107 -0.000000 -0.707107
vn 0.403725 -0.083811 -0.911034
vn 0.149236 -0.081401 -0.985445
vn 0.000000 -0.000000 -1.000000
vn 0.403725 -0.083811 -0.911034
vn 0.000000 -0.000000 -1.000000
vn 0.000000 -0.000000 -1.000000
vn -0.707107 -0.000000 -0.707107
vn 0.000000 -0.000000 -1.000000
vn 0.000000 -0.000000 -1.000000
vn -0.707107 -0.000000 -0.707107
vn 0.000000 -0.000000 -1.000000
vn 0.000000 -0.000000 -1.000000
vn 0.814601 0.564361 -0.133868
vn 0.759257 0.650791 0.000000
vn 0.879226 0.421626 -0.221797
vn -1.000000 -0.000000 -0.000000
vn -0.894427 -0.000000 -0.447214
vn -0.707107 -0.000000 -0.707107
vn -1.000000 -0.000000 -0.000000
vn -0.707107 -0.000000 -0.707107
vn -1.000000 -0.000000 -0.000000
vn -1.000000 -0.000000 -0.000000
vn -1.000000 -0.000000 -0.000000
vn -1.000000 -0.000000 -0.000000
vn 0.879226 0.421626 -0.221797
vn 0.726018 -0.048301 -0.685978
vn 0.861792 0.195457 -0.468093
vn 0.861792 0.195457 -0.468093
vn 0.726018 -0.048301 -0.685978
vn 0.403725 -0.083811 -0.911034
vn 0.726018 -0.048301 -0.685978
vn 0.149236 -0.081401 -0.985445
vn 0.403725 -0.083811 -0.911034
vn 0.879226 0.421626 -0.221797
vn 0.861792 0.195457 -0.468093
vn 0.814601 0.564361 -0.133868
f 52/1/1 6/2/2 9/3/3
f 52/4/4 9/5/5 51/6/6
f 2/7/7 8/8/8 14/9/9
f 2/10/10 14/11/11 40/12/12
f 40/13/13 14/14/14 7/15/15
f 40/16/16 7/17/17 39/18/18
f 1/19/19 12/20/20 11/21/21
f 11/22/22 13/23/23 46/24/24
f 11/25/25 46/26/26 1/27/27
f 37/28/28 14/29/29 27/30/30
f 37/31/31 27/32/32 34/33/33
f 15/34/34 16/35/35 19/36/36
f 15/37/37 19/38/38 18/39/39
f 59/40/40 4/41/41 10/42/42
f 59/43/43 10/44/44 57/45/45
f 22/46/46 10/47/47 4/48/48
f 22/49/49 4/50/50 20/51/51
f 42/52/52 21/53/53 53/54/54
f 15/55/55 18/56/56 22/57/57
f 15/58/58 22/59/59 20/60/60
f 42/61/61 22/62/62 18/63/63
f 42/64/64 18/65/65 19/66/66
f 42/67/67 19/68/68 43/69/69
f 34/70/70 32/71/71 33/72/72
f 34/73/73 33/74/74 37/75/75
f 26/76/76 27/77/77 14/78/78
f 26/79/79 14/80/80 8/81/81
f 26/82/82 8/83/83 25/84/84
f 44/85/85 45/86/86 36/87/87
f 49/88/88 51/89/89 9/90/90
f 49/91/91 9/92/92 26/93/93
f 24/94/94 26/95/95 25/96/96
f 24/97/97 25/98/98 23/99/99
f 38/100/100 29/101/101 54/102/102
f 38/103/103 54/104/104 30/105/105
f 38/106/106 30/107/107 35/108/108
f 24/109/109 30/110/110 54/111/111
f 1/112/112 48/113/113 30/114/114
f 1/115/115 30/116/116 24/117/117
f 1/118/118 24/119/119 23/120/120
f 1/121/121 23/122/122 12/123/123
f 54/124/124 55/125/125 5/126/126
f 54/127/127 5/128/128 24/129/129
f 27/130/130 26/131/131 9/132/132
f 27/133/133 9/134/134 63/135/135
f 31/136/136 36/137/137 45/138/138
f 31/139/139 45/140/140 38/141/141
f 31/142/142 38/143/143 35/144/144
f 34/145/145 27/146/146 28/147/147
f 34/148/148 28/149/149 32/150/150
f 28/151/151 7/152/152 33/153/153
f 28/154/154 33/155/155 32/156/156
f 33/157/157 7/158/158 14/159/159
f 33/160/160 14/161/161 37/162/162
f 57/163/163 10/164/164 5/165/165
f 57/166/166 5/167/167 55/168/168
f 9/169/169 6/170/170 7/171/171
f 9/172/172 7/173/173 28/174/174
f 9/175/175 28/176/176 63/177/177
f 39/178/178 7/179/179 6/180/180
f 39/181/181 6/182/182 3/183/183
f 39/184/184 3/185/185 41/186/186
f 41/187/187 2/188/188 40/189/189
f 40/190/190 39/191/191 41/192/192
f 43/193/193 19/194/194 16/195/195
f 43/196/196 16/197/197 17/198/198
f 43/199/199 17/200/200 21/201/201
f 42/202/202 43/203/203 21/204/204
f 21/205/205 17/206/206 3/207/207
f 21/208/208 3/209/209 6/210/210
f 48/211/211 1/212/212 46/213/213
f 44/214/214 13/215/215 29/216/216
f 44/217/217 29/218/218 38/219/219
f 44/220/220 38/221/221 45/222/222
f 46/223/223 13/224/224 44/225/225
f 46/226/226 44/227/227 36/228/228
f 46/229/229 36/230/230 31/231/231
f 46/232/232 31/233/233 47/234/234
f 47/235/235 31/236/236 35/237/237
f 47/238/238 35/239/239 30/240/240
f 47/241/241 30/242/242 48/243/243
f 46/244/244 47/245/245 48/246/246
f 21/247/247 6/248/248 52/249/249
f 21/250/250 52/251/251 53/252/252
f 50/253/253 5/254/254 10/255/255
f 50/256/256 10/257/257 22/258/258
f 50/259/259 22/260/260 42/261/261
f 53/262/262 52/263/263 51/264/264
f 53/265/265 51/266/266 49/267/267
f 26/268/268 24/269/269 5/270/270
f 26/271/271 5/272/272 50/273/273
f 26/274/274 50/275/275 49/276/276
f 49/277/277 50/278/278 42/279/279
f 49/280/280 42/281/281 53/282/282
f 29/283/283 13/284/284 56/285/285
f 60/286/286 59/287/287 57/288/288
f 60/289/289 57/290/290 61/291/291
f 56/292/292 13/293/293 11/294/294
f 56/295/295 11/296/296 58/297/297
f 57/298/298 55/299/299 54/300/300
f 54/301/301 29/302/302 56/303/303
f 54/304/304 56/305/305 58/306/306
f 54/307/307 58/308/308 62/309/309
f 54/310/310 62/311/311 61/312/312
f 61/313/313 62/314/314 60/315/315
f 62/316/316 59/317/317 60/318/318
f 54/319/319 61/320/320 57/321/321
