v -24.000000 0.000000 -24.000000
v 24.000000 23.290352 -0.000002
v 19.000000 23.290352 -4.500001
v -24.000000 0.000000 0.000000
v -24.000000 0.000000 8.000000
v -24.000000 0.000000 16.000000
v -24.000000 0.000000 24.000000
v 24.000000 23.290352 -8.000002
v 20.500004 11.750000 -23.999996
v 24.000002 23.290352 15.999998
v -16.000000 1.704751 16.000000
v -16.000000 6.663784 20.500000
v -16.000000 0.000000 24.000000
v -4.000000 0.000000 -4.500000
v -4.500000 4.040140 10.000000
v -4.500000 11.448038 19.000000
v -8.000000 0.000000 24.000000
v 5.000000 4.892160 4.500000
v 11.500000 15.377958 11.000000
v 0.000000 0.000000 24.000000
v 8.000000 0.000000 24.000000
v 16.000000 0.000000 24.000000
v 24.000000 0.000000 24.000000
v 16.000000 23.290352 24.000000
v 24.000000 23.290352 24.000000
v 8.000000 23.290352 24.000000
v 0.000000 23.290352 24.000000
v 11.500000 23.290352 11.000000
v -8.000000 23.290352 24.000000
v -4.500000 23.290352 19.000000
v -16.000000 23.290352 24.000000
v -16.000000 23.290352 20.500000
v -24.000004 11.750000 20.499996
v 24.000000 23.290352 7.999998
v 23.999998 23.290352 -16.000002
v -0.000002 0.000000 -24.000000
v 7.999998 0.000000 -24.000000
v 15.999998 0.000000 -24.000002
v 23.999998 0.000000 -24.000002
v 20.499998 23.290352 -16.000002
v 24.000002 0.000000 15.999998
v 15.999999 1.704751 -16.000002
v 20.499998 6.663784 -16.000002
v 23.999998 0.000000 -16.000002
v 10.000000 4.040140 -4.500001
v 19.000000 11.448038 -4.500001
v 24.000000 0.000000 -8.000002
v 24.000000 0.000000 -0.000002
v 24.000000 0.000000 7.999998
v 20.500004 0.000000 -23.999996
v -24.000004 0.000000 20.499996
v -24.000000 11.645176 24.000000
v 23.999998 11.645176 -24.000002
vt 0.000000 0.000000
vt 0.000000 0.000000
vt 0.000000 0.000000
vt 0.000000 0.000000
vt 0.000000 0.000000
vt 0.000000 0.000000
vt 0.000000 0.000000
vt 0.000000 0.000000
vt 0.000000 0.000000
vt 0.000000 0.000000
vt 0.000000 0.000000
vt 0.000000 0.000000
vt 0.000000 0.000000
vt 0.000000 0.000000
vt 0.000000 0.000000
vt 0.000000 0.000000
vt 0.000000 0.000000
vt 0.000000 0.000000
vt 0.000000 0.000000
vt 0.000000 0.000000
vt 0.000000 0.000000
vt 0.000000 0.000000
vt 0.000000 0.000000
vt 0.000000 0.000000
vt 0.000000 0.000000
vt 0.000000 0.000000
vt 0.000000 0.000000
vt 0.000000 0.000000
vt 0.000000 0.000000
vt 0.000000 0.000000
vt 0.000000 0.000000
vt 0.000000 0.000000
vt 0.000000 0.000000
vt 0.000000 0.000000
vt 0.000000 0.000000
vt 0.000000 0.000000
vt 0.000000 0.000000
vt 0.000000 0.000000
vt 0.000000 0.000000
vt 0.000000 0.000000
vt 0.000000 0.000000
vt 0.000000 0.000000
vt 0.000000 0.000000
vt 0.000000 0.000000
vt 0.000000 0.000000
vt 0.000000 0.000000
vt 0.000000 0.000000
vt 0.000000 0.000000
vt 0.000000 0.000000
vt 0.000000 0.000000
vt 0.000000 0.000000
vt 0.000000 0.000000
vt 0.000000 0.000000
vt 0.000000 0.000000
vt 0.000000 0.000000
vt 0.000000 0.000000
vt 0.000000 0.000000
vt 0.000000 0.000000
vt 0.000000 0.000000
vt 0.000000 0.000000
vt 0.000000 0.000000
vt 0.000000 0.000000
vt 0.000000 0.000000
vt 0.000000 0.000000
vt 0.000000 0.000000
vt 0.000000 0.000000
vt 0.000000 0.000000
vt 0.000000 0.000000
vt 0.000000 0.000000
vt 0.000000 0.000000
vt 0.000000 0.000000
vt 0.000000 0.000000
vt 0.000000 0.000000
vt 0.000000 0.000000
vt 0.000000 0.000000
vt 0.000000 0.000000
vt 0.000000 0.000000
vt 0.000000 0.000000
vt 0.000000 0.000000
vt 0.000000 0.000000
vt 0.000000 0.000000
vt 0.000000 0.000000
vt 0.000000 0.000000
vt 0.000000 0.000000
vt 0.000000 0.000000
vt 0.000000 0.000000
vt 0.000000 0.000000
vt 0.000000 0.000000
vt 0.000000 0.000000
vt 0.000000 0.000000
vt 0.000000 0.000000
vt 0.000000 0.000000
vt 0.000000 0.000000
vt 0.000000 0.000000
vt 0.000000 0.000000
vt 0.000000 0.000000
vt 0.000000 0.000000
vt 0.000000 0.000000
vt 0.000000 0.000000
vt 0.000000 0.000000
vt 0.000000 0.000000
vt 0.000000 0.000000
vt 0.000000 0.000000
vt 0.000000 0.000000
vt 0.000000 0.000000
vt 0.000000 0.000000
vt 0.000000 0.000000
vt 0.000000 0.000000
vt 0.000000 0.000000
vt 0.000000 0.000000
vt 0.000000 0.000000
vt 0.000000 0.000000
vt 0.000000 0.000000
vt 0.000000 0.000000
vt 0.000000 0.000000
vt 0.000000 0.000000
vt 0.000000 0.000000
vt 0.000000 0.000000
vt 0.000000 0.000000
vt 0.000000 0.000000
vt 0.000000 0.000000
vt 0.000000 0.000000
vt 0.000000 0.000000
vt 0.000000 0.000000
vt 0.000000 0.000000
vt 0.000000 0.000000
vt 0.000000 0.000000
vt 0.000000 0.000000
vt 0.000000 0.000000
vt 0.000000 0.000000
vt 0.000000 0.000000
vt 0.000000 0.000000
vt 0.000000 0.000000
vt 0.000000 0.000000
vt 0.000000 0.000000
vt 0.000000 0.000000
vt 0.000000 0.000000
vt 0.000000 0.000000
vt 0.000000 0.000000
vt 0.000000 0.000000
vt 0.000000 0.000000
vt 0.000000 0.000000
vt 0.000000 0.000000
vt 0.000000 0.000000
vt 0.000000 0.000000
vt 0.000000 0.000000
vt 0.000000 0.000000
vt 0.000000 0.000000
vt 0.000000 0.000000
vt 0.000000 0.000000
vt 0.000000 0.000000
vt 0.000000 0.000000
vt 0.000000 0.000000
vt 0.000000 0.000000
vt 0.000000 0.000000
vt 0.000000 0.000000
vt 0.000000 0.000000
vt 0.000000 0.000000
vt 0.000000 0.000000
vt 0.000000 0.000000
vt 0.000000 0.000000
vt 0.000000 0.000000
vt 0.000000 0.000000
vt 0.000000 0.000000
vt 0.000000 0.000000
vt 0.000000 0.000000
vt 0.000000 0.000000
vt 0.000000 0.000000
vt 0.000000 0.000000
vt 0.000000 0.000000
vt 0.000000 0.000000
vt 0.000000 0.000000
vt 0.000000 0.000000
vt 0.000000 0.000000
vt 0.000000 0.000000
vt 0.000000 0.000000
vt 0.000000 0.000000
vt 0.000000 0.000000
vt 0.000000 0.000000
vt 0.000000 0.000000
vt 0.000000 0.000000
vt 0.000000 0.000000
vt 0.000000 0.000000
vt 0.000000 0.000000
vt 0.000000 0.000000
vt 0.000000 0.000000
vt 0.000000 0.000000
vt 0.000000 0.000000
vt 0.000000 0.000000
vt 0.000000 0.000000
vt 0.000000 0.000000
vt 0.000000 0.000000
vt 0.000000 0.000000
vt 0.000000 0.000000
vt 0.000000 0.000000
vt 0.000000 0.000000
vt 0.000000 0.000000
vt 0.000000 0.000000
vt 0.000000 0.000000
vt 0.000000 0.000000
vt 0.000000 0.000000
vt 0.000000 0.000000
vt 0.000000 0.000000
vt 0.000000 0.000000
vt 0.000000 0.000000
vt 0.000000 0.000000
vt 0.000000 0.000000
vt 0.000000 0.000000
vt 0.000000 0.000000
vt 0.000000 0.000000
vt 0.000000 0.000000
vt 0.000000 0.000000
vt 0.000000 0.000000
vt 0.000000 0.000000
vt 0.000000 0.000000
vt 0.000000 0.000000
vt 0.000000 0.000000
vt 0.000000 0.000000
vt 0.000000 0.000000
vt 0.000000 0.000000
vt 0.000000 0.000000
vt 0.000000 0.000000
vt 0.000000 0.000000
vt 0.000000 0.000000
vt 0.000000 0.000000
vt 0.000000 0.000000
vt 0.000000 0.000000
vt 0.000000 0.000000
vt 0.000000 0.000000
vt 0.000000 0.000000
vt 0.000000 0.000000
vt 0.000000 0.000000
vt 0.000000 0.000000
vt 0.000000 0.000000
vt 0.000000 0.000000
vt 0.000000 0.000000
vt 0.000000 0.000000
vt 0.000000 0.000000
vt 0.000000 0.000000
vt 0.000000 0.000000
vt 0.000000 0.000000
vt 0.000000 0.000000
vt 0.000000 0.000000
vt 0.000000 0.000000
vt 0.000000 0.000000
vt 0.000000 0.000000
vn 0.000001 0.768357 -0.640021
vn 0.000001 0.768357 -0.640021
vn 0.000001 0.768357 -0.640021
vn -0.717343 0.650942 -0.248382
vn -0.433291 0.853157 -0.290485
vn -0.612518 0.672896 -0.414769
vn -0.612518 0.672896 -0.414769
vn -0.404422 0.851901 -0.332728
vn -0.523658 0.675549 -0.519053
vn 1.000000 0.000000 -0.000000
vn 1.000000 0.000000 0.000000
vn 1.000000 0.000000 0.000000
vn 1.000000 0.000000 -0.000000
vn 1.000000 0.000000 0.000000
vn 1.000000 0.000000 -0.000000
vn 1.000000 0.000000 -0.000000
vn 1.000000 0.000000 -0.000000
vn 1.000000 0.000000 -0.000000
vn 1.000000 0.000000 -0.000000
vn 1.000000 0.000000 -0.000000
vn 1.000000 0.000000 -0.000000
vn 1.000000 0.000000 0.000000
vn 1.000000 0.000000 -0.000000
vn 1.000000 0.000000 -0.000000
vn 1.000000 0.000000 0.000000
vn 1.000000 0.000000 -0.000000
vn 1.000000 0.000000 0.000000
vn 1.000000 0.000000 -0.000000
vn 1.000000 0.000000 0.000000
vn 1.000000 0.000000 0.000000
vn 1.000000 0.000000 -0.000000
vn 1.000000 0.000000 0.000000
vn 1.000000 0.000000 -0.000000
vn -0.711683 0.000000 -0.702501
vn -0.958192 0.000000 -0.286126
vn -0.958192 0.000000 -0.286126
vn -0.711683 0.000000 -0.702501
vn -0.958192 0.000000 -0.286126
vn -0.711683 0.000000 -0.702501
vn 0.000000 1.000000 0.000000
vn 0.000000 1.000000 0.000000
vn 0.006549 0.999866 0.014969
vn 0.000000 1.000000 0.000000
vn 0.006549 0.999866 0.014969
vn 0.006549 0.999866 0.014969
vn 0.000000 1.000000 0.000000
vn 0.006549 0.999866 0.014969
vn 0.000000 1.000000 0.000000
vn 0.000000 1.000000 0.000000
vn 0.000000 1.000000 0.000000
vn 0.000000 1.000000 0.000000
vn 0.000000 1.000000 0.000000
vn 0.000000 1.000000 0.000000
vn 0.000000 1.000000 0.000000
vn 0.000000 1.000000 0.000000
vn 0.000000 1.000000 0.000000
vn 0.000000 1.000000 0.000000
vn 0.000000 1.000000 0.000000
vn 0.000000 1.000000 0.000000
vn 0.000000 1.000000 0.000000
vn -0.334904 0.852018 -0.402373
vn -0.137873 0.980928 -0.137005
vn -0.146390 0.986759 -0.069838
vn -0.141753 0.665215 -0.733072
vn -0.248383 0.650942 -0.717343
vn -0.290485 0.853157 -0.433291
vn -1.000000 0.000000 0.000001
vn 0.006549 0.999866 0.014969
vn 0.006549 0.999866 0.014969
vn -1.000000 0.000000 0.000001
vn 0.006549 0.999866 0.014969
vn -1.000000 0.000000 0.000001
vn 1.000000 0.000000 -0.000000
vn 1.000000 0.000000 -0.000000
vn 1.000000 0.000000 -0.000000
vn 1.000000 0.000000 -0.000000
vn 1.000000 0.000000 -0.000000
vn 1.000000 0.000000 -0.000000
vn -0.137873 0.980928 -0.137005
vn 0.000000 1.000000 0.000000
vn -0.146390 0.986759 -0.069838
vn -0.290485 0.853157 -0.433291
vn -0.415769 0.672542 -0.612228
vn -0.334904 0.852018 -0.402373
vn -0.958192 0.000000 -0.286126
vn -0.999067 -0.000000 -0.043194
vn -0.997898 0.000000 -0.064806
vn -0.958192 0.000000 -0.286126
vn -0.997898 0.000000 -0.064806
vn -0.958192 0.000000 -0.286126
vn -0.290485 0.853157 -0.433291
vn -0.146390 0.986759 -0.069838
vn -0.208414 0.978041 0.000000
vn -0.405817 0.821020 -0.401546
vn -0.137873 0.980928 -0.137005
vn -0.334904 0.852018 -0.402373
vn -0.334904 0.852018 -0.402373
vn -0.523658 0.675549 -0.519053
vn -0.405817 0.821020 -0.401546
vn -0.000002 -0.000000 -1.000000
vn -0.000002 0.000000 -1.000000
vn -0.000002 0.000000 -1.000000
vn -0.000002 -0.000000 -1.000000
vn -0.000002 0.000000 -1.000000
vn -0.000002 -0.000000 -1.000000
vn 0.000000 0.000000 1.000000
vn 0.000000 0.000000 1.000000
vn 0.000000 0.000000 1.000000
vn 0.000000 0.000000 1.000000
vn 0.000000 0.000000 1.000000
vn 0.000000 0.000000 1.000000
vn -0.292342 0.000000 -0.956314
vn -0.064806 0.000000 -0.997898
vn -0.043193 0.000000 -0.999067
vn -0.292342 0.000000 -0.956314
vn -0.043193 0.000000 -0.999067
vn -0.292342 0.000000 -0.956314
vn 1.000000 0.000000 -0.000000
vn 1.000000 0.000000 -0.000000
vn 1.000000 0.000000 0.000000
vn 1.000000 0.000000 -0.000000
vn 1.000000 0.000000 0.000000
vn 1.000000 0.000000 0.000000
vn 0.000000 0.000000 1.000000
vn 0.000000 0.000000 1.000000
vn 0.000000 0.000000 1.000000
vn 0.000000 0.000000 1.000000
vn 0.000000 0.000000 1.000000
vn 0.000000 0.000000 1.000000
vn -0.711683 0.000000 -0.702501
vn -0.292342 0.000000 -0.956314
vn -0.292342 0.000000 -0.956314
vn -0.711683 0.000000 -0.702501
vn -0.292342 0.000000 -0.956314
vn -0.711683 0.000000 -0.702501
vn -0.405817 0.821020 -0.401546
vn -0.523658 0.675549 -0.519053
vn -0.404422 0.851901 -0.332728
vn 0.000000 0.000000 1.000000
vn 0.000000 0.000000 1.000000
vn 0.000000 0.000000 1.000000
vn 0.000000 0.000000 1.000000
vn 0.000000 0.000000 1.000000
vn 0.000000 0.000000 1.000000
vn 0.000000 0.000000 1.000000
vn 0.000000 0.000000 1.000000
vn 0.000000 0.000000 1.000000
vn 0.000000 0.000000 1.000000
vn 0.000000 0.000000 1.000000
vn 0.000000 0.000000 1.000000
vn 0.000000 0.000000 1.000000
vn 0.000000 0.000000 1.000000
vn 0.000000 0.000000 1.000000
vn 0.000000 0.000000 1.000000
vn 0.000000 0.000000 1.000000
vn 0.000000 0.000000 1.000000
vn -0.404422 0.851901 -0.332728
vn -0.137873 0.980928 -0.137005
vn -0.405817 0.821020 -0.401546
vn 0.000000 0.000000 1.000000
vn 0.000000 0.000000 1.000000
vn 0.000000 0.000000 1.000000
vn 0.000000 0.000000 1.000000
vn 0.000000 0.000000 1.000000
vn 0.000000 0.000000 1.000000
vn -0.523658 0.675549 -0.519053
vn -0.334904 0.852018 -0.402373
vn -0.415769 0.672542 -0.612228
vn -0.415769 0.672542 -0.612228
vn -0.290485 0.853157 -0.433291
vn -0.248383 0.650942 -0.717343
vn -0.640021 0.768358 -0.000001
vn -0.640021 0.768358 -0.000001
vn -0.640021 0.768358 -0.000001
vn -0.000000 0.978041 -0.208414
vn -0.070700 0.986713 -0.146284
vn -0.433291 0.853157 -0.290485
vn -0.404422 0.851901 -0.332728
vn -0.612518 0.672896 -0.414769
vn -0.433291 0.853157 -0.290485
vn -0.070700 0.986713 -0.146284
vn -0.137873 0.980928 -0.137005
vn -0.404422 0.851901 -0.332728
vn -0.000002 -0.000000 -1.000000
vn 0.014969 0.999866 0.006549
vn 0.014969 0.999866 0.006549
vn -0.000002 -0.000000 -1.000000
vn 0.014969 0.999866 0.006549
vn -0.000002 -0.000000 -1.000000
vn -0.433291 0.853157 -0.290485
vn -0.717343 0.650942 -0.248382
vn -0.733072 0.665215 -0.141753
vn 0.000000 1.000000 0.000000
vn 0.000000 1.000000 0.000000
vn 0.000000 1.000000 0.000000
vn 0.000000 1.000000 0.000000
vn 0.000000 1.000000 0.000000
vn 0.000000 1.000000 0.000000
vn 0.000000 1.000000 0.000000
vn 0.000000 1.000000 0.000000
vn 0.000000 1.000000 0.000000
vn 0.000000 1.000000 0.000000
vn 0.000000 1.000000 0.000000
vn 0.014969 0.999866 0.006549
vn 0.000000 1.000000 0.000000
vn 0.014969 0.999866 0.006549
vn 0.014969 0.999866 0.006549
vn 0.000000 1.000000 0.000000
vn 0.014969 0.999866 0.006549
vn 0.000000 1.000000 0.000000
vn 0.000000 1.000000 0.000000
vn 0.000000 1.000000 0.000000
vn 0.000000 1.000000 0.000000
vn -0.070700 0.986713 -0.146284
vn 0.000000 1.000000 0.000000
vn -0.137873 0.980928 -0.137005
vn 0.000000 1.000000 0.000000
vn 0.000000 1.000000 0.000000
vn 0.000000 1.000000 0.000000
vn 0.000000 1.000000 0.000000
vn -0.137873 0.980928 -0.137005
vn 0.000000 1.000000 0.000000
vn -0.404422 0.851901 -0.332728
vn -0.433291 0.853157 -0.290485
vn -0.070700 0.986713 -0.146284
vn -0.146390 0.986759 -0.069838
vn -0.290485 0.853157 -0.433291
vn -0.334904 0.852018 -0.402373
vn -1.000000 -0.000000 -0.000001
vn -0.997898 0.000000 -0.064806
vn -0.999067 -0.000000 -0.043194
vn -0.043193 0.000000 -0.999067
vn -0.064806 0.000000 -0.997898
vn 0.000000 0.000000 -1.000000
vn -1.000000 -0.000000 -0.000001
vn -0.999067 -0.000000 -0.043194
vn -1.000000 -0.000000 -0.000000
vn -0.043193 0.000000 -0.999067
vn 0.000000 0.000000 -1.000000
vn 0.000000 0.000000 -1.000000
vn -1.000000 0.000000 0.000001
vn -1.000000 0.000000 0.000001
vn -1.000000 0.000000 0.000001
vn -1.000000 0.000000 0.000001
vn -1.000000 0.000000 0.000001
vn -1.000000 0.000000 0.000001
f 50/1/1 38/2/2 43/3/3
f 43/4/4 42/5/5 46/6/6
f 46/7/7 45/8/8 19/9/9
f 10/10/10 25/11/11 23/12/12
f 10/13/13 23/14/14 41/15/15
f 34/16/16 10/17/17 41/18/18
f 34/19/19 41/20/20 49/21/21
f 2/22/22 34/23/23 49/24/24
f 2/25/25 49/26/26 48/27/27
f 8/28/28 2/29/29 48/30/30
f 8/31/31 48/32/32 47/33/33
f 28/34/34 3/35/35 46/36/36
f 28/37/37 46/38/38 19/39/39
f 28/40/40 30/41/41 32/42/42
f 28/43/43 32/44/44 31/45/45
f 28/46/46 31/47/47 29/48/48
f 28/49/49 29/50/50 27/51/51
f 28/52/52 27/53/53 26/54/54
f 28/55/55 26/56/56 24/57/57
f 28/58/58 24/59/59 25/60/60
f 15/61/61 14/62/62 5/63/63
f 6/64/64 12/65/65 11/66/66
f 52/67/67 31/68/68 32/69/69
f 52/70/70 32/71/71 33/72/72
f 35/73/73 8/74/74 47/75/75
f 35/76/76 47/77/77 44/78/78
f 14/79/79 4/80/80 5/81/81
f 11/82/82 16/83/83 15/84/84
f 3/85/85 40/86/86 43/87/87
f 3/88/88 43/89/89 46/90/90
f 11/91/91 5/92/92 6/93/93
f 18/94/94 14/95/95 15/96/96
f 15/97/97 19/98/98 18/99/99
f 53/100/100 39/101/101 50/102/102
f 53/103/103 50/104/104 9/105/105
f 7/106/106 13/107/107 31/108/108
f 7/109/109 31/110/110 52/111/111
f 16/112/112 12/113/113 32/114/114
f 16/115/115 32/116/116 30/117/117
f 35/118/118 44/119/119 39/120/120
f 35/121/121 39/122/122 53/123/123
f 13/124/124 17/125/125 29/126/126
f 13/127/127 29/128/128 31/129/129
f 19/130/130 16/131/131 30/132/132
f 19/133/133 30/134/134 28/135/135
f 18/136/136 19/137/137 45/138/138
f 17/139/139 20/140/140 27/141/141
f 17/142/142 27/143/143 29/144/144
f 20/145/145 21/146/146 26/147/147
f 20/148/148 26/149/149 27/150/150
f 21/151/151 22/152/152 24/153/153
f 21/154/154 24/155/155 26/156/156
f 45/157/157 14/158/158 18/159/159
f 22/160/160 23/161/161 25/162/162
f 22/163/163 25/164/164 24/165/165
f 19/166/166 15/167/167 16/168/168
f 16/169/169 11/170/170 12/171/171
f 12/172/172 6/173/173 51/174/174
f 38/175/175 37/176/176 42/177/177
f 45/178/178 46/179/179 42/180/180
f 37/181/181 14/182/182 45/183/183
f 9/184/184 40/185/185 35/186/186
f 9/187/187 35/188/188 53/189/189
f 42/190/190 43/191/191 38/192/192
f 25/193/193 10/194/194 34/195/195
f 25/196/196 34/197/197 2/198/198
f 25/199/199 2/200/200 8/201/201
f 25/202/202 8/203/203 35/204/204
f 25/205/205 35/206/206 40/207/207
f 25/208/208 40/209/209 3/210/210
f 25/211/211 3/212/212 28/213/213
f 37/214/214 36/215/215 14/216/216
f 36/217/217 1/218/218 4/219/219
f 4/220/220 14/221/221 36/222/222
f 45/223/223 42/224/224 37/225/225
f 5/226/226 11/227/227 15/228/228
f 50/229/229 43/230/230 40/231/231
f 32/232/232 12/233/233 51/234/234
f 50/235/235 40/236/236 9/237/237
f 32/238/238 51/239/239 33/240/240
f 33/241/241 51/242/242 7/243/243
f 33/244/244 7/245/245 52/246/246
