v 11.750000 8.500000 -2.250000
v 15.250000 8.500000 -5.750000
v 15.125000 8.500000 -2.375000
v 11.875000 8.500000 -5.625000
v 11.875000 19.500000 -5.625000
v 15.250000 14.000000 -5.750000
v 15.125000 19.500000 -2.375000
v 11.750000 19.500000 -2.250000
v 11.875000 12.632065 -5.625000
v 15.125000 14.000000 -2.375000
v 11.750000 11.250000 -2.250000
v 11.812500 15.375000 -3.937500
v 11.812500 19.500000 -3.937500
v 13.437500 19.500000 -2.312500
v 13.437500 14.593163 -2.312500
v 11.750000 16.890968 -2.250000
v 11.812500 16.279594 -3.937500
v 13.437500 17.965027 -2.312500
v 13.562500 19.500000 -5.687500
v 15.187500 19.500000 -4.062500
vt 0.000000 0.000000
vt 0.000000 0.000000
vt 0.000000 0.000000
vt 0.000000 0.000000
vt 0.000000 0.000000
vt 0.000000 0.000000
vt 0.000000 0.000000
vt 0.000000 0.000000
vt 0.000000 0.000000
vt 0.000000 0.000000
vt 0.000000 0.000000
vt 0.000000 0.000000
vt 0.000000 0.000000
vt 0.000000 0.000000
vt 0.000000 0.000000
vt 0.000000 0.000000
vt 0.000000 0.000000
vt 0.000000 0.000000
vt 0.000000 0.000000
vt 0.000000 0.000000
vt 0.000000 0.000000
vt 0.000000 0.000000
vt 0.000000 0.000000
vt 0.000000 0.000000
vt 0.000000 0.000000
vt 0.000000 0.000000
vt 0.000000 0.000000
vt 0.000000 0.000000
vt 0.000000 0.000000
vt 0.000000 0.000000
vt 0.000000 0.000000
vt 0.000000 0.000000
vt 0.000000 0.000000
vt 0.000000 0.000000
vt 0.000000 0.000000
vt 0.000000 0.000000
vt 0.000000 0.000000
vt 0.000000 0.000000
vt 0.000000 0.000000
vt 0.000000 0.000000
vt 0.000000 0.000000
vt 0.000000 0.000000
vt 0.000000 0.000000
vt 0.000000 0.000000
vt 0.000000 0.000000
vt 0.000000 0.000000
vt 0.000000 0.000000
vt 0.000000 0.000000
vt 0.000000 0.000000
vt 0.000000 0.000000
vt 0.000000 0.000000
vt 0.000000 0.000000
vt 0.000000 0.000000
vt 0.000000 0.000000
vt 0.000000 0.000000
vt 0.000000 0.000000
vt 0.000000 0.000000
vt 0.000000 0.000000
vt 0.000000 0.000000
vt 0.000000 0.000000
vt 0.000000 0.000000
vt 0.000000 0.000000
vt 0.000000 0.000000
vt 0.000000 0.000000
vt 0.000000 0.000000
vt 0.000000 0.000000
vt 0.000000 0.000000
vt 0.000000 0.000000
vt 0.000000 0.000000
vt 0.000000 0.000000
vt 0.000000 0.000000
vt 0.000000 0.000000
vt 0.000000 0.000000
vt 0.000000 0.000000
vt 0.000000 0.000000
vt 0.000000 0.000000
vt 0.000000 0.000000
vt 0.000000 0.000000
vt 0.000000 0.000000
vt 0.000000 0.000000
vt 0.000000 0.000000
vt 0.000000 0.000000
vt 0.000000 0.000000
vt 0.000000 0.000000
vt 0.000000 0.000000
vt 0.000000 0.000000
vt 0.000000 0.000000
vt 0.000000 0.000000
vt 0.000000 0.000000
vt 0.000000 0.000000
vt 0.000000 0.000000
vt 0.000000 0.000000
vt 0.000000 0.000000
vt 0.000000 0.000000
vt 0.000000 0.000000
vt 0.000000 0.000000
vt 0.000000 0.000000
vt 0.000000 0.000000
vt 0.000000 0.000000
vt 0.000000 0.000000
vt 0.000000 0.000000
vt 0.000000 0.000000
vn 0.000000 1.000000 0.000000
vn 0.000000 1.000000 0.000000
vn 0.000000 1.000000 0.000000
vn 0.000000 1.000000 0.000000
vn 0.000000 1.000000 0.000000
vn 0.000000 1.000000 0.000000
vn 0.000000 1.000000 0.000000
vn 0.000000 1.000000 0.000000
vn 0.000000 1.000000 0.000000
vn 0.000000 1.000000 0.000000
vn 0.000000 1.000000 0.000000
vn 0.000000 1.000000 0.000000
vn 0.000000 1.000000 0.000000
vn 0.000000 1.000000 0.000000
vn 0.000000 1.000000 0.000000
vn -0.037012 0.000000 -0.999315
vn -0.037012 0.000000 -0.999315
vn 0.999315 0.000000 0.037012
vn 0.037012 0.000000 0.999315
vn 0.037012 0.000000 0.999315
vn 0.037012 0.000000 0.999315
vn 0.037012 0.000000 0.999315
vn 0.037012 0.000000 0.999315
vn 0.037012 0.000000 0.999315
vn -0.999315 0.000000 -0.037012
vn -0.999315 0.000000 -0.037012
vn -0.999315 0.000000 -0.037012
vn -0.999315 0.000000 -0.037012
vn -0.999315 0.000000 -0.037012
vn -0.999315 0.000000 -0.037012
vn -0.999315 0.000000 -0.037012
vn -0.999315 0.000000 -0.037012
vn -0.999315 0.000000 -0.037012
vn 0.037012 0.000000 0.999315
vn 0.037012 0.000000 0.999315
vn 0.037012 0.000000 0.999315
vn 0.037012 0.000000 0.999315
vn 0.037012 0.000000 0.999315
vn 0.037012 0.000000 0.999315
vn -0.999315 0.000000 -0.037012
vn -0.999315 0.000000 -0.037012
vn -0.999315 0.000000 -0.037012
vn -0.999315 0.000000 -0.037012
vn -0.999315 0.000000 -0.037012
vn -0.999315 0.000000 -0.037012
vn 0.037012 0.000000 0.999315
vn 0.037012 0.000000 0.999315
vn 0.037012 0.000000 0.999315
vn 0.037012 0.000000 0.999315
vn 0.037012 0.000000 0.999315
vn 0.037012 0.000000 0.999315
vn 0.037012 0.000000 0.999315
vn 0.037012 0.000000 0.999315
vn 0.037012 0.000000 0.999315
vn -0.999315 0.000000 -0.037012
vn -0.999315 0.000000 -0.037012
vn -0.999315 0.000000 -0.037012
vn -0.999315 0.000000 -0.037012
vn -0.999315 0.000000 -0.037012
vn -0.999315 0.000000 -0.037012
vn -0.707107 0.000000 0.707107
vn -0.707107 0.000000 0.707107
vn -0.707107 0.000000 0.707107
vn -0.707107 0.000000 0.707107
vn -0.707107 0.000000 0.707107
vn -0.707107 0.000000 0.707107
vn 0.518919 -0.797368 0.308102
vn 0.518919 -0.797368 0.308102
vn 0.518919 -0.797368 0.308102
vn -0.527246 -0.453927 0.718305
vn -0.527246 -0.453927 0.718305
vn -0.527246 -0.453927 0.718305
vn -0.599264 0.748381 0.284268
vn -0.599264 0.748381 0.284268
vn -0.599264 0.748381 0.284268
vn -0.333191 -0.935579 -0.116945
vn -0.333191 -0.935579 -0.116945
vn -0.333191 -0.935579 -0.116945
vn -0.037012 0.000000 -0.999315
vn -0.037012 0.000000 -0.999315
vn -0.037012 0.000000 -0.999315
vn -0.037012 0.000000 -0.999315
vn -0.037012 0.000000 -0.999315
vn -0.037012 0.000000 -0.999315
vn -0.037012 0.000000 -0.999315
vn -0.037012 0.000000 -0.999315
vn -0.037012 0.000000 -0.999315
vn -0.037012 0.000000 -0.999315
vn -0.037012 0.000000 -0.999315
vn -0.037012 0.000000 -0.999315
vn 0.999315 0.000000 0.037012
vn 0.999315 0.000000 0.037012
vn 0.999315 0.000000 0.037012
vn 0.999315 0.000000 0.037012
vn 0.999315 0.000000 0.037012
vn 0.999315 0.000000 0.037012
vn 0.999315 0.000000 0.037012
vn 0.999315 0.000000 0.037012
vn 0.999315 0.000000 0.037012
vn 0.999315 0.000000 0.037012
vn 0.999315 0.000000 0.037012
vn 0.999315 0.000000 0.037012
f 5/1/1 13/2/2 8/3/3
f 5/4/4 8/5/5 14/6/6
f 5/7/7 14/8/8 7/9/9
f 5/10/10 7/11/11 20/12/12
f 5/13/13 20/14/14 19/15/15
f 6/16/16 19/17/17 20/18/18
f 18/19/19 14/20/20 8/21/21
f 18/22/22 8/23/23 16/24/24
f 13/25/25 5/26/26 9/27/27
f 13/28/28 9/29/29 12/30/30
f 13/31/31 12/32/32 17/33/33
f 11/34/34 1/35/35 3/36/36
f 11/37/37 3/38/38 10/39/39
f 9/40/40 4/41/41 1/42/42
f 9/43/43 1/44/44 11/45/45
f 15/46/46 10/47/47 7/48/48
f 15/49/49 7/50/50 14/51/51
f 15/52/52 14/53/53 18/54/54
f 16/55/55 8/56/56 13/57/57
f 16/58/58 13/59/59 17/60/60
f 17/61/61 12/62/62 15/63/63
f 17/64/64 15/65/65 18/66/66
f 18/67/67 16/68/68 17/69/69
f 12/70/70 9/71/71 10/72/72
f 10/73/73 9/74/74 11/75/75
f 10/76/76 15/77/77 12/78/78
f 6/79/79 2/80/80 4/81/81
f 6/82/82 4/83/83 9/84/84
f 6/85/85 9/86/86 5/87/87
f 6/88/88 5/89/89 19/90/90
f 20/91/91 7/92/92 10/93/93
f 20/94/94 10/95/95 3/96/96
f 20/97/97 3/98/98 2/99/99
f 20/100/100 2/101/101 6/102/102
