v 0.000000 -3.178619 2.428246
v 0.000000 -0.750372 3.928988
v 0.000000 0.750372 -3.928988
v 2.348122 77.567719 -0.618646
v -1.536039 77.567719 1.880692
v -2.263305 77.567719 -0.879691
v 1.427288 -3.178617 -1.964495
v -1.427288 -3.178617 -1.964495
v 3.736690 -0.750371 1.214124
v 3.736690 0.750371 -1.214124
v -3.736690 -0.750371 1.214124
v -3.736690 0.750371 -1.214124
v 2.309401 0.750368 3.178618
v -2.309401 0.750368 3.178618
v 2.309401 -3.178618 0.750369
v -2.309401 -3.178618 0.750369
v 1.313978 77.567719 2.042027
v 0.137239 77.567719 -2.424366
v 2.309401 -0.750368 -3.178618
v -2.309401 -0.750368 -3.178618
v -1.883657 4.851155 -3.448011
v -3.550601 3.350416 -1.682314
v -3.861336 4.851154 0.725971
v 0.502780 3.350416 -3.896686
v 2.697172 4.851154 -2.856958
v -2.697172 3.350414 2.856958
v -0.502780 4.851151 3.896686
v 3.861336 3.350414 -0.725971
v 3.550601 4.851151 1.682314
v 1.883657 3.350412 3.448011
v 1.204862 9.156976 3.739687
v 3.172886 7.656235 2.317271
v 3.928977 9.156976 0.009735
v 3.184331 7.656237 -2.301519
v 1.223379 9.156978 -3.733670
v -1.223379 7.656237 3.733670
v -3.184331 9.156978 2.301519
v -1.204862 7.656239 -3.739687
v -3.172886 9.156979 -2.317271
v -3.928977 7.656239 -0.009736
v -3.794422 11.959453 -1.019472
v -3.668982 13.460191 1.405535
v -2.470520 13.460193 -3.055074
v -0.202965 11.959453 -3.923743
v 2.142116 13.460191 -3.293674
v -2.142116 11.959451 3.293674
v 0.202965 13.460189 3.923743
v 3.668982 11.959451 -1.405535
v 3.794421 13.460189 1.019472
v 2.470520 11.959449 3.055075
v 0.202965 16.951475 3.923743
v 2.470520 15.450737 3.055075
v 3.794421 16.951475 1.019472
v 3.668982 15.450739 -1.405535
v 2.142116 16.951477 -3.293674
v -2.142116 15.450739 3.293674
v -3.668982 16.951477 1.405535
v -0.202965 15.450741 -3.923743
v -2.470520 16.951479 -3.055074
v -3.794422 15.450741 -1.019472
v -3.867243 19.753952 0.693825
v -2.720845 21.254688 2.834424
v -3.536484 21.254692 -1.711791
v -1.854910 19.753952 -3.463562
v 0.535176 21.254688 -3.892369
v -0.535177 19.753952 3.892368
v 1.854910 21.254688 3.463562
v 2.720845 19.753952 -2.834424
v 3.867242 21.254688 -0.693825
v 3.536485 19.753948 1.711791
v 2.981861 25.314320 2.558409
v 3.916171 23.813580 0.317102
v 3.354637 25.314320 -2.045326
v 1.511746 23.813583 -3.626510
v -0.908581 25.314320 -3.822490
v 0.908580 23.813583 3.822490
v -1.511747 25.314320 3.626510
v -2.981861 23.813583 -2.558409
v -3.916171 25.314323 -0.317102
v -3.354638 23.813583 2.045327
v -2.131029 27.629641 3.300862
v 0.216159 29.130377 3.923040
v -3.664235 29.130381 1.417866
v -3.797829 27.629641 -1.006705
v -2.480782 29.130377 -3.046749
v 2.480780 27.629641 3.046750
v 3.797829 29.130377 1.006706
v -0.216160 27.629641 -3.923039
v 2.131027 29.130377 -3.300860
v 3.664234 27.629637 -1.417866
v 3.430701 33.677166 1.915008
v 3.901108 32.176426 -0.467242
v 2.881426 33.677166 -2.671020
v 0.761136 32.176430 -3.854560
v -1.649882 33.677166 -3.565789
v 1.649881 32.176430 3.565789
v -0.761137 33.677166 3.854561
v -3.430701 32.176430 -1.915007
v -3.901108 33.677170 0.467242
v -2.881427 32.176430 2.671021
v -3.542073 36.560833 1.700204
v -1.866242 38.061569 3.457472
v -3.864950 38.061573 -0.706483
v -2.711551 36.560833 -2.843318
v -0.522430 38.061569 -3.894102
v 0.522429 36.560833 3.894102
v 2.711551 38.061569 2.843319
v 1.866242 36.560833 -3.457471
v 3.542072 38.061569 -1.700203
v 3.864950 36.560829 0.706483
v 3.664361 42.770748 1.417542
v 3.797739 41.270008 -1.007043
v 2.480512 42.770748 -3.046970
v 0.215812 41.270012 -3.923059
v -2.131322 42.770748 -3.300672
v 2.131320 41.270012 3.300672
v -0.215813 42.770748 3.923060
v -3.664362 41.270012 -1.417541
v -3.797740 42.770752 1.007043
v -2.480514 41.270012 3.046972
v -1.248136 45.654415 3.725471
v 1.180013 47.155151 3.747604
v -3.199538 47.155155 2.280333
v -3.928829 45.654415 -0.035813
v -3.157439 47.155151 -2.338279
v 3.157436 45.654415 2.338279
v 3.928827 47.155151 0.035813
v -1.180014 45.654415 -3.747604
v 1.248134 47.155151 -3.725470
v 3.199536 45.654411 -2.280334
v 3.536335 51.620758 -1.712106
v 1.854602 50.120018 -3.463728
v -0.535522 51.620758 -3.892324
v -2.721097 50.120022 -2.834185
v -3.867306 51.620758 -0.693482
v 3.867303 50.120022 0.693483
v 2.721096 51.620758 2.834185
v -3.536337 50.120022 1.712106
v -1.854606 51.620762 3.463727
v 0.535520 50.120022 3.892326
v 2.272398 53.692497 3.205181
v 3.722365 55.193233 1.257363
v -0.045549 55.193237 3.928727
v -2.346099 53.692497 3.151636
v -3.750518 55.193233 1.170725
v 3.750513 53.692497 -1.170725
v 2.346096 55.193233 -3.151635
v -3.722368 53.692497 -1.257363
v -2.272400 55.193233 -3.205179
v 0.045545 53.692493 -3.928727
v 1.123169 58.684517 -3.765031
v -1.304369 57.183777 -3.706155
v -3.233679 58.684517 -2.231656
v -3.927838 57.183781 0.095260
v -3.121695 58.684517 2.385792
v 3.121691 57.183781 -2.385790
v 3.927835 58.684517 -0.095259
v -1.123172 57.183781 3.765033
v 1.304364 58.684521 3.706158
v 3.233679 57.183781 2.231660
v 3.847464 60.999844 0.796241
v 3.580680 62.500580 -1.617311
v 2.644645 62.500584 2.905655
v 0.431663 60.999844 3.905210
v -1.946200 62.500580 3.413107
v 1.946196 60.999844 -3.413102
v -0.431667 62.500580 -3.905206
v -3.580684 60.999844 1.617315
v -3.847465 62.500580 -0.796237
v -2.644650 60.999840 -2.905649
v -1.814638 66.316628 -3.484832
v -3.516408 64.815895 -1.752669
v -3.875029 66.316628 0.648951
v -2.753524 64.815895 2.802699
v -0.580264 66.316628 3.885911
v 0.580261 64.815895 -3.885902
v 2.753521 66.316628 -2.802693
v 1.814635 64.815895 3.484839
v 3.516405 66.316628 1.752678
v 3.875029 64.815895 -0.648945
v 3.474177 69.200279 -1.834954
v 1.732106 70.701012 -3.526579
v 3.889229 70.701012 0.557563
v 2.818729 69.200279 2.737112
v 0.671570 70.701012 3.871178
v -0.671571 69.200279 -3.871165
v -2.818731 70.701012 -2.737100
v -1.732108 69.200279 3.526589
v -3.474178 70.701012 1.834964
v -3.889231 69.200279 -0.557549
v -3.662102 75.139473 -1.423371
v -3.799341 73.638741 1.001001
v -2.485364 75.139473 3.043022
v -0.222061 73.638741 3.922718
v 2.126063 75.139473 3.304070
v -2.126063 73.638741 -3.304057
v 0.222058 75.139473 -3.922709
v 3.662101 73.638741 1.423382
v 3.799341 75.139473 -1.000988
v 2.485362 73.638741 -3.043013
vt 0.000000 0.000000
vt 0.000000 0.000000
vt 0.000000 0.000000
vt 0.000000 0.000000
vt 0.000000 0.000000
vt 0.000000 0.000000
vt 0.000000 0.000000
vt 0.000000 0.000000
vt 0.000000 0.000000
vt 0.000000 0.000000
vt 0.000000 0.000000
vt 0.000000 0.000000
vt 0.000000 0.000000
vt 0.000000 0.000000
vt 0.000000 0.000000
vt 0.000000 0.000000
vt 0.000000 0.000000
vt 0.000000 0.000000
vt 0.000000 0.000000
vt 0.000000 0.000000
vt 0.000000 0.000000
vt 0.000000 0.000000
vt 0.000000 0.000000
vt 0.000000 0.000000
vt 0.000000 0.000000
vt 0.000000 0.000000
vt 0.000000 0.000000
vt 0.000000 0.000000
vt 0.000000 0.000000
vt 0.000000 0.000000
vt 0.000000 0.000000
vt 0.000000 0.000000
vt 0.000000 0.000000
vt 0.000000 0.000000
vt 0.000000 0.000000
vt 0.000000 0.000000
vt 0.000000 0.000000
vt 0.000000 0.000000
vt 0.000000 0.000000
vt 0.000000 0.000000
vt 0.000000 0.000000
vt 0.000000 0.000000
vt 0.000000 0.000000
vt 0.000000 0.000000
vt 0.000000 0.000000
vt 0.000000 0.000000
vt 0.000000 0.000000
vt 0.000000 0.000000
vt 0.000000 0.000000
vt 0.000000 0.000000
vt 0.000000 0.000000
vt 0.000000 0.000000
vt 0.000000 0.000000
vt 0.000000 0.000000
vt 0.000000 0.000000
vt 0.000000 0.000000
vt 0.000000 0.000000
vt 0.000000 0.000000
vt 0.000000 0.000000
vt 0.000000 0.000000
vt 0.000000 0.000000
vt 0.000000 0.000000
vt 0.000000 0.000000
vt 0.000000 0.000000
vt 0.000000 0.000000
vt 0.000000 0.000000
vt 0.000000 0.000000
vt 0.000000 0.000000
vt 0.000000 0.000000
vt 0.000000 0.000000
vt 0.000000 0.000000
vt 0.000000 0.000000
vt 0.000000 0.000000
vt 0.000000 0.000000
vt 0.000000 0.000000
vt 0.000000 0.000000
vt 0.000000 0.000000
vt 0.000000 0.000000
vt 0.000000 0.000000
vt 0.000000 0.000000
vt 0.000000 0.000000
vt 0.000000 0.000000
vt 0.000000 0.000000
vt 0.000000 0.000000
vt 0.000000 0.000000
vt 0.000000 0.000000
vt 0.000000 0.000000
vt 0.000000 0.000000
vt 0.000000 0.000000
vt 0.000000 0.000000
vt 0.000000 0.000000
vt 0.000000 0.000000
vt 0.000000 0.000000
vt 0.000000 0.000000
vt 0.000000 0.000000
vt 0.000000 0.000000
vt 0.000000 0.000000
vt 0.000000 0.000000
vt 0.000000 0.000000
vt 0.000000 0.000000
vt 0.000000 0.000000
vt 0.000000 0.000000
vt 0.000000 0.000000
vt 0.000000 0.000000
vt 0.000000 0.000000
vt 0.000000 0.000000
vt 0.000000 0.000000
vt 0.000000 0.000000
vt 0.000000 0.000000
vt 0.000000 0.000000
vt 0.000000 0.000000
vt 0.000000 0.000000
vt 0.000000 0.000000
vt 0.000000 0.000000
vt 0.000000 0.000000
vt 0.000000 0.000000
vt 0.000000 0.000000
vt 0.000000 0.000000
vt 0.000000 0.000000
vt 0.000000 0.000000
vt 0.000000 0.000000
vt 0.000000 0.000000
vt 0.000000 0.000000
vt 0.000000 0.000000
vt 0.000000 0.000000
vt 0.000000 0.000000
vt 0.000000 0.000000
vt 0.000000 0.000000
vt 0.000000 0.000000
vt 0.000000 0.000000
vt 0.000000 0.000000
vt 0.000000 0.000000
vt 0.000000 0.000000
vt 0.000000 0.000000
vt 0.000000 0.000000
vt 0.000000 0.000000
vt 0.000000 0.000000
vt 0.000000 0.000000
vt 0.000000 0.000000
vt 0.000000 0.000000
vt 0.000000 0.000000
vt 0.000000 0.000000
vt 0.000000 0.000000
vt 0.000000 0.000000
vt 0.000000 0.000000
vt 0.000000 0.000000
vt 0.000000 0.000000
vt 0.000000 0.000000
vt 0.000000 0.000000
vt 0.000000 0.000000
vt 0.000000 0.000000
vt 0.000000 0.000000
vt 0.000000 0.000000
vt 0.000000 0.000000
vt 0.000000 0.000000
vt 0.000000 0.000000
vt 0.000000 0.000000
vt 0.000000 0.000000
vt 0.000000 0.000000
vt 0.000000 0.000000
vt 0.000000 0.000000
vt 0.000000 0.000000
vt 0.000000 0.000000
vt 0.000000 0.000000
vt 0.000000 0.000000
vt 0.000000 0.000000
vt 0.000000 0.000000
vt 0.000000 0.000000
vt 0.000000 0.000000
vt 0.000000 0.000000
vt 0.000000 0.000000
vt 0.000000 0.000000
vt 0.000000 0.000000
vt 0.000000 0.000000
vt 0.000000 0.000000
vt 0.000000 0.000000
vt 0.000000 0.000000
vt 0.000000 0.000000
vt 0.000000 0.000000
vt 0.000000 0.000000
vt 0.000000 0.000000
vt 0.000000 0.000000
vt 0.000000 0.000000
vt 0.000000 0.000000
vt 0.000000 0.000000
vt 0.000000 0.000000
vt 0.000000 0.000000
vt 0.000000 0.000000
vt 0.000000 0.000000
vt 0.000000 0.000000
vt 0.000000 0.000000
vt 0.000000 0.000000
vt 0.000000 0.000000
vt 0.000000 0.000000
vt 0.000000 0.000000
vt 0.000000 0.000000
vt 0.000000 0.000000
vt 0.000000 0.000000
vt 0.000000 0.000000
vt 0.000000 0.000000
vt 0.000000 0.000000
vt 0.000000 0.000000
vt 0.000000 0.000000
vt 0.000000 0.000000
vt 0.000000 0.000000
vt 0.000000 0.000000
vt 0.000000 0.000000
vt 0.000000 0.000000
vt 0.000000 0.000000
vt 0.000000 0.000000
vt 0.000000 0.000000
vt 0.000000 0.000000
vt 0.000000 0.000000
vt 0.000000 0.000000
vt 0.000000 0.000000
vt 0.000000 0.000000
vt 0.000000 0.000000
vt 0.000000 0.000000
vt 0.000000 0.000000
vt 0.000000 0.000000
vt 0.000000 0.000000
vt 0.000000 0.000000
vt 0.000000 0.000000
vt 0.000000 0.000000
vt 0.000000 0.000000
vt 0.000000 0.000000
vt 0.000000 0.000000
vt 0.000000 0.000000
vt 0.000000 0.000000
vt 0.000000 0.000000
vt 0.000000 0.000000
vt 0.000000 0.000000
vt 0.000000 0.000000
vt 0.000000 0.000000
vt 0.000000 0.000000
vt 0.000000 0.000000
vt 0.000000 0.000000
vt 0.000000 0.000000
vt 0.000000 0.000000
vt 0.000000 0.000000
vt 0.000000 0.000000
vt 0.000000 0.000000
vt 0.000000 0.000000
vt 0.000000 0.000000
vt 0.000000 0.000000
vt 0.000000 0.000000
vt 0.000000 0.000000
vt 0.000000 0.000000
vt 0.000000 0.000000
vt 0.000000 0.000000
vt 0.000000 0.000000
vt 0.000000 0.000000
vt 0.000000 0.000000
vt 0.000000 0.000000
vt 0.000000 0.000000
vt 0.000000 0.000000
vt 0.000000 0.000000
vt 0.000000 0.000000
vt 0.000000 0.000000
vt 0.000000 0.000000
vt 0.000000 0.000000
vt 0.000000 0.000000
vt 0.000000 0.000000
vt 0.000000 0.000000
vt 0.000000 0.000000
vt 0.000000 0.000000
vt 0.000000 0.000000
vt 0.000000 0.000000
vt 0.000000 0.000000
vt 0.000000 0.000000
vt 0.000000 0.000000
vt 0.000000 0.000000
vt 0.000000 0.000000
vt 0.000000 0.000000
vt 0.000000 0.000000
vt 0.000000 0.000000
vt 0.000000 0.000000
vt 0.000000 0.000000
vt 0.000000 0.000000
vt 0.000000 0.000000
vt 0.000000 0.000000
vt 0.000000 0.000000
vt 0.000000 0.000000
vt 0.000000 0.000000
vt 0.000000 0.000000
vt 0.000000 0.000000
vt 0.000000 0.000000
vt 0.000000 0.000000
vt 0.000000 0.000000
vt 0.000000 0.000000
vt 0.000000 0.000000
vt 0.000000 0.000000
vt 0.000000 0.000000
vt 0.000000 0.000000
vt 0.000000 0.000000
vt 0.000000 0.000000
vt 0.000000 0.000000
vt 0.000000 0.000000
vt 0.000000 0.000000
vt 0.000000 0.000000
vt 0.000000 0.000000
vt 0.000000 0.000000
vt 0.000000 0.000000
vt 0.000000 0.000000
vt 0.000000 0.000000
vt 0.000000 0.000000
vt 0.000000 0.000000
vt 0.000000 0.000000
vt 0.000000 0.000000
vt 0.000000 0.000000
vt 0.000000 0.000000
vt 0.000000 0.000000
vt 0.000000 0.000000
vt 0.000000 0.000000
vt 0.000000 0.000000
vt 0.000000 0.000000
vt 0.000000 0.000000
vt 0.000000 0.000000
vt 0.000000 0.000000
vt 0.000000 0.000000
vt 0.000000 0.000000
vt 0.000000 0.000000
vt 0.000000 0.000000
vt 0.000000 0.000000
vt 0.000000 0.000000
vt 0.000000 0.000000
vt 0.000000 0.000000
vt 0.000000 0.000000
vt 0.000000 0.000000
vt 0.000000 0.000000
vt 0.000000 0.000000
vt 0.000000 0.000000
vt 0.000000 0.000000
vt 0.000000 0.000000
vt 0.000000 0.000000
vt 0.000000 0.000000
vt 0.000000 0.000000
vt 0.000000 0.000000
vt 0.000000 0.000000
vt 0.000000 0.000000
vt 0.000000 0.000000
vt 0.000000 0.000000
vt 0.000000 0.000000
vt 0.000000 0.000000
vt 0.000000 0.000000
vt 0.000000 0.000000
vt 0.000000 0.000000
vt 0.000000 0.000000
vt 0.000000 0.000000
vt 0.000000 0.000000
vt 0.000000 0.000000
vt 0.000000 0.000000
vt 0.000000 0.000000
vt 0.000000 0.000000
vt 0.000000 0.000000
vt 0.000000 0.000000
vt 0.000000 0.000000
vt 0.000000 0.000000
vt 0.000000 0.000000
vt 0.000000 0.000000
vt 0.000000 0.000000
vt 0.000000 0.000000
vt 0.000000 0.000000
vt 0.000000 0.000000
vt 0.000000 0.000000
vt 0.000000 0.000000
vt 0.000000 0.000000
vt 0.000000 0.000000
vt 0.000000 0.000000
vt 0.000000 0.000000
vt 0.000000 0.000000
vt 0.000000 0.000000
vt 0.000000 0.000000
vt 0.000000 0.000000
vt 0.000000 0.000000
vt 0.000000 0.000000
vt 0.000000 0.000000
vt 0.000000 0.000000
vt 0.000000 0.000000
vt 0.000000 0.000000
vt 0.000000 0.000000
vt 0.000000 0.000000
vt 0.000000 0.000000
vt 0.000000 0.000000
vt 0.000000 0.000000
vt 0.000000 0.000000
vt 0.000000 0.000000
vt 0.000000 0.000000
vt 0.000000 0.000000
vt 0.000000 0.000000
vt 0.000000 0.000000
vt 0.000000 0.000000
vt 0.000000 0.000000
vt 0.000000 0.000000
vt 0.000000 0.000000
vt 0.000000 0.000000
vt 0.000000 0.000000
vt 0.000000 0.000000
vt 0.000000 0.000000
vt 0.000000 0.000000
vt 0.000000 0.000000
vt 0.000000 0.000000
vt 0.000000 0.000000
vt 0.000000 0.000000
vt 0.000000 0.000000
vt 0.000000 0.000000
vt 0.000000 0.000000
vt 0.000000 0.000000
vt 0.000000 0.000000
vt 0.000000 0.000000
vt 0.000000 0.000000
vt 0.000000 0.000000
vt 0.000000 0.000000
vt 0.000000 0.000000
vt 0.000000 0.000000
vt 0.000000 0.000000
vt 0.000000 0.000000
vt 0.000000 0.000000
vt 0.000000 0.000000
vt 0.000000 0.000000
vt 0.000000 0.000000
vt 0.000000 0.000000
vt 0.000000 0.000000
vt 0.000000 0.000000
vt 0.000000 0.000000
vt 0.000000 0.000000
vt 0.000000 0.000000
vt 0.000000 0.000000
vt 0.000000 0.000000
vt 0.000000 0.000000
vt 0.000000 0.000000
vt 0.000000 0.000000
vt 0.000000 0.000000
vt 0.000000 0.000000
vt 0.000000 0.000000
vt 0.000000 0.000000
vt 0.000000 0.000000
vt 0.000000 0.000000
vt 0.000000 0.000000
vt 0.000000 0.000000
vt 0.000000 0.000000
vt 0.000000 0.000000
vt 0.000000 0.000000
vt 0.000000 0.000000
vt 0.000000 0.000000
vt 0.000000 0.000000
vt 0.000000 0.000000
vt 0.000000 0.000000
vt 0.000000 0.000000
vt 0.000000 0.000000
vt 0.000000 0.000000
vt 0.000000 0.000000
vt 0.000000 0.000000
vt 0.000000 0.000000
vt 0.000000 0.000000
vt 0.000000 0.000000
vt 0.000000 0.000000
vt 0.000000 0.000000
vt 0.000000 0.000000
vt 0.000000 0.000000
vt 0.000000 0.000000
vt 0.000000 0.000000
vt 0.000000 0.000000
vt 0.000000 0.000000
vt 0.000000 0.000000
vt 0.000000 0.000000
vt 0.000000 0.000000
vt 0.000000 0.000000
vt 0.000000 0.000000
vt 0.000000 0.000000
vt 0.000000 0.000000
vt 0.000000 0.000000
vt 0.000000 0.000000
vt 0.000000 0.000000
vt 0.000000 0.000000
vt 0.000000 0.000000
vt 0.000000 0.000000
vt 0.000000 0.000000
vt 0.000000 0.000000
vt 0.000000 0.000000
vt 0.000000 0.000000
vt 0.000000 0.000000
vt 0.000000 0.000000
vt 0.000000 0.000000
vt 0.000000 0.000000
vt 0.000000 0.000000
vt 0.000000 0.000000
vt 0.000000 0.000000
vt 0.000000 0.000000
vt 0.000000 0.000000
vt 0.000000 0.000000
vt 0.000000 0.000000
vt 0.000000 0.000000
vt 0.000000 0.000000
vt 0.000000 0.000000
vt 0.000000 0.000000
vt 0.000000 0.000000
vt 0.000000 0.000000
vt 0.000000 0.000000
vt 0.000000 0.000000
vt 0.000000 0.000000
vt 0.000000 0.000000
vt 0.000000 0.000000
vt 0.000000 0.000000
vt 0.000000 0.000000
vt 0.000000 0.000000
vt 0.000000 0.000000
vt 0.000000 0.000000
vt 0.000000 0.000000
vt 0.000000 0.000000
vt 0.000000 0.000000
vt 0.000000 0.000000
vt 0.000000 0.000000
vt 0.000000 0.000000
vt 0.000000 0.000000
vt 0.000000 0.000000
vt 0.000000 0.000000
vt 0.000000 0.000000
vt 0.000000 0.000000
vt 0.000000 0.000000
vt 0.000000 0.000000
vt 0.000000 0.000000
vt 0.000000 0.000000
vt 0.000000 0.000000
vt 0.000000 0.000000
vt 0.000000 0.000000
vt 0.000000 0.000000
vt 0.000000 0.000000
vt 0.000000 0.000000
vt 0.000000 0.000000
vt 0.000000 0.000000
vt 0.000000 0.000000
vt 0.000000 0.000000
vt 0.000000 0.000000
vt 0.000000 0.000000
vt 0.000000 0.000000
vt 0.000000 0.000000
vt 0.000000 0.000000
vt 0.000000 0.000000
vt 0.000000 0.000000
vt 0.000000 0.000000
vt 0.000000 0.000000
vt 0.000000 0.000000
vt 0.000000 0.000000
vt 0.000000 0.000000
vt 0.000000 0.000000
vt 0.000000 0.000000
vt 0.000000 0.000000
vt 0.000000 0.000000
vt 0.000000 0.000000
vt 0.000000 0.000000
vt 0.000000 0.000000
vt 0.000000 0.000000
vt 0.000000 0.000000
vt 0.000000 0.000000
vt 0.000000 0.000000
vt 0.000000 0.000000
vt 0.000000 0.000000
vt 0.000000 0.000000
vt 0.000000 0.000000
vt 0.000000 0.000000
vt 0.000000 0.000000
vt 0.000000 0.000000
vt 0.000000 0.000000
vt 0.000000 0.000000
vt 0.000000 0.000000
vt 0.000000 0.000000
vt 0.000000 0.000000
vt 0.000000 0.000000
vt 0.000000 0.000000
vt 0.000000 0.000000
vt 0.000000 0.000000
vt 0.000000 0.000000
vt 0.000000 0.000000
vt 0.000000 0.000000
vt 0.000000 0.000000
vt 0.000000 0.000000
vt 0.000000 0.000000
vt 0.000000 0.000000
vt 0.000000 0.000000
vt 0.000000 0.000000
vt 0.000000 0.000000
vt 0.000000 0.000000
vt 0.000000 0.000000
vt 0.000000 0.000000
vt 0.000000 0.000000
vt 0.000000 0.000000
vt 0.000000 0.000000
vt 0.000000 0.000000
vt 0.000000 0.000000
vt 0.000000 0.000000
vt 0.000000 0.000000
vt 0.000000 0.000000
vt 0.000000 0.000000
vt 0.000000 0.000000
vt 0.000000 0.000000
vt 0.000000 0.000000
vt 0.000000 0.000000
vt 0.000000 0.000000
vt 0.000000 0.000000
vt 0.000000 0.000000
vt 0.000000 0.000000
vt 0.000000 0.000000
vt 0.000000 0.000000
vt 0.000000 0.000000
vt 0.000000 0.000000
vt 0.000000 0.000000
vt 0.000000 0.000000
vt 0.000000 0.000000
vt 0.000000 0.000000
vt 0.000000 0.000000
vt 0.000000 0.000000
vt 0.000000 0.000000
vt 0.000000 0.000000
vt 0.000000 0.000000
vt 0.000000 0.000000
vt 0.000000 0.000000
vt 0.000000 0.000000
vt 0.000000 0.000000
vt 0.000000 0.000000
vt 0.000000 0.000000
vt 0.000000 0.000000
vt 0.000000 0.000000
vt 0.000000 0.000000
vt 0.000000 0.000000
vt 0.000000 0.000000
vt 0.000000 0.000000
vt 0.000000 0.000000
vt 0.000000 0.000000
vt 0.000000 0.000000
vt 0.000000 0.000000
vt 0.000000 0.000000
vt 0.000000 0.000000
vt 0.000000 0.000000
vt 0.000000 0.000000
vt 0.000000 0.000000
vt 0.000000 0.000000
vt 0.000000 0.000000
vt 0.000000 0.000000
vt 0.000000 0.000000
vt 0.000000 0.000000
vt 0.000000 0.000000
vt 0.000000 0.000000
vt 0.000000 0.000000
vt 0.000000 0.000000
vt 0.000000 0.000000
vt 0.000000 0.000000
vt 0.000000 0.000000
vt 0.000000 0.000000
vt 0.000000 0.000000
vt 0.000000 0.000000
vt 0.000000 0.000000
vt 0.000000 0.000000
vt 0.000000 0.000000
vt 0.000000 0.000000
vt 0.000000 0.000000
vt 0.000000 0.000000
vt 0.000000 0.000000
vt 0.000000 0.000000
vt 0.000000 0.000000
vt 0.000000 0.000000
vt 0.000000 0.000000
vt 0.000000 0.000000
vt 0.000000 0.000000
vt 0.000000 0.000000
vt 0.000000 0.000000
vt 0.000000 0.000000
vt 0.000000 0.000000
vt 0.000000 0.000000
vt 0.000000 0.000000
vt 0.000000 0.000000
vt 0.000000 0.000000
vt 0.000000 0.000000
vt 0.000000 0.000000
vt 0.000000 0.000000
vt 0.000000 0.000000
vt 0.000000 0.000000
vt 0.000000 0.000000
vt 0.000000 0.000000
vt 0.000000 0.000000
vt 0.000000 0.000000
vt 0.000000 0.000000
vt 0.000000 0.000000
vt 0.000000 0.000000
vt 0.000000 0.000000
vt 0.000000 0.000000
vt 0.000000 0.000000
vt 0.000000 0.000000
vt 0.000000 0.000000
vt 0.000000 0.000000
vt 0.000000 0.000000
vt 0.000000 0.000000
vt 0.000000 0.000000
vt 0.000000 0.000000
vt 0.000000 0.000000
vt 0.000000 0.000000
vt 0.000000 0.000000
vt 0.000000 0.000000
vt 0.000000 0.000000
vt 0.000000 0.000000
vt 0.000000 0.000000
vt 0.000000 0.000000
vt 0.000000 0.000000
vt 0.000000 0.000000
vt 0.000000 0.000000
vt 0.000000 0.000000
vt 0.000000 0.000000
vt 0.000000 0.000000
vt 0.000000 0.000000
vt 0.000000 0.000000
vt 0.000000 0.000000
vt 0.000000 0.000000
vt 0.000000 0.000000
vt 0.000000 0.000000
vt 0.000000 0.000000
vt 0.000000 0.000000
vt 0.000000 0.000000
vt 0.000000 0.000000
vt 0.000000 0.000000
vt 0.000000 0.000000
vt 0.000000 0.000000
vt 0.000000 0.000000
vt 0.000000 0.000000
vt 0.000000 0.000000
vt 0.000000 0.000000
vt 0.000000 0.000000
vt 0.000000 0.000000
vt 0.000000 0.000000
vt 0.000000 0.000000
vt 0.000000 0.000000
vt 0.000000 0.000000
vt 0.000000 0.000000
vt 0.000000 0.000000
vt 0.000000 0.000000
vt 0.000000 0.000000
vt 0.000000 0.000000
vt 0.000000 0.000000
vt 0.000000 0.000000
vt 0.000000 0.000000
vt 0.000000 0.000000
vt 0.000000 0.000000
vt 0.000000 0.000000
vt 0.000000 0.000000
vt 0.000000 0.000000
vt 0.000000 0.000000
vt 0.000000 0.000000
vt 0.000000 0.000000
vt 0.000000 0.000000
vt 0.000000 0.000000
vt 0.000000 0.000000
vt 0.000000 0.000000
vt 0.000000 0.000000
vt 0.000000 0.000000
vt 0.000000 0.000000
vt 0.000000 0.000000
vt 0.000000 0.000000
vt 0.000000 0.000000
vt 0.000000 0.000000
vt 0.000000 0.000000
vt 0.000000 0.000000
vt 0.000000 0.000000
vt 0.000000 0.000000
vt 0.000000 0.000000
vt 0.000000 0.000000
vt 0.000000 0.000000
vt 0.000000 0.000000
vt 0.000000 0.000000
vt 0.000000 0.000000
vt 0.000000 0.000000
vt 0.000000 0.000000
vt 0.000000 0.000000
vt 0.000000 0.000000
vt 0.000000 0.000000
vt 0.000000 0.000000
vt 0.000000 0.000000
vt 0.000000 0.000000
vt 0.000000 0.000000
vt 0.000000 0.000000
vt 0.000000 0.000000
vt 0.000000 0.000000
vt 0.000000 0.000000
vt 0.000000 0.000000
vt 0.000000 0.000000
vt 0.000000 0.000000
vt 0.000000 0.000000
vt 0.000000 0.000000
vt 0.000000 0.000000
vt 0.000000 0.000000
vt 0.000000 0.000000
vt 0.000000 0.000000
vt 0.000000 0.000000
vt 0.000000 0.000000
vt 0.000000 0.000000
vt 0.000000 0.000000
vt 0.000000 0.000000
vt 0.000000 0.000000
vt 0.000000 0.000000
vt 0.000000 0.000000
vt 0.000000 0.000000
vt 0.000000 0.000000
vt 0.000000 0.000000
vt 0.000000 0.000000
vt 0.000000 0.000000
vt 0.000000 0.000000
vt 0.000000 0.000000
vt 0.000000 0.000000
vt 0.000000 0.000000
vt 0.000000 0.000000
vt 0.000000 0.000000
vt 0.000000 0.000000
vt 0.000000 0.000000
vt 0.000000 0.000000
vt 0.000000 0.000000
vt 0.000000 0.000000
vt 0.000000 0.000000
vt 0.000000 0.000000
vt 0.000000 0.000000
vt 0.000000 0.000000
vt 0.000000 0.000000
vt 0.000000 0.000000
vt 0.000000 0.000000
vt 0.000000 0.000000
vt 0.000000 0.000000
vt 0.000000 0.000000
vt 0.000000 0.000000
vt 0.000000 0.000000
vt 0.000000 0.000000
vt 0.000000 0.000000
vt 0.000000 0.000000
vt 0.000000 0.000000
vt 0.000000 0.000000
vt 0.000000 0.000000
vt 0.000000 0.000000
vt 0.000000 0.000000
vt 0.000000 0.000000
vt 0.000000 0.000000
vt 0.000000 0.000000
vt 0.000000 0.000000
vt 0.000000 0.000000
vt 0.000000 0.000000
vt 0.000000 0.000000
vt 0.000000 0.000000
vt 0.000000 0.000000
vt 0.000000 0.000000
vt 0.000000 0.000000
vt 0.000000 0.000000
vt 0.000000 0.000000
vt 0.000000 0.000000
vt 0.000000 0.000000
vt 0.000000 0.000000
vt 0.000000 0.000000
vt 0.000000 0.000000
vt 0.000000 0.000000
vt 0.000000 0.000000
vt 0.000000 0.000000
vt 0.000000 0.000000
vt 0.000000 0.000000
vt 0.000000 0.000000
vt 0.000000 0.000000
vt 0.000000 0.000000
vt 0.000000 0.000000
vt 0.000000 0.000000
vt 0.000000 0.000000
vt 0.000000 0.000000
vt 0.000000 0.000000
vt 0.000000 0.000000
vt 0.000000 0.000000
vt 0.000000 0.000000
vt 0.000000 0.000000
vt 0.000000 0.000000
vt 0.000000 0.000000
vt 0.000000 0.000000
vt 0.000000 0.000000
vt 0.000000 0.000000
vt 0.000000 0.000000
vt 0.000000 0.000000
vt 0.000000 0.000000
vt 0.000000 0.000000
vt 0.000000 0.000000
vt 0.000000 0.000000
vt 0.000000 0.000000
vt 0.000000 0.000000
vt 0.000000 0.000000
vt 0.000000 0.000000
vt 0.000000 0.000000
vt 0.000000 0.000000
vt 0.000000 0.000000
vt 0.000000 0.000000
vt 0.000000 0.000000
vt 0.000000 0.000000
vt 0.000000 0.000000
vt 0.000000 0.000000
vt 0.000000 0.000000
vt 0.000000 0.000000
vt 0.000000 0.000000
vt 0.000000 0.000000
vt 0.000000 0.000000
vt 0.000000 0.000000
vt 0.000000 0.000000
vt 0.000000 0.000000
vt 0.000000 0.000000
vt 0.000000 0.000000
vt 0.000000 0.000000
vt 0.000000 0.000000
vt 0.000000 0.000000
vt 0.000000 0.000000
vt 0.000000 0.000000
vt 0.000000 0.000000
vt 0.000000 0.000000
vt 0.000000 0.000000
vt 0.000000 0.000000
vt 0.000000 0.000000
vt 0.000000 0.000000
vt 0.000000 0.000000
vt 0.000000 0.000000
vt 0.000000 0.000000
vt 0.000000 0.000000
vt 0.000000 0.000000
vt 0.000000 0.000000
vt 0.000000 0.000000
vt 0.000000 0.000000
vt 0.000000 0.000000
vt 0.000000 0.000000
vt 0.000000 0.000000
vt 0.000000 0.000000
vt 0.000000 0.000000
vt 0.000000 0.000000
vt 0.000000 0.000000
vt 0.000000 0.000000
vt 0.000000 0.000000
vt 0.000000 0.000000
vt 0.000000 0.000000
vt 0.000000 0.000000
vt 0.000000 0.000000
vt 0.000000 0.000000
vt 0.000000 0.000000
vt 0.000000 0.000000
vt 0.000000 0.000000
vt 0.000000 0.000000
vt 0.000000 0.000000
vt 0.000000 0.000000
vt 0.000000 0.000000
vt 0.000000 0.000000
vt 0.000000 0.000000
vt 0.000000 0.000000
vt 0.000000 0.000000
vt 0.000000 0.000000
vt 0.000000 0.000000
vt 0.000000 0.000000
vt 0.000000 0.000000
vt 0.000000 0.000000
vt 0.000000 0.000000
vt 0.000000 0.000000
vt 0.000000 0.000000
vt 0.000000 0.000000
vt 0.000000 0.000000
vt 0.000000 0.000000
vt 0.000000 0.000000
vt 0.000000 0.000000
vt 0.000000 0.000000
vt 0.000000 0.000000
vt 0.000000 0.000000
vt 0.000000 0.000000
vt 0.000000 0.000000
vt 0.000000 0.000000
vt 0.000000 0.000000
vt 0.000000 0.000000
vt 0.000000 0.000000
vt 0.000000 0.000000
vt 0.000000 0.000000
vt 0.000000 0.000000
vt 0.000000 0.000000
vt 0.000000 0.000000
vt 0.000000 0.000000
vt 0.000000 0.000000
vt 0.000000 0.000000
vt 0.000000 0.000000
vt 0.000000 0.000000
vt 0.000000 0.000000
vt 0.000000 0.000000
vt 0.000000 0.000000
vt 0.000000 0.000000
vt 0.000000 0.000000
vt 0.000000 0.000000
vt 0.000000 0.000000
vt 0.000000 0.000000
vt 0.000000 0.000000
vt 0.000000 0.000000
vt 0.000000 0.000000
vt 0.000000 0.000000
vt 0.000000 0.000000
vt 0.000000 0.000000
vt 0.000000 0.000000
vt 0.000000 0.000000
vt 0.000000 0.000000
vt 0.000000 0.000000
vt 0.000000 0.000000
vt 0.000000 0.000000
vt 0.000000 0.000000
vt 0.000000 0.000000
vt 0.000000 0.000000
vt 0.000000 0.000000
vt 0.000000 0.000000
vt 0.000000 0.000000
vt 0.000000 0.000000
vt 0.000000 0.000000
vt 0.000000 0.000000
vt 0.000000 0.000000
vt 0.000000 0.000000
vt 0.000000 0.000000
vt 0.000000 0.000000
vt 0.000000 0.000000
vt 0.000000 0.000000
vt 0.000000 0.000000
vt 0.000000 0.000000
vt 0.000000 0.000000
vt 0.000000 0.000000
vt 0.000000 0.000000
vt 0.000000 0.000000
vt 0.000000 0.000000
vt 0.000000 0.000000
vt 0.000000 0.000000
vt 0.000000 0.000000
vt 0.000000 0.000000
vt 0.000000 0.000000
vt 0.000000 0.000000
vt 0.000000 0.000000
vt 0.000000 0.000000
vt 0.000000 0.000000
vt 0.000000 0.000000
vt 0.000000 0.000000
vt 0.000000 0.000000
vt 0.000000 0.000000
vt 0.000000 0.000000
vt 0.000000 0.000000
vt 0.000000 0.000000
vt 0.000000 0.000000
vt 0.000000 0.000000
vt 0.000000 0.000000
vt 0.000000 0.000000
vt 0.000000 0.000000
vt 0.000000 0.000000
vt 0.000000 0.000000
vt 0.000000 0.000000
vt 0.000000 0.000000
vt 0.000000 0.000000
vt 0.000000 0.000000
vt 0.000000 0.000000
vt 0.000000 0.000000
vt 0.000000 0.000000
vt 0.000000 0.000000
vt 0.000000 0.000000
vt 0.000000 0.000000
vt 0.000000 0.000000
vt 0.000000 0.000000
vt 0.000000 0.000000
vt 0.000000 0.000000
vt 0.000000 0.000000
vt 0.000000 0.000000
vt 0.000000 0.000000
vt 0.000000 0.000000
vt 0.000000 0.000000
vt 0.000000 0.000000
vt 0.000000 0.000000
vt 0.000000 0.000000
vt 0.000000 0.000000
vt 0.000000 0.000000
vt 0.000000 0.000000
vt 0.000000 0.000000
vt 0.000000 0.000000
vt 0.000000 0.000000
vt 0.000000 0.000000
vt 0.000000 0.000000
vt 0.000000 0.000000
vt 0.000000 0.000000
vt 0.000000 0.000000
vt 0.000000 0.000000
vt 0.000000 0.000000
vt 0.000000 0.000000
vt 0.000000 0.000000
vt 0.000000 0.000000
vt 0.000000 0.000000
vt 0.000000 0.000000
vt 0.000000 0.000000
vt 0.000000 0.000000
vt 0.000000 0.000000
vt 0.000000 0.000000
vt 0.000000 0.000000
vt 0.000000 0.000000
vt 0.000000 0.000000
vt 0.000000 0.000000
vt 0.000000 0.000000
vt 0.000000 0.000000
vt 0.000000 0.000000
vt 0.000000 0.000000
vt 0.000000 0.000000
vt 0.000000 0.000000
vt 0.000000 0.000000
vt 0.000000 0.000000
vt 0.000000 0.000000
vt 0.000000 0.000000
vt 0.000000 0.000000
vt 0.000000 0.000000
vt 0.000000 0.000000
vt 0.000000 0.000000
vt 0.000000 0.000000
vt 0.000000 0.000000
vt 0.000000 0.000000
vt 0.000000 0.000000
vt 0.000000 0.000000
vt 0.000000 0.000000
vt 0.000000 0.000000
vt 0.000000 0.000000
vt 0.000000 0.000000
vt 0.000000 0.000000
vt 0.000000 0.000000
vt 0.000000 0.000000
vt 0.000000 0.000000
vt 0.000000 0.000000
vt 0.000000 0.000000
vt 0.000000 0.000000
vt 0.000000 0.000000
vt 0.000000 0.000000
vt 0.000000 0.000000
vt 0.000000 0.000000
vt 0.000000 0.000000
vt 0.000000 0.000000
vt 0.000000 0.000000
vt 0.000000 0.000000
vt 0.000000 0.000000
vt 0.000000 0.000000
vt 0.000000 0.000000
vt 0.000000 0.000000
vt 0.000000 0.000000
vt 0.000000 0.000000
vt 0.000000 0.000000
vt 0.000000 0.000000
vt 0.000000 0.000000
vt 0.000000 0.000000
vt 0.000000 0.000000
vt 0.000000 0.000000
vt 0.000000 0.000000
vt 0.000000 0.000000
vt 0.000000 0.000000
vt 0.000000 0.000000
vt 0.000000 0.000000
vt 0.000000 0.000000
vt 0.000000 0.000000
vt 0.000000 0.000000
vt 0.000000 0.000000
vt 0.000000 0.000000
vt 0.000000 0.000000
vt 0.000000 0.000000
vt 0.000000 0.000000
vt 0.000000 0.000000
vt 0.000000 0.000000
vt 0.000000 0.000000
vt 0.000000 0.000000
vt 0.000000 0.000000
vt 0.000000 0.000000
vt 0.000000 0.000000
vt 0.000000 0.000000
vt 0.000000 0.000000
vt 0.000000 0.000000
vt 0.000000 0.000000
vt 0.000000 0.000000
vt 0.000000 0.000000
vt 0.000000 0.000000
vt 0.000000 0.000000
vt 0.000000 0.000000
vt 0.000000 0.000000
vt 0.000000 0.000000
vt 0.000000 0.000000
vt 0.000000 0.000000
vt 0.000000 0.000000
vt 0.000000 0.000000
vt 0.000000 0.000000
vt 0.000000 0.000000
vt 0.000000 0.000000
vt 0.000000 0.000000
vt 0.000000 0.000000
vt 0.000000 0.000000
vt 0.000000 0.000000
vt 0.000000 0.000000
vt 0.000000 0.000000
vt 0.000000 0.000000
vt 0.000000 0.000000
vt 0.000000 0.000000
vn 0.525731 -0.447214 0.723607
vn 0.525731 -0.447214 0.723607
vn 0.951381 -0.259863 0.165363
vn 0.525731 -0.447214 0.723607
vn 0.951381 -0.259863 0.165363
vn 0.707247 -0.158962 0.688863
vn 0.525731 -0.447214 0.723607
vn 0.707247 -0.158962 0.688863
vn 0.136723 -0.259863 0.955917
vn -0.525731 -0.447214 0.723607
vn 0.136723 -0.259863 0.955917
vn -0.436597 -0.158962 0.885502
vn -0.525731 -0.447214 0.723607
vn -0.436597 -0.158962 0.885502
vn -0.866882 -0.259863 0.425426
vn -0.525731 -0.447214 0.723607
vn -0.866882 -0.259863 0.425426
vn -0.525731 -0.447214 0.723607
vn -0.864912 0.447215 0.227874
vn -0.864912 0.447215 0.227874
vn -0.854742 0.259192 -0.449707
vn -0.864912 0.447215 0.227874
vn -0.854742 0.259192 -0.449707
vn -0.980070 0.158583 0.119641
vn -0.864912 0.447215 0.227874
vn -0.980070 0.158583 0.119641
vn -0.691826 0.259193 0.673940
vn 0.000000 -1.000000 -0.000000
vn 0.000000 -1.000000 -0.000000
vn 0.000000 -1.000000 -0.000000
vn 0.000000 -1.000000 -0.000000
vn 0.000000 -1.000000 -0.000000
vn 0.000000 -1.000000 -0.000000
vn 0.000000 -1.000000 -0.000000
vn 0.000000 -1.000000 -0.000000
vn 0.000000 -1.000000 -0.000000
vn 0.451263 -0.259863 -0.853717
vn 0.873699 -0.158962 -0.459762
vn 0.951381 -0.259863 0.165363
vn 0.451263 -0.259863 -0.853717
vn 0.951381 -0.259863 0.165363
vn 0.850651 -0.447213 -0.276393
vn 0.451263 -0.259863 -0.853717
vn 0.850651 -0.447213 -0.276393
vn 0.850651 -0.447213 -0.276393
vn 0.427169 0.259193 0.866225
vn -0.050551 0.447215 0.892997
vn -0.050551 0.447215 0.892997
vn 0.427169 0.259193 0.866225
vn -0.050551 0.447215 0.892997
vn -0.691826 0.259193 0.673940
vn 0.427169 0.259193 0.866225
vn -0.691826 0.259193 0.673940
vn -0.189073 0.158583 0.969073
vn -0.672485 -0.259862 -0.692990
vn -0.850651 -0.447213 -0.276393
vn -0.850651 -0.447213 -0.276393
vn -0.672485 -0.259862 -0.692990
vn -0.850651 -0.447213 -0.276393
vn -0.866882 -0.259863 0.425426
vn -0.672485 -0.259862 -0.692990
vn -0.866882 -0.259863 0.425426
vn -0.977079 -0.158962 -0.141593
vn -0.483994 0.447214 -0.752163
vn 0.163567 0.259192 -0.951875
vn -0.416644 0.158582 -0.895131
vn -0.483994 0.447214 -0.752163
vn -0.416644 0.158582 -0.895131
vn -0.854742 0.259192 -0.449707
vn -0.483994 0.447214 -0.752163
vn -0.854742 0.259192 -0.449707
vn -0.483994 0.447214 -0.752163
vn 0.955831 0.259192 -0.138584
vn 0.833669 0.447215 0.324028
vn 0.833669 0.447215 0.324028
vn 0.955831 0.259192 -0.138584
vn 0.833669 0.447215 0.324028
vn 0.427169 0.259193 0.866225
vn 0.955831 0.259192 -0.138584
vn 0.427169 0.259193 0.866225
vn 0.863217 0.158583 0.479279
vn 0.000000 1.000000 0.000000
vn 0.000000 1.000000 0.000000
vn 0.000000 1.000000 0.000000
vn 0.000000 1.000000 0.000000
vn 0.000000 1.000000 0.000000
vn 0.000000 1.000000 0.000000
vn 0.000000 1.000000 0.000000
vn 0.000000 1.000000 0.000000
vn 0.000000 1.000000 0.000000
vn 0.955831 0.259192 -0.138584
vn 0.722570 0.158583 -0.672862
vn 0.163567 0.259192 -0.951875
vn 0.955831 0.259192 -0.138584
vn 0.163567 0.259192 -0.951875
vn 0.565787 0.447215 -0.692736
vn 0.955831 0.259192 -0.138584
vn 0.565787 0.447215 -0.692736
vn 0.565787 0.447215 -0.692736
vn -0.167271 -0.158962 -0.973011
vn 0.451263 -0.259863 -0.853717
vn 0.000000 -0.447213 -0.894427
vn -0.167271 -0.158962 -0.973011
vn 0.000000 -0.447213 -0.894427
vn 0.000000 -0.447213 -0.894427
vn -0.167271 -0.158962 -0.973011
vn 0.000000 -0.447213 -0.894427
vn -0.672485 -0.259862 -0.692990
vn -0.167271 -0.158962 -0.973011
vn -0.672485 -0.259862 -0.692990
vn -0.897169 -0.000000 -0.441687
vn -0.167271 -0.158962 -0.973011
vn -0.897169 -0.000000 -0.441687
vn -0.466208 -0.000000 -0.884675
vn -0.672485 -0.259862 -0.692990
vn -0.977079 -0.158962 -0.141593
vn -0.985442 -0.000000 0.170011
vn -0.672485 -0.259862 -0.692990
vn -0.985442 -0.000000 0.170011
vn -0.897169 -0.000000 -0.441687
vn 0.451263 -0.259863 -0.853717
vn -0.167271 -0.158962 -0.973011
vn -0.466208 -0.000000 -0.884675
vn 0.451263 -0.259863 -0.853717
vn -0.466208 -0.000000 -0.884675
vn 0.142828 -0.000000 -0.989747
vn 0.873699 -0.158962 -0.459762
vn 0.451263 -0.259863 -0.853717
vn 0.142828 -0.000000 -0.989747
vn 0.873699 -0.158962 -0.459762
vn 0.142828 -0.000000 -0.989747
vn 0.697310 -0.000000 -0.716770
vn -0.977079 -0.158962 -0.141593
vn -0.866882 -0.259863 0.425426
vn -0.697310 -0.000000 0.716770
vn -0.977079 -0.158962 -0.141593
vn -0.697310 -0.000000 0.716770
vn -0.985442 -0.000000 0.170011
vn -0.866882 -0.259863 0.425426
vn -0.436597 -0.158962 0.885502
vn -0.142828 -0.000000 0.989747
vn -0.866882 -0.259863 0.425426
vn -0.142828 -0.000000 0.989747
vn -0.697310 -0.000000 0.716770
vn 0.951381 -0.259863 0.165363
vn 0.873699 -0.158962 -0.459762
vn 0.697310 -0.000000 -0.716770
vn 0.951381 -0.259863 0.165363
vn 0.697310 -0.000000 -0.716770
vn 0.985442 -0.000000 -0.170011
vn 0.707247 -0.158962 0.688863
vn 0.951381 -0.259863 0.165363
vn 0.985442 -0.000000 -0.170011
vn 0.707247 -0.158962 0.688863
vn 0.985442 -0.000000 -0.170011
vn 0.897169 -0.000000 0.441687
vn -0.436597 -0.158962 0.885502
vn 0.136723 -0.259863 0.955917
vn 0.466208 -0.000000 0.884675
vn -0.436597 -0.158962 0.885502
vn 0.466208 -0.000000 0.884675
vn -0.142828 -0.000000 0.989747
vn 0.136723 -0.259863 0.955917
vn 0.707247 -0.158962 0.688863
vn 0.897169 -0.000000 0.441687
vn 0.136723 -0.259863 0.955917
vn 0.897169 -0.000000 0.441687
vn 0.466208 -0.000000 0.884675
vn -0.142828 -0.000000 0.989747
vn 0.466208 -0.000000 0.884675
vn 0.692537 -0.000000 0.721382
vn -0.142828 -0.000000 0.989747
vn 0.692537 -0.000000 0.721382
vn 0.136256 -0.000000 0.990674
vn 0.466208 -0.000000 0.884675
vn 0.897169 -0.000000 0.441687
vn 0.984292 -0.000000 0.176548
vn 0.466208 -0.000000 0.884675
vn 0.984292 -0.000000 0.176548
vn 0.692537 -0.000000 0.721382
vn 0.985442 -0.000000 -0.170011
vn 0.697310 -0.000000 -0.716770
vn 0.472070 -0.000000 -0.881561
vn 0.985442 -0.000000 -0.170011
vn 0.472070 -0.000000 -0.881561
vn 0.900081 -0.000000 -0.435722
vn 0.897169 -0.000000 0.441687
vn 0.985442 -0.000000 -0.170011
vn 0.900081 -0.000000 -0.435722
vn 0.897169 -0.000000 0.441687
vn 0.900081 -0.000000 -0.435722
vn 0.984292 -0.000000 0.176548
vn -0.697310 -0.000000 0.716770
vn -0.142828 -0.000000 0.989747
vn 0.136256 -0.000000 0.990674
vn -0.697310 -0.000000 0.716770
vn 0.136256 -0.000000 0.990674
vn -0.472070 -0.000000 0.881561
vn -0.985442 -0.000000 0.170011
vn -0.697310 -0.000000 0.716770
vn -0.472070 -0.000000 0.881561
vn -0.985442 -0.000000 0.170011
vn -0.472070 -0.000000 0.881561
vn -0.900081 -0.000000 0.435723
vn 0.142828 -0.000000 -0.989747
vn -0.466208 -0.000000 -0.884675
vn -0.692537 -0.000000 -0.721382
vn 0.142828 -0.000000 -0.989747
vn -0.692537 -0.000000 -0.721382
vn -0.136256 -0.000000 -0.990674
vn 0.697310 -0.000000 -0.716770
vn 0.142828 -0.000000 -0.989747
vn -0.136256 -0.000000 -0.990674
vn 0.697310 -0.000000 -0.716770
vn -0.136256 -0.000000 -0.990674
vn 0.472070 -0.000000 -0.881561
vn -0.897169 -0.000000 -0.441687
vn -0.985442 -0.000000 0.170011
vn -0.900081 -0.000000 0.435723
vn -0.897169 -0.000000 -0.441687
vn -0.900081 -0.000000 0.435723
vn -0.984292 -0.000000 -0.176548
vn -0.466208 -0.000000 -0.884675
vn -0.897169 -0.000000 -0.441687
vn -0.984292 -0.000000 -0.176548
vn -0.466208 -0.000000 -0.884675
vn -0.984292 -0.000000 -0.176548
vn -0.692537 -0.000000 -0.721382
vn -0.984292 -0.000000 -0.176548
vn -0.900081 -0.000000 0.435723
vn -0.908615 -0.000000 0.417635
vn -0.984292 -0.000000 -0.176548
vn -0.908615 -0.000000 0.417635
vn -0.980565 -0.000000 -0.196197
vn -0.692537 -0.000000 -0.721382
vn -0.984292 -0.000000 -0.176548
vn -0.980565 -0.000000 -0.196197
vn -0.692537 -0.000000 -0.721382
vn -0.980565 -0.000000 -0.196197
vn -0.677972 -0.000000 -0.735088
vn -0.136256 -0.000000 -0.990674
vn -0.692537 -0.000000 -0.721382
vn -0.677972 -0.000000 -0.735088
vn -0.136256 -0.000000 -0.990674
vn -0.677972 -0.000000 -0.735088
vn -0.116417 -0.000000 -0.993200
vn 0.472070 -0.000000 -0.881561
vn -0.136256 -0.000000 -0.990674
vn -0.116417 -0.000000 -0.993200
vn 0.472070 -0.000000 -0.881561
vn -0.116417 -0.000000 -0.993200
vn 0.489605 -0.000000 -0.871944
vn -0.472070 -0.000000 0.881561
vn 0.136256 -0.000000 0.990674
vn 0.116417 -0.000000 0.993200
vn -0.472070 -0.000000 0.881561
vn 0.116417 -0.000000 0.993200
vn -0.489605 -0.000000 0.871944
vn -0.900081 -0.000000 0.435723
vn -0.472070 -0.000000 0.881561
vn -0.489605 -0.000000 0.871944
vn -0.900081 -0.000000 0.435723
vn -0.489605 -0.000000 0.871944
vn -0.908615 -0.000000 0.417635
vn 0.900081 -0.000000 -0.435722
vn 0.472070 -0.000000 -0.881561
vn 0.489605 -0.000000 -0.871944
vn 0.900081 -0.000000 -0.435722
vn 0.489605 -0.000000 -0.871944
vn 0.908615 -0.000000 -0.417635
vn 0.984292 -0.000000 0.176548
vn 0.900081 -0.000000 -0.435722
vn 0.908615 -0.000000 -0.417635
vn 0.984292 -0.000000 0.176548
vn 0.908615 -0.000000 -0.417635
vn 0.980565 -0.000000 0.196197
vn 0.136256 -0.000000 0.990674
vn 0.692537 -0.000000 0.721382
vn 0.677972 -0.000000 0.735088
vn 0.136256 -0.000000 0.990674
vn 0.677972 -0.000000 0.735088
vn 0.116417 -0.000000 0.993200
vn 0.692537 -0.000000 0.721382
vn 0.984292 -0.000000 0.176548
vn 0.980565 -0.000000 0.196197
vn 0.692537 -0.000000 0.721382
vn 0.980565 -0.000000 0.196197
vn 0.677972 -0.000000 0.735088
vn 0.116417 -0.000000 0.993200
vn 0.677972 -0.000000 0.735088
vn 0.710353 0.000000 0.703845
vn 0.116417 -0.000000 0.993200
vn 0.710353 0.000000 0.703845
vn 0.160978 0.000000 0.986958
vn 0.677972 -0.000000 0.735088
vn 0.980565 -0.000000 0.196197
vn 0.988398 0.000000 0.151888
vn 0.677972 -0.000000 0.735088
vn 0.988398 0.000000 0.151888
vn 0.710353 0.000000 0.703845
vn 0.908615 -0.000000 -0.417635
vn 0.489605 -0.000000 -0.871944
vn 0.449885 -0.000000 -0.893086
vn 0.908615 -0.000000 -0.417635
vn 0.449885 -0.000000 -0.893086
vn 0.888908 -0.000000 -0.458086
vn 0.980565 -0.000000 0.196197
vn 0.908615 -0.000000 -0.417635
vn 0.888908 -0.000000 -0.458086
vn 0.980565 -0.000000 0.196197
vn 0.888908 -0.000000 -0.458086
vn 0.988398 0.000000 0.151888
vn -0.489605 -0.000000 0.871944
vn 0.116417 -0.000000 0.993200
vn 0.160978 0.000000 0.986958
vn -0.489605 -0.000000 0.871944
vn 0.160978 0.000000 0.986958
vn -0.449886 0.000000 0.893086
vn -0.908615 -0.000000 0.417635
vn -0.489605 -0.000000 0.871944
vn -0.449886 0.000000 0.893086
vn -0.908615 -0.000000 0.417635
vn -0.449886 0.000000 0.893086
vn -0.888908 -0.000000 0.458086
vn -0.116417 -0.000000 -0.993200
vn -0.677972 -0.000000 -0.735088
vn -0.710353 0.000000 -0.703846
vn -0.116417 -0.000000 -0.993200
vn -0.710353 0.000000 -0.703846
vn -0.160978 -0.000000 -0.986958
vn 0.489605 -0.000000 -0.871944
vn -0.116417 -0.000000 -0.993200
vn -0.160978 -0.000000 -0.986958
vn 0.489605 -0.000000 -0.871944
vn -0.160978 -0.000000 -0.986958
vn 0.449885 -0.000000 -0.893086
vn -0.980565 -0.000000 -0.196197
vn -0.908615 -0.000000 0.417635
vn -0.888908 -0.000000 0.458086
vn -0.980565 -0.000000 -0.196197
vn -0.888908 -0.000000 0.458086
vn -0.988398 0.000000 -0.151888
vn -0.677972 -0.000000 -0.735088
vn -0.980565 -0.000000 -0.196197
vn -0.988398 0.000000 -0.151888
vn -0.677972 -0.000000 -0.735088
vn -0.988398 0.000000 -0.151888
vn -0.710353 0.000000 -0.703846
vn -0.988398 0.000000 -0.151888
vn -0.888908 -0.000000 0.458086
vn -0.705023 -0.000000 0.709185
vn -0.988398 0.000000 -0.151888
vn -0.705023 -0.000000 0.709185
vn -0.987224 0.000000 0.159340
vn -0.710353 0.000000 -0.703846
vn -0.988398 0.000000 -0.151888
vn -0.987224 0.000000 0.159340
vn -0.710353 0.000000 -0.703846
vn -0.987224 0.000000 0.159340
vn -0.892339 0.000000 -0.451367
vn -0.160978 -0.000000 -0.986958
vn -0.710353 0.000000 -0.703846
vn -0.892339 0.000000 -0.451367
vn -0.160978 -0.000000 -0.986958
vn -0.892339 0.000000 -0.451367
vn -0.456610 0.000000 -0.889667
vn 0.449885 -0.000000 -0.893086
vn -0.160978 -0.000000 -0.986958
vn -0.456610 0.000000 -0.889667
vn 0.449885 -0.000000 -0.893086
vn -0.456610 0.000000 -0.889667
vn 0.153527 -0.000000 -0.988144
vn -0.449886 0.000000 0.893086
vn 0.160978 0.000000 0.986958
vn 0.456610 0.000000 0.889667
vn -0.449886 0.000000 0.893086
vn 0.456610 0.000000 0.889667
vn -0.153528 0.000000 0.988144
vn -0.888908 -0.000000 0.458086
vn -0.449886 0.000000 0.893086
vn -0.153528 0.000000 0.988144
vn -0.888908 -0.000000 0.458086
vn -0.153528 0.000000 0.988144
vn -0.705023 -0.000000 0.709185
vn 0.888908 -0.000000 -0.458086
vn 0.449885 -0.000000 -0.893086
vn 0.153527 -0.000000 -0.988144
vn 0.888908 -0.000000 -0.458086
vn 0.153527 -0.000000 -0.988144
vn 0.705023 -0.000000 -0.709184
vn 0.988398 0.000000 0.151888
vn 0.888908 -0.000000 -0.458086
vn 0.705023 -0.000000 -0.709184
vn 0.988398 0.000000 0.151888
vn 0.705023 -0.000000 -0.709184
vn 0.987224 0.000000 -0.159340
vn 0.160978 0.000000 0.986958
vn 0.710353 0.000000 0.703845
vn 0.892339 0.000000 0.451367
vn 0.160978 0.000000 0.986958
vn 0.892339 0.000000 0.451367
vn 0.456610 0.000000 0.889667
vn 0.710353 0.000000 0.703845
vn 0.988398 0.000000 0.151888
vn 0.987224 0.000000 -0.159340
vn 0.710353 0.000000 0.703845
vn 0.987224 0.000000 -0.159340
vn 0.892339 0.000000 0.451367
vn 0.456610 0.000000 0.889667
vn 0.892339 0.000000 0.451367
vn 0.998152 -0.000000 0.060759
vn 0.456610 0.000000 0.889667
vn 0.998152 -0.000000 0.060759
vn 0.771809 -0.000000 0.635854
vn 0.892339 0.000000 0.451367
vn 0.987224 0.000000 -0.159340
vn 0.843235 -0.000000 -0.537544
vn 0.892339 0.000000 0.451367
vn 0.843235 -0.000000 -0.537544
vn 0.998152 -0.000000 0.060759
vn 0.705023 -0.000000 -0.709184
vn 0.153527 -0.000000 -0.988144
vn -0.250661 -0.000000 -0.968075
vn 0.705023 -0.000000 -0.709184
vn -0.250661 -0.000000 -0.968075
vn 0.366231 -0.000000 -0.930524
vn 0.987224 0.000000 -0.159340
vn 0.705023 -0.000000 -0.709184
vn 0.366231 -0.000000 -0.930524
vn 0.987224 0.000000 -0.159340
vn 0.366231 -0.000000 -0.930524
vn 0.843235 -0.000000 -0.537544
vn -0.153528 0.000000 0.988144
vn 0.456610 0.000000 0.889667
vn 0.771809 -0.000000 0.635854
vn -0.153528 0.000000 0.988144
vn 0.771809 -0.000000 0.635854
vn 0.250661 -0.000000 0.968075
vn -0.705023 -0.000000 0.709185
vn -0.153528 0.000000 0.988144
vn 0.250661 -0.000000 0.968075
vn -0.705023 -0.000000 0.709185
vn 0.250661 -0.000000 0.968075
vn -0.366231 -0.000000 0.930524
vn -0.456610 0.000000 -0.889667
vn -0.892339 0.000000 -0.451367
vn -0.998152 -0.000000 -0.060759
vn -0.456610 0.000000 -0.889667
vn -0.998152 -0.000000 -0.060759
vn -0.771809 -0.000000 -0.635854
vn 0.153527 -0.000000 -0.988144
vn -0.456610 0.000000 -0.889667
vn -0.771809 -0.000000 -0.635854
vn 0.153527 -0.000000 -0.988144
vn -0.771809 -0.000000 -0.635854
vn -0.250661 -0.000000 -0.968075
vn -0.987224 0.000000 0.159340
vn -0.705023 -0.000000 0.709185
vn -0.366231 -0.000000 0.930524
vn -0.987224 0.000000 0.159340
vn -0.366231 -0.000000 0.930524
vn -0.843235 -0.000000 0.537544
vn -0.892339 0.000000 -0.451367
vn -0.987224 0.000000 0.159340
vn -0.843235 -0.000000 0.537544
vn -0.892339 0.000000 -0.451367
vn -0.843235 -0.000000 0.537544
vn -0.998152 -0.000000 -0.060759
vn -0.843235 -0.000000 0.537544
vn -0.366231 -0.000000 0.930524
vn -0.119668 -0.000000 0.992814
vn -0.843235 -0.000000 0.537544
vn -0.119668 -0.000000 0.992814
vn -0.680375 -0.000000 0.732864
vn -0.998152 -0.000000 -0.060759
vn -0.843235 -0.000000 0.537544
vn -0.680375 -0.000000 0.732864
vn -0.998152 -0.000000 -0.060759
vn -0.680375 -0.000000 0.732864
vn -0.981202 -0.000000 0.192985
vn -0.771809 -0.000000 -0.635854
vn -0.998152 -0.000000 -0.060759
vn -0.981202 -0.000000 0.192985
vn -0.771809 -0.000000 -0.635854
vn -0.981202 -0.000000 0.192985
vn -0.907243 -0.000000 -0.420607
vn -0.250661 -0.000000 -0.968075
vn -0.771809 -0.000000 -0.635854
vn -0.907243 -0.000000 -0.420607
vn -0.250661 -0.000000 -0.968075
vn -0.907243 -0.000000 -0.420607
vn -0.486748 -0.000000 -0.873542
vn 0.250661 -0.000000 0.968075
vn 0.771809 -0.000000 0.635854
vn 0.907243 -0.000000 0.420608
vn 0.250661 -0.000000 0.968075
vn 0.907243 -0.000000 0.420608
vn 0.486748 -0.000000 0.873543
vn -0.366231 -0.000000 0.930524
vn 0.250661 -0.000000 0.968075
vn 0.486748 -0.000000 0.873543
vn -0.366231 -0.000000 0.930524
vn 0.486748 -0.000000 0.873543
vn -0.119668 -0.000000 0.992814
vn 0.366231 -0.000000 -0.930524
vn -0.250661 -0.000000 -0.968075
vn -0.486748 -0.000000 -0.873542
vn 0.366231 -0.000000 -0.930524
vn -0.486748 -0.000000 -0.873542
vn 0.119668 -0.000000 -0.992814
vn 0.843235 -0.000000 -0.537544
vn 0.366231 -0.000000 -0.930524
vn 0.119668 -0.000000 -0.992814
vn 0.843235 -0.000000 -0.537544
vn 0.119668 -0.000000 -0.992814
vn 0.680375 -0.000000 -0.732864
vn 0.771809 -0.000000 0.635854
vn 0.998152 -0.000000 0.060759
vn 0.981202 -0.000000 -0.192985
vn 0.771809 -0.000000 0.635854
vn 0.981202 -0.000000 -0.192985
vn 0.907243 -0.000000 0.420608
vn 0.998152 -0.000000 0.060759
vn 0.843235 -0.000000 -0.537544
vn 0.680375 -0.000000 -0.732864
vn 0.998152 -0.000000 0.060759
vn 0.680375 -0.000000 -0.732864
vn 0.981202 -0.000000 -0.192985
vn 0.907243 -0.000000 0.420608
vn 0.981202 -0.000000 -0.192985
vn 0.994313 -0.000000 -0.106501
vn 0.907243 -0.000000 0.420608
vn 0.994313 -0.000000 -0.106501
vn 0.867016 -0.000000 0.498281
vn 0.981202 -0.000000 -0.192985
vn 0.680375 -0.000000 -0.732864
vn 0.741816 -0.000000 -0.670603
vn 0.981202 -0.000000 -0.192985
vn 0.741816 -0.000000 -0.670603
vn 0.994313 -0.000000 -0.106501
vn 0.119668 -0.000000 -0.992814
vn -0.486748 -0.000000 -0.873542
vn -0.408548 -0.000000 -0.912737
vn 0.119668 -0.000000 -0.992814
vn -0.408548 -0.000000 -0.912737
vn 0.205971 -0.000000 -0.978558
vn 0.680375 -0.000000 -0.732864
vn 0.119668 -0.000000 -0.992814
vn 0.205971 -0.000000 -0.978558
vn 0.680375 -0.000000 -0.732864
vn 0.205971 -0.000000 -0.978558
vn 0.741816 -0.000000 -0.670603
vn 0.486748 -0.000000 0.873543
vn 0.907243 -0.000000 0.420608
vn 0.867016 -0.000000 0.498281
vn 0.486748 -0.000000 0.873543
vn 0.867016 -0.000000 0.498281
vn 0.408548 -0.000000 0.912737
vn -0.119668 -0.000000 0.992814
vn 0.486748 -0.000000 0.873543
vn 0.408548 -0.000000 0.912737
vn -0.119668 -0.000000 0.992814
vn 0.408548 -0.000000 0.912737
vn -0.205970 0.000000 0.978558
vn -0.907243 -0.000000 -0.420607
vn -0.981202 -0.000000 0.192985
vn -0.994313 -0.000000 0.106501
vn -0.907243 -0.000000 -0.420607
vn -0.994313 -0.000000 0.106501
vn -0.867016 -0.000000 -0.498281
vn -0.486748 -0.000000 -0.873542
vn -0.907243 -0.000000 -0.420607
vn -0.867016 -0.000000 -0.498281
vn -0.486748 -0.000000 -0.873542
vn -0.867016 -0.000000 -0.498281
vn -0.408548 -0.000000 -0.912737
vn -0.680375 -0.000000 0.732864
vn -0.119668 -0.000000 0.992814
vn -0.205970 0.000000 0.978558
vn -0.680375 -0.000000 0.732864
vn -0.205970 0.000000 0.978558
vn -0.741816 -0.000000 0.670603
vn -0.981202 -0.000000 0.192985
vn -0.680375 -0.000000 0.732864
vn -0.741816 -0.000000 0.670603
vn -0.981202 -0.000000 0.192985
vn -0.741816 -0.000000 0.670603
vn -0.994313 -0.000000 0.106501
vn -0.741816 -0.000000 0.670603
vn -0.205970 0.000000 0.978558
vn -0.305016 -0.000000 0.952347
vn -0.741816 -0.000000 0.670603
vn -0.305016 -0.000000 0.952347
vn -0.806539 -0.000000 0.591181
vn -0.994313 -0.000000 0.106501
vn -0.741816 -0.000000 0.670603
vn -0.806539 -0.000000 0.591181
vn -0.994313 -0.000000 0.106501
vn -0.806539 -0.000000 0.591181
vn -0.999991 -0.000000 0.004203
vn -0.867016 -0.000000 -0.498281
vn -0.994313 -0.000000 0.106501
vn -0.999991 -0.000000 0.004203
vn -0.867016 -0.000000 -0.498281
vn -0.999991 -0.000000 0.004203
vn -0.811481 -0.000000 -0.584379
vn -0.408548 -0.000000 -0.912737
vn -0.867016 -0.000000 -0.498281
vn -0.811481 -0.000000 -0.584379
vn -0.408548 -0.000000 -0.912737
vn -0.811481 -0.000000 -0.584379
vn -0.313012 -0.000000 -0.949749
vn 0.408548 -0.000000 0.912737
vn 0.867016 -0.000000 0.498281
vn 0.811481 0.000000 0.584379
vn 0.408548 -0.000000 0.912737
vn 0.811481 0.000000 0.584379
vn 0.313012 0.000000 0.949749
vn -0.205970 0.000000 0.978558
vn 0.408548 -0.000000 0.912737
vn 0.313012 0.000000 0.949749
vn -0.205970 0.000000 0.978558
vn 0.313012 0.000000 0.949749
vn -0.305016 -0.000000 0.952347
vn 0.205971 -0.000000 -0.978558
vn -0.408548 -0.000000 -0.912737
vn -0.313012 -0.000000 -0.949749
vn 0.205971 -0.000000 -0.978558
vn -0.313012 -0.000000 -0.949749
vn 0.305016 -0.000000 -0.952347
vn 0.741816 -0.000000 -0.670603
vn 0.205971 -0.000000 -0.978558
vn 0.305016 -0.000000 -0.952347
vn 0.741816 -0.000000 -0.670603
vn 0.305016 -0.000000 -0.952347
vn 0.806539 -0.000000 -0.591181
vn 0.867016 -0.000000 0.498281
vn 0.994313 -0.000000 -0.106501
vn 0.999991 0.000000 -0.004204
vn 0.867016 -0.000000 0.498281
vn 0.999991 0.000000 -0.004204
vn 0.811481 0.000000 0.584379
vn 0.994313 -0.000000 -0.106501
vn 0.741816 -0.000000 -0.670603
vn 0.806539 -0.000000 -0.591181
vn 0.994313 -0.000000 -0.106501
vn 0.806539 -0.000000 -0.591181
vn 0.999991 0.000000 -0.004204
vn 0.811481 0.000000 0.584379
vn 0.999991 0.000000 -0.004204
vn 0.971527 0.000000 -0.236929
vn 0.811481 0.000000 0.584379
vn 0.971527 0.000000 -0.236929
vn 0.925245 0.000000 0.379370
vn 0.999991 0.000000 -0.004204
vn 0.806539 -0.000000 -0.591181
vn 0.646719 0.000000 -0.762729
vn 0.999991 0.000000 -0.004204
vn 0.646719 0.000000 -0.762729
vn 0.971527 0.000000 -0.236929
vn 0.305016 -0.000000 -0.952347
vn -0.313012 -0.000000 -0.949749
vn -0.525551 -0.000000 -0.850762
vn 0.305016 -0.000000 -0.952347
vn -0.525551 -0.000000 -0.850762
vn 0.074885 -0.000000 -0.997192
vn 0.806539 -0.000000 -0.591181
vn 0.305016 -0.000000 -0.952347
vn 0.074885 -0.000000 -0.997192
vn 0.806539 -0.000000 -0.591181
vn 0.074885 -0.000000 -0.997192
vn 0.646719 0.000000 -0.762729
vn 0.313012 0.000000 0.949749
vn 0.811481 0.000000 0.584379
vn 0.925245 0.000000 0.379370
vn 0.313012 0.000000 0.949749
vn 0.925245 0.000000 0.379370
vn 0.525551 0.000000 0.850762
vn -0.305016 -0.000000 0.952347
vn 0.313012 0.000000 0.949749
vn 0.525551 0.000000 0.850762
vn -0.305016 -0.000000 0.952347
vn 0.525551 0.000000 0.850762
vn -0.074885 -0.000000 0.997192
vn -0.811481 -0.000000 -0.584379
vn -0.999991 -0.000000 0.004203
vn -0.971527 -0.000000 0.236929
vn -0.811481 -0.000000 -0.584379
vn -0.971527 -0.000000 0.236929
vn -0.925245 -0.000000 -0.379370
vn -0.313012 -0.000000 -0.949749
vn -0.811481 -0.000000 -0.584379
vn -0.925245 -0.000000 -0.379370
vn -0.313012 -0.000000 -0.949749
vn -0.925245 -0.000000 -0.379370
vn -0.525551 -0.000000 -0.850762
vn -0.806539 -0.000000 0.591181
vn -0.305016 -0.000000 0.952347
vn -0.074885 -0.000000 0.997192
vn -0.806539 -0.000000 0.591181
vn -0.074885 -0.000000 0.997192
vn -0.646719 0.000000 0.762729
vn -0.999991 -0.000000 0.004203
vn -0.806539 -0.000000 0.591181
vn -0.646719 0.000000 0.762729
vn -0.999991 -0.000000 0.004203
vn -0.646719 0.000000 0.762729
vn -0.971527 -0.000000 0.236929
vn -0.646719 0.000000 0.762729
vn -0.074885 -0.000000 0.997192
vn 0.324085 -0.000000 0.946028
vn -0.646719 0.000000 0.762729
vn 0.324085 -0.000000 0.946028
vn -0.293871 0.000000 0.955845
vn -0.971527 -0.000000 0.236929
vn -0.646719 0.000000 0.762729
vn -0.293871 0.000000 0.955845
vn -0.971527 -0.000000 0.236929
vn -0.293871 0.000000 0.955845
vn -0.799578 -0.000000 0.600562
vn -0.925245 -0.000000 -0.379370
vn -0.971527 -0.000000 0.236929
vn -0.799578 -0.000000 0.600562
vn -0.925245 -0.000000 -0.379370
vn -0.799578 -0.000000 0.600562
vn -0.999874 -0.000000 0.015884
vn -0.525551 -0.000000 -0.850762
vn -0.925245 -0.000000 -0.379370
vn -0.999874 -0.000000 0.015884
vn -0.525551 -0.000000 -0.850762
vn -0.999874 -0.000000 0.015884
vn -0.818251 -0.000000 -0.574861
vn 0.525551 0.000000 0.850762
vn 0.925245 0.000000 0.379370
vn 0.999874 0.000000 -0.015884
vn 0.525551 0.000000 0.850762
vn 0.999874 0.000000 -0.015884
vn 0.818251 0.000000 0.574861
vn -0.074885 -0.000000 0.997192
vn 0.525551 0.000000 0.850762
vn 0.818251 0.000000 0.574861
vn -0.074885 -0.000000 0.997192
vn 0.818251 0.000000 0.574861
vn 0.324085 -0.000000 0.946028
vn 0.074885 -0.000000 -0.997192
vn -0.525551 -0.000000 -0.850762
vn -0.818251 -0.000000 -0.574861
vn 0.074885 -0.000000 -0.997192
vn -0.818251 -0.000000 -0.574861
vn -0.324085 -0.000000 -0.946028
vn 0.646719 0.000000 -0.762729
vn 0.074885 -0.000000 -0.997192
vn -0.324085 -0.000000 -0.946028
vn 0.646719 0.000000 -0.762729
vn -0.324085 -0.000000 -0.946028
vn 0.293872 0.000000 -0.955845
vn 0.925245 0.000000 0.379370
vn 0.971527 0.000000 -0.236929
vn 0.799578 0.000000 -0.600562
vn 0.925245 0.000000 0.379370
vn 0.799578 0.000000 -0.600562
vn 0.999874 0.000000 -0.015884
vn 0.971527 0.000000 -0.236929
vn 0.646719 0.000000 -0.762729
vn 0.293872 0.000000 -0.955845
vn 0.971527 0.000000 -0.236929
vn 0.293872 0.000000 -0.955845
vn 0.799578 0.000000 -0.600562
vn 0.999874 0.000000 -0.015884
vn 0.799578 0.000000 -0.600562
vn 0.467617 -0.000000 -0.883931
vn 0.999874 0.000000 -0.015884
vn 0.467617 -0.000000 -0.883931
vn 0.897872 0.000000 -0.440257
vn 0.799578 0.000000 -0.600562
vn 0.293872 0.000000 -0.955845
vn -0.141251 0.000000 -0.989974
vn 0.799578 0.000000 -0.600562
vn -0.141251 0.000000 -0.989974
vn 0.467617 -0.000000 -0.883931
vn -0.324085 -0.000000 -0.946028
vn -0.818251 -0.000000 -0.574861
vn -0.985170 -0.000000 -0.171580
vn -0.324085 -0.000000 -0.946028
vn -0.985170 -0.000000 -0.171580
vn -0.696167 -0.000000 -0.717880
vn 0.293872 0.000000 -0.955845
vn -0.324085 -0.000000 -0.946028
vn -0.696167 -0.000000 -0.717880
vn 0.293872 0.000000 -0.955845
vn -0.696167 -0.000000 -0.717880
vn -0.141251 0.000000 -0.989974
vn 0.818251 0.000000 0.574861
vn 0.999874 0.000000 -0.015884
vn 0.897872 0.000000 -0.440257
vn 0.818251 0.000000 0.574861
vn 0.897872 0.000000 -0.440257
vn 0.985170 0.000000 0.171581
vn 0.324085 -0.000000 0.946028
vn 0.818251 0.000000 0.574861
vn 0.985170 0.000000 0.171581
vn 0.324085 -0.000000 0.946028
vn 0.985170 0.000000 0.171581
vn 0.696167 -0.000000 0.717880
vn -0.999874 -0.000000 0.015884
vn -0.799578 -0.000000 0.600562
vn -0.467617 -0.000000 0.883931
vn -0.999874 -0.000000 0.015884
vn -0.467617 -0.000000 0.883931
vn -0.897872 -0.000000 0.440257
vn -0.818251 -0.000000 -0.574861
vn -0.999874 -0.000000 0.015884
vn -0.897872 -0.000000 0.440257
vn -0.818251 -0.000000 -0.574861
vn -0.897872 -0.000000 0.440257
vn -0.985170 -0.000000 -0.171580
vn -0.293871 0.000000 0.955845
vn 0.324085 -0.000000 0.946028
vn 0.696167 -0.000000 0.717880
vn -0.293871 0.000000 0.955845
vn 0.696167 -0.000000 0.717880
vn 0.141252 -0.000000 0.989974
vn -0.799578 -0.000000 0.600562
vn -0.293871 0.000000 0.955845
vn 0.141252 -0.000000 0.989974
vn -0.799578 -0.000000 0.600562
vn 0.141252 -0.000000 0.989974
vn -0.467617 -0.000000 0.883931
vn 0.141252 -0.000000 0.989974
vn 0.696167 -0.000000 0.717880
vn 0.936511 -0.000000 0.350637
vn 0.141252 -0.000000 0.989974
vn 0.936511 -0.000000 0.350637
vn 0.551553 -0.000000 0.834140
vn -0.467617 -0.000000 0.883931
vn 0.141252 -0.000000 0.989974
vn 0.551553 -0.000000 0.834140
vn -0.467617 -0.000000 0.883931
vn 0.551553 -0.000000 0.834140
vn -0.044079 -0.000000 0.999028
vn -0.897872 -0.000000 0.440257
vn -0.467617 -0.000000 0.883931
vn -0.044079 -0.000000 0.999028
vn -0.897872 -0.000000 0.440257
vn -0.044079 -0.000000 0.999028
vn -0.622874 -0.000000 0.782322
vn -0.985170 -0.000000 -0.171580
vn -0.897872 -0.000000 0.440257
vn -0.622874 -0.000000 0.782322
vn -0.985170 -0.000000 -0.171580
vn -0.622874 -0.000000 0.782322
vn -0.963753 -0.000000 0.266795
vn 0.985170 0.000000 0.171581
vn 0.897872 0.000000 -0.440257
vn 0.622875 0.000000 -0.782322
vn 0.985170 0.000000 0.171581
vn 0.622875 0.000000 -0.782322
vn 0.963753 0.000000 -0.266795
vn 0.696167 -0.000000 0.717880
vn 0.985170 0.000000 0.171581
vn 0.963753 0.000000 -0.266795
vn 0.696167 -0.000000 0.717880
vn 0.963753 0.000000 -0.266795
vn 0.936511 -0.000000 0.350637
vn -0.696167 -0.000000 -0.717880
vn -0.985170 -0.000000 -0.171580
vn -0.963753 -0.000000 0.266795
vn -0.696167 -0.000000 -0.717880
vn -0.963753 -0.000000 0.266795
vn -0.936511 -0.000000 -0.350638
vn -0.141251 0.000000 -0.989974
vn -0.696167 -0.000000 -0.717880
vn -0.936511 -0.000000 -0.350638
vn -0.141251 0.000000 -0.989974
vn -0.936511 -0.000000 -0.350638
vn -0.551553 0.000000 -0.834140
vn 0.897872 0.000000 -0.440257
vn 0.467617 -0.000000 -0.883931
vn 0.044078 0.000000 -0.999028
vn 0.897872 0.000000 -0.440257
vn 0.044078 0.000000 -0.999028
vn 0.622875 0.000000 -0.782322
vn 0.467617 -0.000000 -0.883931
vn -0.141251 0.000000 -0.989974
vn -0.551553 0.000000 -0.834140
vn 0.467617 -0.000000 -0.883931
vn -0.551553 0.000000 -0.834140
vn 0.044078 0.000000 -0.999028
vn 0.622875 0.000000 -0.782322
vn 0.044078 0.000000 -0.999028
vn -0.343750 0.000000 -0.939061
vn 0.622875 0.000000 -0.782322
vn -0.343750 0.000000 -0.939061
vn 0.273867 0.000000 -0.961767
vn 0.044078 0.000000 -0.999028
vn -0.551553 0.000000 -0.834140
vn -0.830066 0.000000 -0.557666
vn 0.044078 0.000000 -0.999028
vn -0.830066 0.000000 -0.557666
vn -0.343750 0.000000 -0.939061
vn -0.936511 -0.000000 -0.350638
vn -0.963753 -0.000000 0.266795
vn -0.786876 -0.000000 0.617111
vn -0.936511 -0.000000 -0.350638
vn -0.786876 -0.000000 0.617111
vn -0.999325 -0.000000 0.036740
vn -0.551553 0.000000 -0.834140
vn -0.936511 -0.000000 -0.350638
vn -0.999325 -0.000000 0.036740
vn -0.551553 0.000000 -0.834140
vn -0.999325 -0.000000 0.036740
vn -0.830066 0.000000 -0.557666
vn 0.963753 0.000000 -0.266795
vn 0.622875 0.000000 -0.782322
vn 0.273867 0.000000 -0.961767
vn 0.963753 0.000000 -0.266795
vn 0.273867 0.000000 -0.961767
vn 0.786876 0.000000 -0.617111
vn 0.936511 -0.000000 0.350637
vn 0.963753 0.000000 -0.266795
vn 0.786876 0.000000 -0.617111
vn 0.936511 -0.000000 0.350637
vn 0.786876 0.000000 -0.617111
vn 0.999325 -0.000000 -0.036740
vn -0.622874 -0.000000 0.782322
vn -0.044079 -0.000000 0.999028
vn 0.343750 -0.000000 0.939061
vn -0.622874 -0.000000 0.782322
vn 0.343750 -0.000000 0.939061
vn -0.273867 -0.000000 0.961768
vn -0.963753 -0.000000 0.266795
vn -0.622874 -0.000000 0.782322
vn -0.273867 -0.000000 0.961768
vn -0.963753 -0.000000 0.266795
vn -0.273867 -0.000000 0.961768
vn -0.786876 -0.000000 0.617111
vn 0.551553 -0.000000 0.834140
vn 0.936511 -0.000000 0.350637
vn 0.999325 -0.000000 -0.036740
vn 0.551553 -0.000000 0.834140
vn 0.999325 -0.000000 -0.036740
vn 0.830066 -0.000000 0.557666
vn -0.044079 -0.000000 0.999028
vn 0.551553 -0.000000 0.834140
vn 0.830066 -0.000000 0.557666
vn -0.044079 -0.000000 0.999028
vn 0.830066 -0.000000 0.557666
vn 0.343750 -0.000000 0.939061
vn 0.830066 -0.000000 0.557666
vn 0.999325 -0.000000 -0.036740
vn 0.914410 -0.000000 -0.404790
vn 0.830066 -0.000000 0.557666
vn 0.914410 -0.000000 -0.404790
vn 0.977702 -0.000000 0.209996
vn 0.343750 -0.000000 0.939061
vn 0.830066 -0.000000 0.557666
vn 0.977702 -0.000000 0.209996
vn 0.343750 -0.000000 0.939061
vn 0.977702 -0.000000 0.209996
vn 0.667545 -0.000000 0.744569
vn -0.273867 -0.000000 0.961768
vn 0.343750 -0.000000 0.939061
vn 0.667545 -0.000000 0.744569
vn -0.273867 -0.000000 0.961768
vn 0.667545 -0.000000 0.744569
vn 0.102409 -0.000001 0.994742
vn -0.786876 -0.000000 0.617111
vn -0.273867 -0.000000 0.961768
vn 0.102409 -0.000001 0.994742
vn -0.786876 -0.000000 0.617111
vn 0.102409 -0.000001 0.994742
vn -0.501844 -0.000001 0.864958
vn 0.786876 0.000000 -0.617111
vn 0.273867 0.000000 -0.961767
vn -0.102409 0.000000 -0.994742
vn 0.786876 0.000000 -0.617111
vn -0.102409 0.000000 -0.994742
vn 0.501845 0.000000 -0.864958
vn 0.999325 -0.000000 -0.036740
vn 0.786876 0.000000 -0.617111
vn 0.501845 0.000000 -0.864958
vn 0.999325 -0.000000 -0.036740
vn 0.501845 0.000000 -0.864958
vn 0.914410 -0.000000 -0.404790
vn -0.999325 -0.000000 0.036740
vn -0.786876 -0.000000 0.617111
vn -0.501844 -0.000001 0.864958
vn -0.999325 -0.000000 0.036740
vn -0.501844 -0.000001 0.864958
vn -0.914410 -0.000000 0.404789
vn -0.830066 0.000000 -0.557666
vn -0.999325 -0.000000 0.036740
vn -0.914410 -0.000000 0.404789
vn -0.830066 0.000000 -0.557666
vn -0.914410 -0.000000 0.404789
vn -0.977702 -0.000000 -0.209996
vn 0.273867 0.000000 -0.961767
vn -0.343750 0.000000 -0.939061
vn -0.667546 -0.000000 -0.744569
vn 0.273867 0.000000 -0.961767
vn -0.667546 -0.000000 -0.744569
vn -0.102409 0.000000 -0.994742
vn -0.343750 0.000000 -0.939061
vn -0.830066 0.000000 -0.557666
vn -0.977702 -0.000000 -0.209996
vn -0.343750 0.000000 -0.939061
vn -0.977702 -0.000000 -0.209996
vn -0.667546 -0.000000 -0.744569
vn -0.102409 0.000000 -0.994742
vn -0.667546 -0.000000 -0.744569
vn -0.889344 0.000000 -0.457239
vn -0.102409 0.000000 -0.994742
vn -0.889344 0.000000 -0.457239
vn -0.450735 0.000001 -0.892658
vn -0.667546 -0.000000 -0.744569
vn -0.977702 -0.000000 -0.209996
vn -0.988253 0.000000 0.152828
vn -0.667546 -0.000000 -0.744569
vn -0.988253 0.000000 0.152828
vn -0.889344 0.000000 -0.457239
vn -0.914410 -0.000000 0.404789
vn -0.501844 -0.000001 0.864958
vn -0.160038 -0.000001 0.987111
vn -0.914410 -0.000000 0.404789
vn -0.160038 -0.000001 0.987111
vn -0.709683 -0.000000 0.704521
vn -0.977702 -0.000000 -0.209996
vn -0.914410 -0.000000 0.404789
vn -0.709683 -0.000000 0.704521
vn -0.977702 -0.000000 -0.209996
vn -0.709683 -0.000000 0.704521
vn -0.988253 0.000000 0.152828
vn 0.501845 0.000000 -0.864958
vn -0.102409 0.000000 -0.994742
vn -0.450735 0.000001 -0.892658
vn 0.501845 0.000000 -0.864958
vn -0.450735 0.000001 -0.892658
vn 0.160039 0.000000 -0.987111
vn 0.914410 -0.000000 -0.404790
vn 0.501845 0.000000 -0.864958
vn 0.160039 0.000000 -0.987111
vn 0.914410 -0.000000 -0.404790
vn 0.160039 0.000000 -0.987111
vn 0.709683 -0.000000 -0.704521
vn 0.102409 -0.000001 0.994742
vn 0.667545 -0.000000 0.744569
vn 0.889343 -0.000000 0.457240
vn 0.102409 -0.000001 0.994742
vn 0.889343 -0.000000 0.457240
vn 0.450735 -0.000001 0.892658
vn -0.501844 -0.000001 0.864958
vn 0.102409 -0.000001 0.994742
vn 0.450735 -0.000001 0.892658
vn -0.501844 -0.000001 0.864958
vn 0.450735 -0.000001 0.892658
vn -0.160038 -0.000001 0.987111
vn 0.977702 -0.000000 0.209996
vn 0.914410 -0.000000 -0.404790
vn 0.709683 -0.000000 -0.704521
vn 0.977702 -0.000000 0.209996
vn 0.709683 -0.000000 -0.704521
vn 0.988253 -0.000000 -0.152828
vn 0.667545 -0.000000 0.744569
vn 0.977702 -0.000000 0.209996
vn 0.988253 -0.000000 -0.152828
vn 0.667545 -0.000000 0.744569
vn 0.988253 -0.000000 -0.152828
vn 0.889343 -0.000000 0.457240
vn 0.988253 -0.000000 -0.152828
vn 0.709683 -0.000000 -0.704521
vn 0.422814 -0.000000 -0.906217
vn 0.988253 -0.000000 -0.152828
vn 0.422814 -0.000000 -0.906217
vn 0.874725 0.000000 -0.484620
vn 0.889343 -0.000000 0.457240
vn 0.988253 -0.000000 -0.152828
vn 0.874725 0.000000 -0.484620
vn 0.889343 -0.000000 0.457240
vn 0.874725 0.000000 -0.484620
vn 0.992520 -0.000000 0.122084
vn 0.450735 -0.000001 0.892658
vn 0.889343 -0.000000 0.457240
vn 0.992520 -0.000000 0.122084
vn 0.450735 -0.000001 0.892658
vn 0.992520 -0.000000 0.122084
vn 0.731206 -0.000000 0.682156
vn -0.160038 -0.000001 0.987111
vn 0.450735 -0.000001 0.892658
vn 0.731206 -0.000000 0.682156
vn -0.160038 -0.000001 0.987111
vn 0.731206 -0.000000 0.682156
vn 0.190597 -0.000000 0.981668
vn 0.160039 0.000000 -0.987111
vn -0.450735 0.000001 -0.892658
vn -0.731206 0.000000 -0.682156
vn 0.160039 0.000000 -0.987111
vn -0.731206 0.000000 -0.682156
vn -0.190597 0.000000 -0.981668
vn 0.709683 -0.000000 -0.704521
vn 0.160039 0.000000 -0.987111
vn -0.190597 0.000000 -0.981668
vn 0.709683 -0.000000 -0.704521
vn -0.190597 0.000000 -0.981668
vn 0.422814 -0.000000 -0.906217
vn -0.709683 -0.000000 0.704521
vn -0.160038 -0.000001 0.987111
vn 0.190597 -0.000000 0.981668
vn -0.709683 -0.000000 0.704521
vn 0.190597 -0.000000 0.981668
vn -0.422814 -0.000000 0.906216
vn -0.988253 0.000000 0.152828
vn -0.709683 -0.000000 0.704521
vn -0.422814 -0.000000 0.906216
vn -0.988253 0.000000 0.152828
vn -0.422814 -0.000000 0.906216
vn -0.874724 0.000000 0.484621
vn -0.450735 0.000001 -0.892658
vn -0.889344 0.000000 -0.457239
vn -0.992520 -0.000000 -0.122083
vn -0.450735 0.000001 -0.892658
vn -0.992520 -0.000000 -0.122083
vn -0.731206 0.000000 -0.682156
vn -0.889344 0.000000 -0.457239
vn -0.988253 0.000000 0.152828
vn -0.874724 0.000000 0.484621
vn -0.889344 0.000000 -0.457239
vn -0.874724 0.000000 0.484621
vn -0.992520 -0.000000 -0.122083
vn -0.731206 0.000000 -0.682156
vn -0.992520 -0.000000 -0.122083
vn -0.980070 0.158583 0.119641
vn -0.731206 0.000000 -0.682156
vn -0.980070 0.158583 0.119641
vn -0.854742 0.259192 -0.449707
vn -0.992520 -0.000000 -0.122083
vn -0.874724 0.000000 0.484621
vn -0.691826 0.259193 0.673940
vn -0.992520 -0.000000 -0.122083
vn -0.691826 0.259193 0.673940
vn -0.980070 0.158583 0.119641
vn -0.422814 -0.000000 0.906216
vn 0.190597 -0.000000 0.981668
vn 0.427169 0.259193 0.866225
vn -0.422814 -0.000000 0.906216
vn 0.427169 0.259193 0.866225
vn -0.189073 0.158583 0.969073
vn -0.874724 0.000000 0.484621
vn -0.422814 -0.000000 0.906216
vn -0.189073 0.158583 0.969073
vn -0.874724 0.000000 0.484621
vn -0.189073 0.158583 0.969073
vn -0.691826 0.259193 0.673940
vn -0.190597 0.000000 -0.981668
vn -0.731206 0.000000 -0.682156
vn -0.854742 0.259192 -0.449707
vn -0.190597 0.000000 -0.981668
vn -0.854742 0.259192 -0.449707
vn -0.416644 0.158582 -0.895131
vn 0.422814 -0.000000 -0.906217
vn -0.190597 0.000000 -0.981668
vn -0.416644 0.158582 -0.895131
vn 0.422814 -0.000000 -0.906217
vn -0.416644 0.158582 -0.895131
vn 0.163567 0.259192 -0.951875
vn 0.731206 -0.000000 0.682156
vn 0.992520 -0.000000 0.122084
vn 0.955831 0.259192 -0.138584
vn 0.731206 -0.000000 0.682156
vn 0.955831 0.259192 -0.138584
vn 0.863217 0.158583 0.479279
vn 0.190597 -0.000000 0.981668
vn 0.731206 -0.000000 0.682156
vn 0.863217 0.158583 0.479279
vn 0.190597 -0.000000 0.981668
vn 0.863217 0.158583 0.479279
vn 0.427169 0.259193 0.866225
vn 0.874725 0.000000 -0.484620
vn 0.422814 -0.000000 -0.906217
vn 0.163567 0.259192 -0.951875
vn 0.874725 0.000000 -0.484620
vn 0.163567 0.259192 -0.951875
vn 0.722570 0.158583 -0.672862
vn 0.992520 -0.000000 0.122084
vn 0.874725 0.000000 -0.484620
vn 0.722570 0.158583 -0.672862
vn 0.992520 -0.000000 0.122084
vn 0.722570 0.158583 -0.672862
vn 0.955831 0.259192 -0.138584
f 1/1/1 15/2/2 9/3/3
f 1/4/4 9/5/5 13/6/6
f 1/7/7 13/8/8 2/9/9
f 1/10/10 2/11/11 14/12/12
f 1/13/13 14/14/14 11/15/15
f 1/16/16 11/17/17 16/18/18
f 5/19/19 6/20/20 191/21/21
f 5/22/22 191/23/23 192/24/24
f 5/25/25 192/26/26 193/27/27
f 7/28/28 15/29/29 1/30/30
f 7/31/31 1/32/32 16/33/33
f 7/34/34 16/35/35 8/36/36
f 19/37/37 10/38/38 9/39/39
f 19/40/40 9/41/41 15/42/42
f 19/43/43 15/44/44 7/45/45
f 195/46/46 17/47/47 5/48/48
f 195/49/49 5/50/50 193/51/51
f 195/52/52 193/53/53 194/54/54
f 20/55/55 8/56/56 16/57/57
f 20/58/58 16/59/59 11/60/60
f 20/61/61 11/62/62 12/63/63
f 18/64/64 197/65/65 196/66/66
f 18/67/67 196/68/68 191/69/69
f 18/70/70 191/71/71 6/72/72
f 199/73/73 4/74/74 17/75/75
f 199/76/76 17/77/77 195/78/78
f 199/79/79 195/80/80 198/81/81
f 4/82/82 18/83/83 6/84/84
f 4/85/85 6/86/86 5/87/87
f 4/88/88 5/89/89 17/90/90
f 199/91/91 200/92/92 197/93/93
f 199/94/94 197/95/95 18/96/96
f 199/97/97 18/98/98 4/99/99
f 3/100/100 19/101/101 7/102/102
f 3/103/103 7/104/104 8/105/105
f 3/106/106 8/107/107 20/108/108
f 3/109/109 20/110/110 22/111/111
f 3/112/112 22/113/113 21/114/114
f 20/115/115 12/116/116 23/117/117
f 20/118/118 23/119/119 22/120/120
f 19/121/121 3/122/122 21/123/123
f 19/124/124 21/125/125 24/126/126
f 10/127/127 19/128/128 24/129/129
f 10/130/130 24/131/131 25/132/132
f 12/133/133 11/134/134 26/135/135
f 12/136/136 26/137/137 23/138/138
f 11/139/139 14/140/140 27/141/141
f 11/142/142 27/143/143 26/144/144
f 9/145/145 10/146/146 25/147/147
f 9/148/148 25/149/149 28/150/150
f 13/151/151 9/152/152 28/153/153
f 13/154/154 28/155/155 29/156/156
f 14/157/157 2/158/158 30/159/159
f 14/160/160 30/161/161 27/162/162
f 2/163/163 13/164/164 29/165/165
f 2/166/166 29/167/167 30/168/168
f 27/169/169 30/170/170 32/171/171
f 27/172/172 32/173/173 31/174/174
f 30/175/175 29/176/176 33/177/177
f 30/178/178 33/179/179 32/180/180
f 28/181/181 25/182/182 35/183/183
f 28/184/184 35/185/185 34/186/186
f 29/187/187 28/188/188 34/189/189
f 29/190/190 34/191/191 33/192/192
f 26/193/193 27/194/194 31/195/195
f 26/196/196 31/197/197 36/198/198
f 23/199/199 26/200/200 36/201/201
f 23/202/202 36/203/203 37/204/204
f 24/205/205 21/206/206 39/207/207
f 24/208/208 39/209/209 38/210/210
f 25/211/211 24/212/212 38/213/213
f 25/214/214 38/215/215 35/216/216
f 22/217/217 23/218/218 37/219/219
f 22/220/220 37/221/221 40/222/222
f 21/223/223 22/224/224 40/225/225
f 21/226/226 40/227/227 39/228/228
f 40/229/229 37/230/230 42/231/231
f 40/232/232 42/233/233 41/234/234
f 39/235/235 40/236/236 41/237/237
f 39/238/238 41/239/239 43/240/240
f 38/241/241 39/242/242 43/243/243
f 38/244/244 43/245/245 44/246/246
f 35/247/247 38/248/248 44/249/249
f 35/250/250 44/251/251 45/252/252
f 36/253/253 31/254/254 47/255/255
f 36/256/256 47/257/257 46/258/258
f 37/259/259 36/260/260 46/261/261
f 37/262/262 46/263/263 42/264/264
f 34/265/265 35/266/266 45/267/267
f 34/268/268 45/269/269 48/270/270
f 33/271/271 34/272/272 48/273/273
f 33/274/274 48/275/275 49/276/276
f 31/277/277 32/278/278 50/279/279
f 31/280/280 50/281/281 47/282/282
f 32/283/283 33/284/284 49/285/285
f 32/286/286 49/287/287 50/288/288
f 47/289/289 50/290/290 52/291/291
f 47/292/292 52/293/293 51/294/294
f 50/295/295 49/296/296 53/297/297
f 50/298/298 53/299/299 52/300/300
f 48/301/301 45/302/302 55/303/303
f 48/304/304 55/305/305 54/306/306
f 49/307/307 48/308/308 54/309/309
f 49/310/310 54/311/311 53/312/312
f 46/313/313 47/314/314 51/315/315
f 46/316/316 51/317/317 56/318/318
f 42/319/319 46/320/320 56/321/321
f 42/322/322 56/323/323 57/324/324
f 44/325/325 43/326/326 59/327/327
f 44/328/328 59/329/329 58/330/330
f 45/331/331 44/332/332 58/333/333
f 45/334/334 58/335/335 55/336/336
f 41/337/337 42/338/338 57/339/339
f 41/340/340 57/341/341 60/342/342
f 43/343/343 41/344/344 60/345/345
f 43/346/346 60/347/347 59/348/348
f 60/349/349 57/350/350 62/351/351
f 60/352/352 62/353/353 61/354/354
f 59/355/355 60/356/356 61/357/357
f 59/358/358 61/359/359 63/360/360
f 58/361/361 59/362/362 63/363/363
f 58/364/364 63/365/365 64/366/366
f 55/367/367 58/368/368 64/369/369
f 55/370/370 64/371/371 65/372/372
f 56/373/373 51/374/374 67/375/375
f 56/376/376 67/377/377 66/378/378
f 57/379/379 56/380/380 66/381/381
f 57/382/382 66/383/383 62/384/384
f 54/385/385 55/386/386 65/387/387
f 54/388/388 65/389/389 68/390/390
f 53/391/391 54/392/392 68/393/393
f 53/394/394 68/395/395 69/396/396
f 51/397/397 52/398/398 70/399/399
f 51/400/400 70/401/401 67/402/402
f 52/403/403 53/404/404 69/405/405
f 52/406/406 69/407/407 70/408/408
f 67/409/409 70/410/410 72/411/411
f 67/412/412 72/413/413 71/414/414
f 70/415/415 69/416/416 73/417/417
f 70/418/418 73/419/419 72/420/420
f 68/421/421 65/422/422 75/423/423
f 68/424/424 75/425/425 74/426/426
f 69/427/427 68/428/428 74/429/429
f 69/430/430 74/431/431 73/432/432
f 66/433/433 67/434/434 71/435/435
f 66/436/436 71/437/437 76/438/438
f 62/439/439 66/440/440 76/441/441
f 62/442/442 76/443/443 77/444/444
f 64/445/445 63/446/446 79/447/447
f 64/448/448 79/449/449 78/450/450
f 65/451/451 64/452/452 78/453/453
f 65/454/454 78/455/455 75/456/456
f 61/457/457 62/458/458 77/459/459
f 61/460/460 77/461/461 80/462/462
f 63/463/463 61/464/464 80/465/465
f 63/466/466 80/467/467 79/468/468
f 80/469/469 77/470/470 82/471/471
f 80/472/472 82/473/473 81/474/474
f 79/475/475 80/476/476 81/477/477
f 79/478/478 81/479/479 83/480/480
f 78/481/481 79/482/482 83/483/483
f 78/484/484 83/485/485 84/486/486
f 75/487/487 78/488/488 84/489/489
f 75/490/490 84/491/491 85/492/492
f 76/493/493 71/494/494 87/495/495
f 76/496/496 87/497/497 86/498/498
f 77/499/499 76/500/500 86/501/501
f 77/502/502 86/503/503 82/504/504
f 74/505/505 75/506/506 85/507/507
f 74/508/508 85/509/509 88/510/510
f 73/511/511 74/512/512 88/513/513
f 73/514/514 88/515/515 89/516/516
f 71/517/517 72/518/518 90/519/519
f 71/520/520 90/521/521 87/522/522
f 72/523/523 73/524/524 89/525/525
f 72/526/526 89/527/527 90/528/528
f 87/529/529 90/530/530 92/531/531
f 87/532/532 92/533/533 91/534/534
f 90/535/535 89/536/536 93/537/537
f 90/538/538 93/539/539 92/540/540
f 88/541/541 85/542/542 95/543/543
f 88/544/544 95/545/545 94/546/546
f 89/547/547 88/548/548 94/549/549
f 89/550/550 94/551/551 93/552/552
f 86/553/553 87/554/554 91/555/555
f 86/556/556 91/557/557 96/558/558
f 82/559/559 86/560/560 96/561/561
f 82/562/562 96/563/563 97/564/564
f 84/565/565 83/566/566 99/567/567
f 84/568/568 99/569/569 98/570/570
f 85/571/571 84/572/572 98/573/573
f 85/574/574 98/575/575 95/576/576
f 81/577/577 82/578/578 97/579/579
f 81/580/580 97/581/581 100/582/582
f 83/583/583 81/584/584 100/585/585
f 83/586/586 100/587/587 99/588/588
f 100/589/589 97/590/590 102/591/591
f 100/592/592 102/593/593 101/594/594
f 99/595/595 100/596/596 101/597/597
f 99/598/598 101/599/599 103/600/600
f 98/601/601 99/602/602 103/603/603
f 98/604/604 103/605/605 104/606/606
f 95/607/607 98/608/608 104/609/609
f 95/610/610 104/611/611 105/612/612
f 96/613/613 91/614/614 107/615/615
f 96/616/616 107/617/617 106/618/618
f 97/619/619 96/620/620 106/621/621
f 97/622/622 106/623/623 102/624/624
f 94/625/625 95/626/626 105/627/627
f 94/628/628 105/629/629 108/630/630
f 93/631/631 94/632/632 108/633/633
f 93/634/634 108/635/635 109/636/636
f 91/637/637 92/638/638 110/639/639
f 91/640/640 110/641/641 107/642/642
f 92/643/643 93/644/644 109/645/645
f 92/646/646 109/647/647 110/648/648
f 107/649/649 110/650/650 112/651/651
f 107/652/652 112/653/653 111/654/654
f 110/655/655 109/656/656 113/657/657
f 110/658/658 113/659/659 112/660/660
f 108/661/661 105/662/662 115/663/663
f 108/664/664 115/665/665 114/666/666
f 109/667/667 108/668/668 114/669/669
f 109/670/670 114/671/671 113/672/672
f 106/673/673 107/674/674 111/675/675
f 106/676/676 111/677/677 116/678/678
f 102/679/679 106/680/680 116/681/681
f 102/682/682 116/683/683 117/684/684
f 104/685/685 103/686/686 119/687/687
f 104/688/688 119/689/689 118/690/690
f 105/691/691 104/692/692 118/693/693
f 105/694/694 118/695/695 115/696/696
f 101/697/697 102/698/698 117/699/699
f 101/700/700 117/701/701 120/702/702
f 103/703/703 101/704/704 120/705/705
f 103/706/706 120/707/707 119/708/708
f 120/709/709 117/710/710 122/711/711
f 120/712/712 122/713/713 121/714/714
f 119/715/715 120/716/716 121/717/717
f 119/718/718 121/719/719 123/720/720
f 118/721/721 119/722/722 123/723/723
f 118/724/724 123/725/725 124/726/726
f 115/727/727 118/728/728 124/729/729
f 115/730/730 124/731/731 125/732/732
f 116/733/733 111/734/734 127/735/735
f 116/736/736 127/737/737 126/738/738
f 117/739/739 116/740/740 126/741/741
f 117/742/742 126/743/743 122/744/744
f 114/745/745 115/746/746 125/747/747
f 114/748/748 125/749/749 128/750/750
f 113/751/751 114/752/752 128/753/753
f 113/754/754 128/755/755 129/756/756
f 111/757/757 112/758/758 130/759/759
f 111/760/760 130/761/761 127/762/762
f 112/763/763 113/764/764 129/765/765
f 112/766/766 129/767/767 130/768/768
f 127/769/769 130/770/770 132/771/771
f 127/772/772 132/773/773 131/774/774
f 130/775/775 129/776/776 133/777/777
f 130/778/778 133/779/779 132/780/780
f 128/781/781 125/782/782 135/783/783
f 128/784/784 135/785/785 134/786/786
f 129/787/787 128/788/788 134/789/789
f 129/790/790 134/791/791 133/792/792
f 126/793/793 127/794/794 131/795/795
f 126/796/796 131/797/797 136/798/798
f 122/799/799 126/800/800 136/801/801
f 122/802/802 136/803/803 137/804/804
f 124/805/805 123/806/806 139/807/807
f 124/808/808 139/809/809 138/810/810
f 125/811/811 124/812/812 138/813/813
f 125/814/814 138/815/815 135/816/816
f 121/817/817 122/818/818 137/819/819
f 121/820/820 137/821/821 140/822/822
f 123/823/823 121/824/824 140/825/825
f 123/826/826 140/827/827 139/828/828
f 140/829/829 137/830/830 142/831/831
f 140/832/832 142/833/833 141/834/834
f 139/835/835 140/836/836 141/837/837
f 139/838/838 141/839/839 143/840/840
f 138/841/841 139/842/842 143/843/843
f 138/844/844 143/845/845 144/846/846
f 135/847/847 138/848/848 144/849/849
f 135/850/850 144/851/851 145/852/852
f 136/853/853 131/854/854 147/855/855
f 136/856/856 147/857/857 146/858/858
f 137/859/859 136/860/860 146/861/861
f 137/862/862 146/863/863 142/864/864
f 134/865/865 135/866/866 145/867/867
f 134/868/868 145/869/869 148/870/870
f 133/871/871 134/872/872 148/873/873
f 133/874/874 148/875/875 149/876/876
f 131/877/877 132/878/878 150/879/879
f 131/880/880 150/881/881 147/882/882
f 132/883/883 133/884/884 149/885/885
f 132/886/886 149/887/887 150/888/888
f 147/889/889 150/890/890 152/891/891
f 147/892/892 152/893/893 151/894/894
f 150/895/895 149/896/896 153/897/897
f 150/898/898 153/899/899 152/900/900
f 148/901/901 145/902/902 155/903/903
f 148/904/904 155/905/905 154/906/906
f 149/907/907 148/908/908 154/909/909
f 149/910/910 154/911/911 153/912/912
f 146/913/913 147/914/914 151/915/915
f 146/916/916 151/917/917 156/918/918
f 142/919/919 146/920/920 156/921/921
f 142/922/922 156/923/923 157/924/924
f 144/925/925 143/926/926 159/927/927
f 144/928/928 159/929/929 158/930/930
f 145/931/931 144/932/932 158/933/933
f 145/934/934 158/935/935 155/936/936
f 141/937/937 142/938/938 157/939/939
f 141/940/940 157/941/941 160/942/942
f 143/943/943 141/944/944 160/945/945
f 143/946/946 160/947/947 159/948/948
f 160/949/949 157/950/950 162/951/951
f 160/952/952 162/953/953 161/954/954
f 159/955/955 160/956/956 161/957/957
f 159/958/958 161/959/959 163/960/960
f 158/961/961 159/962/962 163/963/963
f 158/964/964 163/965/965 164/966/966
f 155/967/967 158/968/968 164/969/969
f 155/970/970 164/971/971 165/972/972
f 156/973/973 151/974/974 167/975/975
f 156/976/976 167/977/977 166/978/978
f 157/979/979 156/980/980 166/981/981
f 157/982/982 166/983/983 162/984/984
f 154/985/985 155/986/986 165/987/987
f 154/988/988 165/989/989 168/990/990
f 153/991/991 154/992/992 168/993/993
f 153/994/994 168/995/995 169/996/996
f 151/997/997 152/998/998 170/999/999
f 151/1000/1000 170/1001/1001 167/1002/1002
f 152/1003/1003 153/1004/1004 169/1005/1005
f 152/1006/1006 169/1007/1007 170/1008/1008
f 167/1009/1009 170/1010/1010 172/1011/1011
f 167/1012/1012 172/1013/1013 171/1014/1014
f 170/1015/1015 169/1016/1016 173/1017/1017
f 170/1018/1018 173/1019/1019 172/1020/1020
f 168/1021/1021 165/1022/1022 175/1023/1023
f 168/1024/1024 175/1025/1025 174/1026/1026
f 169/1027/1027 168/1028/1028 174/1029/1029
f 169/1030/1030 174/1031/1031 173/1032/1032
f 166/1033/1033 167/1034/1034 171/1035/1035
f 166/1036/1036 171/1037/1037 176/1038/1038
f 162/1039/1039 166/1040/1040 176/1041/1041
f 162/1042/1042 176/1043/1043 177/1044/1044
f 164/1045/1045 163/1046/1046 179/1047/1047
f 164/1048/1048 179/1049/1049 178/1050/1050
f 165/1051/1051 164/1052/1052 178/1053/1053
f 165/1054/1054 178/1055/1055 175/1056/1056
f 161/1057/1057 162/1058/1058 177/1059/1059
f 161/1060/1060 177/1061/1061 180/1062/1062
f 163/1063/1063 161/1064/1064 180/1065/1065
f 163/1066/1066 180/1067/1067 179/1068/1068
f 180/1069/1069 177/1070/1070 182/1071/1071
f 180/1072/1072 182/1073/1073 181/1074/1074
f 179/1075/1075 180/1076/1076 181/1077/1077
f 179/1078/1078 181/1079/1079 183/1080/1080
f 178/1081/1081 179/1082/1082 183/1083/1083
f 178/1084/1084 183/1085/1085 184/1086/1086
f 175/1087/1087 178/1088/1088 184/1089/1089
f 175/1090/1090 184/1091/1091 185/1092/1092
f 176/1093/1093 171/1094/1094 187/1095/1095
f 176/1096/1096 187/1097/1097 186/1098/1098
f 177/1099/1099 176/1100/1100 186/1101/1101
f 177/1102/1102 186/1103/1103 182/1104/1104
f 174/1105/1105 175/1106/1106 185/1107/1107
f 174/1108/1108 185/1109/1109 188/1110/1110
f 173/1111/1111 174/1112/1112 188/1113/1113
f 173/1114/1114 188/1115/1115 189/1116/1116
f 171/1117/1117 172/1118/1118 190/1119/1119
f 171/1120/1120 190/1121/1121 187/1122/1122
f 172/1123/1123 173/1124/1124 189/1125/1125
f 172/1126/1126 189/1127/1127 190/1128/1128
f 187/1129/1129 190/1130/1130 192/1131/1131
f 187/1132/1132 192/1133/1133 191/1134/1134
f 190/1135/1135 189/1136/1136 193/1137/1137
f 190/1138/1138 193/1139/1139 192/1140/1140
f 188/1141/1141 185/1142/1142 195/1143/1143
f 188/1144/1144 195/1145/1145 194/1146/1146
f 189/1147/1147 188/1148/1148 194/1149/1149
f 189/1150/1150 194/1151/1151 193/1152/1152
f 186/1153/1153 187/1154/1154 191/1155/1155
f 186/1156/1156 191/1157/1157 196/1158/1158
f 182/1159/1159 186/1160/1160 196/1161/1161
f 182/1162/1162 196/1163/1163 197/1164/1164
f 184/1165/1165 183/1166/1166 199/1167/1167
f 184/1168/1168 199/1169/1169 198/1170/1170
f 185/1171/1171 184/1172/1172 198/1173/1173
f 185/1174/1174 198/1175/1175 195/1176/1176
f 181/1177/1177 182/1178/1178 197/1179/1179
f 181/1180/1180 197/1181/1181 200/1182/1182
f 183/1183/1183 181/1184/1184 200/1185/1185
f 183/1186/1186 200/1187/1187 199/1188/1188
