v -6.761586 -9.593408 -0.806260
v -8.452332 -8.070299 -0.972528
v -9.818139 -6.256474 -1.098647
v -10.815285 -4.220582 -1.184318
v -11.412419 -2.035367 -1.229907
v -11.590382 0.223467 -1.235657
v -11.342333 2.478313 -1.201349
v -10.674017 4.650789 -1.126304
v -9.604149 6.662904 -1.009749
v -8.374711 8.165142 -0.970018
v -6.667006 9.671244 -0.803202
v -5.900280 -9.302456 -2.329622
v -7.333828 -7.775962 -2.729172
v -8.490746 -6.011247 -3.025709
v -9.339106 -4.060182 -3.230385
v -9.853259 -1.979777 -3.347704
v -10.016519 0.167877 -3.378561
v -9.822608 2.317913 -3.321771
v -9.275913 4.405562 -3.174111
v -8.390484 6.368567 -2.928888
v -7.262621 7.870805 -2.715712
v -5.813514 9.380292 -2.313220
v -6.262621 7.870805 -2.715712
v -4.813514 9.380292 -2.313220
v -5.667006 9.671244 -0.803202
v -7.374711 8.165142 -0.970018
v -7.390484 6.368567 -2.928888
v -8.604149 6.662904 -1.009749
v -8.275913 4.405562 -3.174111
v -9.674017 4.650789 -1.126304
v -8.822608 2.317913 -3.321771
v -10.342333 2.478313 -1.201349
v -9.016519 0.167877 -3.378561
v -10.590382 0.223467 -1.235657
v -8.853259 -1.979777 -3.347704
v -10.412419 -2.035367 -1.229907
v -8.339106 -4.060182 -3.230385
v -9.815285 -4.220582 -1.184318
v -7.490746 -6.011247 -3.025709
v -8.818139 -6.256474 -1.098647
v -6.333828 -7.775962 -2.729172
v -7.452332 -8.070299 -0.972528
v -4.900280 -9.302456 -2.329622
v -5.761586 -9.593408 -0.806260
vt 0.000000 0.000000
vt 0.000000 0.000000
vt 0.000000 0.000000
vt 0.000000 0.000000
vt 0.000000 0.000000
vt 0.000000 0.000000
vt 0.000000 0.000000
vt 0.000000 0.000000
vt 0.000000 0.000000
vt 0.000000 0.000000
vt 0.000000 0.000000
vt 0.000000 0.000000
vt 0.000000 0.000000
vt 0.000000 0.000000
vt 0.000000 0.000000
vt 0.000000 0.000000
vt 0.000000 0.000000
vt 0.000000 0.000000
vt 0.000000 0.000000
vt 0.000000 0.000000
vt 0.000000 0.000000
vt 0.000000 0.000000
vt 0.000000 0.000000
vt 0.000000 0.000000
vt 0.000000 0.000000
vt 0.000000 0.000000
vt 0.000000 0.000000
vt 0.000000 0.000000
vt 0.000000 0.000000
vt 0.000000 0.000000
vt 0.000000 0.000000
vt 0.000000 0.000000
vt 0.000000 0.000000
vt 0.000000 0.000000
vt 0.000000 0.000000
vt 0.000000 0.000000
vt 0.000000 0.000000
vt 0.000000 0.000000
vt 0.000000 0.000000
vt 0.000000 0.000000
vt 0.000000 0.000000
vt 0.000000 0.000000
vt 0.000000 0.000000
vt 0.000000 0.000000
vt 0.000000 0.000000
vt 0.000000 0.000000
vt 0.000000 0.000000
vt 0.000000 0.000000
vt 0.000000 0.000000
vt 0.000000 0.000000
vt 0.000000 0.000000
vt 0.000000 0.000000
vt 0.000000 0.000000
vt 0.000000 0.000000
vt 0.000000 0.000000
vt 0.000000 0.000000
vt 0.000000 0.000000
vt 0.000000 0.000000
vt 0.000000 0.000000
vt 0.000000 0.000000
vt 0.000000 0.000000
vt 0.000000 0.000000
vt 0.000000 0.000000
vt 0.000000 0.000000
vt 0.000000 0.000000
vt 0.000000 0.000000
vt 0.000000 0.000000
vt 0.000000 0.000000
vt 0.000000 0.000000
vt 0.000000 0.000000
vt 0.000000 0.000000
vt 0.000000 0.000000
vt 0.000000 0.000000
vt 0.000000 0.000000
vt 0.000000 0.000000
vt 0.000000 0.000000
vt 0.000000 0.000000
vt 0.000000 0.000000
vt 0.000000 0.000000
vt 0.000000 0.000000
vt 0.000000 0.000000
vt 0.000000 0.000000
vt 0.000000 0.000000
vt 0.000000 0.000000
vt 0.000000 0.000000
vt 0.000000 0.000000
vt 0.000000 0.000000
vt 0.000000 0.000000
vt 0.000000 0.000000
vt 0.000000 0.000000
vt 0.000000 0.000000
vt 0.000000 0.000000
vt 0.000000 0.000000
vt 0.000000 0.000000
vt 0.000000 0.000000
vt 0.000000 0.000000
vt 0.000000 0.000000
vt 0.000000 0.000000
vt 0.000000 0.000000
vt 0.000000 0.000000
vt 0.000000 0.000000
vt 0.000000 0.000000
vt 0.000000 0.000000
vt 0.000000 0.000000
vt 0.000000 0.000000
vt 0.000000 0.000000
vt 0.000000 0.000000
vt 0.000000 0.000000
vt 0.000000 0.000000
vt 0.000000 0.000000
vt 0.000000 0.000000
vt 0.000000 0.000000
vt 0.000000 0.000000
vt 0.000000 0.000000
vt 0.000000 0.000000
vt 0.000000 0.000000
vt 0.000000 0.000000
vt 0.000000 0.000000
vt 0.000000 0.000000
vt 0.000000 0.000000
vt 0.000000 0.000000
vt 0.000000 0.000000
vt 0.000000 0.000000
vt 0.000000 0.000000
vt 0.000000 0.000000
vt 0.000000 0.000000
vt 0.000000 0.000000
vt 0.000000 0.000000
vt 0.000000 0.000000
vt 0.000000 0.000000
vt 0.000000 0.000000
vt 0.000000 0.000000
vt 0.000000 0.000000
vt 0.000000 0.000000
vt 0.000000 0.000000
vt 0.000000 0.000000
vt 0.000000 0.000000
vt 0.000000 0.000000
vt 0.000000 0.000000
vt 0.000000 0.000000
vt 0.000000 0.000000
vt 0.000000 0.000000
vt 0.000000 0.000000
vt 0.000000 0.000000
vt 0.000000 0.000000
vt 0.000000 0.000000
vt 0.000000 0.000000
vt 0.000000 0.000000
vt 0.000000 0.000000
vt 0.000000 0.000000
vt 0.000000 0.000000
vt 0.000000 0.000000
vt 0.000000 0.000000
vt 0.000000 0.000000
vt 0.000000 0.000000
vt 0.000000 0.000000
vt 0.000000 0.000000
vt 0.000000 0.000000
vt 0.000000 0.000000
vt 0.000000 0.000000
vt 0.000000 0.000000
vt 0.000000 0.000000
vt 0.000000 0.000000
vt 0.000000 0.000000
vt 0.000000 0.000000
vt 0.000000 0.000000
vt 0.000000 0.000000
vt 0.000000 0.000000
vt 0.000000 0.000000
vt 0.000000 0.000000
vt 0.000000 0.000000
vt 0.000000 0.000000
vt 0.000000 0.000000
vt 0.000000 0.000000
vt 0.000000 0.000000
vt 0.000000 0.000000
vt 0.000000 0.000000
vt 0.000000 0.000000
vt 0.000000 0.000000
vt 0.000000 0.000000
vt 0.000000 0.000000
vt 0.000000 0.000000
vt 0.000000 0.000000
vt 0.000000 0.000000
vt 0.000000 0.000000
vt 0.000000 0.000000
vt 0.000000 0.000000
vt 0.000000 0.000000
vt 0.000000 0.000000
vt 0.000000 0.000000
vt 0.000000 0.000000
vt 0.000000 0.000000
vn 0.000000 0.088959 0.996035
vn 0.000000 0.108519 0.994094
vn 0.000000 0.108519 0.994094
vn 0.000000 0.088959 0.996035
vn 0.000000 0.108519 0.994094
vn 0.000000 0.088959 0.996035
vn 0.000000 -0.982245 -0.187602
vn 0.000000 -0.982245 -0.187602
vn 0.000000 -0.982245 -0.187602
vn 0.000000 -0.982245 -0.187602
vn 0.000000 -0.982245 -0.187602
vn 0.000000 -0.982245 -0.187602
vn 0.000000 -0.253214 -0.967410
vn 0.000000 -0.209674 -0.977771
vn 0.000000 -0.209674 -0.977771
vn 0.000000 -0.253214 -0.967410
vn 0.000000 -0.209674 -0.977771
vn 0.000000 -0.253214 -0.967410
vn 0.000000 0.055709 0.998447
vn 0.000000 0.088959 0.996035
vn 0.000000 0.088959 0.996035
vn 0.000000 0.055709 0.998447
vn 0.000000 0.088959 0.996035
vn 0.000000 0.055709 0.998447
vn 0.000000 -0.209674 -0.977771
vn 0.000000 -0.135088 -0.990834
vn 0.000000 -0.135088 -0.990834
vn 0.000000 -0.209674 -0.977771
vn 0.000000 -0.135088 -0.990834
vn 0.000000 -0.209674 -0.977771
vn 0.000000 0.031452 0.999505
vn 0.000000 0.055709 0.998447
vn 0.000000 0.055709 0.998447
vn 0.000000 0.031452 0.999505
vn 0.000000 0.055709 0.998447
vn 0.000000 0.031452 0.999505
vn 0.000000 -0.135088 -0.990834
vn 0.000000 -0.080341 -0.996767
vn 0.000000 -0.080341 -0.996767
vn 0.000000 -0.135088 -0.990834
vn 0.000000 -0.080341 -0.996767
vn 0.000000 -0.135088 -0.990834
vn 0.000000 0.011702 0.999932
vn 0.000000 0.031452 0.999505
vn 0.000000 0.031452 0.999505
vn 0.000000 0.011702 0.999932
vn 0.000000 0.031452 0.999505
vn 0.000000 0.011702 0.999932
vn 0.000000 -0.080341 -0.996767
vn 0.000000 -0.035342 -0.999375
vn 0.000000 -0.035342 -0.999375
vn 0.000000 -0.080341 -0.996767
vn 0.000000 -0.035342 -0.999375
vn 0.000000 -0.080341 -0.996767
vn 0.000000 -0.006334 0.999980
vn 0.000000 0.011702 0.999932
vn 0.000000 0.011702 0.999932
vn 0.000000 -0.006334 0.999980
vn 0.000000 0.011702 0.999932
vn 0.000000 -0.006334 0.999980
vn 0.573249 0.673796 0.466246
vn 0.573249 0.673796 0.466246
vn 0.622820 0.605339 0.495642
vn 0.573249 0.673796 0.466246
vn 0.622820 0.605339 0.495642
vn 0.622820 0.605339 0.495642
vn 0.622820 0.605339 0.495642
vn 0.622820 0.605339 0.495642
vn 0.704466 0.458457 0.541797
vn 0.622820 0.605339 0.495642
vn 0.704466 0.458457 0.541797
vn 0.704466 0.458457 0.541797
vn 0.704466 0.458457 0.541797
vn 0.704466 0.458457 0.541797
vn 0.761555 0.304719 0.571997
vn 0.704466 0.458457 0.541797
vn 0.761555 0.304719 0.571997
vn 0.761555 0.304719 0.571997
vn 0.795293 0.146971 0.588140
vn 0.795293 0.146971 0.588140
vn 0.806311 -0.012858 0.591352
vn 0.795293 0.146971 0.588140
vn 0.806311 -0.012858 0.591352
vn 0.806311 -0.012858 0.591352
vn 0.806311 -0.012858 0.591352
vn 0.806311 -0.012858 0.591352
vn 0.794909 -0.173262 0.581464
vn 0.806311 -0.012858 0.591352
vn 0.794909 -0.173262 0.581464
vn 0.794909 -0.173262 0.581464
vn 0.794909 -0.173262 0.581464
vn 0.794909 -0.173262 0.581464
vn 0.760606 -0.332774 0.557441
vn 0.794909 -0.173262 0.581464
vn 0.760606 -0.332774 0.557441
vn 0.760606 -0.332774 0.557441
vn 0.760606 -0.332774 0.557441
vn 0.760606 -0.332774 0.557441
vn 0.698527 -0.486160 0.525080
vn 0.760606 -0.332774 0.557441
vn 0.698527 -0.486160 0.525080
vn 0.698527 -0.486160 0.525080
vn 0.698527 -0.486160 0.525080
vn 0.698527 -0.486160 0.525080
vn 0.613716 -0.621399 0.487049
vn 0.698527 -0.486160 0.525080
vn 0.613716 -0.621399 0.487049
vn 0.613716 -0.621399 0.487049
vn 0.613716 -0.621399 0.487049
vn 0.613716 -0.621399 0.487049
vn 0.566520 -0.680724 0.464402
vn 0.613716 -0.621399 0.487049
vn 0.566520 -0.680724 0.464402
vn 0.566520 -0.680724 0.464402
vn 0.000000 -0.035342 -0.999375
vn 0.000000 0.006020 -0.999982
vn 0.000000 0.006020 -0.999982
vn 0.000000 -0.035342 -0.999375
vn 0.000000 0.006020 -0.999982
vn 0.000000 -0.035342 -0.999375
vn 0.000000 -0.024869 0.999691
vn 0.000000 -0.006334 0.999980
vn 0.000000 -0.006334 0.999980
vn 0.000000 -0.024869 0.999691
vn 0.000000 -0.006334 0.999980
vn 0.000000 -0.024869 0.999691
vn 0.000000 0.006020 -0.999982
vn 0.000000 0.048491 -0.998824
vn 0.000000 0.048491 -0.998824
vn 0.000000 0.006020 -0.999982
vn 0.000000 0.048491 -0.998824
vn 0.000000 0.006020 -0.999982
vn 0.000000 -0.046180 0.998933
vn 0.000000 -0.024869 0.999691
vn 0.000000 -0.024869 0.999691
vn 0.000000 -0.046180 0.998933
vn 0.000000 -0.024869 0.999691
vn 0.000000 -0.046180 0.998933
vn 0.000000 0.048491 -0.998824
vn 0.000000 0.097291 -0.995256
vn 0.000000 0.097291 -0.995256
vn 0.000000 0.048491 -0.998824
vn 0.000000 0.097291 -0.995256
vn 0.000000 0.048491 -0.998824
vn 0.000000 -0.042139 0.999112
vn 0.000000 -0.046180 0.998933
vn 0.000000 -0.046180 0.998933
vn 0.000000 -0.042139 0.999112
vn 0.000000 -0.046180 0.998933
vn 0.000000 -0.042139 0.999112
vn 0.000000 0.097291 -0.995256
vn 0.000000 0.132233 -0.991219
vn 0.000000 0.132233 -0.991219
vn 0.000000 0.097291 -0.995256
vn 0.000000 0.132233 -0.991219
vn 0.000000 0.097291 -0.995256
vn 0.000000 -0.068323 0.997663
vn 0.000000 -0.042139 0.999112
vn 0.000000 -0.042139 0.999112
vn 0.000000 -0.068323 0.997663
vn 0.000000 -0.042139 0.999112
vn 0.000000 -0.068323 0.997663
vn 0.000000 0.132233 -0.991219
vn 0.000000 0.199426 -0.979913
vn 0.000000 0.199426 -0.979913
vn 0.000000 0.132233 -0.991219
vn 0.000000 0.199426 -0.979913
vn 0.000000 0.132233 -0.991219
vn 0.000000 -0.110087 0.993922
vn 0.000000 -0.068323 0.997663
vn 0.000000 -0.068323 0.997663
vn 0.000000 -0.110087 0.993922
vn 0.000000 -0.068323 0.997663
vn 0.000000 -0.110087 0.993922
vn 0.000000 0.981938 -0.189201
vn 0.000000 0.981938 -0.189201
vn 0.000000 0.981938 -0.189201
vn 0.000000 0.981938 -0.189201
vn 0.000000 0.981938 -0.189201
vn 0.000000 0.981938 -0.189201
vn 0.000000 0.199426 -0.979913
vn 0.000000 0.257640 -0.966241
vn 0.000000 0.257640 -0.966241
vn 0.000000 0.199426 -0.979913
vn 0.000000 0.257640 -0.966241
vn 0.000000 0.199426 -0.979913
vn 0.761555 0.304719 0.571997
vn 0.761555 0.304719 0.571997
vn 0.795293 0.146971 0.588140
vn 0.761555 0.304719 0.571997
vn 0.795293 0.146971 0.588140
vn 0.795293 0.146971 0.588140
f 2/1/1 1/2/2 44/3/3
f 2/4/4 44/5/5 42/6/6
f 1/7/7 12/8/8 43/9/9
f 1/10/10 43/11/11 44/12/12
f 12/13/13 13/14/14 41/15/15
f 12/16/16 41/17/17 43/18/18
f 3/19/19 2/20/20 42/21/21
f 3/22/22 42/23/23 40/24/24
f 13/25/25 14/26/26 39/27/27
f 13/28/28 39/29/29 41/30/30
f 4/31/31 3/32/32 40/33/33
f 4/34/34 40/35/35 38/36/36
f 14/37/37 15/38/38 37/39/39
f 14/40/40 37/41/41 39/42/42
f 5/43/43 4/44/44 38/45/45
f 5/46/46 38/47/47 36/48/48
f 15/49/49 16/50/50 35/51/51
f 15/52/52 35/53/53 37/54/54
f 6/55/55 5/56/56 36/57/57
f 6/58/58 36/59/59 34/60/60
f 44/61/61 43/62/62 41/63/63
f 44/64/64 41/65/65 42/66/66
f 42/67/67 41/68/68 39/69/69
f 42/70/70 39/71/71 40/72/72
f 40/73/73 39/74/74 37/75/75
f 40/76/76 37/77/77 38/78/78
f 36/79/79 35/80/80 33/81/81
f 36/82/82 33/83/83 34/84/84
f 34/85/85 33/86/86 31/87/87
f 34/88/88 31/89/89 32/90/90
f 32/91/91 31/92/92 29/93/93
f 32/94/94 29/95/95 30/96/96
f 30/97/97 29/98/98 27/99/99
f 30/100/100 27/101/101 28/102/102
f 28/103/103 27/104/104 23/105/105
f 28/106/106 23/107/107 26/108/108
f 26/109/109 23/110/110 24/111/111
f 26/112/112 24/113/113 25/114/114
f 16/115/115 17/116/116 33/117/117
f 16/118/118 33/119/119 35/120/120
f 7/121/121 6/122/122 34/123/123
f 7/124/124 34/125/125 32/126/126
f 17/127/127 18/128/128 31/129/129
f 17/130/130 31/131/131 33/132/132
f 8/133/133 7/134/134 32/135/135
f 8/136/136 32/137/137 30/138/138
f 18/139/139 19/140/140 29/141/141
f 18/142/142 29/143/143 31/144/144
f 9/145/145 8/146/146 30/147/147
f 9/148/148 30/149/149 28/150/150
f 19/151/151 20/152/152 27/153/153
f 19/154/154 27/155/155 29/156/156
f 10/157/157 9/158/158 28/159/159
f 10/160/160 28/161/161 26/162/162
f 20/163/163 21/164/164 23/165/165
f 20/166/166 23/167/167 27/168/168
f 11/169/169 10/170/170 26/171/171
f 11/172/172 26/173/173 25/174/174
f 22/175/175 11/176/176 25/177/177
f 22/178/178 25/179/179 24/180/180
f 21/181/181 22/182/182 24/183/183
f 21/184/184 24/185/185 23/186/186
f 38/187/187 37/188/188 35/189/189
f 38/190/190 35/191/191 36/192/192
