v 0.000000 -2.000000 0.000000
v 0.000000 0.000000 0.000000
v 2.000000 -2.000000 0.000000
v 2.000000 0.000000 0.000000
v 1.847759 -2.000000 0.765367
v 1.847759 0.000000 0.765367
v 1.414213 -2.000000 1.414214
v 1.414213 0.000000 1.414214
v 0.765367 -2.000000 1.847759
v 0.765367 0.000000 1.847759
v -0.000000 -2.000000 2.000000
v -0.000000 0.000000 2.000000
v -0.765367 -2.000000 1.847759
v -0.765367 0.000000 1.847759
v -1.414214 -2.000000 1.414213
v -1.414214 0.000000 1.414213
v -1.847759 -2.000000 0.765366
v -1.847759 0.000000 0.765366
v -2.000000 -2.000000 -0.000001
v -2.000000 0.000000 -0.000001
v -1.847758 -2.000000 -0.765367
v -1.847758 0.000000 -0.765367
v -1.414213 -2.000000 -1.414214
v -1.414213 0.000000 -1.414214
v -0.765366 -2.000000 -1.847759
v -0.765366 0.000000 -1.847759
v 0.000001 -2.000000 -1.999999
v 0.000001 0.000000 -1.999999
v 0.765368 -2.000000 -1.847758
v 0.765368 0.000000 -1.847758
v 1.414214 -2.000000 -1.414212
v 1.414214 0.000000 -1.414212
v 1.847759 -2.000000 -0.765366
v 1.847759 0.000000 -0.765366
v 1.584004 0.500000 -0.000000
v 1.463427 0.500000 -0.606171
v 1.120059 0.500000 -1.120059
v 0.606172 0.500000 -1.463427
v 0.000001 0.500000 -1.584003
v -0.606171 0.500000 -1.463427
v -1.120059 0.500000 -1.120059
v -1.463427 0.500000 -0.606172
v -1.584003 0.500000 -0.000000
v -1.463427 0.500000 0.606172
v -1.120059 0.500000 1.120059
v -0.606172 0.500000 1.463428
v -0.000000 0.500000 1.584004
v 0.606172 0.500000 1.463427
v 1.120060 0.500000 1.120059
v 1.463428 0.500000 0.606172
vt 0.000000 0.000000
vt 0.000000 0.000000
vt 0.000000 0.000000
vt 0.000000 0.000000
vt 0.000000 0.000000
vt 0.000000 0.000000
vt 0.000000 0.000000
vt 0.000000 0.000000
vt 0.000000 0.000000
vt 0.000000 0.000000
vt 0.000000 0.000000
vt 0.000000 0.000000
vt 0.000000 0.000000
vt 0.000000 0.000000
vt 0.000000 0.000000
vt 0.000000 0.000000
vt 0.000000 0.000000
vt 0.000000 0.000000
vt 0.000000 0.000000
vt 0.000000 0.000000
vt 0.000000 0.000000
vt 0.000000 0.000000
vt 0.000000 0.000000
vt 0.000000 0.000000
vt 0.000000 0.000000
vt 0.000000 0.000000
vt 0.000000 0.000000
vt 0.000000 0.000000
vt 0.000000 0.000000
vt 0.000000 0.000000
vt 0.000000 0.000000
vt 0.000000 0.000000
vt 0.000000 0.000000
vt 0.000000 0.000000
vt 0.000000 0.000000
vt 0.000000 0.000000
vt 0.000000 0.000000
vt 0.000000 0.000000
vt 0.000000 0.000000
vt 0.000000 0.000000
vt 0.000000 0.000000
vt 0.000000 0.000000
vt 0.000000 0.000000
vt 0.000000 0.000000
vt 0.000000 0.000000
vt 0.000000 0.000000
vt 0.000000 0.000000
vt 0.000000 0.000000
vt 0.000000 0.000000
vt 0.000000 0.000000
vt 0.000000 0.000000
vt 0.000000 0.000000
vt 0.000000 0.000000
vt 0.000000 0.000000
vt 0.000000 0.000000
vt 0.000000 0.000000
vt 0.000000 0.000000
vt 0.000000 0.000000
vt 0.000000 0.000000
vt 0.000000 0.000000
vt 0.000000 0.000000
vt 0.000000 0.000000
vt 0.000000 0.000000
vt 0.000000 0.000000
vt 0.000000 0.000000
vt 0.000000 0.000000
vt 0.000000 0.000000
vt 0.000000 0.000000
vt 0.000000 0.000000
vt 0.000000 0.000000
vt 0.000000 0.000000
vt 0.000000 0.000000
vt 0.000000 0.000000
vt 0.000000 0.000000
vt 0.000000 0.000000
vt 0.000000 0.000000
vt 0.000000 0.000000
vt 0.000000 0.000000
vt 0.000000 0.000000
vt 0.000000 0.000000
vt 0.000000 0.000000
vt 0.000000 0.000000
vt 0.000000 0.000000
vt 0.000000 0.000000
vt 0.000000 0.000000
vt 0.000000 0.000000
vt 0.000000 0.000000
vt 0.000000 0.000000
vt 0.000000 0.000000
vt 0.000000 0.000000
vt 0.000000 0.000000
vt 0.000000 0.000000
vt 0.000000 0.000000
vt 0.000000 0.000000
vt 0.000000 0.000000
vt 0.000000 0.000000
vt 0.000000 0.000000
vt 0.000000 0.000000
vt 0.000000 0.000000
vt 0.000000 0.000000
vt 0.000000 0.000000
vt 0.000000 0.000000
vt 0.000000 0.000000
vt 0.000000 0.000000
vt 0.000000 0.000000
vt 0.000000 0.000000
vt 0.000000 0.000000
vt 0.000000 0.000000
vt 0.000000 0.000000
vt 0.000000 0.000000
vt 0.000000 0.000000
vt 0.000000 0.000000
vt 0.000000 0.000000
vt 0.000000 0.000000
vt 0.000000 0.000000
vt 0.000000 0.000000
vt 0.000000 0.000000
vt 0.000000 0.000000
vt 0.000000 0.000000
vt 0.000000 0.000000
vt 0.000000 0.000000
vt 0.000000 0.000000
vt 0.000000 0.000000
vt 0.000000 0.000000
vt 0.000000 0.000000
vt 0.000000 0.000000
vt 0.000000 0.000000
vt 0.000000 0.000000
vt 0.000000 0.000000
vt 0.000000 0.000000
vt 0.000000 0.000000
vt 0.000000 0.000000
vt 0.000000 0.000000
vt 0.000000 0.000000
vt 0.000000 0.000000
vt 0.000000 0.000000
vt 0.000000 0.000000
vt 0.000000 0.000000
vt 0.000000 0.000000
vt 0.000000 0.000000
vt 0.000000 0.000000
vt 0.000000 0.000000
vt 0.000000 0.000000
vt 0.000000 0.000000
vt 0.000000 0.000000
vt 0.000000 0.000000
vt 0.000000 0.000000
vt 0.000000 0.000000
vt 0.000000 0.000000
vt 0.000000 0.000000
vt 0.000000 0.000000
vt 0.000000 0.000000
vt 0.000000 0.000000
vt 0.000000 0.000000
vt 0.000000 0.000000
vt 0.000000 0.000000
vt 0.000000 0.000000
vt 0.000000 0.000000
vt 0.000000 0.000000
vt 0.000000 0.000000
vt 0.000000 0.000000
vt 0.000000 0.000000
vt 0.000000 0.000000
vt 0.000000 0.000000
vt 0.000000 0.000000
vt 0.000000 0.000000
vt 0.000000 0.000000
vt 0.000000 0.000000
vt 0.000000 0.000000
vt 0.000000 0.000000
vt 0.000000 0.000000
vt 0.000000 0.000000
vt 0.000000 0.000000
vt 0.000000 0.000000
vt 0.000000 0.000000
vt 0.000000 0.000000
vt 0.000000 0.000000
vt 0.000000 0.000000
vt 0.000000 0.000000
vt 0.000000 0.000000
vt 0.000000 0.000000
vt 0.000000 0.000000
vt 0.000000 0.000000
vt 0.000000 0.000000
vt 0.000000 0.000000
vt 0.000000 0.000000
vt 0.000000 0.000000
vt 0.000000 0.000000
vt 0.000000 0.000000
vt 0.000000 0.000000
vt 0.000000 0.000000
vt 0.000000 0.000000
vt 0.000000 0.000000
vt 0.000000 0.000000
vt 0.000000 0.000000
vt 0.000000 0.000000
vt 0.000000 0.000000
vt 0.000000 0.000000
vt 0.000000 0.000000
vt 0.000000 0.000000
vt 0.000000 0.000000
vt 0.000000 0.000000
vt 0.000000 0.000000
vt 0.000000 0.000000
vt 0.000000 0.000000
vt 0.000000 0.000000
vt 0.000000 0.000000
vt 0.000000 0.000000
vt 0.000000 0.000000
vt 0.000000 0.000000
vt 0.000000 0.000000
vt 0.000000 0.000000
vt 0.000000 0.000000
vt 0.000000 0.000000
vt 0.000000 0.000000
vt 0.000000 0.000000
vt 0.000000 0.000000
vt 0.000000 0.000000
vt 0.000000 0.000000
vt 0.000000 0.000000
vt 0.000000 0.000000
vt 0.000000 0.000000
vt 0.000000 0.000000
vt 0.000000 0.000000
vt 0.000000 0.000000
vt 0.000000 0.000000
vt 0.000000 0.000000
vt 0.000000 0.000000
vt 0.000000 0.000000
vt 0.000000 0.000000
vt 0.000000 0.000000
vt 0.000000 0.000000
vt 0.000000 0.000000
vt 0.000000 0.000000
vt 0.000000 0.000000
vt 0.000000 0.000000
vt 0.000000 0.000000
vt 0.000000 0.000000
vt 0.000000 0.000000
vt 0.000000 0.000000
vt 0.000000 0.000000
vt 0.000000 0.000000
vt 0.000000 0.000000
vt 0.000000 0.000000
vt 0.000000 0.000000
vt 0.000000 0.000000
vt 0.000000 0.000000
vt 0.000000 0.000000
vt 0.000000 0.000000
vt 0.000000 0.000000
vt 0.000000 0.000000
vt 0.000000 0.000000
vt 0.000000 0.000000
vt 0.000000 0.000000
vt 0.000000 0.000000
vt 0.000000 0.000000
vt 0.000000 0.000000
vt 0.000000 0.000000
vt 0.000000 0.000000
vt 0.000000 0.000000
vt 0.000000 0.000000
vt 0.000000 0.000000
vt 0.000000 0.000000
vt 0.000000 0.000000
vt 0.000000 0.000000
vt 0.000000 0.000000
vt 0.000000 0.000000
vt 0.000000 0.000000
vt 0.000000 0.000000
vt 0.000000 0.000000
vt 0.000000 0.000000
vt 0.000000 0.000000
vt 0.000000 0.000000
vt 0.000000 0.000000
vt 0.000000 0.000000
vt 0.000000 0.000000
vt 0.000000 0.000000
vt 0.000000 0.000000
vt 0.000000 0.000000
vt 0.000000 0.000000
vt 0.000000 0.000000
vt 0.000000 0.000000
vt 0.000000 0.000000
vt 0.000000 0.000000
vt 0.000000 0.000000
vt 0.000000 0.000000
vt 0.000000 0.000000
vt 0.000000 0.000000
vn 0.000000 -1.000000 0.000000
vn 0.000000 -1.000000 0.000000
vn 0.000000 -1.000000 0.000000
vn 1.000000 0.000000 -0.000000
vn 0.923880 0.000000 0.382683
vn 0.923880 0.000000 0.382683
vn 1.000000 0.000000 -0.000000
vn 0.923880 0.000000 0.382683
vn 1.000000 0.000000 -0.000000
vn -0.000000 1.000000 0.000000
vn -0.278102 0.953619 -0.115194
vn -0.301015 0.953619 0.000000
vn 0.000000 -1.000000 0.000000
vn 0.000000 -1.000000 0.000000
vn 0.000000 -1.000000 0.000000
vn 0.923880 0.000000 0.382683
vn 0.707107 0.000000 0.707107
vn 0.707107 0.000000 0.707107
vn 0.923880 0.000000 0.382683
vn 0.707107 0.000000 0.707107
vn 0.923880 0.000000 0.382683
vn -0.000000 1.000000 0.000000
vn -0.212850 0.953619 -0.212850
vn -0.278102 0.953619 -0.115194
vn 0.000000 -1.000000 0.000000
vn 0.000000 -1.000000 0.000000
vn 0.000000 -1.000000 0.000000
vn 0.707107 0.000000 0.707107
vn 0.382683 0.000000 0.923880
vn 0.382683 0.000000 0.923880
vn 0.707107 0.000000 0.707107
vn 0.382683 0.000000 0.923880
vn 0.707107 0.000000 0.707107
vn -0.000000 1.000000 0.000000
vn -0.115194 0.953619 -0.278102
vn -0.212850 0.953619 -0.212850
vn 0.000000 -1.000000 0.000000
vn 0.000000 -1.000000 0.000000
vn 0.000000 -1.000000 0.000000
vn 0.382683 0.000000 0.923880
vn -0.000000 0.000000 1.000000
vn -0.000000 0.000000 1.000000
vn 0.382683 0.000000 0.923880
vn -0.000000 0.000000 1.000000
vn 0.382683 0.000000 0.923880
vn -0.000000 1.000000 0.000000
vn -0.000000 0.953619 -0.301015
vn -0.115194 0.953619 -0.278102
vn 0.000000 -1.000000 0.000000
vn 0.000000 -1.000000 0.000000
vn 0.000000 -1.000000 0.000000
vn -0.000000 0.000000 1.000000
vn -0.382684 0.000000 0.923879
vn -0.382684 0.000000 0.923879
vn -0.000000 0.000000 1.000000
vn -0.382684 0.000000 0.923879
vn -0.000000 0.000000 1.000000
vn -0.000000 1.000000 0.000000
vn 0.115194 0.953619 -0.278102
vn -0.000000 0.953619 -0.301015
vn 0.000000 -1.000000 0.000000
vn 0.000000 -1.000000 0.000000
vn 0.000000 -1.000000 0.000000
vn -0.382684 0.000000 0.923879
vn -0.707107 0.000000 0.707107
vn -0.707107 0.000000 0.707107
vn -0.382684 0.000000 0.923879
vn -0.707107 0.000000 0.707107
vn -0.382684 0.000000 0.923879
vn -0.000000 1.000000 0.000000
vn 0.212850 0.953619 -0.212850
vn 0.115194 0.953619 -0.278102
vn 0.000000 -1.000000 0.000000
vn 0.000000 -1.000000 0.000000
vn 0.000000 -1.000000 0.000000
vn -0.707107 0.000000 0.707107
vn -0.923880 0.000000 0.382683
vn -0.923880 0.000000 0.382683
vn -0.707107 0.000000 0.707107
vn -0.923880 0.000000 0.382683
vn -0.707107 0.000000 0.707107
vn -0.000000 1.000000 0.000000
vn 0.278102 0.953619 -0.115194
vn 0.212850 0.953619 -0.212850
vn 0.000000 -1.000000 0.000000
vn 0.000000 -1.000000 0.000000
vn 0.000000 -1.000000 0.000000
vn -0.923880 0.000000 0.382683
vn -1.000000 0.000000 -0.000000
vn -1.000000 0.000000 -0.000000
vn -0.923880 0.000000 0.382683
vn -1.000000 0.000000 -0.000000
vn -0.923880 0.000000 0.382683
vn -0.000000 1.000000 0.000000
vn 0.301016 0.953619 0.000000
vn 0.278102 0.953619 -0.115194
vn 0.000000 -1.000000 0.000000
vn 0.000000 -1.000000 0.000000
vn 0.000000 -1.000000 0.000000
vn -1.000000 0.000000 -0.000000
vn -0.923879 0.000000 -0.382684
vn -0.923879 0.000000 -0.382684
vn -1.000000 0.000000 -0.000000
vn -0.923879 0.000000 -0.382684
vn -1.000000 0.000000 -0.000000
vn -0.000000 1.000000 0.000000
vn 0.278102 0.953619 0.115194
vn 0.301016 0.953619 0.000000
vn 0.000000 -1.000000 0.000000
vn 0.000000 -1.000000 0.000000
vn 0.000000 -1.000000 0.000000
vn -0.923879 0.000000 -0.382684
vn -0.707106 0.000000 -0.707107
vn -0.707106 0.000000 -0.707107
vn -0.923879 0.000000 -0.382684
vn -0.707106 0.000000 -0.707107
vn -0.923879 0.000000 -0.382684
vn -0.000000 1.000000 0.000000
vn 0.212850 0.953619 0.212850
vn 0.278102 0.953619 0.115194
vn 0.000000 -1.000000 0.000000
vn 0.000000 -1.000000 0.000000
vn 0.000000 -1.000000 0.000000
vn -0.707106 0.000000 -0.707107
vn -0.382683 0.000000 -0.923880
vn -0.382683 0.000000 -0.923880
vn -0.707106 0.000000 -0.707107
vn -0.382683 0.000000 -0.923880
vn -0.707106 0.000000 -0.707107
vn -0.000000 1.000000 0.000000
vn 0.115194 0.953619 0.278102
vn 0.212850 0.953619 0.212850
vn 0.000000 -1.000000 0.000000
vn 0.000000 -1.000000 0.000000
vn 0.000000 -1.000000 0.000000
vn -0.382683 0.000000 -0.923880
vn 0.000000 0.000000 -1.000000
vn 0.000000 0.000000 -1.000000
vn -0.382683 0.000000 -0.923880
vn 0.000000 0.000000 -1.000000
vn -0.382683 0.000000 -0.923880
vn -0.000000 1.000000 0.000000
vn -0.000000 0.953619 0.301016
vn 0.115194 0.953619 0.278102
vn 0.000000 -1.000000 0.000000
vn 0.000000 -1.000000 0.000000
vn 0.000000 -1.000000 0.000000
vn 0.000000 0.000000 -1.000000
vn 0.382684 0.000000 -0.923879
vn 0.382684 0.000000 -0.923879
vn 0.000000 0.000000 -1.000000
vn 0.382684 0.000000 -0.923879
vn 0.000000 0.000000 -1.000000
vn -0.000000 1.000000 0.000000
vn -0.115194 0.953619 0.278102
vn -0.000000 0.953619 0.301016
vn 0.000000 -1.000000 0.000000
vn 0.000000 -1.000000 0.000000
vn 0.000000 -1.000000 0.000000
vn 0.382684 0.000000 -0.923879
vn 0.707107 0.000000 -0.707106
vn 0.707107 0.000000 -0.707106
vn 0.382684 0.000000 -0.923879
vn 0.707107 0.000000 -0.707106
vn 0.382684 0.000000 -0.923879
vn -0.000000 1.000000 0.000000
vn -0.212850 0.953619 0.212850
vn -0.115194 0.953619 0.278102
vn 0.000000 -1.000000 0.000000
vn 0.000000 -1.000000 0.000000
vn 0.000000 -1.000000 0.000000
vn 0.707107 0.000000 -0.707106
vn 0.923880 0.000000 -0.382683
vn 0.923880 0.000000 -0.382683
vn 0.707107 0.000000 -0.707106
vn 0.923880 0.000000 -0.382683
vn 0.707107 0.000000 -0.707106
vn -0.000000 1.000000 0.000000
vn -0.278102 0.953619 0.115194
vn -0.212850 0.953619 0.212850
vn 0.000000 -1.000000 0.000000
vn 0.000000 -1.000000 0.000000
vn 0.000000 -1.000000 0.000000
vn 0.923880 0.000000 -0.382683
vn 1.000000 0.000000 -0.000000
vn 1.000000 0.000000 -0.000000
vn 0.923880 0.000000 -0.382683
vn 1.000000 0.000000 -0.000000
vn 0.923880 0.000000 -0.382683
vn -0.000000 1.000000 0.000000
vn -0.301015 0.953619 0.000000
vn -0.278102 0.953619 0.115194
vn 0.710212 0.639576 -0.294179
vn 0.768728 0.639576 -0.000000
vn 0.768728 0.639576 -0.000000
vn 0.710212 0.639576 -0.294179
vn 0.768728 0.639576 -0.000000
vn 0.710212 0.639576 -0.294179
vn 0.543573 0.639576 -0.543572
vn 0.710212 0.639576 -0.294179
vn 0.710212 0.639576 -0.294179
vn 0.543573 0.639576 -0.543572
vn 0.710212 0.639576 -0.294179
vn 0.543573 0.639576 -0.543572
vn 0.294180 0.639576 -0.710212
vn 0.543573 0.639576 -0.543572
vn 0.543573 0.639576 -0.543572
vn 0.294180 0.639576 -0.710212
vn 0.543573 0.639576 -0.543572
vn 0.294180 0.639576 -0.710212
vn 0.000000 0.639576 -0.768727
vn 0.294180 0.639576 -0.710212
vn 0.294180 0.639576 -0.710212
vn 0.000000 0.639576 -0.768727
vn 0.294180 0.639576 -0.710212
vn 0.000000 0.639576 -0.768727
vn -0.294179 0.639576 -0.710212
vn 0.000000 0.639576 -0.768727
vn 0.000000 0.639576 -0.768727
vn -0.294179 0.639576 -0.710212
vn 0.000000 0.639576 -0.768727
vn -0.294179 0.639576 -0.710212
vn -0.543572 0.639576 -0.543573
vn -0.294179 0.639576 -0.710212
vn -0.294179 0.639576 -0.710212
vn -0.543572 0.639576 -0.543573
vn -0.294179 0.639576 -0.710212
vn -0.543572 0.639576 -0.543573
vn -0.710211 0.639576 -0.294180
vn -0.543572 0.639576 -0.543573
vn -0.543572 0.639576 -0.543573
vn -0.710211 0.639576 -0.294180
vn -0.543572 0.639576 -0.543573
vn -0.710211 0.639576 -0.294180
vn -0.768727 0.639577 -0.000000
vn -0.710211 0.639576 -0.294180
vn -0.710211 0.639576 -0.294180
vn -0.768727 0.639577 -0.000000
vn -0.710211 0.639576 -0.294180
vn -0.768727 0.639577 -0.000000
vn -0.710212 0.639576 0.294179
vn -0.768727 0.639577 -0.000000
vn -0.768727 0.639577 -0.000000
vn -0.710212 0.639576 0.294179
vn -0.768727 0.639577 -0.000000
vn -0.710212 0.639576 0.294179
vn -0.543573 0.639577 0.543572
vn -0.710212 0.639576 0.294179
vn -0.710212 0.639576 0.294179
vn -0.543573 0.639577 0.543572
vn -0.710212 0.639576 0.294179
vn -0.543573 0.639577 0.543572
vn -0.294180 0.639576 0.710212
vn -0.543573 0.639577 0.543572
vn -0.543573 0.639577 0.543572
vn -0.294180 0.639576 0.710212
vn -0.543573 0.639577 0.543572
vn -0.294180 0.639576 0.710212
vn -0.000000 0.639576 0.768727
vn -0.294180 0.639576 0.710212
vn -0.294180 0.639576 0.710212
vn -0.000000 0.639576 0.768727
vn -0.294180 0.639576 0.710212
vn -0.000000 0.639576 0.768727
vn 0.294179 0.639577 0.710212
vn -0.000000 0.639576 0.768727
vn -0.000000 0.639576 0.768727
vn 0.294179 0.639577 0.710212
vn -0.000000 0.639576 0.768727
vn 0.294179 0.639577 0.710212
vn 0.543572 0.639577 0.543572
vn 0.294179 0.639577 0.710212
vn 0.294179 0.639577 0.710212
vn 0.543572 0.639577 0.543572
vn 0.294179 0.639577 0.710212
vn 0.543572 0.639577 0.543572
vn 0.710212 0.639576 0.294179
vn 0.543572 0.639577 0.543572
vn 0.543572 0.639577 0.543572
vn 0.710212 0.639576 0.294179
vn 0.543572 0.639577 0.543572
vn 0.710212 0.639576 0.294179
vn 0.768728 0.639576 -0.000000
vn 0.710212 0.639576 0.294179
vn 0.710212 0.639576 0.294179
vn 0.768728 0.639576 -0.000000
vn 0.710212 0.639576 0.294179
vn 0.768728 0.639576 -0.000000
f 1/1/1 3/2/2 5/3/3
f 4/4/4 6/5/5 5/6/6
f 4/7/7 5/8/8 3/9/9
f 2/10/10 50/11/11 35/12/12
f 1/13/13 5/14/14 7/15/15
f 6/16/16 8/17/17 7/18/18
f 6/19/19 7/20/20 5/21/21
f 2/22/22 49/23/23 50/24/24
f 1/25/25 7/26/26 9/27/27
f 8/28/28 10/29/29 9/30/30
f 8/31/31 9/32/32 7/33/33
f 2/34/34 48/35/35 49/36/36
f 1/37/37 9/38/38 11/39/39
f 10/40/40 12/41/41 11/42/42
f 10/43/43 11/44/44 9/45/45
f 2/46/46 47/47/47 48/48/48
f 1/49/49 11/50/50 13/51/51
f 12/52/52 14/53/53 13/54/54
f 12/55/55 13/56/56 11/57/57
f 2/58/58 46/59/59 47/60/60
f 1/61/61 13/62/62 15/63/63
f 14/64/64 16/65/65 15/66/66
f 14/67/67 15/68/68 13/69/69
f 2/70/70 45/71/71 46/72/72
f 1/73/73 15/74/74 17/75/75
f 16/76/76 18/77/77 17/78/78
f 16/79/79 17/80/80 15/81/81
f 2/82/82 44/83/83 45/84/84
f 1/85/85 17/86/86 19/87/87
f 18/88/88 20/89/89 19/90/90
f 18/91/91 19/92/92 17/93/93
f 2/94/94 43/95/95 44/96/96
f 1/97/97 19/98/98 21/99/99
f 20/100/100 22/101/101 21/102/102
f 20/103/103 21/104/104 19/105/105
f 2/106/106 42/107/107 43/108/108
f 1/109/109 21/110/110 23/111/111
f 22/112/112 24/113/113 23/114/114
f 22/115/115 23/116/116 21/117/117
f 2/118/118 41/119/119 42/120/120
f 1/121/121 23/122/122 25/123/123
f 24/124/124 26/125/125 25/126/126
f 24/127/127 25/128/128 23/129/129
f 2/130/130 40/131/131 41/132/132
f 1/133/133 25/134/134 27/135/135
f 26/136/136 28/137/137 27/138/138
f 26/139/139 27/140/140 25/141/141
f 2/142/142 39/143/143 40/144/144
f 1/145/145 27/146/146 29/147/147
f 28/148/148 30/149/149 29/150/150
f 28/151/151 29/152/152 27/153/153
f 2/154/154 38/155/155 39/156/156
f 1/157/157 29/158/158 31/159/159
f 30/160/160 32/161/161 31/162/162
f 30/163/163 31/164/164 29/165/165
f 2/166/166 37/167/167 38/168/168
f 1/169/169 31/170/170 33/171/171
f 32/172/172 34/173/173 33/174/174
f 32/175/175 33/176/176 31/177/177
f 2/178/178 36/179/179 37/180/180
f 1/181/181 33/182/182 3/183/183
f 34/184/184 4/185/185 3/186/186
f 34/187/187 3/188/188 33/189/189
f 2/190/190 35/191/191 36/192/192
f 36/193/193 35/194/194 4/195/195
f 36/196/196 4/197/197 34/198/198
f 37/199/199 36/200/200 34/201/201
f 37/202/202 34/203/203 32/204/204
f 38/205/205 37/206/206 32/207/207
f 38/208/208 32/209/209 30/210/210
f 39/211/211 38/212/212 30/213/213
f 39/214/214 30/215/215 28/216/216
f 40/217/217 39/218/218 28/219/219
f 40/220/220 28/221/221 26/222/222
f 41/223/223 40/224/224 26/225/225
f 41/226/226 26/227/227 24/228/228
f 42/229/229 41/230/230 24/231/231
f 42/232/232 24/233/233 22/234/234
f 43/235/235 42/236/236 22/237/237
f 43/238/238 22/239/239 20/240/240
f 44/241/241 43/242/242 20/243/243
f 44/244/244 20/245/245 18/246/246
f 45/247/247 44/248/248 18/249/249
f 45/250/250 18/251/251 16/252/252
f 46/253/253 45/254/254 16/255/255
f 46/256/256 16/257/257 14/258/258
f 47/259/259 46/260/260 14/261/261
f 47/262/262 14/263/263 12/264/264
f 48/265/265 47/266/266 12/267/267
f 48/268/268 12/269/269 10/270/270
f 49/271/271 48/272/272 10/273/273
f 49/274/274 10/275/275 8/276/276
f 50/277/277 49/278/278 8/279/279
f 50/280/280 8/281/281 6/282/282
f 35/283/283 50/284/284 6/285/285
f 35/286/286 6/287/287 4/288/288
