v 1.500000 1.000000 -0.000000
v 1.000000 1.500000 -0.000000
v 1.500000 0.500000 -0.000000
v 0.500000 1.500000 -0.000000
v 0.500000 1.000000 -0.000000
v 1.000000 0.500000 -0.000000
v 0.000000 0.500000 -0.000000
v 1.000000 -1.500000 -0.000000
v 1.500000 -1.000000 -0.000000
v 0.500000 -1.500000 -0.000000
v 1.500000 -0.500000 -0.000000
v 0.000000 -0.500000 -0.000000
v 1.000000 -0.500000 -0.000000
v 0.500000 -1.000000 -0.000000
v 0.500000 0.000000 -0.000000
v -1.500000 -1.000000 -0.000000
v -1.000000 -1.500000 -0.000000
v -1.500000 -0.500000 -0.000000
v -0.500000 -1.500000 -0.000000
v -0.500000 -0.000000 -0.000000
v -0.500000 -1.000000 -0.000000
v -1.000000 -0.500000 -0.000000
v -0.000000 -0.500000 -0.000000
v -1.000000 1.500000 -0.000000
v -1.500000 1.000000 -0.000000
v -0.500000 1.500000 -0.000000
v -1.500000 0.500000 -0.000000
v -0.000000 0.500000 -0.000000
v -1.000000 0.500000 -0.000000
v -0.500000 1.000000 -0.000000
vt 0.717314 0.217815
vt 0.793719 0.290304
vt 0.711503 0.362994
vt 0.717314 0.217815
vt 0.711503 0.362994
vt 0.548445 0.363163
vt 0.717314 0.217815
vt 0.548445 0.363163
vt 0.478573 0.290650
vt 0.717314 0.217815
vt 0.478573 0.290650
vt 0.554255 0.217984
vt 0.809363 0.366222
vt 0.460613 0.369808
vt 0.461040 0.000533
vt 0.809363 0.366222
vt 0.461040 0.000533
vt 0.809790 -0.003053
vt 0.717314 0.217815
vt 0.793719 0.290304
vt 0.711503 0.362994
vt 0.717314 0.217815
vt 0.711503 0.362994
vt 0.548445 0.363163
vt 0.717314 0.217815
vt 0.548445 0.363163
vt 0.478573 0.290650
vt 0.717314 0.217815
vt 0.478573 0.290650
vt 0.554255 0.217984
vt 0.460613 0.369808
vt 0.461040 0.000533
vt 0.809790 -0.003053
vt 0.460613 0.369808
vt 0.809790 -0.003053
vt 0.809363 0.366222
vt 0.717314 0.217815
vt 0.793719 0.290304
vt 0.711503 0.362994
vt 0.717314 0.217815
vt 0.711503 0.362994
vt 0.548445 0.363163
vt 0.717314 0.217815
vt 0.548445 0.363163
vt 0.478573 0.290650
vt 0.717314 0.217815
vt 0.478573 0.290650
vt 0.554255 0.217984
vt 0.460613 0.369808
vt 0.461040 0.000533
vt 0.809790 -0.003053
vt 0.460613 0.369808
vt 0.809790 -0.003053
vt 0.809363 0.366222
vt 0.717314 0.217815
vt 0.793719 0.290304
vt 0.711503 0.362994
vt 0.717314 0.217815
vt 0.711503 0.362994
vt 0.548445 0.363163
vt 0.717314 0.217815
vt 0.548445 0.363163
vt 0.478573 0.290650
vt 0.717314 0.217815
vt 0.478573 0.290650
vt 0.554255 0.217984
vt 0.460613 0.369808
vt 0.461040 0.000533
vt 0.809790 -0.003053
vt 0.460613 0.369808
vt 0.809790 -0.003053
vt 0.809363 0.366222
vt 0.283561 0.400535
vt 0.010402 0.400185
vt 0.010647 0.142667
vt 0.283561 0.400535
vt 0.010647 0.142667
vt 0.283805 0.143016
vn 0.000000 0.000000 1.000000
vn 0.000000 0.000000 1.000000
vn -0.000000 0.000000 1.000000
vn 0.000000 0.000000 1.000000
vn -0.000000 0.000000 1.000000
vn -0.000000 -0.000000 1.000000
vn 0.000000 0.000000 1.000000
vn -0.000000 -0.000000 1.000000
vn 0.000000 0.000000 1.000000
vn 0.000000 0.000000 1.000000
vn 0.000000 0.000000 1.000000
vn 0.000000 0.000000 1.000000
vn -0.000000 -0.000000 1.000000
vn -0.000000 -0.000000 1.000000
vn -0.000000 -0.000000 1.000000
vn -0.000000 -0.000000 1.000000
vn -0.000000 -0.000000 1.000000
vn -0.000000 0.000000 1.000000
vn 0.000000 0.000000 1.000000
vn 0.000000 0.000000 1.000000
vn 0.000000 0.000000 1.000000
vn 0.000000 0.000000 1.000000
vn 0.000000 0.000000 1.000000
vn 0.000000 0.000000 1.000000
vn 0.000000 0.000000 1.000000
vn 0.000000 0.000000 1.000000
vn 0.000000 0.000000 1.000000
vn 0.000000 0.000000 1.000000
vn 0.000000 0.000000 1.000000
vn 0.000000 0.000000 1.000000
vn -0.000000 0.000000 1.000000
vn 0.000000 0.000000 1.000000
vn 0.000000 0.000000 1.000000
vn -0.000000 0.000000 1.000000
vn 0.000000 0.000000 1.000000
vn -0.000000 0.000000 1.000000
vn 0.000000 0.000000 1.000000
vn 0.000000 0.000000 1.000000
vn 0.000000 0.000000 1.000000
vn 0.000000 0.000000 1.000000
vn 0.000000 0.000000 1.000000
vn 0.000000 0.000000 1.000000
vn 0.000000 0.000000 1.000000
vn 0.000000 0.000000 1.000000
vn 0.000000 -0.000000 1.000000
vn 0.000000 0.000000 1.000000
vn 0.000000 -0.000000 1.000000
vn 0.000000 0.000000 1.000000
vn 0.000000 0.000000 1.000000
vn 0.000000 0.000000 1.000000
vn 0.000000 0.000000 1.000000
vn 0.000000 0.000000 1.000000
vn 0.000000 0.000000 1.000000
vn 0.000000 0.000000 1.000000
vn -0.000000 0.000000 1.000000
vn -0.000000 0.000000 1.000000
vn 0.000000 -0.000000 1.000000
vn -0.000000 0.000000 1.000000
vn 0.000000 -0.000000 1.000000
vn -0.000000 -0.000000 1.000000
vn -0.000000 0.000000 1.000000
vn -0.000000 -0.000000 1.000000
vn -0.000000 0.000000 1.000000
vn -0.000000 0.000000 1.000000
vn -0.000000 0.000000 1.000000
vn -0.000000 0.000000 1.000000
vn 0.000000 -0.000000 1.000000
vn -0.000000 -0.000000 1.000000
vn 0.000000 -0.000000 1.000000
vn 0.000000 -0.000000 1.000000
vn 0.000000 -0.000000 1.000000
vn 0.000000 -0.000000 1.000000
vn 0.000000 0.000000 1.000000
vn 0.000000 0.000000 1.000000
vn 0.000000 0.000000 1.000000
vn 0.000000 0.000000 1.000000
vn 0.000000 0.000000 1.000000
vn 0.000000 0.000000 1.000000
f 2/1/1 4/2/2 5/3/3
f 2/4/4 5/5/5 6/6/6
f 2/7/7 6/8/8 3/9/9
f 2/10/10 3/11/11 1/12/12
f 7/13/13 15/14/14 6/15/15
f 7/16/16 6/17/17 5/18/18
f 9/19/19 11/20/20 13/21/21
f 9/22/22 13/23/23 14/24/24
f 9/25/25 14/26/26 10/27/27
f 9/28/28 10/29/29 8/30/30
f 12/31/31 14/32/32 13/33/33
f 12/34/34 13/35/35 15/36/36
f 17/37/37 19/38/38 21/39/39
f 17/40/40 21/41/41 22/42/42
f 17/43/43 22/44/44 18/45/45
f 17/46/46 18/47/47 16/48/48
f 20/49/49 22/50/50 21/51/51
f 20/52/52 21/53/53 23/54/54
f 25/55/55 27/56/56 29/57/57
f 25/58/58 29/59/59 30/60/60
f 25/61/61 30/62/62 26/63/63
f 25/64/64 26/65/65 24/66/66
f 28/67/67 30/68/68 29/69/69
f 28/70/70 29/71/71 20/72/72
f 12/73/73 15/74/74 7/75/75
f 12/76/76 7/77/77 20/78/78
