v 2.602407 0.000000 -0.000001
v -0.000000 -0.000000 -0.000001
v 3.148160 1.073071 -0.000003
v -0.000000 2.000000 -0.000001
v 3.148160 0.758776 -0.758777
v -0.000000 1.414213 -1.414214
v 3.148160 -0.000002 -1.073072
v -0.000000 -0.000000 -2.000000
v 3.148160 -0.758776 -0.758776
v -0.000000 -1.414214 -1.414214
v 3.148160 -1.073071 0.000001
v -0.000000 -2.000000 -0.000001
v 3.148160 -0.758776 0.758776
v -0.000000 -1.414214 1.414213
v 3.148160 0.000002 1.073071
v -0.000001 -0.000000 1.999999
v 3.148160 0.758777 0.758775
v -0.000000 1.414213 1.414213
v 3.146141 0.894942 -0.000002
v 3.146141 0.632820 0.632819
v 3.146141 0.000002 0.894941
v 3.146141 -0.632819 0.632819
v 3.146141 -0.894942 0.000001
v 3.146141 -0.632820 -0.632820
v 3.146141 -0.000002 -0.894942
v 3.146141 0.632819 -0.632821
v 2.622793 0.423988 -0.423990
v 2.622793 0.599611 -0.000006
v 2.622793 0.423990 0.423988
v 2.622793 -0.000005 -0.599611
v 2.622793 -0.423990 -0.423989
v 2.622793 -0.599611 0.000005
v 2.622793 -0.423988 0.423989
v 2.622793 0.000006 0.599610
vt 0.000000 0.000000
vt 0.000000 0.000000
vt 0.000000 0.000000
vt 0.000000 0.000000
vt 0.000000 0.000000
vt 0.000000 0.000000
vt 0.000000 0.000000
vt 0.000000 0.000000
vt 0.000000 0.000000
vt 0.000000 0.000000
vt 0.000000 0.000000
vt 0.000000 0.000000
vt 0.000000 0.000000
vt 0.000000 0.000000
vt 0.000000 0.000000
vt 0.000000 0.000000
vt 0.000000 0.000000
vt 0.000000 0.000000
vt 0.000000 0.000000
vt 0.000000 0.000000
vt 0.000000 0.000000
vt 0.000000 0.000000
vt 0.000000 0.000000
vt 0.000000 0.000000
vt 0.000000 0.000000
vt 0.000000 0.000000
vt 0.000000 0.000000
vt 0.000000 0.000000
vt 0.000000 0.000000
vt 0.000000 0.000000
vt 0.000000 0.000000
vt 0.000000 0.000000
vt 0.000000 0.000000
vt 0.000000 0.000000
vt 0.000000 0.000000
vt 0.000000 0.000000
vt 0.000000 0.000000
vt 0.000000 0.000000
vt 0.000000 0.000000
vt 0.000000 0.000000
vt 0.000000 0.000000
vt 0.000000 0.000000
vt 0.000000 0.000000
vt 0.000000 0.000000
vt 0.000000 0.000000
vt 0.000000 0.000000
vt 0.000000 0.000000
vt 0.000000 0.000000
vt 0.000000 0.000000
vt 0.000000 0.000000
vt 0.000000 0.000000
vt 0.000000 0.000000
vt 0.000000 0.000000
vt 0.000000 0.000000
vt 0.000000 0.000000
vt 0.000000 0.000000
vt 0.000000 0.000000
vt 0.000000 0.000000
vt 0.000000 0.000000
vt 0.000000 0.000000
vt 0.000000 0.000000
vt 0.000000 0.000000
vt 0.000000 0.000000
vt 0.000000 0.000000
vt 0.000000 0.000000
vt 0.000000 0.000000
vt 0.000000 0.000000
vt 0.000000 0.000000
vt 0.000000 0.000000
vt 0.000000 0.000000
vt 0.000000 0.000000
vt 0.000000 0.000000
vt 0.000000 0.000000
vt 0.000000 0.000000
vt 0.000000 0.000000
vt 0.000000 0.000000
vt 0.000000 0.000000
vt 0.000000 0.000000
vt 0.000000 0.000000
vt 0.000000 0.000000
vt 0.000000 0.000000
vt 0.000000 0.000000
vt 0.000000 0.000000
vt 0.000000 0.000000
vt 0.000000 0.000000
vt 0.000000 0.000000
vt 0.000000 0.000000
vt 0.000000 0.000000
vt 0.000000 0.000000
vt 0.000000 0.000000
vt 0.000000 0.000000
vt 0.000000 0.000000
vt 0.000000 0.000000
vt 0.000000 0.000000
vt 0.000000 0.000000
vt 0.000000 0.000000
vt 0.000000 0.000000
vt 0.000000 0.000000
vt 0.000000 0.000000
vt 0.000000 0.000000
vt 0.000000 0.000000
vt 0.000000 0.000000
vt 0.000000 0.000000
vt 0.000000 0.000000
vt 0.000000 0.000000
vt 0.000000 0.000000
vt 0.000000 0.000000
vt 0.000000 0.000000
vt 0.000000 0.000000
vt 0.000000 0.000000
vt 0.000000 0.000000
vt 0.000000 0.000000
vt 0.000000 0.000000
vt 0.000000 0.000000
vt 0.000000 0.000000
vt 0.000000 0.000000
vt 0.000000 0.000000
vt 0.000000 0.000000
vt 0.000000 0.000000
vt 0.000000 0.000000
vt 0.000000 0.000000
vt 0.000000 0.000000
vt 0.000000 0.000000
vt 0.000000 0.000000
vt 0.000000 0.000000
vt 0.000000 0.000000
vt 0.000000 0.000000
vt 0.000000 0.000000
vt 0.000000 0.000000
vt 0.000000 0.000000
vt 0.000000 0.000000
vt 0.000000 0.000000
vt 0.000000 0.000000
vt 0.000000 0.000000
vt 0.000000 0.000000
vt 0.000000 0.000000
vt 0.000000 0.000000
vt 0.000000 0.000000
vt 0.000000 0.000000
vt 0.000000 0.000000
vt 0.000000 0.000000
vt 0.000000 0.000000
vt 0.000000 0.000000
vt 0.000000 0.000000
vt 0.000000 0.000000
vt 0.000000 0.000000
vt 0.000000 0.000000
vt 0.000000 0.000000
vt 0.000000 0.000000
vt 0.000000 0.000000
vt 0.000000 0.000000
vt 0.000000 0.000000
vt 0.000000 0.000000
vt 0.000000 0.000000
vt 0.000000 0.000000
vt 0.000000 0.000000
vt 0.000000 0.000000
vt 0.000000 0.000000
vt 0.000000 0.000000
vt 0.000000 0.000000
vt 0.000000 0.000000
vt 0.000000 0.000000
vt 0.000000 0.000000
vt 0.000000 0.000000
vt 0.000000 0.000000
vt 0.000000 0.000000
vt 0.000000 0.000000
vt 0.000000 0.000000
vt 0.000000 0.000000
vt 0.000000 0.000000
vt 0.000000 0.000000
vt 0.000000 0.000000
vt 0.000000 0.000000
vt 0.000000 0.000000
vt 0.000000 0.000000
vt 0.000000 0.000000
vt 0.000000 0.000000
vt 0.000000 0.000000
vt 0.000000 0.000000
vt 0.000000 0.000000
vt 0.000000 0.000000
vt 0.000000 0.000000
vt 0.000000 0.000000
vt 0.000000 0.000000
vt 0.000000 0.000000
vt 0.000000 0.000000
vt 0.000000 0.000000
vt 0.000000 0.000000
vt 0.000000 0.000000
vt 0.000000 0.000000
vt 0.000000 0.000000
vt 0.000000 0.000000
vn 0.999423 -0.024027 0.024027
vn 0.999423 -0.033979 0.000000
vn 1.000000 -0.000000 -0.000000
vn 0.282446 0.959283 -0.000000
vn 0.282446 0.678315 -0.678316
vn 0.282446 0.678315 -0.678316
vn 0.282446 0.959283 -0.000000
vn 0.282446 0.678315 -0.678316
vn 0.282446 0.959283 -0.000000
vn -1.000000 0.000000 -0.000000
vn -1.000000 -0.000000 -0.000000
vn -1.000000 -0.000000 -0.000000
vn 0.999423 0.000000 0.033979
vn 0.999423 -0.024027 0.024027
vn 1.000000 -0.000000 -0.000000
vn 0.282446 0.678315 -0.678316
vn 0.282446 -0.000000 -0.959283
vn 0.282446 -0.000000 -0.959283
vn 0.282446 0.678315 -0.678316
vn 0.282446 -0.000000 -0.959283
vn 0.282446 0.678315 -0.678316
vn -1.000000 -0.000000 -0.000000
vn -1.000000 -0.000000 -0.000000
vn -1.000000 -0.000000 -0.000000
vn 0.999423 0.024027 0.024027
vn 0.999423 0.000000 0.033979
vn 1.000000 -0.000000 -0.000000
vn 0.282446 -0.000000 -0.959283
vn 0.282447 -0.678316 -0.678315
vn 0.282447 -0.678316 -0.678315
vn 0.282446 -0.000000 -0.959283
vn 0.282447 -0.678316 -0.678315
vn 0.282446 -0.000000 -0.959283
vn -1.000000 -0.000000 -0.000000
vn -1.000000 0.000000 -0.000000
vn -1.000000 -0.000000 -0.000000
vn 0.999423 0.033979 -0.000000
vn 0.999423 0.024027 0.024027
vn 1.000000 -0.000000 -0.000000
vn 0.282447 -0.678316 -0.678315
vn 0.282447 -0.959283 0.000000
vn 0.282447 -0.959283 0.000000
vn 0.282447 -0.678316 -0.678315
vn 0.282447 -0.959283 0.000000
vn 0.282447 -0.678316 -0.678315
vn -1.000000 0.000000 -0.000000
vn -1.000000 0.000000 -0.000000
vn -1.000000 -0.000000 -0.000000
vn 0.999423 0.024027 -0.024027
vn 0.999423 0.033979 -0.000000
vn 1.000000 -0.000000 -0.000000
vn 0.282447 -0.959283 0.000000
vn 0.282447 -0.678315 0.678316
vn 0.282447 -0.678315 0.678316
vn 0.282447 -0.959283 0.000000
vn 0.282447 -0.678315 0.678316
vn 0.282447 -0.959283 0.000000
vn -1.000000 0.000000 -0.000000
vn -1.000000 -0.000000 -0.000000
vn -1.000000 -0.000000 -0.000000
vn 0.999423 -0.000000 -0.033979
vn 0.999423 0.024027 -0.024027
vn 1.000000 -0.000000 -0.000000
vn 0.282447 -0.678315 0.678316
vn 0.282446 0.000000 0.959283
vn 0.282446 0.000000 0.959283
vn 0.282447 -0.678315 0.678316
vn 0.282446 0.000000 0.959283
vn 0.282447 -0.678315 0.678316
vn -1.000000 -0.000000 -0.000000
vn -1.000000 0.000000 -0.000000
vn -1.000000 -0.000000 -0.000000
vn 0.999423 -0.024027 -0.024027
vn 0.999423 -0.000000 -0.033979
vn 1.000000 -0.000000 -0.000000
vn 0.282446 0.000000 0.959283
vn 0.282446 0.678316 0.678315
vn 0.282446 0.678316 0.678315
vn 0.282446 0.000000 0.959283
vn 0.282446 0.678316 0.678315
vn 0.282446 0.000000 0.959283
vn -1.000000 0.000000 -0.000000
vn -1.000000 0.000000 -0.000000
vn -1.000000 -0.000000 -0.000000
vn 0.999423 -0.033979 0.000000
vn 0.999423 -0.024027 -0.024027
vn 1.000000 -0.000000 -0.000000
vn 0.282446 0.678316 0.678315
vn 0.282446 0.959283 -0.000000
vn 0.282446 0.959283 -0.000000
vn 0.282446 0.678316 0.678315
vn 0.282446 0.959283 -0.000000
vn 0.282446 0.678316 0.678315
vn -1.000000 0.000000 -0.000000
vn -1.000000 0.000000 -0.000000
vn -1.000000 -0.000000 -0.000000
vn 0.999936 -0.011335 0.000000
vn 0.999936 -0.008015 -0.008015
vn 0.999936 -0.008015 -0.008015
vn 0.999936 -0.011335 0.000000
vn 0.999936 -0.008015 -0.008015
vn 0.999936 -0.011335 0.000000
vn 0.999936 -0.008015 -0.008015
vn 0.999936 -0.000000 -0.011335
vn 0.999936 -0.000000 -0.011335
vn 0.999936 -0.008015 -0.008015
vn 0.999936 -0.000000 -0.011335
vn 0.999936 -0.008015 -0.008015
vn 0.999936 -0.000000 -0.011335
vn 0.999936 0.008015 -0.008015
vn 0.999936 0.008015 -0.008015
vn 0.999936 -0.000000 -0.011335
vn 0.999936 0.008015 -0.008015
vn 0.999936 -0.000000 -0.011335
vn 0.999936 0.008015 -0.008015
vn 0.999936 0.011335 -0.000000
vn 0.999936 0.011335 -0.000000
vn 0.999936 0.008015 -0.008015
vn 0.999936 0.011335 -0.000000
vn 0.999936 0.008015 -0.008015
vn 0.999936 0.011335 -0.000000
vn 0.999936 0.008015 0.008015
vn 0.999936 0.008015 0.008015
vn 0.999936 0.011335 -0.000000
vn 0.999936 0.008015 0.008015
vn 0.999936 0.011335 -0.000000
vn 0.999936 0.008015 0.008015
vn 0.999936 0.000000 0.011335
vn 0.999936 0.000000 0.011335
vn 0.999936 0.008015 0.008015
vn 0.999936 0.000000 0.011335
vn 0.999936 0.008015 0.008015
vn 0.999936 0.000000 0.011335
vn 0.999936 -0.008015 0.008015
vn 0.999936 -0.008015 0.008015
vn 0.999936 0.000000 0.011335
vn 0.999936 -0.008015 0.008015
vn 0.999936 0.000000 0.011335
vn 0.999936 -0.008015 0.008015
vn 0.999936 -0.011335 0.000000
vn 0.999936 -0.011335 0.000000
vn 0.999936 -0.008015 0.008015
vn 0.999936 -0.011335 0.000000
vn 0.999936 -0.008015 0.008015
vn 0.491460 -0.615818 0.615821
vn 0.491460 -0.870900 0.000003
vn 0.491460 -0.870900 0.000003
vn 0.491460 -0.615818 0.615821
vn 0.491460 -0.870900 0.000003
vn 0.491460 -0.615818 0.615821
vn 0.491460 -0.870900 0.000003
vn 0.491460 -0.615821 -0.615818
vn 0.491460 -0.615821 -0.615818
vn 0.491460 -0.870900 0.000003
vn 0.491460 -0.615821 -0.615818
vn 0.491460 -0.870900 0.000003
vn 0.491460 0.000003 0.870900
vn 0.491460 -0.615818 0.615821
vn 0.491460 -0.615818 0.615821
vn 0.491460 0.000003 0.870900
vn 0.491460 -0.615818 0.615821
vn 0.491460 0.000003 0.870900
vn 0.491460 0.615821 0.615818
vn 0.491460 0.000003 0.870900
vn 0.491460 0.000003 0.870900
vn 0.491460 0.615821 0.615818
vn 0.491460 0.000003 0.870900
vn 0.491460 0.615821 0.615818
vn 0.491460 0.870900 -0.000003
vn 0.491460 0.615821 0.615818
vn 0.491460 0.615821 0.615818
vn 0.491460 0.870900 -0.000003
vn 0.491460 0.615821 0.615818
vn 0.491460 0.870900 -0.000003
vn 0.491460 0.615818 -0.615821
vn 0.491460 0.870900 -0.000003
vn 0.491460 0.870900 -0.000003
vn 0.491460 0.615818 -0.615821
vn 0.491460 0.870900 -0.000003
vn 0.491460 0.615818 -0.615821
vn 0.491460 -0.000003 -0.870900
vn 0.491460 0.615818 -0.615821
vn 0.491460 0.615818 -0.615821
vn 0.491460 -0.000003 -0.870900
vn 0.491460 0.615818 -0.615821
vn 0.491460 -0.000003 -0.870900
vn 0.491460 -0.615821 -0.615818
vn 0.491460 -0.000003 -0.870900
vn 0.491460 -0.000003 -0.870900
vn 0.491460 -0.615821 -0.615818
vn 0.491460 -0.000003 -0.870900
vn 0.491460 -0.615821 -0.615818
f 27/1/1 28/2/2 1/3/3
f 3/4/4 5/5/5 6/6/6
f 3/7/7 6/8/8 4/9/9
f 4/10/10 6/11/11 2/12/12
f 30/13/13 27/14/14 1/15/15
f 5/16/16 7/17/17 8/18/18
f 5/19/19 8/20/20 6/21/21
f 6/22/22 8/23/23 2/24/24
f 31/25/25 30/26/26 1/27/27
f 7/28/28 9/29/29 10/30/30
f 7/31/31 10/32/32 8/33/33
f 8/34/34 10/35/35 2/36/36
f 32/37/37 31/38/38 1/39/39
f 9/40/40 11/41/41 12/42/42
f 9/43/43 12/44/44 10/45/45
f 10/46/46 12/47/47 2/48/48
f 33/49/49 32/50/50 1/51/51
f 11/52/52 13/53/53 14/54/54
f 11/55/55 14/56/56 12/57/57
f 12/58/58 14/59/59 2/60/60
f 34/61/61 33/62/62 1/63/63
f 13/64/64 15/65/65 16/66/66
f 13/67/67 16/68/68 14/69/69
f 14/70/70 16/71/71 2/72/72
f 29/73/73 34/74/74 1/75/75
f 15/76/76 17/77/77 18/78/78
f 15/79/79 18/80/80 16/81/81
f 16/82/82 18/83/83 2/84/84
f 28/85/85 29/86/86 1/87/87
f 17/88/88 3/89/89 4/90/90
f 17/91/91 4/92/92 18/93/93
f 18/94/94 4/95/95 2/96/96
f 3/97/97 17/98/98 20/99/99
f 3/100/100 20/101/101 19/102/102
f 17/103/103 15/104/104 21/105/105
f 17/106/106 21/107/107 20/108/108
f 15/109/109 13/110/110 22/111/111
f 15/112/112 22/113/113 21/114/114
f 13/115/115 11/116/116 23/117/117
f 13/118/118 23/119/119 22/120/120
f 11/121/121 9/122/122 24/123/123
f 11/124/124 24/125/125 23/126/126
f 9/127/127 7/128/128 25/129/129
f 9/130/130 25/131/131 24/132/132
f 7/133/133 5/134/134 26/135/135
f 7/136/136 26/137/137 25/138/138
f 5/139/139 3/140/140 19/141/141
f 5/142/142 19/143/143 26/144/144
f 26/145/145 19/146/146 28/147/147
f 26/148/148 28/149/149 27/150/150
f 19/151/151 20/152/152 29/153/153
f 19/154/154 29/155/155 28/156/156
f 25/157/157 26/158/158 27/159/159
f 25/160/160 27/161/161 30/162/162
f 24/163/163 25/164/164 30/165/165
f 24/166/166 30/167/167 31/168/168
f 23/169/169 24/170/170 31/171/171
f 23/172/172 31/173/173 32/174/174
f 22/175/175 23/176/176 32/177/177
f 22/178/178 32/179/179 33/180/180
f 21/181/181 22/182/182 33/183/183
f 21/184/184 33/185/185 34/186/186
f 20/187/187 21/188/188 34/189/189
f 20/190/190 34/191/191 29/192/192
