v 0.000000 3.081071 -0.000000
v 2.777851 4.157348 0.000000
v 1.311562 3.108176 0.000003
v 0.668628 3.475214 0.000001
v 2.566400 4.157348 -1.063038
v 1.211725 3.108176 -0.501909
v 0.617732 3.475214 -0.255871
v 1.964237 4.157348 -1.964237
v 0.927414 3.108176 -0.927412
v 0.472792 3.475214 -0.472791
v 1.063037 4.157348 -2.566400
v 0.501916 3.108176 -1.211723
v 0.255874 3.475214 -0.617731
v -0.000000 4.157348 -2.777851
v 0.000003 3.108176 -1.311561
v 0.000001 3.475214 -0.668628
v -1.063038 4.157348 -2.566399
v -0.501909 3.108176 -1.211725
v -0.255871 3.475214 -0.617732
v -1.964237 4.157348 -1.964237
v -0.927413 3.108176 -0.927414
v -0.472791 3.475214 -0.472792
v -2.566399 4.157348 -1.063037
v -1.211723 3.108176 -0.501916
v -0.617731 3.475214 -0.255874
v -2.777850 4.157348 0.000001
v -1.311561 3.108176 -0.000003
v -0.668628 3.475214 -0.000001
v -2.566399 4.157348 1.063038
v -1.211724 3.108176 0.501909
v -0.617732 3.475214 0.255871
v -1.964236 4.157348 1.964237
v -0.927414 3.108176 0.927413
v -0.472792 3.475214 0.472790
v -1.063036 4.157348 2.566399
v -0.501916 3.108176 1.211723
v -0.255874 3.475214 0.617731
v 0.000001 4.157348 2.777850
v -0.000002 3.108176 1.311561
v -0.000001 3.475214 0.668627
v 1.063038 4.157348 2.566398
v 0.501910 3.108176 1.211724
v 0.255871 3.475214 0.617732
v 1.964237 4.157348 1.964236
v 0.927412 3.108176 0.927414
v 0.472791 3.475214 0.472792
v 2.566399 4.157348 1.063036
v 1.211723 3.108176 0.501915
v 0.617731 3.475214 0.255874
v 1.641949 3.484003 -1.641945
v 0.888621 3.484003 -2.145307
v 0.000005 3.484003 -2.322063
v 2.145309 3.484003 -0.888610
v -0.888610 3.484003 -2.145309
v -2.322063 3.484003 -0.000005
v -2.145308 3.484003 0.888611
v -1.641945 3.484003 -1.641949
v -1.641949 3.484003 1.641945
v -2.145306 3.484003 -0.888620
v -0.888620 3.484003 2.145306
v -0.000004 3.484003 2.322063
v 2.322064 3.484003 0.000005
v 0.888611 3.484003 2.145308
v 1.641945 3.484003 1.641948
v 2.145306 3.484003 0.888619
v -0.000003 3.143465 1.904091
v -0.728668 3.143465 1.759150
v 1.904091 3.143465 0.000004
v 1.759150 3.143465 0.728667
v 1.346395 3.143465 1.346397
v -1.346398 3.143465 1.346395
v 0.728661 3.143465 1.759152
v -1.759152 3.143465 0.728661
v -1.904091 3.143465 -0.000004
v 1.759153 3.143465 -0.728660
v -1.759150 3.143465 -0.728668
v 1.346398 3.143465 -1.346395
v -1.346395 3.143465 -1.346398
v -0.728660 3.143465 -1.759152
v 0.000004 3.143465 -1.904091
v 0.728668 3.143465 -1.759150
vt 0.000000 0.000000
vt 0.000000 0.000000
vt 0.000000 0.000000
vt 0.000000 0.000000
vt 0.000000 0.000000
vt 0.000000 0.000000
vt 0.000000 0.000000
vt 0.000000 0.000000
vt 0.000000 0.000000
vt 0.000000 0.000000
vt 0.000000 0.000000
vt 0.000000 0.000000
vt 0.000000 0.000000
vt 0.000000 0.000000
vt 0.000000 0.000000
vt 0.000000 0.000000
vt 0.000000 0.000000
vt 0.000000 0.000000
vt 0.000000 0.000000
vt 0.000000 0.000000
vt 0.000000 0.000000
vt 0.000000 0.000000
vt 0.000000 0.000000
vt 0.000000 0.000000
vt 0.000000 0.000000
vt 0.000000 0.000000
vt 0.000000 0.000000
vt 0.000000 0.000000
vt 0.000000 0.000000
vt 0.000000 0.000000
vt 0.000000 0.000000
vt 0.000000 0.000000
vt 0.000000 0.000000
vt 0.000000 0.000000
vt 0.000000 0.000000
vt 0.000000 0.000000
vt 0.000000 0.000000
vt 0.000000 0.000000
vt 0.000000 0.000000
vt 0.000000 0.000000
vt 0.000000 0.000000
vt 0.000000 0.000000
vt 0.000000 0.000000
vt 0.000000 0.000000
vt 0.000000 0.000000
vt 0.000000 0.000000
vt 0.000000 0.000000
vt 0.000000 0.000000
vt 0.000000 0.000000
vt 0.000000 0.000000
vt 0.000000 0.000000
vt 0.000000 0.000000
vt 0.000000 0.000000
vt 0.000000 0.000000
vt 0.000000 0.000000
vt 0.000000 0.000000
vt 0.000000 0.000000
vt 0.000000 0.000000
vt 0.000000 0.000000
vt 0.000000 0.000000
vt 0.000000 0.000000
vt 0.000000 0.000000
vt 0.000000 0.000000
vt 0.000000 0.000000
vt 0.000000 0.000000
vt 0.000000 0.000000
vt 0.000000 0.000000
vt 0.000000 0.000000
vt 0.000000 0.000000
vt 0.000000 0.000000
vt 0.000000 0.000000
vt 0.000000 0.000000
vt 0.000000 0.000000
vt 0.000000 0.000000
vt 0.000000 0.000000
vt 0.000000 0.000000
vt 0.000000 0.000000
vt 0.000000 0.000000
vt 0.000000 0.000000
vt 0.000000 0.000000
vt 0.000000 0.000000
vt 0.000000 0.000000
vt 0.000000 0.000000
vt 0.000000 0.000000
vt 0.000000 0.000000
vt 0.000000 0.000000
vt 0.000000 0.000000
vt 0.000000 0.000000
vt 0.000000 0.000000
vt 0.000000 0.000000
vt 0.000000 0.000000
vt 0.000000 0.000000
vt 0.000000 0.000000
vt 0.000000 0.000000
vt 0.000000 0.000000
vt 0.000000 0.000000
vt 0.000000 0.000000
vt 0.000000 0.000000
vt 0.000000 0.000000
vt 0.000000 0.000000
vt 0.000000 0.000000
vt 0.000000 0.000000
vt 0.000000 0.000000
vt 0.000000 0.000000
vt 0.000000 0.000000
vt 0.000000 0.000000
vt 0.000000 0.000000
vt 0.000000 0.000000
vt 0.000000 0.000000
vt 0.000000 0.000000
vt 0.000000 0.000000
vt 0.000000 0.000000
vt 0.000000 0.000000
vt 0.000000 0.000000
vt 0.000000 0.000000
vt 0.000000 0.000000
vt 0.000000 0.000000
vt 0.000000 0.000000
vt 0.000000 0.000000
vt 0.000000 0.000000
vt 0.000000 0.000000
vt 0.000000 0.000000
vt 0.000000 0.000000
vt 0.000000 0.000000
vt 0.000000 0.000000
vt 0.000000 0.000000
vt 0.000000 0.000000
vt 0.000000 0.000000
vt 0.000000 0.000000
vt 0.000000 0.000000
vt 0.000000 0.000000
vt 0.000000 0.000000
vt 0.000000 0.000000
vt 0.000000 0.000000
vt 0.000000 0.000000
vt 0.000000 0.000000
vt 0.000000 0.000000
vt 0.000000 0.000000
vt 0.000000 0.000000
vt 0.000000 0.000000
vt 0.000000 0.000000
vt 0.000000 0.000000
vt 0.000000 0.000000
vt 0.000000 0.000000
vt 0.000000 0.000000
vt 0.000000 0.000000
vt 0.000000 0.000000
vt 0.000000 0.000000
vt 0.000000 0.000000
vt 0.000000 0.000000
vt 0.000000 0.000000
vt 0.000000 0.000000
vt 0.000000 0.000000
vt 0.000000 0.000000
vt 0.000000 0.000000
vt 0.000000 0.000000
vt 0.000000 0.000000
vt 0.000000 0.000000
vt 0.000000 0.000000
vt 0.000000 0.000000
vt 0.000000 0.000000
vt 0.000000 0.000000
vt 0.000000 0.000000
vt 0.000000 0.000000
vt 0.000000 0.000000
vt 0.000000 0.000000
vt 0.000000 0.000000
vt 0.000000 0.000000
vt 0.000000 0.000000
vt 0.000000 0.000000
vt 0.000000 0.000000
vt 0.000000 0.000000
vt 0.000000 0.000000
vt 0.000000 0.000000
vt 0.000000 0.000000
vt 0.000000 0.000000
vt 0.000000 0.000000
vt 0.000000 0.000000
vt 0.000000 0.000000
vt 0.000000 0.000000
vt 0.000000 0.000000
vt 0.000000 0.000000
vt 0.000000 0.000000
vt 0.000000 0.000000
vt 0.000000 0.000000
vt 0.000000 0.000000
vt 0.000000 0.000000
vt 0.000000 0.000000
vt 0.000000 0.000000
vt 0.000000 0.000000
vt 0.000000 0.000000
vt 0.000000 0.000000
vt 0.000000 0.000000
vt 0.000000 0.000000
vt 0.000000 0.000000
vt 0.000000 0.000000
vt 0.000000 0.000000
vt 0.000000 0.000000
vt 0.000000 0.000000
vt 0.000000 0.000000
vt 0.000000 0.000000
vt 0.000000 0.000000
vt 0.000000 0.000000
vt 0.000000 0.000000
vt 0.000000 0.000000
vt 0.000000 0.000000
vt 0.000000 0.000000
vt 0.000000 0.000000
vt 0.000000 0.000000
vt 0.000000 0.000000
vt 0.000000 0.000000
vt 0.000000 0.000000
vt 0.000000 0.000000
vt 0.000000 0.000000
vt 0.000000 0.000000
vt 0.000000 0.000000
vt 0.000000 0.000000
vt 0.000000 0.000000
vt 0.000000 0.000000
vt 0.000000 0.000000
vt 0.000000 0.000000
vt 0.000000 0.000000
vt 0.000000 0.000000
vt 0.000000 0.000000
vt 0.000000 0.000000
vt 0.000000 0.000000
vt 0.000000 0.000000
vt 0.000000 0.000000
vt 0.000000 0.000000
vt 0.000000 0.000000
vt 0.000000 0.000000
vt 0.000000 0.000000
vt 0.000000 0.000000
vt 0.000000 0.000000
vt 0.000000 0.000000
vt 0.000000 0.000000
vt 0.000000 0.000000
vt 0.000000 0.000000
vt 0.000000 0.000000
vt 0.000000 0.000000
vt 0.000000 0.000000
vt 0.000000 0.000000
vt 0.000000 0.000000
vt 0.000000 0.000000
vt 0.000000 0.000000
vt 0.000000 0.000000
vt 0.000000 0.000000
vt 0.000000 0.000000
vt 0.000000 0.000000
vt 0.000000 0.000000
vt 0.000000 0.000000
vt 0.000000 0.000000
vt 0.000000 0.000000
vt 0.000000 0.000000
vt 0.000000 0.000000
vt 0.000000 0.000000
vt 0.000000 0.000000
vt 0.000000 0.000000
vt 0.000000 0.000000
vt 0.000000 0.000000
vt 0.000000 0.000000
vt 0.000000 0.000000
vt 0.000000 0.000000
vt 0.000000 0.000000
vt 0.000000 0.000000
vt 0.000000 0.000000
vt 0.000000 0.000000
vt 0.000000 0.000000
vt 0.000000 0.000000
vt 0.000000 0.000000
vt 0.000000 0.000000
vt 0.000000 0.000000
vt 0.000000 0.000000
vt 0.000000 0.000000
vt 0.000000 0.000000
vt 0.000000 0.000000
vt 0.000000 0.000000
vt 0.000000 0.000000
vt 0.000000 0.000000
vt 0.000000 0.000000
vt 0.000000 0.000000
vt 0.000000 0.000000
vt 0.000000 0.000000
vt 0.000000 0.000000
vt 0.000000 0.000000
vt 0.000000 0.000000
vt 0.000000 0.000000
vt 0.000000 0.000000
vt 0.000000 0.000000
vt 0.000000 0.000000
vt 0.000000 0.000000
vt 0.000000 0.000000
vt 0.000000 0.000000
vt 0.000000 0.000000
vt 0.000000 0.000000
vt 0.000000 0.000000
vt 0.000000 0.000000
vt 0.000000 0.000000
vt 0.000000 0.000000
vt 0.000000 0.000000
vt 0.000000 0.000000
vt 0.000000 0.000000
vt 0.000000 0.000000
vt 0.000000 0.000000
vt 0.000000 0.000000
vt 0.000000 0.000000
vt 0.000000 0.000000
vt 0.000000 0.000000
vt 0.000000 0.000000
vt 0.000000 0.000000
vt 0.000000 0.000000
vt 0.000000 0.000000
vt 0.000000 0.000000
vt 0.000000 0.000000
vt 0.000000 0.000000
vt 0.000000 0.000000
vt 0.000000 0.000000
vt 0.000000 0.000000
vt 0.000000 0.000000
vt 0.000000 0.000000
vt 0.000000 0.000000
vt 0.000000 0.000000
vt 0.000000 0.000000
vt 0.000000 0.000000
vt 0.000000 0.000000
vt 0.000000 0.000000
vt 0.000000 0.000000
vt 0.000000 0.000000
vt 0.000000 0.000000
vt 0.000000 0.000000
vt 0.000000 0.000000
vt 0.000000 0.000000
vt 0.000000 0.000000
vt 0.000000 0.000000
vt 0.000000 0.000000
vt 0.000000 0.000000
vt 0.000000 0.000000
vt 0.000000 0.000000
vt 0.000000 0.000000
vt 0.000000 0.000000
vt 0.000000 0.000000
vt 0.000000 0.000000
vt 0.000000 0.000000
vt 0.000000 0.000000
vt 0.000000 0.000000
vt 0.000000 0.000000
vt 0.000000 0.000000
vt 0.000000 0.000000
vt 0.000000 0.000000
vt 0.000000 0.000000
vt 0.000000 0.000000
vt 0.000000 0.000000
vt 0.000000 0.000000
vt 0.000000 0.000000
vt 0.000000 0.000000
vt 0.000000 0.000000
vt 0.000000 0.000000
vt 0.000000 0.000000
vt 0.000000 0.000000
vt 0.000000 0.000000
vt 0.000000 0.000000
vt 0.000000 0.000000
vt 0.000000 0.000000
vt 0.000000 0.000000
vt 0.000000 0.000000
vt 0.000000 0.000000
vt 0.000000 0.000000
vt 0.000000 0.000000
vt 0.000000 0.000000
vt 0.000000 0.000000
vt 0.000000 0.000000
vt 0.000000 0.000000
vt 0.000000 0.000000
vt 0.000000 0.000000
vt 0.000000 0.000000
vt 0.000000 0.000000
vt 0.000000 0.000000
vt 0.000000 0.000000
vt 0.000000 0.000000
vt 0.000000 0.000000
vt 0.000000 0.000000
vt 0.000000 0.000000
vt 0.000000 0.000000
vt 0.000000 0.000000
vt 0.000000 0.000000
vt 0.000000 0.000000
vt 0.000000 0.000000
vt 0.000000 0.000000
vt 0.000000 0.000000
vt 0.000000 0.000000
vt 0.000000 0.000000
vt 0.000000 0.000000
vt 0.000000 0.000000
vt 0.000000 0.000000
vt 0.000000 0.000000
vt 0.000000 0.000000
vt 0.000000 0.000000
vt 0.000000 0.000000
vt 0.000000 0.000000
vt 0.000000 0.000000
vt 0.000000 0.000000
vt 0.000000 0.000000
vt 0.000000 0.000000
vt 0.000000 0.000000
vt 0.000000 0.000000
vt 0.000000 0.000000
vt 0.000000 0.000000
vt 0.000000 0.000000
vt 0.000000 0.000000
vt 0.000000 0.000000
vt 0.000000 0.000000
vt 0.000000 0.000000
vt 0.000000 0.000000
vt 0.000000 0.000000
vt 0.000000 0.000000
vt 0.000000 0.000000
vt 0.000000 0.000000
vt 0.000000 0.000000
vt 0.000000 0.000000
vt 0.000000 0.000000
vt 0.000000 0.000000
vt 0.000000 0.000000
vt 0.000000 0.000000
vt 0.000000 0.000000
vt 0.000000 0.000000
vt 0.000000 0.000000
vt 0.000000 0.000000
vt 0.000000 0.000000
vt 0.000000 0.000000
vt 0.000000 0.000000
vt 0.000000 0.000000
vt 0.000000 0.000000
vn -0.000000 -1.000000 0.000000
vn 0.507816 -0.861465 0.000001
vn 0.469161 -0.861466 0.194334
vn -0.458040 -0.868448 -0.189728
vn -0.495779 -0.868449 -0.000001
vn -0.495779 -0.868449 -0.000001
vn -0.458040 -0.868448 -0.189728
vn -0.495779 -0.868449 -0.000001
vn -0.458040 -0.868448 -0.189728
vn 0.054925 -0.998231 0.022751
vn 0.059451 -0.998231 0.000000
vn 0.059451 -0.998231 0.000000
vn 0.054925 -0.998231 0.022751
vn 0.059451 -0.998231 0.000000
vn 0.054925 -0.998231 0.022751
vn -0.000000 -1.000000 0.000000
vn 0.469161 -0.861466 0.194334
vn 0.359079 -0.861465 0.359081
vn -0.350568 -0.868448 -0.350570
vn -0.458040 -0.868448 -0.189728
vn -0.458040 -0.868448 -0.189728
vn -0.350568 -0.868448 -0.350570
vn -0.458040 -0.868448 -0.189728
vn -0.350568 -0.868448 -0.350570
vn 0.042038 -0.998231 0.042038
vn 0.054925 -0.998231 0.022751
vn 0.054925 -0.998231 0.022751
vn 0.042038 -0.998231 0.042038
vn 0.054925 -0.998231 0.022751
vn 0.042038 -0.998231 0.042038
vn -0.000000 -1.000000 0.000000
vn 0.359079 -0.861465 0.359081
vn 0.194332 -0.861465 0.469162
vn -0.189726 -0.868448 -0.458041
vn -0.350568 -0.868448 -0.350570
vn -0.350568 -0.868448 -0.350570
vn -0.189726 -0.868448 -0.458041
vn -0.350568 -0.868448 -0.350570
vn -0.189726 -0.868448 -0.458041
vn 0.022751 -0.998231 0.054925
vn 0.042038 -0.998231 0.042038
vn 0.042038 -0.998231 0.042038
vn 0.022751 -0.998231 0.054925
vn 0.042038 -0.998231 0.042038
vn 0.022751 -0.998231 0.054925
vn -0.000000 -1.000000 0.000000
vn 0.194332 -0.861465 0.469162
vn -0.000000 -0.861465 0.507816
vn 0.000001 -0.868449 -0.495779
vn -0.189726 -0.868448 -0.458041
vn -0.189726 -0.868448 -0.458041
vn 0.000001 -0.868449 -0.495779
vn -0.189726 -0.868448 -0.458041
vn 0.000001 -0.868449 -0.495779
vn -0.000000 -0.998231 0.059451
vn 0.022751 -0.998231 0.054925
vn 0.022751 -0.998231 0.054925
vn -0.000000 -0.998231 0.059451
vn 0.022751 -0.998231 0.054925
vn -0.000000 -0.998231 0.059451
vn -0.000000 -1.000000 0.000000
vn -0.000000 -0.861465 0.507816
vn -0.194333 -0.861466 0.469161
vn 0.059451 -0.998231 0.000000
vn 0.054925 -0.998231 -0.022751
vn 0.054925 -0.998231 -0.022751
vn 0.059451 -0.998231 0.000000
vn 0.054925 -0.998231 -0.022751
vn 0.059451 -0.998231 0.000000
vn -0.495779 -0.868449 -0.000001
vn -0.458041 -0.868448 0.189726
vn -0.458041 -0.868448 0.189726
vn -0.495779 -0.868449 -0.000001
vn -0.458041 -0.868448 0.189726
vn -0.495779 -0.868449 -0.000001
vn -0.000000 -1.000000 0.000000
vn 0.469162 -0.861465 -0.194332
vn 0.507816 -0.861465 0.000001
vn 0.189728 -0.868448 -0.458040
vn 0.000001 -0.868449 -0.495779
vn 0.000001 -0.868449 -0.495779
vn 0.189728 -0.868448 -0.458040
vn 0.000001 -0.868449 -0.495779
vn 0.189728 -0.868448 -0.458040
vn -0.022751 -0.998231 0.054925
vn -0.000000 -0.998231 0.059451
vn -0.000000 -0.998231 0.059451
vn -0.022751 -0.998231 0.054925
vn -0.000000 -0.998231 0.059451
vn -0.022751 -0.998231 0.054925
vn -0.000000 -1.000000 0.000000
vn -0.194333 -0.861466 0.469161
vn -0.359081 -0.861465 0.359079
vn 0.350570 -0.868448 -0.350568
vn 0.189728 -0.868448 -0.458040
vn 0.189728 -0.868448 -0.458040
vn 0.350570 -0.868448 -0.350568
vn 0.189728 -0.868448 -0.458040
vn 0.350570 -0.868448 -0.350568
vn -0.042038 -0.998231 0.042038
vn -0.022751 -0.998231 0.054925
vn -0.022751 -0.998231 0.054925
vn -0.042038 -0.998231 0.042038
vn -0.022751 -0.998231 0.054925
vn -0.042038 -0.998231 0.042038
vn -0.000000 -1.000000 0.000000
vn -0.359081 -0.861465 0.359079
vn -0.469162 -0.861465 0.194332
vn 0.458041 -0.868448 -0.189726
vn 0.350570 -0.868448 -0.350568
vn 0.350570 -0.868448 -0.350568
vn 0.458041 -0.868448 -0.189726
vn 0.350570 -0.868448 -0.350568
vn 0.458041 -0.868448 -0.189726
vn -0.054925 -0.998231 0.022751
vn -0.042038 -0.998231 0.042038
vn -0.042038 -0.998231 0.042038
vn -0.054925 -0.998231 0.022751
vn -0.042038 -0.998231 0.042038
vn -0.054925 -0.998231 0.022751
vn -0.000000 -1.000000 0.000000
vn -0.469162 -0.861465 0.194332
vn -0.507816 -0.861465 -0.000000
vn 0.495779 -0.868449 0.000001
vn 0.458041 -0.868448 -0.189726
vn 0.458041 -0.868448 -0.189726
vn 0.495779 -0.868449 0.000001
vn 0.458041 -0.868448 -0.189726
vn 0.495779 -0.868449 0.000001
vn -0.059451 -0.998231 -0.000000
vn -0.054925 -0.998231 0.022751
vn -0.054925 -0.998231 0.022751
vn -0.059451 -0.998231 -0.000000
vn -0.054925 -0.998231 0.022751
vn -0.059451 -0.998231 -0.000000
vn -0.000000 -1.000000 0.000000
vn -0.507816 -0.861465 -0.000000
vn -0.469161 -0.861466 -0.194334
vn 0.458040 -0.868448 0.189728
vn 0.495779 -0.868449 0.000001
vn 0.495779 -0.868449 0.000001
vn 0.458040 -0.868448 0.189728
vn 0.495779 -0.868449 0.000001
vn 0.458040 -0.868448 0.189728
vn 0.054925 -0.998231 -0.022751
vn 0.042038 -0.998231 -0.042038
vn 0.042038 -0.998231 -0.042038
vn 0.054925 -0.998231 -0.022751
vn 0.042038 -0.998231 -0.042038
vn 0.054925 -0.998231 -0.022751
vn -0.458041 -0.868448 0.189726
vn -0.350570 -0.868448 0.350568
vn -0.350570 -0.868448 0.350568
vn -0.458041 -0.868448 0.189726
vn -0.350570 -0.868448 0.350568
vn -0.458041 -0.868448 0.189726
vn -0.000000 -1.000000 0.000000
vn 0.359081 -0.861465 -0.359079
vn 0.469162 -0.861465 -0.194332
vn -0.054925 -0.998231 -0.022751
vn -0.059451 -0.998231 -0.000000
vn -0.059451 -0.998231 -0.000000
vn -0.054925 -0.998231 -0.022751
vn -0.059451 -0.998231 -0.000000
vn -0.054925 -0.998231 -0.022751
vn -0.000000 -1.000000 0.000000
vn -0.469161 -0.861466 -0.194334
vn -0.359079 -0.861465 -0.359081
vn 0.350568 -0.868448 0.350570
vn 0.458040 -0.868448 0.189728
vn 0.458040 -0.868448 0.189728
vn 0.350568 -0.868448 0.350570
vn 0.458040 -0.868448 0.189728
vn 0.350568 -0.868448 0.350570
vn -0.042038 -0.998231 -0.042038
vn -0.054925 -0.998231 -0.022751
vn -0.054925 -0.998231 -0.022751
vn -0.042038 -0.998231 -0.042038
vn -0.054925 -0.998231 -0.022751
vn -0.042038 -0.998231 -0.042038
vn -0.000000 -1.000000 0.000000
vn -0.359079 -0.861465 -0.359081
vn -0.194332 -0.861465 -0.469162
vn 0.189726 -0.868448 0.458041
vn 0.350568 -0.868448 0.350570
vn 0.350568 -0.868448 0.350570
vn 0.189726 -0.868448 0.458041
vn 0.350568 -0.868448 0.350570
vn 0.189726 -0.868448 0.458041
vn -0.022751 -0.998231 -0.054925
vn -0.042038 -0.998231 -0.042038
vn -0.042038 -0.998231 -0.042038
vn -0.022751 -0.998231 -0.054925
vn -0.042038 -0.998231 -0.042038
vn -0.022751 -0.998231 -0.054925
vn -0.000000 -1.000000 0.000000
vn -0.194332 -0.861465 -0.469162
vn 0.000000 -0.861465 -0.507816
vn -0.000001 -0.868449 0.495779
vn 0.189726 -0.868448 0.458041
vn 0.189726 -0.868448 0.458041
vn -0.000001 -0.868449 0.495779
vn 0.189726 -0.868448 0.458041
vn -0.000001 -0.868449 0.495779
vn 0.000000 -0.998231 -0.059451
vn -0.022751 -0.998231 -0.054925
vn -0.022751 -0.998231 -0.054925
vn 0.000000 -0.998231 -0.059451
vn -0.022751 -0.998231 -0.054925
vn 0.000000 -0.998231 -0.059451
vn -0.000000 -1.000000 0.000000
vn 0.000000 -0.861465 -0.507816
vn 0.194333 -0.861466 -0.469161
vn -0.189728 -0.868448 0.458040
vn -0.000001 -0.868449 0.495779
vn -0.000001 -0.868449 0.495779
vn -0.189728 -0.868448 0.458040
vn -0.000001 -0.868449 0.495779
vn -0.189728 -0.868448 0.458040
vn 0.022751 -0.998231 -0.054925
vn 0.000000 -0.998231 -0.059451
vn 0.000000 -0.998231 -0.059451
vn 0.022751 -0.998231 -0.054925
vn 0.000000 -0.998231 -0.059451
vn 0.022751 -0.998231 -0.054925
vn 0.042038 -0.998231 -0.042038
vn 0.022751 -0.998231 -0.054925
vn 0.022751 -0.998231 -0.054925
vn 0.042038 -0.998231 -0.042038
vn 0.022751 -0.998231 -0.054925
vn 0.042038 -0.998231 -0.042038
vn -0.350570 -0.868448 0.350568
vn -0.189728 -0.868448 0.458040
vn -0.189728 -0.868448 0.458040
vn -0.350570 -0.868448 0.350568
vn -0.189728 -0.868448 0.458040
vn -0.350570 -0.868448 0.350568
vn -0.000000 -1.000000 0.000000
vn 0.194333 -0.861466 -0.469161
vn 0.359081 -0.861465 -0.359079
vn 0.316908 -0.560552 -0.765082
vn 0.585569 -0.560553 -0.585568
vn 0.521460 -0.675396 -0.521459
vn 0.316908 -0.560552 -0.765082
vn 0.521460 -0.675396 -0.521459
vn 0.282213 -0.675396 -0.681319
vn 0.000000 -0.560553 -0.828119
vn 0.316908 -0.560552 -0.765082
vn 0.282213 -0.675396 -0.681319
vn 0.000000 -0.560553 -0.828119
vn 0.282213 -0.675396 -0.681319
vn 0.000001 -0.675396 -0.737455
vn 0.585569 -0.560553 -0.585568
vn 0.765082 -0.560553 -0.316906
vn 0.681320 -0.675396 -0.282211
vn 0.585569 -0.560553 -0.585568
vn 0.681320 -0.675396 -0.282211
vn 0.521460 -0.675396 -0.521459
vn -0.316907 -0.560553 -0.765082
vn 0.000000 -0.560553 -0.828119
vn 0.000001 -0.675396 -0.737455
vn -0.316907 -0.560553 -0.765082
vn 0.000001 -0.675396 -0.737455
vn -0.282211 -0.675396 -0.681320
vn -0.765082 -0.560553 0.316907
vn -0.828119 -0.560553 -0.000000
vn -0.737455 -0.675396 -0.000001
vn -0.765082 -0.560553 0.316907
vn -0.737455 -0.675396 -0.000001
vn -0.681320 -0.675396 0.282211
vn -0.585568 -0.560553 -0.585569
vn -0.316907 -0.560553 -0.765082
vn -0.282211 -0.675396 -0.681320
vn -0.585568 -0.560553 -0.585569
vn -0.282211 -0.675396 -0.681320
vn -0.521459 -0.675396 -0.521460
vn -0.585569 -0.560552 0.585568
vn -0.765082 -0.560553 0.316907
vn -0.681320 -0.675396 0.282211
vn -0.585569 -0.560552 0.585568
vn -0.681320 -0.675396 0.282211
vn -0.521460 -0.675396 0.521459
vn -0.765082 -0.560552 -0.316908
vn -0.585568 -0.560553 -0.585569
vn -0.521459 -0.675396 -0.521460
vn -0.765082 -0.560552 -0.316908
vn -0.521459 -0.675396 -0.521460
vn -0.681319 -0.675396 -0.282212
vn -0.316908 -0.560552 0.765082
vn -0.585569 -0.560552 0.585568
vn -0.521460 -0.675396 0.521459
vn -0.316908 -0.560552 0.765082
vn -0.521460 -0.675396 0.521459
vn -0.282212 -0.675396 0.681320
vn -0.828119 -0.560553 -0.000000
vn -0.765082 -0.560552 -0.316908
vn -0.681319 -0.675396 -0.282212
vn -0.828119 -0.560553 -0.000000
vn -0.681319 -0.675396 -0.282212
vn -0.737455 -0.675396 -0.000001
vn -0.000000 -0.560553 0.828119
vn -0.316908 -0.560552 0.765082
vn -0.282212 -0.675396 0.681320
vn -0.000000 -0.560553 0.828119
vn -0.282212 -0.675396 0.681320
vn -0.000000 -0.675396 0.737455
vn 0.765082 -0.560553 -0.316906
vn 0.828119 -0.560553 0.000001
vn 0.737455 -0.675396 0.000001
vn 0.765082 -0.560553 -0.316906
vn 0.737455 -0.675396 0.000001
vn 0.681320 -0.675396 -0.282211
vn 0.316907 -0.560553 0.765082
vn -0.000000 -0.560553 0.828119
vn -0.000000 -0.675396 0.737455
vn 0.316907 -0.560553 0.765082
vn -0.000000 -0.675396 0.737455
vn 0.282211 -0.675396 0.681320
vn 0.585568 -0.560552 0.585569
vn 0.316907 -0.560553 0.765082
vn 0.282211 -0.675396 0.681320
vn 0.585568 -0.560552 0.585569
vn 0.282211 -0.675396 0.681320
vn 0.521459 -0.675396 0.521460
vn 0.765082 -0.560552 0.316908
vn 0.585568 -0.560552 0.585569
vn 0.521459 -0.675396 0.521460
vn 0.765082 -0.560552 0.316908
vn 0.521459 -0.675396 0.521460
vn 0.681319 -0.675396 0.282213
vn 0.828119 -0.560553 0.000001
vn 0.765082 -0.560552 0.316908
vn 0.681319 -0.675396 0.282213
vn 0.828119 -0.560553 0.000001
vn 0.681319 -0.675396 0.282213
vn 0.737455 -0.675396 0.000001
vn -0.000000 -0.675396 0.737455
vn -0.282212 -0.675396 0.681320
vn -0.241718 -0.775265 0.583556
vn -0.000000 -0.675396 0.737455
vn -0.241718 -0.775265 0.583556
vn -0.000001 -0.775264 0.631637
vn 0.737455 -0.675396 0.000001
vn 0.681319 -0.675396 0.282213
vn 0.583556 -0.775265 0.241718
vn 0.737455 -0.675396 0.000001
vn 0.583556 -0.775265 0.241718
vn 0.631637 -0.775264 0.000001
vn 0.681319 -0.675396 0.282213
vn 0.521459 -0.675396 0.521460
vn 0.446634 -0.775264 0.446636
vn 0.681319 -0.675396 0.282213
vn 0.446634 -0.775264 0.446636
vn 0.583556 -0.775265 0.241718
vn -0.282212 -0.675396 0.681320
vn -0.521460 -0.675396 0.521459
vn -0.446636 -0.775264 0.446634
vn -0.282212 -0.675396 0.681320
vn -0.446636 -0.775264 0.446634
vn -0.241718 -0.775265 0.583556
vn 0.521459 -0.675396 0.521460
vn 0.282211 -0.675396 0.681320
vn 0.241716 -0.775264 0.583557
vn 0.521459 -0.675396 0.521460
vn 0.241716 -0.775264 0.583557
vn 0.446634 -0.775264 0.446636
vn -0.521460 -0.675396 0.521459
vn -0.681320 -0.675396 0.282211
vn -0.583557 -0.775264 0.241716
vn -0.521460 -0.675396 0.521459
vn -0.583557 -0.775264 0.241716
vn -0.446636 -0.775264 0.446634
vn 0.282211 -0.675396 0.681320
vn -0.000000 -0.675396 0.737455
vn -0.000001 -0.775264 0.631637
vn 0.282211 -0.675396 0.681320
vn -0.000001 -0.775264 0.631637
vn 0.241716 -0.775264 0.583557
vn -0.681320 -0.675396 0.282211
vn -0.737455 -0.675396 -0.000001
vn -0.631637 -0.775264 -0.000001
vn -0.681320 -0.675396 0.282211
vn -0.631637 -0.775264 -0.000001
vn -0.583557 -0.775264 0.241716
vn 0.681320 -0.675396 -0.282211
vn 0.737455 -0.675396 0.000001
vn 0.631637 -0.775264 0.000001
vn 0.681320 -0.675396 -0.282211
vn 0.631637 -0.775264 0.000001
vn 0.583557 -0.775264 -0.241716
vn -0.737455 -0.675396 -0.000001
vn -0.681319 -0.675396 -0.282212
vn -0.583556 -0.775265 -0.241718
vn -0.737455 -0.675396 -0.000001
vn -0.583556 -0.775265 -0.241718
vn -0.631637 -0.775264 -0.000001
vn 0.521460 -0.675396 -0.521459
vn 0.681320 -0.675396 -0.282211
vn 0.583557 -0.775264 -0.241716
vn 0.521460 -0.675396 -0.521459
vn 0.583557 -0.775264 -0.241716
vn 0.446636 -0.775264 -0.446634
vn -0.681319 -0.675396 -0.282212
vn -0.521459 -0.675396 -0.521460
vn -0.446634 -0.775264 -0.446636
vn -0.681319 -0.675396 -0.282212
vn -0.446634 -0.775264 -0.446636
vn -0.583556 -0.775265 -0.241718
vn -0.521459 -0.675396 -0.521460
vn -0.282211 -0.675396 -0.681320
vn -0.241716 -0.775264 -0.583557
vn -0.521459 -0.675396 -0.521460
vn -0.241716 -0.775264 -0.583557
vn -0.446634 -0.775264 -0.446636
vn -0.282211 -0.675396 -0.681320
vn 0.000001 -0.675396 -0.737455
vn 0.000001 -0.775264 -0.631637
vn -0.282211 -0.675396 -0.681320
vn 0.000001 -0.775264 -0.631637
vn -0.241716 -0.775264 -0.583557
vn 0.000001 -0.675396 -0.737455
vn 0.282213 -0.675396 -0.681319
vn 0.241718 -0.775265 -0.583556
vn 0.000001 -0.675396 -0.737455
vn 0.241718 -0.775265 -0.583556
vn 0.000001 -0.775264 -0.631637
vn 0.282213 -0.675396 -0.681319
vn 0.521460 -0.675396 -0.521459
vn 0.446636 -0.775264 -0.446634
vn 0.282213 -0.675396 -0.681319
vn 0.446636 -0.775264 -0.446634
vn 0.241718 -0.775265 -0.583556
f 1/1/1 4/2/2 49/3/3
f 49/4/4 4/5/5 3/6/6
f 49/7/7 3/8/8 48/9/9
f 48/10/10 3/11/11 68/12/12
f 48/13/13 68/14/14 69/15/15
f 1/16/16 49/17/17 46/18/18
f 46/19/19 49/20/20 48/21/21
f 46/22/22 48/23/23 45/24/24
f 45/25/25 48/26/26 69/27/27
f 45/28/28 69/29/29 70/30/30
f 1/31/31 46/32/32 43/33/33
f 43/34/34 46/35/35 45/36/36
f 43/37/37 45/38/38 42/39/39
f 42/40/40 45/41/41 70/42/42
f 42/43/43 70/44/44 72/45/45
f 1/46/46 43/47/47 40/48/48
f 40/49/49 43/50/50 42/51/51
f 40/52/52 42/53/53 39/54/54
f 39/55/55 42/56/56 72/57/57
f 39/58/58 72/59/59 66/60/60
f 1/61/61 40/62/62 37/63/63
f 3/64/64 6/65/65 75/66/66
f 3/67/67 75/68/68 68/69/69
f 4/70/70 7/71/71 6/72/72
f 4/73/73 6/74/74 3/75/75
f 1/76/76 7/77/77 4/78/78
f 37/79/79 40/80/80 39/81/81
f 37/82/82 39/83/83 36/84/84
f 36/85/85 39/86/86 66/87/87
f 36/88/88 66/89/89 67/90/90
f 1/91/91 37/92/92 34/93/93
f 34/94/94 37/95/95 36/96/96
f 34/97/97 36/98/98 33/99/99
f 33/100/100 36/101/101 67/102/102
f 33/103/103 67/104/104 71/105/105
f 1/106/106 34/107/107 31/108/108
f 31/109/109 34/110/110 33/111/111
f 31/112/112 33/113/113 30/114/114
f 30/115/115 33/116/116 71/117/117
f 30/118/118 71/119/119 73/120/120
f 1/121/121 31/122/122 28/123/123
f 28/124/124 31/125/125 30/126/126
f 28/127/127 30/128/128 27/129/129
f 27/130/130 30/131/131 73/132/132
f 27/133/133 73/134/134 74/135/135
f 1/136/136 28/137/137 25/138/138
f 25/139/139 28/140/140 27/141/141
f 25/142/142 27/143/143 24/144/144
f 6/145/145 9/146/146 77/147/147
f 6/148/148 77/149/149 75/150/150
f 7/151/151 10/152/152 9/153/153
f 7/154/154 9/155/155 6/156/156
f 1/157/157 10/158/158 7/159/159
f 24/160/160 27/161/161 74/162/162
f 24/163/163 74/164/164 76/165/165
f 1/166/166 25/167/167 22/168/168
f 22/169/169 25/170/170 24/171/171
f 22/172/172 24/173/173 21/174/174
f 21/175/175 24/176/176 76/177/177
f 21/178/178 76/179/179 78/180/180
f 1/181/181 22/182/182 19/183/183
f 19/184/184 22/185/185 21/186/186
f 19/187/187 21/188/188 18/189/189
f 18/190/190 21/191/191 78/192/192
f 18/193/193 78/194/194 79/195/195
f 1/196/196 19/197/197 16/198/198
f 16/199/199 19/200/200 18/201/201
f 16/202/202 18/203/203 15/204/204
f 15/205/205 18/206/206 79/207/207
f 15/208/208 79/209/209 80/210/210
f 1/211/211 16/212/212 13/213/213
f 13/214/214 16/215/215 15/216/216
f 13/217/217 15/218/218 12/219/219
f 12/220/220 15/221/221 80/222/222
f 12/223/223 80/224/224 81/225/225
f 9/226/226 12/227/227 81/228/228
f 9/229/229 81/230/230 77/231/231
f 10/232/232 13/233/233 12/234/234
f 10/235/235 12/236/236 9/237/237
f 1/238/238 13/239/239 10/240/240
f 11/241/241 8/242/242 50/243/243
f 11/244/244 50/245/245 51/246/246
f 14/247/247 11/248/248 51/249/249
f 14/250/250 51/251/251 52/252/252
f 8/253/253 5/254/254 53/255/255
f 8/256/256 53/257/257 50/258/258
f 17/259/259 14/260/260 52/261/261
f 17/262/262 52/263/263 54/264/264
f 29/265/265 26/266/266 55/267/267
f 29/268/268 55/269/269 56/270/270
f 20/271/271 17/272/272 54/273/273
f 20/274/274 54/275/275 57/276/276
f 32/277/277 29/278/278 56/279/279
f 32/280/280 56/281/281 58/282/282
f 23/283/283 20/284/284 57/285/285
f 23/286/286 57/287/287 59/288/288
f 35/289/289 32/290/290 58/291/291
f 35/292/292 58/293/293 60/294/294
f 26/295/295 23/296/296 59/297/297
f 26/298/298 59/299/299 55/300/300
f 38/301/301 35/302/302 60/303/303
f 38/304/304 60/305/305 61/306/306
f 5/307/307 2/308/308 62/309/309
f 5/310/310 62/311/311 53/312/312
f 41/313/313 38/314/314 61/315/315
f 41/316/316 61/317/317 63/318/318
f 44/319/319 41/320/320 63/321/321
f 44/322/322 63/323/323 64/324/324
f 47/325/325 44/326/326 64/327/327
f 47/328/328 64/329/329 65/330/330
f 2/331/331 47/332/332 65/333/333
f 2/334/334 65/335/335 62/336/336
f 61/337/337 60/338/338 67/339/339
f 61/340/340 67/341/341 66/342/342
f 62/343/343 65/344/344 69/345/345
f 62/346/346 69/347/347 68/348/348
f 65/349/349 64/350/350 70/351/351
f 65/352/352 70/353/353 69/354/354
f 60/355/355 58/356/356 71/357/357
f 60/358/358 71/359/359 67/360/360
f 64/361/361 63/362/362 72/363/363
f 64/364/364 72/365/365 70/366/366
f 58/367/367 56/368/368 73/369/369
f 58/370/370 73/371/371 71/372/372
f 63/373/373 61/374/374 66/375/375
f 63/376/376 66/377/377 72/378/378
f 56/379/379 55/380/380 74/381/381
f 56/382/382 74/383/383 73/384/384
f 53/385/385 62/386/386 68/387/387
f 53/388/388 68/389/389 75/390/390
f 55/391/391 59/392/392 76/393/393
f 55/394/394 76/395/395 74/396/396
f 50/397/397 53/398/398 75/399/399
f 50/400/400 75/401/401 77/402/402
f 59/403/403 57/404/404 78/405/405
f 59/406/406 78/407/407 76/408/408
f 57/409/409 54/410/410 79/411/411
f 57/412/412 79/413/413 78/414/414
f 54/415/415 52/416/416 80/417/417
f 54/418/418 80/419/419 79/420/420
f 52/421/421 51/422/422 81/423/423
f 52/424/424 81/425/425 80/426/426
f 51/427/427 50/428/428 77/429/429
f 51/430/430 77/431/431 81/432/432
