v 1.000000 -2.000000 -0.500000
v -1.000000 -2.000000 -0.500000
v -1.000000 2.000000 -0.500000
v 1.000000 2.000000 -0.500000
v -2.000000 1.000000 -0.500000
v -2.000000 -1.000000 -0.500000
v 2.000000 -1.000000 -0.500000
v 2.000000 1.000000 -0.500000
v 1.000000 1.000000 -2.000000
v 1.000000 -1.000000 -2.000000
v -1.000000 1.000000 -2.000000
v -1.000000 -1.000000 -2.000000
vt 0.312500 0.437500
vt 0.375000 0.375000
vt 0.406250 0.468750
vt 0.687500 0.562500
vt 0.625000 0.625000
vt 0.562500 0.437500
vt 0.406250 0.468750
vt 0.375000 0.375000
vt 0.500000 0.250000
vt 0.406250 0.468750
vt 0.500000 0.250000
vt 0.531250 0.343750
vt 0.437500 0.562500
vt 0.500000 0.750000
vt 0.437500 0.687500
vt 0.562500 0.437500
vt 0.625000 0.625000
vt 0.500000 0.750000
vt 0.562500 0.437500
vt 0.500000 0.750000
vt 0.437500 0.562500
vt 0.531250 0.343750
vt 0.500000 0.250000
vt 0.625000 0.375000
vt 0.625000 0.375000
vt 0.687500 0.562500
vt 0.562500 0.437500
vt 0.625000 0.375000
vt 0.562500 0.437500
vt 0.531250 0.343750
vt 0.531250 0.343750
vt 0.562500 0.437500
vt 0.437500 0.562500
vt 0.531250 0.343750
vt 0.437500 0.562500
vt 0.406250 0.468750
vt 0.406250 0.468750
vt 0.437500 0.562500
vt 0.437500 0.687500
vt 0.406250 0.468750
vt 0.437500 0.687500
vt 0.312500 0.437500
vn 0.782461 0.340069 0.521640
vn 0.340069 0.782461 0.521640
vn 0.448603 0.448603 0.772988
vn -0.782461 -0.340069 0.521640
vn -0.340069 -0.782461 0.521640
vn -0.448603 -0.448603 0.772988
vn 0.448603 0.448603 0.772988
vn 0.340069 0.782461 0.521640
vn -0.340069 0.782461 0.521640
vn 0.448603 0.448603 0.772988
vn -0.340069 0.782461 0.521640
vn -0.448603 0.448603 0.772988
vn 0.448603 -0.448603 0.772988
vn 0.340069 -0.782461 0.521640
vn 0.782461 -0.340069 0.521640
vn -0.448603 -0.448603 0.772988
vn -0.340069 -0.782461 0.521640
vn 0.340069 -0.782461 0.521640
vn -0.448603 -0.448603 0.772988
vn 0.340069 -0.782461 0.521640
vn 0.448603 -0.448603 0.772988
vn -0.448603 0.448603 0.772988
vn -0.340069 0.782461 0.521640
vn -0.782461 0.340069 0.521640
vn -0.782461 0.340069 0.521640
vn -0.782461 -0.340069 0.521640
vn -0.448603 -0.448603 0.772988
vn -0.782461 0.340069 0.521640
vn -0.448603 -0.448603 0.772988
vn -0.448603 0.448603 0.772988
vn -0.448603 0.448603 0.772988
vn -0.448603 -0.448603 0.772988
vn 0.448603 -0.448603 0.772988
vn -0.448603 0.448603 0.772988
vn 0.448603 -0.448603 0.772988
vn 0.448603 0.448603 0.772988
vn 0.448603 0.448603 0.772988
vn 0.448603 -0.448603 0.772988
vn 0.782461 -0.340069 0.521640
vn 0.448603 0.448603 0.772988
vn 0.782461 -0.340069 0.521640
vn 0.782461 0.340069 0.521640
f 6/1/1 2/2/2 12/3/3
f 8/4/4 4/5/5 9/6/6
f 12/7/7 2/8/8 1/9/9
f 12/10/10 1/11/11 10/12/12
f 11/13/13 3/14/14 5/15/15
f 9/16/16 4/17/17 3/18/18
f 9/19/19 3/20/20 11/21/21
f 10/22/22 1/23/23 7/24/24
f 7/25/25 8/26/26 9/27/27
f 7/28/28 9/29/29 10/30/30
f 10/31/31 9/32/32 11/33/33
f 10/34/34 11/35/35 12/36/36
f 12/37/37 11/38/38 5/39/39
f 12/40/40 5/41/41 6/42/42
