v 0.448030 -6.563242 0.000003
v 0.672045 -6.563242 0.000003
v 0.448029 -5.369927 0.000003
v 0.896058 -5.369925 -1.470588
v 0.448030 -4.176609 0.000003
v 0.896058 -4.176610 -1.470588
v 0.448030 -2.983294 0.000003
v 0.896059 -2.983294 -1.470588
v -0.448028 -1.789977 0.000003
v 0.448030 -1.789977 0.000003
v 0.896059 -1.193319 -1.470588
v 2.240146 -1.193319 -1.470588
v 3.136205 -1.193319 -1.470588
v 3.808247 -1.193318 -1.470588
v -0.448028 -0.596661 0.000003
v 0.448030 -0.596661 0.000003
v 1.344089 -0.596661 0.000003
v 2.240147 -0.596661 0.000003
v 3.136205 -0.596661 0.000003
v 4.032263 -0.596660 0.000003
v 0.896059 -6.264914 -1.470588
v 4.032260 -0.894988 0.000003
v 1.344088 0.596656 0.000003
v 0.448030 0.596656 0.000003
v 0.672045 -0.894990 0.000003
v 2.240147 -0.894991 0.000003
v 3.136205 -0.894990 0.000003
v 0.672045 -2.983293 0.000003
v 0.672045 -4.176610 0.000003
v 0.672044 -5.369927 0.000003
v 3.136205 -1.193319 -1.470588
v 3.808247 -1.193318 -1.470588
v 4.032260 -0.894988 0.000003
v 4.032263 -0.596660 0.000003
v 3.136205 -0.596661 0.000003
v 0.448029 -5.369927 0.000003
v 0.448030 -6.563242 0.000003
v 0.672045 -6.563242 0.000003
v 0.448030 -2.983294 0.000003
v 0.448030 -4.176609 0.000003
v 0.896058 -5.369925 -1.470588
v 0.896058 -4.176610 -1.470588
v 2.240147 -0.596661 0.000003
v 0.896059 -1.193319 -1.470588
v 2.240146 -1.193319 -1.470588
v 0.448030 -1.789977 0.000003
v 0.448030 -0.596661 0.000003
v 0.896059 -2.983294 -1.470588
v 1.344089 -0.596661 0.000003
v 0.896059 -6.264914 -1.470588
vt 0.000000 0.000000
vt 0.000000 0.000000
vt 0.000000 0.000000
vt 0.000000 0.000000
vt 0.000000 0.000000
vt 0.000000 0.000000
vt 0.000000 0.000000
vt 0.000000 0.000000
vt 0.000000 0.000000
vt 0.000000 0.000000
vt 0.000000 0.000000
vt 0.000000 0.000000
vt 0.000000 0.000000
vt 0.000000 0.000000
vt 0.000000 0.000000
vt 0.000000 0.000000
vt 0.000000 0.000000
vt 0.000000 0.000000
vt 0.000000 0.000000
vt 0.000000 0.000000
vt 0.000000 0.000000
vt 0.000000 0.000000
vt 0.000000 0.000000
vt 0.000000 0.000000
vt 0.000000 0.000000
vt 0.000000 0.000000
vt 0.000000 0.000000
vt 0.000000 0.000000
vt 0.000000 0.000000
vt 0.000000 0.000000
vt 0.000000 0.000000
vt 0.000000 0.000000
vt 0.000000 0.000000
vt 0.000000 0.000000
vt 0.000000 0.000000
vt 0.000000 0.000000
vt 0.000000 0.000000
vt 0.000000 0.000000
vt 0.000000 0.000000
vt 0.000000 0.000000
vt 0.000000 0.000000
vt 0.000000 0.000000
vt 0.000000 0.000000
vt 0.000000 0.000000
vt 0.000000 0.000000
vt 0.000000 0.000000
vt 0.000000 0.000000
vt 0.000000 0.000000
vt 0.000000 0.000000
vt 0.000000 0.000000
vt 0.000000 0.000000
vt 0.000000 0.000000
vt 0.000000 0.000000
vt 0.000000 0.000000
vt 0.000000 0.000000
vt 0.000000 0.000000
vt 0.000000 0.000000
vt 0.000000 0.000000
vt 0.000000 0.000000
vt 0.000000 0.000000
vt 0.000000 0.000000
vt 0.000000 0.000000
vt 0.000000 0.000000
vt 0.000000 0.000000
vt 0.000000 0.000000
vt 0.000000 0.000000
vt 0.000000 0.000000
vt 0.000000 0.000000
vt 0.000000 0.000000
vt 0.000000 0.000000
vt 0.000000 0.000000
vt 0.000000 0.000000
vt 0.000000 0.000000
vt 0.000000 0.000000
vt 0.000000 0.000000
vt 0.000000 0.000000
vt 0.000000 0.000000
vt 0.000000 0.000000
vt 0.000000 0.000000
vt 0.000000 0.000000
vt 0.000000 0.000000
vt 0.000000 0.000000
vt 0.000000 0.000000
vt 0.000000 0.000000
vt 0.000000 0.000000
vt 0.000000 0.000000
vt 0.000000 0.000000
vt 0.000000 0.000000
vt 0.000000 0.000000
vt 0.000000 0.000000
vt 0.000000 0.000000
vt 0.000000 0.000000
vt 0.000000 0.000000
vt 0.000000 0.000000
vt 0.000000 0.000000
vt 0.000000 0.000000
vt 0.000000 0.000000
vt 0.000000 0.000000
vt 0.000000 0.000000
vt 0.000000 0.000000
vt 0.000000 0.000000
vt 0.000000 0.000000
vt 0.000000 0.000000
vt 0.000000 0.000000
vt 0.000000 0.000000
vt 0.000000 0.000000
vt 0.000000 0.000000
vt 0.000000 0.000000
vt 0.000000 0.000000
vt 0.000000 0.000000
vt 0.000000 0.000000
vt 0.000000 0.000000
vt 0.000000 0.000000
vt 0.000000 0.000000
vt 0.000000 0.000000
vt 0.000000 0.000000
vt 0.000000 0.000000
vt 0.000000 0.000000
vt 0.000000 0.000000
vt 0.000000 0.000000
vt 0.000000 0.000000
vt 0.000000 0.000000
vt 0.000000 0.000000
vt 0.000000 0.000000
vt 0.000000 0.000000
vt 0.000000 0.000000
vt 0.000000 0.000000
vt 0.000000 0.000000
vt 0.000000 0.000000
vt 0.000000 0.000000
vt 0.000000 0.000000
vt 0.000000 0.000000
vt 0.000000 0.000000
vt 0.000000 0.000000
vt 0.000000 0.000000
vt 0.000000 0.000000
vt 0.000000 0.000000
vt 0.000000 0.000000
vt 0.000000 0.000000
vt 0.000000 0.000000
vt 0.000000 0.000000
vt 0.000000 0.000000
vt 0.000000 0.000000
vt 0.000000 0.000000
vt 0.000000 0.000000
vt 0.000000 0.000000
vt 0.000000 0.000000
vt 0.000000 0.000000
vt 0.000000 0.000000
vt 0.000000 0.000000
vt 0.000000 0.000000
vt 0.000000 0.000000
vt 0.000000 0.000000
vt 0.000000 0.000000
vt 0.000000 0.000000
vt 0.000000 0.000000
vt 0.000000 0.000000
vt 0.000000 0.000000
vt 0.000000 0.000000
vt 0.000000 0.000000
vt 0.000000 0.000000
vt 0.000000 0.000000
vt 0.000000 0.000000
vt 0.000000 0.000000
vt 0.000000 0.000000
vt 0.000000 0.000000
vt 0.000000 0.000000
vt 0.000000 0.000000
vt 0.000000 0.000000
vt 0.000000 0.000000
vt 0.000000 0.000000
vt 0.000000 0.000000
vt 0.000000 0.000000
vt 0.000000 0.000000
vt 0.000000 0.000000
vt 0.000000 0.000000
vt 0.000000 0.000000
vt 0.000000 0.000000
vt 0.000000 0.000000
vt 0.000000 0.000000
vt 0.000000 0.000000
vt 0.000000 0.000000
vt 0.000000 0.000000
vt 0.000000 0.000000
vt 0.000000 0.000000
vt 0.000000 0.000000
vt 0.000000 0.000000
vt 0.000000 0.000000
vt 0.000000 0.000000
vt 0.000000 0.000000
vt 0.000000 0.000000
vt 0.000000 0.000000
vt 0.000000 0.000000
vt 0.000000 0.000000
vt 0.000000 0.000000
vt 0.000000 0.000000
vt 0.000000 0.000000
vt 0.000000 0.000000
vt 0.000000 0.000000
vt 0.000000 0.000000
vt 0.000000 0.000000
vt 0.000000 0.000000
vt 0.000000 0.000000
vt 0.000000 0.000000
vt 0.000000 0.000000
vt 0.000000 0.000000
vt 0.000000 0.000000
vt 0.000000 0.000000
vt 0.000000 0.000000
vt 0.000000 0.000000
vt 0.000000 0.000000
vt 0.000000 0.000000
vt 0.000000 0.000000
vt 0.000000 0.000000
vt 0.000000 0.000000
vt 0.000000 0.000000
vt 0.000000 0.000000
vt 0.000000 0.000000
vt 0.000000 0.000000
vt 0.000000 0.000000
vt 0.000000 0.000000
vt 0.000000 0.000000
vn 0.000001 -0.632924 0.774214
vn -0.000000 0.000001 1.000000
vn -0.000000 0.000001 1.000000
vn 0.000001 -0.632924 0.774214
vn -0.000000 0.000001 1.000000
vn -0.000000 0.000001 1.000000
vn -0.000000 0.000001 1.000000
vn -0.000000 0.000001 1.000000
vn -0.000000 0.000002 1.000000
vn -0.000000 0.000001 1.000000
vn -0.000000 0.000002 1.000000
vn -0.000000 0.000002 1.000000
vn -0.000000 0.000002 1.000000
vn -0.000000 0.000002 1.000000
vn 0.000000 0.000002 1.000000
vn -0.000000 0.000002 1.000000
vn 0.000000 0.000002 1.000000
vn -0.000001 0.000001 1.000000
vn -0.000000 0.000002 1.000000
vn -0.000001 0.000001 1.000000
vn -0.000001 0.000001 1.000000
vn 0.000000 0.000000 1.000000
vn -0.000000 -0.000000 1.000000
vn 0.000000 0.000000 1.000000
vn 0.000000 0.000000 1.000000
vn 0.000000 0.000000 1.000000
vn 0.000000 0.000000 1.000000
vn -0.000000 -0.000000 1.000000
vn -0.000000 -0.000000 1.000000
vn -0.000000 -0.000000 1.000000
vn -0.000000 -0.000000 1.000000
vn -0.000000 -0.000000 1.000000
vn -0.000000 -0.000000 1.000000
vn -0.000002 0.000000 1.000000
vn -0.000002 0.000000 1.000000
vn -0.000001 0.000000 1.000000
vn -0.000002 0.000000 1.000000
vn -0.000001 0.000000 1.000000
vn 0.651693 0.000001 0.758483
vn -0.000002 0.000000 1.000000
vn -0.000002 0.000000 1.000000
vn -0.000002 0.000000 1.000000
vn -0.000002 0.000000 1.000000
vn -0.000002 0.000000 1.000000
vn -0.000002 0.000000 1.000000
vn -0.000002 0.000000 1.000000
vn -0.000002 0.000000 1.000000
vn -0.000002 0.000000 1.000000
vn -0.000002 0.000000 1.000000
vn -0.000002 0.000000 1.000000
vn -0.000002 0.000000 1.000000
vn 0.988596 -0.000000 0.150592
vn 0.988596 -0.000000 0.150592
vn 0.688808 -0.682844 0.243449
vn 0.988596 -0.000000 0.150592
vn 0.688808 -0.682844 0.243449
vn 0.988596 0.000000 0.150592
vn 0.651693 0.000001 0.758483
vn 0.988596 0.000001 0.150592
vn 0.988596 0.000000 0.150592
vn 0.651693 0.000001 0.758483
vn 0.988596 0.000000 0.150592
vn 0.988596 0.000000 0.150592
vn 0.988596 0.000000 0.150592
vn 0.988596 0.000000 0.150592
vn 0.988596 -0.000000 0.150592
vn 0.988596 0.000000 0.150592
vn 0.988596 -0.000000 0.150592
vn 0.988596 -0.000000 0.150592
vn 0.988596 -0.000000 0.150592
vn 0.988596 -0.000000 0.150592
vn 0.988596 -0.000000 0.150592
vn 0.988596 -0.000000 0.150592
vn 0.988596 -0.000000 0.150592
vn 0.988596 -0.000000 0.150592
vn -0.000001 0.000001 1.000000
vn -0.000001 0.000001 1.000000
vn -0.000002 -0.000000 1.000000
vn -0.000001 0.000001 1.000000
vn -0.000002 -0.000000 1.000000
vn -0.000002 0.000000 1.000000
vn -0.000001 0.000001 1.000000
vn -0.000002 0.000000 1.000000
vn -0.000002 0.000000 1.000000
vn 0.000000 -0.980037 0.198813
vn 0.688808 -0.682844 0.243449
vn -0.000000 -0.980037 0.198813
vn 0.000000 -0.980037 0.198813
vn -0.000000 -0.980037 0.198813
vn -0.000000 -0.980037 0.198813
vn -0.000000 -0.980037 0.198813
vn -0.000000 -0.980037 0.198813
vn 0.000001 -0.980037 0.198813
vn -0.000000 -0.980037 0.198813
vn 0.000001 -0.980037 0.198813
vn 0.000001 -0.980037 0.198813
vn 0.000001 -0.980037 0.198813
vn 0.000001 -0.980037 0.198813
vn 0.000002 -0.980037 0.198814
vn 0.000001 -0.980037 0.198813
vn 0.000002 -0.980037 0.198814
vn 0.000001 -0.632924 0.774214
vn 0.000000 0.000000 0.000000
vn 0.000000 0.000000 0.000000
vn 0.000002 -0.980037 0.198814
vn 0.000000 0.000000 0.000000
vn 0.000002 -0.980037 0.198814
vn 0.000001 -0.980037 0.198813
vn 0.000000 0.000000 0.000000
vn 0.000000 0.000000 0.000000
vn 0.000001 -0.632924 0.774214
vn 0.000000 0.000000 0.000000
vn 0.000001 -0.632924 0.774214
vn 0.000002 -0.980037 0.198814
vn 0.000000 0.000000 0.000000
vn 0.000000 0.000000 0.000000
vn -0.000000 0.000001 1.000000
vn 0.000000 0.000000 0.000000
vn -0.000000 0.000001 1.000000
vn -0.000000 0.000001 1.000000
vn 0.000000 0.000000 0.000000
vn 0.000000 0.000000 0.000000
vn -0.000000 0.000001 1.000000
vn 0.000000 0.000000 0.000000
vn -0.000000 0.000001 1.000000
vn 0.000001 -0.632924 0.774214
vn 0.000000 0.000000 0.000000
vn 0.000000 0.000000 0.000000
vn -0.000001 0.000000 1.000000
vn 0.000000 0.000000 0.000000
vn -0.000001 0.000000 1.000000
vn -0.000002 0.000000 1.000000
vn 0.000000 0.000000 0.000000
vn 0.000000 0.000000 0.000000
vn 0.651693 0.000001 0.758483
vn 0.000000 0.000000 0.000000
vn 0.651693 0.000001 0.758483
vn -0.000001 0.000000 1.000000
vn 0.000000 0.000000 0.000000
vn 0.000000 0.000000 0.000000
vn -0.000002 0.000000 1.000000
vn 0.000000 0.000000 0.000000
vn -0.000002 0.000000 1.000000
vn -0.000002 0.000000 1.000000
vn 0.000000 0.000000 0.000000
vn 0.000000 0.000000 0.000000
vn 0.988596 -0.000000 0.150592
vn 0.000000 0.000000 0.000000
vn 0.988596 -0.000000 0.150592
vn 0.988596 0.000000 0.150592
vn 0.000000 0.000000 0.000000
vn 0.000000 0.000000 0.000000
vn -0.000002 0.000000 1.000000
vn 0.000000 0.000000 0.000000
vn -0.000002 0.000000 1.000000
vn -0.000002 0.000000 1.000000
vn 0.000000 0.000000 0.000000
vn 0.000000 0.000000 0.000000
vn -0.000000 0.000002 1.000000
vn 0.000000 0.000000 0.000000
vn -0.000000 0.000002 1.000000
vn -0.000000 0.000001 1.000000
vn 0.000000 0.000000 0.000000
vn 0.000000 0.000000 0.000000
vn -0.000000 -0.980037 0.198813
vn 0.000000 0.000000 0.000000
vn -0.000000 -0.980037 0.198813
vn 0.688808 -0.682844 0.243449
vn 0.000000 0.000000 1.000000
vn 0.000000 0.000000 0.000000
vn -0.000002 0.000000 1.000000
vn 0.000000 0.000000 1.000000
vn -0.000002 0.000000 1.000000
vn -0.000002 -0.000000 1.000000
vn -0.000000 -0.000000 1.000000
vn 0.000000 0.000000 1.000000
vn -0.000002 -0.000000 1.000000
vn -0.000000 -0.000000 1.000000
vn -0.000002 -0.000000 1.000000
vn -0.000001 0.000001 1.000000
vn 0.000000 0.000000 0.000000
vn 0.000000 0.000000 0.000000
vn 0.688808 -0.682844 0.243449
vn 0.000000 0.000000 0.000000
vn 0.688808 -0.682844 0.243449
vn 0.988596 -0.000000 0.150592
vn 0.000000 0.000000 0.000000
vn 0.000000 0.000000 0.000000
vn 0.000001 -0.980037 0.198813
vn 0.000000 0.000000 0.000000
vn 0.000001 -0.980037 0.198813
vn -0.000000 -0.980037 0.198813
vn -0.000000 -0.000000 1.000000
vn -0.000000 -0.000000 1.000000
vn -0.000001 0.000001 1.000000
vn -0.000000 -0.000000 1.000000
vn -0.000001 0.000001 1.000000
vn 0.000000 0.000002 1.000000
vn 0.000000 0.000000 0.000000
vn -0.000000 -0.000000 1.000000
vn 0.000000 0.000002 1.000000
vn 0.000000 0.000000 0.000000
vn 0.000000 0.000002 1.000000
vn -0.000000 0.000002 1.000000
vn 0.000000 0.000000 0.000000
vn 0.000000 0.000000 0.000000
vn 0.988596 -0.000000 0.150592
vn 0.000000 0.000000 0.000000
vn 0.988596 -0.000000 0.150592
vn 0.988596 -0.000000 0.150592
vn 0.000000 0.000000 0.000000
vn 0.000000 0.000000 0.000000
vn 0.988596 0.000001 0.150592
vn 0.000000 0.000000 0.000000
vn 0.988596 0.000001 0.150592
vn 0.651693 0.000001 0.758483
vn 0.000000 0.000000 0.000000
vn 0.000000 0.000000 0.000000
vn 0.988596 0.000000 0.150592
vn 0.000000 0.000000 0.000000
vn 0.988596 0.000000 0.150592
vn 0.988596 0.000001 0.150592
f 33/1/1 34/2/2 35/3/3
f 33/4/4 35/5/5 27/6/6
f 27/7/7 35/8/8 43/9/9
f 27/10/10 43/11/11 26/12/12
f 26/13/13 43/14/14 49/15/15
f 26/16/16 49/17/17 47/18/18
f 26/19/19 47/20/20 25/21/21
f 10/22/22 16/23/23 15/24/24
f 10/25/25 15/26/26 9/27/27
f 16/28/28 17/29/29 23/30/30
f 16/31/31 23/32/32 24/33/33
f 30/34/34 36/35/35 37/36/36
f 30/37/37 37/38/38 38/39/39
f 29/40/40 40/41/41 36/42/42
f 29/43/43 36/44/44 30/45/45
f 28/46/46 39/47/47 40/48/48
f 28/49/49 40/50/50 29/51/51
f 28/52/52 48/53/53 44/54/54
f 28/55/55 44/56/56 25/57/57
f 38/58/58 50/59/59 41/60/60
f 38/61/61 41/62/62 30/63/63
f 30/64/64 41/65/65 42/66/66
f 30/67/67 42/68/68 29/69/69
f 29/70/70 42/71/71 48/72/72
f 29/73/73 48/74/74 28/75/75
f 25/76/76 47/77/77 46/78/78
f 25/79/79 46/80/80 39/81/81
f 25/82/82 39/83/83 28/84/84
f 25/85/85 44/86/86 45/87/87
f 25/88/88 45/89/89 26/90/90
f 26/91/91 45/92/92 31/93/93
f 26/94/94 31/95/95 27/96/96
f 27/97/97 31/98/98 32/99/99
f 27/100/100 32/101/101 33/102/102
f 13/103/103 14/104/104 32/105/105
f 13/106/106 32/107/107 31/108/108
f 14/109/109 22/110/110 33/111/111
f 14/112/112 33/113/113 32/114/114
f 20/115/115 19/116/116 35/117/117
f 20/118/118 35/119/119 34/120/120
f 22/121/121 20/122/122 34/123/123
f 22/124/124 34/125/125 33/126/126
f 3/127/127 1/128/128 37/129/129
f 3/130/130 37/131/131 36/132/132
f 1/133/133 2/134/134 38/135/135
f 1/136/136 38/137/137 37/138/138
f 7/139/139 5/140/140 40/141/141
f 7/142/142 40/143/143 39/144/144
f 4/145/145 6/146/146 42/147/147
f 4/148/148 42/149/149 41/150/150
f 5/151/151 3/152/152 36/153/153
f 5/154/154 36/155/155 40/156/156
f 19/157/157 18/158/158 43/159/159
f 19/160/160 43/161/161 35/162/162
f 11/163/163 12/164/164 45/165/165
f 11/166/166 45/167/167 44/168/168
f 10/169/169 7/170/170 39/171/171
f 10/172/172 39/173/173 46/174/174
f 16/175/175 10/176/176 46/177/177
f 16/178/178 46/179/179 47/180/180
f 8/181/181 11/182/182 44/183/183
f 8/184/184 44/185/185 48/186/186
f 12/187/187 13/188/188 31/189/189
f 12/190/190 31/191/191 45/192/192
f 17/193/193 16/194/194 47/195/195
f 17/196/196 47/197/197 49/198/198
f 18/199/199 17/200/200 49/201/201
f 18/202/202 49/203/203 43/204/204
f 6/205/205 8/206/206 48/207/207
f 6/208/208 48/209/209 42/210/210
f 2/211/211 21/212/212 50/213/213
f 2/214/214 50/215/215 38/216/216
f 21/217/217 4/218/218 41/219/219
f 21/220/220 41/221/221 50/222/222
