v -1.666892 -0.317949 -1.849112
v -1.403494 -0.953847 -1.849112
v -0.953846 -0.953847 -1.849112
v -1.271795 -1.271796 -1.849112
v -1.535193 -0.635898 -1.849112
v -1.798590 0.000000 -1.849112
v -1.348943 0.000000 -1.849112
v -1.151395 -0.476923 -1.849112
v -1.151395 -0.476923 -1.479290
v -0.953846 -0.953847 -1.479290
v -1.535193 -0.635898 -1.479290
v -1.403494 -0.953847 -1.479290
v -1.271795 -1.271796 -1.479290
v -1.666892 -0.317949 -1.479290
v -1.798590 0.000000 -1.479290
v -1.348943 0.000000 -1.479290
vt 0.000000 0.000000
vt 0.000000 0.000000
vt 0.000000 0.000000
vt 0.000000 0.000000
vt 0.000000 0.000000
vt 0.000000 0.000000
vt 0.000000 0.000000
vt 0.000000 0.000000
vt 0.000000 0.000000
vt 0.000000 0.000000
vt 0.000000 0.000000
vt 0.000000 0.000000
vt 0.000000 0.000000
vt 0.000000 0.000000
vt 0.000000 0.000000
vt 0.000000 0.000000
vt 0.000000 0.000000
vt 0.000000 0.000000
vt 0.000000 0.000000
vt 0.000000 0.000000
vt 0.000000 0.000000
vt 0.000000 0.000000
vt 0.000000 0.000000
vt 0.000000 0.000000
vt 0.000000 0.000000
vt 0.000000 0.000000
vt 0.000000 0.000000
vt 0.000000 0.000000
vt 0.000000 0.000000
vt 0.000000 0.000000
vt 0.000000 0.000000
vt 0.000000 0.000000
vt 0.000000 0.000000
vt 0.000000 0.000000
vt 0.000000 0.000000
vt 0.000000 0.000000
vt 0.000000 0.000000
vt 0.000000 0.000000
vt 0.000000 0.000000
vt 0.000000 0.000000
vt 0.000000 0.000000
vt 0.000000 0.000000
vt 0.000000 0.000000
vt 0.000000 0.000000
vt 0.000000 0.000000
vt 0.000000 0.000000
vt 0.000000 0.000000
vt 0.000000 0.000000
vt 0.000000 0.000000
vt 0.000000 0.000000
vt 0.000000 0.000000
vt 0.000000 0.000000
vt 0.000000 0.000000
vt 0.000000 0.000000
vt 0.000000 0.000000
vt 0.000000 0.000000
vt 0.000000 0.000000
vt 0.000000 0.000000
vt 0.000000 0.000000
vt 0.000000 0.000000
vt 0.000000 0.000000
vt 0.000000 0.000000
vt 0.000000 0.000000
vt 0.000000 0.000000
vt 0.000000 0.000000
vt 0.000000 0.000000
vn 0.000000 0.000000 1.000000
vn 0.000000 0.000000 1.000000
vn 0.000000 0.000000 1.000000
vn 0.000000 0.000000 1.000000
vn 0.000000 0.000000 1.000000
vn 0.000000 0.000000 1.000000
vn 0.000000 0.000000 1.000000
vn 0.000000 0.000000 1.000000
vn 0.000000 0.000000 1.000000
vn 0.000000 0.000000 1.000000
vn 0.000000 0.000000 1.000000
vn 0.000000 0.000000 1.000000
vn 0.000000 0.000000 1.000000
vn 0.000000 0.000000 1.000000
vn 0.000000 0.000000 1.000000
vn 0.000000 0.000000 1.000000
vn 0.000000 0.000000 1.000000
vn 0.000000 0.000000 1.000000
vn 0.923879 0.382684 0.000000
vn 0.923880 0.382684 0.000000
vn 0.923880 0.382684 0.000000
vn 0.923879 0.382684 0.000000
vn 0.923880 0.382684 0.000000
vn 0.923879 0.382684 0.000000
vn -0.923880 -0.382684 0.000000
vn -0.923879 -0.382684 0.000000
vn -0.923879 -0.382684 0.000000
vn -0.923880 -0.382684 0.000000
vn -0.923879 -0.382684 0.000000
vn -0.923880 -0.382684 0.000000
vn -0.923879 -0.382684 0.000000
vn -0.923879 -0.382684 0.000000
vn -0.923879 -0.382684 0.000000
vn -0.923879 -0.382684 0.000000
vn -0.923879 -0.382684 0.000000
vn -0.923879 -0.382684 0.000000
vn 0.707107 -0.707107 0.000000
vn 0.707107 -0.707107 0.000000
vn 0.707107 -0.707107 0.000000
vn 0.707107 -0.707107 0.000000
vn 0.707107 -0.707107 0.000000
vn 0.707107 -0.707107 0.000000
vn -0.923879 -0.382684 0.000000
vn -0.923880 -0.382684 0.000000
vn -0.923880 -0.382684 0.000000
vn -0.923879 -0.382684 0.000000
vn -0.923880 -0.382684 0.000000
vn -0.923879 -0.382684 0.000000
vn 0.000000 1.000000 0.000000
vn 0.000000 1.000000 0.000000
vn 0.000000 1.000000 0.000000
vn 0.000000 1.000000 0.000000
vn 0.000000 1.000000 0.000000
vn 0.000000 1.000000 0.000000
vn 0.923880 0.382684 0.000000
vn 0.923880 0.382684 0.000000
vn 0.923880 0.382684 0.000000
vn 0.923880 0.382684 0.000000
vn 0.923880 0.382684 0.000000
vn 0.923880 0.382684 0.000000
vn -0.923880 -0.382684 0.000000
vn -0.923880 -0.382684 0.000000
vn -0.923880 -0.382684 0.000000
vn -0.923880 -0.382684 0.000000
vn -0.923880 -0.382684 0.000000
vn -0.923880 -0.382684 0.000000
f 16/1/1 15/2/2 14/3/3
f 16/4/4 14/5/5 11/6/6
f 16/7/7 11/8/8 9/9/9
f 9/10/10 11/11/11 12/12/12
f 9/13/13 12/14/14 13/15/15
f 9/16/16 13/17/17 10/18/18
f 3/19/19 8/20/20 9/21/21
f 3/22/22 9/23/23 10/24/24
f 5/25/25 2/26/26 12/27/27
f 5/28/28 12/29/29 11/30/30
f 2/31/31 4/32/32 13/33/33
f 2/34/34 13/35/35 12/36/36
f 4/37/37 3/38/38 10/39/39
f 4/40/40 10/41/41 13/42/42
f 6/43/43 1/44/44 14/45/45
f 6/46/46 14/47/47 15/48/48
f 7/49/49 6/50/50 15/51/51
f 7/52/52 15/53/53 16/54/54
f 8/55/55 7/56/56 16/57/57
f 8/58/58 16/59/59 9/60/60
f 1/61/61 5/62/62 11/63/63
f 1/64/64 11/65/65 14/66/66
