v 0.000000 5.000000 0.000000
v 5.000000 0.000000 0.000000
v 4.903926 0.975452 0.000000
v 4.619398 1.913417 0.000000
v 4.157348 2.777851 0.000000
v 3.535534 3.535534 0.000000
v 2.777851 4.157348 0.000000
v 1.913417 4.619398 0.000000
v 0.975451 4.903926 0.000000
v 4.619398 0.000000 -1.913417
v 4.530637 0.975452 -1.876652
v 4.267767 1.913417 -1.767767
v 3.840888 2.777851 -1.590948
v 3.266407 3.535534 -1.352990
v 2.566400 4.157348 -1.063038
v 1.767767 4.619398 -0.732233
v 0.901199 4.903926 -0.373289
v 3.535534 0.000000 -3.535534
v 3.467599 0.975452 -3.467600
v 3.266407 1.913417 -3.266407
v 2.939688 2.777851 -2.939689
v 2.500000 3.535534 -2.500000
v 1.964237 4.157348 -1.964237
v 1.352990 4.619398 -1.352990
v 0.689748 4.903926 -0.689748
v 1.913417 0.000000 -4.619398
v 1.876651 0.975452 -4.530637
v 1.767767 1.913417 -4.267767
v 1.590948 2.777851 -3.840889
v 1.352990 3.535534 -3.266407
v 1.063037 4.157348 -2.566400
v 0.732233 4.619398 -1.767767
v 0.373289 4.903926 -0.901199
v -0.000001 0.000000 -5.000000
v -0.000001 0.975452 -4.903926
v -0.000000 1.913417 -4.619398
v -0.000001 2.777851 -4.157348
v -0.000001 3.535534 -3.535533
v -0.000000 4.157348 -2.777851
v -0.000000 4.619398 -1.913417
v -0.000000 4.903926 -0.975451
v -1.913418 0.000000 -4.619397
v -1.876652 0.975452 -4.530637
v -1.767768 1.913417 -4.267766
v -1.590949 2.777851 -3.840888
v -1.352991 3.535534 -3.266407
v -1.063038 4.157348 -2.566399
v -0.732233 4.619398 -1.767766
v -0.373289 4.903926 -0.901199
v -3.535534 0.000000 -3.535533
v -3.467600 0.975452 -3.467599
v -3.266408 1.913417 -3.266407
v -2.939689 2.777851 -2.939688
v -2.500000 3.535534 -2.499999
v -1.964237 4.157348 -1.964237
v -1.352990 4.619398 -1.352990
v -0.689748 4.903926 -0.689748
v -4.619398 0.000000 -1.913416
v -4.530637 0.975452 -1.876650
v -4.267767 1.913417 -1.767766
v -3.840889 2.777851 -1.590947
v -3.266407 3.535534 -1.352989
v -2.566399 4.157348 -1.063037
v -1.767767 4.619398 -0.732233
v -0.901199 4.903926 -0.373289
v -5.000000 0.000000 0.000001
v -4.903926 0.975452 0.000001
v -4.619397 1.913417 0.000001
v -4.157347 2.777851 0.000001
v -3.535533 3.535534 0.000001
v -2.777850 4.157348 0.000001
v -1.913417 4.619398 0.000000
v -0.975451 4.903926 0.000000
v -4.619397 0.000000 1.913418
v -4.530636 0.975452 1.876653
v -4.267766 1.913417 1.767768
v -3.840888 2.777851 1.590949
v -3.266406 3.535534 1.352991
v -2.566399 4.157348 1.063038
v -1.767766 4.619398 0.732233
v -0.901199 4.903926 0.373289
v -3.467598 0.975452 3.467600
v -3.266406 1.913417 3.266408
v -2.939687 2.777851 2.939689
v -2.499998 3.535534 2.500000
v -1.964236 4.157348 1.964237
v -1.352989 4.619398 1.352990
v -0.689748 4.903926 0.689748
v -1.913415 0.000000 4.619398
v -1.876650 0.975452 4.530637
v -1.767765 1.913417 4.267767
v -1.590947 2.777851 3.840889
v -1.352988 3.535534 3.266407
v -1.063036 4.157348 2.566399
v -0.732232 4.619398 1.767767
v -0.373289 4.903926 0.901199
v 0.000002 0.000000 5.000000
v 0.000002 0.975452 4.903926
v 0.000002 1.913417 4.619397
v 0.000002 2.777851 4.157347
v 0.000002 3.535534 3.535533
v 0.000001 4.157348 2.777850
v 0.000001 4.619398 1.913417
v 0.000000 4.903926 0.975451
v 1.913419 0.000000 4.619396
v 1.876653 0.975452 4.530636
v 1.767768 1.913417 4.267766
v 1.590949 2.777851 3.840887
v 1.352992 3.535534 3.266406
v 1.063038 4.157348 2.566398
v 0.732233 4.619398 1.767766
v 0.373289 4.903926 0.901199
v 3.535535 0.000000 3.535532
v 3.467601 0.975452 3.467597
v 3.266408 1.913417 3.266405
v 2.939690 2.777851 2.939687
v 2.500001 3.535534 2.499998
v 1.964237 4.157348 1.964236
v 1.352990 4.619398 1.352989
v 0.689748 4.903926 0.689748
v 4.619398 0.000000 1.913414
v 4.530637 0.975452 1.876649
v 4.267767 1.913417 1.767765
v 3.840889 2.777851 1.590946
v 3.266407 3.535534 1.352988
v 2.566399 4.157348 1.063036
v 1.767767 4.619398 0.732232
v 0.901199 4.903926 0.373288
vt 0.000000 0.000000
vt 0.000000 0.000000
vt 0.000000 0.000000
vt 0.000000 0.000000
vt 0.000000 0.000000
vt 0.000000 0.000000
vt 0.000000 0.000000
vt 0.000000 0.000000
vt 0.000000 0.000000
vt 0.000000 0.000000
vt 0.000000 0.000000
vt 0.000000 0.000000
vt 0.000000 0.000000
vt 0.000000 0.000000
vt 0.000000 0.000000
vt 0.000000 0.000000
vt 0.000000 0.000000
vt 0.000000 0.000000
vt 0.000000 0.000000
vt 0.000000 0.000000
vt 0.000000 0.000000
vt 0.000000 0.000000
vt 0.000000 0.000000
vt 0.000000 0.000000
vt 0.000000 0.000000
vt 0.000000 0.000000
vt 0.000000 0.000000
vt 0.000000 0.000000
vt 0.000000 0.000000
vt 0.000000 0.000000
vt 0.000000 0.000000
vt 0.000000 0.000000
vt 0.000000 0.000000
vt 0.000000 0.000000
vt 0.000000 0.000000
vt 0.000000 0.000000
vt 0.000000 0.000000
vt 0.000000 0.000000
vt 0.000000 0.000000
vt 0.000000 0.000000
vt 0.000000 0.000000
vt 0.000000 0.000000
vt 0.000000 0.000000
vt 0.000000 0.000000
vt 0.000000 0.000000
vt 0.000000 0.000000
vt 0.000000 0.000000
vt 0.000000 0.000000
vt 0.000000 0.000000
vt 0.000000 0.000000
vt 0.000000 0.000000
vt 0.000000 0.000000
vt 0.000000 0.000000
vt 0.000000 0.000000
vt 0.000000 0.000000
vt 0.000000 0.000000
vt 0.000000 0.000000
vt 0.000000 0.000000
vt 0.000000 0.000000
vt 0.000000 0.000000
vt 0.000000 0.000000
vt 0.000000 0.000000
vt 0.000000 0.000000
vt 0.000000 0.000000
vt 0.000000 0.000000
vt 0.000000 0.000000
vt 0.000000 0.000000
vt 0.000000 0.000000
vt 0.000000 0.000000
vt 0.000000 0.000000
vt 0.000000 0.000000
vt 0.000000 0.000000
vt 0.000000 0.000000
vt 0.000000 0.000000
vt 0.000000 0.000000
vt 0.000000 0.000000
vt 0.000000 0.000000
vt 0.000000 0.000000
vt 0.000000 0.000000
vt 0.000000 0.000000
vt 0.000000 0.000000
vt 0.000000 0.000000
vt 0.000000 0.000000
vt 0.000000 0.000000
vt 0.000000 0.000000
vt 0.000000 0.000000
vt 0.000000 0.000000
vt 0.000000 0.000000
vt 0.000000 0.000000
vt 0.000000 0.000000
vt 0.000000 0.000000
vt 0.000000 0.000000
vt 0.000000 0.000000
vt 0.000000 0.000000
vt 0.000000 0.000000
vt 0.000000 0.000000
vt 0.000000 0.000000
vt 0.000000 0.000000
vt 0.000000 0.000000
vt 0.000000 0.000000
vt 0.000000 0.000000
vt 0.000000 0.000000
vt 0.000000 0.000000
vt 0.000000 0.000000
vt 0.000000 0.000000
vt 0.000000 0.000000
vt 0.000000 0.000000
vt 0.000000 0.000000
vt 0.000000 0.000000
vt 0.000000 0.000000
vt 0.000000 0.000000
vt 0.000000 0.000000
vt 0.000000 0.000000
vt 0.000000 0.000000
vt 0.000000 0.000000
vt 0.000000 0.000000
vt 0.000000 0.000000
vt 0.000000 0.000000
vt 0.000000 0.000000
vt 0.000000 0.000000
vt 0.000000 0.000000
vt 0.000000 0.000000
vt 0.000000 0.000000
vt 0.000000 0.000000
vt 0.000000 0.000000
vt 0.000000 0.000000
vt 0.000000 0.000000
vt 0.000000 0.000000
vt 0.000000 0.000000
vt 0.000000 0.000000
vt 0.000000 0.000000
vt 0.000000 0.000000
vt 0.000000 0.000000
vt 0.000000 0.000000
vt 0.000000 0.000000
vt 0.000000 0.000000
vt 0.000000 0.000000
vt 0.000000 0.000000
vt 0.000000 0.000000
vt 0.000000 0.000000
vt 0.000000 0.000000
vt 0.000000 0.000000
vt 0.000000 0.000000
vt 0.000000 0.000000
vt 0.000000 0.000000
vt 0.000000 0.000000
vt 0.000000 0.000000
vt 0.000000 0.000000
vt 0.000000 0.000000
vt 0.000000 0.000000
vt 0.000000 0.000000
vt 0.000000 0.000000
vt 0.000000 0.000000
vt 0.000000 0.000000
vt 0.000000 0.000000
vt 0.000000 0.000000
vt 0.000000 0.000000
vt 0.000000 0.000000
vt 0.000000 0.000000
vt 0.000000 0.000000
vt 0.000000 0.000000
vt 0.000000 0.000000
vt 0.000000 0.000000
vt 0.000000 0.000000
vt 0.000000 0.000000
vt 0.000000 0.000000
vt 0.000000 0.000000
vt 0.000000 0.000000
vt 0.000000 0.000000
vt 0.000000 0.000000
vt 0.000000 0.000000
vt 0.000000 0.000000
vt 0.000000 0.000000
vt 0.000000 0.000000
vt 0.000000 0.000000
vt 0.000000 0.000000
vt 0.000000 0.000000
vt 0.000000 0.000000
vt 0.000000 0.000000
vt 0.000000 0.000000
vt 0.000000 0.000000
vt 0.000000 0.000000
vt 0.000000 0.000000
vt 0.000000 0.000000
vt 0.000000 0.000000
vt 0.000000 0.000000
vt 0.000000 0.000000
vt 0.000000 0.000000
vt 0.000000 0.000000
vt 0.000000 0.000000
vt 0.000000 0.000000
vt 0.000000 0.000000
vt 0.000000 0.000000
vt 0.000000 0.000000
vt 0.000000 0.000000
vt 0.000000 0.000000
vt 0.000000 0.000000
vt 0.000000 0.000000
vt 0.000000 0.000000
vt 0.000000 0.000000
vt 0.000000 0.000000
vt 0.000000 0.000000
vt 0.000000 0.000000
vt 0.000000 0.000000
vt 0.000000 0.000000
vt 0.000000 0.000000
vt 0.000000 0.000000
vt 0.000000 0.000000
vt 0.000000 0.000000
vt 0.000000 0.000000
vt 0.000000 0.000000
vt 0.000000 0.000000
vt 0.000000 0.000000
vt 0.000000 0.000000
vt 0.000000 0.000000
vt 0.000000 0.000000
vt 0.000000 0.000000
vt 0.000000 0.000000
vt 0.000000 0.000000
vt 0.000000 0.000000
vt 0.000000 0.000000
vt 0.000000 0.000000
vt 0.000000 0.000000
vt 0.000000 0.000000
vt 0.000000 0.000000
vt 0.000000 0.000000
vt 0.000000 0.000000
vt 0.000000 0.000000
vt 0.000000 0.000000
vt 0.000000 0.000000
vt 0.000000 0.000000
vt 0.000000 0.000000
vt 0.000000 0.000000
vt 0.000000 0.000000
vt 0.000000 0.000000
vt 0.000000 0.000000
vt 0.000000 0.000000
vt 0.000000 0.000000
vt 0.000000 0.000000
vt 0.000000 0.000000
vt 0.000000 0.000000
vt 0.000000 0.000000
vt 0.000000 0.000000
vt 0.000000 0.000000
vt 0.000000 0.000000
vt 0.000000 0.000000
vt 0.000000 0.000000
vt 0.000000 0.000000
vt 0.000000 0.000000
vt 0.000000 0.000000
vt 0.000000 0.000000
vt 0.000000 0.000000
vt 0.000000 0.000000
vt 0.000000 0.000000
vt 0.000000 0.000000
vt 0.000000 0.000000
vt 0.000000 0.000000
vt 0.000000 0.000000
vt 0.000000 0.000000
vt 0.000000 0.000000
vt 0.000000 0.000000
vt 0.000000 0.000000
vt 0.000000 0.000000
vt 0.000000 0.000000
vt 0.000000 0.000000
vt 0.000000 0.000000
vt 0.000000 0.000000
vt 0.000000 0.000000
vt 0.000000 0.000000
vt 0.000000 0.000000
vt 0.000000 0.000000
vt 0.000000 0.000000
vt 0.000000 0.000000
vt 0.000000 0.000000
vt 0.000000 0.000000
vt 0.000000 0.000000
vt 0.000000 0.000000
vt 0.000000 0.000000
vt 0.000000 0.000000
vt 0.000000 0.000000
vt 0.000000 0.000000
vt 0.000000 0.000000
vt 0.000000 0.000000
vt 0.000000 0.000000
vt 0.000000 0.000000
vt 0.000000 0.000000
vt 0.000000 0.000000
vt 0.000000 0.000000
vt 0.000000 0.000000
vt 0.000000 0.000000
vt 0.000000 0.000000
vt 0.000000 0.000000
vt 0.000000 0.000000
vt 0.000000 0.000000
vt 0.000000 0.000000
vt 0.000000 0.000000
vt 0.000000 0.000000
vt 0.000000 0.000000
vt 0.000000 0.000000
vt 0.000000 0.000000
vt 0.000000 0.000000
vt 0.000000 0.000000
vt 0.000000 0.000000
vt 0.000000 0.000000
vt 0.000000 0.000000
vt 0.000000 0.000000
vt 0.000000 0.000000
vt 0.000000 0.000000
vt 0.000000 0.000000
vt 0.000000 0.000000
vt 0.000000 0.000000
vt 0.000000 0.000000
vt 0.000000 0.000000
vt 0.000000 0.000000
vt 0.000000 0.000000
vt 0.000000 0.000000
vt 0.000000 0.000000
vt 0.000000 0.000000
vt 0.000000 0.000000
vt 0.000000 0.000000
vt 0.000000 0.000000
vt 0.000000 0.000000
vt 0.000000 0.000000
vt 0.000000 0.000000
vt 0.000000 0.000000
vt 0.000000 0.000000
vt 0.000000 0.000000
vt 0.000000 0.000000
vt 0.000000 0.000000
vt 0.000000 0.000000
vt 0.000000 0.000000
vt 0.000000 0.000000
vt 0.000000 0.000000
vt 0.000000 0.000000
vt 0.000000 0.000000
vt 0.000000 0.000000
vt 0.000000 0.000000
vt 0.000000 0.000000
vt 0.000000 0.000000
vt 0.000000 0.000000
vt 0.000000 0.000000
vt 0.000000 0.000000
vt 0.000000 0.000000
vt 0.000000 0.000000
vt 0.000000 0.000000
vt 0.000000 0.000000
vt 0.000000 0.000000
vt 0.000000 0.000000
vt 0.000000 0.000000
vt 0.000000 0.000000
vt 0.000000 0.000000
vt 0.000000 0.000000
vt 0.000000 0.000000
vt 0.000000 0.000000
vt 0.000000 0.000000
vt 0.000000 0.000000
vt 0.000000 0.000000
vt 0.000000 0.000000
vt 0.000000 0.000000
vt 0.000000 0.000000
vt 0.000000 0.000000
vt 0.000000 0.000000
vt 0.000000 0.000000
vt 0.000000 0.000000
vt 0.000000 0.000000
vt 0.000000 0.000000
vt 0.000000 0.000000
vt 0.000000 0.000000
vt 0.000000 0.000000
vt 0.000000 0.000000
vt 0.000000 0.000000
vt 0.000000 0.000000
vt 0.000000 0.000000
vt 0.000000 0.000000
vt 0.000000 0.000000
vt 0.000000 0.000000
vt 0.000000 0.000000
vt 0.000000 0.000000
vt 0.000000 0.000000
vt 0.000000 0.000000
vt 0.000000 0.000000
vt 0.000000 0.000000
vt 0.000000 0.000000
vt 0.000000 0.000000
vt 0.000000 0.000000
vt 0.000000 0.000000
vt 0.000000 0.000000
vt 0.000000 0.000000
vt 0.000000 0.000000
vt 0.000000 0.000000
vt 0.000000 0.000000
vt 0.000000 0.000000
vt 0.000000 0.000000
vt 0.000000 0.000000
vt 0.000000 0.000000
vt 0.000000 0.000000
vt 0.000000 0.000000
vt 0.000000 0.000000
vt 0.000000 0.000000
vt 0.000000 0.000000
vt 0.000000 0.000000
vt 0.000000 0.000000
vt 0.000000 0.000000
vt 0.000000 0.000000
vt 0.000000 0.000000
vt 0.000000 0.000000
vt 0.000000 0.000000
vt 0.000000 0.000000
vt 0.000000 0.000000
vt 0.000000 0.000000
vt 0.000000 0.000000
vt 0.000000 0.000000
vt 0.000000 0.000000
vt 0.000000 0.000000
vt 0.000000 0.000000
vt 0.000000 0.000000
vt 0.000000 0.000000
vt 0.000000 0.000000
vt 0.000000 0.000000
vt 0.000000 0.000000
vt 0.000000 0.000000
vt 0.000000 0.000000
vt 0.000000 0.000000
vt 0.000000 0.000000
vt 0.000000 0.000000
vt 0.000000 0.000000
vt 0.000000 0.000000
vt 0.000000 0.000000
vt 0.000000 0.000000
vt 0.000000 0.000000
vt 0.000000 0.000000
vt 0.000000 0.000000
vt 0.000000 0.000000
vt 0.000000 0.000000
vt 0.000000 0.000000
vt 0.000000 0.000000
vt 0.000000 0.000000
vt 0.000000 0.000000
vt 0.000000 0.000000
vt 0.000000 0.000000
vt 0.000000 0.000000
vt 0.000000 0.000000
vt 0.000000 0.000000
vt 0.000000 0.000000
vt 0.000000 0.000000
vt 0.000000 0.000000
vt 0.000000 0.000000
vt 0.000000 0.000000
vt 0.000000 0.000000
vt 0.000000 0.000000
vt 0.000000 0.000000
vt 0.000000 0.000000
vt 0.000000 0.000000
vt 0.000000 0.000000
vt 0.000000 0.000000
vt 0.000000 0.000000
vt 0.000000 0.000000
vt 0.000000 0.000000
vt 0.000000 0.000000
vt 0.000000 0.000000
vt 0.000000 0.000000
vt 0.000000 0.000000
vt 0.000000 0.000000
vt 0.000000 0.000000
vt 0.000000 0.000000
vt 0.000000 0.000000
vt 0.000000 0.000000
vt 0.000000 0.000000
vt 0.000000 0.000000
vt 0.000000 0.000000
vt 0.000000 0.000000
vt 0.000000 0.000000
vt 0.000000 0.000000
vt 0.000000 0.000000
vt 0.000000 0.000000
vt 0.000000 0.000000
vt 0.000000 0.000000
vt 0.000000 0.000000
vt 0.000000 0.000000
vt 0.000000 0.000000
vt 0.000000 0.000000
vt 0.000000 0.000000
vt 0.000000 0.000000
vt 0.000000 0.000000
vt 0.000000 0.000000
vt 0.000000 0.000000
vt 0.000000 0.000000
vt 0.000000 0.000000
vt 0.000000 0.000000
vt 0.000000 0.000000
vt 0.000000 0.000000
vt 0.000000 0.000000
vt 0.000000 0.000000
vt 0.000000 0.000000
vt 0.000000 0.000000
vt 0.000000 0.000000
vt 0.000000 0.000000
vt 0.000000 0.000000
vt 0.000000 0.000000
vt 0.000000 0.000000
vt 0.000000 0.000000
vt 0.000000 0.000000
vt 0.000000 0.000000
vt 0.000000 0.000000
vt 0.000000 0.000000
vt 0.000000 0.000000
vt 0.000000 0.000000
vt 0.000000 0.000000
vt 0.000000 0.000000
vt 0.000000 0.000000
vt 0.000000 0.000000
vt 0.000000 0.000000
vt 0.000000 0.000000
vt 0.000000 0.000000
vt 0.000000 0.000000
vt 0.000000 0.000000
vt 0.000000 0.000000
vt 0.000000 0.000000
vt 0.000000 0.000000
vt 0.000000 0.000000
vt 0.000000 0.000000
vt 0.000000 0.000000
vt 0.000000 0.000000
vt 0.000000 0.000000
vt 0.000000 0.000000
vt 0.000000 0.000000
vt 0.000000 0.000000
vt 0.000000 0.000000
vt 0.000000 0.000000
vt 0.000000 0.000000
vt 0.000000 0.000000
vt 0.000000 0.000000
vt 0.000000 0.000000
vt 0.000000 0.000000
vt 0.000000 0.000000
vt 0.000000 0.000000
vt 0.000000 0.000000
vt 0.000000 0.000000
vt 0.000000 0.000000
vt 0.000000 0.000000
vt 0.000000 0.000000
vt 0.000000 0.000000
vt 0.000000 0.000000
vt 0.000000 0.000000
vt 0.000000 0.000000
vt 0.000000 0.000000
vt 0.000000 0.000000
vt 0.000000 0.000000
vt 0.000000 0.000000
vt 0.000000 0.000000
vt 0.000000 0.000000
vt 0.000000 0.000000
vt 0.000000 0.000000
vt 0.000000 0.000000
vt 0.000000 0.000000
vt 0.000000 0.000000
vt 0.000000 0.000000
vt 0.000000 0.000000
vt 0.000000 0.000000
vt 0.000000 0.000000
vt 0.000000 0.000000
vt 0.000000 0.000000
vt 0.000000 0.000000
vt 0.000000 0.000000
vt 0.000000 0.000000
vt 0.000000 0.000000
vt 0.000000 0.000000
vt 0.000000 0.000000
vt 0.000000 0.000000
vt 0.000000 0.000000
vt 0.000000 0.000000
vt 0.000000 0.000000
vt 0.000000 0.000000
vt 0.000000 0.000000
vt 0.000000 0.000000
vt 0.000000 0.000000
vt 0.000000 0.000000
vt 0.000000 0.000000
vt 0.000000 0.000000
vt 0.000000 0.000000
vt 0.000000 0.000000
vt 0.000000 0.000000
vt 0.000000 0.000000
vt 0.000000 0.000000
vt 0.000000 0.000000
vt 0.000000 0.000000
vt 0.000000 0.000000
vt 0.000000 0.000000
vt 0.000000 0.000000
vt 0.000000 0.000000
vt 0.000000 0.000000
vt 0.000000 0.000000
vt 0.000000 0.000000
vt 0.000000 0.000000
vt 0.000000 0.000000
vt 0.000000 0.000000
vt 0.000000 0.000000
vt 0.000000 0.000000
vt 0.000000 0.000000
vt 0.000000 0.000000
vt 0.000000 0.000000
vt 0.000000 0.000000
vt 0.000000 0.000000
vt 0.000000 0.000000
vt 0.000000 0.000000
vt 0.000000 0.000000
vt 0.000000 0.000000
vt 0.000000 0.000000
vt 0.000000 0.000000
vt 0.000000 0.000000
vt 0.000000 0.000000
vt 0.000000 0.000000
vt 0.000000 0.000000
vt 0.000000 0.000000
vt 0.000000 0.000000
vt 0.000000 0.000000
vt 0.000000 0.000000
vt 0.000000 0.000000
vt 0.000000 0.000000
vt 0.000000 0.000000
vt 0.000000 0.000000
vt 0.000000 0.000000
vt 0.000000 0.000000
vt 0.000000 0.000000
vt 0.000000 0.000000
vt 0.000000 0.000000
vt 0.000000 0.000000
vt 0.000000 0.000000
vt 0.000000 0.000000
vt 0.000000 0.000000
vt 0.000000 0.000000
vt 0.000000 0.000000
vt 0.000000 0.000000
vt 0.000000 0.000000
vt 0.000000 0.000000
vt 0.000000 0.000000
vt 0.000000 0.000000
vt 0.000000 0.000000
vt 0.000000 0.000000
vt 0.000000 0.000000
vt 0.000000 0.000000
vt 0.000000 0.000000
vt 0.000000 0.000000
vt 0.000000 0.000000
vt 0.000000 0.000000
vt 0.000000 0.000000
vt 0.000000 0.000000
vt 0.000000 0.000000
vt 0.000000 0.000000
vt 0.000000 0.000000
vt 0.000000 0.000000
vt 0.000000 0.000000
vt 0.000000 0.000000
vt 0.000000 0.000000
vt 0.000000 0.000000
vt 0.000000 0.000000
vt 0.000000 0.000000
vt 0.000000 0.000000
vt 0.000000 0.000000
vt 0.000000 0.000000
vt 0.000000 0.000000
vt 0.000000 0.000000
vt 0.000000 0.000000
vt 0.000000 0.000000
vt 0.000000 0.000000
vt 0.000000 0.000000
vt 0.000000 0.000000
vt 0.000000 0.000000
vt 0.000000 0.000000
vt 0.000000 0.000000
vt 0.000000 0.000000
vt 0.000000 0.000000
vt 0.000000 0.000000
vt 0.000000 0.000000
vt 0.000000 0.000000
vt 0.000000 0.000000
vt 0.000000 0.000000
vt 0.000000 0.000000
vt 0.000000 0.000000
vt 0.000000 0.000000
vt 0.000000 0.000000
vt 0.000000 0.000000
vt 0.000000 0.000000
vt 0.000000 0.000000
vt 0.000000 0.000000
vt 0.000000 0.000000
vt 0.000000 0.000000
vt 0.000000 0.000000
vt 0.000000 0.000000
vt 0.000000 0.000000
vt 0.000000 0.000000
vt 0.000000 0.000000
vt 0.000000 0.000000
vt 0.000000 0.000000
vt 0.000000 0.000000
vt 0.000000 0.000000
vt 0.000000 0.000000
vt 0.000000 0.000000
vt 0.000000 0.000000
vt 0.000000 0.000000
vt 0.000000 0.000000
vt 0.000000 0.000000
vt 0.000000 0.000000
vt 0.000000 0.000000
vt 0.000000 0.000000
vt 0.000000 0.000000
vt 0.000000 0.000000
vt 0.000000 0.000000
vn 0.180174 0.980799 0.074631
vn 0.195019 0.980799 0.000000
vn 0.000000 1.000000 0.000000
vn 0.353439 0.923931 0.146399
vn 0.382560 0.923931 0.000000
vn 0.195019 0.980799 0.000000
vn 0.353439 0.923931 0.146399
vn 0.195019 0.980799 0.000000
vn 0.180174 0.980799 0.074631
vn 0.513147 0.831566 0.212552
vn 0.555426 0.831566 0.000000
vn 0.382560 0.923931 0.000000
vn 0.513147 0.831566 0.212552
vn 0.382560 0.923931 0.000000
vn 0.353439 0.923931 0.146399
vn 0.653160 0.707239 0.270548
vn 0.706975 0.707239 0.000000
vn 0.555426 0.831566 0.000000
vn 0.653160 0.707239 0.270548
vn 0.555426 0.831566 0.000000
vn 0.513147 0.831566 0.212552
vn 0.768090 0.555712 0.318153
vn 0.831375 0.555712 0.000000
vn 0.706975 0.707239 0.000000
vn 0.768090 0.555712 0.318153
vn 0.706975 0.707239 0.000000
vn 0.653160 0.707239 0.270548
vn 0.853507 0.382804 0.353534
vn 0.923830 0.382804 0.000000
vn 0.831375 0.555712 0.000000
vn 0.853507 0.382804 0.353534
vn 0.831375 0.555712 0.000000
vn 0.768090 0.555712 0.318153
vn 0.906115 0.195159 0.375325
vn 0.980772 0.195159 0.000000
vn 0.923830 0.382804 0.000000
vn 0.906115 0.195159 0.375325
vn 0.923830 0.382804 0.000000
vn 0.853507 0.382804 0.353534
vn 0.923880 0.000000 0.382683
vn 1.000000 0.000000 0.000000
vn 0.980772 0.195159 0.000000
vn 0.923880 0.000000 0.382683
vn 0.980772 0.195159 0.000000
vn 0.906115 0.195159 0.375325
vn 1.000000 0.000000 0.000000
vn 0.923880 0.000000 -0.382683
vn 0.906115 0.195159 -0.375325
vn 1.000000 0.000000 0.000000
vn 0.906115 0.195159 -0.375325
vn 0.980772 0.195159 0.000000
vn 0.980772 0.195159 0.000000
vn 0.906115 0.195159 -0.375325
vn 0.853507 0.382804 -0.353534
vn 0.980772 0.195159 0.000000
vn 0.853507 0.382804 -0.353534
vn 0.923830 0.382804 0.000000
vn 0.923830 0.382804 0.000000
vn 0.853507 0.382804 -0.353534
vn 0.768090 0.555712 -0.318153
vn 0.923830 0.382804 0.000000
vn 0.768090 0.555712 -0.318153
vn 0.831375 0.555712 0.000000
vn 0.831375 0.555712 0.000000
vn 0.768090 0.555712 -0.318153
vn 0.653160 0.707239 -0.270548
vn 0.831375 0.555712 0.000000
vn 0.653160 0.707239 -0.270548
vn 0.706975 0.707239 0.000000
vn 0.706975 0.707239 0.000000
vn 0.653160 0.707239 -0.270548
vn 0.513147 0.831566 -0.212552
vn 0.706975 0.707239 0.000000
vn 0.513147 0.831566 -0.212552
vn 0.555426 0.831566 0.000000
vn 0.555426 0.831566 0.000000
vn 0.513147 0.831566 -0.212552
vn 0.353439 0.923931 -0.146399
vn 0.555426 0.831566 0.000000
vn 0.353439 0.923931 -0.146399
vn 0.382560 0.923931 0.000000
vn 0.382560 0.923931 0.000000
vn 0.353439 0.923931 -0.146399
vn 0.180174 0.980799 -0.074631
vn 0.382560 0.923931 0.000000
vn 0.180174 0.980799 -0.074631
vn 0.195019 0.980799 0.000000
vn 0.195019 0.980799 0.000000
vn 0.180174 0.980799 -0.074631
vn 0.000000 1.000000 0.000000
vn 0.137899 0.980799 0.137899
vn 0.180174 0.980799 0.074631
vn 0.000000 1.000000 0.000000
vn 0.270511 0.923931 0.270511
vn 0.353439 0.923931 0.146399
vn 0.180174 0.980799 0.074631
vn 0.270511 0.923931 0.270511
vn 0.180174 0.980799 0.074631
vn 0.137899 0.980799 0.137899
vn 0.392746 0.831566 0.392745
vn 0.513147 0.831566 0.212552
vn 0.353439 0.923931 0.146399
vn 0.392746 0.831566 0.392745
vn 0.353439 0.923931 0.146399
vn 0.270511 0.923931 0.270511
vn 0.499907 0.707239 0.499906
vn 0.653160 0.707239 0.270548
vn 0.513147 0.831566 0.212552
vn 0.499907 0.707239 0.499906
vn 0.513147 0.831566 0.212552
vn 0.392746 0.831566 0.392745
vn 0.587871 0.555712 0.587870
vn 0.768090 0.555712 0.318153
vn 0.653160 0.707239 0.270548
vn 0.587871 0.555712 0.587870
vn 0.653160 0.707239 0.270548
vn 0.499907 0.707239 0.499906
vn 0.653247 0.382804 0.653246
vn 0.853507 0.382804 0.353534
vn 0.768090 0.555712 0.318153
vn 0.653247 0.382804 0.653246
vn 0.768090 0.555712 0.318153
vn 0.587871 0.555712 0.587870
vn 0.693511 0.195159 0.693510
vn 0.906115 0.195159 0.375325
vn 0.853507 0.382804 0.353534
vn 0.693511 0.195159 0.693510
vn 0.853507 0.382804 0.353534
vn 0.653247 0.382804 0.653246
vn 0.707107 0.000000 0.707106
vn 0.923880 0.000000 0.382683
vn 0.906115 0.195159 0.375325
vn 0.707107 0.000000 0.707106
vn 0.906115 0.195159 0.375325
vn 0.693511 0.195159 0.693510
vn 0.923880 0.000000 -0.382683
vn 0.707107 0.000000 -0.707107
vn 0.693510 0.195159 -0.693510
vn 0.923880 0.000000 -0.382683
vn 0.693510 0.195159 -0.693510
vn 0.906115 0.195159 -0.375325
vn 0.906115 0.195159 -0.375325
vn 0.693510 0.195159 -0.693510
vn 0.653246 0.382804 -0.653246
vn 0.906115 0.195159 -0.375325
vn 0.653246 0.382804 -0.653246
vn 0.853507 0.382804 -0.353534
vn 0.853507 0.382804 -0.353534
vn 0.653246 0.382804 -0.653246
vn 0.587871 0.555712 -0.587871
vn 0.853507 0.382804 -0.353534
vn 0.587871 0.555712 -0.587871
vn 0.768090 0.555712 -0.318153
vn 0.768090 0.555712 -0.318153
vn 0.587871 0.555712 -0.587871
vn 0.499907 0.707239 -0.499907
vn 0.768090 0.555712 -0.318153
vn 0.499907 0.707239 -0.499907
vn 0.653160 0.707239 -0.270548
vn 0.653160 0.707239 -0.270548
vn 0.499907 0.707239 -0.499907
vn 0.392745 0.831566 -0.392745
vn 0.653160 0.707239 -0.270548
vn 0.392745 0.831566 -0.392745
vn 0.513147 0.831566 -0.212552
vn 0.513147 0.831566 -0.212552
vn 0.392745 0.831566 -0.392745
vn 0.270511 0.923931 -0.270511
vn 0.513147 0.831566 -0.212552
vn 0.270511 0.923931 -0.270511
vn 0.353439 0.923931 -0.146399
vn 0.353439 0.923931 -0.146399
vn 0.270511 0.923931 -0.270511
vn 0.137899 0.980799 -0.137899
vn 0.353439 0.923931 -0.146399
vn 0.137899 0.980799 -0.137899
vn 0.180174 0.980799 -0.074631
vn 0.180174 0.980799 -0.074631
vn 0.137899 0.980799 -0.137899
vn 0.000000 1.000000 0.000000
vn 0.074631 0.980799 0.180174
vn 0.137899 0.980799 0.137899
vn 0.000000 1.000000 0.000000
vn 0.146400 0.923931 0.353439
vn 0.270511 0.923931 0.270511
vn 0.137899 0.980799 0.137899
vn 0.146400 0.923931 0.353439
vn 0.137899 0.980799 0.137899
vn 0.074631 0.980799 0.180174
vn 0.212553 0.831566 0.513147
vn 0.392746 0.831566 0.392745
vn 0.270511 0.923931 0.270511
vn 0.212553 0.831566 0.513147
vn 0.270511 0.923931 0.270511
vn 0.146400 0.923931 0.353439
vn 0.270548 0.707239 0.653159
vn 0.499907 0.707239 0.499906
vn 0.392746 0.831566 0.392745
vn 0.270548 0.707239 0.653159
vn 0.392746 0.831566 0.392745
vn 0.212553 0.831566 0.513147
vn 0.318154 0.555712 0.768090
vn 0.587871 0.555712 0.587870
vn 0.499907 0.707239 0.499906
vn 0.318154 0.555712 0.768090
vn 0.499907 0.707239 0.499906
vn 0.270548 0.707239 0.653159
vn 0.353535 0.382804 0.853507
vn 0.653247 0.382804 0.653246
vn 0.587871 0.555712 0.587870
vn 0.353535 0.382804 0.853507
vn 0.587871 0.555712 0.587870
vn 0.318154 0.555712 0.768090
vn 0.375326 0.195159 0.906115
vn 0.693511 0.195159 0.693510
vn 0.653247 0.382804 0.653246
vn 0.375326 0.195159 0.906115
vn 0.653247 0.382804 0.653246
vn 0.353535 0.382804 0.853507
vn 0.382684 0.000000 0.923879
vn 0.707107 0.000000 0.707106
vn 0.693511 0.195159 0.693510
vn 0.382684 0.000000 0.923879
vn 0.693511 0.195159 0.693510
vn 0.375326 0.195159 0.906115
vn 0.707107 0.000000 -0.707107
vn 0.382683 0.000000 -0.923880
vn 0.375325 0.195159 -0.906115
vn 0.707107 0.000000 -0.707107
vn 0.375325 0.195159 -0.906115
vn 0.693510 0.195159 -0.693510
vn 0.693510 0.195159 -0.693510
vn 0.375325 0.195159 -0.906115
vn 0.353534 0.382804 -0.853507
vn 0.693510 0.195159 -0.693510
vn 0.353534 0.382804 -0.853507
vn 0.653246 0.382804 -0.653246
vn 0.653246 0.382804 -0.653246
vn 0.353534 0.382804 -0.853507
vn 0.318153 0.555712 -0.768090
vn 0.653246 0.382804 -0.653246
vn 0.318153 0.555712 -0.768090
vn 0.587871 0.555712 -0.587871
vn 0.587871 0.555712 -0.587871
vn 0.318153 0.555712 -0.768090
vn 0.270548 0.707239 -0.653160
vn 0.587871 0.555712 -0.587871
vn 0.270548 0.707239 -0.653160
vn 0.499907 0.707239 -0.499907
vn 0.499907 0.707239 -0.499907
vn 0.270548 0.707239 -0.653160
vn 0.212552 0.831566 -0.513147
vn 0.499907 0.707239 -0.499907
vn 0.212552 0.831566 -0.513147
vn 0.392745 0.831566 -0.392745
vn 0.392745 0.831566 -0.392745
vn 0.212552 0.831566 -0.513147
vn 0.146399 0.923931 -0.353439
vn 0.392745 0.831566 -0.392745
vn 0.146399 0.923931 -0.353439
vn 0.270511 0.923931 -0.270511
vn 0.270511 0.923931 -0.270511
vn 0.146399 0.923931 -0.353439
vn 0.074631 0.980799 -0.180174
vn 0.270511 0.923931 -0.270511
vn 0.074631 0.980799 -0.180174
vn 0.137899 0.980799 -0.137899
vn 0.137899 0.980799 -0.137899
vn 0.074631 0.980799 -0.180174
vn 0.000000 1.000000 0.000000
vn 0.000000 0.980799 0.195019
vn 0.074631 0.980799 0.180174
vn 0.000000 1.000000 0.000000
vn 0.000000 0.923931 0.382560
vn 0.146400 0.923931 0.353439
vn 0.074631 0.980799 0.180174
vn 0.000000 0.923931 0.382560
vn 0.074631 0.980799 0.180174
vn 0.000000 0.980799 0.195019
vn 0.000000 0.831566 0.555426
vn 0.212553 0.831566 0.513147
vn 0.146400 0.923931 0.353439
vn 0.000000 0.831566 0.555426
vn 0.146400 0.923931 0.353439
vn 0.000000 0.923931 0.382560
vn 0.000000 0.707239 0.706975
vn 0.270548 0.707239 0.653159
vn 0.212553 0.831566 0.513147
vn 0.000000 0.707239 0.706975
vn 0.212553 0.831566 0.513147
vn 0.000000 0.831566 0.555426
vn 0.000000 0.555712 0.831375
vn 0.318154 0.555712 0.768090
vn 0.270548 0.707239 0.653159
vn 0.000000 0.555712 0.831375
vn 0.270548 0.707239 0.653159
vn 0.000000 0.707239 0.706975
vn 0.000000 0.382804 0.923830
vn 0.353535 0.382804 0.853507
vn 0.318154 0.555712 0.768090
vn 0.000000 0.382804 0.923830
vn 0.318154 0.555712 0.768090
vn 0.000000 0.555712 0.831375
vn 0.000000 0.195159 0.980772
vn 0.375326 0.195159 0.906115
vn 0.353535 0.382804 0.853507
vn 0.000000 0.195159 0.980772
vn 0.353535 0.382804 0.853507
vn 0.000000 0.382804 0.923830
vn 0.000000 0.000000 1.000000
vn 0.382684 0.000000 0.923879
vn 0.375326 0.195159 0.906115
vn 0.000000 0.000000 1.000000
vn 0.375326 0.195159 0.906115
vn 0.000000 0.195159 0.980772
vn 0.382683 0.000000 -0.923880
vn -0.000000 0.000000 -1.000000
vn -0.000000 0.195159 -0.980772
vn 0.382683 0.000000 -0.923880
vn -0.000000 0.195159 -0.980772
vn 0.375325 0.195159 -0.906115
vn 0.375325 0.195159 -0.906115
vn -0.000000 0.195159 -0.980772
vn -0.000000 0.382804 -0.923830
vn 0.375325 0.195159 -0.906115
vn -0.000000 0.382804 -0.923830
vn 0.353534 0.382804 -0.853507
vn 0.353534 0.382804 -0.853507
vn -0.000000 0.382804 -0.923830
vn -0.000000 0.555713 -0.831375
vn 0.353534 0.382804 -0.853507
vn -0.000000 0.555713 -0.831375
vn 0.318153 0.555712 -0.768090
vn 0.318153 0.555712 -0.768090
vn -0.000000 0.555713 -0.831375
vn -0.000000 0.707239 -0.706975
vn 0.318153 0.555712 -0.768090
vn -0.000000 0.707239 -0.706975
vn 0.270548 0.707239 -0.653160
vn 0.270548 0.707239 -0.653160
vn -0.000000 0.707239 -0.706975
vn -0.000000 0.831566 -0.555426
vn 0.270548 0.707239 -0.653160
vn -0.000000 0.831566 -0.555426
vn 0.212552 0.831566 -0.513147
vn 0.212552 0.831566 -0.513147
vn -0.000000 0.831566 -0.555426
vn -0.000000 0.923931 -0.382560
vn 0.212552 0.831566 -0.513147
vn -0.000000 0.923931 -0.382560
vn 0.146399 0.923931 -0.353439
vn 0.146399 0.923931 -0.353439
vn -0.000000 0.923931 -0.382560
vn -0.000000 0.980799 -0.195019
vn 0.146399 0.923931 -0.353439
vn -0.000000 0.980799 -0.195019
vn 0.074631 0.980799 -0.180174
vn 0.074631 0.980799 -0.180174
vn -0.000000 0.980799 -0.195019
vn 0.000000 1.000000 0.000000
vn -0.074631 0.980799 0.180174
vn 0.000000 0.980799 0.195019
vn 0.000000 1.000000 0.000000
vn -0.146399 0.923931 0.353439
vn 0.000000 0.923931 0.382560
vn 0.000000 0.980799 0.195019
vn -0.146399 0.923931 0.353439
vn 0.000000 0.980799 0.195019
vn -0.074631 0.980799 0.180174
vn -0.212552 0.831566 0.513147
vn 0.000000 0.831566 0.555426
vn 0.000000 0.923931 0.382560
vn -0.212552 0.831566 0.513147
vn 0.000000 0.923931 0.382560
vn -0.146399 0.923931 0.353439
vn -0.270547 0.707239 0.653160
vn 0.000000 0.707239 0.706975
vn 0.000000 0.831566 0.555426
vn -0.270547 0.707239 0.653160
vn 0.000000 0.831566 0.555426
vn -0.212552 0.831566 0.513147
vn -0.318153 0.555712 0.768090
vn 0.000000 0.555712 0.831375
vn 0.000000 0.707239 0.706975
vn -0.318153 0.555712 0.768090
vn 0.000000 0.707239 0.706975
vn -0.270547 0.707239 0.653160
vn -0.353534 0.382804 0.853507
vn 0.000000 0.382804 0.923830
vn 0.000000 0.555712 0.831375
vn -0.353534 0.382804 0.853507
vn 0.000000 0.555712 0.831375
vn -0.318153 0.555712 0.768090
vn -0.375325 0.195159 0.906115
vn 0.000000 0.195159 0.980772
vn 0.000000 0.382804 0.923830
vn -0.375325 0.195159 0.906115
vn 0.000000 0.382804 0.923830
vn -0.353534 0.382804 0.853507
vn -0.382683 0.000000 0.923880
vn 0.000000 0.000000 1.000000
vn 0.000000 0.195159 0.980772
vn -0.382683 0.000000 0.923880
vn 0.000000 0.195159 0.980772
vn -0.375325 0.195159 0.906115
vn -0.000000 0.000000 -1.000000
vn -0.382684 0.000000 -0.923879
vn -0.375325 0.195159 -0.906115
vn -0.000000 0.000000 -1.000000
vn -0.375325 0.195159 -0.906115
vn -0.000000 0.195159 -0.980772
vn -0.000000 0.195159 -0.980772
vn -0.375325 0.195159 -0.906115
vn -0.353535 0.382804 -0.853507
vn -0.000000 0.195159 -0.980772
vn -0.353535 0.382804 -0.853507
vn -0.000000 0.382804 -0.923830
vn -0.000000 0.382804 -0.923830
vn -0.353535 0.382804 -0.853507
vn -0.318153 0.555712 -0.768090
vn -0.000000 0.382804 -0.923830
vn -0.318153 0.555712 -0.768090
vn -0.000000 0.555713 -0.831375
vn -0.000000 0.555713 -0.831375
vn -0.318153 0.555712 -0.768090
vn -0.270548 0.707239 -0.653160
vn -0.000000 0.555713 -0.831375
vn -0.270548 0.707239 -0.653160
vn -0.000000 0.707239 -0.706975
vn -0.000000 0.707239 -0.706975
vn -0.270548 0.707239 -0.653160
vn -0.212552 0.831566 -0.513147
vn -0.000000 0.707239 -0.706975
vn -0.212552 0.831566 -0.513147
vn -0.000000 0.831566 -0.555426
vn -0.000000 0.831566 -0.555426
vn -0.212552 0.831566 -0.513147
vn -0.146399 0.923931 -0.353439
vn -0.000000 0.831566 -0.555426
vn -0.146399 0.923931 -0.353439
vn -0.000000 0.923931 -0.382560
vn -0.000000 0.923931 -0.382560
vn -0.146399 0.923931 -0.353439
vn -0.074631 0.980799 -0.180174
vn -0.000000 0.923931 -0.382560
vn -0.074631 0.980799 -0.180174
vn -0.000000 0.980799 -0.195019
vn -0.000000 0.980799 -0.195019
vn -0.074631 0.980799 -0.180174
vn 0.000000 1.000000 0.000000
vn -0.137899 0.980799 0.137899
vn -0.074631 0.980799 0.180174
vn 0.000000 1.000000 0.000000
vn -0.270511 0.923931 0.270511
vn -0.146399 0.923931 0.353439
vn -0.074631 0.980799 0.180174
vn -0.270511 0.923931 0.270511
vn -0.074631 0.980799 0.180174
vn -0.137899 0.980799 0.137899
vn -0.392745 0.831566 0.392746
vn -0.212552 0.831566 0.513147
vn -0.146399 0.923931 0.353439
vn -0.392745 0.831566 0.392746
vn -0.146399 0.923931 0.353439
vn -0.270511 0.923931 0.270511
vn -0.499907 0.707239 0.499907
vn -0.270547 0.707239 0.653160
vn -0.212552 0.831566 0.513147
vn -0.499907 0.707239 0.499907
vn -0.212552 0.831566 0.513147
vn -0.392745 0.831566 0.392746
vn -0.587870 0.555712 0.587871
vn -0.318153 0.555712 0.768090
vn -0.270547 0.707239 0.653160
vn -0.587870 0.555712 0.587871
vn -0.270547 0.707239 0.653160
vn -0.499907 0.707239 0.499907
vn -0.653246 0.382804 0.653246
vn -0.353534 0.382804 0.853507
vn -0.318153 0.555712 0.768090
vn -0.653246 0.382804 0.653246
vn -0.318153 0.555712 0.768090
vn -0.587870 0.555712 0.587871
vn -0.693510 0.195159 0.693510
vn -0.375325 0.195159 0.906115
vn -0.353534 0.382804 0.853507
vn -0.693510 0.195159 0.693510
vn -0.353534 0.382804 0.853507
vn -0.653246 0.382804 0.653246
vn -0.180174 0.980799 0.074631
vn -0.137899 0.980799 0.137899
vn 0.000000 1.000000 0.000000
vn -0.382684 0.000000 -0.923879
vn -0.707107 0.000000 -0.707107
vn -0.693510 0.195159 -0.693510
vn -0.382684 0.000000 -0.923879
vn -0.693510 0.195159 -0.693510
vn -0.375325 0.195159 -0.906115
vn -0.375325 0.195159 -0.906115
vn -0.693510 0.195159 -0.693510
vn -0.653246 0.382804 -0.653246
vn -0.375325 0.195159 -0.906115
vn -0.653246 0.382804 -0.653246
vn -0.353535 0.382804 -0.853507
vn -0.353535 0.382804 -0.853507
vn -0.653246 0.382804 -0.653246
vn -0.587871 0.555712 -0.587870
vn -0.353535 0.382804 -0.853507
vn -0.587871 0.555712 -0.587870
vn -0.318153 0.555712 -0.768090
vn -0.318153 0.555712 -0.768090
vn -0.587871 0.555712 -0.587870
vn -0.499907 0.707239 -0.499907
vn -0.318153 0.555712 -0.768090
vn -0.499907 0.707239 -0.499907
vn -0.270548 0.707239 -0.653160
vn -0.270548 0.707239 -0.653160
vn -0.499907 0.707239 -0.499907
vn -0.392746 0.831566 -0.392745
vn -0.270548 0.707239 -0.653160
vn -0.392746 0.831566 -0.392745
vn -0.212552 0.831566 -0.513147
vn -0.212552 0.831566 -0.513147
vn -0.392746 0.831566 -0.392745
vn -0.270511 0.923931 -0.270511
vn -0.212552 0.831566 -0.513147
vn -0.270511 0.923931 -0.270511
vn -0.146399 0.923931 -0.353439
vn -0.146399 0.923931 -0.353439
vn -0.270511 0.923931 -0.270511
vn -0.137899 0.980799 -0.137899
vn -0.146399 0.923931 -0.353439
vn -0.137899 0.980799 -0.137899
vn -0.074631 0.980799 -0.180174
vn -0.074631 0.980799 -0.180174
vn -0.137899 0.980799 -0.137899
vn 0.000000 1.000000 0.000000
vn -0.353439 0.923931 0.146399
vn -0.270511 0.923931 0.270511
vn -0.137899 0.980799 0.137899
vn -0.353439 0.923931 0.146399
vn -0.137899 0.980799 0.137899
vn -0.180174 0.980799 0.074631
vn -0.513147 0.831566 0.212552
vn -0.392745 0.831566 0.392746
vn -0.270511 0.923931 0.270511
vn -0.513147 0.831566 0.212552
vn -0.270511 0.923931 0.270511
vn -0.353439 0.923931 0.146399
vn -0.653160 0.707239 0.270548
vn -0.499907 0.707239 0.499907
vn -0.392745 0.831566 0.392746
vn -0.653160 0.707239 0.270548
vn -0.392745 0.831566 0.392746
vn -0.513147 0.831566 0.212552
vn -0.768090 0.555712 0.318154
vn -0.587870 0.555712 0.587871
vn -0.499907 0.707239 0.499907
vn -0.768090 0.555712 0.318154
vn -0.499907 0.707239 0.499907
vn -0.653160 0.707239 0.270548
vn -0.853507 0.382804 0.353535
vn -0.653246 0.382804 0.653246
vn -0.587870 0.555712 0.587871
vn -0.853507 0.382804 0.353535
vn -0.587870 0.555712 0.587871
vn -0.768090 0.555712 0.318154
vn -0.906115 0.195159 0.375325
vn -0.693510 0.195159 0.693510
vn -0.653246 0.382804 0.653246
vn -0.906115 0.195159 0.375325
vn -0.653246 0.382804 0.653246
vn -0.853507 0.382804 0.353535
vn -0.195019 0.980799 0.000000
vn -0.180174 0.980799 0.074631
vn 0.000000 1.000000 0.000000
vn -0.382560 0.923931 0.000000
vn -0.353439 0.923931 0.146399
vn -0.180174 0.980799 0.074631
vn -0.382560 0.923931 0.000000
vn -0.180174 0.980799 0.074631
vn -0.195019 0.980799 0.000000
vn -0.707107 0.000000 -0.707107
vn -0.923880 0.000000 -0.382683
vn -0.906115 0.195159 -0.375325
vn -0.707107 0.000000 -0.707107
vn -0.906115 0.195159 -0.375325
vn -0.693510 0.195159 -0.693510
vn -0.693510 0.195159 -0.693510
vn -0.906115 0.195159 -0.375325
vn -0.853507 0.382804 -0.353534
vn -0.693510 0.195159 -0.693510
vn -0.853507 0.382804 -0.353534
vn -0.653246 0.382804 -0.653246
vn -0.653246 0.382804 -0.653246
vn -0.853507 0.382804 -0.353534
vn -0.768090 0.555712 -0.318153
vn -0.653246 0.382804 -0.653246
vn -0.768090 0.555712 -0.318153
vn -0.587871 0.555712 -0.587870
vn -0.587871 0.555712 -0.587870
vn -0.768090 0.555712 -0.318153
vn -0.653160 0.707239 -0.270547
vn -0.587871 0.555712 -0.587870
vn -0.653160 0.707239 -0.270547
vn -0.499907 0.707239 -0.499907
vn -0.499907 0.707239 -0.499907
vn -0.653160 0.707239 -0.270547
vn -0.513147 0.831566 -0.212552
vn -0.499907 0.707239 -0.499907
vn -0.513147 0.831566 -0.212552
vn -0.392746 0.831566 -0.392745
vn -0.392746 0.831566 -0.392745
vn -0.513147 0.831566 -0.212552
vn -0.353439 0.923931 -0.146399
vn -0.392746 0.831566 -0.392745
vn -0.353439 0.923931 -0.146399
vn -0.270511 0.923931 -0.270511
vn -0.270511 0.923931 -0.270511
vn -0.353439 0.923931 -0.146399
vn -0.180174 0.980799 -0.074631
vn -0.270511 0.923931 -0.270511
vn -0.180174 0.980799 -0.074631
vn -0.137899 0.980799 -0.137899
vn -0.137899 0.980799 -0.137899
vn -0.180174 0.980799 -0.074631
vn 0.000000 1.000000 0.000000
vn -0.555426 0.831566 0.000000
vn -0.513147 0.831566 0.212552
vn -0.353439 0.923931 0.146399
vn -0.555426 0.831566 0.000000
vn -0.353439 0.923931 0.146399
vn -0.382560 0.923931 0.000000
vn -0.706975 0.707239 0.000000
vn -0.653160 0.707239 0.270548
vn -0.513147 0.831566 0.212552
vn -0.706975 0.707239 0.000000
vn -0.513147 0.831566 0.212552
vn -0.555426 0.831566 0.000000
vn -0.831375 0.555712 0.000000
vn -0.768090 0.555712 0.318154
vn -0.653160 0.707239 0.270548
vn -0.831375 0.555712 0.000000
vn -0.653160 0.707239 0.270548
vn -0.706975 0.707239 0.000000
vn -0.923830 0.382804 0.000000
vn -0.853507 0.382804 0.353535
vn -0.768090 0.555712 0.318154
vn -0.923830 0.382804 0.000000
vn -0.768090 0.555712 0.318154
vn -0.831375 0.555712 0.000000
vn -0.980772 0.195159 0.000000
vn -0.906115 0.195159 0.375325
vn -0.853507 0.382804 0.353535
vn -0.980772 0.195159 0.000000
vn -0.853507 0.382804 0.353535
vn -0.923830 0.382804 0.000000
vn -1.000000 0.000000 0.000000
vn -0.923879 0.000000 0.382684
vn -0.906115 0.195159 0.375325
vn -1.000000 0.000000 0.000000
vn -0.906115 0.195159 0.375325
vn -0.980772 0.195159 0.000000
vn -0.180174 0.980799 -0.074631
vn -0.195019 0.980799 0.000000
vn 0.000000 1.000000 0.000000
vn -0.353439 0.923931 -0.146399
vn -0.382560 0.923931 0.000000
vn -0.195019 0.980799 0.000000
vn -0.353439 0.923931 -0.146399
vn -0.195019 0.980799 0.000000
vn -0.180174 0.980799 -0.074631
vn -0.923880 0.000000 -0.382683
vn -1.000000 0.000000 0.000000
vn -0.980772 0.195159 0.000000
vn -0.923880 0.000000 -0.382683
vn -0.980772 0.195159 0.000000
vn -0.906115 0.195159 -0.375325
vn -0.906115 0.195159 -0.375325
vn -0.980772 0.195159 0.000000
vn -0.923830 0.382804 0.000000
vn -0.906115 0.195159 -0.375325
vn -0.923830 0.382804 0.000000
vn -0.853507 0.382804 -0.353534
vn -0.853507 0.382804 -0.353534
vn -0.923830 0.382804 0.000000
vn -0.831375 0.555712 0.000000
vn -0.853507 0.382804 -0.353534
vn -0.831375 0.555712 0.000000
vn -0.768090 0.555712 -0.318153
vn -0.768090 0.555712 -0.318153
vn -0.831375 0.555712 0.000000
vn -0.706975 0.707239 0.000000
vn -0.768090 0.555712 -0.318153
vn -0.706975 0.707239 0.000000
vn -0.653160 0.707239 -0.270547
vn -0.653160 0.707239 -0.270547
vn -0.706975 0.707239 0.000000
vn -0.555426 0.831566 0.000000
vn -0.653160 0.707239 -0.270547
vn -0.555426 0.831566 0.000000
vn -0.513147 0.831566 -0.212552
vn -0.513147 0.831566 -0.212552
vn -0.555426 0.831566 0.000000
vn -0.382560 0.923931 0.000000
vn -0.513147 0.831566 -0.212552
vn -0.382560 0.923931 0.000000
vn -0.353439 0.923931 -0.146399
f 128/1/1 9/2/2 1/3/3
f 127/4/4 8/5/5 9/6/6
f 127/7/7 9/8/8 128/9/9
f 126/10/10 7/11/11 8/12/12
f 126/13/13 8/14/14 127/15/15
f 125/16/16 6/17/17 7/18/18
f 125/19/19 7/20/20 126/21/21
f 124/22/22 5/23/23 6/24/24
f 124/25/25 6/26/26 125/27/27
f 123/28/28 4/29/29 5/30/30
f 123/31/31 5/32/32 124/33/33
f 122/34/34 3/35/35 4/36/36
f 122/37/37 4/38/38 123/39/39
f 121/40/40 2/41/41 3/42/42
f 121/43/43 3/44/44 122/45/45
f 2/46/46 10/47/47 11/48/48
f 2/49/49 11/50/50 3/51/51
f 3/52/52 11/53/53 12/54/54
f 3/55/55 12/56/56 4/57/57
f 4/58/58 12/59/59 13/60/60
f 4/61/61 13/62/62 5/63/63
f 5/64/64 13/65/65 14/66/66
f 5/67/67 14/68/68 6/69/69
f 6/70/70 14/71/71 15/72/72
f 6/73/73 15/74/74 7/75/75
f 7/76/76 15/77/77 16/78/78
f 7/79/79 16/80/80 8/81/81
f 8/82/82 16/83/83 17/84/84
f 8/85/85 17/86/86 9/87/87
f 9/88/88 17/89/89 1/90/90
f 120/91/91 128/92/92 1/93/93
f 119/94/94 127/95/95 128/96/96
f 119/97/97 128/98/98 120/99/99
f 118/100/100 126/101/101 127/102/102
f 118/103/103 127/104/104 119/105/105
f 117/106/106 125/107/107 126/108/108
f 117/109/109 126/110/110 118/111/111
f 116/112/112 124/113/113 125/114/114
f 116/115/115 125/116/116 117/117/117
f 115/118/118 123/119/119 124/120/120
f 115/121/121 124/122/122 116/123/123
f 114/124/124 122/125/125 123/126/126
f 114/127/127 123/128/128 115/129/129
f 113/130/130 121/131/131 122/132/132
f 113/133/133 122/134/134 114/135/135
f 10/136/136 18/137/137 19/138/138
f 10/139/139 19/140/140 11/141/141
f 11/142/142 19/143/143 20/144/144
f 11/145/145 20/146/146 12/147/147
f 12/148/148 20/149/149 21/150/150
f 12/151/151 21/152/152 13/153/153
f 13/154/154 21/155/155 22/156/156
f 13/157/157 22/158/158 14/159/159
f 14/160/160 22/161/161 23/162/162
f 14/163/163 23/164/164 15/165/165
f 15/166/166 23/167/167 24/168/168
f 15/169/169 24/170/170 16/171/171
f 16/172/172 24/173/173 25/174/174
f 16/175/175 25/176/176 17/177/177
f 17/178/178 25/179/179 1/180/180
f 112/181/181 120/182/182 1/183/183
f 111/184/184 119/185/185 120/186/186
f 111/187/187 120/188/188 112/189/189
f 110/190/190 118/191/191 119/192/192
f 110/193/193 119/194/194 111/195/195
f 109/196/196 117/197/197 118/198/198
f 109/199/199 118/200/200 110/201/201
f 108/202/202 116/203/203 117/204/204
f 108/205/205 117/206/206 109/207/207
f 107/208/208 115/209/209 116/210/210
f 107/211/211 116/212/212 108/213/213
f 106/214/214 114/215/215 115/216/216
f 106/217/217 115/218/218 107/219/219
f 105/220/220 113/221/221 114/222/222
f 105/223/223 114/224/224 106/225/225
f 18/226/226 26/227/227 27/228/228
f 18/229/229 27/230/230 19/231/231
f 19/232/232 27/233/233 28/234/234
f 19/235/235 28/236/236 20/237/237
f 20/238/238 28/239/239 29/240/240
f 20/241/241 29/242/242 21/243/243
f 21/244/244 29/245/245 30/246/246
f 21/247/247 30/248/248 22/249/249
f 22/250/250 30/251/251 31/252/252
f 22/253/253 31/254/254 23/255/255
f 23/256/256 31/257/257 32/258/258
f 23/259/259 32/260/260 24/261/261
f 24/262/262 32/263/263 33/264/264
f 24/265/265 33/266/266 25/267/267
f 25/268/268 33/269/269 1/270/270
f 104/271/271 112/272/272 1/273/273
f 103/274/274 111/275/275 112/276/276
f 103/277/277 112/278/278 104/279/279
f 102/280/280 110/281/281 111/282/282
f 102/283/283 111/284/284 103/285/285
f 101/286/286 109/287/287 110/288/288
f 101/289/289 110/290/290 102/291/291
f 100/292/292 108/293/293 109/294/294
f 100/295/295 109/296/296 101/297/297
f 99/298/298 107/299/299 108/300/300
f 99/301/301 108/302/302 100/303/303
f 98/304/304 106/305/305 107/306/306
f 98/307/307 107/308/308 99/309/309
f 97/310/310 105/311/311 106/312/312
f 97/313/313 106/314/314 98/315/315
f 26/316/316 34/317/317 35/318/318
f 26/319/319 35/320/320 27/321/321
f 27/322/322 35/323/323 36/324/324
f 27/325/325 36/326/326 28/327/327
f 28/328/328 36/329/329 37/330/330
f 28/331/331 37/332/332 29/333/333
f 29/334/334 37/335/335 38/336/336
f 29/337/337 38/338/338 30/339/339
f 30/340/340 38/341/341 39/342/342
f 30/343/343 39/344/344 31/345/345
f 31/346/346 39/347/347 40/348/348
f 31/349/349 40/350/350 32/351/351
f 32/352/352 40/353/353 41/354/354
f 32/355/355 41/356/356 33/357/357
f 33/358/358 41/359/359 1/360/360
f 96/361/361 104/362/362 1/363/363
f 95/364/364 103/365/365 104/366/366
f 95/367/367 104/368/368 96/369/369
f 94/370/370 102/371/371 103/372/372
f 94/373/373 103/374/374 95/375/375
f 93/376/376 101/377/377 102/378/378
f 93/379/379 102/380/380 94/381/381
f 92/382/382 100/383/383 101/384/384
f 92/385/385 101/386/386 93/387/387
f 91/388/388 99/389/389 100/390/390
f 91/391/391 100/392/392 92/393/393
f 90/394/394 98/395/395 99/396/396
f 90/397/397 99/398/398 91/399/399
f 89/400/400 97/401/401 98/402/402
f 89/403/403 98/404/404 90/405/405
f 34/406/406 42/407/407 43/408/408
f 34/409/409 43/410/410 35/411/411
f 35/412/412 43/413/413 44/414/414
f 35/415/415 44/416/416 36/417/417
f 36/418/418 44/419/419 45/420/420
f 36/421/421 45/422/422 37/423/423
f 37/424/424 45/425/425 46/426/426
f 37/427/427 46/428/428 38/429/429
f 38/430/430 46/431/431 47/432/432
f 38/433/433 47/434/434 39/435/435
f 39/436/436 47/437/437 48/438/438
f 39/439/439 48/440/440 40/441/441
f 40/442/442 48/443/443 49/444/444
f 40/445/445 49/446/446 41/447/447
f 41/448/448 49/449/449 1/450/450
f 88/451/451 96/452/452 1/453/453
f 87/454/454 95/455/455 96/456/456
f 87/457/457 96/458/458 88/459/459
f 86/460/460 94/461/461 95/462/462
f 86/463/463 95/464/464 87/465/465
f 85/466/466 93/467/467 94/468/468
f 85/469/469 94/470/470 86/471/471
f 84/472/472 92/473/473 93/474/474
f 84/475/475 93/476/476 85/477/477
f 83/478/478 91/479/479 92/480/480
f 83/481/481 92/482/482 84/483/483
f 82/484/484 90/485/485 91/486/486
f 82/487/487 91/488/488 83/489/489
f 81/490/490 88/491/491 1/492/492
f 42/493/493 50/494/494 51/495/495
f 42/496/496 51/497/497 43/498/498
f 43/499/499 51/500/500 52/501/501
f 43/502/502 52/503/503 44/504/504
f 44/505/505 52/506/506 53/507/507
f 44/508/508 53/509/509 45/510/510
f 45/511/511 53/512/512 54/513/513
f 45/514/514 54/515/515 46/516/516
f 46/517/517 54/518/518 55/519/519
f 46/520/520 55/521/521 47/522/522
f 47/523/523 55/524/524 56/525/525
f 47/526/526 56/527/527 48/528/528
f 48/529/529 56/530/530 57/531/531
f 48/532/532 57/533/533 49/534/534
f 49/535/535 57/536/536 1/537/537
f 80/538/538 87/539/539 88/540/540
f 80/541/541 88/542/542 81/543/543
f 79/544/544 86/545/545 87/546/546
f 79/547/547 87/548/548 80/549/549
f 78/550/550 85/551/551 86/552/552
f 78/553/553 86/554/554 79/555/555
f 77/556/556 84/557/557 85/558/558
f 77/559/559 85/560/560 78/561/561
f 76/562/562 83/563/563 84/564/564
f 76/565/565 84/566/566 77/567/567
f 75/568/568 82/569/569 83/570/570
f 75/571/571 83/572/572 76/573/573
f 73/574/574 81/575/575 1/576/576
f 72/577/577 80/578/578 81/579/579
f 72/580/580 81/581/581 73/582/582
f 50/583/583 58/584/584 59/585/585
f 50/586/586 59/587/587 51/588/588
f 51/589/589 59/590/590 60/591/591
f 51/592/592 60/593/593 52/594/594
f 52/595/595 60/596/596 61/597/597
f 52/598/598 61/599/599 53/600/600
f 53/601/601 61/602/602 62/603/603
f 53/604/604 62/605/605 54/606/606
f 54/607/607 62/608/608 63/609/609
f 54/610/610 63/611/611 55/612/612
f 55/613/613 63/614/614 64/615/615
f 55/616/616 64/617/617 56/618/618
f 56/619/619 64/620/620 65/621/621
f 56/622/622 65/623/623 57/624/624
f 57/625/625 65/626/626 1/627/627
f 71/628/628 79/629/629 80/630/630
f 71/631/631 80/632/632 72/633/633
f 70/634/634 78/635/635 79/636/636
f 70/637/637 79/638/638 71/639/639
f 69/640/640 77/641/641 78/642/642
f 69/643/643 78/644/644 70/645/645
f 68/646/646 76/647/647 77/648/648
f 68/649/649 77/650/650 69/651/651
f 67/652/652 75/653/653 76/654/654
f 67/655/655 76/656/656 68/657/657
f 66/658/658 74/659/659 75/660/660
f 66/661/661 75/662/662 67/663/663
f 65/664/664 73/665/665 1/666/666
f 64/667/667 72/668/668 73/669/669
f 64/670/670 73/671/671 65/672/672
f 58/673/673 66/674/674 67/675/675
f 58/676/676 67/677/677 59/678/678
f 59/679/679 67/680/680 68/681/681
f 59/682/682 68/683/683 60/684/684
f 60/685/685 68/686/686 69/687/687
f 60/688/688 69/689/689 61/690/690
f 61/691/691 69/692/692 70/693/693
f 61/694/694 70/695/695 62/696/696
f 62/697/697 70/698/698 71/699/699
f 62/700/700 71/701/701 63/702/702
f 63/703/703 71/704/704 72/705/705
f 63/706/706 72/707/707 64/708/708
