v 5.000000 0.000000 0.000000
v 4.619398 0.000000 -1.913417
v 3.535534 0.000000 -3.535534
v 1.913417 0.000000 -4.619398
v -0.000001 0.000000 -5.000000
v -1.913418 0.000000 -4.619397
v -3.535534 0.000000 -3.535533
v -4.619398 0.000000 -1.913416
v -5.000000 0.000000 0.000001
v -4.619397 0.000000 1.913418
v 4.619398 0.000000 1.913414
v -5.000000 5.613234 -2.346814
v -4.619398 5.613234 -4.260232
v -4.619397 5.613234 -0.433397
v -3.535534 5.613234 -5.882349
v -1.913418 5.613234 -6.966213
v -0.000001 5.613234 -7.346816
v 1.913417 5.613234 -6.966214
v 3.535534 5.613234 -5.882350
v 4.619398 5.613234 -4.260233
v 4.619398 5.613234 -0.433401
v 5.000000 5.613234 -2.346816
vt 0.000000 0.000000
vt 0.000000 0.000000
vt 0.000000 0.000000
vt 0.000000 0.000000
vt 0.000000 0.000000
vt 0.000000 0.000000
vt 0.000000 0.000000
vt 0.000000 0.000000
vt 0.000000 0.000000
vt 0.000000 0.000000
vt 0.000000 0.000000
vt 0.000000 0.000000
vt 0.000000 0.000000
vt 0.000000 0.000000
vt 0.000000 0.000000
vt 0.000000 0.000000
vt 0.000000 0.000000
vt 0.000000 0.000000
vt 0.000000 0.000000
vt 0.000000 0.000000
vt 0.000000 0.000000
vt 0.000000 0.000000
vt 0.000000 0.000000
vt 0.000000 0.000000
vt 0.000000 0.000000
vt 0.000000 0.000000
vt 0.000000 0.000000
vt 0.000000 0.000000
vt 0.000000 0.000000
vt 0.000000 0.000000
vt 0.000000 0.000000
vt 0.000000 0.000000
vt 0.000000 0.000000
vt 0.000000 0.000000
vt 0.000000 0.000000
vt 0.000000 0.000000
vt 0.000000 0.000000
vt 0.000000 0.000000
vt 0.000000 0.000000
vt 0.000000 0.000000
vt 0.000000 0.000000
vt 0.000000 0.000000
vt 0.000000 0.000000
vt 0.000000 0.000000
vt 0.000000 0.000000
vt 0.000000 0.000000
vt 0.000000 0.000000
vt 0.000000 0.000000
vt 0.000000 0.000000
vt 0.000000 0.000000
vt 0.000000 0.000000
vt 0.000000 0.000000
vt 0.000000 0.000000
vt 0.000000 0.000000
vt 0.000000 0.000000
vt 0.000000 0.000000
vt 0.000000 0.000000
vt 0.000000 0.000000
vt 0.000000 0.000000
vt 0.000000 0.000000
vt 0.000000 0.000000
vt 0.000000 0.000000
vt 0.000000 0.000000
vt 0.000000 0.000000
vt 0.000000 0.000000
vt 0.000000 0.000000
vt 0.000000 0.000000
vt 0.000000 0.000000
vt 0.000000 0.000000
vt 0.000000 0.000000
vt 0.000000 0.000000
vt 0.000000 0.000000
vt 0.000000 0.000000
vt 0.000000 0.000000
vt 0.000000 0.000000
vt 0.000000 0.000000
vt 0.000000 0.000000
vt 0.000000 0.000000
vt 0.000000 0.000000
vt 0.000000 0.000000
vt 0.000000 0.000000
vt 0.000000 0.000000
vt 0.000000 0.000000
vt 0.000000 0.000000
vt 0.000000 0.000000
vt 0.000000 0.000000
vt 0.000000 0.000000
vn -0.358789 0.360049 0.861183
vn 0.000000 0.385731 0.922611
vn 0.000000 0.385731 0.922611
vn -0.358789 0.360049 0.861183
vn 0.000000 0.385731 0.922611
vn -0.358789 0.360049 0.861183
vn -0.913263 0.157136 0.375845
vn -0.680334 0.282703 0.676184
vn -0.680334 0.282703 0.676184
vn -0.913263 0.157136 0.375845
vn -0.680334 0.282703 0.676184
vn -0.913263 0.157136 0.375845
vn 0.000000 0.385731 0.922611
vn 0.358789 0.360049 0.861182
vn 0.358789 0.360049 0.861182
vn 0.000000 0.385731 0.922611
vn 0.358789 0.360049 0.861182
vn 0.000000 0.385731 0.922611
vn -0.977539 -0.081295 -0.194445
vn -1.000000 -0.000000 -0.000000
vn -1.000000 -0.000000 -0.000000
vn -0.977539 -0.081295 -0.194445
vn -1.000000 -0.000000 -0.000000
vn -0.977539 -0.081295 -0.194445
vn 0.358789 0.360049 0.861182
vn 0.680334 0.282703 0.676183
vn 0.680334 0.282703 0.676183
vn 0.358789 0.360049 0.861182
vn 0.680334 0.282703 0.676183
vn 0.358789 0.360049 0.861182
vn -0.680334 0.282703 0.676184
vn -0.358789 0.360049 0.861183
vn -0.358789 0.360049 0.861183
vn -0.680334 0.282703 0.676184
vn -0.358789 0.360049 0.861183
vn -0.680334 0.282703 0.676184
vn 0.680334 0.282703 0.676183
vn 0.913263 0.157136 0.375845
vn 0.913263 0.157136 0.375845
vn 0.680334 0.282703 0.676183
vn 0.913263 0.157136 0.375845
vn 0.680334 0.282703 0.676183
vn 1.000000 -0.000000 -0.000000
vn 0.977539 -0.081295 -0.194445
vn 0.977539 -0.081295 -0.194445
vn 1.000000 -0.000000 -0.000000
vn 0.977539 -0.081295 -0.194445
vn 1.000000 -0.000000 -0.000000
vn 0.913263 0.157136 0.375845
vn 1.000000 -0.000000 -0.000000
vn 1.000000 -0.000000 -0.000000
vn 0.913263 0.157136 0.375845
vn 1.000000 -0.000000 -0.000000
vn 0.913263 0.157136 0.375845
vn -1.000000 -0.000000 -0.000000
vn -0.913263 0.157136 0.375845
vn -0.913263 0.157136 0.375845
vn -1.000000 -0.000000 -0.000000
vn -0.913263 0.157136 0.375845
vn -1.000000 -0.000000 -0.000000
vn 0.000000 1.000000 0.000000
vn 0.000000 1.000000 0.000000
vn 0.000000 1.000000 0.000000
vn 0.000000 1.000000 0.000000
vn 0.000000 1.000000 0.000000
vn 0.000000 1.000000 0.000000
vn 0.000000 1.000000 0.000000
vn 0.000000 1.000000 0.000000
vn 0.000000 1.000000 0.000000
vn 0.000000 1.000000 0.000000
vn 0.000000 1.000000 0.000000
vn 0.000000 1.000000 0.000000
vn 0.000000 1.000000 0.000000
vn 0.000000 1.000000 0.000000
vn 0.000000 1.000000 0.000000
vn 0.000000 1.000000 0.000000
vn 0.000000 1.000000 0.000000
vn 0.000000 1.000000 0.000000
vn 0.000000 1.000000 0.000000
vn 0.000000 1.000000 0.000000
vn 0.000000 1.000000 0.000000
vn 0.000000 1.000000 0.000000
vn 0.000000 1.000000 0.000000
vn 0.000000 1.000000 0.000000
vn 0.000000 1.000000 0.000000
vn 0.000000 1.000000 0.000000
vn 0.000000 1.000000 0.000000
f 18/1/1 17/2/2 5/3/3
f 18/4/4 5/5/5 4/6/6
f 20/7/7 19/8/8 3/9/9
f 20/10/10 3/11/11 2/12/12
f 17/13/13 16/14/14 6/15/15
f 17/16/16 6/17/17 5/18/18
f 21/19/19 22/20/20 1/21/21
f 21/22/22 1/23/23 11/24/24
f 16/25/25 15/26/26 7/27/27
f 16/28/28 7/29/29 6/30/30
f 19/31/31 18/32/32 4/33/33
f 19/34/34 4/35/35 3/36/36
f 15/37/37 13/38/38 8/39/39
f 15/40/40 8/41/41 7/42/42
f 12/43/43 14/44/44 10/45/45
f 12/46/46 10/47/47 9/48/48
f 13/49/49 12/50/50 9/51/51
f 13/52/52 9/53/53 8/54/54
f 22/55/55 20/56/56 2/57/57
f 22/58/58 2/59/59 1/60/60
f 11/61/61 1/62/62 2/63/63
f 11/64/64 2/65/65 3/66/66
f 11/67/67 3/68/68 4/69/69
f 11/70/70 4/71/71 5/72/72
f 11/73/73 5/74/74 6/75/75
f 11/76/76 6/77/77 7/78/78
f 11/79/79 7/80/80 8/81/81
f 11/82/82 8/83/83 9/84/84
f 11/85/85 9/86/86 10/87/87
