v -0.633609 -3.375209 0.000000
v 0.950414 -2.953309 0.000000
v -0.633609 -1.687604 0.000000
v -0.000005 -2.531403 -1.470588
v 0.633609 -3.375210 0.000000
v -0.633609 0.000000 0.000000
v -0.000001 -0.843802 0.000000
v 0.633609 -1.687605 0.000000
v 0.633608 0.000000 0.000000
v 0.316805 -3.797111 0.000000
v 0.950414 -2.109506 0.000000
v -0.950413 -2.109506 0.000000
v -0.950413 -2.953309 0.000000
v -0.316804 -3.797111 0.000000
v -0.316805 -1.265703 0.000000
v 0.316804 -1.265703 0.000000
v -0.472865 -1.901673 -1.470588
v -0.709293 -2.216540 -1.470588
v -0.709293 -2.846267 -1.470588
v -0.472864 -3.161133 -1.470588
v 0.709293 -2.846268 -1.470588
v 0.709293 -2.216539 -1.470588
v 0.472859 -1.901674 -1.470588
v 0.472860 -3.161133 -1.470588
v -0.236434 -1.586809 -1.470588
v 0.236428 -1.586809 -1.470588
v -0.236434 -3.475998 -1.470588
v 0.236428 -3.475998 -1.470588
v 0.148946 -3.126498 -1.470588
v 0.297898 -2.928133 -1.470588
v -0.148957 -3.126498 -1.470588
v -0.297908 -2.928133 -1.470588
v 0.446851 -2.729768 -1.470588
v 0.446851 -2.333039 -1.470588
v 0.297898 -2.134674 -1.470588
v -0.148957 -1.936309 -1.470588
v -0.297909 -2.134674 -1.470588
v 0.148946 -1.936309 -1.470588
v -0.446858 -2.333039 -1.470588
v -0.446858 -2.729768 -1.470588
vt 0.000000 0.000000
vt 0.000000 0.000000
vt 0.000000 0.000000
vt 0.000000 0.000000
vt 0.000000 0.000000
vt 0.000000 0.000000
vt 0.000000 0.000000
vt 0.000000 0.000000
vt 0.000000 0.000000
vt 0.000000 0.000000
vt 0.000000 0.000000
vt 0.000000 0.000000
vt 0.000000 0.000000
vt 0.000000 0.000000
vt 0.000000 0.000000
vt 0.000000 0.000000
vt 0.000000 0.000000
vt 0.000000 0.000000
vt 0.000000 0.000000
vt 0.000000 0.000000
vt 0.000000 0.000000
vt 0.000000 0.000000
vt 0.000000 0.000000
vt 0.000000 0.000000
vt 0.000000 0.000000
vt 0.000000 0.000000
vt 0.000000 0.000000
vt 0.000000 0.000000
vt 0.000000 0.000000
vt 0.000000 0.000000
vt 0.000000 0.000000
vt 0.000000 0.000000
vt 0.000000 0.000000
vt 0.000000 0.000000
vt 0.000000 0.000000
vt 0.000000 0.000000
vt 0.000000 0.000000
vt 0.000000 0.000000
vt 0.000000 0.000000
vt 0.000000 0.000000
vt 0.000000 0.000000
vt 0.000000 0.000000
vt 0.000000 0.000000
vt 0.000000 0.000000
vt 0.000000 0.000000
vt 0.000000 0.000000
vt 0.000000 0.000000
vt 0.000000 0.000000
vt 0.000000 0.000000
vt 0.000000 0.000000
vt 0.000000 0.000000
vt 0.000000 0.000000
vt 0.000000 0.000000
vt 0.000000 0.000000
vt 0.000000 0.000000
vt 0.000000 0.000000
vt 0.000000 0.000000
vt 0.000000 0.000000
vt 0.000000 0.000000
vt 0.000000 0.000000
vt 0.000000 0.000000
vt 0.000000 0.000000
vt 0.000000 0.000000
vt 0.000000 0.000000
vt 0.000000 0.000000
vt 0.000000 0.000000
vt 0.000000 0.000000
vt 0.000000 0.000000
vt 0.000000 0.000000
vt 0.000000 0.000000
vt 0.000000 0.000000
vt 0.000000 0.000000
vt 0.000000 0.000000
vt 0.000000 0.000000
vt 0.000000 0.000000
vt 0.000000 0.000000
vt 0.000000 0.000000
vt 0.000000 0.000000
vt 0.000000 0.000000
vt 0.000000 0.000000
vt 0.000000 0.000000
vt 0.000000 0.000000
vt 0.000000 0.000000
vt 0.000000 0.000000
vt 0.000000 0.000000
vt 0.000000 0.000000
vt 0.000000 0.000000
vt 0.000000 0.000000
vt 0.000000 0.000000
vt 0.000000 0.000000
vt 0.000000 0.000000
vt 0.000000 0.000000
vt 0.000000 0.000000
vt 0.000000 0.000000
vt 0.000000 0.000000
vt 0.000000 0.000000
vt 0.000000 0.000000
vt 0.000000 0.000000
vt 0.000000 0.000000
vt 0.000000 0.000000
vt 0.000000 0.000000
vt 0.000000 0.000000
vt 0.000000 0.000000
vt 0.000000 0.000000
vt 0.000000 0.000000
vt 0.000000 0.000000
vt 0.000000 0.000000
vt 0.000000 0.000000
vt 0.000000 0.000000
vt 0.000000 0.000000
vt 0.000000 0.000000
vt 0.000000 0.000000
vt 0.000000 0.000000
vt 0.000000 0.000000
vt 0.000000 0.000000
vt 0.000000 0.000000
vt 0.000000 0.000000
vt 0.000000 0.000000
vt 0.000000 0.000000
vt 0.000000 0.000000
vt 0.000000 0.000000
vt 0.000000 0.000000
vt 0.000000 0.000000
vt 0.000000 0.000000
vt 0.000000 0.000000
vt 0.000000 0.000000
vt 0.000000 0.000000
vt 0.000000 0.000000
vt 0.000000 0.000000
vt 0.000000 0.000000
vt 0.000000 0.000000
vt 0.000000 0.000000
vt 0.000000 0.000000
vt 0.000000 0.000000
vt 0.000000 0.000000
vt 0.000000 0.000000
vt 0.000000 0.000000
vt 0.000000 0.000000
vt 0.000000 0.000000
vt 0.000000 0.000000
vt 0.000000 0.000000
vt 0.000000 0.000000
vt 0.000000 0.000000
vt 0.000000 0.000000
vt 0.000000 0.000000
vt 0.000000 0.000000
vt 0.000000 0.000000
vt 0.000000 0.000000
vt 0.000000 0.000000
vt 0.000000 0.000000
vt 0.000000 0.000000
vt 0.000000 0.000000
vt 0.000000 0.000000
vt 0.000000 0.000000
vt 0.000000 0.000000
vt 0.000000 0.000000
vt 0.000000 0.000000
vt 0.000000 0.000000
vt 0.000000 0.000000
vt 0.000000 0.000000
vt 0.000000 0.000000
vt 0.000000 0.000000
vt 0.000000 0.000000
vt 0.000000 0.000000
vt 0.000000 0.000000
vt 0.000000 0.000000
vt 0.000000 0.000000
vt 0.000000 0.000000
vt 0.000000 0.000000
vt 0.000000 0.000000
vt 0.000000 0.000000
vt 0.000000 0.000000
vt 0.000000 0.000000
vt 0.000000 0.000000
vt 0.000000 0.000000
vt 0.000000 0.000000
vt 0.000000 0.000000
vt 0.000000 0.000000
vt 0.000000 0.000000
vt 0.000000 0.000000
vt 0.000000 0.000000
vt 0.000000 0.000000
vt 0.000000 0.000000
vt 0.000000 0.000000
vt 0.000000 0.000000
vt 0.000000 0.000000
vt 0.000000 0.000000
vt 0.000000 0.000000
vt 0.000000 0.000000
vt 0.000000 0.000000
vt 0.000000 0.000000
vt 0.000000 0.000000
vt 0.000000 0.000000
vt 0.000000 0.000000
vt 0.000000 0.000000
vt 0.000000 0.000000
vt 0.000000 0.000000
vt 0.000000 0.000000
vn 0.000000 0.000000 -1.000000
vn 0.000000 0.000000 -1.000000
vn -0.000000 -0.000000 -1.000000
vn 0.000000 0.000000 -1.000000
vn 0.000000 0.000000 -1.000000
vn -0.000000 0.000000 -1.000000
vn 0.000000 0.000000 -1.000000
vn -0.000000 0.000000 -1.000000
vn 0.000000 0.000000 -1.000000
vn 0.000000 0.000000 -1.000000
vn -0.000000 0.000000 -1.000000
vn -0.000000 0.000000 -1.000000
vn -0.000000 -0.000000 -1.000000
vn -0.000000 -0.000000 -1.000000
vn -0.000000 -0.000000 -1.000000
vn -0.000000 -0.000000 -1.000000
vn 0.000000 0.000000 -1.000000
vn 0.000000 0.000000 -1.000000
vn -0.000000 0.000000 -1.000000
vn -0.000000 0.000000 -1.000000
vn -0.000000 0.000000 -1.000000
vn -0.000000 0.000000 -1.000000
vn -0.000000 0.000000 -1.000000
vn -0.000000 0.000000 -1.000000
vn -0.000000 0.000000 -1.000000
vn -0.000000 0.000000 -1.000000
vn 0.000000 0.000000 -1.000000
vn -0.000000 -0.000000 -1.000000
vn -0.000000 -0.000000 -1.000000
vn 0.000000 0.000000 -1.000000
vn -0.787711 0.591487 -0.172203
vn -0.933916 0.311291 -0.175782
vn -0.933916 0.311291 -0.175782
vn -0.787711 0.591487 -0.172203
vn -0.933916 0.311291 -0.175782
vn -0.787711 0.591487 -0.172203
vn -0.933915 -0.311292 -0.175784
vn -0.787710 -0.591487 -0.172206
vn -0.787710 -0.591487 -0.172206
vn -0.933915 -0.311292 -0.175784
vn -0.787710 -0.591487 -0.172206
vn -0.933915 -0.311292 -0.175784
vn -0.933916 0.311291 -0.175782
vn -0.933915 -0.311292 -0.175784
vn -0.933915 -0.311292 -0.175784
vn -0.933916 0.311291 -0.175782
vn -0.933915 -0.311292 -0.175784
vn -0.933916 0.311291 -0.175782
vn 0.933914 -0.311294 -0.175785
vn 0.933914 0.311295 -0.175784
vn 0.933914 0.311295 -0.175784
vn 0.933914 -0.311294 -0.175785
vn 0.933914 0.311295 -0.175784
vn 0.933914 -0.311294 -0.175785
vn 0.933914 0.311295 -0.175784
vn 0.787709 0.591490 -0.172205
vn 0.787709 0.591490 -0.172205
vn 0.933914 0.311295 -0.175784
vn 0.787709 0.591490 -0.172205
vn 0.933914 0.311295 -0.175784
vn 0.787708 -0.591490 -0.172208
vn 0.933914 -0.311294 -0.175785
vn 0.933914 -0.311294 -0.175785
vn 0.787708 -0.591490 -0.172208
vn 0.933914 -0.311294 -0.175785
vn 0.787708 -0.591490 -0.172208
vn 0.438346 0.872826 -0.214541
vn -0.438347 0.872826 -0.214540
vn -0.438347 0.872826 -0.214540
vn 0.438346 0.872826 -0.214541
vn -0.438347 0.872826 -0.214540
vn 0.438346 0.872826 -0.214541
vn -0.438347 0.872826 -0.214540
vn -0.787711 0.591487 -0.172203
vn -0.787711 0.591487 -0.172203
vn -0.438347 0.872826 -0.214540
vn -0.787711 0.591487 -0.172203
vn -0.438347 0.872826 -0.214540
vn 0.787709 0.591490 -0.172205
vn 0.438346 0.872826 -0.214541
vn 0.438346 0.872826 -0.214541
vn 0.787709 0.591490 -0.172205
vn 0.438346 0.872826 -0.214541
vn 0.787709 0.591490 -0.172205
vn -0.787710 -0.591487 -0.172206
vn -0.438347 -0.872825 -0.214544
vn -0.438347 -0.872825 -0.214544
vn -0.787710 -0.591487 -0.172206
vn -0.438347 -0.872825 -0.214544
vn -0.787710 -0.591487 -0.172206
vn 0.438346 -0.872825 -0.214545
vn 0.787708 -0.591490 -0.172208
vn 0.787708 -0.591490 -0.172208
vn 0.438346 -0.872825 -0.214545
vn 0.787708 -0.591490 -0.172208
vn 0.438346 -0.872825 -0.214545
vn -0.438347 -0.872825 -0.214544
vn 0.438346 -0.872825 -0.214545
vn 0.438346 -0.872825 -0.214545
vn -0.438347 -0.872825 -0.214544
vn 0.438346 -0.872825 -0.214545
vn -0.438347 -0.872825 -0.214544
vn 0.000000 0.000000 -1.000000
vn 0.000000 0.000000 -1.000000
vn 0.000000 0.000000 -1.000000
vn 0.000000 0.000000 -1.000000
vn 0.000000 0.000000 -1.000000
vn 0.000000 0.000000 -1.000000
vn 0.000000 0.000000 -1.000000
vn 0.000000 0.000000 -1.000000
vn 0.000000 0.000000 -1.000000
vn 0.000000 0.000000 -1.000000
vn 0.000000 0.000000 -1.000000
vn 0.000000 0.000000 -1.000000
vn -0.000000 0.000000 -1.000000
vn 0.000000 0.000000 -1.000000
vn 0.000000 0.000000 -1.000000
vn -0.000000 0.000000 -1.000000
vn 0.000000 0.000000 -1.000000
vn -0.000000 0.000000 -1.000000
vn 0.000000 0.000000 -1.000000
vn 0.000000 0.000000 -1.000000
vn 0.000000 0.000000 -1.000000
vn 0.000000 0.000000 -1.000000
vn 0.000000 0.000000 -1.000000
vn 0.000000 0.000000 -1.000000
vn 0.000000 -0.000000 -1.000000
vn 0.000000 -0.000000 -1.000000
vn 0.000000 -0.000000 -1.000000
vn 0.000000 -0.000000 -1.000000
vn 0.000000 -0.000000 -1.000000
vn 0.000000 -0.000000 -1.000000
vn 0.000000 0.000000 -1.000000
vn 0.000000 -0.000000 -1.000000
vn 0.000000 -0.000000 -1.000000
vn 0.000000 0.000000 -1.000000
vn 0.000000 -0.000000 -1.000000
vn 0.000000 0.000000 -1.000000
vn 0.000000 0.000000 -1.000000
vn -0.000000 -0.000000 -1.000000
vn -0.000000 -0.000000 -1.000000
vn 0.000000 0.000000 -1.000000
vn -0.000000 -0.000000 -1.000000
vn 0.000000 0.000000 -1.000000
vn 0.000000 0.000000 -1.000000
vn 0.000000 0.000000 -1.000000
vn 0.000000 0.000000 -1.000000
vn 0.000000 0.000000 -1.000000
vn 0.000000 0.000000 -1.000000
vn 0.000000 0.000000 -1.000000
vn 0.000000 -0.000000 -1.000000
vn 0.000000 0.000000 -1.000000
vn 0.000000 0.000000 -1.000000
vn 0.000000 -0.000000 -1.000000
vn 0.000000 0.000000 -1.000000
vn 0.000000 -0.000000 -1.000000
vn -0.000000 -0.000000 -1.000000
vn -0.000000 -0.000000 -1.000000
vn -0.000000 -0.000000 -1.000000
vn -0.000000 -0.000000 -1.000000
vn -0.000000 -0.000000 -1.000000
vn -0.000000 -0.000000 -1.000000
vn -0.000000 0.000000 -1.000000
vn -0.000000 0.000000 -1.000000
vn -0.000000 0.000000 -1.000000
vn -0.000000 0.000000 -1.000000
vn -0.000000 0.000000 -1.000000
vn -0.000000 0.000000 -1.000000
vn -0.000000 -0.000000 -1.000000
vn -0.000000 0.000000 -1.000000
vn -0.000000 0.000000 -1.000000
vn -0.000000 -0.000000 -1.000000
vn -0.000000 0.000000 -1.000000
vn -0.000000 -0.000000 -1.000000
vn -0.000000 -0.000000 -1.000000
vn -0.000000 0.000000 -1.000000
vn -0.000000 0.000000 -1.000000
vn -0.000000 -0.000000 -1.000000
vn -0.000000 0.000000 -1.000000
vn -0.000000 -0.000000 -1.000000
vn 0.000000 0.000000 -1.000000
vn 0.000000 -0.000000 -1.000000
vn -0.000000 -0.000000 -1.000000
vn -0.000000 -0.000000 -1.000000
vn 0.000000 -0.000000 -1.000000
vn 0.000000 -0.000000 -1.000000
vn 0.000000 0.000000 -1.000000
vn -0.000000 0.000000 -1.000000
vn -0.000000 -0.000000 -1.000000
vn -0.000000 -0.000000 -1.000000
vn 0.000000 0.000000 -1.000000
vn 0.000000 0.000000 -1.000000
vn 0.000000 -0.000000 -1.000000
vn 0.000000 0.000000 -1.000000
vn -0.000000 -0.000000 -1.000000
vn -0.000000 -0.000000 -1.000000
vn 0.000000 0.000000 -1.000000
vn 0.000000 0.000000 -1.000000
f 33/1/1 30/2/2 4/3/3
f 8/4/4 16/5/5 7/6/6
f 8/7/7 7/8/8 9/9/9
f 9/10/10 7/11/11 6/12/12
f 39/13/13 37/14/14 4/15/15
f 4/16/16 30/17/17 29/18/18
f 6/19/19 7/20/20 15/21/21
f 6/22/22 15/23/23 3/24/24
f 15/25/25 7/26/26 16/27/27
f 4/28/28 37/29/29 36/30/30
f 17/31/31 18/32/32 12/33/33
f 17/34/34 12/35/35 3/36/36
f 19/37/37 20/38/38 1/39/39
f 19/40/40 1/41/41 13/42/42
f 18/43/43 19/44/44 13/45/45
f 18/46/46 13/47/47 12/48/48
f 21/49/49 22/50/50 11/51/51
f 21/52/52 11/53/53 2/54/54
f 22/55/55 23/56/56 8/57/57
f 22/58/58 8/59/59 11/60/60
f 24/61/61 21/62/62 2/63/63
f 24/64/64 2/65/65 5/66/66
f 26/67/67 25/68/68 15/69/69
f 26/70/70 15/71/71 16/72/72
f 25/73/73 17/74/74 3/75/75
f 25/76/76 3/77/77 15/78/78
f 23/79/79 26/80/80 16/81/81
f 23/82/82 16/83/83 8/84/84
f 20/85/85 27/86/86 14/87/87
f 20/88/88 14/89/89 1/90/90
f 28/91/91 24/92/92 5/93/93
f 28/94/94 5/95/95 10/96/96
f 27/97/97 28/98/98 10/99/99
f 27/100/100 10/101/101 14/102/102
f 29/103/103 30/104/104 24/105/105
f 29/106/106 24/107/107 28/108/108
f 31/109/109 29/110/110 28/111/111
f 31/112/112 28/113/113 27/114/114
f 32/115/115 31/116/116 27/117/117
f 32/118/118 27/119/119 20/120/120
f 30/121/121 33/122/122 21/123/123
f 30/124/124 21/125/125 24/126/126
f 34/127/127 35/128/128 23/129/129
f 34/130/130 23/131/131 22/132/132
f 33/133/133 34/134/134 22/135/135
f 33/136/136 22/137/137 21/138/138
f 36/139/139 37/140/140 17/141/141
f 36/142/142 17/143/143 25/144/144
f 38/145/145 36/146/146 25/147/147
f 38/148/148 25/149/149 26/150/150
f 35/151/151 38/152/152 26/153/153
f 35/154/154 26/155/155 23/156/156
f 37/157/157 39/158/158 18/159/159
f 37/160/160 18/161/161 17/162/162
f 40/163/163 32/164/164 20/165/165
f 40/166/166 20/167/167 19/168/168
f 39/169/169 40/170/170 19/171/171
f 39/172/172 19/173/173 18/174/174
f 4/175/175 32/176/176 40/177/177
f 4/178/178 40/179/179 39/180/180
f 38/181/181 35/182/182 4/183/183
f 4/184/184 35/185/185 34/186/186
f 31/187/187 32/188/188 4/189/189
f 4/190/190 29/191/191 31/192/192
f 34/193/193 33/194/194 4/195/195
f 4/196/196 36/197/197 38/198/198
