v 0.930376 0.382207 0.235810
v 0.649707 0.266905 0.234113
v 0.387614 0.928135 0.235810
v 0.270682 0.648143 0.234113
v -0.382207 0.930376 0.235810
v -0.266905 0.649707 0.234113
v -0.928136 0.387614 0.235810
v -0.648143 0.270681 0.234113
v -0.930376 -0.382207 0.235810
v -0.649707 -0.266906 0.234113
v -0.387614 -0.928136 0.235810
v -0.270682 -0.648143 0.234113
v 0.382207 -0.930376 0.235810
v 0.266905 -0.649707 0.234113
v 0.928136 -0.387614 0.235810
v 0.648143 -0.270682 0.234113
v -0.329148 -0.788139 0.234962
v 0.324556 -0.790042 0.234962
v 0.788139 -0.329148 0.234962
v 0.790041 0.324556 0.234962
v 0.329148 0.788139 0.234962
v -0.324556 0.790041 0.234962
v -0.788139 0.329148 0.234962
v -0.790041 -0.324556 0.234962
v 0.324556 -0.790042 0.468451
v 0.266905 -0.649707 0.467374
v -0.329148 -0.788139 0.468451
v -0.270682 -0.648143 0.467374
v 0.382207 -0.930376 0.387578
v -0.387614 -0.928136 0.387578
v -0.324556 0.790041 0.468451
v -0.788139 0.329148 0.468451
v -0.382207 0.930376 0.387578
v -0.928136 0.387614 0.387578
v 0.928136 -0.387614 0.387578
v 0.788139 -0.329148 0.468451
v -0.790041 -0.324556 0.468451
v -0.930376 -0.382207 0.387578
v 0.930376 0.382207 0.387578
v 0.387614 0.928135 0.387578
v 0.790041 0.324556 0.468451
v 0.329148 0.788139 0.468451
v -0.266905 0.649707 0.467374
v 0.270682 0.648143 0.467374
v -0.649707 -0.266906 0.467374
v -0.648143 0.270681 0.467374
v 0.648143 -0.270682 0.467374
v 0.649707 0.266905 0.467374
v -0.928696 0.195159 0.235810
v -0.789566 -0.161130 0.468451
v -0.788615 0.165722 0.468451
v 0.195159 0.928695 0.235810
v 0.165722 0.788615 0.468451
v -0.161130 0.789566 0.468451
v 0.929816 0.189751 0.235810
v 0.789566 0.161130 0.468451
v 0.788615 -0.165722 0.468451
v 0.189752 -0.929816 0.235810
v -0.165722 -0.788615 0.468451
v 0.161130 -0.789566 0.468451
v -0.195159 -0.928696 0.235810
v -0.195159 -0.928696 0.387578
v 0.189752 -0.929816 0.387578
v -0.929816 -0.189752 0.235810
v -0.928696 0.195159 0.387578
v -0.929816 -0.189752 0.387578
v -0.189752 0.929815 0.235810
v 0.195159 0.928695 0.387578
v -0.189752 0.929815 0.387578
v 0.928696 -0.195159 0.235810
v 0.929816 0.189751 0.387578
v 0.928696 -0.195159 0.387578
v -0.195159 -1.285838 0.235810
v 0.189752 -1.286959 0.235810
v 0.161130 -1.146709 0.468451
v -0.165722 -1.145758 0.468451
v 0.195159 1.285838 0.235810
v -0.189752 1.286958 0.235810
v 0.165722 1.145757 0.468451
v -0.161130 1.146708 0.468451
vt 0.000000 0.000000
vt 0.000000 0.000000
vt 0.000000 0.000000
vt 0.000000 0.000000
vt 0.000000 0.000000
vt 0.000000 0.000000
vt 0.000000 0.000000
vt 0.000000 0.000000
vt 0.000000 0.000000
vt 0.000000 0.000000
vt 0.000000 0.000000
vt 0.000000 0.000000
vt 0.000000 0.000000
vt 0.000000 0.000000
vt 0.000000 0.000000
vt 0.000000 0.000000
vt 0.000000 0.000000
vt 0.000000 0.000000
vt 0.000000 0.000000
vt 0.000000 0.000000
vt 0.000000 0.000000
vt 0.000000 0.000000
vt 0.000000 0.000000
vt 0.000000 0.000000
vt 0.000000 0.000000
vt 0.000000 0.000000
vt 0.000000 0.000000
vt 0.000000 0.000000
vt 0.000000 0.000000
vt 0.000000 0.000000
vt 0.000000 0.000000
vt 0.000000 0.000000
vt 0.000000 0.000000
vt 0.000000 0.000000
vt 0.000000 0.000000
vt 0.000000 0.000000
vt 0.000000 0.000000
vt 0.000000 0.000000
vt 0.000000 0.000000
vt 0.000000 0.000000
vt 0.000000 0.000000
vt 0.000000 0.000000
vt 0.000000 0.000000
vt 0.000000 0.000000
vt 0.000000 0.000000
vt 0.000000 0.000000
vt 0.000000 0.000000
vt 0.000000 0.000000
vt 0.000000 0.000000
vt 0.000000 0.000000
vt 0.000000 0.000000
vt 0.000000 0.000000
vt 0.000000 0.000000
vt 0.000000 0.000000
vt 0.000000 0.000000
vt 0.000000 0.000000
vt 0.000000 0.000000
vt 0.000000 0.000000
vt 0.000000 0.000000
vt 0.000000 0.000000
vt 0.000000 0.000000
vt 0.000000 0.000000
vt 0.000000 0.000000
vt 0.000000 0.000000
vt 0.000000 0.000000
vt 0.000000 0.000000
vt 0.000000 0.000000
vt 0.000000 0.000000
vt 0.000000 0.000000
vt 0.000000 0.000000
vt 0.000000 0.000000
vt 0.000000 0.000000
vt 0.000000 0.000000
vt 0.000000 0.000000
vt 0.000000 0.000000
vt 0.000000 0.000000
vt 0.000000 0.000000
vt 0.000000 0.000000
vt 0.000000 0.000000
vt 0.000000 0.000000
vt 0.000000 0.000000
vt 0.000000 0.000000
vt 0.000000 0.000000
vt 0.000000 0.000000
vt 0.000000 0.000000
vt 0.000000 0.000000
vt 0.000000 0.000000
vt 0.000000 0.000000
vt 0.000000 0.000000
vt 0.000000 0.000000
vt 0.000000 0.000000
vt 0.000000 0.000000
vt 0.000000 0.000000
vt 0.000000 0.000000
vt 0.000000 0.000000
vt 0.000000 0.000000
vt 0.000000 0.000000
vt 0.000000 0.000000
vt 0.000000 0.000000
vt 0.000000 0.000000
vt 0.000000 0.000000
vt 0.000000 0.000000
vt 0.000000 0.000000
vt 0.000000 0.000000
vt 0.000000 0.000000
vt 0.000000 0.000000
vt 0.000000 0.000000
vt 0.000000 0.000000
vt 0.000000 0.000000
vt 0.000000 0.000000
vt 0.000000 0.000000
vt 0.000000 0.000000
vt 0.000000 0.000000
vt 0.000000 0.000000
vt 0.000000 0.000000
vt 0.000000 0.000000
vt 0.000000 0.000000
vt 0.000000 0.000000
vt 0.000000 0.000000
vt 0.000000 0.000000
vt 0.000000 0.000000
vt 0.000000 0.000000
vt 0.000000 0.000000
vt 0.000000 0.000000
vt 0.000000 0.000000
vt 0.000000 0.000000
vt 0.000000 0.000000
vt 0.000000 0.000000
vt 0.000000 0.000000
vt 0.000000 0.000000
vt 0.000000 0.000000
vt 0.000000 0.000000
vt 0.000000 0.000000
vt 0.000000 0.000000
vt 0.000000 0.000000
vt 0.000000 0.000000
vt 0.000000 0.000000
vt 0.000000 0.000000
vt 0.000000 0.000000
vt 0.000000 0.000000
vt 0.000000 0.000000
vt 0.000000 0.000000
vt 0.000000 0.000000
vt 0.000000 0.000000
vt 0.000000 0.000000
vt 0.000000 0.000000
vt 0.000000 0.000000
vt 0.000000 0.000000
vt 0.000000 0.000000
vt 0.000000 0.000000
vt 0.000000 0.000000
vt 0.000000 0.000000
vt 0.000000 0.000000
vt 0.000000 0.000000
vt 0.000000 0.000000
vt 0.000000 0.000000
vt 0.000000 0.000000
vt 0.000000 0.000000
vt 0.000000 0.000000
vt 0.000000 0.000000
vt 0.000000 0.000000
vt 0.000000 0.000000
vt 0.000000 0.000000
vt 0.000000 0.000000
vt 0.000000 0.000000
vt 0.000000 0.000000
vt 0.000000 0.000000
vt 0.000000 0.000000
vt 0.000000 0.000000
vt 0.000000 0.000000
vt 0.000000 0.000000
vt 0.000000 0.000000
vt 0.000000 0.000000
vt 0.000000 0.000000
vt 0.000000 0.000000
vt 0.000000 0.000000
vt 0.000000 0.000000
vt 0.000000 0.000000
vt 0.000000 0.000000
vt 0.000000 0.000000
vt 0.000000 0.000000
vt 0.000000 0.000000
vt 0.000000 0.000000
vt 0.000000 0.000000
vt 0.000000 0.000000
vt 0.000000 0.000000
vt 0.000000 0.000000
vt 0.000000 0.000000
vt 0.000000 0.000000
vt 0.000000 0.000000
vt 0.000000 0.000000
vt 0.000000 0.000000
vt 0.000000 0.000000
vt 0.000000 0.000000
vt 0.000000 0.000000
vt 0.000000 0.000000
vt 0.000000 0.000000
vt 0.000000 0.000000
vt 0.000000 0.000000
vt 0.000000 0.000000
vt 0.000000 0.000000
vt 0.000000 0.000000
vt 0.000000 0.000000
vt 0.000000 0.000000
vt 0.000000 0.000000
vt 0.000000 0.000000
vt 0.000000 0.000000
vt 0.000000 0.000000
vt 0.000000 0.000000
vt 0.000000 0.000000
vt 0.000000 0.000000
vt 0.000000 0.000000
vt 0.000000 0.000000
vt 0.000000 0.000000
vt 0.000000 0.000000
vt 0.000000 0.000000
vt 0.000000 0.000000
vt 0.000000 0.000000
vt 0.000000 0.000000
vt 0.000000 0.000000
vt 0.000000 0.000000
vt 0.000000 0.000000
vt 0.000000 0.000000
vt 0.000000 0.000000
vt 0.000000 0.000000
vt 0.000000 0.000000
vt 0.000000 0.000000
vt 0.000000 0.000000
vt 0.000000 0.000000
vt 0.000000 0.000000
vt 0.000000 0.000000
vt 0.000000 0.000000
vt 0.000000 0.000000
vt 0.000000 0.000000
vt 0.000000 0.000000
vt 0.000000 0.000000
vt 0.000000 0.000000
vt 0.000000 0.000000
vt 0.000000 0.000000
vt 0.000000 0.000000
vt 0.000000 0.000000
vt 0.000000 0.000000
vt 0.000000 0.000000
vt 0.000000 0.000000
vt 0.000000 0.000000
vt 0.000000 0.000000
vt 0.000000 0.000000
vt 0.000000 0.000000
vt 0.000000 0.000000
vt 0.000000 0.000000
vt 0.000000 0.000000
vt 0.000000 0.000000
vt 0.000000 0.000000
vt 0.000000 0.000000
vt 0.000000 0.000000
vt 0.000000 0.000000
vt 0.000000 0.000000
vt 0.000000 0.000000
vt 0.000000 0.000000
vt 0.000000 0.000000
vt 0.000000 0.000000
vt 0.000000 0.000000
vt 0.000000 0.000000
vt 0.000000 0.000000
vt 0.000000 0.000000
vt 0.000000 0.000000
vt 0.000000 0.000000
vt 0.000000 0.000000
vt 0.000000 0.000000
vt 0.000000 0.000000
vt 0.000000 0.000000
vt 0.000000 0.000000
vt 0.000000 0.000000
vt 0.000000 0.000000
vt 0.000000 0.000000
vt 0.000000 0.000000
vt 0.000000 0.000000
vt 0.000000 0.000000
vt 0.000000 0.000000
vt 0.000000 0.000000
vt 0.000000 0.000000
vt 0.000000 0.000000
vt 0.000000 0.000000
vt 0.000000 0.000000
vt 0.000000 0.000000
vt 0.000000 0.000000
vt 0.000000 0.000000
vt 0.000000 0.000000
vt 0.000000 0.000000
vt 0.000000 0.000000
vt 0.000000 0.000000
vt 0.000000 0.000000
vt 0.000000 0.000000
vt 0.000000 0.000000
vt 0.000000 0.000000
vt 0.000000 0.000000
vt 0.000000 0.000000
vt 0.000000 0.000000
vt 0.000000 0.000000
vt 0.000000 0.000000
vt 0.000000 0.000000
vt 0.000000 0.000000
vt 0.000000 0.000000
vt 0.000000 0.000000
vt 0.000000 0.000000
vt 0.000000 0.000000
vt 0.000000 0.000000
vt 0.000000 0.000000
vt 0.000000 0.000000
vt 0.000000 0.000000
vt 0.000000 0.000000
vt 0.000000 0.000000
vt 0.000000 0.000000
vt 0.000000 0.000000
vt 0.000000 0.000000
vt 0.000000 0.000000
vt 0.000000 0.000000
vt 0.000000 0.000000
vt 0.000000 0.000000
vt 0.000000 0.000000
vt 0.000000 0.000000
vt 0.000000 0.000000
vt 0.000000 0.000000
vt 0.000000 0.000000
vt 0.000000 0.000000
vt 0.000000 0.000000
vt 0.000000 0.000000
vt 0.000000 0.000000
vt 0.000000 0.000000
vt 0.000000 0.000000
vt 0.000000 0.000000
vt 0.000000 0.000000
vt 0.000000 0.000000
vt 0.000000 0.000000
vt 0.000000 0.000000
vt 0.000000 0.000000
vt 0.000000 0.000000
vt 0.000000 0.000000
vt 0.000000 0.000000
vt 0.000000 0.000000
vt 0.000000 0.000000
vt 0.000000 0.000000
vt 0.000000 0.000000
vt 0.000000 0.000000
vt 0.000000 0.000000
vt 0.000000 0.000000
vt 0.000000 0.000000
vt 0.000000 0.000000
vt 0.000000 0.000000
vt 0.000000 0.000000
vt 0.000000 0.000000
vt 0.000000 0.000000
vt 0.000000 0.000000
vt 0.000000 0.000000
vt 0.000000 0.000000
vt 0.000000 0.000000
vt 0.000000 0.000000
vt 0.000000 0.000000
vt 0.000000 0.000000
vt 0.000000 0.000000
vt 0.000000 0.000000
vt 0.000000 0.000000
vt 0.000000 0.000000
vt 0.000000 0.000000
vt 0.000000 0.000000
vt 0.000000 0.000000
vt 0.000000 0.000000
vt 0.000000 0.000000
vt 0.000000 0.000000
vt 0.000000 0.000000
vt 0.000000 0.000000
vt 0.000000 0.000000
vt 0.000000 0.000000
vt 0.000000 0.000000
vt 0.000000 0.000000
vt 0.000000 0.000000
vt 0.000000 0.000000
vt 0.000000 0.000000
vt 0.000000 0.000000
vt 0.000000 0.000000
vt 0.000000 0.000000
vn 0.178749 -0.435114 0.882454
vn 0.178749 -0.435114 0.882454
vn 0.434066 -0.181278 0.882454
vn 0.178749 -0.435114 0.882454
vn 0.434066 -0.181278 0.882454
vn 0.434066 -0.181278 0.882454
vn 0.435114 0.178749 0.882454
vn 0.435114 0.178749 0.882454
vn 0.181278 0.434066 0.882454
vn 0.435114 0.178749 0.882454
vn 0.181278 0.434066 0.882454
vn 0.181278 0.434066 0.882454
vn -0.178749 0.435114 0.882454
vn -0.178749 0.435114 0.882454
vn -0.434066 0.181278 0.882454
vn -0.178749 0.435114 0.882454
vn -0.434066 0.181278 0.882454
vn -0.434066 0.181278 0.882454
vn 0.007683 -0.000022 0.999970
vn 0.007683 -0.000022 0.999970
vn 0.007683 -0.000022 0.999970
vn 0.007683 -0.000022 0.999970
vn 0.007683 -0.000022 0.999970
vn 0.007683 -0.000022 0.999970
vn 0.007683 -0.000022 0.999970
vn 0.007683 -0.000022 0.999970
vn 0.007683 -0.000022 0.999970
vn 0.007683 -0.000022 0.999970
vn 0.007683 -0.000022 0.999970
vn 0.007683 -0.000022 0.999970
vn -0.007683 0.000022 0.999970
vn -0.007683 0.000022 0.999970
vn -0.007683 0.000022 0.999970
vn -0.007683 0.000022 0.999970
vn -0.007683 0.000022 0.999970
vn -0.007683 0.000022 0.999970
vn -0.007683 0.000022 0.999970
vn -0.007683 0.000022 0.999970
vn -0.007683 0.000022 0.999970
vn -0.007683 0.000022 0.999970
vn -0.007683 0.000022 0.999970
vn -0.007683 0.000022 0.999970
vn -0.435114 -0.178749 0.882454
vn -0.435114 -0.178749 0.882454
vn -0.181278 -0.434066 0.882454
vn -0.435114 -0.178749 0.882454
vn -0.181278 -0.434066 0.882454
vn -0.181278 -0.434066 0.882454
vn -0.000022 -0.007683 0.999970
vn -0.000022 -0.007683 0.999970
vn -0.000022 -0.007683 0.999970
vn -0.000022 -0.007683 0.999970
vn -0.000022 -0.007683 0.999970
vn -0.000022 -0.007683 0.999970
vn -0.000022 -0.007683 0.999970
vn -0.000022 -0.007683 0.999970
vn -0.000011 -0.003842 0.999993
vn -0.000022 -0.007683 0.999970
vn -0.000011 -0.003842 0.999993
vn -0.423667 -0.003280 0.905812
vn 0.000022 0.007683 0.999970
vn 0.000022 0.007683 0.999970
vn 0.000022 0.007683 0.999970
vn 0.000022 0.007683 0.999970
vn 0.000022 0.007683 0.999970
vn 0.000022 0.007683 0.999970
vn 0.000022 0.007683 0.999970
vn 0.000022 0.007683 0.999970
vn 0.000011 0.003842 0.999993
vn 0.000022 0.007683 0.999970
vn 0.000011 0.003842 0.999993
vn 0.000011 0.003842 0.999993
vn 0.924989 0.379994 0.000000
vn 0.924989 0.379994 0.000000
vn 0.924989 0.379994 0.000000
vn 0.924989 0.379994 0.000000
vn 0.924989 0.379994 0.000000
vn 0.924989 0.379994 0.000000
vn -0.922762 0.385370 0.000000
vn -0.922762 0.385370 0.000000
vn -0.922762 0.385370 0.000000
vn -0.922762 0.385370 0.000000
vn -0.922762 0.385370 0.000000
vn -0.922762 0.385370 0.000000
vn -0.002910 -0.999996 0.000000
vn -0.002910 -0.999996 0.000000
vn -0.002910 -0.999996 0.000000
vn -0.002910 -0.999996 0.000000
vn -0.002910 -0.999996 0.000000
vn -0.002910 -0.999996 0.000000
vn 0.002910 0.999996 0.000000
vn 0.002910 0.999996 0.000000
vn 0.002910 0.999996 0.000000
vn 0.002910 0.999996 0.000000
vn 0.002910 0.999996 0.000000
vn 0.002910 0.999996 0.000000
vn 0.705047 -0.709161 0.000000
vn 0.705047 -0.709161 0.000000
vn 0.705047 -0.709161 0.000000
vn 0.705047 -0.709161 0.000000
vn 0.705047 -0.709161 0.000000
vn 0.705047 -0.709161 0.000000
vn -0.705047 0.709161 0.000000
vn -0.705047 0.709161 0.000000
vn -0.705047 0.709161 0.000000
vn -0.705047 0.709161 0.000000
vn -0.705047 0.709161 0.000000
vn -0.705047 0.709161 0.000000
vn 0.705047 -0.709161 0.000000
vn 0.705047 -0.709161 0.000000
vn 0.705047 -0.709161 0.000000
vn 0.705047 -0.709161 0.000000
vn 0.705047 -0.709161 0.000000
vn 0.705047 -0.709161 0.000000
vn -0.705047 0.709161 0.000000
vn -0.705047 0.709161 0.000000
vn -0.705047 0.709161 0.000000
vn -0.705047 0.709161 0.000000
vn -0.705047 0.709161 0.000000
vn -0.705047 0.709161 0.000000
vn 0.709161 0.705047 0.000000
vn 0.709161 0.705047 0.000000
vn 0.709161 0.705047 0.000000
vn 0.709161 0.705047 0.000000
vn 0.709161 0.705047 0.000000
vn 0.709161 0.705047 0.000000
vn -0.709161 -0.705047 0.000000
vn -0.709161 -0.705047 0.000000
vn -0.709161 -0.705047 0.000000
vn -0.709161 -0.705047 0.000000
vn -0.709161 -0.705047 0.000000
vn -0.709161 -0.705047 0.000000
vn 0.709161 0.705047 0.000000
vn 0.709161 0.705047 0.000000
vn 0.709161 0.705047 0.000000
vn 0.709161 0.705047 0.000000
vn 0.709161 0.705047 0.000000
vn 0.709161 0.705047 0.000000
vn -0.709161 -0.705047 0.000000
vn -0.709161 -0.705047 0.000000
vn -0.709161 -0.705047 0.000000
vn -0.709161 -0.705047 0.000000
vn -0.709161 -0.705047 0.000000
vn -0.709161 -0.705047 0.000000
vn -0.924989 -0.379994 0.000000
vn -0.924989 -0.379994 0.000000
vn -0.924989 -0.379994 0.000000
vn -0.924989 -0.379994 0.000000
vn -0.924989 -0.379994 0.000000
vn -0.924989 -0.379994 0.000000
vn 0.922762 -0.385370 0.000000
vn 0.922762 -0.385370 0.000000
vn 0.922762 -0.385370 0.000000
vn 0.922762 -0.385370 0.000000
vn 0.922762 -0.385370 0.000000
vn 0.922762 -0.385370 0.000000
vn -0.002909 -0.999996 0.000000
vn -0.002909 -0.999996 0.000000
vn -0.002909 -0.999996 0.000000
vn -0.002909 -0.999996 0.000000
vn -0.002909 -0.999996 0.000000
vn -0.002909 -0.999996 0.000000
vn 0.002910 0.999996 0.000000
vn 0.002910 0.999996 0.000000
vn 0.002910 0.999996 0.000000
vn 0.002910 0.999996 0.000000
vn 0.002910 0.999996 0.000000
vn 0.002910 0.999996 0.000000
vn 0.379994 -0.924989 0.000000
vn 0.379994 -0.924989 0.000000
vn 0.379994 -0.924989 0.000000
vn 0.379994 -0.924989 0.000000
vn 0.379994 -0.924989 0.000000
vn 0.379994 -0.924989 0.000000
vn 0.999996 -0.002909 0.000000
vn 0.999996 -0.002909 0.000000
vn 0.999996 -0.002909 0.000000
vn 0.999996 -0.002909 0.000000
vn 0.999996 -0.002909 0.000000
vn 0.999996 -0.002909 0.000000
vn -0.999996 0.002910 0.000000
vn -0.999996 0.002910 0.000000
vn -0.999996 0.002910 0.000000
vn -0.999996 0.002910 0.000000
vn -0.999996 0.002910 0.000000
vn -0.999996 0.002910 0.000000
vn 0.385370 0.922762 0.000000
vn 0.385370 0.922762 0.000000
vn 0.385370 0.922762 0.000000
vn 0.385370 0.922762 0.000000
vn 0.385370 0.922762 0.000000
vn 0.385370 0.922762 0.000000
vn -0.385370 -0.922762 0.000000
vn -0.385370 -0.922762 0.000000
vn -0.385370 -0.922762 0.000000
vn -0.385370 -0.922762 0.000000
vn -0.385370 -0.922762 0.000000
vn -0.385370 -0.922762 0.000000
vn -0.379994 0.924989 0.000000
vn -0.379994 0.924989 0.000000
vn -0.379994 0.924989 0.000000
vn -0.379994 0.924989 0.000000
vn -0.379994 0.924989 0.000000
vn -0.379994 0.924989 0.000000
vn -0.999996 0.002910 0.000000
vn -0.999996 0.002910 0.000000
vn -0.999996 0.002910 0.000000
vn -0.999996 0.002910 0.000000
vn -0.999996 0.002910 0.000000
vn -0.999996 0.002910 0.000000
vn 0.999996 -0.002910 0.000000
vn 0.999996 -0.002910 0.000000
vn 0.999996 -0.002910 0.000000
vn 0.999996 -0.002910 0.000000
vn 0.999996 -0.002910 0.000000
vn 0.999996 -0.002910 0.000000
vn -0.001454 -0.499756 0.866165
vn 0.178749 -0.435114 0.882454
vn 0.178749 -0.435114 0.882454
vn -0.001454 -0.499756 0.866165
vn 0.178749 -0.435114 0.882454
vn -0.001454 -0.499756 0.866165
vn 0.499756 -0.001454 0.866165
vn 0.435114 0.178749 0.882454
vn 0.435114 0.178749 0.882454
vn 0.499756 -0.001454 0.866165
vn 0.435114 0.178749 0.882454
vn 0.499756 -0.001454 0.866165
vn 0.001454 0.499756 0.866165
vn -0.178749 0.435114 0.882454
vn -0.178749 0.435114 0.882454
vn 0.001454 0.499756 0.866165
vn -0.178749 0.435114 0.882454
vn 0.001454 0.499756 0.866165
vn -0.499756 0.001454 0.866165
vn -0.435114 -0.178749 0.882454
vn -0.435114 -0.178749 0.882454
vn -0.499756 0.001454 0.866165
vn -0.435114 -0.178749 0.882454
vn -0.499756 0.001454 0.866165
vn 0.999996 -0.002910 0.000000
vn 0.999996 -0.002910 0.000000
vn 0.999996 -0.002910 0.000000
vn 0.999996 -0.002910 0.000000
vn 0.999996 -0.002910 0.000000
vn 0.999996 -0.002910 0.000000
vn 0.499756 -0.001454 0.866165
vn 0.434066 -0.181278 0.882454
vn 0.434066 -0.181278 0.882454
vn 0.499756 -0.001454 0.866165
vn 0.434066 -0.181278 0.882454
vn 0.499756 -0.001454 0.866165
vn 0.001454 0.499756 0.866165
vn 0.181278 0.434066 0.882454
vn 0.181278 0.434066 0.882454
vn 0.001454 0.499756 0.866165
vn 0.181278 0.434066 0.882454
vn 0.001454 0.499756 0.866165
vn 0.002910 0.999996 0.000000
vn 0.002910 0.999996 0.000000
vn 0.002910 0.999996 0.000000
vn 0.002910 0.999996 0.000000
vn 0.002910 0.999996 0.000000
vn 0.002910 0.999996 0.000000
vn -0.002910 -0.999996 0.000000
vn -0.002910 -0.999996 0.000000
vn -0.002910 -0.999996 0.000000
vn -0.002910 -0.999996 0.000000
vn -0.002910 -0.999996 0.000000
vn -0.002910 -0.999996 0.000000
vn -0.001454 -0.499756 0.866165
vn -0.181278 -0.434066 0.882454
vn -0.181278 -0.434066 0.882454
vn -0.001454 -0.499756 0.866165
vn -0.181278 -0.434066 0.882454
vn -0.001454 -0.499756 0.866165
vn -0.499756 0.001454 0.866165
vn -0.434066 0.181278 0.882454
vn -0.434066 0.181278 0.882454
vn -0.499756 0.001454 0.866165
vn -0.434066 0.181278 0.882454
vn -0.499756 0.001454 0.866165
vn -0.999996 0.002910 0.000000
vn -0.999996 0.002910 0.000000
vn -0.999996 0.002910 0.000000
vn -0.999996 0.002910 0.000000
vn -0.999996 0.002910 0.000000
vn -0.999996 0.002910 0.000000
vn 0.978625 -0.205651 0.000000
vn 0.978625 -0.205651 0.000000
vn 0.978625 -0.205651 0.000000
vn -0.002493 -0.856543 0.516069
vn -0.002493 -0.856543 0.516069
vn -0.002493 -0.856543 0.516069
vn -0.002493 -0.856543 0.516069
vn -0.002493 -0.856543 0.516069
vn -0.002493 -0.856543 0.516069
vn -0.979806 -0.199953 0.000000
vn -0.979806 -0.199953 0.000000
vn -0.979806 -0.199953 0.000000
vn -0.856543 0.002492 0.516069
vn -0.856543 0.002492 0.516069
vn -0.856543 0.002492 0.516069
vn -0.856543 0.002492 0.516069
vn -0.856543 0.002492 0.516069
vn -0.856543 0.002492 0.516069
vn -0.199953 0.979805 0.000000
vn -0.199953 0.979805 0.000000
vn -0.199953 0.979805 0.000000
vn 0.979805 0.199953 0.000000
vn 0.979805 0.199953 0.000000
vn 0.979805 0.199953 0.000000
vn -0.978625 0.205651 0.000000
vn -0.978625 0.205651 0.000000
vn -0.978625 0.205651 0.000000
vn 0.002492 0.856543 0.516069
vn 0.002492 0.856543 0.516069
vn 0.002492 0.856543 0.516069
vn 0.002492 0.856543 0.516069
vn 0.002492 0.856543 0.516069
vn 0.002492 0.856543 0.516069
vn 0.199953 -0.979805 0.000000
vn 0.199953 -0.979805 0.000000
vn 0.199953 -0.979805 0.000000
vn 0.205651 0.978625 0.000000
vn 0.205651 0.978625 0.000000
vn 0.205651 0.978625 0.000000
vn 0.856543 -0.002493 0.516069
vn 0.856543 -0.002493 0.516069
vn 0.856543 -0.002493 0.516069
vn 0.856543 -0.002493 0.516069
vn 0.856543 -0.002493 0.516069
vn 0.856543 -0.002493 0.516069
vn 0.000000 0.000000 -1.000000
vn 0.000000 0.000000 -1.000000
vn 0.000000 0.000000 -1.000000
vn 0.000000 0.000000 -1.000000
vn 0.000000 0.000000 -1.000000
vn 0.000000 0.000000 -1.000000
vn 0.992517 0.000000 0.122108
vn 0.992517 0.000000 0.122108
vn 0.992517 0.000000 0.122108
vn 0.992517 0.000000 0.122108
vn 0.992517 0.000000 0.122108
vn 0.992517 0.000000 0.122108
vn -0.992089 0.000000 0.125533
vn -0.992089 0.000000 0.125533
vn -0.992089 0.000000 0.125533
vn -0.992089 0.000000 0.125533
vn -0.992089 0.000000 0.125533
vn -0.992089 0.000000 0.125533
vn 0.000011 0.003842 0.999993
vn 0.000011 0.003842 0.999993
vn 0.000000 0.000000 1.000000
vn 0.000011 0.003842 0.999993
vn 0.000000 0.000000 1.000000
vn 0.000000 0.000000 1.000000
vn 0.000000 0.000000 -1.000000
vn 0.000000 0.000000 -1.000000
vn 0.000000 0.000000 -1.000000
vn 0.000000 0.000000 -1.000000
vn 0.000000 0.000000 -1.000000
vn 0.000000 0.000000 -1.000000
vn 0.992089 0.000000 0.125533
vn 0.992089 0.000000 0.125533
vn 0.992089 0.000000 0.125533
vn 0.992089 0.000000 0.125533
vn 0.992089 0.000000 0.125533
vn 0.992089 0.000000 0.125533
vn -0.992517 0.000000 0.122108
vn -0.423667 -0.003280 0.905812
vn -0.662530 0.000000 0.749035
vn -0.992517 0.000000 0.122108
vn -0.662530 0.000000 0.749035
vn -0.992517 0.000000 0.122108
vn -0.423667 -0.003280 0.905812
vn -0.000011 -0.003842 0.999993
vn 0.000000 0.000000 1.000000
vn -0.423667 -0.003280 0.905812
vn 0.000000 0.000000 1.000000
vn -0.662530 0.000000 0.749035
f 25/1/1 29/2/2 35/3/3
f 25/4/4 35/5/5 36/6/6
f 41/7/7 39/8/8 40/9/9
f 41/10/10 40/11/11 42/12/12
f 31/13/13 33/14/14 34/15/15
f 31/16/16 34/17/17 32/18/18
f 37/19/19 45/20/20 46/21/21
f 37/22/22 46/23/23 32/24/24
f 37/25/25 32/26/26 51/27/27
f 37/28/28 51/29/29 50/30/30
f 41/31/31 48/32/32 47/33/33
f 41/34/34 47/35/35 36/36/36
f 41/37/37 36/38/38 57/39/39
f 41/40/40 57/41/41 56/42/42
f 37/43/43 38/44/44 30/45/45
f 37/46/46 30/47/47 27/48/48
f 31/49/49 43/50/50 44/51/51
f 31/52/52 44/53/53 42/54/54
f 31/55/55 42/56/56 53/57/57
f 31/58/58 53/59/59 54/60/60
f 25/61/61 26/62/62 28/63/63
f 25/64/64 28/65/65 27/66/66
f 25/67/67 27/68/68 59/69/69
f 25/70/70 59/71/71 60/72/72
f 18/73/73 14/74/74 26/75/75
f 18/76/76 26/77/77 25/78/78
f 12/79/79 17/80/80 27/81/81
f 12/82/82 27/83/83 28/84/84
f 58/85/85 13/86/86 29/87/87
f 58/88/88 29/89/89 63/90/90
f 14/91/91 12/92/92 28/93/93
f 14/94/94 28/95/95 26/96/96
f 23/97/97 22/98/98 31/99/99
f 23/100/100 31/101/101 32/102/102
f 5/103/103 7/104/104 34/105/105
f 5/106/106 34/107/107 33/108/108
f 13/109/109 15/110/110 35/111/111
f 13/112/112 35/113/113 29/114/114
f 19/115/115 18/116/116 25/117/117
f 19/118/118 25/119/119 36/120/120
f 17/121/121 24/122/122 37/123/123
f 17/124/124 37/125/125 27/126/126
f 9/127/127 11/128/128 30/129/129
f 9/130/130 30/131/131 38/132/132
f 1/133/133 3/134/134 40/135/135
f 1/136/136 40/137/137 39/138/138
f 21/139/139 20/140/140 41/141/141
f 21/142/142 41/143/143 42/144/144
f 22/145/145 6/146/146 43/147/147
f 22/148/148 43/149/149 31/150/150
f 4/151/151 21/152/152 42/153/153
f 4/154/154 42/155/155 44/156/156
f 6/157/157 4/158/158 44/159/159
f 6/160/160 44/161/161 43/162/162
f 67/163/163 5/164/164 33/165/165
f 67/166/166 33/167/167 69/168/168
f 24/169/169 10/170/170 45/171/171
f 24/172/172 45/173/173 37/174/174
f 10/175/175 8/176/176 46/177/177
f 10/178/178 46/179/179 45/180/180
f 64/181/181 9/182/182 38/183/183
f 64/184/184 38/185/185 66/186/186
f 8/187/187 23/188/188 32/189/189
f 8/190/190 32/191/191 46/192/192
f 16/193/193 19/194/194 36/195/195
f 16/196/196 36/197/197 47/198/198
f 20/199/199 2/200/200 48/201/201
f 20/202/202 48/203/203 41/204/204
f 2/205/205 16/206/206 47/207/207
f 2/208/208 47/209/209 48/210/210
f 55/211/211 1/212/212 39/213/213
f 55/214/214 39/215/215 71/216/216
f 63/217/217 29/218/218 25/219/219
f 63/220/220 25/221/221 60/222/222
f 71/223/223 39/224/224 41/225/225
f 71/226/226 41/227/227 56/228/228
f 69/229/229 33/230/230 31/231/231
f 69/232/232 31/233/233 54/234/234
f 66/235/235 38/236/236 37/237/237
f 66/238/238 37/239/239 50/240/240
f 72/241/241 35/242/242 15/243/243
f 72/244/244 15/245/245 70/246/246
f 57/247/247 36/248/248 35/249/249
f 57/250/250 35/251/251 72/252/252
f 53/253/253 42/254/254 40/255/255
f 53/256/256 40/257/257 68/258/258
f 68/259/259 40/260/260 3/261/261
f 68/262/262 3/263/263 52/264/264
f 62/265/265 30/266/266 11/267/267
f 62/268/268 11/269/269 61/270/270
f 59/271/271 27/272/272 30/273/273
f 59/274/274 30/275/275 62/276/276
f 51/277/277 32/278/278 34/279/279
f 51/280/280 34/281/281 65/282/282
f 65/283/283 34/284/284 7/285/285
f 65/286/286 7/287/287 49/288/288
f 62/289/289 61/290/290 59/291/291
f 76/292/292 73/293/293 74/294/294
f 76/295/295 74/296/296 75/297/297
f 63/298/298 60/299/299 58/300/300
f 50/301/301 51/302/302 49/303/303
f 50/304/304 49/305/305 64/306/306
f 64/307/307 66/308/308 50/309/309
f 54/310/310 67/311/311 69/312/312
f 53/313/313 68/314/314 52/315/315
f 77/316/316 78/317/317 80/318/318
f 77/319/319 80/320/320 79/321/321
f 56/322/322 55/323/323 71/324/324
f 57/325/325 72/326/326 70/327/327
f 70/328/328 55/329/329 56/330/330
f 70/331/331 56/332/332 57/333/333
f 61/334/334 58/335/335 74/336/336
f 61/337/337 74/338/338 73/339/339
f 58/340/340 60/341/341 75/342/342
f 58/343/343 75/344/344 74/345/345
f 59/346/346 61/347/347 73/348/348
f 59/349/349 73/350/350 76/351/351
f 60/352/352 59/353/353 76/354/354
f 60/355/355 76/356/356 75/357/357
f 52/358/358 67/359/359 78/360/360
f 52/361/361 78/362/362 77/363/363
f 53/364/364 52/365/365 77/366/366
f 53/367/367 77/368/368 79/369/369
f 67/370/370 54/371/371 80/372/372
f 67/373/373 80/374/374 78/375/375
f 54/376/376 53/377/377 79/378/378
f 54/379/379 79/380/380 80/381/381
