v -0.000000 -1.000000 -0.000000
v 0.000000 2.500000 0.000000
v 1.000000 1.000000 -0.000000
v 1.000000 2.500000 0.000000
v 0.923880 1.000000 -0.382684
v 0.923880 2.500000 -0.382683
v 0.707107 1.000000 -0.707107
v 0.707107 2.500000 -0.707107
v 0.382683 1.000000 -0.923880
v 0.382683 2.500000 -0.923880
v -0.000000 1.000000 -1.000000
v -0.000000 2.500000 -1.000000
v -0.382684 1.000000 -0.923879
v -0.382684 2.500000 -0.923879
v -0.707107 1.000000 -0.707107
v -0.707107 2.500000 -0.707107
v -0.923880 1.000000 -0.382683
v -0.923880 2.500000 -0.382683
v -1.000000 1.000000 0.000000
v -1.000000 2.500000 0.000000
v -0.923879 1.000000 0.382683
v -0.923879 2.500000 0.382684
v -0.707106 1.000000 0.707107
v -0.707106 2.500000 0.707107
v -0.382683 1.000000 0.923879
v -0.382683 2.500000 0.923879
v 0.000000 1.000000 1.000000
v 0.000000 2.500000 1.000000
v 0.382684 1.000000 0.923879
v 0.382684 2.500000 0.923879
v 0.707107 1.000000 0.707106
v 0.707107 2.500000 0.707106
v 0.923879 1.000000 0.382683
v 0.923879 2.500000 0.382683
v 1.627139 0.000000 -0.000001
v 1.503280 0.000000 0.622677
v 1.150562 0.000000 1.150559
v 0.622680 0.000000 1.503279
v 0.000002 0.000000 1.627139
v -0.622678 0.000000 1.503280
v -1.150560 0.000000 1.150562
v -1.503279 0.000000 0.622680
v -1.627139 0.000000 0.000001
v -1.503280 0.000000 -0.622679
v -1.150562 0.000000 -1.150560
v -0.622680 0.000000 -1.503279
v -0.000001 0.000000 -1.627139
v 0.622679 0.000000 -1.503280
v 1.150560 0.000000 -1.150562
v 1.503279 0.000000 -0.622680
v 1.503279 -1.000000 -0.622680
v 1.627139 -1.000000 -0.000001
v 1.503280 -1.000000 0.622677
v 1.150560 -1.000000 -1.150562
v 0.622679 -1.000000 -1.503280
v -0.000001 -1.000000 -1.627139
v -0.622680 -1.000000 -1.503279
v -1.150562 -1.000000 -1.150560
v -1.503280 -1.000000 -0.622679
v -1.627139 -1.000000 0.000001
v -1.503279 -1.000000 0.622680
v -1.150560 -1.000000 1.150562
v -0.622678 -1.000000 1.503280
v 0.000002 -1.000000 1.627139
v 0.622680 -1.000000 1.503279
v 1.150562 -1.000000 1.150559
vt 0.000000 0.000000
vt 0.000000 0.000000
vt 0.000000 0.000000
vt 0.000000 0.000000
vt 0.000000 0.000000
vt 0.000000 0.000000
vt 0.000000 0.000000
vt 0.000000 0.000000
vt 0.000000 0.000000
vt 0.000000 0.000000
vt 0.000000 0.000000
vt 0.000000 0.000000
vt 0.000000 0.000000
vt 0.000000 0.000000
vt 0.000000 0.000000
vt 0.000000 0.000000
vt 0.000000 0.000000
vt 0.000000 0.000000
vt 0.000000 0.000000
vt 0.000000 0.000000
vt 0.000000 0.000000
vt 0.000000 0.000000
vt 0.000000 0.000000
vt 0.000000 0.000000
vt 0.000000 0.000000
vt 0.000000 0.000000
vt 0.000000 0.000000
vt 0.000000 0.000000
vt 0.000000 0.000000
vt 0.000000 0.000000
vt 0.000000 0.000000
vt 0.000000 0.000000
vt 0.000000 0.000000
vt 0.000000 0.000000
vt 0.000000 0.000000
vt 0.000000 0.000000
vt 0.000000 0.000000
vt 0.000000 0.000000
vt 0.000000 0.000000
vt 0.000000 0.000000
vt 0.000000 0.000000
vt 0.000000 0.000000
vt 0.000000 0.000000
vt 0.000000 0.000000
vt 0.000000 0.000000
vt 0.000000 0.000000
vt 0.000000 0.000000
vt 0.000000 0.000000
vt 0.000000 0.000000
vt 0.000000 0.000000
vt 0.000000 0.000000
vt 0.000000 0.000000
vt 0.000000 0.000000
vt 0.000000 0.000000
vt 0.000000 0.000000
vt 0.000000 0.000000
vt 0.000000 0.000000
vt 0.000000 0.000000
vt 0.000000 0.000000
vt 0.000000 0.000000
vt 0.000000 0.000000
vt 0.000000 0.000000
vt 0.000000 0.000000
vt 0.000000 0.000000
vt 0.000000 0.000000
vt 0.000000 0.000000
vt 0.000000 0.000000
vt 0.000000 0.000000
vt 0.000000 0.000000
vt 0.000000 0.000000
vt 0.000000 0.000000
vt 0.000000 0.000000
vt 0.000000 0.000000
vt 0.000000 0.000000
vt 0.000000 0.000000
vt 0.000000 0.000000
vt 0.000000 0.000000
vt 0.000000 0.000000
vt 0.000000 0.000000
vt 0.000000 0.000000
vt 0.000000 0.000000
vt 0.000000 0.000000
vt 0.000000 0.000000
vt 0.000000 0.000000
vt 0.000000 0.000000
vt 0.000000 0.000000
vt 0.000000 0.000000
vt 0.000000 0.000000
vt 0.000000 0.000000
vt 0.000000 0.000000
vt 0.000000 0.000000
vt 0.000000 0.000000
vt 0.000000 0.000000
vt 0.000000 0.000000
vt 0.000000 0.000000
vt 0.000000 0.000000
vt 0.000000 0.000000
vt 0.000000 0.000000
vt 0.000000 0.000000
vt 0.000000 0.000000
vt 0.000000 0.000000
vt 0.000000 0.000000
vt 0.000000 0.000000
vt 0.000000 0.000000
vt 0.000000 0.000000
vt 0.000000 0.000000
vt 0.000000 0.000000
vt 0.000000 0.000000
vt 0.000000 0.000000
vt 0.000000 0.000000
vt 0.000000 0.000000
vt 0.000000 0.000000
vt 0.000000 0.000000
vt 0.000000 0.000000
vt 0.000000 0.000000
vt 0.000000 0.000000
vt 0.000000 0.000000
vt 0.000000 0.000000
vt 0.000000 0.000000
vt 0.000000 0.000000
vt 0.000000 0.000000
vt 0.000000 0.000000
vt 0.000000 0.000000
vt 0.000000 0.000000
vt 0.000000 0.000000
vt 0.000000 0.000000
vt 0.000000 0.000000
vt 0.000000 0.000000
vt 0.000000 0.000000
vt 0.000000 0.000000
vt 0.000000 0.000000
vt 0.000000 0.000000
vt 0.000000 0.000000
vt 0.000000 0.000000
vt 0.000000 0.000000
vt 0.000000 0.000000
vt 0.000000 0.000000
vt 0.000000 0.000000
vt 0.000000 0.000000
vt 0.000000 0.000000
vt 0.000000 0.000000
vt 0.000000 0.000000
vt 0.000000 0.000000
vt 0.000000 0.000000
vt 0.000000 0.000000
vt 0.000000 0.000000
vt 0.000000 0.000000
vt 0.000000 0.000000
vt 0.000000 0.000000
vt 0.000000 0.000000
vt 0.000000 0.000000
vt 0.000000 0.000000
vt 0.000000 0.000000
vt 0.000000 0.000000
vt 0.000000 0.000000
vt 0.000000 0.000000
vt 0.000000 0.000000
vt 0.000000 0.000000
vt 0.000000 0.000000
vt 0.000000 0.000000
vt 0.000000 0.000000
vt 0.000000 0.000000
vt 0.000000 0.000000
vt 0.000000 0.000000
vt 0.000000 0.000000
vt 0.000000 0.000000
vt 0.000000 0.000000
vt 0.000000 0.000000
vt 0.000000 0.000000
vt 0.000000 0.000000
vt 0.000000 0.000000
vt 0.000000 0.000000
vt 0.000000 0.000000
vt 0.000000 0.000000
vt 0.000000 0.000000
vt 0.000000 0.000000
vt 0.000000 0.000000
vt 0.000000 0.000000
vt 0.000000 0.000000
vt 0.000000 0.000000
vt 0.000000 0.000000
vt 0.000000 0.000000
vt 0.000000 0.000000
vt 0.000000 0.000000
vt 0.000000 0.000000
vt 0.000000 0.000000
vt 0.000000 0.000000
vt 0.000000 0.000000
vt 0.000000 0.000000
vt 0.000000 0.000000
vt 0.000000 0.000000
vt 0.000000 0.000000
vt 0.000000 0.000000
vt 0.000000 0.000000
vt 0.000000 0.000000
vt 0.000000 0.000000
vt 0.000000 0.000000
vt 0.000000 0.000000
vt 0.000000 0.000000
vt 0.000000 0.000000
vt 0.000000 0.000000
vt 0.000000 0.000000
vt 0.000000 0.000000
vt 0.000000 0.000000
vt 0.000000 0.000000
vt 0.000000 0.000000
vt 0.000000 0.000000
vt 0.000000 0.000000
vt 0.000000 0.000000
vt 0.000000 0.000000
vt 0.000000 0.000000
vt 0.000000 0.000000
vt 0.000000 0.000000
vt 0.000000 0.000000
vt 0.000000 0.000000
vt 0.000000 0.000000
vt 0.000000 0.000000
vt 0.000000 0.000000
vt 0.000000 0.000000
vt 0.000000 0.000000
vt 0.000000 0.000000
vt 0.000000 0.000000
vt 0.000000 0.000000
vt 0.000000 0.000000
vt 0.000000 0.000000
vt 0.000000 0.000000
vt 0.000000 0.000000
vt 0.000000 0.000000
vt 0.000000 0.000000
vt 0.000000 0.000000
vt 0.000000 0.000000
vt 0.000000 0.000000
vt 0.000000 0.000000
vt 0.000000 0.000000
vt 0.000000 0.000000
vt 0.000000 0.000000
vt 0.000000 0.000000
vt 0.000000 0.000000
vt 0.000000 0.000000
vt 0.000000 0.000000
vt 0.000000 0.000000
vt 0.000000 0.000000
vt 0.000000 0.000000
vt 0.000000 0.000000
vt 0.000000 0.000000
vt 0.000000 0.000000
vt 0.000000 0.000000
vt 0.000000 0.000000
vt 0.000000 0.000000
vt 0.000000 0.000000
vt 0.000000 0.000000
vt 0.000000 0.000000
vt 0.000000 0.000000
vt 0.000000 0.000000
vt 0.000000 0.000000
vt 0.000000 0.000000
vt 0.000000 0.000000
vt 0.000000 0.000000
vt 0.000000 0.000000
vt 0.000000 0.000000
vt 0.000000 0.000000
vt 0.000000 0.000000
vt 0.000000 0.000000
vt 0.000000 0.000000
vt 0.000000 0.000000
vt 0.000000 0.000000
vt 0.000000 0.000000
vt 0.000000 0.000000
vt 0.000000 0.000000
vt 0.000000 0.000000
vt 0.000000 0.000000
vt 0.000000 0.000000
vt 0.000000 0.000000
vt 0.000000 0.000000
vt 0.000000 0.000000
vt 0.000000 0.000000
vt 0.000000 0.000000
vt 0.000000 0.000000
vt 0.000000 0.000000
vt 0.000000 0.000000
vt 0.000000 0.000000
vt 0.000000 0.000000
vt 0.000000 0.000000
vt 0.000000 0.000000
vt 0.000000 0.000000
vt 0.000000 0.000000
vt 0.000000 0.000000
vt 0.000000 0.000000
vt 0.000000 0.000000
vt 0.000000 0.000000
vt 0.000000 0.000000
vt 0.000000 0.000000
vt 0.000000 0.000000
vt 0.000000 0.000000
vt 0.000000 0.000000
vt 0.000000 0.000000
vt 0.000000 0.000000
vt 0.000000 0.000000
vt 0.000000 0.000000
vt 0.000000 0.000000
vt 0.000000 0.000000
vt 0.000000 0.000000
vt 0.000000 0.000000
vt 0.000000 0.000000
vt 0.000000 0.000000
vt 0.000000 0.000000
vt 0.000000 0.000000
vt 0.000000 0.000000
vt 0.000000 0.000000
vt 0.000000 0.000000
vt 0.000000 0.000000
vt 0.000000 0.000000
vt 0.000000 0.000000
vt 0.000000 0.000000
vt 0.000000 0.000000
vt 0.000000 0.000000
vt 0.000000 0.000000
vt 0.000000 0.000000
vt 0.000000 0.000000
vt 0.000000 0.000000
vt 0.000000 0.000000
vt 0.000000 0.000000
vt 0.000000 0.000000
vt 0.000000 0.000000
vt 0.000000 0.000000
vt 0.000000 0.000000
vt 0.000000 0.000000
vt 0.000000 0.000000
vt 0.000000 0.000000
vt 0.000000 0.000000
vt 0.000000 0.000000
vt 0.000000 0.000000
vt 0.000000 0.000000
vt 0.000000 0.000000
vt 0.000000 0.000000
vt 0.000000 0.000000
vt 0.000000 0.000000
vt 0.000000 0.000000
vt 0.000000 0.000000
vt 0.000000 0.000000
vt 0.000000 0.000000
vt 0.000000 0.000000
vt 0.000000 0.000000
vt 0.000000 0.000000
vt 0.000000 0.000000
vt 0.000000 0.000000
vt 0.000000 0.000000
vt 0.000000 0.000000
vt 0.000000 0.000000
vt 0.000000 0.000000
vt 0.000000 0.000000
vt 0.000000 0.000000
vt 0.000000 0.000000
vt 0.000000 0.000000
vt 0.000000 0.000000
vt 0.000000 0.000000
vt 0.000000 0.000000
vt 0.000000 0.000000
vt 0.000000 0.000000
vt 0.000000 0.000000
vt 0.000000 0.000000
vt 0.000000 0.000000
vt 0.000000 0.000000
vt 0.000000 0.000000
vt 0.000000 0.000000
vt 0.000000 0.000000
vt 0.000000 0.000000
vt 0.000000 0.000000
vt 0.000000 0.000000
vt 0.000000 0.000000
vt 0.000000 0.000000
vt 0.000000 0.000000
vt 0.000000 0.000000
vt 0.000000 0.000000
vt 0.000000 0.000000
vt 0.000000 0.000000
vt 0.000000 0.000000
vt 0.000000 0.000000
vt 0.000000 0.000000
vt 0.000000 0.000000
vt 0.000000 0.000000
vt 0.000000 0.000000
vt 0.000000 0.000000
vt 0.000000 0.000000
vn 0.000000 -1.000000 0.000000
vn 0.000000 -1.000000 0.000000
vn 0.000000 -1.000000 0.000000
vn 1.000000 -0.000000 0.000000
vn 0.923880 0.000000 -0.382684
vn 0.923880 0.000000 -0.382684
vn 1.000000 -0.000000 0.000000
vn 0.923880 0.000000 -0.382684
vn 1.000000 -0.000000 0.000000
vn 0.000000 1.000000 0.000000
vn 0.000000 1.000000 0.000000
vn 0.000000 1.000000 0.000000
vn 0.000000 -1.000000 0.000000
vn 0.000000 -1.000000 0.000000
vn 0.000000 -1.000000 0.000000
vn 0.923880 0.000000 -0.382684
vn 0.707107 0.000000 -0.707107
vn 0.707107 0.000000 -0.707107
vn 0.923880 0.000000 -0.382684
vn 0.707107 0.000000 -0.707107
vn 0.923880 0.000000 -0.382684
vn 0.000000 1.000000 0.000000
vn 0.000000 1.000000 0.000000
vn 0.000000 1.000000 0.000000
vn 0.000000 -1.000000 0.000000
vn 0.000000 -1.000000 0.000000
vn 0.000000 -1.000000 0.000000
vn 0.707107 0.000000 -0.707107
vn 0.382683 0.000000 -0.923880
vn 0.382683 0.000000 -0.923880
vn 0.707107 0.000000 -0.707107
vn 0.382683 0.000000 -0.923880
vn 0.707107 0.000000 -0.707107
vn 0.000000 1.000000 0.000000
vn 0.000000 1.000000 0.000000
vn 0.000000 1.000000 0.000000
vn 0.000000 -1.000000 0.000000
vn 0.000000 -1.000000 0.000000
vn 0.000000 -1.000000 0.000000
vn 0.382683 0.000000 -0.923880
vn -0.000000 0.000000 -1.000000
vn -0.000000 0.000000 -1.000000
vn 0.382683 0.000000 -0.923880
vn -0.000000 0.000000 -1.000000
vn 0.382683 0.000000 -0.923880
vn 0.000000 1.000000 0.000000
vn 0.000000 1.000000 0.000000
vn 0.000000 1.000000 0.000000
vn 0.000000 -1.000000 0.000000
vn 0.000000 -1.000000 0.000000
vn 0.000000 -1.000000 0.000000
vn -0.000000 0.000000 -1.000000
vn -0.382684 0.000000 -0.923879
vn -0.382684 0.000000 -0.923879
vn -0.000000 0.000000 -1.000000
vn -0.382684 0.000000 -0.923879
vn -0.000000 0.000000 -1.000000
vn 0.000000 1.000000 0.000000
vn 0.000000 1.000000 0.000000
vn 0.000000 1.000000 0.000000
vn 0.000000 -1.000000 0.000000
vn 0.000000 -1.000000 0.000000
vn 0.000000 -1.000000 0.000000
vn -0.382684 0.000000 -0.923879
vn -0.707107 0.000000 -0.707107
vn -0.707107 0.000000 -0.707107
vn -0.382684 0.000000 -0.923879
vn -0.707107 0.000000 -0.707107
vn -0.382684 0.000000 -0.923879
vn 0.000000 1.000000 0.000000
vn 0.000000 1.000000 0.000000
vn 0.000000 1.000000 0.000000
vn 0.000000 -1.000000 0.000000
vn 0.000000 -1.000000 0.000000
vn 0.000000 -1.000000 0.000000
vn -0.707107 0.000000 -0.707107
vn -0.923880 0.000000 -0.382683
vn -0.923880 0.000000 -0.382683
vn -0.707107 0.000000 -0.707107
vn -0.923880 0.000000 -0.382683
vn -0.707107 0.000000 -0.707107
vn 0.000000 1.000000 0.000000
vn 0.000000 1.000000 0.000000
vn 0.000000 1.000000 0.000000
vn 0.000000 -1.000000 0.000000
vn 0.000000 -1.000000 0.000000
vn 0.000000 -1.000000 0.000000
vn -0.923880 0.000000 -0.382683
vn -1.000000 -0.000000 0.000000
vn -1.000000 -0.000000 0.000000
vn -0.923880 0.000000 -0.382683
vn -1.000000 -0.000000 0.000000
vn -0.923880 0.000000 -0.382683
vn 0.000000 1.000000 0.000000
vn 0.000000 1.000000 0.000000
vn 0.000000 1.000000 0.000000
vn 0.000000 -1.000000 0.000000
vn 0.000000 -1.000000 0.000000
vn 0.000000 -1.000000 0.000000
vn -1.000000 -0.000000 0.000000
vn -0.923879 -0.000000 0.382684
vn -0.923879 -0.000000 0.382684
vn -1.000000 -0.000000 0.000000
vn -0.923879 -0.000000 0.382684
vn -1.000000 -0.000000 0.000000
vn 0.000000 1.000000 0.000000
vn 0.000000 1.000000 0.000000
vn 0.000000 1.000000 0.000000
vn 0.000000 -1.000000 0.000000
vn 0.000000 -1.000000 0.000000
vn 0.000000 -1.000000 0.000000
vn -0.923879 -0.000000 0.382684
vn -0.707107 -0.000000 0.707107
vn -0.707107 -0.000000 0.707107
vn -0.923879 -0.000000 0.382684
vn -0.707107 -0.000000 0.707107
vn -0.923879 -0.000000 0.382684
vn 0.000000 1.000000 0.000000
vn 0.000000 1.000000 0.000000
vn 0.000000 1.000000 0.000000
vn 0.000000 -1.000000 0.000000
vn 0.000000 -1.000000 0.000000
vn 0.000000 -1.000000 0.000000
vn -0.707107 -0.000000 0.707107
vn -0.382683 0.000000 0.923880
vn -0.382683 0.000000 0.923880
vn -0.707107 -0.000000 0.707107
vn -0.382683 0.000000 0.923880
vn -0.707107 -0.000000 0.707107
vn 0.000000 1.000000 0.000000
vn 0.000000 1.000000 0.000000
vn 0.000000 1.000000 0.000000
vn 0.000000 -1.000000 0.000000
vn 0.000000 -1.000000 0.000000
vn 0.000000 -1.000000 0.000000
vn -0.382683 0.000000 0.923880
vn 0.000000 0.000000 1.000000
vn 0.000000 0.000000 1.000000
vn -0.382683 0.000000 0.923880
vn 0.000000 0.000000 1.000000
vn -0.382683 0.000000 0.923880
vn 0.000000 1.000000 0.000000
vn 0.000000 1.000000 0.000000
vn 0.000000 1.000000 0.000000
vn 0.000000 -1.000000 0.000000
vn 0.000000 -1.000000 0.000000
vn 0.000000 -1.000000 0.000000
vn 0.000000 0.000000 1.000000
vn 0.382684 0.000000 0.923879
vn 0.382684 0.000000 0.923879
vn 0.000000 0.000000 1.000000
vn 0.382684 0.000000 0.923879
vn 0.000000 0.000000 1.000000
vn 0.000000 1.000000 0.000000
vn 0.000000 1.000000 0.000000
vn 0.000000 1.000000 0.000000
vn 0.000000 -1.000000 0.000000
vn 0.000000 -1.000000 0.000000
vn 0.000000 -1.000000 0.000000
vn 0.382684 0.000000 0.923879
vn 0.707107 -0.000000 0.707106
vn 0.707107 -0.000000 0.707106
vn 0.382684 0.000000 0.923879
vn 0.707107 -0.000000 0.707106
vn 0.382684 0.000000 0.923879
vn 0.000000 1.000000 0.000000
vn 0.000000 1.000000 0.000000
vn 0.000000 1.000000 0.000000
vn 0.000000 -1.000000 0.000000
vn 0.000000 -1.000000 0.000000
vn 0.000000 -1.000000 0.000000
vn 0.707107 -0.000000 0.707106
vn 0.923880 -0.000000 0.382683
vn 0.923880 -0.000000 0.382683
vn 0.707107 -0.000000 0.707106
vn 0.923880 -0.000000 0.382683
vn 0.707107 -0.000000 0.707106
vn 0.000000 1.000000 0.000000
vn 0.000000 1.000000 0.000000
vn 0.000000 1.000000 0.000000
vn 0.000000 -1.000000 0.000000
vn 0.000000 -1.000000 0.000000
vn 0.000000 -1.000000 0.000000
vn 0.923880 -0.000000 0.382683
vn 1.000000 -0.000000 0.000000
vn 1.000000 -0.000000 0.000000
vn 0.923880 -0.000000 0.382683
vn 1.000000 -0.000000 0.000000
vn 0.923880 -0.000000 0.382683
vn 0.000000 1.000000 0.000000
vn 0.000000 1.000000 0.000000
vn 0.000000 1.000000 0.000000
vn 0.847183 0.531301 -0.000000
vn 0.782695 0.531301 0.324203
vn 0.782695 0.531301 0.324203
vn 0.847183 0.531301 -0.000000
vn 0.782695 0.531301 0.324203
vn 0.847183 0.531301 -0.000000
vn 0.782695 0.531301 0.324203
vn 0.599049 0.531301 0.599048
vn 0.599049 0.531301 0.599048
vn 0.782695 0.531301 0.324203
vn 0.599049 0.531301 0.599048
vn 0.782695 0.531301 0.324203
vn 0.599049 0.531301 0.599048
vn 0.324204 0.531301 0.782695
vn 0.324204 0.531301 0.782695
vn 0.599049 0.531301 0.599048
vn 0.324204 0.531301 0.782695
vn 0.599049 0.531301 0.599048
vn 0.324204 0.531301 0.782695
vn 0.000001 0.531301 0.847183
vn 0.000001 0.531301 0.847183
vn 0.324204 0.531301 0.782695
vn 0.000001 0.531301 0.847183
vn 0.324204 0.531301 0.782695
vn 0.000001 0.531301 0.847183
vn -0.324202 0.531301 0.782695
vn -0.324202 0.531301 0.782695
vn 0.000001 0.531301 0.847183
vn -0.324202 0.531301 0.782695
vn 0.000001 0.531301 0.847183
vn -0.324202 0.531301 0.782695
vn -0.599049 0.531301 0.599049
vn -0.599049 0.531301 0.599049
vn -0.324202 0.531301 0.782695
vn -0.599049 0.531301 0.599049
vn -0.324202 0.531301 0.782695
vn -0.599049 0.531301 0.599049
vn -0.782695 0.531301 0.324203
vn -0.782695 0.531301 0.324203
vn -0.599049 0.531301 0.599049
vn -0.782695 0.531301 0.324203
vn -0.599049 0.531301 0.599049
vn -0.782695 0.531301 0.324203
vn -0.847183 0.531301 0.000001
vn -0.847183 0.531301 0.000001
vn -0.782695 0.531301 0.324203
vn -0.847183 0.531301 0.000001
vn -0.782695 0.531301 0.324203
vn -0.847183 0.531301 0.000001
vn -0.782695 0.531301 -0.324203
vn -0.782695 0.531301 -0.324203
vn -0.847183 0.531301 0.000001
vn -0.782695 0.531301 -0.324203
vn -0.847183 0.531301 0.000001
vn -0.782695 0.531301 -0.324203
vn -0.599049 0.531301 -0.599049
vn -0.599049 0.531301 -0.599049
vn -0.782695 0.531301 -0.324203
vn -0.599049 0.531301 -0.599049
vn -0.782695 0.531301 -0.324203
vn -0.599049 0.531301 -0.599049
vn -0.324204 0.531301 -0.782695
vn -0.324204 0.531301 -0.782695
vn -0.599049 0.531301 -0.599049
vn -0.324204 0.531301 -0.782695
vn -0.599049 0.531301 -0.599049
vn -0.324204 0.531301 -0.782695
vn -0.000001 0.531301 -0.847183
vn -0.000001 0.531301 -0.847183
vn -0.324204 0.531301 -0.782695
vn -0.000001 0.531301 -0.847183
vn -0.324204 0.531301 -0.782695
vn -0.000001 0.531301 -0.847183
vn 0.324203 0.531301 -0.782695
vn 0.324203 0.531301 -0.782695
vn -0.000001 0.531301 -0.847183
vn 0.324203 0.531301 -0.782695
vn -0.000001 0.531301 -0.847183
vn 0.324203 0.531301 -0.782695
vn 0.599049 0.531301 -0.599049
vn 0.599049 0.531301 -0.599049
vn 0.324203 0.531301 -0.782695
vn 0.599049 0.531301 -0.599049
vn 0.324203 0.531301 -0.782695
vn 0.599049 0.531301 -0.599049
vn 0.782695 0.531301 -0.324203
vn 0.782695 0.531301 -0.324203
vn 0.599049 0.531301 -0.599049
vn 0.782695 0.531301 -0.324203
vn 0.599049 0.531301 -0.599049
vn 0.782695 0.531301 -0.324203
vn 0.847183 0.531301 -0.000000
vn 0.847183 0.531301 -0.000000
vn 0.782695 0.531301 -0.324203
vn 0.847183 0.531301 -0.000000
vn 0.782695 0.531301 -0.324203
vn 0.923879 -0.000000 -0.382684
vn 1.000000 -0.000000 -0.000000
vn 1.000000 -0.000000 -0.000000
vn 0.923879 -0.000000 -0.382684
vn 1.000000 -0.000000 -0.000000
vn 0.923879 -0.000000 -0.382684
vn 1.000000 -0.000000 -0.000000
vn 0.923880 0.000000 0.382683
vn 0.923880 0.000000 0.382683
vn 1.000000 -0.000000 -0.000000
vn 0.923880 0.000000 0.382683
vn 1.000000 -0.000000 -0.000000
vn 0.707106 0.000000 -0.707107
vn 0.923879 -0.000000 -0.382684
vn 0.923879 -0.000000 -0.382684
vn 0.707106 0.000000 -0.707107
vn 0.923879 -0.000000 -0.382684
vn 0.707106 0.000000 -0.707107
vn 0.382683 0.000000 -0.923880
vn 0.707106 0.000000 -0.707107
vn 0.707106 0.000000 -0.707107
vn 0.382683 0.000000 -0.923880
vn 0.707106 0.000000 -0.707107
vn 0.382683 0.000000 -0.923880
vn -0.000001 0.000000 -1.000000
vn 0.382683 0.000000 -0.923880
vn 0.382683 0.000000 -0.923880
vn -0.000001 0.000000 -1.000000
vn 0.382683 0.000000 -0.923880
vn -0.000001 0.000000 -1.000000
vn -0.382684 0.000000 -0.923879
vn -0.000001 0.000000 -1.000000
vn -0.000001 0.000000 -1.000000
vn -0.382684 0.000000 -0.923879
vn -0.000001 0.000000 -1.000000
vn -0.382684 0.000000 -0.923879
vn -0.707107 0.000000 -0.707106
vn -0.382684 0.000000 -0.923879
vn -0.382684 0.000000 -0.923879
vn -0.707107 0.000000 -0.707106
vn -0.382684 0.000000 -0.923879
vn -0.707107 0.000000 -0.707106
vn -0.923880 -0.000000 -0.382683
vn -0.707107 0.000000 -0.707106
vn -0.707107 0.000000 -0.707106
vn -0.923880 -0.000000 -0.382683
vn -0.707107 0.000000 -0.707106
vn -0.923880 -0.000000 -0.382683
vn -1.000000 0.000000 0.000001
vn -0.923880 -0.000000 -0.382683
vn -0.923880 -0.000000 -0.382683
vn -1.000000 0.000000 0.000001
vn -0.923880 -0.000000 -0.382683
vn -1.000000 0.000000 0.000001
vn -0.923879 0.000000 0.382684
vn -1.000000 0.000000 0.000001
vn -1.000000 0.000000 0.000001
vn -0.923879 0.000000 0.382684
vn -1.000000 0.000000 0.000001
vn -0.923879 0.000000 0.382684
vn -0.707107 0.000000 0.707107
vn -0.923879 0.000000 0.382684
vn -0.923879 0.000000 0.382684
vn -0.707107 0.000000 0.707107
vn -0.923879 0.000000 0.382684
vn -0.707107 0.000000 0.707107
vn -0.382683 0.000000 0.923880
vn -0.707107 0.000000 0.707107
vn -0.707107 0.000000 0.707107
vn -0.382683 0.000000 0.923880
vn -0.707107 0.000000 0.707107
vn -0.382683 0.000000 0.923880
vn 0.000001 0.000000 1.000000
vn -0.382683 0.000000 0.923880
vn -0.382683 0.000000 0.923880
vn 0.000001 0.000000 1.000000
vn -0.382683 0.000000 0.923880
vn 0.000001 0.000000 1.000000
vn 0.382685 0.000000 0.923879
vn 0.000001 0.000000 1.000000
vn 0.000001 0.000000 1.000000
vn 0.382685 0.000000 0.923879
vn 0.000001 0.000000 1.000000
vn 0.382685 0.000000 0.923879
vn 0.707107 0.000000 0.707106
vn 0.382685 0.000000 0.923879
vn 0.382685 0.000000 0.923879
vn 0.707107 0.000000 0.707106
vn 0.382685 0.000000 0.923879
vn 0.707107 0.000000 0.707106
vn 0.923880 0.000000 0.382683
vn 0.707107 0.000000 0.707106
vn 0.707107 0.000000 0.707106
vn 0.923880 0.000000 0.382683
vn 0.707107 0.000000 0.707106
vn 0.923880 0.000000 0.382683
f 51/1/1 52/2/2 1/3/3
f 3/4/4 5/5/5 6/6/6
f 3/7/7 6/8/8 4/9/9
f 4/10/10 6/11/11 2/12/12
f 54/13/13 51/14/14 1/15/15
f 5/16/16 7/17/17 8/18/18
f 5/19/19 8/20/20 6/21/21
f 6/22/22 8/23/23 2/24/24
f 55/25/25 54/26/26 1/27/27
f 7/28/28 9/29/29 10/30/30
f 7/31/31 10/32/32 8/33/33
f 8/34/34 10/35/35 2/36/36
f 56/37/37 55/38/38 1/39/39
f 9/40/40 11/41/41 12/42/42
f 9/43/43 12/44/44 10/45/45
f 10/46/46 12/47/47 2/48/48
f 57/49/49 56/50/50 1/51/51
f 11/52/52 13/53/53 14/54/54
f 11/55/55 14/56/56 12/57/57
f 12/58/58 14/59/59 2/60/60
f 58/61/61 57/62/62 1/63/63
f 13/64/64 15/65/65 16/66/66
f 13/67/67 16/68/68 14/69/69
f 14/70/70 16/71/71 2/72/72
f 59/73/73 58/74/74 1/75/75
f 15/76/76 17/77/77 18/78/78
f 15/79/79 18/80/80 16/81/81
f 16/82/82 18/83/83 2/84/84
f 60/85/85 59/86/86 1/87/87
f 17/88/88 19/89/89 20/90/90
f 17/91/91 20/92/92 18/93/93
f 18/94/94 20/95/95 2/96/96
f 61/97/97 60/98/98 1/99/99
f 19/100/100 21/101/101 22/102/102
f 19/103/103 22/104/104 20/105/105
f 20/106/106 22/107/107 2/108/108
f 62/109/109 61/110/110 1/111/111
f 21/112/112 23/113/113 24/114/114
f 21/115/115 24/116/116 22/117/117
f 22/118/118 24/119/119 2/120/120
f 63/121/121 62/122/122 1/123/123
f 23/124/124 25/125/125 26/126/126
f 23/127/127 26/128/128 24/129/129
f 24/130/130 26/131/131 2/132/132
f 64/133/133 63/134/134 1/135/135
f 25/136/136 27/137/137 28/138/138
f 25/139/139 28/140/140 26/141/141
f 26/142/142 28/143/143 2/144/144
f 65/145/145 64/146/146 1/147/147
f 27/148/148 29/149/149 30/150/150
f 27/151/151 30/152/152 28/153/153
f 28/154/154 30/155/155 2/156/156
f 66/157/157 65/158/158 1/159/159
f 29/160/160 31/161/161 32/162/162
f 29/163/163 32/164/164 30/165/165
f 30/166/166 32/167/167 2/168/168
f 53/169/169 66/170/170 1/171/171
f 31/172/172 33/173/173 34/174/174
f 31/175/175 34/176/176 32/177/177
f 32/178/178 34/179/179 2/180/180
f 52/181/181 53/182/182 1/183/183
f 33/184/184 3/185/185 4/186/186
f 33/187/187 4/188/188 34/189/189
f 34/190/190 4/191/191 2/192/192
f 3/193/193 33/194/194 36/195/195
f 3/196/196 36/197/197 35/198/198
f 33/199/199 31/200/200 37/201/201
f 33/202/202 37/203/203 36/204/204
f 31/205/205 29/206/206 38/207/207
f 31/208/208 38/209/209 37/210/210
f 29/211/211 27/212/212 39/213/213
f 29/214/214 39/215/215 38/216/216
f 27/217/217 25/218/218 40/219/219
f 27/220/220 40/221/221 39/222/222
f 25/223/223 23/224/224 41/225/225
f 25/226/226 41/227/227 40/228/228
f 23/229/229 21/230/230 42/231/231
f 23/232/232 42/233/233 41/234/234
f 21/235/235 19/236/236 43/237/237
f 21/238/238 43/239/239 42/240/240
f 19/241/241 17/242/242 44/243/243
f 19/244/244 44/245/245 43/246/246
f 17/247/247 15/248/248 45/249/249
f 17/250/250 45/251/251 44/252/252
f 15/253/253 13/254/254 46/255/255
f 15/256/256 46/257/257 45/258/258
f 13/259/259 11/260/260 47/261/261
f 13/262/262 47/263/263 46/264/264
f 11/265/265 9/266/266 48/267/267
f 11/268/268 48/269/269 47/270/270
f 9/271/271 7/272/272 49/273/273
f 9/274/274 49/275/275 48/276/276
f 7/277/277 5/278/278 50/279/279
f 7/280/280 50/281/281 49/282/282
f 5/283/283 3/284/284 35/285/285
f 5/286/286 35/287/287 50/288/288
f 50/289/289 35/290/290 52/291/291
f 50/292/292 52/293/293 51/294/294
f 35/295/295 36/296/296 53/297/297
f 35/298/298 53/299/299 52/300/300
f 49/301/301 50/302/302 51/303/303
f 49/304/304 51/305/305 54/306/306
f 48/307/307 49/308/308 54/309/309
f 48/310/310 54/311/311 55/312/312
f 47/313/313 48/314/314 55/315/315
f 47/316/316 55/317/317 56/318/318
f 46/319/319 47/320/320 56/321/321
f 46/322/322 56/323/323 57/324/324
f 45/325/325 46/326/326 57/327/327
f 45/328/328 57/329/329 58/330/330
f 44/331/331 45/332/332 58/333/333
f 44/334/334 58/335/335 59/336/336
f 43/337/337 44/338/338 59/339/339
f 43/340/340 59/341/341 60/342/342
f 42/343/343 43/344/344 60/345/345
f 42/346/346 60/347/347 61/348/348
f 41/349/349 42/350/350 61/351/351
f 41/352/352 61/353/353 62/354/354
f 40/355/355 41/356/356 62/357/357
f 40/358/358 62/359/359 63/360/360
f 39/361/361 40/362/362 63/363/363
f 39/364/364 63/365/365 64/366/366
f 38/367/367 39/368/368 64/369/369
f 38/370/370 64/371/371 65/372/372
f 37/373/373 38/374/374 65/375/375
f 37/376/376 65/377/377 66/378/378
f 36/379/379 37/380/380 66/381/381
f 36/382/382 66/383/383 53/384/384
