v -5.900280 -9.302456 -2.329622
v -7.333828 -7.775962 -2.729172
v -8.490746 -6.011247 -3.025709
v -9.339106 -4.060182 -3.230385
v -9.853259 -1.979777 -3.347704
v -10.016519 0.167877 -3.378561
v -9.822608 2.317913 -3.321771
v -9.275913 4.405562 -3.174111
v -8.390484 6.368567 -2.928888
v -7.262621 7.870805 -2.715712
v -5.813514 9.380292 -2.313220
v -4.301714 -9.093663 -3.247161
v -5.357258 -7.596558 -3.779785
v -6.214725 -5.877788 -4.187634
v -6.846685 -3.978836 -4.477760
v -7.231544 -1.952521 -4.649670
v -7.355627 0.140622 -4.701044
v -7.214165 2.236567 -4.629907
v -6.811478 4.272103 -4.434707
v -6.160353 6.189163 -4.112289
v -5.303138 7.691401 -3.757376
v -4.235769 9.171499 -3.219856
v -2.184962 -9.002610 -3.737905
v -2.740244 -7.523912 -4.359138
v -3.193449 -5.826102 -4.842866
v -3.528382 -3.948117 -5.191038
v -3.732780 -1.942345 -5.399440
v -3.799048 0.130446 -5.463661
v -3.724638 2.205848 -5.381233
v -3.169146 6.116518 -4.774793
v -2.711341 7.618755 -4.331126
v -2.149743 9.080446 -3.703772
v 5.900281 -9.302456 -2.329621
v 7.333829 -7.775962 -2.729170
v 8.490747 -6.011247 -3.025707
v 9.339107 -4.060182 -3.230384
v 9.853260 -1.979777 -3.347702
v 10.016520 0.167877 -3.378560
v 9.822609 2.317913 -3.321769
v 9.275914 4.405562 -3.174110
v 8.390485 6.368567 -2.928887
v 7.262622 7.870805 -2.715710
v 5.813515 9.380292 -2.313219
v 4.301715 -9.093663 -3.247160
v 5.357259 -7.596558 -3.779784
v 6.214726 -5.877788 -4.187633
v 6.846686 -3.978836 -4.477759
v 7.231545 -1.952521 -4.649669
v 7.355628 0.140622 -4.701043
v 7.214166 2.236567 -4.629906
v 6.811479 4.272103 -4.434706
v 6.160354 6.189163 -4.112288
v 5.303139 7.691401 -3.757376
v 4.235770 9.171499 -3.219855
v 2.184963 -9.002610 -3.737905
v 2.740245 -7.523912 -4.359138
v 3.193449 -5.826102 -4.842866
v 3.528383 -3.948117 -5.191038
v 3.732781 -1.942345 -5.399440
v 3.799049 0.130446 -5.463661
v 3.724639 2.205848 -5.381233
v 3.169146 6.116518 -4.774792
v 2.711341 7.618755 -4.331125
v 2.149744 9.080446 -3.703772
v 0.000000 -9.002610 -3.839331
v 0.000000 -7.523912 -4.487122
v 0.000000 -5.826102 -4.992581
v 0.000000 6.116518 -4.923442
v 0.000000 7.618755 -4.457716
v 0.000000 9.080446 -3.803501
v 0.000000 2.205848 -5.381233
v 0.000000 0.130446 -5.463661
v 0.000000 -1.942345 -5.399440
v 0.000000 -3.948117 -5.191038
v 0.000000 4.161183 -5.152338
v -3.446892 4.161183 -5.078013
v 3.446893 4.161183 -5.078012
vt 0.206380 0.061849
vt 0.345703 0.061849
vt 0.345703 0.201823
vt 0.206380 0.061849
vt 0.345703 0.201823
vt 0.206380 0.201823
vt 0.206380 0.061849
vt 0.345703 0.061849
vt 0.345703 0.201823
vt 0.206380 0.061849
vt 0.345703 0.201823
vt 0.206380 0.201823
vt 0.206380 0.061849
vt 0.345703 0.061849
vt 0.345703 0.201823
vt 0.206380 0.061849
vt 0.345703 0.201823
vt 0.206380 0.201823
vt 0.206380 0.061849
vt 0.345703 0.061849
vt 0.345703 0.201823
vt 0.206380 0.061849
vt 0.345703 0.201823
vt 0.206380 0.201823
vt 0.206380 0.061849
vt 0.345703 0.061849
vt 0.345703 0.201823
vt 0.206380 0.061849
vt 0.345703 0.201823
vt 0.206380 0.201823
vt 0.206380 0.061849
vt 0.345703 0.061849
vt 0.345703 0.201823
vt 0.206380 0.061849
vt 0.345703 0.201823
vt 0.206380 0.201823
vt 0.206380 0.061849
vt 0.345703 0.061849
vt 0.345703 0.201823
vt 0.206380 0.061849
vt 0.345703 0.201823
vt 0.206380 0.201823
vt 0.206380 0.061849
vt 0.345703 0.061849
vt 0.345703 0.201823
vt 0.206380 0.061849
vt 0.345703 0.201823
vt 0.206380 0.201823
vt 0.206380 0.061849
vt 0.345703 0.061849
vt 0.345703 0.201823
vt 0.206380 0.061849
vt 0.345703 0.201823
vt 0.206380 0.201823
vt 0.206380 0.061849
vt 0.345703 0.061849
vt 0.345703 0.201823
vt 0.206380 0.061849
vt 0.345703 0.201823
vt 0.206380 0.201823
vt 0.206380 0.061849
vt 0.345703 0.061849
vt 0.345703 0.201823
vt 0.206380 0.061849
vt 0.345703 0.201823
vt 0.206380 0.201823
vt 0.206380 0.061849
vt 0.345703 0.061849
vt 0.345703 0.201823
vt 0.206380 0.061849
vt 0.345703 0.201823
vt 0.206380 0.201823
vt 0.206380 0.061849
vt 0.345703 0.061849
vt 0.345703 0.201823
vt 0.206380 0.061849
vt 0.345703 0.201823
vt 0.206380 0.201823
vt 0.206380 0.061849
vt 0.345703 0.061849
vt 0.345703 0.201823
vt 0.206380 0.061849
vt 0.345703 0.201823
vt 0.206380 0.201823
vt 0.206380 0.061849
vt 0.345703 0.061849
vt 0.345703 0.201823
vt 0.206380 0.061849
vt 0.345703 0.201823
vt 0.206380 0.201823
vt 0.206380 0.061849
vt 0.345703 0.061849
vt 0.345703 0.201823
vt 0.206380 0.061849
vt 0.345703 0.201823
vt 0.206380 0.201823
vt 0.206380 0.061849
vt 0.345703 0.061849
vt 0.345703 0.201823
vt 0.206380 0.061849
vt 0.345703 0.201823
vt 0.206380 0.201823
vt 0.206380 0.061849
vt 0.345703 0.061849
vt 0.345703 0.201823
vt 0.206380 0.061849
vt 0.345703 0.201823
vt 0.206380 0.201823
vt 0.206380 0.061849
vt 0.345703 0.061849
vt 0.345703 0.201823
vt 0.206380 0.061849
vt 0.345703 0.201823
vt 0.206380 0.201823
vt 0.206380 0.061849
vt 0.345703 0.061849
vt 0.345703 0.201823
vt 0.206380 0.061849
vt 0.345703 0.201823
vt 0.206380 0.201823
vt 0.206380 0.061849
vt 0.345703 0.061849
vt 0.345703 0.201823
vt 0.206380 0.061849
vt 0.345703 0.201823
vt 0.206380 0.201823
vt 0.206380 0.061849
vt 0.345703 0.061849
vt 0.345703 0.201823
vt 0.206380 0.061849
vt 0.345703 0.201823
vt 0.206380 0.201823
vt 0.206380 0.061849
vt 0.345703 0.061849
vt 0.345703 0.201823
vt 0.206380 0.061849
vt 0.345703 0.201823
vt 0.206380 0.201823
vt 0.206380 0.061849
vt 0.345703 0.061849
vt 0.345703 0.201823
vt 0.206380 0.061849
vt 0.345703 0.201823
vt 0.206380 0.201823
vt 0.206380 0.061849
vt 0.345703 0.061849
vt 0.345703 0.201823
vt 0.206380 0.061849
vt 0.345703 0.201823
vt 0.206380 0.201823
vt 0.206380 0.061849
vt 0.345703 0.061849
vt 0.345703 0.201823
vt 0.206380 0.061849
vt 0.345703 0.201823
vt 0.206380 0.201823
vt 0.206380 0.061849
vt 0.345703 0.061849
vt 0.345703 0.201823
vt 0.206380 0.061849
vt 0.345703 0.201823
vt 0.206380 0.201823
vt 0.206380 0.061849
vt 0.345703 0.061849
vt 0.345703 0.201823
vt 0.206380 0.061849
vt 0.345703 0.201823
vt 0.206380 0.201823
vt 0.206380 0.061849
vt 0.345703 0.061849
vt 0.345703 0.201823
vt 0.206380 0.061849
vt 0.345703 0.201823
vt 0.206380 0.201823
vt 0.206380 0.061849
vt 0.345703 0.061849
vt 0.345703 0.201823
vt 0.206380 0.061849
vt 0.345703 0.201823
vt 0.206380 0.201823
vt 0.206380 0.061849
vt 0.345703 0.061849
vt 0.345703 0.201823
vt 0.206380 0.061849
vt 0.345703 0.201823
vt 0.206380 0.201823
vt 0.206380 0.061849
vt 0.345703 0.061849
vt 0.345703 0.201823
vt 0.206380 0.061849
vt 0.345703 0.201823
vt 0.206380 0.201823
vt 0.206380 0.061849
vt 0.345703 0.061849
vt 0.345703 0.201823
vt 0.206380 0.061849
vt 0.345703 0.201823
vt 0.206380 0.201823
vt 0.206380 0.061849
vt 0.345703 0.061849
vt 0.345703 0.201823
vt 0.206380 0.061849
vt 0.345703 0.201823
vt 0.206380 0.201823
vt 0.206380 0.061849
vt 0.345703 0.061849
vt 0.345703 0.201823
vt 0.206380 0.061849
vt 0.345703 0.201823
vt 0.206380 0.201823
vt 0.206380 0.061849
vt 0.345703 0.061849
vt 0.345703 0.201823
vt 0.206380 0.061849
vt 0.345703 0.201823
vt 0.206380 0.201823
vt 0.206380 0.061849
vt 0.345703 0.061849
vt 0.345703 0.201823
vt 0.206380 0.061849
vt 0.345703 0.201823
vt 0.206380 0.201823
vt 0.206380 0.061849
vt 0.345703 0.061849
vt 0.345703 0.201823
vt 0.206380 0.061849
vt 0.345703 0.201823
vt 0.206380 0.201823
vt 0.206380 0.061849
vt 0.345703 0.061849
vt 0.345703 0.201823
vt 0.206380 0.061849
vt 0.345703 0.201823
vt 0.206380 0.201823
vt 0.206380 0.061849
vt 0.345703 0.061849
vt 0.345703 0.201823
vt 0.206380 0.061849
vt 0.345703 0.201823
vt 0.206380 0.201823
vt 0.206380 0.061849
vt 0.345703 0.061849
vt 0.345703 0.201823
vt 0.206380 0.061849
vt 0.345703 0.201823
vt 0.206380 0.201823
vt 0.206380 0.061849
vt 0.345703 0.061849
vt 0.345703 0.201823
vt 0.206380 0.061849
vt 0.345703 0.201823
vt 0.206380 0.201823
vt 0.206380 0.061849
vt 0.345703 0.061849
vt 0.345703 0.201823
vt 0.206380 0.061849
vt 0.345703 0.201823
vt 0.206380 0.201823
vt 0.206380 0.061849
vt 0.345703 0.061849
vt 0.345703 0.201823
vt 0.206380 0.061849
vt 0.345703 0.201823
vt 0.206380 0.201823
vt 0.206380 0.061849
vt 0.345703 0.061849
vt 0.345703 0.201823
vt 0.206380 0.061849
vt 0.345703 0.201823
vt 0.206380 0.201823
vt 0.206380 0.061849
vt 0.345703 0.061849
vt 0.345703 0.201823
vt 0.206380 0.061849
vt 0.345703 0.201823
vt 0.206380 0.201823
vt 0.206380 0.061849
vt 0.345703 0.061849
vt 0.345703 0.201823
vt 0.206380 0.061849
vt 0.345703 0.201823
vt 0.206380 0.201823
vt 0.206380 0.061849
vt 0.345703 0.061849
vt 0.345703 0.201823
vt 0.206380 0.061849
vt 0.345703 0.201823
vt 0.206380 0.201823
vt 0.206380 0.061849
vt 0.345703 0.061849
vt 0.345703 0.201823
vt 0.206380 0.061849
vt 0.345703 0.201823
vt 0.206380 0.201823
vt 0.206380 0.061849
vt 0.345703 0.061849
vt 0.345703 0.201823
vt 0.206380 0.061849
vt 0.345703 0.201823
vt 0.206380 0.201823
vt 0.206380 0.061849
vt 0.345703 0.061849
vt 0.345703 0.201823
vt 0.206380 0.061849
vt 0.345703 0.201823
vt 0.206380 0.201823
vt 0.206380 0.061849
vt 0.345703 0.061849
vt 0.345703 0.201823
vt 0.206380 0.061849
vt 0.345703 0.201823
vt 0.206380 0.201823
vt 0.206380 0.061849
vt 0.345703 0.061849
vt 0.345703 0.201823
vt 0.206380 0.061849
vt 0.345703 0.201823
vt 0.206380 0.201823
vt 0.206380 0.061849
vt 0.345703 0.061849
vt 0.345703 0.201823
vt 0.206380 0.061849
vt 0.345703 0.201823
vt 0.206380 0.201823
vt 0.206380 0.061849
vt 0.345703 0.061849
vt 0.345703 0.201823
vt 0.206380 0.061849
vt 0.345703 0.201823
vt 0.206380 0.201823
vt 0.206380 0.061849
vt 0.345703 0.061849
vt 0.345703 0.201823
vt 0.206380 0.061849
vt 0.345703 0.201823
vt 0.206380 0.201823
vn -0.268992 0.312528 0.911026
vn -0.117318 0.241877 0.963189
vn -0.117359 0.362609 0.924522
vn -0.268992 0.312528 0.911026
vn -0.117359 0.362609 0.924522
vn -0.288355 0.426544 0.857270
vn -0.288355 0.426544 0.857270
vn -0.117359 0.362609 0.924522
vn -0.113376 0.421630 0.899652
vn -0.288355 0.426544 0.857270
vn -0.113376 0.421630 0.899652
vn -0.274872 0.490370 0.827032
vn -0.359262 -0.541415 0.760132
vn -0.272598 -0.497841 0.823313
vn -0.286528 -0.438477 0.851845
vn -0.359262 -0.541415 0.760132
vn -0.286528 -0.438477 0.851845
vn -0.379623 -0.480648 0.790484
vn -0.379623 -0.480648 0.790484
vn -0.286528 -0.438477 0.851845
vn -0.264585 -0.319914 0.909753
vn -0.379623 -0.480648 0.790484
vn -0.264585 -0.319914 0.909753
vn -0.398075 -0.417463 0.816860
vn -0.276957 -0.177903 0.944270
vn -0.264585 -0.319914 0.909753
vn -0.117073 -0.242742 0.963001
vn -0.276957 -0.177903 0.944270
vn -0.117073 -0.242742 0.963001
vn -0.107730 -0.157609 0.981608
vn -0.438945 -0.174364 0.881433
vn -0.276957 -0.177903 0.944270
vn -0.324978 -0.110396 0.939256
vn -0.438945 -0.174364 0.881433
vn -0.324978 -0.110396 0.939256
vn -0.442570 -0.118397 0.888884
vn -0.442570 -0.118397 0.888884
vn -0.324978 -0.110396 0.939256
vn -0.330028 -0.006234 0.943951
vn -0.442570 -0.118397 0.888884
vn -0.330028 -0.006234 0.943951
vn -0.445270 -0.007307 0.895367
vn -0.445270 -0.007307 0.895367
vn -0.330028 -0.006234 0.943951
vn -0.327766 0.091876 0.940281
vn -0.445270 -0.007307 0.895367
vn -0.327766 0.091876 0.940281
vn -0.441809 0.102977 0.891179
vn -0.441809 0.102977 0.891179
vn -0.327766 0.091876 0.940281
vn -0.285079 0.165775 0.944060
vn -0.441809 0.102977 0.891179
vn -0.285079 0.165775 0.944060
vn -0.437823 0.158176 0.885037
vn -0.000000 -0.136347 0.990661
vn -0.000000 -0.087714 0.996146
vn -0.104101 -0.094614 0.990056
vn -0.000000 -0.136347 0.990661
vn -0.104101 -0.094614 0.990056
vn -0.107730 -0.157609 0.981608
vn -0.000000 0.124670 0.992198
vn -0.108900 0.147025 0.983120
vn -0.104922 0.073686 0.991747
vn -0.000000 0.124670 0.992198
vn -0.104922 0.073686 0.991747
vn -0.000000 0.067201 0.997739
vn -0.000000 -0.087714 0.996146
vn 0.104100 -0.094614 0.990056
vn 0.105425 -0.004739 0.994416
vn -0.000000 -0.087714 0.996146
vn 0.105425 -0.004739 0.994416
vn -0.000000 -0.004361 0.999991
vn -0.108900 0.147025 0.983120
vn -0.117318 0.241877 0.963189
vn -0.268992 0.312528 0.911026
vn -0.108900 0.147025 0.983120
vn -0.268992 0.312528 0.911026
vn -0.285079 0.165775 0.944060
vn 0.108900 0.147025 0.983120
vn 0.285079 0.165775 0.944060
vn 0.268992 0.312528 0.911026
vn 0.108900 0.147025 0.983120
vn 0.268992 0.312528 0.911026
vn 0.117318 0.241877 0.963189
vn -0.382463 0.467494 0.796977
vn -0.288355 0.426544 0.857270
vn -0.274872 0.490370 0.827032
vn -0.382463 0.467494 0.796977
vn -0.274872 0.490370 0.827032
vn -0.362534 0.533942 0.763855
vn -0.400131 0.398282 0.825388
vn -0.268992 0.312528 0.911026
vn -0.288355 0.426544 0.857270
vn -0.400131 0.398282 0.825388
vn -0.288355 0.426544 0.857270
vn -0.382463 0.467494 0.796977
vn 0.116868 -0.372378 0.920693
vn -0.000000 -0.352775 0.935708
vn -0.000000 -0.408337 0.912831
vn 0.116868 -0.372378 0.920693
vn -0.000000 -0.408337 0.912831
vn 0.112687 -0.428988 0.896254
vn 0.117073 -0.242742 0.963001
vn -0.000000 -0.217246 0.976117
vn -0.000000 -0.352775 0.935708
vn 0.117073 -0.242742 0.963001
vn -0.000000 -0.352775 0.935708
vn 0.116868 -0.372378 0.920693
vn -0.327766 0.091876 0.940281
vn -0.104922 0.073686 0.991747
vn -0.108900 0.147025 0.983120
vn -0.327766 0.091876 0.940281
vn -0.108900 0.147025 0.983120
vn -0.285079 0.165775 0.944060
vn -0.330028 -0.006234 0.943951
vn -0.105425 -0.004739 0.994416
vn -0.104922 0.073686 0.991747
vn -0.330028 -0.006234 0.943951
vn -0.104922 0.073686 0.991747
vn -0.327766 0.091876 0.940281
vn 0.362534 0.533942 0.763855
vn 0.274872 0.490370 0.827032
vn 0.288355 0.426544 0.857270
vn 0.362534 0.533942 0.763855
vn 0.288355 0.426544 0.857270
vn 0.382463 0.467493 0.796977
vn 0.382463 0.467493 0.796977
vn 0.288355 0.426544 0.857270
vn 0.268992 0.312528 0.911026
vn 0.382463 0.467493 0.796977
vn 0.268992 0.312528 0.911026
vn 0.400131 0.398282 0.825388
vn -0.000000 -0.136347 0.990661
vn -0.000000 -0.217246 0.976117
vn 0.117073 -0.242742 0.963001
vn -0.000000 -0.136347 0.990661
vn 0.117073 -0.242742 0.963001
vn 0.107730 -0.157609 0.981608
vn 0.437823 0.158176 0.885038
vn 0.285079 0.165775 0.944060
vn 0.327766 0.091876 0.940281
vn 0.437823 0.158176 0.885038
vn 0.327766 0.091876 0.940281
vn 0.441809 0.102977 0.891179
vn 0.441809 0.102977 0.891179
vn 0.327766 0.091876 0.940281
vn 0.330028 -0.006234 0.943951
vn 0.441809 0.102977 0.891179
vn 0.330028 -0.006234 0.943951
vn 0.445270 -0.007307 0.895367
vn 0.445270 -0.007307 0.895367
vn 0.330028 -0.006234 0.943951
vn 0.324978 -0.110396 0.939256
vn 0.445270 -0.007307 0.895367
vn 0.324978 -0.110396 0.939256
vn 0.442570 -0.118397 0.888884
vn 0.442570 -0.118397 0.888884
vn 0.324978 -0.110396 0.939256
vn 0.276957 -0.177903 0.944270
vn 0.442570 -0.118397 0.888884
vn 0.276957 -0.177903 0.944270
vn 0.438944 -0.174364 0.881434
vn 0.276957 -0.177903 0.944270
vn 0.324978 -0.110396 0.939256
vn 0.104100 -0.094614 0.990056
vn 0.276957 -0.177903 0.944270
vn 0.104100 -0.094614 0.990056
vn 0.107730 -0.157609 0.981608
vn 0.398075 -0.417463 0.816861
vn 0.264585 -0.319914 0.909753
vn 0.286528 -0.438477 0.851845
vn 0.398075 -0.417463 0.816861
vn 0.286528 -0.438477 0.851845
vn 0.379622 -0.480648 0.790484
vn 0.379622 -0.480648 0.790484
vn 0.286528 -0.438477 0.851845
vn 0.272597 -0.497841 0.823313
vn 0.379622 -0.480648 0.790484
vn 0.272597 -0.497841 0.823313
vn 0.359262 -0.541415 0.760132
vn 0.274872 0.490370 0.827032
vn 0.113376 0.421630 0.899652
vn 0.117359 0.362609 0.924522
vn 0.274872 0.490370 0.827032
vn 0.117359 0.362609 0.924522
vn 0.288355 0.426544 0.857270
vn 0.288355 0.426544 0.857270
vn 0.117359 0.362609 0.924522
vn 0.117318 0.241877 0.963189
vn 0.288355 0.426544 0.857270
vn 0.117318 0.241877 0.963189
vn 0.268992 0.312528 0.911026
vn -0.112687 -0.428988 0.896254
vn -0.000000 -0.408337 0.912831
vn -0.000000 -0.352775 0.935708
vn -0.112687 -0.428988 0.896254
vn -0.000000 -0.352775 0.935708
vn -0.116868 -0.372378 0.920693
vn 0.285079 0.165775 0.944060
vn 0.108900 0.147025 0.983120
vn 0.104922 0.073686 0.991747
vn 0.285079 0.165775 0.944060
vn 0.104922 0.073686 0.991747
vn 0.327766 0.091876 0.940281
vn 0.327766 0.091876 0.940281
vn 0.104922 0.073686 0.991747
vn 0.105425 -0.004739 0.994416
vn 0.327766 0.091876 0.940281
vn 0.105425 -0.004739 0.994416
vn 0.330028 -0.006234 0.943951
vn 0.330028 -0.006234 0.943951
vn 0.105425 -0.004739 0.994416
vn 0.104100 -0.094614 0.990056
vn 0.330028 -0.006234 0.943951
vn 0.104100 -0.094614 0.990056
vn 0.324978 -0.110396 0.939256
vn -0.116868 -0.372378 0.920693
vn -0.000000 -0.352775 0.935708
vn -0.000000 -0.217246 0.976117
vn -0.116868 -0.372378 0.920693
vn -0.000000 -0.217246 0.976117
vn -0.117073 -0.242742 0.963001
vn -0.117318 0.241877 0.963189
vn -0.000000 0.216095 0.976372
vn -0.000000 0.343801 0.939042
vn -0.117318 0.241877 0.963189
vn -0.000000 0.343801 0.939042
vn -0.117359 0.362609 0.924522
vn 0.264585 -0.319914 0.909753
vn 0.117073 -0.242742 0.963001
vn 0.116868 -0.372378 0.920693
vn 0.264585 -0.319914 0.909753
vn 0.116868 -0.372378 0.920693
vn 0.286528 -0.438477 0.851845
vn 0.286528 -0.438477 0.851845
vn 0.116868 -0.372378 0.920693
vn 0.112687 -0.428988 0.896254
vn 0.286528 -0.438477 0.851845
vn 0.112687 -0.428988 0.896254
vn 0.272597 -0.497841 0.823313
vn 0.113376 0.421630 0.899652
vn -0.000000 0.401086 0.916040
vn -0.000000 0.343801 0.939042
vn 0.113376 0.421630 0.899652
vn -0.000000 0.343801 0.939042
vn 0.117359 0.362609 0.924522
vn 0.117359 0.362609 0.924522
vn -0.000000 0.343801 0.939042
vn -0.000000 0.216095 0.976372
vn 0.117359 0.362609 0.924522
vn -0.000000 0.216095 0.976372
vn 0.117318 0.241877 0.963189
vn -0.117359 0.362609 0.924522
vn -0.000000 0.343801 0.939042
vn -0.000000 0.401086 0.916040
vn -0.117359 0.362609 0.924522
vn -0.000000 0.401086 0.916040
vn -0.113376 0.421630 0.899652
vn -0.272598 -0.497841 0.823313
vn -0.112687 -0.428988 0.896254
vn -0.116868 -0.372378 0.920693
vn -0.272598 -0.497841 0.823313
vn -0.116868 -0.372378 0.920693
vn -0.286528 -0.438477 0.851845
vn -0.286528 -0.438477 0.851845
vn -0.116868 -0.372378 0.920693
vn -0.117073 -0.242742 0.963001
vn -0.286528 -0.438477 0.851845
vn -0.117073 -0.242742 0.963001
vn -0.264585 -0.319914 0.909753
vn -0.324978 -0.110396 0.939256
vn -0.104101 -0.094614 0.990056
vn -0.105425 -0.004739 0.994416
vn -0.324978 -0.110396 0.939256
vn -0.105425 -0.004739 0.994416
vn -0.330028 -0.006234 0.943951
vn -0.000000 0.216095 0.976372
vn -0.117318 0.241877 0.963189
vn -0.108900 0.147025 0.983120
vn -0.000000 0.216095 0.976372
vn -0.108900 0.147025 0.983120
vn -0.000000 0.124670 0.992198
vn -0.000000 -0.004361 0.999991
vn 0.105425 -0.004739 0.994416
vn 0.104922 0.073686 0.991747
vn -0.000000 -0.004361 0.999991
vn 0.104922 0.073686 0.991747
vn -0.000000 0.067201 0.997739
vn 0.107730 -0.157609 0.981608
vn 0.117073 -0.242742 0.963001
vn 0.264585 -0.319914 0.909753
vn 0.107730 -0.157609 0.981608
vn 0.264585 -0.319914 0.909753
vn 0.276957 -0.177903 0.944270
vn -0.107730 -0.157609 0.981608
vn -0.117073 -0.242742 0.963001
vn -0.000000 -0.217246 0.976117
vn -0.107730 -0.157609 0.981608
vn -0.000000 -0.217246 0.976117
vn -0.000000 -0.136347 0.990661
vn -0.107730 -0.157609 0.981608
vn -0.104101 -0.094614 0.990056
vn -0.324978 -0.110396 0.939256
vn -0.107730 -0.157609 0.981608
vn -0.324978 -0.110396 0.939256
vn -0.276957 -0.177903 0.944270
vn -0.000000 0.124670 0.992198
vn 0.108900 0.147025 0.983120
vn 0.117318 0.241877 0.963189
vn -0.000000 0.124670 0.992198
vn 0.117318 0.241877 0.963189
vn -0.000000 0.216095 0.976372
vn -0.000000 0.067201 0.997739
vn 0.104922 0.073686 0.991747
vn 0.108900 0.147025 0.983120
vn -0.000000 0.067201 0.997739
vn 0.108900 0.147025 0.983120
vn -0.000000 0.124670 0.992198
vn -0.000000 0.067201 0.997739
vn -0.104922 0.073686 0.991747
vn -0.105425 -0.004739 0.994416
vn -0.000000 0.067201 0.997739
vn -0.105425 -0.004739 0.994416
vn -0.000000 -0.004361 0.999991
vn -0.000000 -0.004361 0.999991
vn -0.105425 -0.004739 0.994416
vn -0.104101 -0.094614 0.990056
vn -0.000000 -0.004361 0.999991
vn -0.104101 -0.094614 0.990056
vn -0.000000 -0.087714 0.996146
vn 0.107730 -0.157609 0.981608
vn 0.104100 -0.094614 0.990056
vn -0.000000 -0.087714 0.996146
vn 0.107730 -0.157609 0.981608
vn -0.000000 -0.087714 0.996146
vn -0.000000 -0.136347 0.990661
f 46/1/1 57/2/2 56/3/3
f 46/4/4 56/5/5 45/6/6
f 45/7/7 56/8/8 55/9/9
f 45/10/10 55/11/11 44/12/12
f 43/13/13 54/14/14 53/15/15
f 43/16/16 53/17/17 42/18/18
f 42/19/19 53/20/20 52/21/21
f 42/22/22 52/23/23 41/24/24
f 51/25/25 52/26/26 62/27/27
f 51/28/28 62/29/29 77/30/30
f 40/31/31 51/32/32 50/33/33
f 40/34/34 50/35/35 39/36/36
f 39/37/37 50/38/38 49/39/39
f 39/40/40 49/41/41 38/42/42
f 38/43/43 49/44/44 48/45/45
f 38/46/46 48/47/47 37/48/48
f 37/49/49 48/50/50 47/51/51
f 37/52/52 47/53/53 36/54/54
f 75/55/55 71/56/56 61/57/57
f 75/58/58 61/59/59 77/60/60
f 74/61/61 58/62/62 59/63/63
f 74/64/64 59/65/65 73/66/66
f 71/67/67 29/68/68 28/69/69
f 71/70/70 28/71/71 72/72/72
f 58/73/73 57/74/74 46/75/75
f 58/76/76 46/77/77 47/78/78
f 26/79/79 15/80/80 14/81/81
f 26/82/82 14/83/83 25/84/84
f 34/85/85 45/86/86 44/87/87
f 34/88/88 44/89/89 33/90/90
f 35/91/91 46/92/92 45/93/93
f 35/94/94 45/95/95 34/96/96
f 31/97/97 69/98/98 70/99/99
f 31/100/100 70/101/101 32/102/102
f 30/103/103 68/104/104 69/105/105
f 30/106/106 69/107/107 31/108/108
f 48/109/109 59/110/110 58/111/111
f 48/112/112 58/113/113 47/114/114
f 49/115/115 60/116/116 59/117/117
f 49/118/118 59/119/119 48/120/120
f 1/121/121 12/122/122 13/123/123
f 1/124/124 13/125/125 2/126/126
f 2/127/127 13/128/128 14/129/129
f 2/130/130 14/131/131 3/132/132
f 75/133/133 68/134/134 30/135/135
f 75/136/136 30/137/137 76/138/138
f 4/139/139 15/140/140 16/141/141
f 4/142/142 16/143/143 5/144/144
f 5/145/145 16/146/146 17/147/147
f 5/148/148 17/149/149 6/150/150
f 6/151/151 17/152/152 18/153/153
f 6/154/154 18/155/155 7/156/156
f 7/157/157 18/158/158 19/159/159
f 7/160/160 19/161/161 8/162/162
f 19/163/163 18/164/164 29/165/165
f 19/166/166 29/167/167 76/168/168
f 9/169/169 20/170/170 21/171/171
f 9/172/172 21/173/173 10/174/174
f 10/175/175 21/176/176 22/177/177
f 10/178/178 22/179/179 11/180/180
f 12/181/181 23/182/182 24/183/183
f 12/184/184 24/185/185 13/186/186
f 13/187/187 24/188/188 25/189/189
f 13/190/190 25/191/191 14/192/192
f 64/193/193 70/194/194 69/195/195
f 64/196/196 69/197/197 63/198/198
f 15/199/199 26/200/200 27/201/201
f 15/202/202 27/203/203 16/204/204
f 16/205/205 27/206/206 28/207/207
f 16/208/208 28/209/209 17/210/210
f 17/211/211 28/212/212 29/213/213
f 17/214/214 29/215/215 18/216/216
f 63/217/217 69/218/218 68/219/219
f 63/220/220 68/221/221 62/222/222
f 57/223/223 67/224/224 66/225/225
f 57/226/226 66/227/227 56/228/228
f 20/229/229 30/230/230 31/231/231
f 20/232/232 31/233/233 21/234/234
f 21/235/235 31/236/236 32/237/237
f 21/238/238 32/239/239 22/240/240
f 23/241/241 65/242/242 66/243/243
f 23/244/244 66/245/245 24/246/246
f 24/247/247 66/248/248 67/249/249
f 24/250/250 67/251/251 25/252/252
f 56/253/253 66/254/254 65/255/255
f 56/256/256 65/257/257 55/258/258
f 54/259/259 64/260/260 63/261/261
f 54/262/262 63/263/263 53/264/264
f 53/265/265 63/266/266 62/267/267
f 53/268/268 62/269/269 52/270/270
f 50/271/271 61/272/272 60/273/273
f 50/274/274 60/275/275 49/276/276
f 67/277/277 57/278/278 58/279/279
f 67/280/280 58/281/281 74/282/282
f 72/283/283 28/284/284 27/285/285
f 72/286/286 27/287/287 73/288/288
f 76/289/289 30/290/290 20/291/291
f 76/292/292 20/293/293 19/294/294
f 77/295/295 62/296/296 68/297/297
f 77/298/298 68/299/299 75/300/300
f 77/301/301 61/302/302 50/303/303
f 77/304/304 50/305/305 51/306/306
f 74/307/307 26/308/308 25/309/309
f 74/310/310 25/311/311 67/312/312
f 73/313/313 27/314/314 26/315/315
f 73/316/316 26/317/317 74/318/318
f 73/319/319 59/320/320 60/321/321
f 73/322/322 60/323/323 72/324/324
f 72/325/325 60/326/326 61/327/327
f 72/328/328 61/329/329 71/330/330
f 76/331/331 29/332/332 71/333/333
f 76/334/334 71/335/335 75/336/336
