v -3.831602 3.043807 1.026675
v -3.415062 3.535534 0.915064
v 3.750000 2.500000 2.165063
v -3.965088 -1.514094 2.414814
v -4.069847 -0.652631 2.478612
v -4.104959 0.000000 2.499999
v -4.134963 0.740197 2.518270
v -3.750000 2.500000 2.165063
v -3.435321 3.043807 1.983383
v -3.061861 3.535534 1.767767
v -2.636014 3.966767 1.521903
v -2.165062 4.330127 1.250000
v -3.237482 -1.514094 3.415063
v -3.323014 -0.652631 3.505287
v -3.351686 0.000000 3.535533
v -3.376181 1.244194 3.561371
v 3.061861 3.535534 1.767766
v -2.804928 3.043807 2.804928
v -2.499999 3.535534 2.500000
v -2.152296 3.966767 2.152296
v -1.767766 4.330127 1.767766
v -2.414814 -1.294095 4.182581
v -2.478612 -0.652631 4.293082
v -2.499999 0.644000 4.330125
v 0.698760 -0.695179 4.808864
v -1.521903 3.966767 2.636014
v -1.249999 4.330127 2.165062
v -1.250000 -1.123901 4.582850
v -1.283024 -0.482437 4.706097
v 3.831602 3.043807 1.026675
v -0.787795 3.966767 2.940091
v -0.647047 4.330127 2.414813
v 0.000000 3.966767 3.043806
v 0.000000 4.330127 2.499999
v 1.250000 -1.123901 4.582850
v 1.283024 -0.482437 4.706097
v 3.415062 3.535534 0.915062
v 0.787795 3.966767 2.940091
v 0.647047 4.330127 2.414813
v 2.414814 -1.294095 4.182581
v 2.478612 -0.652631 4.293082
v 2.499999 0.644000 4.330124
v 3.435321 3.043807 1.983383
v 1.521903 3.966767 2.636013
v 1.249999 4.330127 2.165062
v 3.237482 -1.514094 3.415063
v 3.323014 -0.652631 3.505287
v 3.351686 0.000000 3.535532
v 3.376181 1.244194 3.561371
v 2.636014 3.966767 1.521903
v 2.804928 3.043807 2.804928
v 2.500000 3.535534 2.499999
v 2.152296 3.966767 2.152296
v 1.767766 4.330127 1.767766
v 3.965088 -1.514094 2.414814
v 4.069847 -0.652631 2.478612
v 4.104959 0.000000 2.499998
v 4.134963 0.740197 2.518270
v -0.698760 -0.695179 4.808864
v 0.953287 -0.482437 4.706097
v -0.953287 -0.482437 4.706097
vt 0.000000 0.000000
vt 0.000000 0.000000
vt 0.000000 0.000000
vt 0.000000 0.000000
vt 0.000000 0.000000
vt 0.000000 0.000000
vt 0.000000 0.000000
vt 0.000000 0.000000
vt 0.000000 0.000000
vt 0.000000 0.000000
vt 0.000000 0.000000
vt 0.000000 0.000000
vt 0.000000 0.000000
vt 0.000000 0.000000
vt 0.000000 0.000000
vt 0.000000 0.000000
vt 0.000000 0.000000
vt 0.000000 0.000000
vt 0.000000 0.000000
vt 0.000000 0.000000
vt 0.000000 0.000000
vt 0.000000 0.000000
vt 0.000000 0.000000
vt 0.000000 0.000000
vt 0.000000 0.000000
vt 0.000000 0.000000
vt 0.000000 0.000000
vt 0.000000 0.000000
vt 0.000000 0.000000
vt 0.000000 0.000000
vt 0.000000 0.000000
vt 0.000000 0.000000
vt 0.000000 0.000000
vt 0.000000 0.000000
vt 0.000000 0.000000
vt 0.000000 0.000000
vt 0.000000 0.000000
vt 0.000000 0.000000
vt 0.000000 0.000000
vt 0.000000 0.000000
vt 0.000000 0.000000
vt 0.000000 0.000000
vt 0.000000 0.000000
vt 0.000000 0.000000
vt 0.000000 0.000000
vt 0.000000 0.000000
vt 0.000000 0.000000
vt 0.000000 0.000000
vt 0.000000 0.000000
vt 0.000000 0.000000
vt 0.000000 0.000000
vt 0.000000 0.000000
vt 0.000000 0.000000
vt 0.000000 0.000000
vt 0.000000 0.000000
vt 0.000000 0.000000
vt 0.000000 0.000000
vt 0.000000 0.000000
vt 0.000000 0.000000
vt 0.000000 0.000000
vt 0.000000 0.000000
vt 0.000000 0.000000
vt 0.000000 0.000000
vt 0.000000 0.000000
vt 0.000000 0.000000
vt 0.000000 0.000000
vt 0.000000 0.000000
vt 0.000000 0.000000
vt 0.000000 0.000000
vt 0.000000 0.000000
vt 0.000000 0.000000
vt 0.000000 0.000000
vt 0.000000 0.000000
vt 0.000000 0.000000
vt 0.000000 0.000000
vt 0.000000 0.000000
vt 0.000000 0.000000
vt 0.000000 0.000000
vt 0.000000 0.000000
vt 0.000000 0.000000
vt 0.000000 0.000000
vt 0.000000 0.000000
vt 0.000000 0.000000
vt 0.000000 0.000000
vt 0.000000 0.000000
vt 0.000000 0.000000
vt 0.000000 0.000000
vt 0.000000 0.000000
vt 0.000000 0.000000
vt 0.000000 0.000000
vt 0.000000 0.000000
vt 0.000000 0.000000
vt 0.000000 0.000000
vt 0.000000 0.000000
vt 0.000000 0.000000
vt 0.000000 0.000000
vt 0.000000 0.000000
vt 0.000000 0.000000
vt 0.000000 0.000000
vt 0.000000 0.000000
vt 0.000000 0.000000
vt 0.000000 0.000000
vt 0.000000 0.000000
vt 0.000000 0.000000
vt 0.000000 0.000000
vt 0.000000 0.000000
vt 0.000000 0.000000
vt 0.000000 0.000000
vt 0.000000 0.000000
vt 0.000000 0.000000
vt 0.000000 0.000000
vt 0.000000 0.000000
vt 0.000000 0.000000
vt 0.000000 0.000000
vt 0.000000 0.000000
vt 0.000000 0.000000
vt 0.000000 0.000000
vt 0.000000 0.000000
vt 0.000000 0.000000
vt 0.000000 0.000000
vt 0.000000 0.000000
vt 0.000000 0.000000
vt 0.000000 0.000000
vt 0.000000 0.000000
vt 0.000000 0.000000
vt 0.000000 0.000000
vt 0.000000 0.000000
vt 0.000000 0.000000
vt 0.000000 0.000000
vt 0.000000 0.000000
vt 0.000000 0.000000
vt 0.000000 0.000000
vt 0.000000 0.000000
vt 0.000000 0.000000
vt 0.000000 0.000000
vt 0.000000 0.000000
vt 0.000000 0.000000
vt 0.000000 0.000000
vt 0.000000 0.000000
vt 0.000000 0.000000
vt 0.000000 0.000000
vt 0.000000 0.000000
vt 0.000000 0.000000
vt 0.000000 0.000000
vt 0.000000 0.000000
vt 0.000000 0.000000
vt 0.000000 0.000000
vt 0.000000 0.000000
vt 0.000000 0.000000
vt 0.000000 0.000000
vt 0.000000 0.000000
vt 0.000000 0.000000
vt 0.000000 0.000000
vt 0.000000 0.000000
vt 0.000000 0.000000
vt 0.000000 0.000000
vt 0.000000 0.000000
vt 0.000000 0.000000
vt 0.000000 0.000000
vt 0.000000 0.000000
vt 0.000000 0.000000
vt 0.000000 0.000000
vt 0.000000 0.000000
vt 0.000000 0.000000
vt 0.000000 0.000000
vt 0.000000 0.000000
vt 0.000000 0.000000
vt 0.000000 0.000000
vt 0.000000 0.000000
vt 0.000000 0.000000
vt 0.000000 0.000000
vt 0.000000 0.000000
vt 0.000000 0.000000
vt 0.000000 0.000000
vt 0.000000 0.000000
vt 0.000000 0.000000
vt 0.000000 0.000000
vt 0.000000 0.000000
vt 0.000000 0.000000
vt 0.000000 0.000000
vt 0.000000 0.000000
vt 0.000000 0.000000
vt 0.000000 0.000000
vt 0.000000 0.000000
vt 0.000000 0.000000
vt 0.000000 0.000000
vt 0.000000 0.000000
vt 0.000000 0.000000
vt 0.000000 0.000000
vt 0.000000 0.000000
vt 0.000000 0.000000
vt 0.000000 0.000000
vt 0.000000 0.000000
vt 0.000000 0.000000
vt 0.000000 0.000000
vt 0.000000 0.000000
vt 0.000000 0.000000
vt 0.000000 0.000000
vt 0.000000 0.000000
vt 0.000000 0.000000
vt 0.000000 0.000000
vn 0.656058 -0.704089 -0.271748
vn 0.612350 -0.707133 -0.353540
vn 0.687045 -0.608790 -0.396666
vn 0.656058 -0.704089 -0.271748
vn 0.687045 -0.608790 -0.396666
vn 0.735268 -0.605496 -0.304558
vn 0.529682 -0.779654 -0.334030
vn 0.612350 -0.707133 -0.353540
vn 0.656058 -0.704089 -0.271748
vn 0.804487 0.101657 -0.585206
vn 0.740294 0.103023 -0.664343
vn 0.734913 0.152797 -0.660724
vn 0.804487 0.101657 -0.585206
vn 0.734913 0.152797 -0.660724
vn 0.800656 0.140495 -0.582418
vn 0.804085 0.035274 -0.593466
vn 0.740871 0.032095 -0.670880
vn 0.742383 0.042546 -0.668623
vn 0.804085 0.035274 -0.593466
vn 0.742383 0.042546 -0.668623
vn 0.805667 0.048974 -0.590341
vn 0.687045 -0.608790 -0.396666
vn 0.631389 -0.605496 -0.484482
vn 0.720074 -0.555570 -0.415735
vn 0.612350 -0.707133 -0.353540
vn 0.563369 -0.704089 -0.432289
vn 0.631389 -0.605496 -0.484482
vn 0.612350 -0.707133 -0.353540
vn 0.631389 -0.605496 -0.484482
vn 0.687045 -0.608790 -0.396666
vn 0.529682 -0.779654 -0.334030
vn 0.438385 -0.806141 -0.397434
vn 0.563369 -0.704089 -0.432289
vn 0.529682 -0.779654 -0.334030
vn 0.563369 -0.704089 -0.432289
vn 0.612350 -0.707133 -0.353540
vn 0.443382 -0.829254 -0.340219
vn 0.392847 -0.831470 -0.392848
vn 0.438385 -0.806141 -0.397434
vn 0.443382 -0.829254 -0.340219
vn 0.438385 -0.806141 -0.397434
vn 0.529682 -0.779654 -0.334030
vn 0.740294 0.103023 -0.664343
vn 0.499903 0.110523 -0.859000
vn 0.488965 0.182199 -0.853063
vn 0.740294 0.103023 -0.664343
vn 0.488965 0.182199 -0.853063
vn 0.734913 0.152797 -0.660724
vn 0.742383 0.042546 -0.668623
vn 0.565540 0.035222 -0.823968
vn 0.499903 0.110523 -0.859000
vn 0.742383 0.042546 -0.668623
vn 0.499903 0.110523 -0.859000
vn 0.740294 0.103023 -0.664343
vn 0.740871 0.032095 -0.670880
vn 0.565540 0.035222 -0.823968
vn 0.742383 0.042546 -0.668623
vn 0.392847 -0.831470 -0.392848
vn 0.277785 -0.831470 -0.481138
vn 0.277785 -0.831470 -0.481138
vn 0.392847 -0.831470 -0.392848
vn 0.277785 -0.831470 -0.481138
vn 0.438385 -0.806141 -0.397434
vn 0.499903 0.110523 -0.859000
vn 0.209718 0.196863 -0.957739
vn 0.149466 0.277316 -0.949082
vn 0.499903 0.110523 -0.859000
vn 0.149466 0.277316 -0.949082
vn 0.488965 0.182199 -0.853063
vn 0.565540 0.035222 -0.823968
vn 0.209718 0.196863 -0.957739
vn 0.499903 0.110523 -0.859000
vn 0.277785 -0.831470 -0.481138
vn 0.143792 -0.831470 -0.536640
vn 0.143792 -0.831470 -0.536640
vn 0.277785 -0.831470 -0.481138
vn 0.143792 -0.831470 -0.536640
vn 0.277785 -0.831470 -0.481138
vn 0.143792 -0.831470 -0.536640
vn -0.000000 -0.831470 -0.555570
vn -0.000000 -0.831470 -0.555570
vn 0.143792 -0.831470 -0.536640
vn -0.000000 -0.831470 -0.555570
vn 0.143792 -0.831470 -0.536640
vn -0.000000 -0.831470 -0.555570
vn -0.143792 -0.831470 -0.536639
vn -0.143792 -0.831470 -0.536639
vn -0.000000 -0.831470 -0.555570
vn -0.143792 -0.831470 -0.536639
vn -0.000000 -0.831470 -0.555570
vn -0.209718 0.196863 -0.957739
vn -0.499903 0.110522 -0.859000
vn -0.488965 0.182199 -0.853063
vn -0.209718 0.196863 -0.957739
vn -0.488965 0.182199 -0.853063
vn -0.149466 0.277316 -0.949082
vn -0.565540 0.035221 -0.823968
vn -0.499903 0.110522 -0.859000
vn -0.209718 0.196863 -0.957739
vn -0.143792 -0.831470 -0.536639
vn -0.277785 -0.831470 -0.481138
vn -0.277785 -0.831470 -0.481138
vn -0.143792 -0.831470 -0.536639
vn -0.277785 -0.831470 -0.481138
vn -0.143792 -0.831470 -0.536639
vn -0.499903 0.110522 -0.859000
vn -0.740294 0.103022 -0.664343
vn -0.734913 0.152797 -0.660724
vn -0.499903 0.110522 -0.859000
vn -0.734913 0.152797 -0.660724
vn -0.488965 0.182199 -0.853063
vn -0.565540 0.035221 -0.823968
vn -0.742383 0.042546 -0.668623
vn -0.740294 0.103022 -0.664343
vn -0.565540 0.035221 -0.823968
vn -0.740294 0.103022 -0.664343
vn -0.499903 0.110522 -0.859000
vn -0.740871 0.032097 -0.670880
vn -0.742383 0.042546 -0.668623
vn -0.565540 0.035221 -0.823968
vn -0.277785 -0.831470 -0.481138
vn -0.392847 -0.831470 -0.392847
vn -0.438385 -0.806142 -0.397434
vn -0.277785 -0.831470 -0.481138
vn -0.438385 -0.806142 -0.397434
vn -0.277785 -0.831470 -0.481138
vn -0.740294 0.103022 -0.664343
vn -0.804488 0.101656 -0.585206
vn -0.800656 0.140495 -0.582418
vn -0.740294 0.103022 -0.664343
vn -0.800656 0.140495 -0.582418
vn -0.734913 0.152797 -0.660724
vn -0.740871 0.032097 -0.670880
vn -0.804085 0.035276 -0.593467
vn -0.805667 0.048974 -0.590341
vn -0.740871 0.032097 -0.670880
vn -0.805667 0.048974 -0.590341
vn -0.742383 0.042546 -0.668623
vn -0.631389 -0.605496 -0.484482
vn -0.687045 -0.608790 -0.396666
vn -0.720074 -0.555570 -0.415735
vn -0.529682 -0.779654 -0.334030
vn -0.656058 -0.704089 -0.271748
vn -0.612350 -0.707133 -0.353540
vn -0.612350 -0.707133 -0.353540
vn -0.656058 -0.704089 -0.271748
vn -0.735268 -0.605497 -0.304558
vn -0.612350 -0.707133 -0.353540
vn -0.735268 -0.605497 -0.304558
vn -0.687045 -0.608790 -0.396666
vn -0.687045 -0.608790 -0.396666
vn -0.735268 -0.605497 -0.304558
vn -0.720074 -0.555570 -0.415735
vn -0.563370 -0.704089 -0.432288
vn -0.612350 -0.707133 -0.353540
vn -0.687045 -0.608790 -0.396666
vn -0.563370 -0.704089 -0.432288
vn -0.687045 -0.608790 -0.396666
vn -0.631389 -0.605496 -0.484482
vn -0.438385 -0.806142 -0.397434
vn -0.529682 -0.779654 -0.334030
vn -0.612350 -0.707133 -0.353540
vn -0.438385 -0.806142 -0.397434
vn -0.612350 -0.707133 -0.353540
vn -0.563370 -0.704089 -0.432288
vn -0.740294 0.103022 -0.664343
vn -0.742383 0.042546 -0.668623
vn -0.805667 0.048974 -0.590341
vn -0.740294 0.103022 -0.664343
vn -0.805667 0.048974 -0.590341
vn -0.804488 0.101656 -0.585206
vn 0.740294 0.103023 -0.664343
vn 0.804487 0.101657 -0.585206
vn 0.805667 0.048974 -0.590341
vn 0.740294 0.103023 -0.664343
vn 0.805667 0.048974 -0.590341
vn 0.742383 0.042546 -0.668623
vn -0.209718 0.196863 -0.957739
vn -0.149466 0.277316 -0.949082
vn 0.149466 0.277316 -0.949082
vn -0.209718 0.196863 -0.957739
vn 0.149466 0.277316 -0.949082
vn 0.209718 0.196863 -0.957739
vn -0.209718 0.196863 -0.957739
vn 0.209718 0.196863 -0.957739
vn 0.000000 0.353985 -0.935251
vn -0.209718 0.196863 -0.957739
vn 0.000000 0.353985 -0.935251
vn 0.000000 0.353985 -0.935251
vn -0.209718 0.196863 -0.957739
vn 0.000000 0.353985 -0.935251
vn 0.000000 0.353985 -0.935251
vn -0.209718 0.196863 -0.957739
vn 0.000000 0.353985 -0.935251
vn 0.000000 0.353985 -0.935251
vn 0.735268 -0.605496 -0.304558
vn 0.687045 -0.608790 -0.396666
vn 0.720074 -0.555570 -0.415735
vn -0.438385 -0.806142 -0.397434
vn -0.392847 -0.831470 -0.392847
vn -0.529682 -0.779654 -0.334030
f 2/1/1 10/2/2 9/3/3
f 2/4/4 9/5/5 1/6/6
f 11/7/7 10/8/8 2/9/9
f 5/10/10 14/11/11 13/12/12
f 5/13/13 13/14/14 4/15/15
f 7/16/16 16/17/17 15/18/18
f 7/19/19 15/20/20 6/21/21
f 9/22/22 18/23/23 8/24/24
f 10/25/25 19/26/26 18/27/27
f 10/28/28 18/29/29 9/30/30
f 11/31/31 20/32/32 19/33/33
f 11/34/34 19/35/35 10/36/36
f 12/37/37 21/38/38 20/39/39
f 12/40/40 20/41/41 11/42/42
f 14/43/43 23/44/44 22/45/45
f 14/46/46 22/47/47 13/48/48
f 15/49/49 24/50/50 23/51/51
f 15/52/52 23/53/53 14/54/54
f 16/55/55 24/56/56 15/57/57
f 21/58/58 27/59/59 26/60/60
f 21/61/61 26/62/62 20/63/63
f 23/64/64 29/65/65 28/66/66
f 23/67/67 28/68/68 22/69/69
f 24/70/70 29/71/71 23/72/72
f 27/73/73 32/74/74 31/75/75
f 27/76/76 31/77/77 26/78/78
f 32/79/79 34/80/80 33/81/81
f 32/82/82 33/83/83 31/84/84
f 34/85/85 39/86/86 38/87/87
f 34/88/88 38/89/89 33/90/90
f 36/91/91 41/92/92 40/93/93
f 36/94/94 40/95/95 35/96/96
f 42/97/97 41/98/98 36/99/99
f 39/100/100 45/101/101 44/102/102
f 39/103/103 44/104/104 38/105/105
f 41/106/106 47/107/107 46/108/108
f 41/109/109 46/110/110 40/111/111
f 42/112/112 48/113/113 47/114/114
f 42/115/115 47/116/116 41/117/117
f 49/118/118 48/119/119 42/120/120
f 45/121/121 54/122/122 53/123/123
f 45/124/124 53/125/125 44/126/126
f 47/127/127 56/128/128 55/129/129
f 47/130/130 55/131/131 46/132/132
f 49/133/133 58/134/134 57/135/135
f 49/136/136 57/137/137 48/138/138
f 51/139/139 43/140/140 3/141/141
f 50/142/142 37/143/143 17/144/144
f 17/145/145 37/146/146 30/147/147
f 17/148/148 30/149/149 43/150/150
f 43/151/151 30/152/152 3/153/153
f 52/154/154 17/155/155 43/156/156
f 52/157/157 43/158/158 51/159/159
f 53/160/160 50/161/161 17/162/162
f 53/163/163 17/164/164 52/165/165
f 47/166/166 48/167/167 57/168/168
f 47/169/169 57/170/170 56/171/171
f 14/172/172 5/173/173 6/174/174
f 14/175/175 6/176/176 15/177/177
f 36/178/178 35/179/179 28/180/180
f 36/181/181 28/182/182 29/183/183
f 36/184/184 29/185/185 61/186/186
f 36/187/187 61/188/188 59/189/189
f 36/190/190 59/191/191 25/192/192
f 36/193/193 25/194/194 60/195/195
f 1/196/196 9/197/197 8/198/198
f 53/199/199 54/200/200 50/201/201
