v 0.884696 0.000000 0.473500
v 0.775322 0.000000 0.636997
v 0.636152 0.000000 0.776015
v 0.472536 0.000000 0.885211
v 0.290760 0.000000 0.960389
v 0.097810 0.000000 0.998660
v -0.098898 0.000000 0.998553
v -0.291806 0.000000 0.960072
v -0.473500 0.000000 0.884696
v -0.636997 0.000000 0.775322
v -0.776015 0.000000 0.636152
v -0.885211 0.000000 0.472535
v -0.960389 0.000000 0.290760
v -0.998660 0.000000 0.097810
v -0.998553 0.000000 -0.098898
v -0.960072 -0.000000 -0.291806
v -0.884696 -0.000000 -0.473500
v -0.775321 -0.000000 -0.636997
v -0.636152 -0.000000 -0.776015
v -0.472535 -0.000000 -0.885211
v -0.290760 -0.000000 -0.960389
v -0.097810 -0.000000 -0.998660
v 0.098898 -0.000000 -0.998553
v 0.291806 -0.000000 -0.960072
v 0.473500 -0.000000 -0.884696
v 0.636997 -0.000000 -0.775321
v 0.776015 -0.000000 -0.636152
v 0.885211 -0.000000 -0.472535
v 0.960389 -0.000000 -0.290759
v 0.998660 -0.000000 -0.097810
v 0.998553 -0.000000 0.098898
v 0.960072 0.000000 0.291806
v 0.000000 0.000000 0.000000
v 1.104713 0.051531 -0.108197
v 1.062378 0.051531 -0.321637
v 0.979216 0.051531 -0.522716
v 0.858424 0.051531 -0.703708
v 0.704643 0.051531 -0.857657
v 0.523783 0.051531 -0.978646
v 0.322794 0.051531 -1.062027
v -0.108197 0.051531 -1.104713
v -0.321637 0.051531 -1.062378
v -0.522716 0.051531 -0.979216
v -0.703708 0.051531 -0.858424
v -0.857657 0.051531 -0.704643
v -0.978646 0.051531 -0.523783
v -1.062027 0.051531 -0.322794
v -1.104713 0.051531 0.108197
v -1.062378 0.051531 0.321637
v -0.979216 0.051531 0.522716
v -0.858424 0.051531 0.703708
v -0.704643 0.051531 0.857657
v -0.523783 0.051531 0.978646
v -0.322794 0.051531 1.062027
v 0.108197 0.051531 1.104713
v 0.321637 0.051531 1.062378
v 0.522716 0.051531 0.979216
v 0.703708 0.051531 0.858424
v 0.857657 0.051531 0.704643
v 0.978646 0.051531 0.523783
v 1.062027 0.051531 0.322794
v -1.104922 0.052029 -0.109433
v 0.109433 0.052046 -1.104922
v -0.109558 0.052040 1.106182
v 1.104922 0.052046 0.109433
vt 0.496094 0.039348
vt 0.474157 0.052591
vt 0.472288 0.047510
vt 0.472288 0.047510
vt 0.471334 0.042114
vt 0.496094 0.039348
vt 0.496094 0.039348
vt 0.471334 0.042114
vt 0.471331 0.036612
vt 0.471331 0.036612
vt 0.472280 0.031215
vt 0.496094 0.039348
vt 0.496094 0.039348
vt 0.472280 0.031215
vt 0.474144 0.026131
vt 0.493669 0.067280
vt 0.488884 0.066210
vt 0.496094 0.039348
vt 0.474144 0.026131
vt 0.476852 0.021555
vt 0.496094 0.039348
vt 0.496094 0.039348
vt 0.476852 0.021555
vt 0.480299 0.017662
vt 0.480299 0.017662
vt 0.484353 0.014603
vt 0.496094 0.039348
vt 0.496094 0.039348
vt 0.484353 0.014603
vt 0.488858 0.012495
vt 0.498519 0.011416
vt 0.503303 0.012486
vt 0.496094 0.039348
vt 0.496094 0.039348
vt 0.503303 0.012486
vt 0.507811 0.014589
vt 0.507811 0.014589
vt 0.511868 0.017643
vt 0.496094 0.039348
vt 0.496094 0.039348
vt 0.511868 0.017643
vt 0.515318 0.021531
vt 0.515318 0.021531
vt 0.518030 0.026104
vt 0.496094 0.039348
vt 0.496094 0.039348
vt 0.518030 0.026104
vt 0.519899 0.031186
vt 0.519899 0.031186
vt 0.520853 0.036582
vt 0.496094 0.039348
vt 0.496094 0.039348
vt 0.520853 0.036582
vt 0.520856 0.042084
vt 0.520856 0.042084
vt 0.519907 0.047480
vt 0.496094 0.039348
vt 0.496094 0.039348
vt 0.519907 0.047480
vt 0.518043 0.052565
vt 0.518043 0.052565
vt 0.515336 0.057141
vt 0.496094 0.039348
vt 0.496094 0.039348
vt 0.515336 0.057141
vt 0.511889 0.061033
vt 0.511889 0.061033
vt 0.507834 0.064092
vt 0.496094 0.039348
vt 0.496094 0.039348
vt 0.507834 0.064092
vt 0.503329 0.066201
vt 0.503329 0.066201
vt 0.498546 0.067277
vt 0.496094 0.039348
vt 0.496094 0.039348
vt 0.498546 0.067277
vt 0.493669 0.067280
vt 0.498519 0.011416
vt 0.496094 0.039348
vt 0.493642 0.011419
vt 0.488858 0.012495
vt 0.493642 0.011419
vt 0.496094 0.039348
vt 0.496094 0.039348
vt 0.488884 0.066210
vt 0.484377 0.064107
vt 0.476869 0.057164
vt 0.474157 0.052591
vt 0.496094 0.039348
vt 0.496094 0.039348
vt 0.480320 0.061053
vt 0.476869 0.057164
vt 0.484377 0.064107
vt 0.480320 0.061053
vt 0.496094 0.039348
vt 0.021484 0.001953
vt 0.474609 0.001953
vt 0.490234 0.326172
vt 0.021484 0.001953
vt 0.490234 0.326172
vt 0.001953 0.326172
vt 0.970703 0.001953
vt 0.990234 0.326172
vt 0.501953 0.326172
vt 0.970703 0.001953
vt 0.501953 0.326172
vt 0.521484 0.001953
vt 0.474609 0.001953
vt 0.490234 0.326172
vt 0.001953 0.326172
vt 0.474609 0.001953
vt 0.001953 0.326172
vt 0.021484 0.001953
vt 0.521484 0.001953
vt 0.970703 0.001953
vt 0.990234 0.326172
vt 0.521484 0.001953
vt 0.990234 0.326172
vt 0.501953 0.326172
vt 0.021484 0.001953
vt 0.474609 0.001953
vt 0.490234 0.326172
vt 0.021484 0.001953
vt 0.490234 0.326172
vt 0.001953 0.326172
vt 0.001953 0.662109
vt 0.494141 0.662109
vt 0.471680 0.333984
vt 0.001953 0.662109
vt 0.471680 0.333984
vt 0.024414 0.333984
vt 0.521484 0.001953
vt 0.970703 0.001953
vt 0.990234 0.326172
vt 0.521484 0.001953
vt 0.990234 0.326172
vt 0.501953 0.326172
vt 0.474609 0.001953
vt 0.490234 0.326172
vt 0.001953 0.326172
vt 0.474609 0.001953
vt 0.001953 0.326172
vt 0.021484 0.001953
vt 0.970703 0.001953
vt 0.990234 0.326172
vt 0.501953 0.326172
vt 0.970703 0.001953
vt 0.501953 0.326172
vt 0.521484 0.001953
vt 0.474609 0.001953
vt 0.490234 0.326172
vt 0.001953 0.326172
vt 0.474609 0.001953
vt 0.001953 0.326172
vt 0.021484 0.001953
vt 0.521484 0.001953
vt 0.970703 0.001953
vt 0.990234 0.326172
vt 0.521484 0.001953
vt 0.990234 0.326172
vt 0.501953 0.326172
vt 0.021484 0.001953
vt 0.474609 0.001953
vt 0.490234 0.326172
vt 0.021484 0.001953
vt 0.490234 0.326172
vt 0.001953 0.326172
vt 0.021484 0.001953
vt 0.474609 0.001953
vt 0.490234 0.326172
vt 0.021484 0.001953
vt 0.490234 0.326172
vt 0.001953 0.326172
vt 0.521484 0.001953
vt 0.970703 0.001953
vt 0.990234 0.326172
vt 0.521484 0.001953
vt 0.990234 0.326172
vt 0.501953 0.326172
vt 0.021484 0.001953
vt 0.474609 0.001953
vt 0.490234 0.326172
vt 0.021484 0.001953
vt 0.490234 0.326172
vt 0.001953 0.326172
vt 0.970703 0.001953
vt 0.990234 0.326172
vt 0.501953 0.326172
vt 0.970703 0.001953
vt 0.501953 0.326172
vt 0.521484 0.001953
vt 0.474609 0.001953
vt 0.490234 0.326172
vt 0.001953 0.326172
vt 0.474609 0.001953
vt 0.001953 0.326172
vt 0.021484 0.001953
vt 0.521484 0.001953
vt 0.970703 0.001953
vt 0.990234 0.326172
vt 0.521484 0.001953
vt 0.990234 0.326172
vt 0.501953 0.326172
vt 0.021484 0.001953
vt 0.474609 0.001953
vt 0.490234 0.326172
vt 0.021484 0.001953
vt 0.490234 0.326172
vt 0.001953 0.326172
vt 0.001953 0.998047
vt 0.494141 0.998047
vt 0.474609 0.666016
vt 0.001953 0.998047
vt 0.474609 0.666016
vt 0.021484 0.666016
vt 0.521484 0.001953
vt 0.970703 0.001953
vt 0.990234 0.326172
vt 0.521484 0.001953
vt 0.990234 0.326172
vt 0.501953 0.326172
vt 0.021484 0.001953
vt 0.474609 0.001953
vt 0.490234 0.326172
vt 0.021484 0.001953
vt 0.490234 0.326172
vt 0.001953 0.326172
vt 0.970703 0.001953
vt 0.990234 0.326172
vt 0.501953 0.326172
vt 0.970703 0.001953
vt 0.501953 0.326172
vt 0.521484 0.001953
vt 0.474609 0.001953
vt 0.490234 0.326172
vt 0.001953 0.326172
vt 0.474609 0.001953
vt 0.001953 0.326172
vt 0.021484 0.001953
vt 0.521484 0.001953
vt 0.970703 0.001953
vt 0.990234 0.326172
vt 0.521484 0.001953
vt 0.990234 0.326172
vt 0.501953 0.326172
vt 0.021484 0.001953
vt 0.474609 0.001953
vt 0.490234 0.326172
vt 0.021484 0.001953
vt 0.490234 0.326172
vt 0.001953 0.326172
vt 0.021484 0.001953
vt 0.474609 0.001953
vt 0.490234 0.326172
vt 0.021484 0.001953
vt 0.490234 0.326172
vt 0.001953 0.326172
vt 0.521484 0.001953
vt 0.970703 0.001953
vt 0.990234 0.326172
vt 0.521484 0.001953
vt 0.990234 0.326172
vt 0.501953 0.326172
vt 0.021484 0.001953
vt 0.474609 0.001953
vt 0.490234 0.326172
vt 0.021484 0.001953
vt 0.490234 0.326172
vt 0.001953 0.326172
vt 0.996094 0.662109
vt 0.501953 0.662109
vt 0.526272 0.333984
vt 0.996094 0.662109
vt 0.526272 0.333984
vt 0.971775 0.333984
vt 0.501953 0.998047
vt 0.996094 1.000000
vt 0.974762 0.669922
vt 0.501953 0.998047
vt 0.974762 0.669922
vt 0.521332 0.669922
vt 0.021484 0.001953
vt 0.474609 0.001953
vt 0.490234 0.326172
vt 0.021484 0.001953
vt 0.490234 0.326172
vt 0.001953 0.326172
vn 0.000000 1.000000 -0.000000
vn 0.000000 1.000000 -0.000000
vn 0.000000 1.000000 -0.000000
vn 0.000000 1.000000 -0.000000
vn 0.000000 1.000000 -0.000000
vn 0.000000 1.000000 -0.000000
vn 0.000000 1.000000 -0.000000
vn 0.000000 1.000000 -0.000000
vn 0.000000 1.000000 -0.000000
vn 0.000000 1.000000 -0.000000
vn 0.000000 1.000000 -0.000000
vn 0.000000 1.000000 -0.000000
vn 0.000000 1.000000 -0.000000
vn 0.000000 1.000000 -0.000000
vn 0.000000 1.000000 -0.000000
vn 0.000000 1.000000 -0.000000
vn 0.000000 1.000000 -0.000000
vn 0.000000 1.000000 -0.000000
vn 0.000000 1.000000 -0.000000
vn 0.000000 1.000000 -0.000000
vn 0.000000 1.000000 -0.000000
vn 0.000000 1.000000 -0.000000
vn 0.000000 1.000000 -0.000000
vn 0.000000 1.000000 -0.000000
vn 0.000000 1.000000 -0.000000
vn 0.000000 1.000000 -0.000000
vn 0.000000 1.000000 -0.000000
vn 0.000000 1.000000 -0.000000
vn 0.000000 1.000000 -0.000000
vn 0.000000 1.000000 -0.000000
vn 0.000000 1.000000 -0.000000
vn 0.000000 1.000000 -0.000000
vn 0.000000 1.000000 -0.000000
vn 0.000000 1.000000 -0.000000
vn 0.000000 1.000000 -0.000000
vn 0.000000 1.000000 -0.000000
vn 0.000000 1.000000 -0.000000
vn 0.000000 1.000000 -0.000000
vn 0.000000 1.000000 -0.000000
vn 0.000000 1.000000 -0.000000
vn 0.000000 1.000000 -0.000000
vn 0.000000 1.000000 -0.000000
vn 0.000000 1.000000 -0.000000
vn 0.000000 1.000000 -0.000000
vn 0.000000 1.000000 -0.000000
vn 0.000000 1.000000 -0.000000
vn 0.000000 1.000000 -0.000000
vn 0.000000 1.000000 -0.000000
vn 0.000000 1.000000 -0.000000
vn 0.000000 1.000000 -0.000000
vn 0.000000 1.000000 -0.000000
vn 0.000000 1.000000 -0.000000
vn 0.000000 1.000000 -0.000000
vn 0.000000 1.000000 -0.000000
vn 0.000000 1.000000 -0.000000
vn 0.000000 1.000000 -0.000000
vn 0.000000 1.000000 -0.000000
vn 0.000000 1.000000 -0.000000
vn 0.000000 1.000000 -0.000000
vn 0.000000 1.000000 -0.000000
vn 0.000000 1.000000 -0.000000
vn 0.000000 1.000000 -0.000000
vn 0.000000 1.000000 -0.000000
vn 0.000000 1.000000 -0.000000
vn 0.000000 1.000000 -0.000000
vn 0.000000 1.000000 -0.000000
vn 0.000000 1.000000 -0.000000
vn 0.000000 1.000000 -0.000000
vn 0.000000 1.000000 -0.000000
vn 0.000000 1.000000 -0.000000
vn 0.000000 1.000000 -0.000000
vn 0.000000 1.000000 -0.000000
vn 0.000000 1.000000 -0.000000
vn 0.000000 1.000000 -0.000000
vn 0.000000 1.000000 -0.000000
vn 0.000000 1.000000 -0.000000
vn 0.000000 1.000000 -0.000000
vn 0.000000 1.000000 -0.000000
vn 0.000000 1.000000 -0.000000
vn 0.000000 1.000000 -0.000000
vn 0.000000 1.000000 -0.000000
vn 0.000000 1.000000 -0.000000
vn 0.000000 1.000000 -0.000000
vn 0.000000 1.000000 -0.000000
vn 0.000000 1.000000 -0.000000
vn 0.000000 1.000000 -0.000000
vn 0.000000 1.000000 -0.000000
vn 0.000000 1.000000 -0.000000
vn 0.000000 1.000000 -0.000000
vn 0.000000 1.000000 -0.000000
vn 0.000000 1.000000 -0.000000
vn 0.000000 1.000000 -0.000000
vn 0.000000 1.000000 -0.000000
vn 0.000000 1.000000 -0.000000
vn 0.000000 1.000000 -0.000000
vn 0.000000 1.000000 -0.000000
vn -0.383835 0.900260 -0.205433
vn -0.336382 0.900260 -0.276368
vn -0.336382 0.900260 -0.276368
vn -0.383835 0.900260 -0.205433
vn -0.336382 0.900260 -0.276368
vn -0.383835 0.900260 -0.205433
vn -0.276002 0.900260 -0.336683
vn -0.276002 0.900260 -0.336683
vn -0.336382 0.900260 -0.276368
vn -0.276002 0.900260 -0.336683
vn -0.336382 0.900260 -0.276368
vn -0.336382 0.900260 -0.276368
vn -0.205015 0.900260 -0.384059
vn -0.205015 0.900260 -0.384059
vn -0.276002 0.900260 -0.336683
vn -0.205015 0.900260 -0.384059
vn -0.276002 0.900260 -0.336683
vn -0.276002 0.900260 -0.336683
vn -0.205015 0.900260 -0.384059
vn -0.126149 0.900260 -0.416675
vn -0.126149 0.900260 -0.416675
vn -0.205015 0.900260 -0.384059
vn -0.126149 0.900260 -0.416675
vn -0.205015 0.900260 -0.384059
vn -0.126149 0.900260 -0.416675
vn -0.042719 0.900465 -0.432826
vn -0.042719 0.900465 -0.432826
vn -0.126149 0.900260 -0.416675
vn -0.042719 0.900465 -0.432826
vn -0.126149 0.900260 -0.416675
vn 0.042816 0.900712 -0.432301
vn -0.042719 0.900465 -0.432826
vn -0.042719 0.900465 -0.432826
vn 0.042816 0.900712 -0.432301
vn -0.042719 0.900465 -0.432826
vn 0.042816 0.900712 -0.432301
vn 0.126791 0.900465 -0.416038
vn 0.205433 0.900260 -0.383835
vn 0.205433 0.900260 -0.383835
vn 0.126791 0.900465 -0.416038
vn 0.205433 0.900260 -0.383835
vn 0.126791 0.900465 -0.416038
vn 0.276368 0.900260 -0.336382
vn 0.276368 0.900260 -0.336382
vn 0.205433 0.900260 -0.383835
vn 0.276368 0.900260 -0.336382
vn 0.205433 0.900260 -0.383835
vn 0.205433 0.900260 -0.383835
vn 0.336683 0.900260 -0.276002
vn 0.336683 0.900260 -0.276002
vn 0.276368 0.900260 -0.336382
vn 0.336683 0.900260 -0.276002
vn 0.276368 0.900260 -0.336382
vn 0.276368 0.900260 -0.336382
vn 0.384059 0.900260 -0.205015
vn 0.384059 0.900260 -0.205015
vn 0.336683 0.900260 -0.276002
vn 0.384059 0.900260 -0.205015
vn 0.336683 0.900260 -0.276002
vn 0.336683 0.900260 -0.276002
vn 0.384059 0.900260 -0.205015
vn 0.416675 0.900260 -0.126149
vn 0.416675 0.900260 -0.126149
vn 0.384059 0.900260 -0.205015
vn 0.416675 0.900260 -0.126149
vn 0.384059 0.900260 -0.205015
vn 0.416675 0.900260 -0.126149
vn 0.433867 0.899994 -0.042069
vn 0.433867 0.899994 -0.042069
vn 0.416675 0.900260 -0.126149
vn 0.433867 0.899994 -0.042069
vn 0.416675 0.900260 -0.126149
vn 0.434442 0.899671 0.043028
vn 0.417186 0.899994 0.126359
vn 0.417186 0.899994 0.126359
vn 0.434442 0.899671 0.043028
vn 0.417186 0.899994 0.126359
vn 0.434442 0.899671 0.043028
vn 0.417186 0.899994 0.126359
vn 0.383834 0.900260 0.205433
vn 0.383834 0.900260 0.205433
vn 0.417186 0.899994 0.126359
vn 0.383834 0.900260 0.205433
vn 0.417186 0.899994 0.126359
vn 0.383834 0.900260 0.205433
vn 0.336381 0.900260 0.276368
vn 0.336381 0.900260 0.276368
vn 0.383834 0.900260 0.205433
vn 0.336381 0.900260 0.276368
vn 0.383834 0.900260 0.205433
vn 0.276002 0.900260 0.336683
vn 0.276002 0.900260 0.336683
vn 0.336381 0.900260 0.276368
vn 0.276002 0.900260 0.336683
vn 0.336381 0.900260 0.276368
vn 0.336381 0.900260 0.276368
vn 0.205015 0.900260 0.384059
vn 0.205015 0.900260 0.384059
vn 0.276002 0.900260 0.336683
vn 0.205015 0.900260 0.384059
vn 0.276002 0.900260 0.336683
vn 0.276002 0.900260 0.336683
vn 0.205015 0.900260 0.384059
vn 0.126149 0.900260 0.416675
vn 0.126149 0.900260 0.416675
vn 0.205015 0.900260 0.384059
vn 0.126149 0.900260 0.416675
vn 0.205015 0.900260 0.384059
vn 0.126149 0.900260 0.416675
vn 0.042050 0.899980 0.433898
vn 0.042050 0.899980 0.433898
vn 0.126149 0.900260 0.416675
vn 0.042050 0.899980 0.433898
vn 0.126149 0.900260 0.416675
vn -0.043034 0.899641 0.434504
vn 0.042050 0.899980 0.433898
vn 0.042050 0.899980 0.433898
vn -0.043034 0.899641 0.434504
vn 0.042050 0.899980 0.433898
vn -0.043034 0.899641 0.434504
vn -0.126346 0.899980 0.417219
vn -0.205433 0.900260 0.383834
vn -0.205433 0.900260 0.383835
vn -0.126346 0.899980 0.417219
vn -0.205433 0.900260 0.383835
vn -0.126346 0.899980 0.417219
vn -0.205433 0.900260 0.383834
vn -0.276368 0.900260 0.336381
vn -0.276368 0.900260 0.336381
vn -0.205433 0.900260 0.383834
vn -0.276368 0.900260 0.336381
vn -0.205433 0.900260 0.383835
vn -0.336683 0.900260 0.276001
vn -0.336683 0.900260 0.276001
vn -0.276368 0.900260 0.336381
vn -0.336683 0.900260 0.276001
vn -0.276368 0.900260 0.336381
vn -0.276368 0.900260 0.336381
vn -0.384059 0.900260 0.205015
vn -0.384059 0.900260 0.205015
vn -0.336683 0.900260 0.276001
vn -0.384059 0.900260 0.205015
vn -0.336683 0.900260 0.276001
vn -0.336683 0.900260 0.276001
vn -0.384059 0.900260 0.205015
vn -0.416675 0.900260 0.126149
vn -0.416675 0.900260 0.126149
vn -0.384059 0.900260 0.205015
vn -0.416675 0.900260 0.126149
vn -0.384059 0.900260 0.205015
vn -0.416675 0.900260 0.126149
vn -0.433898 0.899980 0.042050
vn -0.433898 0.899980 0.042050
vn -0.416675 0.900260 0.126149
vn -0.433898 0.899980 0.042050
vn -0.416675 0.900260 0.126149
vn -0.434504 0.899641 -0.043034
vn -0.417219 0.899980 -0.126346
vn -0.417219 0.899980 -0.126346
vn -0.434504 0.899641 -0.043034
vn -0.417219 0.899980 -0.126346
vn -0.434504 0.899641 -0.043034
vn -0.417219 0.899980 -0.126346
vn -0.383835 0.900260 -0.205433
vn -0.383835 0.900260 -0.205433
vn -0.417219 0.899980 -0.126346
vn -0.383835 0.900260 -0.205433
vn -0.417219 0.899980 -0.126346
vn 0.042816 0.900712 -0.432301
vn 0.126791 0.900465 -0.416038
vn 0.126791 0.900465 -0.416038
vn 0.042816 0.900712 -0.432301
vn 0.126791 0.900465 -0.416038
vn 0.042816 0.900712 -0.432301
vn -0.434504 0.899641 -0.043034
vn -0.433898 0.899980 0.042050
vn -0.433898 0.899980 0.042050
vn -0.434504 0.899641 -0.043034
vn -0.433898 0.899980 0.042050
vn -0.434504 0.899641 -0.043034
vn 0.434442 0.899671 0.043028
vn 0.433867 0.899994 -0.042069
vn 0.433867 0.899994 -0.042069
vn 0.434442 0.899671 0.043028
vn 0.433867 0.899994 -0.042069
vn 0.434442 0.899671 0.043028
vn -0.043034 0.899641 0.434504
vn -0.126346 0.899980 0.417219
vn -0.126346 0.899980 0.417219
vn -0.043034 0.899641 0.434504
vn -0.126346 0.899980 0.417219
vn -0.043034 0.899641 0.434504
f 33/1/1 17/2/2 16/3/3
f 16/4/4 15/5/5 33/6/6
f 33/7/7 15/8/8 14/9/9
f 14/10/10 13/11/11 33/12/12
f 33/13/13 13/14/14 12/15/15
f 22/16/16 21/17/17 33/18/18
f 12/19/19 11/20/20 33/21/21
f 33/22/22 11/23/23 10/24/24
f 10/25/25 9/26/26 33/27/27
f 33/28/28 9/29/29 8/30/30
f 6/31/31 5/32/32 33/33/33
f 33/34/34 5/35/35 4/36/36
f 4/37/37 3/38/38 33/39/39
f 33/40/40 3/41/41 2/42/42
f 2/43/43 1/44/44 33/45/45
f 33/46/46 1/47/47 32/48/48
f 32/49/49 31/50/50 33/51/51
f 33/52/52 31/53/53 30/54/54
f 30/55/55 29/56/56 33/57/57
f 33/58/58 29/59/59 28/60/60
f 28/61/61 27/62/62 33/63/63
f 33/64/64 27/65/65 26/66/66
f 26/67/67 25/68/68 33/69/69
f 33/70/70 25/71/71 24/72/72
f 24/73/73 23/74/74 33/75/75
f 33/76/76 23/77/77 22/78/78
f 6/79/79 33/80/80 7/81/81
f 8/82/82 7/83/83 33/84/84
f 33/85/85 21/86/86 20/87/87
f 18/88/88 17/89/89 33/90/90
f 33/91/91 19/92/92 18/93/93
f 20/94/94 19/95/95 33/96/96
f 1/97/97 2/98/98 59/99/99
f 1/100/100 59/101/101 60/102/102
f 3/103/103 58/104/104 59/105/105
f 3/106/106 59/107/107 2/108/108
f 4/109/109 57/110/110 58/111/111
f 4/112/112 58/113/113 3/114/114
f 4/115/115 5/116/116 56/117/117
f 4/118/118 56/119/119 57/120/120
f 5/121/121 6/122/122 55/123/123
f 5/124/124 55/125/125 56/126/126
f 64/127/127 55/128/128 6/129/129
f 64/130/130 6/131/131 7/132/132
f 8/133/133 9/134/134 53/135/135
f 8/136/136 53/137/137 54/138/138
f 10/139/139 52/140/140 53/141/141
f 10/142/142 53/143/143 9/144/144
f 11/145/145 51/146/146 52/147/147
f 11/148/148 52/149/149 10/150/150
f 12/151/151 50/152/152 51/153/153
f 12/154/154 51/155/155 11/156/156
f 12/157/157 13/158/158 49/159/159
f 12/160/160 49/161/161 50/162/162
f 13/163/163 14/164/164 48/165/165
f 13/166/166 48/167/167 49/168/168
f 15/169/169 16/170/170 47/171/171
f 15/172/172 47/173/173 62/174/174
f 16/175/175 17/176/176 46/177/177
f 16/178/178 46/179/179 47/180/180
f 17/181/181 18/182/182 45/183/183
f 17/184/184 45/185/185 46/186/186
f 19/187/187 44/188/188 45/189/189
f 19/190/190 45/191/191 18/192/192
f 20/193/193 43/194/194 44/195/195
f 20/196/196 44/197/197 19/198/198
f 20/199/199 21/200/200 42/201/201
f 20/202/202 42/203/203 43/204/204
f 21/205/205 22/206/206 41/207/207
f 21/208/208 41/209/209 42/210/210
f 63/211/211 41/212/212 22/213/213
f 63/214/214 22/215/215 23/216/216
f 24/217/217 25/218/218 39/219/219
f 24/220/220 39/221/221 40/222/222
f 25/223/223 26/224/224 38/225/225
f 25/226/226 38/227/227 39/228/228
f 27/229/229 37/230/230 38/231/231
f 27/232/232 38/233/233 26/234/234
f 28/235/235 36/236/236 37/237/237
f 28/238/238 37/239/239 27/240/240
f 28/241/241 29/242/242 35/243/243
f 28/244/244 35/245/245 36/246/246
f 29/247/247 30/248/248 34/249/249
f 29/250/250 34/251/251 35/252/252
f 31/253/253 32/254/254 61/255/255
f 31/256/256 61/257/257 65/258/258
f 32/259/259 1/260/260 60/261/261
f 32/262/262 60/263/263 61/264/264
f 7/265/265 8/266/266 54/267/267
f 7/268/268 54/269/269 64/270/270
f 65/271/271 34/272/272 30/273/273
f 65/274/274 30/275/275 31/276/276
f 62/277/277 48/278/278 14/279/279
f 62/280/280 14/281/281 15/282/282
f 23/283/283 24/284/284 40/285/285
f 23/286/286 40/287/287 63/288/288
