v -0.420909 -0.568676 -0.507494
v -0.378574 -0.465973 -0.320388
v -0.295412 -0.369218 -0.144118
v -0.174620 -0.282128 0.014544
v -0.020839 -0.208051 0.149499
v 0.160021 -0.149833 0.255561
v 0.361011 -0.109712 0.328654
v 0.792001 -0.089173 0.366074
v 0.574371 -0.088620 0.366009
v -0.597926 0.736948 -0.508396
v 0.574371 -0.031080 0.366008
v 0.361011 0.002456 0.328654
v -0.420909 0.732206 -0.507494
v -0.596171 -0.564581 -0.508281
v -0.378574 0.568909 -0.320388
v -0.295412 0.415068 -0.144118
v -0.174620 0.276597 0.014543
v -0.020839 0.158815 0.149498
v 0.160021 0.066248 0.255561
v 0.792001 -0.030202 0.366073
vt 0.001953 0.326172
vt 0.490234 0.326172
vt 0.490234 0.326172
vt 0.001953 0.326172
vt 0.490234 0.326172
vt 0.001953 0.326172
vt 0.494141 0.998047
vt 0.001953 0.998047
vt 0.001953 0.998047
vt 0.494141 0.998047
vt 0.001953 0.998047
vt 0.494141 0.998047
vt 0.996094 0.662109
vt 0.501953 0.662109
vt 0.501953 0.662109
vt 0.996094 0.662109
vt 0.501953 0.662109
vt 0.000000 0.000000
vt 0.001953 0.326172
vt 0.490234 0.326172
vt 0.490234 0.326172
vt 0.001953 0.326172
vt 0.490234 0.326172
vt 0.001953 0.326172
vt 0.501953 0.326172
vt 0.990234 0.326172
vt 0.990234 0.326172
vt 0.501953 0.326172
vt 0.990234 0.326172
vt 0.501953 0.326172
vt 0.001953 0.326172
vt 0.490234 0.326172
vt 0.490234 0.326172
vt 0.001953 0.326172
vt 0.490234 0.326172
vt 0.001953 0.326172
vt 0.501953 0.326172
vt 0.990234 0.326172
vt 0.990234 0.326172
vt 0.501953 0.326172
vt 0.990234 0.326172
vt 0.501953 0.326172
vt 0.001953 0.326172
vt 0.490234 0.326172
vt 0.490234 0.326172
vt 0.001953 0.326172
vt 0.490234 0.326172
vt 0.001953 0.326172
vt 0.501953 0.326172
vt 0.990234 0.326172
vt 0.990234 0.326172
vt 0.501953 0.326172
vt 0.990234 0.326172
vt 0.501953 0.326172
vn 0.086701 -0.000005 -0.996234
vn 0.258104 -0.000003 -0.966117
vn 0.258104 -0.000003 -0.966117
vn 0.086701 -0.000005 -0.996234
vn 0.258104 -0.000003 -0.966117
vn 0.086701 -0.000005 -0.996234
vn 0.000298 -0.000006 -1.000000
vn 0.086701 -0.000005 -0.996234
vn 0.086701 -0.000005 -0.996234
vn 0.000298 -0.000006 -1.000000
vn 0.086701 -0.000005 -0.996234
vn 0.000298 -0.000006 -1.000000
vn 0.004793 -0.000041 -0.999988
vn 0.004793 -0.000041 -0.999988
vn 0.004793 -0.000041 -0.999988
vn 0.004793 -0.000041 -0.999988
vn 0.004793 -0.000041 -0.999988
vn 0.004793 -0.000041 -0.999988
vn 0.945501 -0.000000 -0.325620
vn 0.975346 -0.000000 -0.220683
vn 0.975346 -0.000000 -0.220683
vn 0.945501 -0.000000 -0.325620
vn 0.975346 -0.000000 -0.220683
vn 0.945501 -0.000000 -0.325620
vn 0.854731 -0.000000 -0.519071
vn 0.945501 -0.000000 -0.325620
vn 0.945501 -0.000000 -0.325620
vn 0.854731 -0.000000 -0.519071
vn 0.945501 -0.000000 -0.325620
vn 0.854731 -0.000000 -0.519071
vn 0.731274 -0.000001 -0.682083
vn 0.854731 -0.000000 -0.519071
vn 0.854731 -0.000000 -0.519071
vn 0.731274 -0.000001 -0.682083
vn 0.854731 -0.000000 -0.519071
vn 0.731274 -0.000001 -0.682083
vn 0.585370 -0.000001 -0.810766
vn 0.731274 -0.000001 -0.682083
vn 0.731274 -0.000001 -0.682083
vn 0.585370 -0.000001 -0.810766
vn 0.731274 -0.000001 -0.682083
vn 0.585370 -0.000001 -0.810766
vn 0.425569 -0.000002 -0.904926
vn 0.585370 -0.000001 -0.810766
vn 0.585370 -0.000001 -0.810766
vn 0.425569 -0.000002 -0.904926
vn 0.585370 -0.000001 -0.810766
vn 0.425569 -0.000002 -0.904926
vn 0.258104 -0.000003 -0.966117
vn 0.425569 -0.000002 -0.904926
vn 0.425569 -0.000002 -0.904926
vn 0.258104 -0.000003 -0.966117
vn 0.425569 -0.000002 -0.904926
vn 0.258104 -0.000003 -0.966117
f 9/1/1 7/2/2 12/3/3
f 9/4/4 12/5/5 11/6/6
f 8/7/7 9/8/8 11/9/9
f 8/10/10 11/11/11 20/12/12
f 13/13/13 1/14/14 14/15/15
f 13/16/16 14/17/17 10/18/18
f 2/19/19 1/20/20 13/21/21
f 2/22/22 13/23/23 15/24/24
f 3/25/25 2/26/26 15/27/27
f 3/28/28 15/29/29 16/30/30
f 4/31/31 3/32/32 16/33/33
f 4/34/34 16/35/35 17/36/36
f 5/37/37 4/38/38 17/39/39
f 5/40/40 17/41/41 18/42/42
f 6/43/43 5/44/44 18/45/45
f 6/46/46 18/47/47 19/48/48
f 7/49/49 6/50/50 19/51/51
f 7/52/52 19/53/53 12/54/54
