v 4.902503 0.000000 -0.982583
v 4.808302 0.975452 -0.963703
v 4.529322 1.913417 -0.907788
v 4.076282 2.777851 -0.816988
v 3.466593 3.535534 -0.694791
v 2.723684 4.157348 -0.545894
v 1.876106 4.619398 -0.376018
v 4.153304 0.000000 -2.783895
v 4.073499 0.975452 -2.730403
v 2.771802 0.000000 -4.161384
v 2.718542 0.975452 -4.081424
v 0.968318 0.000000 -4.905340
v 0.949712 0.975452 -4.811085
v 0.894609 1.913417 -4.531943
v 0.805127 2.777851 -4.078641
v 0.684704 3.535534 -3.468599
v 0.537969 4.157348 -2.725260
v 0.370559 4.619398 -1.877192
v -0.982583 0.000000 -4.902502
v -0.963703 0.975452 -4.808302
v -0.907789 1.913417 -4.529322
v -0.816988 2.777851 -4.076282
v -0.694791 3.535534 -3.466592
v -0.545894 4.157348 -2.723684
v -0.376018 4.619398 -1.876106
v -2.783895 0.000000 -4.153303
v -2.730403 0.975452 -4.073499
v -4.161384 0.000000 -2.771801
v -4.081424 0.975452 -2.718541
v -4.905340 0.000000 -0.968317
v -4.811085 0.975452 -0.949711
v -4.531943 1.913417 -0.894608
v -4.078640 2.777851 -0.805126
v -3.468599 3.535534 -0.684703
v -2.725260 4.157348 -0.537968
v -1.877192 4.619398 -0.370559
v -4.902502 0.000000 0.982584
v -4.808301 0.975452 0.963704
v -4.529321 1.913417 0.907789
v -4.076281 2.777851 0.816989
v -3.466592 3.535534 0.694792
v -2.723684 4.157348 0.545894
v -1.876106 4.619398 0.376018
v -4.153303 0.000000 2.783896
v -4.073498 0.975452 2.730404
v -2.771800 0.000000 4.161385
v -2.718541 0.975452 4.081424
v -0.968316 0.000000 4.905340
v -0.949711 0.975452 4.811085
v -0.894608 1.913417 4.531943
v -0.805126 2.777851 4.078640
v -0.684703 3.535534 3.468599
v -0.537968 4.157348 2.725260
v -0.370559 4.619398 1.877192
v 0.982585 0.000000 4.902502
v 0.963704 0.975452 4.808301
v 0.907790 1.913417 4.529321
v 0.816989 2.777851 4.076281
v 0.694793 3.535534 3.466592
v 0.545895 4.157348 2.723683
v 0.376019 4.619398 1.876106
v 2.783896 0.000000 4.153302
v 2.730404 0.975452 4.073497
v 4.161385 0.000000 2.771799
v 4.081425 0.975452 2.718540
v 4.905340 0.000000 0.968315
v 4.811085 0.975452 0.949710
v 4.531943 1.913417 0.894607
v 4.078640 2.777851 0.805125
v 3.468599 3.535534 0.684702
v 2.725260 4.157348 0.537967
v 1.877192 4.619398 0.370558
vt 0.000000 0.000000
vt 0.000000 0.000000
vt 0.000000 0.000000
vt 0.000000 0.000000
vt 0.000000 0.000000
vt 0.000000 0.000000
vt 0.000000 0.000000
vt 0.000000 0.000000
vt 0.000000 0.000000
vt 0.000000 0.000000
vt 0.000000 0.000000
vt 0.000000 0.000000
vt 0.000000 0.000000
vt 0.000000 0.000000
vt 0.000000 0.000000
vt 0.000000 0.000000
vt 0.000000 0.000000
vt 0.000000 0.000000
vt 0.000000 0.000000
vt 0.000000 0.000000
vt 0.000000 0.000000
vt 0.000000 0.000000
vt 0.000000 0.000000
vt 0.000000 0.000000
vt 0.000000 0.000000
vt 0.000000 0.000000
vt 0.000000 0.000000
vt 0.000000 0.000000
vt 0.000000 0.000000
vt 0.000000 0.000000
vt 0.000000 0.000000
vt 0.000000 0.000000
vt 0.000000 0.000000
vt 0.000000 0.000000
vt 0.000000 0.000000
vt 0.000000 0.000000
vt 0.000000 0.000000
vt 0.000000 0.000000
vt 0.000000 0.000000
vt 0.000000 0.000000
vt 0.000000 0.000000
vt 0.000000 0.000000
vt 0.000000 0.000000
vt 0.000000 0.000000
vt 0.000000 0.000000
vt 0.000000 0.000000
vt 0.000000 0.000000
vt 0.000000 0.000000
vt 0.000000 0.000000
vt 0.000000 0.000000
vt 0.000000 0.000000
vt 0.000000 0.000000
vt 0.000000 0.000000
vt 0.000000 0.000000
vt 0.000000 0.000000
vt 0.000000 0.000000
vt 0.000000 0.000000
vt 0.000000 0.000000
vt 0.000000 0.000000
vt 0.000000 0.000000
vt 0.000000 0.000000
vt 0.000000 0.000000
vt 0.000000 0.000000
vt 0.000000 0.000000
vt 0.000000 0.000000
vt 0.000000 0.000000
vt 0.000000 0.000000
vt 0.000000 0.000000
vt 0.000000 0.000000
vt 0.000000 0.000000
vt 0.000000 0.000000
vt 0.000000 0.000000
vt 0.000000 0.000000
vt 0.000000 0.000000
vt 0.000000 0.000000
vt 0.000000 0.000000
vt 0.000000 0.000000
vt 0.000000 0.000000
vt 0.000000 0.000000
vt 0.000000 0.000000
vt 0.000000 0.000000
vt 0.000000 0.000000
vt 0.000000 0.000000
vt 0.000000 0.000000
vt 0.000000 0.000000
vt 0.000000 0.000000
vt 0.000000 0.000000
vt 0.000000 0.000000
vt 0.000000 0.000000
vt 0.000000 0.000000
vt 0.000000 0.000000
vt 0.000000 0.000000
vt 0.000000 0.000000
vt 0.000000 0.000000
vt 0.000000 0.000000
vt 0.000000 0.000000
vt 0.000000 0.000000
vt 0.000000 0.000000
vt 0.000000 0.000000
vt 0.000000 0.000000
vt 0.000000 0.000000
vt 0.000000 0.000000
vt 0.000000 0.000000
vt 0.000000 0.000000
vt 0.000000 0.000000
vt 0.000000 0.000000
vt 0.000000 0.000000
vt 0.000000 0.000000
vt 0.000000 0.000000
vt 0.000000 0.000000
vt 0.000000 0.000000
vt 0.000000 0.000000
vt 0.000000 0.000000
vt 0.000000 0.000000
vt 0.000000 0.000000
vt 0.000000 0.000000
vt 0.000000 0.000000
vt 0.000000 0.000000
vt 0.000000 0.000000
vt 0.000000 0.000000
vt 0.000000 0.000000
vt 0.000000 0.000000
vt 0.000000 0.000000
vt 0.000000 0.000000
vt 0.000000 0.000000
vt 0.000000 0.000000
vt 0.000000 0.000000
vt 0.000000 0.000000
vt 0.000000 0.000000
vt 0.000000 0.000000
vt 0.000000 0.000000
vt 0.000000 0.000000
vt 0.000000 0.000000
vt 0.000000 0.000000
vt 0.000000 0.000000
vt 0.000000 0.000000
vt 0.000000 0.000000
vt 0.000000 0.000000
vt 0.000000 0.000000
vt 0.000000 0.000000
vt 0.000000 0.000000
vt 0.000000 0.000000
vt 0.000000 0.000000
vt 0.000000 0.000000
vt 0.000000 0.000000
vt 0.000000 0.000000
vt 0.000000 0.000000
vt 0.000000 0.000000
vt 0.000000 0.000000
vt 0.000000 0.000000
vt 0.000000 0.000000
vt 0.000000 0.000000
vt 0.000000 0.000000
vt 0.000000 0.000000
vt 0.000000 0.000000
vt 0.000000 0.000000
vt 0.000000 0.000000
vt 0.000000 0.000000
vt 0.000000 0.000000
vt 0.000000 0.000000
vt 0.000000 0.000000
vt 0.000000 0.000000
vt 0.000000 0.000000
vt 0.000000 0.000000
vt 0.000000 0.000000
vt 0.000000 0.000000
vt 0.000000 0.000000
vt 0.000000 0.000000
vt 0.000000 0.000000
vt 0.000000 0.000000
vt 0.000000 0.000000
vt 0.000000 0.000000
vt 0.000000 0.000000
vt 0.000000 0.000000
vt 0.000000 0.000000
vt 0.000000 0.000000
vt 0.000000 0.000000
vt 0.000000 0.000000
vt 0.000000 0.000000
vt 0.000000 0.000000
vt 0.000000 0.000000
vt 0.000000 0.000000
vt 0.000000 0.000000
vt 0.000000 0.000000
vt 0.000000 0.000000
vt 0.000000 0.000000
vt 0.000000 0.000000
vt 0.000000 0.000000
vt 0.000000 0.000000
vt 0.000000 0.000000
vt 0.000000 0.000000
vt 0.000000 0.000000
vt 0.000000 0.000000
vt 0.000000 0.000000
vt 0.000000 0.000000
vt 0.000000 0.000000
vt 0.000000 0.000000
vt 0.000000 0.000000
vt 0.000000 0.000000
vt 0.000000 0.000000
vt 0.000000 0.000000
vt 0.000000 0.000000
vt 0.000000 0.000000
vt 0.000000 0.000000
vt 0.000000 0.000000
vt 0.000000 0.000000
vt 0.000000 0.000000
vt 0.000000 0.000000
vt 0.000000 0.000000
vt 0.000000 0.000000
vt 0.000000 0.000000
vt 0.000000 0.000000
vt 0.000000 0.000000
vt 0.000000 0.000000
vt 0.000000 0.000000
vt 0.000000 0.000000
vn 0.196517 0.000000 0.980500
vn 0.556779 0.000000 0.830660
vn 0.546073 0.195159 0.814688
vn 0.196517 0.000000 0.980500
vn 0.546073 0.195159 0.814688
vn 0.192738 0.195159 0.961647
vn 0.193664 0.000000 -0.981068
vn -0.196517 0.000000 -0.980500
vn -0.192738 0.195159 -0.961647
vn 0.193664 0.000000 -0.981068
vn -0.192738 0.195159 -0.961647
vn 0.189940 0.195159 -0.962204
vn 0.544911 0.831566 0.107566
vn 0.544595 0.831566 -0.109150
vn 0.375100 0.923931 -0.075179
vn 0.544911 0.831566 0.107566
vn 0.375100 0.923931 -0.075179
vn 0.375317 0.923931 0.074088
vn 0.693590 0.707239 0.136915
vn 0.693189 0.707238 -0.138932
vn 0.544595 0.831566 -0.109150
vn 0.693590 0.707239 0.136915
vn 0.544595 0.831566 -0.109150
vn 0.544911 0.831566 0.107566
vn 0.815635 0.555712 0.161007
vn 0.815163 0.555712 -0.163379
vn 0.693189 0.707238 -0.138932
vn 0.815635 0.555712 0.161007
vn 0.693189 0.707238 -0.138932
vn 0.693590 0.707239 0.136915
vn 0.906340 0.382804 0.178912
vn 0.905815 0.382804 -0.181548
vn 0.815163 0.555712 -0.163379
vn 0.906340 0.382804 0.178912
vn 0.815163 0.555712 -0.163379
vn 0.815635 0.555712 0.161007
vn 0.962204 0.195159 0.189940
vn 0.961647 0.195159 -0.192738
vn 0.905815 0.382804 -0.181548
vn 0.962204 0.195159 0.189940
vn 0.905815 0.382804 -0.181548
vn 0.906340 0.382804 0.178912
vn 0.981068 0.000000 0.193663
vn 0.980500 0.000000 -0.196516
vn 0.961647 0.195159 -0.192738
vn 0.981068 0.000000 0.193663
vn 0.961647 0.195159 -0.192738
vn 0.962204 0.195159 0.189940
vn 0.980500 0.000000 -0.196516
vn 0.830661 0.000000 -0.556779
vn 0.814688 0.195159 -0.546073
vn 0.980500 0.000000 -0.196516
vn 0.814688 0.195159 -0.546073
vn 0.961647 0.195159 -0.192738
vn -0.544911 0.831566 -0.107566
vn -0.544595 0.831566 0.109151
vn -0.375100 0.923931 0.075179
vn -0.544911 0.831566 -0.107566
vn -0.375100 0.923931 0.075179
vn -0.375317 0.923931 -0.074088
vn -0.693591 0.707239 -0.136915
vn -0.693189 0.707239 0.138933
vn -0.544595 0.831566 0.109151
vn -0.693591 0.707239 -0.136915
vn -0.544595 0.831566 0.109151
vn -0.544911 0.831566 -0.107566
vn -0.815635 0.555712 -0.161007
vn -0.815163 0.555712 0.163379
vn -0.693189 0.707239 0.138933
vn -0.815635 0.555712 -0.161007
vn -0.693189 0.707239 0.138933
vn -0.693591 0.707239 -0.136915
vn -0.906340 0.382804 -0.178912
vn -0.905815 0.382804 0.181548
vn -0.815163 0.555712 0.163379
vn -0.906340 0.382804 -0.178912
vn -0.815163 0.555712 0.163379
vn -0.815635 0.555712 -0.161007
vn -0.962204 0.195159 -0.189940
vn -0.961647 0.195159 0.192738
vn -0.905815 0.382804 0.181548
vn -0.962204 0.195159 -0.189940
vn -0.905815 0.382804 0.181548
vn -0.906340 0.382804 -0.178912
vn -0.981068 0.000000 -0.193663
vn -0.980500 0.000000 0.196517
vn -0.961647 0.195159 0.192738
vn -0.981068 0.000000 -0.193663
vn -0.961647 0.195159 0.192738
vn -0.962204 0.195159 -0.189940
vn 0.189940 0.195159 -0.962204
vn -0.192738 0.195159 -0.961647
vn -0.181548 0.382804 -0.905815
vn 0.189940 0.195159 -0.962204
vn -0.181548 0.382804 -0.905815
vn 0.178912 0.382804 -0.906340
vn 0.178912 0.382804 -0.906340
vn -0.181548 0.382804 -0.905815
vn -0.163379 0.555712 -0.815163
vn 0.178912 0.382804 -0.906340
vn -0.163379 0.555712 -0.815163
vn 0.161007 0.555712 -0.815635
vn -0.980500 0.000000 0.196517
vn -0.830661 0.000000 0.556779
vn -0.814688 0.195159 0.546073
vn -0.980500 0.000000 0.196517
vn -0.814688 0.195159 0.546073
vn -0.961647 0.195159 0.192738
vn 0.161007 0.555712 -0.815635
vn -0.163379 0.555712 -0.815163
vn -0.138932 0.707239 -0.693189
vn 0.161007 0.555712 -0.815635
vn -0.138932 0.707239 -0.693189
vn 0.136915 0.707239 -0.693591
vn 0.136915 0.707239 -0.693591
vn -0.138932 0.707239 -0.693189
vn -0.109151 0.831566 -0.544595
vn 0.136915 0.707239 -0.693591
vn -0.109151 0.831566 -0.544595
vn 0.107566 0.831566 -0.544911
vn -0.832277 0.000000 -0.554360
vn -0.981068 0.000000 -0.193663
vn -0.962204 0.195159 -0.189940
vn -0.832277 0.000000 -0.554360
vn -0.962204 0.195159 -0.189940
vn -0.816274 0.195159 -0.543701
vn -0.830661 0.000000 0.556779
vn -0.554360 0.000000 0.832277
vn -0.543701 0.195159 0.816274
vn -0.830661 0.000000 0.556779
vn -0.543701 0.195159 0.816274
vn -0.814688 0.195159 0.546073
vn 0.107566 0.831566 -0.544911
vn -0.109151 0.831566 -0.544595
vn -0.075179 0.923931 -0.375100
vn 0.107566 0.831566 -0.544911
vn -0.075179 0.923931 -0.375100
vn 0.074088 0.923931 -0.375317
vn 0.832277 0.000000 0.554360
vn 0.981068 0.000000 0.193663
vn 0.962204 0.195159 0.189940
vn 0.832277 0.000000 0.554360
vn 0.962204 0.195159 0.189940
vn 0.816274 0.195159 0.543700
vn 0.830661 0.000000 -0.556779
vn 0.554360 0.000000 -0.832277
vn 0.543701 0.195159 -0.816273
vn 0.830661 0.000000 -0.556779
vn 0.543701 0.195159 -0.816273
vn 0.814688 0.195159 -0.546073
vn 0.554360 0.000000 -0.832277
vn 0.193664 0.000000 -0.981068
vn 0.189940 0.195159 -0.962204
vn 0.554360 0.000000 -0.832277
vn 0.189940 0.195159 -0.962204
vn 0.543701 0.195159 -0.816273
vn -0.556779 0.000000 -0.830661
vn -0.832277 0.000000 -0.554360
vn -0.816274 0.195159 -0.543701
vn -0.556779 0.000000 -0.830661
vn -0.816274 0.195159 -0.543701
vn -0.546073 0.195159 -0.814688
vn -0.554360 0.000000 0.832277
vn -0.193663 0.000000 0.981068
vn -0.189939 0.195159 0.962204
vn -0.554360 0.000000 0.832277
vn -0.189939 0.195159 0.962204
vn -0.543701 0.195159 0.816274
vn 0.556779 0.000000 0.830660
vn 0.832277 0.000000 0.554360
vn 0.816274 0.195159 0.543700
vn 0.556779 0.000000 0.830660
vn 0.816274 0.195159 0.543700
vn 0.546073 0.195159 0.814688
vn -0.107566 0.831566 0.544911
vn 0.109151 0.831566 0.544595
vn 0.075180 0.923931 0.375100
vn -0.107566 0.831566 0.544911
vn 0.075180 0.923931 0.375100
vn -0.074088 0.923931 0.375317
vn -0.196517 0.000000 -0.980500
vn -0.556779 0.000000 -0.830661
vn -0.546073 0.195159 -0.814688
vn -0.196517 0.000000 -0.980500
vn -0.546073 0.195159 -0.814688
vn -0.192738 0.195159 -0.961647
vn -0.136915 0.707239 0.693591
vn 0.138933 0.707239 0.693189
vn 0.109151 0.831566 0.544595
vn -0.136915 0.707239 0.693591
vn 0.109151 0.831566 0.544595
vn -0.107566 0.831566 0.544911
vn -0.161007 0.555712 0.815635
vn 0.163379 0.555712 0.815163
vn 0.138933 0.707239 0.693189
vn -0.161007 0.555712 0.815635
vn 0.138933 0.707239 0.693189
vn -0.136915 0.707239 0.693591
vn -0.193663 0.000000 0.981068
vn 0.196517 0.000000 0.980500
vn 0.192738 0.195159 0.961647
vn -0.193663 0.000000 0.981068
vn 0.192738 0.195159 0.961647
vn -0.189939 0.195159 0.962204
vn -0.189939 0.195159 0.962204
vn 0.192738 0.195159 0.961647
vn 0.181548 0.382804 0.905815
vn -0.189939 0.195159 0.962204
vn 0.181548 0.382804 0.905815
vn -0.178912 0.382804 0.906340
vn -0.178912 0.382804 0.906340
vn 0.181548 0.382804 0.905815
vn 0.163379 0.555712 0.815163
vn -0.178912 0.382804 0.906340
vn 0.163379 0.555712 0.815163
vn -0.161007 0.555712 0.815635
f 55/1/1 62/2/2 63/3/3
f 55/4/4 63/5/5 56/6/6
f 12/7/7 19/8/8 20/9/9
f 12/10/10 20/11/11 13/12/12
f 71/13/13 6/14/14 7/15/15
f 71/16/16 7/17/17 72/18/18
f 70/19/19 5/20/20 6/21/21
f 70/22/22 6/23/23 71/24/24
f 69/25/25 4/26/26 5/27/27
f 69/28/28 5/29/29 70/30/30
f 68/31/31 3/32/32 4/33/33
f 68/34/34 4/35/35 69/36/36
f 67/37/37 2/38/38 3/39/39
f 67/40/40 3/41/41 68/42/42
f 66/43/43 1/44/44 2/45/45
f 66/46/46 2/47/47 67/48/48
f 1/49/49 8/50/50 9/51/51
f 1/52/52 9/53/53 2/54/54
f 35/55/55 42/56/56 43/57/57
f 35/58/58 43/59/59 36/60/60
f 34/61/61 41/62/62 42/63/63
f 34/64/64 42/65/65 35/66/66
f 33/67/67 40/68/68 41/69/69
f 33/70/70 41/71/71 34/72/72
f 32/73/73 39/74/74 40/75/75
f 32/76/76 40/77/77 33/78/78
f 31/79/79 38/80/80 39/81/81
f 31/82/82 39/83/83 32/84/84
f 30/85/85 37/86/86 38/87/87
f 30/88/88 38/89/89 31/90/90
f 13/91/91 20/92/92 21/93/93
f 13/94/94 21/95/95 14/96/96
f 14/97/97 21/98/98 22/99/99
f 14/100/100 22/101/101 15/102/102
f 37/103/103 44/104/104 45/105/105
f 37/106/106 45/107/107 38/108/108
f 15/109/109 22/110/110 23/111/111
f 15/112/112 23/113/113 16/114/114
f 16/115/115 23/116/116 24/117/117
f 16/118/118 24/119/119 17/120/120
f 28/121/121 30/122/122 31/123/123
f 28/124/124 31/125/125 29/126/126
f 44/127/127 46/128/128 47/129/129
f 44/130/130 47/131/131 45/132/132
f 17/133/133 24/134/134 25/135/135
f 17/136/136 25/137/137 18/138/138
f 64/139/139 66/140/140 67/141/141
f 64/142/142 67/143/143 65/144/144
f 8/145/145 10/146/146 11/147/147
f 8/148/148 11/149/149 9/150/150
f 10/151/151 12/152/152 13/153/153
f 10/154/154 13/155/155 11/156/156
f 26/157/157 28/158/158 29/159/159
f 26/160/160 29/161/161 27/162/162
f 46/163/163 48/164/164 49/165/165
f 46/166/166 49/167/167 47/168/168
f 62/169/169 64/170/170 65/171/171
f 62/172/172 65/173/173 63/174/174
f 53/175/175 60/176/176 61/177/177
f 53/178/178 61/179/179 54/180/180
f 19/181/181 26/182/182 27/183/183
f 19/184/184 27/185/185 20/186/186
f 52/187/187 59/188/188 60/189/189
f 52/190/190 60/191/191 53/192/192
f 51/193/193 58/194/194 59/195/195
f 51/196/196 59/197/197 52/198/198
f 48/199/199 55/200/200 56/201/201
f 48/202/202 56/203/203 49/204/204
f 49/205/205 56/206/206 57/207/207
f 49/208/208 57/209/209 50/210/210
f 50/211/211 57/212/212 58/213/213
f 50/214/214 58/215/215 51/216/216
