v -8.000000 0.000000 -8.000000
v -4.000000 1.000000 -5.000000
v -8.000000 0.000000 8.000000
v -5.000000 1.000000 4.000000
v 4.000000 1.000000 -5.000000
v 5.000000 1.000000 -4.000000
v 8.000000 0.000000 -8.000000
v -5.000000 1.000000 -4.000000
v 8.000000 0.000000 8.000000
v 5.000000 1.000000 4.000000
v 4.000000 1.000000 5.000000
v -4.000000 1.000000 5.000000
vt 0.000000 0.000000
vt 0.000000 0.000000
vt 0.000000 0.000000
vt 0.000000 0.000000
vt 0.000000 0.000000
vt 0.000000 0.000000
vt 0.000000 0.000000
vt 0.000000 0.000000
vt 0.000000 0.000000
vt 0.000000 0.000000
vt 0.000000 0.000000
vt 0.000000 0.000000
vt 0.000000 0.000000
vt 0.000000 0.000000
vt 0.000000 0.000000
vt 0.000000 0.000000
vt 0.000000 0.000000
vt 0.000000 0.000000
vt 0.000000 0.000000
vt 0.000000 0.000000
vt 0.000000 0.000000
vt 0.000000 0.000000
vt 0.000000 0.000000
vt 0.000000 0.000000
vt 0.000000 0.000000
vt 0.000000 0.000000
vt 0.000000 0.000000
vt 0.000000 0.000000
vt 0.000000 0.000000
vt 0.000000 0.000000
vt 0.000000 0.000000
vt 0.000000 0.000000
vt 0.000000 0.000000
vt 0.000000 0.000000
vt 0.000000 0.000000
vt 0.000000 0.000000
vt 0.000000 0.000000
vt 0.000000 0.000000
vt 0.000000 0.000000
vt 0.000000 0.000000
vt 0.000000 0.000000
vt 0.000000 0.000000
vt 0.000000 0.000000
vt 0.000000 0.000000
vt 0.000000 0.000000
vt 0.000000 0.000000
vt 0.000000 0.000000
vt 0.000000 0.000000
vt 0.000000 0.000000
vt 0.000000 0.000000
vt 0.000000 0.000000
vt 0.000000 0.000000
vt 0.000000 0.000000
vt 0.000000 0.000000
vn -0.077163 0.994028 0.077163
vn -0.195257 0.980113 0.035394
vn -0.195257 0.980113 -0.035394
vn -0.077163 0.994028 0.077163
vn -0.195257 0.980113 -0.035394
vn -0.077163 0.994028 -0.077163
vn -0.195257 0.980113 -0.035394
vn -0.035394 0.980113 -0.195257
vn -0.077163 0.994028 -0.077163
vn 0.077163 0.994028 0.077163
vn 0.035394 0.980113 0.195257
vn -0.035394 0.980113 0.195257
vn 0.077163 0.994028 0.077163
vn -0.035394 0.980113 0.195257
vn -0.077163 0.994028 0.077163
vn -0.035394 0.980113 -0.195257
vn -0.195257 0.980113 -0.035394
vn -0.195257 0.980113 0.035394
vn -0.035394 0.980113 -0.195257
vn -0.195257 0.980113 0.035394
vn -0.035394 0.980113 0.195257
vn -0.035394 0.980113 -0.195257
vn -0.035394 0.980113 0.195257
vn 0.035394 0.980113 0.195257
vn -0.035394 0.980113 -0.195257
vn 0.035394 0.980113 0.195257
vn 0.195257 0.980113 0.035394
vn -0.035394 0.980113 -0.195257
vn 0.195257 0.980113 0.035394
vn 0.195257 0.980113 -0.035394
vn -0.035394 0.980113 -0.195257
vn 0.195257 0.980113 -0.035394
vn 0.035394 0.980113 -0.195257
vn -0.035394 0.980113 0.195257
vn -0.195257 0.980113 0.035394
vn -0.077163 0.994028 0.077163
vn 0.077163 0.994028 -0.077163
vn 0.195257 0.980113 -0.035394
vn 0.195257 0.980113 0.035394
vn 0.077163 0.994028 -0.077163
vn 0.195257 0.980113 0.035394
vn 0.077163 0.994028 0.077163
vn 0.195257 0.980113 0.035394
vn 0.035394 0.980113 0.195257
vn 0.077163 0.994028 0.077163
vn -0.077163 0.994028 -0.077163
vn -0.035394 0.980113 -0.195257
vn 0.035394 0.980113 -0.195257
vn -0.077163 0.994028 -0.077163
vn 0.035394 0.980113 -0.195257
vn 0.077163 0.994028 -0.077163
vn 0.035394 0.980113 -0.195257
vn 0.195257 0.980113 -0.035394
vn 0.077163 0.994028 -0.077163
f 3/1/1 4/2/2 8/3/3
f 3/4/4 8/5/5 1/6/6
f 8/7/7 2/8/8 1/9/9
f 9/10/10 11/11/11 12/12/12
f 9/13/13 12/14/14 3/15/15
f 2/16/16 8/17/17 4/18/18
f 2/19/19 4/20/20 12/21/21
f 2/22/22 12/23/23 11/24/24
f 2/25/25 11/26/26 10/27/27
f 2/28/28 10/29/29 6/30/30
f 2/31/31 6/32/32 5/33/33
f 12/34/34 4/35/35 3/36/36
f 7/37/37 6/38/38 10/39/39
f 7/40/40 10/41/41 9/42/42
f 10/43/43 11/44/44 9/45/45
f 1/46/46 2/47/47 5/48/48
f 1/49/49 5/50/50 7/51/51
f 5/52/52 6/53/53 7/54/54
