v 0.357143 8.000000 -0.357143
v -0.357143 8.000000 -0.357143
v -0.357143 0.000000 1.607144
v -0.357143 0.000000 -1.785715
v -0.357143 3.000000 2.500001
v -1.250001 0.000000 -1.607144
v 1.250001 0.000000 -1.607144
v 0.357143 8.000000 0.357143
v 1.428572 3.000000 -1.785715
v -0.357143 8.000000 0.357143
v -1.785715 3.000000 1.428572
v 1.607144 0.000000 1.250001
v -1.428572 3.000000 -1.785715
v 1.785715 3.000000 1.428572
v -1.607144 0.000000 1.250001
v -0.357143 0.000000 1.785715
v 0.357143 0.000000 1.785715
v 0.357143 3.000000 2.500001
v 0.357143 3.000000 1.785715
v 0.357143 0.000000 1.607144
v -0.357143 3.000000 1.785715
v 0.357143 0.000000 -1.785715
v -0.357143 3.000000 -2.500001
v 0.357143 3.000000 -2.500001
v -0.357143 0.000000 -1.607144
v 0.357143 0.000000 -1.607144
v 0.357143 3.000000 -1.785715
v -0.357143 3.000000 -1.785715
v -1.607144 0.000000 -1.250001
v -1.250001 0.000000 1.607144
v 1.250001 0.000000 1.607144
v 1.607144 0.000000 -1.250001
v 1.785715 3.000000 -1.428572
v 1.428572 3.000000 1.785715
v -1.428572 3.000000 1.785715
v -1.785715 3.000000 -1.428572
v -1.785715 0.000000 -1.428572
v -1.785715 0.000000 1.428572
v 1.785715 0.000000 -1.428572
v 1.785715 0.000000 1.428572
v -1.428572 0.000000 1.785715
v -1.428572 0.000000 -1.785715
v 1.428572 0.000000 -1.785715
v 1.428572 0.000000 1.785715
v -2.500001 3.000000 -1.964287
v -2.500001 3.000000 1.964287
v -1.964287 3.000000 2.500001
v 1.964287 3.000000 2.500001
v 2.500001 3.000000 1.964287
v 2.500001 3.000000 -1.964287
v 1.964287 3.000000 -2.500001
v -1.964287 3.000000 -2.500001
v -0.357143 8.999998 0.357143
v 0.357143 8.999998 0.357143
v 0.357143 8.999998 -0.357143
v -0.357143 8.999998 -0.357143
vt 0.000000 0.000000
vt 0.000000 0.000000
vt 0.000000 0.000000
vt 0.000000 0.000000
vt 0.000000 0.000000
vt 0.000000 0.000000
vt 0.000000 0.000000
vt 0.000000 0.000000
vt 0.000000 0.000000
vt 0.000000 0.000000
vt 0.000000 0.000000
vt 0.000000 0.000000
vt 0.000000 0.000000
vt 0.000000 0.000000
vt 0.000000 0.000000
vt 0.000000 0.000000
vt 0.000000 0.000000
vt 0.000000 0.000000
vt 0.000000 0.000000
vt 0.000000 0.000000
vt 0.000000 0.000000
vt 0.000000 0.000000
vt 0.000000 0.000000
vt 0.000000 0.000000
vt 0.000000 0.000000
vt 0.000000 0.000000
vt 0.000000 0.000000
vt 0.000000 0.000000
vt 0.000000 0.000000
vt 0.000000 0.000000
vt 0.000000 0.000000
vt 0.000000 0.000000
vt 0.000000 0.000000
vt 0.000000 0.000000
vt 0.000000 0.000000
vt 0.000000 0.000000
vt 0.000000 0.000000
vt 0.000000 0.000000
vt 0.000000 0.000000
vt 0.000000 0.000000
vt 0.000000 0.000000
vt 0.000000 0.000000
vt 0.000000 0.000000
vt 0.000000 0.000000
vt 0.000000 0.000000
vt 0.000000 0.000000
vt 0.000000 0.000000
vt 0.000000 0.000000
vt 0.000000 0.000000
vt 0.000000 0.000000
vt 0.000000 0.000000
vt 0.000000 0.000000
vt 0.000000 0.000000
vt 0.000000 0.000000
vt 0.000000 0.000000
vt 0.000000 0.000000
vt 0.000000 0.000000
vt 0.000000 0.000000
vt 0.000000 0.000000
vt 0.000000 0.000000
vt 0.000000 0.000000
vt 0.000000 0.000000
vt 0.000000 0.000000
vt 0.000000 0.000000
vt 0.000000 0.000000
vt 0.000000 0.000000
vt 0.000000 0.000000
vt 0.000000 0.000000
vt 0.000000 0.000000
vt 0.000000 0.000000
vt 0.000000 0.000000
vt 0.000000 0.000000
vt 0.000000 0.000000
vt 0.000000 0.000000
vt 0.000000 0.000000
vt 0.000000 0.000000
vt 0.000000 0.000000
vt 0.000000 0.000000
vt 0.000000 0.000000
vt 0.000000 0.000000
vt 0.000000 0.000000
vt 0.000000 0.000000
vt 0.000000 0.000000
vt 0.000000 0.000000
vt 0.000000 0.000000
vt 0.000000 0.000000
vt 0.000000 0.000000
vt 0.000000 0.000000
vt 0.000000 0.000000
vt 0.000000 0.000000
vt 0.000000 0.000000
vt 0.000000 0.000000
vt 0.000000 0.000000
vt 0.000000 0.000000
vt 0.000000 0.000000
vt 0.000000 0.000000
vt 0.000000 0.000000
vt 0.000000 0.000000
vt 0.000000 0.000000
vt 0.000000 0.000000
vt 0.000000 0.000000
vt 0.000000 0.000000
vt 0.000000 0.000000
vt 0.000000 0.000000
vt 0.000000 0.000000
vt 0.000000 0.000000
vt 0.000000 0.000000
vt 0.000000 0.000000
vt 0.000000 0.000000
vt 0.000000 0.000000
vt 0.000000 0.000000
vt 0.000000 0.000000
vt 0.000000 0.000000
vt 0.000000 0.000000
vt 0.000000 0.000000
vt 0.000000 0.000000
vt 0.000000 0.000000
vt 0.000000 0.000000
vt 0.000000 0.000000
vt 0.000000 0.000000
vt 0.000000 0.000000
vt 0.000000 0.000000
vt 0.000000 0.000000
vt 0.000000 0.000000
vt 0.000000 0.000000
vt 0.000000 0.000000
vt 0.000000 0.000000
vt 0.000000 0.000000
vt 0.000000 0.000000
vt 0.000000 0.000000
vt 0.000000 0.000000
vt 0.000000 0.000000
vt 0.000000 0.000000
vt 0.000000 0.000000
vt 0.000000 0.000000
vt 0.000000 0.000000
vt 0.000000 0.000000
vt 0.000000 0.000000
vt 0.000000 0.000000
vt 0.000000 0.000000
vt 0.000000 0.000000
vt 0.000000 0.000000
vt 0.000000 0.000000
vt 0.000000 0.000000
vt 0.000000 0.000000
vt 0.000000 0.000000
vt 0.000000 0.000000
vt 0.000000 0.000000
vt 0.000000 0.000000
vt 0.000000 0.000000
vt 0.000000 0.000000
vt 0.000000 0.000000
vt 0.000000 0.000000
vt 0.000000 0.000000
vt 0.000000 0.000000
vt 0.000000 0.000000
vt 0.000000 0.000000
vt 0.000000 0.000000
vt 0.000000 0.000000
vt 0.000000 0.000000
vt 0.000000 0.000000
vt 0.000000 0.000000
vt 0.000000 0.000000
vt 0.000000 0.000000
vt 0.000000 0.000000
vt 0.000000 0.000000
vt 0.000000 0.000000
vt 0.000000 0.000000
vt 0.000000 0.000000
vt 0.000000 0.000000
vt 0.000000 0.000000
vt 0.000000 0.000000
vt 0.000000 0.000000
vt 0.000000 0.000000
vt 0.000000 0.000000
vt 0.000000 0.000000
vt 0.000000 0.000000
vt 0.000000 0.000000
vt 0.000000 0.000000
vt 0.000000 0.000000
vt 0.000000 0.000000
vt 0.000000 0.000000
vt 0.000000 0.000000
vt 0.000000 0.000000
vt 0.000000 0.000000
vt 0.000000 0.000000
vt 0.000000 0.000000
vt 0.000000 0.000000
vt 0.000000 0.000000
vt 0.000000 0.000000
vt 0.000000 0.000000
vt 0.000000 0.000000
vt 0.000000 0.000000
vt 0.000000 0.000000
vt 0.000000 0.000000
vt 0.000000 0.000000
vt 0.000000 0.000000
vt 0.000000 0.000000
vt 0.000000 0.000000
vt 0.000000 0.000000
vt 0.000000 0.000000
vt 0.000000 0.000000
vt 0.000000 0.000000
vt 0.000000 0.000000
vt 0.000000 0.000000
vt 0.000000 0.000000
vt 0.000000 0.000000
vt 0.000000 0.000000
vt 0.000000 0.000000
vt 0.000000 0.000000
vt 0.000000 0.000000
vt 0.000000 0.000000
vt 0.000000 0.000000
vt 0.000000 0.000000
vt 0.000000 0.000000
vt 0.000000 0.000000
vt 0.000000 0.000000
vt 0.000000 0.000000
vt 0.000000 0.000000
vt 0.000000 0.000000
vt 0.000000 0.000000
vt 0.000000 0.000000
vt 0.000000 0.000000
vt 0.000000 0.000000
vt 0.000000 0.000000
vt 0.000000 0.000000
vt 0.000000 0.000000
vt 0.000000 0.000000
vn 0.000000 -1.000000 0.000000
vn 0.000000 -1.000000 0.000000
vn 0.000000 -1.000000 0.000000
vn 0.000000 -1.000000 0.000000
vn 0.000000 -1.000000 0.000000
vn 0.000000 -1.000000 0.000000
vn 1.000000 0.000000 0.000000
vn 1.000000 0.000000 0.000000
vn 1.000000 0.000000 0.000000
vn 1.000000 0.000000 0.000000
vn 1.000000 0.000000 0.000000
vn 1.000000 0.000000 0.000000
vn -1.000000 0.000000 0.000000
vn -1.000000 0.000000 0.000000
vn -1.000000 0.000000 0.000000
vn -1.000000 0.000000 0.000000
vn -1.000000 0.000000 0.000000
vn -1.000000 0.000000 0.000000
vn 0.571707 -0.251789 0.780867
vn 0.571707 -0.251789 -0.780867
vn 0.917108 -0.127957 -0.377544
vn 0.571707 -0.251789 0.780867
vn 0.917108 -0.127957 -0.377544
vn 0.917108 -0.127957 0.377544
vn 0.377544 -0.127957 0.917108
vn 0.000000 -0.165432 0.986221
vn 0.571707 -0.251789 0.780867
vn -0.377544 -0.127957 -0.917108
vn 0.000000 -0.165432 -0.986221
vn -0.571707 -0.251789 -0.780867
vn 1.000000 0.000000 0.000000
vn 1.000000 0.000000 0.000000
vn 1.000000 0.000000 0.000000
vn 1.000000 0.000000 0.000000
vn 1.000000 0.000000 0.000000
vn 1.000000 0.000000 0.000000
vn -1.000000 0.000000 0.000000
vn -1.000000 0.000000 0.000000
vn -1.000000 0.000000 0.000000
vn -1.000000 0.000000 0.000000
vn -1.000000 0.000000 0.000000
vn -1.000000 0.000000 0.000000
vn -0.571707 -0.251789 -0.780867
vn 0.000000 -0.165432 -0.986221
vn 0.000000 -0.165432 -0.986221
vn -0.571707 -0.251789 -0.780867
vn 0.000000 -0.165432 -0.986221
vn 0.571707 -0.251789 -0.780867
vn 0.571707 -0.251789 -0.780867
vn 0.000000 -0.165432 -0.986221
vn 0.377544 -0.127957 -0.917108
vn -0.377544 -0.127957 -0.917108
vn -0.917108 -0.127957 -0.377544
vn -0.921238 0.077526 -0.381196
vn -0.377544 -0.127957 -0.917108
vn -0.921238 0.077526 -0.381196
vn -0.381196 0.077526 -0.921238
vn 0.000000 -0.165432 0.986221
vn 0.000000 0.059419 0.998233
vn -0.381196 0.077526 0.921238
vn 0.000000 -0.165432 0.986221
vn -0.381196 0.077526 0.921238
vn -0.377544 -0.127957 0.917108
vn 0.000000 0.059419 0.998233
vn 0.000000 -0.165432 0.986221
vn 0.377544 -0.127957 0.917108
vn 0.000000 0.059419 0.998233
vn 0.377544 -0.127957 0.917108
vn 0.381196 0.077526 0.921238
vn -0.571707 -0.251789 0.780867
vn 0.000000 -0.165432 0.986221
vn -0.377544 -0.127957 0.917108
vn 0.921238 0.077526 0.381196
vn 0.381196 0.077526 0.921238
vn 0.377544 -0.127957 0.917108
vn 0.921238 0.077526 0.381196
vn 0.377544 -0.127957 0.917108
vn 0.917108 -0.127957 0.377544
vn 0.571707 -0.251789 0.780867
vn 0.000000 -0.165432 0.986221
vn 0.000000 -0.165432 0.986221
vn 0.571707 -0.251789 0.780867
vn 0.000000 -0.165432 0.986221
vn -0.571707 -0.251789 0.780867
vn -0.917108 -0.127957 0.377544
vn -0.377544 -0.127957 0.917108
vn -0.381196 0.077526 0.921238
vn -0.917108 -0.127957 0.377544
vn -0.381196 0.077526 0.921238
vn -0.921238 0.077526 0.381196
vn 0.381196 0.077526 -0.921238
vn 0.921238 0.077526 -0.381196
vn 0.917108 -0.127957 -0.377544
vn 0.381196 0.077526 -0.921238
vn 0.917108 -0.127957 -0.377544
vn 0.377544 -0.127957 -0.917108
vn 0.000000 -1.000000 0.000000
vn 0.000000 -1.000000 0.000000
vn 0.000000 -1.000000 0.000000
vn 0.000000 -1.000000 0.000000
vn 0.000000 -1.000000 0.000000
vn 0.000000 -1.000000 0.000000
vn -0.917108 -0.127957 0.377544
vn -0.917108 -0.127957 -0.377544
vn -0.571707 -0.251789 -0.780867
vn -0.917108 -0.127957 0.377544
vn -0.571707 -0.251789 -0.780867
vn -0.571707 -0.251789 0.780867
vn 0.888839 -0.276833 -0.365142
vn 0.888839 -0.276833 0.365142
vn 0.888839 -0.276833 0.365142
vn 0.888839 -0.276833 -0.365142
vn 0.888839 -0.276833 0.365142
vn 0.888839 -0.276833 -0.365142
vn 0.917108 -0.127957 0.377544
vn 0.917108 -0.127957 -0.377544
vn 0.921238 0.077526 -0.381196
vn 0.917108 -0.127957 0.377544
vn 0.921238 0.077526 -0.381196
vn 0.921238 0.077526 0.381196
vn 0.377544 -0.127957 -0.917108
vn 0.000000 -0.165432 -0.986221
vn 0.000000 0.059419 -0.998233
vn 0.377544 -0.127957 -0.917108
vn 0.000000 0.059419 -0.998233
vn 0.381196 0.077526 -0.921238
vn -0.381196 0.077526 -0.921238
vn 0.000000 0.059419 -0.998233
vn 0.000000 -0.165432 -0.986221
vn -0.381196 0.077526 -0.921238
vn 0.000000 -0.165432 -0.986221
vn -0.377544 -0.127957 -0.917108
vn -0.921238 0.077526 0.381196
vn -0.921238 0.077526 -0.381196
vn -0.917108 -0.127957 -0.377544
vn -0.921238 0.077526 0.381196
vn -0.917108 -0.127957 -0.377544
vn -0.917108 -0.127957 0.377544
vn 0.917108 -0.127957 0.377544
vn 0.377544 -0.127957 0.917108
vn 0.571707 -0.251789 0.780867
vn -0.571707 -0.251789 0.780867
vn -0.377544 -0.127957 0.917108
vn -0.917108 -0.127957 0.377544
vn -0.571707 -0.251789 -0.780867
vn -0.917108 -0.127957 -0.377544
vn -0.377544 -0.127957 -0.917108
vn 0.377544 -0.127957 -0.917108
vn 0.917108 -0.127957 -0.377544
vn 0.571707 -0.251789 -0.780867
vn 0.365142 -0.276833 -0.888839
vn 0.888839 -0.276833 -0.365142
vn 0.888839 -0.276833 -0.365142
vn 0.365142 -0.276833 -0.888839
vn 0.888839 -0.276833 -0.365142
vn 0.365142 -0.276833 -0.888839
vn -0.365142 -0.276833 -0.888839
vn 0.000000 -0.231621 -0.972806
vn 0.000000 -0.231621 -0.972806
vn -0.365142 -0.276833 -0.888839
vn 0.000000 -0.231621 -0.972806
vn -0.365142 -0.276833 -0.888839
vn -0.365142 -0.276833 0.888839
vn 0.000000 -0.231621 0.972806
vn 0.000000 -0.231621 0.972806
vn -0.365142 -0.276833 0.888839
vn 0.000000 -0.231621 0.972806
vn -0.365142 -0.276833 0.888839
vn 0.365142 -0.276833 0.888839
vn 0.000000 -0.231621 0.972806
vn 0.000000 -0.231621 0.972806
vn 0.365142 -0.276833 0.888839
vn 0.000000 -0.231621 0.972806
vn 0.365142 -0.276833 0.888839
vn 0.888839 -0.276833 0.365142
vn 0.365142 -0.276833 0.888839
vn 0.365142 -0.276833 0.888839
vn 0.888839 -0.276833 0.365142
vn 0.365142 -0.276833 0.888839
vn 0.888839 -0.276833 0.365142
vn -0.365142 -0.276833 0.888839
vn -0.888839 -0.276833 0.365142
vn -0.888839 -0.276833 0.365142
vn -0.365142 -0.276833 0.888839
vn -0.888839 -0.276833 0.365142
vn -0.365142 -0.276833 0.888839
vn -0.888839 -0.276833 -0.365142
vn -0.888839 -0.276833 0.365142
vn -0.888839 -0.276833 0.365142
vn -0.888839 -0.276833 -0.365142
vn -0.888839 -0.276833 0.365142
vn -0.888839 -0.276833 -0.365142
vn -0.365142 -0.276833 -0.888839
vn -0.888839 -0.276833 -0.365142
vn -0.888839 -0.276833 -0.365142
vn -0.365142 -0.276833 -0.888839
vn -0.888839 -0.276833 -0.365142
vn -0.365142 -0.276833 -0.888839
vn 0.365142 -0.276833 -0.888839
vn 0.000000 -0.231621 -0.972806
vn 0.000000 -0.231621 -0.972806
vn 0.365142 -0.276833 -0.888839
vn 0.000000 -0.231621 -0.972806
vn 0.365142 -0.276833 -0.888839
vn -0.571707 -0.251789 -0.780867
vn 0.571707 -0.251789 -0.780867
vn 0.000000 0.000000 -1.000000
vn -0.571707 -0.251789 -0.780867
vn 0.000000 0.000000 -1.000000
vn 0.000000 0.000000 -1.000000
vn -0.571707 -0.251789 0.780867
vn -0.571707 -0.251789 -0.780867
vn -1.000000 0.000000 0.000000
vn -0.571707 -0.251789 0.780867
vn -1.000000 0.000000 0.000000
vn -1.000000 0.000000 0.000000
vn 0.571707 -0.251789 0.780867
vn -0.571707 -0.251789 0.780867
vn 0.000000 0.000000 1.000000
vn 0.571707 -0.251789 0.780867
vn 0.000000 0.000000 1.000000
vn 0.000000 0.000000 1.000000
vn 0.571707 -0.251789 -0.780867
vn 0.571707 -0.251789 0.780867
vn 1.000000 0.000000 0.000000
vn 0.571707 -0.251789 -0.780867
vn 1.000000 0.000000 0.000000
vn 1.000000 0.000000 0.000000
f 24/1/1 27/2/2 28/3/3
f 24/4/4 28/5/5 23/6/6
f 25/7/7 4/8/8 23/9/9
f 25/10/10 23/11/11 28/12/12
f 27/13/13 24/14/14 22/15/15
f 27/16/16 22/17/17 26/18/18
f 2/19/19 10/20/20 11/21/21
f 2/22/22 11/23/23 36/24/24
f 13/25/25 28/26/26 2/27/27
f 34/28/28 19/29/29 8/30/30
f 5/31/31 16/32/32 3/33/33
f 5/34/34 3/35/35 21/36/36
f 17/37/37 18/38/38 19/39/39
f 17/40/40 19/41/41 20/42/42
f 8/43/43 19/44/44 21/45/45
f 8/46/46 21/47/47 10/48/48
f 10/49/49 21/50/50 35/51/51
f 34/52/52 14/53/53 12/54/54
f 34/55/55 12/56/56 31/57/57
f 27/58/58 26/59/59 7/60/60
f 27/61/61 7/62/62 9/63/63
f 25/64/64 28/65/65 13/66/66
f 25/67/67 13/68/68 6/69/69
f 1/70/70 27/71/71 9/72/72
f 29/73/73 6/74/74 13/75/75
f 29/76/76 13/77/77 36/78/78
f 2/79/79 28/80/80 27/81/81
f 2/82/82 27/83/83 1/84/84
f 33/85/85 9/86/86 7/87/87
f 33/88/88 7/89/89 32/90/90
f 30/91/91 15/92/92 11/93/93
f 30/94/94 11/95/95 35/96/96
f 18/97/97 5/98/98 21/99/99
f 18/100/100 21/101/101 19/102/102
f 33/103/103 14/104/104 8/105/105
f 33/106/106 8/107/107 1/108/108
f 50/109/109 49/110/110 40/111/111
f 50/112/112 40/113/113 39/114/114
f 36/115/115 11/116/116 15/117/117
f 36/118/118 15/119/119 29/120/120
f 35/121/121 21/122/122 3/123/123
f 35/124/124 3/125/125 30/126/126
f 31/127/127 20/128/128 19/129/129
f 31/130/130 19/131/131 34/132/132
f 32/133/133 12/134/134 14/135/135
f 32/136/136 14/137/137 33/138/138
f 36/139/139 13/140/140 2/141/141
f 1/142/142 9/143/143 33/144/144
f 8/145/145 14/146/146 34/147/147
f 35/148/148 11/149/149 10/150/150
f 51/151/151 50/152/152 39/153/153
f 51/154/154 39/155/155 43/156/156
f 52/157/157 23/158/158 4/159/159
f 52/160/160 4/161/161 42/162/162
f 41/163/163 16/164/164 5/165/165
f 41/166/166 5/167/167 47/168/168
f 48/169/169 18/170/170 17/171/171
f 48/172/172 17/173/173 44/174/174
f 49/175/175 48/176/176 44/177/177
f 49/178/178 44/179/179 40/180/180
f 47/181/181 46/182/182 38/183/183
f 47/184/184 38/185/185 41/186/186
f 37/187/187 38/188/188 46/189/189
f 37/190/190 46/191/191 45/192/192
f 42/193/193 37/194/194 45/195/195
f 42/196/196 45/197/197 52/198/198
f 43/199/199 22/200/200 24/201/201
f 43/202/202 24/203/203 51/204/204
f 8/205/205 10/206/206 53/207/207
f 8/208/208 53/209/209 54/210/210
f 1/211/211 8/212/212 54/213/213
f 1/214/214 54/215/215 55/216/216
f 2/217/217 1/218/218 55/219/219
f 2/220/220 55/221/221 56/222/222
f 10/223/223 2/224/224 56/225/225
f 10/226/226 56/227/227 53/228/228
