v -4.000000 1.000000 -4.000000
v 0.000000 2.000000 2.000000
v 4.000000 1.000000 4.000000
v 2.000000 2.000000 0.000000
v 0.000000 1.000000 -3.000000
v 0.000000 2.000000 -2.000000
v 3.000000 1.000000 0.000000
v -2.000000 2.000000 0.000000
v 4.000000 1.000000 -4.000000
v -4.000000 1.000000 4.000000
v -3.000000 1.000000 0.000000
v 0.000000 1.000000 3.000000
v 0.000000 3.000000 -1.000000
v -1.000000 3.000000 0.000000
v 0.000000 3.000000 1.000000
v 1.000000 3.000000 0.000000
vt 0.000000 0.000000
vt 0.000000 0.000000
vt 0.000000 0.000000
vt 0.000000 0.000000
vt 0.000000 0.000000
vt 0.000000 0.000000
vt 0.000000 0.000000
vt 0.000000 0.000000
vt 0.000000 0.000000
vt 0.000000 0.000000
vt 0.000000 0.000000
vt 0.000000 0.000000
vt 0.000000 0.000000
vt 0.000000 0.000000
vt 0.000000 0.000000
vt 0.000000 0.000000
vt 0.000000 0.000000
vt 0.000000 0.000000
vt 0.000000 0.000000
vt 0.000000 0.000000
vt 0.000000 0.000000
vt 0.000000 0.000000
vt 0.000000 0.000000
vt 0.000000 0.000000
vt 0.000000 0.000000
vt 0.000000 0.000000
vt 0.000000 0.000000
vt 0.000000 0.000000
vt 0.000000 0.000000
vt 0.000000 0.000000
vt 0.000000 0.000000
vt 0.000000 0.000000
vt 0.000000 0.000000
vt 0.000000 0.000000
vt 0.000000 0.000000
vt 0.000000 0.000000
vt 0.000000 0.000000
vt 0.000000 0.000000
vt 0.000000 0.000000
vt 0.000000 0.000000
vt 0.000000 0.000000
vt 0.000000 0.000000
vt 0.000000 0.000000
vt 0.000000 0.000000
vt 0.000000 0.000000
vt 0.000000 0.000000
vt 0.000000 0.000000
vt 0.000000 0.000000
vt 0.000000 0.000000
vt 0.000000 0.000000
vt 0.000000 0.000000
vt 0.000000 0.000000
vt 0.000000 0.000000
vt 0.000000 0.000000
vt 0.000000 0.000000
vt 0.000000 0.000000
vt 0.000000 0.000000
vt 0.000000 0.000000
vt 0.000000 0.000000
vt 0.000000 0.000000
vt 0.000000 0.000000
vt 0.000000 0.000000
vt 0.000000 0.000000
vt 0.000000 0.000000
vt 0.000000 0.000000
vt 0.000000 0.000000
vn 0.577350 0.577350 -0.577350
vn 0.577350 0.577350 -0.577350
vn 0.577350 0.577350 -0.577350
vn 0.577350 0.577350 -0.577350
vn 0.577350 0.577350 -0.577350
vn 0.577350 0.577350 -0.577350
vn 0.577350 0.577350 0.577350
vn 0.577350 0.577350 0.577350
vn 0.577350 0.577350 0.577350
vn 0.577350 0.577350 0.577350
vn 0.577350 0.577350 0.577350
vn 0.577350 0.577350 0.577350
vn -0.577350 0.577350 0.577350
vn -0.577350 0.577350 0.577350
vn -0.577350 0.577350 0.577350
vn -0.577350 0.577350 0.577350
vn -0.577350 0.577350 0.577350
vn -0.577350 0.577350 0.577350
vn -0.577350 0.577350 -0.577350
vn -0.577350 0.577350 -0.577350
vn -0.577350 0.577350 -0.577350
vn -0.577350 0.577350 -0.577350
vn -0.577350 0.577350 -0.577350
vn -0.577350 0.577350 -0.577350
vn 0.174078 0.696311 0.696311
vn 0.000000 0.707107 0.707107
vn 0.000000 0.707107 0.707107
vn 0.162221 0.973329 0.162221
vn 0.162221 0.973329 0.162221
vn 0.162221 0.973329 0.162221
vn 0.000000 1.000000 0.000000
vn 0.000000 1.000000 0.000000
vn 0.000000 1.000000 0.000000
vn 0.000000 1.000000 0.000000
vn 0.000000 1.000000 0.000000
vn 0.000000 1.000000 0.000000
vn 0.696311 0.696311 -0.174078
vn 0.707107 0.707107 0.000000
vn 0.707107 0.707107 0.000000
vn -0.162221 0.973329 0.162221
vn -0.162221 0.973329 0.162221
vn -0.162221 0.973329 0.162221
vn 0.000000 0.707107 -0.707107
vn 0.000000 0.707107 -0.707107
vn 0.174078 0.696311 -0.696311
vn 0.000000 0.707107 -0.707107
vn 0.000000 0.707107 -0.707107
vn -0.174078 0.696311 -0.696311
vn -0.707107 0.707107 0.000000
vn -0.707107 0.707107 0.000000
vn -0.696311 0.696311 0.174078
vn -0.174078 0.696311 0.696311
vn 0.000000 0.707107 0.707107
vn 0.000000 0.707107 0.707107
vn -0.696311 0.696311 -0.174078
vn -0.707107 0.707107 0.000000
vn -0.707107 0.707107 0.000000
vn 0.162221 0.973329 -0.162221
vn 0.162221 0.973329 -0.162221
vn 0.162221 0.973329 -0.162221
vn -0.162221 0.973329 -0.162221
vn -0.162221 0.973329 -0.162221
vn -0.162221 0.973329 -0.162221
vn 0.707107 0.707107 0.000000
vn 0.707107 0.707107 0.000000
vn 0.696311 0.696311 0.174078
f 4/1/1 6/2/2 13/3/3
f 4/4/4 13/5/5 16/6/6
f 2/7/7 4/8/8 16/9/9
f 2/10/10 16/11/11 15/12/12
f 8/13/13 2/14/14 15/15/15
f 8/16/16 15/17/17 14/18/18
f 6/19/19 8/20/20 14/21/21
f 6/22/22 14/23/23 13/24/24
f 10/25/25 12/26/26 2/27/27
f 4/28/28 2/29/29 3/30/30
f 15/31/31 16/32/32 13/33/33
f 15/34/34 13/35/35 14/36/36
f 3/37/37 7/38/38 4/39/39
f 2/40/40 8/41/41 10/42/42
f 6/43/43 5/44/44 1/45/45
f 5/46/46 6/47/47 9/48/48
f 11/49/49 8/50/50 1/51/51
f 3/52/52 2/53/53 12/54/54
f 10/55/55 8/56/56 11/57/57
f 9/58/58 6/59/59 4/60/60
f 1/61/61 8/62/62 6/63/63
f 4/64/64 7/65/65 9/66/66
