v 0.000000 6.000000 0.000000
v -0.150000 4.050000 0.000000
v 0.150000 4.050000 -0.000000
v 0.000000 4.050000 0.150000
v 0.000000 4.050000 -0.150000
v 0.000000 0.000000 0.000000
vt 0.000000 0.000000
vt 0.000000 0.000000
vt 0.000000 0.000000
vt 0.000000 0.000000
vt 0.000000 0.000000
vt 0.000000 0.000000
vt 0.000000 0.000000
vt 0.000000 0.000000
vt 0.000000 0.000000
vt 0.000000 0.000000
vt 0.000000 0.000000
vt 0.000000 0.000000
vt 0.000000 0.000000
vt 0.000000 0.000000
vt 0.000000 0.000000
vt 0.000000 0.000000
vt 0.000000 0.000000
vt 0.000000 0.000000
vt 0.000000 0.000000
vt 0.000000 0.000000
vt 0.000000 0.000000
vt 0.000000 0.000000
vt 0.000000 0.000000
vt 0.000000 0.000000
vn 0.707037 0.014078 0.707037
vn 0.707037 0.014078 0.707037
vn 0.706063 0.054313 0.706063
vn 0.707037 0.014078 -0.707037
vn 0.707037 0.014078 -0.707037
vn 0.706063 0.054313 -0.706063
vn -0.707037 0.014078 -0.707037
vn -0.707037 0.014078 -0.707037
vn -0.706063 0.054313 -0.706063
vn -0.706063 0.054313 0.706063
vn -0.706063 0.054313 0.706063
vn -0.706063 0.054313 0.706063
vn 0.706864 -0.026180 0.706864
vn 0.707037 0.014078 0.707037
vn 0.707037 0.014078 0.707037
vn -0.706864 -0.026180 -0.706864
vn -0.707037 0.014078 -0.707037
vn -0.707037 0.014078 -0.707037
vn -0.706864 -0.026180 0.706864
vn -0.706864 -0.026180 0.706864
vn -0.706864 -0.026180 0.706864
vn 0.706864 -0.026180 -0.706864
vn 0.707037 0.014078 -0.707037
vn 0.707037 0.014078 -0.707037
f 4/1/1 3/2/2 1/3/3
f 3/4/4 5/5/5 1/6/6
f 5/7/7 2/8/8 1/9/9
f 2/10/10 4/11/11 1/12/12
f 6/13/13 3/14/14 4/15/15
f 6/16/16 2/17/17 5/18/18
f 6/19/19 4/20/20 2/21/21
f 6/22/22 5/23/23 3/24/24
