v -14.844963 0.000000 -14.844963
v -16.000000 0.000000 -8.000000
v -16.000000 0.000000 0.000000
v -16.000000 0.000000 8.000000
v -14.844963 0.000000 14.844963
v -8.000000 0.000000 -16.000000
v -8.000000 0.500000 -8.000000
v -8.000000 0.500000 0.000000
v -8.000000 0.500000 8.000000
v -8.000000 0.000000 16.000000
v 0.000000 0.000000 -16.000000
v 0.000000 0.500000 -8.000000
v 0.000000 0.500000 0.000000
v 0.000000 0.500000 8.000000
v 0.000000 0.000000 16.000000
v 8.000000 0.000000 -16.000000
v 8.000000 0.500000 -8.000000
v 8.000000 0.500000 0.000000
v 8.000000 0.500000 8.000000
v 8.000000 0.000000 16.000000
v 14.844963 0.000000 -14.844963
v 16.000000 0.000000 -8.000000
v 16.000000 0.000000 0.000000
v 16.000000 0.000000 8.000000
v 14.844963 0.000000 14.844963
v -16.000000 0.000000 -12.000000
v -12.000000 0.000000 -16.000000
v 12.000000 0.000000 -16.000000
v 16.000000 0.000000 -12.000000
v 16.000000 0.000000 12.000000
v 12.000000 0.000000 16.000000
v -12.000000 0.000000 16.000000
v -16.000000 0.000000 12.000000
v -14.844963 0.499765 -14.844963
v -16.000000 0.500000 -12.000000
v -16.000000 0.500000 -8.000000
v -12.000000 0.500000 -16.000000
v -8.000000 0.500000 -16.000000
v 16.000000 0.500000 -8.000000
v 16.000000 0.500000 -12.000000
v 8.000000 0.500000 16.000000
v 12.000000 0.500000 16.000000
v -16.000000 0.500000 8.000000
v -16.000000 0.500000 12.000000
v -12.000000 0.500000 16.000000
v -8.000000 0.500000 16.000000
v 14.844963 0.499765 14.844963
v 16.000000 0.500000 12.000000
v 14.844963 0.499765 -14.844963
v 12.000000 0.500000 -16.000000
v -14.844963 0.499765 14.844963
v 16.000000 0.500000 8.000000
v 16.000000 0.500000 0.000000
v 0.000000 0.500000 16.000000
v 8.000000 0.500000 -16.000000
v 0.000000 0.500000 -16.000000
v -16.000000 0.500000 0.000000
v 13.587521 0.499923 15.627687
v 13.587521 0.000000 15.627687
v 15.627687 0.000000 13.587521
v 15.627687 0.500104 13.587521
v 15.627687 0.500104 -13.587521
v 15.627687 0.000000 -13.587521
v 13.587521 0.000000 -15.627687
v 13.587521 0.499923 -15.627687
v -13.587521 0.499923 -15.627687
v -13.587521 0.000000 -15.627687
v -15.627687 0.000000 -13.587521
v -15.627687 0.500104 -13.587521
v -15.627687 0.500104 13.587521
v -15.627687 0.000000 13.587521
v -13.587521 0.000000 15.627687
v -13.587521 0.499923 15.627687
vt 0.000000 0.000000
vt 0.000000 0.000000
vt 0.000000 0.000000
vt 0.000000 0.000000
vt 0.000000 0.000000
vt 0.000000 0.000000
vt 0.000000 0.000000
vt 0.000000 0.000000
vt 0.000000 0.000000
vt 0.000000 0.000000
vt 0.000000 0.000000
vt 0.000000 0.000000
vt 0.000000 0.000000
vt 0.000000 0.000000
vt 0.000000 0.000000
vt 0.000000 0.000000
vt 0.000000 0.000000
vt 0.000000 0.000000
vt 0.000000 0.000000
vt 0.000000 0.000000
vt 0.000000 0.000000
vt 0.000000 0.000000
vt 0.000000 0.000000
vt 0.000000 0.000000
vt 0.000000 0.000000
vt 0.000000 0.000000
vt 0.000000 0.000000
vt 0.000000 0.000000
vt 0.000000 0.000000
vt 0.000000 0.000000
vt 0.000000 0.000000
vt 0.000000 0.000000
vt 0.000000 0.000000
vt 0.000000 0.000000
vt 0.000000 0.000000
vt 0.000000 0.000000
vt 0.000000 0.000000
vt 0.000000 0.000000
vt 0.000000 0.000000
vt 0.000000 0.000000
vt 0.000000 0.000000
vt 0.000000 0.000000
vt 0.000000 0.000000
vt 0.000000 0.000000
vt 0.000000 0.000000
vt 0.000000 0.000000
vt 0.000000 0.000000
vt 0.000000 0.000000
vt 0.000000 0.000000
vt 0.000000 0.000000
vt 0.000000 0.000000
vt 0.000000 0.000000
vt 0.000000 0.000000
vt 0.000000 0.000000
vt 0.000000 0.000000
vt 0.000000 0.000000
vt 0.000000 0.000000
vt 0.000000 0.000000
vt 0.000000 0.000000
vt 0.000000 0.000000
vt 0.000000 0.000000
vt 0.000000 0.000000
vt 0.000000 0.000000
vt 0.000000 0.000000
vt 0.000000 0.000000
vt 0.000000 0.000000
vt 0.000000 0.000000
vt 0.000000 0.000000
vt 0.000000 0.000000
vt 0.000000 0.000000
vt 0.000000 0.000000
vt 0.000000 0.000000
vt 0.000000 0.000000
vt 0.000000 0.000000
vt 0.000000 0.000000
vt 0.000000 0.000000
vt 0.000000 0.000000
vt 0.000000 0.000000
vt 0.000000 0.000000
vt 0.000000 0.000000
vt 0.000000 0.000000
vt 0.000000 0.000000
vt 0.000000 0.000000
vt 0.000000 0.000000
vt 0.000000 0.000000
vt 0.000000 0.000000
vt 0.000000 0.000000
vt 0.000000 0.000000
vt 0.000000 0.000000
vt 0.000000 0.000000
vt 0.000000 0.000000
vt 0.000000 0.000000
vt 0.000000 0.000000
vt 0.000000 0.000000
vt 0.000000 0.000000
vt 0.000000 0.000000
vt 0.000000 0.000000
vt 0.000000 0.000000
vt 0.000000 0.000000
vt 0.000000 0.000000
vt 0.000000 0.000000
vt 0.000000 0.000000
vt 0.000000 0.000000
vt 0.000000 0.000000
vt 0.000000 0.000000
vt 0.000000 0.000000
vt 0.000000 0.000000
vt 0.000000 0.000000
vt 0.000000 0.000000
vt 0.000000 0.000000
vt 0.000000 0.000000
vt 0.000000 0.000000
vt 0.000000 0.000000
vt 0.000000 0.000000
vt 0.000000 0.000000
vt 0.000000 0.000000
vt 0.000000 0.000000
vt 0.000000 0.000000
vt 0.000000 0.000000
vt 0.000000 0.000000
vt 0.000000 0.000000
vt 0.000000 0.000000
vt 0.000000 0.000000
vt 0.000000 0.000000
vt 0.000000 0.000000
vt 0.000000 0.000000
vt 0.000000 0.000000
vt 0.000000 0.000000
vt 0.000000 0.000000
vt 0.000000 0.000000
vt 0.000000 0.000000
vt 0.000000 0.000000
vt 0.000000 0.000000
vt 0.000000 0.000000
vt 0.000000 0.000000
vt 0.000000 0.000000
vt 0.000000 0.000000
vt 0.000000 0.000000
vt 0.000000 0.000000
vt 0.000000 0.000000
vt 0.000000 0.000000
vt 0.000000 0.000000
vt 0.000000 0.000000
vt 0.000000 0.000000
vt 0.000000 0.000000
vt 0.000000 0.000000
vt 0.000000 0.000000
vt 0.000000 0.000000
vt 0.000000 0.000000
vt 0.000000 0.000000
vt 0.000000 0.000000
vt 0.000000 0.000000
vt 0.000000 0.000000
vt 0.000000 0.000000
vt 0.000000 0.000000
vt 0.000000 0.000000
vt 0.000000 0.000000
vt 0.000000 0.000000
vt 0.000000 0.000000
vt 0.000000 0.000000
vt 0.000000 0.000000
vt 0.000000 0.000000
vt 0.000000 0.000000
vt 0.000000 0.000000
vt 0.000000 0.000000
vt 0.000000 0.000000
vt 0.000000 0.000000
vt 0.000000 0.000000
vt 0.000000 0.000000
vt 0.000000 0.000000
vt 0.000000 0.000000
vt 0.000000 0.000000
vt 0.000000 0.000000
vt 0.000000 0.000000
vt 0.000000 0.000000
vt 0.000000 0.000000
vt 0.000000 0.000000
vt 0.000000 0.000000
vt 0.000000 0.000000
vt 0.000000 0.000000
vt 0.000000 0.000000
vt 0.000000 0.000000
vt 0.000000 0.000000
vt 0.000000 0.000000
vt 0.000000 0.000000
vt 0.000000 0.000000
vt 0.000000 0.000000
vt 0.000000 0.000000
vt 0.000000 0.000000
vt 0.000000 0.000000
vt 0.000000 0.000000
vt 0.000000 0.000000
vt 0.000000 0.000000
vt 0.000000 0.000000
vt 0.000000 0.000000
vt 0.000000 0.000000
vt 0.000000 0.000000
vt 0.000000 0.000000
vt 0.000000 0.000000
vt 0.000000 0.000000
vt 0.000000 0.000000
vt 0.000000 0.000000
vt 0.000000 0.000000
vt 0.000000 0.000000
vt 0.000000 0.000000
vt 0.000000 0.000000
vt 0.000000 0.000000
vt 0.000000 0.000000
vt 0.000000 0.000000
vt 0.000000 0.000000
vt 0.000000 0.000000
vt 0.000000 0.000000
vt 0.000000 0.000000
vt 0.000000 0.000000
vt 0.000000 0.000000
vt 0.000000 0.000000
vt 0.000000 0.000000
vt 0.000000 0.000000
vt 0.000000 0.000000
vt 0.000000 0.000000
vt 0.000000 0.000000
vt 0.000000 0.000000
vt 0.000000 0.000000
vt 0.000000 0.000000
vt 0.000000 0.000000
vt 0.000000 0.000000
vt 0.000000 0.000000
vt 0.000000 0.000000
vt 0.000000 0.000000
vt 0.000000 0.000000
vt 0.000000 0.000000
vt 0.000000 0.000000
vt 0.000000 0.000000
vt 0.000000 0.000000
vt 0.000000 0.000000
vt 0.000000 0.000000
vt 0.000000 0.000000
vt 0.000000 0.000000
vt 0.000000 0.000000
vt 0.000000 0.000000
vt 0.000000 0.000000
vt 0.000000 0.000000
vt 0.000000 0.000000
vt 0.000000 0.000000
vt 0.000000 0.000000
vt 0.000000 0.000000
vt 0.000000 0.000000
vt 0.000000 0.000000
vt 0.000000 0.000000
vt 0.000000 0.000000
vt 0.000000 0.000000
vt 0.000000 0.000000
vt 0.000000 0.000000
vt 0.000000 0.000000
vt 0.000000 0.000000
vt 0.000000 0.000000
vt 0.000000 0.000000
vt 0.000000 0.000000
vt 0.000000 0.000000
vt 0.000000 0.000000
vt 0.000000 0.000000
vt 0.000000 0.000000
vt 0.000000 0.000000
vt 0.000000 0.000000
vt 0.000000 0.000000
vt 0.000000 0.000000
vt 0.000000 0.000000
vt 0.000000 0.000000
vt 0.000000 0.000000
vt 0.000000 0.000000
vt 0.000000 0.000000
vt 0.000000 0.000000
vt 0.000000 0.000000
vt 0.000000 0.000000
vt 0.000000 0.000000
vt 0.000000 0.000000
vt 0.000000 0.000000
vt 0.000000 0.000000
vt 0.000000 0.000000
vt 0.000000 0.000000
vt 0.000000 0.000000
vt 0.000000 0.000000
vt 0.000000 0.000000
vt 0.000000 0.000000
vt 0.000000 0.000000
vt 0.000000 0.000000
vt 0.000000 0.000000
vt 0.000000 0.000000
vt 0.000000 0.000000
vt 0.000000 0.000000
vt 0.000000 0.000000
vt 0.000000 0.000000
vt 0.000000 0.000000
vt 0.000000 0.000000
vt 0.000000 0.000000
vt 0.000000 0.000000
vt 0.000000 0.000000
vt 0.000000 0.000000
vt 0.000000 0.000000
vt 0.000000 0.000000
vt 0.000000 0.000000
vt 0.000000 0.000000
vt 0.000000 0.000000
vt 0.000000 0.000000
vt 0.000000 0.000000
vt 0.000000 0.000000
vt 0.000000 0.000000
vt 0.000000 0.000000
vt 0.000000 0.000000
vt 0.000000 0.000000
vt 0.000000 0.000000
vt 0.000000 0.000000
vt 0.000000 0.000000
vt 0.000000 0.000000
vt 0.000000 0.000000
vt 0.000000 0.000000
vt 0.000000 0.000000
vt 0.000000 0.000000
vt 0.000000 0.000000
vt 0.000000 0.000000
vt 0.000000 0.000000
vt 0.000000 0.000000
vt 0.000000 0.000000
vt 0.000000 0.000000
vt 0.000000 0.000000
vt 0.000000 0.000000
vt 0.000000 0.000000
vt 0.000000 0.000000
vt 0.000000 0.000000
vt 0.000000 0.000000
vt 0.000000 0.000000
vt 0.000000 0.000000
vt 0.000000 0.000000
vt 0.000000 0.000000
vt 0.000000 0.000000
vt 0.000000 0.000000
vn -0.000002 1.000000 -0.000005
vn 0.000000 1.000000 0.000000
vn -0.000022 1.000000 0.000011
vn 0.000000 1.000000 0.000000
vn 0.000000 1.000000 0.000000
vn 0.000000 1.000000 0.000000
vn 0.000000 1.000000 0.000000
vn 0.000000 1.000000 0.000000
vn -0.000002 1.000000 -0.000005
vn 0.923546 0.000000 -0.383489
vn 0.707107 0.000000 -0.707107
vn 0.707107 0.000000 -0.707107
vn 0.923546 0.000000 -0.383489
vn 0.707107 0.000000 -0.707107
vn 0.923546 0.000000 -0.383489
vn 0.114926 0.000000 -0.993374
vn 0.000000 0.000000 -1.000000
vn 0.000000 0.000000 -1.000000
vn 0.114926 0.000000 -0.993374
vn 0.000000 0.000000 -1.000000
vn 0.114926 0.000000 -0.993374
vn -1.000000 0.000000 0.000000
vn -1.000000 0.000000 0.000000
vn -1.000000 0.000000 0.000000
vn -1.000000 0.000000 0.000000
vn -1.000000 0.000000 0.000000
vn -1.000000 0.000000 0.000000
vn -1.000000 0.000000 0.000000
vn -1.000000 0.000000 0.000000
vn -1.000000 0.000000 0.000000
vn -1.000000 0.000000 0.000000
vn -1.000000 0.000000 0.000000
vn -1.000000 0.000000 0.000000
vn 0.000000 1.000000 0.000000
vn 0.000000 1.000000 0.000000
vn -0.000002 1.000000 0.000005
vn 0.000000 1.000000 0.000000
vn -0.000002 1.000000 0.000005
vn 0.000000 1.000000 0.000000
vn -0.000022 1.000000 -0.000011
vn 0.000000 1.000000 0.000000
vn -0.000002 1.000000 0.000005
vn 0.000000 1.000000 0.000000
vn -0.000002 1.000000 -0.000005
vn 0.000000 1.000000 0.000000
vn 0.000000 1.000000 0.000000
vn 0.000000 1.000000 0.000000
vn 0.000000 1.000000 0.000000
vn -0.000002 1.000000 -0.000005
vn 0.000000 1.000000 0.000000
vn 0.000000 1.000000 0.000000
vn -0.000002 1.000000 -0.000005
vn 0.000000 1.000000 0.000000
vn 0.000000 1.000000 0.000000
vn -0.383489 0.000000 0.923546
vn -0.114926 0.000000 0.993374
vn -0.114926 0.000000 0.993374
vn -0.383489 0.000000 0.923546
vn -0.114926 0.000000 0.993374
vn -0.383489 0.000000 0.923546
vn 0.000000 0.000000 -1.000000
vn 0.000000 0.000000 -1.000000
vn 0.000000 0.000000 -1.000000
vn 0.000000 0.000000 -1.000000
vn 0.000000 0.000000 -1.000000
vn 0.000000 0.000000 -1.000000
vn 0.000000 0.000000 1.000000
vn 0.000000 0.000000 1.000000
vn 0.000000 0.000000 1.000000
vn 0.000000 0.000000 1.000000
vn 0.000000 0.000000 1.000000
vn 0.000000 0.000000 1.000000
vn 0.000000 0.000000 -1.000000
vn 0.000000 0.000000 -1.000000
vn 0.000000 0.000000 -1.000000
vn 0.000000 0.000000 -1.000000
vn 0.000000 0.000000 -1.000000
vn 0.000000 0.000000 -1.000000
vn 0.000000 1.000000 0.000000
vn -0.000002 1.000000 0.000005
vn 0.000000 1.000000 0.000000
vn 0.000000 1.000000 0.000000
vn 0.000000 1.000000 0.000000
vn 0.000000 1.000000 0.000000
vn -0.000002 1.000000 0.000005
vn 0.000000 1.000000 0.000000
vn 0.000000 1.000000 0.000000
vn -0.000002 1.000000 0.000005
vn 0.000000 1.000000 0.000000
vn 0.000000 1.000000 0.000000
vn 0.000000 1.000000 0.000000
vn 0.000000 1.000000 0.000000
vn 0.000002 1.000000 -0.000005
vn 0.000000 1.000000 0.000000
vn 0.000002 1.000000 -0.000005
vn 0.000000 1.000000 0.000000
vn 0.000000 1.000000 0.000000
vn 0.000000 1.000000 0.000000
vn 0.000000 1.000000 0.000000
vn 0.000000 1.000000 0.000000
vn 0.000000 1.000000 0.000000
vn 0.000002 1.000000 -0.000005
vn 0.000000 0.000000 1.000000
vn 0.000000 0.000000 1.000000
vn 0.000000 0.000000 1.000000
vn 0.000000 0.000000 1.000000
vn 0.000000 0.000000 1.000000
vn 0.000000 0.000000 1.000000
vn 0.993374 0.000000 0.114926
vn 1.000000 0.000000 0.000000
vn 1.000000 0.000000 0.000000
vn 0.993374 0.000000 0.114926
vn 1.000000 0.000000 0.000000
vn 0.993374 0.000000 0.114926
vn 0.383489 0.000000 0.923546
vn 0.707107 0.000000 0.707107
vn 0.707107 0.000000 0.707107
vn 0.383489 0.000000 0.923546
vn 0.707107 0.000000 0.707107
vn 0.383489 0.000000 0.923546
vn 1.000000 0.000000 0.000000
vn 1.000000 0.000000 0.000000
vn 1.000000 0.000000 0.000000
vn 1.000000 0.000000 0.000000
vn 1.000000 0.000000 0.000000
vn 1.000000 0.000000 0.000000
vn 0.000000 1.000000 0.000000
vn 0.000000 1.000000 0.000000
vn 0.000002 1.000000 0.000005
vn 0.000000 1.000000 0.000000
vn 0.000002 1.000000 0.000005
vn 0.000000 1.000000 0.000000
vn 0.000000 1.000000 0.000000
vn 0.000000 1.000000 0.000000
vn 0.000000 1.000000 0.000000
vn 0.000000 1.000000 0.000000
vn 0.000000 1.000000 0.000000
vn 0.000002 1.000000 0.000005
vn 0.000002 1.000000 -0.000005
vn 0.000000 1.000000 0.000000
vn 0.000015 1.000000 0.000029
vn 0.000002 1.000000 -0.000005
vn 0.000000 1.000000 0.000000
vn 0.000000 1.000000 0.000000
vn 0.000002 1.000000 -0.000005
vn 0.000000 1.000000 0.000000
vn 0.000000 1.000000 0.000000
vn 1.000000 0.000000 0.000000
vn 1.000000 0.000000 0.000000
vn 1.000000 0.000000 0.000000
vn 1.000000 0.000000 0.000000
vn 1.000000 0.000000 0.000000
vn 1.000000 0.000000 0.000000
vn -0.923546 0.000000 0.383489
vn -0.707107 0.000000 0.707107
vn -0.707107 0.000000 0.707107
vn -0.923546 0.000000 0.383489
vn -0.707107 0.000000 0.707107
vn -0.923546 0.000000 0.383489
vn 0.383489 0.000000 -0.923546
vn 0.114926 0.000000 -0.993374
vn 0.114926 0.000000 -0.993374
vn 0.383489 0.000000 -0.923546
vn 0.114926 0.000000 -0.993374
vn 0.383489 0.000000 -0.923546
vn 0.923546 0.000000 0.383489
vn 0.993374 0.000000 0.114926
vn 0.993374 0.000000 0.114926
vn 0.923546 0.000000 0.383489
vn 0.993374 0.000000 0.114926
vn 0.923546 0.000000 0.383489
vn 0.000000 1.000000 0.000000
vn 0.000002 1.000000 0.000005
vn 0.000000 1.000000 0.000000
vn 0.000000 1.000000 0.000000
vn 0.000000 1.000000 0.000000
vn 0.000000 1.000000 0.000000
vn 0.000002 1.000000 0.000005
vn 0.000000 1.000000 0.000000
vn 0.000022 1.000000 -0.000011
vn -0.000002 1.000000 0.000005
vn 0.000000 1.000000 0.000000
vn -0.000015 1.000000 -0.000029
vn -0.000067 1.000000 -0.000039
vn -0.000022 1.000000 -0.000011
vn -0.000002 1.000000 0.000005
vn -0.000002 1.000000 0.000005
vn -0.000015 1.000000 -0.000029
vn 0.000058 1.000000 0.000060
vn 0.000015 1.000000 -0.000029
vn 0.000000 1.000000 0.000000
vn 0.000002 1.000000 0.000005
vn 0.000002 1.000000 0.000005
vn 0.000022 1.000000 -0.000011
vn 0.000067 1.000000 -0.000039
vn 0.000002 1.000000 0.000005
vn -0.000027 1.000000 0.000061
vn -0.000058 1.000000 0.000060
vn 0.000022 1.000000 0.000011
vn 0.000000 1.000000 0.000000
vn 0.000002 1.000000 -0.000005
vn 0.000002 1.000000 -0.000005
vn 0.000015 1.000000 0.000029
vn -0.000058 1.000000 -0.000060
vn 0.000002 1.000000 -0.000005
vn -0.000027 1.000000 -0.000061
vn 0.000067 1.000000 0.000039
vn -0.000015 1.000000 0.000029
vn 0.000000 1.000000 0.000000
vn -0.000002 1.000000 -0.000005
vn -0.000002 1.000000 -0.000005
vn -0.000022 1.000000 0.000011
vn -0.000067 1.000000 0.000039
vn -0.000002 1.000000 -0.000005
vn 0.000027 1.000000 -0.000061
vn 0.000058 1.000000 -0.000060
vn -0.923546 0.000000 -0.383489
vn -0.993374 0.000000 -0.114926
vn -0.993374 0.000000 -0.114926
vn -0.923546 0.000000 -0.383489
vn -0.993374 0.000000 -0.114926
vn -0.923546 0.000000 -0.383489
vn -0.993374 0.000000 -0.114926
vn -1.000000 0.000000 0.000000
vn -1.000000 0.000000 0.000000
vn -0.993374 0.000000 -0.114926
vn -1.000000 0.000000 0.000000
vn -0.993374 0.000000 -0.114926
vn -0.383489 0.000000 -0.923546
vn -0.707107 0.000000 -0.707107
vn -0.707107 0.000000 -0.707107
vn -0.383489 0.000000 -0.923546
vn -0.707107 0.000000 -0.707107
vn -0.383489 0.000000 -0.923546
vn 0.000000 0.000000 -1.000000
vn -0.114926 0.000000 -0.993374
vn -0.114926 0.000000 -0.993374
vn 0.000000 0.000000 -1.000000
vn -0.114926 0.000000 -0.993374
vn 0.000000 0.000000 -1.000000
vn 1.000000 0.000000 0.000000
vn 0.993374 0.000000 -0.114926
vn 0.993374 0.000000 -0.114926
vn 1.000000 0.000000 0.000000
vn 0.993374 0.000000 -0.114926
vn 1.000000 0.000000 0.000000
vn 0.000000 0.000000 1.000000
vn 0.114926 0.000000 0.993374
vn 0.114926 0.000000 0.993374
vn 0.000000 0.000000 1.000000
vn 0.114926 0.000000 0.993374
vn 0.000000 0.000000 1.000000
vn -1.000000 0.000000 0.000000
vn -0.993374 0.000000 0.114926
vn -0.993374 0.000000 0.114926
vn -1.000000 0.000000 0.000000
vn -0.993374 0.000000 0.114926
vn -1.000000 0.000000 0.000000
vn -0.114926 0.000000 0.993374
vn 0.000000 0.000000 1.000000
vn 0.000000 0.000000 1.000000
vn -0.114926 0.000000 0.993374
vn 0.000000 0.000000 1.000000
vn -0.114926 0.000000 0.993374
vn 0.383489 0.000000 0.923546
vn 0.114926 0.000000 0.993374
vn 0.114926 0.000000 0.993374
vn 0.383489 0.000000 0.923546
vn 0.114926 0.000000 0.993374
vn 0.383489 0.000000 0.923546
vn 0.923546 0.000000 0.383489
vn 0.707107 0.000000 0.707107
vn 0.707107 0.000000 0.707107
vn 0.923546 0.000000 0.383489
vn 0.707107 0.000000 0.707107
vn 0.923546 0.000000 0.383489
vn 0.923546 0.000000 -0.383489
vn 0.993374 0.000000 -0.114926
vn 0.993374 0.000000 -0.114926
vn 0.923546 0.000000 -0.383489
vn 0.993374 0.000000 -0.114926
vn 0.923546 0.000000 -0.383489
vn 0.383489 0.000000 -0.923546
vn 0.707107 0.000000 -0.707107
vn 0.707107 0.000000 -0.707107
vn 0.383489 0.000000 -0.923546
vn 0.707107 0.000000 -0.707107
vn 0.383489 0.000000 -0.923546
vn -0.383489 0.000000 -0.923546
vn -0.114926 0.000000 -0.993374
vn -0.114926 0.000000 -0.993374
vn -0.383489 0.000000 -0.923546
vn -0.114926 0.000000 -0.993374
vn -0.383489 0.000000 -0.923546
vn -0.923546 0.000000 -0.383489
vn -0.707107 0.000000 -0.707107
vn -0.707107 0.000000 -0.707107
vn -0.923546 0.000000 -0.383489
vn -0.707107 0.000000 -0.707107
vn -0.923546 0.000000 -0.383489
vn -0.923546 0.000000 0.383489
vn -0.993374 0.000000 0.114926
vn -0.993374 0.000000 0.114926
vn -0.923546 0.000000 0.383489
vn -0.993374 0.000000 0.114926
vn -0.923546 0.000000 0.383489
vn -0.383489 0.000000 0.923546
vn -0.707107 0.000000 0.707107
vn -0.707107 0.000000 0.707107
vn -0.383489 0.000000 0.923546
vn -0.707107 0.000000 0.707107
vn -0.383489 0.000000 0.923546
vn 0.000067 1.000000 -0.000039
vn -0.000027 1.000000 0.000061
vn 0.000002 1.000000 0.000005
vn -0.000058 1.000000 0.000060
vn 0.000015 1.000000 -0.000029
vn 0.000002 1.000000 0.000005
vn -0.000058 1.000000 -0.000060
vn -0.000027 1.000000 -0.000061
vn 0.000002 1.000000 -0.000005
vn 0.000067 1.000000 0.000039
vn 0.000022 1.000000 0.000011
vn 0.000002 1.000000 -0.000005
vn -0.000067 1.000000 0.000039
vn 0.000027 1.000000 -0.000061
vn -0.000002 1.000000 -0.000005
vn 0.000058 1.000000 -0.000060
vn -0.000015 1.000000 0.000029
vn -0.000002 1.000000 -0.000005
vn 0.000058 1.000000 0.000060
vn 0.000027 1.000000 0.000061
vn -0.000002 1.000000 0.000005
vn -0.000002 1.000000 0.000005
vn 0.000027 1.000000 0.000061
vn -0.000067 1.000000 -0.000039
f 7/1/1 38/2/2 37/3/3
f 36/4/4 57/5/5 8/6/6
f 36/7/7 8/8/8 7/9/9
f 63/10/10 21/11/11 49/12/12
f 63/13/13 49/14/14 62/15/15
f 28/16/16 16/17/17 55/18/18
f 28/19/19 55/20/20 50/21/21
f 2/22/22 3/23/23 57/24/24
f 2/25/25 57/26/26 36/27/27
f 3/28/28 4/29/29 43/30/30
f 3/31/31 43/32/32 57/33/33
f 57/34/34 43/35/35 9/36/36
f 57/37/37 9/38/38 8/39/39
f 45/40/40 46/41/41 9/42/42
f 38/43/43 7/44/44 12/45/45
f 38/46/46 12/47/47 56/48/48
f 7/49/49 8/50/50 13/51/51
f 7/52/52 13/53/53 12/54/54
f 72/55/55 32/56/56 45/57/57
f 72/58/58 45/59/59 73/60/60
f 11/61/61 6/62/62 38/63/63
f 11/64/64 38/65/65 56/66/66
f 10/67/67 15/68/68 54/69/69
f 10/70/70 54/71/71 46/72/72
f 16/73/73 11/74/74 56/75/75
f 16/76/76 56/77/77 55/78/78
f 8/79/79 9/80/80 14/81/81
f 8/82/82 14/83/83 13/84/84
f 9/85/85 46/86/86 54/87/87
f 9/88/88 54/89/89 14/90/90
f 56/91/91 12/92/92 17/93/93
f 56/94/94 17/95/95 55/96/96
f 12/97/97 13/98/98 18/99/99
f 12/100/100 18/101/101 17/102/102
f 15/103/103 20/104/104 41/105/105
f 15/106/106 41/107/107 54/108/108
f 30/109/109 24/110/110 52/111/111
f 30/112/112 52/113/113 48/114/114
f 59/115/115 25/116/116 47/117/117
f 59/118/118 47/119/119 58/120/120
f 23/121/121 22/122/122 39/123/123
f 23/124/124 39/125/125 53/126/126
f 13/127/127 14/128/128 19/129/129
f 13/130/130 19/131/131 18/132/132
f 14/133/133 54/134/134 41/135/135
f 14/136/136 41/137/137 19/138/138
f 17/139/139 39/140/140 40/141/141
f 17/142/142 18/143/143 53/144/144
f 17/145/145 53/146/146 39/147/147
f 24/148/148 23/149/149 53/150/150
f 24/151/151 53/152/152 52/153/153
f 71/154/154 5/155/155 51/156/156
f 71/157/157 51/158/158 70/159/159
f 64/160/160 28/161/161 50/162/162
f 64/163/163 50/164/164 65/165/165
f 60/166/166 30/167/167 48/168/168
f 60/169/169 48/170/170 61/171/171
f 18/172/172 19/173/173 52/174/174
f 18/175/175 52/176/176 53/177/177
f 19/178/178 41/179/179 42/180/180
f 9/181/181 43/182/182 44/183/183
f 73/184/184 45/185/185 9/186/186
f 9/187/187 44/188/188 70/189/189
f 48/190/190 52/191/191 19/192/192
f 19/193/193 42/194/194 58/195/195
f 19/196/196 47/197/197 61/198/198
f 50/199/199 55/200/200 17/201/201
f 17/202/202 40/203/203 62/204/204
f 17/205/205 49/206/206 65/207/207
f 35/208/208 36/209/209 7/210/210
f 7/211/211 37/212/212 66/213/213
f 7/214/214 34/215/215 69/216/216
f 68/217/217 26/218/218 35/219/219
f 68/220/220 35/221/221 69/222/222
f 26/223/223 2/224/224 36/225/225
f 26/226/226 36/227/227 35/228/228
f 67/229/229 1/230/230 34/231/231
f 67/232/232 34/233/233 66/234/234
f 6/235/235 27/236/236 37/237/237
f 6/238/238 37/239/239 38/240/240
f 22/241/241 29/242/242 40/243/243
f 22/244/244 40/245/245 39/246/246
f 20/247/247 31/248/248 42/249/249
f 20/250/250 42/251/251 41/252/252
f 4/253/253 33/254/254 44/255/255
f 4/256/256 44/257/257 43/258/258
f 32/259/259 10/260/260 46/261/261
f 32/262/262 46/263/263 45/264/264
f 58/265/265 42/266/266 31/267/267
f 58/268/268 31/269/269 59/270/270
f 61/271/271 47/272/272 25/273/273
f 61/274/274 25/275/275 60/276/276
f 62/277/277 40/278/278 29/279/279
f 62/280/280 29/281/281 63/282/282
f 65/283/283 49/284/284 21/285/285
f 65/286/286 21/287/287 64/288/288
f 66/289/289 37/290/290 27/291/291
f 66/292/292 27/293/293 67/294/294
f 69/295/295 34/296/296 1/297/297
f 69/298/298 1/299/299 68/300/300
f 70/301/301 44/302/302 33/303/303
f 70/304/304 33/305/305 71/306/306
f 73/307/307 51/308/308 5/309/309
f 73/310/310 5/311/311 72/312/312
f 58/313/313 47/314/314 19/315/315
f 61/316/316 48/317/317 19/318/318
f 62/319/319 49/320/320 17/321/321
f 65/322/322 50/323/323 17/324/324
f 66/325/325 34/326/326 7/327/327
f 69/328/328 35/329/329 7/330/330
f 70/331/331 51/332/332 9/333/333
f 9/334/334 51/335/335 73/336/336
