v 0.000000 0.000000 -3.121672
v 0.000000 -0.000000 3.559151
v 1.000000 0.000000 -2.327312
v 1.000000 -0.000000 2.822351
v 0.707107 0.707107 -2.327312
v 0.707107 0.707107 2.822351
v 0.000000 1.000000 -2.327312
v 0.000000 1.000000 2.822351
v -0.707107 0.707107 -2.327312
v -0.707107 0.707107 2.822351
v -1.000000 0.000000 -2.327312
v -1.000000 -0.000000 2.822351
v -0.707107 -0.707106 -2.327312
v -0.707107 -0.707107 2.822351
v 0.000000 -1.000000 -2.327312
v 0.000000 -1.000000 2.822351
v 0.707107 -0.707106 -2.327312
v 0.707107 -0.707107 2.822351
v 0.607999 0.000003 3.559151
v 0.429922 -0.429920 3.559151
v 0.000003 -0.607999 3.559151
v -0.429920 -0.429922 3.559151
v -0.607999 -0.000003 3.559151
v -0.429922 0.429920 3.559151
v -0.000003 0.607999 3.559151
v 0.429920 0.429922 3.559151
v 0.000003 -0.637999 -3.121672
v -0.451133 -0.451134 -3.121672
v 0.637999 0.000003 -3.121672
v 0.451135 -0.451133 -3.121672
v -0.637999 -0.000002 -3.121672
v -0.451135 0.451133 -3.121672
v -0.000003 0.638000 -3.121672
v 0.451133 0.451135 -3.121672
vt 0.130301 0.446030
vt 0.091797 0.457031
vt 0.093750 0.380859
vt 0.992018 0.855469
vt 0.992018 0.944969
vt 0.005687 0.944969
vt 0.992018 0.855469
vt 0.005687 0.944969
vt 0.005687 0.855469
vt 0.014523 0.215760
vt 0.014523 0.193754
vt 0.068359 0.203125
vt 0.130301 0.446030
vt 0.091797 0.457031
vt 0.093750 0.380859
vt 0.992018 0.944969
vt 0.992018 0.982041
vt 0.005687 0.982041
vt 0.992018 0.944969
vt 0.005687 0.982041
vt 0.005687 0.944969
vt 0.014523 0.215760
vt 0.014523 0.193754
vt 0.068359 0.203125
vt 0.130301 0.446030
vt 0.091797 0.457031
vt 0.093750 0.380859
vt 0.992018 0.982041
vt 0.992018 0.944969
vt 0.005687 0.944969
vt 0.992018 0.982041
vt 0.005687 0.944969
vt 0.005687 0.982041
vt 0.014523 0.215760
vt 0.014523 0.193754
vt 0.068359 0.203125
vt 0.130301 0.446030
vt 0.091797 0.457031
vt 0.093750 0.380859
vt 0.992018 0.944969
vt 0.992018 0.855469
vt 0.005687 0.855469
vt 0.992018 0.944969
vt 0.005687 0.855469
vt 0.005687 0.944969
vt 0.014523 0.215760
vt 0.014523 0.193754
vt 0.068359 0.203125
vt 0.130301 0.446030
vt 0.091797 0.457031
vt 0.093750 0.380859
vt 0.992018 0.855469
vt 0.992018 0.765969
vt 0.005687 0.765968
vt 0.992018 0.855469
vt 0.005687 0.765968
vt 0.005687 0.855469
vt 0.014523 0.215760
vt 0.014523 0.193754
vt 0.068359 0.203125
vt 0.130301 0.446030
vt 0.091797 0.457031
vt 0.093750 0.380859
vt 0.992018 0.765969
vt 0.992018 0.728896
vt 0.005687 0.728896
vt 0.992018 0.765969
vt 0.005687 0.728896
vt 0.005687 0.765968
vt 0.014523 0.215760
vt 0.014523 0.193754
vt 0.068359 0.203125
vt 0.130301 0.446030
vt 0.091797 0.457031
vt 0.093750 0.380859
vt 0.992018 0.728896
vt 0.992018 0.765969
vt 0.005687 0.765968
vt 0.992018 0.728896
vt 0.005687 0.765968
vt 0.005687 0.728896
vt 0.014523 0.215760
vt 0.014523 0.193754
vt 0.068359 0.203125
vt 0.130301 0.446030
vt 0.091797 0.457031
vt 0.093750 0.380859
vt 0.992018 0.765969
vt 0.992018 0.855469
vt 0.005687 0.855469
vt 0.992018 0.765969
vt 0.005687 0.855469
vt 0.005687 0.765968
vt 0.014523 0.215760
vt 0.014523 0.193754
vt 0.068359 0.203125
vt 0.127669 0.053242
vt 0.127669 0.140625
vt 0.014523 0.140625
vt 0.127669 0.053242
vt 0.014523 0.140625
vt 0.014523 0.087496
vt 0.127669 0.017047
vt 0.127669 0.053242
vt 0.014523 0.087496
vt 0.127669 0.017047
vt 0.014523 0.087496
vt 0.014523 0.065489
vt 0.127669 0.053242
vt 0.127669 0.017047
vt 0.014523 0.065489
vt 0.127669 0.053242
vt 0.014523 0.065489
vt 0.014523 0.087496
vt 0.127669 0.140625
vt 0.127669 0.053242
vt 0.014523 0.087496
vt 0.127669 0.140625
vt 0.014523 0.087496
vt 0.014523 0.140625
vt 0.127669 0.228008
vt 0.127669 0.140625
vt 0.014523 0.140625
vt 0.127669 0.228008
vt 0.014523 0.140625
vt 0.014523 0.193754
vt 0.127669 0.264203
vt 0.127669 0.228008
vt 0.014523 0.193754
vt 0.127669 0.264203
vt 0.014523 0.193754
vt 0.014523 0.215760
vt 0.127669 0.228008
vt 0.127669 0.264203
vt 0.014523 0.215760
vt 0.127669 0.228008
vt 0.014523 0.215760
vt 0.014523 0.193754
vt 0.127669 0.140625
vt 0.127669 0.228008
vt 0.014523 0.193754
vt 0.127669 0.140625
vt 0.014523 0.193754
vt 0.014523 0.140625
vt 0.008315 0.243609
vt 0.008315 0.279805
vt 0.130301 0.311437
vt 0.008315 0.243609
vt 0.130301 0.311437
vt 0.130301 0.288345
vt 0.008315 0.367188
vt 0.008315 0.279805
vt 0.130301 0.311437
vt 0.008315 0.367188
vt 0.130301 0.311437
vt 0.130301 0.367188
vt 0.008315 0.279805
vt 0.008315 0.367188
vt 0.130301 0.367187
vt 0.008315 0.279805
vt 0.130301 0.367187
vt 0.130301 0.311437
vt 0.008315 0.367188
vt 0.008315 0.454571
vt 0.130301 0.422938
vt 0.008315 0.367188
vt 0.130301 0.422938
vt 0.130301 0.367187
vt 0.008315 0.454571
vt 0.008315 0.490766
vt 0.130301 0.446030
vt 0.008315 0.454571
vt 0.130301 0.446030
vt 0.130301 0.422938
vt 0.008315 0.279805
vt 0.008315 0.243609
vt 0.130301 0.288345
vt 0.008315 0.279805
vt 0.130301 0.288345
vt 0.130301 0.311437
vt 0.008315 0.490766
vt 0.008315 0.454571
vt 0.130301 0.422938
vt 0.008315 0.490766
vt 0.130301 0.422938
vt 0.130301 0.446030
vt 0.008315 0.454571
vt 0.008315 0.367188
vt 0.130301 0.367188
vt 0.008315 0.454571
vt 0.130301 0.367188
vt 0.130301 0.422938
vn -0.000000 0.000000 -1.000000
vn -0.000000 0.000000 -1.000000
vn 0.000000 0.000000 -1.000000
vn 0.976938 0.000000 -0.213525
vn 0.690799 0.690800 -0.213525
vn 0.685729 0.685730 0.244030
vn 0.976938 0.000000 -0.213525
vn 0.685729 0.685730 0.244030
vn 0.969768 0.000001 0.244030
vn -0.000000 0.000000 1.000000
vn 0.000000 0.000000 1.000000
vn -0.000000 0.000000 1.000000
vn 0.000000 0.000000 -1.000000
vn -0.000000 0.000000 -1.000000
vn 0.000000 0.000000 -1.000000
vn 0.690799 0.690800 -0.213525
vn -0.000001 0.976938 -0.213525
vn -0.000001 0.969768 0.244030
vn 0.690799 0.690800 -0.213525
vn -0.000001 0.969768 0.244030
vn 0.685729 0.685730 0.244030
vn 0.000000 0.000000 1.000000
vn 0.000000 0.000000 1.000000
vn -0.000000 0.000000 1.000000
vn 0.000000 0.000000 -1.000000
vn 0.000000 0.000000 -1.000000
vn 0.000000 0.000000 -1.000000
vn -0.000001 0.976938 -0.213525
vn -0.690800 0.690799 -0.213525
vn -0.685730 0.685729 0.244030
vn -0.000001 0.976938 -0.213525
vn -0.685730 0.685729 0.244030
vn -0.000001 0.969768 0.244030
vn 0.000000 0.000000 1.000000
vn -0.000000 0.000000 1.000000
vn -0.000000 0.000000 1.000000
vn 0.000000 0.000000 -1.000000
vn 0.000000 0.000000 -1.000000
vn 0.000000 0.000000 -1.000000
vn -0.690800 0.690799 -0.213525
vn -0.976938 -0.000001 -0.213525
vn -0.969768 -0.000001 0.244030
vn -0.690800 0.690799 -0.213525
vn -0.969768 -0.000001 0.244030
vn -0.685730 0.685729 0.244030
vn -0.000000 0.000000 1.000000
vn -0.000000 0.000000 1.000000
vn -0.000000 0.000000 1.000000
vn -0.000000 0.000000 -1.000000
vn 0.000000 0.000000 -1.000000
vn 0.000000 0.000000 -1.000000
vn -0.976938 -0.000001 -0.213525
vn -0.690799 -0.690800 -0.213525
vn -0.685729 -0.685730 0.244030
vn -0.976938 -0.000001 -0.213525
vn -0.685729 -0.685730 0.244030
vn -0.969768 -0.000001 0.244030
vn -0.000000 0.000000 1.000000
vn 0.000000 0.000000 1.000000
vn -0.000000 0.000000 1.000000
vn 0.000000 0.000000 -1.000000
vn -0.000000 0.000000 -1.000000
vn 0.000000 0.000000 -1.000000
vn -0.690799 -0.690800 -0.213525
vn 0.000001 -0.976938 -0.213525
vn 0.000001 -0.969768 0.244030
vn -0.690799 -0.690800 -0.213525
vn 0.000001 -0.969768 0.244030
vn -0.685729 -0.685730 0.244030
vn 0.000000 0.000000 1.000000
vn 0.000000 0.000000 1.000000
vn -0.000000 0.000000 1.000000
vn 0.000000 0.000000 -1.000000
vn 0.000000 0.000000 -1.000000
vn 0.000000 0.000000 -1.000000
vn 0.000001 -0.976938 -0.213525
vn 0.690799 -0.690799 -0.213525
vn 0.685730 -0.685729 0.244030
vn 0.000001 -0.976938 -0.213525
vn 0.685730 -0.685729 0.244030
vn 0.000001 -0.969768 0.244030
vn 0.000000 0.000000 1.000000
vn -0.000000 0.000000 1.000000
vn -0.000000 0.000000 1.000000
vn -0.000000 0.000000 -1.000000
vn 0.000000 0.000000 -1.000000
vn 0.000000 0.000000 -1.000000
vn 0.690799 -0.690799 -0.213525
vn 0.976938 0.000000 -0.213525
vn 0.969768 0.000001 0.244030
vn 0.690799 -0.690799 -0.213525
vn 0.969768 0.000001 0.244030
vn 0.685730 -0.685729 0.244030
vn -0.000000 0.000000 1.000000
vn -0.000000 0.000000 1.000000
vn -0.000000 0.000000 1.000000
vn 0.685730 -0.685729 0.244030
vn 0.969768 0.000001 0.244030
vn 0.882830 0.000001 0.469693
vn 0.685730 -0.685729 0.244030
vn 0.882830 0.000001 0.469693
vn 0.624256 -0.624254 0.469693
vn 0.000001 -0.969768 0.244030
vn 0.685730 -0.685729 0.244030
vn 0.624256 -0.624254 0.469693
vn 0.000001 -0.969768 0.244030
vn 0.624256 -0.624254 0.469693
vn 0.000001 -0.882830 0.469693
vn -0.685729 -0.685730 0.244030
vn 0.000001 -0.969768 0.244030
vn 0.000001 -0.882830 0.469693
vn -0.685729 -0.685730 0.244030
vn 0.000001 -0.882830 0.469693
vn -0.624254 -0.624256 0.469693
vn -0.969768 -0.000001 0.244030
vn -0.685729 -0.685730 0.244030
vn -0.624254 -0.624256 0.469693
vn -0.969768 -0.000001 0.244030
vn -0.624254 -0.624256 0.469693
vn -0.882830 -0.000001 0.469693
vn -0.685730 0.685729 0.244030
vn -0.969768 -0.000001 0.244030
vn -0.882830 -0.000001 0.469693
vn -0.685730 0.685729 0.244030
vn -0.882830 -0.000001 0.469693
vn -0.624256 0.624254 0.469693
vn -0.000001 0.969768 0.244030
vn -0.685730 0.685729 0.244030
vn -0.624256 0.624254 0.469693
vn -0.000001 0.969768 0.244030
vn -0.624256 0.624254 0.469693
vn -0.000001 0.882830 0.469693
vn 0.685729 0.685730 0.244030
vn -0.000001 0.969768 0.244030
vn -0.000001 0.882830 0.469693
vn 0.685729 0.685730 0.244030
vn -0.000001 0.882830 0.469693
vn 0.624254 0.624256 0.469693
vn 0.969768 0.000001 0.244030
vn 0.685729 0.685730 0.244030
vn 0.624254 0.624256 0.469693
vn 0.969768 0.000001 0.244030
vn 0.624254 0.624256 0.469693
vn 0.882830 0.000001 0.469693
vn 0.000001 -0.976938 -0.213525
vn -0.690799 -0.690800 -0.213525
vn -0.643442 -0.643444 -0.414683
vn 0.000001 -0.976938 -0.213525
vn -0.643442 -0.643444 -0.414683
vn 0.000001 -0.909966 -0.414683
vn 0.976938 0.000000 -0.213525
vn 0.690799 -0.690799 -0.213525
vn 0.643444 -0.643442 -0.414683
vn 0.976938 0.000000 -0.213525
vn 0.643444 -0.643442 -0.414683
vn 0.909966 0.000001 -0.414683
vn -0.690799 -0.690800 -0.213525
vn -0.976938 -0.000001 -0.213525
vn -0.909966 -0.000001 -0.414683
vn -0.690799 -0.690800 -0.213525
vn -0.909966 -0.000001 -0.414683
vn -0.643442 -0.643444 -0.414683
vn -0.976938 -0.000001 -0.213525
vn -0.690800 0.690799 -0.213525
vn -0.643444 0.643442 -0.414683
vn -0.976938 -0.000001 -0.213525
vn -0.643444 0.643442 -0.414683
vn -0.909966 -0.000001 -0.414683
vn -0.690800 0.690799 -0.213525
vn -0.000001 0.976938 -0.213525
vn -0.000001 0.909966 -0.414683
vn -0.690800 0.690799 -0.213525
vn -0.000001 0.909966 -0.414683
vn -0.643444 0.643442 -0.414683
vn 0.690799 -0.690799 -0.213525
vn 0.000001 -0.976938 -0.213525
vn 0.000001 -0.909966 -0.414683
vn 0.690799 -0.690799 -0.213525
vn 0.000001 -0.909966 -0.414683
vn 0.643444 -0.643442 -0.414683
vn -0.000001 0.976938 -0.213525
vn 0.690799 0.690800 -0.213525
vn 0.643442 0.643444 -0.414683
vn -0.000001 0.976938 -0.213525
vn 0.643442 0.643444 -0.414683
vn -0.000001 0.909966 -0.414683
vn 0.690799 0.690800 -0.213525
vn 0.976938 0.000000 -0.213525
vn 0.909966 0.000001 -0.414683
vn 0.690799 0.690800 -0.213525
vn 0.909966 0.000001 -0.414683
vn 0.643442 0.643444 -0.414683
f 34/1/1 29/2/2 1/3/3
f 3/4/4 5/5/5 6/6/6
f 3/7/7 6/8/8 4/9/9
f 19/10/10 26/11/11 2/12/12
f 33/13/13 34/14/14 1/15/15
f 5/16/16 7/17/17 8/18/18
f 5/19/19 8/20/20 6/21/21
f 26/22/22 25/23/23 2/24/24
f 32/25/25 33/26/26 1/27/27
f 7/28/28 9/29/29 10/30/30
f 7/31/31 10/32/32 8/33/33
f 25/34/34 24/35/35 2/36/36
f 31/37/37 32/38/38 1/39/39
f 9/40/40 11/41/41 12/42/42
f 9/43/43 12/44/44 10/45/45
f 24/46/46 23/47/47 2/48/48
f 28/49/49 31/50/50 1/51/51
f 11/52/52 13/53/53 14/54/54
f 11/55/55 14/56/56 12/57/57
f 23/58/58 22/59/59 2/60/60
f 27/61/61 28/62/62 1/63/63
f 13/64/64 15/65/65 16/66/66
f 13/67/67 16/68/68 14/69/69
f 22/70/70 21/71/71 2/72/72
f 30/73/73 27/74/74 1/75/75
f 15/76/76 17/77/77 18/78/78
f 15/79/79 18/80/80 16/81/81
f 21/82/82 20/83/83 2/84/84
f 29/85/85 30/86/86 1/87/87
f 17/88/88 3/89/89 4/90/90
f 17/91/91 4/92/92 18/93/93
f 20/94/94 19/95/95 2/96/96
f 18/97/97 4/98/98 19/99/99
f 18/100/100 19/101/101 20/102/102
f 16/103/103 18/104/104 20/105/105
f 16/106/106 20/107/107 21/108/108
f 14/109/109 16/110/110 21/111/111
f 14/112/112 21/113/113 22/114/114
f 12/115/115 14/116/116 22/117/117
f 12/118/118 22/119/119 23/120/120
f 10/121/121 12/122/122 23/123/123
f 10/124/124 23/125/125 24/126/126
f 8/127/127 10/128/128 24/129/129
f 8/130/130 24/131/131 25/132/132
f 6/133/133 8/134/134 25/135/135
f 6/136/136 25/137/137 26/138/138
f 4/139/139 6/140/140 26/141/141
f 4/142/142 26/143/143 19/144/144
f 15/145/145 13/146/146 28/147/147
f 15/148/148 28/149/149 27/150/150
f 3/151/151 17/152/152 30/153/153
f 3/154/154 30/155/155 29/156/156
f 13/157/157 11/158/158 31/159/159
f 13/160/160 31/161/161 28/162/162
f 11/163/163 9/164/164 32/165/165
f 11/166/166 32/167/167 31/168/168
f 9/169/169 7/170/170 33/171/171
f 9/172/172 33/173/173 32/174/174
f 17/175/175 15/176/176 27/177/177
f 17/178/178 27/179/179 30/180/180
f 7/181/181 5/182/182 34/183/183
f 7/184/184 34/185/185 33/186/186
f 5/187/187 3/188/188 29/189/189
f 5/190/190 29/191/191 34/192/192
