v -0.123014 -0.054097 -0.220207
v 0.099193 0.074369 0.217114
v 0.123029 -0.054096 -0.220206
v 0.122044 -0.054277 0.217280
v -0.122031 -0.054279 0.217279
v 0.098865 0.074669 -0.220390
v -0.098840 0.074667 -0.220391
v -0.099175 0.074367 0.217113
vt 0.299355 0.883783
vt 0.422655 0.884773
vt 0.421554 0.960440
vt 0.299355 0.883783
vt 0.421554 0.960440
vt 0.298358 0.959431
vt 0.234725 0.683752
vt 0.140270 0.683752
vt 0.182477 0.683752
vt 0.234725 0.683752
vt 0.182477 0.683752
vt 0.235932 0.683655
vt 0.299425 0.877856
vt 0.422508 0.880698
vt 0.422039 0.916319
vt 0.299425 0.877856
vt 0.422039 0.916319
vt 0.299425 0.877856
vt 0.150403 0.686967
vt 0.231955 0.687063
vt 0.231948 0.686964
vt 0.150403 0.686967
vt 0.231948 0.686964
vt 0.146718 0.686964
vt 0.298366 0.958397
vt 0.298804 0.925207
vt 0.168042 0.923763
vt 0.298366 0.958397
vt 0.168042 0.923763
vt 0.298350 0.959425
vt 0.298804 0.925207
vt 0.168567 0.883956
vt 0.299451 0.876063
vt 0.298804 0.925207
vt 0.299451 0.876063
vt 0.299381 0.882047
vn 0.000007 -1.000000 -0.000414
vn 0.000007 -1.000000 -0.000414
vn 0.000007 -1.000000 -0.000414
vn 0.000007 -1.000000 -0.000414
vn 0.000007 -1.000000 -0.000414
vn 0.000007 -1.000000 -0.000414
vn -0.000002 0.001290 0.999999
vn -0.000002 0.001290 0.999999
vn -0.000002 0.001290 0.999999
vn -0.000002 0.001290 0.999999
vn -0.000002 0.001290 0.999999
vn -0.000002 0.001290 0.999999
vn -0.983716 0.179729 0.000828
vn -0.983716 0.179729 0.000828
vn -0.983716 0.179729 0.000828
vn -0.983716 0.179729 0.000828
vn -0.983716 0.179729 0.000828
vn -0.983716 0.179729 0.000828
vn 0.000004 -0.001434 -0.999999
vn 0.000004 -0.001434 -0.999999
vn 0.000004 -0.001434 -0.999999
vn 0.000004 -0.001434 -0.999999
vn 0.000004 -0.001434 -0.999999
vn 0.000004 -0.001434 -0.999999
vn -0.000009 1.000000 0.000686
vn -0.000009 1.000000 0.000686
vn -0.000009 1.000000 0.000686
vn -0.000009 1.000000 0.000686
vn -0.000009 1.000000 0.000686
vn -0.000009 1.000000 0.000686
vn 0.983726 0.179675 0.000837
vn 0.983726 0.179675 0.000837
vn 0.983726 0.179675 0.000837
vn 0.983726 0.179675 0.000837
vn 0.983726 0.179675 0.000837
vn 0.983726 0.179675 0.000837
f 4/1/1 5/2/2 1/3/3
f 4/4/4 1/5/5 3/6/6
f 2/7/7 8/8/8 5/9/9
f 2/10/10 5/11/11 4/12/12
f 8/13/13 7/14/14 1/15/15
f 8/16/16 1/17/17 5/18/18
f 3/19/19 1/20/20 7/21/21
f 3/22/22 7/23/23 6/24/24
f 6/25/25 7/26/26 8/27/27
f 6/28/28 8/29/29 2/30/30
f 2/31/31 4/32/32 3/33/33
f 2/34/34 3/35/35 6/36/36
