v 0.502581 0.608351 4.000448
v 0.466102 0.559906 4.000569
v 0.491294 0.608791 4.212691
v 0.455636 0.560069 4.212692
v 0.251500 0.756865 4.212691
v 0.251612 0.709356 4.212691
v 0.251387 0.756979 4.000448
v 0.251427 0.709192 4.000568
v 0.122968 0.670337 4.212691
v 0.114048 0.621616 4.212691
v 0.125790 0.669897 4.000448
v 0.116663 0.621452 4.000568
v -0.502581 0.608351 4.000448
v -0.466102 0.559906 4.000569
v -0.491294 0.608791 4.212691
v -0.455636 0.560069 4.212692
v -0.251500 0.756865 4.212691
v -0.251612 0.709356 4.212691
v -0.251387 0.756979 4.000448
v -0.251427 0.709192 4.000568
v -0.122968 0.670337 4.212691
v -0.114048 0.621616 4.212691
v -0.125790 0.669897 4.000448
v -0.116663 0.621452 4.000568
vt 0.208444 0.915046
vt 0.208027 0.962270
vt 0.339692 0.962238
vt 0.208444 0.915046
vt 0.339692 0.962238
vt 0.340099 0.916092
vt 0.242443 0.908280
vt 0.242036 0.954425
vt 0.208027 0.962270
vt 0.242443 0.908280
vt 0.208027 0.962270
vt 0.208444 0.915046
vt 0.209105 0.840045
vt 0.208444 0.915005
vt 0.340025 0.916077
vt 0.209105 0.840045
vt 0.340025 0.916077
vt 0.340721 0.837204
vt 0.208444 0.915046
vt 0.208027 0.962270
vt 0.242036 0.954425
vt 0.208444 0.915046
vt 0.242036 0.954425
vt 0.242443 0.908280
vt 0.208444 0.915005
vt 0.209105 0.840045
vt 0.340721 0.837204
vt 0.208444 0.915005
vt 0.340721 0.837204
vt 0.340025 0.916077
vt 0.253754 0.954425
vt 0.254162 0.845780
vt 0.208444 0.852546
vt 0.253754 0.954425
vt 0.208444 0.852546
vt 0.208027 0.962270
vt 0.208027 0.962270
vt 0.208444 0.852546
vt 0.340099 0.853592
vt 0.208027 0.962270
vt 0.340099 0.853592
vt 0.339692 0.962238
vt 0.208027 0.962270
vt 0.208444 0.852546
vt 0.254162 0.845780
vt 0.208027 0.962270
vt 0.254162 0.845780
vt 0.253754 0.954425
vt 0.253754 0.954425
vt 0.254162 0.845780
vt 0.208444 0.852546
vt 0.253754 0.954425
vt 0.208444 0.852546
vt 0.208027 0.962270
vt 0.208027 0.962270
vt 0.208444 0.852546
vt 0.340099 0.853592
vt 0.208027 0.962270
vt 0.340099 0.853592
vt 0.339692 0.962238
vt 0.208027 0.962270
vt 0.208444 0.852546
vt 0.254162 0.845780
vt 0.208027 0.962270
vt 0.254162 0.845780
vt 0.253754 0.954425
vt 0.208444 0.915005
vt 0.209105 0.840045
vt 0.340721 0.837204
vt 0.208444 0.915005
vt 0.340721 0.837204
vt 0.340025 0.916077
vt 0.242443 0.908280
vt 0.242036 0.954425
vt 0.208027 0.962270
vt 0.242443 0.908280
vt 0.208027 0.962270
vt 0.208444 0.915046
vt 0.208444 0.915046
vt 0.208027 0.962270
vt 0.339692 0.962238
vt 0.208444 0.915046
vt 0.339692 0.962238
vt 0.340099 0.916092
vt 0.208444 0.915046
vt 0.208027 0.962270
vt 0.242036 0.954425
vt 0.208444 0.915046
vt 0.242036 0.954425
vt 0.242443 0.908280
vt 0.209105 0.840045
vt 0.208444 0.915005
vt 0.340025 0.916077
vt 0.209105 0.840045
vt 0.340025 0.916077
vt 0.340721 0.837204
vn -0.837761 0.545958 -0.009254
vn -0.564085 0.825706 -0.004235
vn -0.564085 0.825706 -0.004235
vn -0.837761 0.545958 -0.009254
vn -0.564085 0.825706 -0.004235
vn -0.837761 0.545958 -0.009254
vn -0.000005 0.000005 1.000000
vn 0.000000 0.000009 1.000000
vn 0.000000 0.000009 1.000000
vn -0.000005 0.000005 1.000000
vn 0.000000 0.000009 1.000000
vn -0.000005 0.000005 1.000000
vn 0.541654 -0.840593 0.003751
vn 0.541654 -0.840593 0.003751
vn 0.541654 -0.840593 0.003751
vn 0.541654 -0.840593 0.003751
vn 0.541654 -0.840593 0.003751
vn 0.541654 -0.840593 0.003751
vn 0.001789 -0.002661 -0.999995
vn 0.000250 -0.002340 -0.999997
vn 0.000250 -0.002340 -0.999997
vn 0.001789 -0.002661 -0.999995
vn 0.000250 -0.002340 -0.999997
vn 0.001789 -0.002661 -0.999995
vn -0.580545 -0.814117 -0.013440
vn -0.580545 -0.814117 -0.013440
vn -0.580545 -0.814117 -0.013440
vn -0.580545 -0.814117 -0.013440
vn -0.580545 -0.814117 -0.013440
vn -0.580545 -0.814117 -0.013440
vn 0.000000 0.000009 1.000000
vn 0.000005 0.000013 1.000000
vn 0.000005 0.000013 1.000000
vn 0.000000 0.000009 1.000000
vn 0.000005 0.000013 1.000000
vn 0.000000 0.000009 1.000000
vn 0.517151 0.855796 0.012957
vn 0.517151 0.855796 0.012957
vn 0.517151 0.855796 0.012957
vn 0.517151 0.855796 0.012957
vn 0.517151 0.855796 0.012957
vn 0.517151 0.855796 0.012957
vn 0.000250 -0.002340 -0.999997
vn -0.001289 -0.002019 -0.999997
vn -0.001289 -0.002019 -0.999997
vn 0.000250 -0.002340 -0.999997
vn -0.001289 -0.002019 -0.999997
vn 0.000250 -0.002340 -0.999997
vn -0.000250 -0.002340 -0.999997
vn 0.001289 -0.002019 -0.999997
vn 0.001289 -0.002019 -0.999997
vn -0.000250 -0.002340 -0.999997
vn 0.001289 -0.002019 -0.999997
vn -0.000250 -0.002340 -0.999997
vn -0.517151 0.855796 0.012957
vn -0.517151 0.855796 0.012957
vn -0.517151 0.855796 0.012957
vn -0.517151 0.855796 0.012957
vn -0.517151 0.855796 0.012957
vn -0.517151 0.855796 0.012957
vn -0.000000 0.000009 1.000000
vn -0.000005 0.000013 1.000000
vn -0.000005 0.000013 1.000000
vn -0.000000 0.000009 1.000000
vn -0.000005 0.000013 1.000000
vn -0.000000 0.000009 1.000000
vn 0.580545 -0.814117 -0.013440
vn 0.580545 -0.814117 -0.013440
vn 0.580545 -0.814117 -0.013440
vn 0.580545 -0.814117 -0.013440
vn 0.580545 -0.814117 -0.013440
vn 0.580545 -0.814117 -0.013440
vn -0.001789 -0.002661 -0.999995
vn -0.000250 -0.002340 -0.999997
vn -0.000250 -0.002340 -0.999997
vn -0.001789 -0.002661 -0.999995
vn -0.000250 -0.002340 -0.999997
vn -0.001789 -0.002661 -0.999995
vn 0.837761 0.545958 -0.009254
vn 0.564085 0.825706 -0.004235
vn 0.564085 0.825706 -0.004235
vn 0.837761 0.545958 -0.009254
vn 0.564085 0.825706 -0.004235
vn 0.837761 0.545958 -0.009254
vn 0.000005 0.000005 1.000000
vn -0.000000 0.000009 1.000000
vn -0.000000 0.000009 1.000000
vn 0.000005 0.000005 1.000000
vn -0.000000 0.000009 1.000000
vn 0.000005 0.000005 1.000000
vn -0.541654 -0.840593 0.003751
vn -0.541654 -0.840593 0.003751
vn -0.541654 -0.840593 0.003751
vn -0.541654 -0.840593 0.003751
vn -0.541654 -0.840593 0.003751
vn -0.541654 -0.840593 0.003751
f 9/1/1 5/2/2 7/3/3
f 9/4/4 7/5/5 11/6/6
f 10/7/7 6/8/8 5/9/9
f 10/10/10 5/11/11 9/12/12
f 12/13/13 8/14/14 6/15/15
f 12/16/16 6/17/17 10/18/18
f 11/19/19 7/20/20 8/21/21
f 11/22/22 8/23/23 12/24/24
f 8/25/25 2/26/26 4/27/27
f 8/28/28 4/29/29 6/30/30
f 6/31/31 4/32/32 3/33/33
f 6/34/34 3/35/35 5/36/36
f 5/37/37 3/38/38 1/39/39
f 5/40/40 1/41/41 7/42/42
f 7/43/43 1/44/44 2/45/45
f 7/46/46 2/47/47 8/48/48
f 20/49/49 14/50/50 13/51/51
f 20/52/52 13/53/53 19/54/54
f 19/55/55 13/56/56 15/57/57
f 19/58/58 15/59/59 17/60/60
f 17/61/61 15/62/62 16/63/63
f 17/64/64 16/65/65 18/66/66
f 18/67/67 16/68/68 14/69/69
f 18/70/70 14/71/71 20/72/72
f 24/73/73 20/74/74 19/75/75
f 24/76/76 19/77/77 23/78/78
f 23/79/79 19/80/80 17/81/81
f 23/82/82 17/83/83 21/84/84
f 21/85/85 17/86/86 18/87/87
f 21/88/88 18/89/89 22/90/90
f 22/91/91 18/92/92 20/93/93
f 22/94/94 20/95/95 24/96/96
