v 0.339245 0.130281 -0.282797
v 0.367363 0.004305 -0.281792
v -0.343303 -0.121672 -0.280787
v -0.371421 0.004305 -0.281792
v 0.339244 -0.121672 -0.280787
v 0.259171 -0.228470 -0.279935
v 0.139331 -0.299830 -0.279366
v -0.263229 -0.228470 -0.279935
v -0.002029 -0.324888 -0.279166
v -0.143389 -0.299830 -0.279366
v -0.343303 0.130281 -0.282797
v -0.371695 0.004499 0.241378
v 0.260186 -0.228364 0.241022
v 0.339245 0.140313 0.239051
v 0.338864 -0.122371 0.240102
v 0.367767 0.003696 0.241377
v -0.141281 -0.300632 0.241637
v -0.343303 0.140313 0.239051
v -0.000738 -0.324721 0.241852
v 0.138154 -0.299829 0.241637
v -0.261706 -0.229970 0.241022
v -0.342793 -0.123977 0.240102
v -0.284983 -0.021415 0.241230
v -0.263445 0.075083 0.240192
v -0.263445 -0.117915 0.240325
v -0.263475 -0.117923 0.239331
v -0.202108 -0.199722 0.240978
v -0.110311 -0.254383 0.241414
v 0.259387 0.075083 0.240191
v 0.280925 -0.021415 0.241230
v 0.259387 -0.117915 0.240325
v 0.198050 -0.199722 0.240978
v 0.106253 -0.254383 0.241414
v -0.002029 -0.273578 0.241567
vt -0.032143 0.116236
vt 0.496952 0.116236
vt 1.555144 0.116236
vt -0.032143 0.116236
vt 1.555144 0.116236
vt 0.496952 0.060302
vt -0.296691 0.004367
vt -0.032143 0.004367
vt 0.496952 0.004367
vt -0.296691 0.004367
vt 0.496952 0.004367
vt -0.032143 0.060302
vt -0.296691 0.116236
vt -0.032143 0.116236
vt 0.496952 0.116236
vt -0.296691 0.116236
vt 0.496952 0.116236
vt -0.032143 0.060302
vt -0.296691 0.004367
vt -0.032143 0.004367
vt 0.496952 0.004367
vt -0.296691 0.004367
vt 0.496952 0.004367
vt -0.032143 0.060302
vt -0.296691 0.116236
vt -0.032143 0.116236
vt 0.496952 0.116236
vt -0.296691 0.116236
vt 0.496952 0.116236
vt -0.032143 0.060302
vt -0.296691 0.116236
vt -0.032143 0.116236
vt 0.496952 0.116236
vt -0.296691 0.116236
vt 0.496952 0.116236
vt -0.032143 0.060302
vt -0.428965 0.004367
vt -0.296691 0.004367
vt -0.032143 0.004367
vt -0.428965 0.004367
vt -0.032143 0.004367
vt -0.296691 0.060302
vt -0.561239 0.032335
vt -0.561239 0.004367
vt -0.032143 0.004367
vt -0.561239 0.032335
vt -0.032143 0.004367
vt 0.496952 0.004367
vt -0.296691 0.116236
vt -0.032143 0.116236
vt 0.232405 0.116236
vt -0.296691 0.116236
vt 0.232405 0.116236
vt -0.164417 0.060302
vt -0.296691 0.004367
vt -0.032143 0.004367
vt 0.496952 0.004367
vt -0.296691 0.004367
vt 0.496952 0.004367
vt -0.032143 0.060302
vt 0.000000 0.000000
vt 0.000000 0.000000
vt 0.000000 0.000000
vt 0.000000 0.000000
vt 0.000000 0.000000
vt 0.000000 0.000000
vt 0.000000 0.000000
vt 0.000000 0.000000
vt 0.000000 0.000000
vt 0.000000 0.000000
vt 0.000000 0.000000
vt 0.000000 0.000000
vt 0.000000 0.000000
vt 0.000000 0.000000
vt 0.000000 0.000000
vt 0.000000 0.000000
vt 0.000000 0.000000
vt 0.000000 0.000000
vt 0.000000 0.000000
vt 0.000000 0.000000
vt 0.000000 0.000000
vt 0.000000 0.000000
vt 0.000000 0.000000
vt 0.000000 0.000000
vt 0.000000 0.000000
vt 0.000000 0.000000
vt 0.000000 0.000000
vt 0.000000 0.000000
vt 0.000000 0.000000
vt 0.000000 0.000000
vt 0.000000 0.000000
vt 0.000000 0.000000
vt 0.000000 0.000000
vt 0.000000 0.000000
vt 0.000000 0.000000
vt 0.000000 0.000000
vt 0.000000 0.000000
vt 0.000000 0.000000
vt 0.000000 0.000000
vt 0.000000 0.000000
vt 0.000000 0.000000
vt 0.000000 0.000000
vt 0.000000 0.000000
vt 0.000000 0.000000
vt 0.000000 0.000000
vt 0.000000 0.000000
vt 0.000000 0.000000
vt 0.000000 0.000000
vt 0.000000 0.000000
vt 0.000000 0.000000
vt 0.000000 0.000000
vt 0.000000 0.000000
vt 0.000000 0.000000
vt 0.000000 0.000000
vt 0.000000 0.000000
vt 0.000000 0.000000
vt 0.000000 0.000000
vt 0.000000 0.000000
vt 0.000000 0.000000
vt 0.000000 0.000000
vt 0.000000 0.000000
vt 0.000000 0.000000
vt 0.000000 0.000000
vn -0.977489 0.210973 -0.002321
vn -0.977489 0.210973 -0.002321
vn -0.999991 -0.003938 -0.001302
vn -0.977489 0.210973 -0.002321
vn -0.999991 -0.003938 -0.001302
vn -0.999991 -0.003938 -0.001302
vn -0.665543 -0.746359 -0.000397
vn -0.665543 -0.746359 -0.000397
vn -0.345930 -0.938260 -0.000086
vn -0.665543 -0.746359 -0.000397
vn -0.345930 -0.938260 -0.000086
vn -0.345930 -0.938260 -0.000086
vn -0.345930 -0.938260 -0.000086
vn -0.345930 -0.938260 -0.000086
vn 0.001887 -0.999998 0.000050
vn -0.345930 -0.938260 -0.000086
vn 0.001887 -0.999998 0.000050
vn 0.001887 -0.999998 0.000050
vn 0.001887 -0.999998 0.000050
vn 0.001887 -0.999998 0.000050
vn 0.347490 -0.937684 0.000155
vn 0.001887 -0.999998 0.000050
vn 0.347490 -0.937684 0.000155
vn 0.347490 -0.937684 0.000155
vn -0.907154 -0.420800 -0.000446
vn -0.907154 -0.420800 -0.000446
vn -0.665543 -0.746359 -0.000397
vn -0.907154 -0.420800 -0.000446
vn -0.665543 -0.746359 -0.000397
vn -0.665543 -0.746359 -0.000397
vn 0.347490 -0.937684 0.000155
vn 0.347490 -0.937684 0.000155
vn 0.668072 -0.744097 -0.000338
vn 0.347490 -0.937684 0.000155
vn 0.668072 -0.744097 -0.000338
vn 0.668072 -0.744097 -0.000338
vn 0.668072 -0.744097 -0.000338
vn 0.668072 -0.744097 -0.000338
vn 0.908243 -0.418443 -0.000577
vn 0.668072 -0.744097 -0.000338
vn 0.908243 -0.418443 -0.000577
vn 0.908243 -0.418443 -0.000577
vn 0.999986 -0.005038 -0.001320
vn 0.999986 -0.005038 -0.001320
vn 0.977523 0.210817 -0.002279
vn 0.999986 -0.005038 -0.001320
vn 0.977523 0.210817 -0.002279
vn 0.977523 0.210817 -0.002279
vn 0.908243 -0.418443 -0.000577
vn 0.908243 -0.418443 -0.000577
vn 0.999986 -0.005038 -0.001320
vn 0.908243 -0.418443 -0.000577
vn 0.999986 -0.005038 -0.001320
vn 0.999986 -0.005038 -0.001320
vn -0.999991 -0.003938 -0.001302
vn -0.999991 -0.003938 -0.001302
vn -0.907154 -0.420800 -0.000446
vn -0.999991 -0.003938 -0.001302
vn -0.907154 -0.420800 -0.000446
vn -0.907154 -0.420800 -0.000446
vn 0.001758 0.014103 0.999899
vn 0.002689 0.002610 0.999993
vn 0.002689 0.002610 0.999993
vn 0.001758 0.014103 0.999899
vn 0.002689 0.002610 0.999993
vn 0.001758 0.014103 0.999899
vn 0.002689 0.002610 0.999993
vn 0.002689 0.002610 0.999993
vn 0.000360 -0.001355 0.999999
vn 0.002689 0.002610 0.999993
vn 0.000360 -0.001355 0.999999
vn 0.000360 -0.001355 0.999999
vn 0.002689 0.002610 0.999993
vn 0.000360 -0.001355 0.999999
vn 0.003620 -0.008884 0.999954
vn 0.000360 -0.001355 0.999999
vn 0.000360 -0.001355 0.999999
vn -0.002300 0.005838 0.999980
vn 0.000360 -0.001355 0.999999
vn -0.002300 0.005838 0.999980
vn -0.002300 0.005838 0.999980
vn -0.002300 0.005838 0.999980
vn -0.002300 0.005838 0.999980
vn -0.001121 0.005443 0.999985
vn -0.002300 0.005838 0.999980
vn -0.001121 0.005443 0.999985
vn -0.001121 0.005443 0.999985
vn 0.000025 0.001943 0.999998
vn -0.001671 0.014072 0.999900
vn -0.001671 0.014072 0.999900
vn 0.000025 0.001943 0.999998
vn -0.001671 0.014072 0.999900
vn 0.000025 0.001943 0.999998
vn 0.002233 -0.001928 0.999996
vn 0.000025 0.001943 0.999998
vn 0.000025 0.001943 0.999998
vn 0.002233 -0.001928 0.999996
vn 0.000025 0.001943 0.999998
vn 0.002233 -0.001928 0.999996
vn 0.002169 0.005979 0.999980
vn 0.002233 -0.001928 0.999996
vn 0.002233 -0.001928 0.999996
vn 0.002169 0.005979 0.999980
vn 0.002233 -0.001928 0.999996
vn 0.002169 0.005979 0.999980
vn 0.001056 0.005533 0.999984
vn 0.002169 0.005979 0.999980
vn 0.002169 0.005979 0.999980
vn 0.001056 0.005533 0.999984
vn 0.002169 0.005979 0.999980
vn 0.001056 0.005533 0.999984
vn -0.000012 0.005411 0.999985
vn 0.001056 0.005533 0.999984
vn 0.001056 0.005533 0.999984
vn -0.000012 0.005411 0.999985
vn 0.001056 0.005533 0.999984
vn -0.000012 0.005411 0.999985
vn -0.001121 0.005443 0.999985
vn -0.001121 0.005443 0.999985
vn -0.000012 0.005411 0.999985
vn -0.001121 0.005443 0.999985
vn -0.000012 0.005411 0.999985
vn -0.000012 0.005411 0.999985
f 18/1/1 11/2/2 4/3/3
f 18/4/4 4/5/5 12/6/6
f 21/7/7 8/8/8 10/9/9
f 21/10/10 10/11/11 17/12/12
f 17/13/13 10/14/14 9/15/15
f 17/16/16 9/17/17 19/18/18
f 19/19/19 9/20/20 7/21/21
f 19/22/22 7/23/23 20/24/24
f 22/25/25 3/26/26 8/27/27
f 22/28/28 8/29/29 21/30/30
f 20/31/31 7/32/32 6/33/33
f 20/34/34 6/35/35 13/36/36
f 13/37/37 6/38/38 5/39/39
f 13/40/40 5/41/41 15/42/42
f 16/43/43 2/44/44 1/45/45
f 16/46/46 1/47/47 14/48/48
f 15/49/49 5/50/50 2/51/51
f 15/52/52 2/53/53 16/54/54
f 12/55/55 4/56/56 3/57/57
f 12/58/58 3/59/59 22/60/60
f 18/61/61 12/62/62 23/63/63
f 18/64/64 23/65/65 24/66/66
f 23/67/67 12/68/68 22/69/69
f 23/70/70 22/71/71 25/72/72
f 23/73/73 25/74/74 26/75/75
f 25/76/76 22/77/77 21/78/78
f 25/79/79 21/80/80 27/81/81
f 27/82/82 21/83/83 17/84/84
f 27/85/85 17/86/86 28/87/87
f 16/88/88 14/89/89 29/90/90
f 16/91/91 29/92/92 30/93/93
f 15/94/94 16/95/95 30/96/96
f 15/97/97 30/98/98 31/99/99
f 13/100/100 15/101/101 31/102/102
f 13/103/103 31/104/104 32/105/105
f 20/106/106 13/107/107 32/108/108
f 20/109/109 32/110/110 33/111/111
f 19/112/112 20/113/113 33/114/114
f 19/115/115 33/116/116 34/117/117
f 28/118/118 17/119/119 19/120/120
f 28/121/121 19/122/122 34/123/123
