v -0.262675 0.139265 0.088848
v -0.295904 0.063475 0.089644
v -0.365199 0.195611 2.305960
v -0.161667 0.121258 2.537879
v -0.218058 0.163138 2.490648
v -0.437874 0.243353 0.163349
v -0.238312 0.113272 2.491202
v -0.470572 0.140290 0.165715
v -0.389480 0.114459 2.306837
v -0.396585 0.296108 0.162821
v -0.461270 0.191007 0.163860
v -0.240593 0.128533 2.490894
v -0.327616 0.244541 2.305550
v -0.386817 0.156509 2.306342
v -0.242517 0.041013 0.089613
v -0.262813 0.139244 -0.108296
v -0.296043 0.063372 -0.107438
v -0.392586 0.218105 2.305938
v -0.209338 0.116804 0.088818
v -0.180297 0.128012 2.539230
v -0.237806 0.177889 2.490735
v -0.470959 0.269583 -0.043835
v -0.260960 0.122355 2.491333
v -0.508501 0.152642 -0.042693
v -0.425410 0.125743 2.306883
v -0.430315 0.321270 -0.044403
v -0.496185 0.213140 -0.043283
v -0.259129 0.144566 2.491000
v -0.355805 0.265845 2.305496
v -0.415897 0.175943 2.306349
v -0.242663 0.040911 -0.107468
v -0.209496 0.116783 -0.108326
v -0.248467 0.161228 2.490867
v -0.229326 0.145836 2.490771
vt 0.429026 0.542692
vt 0.429026 0.542692
vt 0.429026 0.572467
vt 0.271031 0.719727
vt 0.275862 0.719729
vt 0.300076 0.660048
vt 0.271031 0.719727
vt 0.300076 0.660048
vt 0.287123 0.660042
vt 0.429026 0.557579
vt 0.429026 0.542692
vt 0.009636 0.542692
vt 0.429026 0.557579
vt 0.009636 0.542692
vt 0.009636 0.557579
vt 0.287123 0.660042
vt 0.300076 0.660048
vt 0.275862 0.719729
vt 0.287123 0.660042
vt 0.275862 0.719729
vt 0.271031 0.719727
vt 0.256565 0.660028
vt 0.256537 0.719720
vt 0.266199 0.719725
vt 0.256565 0.660028
vt 0.266199 0.719725
vt 0.271844 0.660035
vt 0.266199 0.719725
vt 0.256537 0.719720
vt 0.256565 0.660028
vt 0.266199 0.719725
vt 0.256565 0.660028
vt 0.271844 0.660035
vt 0.429026 0.585088
vt 0.429026 0.572467
vt 0.009636 0.572467
vt 0.429026 0.585088
vt 0.009636 0.572467
vt 0.009636 0.585088
vt 0.429026 0.557579
vt 0.429026 0.572467
vt 0.009636 0.572467
vt 0.429026 0.557579
vt 0.009636 0.572467
vt 0.009636 0.557579
vt 0.292245 0.719737
vt 0.256537 0.719720
vt 0.266199 0.719725
vt 0.000000 0.000000
vt 0.000000 0.000000
vt 0.000000 0.000000
vt 0.000000 0.000000
vt 0.000000 0.000000
vt 0.000000 0.000000
vt 0.000000 0.000000
vt 0.000000 0.000000
vt 0.000000 0.000000
vt 0.000000 0.000000
vt 0.000000 0.000000
vt 0.000000 0.000000
vt 0.000000 0.000000
vt 0.000000 0.000000
vt 0.000000 0.000000
vt 0.000000 0.000000
vt 0.000000 0.000000
vt 0.000000 0.000000
vt 0.000000 0.000000
vt 0.000000 0.000000
vt 0.000000 0.000000
vt 0.000000 0.000000
vt 0.000000 0.000000
vt 0.000000 0.000000
vt 0.000000 0.000000
vt 0.000000 0.000000
vt 0.000000 0.000000
vt 0.000000 0.000000
vt 0.000000 0.000000
vt 0.000000 0.000000
vt 0.009636 0.557579
vt 0.009636 0.572467
vt 0.429026 0.572467
vt 0.009636 0.557579
vt 0.429026 0.572467
vt 0.429026 0.557579
vt 0.009636 0.585088
vt 0.009636 0.572467
vt 0.429026 0.572467
vt 0.009636 0.585088
vt 0.429026 0.572467
vt 0.429026 0.585088
vt 0.292245 0.719737
vt 0.275862 0.719729
vt 0.271031 0.719727
vt 0.009636 0.557579
vt 0.009636 0.542692
vt 0.429026 0.542692
vt 0.009636 0.557579
vt 0.429026 0.542692
vt 0.429026 0.557579
vt 0.429026 0.597709
vt 0.429026 0.585088
vt 0.429026 0.572467
vt 0.266199 0.719725
vt 0.256537 0.719720
vt 0.292245 0.719737
vt 0.000000 0.000000
vt 0.000000 0.000000
vt 0.000000 0.000000
vt 0.000000 0.000000
vt 0.000000 0.000000
vt 0.000000 0.000000
vt 0.429026 0.572467
vt 0.429026 0.542692
vt 0.429026 0.542692
vt 0.000000 0.000000
vt 0.000000 0.000000
vt 0.000000 0.000000
vt 0.000000 0.000000
vt 0.000000 0.000000
vt 0.000000 0.000000
vt 0.429026 0.572467
vt 0.429026 0.585088
vt 0.429026 0.597709
vt 0.000000 0.000000
vt 0.000000 0.000000
vt 0.000000 0.000000
vt 0.000000 0.000000
vt 0.000000 0.000000
vt 0.000000 0.000000
vt 0.271031 0.719727
vt 0.275862 0.719729
vt 0.292245 0.719737
vt 0.429026 0.585088
vt 0.429026 0.597709
vt 0.429026 0.572467
vt 0.429026 0.585088
vt 0.429026 0.572467
vt 0.429026 0.557579
vt 0.000000 0.000000
vt 0.000000 0.000000
vt 0.000000 0.000000
vt 0.000000 0.000000
vt 0.000000 0.000000
vt 0.000000 0.000000
vt 0.287123 0.660042
vt 0.271844 0.660035
vt 0.266199 0.719725
vt 0.287123 0.660042
vt 0.266199 0.719725
vt 0.271031 0.719727
vt 0.271031 0.719727
vt 0.266199 0.719725
vt 0.271844 0.660035
vt 0.271031 0.719727
vt 0.271844 0.660035
vt 0.287123 0.660042
vt 0.271031 0.719727
vt 0.266199 0.719725
vt 0.292245 0.719737
vt 0.292245 0.719737
vt 0.266199 0.719725
vt 0.271031 0.719727
vt 0.429026 0.597709
vt 0.429026 0.572467
vt 0.429026 0.557579
vt 0.429026 0.597709
vt 0.429026 0.557579
vt 0.429026 0.572467
vt 0.000000 0.000000
vt 0.000000 0.000000
vt 0.000000 0.000000
vt 0.000000 0.000000
vt 0.000000 0.000000
vt 0.000000 0.000000
vt 0.000000 0.000000
vt 0.000000 0.000000
vt 0.000000 0.000000
vt 0.000000 0.000000
vt 0.000000 0.000000
vt 0.000000 0.000000
vt 0.000000 0.000000
vt 0.000000 0.000000
vt 0.000000 0.000000
vt 0.000000 0.000000
vt 0.000000 0.000000
vt 0.000000 0.000000
vt 0.000000 0.000000
vt 0.000000 0.000000
vt 0.000000 0.000000
vt 0.000000 0.000000
vt 0.000000 0.000000
vt 0.000000 0.000000
vn -0.273355 0.046267 -0.960800
vn -0.256302 0.070819 -0.963999
vn -0.173721 0.044445 -0.983792
vn -0.554494 0.371055 0.744885
vn -0.542449 0.394293 0.741810
vn -0.739407 0.576340 0.348007
vn -0.554494 0.371055 0.744885
vn -0.739407 0.576340 0.348007
vn -0.784615 0.509615 0.353090
vn -0.946519 0.320404 0.037989
vn -0.980376 0.193688 0.036727
vn -0.914157 0.168671 0.368600
vn -0.946519 0.320404 0.037989
vn -0.914157 0.168671 0.368600
vn -0.878370 0.307466 0.365965
vn 0.791764 -0.509210 -0.337365
vn 0.749815 -0.571476 -0.333455
vn 0.562497 -0.399918 -0.723646
vn 0.791764 -0.509210 -0.337365
vn 0.562497 -0.399918 -0.723646
vn 0.572585 -0.380726 -0.726081
vn -0.914157 0.168671 0.368600
vn -0.552578 -0.450404 0.701280
vn -0.606196 0.221168 0.763944
vn -0.914157 0.168671 0.368600
vn -0.606196 0.221168 0.763944
vn -0.878370 0.307466 0.365965
vn 0.631810 -0.172696 -0.755640
vn 0.656749 0.023198 -0.753752
vn 0.933206 -0.075311 -0.351362
vn 0.631810 -0.172696 -0.755640
vn 0.933206 -0.075311 -0.351362
vn 0.897760 -0.264982 -0.351867
vn -0.788183 0.614165 0.039610
vn -0.846682 0.530645 0.039308
vn -0.784615 0.509615 0.353090
vn -0.788183 0.614165 0.039610
vn -0.784615 0.509615 0.353090
vn -0.739407 0.576340 0.348007
vn 0.956511 -0.289071 -0.039049
vn 0.847169 -0.529817 -0.039973
vn 0.791764 -0.509210 -0.337365
vn 0.956511 -0.289071 -0.039049
vn 0.791764 -0.509210 -0.337365
vn 0.897760 -0.264982 -0.351867
vn 0.489389 -0.189006 -0.851337
vn 0.656749 0.023198 -0.753752
vn 0.631810 -0.172696 -0.755640
vn -0.348463 -0.937312 0.004462
vn -0.348463 -0.937312 0.004462
vn -0.389663 -0.920944 0.004860
vn -0.348463 -0.937312 0.004462
vn -0.389663 -0.920944 0.004860
vn -0.389663 -0.920944 0.004860
vn 0.916170 -0.400789 -0.000580
vn 0.916170 -0.400789 -0.000580
vn 0.916170 -0.400789 -0.000580
vn 0.916170 -0.400789 -0.000580
vn 0.916170 -0.400789 -0.000580
vn 0.916170 -0.400789 -0.000580
vn -0.477963 -0.035465 0.877664
vn -0.552578 -0.450404 0.701280
vn -0.300784 -0.855513 0.421457
vn -0.477963 -0.035465 0.877664
vn -0.300784 -0.855513 0.421457
vn -0.276164 -0.773189 0.570887
vn -0.313288 -0.940598 0.130865
vn -0.313288 -0.940598 0.130865
vn -0.300784 -0.855513 0.421457
vn -0.313288 -0.940598 0.130865
vn -0.300784 -0.855513 0.421457
vn -0.552578 -0.450404 0.701280
vn -0.348463 -0.937312 0.004462
vn -0.348463 -0.937312 0.004462
vn -0.313288 -0.940598 0.130865
vn -0.348463 -0.937312 0.004462
vn -0.313288 -0.940598 0.130865
vn -0.313288 -0.940598 0.130865
vn -0.878370 0.307466 0.365965
vn -0.784615 0.509615 0.353090
vn -0.846682 0.530645 0.039308
vn -0.878370 0.307466 0.365965
vn -0.846682 0.530645 0.039308
vn -0.946519 0.320404 0.037989
vn 0.749815 -0.571476 -0.333455
vn 0.791764 -0.509210 -0.337365
vn 0.847169 -0.529817 -0.039973
vn 0.749815 -0.571476 -0.333455
vn 0.847169 -0.529817 -0.039973
vn 0.789346 -0.612626 -0.040288
vn -0.477963 -0.035465 0.877664
vn -0.542449 0.394293 0.741810
vn -0.554494 0.371055 0.744885
vn 0.897760 -0.264982 -0.351867
vn 0.933206 -0.075311 -0.351362
vn 0.990954 -0.128765 -0.037797
vn 0.897760 -0.264982 -0.351867
vn 0.990954 -0.128765 -0.037797
vn 0.956511 -0.289071 -0.039049
vn 0.203053 -0.111597 0.972787
vn 0.276243 -0.206815 0.938572
vn 0.298410 -0.169493 0.939268
vn -0.606196 0.221168 0.763944
vn -0.552578 -0.450404 0.701280
vn -0.477963 -0.035465 0.877664
vn -0.389663 -0.920944 0.004860
vn -0.389663 -0.920944 0.004860
vn -0.387819 -0.921735 0.000761
vn -0.389663 -0.920944 0.004860
vn -0.387819 -0.921735 0.000761
vn -0.387819 -0.921735 0.000761
vn 0.240423 -0.054264 0.969150
vn 0.353266 -0.084543 0.931695
vn 0.385320 -0.036948 0.922043
vn 0.579437 0.814946 -0.010760
vn 0.579437 0.814946 -0.010760
vn 0.388166 0.921589 -0.000388
vn 0.579437 0.814946 -0.010760
vn 0.388166 0.921589 -0.000388
vn 0.388166 0.921589 -0.000388
vn -0.222194 0.123057 -0.967205
vn -0.205138 0.150677 -0.967065
vn -0.150713 0.079495 -0.985376
vn -0.173721 0.044445 -0.983792
vn -0.150713 0.079495 -0.985376
vn -0.004499 -0.009337 -0.999946
vn -0.173721 0.044445 -0.983792
vn -0.004499 -0.009337 -0.999946
vn -0.004499 -0.009337 -0.999946
vn 0.572585 -0.380726 -0.726081
vn 0.562497 -0.399918 -0.723646
vn 0.489389 -0.189006 -0.851337
vn 0.240423 -0.054264 0.969150
vn 0.203053 -0.111597 0.972787
vn 0.298410 -0.169493 0.939268
vn 0.240423 -0.054264 0.969150
vn 0.298410 -0.169493 0.939268
vn 0.353266 -0.084543 0.931695
vn 0.203053 -0.111597 0.972787
vn 0.240423 -0.054264 0.969150
vn 0.004210 0.008653 0.999954
vn 0.203053 -0.111597 0.972787
vn 0.004210 0.008653 0.999954
vn 0.004210 0.008653 0.999954
vn -0.784615 0.509615 0.353090
vn -0.878370 0.307466 0.365965
vn -0.606196 0.221168 0.763944
vn -0.784615 0.509615 0.353090
vn -0.606196 0.221168 0.763944
vn -0.554494 0.371055 0.744885
vn 0.572585 -0.380726 -0.726081
vn 0.631810 -0.172696 -0.755640
vn 0.897760 -0.264982 -0.351867
vn 0.572585 -0.380726 -0.726081
vn 0.897760 -0.264982 -0.351867
vn 0.791764 -0.509210 -0.337365
vn -0.554494 0.371055 0.744885
vn -0.606196 0.221168 0.763944
vn -0.477963 -0.035465 0.877664
vn 0.489389 -0.189006 -0.851337
vn 0.631810 -0.172696 -0.755640
vn 0.572585 -0.380726 -0.726081
vn -0.150713 0.079495 -0.985376
vn -0.173721 0.044445 -0.983792
vn -0.256302 0.070819 -0.963999
vn -0.150713 0.079495 -0.985376
vn -0.256302 0.070819 -0.963999
vn -0.222194 0.123057 -0.967205
vn 0.674875 0.737858 -0.010424
vn 0.674875 0.737858 -0.010424
vn 0.579437 0.814946 -0.010760
vn 0.674875 0.737858 -0.010424
vn 0.579437 0.814946 -0.010760
vn 0.579437 0.814946 -0.010760
vn 0.600806 0.799392 -0.002007
vn 0.600806 0.799392 -0.002007
vn 0.674875 0.737858 -0.010424
vn 0.600806 0.799392 -0.002007
vn 0.674875 0.737858 -0.010424
vn 0.674875 0.737858 -0.010424
vn 0.600806 0.799392 -0.002007
vn 0.546478 0.829255 0.117038
vn 0.546478 0.829255 0.117038
vn 0.600806 0.799392 -0.002007
vn 0.546478 0.829255 0.117038
vn 0.600806 0.799392 -0.002007
vn 0.546478 0.829255 0.117038
vn 0.481747 0.843993 0.235788
vn 0.481747 0.843993 0.235788
vn 0.546478 0.829255 0.117038
vn 0.481747 0.843993 0.235788
vn 0.546478 0.829255 0.117038
f 24/1/1 27/2/2 17/3/3
f 33/4/4 21/5/5 29/6/6
f 33/7/7 29/8/8 18/9/9
f 27/10/10 24/11/11 25/12/12
f 27/13/13 25/14/14 30/15/15
f 3/16/16 13/17/17 5/18/18
f 3/19/19 5/20/20 34/21/21
f 25/22/22 23/23/23 28/24/24
f 25/25/25 28/26/26 30/27/27
f 12/28/28 7/29/29 9/30/30
f 12/31/31 9/32/32 14/33/33
f 26/34/34 22/35/35 18/36/36
f 26/37/37 18/38/38 29/39/39
f 11/40/40 6/41/41 3/42/42
f 11/43/43 3/44/44 14/45/45
f 4/46/46 7/47/47 12/48/48
f 8/49/49 24/50/50 17/51/51
f 8/52/52 17/53/53 2/54/54
f 19/55/55 15/56/56 31/57/57
f 19/58/58 31/59/59 32/60/60
f 20/61/61 23/62/62 7/63/63
f 20/64/64 7/65/65 4/66/66
f 25/67/67 9/68/68 7/69/69
f 25/70/70 7/71/71 23/72/72
f 24/73/73 8/74/74 9/75/75
f 24/76/76 9/77/77 25/78/78
f 30/79/79 18/80/80 22/81/81
f 30/82/82 22/83/83 27/84/84
f 13/85/85 3/86/86 6/87/87
f 13/88/88 6/89/89 10/90/90
f 20/91/91 21/92/92 33/93/93
f 14/94/94 9/95/95 8/96/96
f 14/97/97 8/98/98 11/99/99
f 1/100/100 10/101/101 6/102/102
f 28/103/103 23/104/104 20/105/105
f 2/106/106 17/107/107 31/108/108
f 2/109/109 31/110/110 15/111/111
f 2/112/112 11/113/113 8/114/114
f 16/115/115 1/116/116 19/117/117
f 16/118/118 19/119/119 32/120/120
f 22/121/121 26/122/122 16/123/123
f 17/124/124 16/125/125 32/126/126
f 17/127/127 32/128/128 31/129/129
f 34/130/130 5/131/131 4/132/132
f 2/133/133 1/134/134 6/135/135
f 2/136/136 6/137/137 11/138/138
f 1/139/139 2/140/140 15/141/141
f 1/142/142 15/143/143 19/144/144
f 18/145/145 30/146/146 28/147/147
f 18/148/148 28/149/149 33/150/150
f 34/151/151 12/152/152 14/153/153
f 34/154/154 14/155/155 3/156/156
f 33/157/157 28/158/158 20/159/159
f 4/160/160 12/161/161 34/162/162
f 16/163/163 17/164/164 27/165/165
f 16/166/166 27/167/167 22/168/168
f 26/169/169 10/170/170 1/171/171
f 26/172/172 1/173/173 16/174/174
f 29/175/175 13/176/176 10/177/177
f 29/178/178 10/179/179 26/180/180
f 29/181/181 21/182/182 5/183/183
f 29/184/184 5/185/185 13/186/186
f 21/187/187 20/188/188 4/189/189
f 21/190/190 4/191/191 5/192/192
