v -64.000000 0.000000 -64.000000
v -64.000000 0.000000 -56.000000
v -64.000000 0.000000 -48.000000
v -64.000000 0.000000 -40.000000
v -64.000000 0.000000 -32.000000
v -64.000000 0.000000 -24.000000
v -64.000000 0.000000 -16.000000
v -64.000000 0.000000 -8.000000
v -64.000000 0.000000 0.000000
v -64.000000 0.000000 8.000000
v -64.000000 0.000000 16.000000
v -64.000000 0.000000 24.000000
v -64.000000 0.000000 32.000000
v -64.000000 0.000000 40.000000
v -64.000000 0.000000 48.000000
v -64.000000 0.000000 56.000000
v -64.000000 0.000000 64.000000
v -56.000000 0.000000 -64.000000
v -56.000000 0.000000 -56.000000
v -56.000000 0.000000 -48.000000
v -56.000000 0.000000 -40.000000
v -56.000000 0.000000 -32.000000
v -56.000000 0.000000 -24.000000
v -56.000000 0.000000 -16.000000
v -56.000000 0.000000 -8.000000
v -56.000000 0.000000 0.000000
v -56.000000 0.000000 8.000000
v -56.000000 0.000000 16.000000
v -56.000000 0.000000 24.000000
v -56.000000 0.000000 32.000000
v -56.000000 0.000000 40.000000
v -56.000000 0.000000 48.000000
v -56.000000 0.000000 56.000000
v -56.000000 0.000000 64.000000
v -48.000000 0.000000 -64.000000
v -48.000000 1.187555 -56.000000
v -48.000000 1.017908 -48.000000
v -48.000000 1.490907 -40.000000
v -48.000000 0.815920 -32.000000
v -48.000000 0.477661 -24.000000
v -48.000000 1.575491 -16.000000
v -48.000000 2.691187 -8.000000
v -48.000000 1.575491 0.000000
v -48.000000 0.000000 8.000000
v -48.000000 0.000000 16.000000
v -48.000000 0.000000 24.000000
v -48.000000 0.000000 32.000000
v -48.000000 0.000000 40.000000
v -48.000000 0.000000 48.000000
v -48.000000 0.000000 56.000000
v -48.000000 0.000000 64.000000
v -40.000000 0.000000 -64.000000
v -40.000000 1.866167 -56.000000
v -40.000000 2.220174 -48.000000
v -40.000000 2.161452 -40.000000
v -40.000000 1.634283 -32.000000
v -40.000000 0.815920 -24.000000
v -40.000000 2.691187 -16.000000
v -40.000000 5.390434 -8.000000
v -40.000000 2.691187 0.000000
v -40.000000 0.000000 8.000000
v -40.000000 1.023537 16.000000
v -40.000000 1.748363 24.000000
v -40.000000 1.946856 32.000000
v -40.000000 1.592893 40.000000
v -40.000000 0.932521 48.000000
v -40.000000 0.000000 56.000000
v -40.000000 0.000000 64.000000
v -32.000000 0.000000 -64.000000
v -32.000000 3.526331 -56.000000
v -32.000000 0.477661 -40.000000
v -32.000000 1.575491 -16.000000
v -32.000000 2.691187 -8.000000
v -32.000000 1.575491 0.000000
v -32.000000 0.000000 8.000000
v -32.000000 1.748363 16.000000
v -32.000000 3.501961 24.000000
v -32.000000 3.190556 40.000000
v -32.000000 1.592893 48.000000
v -32.000000 0.000000 56.000000
v -32.000000 0.000000 64.000000
v -24.000000 0.000000 -64.000000
v -24.000000 0.000000 -56.000000
v -24.000000 0.000000 -48.000000
v -24.000000 0.000000 -8.000000
v -24.000000 0.000000 0.000000
v -24.000000 1.023537 16.000000
v -24.000000 1.748363 24.000000
v -24.000000 1.946856 32.000000
v -24.000000 1.592893 40.000000
v -24.000000 0.932521 48.000000
v -24.000000 0.000000 56.000000
v -24.000000 0.000000 64.000000
v -16.000000 0.000000 -64.000000
v -16.000000 2.167623 -56.000000
v -16.000000 0.000000 -32.000000
v -16.000000 0.000000 -24.000000
v -16.000000 0.000000 32.000000
v -16.000000 0.000000 40.000000
v -16.000000 0.000000 48.000000
v -16.000000 0.000000 56.000000
v -16.000000 0.000000 64.000000
v -8.000000 0.000000 -64.000000
v -8.000000 1.539053 -56.000000
v -8.000000 0.000000 -48.000000
v -8.000000 0.000000 -32.000000
v -8.000000 0.000000 40.000000
v -8.000000 0.000000 48.000000
v -8.000000 0.000000 56.000000
v -8.000000 0.000000 64.000000
v 0.000000 0.000000 -64.000000
v 0.000000 0.000000 -56.000000
v 0.000000 0.000000 56.000000
v 0.000000 0.000000 64.000000
v 8.000000 0.000000 -64.000000
v 8.000000 0.824900 -56.000000
v 8.000000 0.000000 -32.000000
v 8.000000 0.000000 40.000000
v 8.000000 0.000000 48.000000
v 8.000000 0.000000 56.000000
v 8.000000 0.000000 64.000000
v 16.000000 0.000000 -64.000000
v 16.000000 1.437169 -56.000000
v 16.000000 0.000000 -32.000000
v 16.000000 0.000000 -24.000000
v 16.000000 0.000000 32.000000
v 16.000000 1.685847 40.000000
v 16.000000 2.879692 48.000000
v 16.000000 1.685847 56.000000
v 16.000000 0.000000 64.000000
v 24.000000 0.000000 -64.000000
v 24.000000 0.731329 -56.000000
v 24.000000 1.251538 -48.000000
v 24.000000 0.000000 -8.000000
v 24.000000 0.000000 0.000000
v 24.000000 0.000000 16.000000
v 24.000000 0.000000 24.000000
v 24.000000 0.000000 32.000000
v 24.000000 2.879692 40.000000
v 24.000000 5.768008 48.000000
v 24.000000 2.879692 56.000000
v 24.000000 0.000000 64.000000
v 32.000000 0.000000 -64.000000
v 32.000000 1.251538 -56.000000
v 32.000000 3.068870 -40.000000
v 32.000000 0.000000 -16.000000
v 32.000000 0.929248 -8.000000
v 32.000000 1.587302 0.000000
v 32.000000 0.751889 16.000000
v 32.000000 2.114280 24.000000
v 32.000000 2.879692 32.000000
v 32.000000 2.092531 40.000000
v 32.000000 3.548518 48.000000
v 32.000000 2.092531 56.000000
v 32.000000 0.000000 64.000000
v 40.000000 0.000000 -64.000000
v 40.000000 0.731329 -56.000000
v 40.000000 3.068870 -48.000000
v 40.000000 4.322801 -40.000000
v 40.000000 3.629081 -32.000000
v 40.000000 1.811827 -24.000000
v 40.000000 0.000000 -16.000000
v 40.000000 1.587302 -8.000000
v 40.000000 3.179357 0.000000
v 40.000000 2.324511 8.000000
v 40.000000 1.506029 16.000000
v 40.000000 3.584285 24.000000
v 40.000000 5.768008 32.000000
v 40.000000 3.548518 40.000000
v 40.000000 1.429579 48.000000
v 40.000000 0.713721 56.000000
v 40.000000 0.000000 64.000000
v 48.000000 0.000000 -64.000000
v 48.000000 0.000000 -56.000000
v 48.000000 1.060691 -48.000000
v 48.000000 1.811827 -40.000000
v 48.000000 1.811827 -32.000000
v 48.000000 1.060691 -24.000000
v 48.000000 0.000000 -16.000000
v 48.000000 0.929248 -8.000000
v 48.000000 1.587302 0.000000
v 48.000000 1.365842 8.000000
v 48.000000 0.751889 16.000000
v 48.000000 2.114280 24.000000
v 48.000000 2.879692 32.000000
v 48.000000 2.092531 40.000000
v 48.000000 0.713721 48.000000
v 48.000000 0.417831 56.000000
v 48.000000 0.000000 64.000000
v 56.000000 0.000000 -64.000000
v 56.000000 0.000000 -56.000000
v 56.000000 0.000000 -48.000000
v 56.000000 0.000000 -40.000000
v 56.000000 0.000000 -32.000000
v 56.000000 0.000000 -24.000000
v 56.000000 0.000000 -16.000000
v 56.000000 0.000000 -8.000000
v 56.000000 0.000000 0.000000
v 56.000000 0.000000 8.000000
v 56.000000 0.000000 16.000000
v 56.000000 0.000000 24.000000
v 56.000000 0.000000 32.000000
v 56.000000 0.000000 40.000000
v 56.000000 0.000000 48.000000
v 56.000000 0.000000 56.000000
v 56.000000 0.000000 64.000000
v 64.000000 0.000000 -64.000000
v 64.000000 0.000000 -56.000000
v 64.000000 0.000000 -48.000000
v 64.000000 0.000000 -40.000000
v 64.000000 0.000000 -32.000000
v 64.000000 0.000000 -24.000000
v 64.000000 0.000000 -16.000000
v 64.000000 0.000000 -8.000000
v 64.000000 0.000000 0.000000
v 64.000000 0.000000 8.000000
v 64.000000 0.000000 16.000000
v 64.000000 0.000000 24.000000
v 64.000000 0.000000 32.000000
v 64.000000 0.000000 40.000000
v 64.000000 0.000000 48.000000
v 64.000000 0.000000 56.000000
v 64.000000 0.000000 64.000000
vt 0.000000 0.000000
vt 0.000000 0.062500
vt 0.062500 0.062500
vt 0.000000 0.000000
vt 0.062500 0.062500
vt 0.062500 0.000000
vt 0.000000 0.062500
vt 0.000000 0.125000
vt 0.062500 0.125000
vt 0.000000 0.062500
vt 0.062500 0.125000
vt 0.062500 0.062500
vt 0.000000 0.125000
vt 0.000000 0.187500
vt 0.062500 0.187500
vt 0.000000 0.125000
vt 0.062500 0.187500
vt 0.062500 0.125000
vt 0.000000 0.187500
vt 0.000000 0.250000
vt 0.062500 0.250000
vt 0.000000 0.187500
vt 0.062500 0.250000
vt 0.062500 0.187500
vt 0.000000 0.250000
vt 0.000000 0.312500
vt 0.062500 0.312500
vt 0.000000 0.250000
vt 0.062500 0.312500
vt 0.062500 0.250000
vt 0.000000 0.312500
vt 0.000000 0.375000
vt 0.062500 0.375000
vt 0.000000 0.312500
vt 0.062500 0.375000
vt 0.062500 0.312500
vt 0.000000 0.375000
vt 0.000000 0.437500
vt 0.062500 0.437500
vt 0.000000 0.375000
vt 0.062500 0.437500
vt 0.062500 0.375000
vt 0.000000 0.437500
vt 0.000000 0.500000
vt 0.062500 0.500000
vt 0.000000 0.437500
vt 0.062500 0.500000
vt 0.062500 0.437500
vt 0.000000 0.500000
vt 0.000000 0.562500
vt 0.062500 0.562500
vt 0.000000 0.500000
vt 0.062500 0.562500
vt 0.062500 0.500000
vt 0.000000 0.562500
vt 0.000000 0.625000
vt 0.062500 0.625000
vt 0.000000 0.562500
vt 0.062500 0.625000
vt 0.062500 0.562500
vt 0.000000 0.625000
vt 0.000000 0.687500
vt 0.062500 0.687500
vt 0.000000 0.625000
vt 0.062500 0.687500
vt 0.062500 0.625000
vt 0.000000 0.687500
vt 0.000000 0.750000
vt 0.062500 0.750000
vt 0.000000 0.687500
vt 0.062500 0.750000
vt 0.062500 0.687500
vt 0.000000 0.750000
vt 0.000000 0.812500
vt 0.062500 0.812500
vt 0.000000 0.750000
vt 0.062500 0.812500
vt 0.062500 0.750000
vt 0.000000 0.812500
vt 0.000000 0.875000
vt 0.062500 0.875000
vt 0.000000 0.812500
vt 0.062500 0.875000
vt 0.062500 0.812500
vt 0.000000 0.875000
vt 0.000000 0.937500
vt 0.062500 0.937500
vt 0.000000 0.875000
vt 0.062500 0.937500
vt 0.062500 0.875000
vt 0.000000 0.937500
vt 0.000000 1.000000
vt 0.062500 1.000000
vt 0.000000 0.937500
vt 0.062500 1.000000
vt 0.062500 0.937500
vt 0.062500 0.000000
vt 0.062500 0.062500
vt 0.125000 0.062500
vt 0.062500 0.000000
vt 0.125000 0.062500
vt 0.125000 0.000000
vt 0.062500 0.062500
vt 0.062500 0.125000
vt 0.125000 0.125000
vt 0.062500 0.062500
vt 0.125000 0.125000
vt 0.125000 0.062500
vt 0.062500 0.125000
vt 0.062500 0.187500
vt 0.125000 0.187500
vt 0.062500 0.125000
vt 0.125000 0.187500
vt 0.125000 0.125000
vt 0.062500 0.187500
vt 0.062500 0.250000
vt 0.125000 0.250000
vt 0.062500 0.187500
vt 0.125000 0.250000
vt 0.125000 0.187500
vt 0.062500 0.250000
vt 0.062500 0.312500
vt 0.125000 0.312500
vt 0.062500 0.250000
vt 0.125000 0.312500
vt 0.125000 0.250000
vt 0.062500 0.312500
vt 0.062500 0.375000
vt 0.125000 0.375000
vt 0.062500 0.312500
vt 0.125000 0.375000
vt 0.125000 0.312500
vt 0.062500 0.375000
vt 0.062500 0.437500
vt 0.125000 0.437500
vt 0.062500 0.375000
vt 0.125000 0.437500
vt 0.125000 0.375000
vt 0.062500 0.437500
vt 0.062500 0.500000
vt 0.125000 0.500000
vt 0.062500 0.437500
vt 0.125000 0.500000
vt 0.125000 0.437500
vt 0.062500 0.500000
vt 0.062500 0.562500
vt 0.125000 0.562500
vt 0.062500 0.500000
vt 0.125000 0.562500
vt 0.125000 0.500000
vt 0.062500 0.562500
vt 0.062500 0.625000
vt 0.125000 0.625000
vt 0.062500 0.562500
vt 0.125000 0.625000
vt 0.125000 0.562500
vt 0.062500 0.625000
vt 0.062500 0.687500
vt 0.125000 0.687500
vt 0.062500 0.625000
vt 0.125000 0.687500
vt 0.125000 0.625000
vt 0.062500 0.687500
vt 0.062500 0.750000
vt 0.125000 0.750000
vt 0.062500 0.687500
vt 0.125000 0.750000
vt 0.125000 0.687500
vt 0.062500 0.750000
vt 0.062500 0.812500
vt 0.125000 0.812500
vt 0.062500 0.750000
vt 0.125000 0.812500
vt 0.125000 0.750000
vt 0.062500 0.812500
vt 0.062500 0.875000
vt 0.125000 0.875000
vt 0.062500 0.812500
vt 0.125000 0.875000
vt 0.125000 0.812500
vt 0.062500 0.875000
vt 0.062500 0.937500
vt 0.125000 0.937500
vt 0.062500 0.875000
vt 0.125000 0.937500
vt 0.125000 0.875000
vt 0.062500 0.937500
vt 0.062500 1.000000
vt 0.125000 1.000000
vt 0.062500 0.937500
vt 0.125000 1.000000
vt 0.125000 0.937500
vt 0.125000 0.000000
vt 0.125000 0.062500
vt 0.187500 0.062500
vt 0.125000 0.000000
vt 0.187500 0.062500
vt 0.187500 0.000000
vt 0.125000 0.062500
vt 0.125000 0.125000
vt 0.187500 0.125000
vt 0.125000 0.062500
vt 0.187500 0.125000
vt 0.187500 0.062500
vt 0.125000 0.125000
vt 0.125000 0.187500
vt 0.187500 0.187500
vt 0.125000 0.125000
vt 0.187500 0.187500
vt 0.187500 0.125000
vt 0.125000 0.187500
vt 0.125000 0.250000
vt 0.187500 0.250000
vt 0.125000 0.187500
vt 0.187500 0.250000
vt 0.187500 0.187500
vt 0.125000 0.250000
vt 0.125000 0.312500
vt 0.187500 0.312500
vt 0.125000 0.250000
vt 0.187500 0.312500
vt 0.187500 0.250000
vt 0.125000 0.312500
vt 0.125000 0.375000
vt 0.187500 0.375000
vt 0.125000 0.312500
vt 0.187500 0.375000
vt 0.187500 0.312500
vt 0.125000 0.375000
vt 0.125000 0.437500
vt 0.187500 0.437500
vt 0.125000 0.375000
vt 0.187500 0.437500
vt 0.187500 0.375000
vt 0.125000 0.437500
vt 0.125000 0.500000
vt 0.187500 0.500000
vt 0.125000 0.437500
vt 0.187500 0.500000
vt 0.187500 0.437500
vt 0.125000 0.500000
vt 0.125000 0.562500
vt 0.187500 0.562500
vt 0.125000 0.500000
vt 0.187500 0.562500
vt 0.187500 0.500000
vt 0.125000 0.562500
vt 0.125000 0.625000
vt 0.187500 0.625000
vt 0.125000 0.562500
vt 0.187500 0.625000
vt 0.187500 0.562500
vt 0.125000 0.625000
vt 0.125000 0.687500
vt 0.187500 0.687500
vt 0.125000 0.625000
vt 0.187500 0.687500
vt 0.187500 0.625000
vt 0.125000 0.687500
vt 0.125000 0.750000
vt 0.187500 0.750000
vt 0.125000 0.687500
vt 0.187500 0.750000
vt 0.187500 0.687500
vt 0.125000 0.750000
vt 0.125000 0.812500
vt 0.187500 0.812500
vt 0.125000 0.750000
vt 0.187500 0.812500
vt 0.187500 0.750000
vt 0.125000 0.812500
vt 0.125000 0.875000
vt 0.187500 0.875000
vt 0.125000 0.812500
vt 0.187500 0.875000
vt 0.187500 0.812500
vt 0.125000 0.875000
vt 0.125000 0.937500
vt 0.187500 0.937500
vt 0.125000 0.875000
vt 0.187500 0.937500
vt 0.187500 0.875000
vt 0.125000 0.937500
vt 0.125000 1.000000
vt 0.187500 1.000000
vt 0.125000 0.937500
vt 0.187500 1.000000
vt 0.187500 0.937500
vt 0.187500 0.000000
vt 0.187500 0.062500
vt 0.250000 0.062500
vt 0.187500 0.000000
vt 0.250000 0.062500
vt 0.250000 0.000000
vt 0.625000 0.312500
vt 0.625000 0.250000
vt 0.562500 0.250000
vt 0.187500 0.125000
vt 0.187500 0.187500
vt 0.250000 0.187500
vt 0.437500 0.250000
vt 0.375000 0.250000
vt 0.375000 0.312500
vt 0.812500 0.250000
vt 0.812500 0.187500
vt 0.750000 0.187500
vt 0.187500 0.312500
vt 0.187500 0.375000
vt 0.250000 0.375000
vt 0.187500 0.375000
vt 0.187500 0.437500
vt 0.250000 0.437500
vt 0.187500 0.375000
vt 0.250000 0.437500
vt 0.250000 0.375000
vt 0.187500 0.437500
vt 0.187500 0.500000
vt 0.250000 0.500000
vt 0.187500 0.437500
vt 0.250000 0.500000
vt 0.250000 0.437500
vt 0.187500 0.500000
vt 0.187500 0.562500
vt 0.250000 0.562500
vt 0.187500 0.500000
vt 0.250000 0.562500
vt 0.250000 0.500000
vt 0.250000 0.562500
vt 0.187500 0.562500
vt 0.187500 0.625000
vt 0.187500 0.625000
vt 0.187500 0.687500
vt 0.250000 0.687500
vt 0.187500 0.625000
vt 0.250000 0.687500
vt 0.250000 0.625000
vt 0.312500 0.500000
vt 0.250000 0.500000
vt 0.250000 0.562500
vt 0.250000 0.187500
vt 0.187500 0.187500
vt 0.187500 0.250000
vt 0.187500 0.812500
vt 0.187500 0.875000
vt 0.250000 0.875000
vt 0.187500 0.812500
vt 0.250000 0.875000
vt 0.250000 0.812500
vt 0.187500 0.875000
vt 0.187500 0.937500
vt 0.250000 0.937500
vt 0.187500 0.875000
vt 0.250000 0.937500
vt 0.250000 0.875000
vt 0.187500 0.937500
vt 0.187500 1.000000
vt 0.250000 1.000000
vt 0.187500 0.937500
vt 0.250000 1.000000
vt 0.250000 0.937500
vt 0.250000 0.000000
vt 0.250000 0.062500
vt 0.312500 0.062500
vt 0.250000 0.000000
vt 0.312500 0.062500
vt 0.312500 0.000000
vt 0.312500 0.125000
vt 0.312500 0.062500
vt 0.250000 0.062500
vt 0.375000 0.062500
vt 0.312500 0.062500
vt 0.312500 0.125000
vt 0.437500 0.125000
vt 0.437500 0.062500
vt 0.375000 0.062500
vt 0.500000 0.062500
vt 0.437500 0.062500
vt 0.437500 0.125000
vt 0.750000 0.062500
vt 0.687500 0.062500
vt 0.687500 0.125000
vt 0.250000 0.375000
vt 0.250000 0.437500
vt 0.312500 0.437500
vt 0.250000 0.437500
vt 0.250000 0.500000
vt 0.312500 0.500000
vt 0.250000 0.437500
vt 0.312500 0.500000
vt 0.312500 0.437500
vt 0.687500 0.125000
vt 0.687500 0.062500
vt 0.625000 0.062500
vt 0.812500 0.125000
vt 0.812500 0.062500
vt 0.750000 0.062500
vt 0.250000 0.625000
vt 0.250000 0.687500
vt 0.312500 0.687500
vt 0.250000 0.625000
vt 0.312500 0.687500
vt 0.312500 0.625000
vt 0.250000 0.062500
vt 0.187500 0.062500
vt 0.187500 0.125000
vt 0.937500 0.937500
vt 0.937500 1.000000
vt 1.000000 1.000000
vt 0.937500 0.937500
vt 1.000000 1.000000
vt 1.000000 0.937500
vt 0.250000 0.812500
vt 0.250000 0.875000
vt 0.312500 0.875000
vt 0.250000 0.812500
vt 0.312500 0.875000
vt 0.312500 0.812500
vt 0.250000 0.875000
vt 0.250000 0.937500
vt 0.312500 0.937500
vt 0.250000 0.875000
vt 0.312500 0.937500
vt 0.312500 0.875000
vt 0.250000 0.937500
vt 0.250000 1.000000
vt 0.312500 1.000000
vt 0.250000 0.937500
vt 0.312500 1.000000
vt 0.312500 0.937500
vt 0.312500 0.000000
vt 0.312500 0.062500
vt 0.375000 0.062500
vt 0.312500 0.000000
vt 0.375000 0.062500
vt 0.375000 0.000000
vt 0.937500 0.875000
vt 0.937500 0.937500
vt 1.000000 0.937500
vt 0.937500 0.875000
vt 1.000000 0.937500
vt 1.000000 0.875000
vt 0.937500 0.812500
vt 0.937500 0.875000
vt 1.000000 0.875000
vt 0.937500 0.812500
vt 1.000000 0.875000
vt 1.000000 0.812500
vt 0.937500 0.750000
vt 0.937500 0.812500
vt 1.000000 0.812500
vt 0.937500 0.750000
vt 1.000000 0.812500
vt 1.000000 0.750000
vt 0.937500 0.687500
vt 0.937500 0.750000
vt 1.000000 0.750000
vt 0.937500 0.687500
vt 1.000000 0.750000
vt 1.000000 0.687500
vt 0.937500 0.625000
vt 0.937500 0.687500
vt 1.000000 0.687500
vt 0.937500 0.625000
vt 1.000000 0.687500
vt 1.000000 0.625000
vt 0.937500 0.562500
vt 0.937500 0.625000
vt 1.000000 0.625000
vt 0.937500 0.562500
vt 1.000000 0.625000
vt 1.000000 0.562500
vt 0.750000 0.812500
vt 0.750000 0.875000
vt 0.812500 0.875000
vt 0.750000 0.812500
vt 0.812500 0.875000
vt 0.812500 0.812500
vt 0.750000 0.875000
vt 0.750000 0.937500
vt 0.812500 0.937500
vt 0.750000 0.875000
vt 0.812500 0.937500
vt 0.812500 0.875000
vt 0.812500 0.687500
vt 0.750000 0.687500
vt 0.750000 0.750000
vt 0.687500 0.625000
vt 0.687500 0.687500
vt 0.750000 0.687500
vt 0.687500 0.625000
vt 0.750000 0.687500
vt 0.750000 0.625000
vt 0.312500 0.687500
vt 0.312500 0.750000
vt 0.375000 0.750000
vt 0.312500 0.750000
vt 0.312500 0.812500
vt 0.375000 0.812500
vt 0.312500 0.750000
vt 0.375000 0.812500
vt 0.375000 0.750000
vt 0.312500 0.812500
vt 0.312500 0.875000
vt 0.375000 0.875000
vt 0.312500 0.812500
vt 0.375000 0.875000
vt 0.375000 0.812500
vt 0.312500 0.875000
vt 0.312500 0.937500
vt 0.375000 0.937500
vt 0.312500 0.875000
vt 0.375000 0.937500
vt 0.375000 0.875000
vt 0.312500 0.937500
vt 0.312500 1.000000
vt 0.375000 1.000000
vt 0.312500 0.937500
vt 0.375000 1.000000
vt 0.375000 0.937500
vt 0.375000 0.000000
vt 0.375000 0.062500
vt 0.437500 0.062500
vt 0.375000 0.000000
vt 0.437500 0.062500
vt 0.437500 0.000000
vt 0.937500 0.500000
vt 0.937500 0.562500
vt 1.000000 0.562500
vt 0.937500 0.500000
vt 1.000000 0.562500
vt 1.000000 0.500000
vt 0.937500 0.437500
vt 0.937500 0.500000
vt 1.000000 0.500000
vt 0.937500 0.437500
vt 1.000000 0.500000
vt 1.000000 0.437500
vt 0.937500 0.375000
vt 0.937500 0.437500
vt 1.000000 0.437500
vt 0.937500 0.375000
vt 1.000000 0.437500
vt 1.000000 0.375000
vt 0.937500 0.312500
vt 0.937500 0.375000
vt 1.000000 0.375000
vt 0.937500 0.312500
vt 1.000000 0.375000
vt 1.000000 0.312500
vt 0.937500 0.250000
vt 0.937500 0.312500
vt 1.000000 0.312500
vt 0.937500 0.250000
vt 1.000000 0.312500
vt 1.000000 0.250000
vt 0.937500 0.187500
vt 0.937500 0.250000
vt 1.000000 0.250000
vt 0.937500 0.187500
vt 1.000000 0.250000
vt 1.000000 0.187500
vt 0.750000 0.625000
vt 0.750000 0.687500
vt 0.812500 0.687500
vt 0.750000 0.625000
vt 0.812500 0.687500
vt 0.812500 0.625000
vt 0.750000 0.937500
vt 0.750000 1.000000
vt 0.812500 1.000000
vt 0.750000 0.937500
vt 0.812500 1.000000
vt 0.812500 0.937500
vt 0.812500 0.000000
vt 0.812500 0.062500
vt 0.875000 0.062500
vt 0.812500 0.000000
vt 0.875000 0.062500
vt 0.875000 0.000000
vt 0.812500 0.062500
vt 0.812500 0.125000
vt 0.875000 0.125000
vt 0.812500 0.062500
vt 0.875000 0.125000
vt 0.875000 0.062500
vt 0.812500 0.125000
vt 0.812500 0.187500
vt 0.875000 0.187500
vt 0.812500 0.125000
vt 0.875000 0.187500
vt 0.875000 0.125000
vt 0.375000 0.750000
vt 0.375000 0.812500
vt 0.437500 0.812500
vt 0.375000 0.812500
vt 0.375000 0.875000
vt 0.437500 0.875000
vt 0.375000 0.812500
vt 0.437500 0.875000
vt 0.437500 0.812500
vt 0.375000 0.875000
vt 0.375000 0.937500
vt 0.437500 0.937500
vt 0.375000 0.875000
vt 0.437500 0.937500
vt 0.437500 0.875000
vt 0.375000 0.937500
vt 0.375000 1.000000
vt 0.437500 1.000000
vt 0.375000 0.937500
vt 0.437500 1.000000
vt 0.437500 0.937500
vt 0.437500 0.000000
vt 0.437500 0.062500
vt 0.500000 0.062500
vt 0.437500 0.000000
vt 0.500000 0.062500
vt 0.500000 0.000000
vt 0.937500 0.125000
vt 0.937500 0.187500
vt 1.000000 0.187500
vt 0.937500 0.125000
vt 1.000000 0.187500
vt 1.000000 0.125000
vt 0.937500 0.062500
vt 0.937500 0.125000
vt 1.000000 0.125000
vt 0.937500 0.062500
vt 1.000000 0.125000
vt 1.000000 0.062500
vt 0.937500 0.000000
vt 0.937500 0.062500
vt 1.000000 0.062500
vt 0.937500 0.000000
vt 1.000000 0.062500
vt 1.000000 0.000000
vt 0.875000 0.937500
vt 0.875000 1.000000
vt 0.937500 1.000000
vt 0.875000 0.937500
vt 0.937500 1.000000
vt 0.937500 0.937500
vt 0.875000 0.875000
vt 0.875000 0.937500
vt 0.937500 0.937500
vt 0.875000 0.875000
vt 0.937500 0.937500
vt 0.937500 0.875000
vt 0.875000 0.812500
vt 0.875000 0.875000
vt 0.937500 0.875000
vt 0.875000 0.812500
vt 0.937500 0.875000
vt 0.937500 0.812500
vt 0.750000 0.437500
vt 0.750000 0.500000
vt 0.812500 0.500000
vt 0.750000 0.437500
vt 0.812500 0.500000
vt 0.812500 0.437500
vt 0.750000 0.375000
vt 0.750000 0.437500
vt 0.812500 0.437500
vt 0.750000 0.375000
vt 0.812500 0.437500
vt 0.812500 0.375000
vt 0.750000 0.375000
vt 0.812500 0.375000
vt 0.812500 0.312500
vt 0.687500 0.437500
vt 0.687500 0.500000
vt 0.750000 0.500000
vt 0.687500 0.437500
vt 0.750000 0.500000
vt 0.750000 0.437500
vt 0.687500 0.437500
vt 0.750000 0.437500
vt 0.750000 0.375000
vt 0.812500 0.375000
vt 0.812500 0.437500
vt 0.875000 0.437500
vt 0.812500 0.375000
vt 0.875000 0.437500
vt 0.875000 0.375000
vt 0.625000 0.937500
vt 0.625000 1.000000
vt 0.687500 1.000000
vt 0.625000 0.937500
vt 0.687500 1.000000
vt 0.687500 0.937500
vt 0.625000 0.875000
vt 0.625000 0.937500
vt 0.687500 0.937500
vt 0.625000 0.875000
vt 0.687500 0.937500
vt 0.687500 0.875000
vt 0.437500 0.937500
vt 0.437500 1.000000
vt 0.500000 1.000000
vt 0.437500 0.937500
vt 0.500000 1.000000
vt 0.500000 0.937500
vt 0.500000 0.000000
vt 0.500000 0.062500
vt 0.562500 0.062500
vt 0.500000 0.000000
vt 0.562500 0.062500
vt 0.562500 0.000000
vt 0.875000 0.750000
vt 0.875000 0.812500
vt 0.937500 0.812500
vt 0.875000 0.750000
vt 0.937500 0.812500
vt 0.937500 0.750000
vt 0.875000 0.687500
vt 0.875000 0.750000
vt 0.937500 0.750000
vt 0.875000 0.687500
vt 0.937500 0.750000
vt 0.937500 0.687500
vt 0.875000 0.625000
vt 0.875000 0.687500
vt 0.937500 0.687500
vt 0.875000 0.625000
vt 0.937500 0.687500
vt 0.937500 0.625000
vt 0.875000 0.562500
vt 0.875000 0.625000
vt 0.937500 0.625000
vt 0.875000 0.562500
vt 0.937500 0.625000
vt 0.937500 0.562500
vt 0.875000 0.500000
vt 0.875000 0.562500
vt 0.937500 0.562500
vt 0.875000 0.500000
vt 0.937500 0.562500
vt 0.937500 0.500000
vt 0.875000 0.437500
vt 0.875000 0.500000
vt 0.937500 0.500000
vt 0.875000 0.437500
vt 0.937500 0.500000
vt 0.937500 0.437500
vt 0.812500 0.187500
vt 0.812500 0.250000
vt 0.875000 0.250000
vt 0.812500 0.187500
vt 0.875000 0.250000
vt 0.875000 0.187500
vt 0.812500 0.250000
vt 0.812500 0.312500
vt 0.875000 0.312500
vt 0.812500 0.250000
vt 0.875000 0.312500
vt 0.875000 0.250000
vt 0.750000 0.187500
vt 0.812500 0.187500
vt 0.812500 0.125000
vt 0.812500 0.437500
vt 0.812500 0.500000
vt 0.875000 0.500000
vt 0.812500 0.437500
vt 0.875000 0.500000
vt 0.875000 0.437500
vt 0.812500 0.500000
vt 0.812500 0.562500
vt 0.875000 0.562500
vt 0.812500 0.500000
vt 0.875000 0.562500
vt 0.875000 0.500000
vt 0.812500 0.562500
vt 0.812500 0.625000
vt 0.875000 0.625000
vt 0.812500 0.562500
vt 0.875000 0.625000
vt 0.875000 0.562500
vt 0.625000 0.812500
vt 0.625000 0.875000
vt 0.687500 0.875000
vt 0.625000 0.812500
vt 0.687500 0.875000
vt 0.687500 0.812500
vt 0.625000 0.750000
vt 0.625000 0.812500
vt 0.687500 0.812500
vt 0.625000 0.750000
vt 0.687500 0.812500
vt 0.687500 0.750000
vt 0.500000 0.937500
vt 0.500000 1.000000
vt 0.562500 1.000000
vt 0.500000 0.937500
vt 0.562500 1.000000
vt 0.562500 0.937500
vt 0.562500 0.000000
vt 0.562500 0.062500
vt 0.625000 0.062500
vt 0.562500 0.000000
vt 0.625000 0.062500
vt 0.625000 0.000000
vt 0.875000 0.375000
vt 0.875000 0.437500
vt 0.937500 0.437500
vt 0.875000 0.375000
vt 0.937500 0.437500
vt 0.937500 0.375000
vt 0.875000 0.312500
vt 0.875000 0.375000
vt 0.937500 0.375000
vt 0.875000 0.312500
vt 0.937500 0.375000
vt 0.937500 0.312500
vt 0.875000 0.250000
vt 0.875000 0.312500
vt 0.937500 0.312500
vt 0.875000 0.250000
vt 0.937500 0.312500
vt 0.937500 0.250000
vt 0.875000 0.187500
vt 0.875000 0.250000
vt 0.937500 0.250000
vt 0.875000 0.187500
vt 0.937500 0.250000
vt 0.937500 0.187500
vt 0.875000 0.125000
vt 0.875000 0.187500
vt 0.937500 0.187500
vt 0.875000 0.125000
vt 0.937500 0.187500
vt 0.937500 0.125000
vt 0.875000 0.062500
vt 0.875000 0.125000
vt 0.937500 0.125000
vt 0.875000 0.062500
vt 0.937500 0.125000
vt 0.937500 0.062500
vt 0.812500 0.312500
vt 0.812500 0.375000
vt 0.875000 0.375000
vt 0.812500 0.312500
vt 0.875000 0.375000
vt 0.875000 0.312500
vt 0.750000 0.000000
vt 0.750000 0.062500
vt 0.812500 0.062500
vt 0.750000 0.000000
vt 0.812500 0.062500
vt 0.812500 0.000000
vt 0.687500 0.937500
vt 0.687500 1.000000
vt 0.750000 1.000000
vt 0.687500 0.937500
vt 0.750000 1.000000
vt 0.750000 0.937500
vt 0.812500 0.625000
vt 0.812500 0.687500
vt 0.875000 0.687500
vt 0.812500 0.625000
vt 0.875000 0.687500
vt 0.875000 0.625000
vt 0.687500 0.000000
vt 0.687500 0.062500
vt 0.750000 0.062500
vt 0.687500 0.000000
vt 0.750000 0.062500
vt 0.750000 0.000000
vt 0.562500 0.812500
vt 0.625000 0.812500
vt 0.625000 0.750000
vt 0.562500 0.812500
vt 0.562500 0.875000
vt 0.625000 0.875000
vt 0.562500 0.812500
vt 0.625000 0.875000
vt 0.625000 0.812500
vt 0.562500 0.875000
vt 0.562500 0.937500
vt 0.625000 0.937500
vt 0.562500 0.875000
vt 0.625000 0.937500
vt 0.625000 0.875000
vt 0.562500 0.937500
vt 0.562500 1.000000
vt 0.625000 1.000000
vt 0.562500 0.937500
vt 0.625000 1.000000
vt 0.625000 0.937500
vt 0.625000 0.000000
vt 0.625000 0.062500
vt 0.687500 0.062500
vt 0.625000 0.000000
vt 0.687500 0.062500
vt 0.687500 0.000000
vt 0.875000 0.000000
vt 0.875000 0.062500
vt 0.937500 0.062500
vt 0.875000 0.000000
vt 0.937500 0.062500
vt 0.937500 0.000000
vt 0.812500 0.937500
vt 0.812500 1.000000
vt 0.875000 1.000000
vt 0.812500 0.937500
vt 0.875000 1.000000
vt 0.875000 0.937500
vt 0.812500 0.875000
vt 0.812500 0.937500
vt 0.875000 0.937500
vt 0.812500 0.875000
vt 0.875000 0.937500
vt 0.875000 0.875000
vt 0.812500 0.812500
vt 0.812500 0.875000
vt 0.875000 0.875000
vt 0.812500 0.812500
vt 0.875000 0.875000
vt 0.875000 0.812500
vt 0.812500 0.750000
vt 0.812500 0.812500
vt 0.875000 0.812500
vt 0.812500 0.750000
vt 0.875000 0.812500
vt 0.875000 0.750000
vt 0.812500 0.687500
vt 0.812500 0.750000
vt 0.875000 0.750000
vt 0.812500 0.687500
vt 0.875000 0.750000
vt 0.875000 0.687500
vt 0.687500 0.875000
vt 0.687500 0.937500
vt 0.750000 0.937500
vt 0.687500 0.875000
vt 0.750000 0.937500
vt 0.750000 0.875000
vt 0.687500 0.812500
vt 0.687500 0.875000
vt 0.750000 0.875000
vt 0.687500 0.812500
vt 0.750000 0.875000
vt 0.750000 0.812500
vt 0.750000 0.750000
vt 0.687500 0.750000
vt 0.687500 0.812500
vt 0.687500 0.687500
vt 0.687500 0.750000
vt 0.750000 0.750000
vt 0.687500 0.687500
vt 0.750000 0.750000
vt 0.750000 0.687500
vt 0.625000 0.750000
vt 0.687500 0.750000
vt 0.687500 0.687500
vn 0.000000 1.000000 0.000000
vn 0.000000 1.000000 0.000000
vn -0.052706 0.998484 -0.015863
vn 0.000000 1.000000 0.000000
vn -0.052706 0.998484 -0.015863
vn -0.036959 0.998633 -0.036959
vn 0.000000 1.000000 0.000000
vn 0.000000 1.000000 0.000000
vn -0.073051 0.997317 -0.004686
vn 0.000000 1.000000 0.000000
vn -0.073051 0.997317 -0.004686
vn -0.052706 0.998484 -0.015863
vn 0.000000 1.000000 0.000000
vn 0.000000 1.000000 0.000000
vn -0.074587 0.997210 0.003141
vn 0.000000 1.000000 0.000000
vn -0.074587 0.997210 0.003141
vn -0.073051 0.997317 -0.004686
vn 0.000000 1.000000 0.000000
vn 0.000000 1.000000 0.000000
vn -0.055896 0.998313 0.015727
vn 0.000000 1.000000 0.000000
vn -0.055896 0.998313 0.015727
vn -0.074587 0.997210 0.003141
vn 0.000000 1.000000 0.000000
vn 0.000000 1.000000 0.000000
vn -0.051995 0.998578 -0.011732
vn 0.000000 1.000000 0.000000
vn -0.051995 0.998578 -0.011732
vn -0.055896 0.998313 0.015727
vn 0.000000 1.000000 0.000000
vn 0.000000 1.000000 0.000000
vn -0.096631 0.994739 -0.033997
vn 0.000000 1.000000 0.000000
vn -0.096631 0.994739 -0.033997
vn -0.051995 0.998578 -0.011732
vn 0.000000 1.000000 0.000000
vn 0.000000 1.000000 0.000000
vn -0.129786 0.991542 0.000000
vn 0.000000 1.000000 0.000000
vn -0.129786 0.991542 0.000000
vn -0.096631 0.994739 -0.033997
vn 0.000000 1.000000 0.000000
vn 0.000000 1.000000 0.000000
vn -0.089237 0.995147 0.041460
vn 0.000000 1.000000 0.000000
vn -0.089237 0.995147 0.041460
vn -0.129786 0.991542 0.000000
vn 0.000000 1.000000 0.000000
vn 0.000000 1.000000 0.000000
vn -0.024426 0.999403 0.024426
vn 0.000000 1.000000 0.000000
vn -0.024426 0.999403 0.024426
vn -0.089237 0.995147 0.041460
vn 0.000000 1.000000 0.000000
vn 0.000000 1.000000 0.000000
vn 0.000000 1.000000 0.000000
vn 0.000000 1.000000 0.000000
vn 0.000000 1.000000 0.000000
vn -0.024426 0.999403 0.024426
vn 0.000000 1.000000 0.000000
vn 0.000000 1.000000 0.000000
vn 0.000000 1.000000 0.000000
vn 0.000000 1.000000 0.000000
vn 0.000000 1.000000 0.000000
vn 0.000000 1.000000 0.000000
vn 0.000000 1.000000 0.000000
vn 0.000000 1.000000 0.000000
vn 0.000000 1.000000 0.000000
vn 0.000000 1.000000 0.000000
vn 0.000000 1.000000 0.000000
vn 0.000000 1.000000 0.000000
vn 0.000000 1.000000 0.000000
vn 0.000000 1.000000 0.000000
vn 0.000000 1.000000 0.000000
vn 0.000000 1.000000 0.000000
vn 0.000000 1.000000 0.000000
vn 0.000000 1.000000 0.000000
vn 0.000000 1.000000 0.000000
vn 0.000000 1.000000 0.000000
vn 0.000000 1.000000 0.000000
vn 0.000000 1.000000 0.000000
vn 0.000000 1.000000 0.000000
vn 0.000000 1.000000 0.000000
vn 0.000000 1.000000 0.000000
vn 0.000000 1.000000 0.000000
vn 0.000000 1.000000 0.000000
vn 0.000000 1.000000 0.000000
vn 0.000000 1.000000 0.000000
vn 0.000000 1.000000 0.000000
vn 0.000000 1.000000 0.000000
vn 0.000000 1.000000 0.000000
vn 0.000000 1.000000 0.000000
vn 0.000000 1.000000 0.000000
vn 0.000000 1.000000 0.000000
vn 0.000000 1.000000 0.000000
vn -0.036959 0.998633 -0.036959
vn -0.052706 0.998484 -0.015863
vn -0.092520 0.993537 -0.065757
vn -0.036959 0.998633 -0.036959
vn -0.092520 0.993537 -0.065757
vn -0.057823 0.989722 -0.130794
vn -0.052706 0.998484 -0.015863
vn -0.073051 0.997317 -0.004686
vn -0.131120 0.991268 -0.013964
vn -0.052706 0.998484 -0.015863
vn -0.131120 0.991268 -0.013964
vn -0.092520 0.993537 -0.065757
vn -0.073051 0.997317 -0.004686
vn -0.074587 0.997210 0.003141
vn -0.126671 0.991826 0.015375
vn -0.073051 0.997317 -0.004686
vn -0.126671 0.991826 0.015375
vn -0.131120 0.991268 -0.013964
vn -0.074587 0.997210 0.003141
vn -0.055896 0.998313 0.015727
vn -0.096925 0.993914 0.052359
vn -0.074587 0.997210 0.003141
vn -0.096925 0.993914 0.052359
vn -0.126671 0.991826 0.015375
vn -0.055896 0.998313 0.015727
vn -0.051995 0.998578 -0.011732
vn -0.092568 0.994926 -0.039414
vn -0.055896 0.998313 0.015727
vn -0.092568 0.994926 -0.039414
vn -0.096925 0.993914 0.052359
vn -0.051995 0.998578 -0.011732
vn -0.096631 0.994739 -0.033997
vn -0.175619 0.974958 -0.136433
vn -0.051995 0.998578 -0.011732
vn -0.175619 0.974958 -0.136433
vn -0.092568 0.994926 -0.039414
vn -0.096631 0.994739 -0.033997
vn -0.129786 0.991542 0.000000
vn -0.244973 0.969530 0.000000
vn -0.096631 0.994739 -0.033997
vn -0.244973 0.969530 0.000000
vn -0.175619 0.974958 -0.136433
vn -0.129786 0.991542 0.000000
vn -0.089237 0.995147 0.041460
vn -0.163035 0.973057 0.163035
vn -0.129786 0.991542 0.000000
vn -0.163035 0.973057 0.163035
vn -0.244973 0.969530 0.000000
vn -0.089237 0.995147 0.041460
vn -0.024426 0.999403 0.024426
vn -0.057580 0.995645 0.073316
vn -0.089237 0.995147 0.041460
vn -0.057580 0.995645 0.073316
vn -0.163035 0.973057 0.163035
vn -0.024426 0.999403 0.024426
vn 0.000000 1.000000 0.000000
vn -0.058727 0.997905 -0.027153
vn -0.024426 0.999403 0.024426
vn -0.058727 0.997905 -0.027153
vn -0.057580 0.995645 0.073316
vn 0.000000 1.000000 0.000000
vn 0.000000 1.000000 0.000000
vn -0.099414 0.994944 -0.014245
vn 0.000000 1.000000 0.000000
vn -0.099414 0.994944 -0.014245
vn -0.058727 0.997905 -0.027153
vn 0.000000 1.000000 0.000000
vn 0.000000 1.000000 0.000000
vn -0.110937 0.993825 0.002392
vn 0.000000 1.000000 0.000000
vn -0.110937 0.993825 0.002392
vn -0.099414 0.994944 -0.014245
vn 0.000000 1.000000 0.000000
vn 0.000000 1.000000 0.000000
vn -0.093378 0.995508 0.015657
vn 0.000000 1.000000 0.000000
vn -0.093378 0.995508 0.015657
vn -0.110937 0.993825 0.002392
vn 0.000000 1.000000 0.000000
vn 0.000000 1.000000 0.000000
vn -0.053593 0.998256 0.024764
vn 0.000000 1.000000 0.000000
vn -0.053593 0.998256 0.024764
vn -0.093378 0.995508 0.015657
vn 0.000000 1.000000 0.000000
vn 0.000000 1.000000 0.000000
vn -0.014531 0.999789 0.014531
vn 0.000000 1.000000 0.000000
vn -0.014531 0.999789 0.014531
vn -0.053593 0.998256 0.024764
vn 0.000000 1.000000 0.000000
vn 0.000000 1.000000 0.000000
vn 0.000000 1.000000 0.000000
vn 0.000000 1.000000 0.000000
vn 0.000000 1.000000 0.000000
vn -0.014531 0.999789 0.014531
vn -0.057823 0.989722 -0.130794
vn -0.092520 0.993537 -0.065757
vn -0.115891 0.983161 -0.141295
vn -0.057823 0.989722 -0.130794
vn -0.115891 0.983161 -0.141295
vn -0.069929 0.964866 -0.253266
vn -0.092520 0.993537 -0.065757
vn -0.131120 0.991268 -0.013964
vn -0.058228 0.998131 -0.018545
vn -0.092520 0.993537 -0.065757
vn -0.058228 0.998131 -0.018545
vn -0.115891 0.983161 -0.141295
vn -0.131120 0.991268 -0.013964
vn -0.126671 0.991826 0.015375
vn 0.051387 0.998213 0.030504
vn -0.131120 0.991268 -0.013964
vn 0.051387 0.998213 0.030504
vn -0.058228 0.998131 -0.018545
vn -0.126671 0.991826 0.015375
vn -0.096925 0.993914 0.052359
vn 0.013870 0.997383 0.070950
vn -0.126671 0.991826 0.015375
vn 0.013870 0.997383 0.070950
vn 0.051387 0.998213 0.030504
vn -0.096925 0.993914 0.052359
vn -0.092568 0.994926 -0.039414
vn -0.008910 0.993481 -0.113653
vn -0.096925 0.993914 0.052359
vn -0.008910 0.993481 -0.113653
vn 0.013870 0.997383 0.070950
vn -0.092568 0.994926 -0.039414
vn -0.175619 0.974958 -0.136433
vn 0.011579 0.975753 -0.218570
vn -0.092568 0.994926 -0.039414
vn 0.011579 0.975753 -0.218570
vn -0.008910 0.993481 -0.113653
vn -0.175619 0.974958 -0.136433
vn -0.244973 0.969530 0.000000
vn 0.000000 1.000000 0.000000
vn -0.175619 0.974958 -0.136433
vn 0.000000 1.000000 0.000000
vn 0.011579 0.975753 -0.218570
vn -0.244973 0.969530 0.000000
vn -0.163035 0.973057 0.163035
vn 0.000000 0.969530 0.244973
vn -0.244973 0.969530 0.000000
vn 0.000000 0.969530 0.244973
vn 0.000000 1.000000 0.000000
vn -0.163035 0.973057 0.163035
vn -0.057580 0.995645 0.073316
vn -0.016212 0.996473 0.082330
vn -0.163035 0.973057 0.163035
vn -0.016212 0.996473 0.082330
vn 0.000000 0.969530 0.244973
vn -0.057580 0.995645 0.073316
vn -0.058727 0.997905 -0.027153
vn -0.096713 0.990579 -0.096956
vn -0.057580 0.995645 0.073316
vn -0.096713 0.990579 -0.096956
vn -0.016212 0.996473 0.082330
vn -0.058727 0.997905 -0.027153
vn -0.099414 0.994944 -0.014245
vn -0.182700 0.980710 -0.069488
vn -0.058727 0.997905 -0.027153
vn -0.182700 0.980710 -0.069488
vn -0.096713 0.990579 -0.096956
vn -0.099414 0.994944 -0.014245
vn -0.110937 0.993825 0.002392
vn -0.220520 0.975371 0.004755
vn -0.099414 0.994944 -0.014245
vn -0.220520 0.975371 0.004755
vn -0.182700 0.980710 -0.069488
vn -0.110937 0.993825 0.002392
vn -0.093378 0.995508 0.015657
vn -0.170365 0.983098 0.067035
vn -0.110937 0.993825 0.002392
vn -0.170365 0.983098 0.067035
vn -0.220520 0.975371 0.004755
vn -0.093378 0.995508 0.015657
vn -0.053593 0.998256 0.024764
vn -0.098493 0.990251 0.098493
vn -0.093378 0.995508 0.015657
vn -0.098493 0.990251 0.098493
vn -0.170365 0.983098 0.067035
vn -0.053593 0.998256 0.024764
vn -0.014531 0.999789 0.014531
vn -0.024764 0.998256 0.053593
vn -0.053593 0.998256 0.024764
vn -0.024764 0.998256 0.053593
vn -0.098493 0.990251 0.098493
vn -0.014531 0.999789 0.014531
vn 0.000000 1.000000 0.000000
vn 0.000000 1.000000 0.000000
vn -0.014531 0.999789 0.014531
vn 0.000000 1.000000 0.000000
vn -0.024764 0.998256 0.053593
vn -0.069929 0.964866 -0.253266
vn -0.115891 0.983161 -0.141295
vn 0.081344 0.985549 -0.148583
vn -0.069929 0.964866 -0.253266
vn 0.081344 0.985549 -0.148583
vn 0.057045 0.961805 -0.267725
vn 0.000000 1.000000 0.000000
vn 0.000000 1.000000 0.000000
vn 0.000000 1.000000 0.000000
vn -0.058228 0.998131 -0.018545
vn 0.051387 0.998213 0.030504
vn 0.205829 0.977934 0.035781
vn 0.000000 1.000000 0.000000
vn 0.000000 1.000000 0.000000
vn 0.000000 1.000000 0.000000
vn 0.089221 0.991356 0.096191
vn 0.057446 0.997647 -0.037429
vn -0.154761 0.987364 -0.034079
vn -0.008910 0.993481 -0.113653
vn 0.011579 0.975753 -0.218570
vn 0.226387 0.954294 -0.195119
vn 0.011579 0.975753 -0.218570
vn 0.000000 1.000000 0.000000
vn 0.260479 0.965343 -0.016217
vn 0.011579 0.975753 -0.218570
vn 0.260479 0.965343 -0.016217
vn 0.226387 0.954294 -0.195119
vn 0.000000 1.000000 0.000000
vn 0.000000 0.969530 0.244973
vn 0.185961 0.964799 0.185961
vn 0.000000 1.000000 0.000000
vn 0.185961 0.964799 0.185961
vn 0.260479 0.965343 -0.016217
vn 0.000000 0.969530 0.244973
vn -0.016212 0.996473 0.082330
vn 0.087158 0.990267 0.108511
vn 0.000000 0.969530 0.244973
vn 0.087158 0.990267 0.108511
vn 0.185961 0.964799 0.185961
vn 0.087158 0.990267 0.108511
vn -0.016212 0.996473 0.082330
vn -0.096713 0.990579 -0.096956
vn -0.096713 0.990579 -0.096956
vn -0.182700 0.980710 -0.069488
vn 0.000000 0.988214 -0.153076
vn -0.096713 0.990579 -0.096956
vn 0.000000 0.988214 -0.153076
vn 0.000000 0.988214 -0.153076
vn 0.223946 0.966055 0.128785
vn 0.185961 0.964799 0.185961
vn 0.087158 0.990267 0.108511
vn 0.205829 0.977934 0.035781
vn 0.051387 0.998213 0.030504
vn 0.013870 0.997383 0.070950
vn -0.170365 0.983098 0.067035
vn -0.098493 0.990251 0.098493
vn 0.000000 0.989007 0.147866
vn -0.170365 0.983098 0.067035
vn 0.000000 0.989007 0.147866
vn 0.000000 0.990188 0.139742
vn -0.098493 0.990251 0.098493
vn -0.024764 0.998256 0.053593
vn 0.000000 0.996941 0.078161
vn -0.098493 0.990251 0.098493
vn 0.000000 0.996941 0.078161
vn 0.000000 0.989007 0.147866
vn -0.024764 0.998256 0.053593
vn 0.000000 1.000000 0.000000
vn 0.000000 1.000000 0.000000
vn -0.024764 0.998256 0.053593
vn 0.000000 1.000000 0.000000
vn 0.000000 0.996941 0.078161
vn 0.057045 0.961805 -0.267725
vn 0.081344 0.985549 -0.148583
vn 0.057096 0.994351 -0.089474
vn 0.057045 0.961805 -0.267725
vn 0.057096 0.994351 -0.089474
vn 0.039295 0.983877 -0.174475
vn 0.075214 0.997167 0.000000
vn 0.057096 0.994351 -0.089474
vn 0.081344 0.985549 -0.148583
vn -0.071394 0.996499 -0.043495
vn 0.057096 0.994351 -0.089474
vn 0.075214 0.997167 0.000000
vn 0.131479 0.973468 0.187277
vn 0.100826 0.994812 0.013529
vn -0.071394 0.996499 -0.043495
vn 0.077482 0.996907 0.013132
vn 0.100826 0.994812 0.013529
vn 0.131479 0.973468 0.187277
vn -0.000617 0.988940 -0.148312
vn 0.008614 0.995262 -0.096849
vn 0.011509 0.997826 -0.064885
vn 0.226387 0.954294 -0.195119
vn 0.260479 0.965343 -0.016217
vn 0.288153 0.957047 -0.032084
vn 0.260479 0.965343 -0.016217
vn 0.185961 0.964799 0.185961
vn 0.223946 0.966055 0.128785
vn 0.260479 0.965343 -0.016217
vn 0.223946 0.966055 0.128785
vn 0.288153 0.957047 -0.032084
vn 0.011509 0.997826 -0.064885
vn 0.008614 0.995262 -0.096849
vn 0.031232 0.993090 -0.113120
vn 0.087315 0.977480 -0.192119
vn 0.076748 0.983433 -0.164224
vn -0.000617 0.988940 -0.148312
vn 0.000000 0.988214 -0.153076
vn 0.000000 0.988214 -0.153076
vn 0.151313 0.976836 -0.151313
vn 0.000000 0.988214 -0.153076
vn 0.151313 0.976836 -0.151313
vn 0.151313 0.976836 -0.151313
vn 0.081344 0.985549 -0.148583
vn -0.115891 0.983161 -0.141295
vn -0.058228 0.998131 -0.018545
vn 0.024169 0.999646 0.011140
vn 0.013051 0.999830 0.013051
vn 0.000000 1.000000 0.000000
vn 0.024169 0.999646 0.011140
vn 0.000000 1.000000 0.000000
vn 0.000000 1.000000 0.000000
vn 0.000000 0.990188 0.139742
vn 0.000000 0.989007 0.147866
vn 0.098493 0.990251 0.098493
vn 0.000000 0.990188 0.139742
vn 0.098493 0.990251 0.098493
vn 0.170365 0.983098 0.067035
vn 0.000000 0.989007 0.147866
vn 0.000000 0.996941 0.078161
vn 0.024764 0.998256 0.053593
vn 0.000000 0.989007 0.147866
vn 0.024764 0.998256 0.053593
vn 0.098493 0.990251 0.098493
vn 0.000000 0.996941 0.078161
vn 0.000000 1.000000 0.000000
vn 0.000000 1.000000 0.000000
vn 0.000000 0.996941 0.078161
vn 0.000000 1.000000 0.000000
vn 0.024764 0.998256 0.053593
vn 0.039295 0.983877 -0.174475
vn 0.057096 0.994351 -0.089474
vn -0.071394 0.996499 -0.043495
vn 0.039295 0.983877 -0.174475
vn -0.071394 0.996499 -0.043495
vn -0.047633 0.982486 -0.180148
vn 0.060857 0.997812 0.025836
vn 0.024169 0.999646 0.011140
vn 0.000000 1.000000 0.000000
vn 0.060857 0.997812 0.025836
vn 0.000000 1.000000 0.000000
vn 0.000000 1.000000 0.000000
vn 0.118168 0.992440 0.033164
vn 0.060857 0.997812 0.025836
vn 0.000000 1.000000 0.000000
vn 0.118168 0.992440 0.033164
vn 0.000000 1.000000 0.000000
vn 0.000000 1.000000 0.000000
vn 0.150308 0.988639 0.000332
vn 0.118168 0.992440 0.033164
vn 0.000000 1.000000 0.000000
vn 0.150308 0.988639 0.000332
vn 0.000000 1.000000 0.000000
vn 0.000000 1.000000 0.000000
vn 0.119383 0.992314 -0.032570
vn 0.150308 0.988639 0.000332
vn 0.000000 1.000000 0.000000
vn 0.119383 0.992314 -0.032570
vn 0.000000 1.000000 0.000000
vn 0.000000 1.000000 0.000000
vn 0.077023 0.996964 -0.011424
vn 0.119383 0.992314 -0.032570
vn 0.000000 1.000000 0.000000
vn 0.077023 0.996964 -0.011424
vn 0.000000 1.000000 0.000000
vn 0.000000 1.000000 0.000000
vn 0.078416 0.996837 0.012949
vn 0.077023 0.996964 -0.011424
vn 0.000000 1.000000 0.000000
vn 0.078416 0.996837 0.012949
vn 0.000000 1.000000 0.000000
vn 0.000000 1.000000 0.000000
vn 0.111454 0.987689 -0.109761
vn 0.155699 0.986819 0.044115
vn 0.112390 0.987288 0.112390
vn 0.111454 0.987689 -0.109761
vn 0.112390 0.987288 0.112390
vn 0.144544 0.978841 0.144835
vn 0.155699 0.986819 0.044115
vn 0.131003 0.967691 0.215433
vn 0.094776 0.989438 0.109679
vn 0.155699 0.986819 0.044115
vn 0.094776 0.989438 0.109679
vn 0.112390 0.987288 0.112390
vn 0.020070 0.984451 -0.174509
vn -0.197729 0.974268 -0.108193
vn -0.268761 0.950672 -0.154888
vn -0.175713 0.980892 -0.083522
vn -0.159098 0.986308 -0.043405
vn -0.197729 0.974268 -0.108193
vn -0.175713 0.980892 -0.083522
vn -0.197729 0.974268 -0.108193
vn -0.155527 0.976947 -0.146240
vn 0.236387 0.971360 -0.024101
vn 0.226246 0.974069 -0.001253
vn 0.151691 0.988428 -0.000840
vn 0.226246 0.974069 -0.001253
vn 0.170365 0.983098 0.067035
vn 0.093378 0.995508 0.015657
vn 0.226246 0.974069 -0.001253
vn 0.093378 0.995508 0.015657
vn 0.151691 0.988428 -0.000840
vn 0.170365 0.983098 0.067035
vn 0.098493 0.990251 0.098493
vn 0.053593 0.998256 0.024764
vn 0.170365 0.983098 0.067035
vn 0.053593 0.998256 0.024764
vn 0.093378 0.995508 0.015657
vn 0.098493 0.990251 0.098493
vn 0.024764 0.998256 0.053593
vn 0.014531 0.999789 0.014531
vn 0.098493 0.990251 0.098493
vn 0.014531 0.999789 0.014531
vn 0.053593 0.998256 0.024764
vn 0.024764 0.998256 0.053593
vn 0.000000 1.000000 0.000000
vn 0.000000 1.000000 0.000000
vn 0.024764 0.998256 0.053593
vn 0.000000 1.000000 0.000000
vn 0.014531 0.999789 0.014531
vn -0.047633 0.982486 -0.180148
vn -0.071394 0.996499 -0.043495
vn 0.100826 0.994812 0.013529
vn -0.047633 0.982486 -0.180148
vn 0.100826 0.994812 0.013529
vn 0.066950 0.984708 -0.160832
vn 0.084507 0.996400 -0.006772
vn 0.078416 0.996837 0.012949
vn 0.000000 1.000000 0.000000
vn 0.084507 0.996400 -0.006772
vn 0.000000 1.000000 0.000000
vn 0.000000 1.000000 0.000000
vn 0.053408 0.998268 -0.024678
vn 0.084507 0.996400 -0.006772
vn 0.000000 1.000000 0.000000
vn 0.053408 0.998268 -0.024678
vn 0.000000 1.000000 0.000000
vn 0.000000 1.000000 0.000000
vn 0.031017 0.999517 0.002033
vn 0.053408 0.998268 -0.024678
vn 0.000000 1.000000 0.000000
vn 0.031017 0.999517 0.002033
vn 0.000000 1.000000 0.000000
vn 0.000000 1.000000 0.000000
vn 0.060816 0.997753 0.028126
vn 0.031017 0.999517 0.002033
vn 0.000000 1.000000 0.000000
vn 0.060816 0.997753 0.028126
vn 0.000000 1.000000 0.000000
vn 0.000000 1.000000 0.000000
vn 0.099883 0.994932 0.011601
vn 0.060816 0.997753 0.028126
vn 0.000000 1.000000 0.000000
vn 0.099883 0.994932 0.011601
vn 0.000000 1.000000 0.000000
vn 0.000000 1.000000 0.000000
vn 0.099883 0.994932 -0.011601
vn 0.099883 0.994932 0.011601
vn 0.000000 1.000000 0.000000
vn 0.099883 0.994932 -0.011601
vn 0.000000 1.000000 0.000000
vn 0.000000 1.000000 0.000000
vn -0.155527 0.976947 -0.146240
vn -0.197729 0.974268 -0.108193
vn 0.020070 0.984451 -0.174509
vn -0.155527 0.976947 -0.146240
vn 0.020070 0.984451 -0.174509
vn 0.035963 0.993142 -0.111248
vn 0.131003 0.967691 0.215433
vn 0.065898 0.969806 0.234804
vn 0.051606 0.991241 0.121562
vn 0.131003 0.967691 0.215433
vn 0.051606 0.991241 0.121562
vn 0.094776 0.989438 0.109679
vn 0.038961 0.995676 -0.084334
vn 0.076748 0.983433 -0.164224
vn 0.069538 0.994405 -0.079516
vn 0.038961 0.995676 -0.084334
vn 0.069538 0.994405 -0.079516
vn 0.022818 0.999479 -0.022818
vn 0.076748 0.983433 -0.164224
vn 0.087315 0.977480 -0.192119
vn 0.170178 0.979287 -0.109706
vn 0.076748 0.983433 -0.164224
vn 0.170178 0.979287 -0.109706
vn 0.069538 0.994405 -0.079516
vn 0.087315 0.977480 -0.192119
vn 0.057446 0.997647 -0.037429
vn 0.232631 0.972068 -0.031097
vn 0.087315 0.977480 -0.192119
vn 0.232631 0.972068 -0.031097
vn 0.170178 0.979287 -0.109706
vn 0.151691 0.988428 -0.000840
vn 0.093378 0.995508 0.015657
vn 0.000000 1.000000 0.000000
vn 0.093378 0.995508 0.015657
vn 0.053593 0.998256 0.024764
vn 0.000000 1.000000 0.000000
vn 0.093378 0.995508 0.015657
vn 0.000000 1.000000 0.000000
vn 0.000000 1.000000 0.000000
vn 0.053593 0.998256 0.024764
vn 0.014531 0.999789 0.014531
vn 0.000000 1.000000 0.000000
vn 0.053593 0.998256 0.024764
vn 0.000000 1.000000 0.000000
vn 0.000000 1.000000 0.000000
vn 0.014531 0.999789 0.014531
vn 0.000000 1.000000 0.000000
vn 0.000000 1.000000 0.000000
vn 0.014531 0.999789 0.014531
vn 0.000000 1.000000 0.000000
vn 0.000000 1.000000 0.000000
vn 0.066950 0.984708 -0.160832
vn 0.100826 0.994812 0.013529
vn 0.077482 0.996907 0.013132
vn 0.066950 0.984708 -0.160832
vn 0.077482 0.996907 0.013132
vn 0.022011 0.997046 -0.073583
vn 0.060816 0.997753 -0.028126
vn 0.099883 0.994932 -0.011601
vn 0.000000 1.000000 0.000000
vn 0.060816 0.997753 -0.028126
vn 0.000000 1.000000 0.000000
vn 0.000000 1.000000 0.000000
vn 0.016514 0.999727 -0.016514
vn 0.060816 0.997753 -0.028126
vn 0.000000 1.000000 0.000000
vn 0.016514 0.999727 -0.016514
vn 0.000000 1.000000 0.000000
vn 0.000000 1.000000 0.000000
vn 0.000000 1.000000 0.000000
vn 0.016514 0.999727 -0.016514
vn 0.000000 1.000000 0.000000
vn 0.000000 1.000000 0.000000
vn 0.000000 1.000000 0.000000
vn 0.000000 1.000000 0.000000
vn 0.044537 0.998014 0.044537
vn 0.022276 0.998583 0.048328
vn 0.013051 0.999830 0.013051
vn 0.044537 0.998014 0.044537
vn 0.013051 0.999830 0.013051
vn 0.024169 0.999646 0.011140
vn 0.109679 0.989438 0.094776
vn 0.044537 0.998014 0.044537
vn 0.024169 0.999646 0.011140
vn 0.109679 0.989438 0.094776
vn 0.024169 0.999646 0.011140
vn 0.060857 0.997812 0.025836
vn 0.215433 0.967691 0.131003
vn 0.109679 0.989438 0.094776
vn 0.060857 0.997812 0.025836
vn 0.215433 0.967691 0.131003
vn 0.060857 0.997812 0.025836
vn 0.118168 0.992440 0.033164
vn -0.112313 0.987305 -0.112313
vn -0.146768 0.985125 -0.089373
vn 0.053096 0.996074 -0.070837
vn -0.112313 0.987305 -0.112313
vn 0.053096 0.996074 -0.070837
vn 0.000000 0.989083 -0.147358
vn -0.052551 0.998480 -0.016584
vn -0.112313 0.987305 -0.112313
vn 0.000000 0.989083 -0.147358
vn -0.052551 0.998480 -0.016584
vn 0.000000 0.989083 -0.147358
vn 0.011734 0.999687 0.022093
vn -0.052551 0.998480 -0.016584
vn 0.011734 0.999687 0.022093
vn 0.067738 0.980379 0.185116
vn -0.135053 0.987789 -0.077677
vn -0.155246 0.987041 -0.040595
vn -0.146768 0.985125 -0.089373
vn -0.135053 0.987789 -0.077677
vn -0.146768 0.985125 -0.089373
vn -0.112313 0.987305 -0.112313
vn -0.135053 0.987789 -0.077677
vn -0.112313 0.987305 -0.112313
vn -0.052551 0.998480 -0.016584
vn 0.011734 0.999687 0.022093
vn 0.000000 0.989083 -0.147358
vn 0.098156 0.990319 -0.098156
vn 0.011734 0.999687 0.022093
vn 0.098156 0.990319 -0.098156
vn 0.053082 0.998563 0.007407
vn -0.173684 0.969365 0.173684
vn -0.088230 0.977873 0.189681
vn -0.012341 0.958274 0.285585
vn -0.173684 0.969365 0.173684
vn -0.012341 0.958274 0.285585
vn -0.021813 0.962536 0.270277
vn -0.261015 0.965335 0.000000
vn -0.173684 0.969365 0.173684
vn -0.021813 0.962536 0.270277
vn -0.261015 0.965335 0.000000
vn -0.021813 0.962536 0.270277
vn -0.032546 0.999470 0.000000
vn 0.000000 1.000000 0.000000
vn 0.000000 1.000000 0.000000
vn 0.000000 1.000000 0.000000
vn 0.000000 1.000000 0.000000
vn 0.000000 1.000000 0.000000
vn 0.000000 1.000000 0.000000
vn 0.022011 0.997046 -0.073583
vn 0.077482 0.996907 0.013132
vn -0.044686 0.994402 -0.095750
vn 0.022011 0.997046 -0.073583
vn -0.044686 0.994402 -0.095750
vn -0.044686 0.994402 -0.095750
vn 0.280066 0.959980 0.001174
vn 0.215433 0.967691 0.131003
vn 0.118168 0.992440 0.033164
vn 0.280066 0.959980 0.001174
vn 0.118168 0.992440 0.033164
vn 0.150308 0.988639 0.000332
vn 0.217641 0.967506 -0.128699
vn 0.280066 0.959980 0.001174
vn 0.150308 0.988639 0.000332
vn 0.217641 0.967506 -0.128699
vn 0.150308 0.988639 0.000332
vn 0.119383 0.992314 -0.032570
vn 0.137843 0.989581 -0.041581
vn 0.217641 0.967506 -0.128699
vn 0.119383 0.992314 -0.032570
vn 0.137843 0.989581 -0.041581
vn 0.119383 0.992314 -0.032570
vn 0.077023 0.996964 -0.011424
vn 0.144045 0.988220 0.051685
vn 0.137843 0.989581 -0.041581
vn 0.077023 0.996964 -0.011424
vn 0.144045 0.988220 0.051685
vn 0.077023 0.996964 -0.011424
vn 0.078416 0.996837 0.012949
vn 0.158410 0.987064 -0.024732
vn 0.144045 0.988220 0.051685
vn 0.078416 0.996837 0.012949
vn 0.158410 0.987064 -0.024732
vn 0.078416 0.996837 0.012949
vn 0.084507 0.996400 -0.006772
vn 0.098156 0.990319 -0.098156
vn 0.158410 0.987064 -0.024732
vn 0.084507 0.996400 -0.006772
vn 0.098156 0.990319 -0.098156
vn 0.084507 0.996400 -0.006772
vn 0.053408 0.998268 -0.024678
vn 0.057446 0.997647 -0.037429
vn 0.089221 0.991356 0.096191
vn 0.204226 0.977004 0.061283
vn 0.057446 0.997647 -0.037429
vn 0.204226 0.977004 0.061283
vn 0.232631 0.972068 -0.031097
vn 0.089221 0.991356 0.096191
vn 0.067738 0.980379 0.185116
vn 0.111661 0.987453 0.111661
vn 0.089221 0.991356 0.096191
vn 0.111661 0.987453 0.111661
vn 0.204226 0.977004 0.061283
vn -0.154761 0.987364 -0.034079
vn 0.057446 0.997647 -0.037429
vn 0.087315 0.977480 -0.192119
vn 0.000000 0.989083 -0.147358
vn 0.053096 0.996074 -0.070837
vn 0.158410 0.987064 -0.024732
vn 0.000000 0.989083 -0.147358
vn 0.158410 0.987064 -0.024732
vn 0.098156 0.990319 -0.098156
vn 0.053096 0.996074 -0.070837
vn 0.131606 0.988267 0.077506
vn 0.144045 0.988220 0.051685
vn 0.053096 0.996074 -0.070837
vn 0.144045 0.988220 0.051685
vn 0.158410 0.987064 -0.024732
vn 0.131606 0.988267 0.077506
vn 0.035963 0.993142 -0.111248
vn 0.137843 0.989581 -0.041581
vn 0.131606 0.988267 0.077506
vn 0.137843 0.989581 -0.041581
vn 0.144045 0.988220 0.051685
vn -0.197973 0.960007 -0.197973
vn -0.261015 0.965335 0.000000
vn -0.032546 0.999470 0.000000
vn -0.197973 0.960007 -0.197973
vn -0.032546 0.999470 0.000000
vn -0.115701 0.953463 -0.278426
vn -0.092137 0.982771 -0.160222
vn -0.197973 0.960007 -0.197973
vn -0.115701 0.953463 -0.278426
vn -0.092137 0.982771 -0.160222
vn -0.115701 0.953463 -0.278426
vn -0.176081 0.970728 -0.163347
vn 0.000000 1.000000 0.000000
vn 0.000000 1.000000 0.000000
vn -0.052250 0.997266 0.052250
vn 0.000000 1.000000 0.000000
vn -0.052250 0.997266 0.052250
vn -0.126918 0.990155 0.059036
vn -0.044686 0.994402 -0.095750
vn -0.044686 0.994402 -0.095750
vn 0.031232 0.993090 -0.113120
vn -0.044686 0.994402 -0.095750
vn 0.031232 0.993090 -0.113120
vn 0.002908 0.990547 -0.137146
vn 0.053082 0.998563 0.007407
vn 0.098156 0.990319 -0.098156
vn 0.053408 0.998268 -0.024678
vn 0.053082 0.998563 0.007407
vn 0.053408 0.998268 -0.024678
vn 0.031017 0.999517 0.002033
vn 0.111661 0.987453 0.111661
vn 0.053082 0.998563 0.007407
vn 0.031017 0.999517 0.002033
vn 0.111661 0.987453 0.111661
vn 0.031017 0.999517 0.002033
vn 0.060816 0.997753 0.028126
vn 0.204226 0.977004 0.061283
vn 0.111661 0.987453 0.111661
vn 0.060816 0.997753 0.028126
vn 0.204226 0.977004 0.061283
vn 0.060816 0.997753 0.028126
vn 0.099883 0.994932 0.011601
vn 0.232631 0.972068 -0.031097
vn 0.204226 0.977004 0.061283
vn 0.099883 0.994932 0.011601
vn 0.232631 0.972068 -0.031097
vn 0.099883 0.994932 0.011601
vn 0.099883 0.994932 -0.011601
vn 0.170178 0.979287 -0.109706
vn 0.232631 0.972068 -0.031097
vn 0.099883 0.994932 -0.011601
vn 0.170178 0.979287 -0.109706
vn 0.099883 0.994932 -0.011601
vn 0.060816 0.997753 -0.028126
vn 0.069538 0.994405 -0.079516
vn 0.170178 0.979287 -0.109706
vn 0.060816 0.997753 -0.028126
vn 0.069538 0.994405 -0.079516
vn 0.060816 0.997753 -0.028126
vn 0.016514 0.999727 -0.016514
vn 0.067738 0.980379 0.185116
vn 0.011734 0.999687 0.022093
vn 0.053082 0.998563 0.007407
vn 0.067738 0.980379 0.185116
vn 0.053082 0.998563 0.007407
vn 0.111661 0.987453 0.111661
vn 0.000000 0.992408 -0.122988
vn -0.000617 0.988940 -0.148312
vn 0.076748 0.983433 -0.164224
vn 0.000000 0.992408 -0.122988
vn 0.076748 0.983433 -0.164224
vn 0.038961 0.995676 -0.084334
vn -0.021813 0.962536 0.270277
vn -0.012341 0.958274 0.285585
vn 0.065898 0.969806 0.234804
vn -0.021813 0.962536 0.270277
vn 0.065898 0.969806 0.234804
vn 0.131003 0.967691 0.215433
vn 0.035963 0.993142 -0.111248
vn 0.020070 0.984451 -0.174509
vn 0.217641 0.967506 -0.128699
vn 0.035963 0.993142 -0.111248
vn 0.217641 0.967506 -0.128699
vn 0.137843 0.989581 -0.041581
vn 0.005716 0.991674 -0.128645
vn 0.008614 0.995262 -0.096849
vn -0.000617 0.988940 -0.148312
vn 0.005716 0.991674 -0.128645
vn -0.000617 0.988940 -0.148312
vn 0.000000 0.992408 -0.122988
vn -0.238483 0.961415 -0.137141
vn -0.197973 0.960007 -0.197973
vn -0.092137 0.982771 -0.160222
vn -0.238483 0.961415 -0.137141
vn -0.274394 0.961617 0.000000
vn -0.261015 0.965335 0.000000
vn -0.238483 0.961415 -0.137141
vn -0.261015 0.965335 0.000000
vn -0.197973 0.960007 -0.197973
vn -0.274394 0.961617 0.000000
vn -0.126918 0.990155 0.059036
vn -0.173684 0.969365 0.173684
vn -0.274394 0.961617 0.000000
vn -0.173684 0.969365 0.173684
vn -0.261015 0.965335 0.000000
vn -0.126918 0.990155 0.059036
vn -0.052250 0.997266 0.052250
vn -0.088230 0.977873 0.189681
vn -0.126918 0.990155 0.059036
vn -0.088230 0.977873 0.189681
vn -0.173684 0.969365 0.173684
vn 0.002908 0.990547 -0.137146
vn 0.031232 0.993090 -0.113120
vn 0.008614 0.995262 -0.096849
vn 0.002908 0.990547 -0.137146
vn 0.008614 0.995262 -0.096849
vn 0.005716 0.991674 -0.128645
vn 0.022818 0.999479 -0.022818
vn 0.069538 0.994405 -0.079516
vn 0.016514 0.999727 -0.016514
vn 0.022818 0.999479 -0.022818
vn 0.016514 0.999727 -0.016514
vn 0.000000 1.000000 0.000000
vn 0.094776 0.989438 0.109679
vn 0.051606 0.991241 0.121562
vn 0.022276 0.998583 0.048328
vn 0.094776 0.989438 0.109679
vn 0.022276 0.998583 0.048328
vn 0.044537 0.998014 0.044537
vn 0.112390 0.987288 0.112390
vn 0.094776 0.989438 0.109679
vn 0.044537 0.998014 0.044537
vn 0.112390 0.987288 0.112390
vn 0.044537 0.998014 0.044537
vn 0.109679 0.989438 0.094776
vn 0.144544 0.978841 0.144835
vn 0.112390 0.987288 0.112390
vn 0.109679 0.989438 0.094776
vn 0.144544 0.978841 0.144835
vn 0.109679 0.989438 0.094776
vn 0.215433 0.967691 0.131003
vn 0.262425 0.964951 0.001699
vn 0.144544 0.978841 0.144835
vn 0.215433 0.967691 0.131003
vn 0.262425 0.964951 0.001699
vn 0.215433 0.967691 0.131003
vn 0.280066 0.959980 0.001174
vn 0.020070 0.984451 -0.174509
vn 0.262425 0.964951 0.001699
vn 0.280066 0.959980 0.001174
vn 0.020070 0.984451 -0.174509
vn 0.280066 0.959980 0.001174
vn 0.217641 0.967506 -0.128699
vn -0.032546 0.999470 0.000000
vn -0.021813 0.962536 0.270277
vn 0.131003 0.967691 0.215433
vn -0.032546 0.999470 0.000000
vn 0.131003 0.967691 0.215433
vn 0.155699 0.986819 0.044115
vn -0.115701 0.953463 -0.278426
vn -0.032546 0.999470 0.000000
vn 0.155699 0.986819 0.044115
vn -0.115701 0.953463 -0.278426
vn 0.155699 0.986819 0.044115
vn 0.111454 0.987689 -0.109761
vn -0.268761 0.950672 -0.154888
vn -0.176081 0.970728 -0.163347
vn -0.115701 0.953463 -0.278426
vn -0.159098 0.986308 -0.043405
vn -0.176081 0.970728 -0.163347
vn -0.268761 0.950672 -0.154888
vn -0.159098 0.986308 -0.043405
vn -0.268761 0.950672 -0.154888
vn -0.197729 0.974268 -0.108193
vn -0.092137 0.982771 -0.160222
vn -0.176081 0.970728 -0.163347
vn -0.159098 0.986308 -0.043405
f 1/1/1 2/2/2 19/3/3
f 1/4/4 19/5/5 18/6/6
f 2/7/7 3/8/8 20/9/9
f 2/10/10 20/11/11 19/12/12
f 3/13/13 4/14/14 21/15/15
f 3/16/16 21/17/17 20/18/18
f 4/19/19 5/20/20 22/21/21
f 4/22/22 22/23/23 21/24/24
f 5/25/25 6/26/26 23/27/27
f 5/28/28 23/29/29 22/30/30
f 6/31/31 7/32/32 24/33/33
f 6/34/34 24/35/35 23/36/36
f 7/37/37 8/38/38 25/39/39
f 7/40/40 25/41/41 24/42/42
f 8/43/43 9/44/44 26/45/45
f 8/46/46 26/47/47 25/48/48
f 9/49/49 10/50/50 27/51/51
f 9/52/52 27/53/53 26/54/54
f 10/55/55 11/56/56 28/57/57
f 10/58/58 28/59/59 27/60/60
f 11/61/61 12/62/62 29/63/63
f 11/64/64 29/65/65 28/66/66
f 12/67/67 13/68/68 30/69/69
f 12/70/70 30/71/71 29/72/72
f 13/73/73 14/74/74 31/75/75
f 13/76/76 31/77/77 30/78/78
f 14/79/79 15/80/80 32/81/81
f 14/82/82 32/83/83 31/84/84
f 15/85/85 16/86/86 33/87/87
f 15/88/88 33/89/89 32/90/90
f 16/91/91 17/92/92 34/93/93
f 16/94/94 34/95/95 33/96/96
f 18/97/97 19/98/98 36/99/99
f 18/100/100 36/101/101 35/102/102
f 19/103/103 20/104/104 37/105/105
f 19/106/106 37/107/107 36/108/108
f 20/109/109 21/110/110 38/111/111
f 20/112/112 38/113/113 37/114/114
f 21/115/115 22/116/116 39/117/117
f 21/118/118 39/119/119 38/120/120
f 22/121/121 23/122/122 40/123/123
f 22/124/124 40/125/125 39/126/126
f 23/127/127 24/128/128 41/129/129
f 23/130/130 41/131/131 40/132/132
f 24/133/133 25/134/134 42/135/135
f 24/136/136 42/137/137 41/138/138
f 25/139/139 26/140/140 43/141/141
f 25/142/142 43/143/143 42/144/144
f 26/145/145 27/146/146 44/147/147
f 26/148/148 44/149/149 43/150/150
f 27/151/151 28/152/152 45/153/153
f 27/154/154 45/155/155 44/156/156
f 28/157/157 29/158/158 46/159/159
f 28/160/160 46/161/161 45/162/162
f 29/163/163 30/164/164 47/165/165
f 29/166/166 47/167/167 46/168/168
f 30/169/169 31/170/170 48/171/171
f 30/172/172 48/173/173 47/174/174
f 31/175/175 32/176/176 49/177/177
f 31/178/178 49/179/179 48/180/180
f 32/181/181 33/182/182 50/183/183
f 32/184/184 50/185/185 49/186/186
f 33/187/187 34/188/188 51/189/189
f 33/190/190 51/191/191 50/192/192
f 35/193/193 36/194/194 53/195/195
f 35/196/196 53/197/197 52/198/198
f 36/199/199 37/200/200 54/201/201
f 36/202/202 54/203/203 53/204/204
f 37/205/205 38/206/206 55/207/207
f 37/208/208 55/209/209 54/210/210
f 38/211/211 39/212/212 56/213/213
f 38/214/214 56/215/215 55/216/216
f 39/217/217 40/218/218 57/219/219
f 39/220/220 57/221/221 56/222/222
f 40/223/223 41/224/224 58/225/225
f 40/226/226 58/227/227 57/228/228
f 41/229/229 42/230/230 59/231/231
f 41/232/232 59/233/233 58/234/234
f 42/235/235 43/236/236 60/237/237
f 42/238/238 60/239/239 59/240/240
f 43/241/241 44/242/242 61/243/243
f 43/244/244 61/245/245 60/246/246
f 44/247/247 45/248/248 62/249/249
f 44/250/250 62/251/251 61/252/252
f 45/253/253 46/254/254 63/255/255
f 45/256/256 63/257/257 62/258/258
f 46/259/259 47/260/260 64/261/261
f 46/262/262 64/263/263 63/264/264
f 47/265/265 48/266/266 65/267/267
f 47/268/268 65/269/269 64/270/270
f 48/271/271 49/272/272 66/273/273
f 48/274/274 66/275/275 65/276/276
f 49/277/277 50/278/278 67/279/279
f 49/280/280 67/281/281 66/282/282
f 50/283/283 51/284/284 68/285/285
f 50/286/286 68/287/287 67/288/288
f 52/289/289 53/290/290 70/291/291
f 52/292/292 70/293/293 69/294/294
f 125/295/295 124/296/296 117/297/297
f 54/298/298 55/299/299 71/300/300
f 106/301/301 96/302/302 97/303/303
f 160/304/304 159/305/305 145/306/306
f 57/307/307 58/308/308 72/309/309
f 58/310/310 59/311/311 73/312/312
f 58/313/313 73/314/314 72/315/315
f 59/316/316 60/317/317 74/318/318
f 59/319/319 74/320/320 73/321/321
f 60/322/322 61/323/323 75/324/324
f 60/325/325 75/326/326 74/327/327
f 75/328/328 61/329/329 62/330/330
f 62/331/331 63/332/332 77/333/333
f 62/334/334 77/335/335 76/336/336
f 86/337/337 74/338/338 75/339/339
f 71/340/340 55/341/341 56/342/342
f 65/343/343 66/344/344 79/345/345
f 65/346/346 79/347/347 78/348/348
f 66/349/349 67/350/350 80/351/351
f 66/352/352 80/353/353 79/354/354
f 67/355/355 68/356/356 81/357/357
f 67/358/358 81/359/359 80/360/360
f 69/361/361 70/362/362 83/363/363
f 69/364/364 83/365/365 82/366/366
f 84/367/367 83/368/368 70/369/369
f 95/370/370 83/371/371 84/372/372
f 105/373/373 104/374/374 95/375/375
f 112/376/376 104/377/377 105/378/378
f 144/379/379 132/380/380 133/381/381
f 72/382/382 73/383/383 85/384/384
f 73/385/385 74/386/386 86/387/387
f 73/388/388 86/389/389 85/390/390
f 133/391/391 132/392/392 123/393/393
f 158/394/394 157/395/395 144/396/396
f 76/397/397 77/398/398 88/399/399
f 76/400/400 88/401/401 87/402/402
f 70/403/403 53/404/404 54/405/405
f 205/406/406 206/407/407 223/408/408
f 205/409/409 223/410/410 222/411/411
f 78/412/412 79/413/413 91/414/414
f 78/415/415 91/416/416 90/417/417
f 79/418/418 80/419/419 92/420/420
f 79/421/421 92/422/422 91/423/423
f 80/424/424 81/425/425 93/426/426
f 80/427/427 93/428/428 92/429/429
f 82/430/430 83/431/431 95/432/432
f 82/433/433 95/434/434 94/435/435
f 204/436/436 205/437/437 222/438/438
f 204/439/439 222/440/440 221/441/441
f 203/442/442 204/443/443 221/444/444
f 203/445/445 221/446/446 220/447/447
f 202/448/448 203/449/449 220/450/450
f 202/451/451 220/452/452 219/453/453
f 201/454/454 202/455/455 219/456/456
f 201/457/457 219/458/458 218/459/459
f 200/460/460 201/461/461 218/462/462
f 200/463/463 218/464/464 217/465/465
f 199/466/466 200/467/467 217/468/468
f 199/469/469 217/470/470 216/471/471
f 152/472/472 153/473/473 170/474/474
f 152/475/475 170/476/476 169/477/477
f 153/478/478 154/479/479 171/480/480
f 153/481/481 171/482/482 170/483/483
f 167/484/484 150/485/485 151/486/486
f 136/487/487 137/488/488 150/489/489
f 136/490/490 150/491/491 149/492/492
f 88/493/493 89/494/494 98/495/495
f 89/496/496 90/497/497 99/498/498
f 89/499/499 99/500/500 98/501/501
f 90/502/502 91/503/503 100/504/504
f 90/505/505 100/506/506 99/507/507
f 91/508/508 92/509/509 101/510/510
f 91/511/511 101/512/512 100/513/513
f 92/514/514 93/515/515 102/516/516
f 92/517/517 102/518/518 101/519/519
f 94/520/520 95/521/521 104/522/522
f 94/523/523 104/524/524 103/525/525
f 198/526/526 199/527/527 216/528/528
f 198/529/529 216/530/530 215/531/531
f 197/532/532 198/533/533 215/534/534
f 197/535/535 215/536/536 214/537/537
f 196/538/538 197/539/539 214/540/540
f 196/541/541 214/542/542 213/543/543
f 195/544/544 196/545/545 213/546/546
f 195/547/547 213/548/548 212/549/549
f 194/550/550 195/551/551 212/552/552
f 194/553/553 212/554/554 211/555/555
f 193/556/556 194/557/557 211/558/558
f 193/559/559 211/560/560 210/561/561
f 149/562/562 150/563/563 167/564/564
f 149/565/565 167/566/566 166/567/567
f 154/568/568 155/569/569 172/570/570
f 154/571/571 172/572/572 171/573/573
f 156/574/574 157/575/575 174/576/576
f 156/577/577 174/578/578 173/579/579
f 157/580/580 158/581/581 175/582/582
f 157/583/583 175/584/584 174/585/585
f 158/586/586 159/587/587 176/588/588
f 158/589/589 176/590/590 175/591/591
f 98/592/592 99/593/593 107/594/594
f 99/595/595 100/596/596 108/597/597
f 99/598/598 108/599/599 107/600/600
f 100/601/601 101/602/602 109/603/603
f 100/604/604 109/605/605 108/606/606
f 101/607/607 102/608/608 110/609/609
f 101/610/610 110/611/611 109/612/612
f 103/613/613 104/614/614 112/615/615
f 103/616/616 112/617/617 111/618/618
f 192/619/619 193/620/620 210/621/621
f 192/622/622 210/623/623 209/624/624
f 191/625/625 192/626/626 209/627/627
f 191/628/628 209/629/629 208/630/630
f 190/631/631 191/632/632 208/633/633
f 190/634/634 208/635/635 207/636/636
f 188/637/637 189/638/638 206/639/639
f 188/640/640 206/641/641 205/642/642
f 187/643/643 188/644/644 205/645/645
f 187/646/646 205/647/647 204/648/648
f 186/649/649 187/650/650 204/651/651
f 186/652/652 204/653/653 203/654/654
f 147/655/655 148/656/656 164/657/657
f 147/658/658 164/659/659 163/660/660
f 146/661/661 147/662/662 163/663/663
f 146/664/664 163/665/665 162/666/666
f 146/667/667 162/668/668 161/669/669
f 134/670/670 135/671/671 148/672/672
f 134/673/673 148/674/674 147/675/675
f 134/676/676 147/677/677 146/678/678
f 162/679/679 163/680/680 180/681/681
f 162/682/682 180/683/683 179/684/684
f 129/685/685 130/686/686 142/687/687
f 129/688/688 142/689/689 141/690/690
f 128/691/691 129/692/692 141/693/693
f 128/694/694 141/695/695 140/696/696
f 109/697/697 110/698/698 114/699/699
f 109/700/700 114/701/701 113/702/702
f 111/703/703 112/704/704 116/705/705
f 111/706/706 116/707/707 115/708/708
f 185/709/709 186/710/710 203/711/711
f 185/712/712 203/713/713 202/714/714
f 184/715/715 185/716/716 202/717/717
f 184/718/718 202/719/719 201/720/720
f 183/721/721 184/722/722 201/723/723
f 183/724/724 201/725/725 200/726/726
f 182/727/727 183/728/728 200/729/729
f 182/730/730 200/731/731 199/732/732
f 181/733/733 182/734/734 199/735/735
f 181/736/736 199/737/737 198/738/738
f 180/739/739 181/740/740 198/741/741
f 180/742/742 198/743/743 197/744/744
f 159/745/745 160/746/746 177/747/747
f 159/748/748 177/749/749 176/750/750
f 160/751/751 161/752/752 178/753/753
f 160/754/754 178/755/755 177/756/756
f 145/757/757 159/758/758 158/759/759
f 163/760/760 164/761/761 181/762/762
f 163/763/763 181/764/764 180/765/765
f 164/766/766 165/767/767 182/768/768
f 164/769/769 182/770/770 181/771/771
f 165/772/772 166/773/773 183/774/774
f 165/775/775 183/776/776 182/777/777
f 127/778/778 128/779/779 140/780/780
f 127/781/781 140/782/782 139/783/783
f 126/784/784 127/785/785 139/786/786
f 126/787/787 139/788/788 138/789/789
f 113/790/790 114/791/791 121/792/792
f 113/793/793 121/794/794 120/795/795
f 115/796/796 116/797/797 123/798/798
f 115/799/799 123/800/800 122/801/801
f 179/802/802 180/803/803 197/804/804
f 179/805/805 197/806/806 196/807/807
f 178/808/808 179/809/809 196/810/810
f 178/811/811 196/812/812 195/813/813
f 177/814/814 178/815/815 195/816/816
f 177/817/817 195/818/818 194/819/819
f 176/820/820 177/821/821 194/822/822
f 176/823/823 194/824/824 193/825/825
f 175/826/826 176/827/827 193/828/828
f 175/829/829 193/830/830 192/831/831
f 174/832/832 175/833/833 192/834/834
f 174/835/835 192/836/836 191/837/837
f 161/838/838 162/839/839 179/840/840
f 161/841/841 179/842/842 178/843/843
f 143/844/844 144/845/845 157/846/846
f 143/847/847 157/848/848 156/849/849
f 141/850/850 142/851/851 155/852/852
f 141/853/853 155/854/854 154/855/855
f 166/856/856 167/857/857 184/858/858
f 166/859/859 184/860/860 183/861/861
f 131/862/862 132/863/863 144/864/864
f 131/865/865 144/866/866 143/867/867
f 118/868/868 127/869/869 126/870/870
f 118/871/871 119/872/872 128/873/873
f 118/874/874 128/875/875 127/876/876
f 119/877/877 120/878/878 129/879/879
f 119/880/880 129/881/881 128/882/882
f 120/883/883 121/884/884 130/885/885
f 120/886/886 130/887/887 129/888/888
f 122/889/889 123/890/890 132/891/891
f 122/892/892 132/893/893 131/894/894
f 173/895/895 174/896/896 191/897/897
f 173/898/898 191/899/899 190/900/900
f 171/901/901 172/902/902 189/903/903
f 171/904/904 189/905/905 188/906/906
f 170/907/907 171/908/908 188/909/909
f 170/910/910 188/911/911 187/912/912
f 169/913/913 170/914/914 187/915/915
f 169/916/916 187/917/917 186/918/918
f 168/919/919 169/920/920 186/921/921
f 168/922/922 186/923/923 185/924/924
f 167/925/925 168/926/926 185/927/927
f 167/928/928 185/929/929 184/930/930
f 140/931/931 141/932/932 154/933/933
f 140/934/934 154/935/935 153/936/936
f 139/937/937 140/938/938 153/939/939
f 139/940/940 153/941/941 152/942/942
f 151/943/943 138/944/944 139/945/945
f 137/946/946 138/947/947 151/948/948
f 137/949/949 151/950/950 150/951/951
f 126/952/952 138/953/953 137/954/954
