v -0.000001 4449.488281 -0.000001
v 26.864031 4449.488281 -0.000001
v 26.852537 4004.503906 -0.003694
v 25.948660 4449.488281 6.952922
v 25.937166 4004.503906 6.949229
v 23.264933 4449.488281 13.432014
v 23.253439 4004.503906 13.428322
v 18.995737 4449.488281 18.995737
v 18.984243 4004.503906 18.992046
v 13.432013 4449.488281 23.264933
v 13.420519 4004.503906 23.261242
v 6.952921 4449.488281 25.948660
v 6.941427 4004.503906 25.944967
v -0.000002 4449.488281 26.864025
v -0.011496 4004.503906 26.860336
v -6.952923 4449.488281 25.948658
v -6.964417 4004.503906 25.944965
v -13.432015 4449.488281 23.264931
v -13.443510 4004.503906 23.261240
v -18.995737 4449.488281 18.995737
v -19.007231 4004.503906 18.992043
v -23.264931 4449.488281 13.432013
v -23.276424 4004.503906 13.428321
v -25.948658 4449.488281 6.952921
v -25.960154 4004.503906 6.949228
v -26.864027 4449.488281 -0.000002
v -26.875521 4004.503906 -0.003695
v -25.948656 4449.488281 -6.952924
v -25.960152 4004.503906 -6.956617
v -23.264929 4449.488281 -13.432016
v -23.276423 4004.503906 -13.435709
v -18.995735 4449.488281 -18.995739
v -19.007229 4004.503906 -18.999434
v -13.432013 4449.488281 -23.264933
v -13.443507 4004.503906 -23.268625
v -6.952921 4449.488281 -25.948658
v -6.964416 4004.503906 -25.952353
v 0.000000 4449.488281 -26.864027
v -0.011494 4004.503906 -26.867720
v 6.952921 4449.488281 -25.948656
v 6.941426 4004.503906 -25.952351
v 13.432013 4449.488281 -23.264929
v 13.420516 4004.503906 -23.268623
v 18.995735 4449.488281 -18.995735
v 18.984240 4004.503906 -18.999428
v 23.264927 4449.488281 -13.432012
v 23.253433 4004.503906 -13.435703
v 25.948656 4449.488281 -6.952921
v 25.937160 4004.503906 -6.956614
vt 0.000000 0.000000
vt 0.000000 0.000000
vt 0.000000 0.000000
vt 0.000000 0.000000
vt 0.000000 0.000000
vt 0.000000 0.000000
vt 0.000000 0.000000
vt 0.000000 0.000000
vt 0.000000 0.000000
vt 0.000000 0.000000
vt 0.000000 0.000000
vt 0.000000 0.000000
vt 0.000000 0.000000
vt 0.000000 0.000000
vt 0.000000 0.000000
vt 0.000000 0.000000
vt 0.000000 0.000000
vt 0.000000 0.000000
vt 0.000000 0.000000
vt 0.000000 0.000000
vt 0.000000 0.000000
vt 0.000000 0.000000
vt 0.000000 0.000000
vt 0.000000 0.000000
vt 0.000000 0.000000
vt 0.000000 0.000000
vt 0.000000 0.000000
vt 0.000000 0.000000
vt 0.000000 0.000000
vt 0.000000 0.000000
vt 0.000000 0.000000
vt 0.000000 0.000000
vt 0.000000 0.000000
vt 0.000000 0.000000
vt 0.000000 0.000000
vt 0.000000 0.000000
vt 0.000000 0.000000
vt 0.000000 0.000000
vt 0.000000 0.000000
vt 0.000000 0.000000
vt 0.000000 0.000000
vt 0.000000 0.000000
vt 0.000000 0.000000
vt 0.000000 0.000000
vt 0.000000 0.000000
vt 0.000000 0.000000
vt 0.000000 0.000000
vt 0.000000 0.000000
vt 0.000000 0.000000
vt 0.000000 0.000000
vt 0.000000 0.000000
vt 0.000000 0.000000
vt 0.000000 0.000000
vt 0.000000 0.000000
vt 0.000000 0.000000
vt 0.000000 0.000000
vt 0.000000 0.000000
vt 0.000000 0.000000
vt 0.000000 0.000000
vt 0.000000 0.000000
vt 0.000000 0.000000
vt 0.000000 0.000000
vt 0.000000 0.000000
vt 0.000000 0.000000
vt 0.000000 0.000000
vt 0.000000 0.000000
vt 0.000000 0.000000
vt 0.000000 0.000000
vt 0.000000 0.000000
vt 0.000000 0.000000
vt 0.000000 0.000000
vt 0.000000 0.000000
vt 0.000000 0.000000
vt 0.000000 0.000000
vt 0.000000 0.000000
vt 0.000000 0.000000
vt 0.000000 0.000000
vt 0.000000 0.000000
vt 0.000000 0.000000
vt 0.000000 0.000000
vt 0.000000 0.000000
vt 0.000000 0.000000
vt 0.000000 0.000000
vt 0.000000 0.000000
vt 0.000000 0.000000
vt 0.000000 0.000000
vt 0.000000 0.000000
vt 0.000000 0.000000
vt 0.000000 0.000000
vt 0.000000 0.000000
vt 0.000000 0.000000
vt 0.000000 0.000000
vt 0.000000 0.000000
vt 0.000000 0.000000
vt 0.000000 0.000000
vt 0.000000 0.000000
vt 0.000000 0.000000
vt 0.000000 0.000000
vt 0.000000 0.000000
vt 0.000000 0.000000
vt 0.000000 0.000000
vt 0.000000 0.000000
vt 0.000000 0.000000
vt 0.000000 0.000000
vt 0.000000 0.000000
vt 0.000000 0.000000
vt 0.000000 0.000000
vt 0.000000 0.000000
vt 0.000000 0.000000
vt 0.000000 0.000000
vt 0.000000 0.000000
vt 0.000000 0.000000
vt 0.000000 0.000000
vt 0.000000 0.000000
vt 0.000000 0.000000
vt 0.000000 0.000000
vt 0.000000 0.000000
vt 0.000000 0.000000
vt 0.000000 0.000000
vt 0.000000 0.000000
vt 0.000000 0.000000
vt 0.000000 0.000000
vt 0.000000 0.000000
vt 0.000000 0.000000
vt 0.000000 0.000000
vt 0.000000 0.000000
vt 0.000000 0.000000
vt 0.000000 0.000000
vt 0.000000 0.000000
vt 0.000000 0.000000
vt 0.000000 0.000000
vt 0.000000 0.000000
vt 0.000000 0.000000
vt 0.000000 0.000000
vt 0.000000 0.000000
vt 0.000000 0.000000
vt 0.000000 0.000000
vt 0.000000 0.000000
vt 0.000000 0.000000
vt 0.000000 0.000000
vt 0.000000 0.000000
vt 0.000000 0.000000
vt 0.000000 0.000000
vt 0.000000 0.000000
vt 0.000000 0.000000
vt 0.000000 0.000000
vt 0.000000 0.000000
vt 0.000000 0.000000
vt 0.000000 0.000000
vt 0.000000 0.000000
vt 0.000000 0.000000
vt 0.000000 0.000000
vt 0.000000 0.000000
vt 0.000000 0.000000
vt 0.000000 0.000000
vt 0.000000 0.000000
vt 0.000000 0.000000
vt 0.000000 0.000000
vt 0.000000 0.000000
vt 0.000000 0.000000
vt 0.000000 0.000000
vt 0.000000 0.000000
vt 0.000000 0.000000
vt 0.000000 0.000000
vt 0.000000 0.000000
vt 0.000000 0.000000
vt 0.000000 0.000000
vt 0.000000 0.000000
vt 0.000000 0.000000
vt 0.000000 0.000000
vt 0.000000 0.000000
vt 0.000000 0.000000
vt 0.000000 0.000000
vt 0.000000 0.000000
vt 0.000000 0.000000
vt 0.000000 0.000000
vt 0.000000 0.000000
vt 0.000000 0.000000
vt 0.000000 0.000000
vt 0.000000 0.000000
vt 0.000000 0.000000
vt 0.000000 0.000000
vt 0.000000 0.000000
vt 0.000000 0.000000
vt 0.000000 0.000000
vt 0.000000 0.000000
vt 0.000000 0.000000
vt 0.000000 0.000000
vt 0.000000 0.000000
vt 0.000000 0.000000
vt 0.000000 0.000000
vt 0.000000 0.000000
vt 0.000000 0.000000
vt 0.000000 0.000000
vt 0.000000 0.000000
vt 0.000000 0.000000
vt 0.000000 0.000000
vt 0.000000 0.000000
vt 0.000000 0.000000
vt 0.000000 0.000000
vt 0.000000 0.000000
vt 0.000000 0.000000
vt 0.000000 0.000000
vt 0.000000 0.000000
vt 0.000000 0.000000
vt 0.000000 0.000000
vt 0.000000 0.000000
vt 0.000000 0.000000
vt 0.000000 0.000000
vt 0.000000 0.000000
vt 0.000000 0.000000
vt 0.000000 0.000000
vt 0.000000 0.000000
vt 0.000000 0.000000
vt 0.000000 0.000000
vt 0.000000 0.000000
vn 0.000000 1.000000 0.000000
vn 0.000000 1.000000 0.000000
vn 0.000000 1.000000 0.000000
vn 1.000000 -0.000036 -0.000000
vn 0.965926 -0.000038 0.258819
vn 0.965926 -0.000038 0.258819
vn 1.000000 -0.000036 -0.000000
vn 0.965926 -0.000038 0.258819
vn 1.000000 -0.000036 -0.000000
vn 0.965926 -0.000032 -0.258820
vn 1.000000 -0.000036 -0.000000
vn 1.000000 -0.000036 -0.000000
vn 0.965926 -0.000032 -0.258820
vn 1.000000 -0.000036 -0.000000
vn 0.965926 -0.000032 -0.258820
vn 0.000000 1.000000 0.000000
vn 0.000000 1.000000 0.000000
vn 0.000000 1.000000 0.000000
vn 0.965926 -0.000038 0.258819
vn 0.866025 -0.000037 0.500000
vn 0.866025 -0.000037 0.500000
vn 0.965926 -0.000038 0.258819
vn 0.866025 -0.000037 0.500000
vn 0.965926 -0.000038 0.258819
vn 0.000000 1.000000 0.000000
vn 0.000000 1.000000 0.000000
vn 0.000000 1.000000 0.000000
vn 0.000000 1.000000 0.000000
vn 0.000000 1.000000 0.000000
vn 0.000000 1.000000 0.000000
vn 0.866025 -0.000037 0.500000
vn 0.707107 -0.000034 0.707107
vn 0.707107 -0.000034 0.707107
vn 0.866025 -0.000037 0.500000
vn 0.707107 -0.000034 0.707107
vn 0.866025 -0.000037 0.500000
vn 0.866025 -0.000026 -0.500000
vn 0.965926 -0.000032 -0.258820
vn 0.965926 -0.000032 -0.258820
vn 0.866025 -0.000026 -0.500000
vn 0.965926 -0.000032 -0.258820
vn 0.866025 -0.000026 -0.500000
vn 0.000000 1.000000 0.000000
vn 0.000000 1.000000 0.000000
vn 0.000000 1.000000 0.000000
vn 0.707107 -0.000034 0.707107
vn 0.500000 -0.000028 0.866025
vn 0.500000 -0.000028 0.866025
vn 0.707107 -0.000034 0.707107
vn 0.500000 -0.000028 0.866025
vn 0.707107 -0.000034 0.707107
vn 0.000000 1.000000 0.000000
vn 0.000000 1.000000 0.000000
vn 0.000000 1.000000 0.000000
vn 0.000000 1.000000 0.000000
vn 0.000000 1.000000 0.000000
vn 0.000000 1.000000 0.000000
vn 0.500000 -0.000028 0.866025
vn 0.258819 -0.000021 0.965926
vn 0.258819 -0.000021 0.965926
vn 0.500000 -0.000028 0.866025
vn 0.258819 -0.000021 0.965926
vn 0.500000 -0.000028 0.866025
vn 0.707107 -0.000018 -0.707107
vn 0.866025 -0.000026 -0.500000
vn 0.866025 -0.000026 -0.500000
vn 0.707107 -0.000018 -0.707107
vn 0.866025 -0.000026 -0.500000
vn 0.707107 -0.000018 -0.707107
vn 0.000000 1.000000 0.000000
vn 0.000000 1.000000 0.000000
vn 0.000000 1.000000 0.000000
vn 0.258819 -0.000021 0.965926
vn -0.000000 -0.000012 1.000000
vn -0.000000 -0.000012 1.000000
vn 0.258819 -0.000021 0.965926
vn -0.000000 -0.000012 1.000000
vn 0.258819 -0.000021 0.965926
vn 0.000000 1.000000 0.000000
vn 0.000000 1.000000 0.000000
vn 0.000000 1.000000 0.000000
vn 0.000000 1.000000 -0.000000
vn 0.000000 1.000000 0.000000
vn 0.000000 1.000000 0.000000
vn -0.000000 -0.000012 1.000000
vn -0.258819 -0.000002 0.965926
vn -0.258819 -0.000002 0.965926
vn -0.000000 -0.000012 1.000000
vn -0.258819 -0.000002 0.965926
vn -0.000000 -0.000012 1.000000
vn 0.500000 -0.000008 -0.866025
vn 0.707107 -0.000018 -0.707107
vn 0.707107 -0.000018 -0.707107
vn 0.500000 -0.000008 -0.866025
vn 0.707107 -0.000018 -0.707107
vn 0.500000 -0.000008 -0.866025
vn 0.000000 1.000000 0.000000
vn 0.000000 1.000000 -0.000000
vn 0.000000 1.000000 0.000000
vn -0.258819 -0.000002 0.965926
vn -0.500000 0.000008 0.866025
vn -0.500000 0.000008 0.866025
vn -0.258819 -0.000002 0.965926
vn -0.500000 0.000008 0.866025
vn -0.258819 -0.000002 0.965926
vn 0.000000 1.000000 0.000000
vn 0.000000 1.000000 0.000000
vn 0.000000 1.000000 0.000000
vn 0.000000 1.000000 0.000000
vn 0.000000 1.000000 0.000000
vn 0.000000 1.000000 0.000000
vn -0.500000 0.000008 0.866025
vn -0.707107 0.000018 0.707107
vn -0.707107 0.000018 0.707107
vn -0.500000 0.000008 0.866025
vn -0.707107 0.000018 0.707107
vn -0.500000 0.000008 0.866025
vn 0.258819 0.000002 -0.965926
vn 0.500000 -0.000008 -0.866025
vn 0.500000 -0.000008 -0.866025
vn 0.258819 0.000002 -0.965926
vn 0.500000 -0.000008 -0.866025
vn 0.258819 0.000002 -0.965926
vn 0.000000 1.000000 0.000000
vn 0.000000 1.000000 0.000000
vn 0.000000 1.000000 0.000000
vn -0.707107 0.000018 0.707107
vn -0.866025 0.000026 0.500000
vn -0.866025 0.000026 0.500000
vn -0.707107 0.000018 0.707107
vn -0.866025 0.000026 0.500000
vn -0.707107 0.000018 0.707107
vn 0.000000 1.000000 0.000000
vn 0.000000 1.000000 -0.000000
vn 0.000000 1.000000 0.000000
vn 0.000000 1.000000 0.000000
vn 0.000000 1.000000 0.000000
vn 0.000000 1.000000 0.000000
vn -0.866025 0.000026 0.500000
vn -0.965926 0.000032 0.258819
vn -0.965926 0.000032 0.258819
vn -0.866025 0.000026 0.500000
vn -0.965926 0.000032 0.258819
vn -0.866025 0.000026 0.500000
vn 0.000000 0.000012 -1.000000
vn 0.258819 0.000002 -0.965926
vn 0.258819 0.000002 -0.965926
vn 0.000000 0.000012 -1.000000
vn 0.258819 0.000002 -0.965926
vn 0.000000 0.000012 -1.000000
vn 0.000000 1.000000 0.000000
vn 0.000000 1.000000 0.000000
vn 0.000000 1.000000 0.000000
vn -0.965926 0.000032 0.258819
vn -1.000000 0.000036 -0.000000
vn -1.000000 0.000036 -0.000000
vn -0.965926 0.000032 0.258819
vn -1.000000 0.000036 -0.000000
vn -0.965926 0.000032 0.258819
vn 0.000000 1.000000 -0.000000
vn 0.000000 1.000000 0.000000
vn 0.000000 1.000000 0.000000
vn 0.000000 1.000000 0.000000
vn 0.000000 1.000000 0.000000
vn 0.000000 1.000000 0.000000
vn -1.000000 0.000036 -0.000000
vn -0.965926 0.000038 -0.258819
vn -0.965926 0.000038 -0.258819
vn -1.000000 0.000036 -0.000000
vn -0.965926 0.000038 -0.258819
vn -1.000000 0.000036 -0.000000
vn -0.258819 0.000021 -0.965926
vn 0.000000 0.000012 -1.000000
vn 0.000000 0.000012 -1.000000
vn -0.258819 0.000021 -0.965926
vn 0.000000 0.000012 -1.000000
vn -0.258819 0.000021 -0.965926
vn 0.000000 1.000000 0.000000
vn 0.000000 1.000000 0.000000
vn 0.000000 1.000000 0.000000
vn -0.965926 0.000038 -0.258819
vn -0.866025 0.000037 -0.500000
vn -0.866025 0.000037 -0.500000
vn -0.965926 0.000038 -0.258819
vn -0.866025 0.000037 -0.500000
vn -0.965926 0.000038 -0.258819
vn 0.000000 1.000000 0.000000
vn 0.000000 1.000000 0.000000
vn 0.000000 1.000000 0.000000
vn 0.000000 1.000000 0.000000
vn 0.000000 1.000000 0.000000
vn 0.000000 1.000000 0.000000
vn -0.866025 0.000037 -0.500000
vn -0.707107 0.000034 -0.707107
vn -0.707107 0.000034 -0.707107
vn -0.866025 0.000037 -0.500000
vn -0.707107 0.000034 -0.707107
vn -0.866025 0.000037 -0.500000
vn -0.500000 0.000028 -0.866026
vn -0.258819 0.000021 -0.965926
vn -0.258819 0.000021 -0.965926
vn -0.500000 0.000028 -0.866026
vn -0.258819 0.000021 -0.965926
vn -0.500000 0.000028 -0.866026
vn 0.000000 1.000000 0.000000
vn 0.000000 1.000000 0.000000
vn 0.000000 1.000000 0.000000
vn -0.707107 0.000034 -0.707107
vn -0.500000 0.000028 -0.866026
vn -0.500000 0.000028 -0.866026
vn -0.707107 0.000034 -0.707107
vn -0.500000 0.000028 -0.866026
vn -0.707107 0.000034 -0.707107
vn 0.000000 1.000000 0.000000
vn 0.000000 1.000000 0.000000
vn 0.000000 1.000000 0.000000
f 4/1/1 2/2/2 1/3/3
f 2/4/4 4/5/5 5/6/6
f 2/7/7 5/8/8 3/9/9
f 48/10/10 2/11/11 3/12/12
f 48/13/13 3/14/14 49/15/15
f 6/16/16 4/17/17 1/18/18
f 4/19/19 6/20/20 7/21/21
f 4/22/22 7/23/23 5/24/24
f 2/25/25 48/26/26 1/27/27
f 8/28/28 6/29/29 1/30/30
f 6/31/31 8/32/32 9/33/33
f 6/34/34 9/35/35 7/36/36
f 46/37/37 48/38/38 49/39/39
f 46/40/40 49/41/41 47/42/42
f 10/43/43 8/44/44 1/45/45
f 8/46/46 10/47/47 11/48/48
f 8/49/49 11/50/50 9/51/51
f 48/52/52 46/53/53 1/54/54
f 12/55/55 10/56/56 1/57/57
f 10/58/58 12/59/59 13/60/60
f 10/61/61 13/62/62 11/63/63
f 44/64/64 46/65/65 47/66/66
f 44/67/67 47/68/68 45/69/69
f 14/70/70 12/71/71 1/72/72
f 12/73/73 14/74/74 15/75/75
f 12/76/76 15/77/77 13/78/78
f 46/79/79 44/80/80 1/81/81
f 16/82/82 14/83/83 1/84/84
f 14/85/85 16/86/86 17/87/87
f 14/88/88 17/89/89 15/90/90
f 42/91/91 44/92/92 45/93/93
f 42/94/94 45/95/95 43/96/96
f 18/97/97 16/98/98 1/99/99
f 16/100/100 18/101/101 19/102/102
f 16/103/103 19/104/104 17/105/105
f 44/106/106 42/107/107 1/108/108
f 20/109/109 18/110/110 1/111/111
f 18/112/112 20/113/113 21/114/114
f 18/115/115 21/116/116 19/117/117
f 40/118/118 42/119/119 43/120/120
f 40/121/121 43/122/122 41/123/123
f 22/124/124 20/125/125 1/126/126
f 20/127/127 22/128/128 23/129/129
f 20/130/130 23/131/131 21/132/132
f 42/133/133 40/134/134 1/135/135
f 24/136/136 22/137/137 1/138/138
f 22/139/139 24/140/140 25/141/141
f 22/142/142 25/143/143 23/144/144
f 38/145/145 40/146/146 41/147/147
f 38/148/148 41/149/149 39/150/150
f 26/151/151 24/152/152 1/153/153
f 24/154/154 26/155/155 27/156/156
f 24/157/157 27/158/158 25/159/159
f 40/160/160 38/161/161 1/162/162
f 28/163/163 26/164/164 1/165/165
f 26/166/166 28/167/167 29/168/168
f 26/169/169 29/170/170 27/171/171
f 36/172/172 38/173/173 39/174/174
f 36/175/175 39/176/176 37/177/177
f 30/178/178 28/179/179 1/180/180
f 28/181/181 30/182/182 31/183/183
f 28/184/184 31/185/185 29/186/186
f 38/187/187 36/188/188 1/189/189
f 32/190/190 30/191/191 1/192/192
f 30/193/193 32/194/194 33/195/195
f 30/196/196 33/197/197 31/198/198
f 34/199/199 36/200/200 37/201/201
f 34/202/202 37/203/203 35/204/204
f 34/205/205 32/206/206 1/207/207
f 32/208/208 34/209/209 35/210/210
f 32/211/211 35/212/212 33/213/213
f 36/214/214 34/215/215 1/216/216
