v -23.472000 0.000000 -23.472000
v -23.472000 0.000000 0.000000
v -23.472000 0.000000 23.472000
v 0.000000 0.000000 -23.472000
v 0.000000 0.000000 23.472000
v 23.472000 0.000000 -23.472000
v 23.472000 0.000000 0.000000
v 23.472000 0.000000 23.472000
v 0.000000 19.113386 -29.760000
v 0.000000 19.113386 29.760000
v 29.760000 19.113386 -29.760000
v 29.760000 19.113386 0.000000
v 29.760000 19.113386 29.760000
v -29.760000 19.113386 29.760000
v -29.760000 19.113386 -29.760000
v -29.760000 19.113386 0.000000
vt 0.000000 0.000000
vt 0.000000 0.000000
vt 0.000000 0.000000
vt 0.000000 0.000000
vt 0.000000 0.000000
vt 0.000000 0.000000
vt 0.000000 0.000000
vt 0.000000 0.000000
vt 0.000000 0.000000
vt 0.000000 0.000000
vt 0.000000 0.000000
vt 0.000000 0.000000
vt 0.000000 0.000000
vt 0.000000 0.000000
vt 0.000000 0.000000
vt 0.000000 0.000000
vt 0.000000 0.000000
vt 0.000000 0.000000
vt 0.000000 0.000000
vt 0.000000 0.000000
vt 0.000000 0.000000
vt 0.000000 0.000000
vt 0.000000 0.000000
vt 0.000000 0.000000
vt 0.000000 0.000000
vt 0.000000 0.000000
vt 0.000000 0.000000
vt 0.000000 0.000000
vt 0.000000 0.000000
vt 0.000000 0.000000
vt 0.000000 0.000000
vt 0.000000 0.000000
vt 0.000000 0.000000
vt 0.000000 0.000000
vt 0.000000 0.000000
vt 0.000000 0.000000
vt 0.000000 0.000000
vt 0.000000 0.000000
vt 0.000000 0.000000
vt 0.000000 0.000000
vt 0.000000 0.000000
vt 0.000000 0.000000
vt 0.000000 0.000000
vt 0.000000 0.000000
vt 0.000000 0.000000
vt 0.000000 0.000000
vt 0.000000 0.000000
vt 0.000000 0.000000
vn -0.949915 -0.312507 0.000000
vn -0.949915 -0.312507 0.000000
vn -0.949915 -0.312507 0.000000
vn -0.949915 -0.312507 0.000000
vn -0.949915 -0.312507 0.000000
vn -0.949915 -0.312507 0.000000
vn -0.949915 -0.312507 0.000000
vn -0.949915 -0.312507 0.000000
vn -0.949915 -0.312507 0.000000
vn -0.949915 -0.312507 0.000000
vn -0.949915 -0.312507 0.000000
vn -0.949915 -0.312507 0.000000
vn 0.949915 -0.312507 0.000000
vn 0.949915 -0.312507 0.000000
vn 0.949915 -0.312507 0.000000
vn 0.949915 -0.312507 0.000000
vn 0.949915 -0.312507 0.000000
vn 0.949915 -0.312507 0.000000
vn 0.000000 -0.312507 -0.949915
vn 0.000000 -0.312507 -0.949915
vn 0.000000 -0.312507 -0.949915
vn 0.000000 -0.312507 -0.949915
vn 0.000000 -0.312507 -0.949915
vn 0.000000 -0.312507 -0.949915
vn 0.949915 -0.312507 0.000000
vn 0.949915 -0.312507 0.000000
vn 0.949915 -0.312507 0.000000
vn 0.949915 -0.312507 0.000000
vn 0.949915 -0.312507 0.000000
vn 0.949915 -0.312507 0.000000
vn 0.000000 -0.312507 0.949915
vn 0.000000 -0.312507 0.949915
vn 0.000000 -0.312507 0.949915
vn 0.000000 -0.312507 0.949915
vn 0.000000 -0.312507 0.949915
vn 0.000000 -0.312507 0.949915
vn 0.000000 -0.312507 0.949915
vn 0.000000 -0.312507 0.949915
vn 0.000000 -0.312507 0.949915
vn 0.000000 -0.312507 0.949915
vn 0.000000 -0.312507 0.949915
vn 0.000000 -0.312507 0.949915
vn 0.000000 -0.312507 -0.949915
vn 0.000000 -0.312507 -0.949915
vn 0.000000 -0.312507 -0.949915
vn 0.000000 -0.312507 -0.949915
vn 0.000000 -0.312507 -0.949915
vn 0.000000 -0.312507 -0.949915
f 1/1/1 2/2/2 16/3/3
f 1/4/4 16/5/5 15/6/6
f 2/7/7 3/8/8 14/9/9
f 2/10/10 14/11/11 16/12/12
f 8/13/13 7/14/14 12/15/15
f 8/16/16 12/17/17 13/18/18
f 1/19/19 15/20/20 9/21/21
f 1/22/22 9/23/23 4/24/24
f 7/25/25 6/26/26 11/27/27
f 7/28/28 11/29/29 12/30/30
f 8/31/31 13/32/32 10/33/33
f 8/34/34 10/35/35 5/36/36
f 3/37/37 5/38/38 10/39/39
f 3/40/40 10/41/41 14/42/42
f 6/43/43 4/44/44 9/45/45
f 6/46/46 9/47/47 11/48/48
