v 0.000000 -2.500000 -0.990220
v 0.000000 -2.500000 0.990220
v 0.711765 -2.500000 -0.574171
v 0.606057 0.548630 -0.544472
v 1.085670 -2.500000 0.000000
v 0.922618 1.406565 0.000000
v 0.711765 -2.500000 0.574171
v 0.606057 0.548630 0.544472
vt 0.003906 -0.003906
vt 0.477421 -0.003906
vt 0.485862 0.495230
vt 0.482888 0.491324
vt 0.479610 0.000000
vt 0.003906 -0.003906
vt 0.482888 0.491324
vt 0.992188 1.000000
vt 0.992188 0.000000
vt 0.482888 0.491324
vt 0.992188 0.000000
vt 0.479610 0.000000
vt 0.992188 1.000000
vt 0.485862 0.495230
vt 0.477421 -0.003906
vt 0.992188 1.000000
vt 0.477421 -0.003906
vt 0.992188 0.000000
vn 0.504473 0.025900 0.863039
vn 0.690046 0.031150 0.723095
vn 0.690046 0.031150 0.723095
vn 0.690046 0.031150 -0.723095
vn 0.690046 0.031150 -0.723095
vn 0.504473 0.025900 -0.863039
vn 0.690046 0.031150 -0.723095
vn 0.838322 0.034717 -0.544069
vn 0.838322 0.034717 -0.544069
vn 0.690046 0.031150 -0.723095
vn 0.838322 0.034717 -0.544069
vn 0.690046 0.031150 -0.723095
vn 0.838322 0.034717 0.544069
vn 0.690046 0.031150 0.723095
vn 0.690046 0.031150 0.723095
vn 0.838322 0.034717 0.544069
vn 0.690046 0.031150 0.723095
vn 0.838322 0.034717 0.544069
f 2/1/1 7/2/2 8/3/3
f 4/4/4 3/5/5 1/6/6
f 4/7/7 6/8/8 5/9/9
f 4/10/10 5/11/11 3/12/12
f 6/13/13 8/14/14 7/15/15
f 6/16/16 7/17/17 5/18/18
