v 0.030448 2.873547 -0.627865
v 0.030449 2.873547 0.012135
v 0.070180 6.421702 -0.813048
v 0.070180 6.421701 -0.013048
v 0.670449 2.873547 -0.627867
v 0.670449 2.873547 0.012134
v 0.870180 6.421702 -0.813049
v 0.870181 6.421702 -0.013049
v 0.202180 7.271669 -0.681048
v 0.738180 7.271669 -0.681049
v 0.738181 7.271669 -0.145048
v 0.202180 7.271669 -0.145048
v 0.005101 -0.098547 -0.004524
v 0.470180 7.815415 -0.413048
vt 0.000000 0.000000
vt 0.000000 0.000000
vt 0.000000 0.000000
vt 0.000000 0.000000
vt 0.000000 0.000000
vt 0.000000 0.000000
vt 0.000000 0.000000
vt 0.000000 0.000000
vt 0.000000 0.000000
vt 0.000000 0.000000
vt 0.000000 0.000000
vt 0.000000 0.000000
vt 0.000000 0.000000
vt 0.000000 0.000000
vt 0.000000 0.000000
vt 0.000000 0.000000
vt 0.000000 0.000000
vt 0.000000 0.000000
vt 0.000000 0.000000
vt 0.000000 0.000000
vt 0.000000 0.000000
vt 0.000000 0.000000
vt 0.000000 0.000000
vt 0.000000 0.000000
vt 0.000000 0.000000
vt 0.000000 0.000000
vt 0.000000 0.000000
vt 0.000000 0.000000
vt 0.000000 0.000000
vt 0.000000 0.000000
vt 0.000000 0.000000
vt 0.000000 0.000000
vt 0.000000 0.000000
vt 0.000000 0.000000
vt 0.000000 0.000000
vt 0.000000 0.000000
vt 0.000000 0.000000
vt 0.000000 0.000000
vt 0.000000 0.000000
vt 0.000000 0.000000
vt 0.000000 0.000000
vt 0.000000 0.000000
vt 0.000000 0.000000
vt 0.000000 0.000000
vt 0.000000 0.000000
vt 0.000000 0.000000
vt 0.000000 0.000000
vt 0.000000 0.000000
vt 0.000000 0.000000
vt 0.000000 0.000000
vt 0.000000 0.000000
vt 0.000000 0.000000
vt 0.000000 0.000000
vt 0.000000 0.000000
vt 0.000000 0.000000
vt 0.000000 0.000000
vt 0.000000 0.000000
vt 0.000000 0.000000
vt 0.000000 0.000000
vt 0.000000 0.000000
vt 0.000000 0.000000
vt 0.000000 0.000000
vt 0.000000 0.000000
vt 0.000000 0.000000
vt 0.000000 0.000000
vt 0.000000 0.000000
vt 0.000000 0.000000
vt 0.000000 0.000000
vt 0.000000 0.000000
vt 0.000000 0.000000
vt 0.000000 0.000000
vt 0.000000 0.000000
vn -0.999951 0.009863 0.000000
vn -0.999951 0.009863 0.000000
vn -0.996588 0.082539 0.000001
vn -0.999951 0.009863 0.000000
vn -0.996588 0.082539 0.000001
vn -0.996588 0.082539 0.000001
vn 0.000001 0.000746 1.000000
vn 0.000001 0.000746 1.000000
vn 0.000001 0.080496 0.996755
vn 0.000001 0.000746 1.000000
vn 0.000001 0.080496 0.996755
vn 0.000001 0.080496 0.996755
vn 0.990461 -0.137795 -0.000001
vn 0.990461 -0.137795 -0.000001
vn 0.998804 0.048899 -0.000001
vn 0.990461 -0.137795 -0.000001
vn 0.998804 0.048899 -0.000001
vn 0.998804 0.048899 -0.000001
vn -0.000001 -0.129079 -0.991634
vn -0.000001 -0.129079 -0.991634
vn -0.000001 0.050940 -0.998702
vn -0.000001 -0.129079 -0.991634
vn -0.000001 0.050940 -0.998702
vn -0.000001 0.050940 -0.998702
vn -0.999951 0.009863 0.000000
vn -0.999951 0.009863 0.000000
vn -0.999964 0.008529 0.000000
vn 0.953546 0.301248 -0.000001
vn 0.953546 0.301248 -0.000001
vn 0.896968 0.442096 -0.000001
vn -0.000001 0.050940 -0.998702
vn -0.000001 0.050940 -0.998702
vn -0.645601 0.407922 -0.645600
vn -0.000001 0.050940 -0.998702
vn -0.645601 0.407922 -0.645600
vn -0.000001 0.301248 -0.953546
vn 0.998804 0.048899 -0.000001
vn 0.998804 0.048899 -0.000001
vn 0.953546 0.301248 -0.000001
vn 0.998804 0.048899 -0.000001
vn 0.953546 0.301248 -0.000001
vn 0.953546 0.301248 -0.000001
vn 0.000001 0.080496 0.996755
vn 0.000001 0.080496 0.996755
vn 0.000001 0.301248 0.953546
vn 0.000001 0.080496 0.996755
vn 0.000001 0.301248 0.953546
vn 0.000001 0.301248 0.953546
vn -0.996588 0.082539 0.000001
vn -0.996588 0.082539 0.000001
vn -0.953546 0.301248 0.000001
vn -0.996588 0.082539 0.000001
vn -0.953546 0.301248 0.000001
vn -0.645601 0.407922 -0.645600
vn -0.000001 -0.129079 -0.991634
vn -0.000001 -0.129079 -0.991634
vn -0.000001 -0.205268 -0.978706
vn 0.990461 -0.137795 -0.000001
vn 0.990461 -0.137795 -0.000001
vn 0.975846 -0.218461 -0.000001
vn 0.000001 0.000746 1.000000
vn 0.000001 0.000746 1.000000
vn 0.000001 -0.005605 0.999984
vn -0.645601 0.407922 -0.645600
vn -0.953546 0.301248 0.000001
vn -0.580092 0.571828 -0.580091
vn 0.000001 0.442096 0.896968
vn 0.000001 0.301248 0.953546
vn 0.000001 0.301248 0.953546
vn -0.580092 0.571828 -0.580091
vn -0.000001 0.301248 -0.953546
vn -0.645601 0.407922 -0.645600
f 1/1/1 2/2/2 4/3/3
f 1/4/4 4/5/5 3/6/6
f 2/7/7 6/8/8 8/9/9
f 2/10/10 8/11/11 4/12/12
f 6/13/13 5/14/14 7/15/15
f 6/16/16 7/17/17 8/18/18
f 5/19/19 1/20/20 3/21/21
f 5/22/22 3/23/23 7/24/24
f 2/25/25 1/26/26 13/27/27
f 11/28/28 10/29/29 14/30/30
f 7/31/31 3/32/32 9/33/33
f 7/34/34 9/35/35 10/36/36
f 8/37/37 7/38/38 10/39/39
f 8/40/40 10/41/41 11/42/42
f 4/43/43 8/44/44 11/45/45
f 4/46/46 11/47/47 12/48/48
f 3/49/49 4/50/50 12/51/51
f 3/52/52 12/53/53 9/54/54
f 1/55/55 5/56/56 13/57/57
f 5/58/58 6/59/59 13/60/60
f 6/61/61 2/62/62 13/63/63
f 9/64/64 12/65/65 14/66/66
f 14/67/67 12/68/68 11/69/69
f 14/70/70 10/71/71 9/72/72
