v -0.951753 -1.580111 -3.604102
v -4.233018 20.792759 2.181235
v -3.731815 27.784031 5.510168
v -6.943232 26.433455 10.067949
v -1.230778 26.098349 10.380478
v -2.795220 -1.176935 0.391618
v 3.056873 -1.176936 -0.764777
v -3.421880 20.584242 2.965118
v -4.529917 20.507904 3.252027
v -3.678564 20.254341 4.333014
v 0.831094 -0.372028 3.049605
v 1.329425 9.153887 0.866766
v -1.433914 9.065819 1.405662
v 0.239617 9.137104 2.693619
v -0.526573 9.194914 -0.194353
v -1.164263 9.173765 0.340074
v 0.333564 9.238503 -0.056015
v 0.896714 9.101210 2.051152
v -0.601113 9.036482 2.447241
v 2.267788 -0.774482 2.042837
v -0.904254 -0.774481 2.892787
v -2.214647 -1.378523 -1.997686
v 0.957395 -1.378523 -2.847637
v -3.761103 20.699524 2.531688
v -4.575510 20.643431 2.742577
v -4.167986 20.375347 3.814236
v -3.353579 20.431454 3.603352
v -5.980912 27.210423 7.517273
v -1.782260 27.009109 7.763802
v -4.142650 25.943352 11.086427
vt 0.343259 0.024077
vt 0.630974 0.036104
vt 0.532909 0.415827
vt 0.343259 0.024077
vt 0.532909 0.415827
vt 0.393519 0.411672
vt 0.595152 0.768194
vt 0.541270 0.768685
vt 0.532909 0.415827
vt 0.595152 0.768194
vt 0.532909 0.415827
vt 0.641853 0.411672
vt 0.159549 0.995037
vt 0.532441 0.990075
vt 0.449344 0.767703
vt 0.159549 0.995037
vt 0.449344 0.767703
vt 0.392560 0.767703
vt 0.464326 0.996947
vt 0.000000 1.000000
vt 0.400119 0.767703
vt 0.464326 0.996947
vt 0.400119 0.767703
vt 0.460126 0.768194
vt 0.541270 0.768685
vt 0.595152 0.768194
vt 0.583828 0.767703
vt 0.541270 0.768685
vt 0.583828 0.767703
vt 0.947104 0.993894
vt 0.392560 0.767703
vt 0.449344 0.767703
vt 0.405877 0.403611
vt 0.392560 0.767703
vt 0.405877 0.403611
vt 0.300151 0.405564
vt 0.527586 0.767703
vt 0.449344 0.767703
vt 0.532441 0.990075
vt 0.527586 0.767703
vt 0.532441 0.990075
vt 0.855671 0.991984
vt 0.527586 0.767703
vt 0.583828 0.767703
vt 0.713595 0.407516
vt 0.527586 0.767703
vt 0.713595 0.407516
vt 0.548485 0.405564
vt 0.651914 0.006025
vt 0.335384 0.000000
vt 0.405877 0.403611
vt 0.651914 0.006025
vt 0.405877 0.403611
vt 0.548485 0.405564
vt 0.869173 0.024077
vt 1.000000 0.012049
vt 0.713595 0.407516
vt 0.869173 0.024077
vt 0.713595 0.407516
vt 0.641853 0.411672
vt 0.460126 0.768194
vt 0.400119 0.767703
vt 0.255444 0.407516
vt 0.460126 0.768194
vt 0.255444 0.407516
vt 0.393519 0.411672
vt 0.126001 0.006025
vt 0.029744 0.012049
vt 0.255444 0.407516
vt 0.126001 0.006025
vt 0.255444 0.407516
vt 0.300151 0.405564
vt 0.029744 0.012049
vt 0.126001 0.006025
vt 0.335384 0.000000
vt 0.029744 0.012049
vt 0.335384 0.000000
vt 0.651914 0.006025
vt 0.029744 0.012049
vt 0.651914 0.006025
vt 1.000000 0.012049
vt 0.029744 0.012049
vt 1.000000 0.012049
vt 0.869173 0.024077
vt 0.029744 0.012049
vt 0.869173 0.024077
vt 0.630974 0.036104
vt 0.029744 0.012049
vt 0.630974 0.036104
vt 0.343259 0.024077
vt 0.548485 0.405564
vt 0.713595 0.407516
vt 1.000000 0.012049
vt 0.548485 0.405564
vt 1.000000 0.012049
vt 0.651914 0.006025
vt 0.641853 0.411672
vt 0.532909 0.415827
vt 0.630974 0.036104
vt 0.641853 0.411672
vt 0.630974 0.036104
vt 0.869173 0.024077
vt 0.393519 0.411672
vt 0.255444 0.407516
vt 0.029744 0.012049
vt 0.393519 0.411672
vt 0.029744 0.012049
vt 0.343259 0.024077
vt 0.300151 0.405564
vt 0.405877 0.403611
vt 0.335384 0.000000
vt 0.300151 0.405564
vt 0.335384 0.000000
vt 0.126001 0.006025
vt 0.548485 0.405564
vt 0.405877 0.403611
vt 0.449344 0.767703
vt 0.548485 0.405564
vt 0.449344 0.767703
vt 0.527586 0.767703
vt 0.300151 0.405564
vt 0.255444 0.407516
vt 0.400119 0.767703
vt 0.300151 0.405564
vt 0.400119 0.767703
vt 0.392560 0.767703
vt 0.393519 0.411672
vt 0.532909 0.415827
vt 0.541270 0.768685
vt 0.393519 0.411672
vt 0.541270 0.768685
vt 0.460126 0.768194
vt 0.641853 0.411672
vt 0.713595 0.407516
vt 0.583828 0.767703
vt 0.641853 0.411672
vt 0.583828 0.767703
vt 0.595152 0.768194
vt 0.392560 0.767703
vt 0.400119 0.767703
vt 0.000000 1.000000
vt 0.392560 0.767703
vt 0.000000 1.000000
vt 0.159549 0.995037
vt 0.855671 0.991984
vt 0.947104 0.993894
vt 0.583828 0.767703
vt 0.855671 0.991984
vt 0.583828 0.767703
vt 0.527586 0.767703
vt 0.460126 0.768194
vt 0.541270 0.768685
vt 0.947104 0.993894
vt 0.460126 0.768194
vt 0.947104 0.993894
vt 0.464326 0.996947
vn -0.514400 0.046941 0.856265
vn 0.254751 0.063474 0.964921
vn 0.235024 0.014254 0.971885
vn -0.514400 0.046941 0.856265
vn 0.235024 0.014254 0.971885
vn -0.592720 -0.131030 0.794679
vn 0.947620 0.040101 0.316872
vn 0.926401 -0.119153 0.357189
vn 0.235024 0.014254 0.971885
vn 0.947620 0.040101 0.316872
vn 0.235024 0.014254 0.971885
vn 0.854189 0.190317 0.483880
vn -0.864960 0.158437 -0.476173
vn -0.709806 0.325902 -0.624470
vn -0.738968 0.121704 -0.662657
vn -0.864960 0.158437 -0.476173
vn -0.738968 0.121704 -0.662657
vn -0.885460 -0.005805 -0.464680
vn -0.189701 -0.772385 0.606164
vn -0.411944 -0.739005 0.533079
vn -0.906734 -0.381247 0.180236
vn -0.189701 -0.772385 0.606164
vn -0.906734 -0.381247 0.180236
vn -0.443104 -0.565200 0.695850
vn 0.926401 -0.119153 0.357189
vn 0.947620 0.040101 0.316872
vn 0.981683 0.076348 -0.174555
vn 0.926401 -0.119153 0.357189
vn 0.981683 0.076348 -0.174555
vn 0.965738 -0.232908 -0.114472
vn -0.885460 -0.005805 -0.464680
vn -0.738968 0.121704 -0.662657
vn -0.736404 0.070376 -0.672872
vn -0.885460 -0.005805 -0.464680
vn -0.736404 0.070376 -0.672872
vn -0.888211 0.013085 -0.459250
vn 0.726903 0.245707 -0.641280
vn 0.561288 0.289172 -0.775458
vn 0.749067 0.254124 -0.611817
vn 0.726903 0.245707 -0.641280
vn 0.749067 0.254124 -0.611817
vn 0.878301 0.116230 -0.463765
vn 0.726903 0.245707 -0.641280
vn 0.981683 0.076348 -0.174555
vn 0.923265 0.304731 -0.233927
vn 0.726903 0.245707 -0.641280
vn 0.923265 0.304731 -0.233927
vn 0.506986 0.306284 -0.805702
vn 0.487409 0.253935 -0.835433
vn 0.274303 0.270098 -0.922933
vn 0.306396 0.288243 -0.907214
vn 0.487409 0.253935 -0.835433
vn 0.306396 0.288243 -0.907214
vn 0.506986 0.306284 -0.805702
vn 0.826649 0.105019 0.552832
vn 0.951901 0.123200 0.280545
vn 0.923265 0.304731 -0.233927
vn 0.826649 0.105019 0.552832
vn 0.923265 0.304731 -0.233927
vn 0.854189 0.190317 0.483880
vn -0.443104 -0.565200 0.695850
vn -0.906734 -0.381247 0.180236
vn -0.973566 -0.096500 0.207020
vn -0.443104 -0.565200 0.695850
vn -0.973566 -0.096500 0.207020
vn -0.592720 -0.131030 0.794679
vn -0.865023 0.194245 -0.462607
vn -0.972993 0.110256 0.202800
vn -0.973566 -0.096500 0.207020
vn -0.865023 0.194245 -0.462607
vn -0.973566 -0.096500 0.207020
vn -0.888211 0.013085 -0.459250
vn 0.032372 -0.989871 0.138228
vn 0.032372 -0.989871 0.138228
vn 0.032372 -0.989871 0.138228
vn 0.032372 -0.989871 0.138228
vn 0.032372 -0.989871 0.138228
vn 0.032372 -0.989871 0.138228
vn 0.032372 -0.989871 0.138228
vn 0.032372 -0.989871 0.138228
vn 0.032372 -0.989871 0.138228
vn 0.032372 -0.989871 0.138228
vn 0.032372 -0.989871 0.138228
vn 0.032372 -0.989871 0.138228
vn 0.032372 -0.989871 0.138228
vn 0.032372 -0.989871 0.138228
vn 0.032372 -0.989871 0.138228
vn 0.032372 -0.989871 0.138228
vn 0.032372 -0.989871 0.138228
vn 0.032372 -0.989871 0.138228
vn 0.506986 0.306284 -0.805702
vn 0.923265 0.304731 -0.233927
vn 0.674522 0.224230 -0.703378
vn 0.506986 0.306284 -0.805702
vn 0.674522 0.224230 -0.703378
vn 0.487409 0.253935 -0.835433
vn 0.854189 0.190317 0.483880
vn 0.235024 0.014254 0.971885
vn 0.254751 0.063474 0.964921
vn 0.854189 0.190317 0.483880
vn 0.254751 0.063474 0.964921
vn 0.826649 0.105019 0.552832
vn -0.592720 -0.131030 0.794679
vn -0.973566 -0.096500 0.207020
vn -0.972993 0.110256 0.202800
vn -0.592720 -0.131030 0.794679
vn -0.972993 0.110256 0.202800
vn -0.514400 0.046941 0.856265
vn -0.888211 0.013085 -0.459250
vn -0.736404 0.070376 -0.672872
vn -0.718758 0.226841 -0.657214
vn -0.888211 0.013085 -0.459250
vn -0.718758 0.226841 -0.657214
vn -0.865023 0.194245 -0.462607
vn 0.506986 0.306284 -0.805702
vn 0.306396 0.288243 -0.907214
vn 0.561288 0.289172 -0.775458
vn 0.506986 0.306284 -0.805702
vn 0.561288 0.289172 -0.775458
vn 0.726903 0.245707 -0.641280
vn -0.888211 0.013085 -0.459250
vn -0.973566 -0.096500 0.207020
vn -0.906734 -0.381247 0.180236
vn -0.888211 0.013085 -0.459250
vn -0.906734 -0.381247 0.180236
vn -0.885460 -0.005805 -0.464680
vn -0.592720 -0.131030 0.794679
vn 0.235024 0.014254 0.971885
vn -0.236832 -0.557390 0.795756
vn -0.592720 -0.131030 0.794679
vn -0.236832 -0.557390 0.795756
vn -0.443104 -0.565200 0.695850
vn 0.854189 0.190317 0.483880
vn 0.923265 0.304731 -0.233927
vn 0.981683 0.076348 -0.174555
vn 0.854189 0.190317 0.483880
vn 0.981683 0.076348 -0.174555
vn 0.947620 0.040101 0.316872
vn -0.885460 -0.005805 -0.464680
vn -0.906734 -0.381247 0.180236
vn -0.956013 -0.020770 -0.292588
vn -0.885460 -0.005805 -0.464680
vn -0.956013 -0.020770 -0.292588
vn -0.864960 0.158437 -0.476173
vn 0.878301 0.116230 -0.463765
vn 0.965738 -0.232908 -0.114472
vn 0.981683 0.076348 -0.174555
vn 0.878301 0.116230 -0.463765
vn 0.981683 0.076348 -0.174555
vn 0.726903 0.245707 -0.641280
vn -0.443104 -0.565200 0.695850
vn -0.236832 -0.557390 0.795756
vn 0.043137 -0.762629 0.645396
vn -0.443104 -0.565200 0.695850
vn 0.043137 -0.762629 0.645396
vn -0.189701 -0.772385 0.606164
f 21/1/1 11/2/2 14/3/3
f 21/4/4 14/5/5 19/6/6
f 27/7/7 10/8/8 14/9/9
f 27/10/10 14/11/11 18/12/12
f 28/13/13 3/14/14 2/15/15
f 28/16/16 2/17/17 25/18/18
f 30/19/19 4/20/20 9/21/21
f 30/22/22 9/23/23 26/24/24
f 10/25/25 27/26/26 8/27/27
f 10/28/28 8/29/29 5/30/30
f 25/31/31 2/32/32 15/33/33
f 25/34/34 15/35/35 16/36/36
f 24/37/37 2/38/38 3/39/39
f 24/40/40 3/41/41 29/42/42
f 24/43/43 8/44/44 12/45/45
f 24/46/46 12/47/47 17/48/48
f 23/49/49 1/50/50 15/51/51
f 23/52/52 15/53/53 17/54/54
f 20/55/55 7/56/56 12/57/57
f 20/58/58 12/59/59 18/60/60
f 26/61/61 9/62/62 13/63/63
f 26/64/64 13/65/65 19/66/66
f 22/67/67 6/68/68 13/69/69
f 22/70/70 13/71/71 16/72/72
f 6/73/73 22/74/74 1/75/75
f 6/76/76 1/77/77 23/78/78
f 6/79/79 23/80/80 7/81/81
f 6/82/82 7/83/83 20/84/84
f 6/85/85 20/86/86 11/87/87
f 6/88/88 11/89/89 21/90/90
f 17/91/91 12/92/92 7/93/93
f 17/94/94 7/95/95 23/96/96
f 18/97/97 14/98/98 11/99/99
f 18/100/100 11/101/101 20/102/102
f 19/103/103 13/104/104 6/105/105
f 19/106/106 6/107/107 21/108/108
f 16/109/109 15/110/110 1/111/111
f 16/112/112 1/113/113 22/114/114
f 17/115/115 15/116/116 2/117/117
f 17/118/118 2/119/119 24/120/120
f 16/121/121 13/122/122 9/123/123
f 16/124/124 9/125/125 25/126/126
f 19/127/127 14/128/128 10/129/129
f 19/130/130 10/131/131 26/132/132
f 18/133/133 12/134/134 8/135/135
f 18/136/136 8/137/137 27/138/138
f 25/139/139 9/140/140 4/141/141
f 25/142/142 4/143/143 28/144/144
f 29/145/145 5/146/146 8/147/147
f 29/148/148 8/149/149 24/150/150
f 26/151/151 10/152/152 5/153/153
f 26/154/154 5/155/155 30/156/156
