v -22.627417 0.000000 0.000000
v -16.970562 0.000000 5.656854
v -11.313708 0.000000 11.313708
v -5.656854 0.000000 16.970562
v 0.000000 0.000000 22.627417
v -16.970562 0.000000 -5.656854
v -11.313708 0.751454 0.000000
v -5.656854 0.751454 5.656854
v 0.000000 0.751454 11.313708
v 5.656854 0.000000 16.970562
v -11.313708 0.000000 -11.313708
v -5.656854 0.751454 -5.656854
v 0.000000 2.297556 0.000000
v 5.656854 0.751454 5.656854
v 11.313708 0.000000 11.313708
v -5.656854 0.000000 -16.970562
v 0.000000 0.751454 -11.313708
v 5.656854 0.751454 -5.656854
v 11.313708 0.751454 0.000000
v 16.970562 0.000000 5.656854
v 0.000000 0.000000 -22.627417
v 5.656854 0.000000 -16.970562
v 11.313708 0.000000 -11.313708
v 16.970562 0.000000 -5.656854
v 22.627417 0.000000 0.000000
v 8.485281 0.751454 -2.828427
v 7.071068 0.751454 -4.242640
v 8.485281 0.751454 2.828427
v 7.071068 0.751454 4.242640
v -8.485281 0.751454 2.828427
v -7.071068 0.751454 4.242640
v -8.485281 0.751454 -2.828427
v -7.071068 0.751454 -4.242640
v -2.828427 0.751454 -8.485281
v -4.242640 0.751454 -7.071068
v -1.583920 2.152788 -1.583920
v -4.242640 1.026988 -4.242640
v 4.949748 0.751454 -6.363961
v 1.583920 2.152788 -1.583920
v 4.242640 1.026988 -4.242640
v 4.949748 0.751454 6.363961
v -4.242640 1.026988 4.242640
v -4.242640 0.751454 7.071068
v 1.583920 2.152788 1.583920
v 4.242640 1.026988 4.242640
v -1.583920 2.152788 1.583920
v -2.828427 1.703768 2.828427
v 2.828427 1.703768 2.828427
v -4.242640 1.428234 4.242640
v 4.242640 1.428234 4.242640
v 0.707107 1.492196 -6.363961
v 0.353553 1.492196 6.717515
v 2.828427 1.703768 -2.828427
v 1.060660 1.492196 -7.424621
v 0.000000 1.492196 5.656854
v -4.242640 1.428234 -4.242640
v 4.242640 1.428234 -4.242640
v -2.828427 1.703768 -2.828427
v 0.883883 2.002084 -6.894291
v 3.535534 2.075889 -3.535534
v -3.535534 2.075889 -3.535534
v 3.535534 2.075889 3.535534
v -3.535534 2.075889 3.535534
v 0.176777 2.002084 6.187184
v -3.309260 1.802454 -1.895047
v 3.309260 1.802454 -1.895047
v -3.309260 1.802454 1.895047
v 3.309260 1.802454 1.895047
v -2.701683 2.013892 2.467042
v -2.943178 2.063453 1.998298
v -2.076707 2.239390 1.842050
v 2.701683 2.013892 -2.467042
v 2.943178 2.063453 -1.998298
v 2.076707 2.239390 -1.842050
v 2.701707 2.013891 2.467042
v 2.943181 2.063452 1.998299
v 2.076714 2.239389 1.842051
v -2.701707 2.013891 -2.467042
v -2.943181 2.063452 -1.998299
v -2.076714 2.239389 -1.842051
v -2.776992 2.489553 -2.045173
v -2.300435 2.586318 -1.959237
v -2.644181 2.462294 -2.302982
v 2.776992 2.489553 2.045173
v 2.300435 2.586318 1.959237
v 2.644181 2.462294 2.302982
v 2.644161 2.462292 -2.302980
v 2.300424 2.586316 -1.959235
v 2.776984 2.489550 -2.045171
v -2.644161 2.462292 2.302980
v -2.300424 2.586316 1.959235
v -2.776984 2.489550 2.045171
v -3.768761 5.283465 3.415071
v -2.960294 5.575173 2.606600
v -4.081160 5.347577 2.808707
v 3.768761 5.283465 -3.415071
v 2.960294 5.575173 -2.606600
v 4.081160 5.347577 -2.808707
v 4.081161 5.347569 2.808701
v 2.960299 5.575156 2.606578
v 3.768789 5.283454 3.415066
v -4.081161 5.347569 -2.808701
v -2.960299 5.575156 -2.606578
v -3.768789 5.283454 -3.415066
v -3.808846 5.729388 -2.885503
v -3.326874 5.827252 -2.798588
v -3.674525 5.701819 -3.146240
v 3.808846 5.729388 2.885503
v 3.326874 5.827252 2.798588
v 3.674525 5.701819 3.146240
v 3.674504 5.701835 -3.146251
v 3.326862 5.827268 -2.798597
v 3.808836 5.729402 -2.885513
v -3.674504 5.701835 3.146251
v -3.326862 5.827268 2.798597
v -3.808836 5.729402 2.885513
v -2.360040 2.422046 0.000000
v 2.360040 2.422046 0.000000
v -4.016367 2.184967 0.000000
v 4.016367 2.184967 0.000000
v 0.000000 2.152788 2.375879
v 0.000000 2.152788 -2.375879
v 0.000000 1.703768 3.252691
v 0.000000 1.703768 -3.252691
v 0.000000 2.075889 -3.535534
v 0.459337 2.463816 -0.459337
v 0.459337 2.463816 0.459337
v -0.459337 2.463816 0.459337
v -0.459337 2.463816 -0.459337
v -1.057264 1.944204 1.585894
v 1.057264 1.944204 1.585894
v -1.582370 2.004114 -1.057264
v 1.582370 2.004114 1.057264
v 0.000000 1.735620 -1.853173
v 1.057264 1.944204 -1.585894
v -1.582370 2.004114 1.057264
v -1.057264 1.944204 -1.585894
v -1.156689 1.761873 -1.158233
v -1.156689 1.761873 1.158233
v -0.000000 1.735620 1.853173
v 1.156689 1.761873 -1.158233
v 1.156689 1.761873 1.158233
v -1.840819 1.945643 -0.000000
v 1.582370 2.004114 -1.057264
v 1.840819 1.945643 0.000000
vt 0.000000 0.000000
vt 0.000000 0.000000
vt 0.000000 0.000000
vt 0.000000 0.000000
vt 0.000000 0.000000
vt 0.000000 0.000000
vt 0.000000 0.000000
vt 0.000000 0.000000
vt 0.000000 0.000000
vt 0.000000 0.000000
vt 0.000000 0.000000
vt 0.000000 0.000000
vt 0.000000 0.000000
vt 0.000000 0.000000
vt 0.000000 0.000000
vt 0.000000 0.000000
vt 0.000000 0.000000
vt 0.000000 0.000000
vt 0.000000 0.000000
vt 0.000000 0.000000
vt 0.000000 0.000000
vt 0.000000 0.000000
vt 0.000000 0.000000
vt 0.000000 0.000000
vt 0.000000 0.000000
vt 0.000000 0.000000
vt 0.000000 0.000000
vt 0.000000 0.000000
vt 0.000000 0.000000
vt 0.000000 0.000000
vt 0.000000 0.000000
vt 0.000000 0.000000
vt 0.000000 0.000000
vt 0.000000 0.000000
vt 0.000000 0.000000
vt 0.000000 0.000000
vt 0.000000 0.000000
vt 0.000000 0.000000
vt 0.000000 0.000000
vt 0.000000 0.000000
vt 0.000000 0.000000
vt 0.000000 0.000000
vt 0.000000 0.000000
vt 0.000000 0.000000
vt 0.000000 0.000000
vt 0.000000 0.000000
vt 0.000000 0.000000
vt 0.000000 0.000000
vt 0.000000 0.000000
vt 0.000000 0.000000
vt 0.000000 0.000000
vt 0.000000 0.000000
vt 0.000000 0.000000
vt 0.000000 0.000000
vt 0.000000 0.000000
vt 0.000000 0.000000
vt 0.000000 0.000000
vt 0.000000 0.000000
vt 0.000000 0.000000
vt 0.000000 0.000000
vt 0.000000 0.000000
vt 0.000000 0.000000
vt 0.000000 0.000000
vt 0.000000 0.000000
vt 0.000000 0.000000
vt 0.000000 0.000000
vt 0.000000 0.000000
vt 0.000000 0.000000
vt 0.000000 0.000000
vt 0.000000 0.000000
vt 0.000000 0.000000
vt 0.000000 0.000000
vt 0.000000 0.000000
vt 0.000000 0.000000
vt 0.000000 0.000000
vt 0.000000 0.000000
vt 0.000000 0.000000
vt 0.000000 0.000000
vt 0.000000 0.000000
vt 0.000000 0.000000
vt 0.000000 0.000000
vt 0.000000 0.000000
vt 0.000000 0.000000
vt 0.000000 0.000000
vt 0.000000 0.000000
vt 0.000000 0.000000
vt 0.000000 0.000000
vt 0.000000 0.000000
vt 0.000000 0.000000
vt 0.000000 0.000000
vt 0.000000 0.000000
vt 0.000000 0.000000
vt 0.000000 0.000000
vt 0.000000 0.000000
vt 0.000000 0.000000
vt 0.000000 0.000000
vt 0.000000 0.000000
vt 0.000000 0.000000
vt 0.000000 0.000000
vt 0.000000 0.000000
vt 0.000000 0.000000
vt 0.000000 0.000000
vt 0.000000 0.000000
vt 0.000000 0.000000
vt 0.000000 0.000000
vt 0.000000 0.000000
vt 0.000000 0.000000
vt 0.000000 0.000000
vt 0.000000 0.000000
vt 0.000000 0.000000
vt 0.000000 0.000000
vt 0.000000 0.000000
vt 0.000000 0.000000
vt 0.000000 0.000000
vt 0.000000 0.000000
vt 0.000000 0.000000
vt 0.000000 0.000000
vt 0.000000 0.000000
vt 0.000000 0.000000
vt 0.000000 0.000000
vt 0.000000 0.000000
vt 0.000000 0.000000
vt 0.000000 0.000000
vt 0.000000 0.000000
vt 0.000000 0.000000
vt 0.000000 0.000000
vt 0.000000 0.000000
vt 0.000000 0.000000
vt 0.000000 0.000000
vt 0.000000 0.000000
vt 0.000000 0.000000
vt 0.000000 0.000000
vt 0.000000 0.000000
vt 0.000000 0.000000
vt 0.000000 0.000000
vt 0.000000 0.000000
vt 0.000000 0.000000
vt 0.000000 0.000000
vt 0.000000 0.000000
vt 0.000000 0.000000
vt 0.000000 0.000000
vt 0.000000 0.000000
vt 0.000000 0.000000
vt 0.000000 0.000000
vt 0.000000 0.000000
vt 0.000000 0.000000
vt 0.000000 0.000000
vt 0.000000 0.000000
vt 0.000000 0.000000
vt 0.000000 0.000000
vt 0.000000 0.000000
vt 0.000000 0.000000
vt 0.000000 0.000000
vt 0.000000 0.000000
vt 0.000000 0.000000
vt 0.000000 0.000000
vt 0.000000 0.000000
vt 0.000000 0.000000
vt 0.000000 0.000000
vt 0.000000 0.000000
vt 0.000000 0.000000
vt 0.000000 0.000000
vt 0.000000 0.000000
vt 0.000000 0.000000
vt 0.000000 0.000000
vt 0.000000 0.000000
vt 0.000000 0.000000
vt 0.000000 0.000000
vt 0.000000 0.000000
vt 0.000000 0.000000
vt 0.000000 0.000000
vt 0.000000 0.000000
vt 0.000000 0.000000
vt 0.000000 0.000000
vt 0.000000 0.000000
vt 0.000000 0.000000
vt 0.000000 0.000000
vt 0.000000 0.000000
vt 0.000000 0.000000
vt 0.000000 0.000000
vt 0.000000 0.000000
vt 0.000000 0.000000
vt 0.000000 0.000000
vt 0.000000 0.000000
vt 0.000000 0.000000
vt 0.000000 0.000000
vt 0.000000 0.000000
vt 0.000000 0.000000
vt 0.000000 0.000000
vt 0.000000 0.000000
vt 0.000000 0.000000
vt 0.000000 0.000000
vt 0.000000 0.000000
vt 0.000000 0.000000
vt 0.000000 0.000000
vt 0.000000 0.000000
vt 0.000000 0.000000
vt 0.000000 0.000000
vt 0.000000 0.000000
vt 0.000000 0.000000
vt 0.000000 0.000000
vt 0.000000 0.000000
vt 0.000000 0.000000
vt 0.000000 0.000000
vt 0.000000 0.000000
vt 0.000000 0.000000
vt 0.000000 0.000000
vt 0.000000 0.000000
vt 0.000000 0.000000
vt 0.000000 0.000000
vt 0.000000 0.000000
vt 0.000000 0.000000
vt 0.000000 0.000000
vt 0.000000 0.000000
vt 0.000000 0.000000
vt 0.000000 0.000000
vt 0.000000 0.000000
vt 0.000000 0.000000
vt 0.000000 0.000000
vt 0.000000 0.000000
vt 0.000000 0.000000
vt 0.000000 0.000000
vt 0.000000 0.000000
vt 0.000000 0.000000
vt 0.000000 0.000000
vt 0.000000 0.000000
vt 0.000000 0.000000
vt 0.000000 0.000000
vt 0.000000 0.000000
vt 0.000000 0.000000
vt 0.000000 0.000000
vt 0.000000 0.000000
vt 0.000000 0.000000
vt 0.000000 0.000000
vt 0.000000 0.000000
vt 0.000000 0.000000
vt 0.000000 0.000000
vt 0.000000 0.000000
vt 0.000000 0.000000
vt 0.000000 0.000000
vt 0.000000 0.000000
vt 0.000000 0.000000
vt 0.000000 0.000000
vt 0.000000 0.000000
vt 0.000000 0.000000
vt 0.000000 0.000000
vt 0.000000 0.000000
vt 0.000000 0.000000
vt 0.000000 0.000000
vt 0.000000 0.000000
vt 0.000000 0.000000
vt 0.000000 0.000000
vt 0.000000 0.000000
vt 0.000000 0.000000
vt 0.000000 0.000000
vt 0.000000 0.000000
vt 0.000000 0.000000
vt 0.000000 0.000000
vt 0.000000 0.000000
vt 0.000000 0.000000
vt 0.000000 0.000000
vt 0.000000 0.000000
vt 0.000000 0.000000
vt 0.000000 0.000000
vt 0.000000 0.000000
vt 0.000000 0.000000
vt 0.000000 0.000000
vt 0.000000 0.000000
vt 0.000000 0.000000
vt 0.000000 0.000000
vt 0.000000 0.000000
vt 0.000000 0.000000
vt 0.000000 0.000000
vt 0.000000 0.000000
vt 0.000000 0.000000
vt 0.000000 0.000000
vt 0.000000 0.000000
vt 0.000000 0.000000
vt 0.000000 0.000000
vt 0.000000 0.000000
vt 0.000000 0.000000
vt 0.000000 0.000000
vt 0.000000 0.000000
vt 0.000000 0.000000
vt 0.000000 0.000000
vt 0.000000 0.000000
vt 0.000000 0.000000
vt 0.000000 0.000000
vt 0.000000 0.000000
vt 0.000000 0.000000
vt 0.000000 0.000000
vt 0.000000 0.000000
vt 0.000000 0.000000
vt 0.000000 0.000000
vt 0.000000 0.000000
vt 0.000000 0.000000
vt 0.000000 0.000000
vt 0.000000 0.000000
vt 0.000000 0.000000
vt 0.000000 0.000000
vt 0.000000 0.000000
vt 0.000000 0.000000
vt 0.000000 0.000000
vt 0.000000 0.000000
vt 0.000000 0.000000
vt 0.000000 0.000000
vt 0.000000 0.000000
vt 0.000000 0.000000
vt 0.000000 0.000000
vt 0.000000 0.000000
vt 0.000000 0.000000
vt 0.000000 0.000000
vt 0.000000 0.000000
vt 0.000000 0.000000
vt 0.000000 0.000000
vt 0.000000 0.000000
vt 0.000000 0.000000
vt 0.000000 0.000000
vt 0.000000 0.000000
vt 0.000000 0.000000
vt 0.000000 0.000000
vt 0.000000 0.000000
vt 0.000000 0.000000
vt 0.000000 0.000000
vt 0.000000 0.000000
vt 0.000000 0.000000
vt 0.000000 0.000000
vt 0.000000 0.000000
vt 0.000000 0.000000
vt 0.000000 0.000000
vt 0.000000 0.000000
vt 0.000000 0.000000
vt 0.000000 0.000000
vt 0.000000 0.000000
vt 0.000000 0.000000
vt 0.000000 0.000000
vt 0.000000 0.000000
vt 0.000000 0.000000
vt 0.000000 0.000000
vt 0.000000 0.000000
vt 0.000000 0.000000
vt 0.000000 0.000000
vt 0.000000 0.000000
vt 0.000000 0.000000
vt 0.000000 0.000000
vt 0.000000 0.000000
vt 0.000000 0.000000
vt 0.000000 0.000000
vt 0.000000 0.000000
vt 0.000000 0.000000
vt 0.000000 0.000000
vt 0.000000 0.000000
vt 0.000000 0.000000
vt 0.000000 0.000000
vt 0.000000 0.000000
vt 0.000000 0.000000
vt 0.000000 0.000000
vt 0.000000 0.000000
vt 0.000000 0.000000
vt 0.000000 0.000000
vt 0.000000 0.000000
vt 0.000000 0.000000
vt 0.000000 0.000000
vt 0.000000 0.000000
vt 0.000000 0.000000
vt 0.000000 0.000000
vt 0.000000 0.000000
vt 0.000000 0.000000
vt 0.000000 0.000000
vt 0.000000 0.000000
vt 0.000000 0.000000
vt 0.000000 0.000000
vt 0.000000 0.000000
vt 0.000000 0.000000
vt 0.000000 0.000000
vt 0.000000 0.000000
vt 0.000000 0.000000
vt 0.000000 0.000000
vt 0.000000 0.000000
vt 0.000000 0.000000
vt 0.000000 0.000000
vt 0.000000 0.000000
vt 0.000000 0.000000
vt 0.000000 0.000000
vt 0.000000 0.000000
vt 0.000000 0.000000
vt 0.000000 0.000000
vt 0.000000 0.000000
vt 0.000000 0.000000
vt 0.000000 0.000000
vt 0.000000 0.000000
vt 0.000000 0.000000
vt 0.000000 0.000000
vt 0.000000 0.000000
vt 0.000000 0.000000
vt 0.000000 0.000000
vt 0.000000 0.000000
vt 0.000000 0.000000
vt 0.000000 0.000000
vt 0.000000 0.000000
vt 0.000000 0.000000
vt 0.000000 0.000000
vt 0.000000 0.000000
vt 0.000000 0.000000
vt 0.000000 0.000000
vt 0.000000 0.000000
vt 0.000000 0.000000
vt 0.000000 0.000000
vt 0.000000 0.000000
vt 0.000000 0.000000
vt 0.000000 0.000000
vt 0.000000 0.000000
vt 0.000000 0.000000
vt 0.000000 0.000000
vt 0.000000 0.000000
vt 0.000000 0.000000
vt 0.000000 0.000000
vt 0.000000 0.000000
vt 0.000000 0.000000
vt 0.000000 0.000000
vt 0.000000 0.000000
vt 0.000000 0.000000
vt 0.000000 0.000000
vt 0.000000 0.000000
vt 0.000000 0.000000
vt 0.000000 0.000000
vt 0.000000 0.000000
vt 0.000000 0.000000
vt 0.000000 0.000000
vt 0.000000 0.000000
vt 0.000000 0.000000
vt 0.000000 0.000000
vt 0.000000 0.000000
vt 0.000000 0.000000
vt 0.000000 0.000000
vt 0.000000 0.000000
vt 0.000000 0.000000
vt 0.000000 0.000000
vt 0.000000 0.000000
vt 0.000000 0.000000
vt 0.000000 0.000000
vt 0.000000 0.000000
vt 0.000000 0.000000
vt 0.000000 0.000000
vt 0.000000 0.000000
vt 0.000000 0.000000
vt 0.000000 0.000000
vt 0.000000 0.000000
vt 0.000000 0.000000
vt 0.000000 0.000000
vt 0.000000 0.000000
vt 0.000000 0.000000
vt 0.000000 0.000000
vt 0.000000 0.000000
vt 0.000000 0.000000
vt 0.000000 0.000000
vt 0.000000 0.000000
vt 0.000000 0.000000
vt 0.000000 0.000000
vt 0.000000 0.000000
vt 0.000000 0.000000
vt 0.000000 0.000000
vt 0.000000 0.000000
vt 0.000000 0.000000
vt 0.000000 0.000000
vt 0.000000 0.000000
vt 0.000000 0.000000
vt 0.000000 0.000000
vt 0.000000 0.000000
vt 0.000000 0.000000
vt 0.000000 0.000000
vt 0.000000 0.000000
vt 0.000000 0.000000
vt 0.000000 0.000000
vt 0.000000 0.000000
vt 0.000000 0.000000
vt 0.000000 0.000000
vt 0.000000 0.000000
vt 0.000000 0.000000
vt 0.000000 0.000000
vt 0.000000 0.000000
vt 0.000000 0.000000
vt 0.000000 0.000000
vt 0.000000 0.000000
vt 0.000000 0.000000
vt 0.000000 0.000000
vt 0.000000 0.000000
vt 0.000000 0.000000
vt 0.000000 0.000000
vt 0.000000 0.000000
vt 0.000000 0.000000
vt 0.000000 0.000000
vt 0.000000 0.000000
vt 0.000000 0.000000
vt 0.000000 0.000000
vt 0.000000 0.000000
vt 0.000000 0.000000
vt 0.000000 0.000000
vt 0.000000 0.000000
vt 0.000000 0.000000
vt 0.000000 0.000000
vt 0.000000 0.000000
vt 0.000000 0.000000
vt 0.000000 0.000000
vt 0.000000 0.000000
vt 0.000000 0.000000
vt 0.000000 0.000000
vt 0.000000 0.000000
vt 0.000000 0.000000
vt 0.000000 0.000000
vt 0.000000 0.000000
vt 0.000000 0.000000
vt 0.000000 0.000000
vt 0.000000 0.000000
vt 0.000000 0.000000
vt 0.000000 0.000000
vt 0.000000 0.000000
vt 0.000000 0.000000
vt 0.000000 0.000000
vt 0.000000 0.000000
vt 0.000000 0.000000
vt 0.000000 0.000000
vt 0.000000 0.000000
vt 0.000000 0.000000
vt 0.000000 0.000000
vt 0.000000 0.000000
vt 0.000000 0.000000
vt 0.000000 0.000000
vt 0.000000 0.000000
vt 0.000000 0.000000
vt 0.000000 0.000000
vt 0.000000 0.000000
vt 0.000000 0.000000
vt 0.000000 0.000000
vt 0.000000 0.000000
vt 0.000000 0.000000
vt 0.000000 0.000000
vt 0.000000 0.000000
vt 0.000000 0.000000
vt 0.000000 0.000000
vt 0.000000 0.000000
vt 0.000000 0.000000
vt 0.000000 0.000000
vt 0.000000 0.000000
vt 0.000000 0.000000
vt 0.000000 0.000000
vt 0.000000 0.000000
vt 0.000000 0.000000
vt 0.000000 0.000000
vt 0.000000 0.000000
vt 0.000000 0.000000
vt 0.000000 0.000000
vt 0.000000 0.000000
vt 0.000000 0.000000
vt 0.000000 0.000000
vt 0.000000 0.000000
vt 0.000000 0.000000
vt 0.000000 0.000000
vt 0.000000 0.000000
vt 0.000000 0.000000
vt 0.000000 0.000000
vt 0.000000 0.000000
vt 0.000000 0.000000
vt 0.000000 0.000000
vt 0.000000 0.000000
vt 0.000000 0.000000
vt 0.000000 0.000000
vt 0.000000 0.000000
vt 0.000000 0.000000
vt 0.000000 0.000000
vt 0.000000 0.000000
vt 0.000000 0.000000
vt 0.000000 0.000000
vt 0.000000 0.000000
vt 0.000000 0.000000
vt 0.000000 0.000000
vt 0.000000 0.000000
vt 0.000000 0.000000
vt 0.000000 0.000000
vt 0.000000 0.000000
vt 0.000000 0.000000
vt 0.000000 0.000000
vt 0.000000 0.000000
vt 0.000000 0.000000
vt 0.000000 0.000000
vt 0.000000 0.000000
vt 0.000000 0.000000
vt 0.000000 0.000000
vt 0.000000 0.000000
vt 0.000000 0.000000
vt 0.000000 0.000000
vt 0.000000 0.000000
vt 0.000000 0.000000
vt 0.000000 0.000000
vt 0.000000 0.000000
vt 0.000000 0.000000
vt 0.000000 0.000000
vt 0.000000 0.000000
vt 0.000000 0.000000
vt 0.000000 0.000000
vt 0.000000 0.000000
vt 0.000000 0.000000
vt 0.000000 0.000000
vt 0.000000 0.000000
vt 0.000000 0.000000
vt 0.000000 0.000000
vt 0.000000 0.000000
vt 0.000000 0.000000
vt 0.000000 0.000000
vt 0.000000 0.000000
vt 0.000000 0.000000
vt 0.000000 0.000000
vt 0.000000 0.000000
vt 0.000000 0.000000
vt 0.000000 0.000000
vt 0.000000 0.000000
vt 0.000000 0.000000
vt 0.000000 0.000000
vt 0.000000 0.000000
vt 0.000000 0.000000
vt 0.000000 0.000000
vt 0.000000 0.000000
vt 0.000000 0.000000
vt 0.000000 0.000000
vt 0.000000 0.000000
vt 0.000000 0.000000
vt 0.000000 0.000000
vt 0.000000 0.000000
vt 0.000000 0.000000
vt 0.000000 0.000000
vt 0.000000 0.000000
vt 0.000000 0.000000
vt 0.000000 0.000000
vt 0.000000 0.000000
vt 0.000000 0.000000
vt 0.000000 0.000000
vt 0.000000 0.000000
vt 0.000000 0.000000
vt 0.000000 0.000000
vt 0.000000 0.000000
vt 0.000000 0.000000
vt 0.000000 0.000000
vt 0.000000 0.000000
vt 0.000000 0.000000
vt 0.000000 0.000000
vt 0.000000 0.000000
vt 0.000000 0.000000
vt 0.000000 0.000000
vt 0.000000 0.000000
vt 0.000000 0.000000
vt 0.000000 0.000000
vt 0.000000 0.000000
vt 0.000000 0.000000
vt 0.000000 0.000000
vt 0.000000 0.000000
vt 0.000000 0.000000
vt 0.000000 0.000000
vt 0.000000 0.000000
vt 0.000000 0.000000
vt 0.000000 0.000000
vt 0.000000 0.000000
vt 0.000000 0.000000
vt 0.000000 0.000000
vt 0.000000 0.000000
vt 0.000000 0.000000
vt 0.000000 0.000000
vt 0.000000 0.000000
vt 0.000000 0.000000
vt 0.000000 0.000000
vt 0.000000 0.000000
vt 0.000000 0.000000
vt 0.000000 0.000000
vt 0.000000 0.000000
vt 0.000000 0.000000
vt 0.000000 0.000000
vt 0.000000 0.000000
vt 0.000000 0.000000
vt 0.000000 0.000000
vt 0.000000 0.000000
vt 0.000000 0.000000
vt 0.000000 0.000000
vt 0.000000 0.000000
vt 0.000000 0.000000
vt 0.000000 0.000000
vt 0.000000 0.000000
vt 0.000000 0.000000
vt 0.000000 0.000000
vt 0.000000 0.000000
vt 0.000000 0.000000
vt 0.000000 0.000000
vt 0.000000 0.000000
vt 0.000000 0.000000
vt 0.000000 0.000000
vt 0.000000 0.000000
vt 0.000000 0.000000
vt 0.000000 0.000000
vt 0.000000 0.000000
vt 0.000000 0.000000
vt 0.000000 0.000000
vt 0.000000 0.000000
vt 0.000000 0.000000
vt 0.000000 0.000000
vt 0.000000 0.000000
vt 0.000000 0.000000
vt 0.000000 0.000000
vt 0.000000 0.000000
vt 0.000000 0.000000
vt 0.000000 0.000000
vt 0.000000 0.000000
vt 0.000000 0.000000
vt 0.000000 0.000000
vt 0.000000 0.000000
vt 0.000000 0.000000
vt 0.000000 0.000000
vt 0.000000 0.000000
vt 0.000000 0.000000
vt 0.000000 0.000000
vt 0.000000 0.000000
vt 0.000000 0.000000
vt 0.000000 0.000000
vt 0.000000 0.000000
vt 0.000000 0.000000
vt 0.000000 0.000000
vt 0.000000 0.000000
vt 0.000000 0.000000
vt 0.000000 0.000000
vt 0.000000 0.000000
vt 0.000000 0.000000
vt 0.000000 0.000000
vt 0.000000 0.000000
vt 0.000000 0.000000
vt 0.000000 0.000000
vt 0.000000 0.000000
vt 0.000000 0.000000
vt 0.000000 0.000000
vt 0.000000 0.000000
vt 0.000000 0.000000
vt 0.000000 0.000000
vt 0.000000 0.000000
vt 0.000000 0.000000
vt 0.000000 0.000000
vt 0.000000 0.000000
vt 0.000000 0.000000
vt 0.000000 0.000000
vt 0.000000 0.000000
vt 0.000000 0.000000
vt 0.000000 0.000000
vt 0.000000 0.000000
vt 0.000000 0.000000
vt 0.000000 0.000000
vt 0.000000 0.000000
vt 0.000000 0.000000
vt 0.000000 0.000000
vt 0.000000 0.000000
vt 0.000000 0.000000
vt 0.000000 0.000000
vt 0.000000 0.000000
vt 0.000000 0.000000
vt 0.000000 0.000000
vt 0.000000 0.000000
vt 0.000000 0.000000
vt 0.000000 0.000000
vt 0.000000 0.000000
vt 0.000000 0.000000
vt 0.000000 0.000000
vt 0.000000 0.000000
vt 0.000000 0.000000
vt 0.000000 0.000000
vt 0.000000 0.000000
vt 0.000000 0.000000
vt 0.000000 0.000000
vt 0.000000 0.000000
vt 0.000000 0.000000
vt 0.000000 0.000000
vt 0.000000 0.000000
vt 0.000000 0.000000
vt 0.000000 0.000000
vt 0.000000 0.000000
vt 0.000000 0.000000
vt 0.000000 0.000000
vt 0.000000 0.000000
vt 0.000000 0.000000
vt 0.000000 0.000000
vt 0.000000 0.000000
vt 0.000000 0.000000
vt 0.000000 0.000000
vt 0.000000 0.000000
vt 0.000000 0.000000
vt 0.000000 0.000000
vt 0.000000 0.000000
vt 0.000000 0.000000
vt 0.000000 0.000000
vt 0.000000 0.000000
vt 0.000000 0.000000
vt 0.000000 0.000000
vt 0.000000 0.000000
vt 0.000000 0.000000
vt 0.000000 0.000000
vt 0.000000 0.000000
vt 0.000000 0.000000
vt 0.000000 0.000000
vt 0.000000 0.000000
vt 0.000000 0.000000
vt 0.000000 0.000000
vt 0.000000 0.000000
vt 0.000000 0.000000
vt 0.000000 0.000000
vt 0.000000 0.000000
vt 0.000000 0.000000
vt 0.000000 0.000000
vt 0.000000 0.000000
vt 0.000000 0.000000
vt 0.000000 0.000000
vt 0.000000 0.000000
vt 0.000000 0.000000
vt 0.000000 0.000000
vn -0.066274 0.997801 0.000000
vn -0.066237 0.997255 0.033082
vn -0.111327 0.993784 0.000000
vn -0.066274 0.997801 0.000000
vn -0.111327 0.993784 0.000000
vn -0.066237 0.997255 -0.033082
vn -0.066237 0.997255 0.033082
vn -0.066129 0.995617 0.066129
vn -0.090955 0.987413 0.129397
vn -0.066237 0.997255 0.033082
vn -0.090955 0.987413 0.129397
vn -0.164831 0.952527 0.255974
vn -0.066237 0.997255 0.033082
vn -0.164831 0.952527 0.255974
vn -0.173821 0.966633 0.188168
vn -0.066237 0.997255 0.033082
vn -0.173821 0.966633 0.188168
vn -0.111327 0.993784 0.000000
vn -0.066129 0.995617 0.066129
vn -0.033082 0.997255 0.066237
vn 0.000000 0.998764 0.049708
vn -0.066129 0.995617 0.066129
vn 0.000000 0.998764 0.049708
vn -0.092095 0.960959 0.260914
vn -0.066129 0.995617 0.066129
vn -0.092095 0.960959 0.260914
vn -0.090955 0.987413 0.129397
vn -0.033082 0.997255 0.066237
vn 0.000000 0.997801 0.066274
vn 0.033082 0.997255 0.066237
vn -0.033082 0.997255 0.066237
vn 0.033082 0.997255 0.066237
vn 0.000000 0.998764 0.049708
vn -0.066237 0.997255 -0.033082
vn -0.111327 0.993784 0.000000
vn -0.173821 0.966633 -0.188168
vn -0.066237 0.997255 -0.033082
vn -0.173821 0.966633 -0.188168
vn -0.164831 0.952527 -0.255974
vn -0.066237 0.997255 -0.033082
vn -0.164831 0.952527 -0.255974
vn -0.057242 0.994472 -0.088031
vn -0.066237 0.997255 -0.033082
vn -0.057242 0.994472 -0.088031
vn -0.066129 0.995617 -0.066129
vn -0.164831 0.952527 0.255974
vn -0.090955 0.987413 0.129397
vn -0.048363 0.988366 0.144202
vn -0.092095 0.960959 0.260914
vn 0.000000 0.998764 0.049708
vn 0.123651 0.960289 0.250111
vn 0.000000 0.998764 0.049708
vn 0.033082 0.997255 0.066237
vn 0.066129 0.995617 0.066129
vn 0.000000 0.998764 0.049708
vn 0.066129 0.995617 0.066129
vn 0.093883 0.986746 0.132354
vn 0.000000 0.998764 0.049708
vn 0.093883 0.986746 0.132354
vn 0.123651 0.960289 0.250111
vn -0.066129 0.995617 -0.066129
vn -0.057242 0.994472 -0.088031
vn -0.097272 0.985565 -0.138565
vn -0.066129 0.995617 -0.066129
vn -0.097272 0.985565 -0.138565
vn -0.063559 0.964639 -0.255798
vn -0.066129 0.995617 -0.066129
vn -0.063559 0.964639 -0.255798
vn 0.000000 0.998764 -0.049708
vn -0.066129 0.995617 -0.066129
vn 0.000000 0.998764 -0.049708
vn -0.033082 0.997255 -0.066237
vn 0.048363 0.988366 0.144202
vn 0.093883 0.986746 0.132354
vn 0.164831 0.952527 0.255974
vn 0.093883 0.986746 0.132354
vn 0.066129 0.995617 0.066129
vn 0.066237 0.997255 0.033082
vn 0.093883 0.986746 0.132354
vn 0.066237 0.997255 0.033082
vn 0.111327 0.993784 0.000000
vn 0.093883 0.986746 0.132354
vn 0.111327 0.993784 0.000000
vn 0.173821 0.966633 0.188168
vn 0.093883 0.986746 0.132354
vn 0.173821 0.966633 0.188168
vn 0.164831 0.952527 0.255974
vn -0.033082 0.997255 -0.066237
vn 0.000000 0.998764 -0.049708
vn 0.033082 0.997255 -0.066237
vn -0.033082 0.997255 -0.066237
vn 0.033082 0.997255 -0.066237
vn 0.000000 0.997801 -0.066274
vn 0.000000 0.998764 -0.049708
vn 0.180008 0.949070 -0.258578
vn 0.110250 0.984674 -0.135135
vn 0.000000 0.998764 -0.049708
vn 0.110250 0.984674 -0.135135
vn 0.066129 0.995617 -0.066129
vn 0.000000 0.998764 -0.049708
vn 0.066129 0.995617 -0.066129
vn 0.033082 0.997255 -0.066237
vn 0.110250 0.984674 -0.135135
vn 0.164831 0.952527 -0.255974
vn 0.173821 0.966633 -0.188168
vn 0.110250 0.984674 -0.135135
vn 0.173821 0.966633 -0.188168
vn 0.111327 0.993784 0.000000
vn 0.110250 0.984674 -0.135135
vn 0.111327 0.993784 0.000000
vn 0.066237 0.997255 -0.033082
vn 0.110250 0.984674 -0.135135
vn 0.066237 0.997255 -0.033082
vn 0.066129 0.995617 -0.066129
vn 0.111327 0.993784 0.000000
vn 0.066237 0.997255 0.033082
vn 0.066274 0.997801 0.000000
vn 0.111327 0.993784 0.000000
vn 0.066274 0.997801 0.000000
vn 0.066237 0.997255 -0.033082
vn 0.091965 0.702316 -0.705900
vn -0.002040 0.721202 -0.692722
vn -0.002040 0.721202 -0.692722
vn -0.048313 0.992767 -0.109911
vn -0.057242 0.994472 -0.088031
vn -0.164831 0.952527 -0.255974
vn -0.048363 0.988366 0.144202
vn -0.090955 0.987413 0.129397
vn 0.093883 0.986746 0.132354
vn -0.048363 0.988366 0.144202
vn 0.093883 0.986746 0.132354
vn 0.048363 0.988366 0.144202
vn 0.164831 0.952527 -0.255974
vn 0.110250 0.984674 -0.135135
vn 0.048313 0.992767 -0.109911
vn 0.136962 0.813568 -0.565109
vn 0.037668 0.868295 -0.494616
vn 0.025501 0.794485 -0.606748
vn -0.163791 0.841068 0.515536
vn -0.097924 0.780723 0.617157
vn 0.097924 0.780723 0.617157
vn -0.163791 0.841068 0.515536
vn 0.097924 0.780723 0.617157
vn 0.163791 0.841068 0.515536
vn -0.164831 0.952527 0.255974
vn -0.097924 0.780723 0.617157
vn -0.163791 0.841068 0.515536
vn 0.180008 0.949070 -0.258578
vn 0.000000 0.998764 -0.049708
vn -0.063559 0.964639 -0.255798
vn 0.280216 0.923135 0.263250
vn 0.173821 0.966633 0.188168
vn 0.111327 0.993784 0.000000
vn 0.280216 0.923135 0.263250
vn 0.111327 0.993784 0.000000
vn 0.164471 0.986382 0.000000
vn 0.164831 0.952527 -0.255974
vn 0.097924 0.780723 -0.617157
vn 0.163791 0.841068 -0.515536
vn 0.163791 0.841068 -0.515536
vn 0.097924 0.780723 -0.617157
vn -0.097924 0.780723 -0.617157
vn 0.163791 0.841068 -0.515536
vn -0.097924 0.780723 -0.617157
vn -0.163791 0.841068 -0.515536
vn 0.163791 0.841068 -0.515536
vn -0.163791 0.841068 -0.515536
vn 0.000000 0.737427 -0.675426
vn -0.280211 0.923137 0.263250
vn -0.144482 0.959615 0.241379
vn -0.148885 0.988855 0.000000
vn -0.280211 0.923137 0.263250
vn -0.148885 0.988855 0.000000
vn -0.164471 0.986382 0.000000
vn -0.136962 0.813568 0.565109
vn -0.037668 0.868295 0.494616
vn -0.025501 0.794485 0.606748
vn -0.097272 0.985565 -0.138565
vn -0.057242 0.994472 -0.088031
vn -0.048313 0.992767 -0.109911
vn -0.097272 0.985565 -0.138565
vn -0.048313 0.992767 -0.109911
vn 0.048313 0.992767 -0.109911
vn -0.097272 0.985565 -0.138565
vn 0.048313 0.992767 -0.109911
vn 0.110250 0.984674 -0.135135
vn 0.180008 0.949070 -0.258578
vn 0.178111 0.738328 -0.650498
vn 0.117126 0.868981 -0.480783
vn 0.000000 0.939559 0.342386
vn -0.093958 0.935403 0.340872
vn -0.093958 0.935403 0.340872
vn 0.000000 0.939559 0.342386
vn -0.093958 0.935403 0.340872
vn 0.000000 0.939559 0.342386
vn 0.000000 0.000000 1.000000
vn 0.000000 0.000000 1.000000
vn 0.000000 0.000000 1.000000
vn 0.000000 0.000000 1.000000
vn 0.000000 0.000000 1.000000
vn 0.000000 0.000000 1.000000
vn 0.000000 0.000000 -1.000000
vn 0.000000 0.000000 -1.000000
vn 0.000000 0.000000 -1.000000
vn 0.076697 -0.000000 0.997054
vn 0.076697 -0.000000 0.997054
vn 0.076697 -0.000000 0.997054
vn 0.000000 0.000000 -1.000000
vn 0.000000 0.000000 -1.000000
vn 0.000000 0.000000 -1.000000
vn -0.163096 0.968831 -0.186459
vn -0.163096 0.968831 -0.186459
vn -0.163096 0.968831 -0.186459
vn -0.280211 0.923137 0.263250
vn -0.173821 0.966633 0.188168
vn -0.399949 0.866845 0.297691
vn 0.000000 0.000000 1.000000
vn 0.000000 0.000000 1.000000
vn 0.000000 0.000000 1.000000
vn 0.163096 0.968831 0.186459
vn 0.163096 0.968831 0.186459
vn 0.163096 0.968831 0.186459
vn 0.000000 0.000000 1.000000
vn 0.000000 0.000000 1.000000
vn 0.000000 0.000000 1.000000
vn 0.280211 0.923137 -0.263250
vn 0.173821 0.966633 -0.188168
vn 0.399949 0.866845 -0.297691
vn 0.000000 0.000000 -1.000000
vn 0.000000 0.000000 -1.000000
vn 0.000000 0.000000 -1.000000
vn 0.263117 -0.000000 -0.964764
vn 0.263117 -0.000000 -0.964764
vn 0.263117 -0.000000 -0.964764
vn -0.141421 -0.000000 0.989949
vn -0.141421 -0.000000 0.989949
vn -0.141421 -0.000000 0.989949
vn 0.000000 0.000000 -1.000000
vn 0.000000 0.000000 -1.000000
vn 0.000000 0.000000 -1.000000
vn 0.000000 0.000000 -1.000000
vn 0.000000 0.000000 -1.000000
vn 0.000000 0.000000 -1.000000
vn 0.000000 0.939559 -0.342386
vn 0.093958 0.935403 -0.340872
vn 0.093958 0.935403 -0.340872
vn 0.000000 0.939559 -0.342386
vn 0.093958 0.935403 -0.340872
vn 0.000000 0.939559 -0.342386
vn -0.202394 0.738780 0.642838
vn -0.097554 0.733473 0.672682
vn -0.097554 0.733473 0.672682
vn -0.092095 0.960959 0.260914
vn 0.054820 0.728847 0.682479
vn 0.032374 0.877832 0.477874
vn 0.032374 0.877832 0.477874
vn 0.054820 0.728847 0.682479
vn 0.123651 0.960289 0.250111
vn 0.123651 0.960289 0.250111
vn 0.093883 0.986746 0.132354
vn 0.032374 0.877832 0.477874
vn -0.002040 0.721202 -0.692722
vn -0.002040 0.721202 -0.692722
vn -0.096027 0.733332 -0.673055
vn -0.090955 0.987413 0.129397
vn -0.092095 0.960959 0.260914
vn 0.032374 0.877832 0.477874
vn -0.025501 0.794485 -0.606748
vn -0.037668 0.868295 -0.494616
vn -0.136962 0.813568 -0.565109
vn 0.025501 0.794485 -0.606748
vn 0.037668 0.868295 -0.494616
vn 0.000000 0.829944 -0.557846
vn 0.163791 0.841068 0.515536
vn 0.097924 0.780723 0.617157
vn 0.164831 0.952527 0.255974
vn 0.163791 0.841068 0.515536
vn 0.164831 0.952527 0.255974
vn 0.173821 0.966633 0.188168
vn -0.173821 0.966633 0.188168
vn -0.164831 0.952527 0.255974
vn -0.163791 0.841068 0.515536
vn -0.163791 0.841068 -0.515536
vn -0.097924 0.780723 -0.617157
vn -0.164831 0.952527 -0.255974
vn -0.025501 0.794485 0.606748
vn -0.037668 0.868295 0.494616
vn 0.000000 0.829944 0.557846
vn 0.025501 0.794485 0.606748
vn 0.037668 0.868295 0.494616
vn 0.136962 0.813568 0.565109
vn 0.163791 0.841068 -0.515536
vn 0.173821 0.966633 -0.188168
vn 0.164831 0.952527 -0.255974
vn -0.164831 0.952527 -0.255974
vn -0.173821 0.966633 -0.188168
vn -0.163791 0.841068 -0.515536
vn 0.117126 0.868981 -0.480783
vn 0.178111 0.738328 -0.650498
vn -0.063559 0.964639 -0.255798
vn -0.097554 0.733473 0.672682
vn -0.097554 0.733473 0.672682
vn 0.008448 0.719429 0.694514
vn 0.110250 0.984674 -0.135135
vn 0.180008 0.949070 -0.258578
vn 0.117126 0.868981 -0.480783
vn -0.063559 0.964639 -0.255798
vn -0.097272 0.985565 -0.138565
vn 0.117126 0.868981 -0.480783
vn 0.280211 0.923137 -0.263250
vn 0.144482 0.959615 -0.241379
vn 0.148885 0.988855 0.000000
vn 0.280211 0.923137 -0.263250
vn 0.148885 0.988855 0.000000
vn 0.164471 0.986382 0.000000
vn 0.163099 0.968830 -0.186460
vn 0.163099 0.968830 -0.186460
vn 0.163099 0.968830 -0.186460
vn 0.399959 0.866841 0.297692
vn 0.173821 0.966633 0.188168
vn 0.280216 0.923135 0.263250
vn -0.163099 0.968830 0.186460
vn -0.163099 0.968830 0.186460
vn -0.163099 0.968830 0.186460
vn -0.399959 0.866841 -0.297692
vn -0.173821 0.966633 -0.188168
vn -0.280216 0.923135 -0.263250
vn -0.280211 0.923137 0.263250
vn -0.399949 0.866845 0.297691
vn -0.746031 0.502088 0.437430
vn -0.280211 0.923137 0.263250
vn -0.746031 0.502088 0.437430
vn -0.746031 0.502088 0.437430
vn -0.260650 0.648521 -0.715180
vn -0.260650 0.648521 -0.715180
vn -0.244412 0.433311 -0.867470
vn -0.260650 0.648521 -0.715180
vn -0.244412 0.433311 -0.867470
vn -0.244412 0.433311 -0.867470
vn 0.453223 0.591690 0.666702
vn 0.453223 0.591690 0.666702
vn 0.573263 0.397305 0.716602
vn 0.453223 0.591690 0.666702
vn 0.573263 0.397305 0.716602
vn 0.573263 0.397305 0.716602
vn 0.280211 0.923137 -0.263250
vn 0.399949 0.866845 -0.297691
vn 0.746031 0.502088 -0.437430
vn 0.280211 0.923137 -0.263250
vn 0.746031 0.502088 -0.437430
vn 0.746031 0.502088 -0.437430
vn 0.260650 0.648521 0.715180
vn 0.260650 0.648521 0.715180
vn 0.244412 0.433311 0.867470
vn 0.260650 0.648521 0.715180
vn 0.244412 0.433311 0.867470
vn 0.244412 0.433311 0.867470
vn -0.453223 0.591690 -0.666702
vn -0.453223 0.591690 -0.666702
vn -0.573263 0.397305 -0.716602
vn -0.453223 0.591690 -0.666702
vn -0.573263 0.397305 -0.716602
vn -0.573263 0.397305 -0.716602
vn 0.399959 0.866841 0.297692
vn 0.280216 0.923135 0.263250
vn 0.746047 0.502078 0.437414
vn 0.399959 0.866841 0.297692
vn 0.746047 0.502078 0.437414
vn 0.746047 0.502078 0.437414
vn -0.453206 0.591709 0.666697
vn -0.453206 0.591709 0.666697
vn -0.573253 0.397314 0.716605
vn -0.453206 0.591709 0.666697
vn -0.573253 0.397314 0.716605
vn -0.573253 0.397314 0.716605
vn 0.260650 0.648521 -0.715180
vn 0.260650 0.648521 -0.715180
vn 0.244413 0.433310 -0.867470
vn 0.260650 0.648521 -0.715180
vn 0.244413 0.433310 -0.867470
vn 0.244413 0.433310 -0.867470
vn -0.399959 0.866841 -0.297692
vn -0.280216 0.923135 -0.263250
vn -0.746047 0.502078 -0.437414
vn -0.399959 0.866841 -0.297692
vn -0.746047 0.502078 -0.437414
vn -0.746047 0.502078 -0.437414
vn 0.453206 0.591709 -0.666697
vn 0.453206 0.591709 -0.666697
vn 0.573253 0.397314 -0.716605
vn 0.453206 0.591709 -0.666697
vn 0.573253 0.397314 -0.716605
vn 0.573253 0.397314 -0.716605
vn -0.260650 0.648521 0.715180
vn -0.260650 0.648521 0.715180
vn -0.244413 0.433310 0.867470
vn -0.260650 0.648521 0.715180
vn -0.244413 0.433310 0.867470
vn -0.244413 0.433310 0.867470
vn -0.244413 0.433310 0.867470
vn -0.244413 0.433310 0.867470
vn -0.209121 0.175548 0.962004
vn -0.244413 0.433310 0.867470
vn -0.209121 0.175548 0.962004
vn -0.209121 0.175548 0.962004
vn -0.746047 0.502078 -0.437414
vn -0.746047 0.502078 -0.437414
vn -0.841831 0.277400 -0.463002
vn -0.746047 0.502078 -0.437414
vn -0.841831 0.277400 -0.463002
vn -0.841831 0.277400 -0.463002
vn 0.573253 0.397314 -0.716605
vn 0.573253 0.397314 -0.716605
vn 0.687223 0.092363 -0.720550
vn 0.573253 0.397314 -0.716605
vn 0.687223 0.092363 -0.720550
vn 0.687223 0.092363 -0.720550
vn 0.244413 0.433310 -0.867470
vn 0.244413 0.433310 -0.867470
vn 0.209121 0.175548 -0.962004
vn 0.244413 0.433310 -0.867470
vn 0.209121 0.175548 -0.962004
vn 0.209121 0.175548 -0.962004
vn 0.746047 0.502078 0.437414
vn 0.746047 0.502078 0.437414
vn 0.841831 0.277400 0.463002
vn 0.746047 0.502078 0.437414
vn 0.841831 0.277400 0.463002
vn 0.841831 0.277400 0.463002
vn -0.573253 0.397314 0.716605
vn -0.573253 0.397314 0.716605
vn -0.687223 0.092363 0.720550
vn -0.573253 0.397314 0.716605
vn -0.687223 0.092363 0.720550
vn -0.687223 0.092363 0.720550
vn -0.573263 0.397305 -0.716602
vn -0.573263 0.397305 -0.716602
vn -0.687230 0.092365 -0.720544
vn -0.573263 0.397305 -0.716602
vn -0.687230 0.092365 -0.720544
vn -0.687230 0.092365 -0.720544
vn 0.746031 0.502088 -0.437430
vn 0.746031 0.502088 -0.437430
vn 0.841813 0.277404 -0.463030
vn 0.746031 0.502088 -0.437430
vn 0.841813 0.277404 -0.463030
vn 0.841813 0.277404 -0.463030
vn 0.244412 0.433311 0.867470
vn 0.244412 0.433311 0.867470
vn 0.209117 0.175553 0.962004
vn 0.244412 0.433311 0.867470
vn 0.209117 0.175553 0.962004
vn 0.209117 0.175553 0.962004
vn 0.573263 0.397305 0.716602
vn 0.573263 0.397305 0.716602
vn 0.687230 0.092365 0.720544
vn 0.573263 0.397305 0.716602
vn 0.687230 0.092365 0.720544
vn 0.687230 0.092365 0.720544
vn -0.746031 0.502088 0.437430
vn -0.746031 0.502088 0.437430
vn -0.841813 0.277404 0.463030
vn -0.746031 0.502088 0.437430
vn -0.841813 0.277404 0.463030
vn -0.841813 0.277404 0.463030
vn -0.244412 0.433311 -0.867470
vn -0.244412 0.433311 -0.867470
vn -0.209117 0.175553 -0.962004
vn -0.244412 0.433311 -0.867470
vn -0.209117 0.175553 -0.962004
vn -0.209117 0.175553 -0.962004
vn 0.687230 0.092365 0.720544
vn 0.687230 0.092365 0.720544
vn 0.665981 0.168367 0.726720
vn 0.687230 0.092365 0.720544
vn 0.665981 0.168367 0.726720
vn 0.665981 0.168367 0.726720
vn -0.805849 -0.465492 0.365956
vn -0.805849 -0.465492 0.365956
vn -0.805849 -0.465492 0.365956
vn -0.805849 -0.465492 0.365956
vn -0.805849 -0.465492 0.365956
vn -0.805849 -0.465492 0.365956
vn -0.209117 0.175553 -0.962004
vn -0.209117 0.175553 -0.962004
vn -0.221902 0.257725 -0.940392
vn -0.209117 0.175553 -0.962004
vn -0.221902 0.257725 -0.940392
vn -0.221902 0.257725 -0.940392
vn -0.687230 0.092365 -0.720544
vn -0.687230 0.092365 -0.720544
vn -0.665981 0.168367 -0.726720
vn -0.687230 0.092365 -0.720544
vn -0.665981 0.168367 -0.726720
vn -0.665981 0.168367 -0.726720
vn 0.805849 -0.465492 -0.365956
vn 0.805849 -0.465492 -0.365956
vn 0.805849 -0.465492 -0.365956
vn 0.805849 -0.465492 -0.365956
vn 0.805849 -0.465492 -0.365956
vn 0.805849 -0.465492 -0.365956
vn 0.209117 0.175553 0.962004
vn 0.209117 0.175553 0.962004
vn 0.221902 0.257725 0.940392
vn 0.209117 0.175553 0.962004
vn 0.221902 0.257725 0.940392
vn 0.221902 0.257725 0.940392
vn 0.209121 0.175548 -0.962004
vn 0.209121 0.175548 -0.962004
vn 0.221910 0.257725 -0.940390
vn 0.209121 0.175548 -0.962004
vn 0.221910 0.257725 -0.940390
vn 0.221910 0.257725 -0.940390
vn 0.805864 -0.465490 0.365926
vn 0.805864 -0.465490 0.365926
vn 0.805864 -0.465490 0.365926
vn 0.805864 -0.465490 0.365926
vn 0.805864 -0.465490 0.365926
vn 0.805864 -0.465490 0.365926
vn -0.687223 0.092363 0.720550
vn -0.687223 0.092363 0.720550
vn -0.665977 0.168364 0.726724
vn -0.687223 0.092363 0.720550
vn -0.665977 0.168364 0.726724
vn -0.665977 0.168364 0.726724
vn -0.209121 0.175548 0.962004
vn -0.209121 0.175548 0.962004
vn -0.221910 0.257725 0.940390
vn -0.209121 0.175548 0.962004
vn -0.221910 0.257725 0.940390
vn -0.221910 0.257725 0.940390
vn -0.805864 -0.465490 -0.365926
vn -0.805864 -0.465490 -0.365926
vn -0.805864 -0.465490 -0.365926
vn -0.805864 -0.465490 -0.365926
vn -0.805864 -0.465490 -0.365926
vn -0.805864 -0.465490 -0.365926
vn 0.687223 0.092363 -0.720550
vn 0.687223 0.092363 -0.720550
vn 0.665977 0.168364 -0.726724
vn 0.687223 0.092363 -0.720550
vn 0.665977 0.168364 -0.726724
vn 0.665977 0.168364 -0.726724
vn -0.221910 0.257725 0.940390
vn -0.221910 0.257725 0.940390
vn -0.234573 0.349737 0.907006
vn -0.221910 0.257725 0.940390
vn -0.234573 0.349737 0.907006
vn -0.234573 0.349737 0.907006
vn -0.769078 0.459053 -0.444734
vn -0.769078 0.459053 -0.444734
vn -0.769078 0.459053 -0.444734
vn -0.769078 0.459053 -0.444734
vn -0.769078 0.459053 -0.444734
vn -0.769078 0.459053 -0.444734
vn 0.665977 0.168364 -0.726724
vn 0.665977 0.168364 -0.726724
vn 0.605736 0.329024 -0.724449
vn 0.665977 0.168364 -0.726724
vn 0.605736 0.329024 -0.724449
vn 0.605736 0.329024 -0.724449
vn 0.221910 0.257725 -0.940390
vn 0.221910 0.257725 -0.940390
vn 0.234573 0.349737 -0.907006
vn 0.221910 0.257725 -0.940390
vn 0.234573 0.349737 -0.907006
vn 0.234573 0.349737 -0.907006
vn 0.769078 0.459053 0.444734
vn 0.769078 0.459053 0.444734
vn 0.769078 0.459053 0.444734
vn 0.769078 0.459053 0.444734
vn 0.769078 0.459053 0.444734
vn 0.769078 0.459053 0.444734
vn -0.665977 0.168364 0.726724
vn -0.665977 0.168364 0.726724
vn -0.605736 0.329024 0.724449
vn -0.665977 0.168364 0.726724
vn -0.605736 0.329024 0.724449
vn -0.605736 0.329024 0.724449
vn -0.665981 0.168367 -0.726720
vn -0.665981 0.168367 -0.726720
vn -0.605737 0.329031 -0.724446
vn -0.665981 0.168367 -0.726720
vn -0.605737 0.329031 -0.724446
vn -0.605737 0.329031 -0.724446
vn 0.769068 0.459046 -0.444759
vn 0.769068 0.459046 -0.444759
vn 0.769068 0.459046 -0.444759
vn 0.769068 0.459046 -0.444759
vn 0.769068 0.459046 -0.444759
vn 0.769068 0.459046 -0.444759
vn 0.221902 0.257725 0.940392
vn 0.221902 0.257725 0.940392
vn 0.234565 0.349730 0.907010
vn 0.221902 0.257725 0.940392
vn 0.234565 0.349730 0.907010
vn 0.234565 0.349730 0.907010
vn 0.665981 0.168367 0.726720
vn 0.665981 0.168367 0.726720
vn 0.605737 0.329031 0.724446
vn 0.665981 0.168367 0.726720
vn 0.605737 0.329031 0.724446
vn 0.605737 0.329031 0.724446
vn -0.769068 0.459046 0.444759
vn -0.769068 0.459046 0.444759
vn -0.769068 0.459046 0.444759
vn -0.769068 0.459046 0.444759
vn -0.769068 0.459046 0.444759
vn -0.769068 0.459046 0.444759
vn -0.221902 0.257725 -0.940392
vn -0.221902 0.257725 -0.940392
vn -0.234565 0.349730 -0.907010
vn -0.221902 0.257725 -0.940392
vn -0.234565 0.349730 -0.907010
vn -0.234565 0.349730 -0.907010
vn -0.280216 0.923135 -0.263250
vn -0.173821 0.966633 -0.188168
vn -0.111327 0.993784 0.000000
vn -0.280216 0.923135 -0.263250
vn -0.111327 0.993784 0.000000
vn -0.164471 0.986382 0.000000
vn -0.164471 0.986382 0.000000
vn -0.148885 0.988855 0.000000
vn -0.144482 0.959615 -0.241379
vn -0.164471 0.986382 0.000000
vn -0.144482 0.959615 -0.241379
vn -0.280216 0.923135 -0.263250
vn -0.164471 0.986382 0.000000
vn -0.111327 0.993784 0.000000
vn -0.173821 0.966633 0.188168
vn -0.164471 0.986382 0.000000
vn -0.173821 0.966633 0.188168
vn -0.280211 0.923137 0.263250
vn 0.164471 0.986382 0.000000
vn 0.111327 0.993784 0.000000
vn 0.173821 0.966633 -0.188168
vn 0.164471 0.986382 0.000000
vn 0.173821 0.966633 -0.188168
vn 0.280211 0.923137 -0.263250
vn 0.164471 0.986382 0.000000
vn 0.148885 0.988855 0.000000
vn 0.144482 0.959615 0.241379
vn 0.164471 0.986382 0.000000
vn 0.144482 0.959615 0.241379
vn 0.280216 0.923135 0.263250
vn 0.000000 0.939559 0.342386
vn 0.093958 0.935403 0.340872
vn 0.093958 0.935403 0.340872
vn 0.000000 0.939559 0.342386
vn 0.093958 0.935403 0.340872
vn 0.000000 0.939559 0.342386
vn 0.000000 0.939559 -0.342386
vn -0.093958 0.935403 -0.340872
vn -0.093958 0.935403 -0.340872
vn 0.000000 0.939559 -0.342386
vn -0.093958 0.935403 -0.340872
vn 0.000000 0.939559 -0.342386
vn 0.000000 0.829944 -0.557846
vn -0.037668 0.868295 -0.494616
vn -0.025501 0.794485 -0.606748
vn -0.025501 0.794485 -0.606748
vn 0.025501 0.794485 -0.606748
vn 0.000000 0.829944 -0.557846
vn 0.000000 0.829944 0.557846
vn 0.037668 0.868295 0.494616
vn 0.025501 0.794485 0.606748
vn 0.025501 0.794485 0.606748
vn 0.000000 0.605125 0.796131
vn -0.025501 0.794485 0.606748
vn 0.025501 0.794485 0.606748
vn -0.025501 0.794485 0.606748
vn 0.000000 0.829944 0.557846
vn 0.162738 0.949282 -0.269037
vn 0.000000 0.956972 -0.290181
vn 0.000000 1.000000 0.000000
vn 0.000000 1.000000 0.000000
vn 0.187772 0.982213 0.000000
vn 0.162738 0.949282 -0.269037
vn 0.162738 0.949282 0.269037
vn 0.187772 0.982213 0.000000
vn 0.000000 1.000000 0.000000
vn 0.000000 1.000000 0.000000
vn -0.000000 0.956972 0.290181
vn 0.162738 0.949282 0.269037
vn -0.162738 0.949282 0.269037
vn -0.000000 0.956972 0.290181
vn 0.000000 1.000000 0.000000
vn 0.000000 1.000000 0.000000
vn -0.187772 0.982213 0.000000
vn -0.162738 0.949282 0.269037
vn -0.162738 0.949282 -0.269037
vn -0.187772 0.982213 0.000000
vn 0.000000 1.000000 0.000000
vn 0.000000 1.000000 0.000000
vn 0.000000 0.956972 -0.290181
vn -0.162738 0.949282 -0.269037
vn -0.292559 0.787124 -0.542996
vn -0.278260 0.858519 -0.430716
vn 0.000000 0.842457 -0.538764
vn 0.676072 0.736836 0.000000
vn 0.662166 0.721680 -0.201779
vn 0.616458 0.763390 -0.192913
vn 0.292559 0.787124 0.542996
vn 0.278260 0.858519 0.430716
vn -0.000000 0.842457 0.538764
vn -0.000000 0.842457 0.538764
vn -0.278260 0.858519 0.430716
vn -0.292559 0.787125 0.542995
vn -0.676072 0.736836 -0.000000
vn -0.662166 0.721680 0.201779
vn -0.616458 0.763390 0.192913
vn -0.603374 0.797459 -0.000000
vn -0.517802 0.837843 -0.172914
vn -0.616458 0.763390 -0.192913
vn 0.000000 0.842457 -0.538764
vn 0.278260 0.858519 -0.430716
vn 0.292559 0.787125 -0.542995
vn 0.603374 0.797459 0.000000
vn 0.517802 0.837843 0.172914
vn 0.616458 0.763390 0.192913
vn -0.754328 -0.648654 -0.101180
vn -0.754328 -0.648654 -0.101180
vn -0.754328 -0.648654 -0.101180
vn 0.163180 -0.609966 0.775444
vn 0.163180 -0.609966 0.775444
vn 0.163180 -0.609966 0.775444
vn 0.754328 -0.648654 -0.101180
vn 0.754328 -0.648654 -0.101180
vn 0.754328 -0.648654 -0.101180
vn -0.163180 -0.609966 0.775444
vn -0.163180 -0.609966 0.775444
vn -0.163180 -0.609966 0.775444
vn 0.754328 -0.648654 0.101180
vn 0.754328 -0.648654 0.101180
vn 0.754328 -0.648654 0.101180
vn -0.163180 -0.609966 -0.775444
vn -0.163180 -0.609966 -0.775444
vn -0.163180 -0.609966 -0.775444
vn 0.163180 -0.609966 -0.775444
vn 0.163180 -0.609966 -0.775444
vn 0.163180 -0.609966 -0.775444
vn -0.754328 -0.648654 0.101180
vn -0.754328 -0.648654 0.101180
vn -0.754328 -0.648654 0.101180
vn -0.310740 0.789601 -0.529122
vn -0.310740 0.789601 -0.529122
vn -0.310740 0.789601 -0.529122
vn 0.474606 0.846726 0.240425
vn 0.474606 0.846726 0.240425
vn 0.474606 0.846726 0.240425
vn -0.474606 0.846726 0.240425
vn -0.474606 0.846726 0.240425
vn -0.474606 0.846726 0.240425
vn 0.310740 0.789601 -0.529122
vn 0.310740 0.789601 -0.529122
vn 0.310740 0.789601 -0.529122
vn -0.474606 0.846726 -0.240425
vn -0.474606 0.846726 -0.240425
vn -0.474606 0.846726 -0.240425
vn 0.310740 0.789601 0.529122
vn 0.310740 0.789601 0.529122
vn 0.310740 0.789601 0.529122
vn -0.310740 0.789601 0.529122
vn -0.310740 0.789601 0.529122
vn -0.310740 0.789601 0.529122
vn 0.474606 0.846726 -0.240425
vn 0.474606 0.846726 -0.240425
vn 0.474606 0.846726 -0.240425
vn 0.000000 0.781596 -0.623784
vn -0.297746 0.746148 -0.595492
vn -0.292559 0.787124 -0.542996
vn -0.292559 0.787124 -0.542996
vn 0.000000 0.842457 -0.538764
vn 0.000000 0.781596 -0.623784
vn 0.292559 0.787125 -0.542995
vn 0.297746 0.746148 -0.595492
vn 0.000000 0.781596 -0.623784
vn 0.000000 0.781596 -0.623784
vn 0.000000 0.842457 -0.538764
vn 0.292559 0.787125 -0.542995
vn 0.616458 0.763390 -0.192913
vn 0.517802 0.837843 -0.172914
vn 0.603374 0.797459 0.000000
vn 0.603374 0.797459 0.000000
vn 0.676072 0.736836 0.000000
vn 0.616458 0.763390 -0.192913
vn 0.616458 0.763390 0.192913
vn 0.662166 0.721680 0.201779
vn 0.676072 0.736836 0.000000
vn 0.676072 0.736836 0.000000
vn 0.603374 0.797459 0.000000
vn 0.616458 0.763390 0.192913
vn -0.000000 0.781596 0.623784
vn 0.297746 0.746148 0.595492
vn 0.292559 0.787124 0.542996
vn 0.292559 0.787124 0.542996
vn -0.000000 0.842457 0.538764
vn -0.000000 0.781596 0.623784
vn -0.292559 0.787125 0.542995
vn -0.297746 0.746148 0.595492
vn -0.000000 0.781596 0.623784
vn -0.000000 0.781596 0.623784
vn -0.000000 0.842457 0.538764
vn -0.292559 0.787125 0.542995
vn -0.616458 0.763390 0.192913
vn -0.517802 0.837843 0.172914
vn -0.603374 0.797459 -0.000000
vn -0.603374 0.797459 -0.000000
vn -0.676072 0.736836 -0.000000
vn -0.616458 0.763390 0.192913
vn -0.616458 0.763390 -0.192913
vn -0.662166 0.721680 -0.201779
vn -0.676072 0.736836 -0.000000
vn -0.676072 0.736836 -0.000000
vn -0.603374 0.797459 -0.000000
vn -0.616458 0.763390 -0.192913
f 1/1/1 2/2/2 7/3/3
f 1/4/4 7/5/5 6/6/6
f 2/7/7 3/8/8 8/9/9
f 2/10/10 8/11/11 31/12/12
f 2/13/13 31/14/14 30/15/15
f 2/16/16 30/17/17 7/18/18
f 3/19/19 4/20/20 9/21/21
f 3/22/22 9/23/23 43/24/24
f 3/25/25 43/26/26 8/27/27
f 4/28/28 5/29/29 10/30/30
f 4/31/31 10/32/32 9/33/33
f 6/34/34 7/35/35 32/36/36
f 6/37/37 32/38/38 33/39/39
f 6/40/40 33/41/41 12/42/42
f 6/43/43 12/44/44 11/45/45
f 31/46/46 8/47/47 42/48/48
f 43/49/49 9/50/50 41/51/51
f 9/52/52 10/53/53 15/54/54
f 9/55/55 15/56/56 14/57/57
f 9/58/58 14/59/59 41/60/60
f 11/61/61 12/62/62 35/63/63
f 11/64/64 35/65/65 34/66/66
f 11/67/67 34/68/68 17/69/69
f 11/70/70 17/71/71 16/72/72
f 45/73/73 14/74/74 29/75/75
f 14/76/76 15/77/77 20/78/78
f 14/79/79 20/80/80 19/81/81
f 14/82/82 19/83/83 28/84/84
f 14/85/85 28/86/86 29/87/87
f 16/88/88 17/89/89 22/90/90
f 16/91/91 22/92/92 21/93/93
f 17/94/94 38/95/95 18/96/96
f 17/97/97 18/98/98 23/99/99
f 17/100/100 23/101/101 22/102/102
f 18/103/103 27/104/104 26/105/105
f 18/106/106 26/107/107 19/108/108
f 18/109/109 19/110/110 24/111/111
f 18/112/112 24/113/113 23/114/114
f 19/115/115 20/116/116 25/117/117
f 19/118/118 25/119/119 24/120/120
f 14/121/121 55/122/122 64/123/123
f 37/124/124 12/125/125 33/126/126
f 42/127/127 8/128/128 14/129/129
f 42/130/130 14/131/131 45/132/132
f 27/133/133 18/134/134 40/135/135
f 28/136/136 48/137/137 62/138/138
f 63/139/139 49/140/140 50/141/141
f 63/142/142 50/143/143 62/144/144
f 31/145/145 49/146/146 63/147/147
f 38/148/148 17/149/149 34/150/150
f 68/151/151 28/152/152 19/153/153
f 68/154/154 19/155/155 120/156/156
f 27/157/157 57/158/158 60/159/159
f 60/160/160 57/161/161 56/162/162
f 60/163/163 56/164/164 61/165/165
f 60/166/166 61/167/167 125/168/168
f 67/169/169 46/170/170 117/171/171
f 67/172/172 117/173/173 119/174/174
f 32/175/175 58/176/176 61/177/177
f 35/178/178 12/179/179 37/180/180
f 35/181/181 37/182/182 40/183/183
f 35/184/184 40/185/185 18/186/186
f 38/187/187 54/188/188 59/189/189
f 121/190/190 46/191/191 47/192/192
f 121/193/193 47/194/194 123/195/195
f 42/196/196 45/197/197 50/198/198
f 42/199/199 50/200/200 49/201/201
f 14/202/202 8/203/203 55/204/204
f 43/205/205 41/206/206 52/207/207
f 37/208/208 33/209/209 56/210/210
f 105/211/211 106/212/212 107/213/213
f 67/214/214 30/215/215 47/216/216
f 31/217/217 42/218/218 49/219/219
f 108/220/220 109/221/221 110/222/222
f 45/223/223 29/224/224 50/225/225
f 66/226/226 26/227/227 53/228/228
f 27/229/229 40/230/230 57/231/231
f 38/232/232 34/233/233 54/234/234
f 35/235/235 18/236/236 51/237/237
f 40/238/238 37/239/239 56/240/240
f 40/241/241 56/242/242 57/243/243
f 122/244/244 39/245/245 53/246/246
f 122/247/247 53/248/248 124/249/249
f 35/250/250 51/251/251 59/252/252
f 43/253/253 52/254/254 64/255/255
f 64/256/256 52/257/257 41/258/258
f 41/259/259 14/260/260 64/261/261
f 64/262/262 55/263/263 8/264/264
f 8/265/265 43/266/266 64/267/267
f 63/268/268 47/269/269 30/270/270
f 62/271/271 48/272/272 123/273/273
f 62/274/274 50/275/275 29/276/276
f 62/277/277 29/278/278 28/279/279
f 30/280/280 31/281/281 63/282/282
f 61/283/283 56/284/284 33/285/285
f 61/286/286 58/287/287 124/288/288
f 60/289/289 53/290/290 26/291/291
f 60/292/292 26/293/293 27/294/294
f 33/295/295 32/296/296 61/297/297
f 59/298/298 54/299/299 34/300/300
f 59/301/301 51/302/302 18/303/303
f 18/304/304 38/305/305 59/306/306
f 34/307/307 35/308/308 59/309/309
f 66/310/310 39/311/311 118/312/312
f 66/313/313 118/314/314 120/315/315
f 111/316/316 112/317/317 113/318/318
f 48/319/319 28/320/320 68/321/321
f 114/322/322 115/323/323 116/324/324
f 58/325/325 32/326/326 65/327/327
f 67/328/328 47/329/329 69/330/330
f 67/331/331 69/332/332 70/333/333
f 46/334/334 67/335/335 70/336/336
f 46/337/337 70/338/338 71/339/339
f 47/340/340 46/341/341 71/342/342
f 47/343/343 71/344/344 69/345/345
f 66/346/346 53/347/347 72/348/348
f 66/349/349 72/350/350 73/351/351
f 39/352/352 66/353/353 73/354/354
f 39/355/355 73/356/356 74/357/357
f 53/358/358 39/359/359 74/360/360
f 53/361/361 74/362/362 72/363/363
f 48/364/364 68/365/365 76/366/366
f 48/367/367 76/368/368 75/369/369
f 44/370/370 48/371/371 75/372/372
f 44/373/373 75/374/374 77/375/375
f 68/376/376 44/377/377 77/378/378
f 68/379/379 77/380/380 76/381/381
f 58/382/382 65/383/383 79/384/384
f 58/385/385 79/386/386 78/387/387
f 36/388/388 58/389/389 78/390/390
f 36/391/391 78/392/392 80/393/393
f 65/394/394 36/395/395 80/396/396
f 65/397/397 80/398/398 79/399/399
f 79/400/400 80/401/401 82/402/402
f 79/403/403 82/404/404 81/405/405
f 78/406/406 79/407/407 81/408/408
f 78/409/409 81/410/410 83/411/411
f 80/412/412 78/413/413 83/414/414
f 80/415/415 83/416/416 82/417/417
f 76/418/418 77/419/419 85/420/420
f 76/421/421 85/422/422 84/423/423
f 75/424/424 76/425/425 84/426/426
f 75/427/427 84/428/428 86/429/429
f 77/430/430 75/431/431 86/432/432
f 77/433/433 86/434/434 85/435/435
f 72/436/436 74/437/437 88/438/438
f 72/439/439 88/440/440 87/441/441
f 73/442/442 72/443/443 87/444/444
f 73/445/445 87/446/446 89/447/447
f 74/448/448 73/449/449 89/450/450
f 74/451/451 89/452/452 88/453/453
f 69/454/454 71/455/455 91/456/456
f 69/457/457 91/458/458 90/459/459
f 70/460/460 69/461/461 90/462/462
f 70/463/463 90/464/464 92/465/465
f 71/466/466 70/467/467 92/468/468
f 71/469/469 92/470/470 91/471/471
f 90/472/472 91/473/473 94/474/474
f 90/475/475 94/476/476 93/477/477
f 92/478/478 90/479/479 93/480/480
f 92/481/481 93/482/482 95/483/483
f 91/484/484 92/485/485 95/486/486
f 91/487/487 95/488/488 94/489/489
f 87/490/490 88/491/491 97/492/492
f 87/493/493 97/494/494 96/495/495
f 89/496/496 87/497/497 96/498/498
f 89/499/499 96/500/500 98/501/501
f 88/502/502 89/503/503 98/504/504
f 88/505/505 98/506/506 97/507/507
f 84/508/508 85/509/509 100/510/510
f 84/511/511 100/512/512 99/513/513
f 86/514/514 84/515/515 99/516/516
f 86/517/517 99/518/518 101/519/519
f 85/520/520 86/521/521 101/522/522
f 85/523/523 101/524/524 100/525/525
f 81/526/526 82/527/527 103/528/528
f 81/529/529 103/530/530 102/531/531
f 83/532/532 81/533/533 102/534/534
f 83/535/535 102/536/536 104/537/537
f 82/538/538 83/539/539 104/540/540
f 82/541/541 104/542/542 103/543/543
f 102/544/544 103/545/545 106/546/546
f 102/547/547 106/548/548 105/549/549
f 104/550/550 102/551/551 105/552/552
f 104/553/553 105/554/554 107/555/555
f 103/556/556 104/557/557 107/558/558
f 103/559/559 107/560/560 106/561/561
f 99/562/562 100/563/563 109/564/564
f 99/565/565 109/566/566 108/567/567
f 101/568/568 99/569/569 108/570/570
f 101/571/571 108/572/572 110/573/573
f 100/574/574 101/575/575 110/576/576
f 100/577/577 110/578/578 109/579/579
f 96/580/580 97/581/581 112/582/582
f 96/583/583 112/584/584 111/585/585
f 98/586/586 96/587/587 111/588/588
f 98/589/589 111/590/590 113/591/591
f 97/592/592 98/593/593 113/594/594
f 97/595/595 113/596/596 112/597/597
f 93/598/598 94/599/599 115/600/600
f 93/601/601 115/602/602 114/603/603
f 95/604/604 93/605/605 114/606/606
f 95/607/607 114/608/608 116/609/609
f 94/610/610 95/611/611 116/612/612
f 94/613/613 116/614/614 115/615/615
f 65/616/616 32/617/617 7/618/618
f 65/619/619 7/620/620 119/621/621
f 119/622/622 117/623/623 36/624/624
f 119/625/625 36/626/626 65/627/627
f 119/628/628 7/629/629 30/630/630
f 119/631/631 30/632/632 67/633/633
f 120/634/634 19/635/635 26/636/636
f 120/637/637 26/638/638 66/639/639
f 120/640/640 118/641/641 44/642/642
f 120/643/643 44/644/644 68/645/645
f 123/646/646 48/647/647 44/648/648
f 123/649/649 44/650/650 121/651/651
f 124/652/652 58/653/653 36/654/654
f 124/655/655 36/656/656 122/657/657
f 123/658/658 47/659/659 63/660/660
f 63/661/661 62/662/662 123/663/663
f 124/664/664 53/665/665 60/666/666
f 60/667/667 125/668/668 61/669/669
f 60/670/670 61/671/671 124/672/672
f 141/673/673 134/674/674 13/675/675
f 13/676/676 145/677/677 141/678/678
f 142/679/679 145/680/680 13/681/681
f 13/682/682 140/683/683 142/684/684
f 139/685/685 140/686/686 13/687/687
f 13/688/688 143/689/689 139/690/690
f 138/691/691 143/692/692 13/693/693
f 13/694/694 134/695/695 138/696/696
f 131/697/697 142/698/698 140/699/699
f 117/700/700 46/701/701 136/702/702
f 137/703/703 138/704/704 134/705/705
f 134/706/706 141/707/707 135/708/708
f 118/709/709 39/710/710 144/711/711
f 145/712/712 142/713/713 133/714/714
f 140/715/715 139/716/716 130/717/717
f 143/718/718 138/719/719 132/720/720
f 141/721/721 126/722/722 135/723/723
f 144/724/724 126/725/725 141/726/726
f 137/727/727 129/728/728 138/729/729
f 138/730/730 129/731/731 132/732/732
f 139/733/733 128/734/734 130/735/735
f 136/736/736 128/737/737 139/738/738
f 142/739/739 127/740/740 133/741/741
f 131/742/742 127/743/743 142/744/744
f 135/745/745 126/746/746 39/747/747
f 39/748/748 126/749/749 144/750/750
f 132/751/751 129/752/752 36/753/753
f 36/754/754 129/755/755 137/756/756
f 46/757/757 128/758/758 136/759/759
f 130/760/760 128/761/761 46/762/762
f 44/763/763 127/764/764 131/765/765
f 133/766/766 127/767/767 44/768/768
f 121/769/769 44/770/770 131/771/771
f 131/772/772 140/773/773 121/774/774
f 130/775/775 46/776/776 121/777/777
f 121/778/778 140/779/779 130/780/780
f 136/781/781 139/782/782 143/783/783
f 143/784/784 117/785/785 136/786/786
f 132/787/787 36/788/788 117/789/789
f 117/790/790 143/791/791 132/792/792
f 122/793/793 36/794/794 137/795/795
f 137/796/796 134/797/797 122/798/798
f 135/799/799 39/800/800 122/801/801
f 122/802/802 134/803/803 135/804/804
f 144/805/805 141/806/806 145/807/807
f 145/808/808 118/809/809 144/810/810
f 133/811/811 44/812/812 118/813/813
f 118/814/814 145/815/815 133/816/816
