v 26.000000 0.000000 80.000000
v 38.000000 0.000000 80.000000
v 30.000000 8.000000 80.000000
v 7.999999 0.000000 88.000000
v 29.500000 0.000000 80.000000
v 34.000000 16.000000 78.000000
v 30.000000 16.000000 78.000000
v 34.500000 0.000000 80.000000
v -2.500000 0.000000 80.000000
v -8.000002 0.000000 102.000000
v -2.000000 16.000000 78.000000
v -6.000002 0.000000 104.000000
v 2.500000 0.000000 80.000000
v -3.000002 8.000000 100.000000
v -4.000001 8.000000 99.000000
v -6.000000 16.000000 82.000000
v -4.000001 8.000000 92.000000
v 3.999999 8.000000 95.000000
v -2.000001 8.000000 92.000000
v -2.000002 8.000000 100.000000
v 27.999998 8.000000 97.000000
v 3.999999 8.000000 97.000000
v 34.000000 8.000000 100.000000
v 23.999998 0.000000 88.000000
v 32.000000 8.000000 80.000000
v 2.000000 16.000000 78.000000
v 6.000000 16.000000 82.000000
v 40.000000 0.000000 102.000000
v 2.000000 16.000000 86.000000
v 38.000000 0.000000 104.000000
v 35.000000 8.000000 100.000000
v 36.000000 8.000000 99.000000
v 0.000000 8.000000 80.000000
v 36.000000 8.000000 92.000000
v 27.999998 8.000000 95.000000
v 34.000000 8.000000 92.000000
v 28.000000 8.000000 92.000000
v 4.000000 8.000000 92.000000
v -6.000000 0.000000 80.000000
v -2.000000 8.000000 80.000000
v 34.000000 8.000000 80.000000
v 2.000000 8.000000 80.000000
v 6.000000 0.000000 80.000000
v 4.000000 8.000000 82.000000
v -8.000001 0.000000 82.000000
v 23.999998 0.000000 82.000000
v 36.000000 8.000000 82.000000
v 28.000000 8.000000 82.000000
v 40.000000 0.000000 82.000000
v -4.000000 8.000000 82.000000
v 7.999999 0.000000 82.000000
v 30.000000 18.000000 82.000000
v 34.000000 18.000000 82.000000
v -2.000000 18.000000 82.000000
v 2.000000 18.000000 82.000000
v 30.000000 8.000000 84.000000
v 2.000000 8.000000 84.000000
v -2.000000 8.000000 84.000000
v 34.000000 8.000000 84.000000
v 34.000000 16.000000 86.000000
v 38.000000 16.000000 82.000000
v 30.000000 16.000000 86.000000
v 26.000000 16.000000 82.000000
v -2.000000 16.000000 86.000000
vt 0.000000 0.000000
vt 0.000000 0.000000
vt 0.000000 0.000000
vt 0.000000 0.000000
vt 0.000000 0.000000
vt 0.000000 0.000000
vt 0.000000 0.000000
vt 0.000000 0.000000
vt 0.000000 0.000000
vt 0.000000 0.000000
vt 0.000000 0.000000
vt 0.000000 0.000000
vt 0.000000 0.000000
vt 0.000000 0.000000
vt 0.000000 0.000000
vt 0.000000 0.000000
vt 0.000000 0.000000
vt 0.000000 0.000000
vt 0.000000 0.000000
vt 0.000000 0.000000
vt 0.000000 0.000000
vt 0.000000 0.000000
vt 0.000000 0.000000
vt 0.000000 0.000000
vt 0.000000 0.000000
vt 0.000000 0.000000
vt 0.000000 0.000000
vt 0.000000 0.000000
vt 0.000000 0.000000
vt 0.000000 0.000000
vt 0.000000 0.000000
vt 0.000000 0.000000
vt 0.000000 0.000000
vt 0.000000 0.000000
vt 0.000000 0.000000
vt 0.000000 0.000000
vt 0.000000 0.000000
vt 0.000000 0.000000
vt 0.000000 0.000000
vt 0.000000 0.000000
vt 0.000000 0.000000
vt 0.000000 0.000000
vt 0.000000 0.000000
vt 0.000000 0.000000
vt 0.000000 0.000000
vt 0.000000 0.000000
vt 0.000000 0.000000
vt 0.000000 0.000000
vt 0.000000 0.000000
vt 0.000000 0.000000
vt 0.000000 0.000000
vt 0.000000 0.000000
vt 0.000000 0.000000
vt 0.000000 0.000000
vt 0.000000 0.000000
vt 0.000000 0.000000
vt 0.000000 0.000000
vt 0.000000 0.000000
vt 0.000000 0.000000
vt 0.000000 0.000000
vt 0.000000 0.000000
vt 0.000000 0.000000
vt 0.000000 0.000000
vt 0.000000 0.000000
vt 0.000000 0.000000
vt 0.000000 0.000000
vt 0.000000 0.000000
vt 0.000000 0.000000
vt 0.000000 0.000000
vt 0.000000 0.000000
vt 0.000000 0.000000
vt 0.000000 0.000000
vt 0.000000 0.000000
vt 0.000000 0.000000
vt 0.000000 0.000000
vt 0.000000 0.000000
vt 0.000000 0.000000
vt 0.000000 0.000000
vt 0.000000 0.000000
vt 0.000000 0.000000
vt 0.000000 0.000000
vt 0.000000 0.000000
vt 0.000000 0.000000
vt 0.000000 0.000000
vt 0.000000 0.000000
vt 0.000000 0.000000
vt 0.000000 0.000000
vt 0.000000 0.000000
vt 0.000000 0.000000
vt 0.000000 0.000000
vt 0.000000 0.000000
vt 0.000000 0.000000
vt 0.000000 0.000000
vt 0.000000 0.000000
vt 0.000000 0.000000
vt 0.000000 0.000000
vt 0.000000 0.000000
vt 0.000000 0.000000
vt 0.000000 0.000000
vt 0.000000 0.000000
vt 0.000000 0.000000
vt 0.000000 0.000000
vt 0.000000 0.000000
vt 0.000000 0.000000
vt 0.000000 0.000000
vt 0.000000 0.000000
vt 0.000000 0.000000
vt 0.000000 0.000000
vt 0.000000 0.000000
vt 0.000000 0.000000
vt 0.000000 0.000000
vt 0.000000 0.000000
vt 0.000000 0.000000
vt 0.000000 0.000000
vt 0.000000 0.000000
vt 0.000000 0.000000
vt 0.000000 0.000000
vt 0.000000 0.000000
vt 0.000000 0.000000
vt 0.000000 0.000000
vt 0.000000 0.000000
vt 0.000000 0.000000
vt 0.000000 0.000000
vt 0.000000 0.000000
vt 0.000000 0.000000
vt 0.000000 0.000000
vt 0.000000 0.000000
vt 0.000000 0.000000
vt 0.000000 0.000000
vt 0.000000 0.000000
vt 0.000000 0.000000
vt 0.000000 0.000000
vt 0.000000 0.000000
vt 0.000000 0.000000
vt 0.000000 0.000000
vt 0.000000 0.000000
vt 0.000000 0.000000
vt 0.000000 0.000000
vt 0.000000 0.000000
vt 0.000000 0.000000
vt 0.000000 0.000000
vt 0.000000 0.000000
vt 0.000000 0.000000
vt 0.000000 0.000000
vt 0.000000 0.000000
vt 0.000000 0.000000
vt 0.000000 0.000000
vt 0.000000 0.000000
vt 0.000000 0.000000
vt 0.000000 0.000000
vt 0.000000 0.000000
vt 0.000000 0.000000
vt 0.000000 0.000000
vt 0.000000 0.000000
vt 0.000000 0.000000
vt 0.000000 0.000000
vt 0.000000 0.000000
vt 0.000000 0.000000
vt 0.000000 0.000000
vt 0.000000 0.000000
vt 0.000000 0.000000
vt 0.000000 0.000000
vt 0.000000 0.000000
vt 0.000000 0.000000
vt 0.000000 0.000000
vt 0.000000 0.000000
vt 0.000000 0.000000
vt 0.000000 0.000000
vt 0.000000 0.000000
vt 0.000000 0.000000
vt 0.000000 0.000000
vt 0.000000 0.000000
vt 0.000000 0.000000
vt 0.000000 0.000000
vt 0.000000 0.000000
vt 0.000000 0.000000
vt 0.000000 0.000000
vt 0.000000 0.000000
vt 0.000000 0.000000
vt 0.000000 0.000000
vt 0.000000 0.000000
vt 0.000000 0.000000
vt 0.000000 0.000000
vt 0.000000 0.000000
vt 0.000000 0.000000
vt 0.000000 0.000000
vt 0.000000 0.000000
vt 0.000000 0.000000
vt 0.000000 0.000000
vt 0.000000 0.000000
vt 0.000000 0.000000
vt 0.000000 0.000000
vt 0.000000 0.000000
vt 0.000000 0.000000
vt 0.000000 0.000000
vt 0.000000 0.000000
vt 0.000000 0.000000
vt 0.000000 0.000000
vt 0.000000 0.000000
vt 0.000000 0.000000
vt 0.000000 0.000000
vt 0.000000 0.000000
vt 0.000000 0.000000
vt 0.000000 0.000000
vt 0.000000 0.000000
vt 0.000000 0.000000
vt 0.000000 0.000000
vt 0.000000 0.000000
vt 0.000000 0.000000
vt 0.000000 0.000000
vt 0.000000 0.000000
vt 0.000000 0.000000
vt 0.000000 0.000000
vt 0.000000 0.000000
vt 0.000000 0.000000
vt 0.000000 0.000000
vt 0.000000 0.000000
vt 0.000000 0.000000
vt 0.000000 0.000000
vt 0.000000 0.000000
vt 0.000000 0.000000
vt 0.000000 0.000000
vt 0.000000 0.000000
vt 0.000000 0.000000
vt 0.000000 0.000000
vt 0.000000 0.000000
vt 0.000000 0.000000
vt 0.000000 0.000000
vt 0.000000 0.000000
vt 0.000000 0.000000
vt 0.000000 0.000000
vt 0.000000 0.000000
vt 0.000000 0.000000
vt 0.000000 0.000000
vt 0.000000 0.000000
vt 0.000000 0.000000
vt 0.000000 0.000000
vt 0.000000 0.000000
vt 0.000000 0.000000
vt 0.000000 0.000000
vt 0.000000 0.000000
vt 0.000000 0.000000
vt 0.000000 0.000000
vt 0.000000 0.000000
vt 0.000000 0.000000
vt 0.000000 0.000000
vt 0.000000 0.000000
vt 0.000000 0.000000
vt 0.000000 0.000000
vt 0.000000 0.000000
vt 0.000000 0.000000
vt 0.000000 0.000000
vt 0.000000 0.000000
vt 0.000000 0.000000
vt 0.000000 0.000000
vt 0.000000 0.000000
vt 0.000000 0.000000
vt 0.000000 0.000000
vt 0.000000 0.000000
vt 0.000000 0.000000
vt 0.000000 0.000000
vt 0.000000 0.000000
vt 0.000000 0.000000
vt 0.000000 0.000000
vt 0.000000 0.000000
vt 0.000000 0.000000
vt 0.000000 0.000000
vt 0.000000 0.000000
vt 0.000000 0.000000
vt 0.000000 0.000000
vt 0.000000 0.000000
vt 0.000000 0.000000
vt 0.000000 0.000000
vt 0.000000 0.000000
vt 0.000000 0.000000
vt 0.000000 0.000000
vt 0.000000 0.000000
vt 0.000000 0.000000
vt 0.000000 0.000000
vt 0.000000 0.000000
vt 0.000000 0.000000
vt 0.000000 0.000000
vt 0.000000 0.000000
vt 0.000000 0.000000
vt 0.000000 0.000000
vt 0.000000 0.000000
vt 0.000000 0.000000
vt 0.000000 0.000000
vn 0.601317 0.526152 0.601317
vn 0.601317 0.526152 0.601317
vn 0.601317 0.526152 0.601317
vn 0.601317 0.526152 0.601317
vn 0.601317 0.526152 0.601317
vn 0.601317 0.526152 0.601317
vn 0.894427 0.447214 0.000000
vn 0.894427 0.447214 0.000000
vn 0.894427 0.447214 0.000000
vn 0.894427 0.447214 0.000000
vn 0.894427 0.447214 0.000000
vn 0.894427 0.447214 0.000000
vn 0.000000 -0.081387 -0.996683
vn 0.000000 -0.122183 -0.992508
vn 0.000000 0.000000 -1.000000
vn 0.000000 -0.081387 -0.996683
vn 0.000000 0.000000 -1.000000
vn 0.000000 0.000000 -1.000000
vn 0.000000 0.000000 -1.000000
vn 0.000000 0.000000 -1.000000
vn 0.000000 -0.122183 -0.992508
vn 0.000000 0.000000 -1.000000
vn 0.000000 -0.122183 -0.992508
vn 0.000000 -0.081387 -0.996683
vn 0.000000 0.000000 -1.000000
vn 0.000000 0.000000 -1.000000
vn 0.000000 -0.122183 -0.992508
vn 0.000000 0.000000 -1.000000
vn 0.000000 -0.122183 -0.992508
vn 0.000000 -0.081387 -0.996683
vn -0.208721 0.874728 -0.437364
vn -0.408248 0.816497 -0.408248
vn -0.208721 0.874728 -0.437364
vn -0.704706 0.082341 -0.704706
vn -0.704706 0.082341 -0.704706
vn -0.666667 0.333333 -0.666667
vn -0.704706 0.082341 -0.704706
vn -0.666667 0.333333 -0.666667
vn -0.666667 0.333333 -0.666667
vn 0.666667 0.333333 -0.666667
vn 0.666667 0.333333 -0.666667
vn 0.704706 0.082341 -0.704706
vn 0.666667 0.333333 -0.666667
vn 0.704706 0.082341 -0.704706
vn 0.704706 0.082341 -0.704706
vn 0.408248 0.816497 0.408248
vn 0.208721 0.874728 0.437364
vn 0.208721 0.874728 0.437364
vn 0.408248 0.816497 0.408248
vn 0.208721 0.874728 0.437364
vn 0.208721 0.874728 0.437364
vn 0.666667 0.333333 -0.666667
vn 0.666667 0.333333 -0.666667
vn 0.704706 0.082341 -0.704706
vn 0.666667 0.333333 -0.666667
vn 0.704706 0.082341 -0.704706
vn 0.704706 0.082341 -0.704706
vn 0.000000 0.447214 -0.894427
vn 0.000000 0.447214 -0.894427
vn 0.000000 0.447214 -0.894427
vn 0.000000 0.447214 -0.894427
vn 0.000000 0.447214 -0.894427
vn 0.000000 0.447214 -0.894427
vn -0.894427 0.447214 0.000000
vn -0.894427 0.447214 0.000000
vn -0.894427 0.447214 0.000000
vn -0.894427 0.447214 0.000000
vn -0.894427 0.447214 0.000000
vn -0.894427 0.447214 0.000000
vn 0.000000 -0.081387 -0.996683
vn 0.000000 -0.122183 -0.992508
vn 0.000000 0.000000 -1.000000
vn 0.000000 -0.081387 -0.996683
vn 0.000000 0.000000 -1.000000
vn 0.000000 0.000000 -1.000000
vn -0.208721 0.874728 -0.437364
vn -0.408248 0.816497 -0.408248
vn -0.208721 0.874728 -0.437364
vn -0.704706 0.082341 -0.704706
vn -0.704706 0.082341 -0.704706
vn -0.666667 0.333333 -0.666667
vn -0.704706 0.082341 -0.704706
vn -0.666667 0.333333 -0.666667
vn -0.666667 0.333333 -0.666667
vn 0.208721 0.874728 -0.437364
vn 0.408248 0.816497 -0.408248
vn 0.208721 0.874728 -0.437364
vn -0.208721 0.874728 -0.437364
vn 0.208721 0.874728 -0.437364
vn 0.208721 0.874728 -0.437364
vn -0.208721 0.874728 -0.437364
vn 0.208721 0.874728 -0.437364
vn -0.208721 0.874728 -0.437364
vn 0.208721 0.874728 -0.437364
vn 0.408248 0.816497 -0.408248
vn 0.208721 0.874728 -0.437364
vn -0.208721 0.874728 -0.437364
vn 0.208721 0.874728 -0.437364
vn 0.208721 0.874728 -0.437364
vn -0.208721 0.874728 -0.437364
vn 0.208721 0.874728 -0.437364
vn -0.208721 0.874728 -0.437364
vn 0.208721 0.874728 0.437364
vn -0.208721 0.874728 0.437364
vn -0.208721 0.874728 0.437364
vn 0.208721 0.874728 0.437364
vn -0.208721 0.874728 0.437364
vn 0.208721 0.874728 0.437364
vn 0.208721 0.874728 0.437364
vn -0.208721 0.874728 0.437364
vn -0.208721 0.874728 0.437364
vn 0.208721 0.874728 0.437364
vn -0.208721 0.874728 0.437364
vn 0.208721 0.874728 0.437364
vn 0.894427 0.447214 0.000000
vn 0.894427 0.447214 0.000000
vn 0.894427 0.447214 0.000000
vn 0.000000 0.447214 0.894427
vn 0.000000 0.447214 0.894427
vn 0.000000 0.447214 0.894427
vn 0.000000 0.447214 0.894427
vn 0.000000 0.447214 0.894427
vn 0.000000 0.447214 0.894427
vn 0.000000 0.447214 0.894427
vn 0.000000 0.447214 0.894427
vn 0.000000 0.447214 0.894427
vn 0.000000 0.447214 0.894427
vn 0.000000 0.447214 0.894427
vn 0.000000 0.447214 0.894427
vn 0.000000 1.000000 0.000000
vn 0.000000 1.000000 0.000000
vn 0.000000 1.000000 0.000000
vn -0.894427 0.447214 -0.000000
vn -0.894427 0.447214 -0.000000
vn -0.894427 0.447214 -0.000000
vn -0.894427 0.447214 -0.000000
vn -0.894427 0.447214 -0.000000
vn -0.894427 0.447214 -0.000000
vn -0.601317 0.526152 0.601317
vn -0.601317 0.526152 0.601317
vn -0.601317 0.526152 0.601317
vn -0.601317 0.526152 0.601317
vn -0.601317 0.526152 0.601317
vn -0.601317 0.526152 0.601317
vn -0.208721 0.874728 0.437364
vn -0.208721 0.874728 0.437364
vn -0.408248 0.816497 0.408248
vn 0.000000 1.000000 0.000000
vn 0.000000 1.000000 0.000000
vn 0.000000 1.000000 0.000000
vn 0.000000 1.000000 0.000000
vn 0.000000 1.000000 0.000000
vn 0.000000 1.000000 0.000000
vn 0.000000 1.000000 0.000000
vn 0.000000 1.000000 0.000000
vn 0.000000 1.000000 0.000000
vn 0.000000 1.000000 0.000000
vn 0.000000 1.000000 0.000000
vn 0.000000 1.000000 0.000000
vn 0.000000 1.000000 0.000000
vn 0.000000 1.000000 0.000000
vn 0.000000 1.000000 0.000000
vn -0.208721 0.874728 0.437364
vn -0.208721 0.874728 0.437364
vn -0.408248 0.816497 0.408248
vn 0.000000 1.000000 0.000000
vn 0.000000 1.000000 0.000000
vn 0.000000 1.000000 0.000000
vn 0.000000 1.000000 0.000000
vn 0.000000 1.000000 0.000000
vn 0.000000 1.000000 0.000000
vn 0.000000 1.000000 0.000000
vn 0.000000 1.000000 0.000000
vn 0.000000 1.000000 0.000000
vn 0.000000 1.000000 0.000000
vn 0.000000 1.000000 0.000000
vn 0.000000 1.000000 0.000000
vn 0.000000 1.000000 0.000000
vn 0.000000 1.000000 0.000000
vn 0.000000 1.000000 0.000000
vn 0.696311 -0.174078 0.696311
vn 0.696311 -0.174078 0.696311
vn 0.696311 -0.174078 0.696311
vn 0.696311 -0.174078 0.696311
vn 0.696311 -0.174078 0.696311
vn 0.696311 -0.174078 0.696311
vn -0.696311 -0.174078 0.696311
vn -0.696311 -0.174078 0.696311
vn -0.696311 -0.174078 0.696311
vn -0.696311 -0.174078 0.696311
vn -0.696311 -0.174078 0.696311
vn -0.696311 -0.174078 0.696311
vn -0.696311 -0.174078 0.696311
vn -0.696311 -0.174078 0.696311
vn -0.696311 -0.174078 0.696311
vn -0.696311 -0.174078 0.696311
vn -0.696311 -0.174078 0.696311
vn -0.696311 -0.174078 0.696311
vn 0.000000 -0.242536 0.970142
vn 0.000000 -0.242536 0.970142
vn 0.000000 -0.242536 0.970142
vn 0.000000 -0.242536 0.970142
vn 0.000000 -0.242536 0.970142
vn 0.000000 -0.242536 0.970142
vn 0.000000 -0.242536 0.970142
vn 0.000000 -0.242536 0.970142
vn 0.000000 -0.242536 0.970142
vn 0.000000 -0.242536 0.970142
vn 0.000000 -0.242536 0.970142
vn 0.000000 -0.242536 0.970142
vn 0.704706 0.082341 -0.704706
vn 0.704706 0.082341 -0.704706
vn 0.696311 -0.174078 -0.696311
vn 0.704706 0.082341 -0.704706
vn 0.696311 -0.174078 -0.696311
vn 0.696311 -0.174078 -0.696311
vn 0.894427 0.447214 0.000000
vn 0.894427 0.447214 0.000000
vn 0.894427 0.447214 0.000000
vn 0.894427 0.447214 0.000000
vn 0.894427 0.447214 0.000000
vn 0.894427 0.447214 0.000000
vn 0.696311 -0.174078 0.696311
vn 0.696311 -0.174078 0.696311
vn 0.696311 -0.174078 0.696311
vn 0.696311 -0.174078 0.696311
vn 0.696311 -0.174078 0.696311
vn 0.696311 -0.174078 0.696311
vn 0.000000 -0.122183 -0.992508
vn 0.000000 -0.081387 -0.996683
vn 0.000000 -0.122183 -0.992508
vn 0.000000 -0.122183 -0.992508
vn 0.000000 -0.122183 -0.992508
vn 0.000000 -0.242536 -0.970142
vn 0.000000 -0.122183 -0.992508
vn 0.000000 -0.242536 -0.970142
vn 0.000000 -0.242536 -0.970142
vn -0.704706 0.082341 -0.704706
vn -0.704706 0.082341 -0.704706
vn -0.696311 -0.174078 -0.696311
vn -0.704706 0.082341 -0.704706
vn -0.696311 -0.174078 -0.696311
vn -0.696311 -0.174078 -0.696311
vn 0.704706 0.082341 -0.704706
vn 0.704706 0.082341 -0.704706
vn 0.696311 -0.174078 -0.696311
vn 0.704706 0.082341 -0.704706
vn 0.696311 -0.174078 -0.696311
vn 0.696311 -0.174078 -0.696311
vn 0.000000 -0.122183 -0.992508
vn 0.000000 -0.081387 -0.996683
vn 0.000000 -0.122183 -0.992508
vn 0.000000 -0.122183 -0.992508
vn 0.000000 -0.122183 -0.992508
vn 0.000000 -0.242536 -0.970142
vn 0.000000 -0.122183 -0.992508
vn 0.000000 -0.242536 -0.970142
vn 0.000000 -0.242536 -0.970142
vn -0.704706 0.082341 -0.704706
vn -0.704706 0.082341 -0.704706
vn -0.696311 -0.174078 -0.696311
vn -0.704706 0.082341 -0.704706
vn -0.696311 -0.174078 -0.696311
vn -0.696311 -0.174078 -0.696311
vn -0.894427 0.447214 -0.000000
vn -0.894427 0.447214 -0.000000
vn -0.894427 0.447214 -0.000000
vn 0.000000 1.000000 0.000000
vn 0.000000 1.000000 0.000000
vn 0.000000 1.000000 0.000000
vn 0.000000 1.000000 0.000000
vn 0.000000 1.000000 0.000000
vn 0.000000 1.000000 0.000000
vn 0.000000 1.000000 0.000000
vn 0.000000 1.000000 0.000000
vn 0.000000 1.000000 0.000000
vn 0.000000 1.000000 0.000000
vn 0.000000 1.000000 0.000000
vn 0.000000 1.000000 0.000000
vn 0.000000 1.000000 0.000000
vn 0.000000 1.000000 0.000000
vn 0.000000 1.000000 0.000000
vn 0.000000 1.000000 0.000000
vn 0.000000 1.000000 0.000000
vn 0.000000 1.000000 0.000000
vn 0.000000 1.000000 0.000000
vn 0.000000 1.000000 0.000000
vn 0.000000 1.000000 0.000000
f 32/1/1 31/2/2 30/3/3
f 32/4/4 30/5/5 28/6/6
f 34/7/7 32/8/8 28/9/9
f 34/10/10 28/11/11 49/12/12
f 25/13/13 41/14/14 2/15/15
f 25/16/16 2/17/17 8/18/18
f 5/19/19 1/20/20 3/21/21
f 5/22/22 3/23/23 25/24/24
f 9/25/25 39/26/26 40/27/27
f 9/28/28 40/29/29 33/30/30
f 7/31/31 63/32/32 52/33/33
f 48/34/34 3/35/35 1/36/36
f 48/37/37 1/38/38 46/39/39
f 49/40/40 2/41/41 41/42/42
f 49/43/43 41/44/44 47/45/45
f 61/46/46 53/47/47 60/48/48
f 27/49/49 55/50/50 29/51/51
f 51/52/52 43/53/53 42/54/54
f 51/55/55 42/56/56 44/57/57
f 38/58/58 37/59/59 24/60/60
f 38/61/61 24/62/62 4/63/63
f 46/64/64 24/65/65 37/66/66
f 46/67/67 37/68/68 48/69/69
f 33/70/70 42/71/71 43/72/72
f 33/73/73 43/74/74 13/75/75
f 11/76/76 16/77/77 54/78/78
f 50/79/79 40/80/80 39/81/81
f 50/82/82 39/83/83 45/84/84
f 53/85/85 61/86/86 6/87/87
f 52/88/88 53/89/89 6/90/90
f 52/91/91 6/92/92 7/93/93
f 55/94/94 27/95/95 26/96/96
f 54/97/97 55/98/98 26/99/99
f 54/100/100 26/101/101 11/102/102
f 55/103/103 54/104/104 64/105/105
f 55/106/106 64/107/107 29/108/108
f 53/109/109 52/110/110 62/111/111
f 53/112/112 62/113/113 60/114/114
f 49/115/115 47/116/116 34/117/117
f 31/118/118 23/119/119 20/120/120
f 31/121/121 20/122/122 14/123/123
f 31/124/124 14/125/125 12/126/126
f 31/127/127 12/128/128 30/129/129
f 35/130/130 36/131/131 37/132/132
f 45/133/133 10/134/134 15/135/135
f 45/136/136 15/137/137 17/138/138
f 10/139/139 12/140/140 14/141/141
f 10/142/142 14/143/143 15/144/144
f 64/145/145 54/146/146 16/147/147
f 57/148/148 58/149/149 50/150/150
f 57/151/151 50/152/152 17/153/153
f 57/154/154 17/155/155 19/156/156
f 57/157/157 19/158/158 38/159/159
f 57/160/160 38/161/161 44/162/162
f 62/163/163 52/164/164 63/165/165
f 59/166/166 56/167/167 48/168/168
f 59/169/169 48/170/170 37/171/171
f 59/172/172 37/173/173 36/174/174
f 59/175/175 36/176/176 34/177/177
f 59/178/178 34/179/179 47/180/180
f 59/181/181 47/182/182 61/183/183
f 59/184/184 61/185/185 60/186/186
f 48/187/187 56/188/188 62/189/189
f 48/190/190 62/191/191 63/192/192
f 50/193/193 58/194/194 64/195/195
f 50/196/196 64/197/197 16/198/198
f 56/199/199 59/200/200 60/201/201
f 56/202/202 60/203/203 62/204/204
f 58/205/205 57/206/206 29/207/207
f 58/208/208 29/209/209 64/210/210
f 44/211/211 42/212/212 26/213/213
f 44/214/214 26/215/215 27/216/216
f 44/217/217 38/218/218 4/219/219
f 44/220/220 4/221/221 51/222/222
f 57/223/223 44/224/224 27/225/225
f 57/226/226 27/227/227 29/228/228
f 41/229/229 25/230/230 3/231/231
f 41/232/232 3/233/233 7/234/234
f 41/235/235 7/236/236 6/237/237
f 3/238/238 48/239/239 63/240/240
f 3/241/241 63/242/242 7/243/243
f 47/244/244 41/245/245 6/246/246
f 47/247/247 6/248/248 61/249/249
f 42/250/250 33/251/251 40/252/252
f 42/253/253 40/254/254 11/255/255
f 42/256/256 11/257/257 26/258/258
f 40/259/259 50/260/260 16/261/261
f 40/262/262 16/263/263 11/264/264
f 17/265/265 50/266/266 45/267/267
f 38/268/268 19/269/269 18/270/270
f 18/271/271 22/272/272 20/273/273
f 18/274/274 20/275/275 23/276/276
f 18/277/277 23/278/278 21/279/279
f 18/280/280 21/281/281 35/282/282
f 18/283/283 35/284/284 37/285/285
f 18/286/286 37/287/287 38/288/288
