v -1.999999 16.000000 -4.000078
v -6.000003 16.000000 -0.000075
v 1.999996 0.000000 -2.000079
v 5.999996 16.000000 -0.000075
v 1.999996 16.000000 -4.000078
v 0.000004 0.000000 7.999927
v 5.999996 0.000000 -2.000079
v 1.999996 8.000000 -2.000079
v -1.999998 8.000000 -2.000079
v -3.999998 8.000000 -0.000075
v 8.000009 0.000000 -0.000075
v 3.999994 8.000000 -0.000075
v 1.999996 18.000000 -0.000075
v -1.999998 18.000000 -0.000075
v -1.999997 16.000000 3.999926
v 1.999997 0.000000 1.999926
v -1.999998 0.000000 1.999926
v 1.999997 16.000000 3.999926
v 5.999996 0.000000 1.999926
v 1.999997 8.000000 1.999926
v -1.999998 8.000000 1.999926
v -1.999997 8.000000 7.999927
v 1.999997 8.000000 7.999927
v -1.999998 0.000000 -2.000079
v -1.999999 0.000000 -6.000084
v 0.000002 0.000000 -8.000082
v 0.000002 8.000000 -4.000078
v 1.999996 0.000000 -6.000084
v -5.999995 0.000000 1.999979
v -7.999998 0.000000 -0.000021
v -5.999995 0.000000 -2.000028
vt 0.000000 0.000000
vt 0.000000 0.000000
vt 0.000000 0.000000
vt 0.000000 0.000000
vt 0.000000 0.000000
vt 0.000000 0.000000
vt 0.000000 0.000000
vt 0.000000 0.000000
vt 0.000000 0.000000
vt 0.000000 0.000000
vt 0.000000 0.000000
vt 0.000000 0.000000
vt 0.000000 0.000000
vt 0.000000 0.000000
vt 0.000000 0.000000
vt 0.000000 0.000000
vt 0.000000 0.000000
vt 0.000000 0.000000
vt 0.000000 0.000000
vt 0.000000 0.000000
vt 0.000000 0.000000
vt 0.000000 0.000000
vt 0.000000 0.000000
vt 0.000000 0.000000
vt 0.000000 0.000000
vt 0.000000 0.000000
vt 0.000000 0.000000
vt 0.000000 0.000000
vt 0.000000 0.000000
vt 0.000000 0.000000
vt 0.000000 0.000000
vt 0.000000 0.000000
vt 0.000000 0.000000
vt 0.000000 0.000000
vt 0.000000 0.000000
vt 0.000000 0.000000
vt 0.000000 0.000000
vt 0.000000 0.000000
vt 0.000000 0.000000
vt 0.000000 0.000000
vt 0.000000 0.000000
vt 0.000000 0.000000
vt 0.000000 0.000000
vt 0.000000 0.000000
vt 0.000000 0.000000
vt 0.000000 0.000000
vt 0.000000 0.000000
vt 0.000000 0.000000
vt 0.000000 0.000000
vt 0.000000 0.000000
vt 0.000000 0.000000
vt 0.000000 0.000000
vt 0.000000 0.000000
vt 0.000000 0.000000
vt 0.000000 0.000000
vt 0.000000 0.000000
vt 0.000000 0.000000
vt 0.000000 0.000000
vt 0.000000 0.000000
vt 0.000000 0.000000
vt 0.000000 0.000000
vt 0.000000 0.000000
vt 0.000000 0.000000
vt 0.000000 0.000000
vt 0.000000 0.000000
vt 0.000000 0.000000
vt 0.000000 0.000000
vt 0.000000 0.000000
vt 0.000000 0.000000
vt 0.000000 0.000000
vt 0.000000 0.000000
vt 0.000000 0.000000
vt 0.000000 0.000000
vt 0.000000 0.000000
vt 0.000000 0.000000
vt 0.000000 0.000000
vt 0.000000 0.000000
vt 0.000000 0.000000
vt 0.000000 0.000000
vt 0.000000 0.000000
vt 0.000000 0.000000
vt 0.000000 0.000000
vt 0.000000 0.000000
vt 0.000000 0.000000
vt 0.000000 0.000000
vt 0.000000 0.000000
vt 0.000000 0.000000
vt 0.000000 0.000000
vt 0.000000 0.000000
vt 0.000000 0.000000
vt 0.000000 0.000000
vt 0.000000 0.000000
vt 0.000000 0.000000
vt 0.000000 0.000000
vt 0.000000 0.000000
vt 0.000000 0.000000
vt 0.000000 0.000000
vt 0.000000 0.000000
vt 0.000000 0.000000
vt 0.000000 0.000000
vt 0.000000 0.000000
vt 0.000000 0.000000
vt 0.000000 0.000000
vt 0.000000 0.000000
vt 0.000000 0.000000
vt 0.000000 0.000000
vt 0.000000 0.000000
vt 0.000000 0.000000
vt 0.000000 0.000000
vt 0.000000 0.000000
vt 0.000000 0.000000
vt 0.000000 0.000000
vt 0.000000 0.000000
vt 0.000000 0.000000
vt 0.000000 0.000000
vt 0.000000 0.000000
vt 0.000000 0.000000
vt 0.000000 0.000000
vt 0.000000 0.000000
vt 0.000000 0.000000
vt 0.000000 0.000000
vt 0.000000 0.000000
vt 0.000000 0.000000
vt 0.000000 0.000000
vt 0.000000 0.000000
vt 0.000000 0.000000
vt 0.000000 0.000000
vt 0.000000 0.000000
vt 0.000000 0.000000
vt 0.000000 0.000000
vt 0.000000 0.000000
vt 0.000000 0.000000
vt 0.000000 0.000000
vt 0.000000 0.000000
vt 0.000000 0.000000
vt 0.000000 0.000000
vt 0.000000 0.000000
vt 0.000000 0.000000
vn 0.696311 -0.174078 -0.696310
vn 0.696311 -0.174078 -0.696310
vn 0.704706 0.082341 -0.704705
vn 0.696311 -0.174078 -0.696310
vn 0.704706 0.082341 -0.704705
vn 0.704706 0.082341 -0.704705
vn 0.000000 -0.242536 -0.970142
vn 0.000000 -0.242536 -0.970142
vn 0.000000 -0.242536 -0.970142
vn 0.000000 -0.242536 -0.970142
vn 0.000000 -0.242536 -0.970142
vn 0.000000 -0.242536 -0.970142
vn 0.666667 0.333334 -0.666666
vn 0.666667 0.333334 -0.666666
vn 0.704706 0.082341 -0.704705
vn 0.666667 0.333334 -0.666666
vn 0.704706 0.082341 -0.704705
vn 0.704706 0.082341 -0.704705
vn -0.696311 -0.174078 -0.696310
vn -0.696311 -0.174078 -0.696310
vn -0.704706 0.082338 -0.704706
vn -0.696311 -0.174078 -0.696310
vn -0.704706 0.082338 -0.704706
vn -0.704706 0.082338 -0.704706
vn 0.000000 0.000000 -1.000000
vn 0.000000 0.000000 -1.000000
vn 0.000000 0.000000 -1.000000
vn 0.208721 0.874728 -0.437363
vn 0.408248 0.816497 -0.408248
vn 0.208721 0.874728 -0.437363
vn -0.980581 -0.117669 0.156893
vn -0.980581 -0.117669 0.156893
vn -0.923077 -0.230769 0.307692
vn -0.208721 0.874728 -0.437363
vn -0.408248 0.816497 -0.408248
vn -0.208721 0.874728 -0.437363
vn 0.208721 0.874728 -0.437363
vn -0.208721 0.874728 -0.437363
vn -0.208721 0.874728 -0.437363
vn 0.208721 0.874728 -0.437363
vn -0.208721 0.874728 -0.437363
vn 0.208721 0.874728 -0.437363
vn 1.000000 0.000000 0.000000
vn 0.980581 -0.117669 0.156893
vn 0.980581 -0.117669 0.156893
vn 0.704706 0.082341 0.704705
vn 0.704706 0.082341 0.704705
vn 0.696311 -0.174078 0.696310
vn 0.704706 0.082341 0.704705
vn 0.696311 -0.174078 0.696310
vn 0.696311 -0.174078 0.696310
vn 0.000000 -0.242536 0.970142
vn 0.000000 -0.242536 0.970142
vn 0.000000 -0.242536 0.970142
vn 0.000000 -0.242536 0.970142
vn 0.000000 -0.242536 0.970142
vn 0.000000 -0.242536 0.970142
vn 0.704706 0.082341 0.704705
vn 0.704706 0.082341 0.704705
vn 0.666667 0.333334 0.666666
vn 0.704706 0.082341 0.704705
vn 0.666667 0.333334 0.666666
vn 0.666667 0.333334 0.666666
vn -0.704706 0.082343 0.704705
vn -0.704706 0.082343 0.704705
vn -0.696311 -0.174078 0.696311
vn -0.704706 0.082343 0.704705
vn -0.696311 -0.174078 0.696311
vn -0.696311 -0.174078 0.696311
vn 0.000000 1.000000 0.000000
vn 0.000000 1.000000 0.000000
vn 0.000000 1.000000 0.000000
vn 0.000000 1.000000 0.000000
vn 0.000000 1.000000 0.000000
vn 0.000000 1.000000 0.000000
vn 0.208721 0.874728 0.437363
vn 0.408248 0.816497 0.408248
vn 0.208721 0.874728 0.437363
vn -0.980581 -0.117669 0.156893
vn -0.980581 -0.117669 0.156893
vn -1.000000 0.000000 0.000000
vn -0.208721 0.874728 0.437364
vn -0.408248 0.816497 0.408248
vn -0.208721 0.874728 0.437364
vn 0.208721 0.874728 0.437363
vn -0.208721 0.874728 0.437364
vn -0.208721 0.874728 0.437364
vn 0.208721 0.874728 0.437363
vn -0.208721 0.874728 0.437364
vn 0.208721 0.874728 0.437363
vn 0.000000 0.000000 1.000000
vn 0.000000 0.000000 1.000000
vn 0.000000 0.000000 1.000000
vn 0.000000 0.000000 1.000000
vn 0.000000 0.000000 1.000000
vn 0.000000 0.000000 1.000000
vn 0.923077 -0.230769 0.307692
vn 0.980581 -0.117669 0.156893
vn 0.980581 -0.117669 0.156893
vn -0.666667 0.333333 -0.666666
vn -0.666667 0.333333 -0.666666
vn -0.666667 0.333333 -0.666666
vn -0.666667 0.333333 -0.666666
vn -0.666667 0.333333 -0.666666
vn -0.666667 0.333333 -0.666666
vn 0.666667 0.333333 -0.666667
vn 0.666667 0.333333 -0.666667
vn 0.666667 0.333333 -0.666667
vn 0.666667 0.333333 -0.666667
vn 0.666667 0.333333 -0.666667
vn 0.666667 0.333333 -0.666667
vn -1.000000 0.000000 0.000000
vn -1.000000 0.000000 0.000000
vn -1.000000 0.000000 0.000000
vn 1.000000 0.000000 0.000000
vn 1.000000 0.000000 0.000000
vn 1.000000 0.000000 0.000000
vn 0.000000 1.000000 0.000000
vn 0.000000 1.000000 0.000000
vn 0.000000 1.000000 0.000000
vn -0.000013 0.000000 -1.000000
vn -0.000013 0.000000 -1.000000
vn -0.000013 0.000000 -1.000000
vn -0.704706 0.082338 -0.704706
vn -0.704706 0.082338 -0.704706
vn -0.666668 0.333329 -0.666667
vn -0.704706 0.082338 -0.704706
vn -0.666668 0.333329 -0.666667
vn -0.666668 0.333329 -0.666667
vn -0.666666 0.333337 0.666665
vn -0.666666 0.333337 0.666665
vn -0.704706 0.082343 0.704705
vn -0.666666 0.333337 0.666665
vn -0.704706 0.082343 0.704705
vn -0.704706 0.082343 0.704705
vn 0.000013 0.000000 1.000000
vn 0.000013 0.000000 1.000000
vn 0.000013 0.000000 1.000000
f 5/1/1 4/2/2 12/3/3
f 5/4/4 12/5/5 8/6/6
f 1/7/7 5/8/8 8/9/9
f 1/10/10 8/11/11 9/12/12
f 11/13/13 7/14/14 8/15/15
f 11/16/16 8/17/17 12/18/18
f 2/19/19 1/20/20 9/21/21
f 2/22/22 9/23/23 10/24/24
f 8/25/25 7/26/26 3/27/27
f 13/28/28 4/29/29 5/30/30
f 22/31/31 17/32/32 6/33/33
f 1/34/34 2/35/35 14/36/36
f 5/37/37 1/38/38 14/39/39
f 5/40/40 14/41/41 13/42/42
f 20/43/43 23/44/44 16/45/45
f 20/46/46 12/47/47 4/48/48
f 20/49/49 4/50/50 18/51/51
f 21/52/52 20/53/53 18/54/54
f 21/55/55 18/56/56 15/57/57
f 12/58/58 20/59/59 19/60/60
f 12/61/61 19/62/62 11/63/63
f 10/64/64 21/65/65 15/66/66
f 10/67/67 15/68/68 2/69/69
f 21/70/70 22/71/71 23/72/72
f 21/73/73 23/74/74 20/75/75
f 18/76/76 4/77/77 13/78/78
f 17/79/79 22/80/80 21/81/81
f 14/82/82 2/83/83 15/84/84
f 13/85/85 14/86/86 15/87/87
f 13/88/88 15/89/89 18/90/90
f 16/91/91 19/92/92 20/93/93
f 23/94/94 22/95/95 6/96/96
f 6/97/97 16/98/98 23/99/99
f 9/100/100 27/101/101 26/102/102
f 9/103/103 26/104/104 25/105/105
f 27/106/106 8/107/107 28/108/108
f 27/109/109 28/110/110 26/111/111
f 9/112/112 25/113/113 24/114/114
f 3/115/115 28/116/116 8/117/117
f 27/118/118 9/119/119 8/120/120
f 24/121/121 31/122/122 9/123/123
f 10/124/124 9/125/125 31/126/126
f 10/127/127 31/128/128 30/129/129
f 30/130/130 29/131/131 21/132/132
f 30/133/133 21/134/134 10/135/135
f 21/136/136 29/137/137 17/138/138
