v 1.999999 0.000000 10.000000
v -8.000001 0.000000 -16.000000
v -16.000000 0.000000 -16.000000
v -0.000001 0.000000 -8.000000
v -8.000001 0.000000 -8.000000
v -16.000002 0.000000 -8.000000
v -8.000001 0.000000 0.000000
v -16.000002 0.000000 0.000000
v -0.000002 0.000000 8.000000
v -8.000002 0.000000 8.000000
v -16.000002 0.000000 8.000000
v 8.500000 17.000000 7.500000
v -8.000002 0.000000 16.000000
v -16.000002 0.000000 16.000000
v -8.000001 0.000000 -6.000000
v -8.000002 0.000000 6.000000
v 40.000000 0.000000 -24.000000
v -6.000002 0.000000 8.000000
v -16.000000 0.000000 -32.000000
v -6.000001 0.000000 -8.000000
v -3.000002 17.000000 4.000000
v -4.000001 17.000000 3.000000
v -4.000001 17.000000 -3.000000
v -3.000001 17.000000 -4.000000
v 3.999999 17.000000 -1.000000
v -8.000001 39.000000 -6.000000
v -2.000001 17.000000 -4.000000
v -2.000002 17.000000 4.000000
v 12.000001 17.000000 -11.000000
v 3.999999 17.000000 1.000000
v 3.999999 19.000000 1.000000
v -6.000001 39.000000 -8.000000
v -2.000002 19.000000 4.000000
v -3.000002 19.000000 4.000000
v -4.000001 19.000000 3.000000
v 5.000000 17.000000 -4.000000
v -4.000001 19.000000 -3.000000
v -3.000001 19.000000 -4.000000
v -2.000001 19.000000 -4.000000
v 3.999999 19.000000 -1.000000
v 11.999998 35.000000 3.000000
v -4.000001 39.000000 -8.000000
v -6.000002 35.000000 12.000000
v -9.000002 35.000000 12.000000
v -12.000002 35.000000 9.000000
v 12.000000 23.000000 4.000000
v -12.000001 35.000000 -9.000000
v -9.000001 35.000000 -12.000000
v -6.000001 35.000000 -12.000000
v 11.999999 35.000000 -3.000000
v 7.999999 39.000000 2.000000
v 7.999999 39.000000 -2.000000
v -4.000002 39.000000 8.000000
v -6.000002 39.000000 8.000000
v -8.000002 39.000000 6.000000
v 12.000001 23.000000 -3.999999
v 6.000000 0.000000 14.000000
v 40.000000 0.000000 -15.999998
v 48.000000 0.000000 -15.999998
v 31.999998 0.000000 -7.999998
v 40.000000 0.000000 -7.999998
v 48.000000 0.000000 -7.999998
v 40.000000 0.000000 0.000000
v 48.000000 0.000000 0.000004
v 31.999998 0.000000 8.000000
v 40.000000 0.000000 8.000000
v 48.000000 0.000000 8.000004
v 29.999998 0.000000 -9.999998
v 39.999996 0.000000 16.000000
v 47.999996 0.000000 16.000004
v 40.000000 0.000000 -5.999998
v 40.000000 0.000000 6.000000
v 48.000000 0.000000 -32.000000
v 38.000000 0.000000 8.000000
v -8.000000 0.000000 -24.000000
v 38.000000 0.000000 -7.999998
v 35.000000 17.000000 4.000000
v 36.000000 17.000000 3.000000
v 36.000000 17.000000 -2.999998
v 35.000000 17.000000 -3.999998
v 27.999998 17.000000 -0.999998
v 40.000000 39.000000 -5.999998
v 34.000000 17.000000 -3.999998
v 34.000000 17.000000 4.000000
v 17.999998 39.000000 -8.000000
v 27.999998 17.000000 1.000000
v 27.999998 19.000000 1.000000
v 38.000000 39.000000 -7.999998
v 34.000000 19.000000 4.000000
v 35.000000 19.000000 4.000000
v 36.000000 19.000000 3.000000
v 14.000001 39.000000 -8.000000
v 36.000000 19.000000 -2.999998
v 35.000000 19.000000 -3.999998
v 34.000000 19.000000 -3.999998
v 27.999998 19.000000 -0.999998
v 19.999998 35.000000 3.000000
v 36.000000 39.000000 -7.999998
v 37.999996 35.000000 12.000000
v 40.999996 35.000000 12.000000
v 44.000000 35.000000 9.000004
v 23.999998 39.000000 -20.000002
v 44.000000 35.000000 -8.999998
v 41.000000 35.000000 -11.999998
v 38.000000 35.000000 -11.999998
v 19.999998 35.000000 -3.000000
v 23.999998 39.000000 2.000000
v 23.999998 39.000000 -1.999998
v 36.000000 39.000000 8.000000
v 38.000000 39.000000 8.000000
v 40.000000 39.000000 6.000000
v 23.999998 39.000000 -22.000002
v 0.000000 0.000000 24.000000
v -0.000000 0.000000 32.000000
v 19.999998 17.000000 -11.000001
v 8.000000 0.000000 16.000000
v 8.000000 0.000000 24.000000
v 8.000001 0.000000 32.000000
v 16.000000 0.000000 24.000000
v 16.000000 0.000000 32.000000
v 27.000000 17.000000 -3.999999
v 24.000000 0.000000 16.000000
v 24.000000 0.000000 24.000000
v 24.000000 0.000000 32.000000
v 32.000000 0.000000 24.000000
v 32.000000 0.000000 32.000000
v 10.000000 0.000000 24.000000
v 22.000000 0.000000 24.000000
v 48.000000 0.000000 -24.000000
v 24.000000 0.000000 22.000000
v 40.000000 0.000000 -32.000000
v 8.000000 0.000000 22.000000
v 20.000000 17.000000 19.000000
v 19.000000 17.000000 20.000000
v 13.000000 17.000000 20.000000
v 12.000000 17.000000 19.000000
v 15.000000 17.000000 12.000000
v 10.000000 39.000000 24.000000
v 12.000000 17.000000 18.000000
v 20.000000 17.000000 18.000000
v 20.000000 23.000000 4.000000
v 17.000000 17.000000 12.000000
v 17.000000 19.000000 12.000000
v 8.000000 39.000000 22.000000
v 20.000000 19.000000 18.000000
v 20.000000 19.000000 19.000000
v 19.000000 19.000000 20.000000
v 19.999998 23.000000 -4.000000
v 13.000000 19.000000 20.000000
v 12.000000 19.000000 19.000000
v 12.000000 19.000000 18.000000
v 15.000000 19.000000 12.000000
v 19.000000 35.000000 4.000000
v 8.000000 39.000000 20.000000
v 28.000000 35.000000 22.000000
v 28.000000 35.000000 25.000000
v 25.000000 35.000000 28.000000
v 21.999998 39.000000 -24.000002
v 7.000000 35.000000 28.000000
v 4.000000 35.000000 25.000000
v 4.000000 35.000000 22.000000
v 12.999999 35.000000 4.000000
v 18.000000 39.000000 8.000000
v 14.000000 39.000000 8.000000
v 24.000000 39.000000 20.000000
v 24.000000 39.000000 22.000000
v 22.000000 39.000000 24.000000
v 4.999999 17.000000 4.000000
v 0.000000 0.000000 -24.000000
v -0.000000 0.000000 -32.000000
v 20.000000 17.000000 11.000000
v 8.000001 0.000000 -15.999999
v 8.000000 0.000000 -24.000002
v 8.000000 0.000000 -32.000000
v 15.999998 0.000000 -24.000002
v 16.000002 0.000000 -32.000000
v 27.000000 17.000000 4.000000
v 23.999998 0.000000 -16.000000
v 23.999998 0.000000 -24.000002
v 24.000002 0.000000 -32.000000
v 31.999998 0.000000 -23.999998
v 32.000000 0.000000 -31.999998
v 10.000000 0.000000 -24.000002
v 21.999998 0.000000 -24.000002
v -16.000000 0.000000 -24.000000
v 23.999998 0.000000 -22.000002
v -8.000000 0.000000 -32.000000
v 8.000000 0.000000 -22.000002
v 19.999998 17.000000 -19.000002
v 18.999998 17.000000 -20.000002
v 13.000000 17.000000 -20.000002
v 12.000000 17.000000 -19.000002
v 15.000001 17.000000 -11.999999
v 10.000000 39.000000 -24.000002
v 12.000000 17.000000 -18.000002
v 19.999998 17.000000 -18.000002
v 4.000000 35.000000 -22.000000
v 16.999998 17.000000 -12.000000
v 16.999998 19.000000 -12.000000
v 8.000000 39.000000 -22.000002
v 19.999998 19.000000 -18.000002
v 19.999998 19.000000 -19.000002
v 18.999998 19.000000 -20.000002
v 12.999999 35.000000 -3.999999
v 13.000000 19.000000 -20.000002
v 12.000000 19.000000 -19.000002
v 12.000000 19.000000 -18.000002
v 15.000001 19.000000 -11.999999
v 19.000000 35.000000 -4.000000
v 8.000000 39.000000 -20.000002
v 27.999998 35.000000 -21.999998
v 27.999998 35.000000 -24.999998
v 25.000002 35.000000 -28.000002
v 12.000000 17.000000 11.000000
v 7.000000 35.000000 -28.000002
v 4.000000 35.000000 -25.000000
v -8.000000 0.000000 24.000000
v -16.000000 0.000000 24.000000
v -16.000000 0.000000 32.000000
v -8.000000 0.000000 32.000000
v 40.000000 0.000000 24.000000
v 48.000000 0.000000 24.000000
v 48.000000 0.000000 32.000000
v 40.000000 0.000000 32.000000
v 23.500000 17.000000 -7.500000
v 25.999998 0.000000 -14.000000
v 1.999999 -1.000000 10.000000
v 31.999998 -1.000000 -7.999998
v 6.000000 -1.000000 14.000000
v 23.999998 -1.000000 -16.000000
v 29.999998 -1.000000 -9.999998
v 25.999998 -1.000000 -14.000000
v -0.000002 -1.000000 8.000000
v 8.000000 -1.000000 16.000000
vt 0.000000 0.000000
vt 0.000000 0.000000
vt 0.000000 0.000000
vt 0.000000 0.000000
vt 0.000000 0.000000
vt 0.000000 0.000000
vt 0.000000 0.000000
vt 0.000000 0.000000
vt 0.000000 0.000000
vt 0.000000 0.000000
vt 0.000000 0.000000
vt 0.000000 0.000000
vt 0.000000 0.000000
vt 0.000000 0.000000
vt 0.000000 0.000000
vt 0.000000 0.000000
vt 0.000000 0.000000
vt 0.000000 0.000000
vt 0.000000 0.000000
vt 0.000000 0.000000
vt 0.000000 0.000000
vt 0.000000 0.000000
vt 0.000000 0.000000
vt 0.000000 0.000000
vt 0.000000 0.000000
vt 0.000000 0.000000
vt 0.000000 0.000000
vt 0.000000 0.000000
vt 0.000000 0.000000
vt 0.000000 0.000000
vt 0.000000 0.000000
vt 0.000000 0.000000
vt 0.000000 0.000000
vt 0.000000 0.000000
vt 0.000000 0.000000
vt 0.000000 0.000000
vt 0.000000 0.000000
vt 0.000000 0.000000
vt 0.000000 0.000000
vt 0.000000 0.000000
vt 0.000000 0.000000
vt 0.000000 0.000000
vt 0.000000 0.000000
vt 0.000000 0.000000
vt 0.000000 0.000000
vt 0.000000 0.000000
vt 0.000000 0.000000
vt 0.000000 0.000000
vt 0.000000 0.000000
vt 0.000000 0.000000
vt 0.000000 0.000000
vt 0.000000 0.000000
vt 0.000000 0.000000
vt 0.000000 0.000000
vt 0.000000 0.000000
vt 0.000000 0.000000
vt 0.000000 0.000000
vt 0.000000 0.000000
vt 0.000000 0.000000
vt 0.000000 0.000000
vt 0.000000 0.000000
vt 0.000000 0.000000
vt 0.000000 0.000000
vt 0.000000 0.000000
vt 0.000000 0.000000
vt 0.000000 0.000000
vt 0.000000 0.000000
vt 0.000000 0.000000
vt 0.000000 0.000000
vt 0.000000 0.000000
vt 0.000000 0.000000
vt 0.000000 0.000000
vt 0.000000 0.000000
vt 0.000000 0.000000
vt 0.000000 0.000000
vt 0.000000 0.000000
vt 0.000000 0.000000
vt 0.000000 0.000000
vt 0.000000 0.000000
vt 0.000000 0.000000
vt 0.000000 0.000000
vt 0.000000 0.000000
vt 0.000000 0.000000
vt 0.000000 0.000000
vt 0.000000 0.000000
vt 0.000000 0.000000
vt 0.000000 0.000000
vt 0.000000 0.000000
vt 0.000000 0.000000
vt 0.000000 0.000000
vt 0.000000 0.000000
vt 0.000000 0.000000
vt 0.000000 0.000000
vt 0.000000 0.000000
vt 0.000000 0.000000
vt 0.000000 0.000000
vt 0.000000 0.000000
vt 0.000000 0.000000
vt 0.000000 0.000000
vt 0.000000 0.000000
vt 0.000000 0.000000
vt 0.000000 0.000000
vt 0.000000 0.000000
vt 0.000000 0.000000
vt 0.000000 0.000000
vt 0.000000 0.000000
vt 0.000000 0.000000
vt 0.000000 0.000000
vt 0.000000 0.000000
vt 0.000000 0.000000
vt 0.000000 0.000000
vt 0.000000 0.000000
vt 0.000000 0.000000
vt 0.000000 0.000000
vt 0.000000 0.000000
vt 0.000000 0.000000
vt 0.000000 0.000000
vt 0.000000 0.000000
vt 0.000000 0.000000
vt 0.000000 0.000000
vt 0.000000 0.000000
vt 0.000000 0.000000
vt 0.000000 0.000000
vt 0.000000 0.000000
vt 0.000000 0.000000
vt 0.000000 0.000000
vt 0.000000 0.000000
vt 0.000000 0.000000
vt 0.000000 0.000000
vt 0.000000 0.000000
vt 0.000000 0.000000
vt 0.000000 0.000000
vt 0.000000 0.000000
vt 0.000000 0.000000
vt 0.000000 0.000000
vt 0.000000 0.000000
vt 0.000000 0.000000
vt 0.000000 0.000000
vt 0.000000 0.000000
vt 0.000000 0.000000
vt 0.000000 0.000000
vt 0.000000 0.000000
vt 0.000000 0.000000
vt 0.000000 0.000000
vt 0.000000 0.000000
vt 0.000000 0.000000
vt 0.000000 0.000000
vt 0.000000 0.000000
vt 0.000000 0.000000
vt 0.000000 0.000000
vt 0.000000 0.000000
vt 0.000000 0.000000
vt 0.000000 0.000000
vt 0.000000 0.000000
vt 0.000000 0.000000
vt 0.000000 0.000000
vt 0.000000 0.000000
vt 0.000000 0.000000
vt 0.000000 0.000000
vt 0.000000 0.000000
vt 0.000000 0.000000
vt 0.000000 0.000000
vt 0.000000 0.000000
vt 0.000000 0.000000
vt 0.000000 0.000000
vt 0.000000 0.000000
vt 0.000000 0.000000
vt 0.000000 0.000000
vt 0.000000 0.000000
vt 0.000000 0.000000
vt 0.000000 0.000000
vt 0.000000 0.000000
vt 0.000000 0.000000
vt 0.000000 0.000000
vt 0.000000 0.000000
vt 0.000000 0.000000
vt 0.000000 0.000000
vt 0.000000 0.000000
vt 0.000000 0.000000
vt 0.000000 0.000000
vt 0.000000 0.000000
vt 0.000000 0.000000
vt 0.000000 0.000000
vt 0.000000 0.000000
vt 0.000000 0.000000
vt 0.000000 0.000000
vt 0.000000 0.000000
vt 0.000000 0.000000
vt 0.000000 0.000000
vt 0.000000 0.000000
vt 0.000000 0.000000
vt 0.000000 0.000000
vt 0.000000 0.000000
vt 0.000000 0.000000
vt 0.000000 0.000000
vt 0.000000 0.000000
vt 0.000000 0.000000
vt 0.000000 0.000000
vt 0.000000 0.000000
vt 0.000000 0.000000
vt 0.000000 0.000000
vt 0.000000 0.000000
vt 0.000000 0.000000
vt 0.000000 0.000000
vt 0.000000 0.000000
vt 0.000000 0.000000
vt 0.000000 0.000000
vt 0.000000 0.000000
vt 0.000000 0.000000
vt 0.000000 0.000000
vt 0.000000 0.000000
vt 0.000000 0.000000
vt 0.000000 0.000000
vt 0.000000 0.000000
vt 0.000000 0.000000
vt 0.000000 0.000000
vt 0.000000 0.000000
vt 0.000000 0.000000
vt 0.000000 0.000000
vt 0.000000 0.000000
vt 0.000000 0.000000
vt 0.000000 0.000000
vt 0.000000 0.000000
vt 0.000000 0.000000
vt 0.000000 0.000000
vt 0.000000 0.000000
vt 0.000000 0.000000
vt 0.000000 0.000000
vt 0.000000 0.000000
vt 0.000000 0.000000
vt 0.000000 0.000000
vt 0.000000 0.000000
vt 0.000000 0.000000
vt 0.000000 0.000000
vt 0.000000 0.000000
vt 0.000000 0.000000
vt 0.000000 0.000000
vt 0.000000 0.000000
vt 0.000000 0.000000
vt 0.000000 0.000000
vt 0.000000 0.000000
vt 0.000000 0.000000
vt 0.000000 0.000000
vt 0.000000 0.000000
vt 0.000000 0.000000
vt 0.000000 0.000000
vt 0.000000 0.000000
vt 0.000000 0.000000
vt 0.000000 0.000000
vt 0.000000 0.000000
vt 0.000000 0.000000
vt 0.000000 0.000000
vt 0.000000 0.000000
vt 0.000000 0.000000
vt 0.000000 0.000000
vt 0.000000 0.000000
vt 0.000000 0.000000
vt 0.000000 0.000000
vt 0.000000 0.000000
vt 0.000000 0.000000
vt 0.000000 0.000000
vt 0.000000 0.000000
vt 0.000000 0.000000
vt 0.000000 0.000000
vt 0.000000 0.000000
vt 0.000000 0.000000
vt 0.000000 0.000000
vt 0.000000 0.000000
vt 0.000000 0.000000
vt 0.000000 0.000000
vt 0.000000 0.000000
vt 0.000000 0.000000
vt 0.000000 0.000000
vt 0.000000 0.000000
vt 0.000000 0.000000
vt 0.000000 0.000000
vt 0.000000 0.000000
vt 0.000000 0.000000
vt 0.000000 0.000000
vt 0.000000 0.000000
vt 0.000000 0.000000
vt 0.000000 0.000000
vt 0.000000 0.000000
vt 0.000000 0.000000
vt 0.000000 0.000000
vt 0.000000 0.000000
vt 0.000000 0.000000
vt 0.000000 0.000000
vt 0.000000 0.000000
vt 0.000000 0.000000
vt 0.000000 0.000000
vt 0.000000 0.000000
vt 0.000000 0.000000
vt 0.000000 0.000000
vt 0.000000 0.000000
vt 0.000000 0.000000
vt 0.000000 0.000000
vt 0.000000 0.000000
vt 0.000000 0.000000
vt 0.000000 0.000000
vt 0.000000 0.000000
vt 0.000000 0.000000
vt 0.000000 0.000000
vt 0.000000 0.000000
vt 0.000000 0.000000
vt 0.000000 0.000000
vt 0.000000 0.000000
vt 0.000000 0.000000
vt 0.000000 0.000000
vt 0.000000 0.000000
vt 0.000000 0.000000
vt 0.000000 0.000000
vt 0.000000 0.000000
vt 0.000000 0.000000
vt 0.000000 0.000000
vt 0.000000 0.000000
vt 0.000000 0.000000
vt 0.000000 0.000000
vt 0.000000 0.000000
vt 0.000000 0.000000
vt 0.000000 0.000000
vt 0.000000 0.000000
vt 0.000000 0.000000
vt 0.000000 0.000000
vt 0.000000 0.000000
vt 0.000000 0.000000
vt 0.000000 0.000000
vt 0.000000 0.000000
vt 0.000000 0.000000
vt 0.000000 0.000000
vt 0.000000 0.000000
vt 0.000000 0.000000
vt 0.000000 0.000000
vt 0.000000 0.000000
vt 0.000000 0.000000
vt 0.000000 0.000000
vt 0.000000 0.000000
vt 0.000000 0.000000
vt 0.000000 0.000000
vt 0.000000 0.000000
vt 0.000000 0.000000
vt 0.000000 0.000000
vt 0.000000 0.000000
vt 0.000000 0.000000
vt 0.000000 0.000000
vt 0.000000 0.000000
vt 0.000000 0.000000
vt 0.000000 0.000000
vt 0.000000 0.000000
vt 0.000000 0.000000
vt 0.000000 0.000000
vt 0.000000 0.000000
vt 0.000000 0.000000
vt 0.000000 0.000000
vt 0.000000 0.000000
vt 0.000000 0.000000
vt 0.000000 0.000000
vt 0.000000 0.000000
vt 0.000000 0.000000
vt 0.000000 0.000000
vt 0.000000 0.000000
vt 0.000000 0.000000
vt 0.000000 0.000000
vt 0.000000 0.000000
vt 0.000000 0.000000
vt 0.000000 0.000000
vt 0.000000 0.000000
vt 0.000000 0.000000
vt 0.000000 0.000000
vt 0.000000 0.000000
vt 0.000000 0.000000
vt 0.000000 0.000000
vt 0.000000 0.000000
vt 0.000000 0.000000
vt 0.000000 0.000000
vt 0.000000 0.000000
vt 0.000000 0.000000
vt 0.000000 0.000000
vt 0.000000 0.000000
vt 0.000000 0.000000
vt 0.000000 0.000000
vt 0.000000 0.000000
vt 0.000000 0.000000
vt 0.000000 0.000000
vt 0.000000 0.000000
vt 0.000000 0.000000
vt 0.000000 0.000000
vt 0.000000 0.000000
vt 0.000000 0.000000
vt 0.000000 0.000000
vt 0.000000 0.000000
vt 0.000000 0.000000
vt 0.000000 0.000000
vt 0.000000 0.000000
vt 0.000000 0.000000
vt 0.000000 0.000000
vt 0.000000 0.000000
vt 0.000000 0.000000
vt 0.000000 0.000000
vt 0.000000 0.000000
vt 0.000000 0.000000
vt 0.000000 0.000000
vt 0.000000 0.000000
vt 0.000000 0.000000
vt 0.000000 0.000000
vt 0.000000 0.000000
vt 0.000000 0.000000
vt 0.000000 0.000000
vt 0.000000 0.000000
vt 0.000000 0.000000
vt 0.000000 0.000000
vt 0.000000 0.000000
vt 0.000000 0.000000
vt 0.000000 0.000000
vt 0.000000 0.000000
vt 0.000000 0.000000
vt 0.000000 0.000000
vt 0.000000 0.000000
vt 0.000000 0.000000
vt 0.000000 0.000000
vt 0.000000 0.000000
vt 0.000000 0.000000
vt 0.000000 0.000000
vt 0.000000 0.000000
vt 0.000000 0.000000
vt 0.000000 0.000000
vt 0.000000 0.000000
vt 0.000000 0.000000
vt 0.000000 0.000000
vt 0.000000 0.000000
vt 0.000000 0.000000
vt 0.000000 0.000000
vt 0.000000 0.000000
vt 0.000000 0.000000
vt 0.000000 0.000000
vt 0.000000 0.000000
vt 0.000000 0.000000
vt 0.000000 0.000000
vt 0.000000 0.000000
vt 0.000000 0.000000
vt 0.000000 0.000000
vt 0.000000 0.000000
vt 0.000000 0.000000
vt 0.000000 0.000000
vt 0.000000 0.000000
vt 0.000000 0.000000
vt 0.000000 0.000000
vt 0.000000 0.000000
vt 0.000000 0.000000
vt 0.000000 0.000000
vt 0.000000 0.000000
vt 0.000000 0.000000
vt 0.000000 0.000000
vt 0.000000 0.000000
vt 0.000000 0.000000
vt 0.000000 0.000000
vt 0.000000 0.000000
vt 0.000000 0.000000
vt 0.000000 0.000000
vt 0.000000 0.000000
vt 0.000000 0.000000
vt 0.000000 0.000000
vt 0.000000 0.000000
vt 0.000000 0.000000
vt 0.000000 0.000000
vt 0.000000 0.000000
vt 0.000000 0.000000
vt 0.000000 0.000000
vt 0.000000 0.000000
vt 0.000000 0.000000
vt 0.000000 0.000000
vt 0.000000 0.000000
vt 0.000000 0.000000
vt 0.000000 0.000000
vt 0.000000 0.000000
vt 0.000000 0.000000
vt 0.000000 0.000000
vt 0.000000 0.000000
vt 0.000000 0.000000
vt 0.000000 0.000000
vt 0.000000 0.000000
vt 0.000000 0.000000
vt 0.000000 0.000000
vt 0.000000 0.000000
vt 0.000000 0.000000
vt 0.000000 0.000000
vt 0.000000 0.000000
vt 0.000000 0.000000
vt 0.000000 0.000000
vt 0.000000 0.000000
vt 0.000000 0.000000
vt 0.000000 0.000000
vt 0.000000 0.000000
vt 0.000000 0.000000
vt 0.000000 0.000000
vt 0.000000 0.000000
vt 0.000000 0.000000
vt 0.000000 0.000000
vt 0.000000 0.000000
vt 0.000000 0.000000
vt 0.000000 0.000000
vt 0.000000 0.000000
vt 0.000000 0.000000
vt 0.000000 0.000000
vt 0.000000 0.000000
vt 0.000000 0.000000
vt 0.000000 0.000000
vt 0.000000 0.000000
vt 0.000000 0.000000
vt 0.000000 0.000000
vt 0.000000 0.000000
vt 0.000000 0.000000
vt 0.000000 0.000000
vt 0.000000 0.000000
vt 0.000000 0.000000
vt 0.000000 0.000000
vt 0.000000 0.000000
vt 0.000000 0.000000
vt 0.000000 0.000000
vt 0.000000 0.000000
vt 0.000000 0.000000
vt 0.000000 0.000000
vt 0.000000 0.000000
vt 0.000000 0.000000
vt 0.000000 0.000000
vt 0.000000 0.000000
vt 0.000000 0.000000
vt 0.000000 0.000000
vt 0.000000 0.000000
vt 0.000000 0.000000
vt 0.000000 0.000000
vt 0.000000 0.000000
vt 0.000000 0.000000
vt 0.000000 0.000000
vt 0.000000 0.000000
vt 0.000000 0.000000
vt 0.000000 0.000000
vt 0.000000 0.000000
vt 0.000000 0.000000
vt 0.000000 0.000000
vt 0.000000 0.000000
vt 0.000000 0.000000
vt 0.000000 0.000000
vt 0.000000 0.000000
vt 0.000000 0.000000
vt 0.000000 0.000000
vt 0.000000 0.000000
vt 0.000000 0.000000
vt 0.000000 0.000000
vt 0.000000 0.000000
vt 0.000000 0.000000
vt 0.000000 0.000000
vt 0.000000 0.000000
vt 0.000000 0.000000
vt 0.000000 0.000000
vt 0.000000 0.000000
vt 0.000000 0.000000
vt 0.000000 0.000000
vt 0.000000 0.000000
vt 0.000000 0.000000
vt 0.000000 0.000000
vt 0.000000 0.000000
vt 0.000000 0.000000
vt 0.000000 0.000000
vt 0.000000 0.000000
vt 0.000000 0.000000
vt 0.000000 0.000000
vt 0.000000 0.000000
vt 0.000000 0.000000
vt 0.000000 0.000000
vt 0.000000 0.000000
vt 0.000000 0.000000
vt 0.000000 0.000000
vt 0.000000 0.000000
vt 0.000000 0.000000
vt 0.000000 0.000000
vt 0.000000 0.000000
vt 0.000000 0.000000
vt 0.000000 0.000000
vt 0.000000 0.000000
vt 0.000000 0.000000
vt 0.000000 0.000000
vt 0.000000 0.000000
vt 0.000000 0.000000
vt 0.000000 0.000000
vt 0.000000 0.000000
vt 0.000000 0.000000
vt 0.000000 0.000000
vt 0.000000 0.000000
vt 0.000000 0.000000
vt 0.000000 0.000000
vt 0.000000 0.000000
vt 0.000000 0.000000
vt 0.000000 0.000000
vt 0.000000 0.000000
vt 0.000000 0.000000
vt 0.000000 0.000000
vt 0.000000 0.000000
vt 0.000000 0.000000
vt 0.000000 0.000000
vt 0.000000 0.000000
vt 0.000000 0.000000
vt 0.000000 0.000000
vt 0.000000 0.000000
vt 0.000000 0.000000
vt 0.000000 0.000000
vt 0.000000 0.000000
vt 0.000000 0.000000
vt 0.000000 0.000000
vt 0.000000 0.000000
vt 0.000000 0.000000
vt 0.000000 0.000000
vt 0.000000 0.000000
vt 0.000000 0.000000
vt 0.000000 0.000000
vt 0.000000 0.000000
vt 0.000000 0.000000
vt 0.000000 0.000000
vt 0.000000 0.000000
vt 0.000000 0.000000
vt 0.000000 0.000000
vt 0.000000 0.000000
vt 0.000000 0.000000
vt 0.000000 0.000000
vt 0.000000 0.000000
vt 0.000000 0.000000
vt 0.000000 0.000000
vt 0.000000 0.000000
vt 0.000000 0.000000
vt 0.000000 0.000000
vt 0.000000 0.000000
vt 0.000000 0.000000
vt 0.000000 0.000000
vt 0.000000 0.000000
vt 0.000000 0.000000
vt 0.000000 0.000000
vt 0.000000 0.000000
vt 0.000000 0.000000
vt 0.000000 0.000000
vt 0.000000 0.000000
vt 0.000000 0.000000
vt 0.000000 0.000000
vt 0.000000 0.000000
vt 0.000000 0.000000
vt 0.000000 0.000000
vt 0.000000 0.000000
vt 0.000000 0.000000
vt 0.000000 0.000000
vt 0.000000 0.000000
vt 0.000000 0.000000
vt 0.000000 0.000000
vt 0.000000 0.000000
vt 0.000000 0.000000
vt 0.000000 0.000000
vt 0.000000 0.000000
vt 0.000000 0.000000
vt 0.000000 0.000000
vt 0.000000 0.000000
vt 0.000000 0.000000
vt 0.000000 0.000000
vt 0.000000 0.000000
vt 0.000000 0.000000
vt 0.000000 0.000000
vt 0.000000 0.000000
vt 0.000000 0.000000
vt 0.000000 0.000000
vt 0.000000 0.000000
vt 0.000000 0.000000
vt 0.000000 0.000000
vt 0.000000 0.000000
vt 0.000000 0.000000
vt 0.000000 0.000000
vt 0.000000 0.000000
vt 0.000000 0.000000
vt 0.000000 0.000000
vt 0.000000 0.000000
vt 0.000000 0.000000
vt 0.000000 0.000000
vt 0.000000 0.000000
vt 0.000000 0.000000
vt 0.000000 0.000000
vt 0.000000 0.000000
vt 0.000000 0.000000
vt 0.000000 0.000000
vt 0.000000 0.000000
vt 0.000000 0.000000
vt 0.000000 0.000000
vt 0.000000 0.000000
vt 0.000000 0.000000
vt 0.000000 0.000000
vt 0.000000 0.000000
vt 0.000000 0.000000
vt 0.000000 0.000000
vt 0.000000 0.000000
vt 0.000000 0.000000
vt 0.000000 0.000000
vt 0.000000 0.000000
vt 0.000000 0.000000
vt 0.000000 0.000000
vt 0.000000 0.000000
vt 0.000000 0.000000
vt 0.000000 0.000000
vt 0.000000 0.000000
vt 0.000000 0.000000
vt 0.000000 0.000000
vt 0.000000 0.000000
vt 0.000000 0.000000
vt 0.000000 0.000000
vt 0.000000 0.000000
vt 0.000000 0.000000
vt 0.000000 0.000000
vt 0.000000 0.000000
vt 0.000000 0.000000
vt 0.000000 0.000000
vt 0.000000 0.000000
vt 0.000000 0.000000
vt 0.000000 0.000000
vt 0.000000 0.000000
vt 0.000000 0.000000
vt 0.000000 0.000000
vt 0.000000 0.000000
vt 0.000000 0.000000
vt 0.000000 0.000000
vt 0.000000 0.000000
vt 0.000000 0.000000
vt 0.000000 0.000000
vt 0.000000 0.000000
vt 0.000000 0.000000
vt 0.000000 0.000000
vt 0.000000 0.000000
vt 0.000000 0.000000
vt 0.000000 0.000000
vt 0.000000 0.000000
vt 0.000000 0.000000
vt 0.000000 0.000000
vt 0.000000 0.000000
vt 0.000000 0.000000
vt 0.000000 0.000000
vt 0.000000 0.000000
vt 0.000000 0.000000
vt 0.000000 0.000000
vt 0.000000 0.000000
vt 0.000000 0.000000
vt 0.000000 0.000000
vt 0.000000 0.000000
vt 0.000000 0.000000
vt 0.000000 0.000000
vt 0.000000 0.000000
vt 0.000000 0.000000
vt 0.000000 0.000000
vt 0.000000 0.000000
vt 0.000000 0.000000
vt 0.000000 0.000000
vt 0.000000 0.000000
vt 0.000000 0.000000
vt 0.000000 0.000000
vt 0.000000 0.000000
vt 0.000000 0.000000
vt 0.000000 0.000000
vt 0.000000 0.000000
vt 0.000000 0.000000
vt 0.000000 0.000000
vt 0.000000 0.000000
vt 0.000000 0.000000
vt 0.000000 0.000000
vt 0.000000 0.000000
vt 0.000000 0.000000
vt 0.000000 0.000000
vt 0.000000 0.000000
vt 0.000000 0.000000
vt 0.000000 0.000000
vt 0.000000 0.000000
vt 0.000000 0.000000
vt 0.000000 0.000000
vt 0.000000 0.000000
vt 0.000000 0.000000
vt 0.000000 0.000000
vt 0.000000 0.000000
vt 0.000000 0.000000
vt 0.000000 0.000000
vt 0.000000 0.000000
vt 0.000000 0.000000
vt 0.000000 0.000000
vt 0.000000 0.000000
vt 0.000000 0.000000
vt 0.000000 0.000000
vt 0.000000 0.000000
vt 0.000000 0.000000
vt 0.000000 0.000000
vt 0.000000 0.000000
vt 0.000000 0.000000
vt 0.000000 0.000000
vt 0.000000 0.000000
vt 0.000000 0.000000
vt 0.000000 0.000000
vt 0.000000 0.000000
vt 0.000000 0.000000
vt 0.000000 0.000000
vt 0.000000 0.000000
vt 0.000000 0.000000
vt 0.000000 0.000000
vt 0.000000 0.000000
vt 0.000000 0.000000
vt 0.000000 0.000000
vt 0.000000 0.000000
vt 0.000000 0.000000
vt 0.000000 0.000000
vt 0.000000 0.000000
vt 0.000000 0.000000
vt 0.000000 0.000000
vt 0.000000 0.000000
vt 0.000000 0.000000
vt 0.000000 0.000000
vt 0.000000 0.000000
vt 0.000000 0.000000
vt 0.000000 0.000000
vt 0.000000 0.000000
vt 0.000000 0.000000
vt 0.000000 0.000000
vt 0.000000 0.000000
vt 0.000000 0.000000
vt 0.000000 0.000000
vt 0.000000 0.000000
vt 0.000000 0.000000
vt 0.000000 0.000000
vt 0.000000 0.000000
vt 0.000000 0.000000
vt 0.000000 0.000000
vt 0.000000 0.000000
vt 0.000000 0.000000
vt 0.000000 0.000000
vt 0.000000 0.000000
vt 0.000000 0.000000
vt 0.000000 0.000000
vt 0.000000 0.000000
vt 0.000000 0.000000
vt 0.000000 0.000000
vt 0.000000 0.000000
vt 0.000000 0.000000
vt 0.000000 0.000000
vt 0.000000 0.000000
vt 0.000000 0.000000
vt 0.000000 0.000000
vt 0.000000 0.000000
vt 0.000000 0.000000
vt 0.000000 0.000000
vt 0.000000 0.000000
vt 0.000000 0.000000
vt 0.000000 0.000000
vt 0.000000 0.000000
vt 0.000000 0.000000
vt 0.000000 0.000000
vt 0.000000 0.000000
vt 0.000000 0.000000
vt 0.000000 0.000000
vt 0.000000 0.000000
vt 0.000000 0.000000
vt 0.000000 0.000000
vt 0.000000 0.000000
vt 0.000000 0.000000
vt 0.000000 0.000000
vt 0.000000 0.000000
vt 0.000000 0.000000
vt 0.000000 0.000000
vt 0.000000 0.000000
vt 0.000000 0.000000
vt 0.000000 0.000000
vt 0.000000 0.000000
vt 0.000000 0.000000
vt 0.000000 0.000000
vt 0.000000 0.000000
vt 0.000000 0.000000
vt 0.000000 0.000000
vt 0.000000 0.000000
vt 0.000000 0.000000
vt 0.000000 0.000000
vt 0.000000 0.000000
vt 0.000000 0.000000
vt 0.000000 0.000000
vt 0.000000 0.000000
vt 0.000000 0.000000
vt 0.000000 0.000000
vt 0.000000 0.000000
vt 0.000000 0.000000
vt 0.000000 0.000000
vt 0.000000 0.000000
vt 0.000000 0.000000
vt 0.000000 0.000000
vt 0.000000 0.000000
vt 0.000000 0.000000
vt 0.000000 0.000000
vt 0.000000 0.000000
vt 0.000000 0.000000
vt 0.000000 0.000000
vt 0.000000 0.000000
vt 0.000000 0.000000
vt 0.000000 0.000000
vt 0.000000 0.000000
vt 0.000000 0.000000
vt 0.000000 0.000000
vt 0.000000 0.000000
vt 0.000000 0.000000
vt 0.000000 0.000000
vt 0.000000 0.000000
vt 0.000000 0.000000
vt 0.000000 0.000000
vt 0.000000 0.000000
vt 0.000000 0.000000
vt 0.000000 0.000000
vt 0.000000 0.000000
vt 0.000000 0.000000
vt 0.000000 0.000000
vt 0.000000 0.000000
vt 0.000000 0.000000
vt 0.000000 0.000000
vt 0.000000 0.000000
vt 0.000000 0.000000
vt 0.000000 0.000000
vt 0.000000 0.000000
vt 0.000000 0.000000
vt 0.000000 0.000000
vt 0.000000 0.000000
vt 0.000000 0.000000
vt 0.000000 0.000000
vt 0.000000 0.000000
vt 0.000000 0.000000
vt 0.000000 0.000000
vt 0.000000 0.000000
vt 0.000000 0.000000
vt 0.000000 0.000000
vt 0.000000 0.000000
vt 0.000000 0.000000
vt 0.000000 0.000000
vt 0.000000 0.000000
vt 0.000000 0.000000
vt 0.000000 0.000000
vt 0.000000 0.000000
vt 0.000000 0.000000
vt 0.000000 0.000000
vt 0.000000 0.000000
vt 0.000000 0.000000
vt 0.000000 0.000000
vt 0.000000 0.000000
vt 0.000000 0.000000
vt 0.000000 0.000000
vt 0.000000 0.000000
vt 0.000000 0.000000
vt 0.000000 0.000000
vt 0.000000 0.000000
vt 0.000000 0.000000
vt 0.000000 0.000000
vt 0.000000 0.000000
vt 0.000000 0.000000
vt 0.000000 0.000000
vt 0.000000 0.000000
vt 0.000000 0.000000
vt 0.000000 0.000000
vt 0.000000 0.000000
vt 0.000000 0.000000
vt 0.000000 0.000000
vt 0.000000 0.000000
vt 0.000000 0.000000
vt 0.000000 0.000000
vt 0.000000 0.000000
vt 0.000000 0.000000
vt 0.000000 0.000000
vt 0.000000 0.000000
vt 0.000000 0.000000
vt 0.000000 0.000000
vt 0.000000 0.000000
vt 0.000000 0.000000
vt 0.000000 0.000000
vt 0.000000 0.000000
vt 0.000000 0.000000
vt 0.000000 0.000000
vt 0.000000 0.000000
vt 0.000000 0.000000
vt 0.000000 0.000000
vt 0.000000 0.000000
vt 0.000000 0.000000
vt 0.000000 0.000000
vt 0.000000 0.000000
vt 0.000000 0.000000
vt 0.000000 0.000000
vt 0.000000 0.000000
vt 0.000000 0.000000
vt 0.000000 0.000000
vt 0.000000 0.000000
vt 0.000000 0.000000
vt 0.000000 0.000000
vt 0.000000 0.000000
vt 0.000000 0.000000
vt 0.000000 0.000000
vt 0.000000 0.000000
vt 0.000000 0.000000
vt 0.000000 0.000000
vt 0.000000 0.000000
vt 0.000000 0.000000
vt 0.000000 0.000000
vt 0.000000 0.000000
vt 0.000000 0.000000
vt 0.000000 0.000000
vt 0.000000 0.000000
vt 0.000000 0.000000
vt 0.000000 0.000000
vt 0.000000 0.000000
vt 0.000000 0.000000
vt 0.000000 0.000000
vt 0.000000 0.000000
vt 0.000000 0.000000
vt 0.000000 0.000000
vt 0.000000 0.000000
vt 0.000000 0.000000
vt 0.000000 0.000000
vt 0.000000 0.000000
vt 0.000000 0.000000
vt 0.000000 0.000000
vt 0.000000 0.000000
vt 0.000000 0.000000
vt 0.000000 0.000000
vt 0.000000 0.000000
vt 0.000000 0.000000
vt 0.000000 0.000000
vt 0.000000 0.000000
vt 0.000000 0.000000
vt 0.000000 0.000000
vt 0.000000 0.000000
vt 0.000000 0.000000
vt 0.000000 0.000000
vt 0.000000 0.000000
vt 0.000000 0.000000
vt 0.000000 0.000000
vt 0.000000 0.000000
vt 0.000000 0.000000
vt 0.000000 0.000000
vt 0.000000 0.000000
vt 0.000000 0.000000
vt 0.000000 0.000000
vt 0.000000 0.000000
vt 0.000000 0.000000
vt 0.000000 0.000000
vt 0.000000 0.000000
vt 0.000000 0.000000
vt 0.000000 0.000000
vt 0.000000 0.000000
vt 0.000000 0.000000
vt 0.000000 0.000000
vt 0.000000 0.000000
vt 0.000000 0.000000
vt 0.000000 0.000000
vt 0.000000 0.000000
vt 0.000000 0.000000
vt 0.000000 0.000000
vt 0.000000 0.000000
vt 0.000000 0.000000
vt 0.000000 0.000000
vt 0.000000 0.000000
vt 0.000000 0.000000
vt 0.000000 0.000000
vt 0.000000 0.000000
vt 0.000000 0.000000
vt 0.000000 0.000000
vt 0.000000 0.000000
vt 0.000000 0.000000
vt 0.000000 0.000000
vt 0.000000 0.000000
vt 0.000000 0.000000
vt 0.000000 0.000000
vt 0.000000 0.000000
vt 0.000000 0.000000
vt 0.000000 0.000000
vt 0.000000 0.000000
vt 0.000000 0.000000
vt 0.000000 0.000000
vt 0.000000 0.000000
vt 0.000000 0.000000
vt 0.000000 0.000000
vt 0.000000 0.000000
vt 0.000000 0.000000
vt 0.000000 0.000000
vt 0.000000 0.000000
vt 0.000000 0.000000
vt 0.000000 0.000000
vt 0.000000 0.000000
vt 0.000000 0.000000
vt 0.000000 0.000000
vt 0.000000 0.000000
vt 0.000000 0.000000
vt 0.000000 0.000000
vt 0.000000 0.000000
vt 0.000000 0.000000
vt 0.000000 0.000000
vt 0.000000 0.000000
vt 0.000000 0.000000
vt 0.000000 0.000000
vt 0.000000 0.000000
vt 0.000000 0.000000
vt 0.000000 0.000000
vt 0.000000 0.000000
vt 0.000000 0.000000
vt 0.000000 0.000000
vt 0.000000 0.000000
vt 0.000000 0.000000
vt 0.000000 0.000000
vt 0.000000 0.000000
vt 0.000000 0.000000
vt 0.000000 0.000000
vt 0.000000 0.000000
vt 0.000000 0.000000
vt 0.000000 0.000000
vt 0.000000 0.000000
vt 0.000000 0.000000
vt 0.000000 0.000000
vt 0.000000 0.000000
vt 0.000000 0.000000
vt 0.000000 0.000000
vt 0.000000 0.000000
vt 0.000000 0.000000
vt 0.000000 0.000000
vt 0.000000 0.000000
vt 0.000000 0.000000
vt 0.000000 0.000000
vt 0.000000 0.000000
vt 0.000000 0.000000
vt 0.000000 0.000000
vt 0.000000 0.000000
vt 0.000000 0.000000
vt 0.000000 0.000000
vt 0.000000 0.000000
vt 0.000000 0.000000
vt 0.000000 0.000000
vt 0.000000 0.000000
vt 0.000000 0.000000
vt 0.000000 0.000000
vt 0.000000 0.000000
vt 0.000000 0.000000
vt 0.000000 0.000000
vt 0.000000 0.000000
vt 0.000000 0.000000
vt 0.000000 0.000000
vt 0.000000 0.000000
vt 0.000000 0.000000
vt 0.000000 0.000000
vt 0.000000 0.000000
vt 0.000000 0.000000
vt 0.000000 0.000000
vt 0.000000 0.000000
vt 0.000000 0.000000
vt 0.000000 0.000000
vt 0.000000 0.000000
vt 0.000000 0.000000
vt 0.000000 0.000000
vt 0.000000 0.000000
vt 0.000000 0.000000
vt 0.000000 0.000000
vt 0.000000 0.000000
vt 0.000000 0.000000
vt 0.000000 0.000000
vt 0.000000 0.000000
vt 0.000000 0.000000
vt 0.000000 0.000000
vt 0.000000 0.000000
vt 0.000000 0.000000
vt 0.000000 0.000000
vt 0.000000 0.000000
vt 0.000000 0.000000
vt 0.000000 0.000000
vt 0.000000 0.000000
vt 0.000000 0.000000
vt 0.000000 0.000000
vt 0.000000 0.000000
vt 0.000000 0.000000
vt 0.000000 0.000000
vt 0.000000 0.000000
vt 0.000000 0.000000
vt 0.000000 0.000000
vt 0.000000 0.000000
vt 0.000000 0.000000
vt 0.000000 0.000000
vt 0.000000 0.000000
vt 0.000000 0.000000
vt 0.000000 0.000000
vt 0.000000 0.000000
vt 0.000000 0.000000
vt 0.000000 0.000000
vt 0.000000 0.000000
vt 0.000000 0.000000
vt 0.000000 0.000000
vt 0.000000 0.000000
vt 0.000000 0.000000
vt 0.000000 0.000000
vt 0.000000 0.000000
vt 0.000000 0.000000
vt 0.000000 0.000000
vt 0.000000 0.000000
vt 0.000000 0.000000
vt 0.000000 0.000000
vt 0.000000 0.000000
vt 0.000000 0.000000
vt 0.000000 0.000000
vt 0.000000 0.000000
vt 0.000000 0.000000
vt 0.000000 0.000000
vt 0.000000 0.000000
vt 0.000000 0.000000
vt 0.000000 0.000000
vt 0.000000 0.000000
vt 0.000000 0.000000
vt 0.000000 0.000000
vt 0.000000 0.000000
vt 0.000000 0.000000
vt 0.000000 0.000000
vt 0.000000 0.000000
vt 0.000000 0.000000
vt 0.000000 0.000000
vt 0.000000 0.000000
vt 0.000000 0.000000
vt 0.000000 0.000000
vt 0.000000 0.000000
vt 0.000000 0.000000
vt 0.000000 0.000000
vt 0.000000 0.000000
vt 0.000000 0.000000
vt 0.000000 0.000000
vt 0.000000 0.000000
vt 0.000000 0.000000
vt 0.000000 0.000000
vt 0.000000 0.000000
vt 0.000000 0.000000
vt 0.000000 0.000000
vt 0.000000 0.000000
vt 0.000000 0.000000
vt 0.000000 0.000000
vt 0.000000 0.000000
vt 0.000000 0.000000
vt 0.000000 0.000000
vt 0.000000 0.000000
vt 0.000000 0.000000
vt 0.000000 0.000000
vt 0.000000 0.000000
vt 0.000000 0.000000
vt 0.000000 0.000000
vt 0.000000 0.000000
vt 0.000000 0.000000
vt 0.000000 0.000000
vt 0.000000 0.000000
vt 0.000000 0.000000
vt 0.000000 0.000000
vt 0.000000 0.000000
vt 0.000000 0.000000
vt 0.000000 0.000000
vt 0.000000 0.000000
vt 0.000000 0.000000
vt 0.000000 0.000000
vt 0.000000 0.000000
vt 0.000000 0.000000
vt 0.000000 0.000000
vt 0.000000 0.000000
vt 0.000000 0.000000
vt 0.000000 0.000000
vt 0.000000 0.000000
vt 0.000000 0.000000
vt 0.000000 0.000000
vt 0.000000 0.000000
vt 0.000000 0.000000
vt 0.000000 0.000000
vt 0.000000 0.000000
vt 0.000000 0.000000
vt 0.000000 0.000000
vt 0.000000 0.000000
vt 0.000000 0.000000
vt 0.000000 0.000000
vt 0.000000 0.000000
vt 0.000000 0.000000
vt 0.000000 0.000000
vt 0.000000 0.000000
vt 0.000000 0.000000
vt 0.000000 0.000000
vt 0.000000 0.000000
vt 0.000000 0.000000
vt 0.000000 0.000000
vt 0.000000 0.000000
vt 0.000000 0.000000
vt 0.000000 0.000000
vn 0.894427 -0.447214 0.000000
vn 0.894427 -0.447214 0.000000
vn 0.973249 -0.229753 0.000000
vn 0.894427 -0.447214 0.000000
vn 0.973249 -0.229753 0.000000
vn 0.973249 -0.229753 0.000000
vn 0.601316 -0.526152 0.601317
vn 0.601316 -0.526152 0.601317
vn 0.601316 -0.526152 0.601317
vn 0.601316 -0.526152 0.601317
vn 0.601316 -0.526152 0.601317
vn 0.601316 -0.526152 0.601317
vn 0.000000 1.000000 0.000000
vn 0.000000 1.000000 0.000000
vn 0.000000 1.000000 0.000000
vn 0.000000 1.000000 0.000000
vn 0.000000 1.000000 0.000000
vn 0.000000 1.000000 0.000000
vn -0.371391 0.557086 -0.742781
vn -0.189567 0.645274 -0.740058
vn -0.189567 0.645274 -0.740058
vn -0.371391 0.557086 -0.742781
vn -0.189567 0.645274 -0.740058
vn -0.371391 0.557086 -0.742781
vn -0.189567 0.645274 -0.740058
vn 0.000000 0.707107 -0.707107
vn 0.000000 0.707107 -0.707107
vn -0.189567 0.645274 -0.740058
vn 0.000000 0.707107 -0.707107
vn -0.189567 0.645274 -0.740058
vn 0.000000 1.000000 0.000000
vn 0.000000 1.000000 0.000000
vn 0.000000 1.000000 0.000000
vn 0.000000 1.000000 0.000000
vn 0.000000 1.000000 0.000000
vn 0.000000 1.000000 0.000000
vn 0.000000 1.000000 0.000000
vn 0.000000 1.000000 0.000000
vn 0.000000 1.000000 0.000000
vn 0.000000 1.000000 0.000000
vn 0.000000 1.000000 0.000000
vn 0.000000 1.000000 0.000000
vn 0.444444 0.777778 -0.444444
vn 0.444444 0.777778 -0.444444
vn 0.444444 0.777778 -0.444444
vn 0.444444 0.777778 -0.444444
vn 0.444444 0.777778 -0.444444
vn 0.444444 0.777778 -0.444444
vn 0.707107 0.707107 0.000000
vn 0.707107 0.707107 0.000000
vn 0.707107 0.707107 0.000000
vn 0.707107 0.707107 0.000000
vn 0.707107 0.707107 0.000000
vn 0.707107 0.707107 0.000000
vn 0.000000 1.000000 0.000000
vn 0.000000 1.000000 0.000000
vn 0.000000 1.000000 0.000000
vn 0.000000 1.000000 0.000000
vn 0.000000 1.000000 0.000000
vn 0.000000 1.000000 0.000000
vn 0.000000 1.000000 0.000000
vn 0.000000 1.000000 0.000000
vn 0.000000 1.000000 0.000000
vn 0.000000 1.000000 0.000000
vn 0.000000 1.000000 0.000000
vn 0.000000 1.000000 0.000000
vn 0.000000 -0.447214 0.894427
vn -0.217468 -0.392475 0.893684
vn -0.228232 -0.200463 0.952746
vn 0.000000 -0.447214 0.894427
vn -0.228232 -0.200463 0.952746
vn 0.000000 -0.229753 0.973249
vn -0.217468 -0.392475 0.893684
vn -0.423999 -0.317999 0.847998
vn -0.441372 -0.161104 0.882744
vn -0.217468 -0.392475 0.893684
vn -0.441372 -0.161104 0.882744
vn -0.228232 -0.200463 0.952746
vn 0.000000 1.000000 0.000000
vn 0.000000 1.000000 0.000000
vn 0.000000 1.000000 0.000000
vn 0.000000 1.000000 0.000000
vn 0.000000 1.000000 0.000000
vn 0.000000 1.000000 0.000000
vn -0.678915 0.279553 0.678915
vn -0.678915 0.279553 0.678915
vn -0.700023 0.141191 0.700023
vn -0.678915 0.279553 0.678915
vn -0.700023 0.141191 0.700023
vn -0.700023 0.141191 0.700023
vn -0.678915 0.279553 -0.678915
vn -0.678915 0.279553 -0.678915
vn -0.700023 0.141191 -0.700023
vn -0.678915 0.279553 -0.678915
vn -0.700023 0.141191 -0.700023
vn -0.700023 0.141191 -0.700023
vn 0.000000 0.229039 -0.973417
vn 0.000000 0.229039 -0.973417
vn 0.000000 0.115288 -0.993332
vn 0.000000 0.229039 -0.973417
vn 0.000000 0.115288 -0.993332
vn 0.153601 0.078666 -0.984997
vn 0.000000 0.229039 -0.973417
vn 0.153601 0.078666 -0.984997
vn 0.000000 0.229039 -0.973417
vn 0.000000 0.229039 0.973417
vn 0.153601 0.078666 0.984997
vn 0.000000 0.115288 0.993332
vn 0.000000 0.229039 0.973417
vn 0.000000 0.115288 0.993332
vn 0.000000 0.229039 0.973417
vn 0.000000 0.229039 0.973417
vn 0.000000 0.229039 0.973417
vn 0.000000 0.229039 0.973417
vn -0.973417 0.229039 -0.000000
vn -0.973417 0.229039 -0.000000
vn -0.973417 0.229039 -0.000000
vn -0.973417 0.229039 -0.000000
vn -0.973417 0.229039 -0.000000
vn -0.993332 0.115288 -0.000000
vn -0.973417 0.229039 -0.000000
vn -0.993332 0.115288 -0.000000
vn -0.993332 0.115288 -0.000000
vn 0.444444 0.777778 0.444445
vn 0.444444 0.777778 0.444445
vn 0.444444 0.777778 0.444445
vn 0.444444 0.777778 0.444445
vn 0.444444 0.777778 0.444445
vn 0.444444 0.777778 0.444445
vn 0.000000 0.707107 0.707107
vn -0.189567 0.645274 0.740058
vn -0.189567 0.645274 0.740058
vn 0.000000 0.707107 0.707107
vn -0.189567 0.645274 0.740058
vn 0.000000 0.707107 0.707107
vn 1.000000 0.000000 0.000000
vn 0.973249 -0.229753 0.000000
vn 0.973249 -0.229753 0.000000
vn 1.000000 0.000000 0.000000
vn 0.973249 -0.229753 0.000000
vn 1.000000 0.000000 0.000000
vn 0.153601 0.078666 0.984997
vn 0.447214 0.000000 0.894427
vn 0.441372 -0.161104 0.882744
vn 0.153601 0.078666 0.984997
vn 0.441372 -0.161104 0.882744
vn 0.228232 -0.200463 0.952746
vn 0.000000 0.115288 0.993332
vn 0.153601 0.078666 0.984997
vn 0.228232 -0.200463 0.952746
vn 0.000000 0.115288 0.993332
vn 0.228232 -0.200463 0.952746
vn 0.000000 -0.229753 0.973249
vn -0.700023 0.141191 0.700023
vn -0.700023 0.141191 0.700023
vn -0.707107 0.000000 0.707107
vn -0.700023 0.141191 0.700023
vn -0.707107 0.000000 0.707107
vn -0.707107 0.000000 0.707107
vn -0.993332 0.115288 -0.000000
vn -0.993332 0.115288 -0.000000
vn -0.973249 -0.229753 -0.000000
vn -0.993332 0.115288 -0.000000
vn -0.973249 -0.229753 -0.000000
vn -0.973249 -0.229753 -0.000000
vn -0.700023 0.141191 -0.700023
vn -0.700023 0.141191 -0.700023
vn -0.707107 0.000000 -0.707107
vn -0.700023 0.141191 -0.700023
vn -0.707107 0.000000 -0.707107
vn -0.707107 0.000000 -0.707107
vn 0.153601 0.078666 -0.984997
vn 0.000000 0.115288 -0.993332
vn 0.000000 -0.229753 -0.973249
vn 0.153601 0.078666 -0.984997
vn 0.000000 -0.229753 -0.973249
vn 0.228232 -0.200463 -0.952746
vn 0.447214 0.000000 -0.894427
vn 0.153601 0.078666 -0.984997
vn 0.228232 -0.200463 -0.952746
vn 0.447214 0.000000 -0.894427
vn 0.228232 -0.200463 -0.952746
vn 0.441372 -0.161104 -0.882744
vn 0.973249 -0.229753 0.000000
vn 0.894427 -0.447214 0.000000
vn 0.894427 -0.447214 0.000000
vn 0.973249 -0.229753 0.000000
vn 0.894427 -0.447214 0.000000
vn 0.973249 -0.229753 0.000000
vn 0.228232 -0.200463 0.952746
vn 0.441372 -0.161104 0.882744
vn 0.423999 -0.317999 0.847998
vn 0.228232 -0.200463 0.952746
vn 0.423999 -0.317999 0.847998
vn 0.217468 -0.392475 0.893684
vn 0.000000 -0.229753 0.973249
vn 0.228232 -0.200463 0.952746
vn 0.217468 -0.392475 0.893684
vn 0.000000 -0.229753 0.973249
vn 0.217468 -0.392475 0.893684
vn 0.000000 -0.447214 0.894427
vn -0.601317 -0.526152 0.601317
vn -0.601317 -0.526152 0.601317
vn -0.601317 -0.526152 0.601317
vn -0.601317 -0.526152 0.601317
vn -0.601317 -0.526152 0.601317
vn -0.601317 -0.526152 0.601317
vn -0.973249 -0.229753 -0.000000
vn -0.973249 -0.229753 -0.000000
vn -0.894427 -0.447214 -0.000000
vn -0.973249 -0.229753 -0.000000
vn -0.894427 -0.447214 -0.000000
vn -0.894427 -0.447214 -0.000000
vn -0.601317 -0.526152 -0.601317
vn -0.601317 -0.526152 -0.601317
vn -0.601317 -0.526152 -0.601317
vn -0.601317 -0.526152 -0.601317
vn -0.601317 -0.526152 -0.601317
vn -0.601317 -0.526152 -0.601317
vn 0.228232 -0.200463 -0.952746
vn 0.000000 -0.229753 -0.973249
vn 0.000000 -0.447214 -0.894427
vn 0.228232 -0.200463 -0.952746
vn 0.000000 -0.447214 -0.894427
vn 0.217468 -0.392475 -0.893684
vn 0.441372 -0.161104 -0.882744
vn 0.228232 -0.200463 -0.952746
vn 0.217468 -0.392475 -0.893684
vn 0.441372 -0.161104 -0.882744
vn 0.217468 -0.392475 -0.893684
vn 0.423999 -0.317999 -0.847998
vn 0.000000 1.000000 0.000000
vn 0.000000 1.000000 0.000000
vn 0.000000 1.000000 0.000000
vn 0.000000 1.000000 0.000000
vn 0.000000 1.000000 0.000000
vn 0.000000 1.000000 0.000000
vn 0.000000 1.000000 0.000000
vn 0.000000 1.000000 0.000000
vn 0.000000 1.000000 0.000000
vn 0.000000 1.000000 0.000000
vn 0.000000 1.000000 0.000000
vn 0.000000 1.000000 0.000000
vn 0.000000 1.000000 0.000000
vn 0.000000 1.000000 0.000000
vn 0.000000 1.000000 0.000000
vn 0.000000 1.000000 0.000000
vn 0.000000 1.000000 0.000000
vn 0.000000 1.000000 0.000000
vn 0.707107 0.707107 0.000000
vn 0.707107 0.707107 0.000000
vn 0.707107 0.707107 0.000000
vn 0.707107 0.707107 0.000000
vn 0.707107 0.707107 0.000000
vn 0.707107 0.707107 0.000000
vn 0.189567 0.645274 0.740058
vn 0.371391 0.557086 0.742781
vn 0.371391 0.557086 0.742781
vn 0.189567 0.645274 0.740058
vn 0.371391 0.557086 0.742781
vn 0.189567 0.645274 0.740058
vn 0.000000 0.707107 0.707107
vn 0.189567 0.645274 0.740058
vn 0.189567 0.645274 0.740058
vn 0.000000 0.707107 0.707107
vn 0.189567 0.645274 0.740058
vn 0.000000 0.707107 0.707107
vn -0.444444 0.777778 0.444444
vn -0.444444 0.777778 0.444444
vn -0.444444 0.777778 0.444444
vn -0.444444 0.777778 0.444444
vn -0.444444 0.777778 0.444444
vn -0.444444 0.777778 0.444444
vn -0.707107 0.707107 -0.000000
vn -0.707107 0.707107 -0.000000
vn -0.707107 0.707107 -0.000000
vn -0.707107 0.707107 -0.000000
vn -0.707107 0.707107 -0.000000
vn -0.707107 0.707107 -0.000000
vn -0.444444 0.777778 -0.444444
vn -0.444444 0.777778 -0.444444
vn -0.444444 0.777778 -0.444444
vn -0.444444 0.777778 -0.444444
vn -0.444444 0.777778 -0.444444
vn -0.444444 0.777778 -0.444444
vn 0.189567 0.645274 -0.740058
vn 0.000000 0.707107 -0.707107
vn 0.000000 0.707107 -0.707107
vn 0.189567 0.645274 -0.740058
vn 0.000000 0.707107 -0.707107
vn 0.189567 0.645274 -0.740058
vn 0.371391 0.557086 -0.742781
vn 0.189567 0.645274 -0.740058
vn 0.189567 0.645274 -0.740058
vn 0.371391 0.557086 -0.742781
vn 0.189567 0.645274 -0.740058
vn 0.371391 0.557086 -0.742781
vn -0.973249 -0.229753 0.000000
vn -0.894427 -0.447214 0.000000
vn -0.894427 -0.447214 0.000000
vn -0.973249 -0.229753 0.000000
vn -0.894427 -0.447214 0.000000
vn -0.973249 -0.229753 0.000000
vn -0.441372 -0.161104 -0.882744
vn -0.228231 -0.200463 -0.952746
vn -0.153601 0.078666 -0.984997
vn -0.441372 -0.161104 -0.882744
vn -0.153601 0.078666 -0.984997
vn -0.447213 0.000000 -0.894427
vn 0.000000 1.000000 0.000000
vn 0.000000 1.000000 0.000000
vn 0.000000 1.000000 0.000000
vn 0.000000 1.000000 0.000000
vn 0.000000 1.000000 0.000000
vn 0.000000 1.000000 0.000000
vn -0.189567 0.645274 0.740058
vn -0.371391 0.557086 0.742781
vn -0.371391 0.557086 0.742781
vn -0.189567 0.645274 0.740058
vn -0.371391 0.557086 0.742781
vn -0.189567 0.645274 0.740058
vn -0.707107 0.707107 0.000000
vn -0.707107 0.707107 0.000000
vn -0.707107 0.707107 0.000000
vn -0.707107 0.707107 0.000000
vn -0.707107 0.707107 0.000000
vn -0.707107 0.707107 0.000000
vn 0.000000 1.000000 0.000000
vn 0.000000 1.000000 0.000000
vn 0.000000 1.000000 0.000000
vn 0.000000 1.000000 0.000000
vn 0.000000 1.000000 0.000000
vn 0.000000 1.000000 0.000000
vn 0.000000 1.000000 0.000000
vn 0.000000 1.000000 0.000000
vn 0.000000 1.000000 0.000000
vn 0.000000 1.000000 0.000000
vn 0.000000 1.000000 0.000000
vn 0.000000 1.000000 0.000000
vn 0.000000 1.000000 0.000000
vn 0.000000 1.000000 0.000000
vn 0.000000 1.000000 0.000000
vn 0.000000 1.000000 0.000000
vn 0.000000 1.000000 0.000000
vn 0.000000 1.000000 0.000000
vn 0.000000 1.000000 0.000000
vn 0.000000 1.000000 0.000000
vn 0.000000 1.000000 0.000000
vn 0.000000 1.000000 0.000000
vn 0.000000 1.000000 0.000000
vn 0.000000 1.000000 0.000000
vn 0.000000 1.000000 0.000000
vn 0.000000 1.000000 0.000000
vn 0.000000 1.000000 0.000000
vn 0.000000 1.000000 0.000000
vn 0.000000 1.000000 0.000000
vn 0.000000 1.000000 0.000000
vn -0.423999 -0.317999 -0.847998
vn -0.217468 -0.392475 -0.893684
vn -0.228231 -0.200463 -0.952746
vn -0.423999 -0.317999 -0.847998
vn -0.228231 -0.200463 -0.952746
vn -0.441372 -0.161104 -0.882744
vn 0.000000 1.000000 0.000000
vn 0.000000 1.000000 0.000000
vn 0.000000 1.000000 0.000000
vn 0.000000 1.000000 0.000000
vn 0.000000 1.000000 0.000000
vn 0.000000 1.000000 0.000000
vn 0.000000 1.000000 0.000000
vn 0.000000 1.000000 0.000000
vn 0.000000 1.000000 0.000000
vn 0.000000 1.000000 0.000000
vn 0.000000 1.000000 0.000000
vn 0.000000 1.000000 0.000000
vn -0.228231 -0.200463 -0.952746
vn 0.000000 -0.229753 -0.973249
vn 0.000000 0.115288 -0.993332
vn -0.228231 -0.200463 -0.952746
vn 0.000000 0.115288 -0.993332
vn -0.153601 0.078666 -0.984997
vn 0.707107 0.000000 -0.707107
vn 0.707107 0.000000 -0.707107
vn 0.700023 0.141191 -0.700023
vn 0.707107 0.000000 -0.707107
vn 0.700023 0.141191 -0.700023
vn 0.700023 0.141191 -0.700023
vn 0.000000 1.000000 0.000000
vn 0.000000 1.000000 0.000000
vn 0.000000 1.000000 0.000000
vn 0.000000 1.000000 0.000000
vn 0.000000 1.000000 0.000000
vn 0.000000 1.000000 0.000000
vn 0.000000 1.000000 0.000000
vn 0.000000 1.000000 0.000000
vn 0.000000 1.000000 0.000000
vn 0.000000 1.000000 0.000000
vn 0.000000 1.000000 0.000000
vn 0.000000 1.000000 0.000000
vn 0.700023 0.141191 0.700023
vn 0.700023 0.141191 0.700023
vn 0.678915 0.279553 0.678915
vn 0.700023 0.141191 0.700023
vn 0.678915 0.279553 0.678915
vn 0.678915 0.279553 0.678915
vn 0.700023 0.141191 -0.700023
vn 0.700023 0.141191 -0.700023
vn 0.678915 0.279553 -0.678915
vn 0.700023 0.141191 -0.700023
vn 0.678915 0.279553 -0.678915
vn 0.678915 0.279553 -0.678915
vn -0.217468 -0.392475 -0.893684
vn 0.000000 -0.447214 -0.894427
vn 0.000000 -0.229753 -0.973249
vn -0.217468 -0.392475 -0.893684
vn 0.000000 -0.229753 -0.973249
vn -0.228231 -0.200463 -0.952746
vn 0.000000 0.229039 -0.973417
vn -0.153601 0.078666 -0.984997
vn 0.000000 0.115288 -0.993332
vn 0.000000 0.229039 -0.973417
vn 0.000000 0.115288 -0.993332
vn 0.000000 0.229039 -0.973417
vn 0.000000 0.229039 -0.973417
vn 0.000000 0.229039 -0.973417
vn 0.000000 0.229039 -0.973417
vn 0.000000 0.229039 0.973417
vn 0.000000 0.229039 0.973417
vn 0.000000 0.115288 0.993332
vn 0.000000 0.229039 0.973417
vn 0.000000 0.115288 0.993332
vn -0.153601 0.078666 0.984997
vn 0.000000 0.229039 0.973417
vn -0.153601 0.078666 0.984997
vn 0.000000 0.229039 0.973417
vn 0.993332 0.115288 0.000000
vn 0.993332 0.115288 0.000000
vn 0.973417 0.229039 0.000000
vn 0.993332 0.115288 0.000000
vn 0.973417 0.229039 0.000000
vn 0.973417 0.229039 0.000000
vn 0.993332 0.115288 0.000000
vn 0.973417 0.229039 0.000000
vn 0.973417 0.229039 0.000000
vn 0.601317 -0.526152 -0.601317
vn 0.601317 -0.526152 -0.601317
vn 0.601317 -0.526152 -0.601317
vn 0.601317 -0.526152 -0.601317
vn 0.601317 -0.526152 -0.601317
vn 0.601317 -0.526152 -0.601317
vn -1.000000 0.000000 0.000000
vn -0.973249 -0.229753 0.000000
vn -0.973249 -0.229753 0.000000
vn -1.000000 0.000000 0.000000
vn -0.973249 -0.229753 0.000000
vn -1.000000 0.000000 0.000000
vn -0.228232 -0.200463 0.952746
vn -0.441372 -0.161104 0.882744
vn -0.447213 0.000000 0.894427
vn -0.228232 -0.200463 0.952746
vn -0.447213 0.000000 0.894427
vn -0.153601 0.078666 0.984997
vn 0.000000 -0.229753 0.973249
vn -0.228232 -0.200463 0.952746
vn -0.153601 0.078666 0.984997
vn 0.000000 -0.229753 0.973249
vn -0.153601 0.078666 0.984997
vn 0.000000 0.115288 0.993332
vn 0.707107 0.000000 0.707107
vn 0.707107 0.000000 0.707107
vn 0.700023 0.141191 0.700023
vn 0.707107 0.000000 0.707107
vn 0.700023 0.141191 0.700023
vn 0.700023 0.141191 0.700023
vn 0.973249 -0.229753 0.000000
vn 0.973249 -0.229753 0.000000
vn 0.993332 0.115288 0.000000
vn 0.973249 -0.229753 0.000000
vn 0.993332 0.115288 0.000000
vn 0.993332 0.115288 0.000000
vn 0.000000 1.000000 0.000000
vn 0.000000 1.000000 0.000000
vn 0.000000 1.000000 0.000000
vn 0.000000 1.000000 0.000000
vn 0.000000 1.000000 0.000000
vn 0.000000 1.000000 0.000000
vn 0.000000 1.000000 0.000000
vn 0.000000 1.000000 0.000000
vn 0.000000 1.000000 0.000000
vn 0.000000 1.000000 0.000000
vn 0.000000 1.000000 0.000000
vn 0.000000 1.000000 0.000000
vn -0.742781 0.557086 0.371391
vn -0.740058 0.645274 0.189567
vn -0.740058 0.645274 0.189567
vn -0.742781 0.557086 0.371391
vn -0.740058 0.645274 0.189567
vn -0.742781 0.557086 0.371391
vn -0.740058 0.645274 0.189567
vn -0.707107 0.707107 0.000000
vn -0.707107 0.707107 0.000000
vn -0.740058 0.645274 0.189567
vn -0.707107 0.707107 0.000000
vn -0.740058 0.645274 0.189567
vn 0.000000 1.000000 0.000000
vn 0.000000 1.000000 0.000000
vn 0.000000 1.000000 0.000000
vn 0.000000 1.000000 0.000000
vn 0.000000 1.000000 0.000000
vn 0.000000 1.000000 0.000000
vn 0.000000 1.000000 0.000000
vn 0.000000 1.000000 0.000000
vn 0.000000 1.000000 0.000000
vn 0.000000 1.000000 0.000000
vn 0.000000 1.000000 0.000000
vn 0.000000 1.000000 0.000000
vn -0.444445 0.777778 -0.444444
vn -0.444445 0.777778 -0.444444
vn -0.444445 0.777778 -0.444444
vn -0.444445 0.777778 -0.444444
vn -0.444445 0.777778 -0.444444
vn -0.444445 0.777778 -0.444444
vn 0.000000 0.707107 -0.707107
vn 0.000000 0.707107 -0.707107
vn 0.000000 0.707107 -0.707107
vn 0.000000 0.707107 -0.707107
vn 0.000000 0.707107 -0.707107
vn 0.000000 0.707107 -0.707107
vn 0.000000 1.000000 0.000000
vn 0.000000 1.000000 0.000000
vn 0.000000 1.000000 0.000000
vn 0.000000 1.000000 0.000000
vn 0.000000 1.000000 0.000000
vn 0.000000 1.000000 0.000000
vn 0.000000 1.000000 0.000000
vn 0.000000 1.000000 0.000000
vn 0.000000 1.000000 0.000000
vn 0.000000 1.000000 0.000000
vn 0.000000 1.000000 0.000000
vn 0.000000 1.000000 0.000000
vn 0.601317 -0.526152 -0.601316
vn 0.601317 -0.526152 -0.601316
vn 0.601317 -0.526152 -0.601316
vn 0.601317 -0.526152 -0.601316
vn 0.601317 -0.526152 -0.601316
vn 0.601317 -0.526152 -0.601316
vn 0.000000 1.000000 0.000000
vn 0.000000 1.000000 0.000000
vn 0.000000 1.000000 0.000000
vn 0.000000 1.000000 0.000000
vn 0.000000 1.000000 0.000000
vn 0.000000 1.000000 0.000000
vn 0.678915 0.279553 0.678915
vn 0.678915 0.279553 0.678915
vn 0.700023 0.141191 0.700023
vn 0.678915 0.279553 0.678915
vn 0.700023 0.141191 0.700023
vn 0.700023 0.141191 0.700023
vn -0.678915 0.279553 0.678915
vn -0.678915 0.279553 0.678915
vn -0.700023 0.141191 0.700023
vn -0.678915 0.279553 0.678915
vn -0.700023 0.141191 0.700023
vn -0.700023 0.141191 0.700023
vn -0.973417 0.229039 0.000000
vn -0.973417 0.229039 0.000000
vn -0.993332 0.115288 0.000000
vn -0.973417 0.229039 0.000000
vn -0.993332 0.115288 0.000000
vn -0.984997 0.078666 -0.153601
vn -0.973417 0.229039 0.000000
vn -0.984997 0.078666 -0.153601
vn -0.973417 0.229039 0.000000
vn 0.973417 0.229039 0.000000
vn 0.984997 0.078666 -0.153601
vn 0.993332 0.115288 0.000000
vn 0.973417 0.229039 0.000000
vn 0.993332 0.115288 0.000000
vn 0.973417 0.229039 0.000000
vn 0.973417 0.229039 0.000000
vn 0.973417 0.229039 0.000000
vn 0.973417 0.229039 0.000000
vn 0.000000 0.229039 0.973417
vn 0.000000 0.229039 0.973417
vn 0.000000 0.229039 0.973417
vn 0.000000 0.229039 0.973417
vn 0.000000 0.229039 0.973417
vn 0.000000 0.115288 0.993332
vn 0.000000 0.229039 0.973417
vn 0.000000 0.115288 0.993332
vn 0.000000 0.115288 0.993332
vn 0.444445 0.777778 -0.444444
vn 0.444445 0.777778 -0.444444
vn 0.444445 0.777778 -0.444444
vn 0.444445 0.777778 -0.444444
vn 0.444445 0.777778 -0.444444
vn 0.444445 0.777778 -0.444444
vn 0.707107 0.707107 0.000000
vn 0.740058 0.645275 0.189567
vn 0.740058 0.645275 0.189567
vn 0.707107 0.707107 0.000000
vn 0.740058 0.645275 0.189567
vn 0.707107 0.707107 0.000000
vn 0.000000 0.000000 -1.000000
vn 0.000000 -0.229753 -0.973249
vn 0.000000 -0.229753 -0.973249
vn 0.000000 0.000000 -1.000000
vn 0.000000 -0.229753 -0.973249
vn 0.000000 0.000000 -1.000000
vn 0.984997 0.078666 -0.153601
vn 0.894427 0.000000 -0.447214
vn 0.882744 -0.161104 -0.441372
vn 0.984997 0.078666 -0.153601
vn 0.882744 -0.161104 -0.441372
vn 0.952746 -0.200463 -0.228232
vn 0.993332 0.115288 0.000000
vn 0.984997 0.078666 -0.153601
vn 0.952746 -0.200463 -0.228232
vn 0.993332 0.115288 0.000000
vn 0.952746 -0.200463 -0.228232
vn 0.973249 -0.229753 0.000000
vn 0.700023 0.141191 0.700023
vn 0.700023 0.141191 0.700023
vn 0.707107 0.000000 0.707107
vn 0.700023 0.141191 0.700023
vn 0.707107 0.000000 0.707107
vn 0.707107 0.000000 0.707107
vn 0.000000 0.115288 0.993332
vn 0.000000 0.115288 0.993332
vn 0.000000 -0.229753 0.973249
vn 0.000000 0.115288 0.993332
vn 0.000000 -0.229753 0.973249
vn 0.000000 -0.229753 0.973249
vn -0.700023 0.141191 0.700023
vn -0.700023 0.141191 0.700023
vn -0.707107 0.000000 0.707107
vn -0.700023 0.141191 0.700023
vn -0.707107 0.000000 0.707107
vn -0.707107 0.000000 0.707107
vn -0.984997 0.078666 -0.153601
vn -0.993332 0.115288 0.000000
vn -0.973249 -0.229753 0.000000
vn -0.984997 0.078666 -0.153601
vn -0.973249 -0.229753 0.000000
vn -0.952746 -0.200463 -0.228232
vn -0.894427 0.000000 -0.447214
vn -0.984997 0.078666 -0.153601
vn -0.952746 -0.200463 -0.228232
vn -0.894427 0.000000 -0.447214
vn -0.952746 -0.200463 -0.228232
vn -0.882744 -0.161104 -0.441372
vn 0.000000 -0.229753 -0.973249
vn 0.000000 -0.447214 -0.894427
vn 0.000000 -0.447214 -0.894427
vn 0.000000 -0.229753 -0.973249
vn 0.000000 -0.447214 -0.894427
vn 0.000000 -0.229753 -0.973249
vn 0.952746 -0.200463 -0.228232
vn 0.882744 -0.161104 -0.441372
vn 0.847998 -0.317999 -0.423999
vn 0.952746 -0.200463 -0.228232
vn 0.847998 -0.317999 -0.423999
vn 0.893684 -0.392475 -0.217468
vn 0.973249 -0.229753 0.000000
vn 0.952746 -0.200463 -0.228232
vn 0.893684 -0.392475 -0.217468
vn 0.973249 -0.229753 0.000000
vn 0.893684 -0.392475 -0.217468
vn 0.894427 -0.447214 0.000000
vn 0.601317 -0.526152 0.601317
vn 0.601317 -0.526152 0.601317
vn 0.601317 -0.526152 0.601317
vn 0.601317 -0.526152 0.601317
vn 0.601317 -0.526152 0.601317
vn 0.601317 -0.526152 0.601317
vn 0.000000 -0.229753 0.973249
vn 0.000000 -0.229753 0.973249
vn 0.000000 -0.447214 0.894427
vn 0.000000 -0.229753 0.973249
vn 0.000000 -0.447214 0.894427
vn 0.000000 -0.447214 0.894427
vn -0.601317 -0.526152 0.601317
vn -0.601317 -0.526152 0.601317
vn -0.601317 -0.526152 0.601317
vn -0.601317 -0.526152 0.601317
vn -0.601317 -0.526152 0.601317
vn -0.601317 -0.526152 0.601317
vn -0.952746 -0.200463 -0.228232
vn -0.973249 -0.229753 0.000000
vn -0.894427 -0.447214 0.000000
vn -0.952746 -0.200463 -0.228232
vn -0.894427 -0.447214 0.000000
vn -0.893684 -0.392475 -0.217468
vn -0.882744 -0.161104 -0.441372
vn -0.952746 -0.200463 -0.228232
vn -0.893684 -0.392475 -0.217468
vn -0.882744 -0.161104 -0.441372
vn -0.893684 -0.392475 -0.217468
vn -0.847998 -0.317999 -0.423999
vn 0.000000 1.000000 0.000000
vn 0.000000 1.000000 0.000000
vn 0.000000 1.000000 0.000000
vn 0.000000 1.000000 0.000000
vn 0.000000 1.000000 0.000000
vn 0.000000 1.000000 0.000000
vn 0.000000 1.000000 0.000000
vn 0.000000 1.000000 0.000000
vn 0.000000 1.000000 0.000000
vn 0.000000 1.000000 0.000000
vn 0.000000 1.000000 0.000000
vn 0.000000 1.000000 0.000000
vn 0.000000 1.000000 0.000000
vn 0.000000 1.000000 0.000000
vn 0.000000 1.000000 0.000000
vn 0.000000 1.000000 0.000000
vn 0.000000 1.000000 0.000000
vn 0.000000 1.000000 0.000000
vn 0.000000 0.707107 -0.707107
vn 0.000000 0.707107 -0.707107
vn 0.000000 0.707107 -0.707107
vn 0.000000 0.707107 -0.707107
vn 0.000000 0.707107 -0.707107
vn 0.000000 0.707107 -0.707107
vn 0.740058 0.645274 -0.189567
vn 0.742781 0.557086 -0.371391
vn 0.742781 0.557086 -0.371391
vn 0.740058 0.645274 -0.189567
vn 0.742781 0.557086 -0.371391
vn 0.740058 0.645274 -0.189567
vn 0.707107 0.707107 0.000000
vn 0.740058 0.645274 -0.189567
vn 0.740058 0.645274 -0.189567
vn 0.707107 0.707107 0.000000
vn 0.740058 0.645274 -0.189567
vn 0.707107 0.707107 0.000000
vn 0.444444 0.777778 0.444444
vn 0.444444 0.777778 0.444444
vn 0.444444 0.777778 0.444444
vn 0.444444 0.777778 0.444444
vn 0.444444 0.777778 0.444444
vn 0.444444 0.777778 0.444444
vn 0.000000 0.707107 0.707107
vn 0.000000 0.707107 0.707107
vn 0.000000 0.707107 0.707107
vn 0.000000 0.707107 0.707107
vn 0.000000 0.707107 0.707107
vn 0.000000 0.707107 0.707107
vn -0.444444 0.777778 0.444444
vn -0.444444 0.777778 0.444444
vn -0.444444 0.777778 0.444444
vn -0.444444 0.777778 0.444444
vn -0.444444 0.777778 0.444444
vn -0.444444 0.777778 0.444444
vn -0.740058 0.645274 -0.189567
vn -0.707107 0.707107 0.000000
vn -0.707107 0.707107 0.000000
vn -0.740058 0.645274 -0.189567
vn -0.707107 0.707107 0.000000
vn -0.740058 0.645274 -0.189567
vn -0.742781 0.557086 -0.371391
vn -0.740058 0.645274 -0.189567
vn -0.740058 0.645274 -0.189567
vn -0.742781 0.557086 -0.371391
vn -0.740058 0.645274 -0.189567
vn -0.742781 0.557086 -0.371391
vn 0.894427 -0.447214 0.000000
vn 0.893684 -0.392475 0.217468
vn 0.952746 -0.200463 0.228231
vn 0.894427 -0.447214 0.000000
vn 0.952746 -0.200463 0.228231
vn 0.973249 -0.229753 0.000000
vn 0.000000 1.000000 0.000000
vn 0.000000 1.000000 0.000000
vn 0.000000 1.000000 0.000000
vn 0.000000 1.000000 0.000000
vn 0.000000 1.000000 0.000000
vn 0.000000 1.000000 0.000000
vn 0.740058 0.645275 0.189567
vn 0.742781 0.557086 0.371391
vn 0.742781 0.557086 0.371391
vn 0.740058 0.645275 0.189567
vn 0.742781 0.557086 0.371391
vn 0.740058 0.645275 0.189567
vn 0.000000 0.707107 0.707107
vn 0.000000 0.707107 0.707107
vn 0.000000 0.707107 0.707107
vn 0.000000 0.707107 0.707107
vn 0.000000 0.707107 0.707107
vn 0.000000 0.707107 0.707107
vn 0.000000 1.000000 0.000000
vn 0.000000 1.000000 0.000000
vn 0.000000 1.000000 0.000000
vn 0.000000 1.000000 0.000000
vn 0.000000 1.000000 0.000000
vn 0.000000 1.000000 0.000000
vn 0.000000 1.000000 0.000000
vn 0.000000 1.000000 0.000000
vn 0.000000 1.000000 0.000000
vn 0.000000 1.000000 0.000000
vn 0.000000 1.000000 0.000000
vn 0.000000 1.000000 0.000000
vn 0.000000 1.000000 0.000000
vn 0.000000 1.000000 0.000000
vn 0.000000 1.000000 0.000000
vn 0.000000 1.000000 0.000000
vn 0.000000 1.000000 0.000000
vn 0.000000 1.000000 0.000000
vn 0.000000 1.000000 0.000000
vn 0.000000 1.000000 0.000000
vn 0.000000 1.000000 0.000000
vn 0.000000 1.000000 0.000000
vn 0.000000 1.000000 0.000000
vn 0.000000 1.000000 0.000000
vn 0.000000 1.000000 0.000000
vn 0.000000 1.000000 0.000000
vn 0.000000 1.000000 0.000000
vn 0.000000 1.000000 0.000000
vn 0.000000 1.000000 0.000000
vn 0.000000 1.000000 0.000000
vn -0.847998 -0.317999 0.423999
vn -0.893684 -0.392475 0.217468
vn -0.952746 -0.200463 0.228232
vn -0.847998 -0.317999 0.423999
vn -0.952746 -0.200463 0.228232
vn -0.882744 -0.161104 0.441372
vn 0.000000 1.000000 0.000000
vn 0.000000 1.000000 0.000000
vn 0.000000 1.000000 0.000000
vn 0.000000 1.000000 0.000000
vn 0.000000 1.000000 0.000000
vn 0.000000 1.000000 0.000000
vn 0.000000 1.000000 0.000000
vn 0.000000 1.000000 0.000000
vn 0.000000 1.000000 0.000000
vn 0.000000 1.000000 0.000000
vn 0.000000 1.000000 0.000000
vn 0.000000 1.000000 0.000000
vn 0.893684 -0.392475 0.217468
vn 0.847998 -0.317999 0.423999
vn 0.882744 -0.161104 0.441372
vn 0.893684 -0.392475 0.217468
vn 0.882744 -0.161104 0.441372
vn 0.952746 -0.200463 0.228231
vn 0.000000 1.000000 0.000000
vn 0.000000 1.000000 0.000000
vn 0.000000 1.000000 0.000000
vn 0.000000 1.000000 0.000000
vn 0.000000 1.000000 0.000000
vn 0.000000 1.000000 0.000000
vn 0.000000 1.000000 0.000000
vn 0.000000 1.000000 0.000000
vn 0.000000 1.000000 0.000000
vn 0.700023 0.141191 -0.700023
vn 0.700023 0.141191 -0.700023
vn 0.678915 0.279553 -0.678915
vn 0.700023 0.141191 -0.700023
vn 0.678915 0.279553 -0.678915
vn 0.678915 0.279553 -0.678915
vn -0.700023 0.141191 -0.700023
vn -0.700023 0.141191 -0.700023
vn -0.678915 0.279553 -0.678915
vn -0.700023 0.141191 -0.700023
vn -0.678915 0.279553 -0.678915
vn -0.678915 0.279553 -0.678915
vn -0.893684 -0.392475 0.217468
vn -0.894427 -0.447214 0.000000
vn -0.973249 -0.229753 0.000000
vn -0.893684 -0.392475 0.217468
vn -0.973249 -0.229753 0.000000
vn -0.952746 -0.200463 0.228232
vn -0.973417 0.229039 0.000000
vn -0.984997 0.078666 0.153601
vn -0.993332 0.115288 0.000000
vn -0.973417 0.229039 0.000000
vn -0.993332 0.115288 0.000000
vn -0.973417 0.229039 0.000000
vn -0.973417 0.229039 0.000000
vn -0.973417 0.229039 0.000000
vn -0.973417 0.229039 0.000000
vn 0.973417 0.229039 0.000000
vn 0.973417 0.229039 0.000000
vn 0.993332 0.115288 0.000000
vn 0.973417 0.229039 0.000000
vn 0.993332 0.115288 0.000000
vn 0.984997 0.078666 0.153601
vn 0.973417 0.229039 0.000000
vn 0.984997 0.078666 0.153601
vn 0.973417 0.229039 0.000000
vn 0.000000 0.115288 -0.993332
vn 0.000000 0.115288 -0.993332
vn 0.000000 0.229039 -0.973417
vn 0.000000 0.115288 -0.993332
vn 0.000000 0.229039 -0.973417
vn 0.000000 0.229039 -0.973417
vn 0.000000 0.115288 -0.993332
vn 0.000000 0.229039 -0.973417
vn 0.000000 0.229039 -0.973417
vn -0.601317 -0.526152 -0.601317
vn -0.601317 -0.526152 -0.601317
vn -0.601317 -0.526152 -0.601317
vn -0.601317 -0.526152 -0.601317
vn -0.601317 -0.526152 -0.601317
vn -0.601317 -0.526152 -0.601317
vn 0.000000 -0.447214 -0.894427
vn 0.000000 -0.229753 -0.973249
vn 0.000000 -0.229753 -0.973249
vn 0.000000 -0.447214 -0.894427
vn 0.000000 -0.229753 -0.973249
vn 0.000000 -0.447214 -0.894427
vn 0.000000 0.000000 1.000000
vn 0.000000 -0.229753 0.973249
vn 0.000000 -0.229753 0.973249
vn 0.000000 0.000000 1.000000
vn 0.000000 -0.229753 0.973249
vn 0.000000 0.000000 1.000000
vn 0.952746 -0.200463 0.228231
vn 0.882744 -0.161104 0.441372
vn 0.894427 0.000000 0.447213
vn 0.952746 -0.200463 0.228231
vn 0.894427 0.000000 0.447213
vn 0.984997 0.078666 0.153601
vn 0.973249 -0.229753 0.000000
vn 0.952746 -0.200463 0.228231
vn 0.984997 0.078666 0.153601
vn 0.973249 -0.229753 0.000000
vn 0.984997 0.078666 0.153601
vn 0.993332 0.115288 0.000000
vn 0.707107 0.000000 -0.707107
vn 0.707107 0.000000 -0.707107
vn 0.700023 0.141191 -0.700023
vn 0.707107 0.000000 -0.707107
vn 0.700023 0.141191 -0.700023
vn 0.700023 0.141191 -0.700023
vn 0.000000 -0.229753 -0.973249
vn 0.000000 -0.229753 -0.973249
vn 0.000000 0.115288 -0.993332
vn 0.000000 -0.229753 -0.973249
vn 0.000000 0.115288 -0.993332
vn 0.000000 0.115288 -0.993332
vn -0.707107 0.000000 -0.707107
vn -0.707107 0.000000 -0.707107
vn -0.700023 0.141191 -0.700023
vn -0.707107 0.000000 -0.707107
vn -0.700023 0.141191 -0.700023
vn -0.700023 0.141191 -0.700023
vn -0.952746 -0.200463 0.228232
vn -0.973249 -0.229753 0.000000
vn -0.993332 0.115288 0.000000
vn -0.952746 -0.200463 0.228232
vn -0.993332 0.115288 0.000000
vn -0.984997 0.078666 0.153601
vn -0.882744 -0.161104 0.441372
vn -0.952746 -0.200463 0.228232
vn -0.984997 0.078666 0.153601
vn -0.882744 -0.161104 0.441372
vn -0.984997 0.078666 0.153601
vn -0.894427 0.000000 0.447214
vn 0.000000 -0.229753 0.973249
vn 0.000000 -0.447214 0.894427
vn 0.000000 -0.447214 0.894427
vn 0.000000 -0.229753 0.973249
vn 0.000000 -0.447214 0.894427
vn 0.000000 -0.229753 0.973249
vn 0.000000 1.000000 0.000000
vn 0.000000 1.000000 0.000000
vn 0.000000 1.000000 0.000000
vn 0.000000 1.000000 0.000000
vn 0.000000 1.000000 0.000000
vn 0.000000 1.000000 0.000000
vn 0.000000 1.000000 0.000000
vn 0.000000 1.000000 0.000000
vn 0.000000 1.000000 0.000000
vn 0.000000 1.000000 0.000000
vn 0.000000 1.000000 0.000000
vn 0.000000 1.000000 0.000000
vn 0.000000 1.000000 0.000000
vn 0.000000 1.000000 0.000000
vn 0.000000 1.000000 0.000000
vn 0.000000 1.000000 0.000000
vn 0.000000 1.000000 0.000000
vn 0.000000 1.000000 0.000000
vn 0.000000 1.000000 0.000000
vn 0.000000 1.000000 0.000000
vn 0.000000 1.000000 0.000000
vn -0.000000 0.759257 -0.650791
vn -0.000000 0.759257 -0.650791
vn -0.000000 0.759257 -0.650791
vn -0.000000 0.759257 -0.650791
vn -0.000000 0.759257 -0.650791
vn -0.000000 0.759257 -0.650791
vn 0.000000 1.000000 0.000000
vn 0.000000 1.000000 0.000000
vn 0.000000 1.000000 0.000000
vn 0.612235 0.500337 0.612235
vn 0.545455 0.636364 0.545455
vn 0.612235 0.500337 0.612235
vn 0.612235 0.500337 -0.612235
vn 0.545455 0.636364 -0.545455
vn 0.612235 0.500337 -0.612235
vn 0.612235 0.500337 -0.612235
vn 0.612235 0.500337 -0.612235
vn 0.630987 0.451345 -0.630987
vn -0.612235 0.500337 -0.612235
vn -0.545455 0.636364 -0.545455
vn -0.612235 0.500337 -0.612235
vn -0.612235 0.500337 0.612235
vn -0.545455 0.636364 0.545455
vn -0.612235 0.500337 0.612235
vn -0.612235 0.500337 0.612235
vn -0.612235 0.500337 0.612235
vn -0.630987 0.451345 0.630987
vn -0.695796 0.178145 0.695796
vn -0.695796 0.178145 0.695796
vn -0.612235 0.500337 0.612235
vn -0.695796 0.178145 0.695796
vn -0.612235 0.500337 0.612235
vn -0.630987 0.451345 0.630987
vn 0.695796 0.178145 -0.695796
vn 0.695796 0.178145 -0.695796
vn 0.612235 0.500337 -0.612235
vn 0.695796 0.178145 -0.695796
vn 0.612235 0.500337 -0.612235
vn 0.630987 0.451345 -0.630987
vn 0.612235 0.500337 0.612235
vn 0.662226 0.350590 0.662226
vn 0.662226 0.350590 0.662226
vn 0.612235 0.500337 0.612235
vn 0.662226 0.350590 0.662226
vn 0.612235 0.500337 0.612235
vn -0.612235 0.500337 -0.612235
vn -0.662226 0.350590 -0.662226
vn -0.662226 0.350590 -0.662226
vn -0.612235 0.500337 -0.612235
vn -0.662226 0.350590 -0.662226
vn -0.612235 0.500337 -0.612235
vn -0.650791 0.759257 -0.000000
vn -0.650791 0.759257 -0.000000
vn -0.650791 0.759257 -0.000000
vn -0.650791 0.759257 -0.000000
vn -0.650791 0.759257 -0.000000
vn -0.650791 0.759257 -0.000000
vn 0.000000 1.000000 0.000000
vn 0.000000 1.000000 0.000000
vn 0.000000 1.000000 0.000000
vn 0.650791 0.759257 -0.000000
vn 0.650791 0.759257 -0.000000
vn 0.650791 0.759257 -0.000000
vn 0.650791 0.759257 -0.000000
vn 0.650791 0.759257 -0.000000
vn 0.650791 0.759257 -0.000000
vn 0.000000 1.000000 0.000000
vn 0.000000 1.000000 0.000000
vn 0.000000 1.000000 0.000000
vn 0.000000 0.759257 0.650791
vn 0.000000 0.759257 0.650791
vn 0.000000 0.759257 0.650791
vn 0.000000 0.759257 0.650791
vn 0.000000 0.759257 0.650791
vn 0.000000 0.759257 0.650791
vn 0.000000 1.000000 0.000000
vn 0.000000 1.000000 0.000000
vn 0.000000 1.000000 0.000000
vn 0.000000 1.000000 0.000000
vn 0.000000 1.000000 0.000000
vn 0.000000 1.000000 0.000000
vn 0.000000 1.000000 0.000000
vn 0.000000 1.000000 0.000000
vn 0.000000 1.000000 0.000000
vn 0.000000 1.000000 0.000000
vn 0.000000 1.000000 0.000000
vn 0.000000 1.000000 0.000000
vn 0.000000 1.000000 0.000000
vn 0.000000 1.000000 0.000000
vn 0.000000 1.000000 0.000000
vn 0.000000 1.000000 0.000000
vn 0.000000 1.000000 0.000000
vn 0.000000 1.000000 0.000000
vn 0.000000 1.000000 0.000000
vn 0.000000 1.000000 0.000000
vn 0.000000 1.000000 0.000000
vn 0.000000 1.000000 0.000000
vn 0.000000 1.000000 0.000000
vn 0.000000 1.000000 0.000000
vn 0.000000 1.000000 0.000000
vn 0.000000 1.000000 0.000000
vn 0.000000 1.000000 0.000000
vn 0.000000 1.000000 0.000000
vn 0.000000 1.000000 0.000000
vn 0.000000 1.000000 0.000000
vn 0.000000 1.000000 0.000000
vn 0.000000 1.000000 0.000000
vn 0.000000 1.000000 0.000000
vn 0.000000 1.000000 0.000000
vn 0.000000 1.000000 0.000000
vn 0.000000 1.000000 0.000000
vn 0.000000 1.000000 0.000000
vn 0.000000 1.000000 0.000000
vn 0.000000 1.000000 0.000000
vn 0.000000 1.000000 0.000000
vn 0.000000 1.000000 0.000000
vn 0.000000 1.000000 0.000000
vn 0.000000 1.000000 0.000000
vn 0.000000 1.000000 0.000000
vn 0.000000 1.000000 0.000000
vn 0.000000 1.000000 0.000000
vn 0.000000 1.000000 0.000000
vn 0.000000 1.000000 0.000000
vn 0.000000 1.000000 0.000000
vn 0.000000 1.000000 0.000000
vn 0.000000 1.000000 0.000000
vn 0.000000 1.000000 0.000000
vn 0.000000 1.000000 0.000000
vn 0.000000 1.000000 0.000000
vn 0.000000 1.000000 0.000000
vn 0.000000 1.000000 0.000000
vn 0.000000 1.000000 0.000000
vn 0.000000 1.000000 0.000000
vn 0.000000 1.000000 0.000000
vn 0.000000 1.000000 0.000000
vn 0.000000 1.000000 0.000000
vn 0.000000 1.000000 0.000000
vn 0.000000 1.000000 0.000000
vn 0.000000 1.000000 0.000000
vn 0.000000 1.000000 0.000000
vn 0.000000 1.000000 0.000000
vn 0.000000 1.000000 0.000000
vn 0.000000 1.000000 0.000000
vn 0.000000 1.000000 0.000000
vn 0.000000 1.000000 0.000000
vn 0.000000 1.000000 0.000000
vn 0.000000 1.000000 0.000000
vn 0.000000 1.000000 0.000000
vn 0.000000 1.000000 0.000000
vn 0.000000 1.000000 0.000000
vn 0.000000 1.000000 0.000000
vn 0.000000 1.000000 0.000000
vn 0.000000 1.000000 0.000000
vn 0.000000 1.000000 0.000000
vn 0.000000 1.000000 0.000000
vn 0.000000 1.000000 0.000000
vn 0.000000 1.000000 0.000000
vn 0.000000 1.000000 0.000000
vn 0.000000 1.000000 0.000000
vn 0.000000 1.000000 0.000000
vn 0.000000 1.000000 0.000000
vn 0.000000 1.000000 0.000000
vn 0.000000 1.000000 0.000000
vn 0.000000 1.000000 0.000000
vn 0.000000 1.000000 0.000000
vn 0.000000 1.000000 0.000000
vn 0.000000 1.000000 0.000000
vn 0.000000 1.000000 0.000000
vn 0.000000 1.000000 0.000000
vn 0.000000 1.000000 0.000000
vn 0.000000 1.000000 0.000000
vn 0.000000 1.000000 0.000000
vn 0.000000 1.000000 0.000000
vn 0.000000 1.000000 0.000000
vn 0.000000 1.000000 0.000000
vn 0.000000 1.000000 0.000000
vn 0.000000 1.000000 0.000000
vn 0.630987 0.451345 -0.630987
vn 0.612235 0.500337 -0.612235
vn 0.695796 0.178145 -0.695796
vn 0.630987 0.451345 -0.630987
vn 0.695796 0.178145 -0.695796
vn 0.695796 0.178145 -0.695796
vn 0.000000 1.000000 0.000000
vn 0.000000 1.000000 0.000000
vn 0.000000 1.000000 0.000000
vn 0.000000 1.000000 0.000000
vn 0.000000 1.000000 0.000000
vn 0.000000 1.000000 0.000000
vn 0.000000 1.000000 0.000000
vn 0.000000 1.000000 0.000000
vn 0.000000 1.000000 0.000000
vn 0.000000 1.000000 0.000000
vn 0.000000 1.000000 0.000000
vn 0.000000 1.000000 0.000000
vn -0.630987 0.451345 0.630987
vn -0.612235 0.500337 0.612235
vn -0.695796 0.178145 0.695796
vn -0.630987 0.451345 0.630987
vn -0.695796 0.178145 0.695796
vn -0.695796 0.178145 0.695796
vn 0.000000 1.000000 0.000000
vn 0.000000 1.000000 0.000000
vn 0.000000 1.000000 0.000000
vn 0.000000 1.000000 0.000000
vn 0.000000 1.000000 0.000000
vn 0.000000 1.000000 0.000000
vn 0.000000 1.000000 0.000000
vn 0.000000 1.000000 0.000000
vn 0.000000 1.000000 0.000000
vn 0.000000 1.000000 0.000000
vn 0.000000 1.000000 0.000000
vn 0.000000 1.000000 0.000000
vn 0.000000 1.000000 0.000000
vn 0.000000 1.000000 0.000000
vn 0.000000 1.000000 0.000000
vn 0.000000 1.000000 0.000000
vn 0.000000 1.000000 0.000000
vn 0.000000 1.000000 0.000000
vn 0.000000 1.000000 0.000000
vn 0.000000 1.000000 0.000000
vn 0.000000 1.000000 0.000000
vn 0.000000 1.000000 0.000000
vn 0.000000 1.000000 0.000000
vn 0.000000 1.000000 0.000000
vn 0.000000 1.000000 0.000000
vn 0.000000 1.000000 0.000000
vn 0.000000 1.000000 0.000000
vn 0.000000 1.000000 0.000000
vn 0.000000 1.000000 0.000000
vn 0.000000 1.000000 0.000000
vn 0.000000 1.000000 0.000000
vn 0.000000 1.000000 0.000000
vn 0.000000 1.000000 0.000000
vn 0.000000 1.000000 0.000000
vn 0.000000 1.000000 0.000000
vn 0.000000 1.000000 0.000000
vn 0.000000 1.000000 0.000000
vn 0.000000 1.000000 0.000000
vn 0.000000 1.000000 0.000000
vn 0.000000 1.000000 0.000000
vn 0.000000 1.000000 0.000000
vn 0.000000 1.000000 0.000000
vn 0.000000 1.000000 0.000000
vn 0.000000 1.000000 0.000000
vn 0.000000 1.000000 0.000000
vn 0.000000 1.000000 0.000000
vn 0.000000 1.000000 0.000000
vn 0.000000 1.000000 0.000000
vn 0.000000 1.000000 0.000000
vn 0.000000 1.000000 0.000000
vn 0.000000 1.000000 0.000000
vn 0.000000 1.000000 0.000000
vn 0.000000 1.000000 0.000000
vn 0.000000 1.000000 0.000000
vn 0.000000 1.000000 0.000000
vn 0.000000 1.000000 0.000000
vn 0.000000 1.000000 0.000000
vn -0.707107 0.000000 -0.707107
vn -0.707107 0.000000 -0.707107
vn -0.707107 0.000000 -0.707107
vn 0.707107 0.000000 0.707107
vn 0.707107 0.000000 0.707107
vn 0.707107 0.000000 0.707107
vn 0.695796 0.178145 -0.695796
vn 0.695796 0.178145 -0.695796
vn 0.707107 0.000000 -0.707107
vn 0.695796 0.178145 -0.695796
vn 0.707107 0.000000 -0.707107
vn 0.707107 0.000000 -0.707107
vn -0.695796 0.178145 0.695796
vn -0.695796 0.178145 0.695796
vn -0.707107 0.000000 0.707107
vn -0.695796 0.178145 0.695796
vn -0.707107 0.000000 0.707107
vn -0.707107 0.000000 0.707107
vn 0.695796 0.178145 -0.695796
vn 0.695796 0.178145 -0.695796
vn 0.707107 0.000000 -0.707107
vn 0.695796 0.178145 -0.695796
vn 0.707107 0.000000 -0.707107
vn 0.707107 0.000000 -0.707107
vn 0.707107 0.000000 -0.707107
vn 0.707107 0.000000 -0.707107
vn 0.707107 0.000000 -0.707107
vn 0.707107 0.000000 -0.707107
vn 0.707107 0.000000 -0.707107
vn 0.707107 0.000000 -0.707107
vn 0.707107 0.000000 0.707107
vn 0.707107 0.000000 0.707107
vn 0.707107 0.000000 0.707107
vn -0.707107 0.000000 -0.707107
vn -0.707107 0.000000 -0.707107
vn -0.707107 0.000000 -0.707107
vn -0.695796 0.178145 0.695796
vn -0.695796 0.178145 0.695796
vn -0.707107 0.000000 0.707107
vn -0.695796 0.178145 0.695796
vn -0.707107 0.000000 0.707107
vn -0.707107 0.000000 0.707107
f 103/1/1 101/2/2 91/3/3
f 103/4/4 91/5/5 93/6/6
f 101/7/7 100/8/8 90/9/9
f 101/10/10 90/11/11 91/12/12
f 2/13/13 3/14/14 6/15/15
f 2/16/16 6/17/17 5/18/18
f 108/19/19 98/20/20 105/21/21
f 108/22/22 105/23/23 106/24/24
f 98/25/25 88/26/26 104/27/27
f 98/28/28 104/29/29 105/30/30
f 20/31/31 5/32/32 15/33/33
f 5/34/34 6/35/35 8/36/36
f 5/37/37 8/38/38 7/39/39
f 5/40/40 7/41/41 15/42/42
f 88/43/43 82/44/44 103/45/45
f 88/46/46 103/47/47 104/48/48
f 111/49/49 101/50/50 103/51/51
f 111/52/52 103/53/53 82/54/54
f 16/55/55 10/56/56 18/57/57
f 7/58/58 8/59/59 11/60/60
f 7/61/61 11/62/62 10/63/63
f 7/64/64 10/65/65 16/66/66
f 100/67/67 99/68/68 89/69/69
f 100/70/70 89/71/71 90/72/72
f 99/73/73 97/74/74 87/75/75
f 99/76/76 87/77/77 89/78/78
f 10/79/79 11/80/80 14/81/81
f 10/82/82 14/83/83 13/84/84
f 16/85/85 18/86/86 21/87/87
f 16/88/88 21/89/89 22/90/90
f 20/91/91 15/92/92 23/93/93
f 20/94/94 23/95/95 24/96/96
f 4/97/97 20/98/98 24/99/99
f 4/100/100 24/101/101 27/102/102
f 4/103/103 27/104/104 36/105/105
f 168/106/106 28/107/107 21/108/108
f 168/109/109 21/110/110 18/111/111
f 168/112/112 18/113/113 9/114/114
f 15/115/115 7/116/116 16/117/117
f 15/118/118 16/119/119 22/120/120
f 15/121/121 22/122/122 23/123/123
f 111/124/124 110/125/125 100/126/126
f 111/127/127 100/128/128 101/129/129
f 110/130/130 109/131/131 99/132/132
f 110/133/133 99/134/134 100/135/135
f 25/136/136 40/137/137 31/138/138
f 25/139/139 31/140/140 30/141/141
f 28/142/142 30/143/143 31/144/144
f 28/145/145 31/146/146 33/147/147
f 21/148/148 28/149/149 33/150/150
f 21/151/151 33/152/152 34/153/153
f 22/154/154 21/155/155 34/156/156
f 22/157/157 34/158/158 35/159/159
f 23/160/160 22/161/161 35/162/162
f 23/163/163 35/164/164 37/165/165
f 24/166/166 23/167/167 37/168/168
f 24/169/169 37/170/170 38/171/171
f 27/172/172 24/173/173 38/174/174
f 27/175/175 38/176/176 39/177/177
f 25/178/178 27/179/179 39/180/180
f 25/181/181 39/182/182 40/183/183
f 40/184/184 50/185/185 41/186/186
f 40/187/187 41/188/188 31/189/189
f 33/190/190 31/191/191 41/192/192
f 33/193/193 41/194/194 43/195/195
f 34/196/196 33/197/197 43/198/198
f 34/199/199 43/200/200 44/201/201
f 35/202/202 34/203/203 44/204/204
f 35/205/205 44/206/206 45/207/207
f 37/208/208 35/209/209 45/210/210
f 37/211/211 45/212/212 47/213/213
f 38/214/214 37/215/215 47/216/216
f 38/217/217 47/218/218 48/219/219
f 39/220/220 38/221/221 48/222/222
f 39/223/223 48/224/224 49/225/225
f 40/226/226 39/227/227 49/228/228
f 40/229/229 49/230/230 50/231/231
f 51/232/232 52/233/233 42/234/234
f 51/235/235 42/236/236 32/237/237
f 51/238/238 32/239/239 26/240/240
f 51/241/241 26/242/242 55/243/243
f 51/244/244 55/245/245 54/246/246
f 51/247/247 54/248/248 53/249/249
f 50/250/250 52/251/251 51/252/252
f 50/253/253 51/254/254 41/255/255
f 43/256/256 41/257/257 51/258/258
f 43/259/259 51/260/260 53/261/261
f 44/262/262 43/263/263 53/264/264
f 44/265/265 53/266/266 54/267/267
f 45/268/268 44/269/269 54/270/270
f 45/271/271 54/272/272 55/273/273
f 47/274/274 45/275/275 55/276/276
f 47/277/277 55/278/278 26/279/279
f 48/280/280 47/281/281 26/282/282
f 48/283/283 26/284/284 32/285/285
f 49/286/286 48/287/287 32/288/288
f 49/289/289 32/290/290 42/291/291
f 50/292/292 49/293/293 42/294/294
f 50/295/295 42/296/296 52/297/297
f 87/298/298 97/299/299 106/300/300
f 87/301/301 106/302/302 96/303/303
f 96/304/304 95/305/305 83/306/306
f 96/307/307 83/308/308 81/309/309
f 61/310/310 62/311/311 59/312/312
f 61/313/313 59/314/314 58/315/315
f 109/316/316 107/317/317 97/318/318
f 109/319/319 97/320/320 99/321/321
f 97/322/322 107/323/323 108/324/324
f 97/325/325 108/326/326 106/327/327
f 71/328/328 61/329/329 76/330/330
f 71/331/331 63/332/332 64/333/333
f 71/334/334 64/335/335 62/336/336
f 71/337/337 62/338/338 61/339/339
f 109/340/340 110/341/341 111/342/342
f 109/343/343 111/344/344 82/345/345
f 109/346/346 82/347/347 88/348/348
f 109/349/349 88/350/350 98/351/351
f 109/352/352 98/353/353 108/354/354
f 109/355/355 108/356/356 107/357/357
f 106/358/358 105/359/359 95/360/360
f 106/361/361 95/362/362 96/363/363
f 74/364/364 66/365/365 72/366/366
f 72/367/367 66/368/368 67/369/369
f 72/370/370 67/371/371 64/372/372
f 72/373/373 64/374/374 63/375/375
f 95/376/376 94/377/377 80/378/378
f 95/379/379 80/380/380 83/381/381
f 94/382/382 93/383/383 79/384/384
f 94/385/385 79/386/386 80/387/387
f 122/388/388 130/389/389 123/390/390
f 122/391/391 123/392/392 125/393/393
f 69/394/394 70/395/395 67/396/396
f 69/397/397 67/398/398 66/399/399
f 78/400/400 77/401/401 74/402/402
f 78/403/403 74/404/404 72/405/405
f 80/406/406 79/407/407 71/408/408
f 80/409/409 71/410/410 76/411/411
f 105/412/412 104/413/413 94/414/414
f 105/415/415 94/416/416 95/417/417
f 121/418/418 83/419/419 80/420/420
f 121/421/421 80/422/422 76/423/423
f 121/424/424 76/425/425 60/426/426
f 65/427/427 74/428/428 77/429/429
f 65/430/430 77/431/431 84/432/432
f 65/433/433 84/434/434 177/435/435
f 79/436/436 78/437/437 72/438/438
f 79/439/439 72/440/440 63/441/441
f 79/442/442 63/443/443 71/444/444
f 104/445/445 103/446/446 93/447/447
f 104/448/448 93/449/449 94/450/450
f 86/451/451 87/452/452 96/453/453
f 86/454/454 96/455/455 81/456/456
f 89/457/457 87/458/458 86/459/459
f 89/460/460 86/461/461 84/462/462
f 90/463/463 89/464/464 84/465/465
f 90/466/466 84/467/467 77/468/468
f 91/469/469 90/470/470 77/471/471
f 91/472/472 77/473/473 78/474/474
f 93/475/475 91/476/476 78/477/477
f 93/478/478 78/479/479 79/480/480
f 113/481/481 117/482/482 132/483/483
f 113/484/484 132/485/485 116/486/486
f 113/487/487 114/488/488 118/489/489
f 113/490/490 118/491/491 117/492/492
f 92/493/493 210/494/494 197/495/495
f 92/496/496 197/497/497 204/498/498
f 210/499/499 200/500/500 216/501/501
f 210/502/502 216/503/503 197/504/504
f 132/505/505 117/506/506 127/507/507
f 117/508/508 118/509/509 120/510/510
f 117/511/511 120/512/512 119/513/513
f 117/514/514 119/515/515 127/516/516
f 200/517/517 194/518/518 215/519/519
f 200/520/520 215/521/521 216/522/522
f 158/523/523 213/524/524 215/525/525
f 158/526/526 215/527/527 194/528/528
f 128/529/529 123/530/530 130/531/531
f 119/532/532 120/533/533 124/534/534
f 119/535/535 124/536/536 123/537/537
f 119/538/538 123/539/539 128/540/540
f 213/541/541 212/542/542 202/543/543
f 213/544/544 202/545/545 203/546/546
f 123/547/547 124/548/548 126/549/549
f 123/550/550 126/551/551 125/552/552
f 128/553/553 130/554/554 133/555/555
f 128/556/556 133/557/557 134/558/558
f 132/559/559 127/560/560 135/561/561
f 132/562/562 135/563/563 136/564/564
f 116/565/565 132/566/566 136/567/567
f 116/568/568 136/569/569 139/570/570
f 116/571/571 139/572/572 214/573/573
f 171/574/574 140/575/575 133/576/576
f 171/577/577 133/578/578 130/579/579
f 171/580/580 130/581/581 122/582/582
f 127/583/583 119/584/584 128/585/585
f 127/586/586 128/587/587 134/588/588
f 127/589/589 134/590/590 135/591/591
f 158/592/592 112/593/593 212/594/594
f 158/595/595 212/596/596 213/597/597
f 112/598/598 102/599/599 211/600/600
f 112/601/601 211/602/602 212/603/603
f 137/604/604 152/605/605 143/606/606
f 137/607/607 143/608/608 142/609/609
f 140/610/610 142/611/611 143/612/612
f 140/613/613 143/614/614 145/615/615
f 133/616/616 140/617/617 145/618/618
f 133/619/619 145/620/620 146/621/621
f 134/622/622 133/623/623 146/624/624
f 134/625/625 146/626/626 147/627/627
f 135/628/628 134/629/629 147/630/630
f 135/631/631 147/632/632 149/633/633
f 136/634/634 135/635/635 149/636/636
f 136/637/637 149/638/638 150/639/639
f 139/640/640 136/641/641 150/642/642
f 139/643/643 150/644/644 151/645/645
f 137/646/646 139/647/647 151/648/648
f 137/649/649 151/650/650 152/651/651
f 152/652/652 162/653/653 153/654/654
f 152/655/655 153/656/656 143/657/657
f 145/658/658 143/659/659 153/660/660
f 145/661/661 153/662/662 155/663/663
f 146/664/664 145/665/665 155/666/666
f 146/667/667 155/668/668 156/669/669
f 147/670/670 146/671/671 156/672/672
f 147/673/673 156/674/674 157/675/675
f 149/676/676 147/677/677 157/678/678
f 149/679/679 157/680/680 159/681/681
f 150/682/682 149/683/683 159/684/684
f 150/685/685 159/686/686 160/687/687
f 151/688/688 150/689/689 160/690/690
f 151/691/691 160/692/692 161/693/693
f 152/694/694 151/695/695 161/696/696
f 152/697/697 161/698/698 162/699/699
f 163/700/700 164/701/701 154/702/702
f 163/703/703 154/704/704 144/705/705
f 163/706/706 144/707/707 138/708/708
f 163/709/709 138/710/710 167/711/711
f 163/712/712 167/713/713 166/714/714
f 163/715/715 166/716/716 165/717/717
f 162/718/718 164/719/719 163/720/720
f 162/721/721 163/722/722 153/723/723
f 155/724/724 153/725/725 163/726/726
f 155/727/727 163/728/728 165/729/729
f 156/730/730 155/731/731 165/732/732
f 156/733/733 165/734/734 166/735/735
f 157/736/736 156/737/737 166/738/738
f 157/739/739 166/740/740 167/741/741
f 159/742/742 157/743/743 167/744/744
f 159/745/745 167/746/746 138/747/747
f 160/748/748 159/749/749 138/750/750
f 160/751/751 138/752/752 144/753/753
f 161/754/754 160/755/755 144/756/756
f 161/757/757 144/758/758 154/759/759
f 162/760/760 161/761/761 154/762/762
f 162/763/763 154/764/764 164/765/765
f 212/766/766 211/767/767 201/768/768
f 212/769/769 201/770/770 202/771/771
f 173/772/772 174/773/773 170/774/774
f 173/775/775 170/776/776 169/777/777
f 102/778/778 85/779/779 209/780/780
f 102/781/781 209/782/782 211/783/783
f 209/784/784 85/785/785 92/786/786
f 209/787/787 92/788/788 204/789/789
f 183/790/790 173/791/791 188/792/792
f 183/793/793 175/794/794 176/795/795
f 183/796/796 176/797/797 174/798/798
f 183/799/799 174/800/800 173/801/801
f 102/802/802 112/803/803 158/804/804
f 102/805/805 158/806/806 194/807/807
f 102/808/808 194/809/809 200/810/810
f 102/811/811 200/812/812 210/813/813
f 102/814/814 210/815/815 92/816/816
f 102/817/817 92/818/818 85/819/819
f 204/820/820 197/821/821 207/822/822
f 204/823/823 207/824/824 208/825/825
f 186/826/826 179/827/827 184/828/828
f 184/829/829 179/830/830 180/831/831
f 184/832/832 180/833/833 176/834/834
f 184/835/835 176/836/836 175/837/837
f 211/838/838 209/839/839 199/840/840
f 211/841/841 199/842/842 201/843/843
f 58/844/844 17/845/845 181/846/846
f 181/847/847 182/848/848 180/849/849
f 181/850/850 180/851/851 179/852/852
f 190/853/853 189/854/854 186/855/855
f 190/856/856 186/857/857 184/858/858
f 192/859/859 191/860/860 183/861/861
f 192/862/862 183/863/863 188/864/864
f 197/865/865 216/866/866 206/867/867
f 197/868/868 206/869/869 207/870/870
f 29/871/871 195/872/872 192/873/873
f 29/874/874 192/875/875 188/876/876
f 29/877/877 188/878/878 172/879/879
f 178/880/880 186/881/881 189/882/882
f 178/883/883 189/884/884 196/885/885
f 178/886/886 196/887/887 115/888/888
f 191/889/889 190/890/890 184/891/891
f 191/892/892 184/893/893 175/894/894
f 191/895/895 175/896/896 183/897/897
f 216/898/898 215/899/899 205/900/900
f 216/901/901 205/902/902 206/903/903
f 213/904/904 203/905/905 205/906/906
f 213/907/907 205/908/908 215/909/909
f 198/910/910 199/911/911 208/912/912
f 198/913/913 208/914/914 193/915/915
f 201/916/916 199/917/917 198/918/918
f 201/919/919 198/920/920 196/921/921
f 202/922/922 201/923/923 196/924/924
f 202/925/925 196/926/926 189/927/927
f 203/928/928 202/929/929 189/930/930
f 203/931/931 189/932/932 190/933/933
f 205/934/934 203/935/935 190/936/936
f 205/937/937 190/938/938 191/939/939
f 206/940/940 205/941/941 191/942/942
f 206/943/943 191/944/944 192/945/945
f 207/946/946 206/947/947 192/948/948
f 207/949/949 192/950/950 195/951/951
f 208/952/952 207/953/953 195/954/954
f 208/955/955 195/956/956 193/957/957
f 199/958/958 209/959/959 204/960/960
f 199/961/961 204/962/962 208/963/963
f 46/964/964 141/965/965 148/966/966
f 46/967/967 148/968/968 56/969/969
f 81/970/970 83/971/971 121/972/972
f 30/973/973 28/974/974 168/975/975
f 36/976/976 27/977/977 25/978/978
f 214/979/979 139/980/980 137/981/981
f 142/982/982 140/983/983 171/984/984
f 29/985/985 56/986/986 148/987/987
f 29/988/988 148/989/989 115/990/990
f 193/991/991 195/992/992 29/993/993
f 177/994/994 141/995/995 171/996/996
f 115/997/997 148/998/998 121/999/999
f 115/1000/1000 121/1001/1001 225/1002/1002
f 36/1003/1003 56/1004/1004 29/1005/1005
f 214/1006/1006 46/1007/1007 168/1008/1008
f 214/1009/1009 168/1010/1010 12/1011/1011
f 57/1012/1012 116/1013/1013 214/1014/1014
f 57/1015/1015 214/1016/1016 12/1017/1017
f 226/1018/1018 178/1019/1019 115/1020/1020
f 226/1021/1021 115/1022/1022 225/1023/1023
f 171/1024/1024 122/1025/1025 65/1026/1026
f 171/1027/1027 65/1028/1028 177/1029/1029
f 29/1030/1030 172/1031/1031 4/1032/1032
f 29/1033/1033 4/1034/1034 36/1035/1035
f 168/1036/1036 46/1037/1037 56/1038/1038
f 168/1039/1039 56/1040/1040 36/1041/1041
f 115/1042/1042 196/1043/1043 198/1044/1044
f 121/1045/1045 148/1046/1046 141/1047/1047
f 121/1048/1048 141/1049/1049 177/1050/1050
f 177/1051/1051 84/1052/1052 86/1053/1053
f 171/1054/1054 141/1055/1055 46/1056/1056
f 171/1057/1057 46/1058/1058 214/1059/1059
f 177/1060/1060 86/1061/1061 81/1062/1062
f 177/1063/1063 81/1064/1064 121/1065/1065
f 115/1066/1066 198/1067/1067 193/1068/1068
f 115/1069/1069 193/1070/1070 29/1071/1071
f 36/1072/1072 25/1073/1073 30/1074/1074
f 36/1075/1075 30/1076/1076 168/1077/1077
f 214/1078/1078 137/1079/1079 142/1080/1080
f 214/1081/1081 142/1082/1082 171/1083/1083
f 217/1084/1084 13/1085/1085 14/1086/1086
f 217/1087/1087 14/1088/1088 218/1089/1089
f 217/1090/1090 218/1091/1091 219/1092/1092
f 217/1093/1093 219/1094/1094 220/1095/1095
f 220/1096/1096 114/1097/1097 113/1098/1098
f 220/1099/1099 113/1100/1100 217/1101/1101
f 125/1102/1102 221/1103/1103 69/1104/1104
f 69/1105/1105 221/1106/1106 222/1107/1107
f 69/1108/1108 222/1109/1109 70/1110/1110
f 221/1111/1111 125/1112/1112 126/1113/1113
f 221/1114/1114 126/1115/1115 224/1116/1116
f 224/1117/1117 223/1118/1118 222/1119/1119
f 224/1120/1120 222/1121/1121 221/1122/1122
f 182/1123/1123 181/1124/1124 17/1125/1125
f 182/1126/1126 17/1127/1127 131/1128/1128
f 17/1129/1129 58/1130/1130 59/1131/1131
f 17/1132/1132 59/1133/1133 129/1134/1134
f 131/1135/1135 17/1136/1136 129/1137/1137
f 131/1138/1138 129/1139/1139 73/1140/1140
f 169/1141/1141 75/1142/1142 2/1143/1143
f 2/1144/1144 75/1145/1145 185/1146/1146
f 2/1147/1147 185/1148/1148 3/1149/1149
f 75/1150/1150 169/1151/1151 170/1152/1152
f 75/1153/1153 170/1154/1154 187/1155/1155
f 187/1156/1156 19/1157/1157 185/1158/1158
f 187/1159/1159 185/1160/1160 75/1161/1161
f 225/1162/1162 121/1163/1163 60/1164/1164
f 225/1165/1165 60/1166/1166 68/1167/1167
f 13/1168/1168 113/1169/1169 234/1170/1170
f 13/1171/1171 234/1172/1172 229/1173/1173
f 13/1174/1174 229/1175/1175 227/1176/1176
f 13/1177/1177 227/1178/1178 233/1179/1179
f 12/1180/1180 168/1181/1181 9/1182/1182
f 12/1183/1183 9/1184/1184 1/1185/1185
f 58/1186/1186 181/1187/1187 230/1188/1188
f 58/1189/1189 230/1190/1190 232/1191/1191
f 58/1192/1192 232/1193/1193 231/1194/1194
f 58/1195/1195 231/1196/1196 228/1197/1197
f 172/1198/1198 188/1199/1199 173/1200/1200
f 172/1201/1201 173/1202/1202 169/1203/1203
f 60/1204/1204 76/1205/1205 61/1206/1206
f 60/1207/1207 61/1208/1208 58/1209/1209
f 69/1210/1210 66/1211/1211 74/1212/1212
f 69/1213/1213 74/1214/1214 65/1215/1215
f 65/1216/1216 122/1217/1217 125/1218/1218
f 65/1219/1219 125/1220/1220 69/1221/1221
f 9/1222/1222 18/1223/1223 10/1224/1224
f 9/1225/1225 10/1226/1226 13/1227/1227
f 13/1228/1228 217/1229/1229 113/1230/1230
f 4/1231/1231 172/1232/1232 169/1233/1233
f 4/1234/1234 169/1235/1235 2/1236/1236
f 181/1237/1237 179/1238/1238 186/1239/1239
f 181/1240/1240 186/1241/1241 178/1242/1242
f 60/1243/1243 58/1244/1244 228/1245/1245
f 181/1246/1246 178/1247/1247 230/1248/1248
f 68/1249/1249 60/1250/1250 228/1251/1251
f 68/1252/1252 228/1253/1253 231/1254/1254
f 116/1255/1255 57/1256/1256 229/1257/1257
f 116/1258/1258 229/1259/1259 234/1260/1260
f 178/1261/1261 226/1262/1262 232/1263/1263
f 178/1264/1264 232/1265/1265 230/1266/1266
f 2/1267/1267 5/1268/1268 20/1269/1269
f 2/1270/1270 20/1271/1271 4/1272/1272
f 9/1273/1273 13/1274/1274 233/1275/1275
f 113/1276/1276 116/1277/1277 234/1278/1278
f 1/1279/1279 9/1280/1280 233/1281/1281
f 1/1282/1282 233/1283/1283 227/1284/1284
