v 1.571377 0.839875 0.269472
v 2.078820 1.816235 0.358077
v 1.199337 0.809776 0.691544
v 0.019334 -0.129620 -0.044434
v 1.405888 0.789390 -0.266746
v -0.249312 0.205759 1.185310
v -0.490994 0.733904 1.684056
v -0.551413 0.123736 0.951448
v 0.025408 -0.127538 -0.027707
v 0.089162 0.334574 1.038592
v 1.267314 0.592171 -0.710499
v 1.669098 1.383928 -1.046636
v 1.203660 0.657635 -0.234621
v 0.011348 -0.132541 -0.041946
v 0.892553 0.490431 -1.000327
v 1.128553 0.844931 1.381921
v 1.420140 1.877458 1.952489
v 0.535800 0.724390 1.519049
v 0.027789 -0.126127 -0.040282
v 1.313635 0.905887 0.793092
v 0.381447 1.097421 0.784746
v 0.573498 2.048054 1.009929
v 0.048943 1.031468 0.751023
v -0.041383 -0.061067 -0.016772
v 0.588333 1.094131 0.526602
v -0.712757 0.396040 0.254438
v -1.000685 0.871378 0.281824
v -0.702181 0.335712 0.034773
v -0.047502 -0.060466 -0.008309
v -0.520185 0.535127 0.360456
v 0.747961 0.938847 0.319771
v 1.101943 1.744938 0.359689
v 0.496800 0.962045 0.447139
v -0.045437 -0.064148 -0.019609
v 0.760943 0.863994 0.047369
v -0.312612 1.006413 0.949032
v -0.425292 1.970594 1.231277
v -0.583234 0.876274 0.717710
v -0.040412 -0.057996 -0.011492
v 0.043117 1.117039 0.835382
v -0.296068 1.097417 -0.926038
v -0.471496 2.048050 -1.164396
v 0.033170 1.031456 -0.868615
v 0.068320 -0.061069 -0.096314
v -0.520891 1.094135 -0.683356
v 0.757381 0.396019 -0.318805
v 1.046541 0.871350 -0.325532
v 0.731117 0.335695 -0.100459
v 0.075029 -0.060469 -0.104318
v 0.572889 0.535109 -0.438330
v -0.694909 0.938857 -0.488471
v -1.045110 1.744956 -0.553619
v -0.435279 0.962048 -0.597546
v 0.072161 -0.064150 -0.093194
v -0.727346 0.864009 -0.217694
v 0.407963 1.006390 -1.040253
v 0.540567 1.970564 -1.313727
v 0.661340 0.876249 -0.790163
v 0.067730 -0.057998 -0.101650
v 0.045018 1.117025 -0.952343
v -1.579491 0.839850 -0.136431
v -2.094569 1.816203 -0.143953
v -1.278689 0.809719 -0.611905
v 0.002649 -0.129622 -0.071214
v -1.331486 0.789406 0.366971
v 0.073938 0.205663 -1.327965
v 0.233912 0.733771 -1.858630
v 0.409148 0.123659 -1.144680
v -0.005987 -0.127541 -0.086773
v -0.237155 0.334490 -1.129700
v -1.124644 0.592221 0.783323
v -1.468382 1.384003 1.178572
v -1.136856 0.657649 0.303357
v 0.010143 -0.132543 -0.074930
v -0.708855 0.490503 1.010412
v -1.317698 0.844820 -1.304807
v -1.695653 1.877304 -1.822312
v -0.753997 0.724269 -1.533714
v -0.006356 -0.126128 -0.073980
v -1.407577 0.905822 -0.694158
vt 0.421844 0.674642
vt 0.568250 0.638550
vt 0.333824 0.999032
vt 0.421844 0.674642
vt 0.248782 0.638550
vt 0.460515 0.091770
vt 0.333824 0.999032
vt 0.248782 0.638550
vt 0.421844 0.674642
vt 0.460515 0.091770
vt 0.568250 0.638550
vt 0.421844 0.674642
vt 0.248782 0.638550
vt 0.568250 0.638550
vt 0.460515 0.091770
vt 0.333824 0.999032
vt 0.568250 0.638550
vt 0.248782 0.638550
vt 0.750669 0.775035
vt 0.679236 0.750005
vt 0.339213 1.000000
vt 0.750669 0.775035
vt 0.697497 0.750005
vt 0.931443 0.370811
vt 0.339213 1.000000
vt 0.697497 0.750005
vt 0.750669 0.775035
vt 0.931443 0.370811
vt 0.679236 0.750005
vt 0.750669 0.775035
vt 0.697497 0.750005
vt 0.538611 0.589848
vt 0.931443 0.370811
vt 0.339213 1.000000
vt 0.538611 0.589848
vt 0.697497 0.750005
vt 0.102184 0.720499
vt 0.261137 0.689460
vt 0.334762 0.999474
vt 0.102184 0.720499
vt 0.013664 0.689460
vt 0.000000 0.219229
vt 0.334762 0.999474
vt 0.013664 0.689460
vt 0.102184 0.720499
vt 0.000000 0.219229
vt 0.261137 0.689460
vt 0.102184 0.720499
vt 0.013664 0.689460
vt 0.261137 0.689460
vt 0.000000 0.219229
vt 0.334762 0.999474
vt 0.261137 0.689460
vt 0.013664 0.689460
vt 0.797033 0.641626
vt 0.853175 0.601895
vt 0.335065 0.998713
vt 0.797033 0.641626
vt 0.600991 0.601895
vt 1.000000 0.000000
vt 0.335065 0.998713
vt 0.600991 0.601895
vt 0.797033 0.641626
vt 1.000000 0.000000
vt 0.853175 0.601895
vt 0.797033 0.641626
vt 0.600991 0.601895
vt 0.853175 0.601895
vt 1.000000 0.000000
vt 0.335065 0.998713
vt 0.853175 0.601895
vt 0.600991 0.601895
vt 0.421844 0.674642
vt 0.568250 0.638550
vt 0.333824 0.999032
vt 0.421844 0.674642
vt 0.248782 0.638550
vt 0.460515 0.091770
vt 0.333824 0.999032
vt 0.248782 0.638550
vt 0.421844 0.674642
vt 0.460515 0.091770
vt 0.568250 0.638550
vt 0.421844 0.674642
vt 0.248782 0.638550
vt 0.568250 0.638550
vt 0.460515 0.091770
vt 0.333824 0.999032
vt 0.568250 0.638550
vt 0.248782 0.638550
vt 0.750669 0.775035
vt 0.679236 0.750005
vt 0.339213 1.000000
vt 0.750669 0.775035
vt 0.697497 0.750005
vt 0.931443 0.370811
vt 0.339213 1.000000
vt 0.697497 0.750005
vt 0.750669 0.775035
vt 0.931443 0.370811
vt 0.679236 0.750005
vt 0.750669 0.775035
vt 0.697497 0.750005
vt 0.538611 0.589848
vt 0.931443 0.370811
vt 0.339213 1.000000
vt 0.538611 0.589848
vt 0.697497 0.750005
vt 0.102184 0.720499
vt 0.261137 0.689460
vt 0.334762 0.999474
vt 0.102184 0.720499
vt 0.013664 0.689460
vt 0.000000 0.219229
vt 0.334762 0.999474
vt 0.013664 0.689460
vt 0.102184 0.720499
vt 0.000000 0.219229
vt 0.261137 0.689460
vt 0.102184 0.720499
vt 0.013664 0.689460
vt 0.261137 0.689460
vt 0.000000 0.219229
vt 0.334762 0.999474
vt 0.261137 0.689460
vt 0.013664 0.689460
vt 0.797033 0.641626
vt 0.853175 0.601895
vt 0.335065 0.998713
vt 0.797033 0.641626
vt 0.600991 0.601895
vt 1.000000 0.000000
vt 0.335065 0.998713
vt 0.600991 0.601895
vt 0.797033 0.641626
vt 1.000000 0.000000
vt 0.853175 0.601895
vt 0.797033 0.641626
vt 0.600991 0.601895
vt 0.853175 0.601895
vt 1.000000 0.000000
vt 0.335065 0.998713
vt 0.853175 0.601895
vt 0.600991 0.601895
vt 0.421844 0.674642
vt 0.568250 0.638550
vt 0.333824 0.999032
vt 0.421844 0.674642
vt 0.248782 0.638550
vt 0.460515 0.091770
vt 0.333824 0.999032
vt 0.248782 0.638550
vt 0.421844 0.674642
vt 0.460515 0.091770
vt 0.568250 0.638550
vt 0.421844 0.674642
vt 0.248782 0.638550
vt 0.568250 0.638550
vt 0.460515 0.091770
vt 0.333824 0.999032
vt 0.568250 0.638550
vt 0.248782 0.638550
vt 0.750669 0.775035
vt 0.679236 0.750005
vt 0.339213 1.000000
vt 0.750669 0.775035
vt 0.697497 0.750005
vt 0.931443 0.370811
vt 0.339213 1.000000
vt 0.697497 0.750005
vt 0.750669 0.775035
vt 0.931443 0.370811
vt 0.679236 0.750005
vt 0.750669 0.775035
vt 0.697497 0.750005
vt 0.538611 0.589848
vt 0.931443 0.370811
vt 0.339213 1.000000
vt 0.538611 0.589848
vt 0.697497 0.750005
vt 0.102184 0.720499
vt 0.261137 0.689460
vt 0.334762 0.999474
vt 0.102184 0.720499
vt 0.013664 0.689460
vt 0.000000 0.219229
vt 0.334762 0.999474
vt 0.013664 0.689460
vt 0.102184 0.720499
vt 0.000000 0.219229
vt 0.261137 0.689460
vt 0.102184 0.720499
vt 0.013664 0.689460
vt 0.261137 0.689460
vt 0.000000 0.219229
vt 0.334762 0.999474
vt 0.261137 0.689460
vt 0.013664 0.689460
vt 0.797033 0.641626
vt 0.853175 0.601895
vt 0.335065 0.998713
vt 0.797033 0.641626
vt 0.600991 0.601895
vt 1.000000 0.000000
vt 0.335065 0.998713
vt 0.600991 0.601895
vt 0.797033 0.641626
vt 1.000000 0.000000
vt 0.853175 0.601895
vt 0.797033 0.641626
vt 0.600991 0.601895
vt 0.853175 0.601895
vt 1.000000 0.000000
vt 0.335065 0.998713
vt 0.853175 0.601895
vt 0.600991 0.601895
vt 0.421844 0.674642
vt 0.568250 0.638550
vt 0.333824 0.999032
vt 0.421844 0.674642
vt 0.248782 0.638550
vt 0.460515 0.091770
vt 0.333824 0.999032
vt 0.248782 0.638550
vt 0.421844 0.674642
vt 0.460515 0.091770
vt 0.568250 0.638550
vt 0.421844 0.674642
vt 0.248782 0.638550
vt 0.568250 0.638550
vt 0.460515 0.091770
vt 0.333824 0.999032
vt 0.568250 0.638550
vt 0.248782 0.638550
vt 0.750669 0.775035
vt 0.679236 0.750005
vt 0.339213 1.000000
vt 0.750669 0.775035
vt 0.697497 0.750005
vt 0.931443 0.370811
vt 0.339213 1.000000
vt 0.697497 0.750005
vt 0.750669 0.775035
vt 0.931443 0.370811
vt 0.679236 0.750005
vt 0.750669 0.775035
vt 0.697497 0.750005
vt 0.538611 0.589848
vt 0.931443 0.370811
vt 0.339213 1.000000
vt 0.538611 0.589848
vt 0.697497 0.750005
vt 0.102184 0.720499
vt 0.261137 0.689460
vt 0.334762 0.999474
vt 0.102184 0.720499
vt 0.013664 0.689460
vt 0.000000 0.219229
vt 0.334762 0.999474
vt 0.013664 0.689460
vt 0.102184 0.720499
vt 0.000000 0.219229
vt 0.261137 0.689460
vt 0.102184 0.720499
vt 0.013664 0.689460
vt 0.261137 0.689460
vt 0.000000 0.219229
vt 0.334762 0.999474
vt 0.261137 0.689460
vt 0.013664 0.689460
vt 0.797033 0.641626
vt 0.853175 0.601895
vt 0.335065 0.998713
vt 0.797033 0.641626
vt 0.600991 0.601895
vt 1.000000 0.000000
vt 0.335065 0.998713
vt 0.600991 0.601895
vt 0.797033 0.641626
vt 1.000000 0.000000
vt 0.853175 0.601895
vt 0.797033 0.641626
vt 0.600991 0.601895
vt 0.853175 0.601895
vt 1.000000 0.000000
vt 0.335065 0.998713
vt 0.853175 0.601895
vt 0.600991 0.601895
vn 0.651785 -0.742128 0.156274
vn 0.568998 -0.707958 0.418373
vn 0.501431 -0.855932 0.126287
vn 0.651785 -0.742128 0.156274
vn 0.684569 -0.719364 -0.117814
vn 0.839025 -0.509212 0.191677
vn 0.501431 -0.855932 0.126287
vn 0.684569 -0.719364 -0.117814
vn 0.651785 -0.742128 0.156274
vn 0.839025 -0.509212 0.191677
vn 0.568998 -0.707958 0.418373
vn 0.651785 -0.742128 0.156274
vn -0.658250 0.736131 -0.157540
vn -0.658250 0.736131 -0.157540
vn -0.769469 0.613118 -0.178895
vn -0.562479 0.815116 -0.138578
vn -0.658250 0.736131 -0.157540
vn -0.658250 0.736131 -0.157540
vn 0.215312 -0.851662 0.477821
vn -0.051358 -0.904046 0.424339
vn 0.260291 -0.916446 0.303934
vn 0.215312 -0.851662 0.477821
vn 0.465464 -0.733940 0.494647
vn 0.129014 -0.687390 0.714738
vn 0.260291 -0.916446 0.303934
vn 0.465464 -0.733940 0.494647
vn 0.215312 -0.851662 0.477821
vn 0.129014 -0.687390 0.714738
vn -0.051358 -0.904046 0.424339
vn 0.215312 -0.851662 0.477821
vn -0.213011 0.847864 -0.485544
vn -0.213011 0.847864 -0.485544
vn -0.166845 0.764348 -0.622845
vn -0.243818 0.895084 -0.373333
vn -0.213011 0.847864 -0.485544
vn -0.213011 0.847864 -0.485544
vn 0.631259 -0.770538 -0.088221
vn 0.708249 -0.686589 0.164251
vn 0.490090 -0.871627 -0.008790
vn 0.631259 -0.770538 -0.088221
vn 0.505840 -0.795374 -0.333926
vn 0.805635 -0.555426 -0.206044
vn 0.490090 -0.871627 -0.008790
vn 0.505840 -0.795374 -0.333926
vn 0.631259 -0.770538 -0.088221
vn 0.805635 -0.555426 -0.206044
vn 0.708249 -0.686589 0.164251
vn 0.631259 -0.770538 -0.088221
vn -0.637311 0.765111 0.091865
vn -0.637311 0.765111 0.091865
vn -0.741129 0.652343 0.158671
vn -0.547493 0.835857 0.039924
vn -0.637311 0.765111 0.091865
vn -0.637311 0.765111 0.091865
vn 0.528097 -0.761700 0.375402
vn 0.310157 -0.778609 0.545501
vn 0.433096 -0.866744 0.247350
vn 0.528097 -0.761700 0.375402
vn 0.705523 -0.686355 0.176504
vn 0.637822 -0.541049 0.548133
vn 0.433096 -0.866744 0.247350
vn 0.705523 -0.686355 0.176504
vn 0.528097 -0.761700 0.375402
vn 0.637822 -0.541049 0.548133
vn 0.310157 -0.778609 0.545501
vn 0.528097 -0.761700 0.375402
vn -0.532078 0.756095 -0.381068
vn -0.532078 0.756095 -0.381068
vn -0.598697 0.640140 -0.481438
vn -0.472177 0.829405 -0.298559
vn -0.532078 0.756095 -0.381068
vn -0.532078 0.756095 -0.381068
vn 0.139429 -0.819458 0.555921
vn -0.108470 -0.785166 0.609711
vn 0.076134 -0.904293 0.420069
vn 0.139429 -0.819458 0.555921
vn 0.400542 -0.795274 0.455088
vn 0.198427 -0.710185 0.675473
vn 0.076134 -0.904293 0.420069
vn 0.400542 -0.795274 0.455088
vn 0.139429 -0.819458 0.555921
vn 0.198427 -0.710185 0.675473
vn -0.108470 -0.785166 0.609711
vn 0.139429 -0.819458 0.555921
vn -0.124775 0.840191 -0.527740
vn -0.124775 0.840191 -0.527740
vn -0.154676 0.793051 -0.589191
vn -0.096650 0.878268 -0.468300
vn -0.124775 0.840191 -0.527740
vn -0.124775 0.840191 -0.527740
vn -0.321792 -0.880058 0.349210
vn -0.397357 -0.907118 0.138722
vn -0.219844 -0.925275 0.309087
vn -0.321792 -0.880058 0.349210
vn -0.215256 -0.794191 0.568265
vn -0.405701 -0.831075 0.380421
vn -0.219844 -0.925275 0.309087
vn -0.215256 -0.794191 0.568265
vn -0.321792 -0.880058 0.349210
vn -0.405701 -0.831075 0.380421
vn -0.397357 -0.907118 0.138722
vn -0.321792 -0.880058 0.349210
vn 0.297669 0.890868 -0.343143
vn 0.297669 0.890868 -0.343143
vn 0.333520 0.872961 -0.355954
vn 0.262348 0.906750 -0.330119
vn 0.297669 0.890868 -0.343143
vn 0.297669 0.890868 -0.343143
vn 0.334912 -0.842724 0.421486
vn 0.171716 -0.761478 0.625031
vn 0.196842 -0.917326 0.346073
vn 0.334912 -0.842724 0.421486
vn 0.473517 -0.861000 0.185636
vn 0.460591 -0.744211 0.483742
vn 0.196842 -0.917326 0.346073
vn 0.473517 -0.861000 0.185636
vn 0.334912 -0.842724 0.421486
vn 0.460591 -0.744211 0.483742
vn 0.171716 -0.761478 0.625031
vn 0.334912 -0.842724 0.421486
vn -0.302986 0.861359 -0.407751
vn -0.302986 0.861359 -0.407751
vn -0.361388 0.823533 -0.437255
vn -0.247658 0.891848 -0.378514
vn -0.302986 0.861359 -0.407751
vn -0.302986 0.861359 -0.407751
vn -0.095701 -0.832757 0.545304
vn -0.314062 -0.836688 0.448685
vn -0.060416 -0.908421 0.413668
vn -0.095701 -0.832757 0.545304
vn 0.164289 -0.768594 0.618281
vn -0.127806 -0.739425 0.660997
vn -0.060416 -0.908421 0.413668
vn 0.164289 -0.768594 0.618281
vn -0.095701 -0.832757 0.545304
vn -0.127806 -0.739425 0.660997
vn -0.314062 -0.836688 0.448685
vn -0.095701 -0.832757 0.545304
vn 0.087982 0.850518 -0.518535
vn 0.087982 0.850518 -0.518535
vn 0.104841 0.808062 -0.579694
vn 0.071858 0.885525 -0.459000
vn 0.087982 0.850518 -0.518535
vn 0.087982 0.850518 -0.518535
vn -0.099324 -0.819463 -0.564460
vn 0.151789 -0.785178 -0.600380
vn -0.045910 -0.904297 -0.424427
vn -0.099324 -0.819463 -0.564460
vn -0.366979 -0.795273 -0.482563
vn -0.149616 -0.710191 -0.687928
vn -0.045910 -0.904297 -0.424427
vn -0.366979 -0.795273 -0.482563
vn -0.099324 -0.819463 -0.564460
vn -0.149616 -0.710191 -0.687928
vn 0.151789 -0.785178 -0.600380
vn -0.099324 -0.819463 -0.564460
vn 0.086723 0.840196 0.535303
vn 0.086723 0.840196 0.535303
vn 0.112150 0.793056 0.598735
vn 0.062923 0.878273 0.474002
vn 0.086723 0.840196 0.535303
vn 0.086723 0.840196 0.535303
vn 0.345929 -0.880070 -0.325284
vn 0.406242 -0.907129 -0.109930
vn 0.241371 -0.925284 -0.292557
vn 0.345929 -0.880070 -0.325284
vn 0.255337 -0.794204 -0.551401
vn 0.431856 -0.831090 -0.350413
vn 0.241371 -0.925284 -0.292557
vn 0.255337 -0.794204 -0.551401
vn 0.345929 -0.880070 -0.325284
vn 0.431856 -0.831090 -0.350413
vn 0.406242 -0.907129 -0.109930
vn 0.345929 -0.880070 -0.325284
vn -0.321434 0.890880 0.320958
vn -0.321434 0.890880 0.320958
vn -0.358108 0.872974 0.331172
vn -0.285272 0.906760 0.310495
vn -0.321434 0.890880 0.320958
vn -0.321434 0.890880 0.320958
vn -0.303922 -0.842723 -0.444352
vn -0.126583 -0.761484 -0.635704
vn -0.171603 -0.917327 -0.359255
vn -0.303922 -0.842723 -0.444352
vn -0.459043 -0.860993 -0.219021
vn -0.424824 -0.744208 -0.515441
vn -0.171603 -0.917327 -0.359255
vn -0.459043 -0.860993 -0.219021
vn -0.303922 -0.842723 -0.444352
vn -0.424824 -0.744208 -0.515441
vn -0.126583 -0.761484 -0.635704
vn -0.303922 -0.842723 -0.444352
vn 0.273061 0.861358 0.428369
vn 0.273061 0.861358 0.428369
vn 0.329202 0.823532 0.461975
vn 0.219967 0.891849 0.395248
vn 0.273061 0.861358 0.428369
vn 0.273061 0.861358 0.428369
vn 0.134445 -0.832767 -0.537050
vn 0.345335 -0.836701 -0.425058
vn 0.089832 -0.908428 -0.408275
vn 0.134445 -0.832767 -0.537050
vn -0.119658 -0.768600 -0.628439
vn 0.174745 -0.739438 -0.650151
vn 0.089832 -0.908428 -0.408275
vn -0.119658 -0.768600 -0.628439
vn 0.134445 -0.832767 -0.537050
vn 0.174745 -0.739438 -0.650151
vn 0.345335 -0.836701 -0.425058
vn 0.134445 -0.832767 -0.537050
vn -0.124830 0.850527 0.510902
vn -0.124830 0.850527 0.510902
vn -0.146021 0.808073 0.570698
vn -0.104488 0.885533 0.452673
vn -0.124830 0.850527 0.510902
vn -0.124830 0.850527 0.510902
vn -0.668267 -0.742140 -0.051444
vn -0.627863 -0.707990 -0.323323
vn -0.515064 -0.855941 -0.045542
vn -0.668267 -0.742140 -0.051444
vn -0.657404 -0.719355 0.224383
vn -0.858751 -0.509226 -0.056885
vn -0.515064 -0.855941 -0.045542
vn -0.657404 -0.719355 0.224383
vn -0.668267 -0.742140 -0.051444
vn -0.858751 -0.509226 -0.056885
vn -0.627863 -0.707990 -0.323323
vn -0.668267 -0.742140 -0.051444
vn 0.674851 0.736143 0.051674
vn 0.674851 0.736143 0.051674
vn 0.788048 0.613132 0.055227
vn 0.577287 0.815126 0.048051
vn 0.674851 0.736143 0.051674
vn 0.674851 0.736143 0.051674
vn -0.287981 -0.851698 -0.437809
vn -0.016213 -0.904078 -0.427059
vn -0.304965 -0.916469 -0.258999
vn -0.287981 -0.851698 -0.437809
vn -0.537656 -0.733978 -0.414972
vn -0.240138 -0.687445 -0.685386
vn -0.304965 -0.916469 -0.258999
vn -0.537656 -0.733978 -0.414972
vn -0.287981 -0.851698 -0.437809
vn -0.240138 -0.687445 -0.685386
vn -0.016213 -0.904078 -0.427059
vn -0.287981 -0.851698 -0.437809
vn 0.286928 0.847901 0.445799
vn 0.286928 0.847901 0.445799
vn 0.262999 0.764395 0.588669
vn 0.299647 0.895112 0.330129
vn 0.286928 0.847901 0.445799
vn 0.286928 0.847901 0.445799
vn -0.609429 -0.770532 0.186754
vn -0.725284 -0.686602 -0.050418
vn -0.482557 -0.871627 0.086056
vn -0.609429 -0.770532 0.186754
vn -0.446821 -0.795348 0.409600
vn -0.763038 -0.555411 0.330593
vn -0.482557 -0.871627 0.086056
vn -0.446821 -0.795348 0.409600
vn -0.609429 -0.770532 0.186754
vn -0.763038 -0.555411 0.330593
vn -0.725284 -0.686602 -0.050418
vn -0.609429 -0.770532 0.186754
vn 0.614831 0.765104 -0.191307
vn 0.614831 0.765104 -0.191307
vn 0.706811 0.652331 -0.273645
vn 0.534330 0.835854 -0.125853
vn 0.614831 0.765104 -0.191307
vn 0.614831 0.765104 -0.191307
vn -0.580695 -0.761729 -0.287338
vn -0.392316 -0.778651 -0.489685
vn -0.466682 -0.866763 -0.175868
vn -0.580695 -0.761729 -0.287338
vn -0.724524 -0.686369 -0.062947
vn -0.716296 -0.541091 -0.440614
vn -0.466682 -0.866763 -0.175868
vn -0.724524 -0.686369 -0.062947
vn -0.580695 -0.761729 -0.287338
vn -0.716296 -0.541091 -0.440614
vn -0.392316 -0.778651 -0.489685
vn -0.580695 -0.761729 -0.287338
vn 0.585519 0.756124 0.292306
vn 0.585519 0.756124 0.292306
vn 0.667139 0.640177 0.380919
vn 0.513352 0.829427 0.220273
vn 0.585519 0.756124 0.292306
vn 0.585519 0.756124 0.292306
f 1/1/1 3/2/2 4/3/3
f 1/4/4 5/5/5 2/6/6
f 4/7/7 5/8/8 1/9/9
f 2/10/10 3/11/11 1/12/12
f 5/13/13 3/14/14 2/15/15
f 4/16/16 3/17/17 5/18/18
f 6/19/19 8/20/20 9/21/21
f 6/22/22 10/23/23 7/24/24
f 9/25/25 10/26/26 6/27/27
f 7/28/28 8/29/29 6/30/30
f 10/31/31 8/32/32 7/33/33
f 9/34/34 8/35/35 10/36/36
f 11/37/37 13/38/38 14/39/39
f 11/40/40 15/41/41 12/42/42
f 14/43/43 15/44/44 11/45/45
f 12/46/46 13/47/47 11/48/48
f 15/49/49 13/50/50 12/51/51
f 14/52/52 13/53/53 15/54/54
f 16/55/55 18/56/56 19/57/57
f 16/58/58 20/59/59 17/60/60
f 19/61/61 20/62/62 16/63/63
f 17/64/64 18/65/65 16/66/66
f 20/67/67 18/68/68 17/69/69
f 19/70/70 18/71/71 20/72/72
f 21/73/73 23/74/74 24/75/75
f 21/76/76 25/77/77 22/78/78
f 24/79/79 25/80/80 21/81/81
f 22/82/82 23/83/83 21/84/84
f 25/85/85 23/86/86 22/87/87
f 24/88/88 23/89/89 25/90/90
f 26/91/91 28/92/92 29/93/93
f 26/94/94 30/95/95 27/96/96
f 29/97/97 30/98/98 26/99/99
f 27/100/100 28/101/101 26/102/102
f 30/103/103 28/104/104 27/105/105
f 29/106/106 28/107/107 30/108/108
f 31/109/109 33/110/110 34/111/111
f 31/112/112 35/113/113 32/114/114
f 34/115/115 35/116/116 31/117/117
f 32/118/118 33/119/119 31/120/120
f 35/121/121 33/122/122 32/123/123
f 34/124/124 33/125/125 35/126/126
f 36/127/127 38/128/128 39/129/129
f 36/130/130 40/131/131 37/132/132
f 39/133/133 40/134/134 36/135/135
f 37/136/136 38/137/137 36/138/138
f 40/139/139 38/140/140 37/141/141
f 39/142/142 38/143/143 40/144/144
f 41/145/145 43/146/146 44/147/147
f 41/148/148 45/149/149 42/150/150
f 44/151/151 45/152/152 41/153/153
f 42/154/154 43/155/155 41/156/156
f 45/157/157 43/158/158 42/159/159
f 44/160/160 43/161/161 45/162/162
f 46/163/163 48/164/164 49/165/165
f 46/166/166 50/167/167 47/168/168
f 49/169/169 50/170/170 46/171/171
f 47/172/172 48/173/173 46/174/174
f 50/175/175 48/176/176 47/177/177
f 49/178/178 48/179/179 50/180/180
f 51/181/181 53/182/182 54/183/183
f 51/184/184 55/185/185 52/186/186
f 54/187/187 55/188/188 51/189/189
f 52/190/190 53/191/191 51/192/192
f 55/193/193 53/194/194 52/195/195
f 54/196/196 53/197/197 55/198/198
f 56/199/199 58/200/200 59/201/201
f 56/202/202 60/203/203 57/204/204
f 59/205/205 60/206/206 56/207/207
f 57/208/208 58/209/209 56/210/210
f 60/211/211 58/212/212 57/213/213
f 59/214/214 58/215/215 60/216/216
f 61/217/217 63/218/218 64/219/219
f 61/220/220 65/221/221 62/222/222
f 64/223/223 65/224/224 61/225/225
f 62/226/226 63/227/227 61/228/228
f 65/229/229 63/230/230 62/231/231
f 64/232/232 63/233/233 65/234/234
f 66/235/235 68/236/236 69/237/237
f 66/238/238 70/239/239 67/240/240
f 69/241/241 70/242/242 66/243/243
f 67/244/244 68/245/245 66/246/246
f 70/247/247 68/248/248 67/249/249
f 69/250/250 68/251/251 70/252/252
f 71/253/253 73/254/254 74/255/255
f 71/256/256 75/257/257 72/258/258
f 74/259/259 75/260/260 71/261/261
f 72/262/262 73/263/263 71/264/264
f 75/265/265 73/266/266 72/267/267
f 74/268/268 73/269/269 75/270/270
f 76/271/271 78/272/272 79/273/273
f 76/274/274 80/275/275 77/276/276
f 79/277/277 80/278/278 76/279/279
f 77/280/280 78/281/281 76/282/282
f 80/283/283 78/284/284 77/285/285
f 79/286/286 78/287/287 80/288/288
