v 3.470802 15.163635 8.319492
v 5.355935 13.167032 11.337538
v 5.033871 16.012260 6.631014
v 0.740633 16.381123 0.928919
v 1.346282 14.118013 7.681204
v 5.963339 18.075043 -0.153108
v 8.703964 17.791666 -0.797975
v 4.942307 17.697453 -1.459816
v 0.807709 16.412788 0.953151
v 5.607080 17.556931 1.427148
v -0.658459 13.622177 7.004944
v -0.685661 11.148611 9.493752
v 1.260428 14.442031 6.698521
v 0.745513 16.391033 0.891940
v -1.923977 13.154334 5.383900
v 7.722733 17.350058 6.223475
v 11.535692 16.165529 8.280786
v 8.056346 17.757273 3.575687
v 0.761985 16.383844 0.967064
v 5.573243 16.027521 7.181864
v -0.865496 11.133693 6.844903
v -0.632765 8.421272 8.494905
v 0.650190 11.617545 6.515412
v -0.115279 13.819602 2.274323
v -1.936358 10.870189 5.651670
v 3.448910 13.924358 3.456226
v 5.390562 12.904757 3.709748
v 3.268094 14.013490 2.347599
v -0.082800 13.826268 2.313948
v 2.711125 13.394243 4.122820
v -2.940738 11.082140 4.618734
v -3.705173 8.556590 5.348306
v -1.669695 11.293810 5.159266
v -0.100089 13.830999 2.257232
v -3.164367 11.192907 3.243870
v 2.416566 12.086423 7.337308
v 4.147826 9.641521 9.155285
v 3.506024 12.628162 6.026344
v -0.114963 13.811874 2.302244
v 0.800039 11.414392 6.970915
v 4.246313 9.782542 -1.122431
v 5.046481 8.564488 -1.566070
v 3.720092 9.921728 -1.677674
v 2.015938 10.801482 -0.379340
v 4.027528 9.653782 -0.387494
v 1.649577 10.732136 -2.137910
v 1.360382 10.165896 -2.981648
v 1.231455 10.730727 -1.797409
v 2.024070 10.804922 -0.402435
v 2.132865 10.548821 -1.984293
v 3.827604 9.754554 0.272447
v 4.473971 8.630367 0.459090
v 3.734391 9.818027 -0.386664
v 2.004574 10.805326 -0.381700
v 3.308910 9.752887 0.694464
v 3.608123 10.096045 -2.613967
v 4.104556 8.939109 -3.721773
v 2.776193 10.237089 -2.757494
v 2.027832 10.799129 -0.386064
v 3.884905 9.839719 -1.845663
v -0.465475 -0.450657 0.815856
v -0.164159 8.491182 0.924429
v 0.669626 -0.340060 -0.160648
v 0.690408 5.688861 0.108090
v -0.461182 -0.417645 -0.812112
v 0.053471 5.645136 -0.257643
v 0.499156 8.543468 0.968910
v 0.702849 -0.358574 0.894695
v 0.170213 14.827333 0.715545
v 0.096442 14.437222 0.321200
v -0.205608 14.807720 0.191479
v -0.207743 14.798857 0.624646
v 0.371939 5.666998 -0.074777
v 0.700996 5.682333 0.475716
v 0.930501 5.148881 0.096939
v -0.197173 7.924899 1.132952
v 2.176584 10.689268 -0.389724
v 2.286747 10.433210 -0.571538
v 2.171503 10.692402 -0.566186
v 2.018637 10.681908 -0.653962
v 0.914232 16.430862 1.154801
v 0.733839 16.421448 0.903249
v 0.878823 16.243607 0.965516
v -0.176715 13.417284 2.353400
v 0.157525 13.714201 2.274660
v -0.160868 13.689102 2.253309
v 0.027971 13.562782 2.611646
v 0.188558 8.231222 1.348545
v 0.156113 -0.405833 1.065457
vt 0.160125 0.498861
vt 0.310438 0.494019
vt 0.158043 0.995125
vt 0.160125 0.498861
vt 0.006594 0.494019
vt 0.163640 0.013645
vt 0.158043 0.995125
vt 0.006594 0.494019
vt 0.160125 0.498861
vt 0.163640 0.013645
vt 0.310438 0.494019
vt 0.160125 0.498861
vt 0.010500 0.494019
vt 0.302625 0.494019
vt 0.159734 0.013645
vt 0.150231 0.983407
vt 0.302625 0.494019
vt 0.010500 0.494019
vt 0.168637 0.501597
vt 0.304236 0.503911
vt 0.171244 1.000000
vt 0.168637 0.501597
vt 0.017810 0.500005
vt 0.173630 0.019248
vt 0.171244 1.000000
vt 0.017810 0.500005
vt 0.168637 0.501597
vt 0.173630 0.019248
vt 0.304236 0.503911
vt 0.168637 0.501597
vt 0.006091 0.746098
vt 0.296424 0.746098
vt 0.154099 0.382529
vt 0.155619 0.988281
vt 0.296424 0.746098
vt 0.006091 0.746098
vt 0.152965 0.497843
vt 0.315825 0.494147
vt 0.162887 0.991661
vt 0.152965 0.497843
vt 0.009757 0.498054
vt 0.164062 0.004385
vt 0.162887 0.991661
vt 0.009757 0.498054
vt 0.152965 0.497843
vt 0.164062 0.004385
vt 0.315825 0.494147
vt 0.152965 0.497843
vt 0.013664 0.689460
vt 0.308012 0.689460
vt 0.171875 0.008291
vt 0.162887 0.991661
vt 0.308012 0.689460
vt 0.013664 0.689460
vt 0.160314 0.493188
vt 0.318018 0.496427
vt 0.155378 0.990901
vt 0.160314 0.493188
vt 0.003335 0.492520
vt 0.167969 0.007812
vt 0.155378 0.990901
vt 0.003335 0.492520
vt 0.160314 0.493188
vt 0.167969 0.007812
vt 0.318018 0.496427
vt 0.160314 0.493188
vt 0.007241 0.519864
vt 0.321925 0.519864
vt 0.160156 0.007812
vt 0.128034 0.990901
vt 0.321925 0.519864
vt 0.007241 0.519864
vt 0.164031 0.494955
vt 0.314344 0.497925
vt 0.161949 0.987313
vt 0.164031 0.494955
vt 0.006594 0.490113
vt 0.167547 0.009739
vt 0.161949 0.987313
vt 0.006594 0.490113
vt 0.164031 0.494955
vt 0.167547 0.009739
vt 0.314344 0.497925
vt 0.164031 0.494955
vt 0.010500 0.494019
vt 0.298719 0.494019
vt 0.159734 0.021458
vt 0.154137 0.987313
vt 0.298719 0.494019
vt 0.010500 0.494019
vt 0.153012 0.497691
vt 0.308143 0.503911
vt 0.159525 0.984375
vt 0.153012 0.497691
vt 0.002185 0.496098
vt 0.165818 0.015342
vt 0.159525 0.984375
vt 0.002185 0.496098
vt 0.153012 0.497691
vt 0.165818 0.015342
vt 0.308143 0.503911
vt 0.153012 0.497691
vt 0.302966 0.496098
vt 0.015174 0.492192
vt 0.173630 0.015342
vt 0.163432 0.980469
vt 0.015174 0.492192
vt 0.302966 0.496098
vt 0.149059 0.493937
vt 0.311918 0.494147
vt 0.155075 0.987755
vt 0.149059 0.493937
vt 0.005851 0.494147
vt 0.164062 0.008291
vt 0.155075 0.987755
vt 0.005851 0.494147
vt 0.149059 0.493937
vt 0.164062 0.008291
vt 0.311918 0.494147
vt 0.149059 0.493937
vt 0.013664 0.689460
vt 0.304106 0.693366
vt 0.160156 0.016104
vt 0.162887 0.991661
vt 0.304106 0.693366
vt 0.013664 0.689460
vt 0.156408 0.493188
vt 0.314112 0.496427
vt 0.155378 0.983088
vt 0.156408 0.493188
vt 0.011147 0.488614
vt 0.160156 0.011719
vt 0.155378 0.983088
vt 0.011147 0.488614
vt 0.156408 0.493188
vt 0.160156 0.011719
vt 0.314112 0.496427
vt 0.156408 0.493188
vt 0.007241 0.492520
vt 0.306300 0.492520
vt 0.167969 0.007812
vt 0.151472 0.983088
vt 0.306300 0.492520
vt 0.007241 0.492520
vt 0.421844 0.674642
vt 0.568250 0.638550
vt 0.333824 0.999032
vt 0.421844 0.674642
vt 0.248782 0.638550
vt 0.460515 0.091770
vt 0.333824 0.999032
vt 0.248782 0.638550
vt 0.421844 0.674642
vt 0.460515 0.091770
vt 0.568250 0.638550
vt 0.421844 0.674642
vt 0.014407 0.490113
vt 0.314344 0.490113
vt 0.155828 0.013645
vt 0.154137 0.979501
vt 0.314344 0.490113
vt 0.014407 0.490113
vt 0.750669 0.775035
vt 0.679236 0.750005
vt 0.339213 1.000000
vt 0.750669 0.775035
vt 0.697497 0.750005
vt 0.931443 0.370811
vt 0.339213 1.000000
vt 0.697497 0.750005
vt 0.750669 0.775035
vt 0.931443 0.370811
vt 0.679236 0.750005
vt 0.750669 0.775035
vt 0.295153 0.492192
vt 0.011268 0.488286
vt 0.161912 0.011436
vt 0.147807 0.976562
vt 0.011268 0.488286
vt 0.295153 0.492192
vt 0.102184 0.720499
vt 0.261137 0.689460
vt 0.334762 0.999474
vt 0.102184 0.720499
vt 0.013664 0.689460
vt 0.000000 0.219229
vt 0.334762 0.999474
vt 0.013664 0.689460
vt 0.102184 0.720499
vt 0.000000 0.219229
vt 0.261137 0.689460
vt 0.102184 0.720499
vt 0.013664 0.474616
vt 0.311918 0.478522
vt 0.171875 0.004385
vt 0.158981 0.987755
vt 0.311918 0.478522
vt 0.013664 0.474616
vt 0.797033 0.641626
vt 0.853175 0.601895
vt 0.335065 0.998713
vt 0.797033 0.641626
vt 0.600991 0.601895
vt 1.000000 0.000000
vt 0.335065 0.998713
vt 0.600991 0.601895
vt 0.797033 0.641626
vt 1.000000 0.000000
vt 0.853175 0.601895
vt 0.797033 0.641626
vt 0.003335 0.484708
vt 0.310206 0.484708
vt 0.160156 0.015625
vt 0.131940 0.983088
vt 0.310206 0.484708
vt 0.003335 0.484708
vt 0.735479 0.224885
vt 0.739822 0.224885
vt 0.664488 0.224885
vt 0.735479 0.224885
vt 0.664488 0.224885
vt 0.578938 0.224885
vt 0.735479 0.224885
vt 0.578938 0.224885
vt 0.579888 0.224885
vt 0.615213 0.728050
vt 0.659684 0.712425
vt 0.625735 0.592506
vt 0.539315 0.535143
vt 0.591347 0.535143
vt 0.636531 0.914717
vt 0.625735 0.592506
vt 0.659684 0.712425
vt 0.695501 0.677269
vt 0.625813 0.064729
vt 0.633319 0.866685
vt 0.690924 0.791646
vt 0.625813 0.064729
vt 0.690924 0.791646
vt 0.751982 0.422411
vt 0.682868 0.476887
vt 0.639023 0.476887
vt 0.633873 0.458530
vt 0.682868 0.476887
vt 0.633873 0.458530
vt 0.663478 0.467708
vt 0.607450 0.242724
vt 0.534674 0.459615
vt 0.590096 0.964831
vt 0.607450 0.242724
vt 0.590096 0.964831
vt 0.625642 0.957018
vt 0.562018 0.381490
vt 0.653359 0.381490
vt 0.677284 0.812487
vt 0.562018 0.381490
vt 0.677284 0.812487
vt 0.625253 0.812487
vt 0.686347 0.945840
vt 0.671651 0.344286
vt 0.627832 0.344286
vt 0.686347 0.945840
vt 0.627832 0.344286
vt 0.584013 0.344286
vt 0.686347 0.945840
vt 0.584013 0.344286
vt 0.649079 0.972643
vt 0.617613 0.049104
vt 0.759353 0.045197
vt 0.696328 0.783833
vt 0.617613 0.049104
vt 0.696328 0.783833
vt 0.650400 0.764712
vt 0.676934 0.684130
vt 0.700234 0.932271
vt 0.763259 0.049104
vt 0.676934 0.684130
vt 0.763259 0.049104
vt 0.618291 0.049104
vt 0.676934 0.684130
vt 0.618291 0.049104
vt 0.628269 0.474013
vt 0.632175 0.481825
vt 0.762822 0.049104
vt 0.896294 0.049104
vt 0.632175 0.481825
vt 0.896294 0.049104
vt 0.740263 0.570849
vt 0.632175 0.481825
vt 0.740263 0.570849
vt 0.678613 0.602099
vt 0.684747 0.297411
vt 0.573994 0.754442
vt 0.604316 0.957559
vt 0.684747 0.297411
vt 0.604316 0.957559
vt 0.669472 0.949206
vt 0.684747 0.297411
vt 0.669472 0.949206
vt 0.735390 0.303365
vt 0.636531 0.914717
vt 0.629631 0.901852
vt 0.611743 0.914717
vt 0.602716 0.527880
vt 0.655612 0.520888
vt 0.672610 0.936256
vt 0.602716 0.527880
vt 0.672610 0.936256
vt 0.629095 0.950706
vt 0.698994 0.430224
vt 0.626153 0.430224
vt 0.621282 0.888206
vt 0.698994 0.430224
vt 0.621282 0.888206
vt 0.687028 0.888206
vt 0.573144 0.430224
vt 0.624776 0.430224
vt 0.620621 0.888206
vt 0.573144 0.430224
vt 0.620621 0.888206
vt 0.560526 0.892112
vt 0.671237 0.520888
vt 0.592675 0.531786
vt 0.634744 0.970237
vt 0.671237 0.520888
vt 0.634744 0.970237
vt 0.684329 0.951881
vt 0.576972 0.508340
vt 0.539704 0.535143
vt 0.611743 0.914717
vt 0.576972 0.508340
vt 0.611743 0.914717
vt 0.629631 0.901852
vt 0.591347 0.535143
vt 0.576972 0.508340
vt 0.629631 0.901852
vt 0.591347 0.535143
vt 0.629631 0.901852
vt 0.636531 0.914717
vt 0.619150 0.377994
vt 0.688515 0.369771
vt 0.675055 0.754230
vt 0.619150 0.377994
vt 0.675055 0.754230
vt 0.655666 0.745052
vt 0.679205 0.412740
vt 0.613788 0.429185
vt 0.633873 0.825718
vt 0.679205 0.412740
vt 0.633873 0.825718
vt 0.681992 0.824543
vt 0.668984 0.377583
vt 0.577643 0.377583
vt 0.635117 0.734699
vt 0.668984 0.377583
vt 0.635117 0.734699
vt 0.678961 0.734699
vt 0.751982 0.422411
vt 0.626763 0.064729
vt 0.754720 0.064729
vt 0.650400 0.764712
vt 0.594256 0.722154
vt 0.512532 0.049104
vt 0.650400 0.764712
vt 0.512532 0.049104
vt 0.621519 0.056916
vt 0.655666 0.745052
vt 0.626061 0.735874
vt 0.563006 0.358872
vt 0.655666 0.745052
vt 0.563006 0.358872
vt 0.619150 0.377994
vt 0.611743 0.914717
vt 0.539704 0.535143
vt 0.539315 0.535143
vt 0.636531 0.914717
vt 0.611743 0.914717
vt 0.539315 0.535143
vn -0.298348 0.836064 0.460420
vn -0.080442 0.918494 0.387165
vn -0.373113 0.883453 0.283368
vn -0.298348 0.836064 0.460420
vn -0.498458 0.703767 0.506213
vn -0.207459 0.751244 0.626572
vn -0.373113 0.883453 0.283368
vn -0.498458 0.703767 0.506213
vn -0.298348 0.836064 0.460420
vn -0.207459 0.751244 0.626572
vn -0.080442 0.918494 0.387165
vn -0.298348 0.836064 0.460420
vn 0.316818 -0.850042 -0.420779
vn 0.316818 -0.850042 -0.420779
vn 0.272980 -0.814892 -0.511305
vn 0.357058 -0.875543 -0.325475
vn 0.316818 -0.850042 -0.420779
vn 0.316818 -0.850042 -0.420779
vn -0.093950 0.993115 0.069973
vn -0.145479 0.974983 -0.168060
vn -0.283178 0.952555 0.111572
vn -0.093950 0.993115 0.069973
vn -0.036818 0.952014 0.303833
vn 0.108278 0.993844 0.023442
vn -0.283178 0.952555 0.111572
vn -0.036818 0.952014 0.303833
vn -0.093950 0.993115 0.069973
vn 0.108278 0.993844 0.023442
vn -0.145479 0.974983 -0.168060
vn -0.093950 0.993115 0.069973
vn 0.138375 -0.987151 -0.079912
vn 0.138375 -0.987151 -0.079912
vn 0.034951 -0.997784 -0.056615
vn 0.240228 -0.965311 -0.102303
vn 0.138375 -0.987151 -0.079912
vn 0.138375 -0.987151 -0.079912
vn -0.487914 0.749068 0.448147
vn -0.263494 0.811596 0.521424
vn -0.456522 0.845175 0.277969
vn -0.487914 0.749068 0.448147
vn -0.683234 0.641863 0.348142
vn -0.500286 0.616861 0.607615
vn -0.456522 0.845175 0.277969
vn -0.683234 0.641863 0.348142
vn -0.487914 0.749068 0.448147
vn -0.500286 0.616861 0.607615
vn -0.263494 0.811596 0.521424
vn -0.487914 0.749068 0.448147
vn 0.482312 -0.774094 -0.410065
vn 0.482312 -0.774094 -0.410065
vn 0.493738 -0.713582 -0.497014
vn 0.465411 -0.825818 -0.318461
vn 0.482312 -0.774094 -0.410065
vn 0.482312 -0.774094 -0.410065
vn -0.142217 0.927105 0.346772
vn -0.010124 0.988520 0.150753
vn -0.304416 0.923511 0.233363
vn -0.142217 0.927105 0.346772
vn -0.265828 0.810394 0.522108
vn 0.033719 0.891877 0.451019
vn -0.304416 0.923511 0.233363
vn -0.265828 0.810394 0.522108
vn -0.142217 0.927105 0.346772
vn 0.033719 0.891877 0.451019
vn -0.010124 0.988520 0.150753
vn -0.142217 0.927105 0.346772
vn 0.180513 -0.929523 -0.321562
vn 0.180513 -0.929523 -0.321562
vn 0.091160 -0.920913 -0.378958
vn 0.267817 -0.927580 -0.260516
vn 0.180513 -0.929523 -0.321562
vn 0.180513 -0.929523 -0.321562
vn -0.402101 0.668181 0.625979
vn -0.078837 0.717941 0.691626
vn -0.378875 0.823703 0.421862
vn -0.402101 0.668181 0.625979
vn -0.680616 0.544063 0.490670
vn -0.397284 0.451814 0.798768
vn -0.378875 0.823703 0.421862
vn -0.680616 0.544063 0.490670
vn -0.402101 0.668181 0.625979
vn -0.397284 0.451814 0.798768
vn -0.078837 0.717941 0.691626
vn -0.402101 0.668181 0.625979
vn 0.400022 -0.697995 -0.593957
vn 0.400022 -0.697995 -0.593957
vn 0.403945 -0.593341 -0.696257
vn 0.387526 -0.787688 -0.478927
vn 0.400022 -0.697995 -0.593957
vn 0.400022 -0.697995 -0.593957
vn 0.125985 0.923724 0.361748
vn 0.212401 0.976199 0.043842
vn -0.121065 0.948458 0.292865
vn 0.125985 0.923724 0.361748
vn 0.025548 0.768453 0.639396
vn 0.381847 0.828839 0.408925
vn -0.121065 0.948458 0.292865
vn 0.025548 0.768453 0.639396
vn 0.125985 0.923724 0.361748
vn 0.381847 0.828839 0.408925
vn 0.212401 0.976199 0.043842
vn 0.125985 0.923724 0.361748
vn -0.084241 -0.932332 -0.351654
vn -0.084241 -0.932332 -0.351654
vn -0.222790 -0.896622 -0.382666
vn 0.056114 -0.948060 -0.313104
vn -0.084241 -0.932332 -0.351654
vn -0.084241 -0.932332 -0.351654
vn -0.632835 0.622046 0.461062
vn -0.395444 0.601083 0.694495
vn -0.491519 0.801180 0.341349
vn -0.632835 0.622046 0.461062
vn -0.799801 0.573785 0.176320
vn -0.737707 0.383747 0.555452
vn -0.491519 0.801180 0.341349
vn -0.799801 0.573785 0.176320
vn -0.632835 0.622046 0.461062
vn -0.737707 0.383747 0.555452
vn -0.395444 0.601083 0.694495
vn -0.632835 0.622046 0.461062
vn 0.611610 -0.655688 -0.442726
vn 0.611610 -0.655688 -0.442726
vn 0.677783 -0.538588 -0.500533
vn 0.532328 -0.758735 -0.375430
vn 0.611610 -0.655688 -0.442726
vn 0.611610 -0.655688 -0.442726
vn -0.126440 0.769270 0.626288
vn 0.166555 0.854733 0.491621
vn -0.244298 0.873054 0.422013
vn -0.126440 0.769270 0.626288
vn -0.405363 0.598199 0.691259
vn 0.009423 0.600959 0.799225
vn -0.244298 0.873054 0.422013
vn -0.405363 0.598199 0.691259
vn -0.126440 0.769270 0.626288
vn 0.009423 0.600959 0.799225
vn 0.166555 0.854733 0.491621
vn -0.126440 0.769270 0.626288
vn 0.147236 -0.790695 -0.594241
vn 0.147236 -0.790695 -0.594241
vn 0.076789 -0.713314 -0.696625
vn 0.214529 -0.851129 -0.479122
vn 0.147236 -0.790695 -0.594241
vn 0.147236 -0.790695 -0.594241
vn 0.644545 0.764549 0.005194
vn 0.533947 0.787142 -0.308720
vn 0.436616 0.895901 0.082021
vn 0.644545 0.764549 0.005194
vn 0.683415 0.656873 0.318531
vn 0.820052 0.566996 -0.077656
vn 0.436616 0.895901 0.082021
vn 0.683415 0.656873 0.318531
vn 0.644545 0.764549 0.005194
vn 0.820052 0.566996 -0.077656
vn 0.533947 0.787142 -0.308720
vn 0.644545 0.764549 0.005194
vn -0.611959 -0.790676 -0.018386
vn -0.611959 -0.790676 -0.018386
vn -0.716008 -0.697617 0.025735
vn -0.494793 -0.866789 -0.062112
vn -0.611959 -0.790676 -0.018386
vn -0.611959 -0.790676 -0.018386
vn 0.121307 0.937172 -0.327098
vn -0.201404 0.948787 -0.243391
vn 0.181173 0.980175 -0.080204
vn 0.121307 0.937172 -0.327098
vn 0.430519 0.821264 -0.374404
vn 0.048074 0.821682 -0.567915
vn 0.181173 0.980175 -0.080204
vn 0.430519 0.821264 -0.374404
vn 0.121307 0.937172 -0.327098
vn 0.048074 0.821682 -0.567915
vn -0.201404 0.948787 -0.243391
vn 0.121307 0.937172 -0.327098
vn -0.132141 -0.948975 0.286332
vn -0.132141 -0.948975 0.286332
vn -0.095026 -0.902488 0.420102
vn -0.166424 -0.975122 0.146425
vn -0.132141 -0.948975 0.286332
vn -0.132141 -0.948975 0.286332
vn 0.623661 0.726230 0.289201
vn 0.709225 0.704233 -0.032481
vn 0.426421 0.877194 0.220672
vn 0.623661 0.726230 0.289201
vn 0.468694 0.667408 0.578699
vn 0.789241 0.510460 0.341364
vn 0.426421 0.877194 0.220672
vn 0.468694 0.667408 0.578699
vn 0.623661 0.726230 0.289201
vn 0.789241 0.510460 0.341364
vn 0.709225 0.704233 -0.032481
vn 0.623661 0.726230 0.289201
vn -0.592808 -0.755537 -0.278824
vn -0.592808 -0.755537 -0.278824
vn -0.691224 -0.652140 -0.311326
vn -0.481686 -0.842741 -0.240346
vn -0.592808 -0.755537 -0.278824
vn -0.592808 -0.755537 -0.278824
vn 0.494434 0.836363 -0.236709
vn 0.222088 0.877576 -0.424896
vn 0.363332 0.930961 -0.036075
vn 0.494434 0.836363 -0.236709
vn 0.711757 0.702075 -0.022180
vn 0.598580 0.672950 -0.434557
vn 0.363332 0.930961 -0.036075
vn 0.711757 0.702075 -0.022180
vn 0.494434 0.836363 -0.236709
vn 0.598580 0.672950 -0.434557
vn 0.222088 0.877576 -0.424896
vn 0.494434 0.836363 -0.236709
vn -0.474304 -0.856531 0.203444
vn -0.474304 -0.856531 0.203444
vn -0.537856 -0.782847 0.312828
vn -0.400587 -0.911857 0.089699
vn -0.474304 -0.856531 0.203444
vn -0.474304 -0.856531 0.203444
vn 0.079899 -0.996602 -0.019999
vn 0.079899 -0.996602 -0.019999
vn 0.079899 -0.996602 -0.019999
vn 0.079899 -0.996602 -0.019999
vn 0.079899 -0.996602 -0.019999
vn 0.079899 -0.996602 -0.019999
vn 0.079899 -0.996602 -0.019999
vn 0.079899 -0.996602 -0.019999
vn 0.079899 -0.996602 -0.019999
vn 0.322549 0.034221 -0.945934
vn 0.789764 0.361388 -0.495652
vn 0.876352 0.135174 -0.462314
vn -0.766312 0.183541 0.615693
vn -0.176613 -0.061500 0.982357
vn -0.546462 0.105808 0.830773
vn 0.876352 0.135174 -0.462314
vn 0.789764 0.361388 -0.495652
vn 0.927763 0.159655 0.337292
vn -0.991161 0.060556 -0.118037
vn -0.986144 0.029944 -0.163164
vn -0.989608 0.013789 -0.143131
vn -0.991161 0.060556 -0.118037
vn -0.989608 0.013789 -0.143131
vn -0.993004 0.034114 -0.113042
vn -0.500801 0.699094 0.510358
vn -0.500801 0.699094 0.510358
vn -0.578889 0.285123 0.763932
vn -0.500801 0.699094 0.510358
vn -0.578889 0.285123 0.763932
vn -0.578889 0.285123 0.763932
vn -0.993004 0.034114 -0.113042
vn -0.989608 0.013789 -0.143131
vn -0.766312 0.183541 0.615693
vn -0.993004 0.034114 -0.113042
vn -0.766312 0.183541 0.615693
vn -0.966708 0.250876 -0.050361
vn -0.131848 0.039611 0.990478
vn -0.131848 0.039611 0.990478
vn -0.176613 -0.061500 0.982357
vn -0.131848 0.039611 0.990478
vn -0.176613 -0.061500 0.982357
vn -0.766312 0.183541 0.615693
vn 0.879218 -0.080029 -0.469650
vn 0.842858 0.067130 -0.533933
vn 0.367729 -0.024185 -0.929619
vn 0.879218 -0.080029 -0.469650
vn 0.367729 -0.024185 -0.929619
vn 0.467320 0.045266 -0.882929
vn 0.879218 -0.080029 -0.469650
vn 0.467320 0.045266 -0.882929
vn 0.485777 0.075917 -0.870780
vn 0.075035 -0.020872 0.996962
vn 0.829025 -0.010013 0.559122
vn 0.919180 -0.008955 0.393736
vn 0.075035 -0.020872 0.996962
vn 0.919180 -0.008955 0.393736
vn 0.155591 -0.099762 0.982771
vn 0.963610 -0.021590 0.266440
vn 0.919180 -0.008955 0.393736
vn 0.829025 -0.010013 0.559122
vn 0.963610 -0.021590 0.266440
vn 0.829025 -0.010013 0.559122
vn 0.981826 -0.006637 0.189665
vn 0.963610 -0.021590 0.266440
vn 0.981826 -0.006637 0.189665
vn 0.903630 -0.064003 0.423505
vn 0.307006 -0.064407 -0.949526
vn 0.453548 0.035258 -0.890534
vn 0.453548 0.035258 -0.890534
vn 0.307006 -0.064407 -0.949526
vn 0.453548 0.035258 -0.890534
vn 0.467320 0.045266 -0.882929
vn 0.307006 -0.064407 -0.949526
vn 0.467320 0.045266 -0.882929
vn 0.367729 -0.024185 -0.929619
vn 0.967596 -0.215508 0.131585
vn 0.919180 -0.008955 0.393736
vn 0.963610 -0.021590 0.266440
vn 0.967596 -0.215508 0.131585
vn 0.963610 -0.021590 0.266440
vn 0.842858 0.067130 -0.533933
vn 0.967596 -0.215508 0.131585
vn 0.842858 0.067130 -0.533933
vn 0.879218 -0.080029 -0.469650
vn 0.734285 0.408896 -0.541876
vn 0.633453 0.261432 -0.728279
vn 0.633453 0.261432 -0.728279
vn 0.963610 -0.021590 0.266440
vn 0.903630 -0.064003 0.423505
vn 0.876352 0.135174 -0.462314
vn 0.963610 -0.021590 0.266440
vn 0.876352 0.135174 -0.462314
vn 0.927763 0.159655 0.337292
vn -0.817936 0.307630 0.486153
vn -0.957154 0.287730 0.032675
vn -0.957154 0.287730 0.032675
vn -0.817936 0.307630 0.486153
vn -0.957154 0.287730 0.032675
vn -0.817936 0.307630 0.486153
vn -0.494339 0.258185 0.830042
vn -0.817936 0.307630 0.486153
vn -0.817936 0.307630 0.486153
vn -0.494339 0.258185 0.830042
vn -0.817936 0.307630 0.486153
vn -0.494339 0.258185 0.830042
vn 0.307006 -0.064407 -0.949526
vn 0.367729 -0.024185 -0.929619
vn 0.322549 0.034221 -0.945934
vn 0.307006 -0.064407 -0.949526
vn 0.322549 0.034221 -0.945934
vn 0.876352 0.135174 -0.462314
vn 0.879218 -0.080029 -0.469650
vn 0.485777 0.075917 -0.870780
vn 0.633453 0.261432 -0.728279
vn 0.879218 -0.080029 -0.469650
vn 0.633453 0.261432 -0.728279
vn 0.633453 0.261432 -0.728279
vn 0.967596 -0.215508 0.131585
vn 0.879218 -0.080029 -0.469650
vn 0.827690 -0.468616 0.308751
vn 0.967596 -0.215508 0.131585
vn 0.827690 -0.468616 0.308751
vn 0.827690 -0.468616 0.308751
vn 0.155591 -0.099762 0.982771
vn 0.919180 -0.008955 0.393736
vn 0.871028 -0.077017 0.485158
vn 0.155591 -0.099762 0.982771
vn 0.871028 -0.077017 0.485158
vn 0.871028 -0.077017 0.485158
vn -0.989608 0.013789 -0.143131
vn -0.986144 0.029944 -0.163164
vn -0.995465 0.024153 -0.092010
vn -0.989608 0.013789 -0.143131
vn -0.995465 0.024153 -0.092010
vn -0.995465 0.024153 -0.092010
vn 0.045400 0.247407 -0.967847
vn 0.045400 0.247407 -0.967847
vn 0.045400 0.247407 -0.967847
vn 0.045400 0.247407 -0.967847
vn 0.045400 0.247407 -0.967847
vn 0.045400 0.247407 -0.967847
vn -0.993004 0.034114 -0.113042
vn -0.996409 0.084666 -0.000910
vn -0.991161 0.060556 -0.118037
vn 0.155591 -0.099762 0.982771
vn -0.467256 -0.111976 0.877002
vn -0.411982 -0.024851 0.910853
vn 0.155591 -0.099762 0.982771
vn -0.411982 -0.024851 0.910853
vn 0.075035 -0.020872 0.996962
vn -0.578889 0.285123 0.763932
vn -0.578889 0.285123 0.763932
vn -0.467256 -0.111976 0.877002
vn -0.578889 0.285123 0.763932
vn -0.467256 -0.111976 0.877002
vn 0.155591 -0.099762 0.982771
vn -0.849941 0.444700 0.282562
vn -0.966708 0.250876 -0.050361
vn -0.766312 0.183541 0.615693
vn -0.546462 0.105808 0.830773
vn -0.849941 0.444700 0.282562
vn -0.766312 0.183541 0.615693
f 1/1/1 3/2/2 4/3/3
f 1/4/4 5/5/5 2/6/6
f 4/7/7 5/8/8 1/9/9
f 2/10/10 3/11/11 1/12/12
f 5/13/13 3/14/14 2/15/15
f 4/16/16 3/17/17 5/18/18
f 6/19/19 8/20/20 9/21/21
f 6/22/22 10/23/23 7/24/24
f 9/25/25 10/26/26 6/27/27
f 7/28/28 8/29/29 6/30/30
f 10/31/31 8/32/32 7/33/33
f 9/34/34 8/35/35 10/36/36
f 11/37/37 13/38/38 14/39/39
f 11/40/40 15/41/41 12/42/42
f 14/43/43 15/44/44 11/45/45
f 12/46/46 13/47/47 11/48/48
f 15/49/49 13/50/50 12/51/51
f 14/52/52 13/53/53 15/54/54
f 16/55/55 18/56/56 19/57/57
f 16/58/58 20/59/59 17/60/60
f 19/61/61 20/62/62 16/63/63
f 17/64/64 18/65/65 16/66/66
f 20/67/67 18/68/68 17/69/69
f 19/70/70 18/71/71 20/72/72
f 21/73/73 23/74/74 24/75/75
f 21/76/76 25/77/77 22/78/78
f 24/79/79 25/80/80 21/81/81
f 22/82/82 23/83/83 21/84/84
f 25/85/85 23/86/86 22/87/87
f 24/88/88 23/89/89 25/90/90
f 26/91/91 28/92/92 29/93/93
f 26/94/94 30/95/95 27/96/96
f 29/97/97 30/98/98 26/99/99
f 27/100/100 28/101/101 26/102/102
f 30/103/103 28/104/104 27/105/105
f 29/106/106 28/107/107 30/108/108
f 31/109/109 33/110/110 34/111/111
f 31/112/112 35/113/113 32/114/114
f 34/115/115 35/116/116 31/117/117
f 32/118/118 33/119/119 31/120/120
f 35/121/121 33/122/122 32/123/123
f 34/124/124 33/125/125 35/126/126
f 36/127/127 38/128/128 39/129/129
f 36/130/130 40/131/131 37/132/132
f 39/133/133 40/134/134 36/135/135
f 37/136/136 38/137/137 36/138/138
f 40/139/139 38/140/140 37/141/141
f 39/142/142 38/143/143 40/144/144
f 41/145/145 43/146/146 44/147/147
f 41/148/148 45/149/149 42/150/150
f 44/151/151 45/152/152 41/153/153
f 42/154/154 43/155/155 41/156/156
f 45/157/157 43/158/158 42/159/159
f 44/160/160 43/161/161 45/162/162
f 46/163/163 48/164/164 49/165/165
f 46/166/166 50/167/167 47/168/168
f 49/169/169 50/170/170 46/171/171
f 47/172/172 48/173/173 46/174/174
f 50/175/175 48/176/176 47/177/177
f 49/178/178 48/179/179 50/180/180
f 51/181/181 53/182/182 54/183/183
f 51/184/184 55/185/185 52/186/186
f 54/187/187 55/188/188 51/189/189
f 52/190/190 53/191/191 51/192/192
f 55/193/193 53/194/194 52/195/195
f 54/196/196 53/197/197 55/198/198
f 56/199/199 58/200/200 59/201/201
f 56/202/202 60/203/203 57/204/204
f 59/205/205 60/206/206 56/207/207
f 57/208/208 58/209/209 56/210/210
f 60/211/211 58/212/212 57/213/213
f 59/214/214 58/215/215 60/216/216
f 63/217/217 68/218/218 89/219/219
f 63/220/220 89/221/221 61/222/222
f 63/223/223 61/224/224 65/225/225
f 80/226/226 79/227/227 78/228/228
f 72/229/229 69/230/230 81/231/231
f 78/232/232 79/233/233 77/234/234
f 61/235/235 76/236/236 62/237/237
f 61/238/238 62/239/239 66/240/240
f 85/241/241 86/242/242 84/243/243
f 85/244/244 84/245/245 87/246/246
f 66/247/247 62/248/248 72/249/249
f 66/250/250 72/251/251 71/252/252
f 62/253/253 67/254/254 69/255/255
f 62/256/256 69/257/257 72/258/258
f 70/259/259 64/260/260 73/261/261
f 70/262/262 73/263/263 66/264/264
f 70/265/265 66/266/266 71/267/267
f 89/268/268 68/269/269 67/270/270
f 89/271/271 67/272/272 88/273/273
f 74/274/274 67/275/275 68/276/276
f 74/277/277 68/278/278 63/279/279
f 74/280/280 63/281/281 75/282/282
f 75/283/283 63/284/284 65/285/285
f 75/286/286 65/287/287 66/288/288
f 75/289/289 66/290/290 73/291/291
f 69/292/292 67/293/293 74/294/294
f 69/295/295 74/296/296 64/297/297
f 69/298/298 64/299/299 70/300/300
f 81/301/301 83/302/302 82/303/303
f 74/304/304 75/305/305 78/306/306
f 74/307/307 78/308/308 77/309/309
f 64/310/310 74/311/311 77/312/312
f 64/313/313 77/314/314 79/315/315
f 73/316/316 64/317/317 79/318/318
f 73/319/319 79/320/320 80/321/321
f 75/322/322 73/323/323 80/324/324
f 75/325/325 80/326/326 78/327/327
f 70/328/328 71/329/329 82/330/330
f 70/331/331 82/332/332 83/333/333
f 69/334/334 70/335/335 83/336/336
f 69/337/337 83/338/338 81/339/339
f 88/340/340 67/341/341 85/342/342
f 88/343/343 85/344/344 87/345/345
f 62/346/346 76/347/347 84/348/348
f 62/349/349 84/350/350 86/351/351
f 67/352/352 62/353/353 86/354/354
f 67/355/355 86/356/356 85/357/357
f 66/358/358 65/359/359 61/360/360
f 88/361/361 76/362/362 61/363/363
f 88/364/364 61/365/365 89/366/366
f 87/367/367 84/368/368 76/369/369
f 87/370/370 76/371/371 88/372/372
f 82/373/373 71/374/374 72/375/375
f 81/376/376 82/377/377 72/378/378
