v -7.225647 -0.163550 -9.225647
v -8.618872 2.897852 4.629361
v -4.888481 4.010121 -6.888481
v -3.444240 3.365713 6.888481
v 8.776226 -0.133839 -8.484904
v 11.862382 -0.151735 5.730886
v 6.229339 3.181038 -0.020467
v -0.516362 2.981296 -10.093977
v -2.978679 0.034207 10.125030
v -11.978251 -0.163550 0.000000
v 2.084651 4.965765 -6.773295
v -4.925032 5.728038 0.036175
v 7.257804 -0.093125 11.153069
v 7.371166 2.022522 -7.764768
v -10.381542 2.978482 -1.728830
v -9.846122 -0.105513 8.222696
v -0.552179 -0.180812 -12.066442
v -0.983922 -6.988159 0.963711
vt 0.544217 0.227961
vt 0.782008 0.518787
vt 0.826196 0.185261
vt 0.000000 0.519668
vt 0.183920 0.122345
vt 0.502864 0.561173
vt 0.130004 0.719042
vt 0.082511 0.873797
vt 0.425670 0.955725
vt 0.130004 0.719042
vt 0.425670 0.955725
vt 0.407653 0.816336
vt 0.274365 0.223000
vt 0.520958 0.084949
vt 0.183920 0.122345
vt 0.520958 0.084949
vt 0.826196 0.185261
vt 0.880570 0.154247
vt 0.520958 0.084949
vt 0.274365 0.223000
vt 0.544217 0.227961
vt 0.826196 0.185261
vt 0.782008 0.518787
vt 1.000000 0.766482
vt 0.782008 0.518787
vt 0.272951 0.521226
vt 0.407653 0.816336
vt 0.544217 0.227961
vt 0.274365 0.223000
vt 0.272951 0.521226
vt 0.519572 0.000000
vt 0.183920 0.122345
vt 0.520958 0.084949
vt 0.183920 0.122345
vt 0.000000 0.519668
vt 0.246094 0.531250
vt 0.544217 0.227961
vt 0.826196 0.185261
vt 0.520958 0.084949
vt 0.272951 0.521226
vt 0.782008 0.518787
vt 0.544217 0.227961
vt 0.821809 1.000000
vt 1.000000 0.766482
vt 0.782008 0.518787
vt 0.130004 0.719042
vt 0.061791 0.445212
vt 0.000000 0.519668
vt 0.130004 0.719042
vt 0.000000 0.519668
vt 0.082511 0.873797
vt 0.183920 0.122345
vt 0.061791 0.445212
vt 0.274365 0.223000
vt 0.130004 0.719042
vt 0.407653 0.816336
vt 0.272951 0.521226
vt 0.272951 0.521226
vt 0.274365 0.223000
vt 0.061791 0.445212
vt 0.272951 0.521226
vt 0.061791 0.445212
vt 0.130004 0.719042
vt 0.407653 0.816336
vt 0.425670 0.955725
vt 0.821809 1.000000
vt 0.821809 1.000000
vt 0.782008 0.518787
vt 0.407653 0.816336
vt 1.000000 0.766482
vt 0.880570 0.154247
vt 0.826196 0.185261
vt 0.520958 0.084949
vt 0.880570 0.154247
vt 0.519572 0.000000
vt 1.000000 0.766482
vt 0.821809 1.000000
vt 0.502864 0.561173
vt 0.502864 0.561173
vt 0.183920 0.122345
vt 0.519572 0.000000
vt 0.502864 0.561173
vt 0.821809 1.000000
vt 0.425670 0.955725
vt 0.082511 0.873797
vt 0.000000 0.519668
vt 0.502864 0.561173
vt 0.502864 0.561173
vt 0.880570 0.154247
vt 1.000000 0.766482
vt 0.425670 0.955725
vt 0.082511 0.873797
vt 0.502864 0.561173
vt 0.519572 0.000000
vt 0.880570 0.154247
vt 0.502864 0.561173
vn 0.157648 0.949179 -0.272407
vn 0.332794 0.933353 0.134541
vn 0.523933 0.760979 -0.382630
vn -0.940222 -0.318725 -0.119991
vn -0.669950 0.051924 -0.740588
vn -0.060138 -0.996778 0.053067
vn -0.471535 0.804729 0.360646
vn -0.730892 -0.150343 0.665728
vn -0.206135 -0.071430 0.975913
vn -0.471535 0.804729 0.360646
vn -0.206135 -0.071430 0.975913
vn -0.030156 0.880119 0.473794
vn -0.333334 0.831744 -0.443949
vn 0.010717 0.657206 -0.753635
vn -0.669950 0.051924 -0.740588
vn 0.010717 0.657206 -0.753635
vn 0.523933 0.760979 -0.382630
vn 0.659300 -0.057931 -0.749645
vn 0.010717 0.657206 -0.753635
vn -0.333334 0.831744 -0.443949
vn 0.157648 0.949179 -0.272407
vn 0.523933 0.760979 -0.382630
vn 0.332794 0.933353 0.134541
vn 0.968682 0.232196 0.087973
vn 0.332794 0.933353 0.134541
vn -0.141438 0.986842 0.078351
vn -0.030156 0.880119 0.473794
vn 0.157648 0.949179 -0.272407
vn -0.333334 0.831744 -0.443949
vn -0.141438 0.986842 0.078351
vn -0.019056 -0.281759 -0.959296
vn -0.669950 0.051924 -0.740588
vn 0.010717 0.657206 -0.753635
vn -0.669950 0.051924 -0.740588
vn -0.940222 -0.318725 -0.119991
vn -0.695165 0.695184 -0.182934
vn 0.157648 0.949179 -0.272407
vn 0.523933 0.760979 -0.382630
vn 0.010717 0.657206 -0.753635
vn -0.141438 0.986842 0.078351
vn 0.332794 0.933353 0.134541
vn 0.157648 0.949179 -0.272407
vn 0.298798 0.363612 0.882330
vn 0.968682 0.232196 0.087973
vn 0.332794 0.933353 0.134541
vn -0.471535 0.804729 0.360646
vn -0.695165 0.695184 -0.182934
vn -0.940222 -0.318725 -0.119991
vn -0.471535 0.804729 0.360646
vn -0.940222 -0.318725 -0.119991
vn -0.730892 -0.150343 0.665728
vn -0.669950 0.051924 -0.740588
vn -0.695165 0.695184 -0.182934
vn -0.333334 0.831744 -0.443949
vn -0.471535 0.804729 0.360646
vn -0.030156 0.880119 0.473794
vn -0.141438 0.986842 0.078351
vn -0.141438 0.986842 0.078351
vn -0.333334 0.831744 -0.443949
vn -0.695165 0.695184 -0.182934
vn -0.141438 0.986842 0.078351
vn -0.695165 0.695184 -0.182934
vn -0.471535 0.804729 0.360646
vn -0.030156 0.880119 0.473794
vn -0.206135 -0.071430 0.975913
vn 0.298798 0.363612 0.882330
vn 0.298798 0.363612 0.882330
vn 0.332794 0.933353 0.134541
vn -0.030156 0.880119 0.473794
vn 0.968682 0.232196 0.087973
vn 0.659300 -0.057931 -0.749645
vn 0.523933 0.760979 -0.382630
vn 0.010717 0.657206 -0.753635
vn 0.659300 -0.057931 -0.749645
vn -0.019056 -0.281759 -0.959296
vn 0.968682 0.232196 0.087973
vn 0.298798 0.363612 0.882330
vn -0.060138 -0.996778 0.053067
vn -0.060138 -0.996778 0.053067
vn -0.669950 0.051924 -0.740588
vn -0.019056 -0.281759 -0.959296
vn -0.060138 -0.996778 0.053067
vn 0.298798 0.363612 0.882330
vn -0.206135 -0.071430 0.975913
vn -0.730892 -0.150343 0.665728
vn -0.940222 -0.318725 -0.119991
vn -0.060138 -0.996778 0.053067
vn -0.060138 -0.996778 0.053067
vn 0.659300 -0.057931 -0.749645
vn 0.968682 0.232196 0.087973
vn -0.206135 -0.071430 0.975913
vn -0.730892 -0.150343 0.665728
vn -0.060138 -0.996778 0.053067
vn -0.019056 -0.281759 -0.959296
vn 0.659300 -0.057931 -0.749645
vn -0.060138 -0.996778 0.053067
f 11/1/1 7/2/2 14/3/3
f 10/4/4 1/5/5 18/6/6
f 2/7/7 16/8/8 9/9/9
f 2/10/10 9/11/11 4/12/12
f 3/13/13 8/14/14 1/15/15
f 8/16/16 14/17/17 5/18/18
f 8/19/19 3/20/20 11/21/21
f 14/22/22 7/23/23 6/24/24
f 7/25/25 12/26/26 4/27/27
f 11/28/28 3/29/29 12/30/30
f 17/31/31 1/32/32 8/33/33
f 1/34/34 10/35/35 15/36/36
f 11/37/37 14/38/38 8/39/39
f 12/40/40 7/41/41 11/42/42
f 13/43/43 6/44/44 7/45/45
f 2/46/46 15/47/47 10/48/48
f 2/49/49 10/50/50 16/51/51
f 1/52/52 15/53/53 3/54/54
f 2/55/55 4/56/56 12/57/57
f 12/58/58 3/59/59 15/60/60
f 12/61/61 15/62/62 2/63/63
f 4/64/64 9/65/65 13/66/66
f 13/67/67 7/68/68 4/69/69
f 6/70/70 5/71/71 14/72/72
f 8/73/73 5/74/74 17/75/75
f 6/76/76 13/77/77 18/78/78
f 18/79/79 1/80/80 17/81/81
f 18/82/82 13/83/83 9/84/84
f 16/85/85 10/86/86 18/87/87
f 18/88/88 5/89/89 6/90/90
f 9/91/91 16/92/92 18/93/93
f 17/94/94 5/95/95 18/96/96
