v -0.000236 20.250568 17.024780
v 8.237347 20.250568 0.000103
v 0.000234 20.250568 -12.150134
v -0.000139 19.596874 12.993795
v 5.312821 19.628784 0.018805
v 0.000128 19.596874 -8.391480
v -0.000226 21.253040 16.971182
v 8.203437 21.253040 0.005973
v 0.000236 21.253040 -12.102432
v 0.000006 26.156124 0.002800
v -0.000155 24.685696 7.906406
v -5.720211 0.000000 0.000000
v 0.000000 0.000000 7.071068
v -4.932232 6.778686 -0.000000
v -0.000000 5.401196 6.635245
v 0.000000 0.000000 -7.071068
v 5.720211 0.000000 0.000000
v 0.000000 5.401196 -6.635245
v 4.932232 6.778686 0.000000
v -4.976962 16.966022 0.000012
v -0.000027 15.639240 -5.481547
v 4.976962 16.966022 -0.000012
v 0.000027 15.639240 5.481547
v -8.237347 20.250568 0.000102
v -5.312821 19.628788 0.018805
v -8.203437 21.253040 0.005972
v 0.000202 24.797079 -5.525046
v -0.000015 11.530223 -5.818346
v 0.000015 11.530223 5.818346
v 4.562006 12.907712 -0.000007
v -4.562006 12.907712 0.000007
v -5.771825 20.250568 7.922129
v 5.771531 20.250568 7.922130
v -5.771532 20.250568 -5.493311
v 5.771825 20.250568 -5.493311
v -4.523787 7.689353 0.000001
v 4.197782 13.730062 -0.000008
v 4.523787 7.689353 -0.000001
v -4.197782 13.730062 0.000008
v 5.762547 21.253040 7.907993
v -5.762866 21.253040 7.907992
v -5.716807 21.253040 -5.523460
v 5.717135 21.253040 -5.523459
v -0.000104 16.235632 7.913774
v -3.429981 23.571308 -5.524253
v -4.922058 24.306522 0.004386
v -3.457811 23.571308 7.907199
v 3.430380 23.571308 -5.524253
v 4.922064 24.306522 0.004387
v 3.457433 23.571308 7.907200
vt 0.970703 0.732422
vt 0.781741 0.728984
vt 0.587746 0.728984
vt 0.970703 0.732422
vt 0.587746 0.728984
vt 0.586914 0.709961
vt 0.970703 0.732422
vt 0.586914 0.709961
vt 0.878906 0.710938
vt 0.587746 0.728984
vt 0.310511 0.728984
vt 0.015625 0.726562
vt 0.587746 0.728984
vt 0.015625 0.726562
vt 0.133789 0.702148
vt 0.587746 0.728984
vt 0.133789 0.702148
vt 0.586914 0.709961
vt 0.587802 0.832410
vt 0.587891 0.887695
vt 0.311523 0.841797
vt 0.587802 0.832410
vt 0.311523 0.841797
vt 0.310539 0.807507
vt 0.587802 0.832410
vt 0.587746 0.728984
vt 0.781741 0.728984
vt 0.587802 0.832410
vt 0.781741 0.728984
vt 0.781769 0.807507
vt 0.875977 0.721680
vt 0.583008 0.713867
vt 0.583984 0.727539
vt 0.142578 0.708008
vt 0.020508 0.720703
vt 0.313477 0.727539
vt 0.142578 0.708008
vt 0.313477 0.727539
vt 0.583984 0.727539
vt 0.583984 0.727539
vt 0.313477 0.727539
vt 0.020508 0.720703
vt 0.583984 0.727539
vt 0.020508 0.720703
vt 0.142578 0.708008
vt 0.583984 0.727539
vt 0.583008 0.713867
vt 0.142578 0.708008
vt 0.587956 0.238718
vt 0.587956 0.009115
vt 0.339874 0.009115
vt 0.587956 0.238718
vt 0.339874 0.009115
vt 0.355164 0.192061
vt 0.355164 0.192061
vt 0.339874 0.009115
vt 0.587956 0.009115
vt 0.355164 0.192061
vt 0.587956 0.009115
vt 0.587956 0.238718
vt 0.587956 0.238718
vt 0.587956 0.009115
vt 0.836037 0.009115
vt 0.587956 0.238718
vt 0.836037 0.009115
vt 0.820747 0.192061
vt 0.820747 0.192061
vt 0.836037 0.009115
vt 0.587956 0.009115
vt 0.820747 0.192061
vt 0.587956 0.009115
vt 0.587956 0.238718
vt 0.341174 0.000000
vt 0.583542 0.000000
vt 0.825910 0.000000
vt 0.341174 0.000000
vt 0.825910 0.000000
vt 0.583542 0.000000
vt 0.780271 0.538837
vt 0.973633 0.699219
vt 0.779297 0.710938
vt 0.587955 0.474171
vt 0.587955 0.583777
vt 0.780271 0.538837
vt 0.587955 0.474171
vt 0.780271 0.538837
vt 0.792087 0.399659
vt 0.792087 0.399659
vt 0.780271 0.538837
vt 0.587956 0.583777
vt 0.792087 0.399659
vt 0.587956 0.583777
vt 0.587956 0.474171
vt 0.587956 0.474171
vt 0.587956 0.583777
vt 0.395640 0.538837
vt 0.587956 0.474171
vt 0.395640 0.538837
vt 0.383824 0.399659
vt 0.383824 0.399659
vt 0.395640 0.538837
vt 0.587955 0.583777
vt 0.383824 0.399659
vt 0.587955 0.583777
vt 0.587955 0.474171
vt 0.587956 0.583777
vt 0.586914 0.710938
vt 0.310547 0.699219
vt 0.587956 0.583777
vt 0.310547 0.699219
vt 0.310308 0.559038
vt 0.587956 0.583777
vt 0.310308 0.559038
vt 0.395640 0.538837
vt 0.310308 0.559038
vt -0.009343 0.695029
vt 0.310547 0.699219
vt 0.780271 0.538837
vt 0.587955 0.583777
vt 0.586914 0.710938
vt 0.780271 0.538837
vt 0.586914 0.710938
vt 0.779297 0.710938
vt 0.878906 0.710938
vt 0.586914 0.709961
vt 0.587746 0.728984
vt 0.878906 0.710938
vt 0.587746 0.728984
vt 0.781741 0.728984
vt 0.878906 0.710938
vt 0.781741 0.728984
vt 0.970703 0.732422
vt 0.586914 0.709961
vt 0.133789 0.702148
vt 0.015625 0.726562
vt 0.586914 0.709961
vt 0.015625 0.726562
vt 0.310511 0.728984
vt 0.586914 0.709961
vt 0.310511 0.728984
vt 0.587746 0.728984
vt -0.007463 0.728984
vt 0.311523 0.841797
vt 0.310539 0.807507
vt 0.970703 0.732422
vt 0.781741 0.728984
vt 0.781769 0.807507
vt 0.020508 0.720703
vt 0.313477 0.727539
vt 0.142578 0.708008
vt 0.586914 0.708984
vt 0.310547 0.700195
vt 0.040039 0.704102
vt 0.586914 0.708984
vt 0.040039 0.704102
vt 0.133789 0.702148
vt 0.142578 0.708008
vt 0.020508 0.720703
vt 0.313477 0.727539
vt 0.142578 0.708008
vt 0.313477 0.727539
vt 0.583984 0.727539
vt 0.133789 0.702148
vt 0.586914 0.709961
vt 0.586914 0.708984
vt 0.355164 0.192061
vt 0.587956 0.238718
vt 0.587956 0.269564
vt 0.587956 0.269564
vt 0.587956 0.238718
vt 0.820747 0.192061
vt 0.820747 0.192061
vt 0.587956 0.238718
vt 0.587956 0.269564
vt 0.587956 0.269564
vt 0.587956 0.238718
vt 0.355164 0.192061
vt 0.779297 0.710938
vt 0.973633 0.699219
vt 0.780271 0.538837
vt 0.779297 0.710938
vt 0.586914 0.710938
vt 0.587956 0.583777
vt 0.779297 0.710938
vt 0.587956 0.583777
vt 0.780271 0.538837
vt 0.310547 0.699219
vt -0.009343 0.695029
vt 0.310308 0.559038
vt 0.587956 0.474171
vt 0.587956 0.446317
vt 0.792087 0.399659
vt 0.383824 0.399659
vt 0.587956 0.446317
vt 0.587956 0.474171
vt 0.587956 0.474171
vt 0.587956 0.446317
vt 0.383824 0.399659
vt 0.792087 0.399659
vt 0.587956 0.446317
vt 0.587956 0.474171
vt 0.587956 0.269564
vt 0.587956 0.446317
vt 0.383824 0.399659
vt 0.587956 0.269564
vt 0.383824 0.399659
vt 0.355164 0.192061
vt 0.820747 0.192061
vt 0.792087 0.399659
vt 0.587956 0.446317
vt 0.820747 0.192061
vt 0.587956 0.446317
vt 0.587956 0.269564
vt 0.587956 0.269564
vt 0.587955 0.446317
vt 0.792087 0.399659
vt 0.587956 0.269564
vt 0.792087 0.399659
vt 0.820747 0.192061
vt 0.355164 0.192061
vt 0.383824 0.399659
vt 0.587955 0.446317
vt 0.355164 0.192061
vt 0.587955 0.446317
vt 0.587956 0.269564
vt -0.007463 0.728984
vt 0.310511 0.728984
vt 0.310539 0.807507
vt 0.587802 0.832410
vt 0.587746 0.728984
vt 0.310511 0.728984
vt 0.587802 0.832410
vt 0.310511 0.728984
vt 0.310539 0.807507
vt 0.970703 0.732422
vt 0.782227 0.842773
vt 0.781769 0.807507
vt 0.587802 0.832410
vt 0.587891 0.887695
vt 0.782227 0.842773
vt 0.587802 0.832410
vt 0.782227 0.842773
vt 0.781769 0.807507
vt 0.310308 0.559038
vt 0.310547 0.699219
vt 0.586914 0.710938
vt 0.310308 0.559038
vt 0.586914 0.710938
vt 0.587955 0.583777
vt 0.310308 0.559038
vt 0.587955 0.583777
vt 0.395640 0.538837
vt 0.310539 0.807507
vt 0.311523 0.841797
vt -0.007463 0.728984
vt 0.310539 0.807507
vt 0.310511 0.728984
vt 0.587746 0.728984
vt 0.310539 0.807507
vt 0.587746 0.728984
vt 0.587802 0.832410
vt 0.781769 0.807507
vt 0.782227 0.842773
vt 0.587891 0.887695
vt 0.781769 0.807507
vt 0.587891 0.887695
vt 0.587802 0.832410
vt 0.781769 0.807507
vt 0.781741 0.728984
vt 0.970703 0.732422
vt 0.781769 0.807507
vt 0.782227 0.842773
vt 0.970703 0.732422
vt 0.781769 0.807507
vt 0.781741 0.728984
vt 0.587746 0.728984
vt 0.781769 0.807507
vt 0.587746 0.728984
vt 0.587802 0.832410
vt 0.310539 0.807507
vt 0.311523 0.841797
vt 0.587891 0.887695
vt 0.310539 0.807507
vt 0.587891 0.887695
vt 0.587802 0.832410
vt 0.310539 0.807507
vt 0.310511 0.728984
vt -0.007463 0.728984
vn -0.000004 -0.953604 -0.301063
vn 0.416999 -0.866741 -0.273628
vn 0.449470 -0.892596 -0.035342
vn -0.000004 -0.953604 -0.301063
vn 0.449470 -0.892596 -0.035342
vn 0.449470 -0.892596 -0.035342
vn -0.000004 -0.953604 -0.301063
vn 0.449470 -0.892596 -0.035342
vn -0.000004 -0.953604 -0.301063
vn 0.449470 -0.892596 -0.035342
vn 0.455645 -0.866232 0.205011
vn 0.000006 -0.973120 0.230298
vn 0.449470 -0.892596 -0.035342
vn 0.000006 -0.973120 0.230298
vn 0.000006 -0.973120 0.230298
vn 0.449470 -0.892596 -0.035342
vn 0.000006 -0.973120 0.230298
vn 0.449470 -0.892596 -0.035342
vn 0.526699 0.849224 -0.037509
vn 0.000001 0.999497 -0.031718
vn 0.000002 0.964573 0.263818
vn 0.526699 0.849224 -0.037509
vn 0.000002 0.964573 0.263818
vn 0.500168 0.817330 0.286013
vn 0.526699 0.849224 -0.037509
vn 0.693053 0.719566 -0.043626
vn 0.641162 0.649128 -0.409323
vn 0.526699 0.849224 -0.037509
vn 0.641162 0.649128 -0.409323
vn 0.491186 0.782995 -0.381648
vn 0.000001 0.992500 0.122248
vn -0.207779 0.977932 0.021857
vn -0.194556 0.980758 0.016171
vn -0.000002 0.995967 -0.089718
vn -0.000004 0.995487 -0.094901
vn -0.192476 0.976872 -0.093132
vn -0.000002 0.995967 -0.089718
vn -0.192476 0.976872 -0.093132
vn -0.194556 0.980758 0.016171
vn -0.194556 0.980758 0.016171
vn -0.168132 0.979152 0.113983
vn 0.000003 0.993292 0.115635
vn -0.194556 0.980758 0.016171
vn 0.000003 0.993292 0.115635
vn 0.000001 0.992500 0.122248
vn -0.194556 0.980758 0.016171
vn -0.207779 0.977932 0.021857
vn -0.000002 0.995967 -0.089718
vn -0.761054 0.200742 0.616847
vn -0.783925 0.072779 0.616575
vn -0.783925 0.072779 0.616575
vn -0.761054 0.200742 0.616847
vn -0.783925 0.072779 0.616575
vn -0.777029 0.147400 0.611963
vn 0.777030 0.147400 0.611963
vn 0.783925 0.072779 0.616575
vn 0.783925 0.072779 0.616575
vn 0.777030 0.147400 0.611963
vn 0.783925 0.072779 0.616575
vn 0.761053 0.200743 0.616847
vn 0.761054 0.200742 -0.616847
vn 0.783925 0.072779 -0.616575
vn 0.783925 0.072779 -0.616575
vn 0.761054 0.200742 -0.616847
vn 0.783925 0.072779 -0.616575
vn 0.777029 0.147400 -0.611963
vn -0.777030 0.147400 -0.611963
vn -0.783925 0.072779 -0.616575
vn -0.783925 0.072779 -0.616575
vn -0.777030 0.147400 -0.611963
vn -0.783925 0.072779 -0.616575
vn -0.761053 0.200743 -0.616847
vn 0.000000 -1.000000 0.000000
vn 0.000000 -1.000000 0.000000
vn 0.000000 -1.000000 0.000000
vn 0.000000 -1.000000 0.000000
vn 0.000000 -1.000000 0.000000
vn 0.000000 -1.000000 0.000000
vn 0.691777 -0.514659 -0.506528
vn 0.548496 -0.687748 -0.475557
vn 0.586101 -0.700953 -0.406388
vn -0.760084 0.132127 -0.636251
vn -0.867861 -0.496043 -0.027550
vn -0.691782 -0.514642 -0.506539
vn -0.760084 0.132127 -0.636251
vn -0.691782 -0.514642 -0.506539
vn -0.775079 0.101264 -0.623697
vn 0.775076 0.101265 -0.623700
vn 0.691777 -0.514659 -0.506528
vn 0.867860 -0.496045 -0.027540
vn 0.775076 0.101265 -0.623700
vn 0.867860 -0.496045 -0.027540
vn 0.760080 0.132127 -0.636255
vn 0.760084 0.132127 0.636251
vn 0.867860 -0.496045 -0.027540
vn 0.754717 -0.452106 0.475398
vn 0.760084 0.132127 0.636251
vn 0.754717 -0.452106 0.475398
vn 0.775079 0.101264 0.623697
vn -0.775076 0.101265 0.623700
vn -0.754716 -0.452114 0.475391
vn -0.867861 -0.496043 -0.027550
vn -0.775076 0.101265 0.623700
vn -0.867861 -0.496043 -0.027550
vn -0.760080 0.132127 0.636255
vn 0.867860 -0.496045 -0.027540
vn 0.632952 -0.772818 -0.046081
vn 0.564453 -0.771405 0.293815
vn 0.867860 -0.496045 -0.027540
vn 0.564453 -0.771405 0.293815
vn 0.564453 -0.771405 0.293815
vn 0.867860 -0.496045 -0.027540
vn 0.564453 -0.771405 0.293815
vn 0.754717 -0.452106 0.475398
vn -0.564448 -0.771415 0.293798
vn -0.536642 -0.772164 0.340261
vn -0.564448 -0.771415 0.293798
vn -0.691782 -0.514642 -0.506539
vn -0.867861 -0.496043 -0.027550
vn -0.632954 -0.772816 -0.046103
vn -0.691782 -0.514642 -0.506539
vn -0.632954 -0.772816 -0.046103
vn -0.586111 -0.700931 -0.406410
vn -0.000004 -0.953604 -0.301063
vn -0.449469 -0.892596 -0.035361
vn -0.449469 -0.892596 -0.035361
vn -0.000004 -0.953604 -0.301063
vn -0.449469 -0.892596 -0.035361
vn -0.417007 -0.866731 -0.273648
vn -0.000004 -0.953604 -0.301063
vn -0.417007 -0.866731 -0.273648
vn -0.000004 -0.953604 -0.301063
vn -0.449469 -0.892596 -0.035361
vn 0.000006 -0.973120 0.230298
vn 0.000006 -0.973120 0.230298
vn -0.449469 -0.892596 -0.035361
vn 0.000006 -0.973120 0.230298
vn -0.455635 -0.866241 0.204995
vn -0.449469 -0.892596 -0.035361
vn -0.455635 -0.866241 0.204995
vn -0.449469 -0.892596 -0.035361
vn -0.000001 0.898838 0.438281
vn 0.000002 0.964573 0.263818
vn -0.500172 0.817332 0.286000
vn 0.000003 0.826502 -0.562933
vn -0.641148 0.649128 -0.409343
vn -0.491178 0.782992 -0.381664
vn 0.194555 0.980758 0.016179
vn 0.207777 0.977932 0.021862
vn 0.000001 0.992500 0.122248
vn 0.194555 0.980758 0.016179
vn 0.192468 0.976875 -0.093122
vn -0.000004 0.995487 -0.094901
vn 0.194555 0.980758 0.016179
vn -0.000004 0.995487 -0.094901
vn -0.000002 0.995967 -0.089718
vn 0.000001 0.992500 0.122248
vn 0.000003 0.993292 0.115635
vn 0.168139 0.979150 0.113994
vn 0.000001 0.992500 0.122248
vn 0.168139 0.979150 0.113994
vn 0.194555 0.980758 0.016179
vn -0.000002 0.995967 -0.089718
vn 0.207777 0.977932 0.021862
vn 0.194555 0.980758 0.016179
vn 0.777030 0.147400 0.611963
vn 0.761053 0.200743 0.616847
vn 0.771877 0.184807 0.608319
vn 0.771877 0.184808 -0.608320
vn 0.761054 0.200742 -0.616847
vn 0.777029 0.147400 -0.611963
vn -0.777030 0.147400 -0.611963
vn -0.761053 0.200743 -0.616847
vn -0.771877 0.184807 -0.608319
vn -0.771877 0.184808 0.608320
vn -0.761054 0.200742 0.616847
vn -0.777029 0.147400 0.611963
vn -0.586111 -0.700931 -0.406410
vn -0.548508 -0.687722 -0.475581
vn -0.691782 -0.514642 -0.506539
vn 0.586101 -0.700953 -0.406388
vn 0.632952 -0.772818 -0.046081
vn 0.867860 -0.496045 -0.027540
vn 0.586101 -0.700953 -0.406388
vn 0.867860 -0.496045 -0.027540
vn 0.691777 -0.514659 -0.506528
vn 0.564453 -0.771405 0.293815
vn 0.536645 -0.772157 0.340273
vn 0.564453 -0.771405 0.293815
vn 0.760080 0.132127 -0.636255
vn 0.763652 0.179160 -0.620272
vn 0.775076 0.101265 -0.623700
vn 0.775079 0.101264 0.623697
vn 0.763654 0.179160 0.620269
vn 0.760084 0.132127 0.636251
vn -0.760080 0.132127 0.636255
vn -0.763652 0.179160 0.620272
vn -0.775076 0.101265 0.623700
vn -0.775079 0.101264 -0.623697
vn -0.763654 0.179160 -0.620269
vn -0.760084 0.132127 -0.636251
vn 0.771877 0.184807 0.608319
vn 0.763654 0.179160 0.620269
vn 0.775079 0.101264 0.623697
vn 0.771877 0.184807 0.608319
vn 0.775079 0.101264 0.623697
vn 0.777030 0.147400 0.611963
vn 0.777029 0.147400 -0.611963
vn 0.775076 0.101265 -0.623700
vn 0.763652 0.179160 -0.620272
vn 0.777029 0.147400 -0.611963
vn 0.763652 0.179160 -0.620272
vn 0.771877 0.184808 -0.608320
vn -0.771877 0.184807 -0.608319
vn -0.763654 0.179160 -0.620269
vn -0.775079 0.101264 -0.623697
vn -0.771877 0.184807 -0.608319
vn -0.775079 0.101264 -0.623697
vn -0.777030 0.147400 -0.611963
vn -0.777029 0.147400 0.611963
vn -0.775076 0.101265 0.623700
vn -0.763652 0.179160 0.620272
vn -0.777029 0.147400 0.611963
vn -0.763652 0.179160 0.620272
vn -0.771877 0.184808 0.608320
vn -0.000001 0.898838 0.438281
vn 0.666806 0.678732 0.307720
vn 0.500168 0.817330 0.286013
vn -0.526698 0.849224 -0.037536
vn -0.693051 0.719565 -0.043661
vn -0.666816 0.678730 0.307705
vn -0.526698 0.849224 -0.037536
vn -0.666816 0.678730 0.307705
vn -0.500172 0.817332 0.286000
vn 0.000003 0.826502 -0.562933
vn 0.000001 0.934010 -0.357246
vn 0.491186 0.782995 -0.381648
vn -0.526698 0.849224 -0.037536
vn 0.000001 0.999497 -0.031718
vn 0.000001 0.934010 -0.357246
vn -0.526698 0.849224 -0.037536
vn 0.000001 0.934010 -0.357246
vn -0.491178 0.782992 -0.381664
vn -0.564448 -0.771415 0.293798
vn -0.564448 -0.771415 0.293798
vn -0.632954 -0.772816 -0.046103
vn -0.564448 -0.771415 0.293798
vn -0.632954 -0.772816 -0.046103
vn -0.867861 -0.496043 -0.027550
vn -0.564448 -0.771415 0.293798
vn -0.867861 -0.496043 -0.027550
vn -0.754716 -0.452114 0.475391
vn 0.500168 0.817330 0.286013
vn 0.000002 0.964573 0.263818
vn -0.000001 0.898838 0.438281
vn 0.500168 0.817330 0.286013
vn 0.666806 0.678732 0.307720
vn 0.693053 0.719566 -0.043626
vn 0.500168 0.817330 0.286013
vn 0.693053 0.719566 -0.043626
vn 0.526699 0.849224 -0.037509
vn 0.491186 0.782995 -0.381648
vn 0.000001 0.934010 -0.357246
vn 0.000001 0.999497 -0.031718
vn 0.491186 0.782995 -0.381648
vn 0.000001 0.999497 -0.031718
vn 0.526699 0.849224 -0.037509
vn 0.491186 0.782995 -0.381648
vn 0.641162 0.649128 -0.409323
vn 0.000003 0.826502 -0.562933
vn -0.491178 0.782992 -0.381664
vn 0.000001 0.934010 -0.357246
vn 0.000003 0.826502 -0.562933
vn -0.491178 0.782992 -0.381664
vn -0.641148 0.649128 -0.409343
vn -0.693051 0.719565 -0.043661
vn -0.491178 0.782992 -0.381664
vn -0.693051 0.719565 -0.043661
vn -0.526698 0.849224 -0.037536
vn -0.500172 0.817332 0.286000
vn 0.000002 0.964573 0.263818
vn 0.000001 0.999497 -0.031718
vn -0.500172 0.817332 0.286000
vn 0.000001 0.999497 -0.031718
vn -0.526698 0.849224 -0.037536
vn -0.500172 0.817332 0.286000
vn -0.666816 0.678730 0.307705
vn -0.000001 0.898838 0.438281
f 9/1/1 43/2/2 8/3/3
f 9/4/4 8/5/5 5/6/6
f 9/7/7 5/8/8 6/9/9
f 8/10/10 40/11/11 7/12/12
f 8/13/13 7/14/14 4/15/15
f 8/16/16 4/17/17 5/18/18
f 49/19/19 10/20/20 11/21/21
f 49/22/22 11/23/23 50/24/24
f 49/25/25 8/26/26 43/27/27
f 49/28/28 43/29/29 48/30/30
f 6/31/31 5/32/32 2/33/33
f 4/34/34 1/35/35 33/36/36
f 4/37/37 33/38/38 2/39/39
f 2/40/40 35/41/41 3/42/42
f 2/43/43 3/44/44 6/45/45
f 2/46/46 5/47/47 4/48/48
f 14/49/49 12/50/50 13/51/51
f 14/52/52 13/53/53 15/54/54
f 15/55/55 13/56/56 17/57/57
f 15/58/58 17/59/59 19/60/60
f 19/61/61 17/62/62 16/63/63
f 19/64/64 16/65/65 18/66/66
f 18/67/67 16/68/68 12/69/69
f 18/70/70 12/71/71 14/72/72
f 13/73/73 12/74/74 16/75/75
f 13/76/76 16/77/77 17/78/78
f 21/79/79 3/80/80 35/81/81
f 39/82/82 20/83/83 21/84/84
f 39/85/85 21/86/86 28/87/87
f 28/88/88 21/89/89 22/90/90
f 28/91/91 22/92/92 37/93/93
f 37/94/94 22/95/95 23/96/96
f 37/97/97 23/98/98 29/99/99
f 29/100/100 23/101/101 20/102/102
f 29/103/103 20/104/104 39/105/105
f 22/106/106 2/107/107 33/108/108
f 22/109/109 33/110/110 44/111/111
f 22/112/112 44/113/113 23/114/114
f 44/115/115 1/116/116 32/117/117
f 21/118/118 20/119/119 24/120/120
f 21/121/121 24/122/122 34/123/123
f 6/124/124 25/125/125 26/126/126
f 6/127/127 26/128/128 42/129/129
f 6/130/130 42/131/131 9/132/132
f 25/133/133 4/134/134 7/135/135
f 25/136/136 7/137/137 41/138/138
f 25/139/139 41/140/140 26/141/141
f 7/142/142 11/143/143 47/144/144
f 9/145/145 42/146/146 45/147/147
f 24/148/148 25/149/149 6/150/150
f 24/151/151 32/152/152 1/153/153
f 24/154/154 1/155/155 4/156/156
f 6/157/157 3/158/158 34/159/159
f 6/160/160 34/161/161 24/162/162
f 4/163/163 25/164/164 24/165/165
f 15/166/166 19/167/167 38/168/168
f 38/169/169 19/170/170 18/171/171
f 18/172/172 14/173/173 36/174/174
f 36/175/175 14/176/176 15/177/177
f 34/178/178 3/179/179 21/180/180
f 35/181/181 2/182/182 22/183/183
f 35/184/184 22/185/185 21/186/186
f 33/187/187 1/188/188 44/189/189
f 37/190/190 30/191/191 28/192/192
f 29/193/193 30/194/194 37/195/195
f 39/196/196 31/197/197 29/198/198
f 28/199/199 31/200/200 39/201/201
f 38/202/202 30/203/203 29/204/204
f 38/205/205 29/206/206 15/207/207
f 18/208/208 28/209/209 30/210/210
f 18/211/211 30/212/212 38/213/213
f 36/214/214 31/215/215 28/216/216
f 36/217/217 28/218/218 18/219/219
f 15/220/220 29/221/221 31/222/222
f 15/223/223 31/224/224 36/225/225
f 7/226/226 40/227/227 50/228/228
f 46/229/229 26/230/230 41/231/231
f 46/232/232 41/233/233 47/234/234
f 9/235/235 27/236/236 48/237/237
f 46/238/238 10/239/239 27/240/240
f 46/241/241 27/242/242 45/243/243
f 44/244/244 32/245/245 24/246/246
f 44/247/247 24/248/248 20/249/249
f 44/250/250 20/251/251 23/252/252
f 50/253/253 11/254/254 7/255/255
f 50/256/256 40/257/257 8/258/258
f 50/259/259 8/260/260 49/261/261
f 48/262/262 27/263/263 10/264/264
f 48/265/265 10/266/266 49/267/267
f 48/268/268 43/269/269 9/270/270
f 45/271/271 27/272/272 9/273/273
f 45/274/274 42/275/275 26/276/276
f 45/277/277 26/278/278 46/279/279
f 47/280/280 11/281/281 10/282/282
f 47/283/283 10/284/284 46/285/285
f 47/286/286 41/287/287 7/288/288
