v 88.000000 -8.000000 -72.000000
v 80.000000 -8.000000 -72.000000
v 56.000000 -8.000000 -72.000000
v 64.000000 -8.000000 -72.000000
v 64.000000 -8.000000 -64.000000
v 56.000000 -8.000000 -64.000000
v 80.000000 -8.000000 -64.000000
v 88.000000 -8.000000 -64.000000
v 64.000000 -16.000000 -72.000000
v 64.000000 -16.000000 -56.000000
v 80.000000 -16.000000 -72.000000
v 80.000000 -16.000000 -56.000000
v 64.000000 -16.000000 -64.000000
v 72.000000 -16.000000 -56.000000
v 80.000000 -16.000000 -64.000000
v 72.000000 -16.000000 -72.000000
v 72.000000 -16.000000 -64.000000
v 80.000000 -8.000000 -56.000000
v 80.000000 -8.000000 -72.000000
v 80.000000 -8.000000 -48.000000
v 80.000000 -8.000000 -80.000000
v 72.000000 -8.000000 -48.000000
v 72.000000 -8.000000 -80.000000
v 72.000000 -8.000000 -72.000000
v 72.000000 -8.000000 -56.000000
v 64.000000 -8.000000 -56.000000
v 72.000000 -8.000000 -64.000000
v 80.000000 -16.000000 -80.000000
v 80.000000 -16.000000 -48.000000
v 72.000000 -16.000000 -48.000000
v 72.000000 -16.000000 -80.000000
v 56.000000 -16.000000 -72.000000
v 88.000000 -16.000000 -72.000000
v 56.000000 -16.000000 -64.000000
v 88.000000 -16.000000 -64.000000
v 64.000000 -16.000000 -80.000000
v 64.000000 -16.000000 -72.000000
v 64.000000 -16.000000 -56.000000
v 64.000000 -16.000000 -48.000000
v 80.000000 -16.000000 -72.000000
v 80.000000 -16.000000 -56.000000
v 64.000000 -8.000000 -48.000000
v 64.000000 -8.000000 -56.000000
v 64.000000 -8.000000 -72.000000
v 64.000000 -8.000000 -80.000000
v 56.000000 -16.000000 -56.000000
v 88.000000 -16.000000 -56.000000
v 88.000000 -8.000000 -56.000000
v 80.000000 -8.000000 -56.000000
v 56.000000 -8.000000 -56.000000
vt 1.000000 0.250000
vt 0.000000 0.250000
vt 0.000000 0.000000
vt 1.000000 0.250000
vt 0.000000 0.000000
vt 1.000000 0.000000
vt 1.000000 1.000000
vt 0.000000 1.000000
vt 0.000000 0.750000
vt 1.000000 1.000000
vt 0.000000 0.750000
vt 1.000000 0.750000
vt 0.998047 0.001953
vt 0.001953 0.001953
vt 0.001953 0.998047
vt 0.998047 0.001953
vt 0.001953 0.998047
vt 0.998047 0.998047
vt 0.998047 0.001953
vt 0.001953 0.001953
vt 0.001953 0.998047
vt 0.998047 0.001953
vt 0.001953 0.998047
vt 0.998047 0.998047
vt 0.998047 0.998047
vt 0.998047 0.001953
vt 0.001953 0.001953
vt 0.998047 0.998047
vt 0.001953 0.001953
vt 0.001953 0.998047
vt 0.998047 0.998047
vt 0.998047 0.001953
vt 0.001953 0.001953
vt 0.998047 0.998047
vt 0.001953 0.001953
vt 0.001953 0.998047
vt 1.000000 0.750000
vt 0.000000 0.750000
vt 0.000000 1.000000
vt 1.000000 0.750000
vt 0.000000 1.000000
vt 1.000000 1.000000
vt 1.000000 0.000000
vt 0.000000 0.000000
vt 0.000000 0.250000
vt 1.000000 0.000000
vt 0.000000 0.250000
vt 1.000000 0.250000
vt 0.500000 0.500000
vt 0.500000 0.000000
vt 1.000000 0.000000
vt 0.500000 0.500000
vt 1.000000 0.000000
vt 1.000000 0.500000
vt 0.500000 0.500000
vt 0.500000 1.000000
vt 0.000000 1.000000
vt 0.500000 0.500000
vt 0.000000 1.000000
vt 0.000000 0.500000
vt 0.000000 0.500000
vt 0.000000 0.000000
vt 0.500000 0.000000
vt 0.000000 0.500000
vt 0.500000 0.000000
vt 0.500000 0.500000
vt 1.000000 0.500000
vt 1.000000 1.000000
vt 0.500000 1.000000
vt 1.000000 0.500000
vt 0.500000 1.000000
vt 0.500000 0.500000
vt 1.000000 0.250000
vt 0.000000 0.250000
vt 0.000000 0.000000
vt 1.000000 0.250000
vt 0.000000 0.000000
vt 1.000000 0.000000
vt 1.000000 1.000000
vt 0.000000 1.000000
vt 0.000000 0.750000
vt 1.000000 1.000000
vt 0.000000 0.750000
vt 1.000000 0.750000
vt 1.000000 0.000000
vt 0.000000 0.000000
vt 0.000000 0.250000
vt 1.000000 0.000000
vt 0.000000 0.250000
vt 1.000000 0.250000
vt 1.000000 0.750000
vt 0.000000 0.750000
vt 0.000000 1.000000
vt 1.000000 0.750000
vt 0.000000 1.000000
vt 1.000000 1.000000
vt 0.750000 1.000000
vt 1.000000 1.000000
vt 1.000000 0.000000
vt 0.750000 1.000000
vt 1.000000 0.000000
vt 0.750000 0.000000
vt 0.250000 1.000000
vt 0.000000 1.000000
vt 0.000000 0.000000
vt 0.250000 1.000000
vt 0.000000 0.000000
vt 0.250000 0.000000
vt 1.000000 1.000000
vt 0.750000 1.000000
vt 0.750000 0.000000
vt 1.000000 1.000000
vt 0.750000 0.000000
vt 1.000000 0.000000
vt 0.000000 1.000000
vt 0.250000 1.000000
vt 0.250000 0.000000
vt 0.000000 1.000000
vt 0.250000 0.000000
vt 0.000000 0.000000
vt 1.000000 0.250000
vt 0.000000 0.250000
vt 0.000000 0.000000
vt 1.000000 0.250000
vt 0.000000 0.000000
vt 1.000000 0.000000
vt 1.000000 1.000000
vt 0.000000 1.000000
vt 0.000000 0.750000
vt 1.000000 1.000000
vt 0.000000 0.750000
vt 1.000000 0.750000
vt 0.000000 1.000000
vt 0.250000 1.000000
vt 0.250000 0.000000
vt 0.000000 1.000000
vt 0.250000 0.000000
vt 0.000000 0.000000
vt 0.250000 1.000000
vt 0.000000 1.000000
vt 0.000000 0.000000
vt 0.250000 1.000000
vt 0.000000 0.000000
vt 0.250000 0.000000
vt 1.000000 1.000000
vt 0.750000 1.000000
vt 0.750000 0.000000
vt 1.000000 1.000000
vt 0.750000 0.000000
vt 1.000000 0.000000
vt 0.750000 1.000000
vt 1.000000 1.000000
vt 1.000000 0.000000
vt 0.750000 1.000000
vt 1.000000 0.000000
vt 0.750000 0.000000
vt 1.000000 0.000000
vt 0.000000 0.000000
vt 0.000000 0.250000
vt 1.000000 0.000000
vt 0.000000 0.250000
vt 1.000000 0.250000
vt 1.000000 0.750000
vt 0.000000 0.750000
vt 0.000000 1.000000
vt 1.000000 0.750000
vt 0.000000 1.000000
vt 1.000000 1.000000
vt 1.000000 0.000000
vt 0.000000 0.000000
vt 0.000000 0.250000
vt 1.000000 0.000000
vt 0.000000 0.250000
vt 1.000000 0.250000
vt 1.000000 0.750000
vt 0.000000 0.750000
vt 0.000000 1.000000
vt 1.000000 0.750000
vt 0.000000 1.000000
vt 1.000000 1.000000
vt 1.000000 1.000000
vt 0.000000 1.000000
vt 0.000000 0.750000
vt 1.000000 1.000000
vt 0.000000 0.750000
vt 1.000000 0.750000
vt 1.000000 0.250000
vt 0.000000 0.250000
vt 0.000000 0.000000
vt 1.000000 0.250000
vt 0.000000 0.000000
vt 1.000000 0.000000
vn 0.000000 -1.000000 0.000000
vn 0.000000 -1.000000 0.000000
vn 0.000000 -1.000000 0.000000
vn 0.000000 -1.000000 0.000000
vn 0.000000 -1.000000 0.000000
vn 0.000000 -1.000000 0.000000
vn 0.000000 -1.000000 0.000000
vn 0.000000 -1.000000 0.000000
vn 0.000000 -1.000000 0.000000
vn 0.000000 -1.000000 0.000000
vn 0.000000 -1.000000 0.000000
vn 0.000000 -1.000000 0.000000
vn 0.000000 1.000000 0.000000
vn 0.000000 1.000000 0.000000
vn 0.000000 1.000000 0.000000
vn 0.000000 1.000000 0.000000
vn 0.000000 1.000000 0.000000
vn 0.000000 1.000000 0.000000
vn 0.000000 1.000000 0.000000
vn 0.000000 1.000000 0.000000
vn 0.000000 1.000000 0.000000
vn 0.000000 1.000000 0.000000
vn 0.000000 1.000000 0.000000
vn 0.000000 1.000000 0.000000
vn 0.000000 1.000000 0.000000
vn 0.000000 1.000000 0.000000
vn 0.000000 1.000000 0.000000
vn 0.000000 1.000000 0.000000
vn 0.000000 1.000000 0.000000
vn 0.000000 1.000000 0.000000
vn 0.000000 1.000000 0.000000
vn 0.000000 1.000000 0.000000
vn 0.000000 1.000000 0.000000
vn 0.000000 1.000000 0.000000
vn 0.000000 1.000000 0.000000
vn 0.000000 1.000000 0.000000
vn 0.000000 -1.000000 0.000000
vn 0.000000 -1.000000 0.000000
vn 0.000000 -1.000000 0.000000
vn 0.000000 -1.000000 0.000000
vn 0.000000 -1.000000 0.000000
vn 0.000000 -1.000000 0.000000
vn 0.000000 -1.000000 0.000000
vn 0.000000 -1.000000 0.000000
vn 0.000000 -1.000000 0.000000
vn 0.000000 -1.000000 0.000000
vn 0.000000 -1.000000 0.000000
vn 0.000000 -1.000000 0.000000
vn 0.000000 -1.000000 0.000000
vn 0.000000 -1.000000 0.000000
vn 0.000000 -1.000000 0.000000
vn 0.000000 -1.000000 0.000000
vn 0.000000 -1.000000 0.000000
vn 0.000000 -1.000000 0.000000
vn 0.000000 -1.000000 0.000000
vn 0.000000 -1.000000 0.000000
vn 0.000000 -1.000000 0.000000
vn 0.000000 -1.000000 0.000000
vn 0.000000 -1.000000 0.000000
vn 0.000000 -1.000000 0.000000
vn 0.000000 -1.000000 0.000000
vn 0.000000 -1.000000 0.000000
vn 0.000000 -1.000000 0.000000
vn 0.000000 -1.000000 0.000000
vn 0.000000 -1.000000 0.000000
vn 0.000000 -1.000000 0.000000
vn 0.000000 -1.000000 0.000000
vn 0.000000 -1.000000 0.000000
vn 0.000000 -1.000000 0.000000
vn 0.000000 -1.000000 0.000000
vn 0.000000 -1.000000 0.000000
vn 0.000000 -1.000000 0.000000
vn 0.000000 1.000000 0.000000
vn 0.000000 1.000000 0.000000
vn 0.000000 1.000000 0.000000
vn 0.000000 1.000000 0.000000
vn 0.000000 1.000000 0.000000
vn 0.000000 1.000000 0.000000
vn 0.000000 1.000000 0.000000
vn 0.000000 1.000000 0.000000
vn 0.000000 1.000000 0.000000
vn 0.000000 1.000000 0.000000
vn 0.000000 1.000000 0.000000
vn 0.000000 1.000000 0.000000
vn 0.000000 1.000000 0.000000
vn 0.000000 1.000000 0.000000
vn 0.000000 1.000000 0.000000
vn 0.000000 1.000000 0.000000
vn 0.000000 1.000000 0.000000
vn 0.000000 1.000000 0.000000
vn 0.000000 1.000000 0.000000
vn 0.000000 1.000000 0.000000
vn 0.000000 1.000000 0.000000
vn 0.000000 1.000000 0.000000
vn 0.000000 1.000000 0.000000
vn 0.000000 1.000000 0.000000
vn 1.000000 0.000000 0.000000
vn 1.000000 0.000000 0.000000
vn 1.000000 0.000000 0.000000
vn 1.000000 0.000000 0.000000
vn 1.000000 0.000000 0.000000
vn 1.000000 0.000000 0.000000
vn -1.000000 0.000000 0.000000
vn -1.000000 0.000000 0.000000
vn -1.000000 0.000000 0.000000
vn -1.000000 0.000000 0.000000
vn -1.000000 0.000000 0.000000
vn -1.000000 0.000000 0.000000
vn -1.000000 0.000000 0.000000
vn -1.000000 0.000000 0.000000
vn -1.000000 0.000000 0.000000
vn -1.000000 0.000000 0.000000
vn -1.000000 0.000000 0.000000
vn -1.000000 0.000000 0.000000
vn 1.000000 0.000000 0.000000
vn 1.000000 0.000000 0.000000
vn 1.000000 0.000000 0.000000
vn 1.000000 0.000000 0.000000
vn 1.000000 0.000000 0.000000
vn 1.000000 0.000000 0.000000
vn 0.000000 1.000000 0.000000
vn 0.000000 1.000000 0.000000
vn 0.000000 1.000000 0.000000
vn 0.000000 1.000000 0.000000
vn 0.000000 1.000000 0.000000
vn 0.000000 1.000000 0.000000
vn 0.000000 1.000000 0.000000
vn 0.000000 1.000000 0.000000
vn 0.000000 1.000000 0.000000
vn 0.000000 1.000000 0.000000
vn 0.000000 1.000000 0.000000
vn 0.000000 1.000000 0.000000
vn 0.000000 0.000000 -1.000000
vn 0.000000 0.000000 -1.000000
vn 0.000000 0.000000 -1.000000
vn 0.000000 0.000000 -1.000000
vn 0.000000 0.000000 -1.000000
vn 0.000000 0.000000 -1.000000
vn 0.000000 0.000000 1.000000
vn 0.000000 0.000000 1.000000
vn 0.000000 0.000000 1.000000
vn 0.000000 0.000000 1.000000
vn 0.000000 0.000000 1.000000
vn 0.000000 0.000000 1.000000
vn 0.000000 0.000000 1.000000
vn 0.000000 0.000000 1.000000
vn 0.000000 0.000000 1.000000
vn 0.000000 0.000000 1.000000
vn 0.000000 0.000000 1.000000
vn 0.000000 0.000000 1.000000
vn 0.000000 0.000000 -1.000000
vn 0.000000 0.000000 -1.000000
vn 0.000000 0.000000 -1.000000
vn 0.000000 0.000000 -1.000000
vn 0.000000 0.000000 -1.000000
vn 0.000000 0.000000 -1.000000
vn -0.000002 -1.000000 0.000000
vn -0.000002 -1.000000 0.000000
vn 0.000002 -1.000000 0.000000
vn -0.000002 -1.000000 0.000000
vn 0.000002 -1.000000 0.000000
vn 0.000003 -1.000000 0.000000
vn -0.000003 -1.000000 0.000000
vn 0.000001 -1.000000 0.000000
vn -0.000001 -1.000000 0.000000
vn -0.000003 -1.000000 0.000000
vn -0.000001 -1.000000 0.000000
vn 0.000002 -1.000000 0.000000
vn 0.000000 -1.000000 0.000000
vn 0.000000 -1.000000 0.000000
vn 0.000000 -1.000000 0.000000
vn 0.000000 -1.000000 0.000000
vn 0.000000 -1.000000 0.000000
vn 0.000000 -1.000000 0.000000
vn 0.000000 -1.000000 0.000000
vn 0.000000 -1.000000 0.000000
vn 0.000000 -1.000000 0.000000
vn 0.000000 -1.000000 0.000000
vn 0.000000 -1.000000 0.000000
vn 0.000000 -1.000000 0.000000
vn 0.000002 1.000000 0.000000
vn -0.000001 1.000000 0.000000
vn 0.000001 1.000000 0.000000
vn 0.000002 1.000000 0.000000
vn 0.000001 1.000000 0.000000
vn -0.000003 1.000000 0.000000
vn 0.000003 1.000000 0.000000
vn 0.000002 1.000000 0.000000
vn -0.000002 1.000000 0.000000
vn 0.000003 1.000000 0.000000
vn -0.000002 1.000000 0.000000
vn -0.000002 1.000000 0.000000
f 7/1/1 2/2/2 1/3/3
f 7/4/4 1/5/5 8/6/6
f 6/7/7 3/8/8 4/9/9
f 6/10/10 4/11/11 5/12/12
f 13/13/13 10/14/14 14/15/15
f 13/16/16 14/17/17 17/18/18
f 15/19/19 11/20/20 16/21/21
f 15/22/22 16/23/23 17/24/24
f 17/25/25 14/26/26 12/27/27
f 17/28/28 12/29/29 15/30/30
f 17/31/31 16/32/32 9/33/33
f 17/34/34 9/35/35 13/36/36
f 25/37/37 18/38/38 20/39/39
f 25/40/40 20/41/41 22/42/42
f 23/43/43 21/44/44 19/45/45
f 23/46/46 19/47/47 24/48/48
f 27/49/49 24/50/50 2/51/51
f 27/52/52 2/53/53 7/54/54
f 27/55/55 25/56/56 26/57/57
f 27/58/58 26/59/59 5/60/60
f 5/61/61 4/62/62 24/63/63
f 5/64/64 24/65/65 27/66/66
f 7/67/67 18/68/68 25/69/69
f 7/70/70 25/71/71 27/72/72
f 16/73/73 11/74/74 28/75/75
f 16/76/76 28/77/77 31/78/78
f 30/79/79 29/80/80 12/81/81
f 30/82/82 12/83/83 14/84/84
f 35/85/85 33/86/86 11/87/87
f 35/88/88 11/89/89 15/90/90
f 13/91/91 9/92/92 32/93/93
f 13/94/94 32/95/95 34/96/96
f 43/97/97 42/98/98 39/99/99
f 43/100/100 39/101/101 38/102/102
f 19/103/103 21/104/104 28/105/105
f 19/106/106 28/107/107 40/108/108
f 20/109/109 18/110/110 41/111/111
f 20/112/112 41/113/113 29/114/114
f 45/115/115 44/116/116 37/117/117
f 45/118/118 37/119/119 36/120/120
f 15/121/121 12/122/122 47/123/123
f 15/124/124 47/125/125 35/126/126
f 34/127/127 46/128/128 10/129/129
f 34/130/130 10/131/131 13/132/132
f 50/133/133 43/134/134 38/135/135
f 50/136/136 38/137/137 46/138/138
f 4/139/139 3/140/140 32/141/141
f 4/142/142 32/143/143 37/144/144
f 1/145/145 2/146/146 40/147/147
f 1/148/148 40/149/149 33/150/150
f 49/151/151 48/152/152 47/153/153
f 49/154/154 47/155/155 41/156/156
f 22/157/157 42/158/158 26/159/159
f 22/160/160 26/161/161 25/162/162
f 24/163/163 44/164/164 45/165/165
f 24/166/166 45/167/167 23/168/168
f 8/169/169 48/170/170 49/171/171
f 8/172/172 49/173/173 7/174/174
f 5/175/175 26/176/176 50/177/177
f 5/178/178 50/179/179 6/180/180
f 31/181/181 36/182/182 9/183/183
f 31/184/184 9/185/185 16/186/186
f 14/187/187 10/188/188 39/189/189
f 14/190/190 39/191/191 30/192/192
