v 0.581737 0.130937 0.057551
v 0.603079 -0.237120 0.051279
v 0.577506 -0.117910 0.182087
v 0.597743 -0.117910 0.050846
v 0.563531 0.130033 0.182087
v 0.587072 0.003631 0.055707
v 0.568189 0.003631 0.182087
v 0.582164 -0.237120 0.180886
vt 0.000000 0.000000
vt 0.000000 0.000000
vt 0.000000 0.000000
vt 0.000000 0.000000
vt 0.000000 0.000000
vt 0.000000 0.000000
vt 0.000000 0.000000
vt 0.000000 0.000000
vt 0.000000 0.000000
vt 0.000000 0.000000
vt 0.000000 0.000000
vt 0.000000 0.000000
vn 0.988521 0.037875 0.146257
vn 0.988521 0.037875 0.146257
vn 0.988521 0.037875 0.146257
vn 0.988521 0.037875 0.146257
vn 0.988521 0.037875 0.146257
vn 0.988521 0.037875 0.146257
vn 0.986958 0.040868 0.155706
vn 0.986958 0.040868 0.155706
vn 0.986958 0.040868 0.155706
vn 0.986958 0.040868 0.155706
vn 0.986958 0.040868 0.155706
vn 0.986958 0.040868 0.155706
f 6/1/1 1/2/2 5/3/3
f 6/4/4 5/5/5 7/6/6
f 3/7/7 8/8/8 2/9/9
f 3/10/10 2/11/11 4/12/12
