v -0.117694 -0.883870 -0.000003
v 1.357644 -1.937474 -0.000003
v 0.857644 -1.630605 -0.866028
v -1.036464 -0.293032 -0.866028
v -1.536464 -0.056353 -0.000003
v -1.036464 -0.473164 0.866023
v 0.857644 -1.701393 0.866022
vt 0.000000 0.000000
vt 0.000000 0.000000
vt 0.000000 0.000000
vt 0.000000 0.000000
vt 0.000000 0.000000
vt 0.000000 0.000000
vt 0.000000 0.000000
vt 0.000000 0.000000
vt 0.000000 0.000000
vt 0.000000 0.000000
vt 0.000000 0.000000
vt 0.000000 0.000000
vt 0.000000 0.000000
vt 0.000000 0.000000
vt 0.000000 0.000000
vt 0.000000 0.000000
vt 0.000000 0.000000
vt 0.000000 0.000000
vn 0.556911 0.817847 0.144836
vn 0.580845 0.813344 0.033027
vn 0.547932 0.834271 0.061340
vn 0.518062 0.842037 0.150285
vn 0.556911 0.817847 0.144836
vn 0.547932 0.834271 0.061340
vn 0.580845 0.813344 0.033027
vn 0.578255 0.814269 -0.050863
vn 0.547932 0.834271 0.061340
vn 0.501810 0.860349 0.089367
vn 0.518062 0.842037 0.150285
vn 0.547932 0.834271 0.061340
vn 0.540844 0.841123 0.000064
vn 0.501810 0.860349 0.089367
vn 0.547932 0.834271 0.061340
vn 0.578255 0.814269 -0.050863
vn 0.540844 0.841123 0.000064
vn 0.547932 0.834271 0.061340
f 7/1/1 2/2/2 1/3/3
f 6/4/4 7/5/5 1/6/6
f 2/7/7 3/8/8 1/9/9
f 5/10/10 6/11/11 1/12/12
f 4/13/13 5/14/14 1/15/15
f 3/16/16 4/17/17 1/18/18
