v 0.000000 0.000000 -1.073723
v 0.000000 -0.000000 2.938259
v 1.000000 0.000000 -0.326897
v 1.000000 -0.000000 2.500000
v 0.923880 0.382684 -0.326897
v 0.923880 0.382683 2.500000
v 0.707107 0.707107 -0.326897
v 0.707107 0.707107 2.500000
v 0.382683 0.923880 -0.326897
v 0.382683 0.923879 2.500000
v -0.000000 1.000000 -0.326897
v -0.000000 1.000000 2.500000
v -0.382684 0.923880 -0.326897
v -0.382684 0.923879 2.500000
v -0.707107 0.707107 -0.326897
v -0.707107 0.707106 2.500000
v -0.923880 0.382683 -0.326897
v -0.923880 0.382683 2.500000
v -1.000000 -0.000000 -0.326897
v -1.000000 -0.000000 2.500000
v -0.923879 -0.382684 -0.326897
v -0.923879 -0.382684 2.500000
v -0.707106 -0.707107 -0.326897
v -0.707106 -0.707107 2.500000
v -0.382683 -0.923879 -0.326897
v -0.382683 -0.923880 2.500000
v 0.000000 -1.000000 -0.326897
v 0.000000 -1.000000 2.500000
v 0.382684 -0.923879 -0.326897
v 0.382684 -0.923879 2.500000
v 0.707107 -0.707106 -0.326897
v 0.707107 -0.707106 2.500000
v 0.923879 -0.382683 -0.326897
v 0.923879 -0.382683 2.500000
v 0.820000 -0.000000 2.938259
v 0.757582 -0.313800 2.938259
v 0.579828 -0.579827 2.938259
v 0.313801 -0.757581 2.938259
v 0.000000 -0.820000 2.938259
v -0.313800 -0.757582 2.938259
v -0.579827 -0.579828 2.938259
v -0.757581 -0.313801 2.938259
v -0.820000 -0.000000 2.938259
v -0.757582 0.313800 2.938259
v -0.579828 0.579827 2.938259
v -0.313801 0.757581 2.938259
v -0.000000 0.820000 2.938259
v 0.313800 0.757581 2.938259
v 0.579828 0.579828 2.938259
v 0.757582 0.313800 2.938259
v 1.000000 0.000000 0.397310
v -1.000000 -0.000000 0.397310
v -0.923879 -0.382684 0.397310
v 0.923879 -0.382683 0.397310
v 0.707107 -0.707106 0.397310
v 0.000000 -1.000000 0.397310
v 0.382684 -0.923879 0.397310
v 0.923880 0.382683 0.397310
v 0.707107 0.707107 0.397310
v -0.382683 -0.923879 0.397310
v 0.382683 0.923880 0.397310
v -0.707106 -0.707107 0.397310
v -0.382684 0.923879 0.397310
v -0.000000 1.000000 0.397310
v -0.707107 0.707107 0.397310
v -0.923880 0.382683 0.397310
v 0.640001 0.000000 -1.073723
v 0.591284 -0.244917 -1.073723
v 0.000000 -0.640000 -1.073723
v -0.244917 -0.591284 -1.073723
v -0.452549 -0.452549 -1.073723
v -0.591283 -0.244918 -1.073723
v 0.452549 -0.452548 -1.073723
v -0.640001 -0.000000 -1.073723
v -0.591284 0.244918 -1.073723
v -0.452549 0.452549 -1.073723
v -0.244918 0.591284 -1.073723
v -0.000000 0.640001 -1.073723
v 0.244918 -0.591283 -1.073723
v 0.244918 0.591284 -1.073723
v 0.452549 0.452549 -1.073723
v 0.591284 0.244918 -1.073723
vt 0.000000 0.000000
vt 0.000000 0.000000
vt 0.000000 0.000000
vt 0.000000 0.000000
vt 0.000000 0.000000
vt 0.000000 0.000000
vt 0.000000 0.000000
vt 0.000000 0.000000
vt 0.000000 0.000000
vt 0.000000 0.000000
vt 0.000000 0.000000
vt 0.000000 0.000000
vt 0.000000 0.000000
vt 0.000000 0.000000
vt 0.000000 0.000000
vt 0.000000 0.000000
vt 0.000000 0.000000
vt 0.000000 0.000000
vt 0.000000 0.000000
vt 0.000000 0.000000
vt 0.000000 0.000000
vt 0.000000 0.000000
vt 0.000000 0.000000
vt 0.000000 0.000000
vt 0.000000 0.000000
vt 0.000000 0.000000
vt 0.000000 0.000000
vt 0.000000 0.000000
vt 0.000000 0.000000
vt 0.000000 0.000000
vt 0.000000 0.000000
vt 0.000000 0.000000
vt 0.000000 0.000000
vt 0.000000 0.000000
vt 0.000000 0.000000
vt 0.000000 0.000000
vt 0.000000 0.000000
vt 0.000000 0.000000
vt 0.000000 0.000000
vt 0.000000 0.000000
vt 0.000000 0.000000
vt 0.000000 0.000000
vt 0.000000 0.000000
vt 0.000000 0.000000
vt 0.000000 0.000000
vt 0.000000 0.000000
vt 0.000000 0.000000
vt 0.000000 0.000000
vt 0.000000 0.000000
vt 0.000000 0.000000
vt 0.000000 0.000000
vt 0.000000 0.000000
vt 0.000000 0.000000
vt 0.000000 0.000000
vt 0.000000 0.000000
vt 0.000000 0.000000
vt 0.000000 0.000000
vt 0.000000 0.000000
vt 0.000000 0.000000
vt 0.000000 0.000000
vt 0.000000 0.000000
vt 0.000000 0.000000
vt 0.000000 0.000000
vt 0.000000 0.000000
vt 0.000000 0.000000
vt 0.000000 0.000000
vt 0.000000 0.000000
vt 0.000000 0.000000
vt 0.000000 0.000000
vt 0.000000 0.000000
vt 0.000000 0.000000
vt 0.000000 0.000000
vt 0.000000 0.000000
vt 0.000000 0.000000
vt 0.000000 0.000000
vt 0.000000 0.000000
vt 0.000000 0.000000
vt 0.000000 0.000000
vt 0.000000 0.000000
vt 0.000000 0.000000
vt 0.000000 0.000000
vt 0.000000 0.000000
vt 0.000000 0.000000
vt 0.000000 0.000000
vt 0.000000 0.000000
vt 0.000000 0.000000
vt 0.000000 0.000000
vt 0.000000 0.000000
vt 0.000000 0.000000
vt 0.000000 0.000000
vt 0.000000 0.000000
vt 0.000000 0.000000
vt 0.000000 0.000000
vt 0.000000 0.000000
vt 0.000000 0.000000
vt 0.000000 0.000000
vt 0.000000 0.000000
vt 0.000000 0.000000
vt 0.000000 0.000000
vt 0.000000 0.000000
vt 0.000000 0.000000
vt 0.000000 0.000000
vt 0.000000 0.000000
vt 0.000000 0.000000
vt 0.000000 0.000000
vt 0.000000 0.000000
vt 0.000000 0.000000
vt 0.000000 0.000000
vt 0.000000 0.000000
vt 0.000000 0.000000
vt 0.000000 0.000000
vt 0.000000 0.000000
vt 0.000000 0.000000
vt 0.000000 0.000000
vt 0.000000 0.000000
vt 0.000000 0.000000
vt 0.000000 0.000000
vt 0.000000 0.000000
vt 0.000000 0.000000
vt 0.000000 0.000000
vt 0.000000 0.000000
vt 0.000000 0.000000
vt 0.000000 0.000000
vt 0.000000 0.000000
vt 0.000000 0.000000
vt 0.000000 0.000000
vt 0.000000 0.000000
vt 0.000000 0.000000
vt 0.000000 0.000000
vt 0.000000 0.000000
vt 0.000000 0.000000
vt 0.000000 0.000000
vt 0.000000 0.000000
vt 0.000000 0.000000
vt 0.000000 0.000000
vt 0.000000 0.000000
vt 0.000000 0.000000
vt 0.000000 0.000000
vt 0.000000 0.000000
vt 0.000000 0.000000
vt 0.000000 0.000000
vt 0.000000 0.000000
vt 0.000000 0.000000
vt 0.000000 0.000000
vt 0.000000 0.000000
vt 0.000000 0.000000
vt 0.000000 0.000000
vt 0.000000 0.000000
vt 0.000000 0.000000
vt 0.000000 0.000000
vt 0.000000 0.000000
vt 0.000000 0.000000
vt 0.000000 0.000000
vt 0.000000 0.000000
vt 0.000000 0.000000
vt 0.000000 0.000000
vt 0.000000 0.000000
vt 0.000000 0.000000
vt 0.000000 0.000000
vt 0.000000 0.000000
vt 0.000000 0.000000
vt 0.000000 0.000000
vt 0.000000 0.000000
vt 0.000000 0.000000
vt 0.000000 0.000000
vt 0.000000 0.000000
vt 0.000000 0.000000
vt 0.000000 0.000000
vt 0.000000 0.000000
vt 0.000000 0.000000
vt 0.000000 0.000000
vt 0.000000 0.000000
vt 0.000000 0.000000
vt 0.000000 0.000000
vt 0.000000 0.000000
vt 0.000000 0.000000
vt 0.000000 0.000000
vt 0.000000 0.000000
vt 0.000000 0.000000
vt 0.000000 0.000000
vt 0.000000 0.000000
vt 0.000000 0.000000
vt 0.000000 0.000000
vt 0.000000 0.000000
vt 0.000000 0.000000
vt 0.000000 0.000000
vt 0.000000 0.000000
vt 0.000000 0.000000
vt 0.000000 0.000000
vt 0.000000 0.000000
vt 0.000000 0.000000
vt 0.000000 0.000000
vt 0.000000 0.000000
vt 0.000000 0.000000
vt 0.000000 0.000000
vt 0.000000 0.000000
vt 0.000000 0.000000
vt 0.000000 0.000000
vt 0.000000 0.000000
vt 0.000000 0.000000
vt 0.000000 0.000000
vt 0.000000 0.000000
vt 0.000000 0.000000
vt 0.000000 0.000000
vt 0.000000 0.000000
vt 0.000000 0.000000
vt 0.000000 0.000000
vt 0.000000 0.000000
vt 0.000000 0.000000
vt 0.000000 0.000000
vt 0.000000 0.000000
vt 0.000000 0.000000
vt 0.000000 0.000000
vt 0.000000 0.000000
vt 0.000000 0.000000
vt 0.000000 0.000000
vt 0.000000 0.000000
vt 0.000000 0.000000
vt 0.000000 0.000000
vt 0.000000 0.000000
vt 0.000000 0.000000
vt 0.000000 0.000000
vt 0.000000 0.000000
vt 0.000000 0.000000
vt 0.000000 0.000000
vt 0.000000 0.000000
vt 0.000000 0.000000
vt 0.000000 0.000000
vt 0.000000 0.000000
vt 0.000000 0.000000
vt 0.000000 0.000000
vt 0.000000 0.000000
vt 0.000000 0.000000
vt 0.000000 0.000000
vt 0.000000 0.000000
vt 0.000000 0.000000
vt 0.000000 0.000000
vt 0.000000 0.000000
vt 0.000000 0.000000
vt 0.000000 0.000000
vt 0.000000 0.000000
vt 0.000000 0.000000
vt 0.000000 0.000000
vt 0.000000 0.000000
vt 0.000000 0.000000
vt 0.000000 0.000000
vt 0.000000 0.000000
vt 0.000000 0.000000
vt 0.000000 0.000000
vt 0.000000 0.000000
vt 0.000000 0.000000
vt 0.000000 0.000000
vt 0.000000 0.000000
vt 0.000000 0.000000
vt 0.000000 0.000000
vt 0.000000 0.000000
vt 0.000000 0.000000
vt 0.000000 0.000000
vt 0.000000 0.000000
vt 0.000000 0.000000
vt 0.000000 0.000000
vt 0.000000 0.000000
vt 0.000000 0.000000
vt 0.000000 0.000000
vt 0.000000 0.000000
vt 0.000000 0.000000
vt 0.000000 0.000000
vt 0.000000 0.000000
vt 0.000000 0.000000
vt 0.000000 0.000000
vt 0.000000 0.000000
vt 0.000000 0.000000
vt 0.000000 0.000000
vt 0.000000 0.000000
vt 0.000000 0.000000
vt 0.000000 0.000000
vt 0.000000 0.000000
vt 0.000000 0.000000
vt 0.000000 0.000000
vt 0.000000 0.000000
vt 0.000000 0.000000
vt 0.000000 0.000000
vt 0.000000 0.000000
vt 0.000000 0.000000
vt 0.000000 0.000000
vt 0.000000 0.000000
vt 0.000000 0.000000
vt 0.000000 0.000000
vt 0.000000 0.000000
vt 0.000000 0.000000
vt 0.000000 0.000000
vt 0.000000 0.000000
vt 0.000000 0.000000
vt 0.000000 0.000000
vt 0.000000 0.000000
vt 0.000000 0.000000
vt 0.000000 0.000000
vt 0.000000 0.000000
vt 0.000000 0.000000
vt 0.000000 0.000000
vt 0.000000 0.000000
vt 0.000000 0.000000
vt 0.000000 0.000000
vt 0.000000 0.000000
vt 0.000000 0.000000
vt 0.000000 0.000000
vt 0.000000 0.000000
vt 0.000000 0.000000
vt 0.000000 0.000000
vt 0.000000 0.000000
vt 0.000000 0.000000
vt 0.000000 0.000000
vt 0.000000 0.000000
vt 0.000000 0.000000
vt 0.000000 0.000000
vt 0.000000 0.000000
vt 0.000000 0.000000
vt 0.000000 0.000000
vt 0.000000 0.000000
vt 0.000000 0.000000
vt 0.000000 0.000000
vt 0.000000 0.000000
vt 0.000000 0.000000
vt 0.000000 0.000000
vt 0.000000 0.000000
vt 0.000000 0.000000
vt 0.000000 0.000000
vt 0.000000 0.000000
vt 0.000000 0.000000
vt 0.000000 0.000000
vt 0.000000 0.000000
vt 0.000000 0.000000
vt 0.000000 0.000000
vt 0.000000 0.000000
vt 0.000000 0.000000
vt 0.000000 0.000000
vt 0.000000 0.000000
vt 0.000000 0.000000
vt 0.000000 0.000000
vt 0.000000 0.000000
vt 0.000000 0.000000
vt 0.000000 0.000000
vt 0.000000 0.000000
vt 0.000000 0.000000
vt 0.000000 0.000000
vt 0.000000 0.000000
vt 0.000000 0.000000
vt 0.000000 0.000000
vt 0.000000 0.000000
vt 0.000000 0.000000
vt 0.000000 0.000000
vt 0.000000 0.000000
vt 0.000000 0.000000
vt 0.000000 0.000000
vt 0.000000 0.000000
vt 0.000000 0.000000
vt 0.000000 0.000000
vt 0.000000 0.000000
vt 0.000000 0.000000
vt 0.000000 0.000000
vt 0.000000 0.000000
vt 0.000000 0.000000
vt 0.000000 0.000000
vt 0.000000 0.000000
vt 0.000000 0.000000
vt 0.000000 0.000000
vt 0.000000 0.000000
vt 0.000000 0.000000
vt 0.000000 0.000000
vt 0.000000 0.000000
vt 0.000000 0.000000
vt 0.000000 0.000000
vt 0.000000 0.000000
vt 0.000000 0.000000
vt 0.000000 0.000000
vt 0.000000 0.000000
vt 0.000000 0.000000
vt 0.000000 0.000000
vt 0.000000 0.000000
vt 0.000000 0.000000
vt 0.000000 0.000000
vt 0.000000 0.000000
vt 0.000000 0.000000
vt 0.000000 0.000000
vt 0.000000 0.000000
vt 0.000000 0.000000
vt 0.000000 0.000000
vt 0.000000 0.000000
vt 0.000000 0.000000
vt 0.000000 0.000000
vt 0.000000 0.000000
vt 0.000000 0.000000
vt 0.000000 0.000000
vt 0.000000 0.000000
vt 0.000000 0.000000
vt 0.000000 0.000000
vt 0.000000 0.000000
vt 0.000000 0.000000
vt 0.000000 0.000000
vt 0.000000 0.000000
vt 0.000000 0.000000
vt 0.000000 0.000000
vt 0.000000 0.000000
vt 0.000000 0.000000
vt 0.000000 0.000000
vt 0.000000 0.000000
vt 0.000000 0.000000
vt 0.000000 0.000000
vt 0.000000 0.000000
vt 0.000000 0.000000
vt 0.000000 0.000000
vt 0.000000 0.000000
vt 0.000000 0.000000
vt 0.000000 0.000000
vt 0.000000 0.000000
vt 0.000000 0.000000
vt 0.000000 0.000000
vt 0.000000 0.000000
vt 0.000000 0.000000
vt 0.000000 0.000000
vt 0.000000 0.000000
vt 0.000000 0.000000
vt 0.000000 0.000000
vt 0.000000 0.000000
vt 0.000000 0.000000
vt 0.000000 0.000000
vt 0.000000 0.000000
vt 0.000000 0.000000
vt 0.000000 0.000000
vt 0.000000 0.000000
vt 0.000000 0.000000
vt 0.000000 0.000000
vt 0.000000 0.000000
vt 0.000000 0.000000
vt 0.000000 0.000000
vt 0.000000 0.000000
vt 0.000000 0.000000
vt 0.000000 0.000000
vt 0.000000 0.000000
vt 0.000000 0.000000
vt 0.000000 0.000000
vt 0.000000 0.000000
vt 0.000000 0.000000
vt 0.000000 0.000000
vt 0.000000 0.000000
vt 0.000000 0.000000
vt 0.000000 0.000000
vt 0.000000 0.000000
vt 0.000000 0.000000
vt 0.000000 0.000000
vt 0.000000 0.000000
vt 0.000000 0.000000
vt 0.000000 0.000000
vt 0.000000 0.000000
vt 0.000000 0.000000
vt 0.000000 0.000000
vt 0.000000 0.000000
vt 0.000000 0.000000
vt 0.000000 0.000000
vt 0.000000 0.000000
vt 0.000000 0.000000
vt 0.000000 0.000000
vt 0.000000 0.000000
vt 0.000000 0.000000
vt 0.000000 0.000000
vt 0.000000 0.000000
vt 0.000000 0.000000
vt 0.000000 0.000000
vt 0.000000 0.000000
vt 0.000000 0.000000
vt 0.000000 0.000000
vt 0.000000 0.000000
vt 0.000000 0.000000
vt 0.000000 0.000000
vt 0.000000 0.000000
vt 0.000000 0.000000
vt 0.000000 0.000000
vt 0.000000 0.000000
vt 0.000000 0.000000
vt 0.000000 0.000000
vn -0.000000 0.000000 -1.000000
vn -0.000000 0.000000 -1.000000
vn -0.000000 0.000000 -1.000000
vn 0.923880 0.382683 0.000000
vn 0.906347 0.375421 0.193891
vn 0.981023 -0.000000 0.193890
vn 0.923880 0.382683 0.000000
vn 0.981023 -0.000000 0.193890
vn 1.000000 -0.000000 -0.000000
vn 0.000000 0.000000 1.000000
vn -0.000000 0.000000 1.000000
vn 0.000000 0.000000 1.000000
vn -0.000000 0.000000 -1.000000
vn -0.000000 0.000000 -1.000000
vn -0.000000 0.000000 -1.000000
vn 0.707107 0.707107 0.000000
vn 0.693688 0.693688 0.193891
vn 0.906347 0.375421 0.193891
vn 0.707107 0.707107 0.000000
vn 0.906347 0.375421 0.193891
vn 0.923880 0.382683 0.000000
vn -0.000000 0.000000 1.000000
vn 0.000000 0.000000 1.000000
vn 0.000000 0.000000 1.000000
vn -0.000000 0.000000 -1.000000
vn -0.000000 0.000000 -1.000000
vn -0.000000 0.000000 -1.000000
vn 0.382683 0.923880 0.000000
vn 0.375421 0.906347 0.193891
vn 0.693688 0.693688 0.193891
vn 0.382683 0.923880 0.000000
vn 0.693688 0.693688 0.193891
vn 0.707107 0.707107 0.000000
vn 0.000000 0.000000 1.000000
vn 0.000000 0.000000 1.000000
vn 0.000000 0.000000 1.000000
vn 0.000000 0.000000 -1.000000
vn -0.000000 0.000000 -1.000000
vn -0.000000 0.000000 -1.000000
vn -0.000000 1.000000 0.000000
vn -0.000000 0.981023 0.193891
vn 0.375421 0.906347 0.193891
vn -0.000000 1.000000 0.000000
vn 0.375421 0.906347 0.193891
vn 0.382683 0.923880 0.000000
vn 0.000000 0.000000 1.000000
vn 0.000000 0.000000 1.000000
vn 0.000000 0.000000 1.000000
vn 0.000000 0.000000 -1.000000
vn 0.000000 0.000000 -1.000000
vn -0.000000 0.000000 -1.000000
vn -0.382684 0.923880 0.000000
vn -0.375422 0.906347 0.193891
vn -0.000000 0.981023 0.193891
vn -0.382684 0.923880 0.000000
vn -0.000000 0.981023 0.193891
vn -0.000000 1.000000 0.000000
vn 0.000000 0.000000 1.000000
vn -0.000000 0.000000 1.000000
vn 0.000000 0.000000 1.000000
vn 0.000000 0.000000 -1.000000
vn 0.000000 0.000000 -1.000000
vn -0.000000 0.000000 -1.000000
vn -0.707107 0.707107 0.000000
vn -0.693688 0.693688 0.193891
vn -0.375422 0.906347 0.193891
vn -0.707107 0.707107 0.000000
vn -0.375422 0.906347 0.193891
vn -0.382684 0.923880 0.000000
vn -0.000000 0.000000 1.000000
vn -0.000000 0.000000 1.000000
vn 0.000000 0.000000 1.000000
vn 0.000000 0.000000 -1.000000
vn 0.000000 0.000000 -1.000000
vn -0.000000 0.000000 -1.000000
vn -0.923880 0.382683 0.000000
vn -0.906347 0.375421 0.193891
vn -0.693688 0.693688 0.193891
vn -0.923880 0.382683 0.000000
vn -0.693688 0.693688 0.193891
vn -0.707107 0.707107 0.000000
vn -0.000000 0.000000 1.000000
vn 0.000000 0.000000 1.000000
vn 0.000000 0.000000 1.000000
vn -0.000000 0.000000 -1.000000
vn 0.000000 0.000000 -1.000000
vn -0.000000 0.000000 -1.000000
vn -1.000000 -0.000000 -0.000000
vn -0.981023 -0.000000 0.193890
vn -0.906347 0.375421 0.193891
vn -1.000000 -0.000000 -0.000000
vn -0.906347 0.375421 0.193891
vn -0.923880 0.382683 0.000000
vn 0.000000 0.000000 1.000000
vn 0.000000 0.000000 1.000000
vn 0.000000 0.000000 1.000000
vn -0.000000 0.000000 -1.000000
vn -0.000000 0.000000 -1.000000
vn -0.000000 0.000000 -1.000000
vn -0.923879 -0.382684 -0.000000
vn -0.906347 -0.375422 0.193890
vn -0.981023 -0.000000 0.193890
vn -0.923879 -0.382684 -0.000000
vn -0.981023 -0.000000 0.193890
vn -1.000000 -0.000000 -0.000000
vn 0.000000 0.000000 1.000000
vn -0.000000 0.000000 1.000000
vn 0.000000 0.000000 1.000000
vn -0.000000 0.000000 -1.000000
vn -0.000000 0.000000 -1.000000
vn -0.000000 0.000000 -1.000000
vn -0.707106 -0.707107 -0.000000
vn -0.693688 -0.693688 0.193890
vn -0.906347 -0.375422 0.193890
vn -0.707106 -0.707107 -0.000000
vn -0.906347 -0.375422 0.193890
vn -0.923879 -0.382684 -0.000000
vn -0.000000 0.000000 1.000000
vn 0.000000 0.000000 1.000000
vn 0.000000 0.000000 1.000000
vn -0.000000 0.000000 -1.000000
vn -0.000000 0.000000 -1.000000
vn -0.000000 0.000000 -1.000000
vn -0.382683 -0.923880 -0.000000
vn -0.375421 -0.906347 0.193890
vn -0.693688 -0.693688 0.193890
vn -0.382683 -0.923880 -0.000000
vn -0.693688 -0.693688 0.193890
vn -0.707106 -0.707107 -0.000000
vn 0.000000 0.000000 1.000000
vn 0.000000 0.000000 1.000000
vn 0.000000 0.000000 1.000000
vn 0.000000 0.000000 -1.000000
vn -0.000000 0.000000 -1.000000
vn -0.000000 0.000000 -1.000000
vn 0.000000 -1.000000 -0.000000
vn 0.000000 -0.981023 0.193890
vn -0.375421 -0.906347 0.193890
vn 0.000000 -1.000000 -0.000000
vn -0.375421 -0.906347 0.193890
vn -0.382683 -0.923880 -0.000000
vn 0.000000 0.000000 1.000000
vn 0.000000 0.000000 1.000000
vn 0.000000 0.000000 1.000000
vn 0.000000 0.000000 -1.000000
vn 0.000000 0.000000 -1.000000
vn -0.000000 0.000000 -1.000000
vn 0.382684 -0.923879 -0.000000
vn 0.375422 -0.906347 0.193890
vn 0.000000 -0.981023 0.193890
vn 0.382684 -0.923879 -0.000000
vn 0.000000 -0.981023 0.193890
vn 0.000000 -1.000000 -0.000000
vn 0.000000 0.000000 1.000000
vn -0.000000 0.000000 1.000000
vn 0.000000 0.000000 1.000000
vn 0.000000 0.000000 -1.000000
vn 0.000000 0.000000 -1.000000
vn -0.000000 0.000000 -1.000000
vn 0.707107 -0.707106 -0.000000
vn 0.693689 -0.693688 0.193890
vn 0.375422 -0.906347 0.193890
vn 0.707107 -0.707106 -0.000000
vn 0.375422 -0.906347 0.193890
vn 0.382684 -0.923879 -0.000000
vn -0.000000 0.000000 1.000000
vn -0.000000 0.000000 1.000000
vn 0.000000 0.000000 1.000000
vn 0.000000 0.000000 -1.000000
vn 0.000000 0.000000 -1.000000
vn -0.000000 0.000000 -1.000000
vn 0.923880 -0.382683 -0.000000
vn 0.906347 -0.375421 0.193890
vn 0.693689 -0.693688 0.193890
vn 0.923880 -0.382683 -0.000000
vn 0.693689 -0.693688 0.193890
vn 0.707107 -0.707106 -0.000000
vn -0.000000 0.000000 1.000000
vn 0.000000 0.000000 1.000000
vn 0.000000 0.000000 1.000000
vn -0.000000 0.000000 -1.000000
vn 0.000000 0.000000 -1.000000
vn -0.000000 0.000000 -1.000000
vn 1.000000 -0.000000 -0.000000
vn 0.981023 -0.000000 0.193890
vn 0.906347 -0.375421 0.193890
vn 1.000000 -0.000000 -0.000000
vn 0.906347 -0.375421 0.193890
vn 0.923880 -0.382683 -0.000000
vn 0.000000 0.000000 1.000000
vn 0.000000 0.000000 1.000000
vn 0.000000 0.000000 1.000000
vn 0.906347 -0.375421 0.193890
vn 0.981023 -0.000000 0.193890
vn 0.925020 -0.000000 0.379919
vn 0.906347 -0.375421 0.193890
vn 0.925020 -0.000000 0.379919
vn 0.854607 -0.353990 0.379919
vn 0.693689 -0.693688 0.193890
vn 0.906347 -0.375421 0.193890
vn 0.854607 -0.353990 0.379919
vn 0.693689 -0.693688 0.193890
vn 0.854607 -0.353990 0.379919
vn 0.654088 -0.654087 0.379919
vn 0.375422 -0.906347 0.193890
vn 0.693689 -0.693688 0.193890
vn 0.654088 -0.654087 0.379919
vn 0.375422 -0.906347 0.193890
vn 0.654088 -0.654087 0.379919
vn 0.353990 -0.854607 0.379919
vn 0.000000 -0.981023 0.193890
vn 0.375422 -0.906347 0.193890
vn 0.353990 -0.854607 0.379919
vn 0.000000 -0.981023 0.193890
vn 0.353990 -0.854607 0.379919
vn 0.000000 -0.925020 0.379919
vn -0.375421 -0.906347 0.193890
vn 0.000000 -0.981023 0.193890
vn 0.000000 -0.925020 0.379919
vn -0.375421 -0.906347 0.193890
vn 0.000000 -0.925020 0.379919
vn -0.353989 -0.854607 0.379919
vn -0.693688 -0.693688 0.193890
vn -0.375421 -0.906347 0.193890
vn -0.353989 -0.854607 0.379919
vn -0.693688 -0.693688 0.193890
vn -0.353989 -0.854607 0.379919
vn -0.654087 -0.654088 0.379919
vn -0.906347 -0.375422 0.193890
vn -0.693688 -0.693688 0.193890
vn -0.654087 -0.654088 0.379919
vn -0.906347 -0.375422 0.193890
vn -0.654087 -0.654088 0.379919
vn -0.854607 -0.353990 0.379919
vn -0.981023 -0.000000 0.193890
vn -0.906347 -0.375422 0.193890
vn -0.854607 -0.353990 0.379919
vn -0.981023 -0.000000 0.193890
vn -0.854607 -0.353990 0.379919
vn -0.925020 -0.000000 0.379919
vn -0.906347 0.375421 0.193891
vn -0.981023 -0.000000 0.193890
vn -0.925020 -0.000000 0.379919
vn -0.906347 0.375421 0.193891
vn -0.925020 -0.000000 0.379919
vn -0.854607 0.353989 0.379919
vn -0.693688 0.693688 0.193891
vn -0.906347 0.375421 0.193891
vn -0.854607 0.353989 0.379919
vn -0.693688 0.693688 0.193891
vn -0.854607 0.353989 0.379919
vn -0.654088 0.654087 0.379919
vn -0.375422 0.906347 0.193891
vn -0.693688 0.693688 0.193891
vn -0.654088 0.654087 0.379919
vn -0.375422 0.906347 0.193891
vn -0.654088 0.654087 0.379919
vn -0.353990 0.854607 0.379919
vn -0.000000 0.981023 0.193891
vn -0.375422 0.906347 0.193891
vn -0.353990 0.854607 0.379919
vn -0.000000 0.981023 0.193891
vn -0.353990 0.854607 0.379919
vn -0.000000 0.925020 0.379919
vn 0.375421 0.906347 0.193891
vn -0.000000 0.981023 0.193891
vn -0.000000 0.925020 0.379919
vn 0.375421 0.906347 0.193891
vn -0.000000 0.925020 0.379919
vn 0.353990 0.854607 0.379919
vn 0.693688 0.693688 0.193891
vn 0.375421 0.906347 0.193891
vn 0.353990 0.854607 0.379919
vn 0.693688 0.693688 0.193891
vn 0.353990 0.854607 0.379919
vn 0.654088 0.654088 0.379919
vn 0.906347 0.375421 0.193891
vn 0.693688 0.693688 0.193891
vn 0.654088 0.654088 0.379919
vn 0.906347 0.375421 0.193891
vn 0.654088 0.654088 0.379919
vn 0.854607 0.353990 0.379919
vn 0.981023 -0.000000 0.193890
vn 0.906347 0.375421 0.193891
vn 0.854607 0.353990 0.379919
vn 0.981023 -0.000000 0.193890
vn 0.854607 0.353990 0.379919
vn 0.925020 -0.000000 0.379919
vn 0.707107 0.707107 0.000000
vn 0.689284 0.689284 -0.223105
vn 0.373037 0.900593 -0.223105
vn 0.707107 0.707107 0.000000
vn 0.373037 0.900593 -0.223105
vn 0.382683 0.923880 0.000000
vn 0.382683 0.923880 0.000000
vn 0.373037 0.900593 -0.223105
vn -0.000000 0.974794 -0.223105
vn 0.382683 0.923880 0.000000
vn -0.000000 0.974794 -0.223105
vn -0.000000 1.000000 0.000000
vn -0.000000 1.000000 0.000000
vn -0.000000 0.974794 -0.223105
vn -0.373038 0.900592 -0.223105
vn -0.000000 1.000000 0.000000
vn -0.373038 0.900592 -0.223105
vn -0.382684 0.923880 0.000000
vn -0.382684 0.923880 0.000000
vn -0.373038 0.900592 -0.223105
vn -0.689284 0.689283 -0.223105
vn -0.382684 0.923880 0.000000
vn -0.689284 0.689283 -0.223105
vn -0.707107 0.707107 0.000000
vn -0.707107 0.707107 0.000000
vn -0.689284 0.689283 -0.223105
vn -0.900593 0.373037 -0.223106
vn -0.707107 0.707107 0.000000
vn -0.900593 0.373037 -0.223106
vn -0.923880 0.382683 0.000000
vn -0.923880 0.382683 0.000000
vn -0.900593 0.373037 -0.223106
vn -0.974794 -0.000000 -0.223106
vn -0.923880 0.382683 0.000000
vn -0.974794 -0.000000 -0.223106
vn -1.000000 -0.000000 -0.000000
vn -1.000000 -0.000000 -0.000000
vn -0.974794 -0.000000 -0.223106
vn -0.900592 -0.373038 -0.223106
vn -1.000000 -0.000000 -0.000000
vn -0.900592 -0.373038 -0.223106
vn -0.923879 -0.382684 -0.000000
vn -0.923879 -0.382684 -0.000000
vn -0.900592 -0.373038 -0.223106
vn -0.689283 -0.689284 -0.223106
vn -0.923879 -0.382684 -0.000000
vn -0.689283 -0.689284 -0.223106
vn -0.707106 -0.707107 -0.000000
vn -0.707106 -0.707107 -0.000000
vn -0.689283 -0.689284 -0.223106
vn -0.373037 -0.900593 -0.223106
vn -0.707106 -0.707107 -0.000000
vn -0.373037 -0.900593 -0.223106
vn -0.382683 -0.923880 -0.000000
vn -0.382683 -0.923880 -0.000000
vn -0.373037 -0.900593 -0.223106
vn 0.000000 -0.974794 -0.223106
vn -0.382683 -0.923880 -0.000000
vn 0.000000 -0.974794 -0.223106
vn 0.000000 -1.000000 -0.000000
vn 0.000000 -1.000000 -0.000000
vn 0.000000 -0.974794 -0.223106
vn 0.373038 -0.900592 -0.223106
vn 0.000000 -1.000000 -0.000000
vn 0.373038 -0.900592 -0.223106
vn 0.382684 -0.923879 -0.000000
vn 0.382684 -0.923879 -0.000000
vn 0.373038 -0.900592 -0.223106
vn 0.689284 -0.689283 -0.223106
vn 0.382684 -0.923879 -0.000000
vn 0.689284 -0.689283 -0.223106
vn 0.707107 -0.707106 -0.000000
vn 0.707107 -0.707106 -0.000000
vn 0.689284 -0.689283 -0.223106
vn 0.900593 -0.373038 -0.223106
vn 0.707107 -0.707106 -0.000000
vn 0.900593 -0.373038 -0.223106
vn 0.923880 -0.382683 -0.000000
vn 0.923880 -0.382683 -0.000000
vn 0.900593 -0.373038 -0.223106
vn 0.974794 -0.000000 -0.223106
vn 0.923880 -0.382683 -0.000000
vn 0.974794 -0.000000 -0.223106
vn 1.000000 -0.000000 -0.000000
vn 1.000000 -0.000000 -0.000000
vn 0.974794 -0.000000 -0.223106
vn 0.900592 0.373038 -0.223106
vn 1.000000 -0.000000 -0.000000
vn 0.900592 0.373038 -0.223106
vn 0.923880 0.382683 0.000000
vn 0.923880 0.382683 0.000000
vn 0.900592 0.373038 -0.223106
vn 0.689284 0.689284 -0.223105
vn 0.923880 0.382683 0.000000
vn 0.689284 0.689284 -0.223105
vn 0.707107 0.707107 0.000000
vn 0.974794 -0.000000 -0.223106
vn 0.900593 -0.373038 -0.223106
vn 0.832236 -0.344723 -0.434223
vn 0.974794 -0.000000 -0.223106
vn 0.832236 -0.344723 -0.434223
vn 0.900805 -0.000000 -0.434223
vn 0.000000 -0.974794 -0.223106
vn -0.373037 -0.900593 -0.223106
vn -0.344723 -0.832236 -0.434223
vn 0.000000 -0.974794 -0.223106
vn -0.344723 -0.832236 -0.434223
vn 0.000000 -0.900805 -0.434223
vn -0.373037 -0.900593 -0.223106
vn -0.689283 -0.689284 -0.223106
vn -0.636965 -0.636966 -0.434223
vn -0.373037 -0.900593 -0.223106
vn -0.636965 -0.636966 -0.434223
vn -0.344723 -0.832236 -0.434223
vn -0.689283 -0.689284 -0.223106
vn -0.900592 -0.373038 -0.223106
vn -0.832236 -0.344724 -0.434223
vn -0.689283 -0.689284 -0.223106
vn -0.832236 -0.344724 -0.434223
vn -0.636965 -0.636966 -0.434223
vn 0.900593 -0.373038 -0.223106
vn 0.689284 -0.689283 -0.223106
vn 0.636966 -0.636965 -0.434223
vn 0.900593 -0.373038 -0.223106
vn 0.636966 -0.636965 -0.434223
vn 0.832236 -0.344723 -0.434223
vn -0.900592 -0.373038 -0.223106
vn -0.974794 -0.000000 -0.223106
vn -0.900805 -0.000000 -0.434223
vn -0.900592 -0.373038 -0.223106
vn -0.900805 -0.000000 -0.434223
vn -0.832236 -0.344724 -0.434223
vn -0.974794 -0.000000 -0.223106
vn -0.900593 0.373037 -0.223106
vn -0.832236 0.344723 -0.434223
vn -0.974794 -0.000000 -0.223106
vn -0.832236 0.344723 -0.434223
vn -0.900805 -0.000000 -0.434223
vn -0.900593 0.373037 -0.223106
vn -0.689284 0.689283 -0.223105
vn -0.636966 0.636965 -0.434223
vn -0.900593 0.373037 -0.223106
vn -0.636966 0.636965 -0.434223
vn -0.832236 0.344723 -0.434223
vn -0.689284 0.689283 -0.223105
vn -0.373038 0.900592 -0.223105
vn -0.344723 0.832236 -0.434223
vn -0.689284 0.689283 -0.223105
vn -0.344723 0.832236 -0.434223
vn -0.636966 0.636965 -0.434223
vn -0.373038 0.900592 -0.223105
vn -0.000000 0.974794 -0.223105
vn -0.000000 0.900805 -0.434223
vn -0.373038 0.900592 -0.223105
vn -0.000000 0.900805 -0.434223
vn -0.344723 0.832236 -0.434223
vn 0.689284 -0.689283 -0.223106
vn 0.373038 -0.900592 -0.223106
vn 0.344724 -0.832236 -0.434223
vn 0.689284 -0.689283 -0.223106
vn 0.344724 -0.832236 -0.434223
vn 0.636966 -0.636965 -0.434223
vn -0.000000 0.974794 -0.223105
vn 0.373037 0.900593 -0.223105
vn 0.344723 0.832236 -0.434223
vn -0.000000 0.974794 -0.223105
vn 0.344723 0.832236 -0.434223
vn -0.000000 0.900805 -0.434223
vn 0.373037 0.900593 -0.223105
vn 0.689284 0.689284 -0.223105
vn 0.636966 0.636966 -0.434223
vn 0.373037 0.900593 -0.223105
vn 0.636966 0.636966 -0.434223
vn 0.344723 0.832236 -0.434223
vn 0.689284 0.689284 -0.223105
vn 0.900592 0.373038 -0.223106
vn 0.832236 0.344723 -0.434223
vn 0.689284 0.689284 -0.223105
vn 0.832236 0.344723 -0.434223
vn 0.636966 0.636966 -0.434223
vn 0.373038 -0.900592 -0.223106
vn 0.000000 -0.974794 -0.223106
vn 0.000000 -0.900805 -0.434223
vn 0.373038 -0.900592 -0.223106
vn 0.000000 -0.900805 -0.434223
vn 0.344724 -0.832236 -0.434223
vn 0.900592 0.373038 -0.223106
vn 0.974794 -0.000000 -0.223106
vn 0.900805 -0.000000 -0.434223
vn 0.900592 0.373038 -0.223106
vn 0.900805 -0.000000 -0.434223
vn 0.832236 0.344723 -0.434223
f 82/1/1 67/2/2 1/3/3
f 58/4/4 6/5/5 4/6/6
f 58/7/7 4/8/8 51/9/9
f 35/10/10 50/11/11 2/12/12
f 81/13/13 82/14/14 1/15/15
f 59/16/16 8/17/17 6/18/18
f 59/19/19 6/20/20 58/21/21
f 50/22/22 49/23/23 2/24/24
f 80/25/25 81/26/26 1/27/27
f 61/28/28 10/29/29 8/30/30
f 61/31/31 8/32/32 59/33/33
f 49/34/34 48/35/35 2/36/36
f 78/37/37 80/38/38 1/39/39
f 64/40/40 12/41/41 10/42/42
f 64/43/43 10/44/44 61/45/45
f 48/46/46 47/47/47 2/48/48
f 77/49/49 78/50/50 1/51/51
f 63/52/52 14/53/53 12/54/54
f 63/55/55 12/56/56 64/57/57
f 47/58/58 46/59/59 2/60/60
f 76/61/61 77/62/62 1/63/63
f 65/64/64 16/65/65 14/66/66
f 65/67/67 14/68/68 63/69/69
f 46/70/70 45/71/71 2/72/72
f 75/73/73 76/74/74 1/75/75
f 66/76/76 18/77/77 16/78/78
f 66/79/79 16/80/80 65/81/81
f 45/82/82 44/83/83 2/84/84
f 74/85/85 75/86/86 1/87/87
f 52/88/88 20/89/89 18/90/90
f 52/91/91 18/92/92 66/93/93
f 44/94/94 43/95/95 2/96/96
f 72/97/97 74/98/98 1/99/99
f 53/100/100 22/101/101 20/102/102
f 53/103/103 20/104/104 52/105/105
f 43/106/106 42/107/107 2/108/108
f 71/109/109 72/110/110 1/111/111
f 62/112/112 24/113/113 22/114/114
f 62/115/115 22/116/116 53/117/117
f 42/118/118 41/119/119 2/120/120
f 70/121/121 71/122/122 1/123/123
f 60/124/124 26/125/125 24/126/126
f 60/127/127 24/128/128 62/129/129
f 41/130/130 40/131/131 2/132/132
f 69/133/133 70/134/134 1/135/135
f 56/136/136 28/137/137 26/138/138
f 56/139/139 26/140/140 60/141/141
f 40/142/142 39/143/143 2/144/144
f 79/145/145 69/146/146 1/147/147
f 57/148/148 30/149/149 28/150/150
f 57/151/151 28/152/152 56/153/153
f 39/154/154 38/155/155 2/156/156
f 73/157/157 79/158/158 1/159/159
f 55/160/160 32/161/161 30/162/162
f 55/163/163 30/164/164 57/165/165
f 38/166/166 37/167/167 2/168/168
f 68/169/169 73/170/170 1/171/171
f 54/172/172 34/173/173 32/174/174
f 54/175/175 32/176/176 55/177/177
f 37/178/178 36/179/179 2/180/180
f 67/181/181 68/182/182 1/183/183
f 51/184/184 4/185/185 34/186/186
f 51/187/187 34/188/188 54/189/189
f 36/190/190 35/191/191 2/192/192
f 34/193/193 4/194/194 35/195/195
f 34/196/196 35/197/197 36/198/198
f 32/199/199 34/200/200 36/201/201
f 32/202/202 36/203/203 37/204/204
f 30/205/205 32/206/206 37/207/207
f 30/208/208 37/209/209 38/210/210
f 28/211/211 30/212/212 38/213/213
f 28/214/214 38/215/215 39/216/216
f 26/217/217 28/218/218 39/219/219
f 26/220/220 39/221/221 40/222/222
f 24/223/223 26/224/224 40/225/225
f 24/226/226 40/227/227 41/228/228
f 22/229/229 24/230/230 41/231/231
f 22/232/232 41/233/233 42/234/234
f 20/235/235 22/236/236 42/237/237
f 20/238/238 42/239/239 43/240/240
f 18/241/241 20/242/242 43/243/243
f 18/244/244 43/245/245 44/246/246
f 16/247/247 18/248/248 44/249/249
f 16/250/250 44/251/251 45/252/252
f 14/253/253 16/254/254 45/255/255
f 14/256/256 45/257/257 46/258/258
f 12/259/259 14/260/260 46/261/261
f 12/262/262 46/263/263 47/264/264
f 10/265/265 12/266/266 47/267/267
f 10/268/268 47/269/269 48/270/270
f 8/271/271 10/272/272 48/273/273
f 8/274/274 48/275/275 49/276/276
f 6/277/277 8/278/278 49/279/279
f 6/280/280 49/281/281 50/282/282
f 4/283/283 6/284/284 50/285/285
f 4/286/286 50/287/287 35/288/288
f 59/289/289 7/290/290 9/291/291
f 59/292/292 9/293/293 61/294/294
f 61/295/295 9/296/296 11/297/297
f 61/298/298 11/299/299 64/300/300
f 64/301/301 11/302/302 13/303/303
f 64/304/304 13/305/305 63/306/306
f 63/307/307 13/308/308 15/309/309
f 63/310/310 15/311/311 65/312/312
f 65/313/313 15/314/314 17/315/315
f 65/316/316 17/317/317 66/318/318
f 66/319/319 17/320/320 19/321/321
f 66/322/322 19/323/323 52/324/324
f 52/325/325 19/326/326 21/327/327
f 52/328/328 21/329/329 53/330/330
f 53/331/331 21/332/332 23/333/333
f 53/334/334 23/335/335 62/336/336
f 62/337/337 23/338/338 25/339/339
f 62/340/340 25/341/341 60/342/342
f 60/343/343 25/344/344 27/345/345
f 60/346/346 27/347/347 56/348/348
f 56/349/349 27/350/350 29/351/351
f 56/352/352 29/353/353 57/354/354
f 57/355/355 29/356/356 31/357/357
f 57/358/358 31/359/359 55/360/360
f 55/361/361 31/362/362 33/363/363
f 55/364/364 33/365/365 54/366/366
f 54/367/367 33/368/368 3/369/369
f 54/370/370 3/371/371 51/372/372
f 51/373/373 3/374/374 5/375/375
f 51/376/376 5/377/377 58/378/378
f 58/379/379 5/380/380 7/381/381
f 58/382/382 7/383/383 59/384/384
f 3/385/385 33/386/386 68/387/387
f 3/388/388 68/389/389 67/390/390
f 27/391/391 25/392/392 70/393/393
f 27/394/394 70/395/395 69/396/396
f 25/397/397 23/398/398 71/399/399
f 25/400/400 71/401/401 70/402/402
f 23/403/403 21/404/404 72/405/405
f 23/406/406 72/407/407 71/408/408
f 33/409/409 31/410/410 73/411/411
f 33/412/412 73/413/413 68/414/414
f 21/415/415 19/416/416 74/417/417
f 21/418/418 74/419/419 72/420/420
f 19/421/421 17/422/422 75/423/423
f 19/424/424 75/425/425 74/426/426
f 17/427/427 15/428/428 76/429/429
f 17/430/430 76/431/431 75/432/432
f 15/433/433 13/434/434 77/435/435
f 15/436/436 77/437/437 76/438/438
f 13/439/439 11/440/440 78/441/441
f 13/442/442 78/443/443 77/444/444
f 31/445/445 29/446/446 79/447/447
f 31/448/448 79/449/449 73/450/450
f 11/451/451 9/452/452 80/453/453
f 11/454/454 80/455/455 78/456/456
f 9/457/457 7/458/458 81/459/459
f 9/460/460 81/461/461 80/462/462
f 7/463/463 5/464/464 82/465/465
f 7/466/466 82/467/467 81/468/468
f 29/469/469 27/470/470 69/471/471
f 29/472/472 69/473/473 79/474/474
f 5/475/475 3/476/476 67/477/477
f 5/478/478 67/479/479 82/480/480
