v 6.167573 3.000000 7.265367
v -7.000000 3.500000 -2.955109
v 6.537429 3.500000 5.299862
v 8.386720 2.997619 -4.527650
v -6.999999 3.000000 6.044891
v -3.000000 3.000000 -2.955110
v -7.000000 3.500000 4.044891
v -7.000001 2.997619 -5.955109
v -3.000000 3.500000 4.044890
v 2.606425 3.500000 4.560146
v -2.999999 3.000000 6.044890
v 2.236566 3.000000 6.525648
v -3.000001 2.997619 -5.955110
v 4.455717 2.997619 -5.267366
v 3.900929 3.000000 -2.319113
v 3.900929 3.500000 -2.319113
v -0.996000 3.500000 4.044890
v -0.996000 2.000000 3.044890
v 0.996001 3.500000 4.044889
v 0.996001 2.000000 3.044890
v -0.996001 2.000000 -2.955110
v 0.996000 3.500000 -2.955110
v -0.996001 3.500000 -2.955110
v 0.996000 2.000000 -2.955110
v -3.000000 3.500000 -2.955110
v 7.831934 3.500000 -1.579397
v -7.000000 3.000000 -2.955109
v 7.831934 3.000000 -1.579397
v -1.000000 3.000000 4.535181
v 1.000000 3.000000 4.535181
v 0.996000 2.987970 -3.600842
v -0.996001 2.987970 -3.600842
vt 0.204463 0.850070
vt 0.124385 0.850064
vt 0.204463 0.850070
vt 0.815523 0.688455
vt 0.815596 0.658643
vt 0.851941 0.658643
vt 0.815523 0.688455
vt 0.851941 0.658643
vt 0.852013 0.688455
vt 0.204205 0.881320
vt 0.444439 0.881339
vt 0.391054 0.881335
vt 0.204205 0.881320
vt 0.391054 0.881335
vt 0.204205 0.881320
vt 0.779033 0.678647
vt 0.779033 0.738186
vt 0.706052 0.738186
vt 0.779033 0.678647
vt 0.706052 0.738186
vt 0.706052 0.678647
vt 0.706052 0.562057
vt 0.706052 0.738186
vt 0.779033 0.738186
vt 0.706052 0.562057
vt 0.779033 0.738186
vt 0.779033 0.562057
vt 0.779033 0.678647
vt 0.706052 0.678647
vt 0.706052 0.738186
vt 0.779033 0.678647
vt 0.706052 0.738186
vt 0.779033 0.738186
vt 0.706052 0.562057
vt 0.706052 0.498139
vt 0.779033 0.498139
vt 0.706052 0.562057
vt 0.779033 0.498139
vt 0.779033 0.562057
vt 0.779033 0.562057
vt 0.706052 0.562057
vt 0.706052 0.498139
vt 0.779033 0.562057
vt 0.706052 0.498139
vt 0.779033 0.498139
vt 0.815596 0.678647
vt 0.779033 0.678647
vt 0.779033 0.738186
vt 0.815596 0.562057
vt 0.815596 0.658643
vt 0.779033 0.738186
vt 0.815596 0.562057
vt 0.779033 0.738186
vt 0.779033 0.562057
vt 0.851941 0.549140
vt 0.851941 0.562057
vt 0.815596 0.562057
vt 0.851941 0.549140
vt 0.815596 0.562057
vt 0.815596 0.549140
vt 0.779033 0.738186
vt 0.779033 0.678647
vt 0.815596 0.678647
vt 0.863659 0.562057
vt 0.823409 0.562057
vt 0.823409 0.678647
vt 0.863659 0.562057
vt 0.823409 0.678647
vt 0.863659 0.678647
vt 0.779033 0.562057
vt 0.779033 0.738186
vt 0.815596 0.658643
vt 0.779033 0.562057
vt 0.815596 0.658643
vt 0.815596 0.562057
vt 0.827315 0.562057
vt 0.863659 0.562057
vt 0.863659 0.658643
vt 0.827315 0.562057
vt 0.863659 0.658643
vt 0.827315 0.658643
vt 0.779033 0.562057
vt 0.779033 0.498139
vt 0.815596 0.562057
vt 0.815596 0.562057
vt 0.779033 0.498139
vt 0.779033 0.562057
vt 0.779033 0.562057
vt 0.779033 0.498139
vt 0.706052 0.498139
vt 0.779033 0.562057
vt 0.706052 0.498139
vt 0.706052 0.562057
vt 0.815523 0.688455
vt 0.815596 0.658643
vt 0.779033 0.738186
vt 0.779033 0.738186
vt 0.815596 0.658643
vt 0.815523 0.688455
vt 0.204463 0.850070
vt 0.391312 0.850085
vt 0.444697 0.850089
vt 0.204463 0.850070
vt 0.444697 0.850089
vt 0.204463 0.850070
vt 0.779033 0.562057
vt 0.779033 0.678647
vt 0.706052 0.678647
vt 0.779033 0.562057
vt 0.706052 0.678647
vt 0.706052 0.562057
vt 0.779033 0.498139
vt 0.706052 0.498139
vt 0.706052 0.562057
vt 0.779033 0.498139
vt 0.706052 0.562057
vt 0.779033 0.562057
vt 0.779033 0.562057
vt 0.779033 0.738186
vt 0.706052 0.738186
vt 0.779033 0.562057
vt 0.706052 0.738186
vt 0.706052 0.562057
vt 0.204205 0.881320
vt 0.124127 0.881314
vt 0.204205 0.881320
vt 0.706052 0.562057
vt 0.706052 0.678647
vt 0.779033 0.678647
vt 0.706052 0.562057
vt 0.779033 0.678647
vt 0.779033 0.562057
vt 0.815596 0.549140
vt 0.815596 0.562057
vt 0.779033 0.498139
vt 0.779033 0.498139
vt 0.779033 0.562057
vt 0.815596 0.562057
vt 0.779033 0.498139
vt 0.815596 0.562057
vt 0.815596 0.549140
vt 0.779033 0.562057
vt 0.779033 0.498139
vt 0.815596 0.562057
vt 0.815596 0.562057
vt 0.815596 0.678647
vt 0.779033 0.678647
vt 0.815596 0.562057
vt 0.779033 0.678647
vt 0.779033 0.562057
vt 0.779033 0.562057
vt 0.779033 0.678647
vt 0.815596 0.678647
vt 0.779033 0.562057
vt 0.815596 0.678647
vt 0.815596 0.562057
vt 0.815523 0.688455
vt 0.815596 0.678647
vt 0.779033 0.738186
vt 0.779033 0.738186
vt 0.815596 0.678647
vt 0.815523 0.688455
vt 0.852013 0.688455
vt 0.851941 0.678647
vt 0.815596 0.678647
vt 0.852013 0.688455
vt 0.815596 0.678647
vt 0.815523 0.688455
vt 0.779033 0.498139
vt 0.815596 0.562057
vt 0.815596 0.549140
vt 0.815596 0.549140
vt 0.815596 0.562057
vt 0.779033 0.498139
vt 0.815596 0.549140
vt 0.815596 0.562057
vt 0.851941 0.562057
vt 0.815596 0.549140
vt 0.851941 0.562057
vt 0.851941 0.549140
vn 0.982752 0.000001 0.184929
vn 0.982752 0.000000 0.184929
vn 0.982752 0.000001 0.184929
vn 0.000000 -0.830382 0.557195
vn 0.000000 -0.830382 0.557195
vn 0.000000 -0.830382 0.557195
vn 0.000000 -0.830382 0.557195
vn 0.000000 -0.830382 0.557195
vn 0.000000 -0.830382 0.557195
vn -1.000000 -0.000000 0.000000
vn -1.000000 -0.000000 0.000000
vn -1.000000 -0.000000 0.000000
vn -1.000000 -0.000000 0.000000
vn -1.000000 -0.000000 0.000000
vn -1.000000 -0.000000 0.000000
vn -0.030052 0.992481 0.118655
vn -0.059655 0.970032 0.235539
vn -0.044852 0.970142 0.238352
vn -0.030052 0.992481 0.118655
vn -0.044852 0.970142 0.238352
vn -0.022595 0.992508 0.120076
vn -0.000073 -1.000000 0.000390
vn 0.000000 -1.000000 0.000000
vn 0.000000 -1.000000 0.000000
vn -0.000073 -1.000000 0.000390
vn 0.000000 -1.000000 0.000000
vn 0.180864 -0.983145 0.026736
vn 0.000000 0.992508 0.122183
vn 0.000000 0.992508 0.122183
vn 0.000000 0.970142 0.242536
vn 0.000000 0.992508 0.122183
vn 0.000000 0.970142 0.242536
vn 0.000000 0.970142 0.242536
vn 0.015324 0.996561 -0.081436
vn 0.030543 0.986267 -0.162312
vn 0.032941 0.986264 -0.161860
vn 0.015324 0.996561 -0.081436
vn 0.032941 0.986264 -0.161860
vn 0.016527 0.996560 -0.081209
vn 0.000000 -1.000000 0.000397
vn 0.000000 -1.000000 0.000397
vn 0.000000 -1.000000 0.000794
vn 0.000000 -1.000000 0.000397
vn 0.000000 -1.000000 0.000794
vn 0.000000 -1.000000 0.000794
vn 0.000000 0.996683 0.081387
vn 0.000000 0.992508 0.122183
vn 0.000000 0.970142 0.242536
vn -0.446499 -0.894784 0.000355
vn -0.446499 -0.894784 0.000000
vn -0.446499 -0.894784 0.000000
vn -0.446499 -0.894784 0.000355
vn -0.446499 -0.894784 0.000000
vn -0.446499 -0.894784 0.000355
vn -0.000000 -0.547102 -0.837066
vn -0.000000 -0.547102 -0.837066
vn -0.000000 -0.547102 -0.837066
vn -0.000000 -0.547102 -0.837066
vn -0.000000 -0.547102 -0.837066
vn -0.000000 -0.547102 -0.837066
vn -0.059655 0.970032 0.235539
vn -0.030052 0.992481 0.118655
vn -0.024983 0.996634 0.078085
vn 0.011816 0.998473 -0.053968
vn -0.000000 0.998474 -0.055222
vn 0.000000 0.996683 0.081387
vn 0.011816 0.998473 -0.053968
vn 0.000000 0.996683 0.081387
vn -0.024983 0.996634 0.078085
vn 0.180864 -0.983145 0.026736
vn 0.397816 -0.916380 0.044602
vn 0.397816 -0.916380 0.044602
vn 0.180864 -0.983145 0.026736
vn 0.397816 -0.916380 0.044602
vn 0.355883 -0.933071 0.052207
vn 0.000000 -1.000000 0.000000
vn 0.000000 -1.000000 0.000000
vn 0.000000 -1.000000 0.000000
vn 0.000000 -1.000000 0.000000
vn 0.000000 -1.000000 0.000000
vn 0.000000 -1.000000 0.000000
vn 0.016527 0.996560 -0.081209
vn 0.032941 0.986264 -0.161860
vn 0.011816 0.998473 -0.053968
vn -0.000000 0.998474 -0.055222
vn -0.000000 0.986267 -0.165161
vn -0.000000 0.996561 -0.082865
vn -0.000000 0.996561 -0.082865
vn -0.000000 0.986267 -0.165161
vn -0.000000 0.986267 -0.165161
vn -0.000000 0.996561 -0.082865
vn -0.000000 0.986267 -0.165161
vn -0.000000 0.996561 -0.082865
vn -0.668792 -0.616516 0.415483
vn -0.668792 -0.616516 0.415483
vn -0.668792 -0.616516 0.415483
vn 0.388164 -0.764789 0.514223
vn 0.388164 -0.764789 0.514223
vn 0.388164 -0.764789 0.514223
vn 0.982752 0.000001 0.184929
vn 0.982752 0.000002 0.184929
vn 0.982752 0.000002 0.184929
vn 0.982752 0.000001 0.184929
vn 0.982752 0.000002 0.184929
vn 0.982752 0.000001 0.184929
vn 0.016527 0.996560 -0.081209
vn -0.030052 0.992481 0.118655
vn -0.022595 0.992508 0.120076
vn 0.016527 0.996560 -0.081209
vn -0.022595 0.992508 0.120076
vn 0.015324 0.996561 -0.081436
vn 0.158612 -0.986865 0.030644
vn -0.000147 -1.000000 0.000780
vn -0.000073 -1.000000 0.000390
vn 0.158612 -0.986865 0.030644
vn -0.000073 -1.000000 0.000390
vn 0.180864 -0.983145 0.026736
vn 0.000000 -1.000000 0.000397
vn 0.000000 -1.000000 0.000000
vn 0.000000 -1.000000 0.000000
vn 0.000000 -1.000000 0.000397
vn 0.000000 -1.000000 0.000000
vn 0.000000 -1.000000 0.000397
vn -1.000000 -0.000000 0.000000
vn -1.000000 0.000000 0.000000
vn -1.000000 -0.000000 0.000000
vn -0.000000 0.996561 -0.082865
vn 0.000000 0.992508 0.122183
vn 0.000000 0.992508 0.122183
vn -0.000000 0.996561 -0.082865
vn 0.000000 0.992508 0.122183
vn -0.000000 0.996561 -0.082865
vn -0.145880 0.775176 -0.614672
vn -0.145880 0.775176 -0.614672
vn -0.288639 0.750208 -0.594874
vn 0.158612 -0.986865 0.030644
vn 0.180864 -0.983145 0.026736
vn 0.355883 -0.933071 0.052207
vn 0.591550 0.631758 -0.500950
vn 0.591550 0.631758 -0.500950
vn 0.591550 0.631758 -0.500950
vn -0.446499 -0.894784 0.000355
vn -0.446499 -0.894784 0.000710
vn -0.446499 -0.894784 0.000355
vn 0.011816 0.998473 -0.053968
vn -0.024983 0.996634 0.078085
vn -0.030052 0.992481 0.118655
vn 0.011816 0.998473 -0.053968
vn -0.030052 0.992481 0.118655
vn 0.016527 0.996560 -0.081209
vn -0.000000 0.996561 -0.082865
vn 0.000000 0.992508 0.122183
vn 0.000000 0.996683 0.081387
vn -0.000000 0.996561 -0.082865
vn 0.000000 0.996683 0.081387
vn -0.000000 0.998474 -0.055222
vn 0.475557 0.613961 0.629998
vn 0.475557 0.613961 0.629998
vn 0.475557 0.613961 0.629998
vn -0.756498 0.454795 0.469970
vn -0.756498 0.454795 0.469970
vn -0.756498 0.454795 0.469970
vn 0.000000 0.700141 0.714005
vn 0.000000 0.700141 0.714005
vn 0.000000 0.700141 0.714005
vn 0.000000 0.700141 0.714005
vn 0.000000 0.700141 0.714005
vn 0.000000 0.700141 0.714005
vn -0.372737 -0.507676 -0.776745
vn -0.372737 -0.507676 -0.776745
vn -0.372737 -0.507676 -0.776745
vn 0.700197 -0.390603 -0.597623
vn 0.700197 -0.390603 -0.597623
vn 0.700197 -0.390603 -0.597623
vn -0.000000 0.783558 -0.621319
vn -0.000000 0.783558 -0.621319
vn -0.145880 0.775176 -0.614672
vn -0.000000 0.783558 -0.621319
vn -0.145880 0.775176 -0.614672
vn -0.145880 0.775176 -0.614672
f 28/1/1 4/2/2 26/3/3
f 29/4/4 18/5/5 20/6/6
f 29/7/7 20/8/8 30/9/9
f 27/10/10 5/11/11 7/12/12
f 27/13/13 7/14/14 2/15/15
f 10/16/16 12/17/17 1/18/18
f 10/19/19 1/20/20 3/21/21
f 28/22/22 1/23/23 12/24/24
f 28/25/25 12/26/26 15/27/27
f 9/28/28 7/29/29 5/30/30
f 9/31/31 5/32/32 11/33/33
f 26/34/34 4/35/35 14/36/36
f 26/37/37 14/38/38 16/39/39
f 6/40/40 27/41/41 8/42/42
f 6/43/43 8/44/44 13/45/45
f 17/46/46 9/47/47 11/48/48
f 21/49/49 18/50/50 11/51/51
f 21/52/52 11/53/53 6/54/54
f 31/55/55 24/56/56 21/57/57
f 31/58/58 21/59/59 32/60/60
f 12/61/61 10/62/62 19/63/63
f 22/64/64 23/65/65 17/66/66
f 22/67/67 17/68/68 19/69/69
f 15/70/70 12/71/71 20/72/72
f 15/73/73 20/74/74 24/75/75
f 21/76/76 24/77/77 20/78/78
f 21/79/79 20/80/80 18/81/81
f 16/82/82 14/83/83 22/84/84
f 23/85/85 13/86/86 25/87/87
f 25/88/88 13/89/89 8/90/90
f 25/91/91 8/92/92 2/93/93
f 30/94/94 20/95/95 12/96/96
f 11/97/97 18/98/98 29/99/99
f 26/100/100 3/101/101 1/102/102
f 26/103/103 1/104/104 28/105/105
f 16/106/106 10/107/107 3/108/108
f 16/109/109 3/110/110 26/111/111
f 14/112/112 4/113/113 28/114/114
f 14/115/115 28/116/116 15/117/117
f 6/118/118 11/119/119 5/120/120
f 6/121/121 5/122/122 27/123/123
f 2/124/124 8/125/125 27/126/126
f 2/127/127 7/128/128 9/129/129
f 2/130/130 9/131/131 25/132/132
f 31/133/133 22/134/134 14/135/135
f 14/136/136 15/137/137 24/138/138
f 13/139/139 23/140/140 32/141/141
f 6/142/142 13/143/143 21/144/144
f 22/145/145 19/146/146 10/147/147
f 22/148/148 10/149/149 16/150/150
f 25/151/151 9/152/152 17/153/153
f 25/154/154 17/155/155 23/156/156
f 29/157/157 17/158/158 11/159/159
f 12/160/160 19/161/161 30/162/162
f 30/163/163 19/164/164 17/165/165
f 30/166/166 17/167/167 29/168/168
f 14/169/169 24/170/170 31/171/171
f 32/172/172 21/173/173 13/174/174
f 32/175/175 23/176/176 22/177/177
f 32/178/178 22/179/179 31/180/180
