v -8.055243 -0.000148 -0.055243
v -8.055243 -0.000148 0.055243
v -7.944757 -0.000148 -0.055243
v -7.944757 -0.000148 0.055243
v -8.055243 3.552598 -0.903299
v -7.944757 3.552598 -0.903299
v -7.944757 3.552598 -0.792812
v -8.055243 3.552598 -0.792812
v -12.055243 -0.000148 -0.055243
v -12.055243 -0.000148 0.055243
v -11.944757 -0.000148 -0.055243
v -11.944757 -0.000148 0.055243
v -12.055243 3.552598 -0.903299
v -11.944757 3.552598 -0.903299
v -11.944757 3.552598 -0.792812
v -12.055243 3.552598 -0.792812
v -16.055243 -0.000148 -0.055243
v -16.055243 -0.000148 0.055243
v -15.944757 -0.000148 -0.055243
v -15.944757 -0.000148 0.055243
v -16.055243 3.552598 -0.903299
v -15.944757 3.552598 -0.903299
v -15.944757 3.552598 -0.792812
v -16.055243 3.552598 -0.792812
v 0.055199 -0.000148 -0.055287
v -0.055287 -0.000148 -0.055199
v 0.055287 -0.000148 0.055199
v -0.055199 -0.000148 0.055287
v 0.911415 3.552598 -0.821726
v 0.913713 3.552598 -0.711264
v 0.803249 3.552598 -0.708966
v 0.800952 3.552598 -0.819429
v 0.058384 -0.000148 3.944714
v -0.052102 -0.000148 3.944802
v 0.058473 -0.000148 4.055200
v -0.052013 -0.000148 4.055287
v 0.906441 3.552598 3.944039
v 0.906528 3.552598 4.054525
v 0.796042 3.552598 4.054613
v 0.795953 3.552598 3.944126
v 0.061570 -0.000148 7.944715
v -0.048915 -0.000148 7.944802
v 0.061659 -0.000148 8.055201
v -0.048828 -0.000148 8.055288
v 0.909625 3.552598 7.944043
v 0.909714 3.552598 8.054526
v 0.799226 3.552598 8.054614
v 0.799139 3.552598 7.944127
v 0.064753 -0.000148 11.944713
v -0.045730 -0.000148 11.944803
v 0.064846 -0.000148 12.055202
v -0.045642 -0.000148 12.055288
v 0.912811 3.552598 11.944040
v 0.912898 3.552598 12.054528
v 0.802413 3.552598 12.054616
v 0.802325 3.552598 11.944126
v 0.067941 -0.000148 15.944719
v -0.042543 -0.000148 15.944806
v 0.068026 -0.000148 16.055204
v -0.042454 -0.000148 16.055290
v 0.915997 3.552598 15.944044
v 0.916082 3.552598 16.054527
v 0.805600 3.552598 16.054617
v 0.805509 3.552598 15.944131
v -4.055243 -0.000148 -0.055243
v -4.055243 -0.000148 0.055243
v -3.944757 -0.000148 -0.055243
v -3.944757 -0.000148 0.055243
v -4.055243 3.552598 -0.903299
v -3.944757 3.552598 -0.903299
v -3.944757 3.552598 -0.792812
v -4.055243 3.552598 -0.792812
v -8.055243 2.944000 -0.055243
v -8.055243 2.944000 0.055243
v -7.944757 2.944000 -0.055243
v -7.944757 2.944000 0.055243
v -12.055243 2.944000 -0.055243
v -12.055243 2.944000 0.055243
v -11.944757 2.944000 -0.055243
v -11.944757 2.944000 0.055243
v -16.055243 2.944000 -0.055243
v -16.055243 2.944000 0.055243
v -15.944757 2.944000 -0.055243
v -15.944757 2.944000 0.055243
v 0.055199 2.944000 -0.055287
v -0.055287 2.944000 -0.055199
v 0.055287 2.944000 0.055199
v -0.055199 2.944000 0.055287
v 0.058384 2.944000 3.944714
v -0.052102 2.944000 3.944802
v 0.058473 2.944000 4.055200
v -0.052013 2.944000 4.055287
v 0.061570 2.944000 7.944715
v -0.048915 2.944000 7.944802
v 0.061659 2.944000 8.055201
v -0.048828 2.944000 8.055288
v 0.064753 2.944000 11.944713
v -0.045730 2.944000 11.944803
v 0.064846 2.944000 12.055202
v -0.045642 2.944000 12.055288
v 0.067941 2.944000 15.944719
v -0.042543 2.944000 15.944806
v 0.068026 2.944000 16.055204
v -0.042454 2.944000 16.055290
v -4.055243 2.944000 -0.055243
v -4.055243 2.944000 0.055243
v -3.944757 2.944000 -0.055243
v -3.944757 2.944000 0.055243
v -16.055243 2.805993 -0.055243
v -16.055243 2.805993 0.055243
v -16.055243 2.944000 -0.055243
v -16.055243 2.944000 0.055243
v 0.068026 2.805993 16.055204
v -0.042454 2.805993 16.055290
v 0.068026 2.944000 16.055204
v -0.042454 2.944000 16.055290
v 0.001423 1.317854 0.716962
v 0.001423 1.707118 0.716962
v 0.001894 1.317854 1.307815
v 0.001894 1.707118 1.307815
v -5.283038 1.317854 -0.000852
v -5.283038 1.707118 -0.000852
v -4.692184 1.317854 -0.000852
v -4.692184 1.707118 -0.000852
v -11.283036 1.317854 -0.000852
v -11.283036 1.707118 -0.000852
v -10.692183 1.317854 -0.000852
v -10.692183 1.707118 -0.000852
v 0.006202 1.317854 6.716964
v 0.006202 1.707118 6.716964
v 0.006673 1.317854 7.307816
v 0.006673 1.707118 7.307816
v 0.010978 1.317854 12.716967
v 0.010978 1.707118 12.716967
v 0.011449 1.317854 13.307816
v 0.011449 1.707118 13.307816
v -0.048848 2.944000 0.055266
v 0.055199 2.944000 -0.055287
v -0.048848 2.805993 0.055267
v 0.055208 2.805993 -0.055301
vt 0.010203 0.305233
vt 0.974135 0.303999
vt 0.974172 0.343993
vt 0.010203 0.305233
vt 0.974172 0.343993
vt 0.010240 0.345227
vt 0.010240 0.345227
vt 0.974172 0.343993
vt 0.974135 0.303999
vt 0.010240 0.345227
vt 0.974135 0.303999
vt 0.010203 0.305233
vt 0.010203 0.305233
vt 0.974135 0.303999
vt 0.974172 0.343993
vt 0.010203 0.305233
vt 0.974172 0.343993
vt 0.010240 0.345227
vt 0.010240 0.345227
vt 0.974172 0.343993
vt 0.974135 0.303999
vt 0.010240 0.345227
vt 0.974135 0.303999
vt 0.010203 0.305233
vt 0.755286 0.040666
vt 0.932214 0.040666
vt 0.932214 0.162459
vt 0.755286 0.040666
vt 0.932214 0.162459
vt 0.755286 0.162459
vt 0.472515 0.344251
vt 0.472512 0.306151
vt 0.543110 0.304975
vt 0.472515 0.344251
vt 0.543110 0.304975
vt 0.543113 0.343076
vt 0.974135 0.303999
vt 0.974172 0.343993
vt 0.010240 0.345227
vt 0.974135 0.303999
vt 0.010240 0.345227
vt 0.010203 0.305233
vt 0.974172 0.343993
vt 0.974135 0.303999
vt 0.010203 0.305233
vt 0.974172 0.343993
vt 0.010203 0.305233
vt 0.010240 0.345227
vt 0.974135 0.303999
vt 0.974172 0.343993
vt 0.010240 0.345227
vt 0.974135 0.303999
vt 0.010240 0.345227
vt 0.010203 0.305233
vt 0.974172 0.343993
vt 0.974135 0.303999
vt 0.010203 0.305233
vt 0.974172 0.343993
vt 0.010203 0.305233
vt 0.010240 0.345227
vt 0.010240 0.345227
vt 0.974172 0.343993
vt 0.974135 0.303999
vt 0.010240 0.345227
vt 0.974135 0.303999
vt 0.010203 0.305233
vt 0.010203 0.305233
vt 0.974135 0.303999
vt 0.974172 0.343993
vt 0.010203 0.305233
vt 0.974172 0.343993
vt 0.010240 0.345227
vt 0.010240 0.345227
vt 0.974172 0.343993
vt 0.974135 0.303999
vt 0.010240 0.345227
vt 0.974135 0.303999
vt 0.010203 0.305233
vt 0.010203 0.305233
vt 0.974135 0.303999
vt 0.974172 0.343993
vt 0.010203 0.305233
vt 0.974172 0.343993
vt 0.010240 0.345227
vt 0.974172 0.343993
vt 0.974135 0.303999
vt 0.010203 0.305233
vt 0.974172 0.343993
vt 0.010203 0.305233
vt 0.010240 0.345227
vt 0.974135 0.303999
vt 0.974172 0.343993
vt 0.010240 0.345227
vt 0.974135 0.303999
vt 0.010240 0.345227
vt 0.010203 0.305233
vt 0.974172 0.343993
vt 0.974135 0.303999
vt 0.010203 0.305233
vt 0.974172 0.343993
vt 0.010203 0.305233
vt 0.010240 0.345227
vt 0.974135 0.303999
vt 0.974172 0.343993
vt 0.010240 0.345227
vt 0.974135 0.303999
vt 0.010240 0.345227
vt 0.010203 0.305233
vt 0.472515 0.344251
vt 0.472512 0.306151
vt 0.543110 0.304975
vt 0.472515 0.344251
vt 0.543110 0.304975
vt 0.543113 0.343076
vt 0.755286 0.040666
vt 0.932214 0.040666
vt 0.932214 0.162459
vt 0.755286 0.040666
vt 0.932214 0.162459
vt 0.755286 0.162459
vt 0.010203 0.305233
vt 0.974135 0.303999
vt 0.974172 0.343993
vt 0.010203 0.305233
vt 0.974172 0.343993
vt 0.010240 0.345227
vt 0.010240 0.345227
vt 0.974172 0.343993
vt 0.974135 0.303999
vt 0.010240 0.345227
vt 0.974135 0.303999
vt 0.010203 0.305233
vt 0.010203 0.305233
vt 0.974135 0.303999
vt 0.974172 0.343993
vt 0.010203 0.305233
vt 0.974172 0.343993
vt 0.010240 0.345227
vt 0.010240 0.345227
vt 0.974172 0.343993
vt 0.974135 0.303999
vt 0.010240 0.345227
vt 0.974135 0.303999
vt 0.010203 0.305233
vt 0.974172 0.343993
vt 0.974135 0.303999
vt 0.010203 0.305233
vt 0.974172 0.343993
vt 0.010203 0.305233
vt 0.010240 0.345227
vt 0.974135 0.303999
vt 0.974172 0.343993
vt 0.010240 0.345227
vt 0.974135 0.303999
vt 0.010240 0.345227
vt 0.010203 0.305233
vt 0.755286 0.040666
vt 0.932214 0.040666
vt 0.932214 0.162459
vt 0.755286 0.040666
vt 0.932214 0.162459
vt 0.755286 0.162459
vt 0.472515 0.344251
vt 0.472512 0.306151
vt 0.543110 0.304975
vt 0.472515 0.344251
vt 0.543110 0.304975
vt 0.543113 0.343076
vt 0.974135 0.303999
vt 0.974172 0.343993
vt 0.010240 0.345227
vt 0.974135 0.303999
vt 0.010240 0.345227
vt 0.010203 0.305233
vt 0.974172 0.343993
vt 0.974135 0.303999
vt 0.010203 0.305233
vt 0.974172 0.343993
vt 0.010203 0.305233
vt 0.010240 0.345227
vt 0.974135 0.303999
vt 0.974172 0.343993
vt 0.010240 0.345227
vt 0.974135 0.303999
vt 0.010240 0.345227
vt 0.010203 0.305233
vt 0.974172 0.343993
vt 0.974135 0.303999
vt 0.010203 0.305233
vt 0.974172 0.343993
vt 0.010203 0.305233
vt 0.010240 0.345227
vt 0.010240 0.345227
vt 0.974172 0.343993
vt 0.974135 0.303999
vt 0.010240 0.345227
vt 0.974135 0.303999
vt 0.010203 0.305233
vt 0.010203 0.305233
vt 0.974135 0.303999
vt 0.974172 0.343993
vt 0.010203 0.305233
vt 0.974172 0.343993
vt 0.010240 0.345227
vt 0.010240 0.345227
vt 0.974172 0.343993
vt 0.974135 0.303999
vt 0.010240 0.345227
vt 0.974135 0.303999
vt 0.010203 0.305233
vt 0.010203 0.305233
vt 0.974135 0.303999
vt 0.974172 0.343993
vt 0.010203 0.305233
vt 0.974172 0.343993
vt 0.010240 0.345227
vt 0.974172 0.343993
vt 0.974135 0.303999
vt 0.010203 0.305233
vt 0.974172 0.343993
vt 0.010203 0.305233
vt 0.010240 0.345227
vt 0.974135 0.303999
vt 0.974172 0.343993
vt 0.010240 0.345227
vt 0.974135 0.303999
vt 0.010240 0.345227
vt 0.010203 0.305233
vt 0.472515 0.344251
vt 0.472512 0.306151
vt 0.543110 0.304975
vt 0.472515 0.344251
vt 0.543110 0.304975
vt 0.543113 0.343076
vt 0.755286 0.040666
vt 0.932214 0.040666
vt 0.932214 0.162459
vt 0.755286 0.040666
vt 0.932214 0.162459
vt 0.755286 0.162459
vt 0.010203 0.305233
vt 0.974135 0.303999
vt 0.974172 0.343993
vt 0.010203 0.305233
vt 0.974172 0.343993
vt 0.010240 0.345227
vt 0.010240 0.345227
vt 0.974172 0.343993
vt 0.974135 0.303999
vt 0.010240 0.345227
vt 0.974135 0.303999
vt 0.010203 0.305233
vt 0.010203 0.305233
vt 0.974135 0.303999
vt 0.974172 0.343993
vt 0.010203 0.305233
vt 0.974172 0.343993
vt 0.010240 0.345227
vt 0.010240 0.345227
vt 0.974172 0.343993
vt 0.974135 0.303999
vt 0.010240 0.345227
vt 0.974135 0.303999
vt 0.010203 0.305233
vt 0.974172 0.343993
vt 0.974135 0.303999
vt 0.010203 0.305233
vt 0.974172 0.343993
vt 0.010203 0.305233
vt 0.010240 0.345227
vt 0.974135 0.303999
vt 0.974172 0.343993
vt 0.010240 0.345227
vt 0.974135 0.303999
vt 0.010240 0.345227
vt 0.010203 0.305233
vt 0.974172 0.343993
vt 0.974135 0.303999
vt 0.010203 0.305233
vt 0.974172 0.343993
vt 0.010203 0.305233
vt 0.010240 0.345227
vt 0.974135 0.303999
vt 0.974172 0.343993
vt 0.010240 0.345227
vt 0.974135 0.303999
vt 0.010240 0.345227
vt 0.010203 0.305233
vt 0.755286 0.040666
vt 0.932214 0.040666
vt 0.932214 0.162459
vt 0.755286 0.040666
vt 0.932214 0.162459
vt 0.755286 0.162459
vt 0.472515 0.344251
vt 0.472512 0.306151
vt 0.543110 0.304975
vt 0.472515 0.344251
vt 0.543110 0.304975
vt 0.543113 0.343076
vt 0.974135 0.303999
vt 0.974172 0.343993
vt 0.010240 0.345227
vt 0.974135 0.303999
vt 0.010240 0.345227
vt 0.010203 0.305233
vt 0.974172 0.343993
vt 0.974135 0.303999
vt 0.010203 0.305233
vt 0.974172 0.343993
vt 0.010203 0.305233
vt 0.010240 0.345227
vt 0.974135 0.303999
vt 0.974172 0.343993
vt 0.010240 0.345227
vt 0.974135 0.303999
vt 0.010240 0.345227
vt 0.010203 0.305233
vt 0.974172 0.343993
vt 0.974135 0.303999
vt 0.010203 0.305233
vt 0.974172 0.343993
vt 0.010203 0.305233
vt 0.010240 0.345227
vt 0.010240 0.345227
vt 0.974172 0.343993
vt 0.974135 0.303999
vt 0.010240 0.345227
vt 0.974135 0.303999
vt 0.010203 0.305233
vt 0.010203 0.305233
vt 0.974135 0.303999
vt 0.974172 0.343993
vt 0.010203 0.305233
vt 0.974172 0.343993
vt 0.010240 0.345227
vt 0.010240 0.345227
vt 0.974172 0.343993
vt 0.974135 0.303999
vt 0.010240 0.345227
vt 0.974135 0.303999
vt 0.010203 0.305233
vt 0.010203 0.305233
vt 0.974135 0.303999
vt 0.974172 0.343993
vt 0.010203 0.305233
vt 0.974172 0.343993
vt 0.010240 0.345227
vt 0.472515 0.344251
vt 0.472512 0.306151
vt 0.543110 0.304975
vt 0.472515 0.344251
vt 0.543110 0.304975
vt 0.543113 0.343076
vt 0.000000 0.000000
vt 0.000000 0.000000
vt 0.000000 0.000000
vt 0.000000 0.000000
vt 0.000000 0.000000
vt 0.000000 0.000000
vt 0.010203 0.305233
vt 0.974135 0.303999
vt 0.974172 0.343993
vt 0.010203 0.305233
vt 0.974172 0.343993
vt 0.010240 0.345227
vt 0.010240 0.345227
vt 0.974172 0.343993
vt 0.974135 0.303999
vt 0.010240 0.345227
vt 0.974135 0.303999
vt 0.010203 0.305233
vt 0.010203 0.305233
vt 0.974135 0.303999
vt 0.974172 0.343993
vt 0.010203 0.305233
vt 0.974172 0.343993
vt 0.010240 0.345227
vt 0.010240 0.345227
vt 0.974172 0.343993
vt 0.974135 0.303999
vt 0.010240 0.345227
vt 0.974135 0.303999
vt 0.010203 0.305233
vt 0.000000 0.000000
vt 0.000000 0.000000
vt 0.000000 0.000000
vt 0.000000 0.000000
vt 0.000000 0.000000
vt 0.000000 0.000000
vt 0.472515 0.344251
vt 0.472512 0.306151
vt 0.543110 0.304975
vt 0.472515 0.344251
vt 0.543110 0.304975
vt 0.543113 0.343076
vt 0.974135 0.303999
vt 0.974172 0.343993
vt 0.010240 0.345227
vt 0.974135 0.303999
vt 0.010240 0.345227
vt 0.010203 0.305233
vt 0.974172 0.343993
vt 0.974135 0.303999
vt 0.010203 0.305233
vt 0.974172 0.343993
vt 0.010203 0.305233
vt 0.010240 0.345227
vt 0.974135 0.303999
vt 0.974172 0.343993
vt 0.010240 0.345227
vt 0.974135 0.303999
vt 0.010240 0.345227
vt 0.010203 0.305233
vt 0.974172 0.343993
vt 0.974135 0.303999
vt 0.010203 0.305233
vt 0.974172 0.343993
vt 0.010203 0.305233
vt 0.010240 0.345227
vt 0.010240 0.345227
vt 0.974172 0.343993
vt 0.974135 0.303999
vt 0.010240 0.345227
vt 0.974135 0.303999
vt 0.010203 0.305233
vt 0.010203 0.305233
vt 0.974135 0.303999
vt 0.974172 0.343993
vt 0.010203 0.305233
vt 0.974172 0.343993
vt 0.010240 0.345227
vt 0.010240 0.345227
vt 0.974172 0.343993
vt 0.974135 0.303999
vt 0.010240 0.345227
vt 0.974135 0.303999
vt 0.010203 0.305233
vt 0.010203 0.305233
vt 0.974135 0.303999
vt 0.974172 0.343993
vt 0.010203 0.305233
vt 0.974172 0.343993
vt 0.010240 0.345227
vt 0.974172 0.343993
vt 0.974135 0.303999
vt 0.010203 0.305233
vt 0.974172 0.343993
vt 0.010203 0.305233
vt 0.010240 0.345227
vt 0.974135 0.303999
vt 0.974172 0.343993
vt 0.010240 0.345227
vt 0.974135 0.303999
vt 0.010240 0.345227
vt 0.010203 0.305233
vt 0.974172 0.343993
vt 0.974135 0.303999
vt 0.010203 0.305233
vt 0.974172 0.343993
vt 0.010203 0.305233
vt 0.010240 0.345227
vt 0.974135 0.303999
vt 0.974172 0.343993
vt 0.010240 0.345227
vt 0.974135 0.303999
vt 0.010240 0.345227
vt 0.010203 0.305233
vt 0.472515 0.344251
vt 0.472512 0.306151
vt 0.543110 0.304975
vt 0.472515 0.344251
vt 0.543110 0.304975
vt 0.543113 0.343076
vt 0.000000 0.000000
vt 0.000000 0.000000
vt 0.000000 0.000000
vt 0.000000 0.000000
vt 0.000000 0.000000
vt 0.000000 0.000000
vt 0.010203 0.305233
vt 0.974135 0.303999
vt 0.974172 0.343993
vt 0.010203 0.305233
vt 0.974172 0.343993
vt 0.010240 0.345227
vt 0.010240 0.345227
vt 0.974172 0.343993
vt 0.974135 0.303999
vt 0.010240 0.345227
vt 0.974135 0.303999
vt 0.010203 0.305233
vt 0.010203 0.305233
vt 0.974135 0.303999
vt 0.974172 0.343993
vt 0.010203 0.305233
vt 0.974172 0.343993
vt 0.010240 0.345227
vt 0.010240 0.345227
vt 0.974172 0.343993
vt 0.974135 0.303999
vt 0.010240 0.345227
vt 0.974135 0.303999
vt 0.010203 0.305233
vt 0.974172 0.343993
vt 0.974135 0.303999
vt 0.010203 0.305233
vt 0.974172 0.343993
vt 0.010203 0.305233
vt 0.010240 0.345227
vt 0.974135 0.303999
vt 0.974172 0.343993
vt 0.010240 0.345227
vt 0.974135 0.303999
vt 0.010240 0.345227
vt 0.010203 0.305233
vt 0.000000 0.000000
vt 0.000000 0.000000
vt 0.000000 0.000000
vt 0.000000 0.000000
vt 0.000000 0.000000
vt 0.000000 0.000000
vt 0.472515 0.344251
vt 0.472512 0.306151
vt 0.543110 0.304975
vt 0.472515 0.344251
vt 0.543110 0.304975
vt 0.543113 0.343076
vt 0.974135 0.303999
vt 0.974172 0.343993
vt 0.010240 0.345227
vt 0.974135 0.303999
vt 0.010240 0.345227
vt 0.010203 0.305233
vt 0.974172 0.343993
vt 0.974135 0.303999
vt 0.010203 0.305233
vt 0.974172 0.343993
vt 0.010203 0.305233
vt 0.010240 0.345227
vt 0.000000 0.000000
vt 0.000000 0.000000
vt 0.000000 0.000000
vt 0.000000 0.000000
vt 0.000000 0.000000
vt 0.000000 0.000000
vt 0.000000 0.000000
vt 0.000000 0.000000
vt 0.000000 0.000000
vt 0.000000 0.000000
vt 0.000000 0.000000
vt 0.000000 0.000000
vt 0.000000 0.000000
vt 0.000000 0.000000
vt 0.000000 0.000000
vt 0.000000 0.000000
vt 0.000000 0.000000
vt 0.000000 0.000000
vt 0.000000 0.000000
vt 0.000000 0.000000
vt 0.000000 0.000000
vt 0.000000 0.000000
vt 0.000000 0.000000
vt 0.000000 0.000000
vt 0.000000 0.000000
vt 0.000000 0.000000
vt 0.000000 0.000000
vt 0.000000 0.000000
vt 0.000000 0.000000
vt 0.000000 0.000000
vt 0.000000 0.000000
vt 0.000000 0.000000
vt 0.000000 0.000000
vt 0.000000 0.000000
vt 0.000000 0.000000
vt 0.000000 0.000000
vn 0.000000 0.456595 0.889674
vn 0.000000 0.000000 1.000000
vn 0.000000 0.000000 1.000000
vn 0.000000 0.456595 0.889674
vn 0.000000 0.000000 1.000000
vn 0.000000 0.456595 0.889674
vn 1.000000 0.000000 0.000000
vn 1.000000 0.000000 0.000000
vn 1.000000 0.000000 0.000000
vn 1.000000 0.000000 0.000000
vn 1.000000 0.000000 0.000000
vn 1.000000 0.000000 0.000000
vn 0.000000 -0.456595 -0.889674
vn 0.000000 0.000000 -1.000000
vn 0.000000 0.000000 -1.000000
vn 0.000000 -0.456595 -0.889674
vn 0.000000 0.000000 -1.000000
vn 0.000000 -0.456595 -0.889674
vn -1.000000 0.000000 0.000000
vn -1.000000 0.000000 0.000000
vn -1.000000 0.000000 0.000000
vn -1.000000 0.000000 0.000000
vn -1.000000 0.000000 0.000000
vn -1.000000 0.000000 0.000000
vn 1.000000 0.000000 -0.000797
vn 1.000000 0.000000 -0.000797
vn 1.000000 0.000000 -0.000797
vn 1.000000 0.000000 -0.000797
vn 1.000000 0.000000 -0.000797
vn 1.000000 0.000000 -0.000797
vn 0.000000 1.000000 0.000000
vn 0.000000 0.951957 0.306233
vn 0.000000 0.951957 0.306233
vn 0.000000 1.000000 0.000000
vn 0.000000 0.951957 0.306233
vn 0.000000 1.000000 0.000000
vn 0.000000 -0.456595 -0.889674
vn 0.000000 -0.456595 -0.889674
vn 0.000000 -0.812442 -0.583041
vn 0.000000 -0.456595 -0.889674
vn 0.000000 -0.812442 -0.583041
vn 0.000000 -0.812442 -0.583041
vn 1.000000 0.000000 0.000000
vn 1.000000 0.000000 0.000000
vn 1.000000 0.000000 0.000000
vn 1.000000 0.000000 0.000000
vn 1.000000 0.000000 0.000000
vn 1.000000 0.000000 0.000000
vn 0.000000 0.456595 0.889674
vn 0.000000 0.456595 0.889674
vn 0.000000 0.951957 0.306233
vn 0.000000 0.456595 0.889674
vn 0.000000 0.951957 0.306233
vn 0.000000 0.951957 0.306233
vn -1.000000 0.000000 0.000000
vn -1.000000 0.000000 0.000000
vn -1.000000 0.000000 0.000000
vn -1.000000 0.000000 0.000000
vn -1.000000 0.000000 0.000000
vn -1.000000 0.000000 0.000000
vn -1.000000 0.000000 0.000000
vn -1.000000 0.000000 0.000000
vn -1.000000 0.000000 0.000000
vn -1.000000 0.000000 0.000000
vn -1.000000 0.000000 0.000000
vn -1.000000 0.000000 0.000000
vn 0.000000 -0.456595 -0.889674
vn 0.000000 0.000000 -1.000000
vn 0.000000 0.000000 -1.000000
vn 0.000000 -0.456595 -0.889674
vn 0.000000 0.000000 -1.000000
vn 0.000000 -0.456595 -0.889674
vn 1.000000 0.000000 0.000000
vn 1.000000 0.000000 0.000000
vn 1.000000 0.000000 0.000000
vn 1.000000 0.000000 0.000000
vn 1.000000 0.000000 0.000000
vn 1.000000 0.000000 0.000000
vn 0.000000 0.456595 0.889674
vn 0.000000 0.000000 1.000000
vn 0.000000 0.000000 1.000000
vn 0.000000 0.456595 0.889674
vn 0.000000 0.000000 1.000000
vn 0.000000 0.456595 0.889674
vn -1.000000 0.000000 0.000000
vn -1.000000 0.000000 0.000000
vn -1.000000 0.000000 0.000000
vn -1.000000 0.000000 0.000000
vn -1.000000 0.000000 0.000000
vn -1.000000 0.000000 0.000000
vn 0.000000 0.456595 0.889674
vn 0.000000 0.456595 0.889674
vn 0.000000 0.951957 0.306233
vn 0.000000 0.456595 0.889674
vn 0.000000 0.951957 0.306233
vn 0.000000 0.951957 0.306233
vn 1.000000 0.000000 0.000000
vn 1.000000 0.000000 0.000000
vn 1.000000 0.000000 0.000000
vn 1.000000 0.000000 0.000000
vn 1.000000 0.000000 0.000000
vn 1.000000 0.000000 0.000000
vn 0.000000 -0.456595 -0.889674
vn 0.000000 -0.456595 -0.889674
vn 0.000000 -0.812442 -0.583041
vn 0.000000 -0.456595 -0.889674
vn 0.000000 -0.812442 -0.583041
vn 0.000000 -0.812442 -0.583041
vn 0.000000 1.000000 0.000000
vn 0.000000 0.951957 0.306233
vn 0.000000 0.951957 0.306233
vn 0.000000 1.000000 0.000000
vn 0.000000 0.951957 0.306233
vn 0.000000 1.000000 0.000000
vn 1.000000 0.000000 -0.000797
vn 1.000000 0.000000 -0.000797
vn 1.000000 0.000000 -0.000797
vn 1.000000 0.000000 -0.000797
vn 1.000000 0.000000 -0.000797
vn 1.000000 0.000000 -0.000797
vn -0.889674 0.456595 0.000724
vn -1.000000 0.000000 0.000811
vn -1.000000 0.000000 0.000811
vn -0.889674 0.456595 0.000724
vn -1.000000 0.000000 0.000811
vn -0.889674 0.456595 0.000724
vn 0.000786 0.000001 1.000000
vn 0.000777 0.000000 1.000000
vn 0.000777 0.000000 1.000000
vn 0.000786 0.000001 1.000000
vn 0.000777 0.000000 1.000000
vn 0.000786 0.000001 1.000000
vn 0.889674 -0.456596 -0.000685
vn 1.000000 0.000000 -0.000769
vn 1.000000 0.000000 -0.000769
vn 0.889674 -0.456596 -0.000685
vn 1.000000 0.000000 -0.000769
vn 0.889674 -0.456596 -0.000685
vn -0.000785 -0.000007 -1.000000
vn -0.000785 0.000000 -1.000000
vn -0.000785 0.000000 -1.000000
vn -0.000785 -0.000007 -1.000000
vn -0.000785 0.000000 -1.000000
vn -0.000785 -0.000007 -1.000000
vn -0.000785 -0.000007 -1.000000
vn -0.000785 -0.000007 -1.000000
vn -0.000785 -0.000015 -1.000000
vn -0.000785 -0.000007 -1.000000
vn -0.000785 -0.000015 -1.000000
vn -0.000785 -0.000015 -1.000000
vn -0.889674 0.456595 0.000724
vn -0.889674 0.456595 0.000724
vn -0.306234 0.951956 0.000251
vn -0.889674 0.456595 0.000724
vn -0.306234 0.951956 0.000251
vn -0.306234 0.951956 0.000251
vn 0.000000 0.000000 -1.000000
vn 0.000000 0.000000 -1.000000
vn 0.000000 0.000000 -1.000000
vn 0.000000 0.000000 -1.000000
vn 0.000000 0.000000 -1.000000
vn 0.000000 0.000000 -1.000000
vn 0.000000 1.000000 0.000000
vn 0.000000 0.951957 0.306233
vn 0.000000 0.951957 0.306233
vn 0.000000 1.000000 0.000000
vn 0.000000 0.951957 0.306233
vn 0.000000 1.000000 0.000000
vn 0.000000 -0.456595 -0.889674
vn 0.000000 -0.456595 -0.889674
vn 0.000000 -0.812442 -0.583041
vn 0.000000 -0.456595 -0.889674
vn 0.000000 -0.812442 -0.583041
vn 0.000000 -0.812442 -0.583041
vn 1.000000 0.000000 0.000000
vn 1.000000 0.000000 0.000000
vn 1.000000 0.000000 0.000000
vn 1.000000 0.000000 0.000000
vn 1.000000 0.000000 0.000000
vn 1.000000 0.000000 0.000000
vn 0.000000 0.456595 0.889674
vn 0.000000 0.456595 0.889674
vn 0.000000 0.951957 0.306233
vn 0.000000 0.456595 0.889674
vn 0.000000 0.951957 0.306233
vn 0.000000 0.951957 0.306233
vn -1.000000 0.000000 0.000000
vn -1.000000 0.000000 0.000000
vn -1.000000 0.000000 0.000000
vn -1.000000 0.000000 0.000000
vn -1.000000 0.000000 0.000000
vn -1.000000 0.000000 0.000000
vn -1.000000 0.000000 0.000000
vn -1.000000 0.000000 0.000000
vn -1.000000 0.000000 0.000000
vn -1.000000 0.000000 0.000000
vn -1.000000 0.000000 0.000000
vn -1.000000 0.000000 0.000000
vn 0.000000 -0.456595 -0.889674
vn 0.000000 0.000000 -1.000000
vn 0.000000 0.000000 -1.000000
vn 0.000000 -0.456595 -0.889674
vn 0.000000 0.000000 -1.000000
vn 0.000000 -0.456595 -0.889674
vn 1.000000 0.000000 0.000000
vn 1.000000 0.000000 0.000000
vn 1.000000 0.000000 0.000000
vn 1.000000 0.000000 0.000000
vn 1.000000 0.000000 0.000000
vn 1.000000 0.000000 0.000000
vn 0.000000 0.456595 0.889674
vn 0.000000 0.000000 1.000000
vn 0.000000 0.000000 1.000000
vn 0.000000 0.456595 0.889674
vn 0.000000 0.000000 1.000000
vn 0.000000 0.456595 0.889674
vn 0.000786 0.000001 1.000000
vn 0.000786 0.000001 1.000000
vn 0.000794 0.000003 1.000000
vn 0.000786 0.000001 1.000000
vn 0.000794 0.000003 1.000000
vn 0.000794 0.000003 1.000000
vn 0.889674 -0.456596 -0.000685
vn 0.889674 -0.456596 -0.000685
vn 0.583041 -0.812443 -0.000450
vn 0.889674 -0.456596 -0.000685
vn 0.583041 -0.812443 -0.000450
vn 0.583041 -0.812443 -0.000450
vn 0.000000 1.000000 0.000000
vn -0.306234 0.951956 0.000251
vn -0.306234 0.951956 0.000251
vn 0.000000 1.000000 0.000000
vn -0.306234 0.951956 0.000251
vn 0.000000 1.000000 0.000000
vn 0.000000 0.000000 -1.000000
vn 0.000000 0.000000 -1.000000
vn 0.000000 0.000000 -1.000000
vn 0.000000 0.000000 -1.000000
vn 0.000000 0.000000 -1.000000
vn 0.000000 0.000000 -1.000000
vn -0.889674 0.456595 0.000706
vn -1.000000 0.000000 0.000792
vn -1.000000 0.000000 0.000792
vn -0.889674 0.456595 0.000706
vn -1.000000 0.000000 0.000792
vn -0.889674 0.456595 0.000706
vn 0.000781 0.000006 1.000000
vn 0.000777 0.000000 1.000000
vn 0.000777 0.000000 1.000000
vn 0.000781 0.000006 1.000000
vn 0.000777 0.000000 1.000000
vn 0.000781 0.000006 1.000000
vn 0.889674 -0.456595 -0.000740
vn 1.000000 0.000000 -0.000843
vn 1.000000 0.000000 -0.000843
vn 0.889674 -0.456595 -0.000740
vn 1.000000 0.000000 -0.000843
vn 0.889674 -0.456595 -0.000740
vn -0.000809 0.000002 -1.000000
vn -0.000820 0.000000 -1.000000
vn -0.000820 0.000000 -1.000000
vn -0.000809 0.000002 -1.000000
vn -0.000820 0.000000 -1.000000
vn -0.000809 0.000002 -1.000000
vn -0.000809 0.000002 -1.000000
vn -0.000809 0.000002 -1.000000
vn -0.000798 0.000004 -1.000000
vn -0.000809 0.000002 -1.000000
vn -0.000798 0.000004 -1.000000
vn -0.000798 0.000004 -1.000000
vn -0.889674 0.456595 0.000706
vn -0.889674 0.456595 0.000706
vn -0.306233 0.951957 0.000244
vn -0.889674 0.456595 0.000706
vn -0.306233 0.951957 0.000244
vn -0.306233 0.951957 0.000244
vn 0.000781 0.000006 1.000000
vn 0.000781 0.000006 1.000000
vn 0.000785 0.000012 1.000000
vn 0.000781 0.000006 1.000000
vn 0.000785 0.000012 1.000000
vn 0.000785 0.000012 1.000000
vn 0.889674 -0.456595 -0.000740
vn 0.889674 -0.456595 -0.000740
vn 0.583041 -0.812442 -0.000474
vn 0.889674 -0.456595 -0.000740
vn 0.583041 -0.812442 -0.000474
vn 0.583041 -0.812442 -0.000474
vn 1.000000 0.000000 -0.000797
vn 1.000000 0.000000 -0.000797
vn 1.000000 0.000000 -0.000797
vn 1.000000 0.000000 -0.000797
vn 1.000000 0.000000 -0.000797
vn 1.000000 0.000000 -0.000797
vn 0.000000 1.000000 0.000000
vn 0.000000 0.951957 0.306233
vn 0.000000 0.951957 0.306233
vn 0.000000 1.000000 0.000000
vn 0.000000 0.951957 0.306233
vn 0.000000 1.000000 0.000000
vn 0.000000 -0.456595 -0.889674
vn 0.000000 -0.456595 -0.889674
vn 0.000000 -0.812442 -0.583041
vn 0.000000 -0.456595 -0.889674
vn 0.000000 -0.812442 -0.583041
vn 0.000000 -0.812442 -0.583041
vn 1.000000 0.000000 0.000000
vn 1.000000 0.000000 0.000000
vn 1.000000 0.000000 0.000000
vn 1.000000 0.000000 0.000000
vn 1.000000 0.000000 0.000000
vn 1.000000 0.000000 0.000000
vn 0.000000 0.456595 0.889674
vn 0.000000 0.456595 0.889674
vn 0.000000 0.951957 0.306233
vn 0.000000 0.456595 0.889674
vn 0.000000 0.951957 0.306233
vn 0.000000 0.951957 0.306233
vn -1.000000 0.000000 0.000000
vn -1.000000 0.000000 0.000000
vn -1.000000 0.000000 0.000000
vn -1.000000 0.000000 0.000000
vn -1.000000 0.000000 0.000000
vn -1.000000 0.000000 0.000000
vn -1.000000 0.000000 0.000000
vn -1.000000 0.000000 0.000000
vn -1.000000 0.000000 0.000000
vn -1.000000 0.000000 0.000000
vn -1.000000 0.000000 0.000000
vn -1.000000 0.000000 0.000000
vn 0.000000 -0.456595 -0.889674
vn 0.000000 0.000000 -1.000000
vn 0.000000 0.000000 -1.000000
vn 0.000000 -0.456595 -0.889674
vn 0.000000 0.000000 -1.000000
vn 0.000000 -0.456595 -0.889674
vn 1.000000 0.000000 0.000000
vn 1.000000 0.000000 0.000000
vn 1.000000 0.000000 0.000000
vn 1.000000 0.000000 0.000000
vn 1.000000 0.000000 0.000000
vn 1.000000 0.000000 0.000000
vn 0.000000 0.456595 0.889674
vn 0.000000 0.000000 1.000000
vn 0.000000 0.000000 1.000000
vn 0.000000 0.456595 0.889674
vn 0.000000 0.000000 1.000000
vn 0.000000 0.456595 0.889674
vn 0.000000 1.000000 0.000000
vn -0.306233 0.951957 0.000244
vn -0.306233 0.951957 0.000244
vn 0.000000 1.000000 0.000000
vn -0.306233 0.951957 0.000244
vn 0.000000 1.000000 0.000000
vn 0.000000 1.000000 0.000000
vn 0.000000 1.000000 0.000000
vn 0.000000 1.000000 0.000000
vn 0.000000 1.000000 0.000000
vn 0.000000 1.000000 0.000000
vn 0.000000 1.000000 0.000000
vn -0.889674 0.456595 0.000704
vn -1.000000 0.000000 0.000790
vn -1.000000 0.000000 0.000790
vn -0.889674 0.456595 0.000704
vn -1.000000 0.000000 0.000790
vn -0.889674 0.456595 0.000704
vn 0.000794 0.000001 1.000000
vn 0.000794 0.000000 1.000000
vn 0.000794 0.000000 1.000000
vn 0.000794 0.000001 1.000000
vn 0.000794 0.000000 1.000000
vn 0.000794 0.000001 1.000000
vn 0.889674 -0.456595 -0.000715
vn 1.000000 0.000000 -0.000804
vn 1.000000 0.000000 -0.000804
vn 0.889674 -0.456595 -0.000715
vn 1.000000 0.000000 -0.000804
vn 0.889674 -0.456595 -0.000715
vn -0.000779 -0.000016 -1.000000
vn -0.000785 0.000000 -1.000000
vn -0.000785 0.000000 -1.000000
vn -0.000779 -0.000016 -1.000000
vn -0.000785 0.000000 -1.000000
vn -0.000779 -0.000016 -1.000000
vn 0.000000 -1.000000 0.000000
vn 0.000000 -1.000000 0.000000
vn 0.000000 -1.000000 0.000000
vn 0.000000 -1.000000 0.000000
vn 0.000000 -1.000000 0.000000
vn 0.000000 -1.000000 0.000000
vn 0.000000 1.000000 0.000000
vn -0.301625 0.953421 0.003256
vn -0.207982 0.950291 0.231710
vn 0.000000 1.000000 0.000000
vn -0.207982 0.950291 0.231710
vn 0.003589 0.943126 0.332415
vn 0.887453 -0.460881 -0.003948
vn 0.565736 -0.576351 -0.589714
vn 0.314102 -0.882543 -0.349939
vn 0.887453 -0.460881 -0.003948
vn 0.314102 -0.882543 -0.349939
vn 0.575151 -0.818024 -0.006210
vn -0.565736 0.576351 0.589714
vn 0.004194 0.431828 0.901946
vn 0.003589 0.943126 0.332415
vn -0.565736 0.576351 0.589714
vn 0.003589 0.943126 0.332415
vn -0.207982 0.950291 0.231710
vn -0.887453 0.460881 0.003947
vn -0.565736 0.576351 0.589714
vn -0.207982 0.950291 0.231710
vn -0.887453 0.460881 0.003947
vn -0.207982 0.950291 0.231710
vn -0.301625 0.953421 0.003256
vn 0.565736 -0.576351 -0.589714
vn -0.004194 -0.431828 -0.901946
vn -0.006770 -0.778974 -0.627019
vn 0.565736 -0.576351 -0.589714
vn -0.006770 -0.778974 -0.627019
vn 0.314102 -0.882543 -0.349939
vn 0.565736 -0.576351 -0.589714
vn -0.000796 0.000000 -1.000000
vn -0.000796 0.000000 -1.000000
vn 0.565736 -0.576351 -0.589714
vn -0.000796 0.000000 -1.000000
vn -0.004194 -0.431828 -0.901946
vn 0.887453 -0.460881 -0.003948
vn 1.000000 0.000000 -0.000796
vn 1.000000 0.000000 -0.000796
vn 0.887453 -0.460881 -0.003948
vn 1.000000 0.000000 -0.000796
vn 0.565736 -0.576351 -0.589714
vn -0.565736 0.576351 0.589714
vn 0.000796 0.000000 1.000000
vn 0.000796 0.000000 1.000000
vn -0.565736 0.576351 0.589714
vn 0.000796 0.000000 1.000000
vn 0.004194 0.431828 0.901946
vn -0.887453 0.460881 0.003947
vn -1.000000 0.000000 0.000796
vn -1.000000 0.000000 0.000796
vn -0.887453 0.460881 0.003947
vn -1.000000 0.000000 0.000796
vn -0.565736 0.576351 0.589714
vn -0.000779 -0.000016 -1.000000
vn -0.000779 -0.000016 -1.000000
vn -0.000773 -0.000031 -1.000000
vn -0.000779 -0.000016 -1.000000
vn -0.000773 -0.000031 -1.000000
vn -0.000773 -0.000031 -1.000000
vn -0.889674 0.456595 0.000704
vn -0.889674 0.456595 0.000704
vn -0.306233 0.951956 0.000243
vn -0.889674 0.456595 0.000704
vn -0.306233 0.951956 0.000243
vn -0.306233 0.951956 0.000243
vn 0.000794 0.000001 1.000000
vn 0.000794 0.000001 1.000000
vn 0.000794 0.000001 1.000000
vn 0.000794 0.000001 1.000000
vn 0.000794 0.000001 1.000000
vn 0.000794 0.000001 1.000000
vn 0.889674 -0.456595 -0.000715
vn 0.889674 -0.456595 -0.000715
vn 0.583041 -0.812442 -0.000468
vn 0.889674 -0.456595 -0.000715
vn 0.583041 -0.812442 -0.000468
vn 0.583041 -0.812442 -0.000468
vn 0.000000 1.000000 0.000000
vn -0.306233 0.951956 0.000243
vn -0.306233 0.951956 0.000243
vn 0.000000 1.000000 0.000000
vn -0.306233 0.951956 0.000243
vn 0.000000 1.000000 0.000000
vn -0.000003 0.000050 -1.000000
vn -0.000003 0.000050 -1.000000
vn -0.000003 0.000050 -1.000000
vn -0.000003 0.000050 -1.000000
vn -0.000003 0.000050 -1.000000
vn -0.000003 0.000050 -1.000000
vn -0.889674 0.456595 0.000712
vn -1.000000 0.000000 0.000799
vn -1.000000 0.000000 0.000799
vn -0.889674 0.456595 0.000712
vn -1.000000 0.000000 0.000799
vn -0.889674 0.456595 0.000712
vn 0.000794 0.000001 1.000000
vn 0.000794 0.000000 1.000000
vn 0.000794 0.000000 1.000000
vn 0.000794 0.000001 1.000000
vn 0.000794 0.000000 1.000000
vn 0.000794 0.000001 1.000000
vn 0.889674 -0.456596 -0.000711
vn 1.000000 0.000000 -0.000803
vn 1.000000 0.000000 -0.000803
vn 0.889674 -0.456596 -0.000711
vn 1.000000 0.000000 -0.000803
vn 0.889674 -0.456596 -0.000711
vn -0.000798 -0.000001 -1.000000
vn -0.000801 0.000000 -1.000000
vn -0.000801 0.000000 -1.000000
vn -0.000798 -0.000001 -1.000000
vn -0.000801 0.000000 -1.000000
vn -0.000798 -0.000001 -1.000000
vn -0.000798 -0.000001 -1.000000
vn -0.000798 -0.000001 -1.000000
vn -0.000795 -0.000002 -1.000000
vn -0.000798 -0.000001 -1.000000
vn -0.000795 -0.000002 -1.000000
vn -0.000795 -0.000002 -1.000000
vn -0.889674 0.456595 0.000712
vn -0.889674 0.456595 0.000712
vn -0.306233 0.951957 0.000246
vn -0.889674 0.456595 0.000712
vn -0.306233 0.951957 0.000246
vn -0.306233 0.951957 0.000246
vn 0.000777 0.000000 1.000000
vn 0.000777 0.000000 1.000000
vn 0.000777 0.000000 1.000000
vn 0.000777 0.000000 1.000000
vn 0.000777 0.000000 1.000000
vn 0.000777 0.000000 1.000000
vn 0.000000 1.000000 0.000000
vn -0.306233 0.951957 0.000246
vn -0.306233 0.951957 0.000246
vn 0.000000 1.000000 0.000000
vn -0.306233 0.951957 0.000246
vn 0.000000 1.000000 0.000000
vn 0.889674 -0.456596 -0.000711
vn 0.889674 -0.456596 -0.000711
vn 0.583041 -0.812443 -0.000462
vn 0.889674 -0.456596 -0.000711
vn 0.583041 -0.812443 -0.000462
vn 0.583041 -0.812443 -0.000462
vn 0.000794 0.000001 1.000000
vn 0.000794 0.000001 1.000000
vn 0.000794 0.000001 1.000000
vn 0.000794 0.000001 1.000000
vn 0.000794 0.000001 1.000000
vn 0.000794 0.000001 1.000000
vn -1.000000 0.000000 0.000000
vn -1.000000 0.000000 0.000000
vn -1.000000 0.000000 0.000000
vn -1.000000 0.000000 0.000000
vn -1.000000 0.000000 0.000000
vn -1.000000 0.000000 0.000000
vn -1.000000 0.000000 0.000400
vn -1.000000 0.000000 0.000400
vn -1.000000 0.000000 0.000400
vn -1.000000 0.000000 0.000400
vn -1.000000 0.000000 0.000400
vn -1.000000 0.000000 0.000400
vn -0.000001 0.000003 1.000000
vn -0.000001 0.000003 1.000000
vn -0.000001 0.000003 1.000000
vn -0.000001 0.000003 1.000000
vn -0.000001 0.000003 1.000000
vn -0.000001 0.000003 1.000000
vn 0.000000 1.000000 0.000000
vn 0.000000 1.000000 0.000000
vn 0.000000 1.000000 0.000000
vn 0.000000 1.000000 0.000000
vn 0.000000 1.000000 0.000000
vn 0.000000 1.000000 0.000000
vn 1.000000 0.000031 -0.000796
vn 1.000000 0.000031 -0.000796
vn 1.000000 0.000031 -0.000796
vn 1.000000 0.000031 -0.000796
vn 1.000000 0.000031 -0.000796
vn 1.000000 0.000031 -0.000796
vn 0.000000 -1.000000 0.000000
vn 0.000000 -1.000000 0.000000
vn 0.000000 -1.000000 0.000000
vn 0.000000 -1.000000 0.000000
vn 0.000000 -1.000000 0.000000
vn 0.000000 -1.000000 0.000000
f 106/1/1 66/2/2 68/3/3
f 106/4/4 68/5/5 108/6/6
f 108/7/7 68/8/8 67/9/9
f 108/10/10 67/11/11 107/12/12
f 107/13/13 67/14/14 65/15/15
f 107/16/16 65/17/17 105/18/18
f 105/19/19 65/20/20 66/21/21
f 105/22/22 66/23/23 106/24/24
f 135/25/25 133/26/26 134/27/27
f 135/28/28 134/29/29 136/30/30
f 5/31/31 8/32/32 7/33/33
f 5/34/34 7/35/35 6/36/36
f 75/37/37 73/38/38 5/39/39
f 75/40/40 5/41/41 6/42/42
f 76/43/43 75/44/44 6/45/45
f 76/46/46 6/47/47 7/48/48
f 74/49/49 76/50/50 7/51/51
f 74/52/52 7/53/53 8/54/54
f 73/55/55 74/56/56 8/57/57
f 73/58/58 8/59/59 5/60/60
f 73/61/61 1/62/62 2/63/63
f 73/64/64 2/65/65 74/66/66
f 75/67/67 3/68/68 1/69/69
f 75/70/70 1/71/71 73/72/72
f 76/73/73 4/74/74 3/75/75
f 76/76/76 3/77/77 75/78/78
f 74/79/79 2/80/80 4/81/81
f 74/82/82 4/83/83 76/84/84
f 105/85/85 106/86/86 72/87/87
f 105/88/88 72/89/89 69/90/90
f 106/91/91 108/92/92 71/93/93
f 106/94/94 71/95/95 72/96/96
f 108/97/97 107/98/98 70/99/99
f 108/100/100 70/101/101 71/102/102
f 107/103/103 105/104/104 69/105/105
f 107/106/106 69/107/107 70/108/108
f 69/109/109 72/110/110 71/111/111
f 69/112/112 71/113/113 70/114/114
f 131/115/115 129/116/116 130/117/117
f 131/118/118 130/119/119 132/120/120
f 102/121/121 58/122/122 60/123/123
f 102/124/124 60/125/125 104/126/126
f 104/127/127 60/128/128 59/129/129
f 104/130/130 59/131/131 103/132/132
f 103/133/133 59/134/134 57/135/135
f 103/136/136 57/137/137 101/138/138
f 101/139/139 57/140/140 58/141/141
f 101/142/142 58/143/143 102/144/144
f 101/145/145 102/146/146 64/147/147
f 101/148/148 64/149/149 61/150/150
f 102/151/151 104/152/152 63/153/153
f 102/154/154 63/155/155 64/156/156
f 127/157/157 125/158/158 126/159/159
f 127/160/160 126/161/161 128/162/162
f 13/163/163 16/164/164 15/165/165
f 13/166/166 15/167/167 14/168/168
f 79/169/169 77/170/170 13/171/171
f 79/172/172 13/173/173 14/174/174
f 80/175/175 79/176/176 14/177/177
f 80/178/178 14/179/179 15/180/180
f 78/181/181 80/182/182 15/183/183
f 78/184/184 15/185/185 16/186/186
f 77/187/187 78/188/188 16/189/189
f 77/190/190 16/191/191 13/192/192
f 77/193/193 9/194/194 10/195/195
f 77/196/196 10/197/197 78/198/198
f 79/199/199 11/200/200 9/201/201
f 79/202/202 9/203/203 77/204/204
f 80/205/205 12/206/206 11/207/207
f 80/208/208 11/209/209 79/210/210
f 78/211/211 10/212/212 12/213/213
f 78/214/214 12/215/215 80/216/216
f 104/217/217 103/218/218 62/219/219
f 104/220/220 62/221/221 63/222/222
f 103/223/223 101/224/224 61/225/225
f 103/226/226 61/227/227 62/228/228
f 61/229/229 64/230/230 63/231/231
f 61/232/232 63/233/233 62/234/234
f 123/235/235 121/236/236 122/237/237
f 123/238/238 122/239/239 124/240/240
f 98/241/241 50/242/242 52/243/243
f 98/244/244 52/245/245 100/246/246
f 100/247/247 52/248/248 51/249/249
f 100/250/250 51/251/251 99/252/252
f 99/253/253 51/254/254 49/255/255
f 99/256/256 49/257/257 97/258/258
f 97/259/259 49/260/260 50/261/261
f 97/262/262 50/263/263 98/264/264
f 97/265/265 98/266/266 56/267/267
f 97/268/268 56/269/269 53/270/270
f 98/271/271 100/272/272 55/273/273
f 98/274/274 55/275/275 56/276/276
f 100/277/277 99/278/278 54/279/279
f 100/280/280 54/281/281 55/282/282
f 99/283/283 97/284/284 53/285/285
f 99/286/286 53/287/287 54/288/288
f 119/289/289 117/290/290 118/291/291
f 119/292/292 118/293/293 120/294/294
f 21/295/295 24/296/296 23/297/297
f 21/298/298 23/299/299 22/300/300
f 83/301/301 81/302/302 21/303/303
f 83/304/304 21/305/305 22/306/306
f 84/307/307 83/308/308 22/309/309
f 84/310/310 22/311/311 23/312/312
f 82/313/313 84/314/314 23/315/315
f 82/316/316 23/317/317 24/318/318
f 81/319/319 82/320/320 24/321/321
f 81/322/322 24/323/323 21/324/324
f 81/325/325 17/326/326 18/327/327
f 81/328/328 18/329/329 82/330/330
f 83/331/331 19/332/332 17/333/333
f 83/334/334 17/335/335 81/336/336
f 84/337/337 20/338/338 19/339/339
f 84/340/340 19/341/341 83/342/342
f 82/343/343 18/344/344 20/345/345
f 82/346/346 20/347/347 84/348/348
f 53/349/349 56/350/350 55/351/351
f 53/352/352 55/353/353 54/354/354
f 137/355/355 116/356/356 115/357/357
f 137/358/358 115/359/359 138/360/360
f 94/361/361 42/362/362 44/363/363
f 94/364/364 44/365/365 96/366/366
f 96/367/367 44/368/368 43/369/369
f 96/370/370 43/371/371 95/372/372
f 95/373/373 43/374/374 41/375/375
f 95/376/376 41/377/377 93/378/378
f 93/379/379 41/380/380 42/381/381
f 93/382/382 42/383/383 94/384/384
f 139/385/385 110/386/386 109/387/387
f 139/388/388 109/389/389 140/390/390
f 29/391/391 32/392/392 31/393/393
f 29/394/394 31/395/395 30/396/396
f 87/397/397 85/398/398 29/399/399
f 87/400/400 29/401/401 30/402/402
f 88/403/403 87/404/404 30/405/405
f 88/406/406 30/407/407 31/408/408
f 86/409/409 88/410/410 31/411/411
f 86/412/412 31/413/413 32/414/414
f 85/415/415 86/416/416 32/417/417
f 85/418/418 32/419/419 29/420/420
f 85/421/421 25/422/422 26/423/423
f 85/424/424 26/425/425 86/426/426
f 87/427/427 27/428/428 25/429/429
f 87/430/430 25/431/431 85/432/432
f 88/433/433 28/434/434 27/435/435
f 88/436/436 27/437/437 87/438/438
f 86/439/439 26/440/440 28/441/441
f 86/442/442 28/443/443 88/444/444
f 93/445/445 94/446/446 48/447/447
f 93/448/448 48/449/449 45/450/450
f 94/451/451 96/452/452 47/453/453
f 94/454/454 47/455/455 48/456/456
f 96/457/457 95/458/458 46/459/459
f 96/460/460 46/461/461 47/462/462
f 95/463/463 93/464/464 45/465/465
f 95/466/466 45/467/467 46/468/468
f 45/469/469 48/470/470 47/471/471
f 45/472/472 47/473/473 46/474/474
f 140/475/475 109/476/476 111/477/477
f 140/478/478 111/479/479 138/480/480
f 90/481/481 34/482/482 36/483/483
f 90/484/484 36/485/485 92/486/486
f 92/487/487 36/488/488 35/489/489
f 92/490/490 35/491/491 91/492/492
f 91/493/493 35/494/494 33/495/495
f 91/496/496 33/497/497 89/498/498
f 89/499/499 33/500/500 34/501/501
f 89/502/502 34/503/503 90/504/504
f 89/505/505 90/506/506 40/507/507
f 89/508/508 40/509/509 37/510/510
f 90/511/511 92/512/512 39/513/513
f 90/514/514 39/515/515 40/516/516
f 114/517/517 113/518/518 115/519/519
f 114/520/520 115/521/521 116/522/522
f 37/523/523 40/524/524 39/525/525
f 37/526/526 39/527/527 38/528/528
f 91/529/529 89/530/530 37/531/531
f 91/532/532 37/533/533 38/534/534
f 92/535/535 91/536/536 38/537/537
f 92/538/538 38/539/539 39/540/540
f 109/541/541 110/542/542 112/543/543
f 109/544/544 112/545/545 111/546/546
f 139/547/547 114/548/548 116/549/549
f 139/550/550 116/551/551 137/552/552
f 137/553/553 112/554/554 110/555/555
f 137/556/556 110/557/557 139/558/558
f 138/559/559 111/560/560 112/561/561
f 138/562/562 112/563/563 137/564/564
f 138/565/565 115/566/566 113/567/567
f 138/568/568 113/569/569 140/570/570
f 140/571/571 113/572/572 114/573/573
f 140/574/574 114/575/575 139/576/576
