v 0.005080 -0.000148 15.997589
v 0.004827 2.944000 15.998351
v -15.948001 -0.000148 0.002153
v 0.869546 3.552598 15.996716
v -15.944805 3.552598 -0.847313
v -15.944780 2.944000 0.002153
v -0.000365 2.944000 0.002153
v 0.856873 3.552598 -0.847313
v 0.002997 -0.000148 0.002153
vt 4.995149 0.828696
vt 0.000191 0.828696
vt 0.000000 0.000000
vt 4.995149 0.828696
vt 0.000000 0.000000
vt 4.995348 0.000000
vt 5.296122 1.000000
vt 0.000190 1.000000
vt 0.000191 0.828696
vt 5.296122 1.000000
vt 0.000191 0.828696
vt 4.995149 0.828696
vt 4.995348 0.000000
vt 0.000000 0.000000
vt 0.000191 0.828696
vt 4.995348 0.000000
vt 0.000191 0.828696
vt 4.995149 0.828696
vt 4.995149 0.828696
vt 0.000191 0.828696
vt 0.000190 1.000000
vt 4.995149 0.828696
vt 0.000190 1.000000
vt 5.296122 1.000000
vn 0.570339 -0.589083 -0.572446
vn 0.888149 -0.459555 -0.000305
vn 1.000000 0.000614 -0.000227
vn 0.570339 -0.589083 -0.572446
vn 1.000000 0.000614 -0.000227
vn 1.000000 0.000614 -0.000227
vn 0.316349 -0.893250 -0.319418
vn 0.577117 -0.816661 -0.000314
vn 0.888149 -0.459555 -0.000305
vn 0.316349 -0.893250 -0.319418
vn 0.888149 -0.459555 -0.000305
vn 0.570339 -0.589083 -0.572446
vn 0.000000 0.000000 -1.000000
vn 0.000000 0.000000 -1.000000
vn 0.000000 -0.456945 -0.889495
vn 0.000000 0.000000 -1.000000
vn 0.000000 -0.456945 -0.889495
vn 0.570339 -0.589083 -0.572446
vn 0.570339 -0.589083 -0.572446
vn 0.000000 -0.456945 -0.889495
vn 0.000000 -0.812901 -0.582402
vn 0.570339 -0.589083 -0.572446
vn 0.000000 -0.812901 -0.582402
vn 0.316349 -0.893250 -0.319418
f 7/1/1 2/2/2 1/3/3
f 7/4/4 1/5/5 9/6/6
f 8/7/7 4/8/8 2/9/9
f 8/10/10 2/11/11 7/12/12
f 9/13/13 3/14/14 6/15/15
f 9/16/16 6/17/17 7/18/18
f 7/19/19 6/20/20 5/21/21
f 7/22/22 5/23/23 8/24/24
