v -2.109297 0.496990 1.446276
v -2.109297 0.496990 -2.553724
v -4.277317 0.496990 1.446276
v -2.109297 0.496990 5.869485
v 0.713990 0.496990 1.446276
v 3.452805 0.496990 1.446276
v 4.890703 0.496990 -2.547144
v 1.547711 0.496990 -6.553724
v -2.109297 -0.496990 1.446276
v 0.713990 -0.496990 1.446276
v -2.109297 -0.496990 5.869485
v -2.109297 -0.496990 -2.553724
v -4.277317 -0.496990 1.446276
v 1.547711 -0.496990 -6.553724
v 4.890703 -0.496990 -2.547144
v 3.452805 -0.496990 1.446276
vt 0.998047 0.998047
vt 0.998047 0.001953
vt 0.998047 0.001953
vt 0.998047 0.998047
vt 0.998047 0.001953
vt 0.998047 0.001953
vt 0.998047 0.998047
vt 0.998047 0.001953
vt 0.001953 0.001953
vt 0.998047 0.998047
vt 0.001953 0.001953
vt 0.001953 0.998047
vt 0.001953 0.998047
vt 0.998047 0.998047
vt 0.998047 0.998047
vt 0.001953 0.001953
vt 0.001953 0.998047
vt 0.001953 0.998047
vt 0.998047 0.001953
vt 0.001953 0.001953
vt 0.001953 0.001953
vt 0.001953 0.998047
vt 0.001953 0.001953
vt 0.998047 0.001953
vt 0.001953 0.998047
vt 0.998047 0.001953
vt 0.998047 0.001953
vt 0.001953 0.998047
vt 0.998047 0.001953
vt 0.998047 0.001953
vt 0.001953 0.998047
vt 0.998047 0.001953
vt 0.998047 0.998047
vt 0.998047 0.998047
vt 0.998047 0.998047
vt 0.001953 0.998047
vt 0.001953 0.998047
vt 0.001953 0.998047
vt 0.001953 0.001953
vt 0.001953 0.001953
vt 0.001953 0.001953
vt 0.998047 0.001953
vt 0.998047 0.998047
vt 0.001953 0.998047
vt 0.001953 0.998047
vt 0.998047 0.998047
vt 0.001953 0.998047
vt 0.998047 0.998047
vt 0.001953 0.001953
vt 0.998047 0.001953
vt 0.998047 0.001953
vt 0.001953 0.001953
vt 0.998047 0.001953
vt 0.001953 0.001953
vt 0.001953 0.001953
vt 0.001953 0.998047
vt 0.001953 0.998047
vt 0.001953 0.001953
vt 0.001953 0.998047
vt 0.001953 0.001953
vt 0.998047 0.001953
vt 0.001953 0.001953
vt 0.001953 0.001953
vt 0.998047 0.001953
vt 0.001953 0.001953
vt 0.998047 0.001953
vt 0.998047 0.001953
vt 0.998047 0.001953
vt 0.998047 0.001953
vt 0.998047 0.001953
vt 0.998047 0.001953
vt 0.998047 0.001953
vt 0.001953 0.998047
vt 0.998047 0.998047
vt 0.998047 0.998047
vt 0.001953 0.998047
vt 0.998047 0.998047
vt 0.001953 0.998047
vt 0.001953 0.998047
vt 0.001953 0.001953
vt 0.001953 0.001953
vt 0.001953 0.998047
vt 0.001953 0.001953
vt 0.001953 0.998047
vn 0.000000 1.000000 0.000000
vn 0.000000 1.000000 0.000000
vn 0.000000 1.000000 0.000000
vn 0.000000 1.000000 0.000000
vn 0.000000 1.000000 0.000000
vn 0.000000 1.000000 0.000000
vn 0.000000 1.000000 0.000000
vn 0.000000 1.000000 0.000000
vn 0.187366 0.982290 0.000000
vn 0.000000 1.000000 0.000000
vn 0.187366 0.982290 0.000000
vn 0.000000 1.000000 0.000000
vn 0.000000 1.000000 0.000000
vn 0.000000 1.000000 0.000000
vn 0.000000 1.000000 0.000000
vn 0.000000 1.000000 0.000000
vn 0.000000 1.000000 0.000000
vn 0.000000 1.000000 0.000000
vn 0.000000 1.000000 0.000000
vn 0.000000 1.000000 0.000000
vn 0.000000 1.000000 0.000000
vn 0.000000 -1.000000 0.000000
vn 0.000000 -1.000000 0.000000
vn 0.000000 -1.000000 0.000000
vn 0.000000 -1.000000 0.000000
vn 0.000000 -1.000000 0.000000
vn 0.000000 -1.000000 0.000000
vn 0.000000 -1.000000 0.000000
vn 0.000000 -1.000000 0.000000
vn 0.000000 -1.000000 0.000000
vn 0.000000 -1.000000 0.000000
vn 0.000000 -1.000000 0.000000
vn 0.000000 -1.000000 0.000000
vn 0.000000 -1.000000 0.000000
vn 0.000000 -1.000000 0.000000
vn 0.000000 -1.000000 0.000000
vn 0.000000 -1.000000 0.000000
vn 0.000000 -1.000000 0.000000
vn 0.000000 -1.000000 0.000000
vn 0.000000 -1.000000 0.000000
vn 0.000000 -1.000000 0.000000
vn 0.000000 -1.000000 0.000000
vn 0.842925 0.000000 0.538031
vn 0.480609 0.000000 0.876935
vn 0.480609 0.000000 0.876935
vn 0.842925 0.000000 0.538031
vn 0.480609 0.000000 0.876935
vn 0.842925 0.000000 0.538031
vn -0.814657 0.000000 -0.579943
vn -0.999790 0.000000 -0.020473
vn -0.999790 0.000000 -0.020473
vn -0.814657 0.000000 -0.579943
vn -0.999790 0.000000 -0.020473
vn -0.814657 0.000000 -0.579943
vn 0.984749 0.000000 -0.173979
vn 0.767828 0.000000 -0.640656
vn 0.767828 0.000000 -0.640656
vn 0.984749 0.000000 -0.173979
vn 0.767828 0.000000 -0.640656
vn 0.984749 0.000000 -0.173979
vn 0.940867 0.000000 0.338776
vn 0.984749 0.000000 -0.173979
vn 0.984749 0.000000 -0.173979
vn 0.940867 0.000000 0.338776
vn 0.984749 0.000000 -0.173979
vn 0.940867 0.000000 0.338776
vn 0.480609 0.000000 0.876935
vn 0.000000 0.000000 1.000000
vn 0.000000 0.000000 1.000000
vn 0.480609 0.000000 0.876935
vn 0.000000 0.000000 1.000000
vn 0.480609 0.000000 0.876935
vn -0.738041 0.000000 -0.674755
vn -0.814657 0.000000 -0.579943
vn -0.814657 0.000000 -0.579943
vn -0.738041 0.000000 -0.674755
vn -0.814657 0.000000 -0.579943
vn -0.738041 0.000000 -0.674755
vn -0.999790 0.000000 -0.020473
vn -0.897938 0.000000 0.440122
vn -0.897938 0.000000 0.440122
vn -0.999790 0.000000 -0.020473
vn -0.897938 0.000000 0.440122
vn -0.999790 0.000000 -0.020473
f 2/1/1 1/2/2 5/3/3
f 2/4/4 5/5/5 6/6/6
f 2/7/7 6/8/8 7/9/9
f 2/10/10 7/11/11 8/12/12
f 5/13/13 1/14/14 4/15/15
f 4/16/16 1/17/17 3/18/18
f 3/19/19 1/20/20 2/21/21
f 14/22/22 15/23/23 16/24/24
f 14/25/25 16/26/26 10/27/27
f 14/28/28 10/29/29 9/30/30
f 14/31/31 9/32/32 12/33/33
f 11/34/34 9/35/35 10/36/36
f 13/37/37 9/38/38 11/39/39
f 12/40/40 9/41/41 13/42/42
f 11/43/43 10/44/44 5/45/45
f 11/46/46 5/47/47 4/48/48
f 12/49/49 13/50/50 3/51/51
f 12/52/52 3/53/53 2/54/54
f 15/55/55 14/56/56 8/57/57
f 15/58/58 8/59/59 7/60/60
f 16/61/61 15/62/62 7/63/63
f 16/64/64 7/65/65 6/66/66
f 10/67/67 16/68/68 6/69/69
f 10/70/70 6/71/71 5/72/72
f 14/73/73 12/74/74 2/75/75
f 14/76/76 2/77/77 8/78/78
f 13/79/79 11/80/80 4/81/81
f 13/82/82 4/83/83 3/84/84
