v 7.000000 5.000000 -4.000000
v -0.000000 4.000000 7.000000
v 0.000000 4.000000 4.000000
v -8.000000 4.000000 4.000000
v -8.000000 4.000000 7.000000
v -5.000000 4.000000 4.000000
v -2.000000 4.000000 4.000000
v -1.000000 4.000000 -4.000000
v -1.000000 4.000000 3.000000
v -2.000000 4.000000 3.000000
v -5.000000 4.000000 3.000000
v -7.000000 4.000000 -4.000000
v -7.000000 4.000000 3.000000
v 3.000000 4.000000 -8.000000
v 6.000000 4.000000 -8.000000
v 3.000000 4.000000 -4.000000
v 6.000000 4.000000 -4.000000
v 3.000000 -0.000000 -8.000000
v 3.000000 -0.000000 -4.000000
v 6.000000 0.000000 -4.000000
v 7.000000 -0.000000 7.000000
v -7.000000 0.000000 -4.000000
v 7.000000 0.000000 -4.000000
v -8.000000 0.000000 7.000000
v -8.000000 -0.000000 4.000000
v -7.000000 -0.000000 3.000000
v -5.000000 0.000000 4.000000
v -5.000000 0.000000 3.000000
v -2.000000 -0.000000 4.000000
v 0.000000 -0.000000 4.000000
v -2.000000 -0.000000 3.000000
v -1.000000 -0.000000 3.000000
v -1.000000 -0.000000 -4.000000
v 0.000000 0.000000 -4.000000
v 3.000000 5.000000 -4.000000
v 6.000000 5.000000 -4.000000
v -0.000000 5.000000 4.000000
v -0.000000 5.000000 -4.000000
v 6.000000 0.000000 -8.000000
v 7.000000 -0.000000 3.802713
v -0.000000 -0.000000 7.000000
v -0.000000 5.000000 7.000000
v 3.500000 -0.000000 7.000000
v 2.070680 5.000000 7.000000
v 7.000000 5.000000 3.636654
v 7.000000 5.000000 0.074556
v 1.970328 5.000000 8.000000
v 0.000000 5.000000 8.000000
v 3.500000 0.000000 8.000000
v 7.000000 0.000000 8.000000
v 8.000000 0.000000 7.000000
v 8.000000 0.000000 3.500000
v 8.000000 5.000000 0.000000
v 8.000000 5.000000 3.622851
v 7.000000 6.000000 4.794138
v 2.790867 6.000000 7.000000
v 8.000000 0.000000 8.000000
vt 0.500000 0.750000
vt 0.375000 0.750000
vt 0.187500 0.750000
vt 0.500000 0.750000
vt 0.187500 0.750000
vt 0.000000 0.750000
vt 0.500000 0.750000
vt 0.000000 0.750000
vt 0.000000 0.937500
vt 0.500000 0.750000
vt 0.000000 0.937500
vt 0.500000 0.937500
vt 0.375000 0.687500
vt 0.187500 0.687500
vt 0.187500 0.750000
vt 0.375000 0.687500
vt 0.187500 0.750000
vt 0.375000 0.750000
vt 0.328308 0.794922
vt 0.330994 0.001953
vt 0.669373 0.001953
vt 0.328308 0.794922
vt 0.669373 0.001953
vt 0.669373 0.794922
vt 0.498047 0.798828
vt 0.001953 0.798828
vt 0.001953 0.982422
vt 0.498047 0.798828
vt 0.001953 0.982422
vt 0.498047 0.982422
vt 0.001953 0.798828
vt 0.001953 0.001953
vt 1.998047 0.001953
vt 0.001953 0.798828
vt 1.998047 0.001953
vt 1.998047 0.982422
vt 0.001953 0.798828
vt 1.998047 0.982422
vt 0.001953 0.982422
vt 0.001953 0.970703
vt 0.498047 0.970703
vt 0.498047 0.787109
vt 0.001953 0.970703
vt 0.498047 0.787109
vt 0.001953 0.787109
vt 0.001953 0.982422
vt 0.001953 0.001953
vt 0.501953 0.001953
vt 0.001953 0.982422
vt 0.501953 0.001953
vt 0.501953 0.783203
vt 0.001953 0.982422
vt 0.501953 0.783203
vt 0.501953 0.982422
vt 0.446573 0.662048
vt 0.520697 0.530800
vt 0.599136 0.670433
vt 0.070312 0.527344
vt 0.941406 0.527344
vt 0.812500 0.675781
vt 0.070312 0.527344
vt 0.812500 0.675781
vt 0.167969 0.675781
vt 0.513255 0.535606
vt 0.606091 0.654358
vt 0.447061 0.673317
vt 0.070312 0.527344
vt 0.941406 0.527344
vt 0.812500 0.675781
vt 0.070312 0.527344
vt 0.812500 0.675781
vt 0.167969 0.675781
vt 0.898200 0.244906
vt 0.073008 0.251432
vt 0.072691 0.405320
vt 0.898200 0.244906
vt 0.072691 0.405320
vt 0.897507 0.406936
vt 0.937500 0.737670
vt 0.937500 0.937500
vt 1.000000 0.937500
vt 0.937500 0.737670
vt 1.000000 0.937500
vt 1.000000 0.718750
vt 0.937500 0.937500
vt 0.937500 1.000000
vt 1.000000 1.000000
vt 0.937500 0.937500
vt 1.000000 1.000000
vt 1.000000 0.937500
vt 0.937500 0.937500
vt 0.718750 0.937500
vt 0.718750 1.000000
vt 0.937500 0.937500
vt 0.718750 1.000000
vt 0.937500 1.000000
vt 0.898200 0.244906
vt 0.073008 0.251432
vt 0.072691 0.405320
vt 0.898200 0.244906
vt 0.072691 0.405320
vt 0.897507 0.406936
vt 0.070312 0.527344
vt 0.941406 0.527344
vt 0.812500 0.675781
vt 0.070312 0.527344
vt 0.812500 0.675781
vt 0.167969 0.675781
vt 0.629417 0.937500
vt 0.500000 0.937500
vt 0.500000 0.750000
vt 0.629417 0.937500
vt 0.500000 0.750000
vt 0.500000 0.250000
vt 0.629417 0.937500
vt 0.500000 0.250000
vt 0.687500 0.250000
vt 0.629417 0.937500
vt 0.687500 0.250000
vt 0.875000 0.250000
vt 0.629417 0.937500
vt 0.875000 0.250000
vt 0.937500 0.250000
vt 0.629417 0.937500
vt 0.937500 0.250000
vt 0.937500 0.504660
vt 0.629417 0.937500
vt 0.937500 0.504660
vt 0.937500 0.727291
vt 0.189453 0.783203
vt 0.189453 0.001953
vt 0.001953 0.001953
vt 0.189453 0.783203
vt 0.001953 0.001953
vt 0.001953 0.982422
vt 0.189453 0.783203
vt 0.001953 0.982422
vt 0.189453 0.982422
vt 0.000000 0.794922
vt 0.001953 0.001953
vt 0.998047 0.001953
vt 0.000000 0.794922
vt 0.998047 0.001953
vt 0.998047 0.794922
vt 0.500000 0.937500
vt 0.718750 0.937500
vt 0.937500 0.937500
vt 0.500000 0.937500
vt 0.937500 0.937500
vt 0.937500 0.737670
vt 0.500000 0.937500
vt 0.937500 0.737670
vt 0.937500 0.250000
vt 0.500000 0.937500
vt 0.937500 0.250000
vt 0.875000 0.250000
vt 0.500000 0.937500
vt 0.875000 0.250000
vt 0.687500 0.250000
vt 0.500000 0.937500
vt 0.687500 0.250000
vt 0.500000 0.250000
vt 0.500000 0.937500
vt 0.500000 0.250000
vt 0.500000 0.750000
vt 0.375000 0.687500
vt 0.437500 0.687500
vt 0.437500 0.250000
vt 0.375000 0.687500
vt 0.437500 0.250000
vt 0.062500 0.250000
vt 0.375000 0.687500
vt 0.062500 0.250000
vt 0.062500 0.687500
vt 0.375000 0.687500
vt 0.062500 0.687500
vt 0.187500 0.687500
vt 0.875000 0.000000
vt 0.687500 0.000000
vt 0.687500 0.250000
vt 0.875000 0.000000
vt 0.687500 0.250000
vt 0.875000 0.250000
vt 0.875000 0.250000
vt 0.687500 0.250000
vt 0.687500 0.000000
vt 0.875000 0.250000
vt 0.687500 0.000000
vt 0.875000 0.000000
vt 0.500000 0.750000
vt 0.500000 0.937500
vt 0.000000 0.937500
vt 0.500000 0.750000
vt 0.000000 0.937500
vt 0.000000 0.750000
vt 0.500000 0.750000
vt 0.000000 0.750000
vt 0.187500 0.750000
vt 0.500000 0.750000
vt 0.187500 0.750000
vt 0.375000 0.750000
vt 0.375000 0.687500
vt 0.375000 0.750000
vt 0.187500 0.750000
vt 0.375000 0.687500
vt 0.187500 0.750000
vt 0.187500 0.687500
vt 0.998047 0.794922
vt 0.437500 0.794922
vt 0.439453 0.001953
vt 0.998047 0.794922
vt 0.439453 0.001953
vt 0.998047 0.001953
vt 0.187500 0.687500
vt 0.062500 0.687500
vt 0.062500 0.250000
vt 0.187500 0.687500
vt 0.062500 0.250000
vt 0.437500 0.250000
vt 0.187500 0.687500
vt 0.437500 0.250000
vt 0.437500 0.687500
vt 0.187500 0.687500
vt 0.437500 0.687500
vt 0.375000 0.687500
vt 0.001953 0.001953
vt 0.248047 0.001953
vt 0.248047 0.794922
vt 0.001953 0.001953
vt 0.248047 0.794922
vt 0.000000 0.794922
vt 0.439453 0.794922
vt 0.998047 0.794922
vt 0.998047 0.001953
vt 0.439453 0.794922
vt 0.998047 0.001953
vt 0.439453 0.001953
vt 0.000000 0.794922
vt 0.001953 0.001953
vt 1.998047 0.001953
vt 0.000000 0.794922
vt 1.998047 0.001953
vt 1.998047 0.794922
vt 0.375000 0.794922
vt 0.376953 0.001953
vt 0.623047 0.001953
vt 0.375000 0.794922
vt 0.623047 0.001953
vt 0.623047 0.794922
vt 0.998047 0.982422
vt 0.001953 0.982422
vt 0.001953 0.001953
vt 0.998047 0.982422
vt 0.001953 0.001953
vt 1.998047 0.001953
vt 0.998047 0.794922
vt -1.000000 0.794922
vt -0.998047 0.001953
vt 0.998047 0.794922
vt -0.998047 0.001953
vt 0.998047 0.001953
vt -0.998047 0.001953
vt 0.998047 0.001953
vt 0.998047 0.794922
vt -0.998047 0.001953
vt 0.998047 0.794922
vt -1.000000 0.794922
vt 0.001953 0.001953
vt 0.001953 0.783203
vt 0.998047 0.783203
vt 0.001953 0.001953
vt 0.998047 0.783203
vt 0.998047 0.001953
vt 0.001953 0.783203
vt 0.998047 0.783203
vt 0.998047 0.001953
vt 0.001953 0.783203
vt 0.998047 0.001953
vt 0.001953 0.001953
vt 0.623047 0.794922
vt 0.375000 0.794922
vt 0.376953 0.001953
vt 0.623047 0.794922
vt 0.376953 0.001953
vt 0.623047 0.001953
vt 0.994141 0.001953
vt 0.000000 0.001953
vt 0.000000 0.794922
vt 0.994141 0.001953
vt 0.000000 0.794922
vt 0.001953 0.998047
vn 0.000000 1.000000 0.000000
vn 0.000000 1.000000 -0.000000
vn 0.000000 1.000000 -0.000000
vn 0.000000 1.000000 0.000000
vn 0.000000 1.000000 -0.000000
vn 0.000000 1.000000 0.000000
vn 0.000000 1.000000 0.000000
vn 0.000000 1.000000 0.000000
vn 0.000000 1.000000 0.000000
vn 0.000000 1.000000 0.000000
vn 0.000000 1.000000 0.000000
vn 0.000000 1.000000 0.000000
vn 0.000000 1.000000 -0.000000
vn 0.000000 1.000000 -0.000000
vn 0.000000 1.000000 -0.000000
vn 0.000000 1.000000 -0.000000
vn 0.000000 1.000000 -0.000000
vn 0.000000 1.000000 -0.000000
vn 0.000000 0.000000 1.000000
vn 0.000000 0.000000 1.000000
vn 0.000000 0.000000 1.000000
vn 0.000000 0.000000 1.000000
vn 0.000000 0.000000 1.000000
vn 0.000000 0.000000 1.000000
vn 1.000000 -0.000000 0.000000
vn 1.000000 -0.000000 0.000000
vn 1.000000 -0.000000 0.000000
vn 1.000000 -0.000000 0.000000
vn 1.000000 -0.000000 0.000000
vn 1.000000 -0.000000 0.000000
vn 1.000000 -0.000000 0.000000
vn 1.000000 0.000000 -0.000000
vn 1.000000 0.000000 -0.000000
vn 1.000000 -0.000000 0.000000
vn 1.000000 0.000000 -0.000000
vn 1.000000 0.000000 -0.000000
vn 1.000000 -0.000000 0.000000
vn 1.000000 0.000000 -0.000000
vn 1.000000 -0.000000 0.000000
vn 0.000000 0.000000 1.000000
vn 0.000000 0.000000 1.000000
vn 0.000000 0.000000 1.000000
vn 0.000000 0.000000 1.000000
vn 0.000000 0.000000 1.000000
vn 0.000000 0.000000 1.000000
vn 0.000000 0.000000 1.000000
vn 0.000000 0.000000 1.000000
vn 0.000000 0.000000 1.000000
vn 0.000000 0.000000 1.000000
vn 0.000000 0.000000 1.000000
vn 0.000000 0.000000 1.000000
vn 0.000000 0.000000 1.000000
vn 0.000000 0.000000 1.000000
vn 0.000000 0.000000 1.000000
vn 0.454621 -0.889516 0.045622
vn 0.356883 -0.906234 0.226659
vn 0.665384 -0.615371 0.422590
vn 0.356883 -0.906234 0.226659
vn 0.121477 -0.918576 0.376113
vn 0.225738 -0.678640 0.698921
vn 0.356883 -0.906234 0.226659
vn 0.225738 -0.678640 0.698921
vn 0.665384 -0.615371 0.422590
vn 0.121477 -0.918576 0.376113
vn 0.004814 -0.937197 0.348767
vn 0.225738 -0.678640 0.698921
vn 0.121477 -0.918576 0.376113
vn 0.000000 -1.000000 0.000000
vn 0.000000 -1.000000 0.000000
vn 0.121477 -0.918576 0.376113
vn 0.000000 -1.000000 0.000000
vn 0.004814 -0.937197 0.348767
vn 0.151123 0.579079 0.801143
vn 0.055871 0.953495 0.296185
vn 0.085038 0.888560 0.450810
vn 0.151123 0.579079 0.801143
vn 0.085038 0.888560 0.450810
vn 0.151123 0.579079 0.801143
vn 0.055871 0.953495 0.296185
vn -0.000000 1.000000 -0.000000
vn -0.000000 1.000000 -0.000000
vn 0.055871 0.953495 0.296185
vn -0.000000 1.000000 -0.000000
vn 0.085038 0.888560 0.450810
vn -0.000000 1.000000 -0.000000
vn -0.000000 1.000000 -0.000000
vn -0.000000 1.000000 -0.000000
vn -0.000000 1.000000 -0.000000
vn -0.000000 1.000000 -0.000000
vn -0.000000 1.000000 -0.000000
vn -0.000000 1.000000 -0.000000
vn 0.303339 0.952883 -0.000000
vn 0.461810 0.886979 -0.000000
vn -0.000000 1.000000 -0.000000
vn 0.461810 0.886979 -0.000000
vn -0.000000 1.000000 -0.000000
vn 0.303339 0.952883 -0.000000
vn 0.819232 0.573462 -0.000000
vn 0.819232 0.573462 -0.000000
vn 0.303339 0.952883 -0.000000
vn 0.819232 0.573462 -0.000000
vn 0.461810 0.886979 -0.000000
vn 0.000000 -1.000000 0.000000
vn 0.356883 -0.906234 0.226659
vn 0.454621 -0.889516 0.045622
vn 0.000000 -1.000000 0.000000
vn 0.454621 -0.889516 0.045622
vn 0.000000 -1.000000 0.000000
vn 0.356883 -0.906234 0.226659
vn 0.000000 -1.000000 0.000000
vn 0.000000 -1.000000 0.000000
vn 0.356883 -0.906234 0.226659
vn 0.000000 -1.000000 0.000000
vn 0.000000 -1.000000 0.000000
vn 0.356883 -0.906234 0.226659
vn 0.000000 -1.000000 0.000000
vn 0.000000 -1.000000 0.000000
vn 0.356883 -0.906234 0.226659
vn 0.000000 -1.000000 0.000000
vn 0.000000 -1.000000 0.000000
vn 0.356883 -0.906234 0.226659
vn 0.000000 -1.000000 0.000000
vn 0.000000 -1.000000 0.000000
vn 0.356883 -0.906234 0.226659
vn 0.000000 -1.000000 0.000000
vn 0.000000 -1.000000 0.000000
vn 0.356883 -0.906234 0.226659
vn 0.000000 -1.000000 0.000000
vn 0.121477 -0.918576 0.376113
vn 0.000000 0.000000 1.000000
vn 0.000000 0.000000 1.000000
vn 0.000000 0.000000 1.000000
vn 0.000000 0.000000 1.000000
vn 0.000000 0.000000 1.000000
vn 0.000000 0.000000 1.000000
vn 0.000000 0.000000 1.000000
vn 0.000000 0.000000 1.000000
vn 0.000000 0.000000 1.000000
vn 0.000000 0.000000 1.000000
vn 0.000000 0.000000 1.000000
vn 0.000000 0.000000 1.000000
vn 0.000000 0.000000 1.000000
vn 0.000000 0.000000 1.000000
vn 0.000000 0.000000 1.000000
vn 0.000000 1.000000 0.000000
vn 0.303339 0.952883 -0.000000
vn -0.000000 1.000000 -0.000000
vn 0.000000 1.000000 0.000000
vn -0.000000 1.000000 -0.000000
vn 0.055871 0.953495 0.296185
vn 0.000000 1.000000 0.000000
vn 0.055871 0.953495 0.296185
vn 0.000000 1.000000 0.000000
vn 0.000000 1.000000 0.000000
vn 0.000000 1.000000 0.000000
vn -0.000000 1.000000 -0.000000
vn 0.000000 1.000000 0.000000
vn -0.000000 1.000000 -0.000000
vn -0.000000 1.000000 -0.000000
vn 0.000000 1.000000 0.000000
vn -0.000000 1.000000 -0.000000
vn 0.000000 1.000000 0.000000
vn 0.000000 1.000000 0.000000
vn 0.000000 1.000000 0.000000
vn 0.000000 1.000000 0.000000
vn 0.000000 1.000000 -0.000000
vn 0.000000 1.000000 0.000000
vn 0.000000 1.000000 0.000000
vn 0.000000 1.000000 -0.000000
vn 0.000000 1.000000 0.000000
vn 0.000000 1.000000 0.000000
vn 0.000000 1.000000 -0.000000
vn 0.000000 1.000000 0.000000
vn 0.000000 1.000000 0.000000
vn 0.000000 1.000000 -0.000000
vn 0.000000 1.000000 0.000000
vn 0.000000 1.000000 -0.000000
vn -0.000000 1.000000 -0.000000
vn -0.000000 1.000000 -0.000000
vn -0.000000 1.000000 -0.000000
vn -0.000000 1.000000 -0.000000
vn -0.000000 1.000000 -0.000000
vn -0.000000 1.000000 -0.000000
vn 0.000000 -1.000000 0.000000
vn 0.000000 -1.000000 0.000000
vn 0.000000 -1.000000 0.000000
vn 0.000000 -1.000000 0.000000
vn 0.000000 -1.000000 0.000000
vn 0.000000 -1.000000 0.000000
vn 0.000000 -1.000000 0.000000
vn 0.000000 -1.000000 0.000000
vn 0.000000 -1.000000 0.000000
vn 0.000000 -1.000000 0.000000
vn 0.000000 -1.000000 0.000000
vn 0.000000 -1.000000 0.000000
vn 0.000000 -1.000000 0.000000
vn 0.000000 -1.000000 0.000000
vn 0.000000 -1.000000 0.000000
vn 0.000000 -1.000000 0.000000
vn 0.000000 -1.000000 0.000000
vn 0.000000 -1.000000 0.000000
vn 0.000000 -1.000000 0.000000
vn 0.000000 -1.000000 0.000000
vn 0.000000 -1.000000 0.000000
vn 0.000000 -1.000000 0.000000
vn 0.000000 -1.000000 0.000000
vn 0.000000 -1.000000 0.000000
vn 0.000000 0.000000 -1.000000
vn 0.000000 0.000000 -1.000000
vn 0.000000 0.000000 -1.000000
vn 0.000000 0.000000 -1.000000
vn 0.000000 0.000000 -1.000000
vn 0.000000 0.000000 -1.000000
vn 0.000000 -1.000000 0.000000
vn 0.000000 -1.000000 0.000000
vn 0.000000 -1.000000 0.000000
vn 0.000000 -1.000000 0.000000
vn 0.000000 -1.000000 0.000000
vn 0.000000 -1.000000 0.000000
vn 0.000000 -1.000000 0.000000
vn 0.000000 -1.000000 0.000000
vn 0.000000 -1.000000 0.000000
vn 0.000000 -1.000000 0.000000
vn 0.000000 -1.000000 0.000000
vn 0.000000 -1.000000 0.000000
vn 0.000000 0.000000 -1.000000
vn 0.000000 0.000000 -1.000000
vn 0.000000 0.000000 -1.000000
vn 0.000000 0.000000 -1.000000
vn 0.000000 0.000000 -1.000000
vn 0.000000 0.000000 -1.000000
vn 0.000000 0.000000 1.000000
vn 0.000000 0.000000 1.000000
vn 0.000000 0.000000 1.000000
vn 0.000000 0.000000 1.000000
vn 0.000000 0.000000 1.000000
vn 0.000000 0.000000 1.000000
vn 0.000000 0.000000 -1.000000
vn 0.000000 0.000000 -1.000000
vn 0.000000 0.000000 -1.000000
vn 0.000000 0.000000 -1.000000
vn 0.000000 0.000000 -1.000000
vn 0.000000 0.000000 -1.000000
vn -1.000000 0.000000 0.000000
vn -1.000000 0.000000 0.000000
vn -1.000000 0.000000 0.000000
vn -1.000000 0.000000 0.000000
vn -1.000000 0.000000 0.000000
vn -1.000000 0.000000 0.000000
vn -1.000000 0.000000 0.000000
vn -1.000000 0.000000 0.000000
vn -1.000000 0.000000 0.000000
vn -1.000000 0.000000 0.000000
vn -1.000000 0.000000 0.000000
vn -1.000000 0.000000 0.000000
vn -1.000000 0.000000 0.000000
vn -1.000000 0.000000 0.000000
vn -1.000000 0.000000 0.000000
vn -1.000000 0.000000 0.000000
vn -1.000000 0.000000 0.000000
vn -1.000000 0.000000 0.000000
vn 1.000000 0.000000 0.000000
vn 1.000000 0.000000 0.000000
vn 1.000000 0.000000 0.000000
vn 1.000000 0.000000 0.000000
vn 1.000000 0.000000 0.000000
vn 1.000000 0.000000 0.000000
vn -1.000000 0.000000 0.000000
vn -1.000000 0.000000 0.000000
vn -1.000000 0.000000 0.000000
vn -1.000000 0.000000 0.000000
vn -1.000000 0.000000 0.000000
vn -1.000000 0.000000 0.000000
vn 1.000000 0.000000 0.000000
vn 1.000000 0.000000 0.000000
vn 1.000000 0.000000 0.000000
vn 1.000000 0.000000 0.000000
vn 1.000000 0.000000 0.000000
vn 1.000000 0.000000 0.000000
vn 1.000000 0.000000 0.000000
vn 1.000000 0.000000 0.000000
vn 1.000000 0.000000 0.000000
vn 1.000000 0.000000 0.000000
vn 1.000000 0.000000 0.000000
vn 1.000000 0.000000 0.000000
vn 0.000000 0.000000 -1.000000
vn 0.000000 0.000000 -1.000000
vn 0.000000 0.000000 -1.000000
vn 0.000000 0.000000 -1.000000
vn 0.000000 0.000000 -1.000000
vn 0.000000 0.000000 -1.000000
f 30/1/1 29/2/2 27/3/3
f 30/4/4 27/5/5 25/6/6
f 30/7/7 25/8/8 24/9/9
f 30/10/10 24/11/11 41/12/12
f 31/13/13 28/14/14 27/15/15
f 31/16/16 27/17/17 29/18/18
f 7/19/19 29/20/20 30/21/21
f 7/22/22 30/23/23 3/24/24
f 2/25/25 3/26/26 37/27/27
f 2/28/28 37/29/29 42/30/30
f 3/31/31 30/32/32 34/33/33
f 3/34/34 34/35/35 38/36/36
f 3/37/37 38/38/38 37/39/39
f 36/40/40 35/41/41 16/42/42
f 36/43/43 16/44/44 17/45/45
f 38/46/46 34/47/47 19/48/48
f 38/49/49 19/50/50 16/51/51
f 38/52/52 16/53/53 35/54/54
f 47/55/55 44/56/56 56/57/57
f 44/58/58 45/59/59 55/60/60
f 44/61/61 55/62/62 56/63/63
f 45/64/64 54/65/65 55/66/66
f 45/67/67 46/68/68 53/69/69
f 45/70/70 53/71/71 54/72/72
f 46/73/73 40/74/74 52/75/75
f 46/76/76 52/77/77 53/78/78
f 40/79/79 21/80/80 51/81/81
f 40/82/82 51/83/83 52/84/84
f 21/85/85 50/86/86 57/87/87
f 21/88/88 57/89/89 51/90/90
f 21/91/91 43/92/92 49/93/93
f 21/94/94 49/95/95 50/96/96
f 43/97/97 42/98/98 48/99/99
f 43/100/100 48/101/101 49/102/102
f 42/103/103 44/104/104 47/105/105
f 42/106/106 47/107/107 48/108/108
f 44/109/109 42/110/110 37/111/111
f 44/112/112 37/113/113 38/114/114
f 44/115/115 38/116/116 35/117/117
f 44/118/118 35/119/119 36/120/120
f 44/121/121 36/122/122 1/123/123
f 44/124/124 1/125/125 46/126/126
f 44/127/127 46/128/128 45/129/129
f 17/130/130 20/131/131 23/132/132
f 17/133/133 23/134/134 1/135/135
f 17/136/136 1/137/137 36/138/138
f 12/139/139 22/140/140 33/141/141
f 12/142/142 33/143/143 8/144/144
f 41/145/145 43/146/146 21/147/147
f 41/148/148 21/149/149 40/150/150
f 41/151/151 40/152/152 23/153/153
f 41/154/154 23/155/155 20/156/156
f 41/157/157 20/158/158 19/159/159
f 41/160/160 19/161/161 34/162/162
f 41/163/163 34/164/164 30/165/165
f 31/166/166 32/167/167 33/168/168
f 31/169/169 33/170/170 22/171/171
f 31/172/172 22/173/173 26/174/174
f 31/175/175 26/176/176 28/177/177
f 39/178/178 18/179/179 19/180/180
f 39/181/181 19/182/182 20/183/183
f 17/184/184 16/185/185 14/186/186
f 17/187/187 14/188/188 15/189/189
f 3/190/190 2/191/191 5/192/192
f 3/193/193 5/194/194 4/195/195
f 3/196/196 4/197/197 6/198/198
f 3/199/199 6/200/200 7/201/201
f 10/202/202 7/203/203 6/204/204
f 10/205/205 6/206/206 11/207/207
f 13/208/208 11/209/209 28/210/210
f 13/211/211 28/212/212 26/213/213
f 11/214/214 13/215/215 12/216/216
f 11/217/217 12/218/218 8/219/219
f 11/220/220 8/221/221 9/222/222
f 11/223/223 9/224/224 10/225/225
f 32/226/226 31/227/227 10/228/228
f 32/229/229 10/230/230 9/231/231
f 6/232/232 4/233/233 25/234/234
f 6/235/235 25/236/236 27/237/237
f 2/238/238 41/239/239 24/240/240
f 2/241/241 24/242/242 5/243/243
f 10/244/244 31/245/245 29/246/246
f 10/247/247 29/248/248 7/249/249
f 46/250/250 1/251/251 23/252/252
f 46/253/253 23/254/254 40/255/255
f 9/256/256 8/257/257 33/258/258
f 9/259/259 33/260/260 32/261/261
f 26/262/262 22/263/263 12/264/264
f 26/265/265 12/266/266 13/267/267
f 20/268/268 17/269/269 15/270/270
f 20/271/271 15/272/272 39/273/273
f 14/274/274 16/275/275 19/276/276
f 14/277/277 19/278/278 18/279/279
f 11/280/280 6/281/281 27/282/282
f 11/283/283 27/284/284 28/285/285
f 43/286/286 41/287/287 2/288/288
f 43/289/289 2/290/290 42/291/291
