v 9.691895 0.555555 -0.256226
v -0.389722 -0.909353 0.817390
v -0.427139 -0.940870 -0.595976
v -0.512146 0.294989 0.086245
v 14.135201 0.950009 -5.374246
v 3.402332 3.592107 4.861798
v 3.524756 2.387766 5.592943
v 6.642511 -0.786374 -5.031773
v 7.304121 0.555555 2.302785
v 3.395988 0.425272 1.194515
v 12.754827 -0.219995 -8.163581
v 10.410558 0.643016 -9.090926
v 11.548856 -0.319393 -9.366975
vt 0.501953 0.814453
vt 0.000000 0.501953
vt 0.001953 0.001953
vt 0.501953 0.814453
vt 0.001953 0.001953
vt 0.998047 0.001953
vt 0.001953 0.185547
vt 0.998047 0.185547
vt 0.998047 0.001953
vt 0.001953 0.185547
vt 0.998047 0.001953
vt 0.001953 0.001953
vt 0.001953 0.873047
vt 0.998047 0.998047
vt 0.810547 0.000000
vt 0.001953 0.873047
vt 0.810547 0.000000
vt 0.001953 0.001953
vt 0.998047 0.001953
vt 0.998047 0.998047
vt 0.501953 0.814453
vt 0.998047 0.185547
vt 0.314453 0.189453
vt 0.689453 0.001953
vt 0.998047 0.185547
vt 0.689453 0.001953
vt 0.998047 0.001953
vt 0.626953 0.064453
vt 0.439453 0.064453
vt 0.439453 0.251953
vt 0.998047 0.998047
vt 0.000000 0.998047
vt 0.000000 0.501953
vt 0.998047 0.998047
vt 0.000000 0.501953
vt 0.501953 0.814453
vn 0.040195 0.937379 -0.345984
vn 0.050930 0.902488 -0.427694
vn -0.144317 0.985228 -0.092190
vn 0.040195 0.937379 -0.345984
vn -0.144317 0.985228 -0.092190
vn -0.090070 0.988361 -0.122595
vn -0.824493 0.230053 0.516998
vn -0.955147 0.076572 0.286060
vn -0.955147 0.076572 0.286060
vn -0.824493 0.230053 0.516998
vn -0.955147 0.076572 0.286060
vn -0.824493 0.230053 0.516998
vn -0.090070 0.988361 -0.122595
vn -0.144317 0.985228 -0.092190
vn 0.136594 0.943545 -0.301771
vn -0.090070 0.988361 -0.122595
vn 0.136594 0.943545 -0.301771
vn 0.136594 0.943545 -0.301771
vn -0.090070 0.988361 -0.122595
vn 0.091825 0.898424 -0.429422
vn 0.040195 0.937379 -0.345984
vn 0.136594 0.943545 -0.301771
vn 0.136594 0.943545 -0.301771
vn 0.469492 0.706999 -0.528895
vn 0.136594 0.943545 -0.301771
vn 0.469492 0.706999 -0.528895
vn 0.469492 0.706999 -0.528895
vn -0.955147 0.076572 0.286060
vn -0.996057 -0.084104 0.028245
vn -0.955147 0.076572 0.286060
vn 0.091825 0.898424 -0.429422
vn 0.158145 0.747200 -0.645509
vn 0.050930 0.902488 -0.427694
vn 0.091825 0.898424 -0.429422
vn 0.050930 0.902488 -0.427694
vn 0.040195 0.937379 -0.345984
f 10/1/1 9/2/2 1/3/3
f 10/4/4 1/5/5 8/6/6
f 6/7/7 4/8/8 2/9/9
f 6/10/10 2/11/11 7/12/12
f 8/13/13 1/14/14 5/15/15
f 8/16/16 5/17/17 12/18/18
f 8/19/19 4/20/20 10/21/21
f 12/22/22 5/23/23 11/24/24
f 12/25/25 11/26/26 13/27/27
f 4/28/28 3/29/29 2/30/30
f 4/31/31 6/32/32 9/33/33
f 4/34/34 9/35/35 10/36/36
