v -8.000000 4.000000 4.375000
v -8.000000 4.000000 2.625000
v -8.000000 8.000000 1.750000
v -8.000000 0.000000 -7.000000
v -8.000000 0.000000 7.000000
v -8.000000 8.000000 -7.000000
v 8.000000 0.000000 -8.000000
v 8.000000 1.466438 -8.000000
v -7.000000 8.000000 -8.000000
v -7.000000 0.000000 -8.000000
vt 0.084554 0.003927
vt 1.833053 0.000036
vt 1.513003 0.498083
vt 0.084554 0.003927
vt 1.513003 0.498083
vt 1.299636 0.498083
vt 1.994141 0.172459
vt 1.994141 0.000610
vt 0.091797 0.000610
vt 1.994141 0.172459
vt 0.091797 0.000610
vt 0.091797 0.988892
vt -0.095703 0.000610
vt -0.095703 0.988892
vt 0.091797 0.988892
vt -0.095703 0.000610
vt 0.091797 0.988892
vt 0.091797 0.000610
vt 1.299636 0.498083
vt 1.192953 0.996130
vt 0.084554 1.000021
vt 1.299636 0.498083
vt 0.084554 1.000021
vt 0.084554 0.003927
vn -0.967538 0.000000 -0.252725
vn -1.000000 0.000000 0.000000
vn -1.000000 0.000000 0.000000
vn -0.967538 0.000000 -0.252725
vn -1.000000 0.000000 0.000000
vn -1.000000 0.000000 0.000000
vn 0.000000 0.000000 -1.000000
vn 0.000000 0.000000 -1.000000
vn -0.382683 0.000000 -0.923880
vn 0.000000 0.000000 -1.000000
vn -0.382683 0.000000 -0.923880
vn -0.382683 0.000000 -0.923880
vn -0.967538 0.000000 -0.252725
vn -0.923880 0.000000 -0.382683
vn -0.382683 0.000000 -0.923880
vn -0.967538 0.000000 -0.252725
vn -0.382683 0.000000 -0.923880
vn -0.382683 0.000000 -0.923880
vn -1.000000 0.000000 0.000000
vn -1.000000 0.000000 0.000000
vn -0.923880 0.000000 -0.382683
vn -1.000000 0.000000 0.000000
vn -0.923880 0.000000 -0.382683
vn -0.967538 0.000000 -0.252725
f 4/1/1 5/2/2 1/3/3
f 4/4/4 1/5/5 2/6/6
f 8/7/7 7/8/8 10/9/9
f 8/10/10 10/11/11 9/12/12
f 4/13/13 6/14/14 9/15/15
f 4/16/16 9/17/17 10/18/18
f 2/19/19 3/20/20 6/21/21
f 2/22/22 6/23/23 4/24/24
