v 7.999970 -7.999980 -8.000000
v 7.999970 -7.999980 -15.999999
v 7.999970 -0.999980 -15.999999
v -8.000031 -0.999980 -16.000000
v 7.999970 -0.999980 -8.000000
v -8.000031 -0.999980 -8.000001
v -7.000030 -0.999980 -8.000001
v 6.999970 -0.999980 -8.000000
v -8.000030 -7.124980 -16.000000
v -7.000030 -7.124980 -8.000001
v 6.999970 -7.124980 -8.000000
v -8.000031 -7.124980 -8.000001
v 6.999970 -7.124980 7.000000
v -7.000030 -7.124980 7.000000
v 6.999970 -0.999980 7.000000
v -7.000030 -0.999980 7.000000
v -2.997504 -0.999980 7.000000
v 2.999970 -7.124980 -8.000000
v 2.999970 -7.999980 -8.000000
v 2.999970 -7.999980 -16.000000
v 2.999971 -7.124980 -16.000000
v -8.000031 -7.999980 -8.000001
v -8.000031 -7.999980 -16.000000
v -3.000031 -0.999980 -3.004606
v -2.997504 -0.999980 -8.000000
v -7.000030 -0.999980 -7.018727
v 15.999969 -15.999980 8.000001
v -7.000032 -0.999980 -3.006076
v -2.997504 -0.999980 -7.004682
v -16.000031 -15.999980 -8.000001
v -8.000031 -15.999980 -8.000001
v 7.999970 -15.999980 -8.000000
v 15.999969 -15.999980 -7.999999
v 15.999969 -15.999980 0.000001
v 7.999969 -15.999980 0.000001
v -8.000031 -15.999980 -0.000001
v -16.000031 -15.999980 -0.000001
v 15.999969 -7.999980 -7.999999
v -16.000031 -7.999980 -8.000001
v 7.999969 -7.999980 0.000001
v -8.000031 -7.999980 -0.000001
v 15.999969 -7.999980 0.000001
v -16.000031 -7.999980 -0.000001
v 7.999970 -15.999980 -15.999999
v -8.000031 -15.999980 -16.000000
v 15.999969 -7.999980 8.000001
v 7.999969 -7.999980 8.000001
v -8.000031 -7.999980 8.000000
v -16.000031 -7.999980 7.999999
v -16.000031 -15.999980 7.999999
v -8.000031 -15.999980 8.000000
v 7.999969 -15.999980 8.000001
vt 0.001953 0.126953
vt 0.001953 0.001953
vt 0.998047 0.001953
vt 0.001953 0.126953
vt 0.998047 0.001953
vt 0.998047 0.126953
vt 0.376953 0.001953
vt 0.998047 0.001953
vt 0.998047 0.998047
vt 0.376953 0.001953
vt 0.998047 0.998047
vt -0.998047 0.998047
vt 0.376953 0.001953
vt -0.998047 0.998047
vt -0.998047 0.126953
vt 0.376953 0.001953
vt -0.998047 0.126953
vt 0.376953 0.126953
vt 0.998047 0.998047
vt 0.439453 0.998047
vt -0.998047 0.998047
vt 0.998047 0.998047
vt -0.998047 0.998047
vt -0.998047 0.126953
vt 0.998047 0.998047
vt -0.998047 0.126953
vt 0.998047 0.126953
vt 0.191406 0.996094
vt 0.001953 0.998047
vt 0.001953 0.001953
vt 0.191406 0.996094
vt 0.001953 0.001953
vt 0.195312 0.125000
vt 0.001953 0.134766
vt 0.189453 0.130859
vt 0.189453 0.994141
vt 0.001953 0.134766
vt 0.189453 0.994141
vt 0.001953 0.998047
vt 0.992188 0.125000
vt 0.195312 0.125000
vt 0.001953 0.001953
vt 0.992188 0.125000
vt 0.001953 0.001953
vt 0.992188 0.003906
vt 0.406329 0.333333
vt 0.406329 0.374805
vt 0.281250 0.374220
vt 0.406329 0.333333
vt 0.281250 0.374220
vt 0.281250 0.333333
vt 0.718750 0.958333
vt 0.406329 0.958333
vt 0.406250 0.541475
vt 0.718750 0.958333
vt 0.406250 0.541475
vt 0.406329 0.374805
vt 0.718750 0.958333
vt 0.406329 0.374805
vt 0.406329 0.333333
vt 0.718750 0.958333
vt 0.406329 0.333333
vt 0.718750 0.333333
vt 0.406250 0.541475
vt 0.406329 0.958333
vt 0.281250 0.958333
vt 0.406250 0.541475
vt 0.281250 0.958333
vt 0.281250 0.541413
vt 0.750000 0.333333
vt 0.718750 0.333333
vt 0.406329 0.333333
vt 0.750000 0.333333
vt 0.406329 0.333333
vt 0.281250 0.333333
vt 0.750000 0.333333
vt 0.281250 0.333333
vt 0.250000 0.333333
vt 0.750000 0.333333
vt 0.250000 0.333333
vt 0.250000 0.000000
vt 0.750000 0.333333
vt 0.250000 0.000000
vt 0.750000 0.000000
vt 0.998047 0.998047
vt 0.001953 0.998047
vt 0.001953 0.001953
vt 0.998047 0.998047
vt 0.001953 0.001953
vt 0.998047 0.001953
vt 0.998047 0.998047
vt 0.001953 0.998047
vt 0.001953 0.001953
vt 0.998047 0.998047
vt 0.001953 0.001953
vt 0.998047 0.001953
vt 0.001953 0.126953
vt 0.998047 0.126953
vt 0.998047 0.998047
vt 0.001953 0.126953
vt 0.998047 0.998047
vt 0.001953 0.998047
vt 0.001953 0.126953
vt 0.001953 0.998047
vt 0.138672 0.998047
vt 0.001953 0.126953
vt 0.138672 0.998047
vt 0.666016 0.998047
vt 0.001953 0.126953
vt 0.666016 0.998047
vt 1.998047 0.998047
vt 0.001953 0.126953
vt 1.998047 0.998047
vt 1.998047 0.126953
vt 0.001953 0.998047
vt 0.001953 0.126953
vt 1.998047 0.126953
vt 0.001953 0.998047
vt 1.998047 0.126953
vt 1.998047 0.998047
vt 0.998047 0.001953
vt 0.001953 0.001953
vt 0.001953 0.998047
vt 0.998047 0.001953
vt 0.001953 0.998047
vt 0.998047 0.998047
vt 0.998047 0.001953
vt 0.001953 0.001953
vt 0.001953 0.998047
vt 0.998047 0.001953
vt 0.001953 0.998047
vt 0.998047 0.998047
vt 0.998047 0.001953
vt 0.001953 0.001953
vt 0.001953 1.998047
vt 0.998047 0.001953
vt 0.001953 1.998047
vt 0.998047 1.998047
vt 0.998047 1.998047
vt 0.001953 1.998047
vt 0.001953 0.626953
vt 0.998047 1.998047
vt 0.001953 0.626953
vt 0.001953 0.001953
vt 0.998047 1.998047
vt 0.001953 0.001953
vt 0.998047 0.001953
vt 0.998047 0.998047
vt 0.001953 0.998047
vt 0.001953 0.001953
vt 0.998047 0.998047
vt 0.001953 0.001953
vt 0.998047 0.001953
vt 0.998047 0.998047
vt 0.001953 0.998047
vt 0.001953 0.001953
vt 0.998047 0.998047
vt 0.001953 0.001953
vt 0.998047 0.001953
vt 0.718750 0.333333
vt 0.593750 0.333333
vt 0.281250 0.333333
vt 0.718750 0.333333
vt 0.281250 0.333333
vt 0.281250 0.958333
vt 0.718750 0.333333
vt 0.281250 0.958333
vt 0.718750 0.958333
vt 0.281250 0.333333
vt 0.593750 0.333333
vt 0.593750 0.000000
vt 0.281250 0.333333
vt 0.593750 0.000000
vt 0.250000 0.000000
vt 0.281250 0.333333
vt 0.250000 0.000000
vt 0.250000 0.333333
vt 0.001953 0.998047
vt 0.998047 0.998047
vt 0.998047 0.001953
vt 0.001953 0.998047
vt 0.998047 0.001953
vt 0.001953 0.001953
vt 0.998047 0.001953
vt 0.998047 0.998047
vt 0.001953 0.998047
vt 0.998047 0.001953
vt 0.001953 0.998047
vt 0.001953 0.001953
vt 0.001953 1.998047
vt 0.998047 1.998047
vt 0.998047 0.001953
vt 0.001953 1.998047
vt 0.998047 0.001953
vt 0.001953 0.001953
vt 0.998047 1.998047
vt 0.001953 1.998047
vt 0.001953 0.001953
vt 0.998047 1.998047
vt 0.001953 0.001953
vt 0.998047 0.001953
vt 0.998047 0.998047
vt 0.001953 0.998047
vt 0.001953 0.001953
vt 0.998047 0.998047
vt 0.001953 0.001953
vt 0.998047 0.001953
vt 0.998047 0.998047
vt 0.001953 0.998047
vt 0.001953 0.001953
vt 0.998047 0.998047
vt 0.001953 0.001953
vt 0.998047 0.001953
vt 1.998047 0.998047
vt 1.998047 0.001953
vt 0.001953 0.001953
vt 1.998047 0.998047
vt 0.001953 0.001953
vt 0.001953 0.998047
vt 1.998047 0.998047
vt 0.001953 0.998047
vt 0.626953 0.998047
vt 0.001953 0.998047
vt 0.998047 0.998047
vt 0.998047 0.001953
vt 0.001953 0.998047
vt 0.998047 0.001953
vt 0.001953 0.001953
vt 0.998047 0.998047
vt 0.998047 0.001953
vt 0.001953 0.001953
vt 0.998047 0.998047
vt 0.001953 0.001953
vt 0.001953 0.998047
vt 1.998047 0.998047
vt 1.998047 0.001953
vt 0.001953 0.001953
vt 1.998047 0.998047
vt 0.001953 0.001953
vt 0.001953 0.998047
vt 0.001953 0.998047
vt 0.998047 0.998047
vt 0.998047 0.001953
vt 0.001953 0.998047
vt 0.998047 0.001953
vt 0.001953 0.001953
vt 0.001953 0.998047
vt 0.998047 0.998047
vt 0.998047 0.001953
vt 0.001953 0.998047
vt 0.998047 0.001953
vt 0.001953 0.001953
vt 0.998047 1.998047
vt 0.001953 1.998047
vt 0.001953 0.001953
vt 0.998047 1.998047
vt 0.001953 0.001953
vt 0.998047 0.001953
vt 0.998047 0.998047
vt 0.001953 0.998047
vt 0.001953 0.001953
vt 0.998047 0.998047
vt 0.001953 0.001953
vt 0.998047 0.001953
vt 0.998047 0.998047
vt 0.998047 0.001953
vt 0.001953 0.001953
vt 0.998047 0.998047
vt 0.001953 0.001953
vt 0.001953 0.998047
vn 1.000000 -0.000000 0.000000
vn 1.000000 -0.000000 0.000000
vn 1.000000 -0.000000 0.000000
vn 1.000000 -0.000000 0.000000
vn 1.000000 -0.000000 0.000000
vn 1.000000 -0.000000 0.000000
vn -0.000000 -0.000000 1.000000
vn -0.000000 -0.000000 1.000000
vn -0.000000 -0.000000 1.000000
vn -0.000000 -0.000000 1.000000
vn -0.000000 -0.000000 1.000000
vn -0.000000 -0.000000 1.000000
vn -0.000000 -0.000000 1.000000
vn -0.000000 -0.000000 1.000000
vn -0.000000 -0.000000 1.000000
vn -0.000000 -0.000000 1.000000
vn -0.000000 -0.000000 1.000000
vn -0.000000 -0.000000 1.000000
vn 0.000000 0.000000 -1.000000
vn 0.000000 0.000000 -1.000000
vn 0.000000 0.000000 -1.000000
vn 0.000000 0.000000 -1.000000
vn 0.000000 0.000000 -1.000000
vn 0.000000 0.000000 -1.000000
vn 0.000000 0.000000 -1.000000
vn 0.000000 0.000000 -1.000000
vn 0.000000 0.000000 -1.000000
vn 0.000000 0.000000 -1.000000
vn 0.000000 0.000000 -1.000000
vn 0.000000 0.000000 -1.000000
vn 0.000000 0.000000 -1.000000
vn 0.000000 0.000000 -1.000000
vn 0.000000 0.000000 -1.000000
vn 0.000000 0.000000 -1.000000
vn 0.000000 0.000000 -1.000000
vn 0.000000 0.000000 -1.000000
vn 0.000000 0.000000 -1.000000
vn 0.000000 0.000000 -1.000000
vn 0.000000 0.000000 -1.000000
vn 0.000000 0.000000 -1.000000
vn 0.000000 0.000000 -1.000000
vn 0.000000 0.000000 -1.000000
vn 0.000000 0.000000 -1.000000
vn 0.000000 0.000000 -1.000000
vn 0.000000 0.000000 -1.000000
vn 0.000000 -1.000000 0.000000
vn 0.000000 -1.000000 0.000000
vn 0.000000 -1.000000 0.000000
vn 0.000000 -1.000000 0.000000
vn 0.000000 -1.000000 0.000000
vn 0.000000 -1.000000 0.000000
vn 0.000000 -1.000000 0.000000
vn 0.000000 -1.000000 0.000000
vn 0.000000 -1.000000 0.000000
vn 0.000000 -1.000000 0.000000
vn 0.000000 -1.000000 0.000000
vn 0.000000 -1.000000 0.000000
vn 0.000000 -1.000000 0.000000
vn 0.000000 -1.000000 0.000000
vn 0.000000 -1.000000 0.000000
vn 0.000000 -1.000000 0.000000
vn 0.000000 -1.000000 0.000000
vn 0.000000 -1.000000 0.000000
vn 0.000000 -1.000000 0.000000
vn 0.000000 -1.000000 0.000000
vn 0.000000 -1.000000 0.000000
vn 0.000000 -1.000000 0.000000
vn 0.000000 -1.000000 0.000000
vn 0.000000 -1.000000 0.000000
vn 0.000000 -1.000000 0.000000
vn 0.000000 -1.000000 0.000000
vn 0.000000 -1.000000 0.000000
vn 0.000000 -1.000000 0.000000
vn 0.000000 -1.000000 0.000000
vn 0.000000 -1.000000 0.000000
vn 0.000000 -1.000000 0.000000
vn 0.000000 -1.000000 0.000000
vn 0.000000 -1.000000 0.000000
vn 0.000000 -1.000000 0.000000
vn 0.000000 -1.000000 0.000000
vn 0.000000 -1.000000 0.000000
vn 0.000000 -1.000000 0.000000
vn 0.000000 -1.000000 0.000000
vn 0.000000 -1.000000 0.000000
vn 0.000000 -1.000000 0.000000
vn 0.000000 -1.000000 0.000000
vn 0.000000 -1.000000 0.000000
vn 0.000000 -1.000000 0.000000
vn 0.000000 -1.000000 0.000000
vn 0.000000 -1.000000 0.000000
vn 0.000000 1.000000 0.000000
vn 0.000000 1.000000 0.000000
vn 0.000000 1.000000 0.000000
vn 0.000000 1.000000 0.000000
vn 0.000000 1.000000 0.000000
vn 0.000000 1.000000 0.000000
vn 1.000000 0.000000 0.000000
vn 1.000000 0.000000 0.000000
vn 1.000000 0.000000 0.000000
vn 1.000000 0.000000 0.000000
vn 1.000000 0.000000 0.000000
vn 1.000000 0.000000 0.000000
vn 1.000000 0.000000 0.000000
vn 1.000000 0.000000 0.000000
vn 1.000000 0.000000 0.000000
vn 1.000000 0.000000 0.000000
vn 1.000000 0.000000 0.000000
vn 1.000000 0.000000 0.000000
vn 1.000000 0.000000 0.000000
vn 1.000000 0.000000 0.000000
vn 1.000000 0.000000 0.000000
vn 1.000000 0.000000 0.000000
vn 1.000000 0.000000 0.000000
vn 1.000000 0.000000 0.000000
vn -1.000000 0.000000 0.000000
vn -1.000000 0.000000 0.000000
vn -1.000000 0.000000 0.000000
vn -1.000000 0.000000 0.000000
vn -1.000000 0.000000 0.000000
vn -1.000000 0.000000 0.000000
vn 0.000000 1.000000 0.000000
vn 0.000000 1.000000 0.000000
vn 0.000000 1.000000 0.000000
vn 0.000000 1.000000 0.000000
vn 0.000000 1.000000 0.000000
vn 0.000000 1.000000 0.000000
vn 0.000000 1.000000 0.000000
vn 0.000000 1.000000 0.000000
vn 0.000000 1.000000 0.000000
vn 0.000000 1.000000 0.000000
vn 0.000000 1.000000 0.000000
vn 0.000000 1.000000 0.000000
vn 0.000000 1.000000 0.000000
vn 0.000000 1.000000 0.000000
vn 0.000000 1.000000 0.000000
vn 0.000000 1.000000 0.000000
vn 0.000000 1.000000 0.000000
vn 0.000000 1.000000 0.000000
vn 0.000000 -1.000000 0.000000
vn 0.000000 -1.000000 0.000000
vn 0.000000 -1.000000 0.000000
vn 0.000000 -1.000000 0.000000
vn 0.000000 -1.000000 0.000000
vn 0.000000 -1.000000 0.000000
vn 0.000000 -1.000000 0.000000
vn 0.000000 -1.000000 0.000000
vn 0.000000 -1.000000 0.000000
vn 0.000000 -1.000000 0.000000
vn 0.000000 -1.000000 0.000000
vn 0.000000 -1.000000 0.000000
vn 0.000000 -1.000000 0.000000
vn 0.000000 -1.000000 0.000000
vn 0.000000 -1.000000 0.000000
vn 0.000000 -1.000000 0.000000
vn 0.000000 -1.000000 0.000000
vn 0.000000 -1.000000 0.000000
vn 0.000000 -1.000000 0.000000
vn 0.000000 -1.000000 0.000000
vn 0.000000 -1.000000 0.000000
vn 0.000000 1.000000 0.000000
vn 0.000000 1.000000 0.000000
vn 0.000000 1.000000 0.000000
vn 0.000000 1.000000 0.000000
vn 0.000000 1.000000 0.000000
vn 0.000000 1.000000 0.000000
vn 0.000000 1.000000 0.000000
vn 0.000000 1.000000 0.000000
vn 0.000000 1.000000 0.000000
vn 0.000000 1.000000 0.000000
vn 0.000000 1.000000 0.000000
vn 0.000000 1.000000 0.000000
vn 0.000000 1.000000 0.000000
vn 0.000000 1.000000 0.000000
vn 0.000000 1.000000 0.000000
vn 0.000000 1.000000 0.000000
vn 0.000000 1.000000 0.000000
vn 0.000000 1.000000 0.000000
vn 0.000000 0.000000 1.000000
vn 0.000000 0.000000 1.000000
vn 0.000000 0.000000 1.000000
vn 0.000000 0.000000 1.000000
vn 0.000000 0.000000 1.000000
vn 0.000000 0.000000 1.000000
vn -1.000000 0.000000 0.000000
vn -1.000000 0.000000 0.000000
vn -1.000000 0.000000 0.000000
vn -1.000000 0.000000 0.000000
vn -1.000000 0.000000 0.000000
vn -1.000000 0.000000 0.000000
vn 0.000000 1.000000 0.000000
vn 0.000000 1.000000 0.000000
vn 0.000000 1.000000 0.000000
vn 0.000000 1.000000 0.000000
vn 0.000000 1.000000 0.000000
vn 0.000000 1.000000 0.000000
vn 0.000000 -1.000000 0.000000
vn 0.000000 -1.000000 0.000000
vn 0.000000 -1.000000 0.000000
vn 0.000000 -1.000000 0.000000
vn 0.000000 -1.000000 0.000000
vn 0.000000 -1.000000 0.000000
vn 0.000000 -1.000000 0.000000
vn 0.000000 -1.000000 0.000000
vn 0.000000 -1.000000 0.000000
vn 0.000000 -1.000000 0.000000
vn 0.000000 -1.000000 0.000000
vn 0.000000 -1.000000 0.000000
vn 0.000000 -1.000000 0.000000
vn 0.000000 -1.000000 0.000000
vn 0.000000 -1.000000 0.000000
vn 0.000000 -1.000000 0.000000
vn 0.000000 -1.000000 0.000000
vn 0.000000 -1.000000 0.000000
vn -0.000000 0.000000 1.000000
vn -0.000000 0.000000 1.000000
vn -0.000000 0.000000 1.000000
vn -0.000000 0.000000 1.000000
vn -0.000000 0.000000 1.000000
vn -0.000000 -0.000000 1.000000
vn -0.000000 0.000000 1.000000
vn -0.000000 -0.000000 1.000000
vn -0.000000 -0.000000 1.000000
vn 0.000000 0.000000 -1.000000
vn 0.000000 0.000000 -1.000000
vn 0.000000 0.000000 -1.000000
vn 0.000000 0.000000 -1.000000
vn 0.000000 0.000000 -1.000000
vn 0.000000 0.000000 -1.000000
vn -0.000000 0.000000 1.000000
vn -0.000000 0.000000 1.000000
vn -0.000000 0.000000 1.000000
vn -0.000000 0.000000 1.000000
vn -0.000000 0.000000 1.000000
vn -0.000000 0.000000 1.000000
vn 0.000000 0.000000 -1.000000
vn 0.000000 0.000000 -1.000000
vn 0.000000 0.000000 -1.000000
vn 0.000000 0.000000 -1.000000
vn 0.000000 0.000000 -1.000000
vn 0.000000 0.000000 -1.000000
vn 0.000000 0.000000 -1.000000
vn 0.000000 0.000000 -1.000000
vn 0.000000 0.000000 -1.000000
vn 0.000000 0.000000 -1.000000
vn 0.000000 0.000000 -1.000000
vn 0.000000 0.000000 -1.000000
vn -1.000000 0.000000 0.000000
vn -1.000000 0.000000 0.000000
vn -1.000000 0.000000 0.000000
vn -1.000000 0.000000 0.000000
vn -1.000000 0.000000 0.000000
vn -1.000000 0.000000 0.000000
vn 0.000000 1.000000 0.000000
vn 0.000000 1.000000 0.000000
vn 0.000000 1.000000 0.000000
vn 0.000000 1.000000 0.000000
vn 0.000000 1.000000 0.000000
vn 0.000000 1.000000 0.000000
vn 0.000000 1.000000 0.000000
vn 0.000000 1.000000 0.000000
vn 0.000000 1.000000 0.000000
vn 0.000000 1.000000 0.000000
vn 0.000000 1.000000 0.000000
vn 0.000000 1.000000 0.000000
vn 1.000000 0.000000 0.000000
vn 1.000000 0.000000 0.000000
vn 1.000000 0.000000 0.000000
vn 1.000000 0.000000 0.000000
vn 1.000000 0.000000 0.000000
vn 1.000000 0.000000 0.000000
f 18/1/1 19/2/2 20/3/3
f 18/4/4 20/5/5 21/6/6
f 20/7/7 2/8/8 3/9/9
f 20/10/10 3/11/11 4/12/12
f 20/13/13 4/14/14 9/15/15
f 20/16/16 9/17/17 21/18/18
f 16/19/19 17/20/20 15/21/21
f 16/22/22 15/23/23 13/24/24
f 16/25/25 13/26/26 14/27/27
f 8/28/28 5/29/29 1/30/30
f 8/31/31 1/32/32 11/33/33
f 10/34/34 12/35/35 6/36/36
f 10/37/37 6/38/38 7/39/39
f 18/40/40 11/41/41 1/42/42
f 18/43/43 1/44/44 19/45/45
f 25/46/46 29/47/47 26/48/48
f 25/49/49 26/50/50 7/51/51
f 15/52/52 17/53/53 24/54/54
f 15/55/55 24/56/56 29/57/57
f 15/58/58 29/59/59 25/60/60
f 15/61/61 25/62/62 8/63/63
f 24/64/64 17/65/65 16/66/66
f 24/67/67 16/68/68 28/69/69
f 5/70/70 8/71/71 25/72/72
f 5/73/73 25/74/74 7/75/75
f 5/76/76 7/77/77 6/78/78
f 5/79/79 6/80/80 4/81/81
f 5/82/82 4/83/83 3/84/84
f 19/85/85 22/86/86 23/87/87
f 19/88/88 23/89/89 20/90/90
f 35/91/91 52/92/92 27/93/93
f 35/94/94 27/95/95 34/96/96
f 12/97/97 9/98/98 4/99/99
f 12/100/100 4/101/101 6/102/102
f 10/103/103 7/104/104 26/105/105
f 10/106/106 26/107/107 28/108/108
f 10/109/109 28/110/110 16/111/111
f 10/112/112 16/113/113 14/114/114
f 8/115/115 11/116/116 13/117/117
f 8/118/118 13/119/119 15/120/120
f 34/121/121 33/122/122 32/123/123
f 34/124/124 32/125/125 35/126/126
f 36/127/127 31/128/128 30/129/129
f 36/130/130 30/131/131 37/132/132
f 35/133/133 32/134/134 31/135/135
f 35/136/136 31/137/137 36/138/138
f 41/139/139 22/140/140 19/141/141
f 41/142/142 19/143/143 1/144/144
f 41/145/145 1/146/146 40/147/147
f 40/148/148 1/149/149 38/150/150
f 40/151/151 38/152/152 42/153/153
f 43/154/154 39/155/155 22/156/156
f 43/157/157 22/158/158 41/159/159
f 11/160/160 18/161/161 10/162/162
f 11/163/163 10/164/164 14/165/165
f 11/166/166 14/167/167 13/168/168
f 10/169/169 18/170/170 21/171/171
f 10/172/172 21/173/173 9/174/174
f 10/175/175 9/176/176 12/177/177
f 22/178/178 39/179/179 30/180/180
f 22/181/181 30/182/182 31/183/183
f 1/184/184 5/185/185 3/186/186
f 1/187/187 3/188/188 2/189/189
f 45/190/190 31/191/191 32/192/192
f 45/193/193 32/194/194 44/195/195
f 40/196/196 47/197/197 48/198/198
f 40/199/199 48/200/200 41/201/201
f 42/202/202 46/203/203 47/204/204
f 42/205/205 47/206/206 40/207/207
f 41/208/208 48/209/209 49/210/210
f 41/211/211 49/212/212 43/213/213
f 23/214/214 45/215/215 44/216/216
f 23/217/217 44/218/218 2/219/219
f 23/220/220 2/221/221 20/222/222
f 47/223/223 46/224/224 27/225/225
f 47/226/226 27/227/227 52/228/228
f 1/229/229 32/230/230 33/231/231
f 1/232/232 33/233/233 38/234/234
f 47/235/235 52/236/236 51/237/237
f 47/238/238 51/239/239 48/240/240
f 49/241/241 48/242/242 51/243/243
f 49/244/244 51/245/245 50/246/246
f 1/247/247 2/248/248 44/249/249
f 1/250/250 44/251/251 32/252/252
f 36/253/253 51/254/254 52/255/255
f 36/256/256 52/257/257 35/258/258
f 37/259/259 50/260/260 51/261/261
f 37/262/262 51/263/263 36/264/264
f 22/265/265 31/266/266 45/267/267
f 22/268/268 45/269/269 23/270/270
