v 0.986000 -0.000018 -2.014320
v 0.986000 -0.000018 2.014320
v 0.986000 0.269982 -1.541115
v 0.986000 0.269982 1.541115
v 1.414000 -0.000018 -2.014320
v 1.414000 -0.000018 2.014320
v 1.414000 0.269982 -1.541115
v 1.414000 0.269982 1.541115
vt 0.041016 0.183594
vt 0.962891 0.183594
vt 0.863281 0.257812
vt 0.041016 0.183594
vt 0.863281 0.257812
vt 0.146484 0.257812
vt 0.003906 0.029297
vt 0.003906 0.173828
vt 0.267578 0.175781
vt 0.003906 0.029297
vt 0.267578 0.175781
vt 0.269531 0.029297
vt 0.041016 0.183594
vt 0.962891 0.183594
vt 0.863281 0.257812
vt 0.041016 0.183594
vt 0.863281 0.257812
vt 0.146484 0.257812
vt 0.994141 0.179688
vt 0.994141 0.029297
vt 0.724609 0.029297
vt 0.994141 0.179688
vt 0.724609 0.029297
vt 0.724609 0.177734
vt 0.724609 0.029297
vt 0.269531 0.029297
vt 0.267578 0.175781
vt 0.724609 0.029297
vt 0.267578 0.175781
vt 0.724609 0.177734
vn -1.000000 0.000000 0.000000
vn -1.000000 0.000000 0.000000
vn -1.000000 0.000000 0.000000
vn -1.000000 0.000000 0.000000
vn -1.000000 0.000000 0.000000
vn -1.000000 0.000000 0.000000
vn 0.000000 0.868562 0.495581
vn 0.000000 0.868562 0.495581
vn 0.000000 0.868562 0.495581
vn 0.000000 0.868562 0.495581
vn 0.000000 0.868562 0.495581
vn 0.000000 0.868562 0.495581
vn 1.000000 0.000000 0.000000
vn 1.000000 0.000000 0.000000
vn 1.000000 0.000000 0.000000
vn 1.000000 0.000000 0.000000
vn 1.000000 0.000000 0.000000
vn 1.000000 0.000000 0.000000
vn 0.000000 0.868562 -0.495581
vn 0.000000 0.868562 -0.495581
vn 0.000000 0.868562 -0.495581
vn 0.000000 0.868562 -0.495581
vn 0.000000 0.868562 -0.495581
vn 0.000000 0.868562 -0.495581
vn 0.000000 1.000000 0.000000
vn 0.000000 1.000000 0.000000
vn 0.000000 1.000000 0.000000
vn 0.000000 1.000000 0.000000
vn 0.000000 1.000000 0.000000
vn 0.000000 1.000000 0.000000
f 1/1/1 2/2/2 4/3/3
f 1/4/4 4/5/5 3/6/6
f 2/7/7 6/8/8 8/9/9
f 2/10/10 8/11/11 4/12/12
f 6/13/13 5/14/14 7/15/15
f 6/16/16 7/17/17 8/18/18
f 5/19/19 1/20/20 3/21/21
f 5/22/22 3/23/23 7/24/24
f 3/25/25 4/26/26 8/27/27
f 3/28/28 8/29/29 7/30/30
