v 16.000000 0.000000 -8.000000
v 16.000000 0.000000 16.000000
v -8.000000 0.000000 8.000000
v -8.000000 0.000000 16.000000
v 0.000000 0.000000 16.000000
v 8.000000 0.000000 16.000000
v -8.000000 0.000000 -16.000000
v -8.000000 0.000000 -8.000000
v 0.000000 0.000000 -16.000000
v 0.000000 0.000000 -8.000000
v 8.000000 0.000000 -16.000000
v -48.000000 0.000000 -16.000000
v -40.000000 0.000000 -16.000000
v -32.000000 0.000000 -16.000000
v -24.000000 0.000000 -16.000000
v -16.000000 0.000000 8.000000
v -16.000000 0.000000 16.000000
v -16.000000 0.000000 -16.000000
v -16.000000 0.000000 -8.000000
v 0.000000 0.000000 8.000000
v 8.000000 0.000000 -8.000000
v 8.000000 0.000000 8.000000
v -8.000000 0.000000 0.000000
v -16.000000 0.000000 0.000000
v -48.000000 0.000000 -48.000000
v -48.000000 0.000000 -40.000000
v -40.000000 0.000000 -48.000000
v -40.000000 0.000000 -40.000000
v -32.000000 0.000000 -48.000000
v -32.000000 0.000000 -40.000000
v -24.000000 0.000000 -48.000000
v -24.000000 0.000000 -40.000000
v -48.000000 0.000000 -24.000000
v -40.000000 0.000000 -24.000000
v -32.000000 0.000000 -24.000000
v -16.000000 0.000000 -24.000000
v -16.000000 0.000000 -48.000000
v -16.000000 0.000000 -40.000000
v -24.000000 0.000000 -24.000000
v -16.000000 0.000000 -32.000000
v -24.000000 0.000000 -32.000000
v -48.000000 0.000000 -32.000000
v -40.000000 0.000000 -32.000000
v 0.000000 0.000000 0.000000
v 8.000000 0.000000 0.000000
v 16.000000 0.000000 0.000000
v 16.000000 0.000000 8.000000
v -32.000000 0.000000 -32.000000
v 16.000000 0.000000 -16.000000
v 24.000000 0.000000 -16.000000
v 24.000000 0.000000 -8.000000
v 24.000000 0.000000 0.000000
v 24.000000 0.000000 8.000000
v 24.000000 0.000000 16.000000
v 32.000000 0.000000 -16.000000
v 32.000000 0.000000 -8.000000
v 32.000000 0.000000 8.000000
v 32.000000 0.000000 16.000000
v 40.000000 0.000000 -16.000000
v 40.000000 0.000000 -8.000000
v 40.000000 0.000000 0.000000
v 40.000000 0.000000 8.000000
v 40.000000 0.000000 16.000000
v 48.000000 0.000000 -8.000000
v 48.000000 0.000000 0.000000
v 48.000000 0.000000 8.000000
v 48.000000 0.000000 16.000000
v 24.000000 0.000000 -7.000000
v 24.000000 0.000000 7.000000
v 40.000000 0.000000 -7.000000
v 40.000000 0.000000 7.000000
v 39.000000 0.000000 -8.000000
v 39.000000 0.000000 8.000000
v 25.000000 0.000000 8.000000
v 25.000000 0.000000 -8.000000
v 29.000000 -0.000000 8.000000
v 26.000000 -0.000000 8.000000
v -6.999955 0.000000 -40.000000
v 39.000000 -0.000000 -40.000000
v 0.000000 0.000000 -24.000000
v -8.000000 0.000000 -24.000000
v -8.000000 0.000000 -39.000000
v 39.000191 0.000004 -24.000000
v 40.000000 0.000000 -39.000000
v 40.000000 0.000000 -25.000000
v 24.000000 0.000000 -24.000000
v 32.000000 0.000000 -24.000000
v 40.000000 0.000000 -24.000000
v 48.000000 0.000000 -24.000000
v 48.000000 0.000000 -16.000000
v 24.000000 0.000000 -48.000000
v 24.000000 0.000000 -40.000000
v 32.000000 0.000000 -48.000000
v 32.000000 0.000000 -40.000000
v 40.000000 0.000000 -48.000000
v 40.000000 0.000000 -40.000000
v 48.000000 0.000000 -48.000000
v 48.000000 0.000000 -40.000000
v -8.000000 0.000000 -48.000000
v -8.000000 0.000000 -40.000000
v 0.000000 0.000000 -48.000000
v 0.000000 0.000000 -40.000000
v 8.000000 0.000000 -48.000000
v 8.000000 0.000000 -40.000000
v 16.000000 0.000000 -40.000000
v 16.000000 0.000000 -48.000000
v 16.015999 0.000000 -24.007999
v 8.000000 0.000000 -24.000000
v -8.000000 0.000000 -32.000000
v 40.000000 0.000000 -32.000000
v 48.000000 0.000000 -32.000000
v -7.000000 0.000000 -24.000000
v -8.000000 0.000000 -25.000000
v -24.000000 0.000000 -7.999999
v -24.000000 0.000000 0.000001
v -24.000002 0.000000 8.000001
v -24.000002 0.000000 16.000002
v -31.999998 0.000000 -8.000000
v -32.000000 0.000000 8.000000
v -32.000004 0.000000 16.000000
v -40.000000 0.000000 -8.000001
v -40.000000 0.000000 -0.000001
v -40.000000 0.000000 7.999999
v -40.000004 0.000000 15.999999
v -48.000000 0.000000 -8.000003
v -48.000000 0.000000 -0.000002
v -48.000000 0.000000 7.999998
v -48.000000 0.000000 15.999997
v -24.000000 0.000000 -6.999999
v -24.000000 0.000000 7.000001
v -40.000000 0.000000 -7.000001
v -40.000000 0.000000 6.999999
v -39.000000 0.000000 -8.000001
v -39.000000 0.000000 7.999999
v -25.000002 0.000000 8.000001
v -24.999998 0.000000 -7.999999
v -29.000002 -0.000000 8.000000
v -26.000002 -0.000000 8.000001
vt 0.166667 0.250000
vt 0.250000 0.250000
vt 0.250000 0.125000
vt 0.166667 0.250000
vt 0.250000 0.125000
vt 0.166667 0.125000
vt 0.166667 0.250000
vt 0.083333 0.250000
vt 0.083333 0.375000
vt 0.166667 0.250000
vt 0.083333 0.375000
vt 0.166667 0.375000
vt 0.166667 0.125000
vt 0.083333 0.125000
vt 0.083333 0.250000
vt 0.166667 0.125000
vt 0.083333 0.250000
vt 0.166667 0.250000
vt 0.166667 0.375000
vt 0.166667 0.500000
vt 0.250000 0.500000
vt 0.166667 0.375000
vt 0.250000 0.500000
vt 0.250000 0.375000
vt 0.166667 0.375000
vt 0.250000 0.375000
vt 0.250000 0.250000
vt 0.166667 0.375000
vt 0.250000 0.250000
vt 0.166667 0.250000
vt 0.000000 0.000000
vt 0.000000 0.125000
vt 0.083333 0.125000
vt 0.000000 0.000000
vt 0.083333 0.125000
vt 0.083333 0.000000
vt 0.666667 0.500000
vt 0.750000 0.500000
vt 0.750000 0.375000
vt 0.666667 0.500000
vt 0.750000 0.375000
vt 0.666833 0.374875
vt 0.083333 0.375000
vt 0.083333 0.500000
vt 0.166667 0.500000
vt 0.083333 0.375000
vt 0.166667 0.500000
vt 0.166667 0.375000
vt 0.083333 0.000000
vt 0.083333 0.125000
vt 0.166667 0.125000
vt 0.083333 0.000000
vt 0.166667 0.125000
vt 0.166667 0.000000
vt 0.666667 0.750000
vt 0.583333 0.750000
vt 0.583333 0.875000
vt 0.666667 0.750000
vt 0.583333 0.875000
vt 0.666667 0.875000
vt 0.666667 0.875000
vt 0.583333 0.875000
vt 0.583333 1.000000
vt 0.666667 0.875000
vt 0.583333 1.000000
vt 0.666667 1.000000
vt 0.000000 0.250000
vt 0.000000 0.375000
vt 0.083333 0.375000
vt 0.000000 0.250000
vt 0.083333 0.375000
vt 0.083333 0.250000
vt 0.583333 0.750000
vt 0.583333 0.625000
vt 0.500000 0.625000
vt 0.583333 0.750000
vt 0.500000 0.625000
vt 0.500000 0.750000
vt 0.500000 0.750000
vt 0.500000 0.625000
vt 0.416667 0.625000
vt 0.500000 0.750000
vt 0.416667 0.625000
vt 0.416667 0.750000
vt 0.333333 0.750000
vt 0.333333 0.875000
vt 0.416667 0.875000
vt 0.333333 0.750000
vt 0.416667 0.875000
vt 0.416667 0.750000
vt 0.666667 0.625000
vt 0.583333 0.625000
vt 0.583333 0.750000
vt 0.666667 0.625000
vt 0.583333 0.750000
vt 0.666667 0.750000
vt 0.500000 0.750000
vt 0.500000 0.875000
vt 0.583333 0.875000
vt 0.500000 0.750000
vt 0.583333 0.875000
vt 0.583333 0.750000
vt 0.416667 0.750000
vt 0.416667 0.875000
vt 0.500000 0.875000
vt 0.416667 0.750000
vt 0.500000 0.875000
vt 0.500000 0.750000
vt 0.416667 0.750000
vt 0.416667 0.625000
vt 0.333333 0.625000
vt 0.416667 0.750000
vt 0.333333 0.625000
vt 0.333333 0.750000
vt 0.416667 0.875000
vt 0.416667 1.000000
vt 0.500000 1.000000
vt 0.416667 0.875000
vt 0.500000 1.000000
vt 0.500000 0.875000
vt 0.166667 0.000000
vt 0.166667 0.125000
vt 0.250000 0.125000
vt 0.166667 0.000000
vt 0.250000 0.125000
vt 0.250000 0.000000
vt 0.083333 0.250000
vt 0.083333 0.125000
vt 0.000000 0.125000
vt 0.083333 0.250000
vt 0.000000 0.125000
vt 0.000000 0.250000
vt 0.500000 0.875000
vt 0.500000 1.000000
vt 0.583333 1.000000
vt 0.500000 0.875000
vt 0.583333 1.000000
vt 0.583333 0.875000
vt 0.333333 0.875000
vt 0.333333 1.000000
vt 0.416667 1.000000
vt 0.333333 0.875000
vt 0.416667 1.000000
vt 0.416667 0.875000
vt 0.250000 0.250000
vt 0.250000 0.375000
vt 0.333333 0.375000
vt 0.250000 0.250000
vt 0.333333 0.375000
vt 0.333333 0.250000
vt 0.250000 0.000000
vt 0.250000 0.125000
vt 0.333333 0.125000
vt 0.250000 0.000000
vt 0.333333 0.125000
vt 0.333333 0.000000
vt 0.250000 0.375000
vt 0.250000 0.500000
vt 0.333333 0.500000
vt 0.250000 0.375000
vt 0.333333 0.500000
vt 0.333333 0.375000
vt 0.000000 0.375000
vt 0.000000 0.500000
vt 0.083333 0.500000
vt 0.000000 0.375000
vt 0.083333 0.500000
vt 0.083333 0.375000
vt 0.416667 0.500000
vt 0.416667 0.625000
vt 0.500000 0.625000
vt 0.416667 0.500000
vt 0.500000 0.625000
vt 0.500000 0.500000
vt 0.333333 0.250000
vt 0.333333 0.125000
vt 0.250000 0.125000
vt 0.333333 0.250000
vt 0.250000 0.125000
vt 0.250000 0.250000
vt 0.333333 0.500000
vt 0.333333 0.625000
vt 0.416667 0.625000
vt 0.333333 0.500000
vt 0.416667 0.625000
vt 0.416667 0.500000
vt 0.500000 0.500000
vt 0.500000 0.625000
vt 0.583333 0.625000
vt 0.500000 0.500000
vt 0.583333 0.625000
vt 0.583333 0.500000
vt 0.916667 0.875000
vt 0.916667 1.000000
vt 1.000000 1.000000
vt 0.916667 0.875000
vt 1.000000 1.000000
vt 1.000000 0.875000
vt 0.906250 0.625000
vt 0.916667 0.625000
vt 0.916667 0.500000
vt 0.906250 0.625000
vt 0.916667 0.500000
vt 0.833333 0.500000
vt 0.906250 0.625000
vt 0.833333 0.500000
vt 0.833333 0.625000
vt 0.916667 0.859375
vt 0.916667 0.875000
vt 1.000000 0.875000
vt 0.916667 0.859375
vt 1.000000 0.875000
vt 1.000000 0.750000
vt 0.916667 0.859375
vt 1.000000 0.750000
vt 0.916667 0.750000
vt 0.093750 0.875000
vt 0.083333 0.875000
vt 0.083333 1.000000
vt 0.093750 0.875000
vt 0.083333 1.000000
vt 0.166667 1.000000
vt 0.093750 0.875000
vt 0.166667 1.000000
vt 0.166667 0.875000
vt 0.916667 0.859375
vt 0.906250 0.875000
vt 0.916667 0.875000
vt 0.666667 0.500000
vt 0.666667 0.625000
vt 0.750000 0.625000
vt 0.666667 0.500000
vt 0.750000 0.625000
vt 0.750000 0.500000
vt 0.750000 0.875000
vt 0.750000 0.859375
vt 0.750000 0.750000
vt 0.750000 0.875000
vt 0.750000 0.750000
vt 0.666667 0.750000
vt 0.750000 0.875000
vt 0.666667 0.750000
vt 0.666667 0.875000
vt 0.750000 0.750000
vt 0.750000 0.640625
vt 0.750000 0.625000
vt 0.750000 0.750000
vt 0.750000 0.625000
vt 0.666667 0.625000
vt 0.750000 0.750000
vt 0.666667 0.625000
vt 0.666667 0.750000
vt 0.916667 0.640625
vt 0.916667 0.625000
vt 0.906250 0.625000
vt 0.760417 0.875000
vt 0.750000 0.859375
vt 0.750000 0.875000
vt 0.666667 0.875000
vt 0.666667 1.000000
vt 0.750000 1.000000
vt 0.666667 0.875000
vt 0.750000 1.000000
vt 0.750000 0.875000
vt 0.760417 0.625000
vt 0.750000 0.625000
vt 0.750000 0.640625
vt 0.916667 0.625000
vt 0.916667 0.640625
vt 0.916667 0.750000
vt 0.916667 0.625000
vt 0.916667 0.750000
vt 1.000000 0.750000
vt 0.916667 0.625000
vt 1.000000 0.750000
vt 1.000000 0.625000
vt 0.760417 0.875000
vt 0.750000 0.875000
vt 0.750000 1.000000
vt 0.760417 0.875000
vt 0.750000 1.000000
vt 0.833333 1.000000
vt 0.760417 0.875000
vt 0.833333 1.000000
vt 0.833333 0.875000
vt 0.760417 0.875000
vt 0.833333 0.875000
vt 0.802083 0.875000
vt 0.760417 0.875000
vt 0.802083 0.875000
vt 0.770833 0.875000
vt 0.750000 0.625000
vt 0.760417 0.625000
vt 0.833333 0.625000
vt 0.750000 0.625000
vt 0.833333 0.625000
vt 0.833333 0.500000
vt 0.750000 0.625000
vt 0.833333 0.500000
vt 0.750000 0.500000
vt 0.833333 0.875000
vt 0.833333 1.000000
vt 0.916667 1.000000
vt 0.833333 0.875000
vt 0.916667 1.000000
vt 0.916667 0.875000
vt 0.833333 0.875000
vt 0.916667 0.875000
vt 0.906250 0.875000
vt 0.906250 0.125000
vt 0.916667 0.140625
vt 0.916667 0.125000
vt 0.906252 0.375000
vt 0.916667 0.375000
vt 0.916667 0.359375
vt 0.416667 0.140625
vt 0.427084 0.125000
vt 0.416667 0.125000
vt 0.416667 0.125000
vt 0.333333 0.125000
vt 0.333333 0.250000
vt 0.416667 0.125000
vt 0.333333 0.250000
vt 0.416667 0.250000
vt 0.416667 0.125000
vt 0.416667 0.250000
vt 0.416667 0.140625
vt 0.416667 0.375000
vt 0.427083 0.375000
vt 0.416667 0.359375
vt 0.916667 0.125000
vt 0.916667 0.000000
vt 0.833333 0.000000
vt 0.916667 0.125000
vt 0.833333 0.000000
vt 0.833333 0.125000
vt 0.916667 0.125000
vt 0.833333 0.125000
vt 0.906250 0.125000
vt 0.416667 0.359375
vt 0.416667 0.250000
vt 0.333333 0.250000
vt 0.416667 0.359375
vt 0.333333 0.250000
vt 0.333333 0.375000
vt 0.416667 0.359375
vt 0.333333 0.375000
vt 0.416667 0.375000
vt 0.500000 0.000000
vt 0.500000 0.125000
vt 0.583333 0.125000
vt 0.500000 0.000000
vt 0.583333 0.125000
vt 0.583333 0.000000
vt 0.750000 0.500000
vt 0.833333 0.500000
vt 0.833333 0.375000
vt 0.750000 0.500000
vt 0.833333 0.375000
vt 0.750000 0.375000
vt 0.916667 0.250000
vt 0.916667 0.359375
vt 0.916667 0.375000
vt 0.916667 0.250000
vt 0.916667 0.375000
vt 1.000000 0.375000
vt 0.916667 0.250000
vt 1.000000 0.375000
vt 1.000000 0.250000
vt 0.666667 0.000000
vt 0.583333 0.000000
vt 0.583333 0.125000
vt 0.666667 0.000000
vt 0.583333 0.125000
vt 0.666667 0.125000
vt 0.916667 0.000000
vt 0.916667 0.125000
vt 1.000000 0.125000
vt 0.916667 0.000000
vt 1.000000 0.125000
vt 1.000000 0.000000
vt 0.333333 0.000000
vt 0.333333 0.125000
vt 0.416667 0.125000
vt 0.333333 0.000000
vt 0.416667 0.125000
vt 0.416667 0.000000
vt 0.916667 0.250000
vt 1.000000 0.250000
vt 1.000000 0.125000
vt 0.916667 0.250000
vt 1.000000 0.125000
vt 0.916667 0.125000
vt 0.916667 0.250000
vt 0.916667 0.125000
vt 0.916667 0.140625
vt 0.666667 0.125000
vt 0.750000 0.125000
vt 0.750000 0.000000
vt 0.666667 0.125000
vt 0.750000 0.000000
vt 0.666667 0.000000
vt 0.427084 0.125000
vt 0.500000 0.125000
vt 0.500000 0.000000
vt 0.427084 0.125000
vt 0.500000 0.000000
vt 0.416667 0.000000
vt 0.427084 0.125000
vt 0.416667 0.000000
vt 0.416667 0.125000
vt 0.916667 0.500000
vt 0.916667 0.625000
vt 1.000000 0.625000
vt 0.916667 0.500000
vt 1.000000 0.625000
vt 1.000000 0.500000
vt 0.906252 0.375000
vt 0.833333 0.375000
vt 0.833333 0.500000
vt 0.906252 0.375000
vt 0.833333 0.500000
vt 0.916667 0.500000
vt 0.906252 0.375000
vt 0.916667 0.500000
vt 0.916667 0.375000
vt 0.583333 0.500000
vt 0.583333 0.625000
vt 0.666667 0.625000
vt 0.583333 0.500000
vt 0.666667 0.625000
vt 0.666667 0.500000
vt 0.916667 0.500000
vt 1.000000 0.500000
vt 1.000000 0.375000
vt 0.916667 0.500000
vt 1.000000 0.375000
vt 0.916667 0.375000
vt 0.333333 0.375000
vt 0.333333 0.500000
vt 0.416667 0.500000
vt 0.333333 0.375000
vt 0.416667 0.500000
vt 0.416667 0.375000
vt 0.500000 0.375000
vt 0.500000 0.500000
vt 0.583333 0.500000
vt 0.500000 0.375000
vt 0.583333 0.500000
vt 0.583333 0.375000
vt 0.416667 0.375000
vt 0.416667 0.500000
vt 0.500000 0.500000
vt 0.416667 0.375000
vt 0.500000 0.500000
vt 0.500000 0.375000
vt 0.416667 0.375000
vt 0.500000 0.375000
vt 0.427083 0.375000
vt 0.750000 0.000000
vt 0.750000 0.125000
vt 0.833333 0.125000
vt 0.750000 0.000000
vt 0.833333 0.125000
vt 0.833333 0.000000
vt 0.000000 0.875000
vt 0.000000 1.000000
vt 0.083333 1.000000
vt 0.000000 0.875000
vt 0.083333 1.000000
vt 0.083333 0.875000
vt 0.166667 0.625000
vt 0.166667 0.500000
vt 0.083333 0.500000
vt 0.166667 0.625000
vt 0.083333 0.500000
vt 0.083333 0.625000
vt 0.166667 0.625000
vt 0.083333 0.625000
vt 0.093750 0.625000
vt 0.083333 0.750000
vt 0.000000 0.750000
vt 0.000000 0.875000
vt 0.083333 0.750000
vt 0.000000 0.875000
vt 0.083333 0.875000
vt 0.083333 0.750000
vt 0.083333 0.875000
vt 0.083333 0.859375
vt 0.000000 0.500000
vt 0.000000 0.625000
vt 0.083333 0.625000
vt 0.000000 0.500000
vt 0.083333 0.625000
vt 0.083333 0.500000
vt 0.083333 0.875000
vt 0.093750 0.875000
vt 0.083333 0.859375
vt 0.250000 0.500000
vt 0.250000 0.625000
vt 0.333333 0.625000
vt 0.250000 0.500000
vt 0.333333 0.625000
vt 0.333333 0.500000
vt 0.333333 0.875000
vt 0.333333 0.750000
vt 0.250000 0.750000
vt 0.333333 0.875000
vt 0.250000 0.750000
vt 0.250000 0.859375
vt 0.333333 0.875000
vt 0.250000 0.859375
vt 0.250000 0.875000
vt 0.333333 0.750000
vt 0.333333 0.625000
vt 0.250000 0.625000
vt 0.333333 0.750000
vt 0.250000 0.625000
vt 0.250000 0.640625
vt 0.333333 0.750000
vt 0.250000 0.640625
vt 0.250000 0.750000
vt 0.093750 0.625000
vt 0.083333 0.625000
vt 0.083333 0.640625
vt 0.250000 0.875000
vt 0.250000 0.859375
vt 0.239583 0.875000
vt 0.250000 0.875000
vt 0.250000 1.000000
vt 0.333333 1.000000
vt 0.250000 0.875000
vt 0.333333 1.000000
vt 0.333333 0.875000
vt 0.250000 0.640625
vt 0.250000 0.625000
vt 0.239583 0.625000
vt 0.000000 0.625000
vt 0.000000 0.750000
vt 0.083333 0.750000
vt 0.000000 0.625000
vt 0.083333 0.750000
vt 0.083333 0.640625
vt 0.000000 0.625000
vt 0.083333 0.640625
vt 0.083333 0.625000
vt 0.229167 0.875000
vt 0.197917 0.875000
vt 0.166667 0.875000
vt 0.229167 0.875000
vt 0.166667 0.875000
vt 0.166667 1.000000
vt 0.229167 0.875000
vt 0.166667 1.000000
vt 0.250000 1.000000
vt 0.229167 0.875000
vt 0.250000 1.000000
vt 0.250000 0.875000
vt 0.229167 0.875000
vt 0.250000 0.875000
vt 0.239583 0.875000
vt 0.250000 0.500000
vt 0.166667 0.500000
vt 0.166667 0.625000
vt 0.250000 0.500000
vt 0.166667 0.625000
vt 0.239583 0.625000
vt 0.250000 0.500000
vt 0.239583 0.625000
vt 0.250000 0.625000
vt 0.583333 0.500000
vt 0.666667 0.500000
vt 0.666833 0.374875
vt 0.583333 0.500000
vt 0.666833 0.374875
vt 0.583333 0.375000
vn 0.000000 1.000000 0.000000
vn 0.000000 1.000000 0.000000
vn 0.000000 1.000000 0.000000
vn 0.000000 1.000000 0.000000
vn 0.000000 1.000000 0.000000
vn 0.000000 1.000000 0.000000
vn 0.000000 1.000000 0.000000
vn 0.000000 1.000000 0.000000
vn 0.000000 1.000000 0.000000
vn 0.000000 1.000000 0.000000
vn 0.000000 1.000000 0.000000
vn 0.000000 1.000000 0.000000
vn 0.000000 1.000000 0.000000
vn 0.000000 1.000000 0.000000
vn 0.000000 1.000000 0.000000
vn 0.000000 1.000000 0.000000
vn 0.000000 1.000000 0.000000
vn 0.000000 1.000000 0.000000
vn 0.000000 1.000000 0.000000
vn 0.000000 1.000000 0.000000
vn 0.000000 1.000000 0.000000
vn 0.000000 1.000000 0.000000
vn 0.000000 1.000000 0.000000
vn 0.000000 1.000000 0.000000
vn 0.000000 1.000000 0.000000
vn 0.000000 1.000000 0.000000
vn 0.000000 1.000000 0.000000
vn 0.000000 1.000000 0.000000
vn 0.000000 1.000000 0.000000
vn 0.000000 1.000000 0.000000
vn 0.000000 1.000000 0.000000
vn 0.000000 1.000000 0.000000
vn 0.000000 1.000000 0.000000
vn 0.000000 1.000000 0.000000
vn 0.000000 1.000000 0.000000
vn 0.000000 1.000000 0.000000
vn 0.000000 1.000000 0.000000
vn 0.000000 1.000000 0.000000
vn 0.000000 1.000000 0.000000
vn 0.000000 1.000000 0.000000
vn 0.000000 1.000000 0.000000
vn 0.000000 1.000000 0.000000
vn 0.000000 1.000000 0.000000
vn 0.000000 1.000000 0.000000
vn 0.000000 1.000000 0.000000
vn 0.000000 1.000000 0.000000
vn 0.000000 1.000000 0.000000
vn 0.000000 1.000000 0.000000
vn 0.000000 1.000000 0.000000
vn 0.000000 1.000000 0.000000
vn 0.000000 1.000000 0.000000
vn 0.000000 1.000000 0.000000
vn 0.000000 1.000000 0.000000
vn 0.000000 1.000000 0.000000
vn 0.000000 1.000000 0.000000
vn 0.000000 1.000000 0.000000
vn 0.000000 1.000000 0.000000
vn 0.000000 1.000000 0.000000
vn 0.000000 1.000000 0.000000
vn 0.000000 1.000000 0.000000
vn 0.000000 1.000000 0.000000
vn 0.000000 1.000000 0.000000
vn 0.000000 1.000000 0.000000
vn 0.000000 1.000000 0.000000
vn 0.000000 1.000000 0.000000
vn 0.000000 1.000000 0.000000
vn 0.000000 1.000000 0.000000
vn 0.000000 1.000000 0.000000
vn 0.000000 1.000000 0.000000
vn 0.000000 1.000000 0.000000
vn 0.000000 1.000000 0.000000
vn 0.000000 1.000000 0.000000
vn 0.000000 1.000000 0.000000
vn 0.000000 1.000000 0.000000
vn 0.000000 1.000000 0.000000
vn 0.000000 1.000000 0.000000
vn 0.000000 1.000000 0.000000
vn 0.000000 1.000000 0.000000
vn 0.000000 1.000000 0.000000
vn 0.000000 1.000000 0.000000
vn 0.000000 1.000000 0.000000
vn 0.000000 1.000000 0.000000
vn 0.000000 1.000000 0.000000
vn 0.000000 1.000000 0.000000
vn 0.000000 1.000000 0.000000
vn 0.000000 1.000000 0.000000
vn 0.000000 1.000000 0.000000
vn 0.000000 1.000000 0.000000
vn 0.000000 1.000000 0.000000
vn 0.000000 1.000000 0.000000
vn 0.000000 1.000000 0.000000
vn 0.000000 1.000000 0.000000
vn 0.000000 1.000000 0.000000
vn 0.000000 1.000000 0.000000
vn 0.000000 1.000000 0.000000
vn 0.000000 1.000000 0.000000
vn 0.000000 1.000000 0.000000
vn 0.000000 1.000000 0.000000
vn 0.000000 1.000000 0.000000
vn 0.000000 1.000000 0.000000
vn 0.000000 1.000000 0.000000
vn 0.000000 1.000000 0.000000
vn 0.000000 1.000000 0.000000
vn 0.000000 1.000000 0.000000
vn 0.000000 1.000000 0.000000
vn 0.000000 1.000000 0.000000
vn 0.000000 1.000000 0.000000
vn 0.000000 1.000000 0.000000
vn 0.000000 1.000000 0.000000
vn 0.000000 1.000000 0.000000
vn 0.000000 1.000000 0.000000
vn 0.000000 1.000000 0.000000
vn 0.000000 1.000000 0.000000
vn 0.000000 1.000000 0.000000
vn 0.000000 1.000000 0.000000
vn 0.000000 1.000000 0.000000
vn 0.000000 1.000000 0.000000
vn 0.000000 1.000000 0.000000
vn 0.000000 1.000000 0.000000
vn 0.000000 1.000000 0.000000
vn 0.000000 1.000000 0.000000
vn 0.000000 1.000000 0.000000
vn 0.000000 1.000000 0.000000
vn 0.000000 1.000000 0.000000
vn 0.000000 1.000000 0.000000
vn 0.000000 1.000000 0.000000
vn 0.000000 1.000000 0.000000
vn 0.000000 1.000000 0.000000
vn 0.000000 1.000000 0.000000
vn 0.000000 1.000000 0.000000
vn 0.000000 1.000000 0.000000
vn 0.000000 1.000000 0.000000
vn 0.000000 1.000000 0.000000
vn 0.000000 1.000000 0.000000
vn 0.000000 1.000000 0.000000
vn 0.000000 1.000000 0.000000
vn 0.000000 1.000000 0.000000
vn 0.000000 1.000000 0.000000
vn 0.000000 1.000000 0.000000
vn 0.000000 1.000000 0.000000
vn 0.000000 1.000000 0.000000
vn 0.000000 1.000000 0.000000
vn 0.000000 1.000000 0.000000
vn 0.000000 1.000000 0.000000
vn 0.000000 1.000000 0.000000
vn 0.000000 1.000000 0.000000
vn 0.000000 1.000000 0.000000
vn 0.000000 1.000000 0.000000
vn 0.000000 1.000000 0.000000
vn 0.000000 1.000000 0.000000
vn 0.000000 1.000000 0.000000
vn 0.000000 1.000000 0.000000
vn 0.000000 1.000000 0.000000
vn 0.000000 1.000000 0.000000
vn 0.000000 1.000000 0.000000
vn 0.000000 1.000000 0.000000
vn 0.000000 1.000000 0.000000
vn 0.000000 1.000000 0.000000
vn 0.000000 1.000000 0.000000
vn 0.000000 1.000000 0.000000
vn 0.000000 1.000000 0.000000
vn 0.000000 1.000000 0.000000
vn 0.000000 1.000000 0.000000
vn 0.000000 1.000000 0.000000
vn 0.000000 1.000000 0.000000
vn 0.000000 1.000000 0.000000
vn 0.000000 1.000000 0.000000
vn 0.000000 1.000000 0.000000
vn 0.000000 1.000000 0.000000
vn 0.000000 1.000000 0.000000
vn 0.000000 1.000000 0.000000
vn 0.000000 1.000000 0.000000
vn 0.000000 1.000000 0.000000
vn 0.000000 1.000000 0.000000
vn 0.000000 1.000000 0.000000
vn 0.000000 1.000000 0.000000
vn 0.000000 1.000000 0.000000
vn 0.000000 1.000000 0.000000
vn 0.000000 1.000000 0.000000
vn 0.000000 1.000000 0.000000
vn 0.000000 1.000000 0.000000
vn 0.000000 1.000000 0.000000
vn 0.000000 1.000000 0.000000
vn 0.000000 1.000000 0.000000
vn 0.000000 1.000000 0.000000
vn 0.000000 1.000000 0.000000
vn 0.000000 1.000000 0.000000
vn 0.000000 1.000000 0.000000
vn 0.000000 1.000000 0.000000
vn 0.000000 1.000000 0.000000
vn 0.000000 1.000000 0.000000
vn 0.000000 1.000000 0.000000
vn 0.000000 1.000000 0.000000
vn 0.000000 1.000000 0.000000
vn 0.000000 1.000000 0.000000
vn 0.000000 1.000000 0.000000
vn 0.000000 1.000000 0.000000
vn 0.000000 1.000000 0.000000
vn 0.000000 1.000000 0.000000
vn 0.000000 1.000000 0.000000
vn 0.000000 1.000000 0.000000
vn 0.000000 1.000000 0.000000
vn 0.000000 1.000000 0.000000
vn 0.000000 1.000000 0.000000
vn 0.000000 1.000000 0.000000
vn 0.000000 1.000000 0.000000
vn 0.000000 1.000000 0.000000
vn 0.000000 1.000000 0.000000
vn 0.000000 1.000000 0.000000
vn 0.000000 1.000000 0.000000
vn 0.000000 1.000000 0.000000
vn 0.000000 1.000000 0.000000
vn 0.000000 1.000000 0.000000
vn 0.000000 1.000000 0.000000
vn 0.000000 1.000000 0.000000
vn 0.000000 1.000000 0.000000
vn -0.000001 1.000000 0.000000
vn -0.000001 1.000000 0.000000
vn 0.000001 1.000000 0.000000
vn -0.000001 1.000000 0.000000
vn 0.000001 1.000000 0.000000
vn 0.000001 1.000000 0.000000
vn -0.000001 1.000000 0.000000
vn 0.000001 1.000000 0.000000
vn -0.000001 1.000000 0.000000
vn 0.000000 1.000000 0.000000
vn 0.000000 1.000000 0.000000
vn 0.000000 1.000000 0.000000
vn 0.000000 1.000000 0.000000
vn 0.000000 1.000000 0.000000
vn 0.000000 1.000000 0.000000
vn 0.000000 1.000000 0.000000
vn 0.000000 1.000000 0.000000
vn 0.000000 1.000000 0.000000
vn 0.000000 1.000000 0.000000
vn 0.000000 1.000000 0.000000
vn 0.000000 1.000000 0.000000
vn 0.000000 1.000000 0.000000
vn 0.000000 1.000000 0.000000
vn 0.000000 1.000000 0.000000
vn 0.000000 1.000000 0.000000
vn 0.000000 1.000000 0.000000
vn 0.000000 1.000000 0.000000
vn 0.000000 1.000000 0.000000
vn 0.000000 1.000000 0.000000
vn 0.000000 1.000000 0.000000
vn 0.000000 1.000000 0.000000
vn 0.000000 1.000000 0.000000
vn 0.000000 1.000000 0.000000
vn 0.000000 1.000000 0.000000
vn 0.000000 1.000000 0.000000
vn 0.000000 1.000000 0.000000
vn 0.000000 1.000000 0.000000
vn 0.000000 1.000000 0.000000
vn 0.000000 1.000000 0.000000
vn 0.000000 1.000000 0.000000
vn 0.000000 1.000000 0.000000
vn 0.000000 1.000000 0.000000
vn 0.000000 1.000000 0.000000
vn 0.000000 1.000000 0.000000
vn 0.000000 1.000000 0.000000
vn 0.000000 1.000000 0.000000
vn 0.000000 1.000000 0.000000
vn 0.000000 1.000000 0.000000
vn 0.000000 1.000000 0.000000
vn 0.000000 1.000000 0.000000
vn 0.000000 1.000000 0.000000
vn 0.000000 1.000000 0.000000
vn 0.000000 1.000000 0.000000
vn 0.000000 1.000000 0.000000
vn 0.000000 1.000000 0.000000
vn 0.000000 1.000000 0.000000
vn 0.000000 1.000000 0.000000
vn 0.000000 1.000000 0.000000
vn 0.000000 1.000000 0.000000
vn 0.000000 1.000000 0.000000
vn 0.000000 1.000000 0.000000
vn 0.000000 1.000000 0.000000
vn 0.000000 1.000000 0.000000
vn 0.000000 1.000000 0.000000
vn 0.000000 1.000000 0.000000
vn 0.000000 1.000000 0.000000
vn 0.000000 1.000000 0.000000
vn 0.000000 1.000000 0.000000
vn 0.000000 1.000000 0.000000
vn 0.000000 1.000000 0.000000
vn 0.000000 1.000000 0.000000
vn 0.000000 1.000000 0.000000
vn 0.000000 1.000000 0.000000
vn 0.000000 1.000000 0.000000
vn 0.000000 1.000000 0.000000
vn 0.000000 1.000000 0.000000
vn 0.000000 1.000000 0.000000
vn 0.000000 1.000000 0.000000
vn 0.000000 1.000000 0.000000
vn 0.000000 1.000000 0.000000
vn 0.000000 1.000000 0.000000
vn 0.000000 1.000000 0.000000
vn 0.000000 1.000000 0.000000
vn 0.000000 1.000000 0.000000
vn 0.000000 1.000000 0.000000
vn 0.000000 1.000000 0.000000
vn 0.000000 1.000000 0.000000
vn 0.000000 1.000000 0.000000
vn 0.000000 1.000000 0.000000
vn 0.000000 1.000000 0.000000
vn 0.000000 1.000000 0.000000
vn 0.000000 1.000000 0.000000
vn 0.000000 1.000000 0.000000
vn -0.000000 1.000000 0.000000
vn -0.000000 1.000000 -0.000000
vn -0.000000 1.000000 0.000000
vn 0.000002 1.000000 0.000000
vn 0.000001 1.000000 0.000000
vn 0.000002 1.000000 0.000000
vn 0.000000 1.000000 0.000000
vn 0.000000 1.000000 0.000000
vn 0.000000 1.000000 0.000000
vn 0.000000 1.000000 0.000000
vn 0.000000 1.000000 0.000000
vn 0.000000 1.000000 0.000000
vn 0.000000 1.000000 0.000000
vn 0.000000 1.000000 0.000000
vn 0.000000 1.000000 0.000000
vn 0.000000 1.000000 0.000000
vn 0.000000 1.000000 0.000000
vn 0.000000 1.000000 0.000000
vn 0.000000 1.000000 0.000000
vn 0.000000 1.000000 0.000000
vn 0.000000 1.000000 0.000000
vn -0.000000 1.000000 0.000000
vn 0.000000 1.000000 0.000000
vn -0.000000 1.000000 0.000000
vn -0.000000 1.000000 0.000000
vn -0.000000 1.000000 0.000000
vn -0.000000 1.000000 0.000000
vn -0.000000 1.000000 0.000000
vn -0.000000 1.000000 0.000000
vn -0.000000 1.000000 0.000000
vn 0.000000 1.000000 0.000000
vn 0.000000 1.000000 0.000000
vn 0.000000 1.000000 0.000000
vn 0.000000 1.000000 0.000000
vn 0.000000 1.000000 0.000000
vn 0.000000 1.000000 0.000000
vn 0.000000 1.000000 0.000000
vn 0.000000 1.000000 0.000000
vn 0.000000 1.000000 0.000000
vn 0.000000 1.000000 0.000000
vn 0.000000 1.000000 0.000000
vn 0.000000 1.000000 0.000000
vn 0.000000 1.000000 0.000000
vn 0.000000 1.000000 0.000000
vn 0.000000 1.000000 0.000000
vn 0.000000 1.000000 0.000000
vn 0.000000 1.000000 0.000000
vn 0.000000 1.000000 0.000000
vn 0.000000 1.000000 0.000000
vn 0.000000 1.000000 0.000000
vn 0.000000 1.000000 0.000000
vn 0.000000 1.000000 0.000000
vn 0.000002 1.000000 0.000000
vn 0.000001 1.000000 0.000000
vn 0.000000 1.000000 0.000000
vn 0.000001 1.000000 0.000000
vn 0.000000 1.000000 0.000000
vn 0.000000 1.000000 0.000000
vn 0.000000 1.000000 0.000000
vn 0.000000 1.000000 0.000000
vn 0.000000 1.000000 0.000000
vn 0.000000 1.000000 0.000000
vn 0.000000 1.000000 0.000000
vn 0.000000 1.000000 0.000000
vn 0.000000 1.000000 0.000000
vn 0.000000 1.000000 0.000000
vn 0.000000 1.000000 0.000000
vn -0.000000 1.000000 0.000000
vn 0.000000 1.000000 0.000000
vn 0.000000 1.000000 0.000000
vn 0.000000 1.000000 0.000000
vn 0.000000 1.000000 0.000000
vn 0.000000 1.000000 0.000000
vn 0.000000 1.000000 0.000000
vn 0.000000 1.000000 0.000000
vn 0.000000 1.000000 0.000000
vn 0.000000 1.000000 0.000000
vn 0.000000 1.000000 0.000000
vn 0.000000 1.000000 0.000000
vn 0.000000 1.000000 0.000000
vn 0.000000 1.000000 0.000000
vn 0.000000 1.000000 0.000000
vn 0.000000 1.000000 0.000000
vn -0.000000 1.000000 0.000000
vn 0.000000 1.000000 0.000000
vn -0.000000 1.000000 0.000000
vn -0.000000 1.000000 -0.000000
vn 0.000000 1.000000 0.000000
vn 0.000000 1.000000 0.000000
vn 0.000000 1.000000 0.000000
vn 0.000000 1.000000 0.000000
vn 0.000000 1.000000 0.000000
vn 0.000000 1.000000 0.000000
vn 0.000000 1.000000 0.000000
vn 0.000000 1.000000 0.000000
vn 0.000000 1.000000 0.000000
vn 0.000000 1.000000 0.000000
vn 0.000000 1.000000 0.000000
vn 0.000000 1.000000 0.000000
vn 0.000000 1.000000 0.000000
vn 0.000000 1.000000 0.000000
vn 0.000000 1.000000 0.000000
vn 0.000000 1.000000 0.000000
vn 0.000000 1.000000 0.000000
vn 0.000000 1.000000 0.000000
vn 0.000000 1.000000 0.000000
vn 0.000000 1.000000 0.000000
vn 0.000000 1.000000 0.000000
vn 0.000002 1.000000 0.000000
vn 0.000000 1.000000 0.000000
vn 0.000000 1.000000 0.000000
vn 0.000002 1.000000 0.000000
vn 0.000000 1.000000 0.000000
vn 0.000000 1.000000 0.000000
vn 0.000002 1.000000 0.000000
vn 0.000000 1.000000 0.000000
vn 0.000001 1.000000 0.000000
vn 0.000000 1.000000 0.000000
vn 0.000000 1.000000 0.000000
vn 0.000000 1.000000 0.000000
vn 0.000000 1.000000 0.000000
vn 0.000000 1.000000 0.000000
vn 0.000000 1.000000 0.000000
vn 0.000000 1.000000 0.000000
vn 0.000000 1.000000 0.000000
vn 0.000000 1.000000 0.000000
vn 0.000000 1.000000 0.000000
vn 0.000000 1.000000 0.000000
vn 0.000001 1.000000 0.000000
vn 0.000000 1.000000 0.000000
vn 0.000000 1.000000 0.000000
vn 0.000000 1.000000 0.000000
vn 0.000000 1.000000 0.000000
vn 0.000000 1.000000 0.000000
vn 0.000000 1.000000 0.000000
vn 0.000000 1.000000 0.000000
vn 0.000000 1.000000 0.000000
vn 0.000000 1.000000 0.000000
vn 0.000000 1.000000 0.000000
vn 0.000000 1.000000 0.000000
vn 0.000000 1.000000 0.000000
vn 0.000000 1.000000 0.000000
vn 0.000000 1.000000 0.000000
vn 0.000000 1.000000 0.000000
vn 0.000000 1.000000 0.000000
vn 0.000000 1.000000 0.000000
vn 0.000000 1.000000 0.000000
vn 0.000000 1.000000 0.000000
vn 0.000000 1.000000 0.000000
vn 0.000000 1.000000 0.000000
vn 0.000000 1.000000 0.000000
vn 0.000000 1.000000 0.000000
vn -0.000000 1.000000 0.000000
vn 0.000000 1.000000 0.000000
vn -0.000000 1.000000 0.000000
vn -0.000000 1.000000 0.000000
vn -0.000002 1.000000 0.000000
vn -0.000002 1.000000 0.000000
vn 0.000001 1.000000 0.000000
vn -0.000002 1.000000 0.000000
vn 0.000001 1.000000 0.000000
vn -0.000001 1.000000 0.000000
vn 0.000000 1.000000 0.000000
vn 0.000000 1.000000 0.000000
vn 0.000000 1.000000 0.000000
vn 0.000000 1.000000 0.000000
vn 0.000000 1.000000 0.000000
vn 0.000000 1.000000 0.000000
vn 0.000000 1.000000 0.000000
vn 0.000000 1.000000 0.000000
vn 0.000000 1.000000 0.000000
vn 0.000000 1.000000 0.000000
vn 0.000000 1.000000 0.000000
vn -0.000002 1.000000 0.000000
vn 0.000000 1.000000 0.000000
vn -0.000002 1.000000 0.000000
vn -0.000001 1.000000 0.000000
vn 0.000000 1.000000 0.000000
vn -0.000001 1.000000 0.000000
vn -0.000001 1.000000 0.000000
vn 0.000000 1.000000 0.000000
vn 0.000000 1.000000 0.000000
vn 0.000000 1.000000 0.000000
vn 0.000000 1.000000 0.000000
vn 0.000000 1.000000 0.000000
vn 0.000000 1.000000 0.000000
vn -0.000001 1.000000 0.000000
vn -0.000001 1.000000 0.000000
vn -0.000001 1.000000 0.000000
vn 0.000000 1.000000 0.000000
vn 0.000000 1.000000 0.000000
vn 0.000000 1.000000 0.000000
vn 0.000000 1.000000 0.000000
vn 0.000000 1.000000 0.000000
vn 0.000000 1.000000 0.000000
vn -0.000001 1.000000 0.000000
vn 0.000000 1.000000 0.000000
vn 0.000000 1.000000 0.000000
vn -0.000001 1.000000 0.000000
vn 0.000000 1.000000 0.000000
vn -0.000001 1.000000 0.000000
vn -0.000001 1.000000 0.000000
vn -0.000001 1.000000 0.000000
vn 0.000000 1.000000 0.000000
vn 0.000000 1.000000 0.000000
vn 0.000000 1.000000 0.000000
vn 0.000000 1.000000 0.000000
vn 0.000000 1.000000 0.000000
vn 0.000000 1.000000 0.000000
vn 0.000001 1.000000 0.000000
vn 0.000000 1.000000 0.000000
vn 0.000001 1.000000 0.000000
vn 0.000000 1.000000 0.000000
vn 0.000000 1.000000 0.000000
vn 0.000000 1.000000 0.000000
vn 0.000001 1.000000 0.000000
vn 0.000000 1.000000 0.000000
vn -0.000001 1.000000 0.000000
vn 0.000000 1.000000 0.000000
vn 0.000000 1.000000 0.000000
vn -0.000000 1.000000 0.000000
vn 0.000001 1.000000 0.000000
vn 0.000000 1.000000 0.000000
vn 0.000001 1.000000 0.000000
vn -0.000001 1.000000 0.000000
vn 0.000001 1.000000 0.000000
vn 0.000000 1.000000 0.000000
vn 0.000000 1.000000 0.000000
vn 0.000000 1.000000 0.000000
vn 0.000000 1.000000 0.000000
vn 0.000000 1.000000 0.000000
vn 0.000000 1.000000 0.000000
vn 0.000000 1.000000 0.000000
vn 0.000001 1.000000 0.000000
vn 0.000000 1.000000 0.000000
vn 0.000001 1.000000 0.000000
vn 0.000000 1.000000 0.000000
vn 0.000000 1.000000 0.000000
vn 0.000001 1.000000 0.000000
vn -0.000001 1.000000 0.000000
vn 0.000000 1.000000 0.000000
vn -0.000001 1.000000 0.000000
vn 0.000001 1.000000 0.000000
vn 0.000000 1.000000 0.000000
vn 0.000001 1.000000 0.000000
vn -0.000000 1.000000 0.000000
vn 0.000000 1.000000 0.000000
vn -0.000000 1.000000 0.000000
vn 0.000000 1.000000 0.000000
vn 0.000000 1.000000 0.000000
vn 0.000000 1.000000 0.000000
vn 0.000000 1.000000 0.000000
vn 0.000000 1.000000 0.000000
vn 0.000000 1.000000 0.000000
vn 0.000000 1.000000 0.000000
vn 0.000000 1.000000 0.000000
vn 0.000000 1.000000 0.000000
vn 0.000000 1.000000 0.000000
vn 0.000000 1.000000 0.000000
vn 0.000000 1.000000 0.000000
vn 0.000000 1.000000 0.000000
vn 0.000000 1.000000 0.000000
vn 0.000000 1.000000 0.000000
vn 0.000000 1.000000 0.000000
vn 0.000000 1.000000 0.000000
vn 0.000000 1.000000 0.000000
vn 0.000000 1.000000 0.000000
f 48/1/1 41/2/2 32/3/3
f 48/4/4 32/5/5 30/6/6
f 48/7/7 43/8/8 34/9/9
f 48/10/10 34/11/11 35/12/12
f 30/13/13 28/14/14 43/15/15
f 30/16/16 43/17/17 48/18/18
f 35/19/19 14/20/20 15/21/21
f 35/22/22 15/23/23 39/24/24
f 35/25/25 39/26/26 41/27/27
f 35/28/28 41/29/29 48/30/30
f 25/31/31 26/32/32 28/33/33
f 25/34/34 28/35/35 27/36/36
f 49/37/37 50/38/38 86/39/39
f 49/40/40 86/41/41 107/42/42
f 34/43/43 13/44/44 14/45/45
f 34/46/46 14/47/47 35/48/48
f 27/49/49 28/50/50 30/51/51
f 27/52/52 30/53/53 29/54/54
f 46/55/55 45/56/56 22/57/57
f 46/58/58 22/59/59 47/60/60
f 47/61/61 22/62/62 6/63/63
f 47/64/64 6/65/65 2/66/66
f 42/67/67 33/68/68 34/69/69
f 42/70/70 34/71/71 43/72/72
f 45/73/73 21/74/74 10/75/75
f 45/76/76 10/77/77 44/78/78
f 44/79/79 10/80/80 8/81/81
f 44/82/82 8/83/83 23/84/84
f 24/85/85 16/86/86 3/87/87
f 24/88/88 3/89/89 23/90/90
f 1/91/91 21/92/92 45/93/93
f 1/94/94 45/95/95 46/96/96
f 44/97/97 20/98/98 22/99/99
f 44/100/100 22/101/101 45/102/102
f 23/103/103 3/104/104 20/105/105
f 23/106/106 20/107/107 44/108/108
f 23/109/109 8/110/110 19/111/111
f 23/112/112 19/113/113 24/114/114
f 3/115/115 4/116/116 5/117/117
f 3/118/118 5/119/119 20/120/120
f 29/121/121 30/122/122 32/123/123
f 29/124/124 32/125/125 31/126/126
f 43/127/127 28/128/128 26/129/129
f 43/130/130 26/131/131 42/132/132
f 20/133/133 5/134/134 6/135/135
f 20/136/136 6/137/137 22/138/138
f 16/139/139 17/140/140 4/141/141
f 16/142/142 4/143/143 3/144/144
f 41/145/145 39/146/146 36/147/147
f 41/148/148 36/149/149 40/150/150
f 31/151/151 32/152/152 38/153/153
f 31/154/154 38/155/155 37/156/156
f 39/157/157 15/158/158 18/159/159
f 39/160/160 18/161/161 36/162/162
f 33/163/163 12/164/164 13/165/165
f 33/166/166 13/167/167 34/168/168
f 7/169/169 8/170/170 10/171/171
f 7/172/172 10/173/173 9/174/174
f 40/175/175 38/176/176 32/177/177
f 40/178/178 32/179/179 41/180/180
f 18/181/181 19/182/182 8/183/183
f 18/184/184 8/185/185 7/186/186
f 9/187/187 10/188/188 21/189/189
f 9/190/190 21/191/191 11/192/192
f 62/193/193 63/194/194 67/195/195
f 62/196/196 67/197/197 66/198/198
f 72/199/199 60/200/200 59/201/201
f 72/202/202 59/203/203 55/204/204
f 72/205/205 55/206/206 56/207/207
f 71/208/208 62/209/209 66/210/210
f 71/211/211 66/212/212 65/213/213
f 71/214/214 65/215/215 61/216/216
f 134/217/217 123/218/218 124/219/219
f 134/220/220 124/221/221 120/222/222
f 134/223/223 120/224/224 119/225/225
f 71/226/226 73/227/227 62/228/228
f 49/229/229 1/230/230 51/231/231
f 49/232/232 51/233/233 50/234/234
f 53/235/235 69/236/236 52/237/237
f 53/238/238 52/239/239 46/240/240
f 53/241/241 46/242/242 47/243/243
f 52/244/244 68/245/245 51/246/246
f 52/247/247 51/248/248 1/249/249
f 52/250/250 1/251/251 46/252/252
f 70/253/253 60/254/254 72/255/255
f 74/256/256 69/257/257 53/258/258
f 47/259/259 2/260/260 54/261/261
f 47/262/262 54/263/263 53/264/264
f 75/265/265 51/266/266 68/267/267
f 60/268/268 70/269/269 61/270/270
f 60/271/271 61/272/272 65/273/273
f 60/274/274 65/275/275 64/276/276
f 74/277/277 53/278/278 54/279/279
f 74/280/280 54/281/281 58/282/282
f 74/283/283 58/284/284 57/285/285
f 74/286/286 57/287/287 76/288/288
f 74/289/289 76/290/290 77/291/291
f 51/292/292 75/293/293 56/294/294
f 51/295/295 56/296/296 55/297/297
f 51/298/298 55/299/299 50/300/300
f 57/301/301 58/302/302 63/303/303
f 57/304/304 63/305/305 62/306/306
f 57/307/307 62/308/308 73/309/309
f 79/310/310 84/311/311 96/312/312
f 83/313/313 88/314/314 85/315/315
f 82/316/316 78/317/317 100/318/318
f 100/319/319 38/320/320 40/321/321
f 100/322/322 40/323/323 109/324/324
f 100/325/325 109/326/326 82/327/327
f 81/328/328 112/329/329 113/330/330
f 96/331/331 95/332/332 93/333/333
f 96/334/334 93/335/335 94/336/336
f 96/337/337 94/338/338 79/339/339
f 113/340/340 109/341/341 40/342/342
f 113/343/343 40/344/344 36/345/345
f 113/346/346 36/347/347 81/348/348
f 101/349/349 102/350/350 104/351/351
f 101/352/352 104/353/353 103/354/354
f 50/355/355 55/356/356 87/357/357
f 50/358/358 87/359/359 86/360/360
f 110/361/361 85/362/362 88/363/363
f 110/364/364 88/365/365 89/366/366
f 110/367/367 89/368/368 111/369/369
f 106/370/370 103/371/371 104/372/372
f 106/373/373 104/374/374 105/375/375
f 95/376/376 96/377/377 98/378/378
f 95/379/379 98/380/380 97/381/381
f 37/382/382 38/383/383 100/384/384
f 37/385/385 100/386/386 99/387/387
f 110/388/388 111/389/389 98/390/390
f 110/391/391 98/392/392 96/393/393
f 110/394/394 96/395/395 84/396/396
f 105/397/397 92/398/398 91/399/399
f 105/400/400 91/401/401 106/402/402
f 78/403/403 102/404/404 101/405/405
f 78/406/406 101/407/407 99/408/408
f 78/409/409 99/410/410 100/411/411
f 59/412/412 60/413/413 64/414/414
f 59/415/415 64/416/416 90/417/417
f 83/418/418 87/419/419 55/420/420
f 83/421/421 55/422/422 59/423/423
f 83/424/424 59/425/425 88/426/426
f 11/427/427 21/428/428 1/429/429
f 11/430/430 1/431/431 49/432/432
f 59/433/433 90/434/434 89/435/435
f 59/436/436 89/437/437 88/438/438
f 36/439/439 18/440/440 7/441/441
f 36/442/442 7/443/443 81/444/444
f 80/445/445 9/446/446 11/447/447
f 80/448/448 11/449/449 108/450/450
f 81/451/451 7/452/452 9/453/453
f 81/454/454 9/455/455 80/456/456
f 81/457/457 80/458/458 112/459/459
f 91/460/460 92/461/461 94/462/462
f 91/463/463 94/464/464 93/465/465
f 127/466/466 128/467/467 124/468/468
f 127/469/469 124/470/470 123/471/471
f 118/472/472 14/473/473 13/474/474
f 118/475/475 13/476/476 121/477/477
f 118/478/478 121/479/479 133/480/480
f 122/481/481 126/482/482 127/483/483
f 122/484/484 127/485/485 123/486/486
f 122/487/487 123/488/488 132/489/489
f 12/490/490 125/491/491 121/492/492
f 12/493/493 121/494/494 13/495/495
f 123/496/496 134/497/497 132/498/498
f 15/499/499 114/500/500 19/501/501
f 15/502/502 19/503/503 18/504/504
f 16/505/505 24/506/506 115/507/507
f 16/508/508 115/509/509 130/510/510
f 16/511/511 130/512/512 116/513/513
f 24/514/514 19/515/515 114/516/516
f 24/517/517 114/518/518 129/519/519
f 24/520/520 129/521/521 115/522/522
f 133/523/523 121/524/524 131/525/525
f 116/526/526 130/527/527 135/528/528
f 116/529/529 117/530/530 17/531/531
f 116/532/532 17/533/533 16/534/534
f 129/535/535 114/536/536 136/537/537
f 125/538/538 126/539/539 122/540/540
f 125/541/541 122/542/542 131/543/543
f 125/544/544 131/545/545 121/546/546
f 138/547/547 137/548/548 119/549/549
f 138/550/550 119/551/551 120/552/552
f 138/553/553 120/554/554 117/555/555
f 138/556/556 117/557/557 116/558/558
f 138/559/559 116/560/560 135/561/561
f 15/562/562 14/563/563 118/564/564
f 15/565/565 118/566/566 136/567/567
f 15/568/568 136/569/569 114/570/570
f 11/571/571 49/572/572 107/573/573
f 11/574/574 107/575/575 108/576/576
