v 8.666842 0.841380 -1.411382
v 8.666842 0.841380 1.213651
v 8.666842 0.973213 -1.411382
v 8.666842 0.973213 1.213651
v 10.155800 0.841380 -1.411382
v 10.155800 0.841380 1.213651
v 10.155800 0.973213 -1.411382
v 10.155800 0.973213 1.213651
v 8.666842 0.841380 -1.411382
v 8.666842 0.841380 1.213651
v 10.155800 0.841380 -1.411382
v 10.155800 0.841380 1.213651
v 9.969681 0.841380 1.049587
v 8.852961 0.000002 -1.411382
v 8.666842 0.000002 -1.411382
v 8.852961 0.841380 -1.247317
v 10.155800 0.841380 1.049587
v 8.852961 0.000002 -1.247317
v 10.155800 0.841380 -1.247317
v 8.852961 0.000002 1.213651
v 8.666842 0.000002 1.213651
v 8.666842 0.000002 1.049587
v 8.666842 0.841380 1.049587
v 9.969681 0.841380 -1.247317
v 9.969681 0.841380 -1.411382
v 8.666842 0.841380 -1.247317
v 8.852961 0.841380 -1.411382
v 8.852961 0.000002 1.049587
v 8.666842 0.000002 -1.247317
v 9.969681 0.841380 1.213651
v 8.852961 0.841380 1.049587
v 8.852961 0.841380 1.213651
v 10.155800 0.000002 -1.247317
v 9.969681 0.000002 -1.247317
v 10.155800 0.000002 -1.411382
v 9.969681 0.000002 -1.411382
v 9.969681 0.000002 1.213651
v 10.155800 0.000002 1.213651
v 9.969681 0.000002 1.049587
v 10.155800 0.000002 1.049587
v 10.155800 0.973213 -0.063164
v 8.666842 0.973213 -0.452730
v 9.526376 0.973213 -0.227844
v 10.656235 0.517211 0.407114
v 11.102687 0.517211 0.120707
v 10.656235 0.589806 0.407114
v 11.102687 0.589806 0.120707
v 10.421651 0.517211 0.041445
v 10.868103 0.517211 -0.244962
v 10.421651 0.589806 0.041445
v 10.868103 0.589806 -0.244962
v 11.141283 0.769158 0.288419
v 11.106828 0.777630 0.234710
v 10.792599 0.769158 0.512107
v 10.900267 1.406046 0.543502
v 10.758143 0.777630 0.458398
v 10.878604 1.411372 0.509734
v 11.103271 1.411372 0.365606
v 11.124934 1.406046 0.399373
v 10.883305 0.741987 0.392682
v 10.899716 0.737951 0.418266
v 10.974243 0.589806 0.288866
v 10.862631 0.589806 0.360468
v 10.846074 0.589806 0.334660
v 10.957687 0.589806 0.263058
v 10.994917 0.741987 0.321081
v 11.011330 0.737951 0.346664
v 10.610473 0.589806 -0.155388
v 10.610473 0.517211 -0.155388
v 10.677039 0.465583 0.071168
v 10.847299 0.465583 0.090984
v 10.788652 0.465583 -0.000434
v 10.735685 0.465583 0.162585
v 10.847299 0.123426 0.090984
v 10.735685 0.123426 0.162585
v 10.788652 0.123426 -0.000434
v 10.677039 0.123426 0.071168
v 10.848607 0.000815 -0.184959
v 11.040019 0.000815 0.113413
v 10.484319 0.000815 0.048738
v 10.675731 0.000815 0.347111
vt 0.300781 0.000000
vt 0.300781 0.601562
vt 0.355469 0.601562
vt 0.300781 0.000000
vt 0.355469 0.601562
vt 0.355469 0.219688
vt 0.300781 0.000000
vt 0.355469 0.219688
vt 0.355469 0.000000
vt 0.300781 0.000000
vt 0.300781 0.601562
vt 0.355469 0.601562
vt 0.300781 0.000000
vt 0.355469 0.601562
vt 0.355469 0.000000
vt 0.300781 0.000000
vt 0.300781 0.601562
vt 0.355469 0.601562
vt 0.300781 0.000000
vt 0.355469 0.601562
vt 0.355469 0.292600
vt 0.300781 0.000000
vt 0.355469 0.292600
vt 0.355469 0.000000
vt 0.300781 0.000000
vt 0.300781 0.601562
vt 0.355469 0.601562
vt 0.300781 0.000000
vt 0.355469 0.601562
vt 0.355469 0.000000
vt 0.000000 0.601562
vt 0.355469 0.601562
vt 0.355469 0.308963
vt 0.000000 0.601562
vt 0.355469 0.308963
vt 0.205202 0.271224
vt 0.000000 0.000000
vt 0.355469 0.000000
vt 0.355469 0.601562
vt 0.000000 0.000000
vt 0.355469 0.601562
vt 0.000000 0.601562
vt 0.300781 0.601562
vt 0.355469 0.601562
vt 0.355469 0.000000
vt 0.300781 0.601562
vt 0.355469 0.000000
vt 0.300781 0.000000
vt 0.300781 0.601562
vt 0.355469 0.601562
vt 0.355469 0.000000
vt 0.300781 0.601562
vt 0.355469 0.000000
vt 0.300781 0.000000
vt 0.300781 0.601562
vt 0.355469 0.601562
vt 0.355469 0.000000
vt 0.300781 0.601562
vt 0.355469 0.000000
vt 0.300781 0.000000
vt 0.300781 0.601562
vt 0.355469 0.601562
vt 0.355469 0.000000
vt 0.300781 0.601562
vt 0.355469 0.000000
vt 0.300781 0.000000
vt 0.300781 0.601562
vt 0.355469 0.601562
vt 0.355469 0.000000
vt 0.300781 0.601562
vt 0.355469 0.000000
vt 0.300781 0.000000
vt 0.300781 0.601562
vt 0.355469 0.601562
vt 0.355469 0.000000
vt 0.300781 0.601562
vt 0.355469 0.000000
vt 0.300781 0.000000
vt 0.300781 0.601562
vt 0.355469 0.601562
vt 0.355469 0.000000
vt 0.300781 0.601562
vt 0.355469 0.000000
vt 0.300781 0.000000
vt 0.300781 0.601562
vt 0.355469 0.601562
vt 0.355469 0.000000
vt 0.300781 0.601562
vt 0.355469 0.000000
vt 0.300781 0.000000
vt 0.300781 0.601562
vt 0.355469 0.601562
vt 0.355469 0.000000
vt 0.300781 0.601562
vt 0.355469 0.000000
vt 0.300781 0.000000
vt 0.125000 0.062500
vt 0.000000 0.062500
vt 0.000000 0.062500
vt 0.125000 0.062500
vt 0.000000 0.062500
vt 0.125000 0.062500
vt 0.300781 0.601562
vt 0.355469 0.601562
vt 0.355469 0.000000
vt 0.300781 0.601562
vt 0.355469 0.000000
vt 0.300781 0.000000
vt 0.300781 0.601562
vt 0.355469 0.601562
vt 0.355469 0.000000
vt 0.300781 0.601562
vt 0.355469 0.000000
vt 0.300781 0.000000
vt 0.300781 0.601562
vt 0.355469 0.601562
vt 0.355469 0.000000
vt 0.300781 0.601562
vt 0.355469 0.000000
vt 0.300781 0.000000
vt 0.300781 0.601562
vt 0.355469 0.601562
vt 0.355469 0.000000
vt 0.300781 0.601562
vt 0.355469 0.000000
vt 0.300781 0.000000
vt 0.300781 0.601562
vt 0.355469 0.601562
vt 0.355469 0.000000
vt 0.300781 0.601562
vt 0.355469 0.000000
vt 0.300781 0.000000
vt 0.300781 0.601562
vt 0.355469 0.601562
vt 0.355469 0.000000
vt 0.300781 0.601562
vt 0.355469 0.000000
vt 0.300781 0.000000
vt 0.355469 0.000000
vt 0.000000 0.000000
vt 0.000000 0.219688
vt 0.355469 0.000000
vt 0.000000 0.219688
vt 0.205202 0.271224
vt 0.205202 0.271224
vt 0.000000 0.219688
vt 0.000000 0.601562
vt 0.205202 0.271224
vt 0.355469 0.308963
vt 0.355469 0.000000
vt 0.859375 0.273438
vt 0.990234 0.271484
vt 0.990234 0.003906
vt 0.859375 0.273438
vt 0.990234 0.271484
vt 0.990234 0.003906
vt 0.859375 0.273438
vt 0.990234 0.003906
vt 0.859375 0.003906
vt 0.859375 0.273438
vt 0.990234 0.271484
vt 0.990234 0.003906
vt 0.859375 0.273438
vt 0.990234 0.003906
vt 0.859375 0.003906
vt 0.406250 0.176758
vt 0.439453 0.269531
vt 0.621094 0.271484
vt 0.406250 0.176758
vt 0.621094 0.271484
vt 0.661133 0.159180
vt 0.406250 0.176758
vt 0.661133 0.159180
vt 0.637695 0.022461
vt 0.406250 0.176758
vt 0.637695 0.022461
vt 0.419922 0.022461
vt 0.406250 0.176758
vt 0.419922 0.022461
vt 0.408203 0.117188
vt 0.406250 0.176758
vt 0.408203 0.117188
vt 0.422852 0.117188
vt 0.406250 0.176758
vt 0.422852 0.117188
vt 0.423828 0.176758
vt 0.859375 0.273438
vt 0.990234 0.271484
vt 0.990234 0.003906
vt 0.859375 0.273438
vt 0.990234 0.003906
vt 0.859375 0.003906
vt 0.658203 0.267578
vt 0.658203 0.005859
vt 0.369141 0.005859
vt 0.658203 0.267578
vt 0.369141 0.005859
vt 0.369141 0.267578
vt 0.859375 0.273438
vt 0.990234 0.271484
vt 0.990234 0.003906
vt 0.859375 0.273438
vt 0.990234 0.003906
vt 0.859375 0.003906
vt 0.859375 0.273438
vt 0.990234 0.271484
vt 0.990234 0.003906
vt 0.859375 0.273438
vt 0.990234 0.003906
vt 0.859375 0.003906
vt 0.859375 0.273438
vt 0.990234 0.271484
vt 0.990234 0.003906
vt 0.859375 0.273438
vt 0.990234 0.003906
vt 0.859375 0.003906
vt 0.683594 0.167969
vt 0.681641 0.113281
vt 0.658203 0.005859
vt 0.683594 0.167969
vt 0.658203 0.005859
vt 0.658203 0.267578
vt 0.859375 0.273438
vt 0.990234 0.271484
vt 0.990234 0.003906
vt 0.859375 0.273438
vt 0.990234 0.003906
vt 0.859375 0.003906
vt 0.859375 0.273438
vt 0.990234 0.271484
vt 0.990234 0.003906
vt 0.859375 0.273438
vt 0.990234 0.003906
vt 0.859375 0.003906
vt 0.859375 0.273438
vt 0.990234 0.271484
vt 0.990234 0.003906
vt 0.859375 0.273438
vt 0.990234 0.003906
vt 0.859375 0.003906
vt 0.859375 0.273438
vt 0.990234 0.271484
vt 0.990234 0.003906
vt 0.859375 0.273438
vt 0.990234 0.003906
vt 0.859375 0.003906
vt 0.859375 0.273438
vt 0.990234 0.271484
vt 0.990234 0.003906
vt 0.859375 0.273438
vt 0.990234 0.003906
vt 0.859375 0.003906
vt 0.859375 0.273438
vt 0.990234 0.271484
vt 0.990234 0.003906
vt 0.859375 0.273438
vt 0.990234 0.003906
vt 0.859375 0.003906
vt 0.859375 0.273438
vt 0.990234 0.271484
vt 0.990234 0.003906
vt 0.859375 0.273438
vt 0.990234 0.003906
vt 0.859375 0.003906
vt 0.859375 0.273438
vt 0.990234 0.271484
vt 0.990234 0.003906
vt 0.859375 0.273438
vt 0.990234 0.003906
vt 0.859375 0.003906
vt 0.882812 0.230469
vt 0.769531 0.228516
vt 0.708984 0.001953
vt 0.882812 0.230469
vt 0.708984 0.001953
vt 0.994141 0.005859
vt 0.859375 0.273438
vt 0.990234 0.271484
vt 0.990234 0.003906
vt 0.859375 0.273438
vt 0.990234 0.003906
vt 0.859375 0.003906
vt 0.859375 0.273438
vt 0.990234 0.271484
vt 0.990234 0.003906
vt 0.859375 0.273438
vt 0.990234 0.271484
vt 0.990234 0.003906
vt 0.859375 0.273438
vt 0.990234 0.003906
vt 0.859375 0.003906
vt 0.769531 0.228516
vt 0.882812 0.230469
vt 0.994141 0.005859
vt 0.769531 0.228516
vt 0.994141 0.005859
vt 0.708984 0.001953
vt 0.859375 0.003906
vt 0.990234 0.003906
vt 0.990234 0.271484
vt 0.859375 0.003906
vt 0.990234 0.271484
vt 0.859375 0.273438
vt 0.859375 0.003906
vt 0.990234 0.003906
vt 0.990234 0.271484
vt 0.859375 0.003906
vt 0.990234 0.271484
vt 0.859375 0.273438
vt 0.882812 0.230469
vt 0.769531 0.228516
vt 0.708984 0.001953
vt 0.882812 0.230469
vt 0.708984 0.001953
vt 0.994141 0.005859
vt 0.859375 0.003906
vt 0.990234 0.003906
vt 0.990234 0.271484
vt 0.859375 0.003906
vt 0.990234 0.271484
vt 0.859375 0.273438
vt 0.859375 0.003906
vt 0.859375 0.273438
vt 0.924805 0.138184
vt 0.769531 0.228516
vt 0.882812 0.230469
vt 0.994141 0.005859
vt 0.769531 0.228516
vt 0.994141 0.005859
vt 0.708984 0.001953
vt 0.859375 0.003906
vt 0.990234 0.003906
vt 0.990234 0.271484
vt 0.859375 0.003906
vt 0.990234 0.271484
vt 0.859375 0.273438
vt 0.990234 0.003906
vt 0.859375 0.003906
vt 0.859375 0.273438
vt 0.990234 0.003906
vt 0.859375 0.273438
vt 0.990234 0.271484
vt 0.859375 0.003906
vt 0.990234 0.003906
vt 0.990234 0.271484
vt 0.859375 0.003906
vt 0.990234 0.271484
vt 0.859375 0.273438
vt 0.990234 0.003906
vt 0.859375 0.003906
vt 0.859375 0.273438
vt 0.990234 0.003906
vt 0.859375 0.273438
vt 0.990234 0.271484
vt 0.859375 0.003906
vt 0.990234 0.003906
vt 0.990234 0.271484
vt 0.859375 0.003906
vt 0.990234 0.271484
vt 0.859375 0.273438
vn -1.000000 0.000000 0.000000
vn -1.000000 0.000000 0.000000
vn -1.000000 0.000000 0.000000
vn -1.000000 0.000000 0.000000
vn -1.000000 0.000000 0.000000
vn -1.000000 0.000000 0.000000
vn -1.000000 0.000000 0.000000
vn -1.000000 0.000000 0.000000
vn -1.000000 0.000000 0.000000
vn 0.000000 0.000000 1.000000
vn 0.000000 0.000000 1.000000
vn 0.000000 0.000000 1.000000
vn 0.000000 0.000000 1.000000
vn 0.000000 0.000000 1.000000
vn 0.000000 0.000000 1.000000
vn 1.000000 0.000000 0.000000
vn 1.000000 0.000000 0.000000
vn 1.000000 0.000000 0.000000
vn 1.000000 0.000000 0.000000
vn 1.000000 0.000000 0.000000
vn 1.000000 0.000000 0.000000
vn 1.000000 0.000000 0.000000
vn 1.000000 0.000000 0.000000
vn 1.000000 0.000000 0.000000
vn 0.000000 0.000000 -1.000000
vn 0.000000 0.000000 -1.000000
vn 0.000000 0.000000 -1.000000
vn 0.000000 0.000000 -1.000000
vn 0.000000 0.000000 -1.000000
vn 0.000000 0.000000 -1.000000
vn 0.000000 1.000000 0.000000
vn 0.000000 1.000000 0.000000
vn 0.000000 1.000000 0.000000
vn 0.000000 1.000000 0.000000
vn 0.000000 1.000000 0.000000
vn 0.000000 1.000000 0.000000
vn 0.000000 -1.000000 0.000000
vn 0.000000 -1.000000 0.000000
vn 0.000000 -1.000000 0.000000
vn 0.000000 -1.000000 0.000000
vn 0.000000 -1.000000 0.000000
vn 0.000000 -1.000000 0.000000
vn 0.000000 0.000000 1.000000
vn 0.000000 0.000000 1.000000
vn 0.000000 0.000000 1.000000
vn 0.000000 0.000000 1.000000
vn 0.000000 0.000000 1.000000
vn 0.000000 0.000000 1.000000
vn 1.000000 0.000000 0.000000
vn 1.000000 0.000000 0.000000
vn 1.000000 0.000000 0.000000
vn 1.000000 0.000000 0.000000
vn 1.000000 0.000000 0.000000
vn 1.000000 0.000000 0.000000
vn -1.000000 0.000000 0.000000
vn -1.000000 0.000000 0.000000
vn -1.000000 0.000000 0.000000
vn -1.000000 0.000000 0.000000
vn -1.000000 0.000000 0.000000
vn -1.000000 0.000000 0.000000
vn 0.000000 0.000000 -1.000000
vn 0.000000 0.000000 -1.000000
vn 0.000000 0.000000 -1.000000
vn 0.000000 0.000000 -1.000000
vn 0.000000 0.000000 -1.000000
vn 0.000000 0.000000 -1.000000
vn -1.000000 0.000000 0.000000
vn -1.000000 0.000000 0.000000
vn -1.000000 0.000000 0.000000
vn -1.000000 0.000000 0.000000
vn -1.000000 0.000000 0.000000
vn -1.000000 0.000000 0.000000
vn 1.000000 0.000000 0.000000
vn 1.000000 0.000000 0.000000
vn 1.000000 0.000000 0.000000
vn 1.000000 0.000000 0.000000
vn 1.000000 0.000000 0.000000
vn 1.000000 0.000000 0.000000
vn 0.000000 0.000000 -1.000000
vn 0.000000 0.000000 -1.000000
vn 0.000000 0.000000 -1.000000
vn 0.000000 0.000000 -1.000000
vn 0.000000 0.000000 -1.000000
vn 0.000000 0.000000 -1.000000
vn 0.000000 0.000000 -1.000000
vn 0.000000 0.000000 -1.000000
vn 0.000000 0.000000 -1.000000
vn 0.000000 0.000000 -1.000000
vn 0.000000 0.000000 -1.000000
vn 0.000000 0.000000 -1.000000
vn 1.000000 0.000000 0.000000
vn 1.000000 0.000000 0.000000
vn 1.000000 0.000000 0.000000
vn 1.000000 0.000000 0.000000
vn 1.000000 0.000000 0.000000
vn 1.000000 0.000000 0.000000
vn 0.000000 0.000000 1.000000
vn 0.000000 0.000000 1.000000
vn 0.000000 0.000000 1.000000
vn 0.000000 0.000000 1.000000
vn 0.000000 0.000000 1.000000
vn 0.000000 0.000000 1.000000
vn -1.000000 0.000000 0.000000
vn -1.000000 0.000000 0.000000
vn -1.000000 0.000000 0.000000
vn -1.000000 0.000000 0.000000
vn -1.000000 0.000000 0.000000
vn -1.000000 0.000000 0.000000
vn 0.000000 0.000000 1.000000
vn 0.000000 0.000000 1.000000
vn 0.000000 0.000000 1.000000
vn 0.000000 0.000000 1.000000
vn 0.000000 0.000000 1.000000
vn 0.000000 0.000000 1.000000
vn 0.000000 0.000000 1.000000
vn 0.000000 0.000000 1.000000
vn 0.000000 0.000000 1.000000
vn 0.000000 0.000000 1.000000
vn 0.000000 0.000000 1.000000
vn 0.000000 0.000000 1.000000
vn 1.000000 0.000000 0.000000
vn 1.000000 0.000000 0.000000
vn 1.000000 0.000000 0.000000
vn 1.000000 0.000000 0.000000
vn 1.000000 0.000000 0.000000
vn 1.000000 0.000000 0.000000
vn -1.000000 0.000000 0.000000
vn -1.000000 0.000000 0.000000
vn -1.000000 0.000000 0.000000
vn -1.000000 0.000000 0.000000
vn -1.000000 0.000000 0.000000
vn -1.000000 0.000000 0.000000
vn 0.000000 0.000000 -1.000000
vn 0.000000 0.000000 -1.000000
vn 0.000000 0.000000 -1.000000
vn 0.000000 0.000000 -1.000000
vn 0.000000 0.000000 -1.000000
vn 0.000000 0.000000 -1.000000
vn 0.000000 1.000000 0.000000
vn 0.000000 1.000000 0.000000
vn 0.000000 1.000000 0.000000
vn 0.000000 1.000000 0.000000
vn 0.000000 1.000000 0.000000
vn 0.000000 1.000000 0.000000
vn 0.000000 1.000000 0.000000
vn 0.000000 1.000000 0.000000
vn 0.000000 1.000000 0.000000
vn 0.000000 1.000000 0.000000
vn 0.000000 1.000000 0.000000
vn 0.000000 1.000000 0.000000
vn 0.386763 -0.794852 0.467572
vn 0.794699 0.000000 0.607004
vn 0.566228 -0.443692 0.694639
vn 0.841690 0.000000 -0.539961
vn 0.415987 -0.869332 -0.266864
vn 0.415987 -0.869332 -0.266864
vn 0.841690 0.000000 -0.539961
vn 0.415987 -0.869332 -0.266864
vn 0.841690 0.000000 -0.539961
vn 0.500690 -0.374392 0.780474
vn 0.500690 -0.374392 0.780474
vn 0.535263 -0.131617 0.834368
vn 0.500690 -0.374392 0.780474
vn 0.535263 -0.131617 0.834368
vn 0.535263 -0.131617 0.834368
vn 0.000000 1.000000 0.000000
vn -0.000001 1.000000 0.000000
vn -0.000000 1.000000 0.000000
vn 0.000000 1.000000 0.000000
vn -0.000000 1.000000 0.000000
vn 0.000000 1.000000 0.000000
vn 0.000000 1.000000 0.000000
vn 0.000000 1.000000 0.000000
vn 0.000001 1.000000 0.000000
vn 0.000000 1.000000 0.000000
vn 0.000001 1.000000 0.000000
vn 0.000000 1.000000 0.000000
vn 0.000000 1.000000 0.000000
vn 0.000000 1.000000 0.000000
vn -0.000000 1.000000 0.000000
vn 0.000000 1.000000 0.000000
vn -0.000000 1.000000 0.000000
vn 0.000000 1.000000 0.000000
vn 0.000000 1.000000 0.000000
vn 0.000000 1.000000 0.000000
vn -0.000000 1.000000 0.000000
vn 0.353710 -0.862086 -0.362900
vn 0.353710 -0.862086 -0.362901
vn 0.844307 0.112931 -0.523825
vn 0.353710 -0.862086 -0.362900
vn 0.844307 0.112931 -0.523825
vn 0.844307 0.112931 -0.523825
vn -0.537954 -0.086118 -0.838564
vn -0.537955 -0.086118 -0.838563
vn -0.532251 0.168378 -0.829673
vn -0.537954 -0.086118 -0.838564
vn -0.532251 0.168378 -0.829673
vn -0.532251 0.168378 -0.829673
vn -0.477320 -0.862085 0.170221
vn -0.477319 -0.862085 0.170221
vn -0.828115 0.112930 0.549066
vn -0.477320 -0.862085 0.170221
vn -0.828115 0.112930 0.549066
vn -0.828115 0.112930 0.549066
vn 0.469051 -0.495380 0.731156
vn 0.469051 -0.495380 0.731157
vn 0.500690 -0.374392 0.780474
vn 0.469051 -0.495380 0.731156
vn 0.500690 -0.374392 0.780474
vn 0.500690 -0.374392 0.780474
vn 0.341973 -0.869448 -0.356532
vn 0.341973 -0.869448 -0.356532
vn 0.353710 -0.862086 -0.362901
vn 0.341973 -0.869448 -0.356532
vn 0.353710 -0.862086 -0.362901
vn 0.353710 -0.862086 -0.362900
vn -0.539176 0.053892 -0.840467
vn -0.539176 0.053892 -0.840467
vn -0.537955 -0.086118 -0.838563
vn -0.539176 0.053892 -0.840467
vn -0.537955 -0.086118 -0.838563
vn -0.537954 -0.086118 -0.838564
vn -0.466646 -0.869442 0.162212
vn -0.466645 -0.869442 0.162212
vn -0.477319 -0.862085 0.170221
vn -0.466646 -0.869442 0.162212
vn -0.477319 -0.862085 0.170221
vn -0.477320 -0.862085 0.170221
vn 0.395346 -0.443692 0.804263
vn 0.566228 -0.443692 0.694639
vn 0.469051 -0.495380 0.731157
vn 0.395346 -0.443692 0.804263
vn 0.469051 -0.495380 0.731157
vn 0.469051 -0.495380 0.731156
vn -0.491846 0.412646 -0.766689
vn -0.491845 0.412646 -0.766689
vn -0.539176 0.053892 -0.840467
vn -0.491846 0.412646 -0.766689
vn -0.539176 0.053892 -0.840467
vn -0.539176 0.053892 -0.840467
vn -0.841689 0.000039 0.539963
vn -0.841689 0.000039 0.539963
vn -0.466645 -0.869442 0.162212
vn -0.841689 0.000039 0.539963
vn -0.466645 -0.869442 0.162212
vn -0.466646 -0.869442 0.162212
vn 0.841689 -0.000039 -0.539962
vn 0.841689 -0.000039 -0.539963
vn 0.341973 -0.869448 -0.356532
vn 0.841689 -0.000039 -0.539962
vn 0.341973 -0.869448 -0.356532
vn 0.341973 -0.869448 -0.356532
vn 0.071069 0.991300 0.110783
vn 0.071070 0.991300 0.110783
vn 0.071069 0.991300 0.110783
vn 0.071069 0.991300 0.110783
vn 0.071069 0.991300 0.110783
vn 0.071069 0.991300 0.110783
vn -0.415987 -0.869332 0.266864
vn -0.841690 0.000000 0.539961
vn -0.841690 0.000000 0.539961
vn -0.415987 -0.869332 0.266864
vn -0.841690 0.000000 0.539961
vn -0.415987 -0.869332 0.266864
vn -0.539960 0.000000 -0.841690
vn -0.328402 0.000000 -0.944538
vn -0.205631 -0.873397 -0.441467
vn -0.539960 0.000000 -0.841690
vn -0.205631 -0.873397 -0.441467
vn -0.352957 -0.756778 -0.550190
vn 0.483839 0.443924 0.754209
vn -0.065553 0.605854 0.792871
vn -0.045267 0.838758 0.542620
vn 0.483839 0.443924 0.754209
vn -0.045267 0.838758 0.542620
vn 0.381298 0.708053 0.594368
vn -0.352957 -0.756778 -0.550190
vn -0.315551 -0.873397 -0.370951
vn -0.721640 0.000000 -0.692268
vn -0.352957 -0.756778 -0.550190
vn -0.721640 0.000000 -0.692268
vn -0.539960 0.000000 -0.841690
vn 0.395346 -0.443692 0.804263
vn 0.220443 0.000000 0.975400
vn 0.263768 -0.794852 0.546477
vn 0.263768 -0.794852 0.546477
vn 0.386763 -0.794852 0.467572
vn 0.566228 -0.443692 0.694639
vn 0.263768 -0.794852 0.546477
vn 0.566228 -0.443692 0.694639
vn 0.395346 -0.443692 0.804263
vn -0.065553 0.605854 0.792871
vn -0.719898 0.518132 0.461829
vn -0.532475 0.774457 0.341594
vn -0.065553 0.605854 0.792871
vn -0.532475 0.774457 0.341594
vn -0.045267 0.838758 0.542620
vn -0.415987 -0.869332 0.266864
vn -0.415987 -0.869332 0.266864
vn -0.415987 -0.869332 0.266864
vn -0.415987 -0.869332 0.266864
vn -0.415987 -0.869332 0.266864
vn -0.415987 -0.869332 0.266864
vn 0.415987 -0.869332 -0.266864
vn 0.415987 -0.869332 -0.266864
vn 0.415987 -0.869332 -0.266864
vn 0.415987 -0.869332 -0.266864
vn 0.415987 -0.869332 -0.266864
vn 0.415987 -0.869332 -0.266864
vn -0.483839 0.443925 -0.754209
vn -0.483839 0.443925 -0.754208
vn -0.381297 0.708054 -0.594366
vn -0.483839 0.443925 -0.754209
vn -0.381297 0.708054 -0.594366
vn -0.381297 0.708055 -0.594366
vn -0.266541 -0.869672 -0.415484
vn -0.315551 -0.873397 -0.370951
vn -0.352957 -0.756778 -0.550190
vn -0.266541 -0.869672 -0.415484
vn -0.352957 -0.756778 -0.550190
vn -0.205631 -0.873397 -0.441467
vn -0.266541 -0.869672 -0.415484
vn -0.205631 -0.873397 -0.441467
vn -0.266541 -0.869672 -0.415484
vn 0.719898 0.518132 -0.461829
vn 0.719898 0.518132 -0.461829
vn 0.532475 0.774458 -0.341593
vn 0.719898 0.518132 -0.461829
vn 0.532475 0.774458 -0.341593
vn 0.532475 0.774458 -0.341593
vn 0.310349 -0.818320 0.483773
vn 0.386763 -0.794852 0.467572
vn 0.263768 -0.794852 0.546477
vn 0.310349 -0.818320 0.483773
vn 0.263768 -0.794852 0.546477
vn 0.310349 -0.818320 0.483773
vn 0.310349 -0.818320 0.483773
vn 0.310349 -0.818320 0.483773
vn -0.065553 0.605854 0.792871
vn 0.310349 -0.818320 0.483773
vn -0.065553 0.605854 0.792871
vn 0.483839 0.443924 0.754209
vn 0.415987 -0.869332 -0.266864
vn 0.415987 -0.869332 -0.266864
vn 0.719898 0.518132 -0.461829
vn 0.415987 -0.869332 -0.266864
vn 0.719898 0.518132 -0.461829
vn 0.719898 0.518132 -0.461829
vn -0.266541 -0.869672 -0.415484
vn -0.266541 -0.869672 -0.415484
vn -0.483839 0.443925 -0.754208
vn -0.266541 -0.869672 -0.415484
vn -0.483839 0.443925 -0.754208
vn -0.483839 0.443925 -0.754209
vn -0.415987 -0.869332 0.266864
vn -0.415987 -0.869332 0.266864
vn -0.719898 0.518132 0.461829
vn -0.415987 -0.869332 0.266864
vn -0.719898 0.518132 0.461829
vn -0.065553 0.605854 0.792871
f 1/1/1 2/2/2 4/3/3
f 1/4/4 4/5/5 42/6/6
f 1/7/7 42/8/8 3/9/9
f 2/10/10 6/11/11 8/12/12
f 2/13/13 8/14/14 4/15/15
f 6/16/16 5/17/17 7/18/18
f 6/19/19 7/20/20 41/21/21
f 6/22/22 41/23/23 8/24/24
f 5/25/25 1/26/26 3/27/27
f 5/28/28 3/29/29 7/30/30
f 4/31/31 8/32/32 41/33/33
f 4/34/34 41/35/35 43/36/36
f 1/37/37 5/38/38 6/39/39
f 1/40/40 6/41/41 2/42/42
f 32/43/43 10/44/44 21/45/45
f 32/46/46 21/47/47 20/48/48
f 31/49/49 32/50/50 20/51/51
f 31/52/52 20/53/53 28/54/54
f 10/55/55 23/56/56 22/57/57
f 10/58/58 22/59/59 21/60/60
f 23/61/61 31/62/62 28/63/63
f 23/64/64 28/65/65 22/66/66
f 26/67/67 9/68/68 15/69/69
f 26/70/70 15/71/71 29/72/72
f 17/73/73 12/74/74 38/75/75
f 17/76/76 38/77/77 40/78/78
f 9/79/79 27/80/80 14/81/81
f 9/82/82 14/83/83 15/84/84
f 13/85/85 17/86/86 40/87/87
f 13/88/88 40/89/89 39/90/90
f 27/91/91 16/92/92 18/93/93
f 27/94/94 18/95/95 14/96/96
f 16/97/97 26/98/98 29/99/99
f 16/100/100 29/101/101 18/102/102
f 30/103/103 13/104/104 39/105/105
f 30/106/106 39/107/107 37/108/108
f 12/109/109 30/110/110 37/111/111
f 12/112/112 37/113/113 38/114/114
f 19/115/115 24/116/116 34/117/117
f 19/118/118 34/119/119 33/120/120
f 11/121/121 19/122/122 33/123/123
f 11/124/124 33/125/125 35/126/126
f 24/127/127 25/128/128 36/129/129
f 24/130/130 36/131/131 34/132/132
f 25/133/133 11/134/134 35/135/135
f 25/136/136 35/137/137 36/138/138
f 7/139/139 3/140/140 42/141/141
f 7/142/142 42/143/143 43/144/144
f 43/145/145 42/146/146 4/147/147
f 43/148/148 41/149/149 7/150/150
f 45/151/151 47/152/152 62/153/153
f 47/154/154 45/155/155 49/156/156
f 47/157/157 49/158/158 51/159/159
f 54/160/160 52/161/161 59/162/162
f 54/163/163 59/164/164 55/165/165
f 62/166/166 47/167/167 51/168/168
f 62/169/169 51/170/170 68/171/171
f 62/172/172 68/173/173 50/174/174
f 62/175/175 50/176/176 46/177/177
f 62/178/178 46/179/179 63/180/180
f 62/181/181 63/182/182 64/183/183
f 62/184/184 64/185/185 65/186/186
f 52/187/187 53/188/188 58/189/189
f 52/190/190 58/191/191 59/192/192
f 53/193/193 56/194/194 57/195/195
f 53/196/196 57/197/197 58/198/198
f 56/199/199 54/200/200 55/201/201
f 56/202/202 55/203/203 57/204/204
f 61/205/205 67/206/206 52/207/207
f 61/208/208 52/209/209 54/210/210
f 67/211/211 66/212/212 53/213/213
f 67/214/214 53/215/215 52/216/216
f 66/217/217 60/218/218 56/219/219
f 66/220/220 56/221/221 53/222/222
f 60/223/223 61/224/224 54/225/225
f 60/226/226 54/227/227 56/228/228
f 63/229/229 62/230/230 67/231/231
f 63/232/232 67/233/233 61/234/234
f 65/235/235 64/236/236 60/237/237
f 65/238/238 60/239/239 66/240/240
f 64/241/241 63/242/242 61/243/243
f 64/244/244 61/245/245 60/246/246
f 62/247/247 65/248/248 66/249/249
f 62/250/250 66/251/251 67/252/252
f 58/253/253 57/254/254 55/255/255
f 58/256/256 55/257/257 59/258/258
f 44/259/259 46/260/260 50/261/261
f 44/262/262 50/263/263 48/264/264
f 68/265/265 51/266/266 49/267/267
f 68/268/268 49/269/269 69/270/270
f 74/271/271 75/272/272 81/273/273
f 74/274/274 81/275/275 79/276/276
f 69/277/277 48/278/278 50/279/279
f 69/280/280 50/281/281 68/282/282
f 63/283/283 46/284/284 44/285/285
f 44/286/286 45/287/287 62/288/288
f 44/289/289 62/290/290 63/291/291
f 75/292/292 77/293/293 80/294/294
f 75/295/295 80/296/296 81/297/297
f 73/298/298 44/299/299 48/300/300
f 73/301/301 48/302/302 70/303/303
f 72/304/304 49/305/305 45/306/306
f 72/307/307 45/308/308 71/309/309
f 77/310/310 76/311/311 78/312/312
f 77/313/313 78/314/314 80/315/315
f 70/316/316 48/317/317 69/318/318
f 70/319/319 69/320/320 49/321/321
f 70/322/322 49/323/323 72/324/324
f 76/325/325 74/326/326 79/327/327
f 76/328/328 79/329/329 78/330/330
f 71/331/331 45/332/332 44/333/333
f 71/334/334 44/335/335 73/336/336
f 71/337/337 73/338/338 75/339/339
f 71/340/340 75/341/341 74/342/342
f 72/343/343 71/344/344 74/345/345
f 72/346/346 74/347/347 76/348/348
f 70/349/349 72/350/350 76/351/351
f 70/352/352 76/353/353 77/354/354
f 73/355/355 70/356/356 77/357/357
f 73/358/358 77/359/359 75/360/360
