v -0.041290 0.105389 0.007118
v -0.100009 0.092624 0.007118
v -0.144407 0.004926 0.007118
v -0.041290 0.029653 0.114156
v -0.105346 -0.059852 0.097679
v 0.018844 0.092624 0.007118
v 0.067859 0.046581 0.007118
v 0.067859 -0.036729 0.007118
v 0.060547 -0.117816 0.007118
v -0.139138 -0.117816 0.007118
v -0.040934 -0.134815 0.059628
v -0.041290 0.084106 0.071948
v 0.016800 0.056419 0.075450
v 0.020501 -0.136558 0.084934
v -0.015938 0.046823 -0.123333
v -0.090276 0.016591 -0.117594
v -0.040965 -0.112753 -0.081165
v -0.015942 -0.013913 -0.123062
v 0.026413 0.088231 -0.064983
v -0.074878 0.093269 -0.071525
v -0.040819 -0.097457 -0.110776
v 0.094621 0.170851 -0.024336
v 0.079758 0.175871 -0.021093
v 0.052157 -0.001708 -0.052353
v 0.074539 -0.032700 -0.014443
v 0.067859 -0.020069 0.007118
v 0.067859 0.013251 0.007118
v 0.073777 0.175897 -0.031291
v 0.090733 0.170868 -0.030964
v 0.062067 0.030024 -0.036276
v 0.074793 0.029968 -0.014579
v 0.098144 0.019325 -0.035581
v 0.089748 0.010469 -0.049617
v 0.095766 -0.013726 -0.038941
v 0.114687 -0.002407 -0.007375
v 0.106415 0.019288 -0.021478
v -0.092638 -0.098701 -0.099244
v -0.074363 0.035370 0.103983
v -0.057304 -0.067318 0.121973
v 0.007813 -0.062340 0.107502
v -0.083276 -0.138580 0.097543
v -0.028420 -0.138239 0.114372
vt 0.834520 0.721651
vt 0.802476 0.655907
vt 0.853461 0.680945
vt 0.925915 0.797507
vt 0.897382 0.787180
vt 0.949742 0.783459
vt 0.953182 0.617683
vt 0.953182 0.609295
vt 0.956794 0.611323
vt 0.879433 0.898490
vt 0.921705 0.924193
vt 0.849060 0.920490
vt 0.921705 0.924193
vt 0.971570 0.867698
vt 0.939728 0.932151
vt 0.499872 0.864058
vt 0.499793 0.856356
vt 0.478276 0.863431
vt 0.843099 0.783459
vt 0.897382 0.787180
vt 0.897278 0.798422
vt 0.562401 0.924126
vt 0.558650 0.932490
vt 0.558650 0.915709
vt 0.932748 0.876272
vt 0.971570 0.867698
vt 0.921705 0.924193
vt 0.854488 0.932151
vt 0.819335 0.898312
vt 0.849060 0.920490
vt 0.921705 0.924193
vt 0.879433 0.898490
vt 0.932748 0.876272
vt 0.632308 0.161624
vt 0.721752 0.164710
vt 0.688137 0.144815
vt 0.580886 0.134434
vt 0.534357 0.164710
vt 0.632308 0.161624
vt 0.877887 0.715595
vt 0.877887 0.676881
vt 0.920791 0.695910
vt 0.853461 0.680945
vt 0.802476 0.655907
vt 0.830578 0.613246
vt 0.920791 0.695910
vt 0.956055 0.681641
vt 0.922300 0.721651
vt 0.853906 0.680859
vt 0.878125 0.676953
vt 0.878125 0.716016
vt 0.632308 0.161624
vt 0.649602 0.122918
vt 0.580886 0.134434
vt 0.632308 0.161624
vt 0.688137 0.144815
vt 0.649602 0.122918
vt 0.914154 0.611476
vt 0.956055 0.681641
vt 0.920791 0.695910
vt 0.566406 0.070312
vt 0.515625 0.109375
vt 0.488281 0.066406
vt 0.566406 0.070312
vt 0.515625 0.109375
vt 0.488281 0.066406
vt 0.866060 0.607937
vt 0.830578 0.613246
vt 0.851475 0.563046
vt 0.853461 0.680945
vt 0.830578 0.613246
vt 0.866060 0.607937
vt 0.914154 0.611476
vt 0.866060 0.607937
vt 0.887393 0.563289
vt 0.925915 0.797507
vt 0.932748 0.876272
vt 0.879436 0.853853
vt 0.925915 0.797507
vt 0.879436 0.853853
vt 0.897278 0.798422
vt 0.897278 0.798422
vt 0.879436 0.853853
vt 0.830596 0.862823
vt 0.897278 0.798422
vt 0.830596 0.862823
vt 0.814544 0.840046
vt 0.897278 0.798422
vt 0.814544 0.840046
vt 0.819335 0.837085
vt 0.897278 0.798422
vt 0.819335 0.837085
vt 0.843099 0.783459
vt 0.966017 0.622516
vt 0.957660 0.645471
vt 0.973943 0.636569
vt 0.963523 0.656551
vt 0.963523 0.631871
vt 0.981007 0.644953
vt 0.966112 0.668932
vt 0.963523 0.656551
vt 0.981007 0.644953
vt 0.966112 0.668932
vt 0.981007 0.644953
vt 0.977919 0.661022
vt 0.963523 0.631871
vt 0.966017 0.622516
vt 0.973943 0.636569
vt 0.963523 0.631871
vt 0.973943 0.636569
vt 0.981007 0.644953
vt 0.957660 0.645471
vt 0.971696 0.654490
vt 0.973943 0.636569
vt 0.866060 0.607937
vt 0.877887 0.676881
vt 0.853461 0.680945
vt 0.957660 0.645471
vt 0.961361 0.668974
vt 0.974830 0.661049
vt 0.957660 0.645471
vt 0.974830 0.661049
vt 0.971696 0.654490
vt 0.985186 0.633611
vt 0.989660 0.633592
vt 0.994133 0.622669
vt 0.985186 0.633611
vt 0.994133 0.622669
vt 0.983900 0.616970
vt 0.985186 0.633611
vt 0.983900 0.616970
vt 0.980645 0.629152
vt 0.879436 0.853853
vt 0.879433 0.898490
vt 0.823489 0.886144
vt 0.879436 0.853853
vt 0.823489 0.886144
vt 0.830596 0.862823
vt 0.849060 0.920490
vt 0.921705 0.924193
vt 0.902344 0.943359
vt 0.849060 0.920490
vt 0.902344 0.943359
vt 0.856120 0.936849
vt 0.932748 0.876272
vt 0.879433 0.898490
vt 0.879436 0.853853
vt 0.949742 0.783459
vt 0.971570 0.867698
vt 0.932748 0.876272
vt 0.949742 0.783459
vt 0.932748 0.876272
vt 0.925915 0.797507
vt 0.849060 0.920490
vt 0.819335 0.898312
vt 0.814362 0.886103
vt 0.849060 0.920490
vt 0.814362 0.886103
vt 0.823489 0.886144
vt 0.849060 0.920490
vt 0.823489 0.886144
vt 0.879433 0.898490
vt 0.942057 0.934896
vt 0.902344 0.943359
vt 0.921705 0.924193
vt 0.914329 0.564484
vt 0.934029 0.577809
vt 0.958502 0.629685
vt 0.914329 0.564484
vt 0.958502 0.629685
vt 0.914154 0.611476
vt 0.851475 0.563046
vt 0.887393 0.563289
vt 0.866060 0.607937
vt 0.920791 0.695910
vt 0.877887 0.676881
vt 0.866060 0.607937
vt 0.920791 0.695910
vt 0.866060 0.607937
vt 0.914154 0.611476
vt 0.853461 0.680945
vt 0.877887 0.715595
vt 0.877887 0.730727
vt 0.853461 0.680945
vt 0.877887 0.730727
vt 0.834520 0.721651
vt 0.922300 0.721651
vt 0.877887 0.730727
vt 0.877887 0.715595
vt 0.922300 0.721651
vt 0.877887 0.715595
vt 0.920791 0.695910
vt 0.830578 0.613246
vt 0.802476 0.655907
vt 0.824207 0.577809
vt 0.830578 0.613246
vt 0.824207 0.577809
vt 0.851475 0.563046
vt 0.958502 0.665220
vt 0.956055 0.681641
vt 0.914154 0.611476
vt 0.914154 0.611476
vt 0.958502 0.629685
vt 0.958502 0.641530
vt 0.914154 0.611476
vt 0.958502 0.641530
vt 0.958502 0.665220
vt 0.887393 0.563289
vt 0.914329 0.564484
vt 0.914154 0.611476
vt 0.555518 0.924154
vt 0.562401 0.924126
vt 0.565086 0.997587
vt 0.555518 0.924154
vt 0.565086 0.997587
vt 0.561851 0.997600
vt 0.979911 0.660156
vt 0.964286 0.660714
vt 0.968750 0.780134
vt 0.979911 0.660156
vt 0.968750 0.780134
vt 0.974051 0.780134
vt 0.978737 0.661049
vt 0.965267 0.668974
vt 0.968750 0.780134
vt 0.978737 0.661049
vt 0.968750 0.780134
vt 0.974051 0.780134
vt 0.970018 0.668932
vt 0.981825 0.661022
vt 0.975446 0.780413
vt 0.970018 0.668932
vt 0.975446 0.780413
vt 0.970424 0.780413
vt 0.561851 0.997600
vt 0.565086 0.997587
vt 0.573124 0.995059
vt 0.561851 0.997600
vt 0.573124 0.995059
vt 0.571022 0.995068
vn -0.480397 0.869478 0.115005
vn -0.989866 0.132266 0.051682
vn -0.312630 0.384214 0.868701
vn -0.424086 -0.644932 -0.635779
vn -0.000674 -0.956500 -0.291732
vn -0.106578 -0.973328 -0.203159
vn 0.730873 -0.244174 0.637342
vn 0.978900 -0.073906 0.190505
vn 0.782096 -0.623155 -0.002016
vn 0.271086 0.407201 -0.872181
vn -0.318723 0.843694 -0.431968
vn 0.544629 0.782250 -0.302430
vn -0.318723 0.843694 -0.431968
vn -0.989866 0.132266 0.051682
vn -0.480397 0.869478 0.115005
vn 0.000287 -0.610011 -0.792393
vn -0.000674 -0.956500 -0.291732
vn -0.424086 -0.644932 -0.635779
vn 0.104710 -0.973282 -0.204346
vn -0.000674 -0.956500 -0.291732
vn 0.000287 -0.610011 -0.792393
vn 0.979737 0.193490 -0.051733
vn 0.904568 0.354063 0.237477
vn 0.716359 0.221578 0.661614
vn -0.621029 0.143845 -0.770475
vn -0.989866 0.132266 0.051682
vn -0.318723 0.843694 -0.431968
vn 0.456908 0.881658 0.117962
vn 0.904568 0.354063 0.237477
vn 0.544629 0.782250 -0.302430
vn -0.318723 0.843694 -0.431968
vn 0.271086 0.407201 -0.872181
vn -0.621029 0.143845 -0.770475
vn -0.000433 -0.991913 -0.126918
vn 0.104710 -0.973282 -0.204346
vn 0.040270 -0.985367 -0.165618
vn 0.023309 -0.992548 -0.119607
vn -0.106578 -0.973328 -0.203159
vn -0.000433 -0.991913 -0.126918
vn -0.001090 0.766651 0.642064
vn -0.001286 0.386710 0.922200
vn 0.526879 0.555793 0.643034
vn -0.312630 0.384214 0.868701
vn -0.989866 0.132266 0.051682
vn -0.794180 -0.017291 0.607437
vn 0.526879 0.555793 0.643034
vn 0.904568 0.354063 0.237477
vn 0.456908 0.881658 0.117962
vn -0.312630 0.384214 0.868701
vn -0.001286 0.386710 0.922200
vn -0.001090 0.766651 0.642064
vn -0.000433 -0.991913 -0.126918
vn -0.043423 -0.998057 -0.044682
vn 0.023309 -0.992548 -0.119607
vn -0.000433 -0.991913 -0.126918
vn 0.040270 -0.985367 -0.165618
vn -0.043423 -0.998057 -0.044682
vn 0.609403 -0.011710 0.792774
vn 0.904568 0.354063 0.237477
vn 0.526879 0.555793 0.643034
vn -0.000433 -0.991913 -0.126918
vn -0.106578 -0.973328 -0.203159
vn -0.000674 -0.956500 -0.291732
vn -0.000674 -0.956500 -0.291732
vn 0.104710 -0.973282 -0.204346
vn -0.000433 -0.991913 -0.126918
vn -0.212806 -0.004150 0.977086
vn -0.794180 -0.017291 0.607437
vn -0.611711 -0.132790 0.779857
vn -0.312630 0.384214 0.868701
vn -0.794180 -0.017291 0.607437
vn -0.212806 -0.004150 0.977086
vn 0.609403 -0.011710 0.792774
vn -0.212806 -0.004150 0.977086
vn 0.217984 -0.132097 0.966971
vn -0.424086 -0.644932 -0.635779
vn -0.621029 0.143845 -0.770475
vn 0.308402 -0.113226 -0.944494
vn -0.424086 -0.644932 -0.635779
vn 0.308402 -0.113226 -0.944494
vn 0.000287 -0.610011 -0.792393
vn 0.000287 -0.610011 -0.792393
vn 0.308402 -0.113226 -0.944494
vn 0.557003 -0.065606 -0.827915
vn 0.000287 -0.610011 -0.792393
vn 0.557003 -0.065606 -0.827915
vn 0.782096 -0.623155 -0.002016
vn 0.000287 -0.610011 -0.792393
vn 0.782096 -0.623155 -0.002016
vn 0.978900 -0.073906 0.190505
vn 0.000287 -0.610011 -0.792393
vn 0.978900 -0.073906 0.190505
vn 0.988217 -0.152515 -0.012924
vn 0.782096 -0.623155 -0.002016
vn 0.557003 -0.065606 -0.827915
vn 0.505041 -0.614408 -0.606165
vn 0.716359 0.221578 0.661614
vn 0.730873 -0.244174 0.637342
vn 0.380832 -0.028153 0.924216
vn 0.291965 0.437195 0.850657
vn 0.716359 0.221578 0.661614
vn 0.380832 -0.028153 0.924216
vn 0.291965 0.437195 0.850657
vn 0.380832 -0.028153 0.924216
vn 0.291965 0.437195 0.850657
vn 0.730873 -0.244174 0.637342
vn 0.782096 -0.623155 -0.002016
vn 0.505041 -0.614408 -0.606165
vn 0.730873 -0.244174 0.637342
vn 0.505041 -0.614408 -0.606165
vn 0.380832 -0.028153 0.924216
vn 0.557003 -0.065606 -0.827915
vn 0.501114 0.285148 -0.817053
vn 0.505041 -0.614408 -0.606165
vn -0.212806 -0.004150 0.977086
vn -0.001286 0.386710 0.922200
vn -0.312630 0.384214 0.868701
vn 0.557003 -0.065606 -0.827915
vn 0.569564 0.330579 -0.752539
vn 0.583748 0.245549 -0.773915
vn 0.557003 -0.065606 -0.827915
vn 0.583748 0.245549 -0.773915
vn 0.501114 0.285148 -0.817053
vn 0.583748 0.245549 -0.773915
vn 0.860739 0.025202 -0.508422
vn 0.859348 -0.007122 -0.511341
vn 0.583748 0.245549 -0.773915
vn 0.859348 -0.007122 -0.511341
vn 0.732742 -0.339339 -0.589862
vn 0.583748 0.245549 -0.773915
vn 0.505041 -0.614408 -0.606165
vn 0.501114 0.285148 -0.817053
vn 0.308402 -0.113226 -0.944494
vn 0.271086 0.407201 -0.872181
vn 0.569564 0.330579 -0.752539
vn 0.308402 -0.113226 -0.944494
vn 0.569564 0.330579 -0.752539
vn 0.557003 -0.065606 -0.827915
vn 0.544629 0.782250 -0.302430
vn -0.318723 0.843694 -0.431968
vn -0.001440 0.991911 0.126929
vn 0.544629 0.782250 -0.302430
vn -0.001440 0.991911 0.126929
vn 0.456908 0.881658 0.117962
vn -0.621029 0.143845 -0.770475
vn 0.271086 0.407201 -0.872181
vn 0.308402 -0.113226 -0.944494
vn -0.996934 -0.077878 -0.007630
vn -0.989866 0.132266 0.051682
vn -0.621029 0.143845 -0.770475
vn -0.996934 -0.077878 -0.007630
vn -0.621029 0.143845 -0.770475
vn -0.424086 -0.644932 -0.635779
vn 0.544629 0.782250 -0.302430
vn 0.904568 0.354063 0.237477
vn 0.979737 0.193490 -0.051733
vn 0.544629 0.782250 -0.302430
vn 0.979737 0.193490 -0.051733
vn 0.569564 0.330579 -0.752539
vn 0.544629 0.782250 -0.302430
vn 0.569564 0.330579 -0.752539
vn 0.271086 0.407201 -0.872181
vn -0.480397 0.869478 0.115005
vn -0.001440 0.991911 0.126929
vn -0.318723 0.843694 -0.431968
vn 0.752460 -0.127307 0.646217
vn 0.988217 -0.152515 -0.012924
vn 0.978900 -0.073906 0.190505
vn 0.752460 -0.127307 0.646217
vn 0.978900 -0.073906 0.190505
vn 0.609403 -0.011710 0.792774
vn -0.611711 -0.132790 0.779857
vn 0.217984 -0.132097 0.966971
vn -0.212806 -0.004150 0.977086
vn 0.526879 0.555793 0.643034
vn -0.001286 0.386710 0.922200
vn -0.212806 -0.004150 0.977086
vn 0.526879 0.555793 0.643034
vn -0.212806 -0.004150 0.977086
vn 0.609403 -0.011710 0.792774
vn -0.312630 0.384214 0.868701
vn -0.001090 0.766651 0.642064
vn -0.001440 0.991911 0.126929
vn -0.312630 0.384214 0.868701
vn -0.001440 0.991911 0.126929
vn -0.480397 0.869478 0.115005
vn 0.456908 0.881658 0.117962
vn -0.001440 0.991911 0.126929
vn -0.001090 0.766651 0.642064
vn 0.456908 0.881658 0.117962
vn -0.001090 0.766651 0.642064
vn 0.526879 0.555793 0.643034
vn -0.794180 -0.017291 0.607437
vn -0.989866 0.132266 0.051682
vn -0.996934 -0.077878 -0.007630
vn -0.794180 -0.017291 0.607437
vn -0.996934 -0.077878 -0.007630
vn -0.611711 -0.132790 0.779857
vn 0.716359 0.221578 0.661614
vn 0.904568 0.354063 0.237477
vn 0.609403 -0.011710 0.792774
vn 0.609403 -0.011710 0.792774
vn 0.978900 -0.073906 0.190505
vn 0.730873 -0.244174 0.637342
vn 0.609403 -0.011710 0.792774
vn 0.730873 -0.244174 0.637342
vn 0.716359 0.221578 0.661614
vn 0.217984 -0.132097 0.966971
vn 0.752460 -0.127307 0.646217
vn 0.609403 -0.011710 0.792774
vn -0.861355 0.051874 0.505347
vn -0.861355 0.051874 0.505347
vn -0.861355 0.051874 0.505347
vn -0.861355 0.051874 0.505347
vn -0.861355 0.051874 0.505347
vn -0.861355 0.051874 0.505347
vn 0.860739 0.025202 -0.508422
vn 0.583748 0.245549 -0.773915
vn 0.508554 0.051055 -0.859515
vn 0.860739 0.025202 -0.508422
vn 0.508554 0.051055 -0.859515
vn 0.861221 0.057500 -0.504967
vn 0.583748 0.245549 -0.773915
vn 0.569564 0.330579 -0.752539
vn 0.028687 0.031840 -0.999081
vn 0.583748 0.245549 -0.773915
vn 0.028687 0.031840 -0.999081
vn 0.508554 0.051055 -0.859515
vn 0.291965 0.437195 0.850657
vn 0.291965 0.437195 0.850657
vn 0.224554 0.035836 0.973803
vn 0.291965 0.437195 0.850657
vn 0.224554 0.035836 0.973803
vn 0.224554 0.035836 0.973803
vn 0.283410 0.944915 -0.163750
vn 0.283410 0.944915 -0.163750
vn 0.283410 0.944915 -0.163750
vn 0.283410 0.944915 -0.163750
vn 0.283410 0.944915 -0.163750
vn 0.283410 0.944915 -0.163750
f 2/1/1 3/2/2 38/3/3
f 37/4/4 17/5/5 10/6/6
f 26/7/7 8/8/8 25/9/9
f 15/10/10 20/11/11 19/12/12
f 20/13/13 3/14/14 2/15/15
f 21/16/16 17/17/17 37/18/18
f 9/19/19 17/20/20 21/21/21
f 31/22/22 7/23/23 27/24/24
f 16/25/25 3/26/26 20/27/27
f 6/28/28 7/29/29 19/30/30
f 20/31/31 15/32/32 16/33/33
f 11/34/34 9/35/35 14/36/36
f 41/37/37 10/38/38 11/39/39
f 12/40/40 4/41/41 13/42/42
f 38/43/43 3/44/44 5/45/45
f 13/46/46 7/47/47 6/48/48
f 38/49/49 4/50/50 12/51/51
f 11/52/52 42/53/53 41/54/54
f 11/55/55 14/56/56 42/57/57
f 40/58/58 7/59/59 13/60/60
f 11/61/61 10/62/62 17/63/63
f 17/64/64 9/65/65 11/66/66
f 39/67/67 5/68/68 41/69/69
f 38/70/70 5/71/71 39/72/72
f 40/73/73 39/74/74 42/75/75
f 37/76/76 16/77/77 18/78/78
f 37/79/79 18/80/80 21/81/81
f 21/82/82 18/83/83 24/84/84
f 21/85/85 24/86/86 25/87/87
f 21/88/88 25/89/89 8/90/90
f 21/91/91 8/92/92 9/93/93
f 25/94/94 24/95/95 34/96/96
f 27/97/97 26/98/98 35/99/99
f 31/100/100 27/101/101 35/102/102
f 31/103/103 35/104/104 36/105/105
f 26/106/106 25/107/107 34/108/108
f 26/109/109 34/110/110 35/111/111
f 24/112/112 33/113/113 34/114/114
f 39/115/115 4/116/116 38/117/117
f 24/118/118 30/119/119 32/120/120
f 24/121/121 32/122/122 33/123/123
f 32/124/124 36/125/125 35/126/126
f 32/127/127 35/128/128 34/129/129
f 32/130/130 34/131/131 33/132/132
f 18/133/133 15/134/134 30/135/135
f 18/136/136 30/137/137 24/138/138
f 19/139/139 20/140/140 1/141/141
f 19/142/142 1/143/143 6/144/144
f 16/145/145 15/146/146 18/147/147
f 10/148/148 3/149/149 16/150/150
f 10/151/151 16/152/152 37/153/153
f 19/154/154 7/155/155 31/156/156
f 19/157/157 31/158/158 30/159/159
f 19/160/160 30/161/161 15/162/162
f 2/163/163 1/164/164 20/165/165
f 14/166/166 9/167/167 8/168/168
f 14/169/169 8/170/170 40/171/171
f 41/172/172 42/173/173 39/174/174
f 13/175/175 4/176/176 39/177/177
f 13/178/178 39/179/179 40/180/180
f 38/181/181 12/182/182 1/183/183
f 38/184/184 1/185/185 2/186/186
f 6/187/187 1/188/188 12/189/189
f 6/190/190 12/191/191 13/192/192
f 5/193/193 3/194/194 10/195/195
f 5/196/196 10/197/197 41/198/198
f 27/199/199 7/200/200 40/201/201
f 40/202/202 8/203/203 26/204/204
f 40/205/205 26/206/206 27/207/207
f 42/208/208 14/209/209 40/210/210
f 30/211/211 31/212/212 23/213/213
f 30/214/214 23/215/215 28/216/216
f 36/217/217 32/218/218 29/219/219
f 36/220/220 29/221/221 22/222/222
f 32/223/223 30/224/224 28/225/225
f 32/226/226 28/227/227 29/228/228
f 31/229/229 36/230/230 22/231/231
f 31/232/232 22/233/233 23/234/234
f 28/235/235 23/236/236 22/237/237
f 28/238/238 22/239/239 29/240/240
