v -0.986000 -0.000018 -2.014321
v -0.986000 -0.000018 2.014320
v -0.986000 0.269982 -1.541115
v -0.986000 0.269982 1.541115
v -1.414000 -0.000018 -2.014321
v -1.414000 -0.000018 2.014320
v -1.414000 0.269982 -1.541115
v -1.414000 0.269982 1.541114
vt 0.146484 0.257812
vt 0.863281 0.257812
vt 0.962891 0.183594
vt 0.146484 0.257812
vt 0.962891 0.183594
vt 0.041016 0.183594
vt 0.269531 0.029297
vt 0.267578 0.175781
vt 0.003906 0.173828
vt 0.269531 0.029297
vt 0.003906 0.173828
vt 0.003906 0.029297
vt 0.146484 0.257812
vt 0.863281 0.257812
vt 0.962891 0.183594
vt 0.146484 0.257812
vt 0.962891 0.183594
vt 0.041016 0.183594
vt 0.724609 0.177734
vt 0.724609 0.029297
vt 0.994141 0.029297
vt 0.724609 0.177734
vt 0.994141 0.029297
vt 0.994141 0.179688
vt 0.724609 0.177734
vt 0.267578 0.175781
vt 0.269531 0.029297
vt 0.724609 0.177734
vt 0.269531 0.029297
vt 0.724609 0.029297
vn 1.000000 0.000000 0.000000
vn 1.000000 0.000000 0.000000
vn 1.000000 0.000000 0.000000
vn 1.000000 0.000000 0.000000
vn 1.000000 0.000000 0.000000
vn 1.000000 0.000000 0.000000
vn -0.000000 0.868562 0.495581
vn -0.000000 0.868562 0.495581
vn -0.000000 0.868562 0.495581
vn -0.000000 0.868562 0.495581
vn -0.000000 0.868562 0.495581
vn -0.000000 0.868562 0.495581
vn -1.000000 0.000000 -0.000000
vn -1.000000 0.000000 -0.000000
vn -1.000000 0.000000 -0.000000
vn -1.000000 0.000000 -0.000000
vn -1.000000 0.000000 -0.000000
vn -1.000000 0.000000 -0.000000
vn 0.000000 0.868562 -0.495581
vn 0.000000 0.868562 -0.495581
vn 0.000000 0.868562 -0.495581
vn 0.000000 0.868562 -0.495581
vn 0.000000 0.868562 -0.495581
vn 0.000000 0.868562 -0.495581
vn 0.000000 1.000000 0.000000
vn 0.000000 1.000000 0.000000
vn 0.000000 1.000000 0.000000
vn 0.000000 1.000000 0.000000
vn 0.000000 1.000000 0.000000
vn 0.000000 1.000000 0.000000
f 3/1/1 4/2/2 2/3/3
f 3/4/4 2/5/5 1/6/6
f 4/7/7 8/8/8 6/9/9
f 4/10/10 6/11/11 2/12/12
f 8/13/13 7/14/14 5/15/15
f 8/16/16 5/17/17 6/18/18
f 7/19/19 3/20/20 1/21/21
f 7/22/22 1/23/23 5/24/24
f 7/25/25 8/26/26 4/27/27
f 7/28/28 4/29/29 3/30/30
