v -2.682500 0.195869 0.181732
v 0.000000 0.707107 0.492498
v 0.000000 -0.707107 -0.492498
v 2.500000 0.097934 0.403059
v 2.682500 -0.195869 -0.181732
v 0.000000 -0.707107 0.492498
v -2.500000 -0.097934 -0.403059
v 0.000000 0.707107 -0.492498
v 2.500000 0.195868 -0.442654
v -2.500000 -0.195869 0.442654
v 0.000000 0.000000 -0.707107
v 0.000000 -0.000000 0.707107
vt 0.000000 0.000000
vt 0.000000 0.000000
vt 0.000000 0.000000
vt 0.000000 0.000000
vt 0.000000 0.000000
vt 0.000000 0.000000
vt 0.000000 0.000000
vt 0.000000 0.000000
vt 0.000000 0.000000
vt 0.000000 0.000000
vt 0.000000 0.000000
vt 0.000000 0.000000
vt 0.000000 0.000000
vt 0.000000 0.000000
vt 0.000000 0.000000
vt 0.000000 0.000000
vt 0.000000 0.000000
vt 0.000000 0.000000
vt 0.000000 0.000000
vt 0.000000 0.000000
vt 0.000000 0.000000
vt 0.000000 0.000000
vt 0.000000 0.000000
vt 0.000000 0.000000
vt 0.000000 0.000000
vt 0.000000 0.000000
vt 0.000000 0.000000
vt 0.000000 0.000000
vt 0.000000 0.000000
vt 0.000000 0.000000
vt 0.000000 0.000000
vt 0.000000 0.000000
vt 0.000000 0.000000
vt 0.000000 0.000000
vt 0.000000 0.000000
vt 0.000000 0.000000
vt 0.000000 0.000000
vt 0.000000 0.000000
vt 0.000000 0.000000
vt 0.000000 0.000000
vt 0.000000 0.000000
vt 0.000000 0.000000
vt 0.000000 0.000000
vt 0.000000 0.000000
vt 0.000000 0.000000
vt 0.000000 0.000000
vt 0.000000 0.000000
vt 0.000000 0.000000
vt 0.000000 0.000000
vt 0.000000 0.000000
vt 0.000000 0.000000
vt 0.000000 0.000000
vt 0.000000 0.000000
vt 0.000000 0.000000
vt 0.000000 0.000000
vt 0.000000 0.000000
vt 0.000000 0.000000
vt 0.000000 0.000000
vt 0.000000 0.000000
vt 0.000000 0.000000
vn 0.611451 0.362449 -0.703391
vn 0.707683 0.180435 0.683102
vn 0.891207 -0.374995 -0.255205
vn -0.891207 0.374995 0.255205
vn -0.707683 -0.180435 -0.683102
vn -0.611451 -0.362448 0.703391
vn -0.707683 -0.180435 -0.683102
vn 0.000000 0.305867 -0.952074
vn 0.000000 0.000000 -1.000000
vn 0.000000 0.000000 -1.000000
vn 0.000000 0.305867 -0.952074
vn 0.611451 0.362449 -0.703391
vn 0.000000 1.000000 0.000000
vn -0.707683 -0.180435 -0.683102
vn -0.891207 0.374995 0.255205
vn 0.000000 1.000000 0.000000
vn -0.891207 0.374995 0.255205
vn 0.000000 1.000000 0.000000
vn 0.000000 1.000000 0.000000
vn 0.000000 1.000000 0.000000
vn 0.707683 0.180435 0.683102
vn 0.000000 1.000000 0.000000
vn 0.707683 0.180435 0.683102
vn 0.611451 0.362449 -0.703391
vn -0.611451 -0.362448 0.703391
vn -0.000000 -0.305867 0.952074
vn 0.000000 -0.000000 1.000000
vn 0.000000 -0.000000 1.000000
vn -0.000000 -0.305867 0.952074
vn 0.707683 0.180435 0.683102
vn -0.000000 -1.000000 -0.000000
vn -0.611451 -0.362448 0.703391
vn -0.707683 -0.180435 -0.683102
vn -0.000000 -1.000000 -0.000000
vn -0.707683 -0.180435 -0.683102
vn -0.000000 -1.000000 -0.000000
vn -0.000000 -1.000000 -0.000000
vn -0.000000 -1.000000 -0.000000
vn 0.891207 -0.374995 -0.255205
vn -0.000000 -1.000000 -0.000000
vn 0.891207 -0.374995 -0.255205
vn 0.707683 0.180435 0.683102
vn 0.000000 0.000000 -1.000000
vn -0.000000 -0.305867 -0.952074
vn -0.707683 -0.180435 -0.683102
vn 0.611451 0.362449 -0.703391
vn 0.891207 -0.374995 -0.255205
vn -0.000000 -0.305867 -0.952074
vn 0.611451 0.362449 -0.703391
vn -0.000000 -0.305867 -0.952074
vn 0.000000 0.000000 -1.000000
vn 0.707683 0.180435 0.683102
vn 0.000000 0.305867 0.952074
vn 0.000000 -0.000000 1.000000
vn 0.000000 -0.000000 1.000000
vn 0.000000 0.305867 0.952074
vn -0.891207 0.374995 0.255205
vn 0.000000 -0.000000 1.000000
vn -0.891207 0.374995 0.255205
vn -0.611451 -0.362448 0.703391
f 9/1/1 4/2/2 5/3/3
f 1/4/4 7/5/5 10/6/6
f 7/7/7 8/8/8 11/9/9
f 11/10/10 8/11/11 9/12/12
f 8/13/13 7/14/14 1/15/15
f 8/16/16 1/17/17 2/18/18
f 8/19/19 2/20/20 4/21/21
f 8/22/22 4/23/23 9/24/24
f 10/25/25 6/26/26 12/27/27
f 12/28/28 6/29/29 4/30/30
f 6/31/31 10/32/32 7/33/33
f 6/34/34 7/35/35 3/36/36
f 6/37/37 3/38/38 5/39/39
f 6/40/40 5/41/41 4/42/42
f 11/43/43 3/44/44 7/45/45
f 9/46/46 5/47/47 3/48/48
f 9/49/49 3/50/50 11/51/51
f 4/52/52 2/53/53 12/54/54
f 12/55/55 2/56/56 1/57/57
f 12/58/58 1/59/59 10/60/60
