v -12.443501 0.160858 -4.120078
v -12.514622 0.293158 -3.940766
v -12.671332 0.264546 -3.512078
v -12.562125 0.327863 -3.816459
v -12.479695 0.288367 -4.028028
v -12.665690 0.070075 -3.555263
v -12.679558 0.245923 -3.421919
v -12.691320 0.133822 -3.513488
v -12.510266 0.019281 -4.042063
v -12.741196 0.141403 -3.469348
v -12.722360 0.145763 -3.503417
v -12.642751 0.328045 -3.609227
v -13.385376 -0.003100 -3.610751
v -12.443291 0.258959 -4.117827
v -12.444885 0.044253 -4.119947
v -12.522534 0.049073 -3.926128
v -12.201604 0.118457 -3.481828
v -11.913799 0.053336 -4.738718
v -12.224904 0.095848 -3.538603
v -11.912774 0.032716 -4.750355
v -12.613087 0.188815 -3.487018
v -12.455774 0.196170 -3.482811
v -12.385688 0.196041 -3.510514
v -12.191829 0.096650 -3.599318
v -12.064762 0.062609 -3.712820
v -12.071139 0.062940 -3.762252
v -12.040107 0.056675 -3.819388
v -12.026544 0.052535 -3.781588
v -11.960880 0.034794 -3.836931
v -11.922123 0.020805 -3.805502
v -12.013068 0.038412 -3.662629
v -12.111488 0.038210 -3.510217
v -11.729759 0.181855 -4.951615
v -12.399445 0.171819 -3.644053
v -12.402005 0.177950 -3.777525
v -12.372840 0.166106 -3.871233
v -12.360496 0.161292 -3.903482
v -12.755354 0.186586 -3.842761
v -12.160265 0.173287 -4.157149
v -12.087057 0.208899 -4.245444
v -12.016136 0.184375 -4.329951
v -12.387670 0.208429 -3.527370
v -11.761351 0.092714 -4.726939
v -11.808142 0.024261 -4.684252
v -11.908297 0.129724 -4.714326
v -12.023726 0.039663 -3.650567
v -12.192686 0.255830 -4.337227
v -12.658583 0.165266 -3.430189
v -12.453430 0.271790 -3.914382
v -12.222441 0.096781 -3.545663
v -12.212086 0.065762 -3.442546
v -12.221270 0.135109 -3.488508
v -12.260347 0.048140 -3.510737
v -12.050798 0.023611 -3.693434
v -12.171974 0.016296 -3.565250
v -12.216970 0.030009 -3.512727
v -11.729374 0.161381 -4.963530
v -12.464850 0.302271 -3.777006
v -12.048520 0.295649 -4.371006
v -11.776857 0.165647 -4.797480
v -12.133804 0.234855 -4.422598
v -13.294842 0.053589 -3.683987
v -12.420918 0.272235 -3.996481
v -13.287106 0.005112 -3.676779
v -12.866249 0.199065 -3.647932
v -11.808447 0.003847 -4.696673
v -11.664658 0.164067 -4.918521
v -11.664540 0.143723 -4.930670
v -12.070865 0.210309 -4.260779
v -12.448953 0.278819 -4.103455
v -12.304615 0.149826 -3.988187
v -12.395778 0.258275 -3.962522
v -12.636457 0.174829 -3.463121
v -12.289156 0.228903 -4.268375
v -11.809503 0.134350 -4.920267
v -12.236061 0.041738 -3.501289
v -12.401310 0.040743 -3.999493
v -12.562962 0.069289 -3.515249
v -12.486579 0.065792 -3.801220
v -12.460475 0.048509 -3.901486
v -12.031495 0.079503 -3.686381
v -12.126221 0.118704 -3.539336
v -12.178120 0.116869 -3.490695
v -12.252156 0.085005 -3.449347
v -12.525953 0.029840 -3.684135
v -12.401384 0.047281 -4.110633
v -12.166662 0.145603 -4.321076
v -11.870535 0.026464 -4.690502
v -12.240724 0.116189 -4.251634
v -11.870374 0.006084 -4.702587
v -11.910743 0.039969 -4.662407
v -11.663194 0.114099 -4.832771
v -11.665050 0.094278 -4.845896
v -11.810079 0.154932 -4.908546
v -12.528365 0.041744 -3.564627
v -12.760915 0.043488 -3.655104
v -12.216297 0.302229 -4.170727
v -12.123130 0.332160 -4.266007
v -11.822978 0.093326 -4.643587
v -11.842662 0.178778 -4.676049
v -12.553650 0.287983 -3.536280
v -12.405457 0.218289 -3.596809
v -12.431316 0.127747 -3.510748
v -12.514417 0.193024 -3.483781
v -11.976846 0.051447 -3.742339
v -11.959563 0.029561 -3.724380
v -12.088729 0.072251 -3.692130
v -12.076224 0.066306 -3.702609
v -12.035552 0.038387 -3.636730
v -12.068424 0.026323 -3.677110
v -12.404628 0.180479 -3.710223
v -13.048101 0.063160 -3.657966
v -13.037691 0.026051 -3.715016
v -12.406640 0.083286 -4.674931
v -13.074630 0.120892 -3.681122
v -12.405033 0.061437 -4.683972
v -12.512555 0.323567 -4.336574
v -12.758230 0.289517 -3.615875
v -12.749624 0.210107 -3.538187
v -12.893649 0.188014 -3.701764
v -13.157642 0.116577 -3.664351
v -13.307876 0.049679 -3.626080
v -13.305653 0.035238 -3.568109
v -13.350352 0.023791 -3.521873
v -13.354007 0.021234 -3.561329
v -13.437491 0.030463 -3.532527
v -13.327801 0.012850 -3.674787
v -13.137947 -0.009662 -3.702881
v -12.412592 0.200498 -4.961181
v -12.811727 0.186415 -3.792489
v -12.710124 0.182010 -3.895431
v -12.667349 0.168782 -3.988177
v -12.654390 0.164315 -4.021959
v -13.287431 0.072286 -3.642094
v -12.620534 0.317559 -4.261152
v -12.608971 0.423542 -4.301190
v -12.609521 0.432918 -4.333293
v -12.865279 0.167417 -3.672848
v -12.534842 0.166932 -4.674711
v -12.527993 0.076950 -4.689371
v -13.311266 0.012585 -3.679014
v -12.437299 0.345922 -4.405763
v -12.459964 0.441436 -4.317197
v -12.462440 0.432293 -4.285824
v -12.765414 0.226694 -3.465910
v -12.577548 0.272918 -3.963667
v -13.097683 0.111910 -3.678461
v -13.025355 0.074739 -3.653828
v -13.045004 0.100390 -3.746245
v -13.324462 0.053819 -3.660185
v -13.158680 0.064822 -3.737371
v -13.089175 0.075282 -3.742952
v -12.410285 0.178666 -4.970089
v -13.054153 0.130770 -3.682988
v -12.870944 0.260587 -3.713494
v -13.310422 0.054737 -3.669060
v -12.542067 0.520025 -4.246104
v -12.544029 0.273650 -4.046857
v -13.296041 0.057055 -3.632916
v -13.402927 0.008319 -3.637080
v -12.461761 0.202004 -4.812625
v -12.524836 0.055010 -4.698301
v -12.487082 0.196647 -4.970466
v -12.484404 0.174871 -4.979418
v -12.600442 0.335804 -4.424653
v -12.609716 0.431688 -4.314705
v -12.513708 0.418701 -4.460447
v -12.491325 0.264971 -4.111980
v -13.465724 0.023298 -3.575389
v -12.636037 0.149582 -4.130401
v -12.586030 0.260461 -4.040372
v -12.660804 0.303740 -3.853245
v -12.752974 0.225847 -3.503621
v -12.442592 0.327085 -4.243180
v -12.374671 0.148366 -4.887407
v -13.065496 0.085587 -3.739491
v -12.576533 0.058327 -4.116734
v -12.768429 0.070830 -3.595190
v -12.631508 0.066879 -3.857607
v -12.584593 0.049637 -3.950771
v -13.135328 0.035264 -3.628590
v -13.069348 0.050148 -3.650678
v -13.014470 0.042607 -3.715853
v -12.643051 0.030718 -3.729694
v -12.485300 0.053676 -4.154511
v -12.480598 0.112231 -4.605676
v -12.494720 0.278409 -4.312390
v -12.512981 0.330340 -4.344163
v -12.532538 0.276216 -4.316429
v -12.512940 0.276101 -4.370471
v -13.309509 0.011896 -3.636452
v -12.473603 0.070007 -4.658867
v -12.471004 0.048211 -4.667791
v -12.545512 0.161046 -4.898559
v -12.540593 0.139375 -4.907207
v -12.376695 0.170249 -4.878554
v -12.838552 0.111211 -3.731561
v -12.544775 0.377576 -4.158154
v -12.460601 0.440245 -4.298903
v -12.418830 0.173515 -4.662126
v -12.477530 0.235901 -4.698111
v -12.823859 0.195344 -3.604175
vt 0.538086 0.237305
vt 0.520508 0.269531
vt 0.485352 0.261719
vt 0.347656 0.856771
vt 0.322266 0.871745
vt 0.319661 0.895833
vt 0.321777 0.901855
vt 0.321777 0.925781
vt 0.337402 0.925293
vt 0.260742 0.322266
vt 0.260156 0.260938
vt 0.305990 0.257812
vt 0.305990 0.257812
vt 0.260156 0.260938
vt 0.260742 0.322266
vt 0.291992 0.269531
vt 0.260156 0.260938
vt 0.260938 0.210156
vt 0.253906 0.961914
vt 0.253255 0.910807
vt 0.292969 0.911458
vt 0.317708 0.886068
vt 0.318359 0.922526
vt 0.293620 0.949870
vt 0.303906 0.944531
vt 0.322656 0.938281
vt 0.322656 0.897656
vt 0.322266 0.901855
vt 0.322266 0.876465
vt 0.336426 0.875488
vt 0.322656 0.897656
vt 0.305469 0.900781
vt 0.303906 0.944531
vt 0.337402 0.925293
vt 0.321777 0.925781
vt 0.321777 0.901855
vt 0.319661 0.895833
vt 0.346354 0.890625
vt 0.347656 0.856771
vt 0.321875 0.271094
vt 0.305990 0.257812
vt 0.318750 0.235156
vt 0.337402 0.925293
vt 0.336914 0.901367
vt 0.321777 0.901855
vt 0.411133 0.353841
vt 0.430990 0.354818
vt 0.392476 0.405965
vt 0.846354 0.208333
vt 0.842448 0.361979
vt 0.841309 0.389648
vt 0.324870 0.390625
vt 0.296875 0.352865
vt 0.392476 0.405965
vt 0.296875 0.352865
vt 0.391276 0.352865
vt 0.392476 0.405965
vt 0.392476 0.405965
vt 0.430990 0.354818
vt 0.431315 0.445312
vt 0.075466 0.306041
vt 0.029855 0.308683
vt 0.075437 0.290303
vt 0.047656 0.235937
vt 0.121019 0.271922
vt 0.069103 0.290258
vt 0.027961 0.879477
vt 0.123418 0.900767
vt 0.060893 0.926969
vt 0.958333 0.425781
vt 0.976562 0.208333
vt 0.910156 0.208333
vt 0.293620 0.949870
vt 0.292969 0.911458
vt 0.317708 0.886068
vt 0.292969 0.911458
vt 0.293620 0.949870
vt 0.253906 0.961914
vt 0.717969 0.954687
vt 0.685060 0.973129
vt 0.747656 0.992969
vt 0.459635 0.908854
vt 0.321777 0.901855
vt 0.337240 0.860677
vt 0.336589 0.925781
vt 0.321777 0.901855
vt 0.459635 0.908854
vt 0.318750 0.236719
vt 0.305990 0.257812
vt 0.321875 0.271094
vt 0.260742 0.322266
vt 0.321875 0.271094
vt 0.305990 0.257812
vt 0.717969 0.954687
vt 0.624788 0.930780
vt 0.624219 0.971094
vt 0.000000 0.000000
vt 0.000000 0.000000
vt 0.000000 0.000000
vt 0.717969 0.954687
vt 0.780469 0.984766
vt 0.764844 0.910937
vt 0.725432 0.781673
vt 0.764844 0.911719
vt 0.784375 0.824219
vt 0.344076 0.446289
vt 0.324870 0.390625
vt 0.392476 0.405965
vt 0.392876 0.423665
vt 0.296875 0.352865
vt 0.324870 0.390625
vt 0.431315 0.445312
vt 0.430990 0.354818
vt 0.392876 0.423665
vt 0.720390 0.577612
vt 0.674479 0.576823
vt 0.680990 0.656250
vt 0.764844 0.910937
vt 0.780469 0.984766
vt 0.794531 0.936719
vt 0.145546 0.658937
vt 0.181973 0.659496
vt 0.146040 0.659496
vt 0.188802 0.826823
vt 0.167421 0.743044
vt 0.209429 0.742964
vt 0.624219 0.971094
vt 0.685060 0.973129
vt 0.717969 0.954687
vt 0.209429 0.742964
vt 0.282552 0.713542
vt 0.248230 0.806222
vt 0.167421 0.743044
vt 0.188802 0.826823
vt 0.146040 0.826306
vt 0.479248 0.182373
vt 0.510742 0.184570
vt 0.538086 0.237305
vt 0.209429 0.742964
vt 0.167421 0.743044
vt 0.145833 0.658854
vt 0.841309 0.389648
vt 0.842448 0.361979
vt 0.842448 0.386719
vt 0.485352 0.261719
vt 0.479248 0.182373
vt 0.538086 0.237305
vt 0.719531 0.955469
vt 0.747656 0.992969
vt 0.780469 0.984766
vt 0.794531 0.936719
vt 0.780469 0.984766
vt 0.764844 0.910937
vt 0.459635 0.908854
vt 0.392090 0.873047
vt 0.337240 0.860677
vt 0.337240 0.860677
vt 0.336914 0.901367
vt 0.459635 0.908854
vt 0.908854 0.479167
vt 0.910156 0.208333
vt 0.841309 0.389648
vt 0.248230 0.806222
vt 0.188802 0.826823
vt 0.209429 0.742964
vt 0.764844 0.910937
vt 0.725432 0.781673
vt 0.717969 0.954687
vt 0.060156 0.235937
vt 0.060938 0.211719
vt 0.120320 0.272165
vt 0.122396 0.901693
vt 0.051432 0.978516
vt 0.056641 0.930990
vt 0.060938 0.211719
vt 0.097656 0.230469
vt 0.120320 0.272165
vt 0.122396 0.901693
vt 0.087891 0.952474
vt 0.051432 0.978516
vt 0.069103 0.290258
vt -0.004688 0.249219
vt 0.047656 0.235937
vt 0.060893 0.926969
vt 0.005044 0.915506
vt 0.027961 0.879477
vt 0.097656 0.230469
vt 0.120960 0.240444
vt 0.121019 0.271922
vt 0.122396 0.901693
vt 0.124045 0.936864
vt 0.089094 0.952823
vt 0.324870 0.390625
vt 0.344076 0.446289
vt 0.392876 0.423665
vt 0.260938 0.210156
vt 0.293945 0.227539
vt 0.291992 0.269531
vt 0.485352 0.262695
vt 0.552734 0.354492
vt 0.465820 0.333008
vt 0.511719 0.185938
vt 0.549219 0.196094
vt 0.537500 0.238281
vt 0.305990 0.257812
vt 0.321875 0.271094
vt 0.260742 0.322266
vt 0.553031 0.443666
vt 0.508789 0.444336
vt 0.487305 0.388672
vt 0.058594 0.471354
vt 0.061468 0.854906
vt 0.012045 0.748433
vt 0.124676 0.738355
vt 0.061468 0.854906
vt 0.058594 0.471354
vt 0.248230 0.806222
vt 0.248230 0.836998
vt 0.197382 0.826306
vt 0.521094 0.270312
vt 0.552734 0.354492
vt 0.485352 0.261719
vt 0.725432 0.781673
vt 0.795898 0.823242
vt 0.770949 0.777812
vt 0.459635 0.908854
vt 0.336914 0.901367
vt 0.336589 0.925781
vt 0.392476 0.405965
vt 0.391276 0.352865
vt 0.411133 0.353841
vt 0.626562 0.228906
vt 0.538281 0.237500
vt 0.625781 0.238281
vt 0.537500 0.238281
vt 0.550000 0.196094
vt 0.626562 0.228906
vt 0.337240 0.860677
vt 0.392090 0.873047
vt 0.459635 0.908854
vt 0.428819 0.956597
vt 0.432292 0.959635
vt 0.477431 0.928385
vt 0.423828 0.953776
vt 0.336589 0.925781
vt 0.459635 0.908854
vt 0.459635 0.908854
vt 0.336589 0.925781
vt 0.423828 0.953776
vt 0.477431 0.928385
vt 0.432292 0.959635
vt 0.428819 0.956597
vt 0.770949 0.777812
vt 0.745999 0.732382
vt 0.725432 0.781673
vt 0.520508 0.269531
vt 0.479248 0.182373
vt 0.485352 0.261719
vt 0.319661 0.895833
vt 0.322266 0.871745
vt 0.347656 0.856771
vt 0.337402 0.925293
vt 0.321777 0.925781
vt 0.321777 0.901855
vt 0.305990 0.257812
vt 0.260156 0.260938
vt 0.260742 0.322266
vt 0.260742 0.322266
vt 0.260156 0.260938
vt 0.305990 0.257812
vt 0.260938 0.210156
vt 0.260156 0.260938
vt 0.291992 0.269531
vt 0.292969 0.911458
vt 0.253255 0.910807
vt 0.253906 0.961914
vt 0.293620 0.949870
vt 0.318359 0.922526
vt 0.317708 0.886068
vt 0.322656 0.897656
vt 0.322656 0.938281
vt 0.303906 0.944531
vt 0.337402 0.925293
vt 0.336426 0.901367
vt 0.321777 0.901855
vt 0.337402 0.874023
vt 0.322266 0.873535
vt 0.321777 0.901855
vt 0.303906 0.944531
vt 0.305469 0.900781
vt 0.322656 0.897656
vt 0.321777 0.901855
vt 0.321777 0.925781
vt 0.337402 0.925293
vt 0.347656 0.856771
vt 0.346354 0.890625
vt 0.319661 0.895833
vt 0.321777 0.901855
vt 0.336426 0.901367
vt 0.337402 0.874023
vt 0.318750 0.235156
vt 0.305990 0.257812
vt 0.321875 0.271094
vt 0.321777 0.901855
vt 0.336914 0.901367
vt 0.337402 0.925293
vt 0.392476 0.405965
vt 0.430990 0.354818
vt 0.411133 0.353841
vt 0.871094 0.388021
vt 0.842448 0.361979
vt 0.846354 0.208333
vt 0.392476 0.405965
vt 0.296875 0.352865
vt 0.344076 0.446289
vt 0.392476 0.405965
vt 0.391276 0.352865
vt 0.296875 0.352865
vt 0.431315 0.445312
vt 0.430990 0.354818
vt 0.392476 0.405965
vt 0.968750 0.423177
vt 0.936731 0.505394
vt 0.895833 0.480469
vt 0.075437 0.290303
vt 0.029855 0.308683
vt 0.075466 0.306041
vt 0.069103 0.290258
vt 0.121019 0.271922
vt 0.047656 0.235937
vt 0.060893 0.926969
vt 0.123418 0.900767
vt 0.027961 0.879477
vt 0.317708 0.886068
vt 0.292969 0.911458
vt 0.293620 0.949870
vt 0.253906 0.961914
vt 0.293620 0.949870
vt 0.292969 0.911458
vt 0.747656 0.992969
vt 0.685060 0.973129
vt 0.717969 0.954687
vt 0.337240 0.860677
vt 0.336426 0.901367
vt 0.459635 0.908854
vt 0.459635 0.908854
vt 0.336914 0.901367
vt 0.336589 0.925781
vt 0.321875 0.271094
vt 0.305990 0.257812
vt 0.318750 0.236719
vt 0.305990 0.257812
vt 0.321875 0.271094
vt 0.260742 0.322266
vt 0.624219 0.971094
vt 0.624788 0.930780
vt 0.717969 0.954687
vt 0.000000 0.000000
vt 0.000000 0.000000
vt 0.000000 0.000000
vt 0.167421 0.743044
vt 0.238281 0.716146
vt 0.180990 0.658854
vt 0.764844 0.910937
vt 0.780469 0.984766
vt 0.717969 0.954687
vt 0.784375 0.824219
vt 0.764844 0.911719
vt 0.725432 0.781673
vt 0.389060 0.676751
vt 0.386068 0.839193
vt 0.429036 0.796875
vt 0.389060 0.676751
vt 0.312663 0.674256
vt 0.327474 0.796875
vt 0.344076 0.446289
vt 0.296875 0.352865
vt 0.392876 0.423665
vt 0.392876 0.423665
vt 0.430990 0.354818
vt 0.431315 0.445312
vt 0.680990 0.656250
vt 0.674479 0.576823
vt 0.720390 0.577612
vt 0.794531 0.936719
vt 0.780469 0.984766
vt 0.764844 0.910937
vt 0.146040 0.659496
vt 0.181973 0.659496
vt 0.145546 0.658937
vt 0.717969 0.954687
vt 0.685060 0.973129
vt 0.624219 0.971094
vt 0.146040 0.826306
vt 0.187500 0.826823
vt 0.167421 0.743044
vt 0.538086 0.237305
vt 0.510742 0.184570
vt 0.479248 0.182373
vt 0.841825 0.348509
vt 0.841671 0.356822
vt 0.867778 0.357386
vt 0.538086 0.237305
vt 0.479248 0.182373
vt 0.520508 0.269531
vt 0.780469 0.984766
vt 0.747656 0.992969
vt 0.719531 0.955469
vt 0.764844 0.910937
vt 0.780469 0.984766
vt 0.794531 0.936719
vt 0.337240 0.860677
vt 0.392090 0.873047
vt 0.459635 0.908854
vt 0.459635 0.908854
vt 0.336914 0.901367
vt 0.337240 0.860677
vt 0.871094 0.389323
vt 0.910156 0.208333
vt 0.908854 0.479167
vt 0.238329 0.715173
vt 0.187500 0.826823
vt 0.248230 0.806222
vt 0.717969 0.954687
vt 0.725432 0.781673
vt 0.764844 0.910937
vt 0.120320 0.272165
vt 0.060938 0.211719
vt 0.060156 0.235937
vt 0.056641 0.930990
vt 0.051432 0.978516
vt 0.122396 0.901693
vt 0.120320 0.272165
vt 0.097656 0.230469
vt 0.060938 0.211719
vt 0.051432 0.978516
vt 0.087891 0.952474
vt 0.122396 0.901693
vt 0.047656 0.235937
vt -0.004688 0.249219
vt 0.069103 0.290258
vt 0.027961 0.879477
vt 0.005044 0.915506
vt 0.060893 0.926969
vt 0.121019 0.271922
vt 0.120960 0.240444
vt 0.097656 0.230469
vt 0.089094 0.952823
vt 0.124045 0.936864
vt 0.122396 0.901693
vt 0.871094 0.388021
vt 0.842448 0.386719
vt 0.842448 0.361979
vt 0.291992 0.269531
vt 0.293945 0.227539
vt 0.260938 0.210156
vt 0.465820 0.333008
vt 0.589531 0.354717
vt 0.485352 0.262695
vt 0.537500 0.238281
vt 0.549219 0.196094
vt 0.511719 0.185938
vt 0.260742 0.322266
vt 0.321875 0.271094
vt 0.305990 0.257812
vt 0.487305 0.388672
vt 0.508789 0.444336
vt 0.553031 0.443666
vt 0.099963 0.358443
vt 0.059935 0.359080
vt 0.058594 0.471354
vt 0.215985 0.407214
vt 0.188802 0.509115
vt 0.249183 0.508974
vt 0.058594 0.471354
vt 0.059935 0.359080
vt 0.024848 0.359718
vt 0.187500 0.826823
vt 0.248230 0.836998
vt 0.248230 0.806222
vt 0.485352 0.261719
vt 0.589531 0.354717
vt 0.521094 0.270312
vt 0.770949 0.777812
vt 0.795898 0.823242
vt 0.725432 0.781673
vt 0.336589 0.925781
vt 0.336914 0.901367
vt 0.459635 0.908854
vt 0.411133 0.353841
vt 0.391276 0.352865
vt 0.392476 0.405965
vt 0.187500 0.826823
vt 0.238329 0.715173
vt 0.167421 0.743044
vt 0.625781 0.238281
vt 0.538281 0.237500
vt 0.626562 0.228906
vt 0.626562 0.228906
vt 0.550000 0.196094
vt 0.537500 0.238281
vt 0.459635 0.908854
vt 0.392090 0.873047
vt 0.337240 0.860677
vt 0.477431 0.928385
vt 0.432292 0.959635
vt 0.428819 0.956597
vt 0.459635 0.908854
vt 0.336589 0.925781
vt 0.423828 0.953776
vt 0.423828 0.953776
vt 0.336589 0.925781
vt 0.459635 0.908854
vt 0.428819 0.956597
vt 0.432292 0.959635
vt 0.477431 0.928385
vt 0.725432 0.781673
vt 0.745999 0.732382
vt 0.770949 0.777812
vt 0.167421 0.743044
vt 0.180990 0.658854
vt 0.145833 0.658854
vt 0.145833 0.658854
vt 0.180990 0.658854
vt 0.209429 0.742964
vt 0.248230 0.806222
vt 0.282552 0.713542
vt 0.238281 0.716146
vt 0.841309 0.389648
vt 0.910156 0.208333
vt 0.846354 0.208333
vt 0.846354 0.208333
vt 0.910156 0.208333
vt 0.871094 0.388021
vt 0.895833 0.480469
vt 0.936731 0.505394
vt 0.968750 0.423177
vt 0.910156 0.208333
vt 0.977865 0.208333
vt 0.958333 0.425781
vt 0.910156 0.208333
vt 0.908854 0.479167
vt 0.958333 0.425781
vt 0.958333 0.425781
vt 0.908854 0.479167
vt 0.910156 0.208333
vt 0.885417 0.477865
vt 0.908854 0.479167
vt 0.841309 0.389648
vt 0.871094 0.389323
vt 0.908854 0.479167
vt 0.885417 0.477865
vt 0.327474 0.796875
vt 0.386068 0.839193
vt 0.389060 0.676751
vt 0.429036 0.796875
vt 0.442538 0.675503
vt 0.389060 0.676751
vt 0.061726 0.704045
vt 0.011070 0.685016
vt 0.013021 0.794271
vt 0.115885 0.792969
vt 0.133466 0.683742
vt 0.061726 0.704045
vt 0.058594 0.471354
vt 0.097656 0.451823
vt 0.099963 0.358443
vt 0.024848 0.359718
vt 0.021370 0.451992
vt 0.058594 0.471354
vt 0.059935 0.359080
vt 0.021370 0.451992
vt 0.024848 0.359718
vt 0.099963 0.358443
vt 0.097656 0.451823
vt 0.059935 0.359080
vt 0.907552 0.102865
vt 0.864583 0.102865
vt 0.846354 0.208333
vt 0.907552 0.102865
vt 0.846354 0.208333
vt 0.910156 0.208333
vt 0.907552 0.102865
vt 0.910156 0.208333
vt 0.976562 0.208333
vt 0.907552 0.102865
vt 0.976562 0.208333
vt 0.945312 0.102865
vt 0.164714 0.300781
vt 0.147786 0.300130
vt 0.130859 0.263672
vt 0.130859 0.263672
vt 0.148438 0.236328
vt 0.164714 0.236328
vt 0.158594 0.934766
vt 0.145703 0.935156
vt 0.152344 0.906250
vt 0.152067 0.906271
vt 0.144922 0.874609
vt 0.158594 0.874609
vt 0.147786 0.300130
vt 0.130208 0.300130
vt 0.130859 0.263672
vt 0.164714 0.236328
vt 0.260938 0.210156
vt 0.259766 0.263021
vt 0.164714 0.236328
vt 0.259766 0.263021
vt 0.130859 0.263672
vt 0.145703 0.935156
vt 0.129297 0.935156
vt 0.129297 0.906641
vt 0.145703 0.935156
vt 0.129297 0.906641
vt 0.152344 0.906250
vt 0.159375 0.870313
vt 0.251953 0.849609
vt 0.252011 0.906578
vt 0.159375 0.870313
vt 0.252011 0.906578
vt 0.159375 0.906250
vt 0.386068 0.839193
vt 0.387152 0.736164
vt 0.435950 0.741723
vt 0.744792 0.678385
vt 0.679688 0.653646
vt 0.725432 0.781673
vt 0.744792 0.678385
vt 0.725432 0.781673
vt 0.745999 0.732382
vt 0.682617 0.656250
vt 0.624576 0.655925
vt 0.624576 0.782911
vt 0.682617 0.656250
vt 0.624576 0.782911
vt 0.725432 0.781673
vt 0.074713 0.878658
vt 0.121464 0.877839
vt 0.123418 0.900767
vt 0.074713 0.878658
vt 0.123418 0.900767
vt 0.027961 0.879477
vt 0.152344 0.906250
vt 0.252011 0.906578
vt 0.253906 0.961914
vt 0.152344 0.906250
vt 0.253906 0.961914
vt 0.158594 0.935156
vt 0.152067 0.906271
vt 0.129883 0.906250
vt 0.130078 0.874609
vt 0.152067 0.906271
vt 0.130078 0.874609
vt 0.144922 0.874609
vt 0.717969 0.954687
vt 0.725432 0.781673
vt 0.624576 0.782911
vt 0.717969 0.954687
vt 0.624576 0.782911
vt 0.624788 0.930780
vt 0.386068 0.839193
vt 0.337891 0.839193
vt 0.339193 0.817057
vt 0.390625 0.465820
vt 0.387152 0.736164
vt 0.320069 0.735566
vt 0.390625 0.465820
vt 0.320069 0.735566
vt 0.344076 0.446289
vt 0.431315 0.445312
vt 0.435950 0.741723
vt 0.387152 0.736164
vt 0.431315 0.445312
vt 0.387152 0.736164
vt 0.393229 0.467448
vt 0.685420 0.350733
vt 0.690358 0.346801
vt 0.620543 0.344369
vt 0.685420 0.350733
vt 0.620543 0.344369
vt 0.620834 0.353062
vt 0.620834 0.353062
vt 0.682401 0.361654
vt 0.685420 0.350733
vt 0.841309 0.389648
vt 0.841309 0.478027
vt 0.885417 0.477865
vt 0.151487 0.514231
vt 0.170573 0.407552
vt 0.215985 0.407214
vt 0.151487 0.514231
vt 0.215985 0.407214
vt 0.212240 0.511719
vt 0.151487 0.514231
vt 0.212240 0.511719
vt 0.180990 0.658854
vt 0.151487 0.514231
vt 0.180990 0.658854
vt 0.145833 0.658854
vt 0.589531 0.354717
vt 0.552734 0.354492
vt 0.521094 0.270312
vt 0.589531 0.354717
vt 0.521094 0.270312
vt 0.625781 0.239062
vt 0.626302 0.519531
vt 0.562500 0.520833
vt 0.553031 0.443666
vt 0.069103 0.290258
vt 0.017188 0.308594
vt -0.004688 0.249219
vt 0.625781 0.239062
vt 0.521094 0.270312
vt 0.538281 0.238281
vt 0.058594 0.471354
vt 0.059935 0.359080
vt 0.097656 0.451823
vt 0.344076 0.446289
vt 0.392476 0.405965
vt 0.392240 0.466363
vt 0.021370 0.451992
vt 0.059935 0.359080
vt 0.054688 0.475260
vt 0.393229 0.467448
vt 0.392476 0.405965
vt 0.431315 0.445312
vt 0.401568 0.470421
vt 0.400185 0.599657
vt 0.365538 0.601214
vt 0.401568 0.470421
vt 0.365538 0.601214
vt 0.365534 0.471975
vt 0.401568 0.470421
vt 0.400185 0.599657
vt 0.365538 0.601214
vt 0.401568 0.470421
vt 0.365538 0.601214
vt 0.365534 0.471975
vt 0.075437 0.290303
vt 0.121019 0.271922
vt 0.121078 0.303400
vt 0.075437 0.290303
vt 0.121078 0.303400
vt 0.075466 0.306041
vt 0.061468 0.854906
vt 0.005208 0.856771
vt 0.012045 0.748433
vt 0.212240 0.511719
vt 0.282552 0.511719
vt 0.282552 0.713542
vt 0.212240 0.511719
vt 0.282552 0.713542
vt 0.209429 0.742964
vt 0.509115 0.444010
vt 0.553385 0.442708
vt 0.562500 0.522135
vt 0.509115 0.444010
vt 0.562500 0.522135
vt 0.522135 0.520833
vt 0.130859 0.263672
vt 0.131510 0.236979
vt 0.148438 0.236328
vt 0.130859 0.263672
vt 0.259766 0.263021
vt 0.259680 0.321884
vt 0.130859 0.263672
vt 0.259680 0.321884
vt 0.164714 0.300781
vt 0.061468 0.854906
vt 0.124676 0.738355
vt 0.097656 0.828125
vt 0.215985 0.407214
vt 0.250000 0.407552
vt 0.282552 0.511719
vt 0.215985 0.407214
vt 0.282552 0.511719
vt 0.212240 0.511719
vt 0.097656 0.451823
vt 0.124676 0.738355
vt 0.058594 0.471354
vt 0.054688 0.475260
vt 0.012045 0.748433
vt 0.021370 0.451992
vt 0.212240 0.511719
vt 0.209429 0.742964
vt 0.180990 0.658854
vt 0.097656 0.828125
vt 0.106771 0.854167
vt 0.061468 0.854906
vt 0.435950 0.741723
vt 0.428385 0.839193
vt 0.386068 0.839193
vt 0.339844 0.816406
vt 0.320069 0.735566
vt 0.387152 0.736164
vt 0.339844 0.816406
vt 0.387152 0.736164
vt 0.386068 0.839193
vt 0.553031 0.443666
vt 0.552734 0.354492
vt 0.589531 0.354717
vt 0.487305 0.388672
vt 0.465820 0.333008
vt 0.552734 0.354492
vt 0.487305 0.388672
vt 0.552734 0.354492
vt 0.553031 0.443666
vt 0.846354 0.208333
vt 0.864583 0.102865
vt 0.907552 0.102865
vt 0.846354 0.208333
vt 0.907552 0.102865
vt 0.910156 0.208333
vt 0.945312 0.102865
vt 0.977865 0.208333
vt 0.910156 0.208333
vt 0.945312 0.102865
vt 0.910156 0.208333
vt 0.907552 0.102865
vt 0.130859 0.263672
vt 0.147786 0.300130
vt 0.164714 0.300781
vt 0.164714 0.236328
vt 0.148438 0.236328
vt 0.130859 0.263672
vt 0.130859 0.263672
vt 0.130208 0.300130
vt 0.147786 0.300130
vt 0.130859 0.263672
vt 0.259766 0.263021
vt 0.260938 0.210156
vt 0.130859 0.263672
vt 0.260938 0.210156
vt 0.164714 0.236328
vt 0.429688 0.819010
vt 0.429036 0.796875
vt 0.386068 0.839193
vt 0.745999 0.732382
vt 0.725432 0.781673
vt 0.679688 0.653646
vt 0.745999 0.732382
vt 0.679688 0.653646
vt 0.744792 0.678385
vt 0.725432 0.781673
vt 0.624576 0.782911
vt 0.624576 0.655925
vt 0.725432 0.781673
vt 0.624576 0.655925
vt 0.682617 0.656250
vt 0.027961 0.879477
vt 0.123418 0.900767
vt 0.121464 0.877839
vt 0.027961 0.879477
vt 0.121464 0.877839
vt 0.074713 0.878658
vt 0.624788 0.930780
vt 0.624576 0.782911
vt 0.725432 0.781673
vt 0.624788 0.930780
vt 0.725432 0.781673
vt 0.717969 0.954687
vt 0.339193 0.817057
vt 0.337891 0.839193
vt 0.386068 0.839193
vt 0.344076 0.446289
vt 0.312663 0.674256
vt 0.389060 0.676751
vt 0.344076 0.446289
vt 0.389060 0.676751
vt 0.390625 0.465820
vt 0.393229 0.467448
vt 0.389060 0.676751
vt 0.442538 0.675503
vt 0.393229 0.467448
vt 0.442538 0.675503
vt 0.431315 0.445312
vt 0.620834 0.353062
vt 0.620543 0.344369
vt 0.690358 0.346801
vt 0.620834 0.353062
vt 0.690358 0.346801
vt 0.685420 0.350733
vt 0.685420 0.350733
vt 0.682401 0.361654
vt 0.620834 0.353062
vt 0.885417 0.477865
vt 0.841309 0.478027
vt 0.841309 0.389648
vt 0.885417 0.477865
vt 0.841309 0.389648
vt 0.871094 0.389323
vt 0.625781 0.239062
vt 0.521094 0.270312
vt 0.589531 0.354717
vt 0.553031 0.443666
vt 0.553031 0.443666
vt 0.562500 0.520833
vt 0.553031 0.443666
vt 0.562500 0.520833
vt 0.626302 0.519531
vt 0.069103 0.290258
vt -0.004688 0.249219
vt 0.017188 0.308594
vt 0.625781 0.239062
vt 0.538281 0.238281
vt 0.521094 0.270312
vt 0.392240 0.466363
vt 0.392476 0.405965
vt 0.344076 0.446289
vt 0.431315 0.445312
vt 0.392476 0.405965
vt 0.393229 0.467448
vt 0.075466 0.306041
vt 0.121078 0.303400
vt 0.121019 0.271922
vt 0.075466 0.306041
vt 0.121019 0.271922
vt 0.075437 0.290303
vt 0.238281 0.716146
vt 0.282552 0.713542
vt 0.282552 0.511719
vt 0.238281 0.716146
vt 0.282552 0.511719
vt 0.239583 0.511719
vt 0.148438 0.236328
vt 0.131510 0.236979
vt 0.130859 0.263672
vt 0.164714 0.300781
vt 0.259680 0.321884
vt 0.259766 0.263021
vt 0.164714 0.300781
vt 0.259766 0.263021
vt 0.130859 0.263672
vt 0.063267 0.831325
vt 0.061726 0.704045
vt 0.013021 0.794271
vt 0.063267 0.831325
vt 0.013021 0.794271
vt 0.013021 0.829427
vt 0.097656 0.828125
vt 0.115885 0.792969
vt 0.061726 0.704045
vt 0.097656 0.828125
vt 0.061726 0.704045
vt 0.063267 0.831325
vt 0.058594 0.471354
vt 0.061726 0.704045
vt 0.133466 0.683742
vt 0.058594 0.471354
vt 0.133466 0.683742
vt 0.097656 0.451823
vt 0.021370 0.451992
vt 0.011070 0.685016
vt 0.061726 0.704045
vt 0.021370 0.451992
vt 0.061726 0.704045
vt 0.054688 0.475260
vt 0.180990 0.658854
vt 0.238281 0.716146
vt 0.239583 0.511719
vt 0.180990 0.658854
vt 0.239583 0.511719
vt 0.184896 0.511719
vt 0.386068 0.839193
vt 0.428385 0.839193
vt 0.429688 0.819010
vt 0.386068 0.839193
vt 0.327474 0.796875
vt 0.339844 0.816406
vt 0.589531 0.354717
vt 0.553031 0.443666
vt 0.553031 0.443666
vt 0.553031 0.443666
vt 0.589531 0.354717
vt 0.465820 0.333008
vt 0.553031 0.443666
vt 0.465820 0.333008
vt 0.487305 0.388672
vt 0.680990 0.656250
vt 0.744792 0.678385
vt 0.745325 0.649926
vt 0.680990 0.656250
vt 0.745325 0.649926
vt 0.720390 0.577612
vt 0.571615 0.714844
vt 0.603125 0.600781
vt 0.634375 0.583594
vt 0.571615 0.714844
vt 0.634375 0.583594
vt 0.664062 0.601562
vt 0.571615 0.714844
vt 0.664062 0.601562
vt 0.677083 0.714844
vt 0.401568 0.470421
vt 0.400185 0.599657
vt 0.365538 0.601214
vt 0.401568 0.470421
vt 0.365538 0.601214
vt 0.365534 0.471975
vt 0.401568 0.470421
vt 0.400185 0.599657
vt 0.365538 0.601214
vt 0.401568 0.470421
vt 0.365538 0.601214
vt 0.365534 0.471975
vt 0.677083 0.714844
vt 0.649219 0.767969
vt 0.598958 0.768229
vt 0.677083 0.714844
vt 0.598958 0.768229
vt 0.571615 0.714844
vt 0.401568 0.470421
vt 0.400185 0.599657
vt 0.365538 0.601214
vt 0.401568 0.470421
vt 0.365538 0.601214
vt 0.365534 0.471975
vt 0.625000 0.576172
vt 0.625000 0.657227
vt 0.682617 0.656250
vt 0.625000 0.576172
vt 0.682617 0.656250
vt 0.674805 0.576172
vt 0.622045 0.263501
vt 0.621932 0.276520
vt 0.681224 0.271313
vt 0.622045 0.263501
vt 0.681224 0.271313
vt 0.677030 0.265600
vt 0.689326 0.260890
vt 0.686308 0.271810
vt 0.624715 0.274369
vt 0.689326 0.260890
vt 0.624715 0.274369
vt 0.624582 0.262335
vt 0.401568 0.470421
vt 0.400185 0.599657
vt 0.365538 0.601214
vt 0.401568 0.470421
vt 0.365538 0.601214
vt 0.365534 0.471975
vt 0.401568 0.470421
vt 0.400185 0.599657
vt 0.365538 0.601214
vt 0.401568 0.470421
vt 0.365538 0.601214
vt 0.365534 0.471975
vt 0.720390 0.577612
vt 0.745325 0.649926
vt 0.744792 0.678385
vt 0.720390 0.577612
vt 0.744792 0.678385
vt 0.680990 0.656250
vt 0.677083 0.714844
vt 0.664062 0.601562
vt 0.634375 0.583594
vt 0.677083 0.714844
vt 0.634375 0.583594
vt 0.603125 0.600781
vt 0.677083 0.714844
vt 0.603125 0.600781
vt 0.571615 0.714844
vt 0.401568 0.470421
vt 0.400185 0.599657
vt 0.365538 0.601214
vt 0.401568 0.470421
vt 0.365538 0.601214
vt 0.365534 0.471975
vt 0.158984 0.906250
vt 0.145703 0.906250
vt 0.145703 0.935156
vt 0.158984 0.906250
vt 0.145703 0.935156
vt 0.158594 0.934766
vt 0.158594 0.874609
vt 0.144922 0.874609
vt 0.145149 0.906291
vt 0.158594 0.874609
vt 0.145149 0.906291
vt 0.158984 0.906250
vt 0.145703 0.906250
vt 0.129297 0.906641
vt 0.129297 0.935156
vt 0.145703 0.906250
vt 0.129297 0.935156
vt 0.145703 0.935156
vt 0.159375 0.906250
vt 0.252011 0.906578
vt 0.251953 0.849609
vt 0.159375 0.906250
vt 0.251953 0.849609
vt 0.159375 0.870313
vt 0.401568 0.470421
vt 0.400185 0.599657
vt 0.365538 0.601214
vt 0.401568 0.470421
vt 0.365538 0.601214
vt 0.365534 0.471975
vt 0.571615 0.714844
vt 0.598958 0.768229
vt 0.649219 0.767969
vt 0.571615 0.714844
vt 0.649219 0.767969
vt 0.677083 0.714844
vt 0.158594 0.935156
vt 0.253906 0.961914
vt 0.252011 0.906578
vt 0.158594 0.935156
vt 0.252011 0.906578
vt 0.158984 0.906250
vt 0.144922 0.874609
vt 0.130078 0.874609
vt 0.129883 0.906250
vt 0.144922 0.874609
vt 0.129883 0.906250
vt 0.145149 0.906291
vt 0.401568 0.470421
vt 0.400185 0.599657
vt 0.365538 0.601214
vt 0.401568 0.470421
vt 0.365538 0.601214
vt 0.365534 0.471975
vt 0.674805 0.576172
vt 0.682617 0.656250
vt 0.625000 0.657227
vt 0.674805 0.576172
vt 0.625000 0.657227
vt 0.625000 0.576172
vt 0.184896 0.511719
vt 0.215985 0.407214
vt 0.170573 0.407552
vt 0.184896 0.511719
vt 0.170573 0.407552
vt 0.151487 0.514231
vt 0.145833 0.658854
vt 0.180990 0.658854
vt 0.184896 0.511719
vt 0.145833 0.658854
vt 0.184896 0.511719
vt 0.151487 0.514231
vt 0.401568 0.470421
vt 0.400185 0.599657
vt 0.365538 0.601214
vt 0.401568 0.470421
vt 0.365538 0.601214
vt 0.365534 0.471975
vt 0.401568 0.470421
vt 0.400185 0.599657
vt 0.365538 0.601214
vt 0.401568 0.470421
vt 0.365538 0.601214
vt 0.365534 0.471975
vt 0.013021 0.829427
vt 0.005208 0.856771
vt 0.061468 0.854906
vt 0.013021 0.829427
vt 0.061468 0.854906
vt 0.063267 0.831325
vt 0.522135 0.520833
vt 0.562500 0.522135
vt 0.553385 0.442708
vt 0.522135 0.520833
vt 0.553385 0.442708
vt 0.509115 0.444010
vt 0.239583 0.511719
vt 0.282552 0.511719
vt 0.250000 0.407552
vt 0.239583 0.511719
vt 0.250000 0.407552
vt 0.215985 0.407214
vt 0.063267 0.831325
vt 0.061468 0.854906
vt 0.106771 0.854167
vt 0.063267 0.831325
vt 0.106771 0.854167
vt 0.097656 0.828125
vt 0.677030 0.265600
vt 0.681224 0.271313
vt 0.621932 0.276520
vt 0.677030 0.265600
vt 0.621932 0.276520
vt 0.622045 0.263501
vt 0.624582 0.262335
vt 0.624715 0.274369
vt 0.686308 0.271810
vt 0.624582 0.262335
vt 0.686308 0.271810
vt 0.689326 0.260890
vt 0.401568 0.470421
vt 0.400185 0.599657
vt 0.365538 0.601214
vt 0.401568 0.470421
vt 0.365538 0.601214
vt 0.365534 0.471975
vt 0.401568 0.470421
vt 0.400185 0.599657
vt 0.365538 0.601214
vt 0.401568 0.470421
vt 0.365538 0.601214
vt 0.365534 0.471975
vn 0.010550 -0.504117 0.863571
vn 0.200766 -0.876377 0.437786
vn 0.460209 -0.725253 0.512070
vn -0.487631 -0.797315 0.355675
vn -0.262931 -0.841587 0.471803
vn -0.338378 -0.811244 0.476847
vn 0.254572 0.539410 0.802639
vn 0.324097 0.506035 0.799306
vn 0.085360 0.554396 0.827864
vn 0.707144 0.382765 0.594506
vn 0.729383 0.372029 0.574104
vn 0.551692 0.416730 0.722476
vn -0.029464 -0.927346 0.373043
vn 0.144418 -0.965964 0.214611
vn 0.118567 -0.962321 0.244706
vn -0.162878 0.965203 -0.204581
vn -0.119175 0.965550 -0.231325
vn -0.164120 0.965235 -0.203436
vn -0.745809 -0.384307 -0.544129
vn -0.698946 -0.423432 -0.576350
vn -0.741718 -0.366677 -0.561607
vn -0.823591 -0.218234 -0.523519
vn -0.862161 0.445082 -0.242035
vn -0.755512 0.461619 -0.464877
vn -0.755512 0.461619 -0.464877
vn -0.862161 0.445082 -0.242035
vn -0.324597 0.922831 -0.207410
vn 0.323686 -0.644872 -0.692364
vn 0.156791 -0.582380 -0.797653
vn 0.204825 -0.629126 -0.749831
vn -0.324597 0.922831 -0.207410
vn -0.162878 0.965203 -0.204581
vn -0.755512 0.461619 -0.464877
vn 0.668822 0.635508 -0.385753
vn 0.653085 0.572306 -0.495929
vn 0.787390 0.456163 -0.414647
vn -0.338378 -0.811244 0.476847
vn -0.444135 -0.740719 0.504063
vn -0.487631 -0.797315 0.355675
vn 0.254572 0.539410 0.802639
vn 0.551692 0.416730 0.722476
vn 0.324097 0.506035 0.799306
vn 0.085360 0.554396 0.827864
vn 0.068313 0.587898 0.806045
vn 0.254572 0.539410 0.802639
vn -0.054814 0.981967 0.180933
vn -0.664762 0.689983 -0.286382
vn -0.178926 0.982208 -0.057031
vn -0.639151 0.382155 -0.667415
vn 0.116774 -0.033407 -0.992597
vn 0.199220 0.863807 -0.462762
vn 0.748548 0.332566 0.573652
vn 0.802317 0.278427 0.527983
vn -0.178926 0.982208 -0.057031
vn 0.802317 0.278427 0.527983
vn 0.257090 0.899849 0.352387
vn -0.178926 0.982208 -0.057031
vn -0.178926 0.982208 -0.057031
vn -0.664762 0.689983 -0.286382
vn -0.491744 0.756844 -0.430551
vn 0.662673 0.678349 0.317345
vn 0.546213 0.834716 0.069994
vn 0.547567 0.828398 0.118015
vn 0.264419 0.931556 -0.249571
vn 0.246459 0.969091 -0.010998
vn 0.547567 0.828398 0.118015
vn -0.031155 -0.999495 -0.006274
vn -0.345833 -0.927300 -0.143229
vn -0.239171 -0.907375 -0.345641
vn 0.698367 0.431576 0.570986
vn 0.661454 0.345811 0.665503
vn 0.658728 0.362569 0.659258
vn -0.755512 0.461619 -0.464877
vn -0.741718 -0.366677 -0.561607
vn -0.823591 -0.218234 -0.523519
vn -0.741718 -0.366677 -0.561607
vn -0.755512 0.461619 -0.464877
vn -0.745809 -0.384307 -0.544129
vn 0.103091 0.661447 0.742873
vn 0.216822 -0.007473 0.976183
vn -0.124788 0.124731 0.984312
vn -0.038374 -0.565849 -0.823615
vn 0.323686 -0.644872 -0.692364
vn 0.204825 -0.629126 -0.749831
vn 0.668822 0.635508 -0.385753
vn 0.787390 0.456163 -0.414647
vn 0.662519 0.745706 0.070651
vn -0.262931 -0.841587 0.471803
vn -0.029464 -0.927346 0.373043
vn -0.338378 -0.811244 0.476847
vn 0.118567 -0.962321 0.244706
vn -0.338378 -0.811244 0.476847
vn -0.029464 -0.927346 0.373043
vn 0.103091 0.661447 0.742873
vn -0.140052 0.914992 0.378386
vn -0.090027 0.811738 0.577040
vn -0.398950 -0.173331 0.900441
vn -0.374996 -0.190539 0.907233
vn -0.398951 -0.173331 0.900441
vn 0.103091 0.661447 0.742873
vn 0.232396 0.530219 0.815389
vn 0.662519 0.745706 0.070651
vn 0.725305 0.660371 -0.194533
vn 0.662519 0.745706 0.070651
vn 0.858538 0.338746 -0.384920
vn 0.556096 -0.518028 0.649926
vn 0.748548 0.332566 0.573652
vn 0.500969 0.781793 0.371255
vn 0.376623 -0.316725 0.870540
vn 0.802317 0.278427 0.527983
vn 0.748548 0.332566 0.573652
vn -0.491744 0.756844 -0.430551
vn -0.664762 0.689983 -0.286382
vn -0.872950 0.284412 -0.396318
vn 0.512817 0.799463 0.312854
vn 0.362760 0.931055 0.039258
vn 0.497699 0.852076 0.162056
vn 0.662519 0.745706 0.070651
vn 0.232396 0.530219 0.815389
vn 0.125019 0.967289 0.220733
vn 0.116774 -0.033407 -0.992597
vn -0.227572 -0.149489 -0.962218
vn 0.442678 -0.006258 -0.896659
vn 0.373257 -0.846180 0.380340
vn -0.188664 -0.978881 -0.078727
vn 0.472493 -0.853139 0.221144
vn -0.090027 0.811738 0.577040
vn 0.216822 -0.007473 0.976183
vn 0.103091 0.661447 0.742873
vn 0.472493 -0.853139 0.221144
vn 0.647130 -0.642487 0.410406
vn 0.677872 -0.559261 0.477196
vn -0.188664 -0.978881 -0.078727
vn 0.373257 -0.846180 0.380340
vn -0.110294 -0.959913 0.257688
vn 0.142148 -0.118822 0.982688
vn -0.124788 0.124731 0.984312
vn 0.010550 -0.504117 0.863571
vn 0.472493 -0.853139 0.221144
vn -0.188664 -0.978881 -0.078727
vn 0.130669 -0.920718 -0.367700
vn 0.199220 0.863807 -0.462762
vn 0.378803 0.020416 -0.925252
vn 0.358724 0.345587 -0.867114
vn 0.460209 -0.725253 0.512070
vn 0.142148 -0.118822 0.982688
vn 0.010550 -0.504117 0.863571
vn 0.103091 0.661447 0.742873
vn -0.124788 0.124731 0.984312
vn 0.142148 -0.118822 0.982688
vn 0.353528 -0.239295 0.904298
vn 0.142148 -0.118822 0.982688
vn 0.460209 -0.725253 0.512070
vn 0.460209 -0.725253 0.512070
vn 0.386604 -0.914429 -0.119820
vn -0.487631 -0.797315 0.355675
vn -0.487631 -0.797315 0.355675
vn -0.444135 -0.740719 0.504063
vn 0.460209 -0.725253 0.512070
vn 0.512817 0.799463 0.312854
vn -0.345703 0.914363 -0.210784
vn 0.199220 0.863807 -0.462762
vn 0.677872 -0.559261 0.477196
vn 0.373257 -0.846180 0.380340
vn 0.472493 -0.853139 0.221144
vn 0.662519 0.745706 0.070651
vn 0.725305 0.660371 -0.194533
vn 0.103091 0.661447 0.742873
vn 0.264419 0.931556 -0.249571
vn 0.319195 0.930370 -0.180349
vn 0.246459 0.969091 -0.010998
vn -0.345833 -0.927300 -0.143229
vn -0.165790 -0.950298 -0.263530
vn -0.239171 -0.907375 -0.345641
vn 0.319195 0.930370 -0.180349
vn -0.306296 0.950750 -0.047507
vn 0.246459 0.969091 -0.010998
vn -0.345833 -0.927300 -0.143229
vn -0.832368 -0.550000 -0.068287
vn -0.165790 -0.950298 -0.263530
vn 0.547567 0.828398 0.118015
vn 0.220853 0.957564 -0.185188
vn 0.264419 0.931556 -0.249571
vn -0.239171 -0.907375 -0.345641
vn -0.358146 -0.893893 -0.269605
vn -0.031155 -0.999495 -0.006274
vn -0.306296 0.950750 -0.047507
vn -0.332210 0.931317 -0.149280
vn 0.246459 0.969091 -0.010998
vn -0.345833 -0.927300 -0.143229
vn -0.875451 -0.428876 -0.222825
vn -0.832368 -0.550000 -0.068287
vn 0.748548 0.332566 0.573652
vn 0.556096 -0.518028 0.649926
vn 0.376623 -0.316725 0.870540
vn -0.164120 0.965235 -0.203436
vn -0.755512 0.461619 -0.464877
vn -0.162878 0.965203 -0.204581
vn 0.460209 -0.725253 0.512070
vn 0.482662 -0.875407 -0.026452
vn 0.386604 -0.914429 -0.119820
vn -0.124788 0.124731 0.984312
vn 0.216822 -0.007473 0.976183
vn 0.010550 -0.504117 0.863571
vn 0.551692 0.416730 0.722476
vn 0.254572 0.539410 0.802639
vn 0.707144 0.382765 0.594506
vn 0.521376 -0.851704 0.052602
vn 0.766219 -0.617343 0.178313
vn 0.785396 -0.618566 0.023015
vn -0.767535 -0.338065 -0.544612
vn -0.105436 -0.904213 -0.413862
vn -0.808785 -0.297381 -0.507377
vn 0.234415 -0.844059 0.482301
vn -0.105436 -0.904213 -0.413862
vn 0.356913 -0.831895 0.424928
vn 0.677872 -0.559261 0.477196
vn 0.715089 -0.616074 0.330304
vn 0.373257 -0.846180 0.380340
vn 0.200766 -0.876377 0.437786
vn 0.482662 -0.875407 -0.026452
vn 0.460209 -0.725253 0.512070
vn 0.725305 0.660371 -0.194533
vn 0.858538 0.338746 -0.384920
vn 0.853713 0.520695 0.007103
vn -0.467431 0.413801 0.781202
vn 0.068313 0.587898 0.806045
vn 0.085360 0.554396 0.827864
vn -0.178926 0.982208 -0.057031
vn 0.257090 0.899849 0.352387
vn -0.054814 0.981967 0.180933
vn -0.233218 -0.777193 0.584448
vn 0.010550 -0.504117 0.863571
vn -0.229942 -0.568212 0.790103
vn 0.010550 -0.504117 0.863571
vn 0.216822 -0.007473 0.976183
vn -0.229942 -0.568212 0.790103
vn 0.736565 0.108818 -0.667556
vn 0.858538 0.338746 -0.384920
vn 0.662519 0.745706 0.070651
vn 0.742847 -0.494761 -0.450988
vn 0.742847 -0.494761 -0.450988
vn 0.742847 -0.494761 -0.450987
vn 0.537764 0.834050 -0.123168
vn 0.668822 0.635508 -0.385753
vn 0.662519 0.745706 0.070651
vn -0.467431 0.413801 0.781202
vn 0.085360 0.554396 0.827864
vn -0.239518 0.456990 0.856616
vn -0.937281 0.219004 0.271184
vn -0.937282 0.219004 0.271184
vn -0.937282 0.219004 0.271184
vn 0.853713 0.520695 0.007103
vn 0.830444 0.556444 -0.027067
vn 0.725305 0.660371 -0.194533
vn -0.495459 -0.854270 0.157298
vn -0.825755 0.056926 0.561149
vn -0.578536 -0.804589 -0.133915
vn 0.117527 -0.356463 -0.926888
vn 0.131605 -0.337259 -0.932168
vn 0.079990 -0.447797 -0.890550
vn 0.420053 -0.735908 0.531032
vn 0.451079 -0.716208 0.532516
vn 0.434903 -0.732924 0.523146
vn 0.406101 -0.763073 0.502793
vn 0.182480 -0.852161 0.490431
vn 0.219837 -0.835089 0.504280
vn -0.092099 -0.405076 -0.909632
vn -0.132797 -0.395743 -0.908709
vn 0.082251 -0.385006 -0.919241
vn 0.143412 0.421757 0.895296
vn 0.096027 0.386608 0.917231
vn 0.159954 0.452968 0.877060
vn -0.167319 0.834093 -0.525637
vn -0.238330 0.816110 -0.526462
vn -0.176123 0.836268 -0.519265
vn -0.233404 0.826270 -0.512640
vn -0.469465 0.737878 -0.484911
vn -0.424382 0.749922 -0.507462
vn -0.092837 0.346579 0.933415
vn -0.147317 0.339123 0.929136
vn 0.084418 0.428175 0.899744
vn -0.165985 0.366752 0.915391
vn -0.121942 0.408162 0.904729
vn -0.147317 0.339123 0.929136
vn -0.492669 0.702452 -0.513652
vn -0.424382 0.749922 -0.507462
vn -0.469465 0.737878 -0.484911
vn 0.084418 0.428175 0.899744
vn 0.159954 0.452968 0.877060
vn -0.092837 0.346579 0.933415
vn -0.147317 0.339123 0.929136
vn -0.092837 0.346579 0.933415
vn -0.165985 0.366752 0.915391
vn 0.079990 -0.447797 -0.890550
vn 0.142034 -0.400952 -0.905021
vn 0.117527 -0.356463 -0.926888
vn -0.469465 0.737878 -0.484911
vn -0.484069 0.759399 -0.434730
vn -0.492669 0.702452 -0.513652
vn 0.451079 -0.716208 0.532516
vn 0.406101 -0.763073 0.502793
vn 0.434903 -0.732924 0.523146
vn 0.434903 -0.732924 0.523146
vn 0.464176 -0.750570 0.470304
vn 0.420053 -0.735908 0.531032
vn 0.391876 0.919993 -0.006813
vn 0.830999 0.545177 0.110557
vn 0.135197 0.982445 0.128548
vn 0.677985 0.471816 0.563672
vn 0.817861 0.339556 0.464549
vn 0.738585 0.416391 0.530199
vn 0.391876 0.919993 -0.006813
vn -0.887739 0.458427 -0.042004
vn -0.954480 -0.248803 0.164515
vn 0.391876 0.919993 -0.006813
vn -0.228233 0.969013 0.094460
vn -0.887739 0.458427 -0.042004
vn 0.919692 -0.116500 0.374959
vn 0.830999 0.545177 0.110557
vn 0.391876 0.919993 -0.006813
vn -0.890209 0.448486 0.079926
vn -0.797446 0.579258 -0.168935
vn -0.677745 0.715656 -0.168814
vn -0.080812 -0.996654 -0.012266
vn -0.284262 -0.956442 0.066442
vn -0.168423 -0.968315 -0.184391
vn -0.080812 -0.996654 -0.012266
vn 0.214200 -0.973135 0.084418
vn 0.151661 -0.927884 0.340631
vn -0.190520 0.961042 0.200249
vn -0.362342 0.928336 -0.083067
vn -0.212635 0.927202 -0.308355
vn -0.424382 0.749922 -0.507462
vn -0.167319 0.834093 -0.525637
vn -0.233404 0.826270 -0.512640
vn -0.176123 0.836268 -0.519265
vn -0.233404 0.826270 -0.512640
vn -0.167319 0.834093 -0.525637
vn -0.636476 0.137698 0.758905
vn -0.673701 0.353274 0.649095
vn -0.529460 0.665595 0.525980
vn -0.492669 0.702452 -0.513652
vn -0.484069 0.759399 -0.434730
vn -0.730666 0.673683 -0.110806
vn -0.145027 0.388217 0.910085
vn -0.121942 0.408162 0.904729
vn -0.165985 0.366752 0.915391
vn 0.117527 -0.356463 -0.926888
vn 0.082251 -0.385006 -0.919241
vn 0.131605 -0.337259 -0.932168
vn 0.082251 -0.385006 -0.919241
vn 0.117527 -0.356463 -0.926888
vn -0.092099 -0.405076 -0.909632
vn -0.090027 0.811738 0.577040
vn -0.140052 0.914992 0.378386
vn -0.529460 0.665595 0.525980
vn -0.398951 -0.173331 0.900441
vn -0.422539 -0.155964 0.892825
vn -0.398950 -0.173331 0.900441
vn -0.188664 -0.978881 -0.078727
vn -0.595360 -0.699101 -0.395986
vn -0.131887 -0.827127 -0.546321
vn -0.730666 0.673683 -0.110806
vn -0.825755 0.056926 0.561149
vn -0.529460 0.665595 0.525980
vn -0.501312 0.389391 -0.772697
vn -0.730666 0.673683 -0.110806
vn -0.365285 0.691874 -0.622798
vn 0.756265 0.559925 -0.338450
vn 0.739956 0.461924 0.488969
vn 0.752503 0.600548 -0.270337
vn -0.685219 0.505027 -0.524807
vn -0.695295 0.486461 -0.529075
vn -0.703324 0.561735 -0.435648
vn -0.954480 -0.248803 0.164515
vn -0.887739 0.458427 -0.042004
vn -0.877379 -0.196817 0.437572
vn 0.788298 -0.080975 0.609942
vn 0.830999 0.545177 0.110557
vn 0.919692 -0.116500 0.374959
vn -0.459764 0.862659 -0.210800
vn -0.268721 0.938878 -0.215167
vn -0.677745 0.715656 -0.168814
vn -0.848082 -0.169467 0.502033
vn -0.825755 0.056926 0.561149
vn -0.730666 0.673683 -0.110806
vn 0.442678 -0.006258 -0.896659
vn 0.788976 -0.141737 -0.597853
vn 0.116774 -0.033407 -0.992597
vn -0.529460 0.665595 0.525980
vn -0.673701 0.353274 0.649095
vn -0.090027 0.811738 0.577040
vn -0.110294 -0.959913 0.257688
vn -0.547894 -0.836336 0.018836
vn -0.188664 -0.978881 -0.078727
vn -0.642639 -0.516464 0.565933
vn -0.636476 0.137698 0.758905
vn -0.825755 0.056926 0.561149
vn 0.358724 0.345587 -0.867114
vn 0.378803 0.020416 -0.925252
vn -0.191332 0.692944 -0.695141
vn -0.642639 -0.516464 0.565933
vn -0.825755 0.056926 0.561149
vn -0.495459 -0.854270 0.157298
vn -0.825755 0.056926 0.561149
vn -0.636476 0.137698 0.758905
vn -0.529460 0.665595 0.525980
vn -0.578536 -0.804589 -0.133915
vn -0.825755 0.056926 0.561149
vn -0.848082 -0.169467 0.502033
vn 0.079990 -0.447797 -0.890550
vn -0.164658 -0.635367 -0.754451
vn -0.578536 -0.804589 -0.133915
vn -0.578536 -0.804589 -0.133915
vn 0.142034 -0.400952 -0.905021
vn 0.079990 -0.447797 -0.890550
vn 0.677985 0.471816 0.563672
vn 0.633159 0.478517 0.608384
vn 0.498933 0.520852 0.692661
vn -0.595360 -0.699101 -0.395986
vn -0.547894 -0.836336 0.018836
vn -0.829549 -0.547688 -0.109023
vn -0.529460 0.665595 0.525980
vn -0.365285 0.691874 -0.622798
vn -0.730666 0.673683 -0.110806
vn 0.214200 -0.973135 0.084418
vn 0.208039 -0.962505 0.174080
vn 0.151661 -0.927884 0.340631
vn -0.190520 0.961042 0.200249
vn -0.403203 0.907017 0.121438
vn -0.362342 0.928336 -0.083067
vn 0.214200 -0.973135 0.084418
vn 0.481981 -0.837115 0.258713
vn 0.208039 -0.962505 0.174080
vn -0.403203 0.907017 0.121438
vn -0.153185 0.962138 0.225445
vn -0.362342 0.928336 -0.083067
vn 0.151661 -0.927884 0.340631
vn -0.044166 -0.904605 0.423957
vn -0.080812 -0.996654 -0.012266
vn -0.212635 0.927202 -0.308355
vn 0.034620 0.997701 0.058251
vn -0.190520 0.961042 0.200249
vn 0.998478 -0.030565 -0.045903
vn 0.998478 -0.030565 -0.045903
vn 0.998478 -0.030565 -0.045903
vn -0.153185 0.962138 0.225445
vn -0.249419 0.950509 0.185265
vn -0.362342 0.928336 -0.083067
vn -0.191332 0.692944 -0.695141
vn 0.199220 0.863807 -0.462762
vn 0.358724 0.345587 -0.867114
vn 0.159954 0.452968 0.877060
vn 0.084418 0.428175 0.899744
vn 0.143412 0.421757 0.895296
vn -0.164658 -0.635367 -0.754451
vn -0.139218 -0.959750 -0.243922
vn -0.578536 -0.804589 -0.133915
vn -0.642639 -0.516464 0.565933
vn -0.673701 0.353274 0.649095
vn -0.636476 0.137698 0.758905
vn 0.219837 -0.835089 0.504280
vn 0.434903 -0.732924 0.523146
vn 0.406101 -0.763073 0.502793
vn -0.614468 -0.602747 -0.509043
vn -0.699335 -0.604257 -0.381843
vn -0.438244 -0.842590 -0.313025
vn -0.877379 -0.196817 0.437572
vn -0.100102 -0.504174 0.857781
vn -0.776809 -0.594181 0.208608
vn 0.158131 -0.670824 -0.724562
vn 0.475393 -0.423629 -0.771064
vn -0.337821 -0.471238 -0.814747
vn -0.776809 -0.594181 0.208608
vn -0.100102 -0.504174 0.857781
vn 0.788298 -0.080975 0.609942
vn -0.547894 -0.836336 0.018836
vn -0.761054 -0.602701 -0.239891
vn -0.829549 -0.547688 -0.109023
vn -0.578536 -0.804589 -0.133915
vn -0.139218 -0.959750 -0.243922
vn -0.495459 -0.854270 0.157298
vn -0.596537 0.520426 -0.610983
vn -0.501312 0.389391 -0.772697
vn -0.365285 0.691874 -0.622798
vn 0.420053 -0.735908 0.531032
vn 0.464176 -0.750570 0.470304
vn 0.077682 -0.702275 0.707655
vn 0.135197 0.982445 0.128548
vn -0.228233 0.969013 0.094460
vn 0.391876 0.919993 -0.006813
vn -0.547894 -0.836336 0.018836
vn -0.595360 -0.699101 -0.395986
vn -0.188664 -0.978881 -0.078727
vn -0.229942 -0.568212 0.790103
vn -0.642639 -0.516464 0.565933
vn -0.233218 -0.777193 0.584448
vn -0.229942 -0.568212 0.790103
vn -0.673701 0.353274 0.649095
vn -0.642639 -0.516464 0.565933
vn -0.730666 0.673683 -0.110806
vn -0.501312 0.389391 -0.772697
vn -0.492669 0.702452 -0.513652
vn 0.730142 0.628140 -0.268949
vn 0.730142 0.628139 -0.268949
vn 0.730142 0.628139 -0.268949
vn -0.145027 0.388217 0.910085
vn -0.165985 0.366752 0.915391
vn -0.135779 0.396341 0.908008
vn 0.268498 -0.689167 0.673021
vn 0.420053 -0.735908 0.531032
vn 0.077682 -0.702275 0.707655
vn 0.564777 -0.300895 -0.768433
vn 0.564777 -0.300895 -0.768433
vn 0.564777 -0.300896 -0.768433
vn -0.365285 0.691874 -0.622798
vn -0.579218 0.573621 -0.579194
vn -0.596537 0.520426 -0.610983
vn -0.188664 -0.978881 -0.078727
vn -0.131887 -0.827127 -0.546321
vn 0.130669 -0.920718 -0.367700
vn 0.130669 -0.920718 -0.367700
vn 0.304017 -0.928780 -0.211993
vn 0.472493 -0.853139 0.221144
vn -0.829549 -0.547688 -0.109023
vn -0.755172 -0.535839 -0.377614
vn -0.595360 -0.699101 -0.395986
vn 0.199220 0.863807 -0.462762
vn -0.345703 0.914363 -0.210784
vn -0.639151 0.382155 -0.667415
vn 0.738585 0.416391 0.530199
vn 0.633159 0.478517 0.608384
vn 0.677985 0.471816 0.563672
vn 0.512817 0.799463 0.312854
vn 0.704315 0.564433 0.430530
vn 0.698367 0.431576 0.570986
vn -0.881909 0.355893 0.309154
vn -0.837404 0.336381 0.430815
vn -0.890209 0.448486 0.079926
vn 0.658728 0.362569 0.659258
vn 0.512817 0.799463 0.312854
vn 0.698367 0.431576 0.570986
vn -0.890209 0.448486 0.079926
vn -0.677745 0.715656 -0.168814
vn -0.881909 0.355893 0.309154
vn 0.362760 0.931055 0.039258
vn 0.512817 0.799463 0.312854
vn 0.199220 0.863807 -0.462762
vn -0.191332 0.692944 -0.695141
vn -0.677745 0.715656 -0.168814
vn -0.268721 0.938878 -0.215167
vn -0.703324 0.561735 -0.435648
vn -0.853014 0.392276 0.344218
vn -0.685219 0.505027 -0.524807
vn 0.752503 0.600548 -0.270337
vn 0.767039 0.544717 -0.339019
vn 0.756265 0.559925 -0.338450
vn 0.751746 -0.461823 0.470741
vn 0.702167 -0.466889 0.537565
vn 0.776796 -0.419483 0.469704
vn -0.493381 -0.398480 0.773169
vn -0.710131 -0.578891 0.400748
vn -0.613111 -0.520576 0.594219
vn -0.776809 -0.594181 0.208608
vn -0.954480 -0.248803 0.164515
vn -0.877379 -0.196817 0.437572
vn 0.788298 -0.080975 0.609942
vn 0.919692 -0.116500 0.374959
vn -0.776809 -0.594181 0.208608
vn -0.472358 -0.504221 0.722938
vn -0.824234 0.169391 0.540319
vn -0.829620 -0.318024 0.458902
vn 0.376623 -0.316725 0.870540
vn 0.556096 -0.518028 0.649926
vn -0.472358 -0.504221 0.722938
vn -0.503278 0.801554 -0.322835
vn -0.503278 0.801554 -0.322835
vn -0.639151 0.382155 -0.667415
vn -0.503278 0.801554 -0.322835
vn -0.639151 0.382155 -0.667415
vn -0.345703 0.914363 -0.210784
vn 0.652878 0.321288 0.685948
vn 0.658728 0.362569 0.659258
vn 0.661454 0.345811 0.665503
vn 0.652878 0.321288 0.685948
vn 0.661454 0.345811 0.665503
vn 0.652878 0.321288 0.685948
vn 0.769542 0.443581 0.459391
vn 0.688816 0.542522 0.480835
vn 0.246459 0.969091 -0.010998
vn 0.246459 0.969091 -0.010998
vn -0.081964 0.922051 -0.378290
vn -0.037873 0.935551 -0.351155
vn -0.625217 -0.465458 -0.626461
vn -0.635580 -0.504897 -0.584052
vn -0.630671 -0.485388 -0.605518
vn 0.182591 -0.967862 0.172926
vn 0.158155 -0.964251 0.212619
vn 0.206629 -0.969358 0.132854
vn 0.688816 0.542522 0.480835
vn 0.656353 0.606220 0.449108
vn 0.246459 0.969091 -0.010998
vn -0.037873 0.935551 -0.351155
vn -0.164120 0.965235 -0.203436
vn -0.119175 0.965550 -0.231325
vn -0.037873 0.935551 -0.351155
vn -0.119175 0.965550 -0.231325
vn 0.246459 0.969091 -0.010998
vn -0.635580 -0.504897 -0.584052
vn -0.875451 -0.428876 -0.222825
vn -0.345833 -0.927300 -0.143229
vn -0.635580 -0.504897 -0.584052
vn -0.345833 -0.927300 -0.143229
vn -0.630671 -0.485388 -0.605518
vn 0.206629 -0.969358 0.132854
vn 0.118567 -0.962321 0.244706
vn 0.144418 -0.965964 0.214611
vn 0.206629 -0.969358 0.132854
vn 0.144418 -0.965964 0.214611
vn 0.182591 -0.967862 0.172926
vn -0.503278 0.801554 -0.322835
vn -0.274610 0.810981 -0.516623
vn -0.302815 0.816999 -0.490730
vn 0.725369 0.622055 0.294767
vn 0.497699 0.852076 0.162056
vn 0.725305 0.660371 -0.194533
vn 0.725369 0.622055 0.294767
vn 0.725305 0.660371 -0.194533
vn 0.830444 0.556444 -0.027067
vn 0.497699 0.852076 0.162056
vn 0.040436 0.996038 -0.079202
vn 0.153460 0.913633 -0.376463
vn 0.497699 0.852076 0.162056
vn 0.153460 0.913633 -0.376463
vn 0.725305 0.660371 -0.194533
vn 0.138538 -0.969722 0.201112
vn 0.132320 -0.957319 0.256965
vn -0.345833 -0.927300 -0.143229
vn 0.138538 -0.969722 0.201112
vn -0.345833 -0.927300 -0.143229
vn -0.031155 -0.999495 -0.006274
vn -0.630671 -0.485388 -0.605518
vn -0.698946 -0.423432 -0.576350
vn -0.745809 -0.384307 -0.544129
vn -0.630671 -0.485388 -0.605518
vn -0.745809 -0.384307 -0.544129
vn -0.625217 -0.465458 -0.626461
vn 0.182591 -0.967862 0.172926
vn -0.345833 -0.927300 -0.143229
vn 0.132320 -0.957319 0.256965
vn 0.182591 -0.967862 0.172926
vn 0.132320 -0.957319 0.256965
vn 0.158155 -0.964251 0.212619
vn 0.103091 0.661447 0.742873
vn 0.725305 0.660371 -0.194533
vn 0.153460 0.913633 -0.376463
vn 0.103091 0.661447 0.742873
vn 0.153460 0.913633 -0.376463
vn -0.140052 0.914992 0.378386
vn 0.652878 0.321288 0.685948
vn 0.652878 0.321288 0.685948
vn 0.747360 0.335523 0.573478
vn 0.825426 0.365069 0.430577
vn 0.824499 0.377878 0.421201
vn 0.821687 0.386521 0.418846
vn 0.825426 0.365069 0.430577
vn 0.821687 0.386521 0.418846
vn 0.773095 0.135536 0.619640
vn -0.491744 0.756844 -0.430551
vn -0.302815 0.816999 -0.490730
vn -0.274610 0.810981 -0.516623
vn -0.491744 0.756844 -0.430551
vn -0.274610 0.810981 -0.516623
vn -0.355373 0.818581 -0.451261
vn 0.825672 0.356723 0.437052
vn 0.216822 -0.007473 0.976183
vn -0.090027 0.811738 0.577040
vn 0.825672 0.356723 0.437052
vn -0.090027 0.811738 0.577040
vn 0.831722 0.205271 0.515850
vn 0.831722 0.205271 0.515850
vn 0.831723 0.205271 0.515850
vn 0.825672 0.356723 0.437052
vn 0.199220 0.863807 -0.462762
vn 0.042773 0.996029 -0.078085
vn 0.362760 0.931055 0.039258
vn -0.639151 0.382155 -0.667415
vn -0.642730 -0.243492 -0.726368
vn -0.105436 -0.904213 -0.413862
vn -0.639151 0.382155 -0.667415
vn -0.105436 -0.904213 -0.413862
vn 0.054707 -0.918501 -0.391615
vn -0.639151 0.382155 -0.667415
vn 0.054707 -0.918501 -0.391615
vn -0.227572 -0.149489 -0.962218
vn -0.639151 0.382155 -0.667415
vn -0.227572 -0.149489 -0.962218
vn 0.116774 -0.033407 -0.992597
vn -0.139218 -0.959750 -0.243922
vn 0.482662 -0.875407 -0.026452
vn 0.200766 -0.876377 0.437786
vn -0.139218 -0.959750 -0.243922
vn 0.200766 -0.876377 0.437786
vn -0.233218 -0.777193 0.584448
vn -0.110294 -0.959913 0.257688
vn 0.373257 -0.846180 0.380340
vn 0.521376 -0.851704 0.052602
vn 0.547567 0.828398 0.118015
vn 0.546213 0.834716 0.069994
vn 0.220853 0.957564 -0.185188
vn -0.233218 -0.777193 0.584448
vn 0.200766 -0.876377 0.437786
vn 0.010550 -0.504117 0.863571
vn 0.356913 -0.831895 0.424928
vn -0.472358 -0.504221 0.722938
vn 0.556096 -0.518028 0.649926
vn 0.773095 0.135536 0.619640
vn 0.500969 0.781793 0.371255
vn 0.825426 0.365069 0.430577
vn -0.756073 -0.337700 -0.560636
vn -0.744319 -0.337203 -0.576441
vn -0.767535 -0.338065 -0.544612
vn -0.355373 0.818581 -0.451261
vn -0.178926 0.982208 -0.057031
vn -0.491744 0.756844 -0.430551
vn 0.376623 -0.316725 0.870540
vn -0.472358 -0.504221 0.722938
vn -0.483820 -0.455006 0.747588
vn 0.376623 -0.316725 0.870540
vn -0.483820 -0.455006 0.747588
vn 0.378412 -0.500905 0.778395
vn -0.788332 -0.325047 0.522377
vn -0.483820 -0.455006 0.747588
vn -0.472358 -0.504221 0.722938
vn -0.788332 -0.325047 0.522377
vn -0.472358 -0.504221 0.722938
vn -0.829620 -0.318024 0.458902
vn 0.547567 0.828398 0.118015
vn 0.246459 0.969091 -0.010998
vn 0.656353 0.606220 0.449108
vn 0.547567 0.828398 0.118015
vn 0.656353 0.606220 0.449108
vn 0.662673 0.678349 0.317345
vn -0.105436 -0.904213 -0.413862
vn -0.642730 -0.243492 -0.726368
vn -0.808785 -0.297381 -0.507377
vn 0.054707 -0.918501 -0.391615
vn 0.606333 -0.766502 0.211745
vn 0.647130 -0.642487 0.410406
vn 0.054707 -0.918501 -0.391615
vn 0.647130 -0.642487 0.410406
vn 0.472493 -0.853139 0.221144
vn 0.766219 -0.617343 0.178313
vn 0.521376 -0.851704 0.052602
vn 0.373257 -0.846180 0.380340
vn 0.766219 -0.617343 0.178313
vn 0.373257 -0.846180 0.380340
vn 0.715089 -0.616074 0.330304
vn 0.246459 0.969091 -0.010998
vn -0.332210 0.931317 -0.149280
vn -0.081964 0.922051 -0.378290
vn 0.246459 0.969091 -0.010998
vn 0.729383 0.372029 0.574104
vn 0.707144 0.382765 0.594506
vn 0.246459 0.969091 -0.010998
vn 0.707144 0.382765 0.594506
vn 0.769542 0.443581 0.459391
vn -0.105436 -0.904213 -0.413862
vn 0.234415 -0.844059 0.482301
vn 0.350263 -0.863067 0.363912
vn -0.105436 -0.904213 -0.413862
vn 0.478910 -0.847337 0.229488
vn 0.606333 -0.766502 0.211745
vn -0.105436 -0.904213 -0.413862
vn 0.606333 -0.766502 0.211745
vn 0.054707 -0.918501 -0.391615
vn 0.556096 -0.518028 0.649926
vn 0.234415 -0.844059 0.482301
vn 0.356913 -0.831895 0.424928
vn -0.767535 -0.338065 -0.544612
vn -0.808785 -0.297381 -0.507377
vn -0.756073 -0.337700 -0.560636
vn 0.054707 -0.918501 -0.391615
vn 0.472493 -0.853139 0.221144
vn 0.304017 -0.928780 -0.211993
vn 0.350263 -0.863067 0.363912
vn 0.478910 -0.847337 0.229488
vn -0.105436 -0.904213 -0.413862
vn -0.302815 0.816999 -0.490730
vn -0.503278 0.801554 -0.322835
vn -0.503278 0.801554 -0.322835
vn 0.747360 0.335523 0.573478
vn 0.821687 0.386521 0.418846
vn 0.824499 0.377878 0.421201
vn 0.747360 0.335523 0.573478
vn 0.824499 0.377878 0.421201
vn 0.652878 0.321288 0.685948
vn 0.521376 -0.851704 0.052602
vn 0.482662 -0.875407 -0.026452
vn -0.139218 -0.959750 -0.243922
vn 0.785396 -0.618566 0.023015
vn 0.386604 -0.914429 -0.119820
vn 0.482662 -0.875407 -0.026452
vn 0.785396 -0.618566 0.023015
vn 0.482662 -0.875407 -0.026452
vn 0.521376 -0.851704 0.052602
vn 0.738585 0.416391 0.530199
vn 0.739956 0.461924 0.488969
vn 0.739956 0.461924 0.488969
vn 0.738585 0.416391 0.530199
vn 0.739956 0.461924 0.488969
vn 0.633159 0.478517 0.608384
vn -0.853014 0.392276 0.344219
vn -0.837404 0.336381 0.430815
vn -0.881909 0.355893 0.309154
vn -0.853014 0.392276 0.344219
vn -0.881909 0.355893 0.309154
vn -0.853014 0.392276 0.344218
vn 0.214200 -0.973135 0.084418
vn 0.069792 -0.986445 0.148514
vn -0.008790 -0.914682 0.404079
vn 0.039012 0.178699 0.983130
vn 0.278824 -0.093082 0.955820
vn 0.461559 -0.205228 0.863044
vn 0.214200 -0.973135 0.084418
vn 0.106035 -0.987511 -0.116524
vn 0.069792 -0.986445 0.148514
vn 0.461559 -0.205228 0.863044
vn 0.096027 0.386608 0.917231
vn 0.143412 0.421757 0.895296
vn 0.461559 -0.205228 0.863044
vn 0.143412 0.421757 0.895296
vn 0.039012 0.178699 0.983130
vn 0.779501 0.607077 0.154387
vn 0.752503 0.600548 -0.270337
vn 0.739956 0.461924 0.488969
vn -0.579218 0.573621 -0.579194
vn -0.365285 0.691874 -0.622798
vn -0.459764 0.862659 -0.210800
vn -0.579218 0.573621 -0.579194
vn -0.459764 0.862659 -0.210800
vn -0.721708 0.638023 -0.268447
vn -0.365285 0.691874 -0.622798
vn 0.153460 0.913633 -0.376463
vn 0.040436 0.996038 -0.079202
vn -0.365285 0.691874 -0.622798
vn 0.040436 0.996038 -0.079202
vn -0.459764 0.862659 -0.210800
vn -0.212635 0.927202 -0.308355
vn -0.362342 0.928336 -0.083067
vn -0.457109 0.424869 -0.781370
vn -0.212635 0.927202 -0.308355
vn -0.457109 0.424869 -0.781370
vn -0.415102 0.693609 -0.588725
vn -0.140052 0.914992 0.378386
vn 0.153460 0.913633 -0.376463
vn -0.365285 0.691874 -0.622798
vn -0.140052 0.914992 0.378386
vn -0.365285 0.691874 -0.622798
vn -0.529460 0.665595 0.525980
vn -0.830430 0.556717 0.021265
vn -0.853014 0.392276 0.344219
vn -0.853014 0.392276 0.344218
vn -0.926877 0.333178 -0.172891
vn -0.695295 0.486461 -0.529075
vn -0.685219 0.505027 -0.524807
vn -0.926877 0.333178 -0.172891
vn -0.685219 0.505027 -0.524807
vn -0.760959 0.493486 -0.421204
vn 0.779664 0.582026 -0.231020
vn 0.756265 0.559925 -0.338450
vn 0.767039 0.544717 -0.339019
vn 0.779664 0.582026 -0.231020
vn 0.767039 0.544717 -0.339019
vn 0.892812 0.448779 0.038518
vn -0.178611 0.980624 -0.080467
vn -0.090027 0.811738 0.577040
vn -0.673701 0.353274 0.649095
vn -0.178611 0.980624 -0.080467
vn -0.673701 0.353274 0.649095
vn -0.304158 0.952513 -0.014372
vn -0.304158 0.952513 -0.014372
vn -0.178611 0.980624 -0.080467
vn -0.178611 0.980624 -0.080467
vn -0.268721 0.938878 -0.215167
vn 0.042773 0.996029 -0.078085
vn 0.199220 0.863807 -0.462762
vn -0.268721 0.938878 -0.215167
vn 0.199220 0.863807 -0.462762
vn -0.191332 0.692944 -0.695141
vn -0.233218 -0.777193 0.584448
vn -0.495459 -0.854270 0.157298
vn -0.139218 -0.959750 -0.243922
vn 0.521376 -0.851704 0.052602
vn -0.438244 -0.842590 -0.313025
vn -0.547894 -0.836336 0.018836
vn 0.521376 -0.851704 0.052602
vn -0.547894 -0.836336 0.018836
vn -0.110294 -0.959913 0.257688
vn -0.080812 -0.996654 -0.012266
vn -0.044166 -0.904605 0.423957
vn -0.284262 -0.956442 0.066442
vn -0.233218 -0.777193 0.584448
vn -0.642639 -0.516464 0.565933
vn -0.495459 -0.854270 0.157298
vn -0.760959 0.493486 -0.421204
vn -0.452530 0.885830 -0.102581
vn -0.954480 -0.248803 0.164515
vn 0.892812 0.448779 0.038518
vn 0.391876 0.919993 -0.006813
vn 0.779664 0.582026 -0.231020
vn -0.168423 -0.968315 -0.184391
vn 0.106035 -0.987511 -0.116524
vn 0.214200 -0.973135 0.084418
vn -0.168423 -0.968315 -0.184391
vn 0.214200 -0.973135 0.084418
vn -0.080812 -0.996654 -0.012266
vn -0.595360 -0.699101 -0.395986
vn -0.755172 -0.535839 -0.377614
vn -0.596174 -0.345367 -0.724775
vn -0.595360 -0.699101 -0.395986
vn -0.596174 -0.345367 -0.724775
vn -0.337821 -0.471238 -0.814747
vn 0.278824 -0.093082 0.955820
vn 0.461558 -0.205228 0.863044
vn 0.461559 -0.205228 0.863044
vn -0.008790 -0.914682 0.404079
vn 0.219837 -0.835089 0.504280
vn 0.182480 -0.852161 0.490431
vn -0.008790 -0.914682 0.404079
vn 0.182480 -0.852161 0.490431
vn 0.214200 -0.973135 0.084418
vn 0.873442 -0.458838 0.162995
vn 0.751746 -0.461823 0.470741
vn 0.776796 -0.419483 0.469704
vn 0.873442 -0.458838 0.162995
vn 0.776796 -0.419483 0.469704
vn 0.873442 -0.458838 0.162995
vn -0.743186 -0.667570 -0.044993
vn -0.747585 -0.663678 0.025448
vn -0.747585 -0.663678 0.025448
vn -0.743186 -0.667570 -0.044993
vn -0.747585 -0.663678 0.025448
vn -0.743186 -0.667570 -0.044993
vn -0.776809 -0.594181 0.208608
vn -0.613111 -0.520576 0.594219
vn -0.710131 -0.578891 0.400748
vn -0.776809 -0.594181 0.208608
vn -0.710131 -0.578891 0.400748
vn -0.954480 -0.248803 0.164515
vn 0.919692 -0.116500 0.374959
vn 0.702167 -0.466889 0.537565
vn 0.751746 -0.461823 0.470741
vn 0.919692 -0.116500 0.374959
vn 0.751746 -0.461823 0.470741
vn 0.784088 -0.484294 0.388156
vn -0.131887 -0.827127 -0.546321
vn -0.595360 -0.699101 -0.395986
vn -0.337821 -0.471238 -0.814747
vn -0.131887 -0.827127 -0.546321
vn -0.337821 -0.471238 -0.814747
vn 0.475393 -0.423629 -0.771064
vn 0.739956 0.461924 0.488969
vn 0.739956 0.461924 0.488969
vn 0.779501 0.607077 0.154387
vn -0.853014 0.392276 0.344218
vn -0.703324 0.561735 -0.435648
vn -0.830430 0.556717 0.021265
vn -0.139218 -0.959750 -0.243922
vn -0.438244 -0.842590 -0.313025
vn 0.521376 -0.851704 0.052602
vn -0.438244 -0.842590 -0.313025
vn -0.139218 -0.959750 -0.243922
vn -0.164658 -0.635367 -0.754451
vn -0.438244 -0.842590 -0.313025
vn -0.164658 -0.635367 -0.754451
vn -0.614468 -0.602747 -0.509043
vn 0.497699 0.852076 0.162056
vn 0.725369 0.622055 0.294767
vn 0.704315 0.564433 0.430530
vn 0.497699 0.852076 0.162056
vn 0.704315 0.564433 0.430530
vn 0.512817 0.799463 0.312854
vn 0.019855 -0.863688 -0.503636
vn 0.019992 -0.863611 -0.503762
vn 0.019992 -0.863611 -0.503762
vn 0.019855 -0.863688 -0.503636
vn 0.019992 -0.863611 -0.503762
vn 0.019993 -0.863611 -0.503762
vn 0.019855 -0.863688 -0.503636
vn 0.019993 -0.863611 -0.503762
vn 0.019855 -0.863688 -0.503636
vn -0.535299 0.411968 -0.737386
vn -0.735460 0.318185 -0.598212
vn -0.664762 0.689983 -0.286382
vn -0.535299 0.411968 -0.737386
vn -0.664762 0.689983 -0.286382
vn -0.535299 0.411968 -0.737386
vn -0.872950 0.284412 -0.396318
vn -0.664762 0.689983 -0.286382
vn -0.735460 0.318185 -0.598212
vn -0.872950 0.284412 -0.396318
vn -0.735460 0.318185 -0.598212
vn -0.885441 0.202692 -0.418222
vn 0.019855 -0.863688 -0.503636
vn 0.019718 -0.863764 -0.503510
vn 0.019718 -0.863764 -0.503510
vn 0.019855 -0.863688 -0.503636
vn 0.019718 -0.863764 -0.503510
vn 0.019855 -0.863688 -0.503636
vn 0.378412 -0.500905 0.778395
vn 0.940547 -0.213030 0.264554
vn 0.802317 0.278427 0.527983
vn 0.378412 -0.500905 0.778395
vn 0.802317 0.278427 0.527983
vn 0.376623 -0.316725 0.870540
vn 0.042773 0.996029 -0.078085
vn 0.040436 0.996038 -0.079202
vn 0.497699 0.852076 0.162056
vn 0.042773 0.996029 -0.078085
vn 0.497699 0.852076 0.162056
vn 0.362760 0.931055 0.039258
vn 0.300597 -0.932733 0.199126
vn -0.229942 -0.568212 0.790103
vn 0.216822 -0.007473 0.976183
vn 0.300597 -0.932733 0.199126
vn 0.216822 -0.007473 0.976183
vn 0.300596 -0.932733 0.199126
vn 0.300596 -0.932733 0.199126
vn 0.304634 -0.952398 -0.011661
vn 0.304634 -0.952398 -0.011661
vn 0.300596 -0.932733 0.199126
vn 0.304634 -0.952398 -0.011661
vn 0.300597 -0.932733 0.199126
vn 0.940547 -0.213030 0.264554
vn 0.864303 0.239755 -0.442151
vn 0.864303 0.239755 -0.442151
vn 0.940547 -0.213030 0.264554
vn 0.864303 0.239755 -0.442151
vn 0.802317 0.278427 0.527983
vn 0.498887 0.444678 -0.743891
vn 0.864303 0.239755 -0.442151
vn 0.864303 0.239755 -0.442151
vn 0.498887 0.444678 -0.743891
vn 0.864303 0.239755 -0.442151
vn 0.498887 0.444678 -0.743891
vn -0.677745 0.715656 -0.168814
vn -0.797446 0.579258 -0.168935
vn -0.721708 0.638023 -0.268447
vn -0.677745 0.715656 -0.168814
vn -0.721708 0.638023 -0.268447
vn -0.459764 0.862659 -0.210800
vn 0.094940 -0.920683 -0.378589
vn 0.094905 -0.920645 -0.378689
vn 0.094905 -0.920645 -0.378689
vn 0.094940 -0.920683 -0.378589
vn 0.094905 -0.920645 -0.378689
vn 0.094905 -0.920645 -0.378689
vn 0.094940 -0.920683 -0.378589
vn 0.094905 -0.920645 -0.378689
vn 0.094939 -0.920683 -0.378590
vn 0.922047 0.220566 -0.318088
vn 0.830999 0.545177 0.110557
vn 0.988667 0.123927 -0.084736
vn 0.922047 0.220566 -0.318088
vn 0.988667 0.123927 -0.084736
vn 0.922047 0.220566 -0.318088
vn -0.443257 0.850470 -0.283238
vn -0.400313 0.915902 0.029531
vn -0.400313 0.915903 0.029531
vn -0.443257 0.850470 -0.283238
vn -0.400313 0.915903 0.029531
vn -0.443257 0.850470 -0.283238
vn -0.283727 -0.181772 -0.941519
vn -0.346936 0.144157 -0.926744
vn -0.346936 0.144157 -0.926744
vn -0.283727 -0.181772 -0.941519
vn -0.346936 0.144157 -0.926744
vn -0.283727 -0.181772 -0.941519
vn -0.400313 0.915902 0.029531
vn -0.362342 0.928336 -0.083067
vn -0.249419 0.950509 0.185265
vn -0.400313 0.915902 0.029531
vn -0.249419 0.950509 0.185265
vn -0.400313 0.915903 0.029531
vn -0.283727 -0.181772 -0.941519
vn -0.132797 -0.395743 -0.908709
vn -0.092099 -0.405076 -0.909632
vn -0.283727 -0.181772 -0.941519
vn -0.092099 -0.405076 -0.909632
vn -0.283727 -0.181772 -0.941519
vn 0.987829 0.018832 0.154398
vn 0.988667 0.123927 -0.084736
vn 0.830999 0.545177 0.110557
vn 0.987829 0.018832 0.154398
vn 0.830999 0.545177 0.110557
vn 0.788298 -0.080975 0.609942
vn 0.094939 -0.920683 -0.378590
vn 0.094973 -0.920720 -0.378490
vn 0.094973 -0.920720 -0.378490
vn 0.094939 -0.920683 -0.378590
vn 0.094973 -0.920720 -0.378490
vn 0.094940 -0.920683 -0.378589
vn -0.443257 0.850470 -0.283238
vn -0.176123 0.836268 -0.519265
vn -0.238330 0.816110 -0.526462
vn -0.443257 0.850470 -0.283238
vn -0.238330 0.816110 -0.526462
vn -0.443257 0.850470 -0.283238
vn -0.346936 0.144157 -0.926744
vn -0.457109 0.424869 -0.781370
vn -0.362342 0.928336 -0.083067
vn -0.346936 0.144157 -0.926744
vn -0.362342 0.928336 -0.083067
vn -0.346936 0.144157 -0.926744
vn -0.877379 -0.196817 0.437572
vn -0.887739 0.458427 -0.042004
vn -0.949285 -0.045339 -0.311132
vn -0.877379 -0.196817 0.437572
vn -0.949285 -0.045339 -0.311132
vn -0.835104 -0.321870 0.446095
vn -0.268721 0.938878 -0.215167
vn -0.459764 0.862659 -0.210800
vn 0.040436 0.996038 -0.079202
vn -0.268721 0.938878 -0.215167
vn 0.040436 0.996038 -0.079202
vn 0.042773 0.996029 -0.078085
vn 0.475393 -0.423629 -0.771064
vn 0.158131 -0.670824 -0.724562
vn 0.928753 -0.319691 -0.187657
vn 0.475393 -0.423629 -0.771064
vn 0.928753 -0.319691 -0.187657
vn 0.855613 -0.170804 -0.488622
vn 0.116774 -0.033407 -0.992597
vn 0.788976 -0.141737 -0.597853
vn 0.475393 -0.423629 -0.771064
vn 0.116774 -0.033407 -0.992597
vn 0.475393 -0.423629 -0.771064
vn 0.855613 -0.170804 -0.488622
vn -0.835104 -0.321870 0.446095
vn -0.111271 -0.394167 0.912278
vn -0.100102 -0.504174 0.857781
vn -0.835104 -0.321870 0.446095
vn -0.100102 -0.504174 0.857781
vn -0.877379 -0.196817 0.437572
vn 0.788298 -0.080975 0.609942
vn -0.100102 -0.504174 0.857781
vn -0.111271 -0.394167 0.912278
vn 0.788298 -0.080975 0.609942
vn -0.111271 -0.394167 0.912278
vn 0.285279 -0.341154 0.895673
vn 0.873442 -0.458838 0.162995
vn 0.928753 -0.319691 -0.187657
vn 0.158131 -0.670824 -0.724562
vn 0.873442 -0.458838 0.162995
vn 0.158131 -0.670824 -0.724562
vn 0.873442 -0.458838 0.162995
vn -0.761054 -0.602701 -0.239891
vn -0.547894 -0.836336 0.018836
vn -0.438244 -0.842590 -0.313025
vn -0.761054 -0.602701 -0.239891
vn -0.438244 -0.842590 -0.313025
vn -0.699335 -0.604257 -0.381843
vn -0.337821 -0.471238 -0.814747
vn -0.596174 -0.345367 -0.724775
vn -0.720845 -0.486703 -0.493461
vn -0.337821 -0.471238 -0.814747
vn -0.720845 -0.486703 -0.493461
vn 0.158131 -0.670824 -0.724562
vn -0.743186 -0.667570 -0.044993
vn 0.158131 -0.670824 -0.724562
vn -0.720845 -0.486703 -0.493461
vn -0.743186 -0.667570 -0.044993
vn -0.720845 -0.486703 -0.493461
vn -0.743186 -0.667570 -0.044993
vn -0.846732 -0.397713 -0.353368
vn -0.805705 -0.506945 -0.306342
vn -0.805705 -0.506946 -0.306342
vn -0.846732 -0.397713 -0.353368
vn -0.805705 -0.506946 -0.306342
vn -0.846732 -0.397713 -0.353368
vn -0.846732 -0.397713 -0.353368
vn -0.874359 -0.282187 -0.394801
vn -0.874359 -0.282187 -0.394801
vn -0.846732 -0.397713 -0.353368
vn -0.874359 -0.282187 -0.394801
vn -0.846732 -0.397713 -0.353368
vn -0.887739 0.458427 -0.042004
vn -0.407822 0.279828 -0.869125
vn -0.407822 0.279828 -0.869124
vn -0.887739 0.458427 -0.042004
vn -0.407822 0.279828 -0.869124
vn -0.949285 -0.045339 -0.311132
vn 0.095017 0.386582 -0.917347
vn -0.407822 0.279828 -0.869124
vn -0.407822 0.279828 -0.869125
vn 0.095017 0.386582 -0.917347
vn -0.407822 0.279828 -0.869125
vn 0.095018 0.386582 -0.917347
f 78/1/1 95/2/2 103/3/3
f 53/4/4 76/5/5 51/6/6
f 51/7/7 17/8/8 52/9/9
f 32/10/10 82/11/11 83/12/12
f 56/13/13 55/14/14 32/15/15
f 83/16/16 82/17/17 24/18/18
f 24/19/19 55/20/20 56/21/21
f 76/22/22 19/23/23 50/24/24
f 50/25/25 19/26/26 17/27/27
f 19/28/28 76/29/29 53/30/30
f 17/31/31 83/32/32 50/33/33
f 52/34/34 17/35/35 19/36/36
f 51/37/37 84/38/38 53/39/39
f 51/40/40 83/41/41 17/42/42
f 52/43/43 84/44/44 51/45/45
f 33/46/46 94/47/47 60/48/48
f 74/49/49 1/50/50 70/51/51
f 43/52/52 92/53/53 60/54/54
f 92/55/55 67/56/56 60/57/57
f 60/58/58 94/59/59 45/60/60
f 106/61/61 30/62/62 105/63/63
f 28/64/64 81/65/65 105/66/66
f 30/67/67 54/68/68 28/69/69
f 71/70/70 39/71/71 97/72/72
f 50/73/73 56/74/74 76/75/75
f 56/76/76 50/77/77 24/78/78
f 101/79/79 21/80/80 104/81/81
f 102/82/82 19/83/83 53/84/84
f 52/85/85 19/86/86 102/87/87
f 76/88/88 56/89/89 51/90/90
f 32/91/91 51/92/92 56/93/93
f 101/94/94 12/95/95 3/96/96
f 10/97/97 48/98/98 7/99/99
f 101/100/100 22/101/101 102/102/102
f 58/103/103 102/104/104 34/105/105
f 99/106/106 43/107/107 60/108/108
f 44/109/109 92/110/110 43/111/111
f 45/112/112 94/113/113 18/114/114
f 72/115/115 63/116/116 49/117/117
f 102/118/118 22/119/119 23/120/120
f 1/121/121 86/122/122 15/123/123
f 80/124/124 9/125/125 77/126/126
f 3/127/127 21/128/128 101/129/129
f 77/130/130 71/131/131 37/132/132
f 9/133/133 80/134/134 16/135/135
f 22/136/136 104/137/137 78/138/138
f 77/139/139 9/140/140 15/141/141
f 70/142/142 1/143/143 14/144/144
f 103/145/145 22/146/146 78/147/147
f 101/148/148 104/149/149 22/150/150
f 23/151/151 22/152/152 103/153/153
f 103/154/154 34/155/155 53/156/156
f 53/157/157 84/158/158 103/159/159
f 72/160/160 97/161/161 70/162/162
f 37/163/163 80/164/164 77/165/165
f 102/166/166 58/167/167 101/168/168
f 28/169/169 27/170/170 81/171/171
f 54/172/172 27/173/173 28/174/174
f 27/175/175 26/176/176 81/177/177
f 54/178/178 26/179/179 27/180/180
f 105/181/181 29/182/182 28/183/183
f 28/184/184 29/185/185 30/186/186
f 26/187/187 25/188/188 81/189/189
f 54/190/190 25/191/191 26/192/192
f 43/193/193 99/194/194 44/195/195
f 24/196/196 50/197/197 83/198/198
f 103/199/199 85/200/200 34/201/201
f 104/202/202 21/203/203 78/204/204
f 83/205/205 51/206/206 32/207/207
f 79/208/208 35/209/209 111/210/210
f 91/211/211 87/212/212 61/213/213
f 41/214/214 87/215/215 91/216/216
f 37/217/217 36/218/218 80/219/219
f 95/220/220 85/221/221 103/222/222
f 58/223/223 34/224/224 111/225/225
f 103/226/226 84/227/227 52/228/228
f 60/229/229 67/230/230 33/231/231
f 6/232/232 78/233/233 8/234/234
f 78/235/235 21/236/236 8/237/237
f 53/238/238 34/239/239 102/240/240
f 42/241/241 23/242/242 103/243/243
f 42/244/244 52/245/245 102/246/246
f 103/247/247 52/248/248 42/249/249
f 102/250/250 23/251/251 42/252/252
f 111/253/253 35/254/254 58/255/255
f 96/256/256 65/257/257 197/258/258
f 113/259/259 176/260/260 149/261/261
f 148/262/262 112/263/263 113/264/264
f 182/265/265 181/266/266 128/267/267
f 128/268/268 151/269/269 152/270/270
f 121/271/271 181/272/272 182/273/273
f 152/274/274 151/275/275 121/276/276
f 147/277/277 115/278/278 176/279/279
f 112/280/280 115/281/281 147/282/282
f 148/283/283 154/284/284 115/285/285
f 149/286/286 176/287/287 115/288/288
f 147/289/289 182/290/290 112/291/291
f 115/292/292 112/293/293 148/294/294
f 149/295/295 183/296/296 113/297/297
f 115/298/298 154/299/299 149/300/300
f 112/301/301 182/302/302 113/303/303
f 113/304/304 183/305/305 148/306/306
f 161/307/307 196/308/308 129/309/309
f 168/310/310 1/311/311 174/312/312
f 161/313/313 194/314/314 139/315/315
f 161/316/316 163/317/317 194/318/318
f 200/319/319 196/320/320 161/321/321
f 170/322/322 133/323/323 171/324/324
f 13/325/325 169/326/326 160/327/327
f 13/328/328 191/329/329 125/330/330
f 125/331/331 150/332/332 169/333/333
f 176/334/334 152/335/335 147/336/336
f 121/337/337 147/338/338 152/339/339
f 202/340/340 119/341/341 118/342/342
f 149/343/343 154/344/344 155/345/345
f 155/346/346 154/347/347 148/348/348
f 113/349/349 152/350/350 176/351/351
f 152/352/352 113/353/353 128/354/354
f 3/355/355 12/356/356 118/357/357
f 7/358/358 145/359/359 10/360/360
f 9/361/361 177/362/362 185/363/363
f 155/364/364 65/365/365 118/366/366
f 130/367/367 155/368/368 172/369/369
f 167/370/370 157/371/371 143/372/372
f 167/373/373 165/374/374 137/375/375
f 139/376/376 194/377/377 140/378/378
f 114/379/379 196/380/380 200/381/381
f 146/382/382 158/383/383 171/384/384
f 120/385/385 65/386/386 155/387/387
f 15/388/388 185/389/389 1/390/390
f 118/391/391 119/392/392 3/393/393
f 16/394/394 180/395/395 9/396/396
f 178/397/397 202/398/398 65/399/399
f 14/400/400 1/401/401 168/402/402
f 178/403/403 65/404/404 96/405/405
f 65/406/406 202/407/407 118/408/408
f 197/409/409 65/410/410 120/411/411
f 149/412/412 130/413/413 197/414/414
f 197/415/415 183/416/416 149/417/417
f 168/418/418 198/419/419 171/420/420
f 177/421/421 180/422/422 133/423/423
f 118/424/424 172/425/425 155/426/426
f 191/427/427 124/428/428 125/429/429
f 125/430/430 124/431/431 150/432/432
f 191/433/433 123/434/434 124/435/435
f 124/436/436 123/437/437 150/438/438
f 125/439/439 126/440/440 13/441/441
f 169/442/442 126/443/443 125/444/444
f 191/445/445 122/446/446 123/447/447
f 123/448/448 122/449/449 150/450/450
f 168/451/451 70/452/452 14/453/453
f 182/454/454 147/455/455 121/456/456
f 130/457/457 184/458/458 197/459/459
f 178/460/460 119/461/461 202/462/462
f 128/463/463 113/464/464 182/465/465
f 38/466/466 131/467/467 179/468/468
f 140/469/469 192/470/470 186/471/471
f 188/472/472 187/473/473 189/474/474
f 186/475/475 192/476/476 114/477/477
f 180/478/478 132/479/479 133/480/480
f 197/481/481 184/482/482 96/483/483
f 38/484/484 130/485/485 172/486/486
f 148/487/487 183/488/488 197/489/489
f 129/490/490 163/491/491 161/492/492
f 180/493/493 177/494/494 9/495/495
f 8/496/496 178/497/497 6/498/498
f 8/499/499 119/500/500 178/501/501
f 155/502/502 130/503/503 149/504/504
f 197/505/505 120/506/506 138/507/507
f 155/508/508 148/509/509 138/510/510
f 138/511/511 148/512/512 197/513/513
f 138/514/514 120/515/515 155/516/516
f 172/517/517 131/518/518 38/519/519
f 9/520/520 185/521/521 15/522/522
f 15/523/523 86/524/524 77/525/525
f 133/526/526 170/527/527 177/528/528
f 70/529/529 97/530/530 74/531/531
f 174/532/532 198/533/533 168/534/534
f 72/535/535 37/536/536 71/537/537
f 198/538/538 135/539/539 170/540/540
f 97/541/541 72/542/542 71/543/543
f 170/544/544 171/545/545 198/546/546
f 63/547/547 72/548/548 70/549/549
f 168/550/550 171/551/551 158/552/552
f 137/553/553 157/554/554 167/555/555
f 143/556/556 142/557/557 167/558/558
f 190/559/559 142/560/560 143/561/561
f 137/562/562 165/563/563 190/564/564
f 186/565/565 139/566/566 140/567/567
f 114/568/568 200/569/569 186/570/570
f 88/571/571 45/572/572 18/573/573
f 44/574/574 99/575/575 88/576/576
f 98/577/577 47/578/578 74/579/579
f 98/580/580 74/581/581 97/582/582
f 98/583/583 97/584/584 39/585/585
f 98/586/586 39/587/587 40/588/588
f 109/589/589 46/590/590 81/591/591
f 81/592/592 108/593/593 107/594/594
f 107/595/595 108/596/596 110/597/597
f 110/598/598 46/599/599 109/600/600
f 46/601/601 31/602/602 81/603/603
f 107/604/604 24/605/605 82/606/606
f 107/607/607 82/608/608 81/609/609
f 108/610/610 25/611/611 54/612/612
f 108/613/613 54/614/614 110/615/615
f 109/616/616 32/617/617 55/618/618
f 109/619/619 55/620/620 110/621/621
f 98/622/622 59/623/623 61/624/624
f 36/625/625 49/626/626 58/627/627
f 36/628/628 58/629/629 35/630/630
f 49/631/631 2/632/632 4/633/633
f 49/634/634 4/635/635 58/636/636
f 106/637/637 31/638/638 54/639/639
f 106/640/640 54/641/641 30/642/642
f 110/643/643 55/644/644 24/645/645
f 110/646/646 24/647/647 107/648/648
f 110/649/649 54/650/650 31/651/651
f 110/652/652 31/653/653 46/654/654
f 101/655/655 58/656/656 4/657/657
f 101/658/658 4/659/659 12/660/660
f 98/661/661 40/662/662 69/663/663
f 100/664/664 59/665/665 41/666/666
f 100/667/667 41/668/668 99/669/669
f 45/670/670 61/671/671 59/672/672
f 45/673/673 59/674/674 100/675/675
f 73/676/676 21/677/677 3/678/678
f 73/679/679 3/680/680 7/681/681
f 7/682/682 48/683/683 73/684/684
f 70/685/685 5/686/686 63/687/687
f 74/688/688 47/689/689 87/690/690
f 74/691/691 87/692/692 89/693/693
f 74/694/694 89/695/695 86/696/696
f 74/697/697 86/698/698 1/699/699
f 184/700/700 85/701/701 95/702/702
f 184/703/703 95/704/704 6/705/705
f 16/706/706 80/707/707 79/708/708
f 105/709/709 30/710/710 29/711/711
f 6/712/712 95/713/713 78/714/714
f 91/715/715 88/716/716 99/717/717
f 99/718/718 60/719/719 100/720/720
f 45/721/721 88/722/722 91/723/723
f 100/724/724 60/725/725 45/726/726
f 44/727/727 88/728/728 90/729/729
f 44/730/730 90/731/731 66/732/732
f 20/733/733 90/734/734 88/735/735
f 20/736/736 88/737/737 18/738/738
f 105/739/739 81/740/740 31/741/741
f 105/742/742 31/743/743 106/744/744
f 87/745/745 47/746/746 61/747/747
f 89/748/748 39/749/749 71/750/750
f 89/751/751 71/752/752 77/753/753
f 35/754/754 79/755/755 80/756/756
f 35/757/757 80/758/758 36/759/759
f 81/760/760 25/761/761 108/762/762
f 81/763/763 82/764/764 32/765/765
f 81/766/766 32/767/767 109/768/768
f 87/769/769 41/770/770 69/771/771
f 87/772/772 40/773/773 39/774/774
f 87/775/775 39/776/776 89/777/777
f 99/778/778 41/779/779 91/780/780
f 91/781/781 61/782/782 45/783/783
f 89/784/784 77/785/785 86/786/786
f 69/787/787 40/788/788 87/789/789
f 61/790/790 47/791/791 98/792/792
f 69/793/793 41/794/794 59/795/795
f 69/796/796 59/797/797 98/798/798
f 79/799/799 85/800/800 184/801/801
f 111/802/802 34/803/803 85/804/804
f 111/805/805 85/806/806 79/807/807
f 174/808/808 144/809/809 157/810/810
f 174/811/811 157/812/812 198/813/813
f 136/814/814 135/815/815 198/816/816
f 136/817/817 198/818/818 157/819/819
f 191/820/820 141/821/821 64/822/822
f 134/823/823 159/824/824 191/825/825
f 191/826/826 127/827/827 141/828/828
f 191/829/829 181/830/830 121/831/831
f 191/832/832 121/833/833 134/834/834
f 199/835/835 143/836/836 157/837/837
f 131/838/838 172/839/839 146/840/840
f 131/841/841 146/842/842 132/843/843
f 172/844/844 4/845/845 2/846/846
f 172/847/847 2/848/848 146/849/849
f 169/850/850 150/851/851 127/852/852
f 169/853/853 127/854/854 160/855/855
f 12/856/856 4/857/857 172/858/858
f 12/859/859 172/860/860 118/861/861
f 166/862/862 136/863/863 157/864/864
f 139/865/865 165/866/866 167/867/867
f 139/868/868 167/869/869 201/870/870
f 201/871/871 167/872/872 142/873/873
f 201/874/874 142/875/875 200/876/876
f 7/877/877 3/878/878 119/879/879
f 7/880/880 119/881/881 173/882/882
f 173/883/883 145/884/884 7/885/885
f 158/886/886 5/887/887 70/888/888
f 158/889/889 70/890/890 168/891/891
f 6/892/892 96/893/893 184/894/894
f 79/895/895 179/896/896 180/897/897
f 79/898/898 180/899/899 16/900/900
f 13/901/901 126/902/902 169/903/903
f 6/904/904 178/905/905 96/906/906
f 201/907/907 161/908/908 139/909/909
f 200/910/910 161/911/911 201/912/912
f 160/913/913 127/914/914 191/915/915
f 160/916/916 191/917/917 13/918/918
f 177/919/919 170/920/920 135/921/921
f 177/922/922 135/923/923 189/924/924
f 159/925/925 122/926/926 191/927/927
f 64/928/928 128/929/929 181/930/930
f 64/931/931 181/932/932 191/933/933
f 117/934/934 190/935/935 143/936/936
f 117/937/937 143/938/938 199/939/939
f 166/940/940 137/941/941 190/942/942
f 166/943/943 190/944/944 117/945/945
f 186/946/946 190/947/947 165/948/948
f 186/949/949 165/950/950 139/951/951
f 200/952/952 142/953/953 190/954/954
f 200/955/955 190/956/956 186/957/957
f 185/958/958 177/959/959 189/960/960
f 185/961/961 189/962/962 187/963/963
f 157/964/964 144/965/965 199/966/966
f 157/967/967 137/968/968 166/969/969
f 184/970/970 179/971/971 79/972/972
f 179/973/973 184/974/974 130/975/975
f 179/976/976 130/977/977 38/978/978
f 49/979/979 36/980/980 37/981/981
f 49/982/982 37/983/983 72/984/984
f 93/985/985 66/986/986 90/987/987
f 93/988/988 90/989/989 20/990/990
f 93/991/991 20/992/992 75/993/993
f 57/994/994 75/995/995 94/996/996
f 57/997/997 94/998/998 33/999/999
f 18/1000/1000 94/1001/1001 75/1002/1002
f 18/1003/1003 75/1004/1004 20/1005/1005
f 75/1006/1006 57/1007/1007 68/1008/1008
f 75/1009/1009 68/1010/1010 93/1011/1011
f 66/1012/1012 93/1013/1013 92/1014/1014
f 66/1015/1015 92/1016/1016 44/1017/1017
f 5/1018/1018 2/1019/1019 49/1020/1020
f 5/1021/1021 49/1022/1022 63/1023/1023
f 11/1024/1024 8/1025/1025 21/1026/1026
f 11/1027/1027 21/1028/1028 73/1029/1029
f 73/1030/1030 48/1031/1031 10/1032/1032
f 73/1033/1033 10/1034/1034 11/1035/1035
f 93/1036/1036 68/1037/1037 67/1038/1038
f 93/1039/1039 67/1040/1040 92/1041/1041
f 33/1042/1042 67/1043/1043 68/1044/1044
f 33/1045/1045 68/1046/1046 57/1047/1047
f 171/1048/1048 133/1049/1049 132/1050/1050
f 171/1051/1051 132/1052/1052 146/1053/1053
f 175/1054/1054 116/1055/1055 193/1056/1056
f 175/1057/1057 193/1058/1058 162/1059/1059
f 175/1060/1060 162/1061/1061 195/1062/1062
f 129/1063/1063 196/1064/1064 175/1065/1065
f 129/1066/1066 175/1067/1067 153/1068/1068
f 62/1069/1069 156/1070/1070 159/1071/1071
f 62/1072/1072 159/1073/1073 134/1074/1074
f 64/1075/1075 141/1076/1076 156/1077/1077
f 64/1078/1078 156/1079/1079 62/1080/1080
f 156/1081/1081 150/1082/1082 122/1083/1083
f 156/1084/1084 122/1085/1085 159/1086/1086
f 62/1087/1087 151/1088/1088 128/1089/1089
f 62/1090/1090 128/1091/1091 64/1092/1092
f 116/1093/1093 175/1094/1094 196/1095/1095
f 116/1096/1096 196/1097/1097 114/1098/1098
f 195/1099/1099 164/1100/1100 153/1101/1101
f 195/1102/1102 153/1103/1103 175/1104/1104
f 134/1105/1105 121/1106/1106 151/1107/1107
f 134/1108/1108 151/1109/1109 62/1110/1110
f 141/1111/1111 127/1112/1112 150/1113/1113
f 141/1114/1114 150/1115/1115 156/1116/1116
f 140/1117/1117 194/1118/1118 195/1119/1119
f 140/1120/1120 195/1121/1121 162/1122/1122
f 158/1123/1123 146/1124/1124 2/1125/1125
f 158/1126/1126 2/1127/1127 5/1128/1128
f 187/1129/1129 188/1130/1130 144/1131/1131
f 187/1132/1132 144/1133/1133 174/1134/1134
f 1/1135/1135 185/1136/1136 187/1137/1137
f 1/1138/1138 187/1139/1139 174/1140/1140
f 162/1141/1141 193/1142/1142 192/1143/1143
f 162/1144/1144 192/1145/1145 140/1146/1146
f 114/1147/1147 192/1148/1148 193/1149/1149
f 114/1150/1150 193/1151/1151 116/1152/1152
f 199/1153/1153 144/1154/1154 188/1155/1155
f 199/1156/1156 188/1157/1157 117/1158/1158
f 132/1159/1159 180/1160/1160 179/1161/1161
f 132/1162/1162 179/1163/1163 131/1164/1164
f 189/1165/1165 135/1166/1166 136/1167/1167
f 189/1168/1168 136/1169/1169 188/1170/1170
f 117/1171/1171 188/1172/1172 136/1173/1173
f 117/1174/1174 136/1175/1175 166/1176/1176
f 173/1177/1177 119/1178/1178 8/1179/1179
f 173/1180/1180 8/1181/1181 11/1182/1182
f 11/1183/1183 10/1184/1184 145/1185/1185
f 11/1186/1186 145/1187/1187 173/1188/1188
f 194/1189/1189 163/1190/1190 164/1191/1191
f 194/1192/1192 164/1193/1193 195/1194/1194
f 153/1195/1195 164/1196/1196 163/1197/1197
f 153/1198/1198 163/1199/1199 129/1200/1200
