v 0.744480 0.080029 1.312516
v 0.744479 0.080029 -1.312517
v 0.744480 0.406789 1.312516
v 0.744479 0.406789 -1.312517
v -0.744480 0.080029 1.312517
v -0.744481 0.080029 -1.312516
v -0.744480 0.406789 1.312517
v -0.744481 0.406789 -1.312516
v -0.558361 0.080029 -1.148452
v -0.558361 0.080029 -0.984382
v 0.558360 0.080029 1.148452
v 0.558359 -0.323438 -0.984382
v -0.558360 -0.323438 0.984382
v 0.558359 -0.323438 -1.148452
v 0.558360 -0.323438 0.984382
v 0.558360 0.080029 0.984382
v -0.558361 -0.323438 -0.984382
v -0.558360 -0.323438 1.148452
v -0.558360 0.080029 1.148452
v -0.558361 -0.323438 -1.148452
v 0.558359 0.080029 -1.148452
v 0.558360 -0.323438 1.148452
v -0.558360 0.080029 0.984382
v 0.558359 0.080029 -0.984382
vt 0.800781 0.604167
vt 0.000000 0.605469
vt -0.003906 0.730469
vt 0.800781 0.604167
vt -0.003906 0.730469
vt 0.796875 0.730469
vt 0.175781 0.996094
vt 0.175781 0.600260
vt 0.000000 0.605469
vt 0.175781 0.996094
vt 0.000000 0.605469
vt 0.000001 1.000000
vt -0.003906 0.730469
vt 0.796875 0.730469
vt 0.800781 0.604167
vt -0.003906 0.730469
vt 0.800781 0.604167
vt 0.000000 0.605469
vt 0.800781 0.604167
vt 0.269531 0.617188
vt 0.265626 0.742188
vt 0.800781 0.604167
vt 0.265626 0.742188
vt 0.796875 0.730469
vt 0.800781 0.604167
vt 0.000000 0.605469
vt 0.000001 1.000000
vt 0.800781 0.604167
vt 0.000001 1.000000
vt 0.800781 1.000000
vt 0.695312 0.007812
vt 0.984375 0.003906
vt 0.988281 0.265625
vt 0.695312 0.007812
vt 0.988281 0.265625
vt 0.699219 0.265625
vt 0.695312 0.007812
vt 0.984375 0.003906
vt 0.988281 0.265625
vt 0.695312 0.007812
vt 0.988281 0.265625
vt 0.699219 0.265625
vt 0.695312 0.007812
vt 0.984375 0.003906
vt 0.988281 0.265625
vt 0.695312 0.007812
vt 0.988281 0.265625
vt 0.699219 0.265625
vt 0.695312 0.007812
vt 0.984375 0.003906
vt 0.988281 0.265625
vt 0.695312 0.007812
vt 0.988281 0.265625
vt 0.699219 0.265625
vt 0.695312 0.007812
vt 0.984375 0.003906
vt 0.988281 0.265625
vt 0.695312 0.007812
vt 0.988281 0.265625
vt 0.699219 0.265625
vt 0.695312 0.007812
vt 0.984375 0.003906
vt 0.988281 0.265625
vt 0.695312 0.007812
vt 0.988281 0.265625
vt 0.699219 0.265625
vt 0.695312 0.007812
vt 0.984375 0.003906
vt 0.988281 0.265625
vt 0.695312 0.007812
vt 0.988281 0.265625
vt 0.699219 0.265625
vt 0.695312 0.007812
vt 0.984375 0.003906
vt 0.988281 0.265625
vt 0.695312 0.007812
vt 0.988281 0.265625
vt 0.699219 0.265625
vt 0.695312 0.007812
vt 0.984375 0.003906
vt 0.988281 0.265625
vt 0.695312 0.007812
vt 0.988281 0.265625
vt 0.699219 0.265625
vn 1.000000 -0.000000 -0.000000
vn 1.000000 -0.000000 -0.000000
vn 1.000000 -0.000000 -0.000000
vn 1.000000 -0.000000 -0.000000
vn 1.000000 -0.000000 -0.000000
vn 1.000000 -0.000000 -0.000000
vn -0.000000 -0.000000 -1.000000
vn -0.000000 -0.000000 -1.000000
vn -0.000000 -0.000000 -1.000000
vn -0.000000 -0.000000 -1.000000
vn -0.000000 -0.000000 -1.000000
vn -0.000000 -0.000000 -1.000000
vn -1.000000 -0.000000 0.000000
vn -1.000000 -0.000000 0.000000
vn -1.000000 -0.000000 0.000000
vn -1.000000 -0.000000 0.000000
vn -1.000000 -0.000000 0.000000
vn -1.000000 -0.000000 0.000000
vn 0.000000 -0.000000 1.000000
vn 0.000000 -0.000000 1.000000
vn 0.000000 -0.000000 1.000000
vn 0.000000 -0.000000 1.000000
vn 0.000000 -0.000000 1.000000
vn 0.000000 -0.000000 1.000000
vn -0.000001 1.000000 0.000000
vn -0.000000 1.000000 0.000000
vn 0.000001 1.000000 -0.000000
vn -0.000001 1.000000 0.000000
vn 0.000001 1.000000 -0.000000
vn 0.000000 1.000000 -0.000000
vn 0.000001 -1.000000 -0.000000
vn -0.000000 -1.000000 0.000000
vn -0.000001 -1.000000 0.000000
vn 0.000001 -1.000000 -0.000000
vn -0.000001 -1.000000 0.000000
vn 0.000000 -1.000000 -0.000000
vn -0.000000 -0.000000 -1.000000
vn -0.000000 -0.000000 -1.000000
vn -0.000000 -0.000000 -1.000000
vn -0.000000 -0.000000 -1.000000
vn -0.000000 -0.000000 -1.000000
vn -0.000000 -0.000000 -1.000000
vn 0.000000 -0.000000 1.000000
vn 0.000000 -0.000000 1.000000
vn 0.000000 -0.000000 1.000000
vn 0.000000 -0.000000 1.000000
vn 0.000000 -0.000000 1.000000
vn 0.000000 -0.000000 1.000000
vn 1.000000 -0.000000 -0.000000
vn 1.000000 -0.000000 -0.000000
vn 1.000000 -0.000000 -0.000000
vn 1.000000 -0.000000 -0.000000
vn 1.000000 -0.000000 -0.000000
vn 1.000000 -0.000000 -0.000000
vn -1.000000 -0.000000 0.000000
vn -1.000000 -0.000000 0.000000
vn -1.000000 -0.000000 0.000000
vn -1.000000 -0.000000 0.000000
vn -1.000000 -0.000000 0.000000
vn -1.000000 -0.000000 0.000000
vn -0.000000 -0.000000 -1.000000
vn -0.000000 -0.000000 -1.000000
vn -0.000000 -0.000000 -1.000000
vn -0.000000 -0.000000 -1.000000
vn -0.000000 -0.000000 -1.000000
vn -0.000000 -0.000000 -1.000000
vn 1.000000 -0.000000 -0.000000
vn 1.000000 -0.000000 -0.000000
vn 1.000000 -0.000000 -0.000000
vn 1.000000 -0.000000 -0.000000
vn 1.000000 -0.000000 -0.000000
vn 1.000000 -0.000000 -0.000000
vn -1.000000 -0.000000 0.000000
vn -1.000000 -0.000000 0.000000
vn -1.000000 -0.000000 0.000000
vn -1.000000 -0.000000 0.000000
vn -1.000000 -0.000000 0.000000
vn -1.000000 -0.000000 0.000000
vn 0.000000 -0.000000 1.000000
vn 0.000000 -0.000000 1.000000
vn 0.000000 -0.000000 1.000000
vn 0.000000 -0.000000 1.000000
vn 0.000000 -0.000000 1.000000
vn 0.000000 -0.000000 1.000000
f 1/1/1 2/2/2 4/3/3
f 1/4/4 4/5/5 3/6/6
f 2/7/7 6/8/8 8/9/9
f 2/10/10 8/11/11 4/12/12
f 6/13/13 5/14/14 7/15/15
f 6/16/16 7/17/17 8/18/18
f 5/19/19 1/20/20 3/21/21
f 5/22/22 3/23/23 7/24/24
f 3/25/25 4/26/26 8/27/27
f 3/28/28 8/29/29 7/30/30
f 6/31/31 2/32/32 1/33/33
f 6/34/34 1/35/35 5/36/36
f 16/37/37 15/38/38 13/39/39
f 16/40/40 13/41/41 23/42/42
f 19/43/43 18/44/44 22/45/45
f 19/46/46 22/47/47 11/48/48
f 16/49/49 11/50/50 22/51/51
f 16/52/52 22/53/53 15/54/54
f 10/55/55 9/56/56 20/57/57
f 10/58/58 20/59/59 17/60/60
f 21/61/61 14/62/62 20/63/63
f 21/64/64 20/65/65 9/66/66
f 21/67/67 24/68/68 12/69/69
f 21/70/70 12/71/71 14/72/72
f 19/73/73 23/74/74 13/75/75
f 19/76/76 13/77/77 18/78/78
f 10/79/79 17/80/80 12/81/81
f 10/82/82 12/83/83 24/84/84
