v -1.574999 1.311579 -2.830655
v -2.283749 -2.548836 0.816959
v -0.500000 1.024256 -0.565532
v 1.574999 1.311579 -2.830655
v 2.283749 -2.548836 0.816959
v 0.500000 1.024256 -0.565532
v 0.500000 -0.611547 0.408071
v -0.500000 -0.611547 0.408071
v 4.485284 -7.818403 -7.565819
v -4.485284 -7.818403 -7.565820
v 4.485284 -7.824514 0.816959
v -4.485284 -7.824514 0.816959
v 2.283749 -2.549698 -7.530810
v -2.283749 -2.549698 -7.530810
vt 0.000000 0.000000
vt 0.000000 0.000000
vt 0.000000 0.000000
vt 0.000000 0.000000
vt 0.000000 0.000000
vt 0.000000 0.000000
vt 0.000000 0.000000
vt 0.000000 0.000000
vt 0.000000 0.000000
vt 0.000000 0.000000
vt 0.000000 0.000000
vt 0.000000 0.000000
vt 0.000000 0.000000
vt 0.000000 0.000000
vt 0.000000 0.000000
vt 0.000000 0.000000
vt 0.000000 0.000000
vt 0.000000 0.000000
vt 0.000000 0.000000
vt 0.000000 0.000000
vt 0.000000 0.000000
vt 0.000000 0.000000
vt 0.000000 0.000000
vt 0.000000 0.000000
vt 0.000000 0.000000
vt 0.000000 0.000000
vt 0.000000 0.000000
vt 0.000000 0.000000
vt 0.000000 0.000000
vt 0.000000 0.000000
vt 0.000000 0.000000
vt 0.000000 0.000000
vt 0.000000 0.000000
vt 0.000000 0.000000
vt 0.000000 0.000000
vt 0.000000 0.000000
vt 0.000000 0.000000
vt 0.000000 0.000000
vt 0.000000 0.000000
vt 0.000000 0.000000
vt 0.000000 0.000000
vt 0.000000 0.000000
vt 0.000000 0.000000
vt 0.000000 0.000000
vt 0.000000 0.000000
vt 0.000000 0.000000
vt 0.000000 0.000000
vt 0.000000 0.000000
vt 0.000000 0.000000
vt 0.000000 0.000000
vt 0.000000 0.000000
vt 0.000000 0.000000
vt 0.000000 0.000000
vt 0.000000 0.000000
vt 0.000000 0.000000
vt 0.000000 0.000000
vt 0.000000 0.000000
vt 0.000000 0.000000
vt 0.000000 0.000000
vt 0.000000 0.000000
vn -0.366621 0.853853 0.369493
vn -0.551406 0.834193 0.008590
vn -0.670771 0.342068 0.658070
vn -0.366621 0.853853 0.369493
vn -0.670771 0.342068 0.658070
vn -0.362521 0.409665 0.837110
vn 0.362521 0.409665 0.837110
vn 0.670771 0.342068 0.658070
vn 0.551406 0.834193 0.008590
vn 0.362521 0.409665 0.837110
vn 0.551406 0.834193 0.008590
vn 0.366621 0.853853 0.369493
vn -0.362521 0.409665 0.837110
vn -0.670771 0.342068 0.658070
vn 0.670771 0.342068 0.658070
vn -0.362521 0.409665 0.837110
vn 0.670771 0.342068 0.658070
vn 0.362521 0.409665 0.837110
vn 0.551406 0.834193 0.008590
vn -0.551406 0.834193 0.008590
vn -0.366621 0.853853 0.369493
vn 0.551406 0.834193 0.008590
vn -0.366621 0.853853 0.369493
vn 0.366621 0.853853 0.369493
vn 0.958655 0.284572 0.000051
vn 0.670771 0.342068 0.658070
vn 0.922779 0.385329 0.000121
vn 0.958655 0.284572 0.000051
vn 0.922779 0.385329 0.000121
vn 0.922779 0.385329 0.000121
vn 0.670771 0.342068 0.658070
vn -0.670771 0.342068 0.658070
vn 0.000000 0.000000 1.000000
vn 0.670771 0.342068 0.658070
vn 0.000000 0.000000 1.000000
vn 0.000000 0.000000 1.000000
vn -0.670771 0.342068 0.658070
vn -0.551406 0.834193 0.008590
vn -0.958655 0.284572 0.000051
vn -0.551406 0.834193 0.008590
vn 0.551406 0.834193 0.008590
vn 0.000000 0.430329 -0.902672
vn -0.551406 0.834193 0.008590
vn 0.000000 0.430329 -0.902672
vn 0.000000 0.430329 -0.902672
vn 0.000000 0.006645 -0.999978
vn 0.000000 0.430329 -0.902672
vn 0.000000 0.430329 -0.902672
vn 0.000000 0.006645 -0.999978
vn 0.000000 0.430329 -0.902672
vn 0.000000 0.006645 -0.999978
vn 0.958655 0.284572 0.000051
vn 0.551406 0.834193 0.008590
vn 0.670771 0.342068 0.658070
vn -0.922779 0.385329 0.000121
vn -0.670771 0.342068 0.658070
vn -0.958655 0.284572 0.000051
vn -0.922779 0.385329 0.000121
vn -0.958655 0.284572 0.000051
vn -0.922779 0.385329 0.000121
f 3/1/1 1/2/2 2/3/3
f 3/4/4 2/5/5 8/6/6
f 7/7/7 5/8/8 4/9/9
f 7/10/10 4/11/11 6/12/12
f 8/13/13 2/14/14 5/15/15
f 8/16/16 5/17/17 7/18/18
f 4/19/19 1/20/20 3/21/21
f 4/22/22 3/23/23 6/24/24
f 13/25/25 5/26/26 11/27/27
f 13/28/28 11/29/29 9/30/30
f 5/31/31 2/32/32 12/33/33
f 5/34/34 12/35/35 11/36/36
f 2/37/37 1/38/38 14/39/39
f 1/40/40 4/41/41 13/42/42
f 1/43/43 13/44/44 14/45/45
f 10/46/46 14/47/47 13/48/48
f 10/49/49 13/50/50 9/51/51
f 13/52/52 4/53/53 5/54/54
f 12/55/55 2/56/56 14/57/57
f 12/58/58 14/59/59 10/60/60
