v -1.116155 -0.628200 -2.323277
v -0.789999 -0.761393 -3.584508
v -1.757540 -0.299465 0.826671
v -0.980561 0.468043 0.827633
v -0.932400 0.045792 -2.320607
v 1.240408 -0.344047 -2.323276
v 1.262262 -0.513933 -3.584507
v 1.193964 0.056426 0.826672
v 1.125956 0.722045 0.827634
v 1.162628 0.298408 -2.320606
v 1.123213 0.723591 3.287869
v -0.968963 0.471318 3.287867
v -1.758916 -0.296316 3.285666
v 1.196102 0.057732 3.286768
vt 0.050823 0.652748
vt 0.037199 0.652891
vt 0.006264 0.483837
vt 0.050823 0.652748
vt 0.006264 0.483837
vt 0.050965 0.483786
vt 0.160092 0.652748
vt 0.160179 0.720580
vt 0.053140 0.720580
vt 0.160092 0.652748
vt 0.053140 0.720580
vt 0.050823 0.652748
vt 0.006212 0.351866
vt 0.051581 0.351748
vt 0.050965 0.483786
vt 0.006212 0.351866
vt 0.050965 0.483786
vt 0.006264 0.483837
vt 0.169556 0.597227
vt 0.266125 0.597227
vt 0.266157 0.701213
vt 0.169556 0.597227
vt 0.266157 0.701213
vt 0.169482 0.701260
vt 0.050823 0.652748
vt 0.050965 0.483786
vt 0.156927 0.483786
vt 0.050823 0.652748
vt 0.156927 0.483786
vt 0.156186 0.652748
vt 0.051581 0.351748
vt 0.156795 0.351748
vt 0.156927 0.483786
vt 0.051581 0.351748
vt 0.156927 0.483786
vt 0.050965 0.483786
vt 0.259054 0.627712
vt 0.176585 0.627818
vt 0.170128 0.569137
vt 0.259054 0.627712
vt 0.170128 0.569137
vt 0.265553 0.569137
vt 0.160092 0.652748
vt 0.053140 0.720580
vt 0.160179 0.720580
vt 0.266125 0.597227
vt 0.169556 0.597227
vt 0.169482 0.701260
vt 0.266125 0.597227
vt 0.169482 0.701260
vt 0.266157 0.701213
vt 0.160179 0.720580
vt 0.053140 0.720580
vt 0.160092 0.652748
vt 0.156927 0.483786
vt 0.140809 0.483786
vt 0.140667 0.652748
vt 0.156927 0.483786
vt 0.140667 0.652748
vt 0.156186 0.652748
vt 0.132996 0.483786
vt 0.156927 0.483786
vt 0.156795 0.351748
vt 0.132996 0.483786
vt 0.156795 0.351748
vt 0.133613 0.351748
vt 0.000000 0.000000
vt 0.000000 0.000000
vt 0.000000 0.000000
vt 0.000000 0.000000
vt 0.000000 0.000000
vt 0.000000 0.000000
vn -0.569857 0.757680 -0.318095
vn -0.887969 0.406947 -0.214256
vn -0.767265 0.636562 -0.078062
vn -0.569857 0.757680 -0.318095
vn -0.767265 0.636562 -0.078062
vn -0.475967 0.875975 -0.078250
vn -0.112272 0.931107 -0.347038
vn -0.100484 0.833349 -0.543536
vn -0.100484 0.833349 -0.543536
vn -0.112272 0.931107 -0.347038
vn -0.100484 0.833349 -0.543536
vn -0.569857 0.757680 -0.318095
vn -0.699824 0.714315 0.000521
vn -0.432781 0.901499 -0.000125
vn -0.475967 0.875975 -0.078250
vn -0.699824 0.714315 0.000521
vn -0.475967 0.875975 -0.078250
vn -0.767265 0.636562 -0.078062
vn 0.119336 -0.992853 0.000881
vn 0.119336 -0.992853 0.000881
vn 0.119278 -0.990793 0.064044
vn 0.119336 -0.992853 0.000881
vn 0.119278 -0.990793 0.064044
vn 0.119278 -0.990793 0.064044
vn -0.569857 0.757680 -0.318095
vn -0.475967 0.875975 -0.078250
vn -0.119440 0.990550 -0.067417
vn -0.569857 0.757680 -0.318095
vn -0.119440 0.990550 -0.067417
vn -0.112272 0.931107 -0.347038
vn -0.432781 0.901499 -0.000125
vn -0.119712 0.992808 -0.000757
vn -0.119440 0.990550 -0.067417
vn -0.432781 0.901499 -0.000125
vn -0.119440 0.990550 -0.067417
vn -0.475967 0.875975 -0.078250
vn 0.118623 -0.983778 0.134568
vn 0.118623 -0.983778 0.134568
vn 0.118684 -0.984284 0.130761
vn 0.118623 -0.983778 0.134568
vn 0.118684 -0.984284 0.130761
vn 0.118684 -0.984284 0.130761
vn -0.929432 0.254456 -0.267225
vn -0.887969 0.406947 -0.214256
vn -0.569857 0.757680 -0.318095
vn 0.118684 -0.984284 0.130761
vn 0.118684 -0.984284 0.130761
vn 0.119278 -0.990793 0.064044
vn 0.118684 -0.984284 0.130761
vn 0.119278 -0.990793 0.064044
vn 0.119278 -0.990793 0.064044
vn 0.993310 0.115479 -0.000182
vn 0.993310 0.115479 -0.000182
vn 0.992751 0.120185 0.001014
vn 0.994151 0.108001 -0.000659
vn 0.994151 0.108001 -0.000659
vn 0.993310 0.115479 -0.000182
vn 0.994151 0.108001 -0.000659
vn 0.993310 0.115479 -0.000182
vn 0.993310 0.115479 -0.000182
vn 0.994151 0.108001 -0.000659
vn 0.994151 0.108001 -0.000659
vn 0.994448 0.105232 0.000061
vn 0.994151 0.108001 -0.000659
vn 0.994448 0.105232 0.000061
vn 0.994448 0.105232 0.000061
vn 0.000062 -0.002334 0.999997
vn 0.000062 -0.002334 0.999997
vn 0.000062 -0.002334 0.999997
vn 0.000062 -0.002334 0.999997
vn 0.000062 -0.002334 0.999997
vn 0.000062 -0.002334 0.999997
f 5/1/1 1/2/2 3/3/3
f 5/4/4 3/5/5 4/6/6
f 10/7/7 7/8/8 2/9/9
f 10/10/10 2/11/11 5/12/12
f 13/13/13 12/14/14 4/15/15
f 13/16/16 4/17/17 3/18/18
f 14/19/19 13/20/20 3/21/21
f 14/22/22 3/23/23 8/24/24
f 5/25/25 4/26/26 9/27/27
f 5/28/28 9/29/29 10/30/30
f 12/31/31 11/32/32 9/33/33
f 12/34/34 9/35/35 4/36/36
f 2/37/37 7/38/38 6/39/39
f 2/40/40 6/41/41 1/42/42
f 2/43/43 1/44/44 5/45/45
f 1/46/46 6/47/47 8/48/48
f 1/49/49 8/50/50 3/51/51
f 10/52/52 6/53/53 7/54/54
f 9/55/55 8/56/56 6/57/57
f 9/58/58 6/59/59 10/60/60
f 8/61/61 9/62/62 11/63/63
f 8/64/64 11/65/65 14/66/66
f 14/67/67 11/68/68 12/69/69
f 14/70/70 12/71/71 13/72/72
