v -0.620712 -0.017687 -0.910276
v -0.619729 -0.222945 -0.788067
v -0.409031 -0.029956 -1.374608
v -0.405180 -0.549580 -0.632889
v -0.405929 -0.548473 0.721953
v -0.405293 0.114402 1.574789
v 0.622685 0.245754 -0.842808
v -0.412377 0.416553 -1.260257
v -0.407365 -0.224239 -1.275001
v -0.407270 -0.029628 1.648642
v -0.407270 -0.220498 1.576619
v -0.409791 0.587918 -0.972647
v -0.619673 -0.017501 0.749688
v -0.619673 -0.130111 0.707194
v -0.618507 0.067477 0.706115
v 0.618440 -0.324268 -0.472661
v -0.618882 -0.323616 0.202937
v -0.618441 -0.324268 -0.472661
v -0.622685 0.245754 -0.842808
v -0.621160 0.346858 -0.673118
v 0.620712 -0.017687 -0.910276
v 0.619729 -0.222945 -0.788066
v 0.409031 -0.029956 -1.374608
v 0.405180 -0.549580 -0.632888
v 0.405929 -0.548473 0.721953
v 0.405293 0.114402 1.574790
v 0.621160 0.346858 -0.673118
v 0.412377 0.416553 -1.260257
v 0.407365 -0.224239 -1.275000
v 0.407269 -0.029628 1.648643
v 0.407269 -0.220498 1.576619
v 0.409792 0.587918 -0.972647
v 0.619673 -0.017501 0.749688
v 0.619673 -0.130111 0.707194
v 0.618507 0.067477 0.706115
v 0.618882 -0.323616 0.202938
vt 0.914062 0.572266
vt 0.769531 0.716797
vt 0.705078 0.654297
vt 0.914062 0.572266
vt 0.705078 0.654297
vt 0.849609 0.509766
vt 0.914062 0.572266
vt 0.769531 0.716797
vt 0.705078 0.654297
vt 0.914062 0.572266
vt 0.705078 0.654297
vt 0.849609 0.509766
vt 0.914062 0.572266
vt 0.769531 0.716797
vt 0.705078 0.654297
vt 0.914062 0.572266
vt 0.705078 0.654297
vt 0.849609 0.509766
vt 0.527780 0.014078
vt 0.553569 0.026223
vt 0.555743 0.033291
vt 0.527780 0.014078
vt 0.555743 0.033291
vt 0.553514 0.038625
vt 0.527780 0.014078
vt 0.553514 0.038625
vt 0.482975 0.056160
vt 0.527780 0.014078
vt 0.482975 0.056160
vt 0.474296 0.049814
vt 0.527780 0.014078
vt 0.474296 0.049814
vt 0.470845 0.033279
vt 0.527780 0.014078
vt 0.470845 0.033279
vt 0.477096 0.020396
vt 0.527780 0.014078
vt 0.477096 0.020396
vt 0.493227 0.014037
vt 0.527780 0.014078
vt 0.553569 0.026223
vt 0.555743 0.033291
vt 0.527780 0.014078
vt 0.555743 0.033291
vt 0.553514 0.038625
vt 0.527780 0.014078
vt 0.553514 0.038625
vt 0.482975 0.056160
vt 0.527780 0.014078
vt 0.482975 0.056160
vt 0.474296 0.049814
vt 0.527780 0.014078
vt 0.474296 0.049814
vt 0.470845 0.033279
vt 0.527780 0.014078
vt 0.470845 0.033279
vt 0.477096 0.020396
vt 0.527780 0.014078
vt 0.477096 0.020396
vt 0.493227 0.014037
vt 0.914062 0.572266
vt 0.769531 0.716797
vt 0.705078 0.654297
vt 0.914062 0.572266
vt 0.705078 0.654297
vt 0.849609 0.509766
vt 0.914062 0.572266
vt 0.769531 0.716797
vt 0.705078 0.654297
vt 0.914062 0.572266
vt 0.705078 0.654297
vt 0.849609 0.509766
vt 0.914062 0.572266
vt 0.769531 0.716797
vt 0.705078 0.654297
vt 0.914062 0.572266
vt 0.705078 0.654297
vt 0.849609 0.509766
vt 0.914062 0.572266
vt 0.769531 0.716797
vt 0.705078 0.654297
vt 0.914062 0.572266
vt 0.705078 0.654297
vt 0.849609 0.509766
vt 0.914062 0.572266
vt 0.769531 0.716797
vt 0.705078 0.654297
vt 0.914062 0.572266
vt 0.705078 0.654297
vt 0.849609 0.509766
vt 0.914062 0.572266
vt 0.769531 0.716797
vt 0.705078 0.654297
vt 0.914062 0.572266
vt 0.705078 0.654297
vt 0.849609 0.509766
vt 0.849609 0.509766
vt 0.705078 0.654297
vt 0.769531 0.716797
vt 0.849609 0.509766
vt 0.769531 0.716797
vt 0.914062 0.572266
vt 0.849609 0.509766
vt 0.705078 0.654297
vt 0.769531 0.716797
vt 0.849609 0.509766
vt 0.769531 0.716797
vt 0.914062 0.572266
vt 0.849609 0.509766
vt 0.705078 0.654297
vt 0.769531 0.716797
vt 0.849609 0.509766
vt 0.769531 0.716797
vt 0.914062 0.572266
vt 0.527780 0.014078
vt 0.493227 0.014037
vt 0.477096 0.020396
vt 0.527780 0.014078
vt 0.477096 0.020396
vt 0.470845 0.033279
vt 0.527780 0.014078
vt 0.470845 0.033279
vt 0.474296 0.049814
vt 0.527780 0.014078
vt 0.474296 0.049814
vt 0.482975 0.056160
vt 0.527780 0.014078
vt 0.482975 0.056160
vt 0.553514 0.038625
vt 0.527780 0.014078
vt 0.553514 0.038625
vt 0.555743 0.033291
vt 0.527780 0.014078
vt 0.555743 0.033291
vt 0.553569 0.026223
vt 0.527780 0.014078
vt 0.553569 0.026223
vt 0.555743 0.033291
vt 0.527780 0.014078
vt 0.555743 0.033291
vt 0.553514 0.038625
vt 0.527780 0.014078
vt 0.553514 0.038625
vt 0.482975 0.056160
vt 0.527780 0.014078
vt 0.482975 0.056160
vt 0.474296 0.049814
vt 0.527780 0.014078
vt 0.474296 0.049814
vt 0.470845 0.033279
vt 0.527780 0.014078
vt 0.470845 0.033279
vt 0.477096 0.020396
vt 0.527780 0.014078
vt 0.477096 0.020396
vt 0.493227 0.014037
vt 0.849609 0.509766
vt 0.705078 0.654297
vt 0.769531 0.716797
vt 0.849609 0.509766
vt 0.769531 0.716797
vt 0.914062 0.572266
vt 0.849609 0.509766
vt 0.705078 0.654297
vt 0.769531 0.716797
vt 0.849609 0.509766
vt 0.769531 0.716797
vt 0.914062 0.572266
vt 0.849609 0.509766
vt 0.705078 0.654297
vt 0.769531 0.716797
vt 0.849609 0.509766
vt 0.769531 0.716797
vt 0.914062 0.572266
vt 0.849609 0.509766
vt 0.705078 0.654297
vt 0.769531 0.716797
vt 0.849609 0.509766
vt 0.769531 0.716797
vt 0.914062 0.572266
vt 0.849609 0.509766
vt 0.705078 0.654297
vt 0.769531 0.716797
vt 0.849609 0.509766
vt 0.769531 0.716797
vt 0.914062 0.572266
vt 0.849609 0.509766
vt 0.705078 0.654297
vt 0.769531 0.716797
vt 0.849609 0.509766
vt 0.769531 0.716797
vt 0.914062 0.572266
vn -0.677265 0.722347 0.139736
vn -0.677265 0.722347 0.139736
vn -0.677265 0.722347 0.139736
vn -0.677265 0.722347 0.139736
vn -0.677265 0.722347 0.139736
vn -0.677265 0.722347 0.139736
vn -0.740213 -0.615154 -0.271423
vn -0.740589 -0.657846 -0.136990
vn -0.740589 -0.657846 -0.136990
vn -0.740213 -0.615154 -0.271423
vn -0.740589 -0.657846 -0.136990
vn -0.740213 -0.615154 -0.271423
vn -0.909900 -0.063443 -0.409949
vn -0.891196 -0.224684 -0.394064
vn -0.891196 -0.224684 -0.394064
vn -0.909900 -0.063443 -0.409949
vn -0.891196 -0.224684 -0.394064
vn -0.909900 -0.063443 -0.409949
vn -0.999997 -0.002194 0.001145
vn -0.992321 -0.044445 0.115430
vn -0.987894 0.014395 0.154459
vn -0.999997 -0.002194 0.001145
vn -0.987894 0.014395 0.154459
vn -0.991071 0.064976 0.116433
vn -0.999997 -0.002194 0.001145
vn -0.991071 0.064976 0.116433
vn -0.999997 -0.002194 0.001145
vn -0.999997 -0.002194 0.001145
vn -0.999997 -0.002194 0.001145
vn -0.999997 -0.002194 0.001145
vn -0.999997 -0.002194 0.001145
vn -0.999997 -0.002194 0.001145
vn -0.999997 -0.002194 0.001145
vn -0.999997 -0.002194 0.001145
vn -0.999997 -0.002194 0.001145
vn -0.999997 -0.002194 0.001145
vn -0.999997 -0.002194 0.001145
vn -0.999997 -0.002194 0.001145
vn -0.999997 -0.002194 0.001145
vn 0.999997 0.002308 -0.000946
vn 0.999997 0.002308 -0.000946
vn 0.999997 0.002308 -0.000946
vn 0.999997 0.002308 -0.000946
vn 0.999997 0.002308 -0.000946
vn 0.999997 0.002308 -0.000946
vn 0.999997 0.002308 -0.000946
vn 0.999997 0.002308 -0.000946
vn 0.999997 0.002308 -0.000946
vn 0.999997 0.002308 -0.000946
vn 0.999997 0.002308 -0.000946
vn 0.999997 0.002308 -0.000946
vn 0.999997 0.002308 -0.000946
vn 0.999997 0.002308 -0.000946
vn 0.999997 0.002308 -0.000946
vn 0.999997 0.002308 -0.000946
vn 0.999997 0.002308 -0.000946
vn 0.999997 0.002308 -0.000946
vn 0.999997 0.002308 -0.000946
vn 0.999997 0.002308 -0.000946
vn 0.999997 0.002308 -0.000946
vn -0.969854 -0.086033 0.227995
vn -0.972886 0.022609 0.230177
vn -0.987894 0.014395 0.154459
vn -0.969854 -0.086033 0.227995
vn -0.987894 0.014395 0.154459
vn -0.992321 -0.044445 0.115430
vn -0.972886 0.022609 0.230177
vn -0.964422 0.130985 0.229639
vn -0.991071 0.064976 0.116433
vn -0.972886 0.022609 0.230177
vn -0.991071 0.064976 0.116433
vn -0.987894 0.014395 0.154459
vn -0.740589 -0.657846 -0.136990
vn -0.814615 -0.573631 0.085733
vn -0.814615 -0.573631 0.085733
vn -0.740589 -0.657846 -0.136990
vn -0.814615 -0.573631 0.085733
vn -0.740589 -0.657846 -0.136990
vn -0.814615 -0.573631 0.085733
vn -0.880117 -0.443701 0.168887
vn -0.880117 -0.443701 0.168887
vn -0.814615 -0.573631 0.085733
vn -0.880117 -0.443701 0.168887
vn -0.814615 -0.573631 0.085733
vn -0.861496 0.439574 -0.254165
vn -0.861496 0.439574 -0.254165
vn -0.861496 0.439574 -0.254165
vn -0.861496 0.439574 -0.254165
vn -0.861496 0.439574 -0.254165
vn -0.861496 0.439574 -0.254165
vn -0.904399 0.099487 -0.414928
vn -0.909900 -0.063443 -0.409949
vn -0.909900 -0.063443 -0.409949
vn -0.904399 0.099487 -0.414928
vn -0.909900 -0.063443 -0.409949
vn -0.904399 0.099487 -0.414928
vn 0.677265 0.722347 0.139736
vn 0.677265 0.722347 0.139736
vn 0.677265 0.722347 0.139736
vn 0.677265 0.722347 0.139736
vn 0.677265 0.722347 0.139736
vn 0.677265 0.722347 0.139736
vn 0.740213 -0.615154 -0.271423
vn 0.740589 -0.657846 -0.136989
vn 0.740589 -0.657846 -0.136989
vn 0.740213 -0.615154 -0.271423
vn 0.740589 -0.657846 -0.136989
vn 0.740213 -0.615154 -0.271423
vn 0.909900 -0.063443 -0.409948
vn 0.891196 -0.224684 -0.394064
vn 0.891196 -0.224684 -0.394064
vn 0.909900 -0.063443 -0.409948
vn 0.891196 -0.224684 -0.394064
vn 0.909900 -0.063443 -0.409948
vn 0.991071 0.064976 0.116433
vn 0.987894 0.014396 0.154459
vn 0.992321 -0.044445 0.115430
vn 0.991071 0.064976 0.116433
vn 0.992321 -0.044445 0.115430
vn 0.999997 -0.002194 0.001145
vn 0.991071 0.064976 0.116433
vn 0.999997 -0.002194 0.001145
vn 0.999997 -0.002194 0.001145
vn 0.991071 0.064976 0.116433
vn 0.999997 -0.002194 0.001145
vn 0.999997 -0.002194 0.001145
vn 0.991071 0.064976 0.116433
vn 0.999997 -0.002194 0.001145
vn 0.999997 -0.002194 0.001145
vn 0.991071 0.064976 0.116433
vn 0.999997 -0.002194 0.001145
vn 0.999997 -0.002194 0.001145
vn 0.991071 0.064976 0.116433
vn 0.999997 -0.002194 0.001145
vn 0.999997 -0.002194 0.001145
vn -0.999997 0.002308 -0.000947
vn -0.999997 0.002308 -0.000947
vn -0.999997 0.002308 -0.000947
vn -0.999997 0.002308 -0.000947
vn -0.999997 0.002308 -0.000947
vn -0.999997 0.002308 -0.000947
vn -0.999997 0.002308 -0.000947
vn -0.999997 0.002308 -0.000947
vn -0.999997 0.002308 -0.000947
vn -0.999997 0.002308 -0.000947
vn -0.999997 0.002308 -0.000947
vn -0.999997 0.002308 -0.000947
vn -0.999997 0.002308 -0.000947
vn -0.999997 0.002308 -0.000947
vn -0.999997 0.002308 -0.000947
vn -0.999997 0.002308 -0.000947
vn -0.999997 0.002308 -0.000947
vn -0.999997 0.002308 -0.000947
vn -0.999997 0.002308 -0.000947
vn -0.999997 0.002308 -0.000947
vn -0.999997 0.002308 -0.000947
vn 0.992321 -0.044445 0.115430
vn 0.987894 0.014396 0.154459
vn 0.972886 0.022610 0.230177
vn 0.992321 -0.044445 0.115430
vn 0.972886 0.022610 0.230177
vn 0.969854 -0.086033 0.227995
vn 0.987894 0.014396 0.154459
vn 0.991071 0.064976 0.116433
vn 0.964421 0.130985 0.229639
vn 0.987894 0.014396 0.154459
vn 0.964421 0.130985 0.229639
vn 0.972886 0.022610 0.230177
vn 0.740589 -0.657846 -0.136989
vn 0.814615 -0.573631 0.085733
vn 0.814615 -0.573631 0.085733
vn 0.740589 -0.657846 -0.136989
vn 0.814615 -0.573631 0.085733
vn 0.740589 -0.657846 -0.136989
vn 0.814615 -0.573631 0.085733
vn 0.880117 -0.443701 0.168887
vn 0.880117 -0.443701 0.168887
vn 0.814615 -0.573631 0.085733
vn 0.880117 -0.443701 0.168887
vn 0.814615 -0.573631 0.085733
vn 0.861496 0.439574 -0.254164
vn 0.861496 0.439574 -0.254164
vn 0.861496 0.439574 -0.254164
vn 0.861496 0.439574 -0.254164
vn 0.861496 0.439574 -0.254164
vn 0.861496 0.439574 -0.254164
vn 0.904399 0.099486 -0.414927
vn 0.909900 -0.063443 -0.409948
vn 0.909900 -0.063443 -0.409948
vn 0.904399 0.099486 -0.414927
vn 0.909900 -0.063443 -0.409948
vn 0.904399 0.099486 -0.414927
f 6/1/1 12/2/2 20/3/3
f 6/4/4 20/5/5 15/6/6
f 9/7/7 4/8/8 18/9/9
f 9/10/10 18/11/11 2/12/12
f 3/13/13 9/14/14 2/15/15
f 3/16/16 2/17/17 1/18/18
f 17/19/19 14/20/20 13/21/21
f 17/22/22 13/23/23 15/24/24
f 17/25/25 15/26/26 20/27/27
f 17/28/28 20/29/29 19/30/30
f 17/31/31 19/32/32 1/33/33
f 17/34/34 1/35/35 2/36/36
f 17/37/37 2/38/38 18/39/39
f 6/40/40 10/41/41 11/42/42
f 6/43/43 11/44/44 5/45/45
f 6/46/46 5/47/47 4/48/48
f 6/49/49 4/50/50 9/51/51
f 6/52/52 9/53/53 3/54/54
f 6/55/55 3/56/56 8/57/57
f 6/58/58 8/59/59 12/60/60
f 11/61/61 10/62/62 13/63/63
f 11/64/64 13/65/65 14/66/66
f 10/67/67 6/68/68 15/69/69
f 10/70/70 15/71/71 13/72/72
f 4/73/73 5/74/74 17/75/75
f 4/76/76 17/77/77 18/78/78
f 5/79/79 11/80/80 14/81/81
f 5/82/82 14/83/83 17/84/84
f 12/85/85 8/86/86 19/87/87
f 12/88/88 19/89/89 20/90/90
f 8/91/91 3/92/92 1/93/93
f 8/94/94 1/95/95 19/96/96
f 35/97/97 27/98/98 32/99/99
f 35/100/100 32/101/101 26/102/102
f 22/103/103 16/104/104 24/105/105
f 22/106/106 24/107/107 29/108/108
f 21/109/109 22/110/110 29/111/111
f 21/112/112 29/113/113 23/114/114
f 35/115/115 33/116/116 34/117/117
f 35/118/118 34/119/119 36/120/120
f 35/121/121 36/122/122 16/123/123
f 35/124/124 16/125/125 22/126/126
f 35/127/127 22/128/128 21/129/129
f 35/130/130 21/131/131 7/132/132
f 35/133/133 7/134/134 27/135/135
f 32/136/136 28/137/137 23/138/138
f 32/139/139 23/140/140 29/141/141
f 32/142/142 29/143/143 24/144/144
f 32/145/145 24/146/146 25/147/147
f 32/148/148 25/149/149 31/150/150
f 32/151/151 31/152/152 30/153/153
f 32/154/154 30/155/155 26/156/156
f 34/157/157 33/158/158 30/159/159
f 34/160/160 30/161/161 31/162/162
f 33/163/163 35/164/164 26/165/165
f 33/166/166 26/167/167 30/168/168
f 16/169/169 36/170/170 25/171/171
f 16/172/172 25/173/173 24/174/174
f 36/175/175 34/176/176 31/177/177
f 36/178/178 31/179/179 25/180/180
f 27/181/181 7/182/182 28/183/183
f 27/184/184 28/185/185 32/186/186
f 7/187/187 21/188/188 23/189/189
f 7/190/190 23/191/191 28/192/192
