v -0.664941 -0.574203 1.978826
v 1.065882 -0.574203 1.978826
v -0.664941 1.154114 1.978826
v 1.065536 0.574202 -1.332350
v -0.664941 -0.574203 -1.995566
v 1.065883 -0.574203 -1.995566
v -0.664941 1.154114 -1.995566
v 1.065536 0.574202 -1.995566
v -0.344886 1.154114 -1.995566
v -0.344886 1.154114 1.978826
v 0.466992 0.503416 -0.451569
v 0.466992 0.503416 -1.333169
v -0.345414 1.154270 -0.455553
v 1.065882 0.357039 1.490664
v 1.065883 0.496337 -0.450208
v -0.665427 1.154633 -0.455553
v -0.665830 1.425860 -1.332105
v 1.065883 0.357039 -1.332983
v 1.065883 0.357039 -0.448999
v 1.065883 0.496337 -1.332630
v 0.451467 0.573394 -0.452180
v 1.065883 -0.574203 -1.330785
v 1.065882 0.357039 1.978826
v 1.065883 0.357039 -1.995566
v 1.065882 -0.574203 1.488366
v -0.664941 -0.574203 -1.331271
v -0.664941 -0.574203 1.486338
v -0.403254 0.358144 -1.333342
v -0.403254 -0.574203 1.486592
v -0.403254 0.358142 1.486592
v -0.403254 -0.574203 -1.331210
v 0.306554 1.426767 -1.332105
v 0.447276 0.573993 -1.995566
v 0.306554 1.426767 -0.456805
v 0.451467 0.573394 -1.332257
v 1.065535 0.574202 -0.450121
v 1.065535 0.574202 1.978826
v 0.447276 0.573993 1.978826
v -0.665830 1.425860 -0.456805
v -0.345414 1.154270 -1.331696
v -0.665123 1.154309 -1.330654
vt 1.013672 0.537109
vt 0.955078 0.537109
vt 0.892578 0.599609
vt 1.013672 0.537109
vt 0.892578 0.599609
vt 0.830078 0.599609
vt 1.013672 0.537109
vt 0.830078 0.599609
vt 0.830078 0.412109
vt 1.013672 0.537109
vt 0.830078 0.412109
vt 1.013672 0.412109
vt 1.013672 0.537109
vt 1.013672 0.412109
vt 1.015625 0.503906
vt 1.013672 0.412109
vt 0.830078 0.412109
vt 0.830078 0.599609
vt 1.013672 0.412109
vt 0.830078 0.599609
vt 0.892578 0.599609
vt 1.013672 0.412109
vt 0.892578 0.599609
vt 0.955078 0.537109
vt 1.013672 0.412109
vt 0.955078 0.537109
vt 1.013672 0.537109
vt 1.013672 0.412109
vt 1.013672 0.537109
vt 1.015625 0.503906
vt 0.640895 0.545205
vt 0.640429 0.704145
vt 0.969806 0.708204
vt 0.640895 0.545205
vt 0.969806 0.708204
vt 0.968695 0.545205
vt 1.814392 0.682182
vt 1.814392 0.411620
vt 2.031924 0.411341
vt 1.814392 0.682182
vt 2.031924 0.411341
vt 2.032226 0.682255
vt 0.819645 0.563571
vt 0.819645 0.686661
vt 0.683388 0.563943
vt 0.723274 0.383843
vt 0.720601 0.404483
vt 0.719614 0.412105
vt 0.723274 0.383843
vt 0.719614 0.412105
vt 0.172253 0.411284
vt 0.723274 0.383843
vt 0.172253 0.411284
vt 0.180700 0.382714
vt 0.723274 0.383843
vt 0.180700 0.382714
vt 0.286262 0.383083
vt 0.960711 0.713051
vt 0.960711 0.388583
vt 1.947571 0.388249
vt 0.960711 0.713051
vt 1.947571 0.388249
vt 1.948940 0.713139
vt 0.000000 0.998047
vt 0.000000 0.713867
vt 0.286133 0.713867
vt 0.000000 0.998047
vt 0.286133 0.713867
vt 0.286133 0.998047
vt 0.297878 0.593525
vt 0.362010 0.593316
vt 0.362010 0.662491
vt 0.297878 0.593525
vt 0.362010 0.662491
vt 0.340632 0.616444
vt 0.297878 0.593525
vt 0.340632 0.616444
vt 0.340632 0.616444
vt 0.819645 0.563571
vt 0.819645 0.686661
vt 0.683594 0.605469
vt 0.819645 0.563571
vt 0.683594 0.605469
vt 0.675781 0.562500
vt 0.968695 0.545205
vt 0.969806 0.708204
vt 0.640429 0.704145
vt 0.968695 0.545205
vt 0.640429 0.704145
vt 0.640895 0.545205
vt 0.374667 0.723638
vt 0.297742 0.724461
vt 0.301069 0.981164
vt 0.374667 0.723638
vt 0.301069 0.981164
vt 0.405191 0.981215
vt 0.374667 0.723638
vt 0.405191 0.981215
vt 0.403070 0.723334
vt 0.640429 0.704145
vt 0.969806 0.708204
vt 0.968695 0.545205
vt 0.640429 0.704145
vt 0.968695 0.545205
vt 0.640895 0.545205
vt 0.640895 0.545205
vt 0.640429 0.704145
vt 0.969806 0.708204
vt 0.640895 0.545205
vt 0.969806 0.708204
vt 0.968695 0.545205
vt 0.727606 0.910442
vt 0.889960 0.910442
vt 0.890510 0.946909
vt 0.727606 0.910442
vt 0.890510 0.946909
vt 0.727375 0.945905
vt 0.297878 0.593525
vt 0.362010 0.593316
vt 0.362010 0.662491
vt 0.297878 0.593525
vt 0.362010 0.662491
vt 0.340632 0.616444
vt 0.640429 0.704145
vt 0.969806 0.708204
vt 0.968695 0.545205
vt 0.640429 0.704145
vt 0.968695 0.545205
vt 0.875000 0.542969
vt 0.640429 0.704145
vt 0.875000 0.542969
vt 0.640895 0.545205
vt 0.297878 0.593525
vt 0.362010 0.593316
vt 0.362010 0.662491
vt 0.297878 0.593525
vt 0.362010 0.662491
vt 0.340632 0.616444
vt 0.297878 0.593525
vt 0.340632 0.616444
vt 0.340632 0.616444
vt 0.819645 0.686661
vt 0.683388 0.563943
vt 0.819645 0.563571
vt 0.964286 0.919593
vt 0.965341 0.973077
vt 0.652690 0.971745
vt 0.964286 0.919593
vt 0.652690 0.971745
vt 0.653133 0.919593
vt 0.991695 0.015523
vt 0.992676 0.394581
vt 0.828503 0.390178
vt 0.991695 0.015523
vt 0.828503 0.390178
vt 0.828503 0.015523
vt 0.297878 0.593525
vt 0.362010 0.593316
vt 0.362010 0.662491
vt 0.297878 0.593525
vt 0.362010 0.662491
vt 0.340632 0.616444
vt 0.297878 0.593525
vt 0.362010 0.593316
vt 0.362010 0.662491
vt 0.297878 0.593525
vt 0.362010 0.662491
vt 0.340632 0.616444
vt 0.423609 0.670308
vt 0.965063 0.668574
vt 0.965063 0.985942
vt 0.423609 0.670308
vt 0.965063 0.985942
vt 0.423609 0.987676
vt 0.828503 0.390178
vt 0.828503 0.015523
vt 0.991695 0.015523
vt 0.828503 0.390178
vt 0.991695 0.015523
vt 0.992676 0.394581
vt 0.968695 0.545205
vt 0.969806 0.708204
vt 0.640429 0.704145
vt 0.968695 0.545205
vt 0.640429 0.704145
vt 0.640895 0.545205
vt 0.968695 0.545205
vt 0.640895 0.545205
vt 0.804956 0.625690
vt 0.968695 0.545205
vt 0.804956 0.625690
vt 0.804956 0.625690
vt 0.968695 0.545205
vt 0.804956 0.625690
vt 0.804956 0.625690
vt 0.968695 0.545205
vt 0.804956 0.625690
vt 0.804956 0.625690
vt 0.624248 0.387861
vt 0.624425 0.002567
vt 0.833697 0.002963
vt 0.624248 0.387861
vt 0.833697 0.002963
vt 0.833697 0.387757
vt 0.003547 0.400317
vt 0.007680 -0.005707
vt 0.846244 -0.006060
vt 0.003547 0.400317
vt 0.846244 -0.006060
vt 0.843275 0.400409
vt 0.297878 0.593525
vt 0.362010 0.593316
vt 0.362010 0.662491
vt 0.297878 0.593525
vt 0.362010 0.662491
vt 0.340632 0.616444
vt 0.958522 0.154335
vt 0.854617 0.153118
vt 0.854764 0.105466
vt 0.958522 0.154335
vt 0.854764 0.105466
vt 0.958172 0.105466
vt 0.819645 0.563571
vt 0.819645 0.686661
vt 0.683594 0.605469
vt 0.819645 0.563571
vt 0.683594 0.605469
vt 0.675781 0.562500
vt 0.000000 0.000000
vt 0.000000 0.000000
vt 0.000000 0.000000
vt 0.000000 0.000000
vt 0.000000 0.000000
vt 0.000000 0.000000
vn -0.000000 0.000000 1.000000
vn -0.000000 0.000000 1.000000
vn -0.000000 0.000000 1.000000
vn -0.000000 0.000000 1.000000
vn -0.000000 0.000000 1.000000
vn -0.000000 0.000000 1.000000
vn -0.000000 0.000000 1.000000
vn -0.000000 0.000000 1.000000
vn -0.000000 0.000000 1.000000
vn -0.000000 0.000000 1.000000
vn -0.000000 0.000000 1.000000
vn -0.000000 0.000000 1.000000
vn -0.000000 0.000000 1.000000
vn -0.000000 0.000000 1.000000
vn -0.000000 0.000000 1.000000
vn 0.000000 0.000000 -1.000000
vn 0.000000 0.000000 -1.000000
vn 0.000000 0.000000 -1.000000
vn 0.000000 0.000000 -1.000000
vn 0.000000 0.000000 -1.000000
vn 0.000000 0.000000 -1.000000
vn 0.000000 0.000000 -1.000000
vn 0.000000 0.000000 -1.000000
vn 0.000000 0.000000 -1.000000
vn 0.000000 0.000000 -1.000000
vn 0.000000 0.000000 -1.000000
vn 0.000000 0.000000 -1.000000
vn 0.000000 0.000000 -1.000000
vn 0.000000 0.000000 -1.000000
vn 0.000000 0.000000 -1.000000
vn 0.001990 0.001233 -0.999997
vn 0.001990 0.001233 -0.999997
vn 0.001990 0.001233 -0.999997
vn 0.001990 0.001233 -0.999997
vn 0.001990 0.001233 -0.999997
vn 0.001990 0.001233 -0.999997
vn -0.000826 1.000000 0.000454
vn -0.000826 1.000000 0.000454
vn -0.000826 1.000000 0.000454
vn -0.000826 1.000000 0.000454
vn -0.000826 1.000000 0.000454
vn -0.000826 1.000000 0.000454
vn -0.000327 -0.000719 -1.000000
vn -0.000655 0.000067 -1.000000
vn -0.001305 -0.002264 -0.999997
vn 1.000000 0.000799 0.000023
vn 1.000000 0.000799 0.000023
vn 0.999999 0.001599 0.000046
vn 1.000000 0.000799 0.000023
vn 0.999999 0.001599 0.000046
vn 0.999999 0.001599 0.000046
vn 1.000000 0.000799 0.000023
vn 0.999999 0.001599 0.000046
vn 1.000000 0.000799 0.000023
vn 1.000000 0.000799 0.000023
vn 1.000000 0.000799 0.000023
vn 1.000000 0.000799 0.000023
vn -0.000825 1.000000 -0.000124
vn -0.000825 1.000000 -0.000124
vn -0.000825 1.000000 -0.000124
vn -0.000825 1.000000 -0.000124
vn -0.000825 1.000000 -0.000124
vn -0.000825 1.000000 -0.000124
vn 0.985886 0.167415 0.000000
vn 0.981380 0.192075 0.000000
vn 0.981380 0.192075 0.000000
vn 0.985886 0.167415 0.000000
vn 0.981380 0.192075 0.000000
vn 0.985886 0.167415 0.000000
vn 0.000000 -1.000000 0.000000
vn 0.000000 -1.000000 0.000000
vn 0.000000 -1.000000 0.000000
vn 0.000000 -1.000000 0.000000
vn 0.000000 -1.000000 0.000000
vn 0.000000 -1.000000 0.000000
vn 0.000000 -1.000000 0.000000
vn 0.000000 -1.000000 0.000000
vn 0.000000 -1.000000 0.000000
vn -0.000162 0.004986 0.999988
vn -0.000002 0.004607 0.999989
vn -0.000002 0.004607 0.999989
vn -0.000162 0.004986 0.999988
vn -0.000002 0.004607 0.999989
vn -0.000162 0.004986 0.999988
vn 1.000000 0.000000 0.000000
vn 1.000000 0.000000 0.000000
vn 1.000000 0.000000 0.000000
vn 1.000000 0.000000 0.000000
vn 1.000000 0.000000 0.000000
vn 1.000000 0.000000 0.000000
vn 1.000000 0.000799 -0.000084
vn 1.000000 0.000533 -0.000056
vn 1.000000 0.000799 -0.000084
vn 1.000000 0.000799 -0.000084
vn 1.000000 0.000799 -0.000084
vn 0.999999 0.001599 -0.000168
vn 1.000000 0.000799 -0.000084
vn 0.999999 0.001599 -0.000168
vn 0.999999 0.001599 -0.000168
vn -0.000266 0.002323 0.999997
vn -0.000266 0.002323 0.999997
vn -0.000266 0.002323 0.999997
vn -0.000266 0.002323 0.999997
vn -0.000266 0.002323 0.999997
vn -0.000266 0.002323 0.999997
vn -0.000933 1.000000 -0.000000
vn -0.000933 1.000000 -0.000000
vn -0.000933 1.000000 -0.000000
vn -0.000933 1.000000 -0.000000
vn -0.000933 1.000000 -0.000000
vn -0.000933 1.000000 -0.000000
vn 1.000000 0.000799 0.000023
vn 1.000000 0.000533 -0.000056
vn 1.000000 0.000799 -0.000084
vn 1.000000 0.000799 0.000023
vn 1.000000 0.000799 -0.000084
vn 1.000000 0.000799 0.000023
vn 0.000000 -1.000000 0.000000
vn 0.000000 -1.000000 0.000000
vn 0.000000 -1.000000 0.000000
vn 0.000000 -1.000000 0.000000
vn 0.000000 -1.000000 0.000000
vn 0.000000 -1.000000 0.000000
vn -0.000751 -1.000000 -0.000000
vn -0.000751 -1.000000 -0.000000
vn -0.000751 -1.000000 -0.000000
vn -0.000751 -1.000000 -0.000000
vn -0.000751 -1.000000 -0.000000
vn -0.000751 -1.000000 -0.000000
vn -0.000751 -1.000000 -0.000000
vn -0.000751 -1.000000 -0.000000
vn -0.000751 -1.000000 -0.000000
vn 0.000000 -1.000000 0.000000
vn 0.000000 -1.000000 0.000000
vn 0.000000 -1.000000 0.000000
vn 0.000000 -1.000000 0.000000
vn 0.000000 -1.000000 0.000000
vn 0.000000 -1.000000 0.000000
vn 0.000000 -1.000000 0.000000
vn 0.000000 -1.000000 0.000000
vn 0.000000 -1.000000 0.000000
vn -0.000162 0.004986 0.999988
vn -0.000322 0.005365 0.999986
vn -0.000162 0.004986 0.999988
vn 0.000566 1.000000 0.000138
vn 0.000566 1.000000 0.000138
vn 0.000566 1.000000 0.000138
vn 0.000566 1.000000 0.000138
vn 0.000566 1.000000 0.000138
vn 0.000566 1.000000 0.000138
vn 1.000000 0.000000 0.000000
vn 1.000000 0.000799 0.000023
vn 1.000000 0.000799 0.000023
vn 1.000000 0.000000 0.000000
vn 1.000000 0.000799 0.000023
vn 1.000000 0.000000 0.000000
vn -0.000410 -0.008101 0.999967
vn -0.000410 -0.008101 0.999967
vn -0.000410 -0.008101 0.999967
vn -0.000410 -0.008101 0.999967
vn -0.000410 -0.008101 0.999967
vn -0.000410 -0.008101 0.999967
vn 0.976264 0.216586 0.000000
vn 0.981380 0.192075 0.000000
vn 0.981380 0.192075 0.000000
vn 0.976264 0.216586 0.000000
vn 0.981380 0.192075 0.000000
vn 0.976264 0.216586 0.000000
vn 0.011819 0.999930 0.000000
vn 0.011819 0.999930 0.000000
vn 0.011819 0.999930 0.000000
vn 0.011819 0.999930 0.000000
vn 0.011819 0.999930 0.000000
vn 0.011819 0.999930 0.000000
vn 1.000000 0.000533 -0.000056
vn 1.000000 0.000000 0.000000
vn 1.000000 0.000000 0.000000
vn 1.000000 0.000533 -0.000056
vn 1.000000 0.000000 0.000000
vn 1.000000 0.000799 -0.000084
vn -0.999999 -0.001093 -0.000087
vn -0.999999 -0.001093 -0.000087
vn -1.000000 -0.000137 -0.000000
vn -0.999999 -0.001093 -0.000087
vn -1.000000 -0.000137 -0.000000
vn -1.000000 -0.000137 -0.000000
vn -0.999999 -0.001093 -0.000087
vn -1.000000 -0.000137 -0.000000
vn -1.000000 -0.000137 -0.000000
vn -0.999999 -0.001093 -0.000087
vn -1.000000 -0.000137 -0.000000
vn -1.000000 -0.000137 -0.000000
vn -0.999999 -0.001093 -0.000087
vn -1.000000 -0.000137 -0.000000
vn -1.000000 -0.000137 -0.000000
vn -0.999999 -0.001093 -0.000087
vn -1.000000 -0.000137 -0.000000
vn -1.000000 -0.000137 -0.000000
vn 0.589940 0.807446 -0.001359
vn 0.589940 0.807446 -0.001359
vn 0.589940 0.807446 -0.001359
vn 0.589940 0.807446 -0.001359
vn 0.589940 0.807446 -0.001359
vn 0.589940 0.807446 -0.001359
vn 0.589941 0.807446 0.000371
vn 0.589941 0.807446 0.000371
vn 0.589941 0.807446 0.000371
vn 0.589941 0.807446 0.000371
vn 0.589941 0.807446 0.000371
vn 0.589941 0.807446 0.000371
vn 0.002803 -0.003246 -0.999991
vn 0.002803 -0.003246 -0.999991
vn 0.002803 -0.003246 -0.999991
vn 0.002803 -0.003246 -0.999991
vn 0.002803 -0.003246 -0.999991
vn 0.002803 -0.003246 -0.999991
vn 0.000059 1.000000 -0.000264
vn 0.000059 1.000000 -0.000264
vn 0.000059 1.000000 -0.000264
vn 0.000059 1.000000 -0.000264
vn 0.000059 1.000000 -0.000264
vn 0.000059 1.000000 -0.000264
vn -0.001630 -0.003429 -0.999993
vn -0.000327 -0.000719 -1.000000
vn -0.001305 -0.002264 -0.999997
vn -0.001630 -0.003429 -0.999993
vn -0.001305 -0.002264 -0.999997
vn -0.003261 -0.005354 -0.999980
vn -0.999998 -0.002048 -0.000173
vn -0.999999 -0.001093 -0.000087
vn -0.999999 -0.001093 -0.000087
vn -0.999998 -0.002048 -0.000173
vn -0.999999 -0.001093 -0.000087
vn -0.999998 -0.002048 -0.000173
f 37/1/1 38/2/2 10/3/3
f 37/4/4 10/5/5 3/6/6
f 37/7/7 3/8/8 1/9/9
f 37/10/10 1/11/11 2/12/12
f 37/13/13 2/14/14 23/15/15
f 6/16/16 5/17/17 7/18/18
f 6/19/19 7/20/20 9/21/21
f 6/22/22 9/23/23 33/24/24
f 6/25/25 33/26/26 8/27/27
f 6/28/28 8/29/29 24/30/30
f 29/31/31 30/32/32 14/33/33
f 29/34/34 14/35/35 25/36/36
f 8/37/37 33/38/38 35/39/39
f 8/40/40 35/41/41 4/42/42
f 32/43/43 35/44/44 40/45/45
f 19/46/46 15/47/47 36/48/48
f 19/49/49 36/50/50 37/51/51
f 19/52/52 37/53/53 23/54/54
f 19/55/55 23/56/56 14/57/57
f 38/58/58 37/59/59 36/60/60
f 38/61/61 36/62/62 21/63/63
f 34/64/64 21/65/65 35/66/66
f 34/67/67 35/68/68 32/69/69
f 27/70/70 29/71/71 25/72/72
f 27/73/73 25/74/74 2/75/75
f 27/76/76 2/77/77 1/78/78
f 34/79/79 39/80/80 16/81/81
f 34/82/82 16/83/83 13/84/84
f 31/85/85 28/86/86 30/87/87
f 31/88/88 30/89/89 29/90/90
f 20/91/91 18/92/92 24/93/93
f 20/94/94 24/95/95 8/96/96
f 20/97/97 8/98/98 4/99/99
f 18/100/100 28/101/101 31/102/102
f 18/103/103 31/104/104 22/105/105
f 39/106/106 34/107/107 32/108/108
f 39/109/109 32/110/110 17/111/111
f 19/112/112 18/113/113 20/114/114
f 19/115/115 20/116/116 15/117/117
f 26/118/118 31/119/119 29/120/120
f 26/121/121 29/122/122 27/123/123
f 28/124/124 18/125/125 19/126/126
f 28/127/127 19/128/128 14/129/129
f 28/130/130 14/131/131 30/132/132
f 5/133/133 6/134/134 22/135/135
f 5/136/136 22/137/137 31/138/138
f 5/139/139 31/140/140 26/141/141
f 13/142/142 21/143/143 34/144/144
f 3/145/145 10/146/146 13/147/147
f 3/148/148 13/149/149 16/150/150
f 25/151/151 14/152/152 23/153/153
f 25/154/154 23/155/155 2/156/156
f 4/157/157 35/158/158 12/159/159
f 4/160/160 12/161/161 20/162/162
f 12/163/163 35/164/164 21/165/165
f 12/166/166 21/167/167 11/168/168
f 15/169/169 20/170/170 12/171/171
f 15/172/172 12/173/173 11/174/174
f 18/175/175 22/176/176 6/177/177
f 18/178/178 6/179/179 24/180/180
f 16/181/181 41/182/182 7/183/183
f 16/184/184 7/185/185 5/186/186
f 16/187/187 5/188/188 26/189/189
f 16/190/190 26/191/191 27/192/192
f 16/193/193 27/194/194 1/195/195
f 16/196/196 1/197/197 3/198/198
f 40/199/199 35/200/200 33/201/201
f 40/202/202 33/203/203 9/204/204
f 10/205/205 38/206/206 21/207/207
f 10/208/208 21/209/209 13/210/210
f 11/211/211 21/212/212 36/213/213
f 11/214/214 36/215/215 15/216/216
f 40/217/217 9/218/218 7/219/219
f 40/220/220 7/221/221 41/222/222
f 17/223/223 32/224/224 40/225/225
f 17/226/226 40/227/227 41/228/228
f 17/229/229 41/230/230 16/231/231
f 17/232/232 16/233/233 39/234/234
