v -7.000000 15.421791 -7.000000
v -7.000000 15.421791 7.000000
v 7.008003 4.974288 7.008002
v 7.008003 3.661928 -0.000000
v 0.000000 9.379318 7.000000
v -7.000000 15.421791 0.000000
v 0.000000 15.421791 -7.000000
v -3.500000 12.400555 0.000000
v 0.000000 9.379318 3.500000
v 0.000000 16.000000 -8.000000
v -8.000000 16.000000 7.000000
v 8.000000 6.909023 7.000000
v 8.000000 9.361919 -7.000000
v -8.000000 16.000000 -7.000000
v 7.000000 9.361919 -8.000000
v 7.000000 6.909023 8.000000
v -7.000000 16.000000 8.000000
v -7.000000 16.000000 -8.000000
v -7.000000 17.000000 -7.000000
v -7.000000 17.000000 7.000000
v 7.000000 7.909025 7.000000
v 7.000000 10.510141 -7.000000
v 8.000000 5.273757 0.000000
v 7.000000 6.273759 0.000000
v 0.000000 9.957525 8.000000
v 0.000000 10.957527 7.000000
v -7.000000 17.000000 0.000000
v -8.000000 16.000000 0.000000
v 0.000000 17.000000 -7.000000
v -0.875000 16.000000 -8.000000
v -3.500000 13.978764 0.000000
v 7.000000 8.000000 -8.000000
v 8.000000 8.000000 -7.000000
v 8.000000 3.735166 0.000000
v 8.000000 5.292171 7.000000
v 7.000000 5.292171 8.000000
v 0.000000 7.594342 8.000000
v 0.000000 10.957527 3.500000
vt 0.001953 0.998047
vt 0.001953 0.998047
vt 0.998047 0.001953
vt 0.001953 0.998047
vt 0.001953 0.001953
vt 0.998047 0.001953
vt 0.998047 0.998047
vt 0.998047 0.998047
vt 0.001953 0.998047
vt 0.998047 0.998047
vt 0.001953 0.998047
vt 0.001953 0.001953
vt 0.998047 0.998047
vt 0.001953 0.001953
vt 0.998047 0.001953
vt 0.001953 0.998047
vt 0.001953 0.001953
vt 0.998047 0.001953
vt 0.001953 0.998047
vt 0.998047 0.001953
vt 0.998047 0.998047
vt 0.814453 0.001953
vt 0.812500 0.988281
vt 0.111972 0.990242
vt 0.814453 0.001953
vt 0.111972 0.990242
vt 0.111972 0.001945
vt 0.001953 0.185547
vt 0.998047 0.185547
vt 0.998047 0.001953
vt 0.001953 0.185547
vt 0.998047 0.001953
vt 0.001953 0.001953
vt 1.089844 0.003906
vt 1.089844 0.988281
vt 0.904524 0.988183
vt 1.089844 0.003906
vt 0.904524 0.988183
vt 0.904524 0.004004
vt 0.111972 0.001945
vt 0.111972 0.990242
vt 0.812500 0.988281
vt 0.111972 0.001945
vt 0.812500 0.988281
vt 0.814453 0.001953
vt 0.998047 0.189453
vt 0.001953 0.189453
vt 0.001953 0.001953
vt 0.998047 0.189453
vt 0.001953 0.001953
vt 0.189453 0.001953
vt 0.998047 0.001953
vt 0.001953 0.001953
vt 0.001953 0.998047
vt 0.998047 0.001953
vt 0.001953 0.998047
vt 0.998047 0.998047
vt 0.998047 0.001953
vt 0.998047 0.998047
vt 0.998047 0.998047
vt 0.998047 0.998047
vt 0.998047 0.001953
vt 0.001953 0.001953
vt 0.998047 0.998047
vt 0.001953 0.001953
vt 0.001953 0.998047
vt 0.998047 0.001953
vt 0.001953 0.001953
vt 0.001953 0.185547
vt 0.998047 0.001953
vt 0.001953 0.185547
vt 0.998047 0.185547
vt 0.998047 0.001953
vt 0.001953 0.998047
vt 0.001953 0.998047
vt 0.001953 0.185547
vt 0.998047 0.185547
vt 0.998047 0.001953
vt 0.001953 0.185547
vt 0.998047 0.001953
vt 0.001953 0.001953
vt 0.998047 0.001953
vt 0.001953 0.001953
vt 0.001953 0.998047
vt 0.998047 0.001953
vt 0.001953 0.001953
vt 0.001953 0.185547
vt 0.998047 0.001953
vt 0.001953 0.185547
vt 0.998047 0.185547
vt 0.998047 0.001953
vt 0.001953 0.001953
vt 0.001953 0.185547
vt 0.998047 0.001953
vt 0.001953 0.185547
vt 0.998047 0.185547
vt 0.281250 0.281250
vt 0.281250 0.250000
vt 0.250000 0.281250
vt 0.718750 0.718750
vt 0.718750 0.750000
vt 0.750000 0.718750
vt 1.089844 0.003906
vt 1.089844 0.988281
vt 0.904524 0.988183
vt 1.089844 0.003906
vt 0.904524 0.988183
vt 0.904524 0.004004
vt 0.998047 0.001953
vt 0.998047 0.001953
vt 0.998047 0.001953
vt 0.998047 0.001953
vt 0.998047 0.001953
vt 0.998047 0.001953
vt 0.998047 0.001953
vt 0.998047 0.001953
vt 0.001953 0.001953
vt 0.250000 0.718750
vt 0.281250 0.750000
vt 0.281250 0.718750
vt 0.750000 0.281250
vt 0.718750 0.250000
vt 0.718750 0.281250
vt 0.111972 0.001945
vt 0.111972 0.990242
vt 0.812500 0.988281
vt 0.111972 0.001945
vt 0.812500 0.988281
vt 0.814453 0.001953
vt 0.000000 0.000000
vt 0.000000 0.000000
vt 0.000000 0.000000
vt 0.000000 0.000000
vt 0.000000 0.000000
vt 0.000000 0.000000
vt 0.000000 0.000000
vt 0.000000 0.000000
vt 0.000000 0.000000
vt 0.000000 0.000000
vt 0.000000 0.000000
vt 0.000000 0.000000
vt 0.000000 0.000000
vt 0.000000 0.000000
vt 0.000000 0.000000
vt 0.000000 0.000000
vt 0.000000 0.000000
vt 0.000000 0.000000
vt 0.000000 0.000000
vt 0.000000 0.000000
vt 0.000000 0.000000
vt 0.000000 0.000000
vt 0.000000 0.000000
vt 0.000000 0.000000
vt 0.000000 0.000000
vt 0.000000 0.000000
vt 0.000000 0.000000
vt 0.000000 0.000000
vt 0.000000 0.000000
vt 0.000000 0.000000
vt 0.000000 0.000000
vt 0.000000 0.000000
vt 0.000000 0.000000
vt 0.000000 0.000000
vt 0.000000 0.000000
vt 0.000000 0.000000
vt 0.000000 0.000000
vt 0.000000 0.000000
vt 0.000000 0.000000
vt 0.000000 0.000000
vt 0.000000 0.000000
vt 0.000000 0.000000
vt 0.000000 0.000000
vt 0.000000 0.000000
vt 0.000000 0.000000
vt 0.000000 0.000000
vt 0.000000 0.000000
vt 0.000000 0.000000
vt 0.000000 0.000000
vt 0.000000 0.000000
vt 0.000000 0.000000
vt 0.000000 0.000000
vt 0.000000 0.000000
vt 0.000000 0.000000
vt 0.000000 0.000000
vt 0.000000 0.000000
vt 0.000000 0.000000
vt 0.000000 0.000000
vt 0.000000 0.000000
vt 0.000000 0.000000
vt 0.000000 0.000000
vt 0.000000 0.000000
vt 0.000000 0.000000
vn -0.626264 -0.725505 -0.285371
vn 0.055525 -0.988296 -0.142082
vn -0.338558 -0.909212 0.242307
vn 0.055525 -0.988296 -0.142082
vn 0.367001 -0.854763 0.367001
vn -0.338558 -0.909212 0.242307
vn -0.611173 -0.789837 0.051243
vn -0.611173 -0.789837 0.051243
vn -0.586848 -0.679844 -0.439797
vn -0.611173 -0.789837 0.051243
vn -0.586848 -0.679844 -0.439797
vn 0.055525 -0.988296 -0.142082
vn -0.611173 -0.789837 0.051243
vn 0.055525 -0.988296 -0.142082
vn -0.626264 -0.725505 -0.285371
vn -0.565555 -0.818353 0.102205
vn -0.565555 -0.818353 0.102205
vn -0.611173 -0.789837 0.051243
vn -0.565555 -0.818353 0.102205
vn -0.611173 -0.789837 0.051243
vn -0.611173 -0.789837 0.051243
vn 1.000000 0.000000 0.000000
vn 0.928886 0.365719 0.058479
vn 0.868998 0.371540 0.326803
vn 1.000000 0.000000 0.000000
vn 0.868998 0.371540 0.326803
vn 0.923880 0.000000 0.382683
vn -0.055525 0.988296 0.142082
vn -0.367001 0.854763 -0.367001
vn -0.854764 0.367001 -0.367001
vn -0.055525 0.988296 0.142082
vn -0.854764 0.367001 -0.367001
vn -0.923880 0.382683 0.000000
vn 0.382683 0.000000 -0.923880
vn 0.508895 0.302580 -0.805898
vn 0.895369 0.346427 -0.279826
vn 0.382683 0.000000 -0.923880
vn 0.895369 0.346427 -0.279826
vn 0.923880 0.000000 -0.382683
vn 0.382683 0.000000 0.923880
vn 0.440832 0.349909 0.826578
vn 0.187120 0.306930 0.933156
vn 0.382683 0.000000 0.923880
vn 0.187120 0.306930 0.933156
vn 0.000000 0.000000 1.000000
vn 0.504801 0.778771 0.372413
vn 0.586848 0.679844 0.439797
vn -0.262706 0.309584 0.913862
vn 0.504801 0.778771 0.372413
vn -0.262706 0.309584 0.913862
vn 0.187120 0.306930 0.933156
vn 0.626264 0.725505 0.285371
vn -0.055525 0.988296 0.142082
vn 0.586848 0.679844 0.439797
vn 0.626264 0.725505 0.285371
vn 0.586848 0.679844 0.439797
vn 0.504801 0.778771 0.372413
vn 0.626264 0.725505 0.285371
vn 0.504801 0.778771 0.372413
vn 0.558144 0.826848 -0.069269
vn 0.558144 0.826848 -0.069269
vn 0.504801 0.778771 0.372413
vn 0.560383 0.784986 0.264137
vn 0.558144 0.826848 -0.069269
vn 0.560383 0.784986 0.264137
vn 0.637160 0.770285 0.026242
vn -0.923880 0.382683 0.000000
vn -0.854764 0.367001 0.367001
vn -0.673887 0.673887 0.302906
vn -0.923880 0.382683 0.000000
vn -0.673887 0.673887 0.302906
vn -0.055525 0.988296 0.142082
vn 0.338558 0.909212 -0.242307
vn -0.055525 0.988296 0.142082
vn 0.626264 0.725505 0.285371
vn 0.637160 0.770285 0.026242
vn 0.560383 0.784986 0.264137
vn 0.868998 0.371540 0.326803
vn 0.637160 0.770285 0.026242
vn 0.868998 0.371540 0.326803
vn 0.928886 0.365719 0.058479
vn 0.338558 0.909212 -0.242307
vn -0.367001 0.854763 -0.367001
vn -0.055525 0.988296 0.142082
vn 0.928886 0.365719 0.058479
vn 0.895369 0.346427 -0.279826
vn 0.686842 0.653324 -0.318459
vn 0.928886 0.365719 0.058479
vn 0.686842 0.653324 -0.318459
vn 0.637160 0.770285 0.026242
vn 0.187120 0.306930 0.933156
vn 0.440832 0.349909 0.826578
vn 0.560383 0.784986 0.264137
vn 0.187120 0.306930 0.933156
vn 0.560383 0.784986 0.264137
vn 0.504801 0.778771 0.372413
vn -0.367001 0.854763 -0.367001
vn -0.367001 0.367001 -0.854763
vn -0.854764 0.367001 -0.367001
vn 0.560383 0.784986 0.264137
vn 0.440832 0.349909 0.826578
vn 0.868998 0.371540 0.326803
vn 0.923880 0.000000 0.382683
vn 0.868998 0.371540 0.326803
vn 0.440832 0.349909 0.826578
vn 0.923880 0.000000 0.382683
vn 0.440832 0.349909 0.826578
vn 0.382683 0.000000 0.923880
vn 0.149451 0.355648 -0.922593
vn 0.000000 0.252726 -0.967538
vn -0.367001 0.367001 -0.854763
vn 0.149451 0.355648 -0.922593
vn -0.367001 0.367001 -0.854763
vn -0.367001 0.854763 -0.367001
vn 0.149451 0.355648 -0.922593
vn -0.367001 0.854763 -0.367001
vn 0.338558 0.909212 -0.242307
vn -0.854764 0.367001 0.367001
vn -0.262706 0.309584 0.913862
vn -0.673887 0.673887 0.302906
vn 0.895369 0.346427 -0.279826
vn 0.508895 0.302580 -0.805898
vn 0.686842 0.653324 -0.318459
vn 0.923880 0.000000 -0.382683
vn 0.895369 0.346427 -0.279826
vn 0.928886 0.365719 0.058479
vn 0.923880 0.000000 -0.382683
vn 0.928886 0.365719 0.058479
vn 1.000000 0.000000 0.000000
vn 0.707107 0.000000 -0.707107
vn 0.707107 0.000000 -0.707107
vn 0.707107 0.000000 -0.707107
vn 0.707107 0.000000 -0.707107
vn 0.707107 0.000000 -0.707107
vn 0.707107 0.000000 -0.707107
vn -0.447517 -0.000855 -0.894275
vn -0.447517 -0.000855 -0.894275
vn -0.447517 -0.000855 -0.894275
vn -0.447517 -0.000855 -0.894275
vn -0.447517 -0.000855 -0.894275
vn -0.447517 -0.000855 -0.894275
vn 0.894427 0.000000 0.447214
vn 0.894427 0.000000 0.447214
vn 0.894427 0.000000 0.447214
vn 0.894427 0.000000 0.447214
vn 0.894427 0.000000 0.447214
vn 0.894427 0.000000 0.447214
vn 1.000000 0.000000 0.000000
vn 1.000000 0.000000 0.000000
vn 1.000000 0.000000 0.000000
vn -0.999999 -0.001453 -0.000314
vn -0.999999 -0.001453 -0.000314
vn -0.999999 -0.001453 -0.000314
vn -0.999999 -0.001453 -0.000314
vn -0.999999 -0.001453 -0.000314
vn -0.999999 -0.001453 -0.000314
vn -0.999999 -0.001453 -0.000314
vn -0.999999 -0.001453 -0.000314
vn -0.999999 -0.001453 -0.000314
vn 0.000000 -0.865703 -0.500557
vn 0.000000 -0.865703 -0.500557
vn 0.000000 -0.865703 -0.500557
vn 0.000000 -0.865703 -0.500557
vn 0.000000 -0.865703 -0.500557
vn 0.000000 -0.865703 -0.500557
vn -0.447612 -0.774136 -0.447612
vn -0.447612 -0.774136 -0.447612
vn -0.447612 -0.774136 -0.447612
vn -0.500557 -0.865703 0.000000
vn -0.500557 -0.865703 0.000000
vn -0.500557 -0.865703 0.000000
vn -0.500557 -0.865703 0.000000
vn -0.500557 -0.865703 0.000000
vn -0.500557 -0.865703 0.000000
vn -0.500557 -0.865703 0.000000
vn -0.500557 -0.865703 0.000000
vn -0.500557 -0.865703 0.000000
vn -0.500557 -0.865703 0.000000
vn -0.500557 -0.865703 0.000000
vn -0.500557 -0.865703 0.000000
vn -0.447612 -0.774136 0.447612
vn -0.447612 -0.774136 0.447612
vn -0.447612 -0.774136 0.447612
vn -0.598607 -0.693466 0.400967
vn -0.598607 -0.693466 0.400967
vn -0.598607 -0.693466 0.400967
vn -0.598607 -0.693466 0.400967
vn -0.598607 -0.693466 0.400967
vn -0.598607 -0.693466 0.400967
vn -1.000000 0.000000 0.000000
vn -1.000000 0.000000 0.000000
vn -1.000000 0.000000 0.000000
f 8/1/1 6/2/2 7/3/3
f 6/4/4 1/5/5 7/6/6
f 9/7/7 5/8/8 2/9/9
f 9/10/10 2/11/11 6/12/12
f 9/13/13 6/14/14 8/15/15
f 4/16/16 3/17/17 5/18/18
f 4/19/19 5/20/20 9/21/21
f 34/22/22 23/23/23 12/24/24
f 34/25/25 12/26/26 35/27/27
f 27/28/28 19/29/29 14/30/30
f 27/31/31 14/32/32 28/33/33
f 32/34/34 15/35/35 13/36/36
f 32/37/37 13/38/38 33/39/39
f 36/40/40 16/41/41 25/42/42
f 36/43/43 25/44/44 37/45/45
f 26/46/46 20/47/47 17/48/48
f 26/49/49 17/50/50 25/51/51
f 31/52/52 27/53/53 20/54/54
f 31/55/55 20/56/56 26/57/57
f 31/58/58 26/59/59 38/60/60
f 38/61/61 26/62/62 21/63/63
f 38/64/64 21/65/65 24/66/66
f 28/67/67 11/68/68 20/69/69
f 28/70/70 20/71/71 27/72/72
f 29/73/73 27/74/74 31/75/75
f 24/76/76 21/77/77 12/78/78
f 24/79/79 12/80/80 23/81/81
f 29/82/82 19/83/83 27/84/84
f 23/85/85 13/86/86 22/87/87
f 23/88/88 22/89/89 24/90/90
f 25/91/91 16/92/92 21/93/93
f 25/94/94 21/95/95 26/96/96
f 19/97/97 18/98/98 14/99/99
f 21/100/100 16/101/101 12/102/102
f 35/103/103 12/104/104 16/105/105
f 35/106/106 16/107/107 36/108/108
f 10/109/109 30/110/110 18/111/111
f 10/112/112 18/113/113 19/114/114
f 10/115/115 19/116/116 29/117/117
f 11/118/118 17/119/119 20/120/120
f 13/121/121 15/122/122 22/123/123
f 33/124/124 13/125/125 23/126/126
f 33/127/127 23/128/128 34/129/129
f 8/130/130 31/131/131 38/132/132
f 8/133/133 38/134/134 9/135/135
f 24/136/136 4/137/137 9/138/138
f 24/139/139 9/140/140 38/141/141
f 29/142/142 31/143/143 8/144/144
f 29/145/145 8/146/146 7/147/147
f 29/148/148 7/149/149 10/150/150
f 24/151/151 22/152/152 15/153/153
f 24/154/154 15/155/155 32/156/156
f 24/157/157 32/158/158 4/159/159
f 18/160/160 10/161/161 7/162/162
f 18/163/163 7/164/164 1/165/165
f 1/166/166 14/167/167 18/168/168
f 14/169/169 1/170/170 6/171/171
f 14/172/172 6/173/173 28/174/174
f 28/175/175 6/176/176 2/177/177
f 28/178/178 2/179/179 11/180/180
f 11/181/181 2/182/182 17/183/183
f 17/184/184 2/185/185 5/186/186
f 17/187/187 5/188/188 25/189/189
f 5/190/190 37/191/191 25/192/192
