v -7.000000 15.421791 7.000000
v 7.008003 4.974288 7.008002
v 7.008003 3.661928 -0.000000
v 0.000000 9.379318 7.000000
v -7.000000 15.421791 0.000000
v -3.500000 12.400555 0.000000
v 0.000000 9.379318 3.500000
v 7.000000 6.273759 0.000000
v 0.000000 17.000000 -7.000000
v -3.500000 13.978764 0.000000
v 0.000000 10.957527 3.500000
v 0.000000 7.002285 7.008003
v -2.992864 5.818320 7.004809
v -5.998045 7.191571 7.011008
v -7.038751 7.984883 -6.043389
v 0.000000 7.002285 -7.000000
v -0.000000 16.000000 -8.020481
v -7.999187 16.000000 -7.011933
v -7.018577 16.000000 -8.000544
v -7.999187 8.000000 -7.011933
v -7.018577 8.000000 -8.000544
v -0.721000 15.466472 -7.019730
v 0.721000 8.000000 -8.020481
v 0.721000 15.170240 -8.020481
v -0.721000 16.000000 -8.020481
v -0.721000 8.000000 -8.020481
v -6.026819 15.544407 -7.000679
v 0.721000 7.999981 -7.019730
v 0.721000 14.636712 -7.019730
v -6.026819 7.984883 -7.000679
v -0.721000 7.999981 -7.019730
v 7.000000 8.000000 -8.000000
v 7.008003 7.997447 -7.008003
v 7.000000 9.361919 -8.000000
v 7.000000 10.510141 -7.000000
v 7.008003 7.002285 -7.008003
v -7.008003 -0.002190 7.008003
v 7.008003 -0.002190 7.008003
v 7.008003 -0.002190 -7.008003
v -7.008003 3.084557 7.008003
v -7.008003 7.002285 -7.008003
v -2.997505 0.000020 -3.006076
v -2.997504 0.000020 -7.018727
v -7.000032 0.000020 -3.006076
v -7.000032 -0.999980 -3.006076
v -3.000031 -0.999980 -3.004606
v -2.997504 -0.999980 -7.018727
v -7.000030 -0.999980 -7.018727
v -6.000000 0.000000 8.000000
v -6.000000 0.000000 7.000000
v -2.987782 -0.002190 7.997262
v -7.008003 -0.002191 -7.008003
v -2.987782 -0.002190 7.008003
v -0.488836 -0.002190 7.008003
v 0.000000 0.000000 8.000000
v 7.000000 5.292171 8.000000
v 0.000000 7.594342 8.000000
v -3.000000 6.497683 8.000000
v -6.000000 8.000000 8.000000
v -5.998045 3.661000 7.011008
v -6.000000 4.748473 7.025858
v -0.000000 15.466472 -7.019730
v -7.038751 15.544407 -6.043389
v -7.018577 8.000000 -8.000544
v -6.026819 15.544407 -7.000679
v -6.026819 7.984883 -7.000679
v -0.000000 15.466472 -7.019730
vt 0.485008 0.062467
vt 0.066631 0.500639
vt 0.064049 0.123410
vt 0.485008 0.062467
vt 0.064049 0.123410
vt 0.131475 0.063656
vt 0.500477 0.938079
vt 0.333970 0.938079
vt 0.333970 0.999829
vt 0.500477 0.938079
vt 0.333970 0.999829
vt 0.533049 1.000000
vt 0.533049 0.719110
vt 0.533049 0.937580
vt 0.066631 0.937580
vt 0.533049 0.719110
vt 0.066631 0.937580
vt 0.299840 0.500639
vt 1.000000 0.500639
vt 1.000000 0.938079
vt 0.533049 0.937580
vt 1.000000 0.500639
vt 0.533049 0.937580
vt 0.533049 0.719110
vt 0.333970 0.938079
vt 0.500477 0.938079
vt 1.000000 0.938079
vt 0.333970 0.938079
vt 1.000000 0.938079
vt 1.000000 0.063199
vt 0.333970 0.938079
vt 1.000000 0.063199
vt 0.333322 0.062530
vt 0.333970 0.938079
vt 0.333322 0.062530
vt 0.333322 0.313000
vt 0.970703 0.158203
vt 1.041016 -0.111328
vt 0.501953 -0.255859
vt 0.970703 0.158203
vt 0.501953 -0.255859
vt 0.041016 -0.111328
vt 0.970703 0.158203
vt 0.041016 -0.111328
vt -0.123047 0.994141
vt 2.128906 0.847656
vt 1.988281 0.984375
vt 0.000000 0.982422
vt 0.132812 0.585938
vt 0.128906 0.703125
vt 0.828125 0.703125
vt 0.132812 0.585938
vt 0.828125 0.703125
vt 0.828125 0.585938
vt 0.299840 0.500639
vt 0.066631 0.500639
vt 0.485008 0.062467
vt 0.299840 0.500639
vt 0.485008 0.062467
vt 0.533049 0.062467
vt 0.128906 0.703125
vt 0.828125 0.703125
vt 0.828125 0.585938
vt 0.128906 0.703125
vt 0.828125 0.585938
vt 0.628906 0.589844
vt 0.128906 0.703125
vt 0.628906 0.589844
vt 0.445312 0.585938
vt 0.128906 0.703125
vt 0.445312 0.585938
vt 0.132812 0.585938
vt 0.132812 0.585938
vt 0.128906 0.703125
vt 0.828125 0.703125
vt 0.132812 0.585938
vt 0.828125 0.703125
vt 0.828125 0.585938
vt 1.854002 1.006948
vt 1.011697 1.003041
vt 0.008314 1.006948
vt 1.854002 1.006948
vt 0.008314 1.006948
vt 0.004408 -0.111007
vt 1.854002 1.006948
vt 0.004408 -0.111007
vt 1.854002 -0.001632
vt 0.132812 0.585938
vt 0.128906 0.703125
vt 0.828125 0.703125
vt 0.132812 0.585938
vt 0.828125 0.703125
vt 0.828125 0.585938
vt 0.128906 0.703125
vt 0.828125 0.703125
vt 0.828125 0.585938
vt 0.128906 0.703125
vt 0.828125 0.585938
vt 0.132812 0.585938
vt 0.128906 0.703125
vt 0.828125 0.703125
vt 0.828125 0.585938
vt 0.128906 0.703125
vt 0.828125 0.585938
vt 0.132812 0.585938
vt 0.828125 0.703125
vt 0.828125 0.585938
vt 0.132812 0.585938
vt 0.828125 0.703125
vt 0.132812 0.585938
vt 0.128906 0.703125
vt 0.333322 0.313000
vt 0.066629 0.313000
vt 0.066098 0.938079
vt 0.333322 0.313000
vt 0.066098 0.938079
vt 0.133262 0.937580
vt 0.333322 0.313000
vt 0.133262 0.937580
vt 0.333970 0.938079
vt 0.984375 1.140625
vt 0.113281 0.687373
vt 0.992188 0.902344
vt 0.133262 1.000000
vt 0.333970 0.999829
vt 0.333970 0.938079
vt 0.133262 1.000000
vt 0.333970 0.938079
vt 0.133262 0.937580
vt 0.998047 0.964844
vt 0.998047 0.642578
vt -1.000000 0.994141
vt 0.007812 1.845703
vt 0.996094 2.570312
vt 0.998047 2.158203
vt 0.000000 1.126953
vt 0.000000 0.990234
vt 0.994141 0.525391
vt 0.000000 1.126953
vt 0.994141 0.525391
vt 0.994141 0.884766
vt 0.717941 0.455658
vt 0.335739 0.455658
vt 0.402344 0.515625
vt 0.717941 0.455658
vt 0.402344 0.515625
vt 0.716049 0.516998
vt 0.400879 0.000000
vt 0.603027 0.000000
vt 0.603027 0.892578
vt 0.400879 0.000000
vt 0.603027 0.892578
vt 0.501953 0.998047
vt 0.400879 0.000000
vt 0.501953 0.998047
vt 0.400879 0.998047
vt 0.400879 0.998047
vt 0.400879 0.000000
vt 0.603027 0.000000
vt 0.400879 0.998047
vt 0.603027 0.000000
vt 0.603027 0.998047
vt 1.001953 0.001953
vt 1.993122 0.684948
vt 1.993122 0.002080
vt 0.400879 0.892578
vt 0.400879 0.000000
vt 0.603027 0.000000
vt 0.400879 0.892578
vt 0.603027 0.000000
vt 0.603027 0.962891
vt 0.460938 0.589844
vt 0.578125 0.593750
vt 0.570312 0.707031
vt 0.460938 0.589844
vt 0.570312 0.707031
vt 0.460938 0.707031
vt 0.065393 0.001244
vt 0.065393 0.001244
vt 0.000054 0.062954
vt 0.065393 0.001244
vt 0.000054 0.062954
vt 0.000054 0.062954
vt 0.581067 0.499998
vt 0.533024 0.444571
vt 1.000000 0.444571
vt 0.581067 0.499998
vt 1.000000 0.444571
vt 1.000000 0.499858
vt 0.400879 0.998047
vt 0.400879 0.000000
vt 0.603027 0.000000
vt 0.400879 0.998047
vt 0.603027 0.000000
vt 0.603027 1.060547
vt 0.485008 0.000000
vt 0.533049 0.000000
vt 0.581090 0.000000
vt 0.485008 0.000000
vt 0.581090 0.000000
vt 0.581090 0.000000
vt 0.485008 0.000000
vt 0.581090 0.000000
vt 0.485008 0.000000
vt 0.000000 0.435547
vt 0.000000 0.001953
vt 1.439453 0.001953
vt 0.000000 0.435547
vt 1.439453 0.001953
vt 1.998047 0.001953
vt 0.000000 0.435547
vt 1.998047 0.001953
vt 1.998047 0.998047
vt 0.603027 0.000000
vt 0.603027 0.998047
vt 0.400879 1.072266
vt 0.603027 0.000000
vt 0.400879 1.072266
vt 0.400879 0.000000
vt 0.717941 0.455658
vt 0.335739 0.455658
vt 0.402344 0.515625
vt 0.717941 0.455658
vt 0.402344 0.515625
vt 0.716049 0.516998
vt 0.717941 0.455658
vt 0.335739 0.455658
vt 0.339844 0.515625
vt 0.717941 0.455658
vt 0.339844 0.515625
vt 0.716049 0.516998
vt 0.998047 0.513672
vt 1.989216 0.997448
vt 1.993122 0.002080
vt 0.998047 0.513672
vt 1.993122 0.002080
vt 0.004137 0.002080
vt 0.998047 0.513672
vt 0.004137 0.002080
vt 0.000230 0.684948
vt 0.000000 0.998047
vt 0.000000 0.001953
vt 0.564453 0.001953
vt 0.000000 0.998047
vt 0.564453 0.001953
vt 1.998047 0.001953
vt 0.000000 0.998047
vt 1.998047 0.001953
vt 1.998047 0.998047
vt 0.000000 0.998047
vt 1.998047 0.998047
vt 1.001953 0.998047
vt 0.066578 0.055556
vt 0.066578 0.000000
vt 0.066579 0.000000
vt 0.066578 0.055556
vt 0.066579 0.000000
vt 0.066047 0.055433
vt 0.066578 0.000000
vt 0.066578 0.055556
vt 0.333286 0.055556
vt 0.066578 0.000000
vt 0.333286 0.055556
vt 0.333117 0.000000
vt 0.333117 0.000000
vt 0.333286 0.055556
vt 0.333286 0.055556
vt 0.333117 0.000000
vt 0.333286 0.055556
vt 0.333286 0.000000
vt 0.066047 0.055433
vt 0.066579 0.000000
vt 0.333286 0.000000
vt 0.066047 0.055433
vt 0.333286 0.000000
vt 0.333286 0.055556
vt 0.299840 0.500639
vt 0.066631 0.937580
vt 0.066631 0.500639
vt 0.066047 0.226919
vt 0.133346 0.258944
vt 0.133215 0.055555
vt 0.066047 0.226919
vt 0.133215 0.055555
vt 0.066047 0.055433
vt 0.132812 0.585938
vt 0.128906 0.703125
vt 0.828125 0.703125
vt 0.132812 0.585938
vt 0.828125 0.703125
vt 0.828125 0.585938
vn -0.279155 -0.917563 -0.283110
vn -0.422279 -0.886480 -0.189297
vn -0.015368 -0.999689 -0.019646
vn -0.279155 -0.917563 -0.283110
vn -0.015368 -0.999689 -0.019646
vn -0.015368 -0.999689 -0.019646
vn -0.201149 0.979557 0.002613
vn 0.000118 1.000000 -0.000204
vn 0.000164 1.000000 -0.000504
vn -0.201149 0.979557 0.002613
vn 0.000164 1.000000 -0.000504
vn -0.303478 0.952830 0.003899
vn -0.611173 -0.789837 0.051243
vn -0.611173 -0.789837 0.051243
vn -0.653435 -0.756983 0.000000
vn -0.611173 -0.789837 0.051243
vn -0.653435 -0.756983 0.000000
vn -0.622820 -0.762780 -0.173962
vn -0.951801 -0.304426 0.037408
vn -0.884747 -0.462479 0.057760
vn -0.611173 -0.789837 0.051243
vn -0.951801 -0.304426 0.037408
vn -0.611173 -0.789837 0.051243
vn -0.611173 -0.789837 0.051243
vn 0.000118 1.000000 -0.000204
vn -0.201149 0.979557 0.002613
vn 0.000142 1.000000 0.000079
vn 0.000118 1.000000 -0.000204
vn 0.000142 1.000000 0.000079
vn 0.000142 1.000000 0.000079
vn 0.000118 1.000000 -0.000204
vn 0.000142 1.000000 0.000079
vn 0.000142 1.000000 0.000079
vn 0.000118 1.000000 -0.000204
vn 0.000142 1.000000 0.000079
vn 0.000071 1.000000 0.000095
vn -0.001019 -0.002343 -0.999997
vn -0.001019 -0.002343 -0.999997
vn -0.001063 -0.001319 -0.999999
vn -0.001019 -0.002343 -0.999997
vn -0.001063 -0.001319 -0.999999
vn -0.001063 -0.001319 -0.999999
vn -0.001019 -0.002343 -0.999997
vn -0.001063 -0.001319 -0.999999
vn -0.001063 -0.001319 -0.999999
vn 0.053296 0.996988 0.056338
vn 0.053296 0.996988 0.056338
vn 0.053296 0.996988 0.056338
vn -0.027967 -0.821775 0.569126
vn -0.027967 -0.821775 0.569126
vn -0.357579 -0.747954 0.559197
vn -0.027967 -0.821775 0.569126
vn -0.357579 -0.747954 0.559197
vn -0.357579 -0.747954 0.559197
vn -0.622820 -0.762780 -0.173962
vn -0.422279 -0.886480 -0.189297
vn -0.279155 -0.917563 -0.283110
vn -0.622820 -0.762780 -0.173962
vn -0.279155 -0.917563 -0.283110
vn -0.502258 -0.701710 -0.505313
vn 0.999999 -0.000130 0.001042
vn 0.999999 -0.000130 0.001042
vn 0.999999 -0.000130 0.001042
vn 0.999999 -0.000130 0.001042
vn 0.999999 -0.000130 0.001042
vn 0.999999 -0.000130 0.001042
vn 0.999999 -0.000130 0.001042
vn 0.999999 -0.000130 0.001042
vn 1.000000 -0.000472 -0.000529
vn 0.999999 -0.000130 0.001042
vn 1.000000 -0.000472 -0.000529
vn 1.000000 -0.000472 -0.000529
vn 0.017909 -0.877832 0.478634
vn 0.017909 -0.877832 0.478634
vn -0.027967 -0.821775 0.569126
vn 0.017909 -0.877832 0.478634
vn -0.027967 -0.821775 0.569126
vn -0.027967 -0.821775 0.569126
vn 0.925365 0.034170 0.377534
vn 0.997294 0.062203 -0.039193
vn 0.997294 0.062203 -0.039193
vn 0.925365 0.034170 0.377534
vn 0.997294 0.062203 -0.039193
vn 0.997294 0.062203 -0.039193
vn 0.925365 0.034170 0.377534
vn 0.997294 0.062203 -0.039193
vn 0.925365 0.034170 0.377534
vn 0.707107 0.000000 -0.707107
vn 0.707107 0.000000 -0.707107
vn 0.707107 0.000000 -0.707107
vn 0.707107 0.000000 -0.707107
vn 0.707107 0.000000 -0.707107
vn 0.707107 0.000000 -0.707107
vn -0.577999 0.815994 0.008439
vn -0.201149 0.979557 0.002613
vn -0.303478 0.952830 0.003899
vn -0.577999 0.815994 0.008439
vn -0.303478 0.952830 0.003899
vn -0.577999 0.815994 0.008439
vn 0.895165 -0.002826 0.445726
vn 0.895165 -0.002826 0.445726
vn 0.895165 -0.002826 0.445726
vn 0.895165 -0.002826 0.445726
vn 0.895165 -0.002826 0.445726
vn 0.895165 -0.002826 0.445726
vn -0.447517 -0.000855 -0.894275
vn -0.447517 -0.000855 -0.894275
vn -0.447517 -0.000855 -0.894275
vn -0.447517 -0.000855 -0.894275
vn -0.447517 -0.000855 -0.894275
vn -0.447517 -0.000855 -0.894275
vn 0.000071 1.000000 0.000095
vn -0.000000 1.000000 0.000111
vn -0.000000 1.000000 0.000111
vn 0.000071 1.000000 0.000095
vn -0.000000 1.000000 0.000111
vn 0.000364 1.000000 0.000056
vn 0.000071 1.000000 0.000095
vn 0.000364 1.000000 0.000056
vn 0.000118 1.000000 -0.000204
vn -0.001019 -0.002343 -0.999997
vn -0.000974 -0.003367 -0.999994
vn -0.001019 -0.002343 -0.999997
vn 0.000727 1.000000 0.000000
vn 0.000164 1.000000 -0.000504
vn 0.000118 1.000000 -0.000204
vn 0.000727 1.000000 0.000000
vn 0.000118 1.000000 -0.000204
vn 0.000364 1.000000 0.000056
vn 1.000000 -0.000472 -0.000529
vn 1.000000 -0.000472 -0.000529
vn 0.999997 -0.000813 -0.002100
vn -0.999995 -0.002699 -0.001648
vn -0.999995 -0.002627 0.001644
vn -0.999997 -0.002491 0.000638
vn -0.999997 -0.002491 0.000638
vn -0.999999 -0.001109 -0.000686
vn -0.951801 -0.304426 0.037408
vn -0.999997 -0.002491 0.000638
vn -0.951801 -0.304426 0.037408
vn -0.999995 -0.002699 -0.001648
vn -0.999984 -0.002076 0.005211
vn -0.999997 -0.002491 0.000638
vn -0.999995 -0.002627 0.001644
vn -0.999984 -0.002076 0.005211
vn -0.999995 -0.002627 0.001644
vn -0.999984 -0.002076 0.005211
vn 0.000000 0.000000 1.000000
vn 0.000000 0.000000 1.000000
vn 0.000000 0.000000 1.000000
vn 0.000000 0.000000 1.000000
vn 0.000000 0.000000 1.000000
vn 0.000000 0.000000 1.000000
vn 0.000000 0.000000 1.000000
vn 0.000000 0.000000 1.000000
vn 0.000000 0.000000 1.000000
vn 0.925365 0.034170 0.377534
vn 0.925365 0.034170 0.377534
vn 0.687221 0.000000 0.726448
vn 0.925365 0.034170 0.377534
vn 0.687221 0.000000 0.726448
vn 0.687221 0.000000 0.726448
vn 0.000000 -0.000000 -1.000000
vn 0.000000 -0.000000 -1.000000
vn 0.000000 -0.000000 -1.000000
vn 0.925348 0.334546 0.178356
vn 1.000000 0.000000 0.000000
vn 1.000000 0.000000 0.000000
vn 0.925348 0.334546 0.178356
vn 1.000000 0.000000 0.000000
vn 0.925348 0.334546 0.178356
vn 0.712537 0.619142 0.330082
vn 0.925348 0.334546 0.178356
vn 0.925348 0.334546 0.178356
vn 0.712537 0.619142 0.330082
vn 0.925348 0.334546 0.178356
vn 0.712537 0.619142 0.330082
vn -0.709974 0.000000 -0.704228
vn -0.709974 0.000000 -0.704228
vn -0.709974 0.000000 -0.704228
vn -0.709974 0.000000 -0.704228
vn -0.709974 0.000000 -0.704228
vn -0.709974 0.000000 -0.704228
vn -0.000278 0.010000 0.999950
vn -0.000139 0.004332 0.999991
vn -0.000139 0.004332 0.999991
vn -0.000278 0.010000 0.999950
vn -0.000139 0.004332 0.999991
vn -0.000278 0.010000 0.999950
vn 0.709979 0.000000 -0.704223
vn 0.709979 0.000000 -0.704223
vn 0.709979 0.000000 -0.704223
vn 0.709979 0.000000 -0.704223
vn 0.709979 0.000000 -0.704223
vn 0.709979 0.000000 -0.704223
vn 0.000000 0.000000 -1.000000
vn 0.000000 0.000000 -1.000000
vn 0.000000 0.000000 -1.000000
vn 0.000000 0.000000 -1.000000
vn 0.000000 0.000000 -1.000000
vn 0.000000 0.000000 -1.000000
vn 0.000000 0.000000 -1.000000
vn 0.000000 0.000000 -1.000000
vn 0.000000 0.000000 -1.000000
vn 1.000000 0.000790 -0.000000
vn 1.000000 0.000790 -0.000000
vn 0.999997 0.002393 -0.000498
vn 1.000000 0.000790 -0.000000
vn 0.999997 0.002393 -0.000498
vn 0.999997 0.002393 -0.000498
vn 1.000000 0.000790 -0.000000
vn 0.999997 0.002393 -0.000498
vn 1.000000 0.000790 -0.000000
vn -1.000000 0.000000 0.000000
vn -1.000000 0.000000 0.000000
vn -1.000000 0.000000 0.000000
vn -1.000000 0.000000 0.000000
vn -1.000000 0.000000 0.000000
vn -1.000000 0.000000 0.000000
vn -0.001274 0.999966 0.008197
vn -0.001274 0.999966 0.008197
vn -0.001274 0.999966 0.008197
vn -0.001274 0.999966 0.008197
vn -0.001274 0.999966 0.008197
vn -0.001274 0.999966 0.008197
vn 0.000198 0.999999 0.001290
vn 0.000198 0.999999 0.001290
vn 0.000198 0.999999 0.001290
vn 0.000198 0.999999 0.001290
vn 0.000198 0.999999 0.001290
vn 0.000198 0.999999 0.001290
vn -0.951801 -0.304426 0.037408
vn -0.999999 -0.001109 -0.000686
vn -1.000000 0.000000 0.000000
vn -0.951801 -0.304426 0.037408
vn -1.000000 0.000000 0.000000
vn -1.000000 0.000000 0.000000
vn -0.951801 -0.304426 0.037408
vn -1.000000 0.000000 0.000000
vn -0.884747 -0.462479 0.057760
vn 0.000000 -0.001337 0.999999
vn 0.000670 -0.003350 0.999994
vn 0.000670 -0.003350 0.999994
vn 0.000000 -0.001337 0.999999
vn 0.000670 -0.003350 0.999994
vn 0.000000 -0.001337 0.999999
vn 0.000000 -0.001337 0.999999
vn 0.000000 -0.001337 0.999999
vn -0.000139 0.004332 0.999991
vn 0.000000 -0.001337 0.999999
vn -0.000139 0.004332 0.999991
vn -0.000139 0.004332 0.999991
vn 0.999997 0.002393 -0.000498
vn 0.999992 0.003996 -0.000995
vn 0.999992 0.003996 -0.000995
vn 0.999997 0.002393 -0.000498
vn 0.999992 0.003996 -0.000995
vn 0.999997 0.002393 -0.000498
vn 0.000184 -0.000736 -1.000000
vn 0.000184 -0.000736 -1.000000
vn 0.000184 -0.000736 -1.000000
vn 0.000184 -0.000736 -1.000000
vn 0.000184 -0.000736 -1.000000
vn 0.000184 -0.000736 -1.000000
vn -0.999999 0.001263 -0.000315
vn -0.999999 0.001263 -0.000315
vn -0.999999 0.001263 -0.000315
vn -0.999999 0.001263 -0.000315
vn -0.999999 0.001263 -0.000315
vn -0.999999 0.001263 -0.000315
vn 0.000670 -0.003350 0.999994
vn 0.001340 -0.005363 0.999985
vn 0.001340 -0.005363 0.999985
vn 0.000670 -0.003350 0.999994
vn 0.001340 -0.005363 0.999985
vn 0.000670 -0.003350 0.999994
vn -0.622820 -0.762780 -0.173962
vn -0.653435 -0.756983 0.000000
vn -0.422279 -0.886480 -0.189297
vn -0.002945 0.001632 -0.999994
vn -0.002945 0.001632 -0.999994
vn -0.002945 0.001632 -0.999994
vn -0.002945 0.001632 -0.999994
vn -0.002945 0.001632 -0.999994
vn -0.002945 0.001632 -0.999994
vn 0.017909 -0.877832 0.478634
vn 0.017909 -0.877832 0.478634
vn -0.270622 -0.875455 0.400428
vn 0.017909 -0.877832 0.478634
vn -0.270622 -0.875455 0.400428
vn -0.270622 -0.875455 0.400428
f 22/1/1 5/2/2 63/3/3
f 22/4/4 63/5/5 27/6/6
f 54/7/7 53/8/8 51/9/9
f 54/10/10 51/11/11 55/12/12
f 7/13/13 4/14/14 1/15/15
f 7/16/16 1/17/17 6/18/18
f 3/19/19 2/20/20 4/21/21
f 3/22/22 4/23/23 7/24/24
f 53/25/25 54/26/26 38/27/27
f 53/28/28 38/29/29 39/30/30
f 53/31/31 39/32/32 43/33/33
f 53/34/34 43/35/35 42/36/36
f 4/37/37 12/38/38 13/39/39
f 4/40/40 13/41/41 14/42/42
f 4/43/43 14/44/44 1/45/45
f 66/46/46 15/47/47 14/48/48
f 13/49/49 58/50/50 59/51/51
f 13/52/52 59/53/53 14/54/54
f 6/55/55 5/56/56 22/57/57
f 6/58/58 22/59/59 62/60/60
f 59/61/61 49/62/62 50/63/63
f 59/64/64 50/65/65 60/66/66
f 59/67/67 60/68/68 61/69/69
f 59/70/70 61/71/71 14/72/72
f 12/73/73 57/74/74 58/75/75
f 12/76/76 58/77/77 13/78/78
f 63/79/79 5/80/80 1/81/81
f 63/82/82 1/83/83 14/84/84
f 63/85/85 14/86/86 15/87/87
f 6/88/88 10/89/89 11/90/90
f 6/91/91 11/92/92 7/93/93
f 2/94/94 54/95/95 55/96/96
f 2/97/97 55/98/98 56/99/99
f 9/100/100 10/101/101 6/102/102
f 9/103/103 6/104/104 62/105/105
f 8/106/106 3/107/107 7/108/108
f 8/109/109 7/110/110 11/111/111
f 42/112/112 44/113/113 37/114/114
f 42/115/115 37/116/116 50/117/117
f 42/118/118 50/119/119 53/120/120
f 4/121/121 2/122/122 12/123/123
f 49/124/124 51/125/125 53/126/126
f 49/127/127 53/128/128 50/129/129
f 14/130/130 61/131/131 66/132/132
f 8/133/133 35/134/134 33/135/135
f 33/136/136 36/137/137 3/138/138
f 33/139/139 3/140/140 8/141/141
f 32/142/142 33/143/143 35/144/144
f 32/145/145 35/146/146 34/147/147
f 31/148/148 28/149/149 29/150/150
f 31/151/151 29/152/152 67/153/153
f 31/154/154 67/155/155 22/156/156
f 63/157/157 15/158/158 30/159/159
f 63/160/160 30/161/161 65/162/162
f 54/163/163 2/164/164 38/165/165
f 29/166/166 28/167/167 23/168/168
f 29/169/169 23/170/170 24/171/171
f 67/172/172 29/173/173 24/174/174
f 67/175/175 24/176/176 17/177/177
f 19/178/178 21/179/179 20/180/180
f 19/181/181 20/182/182 18/183/183
f 28/184/184 16/185/185 36/186/186
f 28/187/187 36/188/188 33/189/189
f 65/190/190 30/191/191 64/192/192
f 65/193/193 64/194/194 19/195/195
f 25/196/196 17/197/197 24/198/198
f 25/199/199 24/200/200 23/201/201
f 25/202/202 23/203/203 26/204/204
f 40/205/205 37/206/206 44/207/207
f 40/208/208 44/209/209 52/210/210
f 40/211/211 52/212/212 41/213/213
f 31/214/214 22/215/215 25/216/216
f 31/217/217 25/218/218 26/219/219
f 26/220/220 64/221/221 30/222/222
f 26/223/223 30/224/224 31/225/225
f 32/226/226 23/227/227 28/228/228
f 32/229/229 28/230/230 33/231/231
f 3/232/232 36/233/233 39/234/234
f 3/235/235 39/236/236 38/237/237
f 3/238/238 38/239/239 2/240/240
f 41/241/241 52/242/242 43/243/243
f 41/244/244 43/245/245 39/246/246
f 41/247/247 39/248/248 36/249/249
f 41/250/250 36/251/251 16/252/252
f 44/253/253 45/254/254 48/255/255
f 44/256/256 48/257/257 52/258/258
f 45/259/259 44/260/260 42/261/261
f 45/262/262 42/263/263 46/264/264
f 46/265/265 42/266/266 43/267/267
f 46/268/268 43/269/269 47/270/270
f 52/271/271 48/272/272 47/273/273
f 52/274/274 47/275/275 43/276/276
f 6/277/277 1/278/278 5/279/279
f 40/280/280 60/281/281 50/282/282
f 40/283/283 50/284/284 37/285/285
f 57/286/286 12/287/287 2/288/288
f 57/289/289 2/290/290 56/291/291
