v 4.428841 -0.595052 3.492253
v 2.768026 -1.190103 3.492253
v 3.875236 -1.190103 3.492253
v -3.875235 1.190103 -4.428842
v 4.428841 0.595052 3.492253
v 2.214420 0.595052 3.492253
v -2.768025 1.190103 -4.428841
v 2.214420 -0.595052 3.492253
v -2.214420 0.595052 -4.428841
v 3.875236 1.190103 -4.428841
v 2.768026 1.190103 -4.428841
v -4.428840 -0.595052 -4.428842
v 4.428841 0.595052 -4.428841
v 4.428841 -0.595052 -4.428841
v -3.875235 -1.190103 -4.428842
v 2.214420 0.595052 -4.428841
v 2.214420 -0.595052 -4.428841
v -4.428840 0.595052 -4.428842
v 3.875236 -1.190103 -4.428841
v 2.768026 -1.190103 -4.428841
v -2.768025 -1.190103 -4.428841
v 3.875236 1.190103 3.492253
v 2.768026 1.190103 3.492253
v -2.214420 -0.595052 -4.428841
v -4.428842 -0.595052 3.492252
v -2.768026 -1.190103 3.492253
v -3.875237 -1.190103 3.492252
v -2.768026 1.190103 3.492253
v -4.428842 0.595052 3.492252
v -2.214421 0.595052 3.492253
v -3.875237 1.190103 3.492252
v -2.214421 -0.595052 3.492253
v 3.002754 0.685500 3.492253
v 3.640507 0.685500 3.492253
v 3.959381 0.342750 3.492253
v 3.959381 -0.342750 3.492253
v 3.640507 -0.685500 3.492253
v 2.683877 0.342750 3.492253
v 3.002754 -0.685500 3.492253
v 2.683877 -0.342750 3.492253
v -3.640512 -0.685500 3.492247
v -3.002759 -0.685500 3.492247
v -3.640512 0.685500 3.492247
v -3.002759 0.685500 3.492247
v -2.683882 -0.342750 3.492247
v -2.683882 0.342750 3.492247
v -3.959386 0.342750 3.492247
v -3.959386 -0.342750 3.492247
v -2.683882 0.342750 4.208293
v -3.002759 0.685500 4.208293
v -2.683882 -0.342750 4.208293
v -3.002759 -0.685500 4.208293
v -3.640512 -0.685500 4.208292
v -3.959386 -0.342750 4.208292
v -3.959386 0.342750 4.208292
v -3.640512 0.685500 4.208292
v 3.640507 -0.685500 4.208299
v 3.959381 -0.342750 4.208299
v 3.002754 -0.685500 4.208299
v 2.683877 -0.342750 4.208299
v 2.683877 0.342750 4.208299
v 3.002754 0.685500 4.208299
v 3.640507 0.685500 4.208299
v 3.959381 0.342750 4.208299
v 3.880302 -1.200995 4.208299
v 4.438968 -0.600498 4.208299
v 2.762958 -1.200995 4.208299
v 2.204287 -0.600498 4.208299
v 2.204287 0.600498 4.208299
v 2.762958 1.200995 4.208299
v 3.880302 1.200995 4.208299
v 4.438968 0.600498 4.208299
v -2.204285 0.600498 4.208292
v -2.762958 1.200995 4.208292
v -2.204285 -0.600498 4.208292
v -2.762958 -1.200995 4.208292
v -3.880301 -1.200995 4.208292
v -4.438969 -0.600498 4.208292
v -4.438969 0.600498 4.208292
v -3.880301 1.200995 4.208292
v -2.204285 0.600498 6.973102
v -2.762958 1.200995 6.973102
v -2.204285 -0.600498 6.973102
v -2.762958 -1.200995 6.973102
v -3.880301 -1.200995 6.973101
v -4.438969 -0.600498 6.973101
v -4.438969 0.600498 6.973101
v -3.880301 1.200995 6.973101
v 3.880302 -1.200995 6.973108
v 4.438968 -0.600498 6.973108
v 2.762958 -1.200995 6.973108
v 2.204287 -0.600498 6.973108
v 2.204287 0.600498 6.973108
v 2.762958 1.200995 6.973108
v 3.880302 1.200995 6.973108
v 4.438968 0.600498 6.973108
v 3.575266 -0.545252 8.483444
v 3.828901 -0.272626 8.483444
v 3.067993 -0.545252 8.483444
v 2.814355 -0.272626 8.483444
v 2.814355 0.272626 8.483444
v 3.067993 0.545252 8.483444
v 3.575266 0.545252 8.483444
v 3.828901 0.272626 8.483444
v -2.814351 0.272626 8.483427
v -3.067990 0.545252 8.483427
v -2.814351 -0.272626 8.483427
v -3.067990 -0.545252 8.483427
v -3.575262 -0.545252 8.483427
v -3.828898 -0.272626 8.483427
v -3.828898 0.272626 8.483427
v -3.575262 0.545252 8.483427
vt 0.000000 0.000000
vt 0.000000 0.000000
vt 0.000000 0.000000
vt 0.000000 0.000000
vt 0.000000 0.000000
vt 0.000000 0.000000
vt 0.000000 0.000000
vt 0.000000 0.000000
vt 0.000000 0.000000
vt 0.000000 0.000000
vt 0.000000 0.000000
vt 0.000000 0.000000
vt 0.000000 0.000000
vt 0.000000 0.000000
vt 0.000000 0.000000
vt 0.000000 0.000000
vt 0.000000 0.000000
vt 0.000000 0.000000
vt 0.000000 0.000000
vt 0.000000 0.000000
vt 0.000000 0.000000
vt 0.000000 0.000000
vt 0.000000 0.000000
vt 0.000000 0.000000
vt 0.000000 0.000000
vt 0.000000 0.000000
vt 0.000000 0.000000
vt 0.000000 0.000000
vt 0.000000 0.000000
vt 0.000000 0.000000
vt 0.000000 0.000000
vt 0.000000 0.000000
vt 0.000000 0.000000
vt 0.000000 0.000000
vt 0.000000 0.000000
vt 0.000000 0.000000
vt 0.000000 0.000000
vt 0.000000 0.000000
vt 0.000000 0.000000
vt 0.000000 0.000000
vt 0.000000 0.000000
vt 0.000000 0.000000
vt 0.000000 0.000000
vt 0.000000 0.000000
vt 0.000000 0.000000
vt 0.000000 0.000000
vt 0.000000 0.000000
vt 0.000000 0.000000
vt 0.000000 0.000000
vt 0.000000 0.000000
vt 0.000000 0.000000
vt 0.000000 0.000000
vt 0.000000 0.000000
vt 0.000000 0.000000
vt 0.000000 0.000000
vt 0.000000 0.000000
vt 0.000000 0.000000
vt 0.000000 0.000000
vt 0.000000 0.000000
vt 0.000000 0.000000
vt 0.000000 0.000000
vt 0.000000 0.000000
vt 0.000000 0.000000
vt 0.000000 0.000000
vt 0.000000 0.000000
vt 0.000000 0.000000
vt 0.000000 0.000000
vt 0.000000 0.000000
vt 0.000000 0.000000
vt 0.000000 0.000000
vt 0.000000 0.000000
vt 0.000000 0.000000
vt 0.000000 0.000000
vt 0.000000 0.000000
vt 0.000000 0.000000
vt 0.000000 0.000000
vt 0.000000 0.000000
vt 0.000000 0.000000
vt 0.000000 0.000000
vt 0.000000 0.000000
vt 0.000000 0.000000
vt 0.000000 0.000000
vt 0.000000 0.000000
vt 0.000000 0.000000
vt 0.000000 0.000000
vt 0.000000 0.000000
vt 0.000000 0.000000
vt 0.000000 0.000000
vt 0.000000 0.000000
vt 0.000000 0.000000
vt 0.000000 0.000000
vt 0.000000 0.000000
vt 0.000000 0.000000
vt 0.000000 0.000000
vt 0.000000 0.000000
vt 0.000000 0.000000
vt 0.000000 0.000000
vt 0.000000 0.000000
vt 0.000000 0.000000
vt 0.000000 0.000000
vt 0.000000 0.000000
vt 0.000000 0.000000
vt 0.000000 0.000000
vt 0.000000 0.000000
vt 0.000000 0.000000
vt 0.000000 0.000000
vt 0.000000 0.000000
vt 0.000000 0.000000
vt 0.000000 0.000000
vt 0.000000 0.000000
vt 0.000000 0.000000
vt 0.000000 0.000000
vt 0.000000 0.000000
vt 0.000000 0.000000
vt 0.000000 0.000000
vt 0.000000 0.000000
vt 0.000000 0.000000
vt 0.000000 0.000000
vt 0.000000 0.000000
vt 0.000000 0.000000
vt 0.000000 0.000000
vt 0.000000 0.000000
vt 0.000000 0.000000
vt 0.000000 0.000000
vt 0.000000 0.000000
vt 0.000000 0.000000
vt 0.000000 0.000000
vt 0.000000 0.000000
vt 0.000000 0.000000
vt 0.000000 0.000000
vt 0.000000 0.000000
vt 0.000000 0.000000
vt 0.000000 0.000000
vt 0.000000 0.000000
vt 0.000000 0.000000
vt 0.000000 0.000000
vt 0.000000 0.000000
vt 0.000000 0.000000
vt 0.000000 0.000000
vt 0.000000 0.000000
vt 0.000000 0.000000
vt 0.000000 0.000000
vt 0.000000 0.000000
vt 0.000000 0.000000
vt 0.000000 0.000000
vt 0.000000 0.000000
vt 0.000000 0.000000
vt 0.000000 0.000000
vt 0.000000 0.000000
vt 0.000000 0.000000
vt 0.000000 0.000000
vt 0.000000 0.000000
vt 0.000000 0.000000
vt 0.000000 0.000000
vt 0.000000 0.000000
vt 0.000000 0.000000
vt 0.000000 0.000000
vt 0.000000 0.000000
vt 0.000000 0.000000
vt 0.000000 0.000000
vt 0.000000 0.000000
vt 0.000000 0.000000
vt 0.000000 0.000000
vt 0.000000 0.000000
vt 0.000000 0.000000
vt 0.000000 0.000000
vt 0.000000 0.000000
vt 0.000000 0.000000
vt 0.000000 0.000000
vt 0.000000 0.000000
vt 0.000000 0.000000
vt 0.000000 0.000000
vt 0.000000 0.000000
vt 0.000000 0.000000
vt 0.000000 0.000000
vt 0.000000 0.000000
vt 0.000000 0.000000
vt 0.000000 0.000000
vt 0.000000 0.000000
vt 0.000000 0.000000
vt 0.000000 0.000000
vt 0.000000 0.000000
vt 0.000000 0.000000
vt 0.000000 0.000000
vt 0.000000 0.000000
vt 0.000000 0.000000
vt 0.000000 0.000000
vt 0.000000 0.000000
vt 0.000000 0.000000
vt 0.000000 0.000000
vt 0.000000 0.000000
vt 0.000000 0.000000
vt 0.000000 0.000000
vt 0.000000 0.000000
vt 0.000000 0.000000
vt 0.000000 0.000000
vt 0.000000 0.000000
vt 0.000000 0.000000
vt 0.000000 0.000000
vt 0.000000 0.000000
vt 0.000000 0.000000
vt 0.000000 0.000000
vt 0.000000 0.000000
vt 0.000000 0.000000
vt 0.000000 0.000000
vt 0.000000 0.000000
vt 0.000000 0.000000
vt 0.000000 0.000000
vt 0.000000 0.000000
vt 0.000000 0.000000
vt 0.000000 0.000000
vt 0.000000 0.000000
vt 0.000000 0.000000
vt 0.000000 0.000000
vt 0.000000 0.000000
vt 0.000000 0.000000
vt 0.000000 0.000000
vt 0.000000 0.000000
vt 0.000000 0.000000
vt 0.000000 0.000000
vt 0.000000 0.000000
vt 0.000000 0.000000
vt 0.000000 0.000000
vt 0.000000 0.000000
vt 0.000000 0.000000
vt 0.000000 0.000000
vt 0.000000 0.000000
vt 0.000000 0.000000
vt 0.000000 0.000000
vt 0.000000 0.000000
vt 0.000000 0.000000
vt 0.000000 0.000000
vt 0.000000 0.000000
vt 0.000000 0.000000
vt 0.000000 0.000000
vt 0.000000 0.000000
vt 0.000000 0.000000
vt 0.000000 0.000000
vt 0.000000 0.000000
vt 0.000000 0.000000
vt 0.000000 0.000000
vt 0.000000 0.000000
vt 0.000000 0.000000
vt 0.000000 0.000000
vt 0.000000 0.000000
vt 0.000000 0.000000
vt 0.000000 0.000000
vt 0.000000 0.000000
vt 0.000000 0.000000
vt 0.000000 0.000000
vt 0.000000 0.000000
vt 0.000000 0.000000
vt 0.000000 0.000000
vt 0.000000 0.000000
vt 0.000000 0.000000
vt 0.000000 0.000000
vt 0.000000 0.000000
vt 0.000000 0.000000
vt 0.000000 0.000000
vt 0.000000 0.000000
vt 0.000000 0.000000
vt 0.000000 0.000000
vt 0.000000 0.000000
vt 0.000000 0.000000
vt 0.000000 0.000000
vt 0.000000 0.000000
vt 0.000000 0.000000
vt 0.000000 0.000000
vt 0.000000 0.000000
vt 0.000000 0.000000
vt 0.000000 0.000000
vt 0.000000 0.000000
vt 0.000000 0.000000
vt 0.000000 0.000000
vt 0.000000 0.000000
vt 0.000000 0.000000
vt 0.000000 0.000000
vt 0.000000 0.000000
vt 0.000000 0.000000
vt 0.000000 0.000000
vt 0.000000 0.000000
vt 0.000000 0.000000
vt 0.000000 0.000000
vt 0.000000 0.000000
vt 0.000000 0.000000
vt 0.000000 0.000000
vt 0.000000 0.000000
vt 0.000000 0.000000
vt 0.000000 0.000000
vt 0.000000 0.000000
vt 0.000000 0.000000
vt 0.000000 0.000000
vt 0.000000 0.000000
vt 0.000000 0.000000
vt 0.000000 0.000000
vt 0.000000 0.000000
vt 0.000000 0.000000
vt 0.000000 0.000000
vt 0.000000 0.000000
vt 0.000000 0.000000
vt 0.000000 0.000000
vt 0.000000 0.000000
vt 0.000000 0.000000
vt 0.000000 0.000000
vt 0.000000 0.000000
vt 0.000000 0.000000
vt 0.000000 0.000000
vt 0.000000 0.000000
vt 0.000000 0.000000
vt 0.000000 0.000000
vt 0.000000 0.000000
vt 0.000000 0.000000
vt 0.000000 0.000000
vt 0.000000 0.000000
vt 0.000000 0.000000
vt 0.000000 0.000000
vt 0.000000 0.000000
vt 0.000000 0.000000
vt 0.000000 0.000000
vt 0.000000 0.000000
vt 0.000000 0.000000
vt 0.000000 0.000000
vt 0.000000 0.000000
vt 0.000000 0.000000
vt 0.000000 0.000000
vt 0.000000 0.000000
vt 0.000000 0.000000
vt 0.000000 0.000000
vt 0.000000 0.000000
vt 0.000000 0.000000
vt 0.000000 0.000000
vt 0.000000 0.000000
vt 0.000000 0.000000
vt 0.000000 0.000000
vt 0.000000 0.000000
vt 0.000000 0.000000
vt 0.000000 0.000000
vt 0.000000 0.000000
vt 0.000000 0.000000
vt 0.000000 0.000000
vt 0.000000 0.000000
vt 0.000000 0.000000
vt 0.000000 0.000000
vt 0.000000 0.000000
vt 0.000000 0.000000
vt 0.000000 0.000000
vt 0.000000 0.000000
vt 0.000000 0.000000
vt 0.000000 0.000000
vt 0.000000 0.000000
vt 0.000000 0.000000
vt 0.000000 0.000000
vt 0.000000 0.000000
vt 0.000000 0.000000
vt 0.000000 0.000000
vt 0.000000 0.000000
vt 0.000000 0.000000
vt 0.000000 0.000000
vt 0.000000 0.000000
vt 0.000000 0.000000
vt 0.000000 0.000000
vt 0.000000 0.000000
vt 0.000000 0.000000
vt 0.000000 0.000000
vt 0.000000 0.000000
vt 0.000000 0.000000
vt 0.000000 0.000000
vt 0.000000 0.000000
vt 0.000000 0.000000
vt 0.000000 0.000000
vt 0.000000 0.000000
vt 0.000000 0.000000
vt 0.000000 0.000000
vt 0.000000 0.000000
vt 0.000000 0.000000
vt 0.000000 0.000000
vt 0.000000 0.000000
vt 0.000000 0.000000
vt 0.000000 0.000000
vt 0.000000 0.000000
vt 0.000000 0.000000
vt 0.000000 0.000000
vt 0.000000 0.000000
vt 0.000000 0.000000
vt 0.000000 0.000000
vt 0.000000 0.000000
vt 0.000000 0.000000
vt 0.000000 0.000000
vt 0.000000 0.000000
vt 0.000000 0.000000
vt 0.000000 0.000000
vt 0.000000 0.000000
vt 0.000000 0.000000
vt 0.000000 0.000000
vt 0.000000 0.000000
vt 0.000000 0.000000
vt 0.000000 0.000000
vt 0.000000 0.000000
vt 0.000000 0.000000
vt 0.000000 0.000000
vt 0.000000 0.000000
vt 0.000000 0.000000
vt 0.000000 0.000000
vt 0.000000 0.000000
vt 0.000000 0.000000
vt 0.000000 0.000000
vt 0.000000 0.000000
vt 0.000000 0.000000
vt 0.000000 0.000000
vt 0.000000 0.000000
vt 0.000000 0.000000
vt 0.000000 0.000000
vt 0.000000 0.000000
vt 0.000000 0.000000
vt 0.000000 0.000000
vt 0.000000 0.000000
vt 0.000000 0.000000
vt 0.000000 0.000000
vt 0.000000 0.000000
vt 0.000000 0.000000
vt 0.000000 0.000000
vt 0.000000 0.000000
vt 0.000000 0.000000
vt 0.000000 0.000000
vt 0.000000 0.000000
vt 0.000000 0.000000
vt 0.000000 0.000000
vt 0.000000 0.000000
vt 0.000000 0.000000
vt 0.000000 0.000000
vt 0.000000 0.000000
vt 0.000000 0.000000
vt 0.000000 0.000000
vt 0.000000 0.000000
vt 0.000000 0.000000
vt 0.000000 0.000000
vt 0.000000 0.000000
vt 0.000000 0.000000
vt 0.000000 0.000000
vt 0.000000 0.000000
vt 0.000000 0.000000
vt 0.000000 0.000000
vt 0.000000 0.000000
vt 0.000000 0.000000
vt 0.000000 0.000000
vt 0.000000 0.000000
vt 0.000000 0.000000
vt 0.000000 0.000000
vt 0.000000 0.000000
vt 0.000000 0.000000
vt 0.000000 0.000000
vt 0.000000 0.000000
vt 0.000000 0.000000
vt 0.000000 0.000000
vt 0.000000 0.000000
vt 0.000000 0.000000
vt 0.000000 0.000000
vt 0.000000 0.000000
vt 0.000000 0.000000
vt 0.000000 0.000000
vt 0.000000 0.000000
vt 0.000000 0.000000
vt 0.000000 0.000000
vt 0.000000 0.000000
vt 0.000000 0.000000
vt 0.000000 0.000000
vt 0.000000 0.000000
vt 0.000000 0.000000
vt 0.000000 0.000000
vt 0.000000 0.000000
vt 0.000000 0.000000
vt 0.000000 0.000000
vt 0.000000 0.000000
vt 0.000000 0.000000
vt 0.000000 0.000000
vt 0.000000 0.000000
vt 0.000000 0.000000
vt 0.000000 0.000000
vt 0.000000 0.000000
vt 0.000000 0.000000
vt 0.000000 0.000000
vt 0.000000 0.000000
vt 0.000000 0.000000
vt 0.000000 0.000000
vt 0.000000 0.000000
vt 0.000000 0.000000
vt 0.000000 0.000000
vt 0.000000 0.000000
vt 0.000000 0.000000
vt 0.000000 0.000000
vt 0.000000 0.000000
vt 0.000000 0.000000
vt 0.000000 0.000000
vt 0.000000 0.000000
vt 0.000000 0.000000
vt 0.000000 0.000000
vt 0.000000 0.000000
vt 0.000000 0.000000
vt 0.000000 0.000000
vt 0.000000 0.000000
vt 0.000000 0.000000
vt 0.000000 0.000000
vt 0.000000 0.000000
vt 0.000000 0.000000
vt 0.000000 0.000000
vt 0.000000 0.000000
vt 0.000000 0.000000
vt 0.000000 0.000000
vt 0.000000 0.000000
vt 0.000000 0.000000
vt 0.000000 0.000000
vt 0.000000 0.000000
vt 0.000000 0.000000
vt 0.000000 0.000000
vt 0.000000 0.000000
vt 0.000000 0.000000
vt 0.000000 0.000000
vt 0.000000 0.000000
vt 0.000000 0.000000
vt 0.000000 0.000000
vt 0.000000 0.000000
vt 0.000000 0.000000
vt 0.000000 0.000000
vt 0.000000 0.000000
vt 0.000000 0.000000
vt 0.000000 0.000000
vt 0.000000 0.000000
vt 0.000000 0.000000
vt 0.000000 0.000000
vt 0.000000 0.000000
vt 0.000000 0.000000
vt 0.000000 0.000000
vt 0.000000 0.000000
vt 0.000000 0.000000
vt 0.000000 0.000000
vt 0.000000 0.000000
vt 0.000000 0.000000
vt 0.000000 0.000000
vt 0.000000 0.000000
vt 0.000000 0.000000
vt 0.000000 0.000000
vt 0.000000 0.000000
vt 0.000000 0.000000
vt 0.000000 0.000000
vt 0.000000 0.000000
vt 0.000000 0.000000
vt 0.000000 0.000000
vt 0.000000 0.000000
vt 0.000000 0.000000
vt 0.000000 0.000000
vt 0.000000 0.000000
vt 0.000000 0.000000
vt 0.000000 0.000000
vt 0.000000 0.000000
vt 0.000000 0.000000
vt 0.000000 0.000000
vt 0.000000 0.000000
vt 0.000000 0.000000
vt 0.000000 0.000000
vt 0.000000 0.000000
vt 0.000000 0.000000
vt 0.000000 0.000000
vt 0.000000 0.000000
vt 0.000000 0.000000
vt 0.000000 0.000000
vt 0.000000 0.000000
vt 0.000000 0.000000
vt 0.000000 0.000000
vt 0.000000 0.000000
vt 0.000000 0.000000
vt 0.000000 0.000000
vt 0.000000 0.000000
vt 0.000000 0.000000
vt 0.000000 0.000000
vt 0.000000 0.000000
vt 0.000000 0.000000
vt 0.000000 0.000000
vt 0.000000 0.000000
vt 0.000000 0.000000
vt 0.000000 0.000000
vt 0.000000 0.000000
vt 0.000000 0.000000
vt 0.000000 0.000000
vt 0.000000 0.000000
vt 0.000000 0.000000
vt 0.000000 0.000000
vt 0.000000 0.000000
vt 0.000000 0.000000
vt 0.000000 0.000000
vt 0.000000 0.000000
vt 0.000000 0.000000
vt 0.000000 0.000000
vt 0.000000 0.000000
vt 0.000000 0.000000
vt 0.000000 0.000000
vt 0.000000 0.000000
vt 0.000000 0.000000
vt 0.000000 0.000000
vt 0.000000 0.000000
vt 0.000000 0.000000
vt 0.000000 0.000000
vt 0.000000 0.000000
vt 0.000000 0.000000
vt 0.000000 0.000000
vt 0.000000 0.000000
vt 0.000000 0.000000
vt 0.000000 0.000000
vt 0.000000 0.000000
vt 0.000000 0.000000
vt 0.000000 0.000000
vt 0.000000 0.000000
vt 0.000000 0.000000
vt 0.000000 0.000000
vt 0.000000 0.000000
vt 0.000000 0.000000
vt 0.000000 0.000000
vt 0.000000 0.000000
vt 0.000000 0.000000
vt 0.000000 0.000000
vt 0.000000 0.000000
vt 0.000000 0.000000
vt 0.000000 0.000000
vt 0.000000 0.000000
vt 0.000000 0.000000
vt 0.000000 0.000000
vt 0.000000 0.000000
vt 0.000000 0.000000
vt 0.000000 0.000000
vt 0.000000 0.000000
vt 0.000000 0.000000
vt 0.000000 0.000000
vt 0.000000 0.000000
vt 0.000000 0.000000
vt 0.000000 0.000000
vt 0.000000 0.000000
vt 0.000000 0.000000
vt 0.000000 0.000000
vt 0.000000 0.000000
vt 0.000000 0.000000
vt 0.000000 0.000000
vt 0.000000 0.000000
vt 0.000000 0.000000
vt 0.000000 0.000000
vt 0.000000 0.000000
vt 0.000000 0.000000
vt 0.000000 0.000000
vt 0.000000 0.000000
vt 0.000000 0.000000
vn -0.930630 0.365961 0.000000
vn -0.930630 -0.365961 0.000000
vn -0.930630 -0.365961 0.000000
vn -0.930630 0.365961 0.000000
vn -0.930630 -0.365961 0.000000
vn -0.930630 0.365961 0.000000
vn -0.399281 -0.916829 0.000000
vn -0.930630 -0.365961 0.000000
vn -0.930630 -0.365961 0.000000
vn -0.399281 -0.916829 0.000000
vn -0.930630 -0.365961 0.000000
vn -0.399281 -0.916829 0.000000
vn 0.399281 -0.916829 0.000000
vn -0.399281 -0.916829 0.000000
vn -0.399281 -0.916829 0.000000
vn 0.399281 -0.916829 0.000000
vn -0.399281 -0.916829 0.000000
vn 0.399281 -0.916829 0.000000
vn -0.399281 0.916829 0.000000
vn -0.930630 0.365961 0.000000
vn -0.930630 0.365961 0.000000
vn -0.399281 0.916829 0.000000
vn -0.930630 0.365961 0.000000
vn -0.399281 0.916829 0.000000
vn 0.930630 -0.365961 0.000000
vn 0.399281 -0.916829 0.000000
vn 0.399281 -0.916829 0.000000
vn 0.930630 -0.365961 0.000000
vn 0.399281 -0.916829 0.000000
vn 0.930630 -0.365961 0.000000
vn 0.930630 -0.365961 0.000000
vn 0.930630 0.365961 0.000000
vn 0.930630 0.365961 0.000000
vn 0.930630 -0.365961 0.000000
vn 0.930630 0.365961 0.000000
vn 0.930630 -0.365961 0.000000
vn 0.000000 0.000000 -1.000000
vn 0.000000 0.000000 -1.000000
vn 0.000000 0.000000 -1.000000
vn 0.000000 0.000000 -1.000000
vn 0.000000 0.000000 -1.000000
vn 0.000000 0.000000 -1.000000
vn 0.000000 0.000000 -1.000000
vn 0.000000 0.000000 -1.000000
vn 0.000000 0.000000 -1.000000
vn 0.000000 0.000000 -1.000000
vn 0.000000 0.000000 -1.000000
vn 0.000000 0.000000 -1.000000
vn 0.000000 0.000000 -1.000000
vn 0.000000 0.000000 -1.000000
vn 0.000000 0.000000 -1.000000
vn 0.000000 0.000000 -1.000000
vn 0.000000 0.000000 -1.000000
vn 0.000000 0.000000 -1.000000
vn 0.000000 0.000000 1.000000
vn 0.000000 0.000000 1.000000
vn 0.000000 0.000000 1.000000
vn 0.000000 0.000000 1.000000
vn 0.000000 0.000000 1.000000
vn 0.000000 0.000000 1.000000
vn 0.000000 0.000000 1.000000
vn 0.000000 0.000000 1.000000
vn 0.000000 0.000000 1.000000
vn 0.000000 0.000000 1.000000
vn 0.000000 0.000000 1.000000
vn 0.000000 0.000000 1.000000
vn 0.000000 0.000000 1.000000
vn 0.000000 0.000000 1.000000
vn 0.000000 0.000000 1.000000
vn 0.000000 0.000000 1.000000
vn 0.000000 0.000000 1.000000
vn 0.000000 0.000000 1.000000
vn -0.399281 0.916829 0.000000
vn 0.399281 0.916829 0.000000
vn 0.399281 0.916829 0.000000
vn -0.399281 0.916829 0.000000
vn 0.399281 0.916829 0.000000
vn -0.399281 0.916829 0.000000
vn 0.399281 0.916829 0.000000
vn 0.930630 0.365961 0.000000
vn 0.930630 0.365961 0.000000
vn 0.399281 0.916829 0.000000
vn 0.930630 0.365961 0.000000
vn 0.399281 0.916829 0.000000
vn 0.930630 0.365961 0.000000
vn 0.930630 -0.365961 0.000000
vn 0.930630 -0.365961 0.000000
vn 0.930630 0.365961 0.000000
vn 0.930630 -0.365961 0.000000
vn 0.930630 0.365961 0.000000
vn 0.399281 -0.916829 0.000000
vn 0.930630 -0.365961 0.000000
vn 0.930630 -0.365961 0.000000
vn 0.399281 -0.916829 0.000000
vn 0.930630 -0.365961 0.000000
vn 0.399281 -0.916829 0.000000
vn -0.399281 -0.916829 -0.000000
vn 0.399281 -0.916829 0.000000
vn 0.399281 -0.916829 0.000000
vn -0.399281 -0.916829 -0.000000
vn 0.399281 -0.916829 0.000000
vn -0.399281 -0.916829 -0.000000
vn 0.399281 0.916829 0.000000
vn 0.930630 0.365961 0.000000
vn 0.930630 0.365961 0.000000
vn 0.399281 0.916829 0.000000
vn 0.930630 0.365961 0.000000
vn 0.399281 0.916829 0.000000
vn -0.930630 -0.365961 -0.000000
vn -0.399281 -0.916829 -0.000000
vn -0.399281 -0.916829 -0.000000
vn -0.930630 -0.365961 -0.000000
vn -0.399281 -0.916829 -0.000000
vn -0.930630 -0.365961 -0.000000
vn -0.930630 -0.365961 -0.000000
vn -0.930630 0.365961 -0.000000
vn -0.930630 0.365961 -0.000000
vn -0.930630 -0.365961 -0.000000
vn -0.930630 0.365961 -0.000000
vn -0.930630 -0.365961 -0.000000
vn 0.000000 0.000000 -1.000000
vn 0.000000 0.000000 -1.000000
vn 0.000000 0.000000 -1.000000
vn 0.000000 0.000000 -1.000000
vn 0.000000 0.000000 -1.000000
vn 0.000000 0.000000 -1.000000
vn 0.000000 0.000000 -1.000000
vn 0.000000 0.000000 -1.000000
vn 0.000000 0.000000 -1.000000
vn 0.000000 0.000000 -1.000000
vn 0.000000 0.000000 -1.000000
vn 0.000000 0.000000 -1.000000
vn 0.000000 0.000000 -1.000000
vn 0.000000 0.000000 -1.000000
vn 0.000000 0.000000 -1.000000
vn 0.000000 0.000000 -1.000000
vn 0.000000 0.000000 -1.000000
vn 0.000000 0.000000 -1.000000
vn 0.000000 0.000000 1.000000
vn 0.000000 0.000000 1.000000
vn 0.000000 0.000000 1.000000
vn 0.000000 0.000000 1.000000
vn 0.000000 0.000000 1.000000
vn 0.000000 0.000000 1.000000
vn 0.000000 0.000000 1.000000
vn 0.000000 0.000000 1.000000
vn 0.000000 0.000000 1.000000
vn 0.000000 0.000000 1.000000
vn 0.000000 0.000000 1.000000
vn 0.000000 0.000000 1.000000
vn 0.000000 0.000000 1.000000
vn 0.000000 0.000000 1.000000
vn 0.000000 0.000000 1.000000
vn 0.000000 0.000000 1.000000
vn 0.000000 0.000000 1.000000
vn 0.000000 0.000000 1.000000
vn 0.399281 0.916829 0.000000
vn -0.399281 0.916829 -0.000000
vn -0.399281 0.916829 -0.000000
vn 0.399281 0.916829 0.000000
vn -0.399281 0.916829 -0.000000
vn 0.399281 0.916829 0.000000
vn -0.399281 0.916829 -0.000000
vn -0.930630 0.365961 -0.000000
vn -0.930630 0.365961 -0.000000
vn -0.399281 0.916829 -0.000000
vn -0.930630 0.365961 -0.000000
vn -0.399281 0.916829 -0.000000
vn 0.000000 0.000000 1.000000
vn 0.000000 0.000000 1.000000
vn 0.000000 0.000000 1.000000
vn 0.000000 0.000000 1.000000
vn 0.000000 0.000000 1.000000
vn 0.000000 0.000000 1.000000
vn 0.000000 0.000000 1.000000
vn 0.000000 0.000000 1.000000
vn 0.000000 0.000000 1.000000
vn 0.000000 0.000000 1.000000
vn 0.000000 0.000000 1.000000
vn 0.000000 0.000000 1.000000
vn 0.000000 0.000000 1.000000
vn 0.000000 0.000000 1.000000
vn 0.000000 0.000000 1.000000
vn 0.000000 0.000000 1.000000
vn 0.000000 0.000000 1.000000
vn 0.000000 0.000000 1.000000
vn 0.000000 0.000000 1.000000
vn 0.000000 0.000000 1.000000
vn 0.000000 0.000000 1.000000
vn 0.000000 0.000000 1.000000
vn 0.000000 0.000000 1.000000
vn 0.000000 0.000000 1.000000
vn 0.000000 0.000000 1.000000
vn 0.000000 0.000000 1.000000
vn 0.000000 0.000000 1.000000
vn 0.000000 0.000000 1.000000
vn 0.000000 0.000000 1.000000
vn 0.000000 0.000000 1.000000
vn 0.000000 0.000000 1.000000
vn 0.000000 0.000000 1.000000
vn 0.000000 0.000000 1.000000
vn 0.000000 0.000000 1.000000
vn 0.000000 0.000000 1.000000
vn 0.000000 0.000000 1.000000
vn 0.000000 0.000000 1.000000
vn 0.000000 0.000000 1.000000
vn 0.000000 0.000000 1.000000
vn 0.000000 0.000000 1.000000
vn 0.000000 0.000000 1.000000
vn 0.000000 0.000000 1.000000
vn 0.000000 0.000000 1.000000
vn 0.000000 0.000000 1.000000
vn 0.000000 0.000000 1.000000
vn 0.000000 0.000000 1.000000
vn 0.000000 0.000000 1.000000
vn 0.000000 0.000000 1.000000
vn 0.000004 0.000009 1.000000
vn -0.000004 0.000009 1.000000
vn -0.000004 0.000009 1.000000
vn 0.000004 0.000009 1.000000
vn -0.000004 0.000009 1.000000
vn 0.000004 0.000009 1.000000
vn -0.000004 -0.000009 1.000000
vn 0.000004 -0.000009 1.000000
vn 0.000004 -0.000009 1.000000
vn -0.000004 -0.000009 1.000000
vn 0.000004 -0.000009 1.000000
vn -0.000004 -0.000009 1.000000
vn -0.000004 0.000009 1.000000
vn -0.000010 0.000004 1.000000
vn -0.000010 0.000004 1.000000
vn -0.000004 0.000009 1.000000
vn -0.000010 0.000004 1.000000
vn -0.000004 0.000009 1.000000
vn -0.000010 0.000004 1.000000
vn -0.000010 -0.000004 1.000000
vn -0.000010 -0.000004 1.000000
vn -0.000010 0.000004 1.000000
vn -0.000010 -0.000004 1.000000
vn -0.000010 0.000004 1.000000
vn 0.000010 -0.000004 1.000000
vn 0.000010 0.000004 1.000000
vn 0.000010 0.000004 1.000000
vn 0.000010 -0.000004 1.000000
vn 0.000010 0.000004 1.000000
vn 0.000010 -0.000004 1.000000
vn -0.000010 -0.000004 1.000000
vn -0.000004 -0.000009 1.000000
vn -0.000004 -0.000009 1.000000
vn -0.000010 -0.000004 1.000000
vn -0.000004 -0.000009 1.000000
vn -0.000010 -0.000004 1.000000
vn 0.000010 0.000004 1.000000
vn 0.000004 0.000009 1.000000
vn 0.000004 0.000009 1.000000
vn 0.000010 0.000004 1.000000
vn 0.000004 0.000009 1.000000
vn 0.000010 0.000004 1.000000
vn 0.000004 -0.000009 1.000000
vn 0.000010 -0.000004 1.000000
vn 0.000010 -0.000004 1.000000
vn 0.000004 -0.000009 1.000000
vn 0.000010 -0.000004 1.000000
vn 0.000004 -0.000009 1.000000
vn 0.930630 0.365962 0.000000
vn 0.399281 0.916829 0.000000
vn 0.399281 0.916829 0.000000
vn 0.930630 0.365962 0.000000
vn 0.399281 0.916829 0.000000
vn 0.930630 0.365962 0.000000
vn 0.930630 -0.365962 0.000000
vn 0.930630 0.365962 0.000000
vn 0.930630 0.365962 0.000000
vn 0.930630 -0.365962 0.000000
vn 0.930630 0.365962 0.000000
vn 0.930630 -0.365962 0.000000
vn 0.399281 -0.916829 0.000000
vn 0.930630 -0.365962 0.000000
vn 0.930630 -0.365962 0.000000
vn 0.399281 -0.916829 0.000000
vn 0.930630 -0.365962 0.000000
vn 0.399281 -0.916829 0.000000
vn -0.399283 -0.916828 0.000000
vn 0.399281 -0.916829 0.000000
vn 0.399281 -0.916829 0.000000
vn -0.399283 -0.916828 0.000000
vn 0.399281 -0.916829 0.000000
vn -0.399283 -0.916828 0.000000
vn -0.930631 -0.365960 0.000000
vn -0.399283 -0.916828 0.000000
vn -0.399283 -0.916828 0.000000
vn -0.930631 -0.365960 0.000000
vn -0.399283 -0.916828 0.000000
vn -0.930631 -0.365960 0.000000
vn -0.930631 0.365960 0.000000
vn -0.930631 -0.365960 0.000000
vn -0.930631 -0.365960 0.000000
vn -0.930631 0.365960 0.000000
vn -0.930631 -0.365960 0.000000
vn -0.930631 0.365960 0.000000
vn -0.399283 0.916828 0.000000
vn -0.930631 0.365960 0.000000
vn -0.930631 0.365960 0.000000
vn -0.399283 0.916828 0.000000
vn -0.930631 0.365960 0.000000
vn -0.399283 0.916828 0.000000
vn 0.399281 0.916829 0.000000
vn -0.399283 0.916828 0.000000
vn -0.399283 0.916828 0.000000
vn 0.399281 0.916829 0.000000
vn -0.399283 0.916828 0.000000
vn 0.399281 0.916829 0.000000
vn 0.399283 -0.916828 0.000000
vn 0.930631 -0.365959 0.000000
vn 0.930631 -0.365959 0.000000
vn 0.399283 -0.916828 0.000000
vn 0.930631 -0.365959 0.000000
vn 0.399283 -0.916828 0.000000
vn -0.399281 -0.916829 0.000000
vn 0.399283 -0.916828 0.000000
vn 0.399283 -0.916828 0.000000
vn -0.399281 -0.916829 0.000000
vn 0.399283 -0.916828 0.000000
vn -0.399281 -0.916829 0.000000
vn -0.930630 -0.365961 0.000000
vn -0.399281 -0.916829 0.000000
vn -0.399281 -0.916829 0.000000
vn -0.930630 -0.365961 0.000000
vn -0.399281 -0.916829 0.000000
vn -0.930630 -0.365961 0.000000
vn -0.930630 0.365961 0.000000
vn -0.930630 -0.365961 0.000000
vn -0.930630 -0.365961 0.000000
vn -0.930630 0.365961 0.000000
vn -0.930630 -0.365961 0.000000
vn -0.930630 0.365961 0.000000
vn -0.399281 0.916829 0.000000
vn -0.930630 0.365961 0.000000
vn -0.930630 0.365961 0.000000
vn -0.399281 0.916829 0.000000
vn -0.930630 0.365961 0.000000
vn -0.399281 0.916829 0.000000
vn 0.399283 0.916828 0.000000
vn -0.399281 0.916829 0.000000
vn -0.399281 0.916829 0.000000
vn 0.399283 0.916828 0.000000
vn -0.399281 0.916829 0.000000
vn 0.399283 0.916828 0.000000
vn 0.930631 0.365959 0.000000
vn 0.399283 0.916828 0.000000
vn 0.399283 0.916828 0.000000
vn 0.930631 0.365959 0.000000
vn 0.399283 0.916828 0.000000
vn 0.930631 0.365959 0.000000
vn 0.930631 -0.365959 0.000000
vn 0.930631 0.365959 0.000000
vn 0.930631 0.365959 0.000000
vn 0.930631 -0.365959 0.000000
vn 0.930631 0.365959 0.000000
vn 0.930631 -0.365959 0.000000
vn 0.000000 0.000000 -1.000000
vn 0.000000 0.000000 -1.000000
vn 0.000000 0.000000 -1.000000
vn 0.000000 0.000000 -1.000000
vn 0.000000 0.000000 -1.000000
vn 0.000000 0.000000 -1.000000
vn 0.000000 0.000000 -1.000000
vn 0.000000 0.000000 -1.000000
vn 0.000000 0.000000 -1.000000
vn 0.000000 0.000000 -1.000000
vn 0.000000 0.000000 -1.000000
vn 0.000000 0.000000 -1.000000
vn 0.000000 0.000000 -1.000000
vn 0.000000 0.000000 -1.000000
vn 0.000000 0.000000 -1.000000
vn 0.000000 0.000000 -1.000000
vn 0.000000 0.000000 -1.000000
vn 0.000000 0.000000 -1.000000
vn 0.000000 0.000000 -1.000000
vn 0.000000 0.000000 -1.000000
vn 0.000000 0.000000 -1.000000
vn 0.000000 0.000000 -1.000000
vn 0.000000 0.000000 -1.000000
vn 0.000000 0.000000 -1.000000
vn 0.000000 0.000000 -1.000000
vn 0.000000 0.000000 -1.000000
vn 0.000000 0.000000 -1.000000
vn 0.000000 0.000000 -1.000000
vn 0.000000 0.000000 -1.000000
vn 0.000000 0.000000 -1.000000
vn 0.000000 0.000000 -1.000000
vn 0.000000 0.000000 -1.000000
vn 0.000000 0.000000 -1.000000
vn 0.000000 0.000000 -1.000000
vn 0.000000 0.000000 -1.000000
vn 0.000000 0.000000 -1.000000
vn 0.000000 0.000000 -1.000000
vn 0.000000 0.000000 -1.000000
vn 0.000000 0.000000 -1.000000
vn 0.000000 0.000000 -1.000000
vn 0.000000 0.000000 -1.000000
vn 0.000000 0.000000 -1.000000
vn 0.000000 0.000000 -1.000000
vn 0.000000 0.000000 -1.000000
vn 0.000000 0.000000 -1.000000
vn 0.000000 0.000000 -1.000000
vn 0.000000 0.000000 -1.000000
vn 0.000000 0.000000 -1.000000
vn -0.000002 -0.000001 -1.000000
vn -0.000000 -0.000002 -1.000000
vn -0.000000 -0.000002 -1.000000
vn -0.000002 -0.000001 -1.000000
vn -0.000000 -0.000002 -1.000000
vn -0.000002 -0.000001 -1.000000
vn -0.000002 0.000001 -1.000000
vn -0.000002 -0.000001 -1.000000
vn -0.000002 -0.000001 -1.000000
vn -0.000002 0.000001 -1.000000
vn -0.000002 -0.000001 -1.000000
vn -0.000002 0.000001 -1.000000
vn -0.000000 0.000002 -1.000000
vn -0.000002 0.000001 -1.000000
vn -0.000002 0.000001 -1.000000
vn -0.000000 0.000002 -1.000000
vn -0.000002 0.000001 -1.000000
vn -0.000000 0.000002 -1.000000
vn 0.000001 0.000002 -1.000000
vn -0.000000 0.000002 -1.000000
vn -0.000000 0.000002 -1.000000
vn 0.000001 0.000002 -1.000000
vn -0.000000 0.000002 -1.000000
vn 0.000001 0.000002 -1.000000
vn 0.000002 0.000001 -1.000000
vn 0.000001 0.000002 -1.000000
vn 0.000001 0.000002 -1.000000
vn 0.000002 0.000001 -1.000000
vn 0.000001 0.000002 -1.000000
vn 0.000002 0.000001 -1.000000
vn 0.000002 -0.000001 -1.000000
vn 0.000002 0.000001 -1.000000
vn 0.000002 0.000001 -1.000000
vn 0.000002 -0.000001 -1.000000
vn 0.000002 0.000001 -1.000000
vn 0.000002 -0.000001 -1.000000
vn 0.000001 -0.000002 -1.000000
vn 0.000002 -0.000001 -1.000000
vn 0.000002 -0.000001 -1.000000
vn 0.000001 -0.000002 -1.000000
vn 0.000002 -0.000001 -1.000000
vn 0.000001 -0.000002 -1.000000
vn -0.000000 -0.000002 -1.000000
vn 0.000001 -0.000002 -1.000000
vn 0.000001 -0.000002 -1.000000
vn -0.000000 -0.000002 -1.000000
vn 0.000001 -0.000002 -1.000000
vn -0.000000 -0.000002 -1.000000
vn 0.930630 0.365962 0.000000
vn 0.399281 0.916829 0.000000
vn 0.388899 0.893872 0.223048
vn 0.930630 0.365962 0.000000
vn 0.388899 0.893872 0.223048
vn 0.909716 0.356328 0.213183
vn 0.930630 -0.365962 0.000000
vn 0.930630 0.365962 0.000000
vn 0.909716 0.356328 0.213183
vn 0.930630 -0.365962 0.000000
vn 0.909716 0.356328 0.213183
vn 0.909716 -0.356328 0.213183
vn 0.399281 -0.916829 0.000000
vn 0.930630 -0.365962 0.000000
vn 0.909716 -0.356328 0.213183
vn 0.399281 -0.916829 0.000000
vn 0.909716 -0.356328 0.213183
vn 0.388899 -0.893872 0.223048
vn -0.399282 -0.916828 0.000000
vn 0.399281 -0.916829 0.000000
vn 0.388899 -0.893872 0.223048
vn -0.399282 -0.916828 0.000000
vn 0.388899 -0.893872 0.223048
vn -0.388900 -0.893871 0.223049
vn -0.930631 -0.365960 0.000000
vn -0.399282 -0.916828 0.000000
vn -0.388900 -0.893871 0.223049
vn -0.930631 -0.365960 0.000000
vn -0.388900 -0.893871 0.223049
vn -0.909717 -0.356326 0.213184
vn -0.930631 0.365960 0.000000
vn -0.930631 -0.365960 0.000000
vn -0.909717 -0.356326 0.213184
vn -0.930631 0.365960 0.000000
vn -0.909717 -0.356326 0.213184
vn -0.909717 0.356326 0.213184
vn -0.399282 0.916828 0.000000
vn -0.930631 0.365960 0.000000
vn -0.909717 0.356326 0.213184
vn -0.399282 0.916828 0.000000
vn -0.909717 0.356326 0.213184
vn -0.388900 0.893871 0.223049
vn 0.399281 0.916829 0.000000
vn -0.399282 0.916828 0.000000
vn -0.388900 0.893871 0.223049
vn 0.399281 0.916829 0.000000
vn -0.388900 0.893871 0.223049
vn 0.388899 0.893872 0.223048
vn 0.399283 -0.916828 0.000000
vn 0.930631 -0.365959 0.000000
vn 0.909717 -0.356325 0.213182
vn 0.399283 -0.916828 0.000000
vn 0.909717 -0.356325 0.213182
vn 0.388902 -0.893871 0.223048
vn -0.399281 -0.916829 0.000000
vn 0.399283 -0.916828 0.000000
vn 0.388902 -0.893871 0.223048
vn -0.399281 -0.916829 0.000000
vn 0.388902 -0.893871 0.223048
vn -0.388899 -0.893872 0.223047
vn -0.930630 -0.365961 0.000000
vn -0.399281 -0.916829 0.000000
vn -0.388899 -0.893872 0.223047
vn -0.930630 -0.365961 0.000000
vn -0.388899 -0.893872 0.223047
vn -0.909716 -0.356327 0.213182
vn -0.930630 0.365961 0.000000
vn -0.930630 -0.365961 0.000000
vn -0.909716 -0.356327 0.213182
vn -0.930630 0.365961 0.000000
vn -0.909716 -0.356327 0.213182
vn -0.909716 0.356327 0.213182
vn -0.399281 0.916829 0.000000
vn -0.930630 0.365961 0.000000
vn -0.909716 0.356327 0.213182
vn -0.399281 0.916829 0.000000
vn -0.909716 0.356327 0.213182
vn -0.388899 0.893872 0.223047
vn 0.399283 0.916828 0.000000
vn -0.399281 0.916829 0.000000
vn -0.388899 0.893872 0.223047
vn 0.399283 0.916828 0.000000
vn -0.388899 0.893872 0.223047
vn 0.388902 0.893871 0.223048
vn 0.930631 0.365959 0.000000
vn 0.399283 0.916828 0.000000
vn 0.388902 0.893871 0.223048
vn 0.930631 0.365959 0.000000
vn 0.388902 0.893871 0.223048
vn 0.909717 0.356325 0.213182
vn 0.930631 -0.365959 0.000000
vn 0.930631 0.365959 0.000000
vn 0.909717 0.356325 0.213182
vn 0.930631 -0.365959 0.000000
vn 0.909717 0.356325 0.213182
vn 0.909717 -0.356325 0.213182
vn 0.388902 -0.893871 0.223048
vn 0.909717 -0.356325 0.213182
vn 0.847936 -0.330700 0.414296
vn 0.388902 -0.893871 0.223048
vn 0.847936 -0.330700 0.414296
vn 0.359522 -0.827235 0.431772
vn -0.388899 -0.893872 0.223047
vn 0.388902 -0.893871 0.223048
vn 0.359522 -0.827235 0.431772
vn -0.388899 -0.893872 0.223047
vn 0.359522 -0.827235 0.431772
vn -0.359520 -0.827236 0.431772
vn -0.909716 -0.356327 0.213182
vn -0.388899 -0.893872 0.223047
vn -0.359520 -0.827236 0.431772
vn -0.909716 -0.356327 0.213182
vn -0.359520 -0.827236 0.431772
vn -0.847935 -0.330703 0.414296
vn -0.909716 0.356327 0.213182
vn -0.909716 -0.356327 0.213182
vn -0.847935 -0.330703 0.414296
vn -0.909716 0.356327 0.213182
vn -0.847935 -0.330703 0.414296
vn -0.847935 0.330703 0.414296
vn -0.388899 0.893872 0.223047
vn -0.909716 0.356327 0.213182
vn -0.847935 0.330703 0.414296
vn -0.388899 0.893872 0.223047
vn -0.847935 0.330703 0.414296
vn -0.359520 0.827236 0.431772
vn 0.388902 0.893871 0.223048
vn -0.388899 0.893872 0.223047
vn -0.359520 0.827236 0.431772
vn 0.388902 0.893871 0.223048
vn -0.359520 0.827236 0.431772
vn 0.359522 0.827235 0.431772
vn 0.909717 0.356325 0.213182
vn 0.388902 0.893871 0.223048
vn 0.359522 0.827235 0.431772
vn 0.909717 0.356325 0.213182
vn 0.359522 0.827235 0.431772
vn 0.847936 0.330700 0.414296
vn 0.909717 -0.356325 0.213182
vn 0.909717 0.356325 0.213182
vn 0.847936 0.330700 0.414296
vn 0.909717 -0.356325 0.213182
vn 0.847936 0.330700 0.414296
vn 0.847936 -0.330700 0.414296
vn 0.909716 0.356328 0.213183
vn 0.388899 0.893872 0.223048
vn 0.359519 0.827235 0.431773
vn 0.909716 0.356328 0.213183
vn 0.359519 0.827235 0.431773
vn 0.847934 0.330703 0.414298
vn 0.909716 -0.356328 0.213183
vn 0.909716 0.356328 0.213183
vn 0.847934 0.330703 0.414298
vn 0.909716 -0.356328 0.213183
vn 0.847934 0.330703 0.414298
vn 0.847934 -0.330703 0.414298
vn 0.388899 -0.893872 0.223048
vn 0.909716 -0.356328 0.213183
vn 0.847934 -0.330703 0.414298
vn 0.388899 -0.893872 0.223048
vn 0.847934 -0.330703 0.414298
vn 0.359519 -0.827235 0.431773
vn -0.388900 -0.893871 0.223049
vn 0.388899 -0.893872 0.223048
vn 0.359519 -0.827235 0.431773
vn -0.388900 -0.893871 0.223049
vn 0.359519 -0.827235 0.431773
vn -0.359520 -0.827234 0.431775
vn -0.909717 -0.356326 0.213184
vn -0.388900 -0.893871 0.223049
vn -0.359520 -0.827234 0.431775
vn -0.909717 -0.356326 0.213184
vn -0.359520 -0.827234 0.431775
vn -0.847934 -0.330701 0.414300
vn -0.909717 0.356326 0.213184
vn -0.909717 -0.356326 0.213184
vn -0.847934 -0.330701 0.414300
vn -0.909717 0.356326 0.213184
vn -0.847934 -0.330701 0.414300
vn -0.847934 0.330701 0.414300
vn -0.388900 0.893871 0.223049
vn -0.909717 0.356326 0.213184
vn -0.847934 0.330701 0.414300
vn -0.388900 0.893871 0.223049
vn -0.847934 0.330701 0.414300
vn -0.359520 0.827234 0.431775
vn 0.388899 0.893872 0.223048
vn -0.388900 0.893871 0.223049
vn -0.359520 0.827234 0.431775
vn 0.388899 0.893872 0.223048
vn -0.359520 0.827234 0.431775
vn 0.359519 0.827235 0.431773
f 16/1/1 17/2/2 8/3/3
f 16/4/4 8/5/5 6/6/6
f 2/7/7 8/8/8 17/9/9
f 2/10/10 17/11/11 20/12/12
f 3/13/13 2/14/14 20/15/15
f 3/16/16 20/17/17 19/18/18
f 11/19/19 16/20/20 6/21/21
f 11/22/22 6/23/23 23/24/24
f 1/25/25 3/26/26 19/27/27
f 1/28/28 19/29/29 14/30/30
f 14/31/31 13/32/32 5/33/33
f 14/34/34 5/35/35 1/36/36
f 11/37/37 10/38/38 13/39/39
f 11/40/40 13/41/41 14/42/42
f 11/43/43 14/44/44 19/45/45
f 11/46/46 19/47/47 20/48/48
f 11/49/49 20/50/50 17/51/51
f 11/52/52 17/53/53 16/54/54
f 103/55/55 102/56/56 101/57/57
f 103/58/58 101/59/59 100/60/60
f 103/61/61 100/62/62 99/63/63
f 103/64/64 99/65/65 97/66/66
f 103/67/67 97/68/68 98/69/69
f 103/70/70 98/71/71 104/72/72
f 23/73/73 22/74/74 10/75/75
f 23/76/76 10/77/77 11/78/78
f 22/79/79 5/80/80 13/81/81
f 22/82/82 13/83/83 10/84/84
f 30/85/85 32/86/86 24/87/87
f 30/88/88 24/89/89 9/90/90
f 21/91/91 24/92/92 32/93/93
f 21/94/94 32/95/95 26/96/96
f 15/97/97 21/98/98 26/99/99
f 15/100/100 26/101/101 27/102/102
f 28/103/103 30/104/104 9/105/105
f 28/106/106 9/107/107 7/108/108
f 12/109/109 15/110/110 27/111/111
f 12/112/112 27/113/113 25/114/114
f 25/115/115 29/116/116 18/117/117
f 25/118/118 18/119/119 12/120/120
f 9/121/121 24/122/122 21/123/123
f 9/124/124 21/125/125 15/126/126
f 9/127/127 15/128/128 12/129/129
f 9/130/130 12/131/131 18/132/132
f 9/133/133 18/134/134 4/135/135
f 9/136/136 4/137/137 7/138/138
f 111/139/139 110/140/140 109/141/141
f 111/142/142 109/143/143 108/144/144
f 111/145/145 108/146/146 107/147/147
f 111/148/148 107/149/149 105/150/150
f 111/151/151 105/152/152 106/153/153
f 111/154/154 106/155/155 112/156/156
f 7/157/157 4/158/158 31/159/159
f 7/160/160 31/161/161 28/162/162
f 4/163/163 18/164/164 29/165/165
f 4/166/166 29/167/167 31/168/168
f 22/169/169 23/170/170 33/171/171
f 22/172/172 33/173/173 34/174/174
f 5/175/175 22/176/176 34/177/177
f 5/178/178 34/179/179 35/180/180
f 1/181/181 5/182/182 35/183/183
f 1/184/184 35/185/185 36/186/186
f 3/187/187 1/188/188 36/189/189
f 3/190/190 36/191/191 37/192/192
f 23/193/193 6/194/194 38/195/195
f 23/196/196 38/197/197 33/198/198
f 2/199/199 3/200/200 37/201/201
f 2/202/202 37/203/203 39/204/204
f 8/205/205 2/206/206 39/207/207
f 8/208/208 39/209/209 40/210/210
f 6/211/211 8/212/212 40/213/213
f 6/214/214 40/215/215 38/216/216
f 27/217/217 26/218/218 42/219/219
f 27/220/220 42/221/221 41/222/222
f 28/223/223 31/224/224 43/225/225
f 28/226/226 43/227/227 44/228/228
f 26/229/229 32/230/230 45/231/231
f 26/232/232 45/233/233 42/234/234
f 32/235/235 30/236/236 46/237/237
f 32/238/238 46/239/239 45/240/240
f 29/241/241 25/242/242 48/243/243
f 29/244/244 48/245/245 47/246/246
f 30/247/247 28/248/248 44/249/249
f 30/250/250 44/251/251 46/252/252
f 25/253/253 27/254/254 41/255/255
f 25/256/256 41/257/257 48/258/258
f 31/259/259 29/260/260 47/261/261
f 31/262/262 47/263/263 43/264/264
f 46/265/265 44/266/266 50/267/267
f 46/268/268 50/269/269 49/270/270
f 45/271/271 46/272/272 49/273/273
f 45/274/274 49/275/275 51/276/276
f 42/277/277 45/278/278 51/279/279
f 42/280/280 51/281/281 52/282/282
f 41/283/283 42/284/284 52/285/285
f 41/286/286 52/287/287 53/288/288
f 48/289/289 41/290/290 53/291/291
f 48/292/292 53/293/293 54/294/294
f 47/295/295 48/296/296 54/297/297
f 47/298/298 54/299/299 55/300/300
f 43/301/301 47/302/302 55/303/303
f 43/304/304 55/305/305 56/306/306
f 44/307/307 43/308/308 56/309/309
f 44/310/310 56/311/311 50/312/312
f 37/313/313 36/314/314 58/315/315
f 37/316/316 58/317/317 57/318/318
f 39/319/319 37/320/320 57/321/321
f 39/322/322 57/323/323 59/324/324
f 40/325/325 39/326/326 59/327/327
f 40/328/328 59/329/329 60/330/330
f 38/331/331 40/332/332 60/333/333
f 38/334/334 60/335/335 61/336/336
f 33/337/337 38/338/338 61/339/339
f 33/340/340 61/341/341 62/342/342
f 34/343/343 33/344/344 62/345/345
f 34/346/346 62/347/347 63/348/348
f 35/349/349 34/350/350 63/351/351
f 35/352/352 63/353/353 64/354/354
f 36/355/355 35/356/356 64/357/357
f 36/358/358 64/359/359 58/360/360
f 57/361/361 58/362/362 66/363/363
f 57/364/364 66/365/365 65/366/366
f 59/367/367 57/368/368 65/369/369
f 59/370/370 65/371/371 67/372/372
f 60/373/373 59/374/374 67/375/375
f 60/376/376 67/377/377 68/378/378
f 61/379/379 60/380/380 68/381/381
f 61/382/382 68/383/383 69/384/384
f 62/385/385 61/386/386 69/387/387
f 62/388/388 69/389/389 70/390/390
f 63/391/391 62/392/392 70/393/393
f 63/394/394 70/395/395 71/396/396
f 64/397/397 63/398/398 71/399/399
f 64/400/400 71/401/401 72/402/402
f 58/403/403 64/404/404 72/405/405
f 58/406/406 72/407/407 66/408/408
f 49/409/409 50/410/410 74/411/411
f 49/412/412 74/413/413 73/414/414
f 51/415/415 49/416/416 73/417/417
f 51/418/418 73/419/419 75/420/420
f 52/421/421 51/422/422 75/423/423
f 52/424/424 75/425/425 76/426/426
f 53/427/427 52/428/428 76/429/429
f 53/430/430 76/431/431 77/432/432
f 54/433/433 53/434/434 77/435/435
f 54/436/436 77/437/437 78/438/438
f 55/439/439 54/440/440 78/441/441
f 55/442/442 78/443/443 79/444/444
f 56/445/445 55/446/446 79/447/447
f 56/448/448 79/449/449 80/450/450
f 50/451/451 56/452/452 80/453/453
f 50/454/454 80/455/455 74/456/456
f 73/457/457 74/458/458 82/459/459
f 73/460/460 82/461/461 81/462/462
f 75/463/463 73/464/464 81/465/465
f 75/466/466 81/467/467 83/468/468
f 76/469/469 75/470/470 83/471/471
f 76/472/472 83/473/473 84/474/474
f 77/475/475 76/476/476 84/477/477
f 77/478/478 84/479/479 85/480/480
f 78/481/481 77/482/482 85/483/483
f 78/484/484 85/485/485 86/486/486
f 79/487/487 78/488/488 86/489/489
f 79/490/490 86/491/491 87/492/492
f 80/493/493 79/494/494 87/495/495
f 80/496/496 87/497/497 88/498/498
f 74/499/499 80/500/500 88/501/501
f 74/502/502 88/503/503 82/504/504
f 65/505/505 66/506/506 90/507/507
f 65/508/508 90/509/509 89/510/510
f 67/511/511 65/512/512 89/513/513
f 67/514/514 89/515/515 91/516/516
f 68/517/517 67/518/518 91/519/519
f 68/520/520 91/521/521 92/522/522
f 69/523/523 68/524/524 92/525/525
f 69/526/526 92/527/527 93/528/528
f 70/529/529 69/530/530 93/531/531
f 70/532/532 93/533/533 94/534/534
f 71/535/535 70/536/536 94/537/537
f 71/538/538 94/539/539 95/540/540
f 72/541/541 71/542/542 95/543/543
f 72/544/544 95/545/545 96/546/546
f 66/547/547 72/548/548 96/549/549
f 66/550/550 96/551/551 90/552/552
f 89/553/553 90/554/554 98/555/555
f 89/556/556 98/557/557 97/558/558
f 91/559/559 89/560/560 97/561/561
f 91/562/562 97/563/563 99/564/564
f 92/565/565 91/566/566 99/567/567
f 92/568/568 99/569/569 100/570/570
f 93/571/571 92/572/572 100/573/573
f 93/574/574 100/575/575 101/576/576
f 94/577/577 93/578/578 101/579/579
f 94/580/580 101/581/581 102/582/582
f 95/583/583 94/584/584 102/585/585
f 95/586/586 102/587/587 103/588/588
f 96/589/589 95/590/590 103/591/591
f 96/592/592 103/593/593 104/594/594
f 90/595/595 96/596/596 104/597/597
f 90/598/598 104/599/599 98/600/600
f 81/601/601 82/602/602 106/603/603
f 81/604/604 106/605/605 105/606/606
f 83/607/607 81/608/608 105/609/609
f 83/610/610 105/611/611 107/612/612
f 84/613/613 83/614/614 107/615/615
f 84/616/616 107/617/617 108/618/618
f 85/619/619 84/620/620 108/621/621
f 85/622/622 108/623/623 109/624/624
f 86/625/625 85/626/626 109/627/627
f 86/628/628 109/629/629 110/630/630
f 87/631/631 86/632/632 110/633/633
f 87/634/634 110/635/635 111/636/636
f 88/637/637 87/638/638 111/639/639
f 88/640/640 111/641/641 112/642/642
f 82/643/643 88/644/644 112/645/645
f 82/646/646 112/647/647 106/648/648
