v -2.001300 0.002514 10.018463
v -2.001300 0.002514 13.999725
v 1.979963 0.002514 10.018463
v 1.979963 0.002514 13.999725
v 1.979963 11.179278 -0.000275
v -2.001300 12.110676 -0.000275
v 1.979963 0.002514 2.504410
v -2.001300 0.002514 2.504410
v 1.979963 1.865308 -0.000275
v -2.001300 1.865308 -0.000275
v 1.979963 3.728102 10.018463
v 1.979963 1.865308 13.999725
v -2.001300 0.933911 13.999725
v -2.001300 3.495253 10.018463
v 1.979963 9.951331 5.009094
v -0.010668 9.834907 5.009095
v -2.001300 10.300606 5.009095
vt 0.814453 0.001953
vt 0.314453 0.000000
vt 0.314453 0.626953
vt 0.814453 0.001953
vt 0.314453 0.626953
vt 0.814453 0.626953
vt 0.647420 0.134269
vt 0.647420 0.012268
vt 0.360191 0.012268
vt 0.647420 0.134269
vt 0.360191 0.012268
vt 0.360191 0.256270
vt 0.998047 0.751953
vt 0.998047 0.126709
vt 0.748535 0.001953
vt 0.998047 0.751953
vt 0.748535 0.001953
vt 0.000000 0.001953
vt 0.998047 0.751953
vt 0.000000 0.001953
vt 0.000000 0.251465
vt 0.998047 0.751953
vt 0.000000 0.251465
vt 0.501953 0.626953
vt 0.798828 -0.532562
vt 0.330078 -0.412079
vt 0.330078 1.037750
vt 0.798828 -0.532562
vt 0.330078 1.037750
vt 0.798828 1.037750
vt 0.000000 0.251465
vt 0.000000 0.001953
vt 0.748535 0.001953
vt 0.000000 0.251465
vt 0.748535 0.001953
vt 0.998047 0.126709
vt 0.000000 0.251465
vt 0.998047 0.126709
vt 0.998047 0.751953
vt 0.000000 0.251465
vt 0.998047 0.751953
vt 0.501953 0.626953
vt 0.647420 0.241020
vt 0.647420 0.012268
vt 0.360191 0.012268
vt 0.647420 0.241020
vt 0.360191 0.012268
vt 0.360191 0.073268
vt 0.291952 0.073268
vt 0.291952 0.012268
vt 0.004722 0.012268
vt 0.291952 0.073268
vt 0.004722 0.012268
vt 0.004722 0.134269
vt 0.314453 0.000000
vt 0.314453 0.998047
vt 0.814453 0.001953
vt 0.564453 0.998047
vt 0.314453 0.000000
vt 0.814453 0.001953
vt 0.564453 0.998047
vt 0.814453 0.001953
vt 0.814453 0.998047
vt 0.814453 0.001953
vt 0.314453 0.000000
vt 0.314453 0.626953
vt 0.814453 0.001953
vt 0.314453 0.626953
vt 0.314453 0.000000
vt 0.564453 0.626953
vt 0.814453 0.001953
vt 0.314453 0.000000
vt 0.564453 0.626953
vt 0.314453 0.000000
vt 0.314453 0.626953
vt 0.314453 0.000000
vt 0.814453 0.001953
vt 0.314453 0.626953
vn 0.000000 -0.449014 -0.893525
vn 0.000000 -0.802411 -0.596772
vn 0.000000 -0.802411 -0.596772
vn 0.000000 -0.449014 -0.893525
vn 0.000000 -0.802411 -0.596772
vn 0.000000 -0.449014 -0.893525
vn 1.000000 0.000000 0.000000
vn 1.000000 0.000000 0.000000
vn 1.000000 0.000000 0.000000
vn 1.000000 0.000000 0.000000
vn 1.000000 0.000000 0.000000
vn 1.000000 0.000000 0.000000
vn -1.000000 0.000000 0.000000
vn -1.000000 0.000000 0.000000
vn -1.000000 0.000000 0.000000
vn -1.000000 0.000000 0.000000
vn -1.000000 0.000000 0.000000
vn -1.000000 0.000000 0.000000
vn -1.000000 0.000000 0.000000
vn -1.000000 0.000000 0.000000
vn -1.000000 0.000000 0.000000
vn -1.000000 0.000000 0.000000
vn -1.000000 0.000000 0.000000
vn -1.000000 0.000000 0.000000
vn 0.000000 0.000000 -1.000000
vn 0.000000 0.000000 -1.000000
vn 0.000000 -0.449014 -0.893525
vn 0.000000 0.000000 -1.000000
vn 0.000000 -0.449014 -0.893525
vn 0.000000 -0.449014 -0.893525
vn 1.000000 0.000000 0.000000
vn 1.000000 0.000000 0.000000
vn 1.000000 0.000000 0.000000
vn 1.000000 0.000000 0.000000
vn 1.000000 0.000000 0.000000
vn 1.000000 0.000000 0.000000
vn 1.000000 0.000000 0.000000
vn 1.000000 0.000000 0.000000
vn 1.000000 0.000000 0.000000
vn 1.000000 0.000000 0.000000
vn 1.000000 0.000000 0.000000
vn 1.000000 0.000000 0.000000
vn -1.000000 0.000000 0.000000
vn -1.000000 0.000000 0.000000
vn -1.000000 0.000000 0.000000
vn -1.000000 0.000000 0.000000
vn -1.000000 0.000000 0.000000
vn -1.000000 0.000000 0.000000
vn 0.000000 0.000000 1.000000
vn 0.000000 0.000000 1.000000
vn 0.000000 0.000000 1.000000
vn 0.000000 0.000000 1.000000
vn 0.000000 0.000000 1.000000
vn 0.000000 0.000000 1.000000
vn 0.183944 0.786268 0.589871
vn 0.017492 0.696276 0.717561
vn 0.068477 0.820482 0.567556
vn 0.068477 0.820482 0.567556
vn 0.017492 0.696276 0.717561
vn -0.099786 0.801055 0.590215
vn 0.068477 0.820482 0.567556
vn -0.099786 0.801055 0.590215
vn -0.049278 0.842557 0.536348
vn -0.099786 0.801055 0.590215
vn 0.017492 0.696276 0.717561
vn -0.128905 0.867702 0.480079
vn -0.099786 0.801055 0.590215
vn -0.128905 0.867702 0.480079
vn -0.207295 0.886084 0.414590
vn 0.068477 0.820482 0.567556
vn 0.079941 0.954324 0.287880
vn 0.214883 0.918516 0.331894
vn 0.068477 0.820482 0.567556
vn 0.214883 0.918516 0.331894
vn 0.183944 0.786268 0.589871
vn -0.049278 0.842557 0.536348
vn 0.079941 0.954324 0.287880
vn 0.068477 0.820482 0.567556
f 9/1/1 7/2/2 8/3/3
f 9/4/4 8/5/5 10/6/6
f 12/7/7 4/8/8 3/9/9
f 12/10/10 3/11/11 11/12/12
f 6/13/13 10/14/14 8/15/15
f 6/16/16 8/17/17 1/18/18
f 6/19/19 1/20/20 14/21/21
f 6/22/22 14/23/23 17/24/24
f 6/25/25 5/26/26 9/27/27
f 6/28/28 9/29/29 10/30/30
f 11/31/31 3/32/32 7/33/33
f 11/34/34 7/35/35 9/36/36
f 11/37/37 9/38/38 5/39/39
f 11/40/40 5/41/41 15/42/42
f 14/43/43 1/44/44 2/45/45
f 14/46/46 2/47/47 13/48/48
f 13/49/49 2/50/50 4/51/51
f 13/52/52 4/53/53 12/54/54
f 17/55/55 14/56/56 16/57/57
f 16/58/58 14/59/59 11/60/60
f 16/61/61 11/62/62 15/63/63
f 11/64/64 14/65/65 13/66/66
f 11/67/67 13/68/68 12/69/69
f 16/70/70 5/71/71 6/72/72
f 16/73/73 6/74/74 17/75/75
f 15/76/76 5/77/77 16/78/78
