v -2.001300 0.037312 -1.995990
v -2.001300 0.037312 1.985272
v 1.979963 0.037312 -1.995990
v 1.979963 0.037312 1.985272
v -2.001300 0.037312 -15.995990
v -2.001300 0.037312 -12.014729
v 1.979963 0.037312 -15.995990
v 1.979963 0.037312 -12.014729
v 1.979963 0.037312 4.489957
v -2.001300 0.037312 4.489956
v 1.979963 1.900106 1.985272
v -2.001300 1.900106 1.985272
v 1.979963 1.900106 -12.014729
v -2.001300 1.900106 -12.014729
v -2.001300 1.900106 -1.995990
v -2.001300 2.831503 -0.005359
v 1.979963 2.831503 -7.005359
v -2.001300 2.831503 -7.005359
v 1.979963 2.831503 -0.005359
v 1.979963 1.900106 -1.995990
vt 0.998047 0.000000
vt 0.189453 0.000000
vt 0.189453 1.000000
vt 0.998047 0.000000
vt 0.189453 1.000000
vt 1.000000 0.998047
vt 0.000000 0.126709
vt 0.000000 0.001953
vt 0.249512 0.001953
vt 0.647420 0.134269
vt 0.647420 0.012268
vt 0.360191 0.012268
vt 0.000000 0.126709
vt 0.000000 0.001953
vt 0.998047 0.001953
vt 0.000000 0.126709
vt 0.998047 0.001953
vt 0.998047 0.126709
vt 0.000000 0.126709
vt 0.998047 0.126709
vt 0.499023 0.189087
vt 0.499023 0.189087
vt 0.000000 0.126709
vt 0.000000 0.001953
vt 0.499023 0.189087
vt 0.000000 0.001953
vt 0.998047 0.001953
vt 0.499023 0.189087
vt 0.998047 0.001953
vt 0.998047 0.126709
vt 0.647420 0.012268
vt 0.360191 0.012268
vt 0.360191 0.134269
vt 0.647420 0.134269
vt 0.647420 0.012268
vt 0.360191 0.012268
vt 0.647420 0.134269
vt 0.360191 0.012268
vt 0.360191 0.134269
vt 0.647420 0.134269
vt 0.360191 0.134269
vt 0.503806 0.195269
vt 0.748535 0.001953
vt 0.998047 0.001953
vt 0.998047 0.126709
vt 0.467743 0.992180
vt 0.721039 0.990257
vt 0.720428 0.007805
vt 0.467743 0.992180
vt 0.720428 0.007805
vt 0.467743 0.007805
vt 0.189453 0.000000
vt 0.189453 1.000000
vt 1.000000 0.998047
vt 0.189453 0.000000
vt 1.000000 0.998047
vt 0.998047 0.000000
vt 0.503806 0.195269
vt 0.647420 0.134269
vt 0.647420 0.012268
vt 0.503806 0.195269
vt 0.647420 0.012268
vt 0.360191 0.012268
vt 0.503806 0.195269
vt 0.360191 0.012268
vt 0.360191 0.134269
vt 0.998047 0.000000
vt 0.189453 0.000000
vt 0.189453 1.000000
vt 0.998047 0.000000
vt 0.189453 1.000000
vt 1.000000 0.998047
vt 0.189453 0.000000
vt 0.189453 1.000000
vt 1.000000 0.998047
vt 0.189453 0.000000
vt 1.000000 0.998047
vt 0.998047 0.000000
vt 0.467743 0.007805
vt 0.467743 0.992180
vt 0.721039 0.990257
vt 0.467743 0.007805
vt 0.721039 0.990257
vt 0.720428 0.007805
vn -0.000000 1.000000 0.000000
vn 0.000000 0.952110 -0.305755
vn 0.000000 0.952110 -0.305755
vn -0.000000 1.000000 0.000000
vn 0.000000 0.952110 -0.305755
vn -0.000000 1.000000 0.000000
vn -1.000000 0.000000 -0.000000
vn -1.000000 0.000000 -0.000000
vn -1.000000 0.000000 -0.000000
vn 1.000000 0.000000 0.000000
vn 1.000000 0.000000 0.000000
vn 1.000000 0.000000 0.000000
vn 1.000000 0.000000 0.000000
vn 1.000000 0.000000 0.000000
vn 1.000000 0.000000 0.000000
vn 1.000000 0.000000 0.000000
vn 1.000000 0.000000 0.000000
vn 1.000000 0.000000 0.000000
vn 1.000000 0.000000 0.000000
vn 1.000000 0.000000 0.000000
vn 1.000000 0.000000 0.000000
vn -1.000000 0.000000 -0.000000
vn -1.000000 0.000000 -0.000000
vn -1.000000 0.000000 -0.000000
vn -1.000000 0.000000 -0.000000
vn -1.000000 0.000000 -0.000000
vn -1.000000 0.000000 -0.000000
vn -1.000000 0.000000 -0.000000
vn -1.000000 0.000000 -0.000000
vn -1.000000 0.000000 -0.000000
vn -1.000000 0.000000 -0.000000
vn -1.000000 0.000000 -0.000000
vn -1.000000 0.000000 -0.000000
vn -1.000000 0.000000 -0.000000
vn -1.000000 0.000000 -0.000000
vn -1.000000 0.000000 -0.000000
vn -1.000000 0.000000 -0.000000
vn -1.000000 0.000000 -0.000000
vn -1.000000 0.000000 -0.000000
vn -1.000000 0.000000 -0.000000
vn -1.000000 0.000000 -0.000000
vn -1.000000 0.000000 -0.000000
vn 1.000000 0.000000 0.000000
vn 1.000000 0.000000 0.000000
vn 1.000000 0.000000 0.000000
vn 0.000000 1.000000 0.000000
vn -0.000000 0.858452 0.512893
vn -0.000000 0.858452 0.512893
vn 0.000000 1.000000 0.000000
vn -0.000000 0.858452 0.512893
vn 0.000000 1.000000 0.000000
vn -0.000000 0.858452 0.512893
vn -0.000000 0.858452 0.512893
vn -0.000000 0.802411 0.596772
vn -0.000000 0.858452 0.512893
vn -0.000000 0.802411 0.596772
vn -0.000000 0.802411 0.596772
vn 1.000000 0.000000 0.000000
vn 1.000000 0.000000 0.000000
vn 1.000000 0.000000 0.000000
vn 1.000000 0.000000 0.000000
vn 1.000000 0.000000 0.000000
vn 1.000000 0.000000 0.000000
vn 1.000000 0.000000 0.000000
vn 1.000000 0.000000 0.000000
vn 1.000000 0.000000 0.000000
vn 0.000000 0.952110 -0.305755
vn 0.000000 0.905758 -0.423795
vn 0.000000 0.905758 -0.423795
vn 0.000000 0.952110 -0.305755
vn 0.000000 0.905758 -0.423795
vn 0.000000 0.952110 -0.305755
vn -0.000000 1.000000 0.000000
vn -0.000000 1.000000 0.000000
vn 0.000000 0.991959 -0.126560
vn -0.000000 1.000000 0.000000
vn 0.000000 0.991959 -0.126560
vn 0.000000 0.991959 -0.126560
vn 0.000000 0.991959 -0.126560
vn 0.000000 0.991959 -0.126560
vn 0.000000 1.000000 0.000000
vn 0.000000 0.991959 -0.126560
vn 0.000000 1.000000 0.000000
vn 0.000000 1.000000 0.000000
f 17/1/1 13/2/2 14/3/3
f 17/4/4 14/5/5 18/6/6
f 12/7/7 2/8/8 10/9/9
f 13/10/10 8/11/11 7/12/12
f 20/13/13 3/14/14 8/15/15
f 20/16/16 8/17/17 13/18/18
f 20/19/19 13/20/20 17/21/21
f 18/22/22 14/23/23 6/24/24
f 18/25/25 6/26/26 1/27/27
f 18/28/28 1/29/29 15/30/30
f 5/31/31 6/32/32 14/33/33
f 15/34/34 1/35/35 2/36/36
f 15/37/37 2/38/38 12/39/39
f 15/40/40 12/41/41 16/42/42
f 9/43/43 4/44/44 11/45/45
f 16/46/46 12/47/47 11/48/48
f 16/49/49 11/50/50 19/51/51
f 11/52/52 12/53/53 10/54/54
f 11/55/55 10/56/56 9/57/57
f 19/58/58 11/59/59 4/60/60
f 19/61/61 4/62/62 3/63/63
f 19/64/64 3/65/65 20/66/66
f 13/67/67 7/68/68 5/69/69
f 13/70/70 5/71/71 14/72/72
f 17/73/73 18/74/74 15/75/75
f 17/76/76 15/77/77 20/78/78
f 20/79/79 15/80/80 16/81/81
f 20/82/82 16/83/83 19/84/84
