v 1.000000 -9.386969 0.000000
v 1.000000 2.500000 0.000000
v 0.707107 -9.386969 -0.707107
v 0.707107 2.500000 -0.707107
v 0.000000 -9.386969 -1.000000
v 0.000000 2.500000 -1.000000
v -0.707107 -9.386969 -0.707107
v -0.707107 2.500000 -0.707107
v -1.000000 -9.386969 0.000000
v -1.000000 2.500000 0.000000
v -0.707107 -9.386969 0.707107
v -0.707107 2.500000 0.707107
v 0.000000 -9.386969 1.000000
v 0.000000 2.500000 1.000000
v 0.707107 -9.386969 0.707107
v 0.707107 2.500000 0.707107
vt 0.000000 0.000000
vt 0.000000 0.000000
vt 0.000000 0.000000
vt 0.000000 0.000000
vt 0.000000 0.000000
vt 0.000000 0.000000
vt 0.000000 0.000000
vt 0.000000 0.000000
vt 0.000000 0.000000
vt 0.000000 0.000000
vt 0.000000 0.000000
vt 0.000000 0.000000
vt 0.000000 0.000000
vt 0.000000 0.000000
vt 0.000000 0.000000
vt 0.000000 0.000000
vt 0.000000 0.000000
vt 0.000000 0.000000
vt 0.000000 0.000000
vt 0.000000 0.000000
vt 0.000000 0.000000
vt 0.000000 0.000000
vt 0.000000 0.000000
vt 0.000000 0.000000
vt 0.000000 0.000000
vt 0.000000 0.000000
vt 0.000000 0.000000
vt 0.000000 0.000000
vt 0.000000 0.000000
vt 0.000000 0.000000
vt 0.000000 0.000000
vt 0.000000 0.000000
vt 0.000000 0.000000
vt 0.000000 0.000000
vt 0.000000 0.000000
vt 0.000000 0.000000
vt 0.000000 0.000000
vt 0.000000 0.000000
vt 0.000000 0.000000
vt 0.000000 0.000000
vt 0.000000 0.000000
vt 0.000000 0.000000
vt 0.000000 0.000000
vt 0.000000 0.000000
vt 0.000000 0.000000
vt 0.000000 0.000000
vt 0.000000 0.000000
vt 0.000000 0.000000
vn -0.707107 0.000000 0.707107
vn 0.000000 0.000000 1.000000
vn 0.000000 0.000000 1.000000
vn -0.707107 0.000000 0.707107
vn 0.000000 0.000000 1.000000
vn -0.707107 0.000000 0.707107
vn 1.000000 0.000000 0.000000
vn 0.707107 0.000000 -0.707107
vn 0.707107 0.000000 -0.707107
vn 1.000000 0.000000 0.000000
vn 0.707107 0.000000 -0.707107
vn 1.000000 0.000000 0.000000
vn 0.707107 0.000000 0.707107
vn 1.000000 0.000000 0.000000
vn 1.000000 0.000000 0.000000
vn 0.707107 0.000000 0.707107
vn 1.000000 0.000000 0.000000
vn 0.707107 0.000000 0.707107
vn -1.000000 0.000000 0.000000
vn -0.707107 0.000000 0.707107
vn -0.707107 0.000000 0.707107
vn -1.000000 0.000000 0.000000
vn -0.707107 0.000000 0.707107
vn -1.000000 0.000000 0.000000
vn 0.707107 0.000000 -0.707107
vn -0.000000 0.000000 -1.000000
vn -0.000000 0.000000 -1.000000
vn 0.707107 0.000000 -0.707107
vn -0.000000 0.000000 -1.000000
vn 0.707107 0.000000 -0.707107
vn -0.707107 0.000000 -0.707107
vn -1.000000 0.000000 0.000000
vn -1.000000 0.000000 0.000000
vn -0.707107 0.000000 -0.707107
vn -1.000000 0.000000 0.000000
vn -0.707107 0.000000 -0.707107
vn 0.000000 0.000000 1.000000
vn 0.707107 0.000000 0.707107
vn 0.707107 0.000000 0.707107
vn 0.000000 0.000000 1.000000
vn 0.707107 0.000000 0.707107
vn 0.000000 0.000000 1.000000
vn -0.000000 0.000000 -1.000000
vn -0.707107 0.000000 -0.707107
vn -0.707107 0.000000 -0.707107
vn -0.000000 0.000000 -1.000000
vn -0.707107 0.000000 -0.707107
vn -0.000000 0.000000 -1.000000
f 11/1/1 13/2/2 14/3/3
f 11/4/4 14/5/5 12/6/6
f 1/7/7 3/8/8 4/9/9
f 1/10/10 4/11/11 2/12/12
f 15/13/13 1/14/14 2/15/15
f 15/16/16 2/17/17 16/18/18
f 9/19/19 11/20/20 12/21/21
f 9/22/22 12/23/23 10/24/24
f 3/25/25 5/26/26 6/27/27
f 3/28/28 6/29/29 4/30/30
f 7/31/31 9/32/32 10/33/33
f 7/34/34 10/35/35 8/36/36
f 13/37/37 15/38/38 16/39/39
f 13/40/40 16/41/41 14/42/42
f 5/43/43 7/44/44 8/45/45
f 5/46/46 8/47/47 6/48/48
