v 1.999999 0.000000 10.000000
v -8.000001 0.000000 -16.000000
v -16.000000 0.000000 -16.000000
v -0.000001 0.000000 -8.000000
v -8.000001 0.000000 -8.000000
v -16.000002 0.000000 -8.000000
v -8.000001 0.000000 0.000000
v -16.000002 0.000000 0.000000
v -0.000002 0.000000 8.000000
v -8.000002 0.000000 8.000000
v -16.000002 0.000000 8.000000
v 8.500000 17.000000 7.500000
v -8.000002 0.000000 16.000000
v -16.000002 0.000000 16.000000
v -8.000001 0.000000 -6.000000
v -8.000002 0.000000 6.000000
v 40.000000 0.000000 -24.000000
v -6.000002 0.000000 8.000000
v -16.000000 0.000000 -32.000000
v -6.000001 0.000000 -8.000000
v -3.000002 17.000000 4.000000
v -4.000001 17.000000 3.000000
v -4.000001 17.000000 -3.000000
v -3.000001 17.000000 -4.000000
v 3.999999 17.000000 -1.000000
v -8.000001 39.000000 -6.000000
v -2.000001 17.000000 -4.000000
v -2.000002 17.000000 4.000000
v 12.000001 17.000000 -11.000000
v 3.999999 17.000000 1.000000
v 3.999999 19.000000 1.000000
v -6.000001 39.000000 -8.000000
v -2.000002 19.000000 4.000000
v -3.000002 19.000000 4.000000
v -4.000001 19.000000 3.000000
v 5.000000 17.000000 -4.000000
v -4.000001 19.000000 -3.000000
v -3.000001 19.000000 -4.000000
v -2.000001 19.000000 -4.000000
v 3.999999 19.000000 -1.000000
v 11.999998 35.000000 3.000000
v -4.000001 39.000000 -8.000000
v -6.000002 35.000000 12.000000
v -9.000002 35.000000 12.000000
v -12.000002 35.000000 9.000000
v 12.000000 23.000000 4.000000
v -12.000001 35.000000 -9.000000
v -9.000001 35.000000 -12.000000
v -6.000001 35.000000 -12.000000
v 11.999999 35.000000 -3.000000
v 7.999999 39.000000 2.000000
v 7.999999 39.000000 -2.000000
v -4.000002 39.000000 8.000000
v -6.000002 39.000000 8.000000
v -8.000002 39.000000 6.000000
v 12.000001 23.000000 -3.999999
v 6.000000 0.000000 14.000000
v 40.000000 0.000000 -15.999998
v 48.000000 0.000000 -15.999998
v 31.999998 0.000000 -7.999998
v 40.000000 0.000000 -7.999998
v 48.000000 0.000000 -7.999998
v 40.000000 0.000000 0.000000
v 48.000000 0.000000 0.000004
v 31.999998 0.000000 8.000000
v 40.000000 0.000000 8.000000
v 48.000000 0.000000 8.000004
v 29.999998 0.000000 -9.999998
v 39.999996 0.000000 16.000000
v 47.999996 0.000000 16.000004
v 40.000000 0.000000 -5.999998
v 40.000000 0.000000 6.000000
v 48.000000 0.000000 -32.000000
v 38.000000 0.000000 8.000000
v -8.000000 0.000000 -24.000000
v 38.000000 0.000000 -7.999998
v 35.000000 17.000000 4.000000
v 36.000000 17.000000 3.000000
v 36.000000 17.000000 -2.999998
v 35.000000 17.000000 -3.999998
v 27.999998 17.000000 -0.999998
v 40.000000 39.000000 -5.999998
v 34.000000 17.000000 -3.999998
v 34.000000 17.000000 4.000000
v 17.999998 39.000000 -8.000000
v 27.999998 17.000000 1.000000
v 27.999998 19.000000 1.000000
v 38.000000 39.000000 -7.999998
v 34.000000 19.000000 4.000000
v 35.000000 19.000000 4.000000
v 36.000000 19.000000 3.000000
v 14.000001 39.000000 -8.000000
v 36.000000 19.000000 -2.999998
v 35.000000 19.000000 -3.999998
v 34.000000 19.000000 -3.999998
v 27.999998 19.000000 -0.999998
v 19.999998 35.000000 3.000000
v 36.000000 39.000000 -7.999998
v 37.999996 35.000000 12.000000
v 40.999996 35.000000 12.000000
v 44.000000 35.000000 9.000004
v 23.999998 39.000000 -20.000002
v 44.000000 35.000000 -8.999998
v 41.000000 35.000000 -11.999998
v 38.000000 35.000000 -11.999998
v 19.999998 35.000000 -3.000000
v 23.999998 39.000000 2.000000
v 23.999998 39.000000 -1.999998
v 36.000000 39.000000 8.000000
v 38.000000 39.000000 8.000000
v 40.000000 39.000000 6.000000
v 23.999998 39.000000 -22.000002
v 0.000000 0.000000 24.000000
v -0.000000 0.000000 32.000000
v 19.999998 17.000000 -11.000001
v 8.000000 0.000000 16.000000
v 8.000000 0.000000 24.000000
v 8.000001 0.000000 32.000000
v 16.000000 0.000000 24.000000
v 16.000000 0.000000 32.000000
v 27.000000 17.000000 -3.999999
v 24.000000 0.000000 16.000000
v 24.000000 0.000000 24.000000
v 24.000000 0.000000 32.000000
v 32.000000 0.000000 24.000000
v 32.000000 0.000000 32.000000
v 10.000000 0.000000 24.000000
v 22.000000 0.000000 24.000000
v 48.000000 0.000000 -24.000000
v 24.000000 0.000000 22.000000
v 40.000000 0.000000 -32.000000
v 8.000000 0.000000 22.000000
v 20.000000 17.000000 19.000000
v 19.000000 17.000000 20.000000
v 13.000000 17.000000 20.000000
v 12.000000 17.000000 19.000000
v 15.000000 17.000000 12.000000
v 12.000000 17.000000 18.000000
v 20.000000 17.000000 18.000000
v 20.000000 23.000000 4.000000
v 17.000000 17.000000 12.000000
v 17.000000 19.000000 12.000000
v 20.000000 19.000000 18.000000
v 20.000000 19.000000 19.000000
v 19.000000 19.000000 20.000000
v 19.999998 23.000000 -4.000000
v 13.000000 19.000000 20.000000
v 12.000000 19.000000 19.000000
v 12.000000 19.000000 18.000000
v 15.000000 19.000000 12.000000
v 21.999998 39.000000 -24.000002
v 4.999999 17.000000 4.000000
v 0.000000 0.000000 -24.000000
v -0.000000 0.000000 -32.000000
v 20.000000 17.000000 11.000000
v 8.000001 0.000000 -15.999999
v 8.000000 0.000000 -24.000002
v 8.000000 0.000000 -32.000000
v 15.999998 0.000000 -24.000002
v 16.000002 0.000000 -32.000000
v 27.000000 17.000000 4.000000
v 23.999998 0.000000 -16.000000
v 23.999998 0.000000 -24.000002
v 24.000002 0.000000 -32.000000
v 31.999998 0.000000 -23.999998
v 32.000000 0.000000 -31.999998
v 10.000000 0.000000 -24.000002
v 21.999998 0.000000 -24.000002
v -16.000000 0.000000 -24.000000
v 23.999998 0.000000 -22.000002
v -8.000000 0.000000 -32.000000
v 8.000000 0.000000 -22.000002
v 19.999998 17.000000 -19.000002
v 18.999998 17.000000 -20.000002
v 13.000000 17.000000 -20.000002
v 12.000000 17.000000 -19.000002
v 15.000001 17.000000 -11.999999
v 10.000000 39.000000 -24.000002
v 12.000000 17.000000 -18.000002
v 19.999998 17.000000 -18.000002
v 4.000000 35.000000 -22.000000
v 16.999998 17.000000 -12.000000
v 16.999998 19.000000 -12.000000
v 8.000000 39.000000 -22.000002
v 19.999998 19.000000 -18.000002
v 19.999998 19.000000 -19.000002
v 18.999998 19.000000 -20.000002
v 12.999999 35.000000 -3.999999
v 13.000000 19.000000 -20.000002
v 12.000000 19.000000 -19.000002
v 12.000000 19.000000 -18.000002
v 15.000001 19.000000 -11.999999
v 19.000000 35.000000 -4.000000
v 8.000000 39.000000 -20.000002
v 27.999998 35.000000 -21.999998
v 27.999998 35.000000 -24.999998
v 25.000002 35.000000 -28.000002
v 12.000000 17.000000 11.000000
v 7.000000 35.000000 -28.000002
v 4.000000 35.000000 -25.000000
v -8.000000 0.000000 24.000000
v -16.000000 0.000000 24.000000
v -16.000000 0.000000 32.000000
v -8.000000 0.000000 32.000000
v 40.000000 0.000000 24.000000
v 48.000000 0.000000 24.000000
v 48.000000 0.000000 32.000000
v 40.000000 0.000000 32.000000
v 23.500000 17.000000 -7.500000
v 25.999998 0.000000 -14.000000
v 1.999999 -1.000000 10.000000
v 31.999998 -1.000000 -7.999998
v 6.000000 -1.000000 14.000000
v 23.999998 -1.000000 -16.000000
v 29.999998 -1.000000 -9.999998
v 25.999998 -1.000000 -14.000000
v -0.000002 -1.000000 8.000000
v 8.000000 -1.000000 16.000000
v 17.000000 23.000000 2.000000
v 18.000000 23.000000 1.000000
v 14.000000 23.000000 -1.000000
v 15.000000 23.000000 -2.000000
v 17.000000 23.000000 -2.000000
v 18.000000 23.000000 -1.000000
v 15.000000 23.000000 2.000000
v 14.000000 23.000000 1.000000
v 8.514686 25.970631 19.742657
v 10.040136 22.919727 20.469898
v 12.001872 21.661674 21.330837
v 21.906029 26.749409 23.874704
v 25.124987 29.249973 22.843740
v 24.621265 28.242531 20.310633
v 17.526930 23.215439 9.892281
v 14.344178 24.246574 9.376713
v 12.813669 24.542765 21.069157
v 11.581897 24.725399 19.850817
v 21.077402 27.850292 22.562241
v 16.590849 23.453192 11.460311
v 22.967014 27.218798 20.252298
v 19.417440 19.990505 18.454681
vt 0.000000 0.000000
vt 0.000000 0.000000
vt 0.000000 0.000000
vt 0.000000 0.000000
vt 0.000000 0.000000
vt 0.000000 0.000000
vt 0.000000 0.000000
vt 0.000000 0.000000
vt 0.000000 0.000000
vt 0.000000 0.000000
vt 0.000000 0.000000
vt 0.000000 0.000000
vt 0.000000 0.000000
vt 0.000000 0.000000
vt 0.000000 0.000000
vt 0.000000 0.000000
vt 0.000000 0.000000
vt 0.000000 0.000000
vt 0.000000 0.000000
vt 0.000000 0.000000
vt 0.000000 0.000000
vt 0.000000 0.000000
vt 0.000000 0.000000
vt 0.000000 0.000000
vt 0.000000 0.000000
vt 0.000000 0.000000
vt 0.000000 0.000000
vt 0.000000 0.000000
vt 0.000000 0.000000
vt 0.000000 0.000000
vt 0.000000 0.000000
vt 0.000000 0.000000
vt 0.000000 0.000000
vt 0.000000 0.000000
vt 0.000000 0.000000
vt 0.000000 0.000000
vt 0.000000 0.000000
vt 0.000000 0.000000
vt 0.000000 0.000000
vt 0.000000 0.000000
vt 0.000000 0.000000
vt 0.000000 0.000000
vt 0.000000 0.000000
vt 0.000000 0.000000
vt 0.000000 0.000000
vt 0.000000 0.000000
vt 0.000000 0.000000
vt 0.000000 0.000000
vt 0.000000 0.000000
vt 0.000000 0.000000
vt 0.000000 0.000000
vt 0.000000 0.000000
vt 0.000000 0.000000
vt 0.000000 0.000000
vt 0.000000 0.000000
vt 0.000000 0.000000
vt 0.000000 0.000000
vt 0.000000 0.000000
vt 0.000000 0.000000
vt 0.000000 0.000000
vt 0.000000 0.000000
vt 0.000000 0.000000
vt 0.000000 0.000000
vt 0.000000 0.000000
vt 0.000000 0.000000
vt 0.000000 0.000000
vt 0.000000 0.000000
vt 0.000000 0.000000
vt 0.000000 0.000000
vt 0.000000 0.000000
vt 0.000000 0.000000
vt 0.000000 0.000000
vt 0.000000 0.000000
vt 0.000000 0.000000
vt 0.000000 0.000000
vt 0.000000 0.000000
vt 0.000000 0.000000
vt 0.000000 0.000000
vt 0.000000 0.000000
vt 0.000000 0.000000
vt 0.000000 0.000000
vt 0.000000 0.000000
vt 0.000000 0.000000
vt 0.000000 0.000000
vt 0.000000 0.000000
vt 0.000000 0.000000
vt 0.000000 0.000000
vt 0.000000 0.000000
vt 0.000000 0.000000
vt 0.000000 0.000000
vt 0.000000 0.000000
vt 0.000000 0.000000
vt 0.000000 0.000000
vt 0.000000 0.000000
vt 0.000000 0.000000
vt 0.000000 0.000000
vt 0.000000 0.000000
vt 0.000000 0.000000
vt 0.000000 0.000000
vt 0.000000 0.000000
vt 0.000000 0.000000
vt 0.000000 0.000000
vt 0.000000 0.000000
vt 0.000000 0.000000
vt 0.000000 0.000000
vt 0.000000 0.000000
vt 0.000000 0.000000
vt 0.000000 0.000000
vt 0.000000 0.000000
vt 0.000000 0.000000
vt 0.000000 0.000000
vt 0.000000 0.000000
vt 0.000000 0.000000
vt 0.000000 0.000000
vt 0.000000 0.000000
vt 0.000000 0.000000
vt 0.000000 0.000000
vt 0.000000 0.000000
vt 0.000000 0.000000
vt 0.000000 0.000000
vt 0.000000 0.000000
vt 0.000000 0.000000
vt 0.000000 0.000000
vt 0.000000 0.000000
vt 0.000000 0.000000
vt 0.000000 0.000000
vt 0.000000 0.000000
vt 0.000000 0.000000
vt 0.000000 0.000000
vt 0.000000 0.000000
vt 0.000000 0.000000
vt 0.000000 0.000000
vt 0.000000 0.000000
vt 0.000000 0.000000
vt 0.000000 0.000000
vt 0.000000 0.000000
vt 0.000000 0.000000
vt 0.000000 0.000000
vt 0.000000 0.000000
vt 0.000000 0.000000
vt 0.000000 0.000000
vt 0.000000 0.000000
vt 0.000000 0.000000
vt 0.000000 0.000000
vt 0.000000 0.000000
vt 0.000000 0.000000
vt 0.000000 0.000000
vt 0.000000 0.000000
vt 0.000000 0.000000
vt 0.000000 0.000000
vt 0.000000 0.000000
vt 0.000000 0.000000
vt 0.000000 0.000000
vt 0.000000 0.000000
vt 0.000000 0.000000
vt 0.000000 0.000000
vt 0.000000 0.000000
vt 0.000000 0.000000
vt 0.000000 0.000000
vt 0.000000 0.000000
vt 0.000000 0.000000
vt 0.000000 0.000000
vt 0.000000 0.000000
vt 0.000000 0.000000
vt 0.000000 0.000000
vt 0.000000 0.000000
vt 0.000000 0.000000
vt 0.000000 0.000000
vt 0.000000 0.000000
vt 0.000000 0.000000
vt 0.000000 0.000000
vt 0.000000 0.000000
vt 0.000000 0.000000
vt 0.000000 0.000000
vt 0.000000 0.000000
vt 0.000000 0.000000
vt 0.000000 0.000000
vt 0.000000 0.000000
vt 0.000000 0.000000
vt 0.000000 0.000000
vt 0.000000 0.000000
vt 0.000000 0.000000
vt 0.000000 0.000000
vt 0.000000 0.000000
vt 0.000000 0.000000
vt 0.000000 0.000000
vt 0.000000 0.000000
vt 0.000000 0.000000
vt 0.000000 0.000000
vt 0.000000 0.000000
vt 0.000000 0.000000
vt 0.000000 0.000000
vt 0.000000 0.000000
vt 0.000000 0.000000
vt 0.000000 0.000000
vt 0.000000 0.000000
vt 0.000000 0.000000
vt 0.000000 0.000000
vt 0.000000 0.000000
vt 0.000000 0.000000
vt 0.000000 0.000000
vt 0.000000 0.000000
vt 0.000000 0.000000
vt 0.000000 0.000000
vt 0.000000 0.000000
vt 0.000000 0.000000
vt 0.000000 0.000000
vt 0.000000 0.000000
vt 0.000000 0.000000
vt 0.000000 0.000000
vt 0.000000 0.000000
vt 0.000000 0.000000
vt 0.000000 0.000000
vt 0.000000 0.000000
vt 0.000000 0.000000
vt 0.000000 0.000000
vt 0.000000 0.000000
vt 0.000000 0.000000
vt 0.000000 0.000000
vt 0.000000 0.000000
vt 0.000000 0.000000
vt 0.000000 0.000000
vt 0.000000 0.000000
vt 0.000000 0.000000
vt 0.000000 0.000000
vt 0.000000 0.000000
vt 0.000000 0.000000
vt 0.000000 0.000000
vt 0.000000 0.000000
vt 0.000000 0.000000
vt 0.000000 0.000000
vt 0.000000 0.000000
vt 0.000000 0.000000
vt 0.000000 0.000000
vt 0.000000 0.000000
vt 0.000000 0.000000
vt 0.000000 0.000000
vt 0.000000 0.000000
vt 0.000000 0.000000
vt 0.000000 0.000000
vt 0.000000 0.000000
vt 0.000000 0.000000
vt 0.000000 0.000000
vt 0.000000 0.000000
vt 0.000000 0.000000
vt 0.000000 0.000000
vt 0.000000 0.000000
vt 0.000000 0.000000
vt 0.000000 0.000000
vt 0.000000 0.000000
vt 0.000000 0.000000
vt 0.000000 0.000000
vt 0.000000 0.000000
vt 0.000000 0.000000
vt 0.000000 0.000000
vt 0.000000 0.000000
vt 0.000000 0.000000
vt 0.000000 0.000000
vt 0.000000 0.000000
vt 0.000000 0.000000
vt 0.000000 0.000000
vt 0.000000 0.000000
vt 0.000000 0.000000
vt 0.000000 0.000000
vt 0.000000 0.000000
vt 0.000000 0.000000
vt 0.000000 0.000000
vt 0.000000 0.000000
vt 0.000000 0.000000
vt 0.000000 0.000000
vt 0.000000 0.000000
vt 0.000000 0.000000
vt 0.000000 0.000000
vt 0.000000 0.000000
vt 0.000000 0.000000
vt 0.000000 0.000000
vt 0.000000 0.000000
vt 0.000000 0.000000
vt 0.000000 0.000000
vt 0.000000 0.000000
vt 0.000000 0.000000
vt 0.000000 0.000000
vt 0.000000 0.000000
vt 0.000000 0.000000
vt 0.000000 0.000000
vt 0.000000 0.000000
vt 0.000000 0.000000
vt 0.000000 0.000000
vt 0.000000 0.000000
vt 0.000000 0.000000
vt 0.000000 0.000000
vt 0.000000 0.000000
vt 0.000000 0.000000
vt 0.000000 0.000000
vt 0.000000 0.000000
vt 0.000000 0.000000
vt 0.000000 0.000000
vt 0.000000 0.000000
vt 0.000000 0.000000
vt 0.000000 0.000000
vt 0.000000 0.000000
vt 0.000000 0.000000
vt 0.000000 0.000000
vt 0.000000 0.000000
vt 0.000000 0.000000
vt 0.000000 0.000000
vt 0.000000 0.000000
vt 0.000000 0.000000
vt 0.000000 0.000000
vt 0.000000 0.000000
vt 0.000000 0.000000
vt 0.000000 0.000000
vt 0.000000 0.000000
vt 0.000000 0.000000
vt 0.000000 0.000000
vt 0.000000 0.000000
vt 0.000000 0.000000
vt 0.000000 0.000000
vt 0.000000 0.000000
vt 0.000000 0.000000
vt 0.000000 0.000000
vt 0.000000 0.000000
vt 0.000000 0.000000
vt 0.000000 0.000000
vt 0.000000 0.000000
vt 0.000000 0.000000
vt 0.000000 0.000000
vt 0.000000 0.000000
vt 0.000000 0.000000
vt 0.000000 0.000000
vt 0.000000 0.000000
vt 0.000000 0.000000
vt 0.000000 0.000000
vt 0.000000 0.000000
vt 0.000000 0.000000
vt 0.000000 0.000000
vt 0.000000 0.000000
vt 0.000000 0.000000
vt 0.000000 0.000000
vt 0.000000 0.000000
vt 0.000000 0.000000
vt 0.000000 0.000000
vt 0.000000 0.000000
vt 0.000000 0.000000
vt 0.000000 0.000000
vt 0.000000 0.000000
vt 0.000000 0.000000
vt 0.000000 0.000000
vt 0.000000 0.000000
vt 0.000000 0.000000
vt 0.000000 0.000000
vt 0.000000 0.000000
vt 0.000000 0.000000
vt 0.000000 0.000000
vt 0.000000 0.000000
vt 0.000000 0.000000
vt 0.000000 0.000000
vt 0.000000 0.000000
vt 0.000000 0.000000
vt 0.000000 0.000000
vt 0.000000 0.000000
vt 0.000000 0.000000
vt 0.000000 0.000000
vt 0.000000 0.000000
vt 0.000000 0.000000
vt 0.000000 0.000000
vt 0.000000 0.000000
vt 0.000000 0.000000
vt 0.000000 0.000000
vt 0.000000 0.000000
vt 0.000000 0.000000
vt 0.000000 0.000000
vt 0.000000 0.000000
vt 0.000000 0.000000
vt 0.000000 0.000000
vt 0.000000 0.000000
vt 0.000000 0.000000
vt 0.000000 0.000000
vt 0.000000 0.000000
vt 0.000000 0.000000
vt 0.000000 0.000000
vt 0.000000 0.000000
vt 0.000000 0.000000
vt 0.000000 0.000000
vt 0.000000 0.000000
vt 0.000000 0.000000
vt 0.000000 0.000000
vt 0.000000 0.000000
vt 0.000000 0.000000
vt 0.000000 0.000000
vt 0.000000 0.000000
vt 0.000000 0.000000
vt 0.000000 0.000000
vt 0.000000 0.000000
vt 0.000000 0.000000
vt 0.000000 0.000000
vt 0.000000 0.000000
vt 0.000000 0.000000
vt 0.000000 0.000000
vt 0.000000 0.000000
vt 0.000000 0.000000
vt 0.000000 0.000000
vt 0.000000 0.000000
vt 0.000000 0.000000
vt 0.000000 0.000000
vt 0.000000 0.000000
vt 0.000000 0.000000
vt 0.000000 0.000000
vt 0.000000 0.000000
vt 0.000000 0.000000
vt 0.000000 0.000000
vt 0.000000 0.000000
vt 0.000000 0.000000
vt 0.000000 0.000000
vt 0.000000 0.000000
vt 0.000000 0.000000
vt 0.000000 0.000000
vt 0.000000 0.000000
vt 0.000000 0.000000
vt 0.000000 0.000000
vt 0.000000 0.000000
vt 0.000000 0.000000
vt 0.000000 0.000000
vt 0.000000 0.000000
vt 0.000000 0.000000
vt 0.000000 0.000000
vt 0.000000 0.000000
vt 0.000000 0.000000
vt 0.000000 0.000000
vt 0.000000 0.000000
vt 0.000000 0.000000
vt 0.000000 0.000000
vt 0.000000 0.000000
vt 0.000000 0.000000
vt 0.000000 0.000000
vt 0.000000 0.000000
vt 0.000000 0.000000
vt 0.000000 0.000000
vt 0.000000 0.000000
vt 0.000000 0.000000
vt 0.000000 0.000000
vt 0.000000 0.000000
vt 0.000000 0.000000
vt 0.000000 0.000000
vt 0.000000 0.000000
vt 0.000000 0.000000
vt 0.000000 0.000000
vt 0.000000 0.000000
vt 0.000000 0.000000
vt 0.000000 0.000000
vt 0.000000 0.000000
vt 0.000000 0.000000
vt 0.000000 0.000000
vt 0.000000 0.000000
vt 0.000000 0.000000
vt 0.000000 0.000000
vt 0.000000 0.000000
vt 0.000000 0.000000
vt 0.000000 0.000000
vt 0.000000 0.000000
vt 0.000000 0.000000
vt 0.000000 0.000000
vt 0.000000 0.000000
vt 0.000000 0.000000
vt 0.000000 0.000000
vt 0.000000 0.000000
vt 0.000000 0.000000
vt 0.000000 0.000000
vt 0.000000 0.000000
vt 0.000000 0.000000
vt 0.000000 0.000000
vt 0.000000 0.000000
vt 0.000000 0.000000
vt 0.000000 0.000000
vt 0.000000 0.000000
vt 0.000000 0.000000
vt 0.000000 0.000000
vt 0.000000 0.000000
vt 0.000000 0.000000
vt 0.000000 0.000000
vt 0.000000 0.000000
vt 0.000000 0.000000
vt 0.000000 0.000000
vt 0.000000 0.000000
vt 0.000000 0.000000
vt 0.000000 0.000000
vt 0.000000 0.000000
vt 0.000000 0.000000
vt 0.000000 0.000000
vt 0.000000 0.000000
vt 0.000000 0.000000
vt 0.000000 0.000000
vt 0.000000 0.000000
vt 0.000000 0.000000
vt 0.000000 0.000000
vt 0.000000 0.000000
vt 0.000000 0.000000
vt 0.000000 0.000000
vt 0.000000 0.000000
vt 0.000000 0.000000
vt 0.000000 0.000000
vt 0.000000 0.000000
vt 0.000000 0.000000
vt 0.000000 0.000000
vt 0.000000 0.000000
vt 0.000000 0.000000
vt 0.000000 0.000000
vt 0.000000 0.000000
vt 0.000000 0.000000
vt 0.000000 0.000000
vt 0.000000 0.000000
vt 0.000000 0.000000
vt 0.000000 0.000000
vt 0.000000 0.000000
vt 0.000000 0.000000
vt 0.000000 0.000000
vt 0.000000 0.000000
vt 0.000000 0.000000
vt 0.000000 0.000000
vt 0.000000 0.000000
vt 0.000000 0.000000
vt 0.000000 0.000000
vt 0.000000 0.000000
vt 0.000000 0.000000
vt 0.000000 0.000000
vt 0.000000 0.000000
vt 0.000000 0.000000
vt 0.000000 0.000000
vt 0.000000 0.000000
vt 0.000000 0.000000
vt 0.000000 0.000000
vt 0.000000 0.000000
vt 0.000000 0.000000
vt 0.000000 0.000000
vt 0.000000 0.000000
vt 0.000000 0.000000
vt 0.000000 0.000000
vt 0.000000 0.000000
vt 0.000000 0.000000
vt 0.000000 0.000000
vt 0.000000 0.000000
vt 0.000000 0.000000
vt 0.000000 0.000000
vt 0.000000 0.000000
vt 0.000000 0.000000
vt 0.000000 0.000000
vt 0.000000 0.000000
vt 0.000000 0.000000
vt 0.000000 0.000000
vt 0.000000 0.000000
vt 0.000000 0.000000
vt 0.000000 0.000000
vt 0.000000 0.000000
vt 0.000000 0.000000
vt 0.000000 0.000000
vt 0.000000 0.000000
vt 0.000000 0.000000
vt 0.000000 0.000000
vt 0.000000 0.000000
vt 0.000000 0.000000
vt 0.000000 0.000000
vt 0.000000 0.000000
vt 0.000000 0.000000
vt 0.000000 0.000000
vt 0.000000 0.000000
vt 0.000000 0.000000
vt 0.000000 0.000000
vt 0.000000 0.000000
vt 0.000000 0.000000
vt 0.000000 0.000000
vt 0.000000 0.000000
vt 0.000000 0.000000
vt 0.000000 0.000000
vt 0.000000 0.000000
vt 0.000000 0.000000
vt 0.000000 0.000000
vt 0.000000 0.000000
vt 0.000000 0.000000
vt 0.000000 0.000000
vt 0.000000 0.000000
vt 0.000000 0.000000
vt 0.000000 0.000000
vt 0.000000 0.000000
vt 0.000000 0.000000
vt 0.000000 0.000000
vt 0.000000 0.000000
vt 0.000000 0.000000
vt 0.000000 0.000000
vt 0.000000 0.000000
vt 0.000000 0.000000
vt 0.000000 0.000000
vt 0.000000 0.000000
vt 0.000000 0.000000
vt 0.000000 0.000000
vt 0.000000 0.000000
vt 0.000000 0.000000
vt 0.000000 0.000000
vt 0.000000 0.000000
vt 0.000000 0.000000
vt 0.000000 0.000000
vt 0.000000 0.000000
vt 0.000000 0.000000
vt 0.000000 0.000000
vt 0.000000 0.000000
vt 0.000000 0.000000
vt 0.000000 0.000000
vt 0.000000 0.000000
vt 0.000000 0.000000
vt 0.000000 0.000000
vt 0.000000 0.000000
vt 0.000000 0.000000
vt 0.000000 0.000000
vt 0.000000 0.000000
vt 0.000000 0.000000
vt 0.000000 0.000000
vt 0.000000 0.000000
vt 0.000000 0.000000
vt 0.000000 0.000000
vt 0.000000 0.000000
vt 0.000000 0.000000
vt 0.000000 0.000000
vt 0.000000 0.000000
vt 0.000000 0.000000
vt 0.000000 0.000000
vt 0.000000 0.000000
vt 0.000000 0.000000
vt 0.000000 0.000000
vt 0.000000 0.000000
vt 0.000000 0.000000
vt 0.000000 0.000000
vt 0.000000 0.000000
vt 0.000000 0.000000
vt 0.000000 0.000000
vt 0.000000 0.000000
vt 0.000000 0.000000
vt 0.000000 0.000000
vt 0.000000 0.000000
vt 0.000000 0.000000
vt 0.000000 0.000000
vt 0.000000 0.000000
vt 0.000000 0.000000
vt 0.000000 0.000000
vt 0.000000 0.000000
vt 0.000000 0.000000
vt 0.000000 0.000000
vt 0.000000 0.000000
vt 0.000000 0.000000
vt 0.000000 0.000000
vt 0.000000 0.000000
vt 0.000000 0.000000
vt 0.000000 0.000000
vt 0.000000 0.000000
vt 0.000000 0.000000
vt 0.000000 0.000000
vt 0.000000 0.000000
vt 0.000000 0.000000
vt 0.000000 0.000000
vt 0.000000 0.000000
vt 0.000000 0.000000
vt 0.000000 0.000000
vt 0.000000 0.000000
vt 0.000000 0.000000
vt 0.000000 0.000000
vt 0.000000 0.000000
vt 0.000000 0.000000
vt 0.000000 0.000000
vt 0.000000 0.000000
vt 0.000000 0.000000
vt 0.000000 0.000000
vt 0.000000 0.000000
vt 0.000000 0.000000
vt 0.000000 0.000000
vt 0.000000 0.000000
vt 0.000000 0.000000
vt 0.000000 0.000000
vt 0.000000 0.000000
vt 0.000000 0.000000
vt 0.000000 0.000000
vt 0.000000 0.000000
vt 0.000000 0.000000
vt 0.000000 0.000000
vt 0.000000 0.000000
vt 0.000000 0.000000
vt 0.000000 0.000000
vt 0.000000 0.000000
vt 0.000000 0.000000
vt 0.000000 0.000000
vt 0.000000 0.000000
vt 0.000000 0.000000
vt 0.000000 0.000000
vt 0.000000 0.000000
vt 0.000000 0.000000
vt 0.000000 0.000000
vt 0.000000 0.000000
vt 0.000000 0.000000
vt 0.000000 0.000000
vt 0.000000 0.000000
vt 0.000000 0.000000
vt 0.000000 0.000000
vt 0.000000 0.000000
vt 0.000000 0.000000
vt 0.000000 0.000000
vt 0.000000 0.000000
vt 0.000000 0.000000
vt 0.000000 0.000000
vt 0.000000 0.000000
vt 0.000000 0.000000
vt 0.000000 0.000000
vt 0.000000 0.000000
vt 0.000000 0.000000
vt 0.000000 0.000000
vt 0.000000 0.000000
vt 0.000000 0.000000
vt 0.000000 0.000000
vt 0.000000 0.000000
vt 0.000000 0.000000
vt 0.000000 0.000000
vt 0.000000 0.000000
vt 0.000000 0.000000
vt 0.000000 0.000000
vt 0.000000 0.000000
vt 0.000000 0.000000
vt 0.000000 0.000000
vt 0.000000 0.000000
vt 0.000000 0.000000
vt 0.000000 0.000000
vt 0.000000 0.000000
vt 0.000000 0.000000
vt 0.000000 0.000000
vt 0.000000 0.000000
vt 0.000000 0.000000
vt 0.000000 0.000000
vt 0.000000 0.000000
vt 0.000000 0.000000
vt 0.000000 0.000000
vt 0.000000 0.000000
vt 0.000000 0.000000
vt 0.000000 0.000000
vt 0.000000 0.000000
vt 0.000000 0.000000
vt 0.000000 0.000000
vt 0.000000 0.000000
vt 0.000000 0.000000
vt 0.000000 0.000000
vt 0.000000 0.000000
vt 0.000000 0.000000
vt 0.000000 0.000000
vt 0.000000 0.000000
vt 0.000000 0.000000
vt 0.000000 0.000000
vt 0.000000 0.000000
vt 0.000000 0.000000
vt 0.000000 0.000000
vt 0.000000 0.000000
vt 0.000000 0.000000
vt 0.000000 0.000000
vt 0.000000 0.000000
vt 0.000000 0.000000
vt 0.000000 0.000000
vt 0.000000 0.000000
vt 0.000000 0.000000
vt 0.000000 0.000000
vt 0.000000 0.000000
vt 0.000000 0.000000
vt 0.000000 0.000000
vt 0.000000 0.000000
vt 0.000000 0.000000
vt 0.000000 0.000000
vt 0.000000 0.000000
vt 0.000000 0.000000
vt 0.000000 0.000000
vt 0.000000 0.000000
vt 0.000000 0.000000
vt 0.000000 0.000000
vt 0.000000 0.000000
vt 0.000000 0.000000
vt 0.000000 0.000000
vt 0.000000 0.000000
vt 0.000000 0.000000
vt 0.000000 0.000000
vt 0.000000 0.000000
vt 0.000000 0.000000
vt 0.000000 0.000000
vt 0.000000 0.000000
vt 0.000000 0.000000
vt 0.000000 0.000000
vt 0.000000 0.000000
vt 0.000000 0.000000
vt 0.000000 0.000000
vt 0.000000 0.000000
vt 0.000000 0.000000
vt 0.000000 0.000000
vt 0.000000 0.000000
vt 0.000000 0.000000
vt 0.000000 0.000000
vt 0.000000 0.000000
vt 0.000000 0.000000
vt 0.000000 0.000000
vt 0.000000 0.000000
vt 0.000000 0.000000
vt 0.000000 0.000000
vt 0.000000 0.000000
vt 0.000000 0.000000
vt 0.000000 0.000000
vt 0.000000 0.000000
vt 0.000000 0.000000
vt 0.000000 0.000000
vt 0.000000 0.000000
vt 0.000000 0.000000
vt 0.000000 0.000000
vt 0.000000 0.000000
vt 0.000000 0.000000
vt 0.000000 0.000000
vt 0.000000 0.000000
vt 0.000000 0.000000
vt 0.000000 0.000000
vt 0.000000 0.000000
vt 0.000000 0.000000
vt 0.000000 0.000000
vt 0.000000 0.000000
vt 0.000000 0.000000
vt 0.000000 0.000000
vt 0.000000 0.000000
vt 0.000000 0.000000
vt 0.000000 0.000000
vt 0.000000 0.000000
vt 0.000000 0.000000
vt 0.000000 0.000000
vt 0.000000 0.000000
vt 0.000000 0.000000
vt 0.000000 0.000000
vt 0.000000 0.000000
vt 0.000000 0.000000
vt 0.000000 0.000000
vt 0.000000 0.000000
vt 0.000000 0.000000
vt 0.000000 0.000000
vt 0.000000 0.000000
vt 0.000000 0.000000
vt 0.000000 0.000000
vt 0.000000 0.000000
vt 0.000000 0.000000
vt 0.000000 0.000000
vt 0.000000 0.000000
vt 0.000000 0.000000
vt 0.000000 0.000000
vt 0.000000 0.000000
vt 0.000000 0.000000
vt 0.000000 0.000000
vt 0.000000 0.000000
vt 0.000000 0.000000
vt 0.000000 0.000000
vt 0.000000 0.000000
vt 0.000000 0.000000
vt 0.000000 0.000000
vt 0.000000 0.000000
vt 0.000000 0.000000
vt 0.000000 0.000000
vt 0.000000 0.000000
vt 0.000000 0.000000
vt 0.000000 0.000000
vt 0.000000 0.000000
vt 0.000000 0.000000
vt 0.000000 0.000000
vt 0.000000 0.000000
vt 0.000000 0.000000
vt 0.000000 0.000000
vt 0.000000 0.000000
vt 0.000000 0.000000
vt 0.000000 0.000000
vt 0.000000 0.000000
vt 0.000000 0.000000
vt 0.000000 0.000000
vt 0.000000 0.000000
vt 0.000000 0.000000
vt 0.000000 0.000000
vt 0.000000 0.000000
vt 0.000000 0.000000
vt 0.000000 0.000000
vt 0.000000 0.000000
vt 0.000000 0.000000
vt 0.000000 0.000000
vt 0.000000 0.000000
vt 0.000000 0.000000
vt 0.000000 0.000000
vt 0.000000 0.000000
vt 0.000000 0.000000
vt 0.000000 0.000000
vt 0.000000 0.000000
vt 0.000000 0.000000
vt 0.000000 0.000000
vt 0.000000 0.000000
vt 0.000000 0.000000
vt 0.000000 0.000000
vt 0.000000 0.000000
vt 0.000000 0.000000
vt 0.000000 0.000000
vt 0.000000 0.000000
vt 0.000000 0.000000
vt 0.000000 0.000000
vt 0.000000 0.000000
vt 0.000000 0.000000
vt 0.000000 0.000000
vt 0.000000 0.000000
vt 0.000000 0.000000
vt 0.000000 0.000000
vt 0.000000 0.000000
vt 0.000000 0.000000
vt 0.000000 0.000000
vt 0.000000 0.000000
vt 0.000000 0.000000
vt 0.000000 0.000000
vt 0.000000 0.000000
vt 0.000000 0.000000
vt 0.000000 0.000000
vt 0.000000 0.000000
vt 0.000000 0.000000
vt 0.000000 0.000000
vt 0.000000 0.000000
vt 0.000000 0.000000
vt 0.000000 0.000000
vt 0.000000 0.000000
vt 0.000000 0.000000
vt 0.000000 0.000000
vt 0.000000 0.000000
vt 0.000000 0.000000
vt 0.000000 0.000000
vt 0.000000 0.000000
vt 0.000000 0.000000
vt 0.000000 0.000000
vt 0.000000 0.000000
vt 0.000000 0.000000
vt 0.000000 0.000000
vt 0.000000 0.000000
vt 0.000000 0.000000
vt 0.000000 0.000000
vt 0.000000 0.000000
vt 0.000000 0.000000
vt 0.000000 0.000000
vt 0.000000 0.000000
vt 0.000000 0.000000
vt 0.000000 0.000000
vt 0.000000 0.000000
vt 0.000000 0.000000
vt 0.000000 0.000000
vt 0.000000 0.000000
vt 0.000000 0.000000
vt 0.000000 0.000000
vt 0.000000 0.000000
vt 0.000000 0.000000
vt 0.000000 0.000000
vt 0.000000 0.000000
vt 0.000000 0.000000
vt 0.000000 0.000000
vt 0.000000 0.000000
vt 0.000000 0.000000
vt 0.000000 0.000000
vt 0.000000 0.000000
vt 0.000000 0.000000
vt 0.000000 0.000000
vt 0.000000 0.000000
vt 0.000000 0.000000
vt 0.000000 0.000000
vt 0.000000 0.000000
vt 0.000000 0.000000
vt 0.000000 0.000000
vt 0.000000 0.000000
vt 0.000000 0.000000
vt 0.000000 0.000000
vt 0.000000 0.000000
vt 0.000000 0.000000
vt 0.000000 0.000000
vt 0.000000 0.000000
vt 0.000000 0.000000
vt 0.000000 0.000000
vt 0.000000 0.000000
vt 0.000000 0.000000
vt 0.000000 0.000000
vt 0.000000 0.000000
vt 0.000000 0.000000
vt 0.000000 0.000000
vt 0.000000 0.000000
vt 0.000000 0.000000
vt 0.000000 0.000000
vt 0.000000 0.000000
vt 0.000000 0.000000
vt 0.000000 0.000000
vt 0.000000 0.000000
vt 0.000000 0.000000
vt 0.000000 0.000000
vt 0.000000 0.000000
vt 0.000000 0.000000
vt 0.000000 0.000000
vt 0.000000 0.000000
vt 0.000000 0.000000
vt 0.000000 0.000000
vt 0.000000 0.000000
vt 0.000000 0.000000
vt 0.000000 0.000000
vt 0.000000 0.000000
vt 0.000000 0.000000
vt 0.000000 0.000000
vt 0.000000 0.000000
vt 0.000000 0.000000
vt 0.000000 0.000000
vt 0.000000 0.000000
vt 0.000000 0.000000
vt 0.000000 0.000000
vt 0.000000 0.000000
vt 0.000000 0.000000
vt 0.000000 0.000000
vt 0.000000 0.000000
vt 0.000000 0.000000
vt 0.000000 0.000000
vt 0.000000 0.000000
vt 0.000000 0.000000
vt 0.000000 0.000000
vt 0.000000 0.000000
vt 0.000000 0.000000
vt 0.000000 0.000000
vt 0.000000 0.000000
vt 0.000000 0.000000
vt 0.000000 0.000000
vt 0.000000 0.000000
vt 0.000000 0.000000
vt 0.000000 0.000000
vt 0.000000 0.000000
vt 0.000000 0.000000
vt 0.000000 0.000000
vt 0.000000 0.000000
vt 0.000000 0.000000
vt 0.000000 0.000000
vt 0.000000 0.000000
vt 0.000000 0.000000
vt 0.000000 0.000000
vt 0.000000 0.000000
vt 0.000000 0.000000
vt 0.000000 0.000000
vt 0.000000 0.000000
vt 0.000000 0.000000
vt 0.000000 0.000000
vt 0.000000 0.000000
vt 0.000000 0.000000
vt 0.000000 0.000000
vt 0.000000 0.000000
vt 0.000000 0.000000
vt 0.000000 0.000000
vt 0.000000 0.000000
vt 0.000000 0.000000
vt 0.000000 0.000000
vt 0.000000 0.000000
vt 0.000000 0.000000
vt 0.000000 0.000000
vt 0.000000 0.000000
vt 0.000000 0.000000
vt 0.000000 0.000000
vt 0.000000 0.000000
vt 0.000000 0.000000
vt 0.000000 0.000000
vt 0.000000 0.000000
vt 0.000000 0.000000
vt 0.000000 0.000000
vt 0.000000 0.000000
vt 0.000000 0.000000
vt 0.000000 0.000000
vt 0.000000 0.000000
vt 0.000000 0.000000
vt 0.000000 0.000000
vt 0.000000 0.000000
vt 0.000000 0.000000
vt 0.000000 0.000000
vt 0.000000 0.000000
vt 0.000000 0.000000
vt 0.000000 0.000000
vt 0.000000 0.000000
vt 0.000000 0.000000
vt 0.000000 0.000000
vt 0.000000 0.000000
vt 0.000000 0.000000
vt 0.000000 0.000000
vt 0.000000 0.000000
vt 0.000000 0.000000
vt 0.000000 0.000000
vt 0.000000 0.000000
vt 0.000000 0.000000
vt 0.000000 0.000000
vt 0.000000 0.000000
vt 0.000000 0.000000
vt 0.000000 0.000000
vt 0.000000 0.000000
vt 0.000000 0.000000
vt 0.000000 0.000000
vt 0.000000 0.000000
vt 0.000000 0.000000
vt 0.000000 0.000000
vt 0.000000 0.000000
vt 0.000000 0.000000
vt 0.000000 0.000000
vt 0.000000 0.000000
vt 0.000000 0.000000
vt 0.000000 0.000000
vt 0.000000 0.000000
vt 0.000000 0.000000
vt 0.000000 0.000000
vt 0.000000 0.000000
vt 0.000000 0.000000
vt 0.000000 0.000000
vt 0.000000 0.000000
vt 0.000000 0.000000
vt 0.000000 0.000000
vt 0.000000 0.000000
vt 0.000000 0.000000
vt 0.000000 0.000000
vt 0.000000 0.000000
vt 0.000000 0.000000
vt 0.000000 0.000000
vt 0.000000 0.000000
vt 0.000000 0.000000
vt 0.000000 0.000000
vt 0.000000 0.000000
vt 0.000000 0.000000
vt 0.000000 0.000000
vt 0.000000 0.000000
vt 0.000000 0.000000
vt 0.000000 0.000000
vt 0.000000 0.000000
vt 0.000000 0.000000
vt 0.000000 0.000000
vt 0.000000 0.000000
vt 0.000000 0.000000
vt 0.000000 0.000000
vt 0.000000 0.000000
vt 0.000000 0.000000
vt 0.000000 0.000000
vt 0.000000 0.000000
vt 0.000000 0.000000
vt 0.000000 0.000000
vt 0.000000 0.000000
vt 0.000000 0.000000
vt 0.000000 0.000000
vt 0.000000 0.000000
vt 0.000000 0.000000
vt 0.000000 0.000000
vt 0.000000 0.000000
vt 0.000000 0.000000
vt 0.000000 0.000000
vt 0.000000 0.000000
vt 0.000000 0.000000
vt 0.000000 0.000000
vt 0.000000 0.000000
vt 0.000000 0.000000
vt 0.000000 0.000000
vt 0.000000 0.000000
vt 0.000000 0.000000
vt 0.000000 0.000000
vt 0.000000 0.000000
vt 0.000000 0.000000
vt 0.000000 0.000000
vt 0.000000 0.000000
vt 0.000000 0.000000
vt 0.000000 0.000000
vt 0.000000 0.000000
vt 0.000000 0.000000
vt 0.000000 0.000000
vt 0.000000 0.000000
vt 0.000000 0.000000
vt 0.000000 0.000000
vt 0.000000 0.000000
vt 0.000000 0.000000
vt 0.000000 0.000000
vt 0.000000 0.000000
vt 0.000000 0.000000
vt 0.000000 0.000000
vt 0.000000 0.000000
vt 0.000000 0.000000
vt 0.000000 0.000000
vt 0.000000 0.000000
vt 0.000000 0.000000
vt 0.000000 0.000000
vt 0.000000 0.000000
vt 0.000000 0.000000
vt 0.000000 0.000000
vt 0.000000 0.000000
vt 0.000000 0.000000
vt 0.000000 0.000000
vt 0.000000 0.000000
vt 0.000000 0.000000
vt 0.000000 0.000000
vt 0.000000 0.000000
vt 0.000000 0.000000
vt 0.000000 0.000000
vt 0.000000 0.000000
vt 0.000000 0.000000
vt 0.000000 0.000000
vt 0.000000 0.000000
vt 0.000000 0.000000
vt 0.000000 0.000000
vt 0.000000 0.000000
vt 0.000000 0.000000
vt 0.000000 0.000000
vt 0.000000 0.000000
vt 0.000000 0.000000
vt 0.000000 0.000000
vt 0.000000 0.000000
vt 0.000000 0.000000
vt 0.000000 0.000000
vt 0.000000 0.000000
vt 0.000000 0.000000
vt 0.000000 0.000000
vt 0.000000 0.000000
vt 0.000000 0.000000
vt 0.000000 0.000000
vt 0.000000 0.000000
vt 0.000000 0.000000
vt 0.000000 0.000000
vt 0.000000 0.000000
vt 0.000000 0.000000
vt 0.000000 0.000000
vt 0.000000 0.000000
vt 0.000000 0.000000
vt 0.000000 0.000000
vt 0.000000 0.000000
vt 0.000000 0.000000
vt 0.000000 0.000000
vt 0.000000 0.000000
vt 0.000000 0.000000
vt 0.000000 0.000000
vt 0.000000 0.000000
vt 0.000000 0.000000
vt 0.000000 0.000000
vt 0.000000 0.000000
vt 0.000000 0.000000
vt 0.000000 0.000000
vt 0.000000 0.000000
vt 0.000000 0.000000
vt 0.000000 0.000000
vt 0.000000 0.000000
vt 0.000000 0.000000
vt 0.000000 0.000000
vt 0.000000 0.000000
vt 0.000000 0.000000
vt 0.000000 0.000000
vt 0.000000 0.000000
vt 0.000000 0.000000
vt 0.000000 0.000000
vt 0.000000 0.000000
vt 0.000000 0.000000
vt 0.000000 0.000000
vt 0.000000 0.000000
vt 0.000000 0.000000
vt 0.000000 0.000000
vt 0.000000 0.000000
vt 0.000000 0.000000
vt 0.000000 0.000000
vt 0.000000 0.000000
vt 0.000000 0.000000
vt 0.000000 0.000000
vt 0.000000 0.000000
vt 0.000000 0.000000
vt 0.000000 0.000000
vt 0.000000 0.000000
vt 0.000000 0.000000
vt 0.000000 0.000000
vt 0.000000 0.000000
vt 0.000000 0.000000
vt 0.000000 0.000000
vt 0.000000 0.000000
vt 0.000000 0.000000
vt 0.000000 0.000000
vt 0.000000 0.000000
vt 0.000000 0.000000
vt 0.000000 0.000000
vt 0.000000 0.000000
vt 0.000000 0.000000
vt 0.000000 0.000000
vt 0.000000 0.000000
vt 0.000000 0.000000
vt 0.000000 0.000000
vt 0.000000 0.000000
vt 0.000000 0.000000
vt 0.000000 0.000000
vt 0.000000 0.000000
vt 0.000000 0.000000
vt 0.000000 0.000000
vt 0.000000 0.000000
vt 0.000000 0.000000
vt 0.000000 0.000000
vt 0.000000 0.000000
vt 0.000000 0.000000
vt 0.000000 0.000000
vt 0.000000 0.000000
vt 0.000000 0.000000
vt 0.000000 0.000000
vt 0.000000 0.000000
vt 0.000000 0.000000
vt 0.000000 0.000000
vt 0.000000 0.000000
vt 0.000000 0.000000
vt 0.000000 0.000000
vt 0.000000 0.000000
vt 0.000000 0.000000
vt 0.000000 0.000000
vn 0.894427 -0.447214 0.000000
vn 0.894427 -0.447214 0.000000
vn 0.973249 -0.229753 0.000000
vn 0.894427 -0.447214 0.000000
vn 0.973249 -0.229753 0.000000
vn 0.973249 -0.229753 0.000000
vn 0.601316 -0.526152 0.601317
vn 0.601316 -0.526152 0.601317
vn 0.601316 -0.526152 0.601317
vn 0.601316 -0.526152 0.601317
vn 0.601316 -0.526152 0.601317
vn 0.601316 -0.526152 0.601317
vn 0.000000 1.000000 0.000000
vn 0.000000 1.000000 0.000000
vn 0.000000 1.000000 0.000000
vn 0.000000 1.000000 0.000000
vn 0.000000 1.000000 0.000000
vn 0.000000 1.000000 0.000000
vn -0.371391 0.557086 -0.742781
vn -0.189567 0.645274 -0.740058
vn -0.189567 0.645274 -0.740058
vn -0.371391 0.557086 -0.742781
vn -0.189567 0.645274 -0.740058
vn -0.371391 0.557086 -0.742781
vn -0.189567 0.645274 -0.740058
vn 0.000000 0.707107 -0.707107
vn 0.000000 0.707107 -0.707107
vn -0.189567 0.645274 -0.740058
vn 0.000000 0.707107 -0.707107
vn -0.189567 0.645274 -0.740058
vn 0.000000 1.000000 0.000000
vn 0.000000 1.000000 0.000000
vn 0.000000 1.000000 0.000000
vn 0.000000 1.000000 0.000000
vn 0.000000 1.000000 0.000000
vn 0.000000 1.000000 0.000000
vn 0.000000 1.000000 0.000000
vn 0.000000 1.000000 0.000000
vn 0.000000 1.000000 0.000000
vn 0.000000 1.000000 0.000000
vn 0.000000 1.000000 0.000000
vn 0.000000 1.000000 0.000000
vn 0.444444 0.777778 -0.444444
vn 0.444444 0.777778 -0.444444
vn 0.444444 0.777778 -0.444444
vn 0.444444 0.777778 -0.444444
vn 0.444444 0.777778 -0.444444
vn 0.444444 0.777778 -0.444444
vn 0.707107 0.707107 0.000000
vn 0.707107 0.707107 0.000000
vn 0.707107 0.707107 0.000000
vn 0.707107 0.707107 0.000000
vn 0.707107 0.707107 0.000000
vn 0.707107 0.707107 0.000000
vn 0.000000 1.000000 0.000000
vn 0.000000 1.000000 0.000000
vn 0.000000 1.000000 0.000000
vn 0.000000 1.000000 0.000000
vn 0.000000 1.000000 0.000000
vn 0.000000 1.000000 0.000000
vn 0.000000 1.000000 0.000000
vn 0.000000 1.000000 0.000000
vn 0.000000 1.000000 0.000000
vn 0.000000 1.000000 0.000000
vn 0.000000 1.000000 0.000000
vn 0.000000 1.000000 0.000000
vn 0.000000 -0.447214 0.894427
vn -0.217468 -0.392475 0.893684
vn -0.228232 -0.200463 0.952746
vn 0.000000 -0.447214 0.894427
vn -0.228232 -0.200463 0.952746
vn 0.000000 -0.229753 0.973249
vn -0.217468 -0.392475 0.893684
vn -0.423999 -0.317999 0.847998
vn -0.441372 -0.161104 0.882744
vn -0.217468 -0.392475 0.893684
vn -0.441372 -0.161104 0.882744
vn -0.228232 -0.200463 0.952746
vn 0.000000 1.000000 0.000000
vn 0.000000 1.000000 0.000000
vn 0.000000 1.000000 0.000000
vn 0.000000 1.000000 0.000000
vn 0.000000 1.000000 0.000000
vn 0.012459 0.999845 -0.012459
vn -0.678915 0.279553 0.678915
vn -0.678915 0.279553 0.678915
vn -0.700023 0.141191 0.700023
vn -0.678915 0.279553 0.678915
vn -0.700023 0.141191 0.700023
vn -0.700023 0.141191 0.700023
vn -0.678915 0.279553 -0.678915
vn -0.678915 0.279553 -0.678915
vn -0.700023 0.141191 -0.700023
vn -0.678915 0.279553 -0.678915
vn -0.700023 0.141191 -0.700023
vn -0.700023 0.141191 -0.700023
vn 0.000000 0.229039 -0.973417
vn 0.000000 0.229039 -0.973417
vn 0.000000 0.115288 -0.993332
vn 0.000000 0.229039 -0.973417
vn 0.000000 0.115288 -0.993332
vn 0.153601 0.078666 -0.984997
vn 0.000000 0.229039 -0.973417
vn 0.153601 0.078666 -0.984997
vn 0.000000 0.229039 -0.973417
vn 0.000000 0.229039 0.973417
vn 0.153601 0.078666 0.984997
vn 0.000000 0.115288 0.993332
vn 0.000000 0.229039 0.973417
vn 0.000000 0.115288 0.993332
vn 0.000000 0.229039 0.973417
vn 0.000000 0.229039 0.973417
vn 0.000000 0.229039 0.973417
vn 0.000000 0.229039 0.973417
vn -0.973417 0.229039 -0.000000
vn -0.973417 0.229039 -0.000000
vn -0.973417 0.229039 -0.000000
vn -0.973417 0.229039 -0.000000
vn -0.973417 0.229039 -0.000000
vn -0.993332 0.115288 -0.000000
vn -0.973417 0.229039 -0.000000
vn -0.993332 0.115288 -0.000000
vn -0.993332 0.115288 -0.000000
vn 0.444444 0.777778 0.444445
vn 0.444444 0.777778 0.444445
vn 0.444444 0.777778 0.444445
vn 0.444444 0.777778 0.444445
vn 0.444444 0.777778 0.444445
vn 0.444444 0.777778 0.444445
vn 0.000000 0.707107 0.707107
vn -0.189567 0.645274 0.740058
vn -0.189567 0.645274 0.740058
vn 0.000000 0.707107 0.707107
vn -0.189567 0.645274 0.740058
vn 0.000000 0.707107 0.707107
vn 1.000000 0.000000 0.000000
vn 0.973249 -0.229753 0.000000
vn 0.973249 -0.229753 0.000000
vn 1.000000 0.000000 0.000000
vn 0.973249 -0.229753 0.000000
vn 1.000000 0.000000 0.000000
vn 0.153601 0.078666 0.984997
vn 0.447214 0.000000 0.894427
vn 0.441372 -0.161104 0.882744
vn 0.153601 0.078666 0.984997
vn 0.441372 -0.161104 0.882744
vn 0.228232 -0.200463 0.952746
vn 0.000000 0.115288 0.993332
vn 0.153601 0.078666 0.984997
vn 0.228232 -0.200463 0.952746
vn 0.000000 0.115288 0.993332
vn 0.228232 -0.200463 0.952746
vn 0.000000 -0.229753 0.973249
vn -0.700023 0.141191 0.700023
vn -0.700023 0.141191 0.700023
vn -0.707107 0.000000 0.707107
vn -0.700023 0.141191 0.700023
vn -0.707107 0.000000 0.707107
vn -0.707107 0.000000 0.707107
vn -0.993332 0.115288 -0.000000
vn -0.993332 0.115288 -0.000000
vn -0.973249 -0.229753 -0.000000
vn -0.993332 0.115288 -0.000000
vn -0.973249 -0.229753 -0.000000
vn -0.973249 -0.229753 -0.000000
vn -0.700023 0.141191 -0.700023
vn -0.700023 0.141191 -0.700023
vn -0.707107 0.000000 -0.707107
vn -0.700023 0.141191 -0.700023
vn -0.707107 0.000000 -0.707107
vn -0.707107 0.000000 -0.707107
vn 0.153601 0.078666 -0.984997
vn 0.000000 0.115288 -0.993332
vn 0.000000 -0.229753 -0.973249
vn 0.153601 0.078666 -0.984997
vn 0.000000 -0.229753 -0.973249
vn 0.228232 -0.200463 -0.952746
vn 0.447214 0.000000 -0.894427
vn 0.153601 0.078666 -0.984997
vn 0.228232 -0.200463 -0.952746
vn 0.447214 0.000000 -0.894427
vn 0.228232 -0.200463 -0.952746
vn 0.441372 -0.161104 -0.882744
vn 0.973249 -0.229753 0.000000
vn 0.894427 -0.447214 0.000000
vn 0.894427 -0.447214 0.000000
vn 0.973249 -0.229753 0.000000
vn 0.894427 -0.447214 0.000000
vn 0.973249 -0.229753 0.000000
vn 0.228232 -0.200463 0.952746
vn 0.441372 -0.161104 0.882744
vn 0.423999 -0.317999 0.847998
vn 0.228232 -0.200463 0.952746
vn 0.423999 -0.317999 0.847998
vn 0.217468 -0.392475 0.893684
vn 0.000000 -0.229753 0.973249
vn 0.228232 -0.200463 0.952746
vn 0.217468 -0.392475 0.893684
vn 0.000000 -0.229753 0.973249
vn 0.217468 -0.392475 0.893684
vn 0.000000 -0.447214 0.894427
vn -0.601317 -0.526152 0.601317
vn -0.601317 -0.526152 0.601317
vn -0.601317 -0.526152 0.601317
vn -0.601317 -0.526152 0.601317
vn -0.601317 -0.526152 0.601317
vn -0.601317 -0.526152 0.601317
vn -0.973249 -0.229753 -0.000000
vn -0.973249 -0.229753 -0.000000
vn -0.894427 -0.447214 -0.000000
vn -0.973249 -0.229753 -0.000000
vn -0.894427 -0.447214 -0.000000
vn -0.894427 -0.447214 -0.000000
vn -0.601317 -0.526152 -0.601317
vn -0.601317 -0.526152 -0.601317
vn -0.601317 -0.526152 -0.601317
vn -0.601317 -0.526152 -0.601317
vn -0.601317 -0.526152 -0.601317
vn -0.601317 -0.526152 -0.601317
vn 0.228232 -0.200463 -0.952746
vn 0.000000 -0.229753 -0.973249
vn 0.000000 -0.447214 -0.894427
vn 0.228232 -0.200463 -0.952746
vn 0.000000 -0.447214 -0.894427
vn 0.217468 -0.392475 -0.893684
vn 0.441372 -0.161104 -0.882744
vn 0.228232 -0.200463 -0.952746
vn 0.217468 -0.392475 -0.893684
vn 0.441372 -0.161104 -0.882744
vn 0.217468 -0.392475 -0.893684
vn 0.423999 -0.317999 -0.847998
vn 0.000000 1.000000 0.000000
vn 0.000000 1.000000 0.000000
vn 0.000000 1.000000 0.000000
vn 0.000000 1.000000 0.000000
vn 0.000000 1.000000 0.000000
vn 0.000000 1.000000 0.000000
vn 0.000000 1.000000 0.000000
vn 0.000000 1.000000 0.000000
vn 0.000000 1.000000 0.000000
vn 0.000000 1.000000 0.000000
vn 0.000000 1.000000 0.000000
vn 0.000000 1.000000 0.000000
vn 0.000000 1.000000 0.000000
vn 0.000000 1.000000 0.000000
vn 0.000000 1.000000 0.000000
vn 0.000000 1.000000 0.000000
vn 0.000000 1.000000 0.000000
vn 0.000000 1.000000 0.000000
vn 0.707107 0.707107 0.000000
vn 0.707107 0.707107 0.000000
vn 0.707107 0.707107 0.000000
vn 0.707107 0.707107 0.000000
vn 0.707107 0.707107 0.000000
vn 0.707107 0.707107 0.000000
vn 0.189567 0.645274 0.740058
vn 0.371391 0.557086 0.742781
vn 0.371391 0.557086 0.742781
vn 0.189567 0.645274 0.740058
vn 0.371391 0.557086 0.742781
vn 0.189567 0.645274 0.740058
vn 0.000000 0.707107 0.707107
vn 0.189567 0.645274 0.740058
vn 0.189567 0.645274 0.740058
vn 0.000000 0.707107 0.707107
vn 0.189567 0.645274 0.740058
vn 0.000000 0.707107 0.707107
vn -0.444444 0.777778 0.444444
vn -0.444444 0.777778 0.444444
vn -0.444444 0.777778 0.444444
vn -0.444444 0.777778 0.444444
vn -0.444444 0.777778 0.444444
vn -0.444444 0.777778 0.444444
vn -0.707107 0.707107 -0.000000
vn -0.707107 0.707107 -0.000000
vn -0.707107 0.707107 -0.000000
vn -0.707107 0.707107 -0.000000
vn -0.707107 0.707107 -0.000000
vn -0.707107 0.707107 -0.000000
vn -0.444444 0.777778 -0.444444
vn -0.444444 0.777778 -0.444444
vn -0.444444 0.777778 -0.444444
vn -0.444444 0.777778 -0.444444
vn -0.444444 0.777778 -0.444444
vn -0.444444 0.777778 -0.444444
vn 0.189567 0.645274 -0.740058
vn 0.000000 0.707107 -0.707107
vn 0.000000 0.707107 -0.707107
vn 0.189567 0.645274 -0.740058
vn 0.000000 0.707107 -0.707107
vn 0.189567 0.645274 -0.740058
vn 0.371391 0.557086 -0.742781
vn 0.189567 0.645274 -0.740058
vn 0.189567 0.645274 -0.740058
vn 0.371391 0.557086 -0.742781
vn 0.189567 0.645274 -0.740058
vn 0.371391 0.557086 -0.742781
vn -0.973249 -0.229753 0.000000
vn -0.894427 -0.447214 0.000000
vn -0.894427 -0.447214 0.000000
vn -0.973249 -0.229753 0.000000
vn -0.894427 -0.447214 0.000000
vn -0.973249 -0.229753 0.000000
vn -0.441372 -0.161104 -0.882744
vn -0.228231 -0.200463 -0.952746
vn -0.153601 0.078666 -0.984997
vn -0.441372 -0.161104 -0.882744
vn -0.153601 0.078666 -0.984997
vn -0.447213 0.000000 -0.894427
vn 0.000000 1.000000 0.000000
vn 0.000000 1.000000 0.000000
vn 0.000000 1.000000 0.000000
vn 0.000000 1.000000 0.000000
vn 0.000000 1.000000 0.000000
vn -0.012459 0.999845 0.012459
vn -0.189567 0.645274 0.740058
vn -0.371391 0.557086 0.742781
vn -0.371391 0.557086 0.742781
vn -0.189567 0.645274 0.740058
vn -0.371391 0.557086 0.742781
vn -0.189567 0.645274 0.740058
vn -0.707107 0.707107 0.000000
vn -0.707107 0.707107 0.000000
vn -0.707107 0.707107 0.000000
vn -0.707107 0.707107 0.000000
vn -0.707107 0.707107 0.000000
vn -0.707107 0.707107 0.000000
vn 0.000000 1.000000 0.000000
vn 0.000000 1.000000 0.000000
vn 0.000000 1.000000 0.000000
vn 0.000000 1.000000 0.000000
vn 0.000000 1.000000 0.000000
vn 0.000000 1.000000 0.000000
vn 0.000000 1.000000 0.000000
vn 0.000000 1.000000 0.000000
vn 0.000000 1.000000 0.000000
vn 0.000000 1.000000 0.000000
vn 0.000000 1.000000 0.000000
vn 0.000000 1.000000 0.000000
vn 0.000000 1.000000 0.000000
vn 0.000000 1.000000 0.000000
vn 0.000000 1.000000 0.000000
vn 0.000000 1.000000 0.000000
vn 0.000000 1.000000 0.000000
vn 0.000000 1.000000 0.000000
vn 0.000000 1.000000 0.000000
vn 0.000000 1.000000 0.000000
vn 0.000000 1.000000 0.000000
vn 0.000000 1.000000 0.000000
vn 0.000000 1.000000 0.000000
vn 0.000000 1.000000 0.000000
vn 0.000000 1.000000 0.000000
vn 0.000000 1.000000 0.000000
vn 0.000000 1.000000 0.000000
vn 0.000000 1.000000 0.000000
vn 0.000000 1.000000 0.000000
vn 0.000000 1.000000 0.000000
vn -0.423999 -0.317999 -0.847998
vn -0.217468 -0.392475 -0.893684
vn -0.228231 -0.200463 -0.952746
vn -0.423999 -0.317999 -0.847998
vn -0.228231 -0.200463 -0.952746
vn -0.441372 -0.161104 -0.882744
vn 0.000000 1.000000 0.000000
vn 0.000000 1.000000 0.000000
vn 0.000000 1.000000 0.000000
vn 0.000000 1.000000 0.000000
vn 0.000000 1.000000 0.000000
vn 0.000000 1.000000 0.000000
vn 0.000000 1.000000 0.000000
vn 0.000000 1.000000 0.000000
vn 0.000000 1.000000 0.000000
vn 0.000000 1.000000 0.000000
vn 0.000000 1.000000 0.000000
vn 0.000000 1.000000 0.000000
vn -0.228231 -0.200463 -0.952746
vn 0.000000 -0.229753 -0.973249
vn 0.000000 0.115288 -0.993332
vn -0.228231 -0.200463 -0.952746
vn 0.000000 0.115288 -0.993332
vn -0.153601 0.078666 -0.984997
vn 0.707107 0.000000 -0.707107
vn 0.707107 0.000000 -0.707107
vn 0.700023 0.141191 -0.700023
vn 0.707107 0.000000 -0.707107
vn 0.700023 0.141191 -0.700023
vn 0.700023 0.141191 -0.700023
vn 0.000000 1.000000 0.000000
vn 0.000000 1.000000 0.000000
vn 0.000000 1.000000 0.000000
vn 0.000000 1.000000 0.000000
vn 0.000000 1.000000 0.000000
vn 0.000000 1.000000 0.000000
vn 0.700023 0.141191 0.700023
vn 0.700023 0.141191 0.700023
vn 0.678915 0.279553 0.678915
vn 0.700023 0.141191 0.700023
vn 0.678915 0.279553 0.678915
vn 0.678915 0.279553 0.678915
vn 0.700023 0.141191 -0.700023
vn 0.700023 0.141191 -0.700023
vn 0.678915 0.279553 -0.678915
vn 0.700023 0.141191 -0.700023
vn 0.678915 0.279553 -0.678915
vn 0.678915 0.279553 -0.678915
vn -0.217468 -0.392475 -0.893684
vn 0.000000 -0.447214 -0.894427
vn 0.000000 -0.229753 -0.973249
vn -0.217468 -0.392475 -0.893684
vn 0.000000 -0.229753 -0.973249
vn -0.228231 -0.200463 -0.952746
vn 0.000000 0.229039 -0.973417
vn -0.153601 0.078666 -0.984997
vn 0.000000 0.115288 -0.993332
vn 0.000000 0.229039 -0.973417
vn 0.000000 0.115288 -0.993332
vn 0.000000 0.229039 -0.973417
vn 0.000000 0.229039 -0.973417
vn 0.000000 0.229039 -0.973417
vn 0.000000 0.229039 -0.973417
vn 0.000000 0.229039 0.973417
vn 0.000000 0.229039 0.973417
vn 0.000000 0.115288 0.993332
vn 0.000000 0.229039 0.973417
vn 0.000000 0.115288 0.993332
vn -0.153601 0.078666 0.984997
vn 0.000000 0.229039 0.973417
vn -0.153601 0.078666 0.984997
vn 0.000000 0.229039 0.973417
vn 0.993332 0.115288 0.000000
vn 0.993332 0.115288 0.000000
vn 0.973417 0.229039 0.000000
vn 0.993332 0.115288 0.000000
vn 0.973417 0.229039 0.000000
vn 0.973417 0.229039 0.000000
vn 0.993332 0.115288 0.000000
vn 0.973417 0.229039 0.000000
vn 0.973417 0.229039 0.000000
vn 0.601317 -0.526152 -0.601317
vn 0.601317 -0.526152 -0.601317
vn 0.601317 -0.526152 -0.601317
vn 0.601317 -0.526152 -0.601317
vn 0.601317 -0.526152 -0.601317
vn 0.601317 -0.526152 -0.601317
vn -1.000000 0.000000 0.000000
vn -0.973249 -0.229753 0.000000
vn -0.973249 -0.229753 0.000000
vn -1.000000 0.000000 0.000000
vn -0.973249 -0.229753 0.000000
vn -1.000000 0.000000 0.000000
vn -0.228232 -0.200463 0.952746
vn -0.441372 -0.161104 0.882744
vn -0.447213 0.000000 0.894427
vn -0.228232 -0.200463 0.952746
vn -0.447213 0.000000 0.894427
vn -0.153601 0.078666 0.984997
vn 0.000000 -0.229753 0.973249
vn -0.228232 -0.200463 0.952746
vn -0.153601 0.078666 0.984997
vn 0.000000 -0.229753 0.973249
vn -0.153601 0.078666 0.984997
vn 0.000000 0.115288 0.993332
vn 0.707107 0.000000 0.707107
vn 0.707107 0.000000 0.707107
vn 0.700023 0.141191 0.700023
vn 0.707107 0.000000 0.707107
vn 0.700023 0.141191 0.700023
vn 0.700023 0.141191 0.700023
vn 0.973249 -0.229753 0.000000
vn 0.973249 -0.229753 0.000000
vn 0.993332 0.115288 0.000000
vn 0.973249 -0.229753 0.000000
vn 0.993332 0.115288 0.000000
vn 0.993332 0.115288 0.000000
vn 0.012459 0.999845 -0.012459
vn 0.000000 1.000000 0.000000
vn 0.000000 1.000000 0.000000
vn 0.012459 0.999845 -0.012459
vn 0.000000 1.000000 0.000000
vn 0.000000 1.000000 0.000000
vn 0.012459 0.999845 -0.012459
vn 0.000000 1.000000 0.000000
vn 0.000000 1.000000 0.000000
vn 0.012459 0.999845 -0.012459
vn 0.000000 1.000000 0.000000
vn 0.000000 1.000000 0.000000
vn -0.742781 0.557086 0.371391
vn -0.740058 0.645274 0.189567
vn -0.740058 0.645274 0.189567
vn -0.742781 0.557086 0.371391
vn -0.740058 0.645274 0.189567
vn -0.742781 0.557086 0.371391
vn -0.740058 0.645274 0.189567
vn -0.707107 0.707107 0.000000
vn -0.707107 0.707107 0.000000
vn -0.740058 0.645274 0.189567
vn -0.707107 0.707107 0.000000
vn -0.740058 0.645274 0.189567
vn 0.000000 1.000000 0.000000
vn 0.000000 1.000000 0.000000
vn 0.000000 1.000000 0.000000
vn 0.000000 1.000000 0.000000
vn 0.000000 1.000000 0.000000
vn 0.000000 1.000000 0.000000
vn 0.000000 1.000000 0.000000
vn 0.000000 1.000000 0.000000
vn 0.000000 1.000000 0.000000
vn 0.000000 1.000000 0.000000
vn 0.000000 1.000000 0.000000
vn 0.000000 1.000000 0.000000
vn -0.444445 0.777778 -0.444444
vn -0.444445 0.777778 -0.444444
vn -0.444445 0.777778 -0.444444
vn -0.444445 0.777778 -0.444444
vn -0.444445 0.777778 -0.444444
vn -0.444445 0.777778 -0.444444
vn 0.000000 0.707107 -0.707107
vn 0.000000 0.707107 -0.707107
vn 0.000000 0.707107 -0.707107
vn 0.000000 0.707107 -0.707107
vn 0.000000 0.707107 -0.707107
vn 0.000000 0.707107 -0.707107
vn 0.000000 1.000000 0.000000
vn 0.000000 1.000000 0.000000
vn 0.000000 1.000000 0.000000
vn 0.000000 1.000000 0.000000
vn 0.000000 1.000000 0.000000
vn 0.000000 1.000000 0.000000
vn 0.000000 1.000000 0.000000
vn 0.000000 1.000000 0.000000
vn 0.000000 1.000000 0.000000
vn 0.000000 1.000000 0.000000
vn 0.000000 1.000000 0.000000
vn 0.000000 1.000000 0.000000
vn 0.601317 -0.526152 -0.601316
vn 0.601317 -0.526152 -0.601316
vn 0.601317 -0.526152 -0.601316
vn 0.601317 -0.526152 -0.601316
vn 0.601317 -0.526152 -0.601316
vn 0.601317 -0.526152 -0.601316
vn 0.000000 1.000000 0.000000
vn 0.000000 1.000000 0.000000
vn 0.000000 1.000000 0.000000
vn 0.000000 1.000000 0.000000
vn 0.000000 1.000000 0.000000
vn 0.000000 1.000000 0.000000
vn 0.678915 0.279553 0.678915
vn 0.678915 0.279553 0.678915
vn 0.700023 0.141191 0.700023
vn 0.678915 0.279553 0.678915
vn 0.700023 0.141191 0.700023
vn 0.700023 0.141191 0.700023
vn -0.678915 0.279553 0.678915
vn -0.678915 0.279553 0.678915
vn -0.700023 0.141191 0.700023
vn -0.678915 0.279553 0.678915
vn -0.700023 0.141191 0.700023
vn -0.700023 0.141191 0.700023
vn -0.973417 0.229039 0.000000
vn -0.973417 0.229039 0.000000
vn -0.993332 0.115288 0.000000
vn -0.973417 0.229039 0.000000
vn -0.993332 0.115288 0.000000
vn -0.984997 0.078666 -0.153601
vn -0.973417 0.229039 0.000000
vn -0.984997 0.078666 -0.153601
vn -0.973417 0.229039 0.000000
vn 0.973417 0.229039 0.000000
vn 0.984997 0.078666 -0.153601
vn 0.993332 0.115288 0.000000
vn 0.973417 0.229039 0.000000
vn 0.993332 0.115288 0.000000
vn 0.973417 0.229039 0.000000
vn 0.973417 0.229039 0.000000
vn 0.973417 0.229039 0.000000
vn 0.973417 0.229039 0.000000
vn 0.000000 0.229039 0.973417
vn 0.000000 0.229039 0.973417
vn 0.000000 0.229039 0.973417
vn 0.000000 0.229039 0.973417
vn 0.000000 0.229039 0.973417
vn 0.000000 0.115288 0.993332
vn 0.000000 0.229039 0.973417
vn 0.000000 0.115288 0.993332
vn 0.000000 0.115288 0.993332
vn 0.444445 0.777778 -0.444444
vn 0.444445 0.777778 -0.444444
vn 0.444445 0.777778 -0.444444
vn 0.444445 0.777778 -0.444444
vn 0.444445 0.777778 -0.444444
vn 0.444445 0.777778 -0.444444
vn 0.707107 0.707107 0.000000
vn 0.740058 0.645275 0.189567
vn 0.740058 0.645275 0.189567
vn 0.707107 0.707107 0.000000
vn 0.740058 0.645275 0.189567
vn 0.707107 0.707107 0.000000
vn 0.000000 0.000000 -1.000000
vn 0.000000 -0.229753 -0.973249
vn 0.000000 -0.229753 -0.973249
vn 0.000000 0.000000 -1.000000
vn 0.000000 -0.229753 -0.973249
vn 0.000000 0.000000 -1.000000
vn 0.984997 0.078666 -0.153601
vn 0.894427 0.000000 -0.447214
vn 0.882744 -0.161104 -0.441372
vn 0.984997 0.078666 -0.153601
vn 0.882744 -0.161104 -0.441372
vn 0.952746 -0.200463 -0.228232
vn 0.993332 0.115288 0.000000
vn 0.984997 0.078666 -0.153601
vn 0.952746 -0.200463 -0.228232
vn 0.993332 0.115288 0.000000
vn 0.952746 -0.200463 -0.228232
vn 0.973249 -0.229753 0.000000
vn 0.700023 0.141191 0.700023
vn 0.700023 0.141191 0.700023
vn 0.707107 0.000000 0.707107
vn 0.700023 0.141191 0.700023
vn 0.707107 0.000000 0.707107
vn 0.707107 0.000000 0.707107
vn 0.000000 0.115288 0.993332
vn 0.000000 0.115288 0.993332
vn 0.000000 -0.229753 0.973249
vn 0.000000 0.115288 0.993332
vn 0.000000 -0.229753 0.973249
vn 0.000000 -0.229753 0.973249
vn -0.700023 0.141191 0.700023
vn -0.700023 0.141191 0.700023
vn -0.707107 0.000000 0.707107
vn -0.700023 0.141191 0.700023
vn -0.707107 0.000000 0.707107
vn -0.707107 0.000000 0.707107
vn -0.984997 0.078666 -0.153601
vn -0.993332 0.115288 0.000000
vn -0.973249 -0.229753 -0.000000
vn -0.984997 0.078666 -0.153601
vn -0.973249 -0.229753 -0.000000
vn -0.952746 -0.200463 -0.228232
vn -0.894427 0.000000 -0.447214
vn -0.984997 0.078666 -0.153601
vn -0.952746 -0.200463 -0.228232
vn -0.894427 0.000000 -0.447214
vn -0.952746 -0.200463 -0.228232
vn -0.882744 -0.161104 -0.441372
vn 0.000000 1.000000 0.000000
vn 0.000000 1.000000 0.000000
vn 0.000000 1.000000 0.000000
vn 0.000000 1.000000 0.000000
vn 0.000000 1.000000 0.000000
vn 0.000000 1.000000 0.000000
vn -0.893684 -0.392475 -0.217468
vn -0.952746 -0.200463 -0.228232
vn -0.973249 -0.229753 -0.000000
vn -0.893684 -0.392475 -0.217468
vn -0.973249 -0.229753 -0.000000
vn -0.894427 -0.447213 -0.000000
vn -0.601317 -0.526152 0.601317
vn -0.601317 -0.526152 0.601317
vn -0.601317 -0.526152 0.601317
vn -0.601317 -0.526152 0.601317
vn -0.601317 -0.526152 0.601317
vn -0.601317 -0.526152 0.601317
vn 0.000000 -0.447214 0.894427
vn 0.000000 -0.229753 0.973249
vn 0.000000 -0.229753 0.973249
vn 0.000000 -0.447214 0.894427
vn 0.000000 -0.229753 0.973249
vn 0.000000 -0.447214 0.894427
vn 0.601317 -0.526152 0.601317
vn 0.601317 -0.526152 0.601317
vn 0.601317 -0.526152 0.601317
vn 0.601317 -0.526152 0.601317
vn 0.601317 -0.526152 0.601317
vn 0.601317 -0.526152 0.601317
vn 0.894427 -0.447214 0.000000
vn 0.973249 -0.229753 0.000000
vn 0.952746 -0.200463 -0.228232
vn 0.894427 -0.447214 0.000000
vn 0.952746 -0.200463 -0.228232
vn 0.893684 -0.392475 -0.217468
vn 0.893684 -0.392475 -0.217468
vn 0.952746 -0.200463 -0.228232
vn 0.882744 -0.161104 -0.441372
vn 0.893684 -0.392475 -0.217468
vn 0.882744 -0.161104 -0.441372
vn 0.847998 -0.317999 -0.423999
vn 0.000000 -0.447214 -0.894427
vn 0.000000 -0.229753 -0.973249
vn 0.000000 -0.229753 -0.973249
vn 0.000000 -0.447214 -0.894427
vn 0.000000 -0.229753 -0.973249
vn 0.000000 -0.447214 -0.894427
vn -0.847998 -0.317999 -0.423999
vn -0.882744 -0.161104 -0.441372
vn -0.952746 -0.200463 -0.228232
vn -0.847998 -0.317999 -0.423999
vn -0.952746 -0.200463 -0.228232
vn -0.893684 -0.392475 -0.217468
vn 0.000000 1.000000 0.000000
vn 0.000000 1.000000 0.000000
vn 0.000000 1.000000 0.000000
vn 0.000000 1.000000 0.000000
vn 0.000000 1.000000 0.000000
vn 0.000000 1.000000 0.000000
vn 0.000000 1.000000 0.000000
vn 0.000000 1.000000 0.000000
vn 0.000000 1.000000 0.000000
vn 0.000000 1.000000 0.000000
vn 0.000000 1.000000 0.000000
vn 0.000000 1.000000 0.000000
vn 0.000000 1.000000 0.000000
vn 0.000000 1.000000 0.000000
vn 0.000000 1.000000 0.000000
vn 0.000000 1.000000 0.000000
vn 0.000000 1.000000 0.000000
vn 0.000000 1.000000 0.000000
vn 0.000000 1.000000 0.000000
vn 0.000000 1.000000 0.000000
vn 0.000000 1.000000 0.000000
vn 0.000000 1.000000 0.000000
vn 0.000000 1.000000 0.000000
vn 0.000000 1.000000 0.000000
vn 0.000000 1.000000 0.000000
vn 0.000000 1.000000 0.000000
vn 0.000000 1.000000 0.000000
vn 0.000000 1.000000 0.000000
vn 0.000000 1.000000 0.000000
vn 0.000000 1.000000 0.000000
vn 0.000000 1.000000 0.000000
vn 0.000000 1.000000 0.000000
vn 0.000000 1.000000 0.000000
vn 0.894427 -0.447214 0.000000
vn 0.893684 -0.392475 0.217468
vn 0.952746 -0.200463 0.228231
vn 0.894427 -0.447214 0.000000
vn 0.952746 -0.200463 0.228231
vn 0.973249 -0.229753 0.000000
vn 0.000000 1.000000 0.000000
vn 0.000000 1.000000 0.000000
vn 0.000000 1.000000 0.000000
vn 0.000000 1.000000 0.000000
vn 0.000000 1.000000 0.000000
vn 0.000000 1.000000 0.000000
vn 0.740058 0.645275 0.189567
vn 0.742781 0.557086 0.371391
vn 0.742781 0.557086 0.371391
vn 0.740058 0.645275 0.189567
vn 0.742781 0.557086 0.371391
vn 0.740058 0.645275 0.189567
vn 0.000000 0.707107 0.707107
vn 0.000000 0.707107 0.707107
vn 0.000000 0.707107 0.707107
vn 0.000000 0.707107 0.707107
vn 0.000000 0.707107 0.707107
vn 0.000000 0.707107 0.707107
vn 0.000000 1.000000 0.000000
vn 0.000000 1.000000 0.000000
vn 0.000000 1.000000 0.000000
vn 0.000000 1.000000 0.000000
vn 0.000000 1.000000 0.000000
vn 0.000000 1.000000 0.000000
vn 0.000000 1.000000 0.000000
vn 0.000000 1.000000 0.000000
vn 0.000000 1.000000 0.000000
vn 0.000000 1.000000 0.000000
vn 0.000000 1.000000 0.000000
vn 0.000000 1.000000 0.000000
vn 0.000000 1.000000 0.000000
vn 0.000000 1.000000 0.000000
vn 0.000000 1.000000 0.000000
vn 0.000000 1.000000 0.000000
vn 0.000000 1.000000 0.000000
vn 0.000000 1.000000 0.000000
vn 0.000000 1.000000 0.000000
vn 0.000000 1.000000 0.000000
vn 0.000000 1.000000 0.000000
vn 0.000000 1.000000 0.000000
vn 0.000000 1.000000 0.000000
vn 0.000000 1.000000 0.000000
vn 0.000000 1.000000 0.000000
vn 0.000000 1.000000 0.000000
vn 0.000000 1.000000 0.000000
vn 0.000000 1.000000 0.000000
vn 0.000000 1.000000 0.000000
vn 0.000000 1.000000 0.000000
vn -0.847998 -0.317999 0.423999
vn -0.893684 -0.392475 0.217468
vn -0.952746 -0.200463 0.228232
vn -0.847998 -0.317999 0.423999
vn -0.952746 -0.200463 0.228232
vn -0.882744 -0.161104 0.441372
vn 0.000000 1.000000 0.000000
vn 0.000000 1.000000 0.000000
vn 0.000000 1.000000 0.000000
vn 0.000000 1.000000 0.000000
vn 0.000000 1.000000 0.000000
vn 0.000000 1.000000 0.000000
vn 0.000000 1.000000 0.000000
vn 0.000000 1.000000 0.000000
vn 0.000000 1.000000 0.000000
vn 0.000000 1.000000 0.000000
vn 0.000000 1.000000 0.000000
vn 0.000000 1.000000 0.000000
vn 0.893684 -0.392475 0.217468
vn 0.847998 -0.317999 0.423999
vn 0.882744 -0.161104 0.441372
vn 0.893684 -0.392475 0.217468
vn 0.882744 -0.161104 0.441372
vn 0.952746 -0.200463 0.228231
vn -0.012459 0.999845 0.012459
vn 0.000000 1.000000 0.000000
vn -0.012459 0.999845 0.012459
vn -0.012459 0.999845 0.012459
vn 0.000000 1.000000 0.000000
vn 0.000000 1.000000 0.000000
vn -0.012459 0.999845 0.012459
vn 0.000000 1.000000 0.000000
vn 0.000000 1.000000 0.000000
vn 0.700023 0.141191 -0.700023
vn 0.700023 0.141191 -0.700023
vn 0.678915 0.279553 -0.678915
vn 0.700023 0.141191 -0.700023
vn 0.678915 0.279553 -0.678915
vn 0.678915 0.279553 -0.678915
vn -0.700023 0.141191 -0.700023
vn -0.700023 0.141191 -0.700023
vn -0.678915 0.279553 -0.678915
vn -0.700023 0.141191 -0.700023
vn -0.678915 0.279553 -0.678915
vn -0.678915 0.279553 -0.678915
vn -0.893684 -0.392475 0.217468
vn -0.894427 -0.447214 0.000000
vn -0.973249 -0.229753 0.000000
vn -0.893684 -0.392475 0.217468
vn -0.973249 -0.229753 0.000000
vn -0.952746 -0.200463 0.228232
vn -0.973417 0.229039 0.000000
vn -0.984997 0.078666 0.153601
vn -0.993332 0.115288 0.000000
vn -0.973417 0.229039 0.000000
vn -0.993332 0.115288 0.000000
vn -0.973417 0.229039 0.000000
vn -0.973417 0.229039 0.000000
vn -0.973417 0.229039 0.000000
vn -0.973417 0.229039 0.000000
vn 0.973417 0.229039 0.000000
vn 0.973417 0.229039 0.000000
vn 0.993332 0.115288 0.000000
vn 0.973417 0.229039 0.000000
vn 0.993332 0.115288 0.000000
vn 0.984997 0.078666 0.153601
vn 0.973417 0.229039 0.000000
vn 0.984997 0.078666 0.153601
vn 0.973417 0.229039 0.000000
vn 0.000000 0.115288 -0.993332
vn 0.000000 0.115288 -0.993332
vn 0.000000 0.229039 -0.973417
vn 0.000000 0.115288 -0.993332
vn 0.000000 0.229039 -0.973417
vn 0.000000 0.229039 -0.973417
vn 0.000000 0.115288 -0.993332
vn 0.000000 0.229039 -0.973417
vn 0.000000 0.229039 -0.973417
vn -0.601317 -0.526152 -0.601317
vn -0.601317 -0.526152 -0.601317
vn -0.601317 -0.526152 -0.601317
vn -0.601317 -0.526152 -0.601317
vn -0.601317 -0.526152 -0.601317
vn -0.601317 -0.526152 -0.601317
vn 0.000000 -0.447214 -0.894427
vn 0.000000 -0.229753 -0.973249
vn 0.000000 -0.229753 -0.973249
vn 0.000000 -0.447214 -0.894427
vn 0.000000 -0.229753 -0.973249
vn 0.000000 -0.447214 -0.894427
vn 0.000000 0.000000 1.000000
vn 0.000000 -0.229753 0.973249
vn 0.000000 -0.229753 0.973249
vn 0.000000 0.000000 1.000000
vn 0.000000 -0.229753 0.973249
vn 0.000000 0.000000 1.000000
vn 0.952746 -0.200463 0.228231
vn 0.882744 -0.161104 0.441372
vn 0.894427 0.000000 0.447213
vn 0.952746 -0.200463 0.228231
vn 0.894427 0.000000 0.447213
vn 0.984997 0.078666 0.153601
vn 0.973249 -0.229753 0.000000
vn 0.952746 -0.200463 0.228231
vn 0.984997 0.078666 0.153601
vn 0.973249 -0.229753 0.000000
vn 0.984997 0.078666 0.153601
vn 0.993332 0.115288 0.000000
vn 0.707107 0.000000 -0.707107
vn 0.707107 0.000000 -0.707107
vn 0.700023 0.141191 -0.700023
vn 0.707107 0.000000 -0.707107
vn 0.700023 0.141191 -0.700023
vn 0.700023 0.141191 -0.700023
vn 0.000000 -0.229753 -0.973249
vn 0.000000 -0.229753 -0.973249
vn 0.000000 0.115288 -0.993332
vn 0.000000 -0.229753 -0.973249
vn 0.000000 0.115288 -0.993332
vn 0.000000 0.115288 -0.993332
vn -0.707107 0.000000 -0.707107
vn -0.707107 0.000000 -0.707107
vn -0.700023 0.141191 -0.700023
vn -0.707107 0.000000 -0.707107
vn -0.700023 0.141191 -0.700023
vn -0.700023 0.141191 -0.700023
vn -0.952746 -0.200463 0.228232
vn -0.973249 -0.229753 0.000000
vn -0.993332 0.115288 0.000000
vn -0.952746 -0.200463 0.228232
vn -0.993332 0.115288 0.000000
vn -0.984997 0.078666 0.153601
vn -0.882744 -0.161104 0.441372
vn -0.952746 -0.200463 0.228232
vn -0.984997 0.078666 0.153601
vn -0.882744 -0.161104 0.441372
vn -0.984997 0.078666 0.153601
vn -0.894427 0.000000 0.447214
vn 0.000000 -0.229753 0.973249
vn 0.000000 -0.447214 0.894427
vn 0.000000 -0.447214 0.894427
vn 0.000000 -0.229753 0.973249
vn 0.000000 -0.447214 0.894427
vn 0.000000 -0.229753 0.973249
vn 0.000000 1.000000 0.000000
vn 0.000000 1.000000 0.000000
vn 0.000000 1.000000 0.000000
vn 0.000000 1.000000 0.000000
vn 0.000000 1.000000 0.000000
vn 0.000000 1.000000 0.000000
vn 0.000000 1.000000 0.000000
vn 0.000000 1.000000 0.000000
vn 0.000000 1.000000 0.000000
vn 0.000000 1.000000 0.000000
vn 0.000000 1.000000 0.000000
vn 0.000000 1.000000 0.000000
vn 0.000000 1.000000 0.000000
vn 0.000000 1.000000 0.000000
vn 0.000000 1.000000 0.000000
vn 0.000000 1.000000 0.000000
vn 0.000000 1.000000 0.000000
vn 0.000000 1.000000 0.000000
vn -0.000000 0.759257 -0.650791
vn -0.000000 0.759257 -0.650791
vn -0.000000 0.759257 -0.650791
vn -0.000000 0.759257 -0.650791
vn -0.000000 0.759257 -0.650791
vn -0.000000 0.759257 -0.650791
vn 0.000000 1.000000 0.000000
vn 0.000000 1.000000 0.000000
vn 0.000000 1.000000 0.000000
vn 0.612235 0.500337 0.612235
vn 0.545455 0.636364 0.545455
vn 0.612235 0.500337 0.612235
vn 0.612235 0.500337 -0.612235
vn 0.545455 0.636364 -0.545455
vn 0.612235 0.500337 -0.612235
vn 0.612235 0.500337 -0.612235
vn 0.612235 0.500337 -0.612235
vn 0.630987 0.451345 -0.630987
vn -0.612235 0.500337 -0.612235
vn -0.545455 0.636364 -0.545455
vn -0.612235 0.500337 -0.612235
vn -0.612235 0.500337 0.612235
vn -0.545455 0.636364 0.545455
vn -0.612235 0.500337 0.612235
vn -0.612235 0.500337 0.612235
vn -0.612235 0.500337 0.612235
vn -0.630987 0.451345 0.630987
vn -0.695796 0.178145 0.695796
vn -0.695796 0.178145 0.695796
vn -0.612235 0.500337 0.612235
vn -0.695796 0.178145 0.695796
vn -0.612235 0.500337 0.612235
vn -0.630987 0.451345 0.630987
vn 0.695796 0.178145 -0.695796
vn 0.695796 0.178145 -0.695796
vn 0.612235 0.500337 -0.612235
vn 0.695796 0.178145 -0.695796
vn 0.612235 0.500337 -0.612235
vn 0.630987 0.451345 -0.630987
vn 0.612235 0.500337 0.612235
vn 0.662226 0.350590 0.662226
vn 0.662226 0.350590 0.662226
vn 0.612235 0.500337 0.612235
vn 0.662226 0.350590 0.662226
vn 0.612235 0.500337 0.612235
vn -0.612235 0.500337 -0.612235
vn -0.662226 0.350590 -0.662226
vn -0.662226 0.350590 -0.662226
vn -0.612235 0.500337 -0.612235
vn -0.662226 0.350590 -0.662226
vn -0.612235 0.500337 -0.612235
vn -0.650791 0.759257 -0.000000
vn -0.650791 0.759257 -0.000000
vn -0.650791 0.759257 -0.000000
vn -0.650791 0.759257 -0.000000
vn -0.650791 0.759257 -0.000000
vn -0.650791 0.759257 -0.000000
vn 0.000000 1.000000 0.000000
vn 0.000000 1.000000 0.000000
vn 0.000000 1.000000 0.000000
vn 0.650791 0.759257 -0.000000
vn 0.650791 0.759257 -0.000000
vn 0.650791 0.759257 -0.000000
vn 0.650791 0.759257 -0.000000
vn 0.650791 0.759257 -0.000000
vn 0.650791 0.759257 -0.000000
vn 0.000000 1.000000 0.000000
vn 0.000000 1.000000 0.000000
vn 0.000000 1.000000 0.000000
vn 0.000000 0.759257 0.650791
vn 0.000000 0.759257 0.650791
vn 0.000000 0.759257 0.650791
vn 0.000000 0.759257 0.650791
vn 0.000000 0.759257 0.650791
vn 0.000000 0.759257 0.650791
vn 0.000000 1.000000 0.000000
vn 0.000000 1.000000 0.000000
vn 0.000000 1.000000 0.000000
vn 0.000000 1.000000 0.000000
vn 0.000000 1.000000 0.000000
vn 0.000000 1.000000 0.000000
vn 0.000000 1.000000 0.000000
vn 0.000000 1.000000 0.000000
vn 0.000000 1.000000 0.000000
vn 0.000000 1.000000 0.000000
vn 0.000000 1.000000 0.000000
vn 0.000000 1.000000 0.000000
vn 0.000000 1.000000 0.000000
vn 0.000000 1.000000 0.000000
vn 0.000000 1.000000 0.000000
vn 0.000000 1.000000 0.000000
vn 0.000000 1.000000 0.000000
vn 0.000000 1.000000 0.000000
vn 0.000000 1.000000 0.000000
vn 0.000000 1.000000 0.000000
vn 0.000000 1.000000 0.000000
vn 0.000000 1.000000 0.000000
vn 0.000000 1.000000 0.000000
vn 0.000000 1.000000 0.000000
vn 0.000000 1.000000 0.000000
vn 0.012459 0.999845 -0.012459
vn 0.000000 1.000000 0.000000
vn 0.000000 1.000000 0.000000
vn 0.000000 1.000000 0.000000
vn 0.000000 1.000000 0.000000
vn 0.000000 1.000000 0.000000
vn 0.000000 1.000000 0.000000
vn 0.000000 1.000000 0.000000
vn 0.000000 1.000000 0.000000
vn 0.000000 1.000000 0.000000
vn 0.000000 1.000000 0.000000
vn 0.000000 1.000000 0.000000
vn 0.000000 1.000000 0.000000
vn 0.012459 0.999845 -0.012459
vn 0.000000 1.000000 0.000000
vn 0.012459 0.999845 -0.012459
vn 0.000000 1.000000 0.000000
vn 0.000000 1.000000 0.000000
vn 0.000000 1.000000 0.000000
vn 0.000000 1.000000 0.000000
vn 0.000000 1.000000 0.000000
vn 0.000000 1.000000 0.000000
vn 0.000000 1.000000 0.000000
vn 0.000000 1.000000 0.000000
vn 0.000000 1.000000 0.000000
vn 0.000000 1.000000 0.000000
vn 0.000000 1.000000 0.000000
vn 0.000000 1.000000 0.000000
vn 0.000000 1.000000 0.000000
vn 0.000000 1.000000 0.000000
vn 0.000000 1.000000 0.000000
vn 0.000000 1.000000 0.000000
vn 0.000000 1.000000 0.000000
vn 0.000000 1.000000 0.000000
vn 0.000000 1.000000 0.000000
vn 0.000000 1.000000 0.000000
vn 0.000000 1.000000 0.000000
vn 0.000000 1.000000 0.000000
vn 0.000000 1.000000 0.000000
vn -0.012459 0.999845 0.012459
vn 0.000000 1.000000 0.000000
vn 0.000000 1.000000 0.000000
vn 0.000000 1.000000 0.000000
vn 0.000000 1.000000 0.000000
vn 0.000000 1.000000 0.000000
vn -0.012459 0.999845 0.012459
vn 0.000000 1.000000 0.000000
vn 0.000000 1.000000 0.000000
vn 0.000000 1.000000 0.000000
vn 0.000000 1.000000 0.000000
vn 0.000000 1.000000 0.000000
vn 0.000000 1.000000 0.000000
vn 0.000000 1.000000 0.000000
vn 0.000000 1.000000 0.000000
vn 0.000000 1.000000 0.000000
vn 0.000000 1.000000 0.000000
vn 0.000000 1.000000 0.000000
vn 0.000000 1.000000 0.000000
vn 0.000000 1.000000 0.000000
vn 0.000000 1.000000 0.000000
vn 0.000000 1.000000 0.000000
vn 0.000000 1.000000 0.000000
vn 0.000000 1.000000 0.000000
vn 0.000000 1.000000 0.000000
vn 0.000000 1.000000 0.000000
vn 0.000000 1.000000 0.000000
vn 0.000000 1.000000 0.000000
vn 0.000000 1.000000 0.000000
vn 0.000000 1.000000 0.000000
vn 0.000000 1.000000 0.000000
vn 0.000000 1.000000 0.000000
vn 0.000000 1.000000 0.000000
vn 0.000000 1.000000 0.000000
vn 0.000000 1.000000 0.000000
vn 0.000000 1.000000 0.000000
vn 0.000000 1.000000 0.000000
vn 0.000000 1.000000 0.000000
vn 0.630987 0.451345 -0.630987
vn 0.612235 0.500337 -0.612235
vn 0.695796 0.178145 -0.695796
vn 0.630987 0.451345 -0.630987
vn 0.695796 0.178145 -0.695796
vn 0.695796 0.178145 -0.695796
vn 0.012459 0.999845 -0.012459
vn 0.012459 0.999845 -0.012459
vn 0.062257 0.996117 -0.062257
vn 0.012459 0.999845 -0.012459
vn 0.062257 0.996117 -0.062257
vn 0.062257 0.996117 -0.062257
vn 0.012459 0.999845 -0.012459
vn 0.062257 0.996117 -0.062257
vn 0.062257 0.996117 -0.062257
vn 0.012459 0.999845 -0.012459
vn 0.062257 0.996117 -0.062257
vn 0.062257 0.996117 -0.062257
vn -0.630987 0.451345 0.630987
vn -0.612235 0.500337 0.612235
vn -0.695796 0.178145 0.695796
vn -0.630987 0.451345 0.630987
vn -0.695796 0.178145 0.695796
vn -0.695796 0.178145 0.695796
vn -0.012459 0.999845 0.012459
vn -0.012459 0.999845 0.012459
vn -0.062257 0.996117 0.062257
vn -0.012459 0.999845 0.012459
vn -0.062257 0.996117 0.062257
vn -0.062257 0.996117 0.062257
vn -0.012459 0.999845 0.012459
vn -0.062257 0.996117 0.062257
vn -0.062257 0.996117 0.062257
vn -0.012459 0.999845 0.012459
vn -0.062257 0.996117 0.062257
vn -0.062257 0.996117 0.062257
vn 0.000000 1.000000 0.000000
vn 0.000000 1.000000 0.000000
vn 0.000000 1.000000 0.000000
vn 0.000000 1.000000 0.000000
vn 0.000000 1.000000 0.000000
vn -0.012459 0.999845 0.012459
vn 0.000000 1.000000 0.000000
vn 0.000000 1.000000 0.000000
vn 0.000000 1.000000 0.000000
vn 0.000000 1.000000 0.000000
vn 0.000000 1.000000 0.000000
vn 0.000000 1.000000 0.000000
vn 0.000000 1.000000 0.000000
vn 0.000000 1.000000 0.000000
vn 0.000000 1.000000 0.000000
vn 0.000000 1.000000 0.000000
vn 0.000000 1.000000 0.000000
vn 0.012459 0.999845 -0.012459
vn 0.012459 0.999845 -0.012459
vn 0.000000 1.000000 0.000000
vn 0.012459 0.999845 -0.012459
vn 0.000000 1.000000 0.000000
vn 0.000000 1.000000 0.000000
vn 0.000000 1.000000 0.000000
vn 0.000000 1.000000 0.000000
vn 0.000000 1.000000 0.000000
vn 0.000000 1.000000 0.000000
vn -0.012459 0.999845 0.012459
vn 0.000000 1.000000 0.000000
vn 0.000000 1.000000 0.000000
vn -0.012459 0.999845 0.012459
vn 0.000000 1.000000 0.000000
vn 0.000000 1.000000 0.000000
vn -0.707107 0.000000 -0.707107
vn -0.707107 0.000000 -0.707107
vn -0.707107 0.000000 -0.707107
vn 0.707107 0.000000 0.707107
vn 0.707107 0.000000 0.707107
vn 0.707107 0.000000 0.707107
vn 0.695796 0.178145 -0.695796
vn 0.695796 0.178145 -0.695796
vn 0.707107 0.000000 -0.707107
vn 0.695796 0.178145 -0.695796
vn 0.707107 0.000000 -0.707107
vn 0.707107 0.000000 -0.707107
vn -0.695796 0.178145 0.695796
vn -0.695796 0.178145 0.695796
vn -0.707107 0.000000 0.707107
vn -0.695796 0.178145 0.695796
vn -0.707107 0.000000 0.707107
vn -0.707107 0.000000 0.707107
vn 0.695796 0.178145 -0.695796
vn 0.695796 0.178145 -0.695796
vn 0.707107 0.000000 -0.707107
vn 0.695796 0.178145 -0.695796
vn 0.707107 0.000000 -0.707107
vn 0.707107 0.000000 -0.707107
vn -0.695796 0.178145 0.695796
vn -0.695796 0.178145 0.695796
vn -0.707107 0.000000 0.707107
vn -0.695796 0.178145 0.695796
vn -0.707107 0.000000 0.707107
vn -0.707107 0.000000 0.707107
vn 0.707107 0.000000 0.707107
vn 0.707107 0.000000 0.707107
vn 0.707107 0.000000 0.707107
vn -0.707107 0.000000 -0.707107
vn -0.707107 0.000000 -0.707107
vn -0.707107 0.000000 -0.707107
vn 0.000000 1.000000 0.000000
vn 0.000000 1.000000 0.000000
vn 0.000000 1.000000 0.000000
vn 0.000000 1.000000 0.000000
vn 0.000000 1.000000 0.000000
vn 0.000000 1.000000 0.000000
vn 0.000000 1.000000 0.000000
vn 0.000000 1.000000 0.000000
vn 0.000000 1.000000 0.000000
vn 0.000000 1.000000 0.000000
vn 0.000000 1.000000 0.000000
vn 0.000000 1.000000 0.000000
vn 0.000000 1.000000 0.000000
vn 0.000000 1.000000 0.000000
vn 0.000000 1.000000 0.000000
vn 0.000000 1.000000 0.000000
vn 0.000000 1.000000 0.000000
vn 0.000000 1.000000 0.000000
vn 0.339691 0.939308 0.048059
vn 0.306144 0.951884 0.013850
vn 0.354012 0.933945 -0.049213
vn -0.304280 0.151188 0.940508
vn -0.329157 0.176991 0.927540
vn -0.304280 0.151188 0.940508
vn -0.327772 0.654694 0.681132
vn -0.327772 0.654694 0.681132
vn -0.272787 0.645339 0.713530
vn 0.339691 0.939308 0.048059
vn 0.354012 0.933945 -0.049213
vn 0.434833 0.900441 0.011216
vn 0.339691 0.939308 0.048059
vn 0.434833 0.900441 0.011216
vn 0.455148 0.879603 0.138344
vn 0.108652 0.442306 -0.890258
vn 0.108652 0.442306 -0.890258
vn 0.108652 0.442306 -0.890258
vn 0.434833 0.900441 0.011216
vn 0.354012 0.933945 -0.049213
vn 0.372291 0.895988 -0.242084
vn -0.304280 0.151188 0.940508
vn -0.278961 0.125166 0.952110
vn -0.278961 0.125166 0.952110
vn -0.304280 0.151188 0.940508
vn -0.278961 0.125166 0.952110
vn -0.304280 0.151188 0.940508
vn -0.327772 0.654694 0.681132
vn -0.381394 0.661326 0.645900
vn -0.381394 0.661326 0.645900
vn -0.327772 0.654694 0.681132
vn -0.381394 0.661326 0.645900
vn -0.327772 0.654694 0.681132
vn -0.385310 0.878265 -0.283173
vn -0.440022 0.876503 -0.195253
vn -0.370417 0.915134 -0.159122
vn -0.385310 0.878265 -0.283173
vn -0.370417 0.915134 -0.159122
vn -0.370417 0.915134 -0.159122
vn -0.829588 0.288489 0.478078
vn -0.829588 0.288489 0.478078
vn -0.829588 0.288489 0.478078
vn -0.620264 0.462200 -0.633754
vn -0.620264 0.462200 -0.633754
vn -0.620264 0.462200 -0.633754
vn 0.532424 0.824211 0.192875
vn 0.455148 0.879603 0.138344
vn 0.434833 0.900441 0.011216
vn -0.390364 0.853893 -0.344214
vn -0.440022 0.876503 -0.195253
vn -0.385310 0.878265 -0.283173
vn -0.385310 0.878265 -0.283173
vn -0.263917 0.853543 -0.449236
vn -0.390364 0.853893 -0.344214
f 103/1/1 101/2/2 91/3/3
f 103/4/4 91/5/5 93/6/6
f 101/7/7 100/8/8 90/9/9
f 101/10/10 90/11/11 91/12/12
f 2/13/13 3/14/14 6/15/15
f 2/16/16 6/17/17 5/18/18
f 108/19/19 98/20/20 105/21/21
f 108/22/22 105/23/23 106/24/24
f 98/25/25 88/26/26 104/27/27
f 98/28/28 104/29/29 105/30/30
f 20/31/31 5/32/32 15/33/33
f 5/34/34 6/35/35 8/36/36
f 5/37/37 8/38/38 7/39/39
f 5/40/40 7/41/41 15/42/42
f 88/43/43 82/44/44 103/45/45
f 88/46/46 103/47/47 104/48/48
f 111/49/49 101/50/50 103/51/51
f 111/52/52 103/53/53 82/54/54
f 16/55/55 10/56/56 18/57/57
f 7/58/58 8/59/59 11/60/60
f 7/61/61 11/62/62 10/63/63
f 7/64/64 10/65/65 16/66/66
f 100/67/67 99/68/68 89/69/69
f 100/70/70 89/71/71 90/72/72
f 99/73/73 97/74/74 87/75/75
f 99/76/76 87/77/77 89/78/78
f 10/79/79 11/80/80 14/81/81
f 10/82/82 14/83/83 13/84/84
f 16/85/85 18/86/86 21/87/87
f 16/88/88 21/89/89 22/90/90
f 20/91/91 15/92/92 23/93/93
f 20/94/94 23/95/95 24/96/96
f 4/97/97 20/98/98 24/99/99
f 4/100/100 24/101/101 27/102/102
f 4/103/103 27/104/104 36/105/105
f 152/106/106 28/107/107 21/108/108
f 152/109/109 21/110/110 18/111/111
f 152/112/112 18/113/113 9/114/114
f 15/115/115 7/116/116 16/117/117
f 15/118/118 16/119/119 22/120/120
f 15/121/121 22/122/122 23/123/123
f 111/124/124 110/125/125 100/126/126
f 111/127/127 100/128/128 101/129/129
f 110/130/130 109/131/131 99/132/132
f 110/133/133 99/134/134 100/135/135
f 25/136/136 40/137/137 31/138/138
f 25/139/139 31/140/140 30/141/141
f 28/142/142 30/143/143 31/144/144
f 28/145/145 31/146/146 33/147/147
f 21/148/148 28/149/149 33/150/150
f 21/151/151 33/152/152 34/153/153
f 22/154/154 21/155/155 34/156/156
f 22/157/157 34/158/158 35/159/159
f 23/160/160 22/161/161 35/162/162
f 23/163/163 35/164/164 37/165/165
f 24/166/166 23/167/167 37/168/168
f 24/169/169 37/170/170 38/171/171
f 27/172/172 24/173/173 38/174/174
f 27/175/175 38/176/176 39/177/177
f 25/178/178 27/179/179 39/180/180
f 25/181/181 39/182/182 40/183/183
f 40/184/184 50/185/185 41/186/186
f 40/187/187 41/188/188 31/189/189
f 33/190/190 31/191/191 41/192/192
f 33/193/193 41/194/194 43/195/195
f 34/196/196 33/197/197 43/198/198
f 34/199/199 43/200/200 44/201/201
f 35/202/202 34/203/203 44/204/204
f 35/205/205 44/206/206 45/207/207
f 37/208/208 35/209/209 45/210/210
f 37/211/211 45/212/212 47/213/213
f 38/214/214 37/215/215 47/216/216
f 38/217/217 47/218/218 48/219/219
f 39/220/220 38/221/221 48/222/222
f 39/223/223 48/224/224 49/225/225
f 40/226/226 39/227/227 49/228/228
f 40/229/229 49/230/230 50/231/231
f 51/232/232 52/233/233 42/234/234
f 51/235/235 42/236/236 32/237/237
f 51/238/238 32/239/239 26/240/240
f 51/241/241 26/242/242 55/243/243
f 51/244/244 55/245/245 54/246/246
f 51/247/247 54/248/248 53/249/249
f 50/250/250 52/251/251 51/252/252
f 50/253/253 51/254/254 41/255/255
f 43/256/256 41/257/257 51/258/258
f 43/259/259 51/260/260 53/261/261
f 44/262/262 43/263/263 53/264/264
f 44/265/265 53/266/266 54/267/267
f 45/268/268 44/269/269 54/270/270
f 45/271/271 54/272/272 55/273/273
f 47/274/274 45/275/275 55/276/276
f 47/277/277 55/278/278 26/279/279
f 48/280/280 47/281/281 26/282/282
f 48/283/283 26/284/284 32/285/285
f 49/286/286 48/287/287 32/288/288
f 49/289/289 32/290/290 42/291/291
f 50/292/292 49/293/293 42/294/294
f 50/295/295 42/296/296 52/297/297
f 87/298/298 97/299/299 106/300/300
f 87/301/301 106/302/302 96/303/303
f 96/304/304 95/305/305 83/306/306
f 96/307/307 83/308/308 81/309/309
f 61/310/310 62/311/311 59/312/312
f 61/313/313 59/314/314 58/315/315
f 109/316/316 107/317/317 97/318/318
f 109/319/319 97/320/320 99/321/321
f 97/322/322 107/323/323 108/324/324
f 97/325/325 108/326/326 106/327/327
f 71/328/328 61/329/329 76/330/330
f 71/331/331 63/332/332 64/333/333
f 71/334/334 64/335/335 62/336/336
f 71/337/337 62/338/338 61/339/339
f 109/340/340 110/341/341 111/342/342
f 109/343/343 111/344/344 82/345/345
f 109/346/346 82/347/347 88/348/348
f 109/349/349 88/350/350 98/351/351
f 109/352/352 98/353/353 108/354/354
f 109/355/355 108/356/356 107/357/357
f 106/358/358 105/359/359 95/360/360
f 106/361/361 95/362/362 96/363/363
f 74/364/364 66/365/365 72/366/366
f 72/367/367 66/368/368 67/369/369
f 72/370/370 67/371/371 64/372/372
f 72/373/373 64/374/374 63/375/375
f 95/376/376 94/377/377 80/378/378
f 95/379/379 80/380/380 83/381/381
f 94/382/382 93/383/383 79/384/384
f 94/385/385 79/386/386 80/387/387
f 69/388/388 70/389/389 67/390/390
f 69/391/391 67/392/392 66/393/393
f 78/394/394 77/395/395 74/396/396
f 78/397/397 74/398/398 72/399/399
f 80/400/400 79/401/401 71/402/402
f 80/403/403 71/404/404 76/405/405
f 105/406/406 104/407/407 94/408/408
f 105/409/409 94/410/410 95/411/411
f 121/412/412 83/413/413 80/414/414
f 121/415/415 80/416/416 76/417/417
f 121/418/418 76/419/419 60/420/420
f 65/421/421 74/422/422 77/423/423
f 65/424/424 77/425/425 84/426/426
f 65/427/427 84/428/428 161/429/429
f 79/430/430 78/431/431 72/432/432
f 79/433/433 72/434/434 63/435/435
f 79/436/436 63/437/437 71/438/438
f 104/439/439 103/440/440 93/441/441
f 104/442/442 93/443/443 94/444/444
f 86/445/445 87/446/446 96/447/447
f 86/448/448 96/449/449 81/450/450
f 89/451/451 87/452/452 86/453/453
f 89/454/454 86/455/455 84/456/456
f 90/457/457 89/458/458 84/459/459
f 90/460/460 84/461/461 77/462/462
f 91/463/463 90/464/464 77/465/465
f 91/466/466 77/467/467 78/468/468
f 93/469/469 91/470/470 78/471/471
f 93/472/472 78/473/473 79/474/474
f 113/475/475 117/476/476 132/477/477
f 113/478/478 132/479/479 116/480/480
f 113/481/481 114/482/482 118/483/483
f 113/484/484 118/485/485 117/486/486
f 92/487/487 194/488/488 181/489/489
f 92/490/490 181/491/491 188/492/492
f 194/493/493 184/494/494 200/495/495
f 194/496/496 200/497/497 181/498/498
f 132/499/499 117/500/500 127/501/501
f 117/502/502 118/503/503 120/504/504
f 117/505/505 120/506/506 119/507/507
f 117/508/508 119/509/509 127/510/510
f 184/511/511 178/512/512 199/513/513
f 184/514/514 199/515/515 200/516/516
f 151/517/517 197/518/518 199/519/519
f 151/520/520 199/521/521 178/522/522
f 128/523/523 123/524/524 130/525/525
f 119/526/526 120/527/527 124/528/528
f 119/529/529 124/530/530 123/531/531
f 119/532/532 123/533/533 128/534/534
f 197/535/535 196/536/536 186/537/537
f 197/538/538 186/539/539 187/540/540
f 123/541/541 124/542/542 126/543/543
f 123/544/544 126/545/545 125/546/546
f 128/547/547 130/548/548 133/549/549
f 128/550/550 133/551/551 134/552/552
f 132/553/553 127/554/554 135/555/555
f 132/556/556 135/557/557 136/558/558
f 116/559/559 132/560/560 136/561/561
f 116/562/562 136/563/563 138/564/564
f 116/565/565 138/566/566 198/567/567
f 155/568/568 139/569/569 133/570/570
f 155/571/571 133/572/572 130/573/573
f 155/574/574 130/575/575 122/576/576
f 127/577/577 119/578/578 128/579/579
f 127/580/580 128/581/581 134/582/582
f 127/583/583 134/584/584 135/585/585
f 151/586/586 112/587/587 196/588/588
f 151/589/589 196/590/590 197/591/591
f 112/592/592 102/593/593 195/594/594
f 112/595/595 195/596/596 196/597/597
f 137/598/598 150/599/599 142/600/600
f 137/601/601 142/602/602 141/603/603
f 139/604/604 141/605/605 142/606/606
f 139/607/607 142/608/608 143/609/609
f 133/610/610 139/611/611 143/612/612
f 133/613/613 143/614/614 144/615/615
f 134/616/616 133/617/617 144/618/618
f 134/619/619 144/620/620 145/621/621
f 135/622/622 134/623/623 145/624/624
f 135/625/625 145/626/626 147/627/627
f 136/628/628 135/629/629 147/630/630
f 136/631/631 147/632/632 148/633/633
f 138/634/634 136/635/635 148/636/636
f 138/637/637 148/638/638 149/639/639
f 137/640/640 138/641/641 149/642/642
f 137/643/643 149/644/644 150/645/645
f 46/646/646 140/647/647 219/648/648
f 46/649/649 219/650/650 225/651/651
f 227/652/652 149/653/653 148/654/654
f 227/655/655 148/656/656 228/657/657
f 228/658/658 148/659/659 147/660/660
f 228/661/661 147/662/662 229/663/663
f 229/664/664 147/665/665 145/666/666
f 229/667/667 145/668/668 230/669/669
f 230/670/670 145/671/671 144/672/672
f 230/673/673 144/674/674 231/675/675
f 231/676/676 144/677/677 143/678/678
f 231/679/679 143/680/680 232/681/681
f 232/682/682 143/683/683 142/684/684
f 232/685/685 142/686/686 233/687/687
f 233/688/688 142/689/689 150/690/690
f 233/691/691 150/692/692 234/693/693
f 234/694/694 150/695/695 149/696/696
f 234/697/697 149/698/698 227/699/699
f 153/700/700 2/701/701 4/702/702
f 153/703/703 4/704/704 156/705/705
f 140/706/706 146/707/707 224/708/708
f 140/709/709 224/710/710 220/711/711
f 225/712/712 226/713/713 46/714/714
f 226/715/715 221/716/716 56/717/717
f 226/718/718 56/719/719 46/720/720
f 56/721/721 221/722/722 222/723/723
f 222/724/724 223/725/725 56/726/726
f 146/727/727 56/728/728 223/729/729
f 220/730/730 219/731/731 140/732/732
f 196/733/733 195/734/734 185/735/735
f 196/736/736 185/737/737 186/738/738
f 157/739/739 158/740/740 154/741/741
f 157/742/742 154/743/743 153/744/744
f 102/745/745 85/746/746 193/747/747
f 102/748/748 193/749/749 195/750/750
f 193/751/751 85/752/752 92/753/753
f 193/754/754 92/755/755 188/756/756
f 167/757/757 157/758/758 172/759/759
f 167/760/760 159/761/761 160/762/762
f 167/763/763 160/764/764 158/765/765
f 167/766/766 158/767/767 157/768/768
f 102/769/769 112/770/770 151/771/771
f 102/772/772 151/773/773 178/774/774
f 102/775/775 178/776/776 184/777/777
f 102/778/778 184/779/779 194/780/780
f 102/781/781 194/782/782 92/783/783
f 102/784/784 92/785/785 85/786/786
f 188/787/787 181/788/788 191/789/789
f 188/790/790 191/791/791 192/792/792
f 170/793/793 163/794/794 168/795/795
f 168/796/796 163/797/797 164/798/798
f 168/799/799 164/800/800 160/801/801
f 168/802/802 160/803/803 159/804/804
f 195/805/805 193/806/806 183/807/807
f 195/808/808 183/809/809 185/810/810
f 58/811/811 17/812/812 165/813/813
f 165/814/814 166/815/815 164/816/816
f 165/817/817 164/818/818 163/819/819
f 174/820/820 173/821/821 170/822/822
f 174/823/823 170/824/824 168/825/825
f 176/826/826 175/827/827 167/828/828
f 176/829/829 167/830/830 172/831/831
f 181/832/832 200/833/833 190/834/834
f 181/835/835 190/836/836 191/837/837
f 29/838/838 179/839/839 176/840/840
f 29/841/841 176/842/842 172/843/843
f 29/844/844 172/845/845 156/846/846
f 162/847/847 170/848/848 173/849/849
f 162/850/850 173/851/851 180/852/852
f 162/853/853 180/854/854 115/855/855
f 175/856/856 174/857/857 168/858/858
f 175/859/859 168/860/860 159/861/861
f 175/862/862 159/863/863 167/864/864
f 200/865/865 199/866/866 189/867/867
f 200/868/868 189/869/869 190/870/870
f 197/871/871 187/872/872 189/873/873
f 197/874/874 189/875/875 199/876/876
f 182/877/877 183/878/878 192/879/879
f 182/880/880 192/881/881 177/882/882
f 185/883/883 183/884/884 182/885/885
f 185/886/886 182/887/887 180/888/888
f 186/889/889 185/890/890 180/891/891
f 186/892/892 180/893/893 173/894/894
f 187/895/895 186/896/896 173/897/897
f 187/898/898 173/899/899 174/900/900
f 189/901/901 187/902/902 174/903/903
f 189/904/904 174/905/905 175/906/906
f 190/907/907 189/908/908 175/909/909
f 190/910/910 175/911/911 176/912/912
f 191/913/913 190/914/914 176/915/915
f 191/916/916 176/917/917 179/918/918
f 192/919/919 191/920/920 179/921/921
f 192/922/922 179/923/923 177/924/924
f 183/925/925 193/926/926 188/927/927
f 183/928/928 188/929/929 192/930/930
f 223/931/931 224/932/932 146/933/933
f 81/934/934 83/935/935 121/936/936
f 30/937/937 28/938/938 152/939/939
f 36/940/940 27/941/941 25/942/942
f 198/943/943 138/944/944 137/945/945
f 141/946/946 139/947/947 155/948/948
f 29/949/949 56/950/950 146/951/951
f 29/952/952 146/953/953 115/954/954
f 177/955/955 179/956/956 29/957/957
f 161/958/958 140/959/959 155/960/960
f 115/961/961 146/962/962 121/963/963
f 115/964/964 121/965/965 209/966/966
f 36/967/967 56/968/968 29/969/969
f 198/970/970 46/971/971 152/972/972
f 198/973/973 152/974/974 12/975/975
f 57/976/976 116/977/977 198/978/978
f 57/979/979 198/980/980 12/981/981
f 210/982/982 162/983/983 115/984/984
f 210/985/985 115/986/986 209/987/987
f 155/988/988 122/989/989 65/990/990
f 155/991/991 65/992/992 161/993/993
f 29/994/994 156/995/995 4/996/996
f 29/997/997 4/998/998 36/999/999
f 152/1000/1000 46/1001/1001 56/1002/1002
f 152/1003/1003 56/1004/1004 36/1005/1005
f 115/1006/1006 180/1007/1007 182/1008/1008
f 121/1009/1009 146/1010/1010 140/1011/1011
f 121/1012/1012 140/1013/1013 161/1014/1014
f 161/1015/1015 84/1016/1016 86/1017/1017
f 155/1018/1018 140/1019/1019 46/1020/1020
f 155/1021/1021 46/1022/1022 198/1023/1023
f 161/1024/1024 86/1025/1025 81/1026/1026
f 161/1027/1027 81/1028/1028 121/1029/1029
f 115/1030/1030 182/1031/1031 177/1032/1032
f 115/1033/1033 177/1034/1034 29/1035/1035
f 36/1036/1036 25/1037/1037 30/1038/1038
f 36/1039/1039 30/1040/1040 152/1041/1041
f 198/1042/1042 137/1043/1043 141/1044/1044
f 198/1045/1045 141/1046/1046 155/1047/1047
f 201/1048/1048 13/1049/1049 14/1050/1050
f 201/1051/1051 14/1052/1052 202/1053/1053
f 201/1054/1054 202/1055/1055 203/1056/1056
f 201/1057/1057 203/1058/1058 204/1059/1059
f 204/1060/1060 114/1061/1061 113/1062/1062
f 204/1063/1063 113/1064/1064 201/1065/1065
f 125/1066/1066 205/1067/1067 69/1068/1068
f 69/1069/1069 205/1070/1070 206/1071/1071
f 69/1072/1072 206/1073/1073 70/1074/1074
f 205/1075/1075 125/1076/1076 126/1077/1077
f 205/1078/1078 126/1079/1079 208/1080/1080
f 208/1081/1081 207/1082/1082 206/1083/1083
f 208/1084/1084 206/1085/1085 205/1086/1086
f 166/1087/1087 165/1088/1088 17/1089/1089
f 166/1090/1090 17/1091/1091 131/1092/1092
f 17/1093/1093 58/1094/1094 59/1095/1095
f 17/1096/1096 59/1097/1097 129/1098/1098
f 131/1099/1099 17/1100/1100 129/1101/1101
f 131/1102/1102 129/1103/1103 73/1104/1104
f 153/1105/1105 75/1106/1106 2/1107/1107
f 2/1108/1108 75/1109/1109 169/1110/1110
f 2/1111/1111 169/1112/1112 3/1113/1113
f 75/1114/1114 153/1115/1115 154/1116/1116
f 75/1117/1117 154/1118/1118 171/1119/1119
f 171/1120/1120 19/1121/1121 169/1122/1122
f 171/1123/1123 169/1124/1124 75/1125/1125
f 209/1126/1126 121/1127/1127 60/1128/1128
f 209/1129/1129 60/1130/1130 68/1131/1131
f 13/1132/1132 113/1133/1133 218/1134/1134
f 13/1135/1135 218/1136/1136 213/1137/1137
f 13/1138/1138 213/1139/1139 211/1140/1140
f 13/1141/1141 211/1142/1142 217/1143/1143
f 12/1144/1144 152/1145/1145 9/1146/1146
f 12/1147/1147 9/1148/1148 1/1149/1149
f 58/1150/1150 165/1151/1151 214/1152/1152
f 58/1153/1153 214/1154/1154 216/1155/1155
f 58/1156/1156 216/1157/1157 215/1158/1158
f 58/1159/1159 215/1160/1160 212/1161/1161
f 60/1162/1162 76/1163/1163 61/1164/1164
f 60/1165/1165 61/1166/1166 58/1167/1167
f 122/1168/1168 130/1169/1169 123/1170/1170
f 122/1171/1171 123/1172/1172 125/1173/1173
f 9/1174/1174 18/1175/1175 10/1176/1176
f 9/1177/1177 10/1178/1178 13/1179/1179
f 13/1180/1180 201/1181/1181 113/1182/1182
f 156/1183/1183 172/1184/1184 157/1185/1185
f 156/1186/1186 157/1187/1187 153/1188/1188
f 165/1189/1189 163/1190/1190 170/1191/1191
f 165/1192/1192 170/1193/1193 162/1194/1194
f 60/1195/1195 58/1196/1196 212/1197/1197
f 165/1198/1198 162/1199/1199 214/1200/1200
f 68/1201/1201 60/1202/1202 212/1203/1203
f 68/1204/1204 212/1205/1205 215/1206/1206
f 116/1207/1207 57/1208/1208 213/1209/1209
f 116/1210/1210 213/1211/1211 218/1212/1212
f 162/1213/1213 210/1214/1214 216/1215/1215
f 162/1216/1216 216/1217/1217 214/1218/1218
f 1/1219/1219 9/1220/1220 217/1221/1221
f 1/1222/1222 217/1223/1223 211/1224/1224
f 9/1225/1225 13/1226/1226 217/1227/1227
f 113/1228/1228 116/1229/1229 218/1230/1230
f 69/1231/1231 66/1232/1232 74/1233/1233
f 69/1234/1234 74/1235/1235 65/1236/1236
f 65/1237/1237 122/1238/1238 125/1239/1239
f 65/1240/1240 125/1241/1241 69/1242/1242
f 2/1243/1243 5/1244/1244 20/1245/1245
f 2/1246/1246 20/1247/1247 4/1248/1248
f 233/1249/1249 234/1250/1250 227/1251/1251
f 229/1252/1252 230/1253/1253 235/1254/1254
f 237/1255/1255 230/1256/1256 231/1257/1257
f 233/1258/1258 227/1259/1259 236/1260/1260
f 233/1261/1261 236/1262/1262 238/1263/1263
f 236/1264/1264 237/1265/1265 240/1266/1266
f 236/1267/1267 227/1268/1268 235/1269/1269
f 235/1270/1270 227/1271/1271 228/1272/1272
f 235/1273/1273 228/1274/1274 229/1275/1275
f 237/1276/1276 236/1277/1277 235/1278/1278
f 237/1279/1279 235/1280/1280 230/1281/1281
f 239/1282/1282 232/1283/1283 233/1284/1284
f 239/1285/1285 233/1286/1286 238/1287/1287
f 239/1288/1288 238/1289/1289 240/1290/1290
f 240/1291/1291 237/1292/1292 239/1293/1293
f 240/1294/1294 238/1295/1295 236/1296/1296
f 231/1297/1297 232/1298/1298 239/1299/1299
f 239/1300/1300 237/1301/1301 231/1302/1302
