v 24.000000 6.000000 16.000000
v 1.000000 0.000000 -24.000000
v 0.000000 68.000000 16.000000
v -20.000000 0.000000 24.000000
v 20.000000 0.000000 24.000000
v 4.000000 0.000000 -22.000000
v 24.000000 0.000000 20.000000
v -4.000000 6.000000 -22.000000
v -24.000000 0.000000 20.000000
v -1.000000 0.000000 -24.000000
v 4.000000 35.000000 7.000000
v 3.000000 35.000000 8.000000
v -3.000000 35.000000 8.000000
v -4.000000 35.000000 7.000000
v -1.000000 35.000000 0.000000
v -6.000000 72.000000 12.000000
v -4.000000 35.000000 6.000000
v 4.000000 35.000000 6.000000
v 1.000000 6.000000 -24.000000
v 1.000000 35.000000 0.000000
v 1.000000 37.000000 0.000000
v 24.000000 6.000000 20.000000
v 4.000000 37.000000 6.000000
v -8.000000 72.000000 10.000000
v 3.000000 37.000000 8.000000
v -12.000000 68.000000 13.000000
v -3.000000 37.000000 8.000000
v -1.000000 6.000000 -24.000000
v -4.000000 37.000000 6.000000
v -1.000000 37.000000 0.000000
v 3.000000 68.000000 -8.000000
v -8.000000 72.000000 8.000000
v 12.000000 68.000000 10.000000
v 20.000000 6.000000 24.000000
v 9.000000 68.000000 16.000000
v -20.000000 6.000000 24.000000
v -9.000000 68.000000 16.000000
v 24.000000 0.000000 16.000000
v -12.000000 68.000000 10.000000
v -3.000000 68.000000 -8.000000
v 2.000000 72.000000 -4.000000
v -2.000000 72.000000 -4.000000
v 8.000000 72.000000 8.000000
v -1.000000 6.000000 -24.000000
v 6.000000 72.000000 12.000000
v -24.000000 6.000000 20.000000
v 4.000000 6.000000 -22.000000
v -4.000000 0.000000 -22.000000
v 1.000000 6.000000 -24.000000
v -4.000000 37.000000 7.000000
v 4.000000 37.000000 7.000000
v 12.000000 68.000000 13.000000
v 8.000000 72.000000 10.000000
v 3.000000 0.000000 24.000000
v -24.000000 6.000000 16.000000
v -24.000000 0.000000 16.000000
v 3.000000 6.000000 24.000000
v -3.000000 0.000000 24.000000
v -3.000000 6.000000 24.000000
v -3.000000 20.500000 16.000000
v -3.000000 27.750000 12.000000
v -3.000000 31.375000 10.000000
v -3.000000 33.187500 9.000000
v -3.000000 29.562500 11.000000
v -3.000000 24.125000 14.000000
v -3.000000 22.312500 15.000000
v -3.000000 25.937500 13.000000
v -3.000000 13.250000 20.000000
v -3.000000 16.875000 18.000000
v -3.000000 18.687500 17.000000
v -3.000000 15.062500 19.000000
v -3.000000 9.625000 22.000000
v -3.000000 11.437500 21.000000
v -3.000000 7.812500 23.000000
v 3.000000 20.500000 16.000000
v 3.000000 13.250000 20.000000
v 3.000000 9.625000 22.000000
v 3.000000 7.812500 23.000000
v 3.000000 11.437500 21.000000
v 3.000000 16.875000 18.000000
v 3.000000 15.062500 19.000000
v 3.000000 18.687500 17.000000
v 3.000000 27.750000 12.000000
v 3.000000 24.125000 14.000000
v 3.000000 22.312500 15.000000
v 3.000000 25.937500 13.000000
v 3.000000 31.375000 10.000000
v 3.000000 29.562500 11.000000
v 3.000000 33.187500 9.000000
v 3.000000 33.179787 8.000000
v -3.000000 33.179787 8.000000
v 3.000000 7.804777 22.000000
v -3.000000 7.804777 22.000000
v 3.000000 22.304768 14.000000
v 3.000000 25.947744 12.000000
v 3.000000 11.429777 20.000000
v -3.000000 11.429777 20.000000
v -3.000000 29.554768 10.000000
v -3.000000 22.304768 14.000000
v 3.000000 15.072755 18.000000
v -3.000000 15.072755 18.000000
v 3.000000 29.554768 10.000000
v -3.000000 25.947744 12.000000
v 3.000000 18.679768 16.000000
v -3.000000 18.679768 16.000000
v 3.000000 31.371798 9.000000
v -3.000000 31.371798 9.000000
v 3.000000 9.621751 21.000000
v -3.000000 9.621751 21.000000
v 3.000000 27.746799 11.000000
v -3.000000 27.746799 11.000000
v 3.000000 16.871799 17.000000
v -3.000000 16.871799 17.000000
v -3.000000 5.996758 23.000000
v 3.000000 5.996758 23.000000
v 3.000000 13.246751 19.000000
v -3.000000 13.246751 19.000000
v 3.000000 20.496799 15.000000
v -3.000000 20.496799 15.000000
v 3.000000 24.121799 13.000000
v -3.000000 24.121799 13.000000
vt 0.000000 0.000000
vt 0.000000 0.000000
vt 0.000000 0.000000
vt 0.000000 0.000000
vt 0.000000 0.000000
vt 0.000000 0.000000
vt 0.000000 0.000000
vt 0.000000 0.000000
vt 0.000000 0.000000
vt 0.000000 0.000000
vt 0.000000 0.000000
vt 0.000000 0.000000
vt 0.000000 0.000000
vt 0.000000 0.000000
vt 0.000000 0.000000
vt 0.000000 0.000000
vt 0.000000 0.000000
vt 0.000000 0.000000
vt 0.000000 0.000000
vt 0.000000 0.000000
vt 0.000000 0.000000
vt 0.000000 0.000000
vt 0.000000 0.000000
vt 0.000000 0.000000
vt 0.000000 0.000000
vt 0.000000 0.000000
vt 0.000000 0.000000
vt 0.000000 0.000000
vt 0.000000 0.000000
vt 0.000000 0.000000
vt 0.000000 0.000000
vt 0.000000 0.000000
vt 0.000000 0.000000
vt 0.000000 0.000000
vt 0.000000 0.000000
vt 0.000000 0.000000
vt 0.000000 0.000000
vt 0.000000 0.000000
vt 0.000000 0.000000
vt 0.000000 0.000000
vt 0.000000 0.000000
vt 0.000000 0.000000
vt 0.000000 0.000000
vt 0.000000 0.000000
vt 0.000000 0.000000
vt 0.000000 0.000000
vt 0.000000 0.000000
vt 0.000000 0.000000
vt 0.000000 0.000000
vt 0.000000 0.000000
vt 0.000000 0.000000
vt 0.000000 0.000000
vt 0.000000 0.000000
vt 0.000000 0.000000
vt 0.000000 0.000000
vt 0.000000 0.000000
vt 0.000000 0.000000
vt 0.000000 0.000000
vt 0.000000 0.000000
vt 0.000000 0.000000
vt 0.000000 0.000000
vt 0.000000 0.000000
vt 0.000000 0.000000
vt 0.000000 0.000000
vt 0.000000 0.000000
vt 0.000000 0.000000
vt 0.000000 0.000000
vt 0.000000 0.000000
vt 0.000000 0.000000
vt 0.000000 0.000000
vt 0.000000 0.000000
vt 0.000000 0.000000
vt 0.000000 0.000000
vt 0.000000 0.000000
vt 0.000000 0.000000
vt 0.000000 0.000000
vt 0.000000 0.000000
vt 0.000000 0.000000
vt 0.000000 0.000000
vt 0.000000 0.000000
vt 0.000000 0.000000
vt 0.000000 0.000000
vt 0.000000 0.000000
vt 0.000000 0.000000
vt 0.000000 0.000000
vt 0.000000 0.000000
vt 0.000000 0.000000
vt 0.000000 0.000000
vt 0.000000 0.000000
vt 0.000000 0.000000
vt 0.000000 0.000000
vt 0.000000 0.000000
vt 0.000000 0.000000
vt 0.000000 0.000000
vt 0.000000 0.000000
vt 0.000000 0.000000
vt 0.000000 0.000000
vt 0.000000 0.000000
vt 0.000000 0.000000
vt 0.000000 0.000000
vt 0.000000 0.000000
vt 0.000000 0.000000
vt 0.000000 0.000000
vt 0.000000 0.000000
vt 0.000000 0.000000
vt 0.000000 0.000000
vt 0.000000 0.000000
vt 0.000000 0.000000
vt 0.000000 0.000000
vt 0.000000 0.000000
vt 0.000000 0.000000
vt 0.000000 0.000000
vt 0.000000 0.000000
vt 0.000000 0.000000
vt 0.000000 0.000000
vt 0.000000 0.000000
vt 0.000000 0.000000
vt 0.000000 0.000000
vt 0.000000 0.000000
vt 0.000000 0.000000
vt 0.000000 0.000000
vt 0.000000 0.000000
vt 0.000000 0.000000
vt 0.000000 0.000000
vt 0.000000 0.000000
vt 0.000000 0.000000
vt 0.000000 0.000000
vt 0.000000 0.000000
vt 0.000000 0.000000
vt 0.000000 0.000000
vt 0.000000 0.000000
vt 0.000000 0.000000
vt 0.000000 0.000000
vt 0.000000 0.000000
vt 0.000000 0.000000
vt 0.000000 0.000000
vt 0.000000 0.000000
vt 0.000000 0.000000
vt 0.000000 0.000000
vt 0.000000 0.000000
vt 0.000000 0.000000
vt 0.000000 0.000000
vt 0.000000 0.000000
vt 0.000000 0.000000
vt 0.000000 0.000000
vt 0.000000 0.000000
vt 0.000000 0.000000
vt 0.000000 0.000000
vt 0.000000 0.000000
vt 0.000000 0.000000
vt 0.000000 0.000000
vt 0.000000 0.000000
vt 0.000000 0.000000
vt 0.000000 0.000000
vt 0.000000 0.000000
vt 0.000000 0.000000
vt 0.000000 0.000000
vt 0.000000 0.000000
vt 0.000000 0.000000
vt 0.000000 0.000000
vt 0.000000 0.000000
vt 0.000000 0.000000
vt 0.000000 0.000000
vt 0.000000 0.000000
vt 0.000000 0.000000
vt 0.000000 0.000000
vt 0.000000 0.000000
vt 0.000000 0.000000
vt 0.000000 0.000000
vt 0.000000 0.000000
vt 0.000000 0.000000
vt 0.000000 0.000000
vt 0.000000 0.000000
vt 0.000000 0.000000
vt 0.000000 0.000000
vt 0.000000 0.000000
vt 0.000000 0.000000
vt 0.000000 0.000000
vt 0.000000 0.000000
vt 0.000000 0.000000
vt 0.000000 0.000000
vt 0.000000 0.000000
vt 0.000000 0.000000
vt 0.000000 0.000000
vt 0.000000 0.000000
vt 0.000000 0.000000
vt 0.000000 0.000000
vt 0.000000 0.000000
vt 0.000000 0.000000
vt 0.000000 0.000000
vt 0.000000 0.000000
vt 0.000000 0.000000
vt 0.000000 0.000000
vt 0.000000 0.000000
vt 0.000000 0.000000
vt 0.000000 0.000000
vt 0.000000 0.000000
vt 0.000000 0.000000
vt 0.000000 0.000000
vt 0.000000 0.000000
vt 0.000000 0.000000
vt 0.000000 0.000000
vt 0.000000 0.000000
vt 0.000000 0.000000
vt 0.000000 0.000000
vt 0.000000 0.000000
vt 0.000000 0.000000
vt 0.000000 0.000000
vt 0.000000 0.000000
vt 0.000000 0.000000
vt 0.000000 0.000000
vt 0.000000 0.000000
vt 0.000000 0.000000
vt 0.000000 0.000000
vt 0.000000 0.000000
vt 0.000000 0.000000
vt 0.000000 0.000000
vt 0.000000 0.000000
vt 0.000000 0.000000
vt 0.000000 0.000000
vt 0.000000 0.000000
vt 0.000000 0.000000
vt 0.000000 0.000000
vt 0.000000 0.000000
vt 0.000000 0.000000
vt 0.000000 0.000000
vt 0.000000 0.000000
vt 0.000000 0.000000
vt 0.000000 0.000000
vt 0.000000 0.000000
vt 0.000000 0.000000
vt 0.000000 0.000000
vt 0.000000 0.000000
vt 0.000000 0.000000
vt 0.000000 0.000000
vt 0.000000 0.000000
vt 0.000000 0.000000
vt 0.000000 0.000000
vt 0.000000 0.000000
vt 0.000000 0.000000
vt 0.000000 0.000000
vt 0.000000 0.000000
vt 0.000000 0.000000
vt 0.000000 0.000000
vt 0.000000 0.000000
vt 0.000000 0.000000
vt 0.000000 0.000000
vt 0.000000 0.000000
vt 0.000000 0.000000
vt 0.000000 0.000000
vt 0.000000 0.000000
vt 0.000000 0.000000
vt 0.000000 0.000000
vt 0.000000 0.000000
vt 0.000000 0.000000
vt 0.000000 0.000000
vt 0.000000 0.000000
vt 0.000000 0.000000
vt 0.000000 0.000000
vt 0.000000 0.000000
vt 0.000000 0.000000
vt 0.000000 0.000000
vt 0.000000 0.000000
vt 0.000000 0.000000
vt 0.000000 0.000000
vt 0.000000 0.000000
vt 0.000000 0.000000
vt 0.000000 0.000000
vt 0.000000 0.000000
vt 0.000000 0.000000
vt 0.000000 0.000000
vt 0.000000 0.000000
vt 0.000000 0.000000
vt 0.000000 0.000000
vt 0.000000 0.000000
vt 0.000000 0.000000
vt 0.000000 0.000000
vt 0.000000 0.000000
vt 0.000000 0.000000
vt 0.000000 0.000000
vt 0.000000 0.000000
vt 0.000000 0.000000
vt 0.000000 0.000000
vt 0.000000 0.000000
vt 0.000000 0.000000
vt 0.000000 0.000000
vt 0.000000 0.000000
vt 0.000000 0.000000
vt 0.000000 0.000000
vt 0.000000 0.000000
vt 0.000000 0.000000
vt 0.000000 0.000000
vt 0.000000 0.000000
vt 0.000000 0.000000
vt 0.000000 0.000000
vt 0.000000 0.000000
vt 0.000000 0.000000
vt 0.000000 0.000000
vt 0.000000 0.000000
vt 0.000000 0.000000
vt 0.000000 0.000000
vt 0.000000 0.000000
vt 0.000000 0.000000
vt 0.000000 0.000000
vt 0.000000 0.000000
vt 0.000000 0.000000
vt 0.000000 0.000000
vt 0.000000 0.000000
vt 0.000000 0.000000
vt 0.000000 0.000000
vt 0.000000 0.000000
vt 0.000000 0.000000
vt 0.000000 0.000000
vt 0.000000 0.000000
vt 0.000000 0.000000
vt 0.000000 0.000000
vt 0.000000 0.000000
vt 0.000000 0.000000
vt 0.000000 0.000000
vt 0.000000 0.000000
vt 0.000000 0.000000
vt 0.000000 0.000000
vt 0.000000 0.000000
vt 0.000000 0.000000
vt 0.000000 0.000000
vt 0.000000 0.000000
vt 0.000000 0.000000
vt 0.000000 0.000000
vt 0.000000 0.000000
vt 0.000000 0.000000
vt 0.000000 0.000000
vt 0.000000 0.000000
vt 0.000000 0.000000
vt 0.000000 0.000000
vt 0.000000 0.000000
vt 0.000000 0.000000
vt 0.000000 0.000000
vt 0.000000 0.000000
vt 0.000000 0.000000
vt 0.000000 0.000000
vt 0.000000 0.000000
vt 0.000000 0.000000
vt 0.000000 0.000000
vt 0.000000 0.000000
vt 0.000000 0.000000
vt 0.000000 0.000000
vt 0.000000 0.000000
vt 0.000000 0.000000
vt 0.000000 0.000000
vt 0.000000 0.000000
vt 0.000000 0.000000
vt 0.000000 0.000000
vt 0.000000 0.000000
vt 0.000000 0.000000
vt 0.000000 0.000000
vt 0.000000 0.000000
vt 0.000000 0.000000
vt 0.000000 0.000000
vt 0.000000 0.000000
vt 0.000000 0.000000
vt 0.000000 0.000000
vt 0.000000 0.000000
vt 0.000000 0.000000
vt 0.000000 0.000000
vt 0.000000 0.000000
vt 0.000000 0.000000
vt 0.000000 0.000000
vt 0.000000 0.000000
vt 0.000000 0.000000
vt 0.000000 0.000000
vt 0.000000 0.000000
vt 0.000000 0.000000
vt 0.000000 0.000000
vt 0.000000 0.000000
vt 0.000000 0.000000
vt 0.000000 0.000000
vt 0.000000 0.000000
vt 0.000000 0.000000
vt 0.000000 0.000000
vt 0.000000 0.000000
vt 0.000000 0.000000
vt 0.000000 0.000000
vt 0.000000 0.000000
vt 0.000000 0.000000
vt 0.000000 0.000000
vt 0.000000 0.000000
vt 0.000000 0.000000
vt 0.000000 0.000000
vt 0.000000 0.000000
vt 0.000000 0.000000
vt 0.000000 0.000000
vt 0.000000 0.000000
vt 0.000000 0.000000
vt 0.000000 0.000000
vt 0.000000 0.000000
vt 0.000000 0.000000
vt 0.000000 0.000000
vt 0.000000 0.000000
vt 0.000000 0.000000
vt 0.000000 0.000000
vt 0.000000 0.000000
vt 0.000000 0.000000
vt 0.000000 0.000000
vt 0.000000 0.000000
vt 0.000000 0.000000
vt 0.000000 0.000000
vt 0.000000 0.000000
vt 0.000000 0.000000
vt 0.000000 0.000000
vt 0.000000 0.000000
vt 0.000000 0.000000
vt 0.000000 0.000000
vt 0.000000 0.000000
vt 0.000000 0.000000
vt 0.000000 0.000000
vt 0.000000 0.000000
vt 0.000000 0.000000
vt 0.000000 0.000000
vt 0.000000 0.000000
vt 0.000000 0.000000
vt 0.000000 0.000000
vt 0.000000 0.000000
vt 0.000000 0.000000
vt 0.000000 0.000000
vt 0.000000 0.000000
vt 0.000000 0.000000
vt 0.000000 0.000000
vt 0.000000 0.000000
vt 0.000000 0.000000
vt 0.000000 0.000000
vt 0.000000 0.000000
vt 0.000000 0.000000
vt 0.000000 0.000000
vt 0.000000 0.000000
vt 0.000000 0.000000
vt 0.000000 0.000000
vt 0.000000 0.000000
vt 0.000000 0.000000
vt 0.000000 0.000000
vt 0.000000 0.000000
vt 0.000000 0.000000
vt 0.000000 0.000000
vt 0.000000 0.000000
vt 0.000000 0.000000
vt 0.000000 0.000000
vt 0.000000 0.000000
vt 0.000000 0.000000
vt 0.000000 0.000000
vt 0.000000 0.000000
vt 0.000000 0.000000
vt 0.000000 0.000000
vt 0.000000 0.000000
vt 0.000000 0.000000
vt 0.000000 0.000000
vt 0.000000 0.000000
vt 0.000000 0.000000
vt 0.000000 0.000000
vt 0.000000 0.000000
vt 0.000000 0.000000
vt 0.000000 0.000000
vt 0.000000 0.000000
vt 0.000000 0.000000
vt 0.000000 0.000000
vt 0.000000 0.000000
vt 0.000000 0.000000
vt 0.000000 0.000000
vt 0.000000 0.000000
vt 0.000000 0.000000
vt 0.000000 0.000000
vt 0.000000 0.000000
vt 0.000000 0.000000
vt 0.000000 0.000000
vt 0.000000 0.000000
vt 0.000000 0.000000
vt 0.000000 0.000000
vt 0.000000 0.000000
vt 0.000000 0.000000
vt 0.000000 0.000000
vt 0.000000 0.000000
vt 0.000000 0.000000
vt 0.000000 0.000000
vt 0.000000 0.000000
vt 0.000000 0.000000
vt 0.000000 0.000000
vt 0.000000 0.000000
vt 0.000000 0.000000
vt 0.000000 0.000000
vt 0.000000 0.000000
vt 0.000000 0.000000
vt 0.000000 0.000000
vt 0.000000 0.000000
vt 0.000000 0.000000
vt 0.000000 0.000000
vt 0.000000 0.000000
vt 0.000000 0.000000
vt 0.000000 0.000000
vt 0.000000 0.000000
vt 0.000000 0.000000
vt 0.000000 0.000000
vt 0.000000 0.000000
vt 0.000000 0.000000
vt 0.000000 0.000000
vt 0.000000 0.000000
vt 0.000000 0.000000
vt 0.000000 0.000000
vt 0.000000 0.000000
vt 0.000000 0.000000
vt 0.000000 0.000000
vt 0.000000 0.000000
vt 0.000000 0.000000
vt 0.000000 0.000000
vt 0.000000 0.000000
vt 0.000000 0.000000
vt 0.000000 0.000000
vt 0.000000 0.000000
vt 0.000000 0.000000
vt 0.000000 0.000000
vt 0.000000 0.000000
vt 0.000000 0.000000
vt 0.000000 0.000000
vt 0.000000 0.000000
vt 0.000000 0.000000
vt 0.000000 0.000000
vt 0.000000 0.000000
vt 0.000000 0.000000
vt 0.000000 0.000000
vt 0.000000 0.000000
vt 0.000000 0.000000
vt 0.000000 0.000000
vt 0.000000 0.000000
vt 0.000000 0.000000
vt 0.000000 0.000000
vt 0.000000 0.000000
vt 0.000000 0.000000
vt 0.000000 0.000000
vt 0.000000 0.000000
vt 0.000000 0.000000
vt 0.000000 0.000000
vt 0.000000 0.000000
vt 0.000000 0.000000
vt 0.000000 0.000000
vt 0.000000 0.000000
vt 0.000000 0.000000
vt 0.000000 0.000000
vt 0.000000 0.000000
vt 0.000000 0.000000
vt 0.000000 0.000000
vt 0.000000 0.000000
vt 0.000000 0.000000
vt 0.000000 0.000000
vt 0.000000 0.000000
vt 0.000000 0.000000
vt 0.000000 0.000000
vt 0.000000 0.000000
vt 0.000000 0.000000
vt 0.000000 0.000000
vt 0.000000 0.000000
vt 0.000000 0.000000
vt 0.000000 0.000000
vt 0.000000 0.000000
vt 0.000000 0.000000
vt 0.000000 0.000000
vt 0.000000 0.000000
vt 0.000000 0.000000
vt 0.000000 0.000000
vt 0.000000 0.000000
vt 0.000000 0.000000
vt 0.000000 0.000000
vt 0.000000 0.000000
vt 0.000000 0.000000
vt 0.000000 0.000000
vt 0.000000 0.000000
vt 0.000000 0.000000
vt 0.000000 0.000000
vt 0.000000 0.000000
vt 0.000000 0.000000
vt 0.000000 0.000000
vt 0.000000 0.000000
vt 0.000000 0.000000
vt 0.000000 0.000000
vt 0.000000 0.000000
vt 0.000000 0.000000
vt 0.000000 0.000000
vt 0.000000 0.000000
vt 0.000000 0.000000
vt 0.000000 0.000000
vt 0.000000 0.000000
vt 0.000000 0.000000
vt 0.000000 0.000000
vt 0.000000 0.000000
vt 0.000000 0.000000
vt 0.000000 0.000000
vt 0.000000 0.000000
vt 0.000000 0.000000
vt 0.000000 0.000000
vt 0.000000 0.000000
vt 0.000000 0.000000
vt 0.000000 0.000000
vt 0.000000 0.000000
vt 0.000000 0.000000
vt 0.000000 0.000000
vt 0.000000 0.000000
vt 0.000000 0.000000
vt 0.000000 0.000000
vt 0.000000 0.000000
vt 0.000000 0.000000
vt 0.000000 0.000000
vt 0.000000 0.000000
vt 0.000000 0.000000
vt 0.000000 0.000000
vt 0.000000 0.000000
vt 0.000000 0.000000
vt 0.000000 0.000000
vt 0.000000 0.000000
vt 0.000000 0.000000
vt 0.000000 0.000000
vt 0.000000 0.000000
vt 0.000000 0.000000
vt 0.000000 0.000000
vt 0.000000 0.000000
vt 0.000000 0.000000
vt 0.000000 0.000000
vt 0.000000 0.000000
vt 0.000000 0.000000
vt 0.000000 0.000000
vt 0.000000 0.000000
vt 0.000000 0.000000
vt 0.000000 0.000000
vt 0.000000 0.000000
vt 0.000000 0.000000
vt 0.000000 0.000000
vt 0.000000 0.000000
vt 0.000000 0.000000
vt 0.000000 0.000000
vt 0.000000 0.000000
vt 0.000000 0.000000
vt 0.000000 0.000000
vt 0.000000 0.000000
vt 0.000000 0.000000
vt 0.000000 0.000000
vt 0.000000 0.000000
vt 0.000000 0.000000
vt 0.000000 0.000000
vt 0.000000 0.000000
vt 0.000000 0.000000
vt 0.000000 0.000000
vt 0.000000 0.000000
vt 0.000000 0.000000
vt 0.000000 0.000000
vt 0.000000 0.000000
vt 0.000000 0.000000
vt 0.000000 0.000000
vt 0.000000 0.000000
vt 0.000000 0.000000
vt 0.000000 0.000000
vt 0.000000 0.000000
vt 0.000000 0.000000
vt 0.000000 0.000000
vt 0.000000 0.000000
vt 0.000000 0.000000
vt 0.000000 0.000000
vt 0.000000 0.000000
vt 0.000000 0.000000
vt 0.000000 0.000000
vt 0.000000 0.000000
vt 0.000000 0.000000
vt 0.000000 0.000000
vt 0.000000 0.000000
vt 0.000000 0.000000
vt 0.000000 0.000000
vt 0.000000 0.000000
vt 0.000000 0.000000
vt 0.000000 0.000000
vt 0.000000 0.000000
vt 0.000000 0.000000
vt 0.000000 0.000000
vt 0.000000 0.000000
vt 0.000000 0.000000
vt 0.000000 0.000000
vt 0.000000 0.000000
vt 0.000000 0.000000
vt 0.000000 0.000000
vt 0.000000 0.000000
vt 0.000000 0.000000
vn 0.000000 -0.249878 0.968277
vn 0.000000 -0.249878 0.968277
vn 0.000000 -0.167772 0.985826
vn 0.000000 0.483077 0.875578
vn 0.000000 0.483077 0.875578
vn 0.000000 0.483077 0.875578
vn 0.000000 0.483077 0.875578
vn 0.000000 0.483077 0.875578
vn 0.000000 0.483077 0.875578
vn 0.000000 0.483077 0.875578
vn 0.000000 0.483077 0.875578
vn 0.000000 0.483077 0.875578
vn 0.000000 0.483077 0.875578
vn 0.000000 0.483077 0.875578
vn 0.000000 0.483077 0.875578
vn 0.000000 0.483077 0.875578
vn 0.000000 0.483077 0.875578
vn 0.000000 0.483077 0.875578
vn 0.000000 0.483077 0.875578
vn 0.000000 0.483077 0.875578
vn 0.000000 0.483077 0.875578
vn 0.000000 0.483077 0.875578
vn 0.000000 0.483077 0.875578
vn 0.000000 0.483077 0.875578
vn 0.000000 0.483077 0.875578
vn 0.000000 0.483077 0.875578
vn 0.000000 0.483077 0.875578
vn 0.000000 0.483077 0.875578
vn 0.000000 0.483077 0.875578
vn 0.000000 0.483077 0.875578
vn 0.000000 0.483077 0.875578
vn 0.000000 0.483077 0.875578
vn 0.000000 0.483077 0.875578
vn 0.000000 0.483077 0.875578
vn 0.000000 0.483077 0.875578
vn 0.000000 0.483077 0.875578
vn 0.000000 0.483077 0.875578
vn 0.000000 0.483077 0.875578
vn 0.000000 0.483077 0.875578
vn 0.000000 0.483077 0.875578
vn 0.000000 0.483077 0.875578
vn 0.000000 0.483077 0.875578
vn 0.000000 0.483077 0.875578
vn 0.000000 0.483077 0.875578
vn 0.000000 0.483077 0.875578
vn 0.000000 0.483077 0.875578
vn 0.000000 0.483077 0.875578
vn 0.000000 0.483077 0.875578
vn 0.000000 0.483077 0.875578
vn 0.000000 0.483077 0.875578
vn 0.000000 0.483077 0.875578
vn 0.550909 0.626896 0.550909
vn 0.550909 0.626896 0.550909
vn 0.550909 0.626896 0.550909
vn 0.550909 0.626896 0.550909
vn 0.550909 0.626896 0.550909
vn 0.550909 0.626896 0.550909
vn 1.000000 0.000000 0.000000
vn 1.000000 0.000000 0.000000
vn 0.992038 -0.125942 0.000000
vn 1.000000 0.000000 0.000000
vn 0.992038 -0.125942 0.000000
vn 0.992038 -0.125942 0.000000
vn -0.707107 0.000000 0.707107
vn -0.707107 0.000000 0.707107
vn -0.707107 0.000000 0.707107
vn -0.707107 0.000000 0.707107
vn -0.707107 0.000000 0.707107
vn -0.707107 0.000000 0.707107
vn 0.444444 0.777778 0.444444
vn 0.444444 0.777778 0.444444
vn 0.444444 0.777778 0.444444
vn 0.444444 0.777778 0.444444
vn 0.444444 0.777778 0.444444
vn 0.444444 0.777778 0.444444
vn 0.673595 -0.304204 0.673595
vn 0.673595 -0.304204 0.673595
vn 0.673595 -0.304204 0.673595
vn 0.673595 -0.304204 0.673595
vn 0.673595 -0.304204 0.673595
vn 0.673595 -0.304204 0.673595
vn -0.707107 0.707107 0.000000
vn -0.707107 0.707107 0.000000
vn -0.707107 0.707107 0.000000
vn -0.707107 0.707107 0.000000
vn -0.707107 0.707107 0.000000
vn -0.707107 0.707107 0.000000
vn -0.968277 -0.249878 0.000000
vn -0.968277 -0.249878 0.000000
vn -0.992038 -0.125942 0.000000
vn -0.968277 -0.249878 0.000000
vn -0.992038 -0.125942 0.000000
vn -0.992038 -0.125942 0.000000
vn -0.554700 0.000000 -0.832050
vn -0.289784 0.000000 -0.957092
vn -0.289784 0.000000 -0.957092
vn -0.554700 0.000000 -0.832050
vn -0.289784 0.000000 -0.957092
vn -0.554700 0.000000 -0.832050
vn 0.554700 0.000000 -0.832050
vn 0.289784 0.000000 -0.957092
vn 0.289784 0.000000 -0.957092
vn 0.554700 0.000000 -0.832050
vn 0.289784 0.000000 -0.957092
vn 0.554700 0.000000 -0.832050
vn -0.289784 0.000000 -0.957092
vn -0.289784 0.000000 -0.957092
vn 0.000000 0.000000 -1.000000
vn 0.289784 0.000000 -0.957092
vn 0.289784 0.000000 -0.957092
vn 0.000000 0.000000 -1.000000
vn 0.000000 0.000000 1.000000
vn 0.000000 0.000000 1.000000
vn 0.000000 0.000000 1.000000
vn 0.000000 0.000000 1.000000
vn 0.000000 0.000000 1.000000
vn 0.000000 0.000000 1.000000
vn -0.289784 0.000000 -0.957092
vn 0.289784 0.000000 -0.957092
vn 0.000000 0.000000 -1.000000
vn -0.289784 0.000000 -0.957092
vn 0.000000 0.000000 -1.000000
vn 0.289784 0.000000 -0.957092
vn -0.289784 0.000000 -0.957092
vn 0.289784 0.000000 -0.957092
vn -0.289784 0.000000 -0.957092
vn -0.289784 0.000000 -0.957092
vn -0.289784 0.000000 -0.957092
vn 0.000000 0.000000 -1.000000
vn -0.550909 0.626896 0.550909
vn -0.550909 0.626896 0.550909
vn -0.550909 0.626896 0.550909
vn -0.550909 0.626896 0.550909
vn -0.550909 0.626896 0.550909
vn -0.550909 0.626896 0.550909
vn 0.000000 0.637568 -0.770394
vn 0.000000 0.637568 -0.770394
vn 0.000000 0.637568 -0.770394
vn 0.000000 0.637568 -0.770394
vn 0.000000 0.637568 -0.770394
vn 0.000000 0.637568 -0.770394
vn -0.456863 0.567140 -0.685294
vn -0.456863 0.567140 -0.685294
vn -0.456863 0.567140 -0.685294
vn 0.823213 0.567733 0.000000
vn 0.823213 0.567733 0.000000
vn 0.823213 0.567733 0.000000
vn 0.823213 0.567733 0.000000
vn 0.823213 0.567733 0.000000
vn 0.823213 0.567733 0.000000
vn 0.000000 0.000000 -1.000000
vn 0.000000 0.000000 -1.000000
vn 0.000000 -0.125942 -0.992038
vn 0.000000 0.000000 -1.000000
vn 0.000000 -0.125942 -0.992038
vn 0.000000 -0.125942 -0.992038
vn 0.894427 0.000000 -0.447214
vn 0.894427 0.000000 -0.447214
vn 0.891144 -0.085603 -0.445572
vn 0.894427 0.000000 -0.447214
vn 0.891144 -0.085603 -0.445572
vn 0.891144 -0.085603 -0.445572
vn 0.707107 0.000000 0.707107
vn 0.707107 0.000000 0.707107
vn 0.707107 0.000000 0.707107
vn 0.707107 0.000000 0.707107
vn 0.707107 0.000000 0.707107
vn 0.707107 0.000000 0.707107
vn 0.000000 0.000000 1.000000
vn 0.000000 0.000000 1.000000
vn 0.000000 -0.167772 0.985826
vn 0.000000 0.000000 1.000000
vn 0.000000 -0.167772 0.985826
vn 0.000000 -0.167772 0.985826
vn -0.992038 -0.125942 0.000000
vn -0.992038 -0.125942 0.000000
vn -1.000000 0.000000 0.000000
vn -0.992038 -0.125942 0.000000
vn -1.000000 0.000000 0.000000
vn -1.000000 0.000000 0.000000
vn -0.894427 0.000000 -0.447214
vn -0.894427 0.000000 -0.447214
vn -0.891144 -0.085603 -0.445572
vn -0.894427 0.000000 -0.447214
vn -0.891144 -0.085603 -0.445572
vn -0.891144 -0.085603 -0.445572
vn 0.000000 -0.125942 -0.992038
vn 0.000000 -0.249878 -0.968277
vn 0.000000 -0.249878 -0.968277
vn 0.000000 -0.125942 -0.992038
vn 0.000000 -0.249878 -0.968277
vn 0.000000 -0.125942 -0.992038
vn 0.891144 -0.085603 -0.445572
vn 0.891144 -0.085603 -0.445572
vn 0.881319 -0.170578 -0.440659
vn 0.891144 -0.085603 -0.445572
vn 0.881319 -0.170578 -0.440659
vn 0.881319 -0.170578 -0.440659
vn 0.992038 -0.125942 0.000000
vn 0.992038 -0.125942 0.000000
vn 0.968277 -0.249878 0.000000
vn 0.992038 -0.125942 0.000000
vn 0.968277 -0.249878 0.000000
vn 0.968277 -0.249878 0.000000
vn 0.000000 -0.167772 0.985826
vn 0.000000 -0.249878 0.968277
vn 0.000000 -0.249878 0.968277
vn -0.673595 -0.304204 0.673595
vn -0.673595 -0.304204 0.673595
vn -0.673595 -0.304204 0.673595
vn -0.673595 -0.304204 0.673595
vn -0.673595 -0.304204 0.673595
vn -0.673595 -0.304204 0.673595
vn -0.891144 -0.085603 -0.445572
vn -0.891144 -0.085603 -0.445572
vn -0.881319 -0.170578 -0.440659
vn -0.891144 -0.085603 -0.445572
vn -0.881319 -0.170578 -0.440659
vn -0.881319 -0.170578 -0.440659
vn 0.000000 1.000000 0.000000
vn 0.000000 1.000000 0.000000
vn 0.000000 1.000000 0.000000
vn 0.000000 1.000000 0.000000
vn 0.000000 1.000000 0.000000
vn 0.000000 1.000000 0.000000
vn 0.000000 1.000000 0.000000
vn 0.000000 1.000000 0.000000
vn 0.000000 1.000000 0.000000
vn 0.000000 1.000000 0.000000
vn 0.000000 1.000000 0.000000
vn 0.000000 1.000000 0.000000
vn 0.000000 1.000000 0.000000
vn 0.000000 1.000000 0.000000
vn 0.000000 1.000000 0.000000
vn 0.000000 1.000000 0.000000
vn 0.000000 1.000000 0.000000
vn 0.000000 1.000000 0.000000
vn 0.000000 0.707107 -0.707107
vn 0.000000 0.707107 -0.707107
vn 0.000000 0.707107 -0.707107
vn 0.000000 0.707107 -0.707107
vn 0.000000 0.707107 -0.707107
vn 0.000000 0.707107 -0.707107
vn 0.742781 0.557086 -0.371391
vn 0.742781 0.557086 -0.371391
vn 0.742781 0.557086 -0.371391
vn 0.742781 0.557086 -0.371391
vn 0.742781 0.557086 -0.371391
vn 0.742781 0.557086 -0.371391
vn 0.707107 0.707107 0.000000
vn 0.707107 0.707107 0.000000
vn 0.707107 0.707107 0.000000
vn 0.707107 0.707107 0.000000
vn 0.707107 0.707107 0.000000
vn 0.707107 0.707107 0.000000
vn 0.000000 0.707107 0.707107
vn 0.000000 0.707107 0.707107
vn 0.000000 0.707107 0.707107
vn 0.000000 0.707107 0.707107
vn 0.000000 0.707107 0.707107
vn 0.000000 0.707107 0.707107
vn 0.000000 0.707107 0.707107
vn 0.000000 0.707107 0.707107
vn 0.000000 0.707107 0.707107
vn -0.444444 0.777778 0.444444
vn -0.444444 0.777778 0.444444
vn -0.444444 0.777778 0.444444
vn -0.444444 0.777778 0.444444
vn -0.444444 0.777778 0.444444
vn -0.444444 0.777778 0.444444
vn -0.742781 0.557086 -0.371391
vn -0.742781 0.557086 -0.371391
vn -0.742781 0.557086 -0.371391
vn -0.742781 0.557086 -0.371391
vn -0.742781 0.557086 -0.371391
vn -0.742781 0.557086 -0.371391
vn 1.000000 0.000000 0.000000
vn 1.000000 0.000000 0.000000
vn 1.000000 0.000000 0.000000
vn 1.000000 0.000000 0.000000
vn 1.000000 0.000000 0.000000
vn 1.000000 0.000000 0.000000
vn 0.707107 0.000000 0.707107
vn 0.707107 0.000000 0.707107
vn 0.707107 0.000000 0.707107
vn 0.707107 0.000000 0.707107
vn 0.707107 0.000000 0.707107
vn 0.707107 0.000000 0.707107
vn -0.707107 0.000000 0.707107
vn -0.707107 0.000000 0.707107
vn -0.707107 0.000000 0.707107
vn -0.707107 0.000000 0.707107
vn -0.707107 0.000000 0.707107
vn -0.707107 0.000000 0.707107
vn -1.000000 0.000000 0.000000
vn -1.000000 0.000000 0.000000
vn -1.000000 0.000000 0.000000
vn -1.000000 0.000000 0.000000
vn -1.000000 0.000000 0.000000
vn -1.000000 0.000000 0.000000
vn 0.000000 0.483077 0.875578
vn 0.000000 0.483077 0.875578
vn 0.000000 0.483077 0.875578
vn 0.000000 0.483077 0.875578
vn 0.000000 0.483077 0.875578
vn 0.000000 0.483077 0.875578
vn 0.000000 0.483077 0.875578
vn 0.000000 0.483077 0.875578
vn 0.000000 0.483077 0.875578
vn 0.000000 0.483077 0.875578
vn 0.000000 0.483077 0.875578
vn 0.000000 0.483077 0.875578
vn 0.000000 0.483077 0.875578
vn 0.000000 0.483077 0.875578
vn 0.000000 0.483077 0.875578
vn 0.000000 0.483077 0.875578
vn 0.000000 0.483077 0.875578
vn 0.000000 0.483077 0.875578
vn 0.000000 0.483077 0.875578
vn 0.000000 0.483077 0.875578
vn 0.000000 0.483077 0.875578
vn 0.000000 0.483077 0.875578
vn 0.000000 0.483077 0.875578
vn 0.000000 0.483077 0.875578
vn 0.000000 0.483077 0.875578
vn 0.000000 0.483077 0.875578
vn 0.000000 0.483077 0.875578
vn 0.000000 0.483077 0.875578
vn 0.000000 0.483077 0.875578
vn 0.000000 0.483077 0.875578
vn 0.000000 0.483077 0.875578
vn 0.000000 0.483077 0.875578
vn 0.000000 0.483077 0.875578
vn 0.000000 0.483077 0.875578
vn 0.000000 0.483077 0.875578
vn 0.000000 0.483077 0.875578
vn 0.000000 0.483077 0.875578
vn 0.000000 0.483077 0.875578
vn 0.000000 0.483077 0.875578
vn 0.000000 0.483077 0.875578
vn 0.000000 0.483077 0.875578
vn 0.000000 0.483077 0.875578
vn 0.000000 0.483077 0.875578
vn 0.000000 0.483077 0.875578
vn 0.000000 0.483077 0.875578
vn 0.000000 0.483077 0.875578
vn 0.000000 0.483077 0.875578
vn 0.000000 0.483077 0.875578
vn 0.000000 0.000000 1.000000
vn 0.000000 0.000000 1.000000
vn 0.000000 0.000000 1.000000
vn 0.000000 0.000000 1.000000
vn 0.000000 0.000000 1.000000
vn 0.000000 0.000000 1.000000
vn 0.000000 0.000000 1.000000
vn 0.000000 0.000000 1.000000
vn 0.000000 0.000000 1.000000
vn 0.000000 0.000000 1.000000
vn 0.000000 0.000000 1.000000
vn 0.000000 0.000000 1.000000
vn -0.884918 0.000000 -0.465746
vn -0.884918 0.000000 -0.465746
vn -0.884918 0.000000 -0.465746
vn -0.884918 0.000000 -0.465746
vn -0.884918 0.000000 -0.465746
vn -0.884918 0.000000 -0.465746
vn -0.823213 0.567733 0.000000
vn -0.823213 0.567733 0.000000
vn -0.823213 0.567733 0.000000
vn -0.823213 0.567733 0.000000
vn -0.823213 0.567733 0.000000
vn -0.823213 0.567733 0.000000
vn 0.884918 0.000000 -0.465746
vn 0.884918 0.000000 -0.465746
vn 0.884918 0.000000 -0.465746
vn 0.884918 0.000000 -0.465746
vn 0.884918 0.000000 -0.465746
vn 0.884918 0.000000 -0.465746
vn 0.456863 0.567140 -0.685294
vn 0.456863 0.567140 -0.685294
vn 0.456863 0.567140 -0.685294
vn 0.808989 0.408299 -0.422881
vn 0.808989 0.408299 -0.422881
vn 0.808989 0.408299 -0.422881
vn 0.808989 0.408299 -0.422881
vn 0.808989 0.408299 -0.422881
vn 0.808989 0.408299 -0.422881
vn -0.808989 0.408299 -0.422881
vn -0.808989 0.408299 -0.422881
vn -0.808989 0.408299 -0.422881
vn -0.808989 0.408299 -0.422881
vn -0.808989 0.408299 -0.422881
vn -0.808989 0.408299 -0.422881
vn 0.000000 -0.249878 0.968277
vn 0.000000 -0.167772 0.985826
vn 0.000000 -0.167772 0.985826
vn 0.000000 0.999995 -0.003242
vn 0.000000 0.999995 -0.003242
vn 0.000000 0.999995 -0.003242
vn 0.000000 0.999995 -0.003242
vn 0.000000 0.999995 -0.003242
vn 0.000000 0.999995 -0.003242
vn 0.000000 0.999970 -0.007713
vn 0.000000 0.999970 -0.007713
vn 0.000000 0.999970 -0.007713
vn 0.000000 0.999970 -0.007713
vn 0.000000 0.999970 -0.007713
vn 0.000000 0.999970 -0.007713
vn 0.000000 0.999995 -0.003202
vn 0.000000 0.999995 -0.003202
vn 0.000000 0.999995 -0.003202
vn 0.000000 0.999995 -0.003202
vn 0.000000 0.999995 -0.003202
vn 0.000000 0.999995 -0.003202
vn 0.000000 0.999970 -0.007732
vn 0.000000 0.999970 -0.007732
vn 0.000000 0.999970 -0.007732
vn 0.000000 0.999970 -0.007732
vn 0.000000 0.999970 -0.007732
vn 0.000000 0.999970 -0.007732
vn 0.000000 0.999995 -0.003201
vn 0.000000 0.999995 -0.003201
vn 0.000000 0.999995 -0.003201
vn 0.000000 0.999995 -0.003201
vn 0.000000 0.999995 -0.003201
vn 0.000000 0.999995 -0.003201
vn 0.000000 0.999948 0.010244
vn 0.000000 0.999948 0.010244
vn 0.000000 0.999948 0.010244
vn 0.000000 0.999948 0.010244
vn 0.000000 0.999948 0.010244
vn 0.000000 0.999948 0.010244
vn 0.000000 0.999995 -0.003201
vn 0.000000 0.999995 -0.003201
vn 0.000000 0.999995 -0.003201
vn 0.000000 0.999995 -0.003201
vn 0.000000 0.999995 -0.003201
vn 0.000000 0.999995 -0.003201
vn 0.000000 0.999970 -0.007732
vn 0.000000 0.999970 -0.007732
vn 0.000000 0.999970 -0.007732
vn 0.000000 0.999970 -0.007732
vn 0.000000 0.999970 -0.007732
vn 0.000000 0.999970 -0.007732
vn 0.000000 0.999995 -0.003201
vn 0.000000 0.999995 -0.003201
vn 0.000000 0.999995 -0.003201
vn 0.000000 0.999995 -0.003201
vn 0.000000 0.999995 -0.003201
vn 0.000000 0.999995 -0.003201
vn 0.000000 0.999970 -0.007732
vn 0.000000 0.999970 -0.007732
vn 0.000000 0.999970 -0.007732
vn 0.000000 0.999970 -0.007732
vn 0.000000 0.999970 -0.007732
vn 0.000000 0.999970 -0.007732
vn 0.000000 0.999995 -0.003201
vn 0.000000 0.999995 -0.003201
vn 0.000000 0.999995 -0.003201
vn 0.000000 0.999995 -0.003201
vn 0.000000 0.999995 -0.003201
vn 0.000000 0.999995 -0.003201
vn 0.000000 0.999947 0.010254
vn 0.000000 0.999947 0.010254
vn 0.000000 0.999947 0.010254
vn 0.000000 0.999947 0.010254
vn 0.000000 0.999947 0.010254
vn 0.000000 0.999947 0.010254
vn 0.000000 0.999995 -0.003249
vn 0.000000 0.999995 -0.003249
vn 0.000000 0.999995 -0.003249
vn 0.000000 0.999995 -0.003249
vn 0.000000 0.999995 -0.003249
vn 0.000000 0.999995 -0.003249
vn 0.000000 0.999970 -0.007723
vn 0.000000 0.999970 -0.007723
vn 0.000000 0.999970 -0.007723
vn 0.000000 0.999970 -0.007723
vn 0.000000 0.999970 -0.007723
vn 0.000000 0.999970 -0.007723
vn 0.000000 0.999995 -0.003249
vn 0.000000 0.999995 -0.003249
vn 0.000000 0.999995 -0.003249
vn 0.000000 0.999995 -0.003249
vn 0.000000 0.999995 -0.003249
vn 0.000000 0.999995 -0.003249
vn 0.000000 0.999970 -0.007723
vn 0.000000 0.999970 -0.007723
vn 0.000000 0.999970 -0.007723
vn 0.000000 0.999970 -0.007723
vn 0.000000 0.999970 -0.007723
vn 0.000000 0.999970 -0.007723
vn 0.000000 0.000000 1.000000
vn 0.000000 0.000000 1.000000
vn 0.000000 0.000000 1.000000
vn 0.000000 0.000000 1.000000
vn 0.000000 0.000000 1.000000
vn 0.000000 0.000000 1.000000
vn -1.000000 0.000000 0.000000
vn -1.000000 0.000000 0.000000
vn -1.000000 0.000000 0.000000
vn 1.000000 0.000000 0.000000
vn 1.000000 0.000000 0.000000
vn 1.000000 0.000000 0.000000
vn 0.000000 0.000000 1.000000
vn 0.000000 0.000000 1.000000
vn 0.000000 0.000000 1.000000
vn 0.000000 0.000000 1.000000
vn 0.000000 0.000000 1.000000
vn 0.000000 0.000000 1.000000
vn -1.000000 0.000000 0.000000
vn -1.000000 0.000000 0.000000
vn -1.000000 0.000000 0.000000
vn 1.000000 0.000000 0.000000
vn 1.000000 0.000000 0.000000
vn 1.000000 0.000000 0.000000
vn 0.000000 0.000000 1.000000
vn 0.000000 0.000000 1.000000
vn 0.000000 0.000000 1.000000
vn 0.000000 0.000000 1.000000
vn 0.000000 0.000000 1.000000
vn 0.000000 0.000000 1.000000
vn -1.000000 0.000000 0.000000
vn -1.000000 0.000000 0.000000
vn -1.000000 0.000000 0.000000
vn 1.000000 0.000000 0.000000
vn 1.000000 0.000000 0.000000
vn 1.000000 0.000000 0.000000
vn 0.000000 0.000000 1.000000
vn 0.000000 0.000000 1.000000
vn 0.000000 0.000000 1.000000
vn 0.000000 0.000000 1.000000
vn 0.000000 0.000000 1.000000
vn 0.000000 0.000000 1.000000
vn -1.000000 0.000000 0.000000
vn -1.000000 0.000000 0.000000
vn -1.000000 0.000000 0.000000
vn 1.000000 0.000000 0.000000
vn 1.000000 0.000000 0.000000
vn 1.000000 0.000000 0.000000
vn 0.000000 0.000000 1.000000
vn 0.000000 0.000000 1.000000
vn 0.000000 0.000000 1.000000
vn 0.000000 0.000000 1.000000
vn 0.000000 0.000000 1.000000
vn 0.000000 0.000000 1.000000
vn -1.000000 0.000000 0.000000
vn -1.000000 0.000000 0.000000
vn -1.000000 0.000000 0.000000
vn 1.000000 0.000000 0.000000
vn 1.000000 0.000000 0.000000
vn 1.000000 0.000000 0.000000
vn 0.000000 0.000000 1.000000
vn 0.000000 0.000000 1.000000
vn 0.000000 0.000000 1.000000
vn 0.000000 0.000000 1.000000
vn 0.000000 0.000000 1.000000
vn 0.000000 0.000000 1.000000
vn -1.000000 0.000000 0.000000
vn -1.000000 0.000000 0.000000
vn -1.000000 0.000000 0.000000
vn 1.000000 0.000000 0.000000
vn 1.000000 0.000000 0.000000
vn 1.000000 0.000000 0.000000
vn 0.000000 0.000000 1.000000
vn 0.000000 0.000000 1.000000
vn 0.000000 0.000000 1.000000
vn 0.000000 0.000000 1.000000
vn 0.000000 0.000000 1.000000
vn 0.000000 0.000000 1.000000
vn -1.000000 0.000000 0.000000
vn -1.000000 0.000000 0.000000
vn -1.000000 0.000000 0.000000
vn 1.000000 0.000000 0.000000
vn 1.000000 0.000000 0.000000
vn 1.000000 0.000000 0.000000
vn 1.000000 0.000000 0.000000
vn 1.000000 0.000000 0.000000
vn 1.000000 0.000000 0.000000
vn 0.000000 0.000000 1.000000
vn 0.000000 0.000000 1.000000
vn 0.000000 0.000000 1.000000
vn 0.000000 0.000000 1.000000
vn 0.000000 0.000000 1.000000
vn 0.000000 0.000000 1.000000
vn -1.000000 0.000000 0.000000
vn -1.000000 0.000000 0.000000
vn -1.000000 0.000000 0.000000
vn 0.000000 0.000000 1.000000
vn 0.000000 0.000000 1.000000
vn 0.000000 0.000000 1.000000
vn 0.000000 0.000000 1.000000
vn 0.000000 0.000000 1.000000
vn 0.000000 0.000000 1.000000
vn -1.000000 0.000000 0.000000
vn -1.000000 0.000000 0.000000
vn -1.000000 0.000000 0.000000
vn 1.000000 0.000000 0.000000
vn 1.000000 0.000000 0.000000
vn 1.000000 0.000000 0.000000
vn 0.000000 0.000000 1.000000
vn 0.000000 0.000000 1.000000
vn 0.000000 0.000000 1.000000
vn 0.000000 0.000000 1.000000
vn 0.000000 0.000000 1.000000
vn 0.000000 0.000000 1.000000
vn -1.000000 0.000000 0.000000
vn -1.000000 0.000000 0.000000
vn -1.000000 0.000000 0.000000
vn 1.000000 0.000000 0.000000
vn 1.000000 0.000000 0.000000
vn 1.000000 0.000000 0.000000
vn 0.000000 0.000000 1.000000
vn 0.000000 0.000000 1.000000
vn 0.000000 0.000000 1.000000
vn 0.000000 0.000000 1.000000
vn 0.000000 0.000000 1.000000
vn 0.000000 0.000000 1.000000
vn -1.000000 0.000000 0.000000
vn -1.000000 0.000000 0.000000
vn -1.000000 0.000000 0.000000
vn 1.000000 0.000000 0.000000
vn 1.000000 0.000000 0.000000
vn 1.000000 0.000000 0.000000
vn 0.000000 0.000000 1.000000
vn 0.000000 0.000000 1.000000
vn 0.000000 0.000000 1.000000
vn 0.000000 0.000000 1.000000
vn 0.000000 0.000000 1.000000
vn 0.000000 0.000000 1.000000
vn -1.000000 0.000000 0.000000
vn -1.000000 0.000000 0.000000
vn -1.000000 0.000000 0.000000
vn 1.000000 0.000000 0.000000
vn 1.000000 0.000000 0.000000
vn 1.000000 0.000000 0.000000
vn 0.000000 0.000000 1.000000
vn 0.000000 0.000000 1.000000
vn 0.000000 0.000000 1.000000
vn 0.000000 0.000000 1.000000
vn 0.000000 0.000000 1.000000
vn 0.000000 0.000000 1.000000
vn -1.000000 0.000000 0.000000
vn -1.000000 0.000000 0.000000
vn -1.000000 0.000000 0.000000
vn 1.000000 0.000000 0.000000
vn 1.000000 0.000000 0.000000
vn 1.000000 0.000000 0.000000
vn 0.000000 0.000000 1.000000
vn 0.000000 0.000000 1.000000
vn 0.000000 0.000000 1.000000
vn 0.000000 0.000000 1.000000
vn 0.000000 0.000000 1.000000
vn 0.000000 0.000000 1.000000
vn -1.000000 0.000000 0.000000
vn -1.000000 0.000000 0.000000
vn -1.000000 0.000000 0.000000
vn 1.000000 0.000000 0.000000
vn 1.000000 0.000000 0.000000
vn 1.000000 0.000000 0.000000
vn 0.000000 0.000000 1.000000
vn 0.000000 0.000000 1.000000
vn 0.000000 0.000000 1.000000
vn 0.000000 0.000000 1.000000
vn 0.000000 0.000000 1.000000
vn 0.000000 0.000000 1.000000
vn -1.000000 0.000000 0.000000
vn -1.000000 0.000000 0.000000
vn -1.000000 0.000000 0.000000
vn 1.000000 0.000000 0.000000
vn 1.000000 0.000000 0.000000
vn 1.000000 0.000000 0.000000
vn 0.000000 0.000000 1.000000
vn 0.000000 0.000000 1.000000
vn 0.000000 0.000000 1.000000
vn 0.000000 0.000000 1.000000
vn 0.000000 0.000000 1.000000
vn 0.000000 0.000000 1.000000
vn -1.000000 0.000000 0.000000
vn -1.000000 0.000000 0.000000
vn -1.000000 0.000000 0.000000
vn 1.000000 0.000000 0.000000
vn 1.000000 0.000000 0.000000
vn 1.000000 0.000000 0.000000
f 3/1/1 37/2/2 27/3/3
f 13/4/4 36/5/5 59/6/6
f 13/7/7 59/8/8 74/9/9
f 13/10/10 74/11/11 72/12/12
f 13/13/13 72/14/14 73/15/15
f 13/16/16 73/17/17 68/18/18
f 13/19/19 68/20/20 71/21/21
f 13/22/22 71/23/23 69/24/24
f 13/25/25 69/26/26 70/27/27
f 13/28/28 70/29/29 60/30/30
f 13/31/31 60/32/32 66/33/33
f 13/34/34 66/35/35 65/36/36
f 13/37/37 65/38/38 67/39/39
f 13/40/40 67/41/41 61/42/42
f 13/43/43 61/44/44 64/45/45
f 13/46/46 64/47/47 62/48/48
f 13/49/49 62/50/50 63/51/51
f 34/52/52 22/53/53 11/54/54
f 34/55/55 11/56/56 12/57/57
f 11/58/58 18/59/59 23/60/60
f 11/61/61 23/62/62 51/63/63
f 14/64/64 13/65/65 27/66/66
f 14/67/67 27/68/68 50/69/69
f 53/70/70 45/71/71 35/72/72
f 53/73/73 35/74/74 52/75/75
f 52/76/76 35/77/77 25/78/78
f 52/79/79 25/80/80 51/81/81
f 24/82/82 32/83/83 39/84/84
f 24/85/85 39/86/86 26/87/87
f 26/88/88 39/89/89 29/90/90
f 26/91/91 29/92/92 50/93/93
f 8/94/94 28/95/95 10/96/96
f 8/97/97 10/98/98 48/99/99
f 6/100/100 2/101/101 49/102/102
f 6/103/103 49/104/104 47/105/105
f 10/106/106 28/107/107 44/108/108
f 49/109/109 2/110/110 19/111/111
f 54/112/112 5/113/113 34/114/114
f 54/115/115 34/116/116 57/117/117
f 28/118/118 49/119/119 19/120/120
f 28/121/121 19/122/122 2/123/123
f 28/124/124 2/125/125 10/126/126
f 28/127/127 10/128/128 44/129/129
f 13/130/130 14/131/131 46/132/132
f 13/133/133 46/134/134 36/135/135
f 28/136/136 15/137/137 20/138/138
f 28/139/139 20/140/140 49/141/141
f 15/142/142 28/143/143 8/144/144
f 18/145/145 11/146/146 22/147/147
f 18/148/148 22/149/149 1/150/150
f 20/151/151 15/152/152 30/153/153
f 20/154/154 30/155/155 21/156/156
f 18/157/157 20/158/158 21/159/159
f 18/160/160 21/161/161 23/162/162
f 51/163/163 25/164/164 12/165/165
f 51/166/166 12/167/167 11/168/168
f 13/169/169 12/170/170 25/171/171
f 13/172/172 25/173/173 27/174/174
f 50/175/175 29/176/176 17/177/177
f 50/178/178 17/179/179 14/180/180
f 15/181/181 17/182/182 29/183/183
f 15/184/184 29/185/185 30/186/186
f 30/187/187 40/188/188 31/189/189
f 30/190/190 31/191/191 21/192/192
f 23/193/193 21/194/194 31/195/195
f 23/196/196 31/197/197 33/198/198
f 51/199/199 23/200/200 33/201/201
f 51/202/202 33/203/203 52/204/204
f 25/205/205 35/206/206 3/207/207
f 50/208/208 27/209/209 37/210/210
f 50/211/211 37/212/212 26/213/213
f 30/214/214 29/215/215 39/216/216
f 30/217/217 39/218/218 40/219/219
f 41/220/220 42/221/221 32/222/222
f 41/223/223 32/224/224 24/225/225
f 41/226/226 24/227/227 16/228/228
f 41/229/229 16/230/230 45/231/231
f 41/232/232 45/233/233 53/234/234
f 41/235/235 53/236/236 43/237/237
f 40/238/238 42/239/239 41/240/240
f 40/241/241 41/242/242 31/243/243
f 33/244/244 31/245/245 41/246/246
f 33/247/247 41/248/248 43/249/249
f 52/250/250 33/251/251 43/252/252
f 52/253/253 43/254/254 53/255/255
f 37/256/256 3/257/257 35/258/258
f 37/259/259 35/260/260 45/261/261
f 37/262/262 45/263/263 16/264/264
f 26/265/265 37/266/266 16/267/267
f 26/268/268 16/269/269 24/270/270
f 40/271/271 39/272/272 32/273/273
f 40/274/274 32/275/275 42/276/276
f 1/277/277 22/278/278 7/279/279
f 1/280/280 7/281/281 38/282/282
f 5/283/283 7/284/284 22/285/285
f 5/286/286 22/287/287 34/288/288
f 9/289/289 4/290/290 36/291/291
f 9/292/292 36/293/293 46/294/294
f 56/295/295 9/296/296 46/297/297
f 56/298/298 46/299/299 55/300/300
f 57/301/301 34/302/302 12/303/303
f 57/304/304 12/305/305 89/306/306
f 57/307/307 89/308/308 87/309/309
f 57/310/310 87/311/311 88/312/312
f 57/313/313 88/314/314 83/315/315
f 57/316/316 83/317/317 86/318/318
f 57/319/319 86/320/320 84/321/321
f 57/322/322 84/323/323 85/324/324
f 57/325/325 85/326/326 75/327/327
f 57/328/328 75/329/329 82/330/330
f 57/331/331 82/332/332 80/333/333
f 57/334/334 80/335/335 81/336/336
f 57/337/337 81/338/338 76/339/339
f 57/340/340 76/341/341 79/342/342
f 57/343/343 79/344/344 77/345/345
f 57/346/346 77/347/347 78/348/348
f 59/349/349 36/350/350 4/351/351
f 59/352/352 4/353/353 58/354/354
f 57/355/355 59/356/356 58/357/357
f 57/358/358 58/359/359 54/360/360
f 55/361/361 8/362/362 48/363/363
f 55/364/364 48/365/365 56/366/366
f 55/367/367 46/368/368 14/369/369
f 55/370/370 14/371/371 17/372/372
f 38/373/373 6/374/374 47/375/375
f 38/376/376 47/377/377 1/378/378
f 47/379/379 49/380/380 20/381/381
f 20/382/382 18/383/383 1/384/384
f 20/385/385 1/386/386 47/387/387
f 8/388/388 55/389/389 17/390/390
f 8/391/391 17/392/392 15/393/393
f 3/394/394 27/395/395 25/396/396
f 59/397/397 57/398/398 115/399/399
f 59/400/400 115/401/401 114/402/402
f 63/403/403 89/404/404 90/405/405
f 63/406/406 90/407/407 91/408/408
f 62/409/409 87/410/410 106/411/411
f 62/412/412 106/413/413 107/414/414
f 64/415/415 88/416/416 102/417/417
f 64/418/418 102/419/419 98/420/420
f 61/421/421 83/422/422 110/423/423
f 61/424/424 110/425/425 111/426/426
f 67/427/427 86/428/428 95/429/429
f 67/430/430 95/431/431 103/432/432
f 65/433/433 84/434/434 120/435/435
f 65/436/436 120/437/437 121/438/438
f 66/439/439 85/440/440 94/441/441
f 66/442/442 94/443/443 99/444/444
f 60/445/445 75/446/446 118/447/447
f 60/448/448 118/449/449 119/450/450
f 70/451/451 82/452/452 104/453/453
f 70/454/454 104/455/455 105/456/456
f 69/457/457 80/458/458 112/459/459
f 69/460/460 112/461/461 113/462/462
f 71/463/463 81/464/464 100/465/465
f 71/466/466 100/467/467 101/468/468
f 68/469/469 76/470/470 116/471/471
f 68/472/472 116/473/473 117/474/474
f 73/475/475 79/476/476 96/477/477
f 73/478/478 96/479/479 97/480/480
f 72/481/481 77/482/482 108/483/483
f 72/484/484 108/485/485 109/486/486
f 74/487/487 78/488/488 92/489/489
f 74/490/490 92/491/491 93/492/492
f 77/493/493 72/494/494 93/495/495
f 77/496/496 93/497/497 92/498/498
f 78/499/499 77/500/500 92/501/501
f 72/502/502 74/503/503 93/504/504
f 76/505/505 68/506/506 97/507/507
f 76/508/508 97/509/509 96/510/510
f 79/511/511 76/512/512 96/513/513
f 68/514/514 73/515/515 97/516/516
f 80/517/517 69/518/518 101/519/519
f 80/520/520 101/521/521 100/522/522
f 81/523/523 80/524/524 100/525/525
f 69/526/526 71/527/527 101/528/528
f 75/529/529 60/530/530 105/531/531
f 75/532/532 105/533/533 104/534/534
f 82/535/535 75/536/536 104/537/537
f 60/538/538 70/539/539 105/540/540
f 83/541/541 61/542/542 103/543/543
f 83/544/544 103/545/545 95/546/546
f 86/547/547 83/548/548 95/549/549
f 61/550/550 67/551/551 103/552/552
f 84/553/553 65/554/554 99/555/555
f 84/556/556 99/557/557 94/558/558
f 85/559/559 84/560/560 94/561/561
f 65/562/562 66/563/563 99/564/564
f 87/565/565 62/566/566 98/567/567
f 87/568/568 98/569/569 102/570/570
f 88/571/571 87/572/572 102/573/573
f 62/574/574 64/575/575 98/576/576
f 13/577/577 63/578/578 91/579/579
f 12/580/580 13/581/581 91/582/582
f 12/583/583 91/584/584 90/585/585
f 89/586/586 12/587/587 90/588/588
f 79/589/589 73/590/590 109/591/591
f 79/592/592 109/593/593 108/594/594
f 77/595/595 79/596/596 108/597/597
f 73/598/598 72/599/599 109/600/600
f 82/601/601 70/602/602 113/603/603
f 82/604/604 113/605/605 112/606/606
f 80/607/607 82/608/608 112/609/609
f 70/610/610 69/611/611 113/612/612
f 81/613/613 71/614/614 117/615/615
f 81/616/616 117/617/617 116/618/618
f 76/619/619 81/620/620 116/621/621
f 71/622/622 68/623/623 117/624/624
f 86/625/625 67/626/626 121/627/627
f 86/628/628 121/629/629 120/630/630
f 84/631/631 86/632/632 120/633/633
f 67/634/634 65/635/635 121/636/636
f 89/637/637 63/638/638 107/639/639
f 89/640/640 107/641/641 106/642/642
f 87/643/643 89/644/644 106/645/645
f 63/646/646 62/647/647 107/648/648
f 88/649/649 64/650/650 111/651/651
f 88/652/652 111/653/653 110/654/654
f 83/655/655 88/656/656 110/657/657
f 64/658/658 61/659/659 111/660/660
f 85/661/661 66/662/662 119/663/663
f 85/664/664 119/665/665 118/666/666
f 75/667/667 85/668/668 118/669/669
f 66/670/670 60/671/671 119/672/672
f 78/673/673 74/674/674 114/675/675
f 78/676/676 114/677/677 115/678/678
f 57/679/679 78/680/680 115/681/681
f 74/682/682 59/683/683 114/684/684
