v 15.999999 0.000000 16.000000
v 8.000000 0.000000 16.000000
v -0.000001 0.000000 16.000000
v -8.000001 0.000000 16.000000
v -16.000000 0.000000 15.999999
v 15.999999 0.000000 24.000000
v -11.759171 0.000000 24.000000
v -0.000001 0.000000 21.853996
v -8.000002 0.000000 44.906532
v -16.000002 0.000000 24.000000
v -8.000001 4.120870 32.000000
v -16.000002 0.000000 32.000000
v 15.875782 1.420038 39.289982
v 7.999998 0.000000 40.000000
v -0.000002 4.878431 40.000000
v -11.431746 0.000000 40.000000
v -16.000002 0.000000 40.000000
v 15.999998 0.000000 48.000000
v 7.999998 0.000000 48.000000
v -0.000002 0.000000 48.000000
v -8.000002 0.000000 48.000000
v -16.000002 0.000000 48.000000
v -4.000001 8.000000 29.000000
v -5.840767 4.318468 36.380573
v -2.578403 5.686395 37.156803
v 33.335732 0.338593 36.243240
v -2.888192 4.447236 26.223618
v -3.962630 5.432991 26.716496
v 24.000000 0.000000 16.000002
v 32.000000 0.000000 16.000002
v 40.000000 0.000000 16.000002
v 48.000000 0.000000 16.000002
v 23.445923 0.754057 20.294081
v 22.920555 2.272815 25.136410
v 40.000000 0.000000 24.000002
v 48.000000 0.000000 24.000002
v 17.616999 1.790520 26.796501
v 48.000000 0.000000 32.000004
v 23.999998 0.000000 40.000000
v 28.823872 1.954692 39.022655
v 40.000000 0.000000 40.000000
v 48.000000 0.000000 40.000004
v 23.999998 0.000000 48.000000
v 31.999998 0.000000 48.000000
v 39.999996 0.000000 48.000000
v 47.999996 0.000000 48.000004
v 16.307631 0.114168 29.020191
v 36.572231 6.855537 35.429173
v 35.019314 3.922746 38.038628
v 35.674202 6.202130 36.898933
v 34.613098 5.547600 26.773802
v 41.522678 1.295643 33.943676
v 32.883209 0.772887 19.641472
v 7.999999 0.000000 20.216368
v -8.000001 0.000000 20.382292
v -1.264077 0.273016 30.913092
v 23.365755 0.299516 31.266666
v 13.535014 1.736283 37.227005
v 16.266533 1.815749 37.485096
v 18.618813 0.214272 39.607758
v 18.071114 0.094028 37.655605
v 8.119104 1.954662 24.977331
v 13.155226 0.070846 33.186577
v 8.673369 0.000000 26.020487
v 38.422211 3.695917 39.652042
v 31.999998 0.828818 43.841141
v 35.392006 0.244794 43.590878
v 30.786509 0.670614 38.013443
v 28.970907 4.303854 29.698109
v 25.716963 2.584921 28.118523
vt 0.000000 0.000000
vt 0.000000 0.000000
vt 0.000000 0.000000
vt 0.000000 0.000000
vt 0.000000 0.000000
vt 0.000000 0.000000
vt 0.000000 0.000000
vt 0.000000 0.000000
vt 0.000000 0.000000
vt 0.000000 0.000000
vt 0.000000 0.000000
vt 0.000000 0.000000
vt 0.000000 0.000000
vt 0.000000 0.000000
vt 0.000000 0.000000
vt 0.000000 0.000000
vt 0.000000 0.000000
vt 0.000000 0.000000
vt 0.000000 0.000000
vt 0.000000 0.000000
vt 0.000000 0.000000
vt 0.000000 0.000000
vt 0.000000 0.000000
vt 0.000000 0.000000
vt 0.000000 0.000000
vt 0.000000 0.000000
vt 0.000000 0.000000
vt 0.000000 0.000000
vt 0.000000 0.000000
vt 0.000000 0.000000
vt 0.000000 0.000000
vt 0.000000 0.000000
vt 0.000000 0.000000
vt 0.000000 0.000000
vt 0.000000 0.000000
vt 0.000000 0.000000
vt 0.000000 0.000000
vt 0.000000 0.000000
vt 0.000000 0.000000
vt 0.000000 0.000000
vt 0.000000 0.000000
vt 0.000000 0.000000
vt 0.000000 0.000000
vt 0.000000 0.000000
vt 0.000000 0.000000
vt 0.000000 0.000000
vt 0.000000 0.000000
vt 0.000000 0.000000
vt 0.000000 0.000000
vt 0.000000 0.000000
vt 0.000000 0.000000
vt 0.000000 0.000000
vt 0.000000 0.000000
vt 0.000000 0.000000
vt 0.000000 0.000000
vt 0.000000 0.000000
vt 0.000000 0.000000
vt 0.000000 0.000000
vt 0.000000 0.000000
vt 0.000000 0.000000
vt 0.000000 0.000000
vt 0.000000 0.000000
vt 0.000000 0.000000
vt 0.000000 0.000000
vt 0.000000 0.000000
vt 0.000000 0.000000
vt 0.000000 0.000000
vt 0.000000 0.000000
vt 0.000000 0.000000
vt 0.000000 0.000000
vt 0.000000 0.000000
vt 0.000000 0.000000
vt 0.000000 0.000000
vt 0.000000 0.000000
vt 0.000000 0.000000
vt 0.000000 0.000000
vt 0.000000 0.000000
vt 0.000000 0.000000
vt 0.000000 0.000000
vt 0.000000 0.000000
vt 0.000000 0.000000
vt 0.000000 0.000000
vt 0.000000 0.000000
vt 0.000000 0.000000
vt 0.000000 0.000000
vt 0.000000 0.000000
vt 0.000000 0.000000
vt 0.000000 0.000000
vt 0.000000 0.000000
vt 0.000000 0.000000
vt 0.000000 0.000000
vt 0.000000 0.000000
vt 0.000000 0.000000
vt 0.000000 0.000000
vt 0.000000 0.000000
vt 0.000000 0.000000
vt 0.000000 0.000000
vt 0.000000 0.000000
vt 0.000000 0.000000
vt 0.000000 0.000000
vt 0.000000 0.000000
vt 0.000000 0.000000
vt 0.000000 0.000000
vt 0.000000 0.000000
vt 0.000000 0.000000
vt 0.000000 0.000000
vt 0.000000 0.000000
vt 0.000000 0.000000
vt 0.000000 0.000000
vt 0.000000 0.000000
vt 0.000000 0.000000
vt 0.000000 0.000000
vt 0.000000 0.000000
vt 0.000000 0.000000
vt 0.000000 0.000000
vt 0.000000 0.000000
vt 0.000000 0.000000
vt 0.000000 0.000000
vt 0.000000 0.000000
vt 0.000000 0.000000
vt 0.000000 0.000000
vt 0.000000 0.000000
vt 0.000000 0.000000
vt 0.000000 0.000000
vt 0.000000 0.000000
vt 0.000000 0.000000
vt 0.000000 0.000000
vt 0.000000 0.000000
vt 0.000000 0.000000
vt 0.000000 0.000000
vt 0.000000 0.000000
vt 0.000000 0.000000
vt 0.000000 0.000000
vt 0.000000 0.000000
vt 0.000000 0.000000
vt 0.000000 0.000000
vt 0.000000 0.000000
vt 0.000000 0.000000
vt 0.000000 0.000000
vt 0.000000 0.000000
vt 0.000000 0.000000
vt 0.000000 0.000000
vt 0.000000 0.000000
vt 0.000000 0.000000
vt 0.000000 0.000000
vt 0.000000 0.000000
vt 0.000000 0.000000
vt 0.000000 0.000000
vt 0.000000 0.000000
vt 0.000000 0.000000
vt 0.000000 0.000000
vt 0.000000 0.000000
vt 0.000000 0.000000
vt 0.000000 0.000000
vt 0.000000 0.000000
vt 0.000000 0.000000
vt 0.000000 0.000000
vt 0.000000 0.000000
vt 0.000000 0.000000
vt 0.000000 0.000000
vt 0.000000 0.000000
vt 0.000000 0.000000
vt 0.000000 0.000000
vt 0.000000 0.000000
vt 0.000000 0.000000
vt 0.000000 0.000000
vt 0.000000 0.000000
vt 0.000000 0.000000
vt 0.000000 0.000000
vt 0.000000 0.000000
vt 0.000000 0.000000
vt 0.000000 0.000000
vt 0.000000 0.000000
vt 0.000000 0.000000
vt 0.000000 0.000000
vt 0.000000 0.000000
vt 0.000000 0.000000
vt 0.000000 0.000000
vt 0.000000 0.000000
vt 0.000000 0.000000
vt 0.000000 0.000000
vt 0.000000 0.000000
vt 0.000000 0.000000
vt 0.000000 0.000000
vt 0.000000 0.000000
vt 0.000000 0.000000
vt 0.000000 0.000000
vt 0.000000 0.000000
vt 0.000000 0.000000
vt 0.000000 0.000000
vt 0.000000 0.000000
vt 0.000000 0.000000
vt 0.000000 0.000000
vt 0.000000 0.000000
vt 0.000000 0.000000
vt 0.000000 0.000000
vt 0.000000 0.000000
vt 0.000000 0.000000
vt 0.000000 0.000000
vt 0.000000 0.000000
vt 0.000000 0.000000
vt 0.000000 0.000000
vt 0.000000 0.000000
vt 0.000000 0.000000
vt 0.000000 0.000000
vt 0.000000 0.000000
vt 0.000000 0.000000
vt 0.000000 0.000000
vt 0.000000 0.000000
vt 0.000000 0.000000
vt 0.000000 0.000000
vt 0.000000 0.000000
vt 0.000000 0.000000
vt 0.000000 0.000000
vt 0.000000 0.000000
vt 0.000000 0.000000
vt 0.000000 0.000000
vt 0.000000 0.000000
vt 0.000000 0.000000
vt 0.000000 0.000000
vt 0.000000 0.000000
vt 0.000000 0.000000
vt 0.000000 0.000000
vt 0.000000 0.000000
vt 0.000000 0.000000
vt 0.000000 0.000000
vt 0.000000 0.000000
vt 0.000000 0.000000
vt 0.000000 0.000000
vt 0.000000 0.000000
vt 0.000000 0.000000
vt 0.000000 0.000000
vt 0.000000 0.000000
vt 0.000000 0.000000
vt 0.000000 0.000000
vt 0.000000 0.000000
vt 0.000000 0.000000
vt 0.000000 0.000000
vt 0.000000 0.000000
vt 0.000000 0.000000
vt 0.000000 0.000000
vt 0.000000 0.000000
vt 0.000000 0.000000
vt 0.000000 0.000000
vt 0.000000 0.000000
vt 0.000000 0.000000
vt 0.000000 0.000000
vt 0.000000 0.000000
vt 0.000000 0.000000
vt 0.000000 0.000000
vt 0.000000 0.000000
vt 0.000000 0.000000
vt 0.000000 0.000000
vt 0.000000 0.000000
vt 0.000000 0.000000
vt 0.000000 0.000000
vt 0.000000 0.000000
vt 0.000000 0.000000
vt 0.000000 0.000000
vt 0.000000 0.000000
vt 0.000000 0.000000
vt 0.000000 0.000000
vt 0.000000 0.000000
vt 0.000000 0.000000
vt 0.000000 0.000000
vt 0.000000 0.000000
vt 0.000000 0.000000
vt 0.000000 0.000000
vt 0.000000 0.000000
vt 0.000000 0.000000
vt 0.000000 0.000000
vt 0.000000 0.000000
vt 0.000000 0.000000
vt 0.000000 0.000000
vt 0.000000 0.000000
vt 0.000000 0.000000
vt 0.000000 0.000000
vt 0.000000 0.000000
vt 0.000000 0.000000
vt 0.000000 0.000000
vt 0.000000 0.000000
vt 0.000000 0.000000
vt 0.000000 0.000000
vt 0.000000 0.000000
vt 0.000000 0.000000
vt 0.000000 0.000000
vt 0.000000 0.000000
vt 0.000000 0.000000
vt 0.000000 0.000000
vt 0.000000 0.000000
vt 0.000000 0.000000
vt 0.000000 0.000000
vt 0.000000 0.000000
vt 0.000000 0.000000
vt 0.000000 0.000000
vt 0.000000 0.000000
vt 0.000000 0.000000
vt 0.000000 0.000000
vt 0.000000 0.000000
vt 0.000000 0.000000
vt 0.000000 0.000000
vt 0.000000 0.000000
vt 0.000000 0.000000
vt 0.000000 0.000000
vt 0.000000 0.000000
vt 0.000000 0.000000
vt 0.000000 0.000000
vt 0.000000 0.000000
vt 0.000000 0.000000
vt 0.000000 0.000000
vt 0.000000 0.000000
vt 0.000000 0.000000
vt 0.000000 0.000000
vt 0.000000 0.000000
vt 0.000000 0.000000
vt 0.000000 0.000000
vt 0.000000 0.000000
vt 0.000000 0.000000
vt 0.000000 0.000000
vt 0.000000 0.000000
vt 0.000000 0.000000
vt 0.000000 0.000000
vt 0.000000 0.000000
vt 0.000000 0.000000
vt 0.000000 0.000000
vt 0.000000 0.000000
vt 0.000000 0.000000
vt 0.000000 0.000000
vt 0.000000 0.000000
vt 0.000000 0.000000
vt 0.000000 0.000000
vt 0.000000 0.000000
vt 0.000000 0.000000
vt 0.000000 0.000000
vt 0.000000 0.000000
vt 0.000000 0.000000
vt 0.000000 0.000000
vt 0.000000 0.000000
vt 0.000000 0.000000
vt 0.000000 0.000000
vt 0.000000 0.000000
vt 0.000000 0.000000
vn -0.142361 0.988376 0.053354
vn -0.032016 0.998974 -0.032016
vn 0.000000 1.000000 0.000000
vn -0.142361 0.988376 0.053354
vn 0.000000 1.000000 0.000000
vn 0.019931 0.960458 -0.277711
vn 0.019931 0.960458 -0.277711
vn 0.000000 1.000000 0.000000
vn 0.000000 1.000000 0.000000
vn 0.019931 0.960458 -0.277711
vn 0.000000 1.000000 0.000000
vn 0.004774 0.918480 -0.395438
vn 0.441323 0.789144 -0.427183
vn 0.432333 0.853412 -0.291165
vn 0.004774 0.918480 -0.395438
vn 0.441323 0.789144 -0.427183
vn 0.004774 0.918480 -0.395438
vn -0.079228 0.944403 -0.319102
vn 0.441323 0.789144 -0.427183
vn -0.079228 0.944403 -0.319102
vn -0.453018 0.848268 -0.274256
vn -0.453018 0.848268 -0.274256
vn -0.079228 0.944403 -0.319102
vn -0.345712 0.924630 -0.159822
vn 0.000000 1.000000 0.000000
vn 0.000000 1.000000 0.000000
vn 0.000000 1.000000 0.000000
vn 0.000000 1.000000 0.000000
vn 0.000000 1.000000 0.000000
vn 0.318799 0.914083 0.250637
vn 0.043991 0.991250 0.124450
vn 0.000000 1.000000 0.000000
vn 0.318799 0.914083 0.250637
vn -0.345712 0.924630 -0.159822
vn 0.000000 1.000000 0.000000
vn -0.231958 0.972716 0.004463
vn -0.097513 0.943743 0.315975
vn -0.210130 0.839106 0.501743
vn -0.071579 0.983854 0.164034
vn 0.053229 0.996276 0.067830
vn 0.000000 1.000000 0.000000
vn -0.071579 0.983854 0.164034
vn -0.231958 0.972716 0.004463
vn 0.000000 1.000000 0.000000
vn -0.290485 0.943117 0.161706
vn 0.070319 0.997254 -0.023211
vn 0.000000 1.000000 0.000000
vn 0.053229 0.996276 0.067830
vn 0.070319 0.997254 -0.023211
vn 0.401212 0.908751 0.114891
vn 0.109447 0.945896 0.305454
vn -0.261429 0.915221 0.306636
vn 0.401212 0.908751 0.114891
vn -0.007375 0.990427 0.137839
vn -0.290485 0.943117 0.161706
vn 0.000000 1.000000 0.000000
vn 0.000000 1.000000 0.000000
vn -0.290485 0.943117 0.161706
vn 0.000000 1.000000 0.000000
vn -0.078809 0.975834 0.203806
vn -0.290485 0.943117 0.161706
vn -0.078809 0.975834 0.203806
vn -0.261429 0.915221 0.306636
vn 0.318799 0.914083 0.250637
vn 0.000000 1.000000 0.000000
vn 0.105729 0.993967 0.029181
vn 0.295743 0.944741 0.141421
vn -0.484248 0.681590 0.548579
vn 0.408591 0.734425 0.541916
vn 0.105729 0.993967 0.029181
vn 0.000000 1.000000 0.000000
vn 0.300814 0.933438 -0.195463
vn 0.295743 0.944741 0.141421
vn 0.300814 0.933438 -0.195463
vn 0.005053 0.959506 -0.281642
vn 0.300814 0.933438 -0.195463
vn 0.000000 1.000000 0.000000
vn 0.000000 1.000000 0.000000
vn 0.300814 0.933438 -0.195463
vn 0.000000 1.000000 0.000000
vn 0.035783 0.998719 -0.035783
vn 0.300814 0.933438 -0.195463
vn 0.035783 0.998719 -0.035783
vn 0.031757 0.990956 -0.130377
vn 0.300814 0.933438 -0.195463
vn 0.031757 0.990956 -0.130377
vn 0.098808 0.936314 -0.336976
vn 0.603630 0.793125 0.081139
vn 0.105729 0.993967 0.029181
vn 0.300814 0.933438 -0.195463
vn 0.318799 0.914083 0.250637
vn 0.105729 0.993967 0.029181
vn 0.603630 0.793125 0.081139
vn 0.098808 0.936314 -0.336976
vn 0.005053 0.959506 -0.281642
vn 0.300814 0.933438 -0.195463
vn 0.098808 0.936314 -0.336976
vn 0.031757 0.990956 -0.130377
vn -0.036128 0.991297 -0.126592
vn 0.098808 0.936314 -0.336976
vn -0.036128 0.991297 -0.126592
vn -0.111233 0.959455 -0.258985
vn -0.142361 0.988376 0.053354
vn -0.198024 0.974113 -0.109046
vn -0.111233 0.959455 -0.258985
vn -0.111233 0.959455 -0.258985
vn -0.036128 0.991297 -0.126592
vn -0.032016 0.998974 -0.032016
vn -0.111233 0.959455 -0.258985
vn -0.032016 0.998974 -0.032016
vn -0.142361 0.988376 0.053354
vn -0.111233 0.959455 -0.258985
vn -0.198024 0.974113 -0.109046
vn 0.005053 0.959506 -0.281642
vn -0.111233 0.959455 -0.258985
vn 0.005053 0.959506 -0.281642
vn 0.098808 0.936314 -0.336976
vn 0.004774 0.918480 -0.395438
vn 0.432333 0.853412 -0.291165
vn 0.019931 0.960458 -0.277711
vn 0.019931 0.960458 -0.277711
vn 0.432333 0.853412 -0.291165
vn 0.262671 0.913459 0.310801
vn 0.004774 0.918480 -0.395438
vn 0.000000 1.000000 0.000000
vn 0.000000 1.000000 0.000000
vn 0.004774 0.918480 -0.395438
vn 0.000000 1.000000 0.000000
vn -0.079228 0.944403 -0.319102
vn -0.079228 0.944403 -0.319102
vn 0.000000 1.000000 0.000000
vn 0.000000 1.000000 0.000000
vn -0.079228 0.944403 -0.319102
vn 0.000000 1.000000 0.000000
vn 0.000000 1.000000 0.000000
vn -0.079228 0.944403 -0.319102
vn 0.000000 1.000000 0.000000
vn -0.345712 0.924630 -0.159822
vn -0.261429 0.915221 0.306636
vn -0.078809 0.975834 0.203806
vn 0.109447 0.945896 0.305454
vn -0.261429 0.915221 0.306636
vn 0.109447 0.945896 0.305454
vn 0.401212 0.908751 0.114891
vn -0.345712 0.924630 -0.159822
vn -0.549288 0.830612 0.091466
vn -0.453018 0.848268 -0.274256
vn -0.478629 0.848289 0.226537
vn -0.549288 0.830612 0.091466
vn -0.290485 0.943117 0.161706
vn -0.453018 0.848268 -0.274256
vn -0.549288 0.830612 0.091466
vn -0.478629 0.848289 0.226537
vn -0.290485 0.943117 0.161706
vn -0.549288 0.830612 0.091466
vn -0.231958 0.972716 0.004463
vn -0.231958 0.972716 0.004463
vn -0.549288 0.830612 0.091466
vn -0.345712 0.924630 -0.159822
vn 0.053229 0.996276 0.067830
vn 0.120026 0.976448 0.179282
vn 0.070319 0.997254 -0.023211
vn 0.109447 0.945896 0.305454
vn 0.000000 1.000000 0.000000
vn 0.070319 0.997254 -0.023211
vn 0.194353 0.976941 0.088397
vn 0.120026 0.976448 0.179282
vn 0.053229 0.996276 0.067830
vn -0.071579 0.983854 0.164034
vn 0.000000 1.000000 0.000000
vn 0.043991 0.991250 0.124450
vn 0.408591 0.734425 0.541916
vn -0.484248 0.681590 0.548579
vn -0.658251 0.602820 0.450904
vn 0.408591 0.734425 0.541916
vn -0.658251 0.602820 0.450904
vn -0.210130 0.839106 0.501743
vn 0.302260 0.928217 -0.216915
vn -0.161037 0.985737 -0.048876
vn 0.120026 0.976448 0.179282
vn 0.184175 0.974686 -0.126752
vn 0.302260 0.928217 -0.216915
vn 0.120026 0.976448 0.179282
vn 0.184175 0.974686 -0.126752
vn 0.120026 0.976448 0.179282
vn 0.194353 0.976941 0.088397
vn 0.053229 0.996276 0.067830
vn -0.071579 0.983854 0.164034
vn 0.194353 0.976941 0.088397
vn 0.019931 0.960458 -0.277711
vn 0.262671 0.913459 0.310801
vn -0.142361 0.988376 0.053354
vn 0.202915 0.878510 0.432488
vn -0.178915 0.960076 0.215043
vn -0.142361 0.988376 0.053354
vn 0.005053 0.959506 -0.281642
vn -0.198024 0.974113 -0.109046
vn -0.358730 0.901103 0.243571
vn -0.122719 0.962485 0.241996
vn -0.358730 0.901103 0.243571
vn -0.198024 0.974113 -0.109046
vn -0.213629 0.846335 -0.487934
vn -0.321226 0.363810 -0.874332
vn -0.343831 0.453879 -0.822055
vn -0.213629 0.846335 -0.487934
vn -0.343831 0.453879 -0.822055
vn -0.522279 0.836524 0.165687
vn -0.522279 0.836524 0.165687
vn -0.658251 0.602820 0.450904
vn -0.484248 0.681590 0.548579
vn -0.294973 0.269609 -0.916680
vn -0.321226 0.363810 -0.874332
vn -0.213629 0.846335 -0.487934
vn -0.358730 0.901103 0.243571
vn -0.122719 0.962485 0.241996
vn -0.522279 0.836524 0.165687
vn -0.547082 0.799093 0.249304
vn 0.295743 0.944741 0.141421
vn 0.005053 0.959506 -0.281642
vn -0.332981 0.936448 0.110402
vn -0.142361 0.988376 0.053354
vn -0.178915 0.960076 0.215043
vn -0.178915 0.960076 0.215043
vn -0.122719 0.962485 0.241996
vn -0.332981 0.936448 0.110402
vn -0.122719 0.962485 0.241996
vn -0.178915 0.960076 0.215043
vn 0.184175 0.974686 -0.126752
vn 0.432333 0.853412 -0.291165
vn 0.441323 0.789144 -0.427183
vn -0.007375 0.990427 0.137839
vn -0.007375 0.990427 0.137839
vn 0.401212 0.908751 0.114891
vn 0.432333 0.853412 -0.291165
vn 0.029081 0.955916 -0.292196
vn 0.184175 0.974686 -0.126752
vn -0.178915 0.960076 0.215043
vn -0.161037 0.985737 -0.048876
vn 0.029081 0.955916 -0.292196
vn 0.070319 0.997254 -0.023211
vn 0.401212 0.908751 0.114891
vn 0.070319 0.997254 -0.023211
vn 0.517545 0.854976 -0.034105
vn 0.262671 0.913459 0.310801
vn 0.432333 0.853412 -0.291165
vn 0.517545 0.854976 -0.034105
vn 0.202915 0.878510 0.432488
vn 0.517545 0.854976 -0.034105
vn 0.070319 0.997254 -0.023211
vn 0.202915 0.878510 0.432488
vn 0.262671 0.913459 0.310801
vn 0.517545 0.854976 -0.034105
vn -0.178915 0.960076 0.215043
vn 0.202915 0.878510 0.432488
vn 0.070319 0.997254 -0.023211
vn -0.178915 0.960076 0.215043
vn 0.070319 0.997254 -0.023211
vn 0.029081 0.955916 -0.292196
vn 0.302260 0.928217 -0.216915
vn 0.184175 0.974686 -0.126752
vn 0.029081 0.955916 -0.292196
vn 0.029081 0.955916 -0.292196
vn -0.161037 0.985737 -0.048876
vn 0.302260 0.928217 -0.216915
vn -0.161037 0.985737 -0.048876
vn 0.070319 0.997254 -0.023211
vn 0.120026 0.976448 0.179282
vn -0.007375 0.990427 0.137839
vn -0.418053 0.907809 0.033393
vn -0.478629 0.848289 0.226537
vn 0.974868 -0.139981 0.173314
vn 0.974868 -0.139981 0.173314
vn 0.974868 -0.139981 0.173314
vn 0.318799 0.914083 0.250637
vn 0.408591 0.734425 0.541916
vn 0.250444 0.858865 0.446799
vn 0.408591 0.734425 0.541916
vn 0.318799 0.914083 0.250637
vn 0.603630 0.793125 0.081139
vn -0.097513 0.943743 0.315975
vn 0.043991 0.991250 0.124450
vn 0.250444 0.858865 0.446799
vn 0.250444 0.858865 0.446799
vn 0.043991 0.991250 0.124450
vn 0.318799 0.914083 0.250637
vn 0.250444 0.858865 0.446799
vn 0.408591 0.734425 0.541916
vn -0.210130 0.839106 0.501743
vn 0.250444 0.858865 0.446799
vn -0.210130 0.839106 0.501743
vn -0.097513 0.943743 0.315975
vn -0.071579 0.983854 0.164034
vn 0.043991 0.991250 0.124450
vn -0.097513 0.943743 0.315975
vn 0.408591 0.734425 0.541916
vn 0.603630 0.793125 0.081139
vn 0.295743 0.944741 0.141421
vn -0.358730 0.901103 0.243571
vn -0.547082 0.799093 0.249304
vn 0.005053 0.959506 -0.281642
vn -0.213629 0.846335 -0.487934
vn -0.522279 0.836524 0.165687
vn 0.184175 0.974686 -0.126752
vn -0.213629 0.846335 -0.487934
vn 0.184175 0.974686 -0.126752
vn 0.194353 0.976941 0.088397
vn -0.142361 0.988376 0.053354
vn 0.262671 0.913459 0.310801
vn 0.202915 0.878510 0.432488
vn -0.198024 0.974113 -0.109046
vn -0.142361 0.988376 0.053354
vn -0.332981 0.936448 0.110402
vn 0.194353 0.976941 0.088397
vn -0.071579 0.983854 0.164034
vn -0.213629 0.846335 -0.487934
vn -0.122719 0.962485 0.241996
vn 0.184175 0.974686 -0.126752
vn -0.522279 0.836524 0.165687
vn -0.522279 0.836524 0.165687
vn -0.484248 0.681590 0.548579
vn 0.295743 0.944741 0.141421
vn -0.522279 0.836524 0.165687
vn 0.295743 0.944741 0.141421
vn -0.547082 0.799093 0.249304
vn -0.522279 0.836524 0.165687
vn -0.547082 0.799093 0.249304
vn -0.358730 0.901103 0.243571
vn -0.332981 0.936448 0.110402
vn -0.122719 0.962485 0.241996
vn -0.198024 0.974113 -0.109046
vn 0.300814 0.933438 -0.195463
vn 0.295743 0.944741 0.141421
vn 0.603630 0.793125 0.081139
vn -0.478629 0.848289 0.226537
vn -0.290485 0.943117 0.161706
vn -0.261429 0.915221 0.306636
vn -0.261429 0.915221 0.306636
vn -0.007375 0.990427 0.137839
vn -0.478629 0.848289 0.226537
vn 0.517545 0.854976 -0.034105
vn 0.432333 0.853412 -0.291165
vn 0.401212 0.908751 0.114891
f 6/1/1 1/2/2 2/3/3
f 6/4/4 2/5/5 54/6/6
f 54/7/7 2/8/8 3/9/9
f 54/10/10 3/11/11 8/12/12
f 28/13/13 27/14/14 8/15/15
f 28/16/16 8/17/17 55/18/18
f 28/19/19 55/20/20 23/21/21
f 23/22/22 55/23/23 7/24/24
f 45/25/25 46/26/26 42/27/27
f 45/28/28 42/29/29 41/30/30
f 44/31/31 45/32/32 41/33/33
f 7/34/34 10/35/35 12/36/36
f 66/37/37 40/38/38 39/39/39
f 18/40/40 43/41/41 39/42/42
f 12/43/43 17/44/44 16/45/45
f 14/46/46 19/47/47 18/48/48
f 14/49/49 15/50/50 20/51/51
f 9/52/52 15/53/53 25/54/54
f 16/55/55 17/56/56 22/57/57
f 16/58/58 22/59/59 21/60/60
f 16/61/61 21/62/62 9/63/63
f 41/64/64 42/65/65 38/66/66
f 48/67/67 50/68/68 65/69/69
f 38/70/70 36/71/71 35/72/72
f 48/73/73 35/74/74 51/75/75
f 35/76/76 36/77/77 32/78/78
f 35/79/79 32/80/80 31/81/81
f 35/82/82 31/83/83 30/84/84
f 35/85/85 30/86/86 53/87/87
f 52/88/88 38/89/89 35/90/90
f 41/91/91 38/92/92 52/93/93
f 53/94/94 51/95/95 35/96/96
f 53/97/97 30/98/98 29/99/99
f 53/100/100 29/101/101 33/102/102
f 6/103/103 34/104/104 33/105/105
f 33/106/106 29/107/107 1/108/108
f 33/109/109 1/110/110 6/111/111
f 33/112/112 34/113/113 51/114/114
f 33/115/115 51/116/116 53/117/117
f 8/118/118 27/119/119 54/120/120
f 54/121/121 27/122/122 62/123/123
f 8/124/124 3/125/125 4/126/126
f 8/127/127 4/128/128 55/129/129
f 55/130/130 4/131/131 5/132/132
f 55/133/133 5/134/134 10/135/135
f 55/136/136 10/137/137 7/138/138
f 9/139/139 21/140/140 20/141/141
f 9/142/142 20/143/143 15/144/144
f 7/145/145 11/146/146 23/147/147
f 24/148/148 11/149/149 16/150/150
f 23/151/151 11/152/152 24/153/153
f 16/154/154 11/155/155 12/156/156
f 12/157/157 11/158/158 7/159/159
f 18/160/160 13/161/161 14/162/162
f 20/163/163 19/164/164 14/165/165
f 60/166/166 13/167/167 18/168/168
f 39/169/169 43/170/170 44/171/171
f 65/172/172 50/173/173 49/174/174
f 65/175/175 49/176/176 40/177/177
f 59/178/178 58/179/179 13/180/180
f 61/181/181 59/182/182 13/183/183
f 61/184/184 13/185/185 60/186/186
f 18/187/187 39/188/188 60/189/189
f 54/190/190 62/191/191 6/192/192
f 64/193/193 47/194/194 6/195/195
f 51/196/196 34/197/197 70/198/198
f 57/199/199 70/200/200 34/201/201
f 68/202/202 40/203/203 49/204/204
f 68/205/205 49/206/206 26/207/207
f 26/208/208 49/209/209 50/210/210
f 39/211/211 40/212/212 68/213/213
f 70/214/214 57/215/215 26/216/216
f 69/217/217 48/218/218 51/219/219
f 37/220/220 6/221/221 47/222/222
f 47/223/223 57/224/224 37/225/225
f 57/226/226 47/227/227 61/228/228
f 27/229/229 28/230/230 25/231/231
f 25/232/232 15/233/233 27/234/234
f 63/235/235 61/236/236 47/237/237
f 58/238/238 63/239/239 14/240/240
f 15/241/241 14/242/242 56/243/243
f 62/244/244 27/245/245 56/246/246
f 64/247/247 56/248/248 14/249/249
f 64/250/250 62/251/251 56/252/252
f 47/253/253 64/254/254 14/255/255
f 47/256/256 14/257/257 63/258/258
f 59/259/259 61/260/260 63/261/261
f 63/262/262 58/263/263 59/264/264
f 58/265/265 14/266/266 13/267/267
f 25/268/268 28/269/269 24/270/270
f 24/271/271 28/272/272 23/273/273
f 41/274/274 65/275/275 67/276/276
f 65/277/277 41/278/278 52/279/279
f 66/280/280 44/281/281 67/282/282
f 67/283/283 44/284/284 41/285/285
f 67/286/286 65/287/287 40/288/288
f 67/289/289 40/290/290 66/291/291
f 39/292/292 44/293/293 66/294/294
f 65/295/295 52/296/296 48/297/297
f 70/298/298 69/299/299 51/300/300
f 68/301/301 26/302/302 61/303/303
f 68/304/304 61/305/305 60/306/306
f 6/307/307 62/308/308 64/309/309
f 34/310/310 6/311/311 37/312/312
f 60/313/313 39/314/314 68/315/315
f 57/316/316 61/317/317 26/318/318
f 26/319/319 50/320/320 48/321/321
f 26/322/322 48/323/323 69/324/324
f 26/325/325 69/326/326 70/327/327
f 37/328/328 57/329/329 34/330/330
f 35/331/331 48/332/332 52/333/333
f 24/334/334 16/335/335 9/336/336
f 9/337/337 25/338/338 24/339/339
f 56/340/340 27/341/341 15/342/342
