v -16.000000 0.000000 -16.000000
v -16.000000 0.000000 -8.000000
v -16.000000 0.000000 0.000000
v -16.000000 0.000000 8.000000
v -16.000000 0.000000 16.000000
v -8.000000 0.000000 -16.000000
v -8.000000 0.000000 -8.000000
v -8.000000 0.000000 0.000000
v -8.000000 0.000000 8.000000
v -8.000000 0.000000 16.000000
v 0.000000 0.000000 -16.000000
v 0.000000 0.000000 -8.000000
v 2.000000 0.000000 -8.000000
v 0.000000 0.000000 8.000000
v 0.000000 0.000000 16.000000
v 8.000000 0.000000 -16.000000
v 8.000000 0.000000 -8.000000
v 8.000000 0.000000 0.000000
v 8.000000 0.000000 8.000000
v 8.000000 0.000000 16.000000
v 16.000000 0.000000 -16.000000
v 16.000000 0.000000 -8.000000
v 16.000000 0.000000 0.000000
v 16.000000 0.000000 8.000000
v 16.000000 0.000000 16.000000
v -6.000000 0.000000 8.000000
v 6.000000 0.000000 8.000000
v 8.000000 0.000000 4.000000
v 8.000000 0.000000 6.000000
v -8.000000 0.000000 4.000000
v -8.000000 0.000000 6.000000
v -2.000000 0.000000 -8.000000
v 4.000000 8.000000 3.000000
v 3.000000 8.000000 4.000000
v -3.000000 8.000000 4.000000
v -4.000000 8.000000 3.000000
v -1.000000 8.000000 -4.000000
v -6.000000 30.000000 8.000000
v -4.000000 8.000000 2.000000
v 4.000000 8.000000 2.000000
v 0.000000 8.000000 4.000000
v 1.000000 8.000000 -4.000000
v 1.000000 10.000000 -4.000000
v -8.000000 30.000000 6.000000
v 4.000000 10.000000 2.000000
v 4.000000 10.000000 3.000000
v 3.000000 10.000000 4.000000
v 0.000000 10.000000 4.000000
v -3.000000 10.000000 4.000000
v -4.000000 10.000000 3.000000
v -4.000000 10.000000 2.000000
v -1.000000 10.000000 -4.000000
v 3.000000 26.000000 -12.000000
v -8.000000 30.000000 4.000000
v 12.000000 26.000000 6.000000
v 12.000000 26.000000 9.000000
v 9.000000 26.000000 12.000000
v 0.000000 26.000000 12.000000
v -9.000000 26.000000 12.000000
v -12.000000 26.000000 9.000000
v -12.000000 26.000000 6.000000
v -3.000000 26.000000 -12.000000
v 2.000000 30.000000 -8.000000
v -2.000000 30.000000 -8.000000
v 8.000000 30.000000 4.000000
v 8.000000 30.000000 6.000000
v 6.000000 30.000000 8.000000
v 0.000000 30.000000 8.000000
vt 0.000000 0.000000
vt 0.000000 0.000000
vt 0.000000 0.000000
vt 0.000000 0.000000
vt 0.000000 0.000000
vt 0.000000 0.000000
vt 0.000000 0.000000
vt 0.000000 0.000000
vt 0.000000 0.000000
vt 0.000000 0.000000
vt 0.000000 0.000000
vt 0.000000 0.000000
vt 0.000000 0.000000
vt 0.000000 0.000000
vt 0.000000 0.000000
vt 0.000000 0.000000
vt 0.000000 0.000000
vt 0.000000 0.000000
vt 0.000000 0.000000
vt 0.000000 0.000000
vt 0.000000 0.000000
vt 0.000000 0.000000
vt 0.000000 0.000000
vt 0.000000 0.000000
vt 0.000000 0.000000
vt 0.000000 0.000000
vt 0.000000 0.000000
vt 0.000000 0.000000
vt 0.000000 0.000000
vt 0.000000 0.000000
vt 0.000000 0.000000
vt 0.000000 0.000000
vt 0.000000 0.000000
vt 0.000000 0.000000
vt 0.000000 0.000000
vt 0.000000 0.000000
vt 0.000000 0.000000
vt 0.000000 0.000000
vt 0.000000 0.000000
vt 0.000000 0.000000
vt 0.000000 0.000000
vt 0.000000 0.000000
vt 0.000000 0.000000
vt 0.000000 0.000000
vt 0.000000 0.000000
vt 0.000000 0.000000
vt 0.000000 0.000000
vt 0.000000 0.000000
vt 0.000000 0.000000
vt 0.000000 0.000000
vt 0.000000 0.000000
vt 0.000000 0.000000
vt 0.000000 0.000000
vt 0.000000 0.000000
vt 0.000000 0.000000
vt 0.000000 0.000000
vt 0.000000 0.000000
vt 0.000000 0.000000
vt 0.000000 0.000000
vt 0.000000 0.000000
vt 0.000000 0.000000
vt 0.000000 0.000000
vt 0.000000 0.000000
vt 0.000000 0.000000
vt 0.000000 0.000000
vt 0.000000 0.000000
vt 0.000000 0.000000
vt 0.000000 0.000000
vt 0.000000 0.000000
vt 0.000000 0.000000
vt 0.000000 0.000000
vt 0.000000 0.000000
vt 0.000000 0.000000
vt 0.000000 0.000000
vt 0.000000 0.000000
vt 0.000000 0.000000
vt 0.000000 0.000000
vt 0.000000 0.000000
vt 0.000000 0.000000
vt 0.000000 0.000000
vt 0.000000 0.000000
vt 0.000000 0.000000
vt 0.000000 0.000000
vt 0.000000 0.000000
vt 0.000000 0.000000
vt 0.000000 0.000000
vt 0.000000 0.000000
vt 0.000000 0.000000
vt 0.000000 0.000000
vt 0.000000 0.000000
vt 0.000000 0.000000
vt 0.000000 0.000000
vt 0.000000 0.000000
vt 0.000000 0.000000
vt 0.000000 0.000000
vt 0.000000 0.000000
vt 0.000000 0.000000
vt 0.000000 0.000000
vt 0.000000 0.000000
vt 0.000000 0.000000
vt 0.000000 0.000000
vt 0.000000 0.000000
vt 0.000000 0.000000
vt 0.000000 0.000000
vt 0.000000 0.000000
vt 0.000000 0.000000
vt 0.000000 0.000000
vt 0.000000 0.000000
vt 0.000000 0.000000
vt 0.000000 0.000000
vt 0.000000 0.000000
vt 0.000000 0.000000
vt 0.000000 0.000000
vt 0.000000 0.000000
vt 0.000000 0.000000
vt 0.000000 0.000000
vt 0.000000 0.000000
vt 0.000000 0.000000
vt 0.000000 0.000000
vt 0.000000 0.000000
vt 0.000000 0.000000
vt 0.000000 0.000000
vt 0.000000 0.000000
vt 0.000000 0.000000
vt 0.000000 0.000000
vt 0.000000 0.000000
vt 0.000000 0.000000
vt 0.000000 0.000000
vt 0.000000 0.000000
vt 0.000000 0.000000
vt 0.000000 0.000000
vt 0.000000 0.000000
vt 0.000000 0.000000
vt 0.000000 0.000000
vt 0.000000 0.000000
vt 0.000000 0.000000
vt 0.000000 0.000000
vt 0.000000 0.000000
vt 0.000000 0.000000
vt 0.000000 0.000000
vt 0.000000 0.000000
vt 0.000000 0.000000
vt 0.000000 0.000000
vt 0.000000 0.000000
vt 0.000000 0.000000
vt 0.000000 0.000000
vt 0.000000 0.000000
vt 0.000000 0.000000
vt 0.000000 0.000000
vt 0.000000 0.000000
vt 0.000000 0.000000
vt 0.000000 0.000000
vt 0.000000 0.000000
vt 0.000000 0.000000
vt 0.000000 0.000000
vt 0.000000 0.000000
vt 0.000000 0.000000
vt 0.000000 0.000000
vt 0.000000 0.000000
vt 0.000000 0.000000
vt 0.000000 0.000000
vt 0.000000 0.000000
vt 0.000000 0.000000
vt 0.000000 0.000000
vt 0.000000 0.000000
vt 0.000000 0.000000
vt 0.000000 0.000000
vt 0.000000 0.000000
vt 0.000000 0.000000
vt 0.000000 0.000000
vt 0.000000 0.000000
vt 0.000000 0.000000
vt 0.000000 0.000000
vt 0.000000 0.000000
vt 0.000000 0.000000
vt 0.000000 0.000000
vt 0.000000 0.000000
vt 0.000000 0.000000
vt 0.000000 0.000000
vt 0.000000 0.000000
vt 0.000000 0.000000
vt 0.000000 0.000000
vt 0.000000 0.000000
vt 0.000000 0.000000
vt 0.000000 0.000000
vt 0.000000 0.000000
vt 0.000000 0.000000
vt 0.000000 0.000000
vt 0.000000 0.000000
vt 0.000000 0.000000
vt 0.000000 0.000000
vt 0.000000 0.000000
vt 0.000000 0.000000
vt 0.000000 0.000000
vt 0.000000 0.000000
vt 0.000000 0.000000
vt 0.000000 0.000000
vt 0.000000 0.000000
vt 0.000000 0.000000
vt 0.000000 0.000000
vt 0.000000 0.000000
vt 0.000000 0.000000
vt 0.000000 0.000000
vt 0.000000 0.000000
vt 0.000000 0.000000
vt 0.000000 0.000000
vt 0.000000 0.000000
vt 0.000000 0.000000
vt 0.000000 0.000000
vt 0.000000 0.000000
vt 0.000000 0.000000
vt 0.000000 0.000000
vt 0.000000 0.000000
vt 0.000000 0.000000
vt 0.000000 0.000000
vt 0.000000 0.000000
vt 0.000000 0.000000
vt 0.000000 0.000000
vt 0.000000 0.000000
vt 0.000000 0.000000
vt 0.000000 0.000000
vt 0.000000 0.000000
vt 0.000000 0.000000
vt 0.000000 0.000000
vt 0.000000 0.000000
vt 0.000000 0.000000
vt 0.000000 0.000000
vt 0.000000 0.000000
vt 0.000000 0.000000
vt 0.000000 0.000000
vt 0.000000 0.000000
vt 0.000000 0.000000
vt 0.000000 0.000000
vt 0.000000 0.000000
vt 0.000000 0.000000
vt 0.000000 0.000000
vt 0.000000 0.000000
vt 0.000000 0.000000
vt 0.000000 0.000000
vt 0.000000 0.000000
vt 0.000000 0.000000
vt 0.000000 0.000000
vt 0.000000 0.000000
vt 0.000000 0.000000
vt 0.000000 0.000000
vt 0.000000 0.000000
vt 0.000000 0.000000
vt 0.000000 0.000000
vt 0.000000 0.000000
vt 0.000000 0.000000
vt 0.000000 0.000000
vt 0.000000 0.000000
vt 0.000000 0.000000
vt 0.000000 0.000000
vt 0.000000 0.000000
vt 0.000000 0.000000
vt 0.000000 0.000000
vt 0.000000 0.000000
vt 0.000000 0.000000
vt 0.000000 0.000000
vt 0.000000 0.000000
vt 0.000000 0.000000
vt 0.000000 0.000000
vt 0.000000 0.000000
vt 0.000000 0.000000
vt 0.000000 0.000000
vt 0.000000 0.000000
vt 0.000000 0.000000
vt 0.000000 0.000000
vt 0.000000 0.000000
vt 0.000000 0.000000
vt 0.000000 0.000000
vt 0.000000 0.000000
vt 0.000000 0.000000
vt 0.000000 0.000000
vt 0.000000 0.000000
vt 0.000000 0.000000
vt 0.000000 0.000000
vt 0.000000 0.000000
vt 0.000000 0.000000
vt 0.000000 0.000000
vt 0.000000 0.000000
vt 0.000000 0.000000
vt 0.000000 0.000000
vt 0.000000 0.000000
vt 0.000000 0.000000
vt 0.000000 0.000000
vt 0.000000 0.000000
vt 0.000000 0.000000
vt 0.000000 0.000000
vt 0.000000 0.000000
vt 0.000000 0.000000
vt 0.000000 0.000000
vt 0.000000 0.000000
vt 0.000000 0.000000
vt 0.000000 0.000000
vt 0.000000 0.000000
vt 0.000000 0.000000
vt 0.000000 0.000000
vt 0.000000 0.000000
vt 0.000000 0.000000
vt 0.000000 0.000000
vt 0.000000 0.000000
vt 0.000000 0.000000
vt 0.000000 0.000000
vt 0.000000 0.000000
vt 0.000000 0.000000
vt 0.000000 0.000000
vt 0.000000 0.000000
vt 0.000000 0.000000
vt 0.000000 0.000000
vt 0.000000 0.000000
vt 0.000000 0.000000
vt 0.000000 0.000000
vt 0.000000 0.000000
vt 0.000000 0.000000
vt 0.000000 0.000000
vt 0.000000 0.000000
vt 0.000000 0.000000
vt 0.000000 0.000000
vt 0.000000 0.000000
vt 0.000000 0.000000
vt 0.000000 0.000000
vt 0.000000 0.000000
vt 0.000000 0.000000
vt 0.000000 0.000000
vt 0.000000 0.000000
vt 0.000000 0.000000
vt 0.000000 0.000000
vt 0.000000 0.000000
vt 0.000000 0.000000
vt 0.000000 0.000000
vt 0.000000 0.000000
vt 0.000000 0.000000
vt 0.000000 0.000000
vt 0.000000 0.000000
vt 0.000000 0.000000
vt 0.000000 0.000000
vt 0.000000 0.000000
vt 0.000000 0.000000
vt 0.000000 0.000000
vt 0.000000 0.000000
vt 0.000000 0.000000
vt 0.000000 0.000000
vt 0.000000 0.000000
vt 0.000000 0.000000
vt 0.000000 0.000000
vt 0.000000 0.000000
vt 0.000000 0.000000
vt 0.000000 0.000000
vt 0.000000 0.000000
vt 0.000000 0.000000
vt 0.000000 0.000000
vt 0.000000 0.000000
vn 0.000000 1.000000 0.000000
vn 0.000000 1.000000 0.000000
vn 0.000000 1.000000 0.000000
vn 0.000000 1.000000 0.000000
vn 0.000000 1.000000 0.000000
vn 0.000000 1.000000 0.000000
vn 0.000000 1.000000 0.000000
vn 0.000000 1.000000 0.000000
vn 0.000000 1.000000 0.000000
vn 0.000000 1.000000 0.000000
vn 0.000000 1.000000 0.000000
vn 0.000000 1.000000 0.000000
vn 0.000000 1.000000 0.000000
vn 0.000000 1.000000 0.000000
vn 0.000000 1.000000 0.000000
vn 0.000000 1.000000 0.000000
vn 0.000000 1.000000 0.000000
vn 0.000000 1.000000 0.000000
vn 0.000000 1.000000 0.000000
vn 0.000000 1.000000 0.000000
vn 0.000000 1.000000 0.000000
vn 0.000000 1.000000 0.000000
vn 0.000000 1.000000 0.000000
vn 0.000000 1.000000 0.000000
vn 0.000000 1.000000 0.000000
vn 0.000000 1.000000 0.000000
vn 0.000000 1.000000 0.000000
vn 0.000000 1.000000 0.000000
vn 0.000000 1.000000 0.000000
vn 0.000000 1.000000 0.000000
vn 0.000000 1.000000 0.000000
vn 0.000000 1.000000 0.000000
vn 0.000000 1.000000 0.000000
vn 0.000000 1.000000 0.000000
vn 0.000000 1.000000 0.000000
vn 0.000000 1.000000 0.000000
vn 0.000000 1.000000 0.000000
vn 0.000000 1.000000 0.000000
vn 0.000000 1.000000 0.000000
vn 0.000000 1.000000 0.000000
vn 0.000000 1.000000 0.000000
vn 0.000000 1.000000 0.000000
vn 0.000000 1.000000 0.000000
vn 0.000000 1.000000 0.000000
vn 0.000000 1.000000 0.000000
vn 0.000000 1.000000 0.000000
vn 0.000000 1.000000 0.000000
vn 0.000000 1.000000 0.000000
vn 0.000000 1.000000 0.000000
vn 0.000000 1.000000 0.000000
vn 0.000000 1.000000 0.000000
vn 0.000000 1.000000 0.000000
vn 0.000000 1.000000 0.000000
vn 0.000000 1.000000 0.000000
vn 0.000000 1.000000 0.000000
vn 0.000000 1.000000 0.000000
vn 0.000000 1.000000 0.000000
vn 0.000000 1.000000 0.000000
vn 0.000000 1.000000 0.000000
vn 0.000000 1.000000 0.000000
vn 0.000000 1.000000 0.000000
vn 0.000000 1.000000 0.000000
vn 0.000000 1.000000 0.000000
vn 0.000000 1.000000 0.000000
vn 0.000000 1.000000 0.000000
vn 0.000000 1.000000 0.000000
vn 0.000000 1.000000 0.000000
vn 0.000000 1.000000 0.000000
vn 0.000000 1.000000 0.000000
vn 0.000000 1.000000 0.000000
vn 0.000000 1.000000 0.000000
vn 0.000000 1.000000 0.000000
vn 0.000000 1.000000 0.000000
vn 0.000000 1.000000 0.000000
vn 0.000000 1.000000 0.000000
vn 0.000000 1.000000 0.000000
vn 0.000000 1.000000 0.000000
vn 0.000000 1.000000 0.000000
vn 0.000000 1.000000 0.000000
vn 0.000000 1.000000 0.000000
vn 0.000000 1.000000 0.000000
vn 0.000000 1.000000 0.000000
vn 0.000000 1.000000 0.000000
vn 0.000000 1.000000 0.000000
vn 0.000000 1.000000 0.000000
vn 0.000000 1.000000 0.000000
vn 0.000000 1.000000 0.000000
vn 0.000000 1.000000 0.000000
vn 0.000000 1.000000 0.000000
vn 0.000000 1.000000 0.000000
vn 0.000000 1.000000 0.000000
vn 0.000000 1.000000 0.000000
vn 0.000000 1.000000 0.000000
vn 0.000000 1.000000 0.000000
vn 0.000000 1.000000 0.000000
vn 0.000000 1.000000 0.000000
vn 0.000000 1.000000 0.000000
vn 0.000000 1.000000 0.000000
vn 0.000000 1.000000 0.000000
vn 0.000000 1.000000 0.000000
vn 0.000000 1.000000 0.000000
vn 0.000000 1.000000 0.000000
vn 0.000000 1.000000 0.000000
vn 0.000000 1.000000 0.000000
vn 0.000000 1.000000 0.000000
vn 0.000000 1.000000 0.000000
vn 0.000000 1.000000 0.000000
vn 0.000000 1.000000 0.000000
vn 0.000000 1.000000 0.000000
vn 0.000000 1.000000 0.000000
vn 0.000000 1.000000 0.000000
vn 0.000000 1.000000 0.000000
vn 0.000000 1.000000 0.000000
vn 0.000000 1.000000 0.000000
vn 0.601317 0.526152 0.601317
vn 0.601317 0.526152 0.601317
vn 0.601317 0.526152 0.601317
vn 0.601317 0.526152 0.601317
vn 0.601317 0.526152 0.601317
vn 0.601317 0.526152 0.601317
vn -0.601317 0.526152 0.601317
vn -0.601317 0.526152 0.601317
vn -0.601317 0.526152 0.601317
vn -0.601317 0.526152 0.601317
vn -0.601317 0.526152 0.601317
vn -0.601317 0.526152 0.601317
vn 0.000000 0.447214 -0.894427
vn 0.000000 0.447214 -0.894427
vn 0.000000 0.447214 -0.894427
vn 0.000000 0.447214 -0.894427
vn 0.000000 0.447214 -0.894427
vn 0.000000 0.229753 -0.973249
vn 0.000000 0.447214 -0.894427
vn 0.000000 0.229753 -0.973249
vn 0.000000 0.229753 -0.973249
vn -0.893684 0.392475 -0.217468
vn -0.894427 0.447214 0.000000
vn -0.973249 0.229753 0.000000
vn -0.893684 0.392475 -0.217468
vn -0.973249 0.229753 0.000000
vn -0.952746 0.200463 -0.228232
vn 0.894427 0.447214 0.000000
vn 0.893684 0.392475 -0.217468
vn 0.952746 0.200463 -0.228232
vn 0.894427 0.447214 0.000000
vn 0.952746 0.200463 -0.228232
vn 0.973249 0.229753 0.000000
vn 0.000000 0.447214 0.894427
vn 0.000000 0.447214 0.894427
vn 0.000000 0.229753 0.973249
vn 0.000000 0.447214 0.894427
vn 0.000000 0.229753 0.973249
vn 0.000000 0.229753 0.973249
vn 0.893684 0.392475 -0.217468
vn 0.847998 0.317999 -0.423999
vn 0.882744 0.161104 -0.441372
vn 0.893684 0.392475 -0.217468
vn 0.882744 0.161104 -0.441372
vn 0.952746 0.200463 -0.228232
vn 0.000000 0.447214 0.894427
vn 0.000000 0.447214 0.894427
vn 0.000000 0.229753 0.973249
vn 0.000000 0.447214 0.894427
vn 0.000000 0.229753 0.973249
vn 0.000000 0.229753 0.973249
vn -0.847998 0.317999 -0.423999
vn -0.893684 0.392475 -0.217468
vn -0.952746 0.200463 -0.228232
vn -0.847998 0.317999 -0.423999
vn -0.952746 0.200463 -0.228232
vn -0.882744 0.161104 -0.441372
vn 0.000000 0.229753 -0.973249
vn 0.000000 -0.229753 -0.973249
vn 0.000000 -0.229753 -0.973249
vn 0.000000 0.229753 -0.973249
vn 0.000000 -0.229753 -0.973249
vn 0.000000 0.229753 -0.973249
vn 0.952746 0.200463 -0.228232
vn 0.882744 0.161104 -0.441372
vn 0.882744 -0.161104 -0.441372
vn 0.952746 0.200463 -0.228232
vn 0.882744 -0.161104 -0.441372
vn 0.952746 -0.200463 -0.228232
vn 0.973249 0.229753 0.000000
vn 0.952746 0.200463 -0.228232
vn 0.952746 -0.200463 -0.228232
vn 0.973249 0.229753 0.000000
vn 0.952746 -0.200463 -0.228232
vn 0.973249 -0.229753 0.000000
vn 0.707107 0.000000 0.707107
vn 0.707107 0.000000 0.707107
vn 0.707107 0.000000 0.707107
vn 0.707107 0.000000 0.707107
vn 0.707107 0.000000 0.707107
vn 0.707107 0.000000 0.707107
vn 0.000000 0.229753 0.973249
vn 0.000000 0.229753 0.973249
vn 0.000000 -0.229753 0.973249
vn 0.000000 0.229753 0.973249
vn 0.000000 -0.229753 0.973249
vn 0.000000 -0.229753 0.973249
vn 0.000000 0.229753 0.973249
vn 0.000000 0.229753 0.973249
vn 0.000000 -0.229753 0.973249
vn 0.000000 0.229753 0.973249
vn 0.000000 -0.229753 0.973249
vn 0.000000 -0.229753 0.973249
vn -0.707107 0.000000 0.707107
vn -0.707107 0.000000 0.707107
vn -0.707107 0.000000 0.707107
vn -0.707107 0.000000 0.707107
vn -0.707107 0.000000 0.707107
vn -0.707107 0.000000 0.707107
vn -0.952746 0.200463 -0.228232
vn -0.973249 0.229753 0.000000
vn -0.973249 -0.229753 0.000000
vn -0.952746 0.200463 -0.228232
vn -0.973249 -0.229753 0.000000
vn -0.952746 -0.200463 -0.228232
vn -0.882744 0.161104 -0.441372
vn -0.952746 0.200463 -0.228232
vn -0.952746 -0.200463 -0.228232
vn -0.882744 0.161104 -0.441372
vn -0.952746 -0.200463 -0.228232
vn -0.882744 -0.161104 -0.441372
vn 0.000000 -0.229753 -0.973249
vn 0.000000 -0.447214 -0.894427
vn 0.000000 -0.447214 -0.894427
vn 0.000000 -0.229753 -0.973249
vn 0.000000 -0.447214 -0.894427
vn 0.000000 -0.229753 -0.973249
vn 0.952746 -0.200463 -0.228232
vn 0.882744 -0.161104 -0.441372
vn 0.847998 -0.317999 -0.423999
vn 0.952746 -0.200463 -0.228232
vn 0.847998 -0.317999 -0.423999
vn 0.893684 -0.392475 -0.217468
vn 0.973249 -0.229753 0.000000
vn 0.952746 -0.200463 -0.228232
vn 0.893684 -0.392475 -0.217468
vn 0.973249 -0.229753 0.000000
vn 0.893684 -0.392475 -0.217468
vn 0.894427 -0.447214 0.000000
vn 0.601317 -0.526152 0.601317
vn 0.601317 -0.526152 0.601317
vn 0.601317 -0.526152 0.601317
vn 0.601317 -0.526152 0.601317
vn 0.601317 -0.526152 0.601317
vn 0.601317 -0.526152 0.601317
vn 0.000000 -0.229753 0.973249
vn 0.000000 -0.229753 0.973249
vn 0.000000 -0.447214 0.894427
vn 0.000000 -0.229753 0.973249
vn 0.000000 -0.447214 0.894427
vn 0.000000 -0.447214 0.894427
vn 0.000000 -0.229753 0.973249
vn 0.000000 -0.229753 0.973249
vn 0.000000 -0.447214 0.894427
vn 0.000000 -0.229753 0.973249
vn 0.000000 -0.447214 0.894427
vn 0.000000 -0.447214 0.894427
vn -0.601317 -0.526152 0.601317
vn -0.601317 -0.526152 0.601317
vn -0.601317 -0.526152 0.601317
vn -0.601317 -0.526152 0.601317
vn -0.601317 -0.526152 0.601317
vn -0.601317 -0.526152 0.601317
vn -0.952746 -0.200463 -0.228232
vn -0.973249 -0.229753 0.000000
vn -0.894427 -0.447214 0.000000
vn -0.952746 -0.200463 -0.228232
vn -0.894427 -0.447214 0.000000
vn -0.893684 -0.392475 -0.217468
vn -0.882744 -0.161104 -0.441372
vn -0.952746 -0.200463 -0.228232
vn -0.893684 -0.392475 -0.217468
vn -0.882744 -0.161104 -0.441372
vn -0.893684 -0.392475 -0.217468
vn -0.847998 -0.317999 -0.423999
vn 0.000000 1.000000 0.000000
vn 0.000000 1.000000 0.000000
vn 0.000000 1.000000 0.000000
vn 0.000000 1.000000 0.000000
vn 0.000000 1.000000 0.000000
vn 0.000000 1.000000 0.000000
vn 0.000000 1.000000 0.000000
vn 0.000000 1.000000 0.000000
vn 0.000000 1.000000 0.000000
vn 0.000000 1.000000 0.000000
vn 0.000000 1.000000 0.000000
vn 0.000000 1.000000 0.000000
vn 0.000000 1.000000 0.000000
vn 0.000000 1.000000 0.000000
vn 0.000000 1.000000 0.000000
vn 0.000000 1.000000 0.000000
vn 0.000000 1.000000 0.000000
vn 0.000000 1.000000 0.000000
vn 0.000000 1.000000 0.000000
vn 0.000000 1.000000 0.000000
vn 0.000000 1.000000 0.000000
vn 0.000000 0.707107 -0.707107
vn 0.000000 0.707107 -0.707107
vn 0.000000 0.707107 -0.707107
vn 0.000000 0.707107 -0.707107
vn 0.000000 0.707107 -0.707107
vn 0.000000 0.707107 -0.707107
vn 0.740058 0.645274 -0.189567
vn 0.742781 0.557086 -0.371391
vn 0.742781 0.557086 -0.371391
vn 0.740058 0.645274 -0.189567
vn 0.742781 0.557086 -0.371391
vn 0.740058 0.645274 -0.189567
vn 0.707107 0.707107 0.000000
vn 0.740058 0.645274 -0.189567
vn 0.740058 0.645274 -0.189567
vn 0.707107 0.707107 0.000000
vn 0.740058 0.645274 -0.189567
vn 0.707107 0.707107 0.000000
vn 0.444444 0.777778 0.444444
vn 0.444444 0.777778 0.444444
vn 0.444444 0.777778 0.444444
vn 0.444444 0.777778 0.444444
vn 0.444444 0.777778 0.444444
vn 0.444444 0.777778 0.444444
vn 0.000000 0.707107 0.707107
vn 0.000000 0.707107 0.707107
vn 0.000000 0.707107 0.707107
vn 0.000000 0.707107 0.707107
vn 0.000000 0.707107 0.707107
vn 0.000000 0.707107 0.707107
vn 0.000000 0.707107 0.707107
vn 0.000000 0.707107 0.707107
vn 0.000000 0.707107 0.707107
vn 0.000000 0.707107 0.707107
vn 0.000000 0.707107 0.707107
vn 0.000000 0.707107 0.707107
vn -0.444444 0.777778 0.444444
vn -0.444444 0.777778 0.444444
vn -0.444444 0.777778 0.444444
vn -0.444444 0.777778 0.444444
vn -0.444444 0.777778 0.444444
vn -0.444444 0.777778 0.444444
vn -0.740058 0.645274 -0.189567
vn -0.707107 0.707107 0.000000
vn -0.707107 0.707107 0.000000
vn -0.740058 0.645274 -0.189567
vn -0.707107 0.707107 0.000000
vn -0.740058 0.645274 -0.189567
vn -0.742781 0.557086 -0.371391
vn -0.740058 0.645274 -0.189567
vn -0.740058 0.645274 -0.189567
vn -0.742781 0.557086 -0.371391
vn -0.740058 0.645274 -0.189567
vn -0.742781 0.557086 -0.371391
f 1/1/1 2/2/2 7/3/3
f 1/4/4 7/5/5 6/6/6
f 2/7/7 3/8/8 8/9/9
f 2/10/10 8/11/11 7/12/12
f 3/13/13 4/14/14 9/15/15
f 3/16/16 9/17/17 31/18/18
f 3/19/19 31/20/20 30/21/21
f 3/22/22 30/23/23 8/24/24
f 4/25/25 5/26/26 10/27/27
f 4/28/28 10/29/29 9/30/30
f 6/31/31 7/32/32 32/33/33
f 6/34/34 32/35/35 12/36/36
f 6/37/37 12/38/38 11/39/39
f 32/40/40 7/41/41 8/42/42
f 32/43/43 8/44/44 30/45/45
f 31/46/46 9/47/47 26/48/48
f 9/49/49 10/50/50 15/51/51
f 9/52/52 15/53/53 14/54/54
f 9/55/55 14/56/56 26/57/57
f 11/58/58 12/59/59 13/60/60
f 11/61/61 13/62/62 17/63/63
f 11/64/64 17/65/65 16/66/66
f 28/67/67 18/68/68 17/69/69
f 28/70/70 17/71/71 13/72/72
f 27/73/73 19/74/74 29/75/75
f 14/76/76 15/77/77 20/78/78
f 14/79/79 20/80/80 19/81/81
f 14/82/82 19/83/83 27/84/84
f 16/85/85 17/86/86 22/87/87
f 16/88/88 22/89/89 21/90/90
f 17/91/91 18/92/92 23/93/93
f 17/94/94 23/95/95 22/96/96
f 18/97/97 28/98/98 29/99/99
f 18/100/100 29/101/101 19/102/102
f 18/103/103 19/104/104 24/105/105
f 18/106/106 24/107/107 23/108/108
f 19/109/109 20/110/110 25/111/111
f 19/112/112 25/113/113 24/114/114
f 27/115/115 29/116/116 33/117/117
f 27/118/118 33/119/119 34/120/120
f 31/121/121 26/122/122 35/123/123
f 31/124/124 35/125/125 36/126/126
f 13/127/127 12/128/128 32/129/129
f 13/130/130 32/131/131 37/132/132
f 13/133/133 37/134/134 42/135/135
f 30/136/136 31/137/137 36/138/138
f 30/139/139 36/140/140 39/141/141
f 29/142/142 28/143/143 40/144/144
f 29/145/145 40/146/146 33/147/147
f 14/148/148 27/149/149 34/150/150
f 14/151/151 34/152/152 41/153/153
f 28/154/154 13/155/155 42/156/156
f 28/157/157 42/158/158 40/159/159
f 26/160/160 14/161/161 41/162/162
f 26/163/163 41/164/164 35/165/165
f 32/166/166 30/167/167 39/168/168
f 32/169/169 39/170/170 37/171/171
f 37/172/172 52/173/173 43/174/174
f 37/175/175 43/176/176 42/177/177
f 40/178/178 42/179/179 43/180/180
f 40/181/181 43/182/182 45/183/183
f 33/184/184 40/185/185 45/186/186
f 33/187/187 45/188/188 46/189/189
f 34/190/190 33/191/191 46/192/192
f 34/193/193 46/194/194 47/195/195
f 41/196/196 34/197/197 47/198/198
f 41/199/199 47/200/200 48/201/201
f 35/202/202 41/203/203 48/204/204
f 35/205/205 48/206/206 49/207/207
f 36/208/208 35/209/209 49/210/210
f 36/211/211 49/212/212 50/213/213
f 39/214/214 36/215/215 50/216/216
f 39/217/217 50/218/218 51/219/219
f 37/220/220 39/221/221 51/222/222
f 37/223/223 51/224/224 52/225/225
f 52/226/226 62/227/227 53/228/228
f 52/229/229 53/230/230 43/231/231
f 45/232/232 43/233/233 53/234/234
f 45/235/235 53/236/236 55/237/237
f 46/238/238 45/239/239 55/240/240
f 46/241/241 55/242/242 56/243/243
f 47/244/244 46/245/245 56/246/246
f 47/247/247 56/248/248 57/249/249
f 48/250/250 47/251/251 57/252/252
f 48/253/253 57/254/254 58/255/255
f 49/256/256 48/257/257 58/258/258
f 49/259/259 58/260/260 59/261/261
f 50/262/262 49/263/263 59/264/264
f 50/265/265 59/266/266 60/267/267
f 51/268/268 50/269/269 60/270/270
f 51/271/271 60/272/272 61/273/273
f 52/274/274 51/275/275 61/276/276
f 52/277/277 61/278/278 62/279/279
f 63/280/280 64/281/281 54/282/282
f 63/283/283 54/284/284 44/285/285
f 63/286/286 44/287/287 38/288/288
f 63/289/289 38/290/290 68/291/291
f 63/292/292 68/293/293 67/294/294
f 63/295/295 67/296/296 66/297/297
f 63/298/298 66/299/299 65/300/300
f 62/301/301 64/302/302 63/303/303
f 62/304/304 63/305/305 53/306/306
f 55/307/307 53/308/308 63/309/309
f 55/310/310 63/311/311 65/312/312
f 56/313/313 55/314/314 65/315/315
f 56/316/316 65/317/317 66/318/318
f 57/319/319 56/320/320 66/321/321
f 57/322/322 66/323/323 67/324/324
f 58/325/325 57/326/326 67/327/327
f 58/328/328 67/329/329 68/330/330
f 59/331/331 58/332/332 68/333/333
f 59/334/334 68/335/335 38/336/336
f 60/337/337 59/338/338 38/339/339
f 60/340/340 38/341/341 44/342/342
f 61/343/343 60/344/344 44/345/345
f 61/346/346 44/347/347 54/348/348
f 62/349/349 61/350/350 54/351/351
f 62/352/352 54/353/353 64/354/354
