v 24.000000 16.843388 9.000000
v 4.000000 11.000000 -19.000000
v -16.000000 11.000000 29.000000
v 16.000000 11.000000 29.000000
v 7.000000 11.000000 -17.000000
v 24.000000 10.999996 21.000000
v -7.000000 16.843391 -17.000000
v -24.000000 11.000004 21.000000
v -4.000000 11.000000 -19.000000
v 8.000000 29.000000 11.000000
v -6.000000 29.000000 13.000000
v -8.000000 29.000000 11.000000
v -1.000001 29.000000 -3.000000
v -8.000000 29.000000 9.000000
v 8.000000 29.000000 9.000000
v 1.000000 29.000000 -3.000000
v 1.000000 37.000000 -3.000000
v 24.000000 16.843357 21.030783
v 8.000000 37.000000 9.000000
v 6.000000 37.000000 13.000000
v -6.000000 37.000000 13.000000
v -8.000000 37.000000 9.000000
v -1.000000 37.000000 -3.000000
v 16.000000 16.843357 29.030783
v -16.000000 16.843355 29.030783
v 24.000000 10.999996 9.000000
v -24.000000 16.843357 21.030783
v 7.000000 16.843355 -16.969217
v -7.000000 11.000000 -17.000000
v -8.000000 37.000000 11.000000
v 8.000000 37.000000 11.000000
v 4.000000 16.843355 -18.969217
v -24.000000 16.843395 9.000000
v -24.000000 11.000004 9.000000
v -4.000001 16.843357 -18.969217
v 6.000000 29.000000 13.000000
v -11.000001 5.000000 21.000000
v 10.999999 5.000000 21.000000
v 2.000000 5.000000 -11.000000
v -2.000001 5.000000 -11.000000
v -4.000001 5.000000 -10.000000
v -16.000002 5.000000 9.000000
v 16.000000 5.000000 16.000000
v 16.000000 5.000000 9.000000
v 4.000000 5.000000 -10.000000
v -16.000002 5.000000 16.000000
vt 0.000000 0.000000
vt 0.000000 0.000000
vt 0.000000 0.000000
vt 0.000000 0.000000
vt 0.000000 0.000000
vt 0.000000 0.000000
vt 0.000000 0.000000
vt 0.000000 0.000000
vt 0.000000 0.000000
vt 0.000000 0.000000
vt 0.000000 0.000000
vt 0.000000 0.000000
vt 0.000000 0.000000
vt 0.000000 0.000000
vt 0.000000 0.000000
vt 0.000000 0.000000
vt 0.000000 0.000000
vt 0.000000 0.000000
vt 0.000000 0.000000
vt 0.000000 0.000000
vt 0.000000 0.000000
vt 0.000000 0.000000
vt 0.000000 0.000000
vt 0.000000 0.000000
vt 0.000000 0.000000
vt 0.000000 0.000000
vt 0.000000 0.000000
vt 0.000000 0.000000
vt 0.000000 0.000000
vt 0.000000 0.000000
vt 0.000000 0.000000
vt 0.000000 0.000000
vt 0.000000 0.000000
vt 0.000000 0.000000
vt 0.000000 0.000000
vt 0.000000 0.000000
vt 0.000000 0.000000
vt 0.000000 0.000000
vt 0.000000 0.000000
vt 0.000000 0.000000
vt 0.000000 0.000000
vt 0.000000 0.000000
vt 0.000000 0.000000
vt 0.000000 0.000000
vt 0.000000 0.000000
vt 0.000000 0.000000
vt 0.000000 0.000000
vt 0.000000 0.000000
vt 0.000000 0.000000
vt 0.000000 0.000000
vt 0.000000 0.000000
vt 0.000000 0.000000
vt 0.000000 0.000000
vt 0.000000 0.000000
vt 0.000000 0.000000
vt 0.000000 0.000000
vt 0.000000 0.000000
vt 0.000000 0.000000
vt 0.000000 0.000000
vt 0.000000 0.000000
vt 0.000000 0.000000
vt 0.000000 0.000000
vt 0.000000 0.000000
vt 0.000000 0.000000
vt 0.000000 0.000000
vt 0.000000 0.000000
vt 0.000000 0.000000
vt 0.000000 0.000000
vt 0.000000 0.000000
vt 0.000000 0.000000
vt 0.000000 0.000000
vt 0.000000 0.000000
vt 0.000000 0.000000
vt 0.000000 0.000000
vt 0.000000 0.000000
vt 0.000000 0.000000
vt 0.000000 0.000000
vt 0.000000 0.000000
vt 0.000000 0.000000
vt 0.000000 0.000000
vt 0.000000 0.000000
vt 0.000000 0.000000
vt 0.000000 0.000000
vt 0.000000 0.000000
vt 0.000000 0.000000
vt 0.000000 0.000000
vt 0.000000 0.000000
vt 0.000000 0.000000
vt 0.000000 0.000000
vt 0.000000 0.000000
vt 0.000000 0.000000
vt 0.000000 0.000000
vt 0.000000 0.000000
vt 0.000000 0.000000
vt 0.000000 0.000000
vt 0.000000 0.000000
vt 0.000000 0.000000
vt 0.000000 0.000000
vt 0.000000 0.000000
vt 0.000000 0.000000
vt 0.000000 0.000000
vt 0.000000 0.000000
vt 0.000000 0.000000
vt 0.000000 0.000000
vt 0.000000 0.000000
vt 0.000000 0.000000
vt 0.000000 0.000000
vt 0.000000 0.000000
vt 0.000000 0.000000
vt 0.000000 0.000000
vt 0.000000 0.000000
vt 0.000000 0.000000
vt 0.000000 0.000000
vt 0.000000 0.000000
vt 0.000000 0.000000
vt 0.000000 0.000000
vt 0.000000 0.000000
vt 0.000000 0.000000
vt 0.000000 0.000000
vt 0.000000 0.000000
vt 0.000000 0.000000
vt 0.000000 0.000000
vt 0.000000 0.000000
vt 0.000000 0.000000
vt 0.000000 0.000000
vt 0.000000 0.000000
vt 0.000000 0.000000
vt 0.000000 0.000000
vt 0.000000 0.000000
vt 0.000000 0.000000
vt 0.000000 0.000000
vt 0.000000 0.000000
vt 0.000000 0.000000
vt 0.000000 0.000000
vt 0.000000 0.000000
vt 0.000000 0.000000
vt 0.000000 0.000000
vt 0.000000 0.000000
vt 0.000000 0.000000
vt 0.000000 0.000000
vt 0.000000 0.000000
vt 0.000000 0.000000
vt 0.000000 0.000000
vt 0.000000 0.000000
vt 0.000000 0.000000
vt 0.000000 0.000000
vt 0.000000 0.000000
vt 0.000000 0.000000
vt 0.000000 0.000000
vt 0.000000 0.000000
vt 0.000000 0.000000
vt 0.000000 0.000000
vt 0.000000 0.000000
vt 0.000000 0.000000
vt 0.000000 0.000000
vt 0.000000 0.000000
vt 0.000000 0.000000
vt 0.000000 0.000000
vt 0.000000 0.000000
vt 0.000000 0.000000
vt 0.000000 0.000000
vt 0.000000 0.000000
vt 0.000000 0.000000
vt 0.000000 0.000000
vt 0.000000 0.000000
vt 0.000000 0.000000
vt 0.000000 0.000000
vt 0.000000 0.000000
vt 0.000000 0.000000
vt 0.000000 0.000000
vt 0.000000 0.000000
vt 0.000000 0.000000
vt 0.000000 0.000000
vt 0.000000 0.000000
vt 0.000000 0.000000
vt 0.000000 0.000000
vt 0.000000 0.000000
vt 0.000000 0.000000
vt 0.000000 0.000000
vt 0.000000 0.000000
vt 0.000000 0.000000
vt 0.000000 0.000000
vt 0.000000 0.000000
vt 0.000000 0.000000
vt 0.000000 0.000000
vt 0.000000 0.000000
vt 0.000000 0.000000
vt 0.000000 0.000000
vt 0.000000 0.000000
vt 0.000000 0.000000
vt 0.000000 0.000000
vt 0.000000 0.000000
vt 0.000000 0.000000
vt 0.000000 0.000000
vt 0.000000 0.000000
vt 0.000000 0.000000
vt 0.000000 0.000000
vt 0.000000 0.000000
vt 0.000000 0.000000
vt 0.000000 0.000000
vt 0.000000 0.000000
vt 0.000000 0.000000
vt 0.000000 0.000000
vt 0.000000 0.000000
vt 0.000000 0.000000
vt 0.000000 0.000000
vt 0.000000 0.000000
vt 0.000000 0.000000
vt 0.000000 0.000000
vt 0.000000 0.000000
vt 0.000000 0.000000
vt 0.000000 0.000000
vt 0.000000 0.000000
vt 0.000000 0.000000
vt 0.000000 0.000000
vt 0.000000 0.000000
vt 0.000000 0.000000
vt 0.000000 0.000000
vt 0.000000 0.000000
vt 0.000000 0.000000
vt 0.000000 0.000000
vt 0.000000 0.000000
vt 0.000000 0.000000
vt 0.000000 0.000000
vt 0.000000 0.000000
vt 0.000000 0.000000
vt 0.000000 0.000000
vt 0.000000 0.000000
vt 0.000000 0.000000
vt 0.000000 0.000000
vt 0.000000 0.000000
vt 0.000000 0.000000
vt 0.000000 0.000000
vt 0.000000 0.000000
vt 0.000000 0.000000
vt 0.000000 0.000000
vt 0.000000 0.000000
vt 0.000000 0.000000
vt 0.000000 0.000000
vt 0.000000 0.000000
vt 0.000000 0.000000
vt 0.000000 0.000000
vt 0.000000 0.000000
vt 0.000000 0.000000
vt 0.000000 0.000000
vt 0.000000 0.000000
vn -0.707102 -0.003725 0.707102
vn -0.707102 -0.003725 0.707102
vn -0.707102 -0.003725 0.707102
vn -0.707102 -0.003725 0.707102
vn -0.707102 -0.003725 0.707102
vn -0.707102 -0.003725 0.707102
vn -0.199889 0.836731 0.509829
vn -0.199889 0.836731 0.509829
vn 0.199889 0.836731 0.509829
vn -0.199889 0.836731 0.509829
vn 0.199889 0.836731 0.509829
vn 0.199889 0.836731 0.509829
vn 0.199889 0.836731 0.509829
vn 0.510231 0.836484 0.199899
vn 0.510231 0.836484 0.199899
vn 0.199889 0.836731 0.509829
vn 0.510231 0.836484 0.199899
vn 0.199889 0.836731 0.509829
vn 1.000000 0.000000 0.000000
vn 1.000000 0.000000 0.000000
vn 1.000000 0.000000 0.000000
vn 1.000000 0.000000 0.000000
vn 1.000000 0.000000 0.000000
vn 1.000000 0.000000 0.000000
vn -0.707107 0.000000 0.707107
vn -0.707107 0.000000 0.707107
vn -0.707107 0.000000 0.707107
vn -0.707107 0.000000 0.707107
vn -0.707107 0.000000 0.707107
vn -0.707107 0.000000 0.707107
vn -1.000000 0.000000 0.000000
vn -1.000000 0.000000 0.000000
vn -1.000000 0.000000 0.000000
vn -1.000000 0.000000 0.000000
vn -1.000000 0.000000 0.000000
vn -1.000000 0.000000 0.000000
vn -0.465850 0.761942 -0.449921
vn -0.601209 0.777313 -0.185291
vn -0.601209 0.777313 -0.185291
vn -0.465850 0.761942 -0.449921
vn -0.601209 0.777313 -0.185291
vn -0.318216 0.795053 -0.516361
vn 0.319764 0.794688 -0.515967
vn 0.601261 0.777231 -0.185468
vn 0.601261 0.777231 -0.185468
vn 0.319764 0.794688 -0.515967
vn 0.601261 0.777231 -0.185468
vn 0.467940 0.761107 -0.449164
vn -0.709002 0.001122 -0.705206
vn -0.551733 0.002197 -0.834018
vn -0.551733 0.002197 -0.834018
vn -0.709002 0.001122 -0.705206
vn -0.551733 0.002197 -0.834018
vn -0.709002 0.001122 -0.705206
vn 0.710158 0.002973 -0.704036
vn 0.554695 0.004383 -0.832042
vn 0.554695 0.004383 -0.832042
vn 0.710158 0.002973 -0.704036
vn 0.554695 0.004383 -0.832042
vn 0.710158 0.002973 -0.704036
vn 1.000000 0.000000 0.000000
vn 1.000000 0.000000 0.000000
vn 1.000000 0.000000 0.000000
vn 1.000000 0.000000 0.000000
vn 1.000000 0.000000 0.000000
vn 1.000000 0.000000 0.000000
vn 0.707102 -0.003725 0.707102
vn 0.707102 -0.003725 0.707102
vn 0.707102 -0.003725 0.707102
vn 0.707102 -0.003725 0.707102
vn 0.707102 -0.003725 0.707102
vn 0.707102 -0.003725 0.707102
vn 0.000000 -0.005268 0.999986
vn 0.000000 -0.005268 0.999986
vn 0.000000 -0.005268 0.999986
vn 0.000000 -0.005268 0.999986
vn 0.000000 -0.005268 0.999986
vn 0.000000 -0.005268 0.999986
vn 0.000000 0.005268 -0.999986
vn 0.000000 0.005268 -0.999986
vn 0.000000 0.005268 -0.999986
vn 0.000000 0.005268 -0.999986
vn 0.000000 0.005268 -0.999986
vn 0.000000 0.005268 -0.999986
vn -0.199889 0.836731 0.509829
vn -0.510231 0.836484 0.199899
vn -0.510231 0.836484 0.199899
vn -0.199889 0.836731 0.509829
vn -0.510231 0.836484 0.199899
vn -0.199889 0.836731 0.509829
vn -0.175564 0.798940 -0.575215
vn -0.318216 0.795053 -0.516361
vn 0.319764 0.794688 -0.515967
vn -0.175564 0.798940 -0.575215
vn 0.319764 0.794688 -0.515967
vn 0.177871 0.798812 -0.574684
vn -0.318216 0.795053 -0.516361
vn -0.175564 0.798940 -0.575215
vn -0.465850 0.761942 -0.449921
vn 0.601261 0.777231 -0.185468
vn 0.510231 0.836484 0.199899
vn 0.510231 0.836484 0.199899
vn 0.601261 0.777231 -0.185468
vn 0.510231 0.836484 0.199899
vn 0.601261 0.777231 -0.185468
vn 0.000000 0.000000 -1.000000
vn 0.000000 0.000000 -1.000000
vn 0.000000 0.000000 -1.000000
vn 0.000000 0.000000 -1.000000
vn 0.000000 0.000000 -1.000000
vn 0.000000 0.000000 -1.000000
vn 0.863779 0.000000 -0.503871
vn 0.863779 0.000000 -0.503871
vn 0.863779 0.000000 -0.503871
vn 0.863779 0.000000 -0.503871
vn 0.863779 0.000000 -0.503871
vn 0.863779 0.000000 -0.503871
vn 0.707107 0.000000 0.707107
vn 0.707107 0.000000 0.707107
vn 0.707107 0.000000 0.707107
vn 0.707107 0.000000 0.707107
vn 0.707107 0.000000 0.707107
vn 0.707107 0.000000 0.707107
vn 0.000000 0.000000 1.000000
vn 0.000000 0.000000 1.000000
vn 0.000000 0.000000 1.000000
vn 0.000000 0.000000 1.000000
vn 0.000000 0.000000 1.000000
vn 0.000000 0.000000 1.000000
vn -1.000000 0.000000 0.000000
vn -1.000000 0.000000 0.000000
vn -1.000000 0.000000 0.000000
vn -1.000000 0.000000 0.000000
vn -1.000000 0.000000 0.000000
vn -1.000000 0.000000 0.000000
vn -0.863779 0.000000 -0.503871
vn -0.863779 0.000000 -0.503871
vn -0.863779 0.000000 -0.503871
vn -0.863779 0.000000 -0.503871
vn -0.863779 0.000000 -0.503871
vn -0.863779 0.000000 -0.503871
vn 0.467940 0.761107 -0.449164
vn 0.177871 0.798812 -0.574684
vn 0.319764 0.794688 -0.515967
vn 0.836820 0.001442 -0.547476
vn 0.710158 0.002973 -0.704036
vn 0.710158 0.002973 -0.704036
vn 0.836820 0.001442 -0.547476
vn 0.710158 0.002973 -0.704036
vn 0.836820 0.001442 -0.547476
vn -0.601209 0.777313 -0.185291
vn -0.510231 0.836484 0.199899
vn -0.510231 0.836484 0.199899
vn -0.601209 0.777313 -0.185291
vn -0.510231 0.836484 0.199899
vn -0.601209 0.777313 -0.185291
vn -0.836970 0.000000 -0.547249
vn -0.709002 0.001122 -0.705206
vn -0.709002 0.001122 -0.705206
vn -0.836970 0.000000 -0.547249
vn -0.709002 0.001122 -0.705206
vn -0.836970 0.000000 -0.547249
vn 0.000000 -1.000000 0.000000
vn 0.000000 -1.000000 0.000000
vn 0.000000 -1.000000 0.000000
vn 0.000000 -1.000000 0.000000
vn 0.000000 -1.000000 0.000000
vn 0.000000 -1.000000 0.000000
vn 0.000000 -1.000000 0.000000
vn 0.000000 -1.000000 0.000000
vn 0.000000 -1.000000 0.000000
vn 0.000000 -1.000000 0.000000
vn 0.000000 -1.000000 0.000000
vn 0.000000 -1.000000 0.000000
vn 0.000000 -1.000000 0.000000
vn 0.000000 -1.000000 0.000000
vn 0.000000 -1.000000 0.000000
vn 0.000000 -1.000000 0.000000
vn 0.000000 -1.000000 0.000000
vn 0.000000 -1.000000 0.000000
vn 0.000000 -1.000000 0.000000
vn 0.000000 -1.000000 0.000000
vn 0.000000 -1.000000 0.000000
vn 0.000000 -1.000000 0.000000
vn 0.000000 -1.000000 0.000000
vn 0.000000 -1.000000 0.000000
vn 0.198172 -0.839568 0.505819
vn -0.198172 -0.839568 0.505819
vn -0.198172 -0.839568 0.505819
vn 0.198172 -0.839568 0.505819
vn -0.198172 -0.839568 0.505819
vn 0.198172 -0.839568 0.505819
vn -0.160014 -0.805405 -0.570717
vn 0.160014 -0.805405 -0.570717
vn 0.160014 -0.805405 -0.570717
vn -0.160014 -0.805405 -0.570717
vn 0.160014 -0.805405 -0.570717
vn -0.160014 -0.805405 -0.570717
vn -0.595100 -0.781662 -0.186710
vn -0.447724 -0.771613 -0.451837
vn -0.447724 -0.771613 -0.451837
vn -0.595100 -0.781662 -0.186710
vn -0.447724 -0.771613 -0.451837
vn -0.595100 -0.781662 -0.186710
vn 0.505818 -0.839569 0.198172
vn 0.198172 -0.839568 0.505819
vn 0.198172 -0.839568 0.505819
vn 0.505818 -0.839569 0.198172
vn 0.198172 -0.839568 0.505819
vn 0.505818 -0.839569 0.198172
vn 0.595099 -0.781663 -0.186709
vn 0.505818 -0.839569 0.198172
vn 0.505818 -0.839569 0.198172
vn 0.595099 -0.781663 -0.186709
vn 0.505818 -0.839569 0.198172
vn 0.595099 -0.781663 -0.186709
vn 0.160014 -0.805405 -0.570717
vn 0.447724 -0.771613 -0.451837
vn 0.447724 -0.771613 -0.451837
vn 0.160014 -0.805405 -0.570717
vn 0.447724 -0.771613 -0.451837
vn 0.160014 -0.805405 -0.570717
vn -0.447724 -0.771613 -0.451837
vn -0.160014 -0.805405 -0.570717
vn -0.160014 -0.805405 -0.570717
vn -0.447724 -0.771613 -0.451837
vn -0.160014 -0.805405 -0.570717
vn -0.447724 -0.771613 -0.451837
vn -0.505819 -0.839568 0.198172
vn -0.595100 -0.781662 -0.186710
vn -0.595100 -0.781662 -0.186710
vn -0.505819 -0.839568 0.198172
vn -0.595100 -0.781662 -0.186710
vn -0.505819 -0.839568 0.198172
vn 0.447724 -0.771613 -0.451837
vn 0.595099 -0.781663 -0.186709
vn 0.595099 -0.781663 -0.186709
vn 0.447724 -0.771613 -0.451837
vn 0.595099 -0.781663 -0.186709
vn 0.447724 -0.771613 -0.451837
vn -0.198172 -0.839568 0.505819
vn -0.505819 -0.839568 0.198172
vn -0.505819 -0.839568 0.198172
vn -0.198172 -0.839568 0.505819
vn -0.505819 -0.839568 0.198172
vn -0.198172 -0.839568 0.505819
f 8/1/1 3/2/2 25/3/3
f 8/4/4 25/5/5 27/6/6
f 11/7/7 25/8/8 24/9/9
f 11/10/10 24/11/11 36/12/12
f 24/13/13 18/14/14 10/15/15
f 24/16/16 10/17/17 36/18/18
f 10/19/19 15/20/20 19/21/21
f 10/22/22 19/23/23 31/24/24
f 12/25/25 11/26/26 21/27/27
f 12/28/28 21/29/29 30/30/30
f 34/31/31 8/32/32 27/33/33
f 34/34/34 27/35/35 33/36/36
f 7/37/37 33/38/38 14/39/39
f 7/40/40 14/41/41 13/42/42
f 16/43/43 15/44/44 1/45/45
f 16/46/46 1/47/47 28/48/48
f 7/49/49 35/50/50 9/51/51
f 7/52/52 9/53/53 29/54/54
f 5/55/55 2/56/56 32/57/57
f 5/58/58 32/59/59 28/60/60
f 1/61/61 18/62/62 6/63/63
f 1/64/64 6/65/65 26/66/66
f 4/67/67 6/68/68 18/69/69
f 4/70/70 18/71/71 24/72/72
f 25/73/73 3/74/74 4/75/75
f 25/76/76 4/77/77 24/78/78
f 32/79/79 2/80/80 9/81/81
f 32/82/82 9/83/83 35/84/84
f 11/85/85 12/86/86 27/87/87
f 11/88/88 27/89/89 25/90/90
f 35/91/91 13/92/92 16/93/93
f 35/94/94 16/95/95 32/96/96
f 13/97/97 35/98/98 7/99/99
f 15/100/100 10/101/101 18/102/102
f 15/103/103 18/104/104 1/105/105
f 16/106/106 13/107/107 23/108/108
f 16/109/109 23/110/110 17/111/111
f 15/112/112 16/113/113 17/114/114
f 15/115/115 17/116/116 19/117/117
f 31/118/118 20/119/119 36/120/120
f 31/121/121 36/122/122 10/123/123
f 11/124/124 36/125/125 20/126/126
f 11/127/127 20/128/128 21/129/129
f 30/130/130 22/131/131 14/132/132
f 30/133/133 14/134/134 12/135/135
f 13/136/136 14/137/137 22/138/138
f 13/139/139 22/140/140 23/141/141
f 28/142/142 32/143/143 16/144/144
f 26/145/145 5/146/146 28/147/147
f 26/148/148 28/149/149 1/150/150
f 33/151/151 27/152/152 12/153/153
f 33/154/154 12/155/155 14/156/156
f 33/157/157 7/158/158 29/159/159
f 33/160/160 29/161/161 34/162/162
f 38/163/163 37/164/164 46/165/165
f 38/166/166 46/167/167 42/168/168
f 38/169/169 42/170/170 41/171/171
f 38/172/172 41/173/173 40/174/174
f 38/175/175 40/176/176 39/177/177
f 38/178/178 39/179/179 45/180/180
f 38/181/181 45/182/182 44/183/183
f 38/184/184 44/185/185 43/186/186
f 4/187/187 3/188/188 37/189/189
f 4/190/190 37/191/191 38/192/192
f 9/193/193 2/194/194 39/195/195
f 9/196/196 39/197/197 40/198/198
f 34/199/199 29/200/200 41/201/201
f 34/202/202 41/203/203 42/204/204
f 6/205/205 4/206/206 38/207/207
f 6/208/208 38/209/209 43/210/210
f 26/211/211 6/212/212 43/213/213
f 26/214/214 43/215/215 44/216/216
f 2/217/217 5/218/218 45/219/219
f 2/220/220 45/221/221 39/222/222
f 29/223/223 9/224/224 40/225/225
f 29/226/226 40/227/227 41/228/228
f 8/229/229 34/230/230 42/231/231
f 8/232/232 42/233/233 46/234/234
f 5/235/235 26/236/236 44/237/237
f 5/238/238 44/239/239 45/240/240
f 3/241/241 8/242/242 46/243/243
f 3/244/244 46/245/245 37/246/246
