v -12.000000 42.000000 9.000000
v 3.000000 42.000000 -13.000000
v 12.000000 42.000000 2.000000
v 9.000000 42.000000 12.000000
v -9.000000 42.000000 12.000000
v -12.000000 42.000000 2.000000
v -3.000000 42.000000 -13.000000
v 12.000000 42.000000 9.000000
v -1.187500 38.625000 -4.750000
v 3.000000 42.000000 -16.000000
v -3.000000 42.000000 -16.000000
v -8.000000 39.000000 2.000000
v -4.750000 38.625000 2.000000
v 2.000000 39.000000 -9.000000
v -2.000000 39.000000 -9.000000
v 8.000000 39.000000 2.000000
v 4.750000 38.625000 2.000000
v 1.187500 38.625000 -4.750000
v -4.750000 38.625000 3.562500
v -3.562500 38.625000 4.750000
v -6.000000 39.000000 8.000000
v -8.000000 39.000000 6.000000
v 8.000000 39.000000 6.000000
v 4.750000 38.625000 3.562500
v 6.000000 39.000000 8.000000
v 3.562500 38.625000 4.750000
vt 0.000000 0.000000
vt 0.000000 0.000000
vt 0.000000 0.000000
vt 0.000000 0.000000
vt 0.000000 0.000000
vt 0.000000 0.000000
vt 0.000000 0.000000
vt 0.000000 0.000000
vt 0.000000 0.000000
vt 0.000000 0.000000
vt 0.000000 0.000000
vt 0.000000 0.000000
vt 0.000000 0.000000
vt 0.000000 0.000000
vt 0.000000 0.000000
vt 0.000000 0.000000
vt 0.000000 0.000000
vt 0.000000 0.000000
vt 0.000000 0.000000
vt 0.000000 0.000000
vt 0.000000 0.000000
vt 0.000000 0.000000
vt 0.000000 0.000000
vt 0.000000 0.000000
vt 0.000000 0.000000
vt 0.000000 0.000000
vt 0.000000 0.000000
vt 0.000000 0.000000
vt 0.000000 0.000000
vt 0.000000 0.000000
vt 0.000000 0.000000
vt 0.000000 0.000000
vt 0.000000 0.000000
vt 0.000000 0.000000
vt 0.000000 0.000000
vt 0.000000 0.000000
vt 0.000000 0.000000
vt 0.000000 0.000000
vt 0.000000 0.000000
vt 0.000000 0.000000
vt 0.000000 0.000000
vt 0.000000 0.000000
vt 0.000000 0.000000
vt 0.000000 0.000000
vt 0.000000 0.000000
vt 0.000000 0.000000
vt 0.000000 0.000000
vt 0.000000 0.000000
vt 0.000000 0.000000
vt 0.000000 0.000000
vt 0.000000 0.000000
vt 0.000000 0.000000
vt 0.000000 0.000000
vt 0.000000 0.000000
vt 0.000000 0.000000
vt 0.000000 0.000000
vt 0.000000 0.000000
vt 0.000000 0.000000
vt 0.000000 0.000000
vt 0.000000 0.000000
vt 0.000000 0.000000
vt 0.000000 0.000000
vt 0.000000 0.000000
vt 0.000000 0.000000
vt 0.000000 0.000000
vt 0.000000 0.000000
vt 0.000000 0.000000
vt 0.000000 0.000000
vt 0.000000 0.000000
vt 0.000000 0.000000
vt 0.000000 0.000000
vt 0.000000 0.000000
vt 0.000000 0.000000
vt 0.000000 0.000000
vt 0.000000 0.000000
vt 0.000000 0.000000
vt 0.000000 0.000000
vt 0.000000 0.000000
vt 0.000000 0.000000
vt 0.000000 0.000000
vt 0.000000 0.000000
vt 0.000000 0.000000
vt 0.000000 0.000000
vt 0.000000 0.000000
vt 0.000000 0.000000
vt 0.000000 0.000000
vt 0.000000 0.000000
vt 0.000000 0.000000
vt 0.000000 0.000000
vt 0.000000 0.000000
vt 0.000000 0.000000
vt 0.000000 0.000000
vt 0.000000 0.000000
vt 0.000000 0.000000
vt 0.000000 0.000000
vt 0.000000 0.000000
vt 0.000000 0.000000
vt 0.000000 0.000000
vt 0.000000 0.000000
vt 0.000000 0.000000
vt 0.000000 0.000000
vt 0.000000 0.000000
vn 0.298267 -0.947841 0.112400
vn 0.112400 -0.947841 0.298267
vn 0.032852 -0.995381 0.090212
vn 0.298267 -0.947841 0.112400
vn 0.032852 -0.995381 0.090212
vn 0.090212 -0.995381 0.032852
vn -0.298267 -0.947841 0.112400
vn -0.115881 -0.992762 -0.031538
vn -0.115881 -0.992762 -0.031538
vn -0.298267 -0.947841 0.112400
vn -0.115881 -0.992762 -0.031538
vn -0.090212 -0.995381 0.032852
vn -0.058617 -0.995413 -0.075605
vn -0.115881 -0.992762 -0.031538
vn -0.115881 -0.992762 -0.031538
vn -0.058617 -0.995413 -0.075605
vn -0.115881 -0.992762 -0.031538
vn -0.039544 -0.982109 -0.184114
vn -0.090212 -0.995381 0.032852
vn -0.032852 -0.995381 0.090212
vn -0.112400 -0.947841 0.298267
vn -0.090212 -0.995381 0.032852
vn -0.112400 -0.947841 0.298267
vn -0.298267 -0.947841 0.112400
vn -0.032852 -0.995381 0.090212
vn 0.032852 -0.995381 0.090212
vn 0.112400 -0.947841 0.298267
vn -0.032852 -0.995381 0.090212
vn 0.112400 -0.947841 0.298267
vn -0.112400 -0.947841 0.298267
vn 0.090212 -0.995381 0.032852
vn 0.115881 -0.992762 -0.031538
vn 0.115881 -0.992762 -0.031538
vn 0.090212 -0.995381 0.032852
vn 0.115881 -0.992762 -0.031538
vn 0.298267 -0.947841 0.112400
vn 0.115881 -0.992762 -0.031538
vn 0.058617 -0.995413 -0.075605
vn 0.039544 -0.982109 -0.184114
vn 0.115881 -0.992762 -0.031538
vn 0.039544 -0.982109 -0.184114
vn 0.115881 -0.992762 -0.031538
vn 0.039544 -0.982109 -0.184114
vn 0.058617 -0.995413 -0.075605
vn -0.058617 -0.995413 -0.075605
vn 0.039544 -0.982109 -0.184114
vn -0.058617 -0.995413 -0.075605
vn -0.039544 -0.982109 -0.184114
vn 0.039544 -0.982109 -0.184114
vn -0.039544 -0.982109 -0.184114
vn -0.000000 -0.919145 -0.393919
vn 0.039544 -0.982109 -0.184114
vn -0.000000 -0.919145 -0.393919
vn -0.000000 -0.919145 -0.393919
vn 0.948683 -0.316228 -0.000000
vn 0.948683 -0.316228 -0.000000
vn 0.948683 -0.316228 -0.000000
vn -0.948683 -0.316228 -0.000000
vn -0.948683 -0.316228 -0.000000
vn -0.948683 -0.316228 -0.000000
vn 0.607411 -0.774959 -0.174612
vn 0.595889 -0.725762 -0.343782
vn 0.595889 -0.725762 -0.343782
vn 0.607411 -0.774959 -0.174612
vn 0.595889 -0.725762 -0.343782
vn 0.607411 -0.774959 -0.174612
vn 0.112400 -0.947841 0.298267
vn 0.298267 -0.947841 0.112400
vn 0.495280 -0.848188 0.187815
vn 0.112400 -0.947841 0.298267
vn 0.495280 -0.848188 0.187815
vn 0.187815 -0.848188 0.495280
vn -0.607411 -0.774959 -0.174612
vn -0.298267 -0.947841 0.112400
vn -0.495280 -0.848188 0.187815
vn -0.607411 -0.774959 -0.174612
vn -0.495280 -0.848188 0.187815
vn -0.607411 -0.774959 -0.174612
vn -0.298267 -0.947841 0.112400
vn -0.112400 -0.947841 0.298267
vn -0.187815 -0.848188 0.495280
vn -0.298267 -0.947841 0.112400
vn -0.187815 -0.848188 0.495280
vn -0.495280 -0.848188 0.187815
vn 0.298267 -0.947841 0.112400
vn 0.607411 -0.774959 -0.174612
vn 0.607411 -0.774959 -0.174612
vn 0.298267 -0.947841 0.112400
vn 0.607411 -0.774959 -0.174612
vn 0.495280 -0.848188 0.187815
vn -0.595889 -0.725762 -0.343782
vn -0.607411 -0.774959 -0.174612
vn -0.607411 -0.774959 -0.174612
vn -0.595889 -0.725762 -0.343782
vn -0.607411 -0.774959 -0.174612
vn -0.595889 -0.725762 -0.343782
vn -0.112400 -0.947841 0.298267
vn 0.112400 -0.947841 0.298267
vn 0.187815 -0.848188 0.495280
vn -0.112400 -0.947841 0.298267
vn 0.187815 -0.848188 0.495280
vn -0.187815 -0.848188 0.495280
f 23/1/1 25/2/2 26/3/3
f 23/4/4 26/5/5 24/6/6
f 22/7/7 12/8/8 13/9/9
f 22/10/10 13/11/11 19/12/12
f 9/13/13 13/14/14 12/15/15
f 9/16/16 12/17/17 15/18/18
f 19/19/19 20/20/20 21/21/21
f 19/22/22 21/23/23 22/24/24
f 20/25/25 26/26/26 25/27/27
f 20/28/28 25/29/29 21/30/30
f 24/31/31 17/32/32 16/33/33
f 24/34/34 16/35/35 23/36/36
f 17/37/37 18/38/38 14/39/39
f 17/40/40 14/41/41 16/42/42
f 14/43/43 18/44/44 9/45/45
f 14/46/46 9/47/47 15/48/48
f 14/49/49 15/50/50 11/51/51
f 14/52/52 11/53/53 10/54/54
f 14/55/55 10/56/56 2/57/57
f 15/58/58 7/59/59 11/60/60
f 16/61/61 14/62/62 2/63/63
f 16/64/64 2/65/65 3/66/66
f 25/67/67 23/68/68 8/69/69
f 25/70/70 8/71/71 4/72/72
f 12/73/73 22/74/74 1/75/75
f 12/76/76 1/77/77 6/78/78
f 22/79/79 21/80/80 5/81/81
f 22/82/82 5/83/83 1/84/84
f 23/85/85 16/86/86 3/87/87
f 23/88/88 3/89/89 8/90/90
f 15/91/91 12/92/92 6/93/93
f 15/94/94 6/95/95 7/96/96
f 21/97/97 25/98/98 4/99/99
f 21/100/100 4/101/101 5/102/102
