v 1.000000 6.000000 -7.000000
v 6.000000 6.000000 2.000000
v 2.187500 22.875000 -0.000000
v 2.187500 22.875000 3.000000
v 6.000000 6.000000 6.000000
v 1.000000 10.218750 5.250000
v 2.000000 6.000000 6.000000
v 3.546875 10.218750 3.750000
v 4.023438 9.404250 1.250000
vt 0.000000 0.000000
vt 0.000000 0.000000
vt 0.000000 0.000000
vt 0.000000 0.000000
vt 0.000000 0.000000
vt 0.000000 0.000000
vt 0.000000 0.000000
vt 0.000000 0.000000
vt 0.000000 0.000000
vt 0.000000 0.000000
vt 0.000000 0.000000
vt 0.000000 0.000000
vt 0.000000 0.000000
vt 0.000000 0.000000
vt 0.000000 0.000000
vt 0.000000 0.000000
vt 0.000000 0.000000
vt 0.000000 0.000000
vt 0.000000 0.000000
vt 0.000000 0.000000
vt 0.000000 0.000000
vt 0.000000 0.000000
vt 0.000000 0.000000
vt 0.000000 0.000000
vt 0.000000 0.000000
vt 0.000000 0.000000
vt 0.000000 0.000000
vn -0.882011 -0.149416 0.446914
vn -0.937775 -0.285177 0.198122
vn -0.957753 -0.118432 0.262073
vn -0.937775 -0.285177 0.198122
vn -0.935707 -0.291815 0.198232
vn -0.923035 -0.384018 -0.023170
vn -0.489507 -0.263790 -0.831142
vn -0.498723 -0.184993 -0.846790
vn -0.498723 -0.184993 -0.846790
vn -0.923035 -0.384018 -0.023170
vn -0.989737 -0.126179 -0.067073
vn -0.957753 -0.118432 0.262073
vn -0.923035 -0.384018 -0.023170
vn -0.957753 -0.118432 0.262073
vn -0.937775 -0.285177 0.198122
vn -0.498723 -0.184993 -0.846790
vn -0.504678 -0.104985 -0.856901
vn -0.498723 -0.184993 -0.846790
vn 0.000000 -0.470588 -0.882353
vn 0.000000 -0.242536 -0.970142
vn 0.000000 -0.242536 -0.970142
vn -0.935707 -0.291815 0.198232
vn -0.864475 -0.502676 0.000000
vn -0.923035 -0.384018 -0.023170
vn -0.882011 -0.149416 0.446914
vn -0.935707 -0.291815 0.198232
vn -0.937775 -0.285177 0.198122
f 1/1/1 9/2/2 3/3/3
f 9/4/4 2/5/5 8/6/6
f 7/7/7 6/8/8 8/9/9
f 8/10/10 4/11/11 3/12/12
f 8/13/13 3/14/14 9/15/15
f 6/16/16 4/17/17 8/18/18
f 8/19/19 5/20/20 7/21/21
f 2/22/22 5/23/23 8/24/24
f 1/25/25 2/26/26 9/27/27
