v -2.000000 24.000000 4.000000
v 2.000000 0.000000 -8.000000
v -1.000000 0.000000 -7.000000
v -6.000000 0.000000 8.000000
v 6.000000 0.000000 8.000000
v 8.000000 0.000000 2.000000
v 8.000000 0.000000 6.000000
v -8.000000 0.000000 2.000000
v -8.000000 0.000000 6.000000
v -2.000000 0.000000 -8.000000
v 4.000000 24.000000 3.000000
v 3.000000 24.000000 4.000000
v -3.000000 24.000000 4.000000
v -4.000000 24.000000 3.000000
v -1.000000 24.000000 -4.000000
v -4.000000 24.000000 2.000000
v 4.000000 24.000000 2.000000
v 2.000000 6.000000 -8.000000
v 1.000000 24.000000 -4.000000
v 8.000000 6.000000 6.000000
v -2.000000 6.000000 -8.000000
v 6.000000 6.000000 8.000000
v -6.000000 6.000000 8.000000
v 2.000000 24.000000 4.000000
v -2.000000 6.000000 -8.000000
v -8.000000 6.000000 6.000000
v 8.000000 6.000000 2.000000
v -8.000000 6.000000 2.000000
v 2.000000 6.000000 -8.000000
v -2.000000 26.000000 3.000000
v -0.696002 24.000000 -2.565578
v -2.000000 26.000000 4.000000
v 3.000000 24.000000 2.000000
v 0.696002 24.000000 -2.565578
v -3.000000 24.000000 2.000000
v -2.000000 24.000000 3.000000
v 2.000000 26.000000 3.000000
v 2.000000 24.000000 3.000000
v 2.000000 26.000000 0.000000
v 2.000000 24.000000 -0.000000
v -2.000000 24.000000 0.000000
v -2.000000 26.000000 0.000000
v -0.696002 26.000000 -2.565578
v -3.000000 26.000000 2.000000
v 3.000000 26.000000 2.000000
v 2.000000 26.000000 4.000000
v 0.696002 26.000000 -2.565578
v -1.000000 6.000000 -7.000000
v 1.000000 6.000000 -7.000000
v 6.000000 6.000000 2.000000
v -6.000000 6.000000 2.000000
v -2.187500 22.875000 0.000000
v 2.187500 22.875000 -0.000000
v -2.187500 22.875000 3.000000
v 2.187500 22.875000 3.000000
v 6.000000 6.000000 6.000000
v -6.000000 6.000000 6.000000
v -6.000000 0.000000 6.000000
v -6.000000 0.000000 2.000000
v 6.000000 0.000000 2.000000
v 6.000000 0.000000 6.000000
v 1.000000 0.000000 -7.000000
v 2.000000 6.000000 8.000000
v -3.000000 0.000000 8.000000
v 3.000000 0.000000 8.000000
v 1.000000 10.218750 5.250000
v -1.000000 10.500000 7.000000
v -1.000000 34.000000 7.500000
v -2.000000 6.000000 8.000000
v 3.000000 0.000000 6.000000
v -1.000000 10.218750 5.250000
v 1.000000 10.500000 7.000000
v 1.000000 34.000000 7.500000
v -2.000000 6.000000 6.000000
v 2.000000 6.000000 6.000000
v -3.000000 0.000000 6.000000
v 6.000000 42.000000 8.000000
v -6.000000 42.000000 8.000000
v 0.000000 45.000000 -8.000000
v -8.000000 42.000000 6.000000
v -1.000000 42.000000 -11.000000
v 1.000000 42.000000 -11.000000
v 8.000000 42.000000 6.000000
v 5.000000 45.000000 5.000000
v -5.000000 45.000000 5.000000
v 1.000000 34.000000 5.500000
v -1.000000 34.000000 5.500000
vt 0.000000 0.000000
vt 0.000000 0.000000
vt 0.000000 0.000000
vt 0.000000 0.000000
vt 0.000000 0.000000
vt 0.000000 0.000000
vt 0.000000 0.000000
vt 0.000000 0.000000
vt 0.000000 0.000000
vt 0.000000 0.000000
vt 0.000000 0.000000
vt 0.000000 0.000000
vt 0.000000 0.000000
vt 0.000000 0.000000
vt 0.000000 0.000000
vt 0.000000 0.000000
vt 0.000000 0.000000
vt 0.000000 0.000000
vt 0.000000 0.000000
vt 0.000000 0.000000
vt 0.000000 0.000000
vt 0.000000 0.000000
vt 0.000000 0.000000
vt 0.000000 0.000000
vt 0.000000 0.000000
vt 0.000000 0.000000
vt 0.000000 0.000000
vt 0.000000 0.000000
vt 0.000000 0.000000
vt 0.000000 0.000000
vt 0.000000 0.000000
vt 0.000000 0.000000
vt 0.000000 0.000000
vt 0.000000 0.000000
vt 0.000000 0.000000
vt 0.000000 0.000000
vt 0.000000 0.000000
vt 0.000000 0.000000
vt 0.000000 0.000000
vt 0.000000 0.000000
vt 0.000000 0.000000
vt 0.000000 0.000000
vt 0.000000 0.000000
vt 0.000000 0.000000
vt 0.000000 0.000000
vt 0.000000 0.000000
vt 0.000000 0.000000
vt 0.000000 0.000000
vt 0.000000 0.000000
vt 0.000000 0.000000
vt 0.000000 0.000000
vt 0.000000 0.000000
vt 0.000000 0.000000
vt 0.000000 0.000000
vt 0.000000 0.000000
vt 0.000000 0.000000
vt 0.000000 0.000000
vt 0.000000 0.000000
vt 0.000000 0.000000
vt 0.000000 0.000000
vt 0.000000 0.000000
vt 0.000000 0.000000
vt 0.000000 0.000000
vt 0.000000 0.000000
vt 0.000000 0.000000
vt 0.000000 0.000000
vt 0.000000 0.000000
vt 0.000000 0.000000
vt 0.000000 0.000000
vt 0.000000 0.000000
vt 0.000000 0.000000
vt 0.000000 0.000000
vt 0.000000 0.000000
vt 0.000000 0.000000
vt 0.000000 0.000000
vt 0.000000 0.000000
vt 0.000000 0.000000
vt 0.000000 0.000000
vt 0.000000 0.000000
vt 0.000000 0.000000
vt 0.000000 0.000000
vt 0.000000 0.000000
vt 0.000000 0.000000
vt 0.000000 0.000000
vt 0.000000 0.000000
vt 0.000000 0.000000
vt 0.000000 0.000000
vt 0.000000 0.000000
vt 0.000000 0.000000
vt 0.000000 0.000000
vt 0.000000 0.000000
vt 0.000000 0.000000
vt 0.000000 0.000000
vt 0.000000 0.000000
vt 0.000000 0.000000
vt 0.000000 0.000000
vt 0.000000 0.000000
vt 0.000000 0.000000
vt 0.000000 0.000000
vt 0.000000 0.000000
vt 0.000000 0.000000
vt 0.000000 0.000000
vt 0.000000 0.000000
vt 0.000000 0.000000
vt 0.000000 0.000000
vt 0.000000 0.000000
vt 0.000000 0.000000
vt 0.000000 0.000000
vt 0.000000 0.000000
vt 0.000000 0.000000
vt 0.000000 0.000000
vt 0.000000 0.000000
vt 0.000000 0.000000
vt 0.000000 0.000000
vt 0.000000 0.000000
vt 0.000000 0.000000
vt 0.000000 0.000000
vt 0.000000 0.000000
vt 0.000000 0.000000
vt 0.000000 0.000000
vt 0.000000 0.000000
vt 0.000000 0.000000
vt 0.000000 0.000000
vt 0.000000 0.000000
vt 0.000000 0.000000
vt 0.000000 0.000000
vt 0.000000 0.000000
vt 0.000000 0.000000
vt 0.000000 0.000000
vt 0.000000 0.000000
vt 0.000000 0.000000
vt 0.000000 0.000000
vt 0.000000 0.000000
vt 0.000000 0.000000
vt 0.000000 0.000000
vt 0.000000 0.000000
vt 0.000000 0.000000
vt 0.000000 0.000000
vt 0.000000 0.000000
vt 0.000000 0.000000
vt 0.000000 0.000000
vt 0.000000 0.000000
vt 0.000000 0.000000
vt 0.000000 0.000000
vt 0.000000 0.000000
vt 0.000000 0.000000
vt 0.000000 0.000000
vt 0.000000 0.000000
vt 0.000000 0.000000
vt 0.000000 0.000000
vt 0.000000 0.000000
vt 0.000000 0.000000
vt 0.000000 0.000000
vt 0.000000 0.000000
vt 0.000000 0.000000
vt 0.000000 0.000000
vt 0.000000 0.000000
vt 0.000000 0.000000
vt 0.000000 0.000000
vt 0.000000 0.000000
vt 0.000000 0.000000
vt 0.000000 0.000000
vt 0.000000 0.000000
vt 0.000000 0.000000
vt 0.000000 0.000000
vt 0.000000 0.000000
vt 0.000000 0.000000
vt 0.000000 0.000000
vt 0.000000 0.000000
vt 0.000000 0.000000
vt 0.000000 0.000000
vt 0.000000 0.000000
vt 0.000000 0.000000
vt 0.000000 0.000000
vt 0.000000 0.000000
vt 0.000000 0.000000
vt 0.000000 0.000000
vt 0.000000 0.000000
vt 0.000000 0.000000
vt 0.000000 0.000000
vt 0.000000 0.000000
vt 0.000000 0.000000
vt 0.000000 0.000000
vt 0.000000 0.000000
vt 0.000000 0.000000
vt 0.000000 0.000000
vt 0.000000 0.000000
vt 0.000000 0.000000
vt 0.000000 0.000000
vt 0.000000 0.000000
vt 0.000000 0.000000
vt 0.000000 0.000000
vt 0.000000 0.000000
vt 0.000000 0.000000
vt 0.000000 0.000000
vt 0.000000 0.000000
vt 0.000000 0.000000
vt 0.000000 0.000000
vt 0.000000 0.000000
vt 0.000000 0.000000
vt 0.000000 0.000000
vt 0.000000 0.000000
vt 0.000000 0.000000
vt 0.000000 0.000000
vt 0.000000 0.000000
vt 0.000000 0.000000
vt 0.000000 0.000000
vt 0.000000 0.000000
vt 0.000000 0.000000
vt 0.000000 0.000000
vt 0.000000 0.000000
vt 0.000000 0.000000
vt 0.000000 0.000000
vt 0.000000 0.000000
vt 0.000000 0.000000
vt 0.000000 0.000000
vt 0.000000 0.000000
vt 0.000000 0.000000
vt 0.000000 0.000000
vt 0.000000 0.000000
vt 0.000000 0.000000
vt 0.000000 0.000000
vt 0.000000 0.000000
vt 0.000000 0.000000
vt 0.000000 0.000000
vt 0.000000 0.000000
vt 0.000000 0.000000
vt 0.000000 0.000000
vt 0.000000 0.000000
vt 0.000000 0.000000
vt 0.000000 0.000000
vt 0.000000 0.000000
vt 0.000000 0.000000
vt 0.000000 0.000000
vt 0.000000 0.000000
vt 0.000000 0.000000
vt 0.000000 0.000000
vt 0.000000 0.000000
vt 0.000000 0.000000
vt 0.000000 0.000000
vt 0.000000 0.000000
vt 0.000000 0.000000
vt 0.000000 0.000000
vt 0.000000 0.000000
vt 0.000000 0.000000
vt 0.000000 0.000000
vt 0.000000 0.000000
vt 0.000000 0.000000
vt 0.000000 0.000000
vt 0.000000 0.000000
vt 0.000000 0.000000
vt 0.000000 0.000000
vt 0.000000 0.000000
vt 0.000000 0.000000
vt 0.000000 0.000000
vt 0.000000 0.000000
vt 0.000000 0.000000
vt 0.000000 0.000000
vt 0.000000 0.000000
vt 0.000000 0.000000
vt 0.000000 0.000000
vt 0.000000 0.000000
vt 0.000000 0.000000
vt 0.000000 0.000000
vt 0.000000 0.000000
vt 0.000000 0.000000
vt 0.000000 0.000000
vt 0.000000 0.000000
vt 0.000000 0.000000
vt 0.000000 0.000000
vt 0.000000 0.000000
vt 0.000000 0.000000
vt 0.000000 0.000000
vt 0.000000 0.000000
vt 0.000000 0.000000
vt 0.000000 0.000000
vt 0.000000 0.000000
vt 0.000000 0.000000
vt 0.000000 0.000000
vt 0.000000 0.000000
vt 0.000000 0.000000
vt 0.000000 0.000000
vt 0.000000 0.000000
vt 0.000000 0.000000
vt 0.000000 0.000000
vt 0.000000 0.000000
vt 0.000000 0.000000
vt 0.000000 0.000000
vt 0.000000 0.000000
vt 0.000000 0.000000
vt 0.000000 0.000000
vt 0.000000 0.000000
vt 0.000000 0.000000
vt 0.000000 0.000000
vt 0.000000 0.000000
vt 0.000000 0.000000
vt 0.000000 0.000000
vt 0.000000 0.000000
vt 0.000000 0.000000
vt 0.000000 0.000000
vt 0.000000 0.000000
vt 0.000000 0.000000
vt 0.000000 0.000000
vt 0.000000 0.000000
vt 0.000000 0.000000
vt 0.000000 0.000000
vt 0.000000 0.000000
vt 0.000000 0.000000
vt 0.000000 0.000000
vt 0.000000 0.000000
vt 0.000000 0.000000
vt 0.000000 0.000000
vt 0.000000 0.000000
vt 0.000000 0.000000
vt 0.000000 0.000000
vt 0.000000 0.000000
vt 0.000000 0.000000
vt 0.000000 0.000000
vt 0.000000 0.000000
vt 0.000000 0.000000
vt 0.000000 0.000000
vt 0.000000 0.000000
vt 0.000000 0.000000
vt 0.000000 0.000000
vt 0.000000 0.000000
vt 0.000000 0.000000
vt 0.000000 0.000000
vt 0.000000 0.000000
vt 0.000000 0.000000
vt 0.000000 0.000000
vt 0.000000 0.000000
vt 0.000000 0.000000
vt 0.000000 0.000000
vt 0.000000 0.000000
vt 0.000000 0.000000
vt 0.000000 0.000000
vt 0.000000 0.000000
vt 0.000000 0.000000
vt 0.000000 0.000000
vt 0.000000 0.000000
vt 0.000000 0.000000
vt 0.000000 0.000000
vt 0.000000 0.000000
vt 0.000000 0.000000
vt 0.000000 0.000000
vt 0.000000 0.000000
vt 0.000000 0.000000
vt 0.000000 0.000000
vt 0.000000 0.000000
vt 0.000000 0.000000
vt 0.000000 0.000000
vt 0.000000 0.000000
vt 0.000000 0.000000
vt 0.000000 0.000000
vt 0.000000 0.000000
vt 0.000000 0.000000
vt 0.000000 0.000000
vt 0.000000 0.000000
vt 0.000000 0.000000
vt 0.000000 0.000000
vt 0.000000 0.000000
vt 0.000000 0.000000
vt 0.000000 0.000000
vt 0.000000 0.000000
vt 0.000000 0.000000
vt 0.000000 0.000000
vt 0.000000 0.000000
vt 0.000000 0.000000
vt 0.000000 0.000000
vt 0.000000 0.000000
vt 0.000000 0.000000
vt 0.000000 0.000000
vt 0.000000 0.000000
vt 0.000000 0.000000
vt 0.000000 0.000000
vt 0.000000 0.000000
vt 0.000000 0.000000
vt 0.000000 0.000000
vt 0.000000 0.000000
vt 0.000000 0.000000
vt 0.000000 0.000000
vt 0.000000 0.000000
vt 0.000000 0.000000
vt 0.000000 0.000000
vt 0.000000 0.000000
vt 0.000000 0.000000
vt 0.000000 0.000000
vt 0.000000 0.000000
vt 0.000000 0.000000
vt 0.000000 0.000000
vt 0.000000 0.000000
vt 0.000000 0.000000
vt 0.000000 0.000000
vt 0.000000 0.000000
vt 0.000000 0.000000
vt 0.000000 0.000000
vt 0.000000 0.000000
vt 0.000000 0.000000
vt 0.000000 0.000000
vt 0.000000 0.000000
vt 0.000000 0.000000
vt 0.000000 0.000000
vt 0.000000 0.000000
vt 0.000000 0.000000
vt 0.000000 0.000000
vt 0.000000 0.000000
vt 0.000000 0.000000
vt 0.000000 0.000000
vt 0.000000 0.000000
vt 0.000000 0.000000
vt 0.000000 0.000000
vt 0.000000 0.000000
vt 0.000000 0.000000
vt 0.000000 0.000000
vt 0.000000 0.000000
vt 0.000000 0.000000
vt 0.000000 0.000000
vt 0.000000 0.000000
vt 0.000000 0.000000
vt 0.000000 0.000000
vt 0.000000 0.000000
vt 0.000000 0.000000
vt 0.000000 0.000000
vt 0.000000 0.000000
vt 0.000000 0.000000
vt 0.000000 0.000000
vt 0.000000 0.000000
vt 0.000000 0.000000
vt 0.000000 0.000000
vt 0.000000 0.000000
vt 0.000000 0.000000
vt 0.000000 0.000000
vt 0.000000 0.000000
vt 0.000000 0.000000
vt 0.000000 0.000000
vt 0.000000 0.000000
vt 0.000000 0.000000
vt 0.000000 0.000000
vt 0.000000 0.000000
vt 0.000000 0.000000
vt 0.000000 0.000000
vt 0.000000 0.000000
vt 0.000000 0.000000
vt 0.000000 0.000000
vt 0.000000 0.000000
vt 0.000000 0.000000
vt 0.000000 0.000000
vt 0.000000 0.000000
vt 0.000000 0.000000
vt 0.000000 0.000000
vt 0.000000 0.000000
vt 0.000000 0.000000
vt 0.000000 0.000000
vt 0.000000 0.000000
vt 0.000000 0.000000
vt 0.000000 0.000000
vt 0.000000 0.000000
vt 0.000000 0.000000
vt 0.000000 0.000000
vt 0.000000 0.000000
vt 0.000000 0.000000
vt 0.000000 0.000000
vn -0.960420 0.101401 -0.259443
vn -0.947274 0.201271 -0.249324
vn -0.858452 0.172883 -0.482879
vn -0.960420 0.101401 -0.259443
vn -0.858452 0.172883 -0.482879
vn -0.496625 0.112819 -0.860602
vn -1.000000 0.000000 0.000000
vn -1.000000 0.000000 0.000000
vn -0.994029 0.109117 0.000000
vn -1.000000 0.000000 0.000000
vn -0.994029 0.109117 0.000000
vn -0.960420 0.101401 -0.259443
vn 0.000000 0.216930 0.976187
vn 0.000000 0.109117 0.994029
vn 0.000000 0.109117 0.994029
vn 0.000000 0.216930 0.976187
vn 0.000000 0.109117 0.994029
vn 0.000000 0.216930 0.976187
vn 0.700751 0.133774 0.700751
vn 0.700751 0.133774 0.700751
vn 0.681799 0.265144 0.681799
vn 0.700751 0.133774 0.700751
vn 0.681799 0.265144 0.681799
vn 0.681799 0.265144 0.681799
vn 0.496625 0.112819 -0.860602
vn 0.858452 0.172883 -0.482879
vn 0.947274 0.201271 -0.249324
vn 0.496625 0.112819 -0.860602
vn 0.947274 0.201271 -0.249324
vn 0.960420 0.101401 -0.259443
vn 0.960420 0.101401 -0.259443
vn 0.947274 0.201271 -0.249324
vn 0.976187 0.216930 0.000000
vn 0.960420 0.101401 -0.259443
vn 0.976187 0.216930 0.000000
vn 0.994029 0.109117 0.000000
vn -0.707107 0.000000 0.707107
vn -0.707107 0.000000 0.707107
vn -0.700751 0.133774 0.700751
vn -0.707107 0.000000 0.707107
vn -0.700751 0.133774 0.700751
vn -0.700751 0.133774 0.700751
vn 0.707107 0.000000 0.707107
vn 0.707107 0.000000 0.707107
vn 0.700751 0.133774 0.700751
vn 0.707107 0.000000 0.707107
vn 0.700751 0.133774 0.700751
vn 0.700751 0.133774 0.700751
vn 0.960420 0.101401 -0.259443
vn 0.994029 0.109117 0.000000
vn 1.000000 0.000000 0.000000
vn 0.960420 0.101401 -0.259443
vn 1.000000 0.000000 0.000000
vn 1.000000 0.000000 0.000000
vn -0.976187 0.216930 0.000000
vn -0.947274 0.201271 -0.249324
vn -0.960420 0.101401 -0.259443
vn -0.976187 0.216930 0.000000
vn -0.960420 0.101401 -0.259443
vn -0.994029 0.109117 0.000000
vn -0.960420 0.101401 -0.259443
vn -0.496625 0.112819 -0.860602
vn -0.492699 0.000000 -0.870200
vn -0.960420 0.101401 -0.259443
vn -0.492699 0.000000 -0.870200
vn -0.857493 0.000000 -0.514496
vn 0.857493 0.000000 -0.514496
vn 0.492699 0.000000 -0.870200
vn 0.496625 0.112819 -0.860602
vn 0.857493 0.000000 -0.514496
vn 0.496625 0.112819 -0.860602
vn 0.960420 0.101401 -0.259443
vn -0.492699 0.000000 -0.870200
vn -0.496625 0.112819 -0.860602
vn 0.000000 0.000000 -1.000000
vn 0.496625 0.112819 -0.860602
vn 0.492699 0.000000 -0.870200
vn 0.000000 0.000000 -1.000000
vn 0.000000 0.000000 1.000000
vn 0.000000 0.000000 1.000000
vn 0.000000 0.109117 0.994029
vn 0.000000 0.000000 1.000000
vn 0.000000 0.109117 0.994029
vn 0.000000 0.109117 0.994029
vn -0.496625 0.112819 -0.860602
vn 0.496625 0.112819 -0.860602
vn 0.000000 0.000000 -1.000000
vn -0.496625 0.112819 -0.860602
vn 0.000000 0.000000 -1.000000
vn 0.492699 0.000000 -0.870200
vn -0.496625 0.112819 -0.860602
vn 0.492699 0.000000 -0.870200
vn -0.492699 0.000000 -0.870200
vn -0.496625 0.112819 -0.860602
vn -0.492699 0.000000 -0.870200
vn 0.000000 0.000000 -1.000000
vn -0.681799 0.265144 0.681799
vn -0.681799 0.265144 0.681799
vn -0.700751 0.133774 0.700751
vn -0.681799 0.265144 0.681799
vn -0.700751 0.133774 0.700751
vn -0.700751 0.133774 0.700751
vn -0.496625 0.112819 -0.860602
vn 0.000000 0.216930 -0.976187
vn 0.000000 0.216930 -0.976187
vn -0.496625 0.112819 -0.860602
vn 0.000000 0.216930 -0.976187
vn 0.496625 0.112819 -0.860602
vn 0.000000 1.000000 0.000000
vn 0.000000 1.000000 0.000000
vn 0.000000 1.000000 0.000000
vn 0.000000 1.000000 0.000000
vn 0.000000 1.000000 0.000000
vn 0.000000 1.000000 0.000000
vn 0.000000 1.000000 0.000000
vn 0.000000 1.000000 0.000000
vn 0.000000 1.000000 0.000000
vn 0.000000 1.000000 0.000000
vn 0.000000 1.000000 0.000000
vn 0.000000 1.000000 0.000000
vn -0.882728 -0.068134 0.464917
vn -0.887137 -0.045412 0.459267
vn -0.892801 0.123340 0.433236
vn -0.882728 -0.068134 0.464917
vn -0.892801 0.123340 0.433236
vn -0.884481 0.124883 0.449553
vn 0.894427 0.000000 0.447214
vn 0.887137 -0.045412 0.459267
vn 0.892801 0.123340 0.433236
vn 0.894427 0.000000 0.447214
vn 0.892801 0.123340 0.433236
vn 0.891342 0.082984 0.445671
vn 0.887137 -0.045412 0.459267
vn 0.882728 -0.068134 0.464917
vn 0.884481 0.124883 0.449553
vn 0.887137 -0.045412 0.459267
vn 0.884481 0.124883 0.449553
vn 0.892801 0.123340 0.433236
vn 0.707107 0.000000 -0.707107
vn 0.707107 0.000000 -0.707107
vn 0.694478 0.188153 -0.694478
vn 0.707107 0.000000 -0.707107
vn 0.694478 0.188153 -0.694478
vn 0.694478 0.188153 -0.694478
vn 0.000000 -0.120480 0.992716
vn 0.000000 -0.120480 0.992716
vn 0.000000 0.240194 0.970725
vn 0.000000 -0.120480 0.992716
vn 0.000000 0.240194 0.970725
vn 0.000000 0.240194 0.970725
vn -0.707107 0.000000 -0.707107
vn -0.707107 0.000000 -0.707107
vn -0.694478 0.188153 -0.694478
vn -0.707107 0.000000 -0.707107
vn -0.694478 0.188153 -0.694478
vn -0.694478 0.188153 -0.694478
vn -0.887137 -0.045412 0.459267
vn -0.894427 -0.000000 0.447214
vn -0.891342 0.082984 0.445671
vn -0.887137 -0.045412 0.459267
vn -0.891342 0.082984 0.445671
vn -0.892801 0.123340 0.433236
vn 1.000000 0.000000 0.000000
vn 1.000000 0.000000 0.000000
vn 0.998068 -0.062137 0.000000
vn 1.000000 0.000000 0.000000
vn 0.998068 -0.062137 0.000000
vn 0.998068 -0.062137 0.000000
vn -0.998068 -0.062137 0.000000
vn -1.000000 0.000000 0.000000
vn -1.000000 0.000000 0.000000
vn -0.998068 -0.062137 0.000000
vn -1.000000 0.000000 0.000000
vn -0.998068 -0.062137 0.000000
vn 0.000000 1.000000 0.000000
vn 0.000000 1.000000 0.000000
vn 0.000000 1.000000 0.000000
vn 0.000000 1.000000 0.000000
vn 0.000000 1.000000 0.000000
vn 0.000000 1.000000 0.000000
vn 0.000000 1.000000 0.000000
vn 0.000000 1.000000 0.000000
vn 0.000000 1.000000 0.000000
vn 0.000000 1.000000 0.000000
vn 0.000000 1.000000 0.000000
vn 0.000000 1.000000 0.000000
vn 0.000000 -0.120480 0.992716
vn 0.000000 -0.120480 0.992716
vn 0.000000 -0.120480 0.992716
vn 0.000000 -0.120480 0.992716
vn 0.000000 -0.120480 0.992716
vn 0.000000 -0.120480 0.992716
vn -0.887137 -0.045412 0.459267
vn -0.882728 -0.068134 0.464917
vn -0.873970 -0.068128 0.481181
vn -0.887137 -0.045412 0.459267
vn -0.873970 -0.068128 0.481181
vn -0.964119 -0.092363 0.248884
vn -0.887137 -0.045412 0.459267
vn -0.964119 -0.092363 0.248884
vn -0.951985 -0.183836 0.244804
vn 0.882728 -0.068134 0.464917
vn 0.887137 -0.045412 0.459267
vn 0.951985 -0.183836 0.244804
vn 0.882728 -0.068134 0.464917
vn 0.951985 -0.183836 0.244804
vn 0.964119 -0.092363 0.248884
vn 0.882728 -0.068134 0.464917
vn 0.964119 -0.092363 0.248884
vn 0.873970 -0.068128 0.481181
vn -0.000000 -0.000000 -1.000000
vn -0.000000 -0.000000 -1.000000
vn -0.000000 -0.000000 -1.000000
vn -0.000000 -0.000000 -1.000000
vn -0.000000 -0.000000 -1.000000
vn -0.000000 -0.000000 -1.000000
vn 0.000000 -1.000000 0.000000
vn 0.000000 -1.000000 0.000000
vn 0.000000 -1.000000 0.000000
vn 0.000000 -1.000000 0.000000
vn 0.000000 -1.000000 0.000000
vn 0.000000 -1.000000 0.000000
vn -0.951985 -0.183836 0.244804
vn -0.964119 -0.092363 0.248884
vn -0.993835 -0.110869 0.000000
vn -0.951985 -0.183836 0.244804
vn -0.993835 -0.110869 0.000000
vn -0.975416 -0.220372 0.000000
vn 0.964119 -0.092363 0.248884
vn 0.951985 -0.183836 0.244804
vn 0.975416 -0.220372 0.000000
vn 0.964119 -0.092363 0.248884
vn 0.975416 -0.220372 0.000000
vn 0.993835 -0.110869 0.000000
vn 0.000000 1.000000 0.000000
vn 0.000000 1.000000 0.000000
vn 0.000000 1.000000 0.000000
vn 0.000000 1.000000 0.000000
vn 0.000000 1.000000 0.000000
vn 0.000000 1.000000 0.000000
vn 0.000000 1.000000 0.000000
vn 0.000000 1.000000 0.000000
vn 0.000000 1.000000 0.000000
vn 0.000000 1.000000 0.000000
vn 0.000000 1.000000 0.000000
vn 0.000000 1.000000 0.000000
vn 0.964119 -0.092363 0.248884
vn 0.993835 -0.110869 0.000000
vn 1.000000 0.000000 0.000000
vn 0.964119 -0.092363 0.248884
vn 1.000000 0.000000 0.000000
vn 0.968028 0.000000 0.250841
vn -0.993835 -0.110869 0.000000
vn -0.964119 -0.092363 0.248884
vn -0.968028 0.000000 0.250841
vn -0.993835 -0.110869 0.000000
vn -0.968028 0.000000 0.250841
vn -1.000000 0.000000 0.000000
vn 0.000000 -0.087856 -0.996133
vn 0.000000 -0.087856 -0.996133
vn 0.000000 0.000000 -1.000000
vn 0.000000 -0.087856 -0.996133
vn 0.000000 0.000000 -1.000000
vn 0.000000 0.000000 -1.000000
vn -0.964119 -0.092363 0.248884
vn -0.873970 -0.068128 0.481181
vn -0.874157 0.000000 0.485643
vn -0.964119 -0.092363 0.248884
vn -0.874157 0.000000 0.485643
vn -0.968028 0.000000 0.250841
vn 0.873970 -0.068128 0.481181
vn 0.964119 -0.092363 0.248884
vn 0.968028 0.000000 0.250841
vn 0.873970 -0.068128 0.481181
vn 0.968028 0.000000 0.250841
vn 0.874157 0.000000 0.485643
vn 0.000000 -0.120480 0.992716
vn 0.000000 -0.120480 0.992716
vn 0.000000 0.000000 1.000000
vn 0.000000 -0.120480 0.992716
vn 0.000000 0.000000 1.000000
vn 0.000000 0.000000 1.000000
vn 0.000000 0.109117 0.994029
vn 0.000000 0.109117 0.994029
vn 0.000000 0.000000 1.000000
vn 0.000000 0.109117 0.994029
vn 0.000000 0.000000 1.000000
vn 0.000000 0.000000 1.000000
vn 0.000000 0.000000 -1.000000
vn 0.000000 0.000000 -1.000000
vn 0.000000 -0.087856 -0.996133
vn 0.000000 0.000000 -1.000000
vn 0.000000 -0.087856 -0.996133
vn 0.000000 -0.087856 -0.996133
vn 0.000000 -0.175033 -0.984563
vn 0.000000 -0.087856 -0.996133
vn 0.000000 -0.087856 -0.996133
vn 0.000000 -0.175033 -0.984563
vn 0.000000 -0.087856 -0.996133
vn 0.000000 -0.175033 -0.984563
vn 0.981265 -0.192484 0.008269
vn 0.981265 -0.192484 0.008269
vn 0.986394 -0.164399 0.000000
vn 0.981265 -0.192484 0.008269
vn 0.986394 -0.164399 0.000000
vn 0.986394 -0.164399 0.000000
vn -0.981265 -0.192484 0.008269
vn -0.981265 -0.192484 0.008269
vn -0.986394 -0.164399 0.000000
vn -0.981265 -0.192484 0.008269
vn -0.986394 -0.164399 0.000000
vn -0.986394 -0.164399 0.000000
vn -0.975269 -0.220400 0.016530
vn -0.981265 -0.192484 0.008269
vn -0.981265 -0.192484 0.008269
vn -0.975269 -0.220400 0.016530
vn -0.981265 -0.192484 0.008269
vn -0.975269 -0.220400 0.016530
vn 0.975269 -0.220400 0.016530
vn 0.981265 -0.192484 0.008269
vn 0.981265 -0.192484 0.008269
vn 0.975269 -0.220400 0.016530
vn 0.981265 -0.192484 0.008269
vn 0.975269 -0.220400 0.016530
vn 0.000000 1.000000 0.000000
vn 0.000000 1.000000 0.000000
vn 0.000000 1.000000 0.000000
vn 0.000000 1.000000 0.000000
vn 0.000000 1.000000 0.000000
vn 0.000000 1.000000 0.000000
vn 0.000000 -1.000000 0.000000
vn 0.000000 -1.000000 0.000000
vn 0.000000 -1.000000 0.000000
vn 0.892801 0.123340 0.433236
vn 0.884481 0.124883 0.449553
vn 0.885773 0.224071 0.406446
vn 0.000000 0.240194 0.970725
vn 0.000000 0.240194 0.970725
vn 0.000000 0.466325 0.884613
vn 0.000000 0.240194 0.970725
vn 0.000000 0.466325 0.884613
vn 0.000000 0.466325 0.884613
vn 0.694478 0.188153 -0.694478
vn 0.694478 0.188153 -0.694478
vn 0.657041 0.369586 -0.657041
vn 0.694478 0.188153 -0.694478
vn 0.657041 0.369586 -0.657041
vn 0.657041 0.369586 -0.657041
vn -0.694478 0.188153 -0.694478
vn -0.694478 0.188153 -0.694478
vn -0.657041 0.369586 -0.657041
vn -0.694478 0.188153 -0.694478
vn -0.657041 0.369586 -0.657041
vn -0.657041 0.369586 -0.657041
vn -0.892801 0.123340 0.433236
vn -0.891342 0.082984 0.445671
vn -0.894780 0.182772 0.407386
vn -0.707107 -0.707107 0.000000
vn -0.707107 -0.707107 0.000000
vn -0.707107 -0.707107 0.000000
vn -0.707107 -0.707107 0.000000
vn -0.707107 -0.707107 0.000000
vn -0.707107 -0.707107 0.000000
vn 0.000000 -0.707107 -0.707107
vn 0.000000 -0.707107 -0.707107
vn 0.000000 -0.707107 -0.707107
vn 0.000000 -0.707107 -0.707107
vn 0.000000 -0.707107 -0.707107
vn 0.000000 -0.707107 -0.707107
vn 0.514496 -0.685994 -0.514496
vn 0.514496 -0.685994 -0.514496
vn 0.514496 -0.685994 -0.514496
vn -0.514496 -0.685994 -0.514496
vn -0.514496 -0.685994 -0.514496
vn -0.514496 -0.685994 -0.514496
vn 0.000000 -0.707107 0.707107
vn 0.000000 -0.707107 0.707107
vn 0.000000 -0.707107 0.707107
vn 0.000000 -0.707107 0.707107
vn 0.000000 -0.707107 0.707107
vn 0.000000 -0.707107 0.707107
vn 0.000000 -0.707107 0.707107
vn 0.000000 -0.707107 0.707107
vn 0.000000 -0.707107 0.707107
vn -0.885773 0.224071 0.406446
vn -0.884481 0.124883 0.449553
vn -0.892801 0.123340 0.433236
vn 0.894780 0.182772 0.407386
vn 0.891342 0.082984 0.445671
vn 0.892801 0.123340 0.433236
vn 0.885773 0.224071 0.406446
vn 0.894780 0.182772 0.407386
vn 0.892801 0.123340 0.433236
vn -0.892801 0.123340 0.433236
vn -0.894780 0.182772 0.407386
vn -0.885773 0.224071 0.406446
vn 0.000000 0.298275 -0.954480
vn 0.000000 0.298275 -0.954480
vn 0.000000 0.298275 -0.954480
vn 0.000000 0.298275 -0.954480
vn 0.000000 0.298275 -0.954480
vn 0.000000 0.298275 -0.954480
vn 0.000000 0.298275 -0.954480
vn 0.000000 0.298275 -0.954480
vn 0.000000 0.298275 -0.954480
vn 0.000000 0.298275 -0.954480
vn 0.000000 0.298275 -0.954480
vn 0.000000 0.298275 -0.954480
vn -0.992278 -0.124035 0.000000
vn -0.998068 -0.062137 0.000000
vn -0.998068 -0.062137 0.000000
vn -0.992278 -0.124035 0.000000
vn -0.998068 -0.062137 0.000000
vn -0.992278 -0.124035 0.000000
vn 0.000000 -1.000000 0.000000
vn 0.000000 -1.000000 0.000000
vn 0.000000 -1.000000 0.000000
vn 0.000000 -1.000000 0.000000
vn 0.000000 -1.000000 0.000000
vn 0.000000 -1.000000 0.000000
vn 0.998068 -0.062137 0.000000
vn 0.998068 -0.062137 0.000000
vn 0.992278 -0.124035 0.000000
vn 0.998068 -0.062137 0.000000
vn 0.992278 -0.124035 0.000000
vn 0.992278 -0.124035 0.000000
vn 0.000000 0.216930 0.976187
vn 0.000000 0.216930 0.976187
vn 0.000000 0.216930 0.976187
vn 0.000000 0.216930 0.976187
vn 0.000000 0.216930 0.976187
vn 0.000000 0.216930 0.976187
vn 0.000000 0.216930 0.976187
vn 0.000000 0.109117 0.994029
vn 0.000000 0.109117 0.994029
vn 0.000000 0.216930 0.976187
vn 0.000000 0.109117 0.994029
vn 0.000000 0.216930 0.976187
vn 0.000000 0.216930 0.976187
vn 0.000000 0.216930 0.976187
vn 0.000000 0.216930 0.976187
vn 0.000000 0.216930 0.976187
vn 0.000000 0.216930 0.976187
vn 0.000000 0.216930 0.976187
vn 0.000000 0.216930 0.976187
vn 0.000000 0.216930 0.976187
vn 0.000000 0.216930 0.976187
vn 0.000000 0.216930 0.976187
vn 0.000000 0.216930 0.976187
vn 0.000000 0.216930 0.976187
vn 0.000000 -0.175033 -0.984563
vn 0.000000 -0.087856 -0.996133
vn 0.000000 -0.087856 -0.996133
vn 0.000000 -0.175033 -0.984563
vn 0.000000 -0.087856 -0.996133
vn 0.000000 -0.175033 -0.984563
vn 0.000000 -0.175033 -0.984563
vn 0.000000 -0.175033 -0.984563
vn 0.000000 -0.175033 -0.984563
vn 0.000000 -0.175033 -0.984563
vn 0.000000 -0.175033 -0.984563
vn 0.000000 -0.175033 -0.984563
f 28/1/1 16/2/2 15/3/3
f 28/4/4 15/5/5 21/6/6
f 8/7/7 9/8/8 26/9/9
f 8/10/10 26/11/11 28/12/12
f 13/13/13 23/14/14 69/15/15
f 13/16/16 69/17/17 67/18/18
f 22/19/19 20/20/20 11/21/21
f 22/22/22 11/23/23 12/24/24
f 29/25/25 19/26/26 17/27/27
f 29/28/28 17/29/29 27/30/30
f 27/31/31 17/32/32 11/33/33
f 27/34/34 11/35/35 20/36/36
f 9/37/37 4/38/38 23/39/39
f 9/40/40 23/41/41 26/42/42
f 5/43/43 7/44/44 20/45/45
f 5/46/46 20/47/47 22/48/48
f 27/49/49 20/50/50 7/51/51
f 27/52/52 7/53/53 6/54/54
f 14/55/55 16/56/56 28/57/57
f 14/58/58 28/59/59 26/60/60
f 28/61/61 21/62/62 10/63/63
f 28/64/64 10/65/65 8/66/66
f 6/67/67 2/68/68 29/69/69
f 6/70/70 29/71/71 27/72/72
f 10/73/73 21/74/74 25/75/75
f 29/76/76 2/77/77 18/78/78
f 65/79/79 5/80/80 22/81/81
f 65/82/82 22/83/83 63/84/84
f 21/85/85 29/86/86 18/87/87
f 21/88/88 18/89/89 2/90/90
f 21/91/91 2/92/92 10/93/93
f 21/94/94 10/95/95 25/96/96
f 13/97/97 14/98/98 26/99/99
f 13/100/100 26/101/101 23/102/102
f 21/103/103 15/104/104 19/105/105
f 21/106/106 19/107/107 29/108/108
f 41/109/109 35/110/110 36/111/111
f 41/112/112 36/113/113 38/114/114
f 41/115/115 38/116/116 33/117/117
f 41/118/118 33/119/119 40/120/120
f 34/121/121 40/122/122 39/123/123
f 34/124/124 39/125/125 47/126/126
f 35/127/127 41/128/128 42/129/129
f 35/130/130 42/131/131 44/132/132
f 41/133/133 31/134/134 43/135/135
f 41/136/136 43/137/137 42/138/138
f 36/139/139 35/140/140 44/141/141
f 36/142/142 44/143/143 30/144/144
f 31/145/145 34/146/146 47/147/147
f 31/148/148 47/149/149 43/150/150
f 33/151/151 38/152/152 37/153/153
f 33/154/154 37/155/155 45/156/156
f 40/157/157 33/158/158 45/159/159
f 40/160/160 45/161/161 39/162/162
f 1/163/163 36/164/164 30/165/165
f 1/166/166 30/167/167 32/168/168
f 37/169/169 38/170/170 24/171/171
f 37/172/172 24/173/173 46/174/174
f 38/175/175 36/176/176 1/177/177
f 38/178/178 1/179/179 24/180/180
f 59/181/181 60/182/182 62/183/183
f 59/184/184 62/185/185 3/186/186
f 34/187/187 31/188/188 48/189/189
f 34/190/190 48/191/191 49/192/192
f 40/193/193 34/194/194 49/195/195
f 40/196/196 49/197/197 50/198/198
f 40/199/199 50/200/200 53/201/201
f 31/202/202 41/203/203 52/204/204
f 31/205/205 52/206/206 51/207/207
f 31/208/208 51/209/209 48/210/210
f 52/211/211 41/212/212 40/213/213
f 52/214/214 40/215/215 53/216/216
f 52/217/217 53/218/218 55/219/219
f 52/220/220 55/221/221 54/222/222
f 53/223/223 50/224/224 56/225/225
f 53/226/226 56/227/227 55/228/228
f 51/229/229 52/230/230 54/231/231
f 51/232/232 54/233/233 57/234/234
f 60/235/235 59/236/236 58/237/237
f 60/238/238 58/239/239 76/240/240
f 60/241/241 76/242/242 70/243/243
f 60/244/244 70/245/245 61/246/246
f 51/247/247 57/248/248 58/249/249
f 51/250/250 58/251/251 59/252/252
f 56/253/253 50/254/254 60/255/255
f 56/256/256 60/257/257 61/258/258
f 75/259/259 56/260/260 61/261/261
f 75/262/262 61/263/263 70/264/264
f 50/265/265 49/266/266 62/267/267
f 50/268/268 62/269/269 60/270/270
f 48/271/271 51/272/272 59/273/273
f 48/274/274 59/275/275 3/276/276
f 49/277/277 48/278/278 3/279/279
f 49/280/280 3/281/281 62/282/282
f 69/283/283 23/284/284 4/285/285
f 69/286/286 4/287/287 64/288/288
f 76/289/289 58/290/290 57/291/291
f 76/292/292 57/293/293 74/294/294
f 55/295/295 56/296/296 75/297/297
f 55/298/298 75/299/299 66/300/300
f 74/301/301 69/302/302 64/303/303
f 74/304/304 64/305/305 76/306/306
f 63/307/307 75/308/308 70/309/309
f 63/310/310 70/311/311 65/312/312
f 66/313/313 75/314/314 63/315/315
f 66/316/316 63/317/317 72/318/318
f 67/319/319 69/320/320 74/321/321
f 67/322/322 74/323/323 71/324/324
f 76/325/325 64/326/326 65/327/327
f 76/328/328 65/329/329 70/330/330
f 85/331/331 79/332/332 84/333/333
f 42/334/334 43/335/335 81/336/336
f 43/337/337 47/338/338 82/339/339
f 43/340/340 82/341/341 81/342/342
f 30/343/343 44/344/344 80/345/345
f 30/346/346 80/347/347 78/348/348
f 45/349/349 37/350/350 77/351/351
f 45/352/352 77/353/353 83/354/354
f 39/355/355 45/356/356 83/357/357
f 82/358/358 83/359/359 84/360/360
f 82/361/361 84/362/362 79/363/363
f 77/364/364 78/365/365 85/366/366
f 77/367/367 85/368/368 84/369/369
f 78/370/370 80/371/371 85/372/372
f 83/373/373 77/374/374 84/375/375
f 80/376/376 81/377/377 79/378/378
f 80/379/379 79/380/380 85/381/381
f 81/382/382 82/383/383 79/384/384
f 82/385/385 47/386/386 39/387/387
f 80/388/388 44/389/389 42/390/390
f 81/391/391 80/392/392 42/393/393
f 39/394/394 83/395/395 82/396/396
f 77/397/397 37/398/398 86/399/399
f 87/400/400 30/401/401 78/402/402
f 87/403/403 78/404/404 77/405/405
f 87/406/406 77/407/407 86/408/408
f 86/409/409 37/410/410 46/411/411
f 86/412/412 46/413/413 73/414/414
f 87/415/415 86/416/416 73/417/417
f 87/418/418 73/419/419 68/420/420
f 32/421/421 30/422/422 87/423/423
f 32/424/424 87/425/425 68/426/426
f 66/427/427 72/428/428 67/429/429
f 66/430/430 67/431/431 71/432/432
f 72/433/433 63/434/434 22/435/435
f 72/436/436 22/437/437 12/438/438
f 12/439/439 24/440/440 1/441/441
f 12/442/442 1/443/443 13/444/444
f 12/445/445 13/446/446 67/447/447
f 12/448/448 67/449/449 72/450/450
f 71/451/451 74/452/452 57/453/453
f 71/454/454 57/455/455 54/456/456
f 54/457/457 55/458/458 66/459/459
f 54/460/460 66/461/461 71/462/462
