v -16.000000 0.000000 -16.000000
v -16.000000 0.000000 -8.000000
v -16.000000 0.000000 0.000000
v -16.000000 0.000000 8.000000
v -16.000000 0.000000 16.000000
v -8.000000 0.000000 -16.000000
v -8.000000 0.000000 -8.000000
v -8.000000 0.000000 0.000000
v -8.000000 3.910535 8.000000
v -8.000000 0.000000 16.000000
v 0.000000 0.000000 -16.000000
v 0.000000 4.238076 -8.000000
v 2.000000 3.786116 -8.000000
v 0.000000 0.000000 8.000000
v 0.000000 0.000000 16.000000
v 8.000000 0.000000 -16.000000
v 8.000000 0.000000 -8.000000
v 8.000000 4.637317 0.000000
v 10.000000 3.106262 10.000000
v 8.000000 0.000000 16.000000
v 16.000000 0.000000 -16.000000
v 16.000000 0.000000 -8.000000
v 16.000000 0.000000 0.000000
v 16.000000 0.000000 8.000000
v 16.000000 0.000000 16.000000
v -6.000000 3.910535 8.000000
v 6.000000 2.722858 8.000000
v 8.000000 6.000000 2.000000
v 8.000000 5.025381 6.000000
v -8.000000 1.183485 2.000000
v -8.000000 6.000000 6.000000
v -2.000000 3.720962 -8.000000
v 4.000000 24.000000 3.000000
v 3.000000 24.000000 4.000000
v -3.000000 24.000000 4.000000
v -4.000000 24.000000 3.000000
v -1.000000 24.000000 -4.000000
v -6.000000 46.000000 7.000000
v -4.000000 24.000000 2.000000
v 4.000000 24.000000 2.000000
v 1.000000 24.000000 -4.000000
v 1.000000 26.000000 -4.000000
v 4.000000 26.000000 2.000000
v 3.000000 26.000000 4.000000
v -3.000000 26.000000 4.000000
v -4.000000 26.000000 2.000000
v -1.000000 26.000000 -4.000000
v 3.000000 42.000000 -13.000000
v -8.000000 46.000000 3.000000
v 12.000000 42.000000 5.000000
v 9.000000 42.000000 11.000000
v -9.000000 42.000000 11.000000
v -12.000000 42.000000 5.000000
v -3.000000 42.000000 -13.000000
v 2.000000 46.000000 -9.000000
v -2.000000 46.000000 -9.000000
v 6.000000 46.000000 7.000000
v -4.000000 26.000000 3.000000
v 4.000000 26.000000 3.000000
v 12.000000 42.000000 8.000000
v 1.000000 34.000000 7.500000
v -2.000000 26.000000 4.000000
v 2.000000 26.000000 4.000000
v -2.000000 24.000000 4.000000
v 2.000000 24.000000 4.000000
v -1.000000 34.000000 7.500000
v 5.000000 2.622225 -3.000000
v -2.984072 2.381564 -4.821155
v -11.000000 0.000000 5.000000
v -6.991890 0.000000 -2.730317
v -3.000000 0.000000 8.000000
v -8.000000 0.480062 12.616860
v 2.750000 1.500000 8.000000
v 3.000000 0.000000 6.000000
v 5.000000 0.000000 10.000000
v 12.000000 1.296115 0.000000
v 9.000000 0.604545 13.000000
v 13.000000 0.604545 9.000000
v 12.000000 0.604545 13.000000
v -3.918611 2.748295 -1.802314
v -3.301640 2.416118 -5.830600
v -5.273600 3.338019 0.456000
v -12.000000 0.546860 8.000000
v -12.027222 0.768288 12.027222
v -6.861460 0.268006 11.445839
v -1.598723 0.338986 13.868369
v -9.504303 37.008606 6.440189
v -12.000000 42.000000 6.428989
v -10.590744 42.000000 9.409256
v -8.181568 43.091244 9.908758
v -3.304181 46.000000 1.043119
v -4.065091 46.000000 2.724480
v -0.794289 46.000000 -0.002825
v -0.090145 46.000000 4.412986
v 9.087337 44.912663 5.815503
v 11.242624 42.757374 4.621312
v 4.037286 45.285252 -5.997551
v 3.391599 43.240257 -10.356414
v 2.641703 43.433189 -11.566811
v 3.738888 45.733219 -5.364995
v 4.226515 45.658409 -4.345650
v -0.577621 46.000000 1.355936
v -0.308929 46.000000 3.040953
v 5.476758 45.466599 -1.732119
v 5.954556 45.393295 -0.733321
v 4.638086 45.074471 -5.112122
v 6.533543 44.409481 -2.318693
v 7.214100 44.170719 -1.315724
vt 0.000000 0.000000
vt 0.000000 0.000000
vt 0.000000 0.000000
vt 0.000000 0.000000
vt 0.000000 0.000000
vt 0.000000 0.000000
vt 0.000000 0.000000
vt 0.000000 0.000000
vt 0.000000 0.000000
vt 0.000000 0.000000
vt 0.000000 0.000000
vt 0.000000 0.000000
vt 0.000000 0.000000
vt 0.000000 0.000000
vt 0.000000 0.000000
vt 0.000000 0.000000
vt 0.000000 0.000000
vt 0.000000 0.000000
vt 0.000000 0.000000
vt 0.000000 0.000000
vt 0.000000 0.000000
vt 0.000000 0.000000
vt 0.000000 0.000000
vt 0.000000 0.000000
vt 0.000000 0.000000
vt 0.000000 0.000000
vt 0.000000 0.000000
vt 0.000000 0.000000
vt 0.000000 0.000000
vt 0.000000 0.000000
vt 0.000000 0.000000
vt 0.000000 0.000000
vt 0.000000 0.000000
vt 0.000000 0.000000
vt 0.000000 0.000000
vt 0.000000 0.000000
vt 0.000000 0.000000
vt 0.000000 0.000000
vt 0.000000 0.000000
vt 0.000000 0.000000
vt 0.000000 0.000000
vt 0.000000 0.000000
vt 0.000000 0.000000
vt 0.000000 0.000000
vt 0.000000 0.000000
vt 0.000000 0.000000
vt 0.000000 0.000000
vt 0.000000 0.000000
vt 0.000000 0.000000
vt 0.000000 0.000000
vt 0.000000 0.000000
vt 0.000000 0.000000
vt 0.000000 0.000000
vt 0.000000 0.000000
vt 0.000000 0.000000
vt 0.000000 0.000000
vt 0.000000 0.000000
vt 0.000000 0.000000
vt 0.000000 0.000000
vt 0.000000 0.000000
vt 0.000000 0.000000
vt 0.000000 0.000000
vt 0.000000 0.000000
vt 0.000000 0.000000
vt 0.000000 0.000000
vt 0.000000 0.000000
vt 0.000000 0.000000
vt 0.000000 0.000000
vt 0.000000 0.000000
vt 0.000000 0.000000
vt 0.000000 0.000000
vt 0.000000 0.000000
vt 0.000000 0.000000
vt 0.000000 0.000000
vt 0.000000 0.000000
vt 0.000000 0.000000
vt 0.000000 0.000000
vt 0.000000 0.000000
vt 0.000000 0.000000
vt 0.000000 0.000000
vt 0.000000 0.000000
vt 0.000000 0.000000
vt 0.000000 0.000000
vt 0.000000 0.000000
vt 0.000000 0.000000
vt 0.000000 0.000000
vt 0.000000 0.000000
vt 0.000000 0.000000
vt 0.000000 0.000000
vt 0.000000 0.000000
vt 0.000000 0.000000
vt 0.000000 0.000000
vt 0.000000 0.000000
vt 0.000000 0.000000
vt 0.000000 0.000000
vt 0.000000 0.000000
vt 0.000000 0.000000
vt 0.000000 0.000000
vt 0.000000 0.000000
vt 0.000000 0.000000
vt 0.000000 0.000000
vt 0.000000 0.000000
vt 0.000000 0.000000
vt 0.000000 0.000000
vt 0.000000 0.000000
vt 0.000000 0.000000
vt 0.000000 0.000000
vt 0.000000 0.000000
vt 0.000000 0.000000
vt 0.000000 0.000000
vt 0.000000 0.000000
vt 0.000000 0.000000
vt 0.000000 0.000000
vt 0.000000 0.000000
vt 0.000000 0.000000
vt 0.000000 0.000000
vt 0.000000 0.000000
vt 0.000000 0.000000
vt 0.000000 0.000000
vt 0.000000 0.000000
vt 0.000000 0.000000
vt 0.000000 0.000000
vt 0.000000 0.000000
vt 0.000000 0.000000
vt 0.000000 0.000000
vt 0.000000 0.000000
vt 0.000000 0.000000
vt 0.000000 0.000000
vt 0.000000 0.000000
vt 0.000000 0.000000
vt 0.000000 0.000000
vt 0.000000 0.000000
vt 0.000000 0.000000
vt 0.000000 0.000000
vt 0.000000 0.000000
vt 0.000000 0.000000
vt 0.000000 0.000000
vt 0.000000 0.000000
vt 0.000000 0.000000
vt 0.000000 0.000000
vt 0.000000 0.000000
vt 0.000000 0.000000
vt 0.000000 0.000000
vt 0.000000 0.000000
vt 0.000000 0.000000
vt 0.000000 0.000000
vt 0.000000 0.000000
vt 0.000000 0.000000
vt 0.000000 0.000000
vt 0.000000 0.000000
vt 0.000000 0.000000
vt 0.000000 0.000000
vt 0.000000 0.000000
vt 0.000000 0.000000
vt 0.000000 0.000000
vt 0.000000 0.000000
vt 0.000000 0.000000
vt 0.000000 0.000000
vt 0.000000 0.000000
vt 0.000000 0.000000
vt 0.000000 0.000000
vt 0.000000 0.000000
vt 0.000000 0.000000
vt 0.000000 0.000000
vt 0.000000 0.000000
vt 0.000000 0.000000
vt 0.000000 0.000000
vt 0.000000 0.000000
vt 0.000000 0.000000
vt 0.000000 0.000000
vt 0.000000 0.000000
vt 0.000000 0.000000
vt 0.000000 0.000000
vt 0.000000 0.000000
vt 0.000000 0.000000
vt 0.000000 0.000000
vt 0.000000 0.000000
vt 0.000000 0.000000
vt 0.000000 0.000000
vt 0.000000 0.000000
vt 0.000000 0.000000
vt 0.000000 0.000000
vt 0.000000 0.000000
vt 0.000000 0.000000
vt 0.000000 0.000000
vt 0.000000 0.000000
vt 0.000000 0.000000
vt 0.000000 0.000000
vt 0.000000 0.000000
vt 0.000000 0.000000
vt 0.000000 0.000000
vt 0.000000 0.000000
vt 0.000000 0.000000
vt 0.000000 0.000000
vt 0.000000 0.000000
vt 0.000000 0.000000
vt 0.000000 0.000000
vt 0.000000 0.000000
vt 0.000000 0.000000
vt 0.000000 0.000000
vt 0.000000 0.000000
vt 0.000000 0.000000
vt 0.000000 0.000000
vt 0.000000 0.000000
vt 0.000000 0.000000
vt 0.000000 0.000000
vt 0.000000 0.000000
vt 0.000000 0.000000
vt 0.000000 0.000000
vt 0.000000 0.000000
vt 0.000000 0.000000
vt 0.000000 0.000000
vt 0.000000 0.000000
vt 0.000000 0.000000
vt 0.000000 0.000000
vt 0.000000 0.000000
vt 0.000000 0.000000
vt 0.000000 0.000000
vt 0.000000 0.000000
vt 0.000000 0.000000
vt 0.000000 0.000000
vt 0.000000 0.000000
vt 0.000000 0.000000
vt 0.000000 0.000000
vt 0.000000 0.000000
vt 0.000000 0.000000
vt 0.000000 0.000000
vt 0.000000 0.000000
vt 0.000000 0.000000
vt 0.000000 0.000000
vt 0.000000 0.000000
vt 0.000000 0.000000
vt 0.000000 0.000000
vt 0.000000 0.000000
vt 0.000000 0.000000
vt 0.000000 0.000000
vt 0.000000 0.000000
vt 0.000000 0.000000
vt 0.000000 0.000000
vt 0.000000 0.000000
vt 0.000000 0.000000
vt 0.000000 0.000000
vt 0.000000 0.000000
vt 0.000000 0.000000
vt 0.000000 0.000000
vt 0.000000 0.000000
vt 0.000000 0.000000
vt 0.000000 0.000000
vt 0.000000 0.000000
vt 0.000000 0.000000
vt 0.000000 0.000000
vt 0.000000 0.000000
vt 0.000000 0.000000
vt 0.000000 0.000000
vt 0.000000 0.000000
vt 0.000000 0.000000
vt 0.000000 0.000000
vt 0.000000 0.000000
vt 0.000000 0.000000
vt 0.000000 0.000000
vt 0.000000 0.000000
vt 0.000000 0.000000
vt 0.000000 0.000000
vt 0.000000 0.000000
vt 0.000000 0.000000
vt 0.000000 0.000000
vt 0.000000 0.000000
vt 0.000000 0.000000
vt 0.000000 0.000000
vt 0.000000 0.000000
vt 0.000000 0.000000
vt 0.000000 0.000000
vt 0.000000 0.000000
vt 0.000000 0.000000
vt 0.000000 0.000000
vt 0.000000 0.000000
vt 0.000000 0.000000
vt 0.000000 0.000000
vt 0.000000 0.000000
vt 0.000000 0.000000
vt 0.000000 0.000000
vt 0.000000 0.000000
vt 0.000000 0.000000
vt 0.000000 0.000000
vt 0.000000 0.000000
vt 0.000000 0.000000
vt 0.000000 0.000000
vt 0.000000 0.000000
vt 0.000000 0.000000
vt 0.000000 0.000000
vt 0.000000 0.000000
vt 0.000000 0.000000
vt 0.000000 0.000000
vt 0.000000 0.000000
vt 0.000000 0.000000
vt 0.000000 0.000000
vt 0.000000 0.000000
vt 0.000000 0.000000
vt 0.000000 0.000000
vt 0.000000 0.000000
vt 0.000000 0.000000
vt 0.000000 0.000000
vt 0.000000 0.000000
vt 0.000000 0.000000
vt 0.000000 0.000000
vt 0.000000 0.000000
vt 0.000000 0.000000
vt 0.000000 0.000000
vt 0.000000 0.000000
vt 0.000000 0.000000
vt 0.000000 0.000000
vt 0.000000 0.000000
vt 0.000000 0.000000
vt 0.000000 0.000000
vt 0.000000 0.000000
vt 0.000000 0.000000
vt 0.000000 0.000000
vt 0.000000 0.000000
vt 0.000000 0.000000
vt 0.000000 0.000000
vt 0.000000 0.000000
vt 0.000000 0.000000
vt 0.000000 0.000000
vt 0.000000 0.000000
vt 0.000000 0.000000
vt 0.000000 0.000000
vt 0.000000 0.000000
vt 0.000000 0.000000
vt 0.000000 0.000000
vt 0.000000 0.000000
vt 0.000000 0.000000
vt 0.000000 0.000000
vt 0.000000 0.000000
vt 0.000000 0.000000
vt 0.000000 0.000000
vt 0.000000 0.000000
vt 0.000000 0.000000
vt 0.000000 0.000000
vt 0.000000 0.000000
vt 0.000000 0.000000
vt 0.000000 0.000000
vt 0.000000 0.000000
vt 0.000000 0.000000
vt 0.000000 0.000000
vt 0.000000 0.000000
vt 0.000000 0.000000
vt 0.000000 0.000000
vt 0.000000 0.000000
vt 0.000000 0.000000
vt 0.000000 0.000000
vt 0.000000 0.000000
vt 0.000000 0.000000
vt 0.000000 0.000000
vt 0.000000 0.000000
vt 0.000000 0.000000
vt 0.000000 0.000000
vt 0.000000 0.000000
vt 0.000000 0.000000
vt 0.000000 0.000000
vt 0.000000 0.000000
vt 0.000000 0.000000
vt 0.000000 0.000000
vt 0.000000 0.000000
vt 0.000000 0.000000
vt 0.000000 0.000000
vt 0.000000 0.000000
vt 0.000000 0.000000
vt 0.000000 0.000000
vt 0.000000 0.000000
vt 0.000000 0.000000
vt 0.000000 0.000000
vt 0.000000 0.000000
vt 0.000000 0.000000
vt 0.000000 0.000000
vt 0.000000 0.000000
vt 0.000000 0.000000
vt 0.000000 0.000000
vt 0.000000 0.000000
vt 0.000000 0.000000
vt 0.000000 0.000000
vt 0.000000 0.000000
vt 0.000000 0.000000
vt 0.000000 0.000000
vt 0.000000 0.000000
vt 0.000000 0.000000
vt 0.000000 0.000000
vt 0.000000 0.000000
vt 0.000000 0.000000
vt 0.000000 0.000000
vt 0.000000 0.000000
vt 0.000000 0.000000
vt 0.000000 0.000000
vt 0.000000 0.000000
vt 0.000000 0.000000
vt 0.000000 0.000000
vt 0.000000 0.000000
vt 0.000000 0.000000
vt 0.000000 0.000000
vt 0.000000 0.000000
vt 0.000000 0.000000
vt 0.000000 0.000000
vt 0.000000 0.000000
vt 0.000000 0.000000
vt 0.000000 0.000000
vt 0.000000 0.000000
vt 0.000000 0.000000
vt 0.000000 0.000000
vt 0.000000 0.000000
vt 0.000000 0.000000
vt 0.000000 0.000000
vt 0.000000 0.000000
vt 0.000000 0.000000
vt 0.000000 0.000000
vt 0.000000 0.000000
vt 0.000000 0.000000
vt 0.000000 0.000000
vt 0.000000 0.000000
vt 0.000000 0.000000
vt 0.000000 0.000000
vt 0.000000 0.000000
vt 0.000000 0.000000
vt 0.000000 0.000000
vt 0.000000 0.000000
vt 0.000000 0.000000
vt 0.000000 0.000000
vt 0.000000 0.000000
vt 0.000000 0.000000
vt 0.000000 0.000000
vt 0.000000 0.000000
vt 0.000000 0.000000
vt 0.000000 0.000000
vt 0.000000 0.000000
vt 0.000000 0.000000
vt 0.000000 0.000000
vt 0.000000 0.000000
vn 0.000000 1.000000 0.000000
vn 0.000000 1.000000 0.000000
vn -0.261497 0.964626 0.033402
vn 0.000000 1.000000 0.000000
vn -0.261497 0.964626 0.033402
vn -0.126432 0.983885 -0.126432
vn 0.000000 1.000000 0.000000
vn 0.000000 1.000000 0.000000
vn -0.361126 0.909137 -0.207502
vn 0.000000 1.000000 0.000000
vn -0.361126 0.909137 -0.207502
vn -0.261497 0.964626 0.033402
vn -0.406386 0.899244 -0.161898
vn -0.378823 0.832438 0.404401
vn -0.488693 0.853182 -0.182371
vn 0.163452 0.902351 0.398805
vn -0.378823 0.832438 0.404401
vn -0.170011 0.968038 0.184389
vn -0.346001 0.920847 -0.179791
vn 0.011884 0.924502 -0.380991
vn -0.077673 0.937492 -0.339228
vn -0.610958 0.720934 -0.327085
vn -0.540310 0.841463 0.002156
vn -0.449670 0.880619 -0.149353
vn -0.698770 0.669780 0.251225
vn -0.378823 0.832438 0.404401
vn -0.007011 0.717772 0.696243
vn -0.077673 0.937492 -0.339228
vn 0.011884 0.924502 -0.380991
vn 0.393312 0.896349 -0.204609
vn -0.077673 0.937492 -0.339228
vn 0.393312 0.896349 -0.204609
vn 0.244582 0.936974 -0.249518
vn -0.077673 0.937492 -0.339228
vn 0.244582 0.936974 -0.249518
vn 0.125150 0.981765 -0.143091
vn 0.244582 0.936974 -0.249518
vn 0.393312 0.896349 -0.204609
vn 0.161945 0.893466 -0.418918
vn -0.342400 0.706910 0.618902
vn 0.287740 0.886573 0.362206
vn 0.040298 0.908578 0.415768
vn -0.037482 0.956618 0.288924
vn 0.069670 0.996174 0.052751
vn -0.046793 0.996363 0.071218
vn -0.037482 0.956618 0.288924
vn -0.046793 0.996363 0.071218
vn -0.264056 0.839564 0.474771
vn 0.125150 0.981765 -0.143091
vn 0.244582 0.936974 -0.249518
vn 0.053539 0.997129 -0.053539
vn 0.125150 0.981765 -0.143091
vn 0.053539 0.997129 -0.053539
vn 0.000000 1.000000 0.000000
vn 0.244582 0.936974 -0.249518
vn 0.285907 0.810936 -0.510530
vn 0.518958 0.838938 -0.163906
vn 0.432348 0.898916 0.070881
vn 0.180638 0.981756 0.059367
vn 0.186937 0.981482 -0.041800
vn 0.432348 0.898916 0.070881
vn 0.186937 0.981482 -0.041800
vn 0.518958 0.838938 -0.163906
vn -0.153505 0.913664 0.376371
vn -0.046793 0.996363 0.071218
vn 0.094596 0.991011 0.094596
vn -0.153505 0.913664 0.376371
vn 0.094596 0.991011 0.094596
vn 0.180638 0.981756 0.059367
vn -0.153505 0.913664 0.376371
vn 0.180638 0.981756 0.059367
vn 0.432348 0.898916 0.070881
vn -0.153505 0.913664 0.376371
vn 0.432348 0.898916 0.070881
vn 0.275407 0.903911 0.327256
vn 0.000000 -0.204747 0.978815
vn -0.365809 -0.249089 0.896738
vn -0.382683 0.000000 0.923880
vn 0.000000 -0.204747 0.978815
vn -0.382683 0.000000 0.923880
vn 0.000000 0.000000 1.000000
vn -0.216157 -0.458245 0.862141
vn -0.365809 -0.249089 0.896738
vn 0.000000 -0.204747 0.978815
vn -0.216157 -0.458245 0.862141
vn 0.000000 -0.204747 0.978815
vn 0.000000 -0.400819 0.916157
vn 0.923880 0.000000 0.382683
vn 0.973249 0.000000 -0.229753
vn 0.951580 -0.206788 -0.227451
vn 0.923880 0.000000 0.382683
vn 0.951580 -0.206788 -0.227451
vn 0.892590 -0.262495 0.366578
vn -0.923880 0.000000 0.382683
vn -0.382683 0.000000 0.923880
vn -0.365809 -0.249089 0.896738
vn -0.923880 0.000000 0.382683
vn -0.365809 -0.249089 0.896738
vn -0.892590 -0.262495 0.366578
vn 0.160185 0.895592 0.415037
vn 0.230171 0.769000 0.596372
vn 0.596372 0.769001 0.230171
vn 0.160185 0.895592 0.415037
vn 0.596372 0.769001 0.230171
vn 0.596372 0.769001 0.230171
vn 0.800987 -0.502294 0.325762
vn 0.216157 -0.458245 0.862141
vn 0.365809 -0.249089 0.896738
vn 0.800987 -0.502294 0.325762
vn 0.365809 -0.249089 0.896738
vn 0.892590 -0.262495 0.366578
vn 0.000000 0.000000 -1.000000
vn 0.000000 0.000000 -1.000000
vn -0.518336 -0.248484 -0.818281
vn 0.000000 0.000000 -1.000000
vn -0.518336 -0.248484 -0.818281
vn 0.518336 -0.248484 -0.818281
vn 0.973249 0.000000 -0.229753
vn 0.894427 0.000000 -0.447214
vn 0.518336 -0.248484 -0.818281
vn 0.973249 0.000000 -0.229753
vn 0.518336 -0.248484 -0.818281
vn 0.951580 -0.206788 -0.227451
vn 0.892590 -0.262495 0.366578
vn 0.365809 -0.249089 0.896738
vn 0.382683 0.000000 0.923880
vn 0.892590 -0.262495 0.366578
vn 0.382683 0.000000 0.923880
vn 0.923880 0.000000 0.382683
vn 0.000000 0.000000 1.000000
vn 0.382683 0.000000 0.923880
vn 0.365809 -0.249089 0.896738
vn 0.000000 0.000000 1.000000
vn 0.365809 -0.249089 0.896738
vn 0.000000 -0.204747 0.978815
vn -0.892590 -0.262495 0.366578
vn -0.951580 -0.206788 -0.227451
vn -0.973249 0.000000 -0.229753
vn -0.892590 -0.262495 0.366578
vn -0.973249 0.000000 -0.229753
vn -0.923880 0.000000 0.382683
vn -0.894427 0.000000 -0.447214
vn -0.973249 0.000000 -0.229753
vn -0.951580 -0.206788 -0.227451
vn -0.894427 0.000000 -0.447214
vn -0.951580 -0.206788 -0.227451
vn -0.518336 -0.248484 -0.818281
vn -0.518336 -0.248484 -0.818281
vn -0.549186 0.149976 -0.822132
vn 0.623764 0.265331 -0.735199
vn -0.518336 -0.248484 -0.818281
vn 0.623764 0.265331 -0.735199
vn 0.518336 -0.248484 -0.818281
vn 0.951580 -0.206788 -0.227451
vn 0.518336 -0.248484 -0.818281
vn 0.623764 0.265331 -0.735199
vn 0.951580 -0.206788 -0.227451
vn 0.623764 0.265331 -0.735199
vn 0.960439 0.143378 -0.238745
vn 0.892590 -0.262495 0.366578
vn 0.951580 -0.206788 -0.227451
vn 0.960439 0.143378 -0.238745
vn 0.892590 -0.262495 0.366578
vn 0.960439 0.143378 -0.238745
vn 0.800987 -0.502294 0.325762
vn -0.800987 -0.502294 0.325762
vn -0.892590 -0.262495 0.366578
vn -0.365809 -0.249089 0.896738
vn -0.800987 -0.502294 0.325762
vn -0.365809 -0.249089 0.896738
vn -0.216157 -0.458245 0.862141
vn -0.800987 -0.502294 0.325762
vn -0.216157 -0.458245 0.862141
vn -0.613121 -0.498161 0.613121
vn -0.518336 -0.248484 -0.818281
vn -0.951580 -0.206788 -0.227451
vn -0.948803 -0.088699 -0.303158
vn -0.518336 -0.248484 -0.818281
vn -0.948803 -0.088699 -0.303158
vn -0.549186 0.149976 -0.822132
vn 0.037828 0.999274 0.004491
vn 0.000000 1.000000 0.000000
vn 0.032586 0.999469 0.000694
vn 0.037828 0.999274 0.004491
vn 0.032586 0.999469 0.000694
vn 0.048885 0.998804 0.001041
vn 0.037828 0.999274 0.004491
vn 0.048885 0.998804 0.001041
vn 0.037828 0.999274 0.004491
vn -0.549186 0.149976 -0.822132
vn -0.283979 0.865644 -0.412330
vn 0.000000 0.923880 -0.382683
vn -0.549186 0.149976 -0.822132
vn 0.000000 0.923880 -0.382683
vn 0.408081 0.694542 -0.592521
vn -0.549186 0.149976 -0.822132
vn 0.408081 0.694542 -0.592521
vn 0.623764 0.265331 -0.735199
vn 0.596372 0.769001 0.230171
vn 0.596372 0.769001 0.230171
vn 0.960439 0.143378 -0.238745
vn 0.596372 0.769001 0.230171
vn 0.960439 0.143378 -0.238745
vn 0.740058 0.645275 -0.189567
vn 0.742781 0.557086 -0.371391
vn 0.623764 0.265331 -0.735199
vn 0.408081 0.694542 -0.592521
vn -0.230172 0.769000 0.596372
vn 0.230171 0.769000 0.596372
vn 0.160185 0.895592 0.415037
vn -0.230172 0.769000 0.596372
vn 0.160185 0.895592 0.415037
vn 0.000000 0.923880 0.382683
vn -0.230172 0.769000 0.596372
vn 0.000000 0.923880 0.382683
vn -0.230172 0.769000 0.596372
vn -0.444445 0.777777 0.444445
vn -0.230172 0.769000 0.596372
vn -0.230172 0.769000 0.596372
vn -0.549186 0.149976 -0.822132
vn -0.948803 -0.088699 -0.303158
vn -0.420910 0.882351 -0.210455
vn -0.549186 0.149976 -0.822132
vn -0.420910 0.882351 -0.210455
vn -0.283979 0.865644 -0.412330
vn 0.065885 0.988607 0.135335
vn 0.163452 0.902351 0.398805
vn -0.170011 0.968038 0.184389
vn -0.894427 -0.447214 0.000000
vn -0.948803 -0.088699 -0.303158
vn -0.951580 -0.206788 -0.227451
vn -0.894427 -0.447214 0.000000
vn -0.951580 -0.206788 -0.227451
vn -0.892590 -0.262495 0.366578
vn -0.894427 -0.447214 0.000000
vn -0.892590 -0.262495 0.366578
vn -0.800987 -0.502294 0.325762
vn -0.216157 -0.458245 0.862141
vn 0.000000 -0.400819 0.916157
vn 0.000000 -0.400819 0.916157
vn -0.216157 -0.458245 0.862141
vn 0.000000 -0.400819 0.916157
vn 0.216157 -0.458245 0.862141
vn 0.000000 -0.400819 0.916157
vn 0.000000 -0.204747 0.978815
vn 0.365809 -0.249089 0.896738
vn 0.000000 -0.400819 0.916157
vn 0.365809 -0.249089 0.896738
vn 0.216157 -0.458245 0.862141
vn 0.161945 0.893466 -0.418918
vn 0.491282 0.843932 -0.215454
vn 0.285907 0.810936 -0.510530
vn 0.161945 0.893466 -0.418918
vn 0.285907 0.810936 -0.510530
vn 0.244582 0.936974 -0.249518
vn -0.077673 0.937492 -0.339228
vn -0.126432 0.983885 -0.126432
vn -0.261497 0.964626 0.033402
vn -0.077673 0.937492 -0.339228
vn -0.261497 0.964626 0.033402
vn -0.346001 0.920847 -0.179791
vn -0.517295 0.834149 0.191313
vn -0.346001 0.920847 -0.179791
vn -0.261497 0.964626 0.033402
vn -0.261497 0.964626 0.033402
vn -0.361126 0.909137 -0.207502
vn -0.449670 0.880619 -0.149353
vn -0.361126 0.909137 -0.207502
vn 0.000000 1.000000 0.000000
vn -0.488693 0.853182 -0.182371
vn -0.488693 0.853182 -0.182371
vn -0.378823 0.832438 0.404401
vn -0.698770 0.669780 0.251225
vn -0.488693 0.853182 -0.182371
vn -0.698770 0.669780 0.251225
vn -0.690961 0.578103 -0.434016
vn 0.163452 0.902351 0.398805
vn 0.065885 0.988607 0.135335
vn 0.069908 0.911270 0.405832
vn 0.146267 0.978191 0.147473
vn -0.007011 0.717772 0.696243
vn 0.069908 0.911270 0.405832
vn 0.146267 0.978191 0.147473
vn 0.069670 0.996174 0.052751
vn -0.037482 0.956618 0.288924
vn 0.146267 0.978191 0.147473
vn -0.037482 0.956618 0.288924
vn 0.525936 0.842379 -0.117428
vn -0.388922 0.713024 -0.583383
vn -0.388922 0.713024 -0.583383
vn -0.388922 0.713024 -0.583383
vn -0.272396 0.597250 0.754383
vn -0.037482 0.956618 0.288924
vn -0.264056 0.839564 0.474771
vn -0.264056 0.839564 0.474771
vn -0.046793 0.996363 0.071218
vn -0.153505 0.913664 0.376371
vn -0.264056 0.839564 0.474771
vn -0.342400 0.706910 0.618902
vn -0.272396 0.597250 0.754383
vn 0.491282 0.843932 -0.215454
vn 0.040298 0.908578 0.415768
vn 0.287740 0.886573 0.362206
vn 0.518958 0.838938 -0.163906
vn 0.285907 0.810936 -0.510530
vn 0.491282 0.843932 -0.215454
vn 0.518958 0.838938 -0.163906
vn 0.491282 0.843932 -0.215454
vn 0.287740 0.886573 0.362206
vn 0.518958 0.838938 -0.163906
vn 0.186937 0.981482 -0.041800
vn 0.053539 0.997129 -0.053539
vn 0.518958 0.838938 -0.163906
vn 0.053539 0.997129 -0.053539
vn 0.244582 0.936974 -0.249518
vn 0.518958 0.838938 -0.163906
vn 0.287740 0.886573 0.362206
vn 0.432348 0.898916 0.070881
vn 0.287740 0.886573 0.362206
vn -0.153505 0.913664 0.376371
vn 0.275407 0.903911 0.327256
vn -0.153505 0.913664 0.376371
vn 0.287740 0.886573 0.362206
vn -0.342400 0.706910 0.618902
vn -0.153505 0.913664 0.376371
vn -0.342400 0.706910 0.618902
vn -0.264056 0.839564 0.474771
vn 0.275407 0.903911 0.327256
vn 0.432348 0.898916 0.070881
vn 0.287740 0.886573 0.362206
vn -0.261497 0.964626 0.033402
vn -0.540310 0.841463 0.002156
vn -0.517295 0.834149 0.191313
vn -0.540310 0.841463 0.002156
vn -0.261497 0.964626 0.033402
vn -0.449670 0.880619 -0.149353
vn -0.361126 0.909137 -0.207502
vn -0.690961 0.578103 -0.434016
vn -0.661656 0.651044 -0.371958
vn -0.661656 0.651044 -0.371958
vn -0.610958 0.720934 -0.327085
vn -0.449670 0.880619 -0.149353
vn -0.661656 0.651044 -0.371958
vn -0.449670 0.880619 -0.149353
vn -0.361126 0.909137 -0.207502
vn 0.000000 1.000000 0.000000
vn -0.102074 0.991538 -0.080205
vn -0.488693 0.853182 -0.182371
vn -0.488693 0.853182 -0.182371
vn -0.690961 0.578103 -0.434016
vn -0.361126 0.909137 -0.207502
vn -0.406386 0.899244 -0.161898
vn -0.102074 0.991538 -0.080205
vn -0.086646 0.992480 0.086466
vn -0.406386 0.899244 -0.161898
vn -0.086646 0.992480 0.086466
vn -0.170011 0.968038 0.184389
vn -0.488693 0.853182 -0.182371
vn -0.102074 0.991538 -0.080205
vn -0.406386 0.899244 -0.161898
vn -0.170011 0.968038 0.184389
vn -0.378823 0.832438 0.404401
vn -0.406386 0.899244 -0.161898
vn -0.170011 0.968038 0.184389
vn -0.086646 0.992480 0.086466
vn 0.065885 0.988607 0.135335
vn 0.069908 0.911270 0.405832
vn -0.007011 0.717772 0.696243
vn -0.378823 0.832438 0.404401
vn 0.069908 0.911270 0.405832
vn -0.378823 0.832438 0.404401
vn 0.163452 0.902351 0.398805
vn 0.065885 0.988607 0.135335
vn 0.069670 0.996174 0.052751
vn 0.146267 0.978191 0.147473
vn 0.525936 0.842379 -0.117428
vn 0.774130 0.593880 -0.219156
vn 0.146267 0.978191 0.147473
vn 0.146267 0.978191 0.147473
vn 0.069908 0.911270 0.405832
vn 0.065885 0.988607 0.135335
vn 0.000000 0.923880 -0.382683
vn -0.283979 0.865644 -0.412330
vn -0.420910 0.882351 -0.210455
vn 0.000000 0.923880 -0.382683
vn -0.420910 0.882351 -0.210455
vn 0.000000 1.000000 0.000000
vn 0.000000 1.000000 0.000000
vn 0.000000 0.923880 0.382683
vn 0.160185 0.895592 0.415037
vn 0.000000 1.000000 0.000000
vn 0.160185 0.895592 0.415037
vn 0.032586 0.999469 0.000694
vn 0.685801 0.659209 -0.308417
vn 0.685801 0.659209 -0.308417
vn 0.685801 0.659208 -0.308417
vn 0.685801 0.659209 -0.308417
vn 0.685801 0.659208 -0.308417
vn 0.685801 0.659208 -0.308417
vn 0.685801 0.659209 -0.308417
vn 0.685801 0.659208 -0.308417
vn 0.740058 0.645275 -0.189567
vn 0.685801 0.659209 -0.308417
vn 0.740058 0.645275 -0.189567
vn 0.960439 0.143378 -0.238745
vn 0.685801 0.659209 -0.308417
vn 0.960439 0.143378 -0.238745
vn 0.623764 0.265331 -0.735199
vn 0.685801 0.659209 -0.308417
vn 0.623764 0.265331 -0.735199
vn 0.742781 0.557086 -0.371391
vn 0.037828 0.999274 0.004491
vn 0.037828 0.999274 0.004491
vn 0.365701 0.922698 -0.122033
vn 0.037828 0.999274 0.004491
vn 0.365701 0.922698 -0.122033
vn 0.365701 0.922698 -0.122033
vn 0.048885 0.998804 0.001041
vn 0.032586 0.999469 0.000694
vn 0.375900 0.918164 -0.125193
vn 0.048885 0.998804 0.001041
vn 0.375900 0.918164 -0.125193
vn 0.375900 0.918164 -0.125193
vn 0.365701 0.922698 -0.122033
vn 0.685801 0.659209 -0.308417
vn 0.685801 0.659209 -0.308417
vn 0.365701 0.922698 -0.122033
vn 0.685801 0.659209 -0.308417
vn 0.365701 0.922698 -0.122033
vn 0.375900 0.918164 -0.125193
vn 0.375900 0.918164 -0.125193
vn 0.685801 0.659208 -0.308417
vn 0.375900 0.918164 -0.125193
vn 0.685801 0.659208 -0.308417
vn 0.685801 0.659208 -0.308417
f 1/1/1 2/2/2 7/3/3
f 1/4/4 7/5/5 6/6/6
f 2/7/7 3/8/8 8/9/9
f 2/10/10 8/11/11 7/12/12
f 83/13/13 9/14/14 69/15/15
f 72/16/16 9/17/17 84/18/18
f 32/19/19 12/20/20 11/21/21
f 80/22/22 68/23/23 70/24/24
f 31/25/25 9/26/26 26/27/27
f 11/28/28 12/29/29 13/30/30
f 11/31/31 13/32/32 17/33/33
f 11/34/34 17/35/35 16/36/36
f 17/37/37 13/38/38 67/39/39
f 27/40/40 19/41/41 29/42/42
f 14/43/43 15/44/44 20/45/45
f 14/46/46 20/47/47 75/48/48
f 16/49/49 17/50/50 22/51/51
f 16/52/52 22/53/53 21/54/54
f 17/55/55 18/56/56 76/57/57
f 78/58/58 24/59/59 23/60/60
f 78/61/61 23/62/62 76/63/63
f 77/64/64 20/65/65 25/66/66
f 77/67/67 25/68/68 24/69/69
f 77/70/70 24/71/71 78/72/72
f 77/73/73 78/74/74 79/75/75
f 62/76/76 45/77/77 35/78/78
f 62/79/79 35/80/80 64/81/81
f 52/82/82 45/83/83 62/84/84
f 52/85/85 62/86/86 66/87/87
f 33/88/88 40/89/89 43/90/90
f 33/91/91 43/92/92 59/93/93
f 36/94/94 35/95/95 45/96/96
f 36/97/97 45/98/98 58/99/99
f 57/100/100 51/101/101 60/102/102
f 57/103/103 60/104/104 95/105/105
f 60/106/106 51/107/107 44/108/108
f 60/109/109 44/110/110 59/111/111
f 41/112/112 37/113/113 47/114/114
f 41/115/115 47/116/116 42/117/117
f 40/118/118 41/119/119 42/120/120
f 40/121/121 42/122/122 43/123/123
f 59/124/124 44/125/125 34/126/126
f 59/127/127 34/128/128 33/129/129
f 65/130/130 34/131/131 44/132/132
f 65/133/133 44/134/134 63/135/135
f 58/136/136 46/137/137 39/138/138
f 58/139/139 39/140/140 36/141/141
f 37/142/142 39/143/143 46/144/144
f 37/145/145 46/146/146 47/147/147
f 47/148/148 54/149/149 48/150/150
f 47/151/151 48/152/152 42/153/153
f 43/154/154 42/155/155 48/156/156
f 43/157/157 48/158/158 50/159/159
f 59/160/160 43/161/161 50/162/162
f 59/163/163 50/164/164 60/165/165
f 87/166/166 58/167/167 45/168/168
f 87/169/169 45/170/170 52/171/171
f 87/172/172 52/173/173 89/174/174
f 47/175/175 46/176/176 53/177/177
f 47/178/178 53/179/179 54/180/180
f 93/181/181 92/182/182 94/183/183
f 93/184/184 94/185/185 103/186/186
f 93/187/187 103/188/188 102/189/189
f 54/190/190 56/191/191 55/192/192
f 54/193/193 55/194/194 99/195/195
f 54/196/196 99/197/197 48/198/198
f 95/199/199 60/200/200 50/201/201
f 95/202/202 50/203/203 96/204/204
f 98/205/205 48/206/206 99/207/207
f 52/208/208 51/209/209 57/210/210
f 52/211/211 57/212/212 38/213/213
f 52/214/214 38/215/215 90/216/216
f 89/217/217 52/218/218 90/219/219
f 54/220/220 53/221/221 49/222/222
f 54/223/223 49/224/224 56/225/225
f 10/226/226 72/227/227 84/228/228
f 88/229/229 53/230/230 46/231/231
f 88/232/232 46/233/233 58/234/234
f 88/235/235 58/236/236 87/237/237
f 52/238/238 66/239/239 61/240/240
f 52/241/241 61/242/242 51/243/243
f 61/244/244 63/245/245 44/246/246
f 61/247/247 44/248/248 51/249/249
f 67/250/250 28/251/251 18/252/252
f 67/253/253 18/254/254 17/255/255
f 11/256/256 6/257/257 7/258/258
f 11/259/259 7/260/260 32/261/261
f 81/262/262 32/263/263 7/264/264
f 7/265/265 8/266/266 70/267/267
f 8/268/268 3/269/269 69/270/270
f 69/271/271 9/272/272 31/273/273
f 69/274/274 31/275/275 30/276/276
f 72/277/277 10/278/278 85/279/279
f 86/280/280 26/281/281 85/282/282
f 86/283/283 15/284/284 14/285/285
f 86/286/286 14/287/287 71/288/288
f 14/289/289 73/290/290 74/291/291
f 73/292/292 14/293/293 75/294/294
f 75/295/295 20/296/296 77/297/297
f 75/298/298 27/299/299 73/300/300
f 28/301/301 29/302/302 19/303/303
f 76/304/304 18/305/305 28/306/306
f 76/307/307 28/308/308 19/309/309
f 76/310/310 23/311/311 22/312/312
f 76/313/313 22/314/314 17/315/315
f 76/316/316 19/317/317 78/318/318
f 19/319/319 77/320/320 79/321/321
f 77/322/322 19/323/323 27/324/324
f 77/325/325 27/326/326 75/327/327
f 79/328/328 78/329/329 19/330/330
f 7/331/331 68/332/332 81/333/333
f 68/334/334 7/335/335 70/336/336
f 8/337/337 30/338/338 82/339/339
f 82/340/340 80/341/341 70/342/342
f 82/343/343 70/344/344 8/345/345
f 3/346/346 4/347/347 69/348/348
f 69/349/349 30/350/350 8/351/351
f 83/352/352 4/353/353 5/354/354
f 83/355/355 5/356/356 84/357/357
f 69/358/358 4/359/359 83/360/360
f 84/361/361 9/362/362 83/363/363
f 84/364/364 5/365/365 10/366/366
f 85/367/367 26/368/368 9/369/369
f 85/370/370 9/371/371 72/372/372
f 10/373/373 15/374/374 86/375/375
f 71/376/376 26/377/377 86/378/378
f 86/379/379 85/380/380 10/381/381
f 55/382/382 56/383/383 49/384/384
f 55/385/385 49/386/386 91/387/387
f 92/388/388 38/389/389 57/390/390
f 92/391/391 57/392/392 94/393/393
f 97/394/394 106/395/395 107/396/396
f 97/397/397 107/398/398 108/399/399
f 97/400/400 108/401/401 96/402/402
f 97/403/403 96/404/404 50/405/405
f 97/406/406 50/407/407 48/408/408
f 97/409/409 48/410/410 98/411/411
f 93/412/412 102/413/413 101/414/414
f 93/415/415 101/416/416 100/417/417
f 103/418/418 94/419/419 105/420/420
f 103/421/421 105/422/422 104/423/423
f 101/424/424 106/425/425 97/426/426
f 101/427/427 97/428/428 100/429/429
f 104/430/430 105/431/431 108/432/432
f 104/433/433 108/434/434 107/435/435
