v -16.000000 0.000000 -16.000000
v -16.000000 0.000000 -8.000000
v -16.000000 0.000000 0.000000
v -16.000000 0.000000 8.000000
v -16.000000 0.000000 16.000000
v -8.000000 0.000000 -16.000000
v -8.000000 0.000000 -8.000000
v -8.000000 0.000000 0.000000
v -1.598723 0.338986 13.868369
v -8.000000 0.000000 16.000000
v 0.000000 0.000000 -16.000000
v 0.000000 4.238076 -8.000000
v 2.000000 3.786116 -8.000000
v 0.000000 0.000000 8.000000
v 0.000000 0.000000 16.000000
v 8.000000 0.000000 -16.000000
v 8.000000 0.000000 -8.000000
v -5.273600 3.338019 0.456000
v 10.000000 3.106262 10.000000
v 8.000000 0.000000 16.000000
v 16.000000 0.000000 -16.000000
v 16.000000 0.000000 -8.000000
v 16.000000 0.000000 0.000000
v 16.000000 0.000000 8.000000
v 16.000000 0.000000 16.000000
v -12.027222 0.768288 12.027222
v 6.000000 2.722858 8.000000
v 8.000000 6.000000 2.000000
v 9.000000 0.604545 13.000000
v -8.000000 1.183485 2.000000
v -8.000000 6.000000 6.000000
v -2.000000 3.720962 -8.000000
v -3.918611 2.748295 -1.802314
v -2.984072 2.381564 -4.821155
v -11.000000 0.000000 5.000000
v 12.000000 0.604545 13.000000
v -3.000000 0.000000 8.000000
v 13.000000 0.604545 9.000000
v 2.750000 1.500000 8.000000
v 3.000000 0.000000 6.000000
v 5.000000 0.000000 10.000000
v 12.000000 1.296115 0.000000
vt 0.000000 0.000000
vt 0.000000 0.000000
vt 0.000000 0.000000
vt 0.000000 0.000000
vt 0.000000 0.000000
vt 0.000000 0.000000
vt 0.000000 0.000000
vt 0.000000 0.000000
vt 0.000000 0.000000
vt 0.000000 0.000000
vt 0.000000 0.000000
vt 0.000000 0.000000
vt 0.000000 0.000000
vt 0.000000 0.000000
vt 0.000000 0.000000
vt 0.000000 0.000000
vt 0.000000 0.000000
vt 0.000000 0.000000
vt 0.000000 0.000000
vt 0.000000 0.000000
vt 0.000000 0.000000
vt 0.000000 0.000000
vt 0.000000 0.000000
vt 0.000000 0.000000
vt 0.000000 0.000000
vt 0.000000 0.000000
vt 0.000000 0.000000
vt 0.000000 0.000000
vt 0.000000 0.000000
vt 0.000000 0.000000
vt 0.000000 0.000000
vt 0.000000 0.000000
vt 0.000000 0.000000
vt 0.000000 0.000000
vt 0.000000 0.000000
vt 0.000000 0.000000
vt 0.000000 0.000000
vt 0.000000 0.000000
vt 0.000000 0.000000
vt 0.000000 0.000000
vt 0.000000 0.000000
vt 0.000000 0.000000
vt 0.000000 0.000000
vt 0.000000 0.000000
vt 0.000000 0.000000
vt 0.000000 0.000000
vt 0.000000 0.000000
vt 0.000000 0.000000
vt 0.000000 0.000000
vt 0.000000 0.000000
vt 0.000000 0.000000
vt 0.000000 0.000000
vt 0.000000 0.000000
vt 0.000000 0.000000
vt 0.000000 0.000000
vt 0.000000 0.000000
vt 0.000000 0.000000
vt 0.000000 0.000000
vt 0.000000 0.000000
vt 0.000000 0.000000
vt 0.000000 0.000000
vt 0.000000 0.000000
vt 0.000000 0.000000
vt 0.000000 0.000000
vt 0.000000 0.000000
vt 0.000000 0.000000
vt 0.000000 0.000000
vt 0.000000 0.000000
vt 0.000000 0.000000
vt 0.000000 0.000000
vt 0.000000 0.000000
vt 0.000000 0.000000
vt 0.000000 0.000000
vt 0.000000 0.000000
vt 0.000000 0.000000
vt 0.000000 0.000000
vt 0.000000 0.000000
vt 0.000000 0.000000
vt 0.000000 0.000000
vt 0.000000 0.000000
vt 0.000000 0.000000
vt 0.000000 0.000000
vt 0.000000 0.000000
vt 0.000000 0.000000
vt 0.000000 0.000000
vt 0.000000 0.000000
vt 0.000000 0.000000
vt 0.000000 0.000000
vt 0.000000 0.000000
vt 0.000000 0.000000
vt 0.000000 0.000000
vt 0.000000 0.000000
vt 0.000000 0.000000
vt 0.000000 0.000000
vt 0.000000 0.000000
vt 0.000000 0.000000
vt 0.000000 0.000000
vt 0.000000 0.000000
vt 0.000000 0.000000
vt 0.000000 0.000000
vt 0.000000 0.000000
vt 0.000000 0.000000
vt 0.000000 0.000000
vt 0.000000 0.000000
vt 0.000000 0.000000
vt 0.000000 0.000000
vt 0.000000 0.000000
vt 0.000000 0.000000
vt 0.000000 0.000000
vt 0.000000 0.000000
vt 0.000000 0.000000
vt 0.000000 0.000000
vt 0.000000 0.000000
vt 0.000000 0.000000
vt 0.000000 0.000000
vt 0.000000 0.000000
vt 0.000000 0.000000
vt 0.000000 0.000000
vt 0.000000 0.000000
vt 0.000000 0.000000
vt 0.000000 0.000000
vt 0.000000 0.000000
vt 0.000000 0.000000
vt 0.000000 0.000000
vt 0.000000 0.000000
vt 0.000000 0.000000
vt 0.000000 0.000000
vt 0.000000 0.000000
vt 0.000000 0.000000
vt 0.000000 0.000000
vt 0.000000 0.000000
vt 0.000000 0.000000
vt 0.000000 0.000000
vt 0.000000 0.000000
vt 0.000000 0.000000
vt 0.000000 0.000000
vt 0.000000 0.000000
vt 0.000000 0.000000
vt 0.000000 0.000000
vt 0.000000 0.000000
vt 0.000000 0.000000
vt 0.000000 0.000000
vt 0.000000 0.000000
vt 0.000000 0.000000
vt 0.000000 0.000000
vt 0.000000 0.000000
vt 0.000000 0.000000
vt 0.000000 0.000000
vt 0.000000 0.000000
vt 0.000000 0.000000
vt 0.000000 0.000000
vt 0.000000 0.000000
vt 0.000000 0.000000
vt 0.000000 0.000000
vt 0.000000 0.000000
vt 0.000000 0.000000
vt 0.000000 0.000000
vt 0.000000 0.000000
vt 0.000000 0.000000
vt 0.000000 0.000000
vt 0.000000 0.000000
vt 0.000000 0.000000
vn 0.000000 1.000000 0.000000
vn 0.000000 1.000000 0.000000
vn -0.084134 0.992896 -0.084134
vn 0.000000 1.000000 0.000000
vn -0.084134 0.992896 -0.084134
vn -0.126432 0.983885 -0.126432
vn -0.084134 0.992896 -0.084134
vn 0.000000 1.000000 0.000000
vn 0.000000 1.000000 0.000000
vn -0.084134 0.992896 -0.084134
vn 0.000000 1.000000 0.000000
vn 0.000000 1.000000 0.000000
vn -0.811125 0.464744 -0.355091
vn -0.766979 0.458336 -0.449079
vn -0.731548 0.527878 -0.431489
vn -0.038804 0.767307 0.640105
vn -0.038804 0.767307 0.640105
vn -0.038804 0.767307 0.640105
vn -0.237230 0.904355 -0.354773
vn -0.013762 0.883577 -0.468083
vn 0.051521 0.900517 -0.431758
vn -0.503456 0.845278 -0.178988
vn -0.424370 0.905447 -0.008736
vn -0.516141 0.854768 -0.054499
vn 0.051521 0.900517 -0.431758
vn -0.013762 0.883577 -0.468083
vn 0.409101 0.838534 -0.359857
vn 0.644990 0.745526 -0.167862
vn 0.536404 0.773292 -0.338067
vn 0.409101 0.838534 -0.359857
vn -0.343795 0.767992 0.540364
vn -0.342400 0.706910 0.618902
vn -0.265402 0.761167 0.591766
vn 0.044460 0.998872 -0.016672
vn 0.029736 0.998699 0.041429
vn -0.078558 0.991284 0.105758
vn 0.044460 0.998872 -0.016672
vn -0.078558 0.991284 0.105758
vn -0.117743 0.991297 0.058872
vn 0.000000 1.000000 0.000000
vn 0.035681 0.998726 -0.035681
vn 0.053539 0.997129 -0.053539
vn 0.000000 1.000000 0.000000
vn 0.053539 0.997129 -0.053539
vn 0.000000 1.000000 0.000000
vn 0.500780 0.860005 -0.098035
vn 0.536404 0.773292 -0.338067
vn 0.644990 0.745526 -0.167862
vn 0.448426 0.892444 0.049584
vn 0.216002 0.976213 0.018765
vn 0.186937 0.981482 -0.041800
vn 0.448426 0.892444 0.049584
vn 0.186937 0.981482 -0.041800
vn 0.500780 0.860005 -0.098035
vn 0.083818 0.990771 0.106524
vn 0.216002 0.976213 0.018765
vn 0.448426 0.892444 0.049584
vn 0.083818 0.990771 0.106524
vn 0.448426 0.892444 0.049584
vn 0.057985 0.953133 0.296944
vn 0.784199 0.579914 -0.220753
vn 0.784199 0.579914 -0.220753
vn 0.784199 0.579914 -0.220753
vn 0.016750 0.986567 0.162493
vn 0.029736 0.998699 0.041429
vn 0.046553 0.994996 0.088407
vn -0.069368 0.996265 0.051418
vn -0.095802 0.990779 0.095802
vn 0.016750 0.986567 0.162493
vn -0.108621 0.993171 -0.042575
vn -0.095802 0.990779 0.095802
vn -0.069368 0.996265 0.051418
vn -0.731548 0.527878 -0.431489
vn -0.690961 0.578103 -0.434016
vn -0.677698 0.671025 -0.300751
vn 0.000000 1.000000 0.000000
vn -0.108621 0.993171 -0.042575
vn -0.044958 0.998083 -0.042525
vn -0.677698 0.671025 -0.300751
vn -0.690961 0.578103 -0.434016
vn -0.690853 0.676289 -0.255649
vn -0.517289 0.834158 0.191291
vn -0.516141 0.854768 -0.054499
vn -0.424370 0.905447 -0.008736
vn 0.663601 0.729460 0.165900
vn 0.448426 0.892444 0.049584
vn 0.694443 0.716645 0.064569
vn -0.176563 0.899819 0.398938
vn -0.265402 0.761167 0.591766
vn -0.342400 0.706910 0.618902
vn -0.176563 0.899819 0.398938
vn -0.342400 0.706910 0.618902
vn -0.330143 0.638136 0.695549
vn -0.265402 0.761167 0.591766
vn -0.176563 0.899819 0.398938
vn 0.057985 0.953133 0.296944
vn -0.330143 0.638136 0.695549
vn -0.342400 0.706910 0.618902
vn -0.272396 0.597250 0.754383
vn -0.117743 0.991297 0.058872
vn -0.078558 0.991284 0.105758
vn -0.176563 0.899819 0.398938
vn -0.272396 0.597250 0.754383
vn -0.306987 0.562809 0.767467
vn -0.330143 0.638136 0.695549
vn -0.388922 0.713024 -0.583383
vn -0.388922 0.713024 -0.583383
vn -0.388922 0.713024 -0.583383
vn 0.046553 0.994996 0.088407
vn 0.029736 0.998699 0.041429
vn 0.044460 0.998872 -0.016672
vn 0.046553 0.994996 0.088407
vn 0.044460 0.998872 -0.016672
vn 0.088820 0.995491 -0.033307
vn -0.069368 0.996265 0.051418
vn 0.016750 0.986567 0.162493
vn 0.046553 0.994996 0.088407
vn 0.500780 0.860005 -0.098035
vn 0.694443 0.716645 0.064569
vn 0.448426 0.892444 0.049584
vn 0.500780 0.860005 -0.098035
vn 0.186937 0.981482 -0.041800
vn 0.053539 0.997129 -0.053539
vn 0.500780 0.860005 -0.098035
vn 0.053539 0.997129 -0.053539
vn 0.035681 0.998726 -0.035681
vn 0.500780 0.860005 -0.098035
vn 0.644990 0.745526 -0.167862
vn 0.694443 0.716645 0.064569
vn 0.051521 0.900517 -0.431758
vn -0.126432 0.983885 -0.126432
vn -0.084134 0.992896 -0.084134
vn 0.051521 0.900517 -0.431758
vn -0.084134 0.992896 -0.084134
vn -0.237230 0.904355 -0.354773
vn 0.000000 1.000000 0.000000
vn 0.000000 1.000000 0.000000
vn -0.044958 0.998083 -0.042525
vn -0.731548 0.527878 -0.431489
vn -0.766979 0.458336 -0.449079
vn -0.690961 0.578103 -0.434016
vn 0.057985 0.953133 0.296944
vn -0.176563 0.899819 0.398938
vn -0.078558 0.991284 0.105758
vn 0.057985 0.953133 0.296944
vn -0.078558 0.991284 0.105758
vn 0.083818 0.990771 0.106524
vn 0.035681 0.998726 -0.035681
vn 0.000000 1.000000 0.000000
vn 0.000000 1.000000 0.000000
vn 0.051521 0.900517 -0.431758
vn 0.409101 0.838534 -0.359857
vn 0.536404 0.773292 -0.338067
vn -0.516141 0.854768 -0.054499
vn -0.677698 0.671025 -0.300751
vn -0.690853 0.676289 -0.255649
vn -0.516141 0.854768 -0.054499
vn -0.690853 0.676289 -0.255649
vn -0.503456 0.845278 -0.178988
vn -0.069368 0.996265 0.051418
vn -0.044958 0.998083 -0.042525
vn -0.108621 0.993171 -0.042575
f 1/1/1 2/2/2 7/3/3
f 1/4/4 7/5/5 6/6/6
f 7/7/7 2/8/8 3/9/9
f 7/10/10 3/11/11 8/12/12
f 26/13/13 31/14/14 35/15/15
f 31/16/16 26/17/17 9/18/18
f 32/19/19 12/20/20 11/21/21
f 33/22/22 34/23/23 7/24/24
f 11/25/25 12/26/26 13/27/27
f 28/28/28 17/29/29 13/30/30
f 28/31/31 27/32/32 19/33/33
f 14/34/34 15/35/35 20/36/36
f 14/37/37 20/38/38 41/39/39
f 16/40/40 17/41/41 22/42/42
f 16/43/43 22/44/44 21/45/45
f 42/46/46 17/47/47 28/48/48
f 38/49/49 24/50/50 23/51/51
f 38/52/52 23/53/53 42/54/54
f 25/55/55 24/56/56 38/57/57
f 25/58/58 38/59/59 36/60/60
f 9/61/61 37/62/62 31/63/63
f 10/64/64 15/65/65 9/66/66
f 26/67/67 5/68/68 10/69/69
f 4/70/70 5/71/71 26/72/72
f 35/73/73 30/74/74 8/75/75
f 3/76/76 4/77/77 35/78/78
f 8/79/79 30/80/80 18/81/81
f 32/82/82 7/83/83 34/84/84
f 36/85/85 38/86/86 19/87/87
f 29/88/88 19/89/89 27/90/90
f 29/91/91 27/92/92 41/93/93
f 19/94/94 29/95/95 36/96/96
f 41/97/97 27/98/98 39/99/99
f 41/100/100 20/101/101 29/102/102
f 39/103/103 14/104/104 41/105/105
f 14/106/106 39/107/107 40/108/108
f 9/109/109 15/110/110 14/111/111
f 9/112/112 14/113/113 37/114/114
f 26/115/115 10/116/116 9/117/117
f 42/118/118 19/119/119 38/120/120
f 42/121/121 23/122/122 22/123/123
f 42/124/124 22/125/125 17/126/126
f 42/127/127 28/128/128 19/129/129
f 11/130/130 6/131/131 7/132/132
f 11/133/133 7/134/134 32/135/135
f 8/136/136 3/137/137 35/138/138
f 35/139/139 31/140/140 30/141/141
f 36/142/142 29/143/143 20/144/144
f 36/145/145 20/146/146 25/147/147
f 17/148/148 16/149/149 11/150/150
f 11/151/151 13/152/152 17/153/153
f 7/154/154 8/155/155 18/156/156
f 7/157/157 18/158/158 33/159/159
f 26/160/160 35/161/161 4/162/162
