v -0.000001 0.000000 -8.000000
v -8.000001 0.000000 -8.000000
v -16.000000 0.000000 -8.000000
v -24.021959 0.000000 0.000000
v 0.000000 0.000000 8.027409
v -8.000002 0.000000 8.000000
v -16.000002 0.000000 8.000000
v -24.000000 0.000000 -6.000000
v -24.000002 0.000000 6.000000
v -20.000002 0.000000 8.000000
v -22.000002 0.000000 8.000000
v -20.000000 0.000000 -8.000000
v -22.000000 0.000000 -8.000000
v -19.000002 8.000000 4.000000
v -20.000002 8.000000 3.000000
v -20.000002 8.000000 -3.000000
v -19.000000 8.000000 -4.000000
v -12.000002 8.000000 -1.000000
v -18.000000 8.000000 -4.000000
v -18.000002 8.000000 4.000000
v 11.999998 8.000000 1.000000
v -12.000002 8.000000 1.000000
v 18.000000 8.000000 4.000000
v 7.999998 0.000000 -7.999998
v 15.999998 0.000000 -7.999998
v 24.000000 0.000000 0.000000
v 12.823872 1.954692 7.022655
v 15.999998 0.000000 8.000000
v 24.000000 0.000000 -5.999998
v 24.000000 0.000000 6.000000
v 20.000000 0.000000 8.000000
v 22.000000 0.000000 8.000000
v 20.000000 0.000000 -7.999998
v 22.000000 0.000000 -7.999998
v 19.000000 8.000000 4.000000
v 20.000000 8.000000 3.000000
v 20.000000 8.000000 -2.999998
v 19.000000 8.000000 -3.999998
v 11.999998 8.000000 -0.999998
v 18.000000 8.000000 -3.999998
v -19.962629 5.432991 -5.283504
v -18.888191 4.447236 -5.776382
v 18.613098 5.547600 -5.226198
v 20.789036 3.229234 -6.385382
v 23.121231 1.757537 -5.340921
v 20.572231 6.855537 3.429173
v 19.674202 6.202130 4.898933
v 19.019314 3.922746 6.038628
v -18.578403 5.686395 5.156803
v -20.142826 4.952467 5.523766
v -21.840767 4.318468 4.380573
v 6.004625 0.000000 8.000000
v -0.124218 1.420038 7.289982
v -6.509935 2.896329 6.551838
v 8.073017 2.100650 6.949677
v -7.123843 4.687982 5.656010
v -11.802481 8.000000 4.000000
v -9.444597 8.000000 1.000000
v -2.787633 5.128954 1.000000
v -1.148361 5.128954 -1.000000
v 4.602533 8.000000 1.000000
v 8.278076 8.000000 4.000000
v 8.167553 4.820342 5.589828
v -0.058213 5.128954 1.000000
v -2.015533 5.128954 -4.000000
v 4.200502 8.000000 -4.000000
v -1.694035 5.128954 -2.887768
v 6.920555 2.272815 -6.863590
v -0.660103 5.128954 -4.000000
v 1.765614 2.076465 -6.961767
v -7.639037 5.923864 -5.038069
v -1.689237 3.833823 -4.647566
v -8.795410 8.000000 -4.000000
v -9.134972 8.000000 -1.000000
v 3.155468 8.018301 -1.000000
v 4.247086 7.781043 1.000000
v 2.214495 7.306223 -1.000000
v 3.777977 7.750424 -4.000000
v -9.062118 7.835042 1.000000
v -8.131082 8.060536 -1.000000
v -8.010612 7.667665 -4.000000
vt 0.000000 0.000000
vt 0.000000 0.000000
vt 0.000000 0.000000
vt 0.000000 0.000000
vt 0.000000 0.000000
vt 0.000000 0.000000
vt 0.000000 0.000000
vt 0.000000 0.000000
vt 0.000000 0.000000
vt 0.000000 0.000000
vt 0.000000 0.000000
vt 0.000000 0.000000
vt 0.000000 0.000000
vt 0.000000 0.000000
vt 0.000000 0.000000
vt 0.000000 0.000000
vt 0.000000 0.000000
vt 0.000000 0.000000
vt 0.000000 0.000000
vt 0.000000 0.000000
vt 0.000000 0.000000
vt 0.000000 0.000000
vt 0.000000 0.000000
vt 0.000000 0.000000
vt 0.000000 0.000000
vt 0.000000 0.000000
vt 0.000000 0.000000
vt 0.000000 0.000000
vt 0.000000 0.000000
vt 0.000000 0.000000
vt 0.000000 0.000000
vt 0.000000 0.000000
vt 0.000000 0.000000
vt 0.000000 0.000000
vt 0.000000 0.000000
vt 0.000000 0.000000
vt 0.000000 0.000000
vt 0.000000 0.000000
vt 0.000000 0.000000
vt 0.000000 0.000000
vt 0.000000 0.000000
vt 0.000000 0.000000
vt 0.000000 0.000000
vt 0.000000 0.000000
vt 0.000000 0.000000
vt 0.000000 0.000000
vt 0.000000 0.000000
vt 0.000000 0.000000
vt 0.000000 0.000000
vt 0.000000 0.000000
vt 0.000000 0.000000
vt 0.000000 0.000000
vt 0.000000 0.000000
vt 0.000000 0.000000
vt 0.000000 0.000000
vt 0.000000 0.000000
vt 0.000000 0.000000
vt 0.000000 0.000000
vt 0.000000 0.000000
vt 0.000000 0.000000
vt 0.000000 0.000000
vt 0.000000 0.000000
vt 0.000000 0.000000
vt 0.000000 0.000000
vt 0.000000 0.000000
vt 0.000000 0.000000
vt 0.000000 0.000000
vt 0.000000 0.000000
vt 0.000000 0.000000
vt 0.000000 0.000000
vt 0.000000 0.000000
vt 0.000000 0.000000
vt 0.000000 0.000000
vt 0.000000 0.000000
vt 0.000000 0.000000
vt 0.000000 0.000000
vt 0.000000 0.000000
vt 0.000000 0.000000
vt 0.000000 0.000000
vt 0.000000 0.000000
vt 0.000000 0.000000
vt 0.000000 0.000000
vt 0.000000 0.000000
vt 0.000000 0.000000
vt 0.000000 0.000000
vt 0.000000 0.000000
vt 0.000000 0.000000
vt 0.000000 0.000000
vt 0.000000 0.000000
vt 0.000000 0.000000
vt 0.000000 0.000000
vt 0.000000 0.000000
vt 0.000000 0.000000
vt 0.000000 0.000000
vt 0.000000 0.000000
vt 0.000000 0.000000
vt 0.000000 0.000000
vt 0.000000 0.000000
vt 0.000000 0.000000
vt 0.000000 0.000000
vt 0.000000 0.000000
vt 0.000000 0.000000
vt 0.000000 0.000000
vt 0.000000 0.000000
vt 0.000000 0.000000
vt 0.000000 0.000000
vt 0.000000 0.000000
vt 0.000000 0.000000
vt 0.000000 0.000000
vt 0.000000 0.000000
vt 0.000000 0.000000
vt 0.000000 0.000000
vt 0.000000 0.000000
vt 0.000000 0.000000
vt 0.000000 0.000000
vt 0.000000 0.000000
vt 0.000000 0.000000
vt 0.000000 0.000000
vt 0.000000 0.000000
vt 0.000000 0.000000
vt 0.000000 0.000000
vt 0.000000 0.000000
vt 0.000000 0.000000
vt 0.000000 0.000000
vt 0.000000 0.000000
vt 0.000000 0.000000
vt 0.000000 0.000000
vt 0.000000 0.000000
vt 0.000000 0.000000
vt 0.000000 0.000000
vt 0.000000 0.000000
vt 0.000000 0.000000
vt 0.000000 0.000000
vt 0.000000 0.000000
vt 0.000000 0.000000
vt 0.000000 0.000000
vt 0.000000 0.000000
vt 0.000000 0.000000
vt 0.000000 0.000000
vt 0.000000 0.000000
vt 0.000000 0.000000
vt 0.000000 0.000000
vt 0.000000 0.000000
vt 0.000000 0.000000
vt 0.000000 0.000000
vt 0.000000 0.000000
vt 0.000000 0.000000
vt 0.000000 0.000000
vt 0.000000 0.000000
vt 0.000000 0.000000
vt 0.000000 0.000000
vt 0.000000 0.000000
vt 0.000000 0.000000
vt 0.000000 0.000000
vt 0.000000 0.000000
vt 0.000000 0.000000
vt 0.000000 0.000000
vt 0.000000 0.000000
vt 0.000000 0.000000
vt 0.000000 0.000000
vt 0.000000 0.000000
vt 0.000000 0.000000
vt 0.000000 0.000000
vt 0.000000 0.000000
vt 0.000000 0.000000
vt 0.000000 0.000000
vt 0.000000 0.000000
vt 0.000000 0.000000
vt 0.000000 0.000000
vt 0.000000 0.000000
vt 0.000000 0.000000
vt 0.000000 0.000000
vt 0.000000 0.000000
vt 0.000000 0.000000
vt 0.000000 0.000000
vt 0.000000 0.000000
vt 0.000000 0.000000
vt 0.000000 0.000000
vt 0.000000 0.000000
vt 0.000000 0.000000
vt 0.000000 0.000000
vt 0.000000 0.000000
vt 0.000000 0.000000
vt 0.000000 0.000000
vt 0.000000 0.000000
vt 0.000000 0.000000
vt 0.000000 0.000000
vt 0.000000 0.000000
vt 0.000000 0.000000
vt 0.000000 0.000000
vt 0.000000 0.000000
vt 0.000000 0.000000
vt 0.000000 0.000000
vt 0.000000 0.000000
vt 0.000000 0.000000
vt 0.000000 0.000000
vt 0.000000 0.000000
vt 0.000000 0.000000
vt 0.000000 0.000000
vt 0.000000 0.000000
vt 0.000000 0.000000
vt 0.000000 0.000000
vt 0.000000 0.000000
vt 0.000000 0.000000
vt 0.000000 0.000000
vt 0.000000 0.000000
vt 0.000000 0.000000
vt 0.000000 0.000000
vt 0.000000 0.000000
vt 0.000000 0.000000
vt 0.000000 0.000000
vt 0.000000 0.000000
vt 0.000000 0.000000
vt 0.000000 0.000000
vt 0.000000 0.000000
vt 0.000000 0.000000
vt 0.000000 0.000000
vt 0.000000 0.000000
vt 0.000000 0.000000
vt 0.000000 0.000000
vt 0.000000 0.000000
vt 0.000000 0.000000
vt 0.000000 0.000000
vt 0.000000 0.000000
vt 0.000000 0.000000
vt 0.000000 0.000000
vt 0.000000 0.000000
vt 0.000000 0.000000
vt 0.000000 0.000000
vt 0.000000 0.000000
vt 0.000000 0.000000
vt 0.000000 0.000000
vt 0.000000 0.000000
vt 0.000000 0.000000
vt 0.000000 0.000000
vt 0.000000 0.000000
vt 0.000000 0.000000
vt 0.000000 0.000000
vt 0.000000 0.000000
vt 0.000000 0.000000
vt 0.000000 0.000000
vt 0.000000 0.000000
vt 0.000000 0.000000
vt 0.000000 0.000000
vt 0.000000 0.000000
vt 0.000000 0.000000
vt 0.000000 0.000000
vt 0.000000 0.000000
vt 0.000000 0.000000
vt 0.000000 0.000000
vt 0.000000 0.000000
vt 0.000000 0.000000
vt 0.000000 0.000000
vt 0.000000 0.000000
vt 0.000000 0.000000
vt 0.000000 0.000000
vt 0.000000 0.000000
vt 0.000000 0.000000
vt 0.000000 0.000000
vt 0.000000 0.000000
vt 0.000000 0.000000
vt 0.000000 0.000000
vt 0.000000 0.000000
vt 0.000000 0.000000
vt 0.000000 0.000000
vt 0.000000 0.000000
vt 0.000000 0.000000
vn -0.113860 -0.494315 0.861794
vn -0.117175 -0.234351 0.965065
vn 0.000000 -0.447214 0.894427
vn -0.113860 -0.494315 0.861794
vn 0.000000 -0.447214 0.894427
vn -0.113697 -0.488675 0.865026
vn 0.506121 -0.856739 -0.099196
vn 0.506121 -0.856739 -0.099196
vn 0.482175 -0.869534 0.106853
vn 0.506121 -0.856739 -0.099196
vn 0.482175 -0.869534 0.106853
vn 0.482175 -0.869534 0.106853
vn 0.506121 -0.856739 -0.099196
vn 0.482175 -0.869534 0.106853
vn 0.482175 -0.869534 0.106853
vn -0.000000 -0.447214 -0.894427
vn -0.000000 -0.447214 -0.894427
vn 0.000000 -0.447214 -0.894427
vn -0.000000 -0.447214 -0.894427
vn 0.000000 -0.447214 -0.894427
vn 0.000000 -0.447214 -0.894427
vn -0.000000 -0.447214 -0.894427
vn 0.000000 -0.447214 -0.894427
vn 0.000000 -0.447214 -0.894427
vn -0.000000 -0.447214 -0.894427
vn 0.000000 -0.447214 -0.894427
vn -0.000000 -0.447214 -0.894427
vn 0.508205 -0.806939 -0.300960
vn 0.508205 -0.806939 -0.300960
vn 0.506121 -0.856739 -0.099196
vn 0.508205 -0.806939 -0.300960
vn 0.506121 -0.856739 -0.099196
vn 0.506121 -0.856739 -0.099196
vn -0.386143 -0.916090 0.108040
vn -0.386143 -0.916090 0.108040
vn -0.386143 -0.916090 0.108040
vn -0.386143 -0.916090 0.108040
vn -0.386143 -0.916090 0.108040
vn -0.388160 -0.916887 -0.093000
vn -0.386143 -0.916090 0.108040
vn -0.388160 -0.916887 -0.093000
vn -0.388160 -0.916887 -0.093000
vn -0.388160 -0.916887 -0.093000
vn -0.388160 -0.916887 -0.093000
vn -0.374488 -0.880623 -0.290281
vn -0.388160 -0.916887 -0.093000
vn -0.374488 -0.880623 -0.290281
vn -0.374488 -0.880623 -0.290281
vn -0.000000 -1.000000 -0.000000
vn -0.000000 -1.000000 -0.000000
vn -0.000000 -1.000000 -0.000000
vn -0.000000 -1.000000 -0.000000
vn -0.000000 -1.000000 -0.000000
vn -0.000000 -1.000000 -0.000000
vn -0.000967 -0.999999 -0.001033
vn -0.000967 -0.999999 -0.001033
vn -0.000563 -0.999998 -0.002084
vn -0.000967 -0.999999 -0.001033
vn -0.000563 -0.999998 -0.002084
vn -0.000563 -0.999998 -0.002084
vn -0.000000 -0.447214 0.894427
vn -0.000000 -0.447214 0.894427
vn -0.000000 -0.447214 0.894427
vn -0.000000 -0.447214 0.894427
vn -0.000000 -0.447214 0.894427
vn -0.000000 -0.447214 0.894427
vn -0.000000 -0.447214 0.894427
vn -0.000000 -0.447214 0.894427
vn -0.000000 -0.447214 0.894427
vn -0.000000 -0.447214 0.894427
vn -0.000000 -0.447214 0.894427
vn -0.000000 -0.447214 0.894427
vn -0.113697 -0.488675 0.865026
vn -0.225373 -0.511647 0.829111
vn -0.225373 -0.511647 0.829111
vn -0.113697 -0.488675 0.865026
vn -0.225373 -0.511647 0.829111
vn -0.225373 -0.511647 0.829111
vn 0.000000 -0.447213 -0.894427
vn 0.000000 -0.447214 -0.894427
vn 0.000000 -0.447214 -0.894427
vn 0.000000 -0.447213 -0.894427
vn 0.000000 -0.447214 -0.894427
vn 0.000000 -0.447214 -0.894427
vn 0.000000 -0.447213 -0.894427
vn 0.000000 -0.447214 -0.894427
vn 0.000000 -0.447214 -0.894427
vn 0.000000 -0.447213 -0.894427
vn 0.000000 -0.447214 -0.894427
vn 0.000000 -0.447214 -0.894427
vn 0.000000 -0.447213 -0.894427
vn 0.000000 -0.447214 -0.894427
vn 0.000000 -0.447213 -0.894427
vn -0.000000 -0.447214 0.894427
vn -0.000000 -0.447214 0.894427
vn -0.000000 -0.447214 0.894427
vn -0.000000 -0.447214 0.894427
vn -0.000000 -0.447214 0.894427
vn -0.000000 -0.447214 0.894427
vn 0.000000 -0.447213 -0.894427
vn 0.000000 -0.447213 -0.894427
vn 0.000000 -0.447213 -0.894427
vn 0.000000 -0.447213 -0.894427
vn 0.000000 -0.447213 -0.894427
vn 0.000000 -0.447213 -0.894427
vn -0.000000 -0.447214 -0.894427
vn 0.000125 -0.447767 -0.894150
vn 0.000083 -0.447583 -0.894243
vn -0.000000 -0.447214 -0.894427
vn 0.000083 -0.447583 -0.894243
vn -0.117175 -0.234351 -0.965065
vn -0.000000 -0.447214 -0.894427
vn -0.117175 -0.234351 -0.965065
vn -0.000000 -0.447214 -0.894427
vn 0.000125 -0.447767 -0.894150
vn 0.000250 -0.448320 -0.893873
vn 0.000250 -0.448320 -0.893873
vn 0.000125 -0.447767 -0.894150
vn 0.000250 -0.448320 -0.893873
vn 0.000250 -0.448320 -0.893873
vn 0.000125 -0.447767 -0.894150
vn 0.000250 -0.448320 -0.893873
vn 0.000250 -0.448320 -0.893873
vn 0.000125 -0.447767 -0.894150
vn 0.000250 -0.448320 -0.893873
vn 0.000125 -0.447767 -0.894150
vn 0.000125 -0.447767 -0.894150
vn 0.000125 -0.447767 -0.894150
vn 0.000083 -0.447583 -0.894243
vn -0.894427 -0.447214 -0.000000
vn -0.894427 -0.447214 -0.000000
vn -0.894427 -0.447214 -0.000000
vn -0.894427 -0.447214 -0.000000
vn -0.894427 -0.447214 -0.000000
vn -0.894427 -0.447214 -0.000000
vn -0.894427 -0.447214 -0.000000
vn -0.894427 -0.447214 -0.000000
vn -0.894427 -0.447214 -0.000000
vn -0.894427 -0.447214 -0.000000
vn -0.894427 -0.447214 -0.000000
vn -0.894427 -0.447214 -0.000000
vn -0.894427 -0.447214 -0.000000
vn -0.894427 -0.447214 -0.000000
vn -0.894427 -0.447214 -0.000000
vn 0.601317 -0.526152 -0.601317
vn 0.601317 -0.526152 -0.601317
vn 0.601317 -0.526152 -0.601317
vn 0.601317 -0.526152 -0.601317
vn 0.601317 -0.526152 -0.601317
vn 0.601317 -0.526152 -0.601317
vn 0.601317 -0.526152 -0.601317
vn 0.601317 -0.526152 -0.601317
vn 0.601317 -0.526152 -0.601317
vn 0.601317 -0.526152 -0.601317
vn 0.601317 -0.526152 -0.601317
vn 0.601317 -0.526152 -0.601317
vn 0.601317 -0.526152 0.601317
vn 0.601317 -0.526152 0.601317
vn 0.601317 -0.526152 0.601317
vn 0.601317 -0.526152 0.601317
vn 0.601317 -0.526152 0.601317
vn 0.601317 -0.526152 0.601317
vn 0.601317 -0.526152 0.601317
vn 0.601317 -0.526152 0.601317
vn 0.601317 -0.526152 0.601317
vn -0.000808 -0.999997 0.002101
vn -0.000808 -0.999997 0.002101
vn -0.000967 -0.999999 -0.001033
vn -0.000808 -0.999997 0.002101
vn -0.000967 -0.999999 -0.001033
vn -0.000967 -0.999999 -0.001033
vn 0.000000 -0.447214 0.894427
vn -0.117175 -0.234351 0.965065
vn -0.000000 -0.229753 0.973249
vn 0.000000 -0.447214 0.894427
vn -0.000000 -0.229753 0.973249
vn -0.000000 -0.447214 0.894427
vn 0.000000 -0.447214 0.894427
vn -0.000000 -0.447214 0.894427
vn -0.000000 -0.447214 0.894427
vn 0.000000 -0.447214 0.894427
vn -0.000000 -0.447214 0.894427
vn 0.000000 -0.447214 0.894427
vn -0.000000 -0.447214 -0.894427
vn -0.000000 -0.229753 -0.973249
vn -0.117175 -0.234351 -0.965065
vn -0.000000 -0.447214 -0.894427
vn -0.117175 -0.234351 -0.965065
vn 0.000083 -0.447583 -0.894243
vn -0.000000 -0.447214 -0.894427
vn 0.000083 -0.447583 -0.894243
vn 0.000125 -0.447767 -0.894150
vn -0.000000 -0.447214 -0.894427
vn 0.000125 -0.447767 -0.894150
vn -0.000000 -0.447214 -0.894427
vn 0.973081 -0.230465 0.000000
vn 0.973081 -0.230465 0.000000
vn 0.893772 -0.448521 0.000000
vn 0.973081 -0.230465 0.000000
vn 0.893772 -0.448521 0.000000
vn 0.893772 -0.448521 0.000000
vn 0.973081 -0.230465 0.000000
vn 0.893772 -0.448521 0.000000
vn 0.893772 -0.448521 0.000000
vn 0.973081 -0.230465 0.000000
vn 0.893772 -0.448521 0.000000
vn 0.893772 -0.448521 0.000000
vn -0.000000 -1.000000 -0.000000
vn -0.000000 -1.000000 -0.000000
vn -0.000000 -1.000000 -0.000000
vn -0.000000 -1.000000 -0.000000
vn -0.000000 -1.000000 -0.000000
vn -0.000000 -1.000000 -0.000000
vn -0.000563 -0.999998 -0.002084
vn -0.000563 -0.999998 -0.002084
vn -0.000000 -1.000000 -0.000000
vn -0.000563 -0.999998 -0.002084
vn -0.000000 -1.000000 -0.000000
vn -0.000000 -1.000000 -0.000000
vn -0.601317 -0.526152 0.601317
vn -0.601317 -0.526152 0.601317
vn -0.601317 -0.526152 0.601317
vn -0.601317 -0.526152 0.601317
vn -0.601317 -0.526152 0.601317
vn -0.601317 -0.526152 0.601317
vn -0.601317 -0.526152 0.601317
vn -0.601317 -0.526152 0.601317
vn -0.601317 -0.526152 0.601317
vn -0.601317 -0.526152 0.601317
vn -0.601317 -0.526152 0.601317
vn -0.601317 -0.526152 0.601317
vn -0.000000 -0.447214 0.894427
vn -0.000000 -0.447214 0.894427
vn -0.000000 -0.447214 0.894427
vn -0.000000 -0.447214 0.894427
vn -0.000000 -0.447214 0.894427
vn -0.000000 -0.447214 0.894427
vn -0.000000 -0.447214 0.894427
vn -0.000000 -0.447214 0.894427
vn -0.000000 -0.447214 0.894427
vn -0.000000 -0.447214 0.894427
vn -0.000000 -0.447214 0.894427
vn -0.000000 -0.447214 0.894427
vn -0.000000 -0.447214 0.894427
vn -0.000000 -0.447214 0.894427
vn -0.000000 -0.447214 0.894427
vn -0.601317 -0.526152 -0.601317
vn -0.601317 -0.526152 -0.601317
vn -0.601317 -0.526152 -0.601317
vn -0.601317 -0.526152 -0.601317
vn -0.601317 -0.526152 -0.601317
vn -0.601317 -0.526152 -0.601317
vn -0.601317 -0.526152 -0.601317
vn -0.601317 -0.526152 -0.601317
vn -0.601317 -0.526152 -0.601317
vn -0.601317 -0.526152 -0.601317
vn -0.601317 -0.526152 -0.601317
vn -0.601317 -0.526152 -0.601317
vn -0.113697 -0.488675 0.865026
vn 0.000000 -0.447214 0.894427
vn 0.000000 -0.447214 0.894427
vn -0.113697 -0.488675 0.865026
vn 0.000000 -0.447214 0.894427
vn 0.000000 -0.447214 0.894427
vn -0.113697 -0.488675 0.865026
vn 0.000000 -0.447214 0.894427
vn 0.000000 -0.447214 0.894427
f 73/1/1 19/2/2 42/3/3
f 73/4/4 42/5/5 71/6/6
f 77/7/7 60/8/8 67/9/9
f 77/10/10 67/11/11 69/12/12
f 77/13/13 69/14/14 78/15/15
f 47/16/16 32/17/17 31/18/18
f 47/19/19 31/20/20 48/21/21
f 47/22/22 48/23/23 23/24/24
f 47/25/25 23/26/26 35/27/27
f 76/28/28 64/29/29 60/30/30
f 76/31/31 60/32/32 77/33/33
f 81/34/34 65/35/35 67/36/36
f 81/37/37 67/38/38 60/39/39
f 81/40/40 60/41/41 80/42/42
f 80/43/43 60/44/44 59/45/45
f 80/46/46 59/47/47 79/48/48
f 74/49/49 18/50/50 19/51/51
f 74/52/52 19/53/53 73/54/54
f 75/55/55 39/56/56 21/57/57
f 75/58/58 21/59/59 61/60/60
f 43/61/61 33/62/62 34/63/63
f 43/64/64 34/65/65 44/66/66
f 43/67/67 44/68/68 38/69/69
f 43/70/70 38/71/71 40/72/72
f 71/73/73 72/74/74 65/75/75
f 71/76/76 65/77/77 81/78/78
f 27/79/79 63/80/80 62/81/81
f 27/82/82 62/83/83 23/84/84
f 27/85/85 23/86/86 48/87/87
f 27/88/88 48/89/89 31/90/90
f 27/91/91 31/92/92 28/93/93
f 1/94/94 24/95/95 68/96/96
f 1/97/97 68/98/98 70/99/99
f 55/100/100 27/101/101 28/102/102
f 55/103/103 28/104/104 52/105/105
f 56/106/106 54/107/107 49/108/108
f 56/109/109 49/110/110 20/111/111
f 56/112/112 20/113/113 57/114/114
f 54/115/115 53/116/116 5/117/117
f 54/118/118 5/119/119 6/120/120
f 54/121/121 6/122/122 7/123/123
f 54/124/124 7/125/125 10/126/126
f 54/127/127 10/128/128 49/129/129
f 45/130/130 29/131/131 26/132/132
f 45/133/133 26/134/134 30/135/135
f 45/136/136 30/137/137 46/138/138
f 45/139/139 46/140/140 36/141/141
f 45/142/142 36/143/143 37/144/144
f 51/145/145 15/146/146 14/147/147
f 51/148/148 14/149/149 50/150/150
f 51/151/151 50/152/152 11/153/153
f 51/154/154 11/155/155 9/156/156
f 41/157/157 17/158/158 16/159/159
f 41/160/160 16/161/161 8/162/162
f 41/163/163 8/164/164 13/165/165
f 66/166/166 40/167/167 39/168/168
f 66/169/169 39/170/170 75/171/171
f 42/172/172 19/173/173 17/174/174
f 42/175/175 17/176/176 41/177/177
f 42/178/178 41/179/179 13/180/180
f 42/181/181 13/182/182 12/183/183
f 50/184/184 14/185/185 20/186/186
f 50/187/187 20/188/188 49/189/189
f 50/190/190 49/191/191 10/192/192
f 50/193/193 10/194/194 11/195/195
f 16/196/196 15/197/197 51/198/198
f 16/199/199 51/200/200 9/201/201
f 16/202/202 9/203/203 4/204/204
f 16/205/205 4/206/206 8/207/207
f 58/208/208 22/209/209 18/210/210
f 58/211/211 18/212/212 74/213/213
f 61/214/214 21/215/215 23/216/216
f 61/217/217 23/218/218 62/219/219
f 44/220/220 34/221/221 29/222/222
f 44/223/223 29/224/224 45/225/225
f 44/226/226 45/227/227 37/228/228
f 44/229/229 37/230/230 38/231/231
f 68/232/232 24/233/233 25/234/234
f 68/235/235 25/236/236 33/237/237
f 68/238/238 33/239/239 43/240/240
f 68/241/241 43/242/242 40/243/243
f 68/244/244 40/245/245 66/246/246
f 46/247/247 30/248/248 32/249/249
f 46/250/250 32/251/251 47/252/252
f 46/253/253 47/254/254 35/255/255
f 46/256/256 35/257/257 36/258/258
f 71/259/259 42/260/260 12/261/261
f 71/262/262 12/263/263 3/264/264
f 71/265/265 3/266/266 2/267/267
