v -2.000000 0.000000 2.000000
v 2.000000 0.000000 2.000000
v 0.000000 0.000000 -8.000000
v -6.000000 0.000000 2.000000
v -2.000000 8.000000 2.000000
v 2.000000 8.000000 2.000000
v 6.000000 0.000000 2.000000
v 4.000000 8.000000 0.000000
v -8.000000 0.000000 0.000000
v -4.000000 8.000000 0.000000
v 8.000000 0.000000 0.000000
v -2.000000 0.000000 -2.000000
v 2.000000 0.000000 -2.000000
v 0.000000 0.000000 8.000000
v -6.000000 0.000000 -2.000000
v -2.000000 8.000000 -2.000000
v 2.000000 8.000000 -2.000000
v 6.000000 0.000000 -2.000000
v 2.000000 8.000000 -8.000000
v -2.000000 8.000000 -8.000000
v 2.000000 8.000000 8.000000
v -2.000000 8.000000 8.000000
vt 0.000000 0.000000
vt 0.000000 0.000000
vt 0.000000 0.000000
vt 0.000000 0.000000
vt 0.000000 0.000000
vt 0.000000 0.000000
vt 0.000000 0.000000
vt 0.000000 0.000000
vt 0.000000 0.000000
vt 0.000000 0.000000
vt 0.000000 0.000000
vt 0.000000 0.000000
vt 0.000000 0.000000
vt 0.000000 0.000000
vt 0.000000 0.000000
vt 0.000000 0.000000
vt 0.000000 0.000000
vt 0.000000 0.000000
vt 0.000000 0.000000
vt 0.000000 0.000000
vt 0.000000 0.000000
vt 0.000000 0.000000
vt 0.000000 0.000000
vt 0.000000 0.000000
vt 0.000000 0.000000
vt 0.000000 0.000000
vt 0.000000 0.000000
vt 0.000000 0.000000
vt 0.000000 0.000000
vt 0.000000 0.000000
vt 0.000000 0.000000
vt 0.000000 0.000000
vt 0.000000 0.000000
vt 0.000000 0.000000
vt 0.000000 0.000000
vt 0.000000 0.000000
vt 0.000000 0.000000
vt 0.000000 0.000000
vt 0.000000 0.000000
vt 0.000000 0.000000
vt 0.000000 0.000000
vt 0.000000 0.000000
vt 0.000000 0.000000
vt 0.000000 0.000000
vt 0.000000 0.000000
vt 0.000000 0.000000
vt 0.000000 0.000000
vt 0.000000 0.000000
vt 0.000000 0.000000
vt 0.000000 0.000000
vt 0.000000 0.000000
vt 0.000000 0.000000
vt 0.000000 0.000000
vt 0.000000 0.000000
vt 0.000000 0.000000
vt 0.000000 0.000000
vt 0.000000 0.000000
vt 0.000000 0.000000
vt 0.000000 0.000000
vt 0.000000 0.000000
vt 0.000000 0.000000
vt 0.000000 0.000000
vt 0.000000 0.000000
vt 0.000000 0.000000
vt 0.000000 0.000000
vt 0.000000 0.000000
vt 0.000000 0.000000
vt 0.000000 0.000000
vt 0.000000 0.000000
vt 0.000000 0.000000
vt 0.000000 0.000000
vt 0.000000 0.000000
vt 0.000000 0.000000
vt 0.000000 0.000000
vt 0.000000 0.000000
vt 0.000000 0.000000
vt 0.000000 0.000000
vt 0.000000 0.000000
vt 0.000000 0.000000
vt 0.000000 0.000000
vt 0.000000 0.000000
vt 0.000000 0.000000
vt 0.000000 0.000000
vt 0.000000 0.000000
vt 0.000000 0.000000
vt 0.000000 0.000000
vt 0.000000 0.000000
vt 0.000000 0.000000
vt 0.000000 0.000000
vt 0.000000 0.000000
vn 0.980581 -0.117670 -0.156893
vn 0.980581 -0.117670 -0.156893
vn 0.923077 -0.230769 -0.307692
vn 1.000000 0.000000 0.000000
vn 0.980581 -0.117670 0.156893
vn 0.980581 -0.117670 0.156893
vn -0.666667 0.333333 0.666667
vn -0.666667 0.333333 0.666667
vn -0.666667 0.333333 0.666667
vn -0.666667 0.333333 0.666667
vn -0.666667 0.333333 0.666667
vn -0.666667 0.333333 0.666667
vn -0.980581 -0.117670 0.156893
vn -0.980581 -0.117670 0.156893
vn -1.000000 0.000000 0.000000
vn 0.000000 0.000000 1.000000
vn 0.000000 0.000000 1.000000
vn 0.000000 0.000000 1.000000
vn -1.000000 0.000000 0.000000
vn -0.980581 -0.117670 -0.156893
vn -0.980581 -0.117670 -0.156893
vn 0.000000 0.000000 1.000000
vn 0.000000 0.000000 1.000000
vn 0.000000 0.000000 1.000000
vn 0.980581 -0.117670 -0.156893
vn 0.980581 -0.117670 -0.156893
vn 1.000000 0.000000 0.000000
vn 0.000000 0.000000 -1.000000
vn 0.000000 0.000000 -1.000000
vn 0.000000 0.000000 -1.000000
vn 0.666667 0.333333 0.666667
vn 0.666667 0.333333 0.666667
vn 0.666667 0.333333 0.666667
vn 0.666667 0.333333 0.666667
vn 0.666667 0.333333 0.666667
vn 0.666667 0.333333 0.666667
vn 0.000000 0.000000 -1.000000
vn 0.000000 0.000000 -1.000000
vn 0.000000 0.000000 -1.000000
vn 0.000000 1.000000 0.000000
vn 0.000000 1.000000 0.000000
vn 0.000000 1.000000 0.000000
vn 0.000000 1.000000 0.000000
vn 0.000000 1.000000 0.000000
vn 0.000000 1.000000 0.000000
vn -0.666667 0.333333 -0.666667
vn -0.666667 0.333333 -0.666667
vn -0.666667 0.333333 -0.666667
vn -0.666667 0.333333 -0.666667
vn -0.666667 0.333333 -0.666667
vn -0.666667 0.333333 -0.666667
vn 0.000000 0.000000 -1.000000
vn 0.000000 0.000000 -1.000000
vn 0.000000 0.000000 -1.000000
vn 0.000000 1.000000 0.000000
vn 0.000000 1.000000 0.000000
vn 0.000000 1.000000 0.000000
vn 0.000000 1.000000 0.000000
vn 0.000000 1.000000 0.000000
vn 0.000000 1.000000 0.000000
vn -0.980581 -0.117670 0.156893
vn -0.980581 -0.117670 0.156893
vn -0.923077 -0.230769 0.307692
vn 0.000000 0.000000 1.000000
vn 0.000000 0.000000 1.000000
vn 0.000000 0.000000 1.000000
vn -0.923077 -0.230769 -0.307692
vn -0.980581 -0.117670 -0.156893
vn -0.980581 -0.117670 -0.156893
vn 0.923077 -0.230769 0.307692
vn 0.980581 -0.117670 0.156893
vn 0.980581 -0.117670 0.156893
vn 0.666667 0.333333 -0.666667
vn 0.666667 0.333333 -0.666667
vn 0.666667 0.333333 -0.666667
vn 0.666667 0.333333 -0.666667
vn 0.666667 0.333333 -0.666667
vn 0.666667 0.333333 -0.666667
vn 0.000000 1.000000 0.000000
vn 0.000000 1.000000 0.000000
vn 0.000000 1.000000 0.000000
vn 0.000000 1.000000 0.000000
vn 0.000000 1.000000 0.000000
vn 0.000000 1.000000 0.000000
vn 0.000000 1.000000 0.000000
vn 0.000000 1.000000 0.000000
vn 0.000000 1.000000 0.000000
vn 0.000000 1.000000 0.000000
vn 0.000000 1.000000 0.000000
vn 0.000000 1.000000 0.000000
f 19/1/1 13/2/2 3/3/3
f 6/4/4 21/5/5 2/6/6
f 9/7/7 4/8/8 5/9/9
f 9/10/10 5/11/11 10/12/12
f 1/13/13 22/14/14 5/15/15
f 5/16/16 4/17/17 1/18/18
f 16/19/19 20/20/20 12/21/21
f 2/22/22 7/23/23 6/24/24
f 13/25/25 19/26/26 17/27/27
f 12/28/28 15/29/29 16/30/30
f 8/31/31 6/32/32 7/33/33
f 8/34/34 7/35/35 11/36/36
f 17/37/37 18/38/38 13/39/39
f 6/40/40 5/41/41 22/42/42
f 6/43/43 22/44/44 21/45/45
f 10/46/46 16/47/47 15/48/48
f 10/49/49 15/50/50 9/51/51
f 20/52/52 19/53/53 3/54/54
f 17/55/55 19/56/56 20/57/57
f 17/58/58 20/59/59 16/60/60
f 22/61/61 1/62/62 14/63/63
f 14/64/64 21/65/65 22/66/66
f 3/67/67 12/68/68 20/69/69
f 14/70/70 2/71/71 21/72/72
f 11/73/73 18/74/74 17/75/75
f 11/76/76 17/77/77 8/78/78
f 5/79/79 6/80/80 8/81/81
f 5/82/82 8/83/83 17/84/84
f 5/85/85 17/86/86 16/87/87
f 5/88/88 16/89/89 10/90/90
