v 0.811337 -0.141746 -0.585713
v 0.362160 1.712063 1.454836
v -1.372571 0.403419 -0.754219
v -1.618602 0.286057 0.064658
v -1.383990 0.582241 0.064919
v -1.380162 0.287480 1.716269
v 0.363795 0.579263 -1.370113
v -0.811337 -0.141746 -0.585713
v 0.363715 0.825666 -1.458865
v -0.810784 0.403419 -0.754218
v -0.810655 0.286057 0.064658
v -0.807350 0.582241 0.064919
v 0.363747 1.710992 1.062439
v 1.623314 -0.140111 2.558856
v -0.361843 1.074605 1.455679
v -0.363796 0.579260 -1.370113
v -0.365050 1.274272 0.470756
v -0.366167 -0.143354 0.065774
v -0.361720 -0.142414 1.716504
v 0.811311 -0.742783 0.063082
v 0.811293 -0.741843 1.716504
v -0.810384 -0.140141 2.570918
v -0.811293 -0.741843 1.716504
v 1.389991 0.403419 -0.754219
v 1.618602 0.286057 0.064658
v 1.401409 0.582241 0.064919
v 1.397581 0.287480 1.716269
v -0.363715 0.825663 -1.458865
v 0.810384 -0.140141 2.570918
v -0.807718 0.287480 1.716270
v 0.810784 0.403419 -0.754218
v 0.810655 0.286057 0.064658
v 0.807350 0.582241 0.064919
v 0.807718 0.287480 1.716270
v -0.362906 0.582666 1.281206
v -1.623314 -0.140111 2.558856
v 0.173498 1.418243 1.572739
v -0.173498 1.418243 1.572739
v 0.365050 1.274272 0.470756
v 0.366167 -0.143354 0.065774
v 0.361720 -0.142414 1.716504
v -0.362160 1.712063 1.454836
v -0.811311 -0.742783 0.063082
v -0.173465 1.074131 1.570900
v 0.173465 1.074131 1.570900
v 0.362906 0.582666 1.281206
v 0.361843 1.074605 1.455679
v -0.363747 1.710992 1.062439
v 0.363811 1.273589 -1.295321
v -0.363812 1.273584 -1.295321
vt 0.003483 0.692145
vt 0.003208 0.563891
vt 0.097293 0.563700
vt 0.901672 0.801981
vt 0.995730 0.801981
vt 0.995170 0.966910
vt 0.901672 0.801981
vt 0.995170 0.966910
vt 0.903535 0.966911
vt 0.995235 0.297410
vt 0.995670 0.469489
vt 0.900343 0.469489
vt 0.995235 0.297410
vt 0.900343 0.469489
vt 0.900721 0.297885
vt 0.251327 0.378131
vt 0.250308 0.378066
vt 0.250269 0.174860
vt 0.289276 0.056741
vt 0.289225 0.020564
vt 0.320150 0.020564
vt 0.289276 0.056741
vt 0.320150 0.020564
vt 0.320099 0.056741
vt 0.758810 0.784047
vt 0.721658 0.782094
vt 0.722200 0.995142
vt 0.758810 0.784047
vt 0.722200 0.995142
vt 0.756315 0.995142
vt 0.671348 0.682886
vt 0.688373 0.682677
vt 0.687559 0.602230
vt 0.671348 0.682886
vt 0.687559 0.602230
vt 0.682427 0.655931
vt 0.995730 0.801981
vt 0.901672 0.801981
vt 0.902296 0.469489
vt 0.995730 0.801981
vt 0.902296 0.469489
vt 0.995670 0.469489
vt 0.671348 0.682886
vt 0.688373 0.682677
vt 0.687559 0.602230
vt 0.097293 0.563700
vt 0.003208 0.563891
vt 0.003483 0.692145
vt 0.995730 0.801981
vt 0.901672 0.801981
vt 0.903535 0.966911
vt 0.995730 0.801981
vt 0.903535 0.966911
vt 0.995170 0.966910
vt 0.995235 0.297410
vt 0.900721 0.297885
vt 0.900343 0.469489
vt 0.995235 0.297410
vt 0.900343 0.469489
vt 0.995670 0.469489
vt 0.749731 0.174860
vt 0.749692 0.378066
vt 0.748673 0.378131
vt 0.671348 0.682886
vt 0.688373 0.682677
vt 0.687559 0.602230
vt 0.289276 0.056741
vt 0.289225 0.020564
vt 0.320150 0.020564
vt 0.289276 0.056741
vt 0.320150 0.020564
vt 0.320099 0.056741
vt 0.671348 0.682886
vt 0.688373 0.682677
vt 0.687559 0.602230
vt 0.671348 0.682886
vt 0.687559 0.602230
vt 0.682427 0.655931
vt 0.109931 0.265685
vt 0.109562 0.116307
vt 0.335751 0.116307
vt 0.109931 0.265685
vt 0.335751 0.116307
vt 0.335381 0.265685
vt 0.671348 0.682886
vt 0.688373 0.682677
vt 0.687559 0.602230
vt 0.671348 0.682886
vt 0.687559 0.602230
vt 0.682427 0.655931
vt 0.117537 0.831210
vt 0.117450 0.783729
vt 0.169974 0.783999
vt 0.117537 0.831210
vt 0.169974 0.783999
vt 0.170286 0.831062
vt 0.671348 0.682886
vt 0.688373 0.682677
vt 0.687559 0.602230
vt 0.671348 0.682886
vt 0.687559 0.602230
vt 0.671034 0.602538
vt 0.671348 0.682886
vt 0.688373 0.682677
vt 0.687559 0.602230
vt 0.289276 0.056741
vt 0.289225 0.020564
vt 0.320150 0.020564
vt 0.289276 0.056741
vt 0.320150 0.020564
vt 0.320099 0.056741
vt 0.001906 0.033943
vt 0.097233 0.231208
vt 0.097293 0.563700
vt 0.001906 0.033943
vt 0.097293 0.563700
vt 0.003235 0.563700
vt 0.068062 0.994144
vt 0.189692 0.994501
vt 0.189734 0.953588
vt 0.068062 0.994144
vt 0.189734 0.953588
vt 0.068189 0.953294
vt 0.671348 0.682886
vt 0.688373 0.682677
vt 0.687559 0.602230
vt 0.289276 0.056741
vt 0.289225 0.020564
vt 0.320150 0.020564
vt 0.289276 0.056741
vt 0.320150 0.020564
vt 0.320099 0.056741
vt 0.902296 0.469489
vt 0.901672 0.801981
vt 0.995730 0.801981
vt 0.902296 0.469489
vt 0.995730 0.801981
vt 0.995670 0.469489
vt 0.671348 0.682886
vt 0.688373 0.682677
vt 0.687559 0.602230
vt 0.097293 0.563700
vt 0.097233 0.231208
vt 0.001906 0.033943
vt 0.097293 0.563700
vt 0.001906 0.033943
vt 0.003235 0.563700
vt 0.671348 0.682886
vt 0.688373 0.682677
vt 0.687559 0.602230
vt 0.402800 0.995142
vt 0.403342 0.782094
vt 0.721658 0.782094
vt 0.402800 0.995142
vt 0.721658 0.782094
vt 0.722200 0.995142
vt 0.671348 0.682886
vt 0.688373 0.682677
vt 0.687559 0.602230
vt 0.671348 0.682886
vt 0.687559 0.602230
vt 0.671034 0.602538
vt 0.671348 0.682886
vt 0.688373 0.682677
vt 0.687559 0.602230
vt 0.289276 0.056741
vt 0.289225 0.020564
vt 0.320150 0.020564
vt 0.289276 0.056741
vt 0.289225 0.020564
vt 0.320150 0.020564
vt 0.820516 0.782661
vt 0.916625 0.838547
vt 0.917561 0.735257
vt 0.917561 0.735257
vt 0.916625 0.838547
vt 0.820516 0.782661
vt 0.671348 0.682886
vt 0.688373 0.682677
vt 0.687559 0.602230
vt 0.671348 0.682886
vt 0.688373 0.682677
vt 0.687559 0.602230
vt 0.289276 0.056741
vt 0.289225 0.020564
vt 0.320150 0.020564
vt 0.289276 0.056741
vt 0.320150 0.020564
vt 0.320099 0.056741
vt 0.289276 0.056741
vt 0.289225 0.020564
vt 0.320150 0.020564
vt 0.289276 0.056741
vt 0.320150 0.020564
vt 0.320099 0.056741
vt 0.289276 0.056741
vt 0.289225 0.020564
vt 0.320150 0.020564
vt 0.289276 0.056741
vt 0.289225 0.020564
vt 0.320150 0.020564
vt 0.671348 0.682886
vt 0.688373 0.682677
vt 0.687559 0.602230
vt 0.671348 0.682886
vt 0.688373 0.682677
vt 0.687559 0.602230
vt 0.671348 0.682886
vt 0.688373 0.682677
vt 0.687559 0.602230
vt 0.820516 0.782661
vt 0.916625 0.838547
vt 0.917561 0.735257
vt 0.917561 0.735257
vt 0.916625 0.838547
vt 0.820516 0.782661
vt 0.671348 0.682886
vt 0.688373 0.682677
vt 0.687559 0.602230
vt 0.671348 0.682886
vt 0.688373 0.682677
vt 0.687559 0.602230
vt 0.671348 0.682886
vt 0.688373 0.682677
vt 0.687559 0.602230
vt 0.671348 0.682886
vt 0.687559 0.602230
vt 0.671034 0.602538
vt 0.671348 0.682886
vt 0.688373 0.682677
vt 0.687559 0.602230
vt 0.671348 0.682886
vt 0.687559 0.602230
vt 0.671034 0.602538
vt 0.671348 0.682886
vt 0.688373 0.682677
vt 0.687559 0.602230
vt 0.671348 0.682886
vt 0.687559 0.602230
vt 0.682427 0.655931
vt 0.671348 0.682886
vt 0.688373 0.682677
vt 0.687559 0.602230
vt 0.671348 0.682886
vt 0.687559 0.602230
vt 0.671034 0.602538
vt 0.671348 0.682886
vt 0.813373 0.682677
vt 0.812559 0.602230
vt 0.671348 0.682886
vt 0.812559 0.602230
vt 0.671034 0.602538
vt 0.917561 0.735257
vt 0.916625 0.838547
vt 0.820516 0.782661
vt 0.820516 0.782661
vt 0.916625 0.838547
vt 0.917561 0.735257
vt 0.514736 0.432472
vt 0.514552 0.649452
vt 0.620604 0.649452
vt 0.514736 0.432472
vt 0.620604 0.649452
vt 0.620420 0.432472
vt 0.367982 0.789043
vt 0.243590 0.788989
vt 0.243497 0.879271
vt 0.367982 0.789043
vt 0.243497 0.879271
vt 0.367932 0.879433
vt 0.820516 0.782661
vt 0.917561 0.735257
vt 0.916625 0.838547
vt 0.916625 0.838547
vt 0.917561 0.735257
vt 0.820516 0.782661
vt 0.820516 0.782661
vt 0.916625 0.838547
vt 0.917561 0.735257
vt 0.917561 0.735257
vt 0.916625 0.838547
vt 0.820516 0.782661
vt 0.820516 0.782661
vt 0.917561 0.735257
vt 0.916625 0.838547
vt 0.916625 0.838547
vt 0.917561 0.735257
vt 0.820516 0.782661
vn -0.775534 0.614441 -0.144946
vn -0.777067 0.629171 -0.017610
vn -0.777067 0.629171 -0.017610
vn 0.000000 0.976991 -0.213282
vn 0.000000 0.976991 -0.213282
vn 0.000000 0.976991 -0.213282
vn 0.000000 0.976991 -0.213282
vn 0.000000 0.976991 -0.213282
vn 0.000000 0.976991 -0.213282
vn -0.003895 0.893255 0.449534
vn -0.001968 0.948779 0.315934
vn -0.001968 0.948779 0.315934
vn -0.003895 0.893255 0.449534
vn -0.001968 0.948779 0.315934
vn -0.003895 0.893255 0.449534
vn 0.999936 -0.011159 -0.001756
vn 0.999936 -0.011159 -0.001756
vn 0.999936 -0.011159 -0.001756
vn 0.000000 -0.989885 -0.141871
vn 0.000000 -0.989885 -0.141871
vn 0.000616 -0.987920 -0.154966
vn 0.000000 -0.989885 -0.141871
vn 0.000616 -0.987920 -0.154966
vn 0.000616 -0.987920 -0.154966
vn 0.000002 -0.338878 -0.940830
vn 0.000002 -0.338878 -0.940830
vn 0.000002 -0.338878 -0.940830
vn 0.000002 -0.338878 -0.940830
vn 0.000002 -0.338878 -0.940830
vn 0.000002 -0.338878 -0.940830
vn 0.801419 -0.598103 -0.000743
vn 0.801419 -0.598103 -0.000743
vn 0.801419 -0.598103 -0.000743
vn 0.801419 -0.598103 -0.000743
vn 0.801419 -0.598103 -0.000743
vn 0.801419 -0.598103 -0.000743
vn -0.000000 0.984440 0.175720
vn -0.000000 0.984440 0.175720
vn -0.001968 0.948779 0.315934
vn -0.000000 0.984440 0.175720
vn -0.001968 0.948779 0.315934
vn -0.001968 0.948779 0.315934
vn 0.704237 -0.520810 -0.482501
vn 0.704237 -0.520810 -0.482501
vn 0.704237 -0.520810 -0.482501
vn 0.799846 0.599963 -0.017084
vn 0.799846 0.599963 -0.017084
vn 0.798531 0.585688 -0.138990
vn -0.000000 0.976991 -0.213282
vn -0.000000 0.976991 -0.213282
vn -0.000000 0.976991 -0.213282
vn -0.000000 0.976991 -0.213282
vn -0.000000 0.976991 -0.213282
vn -0.000000 0.976991 -0.213282
vn 0.003847 0.893236 0.449571
vn 0.003847 0.893236 0.449571
vn 0.001944 0.948773 0.315954
vn 0.003847 0.893236 0.449571
vn 0.001944 0.948773 0.315954
vn 0.001944 0.948773 0.315954
vn -0.999936 -0.011159 -0.001756
vn -0.999936 -0.011159 -0.001756
vn -0.999936 -0.011159 -0.001756
vn -0.674387 0.699777 0.235614
vn -0.652361 0.676983 0.340762
vn -0.674387 0.699777 0.235614
vn -0.000616 -0.987920 -0.154966
vn -0.000616 -0.987920 -0.154966
vn -0.000000 -0.989885 -0.141871
vn -0.000616 -0.987920 -0.154966
vn -0.000000 -0.989885 -0.141871
vn -0.000000 -0.989885 -0.141871
vn -0.801419 -0.598103 -0.000743
vn -0.801419 -0.598103 -0.000743
vn -0.801419 -0.598103 -0.000743
vn -0.801419 -0.598103 -0.000743
vn -0.801419 -0.598103 -0.000743
vn -0.801419 -0.598103 -0.000743
vn 0.000000 0.514713 0.857363
vn 0.000000 0.514713 0.857363
vn 0.000000 0.514713 0.857363
vn 0.000000 0.514713 0.857363
vn 0.000000 0.514713 0.857363
vn 0.000000 0.514713 0.857363
vn 0.000000 -1.000000 0.000569
vn 0.000000 -1.000000 0.000569
vn 0.000000 -1.000000 0.000569
vn 0.000000 -1.000000 0.000569
vn 0.000000 -1.000000 0.000569
vn 0.000000 -1.000000 0.000569
vn 0.000000 -0.005345 0.999986
vn 0.000000 -0.005345 0.999986
vn 0.000000 -0.005345 0.999986
vn 0.000000 -0.005345 0.999986
vn 0.000000 -0.005345 0.999986
vn 0.000000 -0.005345 0.999986
vn 0.526488 -0.001051 0.850182
vn 0.526488 -0.001051 0.850182
vn 0.518812 -0.146327 0.842272
vn 0.526488 -0.001051 0.850182
vn 0.518812 -0.146327 0.842272
vn 0.518812 -0.146327 0.842272
vn 0.518812 -0.146327 0.842272
vn 0.518812 -0.146327 0.842272
vn 0.500124 -0.288496 0.816484
vn -0.001232 -0.985781 -0.168033
vn -0.001232 -0.985781 -0.168033
vn -0.000616 -0.987920 -0.154966
vn -0.001232 -0.985781 -0.168033
vn -0.000616 -0.987920 -0.154966
vn -0.000616 -0.987920 -0.154966
vn -0.765830 0.633562 0.110016
vn -0.765830 0.633562 0.110016
vn -0.777067 0.629171 -0.017610
vn -0.765830 0.633562 0.110016
vn -0.777067 0.629171 -0.017610
vn -0.777067 0.629171 -0.017610
vn 0.000000 0.999996 -0.002729
vn 0.000000 0.999996 -0.002729
vn 0.000000 0.999996 -0.002729
vn 0.000000 0.999996 -0.002729
vn 0.000000 0.999996 -0.002729
vn 0.000000 0.999996 -0.002729
vn 0.737141 -0.552857 0.388553
vn 0.737141 -0.552857 0.388553
vn 0.737141 -0.552857 0.388553
vn 0.000616 -0.987920 -0.154966
vn 0.000616 -0.987920 -0.154966
vn 0.001232 -0.985781 -0.168033
vn 0.000616 -0.987920 -0.154966
vn 0.001232 -0.985781 -0.168033
vn 0.001232 -0.985781 -0.168033
vn 0.001944 0.948773 0.315954
vn 0.000000 0.984440 0.175720
vn 0.000000 0.984440 0.175720
vn 0.001944 0.948773 0.315954
vn 0.000000 0.984440 0.175720
vn 0.001944 0.948773 0.315954
vn -0.737141 -0.552857 0.388553
vn -0.737141 -0.552857 0.388553
vn -0.737141 -0.552857 0.388553
vn 0.799846 0.599963 -0.017084
vn 0.789110 0.605198 0.105078
vn 0.789110 0.605198 0.105078
vn 0.799846 0.599963 -0.017084
vn 0.789110 0.605198 0.105078
vn 0.799846 0.599963 -0.017084
vn -0.500124 -0.288496 0.816484
vn -0.518812 -0.146327 0.842272
vn -0.518812 -0.146327 0.842272
vn 0.000002 -0.893262 -0.449537
vn 0.000002 -0.893262 -0.449537
vn 0.000002 -0.893262 -0.449537
vn 0.000002 -0.893262 -0.449537
vn 0.000002 -0.893262 -0.449537
vn 0.000002 -0.893262 -0.449537
vn 0.000000 -0.507796 0.861477
vn 0.000000 -0.507796 0.861477
vn 0.000000 -0.507796 0.861477
vn 0.000000 -0.507796 0.861477
vn 0.000000 -0.507796 0.861477
vn 0.000000 -0.507796 0.861477
vn 0.674387 0.699777 0.235614
vn 0.652361 0.676983 0.340762
vn 0.674387 0.699777 0.235614
vn 0.688280 0.714131 0.127624
vn 0.674387 0.699777 0.235614
vn 0.674387 0.699777 0.235614
vn -0.674387 0.699777 0.235614
vn -0.674387 0.699777 0.235614
vn -0.688280 0.714131 0.127624
vn 0.958445 0.000579 -0.285277
vn 0.954361 -0.047314 -0.294885
vn 0.959927 -0.004620 -0.280212
vn -0.959927 -0.004620 -0.280211
vn -0.954361 -0.047314 -0.294885
vn -0.958445 0.000579 -0.285277
vn 0.628541 0.649498 -0.427888
vn 0.628541 0.649498 -0.427888
vn 0.628541 0.649498 -0.427888
vn -0.704237 -0.520810 -0.482501
vn -0.704237 -0.520810 -0.482501
vn -0.704237 -0.520810 -0.482501
vn -1.000000 0.000756 0.000394
vn -1.000000 0.000756 0.000394
vn -1.000000 0.000876 0.000159
vn -1.000000 0.000756 0.000394
vn -1.000000 0.000876 0.000159
vn -1.000000 0.000876 0.000159
vn 1.000000 0.000756 0.000394
vn 1.000000 0.000876 0.000159
vn 1.000000 0.000876 0.000159
vn 1.000000 0.000756 0.000394
vn 1.000000 0.000876 0.000159
vn 1.000000 0.000756 0.000394
vn -1.000000 0.000756 0.000394
vn -1.000000 0.000636 0.000629
vn -1.000000 0.000756 0.000394
vn 1.000000 0.000636 0.000629
vn 1.000000 0.000756 0.000394
vn 1.000000 0.000756 0.000394
vn -0.628541 0.649498 -0.427888
vn -0.628541 0.649498 -0.427888
vn -0.628541 0.649498 -0.427888
vn 0.652595 -0.676397 -0.341478
vn 0.652595 -0.676397 -0.341478
vn 0.652595 -0.676397 -0.341478
vn -0.652595 -0.676398 -0.341476
vn -0.652595 -0.676398 -0.341476
vn -0.652595 -0.676398 -0.341476
vn 0.958445 0.000579 -0.285277
vn 0.955339 0.010923 -0.295309
vn 0.954361 -0.047314 -0.294885
vn -0.954361 -0.047314 -0.294885
vn -0.955340 0.010923 -0.295308
vn -0.958445 0.000579 -0.285277
vn -0.999994 0.000007 0.003397
vn -0.999994 0.000007 0.003397
vn -0.999994 0.000939 0.003447
vn 0.999994 0.000939 0.003447
vn 0.999994 0.000007 0.003397
vn 0.999994 0.000007 0.003397
vn -0.518812 -0.146327 0.842272
vn -0.518812 -0.146327 0.842272
vn -0.526488 -0.001051 0.850182
vn -0.518812 -0.146327 0.842272
vn -0.526488 -0.001051 0.850182
vn -0.526488 -0.001051 0.850182
vn 0.000000 0.372413 0.928067
vn 0.000000 0.372413 0.928067
vn 0.000000 0.372413 0.928067
vn 0.000000 0.372413 0.928067
vn 0.000000 0.372413 0.928067
vn 0.000000 0.372413 0.928067
vn 0.999994 -0.000924 0.003348
vn 0.999994 -0.000924 0.003348
vn 0.999994 0.000007 0.003397
vn 0.999994 -0.000924 0.003348
vn 0.999994 0.000007 0.003397
vn 0.999994 0.000007 0.003397
vn -0.999994 0.000007 0.003397
vn -0.999994 0.000007 0.003397
vn -0.999994 -0.000924 0.003348
vn -0.999994 0.000007 0.003397
vn -0.999994 -0.000924 0.003348
vn -0.999994 -0.000924 0.003348
vn 0.000000 0.804573 -0.593854
vn 0.000000 0.804573 -0.593854
vn 0.000000 0.804573 -0.593854
vn 0.000000 0.804573 -0.593854
vn 0.000000 0.804573 -0.593854
vn 0.000000 0.804573 -0.593854
vn -0.899874 0.286649 0.328723
vn -0.872380 0.370698 0.318647
vn -0.899874 0.286649 0.328723
vn 0.899874 0.286649 0.328723
vn 0.872380 0.370698 0.318647
vn 0.899874 0.286649 0.328723
vn -0.000003 1.000000 -0.000388
vn -0.000003 1.000000 -0.000388
vn -0.000003 1.000000 -0.000388
vn -0.000003 1.000000 -0.000388
vn -0.000003 1.000000 -0.000388
vn -0.000003 1.000000 -0.000388
vn -0.000002 0.342972 -0.939346
vn -0.000002 0.342972 -0.939346
vn -0.000002 0.342972 -0.939346
vn -0.000002 0.342972 -0.939346
vn -0.000002 0.342972 -0.939346
vn -0.000002 0.342972 -0.939346
vn -0.842390 0.538869 -0.000800
vn -0.842390 0.538869 -0.000800
vn -0.842390 0.538869 -0.000800
vn 0.842390 0.538868 -0.000799
vn 0.842390 0.538868 -0.000799
vn 0.842390 0.538868 -0.000799
vn 0.958445 0.000579 -0.285277
vn 0.959927 -0.004620 -0.280212
vn 0.959702 0.096199 -0.264040
vn -0.959702 0.096200 -0.264040
vn -0.959927 -0.004620 -0.280211
vn -0.958445 0.000579 -0.285277
vn -0.899874 0.286649 0.328723
vn -0.920240 0.200328 0.336195
vn -0.899874 0.286649 0.328723
vn 0.899874 0.286649 0.328723
vn 0.920240 0.200328 0.336195
vn 0.899874 0.286649 0.328723
f 3/1/1 4/2/2 5/3/3
f 5/4/4 12/5/5 10/6/6
f 5/7/7 10/8/8 3/9/9
f 22/10/10 30/11/11 6/12/12
f 22/13/13 6/14/14 36/15/15
f 12/16/16 11/17/17 10/18/18
f 3/19/19 10/20/20 11/21/21
f 3/22/22 11/23/23 4/24/24
f 9/25/25 7/26/26 16/27/27
f 9/28/28 16/29/29 28/30/30
f 43/31/31 18/32/32 19/33/33
f 43/34/34 19/35/35 23/36/36
f 12/37/37 5/38/38 6/39/39
f 12/40/40 6/41/41 30/42/42
f 18/43/43 43/44/44 8/45/45
f 26/46/46 25/47/47 24/48/48
f 33/49/49 26/50/50 24/51/51
f 33/52/52 24/53/53 31/54/54
f 29/55/55 14/56/56 27/57/57
f 29/58/58 27/59/59 34/60/60
f 31/61/61 32/62/62 33/63/63
f 41/64/64 29/65/65 34/66/66
f 25/67/67 32/68/68 31/69/69
f 25/70/70 31/71/71 24/72/72
f 21/73/73 41/74/74 40/75/75
f 21/76/76 40/77/77 20/78/78
f 19/79/79 41/80/80 46/81/81
f 19/82/82 46/83/83 35/84/84
f 18/85/85 40/86/86 41/87/87
f 18/88/88 41/89/89 19/90/90
f 38/91/91 44/92/92 45/93/93
f 38/94/94 45/95/95 37/96/96
f 2/97/97 37/98/98 45/99/99
f 2/100/100 45/101/101 47/102/102
f 47/103/103 45/104/104 46/105/105
f 14/106/106 29/107/107 32/108/108
f 14/109/109 32/110/110 25/111/111
f 36/112/112 6/113/113 5/114/114
f 36/115/115 5/116/116 4/117/117
f 2/118/118 13/119/119 48/120/120
f 2/121/121 48/122/122 42/123/123
f 22/124/124 23/125/125 19/126/126
f 4/127/127 11/128/128 22/129/129
f 4/130/130 22/131/131 36/132/132
f 27/133/133 26/134/134 33/135/135
f 27/136/136 33/137/137 34/138/138
f 41/139/139 21/140/140 29/141/141
f 26/142/142 27/143/143 14/144/144
f 26/145/145 14/146/146 25/147/147
f 35/148/148 44/149/149 15/150/150
f 40/151/151 18/152/152 16/153/153
f 40/154/154 16/155/155 7/156/156
f 46/157/157 45/158/158 44/159/159
f 46/160/160 44/161/161 35/162/162
f 30/163/163 22/164/164 19/165/165
f 12/166/166 30/167/167 19/168/168
f 41/169/169 34/170/170 33/171/171
f 33/172/172 7/173/173 9/174/174
f 28/175/175 16/176/176 12/177/177
f 18/178/178 8/179/179 11/180/180
f 20/181/181 40/182/182 1/183/183
f 11/184/184 43/185/185 23/186/186
f 11/187/187 23/188/188 22/189/189
f 32/190/190 29/191/191 21/192/192
f 32/193/193 21/194/194 20/195/195
f 11/196/196 8/197/197 43/198/198
f 1/199/199 32/200/200 20/201/201
f 40/202/202 32/203/203 1/204/204
f 32/205/205 40/206/206 7/207/207
f 16/208/208 18/209/209 11/210/210
f 33/211/211 32/212/212 7/213/213
f 16/214/214 11/215/215 12/216/216
f 15/217/217 17/218/218 35/219/219
f 46/220/220 39/221/221 47/222/222
f 15/223/223 44/224/224 38/225/225
f 15/226/226 38/227/227 42/228/228
f 42/229/229 38/230/230 37/231/231
f 42/232/232 37/233/233 2/234/234
f 13/235/235 2/236/236 47/237/237
f 13/238/238 47/239/239 39/240/240
f 17/241/241 15/242/242 42/243/243
f 17/244/244 42/245/245 48/246/246
f 13/247/247 39/248/248 17/249/249
f 13/250/250 17/251/251 48/252/252
f 35/253/253 17/254/254 12/255/255
f 33/256/256 39/257/257 46/258/258
f 50/259/259 17/260/260 39/261/261
f 50/262/262 39/263/263 49/264/264
f 49/265/265 9/266/266 28/267/267
f 49/268/268 28/269/269 50/270/270
f 12/271/271 17/272/272 50/273/273
f 49/274/274 39/275/275 33/276/276
f 33/277/277 9/278/278 49/279/279
f 50/280/280 28/281/281 12/282/282
f 12/283/283 19/284/284 35/285/285
f 46/286/286 41/287/287 33/288/288
