v -0.512486 -0.614911 0.879207
v 0.512486 -0.614911 0.879207
v -1.032956 -0.421230 -0.130945
v 1.032956 -0.421230 -0.130945
v 0.512663 0.297659 0.037961
v -0.512663 0.297659 0.037961
v 0.516404 0.510903 -0.813696
v -0.516404 0.510903 -0.813696
v -0.215888 -0.620276 -0.130945
v 0.215888 -0.620276 -0.130945
v -0.594311 -0.492234 -0.509714
v 0.594311 -0.492234 -0.509714
v -0.258239 -0.491051 -0.001595
v 0.258239 -0.491051 -0.001595
v -1.016814 -0.392101 -0.152281
v -0.512541 0.262477 0.090865
v 1.016814 -0.392101 -0.152281
v -1.016691 -0.427282 -0.099378
v 0.512541 0.262477 0.090865
v 1.016691 -0.427283 -0.099378
v 0.512602 0.280068 0.064413
v -0.512602 0.280068 0.064413
v 0.528242 -0.609047 0.848626
v -0.480456 -0.614911 0.879207
v -0.532041 0.482684 -0.793027
v 0.480507 0.262477 0.090865
v 0.528418 0.276104 0.032016
v 0.484128 0.510903 -0.813696
v -0.480507 0.262477 0.090865
v -0.484128 0.510903 -0.813696
v -0.528242 -0.609047 0.848626
v 0.480622 0.297659 0.037961
v -0.528295 0.240922 0.084920
v 0.528295 0.240922 0.084920
v 0.480456 -0.614911 0.879207
v -0.480622 0.297659 0.037961
v -0.528418 0.276104 0.032016
v 0.532041 0.482684 -0.793027
v 0.000000 -0.491051 -0.001595
v 0.129119 -0.491051 -0.001595
v -0.129119 -0.491051 -0.001595
v 0.184674 -0.552981 0.438806
v -0.184674 -0.552981 0.438806
v -0.300285 -0.614911 0.879207
v 0.226339 -0.599428 0.769107
v 0.300285 -0.614911 0.879207
v -0.226339 -0.599428 0.769107
v 0.385363 -0.552981 0.438806
v -0.385363 -0.552981 0.438806
vt 0.017319 0.418419
vt 0.017594 0.419024
vt 0.035187 0.457756
vt 0.017319 0.418419
vt 0.035187 0.457756
vt 0.034363 0.455940
vt 0.000000 0.000000
vt 0.000000 0.000000
vt 0.000000 0.000000
vt 0.000000 0.000000
vt 0.000000 0.000000
vt 0.000000 0.000000
vt 0.000000 0.000000
vt 0.000000 0.000000
vt 0.000000 0.000000
vt 0.000000 0.000000
vt 0.000000 0.000000
vt 0.000000 0.000000
vt 0.000000 0.000000
vt 0.000000 0.000000
vt 0.000000 0.000000
vt 0.000000 0.000000
vt 0.000000 0.000000
vt 0.000000 0.000000
vt 0.000000 0.000000
vt 0.000000 0.000000
vt 0.000000 0.000000
vt 0.000000 0.000000
vt 0.000000 0.000000
vt 0.000000 0.000000
vt 0.000000 0.000000
vt 0.000000 0.000000
vt 0.000000 0.000000
vt 0.000000 0.000000
vt 0.000000 0.000000
vt 0.000000 0.000000
vt 0.000000 0.000000
vt 0.000000 0.000000
vt 0.000000 0.000000
vt 0.000000 0.000000
vt 0.000000 0.000000
vt 0.000000 0.000000
vt 0.000000 0.000000
vt 0.000000 0.000000
vt 0.000000 0.000000
vt 0.000000 0.000000
vt 0.000000 0.000000
vt 0.000000 0.000000
vt 0.000000 0.000000
vt 0.000000 0.000000
vt 0.000000 0.000000
vt 0.000000 0.000000
vt 0.000000 0.000000
vt 0.000000 0.000000
vt 0.000000 0.000000
vt 0.000000 0.000000
vt 0.000000 0.000000
vt 0.000000 0.000000
vt 0.000000 0.000000
vt 0.000000 0.000000
vt 0.000000 0.000000
vt 0.000000 0.000000
vt 0.000000 0.000000
vt 0.717995 0.775409
vt 0.717997 0.779337
vt 0.717984 0.754197
vt 0.717995 0.775409
vt 0.717984 0.754197
vt 0.717984 0.752626
vt 0.982626 0.356895
vt 0.982350 0.356524
vt 0.964700 0.332756
vt 0.982626 0.356895
vt 0.964700 0.332756
vt 0.965528 0.333870
vt 0.717960 0.705488
vt 0.717959 0.703917
vt 0.717934 0.653637
vt 0.717960 0.705488
vt 0.717934 0.653637
vt 0.717936 0.657566
vt 0.281930 0.828535
vt 0.281929 0.828917
vt 0.281868 0.853358
vt 0.281930 0.828535
vt 0.281868 0.853358
vt 0.281871 0.852021
vt 0.282004 0.777766
vt 0.282003 0.779337
vt 0.282009 0.766767
vt 0.282004 0.777766
vt 0.282009 0.766767
vt 0.282016 0.754197
vt 0.281983 0.807532
vt 0.281990 0.804477
vt 0.273454 0.790850
vt 0.281983 0.807532
vt 0.273454 0.790850
vt 0.264917 0.777222
vt 0.281983 0.807532
vt 0.264917 0.777222
vt 0.247845 0.749968
vt 0.718003 0.791907
vt 0.717997 0.779337
vt 0.722404 0.773495
vt 0.718003 0.791907
vt 0.722404 0.773495
vt 0.726810 0.767652
vt 0.718003 0.791907
vt 0.726810 0.767652
vt 0.735623 0.755968
vt 0.486381 0.791907
vt 0.690758 0.804477
vt 0.689907 0.804477
vt 0.486381 0.791907
vt 0.689907 0.804477
vt 0.689055 0.804477
vt 0.486381 0.791907
vt 0.689055 0.804477
vt 0.687352 0.804477
vt 0.486381 0.791907
vt 0.687352 0.804477
vt 0.683946 0.804477
vt 0.991203 0.399658
vt 0.735634 0.777965
vt 0.726822 0.791221
vt 0.991203 0.399658
vt 0.726822 0.791221
vt 0.722416 0.797849
vt 0.991203 0.399658
vt 0.722416 0.797849
vt 0.720213 0.801163
vt 0.690766 0.807532
vt 0.718025 0.810587
vt 0.704399 0.809610
vt 0.690766 0.807532
vt 0.704399 0.809610
vt 0.690774 0.808634
vt 0.690766 0.807532
vt 0.690774 0.808634
vt 0.663522 0.806681
vt 0.690766 0.807532
vt 0.663522 0.806681
vt 0.609020 0.802774
vt 0.264366 0.777965
vt 0.246742 0.751454
vt 0.264358 0.781020
vt 0.264366 0.777965
vt 0.264358 0.781020
vt 0.273167 0.795804
vt 0.264366 0.777965
vt 0.273167 0.795804
vt 0.277571 0.803195
vt 0.718026 0.811160
vt 0.718025 0.810587
vt 0.718040 0.816697
vt 0.718026 0.811160
vt 0.718040 0.816697
vt 0.718041 0.817079
vt 0.281972 0.811924
vt 0.281975 0.810587
vt 0.281960 0.816697
vt 0.281972 0.811924
vt 0.281960 0.816697
vt 0.281959 0.817079
vt 0.000000 0.000000
vt 0.000000 0.000000
vt 0.000000 0.000000
vt 0.000000 0.000000
vt 0.000000 0.000000
vt 0.000000 0.000000
vt 0.000000 0.000000
vt 0.000000 0.000000
vt 0.000000 0.000000
vt 0.000000 0.000000
vt 0.000000 0.000000
vt 0.000000 0.000000
vt 0.000000 0.000000
vt 0.000000 0.000000
vt 0.000000 0.000000
vt 0.000000 0.000000
vt 0.000000 0.000000
vt 0.000000 0.000000
vt 0.000000 0.000000
vt 0.000000 0.000000
vt 0.000000 0.000000
vt 0.000000 0.000000
vt 0.000000 0.000000
vt 0.000000 0.000000
vt 0.000000 0.000000
vt 0.000000 0.000000
vt 0.000000 0.000000
vt 0.000000 0.000000
vt 0.000000 0.000000
vt 0.000000 0.000000
vt 0.000000 0.000000
vt 0.000000 0.000000
vt 0.000000 0.000000
vt 0.000000 0.000000
vt 0.000000 0.000000
vt 0.000000 0.000000
vt 0.000000 0.000000
vt 0.000000 0.000000
vt 0.000000 0.000000
vn 0.817419 -0.557937 -0.143291
vn 0.817419 -0.557937 -0.143291
vn 0.815766 -0.544732 -0.194404
vn 0.817419 -0.557937 -0.143291
vn 0.815766 -0.544732 -0.194404
vn 0.815766 -0.544732 -0.194404
vn -0.642193 0.637114 -0.426233
vn -0.642193 0.637114 -0.426233
vn -0.642193 0.637114 -0.426233
vn 0.225573 0.971702 0.070085
vn 0.225573 0.971702 0.070085
vn 0.225573 0.971702 0.070085
vn 0.225573 0.971702 0.070085
vn 0.225573 0.971702 0.070085
vn 0.113585 0.987921 0.105409
vn 0.225573 0.971702 0.070085
vn 0.113585 0.987921 0.105409
vn 0.075663 0.990254 0.116926
vn 0.225573 0.971702 0.070085
vn 0.075663 0.990254 0.116926
vn 0.113585 0.987921 0.105409
vn 0.225573 0.971702 0.070085
vn 0.113585 0.987921 0.105409
vn 0.225573 0.971702 0.070085
vn -0.024403 0.991796 0.125476
vn -0.036608 0.992274 0.118545
vn 0.000000 0.990257 0.139252
vn -0.024403 0.991796 0.125476
vn 0.000000 0.990257 0.139252
vn -0.000000 0.990257 0.139252
vn 0.000000 0.707450 -0.706764
vn 0.000000 0.707450 -0.706764
vn 0.000000 0.707450 -0.706764
vn 0.000000 0.707450 -0.706764
vn 0.000000 0.707450 -0.706764
vn 0.000000 0.707450 -0.706764
vn 0.000000 0.707450 -0.706764
vn 0.000000 0.707450 -0.706764
vn 0.000000 0.707450 -0.706764
vn 0.000000 0.707450 -0.706764
vn 0.000000 0.707450 -0.706764
vn 0.000000 0.707450 -0.706764
vn 0.000000 0.707450 -0.706764
vn 0.000000 0.707450 -0.706764
vn 0.000000 0.707450 -0.706764
vn -0.036608 0.992274 0.118545
vn -0.073151 0.992531 0.097629
vn -0.073151 0.992531 0.097629
vn -0.036608 0.992274 0.118545
vn -0.073151 0.992531 0.097629
vn -0.073151 0.992531 0.097629
vn -0.036608 0.992274 0.118545
vn -0.073151 0.992531 0.097629
vn -0.073151 0.992531 0.097629
vn -0.036608 0.992274 0.118545
vn -0.073151 0.992531 0.097629
vn -0.036608 0.992274 0.118545
vn -0.036608 0.992274 0.118545
vn -0.036608 0.992274 0.118545
vn -0.024403 0.991796 0.125476
vn 0.642193 0.637114 -0.426233
vn 0.642193 0.637114 -0.426233
vn 0.642193 0.637114 -0.426233
vn 0.000000 -0.756512 -0.653980
vn 0.000000 -0.756512 -0.653980
vn 0.000000 -0.668352 -0.743845
vn 0.000000 -0.756512 -0.653980
vn 0.000000 -0.668352 -0.743845
vn 0.000000 -0.668352 -0.743845
vn -0.766921 -0.428883 -0.477380
vn -0.766921 -0.428883 -0.477380
vn -0.776520 -0.446989 -0.444092
vn -0.766921 -0.428883 -0.477380
vn -0.776520 -0.446989 -0.444092
vn -0.776520 -0.446989 -0.444092
vn 0.000000 -0.668352 -0.743845
vn 0.000000 -0.668352 -0.743845
vn 0.000000 -0.756512 -0.653980
vn 0.000000 -0.668352 -0.743845
vn 0.000000 -0.756512 -0.653980
vn 0.000000 -0.756512 -0.653980
vn 0.000000 -0.970054 -0.242889
vn 0.000000 -0.970054 -0.242889
vn 0.000000 -0.914671 -0.404199
vn 0.000000 -0.970054 -0.242889
vn 0.000000 -0.914671 -0.404199
vn 0.000000 -0.914671 -0.404199
vn 0.776520 -0.446989 -0.444092
vn 0.776520 -0.446989 -0.444092
vn 0.766921 -0.428883 -0.477380
vn 0.776520 -0.446989 -0.444092
vn 0.766921 -0.428883 -0.477380
vn 0.766921 -0.428883 -0.477380
vn 0.801629 -0.499229 -0.328880
vn 0.776520 -0.446989 -0.444092
vn 0.776520 -0.446989 -0.444092
vn 0.801629 -0.499229 -0.328880
vn 0.776520 -0.446989 -0.444092
vn 0.784933 -0.464411 -0.410125
vn 0.801629 -0.499229 -0.328880
vn 0.784933 -0.464411 -0.410125
vn 0.801629 -0.499229 -0.328880
vn -0.801629 -0.499229 -0.328880
vn -0.815766 -0.544731 -0.194404
vn -0.815766 -0.544731 -0.194404
vn -0.801629 -0.499229 -0.328880
vn -0.815766 -0.544731 -0.194404
vn -0.811838 -0.530006 -0.244975
vn -0.801629 -0.499229 -0.328880
vn -0.811838 -0.530006 -0.244975
vn -0.801629 -0.499229 -0.328880
vn 0.000000 -0.832683 -0.553751
vn 0.000000 -0.914671 -0.404199
vn 0.000000 -0.914671 -0.404199
vn 0.000000 -0.832683 -0.553751
vn 0.000000 -0.914671 -0.404199
vn 0.000000 -0.914671 -0.404199
vn 0.000000 -0.832683 -0.553751
vn 0.000000 -0.914671 -0.404199
vn 0.000000 -0.914671 -0.404199
vn 0.000000 -0.832683 -0.553751
vn 0.000000 -0.914671 -0.404199
vn 0.000000 -0.832683 -0.553751
vn -0.801629 -0.499229 -0.328880
vn -0.784933 -0.464411 -0.410125
vn -0.776520 -0.446989 -0.444092
vn -0.801629 -0.499229 -0.328880
vn -0.776520 -0.446989 -0.444092
vn -0.776520 -0.446989 -0.444092
vn -0.801629 -0.499229 -0.328880
vn -0.776520 -0.446989 -0.444092
vn -0.801629 -0.499229 -0.328880
vn 0.000000 -0.832683 -0.553751
vn 0.000000 -0.756512 -0.653980
vn 0.000000 -0.756512 -0.653980
vn 0.000000 -0.832683 -0.553751
vn 0.000000 -0.756512 -0.653980
vn 0.000000 -0.756512 -0.653980
vn 0.000000 -0.832683 -0.553751
vn 0.000000 -0.756512 -0.653980
vn 0.000000 -0.756512 -0.653980
vn 0.000000 -0.832683 -0.553751
vn 0.000000 -0.756512 -0.653980
vn 0.000000 -0.832683 -0.553751
vn 0.801629 -0.499229 -0.328880
vn 0.811838 -0.530006 -0.244975
vn 0.815766 -0.544732 -0.194404
vn 0.801629 -0.499229 -0.328880
vn 0.815766 -0.544732 -0.194404
vn 0.815766 -0.544732 -0.194404
vn 0.801629 -0.499229 -0.328880
vn 0.815766 -0.544732 -0.194404
vn 0.801629 -0.499229 -0.328880
vn -0.815766 -0.544731 -0.194404
vn -0.815766 -0.544731 -0.194404
vn -0.817419 -0.557937 -0.143291
vn -0.815766 -0.544731 -0.194404
vn -0.817419 -0.557937 -0.143291
vn -0.817419 -0.557937 -0.143291
vn 0.000000 -0.914671 -0.404199
vn 0.000000 -0.914671 -0.404199
vn 0.000000 -0.970054 -0.242889
vn 0.000000 -0.914671 -0.404199
vn 0.000000 -0.970054 -0.242889
vn 0.000000 -0.970054 -0.242889
vn 0.000000 0.990257 0.139252
vn 0.000000 0.990257 0.139252
vn 0.113585 0.987921 0.105409
vn 0.000000 0.990257 0.139252
vn 0.113585 0.987921 0.105409
vn 0.075663 0.990254 0.116926
vn -0.000000 0.990257 0.139252
vn 0.000000 0.990257 0.139252
vn 0.000000 0.990257 0.139252
vn -0.000000 0.990257 0.139252
vn 0.000000 0.990257 0.139252
vn 0.000000 0.990257 0.139252
vn -0.000000 0.990257 0.139252
vn 0.000000 0.990257 0.139252
vn 0.000000 0.990257 0.139252
vn 0.075663 0.990254 0.116926
vn 0.113585 0.987921 0.105409
vn 0.000000 0.990257 0.139252
vn 0.075663 0.990254 0.116926
vn 0.000000 0.990257 0.139252
vn 0.000000 0.990257 0.139252
vn 0.075663 0.990254 0.116926
vn 0.000000 0.990257 0.139252
vn 0.000000 0.990257 0.139252
vn 0.075663 0.990254 0.116926
vn 0.000000 0.990257 0.139252
vn 0.000000 0.990257 0.139252
vn -0.000000 0.990257 0.139252
vn -0.000000 0.990257 0.139252
vn -0.000000 0.990257 0.139252
vn -0.000000 0.990257 0.139252
vn -0.000000 0.990257 0.139252
vn -0.000000 0.990257 0.139252
vn -0.000000 0.990257 0.139252
vn -0.000000 0.990257 0.139252
vn -0.036608 0.992274 0.118545
vn -0.000000 0.990257 0.139252
vn -0.036608 0.992274 0.118545
vn -0.024403 0.991796 0.125476
f 25/1/1 8/2/2 6/3/3
f 25/4/4 6/5/5 37/6/6
f 10/7/7 14/8/8 12/9/9
f 3/10/10 18/11/11 31/12/12
f 3/13/13 31/14/14 1/15/15
f 3/16/16 1/17/17 49/18/18
f 3/19/19 49/20/20 13/21/21
f 3/22/22 13/23/23 11/24/24
f 48/25/25 14/26/26 40/27/27
f 48/28/28 40/29/29 42/30/30
f 14/31/31 10/32/32 9/33/33
f 14/34/34 9/35/35 13/36/36
f 14/37/37 13/38/38 41/39/39
f 14/40/40 41/41/41 39/42/42
f 14/43/43 39/44/44 40/45/45
f 2/46/46 23/47/47 20/48/48
f 2/49/49 20/50/50 4/51/51
f 2/52/52 4/53/53 12/54/54
f 2/55/55 12/56/56 14/57/57
f 2/58/58 14/59/59 48/60/60
f 11/61/61 13/62/62 9/63/63
f 26/64/64 19/65/65 2/66/66
f 26/67/67 2/68/68 35/69/69
f 23/70/70 2/71/71 19/72/72
f 23/73/73 19/74/74 34/75/75
f 24/76/76 1/77/77 16/78/78
f 24/79/79 16/80/80 29/81/81
f 28/82/82 7/83/83 5/84/84
f 28/85/85 5/86/86 32/87/87
f 33/88/88 16/89/89 1/90/90
f 33/91/91 1/92/92 31/93/93
f 22/94/94 16/95/95 33/96/96
f 22/97/97 33/98/98 18/99/99
f 22/100/100 18/101/101 3/102/102
f 21/103/103 5/104/104 27/105/105
f 21/106/106 27/107/107 17/108/108
f 21/109/109 17/110/110 4/111/111
f 22/112/112 6/113/113 36/114/114
f 22/115/115 36/116/116 32/117/117
f 22/118/118 32/119/119 5/120/120
f 22/121/121 5/122/122 21/123/123
f 4/124/124 20/125/125 34/126/126
f 4/127/127 34/128/128 19/129/129
f 4/130/130 19/131/131 21/132/132
f 21/133/133 19/134/134 26/135/135
f 21/136/136 26/137/137 29/138/138
f 21/139/139 29/140/140 16/141/141
f 21/142/142 16/143/143 22/144/144
f 3/145/145 15/146/146 37/147/147
f 3/148/148 37/149/149 6/150/150
f 3/151/151 6/152/152 22/153/153
f 27/154/154 5/155/155 7/156/156
f 27/157/157 7/158/158 38/159/159
f 36/160/160 6/161/161 8/162/162
f 36/163/163 8/164/164 30/165/165
f 43/166/166 41/167/167 13/168/168
f 43/169/169 13/170/170 49/171/171
f 42/172/172 40/173/173 39/174/174
f 42/175/175 39/176/176 41/177/177
f 42/178/178 41/179/179 43/180/180
f 49/181/181 1/182/182 24/183/183
f 49/184/184 24/185/185 44/186/186
f 49/187/187 44/188/188 47/189/189
f 49/190/190 47/191/191 43/192/192
f 42/193/193 45/194/194 46/195/195
f 42/196/196 46/197/197 35/198/198
f 42/199/199 35/200/200 2/201/201
f 42/202/202 2/203/203 48/204/204
