v 0.496496 -0.607056 0.823793
v 0.414829 -0.536702 0.811369
v 0.129119 -0.491051 -0.001595
v -0.164209 -0.605640 -0.256847
v -0.129119 -0.491051 -0.001595
v -0.102372 -0.622269 -0.137671
v -0.300285 -0.614911 0.879207
v 0.226339 -0.599428 0.769107
v 0.300285 -0.614911 0.879207
v -0.226339 -0.599428 0.769107
v -0.258239 -0.491051 -0.001595
v 0.258239 -0.491051 -0.001595
v -0.103579 -0.605640 -0.256847
v -0.215888 -0.620276 -0.130945
v 0.265647 -0.526793 0.740905
v 0.312972 -0.536702 0.811369
v -0.414829 -0.536702 0.811369
v 0.459436 -0.614911 0.879207
v -0.312972 -0.536702 0.811369
v -0.265647 -0.526794 0.740904
v -0.436026 -0.530241 0.765864
v -0.459436 -0.614911 0.879207
v 0.436026 -0.530241 0.765864
v -0.496496 -0.607056 0.823793
v -0.127641 -0.472606 -0.126585
v -0.202356 -0.472606 -0.126585
v -0.144364 -0.438865 -0.044194
v -0.226021 -0.438865 -0.044194
v 0.226021 -0.438865 -0.044194
v 0.202356 -0.472606 -0.126585
v 0.127641 -0.472606 -0.126585
v 0.144364 -0.438865 -0.044194
v 0.102372 -0.622269 -0.137671
v 0.103579 -0.605640 -0.256847
v 0.215888 -0.620276 -0.130945
v 0.164209 -0.605640 -0.256847
v -0.122433 -0.523855 -0.035614
v 0.122433 -0.523855 -0.035614
v -0.126339 -0.485419 -0.103842
v 0.126339 -0.485419 -0.103842
v 0.140553 -0.451911 -0.033544
v -0.140553 -0.451911 -0.033544
v 0.136003 -0.455736 -0.085390
v 0.131822 -0.464171 -0.105987
v 0.140184 -0.447300 -0.064792
v -0.136003 -0.455736 -0.085390
v -0.140184 -0.447300 -0.064792
v -0.131822 -0.464171 -0.105988
vt 0.000000 0.000000
vt 0.000000 0.000000
vt 0.000000 0.000000
vt 0.000000 0.000000
vt 0.000000 0.000000
vt 0.000000 0.000000
vt 0.000000 0.000000
vt 0.000000 0.000000
vt 0.000000 0.000000
vt 0.000000 0.000000
vt 0.000000 0.000000
vt 0.000000 0.000000
vt 0.000000 0.000000
vt 0.000000 0.000000
vt 0.000000 0.000000
vt 0.000000 0.000000
vt 0.000000 0.000000
vt 0.000000 0.000000
vt 0.000000 0.000000
vt 0.000000 0.000000
vt 0.000000 0.000000
vt 0.000000 0.000000
vt 0.000000 0.000000
vt 0.000000 0.000000
vt 0.000000 0.000000
vt 0.000000 0.000000
vt 0.000000 0.000000
vt 0.000000 0.000000
vt 0.000000 0.000000
vt 0.000000 0.000000
vt 0.000000 0.000000
vt 0.000000 0.000000
vt 0.000000 0.000000
vt 0.000000 0.000000
vt 0.000000 0.000000
vt 0.000000 0.000000
vt 0.000000 0.000000
vt 0.000000 0.000000
vt 0.000000 0.000000
vt 0.000000 0.000000
vt 0.000000 0.000000
vt 0.000000 0.000000
vt 0.000000 0.000000
vt 0.000000 0.000000
vt 0.000000 0.000000
vt 0.000000 0.000000
vt 0.000000 0.000000
vt 0.000000 0.000000
vt 0.000000 0.000000
vt 0.000000 0.000000
vt 0.000000 0.000000
vt 0.000000 0.000000
vt 0.000000 0.000000
vt 0.000000 0.000000
vt 0.000000 0.000000
vt 0.000000 0.000000
vt 0.000000 0.000000
vt 0.000000 0.000000
vt 0.000000 0.000000
vt 0.000000 0.000000
vt 0.000000 0.000000
vt 0.000000 0.000000
vt 0.000000 0.000000
vt 0.000000 0.000000
vt 0.000000 0.000000
vt 0.000000 0.000000
vt 0.000000 0.000000
vt 0.000000 0.000000
vt 0.000000 0.000000
vt 0.000000 0.000000
vt 0.000000 0.000000
vt 0.000000 0.000000
vt 0.000000 0.000000
vt 0.000000 0.000000
vt 0.000000 0.000000
vt 0.000000 0.000000
vt 0.000000 0.000000
vt 0.000000 0.000000
vt 0.000000 0.000000
vt 0.000000 0.000000
vt 0.000000 0.000000
vt 0.000000 0.000000
vt 0.000000 0.000000
vt 0.000000 0.000000
vt 0.000000 0.000000
vt 0.000000 0.000000
vt 0.000000 0.000000
vt 0.000000 0.000000
vt 0.000000 0.000000
vt 0.000000 0.000000
vt 0.000000 0.000000
vt 0.000000 0.000000
vt 0.000000 0.000000
vt 0.000000 0.000000
vt 0.000000 0.000000
vt 0.000000 0.000000
vt 0.000000 0.000000
vt 0.000000 0.000000
vt 0.000000 0.000000
vt 0.000000 0.000000
vt 0.000000 0.000000
vt 0.000000 0.000000
vt 0.000000 0.000000
vt 0.000000 0.000000
vt 0.000000 0.000000
vt 0.000000 0.000000
vt 0.000000 0.000000
vt 0.000000 0.000000
vt 0.000000 0.000000
vt 0.000000 0.000000
vt 0.000000 0.000000
vt 0.000000 0.000000
vt 0.000000 0.000000
vt 0.000000 0.000000
vt 0.000000 0.000000
vt 0.000000 0.000000
vt 0.000000 0.000000
vt 0.000000 0.000000
vt 0.000000 0.000000
vt 0.000000 0.000000
vt 0.000000 0.000000
vt 0.000000 0.000000
vt 0.000000 0.000000
vt 0.000000 0.000000
vt 0.000000 0.000000
vt 0.000000 0.000000
vt 0.000000 0.000000
vt 0.000000 0.000000
vt 0.000000 0.000000
vt 0.000000 0.000000
vt 0.000000 0.000000
vt 0.000000 0.000000
vt 0.000000 0.000000
vt 0.000000 0.000000
vt 0.000000 0.000000
vt 0.000000 0.000000
vt 0.000000 0.000000
vt 0.000000 0.000000
vt 0.000000 0.000000
vt 0.000000 0.000000
vt 0.000000 0.000000
vt 0.000000 0.000000
vt 0.000000 0.000000
vt 0.000000 0.000000
vt 0.000000 0.000000
vt 0.000000 0.000000
vt 0.000000 0.000000
vt 0.000000 0.000000
vt 0.000000 0.000000
vt 0.000000 0.000000
vt 0.000000 0.000000
vt 0.000000 0.000000
vt 0.000000 0.000000
vt 0.000000 0.000000
vt 0.000000 0.000000
vt 0.000000 0.000000
vt 0.000000 0.000000
vt 0.000000 0.000000
vt 0.000000 0.000000
vt 0.000000 0.000000
vt 0.000000 0.000000
vt 0.000000 0.000000
vt 0.000000 0.000000
vt 0.000000 0.000000
vt 0.000000 0.000000
vt 0.000000 0.000000
vt 0.000000 0.000000
vt 0.000000 0.000000
vt 0.000000 0.000000
vt 0.000000 0.000000
vt 0.000000 0.000000
vt 0.000000 0.000000
vt 0.000000 0.000000
vt 0.000000 0.000000
vt 0.000000 0.000000
vt 0.000000 0.000000
vt 0.000000 0.000000
vt 0.000000 0.000000
vt 0.000000 0.000000
vt 0.000000 0.000000
vt 0.000000 0.000000
vt 0.000000 0.000000
vt 0.000000 0.000000
vt 0.000000 0.000000
vt 0.000000 0.000000
vt 0.000000 0.000000
vt 0.000000 0.000000
vt 0.000000 0.000000
vt 0.000000 0.000000
vt 0.000000 0.000000
vt 0.000000 0.000000
vt 0.000000 0.000000
vt 0.000000 0.000000
vt 0.000000 0.000000
vt 0.000000 0.000000
vt 0.000000 0.000000
vt 0.000000 0.000000
vt 0.000000 0.000000
vt 0.000000 0.000000
vt 0.000000 0.000000
vt 0.000000 0.000000
vt 0.000000 0.000000
vt 0.000000 0.000000
vt 0.000000 0.000000
vt 0.000000 0.000000
vt 0.000000 0.000000
vt 0.000000 0.000000
vn 0.000000 0.925405 -0.378979
vn 0.000000 0.925405 -0.378979
vn 0.000000 0.925405 -0.378979
vn 0.000000 0.925405 -0.378979
vn 0.000000 0.925405 -0.378979
vn 0.000000 0.925405 -0.378979
vn 0.000000 0.925405 -0.378979
vn 0.000000 0.925405 -0.378979
vn 0.000000 0.925405 -0.378979
vn 0.000000 0.925405 -0.378979
vn 0.000000 0.925405 -0.378979
vn 0.000000 0.925405 -0.378979
vn 0.000000 0.925405 -0.378979
vn 0.000000 0.925405 -0.378979
vn 0.000000 0.925405 -0.378979
vn 0.000000 0.655246 0.755416
vn 0.000000 0.655246 0.755416
vn 0.000000 0.655246 0.755416
vn 0.000000 0.655246 0.755416
vn 0.000000 0.655246 0.755416
vn 0.000000 0.655246 0.755416
vn -0.653016 0.553920 0.516472
vn -0.653016 0.553920 0.516472
vn -0.653016 0.553920 0.516472
vn -0.653016 0.553920 0.516472
vn -0.653016 0.553920 0.516472
vn -0.653016 0.553920 0.516472
vn 0.653013 0.553925 0.516470
vn 0.653013 0.553925 0.516470
vn 0.653013 0.553925 0.516470
vn 0.653013 0.553925 0.516470
vn 0.653013 0.553925 0.516470
vn 0.653013 0.553925 0.516470
vn -0.554129 0.717712 0.421700
vn -0.554129 0.717712 0.421700
vn -0.554129 0.717712 0.421700
vn -0.554129 0.717712 0.421700
vn -0.554129 0.717712 0.421700
vn -0.554129 0.717712 0.421700
vn -0.000001 0.925405 -0.378980
vn -0.000001 0.925405 -0.378980
vn -0.000001 0.925405 -0.378980
vn -0.000001 0.925405 -0.378980
vn -0.000001 0.925405 -0.378980
vn -0.000001 0.925405 -0.378980
vn -0.000001 0.925405 -0.378980
vn -0.000001 0.925405 -0.378980
vn -0.000000 0.925405 -0.378980
vn -0.000001 0.925405 -0.378980
vn -0.000000 0.925405 -0.378980
vn -0.000000 0.925405 -0.378980
vn -0.000001 0.925405 -0.378980
vn -0.000000 0.925405 -0.378980
vn -0.000000 0.925405 -0.378980
vn 0.554129 0.717712 0.421700
vn 0.554129 0.717712 0.421700
vn 0.554129 0.717712 0.421700
vn 0.554129 0.717712 0.421700
vn 0.554129 0.717712 0.421700
vn 0.554129 0.717712 0.421700
vn 0.000001 0.655247 0.755414
vn 0.000001 0.655247 0.755414
vn 0.000001 0.655247 0.755414
vn 0.000001 0.655247 0.755414
vn 0.000001 0.655247 0.755414
vn 0.000001 0.655247 0.755414
vn -0.000000 0.699623 -0.714512
vn -0.000000 0.699623 -0.714512
vn -0.000000 0.699623 -0.714512
vn -0.000000 0.699623 -0.714512
vn -0.000000 0.699623 -0.714512
vn -0.000000 0.699623 -0.714512
vn -0.887120 0.373259 -0.271471
vn -0.910677 0.176887 -0.373335
vn -0.907138 0.282861 -0.311592
vn -0.002375 0.993562 0.113269
vn -0.002375 0.993562 0.113269
vn -0.002375 0.993562 0.113269
vn -0.002375 0.993562 0.113269
vn -0.002375 0.993562 0.113269
vn -0.002375 0.993562 0.113269
vn -0.002375 0.993562 0.113269
vn -0.002375 0.993562 0.113269
vn -0.002375 0.993562 0.113269
vn -0.002375 0.993562 0.113269
vn -0.002375 0.993562 0.113269
vn -0.002375 0.993562 0.113269
vn -0.859031 0.481292 -0.174423
vn -0.887120 0.373259 -0.271471
vn -0.907138 0.282861 -0.311592
vn -0.859031 0.481292 -0.174423
vn -0.907138 0.282861 -0.311592
vn -0.859031 0.481292 -0.174423
vn 0.907138 0.282863 -0.311592
vn 0.910677 0.176889 -0.373335
vn 0.887119 0.373262 -0.271470
vn 0.986061 0.164773 0.023118
vn 0.986061 0.164773 0.023118
vn 0.986061 0.164773 0.023118
vn 0.986061 0.164773 0.023118
vn 0.986061 0.164773 0.023118
vn 0.986061 0.164773 0.023118
vn 0.986061 0.164773 0.023118
vn 0.986061 0.164773 0.023118
vn 0.986061 0.164773 0.023118
vn 0.002376 0.993562 0.113269
vn 0.002376 0.993562 0.113269
vn 0.002376 0.993562 0.113269
vn 0.002376 0.993562 0.113269
vn 0.002376 0.993562 0.113269
vn 0.002376 0.993562 0.113269
vn 0.002376 0.993562 0.113269
vn 0.002376 0.993562 0.113269
vn 0.002376 0.993562 0.113269
vn 0.002376 0.993562 0.113269
vn 0.002376 0.993562 0.113269
vn 0.002376 0.993562 0.113269
vn -0.859354 0.478264 0.181037
vn -0.859354 0.478264 0.181037
vn -0.907011 0.403439 0.120700
vn -0.859354 0.478264 0.181037
vn -0.907011 0.403439 0.120700
vn -0.907011 0.403439 0.120700
vn -0.859354 0.478264 0.181037
vn -0.907011 0.403439 0.120700
vn -0.859354 0.478264 0.181037
vn -0.975755 0.211421 0.056601
vn -0.986061 0.164773 0.023118
vn -0.986061 0.164773 0.023118
vn -0.975755 0.211421 0.056601
vn -0.986061 0.164773 0.023118
vn -0.986061 0.164773 0.023118
vn -0.975755 0.211421 0.056601
vn -0.986061 0.164773 0.023118
vn -0.975755 0.211421 0.056601
vn -0.907138 0.282861 -0.311592
vn -0.910677 0.176887 -0.373335
vn -0.919393 0.095517 -0.381566
vn -0.907138 0.282861 -0.311592
vn -0.919393 0.095517 -0.381566
vn -0.919393 0.095517 -0.381566
vn 0.910677 0.176889 -0.373335
vn 0.907138 0.282863 -0.311592
vn 0.919393 0.095517 -0.381566
vn 0.910677 0.176889 -0.373335
vn 0.919393 0.095517 -0.381566
vn 0.919393 0.095517 -0.381566
vn 0.000000 0.699623 -0.714512
vn 0.000000 0.699623 -0.714512
vn 0.000000 0.699623 -0.714512
vn 0.000000 0.699623 -0.714512
vn 0.000000 0.699623 -0.714512
vn 0.000000 0.699623 -0.714512
vn 0.859030 0.481294 -0.174423
vn 0.907138 0.282863 -0.311592
vn 0.887119 0.373262 -0.271470
vn 0.859030 0.481294 -0.174423
vn 0.887119 0.373262 -0.271470
vn 0.859030 0.481294 -0.174423
vn 0.859351 0.478269 0.181037
vn 0.859351 0.478269 0.181037
vn 0.859351 0.478269 0.181037
vn 0.859351 0.478269 0.181037
vn 0.859351 0.478269 0.181037
vn 0.907009 0.403443 0.120700
vn 0.859351 0.478269 0.181037
vn 0.907009 0.403443 0.120700
vn 0.907009 0.403443 0.120700
vn -0.962129 0.257349 0.089891
vn -0.975755 0.211421 0.056601
vn -0.975755 0.211421 0.056601
vn 0.000000 -0.871258 -0.490826
vn 0.000000 -0.871258 -0.490826
vn 0.000000 -0.871258 -0.490826
vn 0.000000 -0.871258 -0.490826
vn 0.000000 -0.871258 -0.490826
vn 0.000000 -0.871258 -0.490826
vn -0.907011 0.403439 0.120700
vn -0.907011 0.403439 0.120700
vn -0.944227 0.323971 0.058974
vn -0.000000 0.925405 -0.378980
vn -0.000000 0.925405 -0.378980
vn -0.000000 0.925405 -0.378980
vn -0.000000 0.925405 -0.378980
vn -0.000000 0.925405 -0.378980
vn 0.000000 0.925405 -0.378979
vn -0.000000 0.925405 -0.378980
vn 0.000000 0.925405 -0.378979
vn 0.000000 0.925405 -0.378979
vn -0.000000 0.925405 -0.378980
vn 0.000000 0.925405 -0.378979
vn 0.000000 0.925405 -0.378979
vn -0.000001 0.632364 0.774671
vn -0.000001 0.632364 0.774671
vn -0.000001 0.632364 0.774671
vn -0.000001 0.632364 0.774671
vn -0.000001 0.632364 0.774671
vn -0.000001 0.632364 0.774671
vn 0.944226 0.323974 0.058974
vn 0.907009 0.403443 0.120700
vn 0.907009 0.403443 0.120700
vn -0.000000 0.989287 0.145986
vn -0.000000 0.989287 0.145986
vn -0.000000 0.989287 0.145986
vn -0.000000 0.989287 0.145986
vn -0.000000 0.989287 0.145986
vn -0.000000 0.989287 0.145986
f 30/1/1 31/2/2 44/3/3
f 30/4/4 44/5/5 43/6/6
f 30/7/7 43/8/8 45/9/9
f 30/10/10 45/11/11 32/12/12
f 30/13/13 32/14/14 29/15/15
f 2/16/16 16/17/17 9/18/18
f 2/19/19 9/20/20 18/21/21
f 8/22/22 9/23/23 16/24/24
f 8/25/25 16/26/26 15/27/27
f 7/28/28 10/29/29 20/30/30
f 7/31/31 20/32/32 19/33/33
f 24/34/34 22/35/35 17/36/36
f 24/37/37 17/38/38 21/39/39
f 25/40/40 26/41/41 28/42/42
f 25/43/43 28/44/44 27/45/45
f 25/46/46 27/47/47 47/48/48
f 25/49/49 47/50/50 46/51/51
f 25/52/52 46/53/53 48/54/54
f 23/55/55 2/56/56 18/57/57
f 23/58/58 18/59/59 1/60/60
f 22/61/61 7/62/62 19/63/63
f 22/64/64 19/65/65 17/66/66
f 26/67/67 25/68/68 13/69/69
f 26/70/70 13/71/71 4/72/72
f 28/73/73 26/74/74 11/75/75
f 17/76/76 19/77/77 20/78/78
f 17/79/79 20/80/80 27/81/81
f 17/82/82 27/83/83 28/84/84
f 17/85/85 28/86/86 21/87/87
f 21/88/88 28/89/89 11/90/90
f 21/91/91 11/92/92 24/93/93
f 12/94/94 30/95/95 29/96/96
f 37/97/97 6/98/98 13/99/99
f 37/100/100 13/101/101 25/102/102
f 37/103/103 25/104/104 39/105/105
f 15/106/106 16/107/107 2/108/108
f 15/109/109 2/110/110 23/111/111
f 15/112/112 23/113/113 29/114/114
f 15/115/115 29/116/116 32/117/117
f 8/118/118 15/119/119 32/120/120
f 8/121/121 32/122/122 41/123/123
f 8/124/124 41/125/125 3/126/126
f 31/127/127 34/128/128 33/129/129
f 31/130/130 33/131/131 38/132/132
f 31/133/133 38/134/134 40/135/135
f 11/136/136 26/137/137 4/138/138
f 11/139/139 4/140/140 14/141/141
f 30/142/142 12/143/143 35/144/144
f 30/145/145 35/146/146 36/147/147
f 31/148/148 30/149/149 36/150/150
f 31/151/151 36/152/152 34/153/153
f 1/154/154 12/155/155 29/156/156
f 1/157/157 29/158/158 23/159/159
f 20/160/160 10/161/161 5/162/162
f 20/163/163 5/164/164 42/165/165
f 20/166/166 42/167/167 27/168/168
f 44/169/169 31/170/170 40/171/171
f 40/172/172 38/173/173 37/174/174
f 40/175/175 37/176/176 39/177/177
f 41/178/178 32/179/179 45/180/180
f 48/181/181 46/182/182 47/183/183
f 48/184/184 47/185/185 45/186/186
f 48/187/187 45/188/188 43/189/189
f 48/190/190 43/191/191 44/192/192
f 42/193/193 5/194/194 3/195/195
f 42/196/196 3/197/197 41/198/198
f 47/199/199 27/200/200 42/201/201
f 42/202/202 41/203/203 45/204/204
f 42/205/205 45/206/206 47/207/207
