v -0.070341 0.974670 0.824978
v -0.990349 0.974670 0.824978
v -0.067144 0.534748 0.824890
v -1.965538 0.541005 -2.849229
v -0.066916 0.107703 0.544915
v -1.961852 0.822716 2.624691
v -0.394387 0.107703 0.544915
v -1.965538 0.268018 -2.758055
v -1.965215 0.000012 1.672330
v -1.965446 1.225409 1.672196
v -0.989540 0.534748 0.824890
v -1.963624 0.535590 2.755976
v -0.070341 0.974010 -0.824978
v -0.990349 0.974010 -0.824978
v -0.066916 0.107044 -0.544915
v -0.989540 0.534089 -0.824890
v -0.067144 0.534089 -0.824890
v -1.965397 0.277209 2.593498
v -0.394387 0.107044 -0.544915
v -1.965538 0.827213 -2.762729
v -1.967495 -0.001543 -1.667450
v -1.967494 1.221650 -1.665114
v -0.990349 1.435133 -0.824978
v -0.990349 1.435792 0.824978
v -0.070341 1.435133 -0.824978
v -0.070341 1.435792 0.824978
v -4.002608 0.266466 -2.758055
v -4.003579 0.000012 1.672332
v -3.999770 1.220224 -1.665113
v -4.001587 1.225409 1.672198
v -4.002396 0.822716 2.624693
v -4.000651 0.277209 2.593499
v -4.000147 0.826478 -2.762729
v -4.001325 0.000012 -1.667449
v -3.998343 0.535590 2.755977
v -4.001378 0.539861 -2.849228
vt 0.580269 0.574763
vt 0.571160 0.541845
vt 0.705145 0.541748
vt 0.358478 0.183173
vt 0.390599 0.183173
vt 0.410292 0.224064
vt 0.358478 0.183173
vt 0.410292 0.224064
vt 0.311405 0.224064
vt 0.654258 0.531851
vt 0.654258 0.531851
vt 0.729873 0.531776
vt 0.654258 0.531851
vt 0.729873 0.531776
vt 0.729873 0.531776
vt 0.705145 0.541748
vt 0.571160 0.541845
vt 0.582433 0.512222
vt 0.311405 0.224064
vt 0.410292 0.224064
vt 0.390599 0.183173
vt 0.311405 0.224064
vt 0.390599 0.183173
vt 0.358478 0.183173
vt 0.308933 0.268223
vt 0.410292 0.268223
vt 0.410292 0.224064
vt 0.308933 0.268223
vt 0.410292 0.224064
vt 0.311405 0.224064
vt 0.860677 0.562500
vt 0.861979 0.501302
vt 0.747396 0.501302
vt 0.860677 0.562500
vt 0.747396 0.501302
vt 0.748107 0.563019
vt 0.411341 0.002118
vt 0.293620 0.040647
vt 0.272856 0.076560
vt 0.411341 0.002118
vt 0.272856 0.076560
vt 0.289634 0.116470
vt 0.411341 0.002118
vt 0.289634 0.116470
vt 0.411359 0.172442
vt 0.634832 0.580811
vt 0.749299 0.580735
vt 0.729873 0.531776
vt 0.634832 0.580811
vt 0.729873 0.531776
vt 0.654258 0.531851
vt 0.311405 0.224064
vt 0.410292 0.224064
vt 0.410292 0.268223
vt 0.311405 0.224064
vt 0.410292 0.268223
vt 0.308933 0.268223
vt 0.819611 0.541673
vt 0.960067 0.542466
vt 0.954065 0.575278
vt 0.837852 0.171919
vt 0.978123 0.117095
vt 0.989177 0.077313
vt 0.837852 0.171919
vt 0.989177 0.077313
vt 0.977525 0.039369
vt 0.837852 0.171919
vt 0.977525 0.039369
vt 0.838151 0.001902
vt 0.954065 0.575278
vt 0.877909 0.620499
vt 0.819618 0.592108
vt 0.953741 0.511168
vt 0.960067 0.542466
vt 0.819611 0.541673
vt 0.705138 0.592184
vt 0.646356 0.620930
vt 0.580269 0.574763
vt 0.705145 0.541748
vt 0.582433 0.512222
vt 0.646347 0.480442
vt 0.878071 0.480264
vt 0.953741 0.511168
vt 0.819611 0.541673
vt 0.819618 0.592108
vt 0.877909 0.620499
vt 0.646356 0.620930
vt 0.819618 0.592108
vt 0.646356 0.620930
vt 0.705138 0.592184
vt 0.837852 0.171919
vt 0.838151 0.001902
vt 0.411341 0.002118
vt 0.837852 0.171919
vt 0.411341 0.002118
vt 0.411359 0.172442
vt 0.878071 0.480264
vt 0.819611 0.541673
vt 0.705145 0.541748
vt 0.878071 0.480264
vt 0.705145 0.541748
vt 0.646347 0.480442
vt 0.580269 0.574763
vt 0.705145 0.541748
vt 0.705138 0.592184
vt 0.819618 0.592108
vt 0.819611 0.541673
vt 0.954065 0.575278
vt 0.634826 0.631246
vt 0.634832 0.580811
vt 0.654258 0.531851
vt 0.634826 0.631246
vt 0.654258 0.531851
vt 0.729873 0.531776
vt 0.634826 0.631246
vt 0.729873 0.531776
vt 0.749299 0.580735
vt 0.634826 0.631246
vt 0.749299 0.580735
vt 0.749305 0.631171
vt 0.749305 0.631171
vt 0.634826 0.631246
vt 0.634826 0.684113
vt 0.749305 0.631171
vt 0.634826 0.684113
vt 0.749305 0.684037
vt 0.308933 0.268223
vt 0.410292 0.268223
vt 0.409872 0.315752
vt 0.308933 0.268223
vt 0.409872 0.315752
vt 0.305800 0.314547
vt 0.634826 0.631246
vt 0.749305 0.631171
vt 0.749305 0.684037
vt 0.634826 0.631246
vt 0.749305 0.684037
vt 0.634826 0.684113
vt 0.410292 0.268223
vt 0.308933 0.268223
vt 0.305800 0.314547
vt 0.410292 0.268223
vt 0.305800 0.314547
vt 0.409872 0.315752
vt 0.837852 0.171721
vt 0.838151 0.002118
vt 0.411341 0.002118
vt 0.837852 0.171721
vt 0.411341 0.002118
vt 0.411358 0.172442
vt 0.837852 0.171721
vt 0.978122 0.116992
vt 0.989177 0.077154
vt 0.837852 0.171721
vt 0.989177 0.077154
vt 0.977525 0.039154
vt 0.837852 0.171721
vt 0.977525 0.039154
vt 0.838151 0.002118
vt 0.411341 0.002118
vt 0.293620 0.040647
vt 0.272856 0.076560
vt 0.411341 0.002118
vt 0.272856 0.076560
vt 0.289634 0.116470
vt 0.411341 0.002118
vt 0.289634 0.116470
vt 0.411358 0.172442
vn 0.882025 0.099488 0.460581
vn 0.892048 -0.041956 0.449988
vn 0.888193 -0.027189 0.458665
vn 0.000000 -0.548282 -0.836294
vn 0.000000 -0.548282 -0.836294
vn 0.000000 -0.548282 -0.836294
vn 0.000000 -0.548282 -0.836294
vn 0.000000 -0.548282 -0.836294
vn 0.000000 -0.548282 -0.836294
vn 0.000000 -1.000000 0.000605
vn 0.000000 -1.000000 0.000605
vn 0.000000 -1.000000 0.000605
vn 0.000000 -1.000000 0.000605
vn 0.000000 -1.000000 0.000605
vn 0.000000 -1.000000 0.000605
vn 0.888193 -0.027189 0.458665
vn 0.892048 -0.041956 0.449988
vn 0.857601 -0.277988 0.432715
vn 0.000000 -0.548282 0.836294
vn 0.000000 -0.548282 0.836294
vn 0.000000 -0.548282 0.836294
vn 0.000000 -0.548282 0.836294
vn 0.000000 -0.548282 0.836294
vn 0.000000 -0.548282 0.836294
vn 0.000000 -0.000100 1.000000
vn 0.000000 -0.000100 1.000000
vn 0.000000 -0.000199 1.000000
vn 0.000000 -0.000100 1.000000
vn 0.000000 -0.000199 1.000000
vn 0.000000 -0.000199 1.000000
vn 0.000000 1.000000 -0.000400
vn 0.000000 1.000000 -0.000400
vn 0.000000 1.000000 -0.000400
vn 0.000000 1.000000 -0.000400
vn 0.000000 1.000000 -0.000400
vn 0.000000 1.000000 -0.000400
vn -0.999999 0.000978 0.001266
vn -0.999996 0.002051 0.001883
vn -0.999996 0.002051 0.001883
vn -0.999999 0.000978 0.001266
vn -0.999996 0.002051 0.001883
vn -0.999996 0.002051 0.001883
vn -0.999999 0.000978 0.001266
vn -0.999996 0.002051 0.001883
vn -0.999999 0.000978 0.001266
vn -0.582987 -0.812482 0.000391
vn -0.582987 -0.812482 0.000391
vn -0.582987 -0.812482 0.000391
vn -0.582987 -0.812482 0.000391
vn -0.582987 -0.812482 0.000391
vn -0.582987 -0.812482 0.000391
vn 0.000000 -0.000199 -1.000000
vn 0.000000 -0.000199 -1.000000
vn 0.000000 -0.000100 -1.000000
vn 0.000000 -0.000199 -1.000000
vn 0.000000 -0.000100 -1.000000
vn 0.000000 -0.000100 -1.000000
vn 0.898253 -0.004056 -0.439461
vn 0.900742 -0.006887 -0.434300
vn 0.895146 0.065930 -0.440870
vn -1.000000 -0.000048 -0.000548
vn -0.999998 -0.000002 -0.001744
vn -0.999998 -0.000002 -0.001744
vn -1.000000 -0.000048 -0.000548
vn -0.999998 -0.000002 -0.001744
vn -0.999998 -0.000002 -0.001744
vn -1.000000 -0.000048 -0.000548
vn -0.999998 -0.000002 -0.001744
vn -1.000000 -0.000048 -0.000548
vn 0.467343 0.832251 -0.298242
vn 0.364499 0.918616 -0.152596
vn 0.364499 0.918616 -0.152596
vn 0.891235 -0.143674 -0.430183
vn 0.900742 -0.006887 -0.434300
vn 0.898253 -0.004056 -0.439461
vn 0.382443 0.907816 0.172068
vn 0.382443 0.907816 0.172068
vn 0.497679 0.799569 0.336162
vn 0.552398 -0.825579 0.115223
vn 0.612672 -0.756781 0.227851
vn 0.552398 -0.825579 0.115223
vn 0.541021 -0.835433 -0.096681
vn 0.593555 -0.781529 -0.192103
vn 0.541021 -0.835433 -0.096681
vn 0.364499 0.918616 -0.152596
vn 0.364499 0.918616 -0.152596
vn 0.382443 0.907816 0.172068
vn 0.364499 0.918616 -0.152596
vn 0.382443 0.907816 0.172068
vn 0.382443 0.907816 0.172068
vn -1.000000 -0.000048 -0.000548
vn -1.000000 -0.000048 -0.000548
vn -0.999999 0.000978 0.001266
vn -1.000000 -0.000048 -0.000548
vn -0.999999 0.000978 0.001266
vn -0.999999 0.000978 0.001266
vn 0.541021 -0.835433 -0.096681
vn 0.541021 -0.835433 -0.096681
vn 0.552398 -0.825579 0.115223
vn 0.541021 -0.835433 -0.096681
vn 0.552398 -0.825579 0.115223
vn 0.552398 -0.825579 0.115223
vn 0.882025 0.099488 0.460581
vn 0.888193 -0.027189 0.458665
vn 0.879921 0.001523 0.475118
vn 0.893212 0.001552 -0.449633
vn 0.898253 -0.004056 -0.439461
vn 0.895146 0.065930 -0.440870
vn 0.999998 0.002131 -0.000001
vn 0.999991 0.004262 -0.000002
vn 0.999991 0.004262 -0.000002
vn 0.999998 0.002131 -0.000001
vn 0.999991 0.004262 -0.000002
vn 0.999991 0.004262 -0.000002
vn 0.999998 0.002131 -0.000001
vn 0.999991 0.004262 -0.000002
vn 0.999991 0.004262 -0.000002
vn 0.999998 0.002131 -0.000001
vn 0.999991 0.004262 -0.000002
vn 0.999998 0.002131 -0.000001
vn -1.000000 0.000000 0.000000
vn -1.000000 0.000000 0.000000
vn -1.000000 0.000000 0.000000
vn -1.000000 0.000000 0.000000
vn -1.000000 0.000000 0.000000
vn -1.000000 0.000000 0.000000
vn 0.000000 -0.000100 -1.000000
vn 0.000000 -0.000100 -1.000000
vn 0.000000 0.000000 -1.000000
vn 0.000000 -0.000100 -1.000000
vn 0.000000 0.000000 -1.000000
vn 0.000000 0.000000 -1.000000
vn 0.999998 0.002131 -0.000001
vn 0.999998 0.002131 -0.000001
vn 1.000000 0.000000 -0.000000
vn 0.999998 0.002131 -0.000001
vn 1.000000 0.000000 -0.000000
vn 1.000000 0.000000 -0.000000
vn 0.000000 -0.000100 1.000000
vn 0.000000 -0.000100 1.000000
vn 0.000000 0.000000 1.000000
vn 0.000000 -0.000100 1.000000
vn 0.000000 0.000000 1.000000
vn 0.000000 0.000000 1.000000
vn -0.999998 0.001881 -0.000003
vn -0.999998 0.001881 -0.000003
vn -1.000000 0.000681 0.000728
vn -0.999998 0.001881 -0.000003
vn -1.000000 0.000681 0.000728
vn -1.000000 0.000681 0.000728
vn -0.999998 0.001881 -0.000003
vn -0.999997 0.002310 0.000604
vn -0.999997 0.002310 0.000604
vn -0.999998 0.001881 -0.000003
vn -0.999997 0.002310 0.000604
vn -0.999997 0.002310 0.000604
vn -0.999998 0.001881 -0.000003
vn -0.999997 0.002310 0.000604
vn -0.999998 0.001881 -0.000003
vn -1.000000 0.000681 0.000728
vn -0.999998 -0.000090 0.002068
vn -0.999998 -0.000090 0.002068
vn -1.000000 0.000681 0.000728
vn -0.999998 -0.000090 0.002068
vn -0.999998 -0.000090 0.002068
vn -1.000000 0.000681 0.000728
vn -0.999998 -0.000090 0.002068
vn -1.000000 0.000681 0.000728
f 6/1/1 12/2/2 11/3/3
f 15/4/4 19/5/5 16/6/6
f 15/7/7 16/8/8 17/9/9
f 5/10/10 7/11/11 19/12/12
f 5/13/13 19/14/14 15/15/15
f 11/16/16 12/17/17 18/18/18
f 3/19/19 11/20/20 7/21/21
f 3/22/22 7/23/23 5/24/24
f 1/25/25 2/26/26 11/27/27
f 1/28/28 11/29/29 3/30/30
f 25/31/31 23/32/32 24/33/33
f 25/34/34 24/35/35 26/36/36
f 9/37/37 18/38/38 12/39/39
f 9/40/40 12/41/41 6/42/42
f 9/43/43 6/44/44 10/45/45
f 11/46/46 16/47/47 19/48/48
f 11/49/49 19/50/50 7/51/51
f 17/52/52 16/53/53 14/54/54
f 17/55/55 14/56/56 13/57/57
f 16/58/58 4/59/59 20/60/60
f 22/61/61 20/62/62 4/63/63
f 22/64/64 4/65/65 8/66/66
f 22/67/67 8/68/68 21/69/69
f 20/70/70 22/71/71 14/72/72
f 8/73/73 4/74/74 16/75/75
f 2/76/76 10/77/77 6/78/78
f 11/79/79 18/80/80 9/81/81
f 21/82/82 8/83/83 16/84/84
f 14/85/85 22/86/86 10/87/87
f 14/88/88 10/89/89 2/90/90
f 22/91/91 21/92/92 9/93/93
f 22/94/94 9/95/95 10/96/96
f 21/97/97 16/98/98 11/99/99
f 21/100/100 11/101/101 9/102/102
f 6/103/103 11/104/104 2/105/105
f 14/106/106 16/107/107 20/108/108
f 1/109/109 3/110/110 5/111/111
f 1/112/112 5/113/113 15/114/114
f 1/115/115 15/116/116 17/117/117
f 1/118/118 17/119/119 13/120/120
f 14/121/121 2/122/122 24/123/123
f 14/124/124 24/125/125 23/126/126
f 13/127/127 14/128/128 23/129/129
f 13/130/130 23/131/131 25/132/132
f 1/133/133 13/134/134 25/135/135
f 1/136/136 25/137/137 26/138/138
f 2/139/139 1/140/140 26/141/141
f 2/142/142 26/143/143 24/144/144
f 29/145/145 34/146/146 28/147/147
f 29/148/148 28/149/149 30/150/150
f 29/151/151 33/152/152 36/153/153
f 29/154/154 36/155/155 27/156/156
f 29/157/157 27/158/158 34/159/159
f 28/160/160 32/161/161 35/162/162
f 28/163/163 35/164/164 31/165/165
f 28/166/166 31/167/167 30/168/168
