v 31.999998 0.005206 31.999998
v 23.999998 0.000000 31.999998
v 15.999997 0.000000 31.999998
v 7.999997 0.000000 32.000000
v -0.000003 0.000000 32.000000
v -8.000003 0.000000 32.000000
v -16.000002 0.000000 32.000000
v -24.000002 0.000000 32.000004
v -32.000004 0.005206 32.000004
v -32.000000 0.005206 -32.000000
v -32.000000 0.000000 -24.000000
v -32.000000 0.000000 -16.000000
v -32.000000 0.000000 -8.000000
v -32.000000 0.000000 0.000000
v -32.000000 0.000000 8.000000
v -32.000000 0.000000 16.000000
v -32.000000 0.000000 24.000000
v -24.000000 0.000000 -32.000000
v -24.000000 2.000000 -24.000000
v -24.000000 2.000000 -16.000000
v -24.000000 2.000000 -8.000000
v -24.000000 2.000000 0.000000
v -24.000000 2.000000 8.000000
v -24.000000 2.000000 16.000000
v -24.000000 2.000000 24.000000
v -16.000000 0.000000 -32.000000
v -16.000000 2.000000 -24.000000
v -16.000000 2.000000 24.000000
v -8.000000 0.000000 -32.000000
v -8.000000 2.000000 -24.000000
v -8.000000 2.000000 24.000000
v 0.000000 0.000000 -32.000000
v 0.000000 2.000000 -24.000000
v 0.000000 2.000000 24.000000
v 8.000000 0.000000 -32.000000
v 8.000000 2.000000 24.000000
v 16.000000 0.000000 -32.000000
v 16.000000 2.000000 24.000000
v 24.000000 0.000000 -32.000000
v 24.000000 2.000000 -24.000000
v 24.000000 2.000000 0.000000
v 24.000000 2.000000 8.000000
v 24.000000 2.000000 16.000000
v 24.000000 2.000000 24.000000
v 32.000000 0.005206 -32.000000
v 32.000000 0.000000 -24.000000
v 32.000000 0.000000 -16.000000
v 32.000000 0.000000 -8.000000
v 32.000000 0.000000 0.000000
v 32.000000 0.000000 8.000000
v 32.000000 0.000000 16.000000
v 32.000000 0.000000 24.000000
v 0.000000 2.000000 -8.000000
v -8.000000 2.000000 -8.000000
v -8.000000 2.000000 8.000000
v 8.000000 2.000000 0.000000
v -16.000000 2.000000 8.000000
v 8.000000 2.000000 -24.000000
v 8.000000 2.000000 8.000000
v 16.000000 2.000000 -24.000000
v -8.000000 2.000000 0.000000
v 8.000000 2.000000 16.000000
v -16.000000 2.000000 16.000000
v -16.000000 2.000000 -8.000000
v 24.000000 2.000000 -16.000000
v 24.000000 2.000000 -8.000000
v 8.000000 2.000000 -8.000000
v 14.000000 2.000000 16.000000
v -16.000000 2.000000 -18.000000
v 22.000000 2.000000 0.000000
v -16.000000 2.000000 -14.000000
v -8.000000 2.000000 -20.000000
v -8.000000 2.000000 -12.000000
v 20.000000 2.000000 8.000000
v 0.000000 2.000000 -10.000000
v 12.000000 2.000000 8.000000
v 0.000000 2.000000 -22.000000
v 10.000000 2.000000 0.000000
v 18.000000 2.000000 16.000000
v -8.000000 2.000000 16.000000
v -0.000000 2.000000 16.000000
v -0.000000 2.000000 8.000000
v -16.000000 2.000000 0.000000
v 0.000000 2.000000 0.000000
vt 0.256180 0.131155
vt 0.256180 0.000886
vt 0.055340 0.000886
vt 0.256180 0.131155
vt 0.055340 0.000886
vt 0.055340 0.196290
vt 0.256180 0.082304
vt 0.256180 0.000886
vt 0.055340 -0.000277
vt 0.256180 0.082304
vt 0.055340 -0.000277
vt 0.055340 0.147439
vt 0.256180 0.131155
vt 0.256180 0.000886
vt 0.055340 0.000886
vt 0.256180 0.131155
vt 0.055340 0.000886
vt 0.055340 0.196290
vt 0.001953 0.000000
vt 0.001953 0.251953
vt 0.251953 0.189453
vt 0.001953 0.000000
vt 0.251953 0.189453
vt 0.251953 0.001953
vt 0.256180 0.000886
vt 0.056237 0.002049
vt 0.055340 0.089283
vt 0.055340 0.147439
vt 0.055340 -0.000277
vt 0.256180 0.000886
vt 0.055340 0.147439
vt 0.256180 0.000886
vt 0.256180 0.082304
vt 0.376953 0.626953
vt 0.376953 0.751953
vt 0.251953 0.751953
vt 0.376953 0.626953
vt 0.251953 0.751953
vt 0.251953 0.626953
vt 0.055340 0.089283
vt 0.056237 0.002049
vt 0.256180 0.000886
vt 0.055340 0.196290
vt 0.055340 0.000886
vt 0.256180 0.000886
vt 0.055340 0.196290
vt 0.256180 0.000886
vt 0.256180 0.131155
vt 0.751953 0.626953
vt 0.751953 0.751953
vt 0.626953 0.751953
vt 0.751953 0.626953
vt 0.626953 0.751953
vt 0.626953 0.626953
vt 0.001953 0.251953
vt 0.001953 0.000000
vt 0.251953 0.001953
vt 0.001953 0.251953
vt 0.251953 0.001953
vt 0.251953 0.189453
vt 0.055340 0.196290
vt 0.055340 0.000886
vt 0.256180 0.000886
vt 0.055340 0.196290
vt 0.256180 0.000886
vt 0.256180 0.131155
vt 0.055340 0.147439
vt 0.055340 -0.000277
vt 0.256180 0.000886
vt 0.055340 0.147439
vt 0.256180 0.000886
vt 0.256180 0.082304
vt 0.055340 0.089283
vt 0.056237 0.002049
vt 0.256180 0.000886
vt 0.251953 0.189453
vt 0.251953 0.001953
vt 0.001953 0.000000
vt 0.251953 0.189453
vt 0.001953 0.000000
vt 0.001953 0.251953
vt 0.256180 0.082304
vt 0.256180 0.000886
vt 0.055340 -0.000277
vt 0.256180 0.082304
vt 0.055340 -0.000277
vt 0.055340 0.147439
vt 0.256180 0.000886
vt 0.056237 0.002049
vt 0.055340 0.089283
vt 0.751953 0.751953
vt 0.998047 0.751953
vt 0.998047 0.501953
vt 0.751953 0.751953
vt 0.998047 0.501953
vt 0.751953 0.501953
vt 0.998047 0.501953
vt 0.751953 0.501953
vt 0.751953 0.751953
vt 0.998047 0.501953
vt 0.751953 0.751953
vt 0.998047 0.751953
vt 0.998047 0.501953
vt 0.751953 0.501953
vt 0.751953 0.751953
vt 0.998047 0.501953
vt 0.751953 0.751953
vt 0.998047 0.751953
vt 0.751953 0.751953
vt 0.998047 0.751953
vt 0.998047 0.501953
vt 0.751953 0.751953
vt 0.998047 0.501953
vt 0.751953 0.501953
vt 0.875000 0.875000
vt 0.875000 1.000000
vt 1.000000 1.000000
vt 0.998047 0.501953
vt 0.751953 0.501953
vt 0.751953 0.751953
vt 0.998047 0.501953
vt 0.751953 0.751953
vt 0.998047 0.751953
vt 0.501953 0.251953
vt 0.501953 0.001953
vt 0.251953 0.001953
vt 0.501953 0.251953
vt 0.251953 0.001953
vt 0.251953 0.251953
vt 0.751953 0.751953
vt 0.998047 0.751953
vt 0.998047 0.501953
vt 0.751953 0.751953
vt 0.998047 0.501953
vt 0.751953 0.501953
vt 0.998047 0.501953
vt 0.751953 0.501953
vt 0.751953 0.751953
vt 0.998047 0.501953
vt 0.751953 0.751953
vt 0.998047 0.751953
vt 0.751953 0.501953
vt 0.751953 0.751953
vt 0.998047 0.751953
vt 0.751953 0.501953
vt 0.998047 0.751953
vt 0.998047 0.501953
vt 0.751953 0.751953
vt 0.998047 0.751953
vt 0.998047 0.501953
vt 0.751953 0.751953
vt 0.998047 0.501953
vt 0.751953 0.501953
vt 0.998047 0.501953
vt 0.751953 0.501953
vt 0.751953 0.751953
vt 0.998047 0.501953
vt 0.751953 0.751953
vt 0.998047 0.751953
vt 0.751953 0.251953
vt 0.751953 0.001953
vt 0.501953 0.001953
vt 0.751953 0.251953
vt 0.501953 0.001953
vt 0.501953 0.251953
vt 0.875000 0.125000
vt 1.000000 0.125000
vt 1.000000 0.000000
vt 0.751953 0.501953
vt 0.751953 0.751953
vt 0.998047 0.751953
vt 0.751953 0.501953
vt 0.998047 0.751953
vt 0.998047 0.501953
vt 0.751953 0.501953
vt 0.751953 0.751953
vt 0.998047 0.751953
vt 0.751953 0.501953
vt 0.998047 0.751953
vt 0.998047 0.501953
vt 0.751953 0.501953
vt 0.751953 0.751953
vt 0.998047 0.751953
vt 0.751953 0.501953
vt 0.998047 0.751953
vt 0.998047 0.501953
vt 0.751953 0.501953
vt 0.751953 0.751953
vt 0.998047 0.751953
vt 0.751953 0.501953
vt 0.998047 0.751953
vt 0.998047 0.501953
vt 0.751953 0.501953
vt 0.751953 0.751953
vt 0.998047 0.751953
vt 0.751953 0.501953
vt 0.998047 0.751953
vt 0.998047 0.501953
vt 0.998047 0.501953
vt 0.751953 0.501953
vt 0.751953 0.751953
vt 0.998047 0.501953
vt 0.751953 0.751953
vt 0.998047 0.751953
vt 0.998047 0.001953
vt 0.751953 0.001953
vt 0.751953 0.251953
vt 0.998047 0.501953
vt 0.998047 0.251953
vt 0.751953 0.251953
vt 0.998047 0.501953
vt 0.751953 0.251953
vt 0.751953 0.501953
vt 0.998047 0.751953
vt 0.998047 0.501953
vt 0.751953 0.501953
vt 0.998047 0.751953
vt 0.751953 0.501953
vt 0.751953 0.751953
vt 0.998047 0.751953
vt 0.998047 0.501953
vt 0.751953 0.501953
vt 0.998047 0.751953
vt 0.751953 0.501953
vt 0.751953 0.751953
vt 0.998047 0.751953
vt 0.998047 0.501953
vt 0.751953 0.501953
vt 0.998047 0.751953
vt 0.751953 0.501953
vt 0.751953 0.751953
vt 0.998047 0.751953
vt 0.998047 0.501953
vt 0.751953 0.501953
vt 0.998047 0.751953
vt 0.751953 0.501953
vt 0.751953 0.751953
vt 0.998047 0.751953
vt 0.998047 0.501953
vt 0.751953 0.501953
vt 0.998047 0.751953
vt 0.751953 0.501953
vt 0.751953 0.751953
vt 0.000000 0.000000
vt 0.000000 0.125000
vt 0.125000 0.125000
vt 0.251953 0.189453
vt 0.001953 0.251953
vt 0.001953 0.000000
vt 0.251953 0.189453
vt 0.001953 0.000000
vt 0.251953 0.001953
vt 0.501953 0.376953
vt 0.501953 0.251953
vt 0.626953 0.251953
vt 0.501953 0.376953
vt 0.626953 0.251953
vt 0.626953 0.376953
vt 0.626953 0.376953
vt 0.626953 0.251953
vt 0.751953 0.251953
vt 0.626953 0.376953
vt 0.751953 0.251953
vt 0.751953 0.376953
vt 0.376953 0.376953
vt 0.251953 0.376953
vt 0.251953 0.251953
vt 0.376953 0.376953
vt 0.251953 0.251953
vt 0.376953 0.251953
vt 0.626953 0.501953
vt 0.626953 0.376953
vt 0.751953 0.376953
vt 0.626953 0.501953
vt 0.751953 0.376953
vt 0.751953 0.501953
vt 0.626953 0.626953
vt 0.626953 0.501953
vt 0.751953 0.501953
vt 0.626953 0.626953
vt 0.751953 0.501953
vt 0.751953 0.626953
vt 0.376953 0.376953
vt 0.376953 0.251953
vt 0.501953 0.251953
vt 0.376953 0.376953
vt 0.501953 0.251953
vt 0.501953 0.376953
vt 0.501953 0.626953
vt 0.501953 0.751953
vt 0.376953 0.751953
vt 0.501953 0.626953
vt 0.376953 0.751953
vt 0.376953 0.626953
vt 0.626953 0.626953
vt 0.626953 0.751953
vt 0.501953 0.751953
vt 0.626953 0.626953
vt 0.501953 0.751953
vt 0.501953 0.626953
vt 0.501953 0.501953
vt 0.501953 0.376953
vt 0.626953 0.376953
vt 0.501953 0.501953
vt 0.626953 0.376953
vt 0.626953 0.501953
vt 0.376953 0.501953
vt 0.376953 0.376953
vt 0.501953 0.376953
vt 0.376953 0.501953
vt 0.501953 0.376953
vt 0.501953 0.501953
vt 0.251953 0.501953
vt 0.251953 0.376953
vt 0.376953 0.376953
vt 0.251953 0.501953
vt 0.376953 0.376953
vt 0.376953 0.501953
vt 0.251953 0.626953
vt 0.251953 0.501953
vt 0.376953 0.501953
vt 0.251953 0.626953
vt 0.376953 0.501953
vt 0.376953 0.626953
vt 0.376953 0.626953
vt 0.376953 0.501953
vt 0.501953 0.501953
vt 0.376953 0.626953
vt 0.501953 0.501953
vt 0.501953 0.626953
vt 0.501953 0.626953
vt 0.501953 0.501953
vt 0.626953 0.501953
vt 0.501953 0.626953
vt 0.626953 0.501953
vt 0.626953 0.626953
vt 0.125000 0.125000
vt 0.125000 0.000000
vt 0.000000 0.000000
vt 0.751953 0.251953
vt 0.998047 0.251953
vt 0.998047 0.001953
vt 1.000000 1.000000
vt 1.000000 0.875000
vt 0.875000 0.875000
vt 1.000000 0.000000
vt 0.875000 0.000000
vt 0.875000 0.125000
vn 0.000000 1.000000 0.000000
vn 0.000000 1.000000 0.000000
vn 0.000000 1.000000 0.000000
vn 0.000000 1.000000 0.000000
vn 0.000000 1.000000 0.000000
vn 0.000000 1.000000 0.000000
vn 0.000000 1.000000 -0.000000
vn -0.000000 1.000000 -0.000000
vn -0.000000 1.000000 -0.000000
vn 0.000000 1.000000 -0.000000
vn -0.000000 1.000000 -0.000000
vn 0.000000 1.000000 0.000000
vn 0.000000 1.000000 0.000000
vn -0.000000 1.000000 -0.000000
vn -0.000000 1.000000 -0.000000
vn 0.000000 1.000000 0.000000
vn -0.000000 1.000000 -0.000000
vn 0.000000 1.000000 0.000000
vn -0.000000 1.000000 -0.000000
vn 0.000000 1.000000 0.000000
vn 0.000000 1.000000 0.000000
vn -0.000000 1.000000 -0.000000
vn 0.000000 1.000000 0.000000
vn -0.000000 1.000000 -0.000000
vn 0.000000 1.000000 0.000000
vn 0.000000 1.000000 0.000000
vn 0.000000 1.000000 0.000000
vn 0.000000 1.000000 0.000000
vn 0.000000 1.000000 0.000000
vn 0.000000 1.000000 0.000000
vn 0.000000 1.000000 0.000000
vn 0.000000 1.000000 0.000000
vn 0.000000 1.000000 0.000000
vn -0.000000 1.000000 0.000000
vn -0.000000 1.000000 -0.000000
vn 0.000000 1.000000 -0.000000
vn -0.000000 1.000000 0.000000
vn 0.000000 1.000000 -0.000000
vn 0.000000 1.000000 0.000000
vn 0.000000 1.000000 0.000000
vn 0.000000 1.000000 0.000000
vn 0.000000 1.000000 -0.000000
vn 0.000000 1.000000 0.000000
vn 0.000000 1.000000 0.000000
vn 0.000000 1.000000 0.000000
vn 0.000000 1.000000 0.000000
vn 0.000000 1.000000 0.000000
vn 0.000000 1.000000 0.000000
vn -0.000000 1.000000 -0.000000
vn -0.000000 1.000000 -0.000000
vn -0.000000 1.000000 -0.000000
vn -0.000000 1.000000 -0.000000
vn -0.000000 1.000000 -0.000000
vn -0.000000 1.000000 -0.000000
vn 0.000000 1.000000 0.000000
vn 0.000000 1.000000 0.000000
vn 0.000000 1.000000 0.000000
vn 0.000000 1.000000 0.000000
vn 0.000000 1.000000 0.000000
vn 0.000000 1.000000 0.000000
vn 0.000000 1.000000 0.000000
vn 0.000000 1.000000 0.000000
vn 0.000000 1.000000 0.000000
vn 0.000000 1.000000 0.000000
vn 0.000000 1.000000 0.000000
vn 0.000000 1.000000 0.000000
vn 0.000000 1.000000 0.000000
vn 0.000000 1.000000 0.000000
vn 0.000000 1.000000 0.000000
vn 0.000000 1.000000 0.000000
vn 0.000000 1.000000 0.000000
vn 0.000000 1.000000 0.000000
vn 0.000000 1.000000 0.000000
vn 0.000000 1.000000 0.000000
vn 0.000000 1.000000 0.000000
vn 0.000000 1.000000 0.000000
vn 0.000000 1.000000 0.000000
vn 0.000000 1.000000 0.000000
vn 0.000000 1.000000 0.000000
vn 0.000000 1.000000 0.000000
vn 0.000000 1.000000 0.000000
vn 0.000000 1.000000 0.000000
vn 0.000000 1.000000 0.000000
vn 0.000000 1.000000 0.000000
vn 0.000000 1.000000 0.000000
vn 0.000000 1.000000 0.000000
vn 0.000000 1.000000 0.000000
vn 0.000000 1.000000 -0.000000
vn -0.000000 1.000000 -0.000000
vn 0.000000 1.000000 -0.000000
vn 0.000000 0.970142 0.242536
vn 0.000000 0.970142 0.242536
vn 0.000000 0.970142 0.242536
vn 0.000000 0.970142 0.242536
vn 0.000000 0.970142 0.242536
vn 0.000000 0.970142 0.242536
vn 0.000000 0.970142 -0.242536
vn 0.000000 0.970142 -0.242536
vn 0.000000 0.970142 -0.242536
vn 0.000000 0.970142 -0.242536
vn 0.000000 0.970142 -0.242536
vn 0.000000 0.970142 -0.242536
vn 0.000000 0.970142 -0.242536
vn 0.000000 0.970142 -0.242536
vn 0.000000 0.970142 -0.242536
vn 0.000000 0.970142 -0.242536
vn 0.000000 0.970142 -0.242536
vn 0.000000 0.970142 -0.242536
vn 0.000000 0.970142 0.242536
vn 0.000000 0.970142 0.242536
vn 0.000000 0.970142 0.242536
vn 0.000000 0.970142 0.242536
vn 0.000000 0.970142 0.242536
vn 0.000000 0.970142 0.242536
vn -0.000316 0.970142 0.242536
vn -0.000316 0.970142 0.242536
vn -0.000631 0.970142 0.242536
vn 0.000000 0.970142 -0.242536
vn 0.000000 0.970142 -0.242536
vn 0.000000 0.970142 -0.242536
vn 0.000000 0.970142 -0.242536
vn 0.000000 0.970142 -0.242536
vn 0.000000 0.970142 -0.242536
vn 0.000000 0.970142 0.242536
vn 0.000000 0.970142 0.242536
vn 0.000000 0.970142 0.242536
vn 0.000000 0.970142 0.242536
vn 0.000000 0.970142 0.242536
vn 0.000000 0.970142 0.242536
vn 0.000000 0.970142 0.242536
vn 0.000000 0.970142 0.242536
vn 0.000000 0.970142 0.242536
vn 0.000000 0.970142 0.242536
vn 0.000000 0.970142 0.242536
vn 0.000000 0.970142 0.242536
vn 0.000000 0.970142 -0.242536
vn 0.000000 0.970142 -0.242536
vn -0.000316 0.970142 -0.242536
vn 0.000000 0.970142 -0.242536
vn -0.000316 0.970142 -0.242536
vn -0.000316 0.970142 -0.242536
vn 0.242536 0.970142 0.000000
vn 0.242536 0.970142 -0.000316
vn 0.242536 0.970142 -0.000316
vn 0.242536 0.970142 0.000000
vn 0.242536 0.970142 -0.000316
vn 0.242536 0.970142 0.000000
vn 0.000000 0.970142 0.242536
vn 0.000000 0.970142 0.242536
vn -0.000316 0.970142 0.242536
vn 0.000000 0.970142 0.242536
vn -0.000316 0.970142 0.242536
vn -0.000316 0.970142 0.242536
vn 0.000000 0.970142 -0.242536
vn 0.000000 0.970142 -0.242536
vn 0.000000 0.970142 -0.242536
vn 0.000000 0.970142 -0.242536
vn 0.000000 0.970142 -0.242536
vn 0.000000 0.970142 -0.242536
vn 0.000316 0.970142 0.242536
vn 0.000316 0.970142 0.242536
vn 0.000000 0.970142 0.242536
vn 0.000316 0.970142 0.242536
vn 0.000000 0.970142 0.242536
vn 0.000000 0.970142 0.242536
vn 0.242536 0.970142 0.000316
vn 0.242536 0.970142 0.000316
vn 0.242536 0.970142 0.000631
vn 0.242536 0.970142 0.000316
vn 0.242536 0.970142 0.000000
vn 0.242536 0.970142 0.000000
vn 0.242536 0.970142 0.000316
vn 0.242536 0.970142 0.000000
vn 0.242536 0.970142 0.000316
vn 0.242536 0.970142 0.000000
vn 0.242536 0.970142 0.000000
vn 0.242536 0.970142 0.000000
vn 0.242536 0.970142 0.000000
vn 0.242536 0.970142 0.000000
vn 0.242536 0.970142 0.000000
vn 0.242536 0.970142 0.000000
vn 0.242536 0.970142 0.000000
vn 0.242536 0.970142 0.000000
vn 0.242536 0.970142 0.000000
vn 0.242536 0.970142 0.000000
vn 0.242536 0.970142 0.000000
vn 0.242536 0.970142 0.000000
vn 0.242536 0.970142 0.000000
vn 0.242536 0.970142 0.000000
vn 0.242536 0.970142 0.000000
vn 0.242536 0.970142 0.000000
vn 0.242536 0.970142 0.000000
vn 0.242536 0.970142 0.000000
vn 0.242536 0.970142 0.000000
vn 0.242536 0.970142 0.000000
vn 0.242536 0.970142 0.000000
vn 0.242536 0.970142 0.000000
vn 0.242536 0.970142 0.000000
vn 0.000316 0.970142 -0.242536
vn 0.000316 0.970142 -0.242536
vn 0.000000 0.970142 -0.242536
vn 0.000316 0.970142 -0.242536
vn 0.000000 0.970142 -0.242536
vn 0.000000 0.970142 -0.242536
vn 0.000631 0.970142 0.242535
vn 0.000316 0.970142 0.242536
vn 0.000316 0.970142 0.242536
vn -0.242536 0.970142 0.000000
vn -0.242536 0.970142 -0.000316
vn -0.242536 0.970142 -0.000316
vn -0.242536 0.970142 0.000000
vn -0.242536 0.970142 -0.000316
vn -0.242536 0.970142 0.000000
vn -0.242536 0.970142 0.000000
vn -0.242536 0.970142 0.000000
vn -0.242536 0.970142 0.000000
vn -0.242536 0.970142 0.000000
vn -0.242536 0.970142 0.000000
vn -0.242536 0.970142 0.000000
vn -0.242536 0.970142 0.000000
vn -0.242536 0.970142 0.000000
vn -0.242536 0.970142 0.000000
vn -0.242536 0.970142 0.000000
vn -0.242536 0.970142 0.000000
vn -0.242536 0.970142 0.000000
vn -0.242536 0.970142 0.000000
vn -0.242536 0.970142 0.000000
vn -0.242536 0.970142 0.000000
vn -0.242536 0.970142 0.000000
vn -0.242536 0.970142 0.000000
vn -0.242536 0.970142 0.000000
vn -0.242536 0.970142 0.000000
vn -0.242536 0.970142 0.000000
vn -0.242536 0.970142 0.000000
vn -0.242536 0.970142 0.000000
vn -0.242536 0.970142 0.000000
vn -0.242536 0.970142 0.000000
vn -0.242536 0.970142 0.000316
vn -0.242536 0.970142 0.000000
vn -0.242536 0.970142 0.000000
vn -0.242536 0.970142 0.000316
vn -0.242536 0.970142 0.000000
vn -0.242536 0.970142 0.000316
vn -0.242536 0.970142 0.000631
vn -0.242536 0.970142 0.000316
vn -0.242536 0.970142 0.000316
vn 0.000000 1.000000 0.000000
vn 0.000000 1.000000 0.000000
vn 0.000000 1.000000 0.000000
vn 0.000000 1.000000 0.000000
vn 0.000000 1.000000 0.000000
vn 0.000000 1.000000 0.000000
vn 0.000000 1.000000 0.000000
vn 0.000000 1.000000 0.000000
vn 0.000000 1.000000 -0.000000
vn 0.000000 1.000000 0.000000
vn 0.000000 1.000000 -0.000000
vn 0.000000 1.000000 -0.000000
vn 0.000000 1.000000 -0.000000
vn 0.000000 1.000000 -0.000000
vn 0.000000 1.000000 -0.000000
vn 0.000000 1.000000 -0.000000
vn 0.000000 1.000000 -0.000000
vn 0.000000 1.000000 -0.000000
vn 0.000000 1.000000 0.000000
vn 0.000000 1.000000 0.000000
vn 0.000000 1.000000 0.000000
vn 0.000000 1.000000 0.000000
vn 0.000000 1.000000 0.000000
vn 0.000000 1.000000 0.000000
vn 0.000000 1.000000 -0.000000
vn 0.000000 1.000000 -0.000000
vn 0.000000 1.000000 -0.000000
vn 0.000000 1.000000 -0.000000
vn 0.000000 1.000000 -0.000000
vn 0.000000 1.000000 -0.000000
vn -0.000000 1.000000 -0.000000
vn 0.000000 1.000000 -0.000000
vn 0.000000 1.000000 -0.000000
vn -0.000000 1.000000 -0.000000
vn 0.000000 1.000000 -0.000000
vn -0.000000 1.000000 -0.000000
vn 0.000000 1.000000 0.000000
vn 0.000000 1.000000 0.000000
vn 0.000000 1.000000 0.000000
vn 0.000000 1.000000 0.000000
vn 0.000000 1.000000 0.000000
vn 0.000000 1.000000 0.000000
vn -0.000000 1.000000 -0.000000
vn -0.000000 1.000000 -0.000000
vn -0.000000 1.000000 -0.000000
vn -0.000000 1.000000 -0.000000
vn -0.000000 1.000000 -0.000000
vn -0.000000 1.000000 0.000000
vn -0.000000 1.000000 -0.000000
vn -0.000000 1.000000 -0.000000
vn -0.000000 1.000000 -0.000000
vn -0.000000 1.000000 -0.000000
vn -0.000000 1.000000 -0.000000
vn -0.000000 1.000000 -0.000000
vn 0.000000 1.000000 0.000000
vn 0.000000 1.000000 0.000000
vn 0.000000 1.000000 -0.000000
vn 0.000000 1.000000 0.000000
vn 0.000000 1.000000 -0.000000
vn 0.000000 1.000000 -0.000000
vn 0.000000 1.000000 0.000000
vn 0.000000 1.000000 0.000000
vn 0.000000 1.000000 0.000000
vn 0.000000 1.000000 0.000000
vn 0.000000 1.000000 0.000000
vn 0.000000 1.000000 0.000000
vn 0.000000 1.000000 0.000000
vn 0.000000 1.000000 0.000000
vn 0.000000 1.000000 0.000000
vn 0.000000 1.000000 0.000000
vn 0.000000 1.000000 0.000000
vn 0.000000 1.000000 0.000000
vn 0.000000 1.000000 0.000000
vn 0.000000 1.000000 0.000000
vn 0.000000 1.000000 0.000000
vn 0.000000 1.000000 0.000000
vn 0.000000 1.000000 0.000000
vn -0.000000 1.000000 0.000000
vn -0.000000 1.000000 0.000000
vn 0.000000 1.000000 0.000000
vn 0.000000 1.000000 0.000000
vn -0.000000 1.000000 0.000000
vn 0.000000 1.000000 0.000000
vn -0.000000 1.000000 -0.000000
vn -0.000000 1.000000 -0.000000
vn 0.000000 1.000000 0.000000
vn 0.000000 1.000000 -0.000000
vn -0.000000 1.000000 -0.000000
vn 0.000000 1.000000 -0.000000
vn -0.000000 1.000000 -0.000000
vn 0.000316 0.970142 -0.242536
vn 0.000316 0.970142 -0.242536
vn 0.000631 0.970142 -0.242536
vn -0.242536 0.970142 -0.000316
vn -0.242536 0.970142 -0.000316
vn -0.242536 0.970142 -0.000631
vn 0.242536 0.970142 -0.000631
vn 0.242536 0.970142 -0.000316
vn 0.242536 0.970142 -0.000316
vn -0.000631 0.970142 -0.242536
vn -0.000316 0.970142 -0.242536
vn -0.000316 0.970142 -0.242536
f 72/1/1 30/2/2 27/3/3
f 72/4/4 27/5/5 69/6/6
f 78/7/7 56/8/8 59/9/9
f 78/10/10 59/11/11 76/12/12
f 76/13/13 59/14/14 62/15/15
f 76/16/16 62/17/17 68/18/18
f 36/19/19 38/20/20 68/21/21
f 36/22/22 68/23/23 62/24/24
f 58/25/25 33/26/26 77/27/27
f 73/28/28 54/29/29 53/30/30
f 73/31/31 53/32/32 75/33/33
f 84/34/34 56/35/35 67/36/36
f 84/37/37 67/38/38 53/39/39
f 75/40/40 53/41/41 67/42/42
f 71/43/43 64/44/44 54/45/45
f 71/46/46 54/47/47 73/48/48
f 34/49/49 36/50/50 62/51/51
f 34/52/52 62/53/53 81/54/54
f 38/55/55 44/56/56 43/57/57
f 38/58/58 43/59/59 79/60/60
f 79/61/61 43/62/62 42/63/63
f 79/64/64 42/65/65 74/66/66
f 74/67/67 42/68/68 41/69/69
f 74/70/70 41/71/71 70/72/72
f 70/73/73 41/74/74 66/75/75
f 69/76/76 27/77/77 19/78/78
f 69/79/79 19/80/80 20/81/81
f 77/82/82 33/83/83 30/84/84
f 77/85/85 30/86/86 72/87/87
f 67/88/88 56/89/89 78/90/90
f 34/91/91 5/92/92 4/93/93
f 34/94/94 4/95/95 36/96/96
f 35/97/97 58/98/98 60/99/99
f 35/100/100 60/101/101 37/102/102
f 32/103/103 33/104/104 58/105/105
f 32/106/106 58/107/107 35/108/108
f 31/109/109 6/110/110 5/111/111
f 31/112/112 5/113/113 34/114/114
f 44/115/115 2/116/116 1/117/117
f 29/118/118 30/119/119 33/120/120
f 29/121/121 33/122/122 32/123/123
f 28/124/124 7/125/125 6/126/126
f 28/127/127 6/128/128 31/129/129
f 36/130/130 4/131/131 3/132/132
f 36/133/133 3/134/134 38/135/135
f 37/136/136 60/137/137 40/138/138
f 37/139/139 40/140/140 39/141/141
f 43/142/142 44/143/143 52/144/144
f 43/145/145 52/146/146 51/147/147
f 38/148/148 3/149/149 2/150/150
f 38/151/151 2/152/152 44/153/153
f 26/154/154 27/155/155 30/156/156
f 26/157/157 30/158/158 29/159/159
f 25/160/160 8/161/161 7/162/162
f 25/163/163 7/164/164 28/165/165
f 40/166/166 46/167/167 45/168/168
f 40/169/169 65/170/170 47/171/171
f 40/172/172 47/173/173 46/174/174
f 65/175/175 66/176/176 48/177/177
f 65/178/178 48/179/179 47/180/180
f 66/181/181 41/182/182 49/183/183
f 66/184/184 49/185/185 48/186/186
f 41/187/187 42/188/188 50/189/189
f 41/190/190 50/191/191 49/192/192
f 42/193/193 43/194/194 51/195/195
f 42/196/196 51/197/197 50/198/198
f 18/199/199 19/200/200 27/201/201
f 18/202/202 27/203/203 26/204/204
f 9/205/205 8/206/206 25/207/207
f 16/208/208 17/209/209 25/210/210
f 16/211/211 25/212/212 24/213/213
f 15/214/214 16/215/215 24/216/216
f 15/217/217 24/218/218 23/219/219
f 14/220/220 15/221/221 23/222/222
f 14/223/223 23/224/224 22/225/225
f 13/226/226 14/227/227 22/228/228
f 13/229/229 22/230/230 21/231/231
f 12/232/232 13/233/233 21/234/234
f 12/235/235 21/236/236 20/237/237
f 11/238/238 12/239/239 20/240/240
f 11/241/241 20/242/242 19/243/243
f 10/244/244 11/245/245 19/246/246
f 71/247/247 20/248/248 21/249/249
f 71/250/250 21/251/251 64/252/252
f 57/253/253 23/254/254 24/255/255
f 57/256/256 24/257/257 63/258/258
f 63/259/259 24/260/260 25/261/261
f 63/262/262 25/263/263 28/264/264
f 83/265/265 64/266/266 21/267/267
f 83/268/268 21/269/269 22/270/270
f 80/271/271 63/272/272 28/273/273
f 80/274/274 28/275/275 31/276/276
f 81/277/277 80/278/278 31/279/279
f 81/280/280 31/281/281 34/282/282
f 83/283/283 22/284/284 23/285/285
f 83/286/286 23/287/287 57/288/288
f 82/289/289 59/290/290 56/291/291
f 82/292/292 56/293/293 84/294/294
f 81/295/295 62/296/296 59/297/297
f 81/298/298 59/299/299 82/300/300
f 55/301/301 57/302/302 63/303/303
f 55/304/304 63/305/305 80/306/306
f 61/307/307 83/308/308 57/309/309
f 61/310/310 57/311/311 55/312/312
f 54/313/313 64/314/314 83/315/315
f 54/316/316 83/317/317 61/318/318
f 53/319/319 54/320/320 61/321/321
f 53/322/322 61/323/323 84/324/324
f 84/325/325 61/326/326 55/327/327
f 84/328/328 55/329/329 82/330/330
f 82/331/331 55/332/332 80/333/333
f 82/334/334 80/335/335 81/336/336
f 19/337/337 18/338/338 10/339/339
f 25/340/340 17/341/341 9/342/342
f 1/343/343 52/344/344 44/345/345
f 45/346/346 39/347/347 40/348/348
