v -16.000000 0.000000 -16.000000
v -16.000000 0.000000 -8.000000
v -16.000000 0.000000 0.000000
v -16.000000 0.000000 8.000000
v -16.000000 0.000000 16.000000
v -8.000000 0.000000 -16.000000
v -8.000000 0.000000 -8.000000
v -8.000000 0.000000 0.000000
v -8.000000 0.000000 8.000000
v -8.000000 0.000000 16.000000
v 0.000000 0.000000 -16.000000
v 0.000000 0.000000 -8.000000
v 0.000000 -1.955272 0.000000
v 0.000000 0.000000 8.000000
v 0.000000 0.000000 16.000000
v 8.000000 0.000000 -16.000000
v 8.000000 0.000000 -8.000000
v 8.000000 0.000000 0.000000
v 8.000000 0.000000 8.000000
v 8.000000 0.000000 16.000000
v 16.000000 0.000000 -16.000000
v 16.000000 0.000000 -8.000000
v 16.000000 0.000000 0.000000
v 16.000000 0.000000 8.000000
v 16.000000 0.000000 16.000000
v 0.000000 -1.955272 6.000000
v 6.000000 -1.955272 6.000000
v 6.000000 -1.955272 0.000000
v 6.000000 -1.955272 -6.000000
v 0.000000 -1.955272 -6.000000
v -6.000000 -1.955272 6.000000
v -6.000000 -1.955272 0.000000
v -6.000000 -1.955272 -6.000000
v -2.000000 -0.500000 3.000000
v -5.000000 0.000000 8.000000
v -2.000000 0.000000 8.000000
v 2.000000 -0.500000 3.000000
v 2.000000 0.000000 8.000000
v 5.000000 0.000000 8.000000
v 2.000000 0.000000 3.000000
v -2.000000 0.000000 3.000000
v -5.000000 0.000000 0.000000
v -2.000000 0.000000 0.000000
v 2.000000 0.000000 0.000000
v 5.000000 0.000000 0.000000
v -5.000000 -0.500000 3.000000
v 5.000000 -0.500000 3.000000
v -5.000000 0.000000 3.000000
v 5.000000 0.000000 3.000000
v 5.000000 -1.000000 7.000000
v 2.000000 -1.000000 7.000000
v -2.000000 -1.000000 7.000000
v -5.000000 -1.000000 7.000000
vt 0.000000 0.000000
vt 0.000000 0.000000
vt 0.000000 0.000000
vt 0.000000 0.000000
vt 0.000000 0.000000
vt 0.000000 0.000000
vt 0.000000 0.000000
vt 0.000000 0.000000
vt 0.000000 0.000000
vt 0.000000 0.000000
vt 0.000000 0.000000
vt 0.000000 0.000000
vt 0.000000 0.000000
vt 0.000000 0.000000
vt 0.000000 0.000000
vt 0.000000 0.000000
vt 0.000000 0.000000
vt 0.000000 0.000000
vt 0.000000 0.000000
vt 0.000000 0.000000
vt 0.000000 0.000000
vt 0.000000 0.000000
vt 0.000000 0.000000
vt 0.000000 0.000000
vt 0.000000 0.000000
vt 0.000000 0.000000
vt 0.000000 0.000000
vt 0.000000 0.000000
vt 0.000000 0.000000
vt 0.000000 0.000000
vt 0.000000 0.000000
vt 0.000000 0.000000
vt 0.000000 0.000000
vt 0.000000 0.000000
vt 0.000000 0.000000
vt 0.000000 0.000000
vt 0.000000 0.000000
vt 0.000000 0.000000
vt 0.000000 0.000000
vt 0.000000 0.000000
vt 0.000000 0.000000
vt 0.000000 0.000000
vt 0.000000 0.000000
vt 0.000000 0.000000
vt 0.000000 0.000000
vt 0.000000 0.000000
vt 0.000000 0.000000
vt 0.000000 0.000000
vt 0.000000 0.000000
vt 0.000000 0.000000
vt 0.000000 0.000000
vt 0.000000 0.000000
vt 0.000000 0.000000
vt 0.000000 0.000000
vt 0.000000 0.000000
vt 0.000000 0.000000
vt 0.000000 0.000000
vt 0.000000 0.000000
vt 0.000000 0.000000
vt 0.000000 0.000000
vt 0.000000 0.000000
vt 0.000000 0.000000
vt 0.000000 0.000000
vt 0.000000 0.000000
vt 0.000000 0.000000
vt 0.000000 0.000000
vt 0.000000 0.000000
vt 0.000000 0.000000
vt 0.000000 0.000000
vt 0.000000 0.000000
vt 0.000000 0.000000
vt 0.000000 0.000000
vt 0.000000 0.000000
vt 0.000000 0.000000
vt 0.000000 0.000000
vt 0.000000 0.000000
vt 0.000000 0.000000
vt 0.000000 0.000000
vt 0.000000 0.000000
vt 0.000000 0.000000
vt 0.000000 0.000000
vt 0.000000 0.000000
vt 0.000000 0.000000
vt 0.000000 0.000000
vt 0.000000 0.000000
vt 0.000000 0.000000
vt 0.000000 0.000000
vt 0.000000 0.000000
vt 0.000000 0.000000
vt 0.000000 0.000000
vt 0.000000 0.000000
vt 0.000000 0.000000
vt 0.000000 0.000000
vt 0.000000 0.000000
vt 0.000000 0.000000
vt 0.000000 0.000000
vt 0.000000 0.000000
vt 0.000000 0.000000
vt 0.000000 0.000000
vt 0.000000 0.000000
vt 0.000000 0.000000
vt 0.000000 0.000000
vt 0.000000 0.000000
vt 0.000000 0.000000
vt 0.000000 0.000000
vt 0.000000 0.000000
vt 0.000000 0.000000
vt 0.000000 0.000000
vt 0.000000 0.000000
vt 0.000000 0.000000
vt 0.000000 0.000000
vt 0.000000 0.000000
vt 0.000000 0.000000
vt 0.000000 0.000000
vt 0.000000 0.000000
vt 0.000000 0.000000
vt 0.000000 0.000000
vt 0.000000 0.000000
vt 0.000000 0.000000
vt 0.000000 0.000000
vt 0.000000 0.000000
vt 0.000000 0.000000
vt 0.000000 0.000000
vt 0.000000 0.000000
vt 0.000000 0.000000
vt 0.000000 0.000000
vt 0.000000 0.000000
vt 0.000000 0.000000
vt 0.000000 0.000000
vt 0.000000 0.000000
vt 0.000000 0.000000
vt 0.000000 0.000000
vt 0.000000 0.000000
vt 0.000000 0.000000
vt 0.000000 0.000000
vt 0.000000 0.000000
vt 0.000000 0.000000
vt 0.000000 0.000000
vt 0.000000 0.000000
vt 0.000000 0.000000
vt 0.000000 0.000000
vt 0.000000 0.000000
vt 0.000000 0.000000
vt 0.000000 0.000000
vt 0.000000 0.000000
vt 0.000000 0.000000
vt 0.000000 0.000000
vt 0.000000 0.000000
vt 0.000000 0.000000
vt 0.000000 0.000000
vt 0.000000 0.000000
vt 0.000000 0.000000
vt 0.000000 0.000000
vt 0.000000 0.000000
vt 0.000000 0.000000
vt 0.000000 0.000000
vt 0.000000 0.000000
vt 0.000000 0.000000
vt 0.000000 0.000000
vt 0.000000 0.000000
vt 0.000000 0.000000
vt 0.000000 0.000000
vt 0.000000 0.000000
vt 0.000000 0.000000
vt 0.000000 0.000000
vt 0.000000 0.000000
vt 0.000000 0.000000
vt 0.000000 0.000000
vt 0.000000 0.000000
vt 0.000000 0.000000
vt 0.000000 0.000000
vt 0.000000 0.000000
vt 0.000000 0.000000
vt 0.000000 0.000000
vt 0.000000 0.000000
vt 0.000000 0.000000
vt 0.000000 0.000000
vt 0.000000 0.000000
vt 0.000000 0.000000
vt 0.000000 0.000000
vt 0.000000 0.000000
vt 0.000000 0.000000
vt 0.000000 0.000000
vt 0.000000 0.000000
vt 0.000000 0.000000
vt 0.000000 0.000000
vt 0.000000 0.000000
vt 0.000000 0.000000
vt 0.000000 0.000000
vt 0.000000 0.000000
vt 0.000000 0.000000
vt 0.000000 0.000000
vt 0.000000 0.000000
vt 0.000000 0.000000
vt 0.000000 0.000000
vt 0.000000 0.000000
vt 0.000000 0.000000
vt 0.000000 0.000000
vt 0.000000 0.000000
vt 0.000000 0.000000
vt 0.000000 0.000000
vt 0.000000 0.000000
vt 0.000000 0.000000
vt 0.000000 0.000000
vt 0.000000 0.000000
vt 0.000000 0.000000
vt 0.000000 0.000000
vt 0.000000 0.000000
vt 0.000000 0.000000
vt 0.000000 0.000000
vt 0.000000 0.000000
vt 0.000000 0.000000
vt 0.000000 0.000000
vt 0.000000 0.000000
vt 0.000000 0.000000
vt 0.000000 0.000000
vt 0.000000 0.000000
vt 0.000000 0.000000
vt 0.000000 0.000000
vt 0.000000 0.000000
vt 0.000000 0.000000
vt 0.000000 0.000000
vt 0.000000 0.000000
vt 0.000000 0.000000
vt 0.000000 0.000000
vt 0.000000 0.000000
vt 0.000000 0.000000
vt 0.000000 0.000000
vt 0.000000 0.000000
vt 0.000000 0.000000
vt 0.000000 0.000000
vt 0.000000 0.000000
vt 0.000000 0.000000
vt 0.000000 0.000000
vt 0.000000 0.000000
vt 0.000000 0.000000
vt 0.000000 0.000000
vt 0.000000 0.000000
vt 0.000000 0.000000
vt 0.000000 0.000000
vt 0.000000 0.000000
vt 0.000000 0.000000
vt 0.000000 0.000000
vt 0.000000 0.000000
vt 0.000000 0.000000
vt 0.000000 0.000000
vt 0.000000 0.000000
vt 0.000000 0.000000
vt 0.000000 0.000000
vt 0.000000 0.000000
vt 0.000000 0.000000
vt 0.000000 0.000000
vt 0.000000 0.000000
vt 0.000000 0.000000
vt 0.000000 0.000000
vt 0.000000 0.000000
vt 0.000000 0.000000
vt 0.000000 0.000000
vt 0.000000 0.000000
vt 0.000000 0.000000
vt 0.000000 0.000000
vt 0.000000 0.000000
vt 0.000000 0.000000
vt 0.000000 0.000000
vn 0.000000 1.000000 0.000000
vn 0.000000 1.000000 0.000000
vn 0.000000 1.000000 0.000000
vn 0.000000 1.000000 0.000000
vn 0.000000 1.000000 0.000000
vn 0.000000 1.000000 0.000000
vn 0.000000 1.000000 0.000000
vn 0.000000 1.000000 0.000000
vn 0.000000 1.000000 0.000000
vn 0.000000 1.000000 0.000000
vn 0.000000 1.000000 0.000000
vn 0.000000 1.000000 0.000000
vn 0.000000 1.000000 0.000000
vn 0.000000 1.000000 0.000000
vn 0.000000 1.000000 0.000000
vn 0.000000 1.000000 0.000000
vn 0.000000 1.000000 0.000000
vn 0.000000 1.000000 0.000000
vn 0.000000 1.000000 0.000000
vn 0.000000 1.000000 0.000000
vn 0.000000 1.000000 0.000000
vn 0.000000 1.000000 0.000000
vn 0.000000 1.000000 0.000000
vn 0.000000 1.000000 0.000000
vn 0.000000 1.000000 0.000000
vn 0.000000 1.000000 0.000000
vn 0.000000 1.000000 0.000000
vn 0.000000 1.000000 0.000000
vn 0.000000 1.000000 0.000000
vn 0.000000 1.000000 0.000000
vn 0.000000 1.000000 0.000000
vn 0.000000 0.999996 0.002795
vn 0.000000 0.999996 0.002795
vn 0.000000 1.000000 0.000000
vn 0.000000 0.999996 0.002795
vn 0.000000 1.000000 0.000000
vn 0.000000 0.999996 0.002795
vn 0.000000 0.999984 0.005591
vn 0.000000 0.999984 0.005591
vn 0.000000 0.999996 0.002795
vn 0.000000 0.999984 0.005591
vn 0.000000 0.999996 0.002795
vn 0.000000 1.000000 0.000000
vn 0.000000 1.000000 0.000000
vn 0.000000 1.000000 0.000000
vn 0.000000 1.000000 0.000000
vn 0.000000 1.000000 0.000000
vn 0.000000 1.000000 0.000000
vn 0.000000 1.000000 0.000000
vn 0.000000 1.000000 0.000000
vn 0.000000 1.000000 0.000000
vn 0.000000 1.000000 0.000000
vn 0.000000 1.000000 0.000000
vn 0.000000 1.000000 0.000000
vn 0.000000 1.000000 0.000000
vn 0.000000 1.000000 0.000000
vn 0.000000 1.000000 0.000000
vn 0.000000 1.000000 0.000000
vn 0.000000 1.000000 0.000000
vn 0.000000 1.000000 0.000000
vn 0.000000 1.000000 0.000000
vn 0.000000 0.999996 0.002795
vn 0.000000 0.999996 0.002795
vn 0.000000 1.000000 0.000000
vn 0.000000 0.999996 0.002795
vn 0.000000 1.000000 0.000000
vn 0.000000 0.999996 0.002795
vn 0.000000 0.999984 0.005591
vn 0.000000 0.999984 0.005591
vn 0.000000 0.999996 0.002795
vn 0.000000 0.999984 0.005591
vn 0.000000 0.999996 0.002795
vn 0.000000 1.000000 0.000000
vn 0.000000 1.000000 0.000000
vn 0.000000 1.000000 0.000000
vn 0.000000 1.000000 0.000000
vn 0.000000 1.000000 0.000000
vn 0.000000 1.000000 0.000000
vn 0.000000 1.000000 0.000000
vn 0.000000 1.000000 0.000000
vn 0.000000 1.000000 0.000000
vn 0.000000 1.000000 0.000000
vn 0.000000 1.000000 0.000000
vn 0.000000 1.000000 0.000000
vn 0.000000 1.000000 0.000000
vn 0.000000 1.000000 0.000000
vn 0.000000 1.000000 0.000000
vn 0.000000 1.000000 0.000000
vn 0.000000 1.000000 0.000000
vn 0.000000 1.000000 0.000000
vn 0.000000 1.000000 0.000000
vn 0.000000 1.000000 0.000000
vn 0.000000 1.000000 0.000000
vn 0.000000 1.000000 0.000000
vn 0.000000 1.000000 0.000000
vn 0.000000 1.000000 0.000000
vn 0.000000 1.000000 0.000000
vn 0.000000 1.000000 0.000000
vn 0.000000 1.000000 0.000000
vn 0.000000 1.000000 0.000000
vn 0.000000 1.000000 0.000000
vn 0.000000 1.000000 0.000000
vn 0.000000 1.000000 0.000000
vn 0.000000 1.000000 0.000000
vn 0.000000 1.000000 0.000000
vn 0.000000 1.000000 0.000000
vn 0.000000 1.000000 0.000000
vn 0.000000 1.000000 0.000000
vn 0.699066 0.715057 0.000000
vn 0.699066 0.715057 0.000000
vn 0.699066 0.715057 0.000000
vn 0.699066 0.715057 0.000000
vn 0.699066 0.715057 0.000000
vn 0.699066 0.715057 0.000000
vn -0.699066 0.715057 0.000000
vn -0.699066 0.715057 0.000000
vn -0.699066 0.715057 0.000000
vn -0.699066 0.715057 0.000000
vn -0.699066 0.715057 0.000000
vn -0.699066 0.715057 0.000000
vn -0.699066 0.715057 0.000000
vn -0.699066 0.715057 0.000000
vn -0.699066 0.715057 0.000000
vn -0.699066 0.715057 0.000000
vn -0.699066 0.715057 0.000000
vn -0.699066 0.715057 0.000000
vn 0.699066 0.715057 0.000000
vn 0.699066 0.715057 0.000000
vn 0.699066 0.715057 0.000000
vn 0.699066 0.715057 0.000000
vn 0.699066 0.715057 0.000000
vn 0.699066 0.715057 0.000000
vn 0.000000 1.000000 0.000000
vn 0.000000 1.000000 0.000000
vn 0.000000 1.000000 0.000000
vn 0.000000 1.000000 0.000000
vn 0.000000 1.000000 0.000000
vn 0.000000 1.000000 0.000000
vn 0.000000 1.000000 0.000000
vn 0.000000 1.000000 0.000000
vn 0.000000 1.000000 0.000000
vn 0.000000 1.000000 0.000000
vn 0.000000 1.000000 0.000000
vn 0.000000 1.000000 0.000000
vn 1.000000 0.000000 0.000000
vn 1.000000 0.000000 0.000000
vn 1.000000 0.000000 0.000000
vn 1.000000 0.000000 0.000000
vn 1.000000 0.000000 0.000000
vn 1.000000 0.000000 0.000000
vn -1.000000 0.000000 0.000000
vn -1.000000 0.000000 0.000000
vn -1.000000 0.000000 0.000000
vn 1.000000 0.000000 0.000000
vn 1.000000 0.000000 0.000000
vn 1.000000 0.000000 0.000000
vn -1.000000 0.000000 0.000000
vn -1.000000 0.000000 0.000000
vn -1.000000 0.000000 0.000000
vn -0.002680 0.716453 -0.697630
vn 0.000000 0.707107 -0.707107
vn -0.004020 0.713106 -0.701045
vn 0.004020 0.713106 -0.701045
vn 0.000000 0.707107 -0.707107
vn 0.002680 0.716453 -0.697630
vn 0.000000 -0.989542 -0.144247
vn 0.000000 -0.986394 -0.164399
vn 0.000000 -0.986394 -0.164399
vn 0.000000 -0.989542 -0.144247
vn 0.000000 -0.986394 -0.164399
vn 0.000000 -0.990626 -0.136606
vn 0.000000 -0.989542 -0.144247
vn 0.000000 -0.992278 -0.124035
vn 0.000000 -0.992448 -0.122669
vn 0.000000 -0.989542 -0.144247
vn 0.000000 -0.992448 -0.122669
vn 0.000000 -0.990626 -0.136606
vn -0.002665 0.720423 -0.693530
vn -0.003998 0.719082 -0.694914
vn -0.003998 0.719082 -0.694914
vn -0.003998 0.719082 -0.694914
vn -0.002680 0.716453 -0.697630
vn -0.004020 0.721076 -0.692844
vn -0.003998 0.719082 -0.694914
vn -0.004020 0.721076 -0.692844
vn -0.002665 0.720423 -0.693530
vn 0.000000 0.000000 -1.000000
vn 0.000000 0.000000 -1.000000
vn 0.000000 0.000000 -1.000000
vn 0.000000 0.000000 -1.000000
vn 0.000000 0.000000 -1.000000
vn 0.000000 0.000000 -1.000000
vn 0.000000 1.000000 0.000000
vn 0.000000 1.000000 0.000000
vn 0.000000 1.000000 0.000000
vn 0.000000 -0.990626 -0.136606
vn 0.000000 -0.990626 -0.136606
vn 0.000000 -0.992448 -0.122669
vn 0.000000 -0.990626 -0.136606
vn 0.000000 -0.992448 -0.122669
vn 0.000000 -0.992448 -0.122669
vn 0.000000 -0.990626 -0.136606
vn 0.000000 -0.992448 -0.122669
vn 0.000000 -0.992278 -0.124035
vn 0.000000 -0.990626 -0.136606
vn 0.000000 -0.992278 -0.124035
vn 0.000000 -0.989542 -0.144247
vn 0.000000 -0.990626 -0.136606
vn 0.000000 -0.986394 -0.164399
vn 0.000000 -0.986394 -0.164399
vn 0.000000 -0.990626 -0.136606
vn 0.000000 -0.986394 -0.164399
vn 0.000000 -0.989542 -0.144247
vn -1.000000 0.000000 0.000000
vn -1.000000 0.000000 0.000000
vn -1.000000 0.000000 0.000000
vn -1.000000 0.000000 0.000000
vn -1.000000 0.000000 0.000000
vn -1.000000 0.000000 0.000000
vn 1.000000 0.000000 0.000000
vn 1.000000 0.000000 0.000000
vn 1.000000 0.000000 0.000000
vn 0.000000 1.000000 0.000000
vn 0.000000 1.000000 0.000000
vn 0.000000 1.000000 0.000000
vn 0.000000 1.000000 0.000000
vn 0.000000 1.000000 0.000000
vn 0.000000 1.000000 0.000000
vn 0.000000 1.000000 0.000000
vn 0.000000 1.000000 0.000000
vn 0.000000 1.000000 0.000000
vn 0.000000 1.000000 0.000000
vn 0.000000 1.000000 0.000000
vn 0.000000 1.000000 0.000000
vn -0.004020 0.713106 -0.701045
vn -0.004020 0.721076 -0.692844
vn -0.002680 0.716453 -0.697630
vn 0.002680 0.716453 -0.697630
vn 0.004020 0.721076 -0.692844
vn 0.004020 0.713106 -0.701045
vn -0.002665 0.720423 -0.693530
vn 0.004020 0.721076 -0.692844
vn 0.002680 0.716453 -0.697630
vn -0.002665 0.720423 -0.693530
vn 0.002680 0.716453 -0.697630
vn -0.003998 0.719082 -0.694914
vn 0.000000 1.000000 0.000000
vn 0.000000 1.000000 0.000000
vn 0.000000 1.000000 0.000000
vn 0.000000 1.000000 0.000000
vn 0.000000 1.000000 0.000000
vn 0.000000 1.000000 0.000000
vn 0.000000 0.715057 0.699066
vn 0.000000 0.715057 0.699066
vn 0.000000 0.715057 0.699066
vn 0.000000 0.715057 0.699066
vn 0.000000 0.715057 0.699066
vn 0.000000 0.715057 0.699066
vn 0.000000 0.715057 0.699066
vn 0.000000 0.715057 0.699066
vn 0.000000 0.715057 0.699066
vn 0.000000 0.715057 0.699066
vn 0.000000 0.715057 0.699066
vn 0.000000 0.715057 0.699066
f 1/1/1 2/2/2 7/3/3
f 1/4/4 7/5/5 6/6/6
f 2/7/7 3/8/8 8/9/9
f 2/10/10 8/11/11 7/12/12
f 3/13/13 4/14/14 9/15/15
f 3/16/16 9/17/17 8/18/18
f 4/19/19 5/20/20 10/21/21
f 4/22/22 10/23/23 9/24/24
f 6/25/25 7/26/26 12/27/27
f 6/28/28 12/29/29 11/30/30
f 33/31/31 32/32/32 13/33/33
f 33/34/34 13/35/35 30/36/36
f 32/37/37 31/38/38 26/39/39
f 32/40/40 26/41/41 13/42/42
f 9/43/43 10/44/44 15/45/45
f 9/46/46 15/47/47 14/48/48
f 9/49/49 14/50/50 36/51/51
f 9/52/52 36/53/53 35/54/54
f 11/55/55 12/56/56 17/57/57
f 11/58/58 17/59/59 16/60/60
f 30/61/61 13/62/62 28/63/63
f 30/64/64 28/65/65 29/66/66
f 13/67/67 26/68/68 27/69/69
f 13/70/70 27/71/71 28/72/72
f 14/73/73 15/74/74 20/75/75
f 14/76/76 20/77/77 19/78/78
f 14/79/79 19/80/80 39/81/81
f 14/82/82 39/83/83 38/84/84
f 16/85/85 17/86/86 22/87/87
f 16/88/88 22/89/89 21/90/90
f 17/91/91 18/92/92 23/93/93
f 17/94/94 23/95/95 22/96/96
f 18/97/97 19/98/98 24/99/99
f 18/100/100 24/101/101 23/102/102
f 19/103/103 20/104/104 25/105/105
f 19/106/106 25/107/107 24/108/108
f 7/109/109 8/110/110 32/111/111
f 7/112/112 32/113/113 33/114/114
f 19/115/115 18/116/116 28/117/117
f 19/118/118 28/119/119 27/120/120
f 18/121/121 17/122/122 29/123/123
f 18/124/124 29/125/125 28/126/126
f 8/127/127 9/128/128 31/129/129
f 8/130/130 31/131/131 32/132/132
f 48/133/133 35/134/134 36/135/135
f 48/136/136 36/137/137 41/138/138
f 40/139/139 38/140/140 39/141/141
f 40/142/142 39/143/143 49/144/144
f 49/145/145 39/146/146 50/147/147
f 49/148/148 50/149/149 47/150/150
f 40/151/151 44/152/152 37/153/153
f 34/154/154 43/155/155 41/156/156
f 48/157/157 42/158/158 46/159/159
f 50/160/160 39/161/161 19/162/162
f 9/163/163 35/164/164 53/165/165
f 46/166/166 42/167/167 43/168/168
f 46/169/169 43/170/170 34/171/171
f 47/172/172 50/173/173 51/174/174
f 47/175/175 51/176/176 37/177/177
f 26/178/178 52/179/179 51/180/180
f 51/181/181 50/182/182 27/183/183
f 51/184/184 27/185/185 26/186/186
f 34/187/187 41/188/188 40/189/189
f 34/190/190 40/191/191 37/192/192
f 41/193/193 36/194/194 14/195/195
f 34/196/196 37/197/197 51/198/198
f 34/199/199 51/200/200 52/201/201
f 34/202/202 52/203/203 53/204/204
f 34/205/205 53/206/206 46/207/207
f 37/208/208 44/209/209 45/210/210
f 37/211/211 45/212/212 47/213/213
f 46/214/214 53/215/215 35/216/216
f 46/217/217 35/218/218 48/219/219
f 47/220/220 45/221/221 49/222/222
f 49/223/223 45/224/224 44/225/225
f 49/226/226 44/227/227 40/228/228
f 41/229/229 43/230/230 42/231/231
f 41/232/232 42/233/233 48/234/234
f 19/235/235 27/236/236 50/237/237
f 53/238/238 31/239/239 9/240/240
f 26/241/241 31/242/242 53/243/243
f 26/244/244 53/245/245 52/246/246
f 14/247/247 38/248/248 40/249/249
f 14/250/250 40/251/251 41/252/252
f 7/253/253 33/254/254 30/255/255
f 7/256/256 30/257/257 12/258/258
f 12/259/259 30/260/260 29/261/261
f 12/262/262 29/263/263 17/264/264
