v 1.378744 -0.312833 -0.149857
v 1.424660 -0.619212 0.360899
v -0.261983 1.386163 -0.929774
v 1.422517 -0.617842 -0.625028
v 1.373479 -0.314133 -0.696644
v 1.212809 0.529765 -1.069421
v 0.000000 1.708749 -1.069110
v 1.010219 -0.796493 -0.224113
v 1.009856 -0.951415 1.077990
v 1.010340 -0.946222 -0.551318
v 1.279024 0.114173 -0.683333
v 1.277133 0.115299 -1.080579
v 0.997266 0.116056 -0.583298
v 1.009364 -0.314114 0.015188
v 1.010501 -0.313370 -0.744704
v 0.997464 0.114632 -1.115504
v 1.011821 -0.616734 -1.552358
v 1.012087 -0.614792 3.062671
v 1.210514 -0.616078 2.147911
v 1.009875 -0.679142 2.557420
v 1.143659 -0.615971 2.556707
v 1.157339 -0.414389 2.146964
v 1.102602 -0.462998 2.557120
v 1.008695 -0.741256 2.146594
v 1.012036 -0.394377 2.146779
v 1.010653 -0.454531 2.557271
v 0.000000 1.584513 -0.955364
v 1.369439 0.115233 -0.880768
v -1.209823 -0.618356 -0.300592
v 1.209823 -0.618356 -0.300592
v 0.261952 1.385815 -1.208446
v 0.261983 1.386163 -0.929774
v -1.378744 -0.312833 -0.149857
v -1.424660 -0.619212 0.360898
v -0.261952 1.385815 -1.208446
v -1.422517 -0.617842 -0.625028
v -1.373479 -0.314133 -0.696644
v -1.369439 0.115233 -0.880768
v -1.212809 0.529765 -1.069422
v -1.009856 -0.951415 1.077990
v -1.010340 -0.946222 -0.551318
v -1.279024 0.114173 -0.683333
v -1.277133 0.115299 -1.080579
v -0.997266 0.116056 -0.583298
v -1.009364 -0.314114 0.015187
v -1.010219 -0.796493 -0.224113
v -1.010501 -0.313370 -0.744704
v -0.997464 0.114632 -1.115504
v -1.010653 -0.454531 2.557271
v -1.011820 -0.616734 -1.552358
v -1.012087 -0.614792 3.062670
v -1.210514 -0.616078 2.147911
v -1.009875 -0.679142 2.557420
v -1.143659 -0.615971 2.556707
v -1.157339 -0.414389 2.146964
v -1.102602 -0.462998 2.557120
v -1.008695 -0.741256 2.146594
v -1.012037 -0.394377 2.146779
v 0.338830 1.461444 -1.069110
v -0.338830 1.461444 -1.069110
v 0.896305 0.530013 -0.807212
v 1.116619 0.529752 -1.249496
v 1.115356 0.529778 -0.889346
v -0.000000 1.584576 -1.168366
v 0.897608 0.529668 -1.272775
v -0.897608 0.529668 -1.272775
v -0.896304 0.530013 -0.807212
v -1.116619 0.529752 -1.249497
v -1.115356 0.529778 -0.889346
v 1.475332 -0.313483 -0.454444
v -1.475332 -0.313483 -0.454444
v -1.210050 -0.618527 -0.132065
v -1.423053 -0.618185 -0.469120
v -1.424125 -0.618870 0.114417
v 1.210050 -0.618527 -0.132065
v 1.423053 -0.618185 -0.469119
v 1.424124 -0.618870 0.114417
v 1.010098 -0.797792 0.103092
v -1.010098 -0.797792 0.103091
v -0.300407 1.423803 -0.967827
v 0.000000 1.636955 -0.992424
v 0.300407 1.423803 -0.967827
v 0.300391 1.423629 -1.180084
v -0.000000 1.636986 -1.142341
v -0.300391 1.423629 -1.180084
vt 0.913504 0.456473
vt 0.897321 0.460938
vt 0.898438 0.506138
vt 0.913504 0.456473
vt 0.898438 0.506138
vt 0.904204 0.495090
vt 0.514323 0.035807
vt 0.684896 0.061849
vt 0.745443 0.061198
vt 0.514323 0.035807
vt 0.745443 0.061198
vt 0.804688 0.038411
vt 0.514323 0.035807
vt 0.804688 0.038411
vt 0.826823 0.145182
vt 0.514323 0.035807
vt 0.826823 0.145182
vt 0.702148 0.141602
vt 0.858276 0.223853
vt 0.783420 0.147439
vt 0.731445 0.144531
vt 0.858276 0.223853
vt 0.731445 0.144531
vt 0.823609 0.223664
vt 0.881696 0.457589
vt 0.897321 0.460938
vt 0.891401 0.297739
vt 0.881696 0.457589
vt 0.891401 0.297739
vt 0.864258 0.297852
vt 0.683537 0.093007
vt 0.640258 0.092946
vt 0.514323 0.035807
vt 0.785997 0.093129
vt 0.813372 0.093190
vt 0.819661 0.147135
vt 0.785997 0.093129
vt 0.819661 0.147135
vt 0.783420 0.147439
vt 0.893360 0.223865
vt 0.819661 0.147135
vt 0.826823 0.145182
vt 0.893360 0.223865
vt 0.826823 0.145182
vt 0.899492 0.223746
vt 0.640258 0.092946
vt 0.326486 0.093505
vt 0.326172 0.127930
vt 0.640258 0.092946
vt 0.326172 0.127930
vt 0.731445 0.144531
vt 0.252930 0.119141
vt 0.254582 0.082265
vt 0.165868 0.093734
vt 0.326717 0.071193
vt 0.514323 0.035807
vt 0.640258 0.092946
vt 0.326717 0.071193
vt 0.640258 0.092946
vt 0.326486 0.093505
vt 0.804688 0.038411
vt 0.973307 0.089844
vt 0.813372 0.093190
vt 0.254707 0.093524
vt 0.252930 0.119141
vt 0.326172 0.127930
vt 0.254707 0.093524
vt 0.326172 0.127930
vt 0.326486 0.093505
vt 0.514323 0.035807
vt 0.326717 0.071193
vt 0.326172 0.127930
vt 0.514323 0.035807
vt 0.326172 0.127930
vt 0.702148 0.141602
vt 0.973307 0.089844
vt 0.819661 0.147135
vt 0.813372 0.093190
vt 0.252930 0.119141
vt 0.165868 0.093734
vt 0.254707 0.093524
vt 0.826823 0.145182
vt 0.819661 0.147135
vt 0.973307 0.089844
vt 0.254707 0.093524
vt 0.252930 0.119141
vt 0.165868 0.093734
vt 0.326172 0.127930
vt 0.326717 0.071193
vt 0.254582 0.082265
vt 0.326172 0.127930
vt 0.254582 0.082265
vt 0.252930 0.119141
vt 0.254707 0.093524
vt 0.165868 0.093734
vt 0.254582 0.082265
vt 0.326486 0.093505
vt 0.254707 0.093524
vt 0.254582 0.082265
vt 0.326486 0.093505
vt 0.254582 0.082265
vt 0.326717 0.071193
vt 0.326172 0.127930
vt 0.252930 0.119141
vt 0.254707 0.093524
vt 0.326172 0.127930
vt 0.254707 0.093524
vt 0.326486 0.093505
vt 0.973307 0.089844
vt 0.804688 0.038411
vt 0.826823 0.145182
vt 0.813477 0.223633
vt 0.702148 0.141602
vt 0.826823 0.145182
vt 0.813477 0.223633
vt 0.826823 0.145182
vt 0.899492 0.223746
vt 0.899492 0.223746
vt 0.826823 0.145182
vt 0.702148 0.141602
vt 0.899492 0.223746
vt 0.702148 0.141602
vt 0.813477 0.223633
vt 0.826823 0.145182
vt 0.804688 0.038411
vt 0.973307 0.089844
vt 0.722656 0.093750
vt 0.731445 0.144531
vt 0.326172 0.127930
vt 0.722656 0.093750
vt 0.326172 0.127930
vt 0.326486 0.093505
vt 0.326486 0.093505
vt 0.254707 0.093524
vt 0.252930 0.119141
vt 0.326486 0.093505
vt 0.252930 0.119141
vt 0.326172 0.127930
vt 0.702148 0.141602
vt 0.826823 0.145182
vt 0.804688 0.038411
vt 0.702148 0.141602
vt 0.804688 0.038411
vt 0.745443 0.061198
vt 0.702148 0.141602
vt 0.745443 0.061198
vt 0.684896 0.061849
vt 0.702148 0.141602
vt 0.684896 0.061849
vt 0.514323 0.035807
vt 0.326717 0.071193
vt 0.254582 0.082265
vt 0.254707 0.093524
vt 0.326717 0.071193
vt 0.254707 0.093524
vt 0.326486 0.093505
vt 0.254582 0.082265
vt 0.165868 0.093734
vt 0.254707 0.093524
vt 0.922433 0.449777
vt 0.913504 0.486049
vt 0.880022 0.486049
vt 0.922433 0.449777
vt 0.880022 0.486049
vt 0.874442 0.450893
vt 0.252930 0.119141
vt 0.254582 0.082265
vt 0.326717 0.071193
vt 0.252930 0.119141
vt 0.326717 0.071193
vt 0.326172 0.127930
vt 0.922433 0.449777
vt 0.930339 0.297526
vt 0.923019 0.297737
vt 0.922433 0.449777
vt 0.923019 0.297737
vt 0.913504 0.456473
vt 0.254707 0.093524
vt 0.252930 0.119141
vt 0.165868 0.093734
vt 0.973307 0.089844
vt 0.819661 0.147135
vt 0.826823 0.145182
vt 0.823609 0.223664
vt 0.731445 0.144531
vt 0.783420 0.147439
vt 0.823609 0.223664
vt 0.783420 0.147439
vt 0.858276 0.223853
vt 0.859782 0.297742
vt 0.823609 0.223664
vt 0.858276 0.223853
vt 0.859782 0.297742
vt 0.858276 0.223853
vt 0.891401 0.297739
vt 0.514323 0.035807
vt 0.640258 0.092946
vt 0.683537 0.093007
vt 0.783420 0.147439
vt 0.819661 0.147135
vt 0.813372 0.093190
vt 0.783420 0.147439
vt 0.813372 0.093190
vt 0.785997 0.093129
vt 0.254707 0.093524
vt 0.165868 0.093734
vt 0.252930 0.119141
vt 0.899492 0.223746
vt 0.826823 0.145182
vt 0.819661 0.147135
vt 0.899492 0.223746
vt 0.819661 0.147135
vt 0.893360 0.223865
vt 0.813372 0.093190
vt 0.819661 0.147135
vt 0.973307 0.089844
vt 0.702148 0.141602
vt 0.326172 0.127930
vt 0.326717 0.071193
vt 0.702148 0.141602
vt 0.326717 0.071193
vt 0.514323 0.035807
vt 0.326486 0.093505
vt 0.326172 0.127930
vt 0.252930 0.119141
vt 0.326486 0.093505
vt 0.252930 0.119141
vt 0.254707 0.093524
vt 0.165868 0.093734
vt 0.254582 0.082265
vt 0.252930 0.119141
vt 0.326486 0.093505
vt 0.640258 0.092946
vt 0.514323 0.035807
vt 0.326486 0.093505
vt 0.514323 0.035807
vt 0.326717 0.071193
vt 0.813372 0.093190
vt 0.973307 0.089844
vt 0.804688 0.038411
vt 0.326486 0.093505
vt 0.326172 0.127930
vt 0.731445 0.144531
vt 0.326486 0.093505
vt 0.731445 0.144531
vt 0.722656 0.093750
vt 0.731445 0.144531
vt 0.326172 0.127930
vt 0.326486 0.093505
vt 0.731445 0.144531
vt 0.326486 0.093505
vt 0.640258 0.092946
vt 0.922433 0.449777
vt 0.930339 0.297526
vt 0.853516 0.297852
vt 0.922433 0.449777
vt 0.853516 0.297852
vt 0.874442 0.450893
vt 0.899492 0.223746
vt 0.813477 0.223633
vt 0.853516 0.297852
vt 0.899492 0.223746
vt 0.853516 0.297852
vt 0.930339 0.297526
vt 0.891401 0.297739
vt 0.858276 0.223853
vt 0.823609 0.223664
vt 0.891401 0.297739
vt 0.823609 0.223664
vt 0.859782 0.297742
vt 0.923019 0.297737
vt 0.930339 0.297526
vt 0.922433 0.449777
vt 0.923019 0.297737
vt 0.922433 0.449777
vt 0.913504 0.456473
vt 0.864258 0.297852
vt 0.891401 0.297739
vt 0.897321 0.460938
vt 0.864258 0.297852
vt 0.897321 0.460938
vt 0.881696 0.457589
vt 0.783420 0.147439
vt 0.731445 0.144531
vt 0.823609 0.223664
vt 0.783420 0.147439
vt 0.823609 0.223664
vt 0.858276 0.223853
vt 0.785997 0.093129
vt 0.813372 0.093190
vt 0.804688 0.038411
vt 0.683537 0.093007
vt 0.640258 0.092946
vt 0.731445 0.144531
vt 0.683537 0.093007
vt 0.731445 0.144531
vt 0.783420 0.147439
vt 0.783420 0.147439
vt 0.785997 0.093129
vt 0.756406 0.093099
vt 0.756406 0.093099
vt 0.785997 0.093129
vt 0.804688 0.038411
vt 0.804688 0.038411
vt 0.813372 0.093190
vt 0.785997 0.093129
vt 0.783420 0.147439
vt 0.731445 0.144531
vt 0.640258 0.092946
vt 0.783420 0.147439
vt 0.640258 0.092946
vt 0.683537 0.093007
vt 0.783420 0.147439
vt 0.683537 0.093007
vt 0.726815 0.093068
vt 0.726815 0.093068
vt 0.683537 0.093007
vt 0.514323 0.035807
vt 0.756406 0.093099
vt 0.785997 0.093129
vt 0.783420 0.147439
vt 0.804688 0.038411
vt 0.785997 0.093129
vt 0.756406 0.093099
vt 0.514323 0.035807
vt 0.683537 0.093007
vt 0.726815 0.093068
vt 0.726815 0.093068
vt 0.683537 0.093007
vt 0.783420 0.147439
vt 0.783420 0.147439
vt 0.726815 0.093068
vt 0.756406 0.093099
vt 0.756406 0.093099
vt 0.726815 0.093068
vt 0.783420 0.147439
vt 0.756406 0.093099
vt 0.726815 0.093068
vt 0.684896 0.061849
vt 0.756406 0.093099
vt 0.684896 0.061849
vt 0.745443 0.061198
vt 0.745443 0.061198
vt 0.684896 0.061849
vt 0.726815 0.093068
vt 0.745443 0.061198
vt 0.726815 0.093068
vt 0.756406 0.093099
vt 0.514323 0.035807
vt 0.684896 0.061849
vt 0.726815 0.093068
vt 0.756406 0.093099
vt 0.745443 0.061198
vt 0.804688 0.038411
vt 0.804688 0.038411
vt 0.745443 0.061198
vt 0.756406 0.093099
vt 0.726815 0.093068
vt 0.684896 0.061849
vt 0.514323 0.035807
vt 0.930339 0.297526
vt 0.853516 0.297852
vt 0.813477 0.223633
vt 0.930339 0.297526
vt 0.813477 0.223633
vt 0.899492 0.223746
vt 0.874442 0.450893
vt 0.853516 0.297852
vt 0.930339 0.297526
vt 0.874442 0.450893
vt 0.930339 0.297526
vt 0.922433 0.449777
vt 0.889509 0.495536
vt 0.880022 0.486049
vt 0.874442 0.450893
vt 0.889509 0.495536
vt 0.874442 0.450893
vt 0.881696 0.457589
vt 0.913504 0.486049
vt 0.922433 0.449777
vt 0.874442 0.450893
vt 0.913504 0.486049
vt 0.874442 0.450893
vt 0.880022 0.486049
vt 0.858276 0.223853
vt 0.823609 0.223664
vt 0.859782 0.297742
vt 0.858276 0.223853
vt 0.859782 0.297742
vt 0.891401 0.297739
vt 0.858276 0.223853
vt 0.783420 0.147439
vt 0.819661 0.147135
vt 0.858276 0.223853
vt 0.819661 0.147135
vt 0.893360 0.223865
vt 0.893360 0.223865
vt 0.858276 0.223853
vt 0.891401 0.297739
vt 0.893360 0.223865
vt 0.891401 0.297739
vt 0.923019 0.297737
vt 0.913504 0.456473
vt 0.922433 0.449777
vt 0.913504 0.486049
vt 0.913504 0.456473
vt 0.913504 0.486049
vt 0.904204 0.495090
vt 0.881696 0.457589
vt 0.897321 0.460938
vt 0.898438 0.506138
vt 0.881696 0.457589
vt 0.898438 0.506138
vt 0.889509 0.495536
vt 0.858276 0.223853
vt 0.823609 0.223664
vt 0.731445 0.144531
vt 0.858276 0.223853
vt 0.731445 0.144531
vt 0.783420 0.147439
vt 0.891401 0.297739
vt 0.864258 0.297852
vt 0.823609 0.223664
vt 0.891401 0.297739
vt 0.823609 0.223664
vt 0.858276 0.223853
vt 0.893360 0.223865
vt 0.819661 0.147135
vt 0.783420 0.147439
vt 0.893360 0.223865
vt 0.783420 0.147439
vt 0.858276 0.223853
vt 0.893360 0.223865
vt 0.899492 0.223746
vt 0.930339 0.297526
vt 0.893360 0.223865
vt 0.930339 0.297526
vt 0.923019 0.297737
vt 0.923019 0.297737
vt 0.891401 0.297739
vt 0.858276 0.223853
vt 0.923019 0.297737
vt 0.858276 0.223853
vt 0.893360 0.223865
vt 0.893360 0.223865
vt 0.923019 0.297737
vt 0.930339 0.297526
vt 0.893360 0.223865
vt 0.930339 0.297526
vt 0.899492 0.223746
vt 0.889509 0.495536
vt 0.898438 0.506138
vt 0.897321 0.460938
vt 0.889509 0.495536
vt 0.897321 0.460938
vt 0.881696 0.457589
vt 0.881696 0.457589
vt 0.897321 0.460938
vt 0.891401 0.297739
vt 0.881696 0.457589
vt 0.891401 0.297739
vt 0.864258 0.297852
vt 0.881696 0.457589
vt 0.897321 0.460938
vt 0.898438 0.506138
vt 0.881696 0.457589
vt 0.898438 0.506138
vt 0.889509 0.495536
vt 0.864258 0.297852
vt 0.891401 0.297739
vt 0.897321 0.460938
vt 0.864258 0.297852
vt 0.897321 0.460938
vt 0.881696 0.457589
vt 0.923019 0.297737
vt 0.891401 0.297739
vt 0.897321 0.460938
vt 0.923019 0.297737
vt 0.897321 0.460938
vt 0.913504 0.456473
vt 0.904204 0.495090
vt 0.913504 0.486049
vt 0.922433 0.449777
vt 0.904204 0.495090
vt 0.922433 0.449777
vt 0.913504 0.456473
vt 0.904204 0.495090
vt 0.898438 0.506138
vt 0.897321 0.460938
vt 0.904204 0.495090
vt 0.897321 0.460938
vt 0.913504 0.456473
vt 0.913504 0.456473
vt 0.897321 0.460938
vt 0.891401 0.297739
vt 0.913504 0.456473
vt 0.891401 0.297739
vt 0.923019 0.297737
vn -0.406734 0.535484 -0.740151
vn -0.651499 0.758616 0.007066
vn -0.000000 0.805309 -0.592855
vn -0.406734 0.535484 -0.740151
vn -0.000000 0.805309 -0.592855
vn -0.000000 0.635451 -0.772141
vn 0.999999 0.001083 -0.000215
vn 0.999999 -0.001097 -0.000771
vn 0.999999 -0.001097 -0.000771
vn 0.999999 0.001083 -0.000215
vn 0.999999 -0.001097 -0.000771
vn 0.999999 -0.000658 -0.001161
vn 0.999999 0.001083 -0.000215
vn 0.999999 -0.000658 -0.001161
vn 0.999943 -0.010581 -0.001113
vn 0.999999 0.001083 -0.000215
vn 0.999943 -0.010581 -0.001113
vn 0.999956 -0.009421 -0.000483
vn 0.269125 0.660290 0.701134
vn 0.148766 0.934771 0.322602
vn 0.690205 0.669290 0.275079
vn 0.269125 0.660290 0.701134
vn 0.690205 0.669290 0.275079
vn 0.562330 0.616386 0.551229
vn 0.466476 0.578747 0.668919
vn 0.330160 0.455958 0.826496
vn 0.320763 0.449079 0.833930
vn 0.466476 0.578747 0.668919
vn 0.320763 0.449079 0.833930
vn 0.548456 0.529828 0.646899
vn 0.452667 -0.866704 -0.209561
vn 0.646779 -0.760932 0.051579
vn 0.542117 -0.838003 -0.062131
vn 0.801406 -0.500059 0.328162
vn 0.864795 -0.431765 -0.256336
vn 0.934694 -0.046313 -0.352425
vn 0.801406 -0.500059 0.328162
vn 0.934694 -0.046313 -0.352425
vn 0.984487 0.168173 -0.050029
vn 0.105249 -0.500612 -0.859250
vn 0.097162 -0.650584 -0.753193
vn 0.097162 -0.650584 -0.753193
vn 0.105249 -0.500612 -0.859250
vn 0.097162 -0.650584 -0.753193
vn 0.105249 -0.500612 -0.859250
vn -0.947720 0.288421 0.136528
vn -0.952478 0.274222 0.132621
vn -0.952478 0.274222 0.132621
vn -0.947720 0.288421 0.136528
vn -0.952478 0.274222 0.132621
vn -0.690205 0.669290 0.275079
vn -0.999984 0.005338 0.001836
vn -0.999984 0.005338 0.001836
vn -0.999986 0.003468 0.003936
vn 0.581179 -0.806872 0.105779
vn 0.542117 -0.838003 -0.062131
vn 0.646779 -0.760932 0.051579
vn 0.581179 -0.806872 0.105779
vn 0.646779 -0.760932 0.051579
vn 0.581179 -0.806872 0.105779
vn 0.618054 -0.769931 0.158796
vn 0.834827 -0.407437 -0.370216
vn 0.864795 -0.431765 -0.256336
vn 0.103345 0.969916 0.220414
vn 0.103345 0.969916 0.220414
vn 0.084269 0.992272 0.091077
vn 0.103345 0.969916 0.220414
vn 0.084269 0.992272 0.091077
vn 0.084269 0.992272 0.091077
vn -0.999999 0.001083 -0.000215
vn -0.999986 0.005235 0.000038
vn -0.999986 0.005235 0.000038
vn -0.999999 0.001083 -0.000215
vn -0.999986 0.005235 0.000038
vn -0.999956 -0.009421 -0.000483
vn 0.834827 -0.407437 -0.370216
vn 0.934694 -0.046313 -0.352425
vn 0.864795 -0.431765 -0.256336
vn 0.946658 0.252580 0.200107
vn 0.937013 0.250835 0.243080
vn 0.946658 0.252580 0.200107
vn 0.048460 0.935067 -0.351143
vn 0.048460 0.935067 -0.351143
vn 0.048460 0.935067 -0.351143
vn 0.087938 0.949603 0.300867
vn 0.103345 0.969916 0.220414
vn 0.103345 0.969916 0.220414
vn -0.999986 0.005235 0.000038
vn -0.999986 0.005235 0.000038
vn -0.999984 0.005338 0.001836
vn -0.999986 0.005235 0.000038
vn -0.999984 0.005338 0.001836
vn -0.999984 0.005338 0.001836
vn 0.455943 -0.883339 0.108756
vn 0.424757 -0.898284 0.112549
vn 0.455943 -0.883339 0.108756
vn 0.581179 -0.806872 0.105779
vn 0.455943 -0.883339 0.108756
vn 0.455943 -0.883339 0.108756
vn 0.581179 -0.806872 0.105779
vn 0.455943 -0.883339 0.108756
vn 0.581179 -0.806872 0.105779
vn 0.952478 0.274222 0.132621
vn 0.946658 0.252580 0.200107
vn 0.946658 0.252580 0.200107
vn 0.952478 0.274222 0.132621
vn 0.946658 0.252580 0.200107
vn 0.952478 0.274222 0.132621
vn -0.999999 -0.000219 -0.001551
vn -0.999999 -0.000658 -0.001161
vn -0.999943 -0.010581 -0.001113
vn 0.990997 -0.133877 -0.001037
vn 0.999956 -0.009421 -0.000483
vn 0.999943 -0.010581 -0.001113
vn 0.990997 -0.133877 -0.001037
vn 0.999943 -0.010581 -0.001113
vn 0.990997 -0.133877 -0.001037
vn -0.990997 -0.133877 -0.001037
vn -0.999943 -0.010581 -0.001113
vn -0.999956 -0.009421 -0.000483
vn -0.990997 -0.133877 -0.001037
vn -0.999956 -0.009421 -0.000483
vn -0.990997 -0.133877 -0.001037
vn 0.999943 -0.010581 -0.001113
vn 0.999999 -0.000658 -0.001161
vn 0.999999 -0.000219 -0.001551
vn -0.148766 0.934771 0.322602
vn -0.690205 0.669290 0.275079
vn -0.084269 0.992272 0.091077
vn -0.148766 0.934771 0.322602
vn -0.084269 0.992272 0.091077
vn -0.084269 0.992272 0.091077
vn -0.952478 0.274222 0.132621
vn -0.946658 0.252580 0.200106
vn -0.946658 0.252580 0.200106
vn -0.952478 0.274222 0.132621
vn -0.946658 0.252580 0.200106
vn -0.952478 0.274222 0.132621
vn -0.999956 -0.009421 -0.000483
vn -0.999943 -0.010581 -0.001113
vn -0.999999 -0.000658 -0.001161
vn -0.999956 -0.009421 -0.000483
vn -0.999999 -0.000658 -0.001161
vn -0.999999 -0.001097 -0.000771
vn -0.999956 -0.009421 -0.000483
vn -0.999999 -0.001097 -0.000771
vn -0.999999 -0.001097 -0.000771
vn -0.999956 -0.009421 -0.000483
vn -0.999999 -0.001097 -0.000771
vn -0.999999 0.001083 -0.000215
vn -0.581179 -0.806872 0.105779
vn -0.455943 -0.883339 0.108756
vn -0.455943 -0.883339 0.108756
vn -0.581179 -0.806872 0.105779
vn -0.455943 -0.883339 0.108756
vn -0.581179 -0.806872 0.105779
vn -0.455943 -0.883339 0.108756
vn -0.424756 -0.898284 0.112549
vn -0.455943 -0.883339 0.108756
vn 0.710765 -0.703429 -0.000160
vn 0.604033 -0.796959 0.000502
vn 0.604033 -0.796959 0.000502
vn 0.710765 -0.703429 -0.000160
vn 0.604033 -0.796959 0.000502
vn 0.710765 -0.703429 -0.000160
vn 0.999984 0.005338 0.001836
vn 0.999984 0.005338 0.001836
vn 0.999986 0.005235 0.000038
vn 0.999984 0.005338 0.001836
vn 0.999986 0.005235 0.000038
vn 0.999986 0.005235 0.000038
vn -0.183910 0.327454 -0.926796
vn -0.141621 -0.064977 -0.987786
vn -0.544987 0.196234 -0.815157
vn -0.183910 0.327454 -0.926796
vn -0.544987 0.196234 -0.815157
vn -0.406734 0.535484 -0.740151
vn -0.103344 0.969916 0.220414
vn -0.103344 0.969916 0.220414
vn -0.087937 0.949603 0.300867
vn -0.048459 0.935067 -0.351143
vn -0.048459 0.935067 -0.351143
vn -0.048459 0.935067 -0.351143
vn -0.562330 0.616386 0.551229
vn -0.690205 0.669290 0.275079
vn -0.148766 0.934771 0.322602
vn -0.562330 0.616386 0.551229
vn -0.148766 0.934771 0.322602
vn -0.269125 0.660290 0.701134
vn -0.548456 0.529828 0.646899
vn -0.562330 0.616386 0.551229
vn -0.269125 0.660290 0.701134
vn -0.548456 0.529828 0.646899
vn -0.269125 0.660290 0.701134
vn -0.320763 0.449079 0.833930
vn -0.542117 -0.838003 -0.062131
vn -0.646779 -0.760932 0.051578
vn -0.452667 -0.866704 -0.209561
vn -0.984487 0.168173 -0.050029
vn -0.934693 -0.046313 -0.352425
vn -0.864795 -0.431765 -0.256335
vn -0.984487 0.168173 -0.050029
vn -0.864795 -0.431765 -0.256335
vn -0.801406 -0.500059 0.328162
vn -0.946658 0.252580 0.200106
vn -0.937014 0.250835 0.243080
vn -0.946658 0.252580 0.200106
vn -0.105249 -0.500612 -0.859250
vn -0.097162 -0.650584 -0.753193
vn -0.097162 -0.650584 -0.753193
vn -0.105249 -0.500612 -0.859250
vn -0.097162 -0.650584 -0.753193
vn -0.105249 -0.500612 -0.859250
vn -0.864795 -0.431765 -0.256335
vn -0.934693 -0.046313 -0.352425
vn -0.834827 -0.407437 -0.370216
vn 0.999956 -0.009421 -0.000483
vn 0.999986 0.005235 0.000038
vn 0.999986 0.005235 0.000038
vn 0.999956 -0.009421 -0.000483
vn 0.999986 0.005235 0.000038
vn 0.999999 0.001083 -0.000215
vn -0.084269 0.992272 0.091077
vn -0.084269 0.992272 0.091077
vn -0.103344 0.969916 0.220414
vn -0.084269 0.992272 0.091077
vn -0.103344 0.969916 0.220414
vn -0.103344 0.969916 0.220414
vn 0.999986 0.003468 0.003936
vn 0.999984 0.005338 0.001836
vn 0.999984 0.005338 0.001836
vn -0.581179 -0.806872 0.105779
vn -0.646779 -0.760932 0.051578
vn -0.542117 -0.838003 -0.062131
vn -0.581179 -0.806872 0.105779
vn -0.542117 -0.838003 -0.062131
vn -0.581179 -0.806872 0.105779
vn -0.864795 -0.431765 -0.256335
vn -0.834827 -0.407437 -0.370216
vn -0.618054 -0.769931 0.158796
vn 0.084269 0.992272 0.091077
vn 0.084269 0.992272 0.091077
vn 0.690205 0.669290 0.275079
vn 0.084269 0.992272 0.091077
vn 0.690205 0.669290 0.275079
vn 0.148766 0.934771 0.322602
vn 0.690205 0.669290 0.275079
vn 0.952478 0.274222 0.132621
vn 0.952478 0.274222 0.132621
vn 0.690205 0.669290 0.275079
vn 0.952478 0.274222 0.132621
vn 0.947720 0.288421 0.136528
vn -0.710765 -0.703430 -0.000159
vn -0.905536 -0.424269 -0.000950
vn -0.905536 -0.424269 -0.000950
vn -0.710765 -0.703430 -0.000159
vn -0.905536 -0.424269 -0.000950
vn -0.710765 -0.703430 -0.000159
vn -0.990997 -0.133877 -0.001037
vn -0.990997 -0.133877 -0.001037
vn -0.905536 -0.424269 -0.000950
vn -0.990997 -0.133877 -0.001037
vn -0.905536 -0.424269 -0.000950
vn -0.905536 -0.424269 -0.000950
vn 0.320763 0.449079 0.833930
vn 0.269125 0.660290 0.701134
vn 0.562330 0.616386 0.551229
vn 0.320763 0.449079 0.833930
vn 0.562330 0.616386 0.551229
vn 0.548456 0.529828 0.646899
vn 0.544987 0.196234 -0.815157
vn 0.141621 -0.064977 -0.987786
vn 0.183909 0.327454 -0.926796
vn 0.544987 0.196234 -0.815157
vn 0.183909 0.327454 -0.926796
vn 0.406734 0.535484 -0.740151
vn -0.548456 0.529828 0.646899
vn -0.320763 0.449079 0.833930
vn -0.330160 0.455958 0.826497
vn -0.548456 0.529828 0.646899
vn -0.330160 0.455958 0.826497
vn -0.466476 0.578747 0.668919
vn -0.984487 0.168173 -0.050029
vn -0.690205 0.669290 0.275079
vn -0.562330 0.616386 0.551229
vn -0.984487 0.168173 -0.050029
vn -0.562330 0.616386 0.551229
vn -0.957793 0.284337 -0.042246
vn -0.801406 -0.500059 0.328162
vn -0.864795 -0.431765 -0.256335
vn -0.618054 -0.769931 0.158796
vn -0.945113 0.282267 0.164579
vn -0.947720 0.288421 0.136528
vn -0.690205 0.669290 0.275079
vn -0.945113 0.282267 0.164579
vn -0.690205 0.669290 0.275079
vn -0.984487 0.168173 -0.050029
vn -0.740439 -0.653659 0.156462
vn -0.801406 -0.500059 0.328162
vn -0.690401 -0.630314 0.355036
vn -0.690401 -0.630314 0.355036
vn -0.801406 -0.500059 0.328162
vn -0.618054 -0.769931 0.158796
vn 0.618054 -0.769931 0.158796
vn 0.864795 -0.431765 -0.256336
vn 0.801406 -0.500059 0.328162
vn 0.984487 0.168173 -0.050029
vn 0.690205 0.669290 0.275079
vn 0.947720 0.288421 0.136528
vn 0.984487 0.168173 -0.050029
vn 0.947720 0.288421 0.136528
vn 0.945113 0.282267 0.164579
vn 0.740439 -0.653659 0.156462
vn 0.452667 -0.866704 -0.209561
vn 0.555857 -0.817107 -0.152834
vn 0.555857 -0.817107 -0.152834
vn 0.452667 -0.866704 -0.209561
vn 0.542117 -0.838003 -0.062131
vn 0.690401 -0.630314 0.355036
vn 0.801406 -0.500059 0.328162
vn 0.740439 -0.653659 0.156462
vn 0.618054 -0.769931 0.158796
vn 0.801406 -0.500059 0.328162
vn 0.690401 -0.630314 0.355036
vn -0.542117 -0.838003 -0.062131
vn -0.452667 -0.866704 -0.209561
vn -0.555857 -0.817107 -0.152834
vn -0.555857 -0.817107 -0.152834
vn -0.452667 -0.866704 -0.209561
vn -0.740439 -0.653659 0.156462
vn 0.740439 -0.653659 0.156462
vn 0.555857 -0.817107 -0.152834
vn 0.690401 -0.630314 0.355036
vn -0.690401 -0.630314 0.355036
vn -0.555857 -0.817107 -0.152834
vn -0.740439 -0.653659 0.156462
vn 0.690401 -0.630314 0.355036
vn 0.555857 -0.817107 -0.152834
vn 0.622483 -0.779929 -0.065010
vn 0.690401 -0.630314 0.355036
vn 0.622483 -0.779929 -0.065010
vn 0.689857 -0.708216 0.150093
vn -0.689857 -0.708216 0.150092
vn -0.622483 -0.779929 -0.065010
vn -0.555857 -0.817107 -0.152834
vn -0.689857 -0.708216 0.150092
vn -0.555857 -0.817107 -0.152834
vn -0.690401 -0.630314 0.355036
vn 0.542117 -0.838003 -0.062131
vn 0.622483 -0.779929 -0.065010
vn 0.555857 -0.817107 -0.152834
vn 0.690401 -0.630314 0.355036
vn 0.689857 -0.708216 0.150093
vn 0.618054 -0.769931 0.158796
vn -0.618054 -0.769931 0.158796
vn -0.689857 -0.708216 0.150092
vn -0.690401 -0.630314 0.355036
vn -0.555857 -0.817107 -0.152834
vn -0.622483 -0.779929 -0.065010
vn -0.542117 -0.838003 -0.062131
vn 0.905536 -0.424269 -0.000950
vn 0.905536 -0.424269 -0.000950
vn 0.990997 -0.133877 -0.001037
vn 0.905536 -0.424269 -0.000950
vn 0.990997 -0.133877 -0.001037
vn 0.990997 -0.133877 -0.001037
vn 0.710765 -0.703429 -0.000160
vn 0.905536 -0.424269 -0.000950
vn 0.905536 -0.424269 -0.000950
vn 0.710765 -0.703429 -0.000160
vn 0.905536 -0.424269 -0.000950
vn 0.710765 -0.703429 -0.000160
vn -0.000000 0.678517 0.734585
vn -0.000000 0.553448 0.832884
vn 0.330160 0.455958 0.826496
vn -0.000000 0.678517 0.734585
vn 0.330160 0.455958 0.826496
vn 0.466476 0.578747 0.668919
vn -0.604033 -0.796959 0.000503
vn -0.710765 -0.703430 -0.000159
vn -0.710765 -0.703430 -0.000159
vn -0.604033 -0.796959 0.000503
vn -0.710765 -0.703430 -0.000159
vn -0.604033 -0.796959 0.000503
vn -0.957793 0.284337 -0.042246
vn -0.562330 0.616386 0.551229
vn -0.548456 0.529828 0.646899
vn -0.957793 0.284337 -0.042246
vn -0.548456 0.529828 0.646899
vn -0.844598 0.535303 -0.010185
vn 0.957793 0.284337 -0.042246
vn 0.984487 0.168173 -0.050029
vn 0.934694 -0.046313 -0.352425
vn 0.957793 0.284337 -0.042246
vn 0.934694 -0.046313 -0.352425
vn 0.905940 -0.006238 -0.423359
vn -0.905940 -0.006238 -0.423359
vn -0.957793 0.284337 -0.042246
vn -0.844598 0.535303 -0.010185
vn -0.905940 -0.006238 -0.423359
vn -0.844598 0.535303 -0.010185
vn -0.544987 0.196234 -0.815157
vn 0.406734 0.535484 -0.740151
vn 0.183909 0.327454 -0.926796
vn -0.000000 0.450285 -0.892885
vn 0.406734 0.535484 -0.740151
vn -0.000000 0.450285 -0.892885
vn -0.000000 0.635451 -0.772141
vn -0.466476 0.578747 0.668919
vn -0.330160 0.455958 0.826497
vn -0.000000 0.553448 0.832884
vn -0.466476 0.578747 0.668919
vn -0.000000 0.553448 0.832884
vn -0.000000 0.678517 0.734585
vn 0.957793 0.284337 -0.042246
vn 0.562330 0.616386 0.551229
vn 0.690205 0.669290 0.275079
vn 0.957793 0.284337 -0.042246
vn 0.690205 0.669290 0.275079
vn 0.984487 0.168173 -0.050029
vn 0.844598 0.535303 -0.010185
vn 0.548456 0.529828 0.646899
vn 0.562330 0.616386 0.551229
vn 0.844598 0.535303 -0.010185
vn 0.562330 0.616386 0.551229
vn 0.957793 0.284337 -0.042246
vn -0.905940 -0.006238 -0.423359
vn -0.934693 -0.046313 -0.352425
vn -0.984487 0.168173 -0.050029
vn -0.905940 -0.006238 -0.423359
vn -0.984487 0.168173 -0.050029
vn -0.957793 0.284337 -0.042246
vn 0.105249 -0.500612 -0.859250
vn 0.105249 -0.500612 -0.859250
vn 0.141621 -0.064977 -0.987786
vn 0.105249 -0.500612 -0.859250
vn 0.141621 -0.064977 -0.987786
vn 0.544987 0.196234 -0.815157
vn 0.544987 0.196234 -0.815157
vn 0.844598 0.535303 -0.010185
vn 0.957793 0.284337 -0.042246
vn 0.544987 0.196234 -0.815157
vn 0.957793 0.284337 -0.042246
vn 0.905940 -0.006238 -0.423359
vn -0.105249 -0.500612 -0.859250
vn -0.544987 0.196234 -0.815157
vn -0.141621 -0.064977 -0.987786
vn -0.105249 -0.500612 -0.859250
vn -0.141621 -0.064977 -0.987786
vn -0.105249 -0.500612 -0.859250
vn -0.000000 0.678517 0.734585
vn -0.000000 0.794600 0.607133
vn -0.651499 0.758616 0.007066
vn -0.000000 0.678517 0.734585
vn -0.651499 0.758616 0.007066
vn -0.466476 0.578747 0.668919
vn -0.466476 0.578747 0.668919
vn -0.651499 0.758616 0.007066
vn -0.844598 0.535303 -0.010185
vn -0.466476 0.578747 0.668919
vn -0.844598 0.535303 -0.010185
vn -0.548456 0.529828 0.646899
vn 0.466476 0.578747 0.668919
vn 0.651499 0.758617 0.007066
vn -0.000000 0.794600 0.607133
vn 0.466476 0.578747 0.668919
vn -0.000000 0.794600 0.607133
vn -0.000000 0.678517 0.734585
vn 0.548456 0.529828 0.646899
vn 0.844598 0.535303 -0.010185
vn 0.651499 0.758617 0.007066
vn 0.548456 0.529828 0.646899
vn 0.651499 0.758617 0.007066
vn 0.466476 0.578747 0.668919
vn -0.544987 0.196234 -0.815157
vn -0.844598 0.535303 -0.010185
vn -0.651499 0.758616 0.007066
vn -0.544987 0.196234 -0.815157
vn -0.651499 0.758616 0.007066
vn -0.406734 0.535484 -0.740151
vn -0.000000 0.635451 -0.772141
vn -0.000000 0.450285 -0.892885
vn -0.183910 0.327454 -0.926796
vn -0.000000 0.635451 -0.772141
vn -0.183910 0.327454 -0.926796
vn -0.406734 0.535484 -0.740151
vn -0.000000 0.635451 -0.772141
vn -0.000000 0.805309 -0.592855
vn 0.651499 0.758617 0.007066
vn -0.000000 0.635451 -0.772141
vn 0.651499 0.758617 0.007066
vn 0.406734 0.535484 -0.740151
vn 0.406734 0.535484 -0.740151
vn 0.651499 0.758617 0.007066
vn 0.844598 0.535303 -0.010185
vn 0.406734 0.535484 -0.740151
vn 0.844598 0.535303 -0.010185
vn 0.544987 0.196234 -0.815157
f 85/1/1 60/2/2 7/3/3
f 85/4/4 7/5/5 84/6/6
f 40/7/7 79/8/8 46/9/9
f 40/10/10 46/11/11 41/12/12
f 40/13/13 41/14/14 47/15/15
f 40/16/16 47/17/17 45/18/18
f 13/19/19 14/20/20 1/21/21
f 13/22/22 1/23/23 11/24/24
f 82/25/25 32/26/26 61/27/27
f 82/28/28 61/29/29 63/30/30
f 77/31/31 2/32/32 9/33/33
f 76/34/34 4/35/35 5/36/36
f 76/37/37 5/38/38 70/39/39
f 12/40/40 5/41/41 15/42/42
f 12/43/43 15/44/44 16/45/45
f 34/46/46 52/47/47 55/48/48
f 34/49/49 55/50/50 33/51/51
f 26/52/52 20/53/53 18/54/54
f 24/55/55 9/56/56 2/57/57
f 24/58/58 2/59/59 19/60/60
f 10/61/61 17/62/62 4/63/63
f 26/64/64 23/65/65 22/66/66
f 26/67/67 22/68/68 25/69/69
f 9/70/70 24/71/71 25/72/72
f 9/73/73 25/74/74 14/75/75
f 17/76/76 5/77/77 4/78/78
f 23/79/79 18/80/80 21/81/81
f 15/82/82 5/83/83 17/84/84
f 18/85/85 23/86/86 26/87/87
f 25/88/88 24/89/89 20/90/90
f 25/91/91 20/92/92 26/93/93
f 21/94/94 18/95/95 20/96/96
f 19/97/97 21/98/98 20/99/99
f 19/100/100 20/101/101 24/102/102
f 22/103/103 23/104/104 21/105/105
f 22/106/106 21/107/107 19/108/108
f 17/109/109 10/110/110 15/111/111
f 44/112/112 45/113/113 47/114/114
f 44/115/115 47/116/116 48/117/117
f 16/118/118 15/119/119 14/120/120
f 16/121/121 14/122/122 13/123/123
f 47/124/124 41/125/125 50/126/126
f 45/127/127 33/128/128 55/129/129
f 45/130/130 55/131/131 58/132/132
f 52/133/133 54/134/134 56/135/135
f 52/136/136 56/137/137 55/138/138
f 14/139/139 15/140/140 10/141/141
f 14/142/142 10/143/143 8/144/144
f 14/145/145 8/146/146 78/147/147
f 14/148/148 78/149/149 9/150/150
f 57/151/151 53/152/152 54/153/153
f 57/154/154 54/155/155 52/156/156
f 53/157/157 51/158/158 54/159/159
f 35/160/160 64/161/161 27/162/162
f 35/163/163 27/164/164 3/165/165
f 49/166/166 53/167/167 57/168/168
f 49/169/169 57/170/170 58/171/171
f 35/172/172 66/173/173 68/174/174
f 35/175/175 68/176/176 85/177/177
f 49/178/178 56/179/179 51/180/180
f 50/181/181 37/182/182 47/183/183
f 42/184/184 33/185/185 45/186/186
f 42/187/187 45/188/188 44/189/189
f 69/190/190 42/191/191 44/192/192
f 69/193/193 44/194/194 67/195/195
f 40/196/196 34/197/197 74/198/198
f 71/199/199 37/200/200 36/201/201
f 71/202/202 36/203/203 73/204/204
f 54/205/205 51/206/206 56/207/207
f 48/208/208 47/209/209 37/210/210
f 48/211/211 37/212/212 43/213/213
f 36/214/214 37/215/215 50/216/216
f 45/217/217 58/218/218 57/219/219
f 45/220/220 57/221/221 40/222/222
f 58/223/223 55/224/224 56/225/225
f 58/226/226 56/227/227 49/228/228
f 51/229/229 53/230/230 49/231/231
f 52/232/232 34/233/233 40/234/234
f 52/235/235 40/236/236 57/237/237
f 36/238/238 50/239/239 41/240/240
f 25/241/241 22/242/242 1/243/243
f 25/244/244 1/245/245 14/246/246
f 1/247/247 22/248/248 19/249/249
f 1/250/250 19/251/251 2/252/252
f 31/253/253 65/254/254 61/255/255
f 31/256/256 61/257/257 32/258/258
f 16/259/259 13/260/260 61/261/261
f 16/262/262 61/263/263 65/264/264
f 61/265/265 13/266/266 11/267/267
f 61/268/268 11/269/269 63/270/270
f 62/271/271 65/272/272 31/273/273
f 62/274/274 31/275/275 83/276/276
f 69/277/277 67/278/278 3/279/279
f 69/280/280 3/281/281 80/282/282
f 71/283/283 33/284/284 42/285/285
f 71/286/286 42/287/287 38/288/288
f 73/289/289 36/290/290 41/291/291
f 74/292/292 34/293/293 33/294/294
f 74/295/295 33/296/296 71/297/297
f 71/298/298 73/299/299 29/300/300
f 29/301/301 73/302/302 41/303/303
f 10/304/304 4/305/305 76/306/306
f 70/307/307 1/308/308 2/309/309
f 70/310/310 2/311/311 77/312/312
f 70/313/313 77/314/314 75/315/315
f 75/316/316 77/317/317 9/318/318
f 30/319/319 76/320/320 70/321/321
f 10/322/322 76/323/323 30/324/324
f 40/325/325 74/326/326 72/327/327
f 72/328/328 74/329/329 71/330/330
f 70/331/331 75/332/332 30/333/333
f 29/334/334 72/335/335 71/336/336
f 30/337/337 75/338/338 78/339/339
f 30/340/340 78/341/341 8/342/342
f 46/343/343 79/344/344 72/345/345
f 46/346/346 72/347/347 29/348/348
f 9/349/349 78/350/350 75/351/351
f 30/352/352 8/353/353 10/354/354
f 41/355/355 46/356/356 29/357/357
f 72/358/358 79/359/359 40/360/360
f 66/361/361 67/362/362 44/363/363
f 66/364/364 44/365/365 48/366/366
f 3/367/367 67/368/368 66/369/369
f 3/370/370 66/371/371 35/372/372
f 81/373/373 27/374/374 32/375/375
f 81/376/376 32/377/377 82/378/378
f 64/379/379 31/380/380 32/381/381
f 64/382/382 32/383/383 27/384/384
f 38/385/385 42/386/386 69/387/387
f 38/388/388 69/389/389 39/390/390
f 28/391/391 70/392/392 5/393/393
f 28/394/394 5/395/395 12/396/396
f 43/397/397 38/398/398 39/399/399
f 43/400/400 39/401/401 68/402/402
f 83/403/403 31/404/404 64/405/405
f 83/406/406 64/407/407 84/408/408
f 80/409/409 3/410/410 27/411/411
f 80/412/412 27/413/413 81/414/414
f 28/415/415 11/416/416 1/417/417
f 28/418/418 1/419/419 70/420/420
f 6/421/421 63/422/422 11/423/423
f 6/424/424 11/425/425 28/426/426
f 43/427/427 37/428/428 71/429/429
f 43/430/430 71/431/431 38/432/432
f 12/433/433 16/434/434 65/435/435
f 12/436/436 65/437/437 62/438/438
f 62/439/439 6/440/440 28/441/441
f 62/442/442 28/443/443 12/444/444
f 43/445/445 68/446/446 66/447/447
f 43/448/448 66/449/449 48/450/450
f 81/451/451 7/452/452 60/453/453
f 81/454/454 60/455/455 80/456/456
f 80/457/457 60/458/458 39/459/459
f 80/460/460 39/461/461 69/462/462
f 82/463/463 59/464/464 7/465/465
f 82/466/466 7/467/467 81/468/468
f 63/469/469 6/470/470 59/471/471
f 63/472/472 59/473/473 82/474/474
f 68/475/475 39/476/476 60/477/477
f 68/478/478 60/479/479 85/480/480
f 84/481/481 64/482/482 35/483/483
f 84/484/484 35/485/485 85/486/486
f 84/487/487 7/488/488 59/489/489
f 84/490/490 59/491/491 83/492/492
f 83/493/493 59/494/494 6/495/495
f 83/496/496 6/497/497 62/498/498
