v -0.141647 0.254883 1.793870
v -0.667415 0.254786 -0.102116
v -0.193468 0.084645 1.382532
v -0.261423 0.254124 1.382761
v 0.000748 0.256283 2.295950
v -0.001337 -0.026384 1.382295
v 0.000564 0.097418 1.794629
v -0.510578 -0.181704 -0.101697
v -0.114543 0.156350 1.794498
v -0.034219 0.225137 1.795739
v -0.065790 0.191184 1.381668
v -0.153880 0.074249 -0.100868
v -0.002349 -0.329211 -0.102021
v 0.140640 0.254883 1.793870
v 0.666409 0.254786 -0.102116
v 0.192462 0.084645 1.382532
v 0.260417 0.254124 1.382761
v -0.001755 0.256283 2.295950
v 0.000330 -0.026384 1.382295
v -0.001571 0.097418 1.794629
v 0.512074 -0.181991 -0.101304
v 0.113537 0.156350 1.794498
v 0.033212 0.225137 1.795739
v 0.064783 0.191184 1.381668
v 0.152873 0.074249 -0.100868
v 0.504521 -0.180731 -3.220125
v -0.822225 0.253302 -0.748158
v -0.660871 -0.179362 -2.240856
v -0.760748 -0.178606 -1.513161
v 0.793502 0.041147 -1.618471
v 0.759742 -0.178606 -1.513161
v 0.659864 -0.179362 -2.240856
v 0.707577 0.013459 -2.300773
v 0.821218 0.253302 -0.748158
v 0.508307 -0.178834 -2.361127
v 0.511324 -0.178939 -1.721612
v -0.510798 -0.181417 -0.587164
v 0.000748 0.256283 2.295950
v -0.261423 0.254124 1.382761
v -0.141647 0.254883 1.793870
v -0.193468 0.084645 1.382532
v -0.114543 0.156350 1.794498
v -0.505528 -0.180731 -3.220125
v -0.794508 0.041147 -1.618471
v -0.221134 0.205813 1.794993
v -0.365859 0.164173 1.380410
v -0.512330 -0.178939 -1.721612
v -0.511588 -0.181785 -0.901213
v -0.510578 -0.181704 -0.101697
v 0.000748 0.256283 2.295950
v -0.129055 -0.127383 1.380109
v -0.002349 -0.329211 -0.102021
v 0.508324 -0.182343 -0.901368
v 0.019826 -0.330447 -0.901488
v -0.193468 0.084645 1.382532
v -0.114543 0.156350 1.794498
v -0.313592 -0.331093 -1.263714
v -0.220019 0.250306 -1.799987
v -0.079790 0.030133 1.789801
v 0.019826 -0.330447 -0.901488
v -0.348951 -0.521363 -0.901783
v -0.300424 -0.521184 -0.101791
v 0.000564 0.097418 1.794629
v -0.001337 -0.026384 1.382295
v -0.431980 -0.020152 -1.262376
v -0.000503 -0.018310 -1.262098
v 0.509791 -0.181417 -0.587163
v -0.930869 0.041401 -0.824456
v 0.929683 0.041401 -0.824456
v 0.000748 0.256283 2.295950
v -0.511588 -0.181785 -0.901213
v 0.260417 0.254124 1.382761
v 0.140640 0.254883 1.793870
v 0.192462 0.084645 1.382532
v 0.113537 0.156350 1.794498
v -0.708584 0.013459 -2.300774
v 0.220127 0.205813 1.794993
v 0.364852 0.164173 1.380410
v 0.430111 -0.020152 -1.262376
v -0.509314 -0.178834 -2.361127
v 0.508324 -0.182343 -0.901368
v 0.512074 -0.181991 -0.101304
v 0.000748 0.256283 2.295950
v 0.135605 -0.127231 1.378628
v -0.002349 -0.329211 -0.102021
v 0.928962 0.040610 -0.668019
v 0.192462 0.084645 1.382532
v 0.113537 0.156350 1.794498
v 0.219012 0.250306 -1.799987
v 0.075173 0.029610 1.792899
v 0.019826 -0.330447 -0.901488
v 0.340536 -0.521242 -0.899179
v 0.301030 -0.520741 -0.101789
v 0.000564 0.097418 1.794629
v -0.001337 -0.026384 1.382295
v -0.930620 0.036670 -0.101200
v 0.929614 0.036670 -0.101200
v 0.590741 -0.180046 -2.701222
v 0.640542 -0.041178 -2.731181
v 0.508902 -0.179782 -2.761358
v -0.509908 -0.179782 -2.761358
v -0.641548 -0.041178 -2.731181
v -0.591747 -0.180046 -2.701222
v -0.000503 0.254786 0.365359
v -0.929968 0.040610 -0.668019
v 0.309695 -0.331033 -1.262412
v 0.864153 -0.182136 -0.587367
v -0.865160 -0.182136 -0.587367
v 0.720844 -0.072661 -0.101252
v -0.720599 -0.072517 -0.101448
v 0.816910 0.251972 -1.348498
v -0.817917 0.251972 -1.348498
v -0.000503 0.254970 -2.047174
vt 0.590883 0.268214
vt 0.590830 0.292880
vt 0.653118 0.292673
vt 0.590883 0.268214
vt 0.653118 0.292673
vt 0.653131 0.284190
vt 0.653131 0.284190
vt 0.653118 0.292673
vt 0.670369 0.292776
vt 0.653131 0.284190
vt 0.670369 0.292776
vt 0.670517 0.288829
vt 0.670517 0.288829
vt 0.670369 0.292776
vt 0.691436 0.292968
vt 0.493108 0.231675
vt 0.600488 0.317379
vt 0.630022 0.264554
vt 0.493108 0.231675
vt 0.630022 0.264554
vt 0.504596 0.211200
vt 0.473894 0.189002
vt 0.426842 0.179326
vt 0.469914 0.196134
vt 0.463290 0.208082
vt 0.493108 0.231675
vt 0.504596 0.211200
vt 0.463290 0.208082
vt 0.504596 0.211200
vt 0.469914 0.196134
vt 0.469914 0.196134
vt 0.504596 0.211200
vt 0.512129 0.197791
vt 0.469914 0.196134
vt 0.512129 0.197791
vt 0.473894 0.189002
vt 0.469914 0.196134
vt 0.426842 0.179326
vt 0.463290 0.208082
vt 0.670517 0.288829
vt 0.670401 0.271277
vt 0.653099 0.254373
vt 0.670517 0.288829
vt 0.653099 0.254373
vt 0.653131 0.284190
vt 0.691436 0.292968
vt 0.670401 0.271277
vt 0.670517 0.288829
vt 0.512129 0.197791
vt 0.504596 0.211200
vt 0.630022 0.264554
vt 0.512129 0.197791
vt 0.630022 0.264554
vt 0.640036 0.246729
vt 0.653131 0.284190
vt 0.653099 0.254373
vt 0.590834 0.213090
vt 0.653131 0.284190
vt 0.590834 0.213090
vt 0.590883 0.268214
vt 0.653131 0.284190
vt 0.653118 0.292673
vt 0.590830 0.292880
vt 0.653131 0.284190
vt 0.590830 0.292880
vt 0.590883 0.268214
vt 0.670517 0.288829
vt 0.670369 0.292776
vt 0.653118 0.292673
vt 0.670517 0.288829
vt 0.653118 0.292673
vt 0.653131 0.284190
vt 0.691436 0.292968
vt 0.670369 0.292776
vt 0.670517 0.288829
vt 0.504596 0.211200
vt 0.630013 0.264496
vt 0.600488 0.317379
vt 0.504596 0.211200
vt 0.600488 0.317379
vt 0.493108 0.231675
vt 0.469914 0.196134
vt 0.426842 0.179326
vt 0.473894 0.189002
vt 0.469914 0.196134
vt 0.504596 0.211200
vt 0.493108 0.231675
vt 0.469914 0.196134
vt 0.493108 0.231675
vt 0.463290 0.208082
vt 0.473894 0.189002
vt 0.512129 0.197791
vt 0.504596 0.211200
vt 0.473894 0.189002
vt 0.504596 0.211200
vt 0.469914 0.196134
vt 0.463290 0.208082
vt 0.426842 0.179326
vt 0.469914 0.196134
vt 0.653131 0.284190
vt 0.653099 0.254373
vt 0.670401 0.271277
vt 0.653131 0.284190
vt 0.670401 0.271277
vt 0.670517 0.288829
vt 0.670517 0.288829
vt 0.670369 0.292776
vt 0.653118 0.292673
vt 0.600189 0.307435
vt 0.549226 0.281429
vt 0.549100 0.223310
vt 0.640036 0.246729
vt 0.630013 0.264496
vt 0.504596 0.211200
vt 0.640036 0.246729
vt 0.504596 0.211200
vt 0.512129 0.197791
vt 0.990885 0.496094
vt 0.990885 0.131510
vt 0.940104 0.496094
vt 0.940104 0.496094
vt 0.990885 0.496094
vt 0.990885 0.131510
vt 0.940104 0.496094
vt 0.990885 0.131510
vt 0.940104 0.131510
vt 0.990885 0.496094
vt 0.990885 0.131510
vt 0.940104 0.131510
vt 0.990885 0.496094
vt 0.940104 0.131510
vt 0.940104 0.496094
vt 0.990885 0.496094
vt 0.990885 0.131510
vt 0.940104 0.131510
vt 0.990885 0.496094
vt 0.940104 0.131510
vt 0.940104 0.496094
vt 0.940104 0.496094
vt 0.990885 0.496094
vt 0.990885 0.131510
vt 0.940104 0.496094
vt 0.990885 0.131510
vt 0.940104 0.131510
vt 0.940104 0.496094
vt 0.990885 0.496094
vt 0.990885 0.131510
vt 0.940104 0.496094
vt 0.990885 0.131510
vt 0.940104 0.131510
vt 0.990885 0.131510
vt 0.940104 0.496094
vt 0.990885 0.496094
vt 0.940104 0.496094
vt 0.990885 0.496094
vt 0.990885 0.131510
vt 0.940104 0.496094
vt 0.990885 0.131510
vt 0.940104 0.131510
vt 0.940104 0.496094
vt 0.990885 0.496094
vt 0.990885 0.131510
vt 0.940104 0.496094
vt 0.990885 0.496094
vt 0.990885 0.131510
vt 0.940104 0.496094
vt 0.990885 0.131510
vt 0.940104 0.131510
vt 0.710585 0.337710
vt 0.687955 0.310636
vt 0.667277 0.333209
vt 0.940104 0.496094
vt 0.990885 0.496094
vt 0.990885 0.131510
vt 0.940104 0.496094
vt 0.990885 0.131510
vt 0.940104 0.131510
vt 0.940104 0.496094
vt 0.990885 0.496094
vt 0.990885 0.131510
vt 0.640036 0.246729
vt 0.630013 0.264496
vt 0.665176 0.292575
vt 0.563704 0.292677
vt 0.563704 0.292677
vt 0.538497 0.292495
vt 0.563704 0.292677
vt 0.538497 0.292495
vt 0.517229 0.292861
vt 0.563704 0.292677
vt 0.517229 0.292861
vt 0.509161 0.292905
vt 0.563704 0.292677
vt 0.509161 0.292905
vt 0.517229 0.292861
vt 0.563704 0.292677
vt 0.517229 0.292861
vt 0.538497 0.292495
vt 0.590830 0.292880
vt 0.610459 0.292880
vt 0.590830 0.292880
vt 0.590830 0.292880
vt 0.590830 0.292880
vt 0.563704 0.292677
vt 0.590830 0.292880
vt 0.563704 0.292677
vt 0.563704 0.292677
vt 0.990885 0.496094
vt 0.990885 0.131510
vt 0.940104 0.131510
vt 0.990885 0.496094
vt 0.940104 0.131510
vt 0.940104 0.496094
vt 0.940104 0.496094
vt 0.990885 0.496094
vt 0.990885 0.131510
vt 0.940104 0.496094
vt 0.990885 0.131510
vt 0.940104 0.131510
vt 0.990885 0.496094
vt 0.990885 0.131510
vt 0.940104 0.496094
vt 0.940104 0.496094
vt 0.990885 0.496094
vt 0.990885 0.131510
vt 0.940104 0.496094
vt 0.990885 0.131510
vt 0.940104 0.131510
vt 0.500357 0.278954
vt 0.621018 0.308367
vt 0.584796 0.371926
vt 0.940104 0.496094
vt 0.990885 0.496094
vt 0.990885 0.131510
vt 0.940104 0.496094
vt 0.990885 0.131510
vt 0.940104 0.131510
vt 0.710585 0.337710
vt 0.727501 0.418417
vt 0.757192 0.403879
vt 0.990885 0.496094
vt 0.990885 0.131510
vt 0.940104 0.131510
vt 0.990885 0.496094
vt 0.940104 0.131510
vt 0.940104 0.496094
vt 0.940104 0.496094
vt 0.990885 0.496094
vt 0.990885 0.131510
vt 0.940104 0.496094
vt 0.990885 0.131510
vt 0.940104 0.131510
vt 0.990885 0.496094
vt 0.990885 0.131510
vt 0.940104 0.131510
vt 0.990885 0.496094
vt 0.940104 0.131510
vt 0.940104 0.496094
vt 0.990885 0.131510
vt 0.940104 0.131510
vt 0.940104 0.496094
vt 0.990885 0.131510
vt 0.940104 0.496094
vt 0.990885 0.496094
vt 0.990885 0.496094
vt 0.990885 0.131510
vt 0.940104 0.496094
vt 0.940104 0.496094
vt 0.990885 0.496094
vt 0.990885 0.131510
vt 0.940104 0.496094
vt 0.990885 0.131510
vt 0.940104 0.131510
vt 0.940104 0.496094
vt 0.990885 0.496094
vt 0.990885 0.131510
vt 0.940104 0.496094
vt 0.990885 0.131510
vt 0.940104 0.131510
vt 0.990885 0.131510
vt 0.940104 0.496094
vt 0.990885 0.496094
vt 0.940104 0.496094
vt 0.990885 0.496094
vt 0.990885 0.131510
vt 0.940104 0.496094
vt 0.990885 0.496094
vt 0.990885 0.131510
vt 0.622608 0.277748
vt 0.630022 0.264554
vt 0.665176 0.292575
vt 0.940104 0.496094
vt 0.990885 0.496094
vt 0.990885 0.131510
vt 0.940104 0.496094
vt 0.990885 0.131510
vt 0.940104 0.131510
vt 0.990885 0.131510
vt 0.940104 0.496094
vt 0.990885 0.496094
vt 0.940104 0.496094
vt 0.990885 0.496094
vt 0.990885 0.131510
vt 0.940104 0.496094
vt 0.990885 0.131510
vt 0.940104 0.131510
vt 0.940104 0.496094
vt 0.990885 0.496094
vt 0.990885 0.131510
vt 0.940104 0.496094
vt 0.990885 0.131510
vt 0.940104 0.131510
vt 0.990885 0.131510
vt 0.940104 0.496094
vt 0.990885 0.496094
vt 0.665176 0.292575
vt 0.630013 0.264496
vt 0.640036 0.246729
vt 0.600189 0.307435
vt 0.549089 0.307435
vt 0.549226 0.281429
vt 0.990885 0.496094
vt 0.990885 0.131510
vt 0.940104 0.131510
vt 0.990885 0.496094
vt 0.940104 0.131510
vt 0.940104 0.496094
vt 0.990885 0.496094
vt 0.990885 0.131510
vt 0.940104 0.496094
vt 0.990885 0.496094
vt 0.990885 0.131510
vt 0.940104 0.131510
vt 0.990885 0.496094
vt 0.940104 0.131510
vt 0.940104 0.496094
vt 0.990885 0.496094
vt 0.990885 0.131510
vt 0.940104 0.131510
vt 0.990885 0.496094
vt 0.940104 0.131510
vt 0.940104 0.496094
vt 0.940104 0.496094
vt 0.990885 0.496094
vt 0.990885 0.131510
vt 0.940104 0.496094
vt 0.990885 0.131510
vt 0.940104 0.131510
vt 0.615195 0.290941
vt 0.647397 0.354444
vt 0.655996 0.324095
vt 0.940104 0.496094
vt 0.990885 0.496094
vt 0.990885 0.131510
vt 0.940104 0.496094
vt 0.990885 0.131510
vt 0.940104 0.131510
vt 0.940104 0.496094
vt 0.980469 0.316406
vt 0.990885 0.496094
vt 0.940104 0.496094
vt 0.990885 0.496094
vt 0.990885 0.131510
vt 0.940104 0.496094
vt 0.990885 0.131510
vt 0.940104 0.131510
vt 0.940104 0.496094
vt 0.980469 0.316406
vt 0.990885 0.496094
vt 0.990885 0.496094
vt 0.990885 0.131510
vt 0.940104 0.131510
vt 0.990885 0.496094
vt 0.940104 0.131510
vt 0.940104 0.496094
vt 0.940104 0.496094
vt 0.990885 0.496094
vt 0.990885 0.131510
vt 0.940104 0.496094
vt 0.990885 0.131510
vt 0.940104 0.131510
vt 0.990885 0.496094
vt 0.990885 0.131510
vt 0.940104 0.131510
vt 0.990885 0.496094
vt 0.940104 0.131510
vt 0.940104 0.496094
vt 0.940104 0.496094
vt 0.990885 0.496094
vt 0.990885 0.131510
vt 0.940104 0.496094
vt 0.990885 0.131510
vt 0.940104 0.131510
vt 0.990885 0.131510
vt 0.940104 0.496094
vt 0.990885 0.496094
vt 0.940104 0.496094
vt 0.990885 0.496094
vt 0.990885 0.131510
vt 0.940104 0.496094
vt 0.990885 0.131510
vt 0.940104 0.131510
vt 0.940104 0.496094
vt 0.990885 0.496094
vt 0.990885 0.131510
vt 0.940104 0.496094
vt 0.990885 0.131510
vt 0.940104 0.131510
vt 0.990885 0.496094
vt 0.990885 0.131510
vt 0.940104 0.496094
vt 0.940104 0.496094
vt 0.990885 0.496094
vt 0.990885 0.131510
vt 0.990885 0.496094
vt 0.990885 0.131510
vt 0.940104 0.131510
vt 0.990885 0.496094
vt 0.940104 0.131510
vt 0.940104 0.496094
vt 0.940104 0.496094
vt 0.990885 0.496094
vt 0.990885 0.131510
vt 0.940104 0.496094
vt 0.990885 0.131510
vt 0.940104 0.131510
vt 0.990885 0.131510
vt 0.940104 0.131510
vt 0.940104 0.496094
vt 0.990885 0.131510
vt 0.940104 0.496094
vt 0.990885 0.496094
vt 0.990885 0.496094
vt 0.990885 0.131510
vt 0.940104 0.496094
vt 0.990885 0.496094
vt 0.990885 0.131510
vt 0.940104 0.496094
vt 0.940104 0.496094
vt 0.990885 0.496094
vt 0.990885 0.131510
vt 0.940104 0.496094
vt 0.990885 0.131510
vt 0.940104 0.131510
vt 0.940104 0.496094
vt 0.990885 0.496094
vt 0.990885 0.131510
vt 0.940104 0.496094
vt 0.990885 0.131510
vt 0.940104 0.131510
vt 0.655996 0.324095
vt 0.647397 0.354444
vt 0.667277 0.333209
vt 0.990885 0.131510
vt 0.940104 0.131510
vt 0.940104 0.496094
vt 0.990885 0.131510
vt 0.940104 0.496094
vt 0.990885 0.496094
vt 0.940104 0.496094
vt 0.990885 0.496094
vt 0.990885 0.131510
vt 0.940104 0.496094
vt 0.990885 0.131510
vt 0.940104 0.131510
vt 0.940104 0.496094
vt 0.980469 0.316406
vt 0.990885 0.496094
vt 0.990885 0.496094
vt 0.990885 0.131510
vt 0.940104 0.131510
vt 0.990885 0.496094
vt 0.940104 0.131510
vt 0.940104 0.496094
vt 0.990885 0.496094
vt 0.990885 0.131510
vt 0.940104 0.131510
vt 0.990885 0.496094
vt 0.940104 0.131510
vt 0.940104 0.496094
vt 0.990885 0.496094
vt 0.990885 0.131510
vt 0.940104 0.131510
vt 0.990885 0.496094
vt 0.940104 0.131510
vt 0.940104 0.496094
vt 0.687955 0.310636
vt 0.710585 0.337710
vt 0.772267 0.355316
vt 0.687955 0.310636
vt 0.772267 0.355316
vt 0.698044 0.292668
vt 0.698044 0.292668
vt 0.772267 0.355316
vt 0.710585 0.337710
vt 0.698044 0.292668
vt 0.710585 0.337710
vt 0.688004 0.310577
vt 0.980469 0.316406
vt 0.990885 0.496094
vt 0.940104 0.496094
vt 0.600488 0.317379
vt 0.647397 0.354444
vt 0.615195 0.290941
vt 0.951823 0.131510
vt 0.967448 0.144531
vt 0.990885 0.131510
vt 0.951823 0.131510
vt 0.990885 0.131510
vt 0.990885 0.496094
vt 0.951823 0.131510
vt 0.990885 0.496094
vt 0.940104 0.496094
vt 0.940104 0.131510
vt 0.940104 0.496094
vt 0.990885 0.496094
vt 0.940104 0.131510
vt 0.990885 0.496094
vt 0.990885 0.131510
vt 0.940104 0.496094
vt 0.990885 0.496094
vt 0.990885 0.131510
vt 0.940104 0.496094
vt 0.990885 0.131510
vt 0.951823 0.131510
vt 0.940104 0.496094
vt 0.951823 0.131510
vt 0.940104 0.134115
vt 0.940104 0.496094
vt 0.990885 0.496094
vt 0.990885 0.131510
vt 0.940104 0.496094
vt 0.990885 0.131510
vt 0.940104 0.131510
vt 0.647397 0.354444
vt 0.600488 0.317379
vt 0.615195 0.290941
vt 0.549226 0.281429
vt 0.549089 0.307435
vt 0.600189 0.307435
vt 0.590834 0.213090
vt 0.653099 0.254373
vt 0.653131 0.284190
vt 0.590834 0.213090
vt 0.653131 0.284190
vt 0.590883 0.268214
vt 0.665176 0.292575
vt 0.630022 0.264554
vt 0.622608 0.277748
vt 0.655996 0.324095
vt 0.647397 0.354444
vt 0.615195 0.290941
vt 0.940104 0.496094
vt 0.990885 0.496094
vt 0.980469 0.316406
vt 0.690983 0.388892
vt 0.727501 0.418417
vt 0.710585 0.337710
vt 0.667277 0.333209
vt 0.688004 0.310577
vt 0.710585 0.337710
vt 0.665176 0.292575
vt 0.687955 0.310636
vt 0.698044 0.292668
vt 0.665176 0.292575
vt 0.698044 0.292668
vt 0.640036 0.246729
vt 0.640036 0.246729
vt 0.698044 0.292668
vt 0.688004 0.310577
vt 0.640036 0.246729
vt 0.688004 0.310577
vt 0.665176 0.292575
vt 0.757192 0.403879
vt 0.727501 0.418417
vt 0.710585 0.337710
vt 0.500357 0.278954
vt 0.621018 0.308367
vt 0.584796 0.371926
vt 0.584796 0.371926
vt 0.621018 0.308367
vt 0.500357 0.278954
vt 0.980469 0.316406
vt 0.990885 0.496094
vt 0.940104 0.496094
vt 0.710585 0.337710
vt 0.727501 0.418417
vt 0.690983 0.388892
vt 0.940104 0.496094
vt 0.990885 0.131510
vt 0.990885 0.496094
vt 0.990885 0.496094
vt 0.990885 0.131510
vt 0.940104 0.496094
vt 0.990885 0.496094
vt 0.990885 0.131510
vt 0.940104 0.496094
vt 0.990885 0.496094
vt 0.990885 0.131510
vt 0.940104 0.496094
vt 0.667277 0.333209
vt 0.647397 0.354444
vt 0.655996 0.324095
vt 0.990885 0.131510
vt 0.940104 0.131510
vt 0.940104 0.496094
vt 0.990885 0.131510
vt 0.940104 0.496094
vt 0.990885 0.496094
vt 0.990885 0.496094
vt 0.980469 0.316406
vt 0.940104 0.496094
vt 0.940104 0.496094
vt 0.980469 0.316406
vt 0.990885 0.496094
vt 0.940104 0.496094
vt 0.990885 0.496094
vt 0.990885 0.131510
vt 0.940104 0.496094
vt 0.990885 0.131510
vt 0.940104 0.131510
vt 0.940104 0.496094
vt 0.990885 0.496094
vt 0.990885 0.131510
vt 0.940104 0.496094
vt 0.990885 0.131510
vt 0.940104 0.131510
vt 0.990885 0.496094
vt 0.990885 0.131510
vt 0.940104 0.496094
vt 0.588205 0.329715
vt 0.624080 0.278521
vt 0.574813 0.241320
vt 0.622604 0.277719
vt 0.665176 0.292575
vt 0.665240 0.292500
vt 0.574813 0.241320
vt 0.493194 0.246820
vt 0.588205 0.329715
vt 0.574813 0.241320
vt 0.624080 0.278521
vt 0.588205 0.329715
vt 0.665240 0.292500
vt 0.665176 0.292575
vt 0.622608 0.277748
vt 0.588205 0.329715
vt 0.493194 0.246820
vt 0.574865 0.241386
vt 0.667277 0.333209
vt 0.647397 0.354444
vt 0.690983 0.388892
vt 0.690983 0.388892
vt 0.647397 0.354444
vt 0.667277 0.333209
vt 0.667277 0.333209
vt 0.710585 0.337710
vt 0.690983 0.388892
vt 0.690983 0.388892
vt 0.710585 0.337710
vt 0.667277 0.333209
vt 0.584796 0.371926
vt 0.621018 0.308367
vt 0.500357 0.278954
vt 0.549100 0.223310
vt 0.549226 0.281429
vt 0.600189 0.307435
vn 0.702928 0.705301 -0.091887
vn 0.323399 0.941900 -0.090754
vn 0.307443 0.947095 -0.092137
vn 0.702928 0.705301 -0.091887
vn 0.307443 0.947095 -0.092137
vn 0.706057 0.701290 -0.098360
vn 0.706057 0.701290 -0.098360
vn 0.307443 0.947095 -0.092137
vn 0.279379 0.956322 -0.085999
vn 0.706057 0.701290 -0.098360
vn 0.279379 0.956322 -0.085999
vn 0.707461 0.699777 -0.099054
vn 0.707461 0.699777 -0.099054
vn 0.279379 0.956322 -0.085999
vn 0.705662 0.702410 -0.093065
vn -0.910265 -0.330017 0.250014
vn -0.907544 -0.336587 0.251144
vn -0.515155 -0.843797 0.150404
vn -0.910265 -0.330017 0.250014
vn -0.515155 -0.843797 0.150404
vn -0.709822 -0.654999 0.259092
vn -0.454000 -0.852407 0.259397
vn -0.742978 -0.602772 0.290947
vn -0.739443 -0.613403 0.277417
vn -0.922219 -0.289009 0.256877
vn -0.910265 -0.330017 0.250014
vn -0.709822 -0.654999 0.259092
vn -0.922219 -0.289009 0.256877
vn -0.709822 -0.654999 0.259092
vn -0.739443 -0.613403 0.277417
vn -0.739443 -0.613403 0.277417
vn -0.709822 -0.654999 0.259092
vn -0.404802 -0.884945 0.230235
vn -0.739443 -0.613403 0.277417
vn -0.404802 -0.884945 0.230235
vn -0.454000 -0.852407 0.259397
vn -0.739443 -0.613403 0.277417
vn -0.742978 -0.602772 0.290947
vn -0.922219 -0.289009 0.256877
vn 0.707461 0.699777 -0.099054
vn 0.959203 0.268862 -0.087422
vn 0.949838 0.301526 -0.083001
vn 0.707461 0.699777 -0.099054
vn 0.949838 0.301526 -0.083001
vn 0.706057 0.701290 -0.098360
vn 0.705662 0.702410 -0.093065
vn 0.959203 0.268862 -0.087422
vn 0.707461 0.699777 -0.099054
vn -0.404802 -0.884945 0.230235
vn -0.709822 -0.654999 0.259092
vn -0.515155 -0.843797 0.150404
vn -0.404802 -0.884945 0.230235
vn -0.515155 -0.843797 0.150404
vn 0.001340 -0.997216 0.074560
vn 0.706057 0.701290 -0.098360
vn 0.949838 0.301526 -0.083001
vn 0.941855 0.327625 -0.074640
vn 0.706057 0.701290 -0.098360
vn 0.941855 0.327625 -0.074640
vn 0.702928 0.705301 -0.091887
vn -0.705132 0.702250 -0.098154
vn -0.307443 0.947095 -0.092137
vn -0.323399 0.941900 -0.090754
vn -0.705132 0.702250 -0.098154
vn -0.323399 0.941900 -0.090754
vn -0.701090 0.707180 -0.091485
vn -0.707461 0.699777 -0.099054
vn -0.279379 0.956322 -0.085999
vn -0.307443 0.947095 -0.092137
vn -0.707461 0.699777 -0.099054
vn -0.307443 0.947095 -0.092137
vn -0.705132 0.702250 -0.098154
vn -0.705662 0.702410 -0.093065
vn -0.279379 0.956322 -0.085999
vn -0.707461 0.699777 -0.099054
vn 0.709849 -0.654821 0.259468
vn 0.515427 -0.843733 0.149829
vn 0.908675 -0.332933 0.251924
vn 0.709849 -0.654821 0.259468
vn 0.908675 -0.332933 0.251924
vn 0.910820 -0.328186 0.250401
vn 0.739443 -0.613403 0.277417
vn 0.742978 -0.602772 0.290947
vn 0.454000 -0.852407 0.259397
vn 0.739443 -0.613403 0.277417
vn 0.709849 -0.654821 0.259468
vn 0.910820 -0.328186 0.250401
vn 0.739443 -0.613403 0.277417
vn 0.910820 -0.328186 0.250401
vn 0.922219 -0.289009 0.256877
vn 0.454000 -0.852407 0.259397
vn 0.403328 -0.885626 0.230202
vn 0.709849 -0.654821 0.259468
vn 0.454000 -0.852407 0.259397
vn 0.709849 -0.654821 0.259468
vn 0.739443 -0.613403 0.277417
vn 0.922219 -0.289009 0.256877
vn 0.742978 -0.602772 0.290947
vn 0.739443 -0.613403 0.277417
vn -0.705132 0.702250 -0.098154
vn -0.949056 0.304048 -0.082749
vn -0.959203 0.268862 -0.087422
vn -0.705132 0.702250 -0.098154
vn -0.959203 0.268862 -0.087422
vn -0.707461 0.699777 -0.099054
vn -0.707461 0.699777 -0.099054
vn -0.959203 0.268862 -0.087422
vn -0.705662 0.702410 -0.093065
vn -0.001116 -0.815525 0.578720
vn -0.625684 -0.635766 0.452020
vn -0.003093 -0.624835 0.780751
vn 0.001340 -0.997216 0.074560
vn 0.515427 -0.843733 0.149829
vn 0.709849 -0.654821 0.259468
vn 0.001340 -0.997216 0.074560
vn 0.709849 -0.654821 0.259468
vn 0.403328 -0.885626 0.230202
vn 0.931301 -0.336861 -0.138576
vn 0.919426 -0.362579 -0.152290
vn 0.931301 -0.336861 -0.138576
vn 0.959961 -0.251931 -0.122494
vn 0.959961 -0.251931 -0.122494
vn 0.953432 -0.275161 -0.123505
vn 0.959961 -0.251931 -0.122494
vn 0.953432 -0.275161 -0.123505
vn 0.953432 -0.275161 -0.123505
vn -0.717070 0.696961 0.007467
vn -0.682547 0.730597 0.018920
vn -0.682547 0.730597 0.018920
vn -0.717070 0.696961 0.007467
vn -0.682547 0.730597 0.018920
vn -0.717070 0.696961 0.007467
vn -0.004980 -0.999985 0.002212
vn -0.003058 -0.999994 0.001428
vn -0.003058 -0.999994 0.001428
vn -0.004980 -0.999985 0.002212
vn -0.003058 -0.999994 0.001428
vn -0.004980 -0.999985 0.002212
vn -0.003058 -0.999994 0.001428
vn -0.003058 -0.999994 0.001428
vn 0.002204 -0.999996 -0.001736
vn -0.003058 -0.999994 0.001428
vn 0.002204 -0.999996 -0.001736
vn 0.004321 -0.999990 -0.000812
vn 0.175546 -0.983791 0.036582
vn 0.240323 -0.934304 -0.263290
vn 0.004321 -0.999990 -0.000812
vn 0.175546 -0.983791 0.036582
vn 0.004321 -0.999990 -0.000812
vn 0.002204 -0.999996 -0.001736
vn -0.518300 0.842878 0.144645
vn -0.558165 0.816453 0.147837
vn -0.558165 0.816453 0.147837
vn -0.422805 -0.874339 0.238261
vn -0.422805 -0.874339 0.238261
vn -0.407046 -0.878648 0.249584
vn -0.422805 -0.874339 0.238261
vn -0.407046 -0.878648 0.249584
vn -0.407046 -0.878648 0.249584
vn -0.407046 -0.878648 0.249584
vn -0.407046 -0.878648 0.249584
vn -0.404592 -0.874557 0.267310
vn -0.558165 0.816453 0.147837
vn -0.558165 0.816453 0.147837
vn -0.614998 0.771536 0.162816
vn -0.558165 0.816453 0.147837
vn -0.614998 0.771536 0.162816
vn -0.614998 0.771536 0.162816
vn -0.562880 -0.665173 -0.490623
vn -0.234717 -0.935359 -0.264598
vn -0.472019 -0.769875 -0.429523
vn 0.910265 0.330017 -0.250014
vn 0.910265 0.330017 -0.250014
vn 0.922219 0.289009 -0.256877
vn 0.910265 0.330017 -0.250014
vn 0.922219 0.289009 -0.256877
vn 0.922219 0.289009 -0.256877
vn 0.922219 0.289009 -0.256877
vn 0.922219 0.289009 -0.256877
vn 0.930268 0.254203 -0.264542
vn 0.001340 -0.997216 0.074560
vn -0.515155 -0.843797 0.150404
vn -0.172868 -0.984302 0.035589
vn -0.624539 0.780493 0.027967
vn 0.624679 0.780388 0.027776
vn -0.000000 0.999998 -0.001914
vn -0.624539 0.780493 0.027967
vn -0.000000 0.999998 -0.001914
vn -0.000000 0.999998 -0.001914
vn -0.624539 0.780493 0.027967
vn -0.000000 0.999998 -0.001914
vn -0.000000 0.999998 -0.001914
vn -0.624539 0.780493 0.027967
vn -0.000000 0.999998 -0.001914
vn -0.000000 0.999998 -0.001914
vn -0.624539 0.780493 0.027967
vn -0.000000 0.999998 -0.001914
vn -0.000000 0.999998 -0.001914
vn -0.445840 0.887851 0.113788
vn 0.000000 0.999999 -0.001735
vn 0.445840 0.887851 0.113788
vn -0.445840 0.887851 0.113788
vn 0.445840 0.887851 0.113788
vn 0.624679 0.780388 0.027776
vn -0.445840 0.887851 0.113788
vn 0.624679 0.780388 0.027776
vn -0.624539 0.780493 0.027967
vn 0.208986 0.933969 0.289875
vn 0.125732 0.824588 0.551585
vn 0.125732 0.824588 0.551585
vn 0.208986 0.933969 0.289875
vn 0.125732 0.824588 0.551585
vn 0.208986 0.933969 0.289875
vn 0.308152 0.945492 -0.105296
vn 0.308152 0.945492 -0.105296
vn 0.404802 0.884945 -0.230235
vn 0.308152 0.945492 -0.105296
vn 0.404802 0.884945 -0.230235
vn 0.404802 0.884945 -0.230235
vn -0.931301 -0.336861 -0.138576
vn -0.919426 -0.362579 -0.152290
vn -0.931301 -0.336861 -0.138576
vn 0.404802 0.884945 -0.230235
vn 0.404802 0.884945 -0.230235
vn 0.453999 0.852407 -0.259397
vn 0.404802 0.884945 -0.230235
vn 0.453999 0.852407 -0.259397
vn 0.453999 0.852407 -0.259397
vn 0.328319 -0.818939 -0.470687
vn 0.153460 -0.857594 -0.490900
vn 0.000001 -0.944418 -0.328746
vn 0.208986 0.933969 0.289875
vn 0.208986 0.933969 0.289875
vn 0.308152 0.945492 -0.105296
vn 0.208986 0.933969 0.289875
vn 0.308152 0.945492 -0.105296
vn 0.308152 0.945492 -0.105296
vn -0.562880 -0.665173 -0.490623
vn -0.642558 -0.552255 -0.531162
vn -0.856763 -0.353133 -0.375838
vn -0.877691 -0.460057 0.134185
vn -0.904616 -0.357342 0.232329
vn -0.904616 -0.357342 0.232329
vn -0.877691 -0.460057 0.134185
vn -0.904616 -0.357342 0.232329
vn -0.877691 -0.460057 0.134185
vn 0.530818 -0.844079 0.075914
vn 0.530818 -0.844079 0.075914
vn 0.469970 -0.859267 -0.201962
vn 0.530818 -0.844079 0.075914
vn 0.469970 -0.859267 -0.201962
vn 0.523925 -0.787110 -0.325515
vn -0.880809 -0.452740 -0.138570
vn -0.877691 -0.460057 0.134185
vn -0.877691 -0.460057 0.134185
vn -0.880809 -0.452740 -0.138570
vn -0.877691 -0.460057 0.134185
vn -0.885574 -0.415047 -0.208555
vn -0.930684 -0.271897 0.244742
vn -0.930684 -0.271897 0.244742
vn -0.904616 -0.357342 0.232329
vn -0.930684 -0.271897 0.244742
vn -0.904616 -0.357342 0.232329
vn -0.904616 -0.357342 0.232329
vn 0.611833 -0.756691 0.230387
vn 0.611833 -0.756691 0.230387
vn 0.615115 -0.751666 0.237972
vn 0.584511 -0.788605 0.190918
vn 0.584511 -0.788605 0.190918
vn 0.611833 -0.756691 0.230387
vn 0.584511 -0.788605 0.190918
vn 0.611833 -0.756691 0.230387
vn 0.611833 -0.756691 0.230387
vn 0.530818 -0.844079 0.075914
vn 0.530818 -0.844079 0.075914
vn 0.584511 -0.788605 0.190918
vn 0.530818 -0.844079 0.075914
vn 0.584511 -0.788605 0.190918
vn 0.584511 -0.788605 0.190918
vn -0.926827 -0.265100 0.265922
vn -0.930684 -0.271897 0.244742
vn -0.930684 -0.271897 0.244742
vn 0.453999 0.852407 -0.259397
vn 0.453999 0.852407 -0.259397
vn 0.438835 0.856540 -0.271593
vn 0.558277 0.816605 0.146575
vn 0.558277 0.816605 0.146575
vn 0.518518 0.843173 0.142121
vn 0.513050 -0.841149 0.171018
vn 0.515427 -0.843733 0.149829
vn 0.175546 -0.983791 0.036582
vn 0.407151 -0.878866 0.248642
vn 0.407151 -0.878866 0.248642
vn 0.423735 -0.873767 0.238704
vn 0.407151 -0.878866 0.248642
vn 0.423735 -0.873767 0.238704
vn 0.423735 -0.873767 0.238704
vn 0.404817 -0.875024 0.265435
vn 0.407151 -0.878866 0.248642
vn 0.407151 -0.878866 0.248642
vn 0.614998 0.771536 0.162816
vn 0.614998 0.771536 0.162816
vn 0.558277 0.816605 0.146575
vn 0.614998 0.771536 0.162816
vn 0.558277 0.816605 0.146575
vn 0.558277 0.816605 0.146575
vn -0.922768 0.289174 -0.254711
vn -0.922768 0.289174 -0.254711
vn -0.910820 0.328186 -0.250401
vn -0.922768 0.289174 -0.254711
vn -0.910820 0.328186 -0.250401
vn -0.910820 0.328186 -0.250401
vn -0.931394 0.254540 -0.260220
vn -0.922768 0.289174 -0.254711
vn -0.922768 0.289174 -0.254711
vn 0.175546 -0.983791 0.036582
vn 0.515427 -0.843733 0.149829
vn 0.001340 -0.997216 0.074560
vn -0.001116 -0.815525 0.578720
vn -0.300551 -0.851952 0.428773
vn -0.625684 -0.635766 0.452020
vn 0.004981 -0.999985 0.002212
vn 0.003059 -0.999994 0.001428
vn 0.003059 -0.999994 0.001428
vn 0.004981 -0.999985 0.002212
vn 0.003059 -0.999994 0.001428
vn 0.004981 -0.999985 0.002212
vn -0.717070 0.696961 0.007467
vn -0.725676 0.688014 0.005505
vn -0.717070 0.696961 0.007467
vn 0.931301 -0.336861 -0.138576
vn 0.953432 -0.275161 -0.123505
vn 0.953432 -0.275161 -0.123505
vn 0.931301 -0.336861 -0.138576
vn 0.953432 -0.275161 -0.123505
vn 0.931301 -0.336861 -0.138576
vn -0.216340 0.932373 0.289617
vn -0.130433 0.820233 0.556961
vn -0.130433 0.820233 0.556961
vn -0.216340 0.932373 0.289617
vn -0.130433 0.820233 0.556961
vn -0.216340 0.932373 0.289617
vn -0.403386 0.885844 -0.229258
vn -0.403386 0.885844 -0.229258
vn -0.310354 0.944376 -0.108790
vn -0.403386 0.885844 -0.229258
vn -0.310354 0.944376 -0.108790
vn -0.310354 0.944376 -0.108790
vn -0.733790 0.670231 0.111100
vn -0.624539 0.780493 0.027967
vn -0.891334 0.453322 0.004771
vn -0.457729 0.850922 -0.257714
vn -0.457729 0.850922 -0.257714
vn -0.403386 0.885844 -0.229258
vn -0.457729 0.850922 -0.257714
vn -0.403386 0.885844 -0.229258
vn -0.403386 0.885844 -0.229258
vn -0.567145 -0.672985 -0.474803
vn -0.505379 -0.838991 -0.201706
vn -0.552430 -0.775495 -0.305660
vn -0.310354 0.944376 -0.108790
vn -0.310354 0.944376 -0.108790
vn -0.216340 0.932373 0.289617
vn -0.310354 0.944376 -0.108790
vn -0.216340 0.932373 0.289617
vn -0.216340 0.932373 0.289617
vn 0.881263 -0.423860 -0.209087
vn 0.875474 -0.462656 -0.139626
vn 0.853638 -0.362119 -0.374396
vn 0.878345 -0.460118 0.129618
vn 0.907442 -0.347943 0.235554
vn 0.907442 -0.347943 0.235554
vn 0.878345 -0.460118 0.129618
vn 0.907442 -0.347943 0.235554
vn 0.878345 -0.460118 0.129618
vn -0.552430 -0.775495 -0.305660
vn -0.505379 -0.838991 -0.201706
vn -0.535882 -0.841202 0.072176
vn -0.552430 -0.775495 -0.305660
vn -0.535882 -0.841202 0.072176
vn -0.535882 -0.841202 0.072176
vn 0.881263 -0.423860 -0.209087
vn 0.878345 -0.460118 0.129618
vn 0.878345 -0.460118 0.129618
vn 0.881263 -0.423860 -0.209087
vn 0.878345 -0.460118 0.129618
vn 0.875474 -0.462656 -0.139626
vn 0.907442 -0.347943 0.235554
vn 0.907442 -0.347943 0.235554
vn 0.929069 -0.274716 0.247715
vn 0.907442 -0.347943 0.235554
vn 0.929069 -0.274716 0.247715
vn 0.929069 -0.274716 0.247715
vn -0.651727 -0.722949 0.229337
vn -0.628740 -0.744838 0.223387
vn -0.628740 -0.744838 0.223387
vn -0.628740 -0.744838 0.223387
vn -0.628740 -0.744838 0.223387
vn -0.575696 -0.795206 0.190320
vn -0.628740 -0.744838 0.223387
vn -0.575696 -0.795206 0.190320
vn -0.575696 -0.795206 0.190320
vn -0.575696 -0.795206 0.190320
vn -0.575696 -0.795206 0.190320
vn -0.535882 -0.841202 0.072176
vn -0.575696 -0.795206 0.190320
vn -0.535882 -0.841202 0.072176
vn -0.535882 -0.841202 0.072176
vn 0.929069 -0.274716 0.247715
vn 0.929069 -0.274716 0.247715
vn 0.922296 -0.282502 0.263746
vn -0.445531 0.853487 -0.270300
vn -0.457729 0.850922 -0.257714
vn -0.457729 0.850922 -0.257714
vn -0.931301 -0.336861 -0.138576
vn -0.953432 -0.275161 -0.123505
vn -0.953432 -0.275161 -0.123505
vn -0.931301 -0.336861 -0.138576
vn -0.953432 -0.275161 -0.123505
vn -0.931301 -0.336861 -0.138576
vn -0.953432 -0.275161 -0.123505
vn -0.953432 -0.275161 -0.123505
vn -0.959961 -0.251931 -0.122494
vn -0.953432 -0.275161 -0.123505
vn -0.959961 -0.251931 -0.122494
vn -0.959961 -0.251931 -0.122494
vn 0.600529 0.798712 0.037735
vn 0.600529 0.798712 0.037735
vn 0.682547 0.730597 0.018920
vn 0.600529 0.798712 0.037735
vn 0.682547 0.730597 0.018920
vn 0.682547 0.730597 0.018920
vn 0.717070 0.696961 0.007467
vn 0.725676 0.688014 0.005505
vn 0.717070 0.696961 0.007467
vn 0.004981 -0.999985 0.002212
vn 0.004782 -0.999986 0.002115
vn 0.004981 -0.999985 0.002212
vn -0.003240 -0.999994 -0.000814
vn -0.001483 -0.999997 -0.001737
vn 0.003059 -0.999994 0.001428
vn -0.003240 -0.999994 -0.000814
vn 0.003059 -0.999994 0.001428
vn 0.003059 -0.999994 0.001428
vn -0.001483 -0.999997 -0.001737
vn -0.003240 -0.999994 -0.000814
vn -0.234717 -0.935359 -0.264598
vn -0.001483 -0.999997 -0.001737
vn -0.234717 -0.935359 -0.264598
vn -0.172868 -0.984302 0.035589
vn -0.891334 0.453322 0.004771
vn -0.624539 0.780493 0.027967
vn -0.889859 0.456235 0.000015
vn -0.600171 0.798995 0.037443
vn -0.600171 0.798995 0.037443
vn -0.541433 0.839467 0.046307
vn -0.600171 0.798995 0.037443
vn -0.541433 0.839467 0.046307
vn -0.541433 0.839467 0.046307
vn -0.682547 0.730597 0.018920
vn -0.682547 0.730597 0.018920
vn -0.600171 0.798995 0.037443
vn -0.682547 0.730597 0.018920
vn -0.600171 0.798995 0.037443
vn -0.600171 0.798995 0.037443
vn 0.523925 -0.787110 -0.325515
vn 0.469970 -0.859267 -0.201962
vn 0.544267 -0.675731 -0.497153
vn 0.717070 0.696961 0.007467
vn 0.682547 0.730597 0.018920
vn 0.682547 0.730597 0.018920
vn 0.717070 0.696961 0.007467
vn 0.682547 0.730597 0.018920
vn 0.717070 0.696961 0.007467
vn 0.907544 0.336587 -0.251144
vn 0.910265 0.330017 -0.250014
vn 0.910265 0.330017 -0.250014
vn 0.907544 0.336587 -0.251144
vn 0.910265 0.330017 -0.250014
vn 0.907544 0.336587 -0.251144
vn -0.908675 0.332933 -0.251924
vn -0.910820 0.328186 -0.250401
vn -0.910820 0.328186 -0.250401
vn -0.908675 0.332933 -0.251924
vn -0.910820 0.328186 -0.250401
vn -0.908675 0.332933 -0.251924
vn -0.234717 -0.935359 -0.264598
vn -0.562880 -0.665173 -0.490623
vn 0.002370 -0.829246 -0.558879
vn -0.234717 -0.935359 -0.264598
vn 0.002370 -0.829246 -0.558879
vn 0.005081 -0.955140 -0.296112
vn 0.005081 -0.955140 -0.296112
vn 0.002370 -0.829246 -0.558879
vn 0.561688 -0.666053 -0.490795
vn 0.005081 -0.955140 -0.296112
vn 0.561688 -0.666053 -0.490795
vn 0.240323 -0.934304 -0.263290
vn -0.001483 -0.999997 -0.001737
vn -0.172868 -0.984302 0.035589
vn 0.001954 -0.994077 0.108663
vn -0.445840 0.887851 0.113788
vn -0.624539 0.780493 0.027967
vn -0.733790 0.670231 0.111100
vn -0.452345 -0.883739 0.119958
vn -0.511413 -0.841932 0.172068
vn -0.515155 -0.843797 0.150404
vn -0.452345 -0.883739 0.119958
vn -0.515155 -0.843797 0.150404
vn -0.422805 -0.874339 0.238261
vn -0.452345 -0.883739 0.119958
vn -0.422805 -0.874339 0.238261
vn -0.422805 -0.874339 0.238261
vn -0.733790 0.670231 0.111100
vn -0.614998 0.771536 0.162816
vn -0.614998 0.771536 0.162816
vn -0.733790 0.670231 0.111100
vn -0.614998 0.771536 0.162816
vn -0.445840 0.887851 0.113788
vn 0.423735 -0.873767 0.238704
vn 0.423735 -0.873767 0.238704
vn 0.515427 -0.843733 0.149829
vn 0.423735 -0.873767 0.238704
vn 0.515427 -0.843733 0.149829
vn 0.513050 -0.841149 0.171018
vn 0.423735 -0.873767 0.238704
vn 0.513050 -0.841149 0.171018
vn 0.454635 -0.882501 0.120410
vn 0.733790 0.670231 0.111100
vn 0.445840 0.887851 0.113788
vn 0.614998 0.771536 0.162816
vn 0.733790 0.670231 0.111100
vn 0.614998 0.771536 0.162816
vn 0.614998 0.771536 0.162816
vn 0.624679 0.780388 0.027776
vn 0.445840 0.887851 0.113788
vn 0.733790 0.670231 0.111100
vn 0.622974 -0.638345 0.452127
vn 0.300551 -0.851952 0.428773
vn -0.001116 -0.815525 0.578720
vn -0.940144 0.332618 -0.074125
vn -0.949056 0.304048 -0.082749
vn -0.705132 0.702250 -0.098154
vn -0.940144 0.332618 -0.074125
vn -0.705132 0.702250 -0.098154
vn -0.701090 0.707180 -0.091485
vn -0.172868 -0.984302 0.035589
vn -0.515155 -0.843797 0.150404
vn -0.511413 -0.841932 0.172068
vn 0.891414 0.453170 0.004262
vn 0.624679 0.780388 0.027776
vn 0.733790 0.670231 0.111100
vn -0.001954 -0.994096 0.108482
vn 0.175546 -0.983791 0.036582
vn 0.002204 -0.999996 -0.001736
vn -0.433799 -0.765583 -0.475080
vn -0.642558 -0.552255 -0.531162
vn -0.562880 -0.665173 -0.490623
vn 0.471239 -0.770486 -0.429285
vn 0.240323 -0.934304 -0.263290
vn 0.561688 -0.666053 -0.490795
vn -0.172868 -0.984302 0.035589
vn -0.234717 -0.935359 -0.264598
vn 0.005081 -0.955140 -0.296112
vn -0.172868 -0.984302 0.035589
vn 0.005081 -0.955140 -0.296112
vn 0.001340 -0.997216 0.074560
vn 0.001340 -0.997216 0.074560
vn 0.005081 -0.955140 -0.296112
vn 0.240323 -0.934304 -0.263290
vn 0.001340 -0.997216 0.074560
vn 0.240323 -0.934304 -0.263290
vn 0.175546 -0.983791 0.036582
vn 0.853638 -0.362119 -0.374396
vn 0.640235 -0.555327 -0.530764
vn 0.561688 -0.666053 -0.490795
vn -0.607771 -0.602344 -0.517490
vn -0.597876 -0.592507 -0.539888
vn -0.567145 -0.672985 -0.474803
vn 0.544267 -0.675731 -0.497153
vn 0.153460 -0.857594 -0.490900
vn 0.328319 -0.818939 -0.470687
vn -0.856763 -0.353133 -0.375838
vn -0.880809 -0.452740 -0.138570
vn -0.885574 -0.415047 -0.208555
vn 0.561688 -0.666053 -0.490795
vn 0.640235 -0.555327 -0.530764
vn 0.433259 -0.766089 -0.474757
vn 0.853638 -0.362119 -0.374396
vn 0.561688 -0.666053 -0.490795
vn 0.881263 -0.423860 -0.209087
vn -0.552430 -0.775495 -0.305660
vn -0.607771 -0.602344 -0.517490
vn -0.567145 -0.672985 -0.474803
vn 0.544267 -0.675731 -0.497153
vn 0.328319 -0.818939 -0.470687
vn 0.523925 -0.787110 -0.325515
vn -0.885574 -0.415047 -0.208555
vn -0.562880 -0.665173 -0.490623
vn -0.856763 -0.353133 -0.375838
vn 0.890090 0.455785 -0.000495
vn 0.624679 0.780388 0.027776
vn 0.891414 0.453170 0.004262
vn 0.542183 0.838951 0.046892
vn 0.542183 0.838951 0.046892
vn 0.600529 0.798712 0.037735
vn 0.542183 0.838951 0.046892
vn 0.600529 0.798712 0.037735
vn 0.600529 0.798712 0.037735
vn -0.030281 -0.999529 -0.004880
vn -0.030281 -0.999529 -0.004880
vn -0.030281 -0.999529 -0.004880
vn 0.030516 -0.999522 -0.004913
vn 0.030516 -0.999522 -0.004913
vn 0.030516 -0.999522 -0.004913
vn 0.959961 -0.251931 -0.122494
vn 0.959961 -0.251931 -0.122494
vn 0.872062 -0.484715 0.067519
vn 0.959961 -0.251931 -0.122494
vn 0.872062 -0.484715 0.067519
vn 0.971193 -0.217633 0.097054
vn -0.971174 -0.217201 0.098209
vn -0.871663 -0.485311 0.068392
vn -0.959961 -0.251931 -0.122494
vn -0.971174 -0.217201 0.098209
vn -0.959961 -0.251931 -0.122494
vn -0.959961 -0.251931 -0.122494
vn -0.004980 -0.999985 0.002212
vn -0.004780 -0.999986 0.002115
vn -0.004980 -0.999985 0.002212
vn 0.872062 -0.484715 0.067519
vn 0.454635 -0.882501 0.120410
vn 0.513050 -0.841149 0.171018
vn 0.513050 -0.841149 0.171018
vn 0.175546 -0.983791 0.036582
vn -0.001954 -0.994096 0.108482
vn 0.513050 -0.841149 0.171018
vn 0.971193 -0.217633 0.097054
vn 0.872062 -0.484715 0.067519
vn -0.511413 -0.841932 0.172068
vn -0.452345 -0.883739 0.119958
vn -0.871663 -0.485311 0.068392
vn 0.001954 -0.994077 0.108663
vn -0.172868 -0.984302 0.035589
vn -0.511413 -0.841932 0.172068
vn -0.871663 -0.485311 0.068392
vn -0.971174 -0.217201 0.098209
vn -0.511413 -0.841932 0.172068
vn -0.889859 0.456235 0.000015
vn -0.624539 0.780493 0.027967
vn -0.888750 0.458333 -0.007392
vn 0.889055 0.457740 -0.007393
vn 0.624679 0.780388 0.027776
vn 0.890090 0.455785 -0.000495
vn 0.471239 -0.770486 -0.429285
vn 0.561688 -0.666053 -0.490795
vn 0.433259 -0.766089 -0.474757
vn -0.433799 -0.765583 -0.475080
vn -0.562880 -0.665173 -0.490623
vn -0.472019 -0.769875 -0.429523
vn 0.000001 -0.944418 -0.328746
vn 0.330451 -0.891364 -0.310278
vn 0.328319 -0.818939 -0.470687
vn -0.003093 -0.624835 0.780751
vn 0.622974 -0.638345 0.452127
vn -0.001116 -0.815525 0.578720
f 12/1/1 2/2/2 4/3/3
f 12/4/4 4/5/5 11/6/6
f 11/7/7 4/8/8 1/9/9
f 11/10/10 1/11/11 10/12/12
f 10/13/13 1/14/14 5/15/15
f 4/16/16 2/17/17 8/18/18
f 4/19/19 8/20/20 3/21/21
f 7/22/22 5/23/23 9/24/24
f 1/25/25 4/26/26 3/27/27
f 1/28/28 3/29/29 9/30/30
f 9/31/31 3/32/32 6/33/33
f 9/34/34 6/35/35 7/36/36
f 9/37/37 5/38/38 1/39/39
f 10/40/40 7/41/41 6/42/42
f 10/43/43 6/44/44 11/45/45
f 5/46/46 7/47/47 10/48/48
f 6/49/49 3/50/50 8/51/51
f 6/52/52 8/53/53 13/54/54
f 11/55/55 6/56/56 13/57/57
f 11/58/58 13/59/59 12/60/60
f 24/61/61 17/62/62 15/63/63
f 24/64/64 15/65/65 25/66/66
f 23/67/67 14/68/68 17/69/69
f 23/70/70 17/71/71 24/72/72
f 18/73/73 14/74/74 23/75/75
f 16/76/76 21/77/77 15/78/78
f 16/79/79 15/80/80 17/81/81
f 22/82/82 18/83/83 20/84/84
f 22/85/85 16/86/86 17/87/87
f 22/88/88 17/89/89 14/90/90
f 20/91/91 19/92/92 16/93/93
f 20/94/94 16/95/95 22/96/96
f 14/97/97 18/98/98 22/99/99
f 24/100/100 19/101/101 20/102/102
f 24/103/103 20/104/104 23/105/105
f 23/106/106 20/107/107 18/108/108
f 104/109/109 12/110/110 13/111/111
f 13/112/112 21/113/113 16/114/114
f 13/115/115 16/116/116 19/117/117
f 98/118/118 26/119/119 99/120/120
f 30/121/121 31/122/122 32/123/123
f 30/124/124 32/125/125 33/126/126
f 100/127/127 35/128/128 33/129/129
f 100/130/130 33/131/131 99/132/132
f 98/133/133 32/134/134 35/135/135
f 98/136/136 35/137/137 100/138/138
f 35/139/139 32/140/140 31/141/141
f 35/142/142 31/143/143 36/144/144
f 67/145/145 53/146/146 36/147/147
f 67/148/148 36/149/149 31/150/150
f 38/151/151 40/152/152 45/153/153
f 46/154/154 41/155/155 42/156/156
f 46/157/157 42/158/158 45/159/159
f 45/160/160 42/161/161 38/162/162
f 45/163/163 40/164/164 39/165/165
f 45/166/166 39/167/167 46/168/168
f 65/169/169 71/170/170 68/171/171
f 41/172/172 39/173/173 40/174/174
f 41/175/175 40/176/176 42/177/177
f 42/178/178 40/179/179 38/180/180
f 13/181/181 8/182/182 37/183/183
f 27/184/184 34/185/185 111/186/186
f 27/187/187 111/188/188 89/189/189
f 27/190/190 89/191/191 113/192/192
f 27/193/193 113/194/194 58/195/195
f 27/196/196 58/197/197 112/198/198
f 2/199/199 104/200/200 15/201/201
f 2/202/202 15/203/203 34/204/204
f 2/205/205 34/206/206 27/207/207
f 60/208/208 66/209/209 65/210/210
f 60/211/211 65/212/212 48/213/213
f 52/214/214 49/215/215 55/216/216
f 52/217/217 55/218/218 64/219/219
f 102/220/220 43/221/221 103/222/222
f 64/223/223 55/224/224 56/225/225
f 64/226/226 56/227/227 63/228/228
f 66/229/229 58/230/230 113/231/231
f 60/232/232 48/233/233 49/234/234
f 60/235/235 49/236/236 52/237/237
f 65/238/238 58/239/239 57/240/240
f 62/241/241 51/242/242 55/243/243
f 62/244/244 55/245/245 49/246/246
f 52/247/247 62/248/248 61/249/249
f 52/250/250 61/251/251 60/252/252
f 61/253/253 62/254/254 49/255/255
f 61/256/256 49/257/257 48/258/258
f 59/259/259 56/260/260 55/261/261
f 59/262/262 55/263/263 51/264/264
f 59/265/265 63/266/266 50/267/267
f 51/268/268 64/269/269 63/270/270
f 51/271/271 63/272/272 59/273/273
f 62/274/274 52/275/275 64/276/276
f 62/277/277 64/278/278 51/279/279
f 50/280/280 56/281/281 59/282/282
f 63/283/283 56/284/284 50/285/285
f 77/286/286 73/287/287 70/288/288
f 109/289/289 21/290/290 67/291/291
f 77/292/292 75/293/293 74/294/294
f 77/295/295 74/296/296 78/297/297
f 70/298/298 75/299/299 77/300/300
f 78/301/301 72/302/302 73/303/303
f 78/304/304 73/305/305 77/306/306
f 75/307/307 73/308/308 72/309/309
f 75/310/310 72/311/311 74/312/312
f 70/313/313 73/314/314 75/315/315
f 67/316/316 21/317/317 13/318/318
f 104/319/319 2/320/320 12/321/321
f 101/322/322 80/323/323 28/324/324
f 101/325/325 28/326/326 103/327/327
f 99/328/328 26/329/329 100/330/330
f 99/331/331 33/332/332 32/333/333
f 99/334/334 32/335/335 98/336/336
f 81/337/337 79/338/338 66/339/339
f 81/340/340 66/341/341 91/342/342
f 95/343/343 87/344/344 82/345/345
f 95/346/346 82/347/347 85/348/348
f 96/349/349 27/350/350 105/351/351
f 94/352/352 88/353/353 87/354/354
f 94/355/355 87/356/356 95/357/357
f 106/358/358 92/359/359 91/360/360
f 85/361/361 82/362/362 81/363/363
f 85/364/364 81/365/365 91/366/366
f 81/367/367 92/368/368 106/369/369
f 82/370/370 87/371/371 84/372/372
f 82/373/373 84/374/374 93/375/375
f 91/376/376 92/377/377 93/378/378
f 91/379/379 93/380/380 85/381/381
f 81/382/382 82/383/383 93/384/384
f 81/385/385 93/386/386 92/387/387
f 84/388/388 87/389/389 88/390/390
f 84/391/391 88/392/392 90/393/393
f 83/394/394 94/395/395 90/396/396
f 90/397/397 94/398/398 95/399/399
f 90/400/400 95/401/401 84/402/402
f 84/403/403 95/404/404 85/405/405
f 84/406/406 85/407/407 93/408/408
f 90/409/409 88/410/410 83/411/411
f 83/412/412 88/413/413 94/414/414
f 103/415/415 28/416/416 76/417/417
f 103/418/418 76/419/419 102/420/420
f 76/421/421 28/422/422 29/423/423
f 76/424/424 29/425/425 44/426/426
f 44/427/427 47/428/428 80/429/429
f 44/430/430 80/431/431 76/432/432
f 101/433/433 43/434/434 102/435/435
f 103/436/436 43/437/437 101/438/438
f 47/439/439 29/440/440 28/441/441
f 47/442/442 28/443/443 80/444/444
f 29/445/445 47/446/446 71/447/447
f 29/448/448 71/449/449 37/450/450
f 105/451/451 27/452/452 68/453/453
f 30/454/454 36/455/455 53/456/456
f 30/457/457 53/458/458 69/459/459
f 33/460/460 35/461/461 36/462/462
f 33/463/463 36/464/464 30/465/465
f 60/466/466 61/467/467 57/468/468
f 102/469/469 76/470/470 80/471/471
f 102/472/472 80/473/473 101/474/474
f 2/475/475 39/476/476 41/477/477
f 2/478/478 41/479/479 8/480/480
f 21/481/481 74/482/482 72/483/483
f 21/484/484 72/485/485 15/486/486
f 71/487/487 65/488/488 66/489/489
f 71/490/490 66/491/491 54/492/492
f 54/493/493 66/494/494 79/495/495
f 54/496/496 79/497/497 53/498/498
f 29/499/499 37/500/500 108/501/501
f 2/502/502 27/503/503 96/504/504
f 96/505/505 110/506/506 8/507/507
f 96/508/508 8/509/509 41/510/510
f 96/511/511 41/512/512 46/513/513
f 96/514/514 46/515/515 39/516/516
f 96/517/517 39/518/518 2/519/519
f 78/520/520 74/521/521 21/522/522
f 78/523/523 21/524/524 109/525/525
f 78/526/526 109/527/527 97/528/528
f 97/529/529 15/530/530 72/531/531
f 97/532/532 72/533/533 78/534/534
f 34/535/535 15/536/536 97/537/537
f 25/538/538 15/539/539 104/540/540
f 13/541/541 19/542/542 24/543/543
f 13/544/544 24/545/545 25/546/546
f 37/547/547 8/548/548 110/549/549
f 86/550/550 34/551/551 97/552/552
f 107/553/553 67/554/554 31/555/555
f 112/556/556 58/557/557 65/558/558
f 69/559/559 53/560/560 79/561/561
f 37/562/562 71/563/563 54/564/564
f 37/565/565 54/566/566 13/567/567
f 13/568/568 54/569/569 53/570/570
f 13/571/571 53/572/572 67/573/573
f 106/574/574 89/575/575 79/576/576
f 66/577/577 89/578/578 106/579/579
f 57/580/580 58/581/581 66/582/582
f 57/583/583 61/584/584 48/585/585
f 79/586/586 89/587/587 111/588/588
f 106/589/589 79/590/590 81/591/591
f 91/592/592 66/593/593 106/594/594
f 57/595/595 66/596/596 60/597/597
f 48/598/598 65/599/599 57/600/600
f 69/601/601 34/602/602 86/603/603
f 68/604/604 71/605/605 47/606/606
f 68/607/607 47/608/608 44/609/609
f 68/610/610 44/611/611 105/612/612
f 86/613/613 30/614/614 69/615/615
f 31/616/616 30/617/617 86/618/618
f 31/619/619 86/620/620 107/621/621
f 108/622/622 105/623/623 44/624/624
f 108/625/625 44/626/626 29/627/627
f 100/628/628 26/629/629 98/630/630
f 86/631/631 97/632/632 109/633/633
f 109/634/634 67/635/635 107/636/636
f 109/637/637 107/638/638 86/639/639
f 110/640/640 96/641/641 105/642/642
f 108/643/643 37/644/644 110/645/645
f 105/646/646 108/647/647 110/648/648
f 68/649/649 27/650/650 112/651/651
f 111/652/652 34/653/653 69/654/654
f 69/655/655 79/656/656 111/657/657
f 112/658/658 65/659/659 68/660/660
f 113/661/661 89/662/662 66/663/663
f 13/664/664 25/665/665 104/666/666
