v -0.027642 0.002173 0.732001
v -0.289639 -0.216200 0.580963
v -0.197292 -0.045338 0.125047
v -0.026514 0.063011 0.112538
v 0.026515 0.063011 0.112538
v -0.302460 -0.254205 0.624863
v -0.203064 -0.056017 0.153542
v -0.053288 0.010226 0.665117
v -0.055646 -0.016639 0.724080
v -0.283868 -0.197646 0.526217
v 0.289639 -0.216200 0.580963
v 0.197292 -0.045338 0.125047
v 0.302460 -0.254205 0.624863
v 0.203064 -0.056017 0.153542
v 0.283868 -0.197646 0.526217
v 0.053290 0.010226 0.665117
v 0.055649 -0.016639 0.724080
v 0.027645 0.002173 0.732001
v 0.052228 0.024226 0.600822
v 0.025945 0.042515 0.607923
v -0.025943 0.042515 0.607923
v -0.026471 0.028667 0.672536
v 0.026473 0.028667 0.672536
v -0.052226 0.024226 0.600822
v 0.000000 0.049271 0.611301
v 0.000000 0.035423 0.675914
v 0.000000 0.008929 0.735379
v -0.007682 0.067959 0.111684
v -0.007906 0.064529 0.147504
v -0.053947 0.047742 0.114806
v 0.007682 0.067959 0.111684
v 0.007907 0.064529 0.147504
v 0.027290 0.059128 0.147899
v 0.000000 0.067959 0.111684
v -0.027289 0.059128 0.147899
v -0.016339 0.066654 0.112111
v -0.016817 0.062997 0.147702
v 0.055526 0.042500 0.148794
v 0.016340 0.066654 0.112111
v 0.053947 0.047742 0.114806
v 0.000000 0.064529 0.147504
v -0.055525 0.042500 0.148794
v 0.016818 0.062997 0.147702
vt 0.000000 0.000000
vt 0.000000 0.000000
vt 0.000000 0.000000
vt 0.000000 0.000000
vt 0.000000 0.000000
vt 0.000000 0.000000
vt 0.000000 0.000000
vt 0.000000 0.000000
vt 0.000000 0.000000
vt 0.000000 0.000000
vt 0.000000 0.000000
vt 0.000000 0.000000
vt 0.000000 0.000000
vt 0.000000 0.000000
vt 0.000000 0.000000
vt 0.000000 0.000000
vt 0.000000 0.000000
vt 0.000000 0.000000
vt 0.000000 0.000000
vt 0.000000 0.000000
vt 0.000000 0.000000
vt 0.000000 0.000000
vt 0.000000 0.000000
vt 0.000000 0.000000
vt 0.000000 0.000000
vt 0.000000 0.000000
vt 0.000000 0.000000
vt 0.000000 0.000000
vt 0.000000 0.000000
vt 0.000000 0.000000
vt 0.000000 0.000000
vt 0.000000 0.000000
vt 0.000000 0.000000
vt 0.000000 0.000000
vt 0.000000 0.000000
vt 0.000000 0.000000
vt 0.000000 0.000000
vt 0.000000 0.000000
vt 0.000000 0.000000
vt 0.000000 0.000000
vt 0.000000 0.000000
vt 0.000000 0.000000
vt 0.000000 0.000000
vt 0.000000 0.000000
vt 0.000000 0.000000
vt 0.000000 0.000000
vt 0.000000 0.000000
vt 0.000000 0.000000
vt 0.000000 0.000000
vt 0.000000 0.000000
vt 0.000000 0.000000
vt 0.000000 0.000000
vt 0.000000 0.000000
vt 0.000000 0.000000
vt 0.000000 0.000000
vt 0.000000 0.000000
vt 0.000000 0.000000
vt 0.000000 0.000000
vt 0.000000 0.000000
vt 0.000000 0.000000
vt 0.000000 0.000000
vt 0.000000 0.000000
vt 0.000000 0.000000
vt 0.000000 0.000000
vt 0.000000 0.000000
vt 0.000000 0.000000
vt 0.000000 0.000000
vt 0.000000 0.000000
vt 0.000000 0.000000
vt 0.000000 0.000000
vt 0.000000 0.000000
vt 0.000000 0.000000
vt 0.000000 0.000000
vt 0.000000 0.000000
vt 0.000000 0.000000
vt 0.000000 0.000000
vt 0.000000 0.000000
vt 0.000000 0.000000
vt 0.000000 0.000000
vt 0.000000 0.000000
vt 0.000000 0.000000
vt 0.000000 0.000000
vt 0.000000 0.000000
vt 0.000000 0.000000
vt 0.000000 0.000000
vt 0.000000 0.000000
vt 0.000000 0.000000
vt 0.000000 0.000000
vt 0.000000 0.000000
vt 0.000000 0.000000
vt 0.000000 0.000000
vt 0.000000 0.000000
vt 0.000000 0.000000
vt 0.000000 0.000000
vt 0.000000 0.000000
vt 0.000000 0.000000
vt 0.000000 0.000000
vt 0.000000 0.000000
vt 0.000000 0.000000
vt 0.000000 0.000000
vt 0.000000 0.000000
vt 0.000000 0.000000
vt 0.000000 0.000000
vt 0.000000 0.000000
vt 0.000000 0.000000
vt 0.000000 0.000000
vt 0.000000 0.000000
vt 0.000000 0.000000
vt 0.000000 0.000000
vt 0.000000 0.000000
vt 0.000000 0.000000
vt 0.000000 0.000000
vt 0.000000 0.000000
vt 0.000000 0.000000
vt 0.000000 0.000000
vt 0.000000 0.000000
vt 0.000000 0.000000
vt 0.000000 0.000000
vt 0.000000 0.000000
vt 0.000000 0.000000
vt 0.000000 0.000000
vt 0.000000 0.000000
vt 0.000000 0.000000
vt 0.000000 0.000000
vt 0.000000 0.000000
vt 0.000000 0.000000
vt 0.000000 0.000000
vt 0.000000 0.000000
vt 0.000000 0.000000
vt 0.000000 0.000000
vt 0.000000 0.000000
vt 0.000000 0.000000
vn 0.000007 -0.914457 -0.404684
vn 0.437530 -0.824469 -0.358912
vn 0.439085 -0.855924 -0.273128
vn 0.000007 -0.914457 -0.404684
vn 0.439085 -0.855924 -0.273128
vn 0.000007 -0.951314 -0.308224
vn 0.656942 -0.717539 -0.231440
vn 0.715983 -0.662300 -0.220742
vn 0.709826 -0.688739 -0.147602
vn 0.656942 -0.717539 -0.231440
vn 0.709826 -0.688739 -0.147602
vn 0.652452 -0.741608 -0.155959
vn -0.514161 -0.847621 -0.131062
vn -0.514161 -0.847621 -0.131062
vn -0.536641 -0.827606 -0.164575
vn -0.514161 -0.847621 -0.131062
vn -0.536641 -0.827606 -0.164575
vn -0.536641 -0.827606 -0.164575
vn -0.656945 -0.717537 -0.231439
vn -0.715986 -0.662297 -0.220740
vn -0.708312 -0.620403 -0.336741
vn -0.656945 -0.717537 -0.231439
vn -0.708312 -0.620403 -0.336741
vn -0.657297 -0.688936 -0.305496
vn -0.652454 -0.741607 -0.155959
vn -0.709829 -0.688736 -0.147601
vn -0.715986 -0.662297 -0.220740
vn -0.652454 -0.741607 -0.155959
vn -0.715986 -0.662297 -0.220740
vn -0.656945 -0.717537 -0.231439
vn 0.000007 -0.951314 -0.308224
vn 0.439085 -0.855924 -0.273128
vn 0.436974 -0.880227 -0.185077
vn 0.000007 -0.951314 -0.308224
vn 0.436974 -0.880227 -0.185077
vn 0.000007 -0.978028 -0.208475
vn 0.657295 -0.688937 -0.305497
vn 0.708309 -0.620407 -0.336741
vn 0.715983 -0.662300 -0.220742
vn 0.657295 -0.688937 -0.305497
vn 0.715983 -0.662300 -0.220742
vn 0.656942 -0.717539 -0.231440
vn -0.656945 -0.717537 -0.231439
vn -0.439079 -0.855926 -0.273129
vn -0.436968 -0.880230 -0.185078
vn -0.656945 -0.717537 -0.231439
vn -0.436968 -0.880230 -0.185078
vn -0.652454 -0.741607 -0.155959
vn -0.657297 -0.688936 -0.305496
vn -0.437524 -0.824472 -0.358913
vn -0.439079 -0.855926 -0.273129
vn -0.657297 -0.688936 -0.305496
vn -0.439079 -0.855926 -0.273129
vn -0.656945 -0.717537 -0.231439
vn 0.656942 -0.717539 -0.231440
vn 0.439085 -0.855924 -0.273128
vn 0.437530 -0.824469 -0.358912
vn 0.656942 -0.717539 -0.231440
vn 0.437530 -0.824469 -0.358912
vn 0.657295 -0.688937 -0.305497
vn 0.652452 -0.741608 -0.155959
vn 0.436974 -0.880227 -0.185077
vn 0.439085 -0.855924 -0.273128
vn 0.652452 -0.741608 -0.155959
vn 0.439085 -0.855924 -0.273128
vn 0.656942 -0.717539 -0.231440
vn 0.000007 -0.951314 -0.308224
vn -0.439079 -0.855926 -0.273129
vn -0.437524 -0.824472 -0.358913
vn 0.000007 -0.951314 -0.308224
vn -0.437524 -0.824472 -0.358913
vn 0.000007 -0.914457 -0.404684
vn 0.000007 -0.978028 -0.208475
vn -0.436968 -0.880230 -0.185078
vn -0.439079 -0.855926 -0.273129
vn 0.000007 -0.978028 -0.208475
vn -0.439079 -0.855926 -0.273129
vn 0.000007 -0.951314 -0.308224
vn 0.514158 -0.847622 -0.131062
vn 0.514158 -0.847622 -0.131062
vn 0.536640 -0.827607 -0.164575
vn 0.514158 -0.847622 -0.131062
vn 0.536640 -0.827607 -0.164575
vn 0.536640 -0.827607 -0.164575
vn -0.000000 -0.995447 -0.095318
vn -0.077908 -0.992331 -0.095968
vn -0.077908 -0.992331 -0.095968
vn -0.000000 -0.995447 -0.095318
vn -0.077908 -0.992331 -0.095968
vn -0.000000 -0.995447 -0.095318
vn -0.247717 -0.964143 -0.095213
vn -0.077908 -0.992331 -0.095968
vn -0.077908 -0.992331 -0.095968
vn -0.247717 -0.964143 -0.095213
vn -0.077908 -0.992331 -0.095968
vn -0.247717 -0.964143 -0.095213
vn 0.247718 -0.964142 -0.095213
vn 0.077908 -0.992331 -0.095968
vn 0.077908 -0.992331 -0.095968
vn 0.247718 -0.964142 -0.095213
vn 0.077908 -0.992331 -0.095968
vn 0.247718 -0.964142 -0.095213
vn -0.415738 -0.904430 -0.095753
vn -0.514161 -0.847621 -0.131062
vn -0.514161 -0.847621 -0.131062
vn -0.415738 -0.904430 -0.095753
vn -0.514161 -0.847621 -0.131062
vn -0.415738 -0.904430 -0.095753
vn 0.415737 -0.904430 -0.095753
vn 0.514158 -0.847622 -0.131062
vn 0.514158 -0.847622 -0.131062
vn 0.415737 -0.904430 -0.095753
vn 0.514158 -0.847622 -0.131062
vn 0.415737 -0.904430 -0.095753
vn 0.247718 -0.964142 -0.095213
vn 0.415737 -0.904430 -0.095753
vn 0.415737 -0.904430 -0.095753
vn 0.247718 -0.964142 -0.095213
vn 0.415737 -0.904430 -0.095753
vn 0.247718 -0.964142 -0.095213
vn -0.247717 -0.964143 -0.095213
vn -0.415738 -0.904430 -0.095753
vn -0.415738 -0.904430 -0.095753
vn -0.247717 -0.964143 -0.095213
vn -0.415738 -0.904430 -0.095753
vn -0.247717 -0.964143 -0.095213
vn -0.000000 -0.995447 -0.095318
vn 0.077908 -0.992331 -0.095968
vn 0.077908 -0.992331 -0.095968
vn -0.000000 -0.995447 -0.095318
vn 0.077908 -0.992331 -0.095968
vn -0.000000 -0.995447 -0.095318
f 27/1/1 1/2/2 22/3/3
f 27/4/4 22/5/5 26/6/6
f 8/7/7 2/8/8 10/9/9
f 8/10/10 10/11/11 24/12/12
f 38/13/13 40/14/14 12/15/15
f 38/16/16 12/17/17 14/18/18
f 16/19/19 11/20/20 13/21/21
f 16/22/22 13/23/23 17/24/24
f 19/25/25 15/26/26 11/27/27
f 19/28/28 11/29/29 16/30/30
f 26/31/31 22/32/32 21/33/33
f 26/34/34 21/35/35 25/36/36
f 9/37/37 6/38/38 2/39/39
f 9/40/40 2/41/41 8/42/42
f 16/43/43 23/44/44 20/45/45
f 16/46/46 20/47/47 19/48/48
f 17/49/49 18/50/50 23/51/51
f 17/52/52 23/53/53 16/54/54
f 8/55/55 22/56/56 1/57/57
f 8/58/58 1/59/59 9/60/60
f 24/61/61 21/62/62 22/63/63
f 24/64/64 22/65/65 8/66/66
f 26/67/67 23/68/68 18/69/69
f 26/70/70 18/71/71 27/72/72
f 25/73/73 20/74/74 23/75/75
f 25/76/76 23/77/77 26/78/78
f 30/79/79 42/80/80 7/81/81
f 30/82/82 7/83/83 3/84/84
f 34/85/85 31/86/86 32/87/87
f 34/88/88 32/89/89 41/90/90
f 43/91/91 32/92/92 31/93/93
f 43/94/94 31/95/95 39/96/96
f 36/97/97 28/98/98 29/99/99
f 36/100/100 29/101/101 37/102/102
f 5/103/103 40/104/104 38/105/105
f 5/106/106 38/107/107 33/108/108
f 35/109/109 42/110/110 30/111/111
f 35/112/112 30/113/113 4/114/114
f 37/115/115 35/116/116 4/117/117
f 37/118/118 4/119/119 36/120/120
f 39/121/121 5/122/122 33/123/123
f 39/124/124 33/125/125 43/126/126
f 41/127/127 29/128/128 28/129/129
f 41/130/130 28/131/131 34/132/132
